# L_COM_FEM_V posed
v 0.023181 -0.048062 0.384881
v 0.022293 -0.045031 0.380640
v 0.004679 -0.038677 0.381981
v 0.005537 -0.041405 0.386219
v 0.020689 -0.044071 0.375700
v 0.003117 -0.038058 0.377331
v -0.011106 -0.033723 0.384582
v -0.011945 -0.037161 0.385325
v 0.004949 -0.045026 0.387127
v -0.011956 -0.031257 0.380288
v -0.013635 -0.030783 0.374861
v -0.015389 -0.033333 0.372464
v 0.001703 -0.040886 0.375018
v -0.054210 -0.024448 0.372794
v -0.056607 -0.024058 0.367139
v -0.034995 -0.029967 0.370033
v -0.032801 -0.030550 0.375954
v -0.016325 -0.036893 0.373566
v -0.015482 -0.039367 0.378283
v -0.036027 -0.027388 0.364655
v -0.029981 -0.022664 0.372371
v -0.029175 -0.024940 0.377486
v -0.032194 -0.022068 0.366623
v -0.013685 -0.039716 0.383084
v -0.030493 -0.028140 0.378540
v -0.034651 -0.024143 0.363788
v -0.055673 -0.018725 0.361306
v -0.052743 -0.016671 0.363988
v -0.057483 -0.021904 0.362140
v -0.050380 -0.017135 0.369396
v -0.049621 -0.019284 0.374140
v -0.051385 -0.022210 0.375151
v 0.003571 -0.047727 0.384913
v 0.019445 -0.053147 0.377593
v 0.001988 -0.047337 0.379751
v 0.018596 -0.050333 0.373610
v 0.019218 -0.046545 0.373125
v 0.001122 -0.044838 0.375603
v -0.117394 -0.014149 0.378811
v -0.113297 -0.011504 0.380873
v -0.094781 -0.011691 0.373785
v -0.098521 -0.014195 0.371580
v -0.120548 -0.017416 0.379880
v -0.101189 -0.017455 0.372716
v -0.120321 -0.019495 0.384678
v -0.100684 -0.019668 0.377719
v -0.117513 -0.019669 0.389648
v -0.097939 -0.019842 0.382756
v -0.113287 -0.017053 0.391574
v -0.094213 -0.017422 0.384887
v -0.110179 -0.013751 0.390385
v -0.091515 -0.014190 0.383615
v -0.110584 -0.011642 0.385820
v -0.092130 -0.012064 0.378997
v -0.147791 -0.016513 0.385488
v -0.144371 -0.013150 0.384393
v -0.079781 -0.019459 0.365976
v -0.079026 -0.021601 0.371017
v -0.076405 -0.021830 0.376217
v -0.073076 -0.019451 0.378268
v -0.070852 -0.016337 0.377016
v -0.071604 -0.014197 0.372172
v -0.074187 -0.013829 0.366928
v -0.140087 -0.010603 0.386733
v -0.147832 -0.018694 0.390355
v -0.145146 -0.018860 0.395314
v -0.140668 -0.016234 0.397258
v -0.137266 -0.012945 0.396164
v -0.077546 -0.016203 0.364757
v -0.137465 -0.010842 0.391750
f 1 2 3
f 1 3 4
f 2 5 6
f 2 6 3
f 7 8 9
f 7 9 4
f 10 7 4
f 10 4 3
f 11 10 3
f 11 3 6
f 12 11 6
f 12 6 13
f 14 15 16
f 14 16 17
f 18 19 16
f 18 16 20
f 7 10 21
f 7 21 22
f 10 11 23
f 10 23 21
f 19 24 17
f 19 17 16
f 8 7 22
f 8 22 25
f 12 18 20
f 12 20 26
f 11 12 26
f 11 26 23
f 24 8 25
f 24 25 17
f 23 26 27
f 23 27 28
f 26 20 29
f 26 29 27
f 22 21 30
f 22 30 31
f 28 30 21
f 28 21 23
f 20 16 15
f 20 15 29
f 31 32 25
f 31 25 22
f 17 25 32
f 17 32 14
f 34 33 35
f 5 37 13
f 5 13 6
f 37 36 38
f 37 38 13
f 36 34 35
f 36 35 38
f 33 9 8
f 33 8 24
f 35 33 24
f 35 24 19
f 38 35 19
f 38 19 18
f 13 38 18
f 13 18 12
f 39 40 41
f 39 41 42
f 43 39 42
f 43 42 44
f 45 43 44
f 45 44 46
f 47 45 46
f 47 46 48
f 49 47 48
f 49 48 50
f 51 49 50
f 51 50 52
f 53 51 52
f 53 52 54
f 40 53 54
f 40 54 41
f 39 43 55
f 39 55 56
f 57 29 15
f 57 15 58
f 59 58 15
f 59 15 14
f 59 14 32
f 59 32 60
f 61 60 32
f 61 32 31
f 61 31 30
f 61 30 62
f 63 62 30
f 63 30 28
f 63 41 54
f 63 54 62
f 61 62 54
f 61 54 52
f 61 52 50
f 61 50 60
f 59 60 50
f 59 50 48
f 59 48 46
f 59 46 58
f 57 58 46
f 57 46 44
f 57 44 42
f 57 42 69
f 63 69 42
f 63 42 41
f 45 47 66
f 45 66 65
f 43 45 65
f 43 65 55
f 47 49 67
f 47 67 66
f 63 28 27
f 63 27 69
f 57 69 27
f 57 27 29
f 49 51 68
f 49 68 67
f 40 39 56
f 40 56 64
f 51 53 70
f 51 70 68
f 53 40 64
f 53 64 70
