# L_COM_FEM_V rest
v 0.071676 -0.519419 0.004982
v 0.070998 -0.519261 0.009852
v 0.065917 -0.501099 0.014804
v 0.066569 -0.501365 0.009408
v 0.072515 -0.518422 0.014470
v 0.067300 -0.500089 0.019842
v 0.060672 -0.484967 0.018897
v 0.063521 -0.483961 0.016547
v 0.069392 -0.500525 0.007118
v 0.060208 -0.484503 0.024423
v 0.061854 -0.483094 0.029605
v 0.065219 -0.481431 0.030943
v 0.070531 -0.498774 0.021064
v 0.054216 -0.440290 0.036948
v 0.055994 -0.438256 0.042647
v 0.061912 -0.460492 0.037157
v 0.060152 -0.462385 0.031410
v 0.068195 -0.480412 0.028685
v 0.068593 -0.480908 0.023030
v 0.061778 -0.459874 0.043075
v 0.054444 -0.465690 0.037503
v 0.054674 -0.466271 0.031909
v 0.056077 -0.463768 0.042943
v 0.066844 -0.482316 0.017769
v 0.057110 -0.464758 0.029778
v 0.059118 -0.461390 0.044896
v 0.053091 -0.439667 0.050069
v 0.050157 -0.442457 0.048071
v 0.055852 -0.437744 0.048272
v 0.048500 -0.444457 0.042482
v 0.048673 -0.444898 0.036947
v 0.051054 -0.442993 0.035107
v 0.072553 -0.499254 0.008321
v 0.079908 -0.516716 0.009111
v 0.074293 -0.498206 0.013697
v 0.079137 -0.516433 0.013689
v 0.075976 -0.517254 0.015659
v 0.073776 -0.497910 0.018893
v 0.038122 -0.376848 0.037260
v 0.035174 -0.381071 0.035804
v 0.039486 -0.400050 0.042389
v 0.042412 -0.396221 0.043814
v 0.040839 -0.373517 0.035308
v 0.045045 -0.393387 0.041926
v 0.041353 -0.373621 0.030129
v 0.045463 -0.393605 0.036496
v 0.040010 -0.376330 0.025296
v 0.044072 -0.396220 0.031655
v 0.037092 -0.380629 0.024054
v 0.041257 -0.400053 0.030316
v 0.034457 -0.383921 0.025984
v 0.038710 -0.402941 0.032358
v 0.033890 -0.383717 0.030906
v 0.038232 -0.402568 0.037356
v 0.035015 -0.346039 0.029436
v 0.032368 -0.349565 0.031497
v 0.051222 -0.415275 0.047111
v 0.051520 -0.415724 0.041674
v 0.050003 -0.418099 0.036457
v 0.046933 -0.421421 0.034864
v 0.044232 -0.423815 0.036693
v 0.043811 -0.423364 0.041962
v 0.045326 -0.421030 0.047289
v 0.029511 -0.353930 0.029962
v 0.035570 -0.345945 0.024010
v 0.034356 -0.348635 0.019070
v 0.031580 -0.353144 0.017924
v 0.028990 -0.356698 0.019955
v 0.048506 -0.417681 0.049020
v 0.028345 -0.356559 0.024936
f 1 2 3
f 1 3 4
f 2 5 6
f 2 6 3
f 7 8 9
f 7 9 4
f 10 7 4
f 10 4 3
f 11 10 3
f 11 3 6
f 12 11 6
f 12 6 13
f 14 15 16
f 14 16 17
f 18 19 16
f 18 16 20
f 7 10 21
f 7 21 22
f 10 11 23
f 10 23 21
f 19 24 17
f 19 17 16
f 8 7 22
f 8 22 25
f 12 18 20
f 12 20 26
f 11 12 26
f 11 26 23
f 24 8 25
f 24 25 17
f 23 26 27
f 23 27 28
f 26 20 29
f 26 29 27
f 22 21 30
f 22 30 31
f 28 30 21
f 28 21 23
f 20 16 15
f 20 15 29
f 31 32 25
f 31 25 22
f 17 25 32
f 17 32 14
f 34 33 35
f 5 37 13
f 5 13 6
f 37 36 38
f 37 38 13
f 36 34 35
f 36 35 38
f 33 9 8
f 33 8 24
f 35 33 24
f 35 24 19
f 38 35 19
f 38 19 18
f 13 38 18
f 13 18 12
f 39 40 41
f 39 41 42
f 43 39 42
f 43 42 44
f 45 43 44
f 45 44 46
f 47 45 46
f 47 46 48
f 49 47 48
f 49 48 50
f 51 49 50
f 51 50 52
f 53 51 52
f 53 52 54
f 40 53 54
f 40 54 41
f 39 43 55
f 39 55 56
f 57 29 15
f 57 15 58
f 59 58 15
f 59 15 14
f 59 14 32
f 59 32 60
f 61 60 32
f 61 32 31
f 61 31 30
f 61 30 62
f 63 62 30
f 63 30 28
f 63 41 54
f 63 54 62
f 61 62 54
f 61 54 52
f 61 52 50
f 61 50 60
f 59 60 50
f 59 50 48
f 59 48 46
f 59 46 58
f 57 58 46
f 57 46 44
f 57 44 42
f 57 42 69
f 63 69 42
f 63 42 41
f 45 47 66
f 45 66 65
f 43 45 65
f 43 65 55
f 47 49 67
f 47 67 66
f 63 28 27
f 63 27 69
f 57 69 27
f 57 27 29
f 49 51 68
f 49 68 67
f 40 39 56
f 40 56 64
f 51 53 70
f 51 70 68
f 53 40 64
f 53 64 70
