# L_DEEP_FEM_V rest
v 0.074239 -0.536573 0.008293
v 0.074872 -0.536782 0.003643
v 0.075643 -0.540846 0.012753
v 0.075208 -0.541490 0.003868
v 0.074366 -0.541343 0.008328
v 0.077791 -0.536091 0.001965
v 0.080868 -0.535811 0.001799
v 0.082028 -0.541607 0.003738
v 0.083645 -0.535821 0.003056
v 0.083648 -0.539932 0.004526
v 0.083601 -0.531217 0.003645
v 0.082215 -0.540997 0.012967
v 0.084299 -0.538987 0.012823
v 0.082988 -0.541152 0.008505
v 0.084183 -0.540511 0.008946
v 0.088882 -0.536475 0.004439
v 0.088983 -0.539895 0.005570
v 0.088949 -0.532581 0.004917
v 0.089414 -0.530990 0.008703
v 0.089304 -0.540305 0.009137
v 0.097767 -0.538842 0.006215
v 0.096635 -0.541053 0.006762
v 0.099216 -0.536268 0.006961
v 0.099965 -0.534912 0.010017
v 0.099592 -0.535494 0.012793
v 0.102994 -0.542006 0.007399
v 0.104637 -0.539697 0.008215
v 0.105331 -0.538719 0.010992
v 0.104809 -0.539239 0.013595
v 0.104624 -0.543385 0.007773
v 0.106212 -0.545182 0.008002
v 0.106357 -0.541233 0.008614
v 0.107738 -0.543487 0.008974
v 0.106707 -0.540602 0.013709
v 0.078245 -0.541524 0.002307
v 0.130339 -0.521131 -0.035776
v 0.130476 -0.521042 -0.035815
v 0.130465 -0.521150 -0.035958
v 0.130364 -0.521197 -0.035905
v 0.130585 -0.520935 -0.035906
v 0.130557 -0.521030 -0.035968
v 0.130374 -0.521033 -0.035723
v 0.130457 -0.520939 -0.035732
v 0.109478 -0.543985 0.011257
v 0.130549 -0.520877 -0.035824
v 0.112467 -0.541210 0.013245
v 0.111810 -0.539591 0.013715
v 0.112648 -0.542512 0.011480
v 0.112021 -0.542144 0.009464
v 0.111000 -0.540437 0.008652
v 0.110379 -0.538855 0.009217
v 0.110297 -0.537823 0.010925
v 0.110838 -0.538074 0.012923
v 0.118211 -0.538897 0.011602
v 0.117798 -0.537475 0.012049
v 0.118356 -0.540153 0.010045
v 0.117905 -0.539674 0.008354
v 0.117288 -0.538165 0.007615
v 0.116947 -0.536806 0.008020
v 0.116904 -0.535919 0.009557
v 0.117205 -0.536141 0.011356
v 0.125992 -0.535868 0.008325
v 0.125685 -0.534534 0.008694
v 0.125748 -0.536751 0.006821
v 0.125167 -0.536729 0.005166
v 0.124468 -0.535340 0.004494
v 0.124198 -0.534023 0.004968
v 0.124408 -0.533134 0.006400
v 0.125006 -0.533297 0.008038
v 0.132845 -0.533083 0.002036
v 0.132747 -0.531839 0.002461
v 0.132058 -0.534025 0.000958
v 0.130898 -0.534117 -0.000039
v 0.129975 -0.532861 -0.000327
v 0.129952 -0.531606 0.000100
v 0.130778 -0.530720 0.001120
v 0.131948 -0.530766 0.002181
v 0.138156 -0.530279 -0.007939
v 0.138195 -0.529080 -0.007720
v 0.137078 -0.531218 -0.008506
v 0.135663 -0.531404 -0.009083
v 0.134740 -0.530342 -0.009174
v 0.134820 -0.529183 -0.008889
v 0.135859 -0.528223 -0.008377
v 0.137339 -0.528120 -0.007824
v 0.140072 -0.528275 -0.016944
v 0.139953 -0.527399 -0.016526
v 0.139147 -0.529020 -0.017239
v 0.137824 -0.529223 -0.017254
v 0.136860 -0.528436 -0.016805
v 0.136836 -0.527544 -0.016376
v 0.137702 -0.526807 -0.016093
v 0.139041 -0.526711 -0.016121
v 0.139158 -0.526036 -0.023835
v 0.139254 -0.525243 -0.023435
v 0.138249 -0.526662 -0.023943
v 0.137137 -0.526785 -0.023734
v 0.136496 -0.526057 -0.023190
v 0.136645 -0.525266 -0.022814
v 0.137518 -0.524641 -0.022692
v 0.138658 -0.524595 -0.022921
v 0.137007 -0.522998 -0.029986
v 0.137115 -0.522346 -0.029729
v 0.136383 -0.523500 -0.029905
v 0.135657 -0.523585 -0.029570
v 0.135303 -0.522967 -0.029087
v 0.135456 -0.522317 -0.028857
v 0.136049 -0.521815 -0.028925
v 0.136779 -0.521799 -0.029275
v 0.133762 -0.521357 -0.033995
v 0.133779 -0.520920 -0.033789
v 0.133420 -0.521776 -0.033912
v 0.132983 -0.521937 -0.033619
v 0.132722 -0.521586 -0.033212
v 0.132769 -0.521144 -0.033025
v 0.133092 -0.520735 -0.033098
v 0.133538 -0.520617 -0.033411
f 4 5 1
f 4 1 2
f 3 1 5
f 8 7 9
f 8 9 10
f 7 11 9
f 12 14 15
f 12 15 13
f 14 8 10
f 14 10 15
f 10 9 16
f 10 16 17
f 9 11 18
f 9 18 16
f 11 19 18
f 13 15 20
f 15 10 17
f 15 17 20
f 17 16 21
f 17 21 22
f 16 18 23
f 16 23 21
f 18 19 24
f 18 24 23
f 19 25 24
f 20 17 22
f 22 21 26
f 21 23 27
f 21 27 26
f 23 24 28
f 23 28 27
f 24 25 29
f 24 29 28
f 30 32 33
f 30 33 31
f 8 35 6
f 8 6 7
f 4 2 6
f 4 6 35
f 32 30 26
f 32 26 27
f 36 37 38
f 36 38 39
f 37 40 41
f 37 41 38
f 37 36 42
f 37 42 43
f 40 37 43
f 40 43 45
f 34 46 47
f 44 33 49
f 44 49 48
f 33 32 50
f 33 50 49
f 32 27 51
f 32 51 50
f 27 28 52
f 27 52 51
f 28 29 53
f 28 53 52
f 29 34 47
f 29 47 53
f 47 46 54
f 47 54 55
f 46 48 56
f 46 56 54
f 48 49 57
f 48 57 56
f 49 50 58
f 49 58 57
f 50 51 59
f 50 59 58
f 51 52 60
f 51 60 59
f 52 53 61
f 52 61 60
f 53 47 55
f 53 55 61
f 55 54 62
f 55 62 63
f 54 56 64
f 54 64 62
f 56 57 65
f 56 65 64
f 57 58 66
f 57 66 65
f 58 59 67
f 58 67 66
f 59 60 68
f 59 68 67
f 60 61 69
f 60 69 68
f 61 55 63
f 61 63 69
f 63 62 70
f 63 70 71
f 62 64 72
f 62 72 70
f 64 65 73
f 64 73 72
f 65 66 74
f 65 74 73
f 66 67 75
f 66 75 74
f 67 68 76
f 67 76 75
f 68 69 77
f 68 77 76
f 69 63 71
f 69 71 77
f 71 70 78
f 71 78 79
f 70 72 80
f 70 80 78
f 72 73 81
f 72 81 80
f 73 74 82
f 73 82 81
f 74 75 83
f 74 83 82
f 75 76 84
f 75 84 83
f 76 77 85
f 76 85 84
f 77 71 79
f 77 79 85
f 79 78 86
f 79 86 87
f 78 80 88
f 78 88 86
f 80 81 89
f 80 89 88
f 81 82 90
f 81 90 89
f 82 83 91
f 82 91 90
f 83 84 92
f 83 92 91
f 84 85 93
f 84 93 92
f 85 79 87
f 85 87 93
f 87 86 94
f 87 94 95
f 86 88 96
f 86 96 94
f 88 89 97
f 88 97 96
f 89 90 98
f 89 98 97
f 90 91 99
f 90 99 98
f 91 92 100
f 91 100 99
f 92 93 101
f 92 101 100
f 93 87 95
f 93 95 101
f 95 94 102
f 95 102 103
f 94 96 104
f 94 104 102
f 96 97 105
f 96 105 104
f 97 98 106
f 97 106 105
f 98 99 107
f 98 107 106
f 99 100 108
f 99 108 107
f 100 101 109
f 100 109 108
f 101 95 103
f 101 103 109
f 103 102 110
f 103 110 111
f 102 104 112
f 102 112 110
f 104 105 113
f 104 113 112
f 105 106 114
f 105 114 113
f 106 107 115
f 106 115 114
f 107 108 116
f 107 116 115
f 108 109 117
f 108 117 116
f 109 103 111
f 109 111 117
f 111 110 41
f 111 41 40
f 110 112 38
f 110 38 41
f 112 113 39
f 112 39 38
f 113 114 36
f 113 36 39
f 114 115 42
f 114 42 36
f 115 116 43
f 115 43 42
f 116 117 45
f 116 45 43
f 117 111 40
f 117 40 45
