# L_POST_TIB_V rest
v 0.006621 -1.261513 -0.152608
v 0.039031 -1.272524 -0.018075
v 0.063417 -1.271399 -0.019846
v 0.064377 -1.270986 -0.023947
v 0.026209 -1.260942 -0.150387
v 0.031315 -1.273296 -0.012960
v 0.063132 -1.271513 -0.018716
v 0.025597 -1.261490 -0.144655
v 0.003028 -1.262257 -0.146016
v 0.062415 -1.272225 -0.011241
v 0.033125 -1.260978 -0.147001
v 0.037129 -1.271609 -0.028914
v 0.006818 -1.281989 0.071605
v 0.018008 -1.280722 0.062572
v 0.001489 -1.282543 0.075362
v 0.008670 -1.281789 0.070222
v 0.024068 -1.279967 0.056930
v 0.021204 -1.280330 0.059670
v 0.005414 -1.282138 0.072627
v 0.013591 -1.281240 0.066337
v 0.003642 -1.282322 0.073883
v 0.012156 -1.281439 0.067890
v 0.019649 -1.280560 0.061511
v 0.006876 -1.269697 0.072701
v 0.010116 -1.269476 0.070231
v 0.022497 -1.280206 0.058868
v 0.003623 -1.281790 0.068046
v 0.011449 -1.281158 0.064512
v 0.010573 -1.281023 0.062655
v 0.005867 -1.282124 0.072673
v 0.016665 -1.280919 0.064146
v 0.004157 -1.270354 0.074647
v 0.002405 -1.282483 0.075106
f 2 1 3
f 4 3 1
f 4 1 5
f 7 8 9
f 7 9 10
f 6 10 9
f 4 5 11
f 4 11 12
f 7 12 11
f 7 11 8
f 13 14 15
f 17 16 15
f 17 15 14
f 17 18 19
f 17 19 16
f 20 19 18
f 25 24 23
f 25 23 26
f 17 26 23
f 17 23 18
f 20 18 23
f 20 23 22
f 7 28 29
f 7 29 12
f 4 12 29
f 4 29 27
f 25 26 31
f 25 31 32
f 13 30 31
f 13 31 14
f 17 14 31
f 17 31 26
f 20 22 33
f 20 33 21
