# L_POPV posed
v 0.339261 -0.099778 0.337491
v 0.339282 -0.102620 0.334694
v 0.338724 -0.106532 0.334750
v 0.338473 -0.100282 0.342218
v 0.337752 -0.109240 0.338576
v 0.362958 -0.113017 0.352515
v 0.362384 -0.112528 0.347110
v 0.364041 -0.109892 0.343606
v 0.337519 -0.103032 0.346036
v 0.363200 -0.105573 0.343233
v 0.362986 -0.102697 0.345956
v 0.336967 -0.109720 0.343312
v 0.361744 -0.105795 0.354611
v 0.361551 -0.109663 0.354783
v 0.336959 -0.106915 0.346097
v 0.362345 -0.103109 0.350719
f 8 7 5
f 8 5 3
f 12 5 7
f 12 7 6
f 11 10 2
f 11 2 1
f 3 2 10
f 3 10 8
f 6 14 15
f 6 15 12
f 9 15 14
f 9 14 13
f 13 16 4
f 13 4 9
f 1 4 16
f 1 16 11
