# L_SAPH_V rest
v 0.068842 -0.504087 0.019850
v 0.071029 -0.505564 0.009166
v 0.070608 -0.509392 0.010505
v 0.071936 -0.504612 0.019665
v 0.068607 -0.510455 0.018873
v 0.071272 -0.508720 0.018692
v 0.069594 -0.510450 0.014402
v 0.071151 -0.510044 0.014873
v 0.076259 -0.507130 0.010387
v 0.076009 -0.510456 0.011606
v 0.076729 -0.503421 0.010842
v 0.077075 -0.501944 0.014353
v 0.077239 -0.502912 0.017844
v 0.076936 -0.506210 0.019236
v 0.076520 -0.509570 0.018516
v 0.076271 -0.510968 0.015245
v 0.086677 -0.508150 0.018502
v 0.085205 -0.510303 0.019410
v 0.083728 -0.512511 0.018644
v 0.083064 -0.513560 0.015916
v 0.091784 -0.512673 0.019633
v 0.090141 -0.514424 0.020434
v 0.088484 -0.516249 0.019632
v 0.087749 -0.517156 0.017045
v 0.091314 -0.520246 0.015630
v 0.093761 -0.514220 0.020033
v 0.091854 -0.516067 0.020864
v 0.093448 -0.518097 0.021329
v 0.095221 -0.516662 0.020295
v 0.090021 -0.517918 0.019953
v 0.091574 -0.519758 0.020343
v 0.089410 -0.518641 0.017471
v 0.090984 -0.520410 0.017877
v 0.096495 -0.526297 0.016969
v 0.096033 -0.526398 0.019078
v 0.096603 -0.525988 0.021474
v 0.098537 -0.525344 0.016726
v 0.104056 -0.538462 0.018362
v 0.101836 -0.538943 0.018710
v 0.100469 -0.524459 0.017665
v 0.106448 -0.537880 0.019055
v 0.101438 -0.523950 0.019710
v 0.107174 -0.537589 0.021395
v 0.100761 -0.524102 0.021731
v 0.106564 -0.537597 0.023586
v 0.098696 -0.524936 0.022566
v 0.104121 -0.538120 0.024196
v 0.101886 -0.538682 0.023227
v 0.101300 -0.538939 0.020920
v 0.106987 -0.557481 0.019457
v 0.109221 -0.557039 0.019067
v 0.112560 -0.578493 0.019452
v 0.110336 -0.578980 0.019831
v 0.111618 -0.556508 0.019740
v 0.114949 -0.577927 0.020136
v 0.112400 -0.556218 0.022282
v 0.115732 -0.577640 0.022685
v 0.111714 -0.556255 0.024271
v 0.115051 -0.577710 0.024672
v 0.109251 -0.556732 0.024897
v 0.112598 -0.578235 0.025286
v 0.107011 -0.557244 0.023976
v 0.110365 -0.578779 0.024353
v 0.106435 -0.557478 0.021734
v 0.109789 -0.579010 0.022107
v 0.115525 -0.603621 0.020186
v 0.113280 -0.604002 0.020532
v 0.117942 -0.603183 0.020907
v 0.118733 -0.602959 0.023471
v 0.118046 -0.603016 0.025445
v 0.115569 -0.603426 0.026024
v 0.113310 -0.603850 0.025057
v 0.112728 -0.604029 0.022798
v 0.117017 -0.626524 0.021690
v 0.114751 -0.626779 0.022049
v 0.119452 -0.626233 0.022397
v 0.120246 -0.626078 0.024955
v 0.119549 -0.626113 0.026936
v 0.117049 -0.626385 0.027529
v 0.114774 -0.626668 0.026575
v 0.114190 -0.626793 0.024321
v 0.118210 -0.651486 0.023439
v 0.115941 -0.651738 0.023805
v 0.120650 -0.651200 0.024140
v 0.121454 -0.651055 0.026701
v 0.120758 -0.651093 0.028689
v 0.118252 -0.651362 0.029286
v 0.115970 -0.651638 0.028337
v 0.115383 -0.651756 0.026081
f 1 5 6
f 1 6 4
f 5 7 8
f 5 8 6
f 7 3 8
f 3 2 9
f 3 9 10
f 2 11 9
f 4 6 15
f 4 15 14
f 6 8 16
f 6 16 15
f 8 3 10
f 8 10 16
f 12 13 17
f 13 14 18
f 13 18 17
f 14 15 19
f 14 19 18
f 15 16 20
f 15 20 19
f 17 18 22
f 17 22 21
f 18 19 23
f 18 23 22
f 19 20 24
f 19 24 23
f 26 27 28
f 26 28 29
f 27 30 31
f 27 31 28
f 30 32 33
f 30 33 31
f 32 25 33
f 34 35 33
f 34 33 25
f 35 36 31
f 35 31 33
f 32 30 23
f 32 23 24
f 30 27 22
f 30 22 23
f 27 26 21
f 27 21 22
f 34 37 38
f 34 38 39
f 37 40 41
f 37 41 38
f 40 42 43
f 40 43 41
f 42 44 45
f 42 45 43
f 44 46 47
f 44 47 45
f 46 36 48
f 46 48 47
f 36 35 49
f 36 49 48
f 35 34 39
f 35 39 49
f 50 51 52
f 50 52 53
f 51 54 55
f 51 55 52
f 54 56 57
f 54 57 55
f 56 58 59
f 56 59 57
f 58 60 61
f 58 61 59
f 60 62 63
f 60 63 61
f 62 64 65
f 62 65 63
f 64 50 53
f 64 53 65
f 53 52 66
f 53 66 67
f 52 55 68
f 52 68 66
f 55 57 69
f 55 69 68
f 57 59 70
f 57 70 69
f 59 61 71
f 59 71 70
f 61 63 72
f 61 72 71
f 63 65 73
f 63 73 72
f 65 53 67
f 65 67 73
f 67 66 74
f 67 74 75
f 66 68 76
f 66 76 74
f 68 69 77
f 68 77 76
f 69 70 78
f 69 78 77
f 70 71 79
f 70 79 78
f 71 72 80
f 71 80 79
f 72 73 81
f 72 81 80
f 73 67 75
f 73 75 81
f 75 74 82
f 75 82 83
f 74 76 84
f 74 84 82
f 76 77 85
f 76 85 84
f 77 78 86
f 77 86 85
f 78 79 87
f 78 87 86
f 79 80 88
f 79 88 87
f 80 81 89
f 80 89 88
f 81 75 83
f 81 83 89
f 51 50 39
f 51 39 38
f 54 51 38
f 54 38 41
f 56 54 41
f 56 41 43
f 58 56 43
f 58 43 45
f 60 58 45
f 60 45 47
f 62 60 47
f 62 47 48
f 64 62 48
f 64 48 49
f 50 64 49
f 50 49 39
f 37 34 25
f 36 46 28
f 36 28 31
f 46 44 29
f 46 29 28
