# L_SUPFEMV posed
v 0.148516 -0.047260 0.338161
v 0.149427 -0.049850 0.341623
v 0.150965 -0.050908 0.345744
v 0.152329 -0.049042 0.347977
v 0.152889 -0.045924 0.347702
v 0.152002 -0.043170 0.344248
v 0.150427 -0.042448 0.340126
v 0.149046 -0.044373 0.337866
v 0.309036 -0.086838 0.335223
v 0.309837 -0.084570 0.338318
v 0.279384 -0.069883 0.336638
v 0.281187 -0.067866 0.338751
v 0.298230 -0.079685 0.337627
v 0.297012 -0.081964 0.334580
v 0.308094 -0.090798 0.335477
v 0.277293 -0.072976 0.336922
v 0.295722 -0.085747 0.335001
v 0.325411 -0.091434 0.344036
v 0.309760 -0.086349 0.343072
v 0.281483 -0.068461 0.343138
v 0.298371 -0.081088 0.342281
v 0.324392 -0.099061 0.340676
v 0.307395 -0.094729 0.338994
v 0.276224 -0.075434 0.340145
v 0.295026 -0.089145 0.338686
v 0.179782 -0.050610 0.343143
v 0.178090 -0.049866 0.338554
v 0.177062 -0.047392 0.334602
v 0.181797 -0.045455 0.345144
v 0.181240 -0.048572 0.345566
v 0.179094 -0.042182 0.336626
v 0.180784 -0.042971 0.341231
v 0.177630 -0.044255 0.334217
v 0.215169 -0.043928 0.338740
v 0.216177 -0.046774 0.343155
v 0.244244 -0.051389 0.345260
v 0.244476 -0.048830 0.341002
v 0.280363 -0.071002 0.346562
v 0.261268 -0.054210 0.341647
v 0.260496 -0.057651 0.345925
v 0.211291 -0.048436 0.332091
v 0.212358 -0.051227 0.336690
v 0.214079 -0.052222 0.341628
v 0.240634 -0.056821 0.338626
v 0.241374 -0.057357 0.343482
v 0.276472 -0.076137 0.344301
v 0.257222 -0.063219 0.344064
v 0.256906 -0.061881 0.339422
v 0.215616 -0.050123 0.344064
v 0.242894 -0.054883 0.345884
v 0.278284 -0.074078 0.346733
v 0.258777 -0.061163 0.346401
v 0.213407 -0.042925 0.333630
v 0.211925 -0.045103 0.331445
v 0.324474 -0.095279 0.347540
v 0.308906 -0.090485 0.346186
v 0.297654 -0.084516 0.345861
v 0.323704 -0.100995 0.345081
v 0.307195 -0.096681 0.343279
v 0.295155 -0.090539 0.343172
v 0.323827 -0.099082 0.347638
v 0.307862 -0.094601 0.345933
v 0.296306 -0.088320 0.345858
v 0.247931 -0.089660 0.308049
v 0.247851 -0.089541 0.307607
v 0.249244 -0.089512 0.307500
v 0.248258 -0.089390 0.308202
v 0.247658 -0.089339 0.307360
v 0.247962 -0.089016 0.307424
v 0.173329 -0.081407 0.322658
v 0.173758 -0.079514 0.323277
v 0.172657 -0.082872 0.321127
v 0.171955 -0.082341 0.318783
v 0.171673 -0.081046 0.317418
v 0.172060 -0.079087 0.317780
v 0.172741 -0.077760 0.319342
v 0.173353 -0.078173 0.321388
v 0.196239 -0.081017 0.318280
v 0.196656 -0.079358 0.318765
v 0.195570 -0.082400 0.316915
v 0.194912 -0.081942 0.314773
v 0.194670 -0.080796 0.313513
v 0.195077 -0.079038 0.313827
v 0.195745 -0.077795 0.315235
v 0.196308 -0.078169 0.317093
v 0.219148 -0.081367 0.314404
v 0.218715 -0.082709 0.314110
v 0.236195 -0.085695 0.310561
v 0.236549 -0.084857 0.310775
v 0.218037 -0.083800 0.313086
v 0.235656 -0.086390 0.309910
v 0.217391 -0.083356 0.311181
v 0.235201 -0.086071 0.308693
v 0.217169 -0.082320 0.310018
v 0.235062 -0.085416 0.307965
v 0.217618 -0.080761 0.310199
v 0.235443 -0.084427 0.308092
v 0.218303 -0.079848 0.311356
v 0.235976 -0.083852 0.308832
v 0.218847 -0.080306 0.313005
v 0.236355 -0.084179 0.309888
v 0.248326 -0.089098 0.308373
v 0.248090 -0.088728 0.307659
v 0.248325 -0.088934 0.308015
v 0.260923 -0.052863 0.336725
v 0.259342 -0.055017 0.334332
v 0.242222 -0.050761 0.333729
v 0.243751 -0.048262 0.336142
v 0.257666 -0.058466 0.335126
v 0.240855 -0.054292 0.334350
f 11 12 13
f 11 13 14
f 16 11 14
f 16 14 17
f 18 10 19
f 12 20 21
f 12 21 13
f 24 16 17
f 24 17 25
f 26 3 2
f 26 2 27
f 28 27 2
f 28 2 1
f 29 5 4
f 29 4 30
f 26 30 4
f 26 4 3
f 31 7 6
f 31 6 32
f 29 32 6
f 29 6 5
f 28 1 8
f 28 8 33
f 31 33 8
f 31 8 7
f 34 35 36
f 34 36 37
f 38 20 39
f 38 39 40
f 28 41 42
f 28 42 27
f 26 27 42
f 26 42 43
f 43 42 44
f 43 44 45
f 24 46 47
f 24 47 48
f 26 43 49
f 26 49 30
f 29 30 49
f 29 49 35
f 35 49 50
f 35 50 36
f 51 38 40
f 51 40 52
f 29 35 34
f 29 34 32
f 31 32 34
f 31 34 53
f 49 43 45
f 49 45 50
f 46 51 52
f 46 52 47
f 31 53 54
f 31 54 33
f 28 33 54
f 28 54 41
f 55 18 19
f 55 19 56
f 20 38 57
f 20 57 21
f 22 58 59
f 22 59 23
f 46 24 25
f 46 25 60
f 61 55 56
f 61 56 62
f 38 51 63
f 38 63 57
f 58 61 62
f 58 62 59
f 51 46 60
f 51 60 63
f 64 65 66
f 64 66 67
f 65 68 69
f 65 69 66
f 71 70 78
f 71 78 79
f 70 72 80
f 70 80 78
f 72 73 81
f 72 81 80
f 73 74 82
f 73 82 81
f 74 75 83
f 74 83 82
f 75 76 84
f 75 84 83
f 76 77 85
f 76 85 84
f 77 71 79
f 77 79 85
f 86 87 88
f 86 88 89
f 87 90 91
f 87 91 88
f 90 92 93
f 90 93 91
f 92 94 95
f 92 95 93
f 94 96 97
f 94 97 95
f 96 98 99
f 96 99 97
f 98 100 101
f 98 101 99
f 100 86 89
f 100 89 101
f 67 102 89
f 67 89 88
f 64 67 88
f 64 88 91
f 65 64 91
f 65 91 93
f 68 65 93
f 68 93 95
f 69 68 95
f 69 95 97
f 103 69 97
f 103 97 99
f 104 103 99
f 104 99 101
f 102 104 101
f 102 101 89
f 87 86 79
f 87 79 78
f 90 87 78
f 90 78 80
f 92 90 80
f 92 80 81
f 94 92 81
f 94 81 82
f 96 94 82
f 96 82 83
f 98 96 83
f 98 83 84
f 100 98 84
f 100 84 85
f 86 100 85
f 86 85 79
f 103 104 66
f 103 66 69
f 102 67 66
f 102 66 104
f 105 106 107
f 105 107 108
f 106 109 110
f 106 110 107
f 40 39 37
f 40 37 36
f 108 37 39
f 108 39 105
f 47 52 50
f 47 50 45
f 36 50 52
f 36 52 40
f 109 48 44
f 109 44 110
f 45 44 48
f 45 48 47
f 54 53 108
f 54 108 107
f 12 11 106
f 12 106 105
f 41 54 107
f 41 107 110
f 11 16 109
f 11 109 106
f 53 34 37
f 53 37 108
f 20 12 105
f 20 105 39
f 42 41 110
f 42 110 44
f 16 24 48
f 16 48 109
f 14 13 10
f 14 10 9
f 9 15 17
f 9 17 14
f 21 57 56
f 21 56 19
f 19 10 13
f 19 13 21
f 63 60 59
f 63 59 62
f 62 56 57
f 62 57 63
f 15 23 25
f 15 25 17
f 23 59 60
f 23 60 25
