# R_DEEP_FEM_V posed
v 0.002006 0.105903 0.402717
v -0.009988 0.132420 0.442213
v -0.010026 0.132498 0.442267
v -0.010138 0.132444 0.442208
v -0.010060 0.132352 0.442150
v -0.010139 0.132543 0.442291
v -0.010235 0.132525 0.442264
v 0.000582 0.104993 0.398738
v 0.022147 0.113662 0.392455
v 0.021434 0.115844 0.392320
v 0.009503 0.109948 0.398982
v 0.010649 0.107982 0.399052
v 0.020342 0.117874 0.391212
v 0.008166 0.111470 0.397838
v 0.019383 0.117851 0.388939
v 0.007079 0.111758 0.395811
v 0.018955 0.116621 0.387075
v 0.006875 0.110521 0.394076
v 0.019683 0.114156 0.387015
v 0.007790 0.108360 0.393635
v 0.020800 0.112357 0.388342
v 0.009343 0.106746 0.394919
v 0.021694 0.112498 0.390555
v 0.010350 0.106927 0.397190
v 0.059892 0.125698 0.377025
v 0.059093 0.127865 0.376956
v 0.038769 0.122373 0.384808
v 0.039479 0.120176 0.384902
v 0.057908 0.129858 0.375894
v 0.037672 0.124397 0.383723
v 0.056822 0.129801 0.373445
v 0.036614 0.124354 0.381266
v 0.056508 0.128565 0.371774
v 0.036265 0.123113 0.379604
v 0.057327 0.126115 0.371674
v 0.036989 0.120632 0.379529
v 0.058525 0.124342 0.372929
v 0.038104 0.118829 0.380807
v 0.059440 0.124499 0.375066
v 0.038997 0.118973 0.382950
v 0.083562 0.131474 0.367673
v 0.082821 0.133652 0.367545
v 0.081711 0.135663 0.366413
v 0.080666 0.135607 0.363931
v 0.080350 0.134367 0.362274
v 0.081107 0.131904 0.362238
v 0.082235 0.130115 0.363561
v 0.083115 0.130270 0.365723
v 0.105025 0.135567 0.358563
v 0.104382 0.137781 0.358406
v 0.103390 0.139823 0.357241
v 0.102403 0.139773 0.354746
v 0.102073 0.138518 0.353093
v 0.102722 0.136015 0.353088
v 0.103737 0.134197 0.354443
v 0.104570 0.134349 0.356616
v 0.125914 0.143937 0.344667
v -0.010248 0.132383 0.442145
v -0.010159 0.132339 0.442125
v 0.001974 0.106975 0.399945
v -0.010300 0.132462 0.442204
v -0.002712 0.107798 0.398589
v -0.001189 0.108761 0.398218
v 0.000333 0.109639 0.399265
v 0.000408 0.109595 0.401356
v -0.000962 0.108669 0.402975
v -0.002502 0.107733 0.403214
v -0.003768 0.107019 0.402084
v -0.003912 0.106960 0.400105
v -0.004774 0.113406 0.399171
v -0.003481 0.114074 0.398848
v -0.002108 0.114776 0.399617
v -0.002184 0.114777 0.401394
v -0.003372 0.114174 0.402742
v -0.004663 0.113513 0.402952
v -0.005703 0.112972 0.402033
v -0.005803 0.112862 0.400420
v -0.007613 0.120712 0.401134
v -0.006420 0.121281 0.400809
v -0.005382 0.121546 0.401712
v -0.005071 0.121398 0.403194
v -0.006104 0.120709 0.404481
v -0.007303 0.120155 0.404706
v -0.008332 0.119880 0.403866
v -0.008516 0.120065 0.402334
v -0.009790 0.127636 0.405707
v -0.008670 0.128092 0.405515
v -0.007576 0.127856 0.406173
v -0.007165 0.127126 0.407241
v -0.008086 0.126149 0.408163
v -0.009224 0.125732 0.408294
v -0.010262 0.125970 0.407633
v -0.010553 0.126753 0.406508
v -0.011015 0.133986 0.413544
v -0.009965 0.134305 0.413299
v -0.008915 0.133793 0.413723
v -0.008444 0.132830 0.414478
v -0.009183 0.131855 0.415114
v -0.010220 0.131579 0.415230
v -0.011271 0.132065 0.414882
v -0.011674 0.133086 0.414168
v -0.010939 0.137244 0.421037
v -0.010147 0.137656 0.421066
v -0.009324 0.137167 0.421286
v -0.008945 0.136155 0.421548
v -0.009538 0.135078 0.421668
v -0.010361 0.134736 0.421613
v -0.011165 0.135185 0.421411
v -0.011447 0.136245 0.421146
v -0.011136 0.137812 0.427837
v -0.010385 0.138036 0.427926
v -0.009697 0.137493 0.428023
v -0.009454 0.136583 0.428075
v -0.010061 0.135754 0.428019
v -0.010815 0.135581 0.427934
v -0.011499 0.136090 0.427834
v -0.011677 0.137045 0.427769
v -0.011725 0.136778 0.434752
v -0.011119 0.136925 0.434774
v -0.010620 0.136542 0.434686
v -0.010499 0.135906 0.434553
v -0.011047 0.135348 0.434443
v -0.011654 0.135243 0.434430
v -0.012151 0.135599 0.434512
v -0.012212 0.136259 0.434636
v -0.011338 0.134624 0.439607
v -0.010933 0.134774 0.439638
v -0.010552 0.134596 0.439507
v -0.010411 0.134224 0.439311
v -0.010740 0.133831 0.439152
v -0.011150 0.133707 0.439132
v -0.011524 0.133872 0.439251
v -0.011627 0.134266 0.439446
f 2 3 4
f 2 4 5
f 3 6 7
f 3 7 4
f 9 10 11
f 9 11 12
f 10 13 14
f 10 14 11
f 13 15 16
f 13 16 14
f 15 17 18
f 15 18 16
f 17 19 20
f 17 20 18
f 19 21 22
f 19 22 20
f 21 23 24
f 21 24 22
f 23 9 12
f 23 12 24
f 25 26 27
f 25 27 28
f 26 29 30
f 26 30 27
f 29 31 32
f 29 32 30
f 31 33 34
f 31 34 32
f 33 35 36
f 33 36 34
f 35 37 38
f 35 38 36
f 37 39 40
f 37 40 38
f 39 25 28
f 39 28 40
f 41 42 26
f 41 26 25
f 42 43 29
f 42 29 26
f 43 44 31
f 43 31 29
f 44 45 33
f 44 33 31
f 45 46 35
f 45 35 33
f 46 47 37
f 46 37 35
f 47 48 39
f 47 39 37
f 48 41 25
f 48 25 39
f 49 50 42
f 49 42 41
f 50 51 43
f 50 43 42
f 51 52 44
f 51 44 43
f 52 53 45
f 52 45 44
f 53 54 46
f 53 46 45
f 54 55 47
f 54 47 46
f 55 56 48
f 55 48 47
f 56 49 41
f 56 41 48
f 57 53 52
f 10 9 28
f 10 28 27
f 13 10 27
f 13 27 30
f 15 13 30
f 15 30 32
f 17 15 32
f 17 32 34
f 19 17 34
f 19 34 36
f 21 19 36
f 21 36 38
f 23 21 38
f 23 38 40
f 9 23 40
f 9 40 28
f 1 11 14
f 58 59 5
f 58 5 4
f 60 1 14
f 60 14 16
f 61 58 4
f 61 4 7
f 8 60 16
f 8 16 18
f 62 63 8
f 63 64 60
f 63 60 8
f 64 65 1
f 64 1 60
f 70 71 63
f 70 63 62
f 71 72 64
f 71 64 63
f 72 73 65
f 72 65 64
f 73 74 66
f 73 66 65
f 74 75 67
f 74 67 66
f 75 76 68
f 75 68 67
f 76 77 69
f 76 69 68
f 77 70 62
f 77 62 69
f 78 79 71
f 78 71 70
f 79 80 72
f 79 72 71
f 80 81 73
f 80 73 72
f 81 82 74
f 81 74 73
f 82 83 75
f 82 75 74
f 83 84 76
f 83 76 75
f 84 85 77
f 84 77 76
f 85 78 70
f 85 70 77
f 86 87 79
f 86 79 78
f 87 88 80
f 87 80 79
f 88 89 81
f 88 81 80
f 89 90 82
f 89 82 81
f 90 91 83
f 90 83 82
f 91 92 84
f 91 84 83
f 92 93 85
f 92 85 84
f 93 86 78
f 93 78 85
f 94 95 87
f 94 87 86
f 95 96 88
f 95 88 87
f 96 97 89
f 96 89 88
f 97 98 90
f 97 90 89
f 98 99 91
f 98 91 90
f 99 100 92
f 99 92 91
f 100 101 93
f 100 93 92
f 101 94 86
f 101 86 93
f 102 103 95
f 102 95 94
f 103 104 96
f 103 96 95
f 104 105 97
f 104 97 96
f 105 106 98
f 105 98 97
f 106 107 99
f 106 99 98
f 107 108 100
f 107 100 99
f 108 109 101
f 108 101 100
f 109 102 94
f 109 94 101
f 110 111 103
f 110 103 102
f 111 112 104
f 111 104 103
f 112 113 105
f 112 105 104
f 113 114 106
f 113 106 105
f 114 115 107
f 114 107 106
f 115 116 108
f 115 108 107
f 116 117 109
f 116 109 108
f 117 110 102
f 117 102 109
f 118 119 111
f 118 111 110
f 119 120 112
f 119 112 111
f 120 121 113
f 120 113 112
f 121 122 114
f 121 114 113
f 122 123 115
f 122 115 114
f 123 124 116
f 123 116 115
f 124 125 117
f 124 117 116
f 125 118 110
f 125 110 117
f 126 127 119
f 126 119 118
f 127 128 120
f 127 120 119
f 128 129 121
f 128 121 120
f 129 130 122
f 129 122 121
f 130 131 123
f 130 123 122
f 131 132 124
f 131 124 123
f 132 133 125
f 132 125 124
f 133 126 118
f 133 118 125
f 7 6 127
f 7 127 126
f 6 3 128
f 6 128 127
f 3 2 129
f 3 129 128
f 2 5 130
f 2 130 129
f 5 59 131
f 5 131 130
f 59 58 132
f 59 132 131
f 58 61 133
f 58 133 132
f 61 7 126
f 61 126 133
