# R_DEEP_FEM_V rest
v -0.091686 -0.520834 0.010360
v -0.093550 -0.519607 0.011258
v -0.112413 -0.499270 -0.029215
v -0.112484 -0.499229 -0.029276
v -0.112475 -0.499137 -0.029174
v -0.112382 -0.499214 -0.029115
v -0.112550 -0.499124 -0.029279
v -0.112563 -0.499043 -0.029221
v -0.093985 -0.519523 0.015564
v -0.098101 -0.543052 0.012500
v -0.100363 -0.542801 0.012167
v -0.096311 -0.528502 0.011298
v -0.094158 -0.529212 0.011499
v -0.102803 -0.542512 0.012874
v -0.098346 -0.527915 0.012262
v -0.103554 -0.542411 0.015222
v -0.099364 -0.527663 0.014331
v -0.102941 -0.542460 0.017411
v -0.098657 -0.527872 0.016341
v -0.100455 -0.542746 0.018001
v -0.096497 -0.528514 0.017132
v -0.098174 -0.543020 0.017019
v -0.094289 -0.529238 0.016005
v -0.097565 -0.543101 0.014708
v -0.093675 -0.529409 0.013597
v -0.103364 -0.585246 0.012067
v -0.105619 -0.584890 0.011706
v -0.103826 -0.562497 0.012057
v -0.101561 -0.562757 0.012433
v -0.108038 -0.584494 0.012411
v -0.106257 -0.562194 0.012747
v -0.108829 -0.584330 0.014969
v -0.107057 -0.562062 0.015297
v -0.108137 -0.584415 0.016952
v -0.106366 -0.562113 0.017282
v -0.105651 -0.584800 0.017547
v -0.103870 -0.562398 0.017893
v -0.103390 -0.585179 0.016595
v -0.101597 -0.562686 0.016956
v -0.102808 -0.585309 0.014341
v -0.101007 -0.562791 0.014708
v -0.104926 -0.611296 0.012036
v -0.107190 -0.611017 0.011708
v -0.109623 -0.610716 0.012449
v -0.110410 -0.610600 0.015022
v -0.109710 -0.610678 0.016992
v -0.107213 -0.610981 0.017551
v -0.104941 -0.611269 0.016565
v -0.104361 -0.611359 0.014299
v -0.105419 -0.634953 0.012938
v -0.107699 -0.634780 0.012595
v -0.110140 -0.634604 0.013322
v -0.110920 -0.634549 0.015889
v -0.110207 -0.634609 0.017868
v -0.107692 -0.634796 0.018443
v -0.105412 -0.634964 0.017470
v -0.104840 -0.635006 0.015208
v -0.111162 -0.660435 0.017021
v -0.112461 -0.499047 -0.029067
v -0.112401 -0.499129 -0.029061
v -0.095210 -0.520718 0.013467
v -0.112535 -0.498992 -0.029128
v -0.097489 -0.516993 0.015793
v -0.098093 -0.518690 0.015405
v -0.098285 -0.519878 0.013751
v -0.097738 -0.519213 0.011838
v -0.096841 -0.517230 0.011035
v -0.096298 -0.515568 0.011540
v -0.096213 -0.514672 0.013147
v -0.096655 -0.515218 0.015009
v -0.103142 -0.515811 0.014158
v -0.103515 -0.517229 0.013881
v -0.103648 -0.518346 0.012578
v -0.103253 -0.517658 0.010981
v -0.102676 -0.515991 0.010274
v -0.102334 -0.514616 0.010651
v -0.102304 -0.513885 0.011947
v -0.102601 -0.514335 0.013479
v -0.110267 -0.513708 0.010980
v -0.110574 -0.515017 0.010763
v -0.110350 -0.515707 0.009566
v -0.109787 -0.515454 0.008173
v -0.109103 -0.513938 0.007503
v -0.108834 -0.512660 0.007807
v -0.109033 -0.511955 0.008948
v -0.109610 -0.512349 0.010339
v -0.116270 -0.511258 0.005353
v -0.116457 -0.512434 0.005071
v -0.115803 -0.513176 0.004231
v -0.114764 -0.513063 0.003362
v -0.113867 -0.511731 0.003079
v -0.113734 -0.510566 0.003410
v -0.114377 -0.509877 0.004237
v -0.115448 -0.510130 0.005108
v -0.120742 -0.508470 -0.003342
v -0.120831 -0.509577 -0.003515
v -0.119982 -0.510313 -0.004045
v -0.118781 -0.510326 -0.004577
v -0.117905 -0.509261 -0.004652
v -0.117884 -0.508218 -0.004379
v -0.118690 -0.507450 -0.003909
v -0.119919 -0.507495 -0.003451
v -0.122058 -0.506492 -0.011158
v -0.122236 -0.507279 -0.011536
v -0.121515 -0.507880 -0.011824
v -0.120406 -0.507971 -0.011865
v -0.119517 -0.507205 -0.011480
v -0.119420 -0.506408 -0.011090
v -0.120094 -0.505812 -0.010812
v -0.121223 -0.505820 -0.010810
v -0.121081 -0.504061 -0.017446
v -0.121079 -0.504759 -0.017810
v -0.120370 -0.505270 -0.017933
v -0.119440 -0.505324 -0.017775
v -0.118829 -0.504647 -0.017300
v -0.118879 -0.503953 -0.016954
v -0.119556 -0.503441 -0.016820
v -0.120514 -0.503459 -0.016997
v -0.118671 -0.500965 -0.023249
v -0.118648 -0.501540 -0.023488
v -0.118180 -0.501966 -0.023436
v -0.117583 -0.502018 -0.023157
v -0.117224 -0.501457 -0.022730
v -0.117285 -0.500885 -0.022513
v -0.117727 -0.500459 -0.022553
v -0.118334 -0.500470 -0.022847
v -0.115430 -0.499291 -0.027123
v -0.115460 -0.499678 -0.027314
v -0.115225 -0.500045 -0.027250
v -0.114885 -0.500180 -0.027000
v -0.114636 -0.499866 -0.026642
v -0.114629 -0.499474 -0.026468
v -0.114853 -0.499117 -0.026519
v -0.115204 -0.499020 -0.026786
f 3 4 5
f 3 5 6
f 4 7 8
f 4 8 5
f 10 11 12
f 10 12 13
f 11 14 15
f 11 15 12
f 14 16 17
f 14 17 15
f 16 18 19
f 16 19 17
f 18 20 21
f 18 21 19
f 20 22 23
f 20 23 21
f 22 24 25
f 22 25 23
f 24 10 13
f 24 13 25
f 26 27 28
f 26 28 29
f 27 30 31
f 27 31 28
f 30 32 33
f 30 33 31
f 32 34 35
f 32 35 33
f 34 36 37
f 34 37 35
f 36 38 39
f 36 39 37
f 38 40 41
f 38 41 39
f 40 26 29
f 40 29 41
f 42 43 27
f 42 27 26
f 43 44 30
f 43 30 27
f 44 45 32
f 44 32 30
f 45 46 34
f 45 34 32
f 46 47 36
f 46 36 34
f 47 48 38
f 47 38 36
f 48 49 40
f 48 40 38
f 49 42 26
f 49 26 40
f 50 51 43
f 50 43 42
f 51 52 44
f 51 44 43
f 52 53 45
f 52 45 44
f 53 54 46
f 53 46 45
f 54 55 47
f 54 47 46
f 55 56 48
f 55 48 47
f 56 57 49
f 56 49 48
f 57 50 42
f 57 42 49
f 58 54 53
f 11 10 29
f 11 29 28
f 14 11 28
f 14 28 31
f 16 14 31
f 16 31 33
f 18 16 33
f 18 33 35
f 20 18 35
f 20 35 37
f 22 20 37
f 22 37 39
f 24 22 39
f 24 39 41
f 10 24 41
f 10 41 29
f 1 13 12
f 2 1 12
f 2 12 15
f 59 60 6
f 59 6 5
f 61 2 15
f 61 15 17
f 62 59 5
f 62 5 8
f 9 61 17
f 9 17 19
f 63 64 9
f 64 65 61
f 64 61 9
f 65 66 2
f 65 2 61
f 71 72 64
f 71 64 63
f 72 73 65
f 72 65 64
f 73 74 66
f 73 66 65
f 74 75 67
f 74 67 66
f 75 76 68
f 75 68 67
f 76 77 69
f 76 69 68
f 77 78 70
f 77 70 69
f 78 71 63
f 78 63 70
f 79 80 72
f 79 72 71
f 80 81 73
f 80 73 72
f 81 82 74
f 81 74 73
f 82 83 75
f 82 75 74
f 83 84 76
f 83 76 75
f 84 85 77
f 84 77 76
f 85 86 78
f 85 78 77
f 86 79 71
f 86 71 78
f 87 88 80
f 87 80 79
f 88 89 81
f 88 81 80
f 89 90 82
f 89 82 81
f 90 91 83
f 90 83 82
f 91 92 84
f 91 84 83
f 92 93 85
f 92 85 84
f 93 94 86
f 93 86 85
f 94 87 79
f 94 79 86
f 95 96 88
f 95 88 87
f 96 97 89
f 96 89 88
f 97 98 90
f 97 90 89
f 98 99 91
f 98 91 90
f 99 100 92
f 99 92 91
f 100 101 93
f 100 93 92
f 101 102 94
f 101 94 93
f 102 95 87
f 102 87 94
f 103 104 96
f 103 96 95
f 104 105 97
f 104 97 96
f 105 106 98
f 105 98 97
f 106 107 99
f 106 99 98
f 107 108 100
f 107 100 99
f 108 109 101
f 108 101 100
f 109 110 102
f 109 102 101
f 110 103 95
f 110 95 102
f 111 112 104
f 111 104 103
f 112 113 105
f 112 105 104
f 113 114 106
f 113 106 105
f 114 115 107
f 114 107 106
f 115 116 108
f 115 108 107
f 116 117 109
f 116 109 108
f 117 118 110
f 117 110 109
f 118 111 103
f 118 103 110
f 119 120 112
f 119 112 111
f 120 121 113
f 120 113 112
f 121 122 114
f 121 114 113
f 122 123 115
f 122 115 114
f 123 124 116
f 123 116 115
f 124 125 117
f 124 117 116
f 125 126 118
f 125 118 117
f 126 119 111
f 126 111 118
f 127 128 120
f 127 120 119
f 128 129 121
f 128 121 120
f 129 130 122
f 129 122 121
f 130 131 123
f 130 123 122
f 131 132 124
f 131 124 123
f 132 133 125
f 132 125 124
f 133 134 126
f 133 126 125
f 134 127 119
f 134 119 126
f 8 7 128
f 8 128 127
f 7 4 129
f 7 129 128
f 4 3 130
f 4 130 129
f 3 6 131
f 3 131 130
f 6 60 132
f 6 132 131
f 60 59 133
f 60 133 132
f 59 62 134
f 59 134 133
f 62 8 127
f 62 127 134
