# R_PERONEAL_V posed
v 0.680665 0.263012 0.376430
v 0.658141 0.263475 0.374814
v 0.657961 0.261579 0.375395
v 0.680574 0.261207 0.377054
v 0.658678 0.264840 0.373018
v 0.681253 0.264318 0.374738
v 0.637568 0.262866 0.370522
v 0.638101 0.264367 0.368663
v 0.637316 0.260785 0.371176
v 0.681205 0.259760 0.375907
v 0.658358 0.260157 0.374000
v 0.658997 0.259747 0.371779
v 0.682086 0.259395 0.373932
v 0.637579 0.259225 0.369849
v 0.638120 0.258899 0.367652
v 0.682722 0.260759 0.372148
v 0.659596 0.261156 0.369956
v 0.660022 0.262654 0.368571
v 0.682845 0.262712 0.371406
v 0.638696 0.260375 0.365804
v 0.638995 0.262402 0.365195
v 0.682166 0.264052 0.372681
v 0.659551 0.264096 0.369976
v 0.638687 0.263930 0.366550
v 0.606006 0.265628 0.364000
v 0.586639 0.265970 0.357822
v 0.586186 0.263944 0.358418
v 0.605635 0.263539 0.364508
v 0.587121 0.267337 0.355854
v 0.606470 0.267127 0.362242
v 0.565348 0.265259 0.352046
v 0.565710 0.266771 0.350134
v 0.564947 0.263207 0.352571
v 0.605601 0.261965 0.363011
v 0.586048 0.262302 0.356837
v 0.586207 0.261975 0.354437
v 0.605862 0.261615 0.360721
v 0.564720 0.261766 0.350963
v 0.564769 0.261524 0.348507
v 0.606362 0.263221 0.358868
v 0.586692 0.263772 0.352733
v 0.587182 0.266110 0.352333
v 0.606783 0.265495 0.358365
v 0.565169 0.263142 0.346508
v 0.565607 0.265296 0.345914
v 0.606781 0.266930 0.359950
v 0.587316 0.267358 0.353729
v 0.565804 0.266629 0.347578
v 0.541006 0.263002 0.347677
v 0.540812 0.260964 0.348299
v 0.541227 0.264564 0.345608
v 0.492321 0.256493 0.341151
v 0.492188 0.258340 0.338921
v 0.515848 0.259340 0.340187
v 0.515765 0.257627 0.342289
v 0.470977 0.254169 0.339679
v 0.471318 0.252446 0.341943
v 0.451984 0.246725 0.344176
v 0.451416 0.248318 0.342419
v 0.540785 0.259468 0.346617
v 0.540873 0.259274 0.344081
v 0.491673 0.260592 0.345028
v 0.491907 0.258461 0.345548
v 0.515520 0.259446 0.346729
v 0.515510 0.261552 0.346246
v 0.470826 0.254349 0.346466
v 0.470334 0.256549 0.345831
v 0.450685 0.250807 0.348479
v 0.451418 0.248702 0.348803
v 0.541118 0.260904 0.341952
v 0.541336 0.263094 0.341237
v 0.492182 0.256780 0.343830
v 0.515630 0.257899 0.344942
v 0.471209 0.252749 0.344683
v 0.451921 0.246975 0.347083
v 0.541366 0.264413 0.342950
v 0.423478 0.238779 0.353397
v 0.450136 0.252425 0.346637
v 0.422354 0.240351 0.351432
v 0.424695 0.236443 0.353741
v 0.425263 0.234590 0.351742
v 0.425039 0.234063 0.348930
v 0.491567 0.262166 0.342992
v 0.469999 0.258166 0.343661
v 0.470473 0.256512 0.339012
v 0.491960 0.260587 0.338326
v 0.423830 0.235678 0.347493
v 0.450660 0.250725 0.341966
v 0.422557 0.238129 0.347106
v 0.491708 0.262011 0.340224
v 0.470096 0.258008 0.340903
v 0.422031 0.239885 0.349108
v 0.450182 0.252132 0.344011
v 0.400011 0.224118 0.359376
v 0.401591 0.222035 0.360282
v 0.398543 0.225566 0.356877
v 0.382966 0.211186 0.363041
v 0.381031 0.212577 0.360633
v 0.402422 0.220405 0.358232
v 0.402140 0.219938 0.355220
v 0.400531 0.221446 0.352796
v 0.398790 0.223651 0.352000
v 0.383143 0.208321 0.355873
v 0.381064 0.210554 0.355072
v 0.398132 0.225244 0.353846
v 0.380397 0.212175 0.357268
v 0.917057 0.184717 0.298796
v 0.916338 0.185987 0.299041
v 0.916325 0.186205 0.298647
v 0.916950 0.184881 0.298546
v 0.916399 0.185903 0.299396
v 0.917255 0.184708 0.298965
v 0.914830 0.188808 0.299534
v 0.914938 0.188760 0.299859
v 0.914803 0.188975 0.299132
v 0.917453 0.184899 0.298914
v 0.916469 0.186072 0.299464
v 0.916512 0.186316 0.299214
v 0.917501 0.185124 0.298691
v 0.915100 0.188891 0.299859
v 0.915180 0.189080 0.299575
v 0.918586 0.184102 0.296744
v 0.918304 0.184841 0.297605
v 0.918395 0.184674 0.297819
v 0.918635 0.184005 0.296911
v 0.918129 0.184882 0.297466
v 0.918459 0.184028 0.296612
v 0.917438 0.185313 0.298474
v 0.917233 0.185328 0.298305
v 0.918355 0.183757 0.296688
v 0.917952 0.184735 0.297524
v 0.917865 0.184515 0.297698
v 0.918331 0.183478 0.296923
v 0.917042 0.185130 0.298355
v 0.918370 0.183374 0.297061
v 0.917949 0.184352 0.297913
v 0.918126 0.184306 0.298051
v 0.918432 0.183465 0.297059
v 0.918553 0.183731 0.297008
v 0.918302 0.184458 0.297994
v 0.917987 0.185814 0.296006
v 0.918288 0.185597 0.296178
v 0.918339 0.185555 0.296312
v 0.918226 0.185758 0.295930
v 0.918184 0.185536 0.296063
v 0.918117 0.185743 0.295755
v 0.917850 0.185675 0.295939
v 0.918074 0.185378 0.296056
v 0.918016 0.185226 0.296129
v 0.918006 0.185553 0.295781
v 0.881322 0.216782 0.312865
v 0.880785 0.216836 0.312541
v 0.867444 0.220070 0.322891
v 0.868278 0.220090 0.323122
v 0.892077 0.212593 0.302651
v 0.892604 0.212521 0.303026
v 0.880574 0.216426 0.312343
v 0.891834 0.212199 0.302462
v 0.867087 0.219568 0.322659
v 0.860373 0.222024 0.328243
v 0.861313 0.222052 0.328450
v 0.859914 0.221525 0.328071
v 0.855166 0.224388 0.332303
v 0.854592 0.223811 0.332197
v 0.856134 0.224514 0.332604
v 0.892091 0.211505 0.302635
v 0.880901 0.215735 0.312446
v 0.881489 0.215136 0.312725
v 0.892614 0.210842 0.303089
v 0.867447 0.218874 0.322650
v 0.868105 0.218162 0.322899
v 0.860334 0.220811 0.328172
v 0.854823 0.223060 0.332598
v 0.861297 0.219972 0.328383
v 0.857051 0.221896 0.332505
v 0.893197 0.210683 0.303480
v 0.882158 0.214951 0.313035
v 0.882475 0.215230 0.313220
v 0.893505 0.211015 0.303635
v 0.868841 0.217884 0.323441
v 0.868845 0.218744 0.324172
v 0.917828 0.185565 0.296108
v 0.918090 0.185925 0.295462
v 0.917978 0.185713 0.296138
v 0.918114 0.185566 0.295955
v 0.898064 0.203813 0.309109
v 0.890641 0.206820 0.315492
v 0.890892 0.206098 0.315865
v 0.898633 0.203306 0.309408
v 0.890190 0.206637 0.314875
v 0.897708 0.203501 0.308664
v 0.882138 0.209919 0.321979
v 0.881631 0.209882 0.321445
v 0.881832 0.209389 0.322717
v 0.897783 0.202578 0.308551
v 0.890014 0.205785 0.314744
v 0.890175 0.204889 0.315088
v 0.898170 0.201744 0.308813
v 0.880846 0.209069 0.321487
v 0.880306 0.208299 0.322123
v 0.898635 0.201430 0.309254
v 0.890573 0.204479 0.315758
v 0.890982 0.204497 0.316089
v 0.898958 0.201587 0.309555
v 0.880266 0.208016 0.323074
v 0.880594 0.208123 0.323505
v 0.899011 0.202234 0.309600
v 0.891040 0.205097 0.316204
v 0.881035 0.208652 0.323555
v 0.909519 0.196978 0.300993
v 0.904896 0.200696 0.303675
v 0.905102 0.200311 0.304032
v 0.909721 0.196842 0.301488
v 0.904556 0.200489 0.303264
v 0.909190 0.196804 0.300592
v 0.908933 0.196333 0.300567
v 0.904408 0.199836 0.303247
v 0.904485 0.199176 0.303515
v 0.908842 0.195875 0.300849
v 0.909051 0.195732 0.301332
v 0.904825 0.198958 0.304038
v 0.905111 0.199121 0.304361
v 0.909367 0.195902 0.301739
v 0.909637 0.196377 0.301757
v 0.905250 0.199687 0.304429
v 0.915188 0.189260 0.299212
v 0.913198 0.192975 0.299610
v 0.913245 0.192755 0.299992
v 0.913083 0.192977 0.299253
v 0.915069 0.189314 0.298889
v 0.914917 0.189177 0.298887
v 0.912971 0.192719 0.299245
v 0.912917 0.192392 0.299485
v 0.912970 0.192196 0.299915
v 0.913117 0.192188 0.300271
v 0.913220 0.192451 0.300288
v 0.916501 0.186558 0.298888
v 0.916446 0.186634 0.298529
v 0.916370 0.186473 0.298465
v 0.918063 0.185182 0.296265
v 0.918168 0.185241 0.296377
v 0.918278 0.185401 0.296387
v 0.874257 0.214187 0.325420
v 0.873594 0.214104 0.326509
v 0.874356 0.213786 0.324600
v 0.868318 0.217967 0.327046
v 0.869312 0.217232 0.325854
v 0.867321 0.218196 0.328265
v 0.863043 0.220587 0.329938
v 0.865379 0.219514 0.327741
v 0.863754 0.220445 0.328231
v 0.858307 0.222929 0.332704
v 0.866720 0.218892 0.326450
v 0.873475 0.213195 0.324755
v 0.872390 0.212782 0.325604
v 0.868349 0.216655 0.325937
v 0.866902 0.216612 0.326787
v 0.866024 0.218418 0.326101
v 0.864473 0.218537 0.326914
v 0.871819 0.212815 0.326803
v 0.865593 0.217009 0.328222
v 0.871942 0.213140 0.327554
v 0.865047 0.217503 0.329397
v 0.862536 0.219054 0.328591
v 0.861475 0.219824 0.330386
v 0.872460 0.213700 0.327582
v 0.865909 0.217927 0.329172
v 0.862065 0.220268 0.330544
v 0.857538 0.222175 0.333070
v 0.919135 0.187530 0.290836
v 0.918759 0.187049 0.291824
v 0.918664 0.187010 0.291816
v 0.918955 0.187390 0.291085
v 0.918613 0.187131 0.291694
v 0.918953 0.187421 0.291053
v 0.917058 0.188117 0.292013
v 0.917024 0.188242 0.291833
v 0.916999 0.187970 0.292115
v 0.911527 0.198223 0.292773
v 0.911439 0.198562 0.292593
v 0.906693 0.203315 0.293691
v 0.906908 0.202678 0.293929
v 0.914281 0.194187 0.291897
v 0.914266 0.194014 0.292078
v 0.911271 0.198839 0.292261
v 0.914214 0.194303 0.291599
v 0.906308 0.203875 0.293352
v 0.918350 0.187104 0.291605
v 0.916901 0.188235 0.291667
v 0.918919 0.187525 0.290741
v 0.918142 0.186996 0.291587
v 0.918610 0.187382 0.290934
v 0.916762 0.188147 0.291595
v 0.911043 0.198877 0.291933
v 0.905986 0.203973 0.293041
v 0.914100 0.194252 0.291327
v 0.910932 0.198695 0.291782
v 0.913994 0.194111 0.291222
v 0.905855 0.203676 0.292927
v 0.918038 0.186965 0.291580
v 0.916707 0.187989 0.291696
v 0.918721 0.187484 0.290690
v 0.918121 0.186947 0.291632
v 0.918612 0.187352 0.290966
v 0.916735 0.187874 0.291877
v 0.913989 0.193930 0.291396
v 0.911032 0.198344 0.291990
v 0.911254 0.198038 0.292345
v 0.914047 0.193819 0.291702
v 0.906076 0.203046 0.293148
v 0.906438 0.202478 0.293532
v 0.918937 0.187488 0.290784
v 0.918385 0.186975 0.291732
v 0.916865 0.187872 0.292042
v 0.914170 0.193865 0.291966
v 0.911444 0.198019 0.292662
v 0.906775 0.202376 0.293827
v 0.919102 0.187672 0.290452
v 0.818643 0.260715 0.329267
v 0.831359 0.255575 0.323106
v 0.831944 0.254807 0.324027
v 0.818923 0.259965 0.330306
v 0.831129 0.256720 0.322273
v 0.818696 0.261809 0.328287
v 0.841919 0.250536 0.318200
v 0.841239 0.251900 0.317602
v 0.842863 0.249567 0.318953
v 0.797639 0.269704 0.338930
v 0.797389 0.270102 0.337918
v 0.773861 0.276715 0.347222
v 0.774118 0.276410 0.348374
v 0.797650 0.271132 0.336845
v 0.774043 0.277718 0.346103
v 0.819228 0.262602 0.328019
v 0.831792 0.257485 0.321973
v 0.832591 0.257678 0.322332
v 0.819797 0.262794 0.328438
v 0.841716 0.252602 0.317445
v 0.842546 0.252635 0.317841
v 0.798365 0.272179 0.336517
v 0.774722 0.279061 0.345755
v 0.799067 0.272733 0.336905
v 0.775369 0.279880 0.346210
v 0.832788 0.257085 0.323464
v 0.842939 0.251981 0.318908
v 0.819991 0.262099 0.329528
v 0.832623 0.256120 0.324510
v 0.819911 0.261177 0.330525
v 0.843075 0.250986 0.319787
v 0.775625 0.279558 0.347371
v 0.799316 0.272322 0.337913
v 0.799092 0.271371 0.338920
v 0.775457 0.278545 0.348469
v 0.832351 0.255178 0.324592
v 0.843155 0.249977 0.319633
v 0.819444 0.260276 0.330759
v 0.774812 0.277266 0.348794
v 0.798368 0.270308 0.339256
v 0.829174 0.234437 0.346472
v 0.828433 0.234145 0.345502
v 0.827306 0.233413 0.345458
v 0.842723 0.226898 0.340473
v 0.843621 0.227000 0.341003
v 0.844476 0.227496 0.340919
v 0.842723 0.228052 0.338388
v 0.842444 0.227370 0.339335
v 0.843502 0.228575 0.338445
v 0.844298 0.228706 0.339151
v 0.856975 0.223867 0.332733
v 0.844662 0.228202 0.340136
v 0.852178 0.246710 0.311678
v 0.853603 0.245046 0.311850
v 0.862941 0.241450 0.306583
v 0.861059 0.243208 0.306877
v 0.855076 0.243871 0.312227
v 0.865952 0.239337 0.306044
v 0.860317 0.244343 0.307310
v 0.852070 0.247730 0.311789
v 0.852808 0.247890 0.312168
v 0.860758 0.244479 0.307650
v 0.862368 0.243249 0.307689
v 0.853898 0.246926 0.312719
v 0.854918 0.245515 0.313094
v 0.865424 0.240876 0.306997
v 0.855398 0.244272 0.312763
v 0.864859 0.240214 0.307399
v 0.869273 0.219330 0.323385
v 0.862442 0.221448 0.328459
v 0.905342 0.211426 0.282047
v 0.905771 0.211146 0.282035
v 0.905461 0.211346 0.282201
v 0.904983 0.211539 0.282393
v 0.905208 0.211778 0.282028
v 0.904780 0.211891 0.282244
v 0.905326 0.211699 0.282182
v 0.904781 0.212101 0.282348
v 0.904983 0.211752 0.282496
v 0.888547 0.223892 0.296725
v 0.881184 0.229964 0.299921
v 0.881300 0.230029 0.300262
v 0.888877 0.223877 0.296921
v 0.880568 0.229937 0.300234
v 0.888159 0.223755 0.296921
v 0.875617 0.235285 0.301099
v 0.874922 0.235093 0.301272
v 0.875547 0.235645 0.301757
v 0.872535 0.237859 0.301670
v 0.872156 0.238459 0.302406
v 0.871942 0.237510 0.301778
v 0.873227 0.237868 0.300162
v 0.871830 0.237994 0.300637
v 0.871495 0.239469 0.301403
v 0.879697 0.229956 0.301216
v 0.873589 0.235276 0.302479
v 0.887949 0.223492 0.297523
v 0.879046 0.230029 0.302226
v 0.887971 0.223282 0.298122
v 0.872402 0.235677 0.303848
v 0.870530 0.237602 0.303040
v 0.869055 0.237911 0.304690
v 0.869026 0.238555 0.303294
v 0.908023 0.206523 0.285729
v 0.905125 0.208821 0.287094
v 0.904887 0.209344 0.286958
v 0.907842 0.206963 0.285629
v 0.905428 0.208373 0.287292
v 0.908237 0.206190 0.285930
v 0.901052 0.211440 0.289589
v 0.901348 0.211009 0.289947
v 0.900807 0.212048 0.289325
v 0.907849 0.207227 0.285714
v 0.904886 0.209612 0.287006
v 0.905069 0.209561 0.287159
v 0.907976 0.207245 0.285907
v 0.900803 0.212407 0.289329
v 0.900959 0.212430 0.289542
v 0.908187 0.206931 0.286104
v 0.905352 0.209147 0.287369
v 0.905587 0.208645 0.287503
v 0.908348 0.206520 0.286215
v 0.901229 0.211993 0.289882
v 0.901445 0.211428 0.290154
v 0.908361 0.206228 0.286119
v 0.905590 0.208357 0.287457
v 0.901491 0.211050 0.290155
v 0.750404 0.285500 0.355852
v 0.750863 0.285365 0.357236
v 0.738425 0.281653 0.362206
v 0.738037 0.282792 0.361083
v 0.749990 0.282983 0.354878
v 0.750273 0.281983 0.355956
v 0.719868 0.273112 0.374159
v 0.720681 0.271913 0.373593
v 0.726422 0.277279 0.371384
v 0.725581 0.278575 0.371858
v 0.751135 0.284414 0.358288
v 0.894789 0.216887 0.292986
v 0.894718 0.217322 0.292623
v 0.895051 0.216453 0.293357
v 0.737377 0.285080 0.362743
v 0.737604 0.284746 0.364330
v 0.727181 0.276527 0.370052
v 0.721740 0.271505 0.372120
v 0.716142 0.269862 0.371997
v 0.721092 0.274785 0.370011
v 0.722127 0.273752 0.369301
v 0.717221 0.268819 0.371204
v 0.720100 0.275183 0.371598
v 0.714921 0.270000 0.373655
v 0.894957 0.217458 0.292516
v 0.895309 0.217309 0.292650
v 0.725250 0.280227 0.369321
v 0.726033 0.279608 0.367842
v 0.737604 0.284181 0.361463
v 0.750106 0.284410 0.354945
v 0.750664 0.281856 0.357368
v 0.895558 0.216909 0.293026
v 0.895617 0.216500 0.293390
v 0.888899 0.223695 0.297518
v 0.888680 0.223464 0.298115
v 0.715253 0.266389 0.375549
v 0.716461 0.266113 0.374018
v 0.726955 0.278332 0.367292
v 0.714274 0.267635 0.376127
v 0.895383 0.216342 0.293497
v 0.888291 0.223301 0.298321
v 0.878473 0.235072 0.295102
v 0.878776 0.235265 0.295409
v 0.886795 0.230545 0.289922
v 0.886508 0.230393 0.289644
v 0.878405 0.236211 0.295607
v 0.886732 0.231278 0.289999
v 0.912422 0.200180 0.285600
v 0.913047 0.199246 0.285613
v 0.912460 0.200070 0.285627
v 0.911950 0.200862 0.285636
v 0.912480 0.200147 0.285658
v 0.911997 0.200945 0.285690
v 0.912517 0.200036 0.285684
v 0.912067 0.200765 0.285729
v 0.912045 0.200686 0.285699
v 0.877403 0.237532 0.295545
v 0.869994 0.241089 0.301144
v 0.886238 0.232310 0.289740
v 0.876405 0.238514 0.295346
v 0.885627 0.233056 0.289328
v 0.868423 0.242233 0.301198
v 0.866199 0.241972 0.304787
v 0.868549 0.240216 0.304398
v 0.864450 0.243218 0.304929
v 0.882057 0.216034 0.313120
v 0.893199 0.211830 0.303382
v 0.885333 0.232924 0.289050
v 0.876077 0.238331 0.295027
v 0.876411 0.237388 0.294796
v 0.885434 0.232182 0.289022
v 0.868032 0.242087 0.300875
v 0.868778 0.241016 0.300410
v 0.864065 0.243050 0.304597
v 0.864913 0.241900 0.304073
v 0.885934 0.231143 0.289271
v 0.877465 0.236031 0.294862
v 0.870460 0.239325 0.300214
v 0.866872 0.240190 0.303635
v 0.903934 0.212761 0.283450
v 0.903880 0.212680 0.283332
v 0.903906 0.212993 0.283479
v 0.900412 0.216810 0.284232
v 0.900383 0.217179 0.284286
v 0.900259 0.216719 0.284038
v 0.893904 0.224268 0.285170
v 0.894089 0.224372 0.285412
v 0.894041 0.224900 0.285433
v 0.903732 0.213326 0.283436
v 0.903571 0.213537 0.283331
v 0.900163 0.217640 0.284105
v 0.899885 0.217965 0.283847
v 0.869246 0.238857 0.305375
v 0.870772 0.238807 0.303975
v 0.874470 0.236039 0.303101
v 0.873163 0.236246 0.304296
v 0.880704 0.230119 0.301218
v 0.879814 0.230163 0.302222
v 0.868649 0.238441 0.305536
v 0.872295 0.236088 0.304517
v 0.879181 0.230115 0.302548
v 0.910893 0.202918 0.285800
v 0.910823 0.203155 0.285738
v 0.911011 0.202726 0.285902
v 0.910842 0.203307 0.285779
v 0.910936 0.203310 0.285870
v 0.911035 0.203143 0.285975
v 0.911113 0.202909 0.286032
v 0.911086 0.202755 0.285996
v 0.893700 0.225640 0.285169
v 0.893318 0.226177 0.284804
v 0.903500 0.213474 0.283206
v 0.899743 0.217867 0.283642
v 0.903559 0.213210 0.283120
v 0.899753 0.217518 0.283592
v 0.893118 0.226085 0.284568
v 0.893168 0.225567 0.284531
v 0.903712 0.212896 0.283185
v 0.899992 0.217036 0.283769
v 0.893509 0.224814 0.284812
v 0.732196 0.280488 0.368690
v 0.732601 0.279557 0.367396
v 0.738616 0.281286 0.363849
v 0.738436 0.282221 0.365058
v 0.738044 0.283643 0.365378
v 0.731564 0.281890 0.369097
v 0.714189 0.269084 0.375251
v 0.719588 0.274357 0.373247
v 0.732528 0.279990 0.365740
v 0.732067 0.281150 0.364684
v 0.731382 0.282504 0.365158
v 0.730902 0.283350 0.366494
v 0.717213 0.267190 0.372267
v 0.722189 0.272310 0.370390
v 0.731009 0.282948 0.368097
v 0.751043 0.282941 0.358234
v 0.916067 0.190567 0.292155
v 0.916058 0.190647 0.291936
v 0.916021 0.190422 0.292241
v 0.915916 0.190632 0.291747
v 0.915792 0.190521 0.291630
v 0.915737 0.190385 0.291719
v 0.915772 0.190284 0.291913
v 0.915889 0.190319 0.292125
v 0.899827 0.208245 0.296618
v 0.899718 0.207914 0.296449
v 0.900211 0.208099 0.296909
v 0.899998 0.207245 0.296709
v 0.900424 0.206646 0.297022
v 0.900787 0.206510 0.297319
v 0.900926 0.206802 0.297428
v 0.900697 0.207444 0.297187
v 0.701291 0.264768 0.379975
v 0.701850 0.266028 0.378237
v 0.701256 0.263066 0.380657
v 0.701941 0.261827 0.379593
v 0.702893 0.261450 0.377704
v 0.703565 0.262879 0.376015
v 0.703609 0.264779 0.375129
v 0.702816 0.265966 0.376215
v 0.622031 0.263299 0.367275
v 0.622531 0.264754 0.365557
v 0.621712 0.261325 0.367850
v 0.621812 0.259825 0.366490
v 0.622198 0.259460 0.364333
v 0.622733 0.260965 0.362513
v 0.623109 0.263078 0.361895
v 0.622958 0.264530 0.363350
v 0.515067 0.264022 0.342681
v 0.514933 0.264170 0.345430
v 0.515172 0.262623 0.340783
v 0.725156 0.279694 0.370931
v 0.727346 0.277091 0.368363
f 1 2 3
f 1 3 4
f 5 2 1
f 5 1 6
f 7 2 5
f 7 5 8
f 3 2 7
f 3 7 9
f 10 11 12
f 10 12 13
f 3 11 10
f 3 10 4
f 14 11 3
f 14 3 9
f 12 11 14
f 12 14 15
f 16 17 18
f 16 18 19
f 12 17 16
f 12 16 13
f 20 17 12
f 20 12 15
f 18 17 20
f 18 20 21
f 22 23 5
f 22 5 6
f 18 23 22
f 18 22 19
f 24 23 18
f 24 18 21
f 5 23 24
f 5 24 8
f 25 26 27
f 25 27 28
f 29 26 25
f 29 25 30
f 31 26 29
f 31 29 32
f 27 26 31
f 27 31 33
f 34 35 36
f 34 36 37
f 27 35 34
f 27 34 28
f 38 35 27
f 38 27 33
f 36 35 38
f 36 38 39
f 40 41 42
f 40 42 43
f 36 41 40
f 36 40 37
f 44 41 36
f 44 36 39
f 42 41 44
f 42 44 45
f 46 47 29
f 46 29 30
f 42 47 46
f 42 46 43
f 48 47 42
f 48 42 45
f 29 47 48
f 29 48 32
f 31 49 50
f 31 50 33
f 51 49 31
f 51 31 32
f 52 53 54
f 52 54 55
f 56 57 58
f 56 58 59
f 38 60 61
f 38 61 39
f 50 60 38
f 50 38 33
f 62 63 64
f 62 64 65
f 66 67 68
f 66 68 69
f 44 70 71
f 44 71 45
f 61 70 44
f 61 44 39
f 72 52 55
f 72 55 73
f 57 74 75
f 57 75 58
f 48 76 51
f 48 51 32
f 71 76 48
f 71 48 45
f 63 72 73
f 63 73 64
f 74 66 69
f 74 69 75
f 72 63 66
f 72 66 74
f 74 57 52
f 74 52 72
f 77 68 78
f 77 78 79
f 69 68 77
f 69 77 80
f 67 66 63
f 67 63 62
f 53 52 57
f 53 57 56
f 81 75 69
f 81 69 80
f 58 75 81
f 58 81 82
f 62 83 84
f 62 84 67
f 56 85 86
f 56 86 53
f 87 59 58
f 87 58 82
f 88 59 87
f 88 87 89
f 83 90 91
f 83 91 84
f 90 86 85
f 90 85 91
f 92 93 88
f 92 88 89
f 78 93 92
f 78 92 79
f 77 94 95
f 77 95 80
f 96 94 77
f 96 77 79
f 97 94 96
f 97 96 98
f 95 94 97
f 81 99 100
f 81 100 82
f 95 99 81
f 95 81 80
f 87 101 102
f 87 102 89
f 100 101 87
f 100 87 82
f 103 101 100
f 102 101 103
f 102 103 104
f 92 105 96
f 92 96 79
f 102 105 92
f 102 92 89
f 106 105 102
f 106 102 104
f 96 105 106
f 96 106 98
f 107 108 109
f 107 109 110
f 111 108 107
f 111 107 112
f 113 108 111
f 113 111 114
f 109 108 113
f 109 113 115
f 116 117 111
f 116 111 112
f 118 117 116
f 118 116 119
f 120 117 118
f 120 118 121
f 111 117 120
f 111 120 114
f 122 123 124
f 122 124 125
f 126 123 122
f 126 122 127
f 128 123 126
f 128 126 129
f 124 123 128
f 124 128 119
f 130 131 126
f 130 126 127
f 132 131 130
f 132 130 133
f 134 131 132
f 134 132 110
f 126 131 134
f 126 134 129
f 135 136 132
f 135 132 133
f 137 136 135
f 137 135 138
f 107 136 137
f 107 137 112
f 132 136 107
f 132 107 110
f 139 140 137
f 139 137 138
f 124 140 139
f 124 139 125
f 116 140 124
f 116 124 119
f 137 140 116
f 137 116 112
f 141 142 143
f 141 143 144
f 145 142 141
f 145 141 146
f 122 142 145
f 122 145 127
f 143 142 122
f 143 122 125
f 147 148 145
f 147 145 146
f 149 148 147
f 149 147 150
f 130 148 149
f 130 149 133
f 145 148 130
f 145 130 127
f 151 152 153
f 151 153 154
f 155 152 151
f 155 151 156
f 157 152 155
f 157 155 158
f 153 152 157
f 153 157 159
f 153 160 161
f 153 161 154
f 162 160 153
f 162 153 159
f 163 160 162
f 163 162 164
f 161 160 163
f 161 163 165
f 166 167 157
f 166 157 158
f 168 167 166
f 168 166 169
f 170 167 168
f 170 168 171
f 157 167 170
f 157 170 159
f 162 172 173
f 162 173 164
f 170 172 162
f 170 162 159
f 174 172 170
f 174 170 171
f 173 172 174
f 173 174 175
f 176 177 168
f 176 168 169
f 178 177 176
f 178 176 179
f 180 177 178
f 180 178 181
f 168 177 180
f 168 180 171
f 182 183 184
f 182 184 185
f 147 183 182
f 147 182 150
f 141 183 147
f 141 147 146
f 184 183 141
f 184 141 144
f 186 187 188
f 186 188 189
f 190 187 186
f 190 186 191
f 192 187 190
f 192 190 193
f 188 187 192
f 188 192 194
f 195 196 190
f 195 190 191
f 197 196 195
f 197 195 198
f 199 196 197
f 199 197 200
f 190 196 199
f 190 199 193
f 201 202 197
f 201 197 198
f 203 202 201
f 203 201 204
f 205 202 203
f 205 203 206
f 197 202 205
f 197 205 200
f 207 208 203
f 207 203 204
f 188 208 207
f 188 207 189
f 209 208 188
f 209 188 194
f 203 208 209
f 203 209 206
f 210 211 212
f 210 212 213
f 214 211 210
f 214 210 215
f 186 211 214
f 186 214 191
f 212 211 186
f 212 186 189
f 216 217 214
f 216 214 215
f 218 217 216
f 218 216 219
f 195 217 218
f 195 218 198
f 214 217 195
f 214 195 191
f 220 221 218
f 220 218 219
f 222 221 220
f 222 220 223
f 201 221 222
f 201 222 204
f 218 221 201
f 218 201 198
f 224 225 222
f 224 222 223
f 212 225 224
f 212 224 213
f 207 225 212
f 207 212 189
f 222 225 207
f 222 207 204
f 226 227 228
f 226 228 121
f 229 227 226
f 229 226 230
f 210 227 229
f 210 229 215
f 228 227 210
f 228 210 213
f 231 232 229
f 231 229 230
f 233 232 231
f 233 231 115
f 216 232 233
f 216 233 219
f 229 232 216
f 229 216 215
f 113 234 233
f 113 233 115
f 235 234 113
f 235 113 114
f 220 234 235
f 220 235 223
f 233 234 220
f 233 220 219
f 120 236 235
f 120 235 114
f 228 236 120
f 228 120 121
f 224 236 228
f 224 228 213
f 235 236 224
f 235 224 223
f 128 237 118
f 128 118 119
f 238 237 128
f 238 128 129
f 226 237 238
f 226 238 230
f 118 237 226
f 118 226 121
f 134 239 238
f 134 238 129
f 109 239 134
f 109 134 110
f 231 239 109
f 231 109 115
f 238 239 231
f 238 231 230
f 182 240 149
f 182 149 150
f 241 240 182
f 241 182 185
f 135 240 241
f 135 241 138
f 149 240 135
f 149 135 133
f 184 242 241
f 184 241 185
f 143 242 184
f 143 184 144
f 139 242 143
f 139 143 125
f 241 242 139
f 241 139 138
f 192 243 244
f 192 244 194
f 245 243 192
f 245 192 193
f 246 243 245
f 246 245 247
f 244 243 246
f 244 246 248
f 249 250 251
f 249 251 252
f 246 250 249
f 246 249 248
f 253 250 246
f 253 246 247
f 251 250 253
f 251 253 181
f 199 254 245
f 199 245 193
f 255 254 199
f 255 199 200
f 256 254 255
f 256 255 257
f 245 254 256
f 245 256 247
f 253 258 180
f 253 180 181
f 256 258 253
f 256 253 247
f 259 258 256
f 259 256 257
f 180 258 259
f 180 259 171
f 255 260 261
f 255 261 257
f 205 260 255
f 205 255 200
f 262 260 205
f 262 205 206
f 261 260 262
f 261 262 263
f 261 264 259
f 261 259 257
f 265 264 261
f 265 261 263
f 174 264 265
f 174 265 175
f 259 264 174
f 259 174 171
f 262 266 267
f 262 267 263
f 209 266 262
f 209 262 206
f 244 266 209
f 244 209 194
f 267 266 244
f 267 244 248
f 267 268 265
f 267 265 263
f 249 268 267
f 249 267 248
f 269 268 249
f 269 249 252
f 265 268 269
f 265 269 175
f 270 271 272
f 270 272 273
f 274 271 270
f 274 270 275
f 276 271 274
f 276 274 277
f 272 271 276
f 272 276 278
f 279 280 281
f 279 281 282
f 283 280 279
f 283 279 284
f 285 280 283
f 285 283 286
f 281 280 285
f 281 285 287
f 274 288 289
f 274 289 277
f 290 288 274
f 290 274 275
f 291 288 290
f 291 290 292
f 289 288 291
f 289 291 293
f 285 294 295
f 285 295 287
f 296 294 285
f 296 285 286
f 297 294 296
f 297 296 298
f 295 294 297
f 295 297 299
f 291 300 301
f 291 301 293
f 302 300 291
f 302 291 292
f 303 300 302
f 303 302 304
f 301 300 303
f 301 303 305
f 306 307 297
f 306 297 298
f 308 307 306
f 308 306 309
f 310 307 308
f 310 308 311
f 297 307 310
f 297 310 299
f 312 313 303
f 312 303 304
f 272 313 312
f 272 312 273
f 314 313 272
f 314 272 278
f 303 313 314
f 303 314 305
f 315 316 308
f 315 308 309
f 279 316 315
f 279 315 284
f 317 316 279
f 317 279 282
f 308 316 317
f 308 317 311
f 312 318 270
f 312 270 273
f 302 318 312
f 302 312 304
f 290 318 302
f 290 302 292
f 270 318 290
f 270 290 275
f 319 320 321
f 319 321 322
f 323 320 319
f 323 319 324
f 325 320 323
f 325 323 326
f 321 320 325
f 321 325 327
f 328 329 319
f 328 319 322
f 330 329 328
f 330 328 331
f 332 329 330
f 332 330 333
f 319 329 332
f 319 332 324
f 334 335 323
f 334 323 324
f 336 335 334
f 336 334 337
f 338 335 336
f 338 336 339
f 323 335 338
f 323 338 326
f 332 340 334
f 332 334 324
f 341 340 332
f 341 332 333
f 342 340 341
f 342 341 343
f 334 340 342
f 334 342 337
f 336 344 345
f 336 345 339
f 346 344 336
f 346 336 337
f 347 344 346
f 347 346 348
f 345 344 347
f 345 347 349
f 350 351 342
f 350 342 343
f 352 351 350
f 352 350 353
f 346 351 352
f 346 352 348
f 342 351 346
f 342 346 337
f 347 354 355
f 347 355 349
f 356 354 347
f 356 347 348
f 321 354 356
f 321 356 322
f 355 354 321
f 355 321 327
f 357 358 352
f 357 352 353
f 328 358 357
f 328 357 331
f 356 358 328
f 356 328 322
f 352 358 356
f 352 356 348
f 269 363 362
f 269 362 175
f 364 363 269
f 364 269 252
f 173 366 365
f 173 365 164
f 362 366 173
f 362 173 175
f 163 367 368
f 163 368 165
f 365 367 163
f 365 163 164
f 360 367 365
f 360 365 361
f 368 367 360
f 368 360 359
f 369 370 364
f 369 364 252
f 368 370 369
f 368 369 165
f 371 372 325
f 371 325 326
f 373 372 371
f 373 371 374
f 375 372 373
f 375 373 376
f 325 372 375
f 325 375 327
f 377 378 379
f 377 379 380
f 371 378 377
f 371 377 374
f 338 378 371
f 338 371 326
f 379 378 338
f 379 338 339
f 381 382 383
f 381 383 384
f 379 382 381
f 379 381 380
f 345 382 379
f 345 379 339
f 383 382 345
f 383 345 349
f 375 385 355
f 375 355 327
f 386 385 375
f 386 375 376
f 383 385 386
f 383 386 384
f 355 385 383
f 355 383 349
f 387 388 251
f 387 251 181
f 161 388 387
f 161 387 154
f 369 388 161
f 369 161 165
f 251 388 369
f 251 369 252
f 389 390 391
f 389 391 392
f 393 390 389
f 393 389 394
f 395 390 393
f 395 393 396
f 391 390 395
f 391 395 397
f 398 399 400
f 398 400 401
f 402 399 398
f 402 398 403
f 404 399 402
f 404 402 405
f 400 399 404
f 400 404 406
f 404 407 408
f 404 408 406
f 409 407 404
f 409 404 405
f 410 407 409
f 410 409 411
f 408 407 410
f 408 410 412
f 402 413 414
f 402 414 405
f 415 413 402
f 415 402 403
f 416 413 415
f 416 415 417
f 414 413 416
f 414 416 418
f 414 419 409
f 414 409 405
f 420 419 414
f 420 414 418
f 421 419 420
f 421 420 376
f 409 419 421
f 409 421 411
f 422 423 424
f 422 424 425
f 426 423 422
f 426 422 427
f 428 423 426
f 428 426 429
f 424 423 428
f 424 428 430
f 431 432 433
f 431 433 434
f 424 432 431
f 424 431 425
f 435 432 424
f 435 424 430
f 433 432 435
f 433 435 436
f 437 438 439
f 437 439 440
f 433 438 437
f 433 437 434
f 441 438 433
f 441 433 436
f 439 438 441
f 439 441 442
f 443 444 426
f 443 426 427
f 439 444 443
f 439 443 440
f 445 444 439
f 445 439 442
f 426 444 445
f 426 445 429
f 446 447 350
f 446 350 343
f 448 449 450
f 448 450 451
f 452 453 454
f 452 454 455
f 350 447 456
f 350 456 353
f 428 457 458
f 428 458 430
f 459 457 428
f 459 428 429
f 415 457 459
f 415 459 417
f 458 457 415
f 458 415 403
f 460 461 447
f 460 447 446
f 462 454 453
f 462 453 463
f 464 465 466
f 464 466 467
f 468 465 464
f 468 464 469
f 435 470 471
f 435 471 436
f 458 470 435
f 458 435 430
f 398 470 458
f 398 458 403
f 471 470 398
f 471 398 401
f 472 473 465
f 472 465 468
f 449 474 475
f 449 475 450
f 330 451 450
f 330 450 333
f 476 451 330
f 476 330 331
f 441 477 478
f 441 478 442
f 471 477 441
f 471 441 436
f 479 477 471
f 479 471 401
f 478 477 479
f 478 479 480
f 463 453 481
f 463 481 482
f 466 465 473
f 466 473 483
f 474 460 446
f 474 446 475
f 481 453 452
f 481 452 484
f 445 485 459
f 445 459 429
f 478 485 445
f 478 445 442
f 486 485 478
f 486 478 480
f 459 485 486
f 459 486 417
f 487 488 410
f 487 410 411
f 489 488 487
f 489 487 490
f 491 488 489
f 491 489 492
f 410 488 491
f 410 491 412
f 493 494 495
f 493 495 496
f 497 494 493
f 497 493 498
f 499 494 497
f 499 497 500
f 495 494 499
f 495 499 501
f 491 502 503
f 491 503 412
f 504 502 491
f 504 491 492
f 505 502 504
f 505 504 506
f 503 502 505
f 503 505 507
f 503 508 509
f 503 509 412
f 510 508 503
f 510 503 507
f 381 508 510
f 381 510 380
f 509 508 381
f 509 381 384
f 178 511 387
f 178 387 181
f 512 511 178
f 512 178 179
f 151 511 512
f 151 512 156
f 387 511 151
f 387 151 154
f 513 514 505
f 513 505 506
f 515 514 513
f 515 513 516
f 517 514 515
f 517 515 518
f 505 514 517
f 505 517 507
f 510 519 377
f 510 377 380
f 517 519 510
f 517 510 507
f 520 519 517
f 520 517 518
f 377 519 520
f 377 520 374
f 521 522 515
f 521 515 516
f 487 522 521
f 487 521 490
f 523 522 487
f 523 487 411
f 515 522 523
f 515 523 518
f 520 524 373
f 520 373 374
f 523 524 520
f 523 520 518
f 421 524 523
f 421 523 411
f 373 524 421
f 373 421 376
f 391 525 526
f 391 526 392
f 527 525 391
f 527 391 397
f 528 525 527
f 528 527 529
f 526 525 528
f 526 528 530
f 531 532 489
f 531 489 490
f 528 532 531
f 528 531 530
f 533 532 528
f 533 528 529
f 489 532 533
f 489 533 492
f 395 534 527
f 395 527 397
f 535 534 395
f 535 395 396
f 536 534 535
f 536 535 537
f 527 534 536
f 527 536 529
f 538 539 509
f 538 509 384
f 540 539 538
f 540 538 541
f 408 539 540
f 408 540 406
f 509 539 408
f 509 408 412
f 479 542 543
f 479 543 480
f 400 542 479
f 400 479 401
f 540 542 400
f 540 400 406
f 543 542 540
f 543 540 541
f 420 544 386
f 420 386 376
f 545 544 420
f 545 420 418
f 538 544 545
f 538 545 541
f 386 544 538
f 386 538 384
f 416 546 545
f 416 545 418
f 486 546 416
f 486 416 417
f 543 546 486
f 543 486 480
f 545 546 543
f 545 543 541
f 495 547 548
f 495 548 496
f 549 547 495
f 549 495 501
f 422 547 549
f 422 549 427
f 548 547 422
f 548 422 425
f 493 550 551
f 493 551 498
f 548 550 493
f 548 493 496
f 431 550 548
f 431 548 425
f 551 550 431
f 551 431 434
f 497 552 553
f 497 553 500
f 551 552 497
f 551 497 498
f 437 552 551
f 437 551 434
f 553 552 437
f 553 437 440
f 499 554 549
f 499 549 501
f 553 554 499
f 553 499 500
f 443 554 553
f 443 553 440
f 549 554 443
f 549 443 427
f 533 555 504
f 533 504 492
f 536 555 533
f 536 533 529
f 556 555 536
f 556 536 537
f 504 555 556
f 504 556 506
f 535 557 558
f 535 558 537
f 393 557 535
f 393 535 396
f 559 557 393
f 559 393 394
f 558 557 559
f 558 559 560
f 558 561 556
f 558 556 537
f 562 561 558
f 562 558 560
f 513 561 562
f 513 562 516
f 556 561 513
f 556 513 506
f 559 563 564
f 559 564 560
f 389 563 559
f 389 559 394
f 526 563 389
f 526 389 392
f 564 563 526
f 564 526 530
f 564 565 562
f 564 562 560
f 531 565 564
f 531 564 530
f 521 565 531
f 521 531 490
f 562 565 521
f 562 521 516
f 566 567 568
f 566 568 569
f 569 570 571
f 569 571 566
f 572 573 468
f 572 468 469
f 452 573 572
f 452 572 484
f 448 568 567
f 448 567 574
f 574 575 449
f 574 449 448
f 341 475 446
f 341 446 343
f 450 475 341
f 450 341 333
f 576 577 460
f 576 460 474
f 575 576 474
f 575 474 449
f 578 579 463
f 578 463 482
f 466 579 578
f 466 578 467
f 461 460 577
f 461 577 580
f 570 461 580
f 570 580 571
f 357 581 476
f 357 476 331
f 456 581 357
f 456 357 353
f 283 582 583
f 283 583 286
f 584 582 283
f 584 283 284
f 276 582 584
f 276 584 278
f 583 582 276
f 583 276 277
f 296 585 586
f 296 586 298
f 583 585 296
f 583 296 286
f 289 585 583
f 289 583 277
f 586 585 289
f 586 289 293
f 306 587 588
f 306 588 309
f 586 587 306
f 586 306 298
f 301 587 586
f 301 586 293
f 588 587 301
f 588 301 305
f 315 589 584
f 315 584 284
f 588 589 315
f 588 315 309
f 314 589 588
f 314 588 305
f 584 589 314
f 584 314 278
f 155 590 591
f 155 591 158
f 592 590 155
f 592 155 156
f 295 590 592
f 295 592 287
f 591 590 295
f 591 295 299
f 166 593 594
f 166 594 169
f 591 593 166
f 591 166 158
f 310 593 591
f 310 591 299
f 594 593 310
f 594 310 311
f 176 595 596
f 176 596 179
f 594 595 176
f 594 176 169
f 317 595 594
f 317 594 311
f 596 595 317
f 596 317 282
f 512 597 592
f 512 592 156
f 596 597 512
f 596 512 179
f 281 597 596
f 281 596 282
f 592 597 281
f 592 281 287
f 1 598 599
f 1 599 6
f 600 598 1
f 600 1 4
f 572 598 600
f 572 600 484
f 599 598 572
f 599 572 469
f 10 601 600
f 10 600 4
f 602 601 10
f 602 10 13
f 481 601 602
f 481 602 482
f 600 601 481
f 600 481 484
f 16 603 602
f 16 602 13
f 604 603 16
f 604 16 19
f 578 603 604
f 578 604 467
f 602 603 578
f 602 578 482
f 22 605 604
f 22 604 19
f 599 605 22
f 599 22 6
f 464 605 599
f 464 599 469
f 604 605 464
f 604 464 467
f 25 606 607
f 25 607 30
f 608 606 25
f 608 25 28
f 7 606 608
f 7 608 9
f 607 606 7
f 607 7 8
f 34 609 608
f 34 608 28
f 610 609 34
f 610 34 37
f 14 609 610
f 14 610 15
f 608 609 14
f 608 14 9
f 40 611 610
f 40 610 37
f 612 611 40
f 612 40 43
f 20 611 612
f 20 612 21
f 610 611 20
f 610 20 15
f 46 613 612
f 46 612 43
f 607 613 46
f 607 46 30
f 24 613 607
f 24 607 8
f 612 613 24
f 612 24 21
f 51 76 614
f 51 614 615
f 616 614 76
f 616 76 71
f 49 51 615
f 49 615 65
f 54 616 71
f 54 71 70
f 65 64 50
f 65 50 49
f 55 54 70
f 55 70 61
f 64 73 60
f 64 60 50
f 73 55 61
f 73 61 60
f 86 90 614
f 86 614 616
f 91 85 88
f 91 88 93
f 90 83 615
f 90 615 614
f 84 91 93
f 84 93 78
f 53 86 616
f 53 616 54
f 85 56 59
f 85 59 88
f 83 62 65
f 83 65 615
f 67 84 78
f 67 78 68
f 468 573 617
f 468 617 472
f 569 568 476
f 569 476 581
f 455 617 573
f 455 573 452
f 570 569 581
f 570 581 456
f 568 448 451
f 568 451 476
f 463 579 618
f 463 618 462
f 461 570 456
f 461 456 447
f 483 618 579
f 483 579 466
f 618 483 575
f 618 575 574
f 617 455 571
f 617 571 580
f 462 618 574
f 462 574 567
f 472 617 580
f 472 580 577
f 483 473 576
f 483 576 575
f 455 454 566
f 455 566 571
f 473 472 577
f 473 577 576
f 454 462 567
f 454 567 566
