# R_POPV posed
v 0.290556 0.173616 0.339236
v 0.291376 0.171463 0.342298
v 0.335040 0.197767 0.354357
v 0.310963 0.189446 0.347660
v 0.311535 0.191656 0.352183
v 0.312719 0.186023 0.344679
v 0.338329 0.194396 0.351830
v 0.334209 0.188405 0.353408
v 0.312379 0.181722 0.344752
v 0.312696 0.179532 0.347807
v 0.334497 0.186600 0.356589
v 0.335796 0.197196 0.362926
v 0.310511 0.189177 0.355036
v 0.311176 0.185359 0.355611
v 0.335587 0.193260 0.363761
v 0.335083 0.188966 0.360906
v 0.312015 0.181562 0.352569
f 3 4 5
f 6 4 3
f 6 3 7
f 8 9 6
f 8 6 7
f 10 9 8
f 10 8 11
f 12 13 14
f 12 14 15
f 5 13 12
f 16 17 10
f 16 10 11
f 14 17 16
f 14 16 15
f 2 1 9
f 2 9 10
f 6 9 1
