# R_POST_TIB_V rest
v -0.094155 -0.893664 -0.060516
v -0.092558 -0.899034 -0.067048
v -0.092344 -0.896783 -0.056234
v -0.087074 -0.892017 -0.054173
v -0.083730 -0.891995 -0.055768
v -0.088575 -0.894523 -0.066862
v -0.084891 -0.893850 -0.065287
v -0.083102 -0.892814 -0.060589
v -0.085011 -0.919550 -0.059864
v -0.086251 -0.907603 -0.057794
v -0.090451 -0.909187 -0.058163
v -0.088938 -0.919050 -0.060529
v -0.083004 -0.907411 -0.059312
v -0.081901 -0.919147 -0.061445
v -0.081406 -0.919582 -0.066142
v -0.082110 -0.908047 -0.064399
v -0.083939 -0.909066 -0.069100
v -0.083117 -0.919275 -0.070299
v -0.081531 -1.085346 -0.056508
v -0.080528 -1.056559 -0.057547
v -0.079392 -1.056548 -0.060821
v -0.080367 -1.085523 -0.059974
v -0.080169 -1.056455 -0.054235
v -0.081171 -1.085197 -0.052904
v -0.081673 -1.027010 -0.061533
v -0.081455 -1.026920 -0.058505
v -0.080461 -1.026806 -0.064234
v -0.078980 -1.085188 -0.051473
v -0.077944 -1.056274 -0.052972
v -0.075445 -1.056129 -0.053839
v -0.076473 -1.085304 -0.052319
v -0.079252 -1.026526 -0.057264
v -0.076685 -1.026104 -0.057991
v -0.077949 -1.085616 -0.060927
v -0.076961 -1.056397 -0.061768
v -0.074758 -1.056215 -0.060505
v -0.075794 -1.085601 -0.059525
v -0.078040 -1.026358 -0.064951
v -0.075802 -1.025963 -0.063856
v -0.075336 -1.085474 -0.055798
v -0.074340 -1.056115 -0.057126
v -0.075435 -1.025890 -0.060926
v -0.083066 -1.137953 -0.059704
v -0.082309 -1.112433 -0.057489
v -0.081044 -1.112517 -0.060738
v -0.081700 -1.137789 -0.062673
v -0.082214 -1.112386 -0.053974
v -0.083002 -1.138135 -0.056576
v -0.081045 -1.138223 -0.055312
v -0.080185 -1.112462 -0.052502
v -0.077567 -1.112599 -0.053412
v -0.078657 -1.138203 -0.056089
v -0.079339 -1.137752 -0.063448
v -0.078529 -1.112647 -0.061686
v -0.076347 -1.112732 -0.060450
v -0.077372 -1.137843 -0.062213
v -0.077288 -1.138035 -0.059069
v -0.076197 -1.112690 -0.056889
v -0.083445 -1.226662 -0.068863
v -0.088174 -1.208868 -0.067149
v -0.087237 -1.207964 -0.069374
v -0.082880 -1.225695 -0.071041
v -0.088008 -1.209491 -0.064663
v -0.083095 -1.227258 -0.066280
v -0.089475 -1.187125 -0.064968
v -0.089397 -1.187676 -0.062508
v -0.088211 -1.186455 -0.067249
v -0.081769 -1.226930 -0.064906
v -0.086430 -1.209318 -0.063505
v -0.084621 -1.208635 -0.063915
v -0.080365 -1.226089 -0.065150
v -0.087608 -1.187693 -0.061464
v -0.085413 -1.187301 -0.062003
v -0.081463 -1.224861 -0.071283
v -0.085412 -1.207287 -0.069774
v -0.083860 -1.207113 -0.068632
v -0.080132 -1.224525 -0.069927
v -0.086040 -1.186065 -0.067786
v -0.084248 -1.186081 -0.066744
v -0.079786 -1.225102 -0.067362
v -0.083675 -1.207727 -0.066156
v -0.084176 -1.186626 -0.064294
v -0.079755 -0.969123 -0.069459
v -0.079992 -0.941659 -0.068782
v -0.080940 -0.941461 -0.064403
v -0.080760 -0.969104 -0.065704
v -0.081249 -0.942291 -0.072983
v -0.080658 -0.969564 -0.073085
v -0.083235 -0.970240 -0.074380
v -0.084166 -0.943101 -0.074313
v -0.086786 -0.943606 -0.072924
v -0.085797 -0.970761 -0.073252
v -0.086185 -0.919944 -0.071695
v -0.088874 -0.920779 -0.070825
v -0.083444 -0.969636 -0.064499
v -0.083873 -0.941963 -0.062937
v -0.086629 -0.942745 -0.064366
v -0.085901 -0.970306 -0.065893
v -0.086629 -0.970723 -0.069712
v -0.087329 -0.943383 -0.068815
v -0.089284 -0.923606 -0.066393
v -0.096183 -0.925067 -0.069626
v -0.095398 -0.925700 -0.066985
v -0.096682 -0.925142 -0.063991
v -0.093612 -0.914404 -0.069465
v -0.091120 -0.916255 -0.070032
v -0.095818 -0.911499 -0.068126
v -0.090951 -0.911857 -0.069952
v -0.090773 -0.918720 -0.065541
v -0.091439 -0.916767 -0.061210
v -0.093728 -0.912740 -0.059459
v -0.096298 -0.909393 -0.060359
v -0.096538 -0.909165 -0.064362
v -0.087184 -0.910084 -0.070332
v -0.077725 -0.996879 -0.065879
v -0.078418 -0.997048 -0.069321
v -0.078612 -0.997072 -0.062531
v -0.080841 -0.997598 -0.070543
v -0.083351 -0.998157 -0.069529
v -0.081122 -0.997635 -0.061586
v -0.083560 -0.998188 -0.062816
v -0.084313 -0.998366 -0.066154
v -0.092172 -1.315937 -0.016674
v -0.091210 -1.316715 -0.016252
v -0.093406 -1.319010 -0.002868
v -0.094507 -1.318548 -0.002971
v -0.088899 -1.315029 -0.029468
v -0.089792 -1.314075 -0.030011
v -0.090128 -1.316580 -0.016279
v -0.087849 -1.315045 -0.029358
v -0.092218 -1.318638 -0.003026
v -0.095405 -1.322199 0.011746
v -0.096789 -1.321906 0.012124
v -0.094029 -1.321696 0.011218
v -0.097190 -1.326126 0.027933
v -0.095767 -1.325669 0.027252
v -0.091932 -1.313156 -0.018006
v -0.092433 -1.314443 -0.017379
v -0.094804 -1.317288 -0.003356
v -0.094352 -1.316084 -0.003777
v -0.090107 -1.312538 -0.030735
v -0.089618 -1.311296 -0.031293
v -0.096783 -1.319472 0.011647
v -0.097246 -1.320727 0.012046
v -0.088343 -1.311311 -0.031237
v -0.090721 -1.313009 -0.018092
v -0.089640 -1.313793 -0.017700
v -0.087188 -1.312247 -0.030725
v -0.093125 -1.315701 -0.003955
v -0.091943 -1.316133 -0.003853
v -0.094019 -1.319275 0.010732
v -0.095393 -1.318969 0.011101
v -0.097449 -1.323089 0.027384
v -0.095931 -1.323400 0.026796
v -0.087138 -1.313812 -0.029940
v -0.089525 -1.315292 -0.016923
v -0.091692 -1.317404 -0.003447
v -0.093571 -1.320454 0.010831
v -0.095360 -1.324511 0.026817
v -0.081417 -1.290245 -0.067089
v -0.078159 -1.282651 -0.066476
v -0.077715 -1.282450 -0.068370
v -0.080970 -1.290335 -0.069077
v -0.077724 -1.283348 -0.063820
v -0.081061 -1.290665 -0.064554
v -0.075589 -1.274041 -0.064636
v -0.075147 -1.274711 -0.062023
v -0.075173 -1.273798 -0.066219
v -0.076376 -1.284318 -0.061887
v -0.073839 -1.275475 -0.059723
v -0.079740 -1.291545 -0.063003
v -0.075066 -1.285004 -0.061489
v -0.078436 -1.292328 -0.062988
v -0.072532 -1.275921 -0.058907
v -0.074692 -1.284783 -0.063473
v -0.072068 -1.275605 -0.060595
v -0.078146 -1.292479 -0.065045
v -0.075160 -1.284052 -0.066164
v -0.078678 -1.292053 -0.067586
v -0.072510 -1.274945 -0.063250
v -0.079834 -1.291203 -0.069081
v -0.076432 -1.283129 -0.068023
v -0.073837 -1.274207 -0.065431
v -0.073121 -1.250922 -0.063370
v -0.071580 -1.263878 -0.060743
v -0.072140 -1.263384 -0.063401
v -0.073589 -1.250468 -0.065877
v -0.071932 -1.264152 -0.059061
v -0.073546 -1.251465 -0.061595
v -0.086550 -1.312372 -0.043485
v -0.085599 -1.312573 -0.043081
v -0.087425 -1.311310 -0.043878
v -0.084613 -1.307804 -0.056007
v -0.085492 -1.306681 -0.056104
v -0.083695 -1.308133 -0.055253
v -0.087842 -1.309737 -0.043993
v -0.087548 -1.308602 -0.043850
v -0.085984 -1.305314 -0.055360
v -0.085706 -1.304469 -0.054326
v -0.086257 -1.308808 -0.043406
v -0.085049 -1.309922 -0.042970
v -0.084379 -1.304881 -0.053459
v -0.083152 -1.306006 -0.053210
v -0.084962 -1.311450 -0.042876
v -0.083058 -1.307342 -0.054081
v -0.083991 -1.298282 -0.063059
v -0.083690 -1.298034 -0.061123
v -0.083527 -1.299096 -0.064602
v -0.082339 -1.298693 -0.059912
v -0.081059 -1.299709 -0.059895
v -0.080894 -1.300466 -0.061531
v -0.081495 -1.300695 -0.063507
v -0.082531 -1.300059 -0.064637
v -0.076591 -1.251124 -0.066280
v -0.075344 -1.263143 -0.064676
v -0.074781 -1.263618 -0.062089
v -0.076125 -1.251576 -0.063796
v -0.074931 -1.262828 -0.066191
v -0.076190 -1.250645 -0.068015
v -0.074824 -1.251669 -0.061964
v -0.073334 -1.264009 -0.059875
v -0.074893 -1.250394 -0.067652
v -0.073573 -1.262985 -0.065507
v -0.075933 -1.238749 -0.066060
v -0.076505 -1.239485 -0.063868
v -0.076230 -1.238302 -0.068774
v -0.079378 -1.239891 -0.068271
v -0.078895 -1.239108 -0.070210
v -0.079085 -1.240329 -0.065559
v -0.077843 -1.240107 -0.063897
v -0.077541 -1.238500 -0.070237
v -0.086425 -1.163121 -0.062713
v -0.086394 -1.163501 -0.060001
v -0.085095 -1.162721 -0.065255
v -0.084501 -1.163593 -0.058856
v -0.082184 -1.163429 -0.059452
v -0.082815 -1.162554 -0.065866
v -0.080929 -1.162647 -0.064725
v -0.080858 -1.163025 -0.062002
f 9 10 11
f 9 11 12
f 13 10 9
f 13 9 14
f 4 10 13
f 4 13 5
f 11 10 4
f 11 4 3
f 15 16 13
f 15 13 14
f 17 16 15
f 17 15 18
f 8 16 17
f 8 17 7
f 13 16 8
f 13 8 5
f 19 20 21
f 19 21 22
f 23 20 19
f 23 19 24
f 25 20 23
f 25 23 26
f 21 20 25
f 21 25 27
f 28 29 23
f 28 23 24
f 30 29 28
f 30 28 31
f 32 29 30
f 32 30 33
f 23 29 32
f 23 32 26
f 34 35 36
f 34 36 37
f 21 35 34
f 21 34 22
f 38 35 21
f 38 21 27
f 36 35 38
f 36 38 39
f 40 41 30
f 40 30 31
f 36 41 40
f 36 40 37
f 42 41 36
f 42 36 39
f 30 41 42
f 30 42 33
f 43 44 45
f 43 45 46
f 47 44 43
f 47 43 48
f 19 44 47
f 19 47 24
f 45 44 19
f 45 19 22
f 49 50 47
f 49 47 48
f 51 50 49
f 51 49 52
f 28 50 51
f 28 51 31
f 47 50 28
f 47 28 24
f 53 54 55
f 53 55 56
f 45 54 53
f 45 53 46
f 34 54 45
f 34 45 22
f 55 54 34
f 55 34 37
f 57 58 51
f 57 51 52
f 55 58 57
f 55 57 56
f 40 58 55
f 40 55 37
f 51 58 40
f 51 40 31
f 59 60 61
f 59 61 62
f 63 60 59
f 63 59 64
f 65 60 63
f 65 63 66
f 61 60 65
f 61 65 67
f 68 69 63
f 68 63 64
f 70 69 68
f 70 68 71
f 72 69 70
f 72 70 73
f 63 69 72
f 63 72 66
f 74 75 76
f 74 76 77
f 61 75 74
f 61 74 62
f 78 75 61
f 78 61 67
f 76 75 78
f 76 78 79
f 80 81 70
f 80 70 71
f 76 81 80
f 76 80 77
f 82 81 76
f 82 76 79
f 70 81 82
f 70 82 73
f 83 84 85
f 83 85 86
f 87 84 83
f 87 83 88
f 15 84 87
f 15 87 18
f 85 84 15
f 85 15 14
f 89 90 87
f 89 87 88
f 91 90 89
f 91 89 92
f 93 90 91
f 93 91 94
f 87 90 93
f 87 93 18
f 95 96 97
f 95 97 98
f 85 96 95
f 85 95 86
f 9 96 85
f 9 85 14
f 97 96 9
f 97 9 12
f 99 100 91
f 99 91 92
f 97 100 99
f 97 99 98
f 101 100 97
f 101 97 12
f 91 100 101
f 91 101 94
f 108 105 107
f 108 107 2
f 106 105 108
f 106 108 94
f 103 109 110
f 103 110 104
f 106 109 103
f 106 103 102
f 101 109 106
f 101 106 94
f 110 109 101
f 110 101 12
f 11 111 110
f 11 110 12
f 112 111 11
f 112 11 3
f 1 113 112
f 1 112 3
f 107 113 1
f 107 1 2
f 93 114 17
f 93 17 18
f 108 114 93
f 108 93 94
f 6 114 108
f 6 108 2
f 17 114 6
f 17 6 7
f 83 115 116
f 83 116 88
f 117 115 83
f 117 83 86
f 42 115 117
f 42 117 33
f 116 115 42
f 116 42 39
f 89 118 119
f 89 119 92
f 116 118 89
f 116 89 88
f 38 118 116
f 38 116 39
f 119 118 38
f 119 38 27
f 95 120 117
f 95 117 86
f 121 120 95
f 121 95 98
f 32 120 121
f 32 121 26
f 117 120 32
f 117 32 33
f 99 122 121
f 99 121 98
f 119 122 99
f 119 99 92
f 25 122 119
f 25 119 27
f 121 122 25
f 121 25 26
f 123 124 125
f 123 125 126
f 127 124 123
f 127 123 128
f 129 124 127
f 129 127 130
f 125 124 129
f 125 129 131
f 125 132 133
f 125 133 126
f 134 132 125
f 134 125 131
f 135 132 134
f 135 134 136
f 133 132 135
f 137 138 139
f 137 139 140
f 141 138 137
f 141 137 142
f 123 138 141
f 123 141 128
f 139 138 123
f 139 123 126
f 139 144 143
f 139 143 140
f 133 144 139
f 133 139 126
f 145 146 147
f 145 147 148
f 137 146 145
f 137 145 142
f 149 146 137
f 149 137 140
f 147 146 149
f 147 149 150
f 151 152 153
f 151 153 154
f 149 152 151
f 149 151 150
f 143 152 149
f 143 149 140
f 153 152 143
f 155 156 129
f 155 129 130
f 147 156 155
f 147 155 148
f 157 156 147
f 157 147 150
f 129 156 157
f 129 157 131
f 157 158 134
f 157 134 131
f 151 158 157
f 151 157 150
f 159 158 151
f 159 151 154
f 134 158 159
f 134 159 136
f 160 161 162
f 160 162 163
f 164 161 160
f 164 160 165
f 166 161 164
f 166 164 167
f 162 161 166
f 162 166 168
f 164 169 170
f 164 170 167
f 171 169 164
f 171 164 165
f 172 169 171
f 172 171 173
f 170 169 172
f 170 172 174
f 172 175 176
f 172 176 174
f 177 175 172
f 177 172 173
f 178 175 177
f 178 177 179
f 176 175 178
f 176 178 180
f 181 182 178
f 181 178 179
f 162 182 181
f 162 181 163
f 183 182 162
f 183 162 168
f 178 182 183
f 178 183 180
f 184 185 186
f 184 186 187
f 188 185 184
f 188 184 189
f 176 185 188
f 176 188 174
f 186 185 176
f 186 176 180
f 127 190 191
f 127 191 130
f 192 190 127
f 192 127 128
f 193 190 192
f 193 192 194
f 191 190 193
f 191 193 195
f 141 196 192
f 141 192 128
f 197 196 141
f 197 141 142
f 198 196 197
f 198 197 199
f 192 196 198
f 192 198 194
f 145 200 197
f 145 197 142
f 201 200 145
f 201 145 148
f 202 200 201
f 202 201 203
f 197 200 202
f 197 202 199
f 155 204 201
f 155 201 148
f 191 204 155
f 191 155 130
f 205 204 191
f 205 191 195
f 201 204 205
f 201 205 203
f 160 206 207
f 160 207 165
f 208 206 160
f 208 160 163
f 198 206 208
f 198 208 194
f 207 206 198
f 207 198 199
f 171 209 210
f 171 210 173
f 207 209 171
f 207 171 165
f 202 209 207
f 202 207 199
f 210 209 202
f 210 202 203
f 177 211 212
f 177 212 179
f 210 211 177
f 210 177 173
f 205 211 210
f 205 210 203
f 212 211 205
f 212 205 195
f 181 213 208
f 181 208 163
f 212 213 181
f 212 181 179
f 193 213 212
f 193 212 195
f 208 213 193
f 208 193 194
f 214 215 216
f 214 216 217
f 218 215 214
f 218 214 219
f 166 215 218
f 166 218 168
f 216 215 166
f 216 166 167
f 220 221 188
f 220 188 189
f 216 221 220
f 216 220 217
f 170 221 216
f 170 216 167
f 188 221 170
f 188 170 174
f 222 223 218
f 222 218 219
f 186 223 222
f 186 222 187
f 183 223 186
f 183 186 180
f 218 223 183
f 218 183 168
f 184 224 225
f 184 225 189
f 226 224 184
f 226 184 187
f 80 224 226
f 80 226 77
f 225 224 80
f 225 80 71
f 214 227 228
f 214 228 219
f 229 227 214
f 229 214 217
f 59 227 229
f 59 229 64
f 228 227 59
f 228 59 62
f 220 230 229
f 220 229 217
f 225 230 220
f 225 220 189
f 68 230 225
f 68 225 71
f 229 230 68
f 229 68 64
f 222 231 226
f 222 226 187
f 228 231 222
f 228 222 219
f 74 231 228
f 74 228 62
f 226 231 74
f 226 74 77
f 43 232 233
f 43 233 48
f 234 232 43
f 234 43 46
f 65 232 234
f 65 234 67
f 233 232 65
f 233 65 66
f 49 235 236
f 49 236 52
f 233 235 49
f 233 49 48
f 72 235 233
f 72 233 66
f 236 235 72
f 236 72 73
f 53 237 234
f 53 234 46
f 238 237 53
f 238 53 56
f 78 237 238
f 78 238 79
f 234 237 78
f 234 78 67
f 57 239 238
f 57 238 56
f 236 239 57
f 236 57 52
f 82 239 236
f 82 236 73
f 238 239 82
f 238 82 79
