# R_POPV rest
v -0.093818 -0.841623 -0.025354
v -0.097630 -0.841570 -0.024278
v -0.097903 -0.854023 -0.032508
v -0.094127 -0.853871 -0.033505
v -0.093522 -0.832103 -0.018501
v -0.089737 -0.832516 -0.019539
v -0.100991 -0.840936 -0.026203
v -0.101275 -0.853560 -0.034452
v -0.096775 -0.831088 -0.020311
v -0.091965 -0.840866 -0.029709
v -0.092345 -0.852966 -0.037767
v -0.087788 -0.831848 -0.023676
v -0.101490 -0.839953 -0.030839
v -0.101838 -0.852529 -0.039028
v -0.097134 -0.829952 -0.024703
v -0.098946 -0.872276 -0.049300
v -0.096781 -0.872648 -0.054220
v -0.098173 -0.873785 -0.045015
v -0.092493 -0.839880 -0.034336
v -0.092938 -0.851990 -0.042337
v -0.088175 -0.830706 -0.028060
v -0.094669 -0.872843 -0.042636
v -0.090903 -0.872416 -0.043628
v -0.099607 -0.839198 -0.035182
v -0.100027 -0.851624 -0.043285
v -0.095156 -0.829290 -0.028829
v -0.092887 -0.870939 -0.054622
v -0.089590 -0.870964 -0.052625
v -0.095824 -0.839249 -0.036252
v -0.096280 -0.851507 -0.044279
v -0.091400 -0.829697 -0.029860
v -0.089052 -0.871541 -0.047976
f 1 2 3
f 1 3 4
f 2 7 8
f 2 8 3
f 10 1 4
f 10 4 11
f 7 13 14
f 7 14 8
f 19 10 11
f 19 11 20
f 13 24 25
f 13 25 14
f 29 19 20
f 29 20 30
f 24 29 30
f 24 30 25
f 8 14 16
f 8 16 18
f 17 16 14
f 17 14 25
f 4 3 22
f 4 22 23
f 18 22 3
f 18 3 8
f 25 30 27
f 25 27 17
f 28 27 30
f 28 30 20
f 20 11 32
f 20 32 28
f 23 32 11
f 23 11 4
f 2 1 6
f 2 6 5
f 5 9 7
f 5 7 2
f 10 19 21
f 10 21 12
f 12 6 1
f 12 1 10
f 29 24 26
f 29 26 31
f 31 21 19
f 31 19 29
f 9 15 13
f 9 13 7
f 15 26 24
f 15 24 13
