# R_POST_TIB_V posed
v 0.339466 0.201288 0.360896
v 0.359620 0.194509 0.360532
v 0.348509 0.192382 0.357347
v 0.349445 0.196264 0.355397
v 0.358801 0.197912 0.358603
v 0.348585 0.190610 0.360429
v 0.359371 0.192908 0.363679
v 0.359451 0.195326 0.367798
v 0.348782 0.193011 0.365271
v 0.349166 0.197390 0.368116
v 0.358767 0.199020 0.370014
v 0.523386 0.212691 0.366069
v 0.494874 0.208569 0.366682
v 0.494627 0.209718 0.369938
v 0.523303 0.214006 0.369476
v 0.495133 0.206223 0.364327
v 0.523632 0.210102 0.363525
v 0.465125 0.207888 0.368276
v 0.465355 0.205862 0.366034
v 0.464751 0.208585 0.371135
v 0.523944 0.207490 0.363811
v 0.495263 0.203670 0.364726
v 0.495231 0.202265 0.366962
v 0.524166 0.206136 0.366065
v 0.465270 0.203328 0.366412
v 0.464990 0.201712 0.368557
v 0.523488 0.212766 0.371751
v 0.494577 0.208401 0.372192
v 0.494702 0.205880 0.372582
v 0.523783 0.210215 0.372046
v 0.464435 0.207073 0.373183
v 0.464339 0.204585 0.373699
v 0.524069 0.207494 0.369471
v 0.494976 0.203443 0.370211
v 0.464589 0.202502 0.371626
v 0.575008 0.223188 0.369012
v 0.550026 0.217696 0.367108
v 0.549874 0.218853 0.370386
v 0.574638 0.224117 0.372121
v 0.550343 0.215343 0.364517
v 0.575512 0.221094 0.366740
v 0.575867 0.218817 0.367109
v 0.551403 0.211881 0.363928
v 0.550955 0.211503 0.367129
v 0.575936 0.217554 0.369276
v 0.574689 0.222869 0.374271
v 0.550092 0.217587 0.372747
v 0.550462 0.215153 0.373241
v 0.575043 0.220602 0.374668
v 0.575560 0.218487 0.372395
v 0.550793 0.212735 0.370652
v 0.662658 0.239329 0.376544
v 0.644213 0.240916 0.372996
v 0.643146 0.241655 0.375222
v 0.661452 0.240290 0.378415
v 0.645097 0.239172 0.371336
v 0.663608 0.237393 0.375016
v 0.622775 0.237779 0.369871
v 0.623577 0.236139 0.368151
v 0.621956 0.238347 0.372371
v 0.663550 0.235469 0.374975
v 0.645145 0.237229 0.371587
v 0.644538 0.236136 0.373113
v 0.662778 0.234530 0.376094
v 0.623811 0.234175 0.368628
v 0.623507 0.232909 0.370528
v 0.660688 0.239340 0.379541
v 0.642549 0.240540 0.376751
v 0.642591 0.238632 0.376992
v 0.660621 0.237424 0.379516
v 0.621651 0.237117 0.374240
v 0.621886 0.235135 0.374722
v 0.661550 0.235500 0.377998
v 0.643466 0.236883 0.375354
v 0.622682 0.233490 0.373018
v 0.407526 0.203086 0.373317
v 0.380581 0.199015 0.371842
v 0.380728 0.197138 0.367688
v 0.407767 0.201645 0.369706
v 0.380649 0.202608 0.374581
v 0.407541 0.206016 0.375691
v 0.407856 0.208914 0.375199
v 0.381122 0.205783 0.373830
v 0.381546 0.207031 0.371131
v 0.408247 0.210339 0.372770
v 0.359074 0.202345 0.369281
v 0.359683 0.204108 0.367022
v 0.408165 0.203121 0.367146
v 0.381087 0.198669 0.364767
v 0.381458 0.201814 0.364330
v 0.408475 0.205983 0.366806
v 0.408466 0.208886 0.369436
v 0.381647 0.205009 0.367496
v 0.362675 0.202277 0.363335
v 0.363260 0.209833 0.361808
v 0.364173 0.207744 0.360122
v 0.363749 0.206942 0.356913
v 0.353678 0.205920 0.362492
v 0.355110 0.204822 0.365013
v 0.350697 0.206522 0.360152
v 0.351376 0.203747 0.364495
v 0.357920 0.202251 0.361579
v 0.356377 0.199941 0.357523
v 0.352403 0.200175 0.354662
v 0.349396 0.201983 0.353224
v 0.349892 0.200764 0.367095
v 0.435394 0.203251 0.372504
v 0.435190 0.205886 0.374762
v 0.435791 0.201959 0.369471
v 0.435413 0.208602 0.374248
v 0.435843 0.210041 0.371934
v 0.436218 0.203442 0.367223
v 0.436441 0.206167 0.366716
v 0.436275 0.208793 0.368714
v 0.774940 0.236804 0.357341
v 0.775800 0.236459 0.358265
v 0.787012 0.231751 0.351835
v 0.786599 0.232189 0.350798
v 0.765132 0.241366 0.364971
v 0.764065 0.241632 0.364081
v 0.775705 0.235753 0.359091
v 0.765241 0.240692 0.365777
v 0.786661 0.230915 0.352702
v 0.799734 0.226776 0.345421
v 0.799780 0.227216 0.344025
v 0.799028 0.225954 0.346541
v 0.814105 0.221243 0.338829
v 0.813322 0.220505 0.340069
v 0.772059 0.235758 0.356931
v 0.773394 0.236467 0.356802
v 0.785445 0.231835 0.350193
v 0.784315 0.231090 0.350230
v 0.762474 0.241313 0.363488
v 0.761220 0.240599 0.363596
v 0.797753 0.226043 0.343212
v 0.798901 0.226836 0.343196
v 0.761292 0.239821 0.364606
v 0.771916 0.235001 0.357880
v 0.772759 0.234606 0.358914
v 0.762330 0.239405 0.365713
v 0.783943 0.230235 0.351133
v 0.784335 0.229733 0.352223
v 0.797002 0.224791 0.345739
v 0.797034 0.225222 0.344350
v 0.811604 0.219911 0.337579
v 0.811420 0.219517 0.339178
v 0.763980 0.239865 0.366078
v 0.774360 0.234992 0.359307
v 0.785512 0.230108 0.352786
v 0.797897 0.225165 0.346552
v 0.812214 0.219822 0.340094
v 0.721392 0.243298 0.376789
v 0.716555 0.237363 0.376741
v 0.715263 0.238079 0.377915
v 0.720156 0.244199 0.378074
v 0.718702 0.235921 0.376072
v 0.723379 0.241880 0.376095
v 0.710972 0.232236 0.376606
v 0.712793 0.230659 0.375746
v 0.710021 0.232810 0.377683
v 0.720633 0.234481 0.376567
v 0.714545 0.228788 0.375766
v 0.725066 0.240683 0.376782
v 0.721420 0.233793 0.377648
v 0.725666 0.240311 0.378109
v 0.715338 0.227648 0.376455
v 0.720066 0.234593 0.378804
v 0.714293 0.228235 0.377617
v 0.724415 0.241376 0.379317
v 0.717878 0.236066 0.379462
v 0.722407 0.242897 0.379867
v 0.712461 0.229872 0.378533
v 0.720790 0.243980 0.379300
v 0.716020 0.237441 0.379006
v 0.710775 0.231698 0.378444
v 0.688645 0.229719 0.379536
v 0.701879 0.228637 0.379471
v 0.700805 0.230639 0.380712
v 0.687707 0.231624 0.380823
v 0.702529 0.227770 0.378104
v 0.689492 0.228906 0.378078
v 0.753215 0.246118 0.371639
v 0.753662 0.245451 0.372318
v 0.752183 0.246228 0.370654
v 0.741048 0.249168 0.376546
v 0.740186 0.249082 0.375409
v 0.741836 0.248403 0.377107
v 0.751003 0.245613 0.369708
v 0.750327 0.244692 0.369410
v 0.739770 0.248160 0.374129
v 0.739936 0.246930 0.373564
v 0.750811 0.243804 0.370349
v 0.751917 0.243504 0.371605
v 0.740870 0.245909 0.374441
v 0.741849 0.245706 0.375795
v 0.753044 0.244300 0.372275
v 0.742145 0.246916 0.376796
v 0.729614 0.246998 0.376006
v 0.730778 0.245597 0.375303
v 0.729122 0.248044 0.377374
v 0.732103 0.244483 0.376118
v 0.732853 0.244284 0.377542
v 0.732252 0.245534 0.378693
v 0.731033 0.247125 0.379163
v 0.729787 0.248014 0.378571
v 0.688078 0.234119 0.379019
v 0.700095 0.233712 0.379274
v 0.701154 0.231698 0.378031
v 0.689019 0.232207 0.377726
v 0.699480 0.234370 0.380531
v 0.687305 0.234921 0.380429
v 0.689543 0.230078 0.377428
v 0.702138 0.229240 0.377606
v 0.687216 0.233710 0.381073
v 0.699873 0.232945 0.381017
v 0.675866 0.232489 0.379358
v 0.676904 0.231520 0.377503
v 0.674971 0.234465 0.380971
v 0.676404 0.236588 0.378503
v 0.675357 0.237439 0.380118
v 0.677291 0.234612 0.376886
v 0.677423 0.232578 0.376616
v 0.674845 0.236409 0.381054
v 0.599404 0.230983 0.369674
v 0.600061 0.229187 0.367723
v 0.598836 0.231676 0.372424
v 0.600396 0.227046 0.368178
v 0.600327 0.225733 0.370184
v 0.598758 0.230412 0.374415
v 0.599095 0.228273 0.374867
v 0.599753 0.226431 0.372937
f 2 3 4
f 2 4 5
f 6 3 2
f 6 2 7
f 8 9 6
f 8 6 7
f 10 9 8
f 10 8 11
f 12 13 14
f 12 14 15
f 16 13 12
f 16 12 17
f 18 13 16
f 18 16 19
f 14 13 18
f 14 18 20
f 21 22 16
f 21 16 17
f 23 22 21
f 23 21 24
f 25 22 23
f 25 23 26
f 16 22 25
f 16 25 19
f 27 28 29
f 27 29 30
f 14 28 27
f 14 27 15
f 31 28 14
f 31 14 20
f 29 28 31
f 29 31 32
f 33 34 23
f 33 23 24
f 29 34 33
f 29 33 30
f 35 34 29
f 35 29 32
f 23 34 35
f 23 35 26
f 36 37 38
f 36 38 39
f 40 37 36
f 40 36 41
f 12 37 40
f 12 40 17
f 38 37 12
f 38 12 15
f 42 43 40
f 42 40 41
f 44 43 42
f 44 42 45
f 21 43 44
f 21 44 24
f 40 43 21
f 40 21 17
f 46 47 48
f 46 48 49
f 38 47 46
f 38 46 39
f 27 47 38
f 27 38 15
f 48 47 27
f 48 27 30
f 50 51 44
f 50 44 45
f 48 51 50
f 48 50 49
f 33 51 48
f 33 48 30
f 44 51 33
f 44 33 24
f 52 53 54
f 52 54 55
f 56 53 52
f 56 52 57
f 58 53 56
f 58 56 59
f 54 53 58
f 54 58 60
f 61 62 56
f 61 56 57
f 63 62 61
f 63 61 64
f 65 62 63
f 65 63 66
f 56 62 65
f 56 65 59
f 67 68 69
f 67 69 70
f 54 68 67
f 54 67 55
f 71 68 54
f 71 54 60
f 69 68 71
f 69 71 72
f 73 74 63
f 73 63 64
f 69 74 73
f 69 73 70
f 75 74 69
f 75 69 72
f 63 74 75
f 63 75 66
f 76 77 78
f 76 78 79
f 80 77 76
f 80 76 81
f 8 77 80
f 8 80 11
f 78 77 8
f 78 8 7
f 82 83 80
f 82 80 81
f 84 83 82
f 84 82 85
f 86 83 84
f 86 84 87
f 80 83 86
f 80 86 11
f 88 89 90
f 88 90 91
f 78 89 88
f 78 88 79
f 2 89 78
f 2 78 7
f 90 89 2
f 90 2 5
f 92 93 84
f 92 84 85
f 90 93 92
f 90 92 91
f 94 93 90
f 94 90 5
f 84 93 94
f 84 94 87
f 101 98 100
f 101 100 1
f 99 98 101
f 99 101 87
f 96 102 103
f 96 103 97
f 99 102 96
f 99 96 95
f 94 102 99
f 94 99 87
f 103 102 94
f 103 94 5
f 4 104 103
f 4 103 5
f 105 104 4
f 86 106 10
f 86 10 11
f 101 106 86
f 101 86 87
f 76 107 108
f 76 108 81
f 109 107 76
f 109 76 79
f 35 107 109
f 35 109 26
f 108 107 35
f 108 35 32
f 82 110 111
f 82 111 85
f 108 110 82
f 108 82 81
f 31 110 108
f 31 108 32
f 111 110 31
f 111 31 20
f 88 112 109
f 88 109 79
f 113 112 88
f 113 88 91
f 25 112 113
f 25 113 19
f 109 112 25
f 109 25 26
f 92 114 113
f 92 113 91
f 111 114 92
f 111 92 85
f 18 114 111
f 18 111 20
f 113 114 18
f 113 18 19
f 115 116 117
f 115 117 118
f 119 116 115
f 119 115 120
f 121 116 119
f 121 119 122
f 117 116 121
f 117 121 123
f 117 124 125
f 117 125 118
f 126 124 117
f 126 117 123
f 127 124 126
f 127 126 128
f 125 124 127
f 129 130 131
f 129 131 132
f 133 130 129
f 133 129 134
f 115 130 133
f 115 133 120
f 131 130 115
f 131 115 118
f 131 136 135
f 131 135 132
f 125 136 131
f 125 131 118
f 137 138 139
f 137 139 140
f 129 138 137
f 129 137 134
f 141 138 129
f 141 129 132
f 139 138 141
f 139 141 142
f 143 144 145
f 143 145 146
f 141 144 143
f 141 143 142
f 135 144 141
f 135 141 132
f 145 144 135
f 147 148 121
f 147 121 122
f 139 148 147
f 139 147 140
f 149 148 139
f 149 139 142
f 121 148 149
f 121 149 123
f 149 150 126
f 149 126 123
f 143 150 149
f 143 149 142
f 151 150 143
f 151 143 146
f 126 150 151
f 126 151 128
f 152 153 154
f 152 154 155
f 156 153 152
f 156 152 157
f 158 153 156
f 158 156 159
f 154 153 158
f 154 158 160
f 156 161 162
f 156 162 159
f 163 161 156
f 163 156 157
f 164 161 163
f 164 163 165
f 162 161 164
f 162 164 166
f 164 167 168
f 164 168 166
f 169 167 164
f 169 164 165
f 170 167 169
f 170 169 171
f 168 167 170
f 168 170 172
f 173 174 170
f 173 170 171
f 154 174 173
f 154 173 155
f 175 174 154
f 175 154 160
f 170 174 175
f 170 175 172
f 176 177 178
f 176 178 179
f 180 177 176
f 180 176 181
f 168 177 180
f 168 180 166
f 178 177 168
f 178 168 172
f 119 182 183
f 119 183 122
f 184 182 119
f 184 119 120
f 185 182 184
f 185 184 186
f 183 182 185
f 183 185 187
f 133 188 184
f 133 184 120
f 189 188 133
f 189 133 134
f 190 188 189
f 190 189 191
f 184 188 190
f 184 190 186
f 137 192 189
f 137 189 134
f 193 192 137
f 193 137 140
f 194 192 193
f 194 193 195
f 189 192 194
f 189 194 191
f 147 196 193
f 147 193 140
f 183 196 147
f 183 147 122
f 197 196 183
f 197 183 187
f 193 196 197
f 193 197 195
f 152 198 199
f 152 199 157
f 200 198 152
f 200 152 155
f 190 198 200
f 190 200 186
f 199 198 190
f 199 190 191
f 163 201 202
f 163 202 165
f 199 201 163
f 199 163 157
f 194 201 199
f 194 199 191
f 202 201 194
f 202 194 195
f 169 203 204
f 169 204 171
f 202 203 169
f 202 169 165
f 197 203 202
f 197 202 195
f 204 203 197
f 204 197 187
f 173 205 200
f 173 200 155
f 204 205 173
f 204 173 171
f 185 205 204
f 185 204 187
f 200 205 185
f 200 185 186
f 206 207 208
f 206 208 209
f 210 207 206
f 210 206 211
f 158 207 210
f 158 210 160
f 208 207 158
f 208 158 159
f 212 213 180
f 212 180 181
f 208 213 212
f 208 212 209
f 162 213 208
f 162 208 159
f 180 213 162
f 180 162 166
f 214 215 210
f 214 210 211
f 178 215 214
f 178 214 179
f 175 215 178
f 175 178 172
f 210 215 175
f 210 175 160
f 176 216 217
f 176 217 181
f 218 216 176
f 218 176 179
f 73 216 218
f 73 218 70
f 217 216 73
f 217 73 64
f 206 219 220
f 206 220 211
f 221 219 206
f 221 206 209
f 52 219 221
f 52 221 57
f 220 219 52
f 220 52 55
f 212 222 221
f 212 221 209
f 217 222 212
f 217 212 181
f 61 222 217
f 61 217 64
f 221 222 61
f 221 61 57
f 214 223 218
f 214 218 179
f 220 223 214
f 220 214 211
f 67 223 220
f 67 220 55
f 218 223 67
f 218 67 70
f 36 224 225
f 36 225 41
f 226 224 36
f 226 36 39
f 58 224 226
f 58 226 60
f 225 224 58
f 225 58 59
f 42 227 228
f 42 228 45
f 225 227 42
f 225 42 41
f 65 227 225
f 65 225 59
f 228 227 65
f 228 65 66
f 46 229 226
f 46 226 39
f 230 229 46
f 230 46 49
f 71 229 230
f 71 230 72
f 226 229 71
f 226 71 60
f 50 231 230
f 50 230 49
f 228 231 50
f 228 50 45
f 75 231 228
f 75 228 66
f 230 231 75
f 230 75 72
