# R_SAPH_V posed
v 0.024331 0.081864 0.422068
v 0.022841 0.083624 0.420678
v 0.030346 0.089843 0.426120
v 0.026253 0.088232 0.419230
v 0.028099 0.087542 0.419037
v 0.028289 0.089493 0.421927
v 0.028851 0.089408 0.422300
v 0.027631 0.093683 0.422105
v 0.022172 0.090818 0.416930
v 0.025394 0.091820 0.416775
v 0.027327 0.093010 0.419062
v 0.026810 0.099272 0.416459
v 0.020551 0.097911 0.412623
v 0.022719 0.097465 0.411736
v 0.025212 0.097568 0.412123
v 0.026816 0.098374 0.414171
v 0.028234 0.102939 0.412291
v 0.026299 0.103469 0.412771
v 0.024005 0.103370 0.412422
v 0.022527 0.102818 0.410335
v 0.022656 0.101848 0.408364
v 0.024434 0.101469 0.407717
v 0.026618 0.101396 0.408314
v 0.028065 0.102106 0.410355
v 0.030436 0.104849 0.410442
v 0.028757 0.105523 0.410692
v 0.027360 0.104353 0.411754
v 0.029173 0.103821 0.411378
v 0.026929 0.105598 0.410028
v 0.025171 0.104346 0.411277
v 0.025484 0.104579 0.406550
v 0.026937 0.103823 0.405794
v 0.025516 0.102570 0.406799
v 0.023596 0.103181 0.407417
v 0.029062 0.103459 0.406651
v 0.027779 0.102379 0.407545
v 0.030237 0.104059 0.408645
v 0.029004 0.103041 0.409531
v 0.044026 0.115379 0.401081
v 0.043157 0.116859 0.400876
v 0.033061 0.110476 0.406665
v 0.034347 0.109371 0.406780
v 0.041933 0.118143 0.399834
v 0.031624 0.111186 0.405645
v 0.041003 0.117809 0.397788
v 0.030496 0.111107 0.403854
v 0.040673 0.116713 0.396140
v 0.030354 0.110150 0.402341
v 0.041585 0.114972 0.396178
v 0.031430 0.108779 0.401989
v 0.042813 0.113896 0.397421
v 0.033114 0.108008 0.403154
v 0.043666 0.114323 0.399399
v 0.034107 0.108490 0.405151
v 0.077021 0.128867 0.388860
v 0.076197 0.130382 0.388653
v 0.058272 0.124105 0.394716
v 0.059078 0.122557 0.394912
v 0.075057 0.131669 0.387581
v 0.057129 0.125431 0.393657
v 0.074123 0.131275 0.385316
v 0.056167 0.125061 0.391410
v 0.073921 0.130182 0.383852
v 0.055934 0.123966 0.389959
v 0.074782 0.128421 0.383912
v 0.056779 0.122171 0.390016
v 0.075918 0.127336 0.385162
v 0.057920 0.121050 0.391255
v 0.076693 0.127759 0.387112
v 0.058717 0.121455 0.393187
v 0.097842 0.135241 0.381968
v 0.097119 0.136784 0.381701
v 0.096106 0.138102 0.380552
v 0.095245 0.137717 0.378234
v 0.095041 0.136616 0.376770
v 0.095792 0.134824 0.376894
v 0.096808 0.133708 0.378221
v 0.097522 0.134125 0.380214
v 0.116724 0.139594 0.375359
v 0.116122 0.141175 0.375071
v 0.115253 0.142524 0.373886
v 0.114464 0.142132 0.371532
v 0.114242 0.141005 0.370052
v 0.114861 0.139174 0.370196
v 0.115738 0.138035 0.371558
v 0.116394 0.138457 0.373582
v 0.027850 0.085158 0.418765
v 0.026665 0.106202 0.407606
v 0.021990 0.105515 0.406212
v 0.023384 0.106440 0.405878
v 0.024760 0.107481 0.406751
v 0.024836 0.107670 0.408545
v 0.023601 0.106895 0.409925
v 0.022209 0.105955 0.410140
v 0.021064 0.105068 0.409205
v 0.020915 0.104813 0.407512
v 0.021920 0.110444 0.406668
f 4 6 7
f 4 7 5
f 6 3 7
f 9 10 4
f 10 11 6
f 10 6 4
f 13 14 9
f 14 15 10
f 14 10 9
f 15 16 11
f 15 11 10
f 16 12 8
f 16 8 11
f 20 21 13
f 21 22 14
f 21 14 13
f 22 23 15
f 22 15 14
f 23 24 16
f 23 16 15
f 24 17 12
f 24 12 16
f 25 26 27
f 25 27 28
f 26 29 30
f 26 30 27
f 31 32 33
f 31 33 34
f 32 35 36
f 32 36 33
f 35 37 38
f 35 38 36
f 37 25 28
f 37 28 38
f 39 40 41
f 39 41 42
f 40 43 44
f 40 44 41
f 43 45 46
f 43 46 44
f 45 47 48
f 45 48 46
f 47 49 50
f 47 50 48
f 49 51 52
f 49 52 50
f 51 53 54
f 51 54 52
f 53 39 42
f 53 42 54
f 55 56 57
f 55 57 58
f 56 59 60
f 56 60 57
f 59 61 62
f 59 62 60
f 61 63 64
f 61 64 62
f 63 65 66
f 63 66 64
f 65 67 68
f 65 68 66
f 67 69 70
f 67 70 68
f 69 55 58
f 69 58 70
f 71 72 56
f 71 56 55
f 72 73 59
f 72 59 56
f 73 74 61
f 73 61 59
f 74 75 63
f 74 63 61
f 75 76 65
f 75 65 63
f 76 77 67
f 76 67 65
f 77 78 69
f 77 69 67
f 78 71 55
f 78 55 69
f 79 80 72
f 79 72 71
f 80 81 73
f 80 73 72
f 81 82 74
f 81 74 73
f 82 83 75
f 82 75 74
f 83 84 76
f 83 76 75
f 84 85 77
f 84 77 76
f 85 86 78
f 85 78 77
f 86 79 71
f 86 71 78
f 40 39 58
f 40 58 57
f 43 40 57
f 43 57 60
f 45 43 60
f 45 60 62
f 47 45 62
f 47 62 64
f 49 47 64
f 49 64 66
f 51 49 66
f 51 66 68
f 53 51 68
f 53 68 70
f 39 53 70
f 39 70 58
f 1 2 87
f 25 37 54
f 25 54 42
f 17 24 38
f 17 38 28
f 37 35 52
f 37 52 54
f 24 23 36
f 24 36 38
f 26 25 42
f 26 42 41
f 18 17 28
f 18 28 27
f 23 22 33
f 23 33 36
f 35 32 50
f 35 50 52
f 29 26 41
f 29 41 44
f 19 18 27
f 19 27 30
f 22 21 34
f 22 34 33
f 32 31 48
f 32 48 50
f 88 29 44
f 88 44 46
f 31 88 46
f 31 46 48
f 89 90 31
f 89 31 34
f 90 91 88
f 90 88 31
f 91 92 29
f 91 29 88
f 92 93 30
f 92 30 29
f 93 94 19
f 93 19 30
f 94 95 20
f 94 20 19
f 95 96 21
f 95 21 20
f 96 89 34
f 96 34 21
f 97 92 91
