# R_SAPH_V rest
v -0.066471 -0.620400 0.018194
v -0.066588 -0.650505 0.018038
v -0.065781 -0.650449 0.022343
v -0.065641 -0.620309 0.022268
v -0.065213 -0.650888 0.013816
v -0.065233 -0.620780 0.014156
v -0.062080 -0.621294 0.012862
v -0.061866 -0.651450 0.012517
v -0.058699 -0.651866 0.014061
v -0.059054 -0.621651 0.014270
v -0.058196 -0.621561 0.018346
v -0.057863 -0.651813 0.018367
v -0.059209 -0.651432 0.022590
v -0.059406 -0.621181 0.022383
v -0.062587 -0.620666 0.023678
v -0.062584 -0.650868 0.023887
v -0.062044 -0.498603 0.005966
v -0.061060 -0.498209 0.010388
v -0.061261 -0.503072 0.005996
v -0.064868 -0.503005 0.004407
v -0.061767 -0.502348 0.014743
v -0.060290 -0.502790 0.010402
v -0.065612 -0.502032 0.016058
v -0.064845 -0.507917 0.016168
v -0.061148 -0.507396 0.014765
v -0.061893 -0.562483 0.005909
v -0.062135 -0.535950 0.004632
v -0.058653 -0.536208 0.006126
v -0.058501 -0.562758 0.007350
v -0.064238 -0.508242 0.004497
v -0.060704 -0.507740 0.006010
v -0.065704 -0.535478 0.006057
v -0.065351 -0.561995 0.007346
v -0.057436 -0.562563 0.011669
v -0.057601 -0.536017 0.010510
v -0.058902 -0.535582 0.014875
v -0.058665 -0.562116 0.015987
v -0.059714 -0.507554 0.010412
v -0.065139 -0.590801 0.010404
v -0.066358 -0.590386 0.014539
v -0.066608 -0.561547 0.011664
v -0.065425 -0.590239 0.018679
v -0.065582 -0.561352 0.015981
v -0.058714 -0.591605 0.010416
v -0.061884 -0.591296 0.009030
v -0.058941 -0.591044 0.018691
v -0.057752 -0.591459 0.014554
v -0.062226 -0.590548 0.020064
v -0.062156 -0.561625 0.017427
v -0.066023 -0.534854 0.014806
v -0.067043 -0.535044 0.010418
v -0.062513 -0.535114 0.016300
f 1 2 3
f 1 3 4
f 5 2 1
f 5 1 6
f 7 8 5
f 7 5 6
f 9 8 7
f 9 7 10
f 11 12 9
f 11 9 10
f 13 12 11
f 13 11 14
f 15 16 13
f 15 13 14
f 3 16 15
f 3 15 4
f 21 22 18
f 22 19 17
f 22 17 18
f 21 23 24
f 21 24 25
f 26 27 28
f 26 28 29
f 28 27 30
f 28 30 31
f 30 27 32
f 32 27 26
f 32 26 33
f 34 35 36
f 34 36 37
f 36 35 38
f 36 38 25
f 38 35 28
f 38 28 31
f 28 35 34
f 28 34 29
f 39 40 41
f 39 41 33
f 41 40 42
f 41 42 43
f 42 40 1
f 42 1 4
f 1 40 39
f 1 39 6
f 44 45 26
f 44 26 29
f 26 45 39
f 26 39 33
f 39 45 7
f 39 7 6
f 7 45 44
f 7 44 10
f 46 47 34
f 46 34 37
f 34 47 44
f 34 44 29
f 44 47 11
f 44 11 10
f 11 47 46
f 11 46 14
f 42 48 49
f 42 49 43
f 49 48 46
f 49 46 37
f 46 48 15
f 46 15 14
f 15 48 42
f 15 42 4
f 19 22 38
f 19 38 31
f 38 22 21
f 38 21 25
f 30 20 19
f 30 19 31
f 50 51 41
f 50 41 43
f 41 51 32
f 41 32 33
f 36 52 49
f 36 49 37
f 49 52 50
f 49 50 43
f 50 52 24
f 24 52 36
f 24 36 25
