# R_SUPFEMV rest
v -0.010243 -0.549279 -0.034660
v -0.006700 -0.563910 -0.031776
v -0.012440 -0.563344 -0.027758
v -0.015590 -0.548770 -0.031042
v -0.026117 -0.547779 -0.022383
v -0.022229 -0.562418 -0.019661
v -0.020170 -0.562935 -0.015055
v -0.024375 -0.548229 -0.018255
v -0.020273 -0.548842 -0.016777
v -0.015508 -0.563642 -0.013468
v -0.015743 -0.549263 -0.019797
v -0.001329 -0.564721 -0.029931
v -0.005342 -0.550010 -0.032873
v -0.038126 -0.519149 -0.013008
v -0.039480 -0.506586 -0.013822
v -0.042749 -0.506150 -0.015124
v -0.041326 -0.518716 -0.014289
v -0.044163 -0.505796 -0.018432
v -0.037632 -0.518936 -0.020379
v -0.028025 -0.519934 -0.020807
v -0.034101 -0.506805 -0.019712
v -0.035900 -0.506840 -0.016050
v -0.028553 -0.520141 -0.017106
v -0.030789 -0.519429 -0.028011
v -0.028606 -0.533208 -0.026508
v -0.031999 -0.533066 -0.021252
v -0.027868 -0.519619 -0.029740
v -0.024024 -0.533606 -0.029467
v -0.030309 -0.533502 -0.017132
v -0.026268 -0.534084 -0.015564
v -0.021766 -0.534473 -0.018430
v -0.018103 -0.534654 -0.023590
v -0.023479 -0.520229 -0.027965
v -0.019858 -0.534205 -0.027837
v -0.042172 -0.505782 -0.022223
v -0.038792 -0.506014 -0.024331
v -0.033162 -0.506704 -0.024613
v -0.012557 -0.578346 -0.014078
v -0.013044 -0.577955 -0.020781
v -0.006773 -0.578584 -0.025280
v -0.013281 -0.578637 -0.006191
v -0.020279 -0.577604 -0.007972
v -0.000805 -0.579486 -0.023307
v -0.015237 -0.595607 -0.000950
v -0.018282 -0.595412 0.003768
v -0.030065 -0.607803 0.013066
v -0.017828 -0.609924 0.011464
v -0.012188 -0.595347 -0.015118
v -0.018717 -0.594685 -0.010374
v -0.026586 -0.593948 -0.003499
v -0.031167 -0.607339 -0.000372
v -0.033431 -0.606875 0.007334
v -0.046510 -0.613291 0.011486
v -0.023962 -0.594561 0.001977
v -0.035547 -0.606695 0.011001
v -0.003003 -0.596959 -0.007083
v -0.005922 -0.596286 -0.013123
v -0.047189 -0.609003 -0.236945
v -0.046045 -0.609104 -0.238837
v -0.045676 -0.609872 -0.238108
v -0.045992 -0.609326 -0.235379
v -0.044730 -0.609168 -0.239763
v -0.043166 -0.609526 -0.238481
v -0.053905 -0.504881 -0.092381
v -0.055796 -0.504670 -0.093636
v -0.061920 -0.512516 -0.102000
v -0.065919 -0.511700 -0.108613
v -0.065917 -0.521293 -0.122748
v -0.061688 -0.522534 -0.106315
v -0.068739 -0.510967 -0.116266
v -0.068892 -0.520607 -0.128134
v -0.065782 -0.511346 -0.114275
v -0.065638 -0.521294 -0.119053
v -0.061860 -0.511749 -0.116182
v -0.061658 -0.521866 -0.117143
v -0.057305 -0.512491 -0.113418
v -0.057039 -0.522589 -0.115735
v -0.055344 -0.513003 -0.108704
v -0.055071 -0.523122 -0.110949
v -0.057773 -0.512915 -0.104534
v -0.057537 -0.523031 -0.106721
v -0.063492 -0.533737 -0.114173
v -0.059362 -0.534409 -0.111099
v -0.066245 -0.532908 -0.125696
v -0.063385 -0.533271 -0.124592
v -0.059149 -0.533721 -0.126630
v -0.054282 -0.534486 -0.123553
v -0.052217 -0.534990 -0.118363
v -0.054878 -0.534861 -0.113819
v -0.056789 -0.544638 -0.131550
v -0.052914 -0.545535 -0.120054
v -0.059967 -0.544035 -0.137418
v -0.057345 -0.544459 -0.134705
v -0.052704 -0.544945 -0.136928
v -0.047363 -0.545719 -0.133590
v -0.045096 -0.546201 -0.127958
v -0.048001 -0.546028 -0.123020
v -0.046522 -0.557109 -0.144586
v -0.043482 -0.558044 -0.129030
v -0.050068 -0.556435 -0.151132
v -0.050020 -0.557089 -0.133320
v -0.045392 -0.557575 -0.135540
v -0.040065 -0.558343 -0.132212
v -0.034961 -0.558783 -0.137650
v -0.038127 -0.558588 -0.132266
v -0.038320 -0.574096 -0.145222
v -0.032873 -0.574908 -0.141227
v -0.041890 -0.573425 -0.151787
v -0.038210 -0.573630 -0.158782
v -0.032641 -0.574220 -0.161457
v -0.026225 -0.575151 -0.157462
v -0.023499 -0.575725 -0.150715
v -0.026979 -0.575507 -0.144793
v -0.035352 -0.586436 -0.144510
v -0.030555 -0.587181 -0.140973
v -0.038528 -0.585803 -0.150315
v -0.035273 -0.585968 -0.156507
v -0.030376 -0.586489 -0.158879
v -0.024710 -0.587345 -0.155346
v -0.022288 -0.587889 -0.149383
v -0.025368 -0.587709 -0.144143
v -0.028995 -0.598452 -0.159713
v -0.033759 -0.597682 -0.163231
v -0.031914 -0.605158 -0.219530
v -0.028036 -0.605830 -0.216475
v -0.036952 -0.597008 -0.168996
v -0.032881 -0.604425 -0.233534
v -0.033716 -0.597157 -0.175150
v -0.031722 -0.604672 -0.229504
v -0.028876 -0.597676 -0.177513
v -0.035130 -0.605435 -0.196464
v -0.023230 -0.598565 -0.174005
v -0.031179 -0.606107 -0.193909
v -0.020795 -0.599145 -0.168084
v -0.029497 -0.606562 -0.189712
v -0.023863 -0.598977 -0.162877
v -0.031795 -0.606443 -0.186083
v -0.044726 -0.609522 -0.233904
v -0.041986 -0.609745 -0.236640
v -0.043430 -0.609684 -0.235241
v -0.027982 -0.617451 0.009147
v -0.030892 -0.616855 0.002985
v -0.018744 -0.609758 -0.002483
v -0.015999 -0.610327 0.003664
v -0.036856 -0.615537 0.000579
v -0.024782 -0.608566 -0.004773
v -0.069714 -0.633668 -0.021596
v -0.073536 -0.633468 -0.020420
v -0.072306 -0.642486 -0.027505
v -0.071065 -0.642375 -0.024567
v -0.071036 -0.627444 -0.015268
v -0.067199 -0.627809 -0.016375
v -0.058437 -0.619167 -0.007748
v -0.062243 -0.618471 -0.006839
v -0.077015 -0.632920 -0.022298
v -0.075795 -0.642015 -0.029365
v -0.074434 -0.626730 -0.017060
v -0.065415 -0.617361 -0.008310
v -0.064752 -0.633518 -0.030964
v -0.066897 -0.642051 -0.033097
v -0.067901 -0.627201 -0.018460
v -0.056344 -0.618841 -0.011231
v -0.077702 -0.632273 -0.026990
v -0.076557 -0.641328 -0.034005
v -0.074967 -0.626028 -0.021513
v -0.065608 -0.616441 -0.011976
v -0.050508 -0.568999 0.014610
v -0.046885 -0.569522 0.013320
v -0.042979 -0.601428 0.006328
v -0.043826 -0.600691 0.001607
v -0.042219 -0.587303 0.009801
v -0.041431 -0.587451 0.014603
v -0.048194 -0.608216 -0.004766
v -0.047625 -0.609122 -0.000468
v -0.056587 -0.617911 -0.014895
v -0.049464 -0.586248 0.009263
v -0.051159 -0.599417 0.001392
v -0.052904 -0.599705 0.005958
v -0.056988 -0.607247 -0.000673
v -0.055315 -0.606796 -0.004967
v -0.062948 -0.616184 -0.015693
v -0.045695 -0.586786 0.007963
v -0.047361 -0.599880 -0.000060
v -0.051589 -0.607277 -0.006303
v -0.059001 -0.616893 -0.016646
v -0.068475 -0.632629 -0.031271
v -0.067703 -0.641359 -0.037719
v -0.065903 -0.626756 -0.025068
v -0.075968 -0.631874 -0.031441
v -0.075223 -0.640851 -0.036479
v -0.073098 -0.625682 -0.025731
v -0.072925 -0.632073 -0.029843
v -0.071463 -0.640890 -0.038527
v -0.070977 -0.625948 -0.023356
v -0.094708 -0.520180 0.014208
v -0.096969 -0.519839 0.013818
v -0.096765 -0.509289 0.013718
v -0.094500 -0.509584 0.014121
v -0.099408 -0.519487 0.014496
v -0.099209 -0.508981 0.014382
v -0.094435 -0.532503 0.014701
v -0.096701 -0.532199 0.014345
v -0.054517 -0.512328 0.009024
v -0.050880 -0.512774 0.010629
v -0.058277 -0.511838 0.010539
v -0.050758 -0.512673 0.013616
v -0.046222 -0.601475 0.009818
v -0.049834 -0.601032 0.011186
v -0.052875 -0.609112 0.005221
v -0.049113 -0.609600 0.003884
v -0.053194 -0.600249 0.009612
v -0.056304 -0.608168 0.003679
v -0.055937 -0.525677 0.014040
v -0.059772 -0.511582 0.014557
v -0.049995 -0.526417 0.012933
v -0.053125 -0.526016 0.011514
f 1 2 3
f 1 3 4
f 5 4 3
f 5 3 6
f 5 6 7
f 5 7 8
f 9 8 7
f 9 7 10
f 1 13 12
f 1 12 2
f 14 15 16
f 14 16 17
f 19 17 16
f 19 16 18
f 20 21 22
f 20 22 23
f 14 23 22
f 14 22 15
f 19 24 25
f 19 25 26
f 27 28 25
f 27 25 24
f 1 4 25
f 1 25 28
f 5 26 25
f 5 25 4
f 14 17 29
f 14 29 30
f 19 26 29
f 19 29 17
f 5 8 29
f 5 29 26
f 9 30 29
f 9 29 8
f 20 23 31
f 20 31 32
f 14 30 31
f 14 31 23
f 9 11 31
f 9 31 30
f 27 33 34
f 27 34 28
f 20 32 34
f 20 34 33
f 1 28 34
f 1 34 13
f 27 24 35
f 27 35 36
f 19 18 35
f 19 35 24
f 20 33 37
f 20 37 21
f 27 36 37
f 27 37 33
f 38 6 3
f 38 3 39
f 40 39 3
f 40 3 2
f 41 10 7
f 41 7 42
f 38 42 7
f 38 7 6
f 40 2 12
f 40 12 43
f 44 45 46
f 44 46 47
f 40 48 49
f 40 49 39
f 38 39 49
f 38 49 50
f 50 49 51
f 50 51 52
f 38 50 54
f 38 54 42
f 41 42 54
f 41 54 45
f 45 54 55
f 45 55 46
f 41 45 44
f 54 50 52
f 54 52 55
f 40 43 57
f 40 57 48
f 58 59 60
f 58 60 61
f 59 62 63
f 59 63 60
f 66 67 68
f 66 68 69
f 67 70 71
f 67 71 68
f 70 72 73
f 70 73 71
f 72 74 75
f 72 75 73
f 74 76 77
f 74 77 75
f 76 78 79
f 76 79 77
f 78 80 81
f 78 81 79
f 80 66 69
f 80 69 81
f 69 68 82
f 69 82 83
f 68 71 84
f 68 84 82
f 71 73 85
f 71 85 84
f 73 75 86
f 73 86 85
f 75 77 87
f 75 87 86
f 77 79 88
f 77 88 87
f 79 81 89
f 79 89 88
f 81 69 83
f 81 83 89
f 83 82 90
f 83 90 91
f 82 84 92
f 82 92 90
f 84 85 93
f 84 93 92
f 85 86 94
f 85 94 93
f 86 87 95
f 86 95 94
f 87 88 96
f 87 96 95
f 88 89 97
f 88 97 96
f 89 83 91
f 89 91 97
f 91 90 98
f 91 98 99
f 90 92 100
f 90 100 98
f 92 93 101
f 92 101 100
f 93 94 102
f 93 102 101
f 94 95 103
f 94 103 102
f 95 96 104
f 95 104 103
f 96 97 105
f 96 105 104
f 97 91 99
f 97 99 105
f 99 98 106
f 99 106 107
f 98 100 108
f 98 108 106
f 100 101 109
f 100 109 108
f 101 102 110
f 101 110 109
f 102 103 111
f 102 111 110
f 103 104 112
f 103 112 111
f 104 105 113
f 104 113 112
f 105 99 107
f 105 107 113
f 107 106 114
f 107 114 115
f 106 108 116
f 106 116 114
f 108 109 117
f 108 117 116
f 109 110 118
f 109 118 117
f 110 111 119
f 110 119 118
f 111 112 120
f 111 120 119
f 112 113 121
f 112 121 120
f 113 107 115
f 113 115 121
f 80 78 64
f 80 64 65
f 66 80 65
f 122 123 124
f 122 124 125
f 123 126 127
f 123 127 124
f 126 128 129
f 126 129 127
f 128 130 131
f 128 131 129
f 130 132 133
f 130 133 131
f 132 134 135
f 132 135 133
f 134 136 137
f 134 137 135
f 136 122 125
f 136 125 137
f 61 138 125
f 61 125 124
f 58 61 124
f 58 124 127
f 59 58 127
f 59 127 129
f 62 59 129
f 62 129 131
f 63 62 131
f 63 131 133
f 139 63 133
f 139 133 135
f 140 139 135
f 140 135 137
f 138 140 137
f 138 137 125
f 123 122 115
f 123 115 114
f 126 123 114
f 126 114 116
f 128 126 116
f 128 116 117
f 130 128 117
f 130 117 118
f 132 130 118
f 132 118 119
f 134 132 119
f 134 119 120
f 136 134 120
f 136 120 121
f 122 136 121
f 122 121 115
f 139 140 60
f 139 60 63
f 138 61 60
f 138 60 140
f 141 142 143
f 141 143 144
f 142 145 146
f 142 146 143
f 53 55 52
f 145 51 146
f 57 56 144
f 57 144 143
f 48 57 143
f 48 143 146
f 56 44 47
f 56 47 144
f 49 48 146
f 49 146 51
f 147 148 149
f 147 149 150
f 151 152 153
f 151 153 154
f 148 155 156
f 148 156 149
f 157 151 154
f 157 154 158
f 159 147 150
f 159 150 160
f 152 161 162
f 152 162 153
f 155 163 164
f 155 164 156
f 165 157 158
f 165 158 166
f 169 170 171
f 169 171 172
f 173 174 162
f 173 162 175
f 179 180 181
f 179 181 166
f 168 182 176
f 168 176 167
f 171 182 168
f 170 183 182
f 170 182 171
f 184 173 175
f 184 175 185
f 183 177 176
f 183 176 182
f 180 184 185
f 180 185 181
f 186 159 160
f 186 160 187
f 161 188 175
f 161 175 162
f 163 189 190
f 163 190 164
f 191 165 166
f 191 166 181
f 192 186 187
f 192 187 193
f 188 194 185
f 188 185 175
f 189 192 193
f 189 193 190
f 194 191 181
f 194 181 185
f 195 196 197
f 195 197 198
f 196 199 200
f 196 200 197
f 201 202 196
f 201 196 195
f 202 199 196
f 207 208 209
f 207 209 210
f 208 211 212
f 208 212 209
f 170 169 174
f 170 174 173
f 210 174 169
f 210 169 207
f 177 183 184
f 177 184 180
f 173 184 183
f 173 183 170
f 211 178 179
f 211 179 212
f 180 179 178
f 180 178 177
f 210 209 154
f 210 154 153
f 209 212 158
f 209 158 154
f 207 169 172
f 174 210 153
f 174 153 162
f 212 179 166
f 212 166 158
f 213 214 205
f 215 216 203
f 215 203 204
f 203 216 213
f 203 213 205
f 206 215 204
f 148 147 152
f 148 152 151
f 151 157 155
f 151 155 148
f 159 186 188
f 159 188 161
f 161 152 147
f 161 147 159
f 192 189 191
f 192 191 194
f 194 188 186
f 194 186 192
f 157 165 163
f 157 163 155
f 165 191 189
f 165 189 163
