<?xml version="1.0" encoding="utf-8" standalone="no"?>
<!DOCTYPE svg PUBLIC "-//W3C//DTD SVG 1.1//EN"
  "http://www.w3.org/Graphics/SVG/1.1/DTD/svg11.dtd">
<svg xmlns:xlink="http://www.w3.org/1999/xlink" width="726.833125pt" height="257.214125pt" viewBox="0 0 726.833125 257.214125" xmlns="http://www.w3.org/2000/svg" version="1.1">
 <metadata>
  <rdf:RDF xmlns:dc="http://purl.org/dc/elements/1.1/" xmlns:cc="http://creativecommons.org/ns#" xmlns:rdf="http://www.w3.org/1999/02/22-rdf-syntax-ns#">
   <cc:Work>
    <dc:type rdf:resource="http://purl.org/dc/dcmitype/StillImage"/>
    <dc:date>2026-09-02T15:23:53.756205</dc:date>
    <dc:format>image/svg+xml</dc:format>
    <dc:creator>
     <cc:Agent>
      <dc:title>Matplotlib v3.10.9, https://matplotlib.org/</dc:title>
     </cc:Agent>
    </dc:creator>
   </cc:Work>
  </rdf:RDF>
 </metadata>
 <defs>
  <style type="text/css">*{stroke-linejoin: round; stroke-linecap: butt}</style>
 </defs>
 <g id="figure_1">
  <g id="patch_1">
   <path d="M 0 257.214125 
L 726.833125 257.214125 
L 726.833125 0 
L 0 0 
z
" style="fill: #ffffff"/>
  </g>
  <g id="axes_1">
   <g id="patch_2">
    <path d="M 40.603125 233.336 
L 237.233125 233.336 
L 237.233125 52.656 
L 40.603125 52.656 
z
" style="fill: #ffffff"/>
   </g>
   <g id="patch_3">
    <path d="M 49.540852 233.336 
L 65.791265 233.336 
L 65.791265 218.849251 
L 49.540852 218.849251 
z
" clip-path="url(#pe0fdae2dc0)" style="fill: #1f77b4"/>
   </g>
   <g id="patch_4">
    <path d="M 114.542505 233.336 
L 130.792918 233.336 
L 130.792918 199.414834 
L 114.542505 199.414834 
z
" clip-path="url(#pe0fdae2dc0)" style="fill: #1f77b4"/>
   </g>
   <g id="patch_5">
    <path d="M 179.544158 233.336 
L 195.794571 233.336 
L 195.794571 192.694321 
L 179.544158 192.694321 
z
" clip-path="url(#pe0fdae2dc0)" style="fill: #1f77b4"/>
   </g>
   <g id="patch_6">
    <path d="M 65.791265 233.336 
L 82.041679 233.336 
L 82.041679 219.714467 
L 65.791265 219.714467 
z
" clip-path="url(#pe0fdae2dc0)" style="fill: #ff7f0e"/>
   </g>
   <g id="patch_7">
    <path d="M 130.792918 233.336 
L 147.043332 233.336 
L 147.043332 202.167676 
L 130.792918 202.167676 
z
" clip-path="url(#pe0fdae2dc0)" style="fill: #ff7f0e"/>
   </g>
   <g id="patch_8">
    <path d="M 195.794571 233.336 
L 212.044985 233.336 
L 212.044985 61.25981 
L 195.794571 61.25981 
z
" clip-path="url(#pe0fdae2dc0)" style="fill: #ff7f0e"/>
   </g>
   <g id="patch_9">
    <path d="M 82.041679 233.336 
L 98.292092 233.336 
L 98.292092 216.729263 
L 82.041679 216.729263 
z
" clip-path="url(#pe0fdae2dc0)" style="fill: #2ca02c"/>
   </g>
   <g id="patch_10">
    <path d="M 147.043332 233.336 
L 163.293745 233.336 
L 163.293745 216.62434 
L 147.043332 216.62434 
z
" clip-path="url(#pe0fdae2dc0)" style="fill: #2ca02c"/>
   </g>
   <g id="patch_11">
    <path d="M 212.044985 233.336 
L 228.295398 233.336 
L 228.295398 216.62434 
L 212.044985 216.62434 
z
" clip-path="url(#pe0fdae2dc0)" style="fill: #2ca02c"/>
   </g>
   <g id="matplotlib.axis_1">
    <g id="xtick_1">
     <g id="line2d_1">
      <path d="M 73.916472 233.336 
L 73.916472 52.656 
" clip-path="url(#pe0fdae2dc0)" style="fill: none; stroke: #b0b0b0; stroke-opacity: 0.3; stroke-width: 0.8; stroke-linecap: square"/>
     </g>
     <g id="line2d_2">
      <defs>
       <path id="m971d22cf2c" d="M 0 0 
L 0 3.5 
" style="stroke: #000000; stroke-width: 0.8"/>
      </defs>
      <g>
       <use xlink:href="#m971d22cf2c" x="73.916472" y="233.336" style="stroke: #000000; stroke-width: 0.8"/>
      </g>
     </g>
     <g id="text_1">
      <!-- mean -->
      <g transform="translate(59.736785 247.934437) scale(0.1 -0.1)">
       <defs>
        <path id="DejaVuSans-6d" d="M 3328 2828 
Q 3544 3216 3844 3400 
Q 4144 3584 4550 3584 
Q 5097 3584 5394 3201 
Q 5691 2819 5691 2113 
L 5691 0 
L 5113 0 
L 5113 2094 
Q 5113 2597 4934 2840 
Q 4756 3084 4391 3084 
Q 3944 3084 3684 2787 
Q 3425 2491 3425 1978 
L 3425 0 
L 2847 0 
L 2847 2094 
Q 2847 2600 2669 2842 
Q 2491 3084 2119 3084 
Q 1678 3084 1418 2786 
Q 1159 2488 1159 1978 
L 1159 0 
L 581 0 
L 581 3500 
L 1159 3500 
L 1159 2956 
Q 1356 3278 1631 3431 
Q 1906 3584 2284 3584 
Q 2666 3584 2933 3390 
Q 3200 3197 3328 2828 
z
" transform="scale(0.015625)"/>
        <path id="DejaVuSans-65" d="M 3597 1894 
L 3597 1613 
L 953 1613 
Q 991 1019 1311 708 
Q 1631 397 2203 397 
Q 2534 397 2845 478 
Q 3156 559 3463 722 
L 3463 178 
Q 3153 47 2828 -22 
Q 2503 -91 2169 -91 
Q 1331 -91 842 396 
Q 353 884 353 1716 
Q 353 2575 817 3079 
Q 1281 3584 2069 3584 
Q 2775 3584 3186 3129 
Q 3597 2675 3597 1894 
z
M 3022 2063 
Q 3016 2534 2758 2815 
Q 2500 3097 2075 3097 
Q 1594 3097 1305 2825 
Q 1016 2553 972 2059 
L 3022 2063 
z
" transform="scale(0.015625)"/>
        <path id="DejaVuSans-61" d="M 2194 1759 
Q 1497 1759 1228 1600 
Q 959 1441 959 1056 
Q 959 750 1161 570 
Q 1363 391 1709 391 
Q 2188 391 2477 730 
Q 2766 1069 2766 1631 
L 2766 1759 
L 2194 1759 
z
M 3341 1997 
L 3341 0 
L 2766 0 
L 2766 531 
Q 2569 213 2275 61 
Q 1981 -91 1556 -91 
Q 1019 -91 701 211 
Q 384 513 384 1019 
Q 384 1609 779 1909 
Q 1175 2209 1959 2209 
L 2766 2209 
L 2766 2266 
Q 2766 2663 2505 2880 
Q 2244 3097 1772 3097 
Q 1472 3097 1187 3025 
Q 903 2953 641 2809 
L 641 3341 
Q 956 3463 1253 3523 
Q 1550 3584 1831 3584 
Q 2591 3584 2966 3190 
Q 3341 2797 3341 1997 
z
" transform="scale(0.015625)"/>
        <path id="DejaVuSans-6e" d="M 3513 2113 
L 3513 0 
L 2938 0 
L 2938 2094 
Q 2938 2591 2744 2837 
Q 2550 3084 2163 3084 
Q 1697 3084 1428 2787 
Q 1159 2491 1159 1978 
L 1159 0 
L 581 0 
L 581 3500 
L 1159 3500 
L 1159 2956 
Q 1366 3272 1645 3428 
Q 1925 3584 2291 3584 
Q 2894 3584 3203 3211 
Q 3513 2838 3513 2113 
z
" transform="scale(0.015625)"/>
       </defs>
       <use xlink:href="#DejaVuSans-6d"/>
       <use xlink:href="#DejaVuSans-65" transform="translate(97.412109 0)"/>
       <use xlink:href="#DejaVuSans-61" transform="translate(158.935547 0)"/>
       <use xlink:href="#DejaVuSans-6e" transform="translate(220.214844 0)"/>
      </g>
     </g>
    </g>
    <g id="xtick_2">
     <g id="line2d_3">
      <path d="M 138.918125 233.336 
L 138.918125 52.656 
" clip-path="url(#pe0fdae2dc0)" style="fill: none; stroke: #b0b0b0; stroke-opacity: 0.3; stroke-width: 0.8; stroke-linecap: square"/>
     </g>
     <g id="line2d_4">
      <g>
       <use xlink:href="#m971d22cf2c" x="138.918125" y="233.336" style="stroke: #000000; stroke-width: 0.8"/>
      </g>
     </g>
     <g id="text_2">
      <!-- p95 -->
      <g transform="translate(129.381406 247.934437) scale(0.1 -0.1)">
       <defs>
        <path id="DejaVuSans-70" d="M 1159 525 
L 1159 -1331 
L 581 -1331 
L 581 3500 
L 1159 3500 
L 1159 2969 
Q 1341 3281 1617 3432 
Q 1894 3584 2278 3584 
Q 2916 3584 3314 3078 
Q 3713 2572 3713 1747 
Q 3713 922 3314 415 
Q 2916 -91 2278 -91 
Q 1894 -91 1617 61 
Q 1341 213 1159 525 
z
M 3116 1747 
Q 3116 2381 2855 2742 
Q 2594 3103 2138 3103 
Q 1681 3103 1420 2742 
Q 1159 2381 1159 1747 
Q 1159 1113 1420 752 
Q 1681 391 2138 391 
Q 2594 391 2855 752 
Q 3116 1113 3116 1747 
z
" transform="scale(0.015625)"/>
        <path id="DejaVuSans-39" d="M 703 97 
L 703 672 
Q 941 559 1184 500 
Q 1428 441 1663 441 
Q 2288 441 2617 861 
Q 2947 1281 2994 2138 
Q 2813 1869 2534 1725 
Q 2256 1581 1919 1581 
Q 1219 1581 811 2004 
Q 403 2428 403 3163 
Q 403 3881 828 4315 
Q 1253 4750 1959 4750 
Q 2769 4750 3195 4129 
Q 3622 3509 3622 2328 
Q 3622 1225 3098 567 
Q 2575 -91 1691 -91 
Q 1453 -91 1209 -44 
Q 966 3 703 97 
z
M 1959 2075 
Q 2384 2075 2632 2365 
Q 2881 2656 2881 3163 
Q 2881 3666 2632 3958 
Q 2384 4250 1959 4250 
Q 1534 4250 1286 3958 
Q 1038 3666 1038 3163 
Q 1038 2656 1286 2365 
Q 1534 2075 1959 2075 
z
" transform="scale(0.015625)"/>
        <path id="DejaVuSans-35" d="M 691 4666 
L 3169 4666 
L 3169 4134 
L 1269 4134 
L 1269 2991 
Q 1406 3038 1543 3061 
Q 1681 3084 1819 3084 
Q 2600 3084 3056 2656 
Q 3513 2228 3513 1497 
Q 3513 744 3044 326 
Q 2575 -91 1722 -91 
Q 1428 -91 1123 -41 
Q 819 9 494 109 
L 494 744 
Q 775 591 1075 516 
Q 1375 441 1709 441 
Q 2250 441 2565 725 
Q 2881 1009 2881 1497 
Q 2881 1984 2565 2268 
Q 2250 2553 1709 2553 
Q 1456 2553 1204 2497 
Q 953 2441 691 2322 
L 691 4666 
z
" transform="scale(0.015625)"/>
       </defs>
       <use xlink:href="#DejaVuSans-70"/>
       <use xlink:href="#DejaVuSans-39" transform="translate(63.476562 0)"/>
       <use xlink:href="#DejaVuSans-35" transform="translate(127.099609 0)"/>
      </g>
     </g>
    </g>
    <g id="xtick_3">
     <g id="line2d_5">
      <path d="M 203.919778 233.336 
L 203.919778 52.656 
" clip-path="url(#pe0fdae2dc0)" style="fill: none; stroke: #b0b0b0; stroke-opacity: 0.3; stroke-width: 0.8; stroke-linecap: square"/>
     </g>
     <g id="line2d_6">
      <g>
       <use xlink:href="#m971d22cf2c" x="203.919778" y="233.336" style="stroke: #000000; stroke-width: 0.8"/>
      </g>
     </g>
     <g id="text_3">
      <!-- max -->
      <g transform="translate(193.026028 247.934437) scale(0.1 -0.1)">
       <defs>
        <path id="DejaVuSans-78" d="M 3513 3500 
L 2247 1797 
L 3578 0 
L 2900 0 
L 1881 1375 
L 863 0 
L 184 0 
L 1544 1831 
L 300 3500 
L 978 3500 
L 1906 2253 
L 2834 3500 
L 3513 3500 
z
" transform="scale(0.015625)"/>
       </defs>
       <use xlink:href="#DejaVuSans-6d"/>
       <use xlink:href="#DejaVuSans-61" transform="translate(97.412109 0)"/>
       <use xlink:href="#DejaVuSans-78" transform="translate(158.691406 0)"/>
      </g>
     </g>
    </g>
   </g>
   <g id="matplotlib.axis_2">
    <g id="ytick_1">
     <g id="line2d_7">
      <path d="M 40.603125 233.336 
L 237.233125 233.336 
" clip-path="url(#pe0fdae2dc0)" style="fill: none; stroke: #b0b0b0; stroke-opacity: 0.3; stroke-width: 0.8; stroke-linecap: square"/>
     </g>
     <g id="line2d_8">
      <defs>
       <path id="m6b2156cfdd" d="M 0 0 
L -3.5 0 
" style="stroke: #000000; stroke-width: 0.8"/>
      </defs>
      <g>
       <use xlink:href="#m6b2156cfdd" x="40.603125" y="233.336" style="stroke: #000000; stroke-width: 0.8"/>
      </g>
     </g>
     <g id="text_4">
      <!-- 0 -->
      <g transform="translate(27.240625 237.135219) scale(0.1 -0.1)">
       <defs>
        <path id="DejaVuSans-30" d="M 2034 4250 
Q 1547 4250 1301 3770 
Q 1056 3291 1056 2328 
Q 1056 1369 1301 889 
Q 1547 409 2034 409 
Q 2525 409 2770 889 
Q 3016 1369 3016 2328 
Q 3016 3291 2770 3770 
Q 2525 4250 2034 4250 
z
M 2034 4750 
Q 2819 4750 3233 4129 
Q 3647 3509 3647 2328 
Q 3647 1150 3233 529 
Q 2819 -91 2034 -91 
Q 1250 -91 836 529 
Q 422 1150 422 2328 
Q 422 3509 836 4129 
Q 1250 4750 2034 4750 
z
" transform="scale(0.015625)"/>
       </defs>
       <use xlink:href="#DejaVuSans-30"/>
      </g>
     </g>
    </g>
    <g id="ytick_2">
     <g id="line2d_9">
      <path d="M 40.603125 206.38171 
L 237.233125 206.38171 
" clip-path="url(#pe0fdae2dc0)" style="fill: none; stroke: #b0b0b0; stroke-opacity: 0.3; stroke-width: 0.8; stroke-linecap: square"/>
     </g>
     <g id="line2d_10">
      <g>
       <use xlink:href="#m6b2156cfdd" x="40.603125" y="206.38171" style="stroke: #000000; stroke-width: 0.8"/>
      </g>
     </g>
     <g id="text_5">
      <!-- 5 -->
      <g transform="translate(27.240625 210.180928) scale(0.1 -0.1)">
       <use xlink:href="#DejaVuSans-35"/>
      </g>
     </g>
    </g>
    <g id="ytick_3">
     <g id="line2d_11">
      <path d="M 40.603125 179.427419 
L 237.233125 179.427419 
" clip-path="url(#pe0fdae2dc0)" style="fill: none; stroke: #b0b0b0; stroke-opacity: 0.3; stroke-width: 0.8; stroke-linecap: square"/>
     </g>
     <g id="line2d_12">
      <g>
       <use xlink:href="#m6b2156cfdd" x="40.603125" y="179.427419" style="stroke: #000000; stroke-width: 0.8"/>
      </g>
     </g>
     <g id="text_6">
      <!-- 10 -->
      <g transform="translate(20.878125 183.226638) scale(0.1 -0.1)">
       <defs>
        <path id="DejaVuSans-31" d="M 794 531 
L 1825 531 
L 1825 4091 
L 703 3866 
L 703 4441 
L 1819 4666 
L 2450 4666 
L 2450 531 
L 3481 531 
L 3481 0 
L 794 0 
L 794 531 
z
" transform="scale(0.015625)"/>
       </defs>
       <use xlink:href="#DejaVuSans-31"/>
       <use xlink:href="#DejaVuSans-30" transform="translate(63.623047 0)"/>
      </g>
     </g>
    </g>
    <g id="ytick_4">
     <g id="line2d_13">
      <path d="M 40.603125 152.473129 
L 237.233125 152.473129 
" clip-path="url(#pe0fdae2dc0)" style="fill: none; stroke: #b0b0b0; stroke-opacity: 0.3; stroke-width: 0.8; stroke-linecap: square"/>
     </g>
     <g id="line2d_14">
      <g>
       <use xlink:href="#m6b2156cfdd" x="40.603125" y="152.473129" style="stroke: #000000; stroke-width: 0.8"/>
      </g>
     </g>
     <g id="text_7">
      <!-- 15 -->
      <g transform="translate(20.878125 156.272347) scale(0.1 -0.1)">
       <use xlink:href="#DejaVuSans-31"/>
       <use xlink:href="#DejaVuSans-35" transform="translate(63.623047 0)"/>
      </g>
     </g>
    </g>
    <g id="ytick_5">
     <g id="line2d_15">
      <path d="M 40.603125 125.518838 
L 237.233125 125.518838 
" clip-path="url(#pe0fdae2dc0)" style="fill: none; stroke: #b0b0b0; stroke-opacity: 0.3; stroke-width: 0.8; stroke-linecap: square"/>
     </g>
     <g id="line2d_16">
      <g>
       <use xlink:href="#m6b2156cfdd" x="40.603125" y="125.518838" style="stroke: #000000; stroke-width: 0.8"/>
      </g>
     </g>
     <g id="text_8">
      <!-- 20 -->
      <g transform="translate(20.878125 129.318057) scale(0.1 -0.1)">
       <defs>
        <path id="DejaVuSans-32" d="M 1228 531 
L 3431 531 
L 3431 0 
L 469 0 
L 469 531 
Q 828 903 1448 1529 
Q 2069 2156 2228 2338 
Q 2531 2678 2651 2914 
Q 2772 3150 2772 3378 
Q 2772 3750 2511 3984 
Q 2250 4219 1831 4219 
Q 1534 4219 1204 4116 
Q 875 4013 500 3803 
L 500 4441 
Q 881 4594 1212 4672 
Q 1544 4750 1819 4750 
Q 2544 4750 2975 4387 
Q 3406 4025 3406 3419 
Q 3406 3131 3298 2873 
Q 3191 2616 2906 2266 
Q 2828 2175 2409 1742 
Q 1991 1309 1228 531 
z
" transform="scale(0.015625)"/>
       </defs>
       <use xlink:href="#DejaVuSans-32"/>
       <use xlink:href="#DejaVuSans-30" transform="translate(63.623047 0)"/>
      </g>
     </g>
    </g>
    <g id="ytick_6">
     <g id="line2d_17">
      <path d="M 40.603125 98.564548 
L 237.233125 98.564548 
" clip-path="url(#pe0fdae2dc0)" style="fill: none; stroke: #b0b0b0; stroke-opacity: 0.3; stroke-width: 0.8; stroke-linecap: square"/>
     </g>
     <g id="line2d_18">
      <g>
       <use xlink:href="#m6b2156cfdd" x="40.603125" y="98.564548" style="stroke: #000000; stroke-width: 0.8"/>
      </g>
     </g>
     <g id="text_9">
      <!-- 25 -->
      <g transform="translate(20.878125 102.363766) scale(0.1 -0.1)">
       <use xlink:href="#DejaVuSans-32"/>
       <use xlink:href="#DejaVuSans-35" transform="translate(63.623047 0)"/>
      </g>
     </g>
    </g>
    <g id="ytick_7">
     <g id="line2d_19">
      <path d="M 40.603125 71.610257 
L 237.233125 71.610257 
" clip-path="url(#pe0fdae2dc0)" style="fill: none; stroke: #b0b0b0; stroke-opacity: 0.3; stroke-width: 0.8; stroke-linecap: square"/>
     </g>
     <g id="line2d_20">
      <g>
       <use xlink:href="#m6b2156cfdd" x="40.603125" y="71.610257" style="stroke: #000000; stroke-width: 0.8"/>
      </g>
     </g>
     <g id="text_10">
      <!-- 30 -->
      <g transform="translate(20.878125 75.409476) scale(0.1 -0.1)">
       <defs>
        <path id="DejaVuSans-33" d="M 2597 2516 
Q 3050 2419 3304 2112 
Q 3559 1806 3559 1356 
Q 3559 666 3084 287 
Q 2609 -91 1734 -91 
Q 1441 -91 1130 -33 
Q 819 25 488 141 
L 488 750 
Q 750 597 1062 519 
Q 1375 441 1716 441 
Q 2309 441 2620 675 
Q 2931 909 2931 1356 
Q 2931 1769 2642 2001 
Q 2353 2234 1838 2234 
L 1294 2234 
L 1294 2753 
L 1863 2753 
Q 2328 2753 2575 2939 
Q 2822 3125 2822 3475 
Q 2822 3834 2567 4026 
Q 2313 4219 1838 4219 
Q 1578 4219 1281 4162 
Q 984 4106 628 3988 
L 628 4550 
Q 988 4650 1302 4700 
Q 1616 4750 1894 4750 
Q 2613 4750 3031 4423 
Q 3450 4097 3450 3541 
Q 3450 3153 3228 2886 
Q 3006 2619 2597 2516 
z
" transform="scale(0.015625)"/>
       </defs>
       <use xlink:href="#DejaVuSans-33"/>
       <use xlink:href="#DejaVuSans-30" transform="translate(63.623047 0)"/>
      </g>
     </g>
    </g>
    <g id="text_11">
     <!-- ms -->
     <g transform="translate(14.798438 150.471) rotate(-90) scale(0.1 -0.1)">
      <defs>
       <path id="DejaVuSans-73" d="M 2834 3397 
L 2834 2853 
Q 2591 2978 2328 3040 
Q 2066 3103 1784 3103 
Q 1356 3103 1142 2972 
Q 928 2841 928 2578 
Q 928 2378 1081 2264 
Q 1234 2150 1697 2047 
L 1894 2003 
Q 2506 1872 2764 1633 
Q 3022 1394 3022 966 
Q 3022 478 2636 193 
Q 2250 -91 1575 -91 
Q 1294 -91 989 -36 
Q 684 19 347 128 
L 347 722 
Q 666 556 975 473 
Q 1284 391 1588 391 
Q 1994 391 2212 530 
Q 2431 669 2431 922 
Q 2431 1156 2273 1281 
Q 2116 1406 1581 1522 
L 1381 1569 
Q 847 1681 609 1914 
Q 372 2147 372 2553 
Q 372 3047 722 3315 
Q 1072 3584 1716 3584 
Q 2034 3584 2315 3537 
Q 2597 3491 2834 3397 
z
" transform="scale(0.015625)"/>
      </defs>
      <use xlink:href="#DejaVuSans-6d"/>
      <use xlink:href="#DejaVuSans-73" transform="translate(97.412109 0)"/>
     </g>
    </g>
   </g>
   <g id="line2d_21">
    <path d="M 40.603125 206.38171 
L 237.233125 206.38171 
" clip-path="url(#pe0fdae2dc0)" style="fill: none; stroke-dasharray: 5.55,2.4; stroke-dashoffset: 0; stroke: #666666; stroke-width: 1.5"/>
   </g>
   <g id="patch_12">
    <path d="M 40.603125 233.336 
L 40.603125 52.656 
" style="fill: none; stroke: #000000; stroke-width: 0.8; stroke-linejoin: miter; stroke-linecap: square"/>
   </g>
   <g id="patch_13">
    <path d="M 237.233125 233.336 
L 237.233125 52.656 
" style="fill: none; stroke: #000000; stroke-width: 0.8; stroke-linejoin: miter; stroke-linecap: square"/>
   </g>
   <g id="patch_14">
    <path d="M 40.603125 233.336 
L 237.233125 233.336 
" style="fill: none; stroke: #000000; stroke-width: 0.8; stroke-linejoin: miter; stroke-linecap: square"/>
   </g>
   <g id="patch_15">
    <path d="M 40.603125 52.656 
L 237.233125 52.656 
" style="fill: none; stroke: #000000; stroke-width: 0.8; stroke-linejoin: miter; stroke-linecap: square"/>
   </g>
   <g id="text_12">
    <!-- feedback_age -->
    <g transform="translate(97.175937 46.656) scale(0.12 -0.12)">
     <defs>
      <path id="DejaVuSans-66" d="M 2375 4863 
L 2375 4384 
L 1825 4384 
Q 1516 4384 1395 4259 
Q 1275 4134 1275 3809 
L 1275 3500 
L 2222 3500 
L 2222 3053 
L 1275 3053 
L 1275 0 
L 697 0 
L 697 3053 
L 147 3053 
L 147 3500 
L 697 3500 
L 697 3744 
Q 697 4328 969 4595 
Q 1241 4863 1831 4863 
L 2375 4863 
z
" transform="scale(0.015625)"/>
      <path id="DejaVuSans-64" d="M 2906 2969 
L 2906 4863 
L 3481 4863 
L 3481 0 
L 2906 0 
L 2906 525 
Q 2725 213 2448 61 
Q 2172 -91 1784 -91 
Q 1150 -91 751 415 
Q 353 922 353 1747 
Q 353 2572 751 3078 
Q 1150 3584 1784 3584 
Q 2172 3584 2448 3432 
Q 2725 3281 2906 2969 
z
M 947 1747 
Q 947 1113 1208 752 
Q 1469 391 1925 391 
Q 2381 391 2643 752 
Q 2906 1113 2906 1747 
Q 2906 2381 2643 2742 
Q 2381 3103 1925 3103 
Q 1469 3103 1208 2742 
Q 947 2381 947 1747 
z
" transform="scale(0.015625)"/>
      <path id="DejaVuSans-62" d="M 3116 1747 
Q 3116 2381 2855 2742 
Q 2594 3103 2138 3103 
Q 1681 3103 1420 2742 
Q 1159 2381 1159 1747 
Q 1159 1113 1420 752 
Q 1681 391 2138 391 
Q 2594 391 2855 752 
Q 3116 1113 3116 1747 
z
M 1159 2969 
Q 1341 3281 1617 3432 
Q 1894 3584 2278 3584 
Q 2916 3584 3314 3078 
Q 3713 2572 3713 1747 
Q 3713 922 3314 415 
Q 2916 -91 2278 -91 
Q 1894 -91 1617 61 
Q 1341 213 1159 525 
L 1159 0 
L 581 0 
L 581 4863 
L 1159 4863 
L 1159 2969 
z
" transform="scale(0.015625)"/>
      <path id="DejaVuSans-63" d="M 3122 3366 
L 3122 2828 
Q 2878 2963 2633 3030 
Q 2388 3097 2138 3097 
Q 1578 3097 1268 2742 
Q 959 2388 959 1747 
Q 959 1106 1268 751 
Q 1578 397 2138 397 
Q 2388 397 2633 464 
Q 2878 531 3122 666 
L 3122 134 
Q 2881 22 2623 -34 
Q 2366 -91 2075 -91 
Q 1284 -91 818 406 
Q 353 903 353 1747 
Q 353 2603 823 3093 
Q 1294 3584 2113 3584 
Q 2378 3584 2631 3529 
Q 2884 3475 3122 3366 
z
" transform="scale(0.015625)"/>
      <path id="DejaVuSans-6b" d="M 581 4863 
L 1159 4863 
L 1159 1991 
L 2875 3500 
L 3609 3500 
L 1753 1863 
L 3688 0 
L 2938 0 
L 1159 1709 
L 1159 0 
L 581 0 
L 581 4863 
z
" transform="scale(0.015625)"/>
      <path id="DejaVuSans-5f" d="M 3263 -1063 
L 3263 -1509 
L -63 -1509 
L -63 -1063 
L 3263 -1063 
z
" transform="scale(0.015625)"/>
      <path id="DejaVuSans-67" d="M 2906 1791 
Q 2906 2416 2648 2759 
Q 2391 3103 1925 3103 
Q 1463 3103 1205 2759 
Q 947 2416 947 1791 
Q 947 1169 1205 825 
Q 1463 481 1925 481 
Q 2391 481 2648 825 
Q 2906 1169 2906 1791 
z
M 3481 434 
Q 3481 -459 3084 -895 
Q 2688 -1331 1869 -1331 
Q 1566 -1331 1297 -1286 
Q 1028 -1241 775 -1147 
L 775 -588 
Q 1028 -725 1275 -790 
Q 1522 -856 1778 -856 
Q 2344 -856 2625 -561 
Q 2906 -266 2906 331 
L 2906 616 
Q 2728 306 2450 153 
Q 2172 0 1784 0 
Q 1141 0 747 490 
Q 353 981 353 1791 
Q 353 2603 747 3093 
Q 1141 3584 1784 3584 
Q 2172 3584 2450 3431 
Q 2728 3278 2906 2969 
L 2906 3500 
L 3481 3500 
L 3481 434 
z
" transform="scale(0.015625)"/>
     </defs>
     <use xlink:href="#DejaVuSans-66"/>
     <use xlink:href="#DejaVuSans-65" transform="translate(35.205078 0)"/>
     <use xlink:href="#DejaVuSans-65" transform="translate(96.728516 0)"/>
     <use xlink:href="#DejaVuSans-64" transform="translate(158.251953 0)"/>
     <use xlink:href="#DejaVuSans-62" transform="translate(221.728516 0)"/>
     <use xlink:href="#DejaVuSans-61" transform="translate(285.205078 0)"/>
     <use xlink:href="#DejaVuSans-63" transform="translate(346.484375 0)"/>
     <use xlink:href="#DejaVuSans-6b" transform="translate(401.464844 0)"/>
     <use xlink:href="#DejaVuSans-5f" transform="translate(459.375 0)"/>
     <use xlink:href="#DejaVuSans-61" transform="translate(509.375 0)"/>
     <use xlink:href="#DejaVuSans-67" transform="translate(570.654297 0)"/>
     <use xlink:href="#DejaVuSans-65" transform="translate(634.130859 0)"/>
    </g>
   </g>
   <g id="legend_1">
    <g id="patch_16">
     <path d="M 46.203125 94.2835 
L 108.661875 94.2835 
Q 110.261875 94.2835 110.261875 92.6835 
L 110.261875 58.256 
Q 110.261875 56.656 108.661875 56.656 
L 46.203125 56.656 
Q 44.603125 56.656 44.603125 58.256 
L 44.603125 92.6835 
Q 44.603125 94.2835 46.203125 94.2835 
z
" style="fill: #ffffff; opacity: 0.8; stroke: #cccccc; stroke-linejoin: miter"/>
    </g>
    <g id="patch_17">
     <path d="M 47.803125 65.93475 
L 63.803125 65.93475 
L 63.803125 60.33475 
L 47.803125 60.33475 
z
" style="fill: #1f77b4"/>
    </g>
    <g id="text_13">
     <!-- 202437 -->
     <g transform="translate(70.203125 65.93475) scale(0.08 -0.08)">
      <defs>
       <path id="DejaVuSans-34" d="M 2419 4116 
L 825 1625 
L 2419 1625 
L 2419 4116 
z
M 2253 4666 
L 3047 4666 
L 3047 1625 
L 3713 1625 
L 3713 1100 
L 3047 1100 
L 3047 0 
L 2419 0 
L 2419 1100 
L 313 1100 
L 313 1709 
L 2253 4666 
z
" transform="scale(0.015625)"/>
       <path id="DejaVuSans-37" d="M 525 4666 
L 3525 4666 
L 3525 4397 
L 1831 0 
L 1172 0 
L 2766 4134 
L 525 4134 
L 525 4666 
z
" transform="scale(0.015625)"/>
      </defs>
      <use xlink:href="#DejaVuSans-32"/>
      <use xlink:href="#DejaVuSans-30" transform="translate(63.623047 0)"/>
      <use xlink:href="#DejaVuSans-32" transform="translate(127.246094 0)"/>
      <use xlink:href="#DejaVuSans-34" transform="translate(190.869141 0)"/>
      <use xlink:href="#DejaVuSans-33" transform="translate(254.492188 0)"/>
      <use xlink:href="#DejaVuSans-37" transform="translate(318.115234 0)"/>
     </g>
    </g>
    <g id="patch_18">
     <path d="M 47.803125 77.67725 
L 63.803125 77.67725 
L 63.803125 72.07725 
L 47.803125 72.07725 
z
" style="fill: #ff7f0e"/>
    </g>
    <g id="text_14">
     <!-- 200549 -->
     <g transform="translate(70.203125 77.67725) scale(0.08 -0.08)">
      <use xlink:href="#DejaVuSans-32"/>
      <use xlink:href="#DejaVuSans-30" transform="translate(63.623047 0)"/>
      <use xlink:href="#DejaVuSans-30" transform="translate(127.246094 0)"/>
      <use xlink:href="#DejaVuSans-35" transform="translate(190.869141 0)"/>
      <use xlink:href="#DejaVuSans-34" transform="translate(254.492188 0)"/>
      <use xlink:href="#DejaVuSans-39" transform="translate(318.115234 0)"/>
     </g>
    </g>
    <g id="patch_19">
     <path d="M 47.803125 89.41975 
L 63.803125 89.41975 
L 63.803125 83.81975 
L 47.803125 83.81975 
z
" style="fill: #2ca02c"/>
    </g>
    <g id="text_15">
     <!-- synthetic -->
     <g transform="translate(70.203125 89.41975) scale(0.08 -0.08)">
      <defs>
       <path id="DejaVuSans-79" d="M 2059 -325 
Q 1816 -950 1584 -1140 
Q 1353 -1331 966 -1331 
L 506 -1331 
L 506 -850 
L 844 -850 
Q 1081 -850 1212 -737 
Q 1344 -625 1503 -206 
L 1606 56 
L 191 3500 
L 800 3500 
L 1894 763 
L 2988 3500 
L 3597 3500 
L 2059 -325 
z
" transform="scale(0.015625)"/>
       <path id="DejaVuSans-74" d="M 1172 4494 
L 1172 3500 
L 2356 3500 
L 2356 3053 
L 1172 3053 
L 1172 1153 
Q 1172 725 1289 603 
Q 1406 481 1766 481 
L 2356 481 
L 2356 0 
L 1766 0 
Q 1100 0 847 248 
Q 594 497 594 1153 
L 594 3053 
L 172 3053 
L 172 3500 
L 594 3500 
L 594 4494 
L 1172 4494 
z
" transform="scale(0.015625)"/>
       <path id="DejaVuSans-68" d="M 3513 2113 
L 3513 0 
L 2938 0 
L 2938 2094 
Q 2938 2591 2744 2837 
Q 2550 3084 2163 3084 
Q 1697 3084 1428 2787 
Q 1159 2491 1159 1978 
L 1159 0 
L 581 0 
L 581 4863 
L 1159 4863 
L 1159 2956 
Q 1366 3272 1645 3428 
Q 1925 3584 2291 3584 
Q 2894 3584 3203 3211 
Q 3513 2838 3513 2113 
z
" transform="scale(0.015625)"/>
       <path id="DejaVuSans-69" d="M 603 3500 
L 1178 3500 
L 1178 0 
L 603 0 
L 603 3500 
z
M 603 4863 
L 1178 4863 
L 1178 4134 
L 603 4134 
L 603 4863 
z
" transform="scale(0.015625)"/>
      </defs>
      <use xlink:href="#DejaVuSans-73"/>
      <use xlink:href="#DejaVuSans-79" transform="translate(52.099609 0)"/>
      <use xlink:href="#DejaVuSans-6e" transform="translate(111.279297 0)"/>
      <use xlink:href="#DejaVuSans-74" transform="translate(174.658203 0)"/>
      <use xlink:href="#DejaVuSans-68" transform="translate(213.867188 0)"/>
      <use xlink:href="#DejaVuSans-65" transform="translate(277.246094 0)"/>
      <use xlink:href="#DejaVuSans-74" transform="translate(338.769531 0)"/>
      <use xlink:href="#DejaVuSans-69" transform="translate(377.978516 0)"/>
      <use xlink:href="#DejaVuSans-63" transform="translate(405.761719 0)"/>
     </g>
    </g>
   </g>
  </g>
  <g id="axes_2">
   <g id="patch_20">
    <path d="M 281.803125 233.336 
L 478.433125 233.336 
L 478.433125 52.656 
L 281.803125 52.656 
z
" style="fill: #ffffff"/>
   </g>
   <g id="patch_21">
    <path d="M 290.740852 233.336 
L 306.991265 233.336 
L 306.991265 218.849251 
L 290.740852 218.849251 
z
" clip-path="url(#pc6c0bb7350)" style="fill: #1f77b4"/>
   </g>
   <g id="patch_22">
    <path d="M 355.742505 233.336 
L 371.992918 233.336 
L 371.992918 199.414834 
L 355.742505 199.414834 
z
" clip-path="url(#pc6c0bb7350)" style="fill: #1f77b4"/>
   </g>
   <g id="patch_23">
    <path d="M 420.744158 233.336 
L 436.994571 233.336 
L 436.994571 192.694321 
L 420.744158 192.694321 
z
" clip-path="url(#pc6c0bb7350)" style="fill: #1f77b4"/>
   </g>
   <g id="patch_24">
    <path d="M 306.991265 233.336 
L 323.241679 233.336 
L 323.241679 219.716963 
L 306.991265 219.716963 
z
" clip-path="url(#pc6c0bb7350)" style="fill: #ff7f0e"/>
   </g>
   <g id="patch_25">
    <path d="M 371.992918 233.336 
L 388.243332 233.336 
L 388.243332 202.167676 
L 371.992918 202.167676 
z
" clip-path="url(#pc6c0bb7350)" style="fill: #ff7f0e"/>
   </g>
   <g id="patch_26">
    <path d="M 436.994571 233.336 
L 453.244985 233.336 
L 453.244985 61.25981 
L 436.994571 61.25981 
z
" clip-path="url(#pc6c0bb7350)" style="fill: #ff7f0e"/>
   </g>
   <g id="patch_27">
    <path d="M 323.241679 233.336 
L 339.492092 233.336 
L 339.492092 217.807434 
L 323.241679 217.807434 
z
" clip-path="url(#pc6c0bb7350)" style="fill: #2ca02c"/>
   </g>
   <g id="patch_28">
    <path d="M 388.243332 233.336 
L 404.493745 233.336 
L 404.493745 217.702512 
L 388.243332 217.702512 
z
" clip-path="url(#pc6c0bb7350)" style="fill: #2ca02c"/>
   </g>
   <g id="patch_29">
    <path d="M 453.244985 233.336 
L 469.495398 233.336 
L 469.495398 217.702512 
L 453.244985 217.702512 
z
" clip-path="url(#pc6c0bb7350)" style="fill: #2ca02c"/>
   </g>
   <g id="matplotlib.axis_3">
    <g id="xtick_4">
     <g id="line2d_22">
      <path d="M 315.116472 233.336 
L 315.116472 52.656 
" clip-path="url(#pc6c0bb7350)" style="fill: none; stroke: #b0b0b0; stroke-opacity: 0.3; stroke-width: 0.8; stroke-linecap: square"/>
     </g>
     <g id="line2d_23">
      <g>
       <use xlink:href="#m971d22cf2c" x="315.116472" y="233.336" style="stroke: #000000; stroke-width: 0.8"/>
      </g>
     </g>
     <g id="text_16">
      <!-- mean -->
      <g transform="translate(300.936785 247.934437) scale(0.1 -0.1)">
       <use xlink:href="#DejaVuSans-6d"/>
       <use xlink:href="#DejaVuSans-65" transform="translate(97.412109 0)"/>
       <use xlink:href="#DejaVuSans-61" transform="translate(158.935547 0)"/>
       <use xlink:href="#DejaVuSans-6e" transform="translate(220.214844 0)"/>
      </g>
     </g>
    </g>
    <g id="xtick_5">
     <g id="line2d_24">
      <path d="M 380.118125 233.336 
L 380.118125 52.656 
" clip-path="url(#pc6c0bb7350)" style="fill: none; stroke: #b0b0b0; stroke-opacity: 0.3; stroke-width: 0.8; stroke-linecap: square"/>
     </g>
     <g id="line2d_25">
      <g>
       <use xlink:href="#m971d22cf2c" x="380.118125" y="233.336" style="stroke: #000000; stroke-width: 0.8"/>
      </g>
     </g>
     <g id="text_17">
      <!-- p95 -->
      <g transform="translate(370.581406 247.934437) scale(0.1 -0.1)">
       <use xlink:href="#DejaVuSans-70"/>
       <use xlink:href="#DejaVuSans-39" transform="translate(63.476562 0)"/>
       <use xlink:href="#DejaVuSans-35" transform="translate(127.099609 0)"/>
      </g>
     </g>
    </g>
    <g id="xtick_6">
     <g id="line2d_26">
      <path d="M 445.119778 233.336 
L 445.119778 52.656 
" clip-path="url(#pc6c0bb7350)" style="fill: none; stroke: #b0b0b0; stroke-opacity: 0.3; stroke-width: 0.8; stroke-linecap: square"/>
     </g>
     <g id="line2d_27">
      <g>
       <use xlink:href="#m971d22cf2c" x="445.119778" y="233.336" style="stroke: #000000; stroke-width: 0.8"/>
      </g>
     </g>
     <g id="text_18">
      <!-- max -->
      <g transform="translate(434.226028 247.934437) scale(0.1 -0.1)">
       <use xlink:href="#DejaVuSans-6d"/>
       <use xlink:href="#DejaVuSans-61" transform="translate(97.412109 0)"/>
       <use xlink:href="#DejaVuSans-78" transform="translate(158.691406 0)"/>
      </g>
     </g>
    </g>
   </g>
   <g id="matplotlib.axis_4">
    <g id="ytick_8">
     <g id="line2d_28">
      <path d="M 281.803125 233.336 
L 478.433125 233.336 
" clip-path="url(#pc6c0bb7350)" style="fill: none; stroke: #b0b0b0; stroke-opacity: 0.3; stroke-width: 0.8; stroke-linecap: square"/>
     </g>
     <g id="line2d_29">
      <g>
       <use xlink:href="#m6b2156cfdd" x="281.803125" y="233.336" style="stroke: #000000; stroke-width: 0.8"/>
      </g>
     </g>
     <g id="text_19">
      <!-- 0 -->
      <g transform="translate(268.440625 237.135219) scale(0.1 -0.1)">
       <use xlink:href="#DejaVuSans-30"/>
      </g>
     </g>
    </g>
    <g id="ytick_9">
     <g id="line2d_30">
      <path d="M 281.803125 206.38171 
L 478.433125 206.38171 
" clip-path="url(#pc6c0bb7350)" style="fill: none; stroke: #b0b0b0; stroke-opacity: 0.3; stroke-width: 0.8; stroke-linecap: square"/>
     </g>
     <g id="line2d_31">
      <g>
       <use xlink:href="#m6b2156cfdd" x="281.803125" y="206.38171" style="stroke: #000000; stroke-width: 0.8"/>
      </g>
     </g>
     <g id="text_20">
      <!-- 5 -->
      <g transform="translate(268.440625 210.180928) scale(0.1 -0.1)">
       <use xlink:href="#DejaVuSans-35"/>
      </g>
     </g>
    </g>
    <g id="ytick_10">
     <g id="line2d_32">
      <path d="M 281.803125 179.427419 
L 478.433125 179.427419 
" clip-path="url(#pc6c0bb7350)" style="fill: none; stroke: #b0b0b0; stroke-opacity: 0.3; stroke-width: 0.8; stroke-linecap: square"/>
     </g>
     <g id="line2d_33">
      <g>
       <use xlink:href="#m6b2156cfdd" x="281.803125" y="179.427419" style="stroke: #000000; stroke-width: 0.8"/>
      </g>
     </g>
     <g id="text_21">
      <!-- 10 -->
      <g transform="translate(262.078125 183.226638) scale(0.1 -0.1)">
       <use xlink:href="#DejaVuSans-31"/>
       <use xlink:href="#DejaVuSans-30" transform="translate(63.623047 0)"/>
      </g>
     </g>
    </g>
    <g id="ytick_11">
     <g id="line2d_34">
      <path d="M 281.803125 152.473129 
L 478.433125 152.473129 
" clip-path="url(#pc6c0bb7350)" style="fill: none; stroke: #b0b0b0; stroke-opacity: 0.3; stroke-width: 0.8; stroke-linecap: square"/>
     </g>
     <g id="line2d_35">
      <g>
       <use xlink:href="#m6b2156cfdd" x="281.803125" y="152.473129" style="stroke: #000000; stroke-width: 0.8"/>
      </g>
     </g>
     <g id="text_22">
      <!-- 15 -->
      <g transform="translate(262.078125 156.272347) scale(0.1 -0.1)">
       <use xlink:href="#DejaVuSans-31"/>
       <use xlink:href="#DejaVuSans-35" transform="translate(63.623047 0)"/>
      </g>
     </g>
    </g>
    <g id="ytick_12">
     <g id="line2d_36">
      <path d="M 281.803125 125.518838 
L 478.433125 125.518838 
" clip-path="url(#pc6c0bb7350)" style="fill: none; stroke: #b0b0b0; stroke-opacity: 0.3; stroke-width: 0.8; stroke-linecap: square"/>
     </g>
     <g id="line2d_37">
      <g>
       <use xlink:href="#m6b2156cfdd" x="281.803125" y="125.518838" style="stroke: #000000; stroke-width: 0.8"/>
      </g>
     </g>
     <g id="text_23">
      <!-- 20 -->
      <g transform="translate(262.078125 129.318057) scale(0.1 -0.1)">
       <use xlink:href="#DejaVuSans-32"/>
       <use xlink:href="#DejaVuSans-30" transform="translate(63.623047 0)"/>
      </g>
     </g>
    </g>
    <g id="ytick_13">
     <g id="line2d_38">
      <path d="M 281.803125 98.564548 
L 478.433125 98.564548 
" clip-path="url(#pc6c0bb7350)" style="fill: none; stroke: #b0b0b0; stroke-opacity: 0.3; stroke-width: 0.8; stroke-linecap: square"/>
     </g>
     <g id="line2d_39">
      <g>
       <use xlink:href="#m6b2156cfdd" x="281.803125" y="98.564548" style="stroke: #000000; stroke-width: 0.8"/>
      </g>
     </g>
     <g id="text_24">
      <!-- 25 -->
      <g transform="translate(262.078125 102.363766) scale(0.1 -0.1)">
       <use xlink:href="#DejaVuSans-32"/>
       <use xlink:href="#DejaVuSans-35" transform="translate(63.623047 0)"/>
      </g>
     </g>
    </g>
    <g id="ytick_14">
     <g id="line2d_40">
      <path d="M 281.803125 71.610257 
L 478.433125 71.610257 
" clip-path="url(#pc6c0bb7350)" style="fill: none; stroke: #b0b0b0; stroke-opacity: 0.3; stroke-width: 0.8; stroke-linecap: square"/>
     </g>
     <g id="line2d_41">
      <g>
       <use xlink:href="#m6b2156cfdd" x="281.803125" y="71.610257" style="stroke: #000000; stroke-width: 0.8"/>
      </g>
     </g>
     <g id="text_25">
      <!-- 30 -->
      <g transform="translate(262.078125 75.409476) scale(0.1 -0.1)">
       <use xlink:href="#DejaVuSans-33"/>
       <use xlink:href="#DejaVuSans-30" transform="translate(63.623047 0)"/>
      </g>
     </g>
    </g>
    <g id="text_26">
     <!-- ms -->
     <g transform="translate(255.998437 150.471) rotate(-90) scale(0.1 -0.1)">
      <use xlink:href="#DejaVuSans-6d"/>
      <use xlink:href="#DejaVuSans-73" transform="translate(97.412109 0)"/>
     </g>
    </g>
   </g>
   <g id="line2d_42">
    <path d="M 281.803125 206.38171 
L 478.433125 206.38171 
" clip-path="url(#pc6c0bb7350)" style="fill: none; stroke-dasharray: 5.55,2.4; stroke-dashoffset: 0; stroke: #666666; stroke-width: 1.5"/>
   </g>
   <g id="patch_30">
    <path d="M 281.803125 233.336 
L 281.803125 52.656 
" style="fill: none; stroke: #000000; stroke-width: 0.8; stroke-linejoin: miter; stroke-linecap: square"/>
   </g>
   <g id="patch_31">
    <path d="M 478.433125 233.336 
L 478.433125 52.656 
" style="fill: none; stroke: #000000; stroke-width: 0.8; stroke-linejoin: miter; stroke-linecap: square"/>
   </g>
   <g id="patch_32">
    <path d="M 281.803125 233.336 
L 478.433125 233.336 
" style="fill: none; stroke: #000000; stroke-width: 0.8; stroke-linejoin: miter; stroke-linecap: square"/>
   </g>
   <g id="patch_33">
    <path d="M 281.803125 52.656 
L 478.433125 52.656 
" style="fill: none; stroke: #000000; stroke-width: 0.8; stroke-linejoin: miter; stroke-linecap: square"/>
   </g>
   <g id="text_27">
    <!-- sensor_age -->
    <g transform="translate(346.056875 46.656) scale(0.12 -0.12)">
     <defs>
      <path id="DejaVuSans-6f" d="M 1959 3097 
Q 1497 3097 1228 2736 
Q 959 2375 959 1747 
Q 959 1119 1226 758 
Q 1494 397 1959 397 
Q 2419 397 2687 759 
Q 2956 1122 2956 1747 
Q 2956 2369 2687 2733 
Q 2419 3097 1959 3097 
z
M 1959 3584 
Q 2709 3584 3137 3096 
Q 3566 2609 3566 1747 
Q 3566 888 3137 398 
Q 2709 -91 1959 -91 
Q 1206 -91 779 398 
Q 353 888 353 1747 
Q 353 2609 779 3096 
Q 1206 3584 1959 3584 
z
" transform="scale(0.015625)"/>
      <path id="DejaVuSans-72" d="M 2631 2963 
Q 2534 3019 2420 3045 
Q 2306 3072 2169 3072 
Q 1681 3072 1420 2755 
Q 1159 2438 1159 1844 
L 1159 0 
L 581 0 
L 581 3500 
L 1159 3500 
L 1159 2956 
Q 1341 3275 1631 3429 
Q 1922 3584 2338 3584 
Q 2397 3584 2469 3576 
Q 2541 3569 2628 3553 
L 2631 2963 
z
" transform="scale(0.015625)"/>
     </defs>
     <use xlink:href="#DejaVuSans-73"/>
     <use xlink:href="#DejaVuSans-65" transform="translate(52.099609 0)"/>
     <use xlink:href="#DejaVuSans-6e" transform="translate(113.623047 0)"/>
     <use xlink:href="#DejaVuSans-73" transform="translate(177.001953 0)"/>
     <use xlink:href="#DejaVuSans-6f" transform="translate(229.101562 0)"/>
     <use xlink:href="#DejaVuSans-72" transform="translate(290.283203 0)"/>
     <use xlink:href="#DejaVuSans-5f" transform="translate(331.396484 0)"/>
     <use xlink:href="#DejaVuSans-61" transform="translate(381.396484 0)"/>
     <use xlink:href="#DejaVuSans-67" transform="translate(442.675781 0)"/>
     <use xlink:href="#DejaVuSans-65" transform="translate(506.152344 0)"/>
    </g>
   </g>
  </g>
  <g id="axes_3">
   <g id="patch_34">
    <path d="M 523.003125 233.336 
L 719.633125 233.336 
L 719.633125 52.656 
L 523.003125 52.656 
z
" style="fill: #ffffff"/>
   </g>
   <g id="patch_35">
    <path d="M 531.940852 233.336 
L 548.191265 233.336 
L 548.191265 208.165709 
L 531.940852 208.165709 
z
" clip-path="url(#pef98798665)" style="fill: #1f77b4"/>
   </g>
   <g id="patch_36">
    <path d="M 596.942505 233.336 
L 613.192918 233.336 
L 613.192918 204.542452 
L 596.942505 204.542452 
z
" clip-path="url(#pef98798665)" style="fill: #1f77b4"/>
   </g>
   <g id="patch_37">
    <path d="M 661.944158 233.336 
L 678.194571 233.336 
L 678.194571 172.979165 
L 661.944158 172.979165 
z
" clip-path="url(#pef98798665)" style="fill: #1f77b4"/>
   </g>
   <g id="patch_38">
    <path d="M 548.191265 233.336 
L 564.441679 233.336 
L 564.441679 208.841362 
L 548.191265 208.841362 
z
" clip-path="url(#pef98798665)" style="fill: #ff7f0e"/>
   </g>
   <g id="patch_39">
    <path d="M 613.192918 233.336 
L 629.443332 233.336 
L 629.443332 208.8194 
L 613.192918 208.8194 
z
" clip-path="url(#pef98798665)" style="fill: #ff7f0e"/>
   </g>
   <g id="patch_40">
    <path d="M 678.194571 233.336 
L 694.444985 233.336 
L 694.444985 61.25981 
L 678.194571 61.25981 
z
" clip-path="url(#pef98798665)" style="fill: #ff7f0e"/>
   </g>
   <g id="patch_41">
    <path d="M 564.441679 233.336 
L 580.692092 233.336 
L 580.692092 208.868336 
L 564.441679 208.868336 
z
" clip-path="url(#pef98798665)" style="fill: #2ca02c"/>
   </g>
   <g id="patch_42">
    <path d="M 629.443332 233.336 
L 645.693745 233.336 
L 645.693745 208.868336 
L 629.443332 208.868336 
z
" clip-path="url(#pef98798665)" style="fill: #2ca02c"/>
   </g>
   <g id="patch_43">
    <path d="M 694.444985 233.336 
L 710.695398 233.336 
L 710.695398 208.868336 
L 694.444985 208.868336 
z
" clip-path="url(#pef98798665)" style="fill: #2ca02c"/>
   </g>
   <g id="matplotlib.axis_5">
    <g id="xtick_7">
     <g id="line2d_43">
      <path d="M 556.316472 233.336 
L 556.316472 52.656 
" clip-path="url(#pef98798665)" style="fill: none; stroke: #b0b0b0; stroke-opacity: 0.3; stroke-width: 0.8; stroke-linecap: square"/>
     </g>
     <g id="line2d_44">
      <g>
       <use xlink:href="#m971d22cf2c" x="556.316472" y="233.336" style="stroke: #000000; stroke-width: 0.8"/>
      </g>
     </g>
     <g id="text_28">
      <!-- mean -->
      <g transform="translate(542.136785 247.934437) scale(0.1 -0.1)">
       <use xlink:href="#DejaVuSans-6d"/>
       <use xlink:href="#DejaVuSans-65" transform="translate(97.412109 0)"/>
       <use xlink:href="#DejaVuSans-61" transform="translate(158.935547 0)"/>
       <use xlink:href="#DejaVuSans-6e" transform="translate(220.214844 0)"/>
      </g>
     </g>
    </g>
    <g id="xtick_8">
     <g id="line2d_45">
      <path d="M 621.318125 233.336 
L 621.318125 52.656 
" clip-path="url(#pef98798665)" style="fill: none; stroke: #b0b0b0; stroke-opacity: 0.3; stroke-width: 0.8; stroke-linecap: square"/>
     </g>
     <g id="line2d_46">
      <g>
       <use xlink:href="#m971d22cf2c" x="621.318125" y="233.336" style="stroke: #000000; stroke-width: 0.8"/>
      </g>
     </g>
     <g id="text_29">
      <!-- p95 -->
      <g transform="translate(611.781406 247.934437) scale(0.1 -0.1)">
       <use xlink:href="#DejaVuSans-70"/>
       <use xlink:href="#DejaVuSans-39" transform="translate(63.476562 0)"/>
       <use xlink:href="#DejaVuSans-35" transform="translate(127.099609 0)"/>
      </g>
     </g>
    </g>
    <g id="xtick_9">
     <g id="line2d_47">
      <path d="M 686.319778 233.336 
L 686.319778 52.656 
" clip-path="url(#pef98798665)" style="fill: none; stroke: #b0b0b0; stroke-opacity: 0.3; stroke-width: 0.8; stroke-linecap: square"/>
     </g>
     <g id="line2d_48">
      <g>
       <use xlink:href="#m971d22cf2c" x="686.319778" y="233.336" style="stroke: #000000; stroke-width: 0.8"/>
      </g>
     </g>
     <g id="text_30">
      <!-- max -->
      <g transform="translate(675.426028 247.934437) scale(0.1 -0.1)">
       <use xlink:href="#DejaVuSans-6d"/>
       <use xlink:href="#DejaVuSans-61" transform="translate(97.412109 0)"/>
       <use xlink:href="#DejaVuSans-78" transform="translate(158.691406 0)"/>
      </g>
     </g>
    </g>
   </g>
   <g id="matplotlib.axis_6">
    <g id="ytick_15">
     <g id="line2d_49">
      <path d="M 523.003125 233.336 
L 719.633125 233.336 
" clip-path="url(#pef98798665)" style="fill: none; stroke: #b0b0b0; stroke-opacity: 0.3; stroke-width: 0.8; stroke-linecap: square"/>
     </g>
     <g id="line2d_50">
      <g>
       <use xlink:href="#m6b2156cfdd" x="523.003125" y="233.336" style="stroke: #000000; stroke-width: 0.8"/>
      </g>
     </g>
     <g id="text_31">
      <!-- 0 -->
      <g transform="translate(509.640625 237.135219) scale(0.1 -0.1)">
       <use xlink:href="#DejaVuSans-30"/>
      </g>
     </g>
    </g>
    <g id="ytick_16">
     <g id="line2d_51">
      <path d="M 523.003125 208.868336 
L 719.633125 208.868336 
" clip-path="url(#pef98798665)" style="fill: none; stroke: #b0b0b0; stroke-opacity: 0.3; stroke-width: 0.8; stroke-linecap: square"/>
     </g>
     <g id="line2d_52">
      <g>
       <use xlink:href="#m6b2156cfdd" x="523.003125" y="208.868336" style="stroke: #000000; stroke-width: 0.8"/>
      </g>
     </g>
     <g id="text_32">
      <!-- 5 -->
      <g transform="translate(509.640625 212.667554) scale(0.1 -0.1)">
       <use xlink:href="#DejaVuSans-35"/>
      </g>
     </g>
    </g>
    <g id="ytick_17">
     <g id="line2d_53">
      <path d="M 523.003125 184.400671 
L 719.633125 184.400671 
" clip-path="url(#pef98798665)" style="fill: none; stroke: #b0b0b0; stroke-opacity: 0.3; stroke-width: 0.8; stroke-linecap: square"/>
     </g>
     <g id="line2d_54">
      <g>
       <use xlink:href="#m6b2156cfdd" x="523.003125" y="184.400671" style="stroke: #000000; stroke-width: 0.8"/>
      </g>
     </g>
     <g id="text_33">
      <!-- 10 -->
      <g transform="translate(503.278125 188.19989) scale(0.1 -0.1)">
       <use xlink:href="#DejaVuSans-31"/>
       <use xlink:href="#DejaVuSans-30" transform="translate(63.623047 0)"/>
      </g>
     </g>
    </g>
    <g id="ytick_18">
     <g id="line2d_55">
      <path d="M 523.003125 159.933007 
L 719.633125 159.933007 
" clip-path="url(#pef98798665)" style="fill: none; stroke: #b0b0b0; stroke-opacity: 0.3; stroke-width: 0.8; stroke-linecap: square"/>
     </g>
     <g id="line2d_56">
      <g>
       <use xlink:href="#m6b2156cfdd" x="523.003125" y="159.933007" style="stroke: #000000; stroke-width: 0.8"/>
      </g>
     </g>
     <g id="text_34">
      <!-- 15 -->
      <g transform="translate(503.278125 163.732225) scale(0.1 -0.1)">
       <use xlink:href="#DejaVuSans-31"/>
       <use xlink:href="#DejaVuSans-35" transform="translate(63.623047 0)"/>
      </g>
     </g>
    </g>
    <g id="ytick_19">
     <g id="line2d_57">
      <path d="M 523.003125 135.465342 
L 719.633125 135.465342 
" clip-path="url(#pef98798665)" style="fill: none; stroke: #b0b0b0; stroke-opacity: 0.3; stroke-width: 0.8; stroke-linecap: square"/>
     </g>
     <g id="line2d_58">
      <g>
       <use xlink:href="#m6b2156cfdd" x="523.003125" y="135.465342" style="stroke: #000000; stroke-width: 0.8"/>
      </g>
     </g>
     <g id="text_35">
      <!-- 20 -->
      <g transform="translate(503.278125 139.264561) scale(0.1 -0.1)">
       <use xlink:href="#DejaVuSans-32"/>
       <use xlink:href="#DejaVuSans-30" transform="translate(63.623047 0)"/>
      </g>
     </g>
    </g>
    <g id="ytick_20">
     <g id="line2d_59">
      <path d="M 523.003125 110.997678 
L 719.633125 110.997678 
" clip-path="url(#pef98798665)" style="fill: none; stroke: #b0b0b0; stroke-opacity: 0.3; stroke-width: 0.8; stroke-linecap: square"/>
     </g>
     <g id="line2d_60">
      <g>
       <use xlink:href="#m6b2156cfdd" x="523.003125" y="110.997678" style="stroke: #000000; stroke-width: 0.8"/>
      </g>
     </g>
     <g id="text_36">
      <!-- 25 -->
      <g transform="translate(503.278125 114.796897) scale(0.1 -0.1)">
       <use xlink:href="#DejaVuSans-32"/>
       <use xlink:href="#DejaVuSans-35" transform="translate(63.623047 0)"/>
      </g>
     </g>
    </g>
    <g id="ytick_21">
     <g id="line2d_61">
      <path d="M 523.003125 86.530013 
L 719.633125 86.530013 
" clip-path="url(#pef98798665)" style="fill: none; stroke: #b0b0b0; stroke-opacity: 0.3; stroke-width: 0.8; stroke-linecap: square"/>
     </g>
     <g id="line2d_62">
      <g>
       <use xlink:href="#m6b2156cfdd" x="523.003125" y="86.530013" style="stroke: #000000; stroke-width: 0.8"/>
      </g>
     </g>
     <g id="text_37">
      <!-- 30 -->
      <g transform="translate(503.278125 90.329232) scale(0.1 -0.1)">
       <use xlink:href="#DejaVuSans-33"/>
       <use xlink:href="#DejaVuSans-30" transform="translate(63.623047 0)"/>
      </g>
     </g>
    </g>
    <g id="ytick_22">
     <g id="line2d_63">
      <path d="M 523.003125 62.062349 
L 719.633125 62.062349 
" clip-path="url(#pef98798665)" style="fill: none; stroke: #b0b0b0; stroke-opacity: 0.3; stroke-width: 0.8; stroke-linecap: square"/>
     </g>
     <g id="line2d_64">
      <g>
       <use xlink:href="#m6b2156cfdd" x="523.003125" y="62.062349" style="stroke: #000000; stroke-width: 0.8"/>
      </g>
     </g>
     <g id="text_38">
      <!-- 35 -->
      <g transform="translate(503.278125 65.861568) scale(0.1 -0.1)">
       <use xlink:href="#DejaVuSans-33"/>
       <use xlink:href="#DejaVuSans-35" transform="translate(63.623047 0)"/>
      </g>
     </g>
    </g>
    <g id="text_39">
     <!-- ms -->
     <g transform="translate(497.198437 150.471) rotate(-90) scale(0.1 -0.1)">
      <use xlink:href="#DejaVuSans-6d"/>
      <use xlink:href="#DejaVuSans-73" transform="translate(97.412109 0)"/>
     </g>
    </g>
   </g>
   <g id="line2d_65">
    <path d="M 523.003125 208.868336 
L 719.633125 208.868336 
" clip-path="url(#pef98798665)" style="fill: none; stroke-dasharray: 5.55,2.4; stroke-dashoffset: 0; stroke: #666666; stroke-width: 1.5"/>
   </g>
   <g id="patch_44">
    <path d="M 523.003125 233.336 
L 523.003125 52.656 
" style="fill: none; stroke: #000000; stroke-width: 0.8; stroke-linejoin: miter; stroke-linecap: square"/>
   </g>
   <g id="patch_45">
    <path d="M 719.633125 233.336 
L 719.633125 52.656 
" style="fill: none; stroke: #000000; stroke-width: 0.8; stroke-linejoin: miter; stroke-linecap: square"/>
   </g>
   <g id="patch_46">
    <path d="M 523.003125 233.336 
L 719.633125 233.336 
" style="fill: none; stroke: #000000; stroke-width: 0.8; stroke-linejoin: miter; stroke-linecap: square"/>
   </g>
   <g id="patch_47">
    <path d="M 523.003125 52.656 
L 719.633125 52.656 
" style="fill: none; stroke: #000000; stroke-width: 0.8; stroke-linejoin: miter; stroke-linecap: square"/>
   </g>
   <g id="text_40">
    <!-- dt_actual -->
    <g transform="translate(593.6825 46.656) scale(0.12 -0.12)">
     <defs>
      <path id="DejaVuSans-75" d="M 544 1381 
L 544 3500 
L 1119 3500 
L 1119 1403 
Q 1119 906 1312 657 
Q 1506 409 1894 409 
Q 2359 409 2629 706 
Q 2900 1003 2900 1516 
L 2900 3500 
L 3475 3500 
L 3475 0 
L 2900 0 
L 2900 538 
Q 2691 219 2414 64 
Q 2138 -91 1772 -91 
Q 1169 -91 856 284 
Q 544 659 544 1381 
z
M 1991 3584 
L 1991 3584 
z
" transform="scale(0.015625)"/>
      <path id="DejaVuSans-6c" d="M 603 4863 
L 1178 4863 
L 1178 0 
L 603 0 
L 603 4863 
z
" transform="scale(0.015625)"/>
     </defs>
     <use xlink:href="#DejaVuSans-64"/>
     <use xlink:href="#DejaVuSans-74" transform="translate(63.476562 0)"/>
     <use xlink:href="#DejaVuSans-5f" transform="translate(102.685547 0)"/>
     <use xlink:href="#DejaVuSans-61" transform="translate(152.685547 0)"/>
     <use xlink:href="#DejaVuSans-63" transform="translate(213.964844 0)"/>
     <use xlink:href="#DejaVuSans-74" transform="translate(268.945312 0)"/>
     <use xlink:href="#DejaVuSans-75" transform="translate(308.154297 0)"/>
     <use xlink:href="#DejaVuSans-61" transform="translate(371.533203 0)"/>
     <use xlink:href="#DejaVuSans-6c" transform="translate(432.8125 0)"/>
    </g>
   </g>
  </g>
  <g id="text_41">
   <!-- S03 state-stream jitter · three campaigns -->
   <g transform="translate(239.185 16.318125) scale(0.12 -0.12)">
    <defs>
     <path id="DejaVuSans-53" d="M 3425 4513 
L 3425 3897 
Q 3066 4069 2747 4153 
Q 2428 4238 2131 4238 
Q 1616 4238 1336 4038 
Q 1056 3838 1056 3469 
Q 1056 3159 1242 3001 
Q 1428 2844 1947 2747 
L 2328 2669 
Q 3034 2534 3370 2195 
Q 3706 1856 3706 1288 
Q 3706 609 3251 259 
Q 2797 -91 1919 -91 
Q 1588 -91 1214 -16 
Q 841 59 441 206 
L 441 856 
Q 825 641 1194 531 
Q 1563 422 1919 422 
Q 2459 422 2753 634 
Q 3047 847 3047 1241 
Q 3047 1584 2836 1778 
Q 2625 1972 2144 2069 
L 1759 2144 
Q 1053 2284 737 2584 
Q 422 2884 422 3419 
Q 422 4038 858 4394 
Q 1294 4750 2059 4750 
Q 2388 4750 2728 4690 
Q 3069 4631 3425 4513 
z
" transform="scale(0.015625)"/>
     <path id="DejaVuSans-20" transform="scale(0.015625)"/>
     <path id="DejaVuSans-2d" d="M 313 2009 
L 1997 2009 
L 1997 1497 
L 313 1497 
L 313 2009 
z
" transform="scale(0.015625)"/>
     <path id="DejaVuSans-6a" d="M 603 3500 
L 1178 3500 
L 1178 -63 
Q 1178 -731 923 -1031 
Q 669 -1331 103 -1331 
L -116 -1331 
L -116 -844 
L 38 -844 
Q 366 -844 484 -692 
Q 603 -541 603 -63 
L 603 3500 
z
M 603 4863 
L 1178 4863 
L 1178 4134 
L 603 4134 
L 603 4863 
z
" transform="scale(0.015625)"/>
     <path id="DejaVuSans-b7" d="M 684 2619 
L 1344 2619 
L 1344 1825 
L 684 1825 
L 684 2619 
z
" transform="scale(0.015625)"/>
    </defs>
    <use xlink:href="#DejaVuSans-53"/>
    <use xlink:href="#DejaVuSans-30" transform="translate(63.476562 0)"/>
    <use xlink:href="#DejaVuSans-33" transform="translate(127.099609 0)"/>
    <use xlink:href="#DejaVuSans-20" transform="translate(190.722656 0)"/>
    <use xlink:href="#DejaVuSans-73" transform="translate(222.509766 0)"/>
    <use xlink:href="#DejaVuSans-74" transform="translate(274.609375 0)"/>
    <use xlink:href="#DejaVuSans-61" transform="translate(313.818359 0)"/>
    <use xlink:href="#DejaVuSans-74" transform="translate(375.097656 0)"/>
    <use xlink:href="#DejaVuSans-65" transform="translate(414.306641 0)"/>
    <use xlink:href="#DejaVuSans-2d" transform="translate(475.830078 0)"/>
    <use xlink:href="#DejaVuSans-73" transform="translate(511.914062 0)"/>
    <use xlink:href="#DejaVuSans-74" transform="translate(564.013672 0)"/>
    <use xlink:href="#DejaVuSans-72" transform="translate(603.222656 0)"/>
    <use xlink:href="#DejaVuSans-65" transform="translate(642.085938 0)"/>
    <use xlink:href="#DejaVuSans-61" transform="translate(703.609375 0)"/>
    <use xlink:href="#DejaVuSans-6d" transform="translate(764.888672 0)"/>
    <use xlink:href="#DejaVuSans-20" transform="translate(862.300781 0)"/>
    <use xlink:href="#DejaVuSans-6a" transform="translate(894.087891 0)"/>
    <use xlink:href="#DejaVuSans-69" transform="translate(921.871094 0)"/>
    <use xlink:href="#DejaVuSans-74" transform="translate(949.654297 0)"/>
    <use xlink:href="#DejaVuSans-74" transform="translate(988.863281 0)"/>
    <use xlink:href="#DejaVuSans-65" transform="translate(1028.072266 0)"/>
    <use xlink:href="#DejaVuSans-72" transform="translate(1089.595703 0)"/>
    <use xlink:href="#DejaVuSans-20" transform="translate(1130.708984 0)"/>
    <use xlink:href="#DejaVuSans-b7" transform="translate(1162.496094 0)"/>
    <use xlink:href="#DejaVuSans-20" transform="translate(1194.283203 0)"/>
    <use xlink:href="#DejaVuSans-74" transform="translate(1226.070312 0)"/>
    <use xlink:href="#DejaVuSans-68" transform="translate(1265.279297 0)"/>
    <use xlink:href="#DejaVuSans-72" transform="translate(1328.658203 0)"/>
    <use xlink:href="#DejaVuSans-65" transform="translate(1367.521484 0)"/>
    <use xlink:href="#DejaVuSans-65" transform="translate(1429.044922 0)"/>
    <use xlink:href="#DejaVuSans-20" transform="translate(1490.568359 0)"/>
    <use xlink:href="#DejaVuSans-63" transform="translate(1522.355469 0)"/>
    <use xlink:href="#DejaVuSans-61" transform="translate(1577.335938 0)"/>
    <use xlink:href="#DejaVuSans-6d" transform="translate(1638.615234 0)"/>
    <use xlink:href="#DejaVuSans-70" transform="translate(1736.027344 0)"/>
    <use xlink:href="#DejaVuSans-61" transform="translate(1799.503906 0)"/>
    <use xlink:href="#DejaVuSans-69" transform="translate(1860.783203 0)"/>
    <use xlink:href="#DejaVuSans-67" transform="translate(1888.566406 0)"/>
    <use xlink:href="#DejaVuSans-6e" transform="translate(1952.042969 0)"/>
    <use xlink:href="#DejaVuSans-73" transform="translate(2015.421875 0)"/>
   </g>
  </g>
 </g>
 <defs>
  <clipPath id="pe0fdae2dc0">
   <rect x="40.603125" y="52.656" width="196.63" height="180.68"/>
  </clipPath>
  <clipPath id="pc6c0bb7350">
   <rect x="281.803125" y="52.656" width="196.63" height="180.68"/>
  </clipPath>
  <clipPath id="pef98798665">
   <rect x="523.003125" y="52.656" width="196.63" height="180.68"/>
  </clipPath>
 </defs>
</svg>
