# vessel centerlines; each l statement is one named branch
o L_COM_FEM_V
v 0.028140 -0.343835 0.015523
v 0.034813 -0.384571 0.019263
v 0.037057 -0.396174 0.018568
v 0.041740 -0.420501 0.017434
v 0.046208 -0.441639 0.014161
v 0.050814 -0.462426 0.009991
v 0.055374 -0.483138 0.005535
v 0.057709 -0.493276 0.002972
v 0.063632 -0.522908 -0.002438
l 1 2 3 4 5 6 7 8 9
o L_SUPFEMV
v 0.063632 -0.522908 -0.002438
v 0.072009 -0.569484 -0.006611
v 0.074801 -0.582653 -0.007081
v 0.080418 -0.610684 -0.008346
v 0.086152 -0.635718 -0.008745
v 0.092420 -0.663254 -0.010134
v 0.097968 -0.691161 -0.012932
v 0.102958 -0.718875 -0.017368
v 0.107233 -0.743774 -0.022830
v 0.110417 -0.769984 -0.031319
v 0.111891 -0.782961 -0.035530
v 0.115847 -0.822798 -0.052309
l 10 11 12 13 14 15 16 17 18 19 20 21
o L_SAPH_V
v 0.063632 -0.522908 -0.002438
v 0.082607 -0.545572 -0.005599
v 0.085121 -0.550856 -0.005925
v 0.087218 -0.555493 -0.006185
v 0.092723 -0.565125 -0.006976
v 0.096654 -0.578652 -0.007432
v 0.098527 -0.583830 -0.007644
v 0.100669 -0.590036 -0.007897
v 0.110039 -0.636441 -0.009053
l 22 23 24 25 26 27 28 29 30
o L_DEEP_FEM_V
v 0.080446 -0.631449 -0.006595
v 0.081621 -0.556602 -0.007918
v 0.082528 -0.550862 -0.008377
v 0.083973 -0.546619 -0.009109
v 0.085857 -0.530517 -0.010672
v 0.087920 -0.526412 -0.012282
v 0.091051 -0.522888 -0.013959
v 0.093605 -0.518604 -0.017809
v 0.095060 -0.517776 -0.019257
v 0.096659 -0.516899 -0.020973
v 0.099824 -0.509411 -0.035243
l 31 32 33 34 35 36 37 38 39 40 41
o L_POPV
v 0.115847 -0.822798 -0.052309
v 0.115657 -0.836360 -0.056072
v 0.114129 -0.854868 -0.061747
v 0.112504 -0.870503 -0.066628
v 0.111260 -0.878323 -0.069336
l 42 43 44 45 46
o L_POST_TIB_V
v 0.111260 -0.878323 -0.069336
v 0.101637 -0.973536 -0.076129
v 0.095279 -1.035592 -0.078751
v 0.092860 -1.063700 -0.077601
v 0.090831 -1.090223 -0.078657
v 0.090076 -1.115380 -0.080748
v 0.089918 -1.145886 -0.084337
v 0.087690 -1.175559 -0.088756
v 0.082547 -1.210213 -0.091942
v 0.074491 -1.243922 -0.093034
v 0.082762 -1.269343 -0.095701
v 0.084143 -1.289927 -0.063189
v 0.100354 -1.321766 0.031428
l 47 48 49 50 51 52 53 54 55 56 57 58 59
o L_PERONEAL_V
v 0.111260 -0.878323 -0.069336
v 0.113321 -0.912483 -0.075721
v 0.121259 -0.947400 -0.079712
v 0.128301 -0.994230 -0.081483
v 0.130801 -1.041792 -0.083116
v 0.121529 -1.096855 -0.086146
v 0.111084 -1.178159 -0.085255
v 0.101928 -1.290688 -0.078583
v 0.109524 -1.309515 -0.033378
v 0.120367 -1.328022 0.022658
v 0.118047 -1.347992 0.131925
l 60 61 62 63 64 65 66 67 68 69 70
o R_COM_FEM_V
v -0.035246 -0.354180 0.014183
v -0.039728 -0.394677 0.019231
v -0.041513 -0.406427 0.019153
v -0.045074 -0.430799 0.018994
v -0.048636 -0.451889 0.016396
v -0.052365 -0.472104 0.012827
v -0.055933 -0.492173 0.008324
v -0.057753 -0.501861 0.005694
v -0.061919 -0.529823 -0.001510
l 71 72 73 74 75 76 77 78 79
o R_SUPFEMV
v -0.061919 -0.529823 -0.001510
v -0.068367 -0.574554 -0.005104
v -0.070665 -0.587268 -0.005626
v -0.075169 -0.614288 -0.006937
v -0.079963 -0.638445 -0.007615
v -0.085111 -0.665041 -0.009335
v -0.089441 -0.691924 -0.012537
v -0.093120 -0.718548 -0.017328
v -0.096163 -0.742421 -0.023043
v -0.097915 -0.767561 -0.031742
v -0.098691 -0.779961 -0.036054
v -0.100416 -0.818192 -0.052953
l 80 81 82 83 84 85 86 87 88 89 90 91
o R_SAPH_V
v -0.061919 -0.529823 -0.001510
v -0.080285 -0.552071 -0.002758
v -0.082622 -0.557242 -0.003020
v -0.084561 -0.561779 -0.003250
v -0.089761 -0.571214 -0.003745
v -0.093197 -0.584357 -0.004390
v -0.094886 -0.589412 -0.004639
v -0.096808 -0.595459 -0.004937
v -0.104427 -0.640313 -0.007099
l 92 93 94 95 96 97 98 99 100
o R_DEEP_FEM_V
v -0.065350 -0.545218 -0.006283
v -0.076737 -0.535557 -0.005583
v -0.079087 -0.534787 -0.005813
v -0.081491 -0.534178 -0.006224
v -0.086284 -0.531785 -0.007104
v -0.089967 -0.530885 -0.008358
v -0.093241 -0.529806 -0.009948
v -0.096150 -0.527588 -0.013842
v -0.097925 -0.526962 -0.015219
v -0.099342 -0.526167 -0.016869
v -0.100890 -0.518030 -0.032563
l 101 102 103 104 105 106 107 108 109 110 111
o R_POPV
v -0.100416 -0.818192 -0.052953
v -0.099704 -0.831988 -0.056851
v -0.100286 -0.843121 -0.061496
v -0.098986 -0.859140 -0.065264
v -0.098511 -0.867053 -0.066673
v -0.096686 -0.874784 -0.066565
l 112 113 114 115 116 117
o R_POST_TIB_V
v -0.096686 -0.874784 -0.066565
v -0.096001 -0.899707 -0.075574
v -0.095192 -0.930401 -0.081585
v -0.093717 -0.967221 -0.082695
v -0.092091 -1.005094 -0.081594
v -0.090861 -1.038771 -0.079581
v -0.090691 -1.071365 -0.079263
v -0.091511 -1.106622 -0.080701
v -0.092599 -1.143567 -0.083562
v -0.093832 -1.178731 -0.087137
v -0.087612 -1.221383 -0.092981
v -0.082924 -1.256625 -0.094334
v -0.085954 -1.280915 -0.096040
l 118 119 120 121 122 123 124 125 126 127 128 129 130
o R_PERONEAL_V
v -0.096686 -0.874784 -0.066565
v -0.105125 -0.909127 -0.074977
v -0.115909 -0.951054 -0.080174
v -0.124947 -0.998784 -0.081619
v -0.126855 -1.047563 -0.083676
v -0.120494 -1.097801 -0.086529
v -0.111349 -1.144993 -0.090734
v -0.103806 -1.202255 -0.095929
v -0.102742 -1.246620 -0.096928
v -0.106764 -1.284379 -0.093714
v -0.114035 -1.314029 -0.022139
v -0.120350 -1.331759 0.023563
v -0.116488 -1.352253 0.132230
l 131 132 133 134 135 136 137 138 139 140 141 142 143
