# _1st_Distal_Phalanx_Foot_R posed
v 0.903196 0.187212 0.299565
v 0.903780 0.186001 0.301342
v 0.904856 0.185408 0.303145
v 0.906363 0.185434 0.304932
v 0.907288 0.186794 0.306164
v 0.907674 0.188596 0.305976
v 0.907470 0.190072 0.304978
v 0.907053 0.191521 0.303503
v 0.903217 0.188974 0.298131
v 0.903861 0.190919 0.297256
v 0.905140 0.192821 0.296949
v 0.905897 0.194102 0.298138
v 0.906305 0.194030 0.300270
v 0.906719 0.192806 0.301984
v 0.906469 0.190580 0.302673
v 0.906792 0.189284 0.304029
v 0.906935 0.188179 0.304842
v 0.906743 0.187350 0.304836
v 0.906078 0.186667 0.304161
v 0.905275 0.186710 0.303019
v 0.904858 0.187242 0.301660
v 0.904397 0.188226 0.300371
v 0.904364 0.189512 0.299231
v 0.904873 0.190876 0.298283
v 0.905457 0.191730 0.298239
v 0.905905 0.192515 0.298702
v 0.906193 0.192493 0.299997
v 0.906286 0.191719 0.301154
v 0.904488 0.186157 0.298108
v 0.905047 0.184882 0.300026
v 0.906061 0.184182 0.302144
v 0.907661 0.184240 0.304534
v 0.909250 0.185398 0.306505
v 0.909829 0.187800 0.306802
v 0.909568 0.190468 0.304853
v 0.908360 0.191776 0.303539
v 0.908013 0.193078 0.302005
v 0.908263 0.194436 0.300186
v 0.907543 0.194963 0.297740
v 0.906476 0.193259 0.295872
v 0.905318 0.190804 0.295642
v 0.904521 0.188346 0.296529
v 0.909844 0.193468 0.298591
v 0.909677 0.193226 0.296815
v 0.908488 0.191932 0.295263
v 0.907261 0.189758 0.295270
v 0.906688 0.187725 0.296241
v 0.906510 0.186054 0.297428
v 0.906959 0.184888 0.299241
v 0.908081 0.184358 0.301225
v 0.909374 0.184134 0.303120
v 0.911445 0.185007 0.304862
v 0.912034 0.187046 0.305197
v 0.911126 0.189356 0.304393
v 0.909034 0.191941 0.301133
v 0.911148 0.188771 0.302652
v 0.909211 0.192652 0.300085
v 0.910219 0.191508 0.297119
v 0.910277 0.191498 0.298176
v 0.909348 0.190959 0.302467
v 0.910321 0.190654 0.299673
v 0.912202 0.186966 0.303221
v 0.909659 0.190453 0.303100
v 0.910766 0.189564 0.301206
v 0.911941 0.185371 0.303118
v 0.910868 0.184633 0.301884
v 0.909715 0.184407 0.300162
v 0.908728 0.184837 0.298394
v 0.908189 0.185763 0.296927
v 0.908195 0.187177 0.295936
v 0.908795 0.188744 0.295542
v 0.909688 0.190465 0.295922
v 0.911507 0.189526 0.297666
v 0.911866 0.189201 0.298534
v 0.912334 0.188493 0.299640
v 0.912649 0.187465 0.300529
v 0.911219 0.189490 0.296870
v 0.910837 0.189141 0.295955
v 0.910107 0.187985 0.295247
v 0.912735 0.186419 0.300983
v 0.912409 0.185472 0.301006
v 0.911782 0.184557 0.300421
v 0.911033 0.184366 0.299047
v 0.910330 0.184730 0.297593
v 0.909827 0.185464 0.296431
v 0.909770 0.186501 0.295601
v 0.913033 0.184412 0.299037
v 0.913515 0.185277 0.299414
v 0.913722 0.186156 0.299362
v 0.913823 0.186910 0.298984
v 0.913741 0.187693 0.298421
v 0.913418 0.188208 0.297604
v 0.913005 0.188332 0.296755
v 0.912655 0.188219 0.295989
v 0.912132 0.188003 0.295349
v 0.911553 0.187217 0.294842
v 0.911329 0.186222 0.295075
v 0.911426 0.185221 0.295860
v 0.911804 0.184631 0.296829
v 0.912385 0.184274 0.298102
v 0.915341 0.184085 0.297351
v 0.915475 0.184794 0.297992
v 0.915563 0.185600 0.298001
v 0.915642 0.186456 0.297735
v 0.915664 0.187208 0.297323
v 0.915421 0.187821 0.296611
v 0.915209 0.188020 0.295715
v 0.914933 0.187844 0.294661
v 0.914678 0.187380 0.293937
v 0.914341 0.186659 0.293770
v 0.914350 0.185762 0.293952
v 0.914369 0.184840 0.294521
v 0.914676 0.184173 0.295422
v 0.915096 0.183992 0.296531
v 0.916809 0.183815 0.294366
v 0.916721 0.183421 0.295823
v 0.916692 0.184645 0.293454
v 0.916370 0.185596 0.292931
v 0.915861 0.186826 0.292792
v 0.915604 0.187726 0.293158
v 0.915797 0.188197 0.293902
v 0.916698 0.188375 0.294841
v 0.917610 0.187966 0.295572
v 0.917856 0.187095 0.296590
v 0.917686 0.186217 0.297351
v 0.917106 0.185429 0.297863
v 0.916877 0.184435 0.297971
v 0.916677 0.183598 0.297050
v 0.917270 0.183307 0.294170
v 0.917078 0.184340 0.293004
v 0.917245 0.182920 0.295683
v 0.917175 0.183120 0.297212
v 0.917443 0.184016 0.298202
v 0.917651 0.185135 0.298115
v 0.918209 0.186123 0.297405
v 0.918400 0.186953 0.296689
v 0.918107 0.188032 0.295435
v 0.917010 0.188720 0.294493
v 0.915895 0.187898 0.292537
v 0.916027 0.188537 0.293419
v 0.916069 0.186858 0.292305
v 0.916670 0.185502 0.292406
v 0.918229 0.184311 0.292463
v 0.917783 0.185531 0.291820
v 0.917366 0.186748 0.291708
v 0.917271 0.187878 0.292110
v 0.917537 0.188366 0.292764
v 0.918126 0.188297 0.293577
v 0.918904 0.187493 0.294716
v 0.919510 0.186556 0.295825
v 0.919225 0.185525 0.296716
v 0.918837 0.184534 0.297321
v 0.918369 0.182971 0.296859
v 0.918435 0.182829 0.295178
v 0.918518 0.183315 0.293736
v 0.918608 0.183607 0.297402
v 0.920260 0.183949 0.293362
v 0.919978 0.184995 0.292153
v 0.920562 0.185397 0.294300
v 0.920153 0.186297 0.293277
v 0.920013 0.184944 0.295587
v 0.919783 0.183369 0.294832
v 0.919292 0.185782 0.291801
v 0.919686 0.186279 0.292161
v 0.920394 0.185565 0.292542
v 0.920739 0.184652 0.293667
v 0.920355 0.184196 0.294898
v 0.919248 0.183192 0.295999
v 0.919237 0.187074 0.292820
v 0.919335 0.184487 0.296446
v 0.919574 0.183847 0.296144
v 0.918412 0.187584 0.292484
v 0.918445 0.187226 0.292087
v 0.918522 0.186477 0.291727
v 0.906204 0.190790 0.300320
v 0.906314 0.189645 0.301653
v 0.906552 0.188533 0.303055
v 0.905728 0.190082 0.299617
v 0.905880 0.188906 0.300896
v 0.906104 0.187863 0.302183
f 24 25 11
f 24 11 10
f 11 12 39
f 11 39 40
f 10 11 40
f 10 40 41
f 9 10 41
f 9 41 42
f 1 9 42
f 1 42 29
f 30 2 1
f 30 1 29
f 3 2 30
f 3 30 31
f 4 3 31
f 4 31 32
f 5 4 32
f 5 32 33
f 6 5 33
f 6 33 34
f 37 14 8
f 37 8 36
f 13 14 37
f 13 37 38
f 39 12 13
f 39 13 38
f 44 39 38
f 44 38 43
f 35 34 53
f 35 53 54
f 7 6 34
f 7 34 35
f 36 8 7
f 36 7 35
f 55 37 36
f 55 36 60
f 63 60 36
f 63 36 35
f 57 38 37
f 57 37 55
f 53 34 33
f 53 33 52
f 52 33 32
f 52 32 51
f 51 32 31
f 51 31 50
f 50 31 30
f 50 30 49
f 49 30 29
f 49 29 48
f 48 29 42
f 48 42 47
f 47 42 41
f 47 41 46
f 46 41 40
f 46 40 45
f 40 39 44
f 40 44 45
f 43 38 57
f 43 57 59
f 59 57 55
f 59 55 61
f 64 61 55
f 64 55 60
f 63 35 54
f 63 54 56
f 64 60 63
f 64 63 56
f 58 44 43
f 58 43 59
f 72 45 44
f 72 44 58
f 71 46 45
f 71 45 72
f 62 56 54
f 62 54 53
f 62 53 52
f 62 52 65
f 66 65 52
f 66 52 51
f 67 66 51
f 67 51 50
f 68 67 50
f 68 50 49
f 69 68 49
f 69 49 48
f 70 69 48
f 70 48 47
f 70 47 46
f 70 46 71
f 85 84 68
f 85 68 69
f 98 99 84
f 98 84 85
f 83 67 68
f 83 68 84
f 83 84 99
f 83 99 100
f 86 85 69
f 86 69 70
f 97 98 85
f 97 85 86
f 82 66 67
f 82 67 83
f 82 83 100
f 82 100 87
f 81 65 66
f 81 66 82
f 81 82 87
f 81 87 88
f 80 62 65
f 80 65 81
f 80 81 88
f 80 88 89
f 76 56 62
f 76 62 80
f 76 80 89
f 76 89 90
f 75 64 56
f 75 56 76
f 75 76 90
f 75 90 91
f 74 61 64
f 74 64 75
f 74 75 91
f 74 91 92
f 73 59 61
f 73 61 74
f 73 74 92
f 73 92 93
f 77 58 59
f 77 59 73
f 77 73 93
f 77 93 94
f 72 58 77
f 72 77 78
f 78 77 94
f 78 94 95
f 71 72 78
f 71 78 79
f 79 78 95
f 79 95 96
f 86 70 71
f 86 71 79
f 96 97 86
f 96 86 79
f 100 99 113
f 100 113 114
f 112 113 99
f 112 99 98
f 111 112 98
f 111 98 97
f 110 111 97
f 110 97 96
f 109 110 96
f 109 96 95
f 108 109 95
f 108 95 94
f 107 108 94
f 107 94 93
f 106 107 93
f 106 93 92
f 105 106 92
f 105 92 91
f 104 105 91
f 104 91 90
f 103 104 90
f 103 90 89
f 102 103 89
f 102 89 88
f 101 102 88
f 101 88 87
f 87 100 114
f 87 114 101
f 116 114 113
f 116 113 115
f 117 115 113
f 117 113 112
f 128 101 114
f 128 114 116
f 127 102 101
f 127 101 128
f 126 103 102
f 126 102 127
f 125 104 103
f 125 103 126
f 124 105 104
f 124 104 125
f 123 106 105
f 123 105 124
f 122 107 106
f 122 106 123
f 121 120 109
f 121 109 108
f 121 108 107
f 121 107 122
f 119 110 109
f 119 109 120
f 118 111 110
f 118 110 119
f 118 117 112
f 118 112 111
f 130 117 118
f 130 118 142
f 142 118 119
f 142 119 141
f 141 119 120
f 141 120 139
f 139 120 121
f 139 121 140
f 140 121 122
f 140 122 138
f 138 122 123
f 138 123 137
f 137 123 124
f 137 124 136
f 136 124 125
f 136 125 135
f 135 125 126
f 135 126 134
f 132 128 116
f 132 116 131
f 129 115 117
f 129 117 130
f 131 116 115
f 131 115 129
f 127 128 132
f 127 132 133
f 134 126 127
f 134 127 133
f 155 129 130
f 155 130 143
f 149 137 136
f 149 136 150
f 154 131 129
f 154 129 155
f 143 130 142
f 143 142 144
f 157 155 143
f 157 143 158
f 166 157 158
f 166 158 165
f 153 132 131
f 153 131 154
f 154 155 157
f 154 157 162
f 160 159 166
f 160 166 165
f 160 149 150
f 160 150 159
f 148 138 137
f 148 137 149
f 159 150 151
f 159 151 161
f 151 150 136
f 151 136 135
f 151 135 134
f 151 134 152
f 168 153 154
f 168 154 162
f 162 157 166
f 162 166 167
f 166 159 161
f 166 161 167
f 170 161 151
f 170 151 152
f 171 168 162
f 171 162 167
f 156 152 134
f 156 134 133
f 171 170 152
f 171 152 156
f 156 133 132
f 156 132 153
f 156 153 168
f 156 168 171
f 171 167 161
f 171 161 170
f 147 140 138
f 147 138 148
f 148 149 160
f 148 160 169
f 172 147 148
f 172 148 169
f 146 139 140
f 146 140 147
f 169 160 165
f 169 165 164
f 172 169 164
f 172 164 173
f 146 147 172
f 146 172 173
f 145 141 139
f 145 139 146
f 145 144 142
f 145 142 141
f 164 165 158
f 164 158 163
f 163 158 143
f 163 143 144
f 163 144 145
f 163 145 174
f 174 173 164
f 174 164 163
f 145 146 173
f 145 173 174
f 27 13 12
f 27 12 26
f 14 13 27
f 14 27 28
f 15 8 14
f 15 14 28
f 17 6 7
f 17 7 16
f 7 8 15
f 7 15 16
f 5 6 17
f 5 17 18
f 26 12 11
f 26 11 25
f 24 10 9
f 24 9 23
f 175 26 25
f 175 25 178
f 28 27 26
f 28 26 175
f 25 24 23
f 25 23 178
f 22 23 9
f 22 9 1
f 15 28 175
f 15 175 176
f 178 23 22
f 178 22 179
f 176 175 178
f 176 178 179
f 18 17 16
f 18 16 177
f 2 3 20
f 2 20 21
f 22 1 2
f 22 2 21
f 16 15 176
f 16 176 177
f 20 3 4
f 20 4 19
f 179 22 21
f 179 21 180
f 4 5 18
f 4 18 19
f 19 18 177
f 19 177 180
f 180 21 20
f 180 20 19
f 177 176 179
f 177 179 180
