# _1st_Proximal_Phalanges_Hand_R rest
v -0.779932 0.018458 0.014776
v -0.783363 0.020067 0.012116
v -0.782215 0.020743 0.011565
v -0.783179 0.021129 0.006923
v -0.781278 0.019487 0.004161
v -0.781669 0.018519 0.005853
v -0.782057 0.018274 0.008467
v -0.783627 0.018799 0.009403
v -0.783142 0.018983 0.011951
v -0.784920 0.020047 0.007050
v -0.779463 0.018722 0.014895
v -0.780560 0.017896 0.014076
v -0.778362 0.016569 0.015260
v -0.779288 0.016344 0.014533
v -0.777690 0.016709 0.015376
v -0.776564 0.015278 0.014192
v -0.777626 0.014937 0.014110
v -0.778809 0.014937 0.013652
v -0.777173 0.013833 0.011775
v -0.778427 0.013974 0.012120
v -0.775977 0.014285 0.011751
v -0.778338 0.014800 0.007798
v -0.780069 0.015346 0.010224
v -0.780758 0.016925 0.012704
v -0.776740 0.015316 0.006973
v -0.780636 0.021419 0.007408
v -0.779730 0.020808 0.011275
v -0.779666 0.020004 0.004292
v -0.778012 0.019292 0.014073
v -0.776404 0.017696 0.014623
v -0.775087 0.016250 0.013703
v -0.774288 0.015269 0.011323
v -0.775625 0.016365 0.006710
v -0.772137 0.016964 0.010967
v -0.773818 0.018598 0.012148
v -0.775388 0.019950 0.011460
v -0.776803 0.021082 0.009258
v -0.777410 0.021480 0.005676
v -0.775925 0.020010 0.004292
v -0.773564 0.017612 0.004175
v -0.771411 0.016060 0.007375
v -0.768323 0.017442 0.007119
v -0.770261 0.019441 0.008550
v -0.771895 0.020805 0.007668
v -0.773323 0.021832 0.005428
v -0.773731 0.021853 0.002602
v -0.772211 0.020479 0.001513
v -0.770399 0.018476 0.000703
v -0.768149 0.016622 0.003096
v -0.764454 0.017617 0.004523
v -0.766689 0.020049 0.005885
v -0.768630 0.021647 0.004868
v -0.770287 0.022826 0.002535
v -0.771354 0.023118 -0.000949
v -0.769238 0.021365 -0.002177
v -0.767443 0.019224 -0.002975
v -0.764523 0.016544 -0.000411
v -0.760361 0.017115 0.002346
v -0.763090 0.020096 0.004343
v -0.765660 0.022288 0.002980
v -0.767769 0.023863 0.000226
v -0.769445 0.024462 -0.004716
v -0.767410 0.022363 -0.008040
v -0.764103 0.019086 -0.007637
v -0.760512 0.015943 -0.004138
v -0.764493 0.022669 0.002404
v -0.766967 0.024756 -0.000805
v -0.768368 0.025359 -0.006861
v -0.766528 0.022972 -0.010690
v -0.762590 0.020004 -0.008734
v -0.758124 0.016146 -0.006013
v -0.758378 0.017021 0.000953
v -0.761447 0.020047 0.003650
v -0.763130 0.022876 0.001646
v -0.760889 0.020483 0.002781
v -0.758276 0.018671 0.000230
v -0.757851 0.017995 -0.004983
v -0.761426 0.020996 -0.006946
v -0.764153 0.023231 -0.009372
v -0.764642 0.024598 -0.005776
v -0.765417 0.024861 -0.001010
v -0.761154 0.022048 -0.002381
v -0.778237 0.013589 0.010263
v -0.784674 0.019518 0.009717
v -0.778303 0.015614 0.014735
v -0.777861 0.014349 0.013095
v -0.781505 0.017935 0.010670
v -0.781929 0.018313 0.012447
v -0.781538 0.018946 0.013802
v -0.779474 0.017418 0.014817
v -0.779936 0.016452 0.013888
v -0.779642 0.014750 0.012215
v -0.783814 0.019087 0.006718
v -0.780263 0.017419 0.008799
v -0.783569 0.020208 0.005109
v -0.784187 0.020849 0.009072
v -0.781160 0.019531 0.013981
v -0.778849 0.017548 0.015222
v -0.777516 0.015693 0.014957
v -0.776841 0.014459 0.013034
v -0.776455 0.013614 0.009494
v -0.779646 0.017850 0.007016
v -0.769764 0.016601 0.007186
v -0.767374 0.018729 0.006796
v -0.769394 0.020587 0.006767
v -0.771069 0.021865 0.005039
v -0.772274 0.022580 0.002419
v -0.771521 0.021625 0.000030
v -0.769830 0.020075 -0.000568
v -0.767481 0.017452 -0.000536
v -0.766000 0.016800 0.003621
v -0.780035 0.020002 0.013668
v -0.777643 0.020320 0.012073
v -0.774368 0.020903 0.008653
v -0.781534 0.021143 0.009369
v -0.778931 0.021333 0.008773
v -0.775475 0.021688 0.005789
v -0.781869 0.021038 0.005167
v -0.779256 0.021158 0.005315
v -0.774799 0.020889 0.003460
v -0.778733 0.018350 0.006016
v -0.776654 0.018759 0.005466
v -0.773167 0.019336 0.002810
v -0.774944 0.014410 0.009311
v -0.772961 0.015565 0.007766
v -0.770646 0.016828 0.003255
v -0.775615 0.015207 0.013182
v -0.773259 0.016115 0.011421
v -0.777990 0.018104 0.015126
v -0.776069 0.018930 0.013425
v -0.776449 0.016326 0.014823
v -0.774337 0.017231 0.013289
v -0.771189 0.018197 0.010047
v -0.772937 0.019766 0.010103
v -0.767962 0.022726 0.002630
v -0.769766 0.023825 -0.000545
v -0.769664 0.023016 -0.004573
v -0.766969 0.020967 -0.004600
v -0.764081 0.017447 -0.004630
v -0.761889 0.016417 0.000968
v -0.763486 0.018828 0.004664
v -0.765965 0.021176 0.004485
v -0.763527 0.021373 0.003564
v -0.760404 0.018473 0.003437
v -0.758436 0.015988 -0.001643
v -0.760951 0.017383 -0.007944
v -0.765506 0.021412 -0.009912
v -0.768284 0.024128 -0.008881
v -0.768328 0.025082 -0.002846
v -0.766107 0.023472 0.001282
v -0.762607 0.021560 0.003051
v -0.759537 0.018785 0.002586
v -0.757105 0.016640 -0.002391
v -0.759848 0.018684 -0.007345
v -0.763994 0.021974 -0.010388
v -0.766562 0.024518 -0.009487
v -0.767462 0.025633 -0.003753
v -0.765267 0.023916 0.000873
v -0.760582 0.021074 0.001242
v -0.763222 0.023877 -0.001641
v -0.759130 0.019886 -0.003392
v -0.762763 0.022870 -0.006234
v -0.781284 0.019272 0.014018
v -0.783095 0.020492 0.011755
v -0.782916 0.021070 0.009055
v -0.782866 0.020722 0.005087
v -0.781523 0.018932 0.004841
v -0.781953 0.018342 0.007179
v -0.783012 0.018572 0.008559
v -0.783583 0.018895 0.010708
v -0.783506 0.019482 0.012035
v -0.784324 0.020749 0.006772
v -0.784605 0.019379 0.007852
v -0.784895 0.020335 0.009399
v -0.783817 0.019604 0.005628
v -0.779730 0.018554 0.014864
v -0.780795 0.019810 0.013877
v -0.780267 0.018262 0.014524
v -0.781763 0.018557 0.013251
v -0.779117 0.017558 0.015094
v -0.778781 0.016555 0.015030
v -0.779853 0.016983 0.014297
v -0.778469 0.017697 0.015310
v -0.778081 0.016543 0.015335
v -0.776990 0.015861 0.014932
v -0.777934 0.015670 0.014909
v -0.777110 0.015032 0.014152
v -0.778063 0.014907 0.014005
v -0.779061 0.015700 0.014295
v -0.778587 0.014360 0.012853
v -0.777343 0.014337 0.013029
v -0.777835 0.013838 0.011974
v -0.776242 0.014730 0.013086
v -0.776600 0.014008 0.011781
v -0.779783 0.017502 0.007877
v -0.780889 0.017604 0.009847
v -0.779264 0.014878 0.008840
v -0.779098 0.014020 0.011178
v -0.777304 0.013501 0.009724
v -0.780578 0.016152 0.011576
v -0.781883 0.018153 0.011506
v -0.779916 0.015614 0.013156
v -0.780697 0.017506 0.013563
v -0.777507 0.014991 0.007217
v -0.779320 0.018133 0.006300
v -0.775686 0.013952 0.009438
v -0.781875 0.021288 0.007260
v -0.781026 0.020773 0.011631
v -0.780202 0.021197 0.009410
v -0.780692 0.019841 0.004043
v -0.780672 0.021162 0.005390
v -0.778923 0.020130 0.013074
v -0.778914 0.019020 0.014705
v -0.777221 0.018540 0.014499
v -0.777139 0.017130 0.015192
v -0.775680 0.016911 0.014369
v -0.775939 0.015695 0.014106
v -0.774706 0.015755 0.012811
v -0.775264 0.014721 0.011722
v -0.774043 0.014964 0.009008
v -0.776141 0.015762 0.006899
v -0.777915 0.018541 0.005948
v -0.772942 0.017776 0.011885
v -0.774646 0.019325 0.011952
v -0.776118 0.020547 0.010607
v -0.777305 0.021465 0.007529
v -0.776871 0.020876 0.004610
v -0.774922 0.019013 0.004201
v -0.772015 0.016324 0.005369
v -0.771557 0.016365 0.009318
v -0.769260 0.018481 0.008247
v -0.771134 0.020195 0.008285
v -0.772643 0.021368 0.006699
v -0.773770 0.022060 0.003987
v -0.773002 0.021176 0.001854
v -0.771440 0.019679 0.001124
v -0.769087 0.017207 0.001295
v -0.767892 0.016754 0.005231
v -0.765533 0.018928 0.005680
v -0.767715 0.020926 0.005570
v -0.769545 0.022321 0.003749
v -0.770970 0.023180 0.000988
v -0.770447 0.022245 -0.002068
v -0.768438 0.020549 -0.002470
v -0.765858 0.017525 -0.002456
v -0.764045 0.016697 0.002289
v -0.761598 0.018603 0.003995
v -0.764458 0.021305 0.003877
v -0.766731 0.023117 0.001782
v -0.768762 0.024414 -0.001911
v -0.768917 0.023627 -0.007155
v -0.766028 0.021115 -0.007840
v -0.762159 0.017242 -0.006621
v -0.759824 0.016095 -0.000564
v -0.770288 0.017261 0.008968
v -0.772117 0.019062 0.010336
v -0.773665 0.020357 0.009547
v -0.775042 0.021390 0.007348
v -0.775462 0.021531 0.004272
v -0.774002 0.020177 0.003138
v -0.772017 0.018070 0.002445
v -0.769845 0.016394 0.005131
v -0.766399 0.017582 0.005624
v -0.768449 0.019773 0.007061
v -0.770231 0.021250 0.006092
v -0.771759 0.022324 0.003853
v -0.772384 0.022417 0.000832
v -0.770598 0.020871 -0.000210
v -0.768846 0.018856 -0.001036
v -0.766370 0.016681 0.001287
v -0.762360 0.017431 0.003404
v -0.764782 0.020132 0.004892
v -0.767027 0.022018 0.003701
v -0.768863 0.023354 0.001260
v -0.770386 0.023860 -0.002836
v -0.767951 0.021874 -0.004569
v -0.765818 0.019397 -0.005133
v -0.762482 0.016226 -0.002258
v -0.776855 0.019635 0.012960
v -0.778377 0.020926 0.010514
v -0.779381 0.021546 0.006778
v -0.777937 0.019994 0.004804
v -0.774951 0.017061 0.005846
v -0.772936 0.015708 0.009808
v -0.773765 0.016632 0.012618
v -0.775212 0.018118 0.013599
v -0.764900 0.022505 0.002604
v -0.767213 0.024358 -0.000409
v -0.765765 0.023732 0.001033
v -0.768115 0.025486 -0.003547
v -0.768939 0.025114 -0.006053
v -0.767652 0.024387 -0.009538
v -0.766969 0.022768 -0.009999
v -0.764967 0.021669 -0.010583
v -0.763117 0.019410 -0.008727
v -0.760405 0.017931 -0.008211
v -0.759020 0.015883 -0.005422
v -0.757623 0.016128 -0.002132
v -0.759055 0.016976 0.001480
v -0.759794 0.018481 0.002988
v -0.762012 0.020040 0.003967
v -0.763028 0.021444 0.003348
v -0.764029 0.022810 0.002195
v -0.761123 0.020221 0.003270
v -0.761863 0.021567 0.002460
v -0.759695 0.019655 0.001968
v -0.758006 0.017434 0.000697
v -0.757493 0.017984 -0.002680
v -0.757593 0.016890 -0.005868
v -0.759484 0.019477 -0.005756
v -0.762017 0.020506 -0.008140
v -0.762976 0.022392 -0.008472
v -0.765314 0.023212 -0.010817
v -0.764465 0.023964 -0.008064
v -0.767268 0.025408 -0.006871
v -0.765282 0.025103 -0.003081
v -0.766381 0.024949 -0.000925
v -0.764327 0.024032 0.000316
v -0.759477 0.020379 -0.000849
v -0.760997 0.021504 -0.004839
v -0.762743 0.023281 -0.004068
v -0.761855 0.022624 0.000177
f 2 164 96
f 2 96 174
f 163 97 164
f 163 164 2
f 171 89 163
f 171 163 2
f 174 84 171
f 174 171 2
f 3 165 96
f 3 96 164
f 208 115 165
f 208 165 3
f 177 112 208
f 177 208 3
f 3 164 97
f 3 97 177
f 4 166 95
f 4 95 172
f 207 118 166
f 207 166 4
f 165 115 207
f 165 207 4
f 172 96 165
f 172 165 4
f 5 167 95
f 5 95 166
f 205 102 167
f 205 167 5
f 166 118 210
f 166 210 5
f 5 210 121
f 5 121 205
f 6 168 93
f 6 93 175
f 195 94 168
f 195 168 6
f 167 102 195
f 167 195 6
f 175 95 167
f 175 167 6
f 196 87 169
f 196 169 7
f 7 169 93
f 7 93 168
f 168 94 196
f 168 196 7
f 8 170 84
f 8 84 173
f 201 88 170
f 201 170 8
f 169 87 201
f 169 201 8
f 173 93 169
f 173 169 8
f 9 171 84
f 9 84 170
f 179 89 171
f 179 171 9
f 9 170 88
f 9 88 179
f 11 177 97
f 11 97 176
f 213 112 177
f 213 177 11
f 176 98 183
f 176 183 11
f 11 183 129
f 11 129 213
f 12 179 88
f 12 88 203
f 178 89 179
f 178 179 12
f 12 182 90
f 12 90 178
f 203 91 182
f 203 182 12
f 13 181 85
f 13 85 186
f 180 90 181
f 180 181 13
f 13 184 98
f 13 98 180
f 186 99 184
f 186 184 13
f 14 189 85
f 14 85 181
f 182 91 189
f 182 189 14
f 14 181 90
f 14 90 182
f 184 99 185
f 184 185 15
f 15 185 131
f 15 131 215
f 15 215 129
f 15 129 183
f 15 183 98
f 15 98 184
f 185 99 187
f 185 187 16
f 16 187 100
f 16 100 193
f 16 193 127
f 16 127 217
f 16 217 131
f 16 131 185
f 186 85 188
f 186 188 17
f 17 188 86
f 17 86 191
f 17 191 100
f 17 100 187
f 187 99 186
f 187 186 17
f 18 190 86
f 18 86 188
f 202 92 190
f 202 190 18
f 18 188 85
f 18 85 189
f 18 189 91
f 18 91 202
f 19 192 83
f 19 83 199
f 191 86 192
f 191 192 19
f 19 194 100
f 19 100 191
f 199 101 194
f 199 194 19
f 192 86 190
f 192 190 20
f 20 190 92
f 20 92 198
f 198 83 192
f 198 192 20
f 206 124 219
f 206 219 21
f 21 219 127
f 21 127 193
f 21 193 100
f 21 100 194
f 21 194 101
f 21 101 206
f 199 83 197
f 199 197 22
f 22 197 94
f 22 94 195
f 204 101 199
f 204 199 22
f 195 102 204
f 195 204 22
f 197 83 198
f 197 198 23
f 23 198 92
f 23 92 200
f 23 200 87
f 23 87 196
f 23 196 94
f 23 94 197
f 24 202 91
f 24 91 203
f 200 92 202
f 200 202 24
f 24 203 88
f 24 88 201
f 201 87 200
f 201 200 24
f 204 102 205
f 204 205 25
f 25 205 121
f 25 121 221
f 25 206 101
f 25 101 204
f 221 124 206
f 221 206 25
f 207 115 209
f 207 209 26
f 26 209 116
f 26 116 281
f 26 211 118
f 26 118 207
f 281 119 211
f 281 211 26
f 208 112 212
f 208 212 27
f 27 212 113
f 27 113 280
f 209 115 208
f 209 208 27
f 280 116 209
f 280 209 27
f 28 210 118
f 28 118 211
f 222 121 210
f 222 210 28
f 28 211 119
f 28 119 282
f 282 122 222
f 282 222 28
f 213 129 214
f 213 214 29
f 29 214 130
f 29 130 279
f 29 212 112
f 29 112 213
f 279 113 212
f 279 212 29
f 215 131 216
f 215 216 30
f 30 216 132
f 30 132 286
f 30 286 130
f 30 130 214
f 30 214 129
f 30 129 215
f 217 127 218
f 217 218 31
f 31 218 128
f 31 128 285
f 31 216 131
f 31 131 217
f 285 132 216
f 285 216 31
f 219 124 220
f 219 220 32
f 32 220 125
f 32 125 284
f 32 284 128
f 32 128 218
f 32 218 127
f 32 127 219
f 221 121 222
f 221 222 33
f 33 222 122
f 33 122 283
f 33 283 125
f 33 125 220
f 33 220 124
f 33 124 221
f 34 223 132
f 34 132 285
f 255 133 223
f 255 223 34
f 230 103 255
f 230 255 34
f 34 285 128
f 34 128 230
f 35 224 130
f 35 130 286
f 256 134 224
f 256 224 35
f 223 133 256
f 223 256 35
f 286 132 223
f 286 223 35
f 36 225 113
f 36 113 279
f 257 114 225
f 257 225 36
f 224 134 257
f 224 257 36
f 36 279 130
f 36 130 224
f 37 226 116
f 37 116 280
f 258 117 226
f 258 226 37
f 225 114 258
f 225 258 37
f 37 280 113
f 37 113 225
f 38 227 119
f 38 119 281
f 259 120 227
f 259 227 38
f 226 117 259
f 226 259 38
f 38 281 116
f 38 116 226
f 39 228 122
f 39 122 282
f 260 123 228
f 260 228 39
f 227 120 260
f 227 260 39
f 39 282 119
f 39 119 227
f 40 229 125
f 40 125 283
f 261 126 229
f 261 229 40
f 228 123 261
f 228 261 40
f 283 122 228
f 283 228 40
f 262 103 230
f 262 230 41
f 41 230 128
f 41 128 284
f 229 126 262
f 229 262 41
f 284 125 229
f 284 229 41
f 263 104 231
f 263 231 42
f 42 231 133
f 42 133 255
f 238 111 263
f 238 263 42
f 255 103 238
f 255 238 42
f 264 105 232
f 264 232 43
f 43 232 134
f 43 134 256
f 231 104 264
f 231 264 43
f 256 133 231
f 256 231 43
f 265 106 233
f 265 233 44
f 44 233 114
f 44 114 257
f 232 105 265
f 232 265 44
f 257 134 232
f 257 232 44
f 266 107 234
f 266 234 45
f 45 234 117
f 45 117 258
f 233 106 266
f 233 266 45
f 258 114 233
f 258 233 45
f 267 108 235
f 267 235 46
f 46 235 120
f 46 120 259
f 234 107 267
f 234 267 46
f 259 117 234
f 259 234 46
f 268 109 236
f 268 236 47
f 47 236 123
f 47 123 260
f 235 108 268
f 235 268 47
f 260 120 235
f 260 235 47
f 269 110 237
f 269 237 48
f 48 237 126
f 48 126 261
f 236 109 269
f 236 269 48
f 261 123 236
f 261 236 48
f 49 238 103
f 49 103 262
f 270 111 238
f 270 238 49
f 237 110 270
f 237 270 49
f 262 126 237
f 262 237 49
f 50 239 104
f 50 104 263
f 271 141 239
f 271 239 50
f 246 140 271
f 246 271 50
f 263 111 246
f 263 246 50
f 51 240 105
f 51 105 264
f 272 142 240
f 272 240 51
f 239 141 272
f 239 272 51
f 264 104 239
f 264 239 51
f 52 241 106
f 52 106 265
f 273 135 241
f 273 241 52
f 240 142 273
f 240 273 52
f 265 105 240
f 265 240 52
f 53 242 107
f 53 107 266
f 274 136 242
f 274 242 53
f 241 135 274
f 241 274 53
f 266 106 241
f 266 241 53
f 54 243 108
f 54 108 267
f 275 137 243
f 275 243 54
f 242 136 275
f 242 275 54
f 267 107 242
f 267 242 54
f 55 244 109
f 55 109 268
f 276 138 244
f 276 244 55
f 243 137 276
f 243 276 55
f 268 108 243
f 268 243 55
f 56 245 110
f 56 110 269
f 277 139 245
f 277 245 56
f 244 138 277
f 244 277 56
f 269 109 244
f 269 244 56
f 57 246 111
f 57 111 270
f 278 140 246
f 278 246 57
f 245 139 278
f 245 278 57
f 270 110 245
f 270 245 57
f 58 247 141
f 58 141 271
f 299 144 247
f 299 247 58
f 254 145 299
f 254 299 58
f 271 140 254
f 271 254 58
f 59 248 142
f 59 142 272
f 301 143 248
f 301 248 59
f 247 144 301
f 247 301 59
f 272 141 247
f 272 247 59
f 60 249 135
f 60 135 273
f 287 150 249
f 287 249 60
f 248 143 287
f 248 287 60
f 273 142 248
f 273 248 60
f 61 250 136
f 61 136 274
f 288 149 250
f 288 250 61
f 249 150 288
f 249 288 61
f 274 135 249
f 274 249 61
f 62 251 137
f 62 137 275
f 291 148 251
f 291 251 62
f 250 149 291
f 250 291 62
f 275 136 250
f 275 250 62
f 63 252 138
f 63 138 276
f 293 147 252
f 293 252 63
f 251 148 293
f 251 293 63
f 276 137 251
f 276 251 63
f 64 253 139
f 64 139 277
f 295 146 253
f 295 253 64
f 252 147 295
f 252 295 64
f 277 138 252
f 277 252 64
f 65 254 140
f 65 140 278
f 297 145 254
f 297 254 65
f 253 146 297
f 253 297 65
f 278 139 253
f 278 253 65
f 66 289 150
f 66 150 287
f 303 158 289
f 303 289 66
f 302 151 303
f 302 303 66
f 66 287 143
f 66 143 302
f 67 290 149
f 67 149 288
f 317 157 290
f 317 290 67
f 289 158 317
f 289 317 67
f 67 288 150
f 67 150 289
f 68 292 148
f 68 148 291
f 315 156 292
f 315 292 68
f 290 157 315
f 290 315 68
f 291 149 290
f 291 290 68
f 69 294 147
f 69 147 293
f 313 155 294
f 313 294 69
f 292 156 313
f 292 313 69
f 293 148 292
f 293 292 69
f 70 296 146
f 70 146 295
f 311 154 296
f 311 296 70
f 294 155 311
f 294 311 70
f 295 147 294
f 295 294 70
f 71 298 145
f 71 145 297
f 309 153 298
f 309 298 71
f 296 154 309
f 296 309 71
f 297 146 296
f 297 296 71
f 72 300 144
f 72 144 299
f 307 152 300
f 307 300 72
f 298 153 307
f 298 307 72
f 299 145 298
f 299 298 72
f 73 302 143
f 73 143 301
f 304 151 302
f 304 302 73
f 300 152 304
f 300 304 73
f 301 144 300
f 301 300 73
f 303 151 305
f 303 305 74
f 74 305 159
f 74 159 322
f 318 158 303
f 318 303 74
f 322 160 318
f 322 318 74
f 304 152 306
f 304 306 75
f 75 306 159
f 75 159 305
f 305 151 304
f 305 304 75
f 307 153 308
f 307 308 76
f 76 308 161
f 76 161 319
f 76 319 159
f 76 159 306
f 76 306 152
f 76 152 307
f 309 154 310
f 309 310 77
f 77 310 161
f 77 161 308
f 77 308 153
f 77 153 309
f 311 155 312
f 311 312 78
f 78 312 162
f 78 162 320
f 78 320 161
f 78 161 310
f 78 310 154
f 78 154 311
f 313 156 314
f 313 314 79
f 79 314 162
f 79 162 312
f 79 312 155
f 79 155 313
f 315 157 316
f 315 316 80
f 80 316 160
f 80 160 321
f 80 314 156
f 80 156 315
f 321 162 314
f 321 314 80
f 317 158 318
f 317 318 81
f 81 318 160
f 81 160 316
f 81 316 157
f 81 157 317
f 82 321 160
f 82 160 322
f 320 162 321
f 320 321 82
f 82 322 159
f 82 159 319
f 82 319 161
f 82 161 320
f 84 174 10
f 84 10 173
f 178 1 163
f 178 163 89
f 90 180 1
f 90 1 178
f 93 173 10
f 93 10 175
f 95 175 10
f 95 10 172
f 172 10 174
f 172 174 96
f 97 163 1
f 97 1 176
f 176 1 180
f 176 180 98
