# _1st_Metatarsal_R posed
v 0.872166 0.188749 0.307551
v 0.869671 0.187327 0.310749
v 0.870412 0.189090 0.311396
v 0.872512 0.190306 0.308669
v 0.876894 0.192155 0.304749
v 0.876261 0.192717 0.306465
v 0.882623 0.196855 0.305206
v 0.881193 0.197074 0.307264
v 0.885002 0.202628 0.307140
v 0.883311 0.201268 0.308069
v 0.884885 0.208809 0.309506
v 0.882851 0.206823 0.310238
v 0.884802 0.210067 0.311836
v 0.882782 0.208828 0.313174
v 0.887102 0.207994 0.314637
v 0.884576 0.207657 0.315476
v 0.885169 0.205632 0.319276
v 0.883173 0.205529 0.319250
v 0.881291 0.203374 0.322545
v 0.880269 0.203016 0.321918
v 0.877857 0.200378 0.324848
v 0.877337 0.200471 0.323657
v 0.874847 0.197397 0.324796
v 0.874642 0.198274 0.323645
v 0.869557 0.191023 0.320824
v 0.869714 0.192708 0.320235
v 0.868007 0.188387 0.318125
v 0.868444 0.189758 0.317551
v 0.867721 0.186738 0.314563
v 0.868881 0.188561 0.314559
v 0.872108 0.195514 0.321637
v 0.872146 0.194334 0.322390
v 0.888431 0.202400 0.316253
v 0.885465 0.199496 0.318709
v 0.882417 0.197196 0.321302
v 0.879569 0.194741 0.321804
v 0.876306 0.192003 0.320845
v 0.874211 0.189147 0.319156
v 0.871593 0.184864 0.313581
v 0.871726 0.186476 0.317246
v 0.873547 0.185445 0.309912
v 0.875648 0.186674 0.306984
v 0.880697 0.189846 0.304026
v 0.886469 0.194175 0.304133
v 0.890934 0.197909 0.305076
v 0.893929 0.202043 0.307111
v 0.890301 0.205083 0.313335
v 0.893730 0.203990 0.309783
v 0.887825 0.203745 0.318083
v 0.884508 0.200868 0.320884
v 0.880575 0.198495 0.323740
v 0.877585 0.195702 0.323768
v 0.874297 0.192642 0.321965
v 0.872026 0.189745 0.320242
v 0.869078 0.185365 0.314075
v 0.869845 0.186993 0.317894
v 0.871298 0.185809 0.310095
v 0.873980 0.187030 0.306861
v 0.879120 0.190658 0.303568
v 0.885067 0.195802 0.303652
v 0.888893 0.200726 0.305192
v 0.890056 0.206307 0.308199
v 0.889762 0.206250 0.314127
v 0.890013 0.207680 0.310908
v 0.890191 0.185606 0.314423
v 0.888833 0.184025 0.313152
v 0.887987 0.183080 0.311349
v 0.887501 0.182591 0.309318
v 0.887510 0.182711 0.307043
v 0.888177 0.183758 0.304701
v 0.889966 0.185791 0.302933
v 0.893133 0.189429 0.303072
v 0.895454 0.192685 0.304438
v 0.896822 0.194342 0.305653
v 0.897815 0.195267 0.306857
v 0.898124 0.195520 0.308573
v 0.897384 0.194375 0.310713
v 0.895779 0.192383 0.313031
v 0.894130 0.190342 0.314142
v 0.892486 0.188345 0.314754
v 0.900034 0.181545 0.311005
v 0.898801 0.180112 0.309608
v 0.898072 0.179370 0.307816
v 0.897691 0.179094 0.305934
v 0.897764 0.179404 0.303976
v 0.898384 0.180386 0.302125
v 0.899499 0.181965 0.300531
v 0.901894 0.184822 0.300224
v 0.903915 0.187122 0.301402
v 0.905191 0.188484 0.302749
v 0.906032 0.189645 0.304122
v 0.906475 0.190180 0.305371
v 0.906230 0.189879 0.307343
v 0.904990 0.188084 0.309292
v 0.903577 0.186129 0.310403
v 0.902182 0.184265 0.311143
v 0.908732 0.178151 0.308087
v 0.907472 0.176790 0.306616
v 0.906627 0.176130 0.304845
v 0.906206 0.176097 0.303011
v 0.906140 0.176538 0.301260
v 0.906572 0.177583 0.299762
v 0.907328 0.179040 0.298406
v 0.909432 0.181840 0.298278
v 0.911423 0.184075 0.299305
v 0.912524 0.185366 0.300320
v 0.913356 0.186359 0.301322
v 0.913849 0.186841 0.302589
v 0.913832 0.186303 0.304590
v 0.913082 0.184848 0.306343
v 0.911946 0.182922 0.307554
v 0.910736 0.180977 0.308243
v 0.918305 0.175702 0.305838
v 0.917666 0.173880 0.304344
v 0.917268 0.173045 0.302611
v 0.917444 0.172886 0.300437
v 0.917733 0.173537 0.298301
v 0.918017 0.174883 0.296798
v 0.918482 0.176773 0.295335
v 0.919571 0.180083 0.294590
v 0.920333 0.182099 0.295664
v 0.920948 0.183532 0.297557
v 0.921247 0.184558 0.299058
v 0.921329 0.184983 0.300805
v 0.921267 0.184483 0.302811
v 0.920695 0.182992 0.304462
v 0.920102 0.180928 0.305520
v 0.919461 0.178871 0.306129
v 0.926894 0.173822 0.304812
v 0.926230 0.171104 0.303675
v 0.926226 0.169326 0.301210
v 0.926354 0.169600 0.298589
v 0.926540 0.170448 0.296366
v 0.926245 0.172608 0.294542
v 0.927023 0.175710 0.291830
v 0.927982 0.179288 0.290594
v 0.928402 0.181964 0.292362
v 0.928471 0.183782 0.295245
v 0.928476 0.184619 0.297289
v 0.928584 0.184601 0.299843
v 0.928387 0.183705 0.301559
v 0.927950 0.182215 0.303190
v 0.927422 0.179474 0.304998
v 0.927134 0.176969 0.305351
v 0.934407 0.182499 0.292496
v 0.933684 0.183856 0.294105
v 0.934428 0.183914 0.295320
v 0.935655 0.180713 0.291726
v 0.937590 0.178871 0.292190
v 0.938230 0.179111 0.294394
v 0.937340 0.180825 0.296000
v 0.935733 0.182680 0.296568
v 0.937197 0.182128 0.293071
v 0.934681 0.179236 0.290464
v 0.935075 0.182809 0.298348
v 0.936982 0.180703 0.297302
v 0.937893 0.177285 0.291657
v 0.938458 0.177256 0.295486
v 0.938022 0.180107 0.298877
v 0.936783 0.181661 0.300463
v 0.935760 0.181426 0.302420
v 0.935264 0.179182 0.303342
v 0.939891 0.179727 0.301256
v 0.936035 0.177528 0.303043
v 0.938420 0.176401 0.301518
v 0.939676 0.176134 0.299488
v 0.939165 0.177755 0.297986
v 0.934947 0.182635 0.300048
v 0.937046 0.180587 0.298593
v 0.938577 0.177009 0.296859
v 0.938677 0.174335 0.298868
v 0.932271 0.182004 0.302955
v 0.931790 0.185085 0.296939
v 0.931469 0.184526 0.294509
v 0.931608 0.182241 0.291798
v 0.931660 0.179974 0.304975
v 0.937391 0.173938 0.301855
v 0.934158 0.176061 0.304936
v 0.931042 0.178130 0.289507
v 0.929873 0.174659 0.290443
v 0.928109 0.171161 0.292536
v 0.927969 0.168895 0.294916
v 0.929130 0.167522 0.297375
v 0.930282 0.168212 0.300202
v 0.931853 0.169854 0.302982
v 0.933236 0.172360 0.304328
v 0.936862 0.171017 0.301806
v 0.935056 0.168457 0.301054
v 0.933141 0.167495 0.299379
v 0.931679 0.167158 0.296231
v 0.931019 0.168573 0.293880
v 0.930986 0.171167 0.291402
v 0.932624 0.173792 0.289248
v 0.934309 0.176638 0.288838
v 0.937930 0.171704 0.299774
v 0.938295 0.173476 0.296529
v 0.938094 0.174548 0.293316
v 0.936971 0.175019 0.289305
v 0.936230 0.169312 0.299152
v 0.935049 0.172854 0.289738
v 0.936544 0.170561 0.296004
v 0.936270 0.171600 0.292914
v 0.934757 0.168331 0.297962
v 0.933797 0.171225 0.291359
v 0.933825 0.168130 0.295745
v 0.933432 0.169535 0.293283
v 0.883616 0.188945 0.316737
v 0.881712 0.186614 0.315931
v 0.879948 0.184554 0.314255
v 0.879682 0.183801 0.311388
v 0.880647 0.184163 0.308466
v 0.886257 0.191723 0.317251
v 0.888129 0.193459 0.316849
v 0.890239 0.195636 0.315386
v 0.892320 0.197881 0.313129
v 0.893765 0.200055 0.311182
v 0.881978 0.185266 0.305859
v 0.885193 0.187905 0.303835
v 0.889546 0.191712 0.304058
v 0.892775 0.195185 0.305226
v 0.894548 0.198090 0.307207
v 0.895223 0.199417 0.308773
v 0.880251 0.202534 0.319807
v 0.878228 0.200740 0.320277
v 0.876661 0.198903 0.319880
v 0.874845 0.196707 0.319104
v 0.873487 0.194081 0.317316
v 0.872214 0.191514 0.315158
v 0.872394 0.190815 0.313357
v 0.872997 0.190910 0.311858
v 0.874706 0.191948 0.310058
v 0.876792 0.193286 0.309207
v 0.880144 0.196283 0.309350
v 0.881927 0.199407 0.310256
v 0.881947 0.202907 0.312160
v 0.881918 0.204841 0.313734
v 0.882959 0.205495 0.315375
v 0.881903 0.203672 0.317768
v 0.875479 0.192568 0.312265
v 0.877571 0.194929 0.313421
v 0.879250 0.197569 0.314659
v 0.880331 0.199984 0.315717
v 0.880931 0.201840 0.316779
v 0.940736 0.179012 0.299462
v 0.940796 0.178093 0.300111
v 0.939872 0.178133 0.301456
v 0.938408 0.178876 0.302489
v 0.938269 0.180114 0.302578
v 0.938166 0.181108 0.302076
v 0.939067 0.181200 0.300927
v 0.939892 0.180420 0.299648
v 0.936463 0.181357 0.292054
v 0.937946 0.180424 0.292147
v 0.938584 0.180744 0.293189
v 0.938103 0.181556 0.294294
v 0.937038 0.182602 0.294581
v 0.935760 0.183479 0.294464
v 0.935239 0.183490 0.293521
v 0.935449 0.182546 0.292574
f 58 57 2
f 58 2 1
f 1 5 59
f 1 59 58
f 57 55 29
f 57 29 2
f 5 7 60
f 5 60 59
f 7 9 61
f 7 61 60
f 9 11 62
f 9 62 61
f 11 13 64
f 11 64 62
f 13 15 63
f 13 63 64
f 15 17 49
f 15 49 63
f 17 19 50
f 17 50 49
f 19 21 51
f 19 51 50
f 21 23 52
f 21 52 51
f 23 32 53
f 23 53 52
f 25 27 56
f 25 56 54
f 54 53 32
f 54 32 25
f 27 29 55
f 27 55 56
f 98 97 81
f 98 81 82
f 99 98 82
f 99 82 83
f 100 99 83
f 100 83 84
f 101 100 84
f 101 84 85
f 102 101 85
f 102 85 86
f 103 102 86
f 103 86 87
f 104 103 87
f 104 87 88
f 105 104 88
f 105 88 89
f 106 105 89
f 106 89 90
f 107 106 90
f 107 90 91
f 108 107 91
f 108 91 92
f 109 108 92
f 109 92 93
f 110 109 93
f 110 93 94
f 111 110 94
f 111 94 95
f 112 111 95
f 112 95 96
f 96 81 97
f 96 97 112
f 114 113 97
f 114 97 98
f 115 114 98
f 115 98 99
f 116 115 99
f 116 99 100
f 117 116 100
f 117 100 101
f 118 117 101
f 118 101 102
f 119 118 102
f 119 102 103
f 120 119 103
f 120 103 104
f 121 120 104
f 121 104 105
f 122 121 105
f 122 105 106
f 123 122 106
f 123 106 107
f 124 123 107
f 124 107 108
f 125 124 108
f 125 108 109
f 126 125 109
f 126 109 110
f 127 126 110
f 127 110 111
f 128 127 111
f 128 111 112
f 112 97 113
f 112 113 128
f 124 125 141
f 124 141 140
f 142 141 125
f 142 125 126
f 168 169 156
f 168 156 155
f 140 141 168
f 140 168 155
f 139 138 122
f 139 122 123
f 123 124 140
f 123 140 139
f 139 140 155
f 139 155 173
f 121 122 138
f 121 138 137
f 174 138 139
f 174 139 173
f 168 141 142
f 168 142 172
f 143 142 126
f 143 126 127
f 144 143 127
f 144 127 128
f 176 172 142
f 176 142 143
f 175 137 138
f 175 138 174
f 120 121 137
f 120 137 136
f 119 120 136
f 119 136 135
f 118 119 135
f 118 135 134
f 117 118 134
f 117 134 133
f 116 117 133
f 116 133 132
f 115 116 132
f 115 132 131
f 114 115 131
f 114 131 130
f 113 114 130
f 113 130 129
f 129 144 128
f 129 128 113
f 178 176 143
f 178 143 144
f 178 144 129
f 178 129 186
f 186 129 130
f 186 130 185
f 185 130 131
f 185 131 184
f 184 131 132
f 184 132 183
f 183 132 133
f 183 133 182
f 182 133 134
f 182 134 181
f 181 134 135
f 181 135 180
f 180 135 136
f 180 136 179
f 136 137 175
f 136 175 179
f 187 177 178
f 187 178 186
f 158 156 169
f 158 169 170
f 194 179 175
f 194 175 154
f 171 177 187
f 171 187 195
f 188 187 186
f 188 186 185
f 194 154 157
f 194 157 198
f 193 180 179
f 193 179 194
f 170 171 195
f 170 195 196
f 158 170 196
f 158 196 197
f 198 157 158
f 198 158 197
f 193 194 198
f 193 198 200
f 189 188 185
f 189 185 184
f 199 195 187
f 199 187 188
f 192 181 180
f 192 180 193
f 199 188 189
f 199 189 203
f 190 189 184
f 190 184 183
f 204 192 193
f 204 193 200
f 191 182 181
f 191 181 192
f 191 190 183
f 191 183 182
f 196 195 199
f 196 199 201
f 201 199 203
f 201 203 205
f 205 203 189
f 205 189 190
f 197 196 201
f 197 201 202
f 202 201 205
f 202 205 206
f 200 198 197
f 200 197 202
f 206 204 200
f 206 200 202
f 206 205 190
f 206 190 191
f 191 192 204
f 191 204 206
f 49 50 34
f 49 34 33
f 33 34 214
f 33 214 215
f 47 63 49
f 47 49 33
f 215 216 47
f 215 47 33
f 50 51 35
f 50 35 34
f 34 35 213
f 34 213 214
f 51 52 36
f 51 36 35
f 35 36 212
f 35 212 213
f 52 53 37
f 52 37 36
f 36 37 207
f 36 207 212
f 53 54 38
f 53 38 37
f 37 38 208
f 37 208 207
f 54 56 40
f 54 40 38
f 38 40 209
f 38 209 208
f 40 56 55
f 40 55 39
f 39 55 57
f 39 57 41
f 210 209 40
f 210 40 39
f 39 41 211
f 39 211 210
f 57 58 42
f 57 42 41
f 41 42 217
f 41 217 211
f 58 59 43
f 58 43 42
f 42 43 218
f 42 218 217
f 59 60 44
f 59 44 43
f 43 44 219
f 43 219 218
f 60 61 45
f 60 45 44
f 44 45 220
f 44 220 219
f 61 62 46
f 61 46 45
f 45 46 221
f 45 221 220
f 62 64 48
f 62 48 46
f 46 48 222
f 46 222 221
f 47 48 64
f 47 64 63
f 216 222 48
f 216 48 47
f 65 66 82
f 65 82 81
f 207 208 66
f 207 66 65
f 81 96 80
f 81 80 65
f 65 80 212
f 65 212 207
f 66 67 83
f 66 83 82
f 208 209 67
f 208 67 66
f 67 68 84
f 67 84 83
f 209 210 68
f 209 68 67
f 68 69 85
f 68 85 84
f 210 211 69
f 210 69 68
f 69 70 86
f 69 86 85
f 211 217 70
f 211 70 69
f 70 71 87
f 70 87 86
f 217 218 71
f 217 71 70
f 71 72 88
f 71 88 87
f 218 219 72
f 218 72 71
f 72 73 89
f 72 89 88
f 219 220 73
f 219 73 72
f 73 74 90
f 73 90 89
f 220 221 74
f 220 74 73
f 74 75 91
f 74 91 90
f 221 222 75
f 221 75 74
f 75 76 92
f 75 92 91
f 222 216 76
f 222 76 75
f 76 77 93
f 76 93 92
f 216 215 77
f 216 77 76
f 77 78 94
f 77 94 93
f 215 214 78
f 215 78 77
f 78 79 95
f 78 95 94
f 214 213 79
f 214 79 78
f 79 80 96
f 79 96 95
f 213 212 80
f 213 80 79
f 21 19 20
f 21 20 22
f 23 21 22
f 23 22 24
f 32 23 24
f 32 24 31
f 26 25 32
f 26 32 31
f 27 25 26
f 27 26 28
f 29 27 28
f 29 28 30
f 3 2 29
f 3 29 30
f 1 2 3
f 1 3 4
f 5 1 4
f 5 4 6
f 7 5 6
f 7 6 8
f 9 7 8
f 9 8 10
f 11 9 10
f 11 10 12
f 13 11 12
f 13 12 14
f 15 13 14
f 15 14 16
f 20 19 17
f 20 17 18
f 17 15 16
f 17 16 18
f 229 30 28
f 229 28 228
f 3 30 229
f 3 229 230
f 231 4 3
f 231 3 230
f 6 4 231
f 6 231 232
f 228 28 26
f 228 26 227
f 232 231 230
f 232 230 239
f 239 230 229
f 239 229 228
f 8 6 232
f 8 232 233
f 227 26 31
f 227 31 226
f 233 232 239
f 233 239 240
f 239 228 227
f 239 227 240
f 10 8 233
f 10 233 234
f 226 31 24
f 226 24 225
f 234 233 240
f 234 240 241
f 240 227 226
f 240 226 241
f 12 10 234
f 12 234 235
f 224 22 20
f 224 20 223
f 225 24 22
f 225 22 224
f 241 226 225
f 241 225 242
f 223 20 18
f 223 18 238
f 238 18 16
f 238 16 237
f 242 225 224
f 242 224 243
f 235 234 241
f 235 241 242
f 14 12 235
f 14 235 236
f 236 235 242
f 236 242 243
f 237 16 14
f 237 14 236
f 243 238 237
f 243 237 236
f 224 223 238
f 224 238 243
f 171 170 167
f 171 167 166
f 177 171 166
f 177 166 165
f 246 165 166
f 246 166 245
f 178 177 165
f 178 165 164
f 164 165 246
f 164 246 247
f 176 178 164
f 176 164 162
f 248 162 164
f 248 164 247
f 172 176 162
f 172 162 161
f 161 162 248
f 161 248 249
f 248 247 246
f 248 246 163
f 168 172 161
f 168 161 160
f 250 160 161
f 250 161 249
f 250 249 248
f 250 248 163
f 169 168 160
f 169 160 159
f 159 167 170
f 159 170 169
f 245 166 167
f 245 167 244
f 159 160 250
f 159 250 251
f 244 163 246
f 244 246 245
f 251 250 163
f 251 163 244
f 244 167 159
f 244 159 251
f 157 154 148
f 157 148 149
f 158 157 149
f 158 149 150
f 150 149 253
f 150 253 254
f 156 158 150
f 156 150 151
f 151 150 254
f 151 254 255
f 155 156 151
f 155 151 152
f 152 151 255
f 152 255 256
f 173 155 152
f 173 152 147
f 147 152 256
f 147 256 257
f 174 173 147
f 174 147 146
f 153 256 255
f 153 255 254
f 258 146 147
f 258 147 257
f 258 257 256
f 258 256 153
f 252 153 254
f 252 254 253
f 253 149 148
f 253 148 252
f 145 148 154
f 145 154 175
f 259 258 153
f 259 153 252
f 145 146 258
f 145 258 259
f 175 174 146
f 175 146 145
f 259 252 148
f 259 148 145
