# _1st_Metacarpal_R posed
v -0.801795 0.167367 0.419989
v -0.796186 0.165144 0.416588
v -0.805614 0.166817 0.420176
v -0.798193 0.163960 0.415946
v -0.794560 0.157650 0.419341
v -0.793128 0.160574 0.418475
v -0.794603 0.153855 0.423847
v -0.793194 0.157743 0.421968
v -0.798360 0.154907 0.427545
v -0.796691 0.158832 0.424952
v -0.803092 0.158636 0.428268
v -0.800743 0.162085 0.425534
v -0.805257 0.162868 0.425207
v -0.802776 0.165641 0.423193
v -0.799269 0.166601 0.418253
v -0.801834 0.165076 0.418853
v -0.799014 0.164795 0.423381
v -0.800509 0.167718 0.421292
v -0.799484 0.168883 0.418569
v -0.797431 0.168795 0.416321
v -0.794421 0.166934 0.415241
v -0.791259 0.163112 0.416434
v -0.791818 0.160906 0.419865
v -0.795146 0.161782 0.422733
v -0.796804 0.167580 0.421375
v -0.797812 0.170254 0.419021
v -0.796771 0.171288 0.416263
v -0.795097 0.171696 0.413741
v -0.792159 0.169504 0.413092
v -0.789107 0.165916 0.414271
v -0.789772 0.163785 0.417748
v -0.792970 0.164406 0.420913
v -0.794156 0.170687 0.419794
v -0.795064 0.173431 0.416894
v -0.794177 0.174941 0.413484
v -0.792389 0.175621 0.410407
v -0.789219 0.173142 0.409847
v -0.786267 0.169149 0.411778
v -0.786817 0.166812 0.415504
v -0.790048 0.167097 0.419350
v -0.803044 0.162670 0.419942
v -0.799769 0.160518 0.419046
v -0.805669 0.162888 0.422079
v -0.806473 0.160524 0.426109
v -0.804270 0.156314 0.429022
v -0.799982 0.152487 0.428528
v -0.796862 0.152349 0.424722
v -0.796927 0.155979 0.420794
v -0.783485 0.169536 0.413440
v -0.783438 0.171878 0.409543
v -0.786643 0.176111 0.407293
v -0.790538 0.180234 0.407267
v -0.792696 0.179509 0.410886
v -0.792756 0.177113 0.415314
v -0.790915 0.173868 0.418225
v -0.786642 0.170359 0.417075
v -0.788304 0.181126 0.406230
v -0.790878 0.180917 0.409697
v -0.790709 0.178411 0.413633
v -0.788936 0.175881 0.415422
v -0.785556 0.173618 0.414387
v -0.782976 0.172872 0.411293
v -0.783733 0.174382 0.408560
v -0.785758 0.177339 0.406818
v -0.787894 0.177490 0.411932
v -0.789411 0.178493 0.411505
v -0.789443 0.179377 0.409209
v -0.788282 0.179571 0.407349
v -0.786671 0.177473 0.407680
v -0.785113 0.175563 0.408673
v -0.784622 0.175728 0.409474
v -0.785837 0.175977 0.411912
v -0.787202 0.177786 0.408884
v -0.803940 0.159755 0.423761
v -0.805106 0.158745 0.426139
v -0.803366 0.155668 0.427804
v -0.800763 0.153343 0.427582
v -0.799132 0.153887 0.425113
v -0.798613 0.155961 0.422385
v -0.800410 0.158596 0.421663
v -0.802418 0.160369 0.421807
v -0.801563 0.156629 0.424996
v -0.797964 0.161862 0.424305
v -0.796167 0.164593 0.422246
v -0.799090 0.167810 0.421513
v -0.801190 0.165208 0.423658
v -0.801253 0.167537 0.420749
v -0.798813 0.169554 0.418823
v -0.799616 0.168072 0.418250
v -0.797465 0.170322 0.416191
v -0.796771 0.167170 0.416197
v -0.794954 0.169545 0.414252
v -0.793730 0.163962 0.416697
v -0.791695 0.166277 0.414681
v -0.791814 0.160116 0.419181
v -0.793933 0.159511 0.422505
v -0.790178 0.162985 0.417149
v -0.792286 0.162330 0.420520
v -0.798555 0.165468 0.416961
v -0.802664 0.166897 0.419607
v -0.803870 0.165680 0.422344
v -0.803477 0.162354 0.426086
v -0.799699 0.158514 0.426886
v -0.795466 0.155961 0.424920
v -0.793047 0.156672 0.420862
v -0.795459 0.161771 0.417861
v -0.787800 0.166184 0.414806
v -0.789166 0.169460 0.412115
v -0.792294 0.172752 0.411434
v -0.794738 0.173433 0.413455
v -0.795993 0.172393 0.416420
v -0.796434 0.170777 0.419350
v -0.793699 0.167344 0.420563
v -0.789746 0.165121 0.418562
v -0.792477 0.178044 0.410140
v -0.794082 0.176786 0.414141
v -0.793801 0.174440 0.417661
v -0.790459 0.170187 0.419218
v -0.786331 0.167994 0.416456
v -0.784483 0.169061 0.412446
v -0.786191 0.172639 0.409365
v -0.789335 0.177005 0.407595
v -0.790888 0.176463 0.415991
v -0.784018 0.174988 0.407471
v -0.782012 0.171784 0.410502
v -0.783740 0.171107 0.414284
v -0.787739 0.173304 0.416918
v -0.783975 0.174540 0.409440
v -0.784166 0.174374 0.411955
v -0.789243 0.177672 0.413446
v -0.787100 0.175827 0.413660
v -0.788010 0.178640 0.408088
v -0.785430 0.176084 0.407897
v -0.785795 0.176611 0.408463
v -0.786443 0.176998 0.410192
v -0.788620 0.178369 0.410240
v -0.787338 0.179502 0.405817
v -0.791128 0.181126 0.408171
v -0.787337 0.178896 0.406862
v -0.789434 0.180595 0.407917
v -0.792255 0.179773 0.412629
v -0.790286 0.179323 0.410908
v -0.806992 0.164077 0.423164
v -0.805557 0.159702 0.427710
v -0.801688 0.154836 0.429368
v -0.796962 0.152158 0.426787
v -0.794769 0.153900 0.421731
v -0.797069 0.159523 0.418319
v -0.800547 0.163246 0.417895
v -0.804465 0.164821 0.419834
v -0.805712 0.160569 0.424504
v -0.798858 0.157818 0.420722
v -0.801414 0.160607 0.420504
v -0.803856 0.161452 0.421860
v -0.798955 0.152510 0.426609
v -0.797659 0.154216 0.423186
v -0.801996 0.158877 0.423097
v -0.805114 0.157755 0.427599
v -0.803677 0.157525 0.425924
v -0.802312 0.154139 0.428717
v -0.801233 0.154557 0.426665
v -0.799801 0.156166 0.423559
v -0.800863 0.167246 0.419185
v -0.797184 0.164769 0.416209
v -0.803595 0.166927 0.420448
v -0.804215 0.166470 0.419291
v -0.796281 0.160601 0.417992
v -0.794658 0.162892 0.417545
v -0.793896 0.159019 0.419199
v -0.792429 0.158551 0.420036
v -0.793720 0.154973 0.421227
v -0.793889 0.155772 0.423028
v -0.794697 0.157876 0.423703
v -0.796253 0.153825 0.426080
v -0.797535 0.156921 0.426302
v -0.798741 0.160337 0.425482
v -0.800758 0.156548 0.428314
v -0.801848 0.160342 0.426942
v -0.802192 0.163915 0.424740
v -0.804791 0.160901 0.427139
v -0.804070 0.164283 0.424297
v -0.802495 0.166765 0.421498
v -0.805391 0.164667 0.422991
v -0.797535 0.166093 0.416914
v -0.800471 0.165684 0.418843
v -0.799385 0.164760 0.416410
v -0.800250 0.166469 0.422634
v -0.800147 0.168425 0.419926
v -0.798614 0.169073 0.417325
v -0.795871 0.168219 0.415290
v -0.792760 0.165051 0.415717
v -0.791076 0.161563 0.418174
v -0.793234 0.160961 0.421512
v -0.797169 0.163246 0.423246
v -0.797816 0.169237 0.420415
v -0.797405 0.170854 0.417650
v -0.796128 0.171721 0.414927
v -0.793675 0.170962 0.412991
v -0.790593 0.167753 0.413539
v -0.789087 0.164509 0.416013
v -0.791104 0.163701 0.419514
v -0.795017 0.165929 0.421369
v -0.795103 0.172565 0.418392
v -0.794983 0.174476 0.415211
v -0.793333 0.175364 0.411862
v -0.790833 0.174881 0.409509
v -0.787610 0.171207 0.410570
v -0.786247 0.167771 0.413578
v -0.788092 0.166572 0.417489
v -0.792198 0.168766 0.419876
v -0.797980 0.166162 0.422343
v -0.799244 0.168917 0.420210
v -0.798207 0.169971 0.417530
v -0.796329 0.170145 0.415090
v -0.793336 0.168098 0.414231
v -0.790232 0.164449 0.415371
v -0.790892 0.162337 0.418826
v -0.794157 0.163126 0.421768
v -0.795496 0.169109 0.420466
v -0.796348 0.171689 0.417915
v -0.795397 0.172896 0.414952
v -0.793720 0.173505 0.412161
v -0.790746 0.171252 0.411593
v -0.787735 0.167548 0.413048
v -0.788420 0.165340 0.416634
v -0.791661 0.165755 0.420138
v -0.799892 0.163469 0.424443
v -0.795916 0.160403 0.423765
v -0.801594 0.166646 0.422259
v -0.800554 0.168030 0.419342
v -0.798348 0.167646 0.417354
v -0.795349 0.165997 0.416048
v -0.792213 0.161900 0.417434
v -0.792547 0.159427 0.420902
v -0.802829 0.164347 0.418864
v -0.799078 0.161942 0.417684
v -0.801415 0.161873 0.419299
v -0.804393 0.163088 0.420781
v -0.806191 0.164925 0.421130
v -0.806465 0.161924 0.425786
v -0.806778 0.162149 0.423980
v -0.805657 0.158644 0.427797
v -0.804039 0.157257 0.429055
v -0.802166 0.154098 0.429331
v -0.799186 0.153041 0.428561
v -0.798018 0.151907 0.426840
v -0.795342 0.152328 0.424329
v -0.796324 0.153932 0.422310
v -0.795566 0.156673 0.419724
v -0.798131 0.158470 0.419452
v -0.784989 0.168122 0.414441
v -0.784686 0.170620 0.410535
v -0.782803 0.170235 0.411470
v -0.784818 0.173863 0.408241
v -0.787805 0.174845 0.408359
v -0.788202 0.178580 0.406454
v -0.791402 0.178206 0.408577
v -0.791655 0.179826 0.408933
v -0.793463 0.177640 0.411952
v -0.793242 0.178760 0.413345
v -0.793790 0.175390 0.415874
v -0.792295 0.175923 0.416889
v -0.792652 0.172325 0.419322
v -0.788826 0.171928 0.417915
v -0.784857 0.169645 0.415258
v -0.788165 0.168563 0.418385
v -0.789627 0.181144 0.406510
v -0.792077 0.180713 0.410203
v -0.791086 0.179667 0.411688
v -0.791604 0.177894 0.414564
v -0.790028 0.177111 0.414945
v -0.789718 0.175053 0.416887
v -0.787401 0.174634 0.415166
v -0.785577 0.171836 0.416114
v -0.783775 0.172847 0.413021
v -0.782626 0.171112 0.412429
v -0.782899 0.173417 0.409762
v -0.782766 0.173279 0.408781
v -0.784739 0.175620 0.407716
v -0.785458 0.177236 0.406286
v -0.786798 0.179302 0.406129
v -0.789986 0.181719 0.407623
v -0.788347 0.176832 0.413817
v -0.789923 0.178528 0.412412
v -0.788775 0.178067 0.411668
v -0.789512 0.178910 0.410387
v -0.790137 0.180155 0.409343
v -0.788894 0.179572 0.408124
v -0.788280 0.180071 0.406965
v -0.787628 0.178660 0.407411
v -0.786330 0.177396 0.407268
v -0.785768 0.176354 0.408207
v -0.784635 0.175051 0.408668
v -0.784811 0.175528 0.409020
v -0.783476 0.174243 0.410449
v -0.785225 0.175952 0.410822
v -0.785709 0.174956 0.413018
v -0.786802 0.176811 0.411897
v -0.785905 0.176857 0.408992
v -0.787543 0.177701 0.410226
v -0.788452 0.178589 0.409081
v -0.786867 0.177595 0.408150
v -0.805667 0.159324 0.426168
v -0.804890 0.161242 0.422950
v -0.804692 0.159156 0.425105
v -0.804417 0.157354 0.427032
v -0.803946 0.155886 0.428545
v -0.801938 0.154218 0.427870
v -0.800501 0.152879 0.428022
v -0.799961 0.153397 0.426546
v -0.798025 0.153024 0.424931
v -0.798761 0.154932 0.423658
v -0.797972 0.155929 0.421721
v -0.799393 0.157178 0.421992
v -0.800150 0.159479 0.420347
v -0.801474 0.159631 0.421716
v -0.803063 0.160142 0.422653
v -0.802671 0.161172 0.421110
v -0.802830 0.158201 0.424519
v -0.800888 0.157534 0.423370
v -0.800370 0.155125 0.425221
v -0.802638 0.155955 0.426591
f 230 89 163
f 230 163 1
f 1 163 100
f 1 100 165
f 1 165 101
f 1 101 182
f 1 182 87
f 1 87 230
f 165 100 166
f 165 166 3
f 3 166 150
f 3 150 239
f 3 239 143
f 3 143 183
f 183 101 165
f 183 165 3
f 164 106 167
f 164 167 4
f 4 167 148
f 4 148 236
f 4 186 99
f 4 99 164
f 236 149 186
f 236 186 4
f 5 169 105
f 5 105 171
f 167 106 169
f 167 169 5
f 5 171 147
f 5 147 249
f 5 249 148
f 5 148 167
f 233 95 170
f 233 170 6
f 6 170 105
f 6 105 169
f 168 93 233
f 168 233 6
f 169 106 168
f 169 168 6
f 7 172 104
f 7 104 174
f 171 105 172
f 171 172 7
f 7 174 146
f 7 146 247
f 7 247 147
f 7 147 171
f 234 96 173
f 234 173 8
f 8 173 104
f 8 104 172
f 8 170 95
f 8 95 234
f 172 105 170
f 172 170 8
f 9 175 103
f 9 103 177
f 174 104 175
f 174 175 9
f 9 177 145
f 9 145 245
f 9 245 146
f 9 146 174
f 228 83 176
f 228 176 10
f 10 176 103
f 10 103 175
f 10 173 96
f 10 96 228
f 175 104 173
f 175 173 10
f 11 178 102
f 11 102 180
f 177 103 178
f 177 178 11
f 11 180 144
f 11 144 243
f 11 243 145
f 11 145 177
f 227 86 179
f 227 179 12
f 12 179 102
f 12 102 178
f 12 176 83
f 12 83 227
f 178 103 176
f 178 176 12
f 13 181 101
f 13 101 183
f 180 102 181
f 180 181 13
f 13 183 143
f 13 143 240
f 13 240 144
f 13 144 180
f 229 87 182
f 229 182 14
f 14 182 101
f 14 101 181
f 14 179 86
f 14 86 229
f 181 102 179
f 181 179 14
f 184 99 185
f 184 185 15
f 15 185 100
f 15 100 163
f 163 89 231
f 163 231 15
f 15 231 91
f 15 91 184
f 186 149 235
f 186 235 16
f 16 235 150
f 16 150 166
f 16 166 100
f 16 100 185
f 16 185 99
f 16 99 186
f 211 85 187
f 211 187 17
f 17 187 86
f 17 86 227
f 194 84 211
f 194 211 17
f 17 227 83
f 17 83 194
f 18 188 87
f 18 87 229
f 212 88 188
f 212 188 18
f 187 85 212
f 187 212 18
f 18 229 86
f 18 86 187
f 19 189 89
f 19 89 230
f 213 90 189
f 213 189 19
f 188 88 213
f 188 213 19
f 19 230 87
f 19 87 188
f 20 190 91
f 20 91 231
f 214 92 190
f 214 190 20
f 189 90 214
f 189 214 20
f 231 89 189
f 231 189 20
f 21 191 93
f 21 93 232
f 215 94 191
f 215 191 21
f 190 92 215
f 190 215 21
f 232 91 190
f 232 190 21
f 22 192 95
f 22 95 233
f 216 97 192
f 216 192 22
f 191 94 216
f 191 216 22
f 233 93 191
f 233 191 22
f 23 193 96
f 23 96 234
f 217 98 193
f 217 193 23
f 192 97 217
f 192 217 23
f 23 234 95
f 23 95 192
f 24 194 83
f 24 83 228
f 218 84 194
f 218 194 24
f 193 98 218
f 193 218 24
f 24 228 96
f 24 96 193
f 25 195 85
f 25 85 211
f 219 112 195
f 219 195 25
f 202 113 219
f 202 219 25
f 211 84 202
f 211 202 25
f 26 196 88
f 26 88 212
f 220 111 196
f 220 196 26
f 195 112 220
f 195 220 26
f 212 85 195
f 212 195 26
f 27 197 90
f 27 90 213
f 221 110 197
f 221 197 27
f 196 111 221
f 196 221 27
f 213 88 196
f 213 196 27
f 28 198 92
f 28 92 214
f 222 109 198
f 222 198 28
f 197 110 222
f 197 222 28
f 214 90 197
f 214 197 28
f 29 199 94
f 29 94 215
f 223 108 199
f 223 199 29
f 198 109 223
f 198 223 29
f 215 92 198
f 215 198 29
f 30 200 97
f 30 97 216
f 224 107 200
f 224 200 30
f 199 108 224
f 199 224 30
f 216 94 199
f 216 199 30
f 31 201 98
f 31 98 217
f 225 114 201
f 225 201 31
f 200 107 225
f 200 225 31
f 217 97 200
f 217 200 31
f 32 202 84
f 32 84 218
f 226 113 202
f 226 202 32
f 201 114 226
f 201 226 32
f 218 98 201
f 218 201 32
f 33 203 112
f 33 112 219
f 263 117 203
f 263 203 33
f 210 118 263
f 210 263 33
f 219 113 210
f 219 210 33
f 34 204 111
f 34 111 220
f 261 116 204
f 261 204 34
f 203 117 261
f 203 261 34
f 220 112 203
f 220 203 34
f 35 205 110
f 35 110 221
f 259 115 205
f 259 205 35
f 204 116 259
f 204 259 35
f 221 111 204
f 221 204 35
f 36 206 109
f 36 109 222
f 257 122 206
f 257 206 36
f 205 115 257
f 205 257 36
f 222 110 205
f 222 205 36
f 37 207 108
f 37 108 223
f 255 121 207
f 255 207 37
f 206 122 255
f 206 255 37
f 223 109 206
f 223 206 37
f 38 208 107
f 38 107 224
f 252 120 208
f 252 208 38
f 207 121 252
f 207 252 38
f 224 108 207
f 224 207 38
f 39 209 114
f 39 114 225
f 251 119 209
f 251 209 39
f 208 120 251
f 208 251 39
f 225 107 208
f 225 208 39
f 40 210 113
f 40 113 226
f 266 118 210
f 266 210 40
f 226 114 209
f 226 209 40
f 40 209 119
f 40 119 266
f 235 149 237
f 235 237 41
f 41 237 153
f 41 153 318
f 41 238 150
f 41 150 235
f 318 154 238
f 318 238 41
f 250 152 315
f 250 315 42
f 42 315 153
f 42 153 237
f 42 236 148
f 42 148 250
f 237 149 236
f 237 236 42
f 43 241 143
f 43 143 239
f 304 151 241
f 304 241 43
f 238 154 304
f 238 304 43
f 239 150 238
f 239 238 43
f 44 242 144
f 44 144 240
f 303 158 242
f 303 242 44
f 241 151 303
f 241 303 44
f 44 240 143
f 44 143 241
f 45 244 145
f 45 145 243
f 307 160 244
f 307 244 45
f 242 158 307
f 242 307 45
f 243 144 242
f 243 242 45
f 46 246 146
f 46 146 245
f 309 155 246
f 309 246 46
f 244 160 309
f 244 309 46
f 245 145 244
f 245 244 46
f 47 248 147
f 47 147 247
f 311 156 248
f 311 248 47
f 246 155 311
f 246 311 47
f 247 146 246
f 247 246 47
f 48 250 148
f 48 148 249
f 313 152 250
f 313 250 48
f 248 156 313
f 248 313 48
f 249 147 248
f 249 248 48
f 251 120 253
f 251 253 49
f 49 253 125
f 49 125 276
f 49 265 119
f 49 119 251
f 276 126 265
f 276 265 49
f 252 121 254
f 252 254 50
f 50 254 124
f 50 124 278
f 50 278 125
f 50 125 253
f 253 120 252
f 253 252 50
f 255 122 256
f 255 256 51
f 51 256 137
f 51 137 280
f 51 280 124
f 51 124 254
f 51 254 121
f 51 121 255
f 257 115 258
f 257 258 52
f 52 258 138
f 52 138 267
f 52 267 137
f 52 137 256
f 52 256 122
f 52 122 257
f 259 116 260
f 259 260 53
f 53 260 141
f 53 141 268
f 53 268 138
f 53 138 258
f 53 258 115
f 53 115 259
f 261 117 262
f 261 262 54
f 54 262 123
f 54 123 270
f 54 270 141
f 54 141 260
f 54 260 116
f 54 116 261
f 263 118 264
f 263 264 55
f 55 264 127
f 55 127 272
f 55 272 123
f 55 123 262
f 55 262 117
f 55 117 263
f 264 118 266
f 264 266 56
f 56 266 119
f 56 119 265
f 265 126 274
f 265 274 56
f 56 274 127
f 56 127 264
f 57 289 139
f 57 139 281
f 282 140 289
f 282 289 57
f 281 137 267
f 281 267 57
f 57 267 138
f 57 138 282
f 268 141 269
f 268 269 58
f 58 269 142
f 58 142 287
f 58 282 138
f 58 138 268
f 287 140 282
f 287 282 58
f 270 123 271
f 270 271 59
f 59 271 130
f 59 130 284
f 59 284 142
f 59 142 269
f 59 269 141
f 59 141 270
f 272 127 273
f 272 273 60
f 60 273 131
f 60 131 283
f 60 283 130
f 60 130 271
f 60 271 123
f 60 123 272
f 274 126 275
f 274 275 61
f 61 275 129
f 61 129 297
f 61 297 131
f 61 131 273
f 61 273 127
f 61 127 274
f 276 125 277
f 276 277 62
f 62 277 128
f 62 128 295
f 62 295 129
f 62 129 275
f 62 275 126
f 62 126 276
f 278 124 279
f 278 279 63
f 63 279 133
f 63 133 293
f 63 293 128
f 63 128 277
f 63 277 125
f 63 125 278
f 280 137 281
f 280 281 64
f 64 281 139
f 64 139 291
f 64 291 133
f 64 133 279
f 64 279 124
f 64 124 280
f 65 285 130
f 65 130 283
f 300 136 285
f 300 285 65
f 298 135 300
f 298 300 65
f 65 283 131
f 65 131 298
f 285 136 286
f 285 286 66
f 66 286 142
f 66 142 284
f 66 284 130
f 66 130 285
f 301 132 288
f 301 288 67
f 67 288 140
f 67 140 287
f 67 286 136
f 67 136 301
f 287 142 286
f 287 286 67
f 288 132 290
f 288 290 68
f 68 290 139
f 68 139 289
f 289 140 288
f 289 288 68
f 69 292 133
f 69 133 291
f 302 134 292
f 302 292 69
f 69 290 132
f 69 132 302
f 291 139 290
f 291 290 69
f 70 294 128
f 70 128 293
f 292 134 294
f 292 294 70
f 293 133 292
f 293 292 70
f 71 296 129
f 71 129 295
f 299 135 296
f 299 296 71
f 294 134 299
f 294 299 71
f 295 128 294
f 295 294 71
f 72 298 131
f 72 131 297
f 296 135 298
f 296 298 72
f 297 129 296
f 297 296 72
f 302 132 301
f 302 301 73
f 73 301 136
f 73 136 300
f 299 134 302
f 299 302 73
f 300 135 299
f 300 299 73
f 74 305 151
f 74 151 304
f 319 159 305
f 319 305 74
f 304 154 317
f 304 317 74
f 74 317 157
f 74 157 319
f 75 306 158
f 75 158 303
f 305 159 306
f 305 306 75
f 75 303 151
f 75 151 305
f 76 308 160
f 76 160 307
f 322 161 308
f 322 308 76
f 307 158 306
f 307 306 76
f 76 306 159
f 76 159 322
f 77 310 155
f 77 155 309
f 308 161 310
f 308 310 77
f 309 160 308
f 309 308 77
f 78 312 156
f 78 156 311
f 321 162 312
f 321 312 78
f 311 155 310
f 311 310 78
f 78 310 161
f 78 161 321
f 79 314 152
f 79 152 313
f 312 162 314
f 312 314 79
f 313 156 312
f 313 312 79
f 80 316 153
f 80 153 315
f 320 157 316
f 320 316 80
f 315 152 314
f 315 314 80
f 80 314 162
f 80 162 320
f 81 318 153
f 81 153 316
f 317 154 318
f 317 318 81
f 81 316 157
f 81 157 317
f 319 157 320
f 319 320 82
f 82 320 162
f 82 162 321
f 82 321 161
f 82 161 322
f 82 322 159
f 82 159 319
f 232 2 184
f 232 184 91
f 168 2 232
f 168 232 93
f 184 2 164
f 184 164 99
f 164 2 168
f 164 168 106
