# _1st_Metatarsal_L rest
v 0.105351 -1.324876 0.104540
v 0.102922 -1.325040 0.104244
v 0.103314 -1.326221 0.103866
v 0.105380 -1.326070 0.104092
v 0.108422 -1.326358 0.104976
v 0.107679 -1.327147 0.104534
v 0.110243 -1.330178 0.105467
v 0.109149 -1.330736 0.104843
v 0.111646 -1.334002 0.104403
v 0.110508 -1.333361 0.104197
v 0.112955 -1.337383 0.102340
v 0.111630 -1.336284 0.102123
v 0.112246 -1.338936 0.102087
v 0.110913 -1.338411 0.101675
v 0.109971 -1.340285 0.104091
v 0.109269 -1.339692 0.103127
v 0.106399 -1.340967 0.104468
v 0.106294 -1.340235 0.103618
v 0.103538 -1.340389 0.103898
v 0.103688 -1.339605 0.103511
v 0.100897 -1.339237 0.103731
v 0.101569 -1.338518 0.103352
v 0.099557 -1.337105 0.103529
v 0.100560 -1.336801 0.103021
v 0.098884 -1.331112 0.103385
v 0.099937 -1.331493 0.102781
v 0.099226 -1.328361 0.103585
v 0.100141 -1.328726 0.103202
v 0.100507 -1.325985 0.103902
v 0.101302 -1.327018 0.103641
v 0.100413 -1.333978 0.102800
v 0.099492 -1.333922 0.103309
v 0.106752 -1.339407 0.106665
v 0.104068 -1.338495 0.106572
v 0.101571 -1.337865 0.106318
v 0.100156 -1.336248 0.106047
v 0.099422 -1.333698 0.105628
v 0.099083 -1.331157 0.105712
v 0.100312 -1.326102 0.105986
v 0.098952 -1.328462 0.105621
v 0.102654 -1.325229 0.106370
v 0.104857 -1.324997 0.106631
v 0.107954 -1.326437 0.107341
v 0.109854 -1.329985 0.108061
v 0.111051 -1.333305 0.108650
v 0.111807 -1.336821 0.108655
v 0.109557 -1.339661 0.106378
v 0.111170 -1.338742 0.108063
v 0.106324 -1.340586 0.106130
v 0.103450 -1.339733 0.105917
v 0.100753 -1.338909 0.105359
v 0.099446 -1.336891 0.105101
v 0.099037 -1.333808 0.104709
v 0.098696 -1.331177 0.104738
v 0.100211 -1.325699 0.104890
v 0.098782 -1.328344 0.104766
v 0.102669 -1.324715 0.105400
v 0.105047 -1.324525 0.105865
v 0.108513 -1.326003 0.106412
v 0.110752 -1.329891 0.106863
v 0.112082 -1.333712 0.106751
v 0.112844 -1.337607 0.105507
v 0.109610 -1.340296 0.105825
v 0.111967 -1.339391 0.105224
v 0.100638 -1.332893 0.113074
v 0.100625 -1.331259 0.113015
v 0.101204 -1.329783 0.112937
v 0.102120 -1.328491 0.112851
v 0.103450 -1.327478 0.112758
v 0.105232 -1.326995 0.112610
v 0.107141 -1.327517 0.112586
v 0.108700 -1.329977 0.112596
v 0.109396 -1.332597 0.112462
v 0.109478 -1.334241 0.112518
v 0.109247 -1.335485 0.112680
v 0.108420 -1.336487 0.112795
v 0.106718 -1.336813 0.112944
v 0.104520 -1.336620 0.113029
v 0.102966 -1.335830 0.113073
v 0.101709 -1.334828 0.113095
v 0.101184 -1.333061 0.118458
v 0.101304 -1.331463 0.118391
v 0.101966 -1.330110 0.118303
v 0.102894 -1.329005 0.118209
v 0.104134 -1.328236 0.118112
v 0.105620 -1.327951 0.118019
v 0.107233 -1.328173 0.117938
v 0.108712 -1.329895 0.117971
v 0.109112 -1.331974 0.118063
v 0.108992 -1.333537 0.118174
v 0.108758 -1.334893 0.118177
v 0.108311 -1.335824 0.118219
v 0.107071 -1.336546 0.118251
v 0.105159 -1.336364 0.118347
v 0.103637 -1.335675 0.118412
v 0.102363 -1.334857 0.118457
v 0.101747 -1.333340 0.123245
v 0.101935 -1.331726 0.123140
v 0.102614 -1.330376 0.122986
v 0.103618 -1.329375 0.122811
v 0.104794 -1.328710 0.122634
v 0.106106 -1.328554 0.122471
v 0.107525 -1.328728 0.122312
v 0.108882 -1.330421 0.122283
v 0.109348 -1.332402 0.122407
v 0.109382 -1.333726 0.122469
v 0.109285 -1.334844 0.122518
v 0.108805 -1.335778 0.122587
v 0.107452 -1.336495 0.122768
v 0.105809 -1.336506 0.122924
v 0.104247 -1.335960 0.123064
v 0.102966 -1.335143 0.123183
v 0.102425 -1.334586 0.128179
v 0.102453 -1.332994 0.128487
v 0.103054 -1.331747 0.128589
v 0.104226 -1.330745 0.128731
v 0.105728 -1.330106 0.128667
v 0.107168 -1.330019 0.128373
v 0.108827 -1.330218 0.127987
v 0.110715 -1.331493 0.127412
v 0.111009 -1.333003 0.127084
v 0.110587 -1.334620 0.126875
v 0.110197 -1.335799 0.126670
v 0.109403 -1.336791 0.126562
v 0.108058 -1.337505 0.126689
v 0.106459 -1.337508 0.126905
v 0.104945 -1.337016 0.127298
v 0.103684 -1.336305 0.127671
v 0.102646 -1.336289 0.132557
v 0.102081 -1.334512 0.133128
v 0.102710 -1.332704 0.133712
v 0.104319 -1.331648 0.133716
v 0.105952 -1.331013 0.133567
v 0.107895 -1.330897 0.132785
v 0.110799 -1.331100 0.132218
v 0.113081 -1.332222 0.131563
v 0.113251 -1.334186 0.130867
v 0.112408 -1.336215 0.130266
v 0.111618 -1.337471 0.129976
v 0.110180 -1.338672 0.130000
v 0.108819 -1.339051 0.130171
v 0.107236 -1.339086 0.130423
v 0.105008 -1.338698 0.131029
v 0.103712 -1.337812 0.131678
v 0.113744 -1.336495 0.133454
v 0.113380 -1.337501 0.132669
v 0.112764 -1.338330 0.132968
v 0.113483 -1.335885 0.134590
v 0.112540 -1.336048 0.136020
v 0.111438 -1.337360 0.136180
v 0.111219 -1.338447 0.135220
v 0.111605 -1.338871 0.133914
v 0.113422 -1.337564 0.134835
v 0.113505 -1.334416 0.134632
v 0.110621 -1.339510 0.133541
v 0.110413 -1.338874 0.135066
v 0.112177 -1.335302 0.136655
v 0.110037 -1.337225 0.136818
v 0.109330 -1.339720 0.135696
v 0.109037 -1.340622 0.134642
v 0.107776 -1.341083 0.134226
v 0.106258 -1.340480 0.134667
v 0.107939 -1.341301 0.136634
v 0.105756 -1.339970 0.135518
v 0.106268 -1.339647 0.136955
v 0.107369 -1.339039 0.137634
v 0.108884 -1.338798 0.136939
v 0.109583 -1.340180 0.133512
v 0.109640 -1.339441 0.135109
v 0.109164 -1.337798 0.136917
v 0.106884 -1.337728 0.137735
v 0.107522 -1.340365 0.132455
v 0.112204 -1.338619 0.131367
v 0.113313 -1.337186 0.131436
v 0.113868 -1.335126 0.132266
v 0.105475 -1.340314 0.132788
v 0.104954 -1.338512 0.137232
v 0.103949 -1.339648 0.135106
v 0.113369 -1.332326 0.133348
v 0.111289 -1.331034 0.133873
v 0.108512 -1.330064 0.134128
v 0.106185 -1.330244 0.134727
v 0.104264 -1.331238 0.135623
v 0.103021 -1.333181 0.135862
v 0.102241 -1.335609 0.136007
v 0.102640 -1.337646 0.135832
v 0.103691 -1.337197 0.137889
v 0.102909 -1.335269 0.137886
v 0.103336 -1.333492 0.137364
v 0.104894 -1.331433 0.136887
v 0.106798 -1.330675 0.136204
v 0.109311 -1.330520 0.135441
v 0.111745 -1.331093 0.135423
v 0.113290 -1.332561 0.135317
v 0.105196 -1.336886 0.138187
v 0.107812 -1.336201 0.137870
v 0.110075 -1.335077 0.137532
v 0.112481 -1.333057 0.137007
v 0.104420 -1.335117 0.138173
v 0.111200 -1.331777 0.136790
v 0.106754 -1.334258 0.137991
v 0.108933 -1.333154 0.137627
v 0.104587 -1.333703 0.137845
v 0.109515 -1.331469 0.136681
v 0.105704 -1.332300 0.137542
v 0.107680 -1.331580 0.136990
v 0.100570 -1.333035 0.109336
v 0.099967 -1.331167 0.109358
v 0.099976 -1.329040 0.109322
v 0.101256 -1.327328 0.109376
v 0.103074 -1.326411 0.109530
v 0.101557 -1.335182 0.109472
v 0.102585 -1.336259 0.109622
v 0.104396 -1.337080 0.109667
v 0.106672 -1.337548 0.109657
v 0.108725 -1.337932 0.109450
v 0.105039 -1.326038 0.109590
v 0.107370 -1.327126 0.109866
v 0.108974 -1.330074 0.110261
v 0.109900 -1.332986 0.110426
v 0.110104 -1.335593 0.110268
v 0.109838 -1.337055 0.110193
v 0.104609 -1.338395 0.103425
v 0.103530 -1.337277 0.103250
v 0.102917 -1.335884 0.103215
v 0.102359 -1.334100 0.103202
v 0.102192 -1.331836 0.103484
v 0.102271 -1.329459 0.103806
v 0.102977 -1.328412 0.104036
v 0.103860 -1.327939 0.104156
v 0.105325 -1.328030 0.104333
v 0.106396 -1.328804 0.104595
v 0.107640 -1.331072 0.104795
v 0.108493 -1.333238 0.104409
v 0.108921 -1.335435 0.103266
v 0.108889 -1.336893 0.102703
v 0.108331 -1.338279 0.103105
v 0.106240 -1.338393 0.103519
v 0.104375 -1.329546 0.104495
v 0.104773 -1.331642 0.104495
v 0.105248 -1.333754 0.104281
v 0.105723 -1.335510 0.103939
v 0.105956 -1.336906 0.103633
v 0.108690 -1.340490 0.137258
v 0.107931 -1.340455 0.137549
v 0.107137 -1.340774 0.137097
v 0.106791 -1.341037 0.136197
v 0.107267 -1.341506 0.135764
v 0.107974 -1.341621 0.135425
v 0.108713 -1.341435 0.135823
v 0.109143 -1.340830 0.136449
v 0.113621 -1.336556 0.134757
v 0.113253 -1.336745 0.135718
v 0.112841 -1.337559 0.135885
v 0.112540 -1.338210 0.135392
v 0.112766 -1.338380 0.134582
v 0.113135 -1.338227 0.133733
v 0.113641 -1.337624 0.133512
v 0.113780 -1.336903 0.133918
f 1 2 57
f 1 57 58
f 58 59 5
f 58 5 1
f 2 29 55
f 2 55 57
f 59 60 7
f 59 7 5
f 60 61 9
f 60 9 7
f 61 62 11
f 61 11 9
f 62 64 13
f 62 13 11
f 64 63 15
f 64 15 13
f 63 49 17
f 63 17 15
f 49 50 19
f 49 19 17
f 50 51 21
f 50 21 19
f 51 52 23
f 51 23 21
f 52 53 32
f 52 32 23
f 54 56 27
f 54 27 25
f 25 32 53
f 25 53 54
f 56 55 29
f 56 29 27
f 82 81 97
f 82 97 98
f 83 82 98
f 83 98 99
f 84 83 99
f 84 99 100
f 85 84 100
f 85 100 101
f 86 85 101
f 86 101 102
f 87 86 102
f 87 102 103
f 88 87 103
f 88 103 104
f 89 88 104
f 89 104 105
f 90 89 105
f 90 105 106
f 91 90 106
f 91 106 107
f 92 91 107
f 92 107 108
f 93 92 108
f 93 108 109
f 94 93 109
f 94 109 110
f 95 94 110
f 95 110 111
f 96 95 111
f 96 111 112
f 112 97 81
f 112 81 96
f 98 97 113
f 98 113 114
f 99 98 114
f 99 114 115
f 100 99 115
f 100 115 116
f 101 100 116
f 101 116 117
f 102 101 117
f 102 117 118
f 103 102 118
f 103 118 119
f 104 103 119
f 104 119 120
f 105 104 120
f 105 120 121
f 106 105 121
f 106 121 122
f 107 106 122
f 107 122 123
f 108 107 123
f 108 123 124
f 109 108 124
f 109 124 125
f 110 109 125
f 110 125 126
f 111 110 126
f 111 126 127
f 112 111 127
f 112 127 128
f 128 113 97
f 128 97 112
f 140 141 125
f 140 125 124
f 126 125 141
f 126 141 142
f 155 156 169
f 155 169 168
f 155 168 141
f 155 141 140
f 123 122 138
f 123 138 139
f 139 140 124
f 139 124 123
f 173 155 140
f 173 140 139
f 137 138 122
f 137 122 121
f 173 139 138
f 173 138 174
f 172 142 141
f 172 141 168
f 127 126 142
f 127 142 143
f 128 127 143
f 128 143 144
f 143 142 172
f 143 172 176
f 174 138 137
f 174 137 175
f 136 137 121
f 136 121 120
f 135 136 120
f 135 120 119
f 134 135 119
f 134 119 118
f 133 134 118
f 133 118 117
f 132 133 117
f 132 117 116
f 131 132 116
f 131 116 115
f 130 131 115
f 130 115 114
f 129 130 114
f 129 114 113
f 113 128 144
f 113 144 129
f 144 143 176
f 144 176 178
f 186 129 144
f 186 144 178
f 185 130 129
f 185 129 186
f 184 131 130
f 184 130 185
f 183 132 131
f 183 131 184
f 182 133 132
f 182 132 183
f 181 134 133
f 181 133 182
f 180 135 134
f 180 134 181
f 179 136 135
f 179 135 180
f 179 175 137
f 179 137 136
f 186 178 177
f 186 177 187
f 170 169 156
f 170 156 158
f 154 175 179
f 154 179 194
f 195 187 177
f 195 177 171
f 185 186 187
f 185 187 188
f 198 157 154
f 198 154 194
f 194 179 180
f 194 180 193
f 196 195 171
f 196 171 170
f 197 196 170
f 197 170 158
f 197 158 157
f 197 157 198
f 200 198 194
f 200 194 193
f 184 185 188
f 184 188 189
f 188 187 195
f 188 195 199
f 193 180 181
f 193 181 192
f 203 189 188
f 203 188 199
f 183 184 189
f 183 189 190
f 200 193 192
f 200 192 204
f 192 181 182
f 192 182 191
f 182 183 190
f 182 190 191
f 201 199 195
f 201 195 196
f 205 203 199
f 205 199 201
f 190 189 203
f 190 203 205
f 202 201 196
f 202 196 197
f 206 205 201
f 206 201 202
f 202 197 198
f 202 198 200
f 202 200 204
f 202 204 206
f 191 190 205
f 191 205 206
f 206 204 192
f 206 192 191
f 33 34 50
f 33 50 49
f 215 214 34
f 215 34 33
f 33 49 63
f 33 63 47
f 33 47 216
f 33 216 215
f 34 35 51
f 34 51 50
f 214 213 35
f 214 35 34
f 35 36 52
f 35 52 51
f 213 212 36
f 213 36 35
f 36 37 53
f 36 53 52
f 212 207 37
f 212 37 36
f 37 38 54
f 37 54 53
f 207 208 38
f 207 38 37
f 38 40 56
f 38 56 54
f 208 209 40
f 208 40 38
f 39 55 56
f 39 56 40
f 41 57 55
f 41 55 39
f 39 40 209
f 39 209 210
f 210 211 41
f 210 41 39
f 41 42 58
f 41 58 57
f 211 217 42
f 211 42 41
f 42 43 59
f 42 59 58
f 217 218 43
f 217 43 42
f 43 44 60
f 43 60 59
f 218 219 44
f 218 44 43
f 44 45 61
f 44 61 60
f 219 220 45
f 219 45 44
f 45 46 62
f 45 62 61
f 220 221 46
f 220 46 45
f 46 48 64
f 46 64 62
f 221 222 48
f 221 48 46
f 63 64 48
f 63 48 47
f 47 48 222
f 47 222 216
f 81 82 66
f 81 66 65
f 65 66 208
f 65 208 207
f 65 80 96
f 65 96 81
f 207 212 80
f 207 80 65
f 82 83 67
f 82 67 66
f 66 67 209
f 66 209 208
f 83 84 68
f 83 68 67
f 67 68 210
f 67 210 209
f 84 85 69
f 84 69 68
f 68 69 211
f 68 211 210
f 85 86 70
f 85 70 69
f 69 70 217
f 69 217 211
f 86 87 71
f 86 71 70
f 70 71 218
f 70 218 217
f 87 88 72
f 87 72 71
f 71 72 219
f 71 219 218
f 88 89 73
f 88 73 72
f 72 73 220
f 72 220 219
f 89 90 74
f 89 74 73
f 73 74 221
f 73 221 220
f 90 91 75
f 90 75 74
f 74 75 222
f 74 222 221
f 91 92 76
f 91 76 75
f 75 76 216
f 75 216 222
f 92 93 77
f 92 77 76
f 76 77 215
f 76 215 216
f 93 94 78
f 93 78 77
f 77 78 214
f 77 214 215
f 94 95 79
f 94 79 78
f 78 79 213
f 78 213 214
f 95 96 80
f 95 80 79
f 79 80 212
f 79 212 213
f 22 20 19
f 22 19 21
f 24 22 21
f 24 21 23
f 31 24 23
f 31 23 32
f 31 32 25
f 31 25 26
f 28 26 25
f 28 25 27
f 30 28 27
f 30 27 29
f 30 29 2
f 30 2 3
f 4 3 2
f 4 2 1
f 6 4 1
f 6 1 5
f 8 6 5
f 8 5 7
f 10 8 7
f 10 7 9
f 12 10 9
f 12 9 11
f 14 12 11
f 14 11 13
f 16 14 13
f 16 13 15
f 18 17 19
f 18 19 20
f 18 16 15
f 18 15 17
f 228 28 30
f 228 30 229
f 230 229 30
f 230 30 3
f 230 3 4
f 230 4 231
f 232 231 4
f 232 4 6
f 227 26 28
f 227 28 228
f 239 230 231
f 239 231 232
f 228 229 230
f 228 230 239
f 233 232 6
f 233 6 8
f 226 31 26
f 226 26 227
f 240 239 232
f 240 232 233
f 240 227 228
f 240 228 239
f 234 233 8
f 234 8 10
f 225 24 31
f 225 31 226
f 241 240 233
f 241 233 234
f 241 226 227
f 241 227 240
f 235 234 10
f 235 10 12
f 223 20 22
f 223 22 224
f 224 22 24
f 224 24 225
f 242 225 226
f 242 226 241
f 238 18 20
f 238 20 223
f 237 16 18
f 237 18 238
f 243 224 225
f 243 225 242
f 242 241 234
f 242 234 235
f 236 235 12
f 236 12 14
f 243 242 235
f 243 235 236
f 236 14 16
f 236 16 237
f 236 237 238
f 236 238 243
f 243 238 223
f 243 223 224
f 166 167 170
f 166 170 171
f 165 166 171
f 165 171 177
f 245 166 165
f 245 165 246
f 164 165 177
f 164 177 178
f 247 246 165
f 247 165 164
f 162 164 178
f 162 178 176
f 247 164 162
f 247 162 248
f 161 162 176
f 161 176 172
f 249 248 162
f 249 162 161
f 163 246 247
f 163 247 248
f 160 161 172
f 160 172 168
f 249 161 160
f 249 160 250
f 163 248 249
f 163 249 250
f 159 160 168
f 159 168 169
f 169 170 167
f 169 167 159
f 244 167 166
f 244 166 245
f 251 250 160
f 251 160 159
f 245 246 163
f 245 163 244
f 244 163 250
f 244 250 251
f 251 159 167
f 251 167 244
f 149 148 154
f 149 154 157
f 150 149 157
f 150 157 158
f 254 253 149
f 254 149 150
f 151 150 158
f 151 158 156
f 255 254 150
f 255 150 151
f 152 151 156
f 152 156 155
f 256 255 151
f 256 151 152
f 147 152 155
f 147 155 173
f 257 256 152
f 257 152 147
f 146 147 173
f 146 173 174
f 254 255 256
f 254 256 153
f 257 147 146
f 257 146 258
f 153 256 257
f 153 257 258
f 253 254 153
f 253 153 252
f 252 148 149
f 252 149 253
f 175 154 148
f 175 148 145
f 252 153 258
f 252 258 259
f 259 258 146
f 259 146 145
f 145 146 174
f 145 174 175
f 145 148 252
f 145 252 259
