# _1st_Metacarpal_L posed
v -0.754792 -0.254743 0.366915
v -0.750764 -0.256972 0.362090
v -0.758671 -0.254911 0.367809
v -0.753267 -0.257599 0.361572
v -0.752075 -0.252330 0.355594
v -0.749549 -0.253692 0.357450
v -0.753192 -0.246956 0.353421
v -0.750401 -0.249563 0.355874
v -0.755950 -0.243935 0.356650
v -0.752949 -0.247229 0.358853
v -0.758808 -0.244632 0.361799
v -0.755373 -0.247872 0.363306
v -0.759453 -0.248927 0.365509
v -0.756083 -0.251267 0.366560
v -0.752912 -0.255998 0.364903
v -0.755987 -0.255377 0.364611
v -0.752742 -0.250423 0.364521
v -0.753176 -0.253349 0.367095
v -0.752023 -0.256205 0.367066
v -0.750361 -0.258187 0.365683
v -0.748399 -0.258496 0.362692
v -0.746850 -0.256083 0.358491
v -0.747917 -0.252213 0.357627
v -0.750396 -0.249925 0.360325
v -0.749586 -0.252784 0.365665
v -0.749689 -0.255847 0.367785
v -0.748576 -0.258697 0.367628
v -0.747099 -0.261113 0.366746
v -0.745304 -0.260932 0.363598
v -0.743772 -0.258616 0.359634
v -0.744900 -0.254733 0.358882
v -0.747318 -0.252078 0.361382
v -0.745840 -0.254767 0.367038
v -0.745871 -0.258350 0.369055
v -0.744769 -0.261959 0.369212
v -0.743140 -0.264981 0.368388
v -0.741239 -0.264629 0.364922
v -0.739898 -0.261500 0.360824
v -0.740969 -0.257320 0.359906
v -0.743484 -0.253924 0.362290
v -0.758018 -0.253872 0.363185
v -0.755891 -0.253883 0.359895
v -0.760182 -0.252099 0.364852
v -0.761487 -0.247620 0.364093
v -0.760815 -0.243469 0.360354
v -0.758370 -0.242568 0.355328
v -0.755864 -0.245977 0.353112
v -0.754862 -0.250753 0.355327
v -0.736843 -0.259659 0.360567
v -0.736273 -0.264050 0.361634
v -0.737779 -0.267553 0.365962
v -0.739760 -0.268964 0.370982
v -0.741682 -0.265423 0.372039
v -0.742256 -0.260525 0.371057
v -0.741554 -0.256732 0.368260
v -0.739077 -0.256583 0.363346
v -0.737353 -0.269936 0.370708
v -0.739475 -0.266720 0.372326
v -0.739929 -0.262253 0.371043
v -0.739108 -0.259727 0.368621
v -0.736947 -0.259857 0.365152
v -0.735164 -0.262470 0.362788
v -0.735563 -0.265582 0.363711
v -0.736433 -0.268178 0.366614
v -0.737776 -0.263362 0.368806
v -0.738855 -0.264177 0.370130
v -0.738766 -0.266633 0.370348
v -0.737802 -0.268401 0.369631
v -0.737097 -0.267398 0.367292
v -0.736314 -0.265828 0.365293
v -0.735667 -0.265016 0.365463
v -0.736458 -0.262821 0.366725
v -0.737294 -0.266303 0.368070
v -0.759693 -0.249481 0.361924
v -0.760947 -0.247008 0.362055
v -0.760382 -0.244421 0.359154
v -0.758881 -0.243796 0.356121
v -0.757381 -0.246199 0.355387
v -0.756327 -0.249350 0.356329
v -0.757045 -0.250894 0.359111
v -0.758205 -0.251398 0.361423
v -0.758610 -0.247239 0.358649
v -0.752917 -0.248710 0.361805
v -0.750190 -0.251163 0.363036
v -0.751707 -0.252975 0.366723
v -0.754654 -0.250507 0.365731
v -0.754071 -0.253947 0.367066
v -0.751018 -0.256012 0.367479
v -0.752575 -0.256367 0.366318
v -0.749711 -0.258650 0.367006
v -0.750474 -0.257879 0.363984
v -0.747870 -0.260122 0.364929
v -0.748867 -0.256299 0.360199
v -0.746092 -0.258584 0.360991
v -0.748364 -0.252728 0.356754
v -0.750264 -0.249505 0.357834
v -0.745744 -0.255207 0.358172
v -0.747640 -0.251925 0.359213
v -0.752878 -0.256963 0.363310
v -0.755898 -0.255134 0.366709
v -0.757254 -0.252265 0.366766
v -0.757841 -0.247715 0.364653
v -0.755775 -0.245581 0.360141
v -0.753023 -0.246466 0.355875
v -0.750855 -0.250412 0.354587
v -0.751382 -0.254856 0.359182
v -0.742298 -0.257985 0.359535
v -0.742530 -0.261550 0.362233
v -0.744196 -0.263317 0.366085
v -0.745998 -0.261728 0.368076
v -0.747293 -0.258688 0.368360
v -0.748066 -0.255477 0.367830
v -0.746765 -0.253177 0.364135
v -0.744163 -0.254216 0.360252
v -0.742191 -0.265794 0.370486
v -0.743797 -0.261732 0.370960
v -0.744133 -0.257709 0.369670
v -0.742562 -0.254827 0.365115
v -0.739864 -0.256601 0.361004
v -0.738127 -0.260629 0.360266
v -0.738594 -0.264663 0.363265
v -0.739955 -0.267766 0.367791
v -0.740672 -0.259519 0.369977
v -0.735735 -0.266859 0.364066
v -0.734837 -0.262944 0.361271
v -0.736311 -0.259215 0.362253
v -0.738898 -0.257548 0.366291
v -0.735592 -0.264743 0.364166
v -0.735561 -0.262262 0.364713
v -0.738849 -0.262094 0.369821
v -0.737552 -0.261226 0.367479
v -0.737821 -0.267395 0.368908
v -0.736502 -0.266762 0.365669
v -0.736517 -0.266318 0.366417
v -0.736763 -0.264769 0.367424
v -0.738270 -0.265279 0.369427
v -0.737190 -0.269893 0.368819
v -0.739827 -0.268328 0.372210
v -0.737253 -0.268636 0.368571
v -0.738420 -0.268221 0.371084
v -0.740956 -0.263737 0.372543
v -0.739417 -0.265060 0.371023
v -0.760809 -0.251455 0.366647
v -0.760775 -0.245727 0.363460
v -0.758931 -0.242482 0.358227
v -0.755817 -0.243890 0.353516
v -0.753545 -0.249095 0.352962
v -0.753802 -0.254070 0.357871
v -0.755618 -0.255760 0.362282
v -0.758473 -0.254651 0.365556
v -0.760936 -0.249140 0.363452
v -0.755969 -0.251473 0.357624
v -0.757280 -0.252638 0.360937
v -0.759103 -0.251767 0.362896
v -0.757600 -0.244366 0.354490
v -0.756036 -0.248033 0.354651
v -0.758297 -0.249712 0.360295
v -0.761193 -0.245323 0.361559
v -0.760134 -0.246768 0.360422
v -0.759897 -0.243032 0.357664
v -0.758946 -0.245048 0.357128
v -0.757267 -0.248361 0.357241
v -0.754049 -0.255405 0.366274
v -0.751938 -0.257397 0.362009
v -0.756674 -0.254414 0.367278
v -0.757595 -0.255546 0.366785
v -0.752647 -0.254556 0.358467
v -0.750148 -0.255323 0.359806
v -0.750884 -0.252708 0.356538
v -0.749546 -0.251593 0.355814
v -0.752162 -0.249733 0.353412
v -0.751799 -0.248135 0.354654
v -0.751587 -0.248029 0.356976
v -0.754543 -0.244906 0.354563
v -0.754446 -0.245546 0.357818
v -0.754211 -0.247284 0.361044
v -0.757464 -0.243827 0.359146
v -0.757040 -0.246202 0.362524
v -0.756074 -0.249258 0.365227
v -0.759605 -0.246487 0.364105
v -0.757805 -0.250017 0.366106
v -0.755538 -0.253183 0.367019
v -0.759074 -0.251574 0.366571
v -0.751617 -0.257019 0.363493
v -0.754422 -0.255357 0.364671
v -0.754025 -0.257459 0.362824
v -0.753299 -0.251697 0.366243
v -0.752692 -0.254827 0.367243
v -0.751257 -0.257386 0.366606
v -0.749233 -0.258906 0.364354
v -0.747552 -0.257404 0.360558
v -0.747126 -0.253971 0.357505
v -0.749057 -0.250739 0.358605
v -0.751651 -0.249982 0.362467
v -0.749963 -0.254235 0.367242
v -0.749205 -0.257295 0.367822
v -0.747935 -0.260053 0.367439
v -0.746143 -0.261535 0.365399
v -0.744500 -0.259919 0.361604
v -0.744143 -0.256555 0.358830
v -0.745999 -0.253100 0.359736
v -0.748577 -0.252203 0.363573
v -0.746108 -0.256686 0.368679
v -0.745541 -0.260240 0.369524
v -0.743973 -0.263571 0.368871
v -0.742083 -0.265542 0.366947
v -0.740443 -0.263302 0.362820
v -0.740247 -0.259393 0.360059
v -0.742053 -0.255432 0.360656
v -0.744771 -0.254022 0.364666
v -0.751248 -0.251640 0.365087
v -0.751537 -0.254539 0.367423
v -0.750414 -0.257322 0.367303
v -0.748830 -0.259577 0.366163
v -0.746941 -0.259629 0.363071
v -0.745385 -0.257323 0.359028
v -0.746503 -0.253464 0.358287
v -0.748944 -0.251074 0.360904
v -0.747748 -0.253885 0.366307
v -0.747759 -0.257091 0.368243
v -0.746680 -0.260190 0.368219
v -0.745149 -0.262921 0.367445
v -0.743336 -0.262645 0.364249
v -0.741867 -0.260041 0.360266
v -0.743031 -0.256038 0.359479
v -0.745539 -0.253008 0.361896
v -0.754061 -0.249170 0.363940
v -0.751639 -0.248677 0.359653
v -0.754596 -0.252279 0.366785
v -0.753360 -0.255379 0.366894
v -0.751649 -0.257014 0.365264
v -0.749628 -0.257595 0.362406
v -0.748197 -0.254924 0.358023
v -0.749158 -0.250931 0.356851
v -0.757226 -0.255316 0.364311
v -0.754781 -0.255498 0.360554
v -0.756871 -0.254138 0.361740
v -0.759033 -0.253291 0.364246
v -0.759916 -0.253587 0.366586
v -0.760927 -0.248273 0.365244
v -0.761329 -0.250161 0.365081
v -0.761306 -0.245400 0.362584
v -0.760195 -0.243635 0.361114
v -0.759696 -0.242397 0.357732
v -0.757381 -0.242579 0.355547
v -0.756920 -0.243892 0.353682
v -0.754460 -0.246200 0.352450
v -0.754960 -0.248694 0.353694
v -0.753390 -0.251833 0.355180
v -0.755130 -0.252812 0.357609
v -0.738770 -0.258488 0.360125
v -0.737888 -0.262902 0.361231
v -0.736139 -0.261709 0.360438
v -0.736888 -0.265918 0.363560
v -0.739314 -0.266333 0.365536
v -0.738331 -0.269137 0.368481
v -0.741291 -0.267279 0.369843
v -0.740783 -0.267315 0.371451
v -0.743092 -0.264015 0.370941
v -0.742247 -0.262897 0.372188
v -0.743913 -0.259670 0.370061
v -0.742150 -0.258665 0.370233
v -0.743748 -0.255467 0.367809
v -0.740404 -0.256350 0.365725
v -0.737884 -0.258020 0.361619
v -0.741153 -0.255027 0.362650
v -0.738599 -0.269835 0.371261
v -0.740664 -0.266320 0.372700
v -0.739969 -0.264486 0.371801
v -0.740906 -0.261322 0.371141
v -0.739686 -0.260599 0.369978
v -0.740055 -0.258195 0.368537
v -0.738191 -0.259519 0.366908
v -0.737546 -0.257773 0.364016
v -0.735735 -0.260845 0.363486
v -0.735469 -0.260937 0.361388
v -0.735042 -0.264099 0.362858
v -0.735118 -0.265054 0.362434
v -0.736088 -0.266792 0.364957
v -0.736297 -0.268701 0.366268
v -0.736685 -0.269435 0.368541
v -0.738541 -0.268875 0.372186
v -0.738307 -0.261442 0.368851
v -0.739245 -0.263370 0.370565
v -0.738404 -0.263846 0.369567
v -0.738893 -0.265373 0.370256
v -0.739105 -0.266782 0.371309
v -0.738287 -0.267692 0.370050
v -0.737650 -0.268914 0.369969
v -0.737546 -0.268046 0.368612
v -0.736876 -0.267776 0.366991
v -0.736649 -0.266527 0.366113
v -0.736095 -0.265686 0.364663
v -0.735993 -0.265441 0.365241
v -0.735133 -0.263641 0.363972
v -0.735995 -0.263809 0.366213
v -0.736661 -0.261505 0.366050
v -0.737023 -0.263124 0.367805
v -0.736441 -0.265852 0.366809
v -0.737513 -0.265013 0.368449
v -0.738143 -0.266444 0.369272
v -0.737154 -0.266959 0.367594
v -0.761228 -0.247182 0.362769
v -0.760049 -0.250751 0.363356
v -0.760504 -0.248088 0.362006
v -0.760772 -0.245710 0.360816
v -0.760749 -0.243803 0.359741
v -0.759612 -0.243849 0.357385
v -0.758767 -0.243220 0.355730
v -0.758213 -0.244749 0.355618
v -0.756685 -0.246055 0.354180
v -0.756758 -0.247854 0.355802
v -0.755791 -0.249932 0.355898
v -0.756620 -0.250116 0.357581
v -0.756557 -0.252384 0.359453
v -0.757627 -0.251207 0.360416
v -0.758824 -0.250576 0.361671
v -0.758177 -0.252312 0.362038
v -0.759214 -0.248231 0.360361
v -0.757769 -0.248997 0.358789
v -0.758057 -0.246524 0.356953
v -0.759720 -0.245613 0.358842
f 1 163 89
f 1 89 230
f 165 100 163
f 165 163 1
f 182 101 165
f 182 165 1
f 230 87 182
f 230 182 1
f 3 166 100
f 3 100 165
f 239 150 166
f 239 166 3
f 183 143 239
f 183 239 3
f 3 165 101
f 3 101 183
f 4 167 106
f 4 106 164
f 236 148 167
f 236 167 4
f 164 99 186
f 164 186 4
f 4 186 149
f 4 149 236
f 171 105 169
f 171 169 5
f 5 169 106
f 5 106 167
f 249 147 171
f 249 171 5
f 167 148 249
f 167 249 5
f 6 170 95
f 6 95 233
f 169 105 170
f 169 170 6
f 6 233 93
f 6 93 168
f 6 168 106
f 6 106 169
f 174 104 172
f 174 172 7
f 7 172 105
f 7 105 171
f 247 146 174
f 247 174 7
f 171 147 247
f 171 247 7
f 8 173 96
f 8 96 234
f 172 104 173
f 172 173 8
f 234 95 170
f 234 170 8
f 8 170 105
f 8 105 172
f 177 103 175
f 177 175 9
f 9 175 104
f 9 104 174
f 245 145 177
f 245 177 9
f 174 146 245
f 174 245 9
f 10 176 83
f 10 83 228
f 175 103 176
f 175 176 10
f 228 96 173
f 228 173 10
f 10 173 104
f 10 104 175
f 180 102 178
f 180 178 11
f 11 178 103
f 11 103 177
f 243 144 180
f 243 180 11
f 177 145 243
f 177 243 11
f 12 179 86
f 12 86 227
f 178 102 179
f 178 179 12
f 227 83 176
f 227 176 12
f 12 176 103
f 12 103 178
f 183 101 181
f 183 181 13
f 13 181 102
f 13 102 180
f 240 143 183
f 240 183 13
f 180 144 240
f 180 240 13
f 14 182 87
f 14 87 229
f 181 101 182
f 181 182 14
f 229 86 179
f 229 179 14
f 14 179 102
f 14 102 181
f 15 185 99
f 15 99 184
f 163 100 185
f 163 185 15
f 15 231 89
f 15 89 163
f 184 91 231
f 184 231 15
f 16 235 149
f 16 149 186
f 166 150 235
f 166 235 16
f 185 100 166
f 185 166 16
f 186 99 185
f 186 185 16
f 17 187 85
f 17 85 211
f 227 86 187
f 227 187 17
f 17 211 84
f 17 84 194
f 194 83 227
f 194 227 17
f 229 87 188
f 229 188 18
f 18 188 88
f 18 88 212
f 18 212 85
f 18 85 187
f 187 86 229
f 187 229 18
f 230 89 189
f 230 189 19
f 19 189 90
f 19 90 213
f 19 213 88
f 19 88 188
f 188 87 230
f 188 230 19
f 231 91 190
f 231 190 20
f 20 190 92
f 20 92 214
f 20 214 90
f 20 90 189
f 20 189 89
f 20 89 231
f 232 93 191
f 232 191 21
f 21 191 94
f 21 94 215
f 21 215 92
f 21 92 190
f 21 190 91
f 21 91 232
f 233 95 192
f 233 192 22
f 22 192 97
f 22 97 216
f 22 216 94
f 22 94 191
f 22 191 93
f 22 93 233
f 234 96 193
f 234 193 23
f 23 193 98
f 23 98 217
f 23 217 97
f 23 97 192
f 192 95 234
f 192 234 23
f 228 83 194
f 228 194 24
f 24 194 84
f 24 84 218
f 24 218 98
f 24 98 193
f 193 96 228
f 193 228 24
f 211 85 195
f 211 195 25
f 25 195 112
f 25 112 219
f 25 219 113
f 25 113 202
f 25 202 84
f 25 84 211
f 212 88 196
f 212 196 26
f 26 196 111
f 26 111 220
f 26 220 112
f 26 112 195
f 26 195 85
f 26 85 212
f 213 90 197
f 213 197 27
f 27 197 110
f 27 110 221
f 27 221 111
f 27 111 196
f 27 196 88
f 27 88 213
f 214 92 198
f 214 198 28
f 28 198 109
f 28 109 222
f 28 222 110
f 28 110 197
f 28 197 90
f 28 90 214
f 215 94 199
f 215 199 29
f 29 199 108
f 29 108 223
f 29 223 109
f 29 109 198
f 29 198 92
f 29 92 215
f 216 97 200
f 216 200 30
f 30 200 107
f 30 107 224
f 30 224 108
f 30 108 199
f 30 199 94
f 30 94 216
f 217 98 201
f 217 201 31
f 31 201 114
f 31 114 225
f 31 225 107
f 31 107 200
f 31 200 97
f 31 97 217
f 218 84 202
f 218 202 32
f 32 202 113
f 32 113 226
f 32 226 114
f 32 114 201
f 32 201 98
f 32 98 218
f 219 112 203
f 219 203 33
f 33 203 117
f 33 117 263
f 33 263 118
f 33 118 210
f 33 210 113
f 33 113 219
f 220 111 204
f 220 204 34
f 34 204 116
f 34 116 261
f 34 261 117
f 34 117 203
f 34 203 112
f 34 112 220
f 221 110 205
f 221 205 35
f 35 205 115
f 35 115 259
f 35 259 116
f 35 116 204
f 35 204 111
f 35 111 221
f 222 109 206
f 222 206 36
f 36 206 122
f 36 122 257
f 36 257 115
f 36 115 205
f 36 205 110
f 36 110 222
f 223 108 207
f 223 207 37
f 37 207 121
f 37 121 255
f 37 255 122
f 37 122 206
f 37 206 109
f 37 109 223
f 224 107 208
f 224 208 38
f 38 208 120
f 38 120 252
f 38 252 121
f 38 121 207
f 38 207 108
f 38 108 224
f 225 114 209
f 225 209 39
f 39 209 119
f 39 119 251
f 39 251 120
f 39 120 208
f 39 208 107
f 39 107 225
f 226 113 210
f 226 210 40
f 40 210 118
f 40 118 266
f 40 209 114
f 40 114 226
f 266 119 209
f 266 209 40
f 41 237 149
f 41 149 235
f 318 153 237
f 318 237 41
f 235 150 238
f 235 238 41
f 41 238 154
f 41 154 318
f 42 315 152
f 42 152 250
f 237 153 315
f 237 315 42
f 250 148 236
f 250 236 42
f 42 236 149
f 42 149 237
f 239 143 241
f 239 241 43
f 43 241 151
f 43 151 304
f 43 304 154
f 43 154 238
f 43 238 150
f 43 150 239
f 240 144 242
f 240 242 44
f 44 242 158
f 44 158 303
f 44 303 151
f 44 151 241
f 241 143 240
f 241 240 44
f 243 145 244
f 243 244 45
f 45 244 160
f 45 160 307
f 45 307 158
f 45 158 242
f 45 242 144
f 45 144 243
f 245 146 246
f 245 246 46
f 46 246 155
f 46 155 309
f 46 309 160
f 46 160 244
f 46 244 145
f 46 145 245
f 247 147 248
f 247 248 47
f 47 248 156
f 47 156 311
f 47 311 155
f 47 155 246
f 47 246 146
f 47 146 247
f 249 148 250
f 249 250 48
f 48 250 152
f 48 152 313
f 48 313 156
f 48 156 248
f 48 248 147
f 48 147 249
f 49 253 120
f 49 120 251
f 276 125 253
f 276 253 49
f 251 119 265
f 251 265 49
f 49 265 126
f 49 126 276
f 50 254 121
f 50 121 252
f 278 124 254
f 278 254 50
f 253 125 278
f 253 278 50
f 50 252 120
f 50 120 253
f 51 256 122
f 51 122 255
f 280 137 256
f 280 256 51
f 254 124 280
f 254 280 51
f 255 121 254
f 255 254 51
f 52 258 115
f 52 115 257
f 267 138 258
f 267 258 52
f 256 137 267
f 256 267 52
f 257 122 256
f 257 256 52
f 53 260 116
f 53 116 259
f 268 141 260
f 268 260 53
f 258 138 268
f 258 268 53
f 259 115 258
f 259 258 53
f 54 262 117
f 54 117 261
f 270 123 262
f 270 262 54
f 260 141 270
f 260 270 54
f 261 116 260
f 261 260 54
f 55 264 118
f 55 118 263
f 272 127 264
f 272 264 55
f 262 123 272
f 262 272 55
f 263 117 262
f 263 262 55
f 56 266 118
f 56 118 264
f 265 119 266
f 265 266 56
f 56 274 126
f 56 126 265
f 264 127 274
f 264 274 56
f 281 139 289
f 281 289 57
f 57 289 140
f 57 140 282
f 57 267 137
f 57 137 281
f 282 138 267
f 282 267 57
f 58 269 141
f 58 141 268
f 287 142 269
f 287 269 58
f 268 138 282
f 268 282 58
f 58 282 140
f 58 140 287
f 59 271 123
f 59 123 270
f 284 130 271
f 284 271 59
f 269 142 284
f 269 284 59
f 270 141 269
f 270 269 59
f 60 273 127
f 60 127 272
f 283 131 273
f 283 273 60
f 271 130 283
f 271 283 60
f 272 123 271
f 272 271 60
f 61 275 126
f 61 126 274
f 297 129 275
f 297 275 61
f 273 131 297
f 273 297 61
f 274 127 273
f 274 273 61
f 62 277 125
f 62 125 276
f 295 128 277
f 295 277 62
f 275 129 295
f 275 295 62
f 276 126 275
f 276 275 62
f 63 279 124
f 63 124 278
f 293 133 279
f 293 279 63
f 277 128 293
f 277 293 63
f 278 125 277
f 278 277 63
f 64 281 137
f 64 137 280
f 291 139 281
f 291 281 64
f 279 133 291
f 279 291 64
f 280 124 279
f 280 279 64
f 283 130 285
f 283 285 65
f 65 285 136
f 65 136 300
f 65 300 135
f 65 135 298
f 298 131 283
f 298 283 65
f 66 286 136
f 66 136 285
f 284 142 286
f 284 286 66
f 285 130 284
f 285 284 66
f 67 288 132
f 67 132 301
f 287 140 288
f 287 288 67
f 301 136 286
f 301 286 67
f 67 286 142
f 67 142 287
f 68 290 132
f 68 132 288
f 289 139 290
f 289 290 68
f 68 288 140
f 68 140 289
f 291 133 292
f 291 292 69
f 69 292 134
f 69 134 302
f 302 132 290
f 302 290 69
f 69 290 139
f 69 139 291
f 293 128 294
f 293 294 70
f 70 294 134
f 70 134 292
f 70 292 133
f 70 133 293
f 295 129 296
f 295 296 71
f 71 296 135
f 71 135 299
f 71 299 134
f 71 134 294
f 71 294 128
f 71 128 295
f 297 131 298
f 297 298 72
f 72 298 135
f 72 135 296
f 72 296 129
f 72 129 297
f 73 301 132
f 73 132 302
f 300 136 301
f 300 301 73
f 73 302 134
f 73 134 299
f 73 299 135
f 73 135 300
f 304 151 305
f 304 305 74
f 74 305 159
f 74 159 319
f 74 317 154
f 74 154 304
f 319 157 317
f 319 317 74
f 303 158 306
f 303 306 75
f 75 306 159
f 75 159 305
f 305 151 303
f 305 303 75
f 307 160 308
f 307 308 76
f 76 308 161
f 76 161 322
f 76 306 158
f 76 158 307
f 322 159 306
f 322 306 76
f 309 155 310
f 309 310 77
f 77 310 161
f 77 161 308
f 77 308 160
f 77 160 309
f 311 156 312
f 311 312 78
f 78 312 162
f 78 162 321
f 78 310 155
f 78 155 311
f 321 161 310
f 321 310 78
f 313 152 314
f 313 314 79
f 79 314 162
f 79 162 312
f 79 312 156
f 79 156 313
f 315 153 316
f 315 316 80
f 80 316 157
f 80 157 320
f 80 314 152
f 80 152 315
f 320 162 314
f 320 314 80
f 316 153 318
f 316 318 81
f 81 318 154
f 81 154 317
f 317 157 316
f 317 316 81
f 82 320 157
f 82 157 319
f 321 162 320
f 321 320 82
f 322 161 321
f 322 321 82
f 319 159 322
f 319 322 82
f 91 184 2
f 91 2 232
f 93 232 2
f 93 2 168
f 99 164 2
f 99 2 184
f 106 168 2
f 106 2 164
