# _1st_Proximal_Phalanx_Foot_L rest
v 0.096841 -1.339939 0.130981
v 0.094598 -1.339102 0.133187
v 0.092271 -1.339736 0.136368
v 0.089237 -1.344579 0.140394
v 0.092265 -1.348613 0.144408
v 0.095000 -1.350299 0.145208
v 0.098039 -1.351575 0.145045
v 0.100882 -1.352753 0.143735
v 0.103114 -1.352819 0.141057
v 0.103861 -1.350260 0.133806
v 0.102758 -1.349013 0.129985
v 0.100909 -1.345893 0.128785
v 0.098857 -1.342151 0.129400
v 0.089983 -1.342410 0.138609
v 0.090058 -1.346771 0.142614
v 0.103994 -1.351222 0.137987
v 0.100887 -1.336671 0.134456
v 0.098245 -1.336374 0.136991
v 0.096198 -1.336872 0.139386
v 0.094741 -1.338546 0.141773
v 0.094269 -1.340085 0.143905
v 0.094741 -1.341990 0.145829
v 0.096469 -1.343936 0.146972
v 0.098353 -1.345485 0.147238
v 0.100841 -1.347050 0.147064
v 0.103776 -1.348621 0.146228
v 0.106042 -1.348913 0.143997
v 0.107083 -1.347822 0.140983
v 0.107316 -1.345670 0.138112
v 0.106722 -1.343592 0.135698
v 0.105453 -1.341178 0.134366
v 0.103106 -1.338290 0.133766
v 0.098674 -1.337861 0.132160
v 0.096238 -1.337211 0.135025
v 0.093934 -1.337929 0.137981
v 0.091951 -1.339983 0.140283
v 0.091121 -1.341847 0.142379
v 0.091820 -1.344319 0.144697
v 0.094183 -1.346282 0.146267
v 0.096621 -1.347977 0.146688
v 0.099476 -1.349446 0.146435
v 0.102406 -1.351190 0.145189
v 0.104733 -1.351230 0.142845
v 0.105822 -1.349726 0.139450
v 0.105992 -1.348105 0.135882
v 0.105305 -1.346596 0.132271
v 0.103729 -1.343701 0.130669
v 0.101006 -1.340147 0.130749
v 0.108738 -1.328474 0.145884
v 0.110707 -1.329568 0.144220
v 0.112836 -1.332886 0.144155
v 0.113306 -1.334414 0.144902
v 0.113667 -1.335236 0.146176
v 0.113604 -1.335684 0.147401
v 0.113158 -1.335578 0.148853
v 0.112189 -1.335100 0.150168
v 0.111181 -1.334368 0.150822
v 0.110082 -1.333580 0.151498
v 0.108767 -1.332663 0.151892
v 0.107832 -1.331688 0.151902
v 0.106818 -1.330365 0.150925
v 0.106917 -1.329198 0.149518
v 0.107742 -1.328462 0.147615
v 0.112178 -1.331196 0.143936
v 0.103955 -1.332777 0.141752
v 0.105898 -1.333309 0.139893
v 0.108315 -1.337162 0.140099
v 0.109014 -1.338733 0.140877
v 0.109315 -1.339817 0.142327
v 0.109017 -1.341152 0.144162
v 0.108438 -1.341397 0.146002
v 0.107466 -1.340998 0.147394
v 0.105875 -1.340255 0.148141
v 0.104376 -1.339235 0.148434
v 0.103299 -1.338445 0.148093
v 0.102492 -1.337319 0.147326
v 0.101914 -1.335772 0.146408
v 0.101717 -1.334646 0.145415
v 0.102655 -1.333368 0.143733
v 0.107161 -1.334948 0.139798
v 0.101359 -1.334826 0.139523
v 0.103491 -1.335237 0.137499
v 0.106632 -1.339042 0.137621
v 0.107311 -1.341103 0.138493
v 0.107736 -1.342702 0.140256
v 0.107819 -1.344391 0.142591
v 0.106815 -1.344733 0.145061
v 0.105377 -1.344332 0.146480
v 0.103364 -1.343444 0.147301
v 0.101560 -1.342308 0.147370
v 0.100134 -1.341318 0.146773
v 0.098838 -1.340078 0.145840
v 0.098387 -1.338345 0.144630
v 0.098543 -1.337004 0.143420
v 0.099733 -1.335595 0.141557
v 0.109576 -1.333117 0.142052
v 0.106348 -1.330622 0.143820
v 0.108284 -1.331504 0.142191
v 0.110335 -1.334996 0.142416
v 0.110751 -1.336467 0.143092
v 0.111044 -1.337321 0.144384
v 0.110880 -1.338113 0.145731
v 0.110444 -1.338210 0.147197
v 0.109665 -1.337905 0.148591
v 0.108512 -1.337277 0.149373
v 0.107203 -1.336348 0.149781
v 0.106067 -1.335514 0.149823
v 0.105214 -1.334496 0.149535
v 0.104385 -1.332921 0.148643
v 0.104405 -1.331857 0.147326
v 0.105154 -1.330892 0.145635
v 0.105138 -1.336599 0.137136
v 0.111834 -1.325390 0.148407
v 0.110447 -1.325278 0.149983
v 0.108885 -1.326525 0.151737
v 0.108338 -1.328218 0.153142
v 0.109494 -1.329870 0.154068
v 0.111481 -1.330800 0.154279
v 0.114567 -1.330427 0.154772
v 0.115961 -1.330729 0.154260
v 0.116924 -1.332174 0.153244
v 0.116609 -1.333839 0.151602
v 0.115721 -1.334971 0.148686
v 0.115777 -1.334567 0.146972
v 0.116023 -1.333330 0.145861
v 0.116035 -1.331019 0.145615
v 0.115824 -1.328046 0.146140
v 0.114059 -1.326141 0.146751
v 0.118857 -1.327103 0.155916
v 0.120489 -1.328370 0.154910
v 0.117400 -1.326625 0.157808
v 0.118563 -1.332676 0.153324
v 0.120874 -1.330250 0.154322
v 0.118261 -1.334012 0.151887
v 0.117938 -1.334834 0.149073
v 0.117563 -1.334468 0.147218
v 0.117856 -1.333125 0.146079
v 0.118574 -1.330235 0.146199
v 0.118065 -1.326408 0.146886
v 0.115457 -1.324397 0.147699
v 0.112818 -1.323714 0.149702
v 0.111694 -1.323547 0.152213
v 0.110074 -1.324964 0.152994
v 0.109524 -1.326442 0.154630
v 0.110430 -1.328060 0.156040
v 0.114087 -1.329458 0.156646
v 0.112643 -1.329319 0.156554
v 0.115718 -1.327199 0.158549
v 0.122716 -1.330004 0.153628
v 0.122890 -1.328311 0.153990
v 0.116262 -1.324664 0.159410
v 0.114558 -1.325893 0.159382
v 0.124165 -1.328052 0.152795
v 0.123555 -1.329920 0.151906
v 0.123436 -1.329422 0.150088
v 0.124220 -1.326973 0.151538
v 0.115390 -1.323122 0.159520
v 0.113501 -1.324430 0.159359
v 0.114821 -1.321977 0.158068
v 0.113064 -1.322991 0.157704
v 0.115245 -1.328691 0.157321
v 0.116379 -1.328969 0.156436
v 0.117522 -1.329463 0.155469
v 0.118943 -1.330704 0.154645
v 0.119475 -1.331376 0.154177
v 0.113678 -1.327478 0.158158
v 0.112030 -1.326537 0.157730
v 0.111044 -1.324813 0.156276
v 0.120882 -1.332348 0.152681
v 0.121155 -1.332755 0.150749
v 0.121018 -1.332325 0.148523
v 0.121923 -1.327024 0.148430
v 0.119430 -1.324898 0.148156
v 0.116875 -1.323363 0.148746
v 0.114260 -1.322390 0.150824
v 0.113176 -1.322222 0.153387
v 0.114851 -1.321454 0.154614
v 0.115606 -1.321946 0.151937
v 0.117685 -1.323249 0.149962
v 0.120279 -1.324211 0.149742
v 0.123169 -1.325704 0.150839
v 0.116876 -1.323296 0.156165
v 0.118755 -1.324796 0.153703
v 0.121848 -1.325727 0.152695
v 0.117102 -1.323090 0.153694
v 0.118464 -1.323945 0.152415
v 0.120701 -1.324771 0.151886
v 0.097054 -1.347080 0.137383
v 0.098215 -1.343761 0.131343
v 0.099320 -1.346641 0.130715
v 0.100177 -1.348650 0.131617
v 0.101007 -1.349751 0.134457
v 0.101163 -1.350572 0.137771
v 0.100704 -1.351523 0.139755
v 0.099475 -1.351617 0.141490
v 0.097473 -1.350837 0.142786
v 0.094712 -1.349704 0.142868
v 0.092567 -1.348637 0.142373
v 0.091074 -1.347276 0.141130
v 0.090866 -1.345617 0.139297
v 0.091912 -1.343313 0.137340
v 0.093426 -1.341127 0.135705
v 0.095097 -1.340908 0.134012
v 0.096837 -1.341671 0.132453
v 0.096577 -1.345060 0.134571
v 0.097980 -1.346329 0.133429
v 0.098727 -1.347965 0.136270
v 0.099361 -1.349375 0.139097
v 0.097695 -1.348495 0.139948
v 0.094198 -1.347787 0.140527
v 0.094000 -1.343835 0.136172
v 0.093787 -1.346176 0.138598
v 0.117370 -1.324574 0.157211
v 0.119057 -1.325723 0.154865
v 0.121443 -1.326818 0.154116
v 0.116695 -1.323857 0.158052
v 0.116277 -1.322980 0.157829
v 0.115864 -1.322139 0.157149
v 0.116181 -1.322039 0.155471
v 0.116502 -1.322320 0.152942
v 0.118099 -1.323416 0.151113
v 0.120639 -1.324392 0.150772
v 0.122820 -1.325651 0.151770
v 0.123441 -1.326333 0.152370
v 0.122774 -1.326931 0.153482
v 0.123249 -1.326713 0.153016
f 33 34 18
f 33 18 17
f 17 18 81
f 17 81 82
f 17 32 48
f 17 48 33
f 82 112 32
f 82 32 17
f 18 34 35
f 18 35 19
f 18 19 95
f 18 95 81
f 35 36 20
f 35 20 19
f 19 20 94
f 19 94 95
f 36 37 21
f 36 21 20
f 20 21 93
f 20 93 94
f 37 38 22
f 37 22 21
f 21 22 92
f 21 92 93
f 38 39 23
f 38 23 22
f 22 23 91
f 22 91 92
f 39 40 24
f 39 24 23
f 23 24 90
f 23 90 91
f 40 41 25
f 40 25 24
f 24 25 89
f 24 89 90
f 41 42 26
f 41 26 25
f 25 26 88
f 25 88 89
f 42 43 27
f 42 27 26
f 26 27 87
f 26 87 88
f 43 44 28
f 43 28 27
f 27 28 86
f 27 86 87
f 44 45 29
f 44 29 28
f 28 29 85
f 28 85 86
f 45 46 30
f 45 30 29
f 29 30 84
f 29 84 85
f 46 47 31
f 46 31 30
f 30 31 83
f 30 83 84
f 47 48 32
f 47 32 31
f 31 32 112
f 31 112 83
f 65 79 111
f 65 111 97
f 81 95 79
f 81 79 65
f 97 98 66
f 97 66 65
f 65 66 82
f 65 82 81
f 66 80 112
f 66 112 82
f 98 96 80
f 98 80 66
f 99 100 68
f 99 68 67
f 67 68 84
f 67 84 83
f 83 112 80
f 83 80 67
f 67 80 96
f 67 96 99
f 100 101 69
f 100 69 68
f 68 69 85
f 68 85 84
f 101 102 70
f 101 70 69
f 69 70 86
f 69 86 85
f 102 103 71
f 102 71 70
f 70 71 87
f 70 87 86
f 103 104 72
f 103 72 71
f 71 72 88
f 71 88 87
f 104 105 73
f 104 73 72
f 72 73 89
f 72 89 88
f 105 106 74
f 105 74 73
f 73 74 90
f 73 90 89
f 106 107 75
f 106 75 74
f 74 75 91
f 74 91 90
f 107 108 76
f 107 76 75
f 75 76 92
f 75 92 91
f 108 109 77
f 108 77 76
f 76 77 93
f 76 93 92
f 109 110 78
f 109 78 77
f 77 78 94
f 77 94 93
f 110 111 79
f 110 79 78
f 78 79 95
f 78 95 94
f 63 49 97
f 63 97 111
f 62 63 111
f 62 111 110
f 61 62 110
f 61 110 109
f 60 61 109
f 60 109 108
f 59 60 108
f 59 108 107
f 58 59 107
f 58 107 106
f 57 58 106
f 57 106 105
f 56 57 105
f 56 105 104
f 55 56 104
f 55 104 103
f 54 55 103
f 54 103 102
f 53 54 102
f 53 102 101
f 52 53 101
f 52 101 100
f 51 52 100
f 51 100 99
f 64 51 99
f 64 99 96
f 50 64 96
f 50 96 98
f 98 97 49
f 98 49 50
f 123 122 55
f 123 55 54
f 124 123 54
f 124 54 53
f 125 124 53
f 125 53 52
f 126 125 52
f 126 52 51
f 127 126 51
f 127 51 64
f 128 127 64
f 128 64 50
f 128 50 49
f 128 49 113
f 113 49 63
f 113 63 114
f 115 114 63
f 115 63 62
f 116 115 62
f 116 62 61
f 117 116 61
f 117 61 60
f 118 117 60
f 118 60 59
f 119 118 59
f 119 59 58
f 120 119 58
f 120 58 57
f 162 119 120
f 162 120 163
f 121 56 55
f 121 55 122
f 120 57 56
f 120 56 121
f 163 120 121
f 163 121 164
f 147 118 119
f 147 119 146
f 146 119 162
f 146 162 161
f 147 146 161
f 147 161 166
f 166 161 148
f 166 148 152
f 145 117 118
f 145 118 147
f 144 143 115
f 144 115 116
f 144 116 117
f 144 117 145
f 145 147 166
f 145 166 167
f 167 166 152
f 167 152 158
f 168 144 145
f 168 145 167
f 164 121 132
f 164 132 165
f 134 132 121
f 134 121 122
f 169 165 132
f 169 132 134
f 149 133 165
f 149 165 169
f 135 134 122
f 135 122 123
f 154 149 169
f 154 169 170
f 170 169 134
f 170 134 135
f 136 135 123
f 136 123 124
f 136 124 125
f 136 125 137
f 138 137 125
f 138 125 126
f 171 170 135
f 171 135 136
f 171 136 137
f 171 137 138
f 155 154 170
f 155 170 171
f 139 138 126
f 139 126 127
f 140 139 127
f 140 127 128
f 141 140 128
f 141 128 113
f 142 141 113
f 142 113 114
f 142 114 115
f 142 115 143
f 142 143 144
f 142 144 168
f 168 167 158
f 168 158 160
f 176 142 168
f 176 168 160
f 175 141 142
f 175 142 176
f 174 140 141
f 174 141 175
f 173 139 140
f 173 140 174
f 155 171 138
f 155 138 172
f 172 138 139
f 172 139 173
f 12 13 48
f 12 48 47
f 11 12 47
f 11 47 46
f 10 11 46
f 10 46 45
f 16 10 45
f 16 45 44
f 9 16 44
f 9 44 43
f 8 9 43
f 8 43 42
f 7 8 42
f 7 42 41
f 6 7 41
f 6 41 40
f 5 6 40
f 5 40 39
f 15 5 39
f 15 39 38
f 4 15 38
f 4 38 37
f 14 4 37
f 14 37 36
f 3 14 36
f 3 36 35
f 2 3 35
f 2 35 34
f 33 48 13
f 33 13 1
f 1 2 34
f 1 34 33
f 189 13 12
f 189 12 190
f 204 1 13
f 204 13 189
f 191 190 12
f 191 12 11
f 189 190 191
f 189 191 206
f 191 11 10
f 191 10 192
f 207 206 191
f 207 191 192
f 193 192 10
f 193 10 16
f 193 16 9
f 193 9 194
f 195 194 9
f 195 9 8
f 208 207 192
f 208 192 193
f 208 193 194
f 208 194 195
f 195 8 7
f 195 7 196
f 209 208 195
f 209 195 196
f 203 202 3
f 203 3 2
f 203 2 1
f 203 1 204
f 201 14 3
f 201 3 202
f 211 203 204
f 211 204 205
f 205 204 189
f 205 189 206
f 201 202 203
f 201 203 211
f 200 4 14
f 200 14 201
f 205 206 207
f 205 207 188
f 188 207 208
f 188 208 209
f 211 205 188
f 211 188 212
f 200 201 211
f 200 211 212
f 197 196 7
f 197 7 6
f 199 15 4
f 199 4 200
f 210 209 196
f 210 196 197
f 198 197 6
f 198 6 5
f 199 210 197
f 199 197 198
f 198 5 15
f 198 15 199
f 212 188 209
f 212 209 210
f 199 200 212
f 199 212 210
f 131 148 161
f 131 161 162
f 129 131 162
f 129 162 163
f 130 129 163
f 130 163 164
f 164 165 133
f 164 133 130
f 213 131 129
f 213 129 214
f 152 148 131
f 152 131 151
f 151 131 213
f 151 213 216
f 158 152 151
f 158 151 157
f 217 157 151
f 217 151 216
f 160 158 157
f 160 157 159
f 159 157 217
f 159 217 218
f 213 214 183
f 213 183 182
f 176 160 159
f 176 159 177
f 217 216 213
f 217 213 182
f 218 217 182
f 218 182 219
f 177 159 218
f 177 218 219
f 175 176 177
f 175 177 178
f 220 178 177
f 220 177 219
f 220 219 182
f 220 182 185
f 174 175 178
f 174 178 179
f 186 185 182
f 186 182 183
f 221 179 178
f 221 178 220
f 221 220 185
f 221 185 186
f 173 174 179
f 173 179 180
f 221 186 187
f 221 187 222
f 180 179 221
f 180 221 222
f 172 173 180
f 172 180 181
f 181 180 222
f 181 222 223
f 156 155 172
f 156 172 181
f 214 129 130
f 214 130 215
f 150 130 133
f 150 133 149
f 225 215 130
f 225 130 150
f 153 154 155
f 153 155 156
f 184 223 222
f 184 222 187
f 153 150 149
f 153 149 154
f 187 186 183
f 187 183 184
f 184 183 214
f 184 214 215
f 226 184 215
f 226 215 225
f 224 223 184
f 224 184 226
f 156 181 223
f 156 223 224
f 226 153 156
f 226 156 224
f 226 225 150
f 226 150 153
