# _1st_Proximal_Phalanx_Foot_R rest
v -0.105790 -1.327355 0.116702
v -0.103625 -1.327547 0.117010
v -0.101211 -1.328861 0.116841
v -0.098483 -1.332358 0.114551
v -0.099263 -1.336771 0.114793
v -0.100760 -1.338511 0.115143
v -0.102732 -1.339667 0.115513
v -0.104975 -1.340188 0.115513
v -0.107226 -1.339416 0.115444
v -0.109932 -1.334939 0.114796
v -0.110481 -1.332309 0.113883
v -0.109511 -1.329910 0.114451
v -0.107734 -1.328046 0.115810
v -0.099337 -1.330670 0.115368
v -0.098407 -1.334599 0.114405
v -0.108656 -1.337404 0.115626
v -0.106672 -1.328369 0.120811
v -0.104208 -1.328884 0.120813
v -0.102219 -1.329823 0.120576
v -0.100691 -1.331421 0.119947
v -0.099820 -1.333045 0.119652
v -0.099613 -1.334939 0.119439
v -0.100422 -1.336746 0.119409
v -0.101588 -1.337986 0.119367
v -0.103265 -1.339151 0.119393
v -0.105436 -1.340096 0.119367
v -0.107574 -1.339646 0.119329
v -0.109128 -1.337926 0.119324
v -0.110056 -1.335615 0.119617
v -0.110343 -1.333381 0.119724
v -0.109826 -1.331366 0.120097
v -0.108374 -1.329254 0.120556
v -0.106270 -1.327350 0.118743
v -0.103781 -1.327903 0.119093
v -0.101466 -1.329155 0.118823
v -0.099693 -1.330775 0.117791
v -0.098654 -1.332453 0.117194
v -0.098498 -1.334843 0.116893
v -0.099535 -1.336998 0.117207
v -0.100988 -1.338497 0.117334
v -0.102901 -1.339659 0.117514
v -0.105227 -1.340488 0.117276
v -0.107416 -1.339882 0.117353
v -0.109091 -1.337802 0.117459
v -0.110272 -1.335389 0.117251
v -0.110971 -1.332826 0.116676
v -0.110321 -1.330395 0.117103
v -0.108350 -1.328222 0.117974
v -0.106591 -1.331732 0.131160
v -0.108432 -1.331854 0.130780
v -0.110027 -1.333796 0.129822
v -0.110190 -1.334955 0.129442
v -0.110041 -1.336019 0.129543
v -0.109623 -1.336799 0.129670
v -0.108847 -1.337351 0.130015
v -0.107774 -1.337557 0.130325
v -0.106883 -1.337321 0.130546
v -0.105925 -1.337051 0.130770
v -0.104926 -1.336540 0.130898
v -0.104278 -1.335899 0.131068
v -0.103892 -1.334609 0.131084
v -0.104326 -1.333420 0.131277
v -0.105403 -1.332345 0.131352
v -0.109554 -1.332776 0.130380
v -0.105598 -1.330719 0.126066
v -0.107439 -1.330485 0.125903
v -0.109159 -1.332866 0.124861
v -0.109451 -1.334108 0.124549
v -0.109230 -1.335364 0.124549
v -0.108545 -1.336792 0.124332
v -0.107591 -1.337661 0.124570
v -0.106498 -1.337938 0.124859
v -0.105229 -1.337617 0.124910
v -0.104145 -1.336971 0.124993
v -0.103553 -1.336216 0.124913
v -0.103235 -1.335162 0.124966
v -0.103065 -1.333889 0.125266
v -0.103186 -1.332855 0.125463
v -0.104201 -1.331663 0.125921
v -0.108372 -1.331460 0.125487
v -0.105028 -1.330045 0.123450
v -0.107025 -1.329717 0.123366
v -0.109197 -1.332189 0.122574
v -0.109491 -1.333697 0.122036
v -0.109284 -1.335365 0.121914
v -0.108685 -1.337274 0.121802
v -0.107270 -1.338400 0.122034
v -0.105892 -1.338589 0.122170
v -0.104335 -1.338146 0.122169
v -0.103138 -1.337274 0.122135
v -0.102409 -1.336232 0.121955
v -0.101849 -1.334941 0.121845
v -0.101838 -1.333471 0.122194
v -0.102222 -1.332310 0.122556
v -0.103436 -1.331025 0.123115
v -0.108849 -1.332208 0.127935
v -0.106094 -1.331225 0.128616
v -0.107885 -1.331259 0.128343
v -0.109348 -1.333406 0.127361
v -0.109499 -1.334494 0.126970
v -0.109306 -1.335566 0.127036
v -0.108818 -1.336540 0.126991
v -0.108063 -1.337194 0.127240
v -0.107092 -1.337556 0.127550
v -0.106081 -1.337398 0.127707
v -0.105079 -1.336889 0.127847
v -0.104314 -1.336286 0.127886
v -0.103814 -1.335500 0.128014
v -0.103484 -1.334174 0.128249
v -0.103851 -1.333059 0.128390
v -0.104787 -1.331965 0.128620
v -0.108252 -1.330518 0.123140
v -0.107257 -1.332179 0.134563
v -0.105882 -1.332590 0.134624
v -0.104470 -1.333673 0.133991
v -0.103821 -1.335008 0.133377
v -0.104340 -1.336454 0.133228
v -0.105528 -1.337402 0.133513
v -0.107147 -1.338120 0.134921
v -0.108176 -1.338307 0.135094
v -0.109234 -1.338687 0.134383
v -0.109772 -1.338597 0.132928
v -0.110363 -1.337532 0.131154
v -0.110950 -1.336538 0.130852
v -0.111363 -1.335489 0.131220
v -0.111237 -1.334312 0.132315
v -0.110650 -1.333153 0.133904
v -0.109216 -1.332199 0.134444
v -0.108973 -1.338048 0.138436
v -0.110406 -1.338491 0.138048
v -0.107412 -1.338429 0.138757
v -0.110223 -1.339300 0.134719
v -0.111015 -1.339152 0.137048
v -0.110667 -1.339161 0.133497
v -0.111527 -1.338122 0.132106
v -0.111912 -1.336986 0.131592
v -0.112353 -1.335885 0.132021
v -0.112462 -1.334766 0.133764
v -0.111563 -1.333230 0.135731
v -0.109549 -1.332147 0.136098
v -0.107232 -1.332238 0.136148
v -0.105684 -1.333128 0.136615
v -0.104590 -1.333811 0.135578
v -0.103839 -1.335157 0.135143
v -0.104039 -1.336767 0.135073
v -0.106123 -1.338472 0.135821
v -0.105289 -1.338059 0.135363
v -0.106215 -1.338693 0.138114
v -0.112321 -1.339093 0.137592
v -0.112139 -1.338526 0.138619
v -0.106000 -1.338058 0.139849
v -0.105118 -1.338248 0.138628
v -0.113281 -1.338102 0.138819
v -0.113405 -1.338404 0.137391
v -0.113916 -1.337278 0.137041
v -0.113647 -1.337014 0.138995
v -0.105300 -1.337220 0.140361
v -0.104363 -1.337343 0.138994
v -0.105358 -1.335877 0.140294
v -0.104542 -1.335796 0.139061
v -0.106502 -1.338688 0.136817
v -0.107505 -1.338631 0.136797
v -0.108562 -1.338635 0.136644
v -0.109804 -1.339109 0.136253
v -0.110344 -1.339305 0.135953
v -0.105171 -1.338202 0.137145
v -0.104256 -1.337217 0.136918
v -0.104014 -1.335520 0.137000
v -0.111785 -1.339329 0.135485
v -0.112654 -1.338647 0.134778
v -0.113302 -1.337353 0.134262
v -0.113368 -1.335064 0.137222
v -0.111787 -1.333432 0.137354
v -0.109928 -1.332473 0.137431
v -0.107571 -1.332472 0.137660
v -0.106028 -1.333396 0.138159
v -0.106521 -1.333987 0.139504
v -0.107940 -1.333087 0.138692
v -0.109975 -1.333175 0.138143
v -0.111676 -1.334057 0.138483
v -0.113147 -1.335876 0.139060
v -0.107356 -1.336004 0.139752
v -0.109460 -1.335906 0.138884
v -0.111726 -1.336500 0.139168
v -0.108325 -1.334771 0.139173
v -0.109653 -1.334836 0.138817
v -0.111237 -1.335432 0.139007
v -0.104375 -1.333742 0.115122
v -0.106835 -1.329580 0.115367
v -0.107975 -1.330840 0.114110
v -0.108359 -1.332376 0.113669
v -0.107972 -1.334413 0.114263
v -0.106997 -1.336404 0.114907
v -0.106129 -1.337689 0.114868
v -0.104812 -1.338298 0.114918
v -0.103109 -1.338132 0.115006
v -0.101343 -1.337062 0.114636
v -0.100147 -1.335878 0.114273
v -0.099567 -1.334341 0.114060
v -0.099921 -1.332662 0.114270
v -0.100999 -1.330894 0.115207
v -0.102253 -1.329432 0.116345
v -0.103804 -1.328878 0.116527
v -0.105441 -1.328855 0.116276
v -0.104875 -1.331370 0.115122
v -0.106217 -1.331707 0.114625
v -0.105831 -1.333974 0.114921
v -0.105361 -1.336104 0.115287
v -0.104000 -1.335751 0.115408
v -0.101668 -1.334957 0.114717
v -0.102685 -1.331022 0.115324
v -0.101941 -1.333210 0.114803
v -0.107407 -1.337196 0.139600
v -0.109325 -1.336953 0.138879
v -0.111098 -1.337598 0.138916
v -0.106649 -1.337128 0.139988
v -0.106396 -1.336531 0.140218
v -0.106308 -1.335731 0.140291
v -0.107066 -1.334947 0.139934
v -0.108157 -1.333930 0.139122
v -0.109838 -1.333891 0.138556
v -0.111550 -1.334710 0.138833
v -0.112613 -1.336225 0.139254
v -0.112838 -1.336957 0.139308
v -0.112115 -1.337625 0.139120
v -0.112537 -1.337401 0.139250
f 17 18 34
f 17 34 33
f 82 81 18
f 82 18 17
f 33 48 32
f 33 32 17
f 17 32 112
f 17 112 82
f 19 35 34
f 19 34 18
f 81 95 19
f 81 19 18
f 19 20 36
f 19 36 35
f 95 94 20
f 95 20 19
f 20 21 37
f 20 37 36
f 94 93 21
f 94 21 20
f 21 22 38
f 21 38 37
f 93 92 22
f 93 22 21
f 22 23 39
f 22 39 38
f 92 91 23
f 92 23 22
f 23 24 40
f 23 40 39
f 91 90 24
f 91 24 23
f 24 25 41
f 24 41 40
f 90 89 25
f 90 25 24
f 25 26 42
f 25 42 41
f 89 88 26
f 89 26 25
f 26 27 43
f 26 43 42
f 88 87 27
f 88 27 26
f 27 28 44
f 27 44 43
f 87 86 28
f 87 28 27
f 28 29 45
f 28 45 44
f 86 85 29
f 86 29 28
f 29 30 46
f 29 46 45
f 85 84 30
f 85 30 29
f 30 31 47
f 30 47 46
f 84 83 31
f 84 31 30
f 31 32 48
f 31 48 47
f 83 112 32
f 83 32 31
f 97 111 79
f 97 79 65
f 65 79 95
f 65 95 81
f 65 66 98
f 65 98 97
f 81 82 66
f 81 66 65
f 82 112 80
f 82 80 66
f 66 80 96
f 66 96 98
f 67 68 100
f 67 100 99
f 83 84 68
f 83 68 67
f 67 80 112
f 67 112 83
f 99 96 80
f 99 80 67
f 68 69 101
f 68 101 100
f 84 85 69
f 84 69 68
f 69 70 102
f 69 102 101
f 85 86 70
f 85 70 69
f 70 71 103
f 70 103 102
f 86 87 71
f 86 71 70
f 71 72 104
f 71 104 103
f 87 88 72
f 87 72 71
f 72 73 105
f 72 105 104
f 88 89 73
f 88 73 72
f 73 74 106
f 73 106 105
f 89 90 74
f 89 74 73
f 74 75 107
f 74 107 106
f 90 91 75
f 90 75 74
f 75 76 108
f 75 108 107
f 91 92 76
f 91 76 75
f 76 77 109
f 76 109 108
f 92 93 77
f 92 77 76
f 77 78 110
f 77 110 109
f 93 94 78
f 93 78 77
f 78 79 111
f 78 111 110
f 94 95 79
f 94 79 78
f 111 97 49
f 111 49 63
f 110 111 63
f 110 63 62
f 109 110 62
f 109 62 61
f 108 109 61
f 108 61 60
f 107 108 60
f 107 60 59
f 106 107 59
f 106 59 58
f 105 106 58
f 105 58 57
f 104 105 57
f 104 57 56
f 103 104 56
f 103 56 55
f 102 103 55
f 102 55 54
f 101 102 54
f 101 54 53
f 100 101 53
f 100 53 52
f 99 100 52
f 99 52 51
f 96 99 51
f 96 51 64
f 98 96 64
f 98 64 50
f 50 49 97
f 50 97 98
f 54 55 122
f 54 122 123
f 53 54 123
f 53 123 124
f 52 53 124
f 52 124 125
f 51 52 125
f 51 125 126
f 64 51 126
f 64 126 127
f 50 64 127
f 50 127 128
f 113 49 50
f 113 50 128
f 114 63 49
f 114 49 113
f 62 63 114
f 62 114 115
f 61 62 115
f 61 115 116
f 60 61 116
f 60 116 117
f 59 60 117
f 59 117 118
f 58 59 118
f 58 118 119
f 57 58 119
f 57 119 120
f 163 120 119
f 163 119 162
f 122 55 56
f 122 56 121
f 121 56 57
f 121 57 120
f 164 121 120
f 164 120 163
f 146 119 118
f 146 118 147
f 161 162 119
f 161 119 146
f 166 161 146
f 166 146 147
f 152 148 161
f 152 161 166
f 147 118 117
f 147 117 145
f 116 115 143
f 116 143 144
f 145 117 116
f 145 116 144
f 167 166 147
f 167 147 145
f 158 152 166
f 158 166 167
f 167 145 144
f 167 144 168
f 165 132 121
f 165 121 164
f 122 121 132
f 122 132 134
f 134 132 165
f 134 165 169
f 169 165 133
f 169 133 149
f 123 122 134
f 123 134 135
f 170 169 149
f 170 149 154
f 135 134 169
f 135 169 170
f 124 123 135
f 124 135 136
f 137 125 124
f 137 124 136
f 126 125 137
f 126 137 138
f 136 135 170
f 136 170 171
f 138 137 136
f 138 136 171
f 171 170 154
f 171 154 155
f 127 126 138
f 127 138 139
f 128 127 139
f 128 139 140
f 113 128 140
f 113 140 141
f 114 113 141
f 114 141 142
f 143 115 114
f 143 114 142
f 168 144 143
f 168 143 142
f 160 158 167
f 160 167 168
f 160 168 142
f 160 142 176
f 176 142 141
f 176 141 175
f 175 141 140
f 175 140 174
f 174 140 139
f 174 139 173
f 172 138 171
f 172 171 155
f 173 139 138
f 173 138 172
f 47 48 13
f 47 13 12
f 46 47 12
f 46 12 11
f 45 46 11
f 45 11 10
f 44 45 10
f 44 10 16
f 43 44 16
f 43 16 9
f 42 43 9
f 42 9 8
f 41 42 8
f 41 8 7
f 40 41 7
f 40 7 6
f 39 40 6
f 39 6 5
f 38 39 5
f 38 5 15
f 37 38 15
f 37 15 4
f 36 37 4
f 36 4 14
f 35 36 14
f 35 14 3
f 34 35 3
f 34 3 2
f 1 13 48
f 1 48 33
f 33 34 2
f 33 2 1
f 190 12 13
f 190 13 189
f 189 13 1
f 189 1 204
f 11 12 190
f 11 190 191
f 206 191 190
f 206 190 189
f 192 10 11
f 192 11 191
f 192 191 206
f 192 206 207
f 16 10 192
f 16 192 193
f 194 9 16
f 194 16 193
f 8 9 194
f 8 194 195
f 193 192 207
f 193 207 208
f 195 194 193
f 195 193 208
f 196 7 8
f 196 8 195
f 196 195 208
f 196 208 209
f 2 3 202
f 2 202 203
f 204 1 2
f 204 2 203
f 202 3 14
f 202 14 201
f 205 204 203
f 205 203 211
f 206 189 204
f 206 204 205
f 211 203 202
f 211 202 201
f 201 14 4
f 201 4 200
f 188 207 206
f 188 206 205
f 209 208 207
f 209 207 188
f 212 188 205
f 212 205 211
f 212 211 201
f 212 201 200
f 6 7 196
f 6 196 197
f 200 4 15
f 200 15 199
f 197 196 209
f 197 209 210
f 5 6 197
f 5 197 198
f 198 197 210
f 198 210 199
f 199 15 5
f 199 5 198
f 210 209 188
f 210 188 212
f 210 212 200
f 210 200 199
f 162 161 148
f 162 148 131
f 163 162 131
f 163 131 129
f 164 163 129
f 164 129 130
f 130 133 165
f 130 165 164
f 214 129 131
f 214 131 213
f 151 131 148
f 151 148 152
f 216 213 131
f 216 131 151
f 157 151 152
f 157 152 158
f 216 151 157
f 216 157 217
f 159 157 158
f 159 158 160
f 218 217 157
f 218 157 159
f 182 183 214
f 182 214 213
f 177 159 160
f 177 160 176
f 182 213 216
f 182 216 217
f 219 182 217
f 219 217 218
f 219 218 159
f 219 159 177
f 178 177 176
f 178 176 175
f 219 177 178
f 219 178 220
f 185 182 219
f 185 219 220
f 179 178 175
f 179 175 174
f 183 182 185
f 183 185 186
f 220 178 179
f 220 179 221
f 186 185 220
f 186 220 221
f 180 179 174
f 180 174 173
f 222 187 186
f 222 186 221
f 222 221 179
f 222 179 180
f 181 180 173
f 181 173 172
f 223 222 180
f 223 180 181
f 181 172 155
f 181 155 156
f 215 130 129
f 215 129 214
f 149 133 130
f 149 130 150
f 150 130 215
f 150 215 225
f 156 155 154
f 156 154 153
f 187 222 223
f 187 223 184
f 154 149 150
f 154 150 153
f 184 183 186
f 184 186 187
f 215 214 183
f 215 183 184
f 225 215 184
f 225 184 226
f 226 184 223
f 226 223 224
f 224 223 181
f 224 181 156
f 224 156 153
f 224 153 226
f 153 150 225
f 153 225 226
