# _1st_Distal_Phalanges_Hand_R posed
v -0.826002 0.141250 0.442044
v -0.824263 0.140409 0.441211
v -0.822686 0.139835 0.441685
v -0.822203 0.139404 0.442764
v -0.822376 0.139828 0.444116
v -0.823222 0.140531 0.444910
v -0.823984 0.141300 0.444916
v -0.825695 0.141796 0.443856
v -0.820416 0.146121 0.444395
v -0.822436 0.146152 0.442615
v -0.822254 0.145427 0.440784
v -0.820667 0.144451 0.439989
v -0.818527 0.143669 0.440097
v -0.816987 0.143729 0.441533
v -0.816893 0.144712 0.443315
v -0.818115 0.145594 0.444368
v -0.820276 0.148671 0.444814
v -0.821960 0.148395 0.442157
v -0.821116 0.147178 0.440244
v -0.819440 0.146032 0.439057
v -0.816727 0.144930 0.438783
v -0.814339 0.144989 0.440722
v -0.814025 0.146444 0.443275
v -0.816243 0.147753 0.445067
v -0.827401 0.139531 0.442293
v -0.825360 0.138803 0.441328
v -0.826632 0.140567 0.444213
v -0.828126 0.138544 0.442486
v -0.827551 0.140020 0.444424
v -0.826254 0.137855 0.441085
v -0.824223 0.137607 0.444628
v -0.824944 0.139056 0.445294
v -0.823308 0.137507 0.443042
v -0.823518 0.138389 0.441977
v -0.824985 0.140098 0.445176
v -0.825178 0.136392 0.444801
v -0.825999 0.138277 0.445547
v -0.825995 0.139557 0.445394
v -0.824082 0.137486 0.441854
v -0.823963 0.136374 0.443011
v -0.827001 0.132615 0.446187
v -0.827901 0.134718 0.446543
v -0.829616 0.135821 0.445973
v -0.830236 0.136859 0.444357
v -0.829952 0.134434 0.443694
v -0.828077 0.134686 0.441853
v -0.827220 0.133068 0.442954
v -0.826098 0.132608 0.444390
v -0.829301 0.132374 0.445260
v -0.826094 0.134539 0.445439
v -0.827234 0.136703 0.446073
v -0.828774 0.138598 0.445818
v -0.829838 0.138697 0.444233
v -0.829304 0.137010 0.442509
v -0.827119 0.135943 0.440978
v -0.825286 0.135193 0.441531
v -0.825077 0.134407 0.443345
v -0.819144 0.150271 0.440073
v -0.820499 0.151193 0.441417
v -0.819070 0.151175 0.443508
v -0.815493 0.150204 0.443706
v -0.813074 0.148900 0.441972
v -0.813117 0.147695 0.439789
v -0.815433 0.147802 0.438337
v -0.817102 0.148967 0.438910
v -0.820780 0.148658 0.439697
v -0.821986 0.150149 0.441615
v -0.820317 0.150610 0.444531
v -0.815188 0.149506 0.444967
v -0.812209 0.147627 0.442910
v -0.812559 0.146119 0.439669
v -0.815971 0.146403 0.437552
v -0.819077 0.147472 0.438236
v -0.822827 0.143691 0.440658
v -0.820945 0.142841 0.440426
v -0.819309 0.142483 0.441215
v -0.818592 0.142950 0.442685
v -0.819142 0.143736 0.443944
v -0.820450 0.144290 0.444453
v -0.822676 0.144693 0.443888
v -0.823714 0.144527 0.441964
v -0.824175 0.142193 0.441087
v -0.825091 0.142967 0.442497
v -0.821264 0.141787 0.444263
v -0.820686 0.141182 0.443071
v -0.821141 0.140952 0.441747
v -0.822371 0.141384 0.440942
v -0.826004 0.139827 0.441553
v -0.826879 0.140729 0.443112
v -0.823945 0.142995 0.444266
v -0.822222 0.142399 0.444715
v -0.823865 0.139056 0.444915
v -0.824279 0.140120 0.445157
v -0.825281 0.140944 0.444735
v -0.823785 0.139264 0.441545
v -0.823058 0.138234 0.443735
v -0.822858 0.138652 0.442383
v -0.829145 0.133312 0.446346
v -0.830246 0.134537 0.445217
v -0.828979 0.132510 0.443789
v -0.827895 0.131607 0.444774
v -0.818752 0.144729 0.439286
v -0.821502 0.147496 0.443703
v -0.821703 0.149742 0.443304
v -0.818545 0.147095 0.444964
v -0.818008 0.149312 0.445415
v -0.822039 0.146830 0.441320
v -0.821563 0.148650 0.440777
v -0.820851 0.145788 0.439975
v -0.820179 0.147338 0.439283
v -0.817910 0.146135 0.438095
v -0.816321 0.144147 0.440135
v -0.814653 0.145374 0.438928
v -0.815292 0.144906 0.442305
v -0.812785 0.146005 0.441734
v -0.816055 0.146188 0.444169
v -0.813979 0.147734 0.444394
v -0.821025 0.151361 0.442770
v -0.811896 0.147463 0.441104
v -0.813930 0.146906 0.438365
v -0.818292 0.150538 0.442776
v -0.821150 0.150185 0.440369
v -0.817361 0.150741 0.444626
v -0.813379 0.149235 0.443755
v -0.815222 0.149012 0.442156
v -0.814275 0.147977 0.440350
v -0.817219 0.147871 0.437578
v -0.819512 0.148763 0.438848
v -0.825264 0.140800 0.441431
v -0.823350 0.140100 0.441341
v -0.822352 0.139559 0.442165
v -0.822177 0.139512 0.443451
v -0.822841 0.140139 0.444642
v -0.823527 0.140905 0.444991
v -0.824844 0.141666 0.444577
v -0.826155 0.141613 0.442930
v -0.821707 0.146263 0.443709
v -0.822584 0.145846 0.441572
v -0.821584 0.144928 0.440285
v -0.819614 0.143995 0.439882
v -0.817591 0.143568 0.440685
v -0.816771 0.144146 0.442473
v -0.817329 0.145247 0.443955
v -0.819138 0.145868 0.444549
v -0.821611 0.148738 0.443558
v -0.821684 0.147797 0.441050
v -0.820392 0.146608 0.439623
v -0.818192 0.145421 0.438655
v -0.815347 0.144753 0.439547
v -0.813841 0.145588 0.442058
v -0.814811 0.147137 0.444300
v -0.818246 0.148300 0.445324
v -0.821470 0.144520 0.444389
v -0.823454 0.144704 0.442951
v -0.823416 0.144223 0.441155
v -0.821944 0.143220 0.440420
v -0.820038 0.142569 0.440699
v -0.818813 0.142607 0.441909
v -0.818719 0.143377 0.443402
v -0.819723 0.144034 0.444287
v -0.820154 0.147383 0.444661
v -0.822082 0.147282 0.442428
v -0.821577 0.146305 0.440524
v -0.819908 0.145264 0.439546
v -0.817471 0.144296 0.439446
v -0.815566 0.144360 0.441168
v -0.815459 0.145585 0.443330
v -0.817106 0.146694 0.444755
v -0.824768 0.142736 0.441617
v -0.823301 0.141722 0.440873
v -0.821625 0.141124 0.441254
v -0.820832 0.140946 0.442374
v -0.820829 0.141522 0.443734
v -0.821725 0.142089 0.444580
v -0.822934 0.142729 0.444652
v -0.824733 0.143123 0.443451
v -0.826839 0.140239 0.442179
v -0.826631 0.139100 0.441582
v -0.824836 0.139499 0.441351
v -0.827446 0.140140 0.443226
v -0.826223 0.141045 0.444043
v -0.828406 0.139374 0.443336
v -0.827454 0.138082 0.441619
v -0.823451 0.138506 0.444433
v -0.824156 0.139642 0.445130
v -0.824707 0.138299 0.445113
v -0.822856 0.138325 0.442992
v -0.823645 0.137306 0.443872
v -0.823223 0.137976 0.442439
v -0.823113 0.139006 0.441930
v -0.824279 0.138635 0.441570
v -0.825610 0.140483 0.444881
v -0.824532 0.140541 0.445057
v -0.824926 0.139646 0.445287
v -0.825715 0.137276 0.445371
v -0.825979 0.139028 0.445542
v -0.826495 0.139893 0.445039
v -0.824991 0.137739 0.441422
v -0.823826 0.136985 0.442339
v -0.824473 0.136075 0.443936
v -0.827477 0.133621 0.446549
v -0.828874 0.135125 0.446445
v -0.829990 0.136305 0.445283
v -0.830364 0.135795 0.444303
v -0.829194 0.133918 0.442843
v -0.827681 0.133899 0.442442
v -0.826611 0.132454 0.443631
v -0.826451 0.132302 0.445343
v -0.828653 0.132032 0.445760
v -0.828450 0.132021 0.444259
v -0.829772 0.132912 0.444721
v -0.829770 0.133819 0.445971
v -0.826102 0.135608 0.441190
v -0.825008 0.134803 0.442296
v -0.825509 0.134232 0.444496
v -0.826668 0.135498 0.445950
v -0.829820 0.138107 0.443289
v -0.828567 0.136427 0.441624
v -0.827739 0.137743 0.446125
v -0.829410 0.138844 0.445049
v -0.820926 0.147943 0.439968
v -0.821950 0.149316 0.441870
v -0.820080 0.150822 0.440754
v -0.819875 0.151388 0.442498
v -0.820393 0.149724 0.444743
v -0.817398 0.150684 0.443931
v -0.815592 0.148625 0.445151
v -0.814047 0.149524 0.442992
v -0.812994 0.146898 0.443215
v -0.812876 0.148193 0.440866
v -0.813363 0.145551 0.440194
v -0.814116 0.147613 0.439080
v -0.816277 0.145616 0.438154
v -0.816268 0.148298 0.438555
v -0.818161 0.149590 0.439356
v -0.818465 0.148350 0.438185
v -0.821751 0.150638 0.443046
v -0.817764 0.150242 0.445232
v -0.813458 0.148540 0.444227
v -0.811978 0.146639 0.441366
v -0.814137 0.146032 0.438314
v -0.821504 0.149423 0.440520
v -0.820008 0.148013 0.438971
v -0.817740 0.146907 0.437628
v -0.820399 0.149416 0.439505
v -0.821466 0.150919 0.441427
v -0.819658 0.151232 0.443979
v -0.815018 0.150128 0.444438
v -0.812186 0.148383 0.442500
v -0.812492 0.146945 0.439572
v -0.815713 0.147401 0.437564
v -0.819229 0.146750 0.438618
v -0.816501 0.149683 0.442843
v -0.814542 0.148388 0.441346
f 1 129 88
f 1 88 177
f 1 177 89
f 1 89 136
f 2 130 95
f 2 95 179
f 179 88 129
f 179 129 2
f 3 131 97
f 3 97 190
f 3 190 95
f 3 95 130
f 4 132 96
f 4 96 187
f 4 187 97
f 4 97 131
f 5 133 92
f 5 92 184
f 5 184 96
f 5 96 132
f 6 134 93
f 6 93 185
f 6 185 92
f 6 92 133
f 7 135 94
f 7 94 193
f 7 193 93
f 7 93 134
f 8 136 89
f 8 89 181
f 181 94 135
f 181 135 8
f 161 103 137
f 161 137 9
f 144 105 161
f 144 161 9
f 162 107 138
f 162 138 10
f 137 103 162
f 137 162 10
f 163 109 139
f 163 139 11
f 138 107 163
f 138 163 11
f 164 102 140
f 164 140 12
f 139 109 164
f 139 164 12
f 165 112 141
f 165 141 13
f 140 102 165
f 140 165 13
f 166 114 142
f 166 142 14
f 141 112 166
f 141 166 14
f 167 116 143
f 167 143 15
f 142 114 167
f 142 167 15
f 168 105 144
f 168 144 16
f 143 116 168
f 143 168 16
f 17 145 103
f 17 103 161
f 225 104 145
f 225 145 17
f 152 106 225
f 152 225 17
f 161 105 152
f 161 152 17
f 18 146 107
f 18 107 162
f 222 108 146
f 222 146 18
f 145 104 222
f 145 222 18
f 162 103 145
f 162 145 18
f 19 147 109
f 19 109 163
f 221 110 147
f 221 147 19
f 146 108 221
f 146 221 19
f 163 107 146
f 163 146 19
f 20 148 102
f 20 102 164
f 252 111 148
f 252 148 20
f 164 109 147
f 164 147 20
f 20 147 110
f 20 110 252
f 21 149 112
f 21 112 165
f 233 113 149
f 233 149 21
f 148 111 233
f 148 233 21
f 165 102 148
f 165 148 21
f 22 150 114
f 22 114 166
f 231 115 150
f 231 150 22
f 149 113 231
f 149 231 22
f 166 112 149
f 166 149 22
f 23 151 116
f 23 116 167
f 229 117 151
f 229 151 23
f 150 115 229
f 150 229 23
f 167 114 150
f 167 150 23
f 24 152 105
f 24 105 168
f 227 106 152
f 227 152 24
f 151 117 227
f 151 227 24
f 168 116 151
f 168 151 24
f 209 98 212
f 209 212 49
f 49 212 99
f 49 99 211
f 210 101 209
f 210 209 49
f 211 100 210
f 211 210 49
f 58 223 121
f 58 121 253
f 245 122 223
f 245 223 58
f 253 125 235
f 253 235 58
f 58 235 128
f 58 128 245
f 246 118 224
f 246 224 59
f 59 224 121
f 59 121 223
f 59 223 122
f 59 122 246
f 60 226 121
f 60 121 224
f 247 123 226
f 247 226 60
f 60 224 118
f 60 118 247
f 248 124 228
f 248 228 61
f 61 228 125
f 61 125 253
f 61 253 121
f 61 121 226
f 61 226 123
f 61 123 248
f 249 119 230
f 249 230 62
f 62 230 126
f 62 126 254
f 62 254 125
f 62 125 228
f 62 228 124
f 62 124 249
f 250 120 232
f 250 232 63
f 63 232 126
f 63 126 230
f 63 230 119
f 63 119 250
f 64 234 126
f 64 126 232
f 251 127 234
f 251 234 64
f 64 232 120
f 64 120 251
f 234 127 236
f 234 236 65
f 65 236 128
f 65 128 235
f 254 126 234
f 254 234 65
f 65 235 125
f 65 125 254
f 66 243 110
f 66 110 221
f 245 128 243
f 245 243 66
f 242 122 245
f 242 245 66
f 66 221 108
f 66 108 242
f 222 104 237
f 222 237 67
f 67 237 118
f 67 118 246
f 67 242 108
f 67 108 222
f 246 122 242
f 246 242 67
f 225 106 238
f 225 238 68
f 68 238 123
f 68 123 247
f 68 247 118
f 68 118 237
f 237 104 225
f 237 225 68
f 227 117 239
f 227 239 69
f 69 239 124
f 69 124 248
f 69 248 123
f 69 123 238
f 238 106 227
f 238 227 69
f 229 115 240
f 229 240 70
f 70 240 119
f 70 119 249
f 70 249 124
f 70 124 239
f 239 117 229
f 239 229 70
f 231 113 241
f 231 241 71
f 71 241 120
f 71 120 250
f 71 250 119
f 71 119 240
f 240 115 231
f 240 231 71
f 233 111 244
f 233 244 72
f 72 244 127
f 72 127 251
f 72 251 120
f 72 120 241
f 241 113 233
f 241 233 72
f 73 252 110
f 73 110 243
f 244 111 252
f 244 252 73
f 73 236 127
f 73 127 244
f 243 128 236
f 243 236 73
f 201 98 209
f 201 209 41
f 41 50 216
f 41 216 201
f 212 98 202
f 212 202 43
f 202 219 52
f 202 52 43
f 45 211 99
f 45 99 204
f 204 217 54
f 204 54 45
f 47 210 100
f 47 100 206
f 47 207 101
f 47 101 210
f 56 214 207
f 56 207 47
f 206 213 56
f 206 56 47
f 203 43 52
f 203 52 220
f 99 212 43
f 99 43 203
f 100 211 45
f 100 45 205
f 205 45 54
f 205 54 218
f 208 41 209
f 208 209 101
f 215 50 41
f 215 41 208
f 42 201 216
f 42 216 51
f 202 98 201
f 202 201 42
f 51 219 202
f 51 202 42
f 46 206 100
f 46 100 205
f 55 213 206
f 55 206 46
f 205 218 55
f 205 55 46
f 44 204 99
f 44 99 203
f 53 217 204
f 53 204 44
f 203 220 53
f 203 53 44
f 48 208 101
f 48 101 207
f 57 215 208
f 57 208 48
f 207 214 57
f 207 57 48
f 28 183 218
f 28 218 54
f 177 88 178
f 177 178 25
f 25 178 183
f 25 183 28
f 192 94 181
f 192 181 27
f 29 53 220
f 29 220 197
f 27 29 197
f 27 197 192
f 30 55 218
f 30 218 183
f 178 88 179
f 178 179 26
f 26 30 183
f 26 183 178
f 184 92 186
f 184 186 31
f 31 186 195
f 31 195 36
f 36 195 216
f 36 216 50
f 193 94 192
f 193 192 35
f 192 197 38
f 192 38 35
f 38 197 220
f 38 220 52
f 190 97 189
f 190 189 34
f 189 199 39
f 189 39 34
f 39 199 214
f 39 214 56
f 40 57 214
f 40 214 199
f 33 189 97
f 33 97 187
f 40 199 189
f 40 189 33
f 196 38 52
f 196 52 219
f 194 35 38
f 194 38 196
f 93 193 35
f 93 35 194
f 191 26 179
f 191 179 95
f 198 39 56
f 198 56 213
f 191 34 39
f 191 39 198
f 95 190 34
f 95 34 191
f 198 30 26
f 198 26 191
f 213 55 30
f 213 30 198
f 32 185 93
f 32 93 194
f 37 51 216
f 37 216 195
f 194 196 37
f 194 37 32
f 32 37 195
f 32 195 186
f 186 92 185
f 186 185 32
f 37 196 219
f 37 219 51
f 180 27 181
f 180 181 89
f 217 53 29
f 217 29 182
f 180 25 28
f 180 28 182
f 89 177 25
f 89 25 180
f 182 29 27
f 182 27 180
f 182 28 54
f 182 54 217
f 188 33 187
f 188 187 96
f 200 36 50
f 200 50 215
f 188 31 36
f 188 36 200
f 96 184 31
f 96 31 188
f 200 40 33
f 200 33 188
f 215 57 40
f 215 40 200
f 153 9 137
f 153 137 80
f 90 175 153
f 90 153 80
f 90 135 7
f 90 7 175
f 129 1 169
f 129 169 82
f 155 11 139
f 155 139 74
f 82 169 155
f 82 155 74
f 157 13 141
f 157 141 76
f 86 171 157
f 86 157 76
f 86 131 3
f 86 3 171
f 159 15 143
f 159 143 78
f 84 173 159
f 84 159 78
f 133 5 173
f 133 173 84
f 80 137 10
f 80 10 154
f 176 8 135
f 176 135 90
f 154 176 90
f 154 90 80
f 76 141 14
f 76 14 158
f 172 4 131
f 172 131 86
f 158 172 86
f 158 86 76
f 154 10 138
f 154 138 81
f 136 8 176
f 136 176 83
f 155 169 83
f 155 83 81
f 81 83 176
f 81 176 154
f 138 11 155
f 138 155 81
f 83 169 1
f 83 1 136
f 77 142 15
f 77 15 159
f 173 5 132
f 173 132 85
f 158 14 142
f 158 142 77
f 85 172 158
f 85 158 77
f 159 173 85
f 159 85 77
f 85 132 4
f 85 4 172
f 74 139 12
f 74 12 156
f 170 2 129
f 170 129 82
f 156 170 82
f 156 82 74
f 75 140 13
f 75 13 157
f 171 3 130
f 171 130 87
f 156 12 140
f 156 140 75
f 87 170 156
f 87 156 75
f 157 171 87
f 157 87 75
f 130 2 170
f 130 170 87
f 78 143 16
f 78 16 160
f 174 6 133
f 174 133 84
f 160 174 84
f 160 84 78
f 79 144 9
f 79 9 153
f 175 7 134
f 175 134 91
f 160 16 144
f 160 144 79
f 91 174 160
f 91 160 79
f 153 175 91
f 153 91 79
f 134 6 174
f 134 174 91
