# _1st_Distal_Phalanx_Foot_L rest
v 0.107099 -1.327983 0.137135
v 0.105217 -1.327325 0.138847
v 0.103273 -1.327795 0.140517
v 0.101307 -1.329329 0.142081
v 0.099734 -1.331546 0.141802
v 0.099733 -1.333705 0.140561
v 0.100684 -1.334970 0.138998
v 0.102187 -1.336011 0.137238
v 0.108560 -1.329801 0.135556
v 0.109399 -1.332425 0.134462
v 0.109638 -1.335650 0.134073
v 0.108106 -1.337602 0.133682
v 0.105603 -1.337824 0.134158
v 0.103776 -1.336985 0.135713
v 0.103258 -1.334546 0.137496
v 0.101862 -1.333556 0.139017
v 0.101070 -1.332593 0.140174
v 0.101180 -1.331591 0.140731
v 0.102013 -1.330263 0.140657
v 0.103280 -1.329515 0.139775
v 0.104782 -1.329675 0.138861
v 0.106127 -1.330210 0.137481
v 0.107300 -1.331490 0.136276
v 0.108296 -1.333416 0.135575
v 0.108291 -1.334868 0.135409
v 0.107670 -1.336069 0.135157
v 0.106151 -1.336267 0.135470
v 0.104889 -1.335546 0.136270
v 0.109165 -1.328489 0.139509
v 0.107122 -1.327735 0.141254
v 0.104808 -1.328014 0.142954
v 0.102124 -1.329637 0.144581
v 0.099774 -1.332330 0.145190
v 0.099120 -1.335232 0.143593
v 0.101025 -1.337644 0.140884
v 0.102261 -1.337674 0.138400
v 0.103865 -1.338648 0.136845
v 0.105875 -1.340341 0.135875
v 0.108650 -1.340232 0.134641
v 0.111027 -1.337591 0.135103
v 0.111534 -1.334015 0.136141
v 0.110739 -1.330737 0.137547
v 0.108130 -1.341259 0.138481
v 0.110283 -1.340973 0.138545
v 0.112203 -1.338561 0.138487
v 0.112374 -1.335159 0.139189
v 0.111443 -1.332528 0.140444
v 0.110246 -1.330651 0.141780
v 0.108298 -1.329893 0.143313
v 0.106133 -1.330467 0.144979
v 0.104048 -1.331524 0.146546
v 0.102074 -1.334490 0.147943
v 0.101430 -1.337053 0.146689
v 0.101935 -1.338323 0.143592
v 0.105209 -1.338750 0.139005
v 0.104120 -1.337927 0.144186
v 0.106382 -1.339692 0.138548
v 0.110243 -1.339915 0.140718
v 0.108981 -1.339895 0.140779
v 0.103793 -1.338058 0.140233
v 0.107315 -1.339036 0.141595
v 0.103837 -1.337314 0.146975
v 0.103147 -1.337869 0.141025
v 0.105692 -1.338374 0.143061
v 0.104173 -1.335515 0.148168
v 0.105638 -1.333730 0.147712
v 0.107601 -1.332381 0.146704
v 0.109539 -1.331841 0.145269
v 0.111096 -1.332242 0.143853
v 0.112074 -1.333670 0.142565
v 0.112385 -1.335846 0.141765
v 0.111777 -1.338430 0.141125
v 0.110040 -1.339398 0.143928
v 0.109090 -1.339419 0.144605
v 0.107924 -1.339177 0.145750
v 0.107049 -1.338478 0.147028
v 0.110968 -1.339105 0.143659
v 0.112075 -1.338420 0.143580
v 0.113012 -1.336571 0.143872
v 0.106673 -1.337543 0.148082
v 0.106751 -1.336281 0.148605
v 0.107516 -1.334765 0.148782
v 0.109106 -1.333862 0.148169
v 0.110711 -1.333545 0.147093
v 0.111936 -1.333779 0.145888
v 0.112769 -1.334764 0.144878
v 0.109351 -1.336091 0.150273
v 0.108825 -1.337416 0.149989
v 0.108778 -1.338484 0.149400
v 0.109129 -1.339338 0.148814
v 0.109677 -1.340034 0.148009
v 0.110543 -1.340228 0.147192
v 0.111495 -1.339955 0.146642
v 0.112391 -1.339518 0.146377
v 0.113130 -1.338786 0.146021
v 0.113788 -1.337440 0.146131
v 0.113631 -1.336232 0.146808
v 0.112851 -1.335328 0.147830
v 0.111821 -1.335112 0.148772
v 0.110417 -1.335317 0.149714
v 0.111700 -1.338411 0.153063
v 0.110839 -1.339190 0.152548
v 0.110716 -1.340052 0.151897
v 0.110914 -1.340972 0.151193
v 0.111298 -1.341738 0.150523
v 0.112031 -1.342105 0.149699
v 0.113052 -1.342123 0.149293
v 0.114313 -1.341724 0.149165
v 0.115224 -1.341053 0.149326
v 0.115493 -1.340011 0.149632
v 0.115411 -1.339155 0.150470
v 0.114869 -1.338259 0.151340
v 0.113924 -1.337898 0.152280
v 0.112670 -1.338110 0.152890
v 0.115500 -1.339948 0.154898
v 0.113799 -1.339381 0.155163
v 0.116455 -1.340669 0.154010
v 0.116903 -1.341258 0.152787
v 0.116822 -1.341884 0.151106
v 0.116216 -1.342437 0.149996
v 0.115274 -1.343047 0.149764
v 0.114224 -1.344134 0.150559
v 0.113515 -1.344687 0.151910
v 0.112453 -1.344060 0.152976
v 0.111653 -1.342992 0.153603
v 0.111090 -1.341578 0.153709
v 0.111084 -1.340375 0.154381
v 0.112295 -1.339422 0.154946
v 0.115867 -1.339976 0.155861
v 0.117088 -1.340827 0.154705
v 0.114106 -1.339483 0.156186
v 0.112231 -1.339496 0.155919
v 0.110938 -1.340576 0.155372
v 0.110897 -1.341873 0.154562
v 0.111664 -1.343468 0.154250
v 0.112419 -1.344510 0.153688
v 0.113728 -1.345298 0.152380
v 0.114626 -1.344820 0.150573
v 0.116970 -1.342954 0.150149
v 0.115830 -1.343649 0.149696
v 0.117427 -1.342171 0.151299
v 0.117582 -1.341527 0.153195
v 0.117878 -1.342084 0.155963
v 0.118413 -1.342800 0.154358
v 0.118314 -1.343510 0.152786
v 0.117649 -1.344455 0.151637
v 0.116819 -1.345165 0.151468
v 0.115922 -1.345688 0.152159
v 0.114767 -1.345698 0.153734
v 0.113647 -1.345395 0.155246
v 0.112702 -1.344049 0.155894
v 0.112081 -1.342644 0.156392
v 0.112818 -1.340678 0.157337
v 0.114867 -1.340724 0.157546
v 0.116534 -1.341369 0.157190
v 0.112097 -1.341508 0.157002
v 0.117091 -1.343890 0.158469
v 0.118352 -1.344653 0.157199
v 0.115779 -1.345535 0.157449
v 0.116824 -1.346009 0.156180
v 0.114238 -1.344427 0.157279
v 0.115358 -1.342727 0.158492
v 0.118575 -1.344678 0.155738
v 0.118113 -1.345554 0.155698
v 0.117846 -1.345621 0.157117
v 0.116674 -1.345059 0.158330
v 0.115220 -1.344131 0.158339
v 0.113921 -1.341900 0.158078
v 0.117148 -1.345780 0.154481
v 0.113197 -1.343200 0.156973
v 0.113685 -1.342870 0.157822
v 0.117378 -1.345390 0.153127
v 0.117913 -1.345111 0.153495
v 0.118469 -1.344506 0.154272
v 0.106022 -1.334637 0.137054
v 0.104606 -1.333565 0.138211
v 0.103119 -1.332654 0.139469
v 0.106917 -1.333495 0.137208
v 0.105575 -1.332443 0.138438
v 0.104213 -1.331592 0.139620
f 10 11 25
f 10 25 24
f 40 39 12
f 40 12 11
f 41 40 11
f 41 11 10
f 42 41 10
f 42 10 9
f 29 42 9
f 29 9 1
f 29 1 2
f 29 2 30
f 31 30 2
f 31 2 3
f 32 31 3
f 32 3 4
f 33 32 4
f 33 4 5
f 34 33 5
f 34 5 6
f 36 8 14
f 36 14 37
f 38 37 14
f 38 14 13
f 38 13 12
f 38 12 39
f 43 38 39
f 43 39 44
f 54 53 34
f 54 34 35
f 35 34 6
f 35 6 7
f 35 7 8
f 35 8 36
f 60 36 37
f 60 37 55
f 35 36 60
f 35 60 63
f 55 37 38
f 55 38 57
f 52 33 34
f 52 34 53
f 51 32 33
f 51 33 52
f 50 31 32
f 50 32 51
f 49 30 31
f 49 31 50
f 48 29 30
f 48 30 49
f 47 42 29
f 47 29 48
f 46 41 42
f 46 42 47
f 45 40 41
f 45 41 46
f 45 44 39
f 45 39 40
f 59 57 38
f 59 38 43
f 61 55 57
f 61 57 59
f 60 55 61
f 60 61 64
f 56 54 35
f 56 35 63
f 56 63 60
f 56 60 64
f 59 43 44
f 59 44 58
f 58 44 45
f 58 45 72
f 72 45 46
f 72 46 71
f 53 54 56
f 53 56 62
f 65 52 53
f 65 53 62
f 51 52 65
f 51 65 66
f 50 51 66
f 50 66 67
f 49 50 67
f 49 67 68
f 48 49 68
f 48 68 69
f 47 48 69
f 47 69 70
f 71 46 47
f 71 47 70
f 69 68 84
f 69 84 85
f 85 84 99
f 85 99 98
f 84 68 67
f 84 67 83
f 100 99 84
f 100 84 83
f 70 69 85
f 70 85 86
f 86 85 98
f 86 98 97
f 83 67 66
f 83 66 82
f 87 100 83
f 87 83 82
f 82 66 65
f 82 65 81
f 88 87 82
f 88 82 81
f 81 65 62
f 81 62 80
f 89 88 81
f 89 81 80
f 80 62 56
f 80 56 76
f 90 89 80
f 90 80 76
f 76 56 64
f 76 64 75
f 91 90 76
f 91 76 75
f 75 64 61
f 75 61 74
f 92 91 75
f 92 75 74
f 74 61 59
f 74 59 73
f 93 92 74
f 93 74 73
f 73 59 58
f 73 58 77
f 94 93 73
f 94 73 77
f 78 77 58
f 78 58 72
f 95 94 77
f 95 77 78
f 79 78 72
f 79 72 71
f 96 95 78
f 96 78 79
f 79 71 70
f 79 70 86
f 79 86 97
f 79 97 96
f 114 113 99
f 114 99 100
f 98 99 113
f 98 113 112
f 97 98 112
f 97 112 111
f 96 97 111
f 96 111 110
f 95 96 110
f 95 110 109
f 94 95 109
f 94 109 108
f 93 94 108
f 93 108 107
f 92 93 107
f 92 107 106
f 91 92 106
f 91 106 105
f 90 91 105
f 90 105 104
f 89 90 104
f 89 104 103
f 88 89 103
f 88 103 102
f 87 88 102
f 87 102 101
f 101 114 100
f 101 100 87
f 115 113 114
f 115 114 116
f 112 113 115
f 112 115 117
f 116 114 101
f 116 101 128
f 128 101 102
f 128 102 127
f 127 102 103
f 127 103 126
f 126 103 104
f 126 104 125
f 125 104 105
f 125 105 124
f 124 105 106
f 124 106 123
f 123 106 107
f 123 107 122
f 108 109 120
f 108 120 121
f 122 107 108
f 122 108 121
f 120 109 110
f 120 110 119
f 119 110 111
f 119 111 118
f 111 112 117
f 111 117 118
f 142 118 117
f 142 117 130
f 141 119 118
f 141 118 142
f 139 120 119
f 139 119 141
f 140 121 120
f 140 120 139
f 138 122 121
f 138 121 140
f 137 123 122
f 137 122 138
f 136 124 123
f 136 123 137
f 135 125 124
f 135 124 136
f 134 126 125
f 134 125 135
f 131 116 128
f 131 128 132
f 130 117 115
f 130 115 129
f 129 115 116
f 129 116 131
f 133 132 128
f 133 128 127
f 133 127 126
f 133 126 134
f 143 130 129
f 143 129 155
f 150 136 137
f 150 137 149
f 155 129 131
f 155 131 154
f 144 142 130
f 144 130 143
f 158 143 155
f 158 155 157
f 165 158 157
f 165 157 166
f 154 131 132
f 154 132 153
f 162 157 155
f 162 155 154
f 165 166 159
f 165 159 160
f 159 150 149
f 159 149 160
f 149 137 138
f 149 138 148
f 161 151 150
f 161 150 159
f 135 136 150
f 135 150 151
f 152 134 135
f 152 135 151
f 162 154 153
f 162 153 168
f 167 166 157
f 167 157 162
f 167 161 159
f 167 159 166
f 152 151 161
f 152 161 170
f 167 162 168
f 167 168 171
f 133 134 152
f 133 152 156
f 156 152 170
f 156 170 171
f 153 132 133
f 153 133 156
f 171 168 153
f 171 153 156
f 170 161 167
f 170 167 171
f 148 138 140
f 148 140 147
f 169 160 149
f 169 149 148
f 169 148 147
f 169 147 172
f 147 140 139
f 147 139 146
f 164 165 160
f 164 160 169
f 173 164 169
f 173 169 172
f 173 172 147
f 173 147 146
f 146 139 141
f 146 141 145
f 141 142 144
f 141 144 145
f 163 158 165
f 163 165 164
f 144 143 158
f 144 158 163
f 174 145 144
f 174 144 163
f 163 164 173
f 163 173 174
f 174 173 146
f 174 146 145
f 26 12 13
f 26 13 27
f 28 27 13
f 28 13 14
f 28 14 8
f 28 8 15
f 16 7 6
f 16 6 17
f 16 15 8
f 16 8 7
f 18 17 6
f 18 6 5
f 25 11 12
f 25 12 26
f 23 9 10
f 23 10 24
f 178 25 26
f 178 26 175
f 175 26 27
f 175 27 28
f 178 23 24
f 178 24 25
f 1 9 23
f 1 23 22
f 176 175 28
f 176 28 15
f 179 22 23
f 179 23 178
f 179 178 175
f 179 175 176
f 177 16 17
f 177 17 18
f 21 20 3
f 21 3 2
f 21 2 1
f 21 1 22
f 177 176 15
f 177 15 16
f 19 4 3
f 19 3 20
f 180 21 22
f 180 22 179
f 19 18 5
f 19 5 4
f 180 177 18
f 180 18 19
f 19 20 21
f 19 21 180
f 180 179 176
f 180 176 177
