# _1st_Proximal_Phalanges_Hand_R posed
v -0.814577 0.147780 0.443124
v -0.817364 0.151656 0.443732
v -0.816108 0.152259 0.443177
v -0.817671 0.156095 0.440479
v -0.817309 0.156452 0.436632
v -0.817812 0.154641 0.437491
v -0.817778 0.152684 0.439434
v -0.818745 0.152761 0.441156
v -0.817732 0.150948 0.442886
v -0.819738 0.155648 0.440772
v -0.814004 0.147770 0.443140
v -0.815550 0.148032 0.442588
v -0.814010 0.145711 0.441651
v -0.815089 0.146294 0.441431
v -0.813318 0.145567 0.441499
v -0.813243 0.145128 0.439285
v -0.814377 0.145197 0.439532
v -0.815523 0.145808 0.439756
v -0.814963 0.145977 0.436987
v -0.815949 0.146130 0.437910
v -0.813675 0.146031 0.436664
v -0.816291 0.149799 0.435200
v -0.817106 0.148861 0.438094
v -0.816468 0.148372 0.441128
v -0.814765 0.150376 0.434142
v -0.815160 0.155347 0.439799
v -0.813909 0.151920 0.441831
v -0.815587 0.156342 0.436264
v -0.812582 0.148420 0.442186
v -0.811825 0.146504 0.440910
v -0.811536 0.145819 0.438790
v -0.811761 0.146636 0.436121
v -0.813301 0.151047 0.434027
v -0.809070 0.147586 0.435819
v -0.809541 0.148305 0.438409
v -0.810412 0.150138 0.439424
v -0.811542 0.152863 0.439141
v -0.812575 0.155862 0.437052
v -0.812237 0.155452 0.434501
v -0.811329 0.153263 0.431927
v -0.809554 0.149346 0.432347
v -0.806159 0.149778 0.431497
v -0.806634 0.150638 0.434598
v -0.807592 0.152634 0.435510
v -0.808794 0.155315 0.435145
v -0.809690 0.157454 0.433295
v -0.809217 0.156894 0.430998
v -0.808738 0.155614 0.428405
v -0.807179 0.152038 0.428020
v -0.803110 0.150841 0.427885
v -0.803649 0.152131 0.431324
v -0.804793 0.154464 0.432418
v -0.806142 0.157373 0.432180
v -0.807621 0.160336 0.430318
v -0.806827 0.159462 0.427421
v -0.806429 0.158080 0.424765
v -0.804646 0.153633 0.423715
v -0.800112 0.151067 0.424083
v -0.800702 0.152411 0.428533
v -0.802182 0.155566 0.430011
v -0.803821 0.159168 0.429908
v -0.805973 0.163542 0.427449
v -0.805824 0.163945 0.422869
v -0.804403 0.160530 0.419722
v -0.802069 0.154920 0.418768
v -0.801061 0.155972 0.429260
v -0.802861 0.160353 0.429292
v -0.804978 0.165463 0.425897
v -0.805243 0.166070 0.420876
v -0.802808 0.161610 0.418737
v -0.800192 0.155840 0.416395
v -0.798652 0.151525 0.422080
v -0.799389 0.152481 0.427225
v -0.799884 0.156338 0.428186
v -0.798841 0.153282 0.426580
v -0.797885 0.153196 0.422454
v -0.798838 0.156353 0.418076
v -0.800935 0.160756 0.420056
v -0.802738 0.164742 0.420862
v -0.801812 0.163252 0.424491
v -0.801461 0.160205 0.428472
v -0.799297 0.158165 0.423850
v -0.816326 0.147143 0.436250
v -0.819266 0.153299 0.442292
v -0.814529 0.145393 0.440694
v -0.815071 0.145563 0.438567
v -0.817029 0.150729 0.440581
v -0.816881 0.149825 0.442289
v -0.815960 0.149210 0.443453
v -0.814671 0.146900 0.442341
v -0.815739 0.146988 0.441329
v -0.816636 0.146905 0.438998
v -0.819286 0.154938 0.439458
v -0.816531 0.151407 0.438339
v -0.818822 0.156833 0.438816
v -0.818299 0.154594 0.442357
v -0.815299 0.149409 0.443740
v -0.813971 0.146552 0.442415
v -0.813743 0.145102 0.440529
v -0.814116 0.145440 0.438104
v -0.814866 0.147286 0.434865
v -0.816108 0.152847 0.436998
v -0.807850 0.149474 0.431743
v -0.804738 0.150700 0.431552
v -0.805635 0.152528 0.433551
v -0.806835 0.155078 0.433817
v -0.808063 0.157757 0.432892
v -0.808319 0.158610 0.430252
v -0.807684 0.157530 0.428131
v -0.806869 0.155076 0.425540
v -0.805069 0.151274 0.427490
v -0.814120 0.149701 0.443252
v -0.812129 0.150500 0.441147
v -0.809568 0.152587 0.437450
v -0.815724 0.153957 0.441488
v -0.813415 0.153898 0.439936
v -0.810721 0.155467 0.436340
v -0.816881 0.156977 0.438532
v -0.814455 0.156332 0.437476
v -0.810956 0.156407 0.433870
v -0.815237 0.153702 0.436128
v -0.813281 0.153893 0.434981
v -0.810386 0.155376 0.431736
v -0.813157 0.147624 0.434475
v -0.811110 0.149083 0.433078
v -0.809281 0.152667 0.429432
v -0.812622 0.145575 0.438062
v -0.810405 0.146923 0.436192
v -0.812946 0.146813 0.442259
v -0.811147 0.148163 0.440589
v -0.812503 0.145394 0.440291
v -0.810461 0.146636 0.438698
v -0.807790 0.148899 0.435410
v -0.808569 0.150395 0.437176
v -0.804092 0.156679 0.431094
v -0.805773 0.160172 0.430268
v -0.806854 0.162461 0.426827
v -0.805458 0.160376 0.424360
v -0.804614 0.157198 0.420957
v -0.802088 0.151923 0.423402
v -0.801620 0.151371 0.428225
v -0.802714 0.153765 0.430611
v -0.800613 0.153985 0.428905
v -0.799273 0.151262 0.425675
v -0.799711 0.152666 0.419628
v -0.802481 0.158783 0.417034
v -0.804949 0.164155 0.420065
v -0.805897 0.166015 0.423682
v -0.804309 0.162375 0.428637
v -0.802324 0.157735 0.429667
v -0.799796 0.154266 0.428205
v -0.798506 0.151889 0.424826
v -0.798342 0.153350 0.418831
v -0.800739 0.159017 0.417696
v -0.803409 0.164536 0.419327
v -0.804281 0.166317 0.422654
v -0.803437 0.163212 0.427886
v -0.801432 0.158144 0.429229
v -0.798570 0.154734 0.425656
v -0.800104 0.159432 0.426413
v -0.798745 0.156866 0.420920
v -0.801070 0.161900 0.422280
v -0.815530 0.149227 0.443677
v -0.816983 0.152154 0.443586
v -0.817056 0.154460 0.441871
v -0.817944 0.157047 0.438763
v -0.817672 0.155627 0.436924
v -0.817899 0.153632 0.438487
v -0.818468 0.153058 0.440122
v -0.818408 0.151883 0.442140
v -0.817795 0.151331 0.443404
v -0.818912 0.156206 0.440691
v -0.819631 0.154521 0.440823
v -0.819123 0.154162 0.442633
v -0.819242 0.156089 0.438964
v -0.814331 0.147737 0.443147
v -0.814855 0.149595 0.443653
v -0.815021 0.147901 0.442986
v -0.816458 0.149382 0.442936
v -0.814230 0.146716 0.442454
v -0.814436 0.145966 0.441673
v -0.815325 0.147053 0.441892
v -0.813540 0.146505 0.442385
v -0.813757 0.145571 0.441557
v -0.813194 0.145114 0.440359
v -0.814137 0.145220 0.440678
v -0.813860 0.145111 0.439373
v -0.814803 0.145356 0.439644
v -0.815249 0.145951 0.440780
v -0.815761 0.145917 0.438741
v -0.814626 0.145478 0.438268
v -0.815514 0.145997 0.437447
v -0.813436 0.145454 0.438015
v -0.814363 0.145961 0.436821
v -0.816238 0.152014 0.437489
v -0.816799 0.150937 0.439501
v -0.816882 0.149328 0.436439
v -0.816707 0.146999 0.437569
v -0.815637 0.147244 0.435367
v -0.816905 0.148587 0.439779
v -0.817099 0.150375 0.441491
v -0.816274 0.146911 0.440307
v -0.815963 0.148155 0.442057
v -0.815566 0.150153 0.434495
v -0.815814 0.153484 0.436487
v -0.814022 0.147384 0.434654
v -0.816362 0.155655 0.440200
v -0.815018 0.151949 0.442681
v -0.814497 0.153647 0.440922
v -0.816633 0.156649 0.436473
v -0.815706 0.156619 0.438201
v -0.813176 0.149953 0.442369
v -0.813402 0.147988 0.442914
v -0.812163 0.147390 0.441690
v -0.812653 0.145868 0.441346
v -0.811613 0.145953 0.439934
v -0.812494 0.145337 0.439167
v -0.811610 0.146014 0.437678
v -0.812828 0.146193 0.436557
v -0.812136 0.148021 0.434147
v -0.814024 0.150605 0.434062
v -0.814424 0.153692 0.435802
v -0.809214 0.147699 0.437332
v -0.809961 0.149162 0.439074
v -0.810934 0.151349 0.439492
v -0.812134 0.154496 0.438340
v -0.812595 0.156068 0.435676
v -0.811848 0.154567 0.433390
v -0.810348 0.151118 0.431326
v -0.809161 0.148204 0.434004
v -0.806269 0.149932 0.433355
v -0.807093 0.151574 0.435250
v -0.808170 0.153909 0.435482
v -0.809357 0.156618 0.434439
v -0.809515 0.157335 0.432020
v -0.808995 0.156418 0.429893
v -0.808076 0.153971 0.427489
v -0.806474 0.150538 0.429526
v -0.803206 0.151202 0.429987
v -0.804195 0.153227 0.432082
v -0.805494 0.155965 0.432422
v -0.806875 0.158900 0.431580
v -0.807454 0.160300 0.428576
v -0.806570 0.158900 0.426363
v -0.805749 0.156118 0.423421
v -0.803625 0.151690 0.425540
v -0.800169 0.151240 0.426719
v -0.801419 0.153933 0.429532
v -0.802961 0.157272 0.430121
v -0.804847 0.161332 0.429139
v -0.806380 0.164571 0.424948
v -0.805164 0.162582 0.421647
v -0.803379 0.158021 0.418485
v -0.800693 0.152299 0.421129
v -0.807652 0.148791 0.433664
v -0.808138 0.149530 0.436555
v -0.809036 0.151389 0.437454
v -0.810180 0.154032 0.437098
v -0.811077 0.156440 0.435142
v -0.810656 0.155940 0.432852
v -0.810051 0.154461 0.430203
v -0.808418 0.150820 0.430169
v -0.804655 0.150490 0.429583
v -0.805135 0.151511 0.432851
v -0.806187 0.153685 0.433835
v -0.807454 0.156422 0.433544
v -0.808546 0.158805 0.431696
v -0.807910 0.158024 0.429209
v -0.807494 0.156762 0.426626
v -0.805905 0.152953 0.425899
v -0.801542 0.151010 0.425976
v -0.802092 0.152447 0.429750
v -0.803400 0.155182 0.431025
v -0.804852 0.158324 0.430884
v -0.806751 0.161989 0.428915
v -0.805884 0.161234 0.425366
v -0.805304 0.159364 0.422529
v -0.803331 0.154243 0.421227
v -0.811592 0.149187 0.441026
v -0.812786 0.152226 0.440707
v -0.814095 0.155589 0.438821
v -0.813948 0.155554 0.435814
v -0.812521 0.152003 0.433480
v -0.810625 0.147713 0.434633
v -0.810373 0.146554 0.437597
v -0.810747 0.147255 0.439846
v -0.801467 0.155808 0.429504
v -0.803201 0.159845 0.429468
v -0.801938 0.158017 0.429474
v -0.804053 0.163115 0.428260
v -0.805456 0.164845 0.426613
v -0.805330 0.166520 0.423055
v -0.805606 0.165533 0.421469
v -0.804468 0.164692 0.419469
v -0.803570 0.161307 0.418650
v -0.801774 0.159235 0.416897
v -0.801009 0.155443 0.417096
v -0.799008 0.152923 0.418969
v -0.799178 0.151278 0.422757
v -0.798809 0.151445 0.425065
v -0.799837 0.152384 0.427718
v -0.800172 0.154071 0.428553
v -0.800616 0.156111 0.428971
v -0.799085 0.152800 0.426896
v -0.799240 0.154517 0.427428
v -0.798337 0.152990 0.424951
v -0.798164 0.151915 0.421956
v -0.798082 0.154608 0.419575
v -0.799322 0.156140 0.416676
v -0.799717 0.158355 0.419134
v -0.801934 0.161405 0.419186
v -0.801926 0.163216 0.420480
v -0.804063 0.166042 0.420348
v -0.802405 0.164400 0.422381
v -0.803972 0.165242 0.425399
v -0.801619 0.161831 0.427042
v -0.802264 0.160436 0.429039
v -0.800641 0.158402 0.428446
v -0.798326 0.155475 0.423215
v -0.799896 0.159504 0.421677
v -0.800434 0.160634 0.424081
v -0.799150 0.156907 0.426371
f 2 164 96
f 2 96 174
f 163 97 164
f 163 164 2
f 171 89 163
f 171 163 2
f 174 84 171
f 174 171 2
f 3 165 96
f 3 96 164
f 208 115 165
f 208 165 3
f 177 112 208
f 177 208 3
f 3 164 97
f 3 97 177
f 4 166 95
f 4 95 172
f 207 118 166
f 207 166 4
f 165 115 207
f 165 207 4
f 172 96 165
f 172 165 4
f 5 167 95
f 5 95 166
f 205 102 167
f 205 167 5
f 166 118 210
f 166 210 5
f 5 210 121
f 5 121 205
f 6 168 93
f 6 93 175
f 195 94 168
f 195 168 6
f 167 102 195
f 167 195 6
f 175 95 167
f 175 167 6
f 196 87 169
f 196 169 7
f 7 169 93
f 7 93 168
f 168 94 196
f 168 196 7
f 8 170 84
f 8 84 173
f 201 88 170
f 201 170 8
f 169 87 201
f 169 201 8
f 173 93 169
f 173 169 8
f 9 171 84
f 9 84 170
f 179 89 171
f 179 171 9
f 9 170 88
f 9 88 179
f 11 177 97
f 11 97 176
f 213 112 177
f 213 177 11
f 176 98 183
f 176 183 11
f 11 183 129
f 11 129 213
f 12 179 88
f 12 88 203
f 178 89 179
f 178 179 12
f 12 182 90
f 12 90 178
f 203 91 182
f 203 182 12
f 13 181 85
f 13 85 186
f 180 90 181
f 180 181 13
f 13 184 98
f 13 98 180
f 186 99 184
f 186 184 13
f 14 189 85
f 14 85 181
f 182 91 189
f 182 189 14
f 14 181 90
f 14 90 182
f 184 99 185
f 184 185 15
f 15 185 131
f 15 131 215
f 15 215 129
f 15 129 183
f 15 183 98
f 15 98 184
f 185 99 187
f 185 187 16
f 16 187 100
f 16 100 193
f 16 193 127
f 16 127 217
f 16 217 131
f 16 131 185
f 186 85 188
f 186 188 17
f 17 188 86
f 17 86 191
f 17 191 100
f 17 100 187
f 187 99 186
f 187 186 17
f 18 190 86
f 18 86 188
f 202 92 190
f 202 190 18
f 18 188 85
f 18 85 189
f 18 189 91
f 18 91 202
f 19 192 83
f 19 83 199
f 191 86 192
f 191 192 19
f 19 194 100
f 19 100 191
f 199 101 194
f 199 194 19
f 192 86 190
f 192 190 20
f 20 190 92
f 20 92 198
f 198 83 192
f 198 192 20
f 206 124 219
f 206 219 21
f 21 219 127
f 21 127 193
f 21 193 100
f 21 100 194
f 21 194 101
f 21 101 206
f 199 83 197
f 199 197 22
f 22 197 94
f 22 94 195
f 204 101 199
f 204 199 22
f 195 102 204
f 195 204 22
f 197 83 198
f 197 198 23
f 23 198 92
f 23 92 200
f 23 200 87
f 23 87 196
f 23 196 94
f 23 94 197
f 24 202 91
f 24 91 203
f 200 92 202
f 200 202 24
f 24 203 88
f 24 88 201
f 201 87 200
f 201 200 24
f 204 102 205
f 204 205 25
f 25 205 121
f 25 121 221
f 25 206 101
f 25 101 204
f 221 124 206
f 221 206 25
f 207 115 209
f 207 209 26
f 26 209 116
f 26 116 281
f 26 211 118
f 26 118 207
f 281 119 211
f 281 211 26
f 208 112 212
f 208 212 27
f 27 212 113
f 27 113 280
f 209 115 208
f 209 208 27
f 280 116 209
f 280 209 27
f 28 210 118
f 28 118 211
f 222 121 210
f 222 210 28
f 28 211 119
f 28 119 282
f 282 122 222
f 282 222 28
f 213 129 214
f 213 214 29
f 29 214 130
f 29 130 279
f 29 212 112
f 29 112 213
f 279 113 212
f 279 212 29
f 215 131 216
f 215 216 30
f 30 216 132
f 30 132 286
f 30 286 130
f 30 130 214
f 30 214 129
f 30 129 215
f 217 127 218
f 217 218 31
f 31 218 128
f 31 128 285
f 31 216 131
f 31 131 217
f 285 132 216
f 285 216 31
f 219 124 220
f 219 220 32
f 32 220 125
f 32 125 284
f 32 284 128
f 32 128 218
f 32 218 127
f 32 127 219
f 221 121 222
f 221 222 33
f 33 222 122
f 33 122 283
f 33 283 125
f 33 125 220
f 33 220 124
f 33 124 221
f 34 223 132
f 34 132 285
f 255 133 223
f 255 223 34
f 230 103 255
f 230 255 34
f 34 285 128
f 34 128 230
f 35 224 130
f 35 130 286
f 256 134 224
f 256 224 35
f 223 133 256
f 223 256 35
f 286 132 223
f 286 223 35
f 36 225 113
f 36 113 279
f 257 114 225
f 257 225 36
f 224 134 257
f 224 257 36
f 36 279 130
f 36 130 224
f 37 226 116
f 37 116 280
f 258 117 226
f 258 226 37
f 225 114 258
f 225 258 37
f 37 280 113
f 37 113 225
f 38 227 119
f 38 119 281
f 259 120 227
f 259 227 38
f 226 117 259
f 226 259 38
f 38 281 116
f 38 116 226
f 39 228 122
f 39 122 282
f 260 123 228
f 260 228 39
f 227 120 260
f 227 260 39
f 39 282 119
f 39 119 227
f 40 229 125
f 40 125 283
f 261 126 229
f 261 229 40
f 228 123 261
f 228 261 40
f 283 122 228
f 283 228 40
f 262 103 230
f 262 230 41
f 41 230 128
f 41 128 284
f 229 126 262
f 229 262 41
f 284 125 229
f 284 229 41
f 263 104 231
f 263 231 42
f 42 231 133
f 42 133 255
f 238 111 263
f 238 263 42
f 255 103 238
f 255 238 42
f 264 105 232
f 264 232 43
f 43 232 134
f 43 134 256
f 231 104 264
f 231 264 43
f 256 133 231
f 256 231 43
f 265 106 233
f 265 233 44
f 44 233 114
f 44 114 257
f 232 105 265
f 232 265 44
f 257 134 232
f 257 232 44
f 266 107 234
f 266 234 45
f 45 234 117
f 45 117 258
f 233 106 266
f 233 266 45
f 258 114 233
f 258 233 45
f 267 108 235
f 267 235 46
f 46 235 120
f 46 120 259
f 234 107 267
f 234 267 46
f 259 117 234
f 259 234 46
f 268 109 236
f 268 236 47
f 47 236 123
f 47 123 260
f 235 108 268
f 235 268 47
f 260 120 235
f 260 235 47
f 269 110 237
f 269 237 48
f 48 237 126
f 48 126 261
f 236 109 269
f 236 269 48
f 261 123 236
f 261 236 48
f 49 238 103
f 49 103 262
f 270 111 238
f 270 238 49
f 237 110 270
f 237 270 49
f 262 126 237
f 262 237 49
f 50 239 104
f 50 104 263
f 271 141 239
f 271 239 50
f 246 140 271
f 246 271 50
f 263 111 246
f 263 246 50
f 51 240 105
f 51 105 264
f 272 142 240
f 272 240 51
f 239 141 272
f 239 272 51
f 264 104 239
f 264 239 51
f 52 241 106
f 52 106 265
f 273 135 241
f 273 241 52
f 240 142 273
f 240 273 52
f 265 105 240
f 265 240 52
f 53 242 107
f 53 107 266
f 274 136 242
f 274 242 53
f 241 135 274
f 241 274 53
f 266 106 241
f 266 241 53
f 54 243 108
f 54 108 267
f 275 137 243
f 275 243 54
f 242 136 275
f 242 275 54
f 267 107 242
f 267 242 54
f 55 244 109
f 55 109 268
f 276 138 244
f 276 244 55
f 243 137 276
f 243 276 55
f 268 108 243
f 268 243 55
f 56 245 110
f 56 110 269
f 277 139 245
f 277 245 56
f 244 138 277
f 244 277 56
f 269 109 244
f 269 244 56
f 57 246 111
f 57 111 270
f 278 140 246
f 278 246 57
f 245 139 278
f 245 278 57
f 270 110 245
f 270 245 57
f 58 247 141
f 58 141 271
f 299 144 247
f 299 247 58
f 254 145 299
f 254 299 58
f 271 140 254
f 271 254 58
f 59 248 142
f 59 142 272
f 301 143 248
f 301 248 59
f 247 144 301
f 247 301 59
f 272 141 247
f 272 247 59
f 60 249 135
f 60 135 273
f 287 150 249
f 287 249 60
f 248 143 287
f 248 287 60
f 273 142 248
f 273 248 60
f 61 250 136
f 61 136 274
f 288 149 250
f 288 250 61
f 249 150 288
f 249 288 61
f 274 135 249
f 274 249 61
f 62 251 137
f 62 137 275
f 291 148 251
f 291 251 62
f 250 149 291
f 250 291 62
f 275 136 250
f 275 250 62
f 63 252 138
f 63 138 276
f 293 147 252
f 293 252 63
f 251 148 293
f 251 293 63
f 276 137 251
f 276 251 63
f 64 253 139
f 64 139 277
f 295 146 253
f 295 253 64
f 252 147 295
f 252 295 64
f 277 138 252
f 277 252 64
f 65 254 140
f 65 140 278
f 297 145 254
f 297 254 65
f 253 146 297
f 253 297 65
f 278 139 253
f 278 253 65
f 66 289 150
f 66 150 287
f 303 158 289
f 303 289 66
f 302 151 303
f 302 303 66
f 66 287 143
f 66 143 302
f 67 290 149
f 67 149 288
f 317 157 290
f 317 290 67
f 289 158 317
f 289 317 67
f 67 288 150
f 67 150 289
f 68 292 148
f 68 148 291
f 315 156 292
f 315 292 68
f 290 157 315
f 290 315 68
f 291 149 290
f 291 290 68
f 69 294 147
f 69 147 293
f 313 155 294
f 313 294 69
f 292 156 313
f 292 313 69
f 293 148 292
f 293 292 69
f 70 296 146
f 70 146 295
f 311 154 296
f 311 296 70
f 294 155 311
f 294 311 70
f 295 147 294
f 295 294 70
f 71 298 145
f 71 145 297
f 309 153 298
f 309 298 71
f 296 154 309
f 296 309 71
f 297 146 296
f 297 296 71
f 72 300 144
f 72 144 299
f 307 152 300
f 307 300 72
f 298 153 307
f 298 307 72
f 299 145 298
f 299 298 72
f 73 302 143
f 73 143 301
f 304 151 302
f 304 302 73
f 300 152 304
f 300 304 73
f 301 144 300
f 301 300 73
f 303 151 305
f 303 305 74
f 74 305 159
f 74 159 322
f 318 158 303
f 318 303 74
f 322 160 318
f 322 318 74
f 304 152 306
f 304 306 75
f 75 306 159
f 75 159 305
f 305 151 304
f 305 304 75
f 307 153 308
f 307 308 76
f 76 308 161
f 76 161 319
f 76 319 159
f 76 159 306
f 76 306 152
f 76 152 307
f 309 154 310
f 309 310 77
f 77 310 161
f 77 161 308
f 77 308 153
f 77 153 309
f 311 155 312
f 311 312 78
f 78 312 162
f 78 162 320
f 78 320 161
f 78 161 310
f 78 310 154
f 78 154 311
f 313 156 314
f 313 314 79
f 79 314 162
f 79 162 312
f 79 312 155
f 79 155 313
f 315 157 316
f 315 316 80
f 80 316 160
f 80 160 321
f 80 314 156
f 80 156 315
f 321 162 314
f 321 314 80
f 317 158 318
f 317 318 81
f 81 318 160
f 81 160 316
f 81 316 157
f 81 157 317
f 82 321 160
f 82 160 322
f 320 162 321
f 320 321 82
f 82 322 159
f 82 159 319
f 82 319 161
f 82 161 320
f 84 174 10
f 84 10 173
f 178 1 163
f 178 163 89
f 90 180 1
f 90 1 178
f 93 173 10
f 93 10 175
f 95 175 10
f 95 10 172
f 172 10 174
f 172 174 96
f 97 163 1
f 97 1 176
f 176 1 180
f 176 180 98
