# _2nd_Distal_Phalanx_Foot_L posed
v 0.927927 0.007322 0.273355
v 0.928617 0.008382 0.273233
v 0.929115 0.009119 0.273538
v 0.929649 0.009670 0.274591
v 0.929673 0.009535 0.275566
v 0.929533 0.008866 0.276312
v 0.929212 0.007788 0.277049
v 0.928432 0.006712 0.277206
v 0.927508 0.005809 0.276827
v 0.927203 0.005445 0.275929
v 0.927204 0.005663 0.274835
v 0.927526 0.006466 0.273929
v 0.931154 0.009233 0.274350
v 0.930536 0.008816 0.273272
v 0.929841 0.007942 0.272788
v 0.929231 0.006940 0.272789
v 0.928782 0.005911 0.273314
v 0.928551 0.004966 0.274338
v 0.928755 0.004471 0.275842
v 0.929500 0.004991 0.277117
v 0.930308 0.006108 0.277494
v 0.930899 0.007199 0.277273
v 0.931288 0.008174 0.276663
v 0.931433 0.008972 0.275652
v 0.932221 0.007745 0.274140
v 0.931776 0.007402 0.273421
v 0.931293 0.006864 0.272931
v 0.930740 0.006089 0.272651
v 0.930449 0.005264 0.273228
v 0.930458 0.004761 0.274136
v 0.930614 0.004542 0.275104
v 0.930929 0.005044 0.275791
v 0.931325 0.005744 0.276049
v 0.931708 0.006436 0.276001
v 0.931956 0.007052 0.275640
v 0.932311 0.007598 0.275009
v 0.933949 0.006346 0.273119
v 0.933619 0.006119 0.272643
v 0.933259 0.005669 0.272335
v 0.932809 0.004992 0.272101
v 0.932498 0.004381 0.272459
v 0.932517 0.003942 0.273236
v 0.932809 0.003707 0.274022
v 0.933122 0.004205 0.274487
v 0.933483 0.004622 0.274922
v 0.933888 0.005235 0.275039
v 0.934131 0.005876 0.274603
v 0.934172 0.006304 0.273857
v 0.935702 0.005674 0.272422
v 0.935166 0.005352 0.271520
v 0.934707 0.004886 0.271202
v 0.934239 0.004331 0.271124
v 0.933858 0.003691 0.271449
v 0.933846 0.002900 0.272202
v 0.934209 0.002599 0.273237
v 0.934663 0.002766 0.273801
v 0.935410 0.003475 0.274196
v 0.935919 0.004294 0.274212
v 0.936248 0.005129 0.273712
v 0.935949 0.005642 0.273165
v 0.936167 0.005275 0.272377
v 0.935683 0.004963 0.271537
v 0.935217 0.004438 0.271167
v 0.934813 0.003953 0.271150
v 0.934557 0.003497 0.271358
v 0.934483 0.002780 0.272039
v 0.934724 0.002525 0.272954
v 0.935112 0.002709 0.273402
v 0.935977 0.003619 0.273836
v 0.936279 0.004170 0.273811
v 0.936549 0.004799 0.273301
v 0.936332 0.005290 0.272978
v 0.936257 0.004346 0.272961
v 0.935613 0.003989 0.272488
v 0.935214 0.003616 0.271844
v 0.928541 0.007332 0.274272
v 0.928151 0.006646 0.274669
v 0.927868 0.006200 0.275091
v 0.927834 0.006015 0.275739
v 0.928081 0.006218 0.276293
v 0.928587 0.006699 0.276355
v 0.929177 0.007497 0.276131
v 0.929413 0.008304 0.275694
v 0.929397 0.008888 0.275279
v 0.929312 0.008982 0.274672
v 0.929128 0.008735 0.274226
v 0.928867 0.008080 0.274069
v 0.928411 0.006658 0.275520
v 0.928958 0.007403 0.275225
v 0.929217 0.008174 0.274929
f 26 25 37
f 26 37 38
f 27 26 38
f 27 38 39
f 28 27 39
f 28 39 40
f 29 28 40
f 29 40 41
f 30 29 41
f 30 41 42
f 31 30 42
f 31 42 43
f 32 31 43
f 32 43 44
f 33 32 44
f 33 44 45
f 34 33 45
f 34 45 46
f 35 34 46
f 35 46 47
f 36 35 47
f 36 47 48
f 48 37 25
f 48 25 36
f 38 37 49
f 38 49 50
f 39 38 50
f 39 50 51
f 40 39 51
f 40 51 52
f 41 40 52
f 41 52 53
f 42 41 53
f 42 53 54
f 43 42 54
f 43 54 55
f 44 43 55
f 44 55 56
f 45 44 56
f 45 56 57
f 46 45 57
f 46 57 58
f 47 46 58
f 47 58 59
f 48 47 59
f 48 59 60
f 60 49 37
f 60 37 48
f 16 15 27
f 16 27 28
f 17 16 28
f 17 28 29
f 18 17 29
f 18 29 30
f 26 27 15
f 26 15 14
f 25 26 14
f 25 14 13
f 36 25 13
f 36 13 24
f 35 36 24
f 35 24 23
f 34 35 23
f 34 23 22
f 33 34 22
f 33 22 21
f 32 33 21
f 32 21 20
f 19 18 30
f 19 30 31
f 31 32 20
f 31 20 19
f 71 72 60
f 71 60 59
f 59 58 70
f 59 70 71
f 73 71 70
f 73 70 69
f 69 70 58
f 69 58 57
f 61 62 50
f 61 50 49
f 61 72 71
f 61 71 73
f 49 60 72
f 49 72 61
f 68 69 57
f 68 57 56
f 62 61 73
f 62 73 74
f 74 73 69
f 74 69 68
f 51 50 62
f 51 62 63
f 67 68 56
f 67 56 55
f 66 67 55
f 66 55 54
f 52 51 63
f 52 63 64
f 65 66 54
f 65 54 53
f 75 74 68
f 75 68 67
f 65 64 63
f 65 63 75
f 53 52 64
f 53 64 65
f 75 67 66
f 75 66 65
f 63 62 74
f 63 74 75
f 1 16 17
f 1 17 12
f 11 12 17
f 11 17 18
f 10 11 18
f 10 18 19
f 9 10 19
f 9 19 20
f 8 9 20
f 8 20 21
f 7 8 21
f 7 21 22
f 6 7 22
f 6 22 23
f 5 6 23
f 5 23 24
f 4 5 24
f 4 24 13
f 3 4 13
f 3 13 14
f 2 3 14
f 2 14 15
f 2 15 16
f 2 16 1
f 79 78 11
f 79 11 10
f 79 10 9
f 79 9 80
f 81 80 9
f 81 9 8
f 77 12 11
f 77 11 78
f 88 79 80
f 88 80 81
f 88 77 78
f 88 78 79
f 1 12 77
f 1 77 76
f 82 81 8
f 82 8 7
f 89 76 77
f 89 77 88
f 89 88 81
f 89 81 82
f 83 6 5
f 83 5 84
f 87 86 3
f 87 3 2
f 83 82 7
f 83 7 6
f 87 2 1
f 87 1 76
f 85 4 3
f 85 3 86
f 90 87 76
f 90 76 89
f 90 83 84
f 90 84 85
f 85 84 5
f 85 5 4
f 85 86 87
f 85 87 90
f 90 89 82
f 90 82 83
