# _2nd_Distal_Phalanx_Foot_R posed
v 1.019010 0.170886 0.241926
v 1.019225 0.170094 0.242850
v 1.019518 0.169845 0.243706
v 1.020147 0.170251 0.244807
v 1.020530 0.171068 0.245219
v 1.020872 0.171984 0.245027
v 1.021187 0.173129 0.244456
v 1.020908 0.173990 0.243527
v 1.020271 0.174412 0.242445
v 1.019831 0.173966 0.241612
v 1.019405 0.173010 0.241211
v 1.019127 0.171842 0.241451
v 1.021542 0.169659 0.244451
v 1.020786 0.169212 0.243444
v 1.020307 0.169450 0.242353
v 1.020103 0.170092 0.241421
v 1.020220 0.171099 0.240766
v 1.020663 0.172382 0.240475
v 1.021495 0.173697 0.240878
v 1.022393 0.174209 0.242094
v 1.022857 0.173742 0.243350
v 1.022943 0.172897 0.244238
v 1.022764 0.171869 0.244794
v 1.022299 0.170689 0.244956
v 1.022912 0.169686 0.243154
v 1.022400 0.169428 0.242423
v 1.021994 0.169443 0.241643
v 1.021673 0.169749 0.240762
v 1.021877 0.170653 0.240328
v 1.022348 0.171572 0.240382
v 1.022873 0.172369 0.240731
v 1.023207 0.172588 0.241569
v 1.023407 0.172355 0.242357
v 1.023499 0.171889 0.242971
v 1.023395 0.171258 0.243336
v 1.023323 0.170399 0.243505
v 1.024572 0.168781 0.241564
v 1.024201 0.168623 0.241077
v 1.023933 0.168701 0.240483
v 1.023685 0.168963 0.239723
v 1.023729 0.169615 0.239355
v 1.024145 0.170402 0.239395
v 1.024736 0.171007 0.239645
v 1.024997 0.171053 0.240360
v 1.025318 0.171090 0.240994
v 1.025511 0.170777 0.241630
v 1.025370 0.170078 0.241977
v 1.025022 0.169297 0.241949
v 1.026116 0.167829 0.240784
v 1.025457 0.167451 0.239962
v 1.025104 0.167565 0.239339
v 1.024849 0.167909 0.238768
v 1.024832 0.168573 0.238349
v 1.025328 0.169495 0.238067
v 1.026084 0.170297 0.238402
v 1.026613 0.170502 0.238897
v 1.027165 0.170239 0.239802
v 1.027348 0.169723 0.240573
v 1.027198 0.168862 0.241062
v 1.026586 0.168335 0.241182
v 1.026645 0.167776 0.240459
v 1.026048 0.167424 0.239686
v 1.025692 0.167523 0.238984
v 1.025490 0.167862 0.238512
v 1.025483 0.168310 0.238202
v 1.025876 0.169170 0.237940
v 1.026472 0.169906 0.238237
v 1.026898 0.170036 0.238678
v 1.027501 0.169678 0.239791
v 1.027577 0.169318 0.240286
v 1.027441 0.168555 0.240584
v 1.026981 0.168183 0.240814
v 1.027223 0.168581 0.239977
v 1.026619 0.168599 0.239347
v 1.026181 0.168395 0.238635
v 1.019846 0.171373 0.242493
v 1.019859 0.172115 0.242071
v 1.019895 0.172740 0.241883
v 1.020137 0.173341 0.242069
v 1.020467 0.173603 0.242570
v 1.020773 0.173261 0.243072
v 1.020956 0.172534 0.243705
v 1.020753 0.171770 0.244193
v 1.020409 0.171210 0.244474
v 1.020105 0.170723 0.244219
v 1.019882 0.170541 0.243745
v 1.019819 0.170783 0.243065
v 1.020360 0.172685 0.242568
v 1.020499 0.171938 0.243111
v 1.020375 0.171291 0.243647
f 38 37 25
f 38 25 26
f 39 38 26
f 39 26 27
f 40 39 27
f 40 27 28
f 41 40 28
f 41 28 29
f 42 41 29
f 42 29 30
f 43 42 30
f 43 30 31
f 44 43 31
f 44 31 32
f 45 44 32
f 45 32 33
f 46 45 33
f 46 33 34
f 47 46 34
f 47 34 35
f 48 47 35
f 48 35 36
f 36 25 37
f 36 37 48
f 50 49 37
f 50 37 38
f 51 50 38
f 51 38 39
f 52 51 39
f 52 39 40
f 53 52 40
f 53 40 41
f 54 53 41
f 54 41 42
f 55 54 42
f 55 42 43
f 56 55 43
f 56 43 44
f 57 56 44
f 57 44 45
f 58 57 45
f 58 45 46
f 59 58 46
f 59 46 47
f 60 59 47
f 60 47 48
f 48 37 49
f 48 49 60
f 28 27 15
f 28 15 16
f 29 28 16
f 29 16 17
f 30 29 17
f 30 17 18
f 14 15 27
f 14 27 26
f 13 14 26
f 13 26 25
f 24 13 25
f 24 25 36
f 23 24 36
f 23 36 35
f 22 23 35
f 22 35 34
f 21 22 34
f 21 34 33
f 20 21 33
f 20 33 32
f 31 30 18
f 31 18 19
f 19 20 32
f 19 32 31
f 59 60 72
f 59 72 71
f 71 70 58
f 71 58 59
f 69 70 71
f 69 71 73
f 57 58 70
f 57 70 69
f 49 50 62
f 49 62 61
f 73 71 72
f 73 72 61
f 61 72 60
f 61 60 49
f 56 57 69
f 56 69 68
f 74 73 61
f 74 61 62
f 68 69 73
f 68 73 74
f 63 62 50
f 63 50 51
f 55 56 68
f 55 68 67
f 54 55 67
f 54 67 66
f 64 63 51
f 64 51 52
f 53 54 66
f 53 66 65
f 67 68 74
f 67 74 75
f 75 63 64
f 75 64 65
f 65 64 52
f 65 52 53
f 65 66 67
f 65 67 75
f 75 74 62
f 75 62 63
f 12 17 16
f 12 16 1
f 18 17 12
f 18 12 11
f 19 18 11
f 19 11 10
f 20 19 10
f 20 10 9
f 21 20 9
f 21 9 8
f 22 21 8
f 22 8 7
f 23 22 7
f 23 7 6
f 24 23 6
f 24 6 5
f 13 24 5
f 13 5 4
f 14 13 4
f 14 4 3
f 15 14 3
f 15 3 2
f 1 16 15
f 1 15 2
f 10 11 78
f 10 78 79
f 80 9 10
f 80 10 79
f 8 9 80
f 8 80 81
f 78 11 12
f 78 12 77
f 81 80 79
f 81 79 88
f 79 78 77
f 79 77 88
f 76 77 12
f 76 12 1
f 7 8 81
f 7 81 82
f 88 77 76
f 88 76 89
f 82 81 88
f 82 88 89
f 84 5 6
f 84 6 83
f 2 3 86
f 2 86 87
f 6 7 82
f 6 82 83
f 76 1 2
f 76 2 87
f 86 3 4
f 86 4 85
f 89 76 87
f 89 87 90
f 85 84 83
f 85 83 90
f 4 5 84
f 4 84 85
f 90 87 86
f 90 86 85
f 83 82 89
f 83 89 90
