# _2nd_Metatarsal_L rest
v 0.103871 -1.321590 0.091842
v 0.104224 -1.322438 0.089081
v 0.102792 -1.322862 0.089435
v 0.107256 -1.321902 0.087917
v 0.107506 -1.321016 0.090453
v 0.102676 -1.322170 0.092545
v 0.103047 -1.323305 0.096275
v 0.100291 -1.327242 0.095165
v 0.100531 -1.327240 0.098270
v 0.109709 -1.322592 0.086660
v 0.110818 -1.322467 0.089252
v 0.112560 -1.324945 0.088213
v 0.111468 -1.324961 0.085659
v 0.112402 -1.327661 0.088487
v 0.110772 -1.327364 0.085830
v 0.110656 -1.330412 0.089588
v 0.108984 -1.329974 0.087220
v 0.107433 -1.333468 0.088359
v 0.109194 -1.333048 0.090350
v 0.107565 -1.335968 0.091000
v 0.106231 -1.336488 0.088826
v 0.105035 -1.338833 0.088989
v 0.105834 -1.337959 0.091454
v 0.103608 -1.338149 0.091652
v 0.102968 -1.339187 0.089140
v 0.101635 -1.337039 0.089293
v 0.101698 -1.336424 0.091699
v 0.101396 -1.330721 0.089116
v 0.100761 -1.330163 0.091976
v 0.101489 -1.327199 0.089693
v 0.100918 -1.327124 0.092275
v 0.102047 -1.323821 0.089440
v 0.101487 -1.323443 0.093053
v 0.101340 -1.333800 0.089237
v 0.101075 -1.333216 0.092002
v 0.100772 -1.329589 0.094870
v 0.100710 -1.329241 0.098109
v 0.101831 -1.331918 0.094813
v 0.102114 -1.331077 0.097739
v 0.103244 -1.334090 0.098582
v 0.102682 -1.335188 0.095193
v 0.104369 -1.336651 0.095223
v 0.104740 -1.335357 0.098720
v 0.106100 -1.336717 0.095056
v 0.106247 -1.335578 0.098570
v 0.108030 -1.334425 0.094073
v 0.109419 -1.332456 0.093369
v 0.111002 -1.330273 0.092695
v 0.112393 -1.327862 0.092210
v 0.112325 -1.325880 0.093023
v 0.110835 -1.324727 0.094176
v 0.107944 -1.322933 0.095171
v 0.104639 -1.322817 0.096012
v 0.108085 -1.333971 0.097858
v 0.109275 -1.331632 0.097324
v 0.110443 -1.330197 0.097471
v 0.110726 -1.327070 0.098091
v 0.109558 -1.325812 0.098531
v 0.107809 -1.324491 0.098934
v 0.105296 -1.323926 0.099107
v 0.111043 -1.328573 0.097692
v 0.103634 -1.324368 0.099107
v 0.101412 -1.324686 0.095995
v 0.101866 -1.325780 0.098732
v 0.101629 -1.329569 0.102454
v 0.101814 -1.328150 0.102556
v 0.102593 -1.326602 0.102778
v 0.104120 -1.325402 0.102978
v 0.105757 -1.324701 0.103090
v 0.107191 -1.325009 0.103007
v 0.108594 -1.325763 0.102864
v 0.109705 -1.327430 0.102519
v 0.110189 -1.328908 0.102304
v 0.110124 -1.330457 0.102165
v 0.109107 -1.332050 0.102019
v 0.107991 -1.333682 0.102126
v 0.106337 -1.334756 0.102641
v 0.104950 -1.334450 0.102786
v 0.103653 -1.333313 0.102736
v 0.102792 -1.331458 0.102327
v 0.102749 -1.330254 0.108657
v 0.102918 -1.329102 0.108794
v 0.103574 -1.327707 0.108925
v 0.104719 -1.326553 0.108984
v 0.105848 -1.326239 0.108905
v 0.106911 -1.326406 0.108785
v 0.107884 -1.326674 0.108718
v 0.109402 -1.328238 0.108495
v 0.109748 -1.329562 0.108325
v 0.109812 -1.331131 0.108143
v 0.108928 -1.332561 0.107995
v 0.107968 -1.334160 0.107918
v 0.106747 -1.334362 0.108033
v 0.105280 -1.334152 0.108137
v 0.104039 -1.332655 0.108323
v 0.103360 -1.331607 0.108445
v 0.103531 -1.331053 0.115196
v 0.103698 -1.329951 0.115327
v 0.104119 -1.328776 0.115453
v 0.105276 -1.327927 0.115446
v 0.106318 -1.327500 0.115414
v 0.107286 -1.327695 0.115310
v 0.108257 -1.328053 0.115226
v 0.109507 -1.329126 0.115020
v 0.109882 -1.330446 0.114798
v 0.110010 -1.331963 0.114582
v 0.109238 -1.333284 0.114439
v 0.108402 -1.334503 0.114334
v 0.107353 -1.334724 0.114393
v 0.105922 -1.334658 0.114503
v 0.104534 -1.333303 0.114815
v 0.103912 -1.332316 0.115003
v 0.104239 -1.332303 0.121707
v 0.104407 -1.331220 0.121836
v 0.104751 -1.330082 0.121968
v 0.105861 -1.329217 0.121979
v 0.106917 -1.328884 0.121939
v 0.107838 -1.329127 0.121840
v 0.108749 -1.329566 0.121735
v 0.109991 -1.330618 0.121480
v 0.110385 -1.331989 0.121201
v 0.110522 -1.333227 0.120997
v 0.109756 -1.334449 0.120865
v 0.108933 -1.335349 0.120806
v 0.107863 -1.335675 0.120846
v 0.106440 -1.335536 0.121000
v 0.105178 -1.334427 0.121330
v 0.104521 -1.333468 0.121532
v 0.104944 -1.333805 0.128055
v 0.105023 -1.332706 0.128223
v 0.105374 -1.331474 0.128406
v 0.106480 -1.330246 0.128475
v 0.107637 -1.330132 0.128408
v 0.108622 -1.330371 0.128348
v 0.109615 -1.330855 0.128266
v 0.110311 -1.332131 0.127844
v 0.110594 -1.333245 0.127629
v 0.110571 -1.334471 0.127465
v 0.110280 -1.336020 0.127237
v 0.109518 -1.336694 0.127251
v 0.108484 -1.337001 0.127248
v 0.107316 -1.336982 0.127312
v 0.106061 -1.335811 0.127696
v 0.105328 -1.334862 0.127895
v 0.106059 -1.335258 0.134365
v 0.105690 -1.334002 0.134692
v 0.105466 -1.332621 0.135098
v 0.106739 -1.331205 0.134953
v 0.108002 -1.330937 0.134821
v 0.109005 -1.331080 0.134808
v 0.110025 -1.331643 0.134985
v 0.110721 -1.333155 0.133648
v 0.111022 -1.334494 0.133332
v 0.111225 -1.336343 0.132926
v 0.111447 -1.337811 0.132642
v 0.110540 -1.338933 0.131701
v 0.109294 -1.339055 0.131786
v 0.107982 -1.338823 0.132258
v 0.106912 -1.337951 0.133119
v 0.106444 -1.336547 0.134059
v 0.109056 -1.340714 0.135160
v 0.110066 -1.340878 0.133957
v 0.107675 -1.340945 0.135417
v 0.111189 -1.340964 0.132984
v 0.107692 -1.339358 0.140748
v 0.107297 -1.336971 0.141615
v 0.106585 -1.338347 0.134758
v 0.106450 -1.339445 0.135935
v 0.106543 -1.338464 0.139635
v 0.106218 -1.336977 0.140076
v 0.106461 -1.337077 0.135215
v 0.106031 -1.335707 0.135528
v 0.105513 -1.334445 0.135964
v 0.105201 -1.333662 0.136564
v 0.105377 -1.334009 0.139487
v 0.106231 -1.333126 0.140001
v 0.105746 -1.332320 0.138037
v 0.105165 -1.333408 0.137940
v 0.106612 -1.339500 0.137892
v 0.107813 -1.340779 0.137750
v 0.106172 -1.336295 0.137537
v 0.106597 -1.337749 0.137040
v 0.105449 -1.334736 0.137798
v 0.105676 -1.335289 0.140123
v 0.106771 -1.334987 0.141403
v 0.106820 -1.331679 0.137828
v 0.108268 -1.331282 0.137748
v 0.110930 -1.332361 0.135928
v 0.112232 -1.340449 0.133141
v 0.112547 -1.340327 0.135829
v 0.111685 -1.340793 0.135743
v 0.111979 -1.337632 0.133976
v 0.111534 -1.336222 0.134134
v 0.111387 -1.334716 0.134428
v 0.111160 -1.333250 0.134783
v 0.112952 -1.338794 0.134556
v 0.113385 -1.338544 0.137019
v 0.111673 -1.338971 0.141087
v 0.112659 -1.338632 0.140530
v 0.113406 -1.337457 0.139020
v 0.111047 -1.336324 0.142391
v 0.110407 -1.334275 0.141678
v 0.109846 -1.332142 0.139693
v 0.110544 -1.340992 0.136448
v 0.110586 -1.339291 0.141454
v 0.109934 -1.336561 0.142599
v 0.109320 -1.334305 0.142187
v 0.108591 -1.332054 0.139975
v 0.107478 -1.332368 0.140192
v 0.108299 -1.334497 0.142148
v 0.108745 -1.336763 0.142481
v 0.109259 -1.339471 0.141433
v 0.109202 -1.341172 0.137296
v 0.111969 -1.336184 0.141716
v 0.111278 -1.334295 0.141064
v 0.112461 -1.336871 0.136570
v 0.112282 -1.335337 0.137017
v 0.113058 -1.336056 0.139425
v 0.112123 -1.333953 0.137234
v 0.112324 -1.334498 0.139296
v 0.111364 -1.332928 0.139137
v 0.110905 -1.332126 0.137792
v 0.110632 -1.332532 0.139566
v 0.110288 -1.331610 0.137654
v 0.109312 -1.331291 0.137722
v 0.105137 -1.328978 0.088036
v 0.105696 -1.325775 0.087555
v 0.104379 -1.332334 0.088224
v 0.103761 -1.335253 0.088482
v 0.106633 -1.323152 0.087173
v 0.109477 -1.324925 0.086061
v 0.108813 -1.326887 0.086240
v 0.107228 -1.329228 0.087095
v 0.105868 -1.332717 0.088015
v 0.104829 -1.336005 0.088357
v 0.104301 -1.337604 0.088443
v 0.103134 -1.337608 0.088587
v 0.102363 -1.336552 0.088755
v 0.102398 -1.334508 0.088699
v 0.102634 -1.331452 0.088476
v 0.102910 -1.328125 0.088556
v 0.103259 -1.325187 0.088427
v 0.103784 -1.323943 0.088165
v 0.105070 -1.322589 0.088048
v 0.107195 -1.322454 0.087175
v 0.109183 -1.323291 0.086288
f 36 29 35
f 36 35 38
f 38 35 27
f 38 27 41
f 41 27 24
f 41 24 42
f 44 42 24
f 44 24 23
f 46 44 23
f 46 23 20
f 47 46 20
f 47 20 19
f 48 47 19
f 48 19 16
f 51 50 12
f 51 12 11
f 52 51 11
f 52 11 5
f 49 48 16
f 49 16 14
f 49 14 12
f 49 12 50
f 53 52 5
f 53 5 1
f 8 31 29
f 8 29 36
f 53 1 6
f 53 6 7
f 63 33 31
f 63 31 8
f 7 6 33
f 7 33 63
f 62 7 63
f 62 63 64
f 82 81 97
f 82 97 98
f 83 82 98
f 83 98 99
f 84 83 99
f 84 99 100
f 85 84 100
f 85 100 101
f 86 85 101
f 86 101 102
f 87 86 102
f 87 102 103
f 88 87 103
f 88 103 104
f 89 88 104
f 89 104 105
f 90 89 105
f 90 105 106
f 91 90 106
f 91 106 107
f 92 91 107
f 92 107 108
f 93 92 108
f 93 108 109
f 94 93 109
f 94 109 110
f 95 94 110
f 95 110 111
f 96 95 111
f 96 111 112
f 112 97 81
f 112 81 96
f 98 97 113
f 98 113 114
f 99 98 114
f 99 114 115
f 100 99 115
f 100 115 116
f 101 100 116
f 101 116 117
f 102 101 117
f 102 117 118
f 103 102 118
f 103 118 119
f 104 103 119
f 104 119 120
f 105 104 120
f 105 120 121
f 106 105 121
f 106 121 122
f 107 106 122
f 107 122 123
f 108 107 123
f 108 123 124
f 109 108 124
f 109 124 125
f 110 109 125
f 110 125 126
f 111 110 126
f 111 126 127
f 112 111 127
f 112 127 128
f 128 113 97
f 128 97 112
f 114 113 129
f 114 129 130
f 115 114 130
f 115 130 131
f 116 115 131
f 116 131 132
f 117 116 132
f 117 132 133
f 118 117 133
f 118 133 134
f 119 118 134
f 119 134 135
f 120 119 135
f 120 135 136
f 121 120 136
f 121 136 137
f 122 121 137
f 122 137 138
f 123 122 138
f 123 138 139
f 124 123 139
f 124 139 140
f 125 124 140
f 125 140 141
f 126 125 141
f 126 141 142
f 127 126 142
f 127 142 143
f 128 127 143
f 128 143 144
f 144 129 113
f 144 113 128
f 60 53 7
f 60 7 62
f 60 62 68
f 60 68 69
f 69 68 84
f 69 84 85
f 67 68 62
f 67 62 64
f 83 84 68
f 83 68 67
f 64 63 8
f 64 8 9
f 66 67 64
f 66 64 9
f 82 83 67
f 82 67 66
f 37 9 8
f 37 8 36
f 65 66 9
f 65 9 37
f 81 82 66
f 81 66 65
f 37 36 38
f 37 38 39
f 80 65 37
f 80 37 39
f 96 81 65
f 96 65 80
f 40 39 38
f 40 38 41
f 79 80 39
f 79 39 40
f 95 96 80
f 95 80 79
f 40 41 42
f 40 42 43
f 78 79 40
f 78 40 43
f 94 95 79
f 94 79 78
f 45 43 42
f 45 42 44
f 77 78 43
f 77 43 45
f 93 94 78
f 93 78 77
f 54 45 44
f 54 44 46
f 76 77 45
f 76 45 54
f 92 93 77
f 92 77 76
f 55 54 46
f 55 46 47
f 75 76 54
f 75 54 55
f 91 92 76
f 91 76 75
f 56 55 47
f 56 47 48
f 74 75 55
f 74 55 56
f 90 91 75
f 90 75 74
f 61 56 48
f 61 48 49
f 73 74 56
f 73 56 61
f 89 90 74
f 89 74 73
f 61 49 50
f 61 50 57
f 72 73 61
f 72 61 57
f 88 89 73
f 88 73 72
f 58 57 50
f 58 50 51
f 71 72 57
f 71 57 58
f 87 88 72
f 87 72 71
f 59 58 51
f 59 51 52
f 70 71 58
f 70 58 59
f 59 52 53
f 59 53 60
f 59 60 69
f 59 69 70
f 70 69 85
f 70 85 86
f 86 87 71
f 86 71 70
f 142 141 157
f 142 157 158
f 156 157 141
f 156 141 140
f 143 142 158
f 143 158 159
f 144 143 159
f 144 159 160
f 129 144 160
f 129 160 145
f 130 129 145
f 130 145 146
f 131 130 146
f 131 146 147
f 160 159 167
f 160 167 171
f 172 145 160
f 172 160 171
f 146 145 172
f 146 172 173
f 174 147 146
f 174 146 173
f 168 167 159
f 168 159 163
f 182 168 179
f 182 179 169
f 182 171 167
f 182 167 168
f 181 172 171
f 181 171 182
f 183 173 172
f 183 172 181
f 178 174 173
f 178 173 183
f 181 182 169
f 181 169 170
f 183 181 170
f 183 170 184
f 175 178 183
f 175 183 184
f 177 147 174
f 177 174 178
f 132 131 147
f 132 147 148
f 133 132 148
f 133 148 149
f 155 156 140
f 155 140 139
f 154 155 139
f 154 139 138
f 153 154 138
f 153 138 137
f 152 153 137
f 152 137 136
f 164 156 155
f 164 155 189
f 162 157 156
f 162 156 164
f 148 147 177
f 148 177 186
f 161 158 157
f 161 157 162
f 163 159 158
f 163 158 161
f 191 164 189
f 191 189 190
f 204 162 164
f 204 164 191
f 180 163 161
f 180 161 213
f 179 168 163
f 179 163 180
f 213 161 162
f 213 162 204
f 205 204 191
f 205 191 198
f 165 169 179
f 165 179 180
f 165 180 213
f 165 213 212
f 212 213 204
f 212 204 205
f 170 169 165
f 170 165 166
f 166 165 212
f 166 212 211
f 211 212 205
f 211 205 206
f 184 170 166
f 184 166 185
f 185 166 211
f 185 211 210
f 210 211 206
f 210 206 207
f 177 178 175
f 177 175 176
f 176 175 184
f 176 184 185
f 176 185 210
f 176 210 209
f 209 186 177
f 209 177 176
f 209 210 207
f 209 207 208
f 199 198 191
f 199 191 190
f 206 205 198
f 206 198 201
f 207 206 201
f 207 201 202
f 197 190 189
f 197 189 196
f 192 155 154
f 192 154 193
f 196 189 155
f 196 155 192
f 194 193 154
f 194 154 153
f 196 192 193
f 196 193 216
f 199 190 197
f 199 197 200
f 200 197 196
f 200 196 216
f 195 194 153
f 195 153 152
f 216 193 194
f 216 194 217
f 201 198 199
f 201 199 214
f 214 199 200
f 214 200 218
f 200 216 217
f 200 217 218
f 217 194 195
f 217 195 219
f 220 218 217
f 220 217 219
f 215 214 218
f 215 218 220
f 202 201 214
f 202 214 215
f 215 220 221
f 215 221 223
f 221 220 219
f 221 219 222
f 222 219 195
f 222 195 188
f 208 207 202
f 208 202 203
f 187 186 209
f 187 209 208
f 149 148 186
f 149 186 187
f 203 202 215
f 203 215 223
f 135 134 150
f 135 150 151
f 151 152 136
f 151 136 135
f 188 195 152
f 188 152 151
f 224 222 188
f 224 188 151
f 224 223 221
f 224 221 222
f 134 133 149
f 134 149 150
f 150 149 187
f 150 187 225
f 225 224 151
f 225 151 150
f 225 187 208
f 225 208 203
f 225 203 223
f 225 223 224
f 15 13 12
f 15 12 14
f 17 15 14
f 17 14 16
f 232 15 17
f 232 17 233
f 18 17 16
f 18 16 19
f 233 17 18
f 233 18 234
f 21 18 19
f 21 19 20
f 234 18 21
f 234 21 235
f 22 21 20
f 22 20 23
f 236 235 21
f 236 21 22
f 25 22 23
f 25 23 24
f 236 22 25
f 236 25 237
f 26 25 24
f 26 24 27
f 238 237 25
f 238 25 26
f 229 235 236
f 229 236 237
f 34 26 27
f 34 27 35
f 239 229 237
f 239 237 238
f 239 238 26
f 239 26 34
f 34 35 29
f 34 29 28
f 234 235 229
f 234 229 228
f 240 228 229
f 240 229 239
f 240 239 34
f 240 34 28
f 233 234 228
f 233 228 226
f 30 28 29
f 30 29 31
f 226 228 240
f 226 240 241
f 240 28 30
f 240 30 241
f 32 30 31
f 32 31 33
f 232 233 226
f 232 226 227
f 242 227 226
f 242 226 241
f 242 241 30
f 242 30 32
f 32 33 6
f 32 6 3
f 243 242 32
f 243 32 3
f 2 3 6
f 2 6 1
f 244 243 3
f 244 3 2
f 4 2 1
f 4 1 5
f 230 227 242
f 230 242 243
f 244 2 4
f 244 4 245
f 230 243 244
f 230 244 245
f 10 4 5
f 10 5 11
f 10 11 12
f 10 12 13
f 232 227 230
f 232 230 231
f 246 245 4
f 246 4 10
f 246 10 13
f 246 13 231
f 231 13 15
f 231 15 232
f 231 230 245
f 231 245 246
