# _2nd_Distal_Phalanx_Foot_L rest
v 0.112856 -1.334259 0.137075
v 0.111749 -1.334196 0.137193
v 0.110971 -1.334454 0.137105
v 0.110320 -1.335332 0.136764
v 0.110413 -1.336108 0.136378
v 0.110984 -1.336767 0.136188
v 0.111945 -1.337443 0.136035
v 0.113103 -1.337501 0.135848
v 0.114192 -1.337059 0.135751
v 0.114602 -1.336344 0.136102
v 0.114434 -1.335470 0.136529
v 0.113682 -1.334730 0.136863
v 0.110000 -1.335834 0.138027
v 0.110585 -1.334874 0.138276
v 0.111552 -1.334436 0.138367
v 0.112581 -1.334425 0.138337
v 0.113559 -1.334879 0.138179
v 0.114380 -1.335776 0.137903
v 0.114670 -1.337102 0.137523
v 0.113951 -1.338237 0.137229
v 0.112749 -1.338584 0.137172
v 0.111661 -1.338400 0.137259
v 0.110749 -1.337872 0.137436
v 0.110078 -1.336985 0.137704
v 0.110670 -1.336426 0.139378
v 0.111124 -1.335788 0.139546
v 0.111743 -1.335351 0.139655
v 0.112573 -1.335100 0.139709
v 0.113329 -1.335608 0.139555
v 0.113709 -1.336411 0.139327
v 0.113808 -1.337252 0.139062
v 0.113290 -1.337780 0.138765
v 0.112584 -1.337971 0.138646
v 0.111891 -1.337927 0.138663
v 0.111314 -1.337612 0.138765
v 0.110743 -1.337150 0.139090
v 0.110985 -1.336643 0.141507
v 0.111301 -1.336206 0.141594
v 0.111801 -1.335935 0.141667
v 0.112511 -1.335737 0.141731
v 0.113112 -1.336024 0.141587
v 0.113439 -1.336717 0.141402
v 0.113491 -1.337477 0.141317
v 0.112977 -1.337838 0.141122
v 0.112502 -1.338212 0.141002
v 0.111859 -1.338320 0.140988
v 0.111265 -1.337941 0.141112
v 0.110921 -1.337296 0.141327
v 0.110736 -1.336950 0.143231
v 0.111214 -1.336134 0.143416
v 0.111767 -1.335821 0.143435
v 0.112394 -1.335705 0.143369
v 0.113047 -1.335947 0.143205
v 0.113655 -1.336689 0.143141
v 0.113727 -1.337679 0.143012
v 0.113404 -1.338244 0.142987
v 0.112539 -1.338673 0.143032
v 0.111694 -1.338698 0.143056
v 0.110915 -1.338260 0.143194
v 0.110654 -1.337615 0.143061
v 0.110838 -1.337188 0.143706
v 0.111286 -1.336436 0.143893
v 0.111887 -1.336093 0.143953
v 0.112433 -1.336033 0.143875
v 0.112892 -1.336193 0.143779
v 0.113470 -1.336840 0.143680
v 0.113561 -1.337683 0.143509
v 0.113252 -1.338130 0.143488
v 0.112183 -1.338589 0.143518
v 0.111633 -1.338563 0.143524
v 0.111036 -1.338141 0.143705
v 0.110756 -1.337702 0.143530
v 0.111508 -1.337873 0.143839
v 0.112058 -1.337346 0.143767
v 0.112516 -1.336789 0.143941
v 0.112582 -1.335188 0.137050
v 0.113274 -1.335490 0.136864
v 0.113737 -1.335800 0.136647
v 0.113893 -1.336318 0.136393
v 0.113632 -1.336786 0.136223
v 0.113045 -1.336921 0.136349
v 0.112181 -1.336802 0.136545
v 0.111464 -1.336381 0.136604
v 0.111025 -1.335929 0.136569
v 0.110991 -1.335417 0.136760
v 0.111258 -1.335065 0.136938
v 0.111870 -1.334992 0.137082
v 0.113153 -1.336232 0.136635
v 0.112347 -1.336053 0.136856
v 0.111647 -1.335757 0.136878
f 26 25 37
f 26 37 38
f 27 26 38
f 27 38 39
f 28 27 39
f 28 39 40
f 29 28 40
f 29 40 41
f 30 29 41
f 30 41 42
f 31 30 42
f 31 42 43
f 32 31 43
f 32 43 44
f 33 32 44
f 33 44 45
f 34 33 45
f 34 45 46
f 35 34 46
f 35 46 47
f 36 35 47
f 36 47 48
f 48 37 25
f 48 25 36
f 38 37 49
f 38 49 50
f 39 38 50
f 39 50 51
f 40 39 51
f 40 51 52
f 41 40 52
f 41 52 53
f 42 41 53
f 42 53 54
f 43 42 54
f 43 54 55
f 44 43 55
f 44 55 56
f 45 44 56
f 45 56 57
f 46 45 57
f 46 57 58
f 47 46 58
f 47 58 59
f 48 47 59
f 48 59 60
f 60 49 37
f 60 37 48
f 16 15 27
f 16 27 28
f 17 16 28
f 17 28 29
f 18 17 29
f 18 29 30
f 26 27 15
f 26 15 14
f 25 26 14
f 25 14 13
f 36 25 13
f 36 13 24
f 35 36 24
f 35 24 23
f 34 35 23
f 34 23 22
f 33 34 22
f 33 22 21
f 32 33 21
f 32 21 20
f 19 18 30
f 19 30 31
f 31 32 20
f 31 20 19
f 71 72 60
f 71 60 59
f 59 58 70
f 59 70 71
f 73 71 70
f 73 70 69
f 69 70 58
f 69 58 57
f 61 62 50
f 61 50 49
f 61 72 71
f 61 71 73
f 49 60 72
f 49 72 61
f 68 69 57
f 68 57 56
f 62 61 73
f 62 73 74
f 74 73 69
f 74 69 68
f 51 50 62
f 51 62 63
f 67 68 56
f 67 56 55
f 66 67 55
f 66 55 54
f 52 51 63
f 52 63 64
f 65 66 54
f 65 54 53
f 75 74 68
f 75 68 67
f 65 64 63
f 65 63 75
f 53 52 64
f 53 64 65
f 75 67 66
f 75 66 65
f 63 62 74
f 63 74 75
f 1 16 17
f 1 17 12
f 11 12 17
f 11 17 18
f 10 11 18
f 10 18 19
f 9 10 19
f 9 19 20
f 8 9 20
f 8 20 21
f 7 8 21
f 7 21 22
f 6 7 22
f 6 22 23
f 5 6 23
f 5 23 24
f 4 5 24
f 4 24 13
f 3 4 13
f 3 13 14
f 2 3 14
f 2 14 15
f 2 15 16
f 2 16 1
f 79 78 11
f 79 11 10
f 79 10 9
f 79 9 80
f 81 80 9
f 81 9 8
f 77 12 11
f 77 11 78
f 88 79 80
f 88 80 81
f 88 77 78
f 88 78 79
f 1 12 77
f 1 77 76
f 82 81 8
f 82 8 7
f 89 76 77
f 89 77 88
f 89 88 81
f 89 81 82
f 83 6 5
f 83 5 84
f 87 86 3
f 87 3 2
f 83 82 7
f 83 7 6
f 87 2 1
f 87 1 76
f 85 4 3
f 85 3 86
f 90 87 76
f 90 76 89
f 90 83 84
f 90 84 85
f 85 84 5
f 85 5 4
f 85 86 87
f 85 87 90
f 90 89 82
f 90 82 83
