# _2nd_Proximal_Phalanges_Hand_L rest
v 0.841905 0.037329 -0.038059
v 0.843467 0.036269 -0.043825
v 0.841261 0.036424 -0.043837
v 0.840820 0.033509 -0.045809
v 0.839923 0.031729 -0.042697
v 0.841499 0.030855 -0.042129
v 0.843313 0.031404 -0.041120
v 0.845427 0.032867 -0.042651
v 0.845188 0.035630 -0.042281
v 0.843227 0.032831 -0.045443
v 0.840085 0.037554 -0.038029
v 0.843791 0.035823 -0.037959
v 0.841415 0.037548 -0.032587
v 0.843658 0.036541 -0.033857
v 0.839019 0.037239 -0.032333
v 0.838439 0.035350 -0.029699
v 0.841111 0.035276 -0.030540
v 0.843524 0.034634 -0.032319
v 0.840482 0.032751 -0.032402
v 0.842337 0.032952 -0.033266
v 0.838707 0.033157 -0.032291
v 0.840389 0.031538 -0.037266
v 0.842376 0.031830 -0.037394
v 0.844492 0.033413 -0.037643
v 0.839062 0.032245 -0.037495
v 0.838314 0.034054 -0.044485
v 0.838584 0.036747 -0.042554
v 0.837584 0.032386 -0.041812
v 0.837823 0.037721 -0.038109
v 0.836822 0.037159 -0.033830
v 0.836180 0.035095 -0.032233
v 0.836497 0.033605 -0.034043
v 0.836802 0.032512 -0.037616
v 0.832611 0.035366 -0.033604
v 0.833303 0.037434 -0.035052
v 0.834161 0.037955 -0.038463
v 0.834663 0.036981 -0.041883
v 0.834526 0.034615 -0.043626
v 0.833728 0.032862 -0.041886
v 0.832945 0.032591 -0.038522
v 0.832515 0.033540 -0.035416
v 0.827264 0.035901 -0.033688
v 0.828305 0.037997 -0.035815
v 0.829222 0.038400 -0.039265
v 0.829825 0.037416 -0.042826
v 0.829750 0.034920 -0.044979
v 0.828683 0.032943 -0.042832
v 0.827739 0.032625 -0.039428
v 0.827158 0.033566 -0.035884
v 0.821767 0.035843 -0.033644
v 0.822982 0.037857 -0.036157
v 0.824115 0.038155 -0.040066
v 0.824881 0.037125 -0.043953
v 0.824957 0.034501 -0.046575
v 0.823589 0.032185 -0.044150
v 0.822444 0.032347 -0.040060
v 0.821669 0.033450 -0.036161
v 0.815669 0.035189 -0.032793
v 0.817372 0.037792 -0.035504
v 0.819092 0.038493 -0.040362
v 0.820196 0.036864 -0.045432
v 0.820112 0.033377 -0.048466
v 0.818305 0.029974 -0.046041
v 0.816507 0.030949 -0.040039
v 0.815215 0.031951 -0.034116
v 0.816685 0.038462 -0.040713
v 0.818042 0.036999 -0.047151
v 0.817374 0.032698 -0.051078
v 0.814533 0.029169 -0.047239
v 0.813404 0.030753 -0.040481
v 0.811092 0.031454 -0.032616
v 0.812111 0.035213 -0.030722
v 0.814667 0.037937 -0.034918
v 0.814585 0.037255 -0.040978
v 0.813180 0.037603 -0.035778
v 0.809977 0.035527 -0.033009
v 0.809218 0.032149 -0.033988
v 0.812334 0.031563 -0.040783
v 0.813335 0.030967 -0.046075
v 0.814087 0.033159 -0.047634
v 0.815558 0.036289 -0.046069
v 0.812612 0.034167 -0.041026
v 0.841294 0.032092 -0.034871
v 0.844695 0.034404 -0.044612
v 0.842570 0.036195 -0.031449
v 0.842069 0.034082 -0.031372
v 0.844112 0.032165 -0.039839
v 0.845303 0.034616 -0.040156
v 0.843598 0.036513 -0.040515
v 0.842799 0.037044 -0.035638
v 0.844569 0.035300 -0.035447
v 0.843226 0.032982 -0.035021
v 0.843437 0.031531 -0.043344
v 0.841732 0.031075 -0.039506
v 0.841508 0.031795 -0.044890
v 0.842693 0.034938 -0.046156
v 0.841606 0.037026 -0.040996
v 0.840515 0.037600 -0.035147
v 0.839864 0.036497 -0.030273
v 0.839587 0.033886 -0.030359
v 0.839591 0.032256 -0.034563
v 0.840113 0.031315 -0.040065
v 0.829875 0.034472 -0.034413
v 0.825093 0.037169 -0.034474
v 0.826248 0.038369 -0.037789
v 0.827147 0.038066 -0.041665
v 0.827535 0.036271 -0.044976
v 0.826824 0.033435 -0.045023
v 0.825609 0.032382 -0.041631
v 0.824775 0.032865 -0.037834
v 0.824401 0.034528 -0.034547
v 0.839637 0.037286 -0.040734
v 0.836535 0.037545 -0.040197
v 0.832080 0.037941 -0.040553
v 0.839994 0.035464 -0.045000
v 0.836854 0.035794 -0.043553
v 0.832372 0.036252 -0.043537
v 0.839295 0.032692 -0.043974
v 0.836254 0.033276 -0.043046
v 0.831743 0.033723 -0.043460
v 0.838496 0.032135 -0.039972
v 0.835412 0.032347 -0.039982
v 0.830802 0.032653 -0.040596
v 0.837981 0.032987 -0.035209
v 0.834819 0.032935 -0.036237
v 0.830136 0.032964 -0.037246
v 0.837548 0.034290 -0.031431
v 0.834661 0.034294 -0.033883
v 0.838506 0.037615 -0.035447
v 0.835741 0.037709 -0.036267
v 0.837546 0.036335 -0.031284
v 0.834880 0.036303 -0.033342
v 0.830411 0.036951 -0.034092
v 0.831369 0.038225 -0.037039
v 0.821880 0.037639 -0.042520
v 0.822454 0.035630 -0.046261
v 0.821739 0.032345 -0.046883
v 0.819978 0.031311 -0.042456
v 0.818768 0.032196 -0.037778
v 0.818310 0.034036 -0.034012
v 0.819269 0.036840 -0.034243
v 0.820701 0.038142 -0.037917
v 0.816689 0.038529 -0.037626
v 0.814607 0.036745 -0.033012
v 0.812888 0.033304 -0.031309
v 0.813535 0.030404 -0.036645
v 0.815303 0.030103 -0.043385
v 0.817871 0.030623 -0.049913
v 0.819241 0.035180 -0.048990
v 0.818446 0.038117 -0.043573
v 0.814924 0.038241 -0.037905
v 0.812437 0.037003 -0.032621
v 0.809775 0.033515 -0.030702
v 0.810911 0.030776 -0.037220
v 0.813427 0.030653 -0.043931
v 0.814476 0.031063 -0.049117
v 0.816492 0.035170 -0.049516
v 0.816440 0.037655 -0.043881
v 0.812451 0.036338 -0.037591
v 0.814224 0.035184 -0.044338
v 0.810718 0.033211 -0.037217
v 0.813106 0.032182 -0.044402
v 0.842542 0.036922 -0.040834
v 0.842420 0.036307 -0.044106
v 0.841308 0.035223 -0.045827
v 0.840471 0.032291 -0.044668
v 0.840698 0.031141 -0.042637
v 0.842461 0.031017 -0.041593
v 0.844206 0.031853 -0.041797
v 0.845843 0.034604 -0.042922
v 0.844617 0.036052 -0.043235
v 0.842164 0.033120 -0.046095
v 0.844259 0.032715 -0.044488
v 0.843636 0.034566 -0.045393
v 0.842441 0.031507 -0.044334
v 0.840922 0.037480 -0.038042
v 0.840706 0.037137 -0.040983
v 0.842972 0.036734 -0.038049
v 0.844369 0.035652 -0.040187
v 0.841617 0.037560 -0.035366
v 0.842838 0.037227 -0.033217
v 0.843697 0.036152 -0.035751
v 0.839509 0.037566 -0.035125
v 0.840119 0.037459 -0.032214
v 0.838609 0.036542 -0.030156
v 0.841194 0.036315 -0.030957
v 0.839717 0.035286 -0.029784
v 0.842280 0.035186 -0.031202
v 0.843990 0.035923 -0.032768
v 0.842941 0.033598 -0.032644
v 0.840848 0.033921 -0.030695
v 0.841579 0.032840 -0.032729
v 0.838517 0.034091 -0.030478
v 0.839547 0.032903 -0.032149
v 0.840776 0.031038 -0.039673
v 0.842964 0.031519 -0.039553
v 0.841320 0.031526 -0.037275
v 0.842326 0.032432 -0.035011
v 0.840324 0.032059 -0.034704
v 0.843448 0.032442 -0.037573
v 0.845211 0.033110 -0.040031
v 0.844248 0.033898 -0.035046
v 0.844690 0.034894 -0.037821
v 0.839727 0.031804 -0.037366
v 0.839451 0.031806 -0.040194
v 0.838905 0.032698 -0.034774
v 0.839577 0.033809 -0.045115
v 0.840039 0.036598 -0.043198
v 0.838588 0.035629 -0.044205
v 0.838969 0.032163 -0.042318
v 0.837942 0.032950 -0.043367
v 0.838259 0.037432 -0.040407
v 0.839064 0.037653 -0.038079
v 0.837328 0.037654 -0.035848
v 0.837964 0.037110 -0.033037
v 0.836355 0.036270 -0.032454
v 0.837348 0.035245 -0.030744
v 0.836344 0.034256 -0.032934
v 0.837816 0.033534 -0.033063
v 0.836629 0.032999 -0.035631
v 0.838129 0.032477 -0.037534
v 0.837168 0.032255 -0.039775
v 0.832871 0.036564 -0.033864
v 0.833742 0.037904 -0.036660
v 0.834489 0.037651 -0.040265
v 0.834712 0.035944 -0.043164
v 0.834145 0.033564 -0.042998
v 0.833300 0.032505 -0.040300
v 0.832675 0.032931 -0.036858
v 0.832479 0.034341 -0.034317
v 0.827768 0.037204 -0.034395
v 0.828802 0.038390 -0.037511
v 0.829582 0.038088 -0.041096
v 0.829926 0.036330 -0.044297
v 0.829225 0.033681 -0.044207
v 0.828180 0.032594 -0.041153
v 0.827390 0.032943 -0.037546
v 0.827091 0.034529 -0.034460
v 0.822313 0.037081 -0.034475
v 0.823602 0.038195 -0.038045
v 0.824561 0.037806 -0.042060
v 0.825063 0.036042 -0.045593
v 0.824378 0.032978 -0.045987
v 0.822956 0.032085 -0.042092
v 0.822003 0.032779 -0.038062
v 0.821570 0.034400 -0.034523
v 0.816472 0.036691 -0.033772
v 0.818231 0.038391 -0.037744
v 0.819737 0.037953 -0.043039
v 0.820375 0.035310 -0.047421
v 0.819520 0.031422 -0.048430
v 0.817242 0.030425 -0.042831
v 0.815746 0.031150 -0.037050
v 0.815159 0.033559 -0.032735
v 0.830018 0.035687 -0.033632
v 0.830901 0.037797 -0.035391
v 0.831765 0.038258 -0.038800
v 0.832286 0.037272 -0.042199
v 0.832207 0.034922 -0.044133
v 0.831251 0.032988 -0.042173
v 0.830436 0.032675 -0.038938
v 0.829930 0.033575 -0.035704
v 0.824570 0.035918 -0.033730
v 0.825690 0.037975 -0.035984
v 0.826735 0.038385 -0.039715
v 0.827422 0.037365 -0.043470
v 0.827382 0.034808 -0.045749
v 0.826147 0.032651 -0.043433
v 0.825142 0.032500 -0.039734
v 0.824506 0.033518 -0.036073
v 0.818660 0.035499 -0.033588
v 0.819999 0.037749 -0.035832
v 0.821376 0.038079 -0.040275
v 0.822234 0.036833 -0.044557
v 0.822299 0.033991 -0.047154
v 0.820807 0.031227 -0.044926
v 0.819344 0.031689 -0.040133
v 0.818361 0.032894 -0.035568
v 0.836186 0.037804 -0.038237
v 0.836775 0.036898 -0.042042
v 0.836614 0.034342 -0.043915
v 0.835824 0.032610 -0.041722
v 0.835058 0.032522 -0.038010
v 0.834707 0.033571 -0.034863
v 0.834683 0.035197 -0.033203
v 0.835279 0.037203 -0.034538
v 0.817663 0.038602 -0.040572
v 0.819131 0.037028 -0.046575
v 0.817466 0.037989 -0.043848
v 0.818072 0.035205 -0.049974
v 0.818726 0.032915 -0.049994
v 0.816060 0.030499 -0.050230
v 0.816315 0.029242 -0.046936
v 0.814086 0.030223 -0.043788
v 0.814525 0.030608 -0.040107
v 0.812031 0.030299 -0.036908
v 0.812798 0.031510 -0.032906
v 0.811230 0.033324 -0.030496
v 0.813557 0.035102 -0.031624
v 0.813365 0.036880 -0.032499
v 0.815691 0.037901 -0.035112
v 0.815737 0.038446 -0.037680
v 0.815722 0.038131 -0.040845
v 0.813821 0.037865 -0.035221
v 0.813792 0.037578 -0.038033
v 0.811764 0.036904 -0.034320
v 0.810691 0.035514 -0.030620
v 0.808999 0.033561 -0.032754
v 0.809701 0.031716 -0.032981
v 0.810612 0.031743 -0.037569
v 0.812744 0.031095 -0.040681
v 0.813095 0.031228 -0.043962
v 0.813494 0.030290 -0.046633
v 0.813661 0.031722 -0.047175
v 0.815532 0.032876 -0.050280
v 0.814869 0.035005 -0.047113
v 0.816637 0.036769 -0.046800
v 0.815202 0.036731 -0.043905
v 0.811365 0.034827 -0.037167
v 0.812211 0.032646 -0.040908
v 0.813488 0.033544 -0.044629
v 0.813489 0.035801 -0.040982
f 174 96 164
f 174 164 2
f 2 164 97
f 2 97 163
f 2 163 89
f 2 89 171
f 2 171 84
f 2 84 174
f 164 96 165
f 164 165 3
f 3 165 115
f 3 115 208
f 3 208 112
f 3 112 177
f 177 97 164
f 177 164 3
f 172 95 166
f 172 166 4
f 4 166 118
f 4 118 207
f 4 207 115
f 4 115 165
f 4 165 96
f 4 96 172
f 166 95 167
f 166 167 5
f 5 167 102
f 5 102 205
f 5 210 118
f 5 118 166
f 205 121 210
f 205 210 5
f 175 93 168
f 175 168 6
f 6 168 94
f 6 94 195
f 6 195 102
f 6 102 167
f 6 167 95
f 6 95 175
f 7 169 87
f 7 87 196
f 168 93 169
f 168 169 7
f 7 196 94
f 7 94 168
f 173 84 170
f 173 170 8
f 8 170 88
f 8 88 201
f 8 201 87
f 8 87 169
f 8 169 93
f 8 93 173
f 170 84 171
f 170 171 9
f 9 171 89
f 9 89 179
f 179 88 170
f 179 170 9
f 176 97 177
f 176 177 11
f 11 177 112
f 11 112 213
f 11 183 98
f 11 98 176
f 213 129 183
f 213 183 11
f 203 88 179
f 203 179 12
f 12 179 89
f 12 89 178
f 178 90 182
f 178 182 12
f 12 182 91
f 12 91 203
f 186 85 181
f 186 181 13
f 13 181 90
f 13 90 180
f 180 98 184
f 180 184 13
f 13 184 99
f 13 99 186
f 181 85 189
f 181 189 14
f 14 189 91
f 14 91 182
f 182 90 181
f 182 181 14
f 15 185 99
f 15 99 184
f 215 131 185
f 215 185 15
f 183 129 215
f 183 215 15
f 184 98 183
f 184 183 15
f 16 187 99
f 16 99 185
f 193 100 187
f 193 187 16
f 217 127 193
f 217 193 16
f 185 131 217
f 185 217 16
f 17 188 85
f 17 85 186
f 191 86 188
f 191 188 17
f 187 100 191
f 187 191 17
f 17 186 99
f 17 99 187
f 188 86 190
f 188 190 18
f 18 190 92
f 18 92 202
f 189 85 188
f 189 188 18
f 202 91 189
f 202 189 18
f 199 83 192
f 199 192 19
f 19 192 86
f 19 86 191
f 191 100 194
f 191 194 19
f 19 194 101
f 19 101 199
f 20 190 86
f 20 86 192
f 198 92 190
f 198 190 20
f 20 192 83
f 20 83 198
f 21 219 124
f 21 124 206
f 193 127 219
f 193 219 21
f 194 100 193
f 194 193 21
f 206 101 194
f 206 194 21
f 22 197 83
f 22 83 199
f 195 94 197
f 195 197 22
f 22 199 101
f 22 101 204
f 22 204 102
f 22 102 195
f 23 198 83
f 23 83 197
f 200 92 198
f 200 198 23
f 196 87 200
f 196 200 23
f 197 94 196
f 197 196 23
f 203 91 202
f 203 202 24
f 24 202 92
f 24 92 200
f 201 88 203
f 201 203 24
f 24 200 87
f 24 87 201
f 25 205 102
f 25 102 204
f 221 121 205
f 221 205 25
f 204 101 206
f 204 206 25
f 25 206 124
f 25 124 221
f 26 209 115
f 26 115 207
f 281 116 209
f 281 209 26
f 207 118 211
f 207 211 26
f 26 211 119
f 26 119 281
f 27 212 112
f 27 112 208
f 280 113 212
f 280 212 27
f 27 208 115
f 27 115 209
f 27 209 116
f 27 116 280
f 211 118 210
f 211 210 28
f 28 210 121
f 28 121 222
f 282 119 211
f 282 211 28
f 28 222 122
f 28 122 282
f 29 214 129
f 29 129 213
f 279 130 214
f 279 214 29
f 213 112 212
f 213 212 29
f 29 212 113
f 29 113 279
f 30 216 131
f 30 131 215
f 286 132 216
f 286 216 30
f 214 130 286
f 214 286 30
f 215 129 214
f 215 214 30
f 31 218 127
f 31 127 217
f 285 128 218
f 285 218 31
f 217 131 216
f 217 216 31
f 31 216 132
f 31 132 285
f 32 220 124
f 32 124 219
f 284 125 220
f 284 220 32
f 218 128 284
f 218 284 32
f 219 127 218
f 219 218 32
f 33 222 121
f 33 121 221
f 283 122 222
f 283 222 33
f 220 125 283
f 220 283 33
f 221 124 220
f 221 220 33
f 285 132 223
f 285 223 34
f 34 223 133
f 34 133 255
f 34 255 103
f 34 103 230
f 230 128 285
f 230 285 34
f 286 130 224
f 286 224 35
f 35 224 134
f 35 134 256
f 35 256 133
f 35 133 223
f 35 223 132
f 35 132 286
f 279 113 225
f 279 225 36
f 36 225 114
f 36 114 257
f 36 257 134
f 36 134 224
f 224 130 279
f 224 279 36
f 280 116 226
f 280 226 37
f 37 226 117
f 37 117 258
f 37 258 114
f 37 114 225
f 225 113 280
f 225 280 37
f 281 119 227
f 281 227 38
f 38 227 120
f 38 120 259
f 38 259 117
f 38 117 226
f 226 116 281
f 226 281 38
f 282 122 228
f 282 228 39
f 39 228 123
f 39 123 260
f 39 260 120
f 39 120 227
f 227 119 282
f 227 282 39
f 283 125 229
f 283 229 40
f 40 229 126
f 40 126 261
f 40 261 123
f 40 123 228
f 40 228 122
f 40 122 283
f 41 230 103
f 41 103 262
f 284 128 230
f 284 230 41
f 41 262 126
f 41 126 229
f 41 229 125
f 41 125 284
f 42 231 104
f 42 104 263
f 255 133 231
f 255 231 42
f 42 263 111
f 42 111 238
f 42 238 103
f 42 103 255
f 43 232 105
f 43 105 264
f 256 134 232
f 256 232 43
f 43 264 104
f 43 104 231
f 43 231 133
f 43 133 256
f 44 233 106
f 44 106 265
f 257 114 233
f 257 233 44
f 44 265 105
f 44 105 232
f 44 232 134
f 44 134 257
f 45 234 107
f 45 107 266
f 258 117 234
f 258 234 45
f 45 266 106
f 45 106 233
f 45 233 114
f 45 114 258
f 46 235 108
f 46 108 267
f 259 120 235
f 259 235 46
f 46 267 107
f 46 107 234
f 46 234 117
f 46 117 259
f 47 236 109
f 47 109 268
f 260 123 236
f 260 236 47
f 47 268 108
f 47 108 235
f 47 235 120
f 47 120 260
f 48 237 110
f 48 110 269
f 261 126 237
f 261 237 48
f 48 269 109
f 48 109 236
f 48 236 123
f 48 123 261
f 262 103 238
f 262 238 49
f 49 238 111
f 49 111 270
f 49 270 110
f 49 110 237
f 49 237 126
f 49 126 262
f 263 104 239
f 263 239 50
f 50 239 141
f 50 141 271
f 50 271 140
f 50 140 246
f 50 246 111
f 50 111 263
f 264 105 240
f 264 240 51
f 51 240 142
f 51 142 272
f 51 272 141
f 51 141 239
f 51 239 104
f 51 104 264
f 265 106 241
f 265 241 52
f 52 241 135
f 52 135 273
f 52 273 142
f 52 142 240
f 52 240 105
f 52 105 265
f 266 107 242
f 266 242 53
f 53 242 136
f 53 136 274
f 53 274 135
f 53 135 241
f 53 241 106
f 53 106 266
f 267 108 243
f 267 243 54
f 54 243 137
f 54 137 275
f 54 275 136
f 54 136 242
f 54 242 107
f 54 107 267
f 268 109 244
f 268 244 55
f 55 244 138
f 55 138 276
f 55 276 137
f 55 137 243
f 55 243 108
f 55 108 268
f 269 110 245
f 269 245 56
f 56 245 139
f 56 139 277
f 56 277 138
f 56 138 244
f 56 244 109
f 56 109 269
f 270 111 246
f 270 246 57
f 57 246 140
f 57 140 278
f 57 278 139
f 57 139 245
f 57 245 110
f 57 110 270
f 271 141 247
f 271 247 58
f 58 247 144
f 58 144 299
f 58 299 145
f 58 145 254
f 58 254 140
f 58 140 271
f 272 142 248
f 272 248 59
f 59 248 143
f 59 143 301
f 59 301 144
f 59 144 247
f 59 247 141
f 59 141 272
f 273 135 249
f 273 249 60
f 60 249 150
f 60 150 287
f 60 287 143
f 60 143 248
f 60 248 142
f 60 142 273
f 274 136 250
f 274 250 61
f 61 250 149
f 61 149 288
f 61 288 150
f 61 150 249
f 61 249 135
f 61 135 274
f 275 137 251
f 275 251 62
f 62 251 148
f 62 148 291
f 62 291 149
f 62 149 250
f 62 250 136
f 62 136 275
f 276 138 252
f 276 252 63
f 63 252 147
f 63 147 293
f 63 293 148
f 63 148 251
f 63 251 137
f 63 137 276
f 277 139 253
f 277 253 64
f 64 253 146
f 64 146 295
f 64 295 147
f 64 147 252
f 64 252 138
f 64 138 277
f 278 140 254
f 278 254 65
f 65 254 145
f 65 145 297
f 65 297 146
f 65 146 253
f 65 253 139
f 65 139 278
f 287 150 289
f 287 289 66
f 66 289 158
f 66 158 303
f 66 303 151
f 66 151 302
f 302 143 287
f 302 287 66
f 288 149 290
f 288 290 67
f 67 290 157
f 67 157 317
f 67 317 158
f 67 158 289
f 289 150 288
f 289 288 67
f 291 148 292
f 291 292 68
f 68 292 156
f 68 156 315
f 68 315 157
f 68 157 290
f 68 290 149
f 68 149 291
f 293 147 294
f 293 294 69
f 69 294 155
f 69 155 313
f 69 313 156
f 69 156 292
f 69 292 148
f 69 148 293
f 295 146 296
f 295 296 70
f 70 296 154
f 70 154 311
f 70 311 155
f 70 155 294
f 70 294 147
f 70 147 295
f 297 145 298
f 297 298 71
f 71 298 153
f 71 153 309
f 71 309 154
f 71 154 296
f 71 296 146
f 71 146 297
f 299 144 300
f 299 300 72
f 72 300 152
f 72 152 307
f 72 307 153
f 72 153 298
f 72 298 145
f 72 145 299
f 301 143 302
f 301 302 73
f 73 302 151
f 73 151 304
f 73 304 152
f 73 152 300
f 73 300 144
f 73 144 301
f 74 305 151
f 74 151 303
f 322 159 305
f 322 305 74
f 74 303 158
f 74 158 318
f 74 318 160
f 74 160 322
f 75 306 152
f 75 152 304
f 305 159 306
f 305 306 75
f 75 304 151
f 75 151 305
f 76 308 153
f 76 153 307
f 319 161 308
f 319 308 76
f 306 159 319
f 306 319 76
f 307 152 306
f 307 306 76
f 77 310 154
f 77 154 309
f 308 161 310
f 308 310 77
f 309 153 308
f 309 308 77
f 78 312 155
f 78 155 311
f 320 162 312
f 320 312 78
f 310 161 320
f 310 320 78
f 311 154 310
f 311 310 78
f 79 314 156
f 79 156 313
f 312 162 314
f 312 314 79
f 313 155 312
f 313 312 79
f 80 316 157
f 80 157 315
f 321 160 316
f 321 316 80
f 315 156 314
f 315 314 80
f 80 314 162
f 80 162 321
f 81 318 158
f 81 158 317
f 316 160 318
f 316 318 81
f 317 157 316
f 317 316 81
f 322 160 321
f 322 321 82
f 82 321 162
f 82 162 320
f 319 159 322
f 319 322 82
f 320 161 319
f 320 319 82
f 173 10 174
f 173 174 84
f 89 163 1
f 89 1 178
f 178 1 180
f 178 180 90
f 175 10 173
f 175 173 93
f 172 10 175
f 172 175 95
f 96 174 10
f 96 10 172
f 176 1 163
f 176 163 97
f 98 180 1
f 98 1 176
