# _2nd_Metatarsal_L posed
v 0.885781 -0.025076 0.297268
v 0.885231 -0.027226 0.299216
v 0.885095 -0.025906 0.300048
v 0.885600 -0.030307 0.297975
v 0.886276 -0.028764 0.295805
v 0.886039 -0.023694 0.297868
v 0.888906 -0.021431 0.296298
v 0.890155 -0.020110 0.300977
v 0.891788 -0.018176 0.299081
v 0.886601 -0.033014 0.297890
v 0.888270 -0.032080 0.295748
v 0.890434 -0.034101 0.297091
v 0.888709 -0.035022 0.299130
v 0.892582 -0.033792 0.298824
v 0.890327 -0.034379 0.300991
v 0.894458 -0.031721 0.300926
v 0.892217 -0.032079 0.302854
v 0.894765 -0.030130 0.305321
v 0.896205 -0.030098 0.303001
v 0.898039 -0.028426 0.305416
v 0.896776 -0.028902 0.307688
v 0.898124 -0.027889 0.309774
v 0.899019 -0.026812 0.307376
v 0.898272 -0.024998 0.308536
v 0.897550 -0.026227 0.310989
v 0.895383 -0.025119 0.310157
v 0.896122 -0.023526 0.308344
v 0.890343 -0.025064 0.306169
v 0.891038 -0.022633 0.304499
v 0.887968 -0.024744 0.303456
v 0.888925 -0.022550 0.302226
v 0.885502 -0.025340 0.301070
v 0.886737 -0.022450 0.299039
v 0.892739 -0.024938 0.308181
v 0.893532 -0.022850 0.306354
v 0.892025 -0.020670 0.302459
v 0.893323 -0.018417 0.300414
v 0.894254 -0.021506 0.303498
v 0.895174 -0.019726 0.301125
v 0.898401 -0.020002 0.302071
v 0.897327 -0.021887 0.305023
v 0.899215 -0.023138 0.305112
v 0.900105 -0.021036 0.302065
v 0.899954 -0.024557 0.304359
v 0.900871 -0.022273 0.301522
v 0.898572 -0.026682 0.302397
v 0.897334 -0.028210 0.300770
v 0.896032 -0.029864 0.298884
v 0.894562 -0.031245 0.296836
v 0.893410 -0.030640 0.295086
v 0.892430 -0.028730 0.294429
v 0.890257 -0.025872 0.294156
v 0.889111 -0.022808 0.295302
v 0.900108 -0.024145 0.299909
v 0.898580 -0.025406 0.298042
v 0.898071 -0.026188 0.296400
v 0.896102 -0.025980 0.293817
v 0.894834 -0.024799 0.293329
v 0.893240 -0.023205 0.293120
v 0.891776 -0.021193 0.293939
v 0.897200 -0.026490 0.294883
v 0.891376 -0.019941 0.295091
v 0.889101 -0.020390 0.298223
v 0.891488 -0.018866 0.297157
v 0.896121 -0.016147 0.297683
v 0.895165 -0.016218 0.296583
v 0.894433 -0.016654 0.295024
v 0.894289 -0.017671 0.293322
v 0.894534 -0.018829 0.291947
v 0.895366 -0.019967 0.291461
v 0.896497 -0.021121 0.291322
v 0.898099 -0.022192 0.292060
v 0.899343 -0.022702 0.292918
v 0.900434 -0.022748 0.294063
v 0.901131 -0.022080 0.295732
v 0.901940 -0.021165 0.297334
v 0.902282 -0.019568 0.298609
v 0.901503 -0.018423 0.299036
v 0.900030 -0.017479 0.298975
v 0.898024 -0.017110 0.298416
v 0.900194 -0.012770 0.294025
v 0.899452 -0.012806 0.293093
v 0.898738 -0.013212 0.291750
v 0.898390 -0.014037 0.290357
v 0.898613 -0.014942 0.289610
v 0.899154 -0.015825 0.289241
v 0.899759 -0.016603 0.288956
v 0.901523 -0.017898 0.289345
v 0.902609 -0.018273 0.290146
v 0.903751 -0.018444 0.291265
v 0.904382 -0.017877 0.292758
v 0.905145 -0.017203 0.294363
v 0.904814 -0.016205 0.295061
v 0.904053 -0.015027 0.295618
v 0.902444 -0.013967 0.295152
v 0.901400 -0.013373 0.294734
v 0.904372 -0.008905 0.290429
v 0.903665 -0.008943 0.289535
v 0.903012 -0.009177 0.288463
v 0.902871 -0.010055 0.287304
v 0.902992 -0.010862 0.286500
v 0.903519 -0.011663 0.286189
v 0.904184 -0.012453 0.285975
v 0.905460 -0.013538 0.286163
v 0.906529 -0.013971 0.286977
v 0.907643 -0.014212 0.288046
v 0.908244 -0.013727 0.289406
v 0.908755 -0.013166 0.290710
v 0.908488 -0.012336 0.291364
v 0.907857 -0.011182 0.291995
v 0.906354 -0.009922 0.291630
v 0.905414 -0.009324 0.291185
v 0.908849 -0.005000 0.287198
v 0.908155 -0.005042 0.286318
v 0.907499 -0.005217 0.285309
v 0.907332 -0.006050 0.284155
v 0.907526 -0.006874 0.283412
v 0.908073 -0.007635 0.283154
v 0.908762 -0.008390 0.283036
v 0.909998 -0.009497 0.283239
v 0.911088 -0.009984 0.284105
v 0.911998 -0.010226 0.284975
v 0.912529 -0.009739 0.286261
v 0.912825 -0.009159 0.287321
v 0.912619 -0.008323 0.288067
v 0.911957 -0.007144 0.288620
v 0.910709 -0.005966 0.288345
v 0.909782 -0.005332 0.287928
v 0.913435 -0.001225 0.284227
v 0.912710 -0.001171 0.283358
v 0.912011 -0.001311 0.282257
v 0.911593 -0.002097 0.280833
v 0.911986 -0.003012 0.280199
v 0.912578 -0.003792 0.279887
v 0.913349 -0.004592 0.279747
v 0.914431 -0.005401 0.280478
v 0.915305 -0.005758 0.281195
v 0.916155 -0.005851 0.282116
v 0.917102 -0.005787 0.283426
v 0.917286 -0.005206 0.284258
v 0.917060 -0.004432 0.284995
v 0.916559 -0.003511 0.285545
v 0.915292 -0.002308 0.285193
v 0.914336 -0.001622 0.284825
v 0.918146 0.002233 0.281044
v 0.917180 0.002733 0.280215
v 0.916222 0.003176 0.279184
v 0.915629 0.002118 0.277670
v 0.915919 0.001080 0.276919
v 0.916468 0.000317 0.276507
v 0.917440 -0.000327 0.276258
v 0.918252 -0.001758 0.277662
v 0.919257 -0.002199 0.278575
v 0.920565 -0.002627 0.279928
v 0.921649 -0.002988 0.280949
v 0.921645 -0.002947 0.282695
v 0.921227 -0.001953 0.283369
v 0.920699 -0.000647 0.283620
v 0.919979 0.000744 0.283103
v 0.919155 0.001735 0.281877
v 0.924051 0.000517 0.282680
v 0.924033 -0.001060 0.282953
v 0.923741 0.001728 0.283398
v 0.924120 -0.002566 0.282985
v 0.925154 0.005339 0.279306
v 0.923574 0.006227 0.277432
v 0.920941 0.002102 0.282604
v 0.922302 0.003001 0.282736
v 0.923410 0.005445 0.279935
v 0.922343 0.005990 0.278864
v 0.920137 0.002507 0.281565
v 0.919050 0.003043 0.280699
v 0.918066 0.003728 0.279881
v 0.917622 0.004371 0.279180
v 0.919401 0.006223 0.277659
v 0.919356 0.005931 0.276342
v 0.917558 0.004962 0.277173
v 0.918087 0.005331 0.278249
v 0.923378 0.004208 0.281580
v 0.924823 0.003209 0.281893
v 0.920550 0.004299 0.279880
v 0.921610 0.003640 0.280910
v 0.919162 0.005021 0.279066
v 0.920829 0.006429 0.277995
v 0.921713 0.006478 0.276504
v 0.917441 0.004013 0.276315
v 0.917740 0.002870 0.275355
v 0.918856 -0.000366 0.275736
v 0.924265 -0.003241 0.282018
v 0.925631 -0.001651 0.280251
v 0.925564 -0.001062 0.281051
v 0.922404 -0.002482 0.279802
v 0.921203 -0.002039 0.279006
v 0.920128 -0.001729 0.277915
v 0.919078 -0.001317 0.276857
v 0.924011 -0.002819 0.279746
v 0.925222 -0.001469 0.277964
v 0.926791 0.002581 0.276817
v 0.926695 0.001465 0.276403
v 0.925384 -0.000122 0.276098
v 0.925124 0.003938 0.274645
v 0.922918 0.003934 0.274015
v 0.920057 0.003005 0.274013
v 0.925557 0.000273 0.281370
v 0.926734 0.003646 0.277379
v 0.924915 0.004915 0.275252
v 0.922709 0.005096 0.274303
v 0.919570 0.004141 0.274438
v 0.919423 0.005124 0.275092
v 0.922383 0.005837 0.274976
v 0.924483 0.005728 0.276062
v 0.926273 0.004628 0.278188
v 0.925518 0.001857 0.281698
v 0.925094 0.002788 0.274462
v 0.923019 0.002862 0.273932
v 0.923309 -0.001082 0.277582
v 0.922273 -0.000643 0.276402
v 0.924354 0.000414 0.275117
v 0.921247 -0.000377 0.275442
v 0.922769 0.000875 0.274533
v 0.921060 0.001487 0.274073
v 0.919580 0.000919 0.274538
v 0.920643 0.002329 0.273941
v 0.918844 0.001288 0.274591
v 0.918199 0.002068 0.274842
v 0.890140 -0.028623 0.303695
v 0.887696 -0.029376 0.301554
v 0.892469 -0.027921 0.306215
v 0.894561 -0.027277 0.308333
v 0.885915 -0.030345 0.299551
v 0.887995 -0.033247 0.299906
v 0.889293 -0.032623 0.301451
v 0.890801 -0.030842 0.303327
v 0.893323 -0.029186 0.305823
v 0.895552 -0.028166 0.308355
v 0.896586 -0.027708 0.309644
v 0.896140 -0.026731 0.310165
v 0.895070 -0.026036 0.309764
v 0.893490 -0.026102 0.308415
v 0.891140 -0.026435 0.306383
v 0.888750 -0.026590 0.303977
v 0.886588 -0.026944 0.301914
v 0.885739 -0.027519 0.300965
v 0.885216 -0.028569 0.299475
v 0.885632 -0.030768 0.298799
v 0.886721 -0.032872 0.298840
f 36 29 35
f 36 35 38
f 38 35 27
f 38 27 41
f 41 27 24
f 41 24 42
f 44 42 24
f 44 24 23
f 46 44 23
f 46 23 20
f 47 46 20
f 47 20 19
f 48 47 19
f 48 19 16
f 51 50 12
f 51 12 11
f 52 51 11
f 52 11 5
f 49 48 16
f 49 16 14
f 49 14 12
f 49 12 50
f 53 52 5
f 53 5 1
f 8 31 29
f 8 29 36
f 53 1 6
f 53 6 7
f 63 33 31
f 63 31 8
f 7 6 33
f 7 33 63
f 62 7 63
f 62 63 64
f 82 81 97
f 82 97 98
f 83 82 98
f 83 98 99
f 84 83 99
f 84 99 100
f 85 84 100
f 85 100 101
f 86 85 101
f 86 101 102
f 87 86 102
f 87 102 103
f 88 87 103
f 88 103 104
f 89 88 104
f 89 104 105
f 90 89 105
f 90 105 106
f 91 90 106
f 91 106 107
f 92 91 107
f 92 107 108
f 93 92 108
f 93 108 109
f 94 93 109
f 94 109 110
f 95 94 110
f 95 110 111
f 96 95 111
f 96 111 112
f 112 97 81
f 112 81 96
f 98 97 113
f 98 113 114
f 99 98 114
f 99 114 115
f 100 99 115
f 100 115 116
f 101 100 116
f 101 116 117
f 102 101 117
f 102 117 118
f 103 102 118
f 103 118 119
f 104 103 119
f 104 119 120
f 105 104 120
f 105 120 121
f 106 105 121
f 106 121 122
f 107 106 122
f 107 122 123
f 108 107 123
f 108 123 124
f 109 108 124
f 109 124 125
f 110 109 125
f 110 125 126
f 111 110 126
f 111 126 127
f 112 111 127
f 112 127 128
f 128 113 97
f 128 97 112
f 114 113 129
f 114 129 130
f 115 114 130
f 115 130 131
f 116 115 131
f 116 131 132
f 117 116 132
f 117 132 133
f 118 117 133
f 118 133 134
f 119 118 134
f 119 134 135
f 120 119 135
f 120 135 136
f 121 120 136
f 121 136 137
f 122 121 137
f 122 137 138
f 123 122 138
f 123 138 139
f 124 123 139
f 124 139 140
f 125 124 140
f 125 140 141
f 126 125 141
f 126 141 142
f 127 126 142
f 127 142 143
f 128 127 143
f 128 143 144
f 144 129 113
f 144 113 128
f 60 53 7
f 60 7 62
f 60 62 68
f 60 68 69
f 69 68 84
f 69 84 85
f 67 68 62
f 67 62 64
f 83 84 68
f 83 68 67
f 64 63 8
f 64 8 9
f 66 67 64
f 66 64 9
f 82 83 67
f 82 67 66
f 37 9 8
f 37 8 36
f 65 66 9
f 65 9 37
f 81 82 66
f 81 66 65
f 37 36 38
f 37 38 39
f 80 65 37
f 80 37 39
f 96 81 65
f 96 65 80
f 40 39 38
f 40 38 41
f 79 80 39
f 79 39 40
f 95 96 80
f 95 80 79
f 40 41 42
f 40 42 43
f 78 79 40
f 78 40 43
f 94 95 79
f 94 79 78
f 45 43 42
f 45 42 44
f 77 78 43
f 77 43 45
f 93 94 78
f 93 78 77
f 54 45 44
f 54 44 46
f 76 77 45
f 76 45 54
f 92 93 77
f 92 77 76
f 55 54 46
f 55 46 47
f 75 76 54
f 75 54 55
f 91 92 76
f 91 76 75
f 56 55 47
f 56 47 48
f 74 75 55
f 74 55 56
f 90 91 75
f 90 75 74
f 61 56 48
f 61 48 49
f 73 74 56
f 73 56 61
f 89 90 74
f 89 74 73
f 61 49 50
f 61 50 57
f 72 73 61
f 72 61 57
f 88 89 73
f 88 73 72
f 58 57 50
f 58 50 51
f 71 72 57
f 71 57 58
f 87 88 72
f 87 72 71
f 59 58 51
f 59 51 52
f 70 71 58
f 70 58 59
f 59 52 53
f 59 53 60
f 59 60 69
f 59 69 70
f 70 69 85
f 70 85 86
f 86 87 71
f 86 71 70
f 142 141 157
f 142 157 158
f 156 157 141
f 156 141 140
f 143 142 158
f 143 158 159
f 144 143 159
f 144 159 160
f 129 144 160
f 129 160 145
f 130 129 145
f 130 145 146
f 131 130 146
f 131 146 147
f 160 159 167
f 160 167 171
f 172 145 160
f 172 160 171
f 146 145 172
f 146 172 173
f 174 147 146
f 174 146 173
f 168 167 159
f 168 159 163
f 182 168 179
f 182 179 169
f 182 171 167
f 182 167 168
f 181 172 171
f 181 171 182
f 183 173 172
f 183 172 181
f 178 174 173
f 178 173 183
f 181 182 169
f 181 169 170
f 183 181 170
f 183 170 184
f 175 178 183
f 175 183 184
f 177 147 174
f 177 174 178
f 132 131 147
f 132 147 148
f 133 132 148
f 133 148 149
f 155 156 140
f 155 140 139
f 154 155 139
f 154 139 138
f 153 154 138
f 153 138 137
f 152 153 137
f 152 137 136
f 164 156 155
f 164 155 189
f 162 157 156
f 162 156 164
f 148 147 177
f 148 177 186
f 161 158 157
f 161 157 162
f 163 159 158
f 163 158 161
f 191 164 189
f 191 189 190
f 204 162 164
f 204 164 191
f 180 163 161
f 180 161 213
f 179 168 163
f 179 163 180
f 213 161 162
f 213 162 204
f 205 204 191
f 205 191 198
f 165 169 179
f 165 179 180
f 165 180 213
f 165 213 212
f 212 213 204
f 212 204 205
f 170 169 165
f 170 165 166
f 166 165 212
f 166 212 211
f 211 212 205
f 211 205 206
f 184 170 166
f 184 166 185
f 185 166 211
f 185 211 210
f 210 211 206
f 210 206 207
f 177 178 175
f 177 175 176
f 176 175 184
f 176 184 185
f 176 185 210
f 176 210 209
f 209 186 177
f 209 177 176
f 209 210 207
f 209 207 208
f 199 198 191
f 199 191 190
f 206 205 198
f 206 198 201
f 207 206 201
f 207 201 202
f 197 190 189
f 197 189 196
f 192 155 154
f 192 154 193
f 196 189 155
f 196 155 192
f 194 193 154
f 194 154 153
f 196 192 193
f 196 193 216
f 199 190 197
f 199 197 200
f 200 197 196
f 200 196 216
f 195 194 153
f 195 153 152
f 216 193 194
f 216 194 217
f 201 198 199
f 201 199 214
f 214 199 200
f 214 200 218
f 200 216 217
f 200 217 218
f 217 194 195
f 217 195 219
f 220 218 217
f 220 217 219
f 215 214 218
f 215 218 220
f 202 201 214
f 202 214 215
f 215 220 221
f 215 221 223
f 221 220 219
f 221 219 222
f 222 219 195
f 222 195 188
f 208 207 202
f 208 202 203
f 187 186 209
f 187 209 208
f 149 148 186
f 149 186 187
f 203 202 215
f 203 215 223
f 135 134 150
f 135 150 151
f 151 152 136
f 151 136 135
f 188 195 152
f 188 152 151
f 224 222 188
f 224 188 151
f 224 223 221
f 224 221 222
f 134 133 149
f 134 149 150
f 150 149 187
f 150 187 225
f 225 224 151
f 225 151 150
f 225 187 208
f 225 208 203
f 225 203 223
f 225 223 224
f 15 13 12
f 15 12 14
f 17 15 14
f 17 14 16
f 232 15 17
f 232 17 233
f 18 17 16
f 18 16 19
f 233 17 18
f 233 18 234
f 21 18 19
f 21 19 20
f 234 18 21
f 234 21 235
f 22 21 20
f 22 20 23
f 236 235 21
f 236 21 22
f 25 22 23
f 25 23 24
f 236 22 25
f 236 25 237
f 26 25 24
f 26 24 27
f 238 237 25
f 238 25 26
f 229 235 236
f 229 236 237
f 34 26 27
f 34 27 35
f 239 229 237
f 239 237 238
f 239 238 26
f 239 26 34
f 34 35 29
f 34 29 28
f 234 235 229
f 234 229 228
f 240 228 229
f 240 229 239
f 240 239 34
f 240 34 28
f 233 234 228
f 233 228 226
f 30 28 29
f 30 29 31
f 226 228 240
f 226 240 241
f 240 28 30
f 240 30 241
f 32 30 31
f 32 31 33
f 232 233 226
f 232 226 227
f 242 227 226
f 242 226 241
f 242 241 30
f 242 30 32
f 32 33 6
f 32 6 3
f 243 242 32
f 243 32 3
f 2 3 6
f 2 6 1
f 244 243 3
f 244 3 2
f 4 2 1
f 4 1 5
f 230 227 242
f 230 242 243
f 244 2 4
f 244 4 245
f 230 243 244
f 230 244 245
f 10 4 5
f 10 5 11
f 10 11 12
f 10 12 13
f 232 227 230
f 232 230 231
f 246 245 4
f 246 4 10
f 246 10 13
f 246 13 231
f 231 13 15
f 231 15 232
f 231 230 245
f 231 245 246
