# _2nd_Metacarpal_R posed
v -0.834417 0.199038 0.430613
v -0.838977 0.200971 0.431051
v -0.840477 0.198864 0.431241
v -0.836265 0.197104 0.431293
v -0.846916 0.199769 0.416896
v -0.849525 0.197286 0.416060
v -0.850471 0.198497 0.419326
v -0.848608 0.200767 0.420194
v -0.844502 0.201342 0.425579
v -0.841720 0.193452 0.422271
v -0.837371 0.194510 0.428046
v -0.846651 0.194291 0.417254
v -0.847447 0.199645 0.426254
v -0.848790 0.195576 0.420484
v -0.841652 0.195893 0.429329
v -0.845543 0.195668 0.424958
v -0.840559 0.201540 0.424308
v -0.843041 0.195501 0.415708
v -0.838444 0.194780 0.420747
v -0.833032 0.195198 0.426827
v -0.830685 0.199875 0.427346
v -0.836263 0.201846 0.422419
v -0.841159 0.200498 0.415799
v -0.838446 0.197282 0.416018
v -0.834031 0.196087 0.419613
v -0.830007 0.196766 0.424567
v -0.824747 0.198112 0.421221
v -0.825765 0.200619 0.422338
v -0.829761 0.202285 0.418833
v -0.833039 0.200808 0.413758
v -0.831421 0.197884 0.413692
v -0.827502 0.196793 0.417122
v -0.816781 0.197932 0.415989
v -0.817727 0.200309 0.416708
v -0.820744 0.201783 0.413670
v -0.823185 0.200462 0.409378
v -0.821693 0.197761 0.409483
v -0.818834 0.196693 0.412281
v -0.808191 0.195877 0.410392
v -0.809190 0.198602 0.411002
v -0.811918 0.200315 0.407731
v -0.814024 0.199038 0.403360
v -0.812624 0.195995 0.403406
v -0.810080 0.194750 0.406424
v -0.800970 0.192394 0.405994
v -0.801562 0.195776 0.406634
v -0.804407 0.198960 0.402834
v -0.806229 0.197336 0.397307
v -0.805431 0.193860 0.397230
v -0.803118 0.192162 0.401273
v -0.797399 0.189320 0.397247
v -0.799480 0.191933 0.392347
v -0.793682 0.187291 0.403598
v -0.799258 0.198168 0.389428
v -0.794868 0.193125 0.405549
v -0.796210 0.196496 0.398463
v -0.843537 0.201067 0.429322
v -0.848997 0.197342 0.422782
v -0.844390 0.197619 0.428737
v -0.848739 0.200646 0.422956
v -0.845796 0.194288 0.421228
v -0.841758 0.194496 0.426168
v -0.838660 0.196309 0.430771
v -0.849845 0.196101 0.417721
v -0.837810 0.198676 0.430165
v -0.839517 0.201391 0.428191
v -0.845351 0.201087 0.421604
v -0.848389 0.198864 0.418338
v -0.847548 0.196385 0.414963
v -0.842294 0.193796 0.418408
v -0.837075 0.193699 0.424220
v -0.834105 0.196107 0.429891
v -0.812509 0.198332 0.414027
v -0.814690 0.200435 0.412441
v -0.817820 0.201032 0.408225
v -0.818156 0.198267 0.405817
v -0.815716 0.196143 0.407649
v -0.812995 0.196102 0.411425
v -0.841777 0.201676 0.419955
v -0.835897 0.202038 0.417772
v -0.827193 0.201939 0.413919
v -0.843356 0.198112 0.415150
v -0.836855 0.199005 0.414417
v -0.827916 0.199232 0.411126
v -0.838821 0.195849 0.417983
v -0.833293 0.196873 0.416700
v -0.825073 0.197135 0.413074
v -0.833653 0.195265 0.422756
v -0.821715 0.197286 0.417074
v -0.829056 0.196705 0.420855
v -0.835514 0.201430 0.427034
v -0.830894 0.201586 0.423466
v -0.831707 0.197501 0.427792
v -0.827743 0.198862 0.424612
v -0.821050 0.199427 0.419679
v -0.823557 0.201625 0.418350
v -0.807520 0.194042 0.401827
v -0.805115 0.193567 0.405891
v -0.809630 0.196486 0.399937
v -0.804381 0.195807 0.409113
v -0.806623 0.198698 0.407086
v -0.809267 0.199312 0.402467
v -0.798783 0.196741 0.403750
v -0.803123 0.195224 0.392174
v -0.801455 0.191320 0.396641
v -0.802358 0.199071 0.397146
v -0.799228 0.189960 0.401859
v -0.796491 0.190131 0.396923
v -0.797100 0.191764 0.406458
v -0.794172 0.190972 0.399368
v -0.796292 0.193794 0.394072
v -0.836791 0.200476 0.430789
v -0.840385 0.200258 0.431015
v -0.838231 0.197558 0.431313
v -0.834573 0.197508 0.431068
v -0.848002 0.197983 0.415771
v -0.850309 0.197553 0.417548
v -0.849712 0.199986 0.420363
v -0.847636 0.200783 0.418841
v -0.841737 0.201627 0.428716
v -0.847003 0.201131 0.422590
v -0.848995 0.195876 0.415910
v -0.839392 0.193704 0.425155
v -0.836081 0.195832 0.430500
v -0.844057 0.193564 0.419613
v -0.844356 0.199736 0.429809
v -0.846470 0.200984 0.426164
v -0.849895 0.199360 0.422802
v -0.850253 0.196777 0.419906
v -0.847941 0.194829 0.419087
v -0.841347 0.197123 0.430802
v -0.839927 0.195134 0.428592
v -0.847348 0.195563 0.422478
v -0.846939 0.197572 0.425726
v -0.843544 0.195740 0.427576
v -0.843758 0.194255 0.423666
v -0.842507 0.201208 0.424801
v -0.843828 0.201386 0.420708
v -0.837467 0.201338 0.427869
v -0.844965 0.194470 0.415865
v -0.840989 0.195072 0.418159
v -0.839851 0.193714 0.421226
v -0.835455 0.194502 0.423506
v -0.834938 0.194602 0.427466
v -0.845690 0.197395 0.414998
v -0.832889 0.196834 0.429022
v -0.832620 0.199441 0.428870
v -0.838529 0.201720 0.423560
v -0.833457 0.201523 0.425575
v -0.839191 0.201876 0.419063
v -0.844085 0.200199 0.416405
v -0.840338 0.198643 0.415125
v -0.840951 0.196471 0.415983
v -0.836359 0.196479 0.417590
v -0.836427 0.195535 0.420257
v -0.831615 0.195975 0.421910
v -0.831547 0.195961 0.425868
v -0.830011 0.198171 0.426421
v -0.824734 0.199335 0.422364
v -0.827677 0.201691 0.420965
v -0.831881 0.202047 0.416047
v -0.832764 0.199174 0.413022
v -0.829525 0.197040 0.415148
v -0.825732 0.197177 0.419328
v -0.816868 0.199118 0.416860
v -0.819055 0.201275 0.415592
v -0.822450 0.201639 0.411251
v -0.822776 0.198966 0.408892
v -0.820309 0.196960 0.410638
v -0.817475 0.197007 0.414278
v -0.808301 0.197196 0.411333
v -0.810498 0.199620 0.409625
v -0.813371 0.200226 0.405207
v -0.813713 0.197400 0.402792
v -0.811384 0.195104 0.404649
v -0.808863 0.194964 0.408545
v -0.800709 0.193907 0.407426
v -0.802972 0.197503 0.404859
v -0.805702 0.198771 0.399689
v -0.806249 0.195564 0.396394
v -0.804258 0.192747 0.399010
v -0.801877 0.191911 0.403692
v -0.820912 0.198231 0.418824
v -0.822065 0.200605 0.419461
v -0.825404 0.202192 0.416381
v -0.828202 0.200801 0.411812
v -0.826709 0.197943 0.411735
v -0.823284 0.196906 0.414939
v -0.812334 0.197072 0.413206
v -0.813408 0.199539 0.413683
v -0.816194 0.201027 0.410626
v -0.818538 0.199872 0.406367
v -0.817064 0.196968 0.406444
v -0.814312 0.195818 0.409334
v -0.804352 0.194332 0.407887
v -0.805270 0.197449 0.408709
v -0.807988 0.199593 0.405094
v -0.809793 0.198075 0.400666
v -0.808676 0.195012 0.400514
v -0.806315 0.193566 0.403699
v -0.833368 0.202072 0.420823
v -0.837362 0.200723 0.415052
v -0.835318 0.197723 0.415225
v -0.831097 0.196514 0.418640
v -0.827832 0.197569 0.423075
v -0.828584 0.200337 0.425067
v -0.800468 0.190585 0.399153
v -0.802367 0.192764 0.394041
v -0.799458 0.190570 0.395285
v -0.796718 0.188293 0.400556
v -0.797729 0.190018 0.404823
v -0.799218 0.195248 0.388684
v -0.803123 0.197505 0.393164
v -0.797905 0.194214 0.405675
v -0.793353 0.189741 0.405396
v -0.801144 0.198991 0.401178
v -0.795191 0.195569 0.400508
v -0.796421 0.197801 0.394872
v -0.797117 0.191689 0.394692
v -0.794270 0.188705 0.399096
v -0.835744 0.197939 0.430678
v -0.835551 0.198890 0.430667
v -0.837017 0.199771 0.430589
v -0.838581 0.200343 0.430965
v -0.839462 0.199626 0.430643
v -0.839593 0.198845 0.430827
v -0.838240 0.197930 0.430726
v -0.836691 0.197508 0.430958
v -0.847976 0.200056 0.418503
v -0.847597 0.199407 0.417324
v -0.847987 0.198339 0.416772
v -0.849093 0.197753 0.416773
v -0.849478 0.198045 0.417908
v -0.849819 0.198630 0.418860
v -0.849246 0.199492 0.419474
v -0.848700 0.200277 0.419436
v -0.794280 0.194287 0.403612
v -0.798057 0.198869 0.399510
v -0.798799 0.199530 0.395631
v -0.797750 0.191623 0.393073
v -0.793001 0.187163 0.401279
v -0.792652 0.189861 0.403031
v -0.795842 0.192428 0.397074
v -0.797019 0.197779 0.401357
v -0.796144 0.194721 0.389166
v -0.796041 0.197706 0.389028
v -0.842737 0.201450 0.428995
v -0.845097 0.201115 0.427827
v -0.845539 0.201265 0.425916
v -0.843171 0.201546 0.427159
v -0.844213 0.201436 0.427500
v -0.847714 0.200845 0.424531
v -0.847872 0.200975 0.422864
v -0.845805 0.201220 0.424048
v -0.846782 0.201127 0.424355
v -0.843478 0.201230 0.425159
v -0.841031 0.201341 0.426482
v -0.840632 0.201556 0.428434
v -0.842087 0.201421 0.426779
v -0.846153 0.201108 0.422123
v -0.843950 0.201132 0.423188
v -0.844850 0.201137 0.423611
v -0.842752 0.194339 0.424923
v -0.840615 0.194029 0.425623
v -0.840543 0.193523 0.423694
v -0.842770 0.193761 0.422958
v -0.841680 0.193848 0.424284
v -0.838170 0.193589 0.424676
v -0.838397 0.193605 0.422662
v -0.840656 0.193395 0.421657
v -0.839390 0.193423 0.423131
v -0.842875 0.193457 0.420916
v -0.844962 0.193841 0.420419
v -0.844767 0.194228 0.422427
v -0.843853 0.193749 0.421666
v -0.841150 0.193778 0.419825
v -0.843107 0.193513 0.418899
v -0.841882 0.193419 0.420258
v -0.840798 0.194752 0.427381
v -0.838694 0.194757 0.428284
v -0.838325 0.194033 0.426614
v -0.839613 0.194328 0.426955
v -0.839197 0.195663 0.429806
v -0.837339 0.195992 0.430643
v -0.836566 0.195127 0.429412
v -0.837886 0.195325 0.429595
v -0.836099 0.194468 0.427766
v -0.835889 0.194047 0.425878
v -0.837053 0.193942 0.426247
v -0.834989 0.195882 0.430239
v -0.834337 0.195313 0.428818
v -0.835373 0.195136 0.429143
v -0.847335 0.194498 0.418172
v -0.846859 0.194475 0.420097
v -0.845322 0.193821 0.418364
v -0.846130 0.194077 0.419236
v -0.849466 0.195907 0.416752
v -0.849000 0.195384 0.418266
v -0.847972 0.195020 0.416396
v -0.848521 0.195133 0.417302
v -0.845861 0.194269 0.416440
v -0.846440 0.195344 0.415148
v -0.848342 0.196038 0.415299
v -0.847283 0.195086 0.415645
v -0.843545 0.193975 0.417022
v -0.844438 0.193765 0.417580
v -0.848027 0.197485 0.424249
v -0.849657 0.198382 0.422778
v -0.848828 0.199548 0.424508
v -0.847353 0.198642 0.426037
v -0.848621 0.198552 0.424399
v -0.849509 0.200115 0.422896
v -0.847135 0.200440 0.426289
v -0.848470 0.200320 0.424567
v -0.844472 0.198720 0.429392
v -0.845740 0.197641 0.427259
v -0.845991 0.199770 0.428158
v -0.845997 0.198746 0.427795
v -0.844061 0.200510 0.429695
v -0.845694 0.200563 0.428113
v -0.849803 0.197098 0.421291
v -0.848184 0.196392 0.422723
v -0.848210 0.195544 0.421328
v -0.849536 0.196046 0.420238
v -0.849032 0.196253 0.421424
v -0.846569 0.194863 0.421952
v -0.848476 0.195220 0.419898
v -0.847525 0.194963 0.420840
v -0.850190 0.196417 0.418743
v -0.849433 0.195720 0.419221
v -0.844087 0.196604 0.428160
v -0.842872 0.197438 0.430003
v -0.841546 0.196383 0.430090
v -0.842468 0.195810 0.428664
v -0.842805 0.196545 0.429360
v -0.839968 0.196717 0.430944
v -0.840940 0.195545 0.429037
v -0.840387 0.196052 0.430104
v -0.842752 0.195053 0.426867
v -0.841773 0.195235 0.427988
v -0.844577 0.195702 0.426292
v -0.846312 0.196568 0.425389
v -0.845257 0.196607 0.426792
v -0.844685 0.194895 0.424360
v -0.843729 0.194952 0.425633
v -0.846457 0.195614 0.423689
v -0.845626 0.194855 0.423130
v -0.847275 0.196495 0.424038
v -0.844604 0.201186 0.421127
v -0.842188 0.201551 0.422530
v -0.841524 0.201314 0.424534
v -0.843064 0.201275 0.422832
v -0.842880 0.201553 0.420329
v -0.840154 0.201788 0.421783
v -0.839557 0.201654 0.423981
v -0.841211 0.201697 0.422178
v -0.839004 0.201555 0.426110
v -0.838469 0.201330 0.428048
v -0.840000 0.201401 0.426290
v -0.837021 0.201715 0.425375
v -0.836486 0.201377 0.427531
v -0.838014 0.201665 0.425820
v -0.841694 0.194418 0.418212
v -0.842038 0.195220 0.416869
v -0.844001 0.194917 0.415650
v -0.842766 0.194517 0.416819
v -0.840020 0.195546 0.418106
v -0.839869 0.196076 0.416913
v -0.842030 0.196014 0.415845
v -0.841036 0.195713 0.416917
v -0.844410 0.196301 0.415043
v -0.846667 0.196881 0.414908
v -0.845458 0.195786 0.414980
v -0.842208 0.197177 0.415355
v -0.844600 0.197796 0.415085
v -0.843351 0.196764 0.415192
v -0.836210 0.194037 0.423834
v -0.836978 0.194603 0.422081
v -0.839207 0.194259 0.420968
v -0.837692 0.194085 0.422359
v -0.834607 0.194919 0.423154
v -0.835062 0.195345 0.421427
v -0.837482 0.195188 0.420510
v -0.836089 0.195019 0.421768
v -0.837678 0.195690 0.419108
v -0.839771 0.194923 0.419445
v -0.838813 0.195369 0.419299
v -0.840525 0.194356 0.419596
v -0.833440 0.196452 0.429496
v -0.832720 0.195942 0.428053
v -0.833919 0.194861 0.427168
v -0.833461 0.195599 0.428466
v -0.832338 0.197178 0.428436
v -0.831449 0.196662 0.426953
v -0.832261 0.195570 0.426396
v -0.832080 0.196298 0.427543
v -0.832363 0.195471 0.424351
v -0.834020 0.194688 0.425190
v -0.833185 0.195080 0.424802
v -0.834895 0.194317 0.425534
v -0.833920 0.200558 0.428289
v -0.834525 0.201482 0.426386
v -0.831921 0.200805 0.426760
v -0.831662 0.199651 0.428168
v -0.832937 0.200682 0.427601
v -0.832249 0.201551 0.424591
v -0.829633 0.201035 0.424481
v -0.829687 0.200113 0.426293
v -0.830836 0.200923 0.425703
v -0.830930 0.197829 0.427139
v -0.831987 0.198421 0.428569
v -0.830156 0.198988 0.427122
v -0.831112 0.198696 0.427889
v -0.827995 0.199595 0.425053
v -0.828959 0.198526 0.425575
v -0.829138 0.199300 0.426165
v -0.840558 0.201779 0.419545
v -0.837736 0.201954 0.420778
v -0.837452 0.201776 0.423043
v -0.839008 0.201867 0.421326
v -0.837636 0.201970 0.418474
v -0.834674 0.202170 0.419326
v -0.834904 0.201948 0.421674
v -0.836295 0.202063 0.420108
v -0.834877 0.201788 0.424065
v -0.836000 0.201751 0.424790
v -0.832125 0.201903 0.422222
v -0.833583 0.201835 0.423202
v -0.844073 0.199159 0.415466
v -0.841920 0.198393 0.415190
v -0.841024 0.199547 0.415155
v -0.842708 0.200360 0.416108
v -0.842628 0.199365 0.415334
v -0.838657 0.198850 0.414867
v -0.837313 0.199844 0.414480
v -0.839355 0.200625 0.415467
v -0.839243 0.199712 0.414882
v -0.840455 0.201343 0.417244
v -0.843213 0.201101 0.418024
v -0.841917 0.201231 0.417650
v -0.836851 0.201513 0.416242
v -0.838751 0.201444 0.416788
v -0.837645 0.196185 0.417832
v -0.837424 0.196817 0.416737
v -0.839769 0.196910 0.416074
v -0.838704 0.196470 0.416882
v -0.834911 0.196709 0.417222
v -0.834345 0.197242 0.415897
v -0.836968 0.197549 0.415731
v -0.835975 0.197073 0.416413
v -0.839439 0.197887 0.415452
v -0.840896 0.197559 0.415476
v -0.836169 0.198302 0.414702
v -0.837874 0.198133 0.415188
v -0.832677 0.195618 0.422350
v -0.832794 0.195956 0.420705
v -0.835290 0.195835 0.419969
v -0.833978 0.195659 0.421088
v -0.830421 0.196352 0.421422
v -0.830018 0.196529 0.419722
v -0.832640 0.196315 0.419179
v -0.831483 0.196254 0.420260
v -0.835227 0.196251 0.418563
v -0.836513 0.195997 0.418876
v -0.832200 0.196630 0.417623
v -0.833793 0.196463 0.418156
v -0.829889 0.197418 0.425591
v -0.830822 0.196358 0.425247
v -0.830734 0.197035 0.426302
v -0.827670 0.198178 0.423946
v -0.829025 0.197182 0.423851
v -0.828877 0.197810 0.424809
v -0.830624 0.196261 0.423269
v -0.831533 0.195862 0.423834
v -0.828307 0.197063 0.422010
v -0.829563 0.196676 0.422671
v -0.826332 0.199140 0.423546
v -0.824614 0.198702 0.421912
v -0.826404 0.197887 0.422207
v -0.826244 0.198484 0.422987
v -0.822968 0.199430 0.421059
v -0.820860 0.198818 0.419383
v -0.822889 0.198224 0.420095
v -0.822802 0.198812 0.420705
v -0.821200 0.197705 0.418035
v -0.823776 0.197275 0.418292
v -0.825124 0.197591 0.420343
v -0.823217 0.197698 0.419274
v -0.827496 0.196984 0.420171
v -0.826827 0.197375 0.421245
v -0.829390 0.201644 0.422244
v -0.826660 0.201197 0.421782
v -0.827285 0.200512 0.423739
v -0.828257 0.201134 0.423159
v -0.825708 0.201686 0.419665
v -0.822761 0.201149 0.419015
v -0.824021 0.200645 0.420890
v -0.824813 0.201200 0.420390
v -0.821473 0.200027 0.419694
v -0.825117 0.199985 0.422523
v -0.823389 0.200048 0.421119
v -0.826656 0.199831 0.423837
v -0.833985 0.202060 0.416959
v -0.830871 0.202291 0.417466
v -0.831662 0.202200 0.419884
v -0.832872 0.202253 0.418447
v -0.829584 0.202011 0.415044
v -0.826348 0.202181 0.415168
v -0.827655 0.202280 0.417651
v -0.828668 0.202266 0.416371
v -0.824454 0.201990 0.417459
v -0.828702 0.202069 0.419992
v -0.826660 0.202067 0.418753
v -0.830513 0.201998 0.421150
v -0.834901 0.199106 0.413797
v -0.833068 0.199985 0.413185
v -0.835261 0.200777 0.414489
v -0.835262 0.199928 0.413917
v -0.830422 0.199227 0.412114
v -0.828211 0.200021 0.411278
v -0.830676 0.200831 0.412855
v -0.830710 0.200031 0.412288
v -0.827841 0.201463 0.412744
v -0.832628 0.201527 0.414757
v -0.830280 0.201515 0.413819
v -0.834815 0.201533 0.415565
v -0.831500 0.196974 0.416003
v -0.830514 0.197398 0.414344
v -0.833476 0.197825 0.414533
v -0.832530 0.197340 0.415197
v -0.827369 0.197100 0.414160
v -0.825926 0.197472 0.412331
v -0.829147 0.197926 0.412745
v -0.828297 0.197446 0.413376
v -0.827393 0.198532 0.411306
v -0.832192 0.198473 0.413222
v -0.829878 0.198520 0.412296
v -0.834284 0.198407 0.414036
v -0.826550 0.196908 0.418229
v -0.822436 0.197018 0.416009
v -0.825447 0.196875 0.416106
v -0.824544 0.196998 0.417205
v -0.829387 0.196673 0.417962
v -0.828377 0.196750 0.419058
v -0.824179 0.196945 0.413950
v -0.828508 0.196837 0.416084
v -0.826405 0.196909 0.415079
v -0.830441 0.196749 0.416933
v -0.816723 0.198511 0.416547
v -0.814688 0.198781 0.415440
v -0.812319 0.197689 0.413759
v -0.814557 0.197562 0.414594
v -0.814522 0.198159 0.415149
v -0.819003 0.199329 0.418276
v -0.818889 0.198145 0.417426
v -0.818836 0.198724 0.417977
v -0.812562 0.196521 0.412401
v -0.815228 0.196613 0.412854
v -0.817030 0.197412 0.415211
v -0.814793 0.197026 0.413805
v -0.819627 0.197215 0.415709
v -0.819154 0.197625 0.416649
v -0.818342 0.200836 0.416262
v -0.816850 0.200886 0.414023
v -0.814018 0.200027 0.413145
v -0.815555 0.199968 0.415199
v -0.816162 0.200469 0.414709
v -0.821312 0.201507 0.417017
v -0.819931 0.200509 0.418099
v -0.820570 0.201048 0.417671
v -0.812889 0.198963 0.413991
v -0.817219 0.199727 0.416912
v -0.815048 0.199395 0.415452
v -0.819389 0.199930 0.418309
v -0.821657 0.201826 0.412468
v -0.820117 0.201369 0.409762
v -0.817053 0.201151 0.409442
v -0.818441 0.201424 0.412163
v -0.819333 0.201515 0.410973
v -0.824810 0.201823 0.412648
v -0.823081 0.202034 0.415066
v -0.824002 0.202042 0.413868
v -0.815407 0.200776 0.411615
v -0.819863 0.201593 0.414722
v -0.817608 0.201207 0.413180
v -0.822164 0.201845 0.416134
v -0.823098 0.199705 0.408965
v -0.820416 0.198655 0.407417
v -0.818466 0.199068 0.405921
v -0.820825 0.200197 0.407918
v -0.820736 0.199418 0.407499
v -0.825315 0.199154 0.410093
v -0.825670 0.200672 0.410666
v -0.825626 0.199911 0.410199
v -0.818325 0.200571 0.407161
v -0.822970 0.201150 0.410175
v -0.820623 0.200892 0.408702
v -0.825386 0.201342 0.411527
v -0.821023 0.197302 0.410001
v -0.817983 0.196614 0.409186
v -0.816404 0.196496 0.406989
v -0.819339 0.197421 0.408025
v -0.818679 0.196960 0.408549
v -0.822694 0.197114 0.411919
v -0.824182 0.197915 0.410686
v -0.823466 0.197452 0.411236
v -0.817667 0.197560 0.406023
v -0.822292 0.198315 0.409091
v -0.819934 0.197986 0.407621
v -0.824815 0.198484 0.410281
v -0.818105 0.196771 0.413269
v -0.813608 0.195872 0.410365
v -0.816559 0.196316 0.410824
v -0.815847 0.196380 0.411825
v -0.821078 0.196870 0.413658
v -0.820296 0.196965 0.414680
v -0.815018 0.195914 0.408427
v -0.819575 0.196757 0.411399
v -0.817275 0.196397 0.409942
v -0.821889 0.196920 0.412730
v -0.810372 0.197795 0.412640
v -0.808142 0.196503 0.411007
v -0.810218 0.196511 0.411788
v -0.810192 0.197132 0.412359
v -0.806309 0.196552 0.410160
v -0.804255 0.195007 0.408659
v -0.806229 0.195153 0.409080
v -0.806162 0.195805 0.409767
v -0.804652 0.193848 0.406943
v -0.806938 0.194299 0.407173
v -0.808439 0.195347 0.409546
v -0.806499 0.194639 0.408192
v -0.810876 0.195557 0.409976
v -0.810451 0.195966 0.410967
v -0.812563 0.200019 0.410979
v -0.809818 0.199157 0.410400
v -0.811274 0.199083 0.412280
v -0.811891 0.199593 0.411712
v -0.808520 0.199197 0.408340
v -0.805925 0.198114 0.407977
v -0.807193 0.198080 0.409832
v -0.807832 0.198685 0.409175
v -0.804736 0.196653 0.409117
v -0.808667 0.197923 0.411326
v -0.806668 0.197341 0.410177
v -0.810750 0.198465 0.412604
v -0.815566 0.200651 0.406688
v -0.812691 0.200403 0.406479
v -0.814016 0.200662 0.409145
v -0.814835 0.200783 0.407934
v -0.811258 0.199760 0.403820
v -0.808684 0.199607 0.403776
v -0.809910 0.199961 0.406379
v -0.810636 0.200000 0.405098
v -0.807303 0.199240 0.406165
v -0.811190 0.200028 0.408761
v -0.809206 0.199657 0.407437
v -0.813262 0.200388 0.410145
v -0.815913 0.197841 0.404263
v -0.813986 0.198226 0.402910
v -0.816267 0.199481 0.404821
v -0.816210 0.198664 0.404372
v -0.811596 0.196956 0.401396
v -0.809809 0.197294 0.400147
v -0.811844 0.198562 0.402028
v -0.811830 0.197771 0.401555
v -0.809625 0.198775 0.401430
v -0.813821 0.199741 0.404140
v -0.811659 0.199254 0.402784
v -0.816052 0.200184 0.405616
v -0.813506 0.195629 0.406126
v -0.812009 0.195481 0.403961
v -0.814810 0.196482 0.404893
v -0.814168 0.195991 0.405448
v -0.809379 0.194588 0.403230
v -0.808104 0.194459 0.401097
v -0.810561 0.195518 0.401980
v -0.809974 0.194984 0.402536
v -0.809220 0.195705 0.400092
v -0.813224 0.196643 0.402987
v -0.811138 0.196188 0.401568
v -0.815418 0.197104 0.404468
v -0.809434 0.194773 0.407474
v -0.812144 0.195294 0.407862
v -0.811467 0.195338 0.408907
v -0.805692 0.193489 0.404785
v -0.808134 0.194178 0.405030
v -0.807505 0.194157 0.406091
v -0.806925 0.193749 0.402702
v -0.810737 0.194861 0.405474
v -0.808764 0.194322 0.404067
v -0.812829 0.195394 0.406930
v -0.802509 0.194907 0.408184
v -0.800721 0.193051 0.406929
v -0.802589 0.193409 0.406847
v -0.802433 0.194078 0.407700
v -0.798966 0.192867 0.406884
v -0.797234 0.190710 0.405927
v -0.799465 0.191294 0.405346
v -0.799091 0.191957 0.406372
v -0.798453 0.189821 0.403382
v -0.800519 0.190959 0.402764
v -0.801363 0.192029 0.404884
v -0.799951 0.190985 0.404094
v -0.803414 0.192778 0.404730
v -0.802928 0.192981 0.405834
v -0.804796 0.198089 0.405858
v -0.802241 0.196648 0.405782
v -0.803404 0.196652 0.407594
v -0.804081 0.197396 0.406782
v -0.799722 0.194931 0.405981
v -0.797407 0.192977 0.406284
v -0.801018 0.194842 0.407263
v -0.799218 0.193879 0.406659
v -0.802854 0.195797 0.408114
v -0.807424 0.198956 0.401083
v -0.805121 0.199080 0.401305
v -0.806150 0.199223 0.403889
v -0.806848 0.199271 0.402499
v -0.803688 0.198356 0.403954
v -0.805472 0.198764 0.404956
v -0.807857 0.195988 0.398275
v -0.806323 0.196464 0.396635
v -0.807916 0.197629 0.399103
v -0.807972 0.196820 0.398518
v -0.804739 0.195315 0.394317
v -0.803230 0.196432 0.392239
v -0.804700 0.197304 0.395286
v -0.804818 0.196344 0.394504
v -0.802813 0.198425 0.394942
v -0.804051 0.198822 0.398334
v -0.806047 0.198144 0.398334
v -0.804451 0.198171 0.396617
v -0.807758 0.198374 0.399949
v -0.805822 0.193430 0.400401
v -0.804851 0.193224 0.398039
v -0.806993 0.194447 0.398915
v -0.806417 0.193868 0.399577
v -0.802804 0.192009 0.397728
v -0.801914 0.191909 0.395334
v -0.803901 0.193290 0.395545
v -0.803349 0.192546 0.396575
v -0.802805 0.193930 0.392879
v -0.805928 0.194666 0.396634
v -0.804402 0.194252 0.394725
v -0.807505 0.195174 0.398441
v -0.802489 0.191979 0.402478
v -0.804635 0.192897 0.402444
v -0.804008 0.192769 0.403582
v -0.799897 0.190247 0.400456
v -0.801767 0.191367 0.400187
v -0.801150 0.191117 0.401460
v -0.800978 0.190915 0.397900
v -0.803695 0.192407 0.400103
v -0.802298 0.191642 0.398939
v -0.805235 0.193113 0.401369
v -0.833540 0.199241 0.429599
v -0.833353 0.197816 0.429923
v -0.832748 0.198149 0.429270
v -0.835866 0.200447 0.429380
v -0.834893 0.200448 0.428893
v -0.834228 0.196896 0.430659
v -0.834263 0.198046 0.430893
v -0.833741 0.197332 0.430351
v -0.837918 0.201016 0.429765
v -0.835771 0.199939 0.430664
v -0.836876 0.200702 0.429614
v -0.795197 0.190220 0.397941
v -0.836144 0.199283 0.430558
v -0.796619 0.191822 0.395718
v -0.796145 0.191036 0.396873
v -0.840168 0.201372 0.430126
v -0.837904 0.200853 0.430946
v -0.839056 0.201289 0.429948
v -0.837961 0.200165 0.430782
v -0.795297 0.193822 0.398715
v -0.795089 0.191696 0.398103
v -0.839818 0.200729 0.431038
v -0.841793 0.200701 0.430423
v -0.841104 0.201147 0.430259
v -0.839065 0.200077 0.430794
v -0.796470 0.197585 0.400002
v -0.795759 0.196018 0.399441
v -0.842447 0.199378 0.430784
v -0.840651 0.199691 0.431094
v -0.842202 0.200130 0.430673
v -0.840989 0.197980 0.431151
v -0.842717 0.198431 0.430523
v -0.839660 0.199185 0.430688
v -0.797220 0.198635 0.397572
v -0.796930 0.198021 0.398974
v -0.838809 0.199167 0.430263
v -0.837478 0.199237 0.430204
v -0.838446 0.199684 0.430377
v -0.839277 0.198076 0.431315
v -0.838357 0.197004 0.431234
v -0.839583 0.197462 0.431303
v -0.838093 0.198213 0.430351
v -0.839109 0.198420 0.430726
v -0.839033 0.198714 0.430402
v -0.796176 0.195143 0.396448
v -0.795866 0.194420 0.397723
v -0.836052 0.196543 0.431098
v -0.837238 0.197231 0.431319
v -0.837177 0.196683 0.431181
v -0.835307 0.197196 0.431205
v -0.835027 0.196620 0.430916
v -0.796246 0.193157 0.395859
v -0.835556 0.198441 0.430610
v -0.796456 0.197204 0.397134
v -0.837359 0.197621 0.430834
v -0.836733 0.198232 0.430308
v -0.836232 0.197618 0.430811
v -0.837101 0.197838 0.430494
v -0.836467 0.198773 0.430298
v -0.797079 0.196833 0.387511
v -0.797295 0.198888 0.391670
v -0.797162 0.198165 0.388579
v -0.845403 0.200000 0.416688
v -0.846485 0.198529 0.415591
v -0.845374 0.198908 0.415581
v -0.845440 0.200850 0.418793
v -0.844413 0.200950 0.418384
v -0.846683 0.201000 0.420017
v -0.847232 0.200466 0.418079
v -0.846117 0.200922 0.419382
v -0.847498 0.198676 0.416087
v -0.847964 0.197322 0.415270
v -0.847272 0.197920 0.415395
v -0.797352 0.199060 0.395240
v -0.847660 0.198914 0.417048
v -0.795672 0.196189 0.391180
v -0.796040 0.197939 0.391401
v -0.849461 0.196675 0.415844
v -0.848757 0.197510 0.415746
v -0.848744 0.196891 0.415401
v -0.848562 0.197924 0.416716
v -0.796132 0.195786 0.394367
v -0.795688 0.196528 0.388408
v -0.850028 0.197327 0.416731
v -0.850276 0.196896 0.417515
v -0.849950 0.196695 0.416602
v -0.849272 0.197827 0.417271
v -0.801008 0.198814 0.393472
v -0.799111 0.199082 0.392339
v -0.850568 0.197622 0.419570
v -0.850455 0.197893 0.418331
v -0.850517 0.197218 0.418448
v -0.850401 0.198960 0.421016
v -0.850304 0.198039 0.421087
v -0.849686 0.198345 0.418475
v -0.801350 0.196660 0.390013
v -0.801309 0.197856 0.391103
v -0.848866 0.198358 0.418143
v -0.848120 0.198552 0.417528
v -0.848634 0.198093 0.417416
v -0.850146 0.199356 0.419981
v -0.849422 0.200322 0.421476
v -0.850048 0.199733 0.421244
v -0.848757 0.199177 0.419016
v -0.849577 0.198981 0.419184
v -0.849182 0.198676 0.418763
v -0.799229 0.196871 0.388258
v -0.796762 0.192793 0.392549
v -0.847986 0.200980 0.421233
v -0.849172 0.200462 0.420449
v -0.848706 0.200737 0.421493
v -0.848099 0.200878 0.419593
v -0.847309 0.201047 0.420685
v -0.796032 0.194281 0.391494
v -0.847695 0.199719 0.417852
v -0.796739 0.192452 0.394309
v -0.848919 0.199969 0.419533
v -0.848055 0.199465 0.418489
v -0.848362 0.200240 0.419072
v -0.848448 0.199727 0.419105
v -0.847791 0.199143 0.417739
v -0.797948 0.193249 0.390165
v -0.797343 0.195078 0.388244
v -0.797042 0.193022 0.390954
v -0.802756 0.198906 0.401978
v -0.801824 0.199284 0.399309
v -0.803481 0.199109 0.400236
v -0.796166 0.193678 0.405668
v -0.794101 0.191747 0.405678
v -0.795029 0.190599 0.406013
v -0.795586 0.192217 0.406063
v -0.793114 0.188083 0.404781
v -0.795538 0.188517 0.404310
v -0.794977 0.189256 0.405451
v -0.798776 0.190152 0.395932
v -0.800247 0.190797 0.395822
v -0.799091 0.189888 0.398148
v -0.799708 0.190342 0.396972
v -0.796934 0.188533 0.399272
v -0.795262 0.187593 0.401814
v -0.792913 0.186878 0.402538
v -0.794791 0.187814 0.399483
v -0.794730 0.187413 0.400675
v -0.797898 0.188982 0.400962
v -0.798589 0.189420 0.399486
v -0.793598 0.187887 0.400017
v -0.795302 0.189238 0.398140
v -0.796683 0.189550 0.397012
v -0.795050 0.188439 0.398654
v -0.799459 0.190978 0.394114
v -0.800842 0.192296 0.392917
v -0.800587 0.191378 0.394469
v -0.796709 0.188547 0.402652
v -0.792606 0.189570 0.404441
v -0.792470 0.187950 0.402420
v -0.792355 0.187700 0.403774
v -0.793278 0.190333 0.401170
v -0.794099 0.189399 0.399165
v -0.793136 0.188573 0.400761
v -0.794501 0.193703 0.404932
v -0.793167 0.192197 0.403379
v -0.793298 0.191821 0.404811
v -0.798352 0.195393 0.404895
v -0.801068 0.197066 0.404255
v -0.800344 0.195985 0.405165
v -0.796189 0.195648 0.403772
v -0.796288 0.194756 0.404911
v -0.800229 0.198147 0.402588
v -0.801930 0.198143 0.403262
v -0.800548 0.199412 0.396249
v -0.798466 0.199356 0.397963
v -0.799527 0.199083 0.400301
v -0.800085 0.199467 0.398542
v -0.794552 0.193267 0.399880
v -0.794596 0.194949 0.401991
v -0.793719 0.192698 0.401564
v -0.797609 0.197477 0.402356
v -0.797477 0.198361 0.400638
v -0.798734 0.198391 0.401602
v -0.796092 0.197124 0.401032
v -0.796032 0.196467 0.402366
v -0.798442 0.191714 0.392455
v -0.797856 0.190485 0.394996
v -0.798565 0.190667 0.394400
v -0.797061 0.191025 0.395708
v -0.797358 0.191645 0.393964
v -0.797402 0.190610 0.395440
v -0.799365 0.193459 0.390297
v -0.801237 0.195238 0.390153
v -0.801066 0.193670 0.391300
f 250 251 247
f 250 247 120
f 251 248 57
f 251 57 247
f 249 127 248
f 249 248 251
f 9 249 251
f 9 251 250
f 254 255 249
f 254 249 9
f 255 252 127
f 255 127 249
f 253 60 252
f 253 252 255
f 121 253 255
f 121 255 254
f 250 259 256
f 250 256 9
f 259 257 137
f 259 137 256
f 258 66 257
f 258 257 259
f 120 258 259
f 120 259 250
f 254 262 260
f 254 260 121
f 262 261 67
f 262 67 260
f 256 137 261
f 256 261 262
f 9 256 262
f 9 262 254
f 266 267 263
f 266 263 136
f 267 264 62
f 267 62 263
f 265 123 264
f 265 264 267
f 10 265 267
f 10 267 266
f 270 271 265
f 270 265 10
f 271 268 123
f 271 123 265
f 269 71 268
f 269 268 271
f 142 269 271
f 142 271 270
f 266 275 272
f 266 272 10
f 275 273 125
f 275 125 272
f 274 61 273
f 274 273 275
f 136 274 275
f 136 275 266
f 270 278 276
f 270 276 142
f 278 277 70
f 278 70 276
f 272 125 277
f 272 277 278
f 10 272 278
f 10 278 270
f 281 282 264
f 281 264 123
f 282 279 62
f 282 62 264
f 280 132 279
f 280 279 282
f 11 280 282
f 11 282 281
f 285 286 280
f 285 280 11
f 286 283 132
f 286 132 280
f 284 63 283
f 284 283 286
f 124 284 286
f 124 286 285
f 281 289 287
f 281 287 11
f 289 288 144
f 289 144 287
f 268 71 288
f 268 288 289
f 123 268 289
f 123 289 281
f 285 292 290
f 285 290 124
f 292 291 72
f 292 72 290
f 287 144 291
f 287 291 292
f 11 287 292
f 11 292 285
f 295 296 293
f 295 293 12
f 296 294 130
f 296 130 293
f 273 61 294
f 273 294 296
f 125 273 296
f 125 296 295
f 299 300 297
f 299 297 122
f 300 298 64
f 300 64 297
f 293 130 298
f 293 298 300
f 12 293 300
f 12 300 299
f 299 304 301
f 299 301 12
f 304 302 140
f 304 140 301
f 303 69 302
f 303 302 304
f 122 303 304
f 122 304 299
f 295 306 277
f 295 277 125
f 306 305 70
f 306 70 277
f 301 140 305
f 301 305 306
f 12 301 306
f 12 306 295
f 310 311 307
f 310 307 134
f 311 308 58
f 311 58 307
f 309 128 308
f 309 308 311
f 13 309 311
f 13 311 310
f 313 314 309
f 313 309 13
f 314 312 128
f 314 128 309
f 252 60 312
f 252 312 314
f 127 252 314
f 127 314 313
f 317 318 315
f 317 315 126
f 318 316 59
f 318 59 315
f 310 134 316
f 310 316 318
f 13 310 318
f 13 318 317
f 313 320 248
f 313 248 127
f 320 319 57
f 320 57 248
f 317 126 319
f 317 319 320
f 13 317 320
f 13 320 313
f 324 325 321
f 324 321 129
f 325 322 58
f 325 58 321
f 323 133 322
f 323 322 325
f 14 323 325
f 14 325 324
f 327 328 323
f 327 323 14
f 328 326 133
f 328 133 323
f 294 61 326
f 294 326 328
f 130 294 328
f 130 328 327
f 327 330 298
f 327 298 130
f 330 329 64
f 330 64 298
f 324 129 329
f 324 329 330
f 14 324 330
f 14 330 327
f 334 335 331
f 334 331 135
f 335 332 59
f 335 59 331
f 333 131 332
f 333 332 335
f 15 333 335
f 15 335 334
f 337 338 333
f 337 333 15
f 338 336 131
f 338 131 333
f 283 63 336
f 283 336 338
f 132 283 338
f 132 338 337
f 334 340 337
f 334 337 15
f 340 279 132
f 340 132 337
f 339 62 279
f 339 279 340
f 135 339 340
f 135 340 334
f 342 343 316
f 342 316 134
f 343 331 59
f 343 59 316
f 341 135 331
f 341 331 343
f 16 341 343
f 16 343 342
f 344 345 341
f 344 341 16
f 345 339 135
f 345 135 341
f 263 62 339
f 263 339 345
f 136 263 345
f 136 345 344
f 346 347 344
f 346 344 16
f 347 274 136
f 347 136 344
f 326 61 274
f 326 274 347
f 133 326 347
f 133 347 346
f 342 348 346
f 342 346 16
f 348 322 133
f 348 133 346
f 307 58 322
f 307 322 348
f 134 307 348
f 134 348 342
f 351 352 261
f 351 261 137
f 352 349 67
f 352 67 261
f 350 138 349
f 350 349 352
f 17 350 352
f 17 352 351
f 355 356 350
f 355 350 17
f 356 353 138
f 356 138 350
f 354 79 353
f 354 353 356
f 148 354 356
f 148 356 355
f 351 359 357
f 351 357 17
f 359 358 139
f 359 139 357
f 257 66 358
f 257 358 359
f 137 257 359
f 137 359 351
f 355 362 360
f 355 360 148
f 362 361 91
f 362 91 360
f 357 139 361
f 357 361 362
f 17 357 362
f 17 362 355
f 365 366 305
f 365 305 140
f 366 363 70
f 366 70 305
f 364 141 363
f 364 363 366
f 18 364 366
f 18 366 365
f 369 370 364
f 369 364 18
f 370 367 141
f 370 141 364
f 368 85 367
f 368 367 370
f 153 368 370
f 153 370 369
f 365 373 371
f 365 371 18
f 373 372 145
f 373 145 371
f 302 69 372
f 302 372 373
f 140 302 373
f 140 373 365
f 369 376 374
f 369 374 153
f 376 375 82
f 376 82 374
f 371 145 375
f 371 375 376
f 18 371 376
f 18 376 369
f 379 380 269
f 379 269 142
f 380 377 71
f 380 71 269
f 378 143 377
f 378 377 380
f 19 378 380
f 19 380 379
f 383 384 378
f 383 378 19
f 384 381 143
f 384 143 378
f 382 88 381
f 382 381 384
f 155 382 384
f 155 384 383
f 386 387 383
f 386 383 19
f 387 385 155
f 387 155 383
f 367 85 385
f 367 385 387
f 141 367 387
f 141 387 386
f 379 388 386
f 379 386 19
f 388 363 141
f 388 141 386
f 276 70 363
f 276 363 388
f 142 276 388
f 142 388 379
f 391 392 291
f 391 291 144
f 392 389 72
f 392 72 291
f 390 146 389
f 390 389 392
f 20 390 392
f 20 392 391
f 395 396 390
f 395 390 20
f 396 393 146
f 396 146 390
f 394 93 393
f 394 393 396
f 157 394 396
f 157 396 395
f 398 399 395
f 398 395 20
f 399 397 157
f 399 157 395
f 381 88 397
f 381 397 399
f 143 381 399
f 143 399 398
f 391 400 398
f 391 398 20
f 400 377 143
f 400 143 398
f 288 71 377
f 288 377 400
f 144 288 400
f 144 400 391
f 404 405 401
f 404 401 147
f 405 402 91
f 405 91 401
f 403 149 402
f 403 402 405
f 21 403 405
f 21 405 404
f 408 409 403
f 408 403 21
f 409 406 149
f 409 149 403
f 407 92 406
f 407 406 409
f 206 407 409
f 206 409 408
f 412 413 410
f 412 410 158
f 413 411 93
f 413 93 410
f 404 147 411
f 404 411 413
f 21 404 413
f 21 413 412
f 408 416 414
f 408 414 206
f 416 415 94
f 416 94 414
f 412 158 415
f 412 415 416
f 21 412 416
f 21 416 408
f 419 420 354
f 419 354 148
f 420 417 79
f 420 79 354
f 418 150 417
f 418 417 420
f 22 418 420
f 22 420 419
f 423 424 418
f 423 418 22
f 424 421 150
f 424 150 418
f 422 80 421
f 422 421 424
f 201 422 424
f 201 424 423
f 425 426 402
f 425 402 149
f 426 360 91
f 426 91 402
f 419 148 360
f 419 360 426
f 22 419 426
f 22 426 425
f 423 428 427
f 423 427 201
f 428 406 92
f 428 92 427
f 425 149 406
f 425 406 428
f 22 425 428
f 22 428 423
f 432 433 429
f 432 429 151
f 433 430 82
f 433 82 429
f 431 152 430
f 431 430 433
f 23 431 433
f 23 433 432
f 436 437 431
f 436 431 23
f 437 434 152
f 437 152 431
f 435 83 434
f 435 434 437
f 202 435 437
f 202 437 436
f 432 440 438
f 432 438 23
f 440 417 150
f 440 150 438
f 439 79 417
f 439 417 440
f 151 439 440
f 151 440 432
f 436 442 441
f 436 441 202
f 442 421 80
f 442 80 441
f 438 150 421
f 438 421 442
f 23 438 442
f 23 442 436
f 445 446 368
f 445 368 153
f 446 443 85
f 446 85 368
f 444 154 443
f 444 443 446
f 24 444 446
f 24 446 445
f 449 450 444
f 449 444 24
f 450 447 154
f 450 154 444
f 448 86 447
f 448 447 450
f 203 448 450
f 203 450 449
f 445 452 451
f 445 451 24
f 452 430 152
f 452 152 451
f 374 82 430
f 374 430 452
f 153 374 452
f 153 452 445
f 449 454 453
f 449 453 203
f 454 434 83
f 454 83 453
f 451 152 434
f 451 434 454
f 24 451 454
f 24 454 449
f 457 458 382
f 457 382 155
f 458 455 88
f 458 88 382
f 456 156 455
f 456 455 458
f 25 456 458
f 25 458 457
f 461 462 456
f 461 456 25
f 462 459 156
f 462 156 456
f 460 90 459
f 460 459 462
f 204 460 462
f 204 462 461
f 457 464 463
f 457 463 25
f 464 443 154
f 464 154 463
f 385 85 443
f 385 443 464
f 155 385 464
f 155 464 457
f 461 466 465
f 461 465 204
f 466 447 86
f 466 86 465
f 463 154 447
f 463 447 466
f 25 463 466
f 25 466 461
f 468 469 394
f 468 394 157
f 469 410 93
f 469 93 394
f 467 158 410
f 467 410 469
f 26 467 469
f 26 469 468
f 471 472 467
f 471 467 26
f 472 415 158
f 472 158 467
f 470 94 415
f 470 415 472
f 205 470 472
f 205 472 471
f 468 474 473
f 468 473 26
f 474 455 156
f 474 156 473
f 397 88 455
f 397 455 474
f 157 397 474
f 157 474 468
f 471 476 475
f 471 475 205
f 476 459 90
f 476 90 475
f 473 156 459
f 473 459 476
f 26 473 476
f 26 476 471
f 479 480 470
f 479 470 205
f 480 477 94
f 480 94 470
f 478 159 477
f 478 477 480
f 27 478 480
f 27 480 479
f 483 484 478
f 483 478 27
f 484 481 159
f 484 159 478
f 482 95 481
f 482 481 484
f 183 482 484
f 183 484 483
f 487 488 483
f 487 483 27
f 488 485 183
f 488 183 483
f 486 89 485
f 486 485 488
f 164 486 488
f 164 488 487
f 487 490 489
f 487 489 164
f 490 475 90
f 490 90 489
f 479 205 475
f 479 475 490
f 27 479 490
f 27 490 487
f 493 494 407
f 493 407 206
f 494 491 92
f 494 92 407
f 492 160 491
f 492 491 494
f 28 492 494
f 28 494 493
f 497 498 492
f 497 492 28
f 498 495 160
f 498 160 492
f 496 96 495
f 496 495 498
f 184 496 498
f 184 498 497
f 500 501 497
f 500 497 28
f 501 499 184
f 501 184 497
f 481 95 499
f 481 499 501
f 159 481 501
f 159 501 500
f 500 502 477
f 500 477 159
f 502 414 94
f 502 94 477
f 493 206 414
f 493 414 502
f 28 493 502
f 28 502 500
f 505 506 422
f 505 422 201
f 506 503 80
f 506 80 422
f 504 161 503
f 504 503 506
f 29 504 506
f 29 506 505
f 509 510 504
f 509 504 29
f 510 507 161
f 510 161 504
f 508 81 507
f 508 507 510
f 185 508 510
f 185 510 509
f 512 513 509
f 512 509 29
f 513 511 185
f 513 185 509
f 495 96 511
f 495 511 513
f 160 495 513
f 160 513 512
f 512 514 491
f 512 491 160
f 514 427 92
f 514 92 491
f 505 201 427
f 505 427 514
f 29 505 514
f 29 514 512
f 517 518 435
f 517 435 202
f 518 515 83
f 518 83 435
f 516 162 515
f 516 515 518
f 30 516 518
f 30 518 517
f 521 522 516
f 521 516 30
f 522 519 162
f 522 162 516
f 520 84 519
f 520 519 522
f 186 520 522
f 186 522 521
f 524 525 521
f 524 521 30
f 525 523 186
f 525 186 521
f 507 81 523
f 507 523 525
f 161 507 525
f 161 525 524
f 524 526 503
f 524 503 161
f 526 441 80
f 526 80 503
f 517 202 441
f 517 441 526
f 30 517 526
f 30 526 524
f 529 530 448
f 529 448 203
f 530 527 86
f 530 86 448
f 528 163 527
f 528 527 530
f 31 528 530
f 31 530 529
f 533 534 528
f 533 528 31
f 534 531 163
f 534 163 528
f 532 87 531
f 532 531 534
f 187 532 534
f 187 534 533
f 536 537 533
f 536 533 31
f 537 535 187
f 537 187 533
f 519 84 535
f 519 535 537
f 162 519 537
f 162 537 536
f 536 538 515
f 536 515 162
f 538 453 83
f 538 83 515
f 529 203 453
f 529 453 538
f 31 529 538
f 31 538 536
f 541 542 539
f 541 539 32
f 542 486 164
f 542 164 539
f 540 89 486
f 540 486 542
f 188 540 542
f 188 542 541
f 543 544 460
f 543 460 204
f 544 489 90
f 544 90 460
f 539 164 489
f 539 489 544
f 32 539 544
f 32 544 543
f 546 547 541
f 546 541 32
f 547 545 188
f 547 188 541
f 531 87 545
f 531 545 547
f 163 531 547
f 163 547 546
f 546 548 527
f 546 527 163
f 548 465 86
f 548 86 527
f 543 204 465
f 543 465 548
f 32 543 548
f 32 548 546
f 552 553 549
f 552 549 33
f 553 550 165
f 553 165 549
f 551 73 550
f 551 550 553
f 189 551 553
f 189 553 552
f 555 556 482
f 555 482 183
f 556 554 95
f 556 95 482
f 549 165 554
f 549 554 556
f 33 549 556
f 33 556 555
f 559 560 552
f 559 552 33
f 560 557 189
f 560 189 552
f 558 78 557
f 558 557 560
f 170 558 560
f 170 560 559
f 555 562 559
f 555 559 33
f 562 561 170
f 562 170 559
f 485 89 561
f 485 561 562
f 183 485 562
f 183 562 555
f 566 567 563
f 566 563 34
f 567 564 166
f 567 166 563
f 565 74 564
f 565 564 567
f 190 565 567
f 190 567 566
f 569 570 496
f 569 496 184
f 570 568 96
f 570 96 496
f 563 166 568
f 563 568 570
f 34 563 570
f 34 570 569
f 572 573 566
f 572 566 34
f 573 571 190
f 573 190 566
f 550 73 571
f 550 571 573
f 165 550 573
f 165 573 572
f 569 574 572
f 569 572 34
f 574 554 165
f 574 165 572
f 499 95 554
f 499 554 574
f 184 499 574
f 184 574 569
f 578 579 575
f 578 575 35
f 579 576 167
f 579 167 575
f 577 75 576
f 577 576 579
f 191 577 579
f 191 579 578
f 581 582 508
f 581 508 185
f 582 580 81
f 582 81 508
f 575 167 580
f 575 580 582
f 35 575 582
f 35 582 581
f 584 585 578
f 584 578 35
f 585 583 191
f 585 191 578
f 564 74 583
f 564 583 585
f 166 564 585
f 166 585 584
f 581 586 584
f 581 584 35
f 586 568 166
f 586 166 584
f 511 96 568
f 511 568 586
f 185 511 586
f 185 586 581
f 590 591 587
f 590 587 36
f 591 588 168
f 591 168 587
f 589 76 588
f 589 588 591
f 192 589 591
f 192 591 590
f 593 594 520
f 593 520 186
f 594 592 84
f 594 84 520
f 587 168 592
f 587 592 594
f 36 587 594
f 36 594 593
f 596 597 590
f 596 590 36
f 597 595 192
f 597 192 590
f 576 75 595
f 576 595 597
f 167 576 597
f 167 597 596
f 593 598 596
f 593 596 36
f 598 580 167
f 598 167 596
f 523 81 580
f 523 580 598
f 186 523 598
f 186 598 593
f 602 603 599
f 602 599 37
f 603 600 169
f 603 169 599
f 601 77 600
f 601 600 603
f 193 601 603
f 193 603 602
f 605 606 532
f 605 532 187
f 606 604 87
f 606 87 532
f 599 169 604
f 599 604 606
f 37 599 606
f 37 606 605
f 608 609 602
f 608 602 37
f 609 607 193
f 609 193 602
f 588 76 607
f 588 607 609
f 168 588 609
f 168 609 608
f 605 610 608
f 605 608 37
f 610 592 168
f 610 168 608
f 535 84 592
f 535 592 610
f 187 535 610
f 187 610 605
f 613 614 611
f 613 611 38
f 614 558 170
f 614 170 611
f 612 78 558
f 612 558 614
f 194 612 614
f 194 614 613
f 615 616 540
f 615 540 188
f 616 561 89
f 616 89 540
f 611 170 561
f 611 561 616
f 38 611 616
f 38 616 615
f 618 619 613
f 618 613 38
f 619 617 194
f 619 194 613
f 600 77 617
f 600 617 619
f 169 600 619
f 169 619 618
f 615 620 618
f 615 618 38
f 620 604 169
f 620 169 618
f 545 87 604
f 545 604 620
f 188 545 620
f 188 620 615
f 623 624 551
f 623 551 189
f 624 621 73
f 624 73 551
f 622 171 621
f 622 621 624
f 39 622 624
f 39 624 623
f 627 628 622
f 627 622 39
f 628 625 171
f 628 171 622
f 626 100 625
f 626 625 628
f 195 626 628
f 195 628 627
f 631 632 627
f 631 627 39
f 632 629 195
f 632 195 627
f 630 98 629
f 630 629 632
f 176 630 632
f 176 632 631
f 623 634 631
f 623 631 39
f 634 633 176
f 634 176 631
f 557 78 633
f 557 633 634
f 189 557 634
f 189 634 623
f 637 638 565
f 637 565 190
f 638 635 74
f 638 74 565
f 636 172 635
f 636 635 638
f 40 636 638
f 40 638 637
f 641 642 636
f 641 636 40
f 642 639 172
f 642 172 636
f 640 101 639
f 640 639 642
f 196 640 642
f 196 642 641
f 644 645 641
f 644 641 40
f 645 643 196
f 645 196 641
f 625 100 643
f 625 643 645
f 171 625 645
f 171 645 644
f 637 646 644
f 637 644 40
f 646 621 171
f 646 171 644
f 571 73 621
f 571 621 646
f 190 571 646
f 190 646 637
f 649 650 577
f 649 577 191
f 650 647 75
f 650 75 577
f 648 173 647
f 648 647 650
f 41 648 650
f 41 650 649
f 653 654 648
f 653 648 41
f 654 651 173
f 654 173 648
f 652 102 651
f 652 651 654
f 197 652 654
f 197 654 653
f 656 657 653
f 656 653 41
f 657 655 197
f 657 197 653
f 639 101 655
f 639 655 657
f 172 639 657
f 172 657 656
f 649 658 656
f 649 656 41
f 658 635 172
f 658 172 656
f 583 74 635
f 583 635 658
f 191 583 658
f 191 658 649
f 661 662 589
f 661 589 192
f 662 659 76
f 662 76 589
f 660 174 659
f 660 659 662
f 42 660 662
f 42 662 661
f 665 666 660
f 665 660 42
f 666 663 174
f 666 174 660
f 664 99 663
f 664 663 666
f 198 664 666
f 198 666 665
f 668 669 665
f 668 665 42
f 669 667 198
f 669 198 665
f 651 102 667
f 651 667 669
f 173 651 669
f 173 669 668
f 661 670 668
f 661 668 42
f 670 647 173
f 670 173 668
f 595 75 647
f 595 647 670
f 192 595 670
f 192 670 661
f 673 674 601
f 673 601 193
f 674 671 77
f 674 77 601
f 672 175 671
f 672 671 674
f 43 672 674
f 43 674 673
f 677 678 672
f 677 672 43
f 678 675 175
f 678 175 672
f 676 97 675
f 676 675 678
f 199 676 678
f 199 678 677
f 680 681 677
f 680 677 43
f 681 679 199
f 681 199 677
f 663 99 679
f 663 679 681
f 174 663 681
f 174 681 680
f 673 682 680
f 673 680 43
f 682 659 174
f 682 174 680
f 607 76 659
f 607 659 682
f 193 607 682
f 193 682 673
f 684 685 612
f 684 612 194
f 685 633 78
f 685 78 612
f 683 176 633
f 683 633 685
f 44 683 685
f 44 685 684
f 687 688 683
f 687 683 44
f 688 630 176
f 688 176 683
f 686 98 630
f 686 630 688
f 200 686 688
f 200 688 687
f 690 691 687
f 690 687 44
f 691 689 200
f 691 200 687
f 675 97 689
f 675 689 691
f 175 675 691
f 175 691 690
f 684 692 690
f 684 690 44
f 692 671 175
f 692 175 690
f 617 77 671
f 617 671 692
f 194 617 692
f 194 692 684
f 695 696 626
f 695 626 195
f 696 693 100
f 696 100 626
f 694 177 693
f 694 693 696
f 45 694 696
f 45 696 695
f 699 700 694
f 699 694 45
f 700 697 177
f 700 177 694
f 698 109 697
f 698 697 700
f 211 698 700
f 211 700 699
f 703 704 699
f 703 699 45
f 704 701 211
f 704 211 699
f 702 107 701
f 702 701 704
f 182 702 704
f 182 704 703
f 695 706 703
f 695 703 45
f 706 705 182
f 706 182 703
f 629 98 705
f 629 705 706
f 195 629 706
f 195 706 695
f 709 710 640
f 709 640 196
f 710 707 101
f 710 101 640
f 708 178 707
f 708 707 710
f 46 708 710
f 46 710 709
f 713 714 711
f 713 711 46
f 714 712 214
f 714 214 711
f 697 109 712
f 697 712 714
f 177 697 714
f 177 714 713
f 709 715 713
f 709 713 46
f 715 693 177
f 715 177 713
f 643 100 693
f 643 693 715
f 196 643 715
f 196 715 709
f 718 719 652
f 718 652 197
f 719 716 102
f 719 102 652
f 717 179 716
f 717 716 719
f 47 717 719
f 47 719 718
f 718 721 720
f 718 720 47
f 721 707 178
f 721 178 720
f 655 101 707
f 655 707 721
f 197 655 721
f 197 721 718
f 724 725 664
f 724 664 198
f 725 722 99
f 725 99 664
f 723 180 722
f 723 722 725
f 48 723 725
f 48 725 724
f 728 729 723
f 728 723 48
f 729 726 180
f 729 180 723
f 727 104 726
f 727 726 729
f 213 727 729
f 213 729 728
f 732 733 728
f 732 728 48
f 733 730 213
f 733 213 728
f 731 106 730
f 731 730 733
f 179 731 733
f 179 733 732
f 724 734 732
f 724 732 48
f 734 716 179
f 734 179 732
f 667 102 716
f 667 716 734
f 198 667 734
f 198 734 724
f 737 738 676
f 737 676 199
f 738 735 97
f 738 97 676
f 736 181 735
f 736 735 738
f 49 736 738
f 49 738 737
f 741 742 736
f 741 736 49
f 742 739 181
f 742 181 736
f 740 105 739
f 740 739 742
f 208 740 742
f 208 742 741
f 744 745 741
f 744 741 49
f 745 743 208
f 745 208 741
f 726 104 743
f 726 743 745
f 180 726 745
f 180 745 744
f 737 746 744
f 737 744 49
f 746 722 180
f 746 180 744
f 679 99 722
f 679 722 746
f 199 679 746
f 199 746 737
f 748 749 686
f 748 686 200
f 749 705 98
f 749 98 686
f 747 182 705
f 747 705 749
f 50 747 749
f 50 749 748
f 751 752 747
f 751 747 50
f 752 702 182
f 752 182 747
f 750 107 702
f 750 702 752
f 207 750 752
f 207 752 751
f 754 755 751
f 754 751 50
f 755 753 207
f 755 207 751
f 739 105 753
f 739 753 755
f 181 739 755
f 181 755 754
f 748 756 754
f 748 754 50
f 756 735 181
f 756 181 754
f 689 97 735
f 689 735 756
f 200 689 756
f 200 756 748
f 758 759 757
f 758 757 1
f 759 411 147
f 759 147 757
f 393 93 411
f 393 411 759
f 146 393 759
f 146 759 758
f 760 761 361
f 760 361 139
f 761 401 91
f 761 91 361
f 757 147 401
f 757 401 761
f 1 757 761
f 1 761 760
f 758 764 389
f 758 389 146
f 764 762 72
f 764 72 389
f 763 115 762
f 763 762 764
f 1 763 764
f 1 764 758
f 766 767 765
f 766 765 112
f 767 358 66
f 767 66 765
f 760 139 358
f 760 358 767
f 1 760 767
f 1 767 766
f 118 866 873
f 118 873 235
f 8 236 873
f 8 873 866
f 868 875 236
f 868 236 8
f 119 229 875
f 119 875 868
f 773 774 772
f 773 772 2
f 774 258 120
f 774 120 772
f 765 66 258
f 765 258 774
f 112 765 774
f 112 774 773
f 825 871 229
f 825 229 119
f 5 230 871
f 5 871 825
f 7 857 861
f 7 861 234
f 118 235 861
f 118 861 857
f 779 780 247
f 779 247 57
f 780 772 120
f 780 120 247
f 778 2 772
f 778 772 780
f 113 778 780
f 113 780 779
f 117 847 851
f 117 851 233
f 7 234 851
f 7 851 847
f 6 840 843
f 6 843 232
f 117 233 843
f 117 843 840
f 785 786 784
f 785 784 3
f 786 319 126
f 786 126 784
f 779 57 319
f 779 319 786
f 113 779 786
f 113 786 785
f 787 788 332
f 787 332 131
f 788 315 59
f 788 59 332
f 784 126 315
f 784 315 788
f 3 784 788
f 3 788 787
f 116 835 837
f 116 837 231
f 6 232 837
f 6 837 835
f 827 831 230
f 827 230 5
f 116 231 831
f 116 831 827
f 793 794 792
f 793 792 65
f 794 781 225
f 794 225 792
f 775 224 781
f 775 781 794
f 223 775 794
f 223 794 793
f 796 797 336
f 796 336 63
f 797 787 131
f 797 131 336
f 795 3 787
f 795 787 797
f 114 795 797
f 114 797 796
f 799 800 789
f 799 789 226
f 800 792 225
f 800 225 789
f 798 65 792
f 798 792 800
f 227 798 800
f 227 800 799
f 114 804 811
f 114 811 227
f 4 228 811
f 4 811 804
f 806 813 228
f 806 228 4
f 115 221 813
f 115 813 806
f 804 805 803
f 804 803 4
f 805 284 124
f 805 124 803
f 796 63 284
f 796 284 805
f 114 796 805
f 114 805 804
f 803 807 806
f 803 806 4
f 807 762 115
f 807 115 806
f 290 72 762
f 290 762 807
f 124 290 807
f 124 807 803
f 763 809 221
f 763 221 115
f 1 222 809
f 1 809 763
f 3 795 799
f 3 799 226
f 114 227 799
f 114 799 795
f 813 814 811
f 813 811 228
f 814 798 227
f 814 227 811
f 812 65 798
f 812 798 814
f 221 812 814
f 221 814 813
f 809 815 812
f 809 812 221
f 815 793 65
f 815 65 812
f 769 223 793
f 769 793 815
f 222 769 815
f 222 815 809
f 113 785 789
f 113 789 225
f 3 226 789
f 3 789 785
f 2 778 781
f 2 781 224
f 113 225 781
f 113 781 778
f 112 773 775
f 112 775 223
f 2 224 775
f 2 775 773
f 766 769 222
f 766 222 1
f 112 223 769
f 112 769 766
f 820 821 375
f 820 375 145
f 821 429 82
f 821 82 375
f 819 151 429
f 819 429 821
f 5 819 821
f 5 821 820
f 822 823 819
f 822 819 5
f 823 439 151
f 823 151 819
f 353 79 439
f 353 439 823
f 138 353 823
f 138 823 822
f 822 826 349
f 822 349 138
f 826 824 67
f 826 67 349
f 825 119 824
f 825 824 826
f 5 825 826
f 5 826 822
f 828 829 372
f 828 372 69
f 829 820 145
f 829 145 372
f 827 5 820
f 827 820 829
f 116 827 829
f 116 829 828
f 110 914 768
f 110 768 777
f 914 220 903
f 914 903 768
f 768 903 108
f 768 108 771
f 777 768 771
f 777 771 243
f 835 836 834
f 835 834 6
f 836 303 122
f 836 122 834
f 828 69 303
f 828 303 836
f 116 828 836
f 116 836 835
f 243 771 770
f 243 770 808
f 771 108 941
f 771 941 770
f 770 941 219
f 770 219 872
f 808 770 872
f 808 872 111
f 841 842 297
f 841 297 64
f 842 834 122
f 842 122 297
f 840 6 834
f 840 834 842
f 117 840 842
f 117 842 841
f 56 783 776
f 56 776 802
f 783 217 930
f 783 930 776
f 776 930 110
f 776 110 777
f 802 776 777
f 802 777 243
f 847 848 846
f 847 846 7
f 848 329 129
f 848 129 846
f 841 64 329
f 841 329 848
f 117 841 848
f 117 848 847
f 849 850 308
f 849 308 128
f 850 321 58
f 850 58 308
f 846 129 321
f 846 321 850
f 7 846 850
f 7 850 849
f 56 791 782
f 56 782 783
f 791 238 934
f 791 934 782
f 782 934 244
f 782 244 936
f 783 782 936
f 783 936 217
f 855 856 854
f 855 854 68
f 856 843 233
f 856 233 854
f 837 232 843
f 837 843 856
f 231 837 856
f 231 856 855
f 858 859 312
f 858 312 60
f 859 849 128
f 859 128 312
f 857 7 849
f 857 849 859
f 118 857 859
f 118 859 858
f 861 862 851
f 861 851 234
f 862 854 233
f 862 233 851
f 860 68 854
f 860 854 862
f 235 860 862
f 235 862 861
f 56 810 790
f 56 790 791
f 810 218 830
f 810 830 790
f 790 830 239
f 790 239 927
f 791 790 927
f 791 927 238
f 866 867 865
f 866 865 8
f 867 253 121
f 867 121 865
f 858 60 253
f 858 253 867
f 118 858 867
f 118 867 866
f 865 869 868
f 865 868 8
f 869 824 119
f 869 119 868
f 260 67 824
f 260 824 869
f 121 260 869
f 121 869 865
f 243 808 801
f 243 801 802
f 808 111 838
f 808 838 801
f 801 838 218
f 801 218 810
f 802 801 810
f 802 810 56
f 875 876 873
f 875 873 236
f 876 860 235
f 876 235 873
f 874 68 860
f 874 860 876
f 229 874 876
f 229 876 875
f 871 877 874
f 871 874 229
f 877 855 68
f 877 68 874
f 831 231 855
f 831 855 877
f 230 831 877
f 230 877 871
f 246 839 816
f 246 816 818
f 839 245 879
f 839 879 816
f 816 879 212
f 816 212 863
f 818 816 863
f 818 863 54
f 246 818 817
f 246 817 833
f 818 54 845
f 818 845 817
f 817 845 239
f 817 239 830
f 833 817 830
f 833 830 218
f 882 883 881
f 882 881 216
f 883 717 47
f 883 47 881
f 731 179 717
f 731 717 883
f 106 731 883
f 106 883 882
f 886 887 712
f 886 712 109
f 887 884 214
f 887 214 712
f 885 55 884
f 885 884 887
f 215 885 887
f 215 887 886
f 886 890 888
f 886 888 215
f 890 889 53
f 890 53 888
f 698 211 889
f 698 889 890
f 109 698 890
f 109 890 886
f 893 894 891
f 893 891 51
f 894 892 209
f 894 209 891
f 753 105 892
f 753 892 894
f 207 753 894
f 207 894 893
f 898 899 895
f 898 895 51
f 899 896 210
f 899 210 895
f 897 53 896
f 897 896 899
f 241 897 899
f 241 899 898
f 893 901 750
f 893 750 207
f 901 900 107
f 901 107 750
f 895 210 900
f 895 900 901
f 51 895 901
f 51 901 893
f 898 905 902
f 898 902 241
f 905 903 220
f 905 220 902
f 904 108 903
f 904 903 905
f 51 904 905
f 51 905 898
f 892 908 906
f 892 906 209
f 908 907 52
f 908 52 906
f 740 208 907
f 740 907 908
f 105 740 908
f 105 908 892
f 900 909 701
f 900 701 107
f 909 889 211
f 909 211 701
f 896 53 889
f 896 889 909
f 210 896 909
f 210 909 900
f 911 912 897
f 911 897 241
f 912 888 53
f 912 53 897
f 910 215 888
f 910 888 912
f 242 910 912
f 242 912 911
f 902 915 911
f 902 911 241
f 915 913 242
f 915 242 911
f 914 110 913
f 914 913 915
f 220 914 915
f 220 915 902
f 917 918 910
f 917 910 242
f 918 885 215
f 918 215 910
f 916 55 885
f 916 885 918
f 237 916 918
f 237 918 917
f 920 921 919
f 920 919 103
f 921 711 214
f 921 214 919
f 708 46 711
f 708 711 921
f 178 708 921
f 178 921 920
f 922 923 916
f 922 916 237
f 923 884 55
f 923 55 916
f 919 214 884
f 919 884 923
f 103 919 923
f 103 923 922
f 924 925 920
f 924 920 103
f 925 720 178
f 925 178 920
f 881 47 720
f 881 720 925
f 216 881 925
f 216 925 924
f 928 929 882
f 928 882 216
f 929 926 106
f 929 106 882
f 927 239 926
f 927 926 929
f 238 927 929
f 238 929 928
f 931 932 930
f 931 930 217
f 932 913 110
f 932 110 930
f 917 242 913
f 917 913 932
f 237 917 932
f 237 932 931
f 934 935 933
f 934 933 244
f 935 924 103
f 935 103 933
f 928 216 924
f 928 924 935
f 238 928 935
f 238 935 934
f 936 937 931
f 936 931 217
f 937 922 237
f 937 237 931
f 933 103 922
f 933 922 937
f 244 933 937
f 244 937 936
f 939 940 938
f 939 938 240
f 940 906 52
f 940 52 938
f 891 209 906
f 891 906 940
f 51 891 940
f 51 940 939
f 939 943 904
f 939 904 51
f 943 941 108
f 943 108 904
f 942 219 941
f 942 941 943
f 240 942 943
f 240 943 939
f 945 946 743
f 945 743 104
f 946 907 208
f 946 208 743
f 944 52 907
f 944 907 946
f 212 944 946
f 212 946 945
f 879 878 944
f 879 944 212
f 878 938 52
f 878 52 944
f 880 240 938
f 880 938 878
f 245 880 878
f 245 878 879
f 870 864 880
f 870 880 245
f 864 942 240
f 864 240 880
f 872 219 942
f 872 942 864
f 111 872 864
f 111 864 870
f 853 852 727
f 853 727 213
f 852 945 104
f 852 104 727
f 863 212 945
f 863 945 852
f 54 863 852
f 54 852 853
f 845 844 926
f 845 926 239
f 844 730 106
f 844 106 926
f 853 213 730
f 853 730 844
f 54 853 844
f 54 844 845
f 833 832 839
f 833 839 246
f 832 870 245
f 832 245 839
f 838 111 870
f 838 870 832
f 218 838 832
f 218 832 833
