# _2nd_Proximal_Phalanges_Hand_L posed
v -0.803959 -0.262957 0.404613
v -0.804585 -0.268162 0.404425
v -0.802936 -0.267998 0.404793
v -0.801820 -0.270045 0.403232
v -0.800943 -0.267533 0.401890
v -0.801979 -0.267278 0.401071
v -0.803545 -0.266456 0.401077
v -0.805366 -0.267754 0.401870
v -0.805835 -0.267053 0.403609
v -0.803524 -0.269972 0.402479
v -0.802592 -0.262839 0.404918
v -0.805079 -0.263187 0.403429
v -0.803762 -0.258616 0.403784
v -0.805235 -0.259881 0.403120
v -0.801850 -0.258341 0.403802
v -0.801043 -0.256571 0.402144
v -0.803092 -0.257321 0.402006
v -0.804758 -0.258943 0.401641
v -0.802027 -0.259065 0.400864
v -0.803472 -0.259810 0.400936
v -0.800744 -0.258841 0.401289
v -0.801557 -0.263017 0.401019
v -0.803132 -0.263203 0.400979
v -0.805068 -0.263358 0.401717
v -0.800692 -0.263013 0.401670
v -0.800090 -0.268737 0.403663
v -0.800993 -0.266770 0.405075
v -0.799314 -0.266654 0.402374
v -0.800817 -0.262906 0.405141
v -0.800057 -0.259509 0.404174
v -0.799161 -0.258514 0.402659
v -0.799054 -0.260119 0.402056
v -0.798935 -0.263134 0.401941
v -0.796314 -0.259658 0.403190
v -0.797249 -0.260543 0.404664
v -0.797916 -0.263245 0.405465
v -0.797969 -0.266186 0.405333
v -0.797282 -0.267930 0.404124
v -0.796358 -0.266720 0.402844
v -0.795820 -0.264004 0.402228
v -0.795793 -0.261363 0.402358
v -0.792167 -0.259779 0.403727
v -0.793372 -0.261168 0.405329
v -0.794077 -0.263878 0.406086
v -0.794232 -0.266892 0.405999
v -0.793580 -0.268981 0.404785
v -0.792403 -0.267521 0.403289
v -0.791697 -0.264833 0.402604
v -0.791533 -0.261868 0.402644
v -0.787850 -0.259812 0.403943
v -0.789182 -0.261472 0.405576
v -0.790051 -0.264514 0.406368
v -0.790350 -0.267750 0.406335
v -0.789808 -0.270224 0.405128
v -0.788316 -0.268653 0.403352
v -0.787534 -0.265401 0.402823
v -0.787225 -0.262163 0.402885
v -0.783003 -0.259260 0.403718
v -0.784859 -0.260936 0.405756
v -0.786277 -0.264605 0.406972
v -0.786733 -0.268818 0.406790
v -0.785924 -0.271731 0.405151
v -0.783834 -0.270386 0.402685
v -0.782698 -0.265582 0.402307
v -0.781926 -0.260820 0.401942
v -0.784439 -0.264821 0.407194
v -0.785122 -0.270019 0.407391
v -0.783731 -0.273693 0.405493
v -0.780831 -0.271318 0.402722
v -0.780308 -0.265922 0.402472
v -0.778639 -0.259712 0.401621
v -0.780272 -0.257623 0.403582
v -0.782824 -0.260419 0.405921
v -0.782607 -0.265197 0.406617
v -0.781621 -0.261115 0.405969
v -0.778727 -0.259301 0.404349
v -0.777390 -0.260632 0.402438
v -0.779692 -0.266014 0.403103
v -0.780336 -0.270129 0.403700
v -0.781375 -0.270936 0.405348
v -0.783121 -0.269246 0.406922
v -0.780484 -0.265775 0.404764
v -0.802451 -0.261097 0.400841
v -0.805043 -0.269176 0.403174
v -0.804385 -0.257991 0.402575
v -0.803553 -0.258185 0.401303
v -0.804394 -0.265324 0.401292
v -0.805822 -0.265362 0.402710
v -0.804951 -0.265247 0.404218
v -0.804657 -0.261118 0.403908
v -0.805615 -0.261361 0.402513
v -0.804111 -0.261222 0.401178
v -0.803526 -0.268352 0.401397
v -0.802364 -0.265028 0.400870
v -0.802020 -0.269515 0.401978
v -0.803540 -0.270308 0.403925
v -0.803517 -0.265455 0.404845
v -0.803033 -0.260526 0.404429
v -0.802387 -0.256901 0.402841
v -0.801616 -0.257315 0.401255
v -0.801189 -0.260738 0.401088
v -0.801156 -0.265355 0.401300
v -0.793915 -0.260504 0.402860
v -0.790711 -0.260243 0.404747
v -0.791790 -0.262695 0.405990
v -0.792330 -0.265834 0.406387
v -0.792170 -0.268747 0.405780
v -0.791026 -0.269194 0.404062
v -0.789944 -0.266641 0.402924
v -0.789479 -0.263553 0.402642
v -0.789607 -0.260702 0.403145
v -0.802044 -0.265152 0.405130
v -0.799653 -0.264694 0.405367
v -0.796182 -0.264983 0.405853
v -0.801669 -0.269068 0.404442
v -0.799369 -0.267724 0.404712
v -0.795944 -0.267648 0.405234
v -0.800590 -0.268483 0.402690
v -0.798386 -0.267600 0.403139
v -0.794921 -0.267918 0.403697
v -0.800092 -0.265104 0.401960
v -0.797672 -0.265170 0.402202
v -0.794062 -0.265735 0.402658
v -0.800078 -0.261084 0.401820
v -0.797484 -0.262029 0.402046
v -0.793715 -0.262989 0.402366
v -0.800094 -0.258002 0.401921
v -0.797729 -0.259956 0.402516
v -0.801445 -0.260730 0.404642
v -0.799218 -0.261437 0.404938
v -0.800524 -0.257622 0.403155
v -0.798339 -0.259263 0.403648
v -0.794870 -0.259898 0.404317
v -0.795801 -0.262091 0.405527
v -0.788199 -0.266482 0.406623
v -0.788169 -0.269732 0.405980
v -0.786927 -0.270730 0.404071
v -0.785405 -0.267428 0.402746
v -0.784703 -0.263635 0.402543
v -0.784777 -0.260401 0.403057
v -0.786124 -0.260126 0.404812
v -0.787460 -0.262791 0.406200
v -0.784476 -0.262438 0.406661
v -0.782528 -0.259157 0.404812
v -0.780437 -0.258410 0.402429
v -0.780296 -0.263019 0.401539
v -0.781606 -0.268275 0.402484
v -0.783655 -0.273206 0.403885
v -0.785645 -0.271782 0.406480
v -0.785680 -0.267120 0.407379
v -0.783073 -0.262668 0.406652
v -0.780923 -0.258777 0.405053
v -0.778093 -0.257871 0.402660
v -0.778395 -0.263374 0.402054
v -0.780325 -0.268570 0.403067
v -0.781216 -0.272401 0.404305
v -0.783579 -0.272045 0.406838
v -0.784070 -0.267374 0.407300
v -0.780808 -0.262735 0.405535
v -0.781908 -0.268126 0.405954
v -0.778816 -0.262982 0.403582
v -0.780433 -0.268679 0.404133
v -0.804221 -0.265388 0.404651
v -0.803781 -0.268321 0.404614
v -0.802571 -0.269890 0.404237
v -0.801358 -0.269189 0.402393
v -0.801403 -0.267617 0.401413
v -0.802782 -0.266856 0.400996
v -0.804277 -0.267043 0.401317
v -0.806051 -0.267807 0.402929
v -0.805440 -0.267779 0.404060
v -0.802736 -0.270429 0.402858
v -0.804340 -0.269242 0.402163
v -0.804229 -0.269744 0.403506
v -0.802701 -0.269137 0.401620
v -0.803232 -0.262877 0.404808
v -0.802842 -0.265398 0.404994
v -0.804652 -0.263083 0.404121
v -0.805363 -0.265137 0.403533
v -0.803868 -0.260765 0.404320
v -0.804770 -0.259241 0.403528
v -0.805145 -0.261387 0.403254
v -0.802241 -0.260481 0.404495
v -0.802753 -0.258268 0.403804
v -0.801418 -0.256765 0.402961
v -0.803369 -0.257503 0.402729
v -0.802027 -0.256686 0.402002
v -0.803956 -0.257912 0.401938
v -0.805375 -0.259158 0.402466
v -0.804085 -0.259290 0.401135
v -0.802593 -0.257623 0.401210
v -0.802881 -0.259365 0.400855
v -0.800825 -0.257335 0.401515
v -0.801343 -0.258805 0.401012
v -0.801618 -0.265115 0.400985
v -0.803400 -0.265083 0.401005
v -0.802265 -0.263083 0.400899
v -0.803309 -0.261224 0.400953
v -0.801704 -0.260916 0.400905
v -0.804073 -0.263340 0.401251
v -0.805416 -0.265463 0.401742
v -0.805079 -0.261209 0.401604
v -0.805542 -0.263310 0.402660
v -0.801108 -0.263012 0.401291
v -0.800755 -0.265348 0.401712
v -0.800755 -0.260795 0.401491
v -0.800978 -0.269344 0.403476
v -0.802066 -0.267369 0.404951
v -0.800660 -0.268317 0.404576
v -0.800326 -0.267115 0.402210
v -0.799627 -0.267908 0.402883
v -0.800996 -0.264862 0.405251
v -0.801798 -0.262871 0.405042
v -0.800497 -0.261065 0.404784
v -0.800979 -0.258881 0.403941
v -0.799539 -0.258536 0.403411
v -0.800149 -0.257351 0.402388
v -0.799099 -0.259166 0.402265
v -0.800115 -0.259349 0.401761
v -0.798980 -0.261460 0.401945
v -0.800001 -0.263021 0.401872
v -0.799068 -0.264954 0.402062
v -0.796763 -0.259705 0.403958
v -0.797639 -0.261783 0.405182
v -0.798040 -0.264764 0.405524
v -0.797732 -0.267379 0.404869
v -0.796788 -0.267544 0.403411
v -0.796011 -0.265467 0.402418
v -0.795740 -0.262610 0.402198
v -0.795971 -0.260370 0.402679
v -0.792821 -0.260149 0.404630
v -0.793797 -0.262470 0.405822
v -0.794237 -0.265399 0.406161
v -0.794035 -0.268234 0.405546
v -0.792938 -0.268527 0.403930
v -0.791986 -0.266220 0.402836
v -0.791541 -0.263283 0.402517
v -0.791721 -0.260594 0.403011
v -0.788527 -0.260269 0.404835
v -0.789700 -0.262910 0.406077
v -0.790283 -0.266146 0.406461
v -0.790231 -0.269214 0.405922
v -0.789056 -0.269987 0.404111
v -0.787841 -0.267043 0.402977
v -0.787313 -0.263762 0.402775
v -0.787374 -0.260728 0.403201
v -0.783944 -0.259771 0.404799
v -0.785624 -0.262582 0.406488
v -0.786630 -0.266778 0.407074
v -0.786532 -0.270614 0.406160
v -0.785060 -0.272010 0.403955
v -0.783138 -0.267828 0.402444
v -0.782158 -0.263229 0.401938
v -0.782247 -0.259484 0.402708
v -0.794307 -0.259709 0.403478
v -0.795396 -0.260821 0.405025
v -0.796062 -0.263514 0.405800
v -0.796143 -0.266416 0.405674
v -0.795511 -0.268312 0.404509
v -0.794429 -0.266968 0.403080
v -0.793836 -0.264391 0.402437
v -0.793730 -0.261665 0.402510
v -0.790051 -0.259845 0.403866
v -0.791314 -0.261319 0.405473
v -0.792126 -0.264228 0.406291
v -0.792351 -0.267381 0.406226
v -0.791725 -0.269577 0.405001
v -0.790376 -0.268037 0.403356
v -0.789647 -0.265115 0.402710
v -0.789443 -0.262061 0.402767
v -0.785371 -0.259832 0.403884
v -0.786863 -0.261221 0.405625
v -0.787935 -0.264651 0.406536
v -0.788274 -0.268206 0.406452
v -0.787697 -0.270687 0.405117
v -0.785996 -0.269373 0.403081
v -0.785019 -0.265554 0.402609
v -0.784556 -0.261799 0.402612
v -0.799514 -0.263037 0.405268
v -0.799618 -0.266317 0.405202
v -0.798851 -0.268203 0.403881
v -0.797971 -0.266578 0.402579
v -0.797516 -0.263526 0.402047
v -0.797580 -0.260836 0.402228
v -0.797956 -0.259296 0.402955
v -0.798805 -0.260103 0.404378
v -0.785210 -0.264714 0.407185
v -0.785953 -0.269623 0.407201
v -0.784912 -0.267321 0.407428
v -0.784769 -0.272457 0.406806
v -0.784786 -0.272912 0.405279
v -0.782279 -0.273386 0.404039
v -0.782181 -0.271134 0.402558
v -0.780721 -0.268541 0.402725
v -0.781119 -0.265670 0.402237
v -0.779129 -0.263223 0.401623
v -0.779962 -0.259942 0.401597
v -0.779163 -0.257763 0.402402
v -0.781360 -0.258356 0.403581
v -0.781606 -0.258720 0.404887
v -0.783598 -0.260592 0.405864
v -0.783733 -0.262475 0.406684
v -0.783642 -0.264959 0.407077
v -0.782163 -0.260650 0.405989
v -0.782079 -0.262866 0.406328
v -0.780394 -0.260094 0.405348
v -0.779251 -0.257471 0.403853
v -0.777536 -0.259435 0.403119
v -0.777641 -0.259933 0.401948
v -0.778400 -0.263489 0.402737
v -0.779891 -0.266014 0.402766
v -0.780207 -0.268498 0.403453
v -0.780304 -0.270655 0.403382
v -0.780750 -0.270832 0.404374
v -0.782390 -0.272982 0.405613
v -0.782342 -0.270240 0.406362
v -0.784022 -0.269740 0.407294
v -0.782955 -0.267530 0.406801
v -0.779663 -0.262671 0.404556
v -0.779848 -0.265938 0.403807
v -0.781015 -0.268627 0.405010
v -0.781486 -0.265455 0.405750
f 174 96 164
f 174 164 2
f 2 164 97
f 2 97 163
f 2 163 89
f 2 89 171
f 2 171 84
f 2 84 174
f 164 96 165
f 164 165 3
f 3 165 115
f 3 115 208
f 3 208 112
f 3 112 177
f 177 97 164
f 177 164 3
f 172 95 166
f 172 166 4
f 4 166 118
f 4 118 207
f 4 207 115
f 4 115 165
f 4 165 96
f 4 96 172
f 166 95 167
f 166 167 5
f 5 167 102
f 5 102 205
f 5 210 118
f 5 118 166
f 205 121 210
f 205 210 5
f 175 93 168
f 175 168 6
f 6 168 94
f 6 94 195
f 6 195 102
f 6 102 167
f 6 167 95
f 6 95 175
f 7 169 87
f 7 87 196
f 168 93 169
f 168 169 7
f 7 196 94
f 7 94 168
f 173 84 170
f 173 170 8
f 8 170 88
f 8 88 201
f 8 201 87
f 8 87 169
f 8 169 93
f 8 93 173
f 170 84 171
f 170 171 9
f 9 171 89
f 9 89 179
f 179 88 170
f 179 170 9
f 176 97 177
f 176 177 11
f 11 177 112
f 11 112 213
f 11 183 98
f 11 98 176
f 213 129 183
f 213 183 11
f 203 88 179
f 203 179 12
f 12 179 89
f 12 89 178
f 178 90 182
f 178 182 12
f 12 182 91
f 12 91 203
f 186 85 181
f 186 181 13
f 13 181 90
f 13 90 180
f 180 98 184
f 180 184 13
f 13 184 99
f 13 99 186
f 181 85 189
f 181 189 14
f 14 189 91
f 14 91 182
f 182 90 181
f 182 181 14
f 15 185 99
f 15 99 184
f 215 131 185
f 215 185 15
f 183 129 215
f 183 215 15
f 184 98 183
f 184 183 15
f 16 187 99
f 16 99 185
f 193 100 187
f 193 187 16
f 217 127 193
f 217 193 16
f 185 131 217
f 185 217 16
f 17 188 85
f 17 85 186
f 191 86 188
f 191 188 17
f 187 100 191
f 187 191 17
f 17 186 99
f 17 99 187
f 188 86 190
f 188 190 18
f 18 190 92
f 18 92 202
f 189 85 188
f 189 188 18
f 202 91 189
f 202 189 18
f 199 83 192
f 199 192 19
f 19 192 86
f 19 86 191
f 191 100 194
f 191 194 19
f 19 194 101
f 19 101 199
f 20 190 86
f 20 86 192
f 198 92 190
f 198 190 20
f 20 192 83
f 20 83 198
f 21 219 124
f 21 124 206
f 193 127 219
f 193 219 21
f 194 100 193
f 194 193 21
f 206 101 194
f 206 194 21
f 22 197 83
f 22 83 199
f 195 94 197
f 195 197 22
f 22 199 101
f 22 101 204
f 22 204 102
f 22 102 195
f 23 198 83
f 23 83 197
f 200 92 198
f 200 198 23
f 196 87 200
f 196 200 23
f 197 94 196
f 197 196 23
f 203 91 202
f 203 202 24
f 24 202 92
f 24 92 200
f 201 88 203
f 201 203 24
f 24 200 87
f 24 87 201
f 25 205 102
f 25 102 204
f 221 121 205
f 221 205 25
f 204 101 206
f 204 206 25
f 25 206 124
f 25 124 221
f 26 209 115
f 26 115 207
f 281 116 209
f 281 209 26
f 207 118 211
f 207 211 26
f 26 211 119
f 26 119 281
f 27 212 112
f 27 112 208
f 280 113 212
f 280 212 27
f 27 208 115
f 27 115 209
f 27 209 116
f 27 116 280
f 211 118 210
f 211 210 28
f 28 210 121
f 28 121 222
f 282 119 211
f 282 211 28
f 28 222 122
f 28 122 282
f 29 214 129
f 29 129 213
f 279 130 214
f 279 214 29
f 213 112 212
f 213 212 29
f 29 212 113
f 29 113 279
f 30 216 131
f 30 131 215
f 286 132 216
f 286 216 30
f 214 130 286
f 214 286 30
f 215 129 214
f 215 214 30
f 31 218 127
f 31 127 217
f 285 128 218
f 285 218 31
f 217 131 216
f 217 216 31
f 31 216 132
f 31 132 285
f 32 220 124
f 32 124 219
f 284 125 220
f 284 220 32
f 218 128 284
f 218 284 32
f 219 127 218
f 219 218 32
f 33 222 121
f 33 121 221
f 283 122 222
f 283 222 33
f 220 125 283
f 220 283 33
f 221 124 220
f 221 220 33
f 285 132 223
f 285 223 34
f 34 223 133
f 34 133 255
f 34 255 103
f 34 103 230
f 230 128 285
f 230 285 34
f 286 130 224
f 286 224 35
f 35 224 134
f 35 134 256
f 35 256 133
f 35 133 223
f 35 223 132
f 35 132 286
f 279 113 225
f 279 225 36
f 36 225 114
f 36 114 257
f 36 257 134
f 36 134 224
f 224 130 279
f 224 279 36
f 280 116 226
f 280 226 37
f 37 226 117
f 37 117 258
f 37 258 114
f 37 114 225
f 225 113 280
f 225 280 37
f 281 119 227
f 281 227 38
f 38 227 120
f 38 120 259
f 38 259 117
f 38 117 226
f 226 116 281
f 226 281 38
f 282 122 228
f 282 228 39
f 39 228 123
f 39 123 260
f 39 260 120
f 39 120 227
f 227 119 282
f 227 282 39
f 283 125 229
f 283 229 40
f 40 229 126
f 40 126 261
f 40 261 123
f 40 123 228
f 40 228 122
f 40 122 283
f 41 230 103
f 41 103 262
f 284 128 230
f 284 230 41
f 41 262 126
f 41 126 229
f 41 229 125
f 41 125 284
f 42 231 104
f 42 104 263
f 255 133 231
f 255 231 42
f 42 263 111
f 42 111 238
f 42 238 103
f 42 103 255
f 43 232 105
f 43 105 264
f 256 134 232
f 256 232 43
f 43 264 104
f 43 104 231
f 43 231 133
f 43 133 256
f 44 233 106
f 44 106 265
f 257 114 233
f 257 233 44
f 44 265 105
f 44 105 232
f 44 232 134
f 44 134 257
f 45 234 107
f 45 107 266
f 258 117 234
f 258 234 45
f 45 266 106
f 45 106 233
f 45 233 114
f 45 114 258
f 46 235 108
f 46 108 267
f 259 120 235
f 259 235 46
f 46 267 107
f 46 107 234
f 46 234 117
f 46 117 259
f 47 236 109
f 47 109 268
f 260 123 236
f 260 236 47
f 47 268 108
f 47 108 235
f 47 235 120
f 47 120 260
f 48 237 110
f 48 110 269
f 261 126 237
f 261 237 48
f 48 269 109
f 48 109 236
f 48 236 123
f 48 123 261
f 262 103 238
f 262 238 49
f 49 238 111
f 49 111 270
f 49 270 110
f 49 110 237
f 49 237 126
f 49 126 262
f 263 104 239
f 263 239 50
f 50 239 141
f 50 141 271
f 50 271 140
f 50 140 246
f 50 246 111
f 50 111 263
f 264 105 240
f 264 240 51
f 51 240 142
f 51 142 272
f 51 272 141
f 51 141 239
f 51 239 104
f 51 104 264
f 265 106 241
f 265 241 52
f 52 241 135
f 52 135 273
f 52 273 142
f 52 142 240
f 52 240 105
f 52 105 265
f 266 107 242
f 266 242 53
f 53 242 136
f 53 136 274
f 53 274 135
f 53 135 241
f 53 241 106
f 53 106 266
f 267 108 243
f 267 243 54
f 54 243 137
f 54 137 275
f 54 275 136
f 54 136 242
f 54 242 107
f 54 107 267
f 268 109 244
f 268 244 55
f 55 244 138
f 55 138 276
f 55 276 137
f 55 137 243
f 55 243 108
f 55 108 268
f 269 110 245
f 269 245 56
f 56 245 139
f 56 139 277
f 56 277 138
f 56 138 244
f 56 244 109
f 56 109 269
f 270 111 246
f 270 246 57
f 57 246 140
f 57 140 278
f 57 278 139
f 57 139 245
f 57 245 110
f 57 110 270
f 271 141 247
f 271 247 58
f 58 247 144
f 58 144 299
f 58 299 145
f 58 145 254
f 58 254 140
f 58 140 271
f 272 142 248
f 272 248 59
f 59 248 143
f 59 143 301
f 59 301 144
f 59 144 247
f 59 247 141
f 59 141 272
f 273 135 249
f 273 249 60
f 60 249 150
f 60 150 287
f 60 287 143
f 60 143 248
f 60 248 142
f 60 142 273
f 274 136 250
f 274 250 61
f 61 250 149
f 61 149 288
f 61 288 150
f 61 150 249
f 61 249 135
f 61 135 274
f 275 137 251
f 275 251 62
f 62 251 148
f 62 148 291
f 62 291 149
f 62 149 250
f 62 250 136
f 62 136 275
f 276 138 252
f 276 252 63
f 63 252 147
f 63 147 293
f 63 293 148
f 63 148 251
f 63 251 137
f 63 137 276
f 277 139 253
f 277 253 64
f 64 253 146
f 64 146 295
f 64 295 147
f 64 147 252
f 64 252 138
f 64 138 277
f 278 140 254
f 278 254 65
f 65 254 145
f 65 145 297
f 65 297 146
f 65 146 253
f 65 253 139
f 65 139 278
f 287 150 289
f 287 289 66
f 66 289 158
f 66 158 303
f 66 303 151
f 66 151 302
f 302 143 287
f 302 287 66
f 288 149 290
f 288 290 67
f 67 290 157
f 67 157 317
f 67 317 158
f 67 158 289
f 289 150 288
f 289 288 67
f 291 148 292
f 291 292 68
f 68 292 156
f 68 156 315
f 68 315 157
f 68 157 290
f 68 290 149
f 68 149 291
f 293 147 294
f 293 294 69
f 69 294 155
f 69 155 313
f 69 313 156
f 69 156 292
f 69 292 148
f 69 148 293
f 295 146 296
f 295 296 70
f 70 296 154
f 70 154 311
f 70 311 155
f 70 155 294
f 70 294 147
f 70 147 295
f 297 145 298
f 297 298 71
f 71 298 153
f 71 153 309
f 71 309 154
f 71 154 296
f 71 296 146
f 71 146 297
f 299 144 300
f 299 300 72
f 72 300 152
f 72 152 307
f 72 307 153
f 72 153 298
f 72 298 145
f 72 145 299
f 301 143 302
f 301 302 73
f 73 302 151
f 73 151 304
f 73 304 152
f 73 152 300
f 73 300 144
f 73 144 301
f 74 305 151
f 74 151 303
f 322 159 305
f 322 305 74
f 74 303 158
f 74 158 318
f 74 318 160
f 74 160 322
f 75 306 152
f 75 152 304
f 305 159 306
f 305 306 75
f 75 304 151
f 75 151 305
f 76 308 153
f 76 153 307
f 319 161 308
f 319 308 76
f 306 159 319
f 306 319 76
f 307 152 306
f 307 306 76
f 77 310 154
f 77 154 309
f 308 161 310
f 308 310 77
f 309 153 308
f 309 308 77
f 78 312 155
f 78 155 311
f 320 162 312
f 320 312 78
f 310 161 320
f 310 320 78
f 311 154 310
f 311 310 78
f 79 314 156
f 79 156 313
f 312 162 314
f 312 314 79
f 313 155 312
f 313 312 79
f 80 316 157
f 80 157 315
f 321 160 316
f 321 316 80
f 315 156 314
f 315 314 80
f 80 314 162
f 80 162 321
f 81 318 158
f 81 158 317
f 316 160 318
f 316 318 81
f 317 157 316
f 317 316 81
f 322 160 321
f 322 321 82
f 82 321 162
f 82 162 320
f 319 159 322
f 319 322 82
f 320 161 319
f 320 319 82
f 173 10 174
f 173 174 84
f 89 163 1
f 89 1 178
f 178 1 180
f 178 180 90
f 175 10 173
f 175 173 93
f 172 10 175
f 172 175 95
f 96 174 10
f 96 10 172
f 176 1 163
f 176 163 97
f 98 180 1
f 98 1 176
