# _2nd_Middle_Phalanx_Foot_L posed
v 0.976404 0.019139 0.244438
v 0.977003 0.019371 0.245227
v 0.976682 0.020392 0.245704
v 0.976034 0.020501 0.244947
v 0.977088 0.021549 0.247159
v 0.976639 0.022574 0.247201
v 0.977487 0.021823 0.247844
v 0.977097 0.022919 0.248175
v 0.977781 0.022831 0.249454
v 0.978016 0.021732 0.248695
v 0.980154 0.020223 0.249417
v 0.979562 0.020000 0.248722
v 0.979094 0.020703 0.248943
v 0.979569 0.021119 0.249912
v 0.976697 0.021128 0.246379
v 0.976252 0.021766 0.245896
v 0.977444 0.017927 0.244442
v 0.977728 0.018430 0.245210
v 0.978776 0.017161 0.244970
v 0.978571 0.017846 0.245574
v 0.979900 0.016750 0.245770
v 0.979197 0.017688 0.246180
v 0.980802 0.016612 0.246812
v 0.979792 0.017620 0.246951
v 0.981237 0.016718 0.247918
v 0.980109 0.017593 0.247723
v 0.979933 0.019163 0.248636
v 0.980754 0.019053 0.249302
v 0.980194 0.018116 0.248363
v 0.981147 0.017638 0.248977
v 0.978552 0.021327 0.249178
v 0.978631 0.022101 0.250133
v 0.978455 0.018749 0.246190
v 0.977924 0.019564 0.246284
v 0.977463 0.020418 0.246555
v 0.979025 0.018850 0.247048
v 0.978529 0.019734 0.247163
v 0.978149 0.020609 0.247407
v 0.979507 0.019022 0.247928
v 0.979089 0.019915 0.248039
v 0.978693 0.020636 0.248224
v 0.979463 0.024092 0.246657
v 0.978975 0.023688 0.245649
v 0.978743 0.023002 0.244766
v 0.978707 0.022232 0.243949
v 0.978983 0.021185 0.243363
v 0.979672 0.020119 0.243183
v 0.980531 0.019261 0.243481
v 0.981445 0.018635 0.244051
v 0.982367 0.018351 0.244863
v 0.982929 0.018603 0.245909
v 0.983162 0.019357 0.246934
v 0.982934 0.020359 0.247627
v 0.982526 0.021404 0.248044
v 0.981984 0.022365 0.248327
v 0.981219 0.023360 0.248258
v 0.980243 0.024117 0.247612
v 0.982043 0.024865 0.244692
v 0.981616 0.024638 0.243957
v 0.981475 0.024113 0.243272
v 0.981492 0.023475 0.242739
v 0.981761 0.022735 0.242393
v 0.982224 0.021971 0.242260
v 0.982818 0.021323 0.242408
v 0.983467 0.020767 0.242740
v 0.984165 0.020519 0.243351
v 0.984670 0.020635 0.244122
v 0.984779 0.021298 0.244827
v 0.984652 0.021990 0.245366
v 0.984332 0.022808 0.245682
v 0.983901 0.023532 0.245824
v 0.983349 0.024169 0.245728
v 0.982695 0.024686 0.245383
v 0.983578 0.025853 0.243480
v 0.983072 0.025715 0.242789
v 0.982862 0.025236 0.242048
v 0.983040 0.024511 0.241623
v 0.983370 0.023770 0.241382
v 0.983808 0.023060 0.241285
v 0.984358 0.022400 0.241386
v 0.984998 0.021841 0.241676
v 0.985611 0.021618 0.242271
v 0.986091 0.021743 0.242991
v 0.986201 0.022328 0.243660
v 0.986117 0.023005 0.244176
v 0.985798 0.023783 0.244479
v 0.985389 0.024519 0.244621
v 0.984851 0.025176 0.244518
v 0.984215 0.025693 0.244212
v 0.985739 0.028244 0.241830
v 0.985212 0.027952 0.240903
v 0.985075 0.027214 0.240085
v 0.985310 0.026291 0.239582
v 0.985686 0.025428 0.239313
v 0.986152 0.024608 0.239195
v 0.986744 0.023758 0.239212
v 0.987530 0.022969 0.239530
v 0.988370 0.022606 0.240287
v 0.989031 0.022777 0.241281
v 0.989129 0.023642 0.242158
v 0.988857 0.024627 0.242667
v 0.988451 0.025491 0.242900
v 0.988035 0.026280 0.243054
v 0.987404 0.027223 0.243141
v 0.986743 0.028125 0.243008
v 0.981646 0.020888 0.249004
v 0.982161 0.019716 0.248773
v 0.981052 0.021818 0.249437
v 0.980160 0.023086 0.249433
v 0.982573 0.018363 0.248151
v 0.982432 0.017345 0.246836
v 0.981664 0.017236 0.245697
v 0.980742 0.017424 0.244626
v 0.979703 0.018022 0.243798
v 0.978558 0.018954 0.243330
v 0.977558 0.020295 0.243411
v 0.977252 0.021674 0.244118
v 0.977386 0.022687 0.245128
v 0.977688 0.023490 0.246230
v 0.978166 0.023805 0.247382
v 0.979035 0.023784 0.248690
v 0.980976 0.020514 0.249460
v 0.981530 0.019358 0.249243
v 0.980371 0.021428 0.249880
v 0.979424 0.022671 0.250054
v 0.981961 0.017896 0.248715
v 0.981947 0.016854 0.247361
v 0.981319 0.016765 0.246183
v 0.980356 0.016907 0.245121
v 0.979220 0.017355 0.244242
v 0.976808 0.019673 0.243690
v 0.976691 0.022347 0.245438
v 0.977973 0.018297 0.243647
v 0.976492 0.021224 0.244367
v 0.976994 0.023272 0.246657
v 0.977492 0.023578 0.247851
v 0.978329 0.023524 0.249188
v 0.989803 0.023422 0.239535
v 0.990347 0.023796 0.240472
v 0.990396 0.024659 0.241240
v 0.990104 0.025595 0.241673
v 0.989761 0.026423 0.241958
v 0.989367 0.027300 0.242224
v 0.988736 0.028286 0.242306
v 0.987960 0.028970 0.242035
v 0.986976 0.029137 0.241065
v 0.986399 0.028853 0.240071
v 0.986137 0.028130 0.239172
v 0.986324 0.027139 0.238572
v 0.986713 0.026184 0.238237
v 0.987207 0.025272 0.238057
v 0.987858 0.024349 0.238049
v 0.988695 0.023702 0.238484
v 0.989800 0.026849 0.240865
v 0.989442 0.027582 0.241021
v 0.989015 0.028276 0.241150
v 0.988453 0.028796 0.241070
v 0.987827 0.028933 0.240562
v 0.987265 0.028746 0.239715
v 0.986975 0.028141 0.239002
v 0.987184 0.027490 0.238548
v 0.987613 0.026650 0.238265
v 0.988023 0.025872 0.238047
v 0.988547 0.025266 0.238082
v 0.989176 0.024772 0.238399
v 0.989991 0.024652 0.239142
v 0.990338 0.024968 0.239788
v 0.990352 0.025420 0.240220
v 0.990112 0.026147 0.240574
v 0.989166 0.025948 0.242574
v 0.989557 0.025064 0.242329
v 0.989897 0.024055 0.241907
v 0.988775 0.026775 0.242778
v 0.988112 0.027776 0.242948
v 0.987338 0.028727 0.242684
v 0.989862 0.023113 0.240905
v 0.989155 0.022869 0.239844
v 0.988117 0.023206 0.238917
v 0.987227 0.023968 0.238523
v 0.986603 0.024897 0.238521
v 0.986126 0.025799 0.238703
v 0.985754 0.026716 0.239019
v 0.985502 0.027723 0.239562
v 0.985659 0.028523 0.240492
v 0.986209 0.028863 0.241510
v 0.987971 0.027669 0.239179
v 0.988399 0.026832 0.238930
v 0.988788 0.026038 0.238661
v 0.988615 0.027727 0.239865
v 0.989005 0.026934 0.239595
v 0.989416 0.026107 0.239329
v 0.989092 0.027642 0.240480
v 0.989445 0.026983 0.240178
v 0.989812 0.026190 0.239949
v 0.984807 0.027052 0.242615
v 0.984321 0.026867 0.241702
v 0.984101 0.026336 0.240983
v 0.984310 0.025499 0.240500
v 0.984684 0.024733 0.240286
v 0.985157 0.023952 0.240213
v 0.985709 0.023276 0.240330
v 0.986404 0.022625 0.240616
v 0.987070 0.022300 0.241215
v 0.987592 0.022489 0.242033
v 0.987738 0.023055 0.242822
v 0.987598 0.023881 0.243350
v 0.987246 0.024704 0.243553
v 0.986810 0.025485 0.243688
v 0.986235 0.026221 0.243633
v 0.985572 0.026864 0.243327
v 0.980680 0.024313 0.245755
v 0.980208 0.024046 0.244896
v 0.980015 0.023484 0.244165
v 0.980061 0.022738 0.243522
v 0.980294 0.021918 0.243071
v 0.980793 0.021064 0.242897
v 0.981511 0.020293 0.243101
v 0.982301 0.019724 0.243528
v 0.983066 0.019413 0.244174
v 0.983578 0.019661 0.245084
v 0.983832 0.020256 0.245926
v 0.983691 0.021101 0.246555
v 0.983308 0.022021 0.246918
v 0.982841 0.022847 0.247139
v 0.982190 0.023685 0.247020
v 0.981433 0.024255 0.246593
f 33 18 20
f 33 20 22
f 34 2 18
f 34 18 33
f 5 15 3
f 5 3 35
f 35 3 2
f 35 2 34
f 33 22 24
f 33 24 36
f 26 29 27
f 26 27 39
f 36 24 26
f 36 26 39
f 34 33 36
f 34 36 37
f 39 27 12
f 39 12 40
f 37 36 39
f 37 39 40
f 7 5 35
f 7 35 38
f 35 34 37
f 35 37 38
f 40 12 13
f 40 13 41
f 10 7 38
f 10 38 41
f 41 13 31
f 41 31 10
f 38 37 40
f 38 40 41
f 1 2 3
f 1 3 4
f 17 18 2
f 17 2 1
f 1 4 134
f 1 134 131
f 131 133 17
f 131 17 1
f 4 3 15
f 4 15 16
f 4 16 132
f 4 132 134
f 6 5 7
f 6 7 8
f 16 15 5
f 16 5 6
f 6 8 136
f 6 136 135
f 135 132 16
f 135 16 6
f 8 7 10
f 8 10 9
f 8 9 137
f 8 137 136
f 9 10 31
f 9 31 32
f 9 32 125
f 9 125 137
f 14 13 12
f 14 12 11
f 11 12 27
f 11 27 28
f 122 124 14
f 122 14 11
f 11 28 123
f 11 123 122
f 32 31 13
f 32 13 14
f 124 125 32
f 124 32 14
f 19 20 18
f 19 18 17
f 133 130 19
f 133 19 17
f 21 22 20
f 21 20 19
f 130 129 21
f 130 21 19
f 23 24 22
f 23 22 21
f 129 128 23
f 129 23 21
f 25 26 24
f 25 24 23
f 128 127 25
f 128 25 23
f 30 29 26
f 30 26 25
f 127 126 30
f 127 30 25
f 28 27 29
f 28 29 30
f 28 30 126
f 28 126 123
f 122 123 107
f 122 107 106
f 106 108 124
f 106 124 122
f 123 126 110
f 123 110 107
f 108 109 125
f 108 125 124
f 109 121 137
f 109 137 125
f 126 127 111
f 126 111 110
f 127 128 112
f 127 112 111
f 128 129 113
f 128 113 112
f 129 130 114
f 129 114 113
f 130 133 115
f 130 115 114
f 133 131 116
f 133 116 115
f 131 134 117
f 131 117 116
f 134 132 118
f 134 118 117
f 132 135 119
f 132 119 118
f 135 136 120
f 135 120 119
f 136 137 121
f 136 121 120
f 171 141 142
f 171 142 170
f 172 140 141
f 172 141 171
f 170 142 143
f 170 143 173
f 173 143 144
f 173 144 174
f 174 144 145
f 174 145 175
f 176 139 140
f 176 140 172
f 138 139 176
f 138 176 177
f 153 138 177
f 153 177 178
f 179 152 153
f 179 153 178
f 151 152 179
f 151 179 180
f 150 151 180
f 150 180 181
f 149 150 181
f 149 181 182
f 148 149 182
f 148 182 183
f 147 148 183
f 147 183 184
f 185 175 145
f 185 145 146
f 146 147 184
f 146 184 185
f 160 148 147
f 160 147 159
f 149 148 160
f 149 160 161
f 150 149 161
f 150 161 162
f 164 152 151
f 164 151 163
f 151 150 162
f 151 162 163
f 153 152 164
f 153 164 165
f 159 147 146
f 159 146 158
f 186 161 160
f 186 160 159
f 187 162 161
f 187 161 186
f 165 164 163
f 165 163 188
f 188 163 162
f 188 162 187
f 138 153 165
f 138 165 166
f 145 144 156
f 145 156 157
f 158 146 145
f 158 145 157
f 156 144 143
f 156 143 155
f 189 158 157
f 189 157 192
f 186 159 158
f 186 158 189
f 157 156 155
f 157 155 192
f 155 143 142
f 155 142 154
f 187 186 189
f 187 189 190
f 192 155 154
f 192 154 193
f 190 189 192
f 190 192 193
f 166 165 188
f 166 188 191
f 141 140 168
f 141 168 169
f 154 142 141
f 154 141 169
f 188 187 190
f 188 190 191
f 168 140 139
f 168 139 167
f 193 154 169
f 193 169 194
f 139 138 166
f 139 166 167
f 167 166 191
f 167 191 194
f 194 169 168
f 194 168 167
f 191 190 193
f 191 193 194
f 196 75 74
f 196 74 195
f 91 90 185
f 91 185 184
f 196 195 90
f 196 90 91
f 197 76 75
f 197 75 196
f 92 91 184
f 92 184 183
f 197 196 91
f 197 91 92
f 198 77 76
f 198 76 197
f 93 92 183
f 93 183 182
f 198 197 92
f 198 92 93
f 199 78 77
f 199 77 198
f 94 93 182
f 94 182 181
f 199 198 93
f 199 93 94
f 200 79 78
f 200 78 199
f 95 94 181
f 95 181 180
f 200 199 94
f 200 94 95
f 201 80 79
f 201 79 200
f 96 95 180
f 96 180 179
f 201 200 95
f 201 95 96
f 202 81 80
f 202 80 201
f 97 96 179
f 97 179 178
f 202 201 96
f 202 96 97
f 203 82 81
f 203 81 202
f 98 97 178
f 98 178 177
f 203 202 97
f 203 97 98
f 204 83 82
f 204 82 203
f 99 98 177
f 99 177 176
f 204 203 98
f 204 98 99
f 205 84 83
f 205 83 204
f 100 99 176
f 100 176 172
f 205 204 99
f 205 99 100
f 206 85 84
f 206 84 205
f 101 100 172
f 101 172 171
f 206 205 100
f 206 100 101
f 207 86 85
f 207 85 206
f 102 101 171
f 102 171 170
f 207 206 101
f 207 101 102
f 208 87 86
f 208 86 207
f 103 102 170
f 103 170 173
f 208 207 102
f 208 102 103
f 209 88 87
f 209 87 208
f 104 103 173
f 104 173 174
f 209 208 103
f 209 103 104
f 105 90 195
f 105 195 210
f 195 74 89
f 195 89 210
f 105 104 174
f 105 174 175
f 210 209 104
f 210 104 105
f 175 185 90
f 175 90 105
f 210 89 88
f 210 88 209
f 211 212 43
f 211 43 42
f 42 43 119
f 42 119 120
f 42 57 226
f 42 226 211
f 120 121 57
f 120 57 42
f 212 213 44
f 212 44 43
f 43 44 118
f 43 118 119
f 213 214 45
f 213 45 44
f 44 45 117
f 44 117 118
f 214 215 46
f 214 46 45
f 45 46 116
f 45 116 117
f 215 216 47
f 215 47 46
f 46 47 115
f 46 115 116
f 216 217 48
f 216 48 47
f 47 48 114
f 47 114 115
f 217 218 49
f 217 49 48
f 48 49 113
f 48 113 114
f 218 219 50
f 218 50 49
f 49 50 112
f 49 112 113
f 219 220 51
f 219 51 50
f 50 51 111
f 50 111 112
f 220 221 52
f 220 52 51
f 51 52 110
f 51 110 111
f 221 222 53
f 221 53 52
f 52 53 107
f 52 107 110
f 222 223 54
f 222 54 53
f 53 54 106
f 53 106 107
f 223 224 55
f 223 55 54
f 54 55 108
f 54 108 106
f 224 225 56
f 224 56 55
f 55 56 109
f 55 109 108
f 225 226 57
f 225 57 56
f 56 57 121
f 56 121 109
f 74 75 59
f 74 59 58
f 58 59 212
f 58 212 211
f 58 73 89
f 58 89 74
f 211 226 73
f 211 73 58
f 75 76 60
f 75 60 59
f 59 60 213
f 59 213 212
f 76 77 61
f 76 61 60
f 60 61 214
f 60 214 213
f 77 78 62
f 77 62 61
f 61 62 215
f 61 215 214
f 78 79 63
f 78 63 62
f 62 63 216
f 62 216 215
f 79 80 64
f 79 64 63
f 63 64 217
f 63 217 216
f 80 81 65
f 80 65 64
f 64 65 218
f 64 218 217
f 81 82 66
f 81 66 65
f 65 66 219
f 65 219 218
f 82 83 67
f 82 67 66
f 66 67 220
f 66 220 219
f 83 84 68
f 83 68 67
f 67 68 221
f 67 221 220
f 84 85 69
f 84 69 68
f 68 69 222
f 68 222 221
f 85 86 70
f 85 70 69
f 69 70 223
f 69 223 222
f 86 87 71
f 86 71 70
f 70 71 224
f 70 224 223
f 87 88 72
f 87 72 71
f 71 72 225
f 71 225 224
f 88 89 73
f 88 73 72
f 72 73 226
f 72 226 225
