# _2nd_Metacarpal_L posed
v -0.791833 -0.280827 0.385201
v -0.795695 -0.280503 0.388272
v -0.798141 -0.280904 0.386185
v -0.794592 -0.280747 0.383304
v -0.802895 -0.294792 0.391583
v -0.806497 -0.296286 0.389576
v -0.807258 -0.293018 0.390513
v -0.804485 -0.291577 0.392467
v -0.800597 -0.286022 0.391091
v -0.800804 -0.290448 0.382271
v -0.796499 -0.284402 0.381307
v -0.804975 -0.295512 0.385304
v -0.804406 -0.286081 0.389639
v -0.806939 -0.292411 0.386567
v -0.800441 -0.283434 0.383467
v -0.804050 -0.287898 0.385017
v -0.796412 -0.286845 0.390657
v -0.800656 -0.296446 0.386126
v -0.796748 -0.291290 0.383360
v -0.791673 -0.284995 0.381363
v -0.787444 -0.283528 0.385843
v -0.791822 -0.288348 0.390259
v -0.796732 -0.295383 0.391129
v -0.795332 -0.295525 0.386902
v -0.791684 -0.291903 0.383889
v -0.787787 -0.286692 0.382770
v -0.781719 -0.289512 0.383426
v -0.781822 -0.288066 0.386228
v -0.784871 -0.291485 0.389635
v -0.788336 -0.296943 0.389680
v -0.787885 -0.297395 0.386093
v -0.784675 -0.293941 0.383358
v -0.773441 -0.294446 0.381910
v -0.773499 -0.293393 0.384622
v -0.775696 -0.296332 0.387475
v -0.778330 -0.300957 0.387333
v -0.777918 -0.301221 0.383996
v -0.775700 -0.298454 0.381667
v -0.765262 -0.300117 0.378161
v -0.765238 -0.299101 0.381285
v -0.767066 -0.302214 0.384341
v -0.769362 -0.306906 0.384152
v -0.769155 -0.307307 0.380476
v -0.767311 -0.304370 0.378018
v -0.759083 -0.304922 0.373013
v -0.758415 -0.303739 0.376732
v -0.759812 -0.307132 0.381463
v -0.761921 -0.313042 0.380960
v -0.762451 -0.313678 0.376998
v -0.761031 -0.309795 0.373995
v -0.756195 -0.314198 0.369830
v -0.757050 -0.318777 0.373844
v -0.753578 -0.308033 0.365761
v -0.754379 -0.320668 0.380841
v -0.752660 -0.305114 0.372125
v -0.752383 -0.311726 0.377054
v -0.800122 -0.282554 0.389737
v -0.806623 -0.289914 0.388130
v -0.802433 -0.283916 0.386130
v -0.804941 -0.289030 0.391786
v -0.804509 -0.291671 0.384312
v -0.800806 -0.286616 0.382627
v -0.797334 -0.281664 0.383016
v -0.807497 -0.294986 0.387976
v -0.795378 -0.281614 0.385667
v -0.795784 -0.283120 0.389474
v -0.801184 -0.289881 0.391811
v -0.804882 -0.293659 0.390680
v -0.804776 -0.297365 0.388304
v -0.800859 -0.294094 0.383556
v -0.796155 -0.288110 0.381128
v -0.792673 -0.282027 0.382009
v -0.768874 -0.296204 0.381470
v -0.770108 -0.297548 0.384561
v -0.772690 -0.301815 0.386661
v -0.773935 -0.304703 0.384108
v -0.772470 -0.303102 0.380892
v -0.770047 -0.299196 0.379571
v -0.797210 -0.291128 0.391882
v -0.791008 -0.292888 0.391135
v -0.782074 -0.296331 0.389334
v -0.799850 -0.296552 0.389182
v -0.792918 -0.296762 0.388618
v -0.783657 -0.299598 0.387012
v -0.796450 -0.293835 0.385111
v -0.790394 -0.294634 0.385022
v -0.781804 -0.297844 0.383697
v -0.791904 -0.288937 0.382352
v -0.778701 -0.293654 0.382370
v -0.786557 -0.290307 0.383080
v -0.791631 -0.283897 0.388793
v -0.786645 -0.287062 0.388425
v -0.789471 -0.283552 0.383419
v -0.784680 -0.286187 0.384469
v -0.777387 -0.290685 0.384112
v -0.778912 -0.291784 0.387356
v -0.764729 -0.309055 0.377175
v -0.762774 -0.304947 0.375446
v -0.765767 -0.310634 0.380650
v -0.761387 -0.301309 0.377210
v -0.762376 -0.302953 0.381225
v -0.764479 -0.307598 0.383254
v -0.755112 -0.306419 0.377364
v -0.759394 -0.318502 0.378452
v -0.759443 -0.314584 0.373212
v -0.757436 -0.312796 0.381745
v -0.758025 -0.309466 0.370446
v -0.754957 -0.314362 0.370500
v -0.755467 -0.304467 0.371180
v -0.752426 -0.311690 0.370445
v -0.753269 -0.316619 0.374737
v -0.793657 -0.280620 0.387296
v -0.797426 -0.280818 0.387789
v -0.796410 -0.280848 0.384229
v -0.792675 -0.280703 0.383438
v -0.804634 -0.296297 0.390062
v -0.807322 -0.294877 0.389770
v -0.805951 -0.291670 0.391809
v -0.803372 -0.292786 0.392519
v -0.797988 -0.282806 0.390116
v -0.802932 -0.289094 0.392034
v -0.806550 -0.296681 0.387886
v -0.798613 -0.287465 0.381446
v -0.794868 -0.281723 0.381997
v -0.802876 -0.293168 0.383445
v -0.801590 -0.282491 0.388282
v -0.802816 -0.285770 0.390976
v -0.806664 -0.289568 0.390604
v -0.807849 -0.292839 0.388373
v -0.806246 -0.293785 0.385833
v -0.799749 -0.281793 0.384470
v -0.798910 -0.284051 0.382431
v -0.805678 -0.290400 0.385824
v -0.804733 -0.286942 0.387302
v -0.802260 -0.285282 0.384079
v -0.802692 -0.289191 0.383324
v -0.798555 -0.286582 0.390661
v -0.799449 -0.290578 0.391940
v -0.793707 -0.283261 0.389004
v -0.803053 -0.296661 0.385384
v -0.798969 -0.293948 0.384751
v -0.798675 -0.291182 0.382380
v -0.794103 -0.288480 0.381805
v -0.793918 -0.284677 0.381004
v -0.802480 -0.296990 0.388988
v -0.791051 -0.282592 0.382724
v -0.789694 -0.282261 0.385566
v -0.794237 -0.287396 0.390493
v -0.789407 -0.285156 0.388648
v -0.794468 -0.291816 0.391597
v -0.799833 -0.295008 0.391443
v -0.796605 -0.296303 0.389008
v -0.798172 -0.295849 0.386648
v -0.793693 -0.293974 0.385242
v -0.794364 -0.291499 0.383784
v -0.789499 -0.289523 0.382766
v -0.789773 -0.285664 0.382035
v -0.787377 -0.284655 0.383983
v -0.781307 -0.288187 0.384565
v -0.783194 -0.289356 0.388109
v -0.786865 -0.294402 0.390367
v -0.788657 -0.297927 0.387947
v -0.786443 -0.295977 0.384459
v -0.782927 -0.291591 0.382968
v -0.773124 -0.293391 0.383084
v -0.774357 -0.294414 0.386187
v -0.777274 -0.298855 0.388134
v -0.778477 -0.301670 0.385676
v -0.776942 -0.300128 0.382590
v -0.774371 -0.296338 0.381349
v -0.764922 -0.298962 0.379479
v -0.766050 -0.300368 0.382936
v -0.768377 -0.304824 0.384997
v -0.769651 -0.307737 0.382376
v -0.768351 -0.306152 0.379003
v -0.766160 -0.302150 0.377621
v -0.758330 -0.303223 0.374373
v -0.759056 -0.305285 0.379225
v -0.760987 -0.310378 0.382043
v -0.762565 -0.314264 0.379174
v -0.761811 -0.312024 0.375240
v -0.760033 -0.307353 0.373056
v -0.777659 -0.291718 0.382913
v -0.777914 -0.290767 0.385687
v -0.780378 -0.293746 0.388759
v -0.783371 -0.298671 0.388685
v -0.783012 -0.299136 0.385205
v -0.780254 -0.295926 0.382695
v -0.769136 -0.297224 0.380183
v -0.769271 -0.296394 0.383066
v -0.771243 -0.299336 0.385870
v -0.773727 -0.303903 0.385868
v -0.773402 -0.304238 0.382319
v -0.771320 -0.301400 0.379920
v -0.761847 -0.302784 0.375786
v -0.761614 -0.301477 0.379281
v -0.763265 -0.304860 0.382841
v -0.765363 -0.309639 0.382311
v -0.765423 -0.310262 0.378717
v -0.763830 -0.307201 0.376075
v -0.788711 -0.289724 0.390027
v -0.792786 -0.295881 0.390516
v -0.791961 -0.296077 0.386701
v -0.788498 -0.292645 0.383756
v -0.785165 -0.287909 0.383341
v -0.784967 -0.285558 0.386208
v -0.758873 -0.312134 0.371822
v -0.759668 -0.317003 0.375354
v -0.757678 -0.316030 0.372007
v -0.756081 -0.311006 0.368101
v -0.756675 -0.306422 0.369693
v -0.755396 -0.321920 0.377779
v -0.758583 -0.317111 0.380786
v -0.755293 -0.304872 0.374150
v -0.752397 -0.305800 0.368082
v -0.756477 -0.308704 0.380786
v -0.751811 -0.309794 0.375503
v -0.751957 -0.315139 0.378960
v -0.754896 -0.316372 0.372633
v -0.753370 -0.312353 0.368060
v -0.793642 -0.281086 0.384270
v -0.793047 -0.280901 0.385288
v -0.794159 -0.280948 0.386613
v -0.795546 -0.280654 0.387509
v -0.796711 -0.281172 0.386975
v -0.797197 -0.281174 0.386083
v -0.796193 -0.281300 0.384792
v -0.794817 -0.281011 0.383930
v -0.803985 -0.293260 0.391866
v -0.803766 -0.294485 0.391276
v -0.804556 -0.295243 0.390285
v -0.805924 -0.295455 0.389881
v -0.806296 -0.294339 0.390083
v -0.806486 -0.293353 0.390625
v -0.805597 -0.292547 0.391343
v -0.804711 -0.292391 0.392097
v -0.751537 -0.306860 0.373457
v -0.753388 -0.310325 0.379982
v -0.753692 -0.314149 0.381401
v -0.755484 -0.318043 0.372933
v -0.752795 -0.310383 0.365746
v -0.751499 -0.308151 0.368335
v -0.753450 -0.313801 0.372776
v -0.752856 -0.308617 0.378276
v -0.752598 -0.321430 0.376268
v -0.751389 -0.321058 0.379458
v -0.799108 -0.282688 0.390072
v -0.801535 -0.284078 0.390458
v -0.801720 -0.285837 0.391154
v -0.799321 -0.284395 0.390682
v -0.800462 -0.284214 0.390708
v -0.803974 -0.287429 0.391447
v -0.803908 -0.288957 0.391991
v -0.801820 -0.287596 0.391568
v -0.802885 -0.287431 0.391607
v -0.799563 -0.286331 0.390833
v -0.797169 -0.284856 0.390123
v -0.796869 -0.282969 0.389856
v -0.798234 -0.284661 0.390388
v -0.802034 -0.289455 0.391916
v -0.799894 -0.288243 0.391232
v -0.800842 -0.287924 0.391358
v -0.801759 -0.287904 0.382932
v -0.799776 -0.287091 0.381976
v -0.799717 -0.288983 0.381799
v -0.801817 -0.289849 0.382704
v -0.800804 -0.288483 0.382287
v -0.797365 -0.287812 0.381150
v -0.797386 -0.289718 0.381636
v -0.799679 -0.290929 0.382102
v -0.798524 -0.289414 0.381553
v -0.801845 -0.291839 0.382804
v -0.803764 -0.292438 0.383794
v -0.803607 -0.290455 0.383772
v -0.802797 -0.291172 0.383193
v -0.799835 -0.292623 0.383017
v -0.801858 -0.293766 0.383318
v -0.800781 -0.292369 0.382677
v -0.799840 -0.285340 0.382448
v -0.797773 -0.284273 0.381816
v -0.797532 -0.285930 0.381279
v -0.798761 -0.285689 0.381814
v -0.798062 -0.282746 0.382609
v -0.796102 -0.281696 0.382411
v -0.795553 -0.282926 0.381539
v -0.796840 -0.282859 0.382002
v -0.795189 -0.284539 0.381046
v -0.794964 -0.286369 0.380916
v -0.796233 -0.286159 0.380978
v -0.793704 -0.281839 0.381875
v -0.793139 -0.283211 0.381391
v -0.794302 -0.283046 0.381351
v -0.805675 -0.294658 0.385511
v -0.805398 -0.292802 0.384988
v -0.803932 -0.294425 0.384260
v -0.804734 -0.293622 0.384555
v -0.807097 -0.295912 0.387865
v -0.807002 -0.294545 0.386862
v -0.805923 -0.296302 0.386592
v -0.806523 -0.295464 0.386668
v -0.804102 -0.296227 0.385256
v -0.804111 -0.297304 0.386841
v -0.805759 -0.297178 0.388035
v -0.805122 -0.296949 0.386652
v -0.801927 -0.295515 0.384292
v -0.802978 -0.295104 0.384150
v -0.805725 -0.288430 0.387764
v -0.806844 -0.289770 0.389451
v -0.805674 -0.287848 0.390212
v -0.804724 -0.286479 0.388532
v -0.805883 -0.288134 0.389064
v -0.805950 -0.289279 0.391360
v -0.803744 -0.285845 0.390469
v -0.804977 -0.287590 0.391001
v -0.802107 -0.283097 0.387247
v -0.803644 -0.285402 0.386777
v -0.803069 -0.284166 0.389038
v -0.803483 -0.284711 0.387961
v -0.800938 -0.282394 0.389128
v -0.802415 -0.284003 0.389890
v -0.807396 -0.291434 0.388347
v -0.806199 -0.290085 0.386891
v -0.806448 -0.291569 0.386229
v -0.807473 -0.292619 0.387313
v -0.806991 -0.291414 0.387189
v -0.805128 -0.290954 0.384977
v -0.806710 -0.292999 0.386220
v -0.805948 -0.292073 0.385527
v -0.807818 -0.293994 0.388198
v -0.807400 -0.293624 0.387137
v -0.802504 -0.284626 0.385043
v -0.801092 -0.282632 0.385320
v -0.800202 -0.282626 0.383828
v -0.801244 -0.284154 0.383689
v -0.801346 -0.283404 0.384435
v -0.798522 -0.281580 0.383702
v -0.799825 -0.283683 0.383000
v -0.799152 -0.282539 0.383220
v -0.801665 -0.285978 0.383302
v -0.800702 -0.284803 0.383054
v -0.803194 -0.286571 0.384547
v -0.804494 -0.287395 0.386104
v -0.803551 -0.285996 0.385606
v -0.803442 -0.288516 0.384092
v -0.802576 -0.287234 0.383671
v -0.804872 -0.289173 0.385432
v -0.804291 -0.289761 0.384515
v -0.805365 -0.288751 0.386529
v -0.800348 -0.290262 0.391833
v -0.797890 -0.288670 0.391394
v -0.797496 -0.286738 0.390599
v -0.798910 -0.288488 0.391248
v -0.798398 -0.290854 0.391957
v -0.795689 -0.289218 0.391285
v -0.795331 -0.287069 0.390598
v -0.796820 -0.288919 0.391377
v -0.795005 -0.285009 0.389953
v -0.794737 -0.283173 0.389195
v -0.796087 -0.284940 0.389987
v -0.792884 -0.285546 0.389783
v -0.792674 -0.283500 0.388877
v -0.793939 -0.285196 0.389889
v -0.799964 -0.294089 0.384169
v -0.799857 -0.295273 0.385383
v -0.801867 -0.296697 0.385705
v -0.800887 -0.295526 0.384768
v -0.797791 -0.293842 0.385053
v -0.797323 -0.294924 0.385794
v -0.799435 -0.296141 0.386430
v -0.798646 -0.295060 0.385682
v -0.801647 -0.297055 0.387456
v -0.803672 -0.297250 0.388664
v -0.802916 -0.297297 0.387139
v -0.799095 -0.296433 0.387838
v -0.801224 -0.296754 0.389152
v -0.800401 -0.296745 0.387689
v -0.795094 -0.288325 0.381392
v -0.795465 -0.289935 0.382558
v -0.797761 -0.291245 0.382910
v -0.796433 -0.289834 0.382086
v -0.793041 -0.288677 0.382132
v -0.793171 -0.290305 0.383029
v -0.795589 -0.291378 0.383620
v -0.794368 -0.290096 0.382863
v -0.795461 -0.292679 0.384464
v -0.797913 -0.292625 0.384072
v -0.796750 -0.292618 0.384360
v -0.798928 -0.292656 0.383582
v -0.791814 -0.282266 0.382328
v -0.791161 -0.283663 0.381882
v -0.792744 -0.284812 0.381125
v -0.792094 -0.283403 0.381587
v -0.790298 -0.283041 0.383092
v -0.789481 -0.284487 0.382587
v -0.790700 -0.285278 0.381678
v -0.790319 -0.284032 0.382226
v -0.790661 -0.287271 0.381972
v -0.792731 -0.286729 0.381346
v -0.791691 -0.286963 0.381657
v -0.793806 -0.286549 0.381065
v -0.790494 -0.282725 0.387215
v -0.790562 -0.284445 0.388724
v -0.788257 -0.284025 0.387270
v -0.788585 -0.282834 0.385692
v -0.789397 -0.283297 0.387237
v -0.788105 -0.286040 0.388544
v -0.785688 -0.286082 0.387333
v -0.786260 -0.284455 0.386036
v -0.787036 -0.284970 0.387311
v -0.788499 -0.284073 0.383710
v -0.789446 -0.282672 0.384352
v -0.787252 -0.283853 0.384785
v -0.788395 -0.283220 0.384566
v -0.784674 -0.285654 0.385255
v -0.786110 -0.285361 0.384252
v -0.786027 -0.284675 0.385036
v -0.795914 -0.291437 0.391758
v -0.793119 -0.290028 0.391029
v -0.793092 -0.287821 0.390376
v -0.794472 -0.289580 0.391163
v -0.792829 -0.292296 0.391397
v -0.789857 -0.291260 0.390714
v -0.790362 -0.288987 0.390148
v -0.791581 -0.290591 0.390888
v -0.790595 -0.286668 0.389561
v -0.791795 -0.286039 0.389675
v -0.787648 -0.288304 0.389294
v -0.789212 -0.287431 0.389431
v -0.800168 -0.296109 0.390456
v -0.798297 -0.296374 0.389126
v -0.796929 -0.296169 0.390163
v -0.798363 -0.295191 0.391322
v -0.798624 -0.296116 0.390341
v -0.794818 -0.296434 0.388844
v -0.793045 -0.296590 0.389638
v -0.794850 -0.295591 0.390858
v -0.795059 -0.296313 0.389930
v -0.795801 -0.293773 0.391637
v -0.798724 -0.293208 0.391941
v -0.797343 -0.293476 0.391820
v -0.792052 -0.294543 0.391055
v -0.794020 -0.294113 0.391383
v -0.795120 -0.293856 0.385208
v -0.794554 -0.294827 0.386019
v -0.796814 -0.295609 0.386821
v -0.795990 -0.294815 0.385941
v -0.792121 -0.294224 0.385180
v -0.791235 -0.295431 0.385822
v -0.793721 -0.295686 0.386860
v -0.792973 -0.295029 0.385978
v -0.796037 -0.296048 0.387904
v -0.797632 -0.296165 0.387910
v -0.792537 -0.296552 0.387633
v -0.794349 -0.296184 0.387814
v -0.790745 -0.289212 0.382567
v -0.790588 -0.290778 0.383248
v -0.793077 -0.291664 0.383876
v -0.791927 -0.290518 0.383160
v -0.788110 -0.289875 0.382955
v -0.787499 -0.291510 0.383320
v -0.790164 -0.292220 0.383851
v -0.789118 -0.291098 0.383311
v -0.792729 -0.292981 0.384547
v -0.794147 -0.292786 0.384545
v -0.789473 -0.293696 0.384329
v -0.791175 -0.293274 0.384475
v -0.787490 -0.285578 0.383276
v -0.788828 -0.286147 0.382407
v -0.788554 -0.285003 0.382940
v -0.784827 -0.286945 0.383818
v -0.786576 -0.287270 0.383097
v -0.786253 -0.286220 0.383583
v -0.788502 -0.288083 0.382596
v -0.789624 -0.287653 0.382289
v -0.785756 -0.289068 0.383089
v -0.787222 -0.288543 0.382881
v -0.783073 -0.287123 0.384581
v -0.781404 -0.288728 0.383921
v -0.783540 -0.288646 0.383459
v -0.783204 -0.287772 0.383938
v -0.779405 -0.289390 0.384410
v -0.777417 -0.291066 0.383448
v -0.779732 -0.290534 0.383234
v -0.779459 -0.289830 0.383753
v -0.778095 -0.292602 0.382541
v -0.780855 -0.292523 0.382720
v -0.782234 -0.290485 0.383099
v -0.780206 -0.291450 0.382878
v -0.784831 -0.290865 0.383088
v -0.784092 -0.289702 0.383168
v -0.785023 -0.288180 0.388300
v -0.782441 -0.288572 0.387177
v -0.783492 -0.286770 0.386283
v -0.784168 -0.287297 0.387303
v -0.781133 -0.290559 0.387789
v -0.778358 -0.291158 0.386529
v -0.779959 -0.289420 0.386027
v -0.780489 -0.289869 0.386915
v -0.777572 -0.290597 0.384870
v -0.781442 -0.287948 0.385344
v -0.779583 -0.289255 0.385179
v -0.783144 -0.286746 0.385365
v -0.789028 -0.293595 0.390790
v -0.785869 -0.292899 0.390147
v -0.786882 -0.290547 0.389874
v -0.787957 -0.292026 0.390475
v -0.784512 -0.295302 0.389876
v -0.781231 -0.295003 0.389183
v -0.782682 -0.292565 0.389258
v -0.783599 -0.293892 0.389707
v -0.779593 -0.292658 0.388124
v -0.783991 -0.290314 0.388941
v -0.781860 -0.291453 0.388594
v -0.785916 -0.289265 0.389152
v -0.790878 -0.297267 0.388315
v -0.788650 -0.297650 0.388882
v -0.790622 -0.296326 0.390116
v -0.790919 -0.297034 0.389283
v -0.786232 -0.298719 0.387524
v -0.783649 -0.299333 0.387922
v -0.785902 -0.297733 0.389219
v -0.786211 -0.298430 0.388446
v -0.782819 -0.297614 0.389167
v -0.787717 -0.295809 0.390199
v -0.785310 -0.296639 0.389709
v -0.789959 -0.295109 0.390653
v -0.788508 -0.295225 0.384773
v -0.787224 -0.296774 0.385229
v -0.790025 -0.296661 0.386439
v -0.789326 -0.296025 0.385563
v -0.784191 -0.296859 0.384105
v -0.782464 -0.298576 0.384399
v -0.785527 -0.298233 0.385682
v -0.784918 -0.297636 0.384843
v -0.783427 -0.299504 0.386088
v -0.788383 -0.297810 0.387006
v -0.785984 -0.298624 0.386587
v -0.790561 -0.297107 0.387359
v -0.783765 -0.292771 0.383062
v -0.779445 -0.294795 0.382432
v -0.782513 -0.294853 0.383059
v -0.781649 -0.293690 0.382788
v -0.786671 -0.293211 0.383590
v -0.785717 -0.292055 0.383239
v -0.781055 -0.296953 0.383123
v -0.785581 -0.295022 0.383828
v -0.783376 -0.295922 0.383504
v -0.787613 -0.294278 0.384108
v -0.773196 -0.293793 0.382436
v -0.770976 -0.294789 0.382340
v -0.768918 -0.296569 0.380764
v -0.771265 -0.295826 0.381114
v -0.771035 -0.295173 0.381668
v -0.775277 -0.292021 0.383673
v -0.775569 -0.293051 0.382491
v -0.775328 -0.292407 0.383020
v -0.769522 -0.298129 0.379766
v -0.772179 -0.297752 0.380524
v -0.773838 -0.295319 0.381530
v -0.771653 -0.296713 0.380714
v -0.776543 -0.294950 0.381941
v -0.775980 -0.293922 0.382117
v -0.773870 -0.293783 0.385422
v -0.772198 -0.295965 0.385404
v -0.769649 -0.296879 0.383835
v -0.771355 -0.294879 0.383890
v -0.771727 -0.295316 0.384667
v -0.776621 -0.293041 0.386831
v -0.775721 -0.292054 0.385221
v -0.776112 -0.292426 0.386038
v -0.769002 -0.296156 0.382258
v -0.773238 -0.293259 0.383827
v -0.771094 -0.294696 0.383098
v -0.775426 -0.291911 0.384419
v -0.776499 -0.297570 0.387945
v -0.774951 -0.300302 0.387428
v -0.771966 -0.300540 0.386407
v -0.773435 -0.297812 0.386687
v -0.774201 -0.299028 0.387199
v -0.779652 -0.297521 0.388761
v -0.778028 -0.294989 0.388166
v -0.778852 -0.296227 0.388601
v -0.770629 -0.298350 0.385242
v -0.774972 -0.295270 0.386878
v -0.772764 -0.296792 0.386079
v -0.777269 -0.293908 0.387557
v -0.778512 -0.301491 0.386551
v -0.776144 -0.303112 0.384915
v -0.773938 -0.304480 0.385043
v -0.775983 -0.302375 0.386619
v -0.776169 -0.302919 0.385814
v -0.781020 -0.300536 0.386387
v -0.780815 -0.299733 0.388040
v -0.781038 -0.300322 0.387273
v -0.773297 -0.302981 0.386452
v -0.777905 -0.300036 0.387902
v -0.775565 -0.301466 0.387203
v -0.780333 -0.298748 0.388561
v -0.777470 -0.300745 0.383245
v -0.774654 -0.301558 0.381797
v -0.772970 -0.303738 0.381553
v -0.775602 -0.302655 0.383203
v -0.775164 -0.302174 0.382451
v -0.779353 -0.298909 0.383210
v -0.780426 -0.300087 0.384655
v -0.779938 -0.299576 0.383882
v -0.773741 -0.304591 0.383182
v -0.778266 -0.301553 0.384814
v -0.775942 -0.302995 0.384032
v -0.780801 -0.300432 0.385500
v -0.775017 -0.297416 0.381411
v -0.770672 -0.300324 0.379641
v -0.773473 -0.299898 0.380855
v -0.772812 -0.298850 0.380588
v -0.777971 -0.297128 0.382258
v -0.777231 -0.296052 0.382001
v -0.771921 -0.302327 0.380344
v -0.776348 -0.299363 0.382063
v -0.774090 -0.300803 0.381263
v -0.778689 -0.298089 0.382666
v -0.766851 -0.297616 0.380507
v -0.765011 -0.299396 0.378735
v -0.767139 -0.298672 0.379203
v -0.766910 -0.297997 0.379784
v -0.763099 -0.300188 0.378401
v -0.761541 -0.301892 0.376378
v -0.763489 -0.301500 0.377025
v -0.763215 -0.300699 0.377612
v -0.762272 -0.303824 0.375477
v -0.764400 -0.303586 0.376563
v -0.765657 -0.301065 0.377777
v -0.763898 -0.302487 0.376668
v -0.768041 -0.300674 0.378610
v -0.767526 -0.299595 0.378795
v -0.768047 -0.299010 0.383741
v -0.765606 -0.299639 0.382140
v -0.767219 -0.297805 0.382193
v -0.767595 -0.298317 0.382993
v -0.764156 -0.301666 0.382115
v -0.761963 -0.302127 0.380280
v -0.763367 -0.300301 0.380336
v -0.763724 -0.300886 0.381257
v -0.761415 -0.301179 0.378219
v -0.765003 -0.298866 0.380363
v -0.763152 -0.300056 0.379347
v -0.766962 -0.297559 0.381338
v -0.770492 -0.303340 0.385851
v -0.767717 -0.303489 0.384824
v -0.769115 -0.300806 0.385092
v -0.769799 -0.302037 0.385618
v -0.766367 -0.306226 0.384104
v -0.763869 -0.306209 0.383230
v -0.765117 -0.303566 0.383594
v -0.765740 -0.304876 0.384014
v -0.762786 -0.303815 0.382124
v -0.766522 -0.301197 0.383687
v -0.764603 -0.302525 0.382924
v -0.768540 -0.299816 0.384449
v -0.771765 -0.306258 0.383253
v -0.769610 -0.307492 0.383328
v -0.771515 -0.305441 0.385043
v -0.771747 -0.306025 0.384208
v -0.767630 -0.309147 0.381505
v -0.765647 -0.310294 0.381542
v -0.767296 -0.308253 0.383219
v -0.767557 -0.308860 0.382427
v -0.764976 -0.308746 0.382915
v -0.768940 -0.305996 0.384746
v -0.766895 -0.307368 0.383811
v -0.771083 -0.304516 0.385632
v -0.770363 -0.304646 0.379947
v -0.768780 -0.306808 0.379677
v -0.771241 -0.305801 0.381397
v -0.770832 -0.305296 0.380613
v -0.766460 -0.307605 0.378088
v -0.765103 -0.309744 0.377884
v -0.767195 -0.308757 0.379588
v -0.766853 -0.308262 0.378775
v -0.765670 -0.310593 0.379672
v -0.769473 -0.307646 0.381398
v -0.767482 -0.309083 0.380526
v -0.771574 -0.306152 0.382293
v -0.766729 -0.303282 0.377721
v -0.769258 -0.302896 0.378970
v -0.768640 -0.301809 0.378687
v -0.763308 -0.306095 0.375673
v -0.765496 -0.305810 0.377058
v -0.764948 -0.304720 0.376716
v -0.764305 -0.308199 0.376576
v -0.767857 -0.305335 0.378450
v -0.766005 -0.306781 0.377517
v -0.769836 -0.303846 0.379396
v -0.759798 -0.302341 0.375849
v -0.758639 -0.303864 0.373523
v -0.760370 -0.303936 0.374443
v -0.760011 -0.302962 0.375002
v -0.756946 -0.303898 0.372838
v -0.755976 -0.305181 0.370153
v -0.757958 -0.305722 0.371491
v -0.757389 -0.304567 0.371962
v -0.757392 -0.307930 0.369876
v -0.758984 -0.308416 0.371770
v -0.759548 -0.306115 0.372879
v -0.758486 -0.307051 0.371462
v -0.761303 -0.306202 0.374281
v -0.760809 -0.305039 0.374214
v -0.760710 -0.304234 0.380230
v -0.758708 -0.304474 0.377976
v -0.759982 -0.302678 0.378057
v -0.760321 -0.303395 0.379160
v -0.756856 -0.304488 0.375395
v -0.755300 -0.304450 0.372597
v -0.758269 -0.303242 0.375489
v -0.756795 -0.303965 0.374029
v -0.759795 -0.302277 0.376912
v -0.762703 -0.308994 0.382542
v -0.760387 -0.308677 0.381997
v -0.761505 -0.306078 0.382093
v -0.762096 -0.307494 0.382528
v -0.759392 -0.306079 0.380462
v -0.761071 -0.305055 0.381266
v -0.764101 -0.312340 0.379838
v -0.762308 -0.313871 0.380134
v -0.763581 -0.311230 0.381515
v -0.763911 -0.311959 0.380735
v -0.761058 -0.316364 0.378743
v -0.759047 -0.318234 0.379776
v -0.760316 -0.315045 0.380753
v -0.760756 -0.316003 0.379851
v -0.758017 -0.315146 0.381463
v -0.759262 -0.311688 0.381808
v -0.761491 -0.311862 0.381645
v -0.759811 -0.313545 0.381445
v -0.763189 -0.310246 0.382160
v -0.763186 -0.310548 0.376231
v -0.762164 -0.312946 0.376045
v -0.763873 -0.311921 0.377850
v -0.763561 -0.311328 0.376979
v -0.760577 -0.313404 0.374199
v -0.759608 -0.315823 0.374142
v -0.761062 -0.315435 0.376167
v -0.760852 -0.314499 0.375078
v -0.759603 -0.317997 0.376880
v -0.762603 -0.314162 0.378084
v -0.761150 -0.316119 0.377450
v -0.764074 -0.312296 0.378839
v -0.760544 -0.308587 0.373462
v -0.762333 -0.308531 0.375056
v -0.761827 -0.307382 0.374591
v -0.758504 -0.310855 0.371128
v -0.759925 -0.310990 0.372900
v -0.759478 -0.309726 0.372291
v -0.759188 -0.313362 0.372481
v -0.761443 -0.310956 0.374574
v -0.760280 -0.312223 0.373507
v -0.762782 -0.309602 0.375599
v -0.790768 -0.281671 0.385427
v -0.791198 -0.281602 0.383742
v -0.790388 -0.282109 0.384100
v -0.792598 -0.281856 0.387346
v -0.791572 -0.282239 0.387214
v -0.792541 -0.281169 0.382761
v -0.792117 -0.280733 0.384006
v -0.791833 -0.281325 0.383205
v -0.794474 -0.281577 0.388366
v -0.792834 -0.280738 0.386499
v -0.793535 -0.281679 0.387813
v -0.753671 -0.313283 0.370106
v -0.793473 -0.280984 0.385882
v -0.754392 -0.315296 0.372512
v -0.754265 -0.314248 0.371388
v -0.796644 -0.281399 0.389180
v -0.794645 -0.280514 0.387928
v -0.795533 -0.281467 0.388883
v -0.794972 -0.280792 0.387217
v -0.752467 -0.311896 0.373904
v -0.753016 -0.312867 0.371645
v -0.796652 -0.280646 0.388188
v -0.798613 -0.281428 0.388714
v -0.797705 -0.281416 0.389103
v -0.796133 -0.280909 0.387358
v -0.752317 -0.310000 0.378089
v -0.752158 -0.310808 0.376286
v -0.799891 -0.281451 0.387268
v -0.797948 -0.280888 0.387189
v -0.799302 -0.281364 0.388096
v -0.799042 -0.281240 0.385301
v -0.800554 -0.281924 0.386305
v -0.797105 -0.281238 0.386512
v -0.752557 -0.312296 0.379740
v -0.752562 -0.310976 0.378821
v -0.796198 -0.281534 0.386410
v -0.794809 -0.281441 0.386209
v -0.795624 -0.281297 0.386881
v -0.797258 -0.280859 0.385032
v -0.796771 -0.281056 0.383641
v -0.797838 -0.281041 0.384396
v -0.795881 -0.281564 0.385167
v -0.796873 -0.281296 0.385527
v -0.796633 -0.281520 0.385919
v -0.752754 -0.313985 0.375856
v -0.752768 -0.312811 0.374833
v -0.794595 -0.281021 0.382665
v -0.795535 -0.280802 0.383649
v -0.795694 -0.281038 0.383043
v -0.793567 -0.280710 0.383220
v -0.793497 -0.281066 0.382571
v -0.753530 -0.314917 0.373824
v -0.793234 -0.281037 0.384802
v -0.752307 -0.312955 0.378050
v -0.795438 -0.281170 0.384230
v -0.794484 -0.281463 0.384901
v -0.794288 -0.281075 0.383987
v -0.795046 -0.281408 0.384497
v -0.793987 -0.281345 0.385446
v -0.752668 -0.322775 0.379002
v -0.752283 -0.318219 0.380770
v -0.752297 -0.321468 0.380329
v -0.801260 -0.294848 0.391505
v -0.802862 -0.296258 0.390336
v -0.801587 -0.296124 0.390484
v -0.801126 -0.292645 0.392084
v -0.800020 -0.292958 0.392013
v -0.802424 -0.291532 0.392321
v -0.803028 -0.293543 0.392216
v -0.801829 -0.292113 0.392220
v -0.803864 -0.295820 0.390658
v -0.804830 -0.296912 0.389401
v -0.803891 -0.296621 0.389883
v -0.752426 -0.314583 0.380528
v -0.804010 -0.294844 0.390796
v -0.751667 -0.319125 0.377470
v -0.751393 -0.318615 0.379423
v -0.806674 -0.296618 0.388910
v -0.805594 -0.296476 0.389712
v -0.805813 -0.296937 0.389073
v -0.805307 -0.295427 0.389964
v -0.752389 -0.315980 0.376788
v -0.751457 -0.321878 0.378164
v -0.807054 -0.295678 0.389610
v -0.807570 -0.295049 0.389021
v -0.807235 -0.295930 0.388899
v -0.806120 -0.294974 0.389912
v -0.756028 -0.316515 0.381546
v -0.754017 -0.317561 0.381425
v -0.807763 -0.292992 0.389483
v -0.807401 -0.294078 0.390030
v -0.807770 -0.294123 0.389249
v -0.807163 -0.291347 0.390656
v -0.807473 -0.291468 0.389573
v -0.806434 -0.293760 0.390354
v -0.757014 -0.320395 0.379753
v -0.756574 -0.319085 0.380895
v -0.805561 -0.293987 0.390259
v -0.804667 -0.294476 0.390420
v -0.805371 -0.294718 0.390044
v -0.806623 -0.292195 0.391276
v -0.805624 -0.290536 0.391888
v -0.806491 -0.290937 0.391408
v -0.805187 -0.292988 0.390980
v -0.806121 -0.292951 0.390903
v -0.805807 -0.293366 0.390563
v -0.754784 -0.322076 0.379578
v -0.754047 -0.318345 0.373977
v -0.803863 -0.290495 0.392359
v -0.805209 -0.291445 0.392204
v -0.804722 -0.290367 0.392194
v -0.803868 -0.292085 0.392591
v -0.803098 -0.290940 0.392389
v -0.752735 -0.319141 0.375492
v -0.803783 -0.293924 0.391548
v -0.754219 -0.316619 0.373395
v -0.805070 -0.292373 0.391788
v -0.804307 -0.293378 0.391239
v -0.804350 -0.292715 0.392050
v -0.804653 -0.292776 0.391500
v -0.804106 -0.294138 0.390959
v -0.754955 -0.320721 0.375087
v -0.753606 -0.322340 0.377107
v -0.754178 -0.319932 0.374490
v -0.758148 -0.307957 0.381051
v -0.756941 -0.310561 0.381539
v -0.758693 -0.309703 0.381704
v -0.753757 -0.304929 0.373077
v -0.752412 -0.305197 0.370411
v -0.753799 -0.305067 0.369398
v -0.753748 -0.304760 0.371291
v -0.752757 -0.306694 0.366305
v -0.755020 -0.307145 0.367519
v -0.754231 -0.305857 0.368010
v -0.757189 -0.315425 0.371282
v -0.758402 -0.315469 0.372408
v -0.757713 -0.313233 0.370809
v -0.758096 -0.314364 0.371621
v -0.756136 -0.312270 0.368588
v -0.754958 -0.309819 0.366768
v -0.752893 -0.309159 0.365241
v -0.754266 -0.312127 0.367184
v -0.754426 -0.310989 0.366573
v -0.757021 -0.310506 0.369128
v -0.757462 -0.311944 0.369989
v -0.753052 -0.311547 0.366865
v -0.754161 -0.313253 0.369047
v -0.755378 -0.314377 0.369911
v -0.754241 -0.312864 0.368042
v -0.757470 -0.317148 0.372591
v -0.758285 -0.318177 0.374554
v -0.758453 -0.316751 0.373300
v -0.756092 -0.308841 0.368101
v -0.751647 -0.306778 0.367816
v -0.752004 -0.309087 0.366305
v -0.752068 -0.307761 0.365817
v -0.751854 -0.309960 0.369270
v -0.752935 -0.312161 0.368756
v -0.752352 -0.310668 0.367387
v -0.752044 -0.305632 0.372719
v -0.751178 -0.307419 0.370934
v -0.751529 -0.306042 0.370376
v -0.755250 -0.305476 0.375646
v -0.757290 -0.305914 0.378299
v -0.757029 -0.305155 0.376813
v -0.752942 -0.306516 0.375443
v -0.753433 -0.305517 0.374367
v -0.755961 -0.307396 0.379436
v -0.757686 -0.306763 0.379829
v -0.755484 -0.313594 0.381703
v -0.753538 -0.311815 0.380821
v -0.754800 -0.309530 0.380534
v -0.755120 -0.311257 0.381334
v -0.751985 -0.310796 0.372944
v -0.751523 -0.308390 0.374472
v -0.751448 -0.309175 0.371873
v -0.753602 -0.307675 0.377994
v -0.753060 -0.309256 0.379124
v -0.754339 -0.308312 0.379395
v -0.752163 -0.309030 0.377351
v -0.752411 -0.307793 0.376458
v -0.756111 -0.318675 0.373300
v -0.756102 -0.316292 0.371500
v -0.756713 -0.316885 0.371968
v -0.755134 -0.315454 0.371777
v -0.755123 -0.317124 0.372741
v -0.755621 -0.315807 0.371455
v -0.756276 -0.320593 0.375703
v -0.757441 -0.320491 0.378174
v -0.757914 -0.319590 0.376297
f 120 247 251
f 120 251 250
f 247 57 248
f 247 248 251
f 251 248 127
f 251 127 249
f 250 251 249
f 250 249 9
f 9 249 255
f 9 255 254
f 249 127 252
f 249 252 255
f 255 252 60
f 255 60 253
f 254 255 253
f 254 253 121
f 9 256 259
f 9 259 250
f 256 137 257
f 256 257 259
f 259 257 66
f 259 66 258
f 250 259 258
f 250 258 120
f 121 260 262
f 121 262 254
f 260 67 261
f 260 261 262
f 262 261 137
f 262 137 256
f 254 262 256
f 254 256 9
f 136 263 267
f 136 267 266
f 263 62 264
f 263 264 267
f 267 264 123
f 267 123 265
f 266 267 265
f 266 265 10
f 10 265 271
f 10 271 270
f 265 123 268
f 265 268 271
f 271 268 71
f 271 71 269
f 270 271 269
f 270 269 142
f 10 272 275
f 10 275 266
f 272 125 273
f 272 273 275
f 275 273 61
f 275 61 274
f 266 275 274
f 266 274 136
f 142 276 278
f 142 278 270
f 276 70 277
f 276 277 278
f 278 277 125
f 278 125 272
f 270 278 272
f 270 272 10
f 123 264 282
f 123 282 281
f 264 62 279
f 264 279 282
f 282 279 132
f 282 132 280
f 281 282 280
f 281 280 11
f 11 280 286
f 11 286 285
f 280 132 283
f 280 283 286
f 286 283 63
f 286 63 284
f 285 286 284
f 285 284 124
f 11 287 289
f 11 289 281
f 287 144 288
f 287 288 289
f 289 288 71
f 289 71 268
f 281 289 268
f 281 268 123
f 124 290 292
f 124 292 285
f 290 72 291
f 290 291 292
f 292 291 144
f 292 144 287
f 285 292 287
f 285 287 11
f 12 293 296
f 12 296 295
f 293 130 294
f 293 294 296
f 296 294 61
f 296 61 273
f 295 296 273
f 295 273 125
f 122 297 300
f 122 300 299
f 297 64 298
f 297 298 300
f 300 298 130
f 300 130 293
f 299 300 293
f 299 293 12
f 12 301 304
f 12 304 299
f 301 140 302
f 301 302 304
f 304 302 69
f 304 69 303
f 299 304 303
f 299 303 122
f 125 277 306
f 125 306 295
f 277 70 305
f 277 305 306
f 306 305 140
f 306 140 301
f 295 306 301
f 295 301 12
f 134 307 311
f 134 311 310
f 307 58 308
f 307 308 311
f 311 308 128
f 311 128 309
f 310 311 309
f 310 309 13
f 13 309 314
f 13 314 313
f 309 128 312
f 309 312 314
f 314 312 60
f 314 60 252
f 313 314 252
f 313 252 127
f 126 315 318
f 126 318 317
f 315 59 316
f 315 316 318
f 318 316 134
f 318 134 310
f 317 318 310
f 317 310 13
f 127 248 320
f 127 320 313
f 248 57 319
f 248 319 320
f 320 319 126
f 320 126 317
f 313 320 317
f 313 317 13
f 129 321 325
f 129 325 324
f 321 58 322
f 321 322 325
f 325 322 133
f 325 133 323
f 324 325 323
f 324 323 14
f 14 323 328
f 14 328 327
f 323 133 326
f 323 326 328
f 328 326 61
f 328 61 294
f 327 328 294
f 327 294 130
f 130 298 330
f 130 330 327
f 298 64 329
f 298 329 330
f 330 329 129
f 330 129 324
f 327 330 324
f 327 324 14
f 135 331 335
f 135 335 334
f 331 59 332
f 331 332 335
f 335 332 131
f 335 131 333
f 334 335 333
f 334 333 15
f 15 333 338
f 15 338 337
f 333 131 336
f 333 336 338
f 338 336 63
f 338 63 283
f 337 338 283
f 337 283 132
f 15 337 340
f 15 340 334
f 337 132 279
f 337 279 340
f 340 279 62
f 340 62 339
f 334 340 339
f 334 339 135
f 134 316 343
f 134 343 342
f 316 59 331
f 316 331 343
f 343 331 135
f 343 135 341
f 342 343 341
f 342 341 16
f 16 341 345
f 16 345 344
f 341 135 339
f 341 339 345
f 345 339 62
f 345 62 263
f 344 345 263
f 344 263 136
f 16 344 347
f 16 347 346
f 344 136 274
f 344 274 347
f 347 274 61
f 347 61 326
f 346 347 326
f 346 326 133
f 16 346 348
f 16 348 342
f 346 133 322
f 346 322 348
f 348 322 58
f 348 58 307
f 342 348 307
f 342 307 134
f 137 261 352
f 137 352 351
f 261 67 349
f 261 349 352
f 352 349 138
f 352 138 350
f 351 352 350
f 351 350 17
f 17 350 356
f 17 356 355
f 350 138 353
f 350 353 356
f 356 353 79
f 356 79 354
f 355 356 354
f 355 354 148
f 17 357 359
f 17 359 351
f 357 139 358
f 357 358 359
f 359 358 66
f 359 66 257
f 351 359 257
f 351 257 137
f 148 360 362
f 148 362 355
f 360 91 361
f 360 361 362
f 362 361 139
f 362 139 357
f 355 362 357
f 355 357 17
f 140 305 366
f 140 366 365
f 305 70 363
f 305 363 366
f 366 363 141
f 366 141 364
f 365 366 364
f 365 364 18
f 18 364 370
f 18 370 369
f 364 141 367
f 364 367 370
f 370 367 85
f 370 85 368
f 369 370 368
f 369 368 153
f 18 371 373
f 18 373 365
f 371 145 372
f 371 372 373
f 373 372 69
f 373 69 302
f 365 373 302
f 365 302 140
f 153 374 376
f 153 376 369
f 374 82 375
f 374 375 376
f 376 375 145
f 376 145 371
f 369 376 371
f 369 371 18
f 142 269 380
f 142 380 379
f 269 71 377
f 269 377 380
f 380 377 143
f 380 143 378
f 379 380 378
f 379 378 19
f 19 378 384
f 19 384 383
f 378 143 381
f 378 381 384
f 384 381 88
f 384 88 382
f 383 384 382
f 383 382 155
f 19 383 387
f 19 387 386
f 383 155 385
f 383 385 387
f 387 385 85
f 387 85 367
f 386 387 367
f 386 367 141
f 19 386 388
f 19 388 379
f 386 141 363
f 386 363 388
f 388 363 70
f 388 70 276
f 379 388 276
f 379 276 142
f 144 291 392
f 144 392 391
f 291 72 389
f 291 389 392
f 392 389 146
f 392 146 390
f 391 392 390
f 391 390 20
f 20 390 396
f 20 396 395
f 390 146 393
f 390 393 396
f 396 393 93
f 396 93 394
f 395 396 394
f 395 394 157
f 20 395 399
f 20 399 398
f 395 157 397
f 395 397 399
f 399 397 88
f 399 88 381
f 398 399 381
f 398 381 143
f 20 398 400
f 20 400 391
f 398 143 377
f 398 377 400
f 400 377 71
f 400 71 288
f 391 400 288
f 391 288 144
f 147 401 405
f 147 405 404
f 401 91 402
f 401 402 405
f 405 402 149
f 405 149 403
f 404 405 403
f 404 403 21
f 21 403 409
f 21 409 408
f 403 149 406
f 403 406 409
f 409 406 92
f 409 92 407
f 408 409 407
f 408 407 206
f 158 410 413
f 158 413 412
f 410 93 411
f 410 411 413
f 413 411 147
f 413 147 404
f 412 413 404
f 412 404 21
f 206 414 416
f 206 416 408
f 414 94 415
f 414 415 416
f 416 415 158
f 416 158 412
f 408 416 412
f 408 412 21
f 148 354 420
f 148 420 419
f 354 79 417
f 354 417 420
f 420 417 150
f 420 150 418
f 419 420 418
f 419 418 22
f 22 418 424
f 22 424 423
f 418 150 421
f 418 421 424
f 424 421 80
f 424 80 422
f 423 424 422
f 423 422 201
f 149 402 426
f 149 426 425
f 402 91 360
f 402 360 426
f 426 360 148
f 426 148 419
f 425 426 419
f 425 419 22
f 201 427 428
f 201 428 423
f 427 92 406
f 427 406 428
f 428 406 149
f 428 149 425
f 423 428 425
f 423 425 22
f 151 429 433
f 151 433 432
f 429 82 430
f 429 430 433
f 433 430 152
f 433 152 431
f 432 433 431
f 432 431 23
f 23 431 437
f 23 437 436
f 431 152 434
f 431 434 437
f 437 434 83
f 437 83 435
f 436 437 435
f 436 435 202
f 23 438 440
f 23 440 432
f 438 150 417
f 438 417 440
f 440 417 79
f 440 79 439
f 432 440 439
f 432 439 151
f 202 441 442
f 202 442 436
f 441 80 421
f 441 421 442
f 442 421 150
f 442 150 438
f 436 442 438
f 436 438 23
f 153 368 446
f 153 446 445
f 368 85 443
f 368 443 446
f 446 443 154
f 446 154 444
f 445 446 444
f 445 444 24
f 24 444 450
f 24 450 449
f 444 154 447
f 444 447 450
f 450 447 86
f 450 86 448
f 449 450 448
f 449 448 203
f 24 451 452
f 24 452 445
f 451 152 430
f 451 430 452
f 452 430 82
f 452 82 374
f 445 452 374
f 445 374 153
f 203 453 454
f 203 454 449
f 453 83 434
f 453 434 454
f 454 434 152
f 454 152 451
f 449 454 451
f 449 451 24
f 155 382 458
f 155 458 457
f 382 88 455
f 382 455 458
f 458 455 156
f 458 156 456
f 457 458 456
f 457 456 25
f 25 456 462
f 25 462 461
f 456 156 459
f 456 459 462
f 462 459 90
f 462 90 460
f 461 462 460
f 461 460 204
f 25 463 464
f 25 464 457
f 463 154 443
f 463 443 464
f 464 443 85
f 464 85 385
f 457 464 385
f 457 385 155
f 204 465 466
f 204 466 461
f 465 86 447
f 465 447 466
f 466 447 154
f 466 154 463
f 461 466 463
f 461 463 25
f 157 394 469
f 157 469 468
f 394 93 410
f 394 410 469
f 469 410 158
f 469 158 467
f 468 469 467
f 468 467 26
f 26 467 472
f 26 472 471
f 467 158 415
f 467 415 472
f 472 415 94
f 472 94 470
f 471 472 470
f 471 470 205
f 26 473 474
f 26 474 468
f 473 156 455
f 473 455 474
f 474 455 88
f 474 88 397
f 468 474 397
f 468 397 157
f 205 475 476
f 205 476 471
f 475 90 459
f 475 459 476
f 476 459 156
f 476 156 473
f 471 476 473
f 471 473 26
f 205 470 480
f 205 480 479
f 470 94 477
f 470 477 480
f 480 477 159
f 480 159 478
f 479 480 478
f 479 478 27
f 27 478 484
f 27 484 483
f 478 159 481
f 478 481 484
f 484 481 95
f 484 95 482
f 483 484 482
f 483 482 183
f 27 483 488
f 27 488 487
f 483 183 485
f 483 485 488
f 488 485 89
f 488 89 486
f 487 488 486
f 487 486 164
f 164 489 490
f 164 490 487
f 489 90 475
f 489 475 490
f 490 475 205
f 490 205 479
f 487 490 479
f 487 479 27
f 206 407 494
f 206 494 493
f 407 92 491
f 407 491 494
f 494 491 160
f 494 160 492
f 493 494 492
f 493 492 28
f 28 492 498
f 28 498 497
f 492 160 495
f 492 495 498
f 498 495 96
f 498 96 496
f 497 498 496
f 497 496 184
f 28 497 501
f 28 501 500
f 497 184 499
f 497 499 501
f 501 499 95
f 501 95 481
f 500 501 481
f 500 481 159
f 159 477 502
f 159 502 500
f 477 94 414
f 477 414 502
f 502 414 206
f 502 206 493
f 500 502 493
f 500 493 28
f 201 422 506
f 201 506 505
f 422 80 503
f 422 503 506
f 506 503 161
f 506 161 504
f 505 506 504
f 505 504 29
f 29 504 510
f 29 510 509
f 504 161 507
f 504 507 510
f 510 507 81
f 510 81 508
f 509 510 508
f 509 508 185
f 29 509 513
f 29 513 512
f 509 185 511
f 509 511 513
f 513 511 96
f 513 96 495
f 512 513 495
f 512 495 160
f 160 491 514
f 160 514 512
f 491 92 427
f 491 427 514
f 514 427 201
f 514 201 505
f 512 514 505
f 512 505 29
f 202 435 518
f 202 518 517
f 435 83 515
f 435 515 518
f 518 515 162
f 518 162 516
f 517 518 516
f 517 516 30
f 30 516 522
f 30 522 521
f 516 162 519
f 516 519 522
f 522 519 84
f 522 84 520
f 521 522 520
f 521 520 186
f 30 521 525
f 30 525 524
f 521 186 523
f 521 523 525
f 525 523 81
f 525 81 507
f 524 525 507
f 524 507 161
f 161 503 526
f 161 526 524
f 503 80 441
f 503 441 526
f 526 441 202
f 526 202 517
f 524 526 517
f 524 517 30
f 203 448 530
f 203 530 529
f 448 86 527
f 448 527 530
f 530 527 163
f 530 163 528
f 529 530 528
f 529 528 31
f 31 528 534
f 31 534 533
f 528 163 531
f 528 531 534
f 534 531 87
f 534 87 532
f 533 534 532
f 533 532 187
f 31 533 537
f 31 537 536
f 533 187 535
f 533 535 537
f 537 535 84
f 537 84 519
f 536 537 519
f 536 519 162
f 162 515 538
f 162 538 536
f 515 83 453
f 515 453 538
f 538 453 203
f 538 203 529
f 536 538 529
f 536 529 31
f 32 539 542
f 32 542 541
f 539 164 486
f 539 486 542
f 542 486 89
f 542 89 540
f 541 542 540
f 541 540 188
f 204 460 544
f 204 544 543
f 460 90 489
f 460 489 544
f 544 489 164
f 544 164 539
f 543 544 539
f 543 539 32
f 32 541 547
f 32 547 546
f 541 188 545
f 541 545 547
f 547 545 87
f 547 87 531
f 546 547 531
f 546 531 163
f 163 527 548
f 163 548 546
f 527 86 465
f 527 465 548
f 548 465 204
f 548 204 543
f 546 548 543
f 546 543 32
f 33 549 553
f 33 553 552
f 549 165 550
f 549 550 553
f 553 550 73
f 553 73 551
f 552 553 551
f 552 551 189
f 183 482 556
f 183 556 555
f 482 95 554
f 482 554 556
f 556 554 165
f 556 165 549
f 555 556 549
f 555 549 33
f 33 552 560
f 33 560 559
f 552 189 557
f 552 557 560
f 560 557 78
f 560 78 558
f 559 560 558
f 559 558 170
f 33 559 562
f 33 562 555
f 559 170 561
f 559 561 562
f 562 561 89
f 562 89 485
f 555 562 485
f 555 485 183
f 34 563 567
f 34 567 566
f 563 166 564
f 563 564 567
f 567 564 74
f 567 74 565
f 566 567 565
f 566 565 190
f 184 496 570
f 184 570 569
f 496 96 568
f 496 568 570
f 570 568 166
f 570 166 563
f 569 570 563
f 569 563 34
f 34 566 573
f 34 573 572
f 566 190 571
f 566 571 573
f 573 571 73
f 573 73 550
f 572 573 550
f 572 550 165
f 34 572 574
f 34 574 569
f 572 165 554
f 572 554 574
f 574 554 95
f 574 95 499
f 569 574 499
f 569 499 184
f 35 575 579
f 35 579 578
f 575 167 576
f 575 576 579
f 579 576 75
f 579 75 577
f 578 579 577
f 578 577 191
f 185 508 582
f 185 582 581
f 508 81 580
f 508 580 582
f 582 580 167
f 582 167 575
f 581 582 575
f 581 575 35
f 35 578 585
f 35 585 584
f 578 191 583
f 578 583 585
f 585 583 74
f 585 74 564
f 584 585 564
f 584 564 166
f 35 584 586
f 35 586 581
f 584 166 568
f 584 568 586
f 586 568 96
f 586 96 511
f 581 586 511
f 581 511 185
f 36 587 591
f 36 591 590
f 587 168 588
f 587 588 591
f 591 588 76
f 591 76 589
f 590 591 589
f 590 589 192
f 186 520 594
f 186 594 593
f 520 84 592
f 520 592 594
f 594 592 168
f 594 168 587
f 593 594 587
f 593 587 36
f 36 590 597
f 36 597 596
f 590 192 595
f 590 595 597
f 597 595 75
f 597 75 576
f 596 597 576
f 596 576 167
f 36 596 598
f 36 598 593
f 596 167 580
f 596 580 598
f 598 580 81
f 598 81 523
f 593 598 523
f 593 523 186
f 37 599 603
f 37 603 602
f 599 169 600
f 599 600 603
f 603 600 77
f 603 77 601
f 602 603 601
f 602 601 193
f 187 532 606
f 187 606 605
f 532 87 604
f 532 604 606
f 606 604 169
f 606 169 599
f 605 606 599
f 605 599 37
f 37 602 609
f 37 609 608
f 602 193 607
f 602 607 609
f 609 607 76
f 609 76 588
f 608 609 588
f 608 588 168
f 37 608 610
f 37 610 605
f 608 168 592
f 608 592 610
f 610 592 84
f 610 84 535
f 605 610 535
f 605 535 187
f 38 611 614
f 38 614 613
f 611 170 558
f 611 558 614
f 614 558 78
f 614 78 612
f 613 614 612
f 613 612 194
f 188 540 616
f 188 616 615
f 540 89 561
f 540 561 616
f 616 561 170
f 616 170 611
f 615 616 611
f 615 611 38
f 38 613 619
f 38 619 618
f 613 194 617
f 613 617 619
f 619 617 77
f 619 77 600
f 618 619 600
f 618 600 169
f 38 618 620
f 38 620 615
f 618 169 604
f 618 604 620
f 620 604 87
f 620 87 545
f 615 620 545
f 615 545 188
f 189 551 624
f 189 624 623
f 551 73 621
f 551 621 624
f 624 621 171
f 624 171 622
f 623 624 622
f 623 622 39
f 39 622 628
f 39 628 627
f 622 171 625
f 622 625 628
f 628 625 100
f 628 100 626
f 627 628 626
f 627 626 195
f 39 627 632
f 39 632 631
f 627 195 629
f 627 629 632
f 632 629 98
f 632 98 630
f 631 632 630
f 631 630 176
f 39 631 634
f 39 634 623
f 631 176 633
f 631 633 634
f 634 633 78
f 634 78 557
f 623 634 557
f 623 557 189
f 190 565 638
f 190 638 637
f 565 74 635
f 565 635 638
f 638 635 172
f 638 172 636
f 637 638 636
f 637 636 40
f 40 636 642
f 40 642 641
f 636 172 639
f 636 639 642
f 642 639 101
f 642 101 640
f 641 642 640
f 641 640 196
f 40 641 645
f 40 645 644
f 641 196 643
f 641 643 645
f 645 643 100
f 645 100 625
f 644 645 625
f 644 625 171
f 40 644 646
f 40 646 637
f 644 171 621
f 644 621 646
f 646 621 73
f 646 73 571
f 637 646 571
f 637 571 190
f 191 577 650
f 191 650 649
f 577 75 647
f 577 647 650
f 650 647 173
f 650 173 648
f 649 650 648
f 649 648 41
f 41 648 654
f 41 654 653
f 648 173 651
f 648 651 654
f 654 651 102
f 654 102 652
f 653 654 652
f 653 652 197
f 41 653 657
f 41 657 656
f 653 197 655
f 653 655 657
f 657 655 101
f 657 101 639
f 656 657 639
f 656 639 172
f 41 656 658
f 41 658 649
f 656 172 635
f 656 635 658
f 658 635 74
f 658 74 583
f 649 658 583
f 649 583 191
f 192 589 662
f 192 662 661
f 589 76 659
f 589 659 662
f 662 659 174
f 662 174 660
f 661 662 660
f 661 660 42
f 42 660 666
f 42 666 665
f 660 174 663
f 660 663 666
f 666 663 99
f 666 99 664
f 665 666 664
f 665 664 198
f 42 665 669
f 42 669 668
f 665 198 667
f 665 667 669
f 669 667 102
f 669 102 651
f 668 669 651
f 668 651 173
f 42 668 670
f 42 670 661
f 668 173 647
f 668 647 670
f 670 647 75
f 670 75 595
f 661 670 595
f 661 595 192
f 193 601 674
f 193 674 673
f 601 77 671
f 601 671 674
f 674 671 175
f 674 175 672
f 673 674 672
f 673 672 43
f 43 672 678
f 43 678 677
f 672 175 675
f 672 675 678
f 678 675 97
f 678 97 676
f 677 678 676
f 677 676 199
f 43 677 681
f 43 681 680
f 677 199 679
f 677 679 681
f 681 679 99
f 681 99 663
f 680 681 663
f 680 663 174
f 43 680 682
f 43 682 673
f 680 174 659
f 680 659 682
f 682 659 76
f 682 76 607
f 673 682 607
f 673 607 193
f 194 612 685
f 194 685 684
f 612 78 633
f 612 633 685
f 685 633 176
f 685 176 683
f 684 685 683
f 684 683 44
f 44 683 688
f 44 688 687
f 683 176 630
f 683 630 688
f 688 630 98
f 688 98 686
f 687 688 686
f 687 686 200
f 44 687 691
f 44 691 690
f 687 200 689
f 687 689 691
f 691 689 97
f 691 97 675
f 690 691 675
f 690 675 175
f 44 690 692
f 44 692 684
f 690 175 671
f 690 671 692
f 692 671 77
f 692 77 617
f 684 692 617
f 684 617 194
f 195 626 696
f 195 696 695
f 626 100 693
f 626 693 696
f 696 693 177
f 696 177 694
f 695 696 694
f 695 694 45
f 45 694 700
f 45 700 699
f 694 177 697
f 694 697 700
f 700 697 109
f 700 109 698
f 699 700 698
f 699 698 211
f 45 699 704
f 45 704 703
f 699 211 701
f 699 701 704
f 704 701 107
f 704 107 702
f 703 704 702
f 703 702 182
f 45 703 706
f 45 706 695
f 703 182 705
f 703 705 706
f 706 705 98
f 706 98 629
f 695 706 629
f 695 629 195
f 196 640 710
f 196 710 709
f 640 101 707
f 640 707 710
f 710 707 178
f 710 178 708
f 709 710 708
f 709 708 46
f 46 711 714
f 46 714 713
f 711 214 712
f 711 712 714
f 714 712 109
f 714 109 697
f 713 714 697
f 713 697 177
f 46 713 715
f 46 715 709
f 713 177 693
f 713 693 715
f 715 693 100
f 715 100 643
f 709 715 643
f 709 643 196
f 197 652 719
f 197 719 718
f 652 102 716
f 652 716 719
f 719 716 179
f 719 179 717
f 718 719 717
f 718 717 47
f 47 720 721
f 47 721 718
f 720 178 707
f 720 707 721
f 721 707 101
f 721 101 655
f 718 721 655
f 718 655 197
f 198 664 725
f 198 725 724
f 664 99 722
f 664 722 725
f 725 722 180
f 725 180 723
f 724 725 723
f 724 723 48
f 48 723 729
f 48 729 728
f 723 180 726
f 723 726 729
f 729 726 104
f 729 104 727
f 728 729 727
f 728 727 213
f 48 728 733
f 48 733 732
f 728 213 730
f 728 730 733
f 733 730 106
f 733 106 731
f 732 733 731
f 732 731 179
f 48 732 734
f 48 734 724
f 732 179 716
f 732 716 734
f 734 716 102
f 734 102 667
f 724 734 667
f 724 667 198
f 199 676 738
f 199 738 737
f 676 97 735
f 676 735 738
f 738 735 181
f 738 181 736
f 737 738 736
f 737 736 49
f 49 736 742
f 49 742 741
f 736 181 739
f 736 739 742
f 742 739 105
f 742 105 740
f 741 742 740
f 741 740 208
f 49 741 745
f 49 745 744
f 741 208 743
f 741 743 745
f 745 743 104
f 745 104 726
f 744 745 726
f 744 726 180
f 49 744 746
f 49 746 737
f 744 180 722
f 744 722 746
f 746 722 99
f 746 99 679
f 737 746 679
f 737 679 199
f 200 686 749
f 200 749 748
f 686 98 705
f 686 705 749
f 749 705 182
f 749 182 747
f 748 749 747
f 748 747 50
f 50 747 752
f 50 752 751
f 747 182 702
f 747 702 752
f 752 702 107
f 752 107 750
f 751 752 750
f 751 750 207
f 50 751 755
f 50 755 754
f 751 207 753
f 751 753 755
f 755 753 105
f 755 105 739
f 754 755 739
f 754 739 181
f 50 754 756
f 50 756 748
f 754 181 735
f 754 735 756
f 756 735 97
f 756 97 689
f 748 756 689
f 748 689 200
f 1 757 759
f 1 759 758
f 757 147 411
f 757 411 759
f 759 411 93
f 759 93 393
f 758 759 393
f 758 393 146
f 139 361 761
f 139 761 760
f 361 91 401
f 361 401 761
f 761 401 147
f 761 147 757
f 760 761 757
f 760 757 1
f 146 389 764
f 146 764 758
f 389 72 762
f 389 762 764
f 764 762 115
f 764 115 763
f 758 764 763
f 758 763 1
f 112 765 767
f 112 767 766
f 765 66 358
f 765 358 767
f 767 358 139
f 767 139 760
f 766 767 760
f 766 760 1
f 235 873 866
f 235 866 118
f 866 873 236
f 866 236 8
f 8 236 875
f 8 875 868
f 868 875 229
f 868 229 119
f 2 772 774
f 2 774 773
f 772 120 258
f 772 258 774
f 774 258 66
f 774 66 765
f 773 774 765
f 773 765 112
f 119 229 871
f 119 871 825
f 825 871 230
f 825 230 5
f 234 861 857
f 234 857 7
f 857 861 235
f 857 235 118
f 57 247 780
f 57 780 779
f 247 120 772
f 247 772 780
f 780 772 2
f 780 2 778
f 779 780 778
f 779 778 113
f 233 851 847
f 233 847 117
f 847 851 234
f 847 234 7
f 232 843 840
f 232 840 6
f 840 843 233
f 840 233 117
f 3 784 786
f 3 786 785
f 784 126 319
f 784 319 786
f 786 319 57
f 786 57 779
f 785 786 779
f 785 779 113
f 131 332 788
f 131 788 787
f 332 59 315
f 332 315 788
f 788 315 126
f 788 126 784
f 787 788 784
f 787 784 3
f 231 837 835
f 231 835 116
f 835 837 232
f 835 232 6
f 5 230 831
f 5 831 827
f 827 831 231
f 827 231 116
f 65 792 794
f 65 794 793
f 792 225 781
f 792 781 794
f 794 781 224
f 794 224 775
f 793 794 775
f 793 775 223
f 63 336 797
f 63 797 796
f 336 131 787
f 336 787 797
f 797 787 3
f 797 3 795
f 796 797 795
f 796 795 114
f 226 789 800
f 226 800 799
f 789 225 792
f 789 792 800
f 800 792 65
f 800 65 798
f 799 800 798
f 799 798 227
f 227 811 804
f 227 804 114
f 804 811 228
f 804 228 4
f 4 228 813
f 4 813 806
f 806 813 221
f 806 221 115
f 4 803 805
f 4 805 804
f 803 124 284
f 803 284 805
f 805 284 63
f 805 63 796
f 804 805 796
f 804 796 114
f 4 806 807
f 4 807 803
f 806 115 762
f 806 762 807
f 807 762 72
f 807 72 290
f 803 807 290
f 803 290 124
f 115 221 809
f 115 809 763
f 763 809 222
f 763 222 1
f 226 799 795
f 226 795 3
f 795 799 227
f 795 227 114
f 228 811 814
f 228 814 813
f 811 227 798
f 811 798 814
f 814 798 65
f 814 65 812
f 813 814 812
f 813 812 221
f 221 812 815
f 221 815 809
f 812 65 793
f 812 793 815
f 815 793 223
f 815 223 769
f 809 815 769
f 809 769 222
f 225 789 785
f 225 785 113
f 785 789 226
f 785 226 3
f 224 781 778
f 224 778 2
f 778 781 225
f 778 225 113
f 223 775 773
f 223 773 112
f 773 775 224
f 773 224 2
f 1 222 769
f 1 769 766
f 766 769 223
f 766 223 112
f 145 375 821
f 145 821 820
f 375 82 429
f 375 429 821
f 821 429 151
f 821 151 819
f 820 821 819
f 820 819 5
f 5 819 823
f 5 823 822
f 819 151 439
f 819 439 823
f 823 439 79
f 823 79 353
f 822 823 353
f 822 353 138
f 138 349 826
f 138 826 822
f 349 67 824
f 349 824 826
f 826 824 119
f 826 119 825
f 822 826 825
f 822 825 5
f 69 372 829
f 69 829 828
f 372 145 820
f 372 820 829
f 829 820 5
f 829 5 827
f 828 829 827
f 828 827 116
f 777 768 914
f 777 914 110
f 768 903 220
f 768 220 914
f 771 108 903
f 771 903 768
f 243 771 768
f 243 768 777
f 6 834 836
f 6 836 835
f 834 122 303
f 834 303 836
f 836 303 69
f 836 69 828
f 835 836 828
f 835 828 116
f 808 770 771
f 808 771 243
f 770 941 108
f 770 108 771
f 872 219 941
f 872 941 770
f 111 872 770
f 111 770 808
f 64 297 842
f 64 842 841
f 297 122 834
f 297 834 842
f 842 834 6
f 842 6 840
f 841 842 840
f 841 840 117
f 802 776 783
f 802 783 56
f 776 930 217
f 776 217 783
f 777 110 930
f 777 930 776
f 243 777 776
f 243 776 802
f 7 846 848
f 7 848 847
f 846 129 329
f 846 329 848
f 848 329 64
f 848 64 841
f 847 848 841
f 847 841 117
f 128 308 850
f 128 850 849
f 308 58 321
f 308 321 850
f 850 321 129
f 850 129 846
f 849 850 846
f 849 846 7
f 783 782 791
f 783 791 56
f 782 934 238
f 782 238 791
f 936 244 934
f 936 934 782
f 217 936 782
f 217 782 783
f 68 854 856
f 68 856 855
f 854 233 843
f 854 843 856
f 856 843 232
f 856 232 837
f 855 856 837
f 855 837 231
f 60 312 859
f 60 859 858
f 312 128 849
f 312 849 859
f 859 849 7
f 859 7 857
f 858 859 857
f 858 857 118
f 234 851 862
f 234 862 861
f 851 233 854
f 851 854 862
f 862 854 68
f 862 68 860
f 861 862 860
f 861 860 235
f 791 790 810
f 791 810 56
f 790 830 218
f 790 218 810
f 927 239 830
f 927 830 790
f 238 927 790
f 238 790 791
f 8 865 867
f 8 867 866
f 865 121 253
f 865 253 867
f 867 253 60
f 867 60 858
f 866 867 858
f 866 858 118
f 8 868 869
f 8 869 865
f 868 119 824
f 868 824 869
f 869 824 67
f 869 67 260
f 865 869 260
f 865 260 121
f 802 801 808
f 802 808 243
f 801 838 111
f 801 111 808
f 810 218 838
f 810 838 801
f 56 810 801
f 56 801 802
f 236 873 876
f 236 876 875
f 873 235 860
f 873 860 876
f 876 860 68
f 876 68 874
f 875 876 874
f 875 874 229
f 229 874 877
f 229 877 871
f 874 68 855
f 874 855 877
f 877 855 231
f 877 231 831
f 871 877 831
f 871 831 230
f 818 816 839
f 818 839 246
f 816 879 245
f 816 245 839
f 863 212 879
f 863 879 816
f 54 863 816
f 54 816 818
f 833 817 818
f 833 818 246
f 817 845 54
f 817 54 818
f 830 239 845
f 830 845 817
f 218 830 817
f 218 817 833
f 216 881 883
f 216 883 882
f 881 47 717
f 881 717 883
f 883 717 179
f 883 179 731
f 882 883 731
f 882 731 106
f 109 712 887
f 109 887 886
f 712 214 884
f 712 884 887
f 887 884 55
f 887 55 885
f 886 887 885
f 886 885 215
f 215 888 890
f 215 890 886
f 888 53 889
f 888 889 890
f 890 889 211
f 890 211 698
f 886 890 698
f 886 698 109
f 51 891 894
f 51 894 893
f 891 209 892
f 891 892 894
f 894 892 105
f 894 105 753
f 893 894 753
f 893 753 207
f 51 895 899
f 51 899 898
f 895 210 896
f 895 896 899
f 899 896 53
f 899 53 897
f 898 899 897
f 898 897 241
f 207 750 901
f 207 901 893
f 750 107 900
f 750 900 901
f 901 900 210
f 901 210 895
f 893 901 895
f 893 895 51
f 241 902 905
f 241 905 898
f 902 220 903
f 902 903 905
f 905 903 108
f 905 108 904
f 898 905 904
f 898 904 51
f 209 906 908
f 209 908 892
f 906 52 907
f 906 907 908
f 908 907 208
f 908 208 740
f 892 908 740
f 892 740 105
f 107 701 909
f 107 909 900
f 701 211 889
f 701 889 909
f 909 889 53
f 909 53 896
f 900 909 896
f 900 896 210
f 241 897 912
f 241 912 911
f 897 53 888
f 897 888 912
f 912 888 215
f 912 215 910
f 911 912 910
f 911 910 242
f 241 911 915
f 241 915 902
f 911 242 913
f 911 913 915
f 915 913 110
f 915 110 914
f 902 915 914
f 902 914 220
f 242 910 918
f 242 918 917
f 910 215 885
f 910 885 918
f 918 885 55
f 918 55 916
f 917 918 916
f 917 916 237
f 103 919 921
f 103 921 920
f 919 214 711
f 919 711 921
f 921 711 46
f 921 46 708
f 920 921 708
f 920 708 178
f 237 916 923
f 237 923 922
f 916 55 884
f 916 884 923
f 923 884 214
f 923 214 919
f 922 923 919
f 922 919 103
f 103 920 925
f 103 925 924
f 920 178 720
f 920 720 925
f 925 720 47
f 925 47 881
f 924 925 881
f 924 881 216
f 216 882 929
f 216 929 928
f 882 106 926
f 882 926 929
f 929 926 239
f 929 239 927
f 928 929 927
f 928 927 238
f 217 930 932
f 217 932 931
f 930 110 913
f 930 913 932
f 932 913 242
f 932 242 917
f 931 932 917
f 931 917 237
f 244 933 935
f 244 935 934
f 933 103 924
f 933 924 935
f 935 924 216
f 935 216 928
f 934 935 928
f 934 928 238
f 217 931 937
f 217 937 936
f 931 237 922
f 931 922 937
f 937 922 103
f 937 103 933
f 936 937 933
f 936 933 244
f 240 938 940
f 240 940 939
f 938 52 906
f 938 906 940
f 940 906 209
f 940 209 891
f 939 940 891
f 939 891 51
f 51 904 943
f 51 943 939
f 904 108 941
f 904 941 943
f 943 941 219
f 943 219 942
f 939 943 942
f 939 942 240
f 104 743 946
f 104 946 945
f 743 208 907
f 743 907 946
f 946 907 52
f 946 52 944
f 945 946 944
f 945 944 212
f 212 944 878
f 212 878 879
f 944 52 938
f 944 938 878
f 878 938 240
f 878 240 880
f 879 878 880
f 879 880 245
f 245 880 864
f 245 864 870
f 880 240 942
f 880 942 864
f 864 942 219
f 864 219 872
f 870 864 872
f 870 872 111
f 213 727 852
f 213 852 853
f 727 104 945
f 727 945 852
f 852 945 212
f 852 212 863
f 853 852 863
f 853 863 54
f 239 926 844
f 239 844 845
f 926 106 730
f 926 730 844
f 844 730 213
f 844 213 853
f 845 844 853
f 845 853 54
f 246 839 832
f 246 832 833
f 839 245 870
f 839 870 832
f 832 870 111
f 832 111 838
f 833 832 838
f 833 838 218
