# _2nd_Intermediate_Phalanges_Hand_L posed
v -0.844896 -0.258609 0.380810
v -0.847174 -0.258418 0.381101
v -0.847458 -0.258652 0.378735
v -0.845447 -0.258776 0.378714
v -0.847161 -0.265219 0.383052
v -0.849050 -0.264041 0.382962
v -0.849239 -0.264765 0.381056
v -0.847409 -0.265194 0.380988
v -0.848512 -0.260627 0.382784
v -0.848638 -0.261187 0.380194
v -0.846706 -0.260031 0.377484
v -0.846741 -0.262048 0.378951
v -0.847451 -0.263867 0.379863
v -0.846474 -0.263951 0.380072
v -0.844688 -0.260043 0.377666
v -0.844913 -0.262473 0.379128
v -0.846830 -0.260822 0.383985
v -0.845387 -0.264112 0.381485
v -0.844088 -0.262541 0.380113
v -0.843527 -0.260221 0.379595
v -0.845377 -0.260765 0.385127
v -0.843186 -0.259060 0.382199
v -0.842447 -0.260431 0.381056
v -0.843170 -0.262275 0.381638
v -0.844020 -0.263737 0.382593
v -0.844907 -0.264693 0.384103
v -0.844380 -0.259434 0.383826
v -0.845909 -0.259392 0.382864
v -0.847968 -0.259334 0.382094
v -0.845881 -0.263027 0.385592
v -0.847464 -0.262884 0.384519
v -0.849177 -0.262256 0.383253
v -0.848214 -0.259985 0.379676
v -0.849476 -0.262681 0.380590
v -0.847949 -0.263387 0.379738
v -0.847584 -0.261982 0.379274
v -0.847538 -0.260633 0.378548
v -0.842801 -0.264396 0.385426
v -0.841766 -0.263697 0.383951
v -0.841098 -0.262338 0.383143
v -0.840809 -0.260717 0.382887
v -0.841338 -0.259222 0.383775
v -0.842566 -0.259412 0.385323
v -0.843581 -0.260732 0.386552
v -0.843896 -0.262930 0.386953
v -0.840279 -0.264275 0.387387
v -0.839120 -0.263726 0.385867
v -0.838501 -0.262389 0.385108
v -0.838287 -0.260713 0.384916
v -0.838891 -0.258988 0.385795
v -0.840187 -0.259250 0.387452
v -0.841061 -0.260693 0.388575
v -0.841344 -0.262826 0.388845
v -0.837746 -0.264369 0.389575
v -0.836574 -0.263657 0.388086
v -0.835895 -0.262384 0.387195
v -0.835560 -0.260531 0.386777
v -0.836287 -0.258457 0.387713
v -0.837729 -0.258826 0.389680
v -0.838564 -0.260550 0.390783
v -0.838843 -0.262809 0.391029
v -0.834914 -0.264862 0.392196
v -0.833542 -0.264057 0.390471
v -0.832669 -0.262420 0.389313
v -0.832108 -0.259925 0.388460
v -0.833088 -0.257273 0.389651
v -0.834860 -0.257792 0.392226
v -0.836012 -0.259881 0.393859
v -0.836057 -0.262724 0.393875
v -0.833535 -0.259515 0.396366
v -0.833676 -0.262791 0.395913
v -0.832912 -0.265196 0.394077
v -0.831794 -0.264137 0.391774
v -0.830708 -0.262433 0.390599
v -0.830000 -0.259718 0.390215
v -0.830582 -0.257171 0.391468
v -0.832424 -0.257047 0.394266
v -0.832211 -0.260316 0.394849
v -0.831828 -0.258825 0.393669
v -0.831076 -0.258876 0.392332
v -0.830482 -0.260132 0.391562
v -0.830843 -0.261862 0.392049
v -0.831390 -0.263184 0.392622
v -0.832098 -0.263494 0.393970
v -0.832554 -0.262000 0.394713
v -0.831902 -0.261005 0.392953
v -0.843999 -0.261425 0.379133
v -0.844938 -0.263497 0.380333
v -0.844173 -0.259116 0.378903
v -0.846352 -0.264727 0.381217
v -0.847961 -0.261592 0.383772
v -0.846413 -0.258806 0.381999
v -0.847236 -0.260027 0.383060
v -0.846201 -0.258753 0.379823
v -0.848367 -0.263656 0.383855
v -0.848246 -0.264728 0.381980
v -0.849937 -0.263244 0.382051
v -0.847550 -0.264496 0.380235
v -0.848474 -0.263749 0.379972
v -0.848956 -0.261594 0.381491
v -0.847333 -0.262993 0.379567
v -0.846638 -0.262987 0.379491
v -0.848455 -0.262348 0.379693
v -0.845923 -0.261158 0.377779
v -0.848388 -0.260396 0.380984
v -0.845938 -0.258980 0.377672
v -0.847665 -0.259759 0.378370
v -0.847062 -0.261144 0.378426
v -0.848001 -0.259150 0.380413
v -0.848175 -0.260939 0.379215
v -0.838400 -0.264210 0.387583
v -0.837520 -0.263081 0.386440
v -0.837047 -0.261598 0.385905
v -0.837144 -0.259657 0.386111
v -0.838356 -0.258630 0.387693
v -0.839428 -0.259831 0.389153
v -0.840112 -0.261668 0.389944
v -0.839753 -0.263887 0.389370
v -0.843320 -0.261392 0.380545
v -0.841979 -0.261501 0.382080
v -0.839603 -0.261607 0.383880
v -0.844340 -0.263168 0.381513
v -0.842608 -0.263027 0.382729
v -0.840027 -0.263107 0.384397
v -0.845196 -0.264445 0.382652
v -0.843369 -0.264184 0.383809
v -0.840922 -0.264200 0.385539
v -0.846451 -0.264241 0.384624
v -0.844588 -0.264108 0.385686
v -0.842207 -0.263847 0.387272
v -0.846548 -0.261796 0.384927
v -0.844939 -0.261767 0.386182
v -0.842607 -0.261701 0.387818
v -0.845666 -0.260021 0.383988
v -0.844095 -0.259968 0.385181
v -0.841928 -0.259919 0.387006
v -0.843297 -0.259291 0.380771
v -0.841841 -0.259701 0.382234
v -0.844537 -0.259024 0.382461
v -0.842924 -0.259152 0.383707
v -0.839680 -0.259843 0.384134
v -0.840781 -0.259010 0.385575
v -0.837492 -0.261448 0.392510
v -0.837068 -0.264029 0.391895
v -0.835567 -0.264323 0.389991
v -0.834603 -0.263176 0.388791
v -0.834010 -0.261450 0.387952
v -0.834079 -0.258964 0.387931
v -0.835576 -0.257759 0.389905
v -0.836884 -0.259180 0.391741
v -0.834336 -0.258191 0.394532
v -0.832774 -0.256406 0.391998
v -0.830842 -0.257919 0.389252
v -0.830929 -0.261238 0.389371
v -0.831965 -0.263445 0.390577
v -0.833079 -0.264778 0.391959
v -0.834592 -0.264473 0.394543
v -0.834980 -0.261195 0.395527
v -0.831384 -0.257899 0.392987
v -0.830240 -0.258735 0.391236
v -0.832696 -0.261421 0.395751
v -0.832218 -0.258852 0.395012
v -0.831092 -0.260482 0.392116
v -0.830169 -0.261079 0.391148
v -0.831031 -0.263015 0.391773
v -0.831577 -0.262467 0.392830
v -0.831777 -0.264232 0.393070
v -0.832579 -0.263582 0.394930
v -0.832429 -0.261735 0.394104
v -0.831903 -0.259558 0.393573
v -0.846226 -0.258427 0.381093
v -0.847758 -0.258542 0.380038
v -0.846242 -0.258736 0.378381
v -0.844917 -0.258706 0.379547
v -0.848282 -0.264527 0.383172
v -0.849481 -0.264463 0.382237
v -0.848202 -0.265180 0.380969
v -0.847204 -0.265443 0.381849
v -0.847641 -0.258791 0.381615
v -0.848847 -0.261424 0.383054
v -0.848049 -0.259315 0.379313
v -0.848634 -0.260949 0.381227
v -0.849040 -0.261879 0.380396
v -0.847074 -0.259236 0.377808
v -0.846580 -0.261090 0.378010
v -0.847120 -0.262065 0.379140
v -0.847011 -0.262973 0.379520
v -0.848126 -0.264303 0.380094
v -0.846826 -0.264491 0.380427
v -0.846984 -0.263861 0.379921
v -0.844895 -0.259082 0.377974
v -0.845699 -0.259927 0.377274
v -0.845587 -0.263323 0.379777
v -0.846252 -0.262127 0.378823
v -0.844645 -0.261411 0.378287
v -0.847584 -0.260754 0.383451
v -0.847209 -0.261740 0.384342
v -0.846402 -0.260058 0.383501
v -0.845813 -0.264220 0.380704
v -0.845835 -0.264595 0.382062
v -0.844261 -0.262527 0.379738
v -0.844699 -0.263487 0.380753
v -0.843987 -0.260187 0.378612
v -0.843766 -0.261373 0.379763
v -0.843799 -0.259186 0.379979
v -0.846152 -0.260814 0.384544
v -0.844908 -0.259991 0.384529
v -0.843939 -0.258933 0.381576
v -0.842632 -0.259485 0.381455
v -0.842997 -0.260326 0.380293
v -0.842755 -0.261418 0.381256
v -0.843812 -0.262302 0.380998
v -0.843617 -0.263063 0.382091
v -0.844834 -0.263882 0.382046
v -0.844372 -0.264295 0.383195
v -0.845804 -0.264868 0.383671
v -0.845588 -0.264215 0.385080
v -0.843785 -0.259110 0.383053
v -0.845139 -0.259418 0.383295
v -0.845349 -0.258894 0.382103
v -0.846856 -0.259366 0.382584
v -0.848209 -0.259929 0.382494
v -0.845794 -0.261782 0.385541
v -0.846692 -0.263019 0.385018
v -0.847385 -0.264104 0.384275
v -0.848286 -0.262590 0.383987
v -0.849268 -0.263286 0.383248
v -0.848179 -0.259840 0.380714
v -0.848372 -0.260566 0.379973
v -0.849416 -0.262358 0.381797
v -0.849725 -0.263500 0.380823
v -0.848467 -0.263121 0.379822
v -0.847980 -0.260362 0.378843
v -0.847747 -0.263627 0.379769
v -0.847751 -0.262811 0.379578
v -0.848300 -0.261600 0.379474
v -0.847557 -0.261247 0.378866
v -0.847248 -0.260357 0.378120
v -0.842202 -0.264221 0.384619
v -0.841401 -0.263056 0.383472
v -0.840903 -0.261570 0.382937
v -0.840861 -0.259882 0.383143
v -0.841938 -0.259133 0.384550
v -0.843121 -0.259922 0.385991
v -0.843907 -0.261741 0.386928
v -0.843476 -0.263994 0.386387
v -0.839654 -0.264186 0.386564
v -0.838764 -0.263104 0.385415
v -0.838346 -0.261601 0.384923
v -0.838431 -0.259776 0.385168
v -0.839553 -0.258862 0.386662
v -0.840665 -0.259866 0.388099
v -0.841328 -0.261676 0.388870
v -0.840944 -0.263819 0.388282
v -0.837079 -0.264145 0.388705
v -0.836202 -0.263061 0.387587
v -0.835638 -0.261552 0.386871
v -0.835769 -0.259434 0.387046
v -0.837075 -0.258244 0.388738
v -0.838194 -0.259637 0.390331
v -0.838835 -0.261616 0.391070
v -0.838491 -0.263939 0.390511
v -0.834113 -0.264540 0.391185
v -0.833053 -0.263350 0.389869
v -0.832289 -0.261312 0.388796
v -0.832323 -0.258378 0.388643
v -0.834027 -0.257245 0.391031
v -0.835544 -0.258690 0.393210
v -0.836196 -0.261273 0.394108
v -0.835643 -0.264121 0.393244
v -0.841552 -0.264319 0.386386
v -0.840424 -0.263738 0.384879
v -0.839774 -0.262390 0.384056
v -0.839547 -0.260749 0.383884
v -0.840134 -0.259145 0.384772
v -0.841394 -0.259320 0.386361
v -0.842332 -0.260726 0.387481
v -0.842635 -0.262833 0.387802
v -0.839059 -0.264317 0.388434
v -0.837886 -0.263716 0.386911
v -0.837248 -0.262396 0.386114
v -0.836973 -0.260670 0.385866
v -0.837623 -0.258787 0.386747
v -0.838961 -0.259127 0.388539
v -0.839841 -0.260673 0.389633
v -0.840128 -0.262852 0.389914
v -0.836309 -0.264579 0.390900
v -0.835046 -0.263822 0.389318
v -0.834280 -0.262391 0.388315
v -0.833890 -0.260280 0.387776
v -0.834696 -0.257888 0.388703
v -0.836318 -0.258323 0.390982
v -0.837276 -0.260241 0.392272
v -0.837450 -0.262769 0.392425
v -0.842249 -0.262285 0.382336
v -0.841779 -0.260617 0.381966
v -0.843012 -0.263657 0.383210
v -0.843907 -0.264512 0.384701
v -0.844983 -0.263014 0.386209
v -0.844555 -0.260749 0.385771
v -0.843532 -0.259444 0.384483
v -0.842340 -0.259162 0.382925
v -0.834782 -0.259609 0.395285
v -0.834927 -0.262825 0.395211
v -0.833690 -0.261235 0.396434
v -0.833416 -0.264338 0.395223
v -0.833919 -0.265304 0.393194
v -0.832249 -0.264768 0.392519
v -0.832521 -0.264212 0.391245
v -0.831287 -0.263377 0.391159
v -0.831473 -0.262470 0.389959
v -0.830186 -0.261163 0.390241
v -0.830674 -0.259670 0.389028
v -0.830167 -0.258358 0.390570
v -0.831714 -0.256554 0.390352
v -0.831564 -0.256673 0.392840
v -0.833705 -0.257166 0.393381
v -0.833204 -0.258097 0.395435
v -0.832423 -0.260042 0.395747
v -0.831909 -0.258107 0.394042
v -0.832011 -0.259436 0.394299
v -0.831577 -0.258654 0.393089
v -0.830671 -0.258083 0.392005
v -0.830593 -0.259331 0.391701
v -0.830046 -0.259798 0.391017
v -0.830540 -0.260965 0.391713
v -0.830548 -0.262169 0.391449
v -0.831142 -0.262633 0.392340
v -0.831396 -0.263558 0.392350
v -0.831609 -0.263560 0.393034
v -0.832162 -0.264502 0.394116
v -0.832502 -0.262727 0.394403
v -0.832776 -0.262366 0.395332
v -0.832456 -0.261276 0.394967
v -0.832174 -0.260593 0.394077
v -0.831567 -0.259988 0.392620
v -0.831362 -0.261481 0.392437
v -0.832135 -0.262099 0.393320
f 1 171 92
f 1 92 220
f 174 94 171
f 174 171 1
f 1 208 137
f 1 137 205
f 220 139 208
f 220 208 1
f 205 89 174
f 205 174 1
f 171 94 172
f 171 172 2
f 2 172 109
f 2 109 179
f 2 179 92
f 2 92 171
f 172 94 173
f 172 173 3
f 3 173 106
f 3 106 184
f 184 107 181
f 184 181 3
f 3 181 109
f 3 109 172
f 4 174 89
f 4 89 191
f 173 94 174
f 173 174 4
f 4 191 106
f 4 106 173
f 225 95 175
f 225 175 5
f 5 175 96
f 5 96 178
f 200 125 216
f 200 216 5
f 5 216 128
f 5 128 225
f 5 178 90
f 5 90 200
f 6 176 96
f 6 96 175
f 227 97 176
f 227 176 6
f 175 95 227
f 175 227 6
f 7 177 96
f 7 96 176
f 188 98 177
f 188 177 7
f 231 99 188
f 231 188 7
f 176 97 231
f 176 231 7
f 189 90 178
f 189 178 8
f 8 178 96
f 8 96 177
f 177 98 189
f 177 189 8
f 9 180 91
f 9 91 196
f 182 100 180
f 182 180 9
f 9 196 93
f 9 93 222
f 9 222 105
f 9 105 182
f 192 104 185
f 192 185 11
f 11 185 108
f 11 108 238
f 11 238 107
f 11 107 184
f 11 184 106
f 11 106 192
f 187 101 186
f 187 186 12
f 12 186 108
f 12 108 185
f 194 102 187
f 194 187 12
f 12 185 104
f 12 104 194
f 13 190 98
f 13 98 188
f 187 102 190
f 187 190 13
f 188 99 234
f 188 234 13
f 13 234 101
f 13 101 187
f 14 193 88
f 14 88 199
f 190 102 193
f 190 193 14
f 14 199 90
f 14 90 189
f 14 189 98
f 14 98 190
f 195 104 192
f 195 192 15
f 15 192 106
f 15 106 191
f 203 87 195
f 203 195 15
f 191 89 203
f 191 203 15
f 193 102 194
f 193 194 16
f 16 194 104
f 16 104 195
f 195 87 201
f 195 201 16
f 16 201 88
f 16 88 193
f 196 91 197
f 196 197 17
f 17 197 131
f 17 131 206
f 17 198 93
f 17 93 196
f 206 134 198
f 206 198 17
f 18 200 90
f 18 90 199
f 214 125 200
f 214 200 18
f 199 88 202
f 199 202 18
f 18 202 122
f 18 122 214
f 201 87 204
f 201 204 19
f 19 204 119
f 19 119 212
f 19 212 122
f 19 122 202
f 202 88 201
f 202 201 19
f 203 89 205
f 203 205 20
f 20 205 137
f 20 137 210
f 20 210 119
f 20 119 204
f 204 87 203
f 204 203 20
f 21 207 134
f 21 134 206
f 300 135 207
f 300 207 21
f 206 131 223
f 206 223 21
f 21 223 132
f 21 132 300
f 22 209 137
f 22 137 208
f 302 138 209
f 302 209 22
f 208 139 218
f 208 218 22
f 22 218 140
f 22 140 302
f 23 211 119
f 23 119 210
f 296 120 211
f 296 211 23
f 209 138 296
f 209 296 23
f 210 137 209
f 210 209 23
f 24 213 122
f 24 122 212
f 295 123 213
f 295 213 24
f 211 120 295
f 211 295 24
f 212 119 211
f 212 211 24
f 25 215 125
f 25 125 214
f 297 126 215
f 297 215 25
f 213 123 297
f 213 297 25
f 214 122 213
f 214 213 25
f 26 217 128
f 26 128 216
f 298 129 217
f 298 217 26
f 215 126 298
f 215 298 26
f 216 125 215
f 216 215 26
f 27 219 134
f 27 134 207
f 218 139 219
f 218 219 27
f 207 135 301
f 207 301 27
f 27 301 140
f 27 140 218
f 220 92 221
f 220 221 28
f 28 221 93
f 28 93 198
f 28 198 134
f 28 134 219
f 28 219 139
f 28 139 220
f 29 228 105
f 29 105 222
f 179 109 228
f 179 228 29
f 221 92 179
f 221 179 29
f 222 93 221
f 222 221 29
f 30 224 128
f 30 128 217
f 223 131 224
f 223 224 30
f 217 129 299
f 217 299 30
f 30 299 132
f 30 132 223
f 197 91 226
f 197 226 31
f 31 226 95
f 31 95 225
f 224 131 197
f 224 197 31
f 225 128 224
f 225 224 31
f 32 230 97
f 32 97 227
f 180 100 230
f 180 230 32
f 226 91 180
f 226 180 32
f 227 95 226
f 227 226 32
f 181 107 233
f 181 233 33
f 33 233 110
f 33 110 229
f 228 109 181
f 228 181 33
f 229 105 228
f 229 228 33
f 34 232 99
f 34 99 231
f 183 103 232
f 183 232 34
f 230 100 183
f 230 183 34
f 231 97 230
f 231 230 34
f 35 235 101
f 35 101 234
f 232 103 235
f 232 235 35
f 234 99 232
f 234 232 35
f 36 237 108
f 36 108 186
f 236 110 237
f 236 237 36
f 36 186 101
f 36 101 235
f 36 235 103
f 36 103 236
f 37 233 107
f 37 107 238
f 237 110 233
f 237 233 37
f 238 108 237
f 238 237 37
f 298 126 239
f 298 239 38
f 38 239 127
f 38 127 271
f 38 271 130
f 38 130 246
f 38 246 129
f 38 129 298
f 297 123 240
f 297 240 39
f 39 240 124
f 39 124 272
f 39 272 127
f 39 127 239
f 39 239 126
f 39 126 297
f 295 120 241
f 295 241 40
f 40 241 121
f 40 121 273
f 40 273 124
f 40 124 240
f 40 240 123
f 40 123 295
f 296 138 242
f 296 242 41
f 41 242 141
f 41 141 274
f 41 274 121
f 41 121 241
f 41 241 120
f 41 120 296
f 302 140 243
f 302 243 42
f 42 243 142
f 42 142 275
f 42 275 141
f 42 141 242
f 242 138 302
f 242 302 42
f 301 135 244
f 301 244 43
f 43 244 136
f 43 136 276
f 43 276 142
f 43 142 243
f 43 243 140
f 43 140 301
f 300 132 245
f 300 245 44
f 44 245 133
f 44 133 277
f 44 277 136
f 44 136 244
f 244 135 300
f 244 300 44
f 299 129 246
f 299 246 45
f 45 246 130
f 45 130 278
f 45 278 133
f 45 133 245
f 45 245 132
f 45 132 299
f 46 247 111
f 46 111 279
f 271 127 247
f 271 247 46
f 46 279 118
f 46 118 254
f 46 254 130
f 46 130 271
f 47 248 112
f 47 112 280
f 272 124 248
f 272 248 47
f 47 280 111
f 47 111 247
f 47 247 127
f 47 127 272
f 48 249 113
f 48 113 281
f 273 121 249
f 273 249 48
f 48 281 112
f 48 112 248
f 48 248 124
f 48 124 273
f 49 250 114
f 49 114 282
f 274 141 250
f 274 250 49
f 49 282 113
f 49 113 249
f 49 249 121
f 49 121 274
f 50 251 115
f 50 115 283
f 275 142 251
f 275 251 50
f 50 283 114
f 50 114 250
f 50 250 141
f 50 141 275
f 51 252 116
f 51 116 284
f 276 136 252
f 276 252 51
f 51 284 115
f 51 115 251
f 51 251 142
f 51 142 276
f 52 253 117
f 52 117 285
f 277 133 253
f 277 253 52
f 52 285 116
f 52 116 252
f 52 252 136
f 52 136 277
f 53 254 118
f 53 118 286
f 278 130 254
f 278 254 53
f 53 286 117
f 53 117 253
f 53 253 133
f 53 133 278
f 279 111 255
f 279 255 54
f 54 255 145
f 54 145 287
f 54 287 144
f 54 144 262
f 54 262 118
f 54 118 279
f 280 112 256
f 280 256 55
f 55 256 146
f 55 146 288
f 55 288 145
f 55 145 255
f 55 255 111
f 55 111 280
f 281 113 257
f 281 257 56
f 56 257 147
f 56 147 289
f 56 289 146
f 56 146 256
f 56 256 112
f 56 112 281
f 282 114 258
f 282 258 57
f 57 258 148
f 57 148 290
f 57 290 147
f 57 147 257
f 57 257 113
f 57 113 282
f 283 115 259
f 283 259 58
f 58 259 149
f 58 149 291
f 58 291 148
f 58 148 258
f 58 258 114
f 58 114 283
f 284 116 260
f 284 260 59
f 59 260 150
f 59 150 292
f 59 292 149
f 59 149 259
f 59 259 115
f 59 115 284
f 285 117 261
f 285 261 60
f 60 261 143
f 60 143 293
f 60 293 150
f 60 150 260
f 60 260 116
f 60 116 285
f 286 118 262
f 286 262 61
f 61 262 144
f 61 144 294
f 61 294 143
f 61 143 261
f 61 261 117
f 61 117 286
f 287 145 263
f 287 263 62
f 62 263 156
f 62 156 307
f 62 307 157
f 62 157 270
f 62 270 144
f 62 144 287
f 288 146 264
f 288 264 63
f 63 264 155
f 63 155 309
f 63 309 156
f 63 156 263
f 63 263 145
f 63 145 288
f 289 147 265
f 289 265 64
f 64 265 154
f 64 154 311
f 64 311 155
f 64 155 264
f 64 264 146
f 64 146 289
f 290 148 266
f 290 266 65
f 65 266 153
f 65 153 313
f 65 313 154
f 65 154 265
f 65 265 147
f 65 147 290
f 291 149 267
f 291 267 66
f 66 267 152
f 66 152 315
f 66 315 153
f 66 153 266
f 66 266 148
f 66 148 291
f 292 150 268
f 292 268 67
f 67 268 151
f 67 151 317
f 67 317 152
f 67 152 267
f 67 267 149
f 67 149 292
f 293 143 269
f 293 269 68
f 68 269 158
f 68 158 303
f 68 303 151
f 68 151 268
f 68 268 150
f 68 150 293
f 294 144 270
f 294 270 69
f 69 270 157
f 69 157 304
f 69 304 158
f 69 158 269
f 69 269 143
f 69 143 294
f 303 158 305
f 303 305 70
f 70 305 161
f 70 161 319
f 70 319 162
f 70 162 318
f 318 151 303
f 318 303 70
f 304 157 306
f 304 306 71
f 71 306 168
f 71 168 333
f 71 333 161
f 71 161 305
f 305 158 304
f 305 304 71
f 307 156 308
f 307 308 72
f 72 308 167
f 72 167 331
f 72 331 168
f 72 168 306
f 72 306 157
f 72 157 307
f 309 155 310
f 309 310 73
f 73 310 165
f 73 165 329
f 73 329 167
f 73 167 308
f 73 308 156
f 73 156 309
f 311 154 312
f 311 312 74
f 74 312 164
f 74 164 327
f 74 327 165
f 74 165 310
f 74 310 155
f 74 155 311
f 313 153 314
f 313 314 75
f 75 314 160
f 75 160 325
f 75 325 164
f 75 164 312
f 75 312 154
f 75 154 313
f 315 152 316
f 315 316 76
f 76 316 159
f 76 159 323
f 76 323 160
f 76 160 314
f 76 314 153
f 76 153 315
f 317 151 318
f 317 318 77
f 77 318 162
f 77 162 320
f 77 320 159
f 77 159 316
f 77 316 152
f 77 152 317
f 78 321 162
f 78 162 319
f 335 170 321
f 335 321 78
f 334 169 335
f 334 335 78
f 78 319 161
f 78 161 334
f 79 322 159
f 79 159 320
f 321 170 322
f 321 322 79
f 79 320 162
f 79 162 321
f 80 324 160
f 80 160 323
f 336 163 324
f 336 324 80
f 322 170 336
f 322 336 80
f 323 159 322
f 323 322 80
f 324 163 326
f 324 326 81
f 81 326 164
f 81 164 325
f 325 160 324
f 325 324 81
f 82 328 165
f 82 165 327
f 337 166 328
f 337 328 82
f 326 163 337
f 326 337 82
f 327 164 326
f 327 326 82
f 328 166 330
f 328 330 83
f 83 330 167
f 83 167 329
f 329 165 328
f 329 328 83
f 84 332 168
f 84 168 331
f 338 169 332
f 338 332 84
f 84 330 166
f 84 166 338
f 331 167 330
f 331 330 84
f 85 334 161
f 85 161 333
f 332 169 334
f 332 334 85
f 333 168 332
f 333 332 85
f 86 338 166
f 86 166 337
f 335 169 338
f 335 338 86
f 336 170 335
f 336 335 86
f 337 163 336
f 337 336 86
f 100 182 10
f 100 10 183
f 103 183 10
f 103 10 236
f 229 10 182
f 229 182 105
f 110 236 10
f 110 10 229
