# _2nd_Proximal_Phalanges_Hand_R rest
v -0.842764 0.035048 -0.039933
v -0.843461 0.033591 -0.046459
v -0.841348 0.034044 -0.046398
v -0.839651 0.031587 -0.048621
v -0.838372 0.030503 -0.045117
v -0.839635 0.029572 -0.044551
v -0.841704 0.029817 -0.043461
v -0.844175 0.030543 -0.045254
v -0.845021 0.032882 -0.044802
v -0.841789 0.030715 -0.048281
v -0.841020 0.035419 -0.039905
v -0.844078 0.033557 -0.039882
v -0.842549 0.035024 -0.034235
v -0.844357 0.033945 -0.035617
v -0.840053 0.035069 -0.033950
v -0.838856 0.033399 -0.031311
v -0.841492 0.033099 -0.032161
v -0.843580 0.032311 -0.034064
v -0.839889 0.031251 -0.034103
v -0.841771 0.031202 -0.035019
v -0.838268 0.031804 -0.033968
v -0.839161 0.030510 -0.039154
v -0.841220 0.030456 -0.039331
v -0.843855 0.031389 -0.039656
v -0.838105 0.031301 -0.039343
v -0.837472 0.032394 -0.047128
v -0.838877 0.034639 -0.044974
v -0.836330 0.031277 -0.044179
v -0.838745 0.035638 -0.040103
v -0.837727 0.035220 -0.035577
v -0.836393 0.033551 -0.033956
v -0.836118 0.032424 -0.035834
v -0.835860 0.031568 -0.039623
v -0.832738 0.033882 -0.035628
v -0.834127 0.035524 -0.037098
v -0.835028 0.035893 -0.040705
v -0.835005 0.035029 -0.044393
v -0.833908 0.033095 -0.046311
v -0.832563 0.031776 -0.044476
v -0.831848 0.031647 -0.040896
v -0.831901 0.032434 -0.037588
v -0.827440 0.034438 -0.036043
v -0.829184 0.036124 -0.038174
v -0.830130 0.036433 -0.041777
v -0.830243 0.035607 -0.045565
v -0.829181 0.033583 -0.047917
v -0.827484 0.032052 -0.045720
v -0.826540 0.031830 -0.042165
v -0.826411 0.032583 -0.038428
v -0.821875 0.034619 -0.036263
v -0.823781 0.036281 -0.038740
v -0.824935 0.036556 -0.042764
v -0.825237 0.035745 -0.046842
v -0.824310 0.033638 -0.049680
v -0.822167 0.031779 -0.047283
v -0.821159 0.031887 -0.043058
v -0.820852 0.032731 -0.038987
v -0.815576 0.034383 -0.035647
v -0.818218 0.036556 -0.038226
v -0.820126 0.037220 -0.043134
v -0.820583 0.035991 -0.048403
v -0.819239 0.033235 -0.051695
v -0.816225 0.030446 -0.049431
v -0.814811 0.031112 -0.043292
v -0.813892 0.031779 -0.037203
v -0.817768 0.037412 -0.043512
v -0.818551 0.036422 -0.050115
v -0.816398 0.033143 -0.054322
v -0.812310 0.030210 -0.050704
v -0.811722 0.031194 -0.043830
v -0.809617 0.031579 -0.035819
v -0.812066 0.034551 -0.033622
v -0.815618 0.036848 -0.037671
v -0.815299 0.036576 -0.043890
v -0.814044 0.036722 -0.038595
v -0.810116 0.035082 -0.035979
v -0.808076 0.032357 -0.037222
v -0.811003 0.031950 -0.044121
v -0.811820 0.031714 -0.049456
v -0.813375 0.033594 -0.050861
v -0.815905 0.035992 -0.049073
v -0.812265 0.034098 -0.044210
v -0.840371 0.030760 -0.036652
v -0.843885 0.031810 -0.047404
v -0.843239 0.033683 -0.033115
v -0.841980 0.032036 -0.033057
v -0.842870 0.030378 -0.042056
v -0.844923 0.032170 -0.042426
v -0.843964 0.034044 -0.042699
v -0.843648 0.034622 -0.037402
v -0.844733 0.032859 -0.037319
v -0.842592 0.031192 -0.036846
v -0.841685 0.029760 -0.045948
v -0.840158 0.029869 -0.041637
v -0.839762 0.030163 -0.047618
v -0.841992 0.032426 -0.049083
v -0.842158 0.034732 -0.043171
v -0.841603 0.035367 -0.036839
v -0.840690 0.034218 -0.031866
v -0.839465 0.032133 -0.032005
v -0.838756 0.031122 -0.036300
v -0.838617 0.030296 -0.042199
v -0.829563 0.033223 -0.036687
v -0.825681 0.035569 -0.036932
v -0.827186 0.036552 -0.040320
v -0.827859 0.036305 -0.044377
v -0.827497 0.034849 -0.047913
v -0.825766 0.032584 -0.048073
v -0.824267 0.031761 -0.044583
v -0.823703 0.032140 -0.040619
v -0.824017 0.033448 -0.037136
v -0.840282 0.035121 -0.042907
v -0.837225 0.035465 -0.042461
v -0.832794 0.035923 -0.043056
v -0.839630 0.033319 -0.047703
v -0.836699 0.033922 -0.046139
v -0.832337 0.034512 -0.046277
v -0.837998 0.031261 -0.046539
v -0.835210 0.031977 -0.045605
v -0.830792 0.032516 -0.046255
v -0.837314 0.031152 -0.042085
v -0.834212 0.031378 -0.042307
v -0.829589 0.031731 -0.043250
v -0.837384 0.031927 -0.036961
v -0.834027 0.031926 -0.038297
v -0.829169 0.032015 -0.039709
v -0.837530 0.032771 -0.033091
v -0.834468 0.033005 -0.035788
v -0.839554 0.035546 -0.037200
v -0.836687 0.035696 -0.038240
v -0.838265 0.034403 -0.032915
v -0.835435 0.034587 -0.035184
v -0.831018 0.035197 -0.036264
v -0.832332 0.036199 -0.039323
v -0.822518 0.036370 -0.045367
v -0.822312 0.034789 -0.049317
v -0.820416 0.032148 -0.050130
v -0.818338 0.031266 -0.045661
v -0.817496 0.031908 -0.040833
v -0.817752 0.033321 -0.036872
v -0.819749 0.035595 -0.036929
v -0.821600 0.036713 -0.040613
v -0.817807 0.037318 -0.040364
v -0.815116 0.035762 -0.035804
v -0.812098 0.032930 -0.034324
v -0.811661 0.030721 -0.039930
v -0.813351 0.030666 -0.046773
v -0.816093 0.031255 -0.053306
v -0.819060 0.034872 -0.052102
v -0.819344 0.037114 -0.046432
v -0.815979 0.037228 -0.040690
v -0.813080 0.036122 -0.035431
v -0.809104 0.033302 -0.033769
v -0.809251 0.031244 -0.040561
v -0.811758 0.031301 -0.047327
v -0.812996 0.031930 -0.052459
v -0.816422 0.035216 -0.052580
v -0.817237 0.036928 -0.046776
v -0.812879 0.035785 -0.040554
v -0.814219 0.035039 -0.047443
v -0.810014 0.033257 -0.040432
v -0.812036 0.032610 -0.047726
v -0.843058 0.034526 -0.043014
v -0.842426 0.033765 -0.046735
v -0.840769 0.032888 -0.048663
v -0.838953 0.030741 -0.047333
v -0.838915 0.029901 -0.045087
v -0.840685 0.029600 -0.043972
v -0.842686 0.029995 -0.044244
v -0.845208 0.031865 -0.045575
v -0.844545 0.033254 -0.045853
v -0.840797 0.031053 -0.048984
v -0.842834 0.030520 -0.047248
v -0.842849 0.032063 -0.048237
v -0.840617 0.029827 -0.047026
v -0.841840 0.035290 -0.039905
v -0.841297 0.034913 -0.043158
v -0.843606 0.034427 -0.039943
v -0.844420 0.033233 -0.042369
v -0.842676 0.035196 -0.037087
v -0.843819 0.034587 -0.034929
v -0.844199 0.033761 -0.037558
v -0.840577 0.035440 -0.036823
v -0.841239 0.035108 -0.033831
v -0.839443 0.034378 -0.031755
v -0.841939 0.033963 -0.032568
v -0.840120 0.033217 -0.031390
v -0.842598 0.032899 -0.032864
v -0.844487 0.033302 -0.034530
v -0.842619 0.031585 -0.034393
v -0.840729 0.032027 -0.032353
v -0.840999 0.031190 -0.034454
v -0.838461 0.032435 -0.032121
v -0.839019 0.031481 -0.033833
v -0.839190 0.029972 -0.041800
v -0.841532 0.030051 -0.041708
v -0.840075 0.030362 -0.039185
v -0.841509 0.030891 -0.036814
v -0.839405 0.030864 -0.036463
v -0.842487 0.030787 -0.039544
v -0.844269 0.030933 -0.042317
v -0.843920 0.031751 -0.036908
v -0.844595 0.032585 -0.039824
v -0.838605 0.030839 -0.039232
v -0.838142 0.030801 -0.042308
v -0.838233 0.031600 -0.036489
v -0.838594 0.032038 -0.047822
v -0.840244 0.034368 -0.045668
v -0.838346 0.033642 -0.046816
v -0.837614 0.030987 -0.044689
v -0.836780 0.031615 -0.045890
v -0.838945 0.035314 -0.042603
v -0.840005 0.035547 -0.040002
v -0.838332 0.035622 -0.037691
v -0.838915 0.035098 -0.034696
v -0.836984 0.034489 -0.034166
v -0.837687 0.033504 -0.032386
v -0.836237 0.032908 -0.034681
v -0.837486 0.032260 -0.034752
v -0.835965 0.031970 -0.037504
v -0.837232 0.031535 -0.039427
v -0.836004 0.031289 -0.041953
v -0.833424 0.034836 -0.035872
v -0.834669 0.035883 -0.038789
v -0.835159 0.035607 -0.042640
v -0.834606 0.034162 -0.045791
v -0.833178 0.032292 -0.045653
v -0.832085 0.031538 -0.042791
v -0.831777 0.031940 -0.039126
v -0.832203 0.033072 -0.036409
v -0.828402 0.035486 -0.036723
v -0.829768 0.036435 -0.039935
v -0.830309 0.036165 -0.043717
v -0.829894 0.034718 -0.047153
v -0.828241 0.032617 -0.047142
v -0.826912 0.031793 -0.043970
v -0.826366 0.032088 -0.040185
v -0.826741 0.033347 -0.036904
v -0.822863 0.035633 -0.037049
v -0.824483 0.036571 -0.040672
v -0.825207 0.036286 -0.044847
v -0.824991 0.034877 -0.048592
v -0.823200 0.032416 -0.049143
v -0.821538 0.031690 -0.045165
v -0.820909 0.032215 -0.040978
v -0.821130 0.033470 -0.037248
v -0.816931 0.035624 -0.036538
v -0.819266 0.037089 -0.040471
v -0.820541 0.036833 -0.045898
v -0.820191 0.034771 -0.050520
v -0.817950 0.031660 -0.051771
v -0.815345 0.030751 -0.046155
v -0.814124 0.031203 -0.040240
v -0.814450 0.033057 -0.035698
v -0.830178 0.034188 -0.035827
v -0.831771 0.035869 -0.037599
v -0.832669 0.036204 -0.041186
v -0.832684 0.035357 -0.044826
v -0.831660 0.033442 -0.046944
v -0.830092 0.031967 -0.044908
v -0.829298 0.031772 -0.041499
v -0.829243 0.032509 -0.038071
v -0.824717 0.034556 -0.036224
v -0.826534 0.036228 -0.038461
v -0.827622 0.036566 -0.042327
v -0.827825 0.035735 -0.046294
v -0.826794 0.033672 -0.048778
v -0.824854 0.031972 -0.046448
v -0.823891 0.031855 -0.042608
v -0.823714 0.032651 -0.038764
v -0.818652 0.034497 -0.036345
v -0.820789 0.036360 -0.038499
v -0.822211 0.036695 -0.043037
v -0.822550 0.035745 -0.047503
v -0.821559 0.033475 -0.050320
v -0.819105 0.031225 -0.048189
v -0.817865 0.031537 -0.043268
v -0.817364 0.032430 -0.038533
v -0.837074 0.035734 -0.040342
v -0.837120 0.034873 -0.044475
v -0.835902 0.032764 -0.046546
v -0.834618 0.031517 -0.044179
v -0.834029 0.031574 -0.040191
v -0.834210 0.032436 -0.036832
v -0.834842 0.033711 -0.035060
v -0.836114 0.035306 -0.036421
v -0.818770 0.037440 -0.043353
v -0.819611 0.036296 -0.049546
v -0.818349 0.037114 -0.046719
v -0.817954 0.035099 -0.053061
v -0.817755 0.033087 -0.053252
v -0.814323 0.031378 -0.053610
v -0.814046 0.030075 -0.050392
v -0.812227 0.030886 -0.047194
v -0.812750 0.030975 -0.043431
v -0.810152 0.030756 -0.040242
v -0.811325 0.031519 -0.036064
v -0.810461 0.033025 -0.033536
v -0.813455 0.034397 -0.034516
v -0.813944 0.035942 -0.035297
v -0.816608 0.036750 -0.037853
v -0.816847 0.037326 -0.040436
v -0.816714 0.037221 -0.043677
v -0.814765 0.036867 -0.037998
v -0.814638 0.036762 -0.040886
v -0.812395 0.036170 -0.037183
v -0.810784 0.034906 -0.033527
v -0.808395 0.033494 -0.035876
v -0.808358 0.031916 -0.036210
v -0.809345 0.032073 -0.040875
v -0.811217 0.031532 -0.044031
v -0.811657 0.031800 -0.047334
v -0.811726 0.031187 -0.050044
v -0.812432 0.032393 -0.050502
v -0.814688 0.033442 -0.053490
v -0.814789 0.035042 -0.050209
v -0.817115 0.036350 -0.049768
v -0.815714 0.036252 -0.046876
v -0.811257 0.034561 -0.040259
v -0.811302 0.032853 -0.044194
v -0.812914 0.033728 -0.047863
v -0.813713 0.035418 -0.044026
f 2 164 96
f 2 96 174
f 163 97 164
f 163 164 2
f 171 89 163
f 171 163 2
f 174 84 171
f 174 171 2
f 3 165 96
f 3 96 164
f 208 115 165
f 208 165 3
f 177 112 208
f 177 208 3
f 3 164 97
f 3 97 177
f 4 166 95
f 4 95 172
f 207 118 166
f 207 166 4
f 165 115 207
f 165 207 4
f 172 96 165
f 172 165 4
f 5 167 95
f 5 95 166
f 205 102 167
f 205 167 5
f 166 118 210
f 166 210 5
f 5 210 121
f 5 121 205
f 6 168 93
f 6 93 175
f 195 94 168
f 195 168 6
f 167 102 195
f 167 195 6
f 175 95 167
f 175 167 6
f 196 87 169
f 196 169 7
f 7 169 93
f 7 93 168
f 168 94 196
f 168 196 7
f 8 170 84
f 8 84 173
f 201 88 170
f 201 170 8
f 169 87 201
f 169 201 8
f 173 93 169
f 173 169 8
f 9 171 84
f 9 84 170
f 179 89 171
f 179 171 9
f 9 170 88
f 9 88 179
f 11 177 97
f 11 97 176
f 213 112 177
f 213 177 11
f 176 98 183
f 176 183 11
f 11 183 129
f 11 129 213
f 12 179 88
f 12 88 203
f 178 89 179
f 178 179 12
f 12 182 90
f 12 90 178
f 203 91 182
f 203 182 12
f 13 181 85
f 13 85 186
f 180 90 181
f 180 181 13
f 13 184 98
f 13 98 180
f 186 99 184
f 186 184 13
f 14 189 85
f 14 85 181
f 182 91 189
f 182 189 14
f 14 181 90
f 14 90 182
f 184 99 185
f 184 185 15
f 15 185 131
f 15 131 215
f 15 215 129
f 15 129 183
f 15 183 98
f 15 98 184
f 185 99 187
f 185 187 16
f 16 187 100
f 16 100 193
f 16 193 127
f 16 127 217
f 16 217 131
f 16 131 185
f 186 85 188
f 186 188 17
f 17 188 86
f 17 86 191
f 17 191 100
f 17 100 187
f 187 99 186
f 187 186 17
f 18 190 86
f 18 86 188
f 202 92 190
f 202 190 18
f 18 188 85
f 18 85 189
f 18 189 91
f 18 91 202
f 19 192 83
f 19 83 199
f 191 86 192
f 191 192 19
f 19 194 100
f 19 100 191
f 199 101 194
f 199 194 19
f 192 86 190
f 192 190 20
f 20 190 92
f 20 92 198
f 198 83 192
f 198 192 20
f 206 124 219
f 206 219 21
f 21 219 127
f 21 127 193
f 21 193 100
f 21 100 194
f 21 194 101
f 21 101 206
f 199 83 197
f 199 197 22
f 22 197 94
f 22 94 195
f 204 101 199
f 204 199 22
f 195 102 204
f 195 204 22
f 197 83 198
f 197 198 23
f 23 198 92
f 23 92 200
f 23 200 87
f 23 87 196
f 23 196 94
f 23 94 197
f 24 202 91
f 24 91 203
f 200 92 202
f 200 202 24
f 24 203 88
f 24 88 201
f 201 87 200
f 201 200 24
f 204 102 205
f 204 205 25
f 25 205 121
f 25 121 221
f 25 206 101
f 25 101 204
f 221 124 206
f 221 206 25
f 207 115 209
f 207 209 26
f 26 209 116
f 26 116 281
f 26 211 118
f 26 118 207
f 281 119 211
f 281 211 26
f 208 112 212
f 208 212 27
f 27 212 113
f 27 113 280
f 209 115 208
f 209 208 27
f 280 116 209
f 280 209 27
f 28 210 118
f 28 118 211
f 222 121 210
f 222 210 28
f 28 211 119
f 28 119 282
f 282 122 222
f 282 222 28
f 213 129 214
f 213 214 29
f 29 214 130
f 29 130 279
f 29 212 112
f 29 112 213
f 279 113 212
f 279 212 29
f 215 131 216
f 215 216 30
f 30 216 132
f 30 132 286
f 30 286 130
f 30 130 214
f 30 214 129
f 30 129 215
f 217 127 218
f 217 218 31
f 31 218 128
f 31 128 285
f 31 216 131
f 31 131 217
f 285 132 216
f 285 216 31
f 219 124 220
f 219 220 32
f 32 220 125
f 32 125 284
f 32 284 128
f 32 128 218
f 32 218 127
f 32 127 219
f 221 121 222
f 221 222 33
f 33 222 122
f 33 122 283
f 33 283 125
f 33 125 220
f 33 220 124
f 33 124 221
f 34 223 132
f 34 132 285
f 255 133 223
f 255 223 34
f 230 103 255
f 230 255 34
f 34 285 128
f 34 128 230
f 35 224 130
f 35 130 286
f 256 134 224
f 256 224 35
f 223 133 256
f 223 256 35
f 286 132 223
f 286 223 35
f 36 225 113
f 36 113 279
f 257 114 225
f 257 225 36
f 224 134 257
f 224 257 36
f 36 279 130
f 36 130 224
f 37 226 116
f 37 116 280
f 258 117 226
f 258 226 37
f 225 114 258
f 225 258 37
f 37 280 113
f 37 113 225
f 38 227 119
f 38 119 281
f 259 120 227
f 259 227 38
f 226 117 259
f 226 259 38
f 38 281 116
f 38 116 226
f 39 228 122
f 39 122 282
f 260 123 228
f 260 228 39
f 227 120 260
f 227 260 39
f 39 282 119
f 39 119 227
f 40 229 125
f 40 125 283
f 261 126 229
f 261 229 40
f 228 123 261
f 228 261 40
f 283 122 228
f 283 228 40
f 262 103 230
f 262 230 41
f 41 230 128
f 41 128 284
f 229 126 262
f 229 262 41
f 284 125 229
f 284 229 41
f 263 104 231
f 263 231 42
f 42 231 133
f 42 133 255
f 238 111 263
f 238 263 42
f 255 103 238
f 255 238 42
f 264 105 232
f 264 232 43
f 43 232 134
f 43 134 256
f 231 104 264
f 231 264 43
f 256 133 231
f 256 231 43
f 265 106 233
f 265 233 44
f 44 233 114
f 44 114 257
f 232 105 265
f 232 265 44
f 257 134 232
f 257 232 44
f 266 107 234
f 266 234 45
f 45 234 117
f 45 117 258
f 233 106 266
f 233 266 45
f 258 114 233
f 258 233 45
f 267 108 235
f 267 235 46
f 46 235 120
f 46 120 259
f 234 107 267
f 234 267 46
f 259 117 234
f 259 234 46
f 268 109 236
f 268 236 47
f 47 236 123
f 47 123 260
f 235 108 268
f 235 268 47
f 260 120 235
f 260 235 47
f 269 110 237
f 269 237 48
f 48 237 126
f 48 126 261
f 236 109 269
f 236 269 48
f 261 123 236
f 261 236 48
f 49 238 103
f 49 103 262
f 270 111 238
f 270 238 49
f 237 110 270
f 237 270 49
f 262 126 237
f 262 237 49
f 50 239 104
f 50 104 263
f 271 141 239
f 271 239 50
f 246 140 271
f 246 271 50
f 263 111 246
f 263 246 50
f 51 240 105
f 51 105 264
f 272 142 240
f 272 240 51
f 239 141 272
f 239 272 51
f 264 104 239
f 264 239 51
f 52 241 106
f 52 106 265
f 273 135 241
f 273 241 52
f 240 142 273
f 240 273 52
f 265 105 240
f 265 240 52
f 53 242 107
f 53 107 266
f 274 136 242
f 274 242 53
f 241 135 274
f 241 274 53
f 266 106 241
f 266 241 53
f 54 243 108
f 54 108 267
f 275 137 243
f 275 243 54
f 242 136 275
f 242 275 54
f 267 107 242
f 267 242 54
f 55 244 109
f 55 109 268
f 276 138 244
f 276 244 55
f 243 137 276
f 243 276 55
f 268 108 243
f 268 243 55
f 56 245 110
f 56 110 269
f 277 139 245
f 277 245 56
f 244 138 277
f 244 277 56
f 269 109 244
f 269 244 56
f 57 246 111
f 57 111 270
f 278 140 246
f 278 246 57
f 245 139 278
f 245 278 57
f 270 110 245
f 270 245 57
f 58 247 141
f 58 141 271
f 299 144 247
f 299 247 58
f 254 145 299
f 254 299 58
f 271 140 254
f 271 254 58
f 59 248 142
f 59 142 272
f 301 143 248
f 301 248 59
f 247 144 301
f 247 301 59
f 272 141 247
f 272 247 59
f 60 249 135
f 60 135 273
f 287 150 249
f 287 249 60
f 248 143 287
f 248 287 60
f 273 142 248
f 273 248 60
f 61 250 136
f 61 136 274
f 288 149 250
f 288 250 61
f 249 150 288
f 249 288 61
f 274 135 249
f 274 249 61
f 62 251 137
f 62 137 275
f 291 148 251
f 291 251 62
f 250 149 291
f 250 291 62
f 275 136 250
f 275 250 62
f 63 252 138
f 63 138 276
f 293 147 252
f 293 252 63
f 251 148 293
f 251 293 63
f 276 137 251
f 276 251 63
f 64 253 139
f 64 139 277
f 295 146 253
f 295 253 64
f 252 147 295
f 252 295 64
f 277 138 252
f 277 252 64
f 65 254 140
f 65 140 278
f 297 145 254
f 297 254 65
f 253 146 297
f 253 297 65
f 278 139 253
f 278 253 65
f 66 289 150
f 66 150 287
f 303 158 289
f 303 289 66
f 302 151 303
f 302 303 66
f 66 287 143
f 66 143 302
f 67 290 149
f 67 149 288
f 317 157 290
f 317 290 67
f 289 158 317
f 289 317 67
f 67 288 150
f 67 150 289
f 68 292 148
f 68 148 291
f 315 156 292
f 315 292 68
f 290 157 315
f 290 315 68
f 291 149 290
f 291 290 68
f 69 294 147
f 69 147 293
f 313 155 294
f 313 294 69
f 292 156 313
f 292 313 69
f 293 148 292
f 293 292 69
f 70 296 146
f 70 146 295
f 311 154 296
f 311 296 70
f 294 155 311
f 294 311 70
f 295 147 294
f 295 294 70
f 71 298 145
f 71 145 297
f 309 153 298
f 309 298 71
f 296 154 309
f 296 309 71
f 297 146 296
f 297 296 71
f 72 300 144
f 72 144 299
f 307 152 300
f 307 300 72
f 298 153 307
f 298 307 72
f 299 145 298
f 299 298 72
f 73 302 143
f 73 143 301
f 304 151 302
f 304 302 73
f 300 152 304
f 300 304 73
f 301 144 300
f 301 300 73
f 303 151 305
f 303 305 74
f 74 305 159
f 74 159 322
f 318 158 303
f 318 303 74
f 322 160 318
f 322 318 74
f 304 152 306
f 304 306 75
f 75 306 159
f 75 159 305
f 305 151 304
f 305 304 75
f 307 153 308
f 307 308 76
f 76 308 161
f 76 161 319
f 76 319 159
f 76 159 306
f 76 306 152
f 76 152 307
f 309 154 310
f 309 310 77
f 77 310 161
f 77 161 308
f 77 308 153
f 77 153 309
f 311 155 312
f 311 312 78
f 78 312 162
f 78 162 320
f 78 320 161
f 78 161 310
f 78 310 154
f 78 154 311
f 313 156 314
f 313 314 79
f 79 314 162
f 79 162 312
f 79 312 155
f 79 155 313
f 315 157 316
f 315 316 80
f 80 316 160
f 80 160 321
f 80 314 156
f 80 156 315
f 321 162 314
f 321 314 80
f 317 158 318
f 317 318 81
f 81 318 160
f 81 160 316
f 81 316 157
f 81 157 317
f 82 321 160
f 82 160 322
f 320 162 321
f 320 321 82
f 82 322 159
f 82 159 319
f 82 319 161
f 82 161 320
f 84 174 10
f 84 10 173
f 178 1 163
f 178 163 89
f 90 180 1
f 90 1 178
f 93 173 10
f 93 10 175
f 95 175 10
f 95 10 172
f 172 10 174
f 172 174 96
f 97 163 1
f 97 1 176
f 176 1 180
f 176 180 98
