# _3rd_Proximal_Phalanges_Hand_R posed
v -0.888489 0.169060 0.419769
v -0.888386 0.167517 0.417322
v -0.887159 0.168818 0.416758
v -0.885756 0.167748 0.415641
v -0.883827 0.166990 0.416788
v -0.884576 0.165124 0.417825
v -0.886060 0.164436 0.418962
v -0.888005 0.164549 0.418329
v -0.888898 0.166168 0.418396
v -0.886849 0.165893 0.416611
v -0.887419 0.170345 0.419243
v -0.888598 0.167171 0.420412
v -0.887885 0.169642 0.422452
v -0.888562 0.167820 0.422476
v -0.886425 0.170875 0.421843
v -0.884927 0.170367 0.423198
v -0.886307 0.168733 0.423689
v -0.887546 0.166811 0.423382
v -0.884799 0.167346 0.423174
v -0.886085 0.166435 0.422888
v -0.883825 0.168895 0.422653
v -0.884236 0.166244 0.420577
v -0.885944 0.165391 0.420924
v -0.887791 0.165539 0.420920
v -0.883342 0.167679 0.419952
v -0.884450 0.169756 0.415460
v -0.885756 0.171003 0.416363
v -0.882988 0.168957 0.416536
v -0.885934 0.172125 0.418405
v -0.884953 0.172367 0.420453
v -0.883653 0.171697 0.421348
v -0.882925 0.170644 0.420902
v -0.882253 0.169447 0.419060
v -0.881331 0.174326 0.419652
v -0.882818 0.175144 0.418730
v -0.883632 0.174920 0.416982
v -0.883492 0.174047 0.415258
v -0.882249 0.172657 0.414291
v -0.880658 0.171888 0.415278
v -0.879940 0.172201 0.417193
v -0.880210 0.173135 0.418822
v -0.877928 0.178381 0.417972
v -0.879752 0.179231 0.416799
v -0.880585 0.178991 0.414892
v -0.880452 0.178050 0.413047
v -0.879112 0.176524 0.411980
v -0.877319 0.175718 0.413133
v -0.876470 0.175979 0.414962
v -0.876589 0.176901 0.416889
v -0.874368 0.182316 0.416069
v -0.876285 0.183268 0.414875
v -0.877118 0.182979 0.412870
v -0.876947 0.181951 0.410885
v -0.875548 0.180329 0.409754
v -0.873642 0.179442 0.410903
v -0.872969 0.179902 0.412964
v -0.873018 0.180877 0.414940
v -0.870309 0.186176 0.415211
v -0.872741 0.187322 0.413760
v -0.874157 0.187234 0.411306
v -0.873759 0.185818 0.408720
v -0.871726 0.183851 0.407379
v -0.869253 0.182424 0.408541
v -0.868667 0.183383 0.411403
v -0.868263 0.184078 0.414319
v -0.872986 0.189392 0.410470
v -0.872609 0.188001 0.406963
v -0.869626 0.185947 0.405011
v -0.866617 0.184584 0.406824
v -0.866335 0.185235 0.410371
v -0.865776 0.186385 0.413861
v -0.868239 0.188443 0.415487
v -0.871565 0.189635 0.413716
v -0.870819 0.190015 0.409930
v -0.870203 0.190606 0.412517
v -0.867402 0.190343 0.413349
v -0.865124 0.188363 0.412805
v -0.866104 0.187281 0.409813
v -0.866361 0.187016 0.407016
v -0.868262 0.188270 0.406244
v -0.870721 0.189357 0.407195
v -0.868373 0.188727 0.409925
v -0.885193 0.166292 0.422009
v -0.888226 0.165890 0.417325
v -0.887848 0.168344 0.423480
v -0.886192 0.167318 0.423673
v -0.886965 0.164707 0.419819
v -0.888546 0.165710 0.419528
v -0.888920 0.167516 0.418900
v -0.888682 0.168471 0.421353
v -0.888279 0.166776 0.421886
v -0.886834 0.165815 0.422189
v -0.886343 0.164574 0.417564
v -0.885025 0.165106 0.419631
v -0.885224 0.166061 0.416038
v -0.887208 0.167361 0.416267
v -0.887918 0.168894 0.418157
v -0.887620 0.170104 0.420957
v -0.886432 0.170050 0.423149
v -0.884842 0.168855 0.423736
v -0.884035 0.167516 0.421778
v -0.883773 0.166387 0.418652
v -0.878967 0.175537 0.418536
v -0.877206 0.181000 0.416663
v -0.878617 0.181244 0.414851
v -0.878980 0.180596 0.412847
v -0.878221 0.179268 0.411211
v -0.876376 0.177845 0.411239
v -0.875006 0.177652 0.412980
v -0.874672 0.178275 0.414956
v -0.875305 0.179554 0.416704
v -0.886863 0.170511 0.417605
v -0.884928 0.173018 0.416811
v -0.882302 0.176492 0.415101
v -0.885924 0.169177 0.416042
v -0.884242 0.171821 0.415242
v -0.881612 0.175256 0.413546
v -0.884384 0.168189 0.415951
v -0.882684 0.170578 0.415290
v -0.879890 0.173959 0.413577
v -0.883140 0.167999 0.418038
v -0.881446 0.170389 0.417048
v -0.878585 0.173752 0.415234
v -0.883327 0.169099 0.420885
v -0.881403 0.171240 0.419134
v -0.878281 0.174333 0.417051
v -0.883925 0.170377 0.422361
v -0.882114 0.172334 0.420272
v -0.886347 0.171505 0.420134
v -0.884508 0.173610 0.418732
v -0.885026 0.171309 0.421951
v -0.883298 0.173331 0.420205
v -0.880660 0.176843 0.418560
v -0.881985 0.177093 0.416964
v -0.875404 0.184683 0.410857
v -0.874514 0.183143 0.408967
v -0.872438 0.181410 0.408744
v -0.870923 0.181377 0.410929
v -0.870611 0.182298 0.413242
v -0.871239 0.183534 0.415134
v -0.873318 0.184966 0.414894
v -0.875014 0.185446 0.413143
v -0.873017 0.188804 0.412444
v -0.870732 0.188216 0.414904
v -0.867711 0.186433 0.415037
v -0.866640 0.184562 0.412467
v -0.867370 0.183932 0.409213
v -0.869076 0.184082 0.406317
v -0.872027 0.185966 0.406562
v -0.873666 0.187935 0.409190
v -0.871706 0.190307 0.411713
v -0.869443 0.190376 0.414426
v -0.866095 0.188554 0.414459
v -0.865291 0.186669 0.411532
v -0.866167 0.186028 0.408351
v -0.867127 0.186595 0.405264
v -0.870468 0.188224 0.405405
v -0.872142 0.189513 0.408513
v -0.869241 0.190046 0.411536
v -0.869575 0.189058 0.408159
v -0.866529 0.189013 0.411414
v -0.867267 0.187793 0.408027
v -0.888514 0.168344 0.418454
v -0.887845 0.168104 0.416913
v -0.886627 0.168241 0.415967
v -0.884811 0.167164 0.415827
v -0.884024 0.165953 0.417166
v -0.885371 0.164597 0.418482
v -0.886841 0.164293 0.418654
v -0.888654 0.165422 0.418281
v -0.888789 0.166734 0.417863
v -0.886351 0.166745 0.415971
v -0.887384 0.165094 0.417202
v -0.887691 0.166653 0.416796
v -0.885742 0.165250 0.416782
v -0.887894 0.169721 0.419501
v -0.887427 0.169592 0.417837
v -0.888775 0.168077 0.420102
v -0.888820 0.166619 0.419304
v -0.888306 0.169458 0.421137
v -0.888482 0.168644 0.422499
v -0.888544 0.167528 0.421570
v -0.886971 0.170769 0.420671
v -0.887168 0.170343 0.422259
v -0.885678 0.170832 0.422787
v -0.887148 0.169283 0.423361
v -0.885625 0.169532 0.423545
v -0.886985 0.167865 0.423819
v -0.888268 0.167398 0.423040
v -0.886678 0.166509 0.423217
v -0.885470 0.168073 0.423835
v -0.885549 0.166791 0.423076
v -0.884292 0.169640 0.423209
v -0.884204 0.168111 0.423110
v -0.884215 0.165695 0.419217
v -0.885992 0.164812 0.419856
v -0.885048 0.165704 0.420809
v -0.886010 0.165952 0.422080
v -0.884496 0.166833 0.421936
v -0.886893 0.165285 0.420961
v -0.887925 0.164961 0.419729
v -0.887768 0.166038 0.422200
v -0.888354 0.166315 0.420682
v -0.883716 0.166925 0.420279
v -0.883515 0.167168 0.418262
v -0.883716 0.168293 0.421437
v -0.885143 0.168685 0.415762
v -0.886521 0.169747 0.416641
v -0.885171 0.170434 0.415720
v -0.883668 0.167873 0.416704
v -0.883648 0.169232 0.415752
v -0.886010 0.171659 0.417299
v -0.886769 0.171172 0.418845
v -0.885560 0.172402 0.419493
v -0.885684 0.171463 0.421230
v -0.884281 0.172118 0.421073
v -0.884344 0.170920 0.422325
v -0.883266 0.171193 0.421301
v -0.883586 0.169721 0.421899
v -0.882554 0.170041 0.420173
v -0.882947 0.168451 0.419600
v -0.882450 0.169006 0.417735
v -0.882106 0.174897 0.419365
v -0.883334 0.175163 0.417892
v -0.883695 0.174534 0.416078
v -0.883018 0.173411 0.414602
v -0.881391 0.172139 0.414601
v -0.880131 0.171917 0.416221
v -0.879953 0.172607 0.418064
v -0.880657 0.173733 0.419372
v -0.878945 0.178967 0.417587
v -0.880315 0.179220 0.415827
v -0.880653 0.178599 0.413939
v -0.879940 0.177310 0.412314
v -0.878108 0.175951 0.412365
v -0.876761 0.175730 0.414072
v -0.876406 0.176356 0.415988
v -0.877094 0.177591 0.417641
v -0.875361 0.182935 0.415714
v -0.876861 0.183219 0.413905
v -0.877174 0.182538 0.411852
v -0.876419 0.181185 0.410126
v -0.874495 0.179651 0.410037
v -0.873174 0.179562 0.411930
v -0.872899 0.180327 0.413972
v -0.873463 0.181496 0.415755
v -0.871582 0.186899 0.414663
v -0.873620 0.187475 0.412624
v -0.874220 0.186686 0.409917
v -0.872930 0.184850 0.407784
v -0.870523 0.182925 0.407407
v -0.868835 0.182884 0.410035
v -0.868264 0.183627 0.412844
v -0.869099 0.185236 0.415073
v -0.879736 0.176264 0.418864
v -0.881435 0.177094 0.417847
v -0.882262 0.176873 0.416016
v -0.882089 0.175957 0.414242
v -0.880831 0.174502 0.413231
v -0.879115 0.173723 0.414319
v -0.878338 0.173974 0.416145
v -0.878487 0.174880 0.417873
v -0.876174 0.180399 0.417075
v -0.878049 0.181259 0.415829
v -0.878918 0.181005 0.413836
v -0.878754 0.180012 0.411940
v -0.877383 0.178448 0.410881
v -0.875516 0.177631 0.412038
v -0.874736 0.177913 0.413972
v -0.874821 0.178811 0.415894
v -0.872227 0.184336 0.415278
v -0.874323 0.185376 0.414174
v -0.875385 0.185153 0.411978
v -0.875123 0.184019 0.409772
v -0.873545 0.182219 0.408649
v -0.871390 0.181109 0.409770
v -0.870718 0.181808 0.412076
v -0.870686 0.182824 0.414345
v -0.884846 0.173385 0.417767
v -0.884732 0.172495 0.415937
v -0.883464 0.171131 0.414962
v -0.881927 0.170333 0.416023
v -0.881286 0.170752 0.418179
v -0.881714 0.171787 0.419835
v -0.882651 0.172877 0.420441
v -0.883966 0.173602 0.419576
v -0.873618 0.188523 0.410825
v -0.873120 0.186970 0.407742
v -0.873060 0.188821 0.408749
v -0.871412 0.187133 0.405434
v -0.870538 0.184960 0.406181
v -0.867987 0.185138 0.405422
v -0.867761 0.183543 0.407536
v -0.866440 0.184926 0.408645
v -0.867219 0.184387 0.410910
v -0.865705 0.185455 0.411949
v -0.866703 0.185329 0.414211
v -0.866761 0.187443 0.414978
v -0.869088 0.187414 0.415359
v -0.870105 0.189367 0.414992
v -0.872024 0.188665 0.413770
v -0.872494 0.189708 0.412171
v -0.872020 0.190002 0.410141
v -0.870835 0.190533 0.413123
v -0.870544 0.190414 0.411385
v -0.869023 0.190577 0.413040
v -0.867537 0.189678 0.414861
v -0.865790 0.189381 0.413325
v -0.865212 0.187540 0.413323
v -0.865493 0.187883 0.411182
v -0.865972 0.186289 0.410011
v -0.866356 0.187086 0.408237
v -0.866071 0.186256 0.406687
v -0.867134 0.187575 0.406392
v -0.868732 0.187407 0.404925
v -0.869672 0.188944 0.406626
v -0.871584 0.189099 0.406863
v -0.870821 0.189615 0.408415
v -0.867880 0.189616 0.411628
v -0.867095 0.188122 0.409846
v -0.868372 0.188381 0.407974
v -0.869573 0.189507 0.409938
f 2 164 96
f 2 96 174
f 163 97 164
f 163 164 2
f 171 89 163
f 171 163 2
f 174 84 171
f 174 171 2
f 3 165 96
f 3 96 164
f 208 115 165
f 208 165 3
f 177 112 208
f 177 208 3
f 3 164 97
f 3 97 177
f 4 166 95
f 4 95 172
f 207 118 166
f 207 166 4
f 165 115 207
f 165 207 4
f 172 96 165
f 172 165 4
f 5 167 95
f 5 95 166
f 205 102 167
f 205 167 5
f 166 118 210
f 166 210 5
f 5 210 121
f 5 121 205
f 6 168 93
f 6 93 175
f 195 94 168
f 195 168 6
f 167 102 195
f 167 195 6
f 175 95 167
f 175 167 6
f 196 87 169
f 196 169 7
f 7 169 93
f 7 93 168
f 168 94 196
f 168 196 7
f 8 170 84
f 8 84 173
f 201 88 170
f 201 170 8
f 169 87 201
f 169 201 8
f 173 93 169
f 173 169 8
f 9 171 84
f 9 84 170
f 179 89 171
f 179 171 9
f 9 170 88
f 9 88 179
f 11 177 97
f 11 97 176
f 213 112 177
f 213 177 11
f 176 98 183
f 176 183 11
f 11 183 129
f 11 129 213
f 12 179 88
f 12 88 203
f 178 89 179
f 178 179 12
f 12 182 90
f 12 90 178
f 203 91 182
f 203 182 12
f 13 181 85
f 13 85 186
f 180 90 181
f 180 181 13
f 13 184 98
f 13 98 180
f 186 99 184
f 186 184 13
f 14 189 85
f 14 85 181
f 182 91 189
f 182 189 14
f 14 181 90
f 14 90 182
f 184 99 185
f 184 185 15
f 15 185 131
f 15 131 215
f 15 215 129
f 15 129 183
f 15 183 98
f 15 98 184
f 185 99 187
f 185 187 16
f 16 187 100
f 16 100 193
f 16 193 127
f 16 127 217
f 16 217 131
f 16 131 185
f 186 85 188
f 186 188 17
f 17 188 86
f 17 86 191
f 17 191 100
f 17 100 187
f 187 99 186
f 187 186 17
f 18 190 86
f 18 86 188
f 202 92 190
f 202 190 18
f 18 188 85
f 18 85 189
f 18 189 91
f 18 91 202
f 19 192 83
f 19 83 199
f 191 86 192
f 191 192 19
f 19 194 100
f 19 100 191
f 199 101 194
f 199 194 19
f 192 86 190
f 192 190 20
f 20 190 92
f 20 92 198
f 198 83 192
f 198 192 20
f 206 124 219
f 206 219 21
f 21 219 127
f 21 127 193
f 21 193 100
f 21 100 194
f 21 194 101
f 21 101 206
f 199 83 197
f 199 197 22
f 22 197 94
f 22 94 195
f 204 101 199
f 204 199 22
f 195 102 204
f 195 204 22
f 197 83 198
f 197 198 23
f 23 198 92
f 23 92 200
f 23 200 87
f 23 87 196
f 23 196 94
f 23 94 197
f 24 202 91
f 24 91 203
f 200 92 202
f 200 202 24
f 24 203 88
f 24 88 201
f 201 87 200
f 201 200 24
f 204 102 205
f 204 205 25
f 25 205 121
f 25 121 221
f 25 206 101
f 25 101 204
f 221 124 206
f 221 206 25
f 207 115 209
f 207 209 26
f 26 209 116
f 26 116 281
f 26 211 118
f 26 118 207
f 281 119 211
f 281 211 26
f 208 112 212
f 208 212 27
f 27 212 113
f 27 113 280
f 209 115 208
f 209 208 27
f 280 116 209
f 280 209 27
f 28 210 118
f 28 118 211
f 222 121 210
f 222 210 28
f 28 211 119
f 28 119 282
f 282 122 222
f 282 222 28
f 213 129 214
f 213 214 29
f 29 214 130
f 29 130 279
f 29 212 112
f 29 112 213
f 279 113 212
f 279 212 29
f 215 131 216
f 215 216 30
f 30 216 132
f 30 132 286
f 30 286 130
f 30 130 214
f 30 214 129
f 30 129 215
f 217 127 218
f 217 218 31
f 31 218 128
f 31 128 285
f 31 216 131
f 31 131 217
f 285 132 216
f 285 216 31
f 219 124 220
f 219 220 32
f 32 220 125
f 32 125 284
f 32 284 128
f 32 128 218
f 32 218 127
f 32 127 219
f 221 121 222
f 221 222 33
f 33 222 122
f 33 122 283
f 33 283 125
f 33 125 220
f 33 220 124
f 33 124 221
f 34 223 132
f 34 132 285
f 255 133 223
f 255 223 34
f 230 103 255
f 230 255 34
f 34 285 128
f 34 128 230
f 35 224 130
f 35 130 286
f 256 134 224
f 256 224 35
f 223 133 256
f 223 256 35
f 286 132 223
f 286 223 35
f 36 225 113
f 36 113 279
f 257 114 225
f 257 225 36
f 224 134 257
f 224 257 36
f 36 279 130
f 36 130 224
f 37 226 116
f 37 116 280
f 258 117 226
f 258 226 37
f 225 114 258
f 225 258 37
f 37 280 113
f 37 113 225
f 38 227 119
f 38 119 281
f 259 120 227
f 259 227 38
f 226 117 259
f 226 259 38
f 38 281 116
f 38 116 226
f 39 228 122
f 39 122 282
f 260 123 228
f 260 228 39
f 227 120 260
f 227 260 39
f 39 282 119
f 39 119 227
f 40 229 125
f 40 125 283
f 261 126 229
f 261 229 40
f 228 123 261
f 228 261 40
f 283 122 228
f 283 228 40
f 262 103 230
f 262 230 41
f 41 230 128
f 41 128 284
f 229 126 262
f 229 262 41
f 284 125 229
f 284 229 41
f 263 104 231
f 263 231 42
f 42 231 133
f 42 133 255
f 238 111 263
f 238 263 42
f 255 103 238
f 255 238 42
f 264 105 232
f 264 232 43
f 43 232 134
f 43 134 256
f 231 104 264
f 231 264 43
f 256 133 231
f 256 231 43
f 265 106 233
f 265 233 44
f 44 233 114
f 44 114 257
f 232 105 265
f 232 265 44
f 257 134 232
f 257 232 44
f 266 107 234
f 266 234 45
f 45 234 117
f 45 117 258
f 233 106 266
f 233 266 45
f 258 114 233
f 258 233 45
f 267 108 235
f 267 235 46
f 46 235 120
f 46 120 259
f 234 107 267
f 234 267 46
f 259 117 234
f 259 234 46
f 268 109 236
f 268 236 47
f 47 236 123
f 47 123 260
f 235 108 268
f 235 268 47
f 260 120 235
f 260 235 47
f 269 110 237
f 269 237 48
f 48 237 126
f 48 126 261
f 236 109 269
f 236 269 48
f 261 123 236
f 261 236 48
f 49 238 103
f 49 103 262
f 270 111 238
f 270 238 49
f 237 110 270
f 237 270 49
f 262 126 237
f 262 237 49
f 50 239 104
f 50 104 263
f 271 141 239
f 271 239 50
f 246 140 271
f 246 271 50
f 263 111 246
f 263 246 50
f 51 240 105
f 51 105 264
f 272 142 240
f 272 240 51
f 239 141 272
f 239 272 51
f 264 104 239
f 264 239 51
f 52 241 106
f 52 106 265
f 273 135 241
f 273 241 52
f 240 142 273
f 240 273 52
f 265 105 240
f 265 240 52
f 53 242 107
f 53 107 266
f 274 136 242
f 274 242 53
f 241 135 274
f 241 274 53
f 266 106 241
f 266 241 53
f 54 243 108
f 54 108 267
f 275 137 243
f 275 243 54
f 242 136 275
f 242 275 54
f 267 107 242
f 267 242 54
f 55 244 109
f 55 109 268
f 276 138 244
f 276 244 55
f 243 137 276
f 243 276 55
f 268 108 243
f 268 243 55
f 56 245 110
f 56 110 269
f 277 139 245
f 277 245 56
f 244 138 277
f 244 277 56
f 269 109 244
f 269 244 56
f 57 246 111
f 57 111 270
f 278 140 246
f 278 246 57
f 245 139 278
f 245 278 57
f 270 110 245
f 270 245 57
f 58 247 141
f 58 141 271
f 299 144 247
f 299 247 58
f 254 145 299
f 254 299 58
f 271 140 254
f 271 254 58
f 59 248 142
f 59 142 272
f 301 143 248
f 301 248 59
f 247 144 301
f 247 301 59
f 272 141 247
f 272 247 59
f 60 249 135
f 60 135 273
f 287 150 249
f 287 249 60
f 248 143 287
f 248 287 60
f 273 142 248
f 273 248 60
f 61 250 136
f 61 136 274
f 288 149 250
f 288 250 61
f 249 150 288
f 249 288 61
f 274 135 249
f 274 249 61
f 62 251 137
f 62 137 275
f 291 148 251
f 291 251 62
f 250 149 291
f 250 291 62
f 275 136 250
f 275 250 62
f 63 252 138
f 63 138 276
f 293 147 252
f 293 252 63
f 251 148 293
f 251 293 63
f 276 137 251
f 276 251 63
f 64 253 139
f 64 139 277
f 295 146 253
f 295 253 64
f 252 147 295
f 252 295 64
f 277 138 252
f 277 252 64
f 65 254 140
f 65 140 278
f 297 145 254
f 297 254 65
f 253 146 297
f 253 297 65
f 278 139 253
f 278 253 65
f 66 289 150
f 66 150 287
f 303 158 289
f 303 289 66
f 302 151 303
f 302 303 66
f 66 287 143
f 66 143 302
f 67 290 149
f 67 149 288
f 317 157 290
f 317 290 67
f 289 158 317
f 289 317 67
f 67 288 150
f 67 150 289
f 68 292 148
f 68 148 291
f 315 156 292
f 315 292 68
f 290 157 315
f 290 315 68
f 291 149 290
f 291 290 68
f 69 294 147
f 69 147 293
f 313 155 294
f 313 294 69
f 292 156 313
f 292 313 69
f 293 148 292
f 293 292 69
f 70 296 146
f 70 146 295
f 311 154 296
f 311 296 70
f 294 155 311
f 294 311 70
f 295 147 294
f 295 294 70
f 71 298 145
f 71 145 297
f 309 153 298
f 309 298 71
f 296 154 309
f 296 309 71
f 297 146 296
f 297 296 71
f 72 300 144
f 72 144 299
f 307 152 300
f 307 300 72
f 298 153 307
f 298 307 72
f 299 145 298
f 299 298 72
f 73 302 143
f 73 143 301
f 304 151 302
f 304 302 73
f 300 152 304
f 300 304 73
f 301 144 300
f 301 300 73
f 303 151 305
f 303 305 74
f 74 305 159
f 74 159 322
f 318 158 303
f 318 303 74
f 322 160 318
f 322 318 74
f 304 152 306
f 304 306 75
f 75 306 159
f 75 159 305
f 305 151 304
f 305 304 75
f 307 153 308
f 307 308 76
f 76 308 161
f 76 161 319
f 76 319 159
f 76 159 306
f 76 306 152
f 76 152 307
f 309 154 310
f 309 310 77
f 77 310 161
f 77 161 308
f 77 308 153
f 77 153 309
f 311 155 312
f 311 312 78
f 78 312 162
f 78 162 320
f 78 320 161
f 78 161 310
f 78 310 154
f 78 154 311
f 313 156 314
f 313 314 79
f 79 314 162
f 79 162 312
f 79 312 155
f 79 155 313
f 315 157 316
f 315 316 80
f 80 316 160
f 80 160 321
f 80 314 156
f 80 156 315
f 321 162 314
f 321 314 80
f 317 158 318
f 317 318 81
f 81 318 160
f 81 160 316
f 81 316 157
f 81 157 317
f 82 321 160
f 82 160 322
f 320 162 321
f 320 321 82
f 82 322 159
f 82 159 319
f 82 319 161
f 82 161 320
f 84 174 10
f 84 10 173
f 178 1 163
f 178 163 89
f 90 180 1
f 90 1 178
f 93 173 10
f 93 10 175
f 95 175 10
f 95 10 172
f 172 10 174
f 172 174 96
f 97 163 1
f 97 1 176
f 176 1 180
f 176 180 98
