# _3rd_Metatarsal_L rest
v 0.132720 -1.319289 0.083527
v 0.132130 -1.319122 0.080627
v 0.130938 -1.320305 0.081762
v 0.134346 -1.320125 0.079169
v 0.135459 -1.320791 0.081922
v 0.131603 -1.320303 0.084815
v 0.132793 -1.324115 0.089561
v 0.130368 -1.329645 0.089911
v 0.131175 -1.330131 0.093782
v 0.135934 -1.321543 0.077435
v 0.137428 -1.322434 0.080420
v 0.138509 -1.324806 0.077499
v 0.136821 -1.324700 0.074332
v 0.138732 -1.328442 0.076189
v 0.136514 -1.328018 0.072954
v 0.138138 -1.332185 0.076845
v 0.135869 -1.330953 0.073910
v 0.135173 -1.334218 0.076473
v 0.137256 -1.334823 0.078615
v 0.135802 -1.337033 0.080872
v 0.134089 -1.336488 0.078833
v 0.132813 -1.338387 0.080046
v 0.134099 -1.338790 0.082864
v 0.131625 -1.339007 0.084846
v 0.130748 -1.338717 0.081701
v 0.129259 -1.336790 0.082954
v 0.129460 -1.337162 0.085651
v 0.129370 -1.331505 0.081742
v 0.129187 -1.331871 0.085721
v 0.129972 -1.328589 0.082790
v 0.130150 -1.329102 0.086217
v 0.130713 -1.323022 0.082591
v 0.130882 -1.323512 0.086315
v 0.129040 -1.334085 0.082629
v 0.128852 -1.334544 0.086026
v 0.130275 -1.332006 0.089254
v 0.131262 -1.332365 0.093348
v 0.130297 -1.334426 0.089076
v 0.131828 -1.334666 0.092829
v 0.132648 -1.337587 0.093557
v 0.130963 -1.336992 0.089005
v 0.132839 -1.338823 0.088542
v 0.134176 -1.338969 0.093265
v 0.135123 -1.338795 0.086976
v 0.136159 -1.338746 0.092070
v 0.136739 -1.336990 0.085397
v 0.137777 -1.334866 0.084160
v 0.138960 -1.332429 0.082806
v 0.139753 -1.329158 0.081919
v 0.139453 -1.326471 0.083540
v 0.138224 -1.324834 0.085601
v 0.136244 -1.323340 0.086879
v 0.133912 -1.323008 0.088616
v 0.137838 -1.336466 0.090499
v 0.138776 -1.335106 0.090023
v 0.139729 -1.333513 0.089724
v 0.139478 -1.329313 0.091050
v 0.138263 -1.327264 0.092221
v 0.136968 -1.326499 0.092864
v 0.134794 -1.326318 0.093472
v 0.139970 -1.331517 0.089931
v 0.133720 -1.327045 0.093965
v 0.131535 -1.326426 0.090354
v 0.132257 -1.328476 0.094228
v 0.133113 -1.333790 0.099096
v 0.132991 -1.332141 0.099423
v 0.133621 -1.330664 0.099528
v 0.134814 -1.329688 0.099452
v 0.136005 -1.329076 0.099168
v 0.137505 -1.329304 0.099069
v 0.138944 -1.330280 0.098786
v 0.140123 -1.331845 0.098082
v 0.140641 -1.333476 0.097299
v 0.140655 -1.335047 0.096640
v 0.139853 -1.336383 0.095923
v 0.138927 -1.337773 0.096728
v 0.137463 -1.339366 0.097976
v 0.135668 -1.339533 0.098975
v 0.134423 -1.338506 0.099294
v 0.133436 -1.336445 0.099149
v 0.135321 -1.335832 0.107617
v 0.135252 -1.334423 0.107854
v 0.135740 -1.333459 0.107824
v 0.136572 -1.332731 0.107613
v 0.137589 -1.332315 0.107277
v 0.138796 -1.332548 0.106762
v 0.139968 -1.333186 0.106285
v 0.140953 -1.334299 0.105764
v 0.141565 -1.335728 0.105255
v 0.141563 -1.337089 0.104943
v 0.141220 -1.338540 0.104749
v 0.140197 -1.339847 0.105118
v 0.138800 -1.340608 0.105799
v 0.137409 -1.340457 0.106491
v 0.136397 -1.339504 0.106945
v 0.135533 -1.337903 0.107357
v 0.137268 -1.338412 0.116214
v 0.137314 -1.337192 0.116422
v 0.137788 -1.336206 0.116402
v 0.138363 -1.335381 0.116312
v 0.139351 -1.334969 0.115998
v 0.140602 -1.335178 0.115495
v 0.141595 -1.335965 0.114997
v 0.142865 -1.337220 0.114274
v 0.143232 -1.338889 0.113735
v 0.143178 -1.340050 0.113504
v 0.142809 -1.341213 0.113408
v 0.141935 -1.341878 0.113660
v 0.140620 -1.342303 0.114140
v 0.139383 -1.341978 0.114731
v 0.138368 -1.341275 0.115249
v 0.137644 -1.340008 0.115772
v 0.139197 -1.342023 0.124520
v 0.139278 -1.340564 0.124871
v 0.139622 -1.339138 0.125089
v 0.140230 -1.338308 0.125003
v 0.141374 -1.337830 0.124672
v 0.142655 -1.338116 0.124137
v 0.143728 -1.339093 0.123495
v 0.144769 -1.340855 0.122544
v 0.144795 -1.342127 0.122166
v 0.144718 -1.343230 0.121903
v 0.144339 -1.344267 0.121834
v 0.143232 -1.344912 0.122148
v 0.142265 -1.345156 0.122501
v 0.140989 -1.344844 0.123139
v 0.140254 -1.344300 0.123566
v 0.139571 -1.343188 0.124157
v 0.140990 -1.345073 0.132751
v 0.140810 -1.343411 0.133378
v 0.141320 -1.342260 0.133522
v 0.142060 -1.341209 0.133528
v 0.143456 -1.341085 0.133145
v 0.144683 -1.341398 0.132674
v 0.145634 -1.342318 0.132100
v 0.146324 -1.343579 0.131065
v 0.146426 -1.345186 0.130377
v 0.146157 -1.346680 0.129984
v 0.145764 -1.347563 0.130242
v 0.144951 -1.348253 0.130475
v 0.143840 -1.348492 0.130850
v 0.142883 -1.348259 0.131233
v 0.141941 -1.347477 0.131751
v 0.141359 -1.346613 0.132157
v 0.142716 -1.348030 0.141356
v 0.142609 -1.346637 0.141914
v 0.142812 -1.345131 0.142501
v 0.143946 -1.343590 0.142093
v 0.145101 -1.343410 0.141626
v 0.146061 -1.343638 0.141331
v 0.147148 -1.344194 0.141271
v 0.147639 -1.345632 0.139165
v 0.147807 -1.347117 0.138605
v 0.147696 -1.349712 0.137312
v 0.147858 -1.351060 0.137952
v 0.147129 -1.351898 0.137388
v 0.146016 -1.351921 0.137295
v 0.144711 -1.351746 0.137183
v 0.143462 -1.350972 0.138113
v 0.142979 -1.349484 0.140268
v 0.146213 -1.354979 0.140607
v 0.147128 -1.354995 0.139711
v 0.144893 -1.354730 0.141442
v 0.147879 -1.354753 0.139204
v 0.145781 -1.354318 0.148746
v 0.145711 -1.351787 0.150516
v 0.142866 -1.351770 0.140900
v 0.143404 -1.353118 0.141578
v 0.144608 -1.352865 0.147421
v 0.144498 -1.351285 0.148853
v 0.142697 -1.350494 0.141959
v 0.142650 -1.348887 0.143009
v 0.142556 -1.347446 0.143702
v 0.142924 -1.346657 0.144432
v 0.143978 -1.347718 0.148277
v 0.144916 -1.346964 0.148583
v 0.144054 -1.345561 0.146225
v 0.143385 -1.346640 0.146271
v 0.144262 -1.353610 0.143724
v 0.145500 -1.355204 0.144198
v 0.143979 -1.349892 0.145424
v 0.143926 -1.351442 0.143934
v 0.143623 -1.348156 0.145928
v 0.144248 -1.349363 0.148936
v 0.145474 -1.349354 0.150359
v 0.144959 -1.344920 0.145719
v 0.146074 -1.344604 0.145346
v 0.148283 -1.345140 0.142273
v 0.148785 -1.354163 0.139222
v 0.149308 -1.354753 0.143084
v 0.148623 -1.355281 0.143342
v 0.148607 -1.351249 0.139398
v 0.148444 -1.349781 0.138913
v 0.148478 -1.347625 0.139927
v 0.148320 -1.345955 0.140565
v 0.149547 -1.352746 0.140306
v 0.150146 -1.352839 0.143344
v 0.149184 -1.354355 0.148176
v 0.149819 -1.353677 0.147299
v 0.150523 -1.351978 0.145550
v 0.149068 -1.351534 0.150516
v 0.148614 -1.348827 0.150041
v 0.147788 -1.345960 0.147519
v 0.147669 -1.355680 0.144018
v 0.148363 -1.354872 0.148890
v 0.148156 -1.351826 0.151041
v 0.147575 -1.348916 0.150804
v 0.146820 -1.345935 0.148015
v 0.145939 -1.346344 0.148410
v 0.146722 -1.349077 0.150913
v 0.147095 -1.351898 0.151150
v 0.147327 -1.354804 0.149085
v 0.146824 -1.355659 0.144396
v 0.149671 -1.351229 0.149480
v 0.149265 -1.348747 0.149135
v 0.149166 -1.350827 0.142613
v 0.148969 -1.349074 0.143547
v 0.150428 -1.350451 0.146396
v 0.149133 -1.347540 0.143858
v 0.149758 -1.348635 0.146563
v 0.149147 -1.346638 0.146641
v 0.148697 -1.345255 0.144926
v 0.148590 -1.346259 0.147333
v 0.147943 -1.344772 0.144847
v 0.146968 -1.344559 0.145138
v 0.132773 -1.329787 0.078670
v 0.133535 -1.327483 0.079028
v 0.132086 -1.332571 0.079299
v 0.131376 -1.334949 0.080875
v 0.133878 -1.323879 0.078960
v 0.135436 -1.325076 0.075753
v 0.135109 -1.327734 0.074985
v 0.134269 -1.330112 0.075401
v 0.133497 -1.333099 0.077474
v 0.132478 -1.335645 0.079671
v 0.131924 -1.337154 0.080322
v 0.130701 -1.337353 0.081543
v 0.129924 -1.336280 0.082261
v 0.130046 -1.334432 0.081844
v 0.130489 -1.331905 0.080603
v 0.130988 -1.329021 0.080781
v 0.131608 -1.325157 0.081140
v 0.131991 -1.322581 0.080531
v 0.132804 -1.320362 0.079593
v 0.134043 -1.321212 0.078419
v 0.135326 -1.322559 0.076839
f 36 29 35
f 36 35 38
f 38 35 27
f 38 27 41
f 41 27 24
f 41 24 42
f 44 42 24
f 44 24 23
f 46 44 23
f 46 23 20
f 47 46 20
f 47 20 19
f 48 47 19
f 48 19 16
f 51 50 12
f 51 12 11
f 52 51 11
f 52 11 5
f 49 48 16
f 49 16 14
f 49 14 12
f 49 12 50
f 53 52 5
f 53 5 1
f 8 31 29
f 8 29 36
f 53 1 6
f 53 6 7
f 63 33 31
f 63 31 8
f 7 6 33
f 7 33 63
f 62 7 63
f 62 63 64
f 82 81 97
f 82 97 98
f 83 82 98
f 83 98 99
f 84 83 99
f 84 99 100
f 85 84 100
f 85 100 101
f 86 85 101
f 86 101 102
f 87 86 102
f 87 102 103
f 88 87 103
f 88 103 104
f 89 88 104
f 89 104 105
f 90 89 105
f 90 105 106
f 91 90 106
f 91 106 107
f 92 91 107
f 92 107 108
f 93 92 108
f 93 108 109
f 94 93 109
f 94 109 110
f 95 94 110
f 95 110 111
f 96 95 111
f 96 111 112
f 112 97 81
f 112 81 96
f 98 97 113
f 98 113 114
f 99 98 114
f 99 114 115
f 100 99 115
f 100 115 116
f 101 100 116
f 101 116 117
f 102 101 117
f 102 117 118
f 103 102 118
f 103 118 119
f 104 103 119
f 104 119 120
f 105 104 120
f 105 120 121
f 106 105 121
f 106 121 122
f 107 106 122
f 107 122 123
f 108 107 123
f 108 123 124
f 109 108 124
f 109 124 125
f 110 109 125
f 110 125 126
f 111 110 126
f 111 126 127
f 112 111 127
f 112 127 128
f 128 113 97
f 128 97 112
f 114 113 129
f 114 129 130
f 115 114 130
f 115 130 131
f 116 115 131
f 116 131 132
f 117 116 132
f 117 132 133
f 118 117 133
f 118 133 134
f 119 118 134
f 119 134 135
f 120 119 135
f 120 135 136
f 121 120 136
f 121 136 137
f 122 121 137
f 122 137 138
f 123 122 138
f 123 138 139
f 124 123 139
f 124 139 140
f 125 124 140
f 125 140 141
f 126 125 141
f 126 141 142
f 127 126 142
f 127 142 143
f 128 127 143
f 128 143 144
f 144 129 113
f 144 113 128
f 60 53 7
f 60 7 62
f 60 62 68
f 60 68 69
f 69 68 84
f 69 84 85
f 67 68 62
f 67 62 64
f 83 84 68
f 83 68 67
f 64 63 8
f 64 8 9
f 66 67 64
f 66 64 9
f 82 83 67
f 82 67 66
f 37 9 8
f 37 8 36
f 65 66 9
f 65 9 37
f 81 82 66
f 81 66 65
f 37 36 38
f 37 38 39
f 80 65 37
f 80 37 39
f 96 81 65
f 96 65 80
f 40 39 38
f 40 38 41
f 79 80 39
f 79 39 40
f 95 96 80
f 95 80 79
f 40 41 42
f 40 42 43
f 78 79 40
f 78 40 43
f 94 95 79
f 94 79 78
f 45 43 42
f 45 42 44
f 77 78 43
f 77 43 45
f 93 94 78
f 93 78 77
f 54 45 44
f 54 44 46
f 76 77 45
f 76 45 54
f 92 93 77
f 92 77 76
f 55 54 46
f 55 46 47
f 75 76 54
f 75 54 55
f 91 92 76
f 91 76 75
f 56 55 47
f 56 47 48
f 74 75 55
f 74 55 56
f 90 91 75
f 90 75 74
f 61 56 48
f 61 48 49
f 73 74 56
f 73 56 61
f 89 90 74
f 89 74 73
f 61 49 50
f 61 50 57
f 72 73 61
f 72 61 57
f 88 89 73
f 88 73 72
f 58 57 50
f 58 50 51
f 71 72 57
f 71 57 58
f 87 88 72
f 87 72 71
f 59 58 51
f 59 51 52
f 70 71 58
f 70 58 59
f 59 52 53
f 59 53 60
f 59 60 69
f 59 69 70
f 70 69 85
f 70 85 86
f 86 87 71
f 86 71 70
f 142 141 157
f 142 157 158
f 156 157 141
f 156 141 140
f 143 142 158
f 143 158 159
f 144 143 159
f 144 159 160
f 129 144 160
f 129 160 145
f 130 129 145
f 130 145 146
f 131 130 146
f 131 146 147
f 160 159 167
f 160 167 171
f 172 145 160
f 172 160 171
f 146 145 172
f 146 172 173
f 174 147 146
f 174 146 173
f 168 167 159
f 168 159 163
f 182 168 179
f 182 179 169
f 182 171 167
f 182 167 168
f 181 172 171
f 181 171 182
f 183 173 172
f 183 172 181
f 178 174 173
f 178 173 183
f 181 182 169
f 181 169 170
f 183 181 170
f 183 170 184
f 175 178 183
f 175 183 184
f 177 147 174
f 177 174 178
f 132 131 147
f 132 147 148
f 133 132 148
f 133 148 149
f 155 156 140
f 155 140 139
f 154 155 139
f 154 139 138
f 153 154 138
f 153 138 137
f 152 153 137
f 152 137 136
f 164 156 155
f 164 155 189
f 162 157 156
f 162 156 164
f 148 147 177
f 148 177 186
f 161 158 157
f 161 157 162
f 163 159 158
f 163 158 161
f 191 164 189
f 191 189 190
f 204 162 164
f 204 164 191
f 180 163 161
f 180 161 213
f 179 168 163
f 179 163 180
f 213 161 162
f 213 162 204
f 205 204 191
f 205 191 198
f 165 169 179
f 165 179 180
f 165 180 213
f 165 213 212
f 212 213 204
f 212 204 205
f 170 169 165
f 170 165 166
f 166 165 212
f 166 212 211
f 211 212 205
f 211 205 206
f 184 170 166
f 184 166 185
f 185 166 211
f 185 211 210
f 210 211 206
f 210 206 207
f 177 178 175
f 177 175 176
f 176 175 184
f 176 184 185
f 176 185 210
f 176 210 209
f 209 186 177
f 209 177 176
f 209 210 207
f 209 207 208
f 199 198 191
f 199 191 190
f 206 205 198
f 206 198 201
f 207 206 201
f 207 201 202
f 197 190 189
f 197 189 196
f 192 155 154
f 192 154 193
f 196 189 155
f 196 155 192
f 194 193 154
f 194 154 153
f 196 192 193
f 196 193 216
f 199 190 197
f 199 197 200
f 200 197 196
f 200 196 216
f 195 194 153
f 195 153 152
f 216 193 194
f 216 194 217
f 201 198 199
f 201 199 214
f 214 199 200
f 214 200 218
f 200 216 217
f 200 217 218
f 217 194 195
f 217 195 219
f 220 218 217
f 220 217 219
f 215 214 218
f 215 218 220
f 202 201 214
f 202 214 215
f 215 220 221
f 215 221 223
f 221 220 219
f 221 219 222
f 222 219 195
f 222 195 188
f 208 207 202
f 208 202 203
f 187 186 209
f 187 209 208
f 149 148 186
f 149 186 187
f 203 202 215
f 203 215 223
f 135 134 150
f 135 150 151
f 151 152 136
f 151 136 135
f 188 195 152
f 188 152 151
f 224 222 188
f 224 188 151
f 224 223 221
f 224 221 222
f 134 133 149
f 134 149 150
f 150 149 187
f 150 187 225
f 225 224 151
f 225 151 150
f 225 187 208
f 225 208 203
f 225 203 223
f 225 223 224
f 15 13 12
f 15 12 14
f 17 15 14
f 17 14 16
f 232 15 17
f 232 17 233
f 18 17 16
f 18 16 19
f 233 17 18
f 233 18 234
f 21 18 19
f 21 19 20
f 234 18 21
f 234 21 235
f 22 21 20
f 22 20 23
f 236 235 21
f 236 21 22
f 25 22 23
f 25 23 24
f 236 22 25
f 236 25 237
f 26 25 24
f 26 24 27
f 238 237 25
f 238 25 26
f 229 235 236
f 229 236 237
f 34 26 27
f 34 27 35
f 239 229 237
f 239 237 238
f 239 238 26
f 239 26 34
f 34 35 29
f 34 29 28
f 234 235 229
f 234 229 228
f 240 228 229
f 240 229 239
f 240 239 34
f 240 34 28
f 233 234 228
f 233 228 226
f 30 28 29
f 30 29 31
f 226 228 240
f 226 240 241
f 240 28 30
f 240 30 241
f 32 30 31
f 32 31 33
f 232 233 226
f 232 226 227
f 242 227 226
f 242 226 241
f 242 241 30
f 242 30 32
f 32 33 6
f 32 6 3
f 243 242 32
f 243 32 3
f 2 3 6
f 2 6 1
f 244 243 3
f 244 3 2
f 4 2 1
f 4 1 5
f 230 227 242
f 230 242 243
f 244 2 4
f 244 4 245
f 230 243 244
f 230 244 245
f 10 4 5
f 10 5 11
f 10 11 12
f 10 12 13
f 232 227 230
f 232 230 231
f 246 245 4
f 246 4 10
f 246 10 13
f 246 13 231
f 231 13 15
f 231 15 232
f 231 230 245
f 231 245 246
