# _3rd_Middle_Phalanx_Foot_L posed
v 1.006866 0.011654 0.241681
v 1.007374 0.011676 0.242487
v 1.007319 0.012649 0.242731
v 1.006827 0.012921 0.241928
v 1.007923 0.013659 0.243859
v 1.007792 0.014730 0.243657
v 1.008341 0.013885 0.244425
v 1.008279 0.015017 0.244459
v 1.008884 0.014900 0.245573
v 1.008800 0.013771 0.245177
v 1.010410 0.012320 0.246042
v 1.009766 0.012018 0.245565
v 1.009522 0.012728 0.245604
v 1.010108 0.013214 0.246278
v 1.007493 0.013321 0.243210
v 1.007281 0.014044 0.242611
v 1.007509 0.010436 0.241933
v 1.007793 0.010722 0.242670
v 1.008497 0.009588 0.242607
v 1.008396 0.010088 0.243138
v 1.009401 0.009120 0.243417
v 1.008897 0.009854 0.243748
v 1.010198 0.008969 0.244334
v 1.009411 0.009742 0.244447
v 1.010643 0.009086 0.245228
v 1.009708 0.009721 0.245092
v 1.009905 0.011200 0.245638
v 1.010696 0.011211 0.246119
v 1.009912 0.010217 0.245551
v 1.010759 0.009917 0.246012
v 1.009196 0.013368 0.245660
v 1.009495 0.014183 0.246273
v 1.008446 0.010838 0.243613
v 1.008165 0.011651 0.243534
v 1.007969 0.012517 0.243583
v 1.008959 0.010853 0.244391
v 1.008722 0.011725 0.244326
v 1.008608 0.012619 0.244344
v 1.009447 0.011013 0.245108
v 1.009283 0.011891 0.245043
v 1.009114 0.012629 0.245040
v 1.010737 0.016287 0.242958
v 1.010209 0.015943 0.242137
v 1.009856 0.015335 0.241459
v 1.009667 0.014657 0.240842
v 1.009694 0.013694 0.240481
v 1.010079 0.012677 0.240498
v 1.010653 0.011818 0.240919
v 1.011338 0.011191 0.241524
v 1.012125 0.010920 0.242255
v 1.012699 0.011142 0.243111
v 1.013086 0.011845 0.243870
v 1.013095 0.012769 0.244324
v 1.012953 0.013746 0.244530
v 1.012671 0.014645 0.244631
v 1.012186 0.015576 0.244433
v 1.011456 0.016294 0.243775
v 1.013357 0.017302 0.241038
v 1.012931 0.017127 0.240418
v 1.012706 0.016687 0.239872
v 1.012601 0.016133 0.239475
v 1.012702 0.015477 0.239256
v 1.012971 0.014786 0.239231
v 1.013379 0.014188 0.239440
v 1.013858 0.013672 0.239794
v 1.014448 0.013440 0.240345
v 1.014935 0.013532 0.240991
v 1.015164 0.014112 0.241528
v 1.015181 0.014715 0.241922
v 1.015047 0.015439 0.242109
v 1.014792 0.016080 0.242158
v 1.014409 0.016647 0.242012
v 1.013912 0.017116 0.241661
v 1.014987 0.018324 0.239858
v 1.014509 0.018235 0.239259
v 1.014243 0.017858 0.238642
v 1.014283 0.017253 0.238322
v 1.014456 0.016625 0.238167
v 1.014730 0.016014 0.238139
v 1.015112 0.015435 0.238283
v 1.015593 0.014939 0.238583
v 1.016106 0.014721 0.239123
v 1.016560 0.014801 0.239743
v 1.016757 0.015279 0.240285
v 1.016793 0.015839 0.240688
v 1.016635 0.016494 0.240896
v 1.016389 0.017122 0.240965
v 1.016015 0.017693 0.240825
v 1.015530 0.018151 0.240516
v 1.017434 0.020595 0.238205
v 1.016914 0.020386 0.237409
v 1.016670 0.019787 0.236744
v 1.016729 0.019015 0.236371
v 1.016925 0.018284 0.236198
v 1.017208 0.017582 0.236156
v 1.017598 0.016848 0.236235
v 1.018172 0.016153 0.236577
v 1.018864 0.015804 0.237271
v 1.019483 0.015905 0.238135
v 1.019712 0.016611 0.238842
v 1.019631 0.017437 0.239217
v 1.019409 0.018172 0.239357
v 1.019166 0.018845 0.239432
v 1.018755 0.019652 0.239438
v 1.018311 0.020437 0.239253
v 1.011991 0.013126 0.245488
v 1.012203 0.012025 0.245459
v 1.011665 0.014013 0.245703
v 1.011136 0.015221 0.245501
v 1.012292 0.010786 0.245100
v 1.011938 0.009856 0.244120
v 1.011181 0.009720 0.243206
v 1.010387 0.009935 0.242244
v 1.009599 0.010577 0.241391
v 1.008797 0.011542 0.240781
v 1.008203 0.012850 0.240612
v 1.008216 0.014109 0.241043
v 1.008538 0.014994 0.241807
v 1.008976 0.015694 0.242668
v 1.009469 0.015937 0.243636
v 1.010257 0.015883 0.244768
v 1.011268 0.012691 0.245972
v 1.011517 0.011602 0.245957
v 1.010936 0.013577 0.246165
v 1.010363 0.014775 0.246101
v 1.011602 0.010262 0.245689
v 1.011363 0.009320 0.244672
v 1.010741 0.009212 0.243717
v 1.009894 0.009375 0.242776
v 1.008992 0.009889 0.241887
v 1.007383 0.012251 0.240919
v 1.007825 0.014647 0.242118
v 1.008112 0.010893 0.241144
v 1.007424 0.013672 0.241303
v 1.008290 0.015456 0.243063
v 1.008799 0.015688 0.244070
v 1.009549 0.015599 0.245232
v 1.020342 0.016608 0.236537
v 1.020891 0.016888 0.237334
v 1.021077 0.017598 0.237946
v 1.020969 0.018387 0.238257
v 1.020798 0.019088 0.238446
v 1.020588 0.019832 0.238615
v 1.020183 0.020678 0.238612
v 1.019599 0.021278 0.238322
v 1.018744 0.021463 0.237454
v 1.018182 0.021265 0.236599
v 1.017828 0.020681 0.235862
v 1.017833 0.019854 0.235408
v 1.018026 0.019047 0.235184
v 1.018319 0.018269 0.235094
v 1.018750 0.017474 0.235157
v 1.019395 0.016896 0.235589
v 1.020932 0.019538 0.237445
v 1.020732 0.020163 0.237528
v 1.020461 0.020754 0.237590
v 1.020041 0.021203 0.237480
v 1.019499 0.021340 0.237023
v 1.018966 0.021218 0.236290
v 1.018604 0.020725 0.235707
v 1.018688 0.020188 0.235356
v 1.018937 0.019479 0.235169
v 1.019177 0.018819 0.235036
v 1.019550 0.018296 0.235112
v 1.020032 0.017857 0.235428
v 1.020746 0.017722 0.236093
v 1.021109 0.017967 0.236638
v 1.021195 0.018337 0.236984
v 1.021098 0.018947 0.237241
v 1.020154 0.018614 0.239030
v 1.020359 0.017862 0.238880
v 1.020496 0.017010 0.238586
v 1.019940 0.019318 0.239147
v 1.019507 0.020170 0.239222
v 1.018971 0.021004 0.238917
v 1.020314 0.016246 0.237773
v 1.019641 0.016084 0.236856
v 1.018766 0.016417 0.236013
v 1.018092 0.017091 0.235609
v 1.017687 0.017893 0.235537
v 1.017408 0.018662 0.235629
v 1.017225 0.019438 0.235838
v 1.017164 0.020281 0.236241
v 1.017435 0.020927 0.237000
v 1.017982 0.021173 0.237872
v 1.019433 0.020325 0.235897
v 1.019680 0.019616 0.235741
v 1.019899 0.018944 0.235563
v 1.020022 0.020347 0.236497
v 1.020243 0.019678 0.236319
v 1.020477 0.018977 0.236146
v 1.020432 0.020243 0.237046
v 1.020644 0.019692 0.236829
v 1.020844 0.019019 0.236687
v 1.016348 0.019469 0.238995
v 1.015885 0.019355 0.238204
v 1.015600 0.018930 0.237610
v 1.015650 0.018231 0.237247
v 1.015860 0.017581 0.237117
v 1.016155 0.016911 0.237112
v 1.016539 0.016323 0.237266
v 1.017055 0.015750 0.237567
v 1.017597 0.015440 0.238121
v 1.018095 0.015566 0.238827
v 1.018317 0.016015 0.239480
v 1.018327 0.016703 0.239883
v 1.018148 0.017405 0.240000
v 1.017887 0.018071 0.240060
v 1.017492 0.018708 0.239955
v 1.017004 0.019276 0.239637
v 1.011937 0.016619 0.242103
v 1.011456 0.016405 0.241386
v 1.011168 0.015914 0.240818
v 1.011058 0.015248 0.240353
v 1.011098 0.014500 0.240072
v 1.011367 0.013701 0.240046
v 1.011846 0.012955 0.240348
v 1.012442 0.012409 0.240801
v 1.013080 0.012117 0.241390
v 1.013604 0.012333 0.242135
v 1.013971 0.012883 0.242767
v 1.014020 0.013652 0.243196
v 1.013863 0.014492 0.243391
v 1.013608 0.015247 0.243476
v 1.013187 0.016020 0.243269
v 1.012612 0.016548 0.242832
f 33 18 20
f 33 20 22
f 34 2 18
f 34 18 33
f 5 15 3
f 5 3 35
f 35 3 2
f 35 2 34
f 33 22 24
f 33 24 36
f 26 29 27
f 26 27 39
f 36 24 26
f 36 26 39
f 34 33 36
f 34 36 37
f 39 27 12
f 39 12 40
f 37 36 39
f 37 39 40
f 7 5 35
f 7 35 38
f 35 34 37
f 35 37 38
f 40 12 13
f 40 13 41
f 10 7 38
f 10 38 41
f 41 13 31
f 41 31 10
f 38 37 40
f 38 40 41
f 1 2 3
f 1 3 4
f 17 18 2
f 17 2 1
f 1 4 134
f 1 134 131
f 131 133 17
f 131 17 1
f 4 3 15
f 4 15 16
f 4 16 132
f 4 132 134
f 6 5 7
f 6 7 8
f 16 15 5
f 16 5 6
f 6 8 136
f 6 136 135
f 135 132 16
f 135 16 6
f 8 7 10
f 8 10 9
f 8 9 137
f 8 137 136
f 9 10 31
f 9 31 32
f 9 32 125
f 9 125 137
f 14 13 12
f 14 12 11
f 11 12 27
f 11 27 28
f 122 124 14
f 122 14 11
f 11 28 123
f 11 123 122
f 32 31 13
f 32 13 14
f 124 125 32
f 124 32 14
f 19 20 18
f 19 18 17
f 133 130 19
f 133 19 17
f 21 22 20
f 21 20 19
f 130 129 21
f 130 21 19
f 23 24 22
f 23 22 21
f 129 128 23
f 129 23 21
f 25 26 24
f 25 24 23
f 128 127 25
f 128 25 23
f 30 29 26
f 30 26 25
f 127 126 30
f 127 30 25
f 28 27 29
f 28 29 30
f 28 30 126
f 28 126 123
f 122 123 107
f 122 107 106
f 106 108 124
f 106 124 122
f 123 126 110
f 123 110 107
f 108 109 125
f 108 125 124
f 109 121 137
f 109 137 125
f 126 127 111
f 126 111 110
f 127 128 112
f 127 112 111
f 128 129 113
f 128 113 112
f 129 130 114
f 129 114 113
f 130 133 115
f 130 115 114
f 133 131 116
f 133 116 115
f 131 134 117
f 131 117 116
f 134 132 118
f 134 118 117
f 132 135 119
f 132 119 118
f 135 136 120
f 135 120 119
f 136 137 121
f 136 121 120
f 171 141 142
f 171 142 170
f 172 140 141
f 172 141 171
f 170 142 143
f 170 143 173
f 173 143 144
f 173 144 174
f 174 144 145
f 174 145 175
f 176 139 140
f 176 140 172
f 138 139 176
f 138 176 177
f 153 138 177
f 153 177 178
f 179 152 153
f 179 153 178
f 151 152 179
f 151 179 180
f 150 151 180
f 150 180 181
f 149 150 181
f 149 181 182
f 148 149 182
f 148 182 183
f 147 148 183
f 147 183 184
f 185 175 145
f 185 145 146
f 146 147 184
f 146 184 185
f 160 148 147
f 160 147 159
f 149 148 160
f 149 160 161
f 150 149 161
f 150 161 162
f 164 152 151
f 164 151 163
f 151 150 162
f 151 162 163
f 153 152 164
f 153 164 165
f 159 147 146
f 159 146 158
f 186 161 160
f 186 160 159
f 187 162 161
f 187 161 186
f 165 164 163
f 165 163 188
f 188 163 162
f 188 162 187
f 138 153 165
f 138 165 166
f 145 144 156
f 145 156 157
f 158 146 145
f 158 145 157
f 156 144 143
f 156 143 155
f 189 158 157
f 189 157 192
f 186 159 158
f 186 158 189
f 157 156 155
f 157 155 192
f 155 143 142
f 155 142 154
f 187 186 189
f 187 189 190
f 192 155 154
f 192 154 193
f 190 189 192
f 190 192 193
f 166 165 188
f 166 188 191
f 141 140 168
f 141 168 169
f 154 142 141
f 154 141 169
f 188 187 190
f 188 190 191
f 168 140 139
f 168 139 167
f 193 154 169
f 193 169 194
f 139 138 166
f 139 166 167
f 167 166 191
f 167 191 194
f 194 169 168
f 194 168 167
f 191 190 193
f 191 193 194
f 196 75 74
f 196 74 195
f 91 90 185
f 91 185 184
f 196 195 90
f 196 90 91
f 197 76 75
f 197 75 196
f 92 91 184
f 92 184 183
f 197 196 91
f 197 91 92
f 198 77 76
f 198 76 197
f 93 92 183
f 93 183 182
f 198 197 92
f 198 92 93
f 199 78 77
f 199 77 198
f 94 93 182
f 94 182 181
f 199 198 93
f 199 93 94
f 200 79 78
f 200 78 199
f 95 94 181
f 95 181 180
f 200 199 94
f 200 94 95
f 201 80 79
f 201 79 200
f 96 95 180
f 96 180 179
f 201 200 95
f 201 95 96
f 202 81 80
f 202 80 201
f 97 96 179
f 97 179 178
f 202 201 96
f 202 96 97
f 203 82 81
f 203 81 202
f 98 97 178
f 98 178 177
f 203 202 97
f 203 97 98
f 204 83 82
f 204 82 203
f 99 98 177
f 99 177 176
f 204 203 98
f 204 98 99
f 205 84 83
f 205 83 204
f 100 99 176
f 100 176 172
f 205 204 99
f 205 99 100
f 206 85 84
f 206 84 205
f 101 100 172
f 101 172 171
f 206 205 100
f 206 100 101
f 207 86 85
f 207 85 206
f 102 101 171
f 102 171 170
f 207 206 101
f 207 101 102
f 208 87 86
f 208 86 207
f 103 102 170
f 103 170 173
f 208 207 102
f 208 102 103
f 209 88 87
f 209 87 208
f 104 103 173
f 104 173 174
f 209 208 103
f 209 103 104
f 105 90 195
f 105 195 210
f 195 74 89
f 195 89 210
f 105 104 174
f 105 174 175
f 210 209 104
f 210 104 105
f 175 185 90
f 175 90 105
f 210 89 88
f 210 88 209
f 211 212 43
f 211 43 42
f 42 43 119
f 42 119 120
f 42 57 226
f 42 226 211
f 120 121 57
f 120 57 42
f 212 213 44
f 212 44 43
f 43 44 118
f 43 118 119
f 213 214 45
f 213 45 44
f 44 45 117
f 44 117 118
f 214 215 46
f 214 46 45
f 45 46 116
f 45 116 117
f 215 216 47
f 215 47 46
f 46 47 115
f 46 115 116
f 216 217 48
f 216 48 47
f 47 48 114
f 47 114 115
f 217 218 49
f 217 49 48
f 48 49 113
f 48 113 114
f 218 219 50
f 218 50 49
f 49 50 112
f 49 112 113
f 219 220 51
f 219 51 50
f 50 51 111
f 50 111 112
f 220 221 52
f 220 52 51
f 51 52 110
f 51 110 111
f 221 222 53
f 221 53 52
f 52 53 107
f 52 107 110
f 222 223 54
f 222 54 53
f 53 54 106
f 53 106 107
f 223 224 55
f 223 55 54
f 54 55 108
f 54 108 106
f 224 225 56
f 224 56 55
f 55 56 109
f 55 109 108
f 225 226 57
f 225 57 56
f 56 57 121
f 56 121 109
f 74 75 59
f 74 59 58
f 58 59 212
f 58 212 211
f 58 73 89
f 58 89 74
f 211 226 73
f 211 73 58
f 75 76 60
f 75 60 59
f 59 60 213
f 59 213 212
f 76 77 61
f 76 61 60
f 60 61 214
f 60 214 213
f 77 78 62
f 77 62 61
f 61 62 215
f 61 215 214
f 78 79 63
f 78 63 62
f 62 63 216
f 62 216 215
f 79 80 64
f 79 64 63
f 63 64 217
f 63 217 216
f 80 81 65
f 80 65 64
f 64 65 218
f 64 218 217
f 81 82 66
f 81 66 65
f 65 66 219
f 65 219 218
f 82 83 67
f 82 67 66
f 66 67 220
f 66 220 219
f 83 84 68
f 83 68 67
f 67 68 221
f 67 221 220
f 84 85 69
f 84 69 68
f 68 69 222
f 68 222 221
f 85 86 70
f 85 70 69
f 69 70 223
f 69 223 222
f 86 87 71
f 86 71 70
f 70 71 224
f 70 224 223
f 87 88 72
f 87 72 71
f 71 72 225
f 71 225 224
f 88 89 73
f 88 73 72
f 72 73 226
f 72 226 225
