# _3rd_Intermediate_Phalanges_Hand_R rest
v -0.871095 0.031920 -0.071799
v -0.872826 0.032766 -0.072852
v -0.874375 0.031626 -0.072050
v -0.872638 0.030736 -0.071457
v -0.870671 0.030621 -0.080646
v -0.872271 0.031550 -0.079764
v -0.873311 0.030518 -0.080822
v -0.871812 0.029374 -0.081183
v -0.872475 0.032758 -0.076346
v -0.874043 0.031324 -0.076454
v -0.874202 0.029664 -0.073298
v -0.873494 0.028911 -0.076782
v -0.873430 0.028680 -0.080035
v -0.871598 0.028165 -0.080101
v -0.872265 0.029084 -0.072890
v -0.871222 0.028082 -0.076746
v -0.870566 0.032782 -0.076350
v -0.870019 0.029197 -0.079609
v -0.870212 0.028982 -0.076714
v -0.870308 0.029708 -0.073361
v -0.868682 0.033141 -0.075918
v -0.868751 0.031863 -0.072342
v -0.868480 0.030140 -0.073537
v -0.868364 0.029395 -0.076387
v -0.868208 0.029479 -0.079011
v -0.868183 0.030740 -0.079865
v -0.868814 0.032838 -0.073829
v -0.870721 0.032761 -0.074098
v -0.872719 0.032969 -0.074505
v -0.868482 0.032386 -0.078331
v -0.870419 0.032214 -0.078627
v -0.872385 0.032359 -0.078238
v -0.874389 0.031691 -0.074457
v -0.874066 0.031167 -0.078490
v -0.874311 0.029620 -0.078968
v -0.874191 0.029880 -0.076935
v -0.874418 0.030274 -0.074823
v -0.865637 0.031022 -0.078905
v -0.865544 0.029799 -0.078092
v -0.865657 0.029653 -0.075882
v -0.865898 0.030509 -0.073466
v -0.866177 0.032178 -0.072167
v -0.866325 0.033183 -0.073437
v -0.866272 0.033413 -0.075442
v -0.865983 0.032662 -0.077624
v -0.862231 0.031438 -0.078223
v -0.862100 0.030227 -0.077288
v -0.862202 0.030113 -0.075275
v -0.862459 0.030978 -0.072935
v -0.862810 0.032731 -0.071479
v -0.863002 0.033878 -0.072654
v -0.862897 0.033996 -0.074770
v -0.862602 0.033125 -0.076967
v -0.858496 0.031800 -0.077942
v -0.858335 0.030484 -0.076951
v -0.858465 0.030310 -0.074738
v -0.858786 0.031342 -0.072207
v -0.859190 0.033210 -0.070542
v -0.859402 0.034525 -0.071732
v -0.859276 0.034507 -0.074121
v -0.858943 0.033583 -0.076487
v -0.854471 0.031963 -0.078150
v -0.854255 0.030460 -0.076963
v -0.854448 0.030342 -0.074197
v -0.854849 0.031394 -0.070788
v -0.855374 0.033673 -0.068708
v -0.855550 0.035093 -0.070449
v -0.855421 0.035268 -0.073232
v -0.855024 0.034172 -0.076136
v -0.852752 0.035902 -0.072730
v -0.852397 0.034441 -0.076239
v -0.851922 0.032008 -0.078583
v -0.851970 0.030266 -0.076951
v -0.852169 0.030202 -0.073966
v -0.852299 0.031398 -0.070137
v -0.852676 0.033796 -0.067662
v -0.853101 0.035777 -0.069201
v -0.851465 0.034710 -0.072886
v -0.852165 0.034723 -0.070290
v -0.852019 0.033452 -0.069779
v -0.851763 0.031916 -0.071155
v -0.851684 0.031357 -0.073783
v -0.851474 0.031173 -0.075812
v -0.851327 0.032232 -0.076764
v -0.851382 0.033823 -0.075446
v -0.852245 0.032869 -0.073275
v -0.870719 0.028805 -0.074955
v -0.870406 0.028528 -0.078417
v -0.871354 0.030147 -0.071829
v -0.870814 0.029123 -0.080703
v -0.871400 0.032548 -0.077453
v -0.871715 0.032859 -0.073234
v -0.871548 0.032825 -0.075385
v -0.872728 0.031723 -0.072057
v -0.871357 0.031860 -0.079397
v -0.871984 0.030458 -0.080724
v -0.873453 0.031815 -0.079162
v -0.872586 0.028921 -0.081026
v -0.874315 0.029933 -0.079825
v -0.873565 0.032082 -0.077300
v -0.873938 0.029099 -0.078373
v -0.872711 0.028173 -0.078540
v -0.874521 0.030522 -0.077682
v -0.873194 0.028660 -0.074739
v -0.873751 0.032329 -0.075452
v -0.873539 0.030161 -0.071646
v -0.874718 0.030815 -0.073488
v -0.874081 0.029590 -0.075368
v -0.874028 0.032731 -0.073266
v -0.874480 0.030793 -0.075653
v -0.860309 0.030847 -0.077840
v -0.860325 0.030142 -0.076131
v -0.860503 0.030534 -0.073791
v -0.860840 0.032004 -0.071647
v -0.861194 0.033759 -0.071370
v -0.861197 0.034318 -0.073320
v -0.860998 0.033938 -0.075646
v -0.860613 0.032550 -0.077600
v -0.869377 0.029483 -0.075022
v -0.867204 0.029765 -0.074838
v -0.864087 0.030167 -0.074404
v -0.869270 0.029200 -0.078085
v -0.867070 0.029451 -0.077441
v -0.863877 0.029798 -0.076694
v -0.869120 0.029831 -0.080144
v -0.866960 0.030111 -0.079234
v -0.863885 0.030494 -0.078336
v -0.869354 0.031553 -0.079579
v -0.867154 0.031756 -0.078953
v -0.864174 0.032117 -0.078087
v -0.869615 0.032733 -0.077374
v -0.867508 0.033050 -0.076891
v -0.864540 0.033396 -0.076207
v -0.869740 0.032943 -0.075033
v -0.867669 0.033255 -0.074579
v -0.864727 0.033735 -0.074009
v -0.869583 0.030895 -0.072231
v -0.867396 0.031107 -0.072560
v -0.869823 0.032395 -0.072973
v -0.867638 0.032564 -0.072854
v -0.864373 0.031523 -0.072359
v -0.864673 0.033087 -0.072300
v -0.857139 0.034557 -0.074998
v -0.856625 0.032975 -0.077404
v -0.856231 0.031052 -0.077711
v -0.856215 0.030297 -0.075778
v -0.856510 0.030744 -0.072996
v -0.856949 0.032375 -0.070338
v -0.857347 0.034364 -0.070041
v -0.857392 0.035056 -0.072288
v -0.854109 0.035731 -0.071241
v -0.854233 0.034926 -0.068440
v -0.853754 0.032440 -0.068467
v -0.853264 0.030581 -0.072178
v -0.853008 0.030136 -0.075677
v -0.852906 0.030764 -0.078192
v -0.853326 0.033200 -0.077551
v -0.853743 0.035187 -0.074596
v -0.852341 0.034678 -0.068707
v -0.852108 0.032590 -0.069127
v -0.851601 0.034963 -0.074737
v -0.852049 0.035749 -0.070865
v -0.852055 0.032321 -0.072060
v -0.851634 0.030990 -0.072210
v -0.851619 0.030568 -0.075230
v -0.851923 0.031868 -0.075000
v -0.851123 0.031012 -0.077469
v -0.851481 0.033123 -0.077156
v -0.851688 0.033386 -0.074763
v -0.852127 0.034134 -0.071424
v -0.872106 0.032524 -0.072419
v -0.873878 0.032439 -0.072699
v -0.873515 0.030870 -0.071609
v -0.871747 0.031086 -0.071502
v -0.871562 0.031265 -0.080139
v -0.872829 0.031223 -0.080167
v -0.872488 0.029778 -0.081183
v -0.871235 0.029825 -0.081000
v -0.872854 0.032979 -0.073602
v -0.872405 0.032571 -0.077364
v -0.874627 0.031897 -0.073230
v -0.873659 0.032203 -0.076338
v -0.874027 0.031222 -0.077469
v -0.874538 0.030555 -0.072306
v -0.873806 0.029113 -0.074963
v -0.873877 0.029351 -0.076931
v -0.873449 0.028611 -0.078460
v -0.873554 0.029351 -0.080776
v -0.871657 0.028694 -0.080814
v -0.872520 0.028243 -0.080200
v -0.872436 0.029883 -0.071720
v -0.873336 0.029265 -0.072845
v -0.871198 0.027970 -0.078586
v -0.872874 0.028435 -0.076717
v -0.871667 0.028375 -0.074830
v -0.871455 0.032728 -0.076405
v -0.870499 0.032590 -0.077472
v -0.870642 0.032829 -0.075251
v -0.870719 0.028663 -0.079846
v -0.869961 0.029599 -0.080457
v -0.870433 0.028616 -0.076686
v -0.870152 0.029011 -0.078252
v -0.871201 0.029290 -0.073174
v -0.870253 0.029210 -0.075016
v -0.870471 0.030626 -0.072091
v -0.869680 0.032953 -0.076186
v -0.868767 0.033098 -0.074794
v -0.869793 0.031799 -0.072280
v -0.868578 0.030995 -0.072409
v -0.869437 0.029910 -0.073475
v -0.868419 0.029656 -0.074937
v -0.869341 0.029281 -0.076550
v -0.868304 0.029322 -0.077807
v -0.869193 0.029351 -0.079384
v -0.868130 0.029960 -0.079753
v -0.869201 0.030692 -0.080205
v -0.868357 0.031621 -0.079340
v -0.868798 0.032454 -0.072981
v -0.869804 0.032763 -0.073965
v -0.870757 0.032559 -0.072946
v -0.871641 0.032872 -0.074340
v -0.872549 0.032897 -0.075376
v -0.868620 0.032911 -0.077149
v -0.869495 0.032247 -0.078560
v -0.870332 0.031650 -0.079649
v -0.871357 0.032271 -0.078487
v -0.872330 0.031978 -0.079142
v -0.873943 0.032578 -0.074428
v -0.874160 0.031502 -0.075459
v -0.873480 0.031976 -0.078303
v -0.874083 0.031163 -0.079466
v -0.874533 0.030253 -0.078758
v -0.874624 0.030847 -0.074648
v -0.874086 0.029199 -0.079443
v -0.874265 0.029696 -0.078110
v -0.874435 0.030651 -0.076647
v -0.874249 0.030073 -0.075816
v -0.874432 0.030052 -0.074163
v -0.865516 0.030305 -0.078767
v -0.865597 0.029593 -0.077070
v -0.865758 0.029935 -0.074654
v -0.865980 0.031258 -0.072593
v -0.866273 0.032775 -0.072654
v -0.866333 0.033407 -0.074336
v -0.866173 0.033167 -0.076570
v -0.865792 0.031891 -0.078496
v -0.862124 0.030714 -0.078006
v -0.862136 0.030049 -0.076365
v -0.862324 0.030402 -0.074108
v -0.862620 0.031791 -0.072017
v -0.862934 0.033456 -0.071819
v -0.862961 0.034051 -0.073642
v -0.862775 0.033692 -0.075903
v -0.862411 0.032343 -0.077819
v -0.858388 0.030996 -0.077679
v -0.858381 0.030251 -0.075929
v -0.858606 0.030677 -0.073436
v -0.858988 0.032216 -0.071209
v -0.859360 0.034055 -0.070789
v -0.859358 0.034631 -0.072906
v -0.859142 0.034172 -0.075355
v -0.858723 0.032749 -0.077443
v -0.854289 0.030980 -0.077883
v -0.854286 0.030228 -0.075730
v -0.854621 0.030734 -0.072525
v -0.855117 0.032432 -0.069327
v -0.855497 0.034568 -0.069341
v -0.855515 0.035328 -0.071793
v -0.855255 0.034905 -0.074711
v -0.854733 0.033112 -0.077364
v -0.863998 0.031242 -0.078493
v -0.863858 0.030004 -0.077676
v -0.863986 0.029882 -0.075573
v -0.864217 0.030735 -0.073268
v -0.864546 0.032437 -0.071869
v -0.864719 0.033527 -0.073038
v -0.864671 0.033685 -0.075101
v -0.864399 0.032870 -0.077227
v -0.860432 0.031626 -0.078059
v -0.860284 0.030342 -0.077124
v -0.860394 0.030204 -0.075015
v -0.860650 0.031148 -0.072596
v -0.861038 0.032963 -0.071065
v -0.861226 0.034197 -0.072240
v -0.861138 0.034250 -0.074491
v -0.860805 0.033347 -0.076753
v -0.856382 0.031915 -0.078025
v -0.856209 0.030544 -0.076883
v -0.856341 0.030327 -0.074447
v -0.856708 0.031453 -0.071567
v -0.857180 0.033466 -0.069647
v -0.857397 0.034886 -0.071052
v -0.857286 0.034938 -0.073645
v -0.856905 0.033901 -0.076295
v -0.867131 0.029488 -0.076149
v -0.867300 0.030317 -0.073575
v -0.867032 0.029660 -0.078528
v -0.866992 0.030868 -0.079408
v -0.867350 0.032516 -0.078052
v -0.867588 0.033288 -0.075691
v -0.867673 0.032986 -0.073642
v -0.867563 0.031995 -0.072309
v -0.853930 0.035628 -0.072923
v -0.853572 0.034370 -0.076196
v -0.852523 0.035333 -0.074594
v -0.852226 0.033244 -0.077628
v -0.853163 0.031930 -0.078427
v -0.851806 0.030666 -0.078123
v -0.852950 0.030341 -0.077060
v -0.852106 0.030147 -0.075569
v -0.853156 0.030251 -0.074050
v -0.852158 0.030565 -0.072044
v -0.853480 0.031295 -0.070197
v -0.852517 0.032493 -0.068623
v -0.854129 0.033869 -0.067810
v -0.853025 0.035076 -0.067943
v -0.854259 0.035450 -0.069817
v -0.853084 0.036091 -0.070896
v -0.851695 0.035596 -0.072781
v -0.852396 0.035395 -0.069555
v -0.851880 0.034802 -0.071400
v -0.852178 0.034315 -0.069822
v -0.852141 0.033630 -0.068502
v -0.851901 0.032569 -0.070128
v -0.851836 0.031688 -0.070411
v -0.851684 0.031537 -0.072388
v -0.851596 0.030667 -0.073873
v -0.851615 0.031225 -0.074945
v -0.851425 0.030727 -0.076267
v -0.851331 0.031349 -0.076451
v -0.851105 0.031887 -0.078021
v -0.851454 0.033121 -0.076166
v -0.851575 0.034202 -0.075974
v -0.851332 0.034342 -0.074421
v -0.851778 0.033893 -0.073105
v -0.852250 0.033131 -0.071675
v -0.852076 0.032068 -0.073580
v -0.852050 0.032585 -0.074869
f 220 92 171
f 220 171 1
f 1 171 94
f 1 94 174
f 205 137 208
f 205 208 1
f 1 208 139
f 1 139 220
f 1 174 89
f 1 89 205
f 2 172 94
f 2 94 171
f 179 109 172
f 179 172 2
f 171 92 179
f 171 179 2
f 3 173 94
f 3 94 172
f 184 106 173
f 184 173 3
f 3 181 107
f 3 107 184
f 172 109 181
f 172 181 3
f 191 89 174
f 191 174 4
f 4 174 94
f 4 94 173
f 173 106 191
f 173 191 4
f 5 175 95
f 5 95 225
f 178 96 175
f 178 175 5
f 5 216 125
f 5 125 200
f 225 128 216
f 225 216 5
f 200 90 178
f 200 178 5
f 175 96 176
f 175 176 6
f 6 176 97
f 6 97 227
f 6 227 95
f 6 95 175
f 176 96 177
f 176 177 7
f 7 177 98
f 7 98 188
f 7 188 99
f 7 99 231
f 7 231 97
f 7 97 176
f 8 178 90
f 8 90 189
f 177 96 178
f 177 178 8
f 8 189 98
f 8 98 177
f 196 91 180
f 196 180 9
f 9 180 100
f 9 100 182
f 222 93 196
f 222 196 9
f 182 105 222
f 182 222 9
f 11 185 104
f 11 104 192
f 238 108 185
f 238 185 11
f 184 107 238
f 184 238 11
f 192 106 184
f 192 184 11
f 12 186 101
f 12 101 187
f 185 108 186
f 185 186 12
f 12 187 102
f 12 102 194
f 194 104 185
f 194 185 12
f 188 98 190
f 188 190 13
f 13 190 102
f 13 102 187
f 13 234 99
f 13 99 188
f 187 101 234
f 187 234 13
f 199 88 193
f 199 193 14
f 14 193 102
f 14 102 190
f 189 90 199
f 189 199 14
f 190 98 189
f 190 189 14
f 15 192 104
f 15 104 195
f 191 106 192
f 191 192 15
f 15 195 87
f 15 87 203
f 15 203 89
f 15 89 191
f 16 194 102
f 16 102 193
f 195 104 194
f 195 194 16
f 16 201 87
f 16 87 195
f 193 88 201
f 193 201 16
f 17 197 91
f 17 91 196
f 206 131 197
f 206 197 17
f 196 93 198
f 196 198 17
f 17 198 134
f 17 134 206
f 199 90 200
f 199 200 18
f 18 200 125
f 18 125 214
f 18 202 88
f 18 88 199
f 214 122 202
f 214 202 18
f 19 204 87
f 19 87 201
f 212 119 204
f 212 204 19
f 202 122 212
f 202 212 19
f 19 201 88
f 19 88 202
f 20 205 89
f 20 89 203
f 210 137 205
f 210 205 20
f 204 119 210
f 204 210 20
f 20 203 87
f 20 87 204
f 206 134 207
f 206 207 21
f 21 207 135
f 21 135 300
f 21 223 131
f 21 131 206
f 300 132 223
f 300 223 21
f 208 137 209
f 208 209 22
f 22 209 138
f 22 138 302
f 22 218 139
f 22 139 208
f 302 140 218
f 302 218 22
f 210 119 211
f 210 211 23
f 23 211 120
f 23 120 296
f 23 296 138
f 23 138 209
f 23 209 137
f 23 137 210
f 212 122 213
f 212 213 24
f 24 213 123
f 24 123 295
f 24 295 120
f 24 120 211
f 24 211 119
f 24 119 212
f 214 125 215
f 214 215 25
f 25 215 126
f 25 126 297
f 25 297 123
f 25 123 213
f 25 213 122
f 25 122 214
f 216 128 217
f 216 217 26
f 26 217 129
f 26 129 298
f 26 298 126
f 26 126 215
f 26 215 125
f 26 125 216
f 207 134 219
f 207 219 27
f 27 219 139
f 27 139 218
f 27 301 135
f 27 135 207
f 218 140 301
f 218 301 27
f 28 221 92
f 28 92 220
f 198 93 221
f 198 221 28
f 219 134 198
f 219 198 28
f 220 139 219
f 220 219 28
f 222 105 228
f 222 228 29
f 29 228 109
f 29 109 179
f 29 179 92
f 29 92 221
f 29 221 93
f 29 93 222
f 217 128 224
f 217 224 30
f 30 224 131
f 30 131 223
f 30 299 129
f 30 129 217
f 223 132 299
f 223 299 30
f 31 226 91
f 31 91 197
f 225 95 226
f 225 226 31
f 31 197 131
f 31 131 224
f 31 224 128
f 31 128 225
f 227 97 230
f 227 230 32
f 32 230 100
f 32 100 180
f 32 180 91
f 32 91 226
f 32 226 95
f 32 95 227
f 33 233 107
f 33 107 181
f 229 110 233
f 229 233 33
f 33 181 109
f 33 109 228
f 33 228 105
f 33 105 229
f 231 99 232
f 231 232 34
f 34 232 103
f 34 103 183
f 34 183 100
f 34 100 230
f 34 230 97
f 34 97 231
f 234 101 235
f 234 235 35
f 35 235 103
f 35 103 232
f 35 232 99
f 35 99 234
f 186 108 237
f 186 237 36
f 36 237 110
f 36 110 236
f 235 101 186
f 235 186 36
f 236 103 235
f 236 235 36
f 238 107 233
f 238 233 37
f 37 233 110
f 37 110 237
f 37 237 108
f 37 108 238
f 38 239 126
f 38 126 298
f 271 127 239
f 271 239 38
f 246 130 271
f 246 271 38
f 298 129 246
f 298 246 38
f 39 240 123
f 39 123 297
f 272 124 240
f 272 240 39
f 239 127 272
f 239 272 39
f 297 126 239
f 297 239 39
f 40 241 120
f 40 120 295
f 273 121 241
f 273 241 40
f 240 124 273
f 240 273 40
f 295 123 240
f 295 240 40
f 41 242 138
f 41 138 296
f 274 141 242
f 274 242 41
f 241 121 274
f 241 274 41
f 296 120 241
f 296 241 41
f 42 243 140
f 42 140 302
f 275 142 243
f 275 243 42
f 242 141 275
f 242 275 42
f 42 302 138
f 42 138 242
f 43 244 135
f 43 135 301
f 276 136 244
f 276 244 43
f 243 142 276
f 243 276 43
f 301 140 243
f 301 243 43
f 44 245 132
f 44 132 300
f 277 133 245
f 277 245 44
f 244 136 277
f 244 277 44
f 44 300 135
f 44 135 244
f 45 246 129
f 45 129 299
f 278 130 246
f 278 246 45
f 245 133 278
f 245 278 45
f 299 132 245
f 299 245 45
f 279 111 247
f 279 247 46
f 46 247 127
f 46 127 271
f 254 118 279
f 254 279 46
f 271 130 254
f 271 254 46
f 280 112 248
f 280 248 47
f 47 248 124
f 47 124 272
f 247 111 280
f 247 280 47
f 272 127 247
f 272 247 47
f 281 113 249
f 281 249 48
f 48 249 121
f 48 121 273
f 248 112 281
f 248 281 48
f 273 124 248
f 273 248 48
f 282 114 250
f 282 250 49
f 49 250 141
f 49 141 274
f 249 113 282
f 249 282 49
f 274 121 249
f 274 249 49
f 283 115 251
f 283 251 50
f 50 251 142
f 50 142 275
f 250 114 283
f 250 283 50
f 275 141 250
f 275 250 50
f 284 116 252
f 284 252 51
f 51 252 136
f 51 136 276
f 251 115 284
f 251 284 51
f 276 142 251
f 276 251 51
f 285 117 253
f 285 253 52
f 52 253 133
f 52 133 277
f 252 116 285
f 252 285 52
f 277 136 252
f 277 252 52
f 286 118 254
f 286 254 53
f 53 254 130
f 53 130 278
f 253 117 286
f 253 286 53
f 278 133 253
f 278 253 53
f 54 255 111
f 54 111 279
f 287 145 255
f 287 255 54
f 262 144 287
f 262 287 54
f 279 118 262
f 279 262 54
f 55 256 112
f 55 112 280
f 288 146 256
f 288 256 55
f 255 145 288
f 255 288 55
f 280 111 255
f 280 255 55
f 56 257 113
f 56 113 281
f 289 147 257
f 289 257 56
f 256 146 289
f 256 289 56
f 281 112 256
f 281 256 56
f 57 258 114
f 57 114 282
f 290 148 258
f 290 258 57
f 257 147 290
f 257 290 57
f 282 113 257
f 282 257 57
f 58 259 115
f 58 115 283
f 291 149 259
f 291 259 58
f 258 148 291
f 258 291 58
f 283 114 258
f 283 258 58
f 59 260 116
f 59 116 284
f 292 150 260
f 292 260 59
f 259 149 292
f 259 292 59
f 284 115 259
f 284 259 59
f 60 261 117
f 60 117 285
f 293 143 261
f 293 261 60
f 260 150 293
f 260 293 60
f 285 116 260
f 285 260 60
f 61 262 118
f 61 118 286
f 294 144 262
f 294 262 61
f 261 143 294
f 261 294 61
f 286 117 261
f 286 261 61
f 62 263 145
f 62 145 287
f 307 156 263
f 307 263 62
f 270 157 307
f 270 307 62
f 287 144 270
f 287 270 62
f 63 264 146
f 63 146 288
f 309 155 264
f 309 264 63
f 263 156 309
f 263 309 63
f 288 145 263
f 288 263 63
f 64 265 147
f 64 147 289
f 311 154 265
f 311 265 64
f 264 155 311
f 264 311 64
f 289 146 264
f 289 264 64
f 65 266 148
f 65 148 290
f 313 153 266
f 313 266 65
f 265 154 313
f 265 313 65
f 290 147 265
f 290 265 65
f 66 267 149
f 66 149 291
f 315 152 267
f 315 267 66
f 266 153 315
f 266 315 66
f 291 148 266
f 291 266 66
f 67 268 150
f 67 150 292
f 317 151 268
f 317 268 67
f 267 152 317
f 267 317 67
f 292 149 267
f 292 267 67
f 68 269 143
f 68 143 293
f 303 158 269
f 303 269 68
f 268 151 303
f 268 303 68
f 293 150 268
f 293 268 68
f 69 270 144
f 69 144 294
f 304 157 270
f 304 270 69
f 269 158 304
f 269 304 69
f 294 143 269
f 294 269 69
f 70 305 158
f 70 158 303
f 319 161 305
f 319 305 70
f 318 162 319
f 318 319 70
f 70 303 151
f 70 151 318
f 71 306 157
f 71 157 304
f 333 168 306
f 333 306 71
f 305 161 333
f 305 333 71
f 71 304 158
f 71 158 305
f 72 308 156
f 72 156 307
f 331 167 308
f 331 308 72
f 306 168 331
f 306 331 72
f 307 157 306
f 307 306 72
f 73 310 155
f 73 155 309
f 329 165 310
f 329 310 73
f 308 167 329
f 308 329 73
f 309 156 308
f 309 308 73
f 74 312 154
f 74 154 311
f 327 164 312
f 327 312 74
f 310 165 327
f 310 327 74
f 311 155 310
f 311 310 74
f 75 314 153
f 75 153 313
f 325 160 314
f 325 314 75
f 312 164 325
f 312 325 75
f 313 154 312
f 313 312 75
f 76 316 152
f 76 152 315
f 323 159 316
f 323 316 76
f 314 160 323
f 314 323 76
f 315 153 314
f 315 314 76
f 77 318 151
f 77 151 317
f 320 162 318
f 320 318 77
f 316 159 320
f 316 320 77
f 317 152 316
f 317 316 77
f 319 162 321
f 319 321 78
f 78 321 170
f 78 170 335
f 78 335 169
f 78 169 334
f 334 161 319
f 334 319 78
f 320 159 322
f 320 322 79
f 79 322 170
f 79 170 321
f 321 162 320
f 321 320 79
f 323 160 324
f 323 324 80
f 80 324 163
f 80 163 336
f 80 336 170
f 80 170 322
f 80 322 159
f 80 159 323
f 81 326 163
f 81 163 324
f 325 164 326
f 325 326 81
f 81 324 160
f 81 160 325
f 327 165 328
f 327 328 82
f 82 328 166
f 82 166 337
f 82 337 163
f 82 163 326
f 82 326 164
f 82 164 327
f 83 330 166
f 83 166 328
f 329 167 330
f 329 330 83
f 83 328 165
f 83 165 329
f 331 168 332
f 331 332 84
f 84 332 169
f 84 169 338
f 338 166 330
f 338 330 84
f 84 330 167
f 84 167 331
f 333 161 334
f 333 334 85
f 85 334 169
f 85 169 332
f 85 332 168
f 85 168 333
f 337 166 338
f 337 338 86
f 86 338 169
f 86 169 335
f 86 335 170
f 86 170 336
f 86 336 163
f 86 163 337
f 183 10 182
f 183 182 100
f 236 10 183
f 236 183 103
f 105 182 10
f 105 10 229
f 229 10 236
f 229 236 110
