# _3rd_Metacarpal_L posed
v -0.785943 -0.278882 0.402936
v -0.786148 -0.280026 0.407138
v -0.789913 -0.281266 0.407088
v -0.790098 -0.280912 0.403145
v -0.779515 -0.290541 0.408488
v -0.783910 -0.293610 0.408144
v -0.786170 -0.290924 0.411576
v -0.782559 -0.287907 0.411860
v -0.784539 -0.282628 0.410467
v -0.790743 -0.289227 0.402257
v -0.792001 -0.284114 0.401238
v -0.788101 -0.294406 0.404502
v -0.789665 -0.284617 0.412183
v -0.790677 -0.291421 0.408285
v -0.793263 -0.284090 0.405609
v -0.792710 -0.287547 0.407387
v -0.780623 -0.281516 0.407447
v -0.782188 -0.292888 0.402001
v -0.785520 -0.288082 0.399631
v -0.787088 -0.282802 0.398702
v -0.779765 -0.279005 0.399996
v -0.776008 -0.281025 0.403946
v -0.774562 -0.288113 0.404443
v -0.777528 -0.289535 0.400180
v -0.780216 -0.286573 0.397000
v -0.781148 -0.281758 0.396727
v -0.773133 -0.280919 0.393291
v -0.771442 -0.279582 0.395839
v -0.768589 -0.280814 0.399068
v -0.767907 -0.286451 0.399262
v -0.770964 -0.288111 0.395624
v -0.773313 -0.285251 0.392756
v -0.763831 -0.280216 0.386774
v -0.761792 -0.279307 0.389420
v -0.759435 -0.280569 0.392102
v -0.759469 -0.285010 0.391798
v -0.761862 -0.286822 0.388873
v -0.763996 -0.284520 0.386250
v -0.755429 -0.279485 0.378747
v -0.752698 -0.278527 0.382064
v -0.750531 -0.280646 0.384566
v -0.750749 -0.284883 0.384149
v -0.752983 -0.286380 0.381335
v -0.754941 -0.284223 0.378941
v -0.749308 -0.279387 0.371315
v -0.745826 -0.276630 0.374896
v -0.742363 -0.279531 0.379045
v -0.742573 -0.286338 0.378250
v -0.745837 -0.287199 0.374502
v -0.748391 -0.284517 0.371986
v -0.742510 -0.283664 0.365959
v -0.740943 -0.287825 0.369000
v -0.742038 -0.276334 0.364037
v -0.735092 -0.286839 0.372812
v -0.739698 -0.273385 0.368824
v -0.734735 -0.278501 0.371170
v -0.787668 -0.280870 0.410521
v -0.790761 -0.288870 0.410718
v -0.792630 -0.283857 0.408835
v -0.785693 -0.286152 0.412394
v -0.791609 -0.291029 0.405424
v -0.793168 -0.286553 0.403946
v -0.792246 -0.282115 0.404147
v -0.787799 -0.293718 0.408648
v -0.787872 -0.280626 0.405075
v -0.783657 -0.279291 0.407714
v -0.781685 -0.285254 0.409740
v -0.783283 -0.290403 0.409525
v -0.782826 -0.294593 0.405631
v -0.786964 -0.291743 0.401304
v -0.789603 -0.286601 0.399083
v -0.788965 -0.281360 0.400934
v -0.758241 -0.278851 0.384330
v -0.755899 -0.279284 0.387090
v -0.754810 -0.282904 0.388281
v -0.756049 -0.286184 0.386689
v -0.758333 -0.285583 0.383825
v -0.759998 -0.282107 0.381928
v -0.777118 -0.284619 0.407097
v -0.771508 -0.283805 0.402660
v -0.763432 -0.283117 0.396373
v -0.778375 -0.291256 0.403895
v -0.772946 -0.288625 0.400207
v -0.764977 -0.287375 0.394237
v -0.781571 -0.289364 0.399878
v -0.776031 -0.287507 0.396586
v -0.767876 -0.286576 0.390808
v -0.783969 -0.285043 0.397095
v -0.768991 -0.282490 0.389563
v -0.777592 -0.283560 0.394570
v -0.780349 -0.278742 0.404222
v -0.774295 -0.279339 0.400075
v -0.783771 -0.280717 0.399867
v -0.776828 -0.279926 0.396780
v -0.767636 -0.279583 0.391543
v -0.765376 -0.279480 0.394310
v -0.750205 -0.285753 0.376429
v -0.751769 -0.282033 0.374819
v -0.747791 -0.286872 0.379546
v -0.750619 -0.277585 0.376634
v -0.747375 -0.278494 0.380285
v -0.746123 -0.282961 0.381521
v -0.739987 -0.275629 0.373937
v -0.740570 -0.288372 0.373293
v -0.744862 -0.286557 0.370111
v -0.737541 -0.282751 0.377723
v -0.747546 -0.282228 0.367458
v -0.740026 -0.281940 0.366592
v -0.744985 -0.275924 0.368857
v -0.735575 -0.277608 0.365886
v -0.736834 -0.283074 0.369773
v -0.785540 -0.278800 0.405470
v -0.787711 -0.280941 0.407692
v -0.790698 -0.281087 0.404823
v -0.788247 -0.280364 0.402247
v -0.781737 -0.292845 0.407294
v -0.785550 -0.292681 0.409750
v -0.784494 -0.288851 0.412457
v -0.780528 -0.288516 0.410609
v -0.785315 -0.280284 0.409217
v -0.783601 -0.285294 0.411292
v -0.785542 -0.294855 0.406904
v -0.791965 -0.286902 0.401243
v -0.791108 -0.281820 0.402058
v -0.789886 -0.292013 0.402864
v -0.790621 -0.281799 0.410512
v -0.786812 -0.283377 0.411877
v -0.788239 -0.287708 0.412593
v -0.789355 -0.291609 0.410193
v -0.790063 -0.292957 0.406741
v -0.792627 -0.282494 0.406545
v -0.793145 -0.284235 0.403682
v -0.791764 -0.289664 0.407947
v -0.791921 -0.286234 0.410201
v -0.793244 -0.285572 0.406494
v -0.792504 -0.288747 0.404625
v -0.782749 -0.282241 0.408754
v -0.779350 -0.285065 0.408722
v -0.782242 -0.278634 0.406065
v -0.785047 -0.294407 0.402726
v -0.784059 -0.290501 0.400955
v -0.788130 -0.288712 0.400925
v -0.786852 -0.285860 0.397850
v -0.789747 -0.283530 0.399535
v -0.780343 -0.293109 0.404945
v -0.786485 -0.280923 0.400544
v -0.782827 -0.279124 0.401545
v -0.778528 -0.281141 0.405795
v -0.777738 -0.278921 0.402358
v -0.774676 -0.284152 0.405066
v -0.776984 -0.289262 0.406425
v -0.775952 -0.289655 0.402297
v -0.779968 -0.291002 0.401406
v -0.779030 -0.288405 0.398430
v -0.782847 -0.287229 0.398596
v -0.781078 -0.284371 0.395885
v -0.784280 -0.282212 0.397882
v -0.780696 -0.280199 0.398477
v -0.772375 -0.279847 0.394533
v -0.770067 -0.279598 0.397458
v -0.767721 -0.283510 0.399812
v -0.769336 -0.288067 0.397511
v -0.772364 -0.287069 0.393945
v -0.773581 -0.282909 0.392490
v -0.762796 -0.279333 0.388146
v -0.760636 -0.279461 0.390717
v -0.759095 -0.282903 0.392402
v -0.760471 -0.286577 0.390541
v -0.763068 -0.286013 0.387387
v -0.764351 -0.282268 0.385934
v -0.754097 -0.278274 0.380417
v -0.751477 -0.279110 0.383514
v -0.750401 -0.282931 0.384606
v -0.751743 -0.286359 0.382965
v -0.753999 -0.285575 0.380039
v -0.755658 -0.282026 0.378253
v -0.748053 -0.276888 0.372728
v -0.743877 -0.277601 0.377165
v -0.741776 -0.283129 0.379472
v -0.744293 -0.287536 0.376225
v -0.747176 -0.286237 0.373077
v -0.749191 -0.282159 0.371198
v -0.768527 -0.280554 0.390310
v -0.766643 -0.279442 0.392843
v -0.764015 -0.280637 0.395838
v -0.763721 -0.285732 0.395806
v -0.766548 -0.287556 0.392388
v -0.768746 -0.284777 0.389743
v -0.759443 -0.279810 0.382776
v -0.757080 -0.278931 0.385730
v -0.754903 -0.280674 0.388228
v -0.755154 -0.284700 0.387800
v -0.757298 -0.286293 0.385164
v -0.759338 -0.284345 0.382605
v -0.751840 -0.279420 0.375019
v -0.748887 -0.277750 0.378540
v -0.746293 -0.280275 0.381473
v -0.746561 -0.285342 0.380970
v -0.749151 -0.286710 0.377778
v -0.751117 -0.284203 0.375427
v -0.772653 -0.280969 0.401707
v -0.771497 -0.287087 0.402113
v -0.774604 -0.288620 0.398264
v -0.777076 -0.285801 0.395241
v -0.777404 -0.281317 0.395376
v -0.775907 -0.279263 0.398213
v -0.746291 -0.284855 0.368757
v -0.742926 -0.287813 0.371486
v -0.743146 -0.286469 0.368097
v -0.744528 -0.281150 0.364941
v -0.747312 -0.278397 0.367213
v -0.737300 -0.288325 0.370873
v -0.738399 -0.287346 0.375895
v -0.742934 -0.275033 0.371404
v -0.739680 -0.273845 0.365873
v -0.739006 -0.278808 0.376510
v -0.734838 -0.276274 0.370067
v -0.734124 -0.281433 0.372414
v -0.739136 -0.284040 0.367900
v -0.738049 -0.278520 0.364495
v -0.788148 -0.280283 0.403079
v -0.786733 -0.279347 0.403594
v -0.786147 -0.279528 0.405262
v -0.786299 -0.280216 0.406908
v -0.787677 -0.281026 0.407071
v -0.789218 -0.281349 0.406648
v -0.789818 -0.281019 0.404986
v -0.789661 -0.280769 0.403546
v -0.781553 -0.289525 0.410114
v -0.781129 -0.290543 0.408649
v -0.782271 -0.291734 0.407980
v -0.783710 -0.292505 0.408461
v -0.784653 -0.291586 0.409529
v -0.784964 -0.290727 0.410682
v -0.783964 -0.289681 0.411254
v -0.782516 -0.289083 0.411386
v -0.736645 -0.273481 0.369131
v -0.735711 -0.278235 0.374115
v -0.734396 -0.281536 0.374817
v -0.739748 -0.286274 0.367681
v -0.739213 -0.276668 0.363553
v -0.736306 -0.274022 0.365044
v -0.737216 -0.280481 0.368100
v -0.736221 -0.276292 0.372999
v -0.736271 -0.286493 0.369946
v -0.734674 -0.285443 0.371405
v -0.786382 -0.280625 0.409926
v -0.787282 -0.281958 0.411473
v -0.785607 -0.282946 0.411263
v -0.784878 -0.281305 0.410009
v -0.785988 -0.281622 0.410806
v -0.786280 -0.284768 0.412152
v -0.784620 -0.285614 0.411930
v -0.784130 -0.283976 0.410865
v -0.785150 -0.284291 0.411608
v -0.783647 -0.282445 0.409580
v -0.783071 -0.280644 0.408400
v -0.784431 -0.279811 0.408487
v -0.783941 -0.280976 0.409210
v -0.782651 -0.285226 0.410512
v -0.782335 -0.283742 0.409157
v -0.783264 -0.283861 0.409964
v -0.792883 -0.287654 0.404266
v -0.792758 -0.286822 0.402557
v -0.791301 -0.288055 0.401803
v -0.791892 -0.289169 0.403297
v -0.792343 -0.288004 0.402915
v -0.790851 -0.286803 0.400095
v -0.788797 -0.287651 0.400106
v -0.789370 -0.288992 0.401547
v -0.789998 -0.287858 0.400973
v -0.790353 -0.290575 0.402524
v -0.790981 -0.291663 0.404098
v -0.792107 -0.289890 0.404989
v -0.791480 -0.290403 0.403652
v -0.787574 -0.290102 0.401252
v -0.788472 -0.292034 0.401881
v -0.788954 -0.290430 0.401724
v -0.793259 -0.285408 0.403729
v -0.792727 -0.284229 0.402433
v -0.792216 -0.285529 0.401048
v -0.792888 -0.285541 0.402388
v -0.792828 -0.283083 0.403841
v -0.791811 -0.281983 0.403018
v -0.791621 -0.282819 0.401576
v -0.792377 -0.282975 0.402644
v -0.790989 -0.283864 0.400242
v -0.789944 -0.285063 0.398944
v -0.791206 -0.285361 0.399861
v -0.790126 -0.281600 0.401362
v -0.789384 -0.282300 0.400216
v -0.790598 -0.282575 0.400759
v -0.789275 -0.293804 0.405645
v -0.790931 -0.292078 0.405993
v -0.789158 -0.293379 0.403500
v -0.790260 -0.292845 0.404752
v -0.786767 -0.294463 0.407763
v -0.789021 -0.293573 0.407686
v -0.786811 -0.294918 0.405753
v -0.788055 -0.294391 0.406725
v -0.786623 -0.294613 0.403489
v -0.783874 -0.294856 0.404187
v -0.784196 -0.294876 0.406174
v -0.785368 -0.295056 0.404885
v -0.786116 -0.293278 0.401735
v -0.787707 -0.293543 0.402430
v -0.791374 -0.287526 0.410562
v -0.789660 -0.288396 0.411940
v -0.788997 -0.286140 0.412498
v -0.791005 -0.285437 0.411462
v -0.790377 -0.286889 0.411829
v -0.786872 -0.286887 0.412629
v -0.788164 -0.283932 0.412187
v -0.787548 -0.285397 0.412448
v -0.791867 -0.282756 0.409853
v -0.792369 -0.284975 0.409652
v -0.790261 -0.283093 0.411584
v -0.791546 -0.284005 0.410846
v -0.789128 -0.281212 0.410726
v -0.788741 -0.282429 0.411738
v -0.790093 -0.290279 0.410622
v -0.791430 -0.289231 0.409306
v -0.791178 -0.290671 0.408139
v -0.790223 -0.291520 0.409085
v -0.790813 -0.290397 0.409310
v -0.791844 -0.290306 0.406695
v -0.790509 -0.292090 0.407658
v -0.791230 -0.291294 0.407100
v -0.788617 -0.292744 0.409483
v -0.789690 -0.292580 0.408510
v -0.793041 -0.284812 0.407689
v -0.792708 -0.283012 0.407757
v -0.793076 -0.283421 0.406024
v -0.793309 -0.284701 0.405991
v -0.793097 -0.283981 0.406909
v -0.792483 -0.282247 0.405335
v -0.793291 -0.284162 0.404806
v -0.793013 -0.283187 0.404996
v -0.793289 -0.286137 0.405261
v -0.793384 -0.285143 0.404940
v -0.793039 -0.286531 0.406976
v -0.792497 -0.286932 0.408815
v -0.792856 -0.285822 0.408334
v -0.792711 -0.288157 0.406004
v -0.793045 -0.287135 0.405634
v -0.792283 -0.288603 0.407705
v -0.792319 -0.289228 0.406346
v -0.792010 -0.288074 0.409141
v -0.780514 -0.285188 0.409271
v -0.779980 -0.283146 0.408069
v -0.781681 -0.281857 0.408139
v -0.781139 -0.283438 0.408670
v -0.778251 -0.284867 0.407953
v -0.777788 -0.282727 0.406487
v -0.779610 -0.281303 0.406623
v -0.778906 -0.282926 0.407296
v -0.781307 -0.280019 0.406812
v -0.782959 -0.278858 0.406924
v -0.782202 -0.280300 0.407611
v -0.779340 -0.279753 0.405112
v -0.781381 -0.278646 0.405139
v -0.780370 -0.279848 0.405970
v -0.785476 -0.291176 0.401114
v -0.783169 -0.291841 0.401355
v -0.783531 -0.293815 0.402232
v -0.784579 -0.292667 0.401438
v -0.782782 -0.289902 0.400524
v -0.780792 -0.290328 0.400515
v -0.781050 -0.291925 0.401755
v -0.781947 -0.291060 0.401021
v -0.781198 -0.293305 0.403342
v -0.781514 -0.293977 0.405270
v -0.782440 -0.294260 0.403680
v -0.779143 -0.291367 0.402583
v -0.779345 -0.292184 0.404495
v -0.780155 -0.292320 0.403011
v -0.788277 -0.286297 0.398290
v -0.786225 -0.287038 0.398677
v -0.786873 -0.288426 0.400233
v -0.787580 -0.287374 0.399293
v -0.785395 -0.285408 0.397552
v -0.783446 -0.286236 0.397749
v -0.784162 -0.287643 0.399162
v -0.784819 -0.286620 0.398267
v -0.782237 -0.288269 0.399309
v -0.784819 -0.289218 0.400404
v -0.783501 -0.288716 0.399948
v -0.786202 -0.289697 0.400814
v -0.787750 -0.281111 0.400708
v -0.786775 -0.281812 0.399664
v -0.788428 -0.283164 0.399075
v -0.788098 -0.282034 0.399892
v -0.785149 -0.280854 0.400311
v -0.784064 -0.281392 0.398908
v -0.785714 -0.282486 0.398325
v -0.785437 -0.281624 0.399377
v -0.784290 -0.283525 0.397095
v -0.787185 -0.284254 0.397864
v -0.785746 -0.283857 0.397511
v -0.788593 -0.284680 0.398292
v -0.781675 -0.278462 0.402860
v -0.779140 -0.278800 0.403325
v -0.778831 -0.278661 0.401125
v -0.781366 -0.279055 0.400791
v -0.780335 -0.278549 0.402013
v -0.776120 -0.279114 0.401270
v -0.775182 -0.279157 0.399079
v -0.777935 -0.279109 0.399159
v -0.777110 -0.278895 0.400153
v -0.782317 -0.280448 0.399216
v -0.783424 -0.279975 0.400682
v -0.780327 -0.279567 0.399222
v -0.781951 -0.279760 0.399988
v -0.776419 -0.279525 0.397502
v -0.778854 -0.280037 0.397683
v -0.778469 -0.279513 0.398418
v -0.775946 -0.284375 0.406144
v -0.775282 -0.282477 0.404586
v -0.777346 -0.281049 0.404921
v -0.776598 -0.282577 0.405596
v -0.773200 -0.283963 0.403891
v -0.771999 -0.282296 0.402294
v -0.774437 -0.281008 0.402871
v -0.773748 -0.282393 0.403476
v -0.776809 -0.279774 0.403254
v -0.778168 -0.279725 0.404226
v -0.773424 -0.279936 0.400973
v -0.775220 -0.279851 0.402166
v -0.777635 -0.290612 0.405195
v -0.777237 -0.290412 0.403157
v -0.775170 -0.289208 0.403419
v -0.775819 -0.288696 0.405460
v -0.776465 -0.289894 0.404344
v -0.774512 -0.289065 0.401320
v -0.772115 -0.288126 0.401227
v -0.773122 -0.287531 0.403322
v -0.773713 -0.288593 0.402386
v -0.774361 -0.286226 0.405082
v -0.776760 -0.287023 0.407178
v -0.775594 -0.286636 0.406179
v -0.771294 -0.285512 0.402630
v -0.772932 -0.285820 0.403886
v -0.780333 -0.288862 0.399206
v -0.778307 -0.289112 0.399226
v -0.778805 -0.290177 0.400896
v -0.779589 -0.289654 0.399954
v -0.777611 -0.287946 0.397563
v -0.775367 -0.288198 0.397362
v -0.776137 -0.289034 0.399300
v -0.776914 -0.288636 0.398361
v -0.776743 -0.289717 0.401222
v -0.778016 -0.290465 0.401990
v -0.773788 -0.288756 0.399223
v -0.775331 -0.289167 0.400299
v -0.782556 -0.284708 0.396533
v -0.780709 -0.285565 0.396311
v -0.781560 -0.286899 0.397840
v -0.782104 -0.285896 0.397079
v -0.779433 -0.283980 0.395230
v -0.777419 -0.284746 0.394752
v -0.778747 -0.286221 0.396118
v -0.779169 -0.285190 0.395517
v -0.779658 -0.287521 0.397717
v -0.780979 -0.287895 0.398548
v -0.776599 -0.286704 0.395884
v -0.778218 -0.287122 0.396830
v -0.780962 -0.280895 0.397614
v -0.782773 -0.281976 0.397332
v -0.782591 -0.281132 0.398293
v -0.777157 -0.280518 0.396051
v -0.779357 -0.281534 0.396099
v -0.779144 -0.280694 0.396888
v -0.781230 -0.282976 0.396021
v -0.782801 -0.283247 0.396596
v -0.777573 -0.282351 0.394815
v -0.779489 -0.282665 0.395446
v -0.774664 -0.279854 0.395729
v -0.772786 -0.280243 0.393873
v -0.775319 -0.281115 0.394457
v -0.775027 -0.280371 0.395058
v -0.770028 -0.279741 0.393111
v -0.768115 -0.279921 0.390889
v -0.770861 -0.280731 0.391887
v -0.770476 -0.280090 0.392460
v -0.768837 -0.281430 0.389842
v -0.771326 -0.282671 0.391133
v -0.773418 -0.281818 0.392800
v -0.771163 -0.281608 0.391418
v -0.775656 -0.283205 0.393648
v -0.775547 -0.282069 0.393946
v -0.772264 -0.279516 0.398816
v -0.770824 -0.279530 0.396579
v -0.773732 -0.279418 0.397107
v -0.773073 -0.279377 0.397896
v -0.767753 -0.279566 0.395949
v -0.766059 -0.279415 0.393529
v -0.769066 -0.279573 0.394404
v -0.768471 -0.279521 0.395116
v -0.767150 -0.279478 0.392199
v -0.771932 -0.279674 0.395193
v -0.769562 -0.279629 0.393764
v -0.774234 -0.279567 0.396422
v -0.769663 -0.283665 0.401332
v -0.768052 -0.282055 0.399577
v -0.770700 -0.280902 0.400450
v -0.770092 -0.282180 0.401013
v -0.765646 -0.283312 0.398126
v -0.763605 -0.281793 0.396257
v -0.766342 -0.280729 0.397516
v -0.765884 -0.281925 0.397963
v -0.764645 -0.279842 0.395140
v -0.769280 -0.279978 0.398342
v -0.766994 -0.279920 0.396812
v -0.771436 -0.279986 0.399710
v -0.771242 -0.288319 0.398934
v -0.768523 -0.287493 0.398468
v -0.769765 -0.286769 0.400769
v -0.770404 -0.287797 0.399920
v -0.767216 -0.287754 0.395941
v -0.764257 -0.286721 0.395111
v -0.765873 -0.286093 0.397599
v -0.766447 -0.287126 0.396861
v -0.763464 -0.284473 0.396219
v -0.767658 -0.285031 0.399710
v -0.765631 -0.284746 0.398007
v -0.769525 -0.285277 0.401262
v -0.774282 -0.287215 0.395388
v -0.771712 -0.287713 0.394734
v -0.772887 -0.288331 0.397039
v -0.773638 -0.287904 0.396153
v -0.770196 -0.286834 0.392427
v -0.767264 -0.287192 0.391542
v -0.768827 -0.287848 0.394062
v -0.769562 -0.287467 0.393191
v -0.765764 -0.287647 0.393305
v -0.770161 -0.288248 0.396557
v -0.768030 -0.287970 0.394990
v -0.772079 -0.288474 0.397975
v -0.773554 -0.284104 0.392465
v -0.768962 -0.283645 0.389523
v -0.771084 -0.284986 0.391333
v -0.771301 -0.283839 0.391099
v -0.775280 -0.285490 0.394104
v -0.775575 -0.284400 0.393700
v -0.768367 -0.285755 0.390206
v -0.772896 -0.286232 0.393287
v -0.770700 -0.285986 0.391807
v -0.774826 -0.286402 0.394713
v -0.763348 -0.279589 0.387428
v -0.760463 -0.279144 0.386285
v -0.758872 -0.279131 0.383531
v -0.761583 -0.280023 0.384820
v -0.761054 -0.279387 0.385529
v -0.765208 -0.279463 0.389892
v -0.766168 -0.280383 0.388596
v -0.765726 -0.279751 0.389203
v -0.759867 -0.280847 0.382178
v -0.762147 -0.282182 0.383943
v -0.764179 -0.281148 0.386251
v -0.761974 -0.280998 0.384251
v -0.766638 -0.282364 0.387825
v -0.766484 -0.281285 0.388115
v -0.761250 -0.279346 0.390033
v -0.758253 -0.279392 0.388894
v -0.756514 -0.279061 0.386384
v -0.759409 -0.279165 0.387588
v -0.758863 -0.279238 0.388207
v -0.763006 -0.279466 0.392544
v -0.764210 -0.279381 0.391179
v -0.763650 -0.279382 0.391822
v -0.757639 -0.278843 0.385065
v -0.762284 -0.279291 0.388811
v -0.759920 -0.279123 0.386969
v -0.764709 -0.279393 0.390554
v -0.759145 -0.281720 0.392406
v -0.756959 -0.282887 0.390320
v -0.754777 -0.281851 0.388350
v -0.757150 -0.280609 0.390167
v -0.756953 -0.281778 0.390371
v -0.761214 -0.282979 0.394487
v -0.761707 -0.280571 0.394025
v -0.761335 -0.281713 0.394418
v -0.755299 -0.279755 0.387782
v -0.759985 -0.279798 0.391469
v -0.757627 -0.279777 0.389618
v -0.762314 -0.279807 0.393336
v -0.759885 -0.285900 0.391260
v -0.758252 -0.286306 0.388616
v -0.755512 -0.285549 0.387346
v -0.757329 -0.284787 0.389769
v -0.757703 -0.285647 0.389288
v -0.762715 -0.286957 0.392428
v -0.761566 -0.285376 0.393870
v -0.762056 -0.286305 0.393235
v -0.754938 -0.283815 0.388093
v -0.759211 -0.283998 0.392180
v -0.757093 -0.283864 0.390104
v -0.761292 -0.284231 0.394291
v -0.762504 -0.286509 0.388087
v -0.760678 -0.285771 0.385627
v -0.757839 -0.285999 0.384466
v -0.759561 -0.286506 0.387043
v -0.760150 -0.286215 0.386303
v -0.765477 -0.286288 0.389125
v -0.764204 -0.287188 0.390657
v -0.764888 -0.286849 0.389840
v -0.756681 -0.286398 0.385923
v -0.761161 -0.286877 0.389713
v -0.758906 -0.286572 0.387834
v -0.763457 -0.287249 0.391542
v -0.764289 -0.283448 0.385931
v -0.759782 -0.283341 0.382115
v -0.761654 -0.284431 0.384431
v -0.762025 -0.283394 0.384018
v -0.766361 -0.284627 0.388039
v -0.766597 -0.283521 0.387794
v -0.758832 -0.285062 0.383203
v -0.763565 -0.285361 0.386770
v -0.761179 -0.285199 0.385001
v -0.765969 -0.285548 0.388517
v -0.756120 -0.278542 0.382351
v -0.754830 -0.278648 0.379522
v -0.757417 -0.279600 0.380709
v -0.756809 -0.278858 0.381498
v -0.752228 -0.277987 0.378538
v -0.751423 -0.278220 0.375664
v -0.753542 -0.279432 0.376858
v -0.753007 -0.278439 0.377589
v -0.751894 -0.280768 0.374787
v -0.753602 -0.282023 0.376538
v -0.755722 -0.280703 0.378296
v -0.753712 -0.280727 0.376529
v -0.757823 -0.282050 0.380029
v -0.757810 -0.280729 0.380150
v -0.753642 -0.279215 0.385281
v -0.752099 -0.278776 0.382779
v -0.754832 -0.278719 0.383883
v -0.754252 -0.278924 0.384566
v -0.749379 -0.278875 0.381853
v -0.748134 -0.278075 0.379401
v -0.750705 -0.278238 0.380298
v -0.750053 -0.278509 0.381066
v -0.749714 -0.277513 0.377632
v -0.753352 -0.278320 0.381293
v -0.751417 -0.278012 0.379474
v -0.755443 -0.278563 0.383161
v -0.752622 -0.282922 0.386356
v -0.750391 -0.281827 0.384670
v -0.752705 -0.280701 0.386337
v -0.752593 -0.281874 0.386427
v -0.748235 -0.282931 0.382989
v -0.746135 -0.281622 0.381577
v -0.748392 -0.280508 0.382936
v -0.748238 -0.281737 0.383045
v -0.746703 -0.279187 0.381052
v -0.750899 -0.279687 0.384178
v -0.748773 -0.279508 0.382542
v -0.753065 -0.279749 0.385947
v -0.753877 -0.286183 0.384787
v -0.751159 -0.285766 0.383669
v -0.752956 -0.284737 0.385909
v -0.753327 -0.285588 0.385457
v -0.749702 -0.286582 0.381225
v -0.747099 -0.286316 0.380365
v -0.748613 -0.285068 0.382510
v -0.749077 -0.285990 0.381977
v -0.746245 -0.284189 0.381341
v -0.750518 -0.283918 0.384437
v -0.748351 -0.284018 0.382823
v -0.752742 -0.283837 0.386185
v -0.756083 -0.285498 0.381962
v -0.753517 -0.286041 0.380642
v -0.755089 -0.286233 0.383246
v -0.755608 -0.285923 0.382570
v -0.752024 -0.285641 0.378195
v -0.749709 -0.286308 0.377047
v -0.750997 -0.286541 0.379509
v -0.751543 -0.286163 0.378796
v -0.748503 -0.286940 0.378637
v -0.752379 -0.286529 0.382140
v -0.750370 -0.286719 0.380353
v -0.754497 -0.286360 0.384008
v -0.755360 -0.283225 0.378508
v -0.757064 -0.284257 0.380791
v -0.757524 -0.283274 0.380298
v -0.751503 -0.283186 0.375046
v -0.752935 -0.284194 0.377159
v -0.753326 -0.283191 0.376767
v -0.750673 -0.285054 0.375895
v -0.754472 -0.284987 0.379473
v -0.752485 -0.284997 0.377653
v -0.756564 -0.284967 0.381371
v -0.749284 -0.277182 0.374680
v -0.748925 -0.277909 0.371843
v -0.750420 -0.279423 0.373184
v -0.750090 -0.278049 0.373748
v -0.746764 -0.276567 0.370786
v -0.746170 -0.276886 0.367933
v -0.748472 -0.279130 0.369375
v -0.747840 -0.277582 0.369922
v -0.747765 -0.280337 0.367063
v -0.748404 -0.282253 0.369341
v -0.749337 -0.280819 0.371133
v -0.748611 -0.280729 0.369194
v -0.750276 -0.282066 0.373044
v -0.750421 -0.280797 0.372994
v -0.745538 -0.278078 0.378732
v -0.744818 -0.277045 0.376013
v -0.747273 -0.277220 0.376727
v -0.746395 -0.277612 0.377709
v -0.744434 -0.275935 0.373090
v -0.744000 -0.275363 0.370019
v -0.746948 -0.276512 0.373783
v -0.745611 -0.276079 0.371845
v -0.748261 -0.276981 0.375721
v -0.743966 -0.283052 0.380344
v -0.741966 -0.281232 0.379393
v -0.744251 -0.279935 0.380204
v -0.744024 -0.281464 0.380372
v -0.743024 -0.278360 0.378252
v -0.744764 -0.278789 0.379649
v -0.746026 -0.287180 0.377867
v -0.743409 -0.287257 0.377256
v -0.744538 -0.285815 0.379576
v -0.745230 -0.286770 0.378795
v -0.742478 -0.287990 0.374718
v -0.739485 -0.288209 0.374428
v -0.740551 -0.286891 0.377053
v -0.741514 -0.287755 0.375808
v -0.737580 -0.285348 0.377269
v -0.739622 -0.283079 0.378704
v -0.741964 -0.284918 0.379095
v -0.739796 -0.285266 0.378226
v -0.744108 -0.284519 0.380105
v -0.748569 -0.285947 0.374735
v -0.746517 -0.286809 0.373759
v -0.747437 -0.286903 0.376122
v -0.748021 -0.286508 0.375386
v -0.745979 -0.286492 0.371505
v -0.743963 -0.287225 0.370773
v -0.744331 -0.287590 0.372936
v -0.745182 -0.287124 0.372181
v -0.741740 -0.288245 0.372348
v -0.745099 -0.287454 0.375315
v -0.743418 -0.287906 0.373784
v -0.746772 -0.287146 0.376952
v -0.748875 -0.283412 0.371509
v -0.749603 -0.284313 0.373690
v -0.750007 -0.283249 0.373290
v -0.746975 -0.283711 0.368073
v -0.747373 -0.284743 0.370367
v -0.747959 -0.283606 0.369787
v -0.745610 -0.285781 0.369446
v -0.747805 -0.285458 0.372504
v -0.746707 -0.285694 0.370927
v -0.749105 -0.285214 0.374175
v -0.784298 -0.278877 0.402228
v -0.786268 -0.279966 0.401495
v -0.784888 -0.279916 0.401174
v -0.783879 -0.278043 0.404656
v -0.782901 -0.278175 0.403734
v -0.788540 -0.280725 0.401678
v -0.787251 -0.279835 0.402334
v -0.787445 -0.280349 0.401580
v -0.784685 -0.278641 0.406508
v -0.785605 -0.278478 0.404455
v -0.784330 -0.278168 0.405632
v -0.737824 -0.279762 0.365970
v -0.786441 -0.279279 0.404276
v -0.738747 -0.282475 0.368239
v -0.738747 -0.281241 0.367273
v -0.785862 -0.279949 0.407985
v -0.785717 -0.279448 0.406389
v -0.785197 -0.279338 0.407296
v -0.786109 -0.279941 0.406294
v -0.735243 -0.278367 0.368529
v -0.736439 -0.279215 0.366924
v -0.786841 -0.280515 0.407562
v -0.787750 -0.280791 0.408788
v -0.786719 -0.280416 0.408498
v -0.786825 -0.280596 0.407098
v -0.735083 -0.277138 0.372296
v -0.734790 -0.277508 0.370598
v -0.790381 -0.281258 0.408765
v -0.788678 -0.281202 0.407591
v -0.788935 -0.281039 0.408849
v -0.791598 -0.281592 0.406948
v -0.791829 -0.281940 0.408440
v -0.788584 -0.281295 0.406923
v -0.734444 -0.279366 0.373300
v -0.734825 -0.278128 0.372806
v -0.787722 -0.280918 0.406213
v -0.786843 -0.280134 0.405198
v -0.786755 -0.280471 0.406300
v -0.790486 -0.281197 0.405872
v -0.791451 -0.281417 0.404519
v -0.791548 -0.281467 0.405665
v -0.788962 -0.280904 0.405009
v -0.789550 -0.281259 0.405985
v -0.788745 -0.281183 0.406093
v -0.735447 -0.280571 0.370279
v -0.735596 -0.279470 0.369380
v -0.790544 -0.281215 0.402653
v -0.790575 -0.281016 0.403907
v -0.791144 -0.281342 0.403499
v -0.789253 -0.280711 0.402550
v -0.789622 -0.281011 0.402032
v -0.737302 -0.281651 0.369132
v -0.787274 -0.279779 0.403276
v -0.734462 -0.279645 0.371879
v -0.789839 -0.280852 0.404115
v -0.788047 -0.280388 0.403966
v -0.789066 -0.280622 0.403245
v -0.789058 -0.280694 0.404010
v -0.787097 -0.279867 0.404128
v -0.735593 -0.286933 0.370892
v -0.733963 -0.283925 0.372870
v -0.734775 -0.285997 0.371629
v -0.778082 -0.289892 0.407467
v -0.779781 -0.292208 0.406553
v -0.778659 -0.291427 0.406012
v -0.778914 -0.287571 0.409164
v -0.777884 -0.287391 0.408172
v -0.780801 -0.286958 0.410501
v -0.779885 -0.289218 0.409852
v -0.779812 -0.287296 0.409953
v -0.780785 -0.291973 0.407518
v -0.782068 -0.293794 0.406675
v -0.780926 -0.293066 0.406600
v -0.733989 -0.281263 0.373518
v -0.781582 -0.291045 0.408206
v -0.734880 -0.284365 0.371027
v -0.734108 -0.283877 0.372070
v -0.784526 -0.294335 0.407699
v -0.782817 -0.293422 0.407543
v -0.783302 -0.294229 0.407043
v -0.783104 -0.292250 0.408150
v -0.735015 -0.282176 0.370993
v -0.735204 -0.286054 0.370747
v -0.784844 -0.293305 0.408940
v -0.786542 -0.293362 0.409430
v -0.785628 -0.294027 0.408548
v -0.784205 -0.292132 0.408910
v -0.735498 -0.285030 0.375944
v -0.734236 -0.284420 0.374215
v -0.787937 -0.291462 0.411141
v -0.785976 -0.291976 0.410551
v -0.787245 -0.292530 0.410294
v -0.787308 -0.289384 0.412386
v -0.788821 -0.289991 0.411730
v -0.784906 -0.291092 0.410182
v -0.737454 -0.288564 0.373114
v -0.736313 -0.287479 0.374547
v -0.784060 -0.291001 0.409455
v -0.782798 -0.291052 0.408625
v -0.783599 -0.291612 0.408697
v -0.785320 -0.289733 0.412208
v -0.785048 -0.287614 0.412640
v -0.786084 -0.288486 0.412687
v -0.783677 -0.289952 0.410432
v -0.784612 -0.290240 0.410954
v -0.784380 -0.290533 0.410255
v -0.736146 -0.287892 0.371705
v -0.737845 -0.285196 0.368717
v -0.782997 -0.286657 0.411705
v -0.783569 -0.288207 0.412305
v -0.784040 -0.286976 0.412261
v -0.781489 -0.288045 0.411262
v -0.781892 -0.286694 0.411094
v -0.736355 -0.284925 0.369881
v -0.781256 -0.290033 0.409260
v -0.738235 -0.283685 0.368735
v -0.783154 -0.289299 0.411409
v -0.782418 -0.289866 0.409749
v -0.782042 -0.289211 0.410881
v -0.782830 -0.289515 0.410631
v -0.782014 -0.290442 0.408854
v -0.738282 -0.287649 0.369229
v -0.736571 -0.287451 0.370249
v -0.737880 -0.286621 0.368826
v -0.740664 -0.279133 0.377834
v -0.738317 -0.280568 0.377097
v -0.740064 -0.280930 0.378390
v -0.741198 -0.274023 0.369930
v -0.739563 -0.273436 0.367513
v -0.742348 -0.274715 0.367094
v -0.741843 -0.274261 0.368513
v -0.740582 -0.274770 0.364694
v -0.744873 -0.277154 0.365118
v -0.743379 -0.275622 0.365980
v -0.743096 -0.285764 0.367197
v -0.743874 -0.286494 0.368903
v -0.744833 -0.284681 0.367145
v -0.744409 -0.285713 0.368051
v -0.743689 -0.282116 0.365264
v -0.743608 -0.278940 0.364120
v -0.740311 -0.276257 0.363652
v -0.740785 -0.279529 0.364170
v -0.741938 -0.279039 0.363975
v -0.746155 -0.281951 0.365751
v -0.745564 -0.283512 0.366446
v -0.738413 -0.277582 0.363847
v -0.739062 -0.280065 0.365279
v -0.740993 -0.282574 0.366066
v -0.739916 -0.279902 0.364620
v -0.742336 -0.287043 0.368394
v -0.741782 -0.287913 0.370162
v -0.742995 -0.287193 0.369532
v -0.745983 -0.279577 0.365038
v -0.737823 -0.273610 0.365299
v -0.737648 -0.275079 0.363924
v -0.738886 -0.274638 0.364162
v -0.735390 -0.275587 0.365205
v -0.736896 -0.278095 0.364837
v -0.736823 -0.276362 0.364089
v -0.738347 -0.273108 0.369004
v -0.736016 -0.273525 0.366973
v -0.737672 -0.273136 0.367078
v -0.741637 -0.275040 0.372705
v -0.742220 -0.276804 0.375647
v -0.743289 -0.276170 0.374375
v -0.738124 -0.274133 0.371413
v -0.739868 -0.273866 0.370856
v -0.739589 -0.277313 0.375578
v -0.741387 -0.277835 0.376864
v -0.735655 -0.282123 0.376360
v -0.735170 -0.279579 0.374552
v -0.737266 -0.278532 0.375236
v -0.736619 -0.280084 0.375733
v -0.734778 -0.276890 0.367793
v -0.735320 -0.274649 0.369539
v -0.734879 -0.274949 0.367226
v -0.737454 -0.275823 0.373413
v -0.735985 -0.277083 0.373555
v -0.737578 -0.277085 0.374559
v -0.735467 -0.276126 0.371879
v -0.736435 -0.274959 0.371673
v -0.740301 -0.287259 0.368160
v -0.741252 -0.285357 0.366820
v -0.741854 -0.286449 0.367408
v -0.739791 -0.283290 0.367424
v -0.739313 -0.285061 0.367623
v -0.740530 -0.284259 0.366869
v -0.739042 -0.288351 0.369918
v -0.738705 -0.288747 0.371992
v -0.740229 -0.288510 0.371018
f 120 247 251
f 120 251 250
f 247 57 248
f 247 248 251
f 251 248 127
f 251 127 249
f 250 251 249
f 250 249 9
f 9 249 255
f 9 255 254
f 249 127 252
f 249 252 255
f 255 252 60
f 255 60 253
f 254 255 253
f 254 253 121
f 9 256 259
f 9 259 250
f 256 137 257
f 256 257 259
f 259 257 66
f 259 66 258
f 250 259 258
f 250 258 120
f 121 260 262
f 121 262 254
f 260 67 261
f 260 261 262
f 262 261 137
f 262 137 256
f 254 262 256
f 254 256 9
f 136 263 267
f 136 267 266
f 263 62 264
f 263 264 267
f 267 264 123
f 267 123 265
f 266 267 265
f 266 265 10
f 10 265 271
f 10 271 270
f 265 123 268
f 265 268 271
f 271 268 71
f 271 71 269
f 270 271 269
f 270 269 142
f 10 272 275
f 10 275 266
f 272 125 273
f 272 273 275
f 275 273 61
f 275 61 274
f 266 275 274
f 266 274 136
f 142 276 278
f 142 278 270
f 276 70 277
f 276 277 278
f 278 277 125
f 278 125 272
f 270 278 272
f 270 272 10
f 123 264 282
f 123 282 281
f 264 62 279
f 264 279 282
f 282 279 132
f 282 132 280
f 281 282 280
f 281 280 11
f 11 280 286
f 11 286 285
f 280 132 283
f 280 283 286
f 286 283 63
f 286 63 284
f 285 286 284
f 285 284 124
f 11 287 289
f 11 289 281
f 287 144 288
f 287 288 289
f 289 288 71
f 289 71 268
f 281 289 268
f 281 268 123
f 124 290 292
f 124 292 285
f 290 72 291
f 290 291 292
f 292 291 144
f 292 144 287
f 285 292 287
f 285 287 11
f 12 293 296
f 12 296 295
f 293 130 294
f 293 294 296
f 296 294 61
f 296 61 273
f 295 296 273
f 295 273 125
f 122 297 300
f 122 300 299
f 297 64 298
f 297 298 300
f 300 298 130
f 300 130 293
f 299 300 293
f 299 293 12
f 12 301 304
f 12 304 299
f 301 140 302
f 301 302 304
f 304 302 69
f 304 69 303
f 299 304 303
f 299 303 122
f 125 277 306
f 125 306 295
f 277 70 305
f 277 305 306
f 306 305 140
f 306 140 301
f 295 306 301
f 295 301 12
f 134 307 311
f 134 311 310
f 307 58 308
f 307 308 311
f 311 308 128
f 311 128 309
f 310 311 309
f 310 309 13
f 13 309 314
f 13 314 313
f 309 128 312
f 309 312 314
f 314 312 60
f 314 60 252
f 313 314 252
f 313 252 127
f 126 315 318
f 126 318 317
f 315 59 316
f 315 316 318
f 318 316 134
f 318 134 310
f 317 318 310
f 317 310 13
f 127 248 320
f 127 320 313
f 248 57 319
f 248 319 320
f 320 319 126
f 320 126 317
f 313 320 317
f 313 317 13
f 129 321 325
f 129 325 324
f 321 58 322
f 321 322 325
f 325 322 133
f 325 133 323
f 324 325 323
f 324 323 14
f 14 323 328
f 14 328 327
f 323 133 326
f 323 326 328
f 328 326 61
f 328 61 294
f 327 328 294
f 327 294 130
f 130 298 330
f 130 330 327
f 298 64 329
f 298 329 330
f 330 329 129
f 330 129 324
f 327 330 324
f 327 324 14
f 135 331 335
f 135 335 334
f 331 59 332
f 331 332 335
f 335 332 131
f 335 131 333
f 334 335 333
f 334 333 15
f 15 333 338
f 15 338 337
f 333 131 336
f 333 336 338
f 338 336 63
f 338 63 283
f 337 338 283
f 337 283 132
f 15 337 340
f 15 340 334
f 337 132 279
f 337 279 340
f 340 279 62
f 340 62 339
f 334 340 339
f 334 339 135
f 134 316 343
f 134 343 342
f 316 59 331
f 316 331 343
f 343 331 135
f 343 135 341
f 342 343 341
f 342 341 16
f 16 341 345
f 16 345 344
f 341 135 339
f 341 339 345
f 345 339 62
f 345 62 263
f 344 345 263
f 344 263 136
f 16 344 347
f 16 347 346
f 344 136 274
f 344 274 347
f 347 274 61
f 347 61 326
f 346 347 326
f 346 326 133
f 16 346 348
f 16 348 342
f 346 133 322
f 346 322 348
f 348 322 58
f 348 58 307
f 342 348 307
f 342 307 134
f 137 261 352
f 137 352 351
f 261 67 349
f 261 349 352
f 352 349 138
f 352 138 350
f 351 352 350
f 351 350 17
f 17 350 356
f 17 356 355
f 350 138 353
f 350 353 356
f 356 353 79
f 356 79 354
f 355 356 354
f 355 354 148
f 17 357 359
f 17 359 351
f 357 139 358
f 357 358 359
f 359 358 66
f 359 66 257
f 351 359 257
f 351 257 137
f 148 360 362
f 148 362 355
f 360 91 361
f 360 361 362
f 362 361 139
f 362 139 357
f 355 362 357
f 355 357 17
f 140 305 366
f 140 366 365
f 305 70 363
f 305 363 366
f 366 363 141
f 366 141 364
f 365 366 364
f 365 364 18
f 18 364 370
f 18 370 369
f 364 141 367
f 364 367 370
f 370 367 85
f 370 85 368
f 369 370 368
f 369 368 153
f 18 371 373
f 18 373 365
f 371 145 372
f 371 372 373
f 373 372 69
f 373 69 302
f 365 373 302
f 365 302 140
f 153 374 376
f 153 376 369
f 374 82 375
f 374 375 376
f 376 375 145
f 376 145 371
f 369 376 371
f 369 371 18
f 142 269 380
f 142 380 379
f 269 71 377
f 269 377 380
f 380 377 143
f 380 143 378
f 379 380 378
f 379 378 19
f 19 378 384
f 19 384 383
f 378 143 381
f 378 381 384
f 384 381 88
f 384 88 382
f 383 384 382
f 383 382 155
f 19 383 387
f 19 387 386
f 383 155 385
f 383 385 387
f 387 385 85
f 387 85 367
f 386 387 367
f 386 367 141
f 19 386 388
f 19 388 379
f 386 141 363
f 386 363 388
f 388 363 70
f 388 70 276
f 379 388 276
f 379 276 142
f 144 291 392
f 144 392 391
f 291 72 389
f 291 389 392
f 392 389 146
f 392 146 390
f 391 392 390
f 391 390 20
f 20 390 396
f 20 396 395
f 390 146 393
f 390 393 396
f 396 393 93
f 396 93 394
f 395 396 394
f 395 394 157
f 20 395 399
f 20 399 398
f 395 157 397
f 395 397 399
f 399 397 88
f 399 88 381
f 398 399 381
f 398 381 143
f 20 398 400
f 20 400 391
f 398 143 377
f 398 377 400
f 400 377 71
f 400 71 288
f 391 400 288
f 391 288 144
f 147 401 405
f 147 405 404
f 401 91 402
f 401 402 405
f 405 402 149
f 405 149 403
f 404 405 403
f 404 403 21
f 21 403 409
f 21 409 408
f 403 149 406
f 403 406 409
f 409 406 92
f 409 92 407
f 408 409 407
f 408 407 206
f 158 410 413
f 158 413 412
f 410 93 411
f 410 411 413
f 413 411 147
f 413 147 404
f 412 413 404
f 412 404 21
f 206 414 416
f 206 416 408
f 414 94 415
f 414 415 416
f 416 415 158
f 416 158 412
f 408 416 412
f 408 412 21
f 148 354 420
f 148 420 419
f 354 79 417
f 354 417 420
f 420 417 150
f 420 150 418
f 419 420 418
f 419 418 22
f 22 418 424
f 22 424 423
f 418 150 421
f 418 421 424
f 424 421 80
f 424 80 422
f 423 424 422
f 423 422 201
f 149 402 426
f 149 426 425
f 402 91 360
f 402 360 426
f 426 360 148
f 426 148 419
f 425 426 419
f 425 419 22
f 201 427 428
f 201 428 423
f 427 92 406
f 427 406 428
f 428 406 149
f 428 149 425
f 423 428 425
f 423 425 22
f 151 429 433
f 151 433 432
f 429 82 430
f 429 430 433
f 433 430 152
f 433 152 431
f 432 433 431
f 432 431 23
f 23 431 437
f 23 437 436
f 431 152 434
f 431 434 437
f 437 434 83
f 437 83 435
f 436 437 435
f 436 435 202
f 23 438 440
f 23 440 432
f 438 150 417
f 438 417 440
f 440 417 79
f 440 79 439
f 432 440 439
f 432 439 151
f 202 441 442
f 202 442 436
f 441 80 421
f 441 421 442
f 442 421 150
f 442 150 438
f 436 442 438
f 436 438 23
f 153 368 446
f 153 446 445
f 368 85 443
f 368 443 446
f 446 443 154
f 446 154 444
f 445 446 444
f 445 444 24
f 24 444 450
f 24 450 449
f 444 154 447
f 444 447 450
f 450 447 86
f 450 86 448
f 449 450 448
f 449 448 203
f 24 451 452
f 24 452 445
f 451 152 430
f 451 430 452
f 452 430 82
f 452 82 374
f 445 452 374
f 445 374 153
f 203 453 454
f 203 454 449
f 453 83 434
f 453 434 454
f 454 434 152
f 454 152 451
f 449 454 451
f 449 451 24
f 155 382 458
f 155 458 457
f 382 88 455
f 382 455 458
f 458 455 156
f 458 156 456
f 457 458 456
f 457 456 25
f 25 456 462
f 25 462 461
f 456 156 459
f 456 459 462
f 462 459 90
f 462 90 460
f 461 462 460
f 461 460 204
f 25 463 464
f 25 464 457
f 463 154 443
f 463 443 464
f 464 443 85
f 464 85 385
f 457 464 385
f 457 385 155
f 204 465 466
f 204 466 461
f 465 86 447
f 465 447 466
f 466 447 154
f 466 154 463
f 461 466 463
f 461 463 25
f 157 394 469
f 157 469 468
f 394 93 410
f 394 410 469
f 469 410 158
f 469 158 467
f 468 469 467
f 468 467 26
f 26 467 472
f 26 472 471
f 467 158 415
f 467 415 472
f 472 415 94
f 472 94 470
f 471 472 470
f 471 470 205
f 26 473 474
f 26 474 468
f 473 156 455
f 473 455 474
f 474 455 88
f 474 88 397
f 468 474 397
f 468 397 157
f 205 475 476
f 205 476 471
f 475 90 459
f 475 459 476
f 476 459 156
f 476 156 473
f 471 476 473
f 471 473 26
f 205 470 480
f 205 480 479
f 470 94 477
f 470 477 480
f 480 477 159
f 480 159 478
f 479 480 478
f 479 478 27
f 27 478 484
f 27 484 483
f 478 159 481
f 478 481 484
f 484 481 95
f 484 95 482
f 483 484 482
f 483 482 183
f 27 483 488
f 27 488 487
f 483 183 485
f 483 485 488
f 488 485 89
f 488 89 486
f 487 488 486
f 487 486 164
f 164 489 490
f 164 490 487
f 489 90 475
f 489 475 490
f 490 475 205
f 490 205 479
f 487 490 479
f 487 479 27
f 206 407 494
f 206 494 493
f 407 92 491
f 407 491 494
f 494 491 160
f 494 160 492
f 493 494 492
f 493 492 28
f 28 492 498
f 28 498 497
f 492 160 495
f 492 495 498
f 498 495 96
f 498 96 496
f 497 498 496
f 497 496 184
f 28 497 501
f 28 501 500
f 497 184 499
f 497 499 501
f 501 499 95
f 501 95 481
f 500 501 481
f 500 481 159
f 159 477 502
f 159 502 500
f 477 94 414
f 477 414 502
f 502 414 206
f 502 206 493
f 500 502 493
f 500 493 28
f 201 422 506
f 201 506 505
f 422 80 503
f 422 503 506
f 506 503 161
f 506 161 504
f 505 506 504
f 505 504 29
f 29 504 510
f 29 510 509
f 504 161 507
f 504 507 510
f 510 507 81
f 510 81 508
f 509 510 508
f 509 508 185
f 29 509 513
f 29 513 512
f 509 185 511
f 509 511 513
f 513 511 96
f 513 96 495
f 512 513 495
f 512 495 160
f 160 491 514
f 160 514 512
f 491 92 427
f 491 427 514
f 514 427 201
f 514 201 505
f 512 514 505
f 512 505 29
f 202 435 518
f 202 518 517
f 435 83 515
f 435 515 518
f 518 515 162
f 518 162 516
f 517 518 516
f 517 516 30
f 30 516 522
f 30 522 521
f 516 162 519
f 516 519 522
f 522 519 84
f 522 84 520
f 521 522 520
f 521 520 186
f 30 521 525
f 30 525 524
f 521 186 523
f 521 523 525
f 525 523 81
f 525 81 507
f 524 525 507
f 524 507 161
f 161 503 526
f 161 526 524
f 503 80 441
f 503 441 526
f 526 441 202
f 526 202 517
f 524 526 517
f 524 517 30
f 203 448 530
f 203 530 529
f 448 86 527
f 448 527 530
f 530 527 163
f 530 163 528
f 529 530 528
f 529 528 31
f 31 528 534
f 31 534 533
f 528 163 531
f 528 531 534
f 534 531 87
f 534 87 532
f 533 534 532
f 533 532 187
f 31 533 537
f 31 537 536
f 533 187 535
f 533 535 537
f 537 535 84
f 537 84 519
f 536 537 519
f 536 519 162
f 162 515 538
f 162 538 536
f 515 83 453
f 515 453 538
f 538 453 203
f 538 203 529
f 536 538 529
f 536 529 31
f 32 539 542
f 32 542 541
f 539 164 486
f 539 486 542
f 542 486 89
f 542 89 540
f 541 542 540
f 541 540 188
f 204 460 544
f 204 544 543
f 460 90 489
f 460 489 544
f 544 489 164
f 544 164 539
f 543 544 539
f 543 539 32
f 32 541 547
f 32 547 546
f 541 188 545
f 541 545 547
f 547 545 87
f 547 87 531
f 546 547 531
f 546 531 163
f 163 527 548
f 163 548 546
f 527 86 465
f 527 465 548
f 548 465 204
f 548 204 543
f 546 548 543
f 546 543 32
f 33 549 553
f 33 553 552
f 549 165 550
f 549 550 553
f 553 550 73
f 553 73 551
f 552 553 551
f 552 551 189
f 183 482 556
f 183 556 555
f 482 95 554
f 482 554 556
f 556 554 165
f 556 165 549
f 555 556 549
f 555 549 33
f 33 552 560
f 33 560 559
f 552 189 557
f 552 557 560
f 560 557 78
f 560 78 558
f 559 560 558
f 559 558 170
f 33 559 562
f 33 562 555
f 559 170 561
f 559 561 562
f 562 561 89
f 562 89 485
f 555 562 485
f 555 485 183
f 34 563 567
f 34 567 566
f 563 166 564
f 563 564 567
f 567 564 74
f 567 74 565
f 566 567 565
f 566 565 190
f 184 496 570
f 184 570 569
f 496 96 568
f 496 568 570
f 570 568 166
f 570 166 563
f 569 570 563
f 569 563 34
f 34 566 573
f 34 573 572
f 566 190 571
f 566 571 573
f 573 571 73
f 573 73 550
f 572 573 550
f 572 550 165
f 34 572 574
f 34 574 569
f 572 165 554
f 572 554 574
f 574 554 95
f 574 95 499
f 569 574 499
f 569 499 184
f 35 575 579
f 35 579 578
f 575 167 576
f 575 576 579
f 579 576 75
f 579 75 577
f 578 579 577
f 578 577 191
f 185 508 582
f 185 582 581
f 508 81 580
f 508 580 582
f 582 580 167
f 582 167 575
f 581 582 575
f 581 575 35
f 35 578 585
f 35 585 584
f 578 191 583
f 578 583 585
f 585 583 74
f 585 74 564
f 584 585 564
f 584 564 166
f 35 584 586
f 35 586 581
f 584 166 568
f 584 568 586
f 586 568 96
f 586 96 511
f 581 586 511
f 581 511 185
f 36 587 591
f 36 591 590
f 587 168 588
f 587 588 591
f 591 588 76
f 591 76 589
f 590 591 589
f 590 589 192
f 186 520 594
f 186 594 593
f 520 84 592
f 520 592 594
f 594 592 168
f 594 168 587
f 593 594 587
f 593 587 36
f 36 590 597
f 36 597 596
f 590 192 595
f 590 595 597
f 597 595 75
f 597 75 576
f 596 597 576
f 596 576 167
f 36 596 598
f 36 598 593
f 596 167 580
f 596 580 598
f 598 580 81
f 598 81 523
f 593 598 523
f 593 523 186
f 37 599 603
f 37 603 602
f 599 169 600
f 599 600 603
f 603 600 77
f 603 77 601
f 602 603 601
f 602 601 193
f 187 532 606
f 187 606 605
f 532 87 604
f 532 604 606
f 606 604 169
f 606 169 599
f 605 606 599
f 605 599 37
f 37 602 609
f 37 609 608
f 602 193 607
f 602 607 609
f 609 607 76
f 609 76 588
f 608 609 588
f 608 588 168
f 37 608 610
f 37 610 605
f 608 168 592
f 608 592 610
f 610 592 84
f 610 84 535
f 605 610 535
f 605 535 187
f 38 611 614
f 38 614 613
f 611 170 558
f 611 558 614
f 614 558 78
f 614 78 612
f 613 614 612
f 613 612 194
f 188 540 616
f 188 616 615
f 540 89 561
f 540 561 616
f 616 561 170
f 616 170 611
f 615 616 611
f 615 611 38
f 38 613 619
f 38 619 618
f 613 194 617
f 613 617 619
f 619 617 77
f 619 77 600
f 618 619 600
f 618 600 169
f 38 618 620
f 38 620 615
f 618 169 604
f 618 604 620
f 620 604 87
f 620 87 545
f 615 620 545
f 615 545 188
f 189 551 624
f 189 624 623
f 551 73 621
f 551 621 624
f 624 621 171
f 624 171 622
f 623 624 622
f 623 622 39
f 39 622 628
f 39 628 627
f 622 171 625
f 622 625 628
f 628 625 100
f 628 100 626
f 627 628 626
f 627 626 195
f 39 627 632
f 39 632 631
f 627 195 629
f 627 629 632
f 632 629 98
f 632 98 630
f 631 632 630
f 631 630 176
f 39 631 634
f 39 634 623
f 631 176 633
f 631 633 634
f 634 633 78
f 634 78 557
f 623 634 557
f 623 557 189
f 190 565 638
f 190 638 637
f 565 74 635
f 565 635 638
f 638 635 172
f 638 172 636
f 637 638 636
f 637 636 40
f 40 636 642
f 40 642 641
f 636 172 639
f 636 639 642
f 642 639 101
f 642 101 640
f 641 642 640
f 641 640 196
f 40 641 645
f 40 645 644
f 641 196 643
f 641 643 645
f 645 643 100
f 645 100 625
f 644 645 625
f 644 625 171
f 40 644 646
f 40 646 637
f 644 171 621
f 644 621 646
f 646 621 73
f 646 73 571
f 637 646 571
f 637 571 190
f 191 577 650
f 191 650 649
f 577 75 647
f 577 647 650
f 650 647 173
f 650 173 648
f 649 650 648
f 649 648 41
f 41 648 654
f 41 654 653
f 648 173 651
f 648 651 654
f 654 651 102
f 654 102 652
f 653 654 652
f 653 652 197
f 41 653 657
f 41 657 656
f 653 197 655
f 653 655 657
f 657 655 101
f 657 101 639
f 656 657 639
f 656 639 172
f 41 656 658
f 41 658 649
f 656 172 635
f 656 635 658
f 658 635 74
f 658 74 583
f 649 658 583
f 649 583 191
f 192 589 662
f 192 662 661
f 589 76 659
f 589 659 662
f 662 659 174
f 662 174 660
f 661 662 660
f 661 660 42
f 42 660 666
f 42 666 665
f 660 174 663
f 660 663 666
f 666 663 99
f 666 99 664
f 665 666 664
f 665 664 198
f 42 665 669
f 42 669 668
f 665 198 667
f 665 667 669
f 669 667 102
f 669 102 651
f 668 669 651
f 668 651 173
f 42 668 670
f 42 670 661
f 668 173 647
f 668 647 670
f 670 647 75
f 670 75 595
f 661 670 595
f 661 595 192
f 193 601 674
f 193 674 673
f 601 77 671
f 601 671 674
f 674 671 175
f 674 175 672
f 673 674 672
f 673 672 43
f 43 672 678
f 43 678 677
f 672 175 675
f 672 675 678
f 678 675 97
f 678 97 676
f 677 678 676
f 677 676 199
f 43 677 681
f 43 681 680
f 677 199 679
f 677 679 681
f 681 679 99
f 681 99 663
f 680 681 663
f 680 663 174
f 43 680 682
f 43 682 673
f 680 174 659
f 680 659 682
f 682 659 76
f 682 76 607
f 673 682 607
f 673 607 193
f 194 612 685
f 194 685 684
f 612 78 633
f 612 633 685
f 685 633 176
f 685 176 683
f 684 685 683
f 684 683 44
f 44 683 688
f 44 688 687
f 683 176 630
f 683 630 688
f 688 630 98
f 688 98 686
f 687 688 686
f 687 686 200
f 44 687 691
f 44 691 690
f 687 200 689
f 687 689 691
f 691 689 97
f 691 97 675
f 690 691 675
f 690 675 175
f 44 690 692
f 44 692 684
f 690 175 671
f 690 671 692
f 692 671 77
f 692 77 617
f 684 692 617
f 684 617 194
f 195 626 696
f 195 696 695
f 626 100 693
f 626 693 696
f 696 693 177
f 696 177 694
f 695 696 694
f 695 694 45
f 45 694 700
f 45 700 699
f 694 177 697
f 694 697 700
f 700 697 109
f 700 109 698
f 699 700 698
f 699 698 211
f 45 699 704
f 45 704 703
f 699 211 701
f 699 701 704
f 704 701 107
f 704 107 702
f 703 704 702
f 703 702 182
f 45 703 706
f 45 706 695
f 703 182 705
f 703 705 706
f 706 705 98
f 706 98 629
f 695 706 629
f 695 629 195
f 196 640 710
f 196 710 709
f 640 101 707
f 640 707 710
f 710 707 178
f 710 178 708
f 709 710 708
f 709 708 46
f 46 711 714
f 46 714 713
f 711 214 712
f 711 712 714
f 714 712 109
f 714 109 697
f 713 714 697
f 713 697 177
f 46 713 715
f 46 715 709
f 713 177 693
f 713 693 715
f 715 693 100
f 715 100 643
f 709 715 643
f 709 643 196
f 197 652 719
f 197 719 718
f 652 102 716
f 652 716 719
f 719 716 179
f 719 179 717
f 718 719 717
f 718 717 47
f 47 720 721
f 47 721 718
f 720 178 707
f 720 707 721
f 721 707 101
f 721 101 655
f 718 721 655
f 718 655 197
f 198 664 725
f 198 725 724
f 664 99 722
f 664 722 725
f 725 722 180
f 725 180 723
f 724 725 723
f 724 723 48
f 48 723 729
f 48 729 728
f 723 180 726
f 723 726 729
f 729 726 104
f 729 104 727
f 728 729 727
f 728 727 213
f 48 728 733
f 48 733 732
f 728 213 730
f 728 730 733
f 733 730 106
f 733 106 731
f 732 733 731
f 732 731 179
f 48 732 734
f 48 734 724
f 732 179 716
f 732 716 734
f 734 716 102
f 734 102 667
f 724 734 667
f 724 667 198
f 199 676 738
f 199 738 737
f 676 97 735
f 676 735 738
f 738 735 181
f 738 181 736
f 737 738 736
f 737 736 49
f 49 736 742
f 49 742 741
f 736 181 739
f 736 739 742
f 742 739 105
f 742 105 740
f 741 742 740
f 741 740 208
f 49 741 745
f 49 745 744
f 741 208 743
f 741 743 745
f 745 743 104
f 745 104 726
f 744 745 726
f 744 726 180
f 49 744 746
f 49 746 737
f 744 180 722
f 744 722 746
f 746 722 99
f 746 99 679
f 737 746 679
f 737 679 199
f 200 686 749
f 200 749 748
f 686 98 705
f 686 705 749
f 749 705 182
f 749 182 747
f 748 749 747
f 748 747 50
f 50 747 752
f 50 752 751
f 747 182 702
f 747 702 752
f 752 702 107
f 752 107 750
f 751 752 750
f 751 750 207
f 50 751 755
f 50 755 754
f 751 207 753
f 751 753 755
f 755 753 105
f 755 105 739
f 754 755 739
f 754 739 181
f 50 754 756
f 50 756 748
f 754 181 735
f 754 735 756
f 756 735 97
f 756 97 689
f 748 756 689
f 748 689 200
f 1 757 759
f 1 759 758
f 757 147 411
f 757 411 759
f 759 411 93
f 759 93 393
f 758 759 393
f 758 393 146
f 139 361 761
f 139 761 760
f 361 91 401
f 361 401 761
f 761 401 147
f 761 147 757
f 760 761 757
f 760 757 1
f 146 389 764
f 146 764 758
f 389 72 762
f 389 762 764
f 764 762 115
f 764 115 763
f 758 764 763
f 758 763 1
f 112 765 767
f 112 767 766
f 765 66 358
f 765 358 767
f 767 358 139
f 767 139 760
f 766 767 760
f 766 760 1
f 235 873 866
f 235 866 118
f 866 873 236
f 866 236 8
f 8 236 875
f 8 875 868
f 868 875 229
f 868 229 119
f 2 772 774
f 2 774 773
f 772 120 258
f 772 258 774
f 774 258 66
f 774 66 765
f 773 774 765
f 773 765 112
f 119 229 871
f 119 871 825
f 825 871 230
f 825 230 5
f 234 861 857
f 234 857 7
f 857 861 235
f 857 235 118
f 57 247 780
f 57 780 779
f 247 120 772
f 247 772 780
f 780 772 2
f 780 2 778
f 779 780 778
f 779 778 113
f 233 851 847
f 233 847 117
f 847 851 234
f 847 234 7
f 232 843 840
f 232 840 6
f 840 843 233
f 840 233 117
f 3 784 786
f 3 786 785
f 784 126 319
f 784 319 786
f 786 319 57
f 786 57 779
f 785 786 779
f 785 779 113
f 131 332 788
f 131 788 787
f 332 59 315
f 332 315 788
f 788 315 126
f 788 126 784
f 787 788 784
f 787 784 3
f 231 837 835
f 231 835 116
f 835 837 232
f 835 232 6
f 5 230 831
f 5 831 827
f 827 831 231
f 827 231 116
f 65 792 794
f 65 794 793
f 792 225 781
f 792 781 794
f 794 781 224
f 794 224 775
f 793 794 775
f 793 775 223
f 63 336 797
f 63 797 796
f 336 131 787
f 336 787 797
f 797 787 3
f 797 3 795
f 796 797 795
f 796 795 114
f 226 789 800
f 226 800 799
f 789 225 792
f 789 792 800
f 800 792 65
f 800 65 798
f 799 800 798
f 799 798 227
f 227 811 804
f 227 804 114
f 804 811 228
f 804 228 4
f 4 228 813
f 4 813 806
f 806 813 221
f 806 221 115
f 4 803 805
f 4 805 804
f 803 124 284
f 803 284 805
f 805 284 63
f 805 63 796
f 804 805 796
f 804 796 114
f 4 806 807
f 4 807 803
f 806 115 762
f 806 762 807
f 807 762 72
f 807 72 290
f 803 807 290
f 803 290 124
f 115 221 809
f 115 809 763
f 763 809 222
f 763 222 1
f 226 799 795
f 226 795 3
f 795 799 227
f 795 227 114
f 228 811 814
f 228 814 813
f 811 227 798
f 811 798 814
f 814 798 65
f 814 65 812
f 813 814 812
f 813 812 221
f 221 812 815
f 221 815 809
f 812 65 793
f 812 793 815
f 815 793 223
f 815 223 769
f 809 815 769
f 809 769 222
f 225 789 785
f 225 785 113
f 785 789 226
f 785 226 3
f 224 781 778
f 224 778 2
f 778 781 225
f 778 225 113
f 223 775 773
f 223 773 112
f 773 775 224
f 773 224 2
f 1 222 769
f 1 769 766
f 766 769 223
f 766 223 112
f 145 375 821
f 145 821 820
f 375 82 429
f 375 429 821
f 821 429 151
f 821 151 819
f 820 821 819
f 820 819 5
f 5 819 823
f 5 823 822
f 819 151 439
f 819 439 823
f 823 439 79
f 823 79 353
f 822 823 353
f 822 353 138
f 138 349 826
f 138 826 822
f 349 67 824
f 349 824 826
f 826 824 119
f 826 119 825
f 822 826 825
f 822 825 5
f 69 372 829
f 69 829 828
f 372 145 820
f 372 820 829
f 829 820 5
f 829 5 827
f 828 829 827
f 828 827 116
f 777 768 914
f 777 914 110
f 768 903 220
f 768 220 914
f 771 108 903
f 771 903 768
f 243 771 768
f 243 768 777
f 6 834 836
f 6 836 835
f 834 122 303
f 834 303 836
f 836 303 69
f 836 69 828
f 835 836 828
f 835 828 116
f 808 770 771
f 808 771 243
f 770 941 108
f 770 108 771
f 872 219 941
f 872 941 770
f 111 872 770
f 111 770 808
f 64 297 842
f 64 842 841
f 297 122 834
f 297 834 842
f 842 834 6
f 842 6 840
f 841 842 840
f 841 840 117
f 802 776 783
f 802 783 56
f 776 930 217
f 776 217 783
f 777 110 930
f 777 930 776
f 243 777 776
f 243 776 802
f 7 846 848
f 7 848 847
f 846 129 329
f 846 329 848
f 848 329 64
f 848 64 841
f 847 848 841
f 847 841 117
f 128 308 850
f 128 850 849
f 308 58 321
f 308 321 850
f 850 321 129
f 850 129 846
f 849 850 846
f 849 846 7
f 783 782 791
f 783 791 56
f 782 934 238
f 782 238 791
f 936 244 934
f 936 934 782
f 217 936 782
f 217 782 783
f 68 854 856
f 68 856 855
f 854 233 843
f 854 843 856
f 856 843 232
f 856 232 837
f 855 856 837
f 855 837 231
f 60 312 859
f 60 859 858
f 312 128 849
f 312 849 859
f 859 849 7
f 859 7 857
f 858 859 857
f 858 857 118
f 234 851 862
f 234 862 861
f 851 233 854
f 851 854 862
f 862 854 68
f 862 68 860
f 861 862 860
f 861 860 235
f 791 790 810
f 791 810 56
f 790 830 218
f 790 218 810
f 927 239 830
f 927 830 790
f 238 927 790
f 238 790 791
f 8 865 867
f 8 867 866
f 865 121 253
f 865 253 867
f 867 253 60
f 867 60 858
f 866 867 858
f 866 858 118
f 8 868 869
f 8 869 865
f 868 119 824
f 868 824 869
f 869 824 67
f 869 67 260
f 865 869 260
f 865 260 121
f 802 801 808
f 802 808 243
f 801 838 111
f 801 111 808
f 810 218 838
f 810 838 801
f 56 810 801
f 56 801 802
f 236 873 876
f 236 876 875
f 873 235 860
f 873 860 876
f 876 860 68
f 876 68 874
f 875 876 874
f 875 874 229
f 229 874 877
f 229 877 871
f 874 68 855
f 874 855 877
f 877 855 231
f 877 231 831
f 871 877 831
f 871 831 230
f 818 816 839
f 818 839 246
f 816 879 245
f 816 245 839
f 863 212 879
f 863 879 816
f 54 863 816
f 54 816 818
f 833 817 818
f 833 818 246
f 817 845 54
f 817 54 818
f 830 239 845
f 830 845 817
f 218 830 817
f 218 817 833
f 216 881 883
f 216 883 882
f 881 47 717
f 881 717 883
f 883 717 179
f 883 179 731
f 882 883 731
f 882 731 106
f 109 712 887
f 109 887 886
f 712 214 884
f 712 884 887
f 887 884 55
f 887 55 885
f 886 887 885
f 886 885 215
f 215 888 890
f 215 890 886
f 888 53 889
f 888 889 890
f 890 889 211
f 890 211 698
f 886 890 698
f 886 698 109
f 51 891 894
f 51 894 893
f 891 209 892
f 891 892 894
f 894 892 105
f 894 105 753
f 893 894 753
f 893 753 207
f 51 895 899
f 51 899 898
f 895 210 896
f 895 896 899
f 899 896 53
f 899 53 897
f 898 899 897
f 898 897 241
f 207 750 901
f 207 901 893
f 750 107 900
f 750 900 901
f 901 900 210
f 901 210 895
f 893 901 895
f 893 895 51
f 241 902 905
f 241 905 898
f 902 220 903
f 902 903 905
f 905 903 108
f 905 108 904
f 898 905 904
f 898 904 51
f 209 906 908
f 209 908 892
f 906 52 907
f 906 907 908
f 908 907 208
f 908 208 740
f 892 908 740
f 892 740 105
f 107 701 909
f 107 909 900
f 701 211 889
f 701 889 909
f 909 889 53
f 909 53 896
f 900 909 896
f 900 896 210
f 241 897 912
f 241 912 911
f 897 53 888
f 897 888 912
f 912 888 215
f 912 215 910
f 911 912 910
f 911 910 242
f 241 911 915
f 241 915 902
f 911 242 913
f 911 913 915
f 915 913 110
f 915 110 914
f 902 915 914
f 902 914 220
f 242 910 918
f 242 918 917
f 910 215 885
f 910 885 918
f 918 885 55
f 918 55 916
f 917 918 916
f 917 916 237
f 103 919 921
f 103 921 920
f 919 214 711
f 919 711 921
f 921 711 46
f 921 46 708
f 920 921 708
f 920 708 178
f 237 916 923
f 237 923 922
f 916 55 884
f 916 884 923
f 923 884 214
f 923 214 919
f 922 923 919
f 922 919 103
f 103 920 925
f 103 925 924
f 920 178 720
f 920 720 925
f 925 720 47
f 925 47 881
f 924 925 881
f 924 881 216
f 216 882 929
f 216 929 928
f 882 106 926
f 882 926 929
f 929 926 239
f 929 239 927
f 928 929 927
f 928 927 238
f 217 930 932
f 217 932 931
f 930 110 913
f 930 913 932
f 932 913 242
f 932 242 917
f 931 932 917
f 931 917 237
f 244 933 935
f 244 935 934
f 933 103 924
f 933 924 935
f 935 924 216
f 935 216 928
f 934 935 928
f 934 928 238
f 217 931 937
f 217 937 936
f 931 237 922
f 931 922 937
f 937 922 103
f 937 103 933
f 936 937 933
f 936 933 244
f 240 938 940
f 240 940 939
f 938 52 906
f 938 906 940
f 940 906 209
f 940 209 891
f 939 940 891
f 939 891 51
f 51 904 943
f 51 943 939
f 904 108 941
f 904 941 943
f 943 941 219
f 943 219 942
f 939 943 942
f 939 942 240
f 104 743 946
f 104 946 945
f 743 208 907
f 743 907 946
f 946 907 52
f 946 52 944
f 945 946 944
f 945 944 212
f 212 944 878
f 212 878 879
f 944 52 938
f 944 938 878
f 878 938 240
f 878 240 880
f 879 878 880
f 879 880 245
f 245 880 864
f 245 864 870
f 880 240 942
f 880 942 864
f 864 942 219
f 864 219 872
f 870 864 872
f 870 872 111
f 213 727 852
f 213 852 853
f 727 104 945
f 727 945 852
f 852 945 212
f 852 212 863
f 853 852 863
f 853 863 54
f 239 926 844
f 239 844 845
f 926 106 730
f 926 730 844
f 844 730 213
f 844 213 853
f 845 844 853
f 845 853 54
f 246 839 832
f 246 832 833
f 839 245 870
f 839 870 832
f 832 870 111
f 832 111 838
f 833 832 838
f 833 838 218
