# _3rd_Middle_Phalanx_Foot_R posed
v 0.971417 0.195496 0.248854
v 0.971843 0.196109 0.249415
v 0.972205 0.195483 0.250200
v 0.971913 0.194663 0.249804
v 0.973120 0.195568 0.251576
v 0.973451 0.194618 0.252049
v 0.973553 0.195870 0.252071
v 0.973971 0.195023 0.252764
v 0.974429 0.195933 0.253485
v 0.973886 0.196535 0.252522
v 0.974566 0.198778 0.251956
v 0.973928 0.198468 0.251566
v 0.974031 0.197849 0.252079
v 0.974706 0.198091 0.252765
v 0.972629 0.195301 0.250948
v 0.972742 0.194378 0.250900
v 0.971424 0.196818 0.248183
v 0.971782 0.197097 0.248904
v 0.971862 0.198232 0.247986
v 0.972004 0.198074 0.248767
v 0.972396 0.199393 0.248149
v 0.972315 0.198776 0.249012
v 0.972981 0.200321 0.248620
v 0.972690 0.199438 0.249403
v 0.973403 0.200877 0.249332
v 0.972934 0.199904 0.249863
v 0.973705 0.199171 0.251121
v 0.974338 0.199766 0.251304
v 0.973309 0.199857 0.250485
v 0.973858 0.200698 0.250455
v 0.974044 0.197251 0.252593
v 0.974631 0.197087 0.253501
v 0.972363 0.197774 0.249594
v 0.972475 0.197005 0.250074
v 0.972679 0.196298 0.250671
v 0.972790 0.198380 0.250125
v 0.972960 0.197595 0.250637
v 0.973238 0.196891 0.251198
v 0.973257 0.198838 0.250693
v 0.973485 0.198082 0.251186
v 0.973656 0.197457 0.251656
v 0.976325 0.194514 0.251409
v 0.975749 0.194122 0.250658
v 0.975205 0.194076 0.249828
v 0.974762 0.194189 0.248961
v 0.974378 0.194736 0.248090
v 0.974260 0.195675 0.247407
v 0.974365 0.196781 0.247111
v 0.974659 0.197857 0.247072
v 0.975181 0.198779 0.247315
v 0.975743 0.199299 0.248013
v 0.976354 0.199330 0.248957
v 0.976753 0.198874 0.249876
v 0.977050 0.198187 0.250655
v 0.977202 0.197442 0.251342
v 0.977203 0.196432 0.251847
v 0.976910 0.195241 0.251905
v 0.978685 0.194065 0.249493
v 0.978264 0.193694 0.248984
v 0.977892 0.193648 0.248325
v 0.977571 0.193814 0.247695
v 0.977373 0.194239 0.247100
v 0.977297 0.194861 0.246603
v 0.977374 0.195595 0.246320
v 0.977545 0.196371 0.246189
v 0.977924 0.197085 0.246357
v 0.978360 0.197558 0.246825
v 0.978791 0.197499 0.247552
v 0.979064 0.197253 0.248234
v 0.979263 0.196748 0.248850
v 0.979330 0.196181 0.249335
v 0.979262 0.195513 0.249648
v 0.979059 0.194764 0.249761
v 0.980315 0.193505 0.248535
v 0.979890 0.193056 0.248109
v 0.979509 0.192910 0.247437
v 0.979282 0.193219 0.246802
v 0.979153 0.193687 0.246257
v 0.979113 0.194252 0.245800
v 0.979175 0.194927 0.245480
v 0.979354 0.195663 0.245313
v 0.979679 0.196326 0.245503
v 0.980084 0.196780 0.245951
v 0.980449 0.196783 0.246635
v 0.980720 0.196583 0.247293
v 0.980873 0.196128 0.247896
v 0.980943 0.195584 0.248388
v 0.980883 0.194921 0.248705
v 0.980686 0.194206 0.248845
v 0.983071 0.192178 0.247617
v 0.982557 0.191702 0.246965
v 0.982101 0.191706 0.246119
v 0.981817 0.192121 0.245337
v 0.981662 0.192667 0.244711
v 0.981592 0.193296 0.244189
v 0.981595 0.194057 0.243722
v 0.981766 0.195003 0.243449
v 0.982181 0.195921 0.243646
v 0.982731 0.196555 0.244266
v 0.983220 0.196487 0.245214
v 0.983508 0.196023 0.246034
v 0.983642 0.195446 0.246641
v 0.983733 0.194873 0.247164
v 0.983747 0.194089 0.247753
v 0.983720 0.193214 0.248173
v 0.976092 0.198657 0.251440
v 0.975806 0.199553 0.250723
v 0.976210 0.197954 0.252232
v 0.976290 0.196719 0.252906
v 0.975359 0.200335 0.249677
v 0.974673 0.200379 0.248400
v 0.974001 0.199682 0.247756
v 0.973443 0.198685 0.247282
v 0.973068 0.197430 0.247143
v 0.972824 0.196048 0.247406
v 0.972895 0.194723 0.248185
v 0.973433 0.194010 0.249275
v 0.974068 0.193878 0.250348
v 0.974720 0.193985 0.251364
v 0.975232 0.194505 0.252197
v 0.975857 0.195463 0.252913
v 0.975376 0.198873 0.251840
v 0.975124 0.199785 0.251130
v 0.975489 0.198158 0.252615
v 0.975535 0.196974 0.253418
v 0.974636 0.200682 0.250108
v 0.974033 0.200772 0.248756
v 0.973476 0.200098 0.248051
v 0.972856 0.199125 0.247581
v 0.972340 0.197893 0.247374
v 0.972033 0.194929 0.248366
v 0.973389 0.193950 0.250643
v 0.972046 0.196381 0.247565
v 0.972656 0.194087 0.249499
v 0.974110 0.194029 0.251787
v 0.974631 0.194584 0.252643
v 0.975214 0.195564 0.253378
v 0.983623 0.195665 0.243002
v 0.984189 0.196102 0.243689
v 0.984644 0.195964 0.244567
v 0.984894 0.195484 0.245319
v 0.985055 0.194980 0.245934
v 0.985204 0.194416 0.246567
v 0.985238 0.193603 0.247169
v 0.985024 0.192747 0.247436
v 0.984410 0.191789 0.247047
v 0.983865 0.191257 0.246361
v 0.983328 0.191163 0.245495
v 0.982977 0.191553 0.244628
v 0.982787 0.192129 0.243916
v 0.982691 0.192795 0.243307
v 0.982701 0.193613 0.242778
v 0.982977 0.194549 0.242630
v 0.985306 0.194227 0.245272
v 0.985410 0.193713 0.245760
v 0.985446 0.193181 0.246232
v 0.985302 0.192601 0.246520
v 0.984925 0.192024 0.246366
v 0.984438 0.191509 0.245821
v 0.983937 0.191419 0.245145
v 0.983769 0.191683 0.244507
v 0.983664 0.192231 0.243866
v 0.983575 0.192765 0.243302
v 0.983651 0.193360 0.242957
v 0.983854 0.194063 0.242836
v 0.984372 0.194818 0.243120
v 0.984772 0.195073 0.243623
v 0.985001 0.195009 0.244108
v 0.985185 0.194640 0.244708
v 0.984386 0.195311 0.246375
v 0.984231 0.195888 0.245755
v 0.983979 0.196435 0.244973
v 0.984513 0.194749 0.246943
v 0.984531 0.193956 0.247625
v 0.984449 0.192943 0.247996
v 0.983498 0.196517 0.243887
v 0.982880 0.195877 0.243202
v 0.982312 0.194813 0.242923
v 0.982054 0.193806 0.243159
v 0.982066 0.192991 0.243675
v 0.982169 0.192339 0.244278
v 0.982353 0.191784 0.244957
v 0.982666 0.191330 0.245805
v 0.983166 0.191350 0.246751
v 0.983719 0.191848 0.247484
v 0.984417 0.192194 0.244828
v 0.984312 0.192755 0.244214
v 0.984200 0.193266 0.243610
v 0.984901 0.192745 0.245183
v 0.984791 0.193254 0.244579
v 0.984679 0.193795 0.243960
v 0.985195 0.193280 0.245476
v 0.985125 0.193679 0.244910
v 0.984998 0.194199 0.244343
v 0.981802 0.192881 0.248008
v 0.981370 0.192365 0.247394
v 0.980956 0.192256 0.246722
v 0.980696 0.192618 0.245993
v 0.980587 0.193132 0.245446
v 0.980541 0.193761 0.244970
v 0.980600 0.194448 0.244653
v 0.980775 0.195258 0.244433
v 0.981086 0.196008 0.244574
v 0.981547 0.196492 0.245109
v 0.981924 0.196582 0.245866
v 0.982227 0.196276 0.246604
v 0.982380 0.195732 0.247159
v 0.982452 0.195148 0.247671
v 0.982405 0.194443 0.248062
v 0.982250 0.193642 0.248257
v 0.977351 0.194418 0.250477
v 0.976869 0.194003 0.249877
v 0.976427 0.193955 0.249190
v 0.976054 0.194169 0.248439
v 0.975770 0.194602 0.247756
v 0.975650 0.195305 0.247196
v 0.975725 0.196225 0.246888
v 0.975977 0.197127 0.246791
v 0.976371 0.197926 0.246944
v 0.976888 0.198373 0.247556
v 0.977417 0.198445 0.248308
v 0.977784 0.198110 0.249105
v 0.978012 0.197513 0.249801
v 0.978127 0.196878 0.250382
v 0.978110 0.196011 0.250770
v 0.977868 0.195140 0.250866
f 22 20 18
f 22 18 33
f 33 18 2
f 33 2 34
f 35 3 15
f 35 15 5
f 34 2 3
f 34 3 35
f 36 24 22
f 36 22 33
f 39 27 29
f 39 29 26
f 39 26 24
f 39 24 36
f 37 36 33
f 37 33 34
f 40 12 27
f 40 27 39
f 40 39 36
f 40 36 37
f 38 35 5
f 38 5 7
f 38 37 34
f 38 34 35
f 41 13 12
f 41 12 40
f 41 38 7
f 41 7 10
f 10 31 13
f 10 13 41
f 41 40 37
f 41 37 38
f 4 3 2
f 4 2 1
f 1 2 18
f 1 18 17
f 131 134 4
f 131 4 1
f 1 17 133
f 1 133 131
f 16 15 3
f 16 3 4
f 134 132 16
f 134 16 4
f 8 7 5
f 8 5 6
f 6 5 15
f 6 15 16
f 135 136 8
f 135 8 6
f 6 16 132
f 6 132 135
f 9 10 7
f 9 7 8
f 136 137 9
f 136 9 8
f 32 31 10
f 32 10 9
f 137 125 32
f 137 32 9
f 11 12 13
f 11 13 14
f 28 27 12
f 28 12 11
f 11 14 124
f 11 124 122
f 122 123 28
f 122 28 11
f 14 13 31
f 14 31 32
f 14 32 125
f 14 125 124
f 17 18 20
f 17 20 19
f 17 19 130
f 17 130 133
f 19 20 22
f 19 22 21
f 19 21 129
f 19 129 130
f 21 22 24
f 21 24 23
f 21 23 128
f 21 128 129
f 23 24 26
f 23 26 25
f 23 25 127
f 23 127 128
f 25 26 29
f 25 29 30
f 25 30 126
f 25 126 127
f 30 29 27
f 30 27 28
f 123 126 30
f 123 30 28
f 106 107 123
f 106 123 122
f 122 124 108
f 122 108 106
f 107 110 126
f 107 126 123
f 124 125 109
f 124 109 108
f 125 137 121
f 125 121 109
f 110 111 127
f 110 127 126
f 111 112 128
f 111 128 127
f 112 113 129
f 112 129 128
f 113 114 130
f 113 130 129
f 114 115 133
f 114 133 130
f 115 116 131
f 115 131 133
f 116 117 134
f 116 134 131
f 117 118 132
f 117 132 134
f 118 119 135
f 118 135 132
f 119 120 136
f 119 136 135
f 120 121 137
f 120 137 136
f 170 142 141
f 170 141 171
f 171 141 140
f 171 140 172
f 173 143 142
f 173 142 170
f 174 144 143
f 174 143 173
f 175 145 144
f 175 144 174
f 172 140 139
f 172 139 176
f 177 176 139
f 177 139 138
f 178 177 138
f 178 138 153
f 178 153 152
f 178 152 179
f 180 179 152
f 180 152 151
f 181 180 151
f 181 151 150
f 182 181 150
f 182 150 149
f 183 182 149
f 183 149 148
f 184 183 148
f 184 148 147
f 146 145 175
f 146 175 185
f 185 184 147
f 185 147 146
f 159 147 148
f 159 148 160
f 161 160 148
f 161 148 149
f 162 161 149
f 162 149 150
f 163 151 152
f 163 152 164
f 163 162 150
f 163 150 151
f 165 164 152
f 165 152 153
f 158 146 147
f 158 147 159
f 159 160 161
f 159 161 186
f 186 161 162
f 186 162 187
f 188 163 164
f 188 164 165
f 187 162 163
f 187 163 188
f 166 165 153
f 166 153 138
f 157 156 144
f 157 144 145
f 157 145 146
f 157 146 158
f 155 143 144
f 155 144 156
f 192 157 158
f 192 158 189
f 189 158 159
f 189 159 186
f 192 155 156
f 192 156 157
f 154 142 143
f 154 143 155
f 190 189 186
f 190 186 187
f 193 154 155
f 193 155 192
f 193 192 189
f 193 189 190
f 191 188 165
f 191 165 166
f 169 168 140
f 169 140 141
f 169 141 142
f 169 142 154
f 191 190 187
f 191 187 188
f 167 139 140
f 167 140 168
f 194 169 154
f 194 154 193
f 167 166 138
f 167 138 139
f 194 191 166
f 194 166 167
f 167 168 169
f 167 169 194
f 194 193 190
f 194 190 191
f 195 74 75
f 195 75 196
f 184 185 90
f 184 90 91
f 91 90 195
f 91 195 196
f 196 75 76
f 196 76 197
f 183 184 91
f 183 91 92
f 92 91 196
f 92 196 197
f 197 76 77
f 197 77 198
f 182 183 92
f 182 92 93
f 93 92 197
f 93 197 198
f 198 77 78
f 198 78 199
f 181 182 93
f 181 93 94
f 94 93 198
f 94 198 199
f 199 78 79
f 199 79 200
f 180 181 94
f 180 94 95
f 95 94 199
f 95 199 200
f 200 79 80
f 200 80 201
f 179 180 95
f 179 95 96
f 96 95 200
f 96 200 201
f 201 80 81
f 201 81 202
f 178 179 96
f 178 96 97
f 97 96 201
f 97 201 202
f 202 81 82
f 202 82 203
f 177 178 97
f 177 97 98
f 98 97 202
f 98 202 203
f 203 82 83
f 203 83 204
f 176 177 98
f 176 98 99
f 99 98 203
f 99 203 204
f 204 83 84
f 204 84 205
f 172 176 99
f 172 99 100
f 100 99 204
f 100 204 205
f 205 84 85
f 205 85 206
f 171 172 100
f 171 100 101
f 101 100 205
f 101 205 206
f 206 85 86
f 206 86 207
f 170 171 101
f 170 101 102
f 102 101 206
f 102 206 207
f 207 86 87
f 207 87 208
f 173 170 102
f 173 102 103
f 103 102 207
f 103 207 208
f 208 87 88
f 208 88 209
f 174 173 103
f 174 103 104
f 104 103 208
f 104 208 209
f 210 195 90
f 210 90 105
f 210 89 74
f 210 74 195
f 175 174 104
f 175 104 105
f 105 104 209
f 105 209 210
f 105 90 185
f 105 185 175
f 209 88 89
f 209 89 210
f 42 43 212
f 42 212 211
f 120 119 43
f 120 43 42
f 211 226 57
f 211 57 42
f 42 57 121
f 42 121 120
f 43 44 213
f 43 213 212
f 119 118 44
f 119 44 43
f 44 45 214
f 44 214 213
f 118 117 45
f 118 45 44
f 45 46 215
f 45 215 214
f 117 116 46
f 117 46 45
f 46 47 216
f 46 216 215
f 116 115 47
f 116 47 46
f 47 48 217
f 47 217 216
f 115 114 48
f 115 48 47
f 48 49 218
f 48 218 217
f 114 113 49
f 114 49 48
f 49 50 219
f 49 219 218
f 113 112 50
f 113 50 49
f 50 51 220
f 50 220 219
f 112 111 51
f 112 51 50
f 51 52 221
f 51 221 220
f 111 110 52
f 111 52 51
f 52 53 222
f 52 222 221
f 110 107 53
f 110 53 52
f 53 54 223
f 53 223 222
f 107 106 54
f 107 54 53
f 54 55 224
f 54 224 223
f 106 108 55
f 106 55 54
f 55 56 225
f 55 225 224
f 108 109 56
f 108 56 55
f 56 57 226
f 56 226 225
f 109 121 57
f 109 57 56
f 58 59 75
f 58 75 74
f 211 212 59
f 211 59 58
f 74 89 73
f 74 73 58
f 58 73 226
f 58 226 211
f 59 60 76
f 59 76 75
f 212 213 60
f 212 60 59
f 60 61 77
f 60 77 76
f 213 214 61
f 213 61 60
f 61 62 78
f 61 78 77
f 214 215 62
f 214 62 61
f 62 63 79
f 62 79 78
f 215 216 63
f 215 63 62
f 63 64 80
f 63 80 79
f 216 217 64
f 216 64 63
f 64 65 81
f 64 81 80
f 217 218 65
f 217 65 64
f 65 66 82
f 65 82 81
f 218 219 66
f 218 66 65
f 66 67 83
f 66 83 82
f 219 220 67
f 219 67 66
f 67 68 84
f 67 84 83
f 220 221 68
f 220 68 67
f 68 69 85
f 68 85 84
f 221 222 69
f 221 69 68
f 69 70 86
f 69 86 85
f 222 223 70
f 222 70 69
f 70 71 87
f 70 87 86
f 223 224 71
f 223 71 70
f 71 72 88
f 71 88 87
f 224 225 72
f 224 72 71
f 72 73 89
f 72 89 88
f 225 226 73
f 225 73 72
