# _3rd_Metacarpal_L rest
v 0.805236 0.032344 -0.054405
v 0.806780 0.036051 -0.056102
v 0.809916 0.034447 -0.057921
v 0.808663 0.030779 -0.057094
v 0.799188 0.039329 -0.065483
v 0.802415 0.037104 -0.069155
v 0.806293 0.039506 -0.067340
v 0.803741 0.041361 -0.063839
v 0.806062 0.039595 -0.058817
v 0.807245 0.029247 -0.065217
v 0.809022 0.028100 -0.060289
v 0.804667 0.032063 -0.070144
v 0.810945 0.039030 -0.061819
v 0.809024 0.034678 -0.068133
v 0.811819 0.031609 -0.061037
v 0.811298 0.033266 -0.064559
v 0.801604 0.038438 -0.056701
v 0.798681 0.032194 -0.067373
v 0.801761 0.028970 -0.062907
v 0.803885 0.027791 -0.057878
v 0.798516 0.032087 -0.053140
v 0.796208 0.037082 -0.055016
v 0.793669 0.037715 -0.061778
v 0.794454 0.032554 -0.063100
v 0.796275 0.028740 -0.060228
v 0.797978 0.028389 -0.055634
v 0.789604 0.028456 -0.053065
v 0.789306 0.031536 -0.051812
v 0.787701 0.035556 -0.052971
v 0.786028 0.035691 -0.058399
v 0.787084 0.031054 -0.060049
v 0.788696 0.027654 -0.057262
v 0.778874 0.026202 -0.050020
v 0.778213 0.029485 -0.049141
v 0.776843 0.032806 -0.050340
v 0.775869 0.032266 -0.054650
v 0.776563 0.028538 -0.056433
v 0.777962 0.025416 -0.054188
v 0.768392 0.022208 -0.046897
v 0.767369 0.026382 -0.045946
v 0.765931 0.029415 -0.047990
v 0.765122 0.028711 -0.052116
v 0.765777 0.025165 -0.053580
v 0.767075 0.022316 -0.051478
v 0.760070 0.017822 -0.044843
v 0.758829 0.022635 -0.042044
v 0.756685 0.027647 -0.044856
v 0.755211 0.026456 -0.051445
v 0.756572 0.021682 -0.052333
v 0.758466 0.018514 -0.049799
v 0.751045 0.015363 -0.047228
v 0.749944 0.018539 -0.051437
v 0.751360 0.014195 -0.039731
v 0.746293 0.024404 -0.050014
v 0.751645 0.019674 -0.037086
v 0.747020 0.023503 -0.041587
v 0.809263 0.038505 -0.057613
v 0.810531 0.037016 -0.065967
v 0.812513 0.034830 -0.061124
v 0.807127 0.040710 -0.062701
v 0.808863 0.031707 -0.067531
v 0.810611 0.029985 -0.063215
v 0.810743 0.030781 -0.058750
v 0.806099 0.036022 -0.069959
v 0.807438 0.033445 -0.056702
v 0.804893 0.037606 -0.055052
v 0.802682 0.039911 -0.060827
v 0.803012 0.038796 -0.066095
v 0.800289 0.035175 -0.069615
v 0.802965 0.029729 -0.066940
v 0.805541 0.026935 -0.062052
v 0.806714 0.029176 -0.057061
v 0.773170 0.026248 -0.047458
v 0.772010 0.029681 -0.047858
v 0.770750 0.031003 -0.051377
v 0.770611 0.028870 -0.054580
v 0.771714 0.025375 -0.053993
v 0.773199 0.023171 -0.050618
v 0.797682 0.039331 -0.059120
v 0.791097 0.037528 -0.056837
v 0.781559 0.034998 -0.054036
v 0.796278 0.035529 -0.065402
v 0.790504 0.034442 -0.061468
v 0.781295 0.032192 -0.058175
v 0.798028 0.030688 -0.063551
v 0.792149 0.029965 -0.060407
v 0.782780 0.027946 -0.057421
v 0.800009 0.027428 -0.059354
v 0.784136 0.026590 -0.053444
v 0.793588 0.027718 -0.056538
v 0.800693 0.035744 -0.053525
v 0.793534 0.034304 -0.052587
v 0.801745 0.030288 -0.055450
v 0.794462 0.030249 -0.053146
v 0.784242 0.029104 -0.050637
v 0.783265 0.032539 -0.050527
v 0.761538 0.021801 -0.051879
v 0.763089 0.019913 -0.048286
v 0.760310 0.025551 -0.052984
v 0.763627 0.022279 -0.043983
v 0.761892 0.026859 -0.044817
v 0.760332 0.028239 -0.049143
v 0.753389 0.024122 -0.039991
v 0.751119 0.022592 -0.052466
v 0.754160 0.018078 -0.050977
v 0.751182 0.028164 -0.047049
v 0.756450 0.014825 -0.046836
v 0.749383 0.017022 -0.045219
v 0.755927 0.017471 -0.040434
v 0.745961 0.018377 -0.040166
v 0.747473 0.021138 -0.046220
v 0.805845 0.034831 -0.054588
v 0.808218 0.035890 -0.057323
v 0.809806 0.032070 -0.057580
v 0.806761 0.030719 -0.056141
v 0.800283 0.037226 -0.067944
v 0.804690 0.037979 -0.068721
v 0.805526 0.041091 -0.065155
v 0.801310 0.040985 -0.063942
v 0.806761 0.038273 -0.056489
v 0.804992 0.040574 -0.061379
v 0.803172 0.035252 -0.070478
v 0.808432 0.027964 -0.063011
v 0.808984 0.029333 -0.058006
v 0.806142 0.029987 -0.067882
v 0.811743 0.037276 -0.059001
v 0.808500 0.039946 -0.060102
v 0.809192 0.039798 -0.064663
v 0.808513 0.036939 -0.068349
v 0.807578 0.033420 -0.069336
v 0.811918 0.032807 -0.059494
v 0.810955 0.029882 -0.060909
v 0.810230 0.034036 -0.066548
v 0.811911 0.036231 -0.063511
v 0.811839 0.032345 -0.062598
v 0.809828 0.030748 -0.065341
v 0.803875 0.038754 -0.057925
v 0.800224 0.039913 -0.060131
v 0.803123 0.036690 -0.053967
v 0.801235 0.031643 -0.069418
v 0.800456 0.030627 -0.065208
v 0.804483 0.029088 -0.064116
v 0.802737 0.026934 -0.060719
v 0.806458 0.027463 -0.059131
v 0.798083 0.035610 -0.067670
v 0.804412 0.029823 -0.056180
v 0.801844 0.032288 -0.053956
v 0.799162 0.037773 -0.055779
v 0.797593 0.035058 -0.053035
v 0.794800 0.038461 -0.058004
v 0.796377 0.038509 -0.063553
v 0.793805 0.035112 -0.063235
v 0.796828 0.032631 -0.065090
v 0.795376 0.030419 -0.062012
v 0.799125 0.029126 -0.061505
v 0.797073 0.027500 -0.058070
v 0.801156 0.028184 -0.056738
v 0.798544 0.030259 -0.054263
v 0.789602 0.029955 -0.052054
v 0.788672 0.033563 -0.051813
v 0.786657 0.036432 -0.055563
v 0.786334 0.033430 -0.059986
v 0.787923 0.029018 -0.059040
v 0.789307 0.027435 -0.054980
v 0.778634 0.027918 -0.049166
v 0.777628 0.031122 -0.049272
v 0.776182 0.033085 -0.052606
v 0.775986 0.030630 -0.056183
v 0.777254 0.026744 -0.055645
v 0.778615 0.025112 -0.052003
v 0.768062 0.024333 -0.045713
v 0.766697 0.028162 -0.046505
v 0.765371 0.029376 -0.050210
v 0.765276 0.027150 -0.053568
v 0.766368 0.023619 -0.052789
v 0.767903 0.021523 -0.049357
v 0.759970 0.019753 -0.042378
v 0.757730 0.025432 -0.042971
v 0.755595 0.028071 -0.048335
v 0.755760 0.023854 -0.052635
v 0.757436 0.019900 -0.051425
v 0.759365 0.017606 -0.047521
v 0.784387 0.027567 -0.051572
v 0.783864 0.030696 -0.050506
v 0.782381 0.034414 -0.051635
v 0.781083 0.034218 -0.056567
v 0.781980 0.029865 -0.058369
v 0.783524 0.026725 -0.055665
v 0.773477 0.024295 -0.048391
v 0.772634 0.027987 -0.047529
v 0.771261 0.031042 -0.049203
v 0.770520 0.030326 -0.053127
v 0.771142 0.026972 -0.054693
v 0.772409 0.023928 -0.052788
v 0.763752 0.020213 -0.045768
v 0.762748 0.024703 -0.044110
v 0.761007 0.028277 -0.046537
v 0.760043 0.027428 -0.051472
v 0.760903 0.023401 -0.052818
v 0.762295 0.020608 -0.050381
v 0.792340 0.036359 -0.054126
v 0.790223 0.036848 -0.059974
v 0.791270 0.032006 -0.061481
v 0.792927 0.028413 -0.058734
v 0.794173 0.028656 -0.054419
v 0.794303 0.031963 -0.052534
v 0.755280 0.016366 -0.049370
v 0.752678 0.020035 -0.052069
v 0.751865 0.016915 -0.050351
v 0.752987 0.013771 -0.044964
v 0.756914 0.014906 -0.043019
v 0.747258 0.021670 -0.051575
v 0.750345 0.025893 -0.051447
v 0.755215 0.020667 -0.039559
v 0.750421 0.016950 -0.037152
v 0.752837 0.026692 -0.043274
v 0.747143 0.022576 -0.039283
v 0.746351 0.024722 -0.044517
v 0.748653 0.018456 -0.047298
v 0.747490 0.016072 -0.041280
v 0.807002 0.031525 -0.056153
v 0.806105 0.032609 -0.055074
v 0.806170 0.034360 -0.055372
v 0.806791 0.035771 -0.056283
v 0.807936 0.035330 -0.057321
v 0.809104 0.034314 -0.057832
v 0.809085 0.032572 -0.057392
v 0.808448 0.031327 -0.056936
v 0.801848 0.040069 -0.065032
v 0.800707 0.038838 -0.065769
v 0.801247 0.037706 -0.067033
v 0.802576 0.037535 -0.068083
v 0.804016 0.038192 -0.067476
v 0.804905 0.039174 -0.066836
v 0.804426 0.040152 -0.065724
v 0.803287 0.040879 -0.064920
v 0.748982 0.021158 -0.036723
v 0.749069 0.025832 -0.041867
v 0.747485 0.026812 -0.044973
v 0.748676 0.017889 -0.049554
v 0.748557 0.014851 -0.039536
v 0.747023 0.017515 -0.036668
v 0.747706 0.019598 -0.043530
v 0.749498 0.024715 -0.039905
v 0.746345 0.021329 -0.049496
v 0.745663 0.023357 -0.048398
v 0.807925 0.038482 -0.057087
v 0.809056 0.039470 -0.058738
v 0.807265 0.039885 -0.059405
v 0.806460 0.039114 -0.057518
v 0.807701 0.039388 -0.058113
v 0.807844 0.040331 -0.061412
v 0.806090 0.040739 -0.061940
v 0.805572 0.040047 -0.060120
v 0.806712 0.040307 -0.060691
v 0.804958 0.039145 -0.058378
v 0.804352 0.038391 -0.056369
v 0.805780 0.037980 -0.055788
v 0.805378 0.038772 -0.056941
v 0.803852 0.040239 -0.061056
v 0.803351 0.039204 -0.059378
v 0.804473 0.039570 -0.059750
v 0.810254 0.030330 -0.064287
v 0.809662 0.028859 -0.063231
v 0.807813 0.028675 -0.064102
v 0.808688 0.029749 -0.065482
v 0.809185 0.029285 -0.064366
v 0.807011 0.027358 -0.062584
v 0.804989 0.028133 -0.063080
v 0.805782 0.029152 -0.064672
v 0.806361 0.028442 -0.063591
v 0.806723 0.029571 -0.066507
v 0.807668 0.030706 -0.067877
v 0.809377 0.031176 -0.066442
v 0.808203 0.030169 -0.066668
v 0.803825 0.029531 -0.065428
v 0.804488 0.029644 -0.067545
v 0.805186 0.029399 -0.066034
v 0.810841 0.029814 -0.062082
v 0.810106 0.028902 -0.060674
v 0.808860 0.027762 -0.061683
v 0.809972 0.028724 -0.061977
v 0.810959 0.030216 -0.059752
v 0.809950 0.029925 -0.058404
v 0.809065 0.028632 -0.059004
v 0.810121 0.029303 -0.059418
v 0.807780 0.027602 -0.059751
v 0.806105 0.026758 -0.060585
v 0.807532 0.027083 -0.061200
v 0.807878 0.029095 -0.057541
v 0.806633 0.028299 -0.057956
v 0.807881 0.028301 -0.058493
v 0.806282 0.032680 -0.069894
v 0.808255 0.032439 -0.068520
v 0.805450 0.030783 -0.069181
v 0.807027 0.031525 -0.069001
v 0.804682 0.035577 -0.070405
v 0.806870 0.034664 -0.069892
v 0.803872 0.033691 -0.070597
v 0.805469 0.034120 -0.070410
v 0.802908 0.031707 -0.069975
v 0.800638 0.033421 -0.069856
v 0.801676 0.035114 -0.070185
v 0.802212 0.033459 -0.070385
v 0.802054 0.030374 -0.068359
v 0.803701 0.030367 -0.068967
v 0.811294 0.036705 -0.064732
v 0.810092 0.038598 -0.065483
v 0.810155 0.039499 -0.063240
v 0.811719 0.037793 -0.062745
v 0.811000 0.038297 -0.064111
v 0.808135 0.040417 -0.063642
v 0.809727 0.039665 -0.060905
v 0.808975 0.040067 -0.062272
v 0.812429 0.036126 -0.060055
v 0.812361 0.035619 -0.062281
v 0.811563 0.038329 -0.060348
v 0.812263 0.037093 -0.061353
v 0.810592 0.038096 -0.058212
v 0.810381 0.039109 -0.059470
v 0.809608 0.037114 -0.067224
v 0.810530 0.035438 -0.066246
v 0.809572 0.034387 -0.067462
v 0.808896 0.035585 -0.068260
v 0.809739 0.035620 -0.067287
v 0.809701 0.032821 -0.067027
v 0.808501 0.034132 -0.068679
v 0.809101 0.033380 -0.067946
v 0.807349 0.036517 -0.069248
v 0.807985 0.035210 -0.069136
v 0.812260 0.033564 -0.061976
v 0.812345 0.033857 -0.060171
v 0.811941 0.032100 -0.060406
v 0.811882 0.031907 -0.061692
v 0.812181 0.032872 -0.061072
v 0.811380 0.031769 -0.059072
v 0.811526 0.030858 -0.061008
v 0.811542 0.031196 -0.060034
v 0.811301 0.031166 -0.062999
v 0.811464 0.030889 -0.062000
v 0.811644 0.032815 -0.063565
v 0.811768 0.034693 -0.064107
v 0.812134 0.034172 -0.063018
v 0.810654 0.031963 -0.064976
v 0.811021 0.031548 -0.063983
v 0.810821 0.033668 -0.065563
v 0.810215 0.032372 -0.066004
v 0.811223 0.035122 -0.065187
v 0.801458 0.039949 -0.060511
v 0.800932 0.039172 -0.058271
v 0.802753 0.038635 -0.057296
v 0.802148 0.039248 -0.058823
v 0.798980 0.039654 -0.059658
v 0.798436 0.038612 -0.057300
v 0.800420 0.038095 -0.056221
v 0.799712 0.038900 -0.057781
v 0.802282 0.037668 -0.055266
v 0.804051 0.037182 -0.054414
v 0.803337 0.038030 -0.055789
v 0.799915 0.036903 -0.054466
v 0.801992 0.036182 -0.053718
v 0.801151 0.037276 -0.054836
v 0.801662 0.030175 -0.066118
v 0.799534 0.031271 -0.066425
v 0.799797 0.031822 -0.068529
v 0.800674 0.030744 -0.067473
v 0.799259 0.030771 -0.064358
v 0.797371 0.031526 -0.064450
v 0.797753 0.032472 -0.066214
v 0.798459 0.031493 -0.065419
v 0.798210 0.033791 -0.067794
v 0.799090 0.035397 -0.068752
v 0.799269 0.033557 -0.068974
v 0.796454 0.034016 -0.065466
v 0.797195 0.035644 -0.066545
v 0.797340 0.033956 -0.066618
v 0.804103 0.026749 -0.061436
v 0.802247 0.027875 -0.061877
v 0.803142 0.028967 -0.063542
v 0.803637 0.027885 -0.062506
v 0.801398 0.027262 -0.060002
v 0.799544 0.028168 -0.060521
v 0.800444 0.029102 -0.062196
v 0.800905 0.028078 -0.061187
v 0.798634 0.029963 -0.062515
v 0.801192 0.029893 -0.064005
v 0.799928 0.030024 -0.063241
v 0.802501 0.029695 -0.064751
v 0.805581 0.029463 -0.056592
v 0.804164 0.028852 -0.056983
v 0.805165 0.027583 -0.058498
v 0.805401 0.028526 -0.057445
v 0.803131 0.030142 -0.055865
v 0.801512 0.029255 -0.056033
v 0.802564 0.028007 -0.057296
v 0.802884 0.029129 -0.056545
v 0.800603 0.027386 -0.057922
v 0.803365 0.026904 -0.059205
v 0.802011 0.027172 -0.058537
v 0.804714 0.026716 -0.059906
v 0.801433 0.033987 -0.053291
v 0.799250 0.035397 -0.053270
v 0.798167 0.033510 -0.052797
v 0.800253 0.032179 -0.053552
v 0.799885 0.033735 -0.053048
v 0.795680 0.034690 -0.052819
v 0.793996 0.033051 -0.052425
v 0.796525 0.032037 -0.052836
v 0.796198 0.033287 -0.052621
v 0.800239 0.030282 -0.054865
v 0.801888 0.031214 -0.054773
v 0.798619 0.031123 -0.053681
v 0.800337 0.031173 -0.054233
v 0.794445 0.031095 -0.052782
v 0.796612 0.030269 -0.053701
v 0.796646 0.031124 -0.053222
v 0.796311 0.038934 -0.058567
v 0.795502 0.037874 -0.056401
v 0.797781 0.037444 -0.055383
v 0.797054 0.038274 -0.056844
v 0.793060 0.037978 -0.057426
v 0.791705 0.037082 -0.055393
v 0.794384 0.036718 -0.054605
v 0.793713 0.037469 -0.055926
v 0.796921 0.036200 -0.053834
v 0.798526 0.036556 -0.054133
v 0.792967 0.035439 -0.053146
v 0.795058 0.035827 -0.053509
v 0.796230 0.037049 -0.064820
v 0.795140 0.035350 -0.064296
v 0.793612 0.036475 -0.062816
v 0.795072 0.038117 -0.062685
v 0.794994 0.036772 -0.063818
v 0.792252 0.034818 -0.062297
v 0.790239 0.035734 -0.060976
v 0.792059 0.037289 -0.060830
v 0.792027 0.036138 -0.061844
v 0.794106 0.038485 -0.059983
v 0.796907 0.039413 -0.061424
v 0.795553 0.038980 -0.060726
v 0.790550 0.037490 -0.058467
v 0.792445 0.037977 -0.059199
v 0.796756 0.030589 -0.062771
v 0.794882 0.031395 -0.062689
v 0.795749 0.032670 -0.064028
v 0.796207 0.031525 -0.063522
v 0.793858 0.030211 -0.061220
v 0.791703 0.030900 -0.061075
v 0.792963 0.032326 -0.062270
v 0.793391 0.031180 -0.061885
v 0.794101 0.033810 -0.063285
v 0.795392 0.033969 -0.064324
v 0.790867 0.033200 -0.061605
v 0.792587 0.033553 -0.062397
v 0.798587 0.027491 -0.058724
v 0.796662 0.027970 -0.059233
v 0.797742 0.028960 -0.060874
v 0.798147 0.028104 -0.059883
v 0.795417 0.027571 -0.057335
v 0.793263 0.027888 -0.057695
v 0.794684 0.028533 -0.059530
v 0.795045 0.027872 -0.058512
v 0.795851 0.029566 -0.061157
v 0.797284 0.029784 -0.061846
v 0.792557 0.029141 -0.059622
v 0.794295 0.029344 -0.060418
v 0.798319 0.029324 -0.054875
v 0.799632 0.028289 -0.056190
v 0.800000 0.029289 -0.055459
v 0.794364 0.029417 -0.053684
v 0.796167 0.028534 -0.055042
v 0.796441 0.029389 -0.054289
v 0.797542 0.027642 -0.056747
v 0.799126 0.027533 -0.057343
v 0.793906 0.028018 -0.055385
v 0.795813 0.027821 -0.056086
v 0.792122 0.030145 -0.052587
v 0.789645 0.029165 -0.052423
v 0.791981 0.028650 -0.053763
v 0.792093 0.029358 -0.053066
v 0.786965 0.029585 -0.051384
v 0.784360 0.028296 -0.050960
v 0.787057 0.028079 -0.052329
v 0.787054 0.028793 -0.051713
v 0.784315 0.026966 -0.052419
v 0.786804 0.027096 -0.054205
v 0.789496 0.027844 -0.053927
v 0.786977 0.027481 -0.053175
v 0.791561 0.027659 -0.055757
v 0.791803 0.028038 -0.054667
v 0.791188 0.033944 -0.052267
v 0.789038 0.032462 -0.051756
v 0.791888 0.031801 -0.052188
v 0.791599 0.032788 -0.052143
v 0.786016 0.033097 -0.051210
v 0.783601 0.031558 -0.050474
v 0.786618 0.031161 -0.051231
v 0.786359 0.032052 -0.051175
v 0.784071 0.029903 -0.050541
v 0.789486 0.030745 -0.051898
v 0.786813 0.030375 -0.051283
v 0.792053 0.030967 -0.052327
v 0.788956 0.037048 -0.056228
v 0.787158 0.036166 -0.054164
v 0.790113 0.035984 -0.053580
v 0.789520 0.036669 -0.054804
v 0.784184 0.035718 -0.054814
v 0.781937 0.034897 -0.052754
v 0.785100 0.035027 -0.052321
v 0.784615 0.035552 -0.053474
v 0.782846 0.033570 -0.050870
v 0.788218 0.034664 -0.052172
v 0.785585 0.034169 -0.051544
v 0.790683 0.035065 -0.052708
v 0.788544 0.033966 -0.060726
v 0.786076 0.034661 -0.059416
v 0.788213 0.036320 -0.059207
v 0.788264 0.035231 -0.060207
v 0.783888 0.032847 -0.059131
v 0.781106 0.033314 -0.057532
v 0.783633 0.034991 -0.057503
v 0.783666 0.034029 -0.058511
v 0.781258 0.034768 -0.055348
v 0.786257 0.036279 -0.057028
v 0.783838 0.035535 -0.056198
v 0.788482 0.036949 -0.057773
v 0.790173 0.029574 -0.059681
v 0.787503 0.029964 -0.059666
v 0.789313 0.031578 -0.060760
v 0.789742 0.030493 -0.060349
v 0.785437 0.028498 -0.058261
v 0.782381 0.028826 -0.058019
v 0.784615 0.030482 -0.059242
v 0.785026 0.029413 -0.058875
v 0.781600 0.031011 -0.058448
v 0.786683 0.032219 -0.060173
v 0.784221 0.031641 -0.059352
v 0.788907 0.032747 -0.060890
v 0.789034 0.027355 -0.056142
v 0.783863 0.026501 -0.054564
v 0.786197 0.027246 -0.056456
v 0.786534 0.027010 -0.055339
v 0.790936 0.028099 -0.057990
v 0.791269 0.027672 -0.056920
v 0.783161 0.027245 -0.056620
v 0.788323 0.028251 -0.058223
v 0.785829 0.027777 -0.057433
v 0.790572 0.028785 -0.058888
v 0.778810 0.027027 -0.049412
v 0.775859 0.027146 -0.048360
v 0.773383 0.025251 -0.047732
v 0.776142 0.025310 -0.049212
v 0.776059 0.026205 -0.048595
v 0.781447 0.028557 -0.049911
v 0.781641 0.026938 -0.050799
v 0.781598 0.027705 -0.050188
v 0.773427 0.023521 -0.049397
v 0.775888 0.024163 -0.051302
v 0.778803 0.025532 -0.050920
v 0.776085 0.024580 -0.050156
v 0.781378 0.025935 -0.052713
v 0.781564 0.026322 -0.051671
v 0.777947 0.030259 -0.049171
v 0.774798 0.030398 -0.048581
v 0.772344 0.028803 -0.047649
v 0.775394 0.028755 -0.048377
v 0.775121 0.029535 -0.048440
v 0.780459 0.031859 -0.049899
v 0.781049 0.030136 -0.049835
v 0.780785 0.030947 -0.049828
v 0.772906 0.027161 -0.047447
v 0.778430 0.028733 -0.049127
v 0.775631 0.027988 -0.048339
v 0.781260 0.029365 -0.049847
v 0.776466 0.033135 -0.051458
v 0.773467 0.032023 -0.051974
v 0.770957 0.031137 -0.050350
v 0.774038 0.031933 -0.049756
v 0.773703 0.032133 -0.050895
v 0.778869 0.034154 -0.053296
v 0.779623 0.033670 -0.050961
v 0.779206 0.034113 -0.052068
v 0.771635 0.030527 -0.048311
v 0.777255 0.032050 -0.049593
v 0.774429 0.031288 -0.048949
v 0.780064 0.032840 -0.050223
v 0.775863 0.031559 -0.055519
v 0.773306 0.029759 -0.055307
v 0.770502 0.029720 -0.053957
v 0.773212 0.031265 -0.053821
v 0.773196 0.030628 -0.054661
v 0.778651 0.031451 -0.057164
v 0.778474 0.033316 -0.055618
v 0.778491 0.032488 -0.056524
v 0.770613 0.030729 -0.052264
v 0.775983 0.032775 -0.053668
v 0.773310 0.031717 -0.052923
v 0.778615 0.033874 -0.054507
v 0.776909 0.027580 -0.056129
v 0.774477 0.026089 -0.054792
v 0.771426 0.026135 -0.054403
v 0.773856 0.027788 -0.055512
v 0.774166 0.026892 -0.055227
v 0.780034 0.027368 -0.056531
v 0.779281 0.029227 -0.057403
v 0.779658 0.028225 -0.057077
v 0.770851 0.027906 -0.054793
v 0.776236 0.029582 -0.056482
v 0.773549 0.028768 -0.055572
v 0.778928 0.030330 -0.057455
v 0.778322 0.025068 -0.053147
v 0.772826 0.023359 -0.051814
v 0.775176 0.024681 -0.053485
v 0.775563 0.024213 -0.052477
v 0.780755 0.026115 -0.054909
v 0.781097 0.025859 -0.053835
v 0.772035 0.024636 -0.053483
v 0.777601 0.026018 -0.055009
v 0.774808 0.025349 -0.054232
v 0.780396 0.026657 -0.055808
v 0.770567 0.025291 -0.046555
v 0.768311 0.023202 -0.046082
v 0.770908 0.023214 -0.047588
v 0.770805 0.024218 -0.046866
v 0.765720 0.023366 -0.044884
v 0.763859 0.021037 -0.044609
v 0.765983 0.021226 -0.046294
v 0.765975 0.022162 -0.045331
v 0.763444 0.019905 -0.047065
v 0.765398 0.020765 -0.048797
v 0.768242 0.021611 -0.048078
v 0.765752 0.020785 -0.047546
v 0.770526 0.022293 -0.049962
v 0.770825 0.022483 -0.048684
v 0.769301 0.028919 -0.047189
v 0.767048 0.027261 -0.046184
v 0.769947 0.027195 -0.046717
v 0.769640 0.028039 -0.046911
v 0.764220 0.027482 -0.045719
v 0.762328 0.025771 -0.044417
v 0.764958 0.025568 -0.045111
v 0.764604 0.026515 -0.045369
v 0.763200 0.023556 -0.043895
v 0.767710 0.025428 -0.045751
v 0.765336 0.024543 -0.044899
v 0.770257 0.026300 -0.046570
v 0.768042 0.030102 -0.050789
v 0.765607 0.029500 -0.049136
v 0.768554 0.030176 -0.048628
v 0.768252 0.030238 -0.049768
v 0.762802 0.028751 -0.049648
v 0.760633 0.028360 -0.047842
v 0.763409 0.028774 -0.047297
v 0.763065 0.028868 -0.048488
v 0.761435 0.027789 -0.045486
v 0.766309 0.028967 -0.047062
v 0.763805 0.028319 -0.046329
v 0.768923 0.029729 -0.047704
v 0.767929 0.027986 -0.053979
v 0.765134 0.028060 -0.052984
v 0.767811 0.029460 -0.052560
v 0.767804 0.028851 -0.053395
v 0.762729 0.026350 -0.053229
v 0.760105 0.026606 -0.052434
v 0.762535 0.028044 -0.051737
v 0.762567 0.027320 -0.052645
v 0.760128 0.027958 -0.050341
v 0.765215 0.029120 -0.051172
v 0.762626 0.028493 -0.050709
v 0.767903 0.029847 -0.051681
v 0.768993 0.024562 -0.053302
v 0.766066 0.024337 -0.053245
v 0.768432 0.026092 -0.054026
v 0.768709 0.025283 -0.053720
v 0.763872 0.022707 -0.052294
v 0.761212 0.022532 -0.052421
v 0.763260 0.024268 -0.053177
v 0.763560 0.023418 -0.052804
v 0.760596 0.024432 -0.053048
v 0.765506 0.026133 -0.053731
v 0.762977 0.025279 -0.053358
v 0.768160 0.027017 -0.054152
v 0.767490 0.021808 -0.050514
v 0.769687 0.023169 -0.052096
v 0.770112 0.022590 -0.051145
v 0.762703 0.020162 -0.049399
v 0.764594 0.021477 -0.050892
v 0.765000 0.021019 -0.049924
v 0.761899 0.021165 -0.051202
v 0.766698 0.022946 -0.052218
v 0.764213 0.022063 -0.051668
v 0.769311 0.023860 -0.052785
v 0.761762 0.021039 -0.043119
v 0.760220 0.018539 -0.043403
v 0.761774 0.019094 -0.045301
v 0.761965 0.019817 -0.043978
v 0.758136 0.018500 -0.041602
v 0.756456 0.016102 -0.041449
v 0.758633 0.016389 -0.044205
v 0.758579 0.017226 -0.042659
v 0.756878 0.014481 -0.044971
v 0.757933 0.016210 -0.047244
v 0.759741 0.017564 -0.046225
v 0.758369 0.016078 -0.045767
v 0.761062 0.018875 -0.047845
v 0.761429 0.018842 -0.046622
v 0.759727 0.026186 -0.043911
v 0.758256 0.024035 -0.042431
v 0.760711 0.023708 -0.043094
v 0.760209 0.024934 -0.043461
v 0.757027 0.021569 -0.040904
v 0.755589 0.018958 -0.039877
v 0.759446 0.021177 -0.041967
v 0.757591 0.019954 -0.041075
v 0.761271 0.022409 -0.042890
v 0.757919 0.028008 -0.048729
v 0.756116 0.028029 -0.046501
v 0.758749 0.027941 -0.045708
v 0.758301 0.028099 -0.047189
v 0.757218 0.026724 -0.043715
v 0.759232 0.027293 -0.044599
v 0.758018 0.024693 -0.052781
v 0.755406 0.025164 -0.052352
v 0.757592 0.026924 -0.051425
v 0.757731 0.025882 -0.052371
v 0.753459 0.023164 -0.052588
v 0.750600 0.024071 -0.052278
v 0.752820 0.026129 -0.051502
v 0.753046 0.024559 -0.052343
v 0.750525 0.027588 -0.049538
v 0.753368 0.028222 -0.047836
v 0.755264 0.027552 -0.050067
v 0.752906 0.027593 -0.049941
v 0.757663 0.027651 -0.050156
v 0.759380 0.020884 -0.051583
v 0.756984 0.020753 -0.051966
v 0.758689 0.022550 -0.052513
v 0.759018 0.021667 -0.052127
v 0.755710 0.018918 -0.051277
v 0.753464 0.019003 -0.051571
v 0.754541 0.020821 -0.052267
v 0.755118 0.019818 -0.051852
v 0.751846 0.021270 -0.052410
v 0.756160 0.022705 -0.052568
v 0.753972 0.021942 -0.052537
v 0.758353 0.023561 -0.052751
v 0.758945 0.017947 -0.048735
v 0.760248 0.019608 -0.050017
v 0.760675 0.019141 -0.048991
v 0.755870 0.015533 -0.048273
v 0.756890 0.017420 -0.049645
v 0.757428 0.016720 -0.048553
v 0.754740 0.017216 -0.050254
v 0.757944 0.019168 -0.050691
v 0.756308 0.018144 -0.050539
v 0.759800 0.020199 -0.050880
v 0.803483 0.032346 -0.054042
v 0.804768 0.030834 -0.055332
v 0.803409 0.031089 -0.055017
v 0.804188 0.034784 -0.053472
v 0.802929 0.034319 -0.053322
v 0.806739 0.030061 -0.056467
v 0.806000 0.031222 -0.055472
v 0.805787 0.030425 -0.055909
v 0.805497 0.036130 -0.054428
v 0.805585 0.033893 -0.054152
v 0.804940 0.035494 -0.053794
v 0.747595 0.017444 -0.042650
v 0.806113 0.033353 -0.055049
v 0.748743 0.019008 -0.045748
v 0.748625 0.018191 -0.044415
v 0.806856 0.036945 -0.056090
v 0.806223 0.035567 -0.055370
v 0.806118 0.036611 -0.055295
v 0.806442 0.035298 -0.055904
v 0.746508 0.020889 -0.041197
v 0.746813 0.018897 -0.042013
v 0.807468 0.036139 -0.056748
v 0.808698 0.036888 -0.057325
v 0.807732 0.037051 -0.056753
v 0.807262 0.035715 -0.056765
v 0.748034 0.024473 -0.040457
v 0.747053 0.023012 -0.040551
v 0.810974 0.035800 -0.058207
v 0.809002 0.035400 -0.057723
v 0.809743 0.036461 -0.057768
v 0.811320 0.033634 -0.058496
v 0.812023 0.034891 -0.059067
v 0.808647 0.034820 -0.057712
v 0.747389 0.025522 -0.042662
v 0.747795 0.024988 -0.041449
v 0.807674 0.034532 -0.057111
v 0.806653 0.033992 -0.056070
v 0.806923 0.035018 -0.056528
v 0.809988 0.033110 -0.057790
v 0.810305 0.031476 -0.057986
v 0.810815 0.032485 -0.058200
v 0.808343 0.032938 -0.057143
v 0.809172 0.033580 -0.057712
v 0.808500 0.034001 -0.057522
v 0.746912 0.022290 -0.043613
v 0.746928 0.021468 -0.042444
v 0.808820 0.030135 -0.057399
v 0.809362 0.031283 -0.057372
v 0.809656 0.030666 -0.057731
v 0.807715 0.030579 -0.056683
v 0.807793 0.029941 -0.056969
v 0.747940 0.020445 -0.044822
v 0.806387 0.032079 -0.055544
v 0.746812 0.024197 -0.042754
v 0.808808 0.031774 -0.057119
v 0.807225 0.032372 -0.056354
v 0.807826 0.031295 -0.056655
v 0.808094 0.031996 -0.056824
v 0.806532 0.032926 -0.055711
v 0.746001 0.022440 -0.049939
v 0.745878 0.025066 -0.046988
v 0.745728 0.023491 -0.048985
v 0.797637 0.038996 -0.064484
v 0.798363 0.037356 -0.066906
v 0.797301 0.037348 -0.065890
v 0.799495 0.040352 -0.062568
v 0.798225 0.039859 -0.062096
v 0.801828 0.040864 -0.062449
v 0.800303 0.040506 -0.064426
v 0.800660 0.040734 -0.062547
v 0.799682 0.037857 -0.066965
v 0.800158 0.036476 -0.068846
v 0.799243 0.036899 -0.067938
v 0.746681 0.025797 -0.044472
v 0.800848 0.038224 -0.066276
v 0.745922 0.022989 -0.047328
v 0.745717 0.024278 -0.046860
v 0.802658 0.036411 -0.069907
v 0.801238 0.036995 -0.068716
v 0.801326 0.036300 -0.069520
v 0.801961 0.037504 -0.067695
v 0.746471 0.023026 -0.045204
v 0.745772 0.022510 -0.048997
v 0.803621 0.037481 -0.069112
v 0.805330 0.037255 -0.069508
v 0.804037 0.036771 -0.069895
v 0.803267 0.037772 -0.067857
v 0.748206 0.027215 -0.048717
v 0.746534 0.026163 -0.047690
v 0.807619 0.038378 -0.068098
v 0.805519 0.038584 -0.068206
v 0.806459 0.037816 -0.068920
v 0.807936 0.039883 -0.066124
v 0.808935 0.038650 -0.066879
v 0.804591 0.038718 -0.067119
v 0.748197 0.023650 -0.052125
v 0.747924 0.025475 -0.051063
v 0.803569 0.038392 -0.066798
v 0.802104 0.038127 -0.066535
v 0.802744 0.037844 -0.067222
v 0.806002 0.040487 -0.066119
v 0.806345 0.041109 -0.064058
v 0.807124 0.040693 -0.065086
v 0.803802 0.039496 -0.065836
v 0.804787 0.039589 -0.066337
v 0.804255 0.039023 -0.066495
v 0.746616 0.022913 -0.051072
v 0.747563 0.019651 -0.048324
v 0.804329 0.041116 -0.062667
v 0.804763 0.041354 -0.064355
v 0.805418 0.041196 -0.063221
v 0.802520 0.041229 -0.063722
v 0.803091 0.040991 -0.062445
v 0.746710 0.021324 -0.047967
v 0.801155 0.039375 -0.065369
v 0.748225 0.019598 -0.046912
v 0.803830 0.040636 -0.065239
v 0.802423 0.039373 -0.065459
v 0.802642 0.040597 -0.064903
v 0.803200 0.040038 -0.065297
v 0.801604 0.038681 -0.065840
v 0.747660 0.019812 -0.050861
v 0.746539 0.021435 -0.050521
v 0.747350 0.019659 -0.049738
v 0.754771 0.027232 -0.044033
v 0.752084 0.027405 -0.044959
v 0.754079 0.027878 -0.045766
v 0.753291 0.020058 -0.038098
v 0.751017 0.018522 -0.036944
v 0.753120 0.016966 -0.038595
v 0.753291 0.018491 -0.038252
v 0.750605 0.015461 -0.038050
v 0.754167 0.014019 -0.041135
v 0.753449 0.015486 -0.039505
v 0.751621 0.016149 -0.049537
v 0.752823 0.017365 -0.050599
v 0.753389 0.015475 -0.048754
v 0.753141 0.016416 -0.049811
v 0.752158 0.014346 -0.045815
v 0.752288 0.013505 -0.042546
v 0.749669 0.014530 -0.039326
v 0.749638 0.014636 -0.042670
v 0.750704 0.014028 -0.042353
v 0.754604 0.013826 -0.046117
v 0.754019 0.014610 -0.047638
v 0.747762 0.015386 -0.040338
v 0.748392 0.016304 -0.043058
v 0.749932 0.016122 -0.045928
v 0.748947 0.015371 -0.042952
v 0.751130 0.017477 -0.050819
v 0.751123 0.019268 -0.051810
v 0.752126 0.018251 -0.051221
v 0.754654 0.013372 -0.043675
v 0.748573 0.017171 -0.036545
v 0.747601 0.015899 -0.037775
v 0.748898 0.015652 -0.037576
v 0.745942 0.017938 -0.038071
v 0.746662 0.016866 -0.040722
v 0.746661 0.016305 -0.038918
v 0.750548 0.020388 -0.036619
v 0.747590 0.019426 -0.036385
v 0.749204 0.018888 -0.036288
v 0.754533 0.022372 -0.039524
v 0.755818 0.024741 -0.041725
v 0.756430 0.023187 -0.041114
v 0.751051 0.022628 -0.037897
v 0.752470 0.021443 -0.037848
v 0.753312 0.025690 -0.041786
v 0.755319 0.026128 -0.042755
v 0.749088 0.027696 -0.045952
v 0.748476 0.026371 -0.043151
v 0.750839 0.026228 -0.042556
v 0.750131 0.026853 -0.044033
v 0.746106 0.020480 -0.039581
v 0.747705 0.021991 -0.037703
v 0.746372 0.020028 -0.037626
v 0.750863 0.024633 -0.039701
v 0.749335 0.025274 -0.040713
v 0.751154 0.025564 -0.041104
v 0.748427 0.023996 -0.039475
v 0.749457 0.023489 -0.038464
v 0.749159 0.018055 -0.050669
v 0.749893 0.016555 -0.048790
v 0.750441 0.016796 -0.050032
v 0.749215 0.017802 -0.046609
v 0.748503 0.018076 -0.048289
v 0.749479 0.016948 -0.047605
v 0.748466 0.020104 -0.051761
v 0.748866 0.022117 -0.052362
v 0.749924 0.020633 -0.052251
f 120 247 251
f 120 251 250
f 247 57 248
f 247 248 251
f 251 248 127
f 251 127 249
f 250 251 249
f 250 249 9
f 9 249 255
f 9 255 254
f 249 127 252
f 249 252 255
f 255 252 60
f 255 60 253
f 254 255 253
f 254 253 121
f 9 256 259
f 9 259 250
f 256 137 257
f 256 257 259
f 259 257 66
f 259 66 258
f 250 259 258
f 250 258 120
f 121 260 262
f 121 262 254
f 260 67 261
f 260 261 262
f 262 261 137
f 262 137 256
f 254 262 256
f 254 256 9
f 136 263 267
f 136 267 266
f 263 62 264
f 263 264 267
f 267 264 123
f 267 123 265
f 266 267 265
f 266 265 10
f 10 265 271
f 10 271 270
f 265 123 268
f 265 268 271
f 271 268 71
f 271 71 269
f 270 271 269
f 270 269 142
f 10 272 275
f 10 275 266
f 272 125 273
f 272 273 275
f 275 273 61
f 275 61 274
f 266 275 274
f 266 274 136
f 142 276 278
f 142 278 270
f 276 70 277
f 276 277 278
f 278 277 125
f 278 125 272
f 270 278 272
f 270 272 10
f 123 264 282
f 123 282 281
f 264 62 279
f 264 279 282
f 282 279 132
f 282 132 280
f 281 282 280
f 281 280 11
f 11 280 286
f 11 286 285
f 280 132 283
f 280 283 286
f 286 283 63
f 286 63 284
f 285 286 284
f 285 284 124
f 11 287 289
f 11 289 281
f 287 144 288
f 287 288 289
f 289 288 71
f 289 71 268
f 281 289 268
f 281 268 123
f 124 290 292
f 124 292 285
f 290 72 291
f 290 291 292
f 292 291 144
f 292 144 287
f 285 292 287
f 285 287 11
f 12 293 296
f 12 296 295
f 293 130 294
f 293 294 296
f 296 294 61
f 296 61 273
f 295 296 273
f 295 273 125
f 122 297 300
f 122 300 299
f 297 64 298
f 297 298 300
f 300 298 130
f 300 130 293
f 299 300 293
f 299 293 12
f 12 301 304
f 12 304 299
f 301 140 302
f 301 302 304
f 304 302 69
f 304 69 303
f 299 304 303
f 299 303 122
f 125 277 306
f 125 306 295
f 277 70 305
f 277 305 306
f 306 305 140
f 306 140 301
f 295 306 301
f 295 301 12
f 134 307 311
f 134 311 310
f 307 58 308
f 307 308 311
f 311 308 128
f 311 128 309
f 310 311 309
f 310 309 13
f 13 309 314
f 13 314 313
f 309 128 312
f 309 312 314
f 314 312 60
f 314 60 252
f 313 314 252
f 313 252 127
f 126 315 318
f 126 318 317
f 315 59 316
f 315 316 318
f 318 316 134
f 318 134 310
f 317 318 310
f 317 310 13
f 127 248 320
f 127 320 313
f 248 57 319
f 248 319 320
f 320 319 126
f 320 126 317
f 313 320 317
f 313 317 13
f 129 321 325
f 129 325 324
f 321 58 322
f 321 322 325
f 325 322 133
f 325 133 323
f 324 325 323
f 324 323 14
f 14 323 328
f 14 328 327
f 323 133 326
f 323 326 328
f 328 326 61
f 328 61 294
f 327 328 294
f 327 294 130
f 130 298 330
f 130 330 327
f 298 64 329
f 298 329 330
f 330 329 129
f 330 129 324
f 327 330 324
f 327 324 14
f 135 331 335
f 135 335 334
f 331 59 332
f 331 332 335
f 335 332 131
f 335 131 333
f 334 335 333
f 334 333 15
f 15 333 338
f 15 338 337
f 333 131 336
f 333 336 338
f 338 336 63
f 338 63 283
f 337 338 283
f 337 283 132
f 15 337 340
f 15 340 334
f 337 132 279
f 337 279 340
f 340 279 62
f 340 62 339
f 334 340 339
f 334 339 135
f 134 316 343
f 134 343 342
f 316 59 331
f 316 331 343
f 343 331 135
f 343 135 341
f 342 343 341
f 342 341 16
f 16 341 345
f 16 345 344
f 341 135 339
f 341 339 345
f 345 339 62
f 345 62 263
f 344 345 263
f 344 263 136
f 16 344 347
f 16 347 346
f 344 136 274
f 344 274 347
f 347 274 61
f 347 61 326
f 346 347 326
f 346 326 133
f 16 346 348
f 16 348 342
f 346 133 322
f 346 322 348
f 348 322 58
f 348 58 307
f 342 348 307
f 342 307 134
f 137 261 352
f 137 352 351
f 261 67 349
f 261 349 352
f 352 349 138
f 352 138 350
f 351 352 350
f 351 350 17
f 17 350 356
f 17 356 355
f 350 138 353
f 350 353 356
f 356 353 79
f 356 79 354
f 355 356 354
f 355 354 148
f 17 357 359
f 17 359 351
f 357 139 358
f 357 358 359
f 359 358 66
f 359 66 257
f 351 359 257
f 351 257 137
f 148 360 362
f 148 362 355
f 360 91 361
f 360 361 362
f 362 361 139
f 362 139 357
f 355 362 357
f 355 357 17
f 140 305 366
f 140 366 365
f 305 70 363
f 305 363 366
f 366 363 141
f 366 141 364
f 365 366 364
f 365 364 18
f 18 364 370
f 18 370 369
f 364 141 367
f 364 367 370
f 370 367 85
f 370 85 368
f 369 370 368
f 369 368 153
f 18 371 373
f 18 373 365
f 371 145 372
f 371 372 373
f 373 372 69
f 373 69 302
f 365 373 302
f 365 302 140
f 153 374 376
f 153 376 369
f 374 82 375
f 374 375 376
f 376 375 145
f 376 145 371
f 369 376 371
f 369 371 18
f 142 269 380
f 142 380 379
f 269 71 377
f 269 377 380
f 380 377 143
f 380 143 378
f 379 380 378
f 379 378 19
f 19 378 384
f 19 384 383
f 378 143 381
f 378 381 384
f 384 381 88
f 384 88 382
f 383 384 382
f 383 382 155
f 19 383 387
f 19 387 386
f 383 155 385
f 383 385 387
f 387 385 85
f 387 85 367
f 386 387 367
f 386 367 141
f 19 386 388
f 19 388 379
f 386 141 363
f 386 363 388
f 388 363 70
f 388 70 276
f 379 388 276
f 379 276 142
f 144 291 392
f 144 392 391
f 291 72 389
f 291 389 392
f 392 389 146
f 392 146 390
f 391 392 390
f 391 390 20
f 20 390 396
f 20 396 395
f 390 146 393
f 390 393 396
f 396 393 93
f 396 93 394
f 395 396 394
f 395 394 157
f 20 395 399
f 20 399 398
f 395 157 397
f 395 397 399
f 399 397 88
f 399 88 381
f 398 399 381
f 398 381 143
f 20 398 400
f 20 400 391
f 398 143 377
f 398 377 400
f 400 377 71
f 400 71 288
f 391 400 288
f 391 288 144
f 147 401 405
f 147 405 404
f 401 91 402
f 401 402 405
f 405 402 149
f 405 149 403
f 404 405 403
f 404 403 21
f 21 403 409
f 21 409 408
f 403 149 406
f 403 406 409
f 409 406 92
f 409 92 407
f 408 409 407
f 408 407 206
f 158 410 413
f 158 413 412
f 410 93 411
f 410 411 413
f 413 411 147
f 413 147 404
f 412 413 404
f 412 404 21
f 206 414 416
f 206 416 408
f 414 94 415
f 414 415 416
f 416 415 158
f 416 158 412
f 408 416 412
f 408 412 21
f 148 354 420
f 148 420 419
f 354 79 417
f 354 417 420
f 420 417 150
f 420 150 418
f 419 420 418
f 419 418 22
f 22 418 424
f 22 424 423
f 418 150 421
f 418 421 424
f 424 421 80
f 424 80 422
f 423 424 422
f 423 422 201
f 149 402 426
f 149 426 425
f 402 91 360
f 402 360 426
f 426 360 148
f 426 148 419
f 425 426 419
f 425 419 22
f 201 427 428
f 201 428 423
f 427 92 406
f 427 406 428
f 428 406 149
f 428 149 425
f 423 428 425
f 423 425 22
f 151 429 433
f 151 433 432
f 429 82 430
f 429 430 433
f 433 430 152
f 433 152 431
f 432 433 431
f 432 431 23
f 23 431 437
f 23 437 436
f 431 152 434
f 431 434 437
f 437 434 83
f 437 83 435
f 436 437 435
f 436 435 202
f 23 438 440
f 23 440 432
f 438 150 417
f 438 417 440
f 440 417 79
f 440 79 439
f 432 440 439
f 432 439 151
f 202 441 442
f 202 442 436
f 441 80 421
f 441 421 442
f 442 421 150
f 442 150 438
f 436 442 438
f 436 438 23
f 153 368 446
f 153 446 445
f 368 85 443
f 368 443 446
f 446 443 154
f 446 154 444
f 445 446 444
f 445 444 24
f 24 444 450
f 24 450 449
f 444 154 447
f 444 447 450
f 450 447 86
f 450 86 448
f 449 450 448
f 449 448 203
f 24 451 452
f 24 452 445
f 451 152 430
f 451 430 452
f 452 430 82
f 452 82 374
f 445 452 374
f 445 374 153
f 203 453 454
f 203 454 449
f 453 83 434
f 453 434 454
f 454 434 152
f 454 152 451
f 449 454 451
f 449 451 24
f 155 382 458
f 155 458 457
f 382 88 455
f 382 455 458
f 458 455 156
f 458 156 456
f 457 458 456
f 457 456 25
f 25 456 462
f 25 462 461
f 456 156 459
f 456 459 462
f 462 459 90
f 462 90 460
f 461 462 460
f 461 460 204
f 25 463 464
f 25 464 457
f 463 154 443
f 463 443 464
f 464 443 85
f 464 85 385
f 457 464 385
f 457 385 155
f 204 465 466
f 204 466 461
f 465 86 447
f 465 447 466
f 466 447 154
f 466 154 463
f 461 466 463
f 461 463 25
f 157 394 469
f 157 469 468
f 394 93 410
f 394 410 469
f 469 410 158
f 469 158 467
f 468 469 467
f 468 467 26
f 26 467 472
f 26 472 471
f 467 158 415
f 467 415 472
f 472 415 94
f 472 94 470
f 471 472 470
f 471 470 205
f 26 473 474
f 26 474 468
f 473 156 455
f 473 455 474
f 474 455 88
f 474 88 397
f 468 474 397
f 468 397 157
f 205 475 476
f 205 476 471
f 475 90 459
f 475 459 476
f 476 459 156
f 476 156 473
f 471 476 473
f 471 473 26
f 205 470 480
f 205 480 479
f 470 94 477
f 470 477 480
f 480 477 159
f 480 159 478
f 479 480 478
f 479 478 27
f 27 478 484
f 27 484 483
f 478 159 481
f 478 481 484
f 484 481 95
f 484 95 482
f 483 484 482
f 483 482 183
f 27 483 488
f 27 488 487
f 483 183 485
f 483 485 488
f 488 485 89
f 488 89 486
f 487 488 486
f 487 486 164
f 164 489 490
f 164 490 487
f 489 90 475
f 489 475 490
f 490 475 205
f 490 205 479
f 487 490 479
f 487 479 27
f 206 407 494
f 206 494 493
f 407 92 491
f 407 491 494
f 494 491 160
f 494 160 492
f 493 494 492
f 493 492 28
f 28 492 498
f 28 498 497
f 492 160 495
f 492 495 498
f 498 495 96
f 498 96 496
f 497 498 496
f 497 496 184
f 28 497 501
f 28 501 500
f 497 184 499
f 497 499 501
f 501 499 95
f 501 95 481
f 500 501 481
f 500 481 159
f 159 477 502
f 159 502 500
f 477 94 414
f 477 414 502
f 502 414 206
f 502 206 493
f 500 502 493
f 500 493 28
f 201 422 506
f 201 506 505
f 422 80 503
f 422 503 506
f 506 503 161
f 506 161 504
f 505 506 504
f 505 504 29
f 29 504 510
f 29 510 509
f 504 161 507
f 504 507 510
f 510 507 81
f 510 81 508
f 509 510 508
f 509 508 185
f 29 509 513
f 29 513 512
f 509 185 511
f 509 511 513
f 513 511 96
f 513 96 495
f 512 513 495
f 512 495 160
f 160 491 514
f 160 514 512
f 491 92 427
f 491 427 514
f 514 427 201
f 514 201 505
f 512 514 505
f 512 505 29
f 202 435 518
f 202 518 517
f 435 83 515
f 435 515 518
f 518 515 162
f 518 162 516
f 517 518 516
f 517 516 30
f 30 516 522
f 30 522 521
f 516 162 519
f 516 519 522
f 522 519 84
f 522 84 520
f 521 522 520
f 521 520 186
f 30 521 525
f 30 525 524
f 521 186 523
f 521 523 525
f 525 523 81
f 525 81 507
f 524 525 507
f 524 507 161
f 161 503 526
f 161 526 524
f 503 80 441
f 503 441 526
f 526 441 202
f 526 202 517
f 524 526 517
f 524 517 30
f 203 448 530
f 203 530 529
f 448 86 527
f 448 527 530
f 530 527 163
f 530 163 528
f 529 530 528
f 529 528 31
f 31 528 534
f 31 534 533
f 528 163 531
f 528 531 534
f 534 531 87
f 534 87 532
f 533 534 532
f 533 532 187
f 31 533 537
f 31 537 536
f 533 187 535
f 533 535 537
f 537 535 84
f 537 84 519
f 536 537 519
f 536 519 162
f 162 515 538
f 162 538 536
f 515 83 453
f 515 453 538
f 538 453 203
f 538 203 529
f 536 538 529
f 536 529 31
f 32 539 542
f 32 542 541
f 539 164 486
f 539 486 542
f 542 486 89
f 542 89 540
f 541 542 540
f 541 540 188
f 204 460 544
f 204 544 543
f 460 90 489
f 460 489 544
f 544 489 164
f 544 164 539
f 543 544 539
f 543 539 32
f 32 541 547
f 32 547 546
f 541 188 545
f 541 545 547
f 547 545 87
f 547 87 531
f 546 547 531
f 546 531 163
f 163 527 548
f 163 548 546
f 527 86 465
f 527 465 548
f 548 465 204
f 548 204 543
f 546 548 543
f 546 543 32
f 33 549 553
f 33 553 552
f 549 165 550
f 549 550 553
f 553 550 73
f 553 73 551
f 552 553 551
f 552 551 189
f 183 482 556
f 183 556 555
f 482 95 554
f 482 554 556
f 556 554 165
f 556 165 549
f 555 556 549
f 555 549 33
f 33 552 560
f 33 560 559
f 552 189 557
f 552 557 560
f 560 557 78
f 560 78 558
f 559 560 558
f 559 558 170
f 33 559 562
f 33 562 555
f 559 170 561
f 559 561 562
f 562 561 89
f 562 89 485
f 555 562 485
f 555 485 183
f 34 563 567
f 34 567 566
f 563 166 564
f 563 564 567
f 567 564 74
f 567 74 565
f 566 567 565
f 566 565 190
f 184 496 570
f 184 570 569
f 496 96 568
f 496 568 570
f 570 568 166
f 570 166 563
f 569 570 563
f 569 563 34
f 34 566 573
f 34 573 572
f 566 190 571
f 566 571 573
f 573 571 73
f 573 73 550
f 572 573 550
f 572 550 165
f 34 572 574
f 34 574 569
f 572 165 554
f 572 554 574
f 574 554 95
f 574 95 499
f 569 574 499
f 569 499 184
f 35 575 579
f 35 579 578
f 575 167 576
f 575 576 579
f 579 576 75
f 579 75 577
f 578 579 577
f 578 577 191
f 185 508 582
f 185 582 581
f 508 81 580
f 508 580 582
f 582 580 167
f 582 167 575
f 581 582 575
f 581 575 35
f 35 578 585
f 35 585 584
f 578 191 583
f 578 583 585
f 585 583 74
f 585 74 564
f 584 585 564
f 584 564 166
f 35 584 586
f 35 586 581
f 584 166 568
f 584 568 586
f 586 568 96
f 586 96 511
f 581 586 511
f 581 511 185
f 36 587 591
f 36 591 590
f 587 168 588
f 587 588 591
f 591 588 76
f 591 76 589
f 590 591 589
f 590 589 192
f 186 520 594
f 186 594 593
f 520 84 592
f 520 592 594
f 594 592 168
f 594 168 587
f 593 594 587
f 593 587 36
f 36 590 597
f 36 597 596
f 590 192 595
f 590 595 597
f 597 595 75
f 597 75 576
f 596 597 576
f 596 576 167
f 36 596 598
f 36 598 593
f 596 167 580
f 596 580 598
f 598 580 81
f 598 81 523
f 593 598 523
f 593 523 186
f 37 599 603
f 37 603 602
f 599 169 600
f 599 600 603
f 603 600 77
f 603 77 601
f 602 603 601
f 602 601 193
f 187 532 606
f 187 606 605
f 532 87 604
f 532 604 606
f 606 604 169
f 606 169 599
f 605 606 599
f 605 599 37
f 37 602 609
f 37 609 608
f 602 193 607
f 602 607 609
f 609 607 76
f 609 76 588
f 608 609 588
f 608 588 168
f 37 608 610
f 37 610 605
f 608 168 592
f 608 592 610
f 610 592 84
f 610 84 535
f 605 610 535
f 605 535 187
f 38 611 614
f 38 614 613
f 611 170 558
f 611 558 614
f 614 558 78
f 614 78 612
f 613 614 612
f 613 612 194
f 188 540 616
f 188 616 615
f 540 89 561
f 540 561 616
f 616 561 170
f 616 170 611
f 615 616 611
f 615 611 38
f 38 613 619
f 38 619 618
f 613 194 617
f 613 617 619
f 619 617 77
f 619 77 600
f 618 619 600
f 618 600 169
f 38 618 620
f 38 620 615
f 618 169 604
f 618 604 620
f 620 604 87
f 620 87 545
f 615 620 545
f 615 545 188
f 189 551 624
f 189 624 623
f 551 73 621
f 551 621 624
f 624 621 171
f 624 171 622
f 623 624 622
f 623 622 39
f 39 622 628
f 39 628 627
f 622 171 625
f 622 625 628
f 628 625 100
f 628 100 626
f 627 628 626
f 627 626 195
f 39 627 632
f 39 632 631
f 627 195 629
f 627 629 632
f 632 629 98
f 632 98 630
f 631 632 630
f 631 630 176
f 39 631 634
f 39 634 623
f 631 176 633
f 631 633 634
f 634 633 78
f 634 78 557
f 623 634 557
f 623 557 189
f 190 565 638
f 190 638 637
f 565 74 635
f 565 635 638
f 638 635 172
f 638 172 636
f 637 638 636
f 637 636 40
f 40 636 642
f 40 642 641
f 636 172 639
f 636 639 642
f 642 639 101
f 642 101 640
f 641 642 640
f 641 640 196
f 40 641 645
f 40 645 644
f 641 196 643
f 641 643 645
f 645 643 100
f 645 100 625
f 644 645 625
f 644 625 171
f 40 644 646
f 40 646 637
f 644 171 621
f 644 621 646
f 646 621 73
f 646 73 571
f 637 646 571
f 637 571 190
f 191 577 650
f 191 650 649
f 577 75 647
f 577 647 650
f 650 647 173
f 650 173 648
f 649 650 648
f 649 648 41
f 41 648 654
f 41 654 653
f 648 173 651
f 648 651 654
f 654 651 102
f 654 102 652
f 653 654 652
f 653 652 197
f 41 653 657
f 41 657 656
f 653 197 655
f 653 655 657
f 657 655 101
f 657 101 639
f 656 657 639
f 656 639 172
f 41 656 658
f 41 658 649
f 656 172 635
f 656 635 658
f 658 635 74
f 658 74 583
f 649 658 583
f 649 583 191
f 192 589 662
f 192 662 661
f 589 76 659
f 589 659 662
f 662 659 174
f 662 174 660
f 661 662 660
f 661 660 42
f 42 660 666
f 42 666 665
f 660 174 663
f 660 663 666
f 666 663 99
f 666 99 664
f 665 666 664
f 665 664 198
f 42 665 669
f 42 669 668
f 665 198 667
f 665 667 669
f 669 667 102
f 669 102 651
f 668 669 651
f 668 651 173
f 42 668 670
f 42 670 661
f 668 173 647
f 668 647 670
f 670 647 75
f 670 75 595
f 661 670 595
f 661 595 192
f 193 601 674
f 193 674 673
f 601 77 671
f 601 671 674
f 674 671 175
f 674 175 672
f 673 674 672
f 673 672 43
f 43 672 678
f 43 678 677
f 672 175 675
f 672 675 678
f 678 675 97
f 678 97 676
f 677 678 676
f 677 676 199
f 43 677 681
f 43 681 680
f 677 199 679
f 677 679 681
f 681 679 99
f 681 99 663
f 680 681 663
f 680 663 174
f 43 680 682
f 43 682 673
f 680 174 659
f 680 659 682
f 682 659 76
f 682 76 607
f 673 682 607
f 673 607 193
f 194 612 685
f 194 685 684
f 612 78 633
f 612 633 685
f 685 633 176
f 685 176 683
f 684 685 683
f 684 683 44
f 44 683 688
f 44 688 687
f 683 176 630
f 683 630 688
f 688 630 98
f 688 98 686
f 687 688 686
f 687 686 200
f 44 687 691
f 44 691 690
f 687 200 689
f 687 689 691
f 691 689 97
f 691 97 675
f 690 691 675
f 690 675 175
f 44 690 692
f 44 692 684
f 690 175 671
f 690 671 692
f 692 671 77
f 692 77 617
f 684 692 617
f 684 617 194
f 195 626 696
f 195 696 695
f 626 100 693
f 626 693 696
f 696 693 177
f 696 177 694
f 695 696 694
f 695 694 45
f 45 694 700
f 45 700 699
f 694 177 697
f 694 697 700
f 700 697 109
f 700 109 698
f 699 700 698
f 699 698 211
f 45 699 704
f 45 704 703
f 699 211 701
f 699 701 704
f 704 701 107
f 704 107 702
f 703 704 702
f 703 702 182
f 45 703 706
f 45 706 695
f 703 182 705
f 703 705 706
f 706 705 98
f 706 98 629
f 695 706 629
f 695 629 195
f 196 640 710
f 196 710 709
f 640 101 707
f 640 707 710
f 710 707 178
f 710 178 708
f 709 710 708
f 709 708 46
f 46 711 714
f 46 714 713
f 711 214 712
f 711 712 714
f 714 712 109
f 714 109 697
f 713 714 697
f 713 697 177
f 46 713 715
f 46 715 709
f 713 177 693
f 713 693 715
f 715 693 100
f 715 100 643
f 709 715 643
f 709 643 196
f 197 652 719
f 197 719 718
f 652 102 716
f 652 716 719
f 719 716 179
f 719 179 717
f 718 719 717
f 718 717 47
f 47 720 721
f 47 721 718
f 720 178 707
f 720 707 721
f 721 707 101
f 721 101 655
f 718 721 655
f 718 655 197
f 198 664 725
f 198 725 724
f 664 99 722
f 664 722 725
f 725 722 180
f 725 180 723
f 724 725 723
f 724 723 48
f 48 723 729
f 48 729 728
f 723 180 726
f 723 726 729
f 729 726 104
f 729 104 727
f 728 729 727
f 728 727 213
f 48 728 733
f 48 733 732
f 728 213 730
f 728 730 733
f 733 730 106
f 733 106 731
f 732 733 731
f 732 731 179
f 48 732 734
f 48 734 724
f 732 179 716
f 732 716 734
f 734 716 102
f 734 102 667
f 724 734 667
f 724 667 198
f 199 676 738
f 199 738 737
f 676 97 735
f 676 735 738
f 738 735 181
f 738 181 736
f 737 738 736
f 737 736 49
f 49 736 742
f 49 742 741
f 736 181 739
f 736 739 742
f 742 739 105
f 742 105 740
f 741 742 740
f 741 740 208
f 49 741 745
f 49 745 744
f 741 208 743
f 741 743 745
f 745 743 104
f 745 104 726
f 744 745 726
f 744 726 180
f 49 744 746
f 49 746 737
f 744 180 722
f 744 722 746
f 746 722 99
f 746 99 679
f 737 746 679
f 737 679 199
f 200 686 749
f 200 749 748
f 686 98 705
f 686 705 749
f 749 705 182
f 749 182 747
f 748 749 747
f 748 747 50
f 50 747 752
f 50 752 751
f 747 182 702
f 747 702 752
f 752 702 107
f 752 107 750
f 751 752 750
f 751 750 207
f 50 751 755
f 50 755 754
f 751 207 753
f 751 753 755
f 755 753 105
f 755 105 739
f 754 755 739
f 754 739 181
f 50 754 756
f 50 756 748
f 754 181 735
f 754 735 756
f 756 735 97
f 756 97 689
f 748 756 689
f 748 689 200
f 1 757 759
f 1 759 758
f 757 147 411
f 757 411 759
f 759 411 93
f 759 93 393
f 758 759 393
f 758 393 146
f 139 361 761
f 139 761 760
f 361 91 401
f 361 401 761
f 761 401 147
f 761 147 757
f 760 761 757
f 760 757 1
f 146 389 764
f 146 764 758
f 389 72 762
f 389 762 764
f 764 762 115
f 764 115 763
f 758 764 763
f 758 763 1
f 112 765 767
f 112 767 766
f 765 66 358
f 765 358 767
f 767 358 139
f 767 139 760
f 766 767 760
f 766 760 1
f 235 873 866
f 235 866 118
f 866 873 236
f 866 236 8
f 8 236 875
f 8 875 868
f 868 875 229
f 868 229 119
f 2 772 774
f 2 774 773
f 772 120 258
f 772 258 774
f 774 258 66
f 774 66 765
f 773 774 765
f 773 765 112
f 119 229 871
f 119 871 825
f 825 871 230
f 825 230 5
f 234 861 857
f 234 857 7
f 857 861 235
f 857 235 118
f 57 247 780
f 57 780 779
f 247 120 772
f 247 772 780
f 780 772 2
f 780 2 778
f 779 780 778
f 779 778 113
f 233 851 847
f 233 847 117
f 847 851 234
f 847 234 7
f 232 843 840
f 232 840 6
f 840 843 233
f 840 233 117
f 3 784 786
f 3 786 785
f 784 126 319
f 784 319 786
f 786 319 57
f 786 57 779
f 785 786 779
f 785 779 113
f 131 332 788
f 131 788 787
f 332 59 315
f 332 315 788
f 788 315 126
f 788 126 784
f 787 788 784
f 787 784 3
f 231 837 835
f 231 835 116
f 835 837 232
f 835 232 6
f 5 230 831
f 5 831 827
f 827 831 231
f 827 231 116
f 65 792 794
f 65 794 793
f 792 225 781
f 792 781 794
f 794 781 224
f 794 224 775
f 793 794 775
f 793 775 223
f 63 336 797
f 63 797 796
f 336 131 787
f 336 787 797
f 797 787 3
f 797 3 795
f 796 797 795
f 796 795 114
f 226 789 800
f 226 800 799
f 789 225 792
f 789 792 800
f 800 792 65
f 800 65 798
f 799 800 798
f 799 798 227
f 227 811 804
f 227 804 114
f 804 811 228
f 804 228 4
f 4 228 813
f 4 813 806
f 806 813 221
f 806 221 115
f 4 803 805
f 4 805 804
f 803 124 284
f 803 284 805
f 805 284 63
f 805 63 796
f 804 805 796
f 804 796 114
f 4 806 807
f 4 807 803
f 806 115 762
f 806 762 807
f 807 762 72
f 807 72 290
f 803 807 290
f 803 290 124
f 115 221 809
f 115 809 763
f 763 809 222
f 763 222 1
f 226 799 795
f 226 795 3
f 795 799 227
f 795 227 114
f 228 811 814
f 228 814 813
f 811 227 798
f 811 798 814
f 814 798 65
f 814 65 812
f 813 814 812
f 813 812 221
f 221 812 815
f 221 815 809
f 812 65 793
f 812 793 815
f 815 793 223
f 815 223 769
f 809 815 769
f 809 769 222
f 225 789 785
f 225 785 113
f 785 789 226
f 785 226 3
f 224 781 778
f 224 778 2
f 778 781 225
f 778 225 113
f 223 775 773
f 223 773 112
f 773 775 224
f 773 224 2
f 1 222 769
f 1 769 766
f 766 769 223
f 766 223 112
f 145 375 821
f 145 821 820
f 375 82 429
f 375 429 821
f 821 429 151
f 821 151 819
f 820 821 819
f 820 819 5
f 5 819 823
f 5 823 822
f 819 151 439
f 819 439 823
f 823 439 79
f 823 79 353
f 822 823 353
f 822 353 138
f 138 349 826
f 138 826 822
f 349 67 824
f 349 824 826
f 826 824 119
f 826 119 825
f 822 826 825
f 822 825 5
f 69 372 829
f 69 829 828
f 372 145 820
f 372 820 829
f 829 820 5
f 829 5 827
f 828 829 827
f 828 827 116
f 777 768 914
f 777 914 110
f 768 903 220
f 768 220 914
f 771 108 903
f 771 903 768
f 243 771 768
f 243 768 777
f 6 834 836
f 6 836 835
f 834 122 303
f 834 303 836
f 836 303 69
f 836 69 828
f 835 836 828
f 835 828 116
f 808 770 771
f 808 771 243
f 770 941 108
f 770 108 771
f 872 219 941
f 872 941 770
f 111 872 770
f 111 770 808
f 64 297 842
f 64 842 841
f 297 122 834
f 297 834 842
f 842 834 6
f 842 6 840
f 841 842 840
f 841 840 117
f 802 776 783
f 802 783 56
f 776 930 217
f 776 217 783
f 777 110 930
f 777 930 776
f 243 777 776
f 243 776 802
f 7 846 848
f 7 848 847
f 846 129 329
f 846 329 848
f 848 329 64
f 848 64 841
f 847 848 841
f 847 841 117
f 128 308 850
f 128 850 849
f 308 58 321
f 308 321 850
f 850 321 129
f 850 129 846
f 849 850 846
f 849 846 7
f 783 782 791
f 783 791 56
f 782 934 238
f 782 238 791
f 936 244 934
f 936 934 782
f 217 936 782
f 217 782 783
f 68 854 856
f 68 856 855
f 854 233 843
f 854 843 856
f 856 843 232
f 856 232 837
f 855 856 837
f 855 837 231
f 60 312 859
f 60 859 858
f 312 128 849
f 312 849 859
f 859 849 7
f 859 7 857
f 858 859 857
f 858 857 118
f 234 851 862
f 234 862 861
f 851 233 854
f 851 854 862
f 862 854 68
f 862 68 860
f 861 862 860
f 861 860 235
f 791 790 810
f 791 810 56
f 790 830 218
f 790 218 810
f 927 239 830
f 927 830 790
f 238 927 790
f 238 790 791
f 8 865 867
f 8 867 866
f 865 121 253
f 865 253 867
f 867 253 60
f 867 60 858
f 866 867 858
f 866 858 118
f 8 868 869
f 8 869 865
f 868 119 824
f 868 824 869
f 869 824 67
f 869 67 260
f 865 869 260
f 865 260 121
f 802 801 808
f 802 808 243
f 801 838 111
f 801 111 808
f 810 218 838
f 810 838 801
f 56 810 801
f 56 801 802
f 236 873 876
f 236 876 875
f 873 235 860
f 873 860 876
f 876 860 68
f 876 68 874
f 875 876 874
f 875 874 229
f 229 874 877
f 229 877 871
f 874 68 855
f 874 855 877
f 877 855 231
f 877 231 831
f 871 877 831
f 871 831 230
f 818 816 839
f 818 839 246
f 816 879 245
f 816 245 839
f 863 212 879
f 863 879 816
f 54 863 816
f 54 816 818
f 833 817 818
f 833 818 246
f 817 845 54
f 817 54 818
f 830 239 845
f 830 845 817
f 218 830 817
f 218 817 833
f 216 881 883
f 216 883 882
f 881 47 717
f 881 717 883
f 883 717 179
f 883 179 731
f 882 883 731
f 882 731 106
f 109 712 887
f 109 887 886
f 712 214 884
f 712 884 887
f 887 884 55
f 887 55 885
f 886 887 885
f 886 885 215
f 215 888 890
f 215 890 886
f 888 53 889
f 888 889 890
f 890 889 211
f 890 211 698
f 886 890 698
f 886 698 109
f 51 891 894
f 51 894 893
f 891 209 892
f 891 892 894
f 894 892 105
f 894 105 753
f 893 894 753
f 893 753 207
f 51 895 899
f 51 899 898
f 895 210 896
f 895 896 899
f 899 896 53
f 899 53 897
f 898 899 897
f 898 897 241
f 207 750 901
f 207 901 893
f 750 107 900
f 750 900 901
f 901 900 210
f 901 210 895
f 893 901 895
f 893 895 51
f 241 902 905
f 241 905 898
f 902 220 903
f 902 903 905
f 905 903 108
f 905 108 904
f 898 905 904
f 898 904 51
f 209 906 908
f 209 908 892
f 906 52 907
f 906 907 908
f 908 907 208
f 908 208 740
f 892 908 740
f 892 740 105
f 107 701 909
f 107 909 900
f 701 211 889
f 701 889 909
f 909 889 53
f 909 53 896
f 900 909 896
f 900 896 210
f 241 897 912
f 241 912 911
f 897 53 888
f 897 888 912
f 912 888 215
f 912 215 910
f 911 912 910
f 911 910 242
f 241 911 915
f 241 915 902
f 911 242 913
f 911 913 915
f 915 913 110
f 915 110 914
f 902 915 914
f 902 914 220
f 242 910 918
f 242 918 917
f 910 215 885
f 910 885 918
f 918 885 55
f 918 55 916
f 917 918 916
f 917 916 237
f 103 919 921
f 103 921 920
f 919 214 711
f 919 711 921
f 921 711 46
f 921 46 708
f 920 921 708
f 920 708 178
f 237 916 923
f 237 923 922
f 916 55 884
f 916 884 923
f 923 884 214
f 923 214 919
f 922 923 919
f 922 919 103
f 103 920 925
f 103 925 924
f 920 178 720
f 920 720 925
f 925 720 47
f 925 47 881
f 924 925 881
f 924 881 216
f 216 882 929
f 216 929 928
f 882 106 926
f 882 926 929
f 929 926 239
f 929 239 927
f 928 929 927
f 928 927 238
f 217 930 932
f 217 932 931
f 930 110 913
f 930 913 932
f 932 913 242
f 932 242 917
f 931 932 917
f 931 917 237
f 244 933 935
f 244 935 934
f 933 103 924
f 933 924 935
f 935 924 216
f 935 216 928
f 934 935 928
f 934 928 238
f 217 931 937
f 217 937 936
f 931 237 922
f 931 922 937
f 937 922 103
f 937 103 933
f 936 937 933
f 936 933 244
f 240 938 940
f 240 940 939
f 938 52 906
f 938 906 940
f 940 906 209
f 940 209 891
f 939 940 891
f 939 891 51
f 51 904 943
f 51 943 939
f 904 108 941
f 904 941 943
f 943 941 219
f 943 219 942
f 939 943 942
f 939 942 240
f 104 743 946
f 104 946 945
f 743 208 907
f 743 907 946
f 946 907 52
f 946 52 944
f 945 946 944
f 945 944 212
f 212 944 878
f 212 878 879
f 944 52 938
f 944 938 878
f 878 938 240
f 878 240 880
f 879 878 880
f 879 880 245
f 245 880 864
f 245 864 870
f 880 240 942
f 880 942 864
f 864 942 219
f 864 219 872
f 870 864 872
f 870 872 111
f 213 727 852
f 213 852 853
f 727 104 945
f 727 945 852
f 852 945 212
f 852 212 863
f 853 852 863
f 853 863 54
f 239 926 844
f 239 844 845
f 926 106 730
f 926 730 844
f 844 730 213
f 844 213 853
f 845 844 853
f 845 853 54
f 246 839 832
f 246 832 833
f 839 245 870
f 839 870 832
f 832 870 111
f 832 111 838
f 833 832 838
f 833 838 218
