# _3rd_Metacarpal_R rest
v -0.798756 0.039260 -0.053552
v -0.801543 0.041061 -0.055761
v -0.803189 0.039680 -0.056123
v -0.800813 0.037734 -0.054605
v -0.798072 0.040985 -0.065735
v -0.799778 0.038773 -0.067395
v -0.803012 0.040468 -0.065791
v -0.801720 0.042424 -0.064042
v -0.802568 0.042548 -0.059084
v -0.800619 0.035217 -0.060838
v -0.800363 0.035561 -0.056131
v -0.799655 0.035608 -0.066112
v -0.805431 0.041409 -0.060227
v -0.803477 0.037507 -0.064421
v -0.803503 0.037345 -0.057253
v -0.804329 0.037537 -0.060686
v -0.798886 0.042425 -0.057886
v -0.795728 0.036493 -0.065256
v -0.796826 0.035678 -0.060079
v -0.796766 0.035997 -0.055149
v -0.793769 0.039520 -0.053511
v -0.794081 0.042063 -0.056972
v -0.793106 0.040959 -0.063201
v -0.792387 0.037703 -0.062657
v -0.792119 0.036145 -0.058725
v -0.792437 0.036895 -0.054473
v -0.785714 0.037519 -0.053601
v -0.786396 0.039571 -0.053601
v -0.786597 0.041691 -0.056070
v -0.785941 0.040571 -0.060938
v -0.785531 0.037493 -0.060752
v -0.785301 0.036153 -0.057035
v -0.776387 0.036824 -0.052087
v -0.776867 0.038977 -0.052526
v -0.776914 0.040768 -0.054785
v -0.776363 0.039531 -0.058394
v -0.775916 0.036888 -0.058624
v -0.775809 0.035503 -0.055507
v -0.766956 0.035048 -0.050345
v -0.767331 0.037908 -0.051038
v -0.767115 0.039566 -0.053881
v -0.766453 0.038386 -0.057214
v -0.766034 0.035838 -0.057259
v -0.766152 0.034378 -0.054430
v -0.759245 0.032839 -0.049288
v -0.759470 0.036558 -0.048652
v -0.758902 0.039825 -0.052702
v -0.757416 0.038160 -0.057984
v -0.757331 0.034736 -0.057144
v -0.758075 0.032827 -0.053831
v -0.750940 0.032106 -0.052594
v -0.750613 0.033952 -0.056970
v -0.751399 0.031729 -0.046335
v -0.748790 0.038789 -0.058061
v -0.752837 0.035926 -0.045521
v -0.749367 0.039172 -0.051023
v -0.803823 0.042088 -0.057080
v -0.805000 0.039314 -0.063067
v -0.805000 0.039147 -0.058130
v -0.803805 0.042259 -0.062267
v -0.802427 0.035999 -0.063056
v -0.802517 0.035990 -0.058718
v -0.802209 0.037353 -0.055444
v -0.801820 0.037848 -0.066877
v -0.801257 0.039413 -0.055399
v -0.800465 0.042215 -0.055643
v -0.800708 0.042356 -0.061502
v -0.800964 0.040495 -0.065383
v -0.797643 0.037607 -0.067615
v -0.798030 0.035151 -0.063262
v -0.798090 0.034623 -0.057854
v -0.798975 0.036870 -0.054443
v -0.771855 0.037393 -0.051060
v -0.772007 0.039477 -0.052667
v -0.771636 0.039640 -0.056210
v -0.771101 0.037666 -0.058251
v -0.770886 0.035619 -0.056508
v -0.771121 0.034912 -0.052714
v -0.796487 0.042458 -0.060802
v -0.790416 0.041971 -0.059407
v -0.781673 0.041191 -0.057756
v -0.794885 0.038883 -0.065139
v -0.789559 0.039144 -0.062480
v -0.781021 0.038597 -0.060424
v -0.794700 0.036536 -0.061844
v -0.789313 0.036802 -0.059934
v -0.780755 0.036272 -0.058218
v -0.794216 0.035558 -0.056908
v -0.780903 0.036349 -0.054184
v -0.789021 0.036353 -0.055681
v -0.796686 0.041529 -0.054591
v -0.790694 0.040988 -0.054486
v -0.795948 0.037959 -0.054391
v -0.790078 0.038512 -0.053532
v -0.781519 0.038408 -0.052615
v -0.781877 0.040471 -0.053778
v -0.761548 0.034337 -0.055774
v -0.762220 0.033568 -0.051980
v -0.761590 0.036649 -0.057970
v -0.763218 0.035710 -0.049043
v -0.763050 0.038744 -0.051391
v -0.762244 0.039061 -0.055601
v -0.755223 0.038553 -0.048567
v -0.752750 0.036192 -0.058599
v -0.754262 0.032953 -0.055591
v -0.754211 0.040707 -0.055685
v -0.755443 0.030970 -0.050885
v -0.749979 0.033737 -0.051822
v -0.755922 0.033409 -0.046649
v -0.747319 0.035947 -0.048899
v -0.749177 0.036863 -0.054042
v -0.800110 0.040665 -0.054320
v -0.802668 0.040689 -0.056435
v -0.802094 0.038361 -0.055153
v -0.799496 0.037938 -0.054204
v -0.798389 0.039197 -0.066924
v -0.801593 0.039316 -0.066817
v -0.802850 0.041909 -0.064642
v -0.799938 0.042238 -0.064513
v -0.802159 0.042261 -0.056653
v -0.802409 0.042552 -0.061643
v -0.799602 0.037358 -0.067697
v -0.800390 0.034939 -0.058353
v -0.800491 0.036710 -0.054772
v -0.800107 0.034999 -0.063373
v -0.804982 0.041016 -0.057290
v -0.804191 0.042392 -0.059669
v -0.804838 0.041214 -0.063106
v -0.803712 0.038717 -0.065356
v -0.802078 0.036521 -0.065278
v -0.803753 0.038346 -0.056382
v -0.802305 0.036403 -0.056790
v -0.804071 0.037523 -0.062729
v -0.805416 0.039424 -0.060582
v -0.804048 0.037437 -0.058717
v -0.802636 0.035969 -0.060830
v -0.800856 0.042312 -0.058587
v -0.798739 0.042540 -0.061364
v -0.798753 0.041940 -0.054804
v -0.797239 0.035629 -0.066156
v -0.796683 0.036116 -0.062728
v -0.798902 0.035446 -0.060553
v -0.796106 0.034955 -0.057348
v -0.798420 0.035496 -0.055538
v -0.796273 0.038376 -0.066652
v -0.797695 0.037482 -0.054384
v -0.796418 0.039407 -0.053748
v -0.796700 0.042269 -0.057342
v -0.794095 0.041283 -0.054471
v -0.793817 0.042228 -0.060091
v -0.795632 0.040999 -0.064447
v -0.792643 0.039140 -0.063646
v -0.794466 0.037297 -0.063916
v -0.792290 0.036719 -0.060921
v -0.794721 0.036087 -0.059459
v -0.791835 0.035891 -0.056344
v -0.794868 0.036505 -0.054822
v -0.793347 0.038237 -0.053873
v -0.786103 0.038599 -0.053242
v -0.786575 0.040761 -0.054336
v -0.786357 0.041644 -0.058679
v -0.785673 0.038887 -0.061550
v -0.785401 0.036544 -0.059116
v -0.785387 0.036523 -0.054928
v -0.776689 0.038024 -0.051970
v -0.776928 0.039951 -0.053246
v -0.776680 0.040467 -0.056880
v -0.776084 0.038205 -0.059155
v -0.775823 0.035985 -0.057284
v -0.776012 0.035774 -0.053448
v -0.767274 0.036607 -0.050087
v -0.767316 0.038988 -0.052152
v -0.766759 0.039158 -0.055799
v -0.766196 0.037112 -0.057921
v -0.766028 0.034989 -0.056041
v -0.766478 0.034218 -0.052268
v -0.759679 0.034441 -0.047867
v -0.759236 0.038471 -0.050386
v -0.758124 0.039690 -0.055835
v -0.757216 0.036197 -0.058137
v -0.757582 0.033614 -0.055744
v -0.758589 0.032437 -0.051544
v -0.781213 0.037313 -0.052877
v -0.781751 0.039376 -0.053085
v -0.781885 0.041359 -0.055427
v -0.781312 0.040163 -0.059722
v -0.780851 0.037183 -0.059758
v -0.780730 0.035948 -0.056213
v -0.771543 0.036013 -0.051159
v -0.771976 0.038467 -0.051763
v -0.771900 0.040087 -0.054325
v -0.771368 0.038867 -0.057500
v -0.770965 0.036464 -0.057680
v -0.770898 0.034965 -0.054921
v -0.762787 0.034089 -0.049868
v -0.763170 0.037353 -0.050035
v -0.762735 0.039475 -0.053360
v -0.761844 0.038149 -0.057319
v -0.761487 0.035253 -0.057117
v -0.761807 0.033753 -0.054057
v -0.790677 0.041871 -0.056593
v -0.789870 0.040874 -0.061973
v -0.789424 0.037736 -0.061627
v -0.789125 0.036279 -0.057882
v -0.789479 0.037334 -0.054120
v -0.790472 0.039631 -0.053593
v -0.754799 0.031868 -0.053597
v -0.753469 0.034316 -0.057297
v -0.751940 0.032659 -0.055279
v -0.752352 0.030871 -0.049942
v -0.756003 0.031304 -0.047767
v -0.748966 0.036547 -0.058425
v -0.752909 0.038647 -0.058784
v -0.756050 0.035866 -0.046946
v -0.751260 0.034097 -0.045196
v -0.755324 0.039992 -0.051967
v -0.749306 0.038761 -0.048938
v -0.748981 0.039792 -0.053777
v -0.749574 0.034663 -0.053975
v -0.748218 0.033817 -0.048899
v -0.800012 0.038401 -0.054431
v -0.799608 0.039264 -0.054038
v -0.800417 0.040233 -0.054799
v -0.801534 0.040864 -0.055839
v -0.802371 0.040376 -0.056349
v -0.802768 0.039651 -0.056216
v -0.801936 0.038716 -0.055332
v -0.800924 0.038092 -0.054705
v -0.800265 0.041469 -0.065073
v -0.799218 0.040631 -0.065573
v -0.799364 0.039686 -0.066173
v -0.800184 0.039297 -0.066671
v -0.801419 0.039788 -0.066085
v -0.802209 0.040465 -0.065645
v -0.802074 0.041290 -0.065118
v -0.801366 0.041908 -0.064884
v -0.750744 0.037590 -0.046165
v -0.751747 0.040311 -0.051386
v -0.750507 0.040885 -0.054414
v -0.749349 0.034030 -0.055590
v -0.749049 0.032784 -0.046995
v -0.748280 0.035318 -0.045697
v -0.749115 0.036053 -0.051493
v -0.751896 0.039696 -0.049457
v -0.748072 0.036839 -0.056889
v -0.747959 0.038497 -0.056654
v -0.803005 0.042225 -0.056950
v -0.804143 0.042404 -0.058297
v -0.803409 0.042549 -0.059371
v -0.802418 0.042538 -0.057793
v -0.803298 0.042533 -0.058078
v -0.804072 0.042332 -0.060980
v -0.803153 0.042484 -0.061897
v -0.802572 0.042530 -0.060374
v -0.803356 0.042516 -0.060650
v -0.801734 0.042415 -0.058845
v -0.800683 0.042414 -0.057079
v -0.801317 0.042260 -0.056189
v -0.801560 0.042490 -0.057453
v -0.801594 0.042465 -0.061539
v -0.800887 0.042270 -0.060015
v -0.801766 0.042373 -0.060189
v -0.802608 0.035961 -0.059764
v -0.801502 0.035369 -0.058560
v -0.800579 0.035128 -0.059628
v -0.801603 0.035399 -0.060869
v -0.801589 0.035377 -0.059718
v -0.799249 0.034719 -0.058117
v -0.798598 0.035110 -0.059264
v -0.799761 0.035329 -0.060727
v -0.799644 0.035147 -0.059485
v -0.800415 0.035100 -0.062057
v -0.801311 0.035372 -0.063263
v -0.802568 0.035958 -0.061928
v -0.801493 0.035362 -0.062037
v -0.798675 0.035403 -0.061865
v -0.798954 0.034924 -0.063367
v -0.799456 0.035154 -0.061988
v -0.802402 0.036127 -0.057714
v -0.801381 0.035912 -0.056469
v -0.800322 0.035090 -0.057135
v -0.801429 0.035549 -0.057456
v -0.802251 0.036825 -0.055993
v -0.801351 0.036947 -0.055071
v -0.800404 0.036114 -0.055300
v -0.801347 0.036388 -0.055618
v -0.799348 0.035417 -0.055801
v -0.798091 0.034812 -0.056497
v -0.799176 0.034836 -0.056800
v -0.799688 0.036695 -0.054560
v -0.798706 0.036197 -0.054870
v -0.799510 0.036057 -0.055039
v -0.800947 0.035986 -0.065760
v -0.802252 0.036170 -0.064190
v -0.799826 0.035124 -0.064782
v -0.801118 0.035556 -0.064536
v -0.800717 0.037519 -0.067404
v -0.801938 0.037085 -0.066244
v -0.799598 0.036427 -0.067155
v -0.800812 0.036678 -0.066789
v -0.798368 0.035489 -0.066251
v -0.797346 0.036540 -0.067189
v -0.798561 0.037395 -0.067752
v -0.798416 0.036391 -0.067280
v -0.797486 0.035168 -0.064752
v -0.798544 0.034978 -0.064863
v -0.805309 0.039420 -0.061831
v -0.805090 0.040320 -0.063220
v -0.805249 0.041363 -0.061676
v -0.805623 0.040479 -0.060448
v -0.805474 0.040460 -0.061844
v -0.804364 0.041840 -0.062711
v -0.804873 0.042015 -0.059956
v -0.804705 0.041949 -0.061338
v -0.805165 0.040115 -0.057658
v -0.805327 0.039346 -0.059318
v -0.805377 0.041327 -0.058703
v -0.805545 0.040385 -0.059008
v -0.804502 0.041687 -0.057147
v -0.804855 0.041999 -0.058487
v -0.804467 0.039076 -0.064284
v -0.804631 0.038371 -0.062840
v -0.803768 0.037505 -0.063694
v -0.803631 0.037981 -0.064815
v -0.804208 0.038232 -0.063884
v -0.803348 0.036734 -0.062838
v -0.802943 0.037072 -0.064789
v -0.803131 0.036828 -0.063859
v -0.802820 0.038279 -0.066193
v -0.802883 0.037564 -0.065580
v -0.804603 0.038253 -0.058499
v -0.804449 0.038798 -0.057128
v -0.803653 0.037753 -0.056881
v -0.803762 0.037378 -0.057851
v -0.804180 0.038052 -0.057589
v -0.803007 0.037844 -0.055861
v -0.803036 0.036927 -0.057057
v -0.803019 0.037317 -0.056397
v -0.803360 0.036693 -0.058782
v -0.803178 0.036742 -0.057863
v -0.804249 0.037498 -0.059678
v -0.804971 0.038430 -0.060646
v -0.804878 0.038373 -0.059539
v -0.803554 0.036722 -0.060754
v -0.803498 0.036703 -0.059752
v -0.804268 0.037541 -0.061711
v -0.803500 0.036720 -0.061789
v -0.804889 0.038432 -0.061755
v -0.799750 0.042462 -0.061473
v -0.798870 0.042521 -0.059514
v -0.799898 0.042395 -0.058235
v -0.799904 0.042430 -0.059782
v -0.797655 0.042511 -0.061118
v -0.796647 0.042437 -0.058971
v -0.797826 0.042346 -0.057594
v -0.797792 0.042486 -0.059242
v -0.798820 0.042265 -0.056338
v -0.799628 0.042116 -0.055146
v -0.799773 0.042347 -0.056687
v -0.796715 0.042025 -0.055855
v -0.797774 0.041719 -0.054655
v -0.797807 0.042146 -0.056065
v -0.797367 0.035628 -0.063053
v -0.796146 0.036195 -0.064061
v -0.796345 0.035980 -0.065819
v -0.796728 0.035623 -0.064478
v -0.795778 0.036400 -0.062315
v -0.794514 0.036811 -0.062955
v -0.795150 0.036939 -0.064602
v -0.795403 0.036566 -0.063534
v -0.795846 0.037307 -0.066178
v -0.796900 0.037973 -0.067247
v -0.796474 0.036866 -0.066824
v -0.794600 0.038004 -0.064710
v -0.795640 0.038675 -0.065930
v -0.795277 0.037694 -0.065459
v -0.797005 0.034675 -0.057585
v -0.796468 0.035261 -0.058745
v -0.797884 0.035523 -0.060323
v -0.797512 0.035113 -0.058987
v -0.795242 0.035312 -0.057137
v -0.794439 0.035742 -0.058229
v -0.795822 0.035918 -0.059790
v -0.795512 0.035539 -0.058506
v -0.794820 0.036350 -0.060659
v -0.796927 0.035971 -0.061392
v -0.795950 0.036223 -0.061051
v -0.797833 0.035674 -0.061664
v -0.798343 0.037161 -0.054382
v -0.797280 0.036774 -0.054755
v -0.797593 0.035724 -0.055335
v -0.797989 0.036463 -0.054784
v -0.796935 0.037762 -0.054458
v -0.795464 0.037253 -0.054561
v -0.795875 0.036265 -0.054984
v -0.796471 0.037050 -0.054716
v -0.794342 0.035820 -0.055603
v -0.796231 0.035237 -0.055988
v -0.795338 0.035550 -0.055790
v -0.797115 0.034958 -0.056222
v -0.796563 0.040536 -0.053757
v -0.795477 0.041405 -0.054509
v -0.793944 0.040422 -0.053712
v -0.795155 0.039458 -0.053624
v -0.795324 0.040471 -0.053726
v -0.792497 0.041139 -0.054473
v -0.790599 0.040288 -0.053890
v -0.792221 0.039585 -0.053539
v -0.792374 0.040358 -0.053796
v -0.794729 0.038100 -0.054133
v -0.796255 0.038623 -0.054100
v -0.793609 0.038852 -0.053650
v -0.795004 0.038738 -0.053874
v -0.790312 0.039076 -0.053503
v -0.791804 0.038385 -0.053690
v -0.792057 0.038976 -0.053557
v -0.795225 0.042364 -0.060455
v -0.793992 0.042234 -0.058476
v -0.795473 0.042178 -0.057138
v -0.795400 0.042355 -0.058718
v -0.792208 0.042090 -0.059737
v -0.790582 0.042024 -0.057972
v -0.792475 0.041958 -0.056797
v -0.792379 0.042117 -0.058232
v -0.794126 0.041791 -0.055597
v -0.795508 0.041913 -0.055700
v -0.790719 0.041537 -0.055390
v -0.792522 0.041664 -0.055499
v -0.795224 0.039883 -0.065108
v -0.793874 0.039038 -0.064376
v -0.792823 0.040016 -0.063722
v -0.794427 0.040980 -0.063841
v -0.794105 0.039959 -0.064414
v -0.791196 0.039179 -0.063021
v -0.789668 0.040002 -0.062488
v -0.791588 0.040933 -0.062540
v -0.791342 0.040040 -0.063062
v -0.793491 0.041804 -0.061854
v -0.796119 0.041991 -0.062852
v -0.794862 0.041911 -0.062379
v -0.790156 0.041587 -0.060846
v -0.791920 0.041697 -0.061313
v -0.793559 0.036652 -0.061383
v -0.792307 0.037129 -0.061879
v -0.793559 0.037563 -0.063247
v -0.793512 0.037021 -0.062394
v -0.790888 0.036770 -0.060431
v -0.789360 0.037191 -0.060867
v -0.791005 0.037752 -0.062128
v -0.790926 0.037179 -0.061375
v -0.792510 0.038382 -0.063254
v -0.793687 0.038241 -0.063948
v -0.789492 0.038397 -0.062164
v -0.791101 0.038429 -0.062673
v -0.793083 0.035738 -0.056644
v -0.791931 0.035916 -0.057557
v -0.793468 0.036130 -0.059106
v -0.793241 0.035848 -0.057908
v -0.790485 0.036095 -0.056013
v -0.789023 0.036203 -0.056770
v -0.790673 0.036177 -0.058318
v -0.790522 0.036018 -0.057172
v -0.792248 0.036418 -0.059852
v -0.793578 0.036394 -0.060269
v -0.789237 0.036502 -0.058937
v -0.790812 0.036449 -0.059402
v -0.792931 0.037580 -0.054109
v -0.793713 0.036701 -0.054647
v -0.794269 0.037415 -0.054331
v -0.789787 0.037923 -0.053726
v -0.791040 0.037119 -0.054303
v -0.791447 0.037761 -0.053918
v -0.792004 0.036244 -0.055210
v -0.793234 0.036042 -0.055418
v -0.789192 0.036768 -0.054760
v -0.790670 0.036498 -0.054987
v -0.788172 0.038586 -0.053374
v -0.785907 0.038064 -0.053286
v -0.787705 0.037479 -0.053894
v -0.787940 0.038032 -0.053523
v -0.783863 0.038532 -0.052963
v -0.781370 0.037867 -0.052603
v -0.783530 0.037456 -0.053250
v -0.783697 0.038001 -0.052966
v -0.781049 0.036786 -0.053409
v -0.783232 0.036488 -0.054555
v -0.785533 0.036983 -0.054143
v -0.783369 0.036931 -0.053782
v -0.787320 0.036488 -0.055313
v -0.787482 0.036937 -0.054481
v -0.788717 0.040867 -0.054457
v -0.786493 0.040125 -0.053889
v -0.788522 0.039630 -0.053611
v -0.788632 0.040216 -0.053931
v -0.784277 0.040634 -0.054090
v -0.781822 0.039895 -0.053373
v -0.784119 0.039486 -0.053405
v -0.784205 0.040022 -0.053682
v -0.781650 0.038900 -0.052824
v -0.786272 0.039091 -0.053389
v -0.784009 0.039014 -0.053163
v -0.788375 0.039116 -0.053434
v -0.788469 0.041840 -0.059074
v -0.786508 0.041794 -0.057344
v -0.788721 0.041789 -0.056350
v -0.788629 0.041929 -0.057679
v -0.784074 0.041413 -0.058214
v -0.781805 0.041409 -0.056586
v -0.784297 0.041545 -0.055760
v -0.784213 0.041608 -0.056969
v -0.781907 0.041016 -0.054451
v -0.786618 0.041335 -0.055045
v -0.784318 0.041200 -0.054768
v -0.788751 0.041434 -0.055249
v -0.787725 0.039032 -0.062006
v -0.785778 0.039736 -0.061480
v -0.787991 0.040746 -0.061475
v -0.787819 0.039884 -0.061988
v -0.783415 0.038747 -0.061024
v -0.781152 0.039408 -0.060255
v -0.783697 0.040380 -0.060341
v -0.783535 0.039583 -0.060895
v -0.781498 0.040765 -0.058837
v -0.786155 0.041227 -0.059926
v -0.783892 0.040996 -0.059378
v -0.788238 0.041438 -0.060415
v -0.787487 0.036731 -0.059496
v -0.785463 0.036949 -0.060016
v -0.787599 0.037643 -0.061181
v -0.787537 0.037110 -0.060423
v -0.783146 0.036409 -0.058676
v -0.780795 0.036652 -0.059070
v -0.783260 0.037340 -0.060270
v -0.783197 0.036802 -0.059556
v -0.780922 0.037838 -0.060242
v -0.785598 0.038140 -0.061282
v -0.783328 0.037991 -0.060787
v -0.787660 0.038289 -0.061717
v -0.785306 0.036226 -0.055930
v -0.780791 0.036057 -0.055150
v -0.783097 0.036085 -0.056613
v -0.783137 0.036193 -0.055532
v -0.787329 0.036256 -0.057454
v -0.787272 0.036245 -0.056349
v -0.780732 0.036041 -0.057252
v -0.785348 0.036284 -0.058109
v -0.783112 0.036176 -0.057677
v -0.787420 0.036453 -0.058503
v -0.776554 0.037440 -0.051856
v -0.774255 0.037738 -0.051568
v -0.771726 0.036724 -0.050932
v -0.773950 0.036456 -0.051639
v -0.774125 0.037119 -0.051426
v -0.779120 0.038243 -0.052299
v -0.778817 0.037101 -0.052485
v -0.778977 0.037681 -0.052227
v -0.771326 0.035352 -0.051762
v -0.773550 0.035357 -0.053069
v -0.776196 0.036244 -0.052640
v -0.773746 0.035832 -0.052205
v -0.778477 0.036111 -0.053819
v -0.778642 0.036557 -0.053032
v -0.776905 0.039442 -0.052840
v -0.774450 0.039704 -0.052959
v -0.772000 0.038960 -0.052167
v -0.774403 0.038723 -0.052177
v -0.774433 0.039194 -0.052521
v -0.779416 0.040226 -0.053507
v -0.779326 0.039201 -0.052814
v -0.779379 0.039690 -0.053109
v -0.771932 0.037964 -0.051388
v -0.776794 0.038524 -0.052236
v -0.774345 0.038258 -0.051861
v -0.779239 0.038737 -0.052541
v -0.776816 0.040738 -0.055885
v -0.774150 0.040037 -0.056513
v -0.771769 0.039926 -0.055361
v -0.774397 0.040430 -0.054537
v -0.774284 0.040326 -0.055605
v -0.779200 0.040898 -0.057320
v -0.779417 0.041103 -0.055088
v -0.779334 0.041137 -0.056221
v -0.771985 0.039930 -0.053363
v -0.776944 0.040456 -0.053861
v -0.774450 0.040187 -0.053600
v -0.779439 0.040753 -0.054144
v -0.776216 0.038912 -0.058905
v -0.773594 0.037948 -0.058632
v -0.771227 0.038323 -0.058009
v -0.773864 0.039187 -0.057867
v -0.773721 0.038619 -0.058376
v -0.778566 0.038421 -0.059777
v -0.778853 0.039885 -0.059077
v -0.778698 0.039185 -0.059582
v -0.771506 0.039292 -0.056889
v -0.776523 0.040051 -0.057707
v -0.774009 0.039653 -0.057239
v -0.779030 0.040465 -0.058293
v -0.775862 0.036381 -0.058013
v -0.773352 0.035818 -0.056870
v -0.770919 0.036006 -0.057134
v -0.773445 0.036699 -0.058107
v -0.773392 0.036214 -0.057539
v -0.778299 0.036135 -0.057742
v -0.778390 0.037042 -0.059188
v -0.778336 0.036521 -0.058537
v -0.771019 0.037023 -0.058096
v -0.775985 0.037506 -0.059042
v -0.773506 0.037285 -0.058510
v -0.778464 0.037686 -0.059632
v -0.775876 0.035513 -0.054451
v -0.770975 0.034802 -0.053847
v -0.773344 0.035235 -0.055202
v -0.773411 0.035155 -0.054134
v -0.778283 0.035750 -0.055844
v -0.778352 0.035830 -0.054792
v -0.770875 0.035265 -0.055795
v -0.775801 0.035688 -0.056457
v -0.773332 0.035486 -0.056109
v -0.778277 0.035874 -0.056841
v -0.769517 0.037008 -0.050545
v -0.767152 0.035816 -0.049994
v -0.769205 0.035519 -0.050684
v -0.769393 0.036276 -0.050422
v -0.765164 0.036196 -0.049628
v -0.763075 0.034789 -0.049139
v -0.764806 0.034582 -0.050088
v -0.765037 0.035335 -0.049580
v -0.762480 0.033719 -0.050904
v -0.764289 0.033920 -0.052131
v -0.766713 0.034479 -0.051168
v -0.764537 0.034114 -0.051034
v -0.768758 0.034531 -0.052445
v -0.768976 0.034872 -0.051382
v -0.769620 0.039223 -0.052414
v -0.767333 0.038447 -0.051557
v -0.769610 0.038195 -0.051385
v -0.769624 0.038704 -0.051859
v -0.765124 0.038831 -0.051819
v -0.763117 0.038048 -0.050674
v -0.765182 0.037633 -0.050622
v -0.765164 0.038231 -0.051180
v -0.763222 0.036594 -0.049434
v -0.767319 0.037315 -0.050522
v -0.765193 0.036979 -0.050070
v -0.769580 0.037648 -0.050930
v -0.769161 0.039333 -0.055970
v -0.766933 0.039426 -0.054909
v -0.769464 0.039779 -0.054112
v -0.769309 0.039610 -0.055128
v -0.764455 0.039064 -0.055665
v -0.762488 0.039339 -0.054519
v -0.764868 0.039457 -0.053633
v -0.764659 0.039330 -0.054700
v -0.762930 0.039292 -0.052284
v -0.767251 0.039428 -0.052916
v -0.765031 0.039302 -0.052635
v -0.769577 0.039656 -0.053148
v -0.768628 0.037382 -0.057996
v -0.766315 0.037806 -0.057733
v -0.768887 0.038590 -0.057283
v -0.768749 0.038043 -0.057792
v -0.763849 0.036876 -0.057913
v -0.761695 0.037442 -0.057857
v -0.764112 0.038246 -0.057217
v -0.763967 0.037613 -0.057744
v -0.762031 0.038686 -0.056533
v -0.766603 0.038821 -0.056542
v -0.764277 0.038717 -0.056490
v -0.769026 0.039003 -0.056656
v -0.768436 0.035353 -0.056219
v -0.766014 0.035368 -0.056686
v -0.768481 0.036177 -0.057381
v -0.768447 0.035727 -0.056836
v -0.763727 0.034659 -0.055882
v -0.761493 0.034740 -0.056488
v -0.763698 0.035530 -0.057175
v -0.763690 0.035040 -0.056567
v -0.761522 0.035897 -0.057654
v -0.766099 0.036430 -0.057717
v -0.763756 0.036156 -0.057666
v -0.768540 0.036737 -0.057810
v -0.766288 0.034213 -0.053396
v -0.768494 0.034701 -0.054660
v -0.768595 0.034508 -0.053605
v -0.761997 0.033588 -0.053043
v -0.763915 0.034074 -0.054228
v -0.764080 0.033920 -0.053215
v -0.761655 0.034010 -0.054968
v -0.766071 0.034656 -0.055305
v -0.763800 0.034338 -0.055114
v -0.768448 0.035007 -0.055516
v -0.761419 0.035103 -0.048410
v -0.759563 0.033477 -0.048295
v -0.760932 0.033518 -0.049623
v -0.761266 0.034159 -0.048712
v -0.757920 0.033807 -0.047332
v -0.755998 0.032302 -0.046961
v -0.757730 0.032056 -0.048711
v -0.757938 0.032783 -0.047721
v -0.755777 0.030861 -0.049206
v -0.757036 0.031686 -0.051255
v -0.758898 0.032532 -0.050404
v -0.757394 0.031713 -0.049936
v -0.760311 0.033089 -0.051781
v -0.760594 0.033203 -0.050700
v -0.761088 0.038631 -0.050925
v -0.759338 0.037528 -0.049467
v -0.761265 0.036985 -0.049376
v -0.761170 0.037806 -0.050120
v -0.757745 0.036141 -0.047853
v -0.755989 0.034561 -0.046674
v -0.759614 0.035509 -0.048051
v -0.757834 0.034928 -0.047431
v -0.761381 0.036092 -0.048724
v -0.760128 0.039262 -0.055679
v -0.758537 0.039892 -0.054244
v -0.760742 0.039630 -0.053052
v -0.760441 0.039539 -0.054384
v -0.759117 0.039307 -0.051432
v -0.760960 0.039322 -0.051881
v -0.759400 0.036403 -0.058028
v -0.757255 0.037140 -0.058330
v -0.759613 0.038129 -0.057625
v -0.759469 0.037273 -0.058077
v -0.755002 0.036122 -0.058378
v -0.752668 0.037278 -0.058932
v -0.755209 0.038329 -0.058410
v -0.755005 0.037132 -0.058630
v -0.753493 0.040040 -0.057655
v -0.756191 0.040226 -0.055906
v -0.757728 0.039103 -0.057156
v -0.755646 0.039535 -0.057521
v -0.759843 0.038814 -0.056785
v -0.759495 0.034002 -0.055733
v -0.757429 0.034140 -0.056509
v -0.759383 0.034997 -0.057089
v -0.759413 0.034457 -0.056465
v -0.755832 0.033228 -0.055725
v -0.753893 0.033585 -0.056462
v -0.755327 0.034487 -0.057278
v -0.755560 0.033814 -0.056556
v -0.753052 0.035212 -0.058064
v -0.757254 0.035412 -0.057694
v -0.755129 0.035258 -0.057911
v -0.759377 0.035643 -0.057627
v -0.758324 0.032548 -0.052710
v -0.759854 0.033330 -0.053925
v -0.760071 0.033136 -0.052869
v -0.755102 0.031364 -0.052360
v -0.756451 0.032315 -0.053749
v -0.756730 0.031927 -0.052560
v -0.754546 0.032395 -0.054654
v -0.757813 0.033187 -0.054844
v -0.756143 0.032744 -0.054793
v -0.759652 0.033627 -0.054885
v -0.797549 0.039382 -0.053560
v -0.798127 0.038219 -0.053947
v -0.797287 0.038465 -0.054008
v -0.798703 0.040898 -0.053658
v -0.797690 0.040688 -0.053624
v -0.799265 0.037494 -0.054258
v -0.799081 0.038381 -0.053959
v -0.798728 0.037841 -0.054105
v -0.800248 0.041464 -0.054603
v -0.799477 0.040205 -0.053729
v -0.799506 0.041230 -0.053991
v -0.748554 0.034658 -0.050293
v -0.799900 0.039705 -0.054240
v -0.749858 0.035180 -0.052879
v -0.749605 0.034780 -0.051650
v -0.801808 0.041576 -0.055964
v -0.800835 0.040936 -0.055120
v -0.801040 0.041560 -0.055351
v -0.801068 0.040672 -0.055461
v -0.748339 0.037497 -0.050200
v -0.748172 0.035930 -0.050308
v -0.802159 0.040966 -0.056185
v -0.803148 0.041244 -0.056580
v -0.802520 0.041481 -0.056362
v -0.801942 0.040725 -0.056133
v -0.750511 0.039768 -0.050141
v -0.749303 0.038944 -0.050073
v -0.804117 0.040364 -0.056457
v -0.803032 0.040303 -0.056453
v -0.803659 0.040876 -0.056586
v -0.803614 0.039043 -0.055989
v -0.804453 0.039630 -0.056627
v -0.802690 0.039983 -0.056371
v -0.750134 0.040355 -0.052283
v -0.750397 0.040055 -0.051106
v -0.801916 0.039962 -0.056010
v -0.800811 0.039874 -0.055191
v -0.801470 0.040378 -0.055816
v -0.802679 0.038924 -0.055602
v -0.802154 0.037919 -0.055169
v -0.802875 0.038449 -0.055533
v -0.801661 0.039004 -0.055412
v -0.802491 0.039244 -0.055884
v -0.802279 0.039549 -0.056011
v -0.748977 0.038102 -0.052371
v -0.748833 0.037663 -0.051243
v -0.800659 0.037295 -0.054600
v -0.801470 0.037954 -0.054837
v -0.801410 0.037515 -0.054853
v -0.800113 0.037725 -0.054409
v -0.799920 0.037296 -0.054410
v -0.749488 0.036445 -0.052673
v -0.799709 0.038858 -0.054218
v -0.749311 0.039558 -0.052159
v -0.801365 0.038308 -0.054918
v -0.800580 0.038854 -0.054823
v -0.800507 0.038146 -0.054600
v -0.801023 0.038518 -0.054908
v -0.800205 0.039319 -0.054593
v -0.748020 0.037588 -0.057577
v -0.748593 0.039786 -0.055910
v -0.748043 0.038484 -0.057137
v -0.796776 0.041050 -0.065118
v -0.796977 0.039548 -0.066495
v -0.796160 0.039796 -0.065870
v -0.798432 0.042236 -0.063587
v -0.797319 0.042081 -0.063299
v -0.800283 0.042520 -0.063192
v -0.799121 0.041874 -0.064976
v -0.799386 0.042440 -0.063454
v -0.798143 0.039803 -0.066444
v -0.797994 0.038545 -0.067431
v -0.797490 0.039026 -0.067019
v -0.749531 0.040454 -0.053930
v -0.799210 0.040167 -0.065792
v -0.748135 0.038340 -0.055673
v -0.748256 0.039317 -0.055652
v -0.799650 0.038177 -0.067716
v -0.798962 0.038853 -0.067269
v -0.798730 0.038249 -0.067667
v -0.799786 0.039393 -0.066491
v -0.748701 0.038514 -0.053896
v -0.747840 0.037826 -0.056899
v -0.800711 0.038964 -0.067211
v -0.801708 0.038681 -0.067066
v -0.800684 0.038344 -0.067511
v -0.800767 0.039474 -0.066421
v -0.751272 0.040409 -0.057352
v -0.749465 0.040253 -0.056602
v -0.803517 0.039606 -0.065769
v -0.802305 0.039762 -0.066398
v -0.802620 0.039115 -0.066515
v -0.804115 0.040935 -0.064563
v -0.804422 0.040031 -0.064593
v -0.801923 0.040153 -0.065820
v -0.750347 0.037530 -0.059171
v -0.750573 0.038946 -0.058839
v -0.801239 0.040085 -0.065712
v -0.800157 0.040033 -0.065735
v -0.800506 0.039691 -0.066065
v -0.803049 0.041325 -0.065151
v -0.803387 0.042168 -0.063605
v -0.803792 0.041665 -0.064140
v -0.801607 0.040924 -0.065187
v -0.802225 0.040821 -0.065386
v -0.801815 0.040490 -0.065490
v -0.748698 0.037578 -0.058465
v -0.748826 0.035591 -0.055307
v -0.802088 0.042561 -0.062936
v -0.802400 0.042270 -0.064236
v -0.802817 0.042446 -0.063167
v -0.800850 0.042404 -0.064163
v -0.801215 0.042570 -0.062978
v -0.748458 0.036950 -0.055615
v -0.799657 0.041018 -0.065307
v -0.749480 0.035569 -0.054050
v -0.801720 0.041686 -0.064971
v -0.800627 0.040978 -0.065139
v -0.800892 0.041773 -0.064937
v -0.801250 0.041364 -0.065012
v -0.799905 0.040517 -0.065427
v -0.748870 0.035350 -0.057315
v -0.748255 0.036717 -0.057681
v -0.748578 0.035470 -0.056459
v -0.757145 0.039940 -0.052320
v -0.754833 0.040358 -0.053649
v -0.756715 0.040216 -0.054019
v -0.754315 0.035845 -0.046055
v -0.752080 0.035186 -0.045272
v -0.753543 0.033549 -0.045721
v -0.754004 0.034676 -0.045790
v -0.751100 0.032886 -0.045505
v -0.753644 0.031112 -0.046713
v -0.753470 0.032356 -0.045987
v -0.751546 0.032294 -0.054486
v -0.752904 0.032754 -0.055388
v -0.752949 0.031630 -0.053293
v -0.752949 0.032174 -0.054439
v -0.751734 0.031336 -0.050960
v -0.751847 0.030942 -0.048142
v -0.750005 0.032316 -0.046498
v -0.749777 0.032221 -0.049154
v -0.750607 0.031598 -0.048503
v -0.753665 0.030593 -0.050476
v -0.753306 0.031069 -0.052030
v -0.748377 0.033316 -0.047932
v -0.749009 0.033639 -0.050159
v -0.750213 0.032948 -0.052025
v -0.749306 0.032868 -0.049718
v -0.751419 0.033106 -0.055955
v -0.751871 0.034140 -0.057211
v -0.752510 0.033374 -0.056266
v -0.753729 0.030451 -0.048416
v -0.749660 0.034695 -0.045181
v -0.748475 0.033883 -0.046071
v -0.749634 0.033407 -0.045568
v -0.747288 0.035807 -0.047138
v -0.747641 0.034633 -0.048830
v -0.747613 0.034352 -0.047273
v -0.752008 0.036707 -0.045559
v -0.749159 0.036642 -0.045790
v -0.750543 0.035880 -0.045238
v -0.755836 0.037188 -0.047504
v -0.757453 0.038406 -0.049606
v -0.757616 0.037321 -0.048579
v -0.752869 0.038132 -0.047014
v -0.753882 0.037019 -0.046378
v -0.755506 0.039431 -0.050422
v -0.757350 0.039292 -0.050897
v -0.752191 0.040984 -0.055098
v -0.751323 0.040631 -0.052661
v -0.753439 0.040134 -0.051680
v -0.752946 0.040490 -0.053158
v -0.747907 0.037477 -0.048899
v -0.749724 0.038384 -0.047417
v -0.748108 0.037275 -0.047179
v -0.753105 0.039395 -0.048991
v -0.751867 0.040021 -0.050272
v -0.753568 0.039813 -0.050286
v -0.750774 0.039465 -0.049160
v -0.751611 0.039004 -0.048014
v -0.749792 0.033899 -0.056405
v -0.750141 0.032976 -0.054386
v -0.750643 0.032889 -0.055304
v -0.749955 0.034172 -0.053149
v -0.749295 0.034334 -0.054685
v -0.749928 0.033443 -0.053651
v -0.749669 0.035234 -0.057932
v -0.750561 0.036358 -0.058839
v -0.751139 0.035197 -0.058161
f 250 251 247
f 250 247 120
f 251 248 57
f 251 57 247
f 249 127 248
f 249 248 251
f 9 249 251
f 9 251 250
f 254 255 249
f 254 249 9
f 255 252 127
f 255 127 249
f 253 60 252
f 253 252 255
f 121 253 255
f 121 255 254
f 250 259 256
f 250 256 9
f 259 257 137
f 259 137 256
f 258 66 257
f 258 257 259
f 120 258 259
f 120 259 250
f 254 262 260
f 254 260 121
f 262 261 67
f 262 67 260
f 256 137 261
f 256 261 262
f 9 256 262
f 9 262 254
f 266 267 263
f 266 263 136
f 267 264 62
f 267 62 263
f 265 123 264
f 265 264 267
f 10 265 267
f 10 267 266
f 270 271 265
f 270 265 10
f 271 268 123
f 271 123 265
f 269 71 268
f 269 268 271
f 142 269 271
f 142 271 270
f 266 275 272
f 266 272 10
f 275 273 125
f 275 125 272
f 274 61 273
f 274 273 275
f 136 274 275
f 136 275 266
f 270 278 276
f 270 276 142
f 278 277 70
f 278 70 276
f 272 125 277
f 272 277 278
f 10 272 278
f 10 278 270
f 281 282 264
f 281 264 123
f 282 279 62
f 282 62 264
f 280 132 279
f 280 279 282
f 11 280 282
f 11 282 281
f 285 286 280
f 285 280 11
f 286 283 132
f 286 132 280
f 284 63 283
f 284 283 286
f 124 284 286
f 124 286 285
f 281 289 287
f 281 287 11
f 289 288 144
f 289 144 287
f 268 71 288
f 268 288 289
f 123 268 289
f 123 289 281
f 285 292 290
f 285 290 124
f 292 291 72
f 292 72 290
f 287 144 291
f 287 291 292
f 11 287 292
f 11 292 285
f 295 296 293
f 295 293 12
f 296 294 130
f 296 130 293
f 273 61 294
f 273 294 296
f 125 273 296
f 125 296 295
f 299 300 297
f 299 297 122
f 300 298 64
f 300 64 297
f 293 130 298
f 293 298 300
f 12 293 300
f 12 300 299
f 299 304 301
f 299 301 12
f 304 302 140
f 304 140 301
f 303 69 302
f 303 302 304
f 122 303 304
f 122 304 299
f 295 306 277
f 295 277 125
f 306 305 70
f 306 70 277
f 301 140 305
f 301 305 306
f 12 301 306
f 12 306 295
f 310 311 307
f 310 307 134
f 311 308 58
f 311 58 307
f 309 128 308
f 309 308 311
f 13 309 311
f 13 311 310
f 313 314 309
f 313 309 13
f 314 312 128
f 314 128 309
f 252 60 312
f 252 312 314
f 127 252 314
f 127 314 313
f 317 318 315
f 317 315 126
f 318 316 59
f 318 59 315
f 310 134 316
f 310 316 318
f 13 310 318
f 13 318 317
f 313 320 248
f 313 248 127
f 320 319 57
f 320 57 248
f 317 126 319
f 317 319 320
f 13 317 320
f 13 320 313
f 324 325 321
f 324 321 129
f 325 322 58
f 325 58 321
f 323 133 322
f 323 322 325
f 14 323 325
f 14 325 324
f 327 328 323
f 327 323 14
f 328 326 133
f 328 133 323
f 294 61 326
f 294 326 328
f 130 294 328
f 130 328 327
f 327 330 298
f 327 298 130
f 330 329 64
f 330 64 298
f 324 129 329
f 324 329 330
f 14 324 330
f 14 330 327
f 334 335 331
f 334 331 135
f 335 332 59
f 335 59 331
f 333 131 332
f 333 332 335
f 15 333 335
f 15 335 334
f 337 338 333
f 337 333 15
f 338 336 131
f 338 131 333
f 283 63 336
f 283 336 338
f 132 283 338
f 132 338 337
f 334 340 337
f 334 337 15
f 340 279 132
f 340 132 337
f 339 62 279
f 339 279 340
f 135 339 340
f 135 340 334
f 342 343 316
f 342 316 134
f 343 331 59
f 343 59 316
f 341 135 331
f 341 331 343
f 16 341 343
f 16 343 342
f 344 345 341
f 344 341 16
f 345 339 135
f 345 135 341
f 263 62 339
f 263 339 345
f 136 263 345
f 136 345 344
f 346 347 344
f 346 344 16
f 347 274 136
f 347 136 344
f 326 61 274
f 326 274 347
f 133 326 347
f 133 347 346
f 342 348 346
f 342 346 16
f 348 322 133
f 348 133 346
f 307 58 322
f 307 322 348
f 134 307 348
f 134 348 342
f 351 352 261
f 351 261 137
f 352 349 67
f 352 67 261
f 350 138 349
f 350 349 352
f 17 350 352
f 17 352 351
f 355 356 350
f 355 350 17
f 356 353 138
f 356 138 350
f 354 79 353
f 354 353 356
f 148 354 356
f 148 356 355
f 351 359 357
f 351 357 17
f 359 358 139
f 359 139 357
f 257 66 358
f 257 358 359
f 137 257 359
f 137 359 351
f 355 362 360
f 355 360 148
f 362 361 91
f 362 91 360
f 357 139 361
f 357 361 362
f 17 357 362
f 17 362 355
f 365 366 305
f 365 305 140
f 366 363 70
f 366 70 305
f 364 141 363
f 364 363 366
f 18 364 366
f 18 366 365
f 369 370 364
f 369 364 18
f 370 367 141
f 370 141 364
f 368 85 367
f 368 367 370
f 153 368 370
f 153 370 369
f 365 373 371
f 365 371 18
f 373 372 145
f 373 145 371
f 302 69 372
f 302 372 373
f 140 302 373
f 140 373 365
f 369 376 374
f 369 374 153
f 376 375 82
f 376 82 374
f 371 145 375
f 371 375 376
f 18 371 376
f 18 376 369
f 379 380 269
f 379 269 142
f 380 377 71
f 380 71 269
f 378 143 377
f 378 377 380
f 19 378 380
f 19 380 379
f 383 384 378
f 383 378 19
f 384 381 143
f 384 143 378
f 382 88 381
f 382 381 384
f 155 382 384
f 155 384 383
f 386 387 383
f 386 383 19
f 387 385 155
f 387 155 383
f 367 85 385
f 367 385 387
f 141 367 387
f 141 387 386
f 379 388 386
f 379 386 19
f 388 363 141
f 388 141 386
f 276 70 363
f 276 363 388
f 142 276 388
f 142 388 379
f 391 392 291
f 391 291 144
f 392 389 72
f 392 72 291
f 390 146 389
f 390 389 392
f 20 390 392
f 20 392 391
f 395 396 390
f 395 390 20
f 396 393 146
f 396 146 390
f 394 93 393
f 394 393 396
f 157 394 396
f 157 396 395
f 398 399 395
f 398 395 20
f 399 397 157
f 399 157 395
f 381 88 397
f 381 397 399
f 143 381 399
f 143 399 398
f 391 400 398
f 391 398 20
f 400 377 143
f 400 143 398
f 288 71 377
f 288 377 400
f 144 288 400
f 144 400 391
f 404 405 401
f 404 401 147
f 405 402 91
f 405 91 401
f 403 149 402
f 403 402 405
f 21 403 405
f 21 405 404
f 408 409 403
f 408 403 21
f 409 406 149
f 409 149 403
f 407 92 406
f 407 406 409
f 206 407 409
f 206 409 408
f 412 413 410
f 412 410 158
f 413 411 93
f 413 93 410
f 404 147 411
f 404 411 413
f 21 404 413
f 21 413 412
f 408 416 414
f 408 414 206
f 416 415 94
f 416 94 414
f 412 158 415
f 412 415 416
f 21 412 416
f 21 416 408
f 419 420 354
f 419 354 148
f 420 417 79
f 420 79 354
f 418 150 417
f 418 417 420
f 22 418 420
f 22 420 419
f 423 424 418
f 423 418 22
f 424 421 150
f 424 150 418
f 422 80 421
f 422 421 424
f 201 422 424
f 201 424 423
f 425 426 402
f 425 402 149
f 426 360 91
f 426 91 402
f 419 148 360
f 419 360 426
f 22 419 426
f 22 426 425
f 423 428 427
f 423 427 201
f 428 406 92
f 428 92 427
f 425 149 406
f 425 406 428
f 22 425 428
f 22 428 423
f 432 433 429
f 432 429 151
f 433 430 82
f 433 82 429
f 431 152 430
f 431 430 433
f 23 431 433
f 23 433 432
f 436 437 431
f 436 431 23
f 437 434 152
f 437 152 431
f 435 83 434
f 435 434 437
f 202 435 437
f 202 437 436
f 432 440 438
f 432 438 23
f 440 417 150
f 440 150 438
f 439 79 417
f 439 417 440
f 151 439 440
f 151 440 432
f 436 442 441
f 436 441 202
f 442 421 80
f 442 80 441
f 438 150 421
f 438 421 442
f 23 438 442
f 23 442 436
f 445 446 368
f 445 368 153
f 446 443 85
f 446 85 368
f 444 154 443
f 444 443 446
f 24 444 446
f 24 446 445
f 449 450 444
f 449 444 24
f 450 447 154
f 450 154 444
f 448 86 447
f 448 447 450
f 203 448 450
f 203 450 449
f 445 452 451
f 445 451 24
f 452 430 152
f 452 152 451
f 374 82 430
f 374 430 452
f 153 374 452
f 153 452 445
f 449 454 453
f 449 453 203
f 454 434 83
f 454 83 453
f 451 152 434
f 451 434 454
f 24 451 454
f 24 454 449
f 457 458 382
f 457 382 155
f 458 455 88
f 458 88 382
f 456 156 455
f 456 455 458
f 25 456 458
f 25 458 457
f 461 462 456
f 461 456 25
f 462 459 156
f 462 156 456
f 460 90 459
f 460 459 462
f 204 460 462
f 204 462 461
f 457 464 463
f 457 463 25
f 464 443 154
f 464 154 463
f 385 85 443
f 385 443 464
f 155 385 464
f 155 464 457
f 461 466 465
f 461 465 204
f 466 447 86
f 466 86 465
f 463 154 447
f 463 447 466
f 25 463 466
f 25 466 461
f 468 469 394
f 468 394 157
f 469 410 93
f 469 93 394
f 467 158 410
f 467 410 469
f 26 467 469
f 26 469 468
f 471 472 467
f 471 467 26
f 472 415 158
f 472 158 467
f 470 94 415
f 470 415 472
f 205 470 472
f 205 472 471
f 468 474 473
f 468 473 26
f 474 455 156
f 474 156 473
f 397 88 455
f 397 455 474
f 157 397 474
f 157 474 468
f 471 476 475
f 471 475 205
f 476 459 90
f 476 90 475
f 473 156 459
f 473 459 476
f 26 473 476
f 26 476 471
f 479 480 470
f 479 470 205
f 480 477 94
f 480 94 470
f 478 159 477
f 478 477 480
f 27 478 480
f 27 480 479
f 483 484 478
f 483 478 27
f 484 481 159
f 484 159 478
f 482 95 481
f 482 481 484
f 183 482 484
f 183 484 483
f 487 488 483
f 487 483 27
f 488 485 183
f 488 183 483
f 486 89 485
f 486 485 488
f 164 486 488
f 164 488 487
f 487 490 489
f 487 489 164
f 490 475 90
f 490 90 489
f 479 205 475
f 479 475 490
f 27 479 490
f 27 490 487
f 493 494 407
f 493 407 206
f 494 491 92
f 494 92 407
f 492 160 491
f 492 491 494
f 28 492 494
f 28 494 493
f 497 498 492
f 497 492 28
f 498 495 160
f 498 160 492
f 496 96 495
f 496 495 498
f 184 496 498
f 184 498 497
f 500 501 497
f 500 497 28
f 501 499 184
f 501 184 497
f 481 95 499
f 481 499 501
f 159 481 501
f 159 501 500
f 500 502 477
f 500 477 159
f 502 414 94
f 502 94 477
f 493 206 414
f 493 414 502
f 28 493 502
f 28 502 500
f 505 506 422
f 505 422 201
f 506 503 80
f 506 80 422
f 504 161 503
f 504 503 506
f 29 504 506
f 29 506 505
f 509 510 504
f 509 504 29
f 510 507 161
f 510 161 504
f 508 81 507
f 508 507 510
f 185 508 510
f 185 510 509
f 512 513 509
f 512 509 29
f 513 511 185
f 513 185 509
f 495 96 511
f 495 511 513
f 160 495 513
f 160 513 512
f 512 514 491
f 512 491 160
f 514 427 92
f 514 92 491
f 505 201 427
f 505 427 514
f 29 505 514
f 29 514 512
f 517 518 435
f 517 435 202
f 518 515 83
f 518 83 435
f 516 162 515
f 516 515 518
f 30 516 518
f 30 518 517
f 521 522 516
f 521 516 30
f 522 519 162
f 522 162 516
f 520 84 519
f 520 519 522
f 186 520 522
f 186 522 521
f 524 525 521
f 524 521 30
f 525 523 186
f 525 186 521
f 507 81 523
f 507 523 525
f 161 507 525
f 161 525 524
f 524 526 503
f 524 503 161
f 526 441 80
f 526 80 503
f 517 202 441
f 517 441 526
f 30 517 526
f 30 526 524
f 529 530 448
f 529 448 203
f 530 527 86
f 530 86 448
f 528 163 527
f 528 527 530
f 31 528 530
f 31 530 529
f 533 534 528
f 533 528 31
f 534 531 163
f 534 163 528
f 532 87 531
f 532 531 534
f 187 532 534
f 187 534 533
f 536 537 533
f 536 533 31
f 537 535 187
f 537 187 533
f 519 84 535
f 519 535 537
f 162 519 537
f 162 537 536
f 536 538 515
f 536 515 162
f 538 453 83
f 538 83 515
f 529 203 453
f 529 453 538
f 31 529 538
f 31 538 536
f 541 542 539
f 541 539 32
f 542 486 164
f 542 164 539
f 540 89 486
f 540 486 542
f 188 540 542
f 188 542 541
f 543 544 460
f 543 460 204
f 544 489 90
f 544 90 460
f 539 164 489
f 539 489 544
f 32 539 544
f 32 544 543
f 546 547 541
f 546 541 32
f 547 545 188
f 547 188 541
f 531 87 545
f 531 545 547
f 163 531 547
f 163 547 546
f 546 548 527
f 546 527 163
f 548 465 86
f 548 86 527
f 543 204 465
f 543 465 548
f 32 543 548
f 32 548 546
f 552 553 549
f 552 549 33
f 553 550 165
f 553 165 549
f 551 73 550
f 551 550 553
f 189 551 553
f 189 553 552
f 555 556 482
f 555 482 183
f 556 554 95
f 556 95 482
f 549 165 554
f 549 554 556
f 33 549 556
f 33 556 555
f 559 560 552
f 559 552 33
f 560 557 189
f 560 189 552
f 558 78 557
f 558 557 560
f 170 558 560
f 170 560 559
f 555 562 559
f 555 559 33
f 562 561 170
f 562 170 559
f 485 89 561
f 485 561 562
f 183 485 562
f 183 562 555
f 566 567 563
f 566 563 34
f 567 564 166
f 567 166 563
f 565 74 564
f 565 564 567
f 190 565 567
f 190 567 566
f 569 570 496
f 569 496 184
f 570 568 96
f 570 96 496
f 563 166 568
f 563 568 570
f 34 563 570
f 34 570 569
f 572 573 566
f 572 566 34
f 573 571 190
f 573 190 566
f 550 73 571
f 550 571 573
f 165 550 573
f 165 573 572
f 569 574 572
f 569 572 34
f 574 554 165
f 574 165 572
f 499 95 554
f 499 554 574
f 184 499 574
f 184 574 569
f 578 579 575
f 578 575 35
f 579 576 167
f 579 167 575
f 577 75 576
f 577 576 579
f 191 577 579
f 191 579 578
f 581 582 508
f 581 508 185
f 582 580 81
f 582 81 508
f 575 167 580
f 575 580 582
f 35 575 582
f 35 582 581
f 584 585 578
f 584 578 35
f 585 583 191
f 585 191 578
f 564 74 583
f 564 583 585
f 166 564 585
f 166 585 584
f 581 586 584
f 581 584 35
f 586 568 166
f 586 166 584
f 511 96 568
f 511 568 586
f 185 511 586
f 185 586 581
f 590 591 587
f 590 587 36
f 591 588 168
f 591 168 587
f 589 76 588
f 589 588 591
f 192 589 591
f 192 591 590
f 593 594 520
f 593 520 186
f 594 592 84
f 594 84 520
f 587 168 592
f 587 592 594
f 36 587 594
f 36 594 593
f 596 597 590
f 596 590 36
f 597 595 192
f 597 192 590
f 576 75 595
f 576 595 597
f 167 576 597
f 167 597 596
f 593 598 596
f 593 596 36
f 598 580 167
f 598 167 596
f 523 81 580
f 523 580 598
f 186 523 598
f 186 598 593
f 602 603 599
f 602 599 37
f 603 600 169
f 603 169 599
f 601 77 600
f 601 600 603
f 193 601 603
f 193 603 602
f 605 606 532
f 605 532 187
f 606 604 87
f 606 87 532
f 599 169 604
f 599 604 606
f 37 599 606
f 37 606 605
f 608 609 602
f 608 602 37
f 609 607 193
f 609 193 602
f 588 76 607
f 588 607 609
f 168 588 609
f 168 609 608
f 605 610 608
f 605 608 37
f 610 592 168
f 610 168 608
f 535 84 592
f 535 592 610
f 187 535 610
f 187 610 605
f 613 614 611
f 613 611 38
f 614 558 170
f 614 170 611
f 612 78 558
f 612 558 614
f 194 612 614
f 194 614 613
f 615 616 540
f 615 540 188
f 616 561 89
f 616 89 540
f 611 170 561
f 611 561 616
f 38 611 616
f 38 616 615
f 618 619 613
f 618 613 38
f 619 617 194
f 619 194 613
f 600 77 617
f 600 617 619
f 169 600 619
f 169 619 618
f 615 620 618
f 615 618 38
f 620 604 169
f 620 169 618
f 545 87 604
f 545 604 620
f 188 545 620
f 188 620 615
f 623 624 551
f 623 551 189
f 624 621 73
f 624 73 551
f 622 171 621
f 622 621 624
f 39 622 624
f 39 624 623
f 627 628 622
f 627 622 39
f 628 625 171
f 628 171 622
f 626 100 625
f 626 625 628
f 195 626 628
f 195 628 627
f 631 632 627
f 631 627 39
f 632 629 195
f 632 195 627
f 630 98 629
f 630 629 632
f 176 630 632
f 176 632 631
f 623 634 631
f 623 631 39
f 634 633 176
f 634 176 631
f 557 78 633
f 557 633 634
f 189 557 634
f 189 634 623
f 637 638 565
f 637 565 190
f 638 635 74
f 638 74 565
f 636 172 635
f 636 635 638
f 40 636 638
f 40 638 637
f 641 642 636
f 641 636 40
f 642 639 172
f 642 172 636
f 640 101 639
f 640 639 642
f 196 640 642
f 196 642 641
f 644 645 641
f 644 641 40
f 645 643 196
f 645 196 641
f 625 100 643
f 625 643 645
f 171 625 645
f 171 645 644
f 637 646 644
f 637 644 40
f 646 621 171
f 646 171 644
f 571 73 621
f 571 621 646
f 190 571 646
f 190 646 637
f 649 650 577
f 649 577 191
f 650 647 75
f 650 75 577
f 648 173 647
f 648 647 650
f 41 648 650
f 41 650 649
f 653 654 648
f 653 648 41
f 654 651 173
f 654 173 648
f 652 102 651
f 652 651 654
f 197 652 654
f 197 654 653
f 656 657 653
f 656 653 41
f 657 655 197
f 657 197 653
f 639 101 655
f 639 655 657
f 172 639 657
f 172 657 656
f 649 658 656
f 649 656 41
f 658 635 172
f 658 172 656
f 583 74 635
f 583 635 658
f 191 583 658
f 191 658 649
f 661 662 589
f 661 589 192
f 662 659 76
f 662 76 589
f 660 174 659
f 660 659 662
f 42 660 662
f 42 662 661
f 665 666 660
f 665 660 42
f 666 663 174
f 666 174 660
f 664 99 663
f 664 663 666
f 198 664 666
f 198 666 665
f 668 669 665
f 668 665 42
f 669 667 198
f 669 198 665
f 651 102 667
f 651 667 669
f 173 651 669
f 173 669 668
f 661 670 668
f 661 668 42
f 670 647 173
f 670 173 668
f 595 75 647
f 595 647 670
f 192 595 670
f 192 670 661
f 673 674 601
f 673 601 193
f 674 671 77
f 674 77 601
f 672 175 671
f 672 671 674
f 43 672 674
f 43 674 673
f 677 678 672
f 677 672 43
f 678 675 175
f 678 175 672
f 676 97 675
f 676 675 678
f 199 676 678
f 199 678 677
f 680 681 677
f 680 677 43
f 681 679 199
f 681 199 677
f 663 99 679
f 663 679 681
f 174 663 681
f 174 681 680
f 673 682 680
f 673 680 43
f 682 659 174
f 682 174 680
f 607 76 659
f 607 659 682
f 193 607 682
f 193 682 673
f 684 685 612
f 684 612 194
f 685 633 78
f 685 78 612
f 683 176 633
f 683 633 685
f 44 683 685
f 44 685 684
f 687 688 683
f 687 683 44
f 688 630 176
f 688 176 683
f 686 98 630
f 686 630 688
f 200 686 688
f 200 688 687
f 690 691 687
f 690 687 44
f 691 689 200
f 691 200 687
f 675 97 689
f 675 689 691
f 175 675 691
f 175 691 690
f 684 692 690
f 684 690 44
f 692 671 175
f 692 175 690
f 617 77 671
f 617 671 692
f 194 617 692
f 194 692 684
f 695 696 626
f 695 626 195
f 696 693 100
f 696 100 626
f 694 177 693
f 694 693 696
f 45 694 696
f 45 696 695
f 699 700 694
f 699 694 45
f 700 697 177
f 700 177 694
f 698 109 697
f 698 697 700
f 211 698 700
f 211 700 699
f 703 704 699
f 703 699 45
f 704 701 211
f 704 211 699
f 702 107 701
f 702 701 704
f 182 702 704
f 182 704 703
f 695 706 703
f 695 703 45
f 706 705 182
f 706 182 703
f 629 98 705
f 629 705 706
f 195 629 706
f 195 706 695
f 709 710 640
f 709 640 196
f 710 707 101
f 710 101 640
f 708 178 707
f 708 707 710
f 46 708 710
f 46 710 709
f 713 714 711
f 713 711 46
f 714 712 214
f 714 214 711
f 697 109 712
f 697 712 714
f 177 697 714
f 177 714 713
f 709 715 713
f 709 713 46
f 715 693 177
f 715 177 713
f 643 100 693
f 643 693 715
f 196 643 715
f 196 715 709
f 718 719 652
f 718 652 197
f 719 716 102
f 719 102 652
f 717 179 716
f 717 716 719
f 47 717 719
f 47 719 718
f 718 721 720
f 718 720 47
f 721 707 178
f 721 178 720
f 655 101 707
f 655 707 721
f 197 655 721
f 197 721 718
f 724 725 664
f 724 664 198
f 725 722 99
f 725 99 664
f 723 180 722
f 723 722 725
f 48 723 725
f 48 725 724
f 728 729 723
f 728 723 48
f 729 726 180
f 729 180 723
f 727 104 726
f 727 726 729
f 213 727 729
f 213 729 728
f 732 733 728
f 732 728 48
f 733 730 213
f 733 213 728
f 731 106 730
f 731 730 733
f 179 731 733
f 179 733 732
f 724 734 732
f 724 732 48
f 734 716 179
f 734 179 732
f 667 102 716
f 667 716 734
f 198 667 734
f 198 734 724
f 737 738 676
f 737 676 199
f 738 735 97
f 738 97 676
f 736 181 735
f 736 735 738
f 49 736 738
f 49 738 737
f 741 742 736
f 741 736 49
f 742 739 181
f 742 181 736
f 740 105 739
f 740 739 742
f 208 740 742
f 208 742 741
f 744 745 741
f 744 741 49
f 745 743 208
f 745 208 741
f 726 104 743
f 726 743 745
f 180 726 745
f 180 745 744
f 737 746 744
f 737 744 49
f 746 722 180
f 746 180 744
f 679 99 722
f 679 722 746
f 199 679 746
f 199 746 737
f 748 749 686
f 748 686 200
f 749 705 98
f 749 98 686
f 747 182 705
f 747 705 749
f 50 747 749
f 50 749 748
f 751 752 747
f 751 747 50
f 752 702 182
f 752 182 747
f 750 107 702
f 750 702 752
f 207 750 752
f 207 752 751
f 754 755 751
f 754 751 50
f 755 753 207
f 755 207 751
f 739 105 753
f 739 753 755
f 181 739 755
f 181 755 754
f 748 756 754
f 748 754 50
f 756 735 181
f 756 181 754
f 689 97 735
f 689 735 756
f 200 689 756
f 200 756 748
f 758 759 757
f 758 757 1
f 759 411 147
f 759 147 757
f 393 93 411
f 393 411 759
f 146 393 759
f 146 759 758
f 760 761 361
f 760 361 139
f 761 401 91
f 761 91 361
f 757 147 401
f 757 401 761
f 1 757 761
f 1 761 760
f 758 764 389
f 758 389 146
f 764 762 72
f 764 72 389
f 763 115 762
f 763 762 764
f 1 763 764
f 1 764 758
f 766 767 765
f 766 765 112
f 767 358 66
f 767 66 765
f 760 139 358
f 760 358 767
f 1 760 767
f 1 767 766
f 118 866 873
f 118 873 235
f 8 236 873
f 8 873 866
f 868 875 236
f 868 236 8
f 119 229 875
f 119 875 868
f 773 774 772
f 773 772 2
f 774 258 120
f 774 120 772
f 765 66 258
f 765 258 774
f 112 765 774
f 112 774 773
f 825 871 229
f 825 229 119
f 5 230 871
f 5 871 825
f 7 857 861
f 7 861 234
f 118 235 861
f 118 861 857
f 779 780 247
f 779 247 57
f 780 772 120
f 780 120 247
f 778 2 772
f 778 772 780
f 113 778 780
f 113 780 779
f 117 847 851
f 117 851 233
f 7 234 851
f 7 851 847
f 6 840 843
f 6 843 232
f 117 233 843
f 117 843 840
f 785 786 784
f 785 784 3
f 786 319 126
f 786 126 784
f 779 57 319
f 779 319 786
f 113 779 786
f 113 786 785
f 787 788 332
f 787 332 131
f 788 315 59
f 788 59 332
f 784 126 315
f 784 315 788
f 3 784 788
f 3 788 787
f 116 835 837
f 116 837 231
f 6 232 837
f 6 837 835
f 827 831 230
f 827 230 5
f 116 231 831
f 116 831 827
f 793 794 792
f 793 792 65
f 794 781 225
f 794 225 792
f 775 224 781
f 775 781 794
f 223 775 794
f 223 794 793
f 796 797 336
f 796 336 63
f 797 787 131
f 797 131 336
f 795 3 787
f 795 787 797
f 114 795 797
f 114 797 796
f 799 800 789
f 799 789 226
f 800 792 225
f 800 225 789
f 798 65 792
f 798 792 800
f 227 798 800
f 227 800 799
f 114 804 811
f 114 811 227
f 4 228 811
f 4 811 804
f 806 813 228
f 806 228 4
f 115 221 813
f 115 813 806
f 804 805 803
f 804 803 4
f 805 284 124
f 805 124 803
f 796 63 284
f 796 284 805
f 114 796 805
f 114 805 804
f 803 807 806
f 803 806 4
f 807 762 115
f 807 115 806
f 290 72 762
f 290 762 807
f 124 290 807
f 124 807 803
f 763 809 221
f 763 221 115
f 1 222 809
f 1 809 763
f 3 795 799
f 3 799 226
f 114 227 799
f 114 799 795
f 813 814 811
f 813 811 228
f 814 798 227
f 814 227 811
f 812 65 798
f 812 798 814
f 221 812 814
f 221 814 813
f 809 815 812
f 809 812 221
f 815 793 65
f 815 65 812
f 769 223 793
f 769 793 815
f 222 769 815
f 222 815 809
f 113 785 789
f 113 789 225
f 3 226 789
f 3 789 785
f 2 778 781
f 2 781 224
f 113 225 781
f 113 781 778
f 112 773 775
f 112 775 223
f 2 224 775
f 2 775 773
f 766 769 222
f 766 222 1
f 112 223 769
f 112 769 766
f 820 821 375
f 820 375 145
f 821 429 82
f 821 82 375
f 819 151 429
f 819 429 821
f 5 819 821
f 5 821 820
f 822 823 819
f 822 819 5
f 823 439 151
f 823 151 819
f 353 79 439
f 353 439 823
f 138 353 823
f 138 823 822
f 822 826 349
f 822 349 138
f 826 824 67
f 826 67 349
f 825 119 824
f 825 824 826
f 5 825 826
f 5 826 822
f 828 829 372
f 828 372 69
f 829 820 145
f 829 145 372
f 827 5 820
f 827 820 829
f 116 827 829
f 116 829 828
f 110 914 768
f 110 768 777
f 914 220 903
f 914 903 768
f 768 903 108
f 768 108 771
f 777 768 771
f 777 771 243
f 835 836 834
f 835 834 6
f 836 303 122
f 836 122 834
f 828 69 303
f 828 303 836
f 116 828 836
f 116 836 835
f 243 771 770
f 243 770 808
f 771 108 941
f 771 941 770
f 770 941 219
f 770 219 872
f 808 770 872
f 808 872 111
f 841 842 297
f 841 297 64
f 842 834 122
f 842 122 297
f 840 6 834
f 840 834 842
f 117 840 842
f 117 842 841
f 56 783 776
f 56 776 802
f 783 217 930
f 783 930 776
f 776 930 110
f 776 110 777
f 802 776 777
f 802 777 243
f 847 848 846
f 847 846 7
f 848 329 129
f 848 129 846
f 841 64 329
f 841 329 848
f 117 841 848
f 117 848 847
f 849 850 308
f 849 308 128
f 850 321 58
f 850 58 308
f 846 129 321
f 846 321 850
f 7 846 850
f 7 850 849
f 56 791 782
f 56 782 783
f 791 238 934
f 791 934 782
f 782 934 244
f 782 244 936
f 783 782 936
f 783 936 217
f 855 856 854
f 855 854 68
f 856 843 233
f 856 233 854
f 837 232 843
f 837 843 856
f 231 837 856
f 231 856 855
f 858 859 312
f 858 312 60
f 859 849 128
f 859 128 312
f 857 7 849
f 857 849 859
f 118 857 859
f 118 859 858
f 861 862 851
f 861 851 234
f 862 854 233
f 862 233 851
f 860 68 854
f 860 854 862
f 235 860 862
f 235 862 861
f 56 810 790
f 56 790 791
f 810 218 830
f 810 830 790
f 790 830 239
f 790 239 927
f 791 790 927
f 791 927 238
f 866 867 865
f 866 865 8
f 867 253 121
f 867 121 865
f 858 60 253
f 858 253 867
f 118 858 867
f 118 867 866
f 865 869 868
f 865 868 8
f 869 824 119
f 869 119 868
f 260 67 824
f 260 824 869
f 121 260 869
f 121 869 865
f 243 808 801
f 243 801 802
f 808 111 838
f 808 838 801
f 801 838 218
f 801 218 810
f 802 801 810
f 802 810 56
f 875 876 873
f 875 873 236
f 876 860 235
f 876 235 873
f 874 68 860
f 874 860 876
f 229 874 876
f 229 876 875
f 871 877 874
f 871 874 229
f 877 855 68
f 877 68 874
f 831 231 855
f 831 855 877
f 230 831 877
f 230 877 871
f 246 839 816
f 246 816 818
f 839 245 879
f 839 879 816
f 816 879 212
f 816 212 863
f 818 816 863
f 818 863 54
f 246 818 817
f 246 817 833
f 818 54 845
f 818 845 817
f 817 845 239
f 817 239 830
f 833 817 830
f 833 830 218
f 882 883 881
f 882 881 216
f 883 717 47
f 883 47 881
f 731 179 717
f 731 717 883
f 106 731 883
f 106 883 882
f 886 887 712
f 886 712 109
f 887 884 214
f 887 214 712
f 885 55 884
f 885 884 887
f 215 885 887
f 215 887 886
f 886 890 888
f 886 888 215
f 890 889 53
f 890 53 888
f 698 211 889
f 698 889 890
f 109 698 890
f 109 890 886
f 893 894 891
f 893 891 51
f 894 892 209
f 894 209 891
f 753 105 892
f 753 892 894
f 207 753 894
f 207 894 893
f 898 899 895
f 898 895 51
f 899 896 210
f 899 210 895
f 897 53 896
f 897 896 899
f 241 897 899
f 241 899 898
f 893 901 750
f 893 750 207
f 901 900 107
f 901 107 750
f 895 210 900
f 895 900 901
f 51 895 901
f 51 901 893
f 898 905 902
f 898 902 241
f 905 903 220
f 905 220 902
f 904 108 903
f 904 903 905
f 51 904 905
f 51 905 898
f 892 908 906
f 892 906 209
f 908 907 52
f 908 52 906
f 740 208 907
f 740 907 908
f 105 740 908
f 105 908 892
f 900 909 701
f 900 701 107
f 909 889 211
f 909 211 701
f 896 53 889
f 896 889 909
f 210 896 909
f 210 909 900
f 911 912 897
f 911 897 241
f 912 888 53
f 912 53 897
f 910 215 888
f 910 888 912
f 242 910 912
f 242 912 911
f 902 915 911
f 902 911 241
f 915 913 242
f 915 242 911
f 914 110 913
f 914 913 915
f 220 914 915
f 220 915 902
f 917 918 910
f 917 910 242
f 918 885 215
f 918 215 910
f 916 55 885
f 916 885 918
f 237 916 918
f 237 918 917
f 920 921 919
f 920 919 103
f 921 711 214
f 921 214 919
f 708 46 711
f 708 711 921
f 178 708 921
f 178 921 920
f 922 923 916
f 922 916 237
f 923 884 55
f 923 55 916
f 919 214 884
f 919 884 923
f 103 919 923
f 103 923 922
f 924 925 920
f 924 920 103
f 925 720 178
f 925 178 920
f 881 47 720
f 881 720 925
f 216 881 925
f 216 925 924
f 928 929 882
f 928 882 216
f 929 926 106
f 929 106 882
f 927 239 926
f 927 926 929
f 238 927 929
f 238 929 928
f 931 932 930
f 931 930 217
f 932 913 110
f 932 110 930
f 917 242 913
f 917 913 932
f 237 917 932
f 237 932 931
f 934 935 933
f 934 933 244
f 935 924 103
f 935 103 933
f 928 216 924
f 928 924 935
f 238 928 935
f 238 935 934
f 936 937 931
f 936 931 217
f 937 922 237
f 937 237 931
f 933 103 922
f 933 922 937
f 244 933 937
f 244 937 936
f 939 940 938
f 939 938 240
f 940 906 52
f 940 52 938
f 891 209 906
f 891 906 940
f 51 891 940
f 51 940 939
f 939 943 904
f 939 904 51
f 943 941 108
f 943 108 904
f 942 219 941
f 942 941 943
f 240 942 943
f 240 943 939
f 945 946 743
f 945 743 104
f 946 907 208
f 946 208 743
f 944 52 907
f 944 907 946
f 212 944 946
f 212 946 945
f 879 878 944
f 879 944 212
f 878 938 52
f 878 52 944
f 880 240 938
f 880 938 878
f 245 880 878
f 245 878 879
f 870 864 880
f 870 880 245
f 864 942 240
f 864 240 880
f 872 219 942
f 872 942 864
f 111 872 864
f 111 864 870
f 853 852 727
f 853 727 213
f 852 945 104
f 852 104 727
f 863 212 945
f 863 945 852
f 54 863 852
f 54 852 853
f 845 844 926
f 845 926 239
f 844 730 106
f 844 106 926
f 853 213 730
f 853 730 844
f 54 853 844
f 54 844 845
f 833 832 839
f 833 839 246
f 832 870 245
f 832 245 839
f 838 111 870
f 838 870 832
f 218 838 832
f 218 832 833
