# _3rd_Proximal_Phalanx_Foot_L posed
v 0.923043 0.003575 0.275108
v 0.924146 0.002305 0.274559
v 0.926053 0.003053 0.274033
v 0.924291 0.005481 0.274809
v 0.924673 0.007506 0.275137
v 0.927690 0.002426 0.275841
v 0.925198 0.008158 0.276310
v 0.925880 0.007183 0.276661
v 0.926124 0.005612 0.276319
v 0.925503 0.005520 0.275108
v 0.925646 0.006718 0.275270
v 0.923479 0.002808 0.274909
v 0.924794 0.003661 0.274974
v 0.925809 0.004427 0.275144
v 0.926231 0.004921 0.276235
v 0.926345 0.003820 0.274866
v 0.926640 0.004179 0.276243
v 0.927691 0.002854 0.276495
v 0.927225 0.002568 0.274733
v 0.927129 0.003340 0.274904
v 0.923133 0.005807 0.275410
v 0.922210 0.003614 0.275763
v 0.922706 0.002329 0.275463
v 0.924057 0.001258 0.274846
v 0.923586 0.007180 0.275806
v 0.924509 0.007876 0.277147
v 0.925364 0.006939 0.277549
v 0.925905 0.005300 0.276974
v 0.926023 0.004679 0.276877
v 0.926376 0.003865 0.277010
v 0.927354 0.002590 0.277190
v 0.927323 0.001727 0.276466
v 0.926780 0.001339 0.275440
v 0.925974 0.001523 0.274615
v 0.921777 0.001800 0.276110
v 0.921136 0.002795 0.276565
v 0.921024 0.003690 0.277474
v 0.922592 0.000761 0.276022
v 0.923625 0.000078 0.276313
v 0.924394 -0.000134 0.277112
v 0.924716 0.000153 0.278000
v 0.924610 0.000907 0.279003
v 0.923957 0.001823 0.279360
v 0.923446 0.002600 0.279541
v 0.923109 0.003346 0.279693
v 0.922593 0.004153 0.279796
v 0.921937 0.004609 0.279350
v 0.921342 0.004295 0.278462
v 0.920103 0.003177 0.280427
v 0.919619 0.002989 0.279559
v 0.919305 0.002388 0.278350
v 0.919406 0.001661 0.277605
v 0.919918 0.000669 0.277234
v 0.920599 -0.000235 0.277265
v 0.921490 -0.001035 0.277911
v 0.922007 -0.001132 0.278625
v 0.922320 -0.000923 0.279398
v 0.922413 -0.000421 0.280216
v 0.922158 0.000439 0.280735
v 0.921755 0.001300 0.281024
v 0.921277 0.002162 0.281140
v 0.920705 0.002826 0.280958
v 0.918461 0.002175 0.281524
v 0.917982 0.002022 0.280630
v 0.917668 0.001366 0.279499
v 0.917701 0.000584 0.278710
v 0.918185 -0.000560 0.278272
v 0.918882 -0.001439 0.278451
v 0.919767 -0.002233 0.279053
v 0.920421 -0.002478 0.279808
v 0.920747 -0.002305 0.280552
v 0.920983 -0.001870 0.281400
v 0.920723 -0.000816 0.282128
v 0.920308 0.000143 0.282446
v 0.919731 0.001148 0.282513
v 0.919084 0.001824 0.282154
v 0.916951 0.001402 0.282692
v 0.916426 0.001230 0.281738
v 0.916122 0.000381 0.280528
v 0.916221 -0.000553 0.279723
v 0.916710 -0.001771 0.279164
v 0.917574 -0.002694 0.279491
v 0.918349 -0.003316 0.280061
v 0.919206 -0.003591 0.280926
v 0.919459 -0.003350 0.281684
v 0.919706 -0.002909 0.282601
v 0.919526 -0.002010 0.283471
v 0.919068 -0.001012 0.283895
v 0.918406 0.000124 0.283948
v 0.917658 0.000935 0.283446
v 0.915514 0.000868 0.283870
v 0.914968 0.000596 0.282840
v 0.914634 -0.000321 0.281628
v 0.914820 -0.001799 0.280665
v 0.915128 -0.002913 0.280059
v 0.916129 -0.003944 0.280570
v 0.917015 -0.004513 0.281208
v 0.917815 -0.004827 0.282018
v 0.918381 -0.004611 0.283027
v 0.918642 -0.004193 0.284050
v 0.918469 -0.003215 0.285124
v 0.917866 -0.002105 0.285473
v 0.917197 -0.000797 0.285499
v 0.916358 0.000214 0.284831
v 0.914278 0.000137 0.285308
v 0.913521 0.000073 0.284017
v 0.913109 -0.000870 0.282696
v 0.913331 -0.002858 0.281537
v 0.913782 -0.003970 0.280898
v 0.914784 -0.004972 0.281568
v 0.915764 -0.005581 0.282084
v 0.916771 -0.005930 0.282926
v 0.917450 -0.005865 0.284086
v 0.917897 -0.005386 0.285352
v 0.917593 -0.004250 0.286821
v 0.916869 -0.003167 0.287104
v 0.916072 -0.001673 0.287270
v 0.915106 -0.000314 0.286368
v 0.916165 -0.003981 0.288564
v 0.916676 -0.004913 0.288739
v 0.915750 -0.003262 0.289118
v 0.915481 -0.004760 0.289653
v 0.915829 -0.005630 0.289744
v 0.914930 -0.004072 0.289992
v 0.913736 -0.003376 0.290841
v 0.914232 -0.002221 0.290275
v 0.911876 -0.003269 0.290930
v 0.911958 -0.001761 0.290475
v 0.910416 -0.003613 0.290086
v 0.910119 -0.001564 0.289562
v 0.909134 -0.003929 0.288087
v 0.909228 -0.002318 0.287533
v 0.909459 -0.003206 0.285177
v 0.908974 -0.004286 0.285961
v 0.910248 -0.004657 0.283298
v 0.909269 -0.005114 0.284491
v 0.914679 -0.001273 0.288039
v 0.912598 -0.000296 0.288427
v 0.911579 -0.000123 0.287533
v 0.910843 -0.000888 0.285804
v 0.910712 -0.002129 0.284195
v 0.911280 -0.004088 0.282661
v 0.911874 -0.005193 0.282138
v 0.911089 -0.005959 0.282776
v 0.910236 -0.006452 0.283728
v 0.911175 -0.007982 0.284113
v 0.912109 -0.007373 0.283324
v 0.913112 -0.006561 0.282589
v 0.917017 -0.007394 0.288456
v 0.915885 -0.007857 0.289512
v 0.915828 -0.008564 0.288065
v 0.914510 -0.008849 0.289099
v 0.917466 -0.006908 0.287169
v 0.913169 -0.009286 0.287777
v 0.914268 -0.009137 0.286710
v 0.916765 -0.007924 0.286494
v 0.915672 -0.008494 0.285523
v 0.912072 -0.009063 0.286395
v 0.913365 -0.009098 0.285496
v 0.914757 -0.008289 0.284522
v 0.913910 -0.007679 0.283527
v 0.912702 -0.008378 0.284320
v 0.911487 -0.008795 0.285252
v 0.913950 -0.006609 0.289051
v 0.912658 -0.007014 0.287819
v 0.913108 -0.004609 0.289651
v 0.911674 -0.004881 0.288698
v 0.910641 -0.005148 0.287291
v 0.911746 -0.007091 0.286577
v 0.911201 -0.007008 0.285660
v 0.913572 -0.005497 0.289244
v 0.912285 -0.005931 0.288167
v 0.911403 -0.006164 0.286917
v 0.910960 -0.006171 0.286037
v 0.910181 -0.005449 0.285995
f 10 14 13
f 10 13 4
f 1 4 13
f 1 13 12
f 11 10 4
f 11 4 5
f 11 5 7
f 11 7 8
f 10 11 8
f 10 8 9
f 15 14 10
f 15 10 9
f 17 16 14
f 17 14 15
f 20 16 17
f 20 17 18
f 3 2 12
f 3 12 13
f 3 13 14
f 3 14 16
f 19 3 16
f 19 16 20
f 20 18 6
f 20 6 19
f 21 4 1
f 21 1 22
f 1 12 23
f 1 23 22
f 24 23 12
f 24 12 2
f 24 2 3
f 24 3 34
f 34 3 19
f 34 19 33
f 33 19 6
f 33 6 32
f 32 6 18
f 32 18 31
f 31 18 17
f 31 17 30
f 30 17 15
f 30 15 29
f 29 15 9
f 29 9 28
f 28 9 8
f 28 8 27
f 27 8 7
f 27 7 26
f 26 7 5
f 26 5 25
f 25 5 4
f 25 4 21
f 78 77 63
f 78 63 64
f 79 78 64
f 79 64 65
f 80 79 65
f 80 65 66
f 81 80 66
f 81 66 67
f 82 81 67
f 82 67 68
f 83 82 68
f 83 68 69
f 84 83 69
f 84 69 70
f 85 84 70
f 85 70 71
f 86 85 71
f 86 71 72
f 87 86 72
f 87 72 73
f 88 87 73
f 88 73 74
f 89 88 74
f 89 74 75
f 90 89 75
f 90 75 76
f 76 63 77
f 76 77 90
f 92 91 77
f 92 77 78
f 93 92 78
f 93 78 79
f 94 93 79
f 94 79 80
f 95 94 80
f 95 80 81
f 96 95 81
f 96 81 82
f 97 96 82
f 97 82 83
f 98 97 83
f 98 83 84
f 99 98 84
f 99 84 85
f 100 99 85
f 100 85 86
f 101 100 86
f 101 86 87
f 102 101 87
f 102 87 88
f 103 102 88
f 103 88 89
f 104 103 89
f 104 89 90
f 90 77 91
f 90 91 104
f 36 22 23
f 36 23 35
f 36 35 53
f 36 53 52
f 52 53 67
f 52 67 66
f 38 35 23
f 38 23 24
f 54 53 35
f 54 35 38
f 68 67 53
f 68 53 54
f 39 38 24
f 39 24 34
f 55 54 38
f 55 38 39
f 69 68 54
f 69 54 55
f 40 39 34
f 40 34 33
f 56 55 39
f 56 39 40
f 70 69 55
f 70 55 56
f 41 40 33
f 41 33 32
f 57 56 40
f 57 40 41
f 71 70 56
f 71 56 57
f 42 41 32
f 42 32 31
f 58 57 41
f 58 41 42
f 72 71 57
f 72 57 58
f 43 42 31
f 43 31 30
f 59 58 42
f 59 42 43
f 73 72 58
f 73 58 59
f 44 43 30
f 44 30 29
f 60 59 43
f 60 43 44
f 74 73 59
f 74 59 60
f 45 44 29
f 45 29 28
f 61 60 44
f 61 44 45
f 75 74 60
f 75 60 61
f 46 45 28
f 46 28 27
f 62 61 45
f 62 45 46
f 76 75 61
f 76 61 62
f 47 46 27
f 47 27 26
f 49 62 46
f 49 46 47
f 63 76 62
f 63 62 49
f 48 47 26
f 48 26 25
f 50 49 47
f 50 47 48
f 64 63 49
f 64 49 50
f 21 22 36
f 21 36 37
f 37 36 52
f 37 52 51
f 48 25 21
f 48 21 37
f 51 50 48
f 51 48 37
f 65 64 50
f 65 50 51
f 51 52 66
f 51 66 65
f 101 102 116
f 101 116 115
f 117 116 102
f 117 102 103
f 121 119 116
f 121 116 117
f 126 121 117
f 126 117 137
f 118 117 103
f 118 103 104
f 138 137 117
f 138 117 118
f 128 126 137
f 128 137 138
f 105 118 104
f 105 104 91
f 139 138 118
f 139 118 105
f 130 128 138
f 130 138 139
f 106 105 91
f 106 91 92
f 140 139 105
f 140 105 106
f 132 130 139
f 132 139 140
f 107 106 92
f 107 92 93
f 141 140 106
f 141 106 107
f 133 132 140
f 133 140 141
f 108 107 93
f 108 93 94
f 109 108 94
f 109 94 95
f 142 141 107
f 142 107 108
f 135 133 141
f 135 141 142
f 144 135 142
f 144 142 143
f 142 108 109
f 142 109 143
f 110 109 95
f 110 95 96
f 115 116 119
f 115 119 120
f 153 115 120
f 153 120 149
f 100 101 115
f 100 115 114
f 114 115 153
f 114 153 156
f 156 153 149
f 156 149 151
f 99 100 114
f 99 114 113
f 113 114 156
f 113 156 157
f 157 156 151
f 157 151 155
f 98 99 113
f 98 113 112
f 111 110 96
f 111 96 97
f 97 98 112
f 97 112 111
f 112 113 157
f 112 157 160
f 148 143 109
f 148 109 110
f 111 112 160
f 111 160 161
f 148 110 111
f 148 111 161
f 160 157 155
f 160 155 159
f 147 144 143
f 147 143 148
f 161 160 159
f 161 159 162
f 147 148 161
f 147 161 162
f 150 149 120
f 150 120 123
f 151 149 150
f 151 150 152
f 155 151 152
f 155 152 154
f 124 121 126
f 124 126 125
f 127 125 126
f 127 126 128
f 129 127 128
f 129 128 130
f 131 129 130
f 131 130 132
f 159 155 154
f 159 154 158
f 163 162 159
f 163 159 158
f 163 146 147
f 163 147 162
f 123 120 119
f 123 119 122
f 122 119 121
f 122 121 124
f 152 150 123
f 152 123 164
f 166 124 125
f 166 125 127
f 154 152 164
f 154 164 165
f 167 166 127
f 167 127 129
f 164 123 122
f 164 122 171
f 171 122 124
f 171 124 166
f 171 166 167
f 171 167 172
f 158 154 165
f 158 165 169
f 172 165 164
f 172 164 171
f 163 158 169
f 163 169 170
f 173 169 165
f 173 165 172
f 173 172 167
f 173 167 168
f 168 167 129
f 168 129 131
f 134 131 132
f 134 132 133
f 174 170 169
f 174 169 173
f 145 144 147
f 145 147 146
f 145 146 163
f 145 163 170
f 175 174 173
f 175 173 168
f 136 134 133
f 136 133 135
f 145 175 134
f 145 134 136
f 136 135 144
f 136 144 145
f 145 170 174
f 145 174 175
f 175 168 131
f 175 131 134
