# _3rd_Middle_Phalanx_Foot_R rest
v -0.116919 -1.331031 0.142237
v -0.117051 -1.331821 0.141715
v -0.116157 -1.332059 0.141440
v -0.115756 -1.331343 0.141957
v -0.115417 -1.333255 0.140635
v -0.114389 -1.333260 0.140733
v -0.115327 -1.333903 0.140288
v -0.114272 -1.334079 0.140198
v -0.114573 -1.335054 0.139438
v -0.115573 -1.334600 0.139798
v -0.117285 -1.336110 0.139734
v -0.117407 -1.335283 0.139905
v -0.116706 -1.335218 0.139745
v -0.116415 -1.336110 0.139363
v -0.115602 -1.332541 0.141056
v -0.114853 -1.332243 0.141494
v -0.118187 -1.331474 0.142315
v -0.118026 -1.332086 0.141753
v -0.119208 -1.332469 0.142144
v -0.118761 -1.332693 0.141599
v -0.119871 -1.333516 0.141801
v -0.119116 -1.333345 0.141261
v -0.120227 -1.334574 0.141305
v -0.119366 -1.334069 0.140842
v -0.120266 -1.335361 0.140671
v -0.119487 -1.334595 0.140378
v -0.118195 -1.335279 0.139921
v -0.118371 -1.336183 0.139817
v -0.119099 -1.335061 0.140030
v -0.119573 -1.335947 0.139978
v -0.116055 -1.335073 0.139536
v -0.115401 -1.335748 0.139077
v -0.118109 -1.333078 0.141164
v -0.117298 -1.332951 0.141094
v -0.116462 -1.332963 0.140940
v -0.118247 -1.333857 0.140669
v -0.117391 -1.333787 0.140604
v -0.116543 -1.333865 0.140513
v -0.118243 -1.334618 0.140216
v -0.117395 -1.334613 0.140181
v -0.116679 -1.334604 0.140090
v -0.113474 -1.335896 0.142596
v -0.113634 -1.335022 0.143133
v -0.114081 -1.334312 0.143621
v -0.114630 -1.333760 0.144125
v -0.115501 -1.333450 0.144495
v -0.116518 -1.333604 0.144673
v -0.117451 -1.334123 0.144556
v -0.118205 -1.334862 0.144312
v -0.118658 -1.335811 0.143986
v -0.118622 -1.336717 0.143440
v -0.118098 -1.337509 0.142890
v -0.117276 -1.337882 0.142451
v -0.116359 -1.338028 0.142175
v -0.115480 -1.337991 0.141935
v -0.114511 -1.337656 0.141884
v -0.113662 -1.336874 0.142154
v -0.112914 -1.337637 0.145455
v -0.112951 -1.336969 0.145846
v -0.113278 -1.336460 0.146265
v -0.113743 -1.336096 0.146599
v -0.114354 -1.335969 0.146861
v -0.115044 -1.336065 0.147019
v -0.115690 -1.336400 0.147018
v -0.116284 -1.336873 0.146913
v -0.116651 -1.337580 0.146667
v -0.116703 -1.338297 0.146280
v -0.116248 -1.338833 0.145869
v -0.115719 -1.339126 0.145498
v -0.115036 -1.339224 0.145249
v -0.114398 -1.339140 0.145077
v -0.113789 -1.338848 0.145031
v -0.113235 -1.338352 0.145127
v -0.112205 -1.338801 0.147210
v -0.112154 -1.338112 0.147557
v -0.112410 -1.337548 0.148020
v -0.112955 -1.337336 0.148348
v -0.113559 -1.337305 0.148582
v -0.114176 -1.337421 0.148742
v -0.114796 -1.337708 0.148790
v -0.115368 -1.338164 0.148734
v -0.115706 -1.338801 0.148464
v -0.115762 -1.339476 0.148087
v -0.115395 -1.339966 0.147661
v -0.114910 -1.340272 0.147292
v -0.114287 -1.340343 0.147015
v -0.113664 -1.340274 0.146829
v -0.113054 -1.339993 0.146782
v -0.112515 -1.339522 0.146844
v -0.110468 -1.340739 0.149716
v -0.110507 -1.339910 0.150229
v -0.110969 -1.339304 0.150751
v -0.111669 -1.339054 0.151141
v -0.112372 -1.339016 0.151403
v -0.113073 -1.339115 0.151582
v -0.113834 -1.339354 0.151696
v -0.114612 -1.339871 0.151648
v -0.115116 -1.340705 0.151317
v -0.115201 -1.341631 0.150787
v -0.114640 -1.342262 0.150217
v -0.113884 -1.342503 0.149816
v -0.113171 -1.342506 0.149573
v -0.112506 -1.342450 0.149380
v -0.111679 -1.342242 0.149177
v -0.110855 -1.341921 0.149135
v -0.116810 -1.337446 0.140898
v -0.117867 -1.337410 0.141046
v -0.115941 -1.337414 0.140537
v -0.114709 -1.337092 0.140461
v -0.119006 -1.337104 0.141448
v -0.119732 -1.336206 0.142222
v -0.119649 -1.335130 0.142741
v -0.119230 -1.334068 0.143278
v -0.118426 -1.333140 0.143705
v -0.117337 -1.332360 0.143894
v -0.116001 -1.332013 0.143758
v -0.114869 -1.332444 0.143333
v -0.114165 -1.333216 0.142745
v -0.113661 -1.334094 0.142122
v -0.113598 -1.334978 0.141438
v -0.113877 -1.336135 0.140738
v -0.117104 -1.336917 0.140157
v -0.118159 -1.336923 0.140308
v -0.116234 -1.336871 0.139812
v -0.115010 -1.336564 0.139591
v -0.119396 -1.336630 0.140626
v -0.120152 -1.335817 0.141483
v -0.120066 -1.334851 0.142097
v -0.119688 -1.333740 0.142593
v -0.118977 -1.332670 0.143008
v -0.116416 -1.331294 0.143142
v -0.114368 -1.332641 0.142163
v -0.117829 -1.331774 0.143286
v -0.115137 -1.331762 0.142766
v -0.113774 -1.333599 0.141472
v -0.113727 -1.334511 0.140759
v -0.114033 -1.335640 0.140016
v -0.114610 -1.341876 0.152603
v -0.114510 -1.342746 0.152099
v -0.113930 -1.343301 0.151598
v -0.113200 -1.343485 0.151245
v -0.112531 -1.343546 0.150980
v -0.111813 -1.343572 0.150715
v -0.110952 -1.343373 0.150520
v -0.110264 -1.342849 0.150519
v -0.109868 -1.341767 0.150944
v -0.109885 -1.340876 0.151493
v -0.110307 -1.340146 0.152034
v -0.111042 -1.339803 0.152475
v -0.111811 -1.339727 0.152785
v -0.112582 -1.339801 0.153014
v -0.113406 -1.340057 0.153163
v -0.114095 -1.340697 0.153059
v -0.112073 -1.343341 0.151944
v -0.111461 -1.343317 0.151765
v -0.110866 -1.343216 0.151576
v -0.110362 -1.342882 0.151484
v -0.110099 -1.342239 0.151668
v -0.110060 -1.341439 0.152115
v -0.110406 -1.340782 0.152508
v -0.110895 -1.340608 0.152881
v -0.111587 -1.340616 0.153178
v -0.112236 -1.340648 0.153421
v -0.112797 -1.340910 0.153525
v -0.113319 -1.341385 0.153454
v -0.113627 -1.342268 0.153154
v -0.113507 -1.342863 0.152803
v -0.113205 -1.343153 0.152512
v -0.112639 -1.343291 0.152218
v -0.112884 -1.343120 0.150180
v -0.113610 -1.343096 0.150425
v -0.114405 -1.342933 0.150778
v -0.112199 -1.343114 0.149961
v -0.111332 -1.342923 0.149683
v -0.110436 -1.342481 0.149711
v -0.115022 -1.342288 0.151466
v -0.114980 -1.341281 0.152023
v -0.114445 -1.340219 0.152413
v -0.113663 -1.339583 0.152477
v -0.112837 -1.339347 0.152347
v -0.112078 -1.339285 0.152122
v -0.111338 -1.339358 0.151831
v -0.110574 -1.339632 0.151412
v -0.110080 -1.340310 0.150813
v -0.110017 -1.341204 0.150241
v -0.110949 -1.341521 0.152700
v -0.111643 -1.341540 0.152969
v -0.112295 -1.341533 0.153244
v -0.111083 -1.342297 0.152402
v -0.111734 -1.342291 0.152679
v -0.112416 -1.342293 0.152956
v -0.111296 -1.342868 0.152077
v -0.111833 -1.342861 0.152382
v -0.112485 -1.342850 0.152616
v -0.111352 -1.339880 0.148555
v -0.111315 -1.339120 0.149086
v -0.111612 -1.338540 0.149521
v -0.112244 -1.338301 0.149894
v -0.112877 -1.338309 0.150122
v -0.113554 -1.338441 0.150272
v -0.114183 -1.338732 0.150310
v -0.114834 -1.339205 0.150271
v -0.115263 -1.339856 0.150004
v -0.115291 -1.340615 0.149565
v -0.114963 -1.341167 0.149049
v -0.114355 -1.341475 0.148665
v -0.113679 -1.341499 0.148462
v -0.113015 -1.341419 0.148277
v -0.112342 -1.341147 0.148186
v -0.111701 -1.340691 0.148253
v -0.113342 -1.336678 0.143887
v -0.113398 -1.335914 0.144345
v -0.113758 -1.335330 0.144757
v -0.114321 -1.334912 0.145154
v -0.115001 -1.334688 0.145451
v -0.115790 -1.334763 0.145612
v -0.116593 -1.335170 0.145561
v -0.117245 -1.335782 0.145416
v -0.117679 -1.336537 0.145156
v -0.117631 -1.337351 0.144691
v -0.117236 -1.338043 0.144253
v -0.116563 -1.338412 0.143859
v -0.115769 -1.338514 0.143590
v -0.115027 -1.338467 0.143382
v -0.114217 -1.338155 0.143370
v -0.113588 -1.337565 0.143509
f 22 20 18
f 22 18 33
f 33 18 2
f 33 2 34
f 35 3 15
f 35 15 5
f 34 2 3
f 34 3 35
f 36 24 22
f 36 22 33
f 39 27 29
f 39 29 26
f 39 26 24
f 39 24 36
f 37 36 33
f 37 33 34
f 40 12 27
f 40 27 39
f 40 39 36
f 40 36 37
f 38 35 5
f 38 5 7
f 38 37 34
f 38 34 35
f 41 13 12
f 41 12 40
f 41 38 7
f 41 7 10
f 10 31 13
f 10 13 41
f 41 40 37
f 41 37 38
f 4 3 2
f 4 2 1
f 1 2 18
f 1 18 17
f 131 134 4
f 131 4 1
f 1 17 133
f 1 133 131
f 16 15 3
f 16 3 4
f 134 132 16
f 134 16 4
f 8 7 5
f 8 5 6
f 6 5 15
f 6 15 16
f 135 136 8
f 135 8 6
f 6 16 132
f 6 132 135
f 9 10 7
f 9 7 8
f 136 137 9
f 136 9 8
f 32 31 10
f 32 10 9
f 137 125 32
f 137 32 9
f 11 12 13
f 11 13 14
f 28 27 12
f 28 12 11
f 11 14 124
f 11 124 122
f 122 123 28
f 122 28 11
f 14 13 31
f 14 31 32
f 14 32 125
f 14 125 124
f 17 18 20
f 17 20 19
f 17 19 130
f 17 130 133
f 19 20 22
f 19 22 21
f 19 21 129
f 19 129 130
f 21 22 24
f 21 24 23
f 21 23 128
f 21 128 129
f 23 24 26
f 23 26 25
f 23 25 127
f 23 127 128
f 25 26 29
f 25 29 30
f 25 30 126
f 25 126 127
f 30 29 27
f 30 27 28
f 123 126 30
f 123 30 28
f 106 107 123
f 106 123 122
f 122 124 108
f 122 108 106
f 107 110 126
f 107 126 123
f 124 125 109
f 124 109 108
f 125 137 121
f 125 121 109
f 110 111 127
f 110 127 126
f 111 112 128
f 111 128 127
f 112 113 129
f 112 129 128
f 113 114 130
f 113 130 129
f 114 115 133
f 114 133 130
f 115 116 131
f 115 131 133
f 116 117 134
f 116 134 131
f 117 118 132
f 117 132 134
f 118 119 135
f 118 135 132
f 119 120 136
f 119 136 135
f 120 121 137
f 120 137 136
f 170 142 141
f 170 141 171
f 171 141 140
f 171 140 172
f 173 143 142
f 173 142 170
f 174 144 143
f 174 143 173
f 175 145 144
f 175 144 174
f 172 140 139
f 172 139 176
f 177 176 139
f 177 139 138
f 178 177 138
f 178 138 153
f 178 153 152
f 178 152 179
f 180 179 152
f 180 152 151
f 181 180 151
f 181 151 150
f 182 181 150
f 182 150 149
f 183 182 149
f 183 149 148
f 184 183 148
f 184 148 147
f 146 145 175
f 146 175 185
f 185 184 147
f 185 147 146
f 159 147 148
f 159 148 160
f 161 160 148
f 161 148 149
f 162 161 149
f 162 149 150
f 163 151 152
f 163 152 164
f 163 162 150
f 163 150 151
f 165 164 152
f 165 152 153
f 158 146 147
f 158 147 159
f 159 160 161
f 159 161 186
f 186 161 162
f 186 162 187
f 188 163 164
f 188 164 165
f 187 162 163
f 187 163 188
f 166 165 153
f 166 153 138
f 157 156 144
f 157 144 145
f 157 145 146
f 157 146 158
f 155 143 144
f 155 144 156
f 192 157 158
f 192 158 189
f 189 158 159
f 189 159 186
f 192 155 156
f 192 156 157
f 154 142 143
f 154 143 155
f 190 189 186
f 190 186 187
f 193 154 155
f 193 155 192
f 193 192 189
f 193 189 190
f 191 188 165
f 191 165 166
f 169 168 140
f 169 140 141
f 169 141 142
f 169 142 154
f 191 190 187
f 191 187 188
f 167 139 140
f 167 140 168
f 194 169 154
f 194 154 193
f 167 166 138
f 167 138 139
f 194 191 166
f 194 166 167
f 167 168 169
f 167 169 194
f 194 193 190
f 194 190 191
f 195 74 75
f 195 75 196
f 184 185 90
f 184 90 91
f 91 90 195
f 91 195 196
f 196 75 76
f 196 76 197
f 183 184 91
f 183 91 92
f 92 91 196
f 92 196 197
f 197 76 77
f 197 77 198
f 182 183 92
f 182 92 93
f 93 92 197
f 93 197 198
f 198 77 78
f 198 78 199
f 181 182 93
f 181 93 94
f 94 93 198
f 94 198 199
f 199 78 79
f 199 79 200
f 180 181 94
f 180 94 95
f 95 94 199
f 95 199 200
f 200 79 80
f 200 80 201
f 179 180 95
f 179 95 96
f 96 95 200
f 96 200 201
f 201 80 81
f 201 81 202
f 178 179 96
f 178 96 97
f 97 96 201
f 97 201 202
f 202 81 82
f 202 82 203
f 177 178 97
f 177 97 98
f 98 97 202
f 98 202 203
f 203 82 83
f 203 83 204
f 176 177 98
f 176 98 99
f 99 98 203
f 99 203 204
f 204 83 84
f 204 84 205
f 172 176 99
f 172 99 100
f 100 99 204
f 100 204 205
f 205 84 85
f 205 85 206
f 171 172 100
f 171 100 101
f 101 100 205
f 101 205 206
f 206 85 86
f 206 86 207
f 170 171 101
f 170 101 102
f 102 101 206
f 102 206 207
f 207 86 87
f 207 87 208
f 173 170 102
f 173 102 103
f 103 102 207
f 103 207 208
f 208 87 88
f 208 88 209
f 174 173 103
f 174 103 104
f 104 103 208
f 104 208 209
f 210 195 90
f 210 90 105
f 210 89 74
f 210 74 195
f 175 174 104
f 175 104 105
f 105 104 209
f 105 209 210
f 105 90 185
f 105 185 175
f 209 88 89
f 209 89 210
f 42 43 212
f 42 212 211
f 120 119 43
f 120 43 42
f 211 226 57
f 211 57 42
f 42 57 121
f 42 121 120
f 43 44 213
f 43 213 212
f 119 118 44
f 119 44 43
f 44 45 214
f 44 214 213
f 118 117 45
f 118 45 44
f 45 46 215
f 45 215 214
f 117 116 46
f 117 46 45
f 46 47 216
f 46 216 215
f 116 115 47
f 116 47 46
f 47 48 217
f 47 217 216
f 115 114 48
f 115 48 47
f 48 49 218
f 48 218 217
f 114 113 49
f 114 49 48
f 49 50 219
f 49 219 218
f 113 112 50
f 113 50 49
f 50 51 220
f 50 220 219
f 112 111 51
f 112 51 50
f 51 52 221
f 51 221 220
f 111 110 52
f 111 52 51
f 52 53 222
f 52 222 221
f 110 107 53
f 110 53 52
f 53 54 223
f 53 223 222
f 107 106 54
f 107 54 53
f 54 55 224
f 54 224 223
f 106 108 55
f 106 55 54
f 55 56 225
f 55 225 224
f 108 109 56
f 108 56 55
f 56 57 226
f 56 226 225
f 109 121 57
f 109 57 56
f 58 59 75
f 58 75 74
f 211 212 59
f 211 59 58
f 74 89 73
f 74 73 58
f 58 73 226
f 58 226 211
f 59 60 76
f 59 76 75
f 212 213 60
f 212 60 59
f 60 61 77
f 60 77 76
f 213 214 61
f 213 61 60
f 61 62 78
f 61 78 77
f 214 215 62
f 214 62 61
f 62 63 79
f 62 79 78
f 215 216 63
f 215 63 62
f 63 64 80
f 63 80 79
f 216 217 64
f 216 64 63
f 64 65 81
f 64 81 80
f 217 218 65
f 217 65 64
f 65 66 82
f 65 82 81
f 218 219 66
f 218 66 65
f 66 67 83
f 66 83 82
f 219 220 67
f 219 67 66
f 67 68 84
f 67 84 83
f 220 221 68
f 220 68 67
f 68 69 85
f 68 85 84
f 221 222 69
f 221 69 68
f 69 70 86
f 69 86 85
f 222 223 70
f 222 70 69
f 70 71 87
f 70 87 86
f 223 224 71
f 223 71 70
f 71 72 88
f 71 88 87
f 224 225 72
f 224 72 71
f 72 73 89
f 72 89 88
f 225 226 73
f 225 73 72
