# _3rd_Metacarpal_R posed
v -0.861182 0.202223 0.432978
v -0.865877 0.203826 0.432304
v -0.867630 0.201846 0.433009
v -0.863784 0.199924 0.433203
v -0.868397 0.203017 0.419304
v -0.870883 0.199841 0.418672
v -0.873647 0.201705 0.422412
v -0.871505 0.204517 0.423413
v -0.869325 0.205144 0.429313
v -0.867046 0.196082 0.426422
v -0.863877 0.197102 0.431339
v -0.869390 0.196074 0.420090
v -0.872918 0.203210 0.429941
v -0.872767 0.198124 0.424292
v -0.868266 0.198766 0.432067
v -0.871342 0.198489 0.428875
v -0.864597 0.205627 0.428264
v -0.864791 0.197802 0.418481
v -0.862578 0.197255 0.424809
v -0.859475 0.198242 0.430092
v -0.855846 0.203220 0.429832
v -0.858800 0.205930 0.426200
v -0.861470 0.203950 0.418878
v -0.859784 0.200063 0.419120
v -0.856754 0.198627 0.423255
v -0.854559 0.200020 0.428031
v -0.846901 0.201801 0.424665
v -0.847994 0.204260 0.425030
v -0.850132 0.206578 0.422414
v -0.852287 0.204697 0.416769
v -0.851189 0.200946 0.416814
v -0.848374 0.199751 0.420734
v -0.835813 0.202367 0.420378
v -0.836982 0.204927 0.420135
v -0.838764 0.206881 0.417659
v -0.840221 0.204989 0.413447
v -0.839422 0.201735 0.413003
v -0.837107 0.200397 0.416354
v -0.824279 0.201629 0.416307
v -0.825620 0.205053 0.415698
v -0.827463 0.206808 0.412429
v -0.828638 0.205034 0.408441
v -0.827768 0.201917 0.408212
v -0.825863 0.200420 0.411398
v -0.814948 0.200042 0.412607
v -0.815443 0.204712 0.413311
v -0.817949 0.208369 0.408456
v -0.819377 0.205874 0.401852
v -0.818156 0.201727 0.402823
v -0.816541 0.199646 0.406947
v -0.807976 0.199852 0.403758
v -0.810695 0.201674 0.398753
v -0.804473 0.200063 0.410834
v -0.810272 0.207804 0.396244
v -0.806243 0.205185 0.412489
v -0.806540 0.209036 0.404212
v -0.869335 0.204642 0.432297
v -0.873870 0.200326 0.426667
v -0.870741 0.200703 0.432012
v -0.872601 0.204243 0.426668
v -0.870518 0.196550 0.425150
v -0.867889 0.197041 0.429900
v -0.865742 0.199164 0.433199
v -0.872588 0.198479 0.420567
v -0.865054 0.201859 0.432569
v -0.864849 0.205420 0.431705
v -0.868812 0.204869 0.425517
v -0.871196 0.202062 0.421547
v -0.868524 0.198652 0.417112
v -0.865776 0.196061 0.422152
v -0.862353 0.196037 0.428058
v -0.861557 0.199115 0.432235
v -0.830401 0.203803 0.418578
v -0.831940 0.206185 0.416866
v -0.833793 0.206017 0.412790
v -0.834153 0.203393 0.410309
v -0.832469 0.201082 0.412127
v -0.830216 0.200621 0.416405
v -0.863857 0.205644 0.423578
v -0.856377 0.206018 0.421232
v -0.845814 0.206417 0.417468
v -0.864232 0.200902 0.417988
v -0.856889 0.202255 0.417458
v -0.846334 0.202963 0.414254
v -0.861552 0.198397 0.421514
v -0.854616 0.199677 0.420135
v -0.844256 0.200369 0.416550
v -0.857762 0.197831 0.426578
v -0.841895 0.200923 0.421005
v -0.851553 0.199662 0.424564
v -0.860010 0.205198 0.430456
v -0.853413 0.205341 0.426766
v -0.858464 0.200882 0.430323
v -0.851719 0.202458 0.427489
v -0.841933 0.203586 0.423025
v -0.843410 0.205964 0.421925
v -0.821755 0.200827 0.407008
v -0.819959 0.200230 0.411568
v -0.823585 0.203437 0.404581
v -0.819564 0.203108 0.415308
v -0.821391 0.206624 0.412557
v -0.823224 0.206629 0.407478
v -0.811179 0.207771 0.410626
v -0.814406 0.203980 0.398277
v -0.813573 0.200105 0.402607
v -0.814938 0.209743 0.402208
v -0.811540 0.198039 0.408518
v -0.806745 0.202101 0.403925
v -0.809823 0.201509 0.413322
v -0.802442 0.205551 0.405314
v -0.807826 0.205833 0.400905
v -0.863365 0.203697 0.432962
v -0.867444 0.203133 0.432305
v -0.865613 0.200468 0.433405
v -0.862154 0.200402 0.432789
v -0.869170 0.200610 0.418281
v -0.872565 0.200341 0.420436
v -0.873005 0.203655 0.423502
v -0.869855 0.204470 0.421773
v -0.867309 0.205130 0.431691
v -0.870761 0.204868 0.426443
v -0.870635 0.198069 0.418281
v -0.865191 0.196062 0.428975
v -0.863363 0.198674 0.432851
v -0.868049 0.195581 0.423361
v -0.870522 0.203128 0.432845
v -0.871408 0.204664 0.429720
v -0.874053 0.202705 0.426455
v -0.873818 0.199486 0.423388
v -0.871628 0.196983 0.422506
v -0.868164 0.200081 0.433135
v -0.866524 0.197811 0.431836
v -0.872345 0.198263 0.426501
v -0.872776 0.200701 0.429615
v -0.869787 0.198635 0.430828
v -0.869339 0.196748 0.427693
v -0.867133 0.205140 0.428766
v -0.866643 0.205379 0.424405
v -0.862435 0.205407 0.431530
v -0.866826 0.196419 0.418500
v -0.864163 0.197505 0.421837
v -0.865063 0.196632 0.425628
v -0.859963 0.196776 0.427328
v -0.861408 0.197352 0.430743
v -0.866583 0.199905 0.417254
v -0.860252 0.200056 0.431461
v -0.858820 0.202695 0.431268
v -0.861882 0.205790 0.427464
v -0.857109 0.205254 0.428941
v -0.860504 0.205802 0.422653
v -0.864972 0.203514 0.419140
v -0.860933 0.201698 0.418163
v -0.862735 0.199131 0.419097
v -0.858418 0.199058 0.420969
v -0.860000 0.198119 0.424123
v -0.854910 0.198631 0.425657
v -0.857320 0.199168 0.429217
v -0.855396 0.201638 0.429215
v -0.847284 0.203134 0.425264
v -0.848856 0.205629 0.424309
v -0.851503 0.206242 0.419441
v -0.852087 0.202567 0.415994
v -0.849856 0.199978 0.418533
v -0.847208 0.200449 0.423054
v -0.836274 0.203833 0.420655
v -0.837671 0.206045 0.419362
v -0.839776 0.206290 0.415256
v -0.840167 0.203287 0.412491
v -0.838321 0.200784 0.414424
v -0.836080 0.200950 0.418701
v -0.824733 0.203556 0.416735
v -0.826492 0.206267 0.414447
v -0.828213 0.206121 0.410141
v -0.828581 0.203401 0.407556
v -0.826848 0.201006 0.409555
v -0.824828 0.200434 0.413950
v -0.814803 0.202144 0.414366
v -0.816616 0.206916 0.411220
v -0.819057 0.207936 0.404576
v -0.818913 0.203441 0.401626
v -0.817350 0.200464 0.404536
v -0.815588 0.199363 0.409762
v -0.841577 0.202235 0.422584
v -0.842647 0.204703 0.422632
v -0.844609 0.206874 0.420116
v -0.846481 0.204955 0.415146
v -0.845485 0.201306 0.414915
v -0.842913 0.200207 0.418714
v -0.829886 0.202117 0.418318
v -0.831161 0.205040 0.417858
v -0.832972 0.206760 0.414983
v -0.834180 0.204940 0.411251
v -0.833437 0.201985 0.410881
v -0.831371 0.200456 0.413874
v -0.819334 0.201052 0.414196
v -0.820424 0.205040 0.414149
v -0.822416 0.207343 0.410202
v -0.823713 0.205345 0.405396
v -0.822694 0.201816 0.405486
v -0.820853 0.200270 0.409051
v -0.854873 0.206193 0.424446
v -0.857209 0.204424 0.418145
v -0.855961 0.200624 0.418342
v -0.853034 0.199295 0.422252
v -0.851237 0.201005 0.426511
v -0.852377 0.203790 0.427636
v -0.812707 0.198920 0.405143
v -0.814032 0.201704 0.400208
v -0.810831 0.200089 0.401473
v -0.807610 0.198442 0.407570
v -0.810242 0.198748 0.412236
v -0.810295 0.204949 0.396040
v -0.815124 0.206989 0.398095
v -0.810578 0.204512 0.412998
v -0.804025 0.203160 0.411897
v -0.813675 0.209144 0.406964
v -0.805095 0.208779 0.406444
v -0.807964 0.209532 0.400966
v -0.807824 0.203052 0.401305
v -0.803033 0.202782 0.405960
v -0.862932 0.200882 0.432858
v -0.862402 0.202056 0.432994
v -0.863919 0.203062 0.432654
v -0.865882 0.203573 0.432220
v -0.867016 0.202794 0.432220
v -0.867232 0.201855 0.432642
v -0.865619 0.200909 0.433099
v -0.864029 0.200343 0.433153
v -0.870423 0.203403 0.421402
v -0.869465 0.202442 0.420222
v -0.869832 0.201177 0.419699
v -0.870957 0.200524 0.419697
v -0.872001 0.201038 0.421102
v -0.872692 0.201826 0.422058
v -0.872361 0.202932 0.422514
v -0.871563 0.203824 0.422293
v -0.804692 0.207458 0.410400
v -0.809524 0.210090 0.405299
v -0.810195 0.210611 0.401213
v -0.808486 0.202103 0.399437
v -0.802549 0.201612 0.408585
v -0.801354 0.205020 0.409413
v -0.806018 0.205136 0.403650
v -0.808366 0.209534 0.407503
v -0.808422 0.205613 0.397122
v -0.808445 0.207719 0.397247
v -0.868398 0.204937 0.431911
v -0.870497 0.204847 0.431174
v -0.870409 0.205000 0.429538
v -0.868352 0.205305 0.430614
v -0.869475 0.205147 0.430866
v -0.872092 0.204450 0.428228
v -0.871708 0.204654 0.426645
v -0.870136 0.204969 0.427920
v -0.871149 0.204814 0.428122
v -0.868256 0.205120 0.429044
v -0.866019 0.205468 0.430283
v -0.866115 0.205297 0.431656
v -0.867209 0.205401 0.430436
v -0.869806 0.204882 0.426039
v -0.868055 0.204914 0.427242
v -0.869127 0.204904 0.427611
v -0.868639 0.196869 0.428828
v -0.866591 0.196424 0.429444
v -0.866228 0.196121 0.427709
v -0.868154 0.196174 0.427010
v -0.867413 0.196285 0.428247
v -0.863779 0.195970 0.428509
v -0.863869 0.196407 0.426840
v -0.866075 0.196350 0.425991
v -0.865138 0.196287 0.427266
v -0.867572 0.195821 0.424978
v -0.869339 0.195896 0.424236
v -0.869953 0.196615 0.426461
v -0.868763 0.196004 0.425678
v -0.865636 0.196453 0.424066
v -0.866794 0.195643 0.422635
v -0.866508 0.196025 0.424439
v -0.867160 0.197346 0.430908
v -0.865244 0.197362 0.431611
v -0.864381 0.196403 0.430244
v -0.865851 0.196788 0.430586
v -0.866039 0.198437 0.432649
v -0.864516 0.198819 0.433068
v -0.863496 0.197883 0.432246
v -0.864757 0.198060 0.432493
v -0.862554 0.197098 0.431054
v -0.861535 0.196432 0.429520
v -0.862894 0.196281 0.429883
v -0.862365 0.198789 0.432570
v -0.861418 0.198265 0.431624
v -0.862363 0.197963 0.431960
v -0.870623 0.196413 0.421281
v -0.871071 0.196652 0.423806
v -0.868654 0.195606 0.421654
v -0.869963 0.196000 0.422729
v -0.871677 0.198155 0.419304
v -0.872184 0.197589 0.421353
v -0.870127 0.196976 0.418898
v -0.871246 0.197169 0.420059
v -0.868074 0.196082 0.419122
v -0.867750 0.197415 0.417419
v -0.869558 0.198249 0.417557
v -0.868930 0.197075 0.418009
v -0.866130 0.195979 0.420192
v -0.867302 0.195588 0.420753
v -0.873444 0.200563 0.428196
v -0.874239 0.201547 0.426524
v -0.873623 0.203005 0.428259
v -0.873099 0.202001 0.429856
v -0.873812 0.201833 0.428252
v -0.873406 0.203595 0.426559
v -0.872255 0.204069 0.429858
v -0.872930 0.203846 0.428258
v -0.870792 0.201940 0.432595
v -0.871873 0.200766 0.430929
v -0.871889 0.203295 0.431558
v -0.872095 0.202065 0.431368
v -0.870035 0.204044 0.432670
v -0.871310 0.204226 0.431436
v -0.874019 0.199957 0.425017
v -0.873165 0.199229 0.426709
v -0.872623 0.198168 0.425264
v -0.873262 0.198646 0.423948
v -0.873341 0.198990 0.425314
v -0.871498 0.197366 0.425948
v -0.872347 0.197610 0.423567
v -0.871923 0.197391 0.424702
v -0.873309 0.198961 0.421929
v -0.872865 0.198136 0.422658
v -0.870389 0.199600 0.431390
v -0.869459 0.200462 0.432756
v -0.868265 0.199298 0.432551
v -0.868926 0.198703 0.431585
v -0.869328 0.199516 0.432111
v -0.866947 0.199618 0.433239
v -0.867568 0.198333 0.431996
v -0.867204 0.198899 0.432686
v -0.868959 0.197794 0.430345
v -0.868194 0.197989 0.431221
v -0.870617 0.198569 0.429915
v -0.872163 0.199517 0.429297
v -0.871358 0.199590 0.430436
v -0.870410 0.197571 0.428334
v -0.869718 0.197673 0.429383
v -0.871921 0.198380 0.427726
v -0.871001 0.197453 0.427180
v -0.872771 0.199399 0.428044
v -0.867784 0.205133 0.424934
v -0.865619 0.205556 0.426489
v -0.865898 0.205413 0.428533
v -0.866882 0.205273 0.426863
v -0.865320 0.205517 0.423979
v -0.862877 0.205814 0.425662
v -0.863262 0.205705 0.427907
v -0.864285 0.205689 0.426097
v -0.863527 0.205620 0.429902
v -0.863620 0.205468 0.431711
v -0.864784 0.205553 0.430130
v -0.860921 0.205662 0.429090
v -0.861251 0.205281 0.431074
v -0.862247 0.205640 0.429555
v -0.865016 0.196768 0.421939
v -0.864438 0.197517 0.420050
v -0.865717 0.197015 0.418283
v -0.865223 0.196679 0.419989
v -0.862983 0.198028 0.421697
v -0.862099 0.198633 0.420185
v -0.863839 0.198512 0.418804
v -0.863374 0.198141 0.420133
v -0.865639 0.198690 0.417530
v -0.867559 0.199250 0.417023
v -0.866641 0.197980 0.417248
v -0.863502 0.199897 0.418299
v -0.865502 0.200447 0.417621
v -0.864645 0.199332 0.417932
v -0.861028 0.196279 0.427654
v -0.861282 0.196942 0.426038
v -0.863840 0.196891 0.425224
v -0.862530 0.196590 0.426447
v -0.858966 0.197360 0.426993
v -0.858864 0.197874 0.425285
v -0.861360 0.197722 0.424473
v -0.860155 0.197445 0.425676
v -0.860905 0.198291 0.422878
v -0.863561 0.197450 0.423442
v -0.862343 0.197935 0.423180
v -0.864653 0.196928 0.423737
v -0.860891 0.199569 0.431887
v -0.859915 0.199187 0.430819
v -0.860431 0.197770 0.430427
v -0.860640 0.198701 0.431251
v -0.859532 0.200497 0.430887
v -0.857928 0.200049 0.429855
v -0.858461 0.198715 0.429692
v -0.859071 0.199644 0.430337
v -0.857125 0.198294 0.428061
v -0.859292 0.197270 0.428870
v -0.858264 0.197803 0.428503
v -0.860340 0.196778 0.429190
v -0.859180 0.204079 0.431313
v -0.858637 0.205216 0.429777
v -0.856319 0.204293 0.429695
v -0.857395 0.202943 0.430595
v -0.857818 0.204167 0.430559
v -0.855368 0.205290 0.427924
v -0.852814 0.204554 0.427373
v -0.854213 0.203504 0.428812
v -0.854674 0.204415 0.428605
v -0.857019 0.201252 0.429820
v -0.858729 0.201701 0.430811
v -0.855644 0.202393 0.429602
v -0.857264 0.202039 0.430254
v -0.852050 0.203132 0.427651
v -0.853650 0.202051 0.428424
v -0.853941 0.202767 0.428708
v -0.862268 0.205739 0.423152
v -0.859679 0.205977 0.424511
v -0.860420 0.205866 0.426904
v -0.861364 0.205910 0.425143
v -0.858529 0.205887 0.422014
v -0.855663 0.206232 0.422888
v -0.856947 0.206035 0.425368
v -0.857773 0.206076 0.423749
v -0.857938 0.205748 0.427725
v -0.859508 0.205703 0.428491
v -0.854105 0.205914 0.425784
v -0.856132 0.205817 0.426813
v -0.864752 0.202103 0.418203
v -0.862695 0.201319 0.418163
v -0.861328 0.202754 0.418166
v -0.863293 0.203724 0.419028
v -0.863128 0.202429 0.418237
v -0.858992 0.202015 0.417916
v -0.857162 0.203306 0.417489
v -0.859419 0.204200 0.418626
v -0.859326 0.203062 0.417935
v -0.861185 0.205109 0.420551
v -0.864668 0.204872 0.421143
v -0.863006 0.204996 0.420855
v -0.856934 0.205406 0.419523
v -0.859140 0.205250 0.420139
v -0.860058 0.198749 0.421281
v -0.859109 0.199452 0.419930
v -0.861389 0.199662 0.419233
v -0.860707 0.199094 0.420144
v -0.856613 0.199367 0.420602
v -0.855320 0.200044 0.419142
v -0.857976 0.200371 0.418808
v -0.857318 0.199758 0.419592
v -0.860410 0.200820 0.418529
v -0.862085 0.200404 0.418534
v -0.856487 0.201372 0.417782
v -0.858540 0.201135 0.418257
v -0.856412 0.198238 0.426135
v -0.855779 0.198506 0.424406
v -0.858440 0.198383 0.423703
v -0.857395 0.198204 0.424864
v -0.853289 0.199105 0.425147
v -0.852213 0.199346 0.423393
v -0.854952 0.198909 0.422771
v -0.854043 0.198867 0.423920
v -0.857648 0.198815 0.422108
v -0.859334 0.198558 0.422507
v -0.853856 0.199432 0.421175
v -0.855830 0.199101 0.421678
v -0.854981 0.200849 0.428717
v -0.856004 0.199587 0.428664
v -0.856528 0.200438 0.429336
v -0.851425 0.201742 0.427114
v -0.852991 0.200506 0.427317
v -0.853300 0.201295 0.427971
v -0.854442 0.199182 0.426980
v -0.855858 0.198740 0.427547
v -0.851231 0.200263 0.425656
v -0.852914 0.199702 0.426362
v -0.849586 0.202825 0.426442
v -0.847006 0.202490 0.425110
v -0.849217 0.201449 0.425619
v -0.849333 0.202150 0.426152
v -0.844692 0.203384 0.424140
v -0.841671 0.202935 0.422962
v -0.844325 0.202057 0.423653
v -0.844421 0.202746 0.424049
v -0.841643 0.201537 0.421922
v -0.844653 0.200739 0.422085
v -0.846953 0.201095 0.423981
v -0.844393 0.201362 0.422994
v -0.849519 0.200101 0.423873
v -0.849250 0.200736 0.424861
v -0.851252 0.205460 0.425540
v -0.848376 0.204902 0.424761
v -0.850293 0.204048 0.426372
v -0.850716 0.204724 0.426077
v -0.846212 0.205809 0.423113
v -0.842996 0.205304 0.422347
v -0.845411 0.204484 0.423792
v -0.845771 0.205106 0.423529
v -0.842291 0.204155 0.422866
v -0.847643 0.203706 0.425196
v -0.845058 0.203940 0.423999
v -0.849934 0.203450 0.426488
v -0.854054 0.206156 0.420355
v -0.850854 0.206567 0.420976
v -0.852606 0.206382 0.423463
v -0.853365 0.206410 0.421962
v -0.848719 0.206316 0.418495
v -0.845260 0.206809 0.418810
v -0.847442 0.206741 0.421288
v -0.848121 0.206687 0.419925
v -0.843960 0.206559 0.421198
v -0.849448 0.206253 0.423549
v -0.846780 0.206427 0.422386
v -0.851885 0.206066 0.424686
v -0.854602 0.202418 0.416804
v -0.852305 0.203616 0.416108
v -0.854856 0.204576 0.417490
v -0.854842 0.203467 0.416854
v -0.849307 0.202757 0.415127
v -0.846511 0.203974 0.414492
v -0.849469 0.204831 0.415990
v -0.849503 0.203796 0.415315
v -0.846231 0.205782 0.416202
v -0.851997 0.205603 0.417977
v -0.849181 0.205685 0.417135
v -0.854577 0.205529 0.418771
v -0.852367 0.199885 0.419446
v -0.850558 0.200367 0.417585
v -0.853706 0.200805 0.417664
v -0.853070 0.200240 0.418462
v -0.847134 0.200164 0.417575
v -0.844899 0.200736 0.415641
v -0.848421 0.201117 0.415892
v -0.847810 0.200541 0.416642
v -0.845980 0.202055 0.414414
v -0.851707 0.201679 0.416261
v -0.848933 0.201857 0.415354
v -0.854221 0.201537 0.417101
v -0.847698 0.199973 0.421930
v -0.842330 0.200460 0.419899
v -0.845730 0.200012 0.419786
v -0.845113 0.200269 0.420977
v -0.850833 0.199558 0.421570
v -0.850075 0.199682 0.422730
v -0.843583 0.200199 0.417588
v -0.849121 0.199781 0.419598
v -0.846430 0.199998 0.418642
v -0.851624 0.199666 0.420487
v -0.835955 0.203137 0.420713
v -0.833358 0.203850 0.419547
v -0.830064 0.203004 0.418657
v -0.832850 0.202289 0.419320
v -0.833020 0.203115 0.419639
v -0.839130 0.203740 0.421842
v -0.838721 0.202339 0.421488
v -0.838832 0.203068 0.421849
v -0.829915 0.201254 0.417551
v -0.833126 0.200807 0.417555
v -0.835853 0.201605 0.419677
v -0.832876 0.201473 0.418598
v -0.839020 0.200995 0.419861
v -0.838781 0.201621 0.420802
v -0.837301 0.205464 0.419804
v -0.834785 0.206104 0.418099
v -0.831527 0.205602 0.417419
v -0.834072 0.204984 0.418949
v -0.834403 0.205525 0.418580
v -0.840554 0.206022 0.420657
v -0.839843 0.204842 0.421384
v -0.840170 0.205408 0.421082
v -0.830790 0.204465 0.418252
v -0.836642 0.204408 0.420417
v -0.833730 0.204450 0.419269
v -0.839496 0.204310 0.421640
v -0.839345 0.206727 0.416409
v -0.836753 0.206138 0.414053
v -0.833453 0.206455 0.413784
v -0.835847 0.206828 0.416334
v -0.836377 0.206587 0.415110
v -0.842834 0.206435 0.416372
v -0.841702 0.206925 0.418917
v -0.842329 0.206845 0.417638
v -0.832432 0.206668 0.416083
v -0.838162 0.206598 0.418689
v -0.835273 0.206629 0.417390
v -0.841071 0.206600 0.419964
v -0.840275 0.204179 0.412822
v -0.837119 0.203364 0.411478
v -0.834252 0.204221 0.410629
v -0.837146 0.204959 0.412434
v -0.837213 0.204211 0.411813
v -0.843260 0.203150 0.413394
v -0.843386 0.205014 0.414284
v -0.843414 0.204106 0.413663
v -0.834018 0.205522 0.411985
v -0.840054 0.205696 0.414274
v -0.836990 0.205593 0.413191
v -0.843186 0.205805 0.415226
v -0.838891 0.201184 0.413647
v -0.835379 0.200956 0.413301
v -0.832965 0.201485 0.411458
v -0.836410 0.201893 0.411993
v -0.835912 0.201364 0.412591
v -0.841295 0.200585 0.415504
v -0.842460 0.201528 0.413966
v -0.841902 0.200965 0.414654
v -0.833855 0.202623 0.410447
v -0.839867 0.202445 0.412574
v -0.836831 0.202566 0.411576
v -0.842930 0.202267 0.413510
v -0.836518 0.200525 0.417539
v -0.830750 0.200370 0.415090
v -0.834221 0.200430 0.415121
v -0.833609 0.200449 0.416322
v -0.840019 0.200333 0.417560
v -0.839446 0.200547 0.418739
v -0.831947 0.200728 0.412904
v -0.837727 0.200515 0.415315
v -0.834822 0.200637 0.414124
v -0.840659 0.200370 0.416472
v -0.827500 0.203699 0.417657
v -0.824405 0.202600 0.416785
v -0.826991 0.201873 0.417358
v -0.827160 0.202820 0.417736
v -0.822107 0.203382 0.415899
v -0.819310 0.201970 0.415144
v -0.821728 0.201368 0.415229
v -0.821789 0.202334 0.415900
v -0.819591 0.200510 0.412892
v -0.822339 0.200373 0.412712
v -0.824435 0.200856 0.415281
v -0.821950 0.200710 0.414051
v -0.827443 0.200496 0.415202
v -0.827069 0.201016 0.416480
v -0.829173 0.206219 0.415625
v -0.826043 0.205661 0.415120
v -0.828335 0.205063 0.416766
v -0.828737 0.205638 0.416246
v -0.823901 0.206404 0.413415
v -0.820890 0.205835 0.413400
v -0.823003 0.205049 0.414787
v -0.823438 0.205728 0.414152
v -0.819970 0.204160 0.414857
v -0.825178 0.204378 0.416268
v -0.822553 0.204299 0.415413
v -0.827921 0.204441 0.417259
v -0.830931 0.205996 0.411482
v -0.827889 0.206536 0.411206
v -0.830168 0.206729 0.413670
v -0.830610 0.206420 0.412477
v -0.825639 0.206328 0.408819
v -0.822855 0.207069 0.408795
v -0.824876 0.207002 0.411267
v -0.825299 0.206746 0.409984
v -0.821918 0.207216 0.411497
v -0.826979 0.206731 0.413564
v -0.824397 0.206905 0.412456
v -0.829663 0.206676 0.414789
v -0.831288 0.203402 0.409018
v -0.828713 0.204270 0.407811
v -0.831330 0.204953 0.409912
v -0.831405 0.204232 0.409292
v -0.826014 0.203424 0.406076
v -0.823766 0.204422 0.404743
v -0.826101 0.205173 0.406950
v -0.826165 0.204343 0.406309
v -0.823514 0.206081 0.406347
v -0.828453 0.205634 0.409249
v -0.825904 0.205823 0.407826
v -0.831158 0.205523 0.410664
v -0.829610 0.201114 0.410886
v -0.827304 0.201403 0.408835
v -0.830533 0.201996 0.409630
v -0.830075 0.201506 0.410214
v -0.824220 0.200923 0.408270
v -0.822215 0.201252 0.406188
v -0.825152 0.201858 0.406824
v -0.824677 0.201321 0.407494
v -0.823181 0.202549 0.404906
v -0.828229 0.202590 0.407738
v -0.825633 0.202570 0.406308
v -0.830964 0.202633 0.409184
v -0.825332 0.200319 0.412608
v -0.828579 0.200480 0.412632
v -0.827992 0.200352 0.413844
v -0.820391 0.200160 0.410275
v -0.823281 0.200367 0.410200
v -0.822795 0.200273 0.411406
v -0.821307 0.200503 0.407960
v -0.826373 0.200673 0.410390
v -0.823760 0.200605 0.409159
v -0.829121 0.200767 0.411665
v -0.817129 0.202670 0.414866
v -0.814778 0.200910 0.413862
v -0.817089 0.200620 0.413298
v -0.816989 0.201480 0.414474
v -0.812467 0.201655 0.413844
v -0.809905 0.200084 0.413070
v -0.812821 0.199339 0.412291
v -0.812551 0.200333 0.413470
v -0.810825 0.198057 0.410552
v -0.813608 0.198671 0.409109
v -0.815221 0.199575 0.411188
v -0.813169 0.198813 0.410764
v -0.817701 0.199914 0.410581
v -0.817346 0.200146 0.411928
v -0.818971 0.206803 0.411814
v -0.815983 0.205839 0.412312
v -0.817901 0.204916 0.413658
v -0.818409 0.205861 0.412764
v -0.813016 0.204518 0.413090
v -0.810112 0.202929 0.413299
v -0.815036 0.203458 0.414088
v -0.812634 0.203049 0.413644
v -0.817459 0.203866 0.414468
v -0.821035 0.207154 0.406037
v -0.818536 0.208320 0.406554
v -0.820110 0.207839 0.409258
v -0.820606 0.207609 0.407628
v -0.817292 0.207847 0.409985
v -0.819556 0.207566 0.410674
v -0.821225 0.203418 0.403130
v -0.819241 0.204586 0.401410
v -0.821505 0.205583 0.403643
v -0.821483 0.204485 0.403091
v -0.816673 0.203617 0.399955
v -0.814718 0.205301 0.397828
v -0.817303 0.206330 0.399977
v -0.817011 0.204842 0.399650
v -0.815287 0.208777 0.399642
v -0.817120 0.208853 0.403248
v -0.819357 0.207102 0.402915
v -0.817427 0.207876 0.401176
v -0.821345 0.206503 0.404675
v -0.819466 0.200691 0.405755
v -0.817759 0.201049 0.403593
v -0.820371 0.201783 0.404183
v -0.819918 0.201182 0.404895
v -0.815391 0.200221 0.403454
v -0.813834 0.200838 0.401408
v -0.816045 0.201670 0.401408
v -0.815723 0.200888 0.402361
v -0.814223 0.202784 0.399082
v -0.818537 0.202513 0.402156
v -0.816364 0.202580 0.400571
v -0.820816 0.202523 0.403575
v -0.816056 0.199398 0.408328
v -0.818599 0.200022 0.407963
v -0.818135 0.199876 0.409250
v -0.812168 0.198399 0.406692
v -0.814655 0.199236 0.406016
v -0.814140 0.198858 0.407494
v -0.813192 0.199485 0.403820
v -0.816958 0.200008 0.405671
v -0.815055 0.199688 0.404676
v -0.819036 0.200304 0.406785
v -0.859912 0.202535 0.432195
v -0.860572 0.200966 0.432185
v -0.859751 0.201377 0.431574
v -0.861479 0.204253 0.432773
v -0.860333 0.204133 0.432171
v -0.861862 0.199875 0.432599
v -0.861632 0.201037 0.432775
v -0.861250 0.200397 0.432410
v -0.863831 0.204639 0.432717
v -0.862233 0.203280 0.433214
v -0.862609 0.204520 0.432913
v -0.804417 0.203618 0.404639
v -0.862920 0.202541 0.432947
v -0.807532 0.203787 0.402655
v -0.806419 0.203468 0.403837
v -0.866379 0.204408 0.432236
v -0.864693 0.203842 0.432550
v -0.865168 0.204562 0.432410
v -0.865110 0.203442 0.432339
v -0.804626 0.207188 0.404505
v -0.804240 0.205249 0.404335
v -0.866788 0.203576 0.432241
v -0.868147 0.203742 0.432435
v -0.867377 0.204146 0.432263
v -0.866480 0.203312 0.432167
v -0.807321 0.209727 0.405876
v -0.805836 0.208874 0.405207
v -0.868956 0.202533 0.433217
v -0.867777 0.202602 0.432531
v -0.868635 0.203215 0.432767
v -0.867891 0.201013 0.433447
v -0.869294 0.201554 0.433273
v -0.867302 0.202260 0.432413
v -0.808364 0.210255 0.403299
v -0.807854 0.209985 0.404750
v -0.866242 0.202381 0.432311
v -0.864525 0.202516 0.432494
v -0.865714 0.202980 0.432221
v -0.866623 0.201036 0.433274
v -0.865610 0.199907 0.433442
v -0.866706 0.200427 0.433490
v -0.865424 0.201294 0.432827
v -0.866654 0.201426 0.432838
v -0.866560 0.201819 0.432555
v -0.806780 0.207597 0.402543
v -0.805840 0.207205 0.403685
v -0.863538 0.199400 0.433125
v -0.864674 0.200082 0.433363
v -0.864542 0.199543 0.433322
v -0.862907 0.200030 0.432968
v -0.862626 0.199523 0.432859
v -0.807228 0.205433 0.402598
v -0.862553 0.201516 0.432879
v -0.807262 0.209388 0.402935
v -0.864674 0.200527 0.433196
v -0.863867 0.201323 0.432780
v -0.863525 0.200478 0.432999
v -0.864337 0.200835 0.432982
v -0.863402 0.201978 0.432773
v -0.808930 0.206471 0.396318
v -0.808885 0.209324 0.398412
v -0.808836 0.207634 0.396778
v -0.866630 0.203344 0.419143
v -0.867446 0.201287 0.417832
v -0.866221 0.201779 0.417979
v -0.867656 0.204778 0.421815
v -0.866252 0.204769 0.421421
v -0.869445 0.204930 0.423412
v -0.869204 0.204072 0.420764
v -0.868632 0.204920 0.422559
v -0.868711 0.201454 0.418623
v -0.868950 0.199792 0.417503
v -0.868235 0.200508 0.417611
v -0.808767 0.210263 0.401128
v -0.869512 0.201841 0.419996
v -0.807990 0.207615 0.398426
v -0.808278 0.208818 0.398492
v -0.870843 0.199079 0.418263
v -0.869942 0.200065 0.418285
v -0.869836 0.199298 0.417727
v -0.870433 0.200718 0.419634
v -0.807513 0.207967 0.400702
v -0.808353 0.206871 0.396929
v -0.871804 0.199976 0.419460
v -0.872733 0.199507 0.420263
v -0.871854 0.199173 0.419140
v -0.871457 0.200695 0.420332
v -0.812776 0.209568 0.398540
v -0.810338 0.209706 0.398203
v -0.874024 0.200568 0.422788
v -0.873145 0.200850 0.421328
v -0.873443 0.199989 0.421425
v -0.874142 0.202283 0.424427
v -0.874332 0.201114 0.424622
v -0.872441 0.201456 0.421697
v -0.812420 0.205898 0.396081
v -0.812703 0.207667 0.396535
v -0.871627 0.201475 0.421379
v -0.870469 0.201554 0.420667
v -0.870992 0.201043 0.420543
v -0.873436 0.202842 0.423099
v -0.872976 0.204027 0.424958
v -0.873659 0.203284 0.424655
v -0.871839 0.202532 0.422154
v -0.872609 0.202298 0.422336
v -0.872176 0.201928 0.421973
v -0.810214 0.206263 0.395790
v -0.808020 0.204148 0.399356
v -0.871230 0.204769 0.424839
v -0.872330 0.204211 0.423641
v -0.872138 0.204501 0.425059
v -0.870643 0.204595 0.422728
v -0.870320 0.204893 0.424237
v -0.808057 0.205852 0.398742
v -0.869837 0.202896 0.420776
v -0.807930 0.204181 0.401134
v -0.871959 0.203490 0.422433
v -0.870767 0.202736 0.421578
v -0.871064 0.203713 0.421939
v -0.871423 0.203147 0.422100
v -0.870090 0.202226 0.420822
v -0.809285 0.203605 0.397220
v -0.809095 0.205344 0.396386
v -0.808456 0.203894 0.397956
v -0.815843 0.208794 0.407744
v -0.814267 0.209467 0.404818
v -0.816495 0.208994 0.405623
v -0.808152 0.204823 0.412856
v -0.805144 0.204397 0.412300
v -0.806710 0.202111 0.412804
v -0.807446 0.203443 0.412984
v -0.803834 0.201640 0.411502
v -0.807013 0.198951 0.411879
v -0.806589 0.200606 0.412510
v -0.809847 0.199782 0.402092
v -0.811952 0.200065 0.401967
v -0.810488 0.198909 0.404300
v -0.811303 0.199450 0.403042
v -0.807667 0.198982 0.406058
v -0.805950 0.198811 0.409193
v -0.803182 0.200961 0.409749
v -0.804588 0.200559 0.406734
v -0.804962 0.199750 0.407988
v -0.809307 0.197857 0.407839
v -0.809980 0.198312 0.405913
v -0.802509 0.202253 0.407125
v -0.804642 0.202306 0.405109
v -0.806985 0.201065 0.403882
v -0.804549 0.201360 0.405801
v -0.810775 0.200634 0.400394
v -0.812231 0.201711 0.399289
v -0.812189 0.200784 0.400744
v -0.808058 0.197916 0.410113
v -0.802403 0.204121 0.410872
v -0.801547 0.203165 0.409181
v -0.802391 0.202477 0.410481
v -0.801279 0.205589 0.407204
v -0.802514 0.203883 0.405639
v -0.801457 0.203721 0.407315
v -0.805515 0.206263 0.411892
v -0.802589 0.206537 0.409827
v -0.803595 0.205469 0.411333
v -0.810930 0.206117 0.412213
v -0.814200 0.207166 0.410930
v -0.813541 0.205917 0.412181
v -0.807602 0.207747 0.410818
v -0.808096 0.206302 0.412190
v -0.812801 0.208605 0.408770
v -0.815056 0.208129 0.409437
v -0.812449 0.210428 0.401544
v -0.809926 0.210394 0.403639
v -0.811495 0.209608 0.406066
v -0.811956 0.209941 0.404141
v -0.803342 0.207375 0.405637
v -0.804522 0.208435 0.408368
v -0.802443 0.207300 0.407633
v -0.809319 0.209052 0.408788
v -0.808903 0.209845 0.406590
v -0.810703 0.209357 0.407668
v -0.806935 0.209432 0.407115
v -0.807032 0.208882 0.408904
v -0.809449 0.201785 0.398842
v -0.808395 0.200829 0.401281
v -0.809495 0.200546 0.400611
v -0.807629 0.202487 0.402460
v -0.807912 0.202596 0.400371
v -0.807787 0.201525 0.401924
v -0.810510 0.203281 0.397066
v -0.812236 0.204451 0.396616
v -0.812227 0.203010 0.397758
f 250 251 247
f 250 247 120
f 251 248 57
f 251 57 247
f 249 127 248
f 249 248 251
f 9 249 251
f 9 251 250
f 254 255 249
f 254 249 9
f 255 252 127
f 255 127 249
f 253 60 252
f 253 252 255
f 121 253 255
f 121 255 254
f 250 259 256
f 250 256 9
f 259 257 137
f 259 137 256
f 258 66 257
f 258 257 259
f 120 258 259
f 120 259 250
f 254 262 260
f 254 260 121
f 262 261 67
f 262 67 260
f 256 137 261
f 256 261 262
f 9 256 262
f 9 262 254
f 266 267 263
f 266 263 136
f 267 264 62
f 267 62 263
f 265 123 264
f 265 264 267
f 10 265 267
f 10 267 266
f 270 271 265
f 270 265 10
f 271 268 123
f 271 123 265
f 269 71 268
f 269 268 271
f 142 269 271
f 142 271 270
f 266 275 272
f 266 272 10
f 275 273 125
f 275 125 272
f 274 61 273
f 274 273 275
f 136 274 275
f 136 275 266
f 270 278 276
f 270 276 142
f 278 277 70
f 278 70 276
f 272 125 277
f 272 277 278
f 10 272 278
f 10 278 270
f 281 282 264
f 281 264 123
f 282 279 62
f 282 62 264
f 280 132 279
f 280 279 282
f 11 280 282
f 11 282 281
f 285 286 280
f 285 280 11
f 286 283 132
f 286 132 280
f 284 63 283
f 284 283 286
f 124 284 286
f 124 286 285
f 281 289 287
f 281 287 11
f 289 288 144
f 289 144 287
f 268 71 288
f 268 288 289
f 123 268 289
f 123 289 281
f 285 292 290
f 285 290 124
f 292 291 72
f 292 72 290
f 287 144 291
f 287 291 292
f 11 287 292
f 11 292 285
f 295 296 293
f 295 293 12
f 296 294 130
f 296 130 293
f 273 61 294
f 273 294 296
f 125 273 296
f 125 296 295
f 299 300 297
f 299 297 122
f 300 298 64
f 300 64 297
f 293 130 298
f 293 298 300
f 12 293 300
f 12 300 299
f 299 304 301
f 299 301 12
f 304 302 140
f 304 140 301
f 303 69 302
f 303 302 304
f 122 303 304
f 122 304 299
f 295 306 277
f 295 277 125
f 306 305 70
f 306 70 277
f 301 140 305
f 301 305 306
f 12 301 306
f 12 306 295
f 310 311 307
f 310 307 134
f 311 308 58
f 311 58 307
f 309 128 308
f 309 308 311
f 13 309 311
f 13 311 310
f 313 314 309
f 313 309 13
f 314 312 128
f 314 128 309
f 252 60 312
f 252 312 314
f 127 252 314
f 127 314 313
f 317 318 315
f 317 315 126
f 318 316 59
f 318 59 315
f 310 134 316
f 310 316 318
f 13 310 318
f 13 318 317
f 313 320 248
f 313 248 127
f 320 319 57
f 320 57 248
f 317 126 319
f 317 319 320
f 13 317 320
f 13 320 313
f 324 325 321
f 324 321 129
f 325 322 58
f 325 58 321
f 323 133 322
f 323 322 325
f 14 323 325
f 14 325 324
f 327 328 323
f 327 323 14
f 328 326 133
f 328 133 323
f 294 61 326
f 294 326 328
f 130 294 328
f 130 328 327
f 327 330 298
f 327 298 130
f 330 329 64
f 330 64 298
f 324 129 329
f 324 329 330
f 14 324 330
f 14 330 327
f 334 335 331
f 334 331 135
f 335 332 59
f 335 59 331
f 333 131 332
f 333 332 335
f 15 333 335
f 15 335 334
f 337 338 333
f 337 333 15
f 338 336 131
f 338 131 333
f 283 63 336
f 283 336 338
f 132 283 338
f 132 338 337
f 334 340 337
f 334 337 15
f 340 279 132
f 340 132 337
f 339 62 279
f 339 279 340
f 135 339 340
f 135 340 334
f 342 343 316
f 342 316 134
f 343 331 59
f 343 59 316
f 341 135 331
f 341 331 343
f 16 341 343
f 16 343 342
f 344 345 341
f 344 341 16
f 345 339 135
f 345 135 341
f 263 62 339
f 263 339 345
f 136 263 345
f 136 345 344
f 346 347 344
f 346 344 16
f 347 274 136
f 347 136 344
f 326 61 274
f 326 274 347
f 133 326 347
f 133 347 346
f 342 348 346
f 342 346 16
f 348 322 133
f 348 133 346
f 307 58 322
f 307 322 348
f 134 307 348
f 134 348 342
f 351 352 261
f 351 261 137
f 352 349 67
f 352 67 261
f 350 138 349
f 350 349 352
f 17 350 352
f 17 352 351
f 355 356 350
f 355 350 17
f 356 353 138
f 356 138 350
f 354 79 353
f 354 353 356
f 148 354 356
f 148 356 355
f 351 359 357
f 351 357 17
f 359 358 139
f 359 139 357
f 257 66 358
f 257 358 359
f 137 257 359
f 137 359 351
f 355 362 360
f 355 360 148
f 362 361 91
f 362 91 360
f 357 139 361
f 357 361 362
f 17 357 362
f 17 362 355
f 365 366 305
f 365 305 140
f 366 363 70
f 366 70 305
f 364 141 363
f 364 363 366
f 18 364 366
f 18 366 365
f 369 370 364
f 369 364 18
f 370 367 141
f 370 141 364
f 368 85 367
f 368 367 370
f 153 368 370
f 153 370 369
f 365 373 371
f 365 371 18
f 373 372 145
f 373 145 371
f 302 69 372
f 302 372 373
f 140 302 373
f 140 373 365
f 369 376 374
f 369 374 153
f 376 375 82
f 376 82 374
f 371 145 375
f 371 375 376
f 18 371 376
f 18 376 369
f 379 380 269
f 379 269 142
f 380 377 71
f 380 71 269
f 378 143 377
f 378 377 380
f 19 378 380
f 19 380 379
f 383 384 378
f 383 378 19
f 384 381 143
f 384 143 378
f 382 88 381
f 382 381 384
f 155 382 384
f 155 384 383
f 386 387 383
f 386 383 19
f 387 385 155
f 387 155 383
f 367 85 385
f 367 385 387
f 141 367 387
f 141 387 386
f 379 388 386
f 379 386 19
f 388 363 141
f 388 141 386
f 276 70 363
f 276 363 388
f 142 276 388
f 142 388 379
f 391 392 291
f 391 291 144
f 392 389 72
f 392 72 291
f 390 146 389
f 390 389 392
f 20 390 392
f 20 392 391
f 395 396 390
f 395 390 20
f 396 393 146
f 396 146 390
f 394 93 393
f 394 393 396
f 157 394 396
f 157 396 395
f 398 399 395
f 398 395 20
f 399 397 157
f 399 157 395
f 381 88 397
f 381 397 399
f 143 381 399
f 143 399 398
f 391 400 398
f 391 398 20
f 400 377 143
f 400 143 398
f 288 71 377
f 288 377 400
f 144 288 400
f 144 400 391
f 404 405 401
f 404 401 147
f 405 402 91
f 405 91 401
f 403 149 402
f 403 402 405
f 21 403 405
f 21 405 404
f 408 409 403
f 408 403 21
f 409 406 149
f 409 149 403
f 407 92 406
f 407 406 409
f 206 407 409
f 206 409 408
f 412 413 410
f 412 410 158
f 413 411 93
f 413 93 410
f 404 147 411
f 404 411 413
f 21 404 413
f 21 413 412
f 408 416 414
f 408 414 206
f 416 415 94
f 416 94 414
f 412 158 415
f 412 415 416
f 21 412 416
f 21 416 408
f 419 420 354
f 419 354 148
f 420 417 79
f 420 79 354
f 418 150 417
f 418 417 420
f 22 418 420
f 22 420 419
f 423 424 418
f 423 418 22
f 424 421 150
f 424 150 418
f 422 80 421
f 422 421 424
f 201 422 424
f 201 424 423
f 425 426 402
f 425 402 149
f 426 360 91
f 426 91 402
f 419 148 360
f 419 360 426
f 22 419 426
f 22 426 425
f 423 428 427
f 423 427 201
f 428 406 92
f 428 92 427
f 425 149 406
f 425 406 428
f 22 425 428
f 22 428 423
f 432 433 429
f 432 429 151
f 433 430 82
f 433 82 429
f 431 152 430
f 431 430 433
f 23 431 433
f 23 433 432
f 436 437 431
f 436 431 23
f 437 434 152
f 437 152 431
f 435 83 434
f 435 434 437
f 202 435 437
f 202 437 436
f 432 440 438
f 432 438 23
f 440 417 150
f 440 150 438
f 439 79 417
f 439 417 440
f 151 439 440
f 151 440 432
f 436 442 441
f 436 441 202
f 442 421 80
f 442 80 441
f 438 150 421
f 438 421 442
f 23 438 442
f 23 442 436
f 445 446 368
f 445 368 153
f 446 443 85
f 446 85 368
f 444 154 443
f 444 443 446
f 24 444 446
f 24 446 445
f 449 450 444
f 449 444 24
f 450 447 154
f 450 154 444
f 448 86 447
f 448 447 450
f 203 448 450
f 203 450 449
f 445 452 451
f 445 451 24
f 452 430 152
f 452 152 451
f 374 82 430
f 374 430 452
f 153 374 452
f 153 452 445
f 449 454 453
f 449 453 203
f 454 434 83
f 454 83 453
f 451 152 434
f 451 434 454
f 24 451 454
f 24 454 449
f 457 458 382
f 457 382 155
f 458 455 88
f 458 88 382
f 456 156 455
f 456 455 458
f 25 456 458
f 25 458 457
f 461 462 456
f 461 456 25
f 462 459 156
f 462 156 456
f 460 90 459
f 460 459 462
f 204 460 462
f 204 462 461
f 457 464 463
f 457 463 25
f 464 443 154
f 464 154 463
f 385 85 443
f 385 443 464
f 155 385 464
f 155 464 457
f 461 466 465
f 461 465 204
f 466 447 86
f 466 86 465
f 463 154 447
f 463 447 466
f 25 463 466
f 25 466 461
f 468 469 394
f 468 394 157
f 469 410 93
f 469 93 394
f 467 158 410
f 467 410 469
f 26 467 469
f 26 469 468
f 471 472 467
f 471 467 26
f 472 415 158
f 472 158 467
f 470 94 415
f 470 415 472
f 205 470 472
f 205 472 471
f 468 474 473
f 468 473 26
f 474 455 156
f 474 156 473
f 397 88 455
f 397 455 474
f 157 397 474
f 157 474 468
f 471 476 475
f 471 475 205
f 476 459 90
f 476 90 475
f 473 156 459
f 473 459 476
f 26 473 476
f 26 476 471
f 479 480 470
f 479 470 205
f 480 477 94
f 480 94 470
f 478 159 477
f 478 477 480
f 27 478 480
f 27 480 479
f 483 484 478
f 483 478 27
f 484 481 159
f 484 159 478
f 482 95 481
f 482 481 484
f 183 482 484
f 183 484 483
f 487 488 483
f 487 483 27
f 488 485 183
f 488 183 483
f 486 89 485
f 486 485 488
f 164 486 488
f 164 488 487
f 487 490 489
f 487 489 164
f 490 475 90
f 490 90 489
f 479 205 475
f 479 475 490
f 27 479 490
f 27 490 487
f 493 494 407
f 493 407 206
f 494 491 92
f 494 92 407
f 492 160 491
f 492 491 494
f 28 492 494
f 28 494 493
f 497 498 492
f 497 492 28
f 498 495 160
f 498 160 492
f 496 96 495
f 496 495 498
f 184 496 498
f 184 498 497
f 500 501 497
f 500 497 28
f 501 499 184
f 501 184 497
f 481 95 499
f 481 499 501
f 159 481 501
f 159 501 500
f 500 502 477
f 500 477 159
f 502 414 94
f 502 94 477
f 493 206 414
f 493 414 502
f 28 493 502
f 28 502 500
f 505 506 422
f 505 422 201
f 506 503 80
f 506 80 422
f 504 161 503
f 504 503 506
f 29 504 506
f 29 506 505
f 509 510 504
f 509 504 29
f 510 507 161
f 510 161 504
f 508 81 507
f 508 507 510
f 185 508 510
f 185 510 509
f 512 513 509
f 512 509 29
f 513 511 185
f 513 185 509
f 495 96 511
f 495 511 513
f 160 495 513
f 160 513 512
f 512 514 491
f 512 491 160
f 514 427 92
f 514 92 491
f 505 201 427
f 505 427 514
f 29 505 514
f 29 514 512
f 517 518 435
f 517 435 202
f 518 515 83
f 518 83 435
f 516 162 515
f 516 515 518
f 30 516 518
f 30 518 517
f 521 522 516
f 521 516 30
f 522 519 162
f 522 162 516
f 520 84 519
f 520 519 522
f 186 520 522
f 186 522 521
f 524 525 521
f 524 521 30
f 525 523 186
f 525 186 521
f 507 81 523
f 507 523 525
f 161 507 525
f 161 525 524
f 524 526 503
f 524 503 161
f 526 441 80
f 526 80 503
f 517 202 441
f 517 441 526
f 30 517 526
f 30 526 524
f 529 530 448
f 529 448 203
f 530 527 86
f 530 86 448
f 528 163 527
f 528 527 530
f 31 528 530
f 31 530 529
f 533 534 528
f 533 528 31
f 534 531 163
f 534 163 528
f 532 87 531
f 532 531 534
f 187 532 534
f 187 534 533
f 536 537 533
f 536 533 31
f 537 535 187
f 537 187 533
f 519 84 535
f 519 535 537
f 162 519 537
f 162 537 536
f 536 538 515
f 536 515 162
f 538 453 83
f 538 83 515
f 529 203 453
f 529 453 538
f 31 529 538
f 31 538 536
f 541 542 539
f 541 539 32
f 542 486 164
f 542 164 539
f 540 89 486
f 540 486 542
f 188 540 542
f 188 542 541
f 543 544 460
f 543 460 204
f 544 489 90
f 544 90 460
f 539 164 489
f 539 489 544
f 32 539 544
f 32 544 543
f 546 547 541
f 546 541 32
f 547 545 188
f 547 188 541
f 531 87 545
f 531 545 547
f 163 531 547
f 163 547 546
f 546 548 527
f 546 527 163
f 548 465 86
f 548 86 527
f 543 204 465
f 543 465 548
f 32 543 548
f 32 548 546
f 552 553 549
f 552 549 33
f 553 550 165
f 553 165 549
f 551 73 550
f 551 550 553
f 189 551 553
f 189 553 552
f 555 556 482
f 555 482 183
f 556 554 95
f 556 95 482
f 549 165 554
f 549 554 556
f 33 549 556
f 33 556 555
f 559 560 552
f 559 552 33
f 560 557 189
f 560 189 552
f 558 78 557
f 558 557 560
f 170 558 560
f 170 560 559
f 555 562 559
f 555 559 33
f 562 561 170
f 562 170 559
f 485 89 561
f 485 561 562
f 183 485 562
f 183 562 555
f 566 567 563
f 566 563 34
f 567 564 166
f 567 166 563
f 565 74 564
f 565 564 567
f 190 565 567
f 190 567 566
f 569 570 496
f 569 496 184
f 570 568 96
f 570 96 496
f 563 166 568
f 563 568 570
f 34 563 570
f 34 570 569
f 572 573 566
f 572 566 34
f 573 571 190
f 573 190 566
f 550 73 571
f 550 571 573
f 165 550 573
f 165 573 572
f 569 574 572
f 569 572 34
f 574 554 165
f 574 165 572
f 499 95 554
f 499 554 574
f 184 499 574
f 184 574 569
f 578 579 575
f 578 575 35
f 579 576 167
f 579 167 575
f 577 75 576
f 577 576 579
f 191 577 579
f 191 579 578
f 581 582 508
f 581 508 185
f 582 580 81
f 582 81 508
f 575 167 580
f 575 580 582
f 35 575 582
f 35 582 581
f 584 585 578
f 584 578 35
f 585 583 191
f 585 191 578
f 564 74 583
f 564 583 585
f 166 564 585
f 166 585 584
f 581 586 584
f 581 584 35
f 586 568 166
f 586 166 584
f 511 96 568
f 511 568 586
f 185 511 586
f 185 586 581
f 590 591 587
f 590 587 36
f 591 588 168
f 591 168 587
f 589 76 588
f 589 588 591
f 192 589 591
f 192 591 590
f 593 594 520
f 593 520 186
f 594 592 84
f 594 84 520
f 587 168 592
f 587 592 594
f 36 587 594
f 36 594 593
f 596 597 590
f 596 590 36
f 597 595 192
f 597 192 590
f 576 75 595
f 576 595 597
f 167 576 597
f 167 597 596
f 593 598 596
f 593 596 36
f 598 580 167
f 598 167 596
f 523 81 580
f 523 580 598
f 186 523 598
f 186 598 593
f 602 603 599
f 602 599 37
f 603 600 169
f 603 169 599
f 601 77 600
f 601 600 603
f 193 601 603
f 193 603 602
f 605 606 532
f 605 532 187
f 606 604 87
f 606 87 532
f 599 169 604
f 599 604 606
f 37 599 606
f 37 606 605
f 608 609 602
f 608 602 37
f 609 607 193
f 609 193 602
f 588 76 607
f 588 607 609
f 168 588 609
f 168 609 608
f 605 610 608
f 605 608 37
f 610 592 168
f 610 168 608
f 535 84 592
f 535 592 610
f 187 535 610
f 187 610 605
f 613 614 611
f 613 611 38
f 614 558 170
f 614 170 611
f 612 78 558
f 612 558 614
f 194 612 614
f 194 614 613
f 615 616 540
f 615 540 188
f 616 561 89
f 616 89 540
f 611 170 561
f 611 561 616
f 38 611 616
f 38 616 615
f 618 619 613
f 618 613 38
f 619 617 194
f 619 194 613
f 600 77 617
f 600 617 619
f 169 600 619
f 169 619 618
f 615 620 618
f 615 618 38
f 620 604 169
f 620 169 618
f 545 87 604
f 545 604 620
f 188 545 620
f 188 620 615
f 623 624 551
f 623 551 189
f 624 621 73
f 624 73 551
f 622 171 621
f 622 621 624
f 39 622 624
f 39 624 623
f 627 628 622
f 627 622 39
f 628 625 171
f 628 171 622
f 626 100 625
f 626 625 628
f 195 626 628
f 195 628 627
f 631 632 627
f 631 627 39
f 632 629 195
f 632 195 627
f 630 98 629
f 630 629 632
f 176 630 632
f 176 632 631
f 623 634 631
f 623 631 39
f 634 633 176
f 634 176 631
f 557 78 633
f 557 633 634
f 189 557 634
f 189 634 623
f 637 638 565
f 637 565 190
f 638 635 74
f 638 74 565
f 636 172 635
f 636 635 638
f 40 636 638
f 40 638 637
f 641 642 636
f 641 636 40
f 642 639 172
f 642 172 636
f 640 101 639
f 640 639 642
f 196 640 642
f 196 642 641
f 644 645 641
f 644 641 40
f 645 643 196
f 645 196 641
f 625 100 643
f 625 643 645
f 171 625 645
f 171 645 644
f 637 646 644
f 637 644 40
f 646 621 171
f 646 171 644
f 571 73 621
f 571 621 646
f 190 571 646
f 190 646 637
f 649 650 577
f 649 577 191
f 650 647 75
f 650 75 577
f 648 173 647
f 648 647 650
f 41 648 650
f 41 650 649
f 653 654 648
f 653 648 41
f 654 651 173
f 654 173 648
f 652 102 651
f 652 651 654
f 197 652 654
f 197 654 653
f 656 657 653
f 656 653 41
f 657 655 197
f 657 197 653
f 639 101 655
f 639 655 657
f 172 639 657
f 172 657 656
f 649 658 656
f 649 656 41
f 658 635 172
f 658 172 656
f 583 74 635
f 583 635 658
f 191 583 658
f 191 658 649
f 661 662 589
f 661 589 192
f 662 659 76
f 662 76 589
f 660 174 659
f 660 659 662
f 42 660 662
f 42 662 661
f 665 666 660
f 665 660 42
f 666 663 174
f 666 174 660
f 664 99 663
f 664 663 666
f 198 664 666
f 198 666 665
f 668 669 665
f 668 665 42
f 669 667 198
f 669 198 665
f 651 102 667
f 651 667 669
f 173 651 669
f 173 669 668
f 661 670 668
f 661 668 42
f 670 647 173
f 670 173 668
f 595 75 647
f 595 647 670
f 192 595 670
f 192 670 661
f 673 674 601
f 673 601 193
f 674 671 77
f 674 77 601
f 672 175 671
f 672 671 674
f 43 672 674
f 43 674 673
f 677 678 672
f 677 672 43
f 678 675 175
f 678 175 672
f 676 97 675
f 676 675 678
f 199 676 678
f 199 678 677
f 680 681 677
f 680 677 43
f 681 679 199
f 681 199 677
f 663 99 679
f 663 679 681
f 174 663 681
f 174 681 680
f 673 682 680
f 673 680 43
f 682 659 174
f 682 174 680
f 607 76 659
f 607 659 682
f 193 607 682
f 193 682 673
f 684 685 612
f 684 612 194
f 685 633 78
f 685 78 612
f 683 176 633
f 683 633 685
f 44 683 685
f 44 685 684
f 687 688 683
f 687 683 44
f 688 630 176
f 688 176 683
f 686 98 630
f 686 630 688
f 200 686 688
f 200 688 687
f 690 691 687
f 690 687 44
f 691 689 200
f 691 200 687
f 675 97 689
f 675 689 691
f 175 675 691
f 175 691 690
f 684 692 690
f 684 690 44
f 692 671 175
f 692 175 690
f 617 77 671
f 617 671 692
f 194 617 692
f 194 692 684
f 695 696 626
f 695 626 195
f 696 693 100
f 696 100 626
f 694 177 693
f 694 693 696
f 45 694 696
f 45 696 695
f 699 700 694
f 699 694 45
f 700 697 177
f 700 177 694
f 698 109 697
f 698 697 700
f 211 698 700
f 211 700 699
f 703 704 699
f 703 699 45
f 704 701 211
f 704 211 699
f 702 107 701
f 702 701 704
f 182 702 704
f 182 704 703
f 695 706 703
f 695 703 45
f 706 705 182
f 706 182 703
f 629 98 705
f 629 705 706
f 195 629 706
f 195 706 695
f 709 710 640
f 709 640 196
f 710 707 101
f 710 101 640
f 708 178 707
f 708 707 710
f 46 708 710
f 46 710 709
f 713 714 711
f 713 711 46
f 714 712 214
f 714 214 711
f 697 109 712
f 697 712 714
f 177 697 714
f 177 714 713
f 709 715 713
f 709 713 46
f 715 693 177
f 715 177 713
f 643 100 693
f 643 693 715
f 196 643 715
f 196 715 709
f 718 719 652
f 718 652 197
f 719 716 102
f 719 102 652
f 717 179 716
f 717 716 719
f 47 717 719
f 47 719 718
f 718 721 720
f 718 720 47
f 721 707 178
f 721 178 720
f 655 101 707
f 655 707 721
f 197 655 721
f 197 721 718
f 724 725 664
f 724 664 198
f 725 722 99
f 725 99 664
f 723 180 722
f 723 722 725
f 48 723 725
f 48 725 724
f 728 729 723
f 728 723 48
f 729 726 180
f 729 180 723
f 727 104 726
f 727 726 729
f 213 727 729
f 213 729 728
f 732 733 728
f 732 728 48
f 733 730 213
f 733 213 728
f 731 106 730
f 731 730 733
f 179 731 733
f 179 733 732
f 724 734 732
f 724 732 48
f 734 716 179
f 734 179 732
f 667 102 716
f 667 716 734
f 198 667 734
f 198 734 724
f 737 738 676
f 737 676 199
f 738 735 97
f 738 97 676
f 736 181 735
f 736 735 738
f 49 736 738
f 49 738 737
f 741 742 736
f 741 736 49
f 742 739 181
f 742 181 736
f 740 105 739
f 740 739 742
f 208 740 742
f 208 742 741
f 744 745 741
f 744 741 49
f 745 743 208
f 745 208 741
f 726 104 743
f 726 743 745
f 180 726 745
f 180 745 744
f 737 746 744
f 737 744 49
f 746 722 180
f 746 180 744
f 679 99 722
f 679 722 746
f 199 679 746
f 199 746 737
f 748 749 686
f 748 686 200
f 749 705 98
f 749 98 686
f 747 182 705
f 747 705 749
f 50 747 749
f 50 749 748
f 751 752 747
f 751 747 50
f 752 702 182
f 752 182 747
f 750 107 702
f 750 702 752
f 207 750 752
f 207 752 751
f 754 755 751
f 754 751 50
f 755 753 207
f 755 207 751
f 739 105 753
f 739 753 755
f 181 739 755
f 181 755 754
f 748 756 754
f 748 754 50
f 756 735 181
f 756 181 754
f 689 97 735
f 689 735 756
f 200 689 756
f 200 756 748
f 758 759 757
f 758 757 1
f 759 411 147
f 759 147 757
f 393 93 411
f 393 411 759
f 146 393 759
f 146 759 758
f 760 761 361
f 760 361 139
f 761 401 91
f 761 91 361
f 757 147 401
f 757 401 761
f 1 757 761
f 1 761 760
f 758 764 389
f 758 389 146
f 764 762 72
f 764 72 389
f 763 115 762
f 763 762 764
f 1 763 764
f 1 764 758
f 766 767 765
f 766 765 112
f 767 358 66
f 767 66 765
f 760 139 358
f 760 358 767
f 1 760 767
f 1 767 766
f 118 866 873
f 118 873 235
f 8 236 873
f 8 873 866
f 868 875 236
f 868 236 8
f 119 229 875
f 119 875 868
f 773 774 772
f 773 772 2
f 774 258 120
f 774 120 772
f 765 66 258
f 765 258 774
f 112 765 774
f 112 774 773
f 825 871 229
f 825 229 119
f 5 230 871
f 5 871 825
f 7 857 861
f 7 861 234
f 118 235 861
f 118 861 857
f 779 780 247
f 779 247 57
f 780 772 120
f 780 120 247
f 778 2 772
f 778 772 780
f 113 778 780
f 113 780 779
f 117 847 851
f 117 851 233
f 7 234 851
f 7 851 847
f 6 840 843
f 6 843 232
f 117 233 843
f 117 843 840
f 785 786 784
f 785 784 3
f 786 319 126
f 786 126 784
f 779 57 319
f 779 319 786
f 113 779 786
f 113 786 785
f 787 788 332
f 787 332 131
f 788 315 59
f 788 59 332
f 784 126 315
f 784 315 788
f 3 784 788
f 3 788 787
f 116 835 837
f 116 837 231
f 6 232 837
f 6 837 835
f 827 831 230
f 827 230 5
f 116 231 831
f 116 831 827
f 793 794 792
f 793 792 65
f 794 781 225
f 794 225 792
f 775 224 781
f 775 781 794
f 223 775 794
f 223 794 793
f 796 797 336
f 796 336 63
f 797 787 131
f 797 131 336
f 795 3 787
f 795 787 797
f 114 795 797
f 114 797 796
f 799 800 789
f 799 789 226
f 800 792 225
f 800 225 789
f 798 65 792
f 798 792 800
f 227 798 800
f 227 800 799
f 114 804 811
f 114 811 227
f 4 228 811
f 4 811 804
f 806 813 228
f 806 228 4
f 115 221 813
f 115 813 806
f 804 805 803
f 804 803 4
f 805 284 124
f 805 124 803
f 796 63 284
f 796 284 805
f 114 796 805
f 114 805 804
f 803 807 806
f 803 806 4
f 807 762 115
f 807 115 806
f 290 72 762
f 290 762 807
f 124 290 807
f 124 807 803
f 763 809 221
f 763 221 115
f 1 222 809
f 1 809 763
f 3 795 799
f 3 799 226
f 114 227 799
f 114 799 795
f 813 814 811
f 813 811 228
f 814 798 227
f 814 227 811
f 812 65 798
f 812 798 814
f 221 812 814
f 221 814 813
f 809 815 812
f 809 812 221
f 815 793 65
f 815 65 812
f 769 223 793
f 769 793 815
f 222 769 815
f 222 815 809
f 113 785 789
f 113 789 225
f 3 226 789
f 3 789 785
f 2 778 781
f 2 781 224
f 113 225 781
f 113 781 778
f 112 773 775
f 112 775 223
f 2 224 775
f 2 775 773
f 766 769 222
f 766 222 1
f 112 223 769
f 112 769 766
f 820 821 375
f 820 375 145
f 821 429 82
f 821 82 375
f 819 151 429
f 819 429 821
f 5 819 821
f 5 821 820
f 822 823 819
f 822 819 5
f 823 439 151
f 823 151 819
f 353 79 439
f 353 439 823
f 138 353 823
f 138 823 822
f 822 826 349
f 822 349 138
f 826 824 67
f 826 67 349
f 825 119 824
f 825 824 826
f 5 825 826
f 5 826 822
f 828 829 372
f 828 372 69
f 829 820 145
f 829 145 372
f 827 5 820
f 827 820 829
f 116 827 829
f 116 829 828
f 110 914 768
f 110 768 777
f 914 220 903
f 914 903 768
f 768 903 108
f 768 108 771
f 777 768 771
f 777 771 243
f 835 836 834
f 835 834 6
f 836 303 122
f 836 122 834
f 828 69 303
f 828 303 836
f 116 828 836
f 116 836 835
f 243 771 770
f 243 770 808
f 771 108 941
f 771 941 770
f 770 941 219
f 770 219 872
f 808 770 872
f 808 872 111
f 841 842 297
f 841 297 64
f 842 834 122
f 842 122 297
f 840 6 834
f 840 834 842
f 117 840 842
f 117 842 841
f 56 783 776
f 56 776 802
f 783 217 930
f 783 930 776
f 776 930 110
f 776 110 777
f 802 776 777
f 802 777 243
f 847 848 846
f 847 846 7
f 848 329 129
f 848 129 846
f 841 64 329
f 841 329 848
f 117 841 848
f 117 848 847
f 849 850 308
f 849 308 128
f 850 321 58
f 850 58 308
f 846 129 321
f 846 321 850
f 7 846 850
f 7 850 849
f 56 791 782
f 56 782 783
f 791 238 934
f 791 934 782
f 782 934 244
f 782 244 936
f 783 782 936
f 783 936 217
f 855 856 854
f 855 854 68
f 856 843 233
f 856 233 854
f 837 232 843
f 837 843 856
f 231 837 856
f 231 856 855
f 858 859 312
f 858 312 60
f 859 849 128
f 859 128 312
f 857 7 849
f 857 849 859
f 118 857 859
f 118 859 858
f 861 862 851
f 861 851 234
f 862 854 233
f 862 233 851
f 860 68 854
f 860 854 862
f 235 860 862
f 235 862 861
f 56 810 790
f 56 790 791
f 810 218 830
f 810 830 790
f 790 830 239
f 790 239 927
f 791 790 927
f 791 927 238
f 866 867 865
f 866 865 8
f 867 253 121
f 867 121 865
f 858 60 253
f 858 253 867
f 118 858 867
f 118 867 866
f 865 869 868
f 865 868 8
f 869 824 119
f 869 119 868
f 260 67 824
f 260 824 869
f 121 260 869
f 121 869 865
f 243 808 801
f 243 801 802
f 808 111 838
f 808 838 801
f 801 838 218
f 801 218 810
f 802 801 810
f 802 810 56
f 875 876 873
f 875 873 236
f 876 860 235
f 876 235 873
f 874 68 860
f 874 860 876
f 229 874 876
f 229 876 875
f 871 877 874
f 871 874 229
f 877 855 68
f 877 68 874
f 831 231 855
f 831 855 877
f 230 831 877
f 230 877 871
f 246 839 816
f 246 816 818
f 839 245 879
f 839 879 816
f 816 879 212
f 816 212 863
f 818 816 863
f 818 863 54
f 246 818 817
f 246 817 833
f 818 54 845
f 818 845 817
f 817 845 239
f 817 239 830
f 833 817 830
f 833 830 218
f 882 883 881
f 882 881 216
f 883 717 47
f 883 47 881
f 731 179 717
f 731 717 883
f 106 731 883
f 106 883 882
f 886 887 712
f 886 712 109
f 887 884 214
f 887 214 712
f 885 55 884
f 885 884 887
f 215 885 887
f 215 887 886
f 886 890 888
f 886 888 215
f 890 889 53
f 890 53 888
f 698 211 889
f 698 889 890
f 109 698 890
f 109 890 886
f 893 894 891
f 893 891 51
f 894 892 209
f 894 209 891
f 753 105 892
f 753 892 894
f 207 753 894
f 207 894 893
f 898 899 895
f 898 895 51
f 899 896 210
f 899 210 895
f 897 53 896
f 897 896 899
f 241 897 899
f 241 899 898
f 893 901 750
f 893 750 207
f 901 900 107
f 901 107 750
f 895 210 900
f 895 900 901
f 51 895 901
f 51 901 893
f 898 905 902
f 898 902 241
f 905 903 220
f 905 220 902
f 904 108 903
f 904 903 905
f 51 904 905
f 51 905 898
f 892 908 906
f 892 906 209
f 908 907 52
f 908 52 906
f 740 208 907
f 740 907 908
f 105 740 908
f 105 908 892
f 900 909 701
f 900 701 107
f 909 889 211
f 909 211 701
f 896 53 889
f 896 889 909
f 210 896 909
f 210 909 900
f 911 912 897
f 911 897 241
f 912 888 53
f 912 53 897
f 910 215 888
f 910 888 912
f 242 910 912
f 242 912 911
f 902 915 911
f 902 911 241
f 915 913 242
f 915 242 911
f 914 110 913
f 914 913 915
f 220 914 915
f 220 915 902
f 917 918 910
f 917 910 242
f 918 885 215
f 918 215 910
f 916 55 885
f 916 885 918
f 237 916 918
f 237 918 917
f 920 921 919
f 920 919 103
f 921 711 214
f 921 214 919
f 708 46 711
f 708 711 921
f 178 708 921
f 178 921 920
f 922 923 916
f 922 916 237
f 923 884 55
f 923 55 916
f 919 214 884
f 919 884 923
f 103 919 923
f 103 923 922
f 924 925 920
f 924 920 103
f 925 720 178
f 925 178 920
f 881 47 720
f 881 720 925
f 216 881 925
f 216 925 924
f 928 929 882
f 928 882 216
f 929 926 106
f 929 106 882
f 927 239 926
f 927 926 929
f 238 927 929
f 238 929 928
f 931 932 930
f 931 930 217
f 932 913 110
f 932 110 930
f 917 242 913
f 917 913 932
f 237 917 932
f 237 932 931
f 934 935 933
f 934 933 244
f 935 924 103
f 935 103 933
f 928 216 924
f 928 924 935
f 238 928 935
f 238 935 934
f 936 937 931
f 936 931 217
f 937 922 237
f 937 237 931
f 933 103 922
f 933 922 937
f 244 933 937
f 244 937 936
f 939 940 938
f 939 938 240
f 940 906 52
f 940 52 938
f 891 209 906
f 891 906 940
f 51 891 940
f 51 940 939
f 939 943 904
f 939 904 51
f 943 941 108
f 943 108 904
f 942 219 941
f 942 941 943
f 240 942 943
f 240 943 939
f 945 946 743
f 945 743 104
f 946 907 208
f 946 208 743
f 944 52 907
f 944 907 946
f 212 944 946
f 212 946 945
f 879 878 944
f 879 944 212
f 878 938 52
f 878 52 944
f 880 240 938
f 880 938 878
f 245 880 878
f 245 878 879
f 870 864 880
f 870 880 245
f 864 942 240
f 864 240 880
f 872 219 942
f 872 942 864
f 111 872 864
f 111 864 870
f 853 852 727
f 853 727 213
f 852 945 104
f 852 104 727
f 863 212 945
f 863 945 852
f 54 863 852
f 54 852 853
f 845 844 926
f 845 926 239
f 844 730 106
f 844 106 926
f 853 213 730
f 853 730 844
f 54 853 844
f 54 844 845
f 833 832 839
f 833 839 246
f 832 870 245
f 832 245 839
f 838 111 870
f 838 870 832
f 218 838 832
f 218 832 833
