# _3rd_Middle_Phalanx_Foot_L rest
v 0.120816 -1.335912 0.132263
v 0.120741 -1.336243 0.132281
v 0.120510 -1.336277 0.132009
v 0.120505 -1.335938 0.131926
v 0.120170 -1.336687 0.131778
v 0.119905 -1.336560 0.131519
v 0.120047 -1.336918 0.131755
v 0.119764 -1.336877 0.131470
v 0.119721 -1.337326 0.131505
v 0.120016 -1.337230 0.131799
v 0.120079 -1.337781 0.132418
v 0.120279 -1.337553 0.132394
v 0.120150 -1.337506 0.132164
v 0.119926 -1.337784 0.132107
v 0.120321 -1.336431 0.131834
v 0.120143 -1.336177 0.131687
v 0.121005 -1.336127 0.132672
v 0.120907 -1.336395 0.132582
v 0.121040 -1.336511 0.133024
v 0.120963 -1.336653 0.132818
v 0.121003 -1.336913 0.133251
v 0.120945 -1.336928 0.132918
v 0.120913 -1.337324 0.133364
v 0.120897 -1.337229 0.132981
v 0.120832 -1.337672 0.133333
v 0.120872 -1.337481 0.132978
v 0.120468 -1.337627 0.132610
v 0.120311 -1.337888 0.132737
v 0.120721 -1.337638 0.132854
v 0.120632 -1.337912 0.133070
v 0.120060 -1.337456 0.131929
v 0.119811 -1.337665 0.131734
v 0.120781 -1.336786 0.132595
v 0.120626 -1.336691 0.132347
v 0.120445 -1.336647 0.132091
v 0.120705 -1.337108 0.132619
v 0.120525 -1.337021 0.132366
v 0.120316 -1.336977 0.132126
v 0.120592 -1.337401 0.132610
v 0.120394 -1.337323 0.132373
v 0.120237 -1.337271 0.132159
v 0.118772 -1.336650 0.131939
v 0.118937 -1.336325 0.131995
v 0.119139 -1.336080 0.132136
v 0.119325 -1.335880 0.132326
v 0.119552 -1.335803 0.132603
v 0.119733 -1.335899 0.132932
v 0.119853 -1.336146 0.133219
v 0.119896 -1.336459 0.133456
v 0.119829 -1.336812 0.133617
v 0.119688 -1.337160 0.133597
v 0.119458 -1.337432 0.133431
v 0.119238 -1.337546 0.133161
v 0.119025 -1.337556 0.132872
v 0.118858 -1.337517 0.132581
v 0.118712 -1.337352 0.132271
v 0.118652 -1.337012 0.132009
v 0.117785 -1.336318 0.132558
v 0.117893 -1.336065 0.132574
v 0.118029 -1.335874 0.132691
v 0.118176 -1.335751 0.132844
v 0.118313 -1.335718 0.133049
v 0.118433 -1.335772 0.133279
v 0.118509 -1.335918 0.133491
v 0.118555 -1.336117 0.133683
v 0.118513 -1.336384 0.133811
v 0.118414 -1.336656 0.133826
v 0.118240 -1.336840 0.133679
v 0.118100 -1.336948 0.133493
v 0.117950 -1.336963 0.133268
v 0.117843 -1.336921 0.133050
v 0.117772 -1.336801 0.132844
v 0.117742 -1.336602 0.132658
v 0.117068 -1.336100 0.132850
v 0.117167 -1.335844 0.132830
v 0.117292 -1.335621 0.132931
v 0.117423 -1.335545 0.133122
v 0.117540 -1.335542 0.133329
v 0.117637 -1.335592 0.133542
v 0.117710 -1.335712 0.133751
v 0.117748 -1.335893 0.133946
v 0.117719 -1.336146 0.134053
v 0.117630 -1.336406 0.134067
v 0.117490 -1.336591 0.133935
v 0.117357 -1.336706 0.133763
v 0.117233 -1.336728 0.133545
v 0.117127 -1.336694 0.133331
v 0.117055 -1.336577 0.133125
v 0.117027 -1.336394 0.132939
v 0.115805 -1.335782 0.133100
v 0.115933 -1.335461 0.133122
v 0.116108 -1.335235 0.133287
v 0.116277 -1.335150 0.133528
v 0.116415 -1.335148 0.133767
v 0.116533 -1.335198 0.134005
v 0.116641 -1.335304 0.134261
v 0.116713 -1.335519 0.134519
v 0.116686 -1.335851 0.134681
v 0.116567 -1.336211 0.134699
v 0.116370 -1.336446 0.134501
v 0.116192 -1.336526 0.134242
v 0.116057 -1.336514 0.133999
v 0.115940 -1.336481 0.133774
v 0.115822 -1.336397 0.133485
v 0.115705 -1.336247 0.133218
v 0.119468 -1.337772 0.132672
v 0.119708 -1.337834 0.132985
v 0.119321 -1.337765 0.132360
v 0.119112 -1.337582 0.131975
v 0.119994 -1.337776 0.133341
v 0.120264 -1.337444 0.133595
v 0.120421 -1.337051 0.133559
v 0.120490 -1.336622 0.133437
v 0.120452 -1.336214 0.133202
v 0.120346 -1.335871 0.132859
v 0.120128 -1.335686 0.132431
v 0.119817 -1.335780 0.132085
v 0.119554 -1.336038 0.131860
v 0.119319 -1.336350 0.131695
v 0.119198 -1.336723 0.131637
v 0.119097 -1.337200 0.131699
v 0.119778 -1.337855 0.132543
v 0.120008 -1.337925 0.132861
v 0.119632 -1.337840 0.132233
v 0.119444 -1.337697 0.131822
v 0.120327 -1.337901 0.133228
v 0.120571 -1.337573 0.133517
v 0.120687 -1.337182 0.133511
v 0.120784 -1.336756 0.133386
v 0.120804 -1.336326 0.133159
v 0.120494 -1.335705 0.132339
v 0.119829 -1.336061 0.131735
v 0.120698 -1.335927 0.132805
v 0.120131 -1.335780 0.131968
v 0.119563 -1.336401 0.131539
v 0.119444 -1.336789 0.131483
v 0.119363 -1.337273 0.131541
v 0.116088 -1.335769 0.134933
v 0.115935 -1.336091 0.134900
v 0.115740 -1.336289 0.134703
v 0.115575 -1.336346 0.134454
v 0.115440 -1.336358 0.134225
v 0.115302 -1.336357 0.133980
v 0.115171 -1.336270 0.133685
v 0.115131 -1.336075 0.133440
v 0.115228 -1.335671 0.133299
v 0.115360 -1.335324 0.133316
v 0.115552 -1.335059 0.133460
v 0.115743 -1.334943 0.133711
v 0.115899 -1.334926 0.133973
v 0.116031 -1.334965 0.134237
v 0.116146 -1.335073 0.134519
v 0.116175 -1.335322 0.134756
v 0.115231 -1.336028 0.134274
v 0.115117 -1.336004 0.134069
v 0.115026 -1.335966 0.133858
v 0.114999 -1.335858 0.133666
v 0.115060 -1.335631 0.133561
v 0.115173 -1.335326 0.133552
v 0.115352 -1.335107 0.133653
v 0.115454 -1.335023 0.133842
v 0.115573 -1.335022 0.134091
v 0.115684 -1.335036 0.134319
v 0.115741 -1.335130 0.134521
v 0.115764 -1.335314 0.134701
v 0.115674 -1.335630 0.134821
v 0.115558 -1.335847 0.134784
v 0.115461 -1.335958 0.134675
v 0.115337 -1.336006 0.134477
v 0.115749 -1.336486 0.134112
v 0.115892 -1.336493 0.134356
v 0.116068 -1.336447 0.134625
v 0.115619 -1.336468 0.133881
v 0.115498 -1.336403 0.133569
v 0.115383 -1.336200 0.133283
v 0.116264 -1.336186 0.134861
v 0.116408 -1.335804 0.134850
v 0.116472 -1.335399 0.134667
v 0.116426 -1.335152 0.134398
v 0.116303 -1.335044 0.134121
v 0.116170 -1.335008 0.133863
v 0.116019 -1.335022 0.133611
v 0.115834 -1.335113 0.133349
v 0.115645 -1.335373 0.133169
v 0.115505 -1.335721 0.133135
v 0.115278 -1.335292 0.133921
v 0.115399 -1.335301 0.134165
v 0.115515 -1.335298 0.134397
v 0.115171 -1.335565 0.133982
v 0.115287 -1.335562 0.134214
v 0.115408 -1.335563 0.134456
v 0.115136 -1.335804 0.134038
v 0.115220 -1.335782 0.134244
v 0.115344 -1.335787 0.134467
v 0.116400 -1.335947 0.133010
v 0.116490 -1.335630 0.133023
v 0.116633 -1.335415 0.133128
v 0.116785 -1.335330 0.133348
v 0.116901 -1.335340 0.133567
v 0.117009 -1.335403 0.133795
v 0.117086 -1.335527 0.134006
v 0.117136 -1.335716 0.134227
v 0.117125 -1.335981 0.134361
v 0.117019 -1.336273 0.134364
v 0.116887 -1.336499 0.134231
v 0.116727 -1.336606 0.134023
v 0.116589 -1.336593 0.133801
v 0.116477 -1.336552 0.133575
v 0.116393 -1.336441 0.133344
v 0.116337 -1.336251 0.133133
v 0.118357 -1.336511 0.132251
v 0.118482 -1.336221 0.132275
v 0.118644 -1.336017 0.132391
v 0.118819 -1.335876 0.132578
v 0.118990 -1.335818 0.132798
v 0.119138 -1.335876 0.133053
v 0.119243 -1.336067 0.133305
v 0.119276 -1.336316 0.133520
v 0.119241 -1.336604 0.133669
v 0.119107 -1.336908 0.133652
v 0.118914 -1.337142 0.133532
v 0.118724 -1.337259 0.133311
v 0.118550 -1.337270 0.133052
v 0.118414 -1.337234 0.132804
v 0.118295 -1.337081 0.132547
v 0.118262 -1.336842 0.132339
f 33 18 20
f 33 20 22
f 34 2 18
f 34 18 33
f 5 15 3
f 5 3 35
f 35 3 2
f 35 2 34
f 33 22 24
f 33 24 36
f 26 29 27
f 26 27 39
f 36 24 26
f 36 26 39
f 34 33 36
f 34 36 37
f 39 27 12
f 39 12 40
f 37 36 39
f 37 39 40
f 7 5 35
f 7 35 38
f 35 34 37
f 35 37 38
f 40 12 13
f 40 13 41
f 10 7 38
f 10 38 41
f 41 13 31
f 41 31 10
f 38 37 40
f 38 40 41
f 1 2 3
f 1 3 4
f 17 18 2
f 17 2 1
f 1 4 134
f 1 134 131
f 131 133 17
f 131 17 1
f 4 3 15
f 4 15 16
f 4 16 132
f 4 132 134
f 6 5 7
f 6 7 8
f 16 15 5
f 16 5 6
f 6 8 136
f 6 136 135
f 135 132 16
f 135 16 6
f 8 7 10
f 8 10 9
f 8 9 137
f 8 137 136
f 9 10 31
f 9 31 32
f 9 32 125
f 9 125 137
f 14 13 12
f 14 12 11
f 11 12 27
f 11 27 28
f 122 124 14
f 122 14 11
f 11 28 123
f 11 123 122
f 32 31 13
f 32 13 14
f 124 125 32
f 124 32 14
f 19 20 18
f 19 18 17
f 133 130 19
f 133 19 17
f 21 22 20
f 21 20 19
f 130 129 21
f 130 21 19
f 23 24 22
f 23 22 21
f 129 128 23
f 129 23 21
f 25 26 24
f 25 24 23
f 128 127 25
f 128 25 23
f 30 29 26
f 30 26 25
f 127 126 30
f 127 30 25
f 28 27 29
f 28 29 30
f 28 30 126
f 28 126 123
f 122 123 107
f 122 107 106
f 106 108 124
f 106 124 122
f 123 126 110
f 123 110 107
f 108 109 125
f 108 125 124
f 109 121 137
f 109 137 125
f 126 127 111
f 126 111 110
f 127 128 112
f 127 112 111
f 128 129 113
f 128 113 112
f 129 130 114
f 129 114 113
f 130 133 115
f 130 115 114
f 133 131 116
f 133 116 115
f 131 134 117
f 131 117 116
f 134 132 118
f 134 118 117
f 132 135 119
f 132 119 118
f 135 136 120
f 135 120 119
f 136 137 121
f 136 121 120
f 171 141 142
f 171 142 170
f 172 140 141
f 172 141 171
f 170 142 143
f 170 143 173
f 173 143 144
f 173 144 174
f 174 144 145
f 174 145 175
f 176 139 140
f 176 140 172
f 138 139 176
f 138 176 177
f 153 138 177
f 153 177 178
f 179 152 153
f 179 153 178
f 151 152 179
f 151 179 180
f 150 151 180
f 150 180 181
f 149 150 181
f 149 181 182
f 148 149 182
f 148 182 183
f 147 148 183
f 147 183 184
f 185 175 145
f 185 145 146
f 146 147 184
f 146 184 185
f 160 148 147
f 160 147 159
f 149 148 160
f 149 160 161
f 150 149 161
f 150 161 162
f 164 152 151
f 164 151 163
f 151 150 162
f 151 162 163
f 153 152 164
f 153 164 165
f 159 147 146
f 159 146 158
f 186 161 160
f 186 160 159
f 187 162 161
f 187 161 186
f 165 164 163
f 165 163 188
f 188 163 162
f 188 162 187
f 138 153 165
f 138 165 166
f 145 144 156
f 145 156 157
f 158 146 145
f 158 145 157
f 156 144 143
f 156 143 155
f 189 158 157
f 189 157 192
f 186 159 158
f 186 158 189
f 157 156 155
f 157 155 192
f 155 143 142
f 155 142 154
f 187 186 189
f 187 189 190
f 192 155 154
f 192 154 193
f 190 189 192
f 190 192 193
f 166 165 188
f 166 188 191
f 141 140 168
f 141 168 169
f 154 142 141
f 154 141 169
f 188 187 190
f 188 190 191
f 168 140 139
f 168 139 167
f 193 154 169
f 193 169 194
f 139 138 166
f 139 166 167
f 167 166 191
f 167 191 194
f 194 169 168
f 194 168 167
f 191 190 193
f 191 193 194
f 196 75 74
f 196 74 195
f 91 90 185
f 91 185 184
f 196 195 90
f 196 90 91
f 197 76 75
f 197 75 196
f 92 91 184
f 92 184 183
f 197 196 91
f 197 91 92
f 198 77 76
f 198 76 197
f 93 92 183
f 93 183 182
f 198 197 92
f 198 92 93
f 199 78 77
f 199 77 198
f 94 93 182
f 94 182 181
f 199 198 93
f 199 93 94
f 200 79 78
f 200 78 199
f 95 94 181
f 95 181 180
f 200 199 94
f 200 94 95
f 201 80 79
f 201 79 200
f 96 95 180
f 96 180 179
f 201 200 95
f 201 95 96
f 202 81 80
f 202 80 201
f 97 96 179
f 97 179 178
f 202 201 96
f 202 96 97
f 203 82 81
f 203 81 202
f 98 97 178
f 98 178 177
f 203 202 97
f 203 97 98
f 204 83 82
f 204 82 203
f 99 98 177
f 99 177 176
f 204 203 98
f 204 98 99
f 205 84 83
f 205 83 204
f 100 99 176
f 100 176 172
f 205 204 99
f 205 99 100
f 206 85 84
f 206 84 205
f 101 100 172
f 101 172 171
f 206 205 100
f 206 100 101
f 207 86 85
f 207 85 206
f 102 101 171
f 102 171 170
f 207 206 101
f 207 101 102
f 208 87 86
f 208 86 207
f 103 102 170
f 103 170 173
f 208 207 102
f 208 102 103
f 209 88 87
f 209 87 208
f 104 103 173
f 104 173 174
f 209 208 103
f 209 103 104
f 105 90 195
f 105 195 210
f 195 74 89
f 195 89 210
f 105 104 174
f 105 174 175
f 210 209 104
f 210 104 105
f 175 185 90
f 175 90 105
f 210 89 88
f 210 88 209
f 211 212 43
f 211 43 42
f 42 43 119
f 42 119 120
f 42 57 226
f 42 226 211
f 120 121 57
f 120 57 42
f 212 213 44
f 212 44 43
f 43 44 118
f 43 118 119
f 213 214 45
f 213 45 44
f 44 45 117
f 44 117 118
f 214 215 46
f 214 46 45
f 45 46 116
f 45 116 117
f 215 216 47
f 215 47 46
f 46 47 115
f 46 115 116
f 216 217 48
f 216 48 47
f 47 48 114
f 47 114 115
f 217 218 49
f 217 49 48
f 48 49 113
f 48 113 114
f 218 219 50
f 218 50 49
f 49 50 112
f 49 112 113
f 219 220 51
f 219 51 50
f 50 51 111
f 50 111 112
f 220 221 52
f 220 52 51
f 51 52 110
f 51 110 111
f 221 222 53
f 221 53 52
f 52 53 107
f 52 107 110
f 222 223 54
f 222 54 53
f 53 54 106
f 53 106 107
f 223 224 55
f 223 55 54
f 54 55 108
f 54 108 106
f 224 225 56
f 224 56 55
f 55 56 109
f 55 109 108
f 225 226 57
f 225 57 56
f 56 57 121
f 56 121 109
f 74 75 59
f 74 59 58
f 58 59 212
f 58 212 211
f 58 73 89
f 58 89 74
f 211 226 73
f 211 73 58
f 75 76 60
f 75 60 59
f 59 60 213
f 59 213 212
f 76 77 61
f 76 61 60
f 60 61 214
f 60 214 213
f 77 78 62
f 77 62 61
f 61 62 215
f 61 215 214
f 78 79 63
f 78 63 62
f 62 63 216
f 62 216 215
f 79 80 64
f 79 64 63
f 63 64 217
f 63 217 216
f 80 81 65
f 80 65 64
f 64 65 218
f 64 218 217
f 81 82 66
f 81 66 65
f 65 66 219
f 65 219 218
f 82 83 67
f 82 67 66
f 66 67 220
f 66 220 219
f 83 84 68
f 83 68 67
f 67 68 221
f 67 221 220
f 84 85 69
f 84 69 68
f 68 69 222
f 68 222 221
f 85 86 70
f 85 70 69
f 69 70 223
f 69 223 222
f 86 87 71
f 86 71 70
f 70 71 224
f 70 224 223
f 87 88 72
f 87 72 71
f 71 72 225
f 71 225 224
f 88 89 73
f 88 73 72
f 72 73 226
f 72 226 225
