# _3rd_Distal_Phalanx_Foot_R posed
v 0.914476 0.186761 0.293559
v 0.914725 0.186006 0.294594
v 0.915104 0.185781 0.295421
v 0.915763 0.186184 0.296387
v 0.916074 0.186983 0.296668
v 0.916361 0.187840 0.296303
v 0.916566 0.188890 0.295520
v 0.916350 0.189705 0.294526
v 0.915857 0.190115 0.293352
v 0.915314 0.189729 0.292673
v 0.914685 0.188817 0.292482
v 0.914528 0.187688 0.292893
v 0.916916 0.185632 0.296159
v 0.916249 0.185160 0.295228
v 0.915801 0.185336 0.294095
v 0.915592 0.185923 0.293032
v 0.915616 0.186852 0.292244
v 0.915911 0.188078 0.291754
v 0.916576 0.189284 0.291987
v 0.917215 0.189640 0.292908
v 0.917612 0.189239 0.294160
v 0.917890 0.188598 0.295271
v 0.917923 0.187752 0.296123
v 0.917556 0.186636 0.296487
v 0.917996 0.185624 0.294900
v 0.917539 0.185358 0.294208
v 0.917168 0.185336 0.293425
v 0.916860 0.185585 0.292491
v 0.917002 0.186425 0.291901
v 0.917386 0.187303 0.291797
v 0.917843 0.188101 0.291968
v 0.918236 0.188436 0.292627
v 0.918598 0.188372 0.293472
v 0.918838 0.187861 0.294426
v 0.918824 0.186913 0.295222
v 0.918493 0.186123 0.295307
v 0.919311 0.184951 0.293353
v 0.919013 0.184747 0.292916
v 0.918714 0.184572 0.292370
v 0.918435 0.184742 0.291670
v 0.918540 0.185454 0.291284
v 0.918863 0.186122 0.291285
v 0.919412 0.186793 0.291631
v 0.919805 0.187128 0.292070
v 0.919986 0.187109 0.292592
v 0.920076 0.186610 0.293295
v 0.919945 0.185806 0.293781
v 0.919668 0.185249 0.293765
v 0.920395 0.184065 0.292615
v 0.920024 0.183841 0.292090
v 0.919771 0.183887 0.291679
v 0.919579 0.184096 0.291206
v 0.919509 0.184560 0.290641
v 0.919787 0.185228 0.290585
v 0.920453 0.186079 0.290714
v 0.920968 0.186317 0.291311
v 0.921357 0.186236 0.291965
v 0.921410 0.185716 0.292611
v 0.921142 0.184813 0.293050
v 0.920710 0.184394 0.293075
v 0.920809 0.184062 0.292393
v 0.920472 0.183823 0.291827
v 0.920242 0.183918 0.291359
v 0.920120 0.184121 0.290987
v 0.920101 0.184393 0.290653
v 0.920335 0.184964 0.290494
v 0.920773 0.185699 0.290666
v 0.921233 0.185932 0.291215
v 0.921586 0.185763 0.291998
v 0.921554 0.185339 0.292489
v 0.921460 0.184667 0.292723
v 0.921093 0.184365 0.292860
v 0.921358 0.184584 0.292139
v 0.921155 0.184559 0.291477
v 0.920675 0.184405 0.290956
v 0.915377 0.187170 0.293900
v 0.915337 0.187869 0.293364
v 0.915285 0.188499 0.293110
v 0.915613 0.189099 0.293192
v 0.915979 0.189323 0.293610
v 0.916210 0.188991 0.294172
v 0.916353 0.188301 0.294914
v 0.916201 0.187589 0.295551
v 0.915834 0.187119 0.295976
v 0.915632 0.186628 0.295766
v 0.915425 0.186435 0.295327
v 0.915411 0.186615 0.294556
v 0.915821 0.188402 0.293732
v 0.915967 0.187719 0.294406
v 0.915894 0.187126 0.295051
f 38 37 25
f 38 25 26
f 39 38 26
f 39 26 27
f 40 39 27
f 40 27 28
f 41 40 28
f 41 28 29
f 42 41 29
f 42 29 30
f 43 42 30
f 43 30 31
f 44 43 31
f 44 31 32
f 45 44 32
f 45 32 33
f 46 45 33
f 46 33 34
f 47 46 34
f 47 34 35
f 48 47 35
f 48 35 36
f 36 25 37
f 36 37 48
f 50 49 37
f 50 37 38
f 51 50 38
f 51 38 39
f 52 51 39
f 52 39 40
f 53 52 40
f 53 40 41
f 54 53 41
f 54 41 42
f 55 54 42
f 55 42 43
f 56 55 43
f 56 43 44
f 57 56 44
f 57 44 45
f 58 57 45
f 58 45 46
f 59 58 46
f 59 46 47
f 60 59 47
f 60 47 48
f 48 37 49
f 48 49 60
f 28 27 15
f 28 15 16
f 29 28 16
f 29 16 17
f 30 29 17
f 30 17 18
f 14 15 27
f 14 27 26
f 13 14 26
f 13 26 25
f 24 13 25
f 24 25 36
f 23 24 36
f 23 36 35
f 22 23 35
f 22 35 34
f 21 22 34
f 21 34 33
f 20 21 33
f 20 33 32
f 31 30 18
f 31 18 19
f 19 20 32
f 19 32 31
f 59 60 72
f 59 72 71
f 71 70 58
f 71 58 59
f 69 70 71
f 69 71 73
f 57 58 70
f 57 70 69
f 49 50 62
f 49 62 61
f 73 71 72
f 73 72 61
f 61 72 60
f 61 60 49
f 56 57 69
f 56 69 68
f 74 73 61
f 74 61 62
f 68 69 73
f 68 73 74
f 63 62 50
f 63 50 51
f 55 56 68
f 55 68 67
f 54 55 67
f 54 67 66
f 64 63 51
f 64 51 52
f 53 54 66
f 53 66 65
f 67 68 74
f 67 74 75
f 75 63 64
f 75 64 65
f 65 64 52
f 65 52 53
f 65 66 67
f 65 67 75
f 75 74 62
f 75 62 63
f 12 17 16
f 12 16 1
f 18 17 12
f 18 12 11
f 19 18 11
f 19 11 10
f 20 19 10
f 20 10 9
f 21 20 9
f 21 9 8
f 22 21 8
f 22 8 7
f 23 22 7
f 23 7 6
f 24 23 6
f 24 6 5
f 13 24 5
f 13 5 4
f 14 13 4
f 14 4 3
f 15 14 3
f 15 3 2
f 1 16 15
f 1 15 2
f 10 11 78
f 10 78 79
f 80 9 10
f 80 10 79
f 8 9 80
f 8 80 81
f 78 11 12
f 78 12 77
f 81 80 79
f 81 79 88
f 79 78 77
f 79 77 88
f 76 77 12
f 76 12 1
f 7 8 81
f 7 81 82
f 88 77 76
f 88 76 89
f 82 81 88
f 82 88 89
f 84 5 6
f 84 6 83
f 2 3 86
f 2 86 87
f 6 7 82
f 6 82 83
f 76 1 2
f 76 2 87
f 86 3 4
f 86 4 85
f 89 76 87
f 89 87 90
f 85 84 83
f 85 83 90
f 4 5 84
f 4 84 85
f 90 87 86
f 90 86 85
f 83 82 89
f 83 89 90
