# _3rd_Metatarsal_R posed
v 0.869968 0.208622 0.295212
v 0.867895 0.210038 0.296696
v 0.869380 0.209467 0.297732
v 0.867815 0.212574 0.295631
v 0.870184 0.211787 0.293915
v 0.871436 0.207892 0.296070
v 0.877323 0.207755 0.294649
v 0.881172 0.209652 0.298511
v 0.884108 0.207925 0.296596
v 0.867779 0.215232 0.295350
v 0.870483 0.214615 0.293298
v 0.870270 0.218335 0.294202
v 0.867981 0.219432 0.296755
v 0.871926 0.221396 0.295709
v 0.869337 0.222094 0.298639
v 0.874886 0.222915 0.297265
v 0.871945 0.222927 0.299861
v 0.875818 0.222937 0.300666
v 0.877797 0.222957 0.298299
v 0.880682 0.222176 0.299511
v 0.878832 0.222307 0.301540
v 0.880798 0.222081 0.302860
v 0.883046 0.221179 0.300878
v 0.884291 0.218915 0.302396
v 0.881935 0.220281 0.304178
v 0.881348 0.217661 0.304374
v 0.883391 0.216308 0.303366
v 0.877021 0.215326 0.302922
v 0.879850 0.213000 0.301786
v 0.875765 0.213240 0.301034
v 0.878369 0.211510 0.299832
v 0.871820 0.210440 0.298561
v 0.874613 0.208508 0.297257
v 0.879309 0.216152 0.303766
v 0.881824 0.214238 0.302874
v 0.882352 0.211407 0.299628
v 0.885366 0.209552 0.297434
v 0.883882 0.212958 0.300493
v 0.886647 0.211496 0.297908
v 0.889175 0.213158 0.297927
v 0.885628 0.214834 0.300809
v 0.886721 0.217086 0.299965
v 0.890051 0.214875 0.297172
v 0.885862 0.219115 0.298528
v 0.889283 0.216417 0.295800
v 0.883732 0.219787 0.297075
v 0.881555 0.219788 0.295893
v 0.879081 0.219750 0.294519
v 0.876302 0.218747 0.293034
v 0.875502 0.216017 0.291807
v 0.875643 0.213192 0.291586
v 0.875298 0.210585 0.292343
v 0.876023 0.208215 0.293637
v 0.886840 0.216834 0.294129
v 0.885674 0.216768 0.293023
v 0.884460 0.216465 0.291761
v 0.882435 0.213047 0.290083
v 0.881699 0.210540 0.290025
v 0.881491 0.209080 0.290661
v 0.881589 0.207572 0.292270
v 0.883248 0.215273 0.290801
v 0.882325 0.207189 0.293273
v 0.879341 0.208030 0.296245
v 0.883358 0.207182 0.294936
v 0.890273 0.207706 0.294262
v 0.889347 0.206473 0.293692
v 0.888458 0.205834 0.292607
v 0.887842 0.205866 0.291267
v 0.887335 0.206242 0.290128
v 0.887553 0.207144 0.288939
v 0.888155 0.208573 0.288123
v 0.888862 0.210489 0.287880
v 0.889505 0.212181 0.288262
v 0.890146 0.213523 0.289017
v 0.890521 0.214377 0.290421
v 0.891925 0.214262 0.291409
v 0.893707 0.213739 0.292775
v 0.894325 0.212374 0.294034
v 0.893730 0.210984 0.294653
v 0.892147 0.209392 0.294863
v 0.897461 0.204672 0.290003
v 0.896646 0.203662 0.289500
v 0.896009 0.203341 0.288761
v 0.895445 0.203434 0.287868
v 0.895025 0.203875 0.286964
v 0.894950 0.204900 0.286180
v 0.895172 0.206125 0.285549
v 0.895673 0.207568 0.285257
v 0.896365 0.209016 0.285392
v 0.897088 0.210012 0.285966
v 0.897922 0.210827 0.286823
v 0.898971 0.210887 0.288022
v 0.899820 0.210255 0.289249
v 0.900054 0.209082 0.290158
v 0.899617 0.207761 0.290551
v 0.898721 0.206155 0.290612
v 0.905053 0.201781 0.286124
v 0.904360 0.200954 0.285598
v 0.903714 0.200608 0.284860
v 0.903141 0.200449 0.284114
v 0.902737 0.200865 0.283230
v 0.902656 0.201889 0.282395
v 0.902952 0.203130 0.281977
v 0.903439 0.204918 0.281559
v 0.904254 0.206411 0.281997
v 0.904889 0.207214 0.282519
v 0.905588 0.207786 0.283267
v 0.906135 0.207609 0.284160
v 0.906629 0.206942 0.285272
v 0.906692 0.205800 0.286025
v 0.906467 0.204586 0.286482
v 0.905885 0.203174 0.286496
v 0.913166 0.199666 0.282714
v 0.912410 0.198625 0.282025
v 0.911610 0.197811 0.281167
v 0.911038 0.197661 0.280391
v 0.910592 0.198123 0.279355
v 0.910544 0.199227 0.278532
v 0.910879 0.200709 0.278160
v 0.911542 0.202830 0.278193
v 0.912162 0.203828 0.278735
v 0.912733 0.204605 0.279268
v 0.913362 0.205082 0.279972
v 0.913916 0.204744 0.281038
v 0.914233 0.204213 0.281833
v 0.914333 0.203030 0.282606
v 0.914181 0.202098 0.282908
v 0.913753 0.200754 0.282914
v 0.920844 0.197195 0.279259
v 0.920110 0.195741 0.278631
v 0.919464 0.195214 0.277748
v 0.918814 0.194939 0.276750
v 0.918597 0.195762 0.275634
v 0.918604 0.196818 0.274844
v 0.918934 0.198166 0.274535
v 0.919167 0.199879 0.274732
v 0.919816 0.201302 0.275431
v 0.920551 0.202301 0.276309
v 0.921289 0.202476 0.276856
v 0.921844 0.202355 0.277711
v 0.922160 0.201738 0.278621
v 0.922174 0.200911 0.279236
v 0.921903 0.199683 0.279603
v 0.921533 0.198647 0.279671
v 0.928710 0.194403 0.275697
v 0.928121 0.193183 0.275121
v 0.927500 0.192027 0.274227
v 0.926276 0.191907 0.272870
v 0.925942 0.192636 0.271975
v 0.925984 0.193408 0.271325
v 0.926416 0.194287 0.270592
v 0.926044 0.196676 0.271402
v 0.926700 0.197978 0.271957
v 0.927600 0.200261 0.273390
v 0.928955 0.200736 0.273477
v 0.929089 0.201236 0.274593
v 0.928948 0.200781 0.275599
v 0.928644 0.200131 0.276710
v 0.928627 0.198506 0.277200
v 0.929003 0.196061 0.276349
v 0.933239 0.200618 0.275281
v 0.932733 0.201618 0.274813
v 0.933512 0.199328 0.276043
v 0.932295 0.202146 0.274260
v 0.938162 0.194956 0.272533
v 0.937610 0.192329 0.271108
v 0.930966 0.196963 0.276994
v 0.932378 0.197590 0.276741
v 0.936192 0.194371 0.273531
v 0.936059 0.192496 0.272582
v 0.930786 0.195471 0.276331
v 0.930384 0.193848 0.275455
v 0.929854 0.192523 0.274803
v 0.929831 0.191778 0.273958
v 0.933198 0.190507 0.272034
v 0.932968 0.190314 0.270857
v 0.930370 0.190549 0.271971
v 0.931080 0.190841 0.272898
v 0.934212 0.196948 0.275398
v 0.935717 0.198178 0.274696
v 0.932788 0.193564 0.273783
v 0.932849 0.195380 0.274883
v 0.931908 0.192060 0.273326
v 0.934782 0.191193 0.272120
v 0.935827 0.190881 0.270549
v 0.929675 0.190913 0.271150
v 0.929307 0.191486 0.270211
v 0.927822 0.194758 0.269571
v 0.931982 0.202215 0.273270
v 0.934993 0.200407 0.271641
v 0.935466 0.200233 0.272321
v 0.930105 0.200301 0.272377
v 0.928771 0.199660 0.272195
v 0.927978 0.197774 0.271077
v 0.927249 0.196318 0.270423
v 0.931803 0.201065 0.271745
v 0.933935 0.199512 0.270175
v 0.938097 0.196942 0.269799
v 0.937106 0.197389 0.269334
v 0.934846 0.197810 0.268772
v 0.937722 0.193766 0.268115
v 0.935523 0.192253 0.267764
v 0.931821 0.191742 0.268409
v 0.936105 0.199596 0.273041
v 0.938855 0.196414 0.270431
v 0.938194 0.193180 0.268817
v 0.936003 0.191338 0.268422
v 0.932051 0.190962 0.269063
v 0.932518 0.190540 0.269824
v 0.936113 0.190962 0.269177
v 0.938226 0.192653 0.269721
v 0.938851 0.195762 0.271237
v 0.936270 0.198949 0.273631
v 0.936877 0.194518 0.267858
v 0.934921 0.193078 0.267495
v 0.931999 0.198317 0.270605
v 0.931409 0.196608 0.269852
v 0.934360 0.196338 0.268038
v 0.930583 0.195588 0.269081
v 0.933177 0.194846 0.267946
v 0.931814 0.193332 0.267774
v 0.929694 0.193371 0.268308
v 0.931969 0.192414 0.267882
v 0.929249 0.192778 0.268825
v 0.929214 0.192011 0.269495
v 0.874115 0.217811 0.300473
v 0.872820 0.216593 0.298899
v 0.876369 0.218744 0.301792
v 0.878946 0.218845 0.302654
v 0.870287 0.214680 0.297395
v 0.869105 0.218110 0.297585
v 0.870417 0.219994 0.299048
v 0.872272 0.220740 0.300441
v 0.875620 0.220855 0.301391
v 0.878703 0.220524 0.302359
v 0.880091 0.220758 0.303118
v 0.880925 0.219544 0.303815
v 0.880616 0.218097 0.303871
v 0.879121 0.217314 0.303289
v 0.876647 0.216790 0.302491
v 0.874838 0.215211 0.301015
v 0.872443 0.213009 0.299030
v 0.870266 0.212056 0.298034
v 0.868147 0.211721 0.296901
v 0.868065 0.213530 0.296532
v 0.868058 0.215908 0.296437
f 38 35 29
f 38 29 36
f 41 27 35
f 41 35 38
f 42 24 27
f 42 27 41
f 23 24 42
f 23 42 44
f 20 23 44
f 20 44 46
f 19 20 46
f 19 46 47
f 16 19 47
f 16 47 48
f 11 12 50
f 11 50 51
f 5 11 51
f 5 51 52
f 14 16 48
f 14 48 49
f 50 12 14
f 50 14 49
f 1 5 52
f 1 52 53
f 36 29 31
f 36 31 8
f 7 6 1
f 7 1 53
f 8 31 33
f 8 33 63
f 63 33 6
f 63 6 7
f 64 63 7
f 64 7 62
f 98 97 81
f 98 81 82
f 99 98 82
f 99 82 83
f 100 99 83
f 100 83 84
f 101 100 84
f 101 84 85
f 102 101 85
f 102 85 86
f 103 102 86
f 103 86 87
f 104 103 87
f 104 87 88
f 105 104 88
f 105 88 89
f 106 105 89
f 106 89 90
f 107 106 90
f 107 90 91
f 108 107 91
f 108 91 92
f 109 108 92
f 109 92 93
f 110 109 93
f 110 93 94
f 111 110 94
f 111 94 95
f 112 111 95
f 112 95 96
f 96 81 97
f 96 97 112
f 114 113 97
f 114 97 98
f 115 114 98
f 115 98 99
f 116 115 99
f 116 99 100
f 117 116 100
f 117 100 101
f 118 117 101
f 118 101 102
f 119 118 102
f 119 102 103
f 120 119 103
f 120 103 104
f 121 120 104
f 121 104 105
f 122 121 105
f 122 105 106
f 123 122 106
f 123 106 107
f 124 123 107
f 124 107 108
f 125 124 108
f 125 108 109
f 126 125 109
f 126 109 110
f 127 126 110
f 127 110 111
f 128 127 111
f 128 111 112
f 112 97 113
f 112 113 128
f 130 129 113
f 130 113 114
f 131 130 114
f 131 114 115
f 132 131 115
f 132 115 116
f 133 132 116
f 133 116 117
f 134 133 117
f 134 117 118
f 135 134 118
f 135 118 119
f 136 135 119
f 136 119 120
f 137 136 120
f 137 120 121
f 138 137 121
f 138 121 122
f 139 138 122
f 139 122 123
f 140 139 123
f 140 123 124
f 141 140 124
f 141 124 125
f 142 141 125
f 142 125 126
f 143 142 126
f 143 126 127
f 144 143 127
f 144 127 128
f 128 113 129
f 128 129 144
f 62 7 53
f 62 53 60
f 69 68 62
f 69 62 60
f 85 84 68
f 85 68 69
f 64 62 68
f 64 68 67
f 67 68 84
f 67 84 83
f 9 8 63
f 9 63 64
f 9 64 67
f 9 67 66
f 66 67 83
f 66 83 82
f 36 8 9
f 36 9 37
f 37 9 66
f 37 66 65
f 65 66 82
f 65 82 81
f 39 38 36
f 39 36 37
f 39 37 65
f 39 65 80
f 80 65 81
f 80 81 96
f 41 38 39
f 41 39 40
f 40 39 80
f 40 80 79
f 79 80 96
f 79 96 95
f 43 42 41
f 43 41 40
f 43 40 79
f 43 79 78
f 78 79 95
f 78 95 94
f 44 42 43
f 44 43 45
f 45 43 78
f 45 78 77
f 77 78 94
f 77 94 93
f 46 44 45
f 46 45 54
f 54 45 77
f 54 77 76
f 76 77 93
f 76 93 92
f 47 46 54
f 47 54 55
f 55 54 76
f 55 76 75
f 75 76 92
f 75 92 91
f 48 47 55
f 48 55 56
f 56 55 75
f 56 75 74
f 74 75 91
f 74 91 90
f 49 48 56
f 49 56 61
f 61 56 74
f 61 74 73
f 73 74 90
f 73 90 89
f 57 50 49
f 57 49 61
f 57 61 73
f 57 73 72
f 72 73 89
f 72 89 88
f 51 50 57
f 51 57 58
f 58 57 72
f 58 72 71
f 71 72 88
f 71 88 87
f 52 51 58
f 52 58 59
f 59 58 71
f 59 71 70
f 60 53 52
f 60 52 59
f 70 69 60
f 70 60 59
f 86 85 69
f 86 69 70
f 70 71 87
f 70 87 86
f 158 157 141
f 158 141 142
f 140 141 157
f 140 157 156
f 159 158 142
f 159 142 143
f 160 159 143
f 160 143 144
f 145 160 144
f 145 144 129
f 146 145 129
f 146 129 130
f 147 146 130
f 147 130 131
f 171 167 159
f 171 159 160
f 171 160 145
f 171 145 172
f 173 172 145
f 173 145 146
f 173 146 147
f 173 147 174
f 163 159 167
f 163 167 168
f 169 179 168
f 169 168 182
f 168 167 171
f 168 171 182
f 182 171 172
f 182 172 181
f 181 172 173
f 181 173 183
f 183 173 174
f 183 174 178
f 170 169 182
f 170 182 181
f 184 170 181
f 184 181 183
f 184 183 178
f 184 178 175
f 178 174 147
f 178 147 177
f 148 147 131
f 148 131 132
f 149 148 132
f 149 132 133
f 139 140 156
f 139 156 155
f 138 139 155
f 138 155 154
f 137 138 154
f 137 154 153
f 136 137 153
f 136 153 152
f 189 155 156
f 189 156 164
f 164 156 157
f 164 157 162
f 186 177 147
f 186 147 148
f 162 157 158
f 162 158 161
f 161 158 159
f 161 159 163
f 190 189 164
f 190 164 191
f 191 164 162
f 191 162 204
f 213 161 163
f 213 163 180
f 180 163 168
f 180 168 179
f 204 162 161
f 204 161 213
f 198 191 204
f 198 204 205
f 180 179 169
f 180 169 165
f 212 213 180
f 212 180 165
f 205 204 213
f 205 213 212
f 166 165 169
f 166 169 170
f 211 212 165
f 211 165 166
f 206 205 212
f 206 212 211
f 185 166 170
f 185 170 184
f 210 211 166
f 210 166 185
f 207 206 211
f 207 211 210
f 176 175 178
f 176 178 177
f 185 184 175
f 185 175 176
f 209 210 185
f 209 185 176
f 176 177 186
f 176 186 209
f 208 207 210
f 208 210 209
f 190 191 198
f 190 198 199
f 201 198 205
f 201 205 206
f 202 201 206
f 202 206 207
f 196 189 190
f 196 190 197
f 193 154 155
f 193 155 192
f 192 155 189
f 192 189 196
f 153 154 193
f 153 193 194
f 216 193 192
f 216 192 196
f 200 197 190
f 200 190 199
f 216 196 197
f 216 197 200
f 152 153 194
f 152 194 195
f 217 194 193
f 217 193 216
f 214 199 198
f 214 198 201
f 218 200 199
f 218 199 214
f 218 217 216
f 218 216 200
f 219 195 194
f 219 194 217
f 219 217 218
f 219 218 220
f 220 218 214
f 220 214 215
f 215 214 201
f 215 201 202
f 223 221 220
f 223 220 215
f 222 219 220
f 222 220 221
f 188 195 219
f 188 219 222
f 203 202 207
f 203 207 208
f 208 209 186
f 208 186 187
f 187 186 148
f 187 148 149
f 223 215 202
f 223 202 203
f 151 150 134
f 151 134 135
f 135 136 152
f 135 152 151
f 151 152 195
f 151 195 188
f 151 188 222
f 151 222 224
f 222 221 223
f 222 223 224
f 150 149 133
f 150 133 134
f 225 187 149
f 225 149 150
f 150 151 224
f 150 224 225
f 203 208 187
f 203 187 225
f 224 223 203
f 224 203 225
f 14 12 13
f 14 13 15
f 16 14 15
f 16 15 17
f 233 17 15
f 233 15 232
f 19 16 17
f 19 17 18
f 234 18 17
f 234 17 233
f 20 19 18
f 20 18 21
f 235 21 18
f 235 18 234
f 23 20 21
f 23 21 22
f 22 21 235
f 22 235 236
f 24 23 22
f 24 22 25
f 237 25 22
f 237 22 236
f 27 24 25
f 27 25 26
f 26 25 237
f 26 237 238
f 237 236 235
f 237 235 229
f 35 27 26
f 35 26 34
f 238 237 229
f 238 229 239
f 34 26 238
f 34 238 239
f 28 29 35
f 28 35 34
f 228 229 235
f 228 235 234
f 239 229 228
f 239 228 240
f 28 34 239
f 28 239 240
f 226 228 234
f 226 234 233
f 31 29 28
f 31 28 30
f 241 240 228
f 241 228 226
f 241 30 28
f 241 28 240
f 33 31 30
f 33 30 32
f 227 226 233
f 227 233 232
f 241 226 227
f 241 227 242
f 32 30 241
f 32 241 242
f 3 6 33
f 3 33 32
f 3 32 242
f 3 242 243
f 1 6 3
f 1 3 2
f 2 3 243
f 2 243 244
f 5 1 2
f 5 2 4
f 243 242 227
f 243 227 230
f 245 4 2
f 245 2 244
f 245 244 243
f 245 243 230
f 11 5 4
f 11 4 10
f 13 12 11
f 13 11 10
f 231 230 227
f 231 227 232
f 10 4 245
f 10 245 246
f 231 13 10
f 231 10 246
f 232 15 13
f 232 13 231
f 246 245 230
f 246 230 231
