# _3rd_Metatarsal_R rest
v -0.123880 -1.317866 0.093522
v -0.123560 -1.317887 0.090624
v -0.122362 -1.319012 0.091574
v -0.125922 -1.318878 0.089618
v -0.126797 -1.319335 0.092481
v -0.122732 -1.318812 0.094622
v -0.123695 -1.322208 0.099545
v -0.121644 -1.327604 0.099657
v -0.122113 -1.327818 0.103531
v -0.127725 -1.320299 0.088248
v -0.128965 -1.320948 0.091401
v -0.130446 -1.323368 0.088822
v -0.129079 -1.323499 0.085494
v -0.131018 -1.326945 0.087701
v -0.129117 -1.326792 0.084218
v -0.130616 -1.330539 0.088349
v -0.128582 -1.329597 0.085130
v -0.127874 -1.332620 0.087581
v -0.129758 -1.333009 0.089993
v -0.128271 -1.335053 0.091996
v -0.126746 -1.334700 0.089737
v -0.125516 -1.336479 0.090725
v -0.126538 -1.336674 0.093677
v -0.123954 -1.336839 0.095183
v -0.123368 -1.336758 0.091982
v -0.121667 -1.334893 0.092916
v -0.121642 -1.335088 0.095560
v -0.121526 -1.329917 0.091688
v -0.121014 -1.330030 0.095486
v -0.121831 -1.327030 0.092721
v -0.121729 -1.327311 0.096057
v -0.122230 -1.321620 0.092452
v -0.122087 -1.321869 0.096078
v -0.121297 -1.332340 0.092530
v -0.120838 -1.332580 0.095773
v -0.121765 -1.329921 0.099075
v -0.122381 -1.329996 0.103192
v -0.121961 -1.332254 0.098963
v -0.123130 -1.332224 0.102849
v -0.124057 -1.334960 0.103752
v -0.122789 -1.334698 0.099059
v -0.124785 -1.336426 0.098964
v -0.125667 -1.336260 0.103757
v -0.127159 -1.336424 0.097832
v -0.127699 -1.336062 0.102931
v -0.128764 -1.334738 0.096535
v -0.129753 -1.332738 0.095459
v -0.130879 -1.330428 0.094272
v -0.131528 -1.327295 0.093441
v -0.130911 -1.324620 0.094880
v -0.129413 -1.322964 0.096628
v -0.127264 -1.321508 0.097495
v -0.124805 -1.321156 0.098778
v -0.129333 -1.333917 0.101640
v -0.130205 -1.332609 0.101299
v -0.131062 -1.331062 0.101119
v -0.130422 -1.326948 0.102242
v -0.128995 -1.324940 0.103114
v -0.127620 -1.324202 0.103500
v -0.125429 -1.324056 0.103724
v -0.131148 -1.329121 0.101303
v -0.124382 -1.324760 0.104044
v -0.122539 -1.324435 0.100179
v -0.123021 -1.326167 0.104095
v -0.123757 -1.330977 0.109083
v -0.123501 -1.329372 0.109331
v -0.124011 -1.327926 0.109497
v -0.125119 -1.326958 0.109597
v -0.126268 -1.326352 0.109503
v -0.127756 -1.326536 0.109664
v -0.129251 -1.327452 0.109656
v -0.130570 -1.328967 0.109214
v -0.131254 -1.330567 0.108587
v -0.131430 -1.332116 0.107994
v -0.130800 -1.333467 0.107206
v -0.129912 -1.334783 0.107867
v -0.128473 -1.336280 0.108868
v -0.126639 -1.336431 0.109536
v -0.125327 -1.335460 0.109611
v -0.124241 -1.333517 0.109255
v -0.125266 -1.332382 0.117728
v -0.125086 -1.331013 0.117907
v -0.125502 -1.330074 0.117934
v -0.126286 -1.329365 0.117851
v -0.127282 -1.328956 0.117685
v -0.128522 -1.329179 0.117396
v -0.129752 -1.329789 0.117148
v -0.130835 -1.330863 0.116839
v -0.131572 -1.332250 0.116485
v -0.131689 -1.333576 0.116219
v -0.131467 -1.334992 0.116013
v -0.130520 -1.336254 0.116233
v -0.129143 -1.336983 0.116678
v -0.127711 -1.336835 0.117110
v -0.126619 -1.335920 0.117356
v -0.125633 -1.334381 0.117567
v -0.126547 -1.334309 0.126428
v -0.126492 -1.333123 0.126604
v -0.126892 -1.332164 0.126638
v -0.127408 -1.331361 0.126625
v -0.128374 -1.330956 0.126476
v -0.129655 -1.331154 0.126205
v -0.130721 -1.331913 0.125912
v -0.132110 -1.333128 0.125456
v -0.132628 -1.334754 0.125039
v -0.132673 -1.335883 0.124837
v -0.132398 -1.337017 0.124713
v -0.131565 -1.337665 0.124829
v -0.130265 -1.338080 0.125086
v -0.128981 -1.337767 0.125443
v -0.127897 -1.337088 0.125756
v -0.127059 -1.335860 0.126107
v -0.127901 -1.337250 0.134881
v -0.127851 -1.335826 0.135197
v -0.128073 -1.334434 0.135427
v -0.128619 -1.333625 0.135423
v -0.129735 -1.333156 0.135282
v -0.131053 -1.333428 0.134986
v -0.132225 -1.334376 0.134570
v -0.133444 -1.336096 0.133868
v -0.133589 -1.337339 0.133539
v -0.133611 -1.338414 0.133300
v -0.133316 -1.339424 0.133196
v -0.132248 -1.340055 0.133334
v -0.131287 -1.340294 0.133520
v -0.129963 -1.339991 0.133918
v -0.129169 -1.339464 0.134194
v -0.128375 -1.338380 0.134623
v -0.129088 -1.339662 0.143234
v -0.128745 -1.338036 0.143767
v -0.129154 -1.336909 0.143962
v -0.129806 -1.335879 0.144063
v -0.131196 -1.335746 0.143923
v -0.132457 -1.336042 0.143679
v -0.133500 -1.336934 0.143305
v -0.134353 -1.338186 0.142448
v -0.134622 -1.339765 0.141840
v -0.134495 -1.341229 0.141453
v -0.134146 -1.342071 0.141660
v -0.133375 -1.342742 0.141768
v -0.132272 -1.342978 0.141953
v -0.131287 -1.342758 0.142160
v -0.130267 -1.342002 0.142485
v -0.129605 -1.341165 0.142759
v -0.130167 -1.341969 0.151944
v -0.129919 -1.340603 0.152432
v -0.129963 -1.339119 0.152995
v -0.131006 -1.337633 0.152746
v -0.132165 -1.337457 0.152481
v -0.133145 -1.337668 0.152360
v -0.134248 -1.338177 0.152496
v -0.135019 -1.339665 0.150573
v -0.135332 -1.341117 0.150097
v -0.135516 -1.343683 0.148890
v -0.135704 -1.344936 0.149570
v -0.135100 -1.345790 0.148923
v -0.134023 -1.345846 0.148649
v -0.132748 -1.345718 0.148320
v -0.131391 -1.344955 0.148996
v -0.130621 -1.343420 0.150969
v -0.134110 -1.348586 0.151970
v -0.135088 -1.348627 0.151251
v -0.132727 -1.348334 0.152556
v -0.135853 -1.348404 0.150877
v -0.132882 -1.347510 0.159792
v -0.132482 -1.344986 0.161437
v -0.130603 -1.345579 0.151620
v -0.131154 -1.346819 0.152401
v -0.131766 -1.346220 0.158273
v -0.131420 -1.344627 0.159606
v -0.130255 -1.344299 0.152588
v -0.130005 -1.342700 0.153559
v -0.129754 -1.341281 0.154179
v -0.129993 -1.340473 0.154927
v -0.130731 -1.341249 0.158865
v -0.131569 -1.340484 0.159299
v -0.130855 -1.339291 0.156827
v -0.130270 -1.340342 0.156789
v -0.131823 -1.347149 0.154642
v -0.133092 -1.348619 0.155346
v -0.131142 -1.343496 0.156153
v -0.131332 -1.345068 0.154736
v -0.130634 -1.341811 0.156537
v -0.131042 -1.342784 0.159594
v -0.132104 -1.342666 0.161181
v -0.131744 -1.338681 0.156469
v -0.132846 -1.338369 0.156284
v -0.135325 -1.339000 0.153680
v -0.136697 -1.347813 0.151029
v -0.136886 -1.348151 0.154881
v -0.136227 -1.348660 0.155032
v -0.136313 -1.345016 0.151102
v -0.136102 -1.343639 0.150568
v -0.135898 -1.341513 0.151502
v -0.135574 -1.339878 0.152051
v -0.137246 -1.346375 0.152173
v -0.137553 -1.346279 0.155225
v -0.136262 -1.347489 0.159801
v -0.136919 -1.346872 0.159036
v -0.137659 -1.345320 0.157408
v -0.135742 -1.344656 0.161985
v -0.135165 -1.342097 0.161377
v -0.134406 -1.339505 0.158713
v -0.135259 -1.349030 0.155542
v -0.135427 -1.347967 0.160373
v -0.134822 -1.344931 0.162353
v -0.134085 -1.342166 0.161949
v -0.133413 -1.339479 0.159035
v -0.132542 -1.339872 0.159284
v -0.133252 -1.342337 0.161919
v -0.133780 -1.345021 0.162286
v -0.134392 -1.347917 0.160390
v -0.134397 -1.349010 0.155769
v -0.136409 -1.344406 0.161069
v -0.135881 -1.342054 0.160602
v -0.136532 -1.344416 0.154305
v -0.136136 -1.342687 0.155134
v -0.137385 -1.343811 0.158175
v -0.136165 -1.341194 0.155423
v -0.136595 -1.342076 0.158181
v -0.135859 -1.340170 0.158102
v -0.135489 -1.338950 0.156326
v -0.135226 -1.339782 0.158673
v -0.134729 -1.338510 0.156113
v -0.133735 -1.338315 0.156229
v -0.125020 -1.328344 0.089252
v -0.125587 -1.326073 0.089648
v -0.124473 -1.331004 0.089812
v -0.123795 -1.333207 0.091255
v -0.125708 -1.322566 0.089503
v -0.127608 -1.323846 0.086684
v -0.127525 -1.326474 0.085980
v -0.126813 -1.328779 0.086324
v -0.126060 -1.331561 0.088278
v -0.125032 -1.333904 0.090280
v -0.124535 -1.335320 0.090834
v -0.123241 -1.335474 0.091811
v -0.122343 -1.334432 0.092360
v -0.122372 -1.332693 0.091956
v -0.122747 -1.330340 0.090793
v -0.123031 -1.327541 0.090976
v -0.123364 -1.323758 0.091292
v -0.123639 -1.321274 0.090663
v -0.124388 -1.319137 0.089793
v -0.125759 -1.319991 0.088894
v -0.127245 -1.321344 0.087621
f 38 35 29
f 38 29 36
f 41 27 35
f 41 35 38
f 42 24 27
f 42 27 41
f 23 24 42
f 23 42 44
f 20 23 44
f 20 44 46
f 19 20 46
f 19 46 47
f 16 19 47
f 16 47 48
f 11 12 50
f 11 50 51
f 5 11 51
f 5 51 52
f 14 16 48
f 14 48 49
f 50 12 14
f 50 14 49
f 1 5 52
f 1 52 53
f 36 29 31
f 36 31 8
f 7 6 1
f 7 1 53
f 8 31 33
f 8 33 63
f 63 33 6
f 63 6 7
f 64 63 7
f 64 7 62
f 98 97 81
f 98 81 82
f 99 98 82
f 99 82 83
f 100 99 83
f 100 83 84
f 101 100 84
f 101 84 85
f 102 101 85
f 102 85 86
f 103 102 86
f 103 86 87
f 104 103 87
f 104 87 88
f 105 104 88
f 105 88 89
f 106 105 89
f 106 89 90
f 107 106 90
f 107 90 91
f 108 107 91
f 108 91 92
f 109 108 92
f 109 92 93
f 110 109 93
f 110 93 94
f 111 110 94
f 111 94 95
f 112 111 95
f 112 95 96
f 96 81 97
f 96 97 112
f 114 113 97
f 114 97 98
f 115 114 98
f 115 98 99
f 116 115 99
f 116 99 100
f 117 116 100
f 117 100 101
f 118 117 101
f 118 101 102
f 119 118 102
f 119 102 103
f 120 119 103
f 120 103 104
f 121 120 104
f 121 104 105
f 122 121 105
f 122 105 106
f 123 122 106
f 123 106 107
f 124 123 107
f 124 107 108
f 125 124 108
f 125 108 109
f 126 125 109
f 126 109 110
f 127 126 110
f 127 110 111
f 128 127 111
f 128 111 112
f 112 97 113
f 112 113 128
f 130 129 113
f 130 113 114
f 131 130 114
f 131 114 115
f 132 131 115
f 132 115 116
f 133 132 116
f 133 116 117
f 134 133 117
f 134 117 118
f 135 134 118
f 135 118 119
f 136 135 119
f 136 119 120
f 137 136 120
f 137 120 121
f 138 137 121
f 138 121 122
f 139 138 122
f 139 122 123
f 140 139 123
f 140 123 124
f 141 140 124
f 141 124 125
f 142 141 125
f 142 125 126
f 143 142 126
f 143 126 127
f 144 143 127
f 144 127 128
f 128 113 129
f 128 129 144
f 62 7 53
f 62 53 60
f 69 68 62
f 69 62 60
f 85 84 68
f 85 68 69
f 64 62 68
f 64 68 67
f 67 68 84
f 67 84 83
f 9 8 63
f 9 63 64
f 9 64 67
f 9 67 66
f 66 67 83
f 66 83 82
f 36 8 9
f 36 9 37
f 37 9 66
f 37 66 65
f 65 66 82
f 65 82 81
f 39 38 36
f 39 36 37
f 39 37 65
f 39 65 80
f 80 65 81
f 80 81 96
f 41 38 39
f 41 39 40
f 40 39 80
f 40 80 79
f 79 80 96
f 79 96 95
f 43 42 41
f 43 41 40
f 43 40 79
f 43 79 78
f 78 79 95
f 78 95 94
f 44 42 43
f 44 43 45
f 45 43 78
f 45 78 77
f 77 78 94
f 77 94 93
f 46 44 45
f 46 45 54
f 54 45 77
f 54 77 76
f 76 77 93
f 76 93 92
f 47 46 54
f 47 54 55
f 55 54 76
f 55 76 75
f 75 76 92
f 75 92 91
f 48 47 55
f 48 55 56
f 56 55 75
f 56 75 74
f 74 75 91
f 74 91 90
f 49 48 56
f 49 56 61
f 61 56 74
f 61 74 73
f 73 74 90
f 73 90 89
f 57 50 49
f 57 49 61
f 57 61 73
f 57 73 72
f 72 73 89
f 72 89 88
f 51 50 57
f 51 57 58
f 58 57 72
f 58 72 71
f 71 72 88
f 71 88 87
f 52 51 58
f 52 58 59
f 59 58 71
f 59 71 70
f 60 53 52
f 60 52 59
f 70 69 60
f 70 60 59
f 86 85 69
f 86 69 70
f 70 71 87
f 70 87 86
f 158 157 141
f 158 141 142
f 140 141 157
f 140 157 156
f 159 158 142
f 159 142 143
f 160 159 143
f 160 143 144
f 145 160 144
f 145 144 129
f 146 145 129
f 146 129 130
f 147 146 130
f 147 130 131
f 171 167 159
f 171 159 160
f 171 160 145
f 171 145 172
f 173 172 145
f 173 145 146
f 173 146 147
f 173 147 174
f 163 159 167
f 163 167 168
f 169 179 168
f 169 168 182
f 168 167 171
f 168 171 182
f 182 171 172
f 182 172 181
f 181 172 173
f 181 173 183
f 183 173 174
f 183 174 178
f 170 169 182
f 170 182 181
f 184 170 181
f 184 181 183
f 184 183 178
f 184 178 175
f 178 174 147
f 178 147 177
f 148 147 131
f 148 131 132
f 149 148 132
f 149 132 133
f 139 140 156
f 139 156 155
f 138 139 155
f 138 155 154
f 137 138 154
f 137 154 153
f 136 137 153
f 136 153 152
f 189 155 156
f 189 156 164
f 164 156 157
f 164 157 162
f 186 177 147
f 186 147 148
f 162 157 158
f 162 158 161
f 161 158 159
f 161 159 163
f 190 189 164
f 190 164 191
f 191 164 162
f 191 162 204
f 213 161 163
f 213 163 180
f 180 163 168
f 180 168 179
f 204 162 161
f 204 161 213
f 198 191 204
f 198 204 205
f 180 179 169
f 180 169 165
f 212 213 180
f 212 180 165
f 205 204 213
f 205 213 212
f 166 165 169
f 166 169 170
f 211 212 165
f 211 165 166
f 206 205 212
f 206 212 211
f 185 166 170
f 185 170 184
f 210 211 166
f 210 166 185
f 207 206 211
f 207 211 210
f 176 175 178
f 176 178 177
f 185 184 175
f 185 175 176
f 209 210 185
f 209 185 176
f 176 177 186
f 176 186 209
f 208 207 210
f 208 210 209
f 190 191 198
f 190 198 199
f 201 198 205
f 201 205 206
f 202 201 206
f 202 206 207
f 196 189 190
f 196 190 197
f 193 154 155
f 193 155 192
f 192 155 189
f 192 189 196
f 153 154 193
f 153 193 194
f 216 193 192
f 216 192 196
f 200 197 190
f 200 190 199
f 216 196 197
f 216 197 200
f 152 153 194
f 152 194 195
f 217 194 193
f 217 193 216
f 214 199 198
f 214 198 201
f 218 200 199
f 218 199 214
f 218 217 216
f 218 216 200
f 219 195 194
f 219 194 217
f 219 217 218
f 219 218 220
f 220 218 214
f 220 214 215
f 215 214 201
f 215 201 202
f 223 221 220
f 223 220 215
f 222 219 220
f 222 220 221
f 188 195 219
f 188 219 222
f 203 202 207
f 203 207 208
f 208 209 186
f 208 186 187
f 187 186 148
f 187 148 149
f 223 215 202
f 223 202 203
f 151 150 134
f 151 134 135
f 135 136 152
f 135 152 151
f 151 152 195
f 151 195 188
f 151 188 222
f 151 222 224
f 222 221 223
f 222 223 224
f 150 149 133
f 150 133 134
f 225 187 149
f 225 149 150
f 150 151 224
f 150 224 225
f 203 208 187
f 203 187 225
f 224 223 203
f 224 203 225
f 14 12 13
f 14 13 15
f 16 14 15
f 16 15 17
f 233 17 15
f 233 15 232
f 19 16 17
f 19 17 18
f 234 18 17
f 234 17 233
f 20 19 18
f 20 18 21
f 235 21 18
f 235 18 234
f 23 20 21
f 23 21 22
f 22 21 235
f 22 235 236
f 24 23 22
f 24 22 25
f 237 25 22
f 237 22 236
f 27 24 25
f 27 25 26
f 26 25 237
f 26 237 238
f 237 236 235
f 237 235 229
f 35 27 26
f 35 26 34
f 238 237 229
f 238 229 239
f 34 26 238
f 34 238 239
f 28 29 35
f 28 35 34
f 228 229 235
f 228 235 234
f 239 229 228
f 239 228 240
f 28 34 239
f 28 239 240
f 226 228 234
f 226 234 233
f 31 29 28
f 31 28 30
f 241 240 228
f 241 228 226
f 241 30 28
f 241 28 240
f 33 31 30
f 33 30 32
f 227 226 233
f 227 233 232
f 241 226 227
f 241 227 242
f 32 30 241
f 32 241 242
f 3 6 33
f 3 33 32
f 3 32 242
f 3 242 243
f 1 6 3
f 1 3 2
f 2 3 243
f 2 243 244
f 5 1 2
f 5 2 4
f 243 242 227
f 243 227 230
f 245 4 2
f 245 2 244
f 245 244 243
f 245 243 230
f 11 5 4
f 11 4 10
f 13 12 11
f 13 11 10
f 231 230 227
f 231 227 232
f 10 4 245
f 10 245 246
f 231 13 10
f 231 10 246
f 232 15 13
f 232 13 231
f 246 245 230
f 246 230 231
