# _3rd_Distal_Phalanx_Foot_L rest
v 0.110669 -1.334653 0.138637
v 0.109405 -1.334739 0.139017
v 0.108573 -1.335168 0.139180
v 0.107908 -1.336223 0.139052
v 0.108026 -1.337022 0.138623
v 0.108754 -1.337622 0.138332
v 0.109945 -1.338136 0.137977
v 0.111200 -1.338124 0.137566
v 0.112424 -1.337603 0.137304
v 0.112840 -1.336740 0.137410
v 0.112575 -1.335665 0.137677
v 0.111690 -1.335018 0.138230
v 0.107929 -1.336696 0.140278
v 0.108530 -1.335605 0.140437
v 0.109615 -1.334994 0.140355
v 0.110832 -1.334826 0.140130
v 0.111963 -1.335129 0.139740
v 0.112970 -1.335912 0.139237
v 0.113330 -1.337202 0.138779
v 0.112685 -1.338199 0.138684
v 0.111390 -1.338679 0.138852
v 0.110109 -1.338880 0.139149
v 0.108959 -1.338690 0.139501
v 0.108112 -1.337878 0.139916
v 0.109127 -1.337088 0.141394
v 0.109614 -1.336355 0.141479
v 0.110297 -1.335801 0.141481
v 0.111239 -1.335405 0.141383
v 0.112156 -1.335811 0.141075
v 0.112661 -1.336584 0.140756
v 0.112885 -1.337455 0.140460
v 0.112456 -1.338169 0.140294
v 0.111679 -1.338685 0.140326
v 0.110597 -1.338881 0.140554
v 0.109451 -1.338578 0.140961
v 0.109005 -1.337892 0.141260
v 0.110301 -1.337166 0.143216
v 0.110592 -1.336676 0.143288
v 0.110994 -1.336165 0.143373
v 0.111691 -1.335822 0.143280
v 0.112365 -1.336193 0.142975
v 0.112678 -1.336830 0.142729
v 0.112691 -1.337755 0.142529
v 0.112462 -1.338395 0.142429
v 0.111988 -1.338694 0.142406
v 0.111132 -1.338701 0.142599
v 0.110326 -1.338291 0.142920
v 0.110079 -1.337749 0.143125
v 0.110634 -1.337215 0.144785
v 0.110992 -1.336629 0.144849
v 0.111373 -1.336328 0.144770
v 0.111886 -1.336149 0.144639
v 0.112602 -1.336182 0.144442
v 0.112966 -1.336766 0.144183
v 0.113263 -1.337814 0.144002
v 0.112853 -1.338541 0.144005
v 0.112243 -1.339004 0.144125
v 0.111427 -1.338953 0.144326
v 0.110611 -1.338365 0.144639
v 0.110379 -1.337801 0.144631
v 0.110857 -1.337453 0.145134
v 0.111247 -1.336869 0.145244
v 0.111703 -1.336595 0.145164
v 0.112125 -1.336499 0.145054
v 0.112549 -1.336534 0.144954
v 0.112960 -1.336994 0.144763
v 0.113154 -1.337815 0.144496
v 0.112783 -1.338482 0.144480
v 0.112015 -1.338909 0.144598
v 0.111378 -1.338798 0.144722
v 0.110860 -1.338410 0.145054
v 0.110581 -1.338001 0.144974
v 0.111349 -1.338089 0.145219
v 0.111930 -1.337701 0.145300
v 0.112310 -1.337074 0.145241
v 0.110588 -1.335686 0.138858
v 0.111385 -1.335891 0.138508
v 0.111894 -1.336139 0.138112
v 0.112104 -1.336767 0.137892
v 0.111842 -1.337314 0.137858
v 0.111196 -1.337479 0.138074
v 0.110222 -1.337427 0.138425
v 0.109318 -1.337104 0.138626
v 0.108703 -1.336691 0.138576
v 0.108664 -1.336179 0.138844
v 0.108967 -1.335763 0.138971
v 0.109746 -1.335603 0.139069
v 0.111313 -1.336692 0.138354
v 0.110404 -1.336623 0.138723
v 0.109549 -1.336433 0.138890
f 26 25 37
f 26 37 38
f 27 26 38
f 27 38 39
f 28 27 39
f 28 39 40
f 29 28 40
f 29 40 41
f 30 29 41
f 30 41 42
f 31 30 42
f 31 42 43
f 32 31 43
f 32 43 44
f 33 32 44
f 33 44 45
f 34 33 45
f 34 45 46
f 35 34 46
f 35 46 47
f 36 35 47
f 36 47 48
f 48 37 25
f 48 25 36
f 38 37 49
f 38 49 50
f 39 38 50
f 39 50 51
f 40 39 51
f 40 51 52
f 41 40 52
f 41 52 53
f 42 41 53
f 42 53 54
f 43 42 54
f 43 54 55
f 44 43 55
f 44 55 56
f 45 44 56
f 45 56 57
f 46 45 57
f 46 57 58
f 47 46 58
f 47 58 59
f 48 47 59
f 48 59 60
f 60 49 37
f 60 37 48
f 16 15 27
f 16 27 28
f 17 16 28
f 17 28 29
f 18 17 29
f 18 29 30
f 26 27 15
f 26 15 14
f 25 26 14
f 25 14 13
f 36 25 13
f 36 13 24
f 35 36 24
f 35 24 23
f 34 35 23
f 34 23 22
f 33 34 22
f 33 22 21
f 32 33 21
f 32 21 20
f 19 18 30
f 19 30 31
f 31 32 20
f 31 20 19
f 71 72 60
f 71 60 59
f 59 58 70
f 59 70 71
f 73 71 70
f 73 70 69
f 69 70 58
f 69 58 57
f 61 62 50
f 61 50 49
f 61 72 71
f 61 71 73
f 49 60 72
f 49 72 61
f 68 69 57
f 68 57 56
f 62 61 73
f 62 73 74
f 74 73 69
f 74 69 68
f 51 50 62
f 51 62 63
f 67 68 56
f 67 56 55
f 66 67 55
f 66 55 54
f 52 51 63
f 52 63 64
f 65 66 54
f 65 54 53
f 75 74 68
f 75 68 67
f 65 64 63
f 65 63 75
f 53 52 64
f 53 64 65
f 75 67 66
f 75 66 65
f 63 62 74
f 63 74 75
f 1 16 17
f 1 17 12
f 11 12 17
f 11 17 18
f 10 11 18
f 10 18 19
f 9 10 19
f 9 19 20
f 8 9 20
f 8 20 21
f 7 8 21
f 7 21 22
f 6 7 22
f 6 22 23
f 5 6 23
f 5 23 24
f 4 5 24
f 4 24 13
f 3 4 13
f 3 13 14
f 2 3 14
f 2 14 15
f 2 15 16
f 2 16 1
f 79 78 11
f 79 11 10
f 79 10 9
f 79 9 80
f 81 80 9
f 81 9 8
f 77 12 11
f 77 11 78
f 88 79 80
f 88 80 81
f 88 77 78
f 88 78 79
f 1 12 77
f 1 77 76
f 82 81 8
f 82 8 7
f 89 76 77
f 89 77 88
f 89 88 81
f 89 81 82
f 83 6 5
f 83 5 84
f 87 86 3
f 87 3 2
f 83 82 7
f 83 7 6
f 87 2 1
f 87 1 76
f 85 4 3
f 85 3 86
f 90 87 76
f 90 76 89
f 90 83 84
f 90 84 85
f 85 84 5
f 85 5 4
f 85 86 87
f 85 87 90
f 90 89 82
f 90 82 83
