# _3rd_Proximal_Phalanges_Hand_L rest
v 0.822855 0.035894 -0.069071
v 0.821239 0.036487 -0.072818
v 0.819511 0.036293 -0.071915
v 0.817884 0.035407 -0.073687
v 0.817758 0.033134 -0.073182
v 0.819729 0.032542 -0.074145
v 0.821983 0.032865 -0.074020
v 0.822760 0.034662 -0.074710
v 0.822942 0.035873 -0.073230
v 0.820058 0.035112 -0.074811
v 0.821238 0.035785 -0.068131
v 0.824125 0.035018 -0.070403
v 0.824224 0.034308 -0.065418
v 0.825409 0.034188 -0.067377
v 0.822282 0.033930 -0.064634
v 0.822308 0.031978 -0.063285
v 0.824304 0.032228 -0.064653
v 0.825713 0.032648 -0.067190
v 0.823338 0.030900 -0.066411
v 0.824440 0.031686 -0.067957
v 0.821668 0.030946 -0.065254
v 0.821418 0.031365 -0.070428
v 0.823240 0.032175 -0.071240
v 0.824504 0.033600 -0.071359
v 0.819789 0.031489 -0.069470
v 0.816222 0.035190 -0.071716
v 0.817493 0.036158 -0.069861
v 0.816354 0.033294 -0.071356
v 0.818892 0.035661 -0.066844
v 0.819658 0.033992 -0.064355
v 0.819597 0.032362 -0.063840
v 0.819130 0.031696 -0.065294
v 0.817683 0.031688 -0.068331
v 0.815808 0.032244 -0.062658
v 0.815934 0.034081 -0.063038
v 0.815274 0.035492 -0.065115
v 0.814104 0.035950 -0.067588
v 0.812891 0.035020 -0.069672
v 0.812823 0.033077 -0.069318
v 0.813714 0.031709 -0.067066
v 0.814810 0.031425 -0.064531
v 0.811111 0.031655 -0.060386
v 0.811314 0.033901 -0.061007
v 0.810584 0.035422 -0.063211
v 0.809369 0.035936 -0.065842
v 0.808058 0.034938 -0.068141
v 0.807994 0.032746 -0.067656
v 0.808722 0.031289 -0.065548
v 0.809897 0.030718 -0.062739
v 0.806643 0.030979 -0.059041
v 0.806915 0.033364 -0.059564
v 0.806196 0.034959 -0.061867
v 0.804918 0.035518 -0.064692
v 0.803546 0.034488 -0.067126
v 0.803401 0.032171 -0.066707
v 0.804340 0.030770 -0.064239
v 0.805427 0.030095 -0.061377
v 0.802707 0.029298 -0.056928
v 0.803317 0.032331 -0.057593
v 0.802756 0.034743 -0.060139
v 0.801103 0.035393 -0.063867
v 0.799242 0.033909 -0.066771
v 0.798702 0.030931 -0.066693
v 0.800160 0.029285 -0.063072
v 0.801267 0.027586 -0.059372
v 0.801211 0.034904 -0.059290
v 0.798898 0.036112 -0.063849
v 0.795943 0.034223 -0.067391
v 0.795550 0.030474 -0.066622
v 0.797783 0.028558 -0.062624
v 0.798750 0.026479 -0.057944
v 0.800743 0.028062 -0.054808
v 0.802000 0.032037 -0.055798
v 0.799874 0.033722 -0.059535
v 0.800529 0.031910 -0.056370
v 0.799068 0.029125 -0.055692
v 0.797515 0.027091 -0.057585
v 0.797305 0.029308 -0.061734
v 0.795586 0.030968 -0.064673
v 0.796212 0.033277 -0.064538
v 0.798096 0.034971 -0.062705
v 0.798957 0.031480 -0.060714
v 0.823198 0.031403 -0.068992
v 0.821632 0.035794 -0.074354
v 0.825422 0.033339 -0.065534
v 0.824742 0.031679 -0.066103
v 0.823281 0.033226 -0.073125
v 0.823827 0.034900 -0.072642
v 0.822964 0.036114 -0.071496
v 0.824425 0.035055 -0.068015
v 0.825168 0.033918 -0.069132
v 0.824698 0.032368 -0.069539
v 0.820926 0.033798 -0.075158
v 0.821602 0.032010 -0.072614
v 0.818351 0.034221 -0.074882
v 0.819557 0.036065 -0.073729
v 0.821213 0.036207 -0.070738
v 0.822786 0.035009 -0.066632
v 0.823513 0.033019 -0.063955
v 0.823185 0.031157 -0.064168
v 0.821726 0.031070 -0.067780
v 0.819482 0.031991 -0.072096
v 0.813003 0.031341 -0.062412
v 0.809124 0.032510 -0.059533
v 0.808781 0.034595 -0.061266
v 0.807759 0.035685 -0.063842
v 0.806374 0.035492 -0.066551
v 0.805555 0.033605 -0.067690
v 0.806023 0.031640 -0.066090
v 0.807035 0.030599 -0.063519
v 0.808270 0.030594 -0.060618
v 0.819459 0.036226 -0.069412
v 0.816631 0.035963 -0.067308
v 0.812498 0.035878 -0.065341
v 0.817926 0.035833 -0.072004
v 0.815263 0.035818 -0.069840
v 0.811174 0.035714 -0.067902
v 0.817077 0.034373 -0.072836
v 0.814609 0.034198 -0.070821
v 0.810410 0.033961 -0.068931
v 0.818010 0.032365 -0.070979
v 0.815221 0.032348 -0.069203
v 0.810876 0.032096 -0.067413
v 0.819983 0.031505 -0.067021
v 0.816512 0.031590 -0.066271
v 0.811842 0.031168 -0.065009
v 0.820991 0.031647 -0.064094
v 0.817480 0.031924 -0.064089
v 0.820739 0.034921 -0.065828
v 0.817627 0.034892 -0.064787
v 0.821174 0.032972 -0.063814
v 0.817942 0.033165 -0.063352
v 0.813795 0.033021 -0.061362
v 0.813495 0.034903 -0.062912
v 0.803594 0.035189 -0.062580
v 0.802017 0.034997 -0.065699
v 0.800870 0.032954 -0.067302
v 0.801513 0.030671 -0.065141
v 0.802632 0.029512 -0.062023
v 0.803846 0.029357 -0.059047
v 0.804759 0.031521 -0.058224
v 0.804673 0.033911 -0.059652
v 0.802444 0.033673 -0.057754
v 0.802357 0.030339 -0.055681
v 0.800708 0.027385 -0.056802
v 0.799121 0.027445 -0.060902
v 0.797863 0.029596 -0.064829
v 0.796815 0.032495 -0.067600
v 0.798570 0.035249 -0.065890
v 0.801024 0.035707 -0.061702
v 0.801038 0.033467 -0.057363
v 0.800704 0.030126 -0.054475
v 0.798743 0.026957 -0.055721
v 0.797425 0.027494 -0.060236
v 0.796406 0.029775 -0.064086
v 0.794586 0.032370 -0.066624
v 0.796566 0.035392 -0.065234
v 0.799598 0.035373 -0.061198
v 0.799873 0.031589 -0.057955
v 0.798429 0.033491 -0.062149
v 0.798259 0.029231 -0.058832
v 0.797085 0.031387 -0.063241
v 0.822042 0.036316 -0.071056
v 0.820332 0.036485 -0.072546
v 0.818625 0.036077 -0.073054
v 0.817562 0.034399 -0.073966
v 0.818521 0.032735 -0.073851
v 0.821026 0.032637 -0.074189
v 0.822312 0.033545 -0.074534
v 0.822904 0.035482 -0.074009
v 0.822227 0.036251 -0.073142
v 0.818886 0.035347 -0.074455
v 0.821181 0.034940 -0.075115
v 0.820576 0.035922 -0.074036
v 0.819616 0.033966 -0.075111
v 0.822002 0.035805 -0.068602
v 0.820365 0.036231 -0.070242
v 0.823671 0.035610 -0.069786
v 0.823538 0.035532 -0.072010
v 0.823633 0.035214 -0.067178
v 0.825057 0.034394 -0.066476
v 0.824847 0.034527 -0.068758
v 0.821863 0.034884 -0.066145
v 0.823310 0.034102 -0.064815
v 0.822407 0.032890 -0.063434
v 0.824477 0.033193 -0.064612
v 0.823389 0.032056 -0.063871
v 0.825219 0.032374 -0.065492
v 0.825765 0.033548 -0.067101
v 0.825079 0.031987 -0.067573
v 0.824026 0.031317 -0.064982
v 0.824043 0.031317 -0.067261
v 0.822116 0.031265 -0.063900
v 0.822557 0.030745 -0.065574
v 0.820483 0.031809 -0.072300
v 0.822585 0.032521 -0.072849
v 0.822386 0.031673 -0.070886
v 0.823974 0.031859 -0.069404
v 0.822430 0.031105 -0.068385
v 0.823987 0.032826 -0.071448
v 0.823798 0.034074 -0.073085
v 0.825294 0.033130 -0.069427
v 0.824459 0.034407 -0.070938
v 0.820573 0.031354 -0.069960
v 0.818733 0.032256 -0.071665
v 0.820966 0.031260 -0.067319
v 0.817293 0.035209 -0.072616
v 0.818671 0.036184 -0.071003
v 0.816732 0.035839 -0.070916
v 0.817315 0.033361 -0.072392
v 0.816074 0.034264 -0.071872
v 0.818221 0.036108 -0.068381
v 0.820164 0.035765 -0.067542
v 0.819366 0.034932 -0.065417
v 0.821087 0.033870 -0.064587
v 0.819709 0.033103 -0.063825
v 0.821074 0.032152 -0.063654
v 0.819463 0.031934 -0.064343
v 0.820666 0.031408 -0.065260
v 0.818541 0.031575 -0.066634
v 0.818958 0.031622 -0.068958
v 0.816932 0.032326 -0.070111
v 0.815969 0.033151 -0.062519
v 0.815674 0.034893 -0.063939
v 0.814740 0.035861 -0.066369
v 0.813445 0.035702 -0.068753
v 0.812710 0.034045 -0.069793
v 0.813190 0.032230 -0.068322
v 0.814245 0.031429 -0.065791
v 0.815326 0.031684 -0.063434
v 0.811380 0.032805 -0.060357
v 0.811013 0.034817 -0.062051
v 0.810029 0.035824 -0.064502
v 0.808659 0.035665 -0.067171
v 0.807856 0.033797 -0.068234
v 0.808328 0.031867 -0.066685
v 0.809304 0.030854 -0.064152
v 0.810550 0.030943 -0.061371
v 0.806925 0.032114 -0.058940
v 0.806667 0.034299 -0.060612
v 0.805624 0.035387 -0.063252
v 0.804192 0.035248 -0.066064
v 0.803243 0.033320 -0.067398
v 0.803823 0.031340 -0.065573
v 0.804867 0.030334 -0.062843
v 0.806061 0.030200 -0.060014
v 0.803141 0.030806 -0.056983
v 0.803182 0.033681 -0.058623
v 0.802014 0.035375 -0.061970
v 0.800111 0.034944 -0.065573
v 0.798616 0.032662 -0.067449
v 0.799455 0.029982 -0.064853
v 0.800629 0.028262 -0.061326
v 0.802002 0.028159 -0.057741
v 0.813540 0.031989 -0.061474
v 0.813753 0.034044 -0.061956
v 0.813049 0.035515 -0.064090
v 0.811845 0.035966 -0.066640
v 0.810609 0.035024 -0.068825
v 0.810539 0.032933 -0.068380
v 0.811327 0.031537 -0.066274
v 0.812406 0.031097 -0.063669
v 0.808859 0.031325 -0.059550
v 0.809067 0.033664 -0.060226
v 0.808329 0.035267 -0.062507
v 0.807088 0.035779 -0.065225
v 0.805777 0.034745 -0.067547
v 0.805664 0.032486 -0.067066
v 0.806492 0.031026 -0.064850
v 0.807620 0.030408 -0.062085
v 0.804405 0.030282 -0.058297
v 0.804882 0.032805 -0.058648
v 0.804227 0.034729 -0.061073
v 0.802804 0.035330 -0.064196
v 0.801357 0.034118 -0.066758
v 0.801024 0.031533 -0.066517
v 0.802075 0.030056 -0.063629
v 0.803201 0.029141 -0.060433
v 0.817204 0.035551 -0.066017
v 0.815960 0.036072 -0.068611
v 0.814707 0.035133 -0.070669
v 0.814757 0.033187 -0.070292
v 0.815871 0.031802 -0.067711
v 0.817065 0.031661 -0.065039
v 0.817801 0.032418 -0.063449
v 0.817872 0.034065 -0.063848
v 0.801917 0.034953 -0.059602
v 0.799904 0.035774 -0.063920
v 0.800277 0.035741 -0.061452
v 0.797167 0.035743 -0.066022
v 0.797544 0.033986 -0.067073
v 0.795327 0.032472 -0.067607
v 0.796927 0.030656 -0.066780
v 0.796790 0.029481 -0.064603
v 0.798785 0.028710 -0.062756
v 0.798047 0.027240 -0.060707
v 0.799818 0.026742 -0.058430
v 0.799708 0.026913 -0.056034
v 0.801612 0.028562 -0.055782
v 0.801635 0.030076 -0.054661
v 0.802567 0.032118 -0.056521
v 0.801799 0.033660 -0.057321
v 0.800463 0.034516 -0.059206
v 0.801091 0.032032 -0.055729
v 0.800342 0.032785 -0.057723
v 0.800023 0.030664 -0.055868
v 0.799679 0.028167 -0.054520
v 0.798021 0.027591 -0.056333
v 0.797888 0.026641 -0.057626
v 0.797389 0.028208 -0.059778
v 0.797288 0.028788 -0.062211
v 0.796525 0.030324 -0.063470
v 0.795059 0.030666 -0.065495
v 0.795634 0.032096 -0.064893
v 0.795269 0.034064 -0.066352
v 0.797232 0.034361 -0.063633
v 0.798204 0.035723 -0.063136
v 0.799018 0.034457 -0.061350
v 0.799208 0.030350 -0.058217
v 0.798110 0.030337 -0.061199
v 0.797743 0.032464 -0.062887
v 0.799475 0.032625 -0.060052
f 174 96 164
f 174 164 2
f 2 164 97
f 2 97 163
f 2 163 89
f 2 89 171
f 2 171 84
f 2 84 174
f 164 96 165
f 164 165 3
f 3 165 115
f 3 115 208
f 3 208 112
f 3 112 177
f 177 97 164
f 177 164 3
f 172 95 166
f 172 166 4
f 4 166 118
f 4 118 207
f 4 207 115
f 4 115 165
f 4 165 96
f 4 96 172
f 166 95 167
f 166 167 5
f 5 167 102
f 5 102 205
f 5 210 118
f 5 118 166
f 205 121 210
f 205 210 5
f 175 93 168
f 175 168 6
f 6 168 94
f 6 94 195
f 6 195 102
f 6 102 167
f 6 167 95
f 6 95 175
f 7 169 87
f 7 87 196
f 168 93 169
f 168 169 7
f 7 196 94
f 7 94 168
f 173 84 170
f 173 170 8
f 8 170 88
f 8 88 201
f 8 201 87
f 8 87 169
f 8 169 93
f 8 93 173
f 170 84 171
f 170 171 9
f 9 171 89
f 9 89 179
f 179 88 170
f 179 170 9
f 176 97 177
f 176 177 11
f 11 177 112
f 11 112 213
f 11 183 98
f 11 98 176
f 213 129 183
f 213 183 11
f 203 88 179
f 203 179 12
f 12 179 89
f 12 89 178
f 178 90 182
f 178 182 12
f 12 182 91
f 12 91 203
f 186 85 181
f 186 181 13
f 13 181 90
f 13 90 180
f 180 98 184
f 180 184 13
f 13 184 99
f 13 99 186
f 181 85 189
f 181 189 14
f 14 189 91
f 14 91 182
f 182 90 181
f 182 181 14
f 15 185 99
f 15 99 184
f 215 131 185
f 215 185 15
f 183 129 215
f 183 215 15
f 184 98 183
f 184 183 15
f 16 187 99
f 16 99 185
f 193 100 187
f 193 187 16
f 217 127 193
f 217 193 16
f 185 131 217
f 185 217 16
f 17 188 85
f 17 85 186
f 191 86 188
f 191 188 17
f 187 100 191
f 187 191 17
f 17 186 99
f 17 99 187
f 188 86 190
f 188 190 18
f 18 190 92
f 18 92 202
f 189 85 188
f 189 188 18
f 202 91 189
f 202 189 18
f 199 83 192
f 199 192 19
f 19 192 86
f 19 86 191
f 191 100 194
f 191 194 19
f 19 194 101
f 19 101 199
f 20 190 86
f 20 86 192
f 198 92 190
f 198 190 20
f 20 192 83
f 20 83 198
f 21 219 124
f 21 124 206
f 193 127 219
f 193 219 21
f 194 100 193
f 194 193 21
f 206 101 194
f 206 194 21
f 22 197 83
f 22 83 199
f 195 94 197
f 195 197 22
f 22 199 101
f 22 101 204
f 22 204 102
f 22 102 195
f 23 198 83
f 23 83 197
f 200 92 198
f 200 198 23
f 196 87 200
f 196 200 23
f 197 94 196
f 197 196 23
f 203 91 202
f 203 202 24
f 24 202 92
f 24 92 200
f 201 88 203
f 201 203 24
f 24 200 87
f 24 87 201
f 25 205 102
f 25 102 204
f 221 121 205
f 221 205 25
f 204 101 206
f 204 206 25
f 25 206 124
f 25 124 221
f 26 209 115
f 26 115 207
f 281 116 209
f 281 209 26
f 207 118 211
f 207 211 26
f 26 211 119
f 26 119 281
f 27 212 112
f 27 112 208
f 280 113 212
f 280 212 27
f 27 208 115
f 27 115 209
f 27 209 116
f 27 116 280
f 211 118 210
f 211 210 28
f 28 210 121
f 28 121 222
f 282 119 211
f 282 211 28
f 28 222 122
f 28 122 282
f 29 214 129
f 29 129 213
f 279 130 214
f 279 214 29
f 213 112 212
f 213 212 29
f 29 212 113
f 29 113 279
f 30 216 131
f 30 131 215
f 286 132 216
f 286 216 30
f 214 130 286
f 214 286 30
f 215 129 214
f 215 214 30
f 31 218 127
f 31 127 217
f 285 128 218
f 285 218 31
f 217 131 216
f 217 216 31
f 31 216 132
f 31 132 285
f 32 220 124
f 32 124 219
f 284 125 220
f 284 220 32
f 218 128 284
f 218 284 32
f 219 127 218
f 219 218 32
f 33 222 121
f 33 121 221
f 283 122 222
f 283 222 33
f 220 125 283
f 220 283 33
f 221 124 220
f 221 220 33
f 285 132 223
f 285 223 34
f 34 223 133
f 34 133 255
f 34 255 103
f 34 103 230
f 230 128 285
f 230 285 34
f 286 130 224
f 286 224 35
f 35 224 134
f 35 134 256
f 35 256 133
f 35 133 223
f 35 223 132
f 35 132 286
f 279 113 225
f 279 225 36
f 36 225 114
f 36 114 257
f 36 257 134
f 36 134 224
f 224 130 279
f 224 279 36
f 280 116 226
f 280 226 37
f 37 226 117
f 37 117 258
f 37 258 114
f 37 114 225
f 225 113 280
f 225 280 37
f 281 119 227
f 281 227 38
f 38 227 120
f 38 120 259
f 38 259 117
f 38 117 226
f 226 116 281
f 226 281 38
f 282 122 228
f 282 228 39
f 39 228 123
f 39 123 260
f 39 260 120
f 39 120 227
f 227 119 282
f 227 282 39
f 283 125 229
f 283 229 40
f 40 229 126
f 40 126 261
f 40 261 123
f 40 123 228
f 40 228 122
f 40 122 283
f 41 230 103
f 41 103 262
f 284 128 230
f 284 230 41
f 41 262 126
f 41 126 229
f 41 229 125
f 41 125 284
f 42 231 104
f 42 104 263
f 255 133 231
f 255 231 42
f 42 263 111
f 42 111 238
f 42 238 103
f 42 103 255
f 43 232 105
f 43 105 264
f 256 134 232
f 256 232 43
f 43 264 104
f 43 104 231
f 43 231 133
f 43 133 256
f 44 233 106
f 44 106 265
f 257 114 233
f 257 233 44
f 44 265 105
f 44 105 232
f 44 232 134
f 44 134 257
f 45 234 107
f 45 107 266
f 258 117 234
f 258 234 45
f 45 266 106
f 45 106 233
f 45 233 114
f 45 114 258
f 46 235 108
f 46 108 267
f 259 120 235
f 259 235 46
f 46 267 107
f 46 107 234
f 46 234 117
f 46 117 259
f 47 236 109
f 47 109 268
f 260 123 236
f 260 236 47
f 47 268 108
f 47 108 235
f 47 235 120
f 47 120 260
f 48 237 110
f 48 110 269
f 261 126 237
f 261 237 48
f 48 269 109
f 48 109 236
f 48 236 123
f 48 123 261
f 262 103 238
f 262 238 49
f 49 238 111
f 49 111 270
f 49 270 110
f 49 110 237
f 49 237 126
f 49 126 262
f 263 104 239
f 263 239 50
f 50 239 141
f 50 141 271
f 50 271 140
f 50 140 246
f 50 246 111
f 50 111 263
f 264 105 240
f 264 240 51
f 51 240 142
f 51 142 272
f 51 272 141
f 51 141 239
f 51 239 104
f 51 104 264
f 265 106 241
f 265 241 52
f 52 241 135
f 52 135 273
f 52 273 142
f 52 142 240
f 52 240 105
f 52 105 265
f 266 107 242
f 266 242 53
f 53 242 136
f 53 136 274
f 53 274 135
f 53 135 241
f 53 241 106
f 53 106 266
f 267 108 243
f 267 243 54
f 54 243 137
f 54 137 275
f 54 275 136
f 54 136 242
f 54 242 107
f 54 107 267
f 268 109 244
f 268 244 55
f 55 244 138
f 55 138 276
f 55 276 137
f 55 137 243
f 55 243 108
f 55 108 268
f 269 110 245
f 269 245 56
f 56 245 139
f 56 139 277
f 56 277 138
f 56 138 244
f 56 244 109
f 56 109 269
f 270 111 246
f 270 246 57
f 57 246 140
f 57 140 278
f 57 278 139
f 57 139 245
f 57 245 110
f 57 110 270
f 271 141 247
f 271 247 58
f 58 247 144
f 58 144 299
f 58 299 145
f 58 145 254
f 58 254 140
f 58 140 271
f 272 142 248
f 272 248 59
f 59 248 143
f 59 143 301
f 59 301 144
f 59 144 247
f 59 247 141
f 59 141 272
f 273 135 249
f 273 249 60
f 60 249 150
f 60 150 287
f 60 287 143
f 60 143 248
f 60 248 142
f 60 142 273
f 274 136 250
f 274 250 61
f 61 250 149
f 61 149 288
f 61 288 150
f 61 150 249
f 61 249 135
f 61 135 274
f 275 137 251
f 275 251 62
f 62 251 148
f 62 148 291
f 62 291 149
f 62 149 250
f 62 250 136
f 62 136 275
f 276 138 252
f 276 252 63
f 63 252 147
f 63 147 293
f 63 293 148
f 63 148 251
f 63 251 137
f 63 137 276
f 277 139 253
f 277 253 64
f 64 253 146
f 64 146 295
f 64 295 147
f 64 147 252
f 64 252 138
f 64 138 277
f 278 140 254
f 278 254 65
f 65 254 145
f 65 145 297
f 65 297 146
f 65 146 253
f 65 253 139
f 65 139 278
f 287 150 289
f 287 289 66
f 66 289 158
f 66 158 303
f 66 303 151
f 66 151 302
f 302 143 287
f 302 287 66
f 288 149 290
f 288 290 67
f 67 290 157
f 67 157 317
f 67 317 158
f 67 158 289
f 289 150 288
f 289 288 67
f 291 148 292
f 291 292 68
f 68 292 156
f 68 156 315
f 68 315 157
f 68 157 290
f 68 290 149
f 68 149 291
f 293 147 294
f 293 294 69
f 69 294 155
f 69 155 313
f 69 313 156
f 69 156 292
f 69 292 148
f 69 148 293
f 295 146 296
f 295 296 70
f 70 296 154
f 70 154 311
f 70 311 155
f 70 155 294
f 70 294 147
f 70 147 295
f 297 145 298
f 297 298 71
f 71 298 153
f 71 153 309
f 71 309 154
f 71 154 296
f 71 296 146
f 71 146 297
f 299 144 300
f 299 300 72
f 72 300 152
f 72 152 307
f 72 307 153
f 72 153 298
f 72 298 145
f 72 145 299
f 301 143 302
f 301 302 73
f 73 302 151
f 73 151 304
f 73 304 152
f 73 152 300
f 73 300 144
f 73 144 301
f 74 305 151
f 74 151 303
f 322 159 305
f 322 305 74
f 74 303 158
f 74 158 318
f 74 318 160
f 74 160 322
f 75 306 152
f 75 152 304
f 305 159 306
f 305 306 75
f 75 304 151
f 75 151 305
f 76 308 153
f 76 153 307
f 319 161 308
f 319 308 76
f 306 159 319
f 306 319 76
f 307 152 306
f 307 306 76
f 77 310 154
f 77 154 309
f 308 161 310
f 308 310 77
f 309 153 308
f 309 308 77
f 78 312 155
f 78 155 311
f 320 162 312
f 320 312 78
f 310 161 320
f 310 320 78
f 311 154 310
f 311 310 78
f 79 314 156
f 79 156 313
f 312 162 314
f 312 314 79
f 313 155 312
f 313 312 79
f 80 316 157
f 80 157 315
f 321 160 316
f 321 316 80
f 315 156 314
f 315 314 80
f 80 314 162
f 80 162 321
f 81 318 158
f 81 158 317
f 316 160 318
f 316 318 81
f 317 157 316
f 317 316 81
f 322 160 321
f 322 321 82
f 82 321 162
f 82 162 320
f 319 159 322
f 319 322 82
f 320 161 319
f 320 319 82
f 173 10 174
f 173 174 84
f 89 163 1
f 89 1 178
f 178 1 180
f 178 180 90
f 175 10 173
f 175 173 93
f 172 10 175
f 172 175 95
f 96 174 10
f 96 10 172
f 176 1 163
f 176 163 97
f 98 180 1
f 98 1 176
