# _4th_Distal_Phalanges_Hand_R rest
v -0.854060 0.029324 -0.103227
v -0.854230 0.029292 -0.101836
v -0.854500 0.029960 -0.100847
v -0.855007 0.030768 -0.100998
v -0.854945 0.031528 -0.102165
v -0.854136 0.031706 -0.103782
v -0.853292 0.030930 -0.104656
v -0.853458 0.029893 -0.104285
v -0.847444 0.031211 -0.103814
v -0.847764 0.030056 -0.103505
v -0.848259 0.029396 -0.102329
v -0.849211 0.029686 -0.100822
v -0.849644 0.030384 -0.099455
v -0.849087 0.031528 -0.099562
v -0.847949 0.032272 -0.100671
v -0.847621 0.032160 -0.102491
v -0.843984 0.031111 -0.103887
v -0.844486 0.029708 -0.103429
v -0.845497 0.029084 -0.101952
v -0.846491 0.029312 -0.100189
v -0.846916 0.030143 -0.098461
v -0.846245 0.031542 -0.098471
v -0.845220 0.032443 -0.099921
v -0.844328 0.032356 -0.101983
v -0.855321 0.029295 -0.103543
v -0.855228 0.028877 -0.102020
v -0.854120 0.029787 -0.104736
v -0.856018 0.029196 -0.103750
v -0.854500 0.029595 -0.105212
v -0.856004 0.028779 -0.102018
v -0.856402 0.031477 -0.102409
v -0.855164 0.031631 -0.104214
v -0.856307 0.030676 -0.100875
v -0.855497 0.029683 -0.100382
v -0.853574 0.031034 -0.105284
v -0.857286 0.031341 -0.102590
v -0.855940 0.031537 -0.104518
v -0.854126 0.030963 -0.105892
v -0.856143 0.029528 -0.100385
v -0.857016 0.030512 -0.100959
v -0.858879 0.030463 -0.103248
v -0.858154 0.030859 -0.104318
v -0.857761 0.030224 -0.105232
v -0.857234 0.029217 -0.105210
v -0.858006 0.028929 -0.104138
v -0.858089 0.028819 -0.102932
v -0.858652 0.029398 -0.102253
v -0.858779 0.030050 -0.102223
v -0.858990 0.029654 -0.103821
v -0.858211 0.030994 -0.102862
v -0.857187 0.031269 -0.104485
v -0.856002 0.030643 -0.105862
v -0.855855 0.029261 -0.105484
v -0.856841 0.028840 -0.104036
v -0.857109 0.028724 -0.102466
v -0.857531 0.029391 -0.101223
v -0.858094 0.030287 -0.101511
v -0.843148 0.029242 -0.101708
v -0.842395 0.029378 -0.103243
v -0.842155 0.030635 -0.103565
v -0.842564 0.031660 -0.101740
v -0.843404 0.031814 -0.099475
v -0.844182 0.031117 -0.098068
v -0.844598 0.029919 -0.098583
v -0.843869 0.029423 -0.099901
v -0.844251 0.028720 -0.101940
v -0.843160 0.029261 -0.103808
v -0.842533 0.030934 -0.104428
v -0.842769 0.032672 -0.102022
v -0.843849 0.032923 -0.099139
v -0.845302 0.031714 -0.097171
v -0.845564 0.029525 -0.097731
v -0.845062 0.028746 -0.100018
v -0.850849 0.029387 -0.101949
v -0.851393 0.029899 -0.100673
v -0.851527 0.030776 -0.100030
v -0.850889 0.031727 -0.100632
v -0.850258 0.032137 -0.102084
v -0.850063 0.031559 -0.103675
v -0.849997 0.030499 -0.104021
v -0.850245 0.029611 -0.103324
v -0.852906 0.029239 -0.102330
v -0.852466 0.029545 -0.103642
v -0.852983 0.031886 -0.102601
v -0.853464 0.031360 -0.101227
v -0.853553 0.030492 -0.100657
v -0.853260 0.029713 -0.101122
v -0.854770 0.029086 -0.102734
v -0.854446 0.029600 -0.103958
v -0.852240 0.030386 -0.104356
v -0.852410 0.031395 -0.104095
v -0.855315 0.031664 -0.103168
v -0.854052 0.031474 -0.104599
v -0.853435 0.030284 -0.104869
v -0.854737 0.029263 -0.101179
v -0.855893 0.031152 -0.101516
v -0.855396 0.030294 -0.100577
v -0.858722 0.030384 -0.104219
v -0.858172 0.029443 -0.104731
v -0.858655 0.029133 -0.103273
v -0.859032 0.029884 -0.102834
v -0.847951 0.029895 -0.099681
v -0.845664 0.030516 -0.103702
v -0.843337 0.030093 -0.104210
v -0.845511 0.031820 -0.103094
v -0.843262 0.031962 -0.103299
v -0.846313 0.029494 -0.102876
v -0.844232 0.029022 -0.102928
v -0.847216 0.029311 -0.101269
v -0.845326 0.028837 -0.101020
v -0.846077 0.029262 -0.099026
v -0.847827 0.031009 -0.098783
v -0.846227 0.030774 -0.097499
v -0.846887 0.031993 -0.099591
v -0.845256 0.032319 -0.098531
v -0.845922 0.032397 -0.101165
v -0.844042 0.032813 -0.100717
v -0.842198 0.029893 -0.104130
v -0.843991 0.032271 -0.098029
v -0.844939 0.030534 -0.097585
v -0.842424 0.030205 -0.102673
v -0.843196 0.028905 -0.102803
v -0.842166 0.031704 -0.103193
v -0.842783 0.032653 -0.100499
v -0.842933 0.030503 -0.100498
v -0.843831 0.030499 -0.098930
v -0.844566 0.029064 -0.099000
v -0.844203 0.028881 -0.100900
v -0.854159 0.029190 -0.102537
v -0.854298 0.029567 -0.101240
v -0.854777 0.030342 -0.100802
v -0.855059 0.031183 -0.101490
v -0.854599 0.031748 -0.102958
v -0.853618 0.031413 -0.104357
v -0.853225 0.030343 -0.104634
v -0.853829 0.029580 -0.103819
v -0.847579 0.030585 -0.103810
v -0.847986 0.029616 -0.103042
v -0.848812 0.029423 -0.101536
v -0.849469 0.029976 -0.100089
v -0.849494 0.031016 -0.099306
v -0.848579 0.031964 -0.100039
v -0.847732 0.032325 -0.101540
v -0.847471 0.031781 -0.103291
v -0.844152 0.030306 -0.103885
v -0.845003 0.029276 -0.102818
v -0.846041 0.029081 -0.101088
v -0.846799 0.029631 -0.099284
v -0.846712 0.030900 -0.098158
v -0.845731 0.032093 -0.099082
v -0.844731 0.032531 -0.100905
v -0.844038 0.031899 -0.103130
v -0.849959 0.031055 -0.104038
v -0.850060 0.030005 -0.103759
v -0.850437 0.029412 -0.102665
v -0.851174 0.029600 -0.101280
v -0.851540 0.030288 -0.100177
v -0.851284 0.031277 -0.100213
v -0.850478 0.032065 -0.101267
v -0.850177 0.031949 -0.102982
v -0.845499 0.031200 -0.103720
v -0.845950 0.029976 -0.103315
v -0.846704 0.029267 -0.102106
v -0.847661 0.029609 -0.100472
v -0.848080 0.030343 -0.098941
v -0.847401 0.031517 -0.099091
v -0.846310 0.032329 -0.100274
v -0.845669 0.032215 -0.102144
v -0.852666 0.029308 -0.103033
v -0.853088 0.029424 -0.101666
v -0.853437 0.030089 -0.100745
v -0.853569 0.030921 -0.100836
v -0.853277 0.031716 -0.101840
v -0.852756 0.031741 -0.103482
v -0.852287 0.030920 -0.104407
v -0.852296 0.029911 -0.104096
v -0.854749 0.029316 -0.103402
v -0.855333 0.029027 -0.102873
v -0.854697 0.029035 -0.101968
v -0.854865 0.029557 -0.104195
v -0.853875 0.029845 -0.104463
v -0.855384 0.029385 -0.104555
v -0.856097 0.028929 -0.102921
v -0.855749 0.031480 -0.102317
v -0.854698 0.031667 -0.103979
v -0.855902 0.031637 -0.103349
v -0.855742 0.030749 -0.100899
v -0.856499 0.031120 -0.101551
v -0.855917 0.030216 -0.100459
v -0.854963 0.029796 -0.100639
v -0.855146 0.029024 -0.101073
v -0.853503 0.030203 -0.105182
v -0.853480 0.030983 -0.104910
v -0.854366 0.031503 -0.104866
v -0.856731 0.031538 -0.103599
v -0.855087 0.031409 -0.105273
v -0.853849 0.030087 -0.105827
v -0.855841 0.028893 -0.101016
v -0.856577 0.030056 -0.100499
v -0.857336 0.030954 -0.101675
v -0.858588 0.030706 -0.103842
v -0.858052 0.030663 -0.104757
v -0.857497 0.029629 -0.105334
v -0.857660 0.029058 -0.104723
v -0.858142 0.028838 -0.103498
v -0.858399 0.029048 -0.102608
v -0.858796 0.029768 -0.102175
v -0.858899 0.030214 -0.102683
v -0.859054 0.030127 -0.103497
v -0.858984 0.029483 -0.102953
v -0.858546 0.029247 -0.104036
v -0.858545 0.029943 -0.104635
v -0.857299 0.028923 -0.101696
v -0.857803 0.029842 -0.101199
v -0.858273 0.030678 -0.102098
v -0.857777 0.031216 -0.103678
v -0.856362 0.029003 -0.104745
v -0.857025 0.028732 -0.103270
v -0.856569 0.031113 -0.105238
v -0.855736 0.029877 -0.105976
v -0.844803 0.028848 -0.101979
v -0.843725 0.029449 -0.103674
v -0.842737 0.029241 -0.102617
v -0.842089 0.029939 -0.103541
v -0.843195 0.031020 -0.104174
v -0.842338 0.031247 -0.102865
v -0.843588 0.032574 -0.101982
v -0.843023 0.031829 -0.100540
v -0.844623 0.032719 -0.099555
v -0.843725 0.031487 -0.098622
v -0.845827 0.031648 -0.097809
v -0.844444 0.030527 -0.098213
v -0.846269 0.029854 -0.098043
v -0.844332 0.029671 -0.099202
v -0.843487 0.029213 -0.100745
v -0.844403 0.028956 -0.100017
v -0.842707 0.029888 -0.104463
v -0.842513 0.031952 -0.103464
v -0.843231 0.032959 -0.100577
v -0.844612 0.032542 -0.097921
v -0.845644 0.030575 -0.097105
v -0.843687 0.028872 -0.102940
v -0.844714 0.028696 -0.100972
v -0.845364 0.028929 -0.098912
v -0.843750 0.028801 -0.101817
v -0.842640 0.029240 -0.103606
v -0.842094 0.030769 -0.104024
v -0.842312 0.032374 -0.101869
v -0.843345 0.032615 -0.099137
v -0.844612 0.031498 -0.097379
v -0.844791 0.029606 -0.098178
v -0.845788 0.028960 -0.100067
v -0.842427 0.030357 -0.101630
v -0.843357 0.030514 -0.099619
f 1 129 88
f 1 88 177
f 1 177 89
f 1 89 136
f 2 130 95
f 2 95 179
f 179 88 129
f 179 129 2
f 3 131 97
f 3 97 190
f 3 190 95
f 3 95 130
f 4 132 96
f 4 96 187
f 4 187 97
f 4 97 131
f 5 133 92
f 5 92 184
f 5 184 96
f 5 96 132
f 6 134 93
f 6 93 185
f 6 185 92
f 6 92 133
f 7 135 94
f 7 94 193
f 7 193 93
f 7 93 134
f 8 136 89
f 8 89 181
f 181 94 135
f 181 135 8
f 161 103 137
f 161 137 9
f 144 105 161
f 144 161 9
f 162 107 138
f 162 138 10
f 137 103 162
f 137 162 10
f 163 109 139
f 163 139 11
f 138 107 163
f 138 163 11
f 164 102 140
f 164 140 12
f 139 109 164
f 139 164 12
f 165 112 141
f 165 141 13
f 140 102 165
f 140 165 13
f 166 114 142
f 166 142 14
f 141 112 166
f 141 166 14
f 167 116 143
f 167 143 15
f 142 114 167
f 142 167 15
f 168 105 144
f 168 144 16
f 143 116 168
f 143 168 16
f 17 145 103
f 17 103 161
f 225 104 145
f 225 145 17
f 152 106 225
f 152 225 17
f 161 105 152
f 161 152 17
f 18 146 107
f 18 107 162
f 222 108 146
f 222 146 18
f 145 104 222
f 145 222 18
f 162 103 145
f 162 145 18
f 19 147 109
f 19 109 163
f 221 110 147
f 221 147 19
f 146 108 221
f 146 221 19
f 163 107 146
f 163 146 19
f 20 148 102
f 20 102 164
f 252 111 148
f 252 148 20
f 164 109 147
f 164 147 20
f 20 147 110
f 20 110 252
f 21 149 112
f 21 112 165
f 233 113 149
f 233 149 21
f 148 111 233
f 148 233 21
f 165 102 148
f 165 148 21
f 22 150 114
f 22 114 166
f 231 115 150
f 231 150 22
f 149 113 231
f 149 231 22
f 166 112 149
f 166 149 22
f 23 151 116
f 23 116 167
f 229 117 151
f 229 151 23
f 150 115 229
f 150 229 23
f 167 114 150
f 167 150 23
f 24 152 105
f 24 105 168
f 227 106 152
f 227 152 24
f 151 117 227
f 151 227 24
f 168 116 151
f 168 151 24
f 209 98 212
f 209 212 49
f 49 212 99
f 49 99 211
f 210 101 209
f 210 209 49
f 211 100 210
f 211 210 49
f 58 223 121
f 58 121 253
f 245 122 223
f 245 223 58
f 253 125 235
f 253 235 58
f 58 235 128
f 58 128 245
f 246 118 224
f 246 224 59
f 59 224 121
f 59 121 223
f 59 223 122
f 59 122 246
f 60 226 121
f 60 121 224
f 247 123 226
f 247 226 60
f 60 224 118
f 60 118 247
f 248 124 228
f 248 228 61
f 61 228 125
f 61 125 253
f 61 253 121
f 61 121 226
f 61 226 123
f 61 123 248
f 249 119 230
f 249 230 62
f 62 230 126
f 62 126 254
f 62 254 125
f 62 125 228
f 62 228 124
f 62 124 249
f 250 120 232
f 250 232 63
f 63 232 126
f 63 126 230
f 63 230 119
f 63 119 250
f 64 234 126
f 64 126 232
f 251 127 234
f 251 234 64
f 64 232 120
f 64 120 251
f 234 127 236
f 234 236 65
f 65 236 128
f 65 128 235
f 254 126 234
f 254 234 65
f 65 235 125
f 65 125 254
f 66 243 110
f 66 110 221
f 245 128 243
f 245 243 66
f 242 122 245
f 242 245 66
f 66 221 108
f 66 108 242
f 222 104 237
f 222 237 67
f 67 237 118
f 67 118 246
f 67 242 108
f 67 108 222
f 246 122 242
f 246 242 67
f 225 106 238
f 225 238 68
f 68 238 123
f 68 123 247
f 68 247 118
f 68 118 237
f 237 104 225
f 237 225 68
f 227 117 239
f 227 239 69
f 69 239 124
f 69 124 248
f 69 248 123
f 69 123 238
f 238 106 227
f 238 227 69
f 229 115 240
f 229 240 70
f 70 240 119
f 70 119 249
f 70 249 124
f 70 124 239
f 239 117 229
f 239 229 70
f 231 113 241
f 231 241 71
f 71 241 120
f 71 120 250
f 71 250 119
f 71 119 240
f 240 115 231
f 240 231 71
f 233 111 244
f 233 244 72
f 72 244 127
f 72 127 251
f 72 251 120
f 72 120 241
f 241 113 233
f 241 233 72
f 73 252 110
f 73 110 243
f 244 111 252
f 244 252 73
f 73 236 127
f 73 127 244
f 243 128 236
f 243 236 73
f 201 98 209
f 201 209 41
f 41 50 216
f 41 216 201
f 212 98 202
f 212 202 43
f 202 219 52
f 202 52 43
f 45 211 99
f 45 99 204
f 204 217 54
f 204 54 45
f 47 210 100
f 47 100 206
f 47 207 101
f 47 101 210
f 56 214 207
f 56 207 47
f 206 213 56
f 206 56 47
f 203 43 52
f 203 52 220
f 99 212 43
f 99 43 203
f 100 211 45
f 100 45 205
f 205 45 54
f 205 54 218
f 208 41 209
f 208 209 101
f 215 50 41
f 215 41 208
f 42 201 216
f 42 216 51
f 202 98 201
f 202 201 42
f 51 219 202
f 51 202 42
f 46 206 100
f 46 100 205
f 55 213 206
f 55 206 46
f 205 218 55
f 205 55 46
f 44 204 99
f 44 99 203
f 53 217 204
f 53 204 44
f 203 220 53
f 203 53 44
f 48 208 101
f 48 101 207
f 57 215 208
f 57 208 48
f 207 214 57
f 207 57 48
f 28 183 218
f 28 218 54
f 177 88 178
f 177 178 25
f 25 178 183
f 25 183 28
f 192 94 181
f 192 181 27
f 29 53 220
f 29 220 197
f 27 29 197
f 27 197 192
f 30 55 218
f 30 218 183
f 178 88 179
f 178 179 26
f 26 30 183
f 26 183 178
f 184 92 186
f 184 186 31
f 31 186 195
f 31 195 36
f 36 195 216
f 36 216 50
f 193 94 192
f 193 192 35
f 192 197 38
f 192 38 35
f 38 197 220
f 38 220 52
f 190 97 189
f 190 189 34
f 189 199 39
f 189 39 34
f 39 199 214
f 39 214 56
f 40 57 214
f 40 214 199
f 33 189 97
f 33 97 187
f 40 199 189
f 40 189 33
f 196 38 52
f 196 52 219
f 194 35 38
f 194 38 196
f 93 193 35
f 93 35 194
f 191 26 179
f 191 179 95
f 198 39 56
f 198 56 213
f 191 34 39
f 191 39 198
f 95 190 34
f 95 34 191
f 198 30 26
f 198 26 191
f 213 55 30
f 213 30 198
f 32 185 93
f 32 93 194
f 37 51 216
f 37 216 195
f 194 196 37
f 194 37 32
f 32 37 195
f 32 195 186
f 186 92 185
f 186 185 32
f 37 196 219
f 37 219 51
f 180 27 181
f 180 181 89
f 217 53 29
f 217 29 182
f 180 25 28
f 180 28 182
f 89 177 25
f 89 25 180
f 182 29 27
f 182 27 180
f 182 28 54
f 182 54 217
f 188 33 187
f 188 187 96
f 200 36 50
f 200 50 215
f 188 31 36
f 188 36 200
f 96 184 31
f 96 31 188
f 200 40 33
f 200 33 188
f 215 57 40
f 215 40 200
f 153 9 137
f 153 137 80
f 90 175 153
f 90 153 80
f 90 135 7
f 90 7 175
f 129 1 169
f 129 169 82
f 155 11 139
f 155 139 74
f 82 169 155
f 82 155 74
f 157 13 141
f 157 141 76
f 86 171 157
f 86 157 76
f 86 131 3
f 86 3 171
f 159 15 143
f 159 143 78
f 84 173 159
f 84 159 78
f 133 5 173
f 133 173 84
f 80 137 10
f 80 10 154
f 176 8 135
f 176 135 90
f 154 176 90
f 154 90 80
f 76 141 14
f 76 14 158
f 172 4 131
f 172 131 86
f 158 172 86
f 158 86 76
f 154 10 138
f 154 138 81
f 136 8 176
f 136 176 83
f 155 169 83
f 155 83 81
f 81 83 176
f 81 176 154
f 138 11 155
f 138 155 81
f 83 169 1
f 83 1 136
f 77 142 15
f 77 15 159
f 173 5 132
f 173 132 85
f 158 14 142
f 158 142 77
f 85 172 158
f 85 158 77
f 159 173 85
f 159 85 77
f 85 132 4
f 85 4 172
f 74 139 12
f 74 12 156
f 170 2 129
f 170 129 82
f 156 170 82
f 156 82 74
f 75 140 13
f 75 13 157
f 171 3 130
f 171 130 87
f 156 12 140
f 156 140 75
f 87 170 156
f 87 156 75
f 157 171 87
f 157 87 75
f 130 2 170
f 130 170 87
f 78 143 16
f 78 16 160
f 174 6 133
f 174 133 84
f 160 174 84
f 160 84 78
f 79 144 9
f 79 9 153
f 175 7 134
f 175 134 91
f 160 16 144
f 160 144 79
f 91 174 160
f 91 160 79
f 153 175 91
f 153 91 79
f 134 6 174
f 134 174 91
