# _4th_Proximal_Phalanges_Hand_R rest
v -0.833015 0.031911 -0.096617
v -0.830733 0.029958 -0.100420
v -0.829025 0.029895 -0.099808
v -0.827328 0.027797 -0.101180
v -0.827070 0.025745 -0.100344
v -0.829234 0.025042 -0.100560
v -0.831739 0.026159 -0.099956
v -0.832218 0.027537 -0.101052
v -0.832371 0.029484 -0.099959
v -0.829175 0.027121 -0.102243
v -0.831510 0.032107 -0.096215
v -0.834016 0.030781 -0.096929
v -0.835510 0.032607 -0.093204
v -0.836268 0.031629 -0.094466
v -0.833510 0.032271 -0.092762
v -0.834048 0.030952 -0.091249
v -0.835967 0.030888 -0.091944
v -0.837242 0.030248 -0.093756
v -0.834847 0.028519 -0.092813
v -0.835804 0.028671 -0.094053
v -0.833193 0.028901 -0.092185
v -0.831869 0.026777 -0.096293
v -0.833650 0.027549 -0.096902
v -0.834795 0.029108 -0.097332
v -0.830288 0.027280 -0.095912
v -0.825626 0.028298 -0.099961
v -0.827135 0.030413 -0.098575
v -0.825708 0.026575 -0.099186
v -0.829141 0.031973 -0.095804
v -0.830609 0.031880 -0.093176
v -0.830892 0.030642 -0.092203
v -0.830275 0.029070 -0.092770
v -0.828054 0.027264 -0.095615
v -0.826949 0.030386 -0.091706
v -0.826563 0.031825 -0.093019
v -0.825275 0.031728 -0.095250
v -0.823660 0.030570 -0.097379
v -0.822187 0.028518 -0.098878
v -0.822075 0.026683 -0.098222
v -0.823635 0.026625 -0.095570
v -0.825554 0.028107 -0.092949
v -0.822560 0.030500 -0.090237
v -0.821954 0.032205 -0.092181
v -0.820437 0.031890 -0.094659
v -0.818818 0.030709 -0.096800
v -0.817280 0.028621 -0.098354
v -0.817187 0.026676 -0.097618
v -0.818516 0.026332 -0.095174
v -0.820636 0.027674 -0.092183
v -0.817935 0.030528 -0.089847
v -0.817388 0.032247 -0.091632
v -0.815960 0.032083 -0.094063
v -0.814249 0.030781 -0.096336
v -0.812696 0.028608 -0.097925
v -0.812505 0.026544 -0.097275
v -0.814039 0.026413 -0.094584
v -0.816192 0.027755 -0.091440
v -0.814365 0.030685 -0.087669
v -0.813869 0.033099 -0.089851
v -0.812163 0.033278 -0.092991
v -0.809894 0.031267 -0.095957
v -0.807733 0.028284 -0.098097
v -0.807111 0.025090 -0.097581
v -0.809510 0.025997 -0.093543
v -0.812137 0.027109 -0.089475
v -0.810352 0.034001 -0.092598
v -0.807420 0.031692 -0.096431
v -0.804161 0.028027 -0.098918
v -0.803319 0.024702 -0.097615
v -0.806885 0.026448 -0.093199
v -0.809387 0.026846 -0.087661
v -0.812703 0.031147 -0.085699
v -0.812460 0.033836 -0.088742
v -0.808621 0.033450 -0.092419
v -0.810625 0.033650 -0.089213
v -0.809821 0.031732 -0.087816
v -0.807904 0.028683 -0.088621
v -0.806200 0.028092 -0.092932
v -0.803375 0.027177 -0.096048
v -0.803553 0.029425 -0.096734
v -0.806035 0.032228 -0.095641
v -0.807064 0.031016 -0.092573
v -0.834150 0.027822 -0.094859
v -0.830977 0.028485 -0.101317
v -0.836822 0.031671 -0.092901
v -0.836554 0.029584 -0.092596
v -0.833298 0.027330 -0.099047
v -0.833446 0.029338 -0.098909
v -0.832592 0.030686 -0.098524
v -0.834842 0.031913 -0.095289
v -0.835844 0.030640 -0.095592
v -0.835656 0.028767 -0.095465
v -0.830315 0.025801 -0.101835
v -0.831620 0.026163 -0.098407
v -0.827463 0.025890 -0.102136
v -0.828826 0.028642 -0.101422
v -0.831008 0.031066 -0.098453
v -0.833611 0.032564 -0.094456
v -0.835185 0.031944 -0.091739
v -0.834905 0.029877 -0.091557
v -0.832738 0.027804 -0.094020
v -0.829273 0.025676 -0.098440
v -0.824051 0.029010 -0.091458
v -0.820280 0.031767 -0.090592
v -0.818946 0.032264 -0.093188
v -0.817354 0.031501 -0.095554
v -0.815704 0.029786 -0.097478
v -0.814691 0.027493 -0.098109
v -0.815434 0.026267 -0.096289
v -0.817282 0.026776 -0.093380
v -0.819556 0.028927 -0.090464
v -0.829304 0.031278 -0.097827
v -0.826526 0.031338 -0.096774
v -0.822114 0.031367 -0.096011
v -0.827369 0.029089 -0.100027
v -0.824770 0.029583 -0.098854
v -0.820470 0.029718 -0.097948
v -0.826380 0.027121 -0.100516
v -0.823863 0.027400 -0.099436
v -0.819460 0.027461 -0.098575
v -0.827799 0.026464 -0.097939
v -0.824885 0.026427 -0.097309
v -0.820264 0.026319 -0.096704
v -0.830872 0.028300 -0.093894
v -0.827105 0.027648 -0.094117
v -0.822047 0.026936 -0.093958
v -0.832537 0.030092 -0.091756
v -0.828677 0.029591 -0.092278
v -0.831483 0.032360 -0.094282
v -0.828138 0.032000 -0.094294
v -0.832427 0.031379 -0.092290
v -0.829012 0.031282 -0.092450
v -0.824713 0.031497 -0.091565
v -0.823640 0.032065 -0.093763
v -0.812886 0.031742 -0.094819
v -0.811022 0.029837 -0.097095
v -0.809709 0.027086 -0.098059
v -0.810667 0.025937 -0.095731
v -0.812777 0.026912 -0.092344
v -0.815035 0.028988 -0.089513
v -0.815767 0.031778 -0.089767
v -0.814625 0.032648 -0.092195
v -0.812247 0.033985 -0.090811
v -0.813585 0.032560 -0.087597
v -0.812541 0.028673 -0.086476
v -0.809021 0.025850 -0.090980
v -0.806230 0.024938 -0.095560
v -0.804874 0.026185 -0.098838
v -0.807060 0.029917 -0.097498
v -0.809797 0.032913 -0.094618
v -0.810708 0.034223 -0.090576
v -0.811865 0.033129 -0.087063
v -0.809952 0.029513 -0.086184
v -0.807167 0.027273 -0.090945
v -0.804314 0.026230 -0.095028
v -0.802962 0.027034 -0.097918
v -0.804716 0.030435 -0.097727
v -0.808193 0.033241 -0.094419
v -0.809236 0.032744 -0.090291
v -0.806023 0.031773 -0.094567
v -0.807895 0.030024 -0.090504
v -0.804699 0.028822 -0.094882
v -0.831818 0.031033 -0.098526
v -0.829828 0.029840 -0.100201
v -0.828079 0.028814 -0.100732
v -0.826885 0.026653 -0.101302
v -0.827838 0.025044 -0.100698
v -0.830686 0.025568 -0.100267
v -0.831960 0.026474 -0.100717
v -0.832290 0.028698 -0.100570
v -0.831722 0.029746 -0.100359
v -0.827941 0.027309 -0.102162
v -0.830506 0.027176 -0.101868
v -0.829832 0.028577 -0.101702
v -0.828714 0.025553 -0.102285
v -0.832290 0.032076 -0.096401
v -0.830180 0.031104 -0.098239
v -0.833591 0.031366 -0.096803
v -0.833071 0.030091 -0.098566
v -0.834356 0.032505 -0.094851
v -0.836118 0.032211 -0.093921
v -0.835220 0.031251 -0.095521
v -0.832676 0.032451 -0.094254
v -0.834627 0.032557 -0.092799
v -0.833984 0.031779 -0.091649
v -0.836000 0.031869 -0.092260
v -0.835147 0.030947 -0.091443
v -0.836889 0.030733 -0.092494
v -0.837038 0.031224 -0.094020
v -0.836595 0.029267 -0.093819
v -0.835743 0.029745 -0.091943
v -0.835496 0.028582 -0.093437
v -0.833874 0.029962 -0.091378
v -0.834129 0.028669 -0.092309
v -0.830434 0.025715 -0.098349
v -0.832595 0.026750 -0.098610
v -0.832810 0.027038 -0.096587
v -0.834901 0.028203 -0.095239
v -0.833417 0.027682 -0.094412
v -0.834380 0.028196 -0.097211
v -0.833692 0.028296 -0.099220
v -0.836303 0.029654 -0.095605
v -0.834465 0.030103 -0.097143
v -0.831032 0.026935 -0.096082
v -0.828467 0.026084 -0.098303
v -0.831938 0.028095 -0.093844
v -0.826706 0.028096 -0.100437
v -0.828231 0.030148 -0.099236
v -0.826252 0.029385 -0.099427
v -0.826597 0.026304 -0.099821
v -0.825372 0.027279 -0.099963
v -0.828131 0.031359 -0.097291
v -0.830445 0.032087 -0.096039
v -0.830007 0.032183 -0.094343
v -0.832171 0.031982 -0.092974
v -0.830846 0.031287 -0.092531
v -0.832539 0.030774 -0.091858
v -0.830793 0.029957 -0.092197
v -0.832005 0.029164 -0.092399
v -0.829317 0.028127 -0.093972
v -0.829425 0.027432 -0.095753
v -0.826742 0.026588 -0.097524
v -0.826911 0.031317 -0.092155
v -0.825985 0.031952 -0.094090
v -0.824487 0.031260 -0.096374
v -0.822871 0.029651 -0.098250
v -0.821891 0.027451 -0.098889
v -0.822698 0.026341 -0.097022
v -0.824599 0.027208 -0.094185
v -0.826382 0.029210 -0.092037
v -0.822522 0.031714 -0.090933
v -0.821178 0.032161 -0.093513
v -0.819649 0.031418 -0.095769
v -0.817994 0.029753 -0.097710
v -0.816967 0.027461 -0.098340
v -0.817752 0.026275 -0.096492
v -0.819552 0.026812 -0.093648
v -0.821765 0.028924 -0.090851
v -0.817842 0.031623 -0.090528
v -0.816757 0.032365 -0.092832
v -0.815126 0.031554 -0.095248
v -0.813426 0.029800 -0.097255
v -0.812303 0.027376 -0.098021
v -0.813133 0.026220 -0.096069
v -0.815069 0.026918 -0.093010
v -0.817303 0.028983 -0.090179
v -0.814424 0.032227 -0.088437
v -0.813105 0.033449 -0.091356
v -0.811022 0.032503 -0.094605
v -0.808798 0.029908 -0.097106
v -0.806997 0.026539 -0.098518
v -0.808202 0.025267 -0.095579
v -0.810709 0.026384 -0.091540
v -0.813511 0.028795 -0.087977
v -0.824730 0.030420 -0.090994
v -0.824262 0.031973 -0.092622
v -0.822906 0.031841 -0.094910
v -0.821277 0.030657 -0.097041
v -0.819774 0.028594 -0.098581
v -0.819671 0.026673 -0.097863
v -0.821089 0.026452 -0.095367
v -0.823057 0.027808 -0.092599
v -0.820342 0.030558 -0.089880
v -0.819692 0.032265 -0.091877
v -0.818167 0.031996 -0.094404
v -0.816516 0.030748 -0.096591
v -0.815016 0.028650 -0.098095
v -0.814867 0.026668 -0.097399
v -0.816265 0.026325 -0.094895
v -0.818390 0.027629 -0.091861
v -0.815737 0.030519 -0.089159
v -0.815360 0.032528 -0.090857
v -0.813769 0.032300 -0.093570
v -0.811928 0.030925 -0.096034
v -0.810216 0.028480 -0.097864
v -0.809934 0.026102 -0.097166
v -0.811668 0.026307 -0.094076
v -0.813950 0.027694 -0.090684
v -0.827387 0.031816 -0.095545
v -0.825629 0.030580 -0.097901
v -0.824083 0.028442 -0.099455
v -0.824109 0.026641 -0.098683
v -0.826019 0.026910 -0.095620
v -0.828023 0.028613 -0.092984
v -0.829033 0.030528 -0.092098
v -0.828699 0.031814 -0.093211
v -0.811127 0.033807 -0.092745
v -0.808466 0.031458 -0.096182
v -0.808974 0.033142 -0.094601
v -0.805556 0.030109 -0.098105
v -0.805765 0.028109 -0.098515
v -0.803454 0.026276 -0.098750
v -0.804902 0.024595 -0.097813
v -0.804814 0.025122 -0.095404
v -0.807942 0.026035 -0.093239
v -0.807755 0.026192 -0.090931
v -0.810782 0.026571 -0.088092
v -0.811354 0.028951 -0.085941
v -0.813563 0.030892 -0.086402
v -0.812967 0.032928 -0.086941
v -0.813015 0.033496 -0.089180
v -0.811569 0.034260 -0.090568
v -0.809525 0.033949 -0.092479
v -0.811473 0.033950 -0.088798
v -0.809823 0.033698 -0.090586
v -0.810449 0.032989 -0.088356
v -0.811273 0.031535 -0.086050
v -0.808838 0.030018 -0.087821
v -0.808179 0.027696 -0.087806
v -0.807212 0.028514 -0.090981
v -0.806336 0.027176 -0.093075
v -0.804539 0.027569 -0.094756
v -0.802916 0.026082 -0.096687
v -0.803209 0.028000 -0.096619
v -0.803499 0.028527 -0.098220
v -0.804693 0.031157 -0.096307
v -0.806531 0.032120 -0.096152
v -0.807165 0.032897 -0.094273
v -0.808633 0.031470 -0.090185
v -0.806508 0.029460 -0.092744
v -0.805115 0.030249 -0.094880
v -0.807849 0.032404 -0.092428
f 2 164 96
f 2 96 174
f 163 97 164
f 163 164 2
f 171 89 163
f 171 163 2
f 174 84 171
f 174 171 2
f 3 165 96
f 3 96 164
f 208 115 165
f 208 165 3
f 177 112 208
f 177 208 3
f 3 164 97
f 3 97 177
f 4 166 95
f 4 95 172
f 207 118 166
f 207 166 4
f 165 115 207
f 165 207 4
f 172 96 165
f 172 165 4
f 5 167 95
f 5 95 166
f 205 102 167
f 205 167 5
f 166 118 210
f 166 210 5
f 5 210 121
f 5 121 205
f 6 168 93
f 6 93 175
f 195 94 168
f 195 168 6
f 167 102 195
f 167 195 6
f 175 95 167
f 175 167 6
f 196 87 169
f 196 169 7
f 7 169 93
f 7 93 168
f 168 94 196
f 168 196 7
f 8 170 84
f 8 84 173
f 201 88 170
f 201 170 8
f 169 87 201
f 169 201 8
f 173 93 169
f 173 169 8
f 9 171 84
f 9 84 170
f 179 89 171
f 179 171 9
f 9 170 88
f 9 88 179
f 11 177 97
f 11 97 176
f 213 112 177
f 213 177 11
f 176 98 183
f 176 183 11
f 11 183 129
f 11 129 213
f 12 179 88
f 12 88 203
f 178 89 179
f 178 179 12
f 12 182 90
f 12 90 178
f 203 91 182
f 203 182 12
f 13 181 85
f 13 85 186
f 180 90 181
f 180 181 13
f 13 184 98
f 13 98 180
f 186 99 184
f 186 184 13
f 14 189 85
f 14 85 181
f 182 91 189
f 182 189 14
f 14 181 90
f 14 90 182
f 184 99 185
f 184 185 15
f 15 185 131
f 15 131 215
f 15 215 129
f 15 129 183
f 15 183 98
f 15 98 184
f 185 99 187
f 185 187 16
f 16 187 100
f 16 100 193
f 16 193 127
f 16 127 217
f 16 217 131
f 16 131 185
f 186 85 188
f 186 188 17
f 17 188 86
f 17 86 191
f 17 191 100
f 17 100 187
f 187 99 186
f 187 186 17
f 18 190 86
f 18 86 188
f 202 92 190
f 202 190 18
f 18 188 85
f 18 85 189
f 18 189 91
f 18 91 202
f 19 192 83
f 19 83 199
f 191 86 192
f 191 192 19
f 19 194 100
f 19 100 191
f 199 101 194
f 199 194 19
f 192 86 190
f 192 190 20
f 20 190 92
f 20 92 198
f 198 83 192
f 198 192 20
f 206 124 219
f 206 219 21
f 21 219 127
f 21 127 193
f 21 193 100
f 21 100 194
f 21 194 101
f 21 101 206
f 199 83 197
f 199 197 22
f 22 197 94
f 22 94 195
f 204 101 199
f 204 199 22
f 195 102 204
f 195 204 22
f 197 83 198
f 197 198 23
f 23 198 92
f 23 92 200
f 23 200 87
f 23 87 196
f 23 196 94
f 23 94 197
f 24 202 91
f 24 91 203
f 200 92 202
f 200 202 24
f 24 203 88
f 24 88 201
f 201 87 200
f 201 200 24
f 204 102 205
f 204 205 25
f 25 205 121
f 25 121 221
f 25 206 101
f 25 101 204
f 221 124 206
f 221 206 25
f 207 115 209
f 207 209 26
f 26 209 116
f 26 116 281
f 26 211 118
f 26 118 207
f 281 119 211
f 281 211 26
f 208 112 212
f 208 212 27
f 27 212 113
f 27 113 280
f 209 115 208
f 209 208 27
f 280 116 209
f 280 209 27
f 28 210 118
f 28 118 211
f 222 121 210
f 222 210 28
f 28 211 119
f 28 119 282
f 282 122 222
f 282 222 28
f 213 129 214
f 213 214 29
f 29 214 130
f 29 130 279
f 29 212 112
f 29 112 213
f 279 113 212
f 279 212 29
f 215 131 216
f 215 216 30
f 30 216 132
f 30 132 286
f 30 286 130
f 30 130 214
f 30 214 129
f 30 129 215
f 217 127 218
f 217 218 31
f 31 218 128
f 31 128 285
f 31 216 131
f 31 131 217
f 285 132 216
f 285 216 31
f 219 124 220
f 219 220 32
f 32 220 125
f 32 125 284
f 32 284 128
f 32 128 218
f 32 218 127
f 32 127 219
f 221 121 222
f 221 222 33
f 33 222 122
f 33 122 283
f 33 283 125
f 33 125 220
f 33 220 124
f 33 124 221
f 34 223 132
f 34 132 285
f 255 133 223
f 255 223 34
f 230 103 255
f 230 255 34
f 34 285 128
f 34 128 230
f 35 224 130
f 35 130 286
f 256 134 224
f 256 224 35
f 223 133 256
f 223 256 35
f 286 132 223
f 286 223 35
f 36 225 113
f 36 113 279
f 257 114 225
f 257 225 36
f 224 134 257
f 224 257 36
f 36 279 130
f 36 130 224
f 37 226 116
f 37 116 280
f 258 117 226
f 258 226 37
f 225 114 258
f 225 258 37
f 37 280 113
f 37 113 225
f 38 227 119
f 38 119 281
f 259 120 227
f 259 227 38
f 226 117 259
f 226 259 38
f 38 281 116
f 38 116 226
f 39 228 122
f 39 122 282
f 260 123 228
f 260 228 39
f 227 120 260
f 227 260 39
f 39 282 119
f 39 119 227
f 40 229 125
f 40 125 283
f 261 126 229
f 261 229 40
f 228 123 261
f 228 261 40
f 283 122 228
f 283 228 40
f 262 103 230
f 262 230 41
f 41 230 128
f 41 128 284
f 229 126 262
f 229 262 41
f 284 125 229
f 284 229 41
f 263 104 231
f 263 231 42
f 42 231 133
f 42 133 255
f 238 111 263
f 238 263 42
f 255 103 238
f 255 238 42
f 264 105 232
f 264 232 43
f 43 232 134
f 43 134 256
f 231 104 264
f 231 264 43
f 256 133 231
f 256 231 43
f 265 106 233
f 265 233 44
f 44 233 114
f 44 114 257
f 232 105 265
f 232 265 44
f 257 134 232
f 257 232 44
f 266 107 234
f 266 234 45
f 45 234 117
f 45 117 258
f 233 106 266
f 233 266 45
f 258 114 233
f 258 233 45
f 267 108 235
f 267 235 46
f 46 235 120
f 46 120 259
f 234 107 267
f 234 267 46
f 259 117 234
f 259 234 46
f 268 109 236
f 268 236 47
f 47 236 123
f 47 123 260
f 235 108 268
f 235 268 47
f 260 120 235
f 260 235 47
f 269 110 237
f 269 237 48
f 48 237 126
f 48 126 261
f 236 109 269
f 236 269 48
f 261 123 236
f 261 236 48
f 49 238 103
f 49 103 262
f 270 111 238
f 270 238 49
f 237 110 270
f 237 270 49
f 262 126 237
f 262 237 49
f 50 239 104
f 50 104 263
f 271 141 239
f 271 239 50
f 246 140 271
f 246 271 50
f 263 111 246
f 263 246 50
f 51 240 105
f 51 105 264
f 272 142 240
f 272 240 51
f 239 141 272
f 239 272 51
f 264 104 239
f 264 239 51
f 52 241 106
f 52 106 265
f 273 135 241
f 273 241 52
f 240 142 273
f 240 273 52
f 265 105 240
f 265 240 52
f 53 242 107
f 53 107 266
f 274 136 242
f 274 242 53
f 241 135 274
f 241 274 53
f 266 106 241
f 266 241 53
f 54 243 108
f 54 108 267
f 275 137 243
f 275 243 54
f 242 136 275
f 242 275 54
f 267 107 242
f 267 242 54
f 55 244 109
f 55 109 268
f 276 138 244
f 276 244 55
f 243 137 276
f 243 276 55
f 268 108 243
f 268 243 55
f 56 245 110
f 56 110 269
f 277 139 245
f 277 245 56
f 244 138 277
f 244 277 56
f 269 109 244
f 269 244 56
f 57 246 111
f 57 111 270
f 278 140 246
f 278 246 57
f 245 139 278
f 245 278 57
f 270 110 245
f 270 245 57
f 58 247 141
f 58 141 271
f 299 144 247
f 299 247 58
f 254 145 299
f 254 299 58
f 271 140 254
f 271 254 58
f 59 248 142
f 59 142 272
f 301 143 248
f 301 248 59
f 247 144 301
f 247 301 59
f 272 141 247
f 272 247 59
f 60 249 135
f 60 135 273
f 287 150 249
f 287 249 60
f 248 143 287
f 248 287 60
f 273 142 248
f 273 248 60
f 61 250 136
f 61 136 274
f 288 149 250
f 288 250 61
f 249 150 288
f 249 288 61
f 274 135 249
f 274 249 61
f 62 251 137
f 62 137 275
f 291 148 251
f 291 251 62
f 250 149 291
f 250 291 62
f 275 136 250
f 275 250 62
f 63 252 138
f 63 138 276
f 293 147 252
f 293 252 63
f 251 148 293
f 251 293 63
f 276 137 251
f 276 251 63
f 64 253 139
f 64 139 277
f 295 146 253
f 295 253 64
f 252 147 295
f 252 295 64
f 277 138 252
f 277 252 64
f 65 254 140
f 65 140 278
f 297 145 254
f 297 254 65
f 253 146 297
f 253 297 65
f 278 139 253
f 278 253 65
f 66 289 150
f 66 150 287
f 303 158 289
f 303 289 66
f 302 151 303
f 302 303 66
f 66 287 143
f 66 143 302
f 67 290 149
f 67 149 288
f 317 157 290
f 317 290 67
f 289 158 317
f 289 317 67
f 67 288 150
f 67 150 289
f 68 292 148
f 68 148 291
f 315 156 292
f 315 292 68
f 290 157 315
f 290 315 68
f 291 149 290
f 291 290 68
f 69 294 147
f 69 147 293
f 313 155 294
f 313 294 69
f 292 156 313
f 292 313 69
f 293 148 292
f 293 292 69
f 70 296 146
f 70 146 295
f 311 154 296
f 311 296 70
f 294 155 311
f 294 311 70
f 295 147 294
f 295 294 70
f 71 298 145
f 71 145 297
f 309 153 298
f 309 298 71
f 296 154 309
f 296 309 71
f 297 146 296
f 297 296 71
f 72 300 144
f 72 144 299
f 307 152 300
f 307 300 72
f 298 153 307
f 298 307 72
f 299 145 298
f 299 298 72
f 73 302 143
f 73 143 301
f 304 151 302
f 304 302 73
f 300 152 304
f 300 304 73
f 301 144 300
f 301 300 73
f 303 151 305
f 303 305 74
f 74 305 159
f 74 159 322
f 318 158 303
f 318 303 74
f 322 160 318
f 322 318 74
f 304 152 306
f 304 306 75
f 75 306 159
f 75 159 305
f 305 151 304
f 305 304 75
f 307 153 308
f 307 308 76
f 76 308 161
f 76 161 319
f 76 319 159
f 76 159 306
f 76 306 152
f 76 152 307
f 309 154 310
f 309 310 77
f 77 310 161
f 77 161 308
f 77 308 153
f 77 153 309
f 311 155 312
f 311 312 78
f 78 312 162
f 78 162 320
f 78 320 161
f 78 161 310
f 78 310 154
f 78 154 311
f 313 156 314
f 313 314 79
f 79 314 162
f 79 162 312
f 79 312 155
f 79 155 313
f 315 157 316
f 315 316 80
f 80 316 160
f 80 160 321
f 80 314 156
f 80 156 315
f 321 162 314
f 321 314 80
f 317 158 318
f 317 318 81
f 81 318 160
f 81 160 316
f 81 316 157
f 81 157 317
f 82 321 160
f 82 160 322
f 320 162 321
f 320 321 82
f 82 322 159
f 82 159 319
f 82 319 161
f 82 161 320
f 84 174 10
f 84 10 173
f 178 1 163
f 178 163 89
f 90 180 1
f 90 1 178
f 93 173 10
f 93 10 175
f 95 175 10
f 95 10 172
f 172 10 174
f 172 174 96
f 97 163 1
f 97 1 176
f 176 1 180
f 176 180 98
