# _4th_Proximal_Phalanx_Foot_L rest
v 0.123390 -1.333688 0.141775
v 0.124608 -1.334017 0.142657
v 0.123029 -1.334648 0.144908
v 0.121090 -1.334128 0.143119
v 0.119121 -1.334662 0.142988
v 0.123245 -1.337426 0.145562
v 0.118509 -1.336129 0.142709
v 0.119805 -1.337061 0.142887
v 0.121083 -1.336899 0.143469
v 0.120929 -1.335255 0.143840
v 0.120008 -1.335542 0.143567
v 0.124207 -1.333865 0.142049
v 0.122775 -1.334690 0.143373
v 0.121693 -1.335464 0.144278
v 0.121449 -1.336837 0.143844
v 0.122040 -1.335549 0.144921
v 0.121820 -1.337071 0.144382
v 0.122779 -1.338010 0.145309
v 0.123203 -1.336086 0.145591
v 0.122299 -1.336112 0.145572
v 0.121014 -1.333916 0.141765
v 0.123580 -1.333763 0.140695
v 0.125046 -1.333938 0.141010
v 0.125811 -1.334352 0.142197
v 0.119684 -1.334586 0.141685
v 0.119052 -1.336499 0.141591
v 0.120188 -1.337563 0.142031
v 0.121526 -1.337399 0.142934
v 0.121879 -1.337347 0.143257
v 0.122369 -1.337673 0.143643
v 0.123252 -1.338480 0.144598
v 0.124188 -1.337824 0.144792
v 0.124782 -1.336564 0.144587
v 0.124865 -1.335284 0.144178
v 0.125974 -1.333991 0.139860
v 0.124895 -1.333904 0.139195
v 0.123809 -1.334603 0.138711
v 0.127013 -1.334580 0.140405
v 0.127462 -1.335547 0.140940
v 0.127515 -1.336890 0.141171
v 0.127150 -1.337851 0.141120
v 0.126351 -1.338618 0.140726
v 0.125461 -1.338500 0.140067
v 0.124747 -1.338293 0.139486
v 0.124014 -1.338242 0.139105
v 0.123259 -1.338123 0.138533
v 0.122790 -1.337139 0.138236
v 0.123202 -1.335848 0.138316
v 0.125231 -1.337073 0.136088
v 0.125536 -1.335921 0.136142
v 0.126154 -1.334677 0.136549
v 0.126880 -1.334056 0.136911
v 0.127843 -1.333948 0.137418
v 0.128683 -1.334551 0.137887
v 0.128978 -1.335627 0.138083
v 0.129023 -1.336606 0.138141
v 0.128936 -1.337584 0.138126
v 0.128424 -1.338400 0.137880
v 0.127605 -1.338688 0.137453
v 0.126789 -1.338681 0.137019
v 0.125916 -1.338491 0.136548
v 0.125204 -1.337755 0.136145
v 0.127327 -1.336993 0.133751
v 0.127510 -1.336039 0.133935
v 0.128096 -1.334914 0.134159
v 0.128817 -1.334248 0.134493
v 0.129858 -1.333935 0.134996
v 0.130753 -1.334637 0.135463
v 0.130989 -1.335824 0.135619
v 0.130998 -1.336817 0.135654
v 0.130913 -1.337789 0.135639
v 0.130461 -1.338696 0.135440
v 0.129643 -1.339254 0.135050
v 0.128672 -1.339259 0.134569
v 0.127746 -1.338854 0.134099
v 0.127252 -1.337882 0.133829
v 0.129158 -1.337360 0.131492
v 0.129396 -1.336365 0.131598
v 0.129941 -1.335143 0.131856
v 0.130699 -1.334373 0.132237
v 0.131834 -1.333966 0.132835
v 0.132656 -1.334959 0.133320
v 0.132841 -1.336077 0.133410
v 0.132809 -1.337196 0.133486
v 0.132692 -1.338131 0.133454
v 0.132325 -1.339090 0.133284
v 0.131572 -1.339893 0.132899
v 0.130524 -1.339950 0.132330
v 0.129536 -1.339468 0.131778
v 0.129118 -1.338325 0.131516
v 0.130809 -1.337778 0.129250
v 0.131005 -1.336809 0.129313
v 0.131551 -1.335478 0.129577
v 0.132563 -1.334327 0.130051
v 0.133834 -1.333883 0.130636
v 0.134799 -1.335138 0.131151
v 0.135058 -1.336341 0.131381
v 0.134992 -1.337728 0.131389
v 0.134897 -1.338858 0.131454
v 0.134500 -1.339990 0.131277
v 0.133509 -1.340937 0.130727
v 0.132303 -1.340776 0.130022
v 0.131112 -1.340185 0.129485
v 0.130713 -1.338889 0.129267
v 0.131554 -1.338223 0.126956
v 0.131977 -1.337043 0.126999
v 0.132846 -1.335657 0.127262
v 0.134196 -1.334241 0.127874
v 0.135517 -1.334056 0.128832
v 0.136714 -1.335247 0.129226
v 0.136992 -1.336429 0.129523
v 0.137000 -1.338032 0.129760
v 0.136905 -1.339572 0.129830
v 0.136422 -1.341001 0.129709
v 0.135142 -1.342084 0.128633
v 0.134015 -1.341796 0.127885
v 0.132490 -1.341219 0.127156
v 0.131559 -1.339533 0.126889
v 0.135329 -1.342816 0.126170
v 0.136360 -1.343390 0.126439
v 0.134589 -1.343013 0.125507
v 0.136569 -1.343489 0.124710
v 0.137565 -1.343874 0.124879
v 0.135890 -1.343401 0.124046
v 0.135423 -1.343389 0.122430
v 0.133806 -1.343057 0.123421
v 0.135848 -1.342283 0.120573
v 0.134152 -1.341757 0.121206
v 0.136595 -1.340593 0.119616
v 0.135059 -1.339856 0.120219
v 0.137214 -1.337904 0.119562
v 0.135685 -1.337650 0.120431
v 0.136247 -1.335472 0.121835
v 0.137570 -1.335806 0.120675
v 0.137506 -1.334094 0.123524
v 0.138424 -1.334659 0.121763
v 0.132343 -1.341124 0.125385
v 0.132577 -1.340186 0.123405
v 0.132998 -1.338876 0.123052
v 0.133717 -1.337163 0.123253
v 0.134850 -1.335652 0.123901
v 0.136465 -1.334086 0.125012
v 0.137639 -1.334064 0.125776
v 0.138857 -1.334248 0.124505
v 0.139770 -1.334666 0.123011
v 0.141437 -1.335770 0.123493
v 0.140326 -1.335576 0.124962
v 0.138994 -1.335426 0.126514
v 0.139301 -1.343525 0.126560
v 0.140317 -1.343888 0.124779
v 0.141115 -1.342544 0.125530
v 0.141912 -1.342715 0.123551
v 0.138393 -1.342509 0.127780
v 0.142740 -1.340649 0.123001
v 0.142233 -1.340336 0.124810
v 0.139761 -1.341583 0.127350
v 0.140665 -1.340025 0.126656
v 0.142677 -1.338618 0.122813
v 0.142224 -1.338591 0.124576
v 0.140638 -1.338524 0.126513
v 0.140064 -1.336982 0.126415
v 0.141463 -1.336986 0.124782
v 0.142433 -1.337131 0.122983
v 0.139260 -1.342118 0.123340
v 0.140043 -1.340163 0.122787
v 0.137044 -1.341975 0.122404
v 0.137719 -1.340185 0.121556
v 0.138249 -1.338213 0.121382
v 0.140313 -1.338409 0.122653
v 0.140315 -1.337174 0.122699
v 0.137992 -1.341961 0.122997
v 0.138818 -1.340161 0.122349
v 0.139274 -1.338432 0.122229
v 0.139352 -1.337311 0.122337
v 0.138711 -1.336763 0.121715
f 10 14 13
f 10 13 4
f 1 4 13
f 1 13 12
f 11 10 4
f 11 4 5
f 11 5 7
f 11 7 8
f 10 11 8
f 10 8 9
f 15 14 10
f 15 10 9
f 17 16 14
f 17 14 15
f 20 16 17
f 20 17 18
f 3 2 12
f 3 12 13
f 3 13 14
f 3 14 16
f 19 3 16
f 19 16 20
f 20 18 6
f 20 6 19
f 21 4 1
f 21 1 22
f 1 12 23
f 1 23 22
f 24 23 12
f 24 12 2
f 24 2 3
f 24 3 34
f 34 3 19
f 34 19 33
f 33 19 6
f 33 6 32
f 32 6 18
f 32 18 31
f 31 18 17
f 31 17 30
f 30 17 15
f 30 15 29
f 29 15 9
f 29 9 28
f 28 9 8
f 28 8 27
f 27 8 7
f 27 7 26
f 26 7 5
f 26 5 25
f 25 5 4
f 25 4 21
f 78 77 63
f 78 63 64
f 79 78 64
f 79 64 65
f 80 79 65
f 80 65 66
f 81 80 66
f 81 66 67
f 82 81 67
f 82 67 68
f 83 82 68
f 83 68 69
f 84 83 69
f 84 69 70
f 85 84 70
f 85 70 71
f 86 85 71
f 86 71 72
f 87 86 72
f 87 72 73
f 88 87 73
f 88 73 74
f 89 88 74
f 89 74 75
f 90 89 75
f 90 75 76
f 76 63 77
f 76 77 90
f 92 91 77
f 92 77 78
f 93 92 78
f 93 78 79
f 94 93 79
f 94 79 80
f 95 94 80
f 95 80 81
f 96 95 81
f 96 81 82
f 97 96 82
f 97 82 83
f 98 97 83
f 98 83 84
f 99 98 84
f 99 84 85
f 100 99 85
f 100 85 86
f 101 100 86
f 101 86 87
f 102 101 87
f 102 87 88
f 103 102 88
f 103 88 89
f 104 103 89
f 104 89 90
f 90 77 91
f 90 91 104
f 36 22 23
f 36 23 35
f 36 35 53
f 36 53 52
f 52 53 67
f 52 67 66
f 38 35 23
f 38 23 24
f 54 53 35
f 54 35 38
f 68 67 53
f 68 53 54
f 39 38 24
f 39 24 34
f 55 54 38
f 55 38 39
f 69 68 54
f 69 54 55
f 40 39 34
f 40 34 33
f 56 55 39
f 56 39 40
f 70 69 55
f 70 55 56
f 41 40 33
f 41 33 32
f 57 56 40
f 57 40 41
f 71 70 56
f 71 56 57
f 42 41 32
f 42 32 31
f 58 57 41
f 58 41 42
f 72 71 57
f 72 57 58
f 43 42 31
f 43 31 30
f 59 58 42
f 59 42 43
f 73 72 58
f 73 58 59
f 44 43 30
f 44 30 29
f 60 59 43
f 60 43 44
f 74 73 59
f 74 59 60
f 45 44 29
f 45 29 28
f 61 60 44
f 61 44 45
f 75 74 60
f 75 60 61
f 46 45 28
f 46 28 27
f 62 61 45
f 62 45 46
f 76 75 61
f 76 61 62
f 47 46 27
f 47 27 26
f 49 62 46
f 49 46 47
f 63 76 62
f 63 62 49
f 48 47 26
f 48 26 25
f 50 49 47
f 50 47 48
f 64 63 49
f 64 49 50
f 21 22 36
f 21 36 37
f 37 36 52
f 37 52 51
f 48 25 21
f 48 21 37
f 51 50 48
f 51 48 37
f 65 64 50
f 65 50 51
f 51 52 66
f 51 66 65
f 101 102 116
f 101 116 115
f 117 116 102
f 117 102 103
f 121 119 116
f 121 116 117
f 126 121 117
f 126 117 137
f 118 117 103
f 118 103 104
f 138 137 117
f 138 117 118
f 128 126 137
f 128 137 138
f 105 118 104
f 105 104 91
f 139 138 118
f 139 118 105
f 130 128 138
f 130 138 139
f 106 105 91
f 106 91 92
f 140 139 105
f 140 105 106
f 132 130 139
f 132 139 140
f 107 106 92
f 107 92 93
f 141 140 106
f 141 106 107
f 133 132 140
f 133 140 141
f 108 107 93
f 108 93 94
f 109 108 94
f 109 94 95
f 142 141 107
f 142 107 108
f 135 133 141
f 135 141 142
f 144 135 142
f 144 142 143
f 142 108 109
f 142 109 143
f 110 109 95
f 110 95 96
f 115 116 119
f 115 119 120
f 153 115 120
f 153 120 149
f 100 101 115
f 100 115 114
f 114 115 153
f 114 153 156
f 156 153 149
f 156 149 151
f 99 100 114
f 99 114 113
f 113 114 156
f 113 156 157
f 157 156 151
f 157 151 155
f 98 99 113
f 98 113 112
f 111 110 96
f 111 96 97
f 97 98 112
f 97 112 111
f 112 113 157
f 112 157 160
f 148 143 109
f 148 109 110
f 111 112 160
f 111 160 161
f 148 110 111
f 148 111 161
f 160 157 155
f 160 155 159
f 147 144 143
f 147 143 148
f 161 160 159
f 161 159 162
f 147 148 161
f 147 161 162
f 150 149 120
f 150 120 123
f 151 149 150
f 151 150 152
f 155 151 152
f 155 152 154
f 124 121 126
f 124 126 125
f 127 125 126
f 127 126 128
f 129 127 128
f 129 128 130
f 131 129 130
f 131 130 132
f 159 155 154
f 159 154 158
f 163 162 159
f 163 159 158
f 163 146 147
f 163 147 162
f 123 120 119
f 123 119 122
f 122 119 121
f 122 121 124
f 152 150 123
f 152 123 164
f 166 124 125
f 166 125 127
f 154 152 164
f 154 164 165
f 167 166 127
f 167 127 129
f 164 123 122
f 164 122 171
f 171 122 124
f 171 124 166
f 171 166 167
f 171 167 172
f 158 154 165
f 158 165 169
f 172 165 164
f 172 164 171
f 163 158 169
f 163 169 170
f 173 169 165
f 173 165 172
f 173 172 167
f 173 167 168
f 168 167 129
f 168 129 131
f 134 131 132
f 134 132 133
f 174 170 169
f 174 169 173
f 145 144 147
f 145 147 146
f 145 146 163
f 145 163 170
f 175 174 173
f 175 173 168
f 136 134 133
f 136 133 135
f 145 175 134
f 145 134 136
f 136 135 144
f 136 144 145
f 145 170 174
f 145 174 175
f 175 168 131
f 175 131 134
