# _4th_Metacarpal_R posed
v -0.858843 0.198654 0.387266
v -0.861105 0.199865 0.385356
v -0.863081 0.198040 0.385831
v -0.861096 0.196370 0.387250
v -0.857573 0.195658 0.375161
v -0.859146 0.192636 0.374228
v -0.861205 0.194631 0.376395
v -0.860141 0.196502 0.377486
v -0.861093 0.199287 0.381527
v -0.858988 0.189325 0.378776
v -0.860081 0.192021 0.384982
v -0.858673 0.189439 0.374058
v -0.863567 0.197840 0.381077
v -0.862263 0.191884 0.375962
v -0.863486 0.194331 0.384493
v -0.863607 0.193247 0.380165
v -0.857733 0.200669 0.381680
v -0.854602 0.191388 0.373475
v -0.854668 0.191122 0.378424
v -0.855288 0.193051 0.385730
v -0.853129 0.199781 0.386209
v -0.853006 0.201013 0.380921
v -0.852209 0.198077 0.374677
v -0.851061 0.193874 0.374152
v -0.850454 0.192662 0.378357
v -0.851174 0.195217 0.384403
v -0.844403 0.197751 0.382257
v -0.845111 0.200632 0.382620
v -0.845230 0.202073 0.379024
v -0.844908 0.199875 0.373647
v -0.844370 0.195764 0.373536
v -0.843840 0.194792 0.377991
v -0.833857 0.199233 0.379624
v -0.834423 0.201617 0.378840
v -0.834601 0.203227 0.376261
v -0.834551 0.201604 0.371875
v -0.834072 0.197695 0.371419
v -0.833502 0.196519 0.375655
v -0.822629 0.199748 0.377510
v -0.823199 0.202595 0.375910
v -0.823540 0.204629 0.373104
v -0.823449 0.202665 0.369359
v -0.823068 0.199065 0.368467
v -0.822474 0.197495 0.372656
v -0.813460 0.199144 0.376201
v -0.813446 0.203531 0.375932
v -0.813844 0.205843 0.370576
v -0.814156 0.203734 0.364909
v -0.813812 0.199320 0.364630
v -0.813451 0.197498 0.369925
v -0.805057 0.197439 0.367718
v -0.806018 0.199648 0.362483
v -0.804158 0.196777 0.376088
v -0.806428 0.205551 0.360642
v -0.805638 0.203642 0.376207
v -0.804155 0.206813 0.369237
v -0.862732 0.199670 0.383981
v -0.863358 0.194748 0.377940
v -0.864526 0.196220 0.383584
v -0.861339 0.197359 0.379130
v -0.861279 0.190231 0.376901
v -0.861979 0.192005 0.381987
v -0.862457 0.195227 0.386527
v -0.860629 0.191942 0.374735
v -0.861185 0.198136 0.385778
v -0.859855 0.200815 0.384739
v -0.859200 0.198477 0.378665
v -0.859654 0.194202 0.375834
v -0.857272 0.192106 0.372939
v -0.856143 0.188961 0.375503
v -0.857299 0.190732 0.381645
v -0.858826 0.195151 0.387581
v -0.828512 0.201208 0.377919
v -0.828830 0.202759 0.376067
v -0.829080 0.203634 0.372251
v -0.828833 0.200335 0.369636
v -0.828213 0.197568 0.371891
v -0.827857 0.197804 0.376865
v -0.855225 0.199660 0.378022
v -0.849269 0.200650 0.377106
v -0.840112 0.202414 0.375018
v -0.854006 0.194804 0.373426
v -0.848502 0.196586 0.373093
v -0.839763 0.198651 0.372031
v -0.852669 0.191770 0.375734
v -0.847939 0.193946 0.375927
v -0.839175 0.195732 0.374476
v -0.852643 0.192343 0.381516
v -0.839058 0.196909 0.379511
v -0.847587 0.194525 0.381165
v -0.856050 0.201362 0.385037
v -0.849704 0.201529 0.382938
v -0.855071 0.196972 0.386815
v -0.849088 0.198479 0.384523
v -0.839692 0.200020 0.381402
v -0.840058 0.201903 0.379421
v -0.817759 0.198148 0.368600
v -0.817511 0.198045 0.374269
v -0.818368 0.201427 0.366256
v -0.817965 0.201727 0.377151
v -0.818316 0.204439 0.373801
v -0.818518 0.204809 0.369069
v -0.808705 0.205454 0.372917
v -0.809882 0.201873 0.360722
v -0.809671 0.197769 0.365754
v -0.810138 0.206595 0.366335
v -0.809978 0.196640 0.372211
v -0.803747 0.199759 0.367864
v -0.809117 0.200755 0.377539
v -0.801314 0.202542 0.370840
v -0.803480 0.203495 0.365416
v -0.859919 0.199652 0.386086
v -0.862268 0.199283 0.385276
v -0.862248 0.196773 0.386525
v -0.859705 0.196934 0.387481
v -0.858084 0.193533 0.374142
v -0.860342 0.193125 0.375160
v -0.860829 0.195965 0.377508
v -0.858996 0.196393 0.376677
v -0.861252 0.200098 0.383976
v -0.860561 0.197961 0.379104
v -0.858943 0.191401 0.373612
v -0.859629 0.190596 0.381728
v -0.860706 0.194620 0.387378
v -0.858461 0.188452 0.376034
v -0.864240 0.198603 0.384433
v -0.862169 0.198604 0.381291
v -0.862241 0.196613 0.378567
v -0.862129 0.193254 0.375765
v -0.860946 0.190600 0.375271
v -0.863771 0.195997 0.385610
v -0.862261 0.193137 0.384656
v -0.863056 0.192384 0.377685
v -0.864333 0.195667 0.380655
v -0.863722 0.193852 0.382661
v -0.861760 0.191085 0.379456
v -0.859623 0.200144 0.381650
v -0.857379 0.199118 0.378258
v -0.858199 0.201260 0.385289
v -0.856306 0.189696 0.373154
v -0.854168 0.190577 0.375552
v -0.856720 0.189869 0.378492
v -0.855088 0.191711 0.381661
v -0.857610 0.192094 0.385537
v -0.855861 0.193669 0.373299
v -0.857128 0.196180 0.387364
v -0.856009 0.199401 0.387180
v -0.855607 0.200847 0.381450
v -0.853327 0.201390 0.384197
v -0.852648 0.200085 0.377722
v -0.854822 0.197345 0.374923
v -0.851531 0.195600 0.373321
v -0.853094 0.192749 0.373863
v -0.850728 0.192889 0.375900
v -0.852632 0.191831 0.378316
v -0.850380 0.193244 0.381369
v -0.853288 0.194118 0.385317
v -0.852494 0.197677 0.385864
v -0.844796 0.199311 0.382992
v -0.845266 0.201744 0.381255
v -0.845110 0.201438 0.376247
v -0.844668 0.197615 0.372873
v -0.844102 0.194864 0.375492
v -0.843900 0.195912 0.380653
v -0.834172 0.200703 0.379737
v -0.834487 0.202357 0.377800
v -0.834700 0.203211 0.373711
v -0.834362 0.199604 0.370967
v -0.833750 0.196700 0.373266
v -0.833550 0.197557 0.378139
v -0.822963 0.201567 0.377072
v -0.823375 0.203559 0.374768
v -0.823575 0.204127 0.370685
v -0.823363 0.200978 0.368275
v -0.822729 0.198009 0.370266
v -0.822393 0.197920 0.375561
v -0.813470 0.201358 0.377508
v -0.813565 0.204754 0.372876
v -0.814208 0.205661 0.367317
v -0.814139 0.201533 0.363705
v -0.813490 0.197997 0.366980
v -0.813398 0.197724 0.373170
v -0.839397 0.198570 0.380984
v -0.839982 0.201033 0.380554
v -0.840114 0.202732 0.377674
v -0.839967 0.200821 0.372796
v -0.839456 0.196659 0.372511
v -0.838932 0.195698 0.377002
v -0.828142 0.199655 0.378363
v -0.828724 0.202031 0.377034
v -0.828966 0.203715 0.374607
v -0.828971 0.202182 0.370707
v -0.828561 0.198521 0.370112
v -0.827933 0.197115 0.374159
v -0.817692 0.199667 0.376804
v -0.818140 0.203253 0.375672
v -0.818491 0.205451 0.371752
v -0.818374 0.203236 0.367475
v -0.818123 0.199346 0.366628
v -0.817554 0.197702 0.371220
v -0.849532 0.201467 0.380095
v -0.848926 0.198950 0.374285
v -0.848211 0.194862 0.374035
v -0.847659 0.193753 0.378387
v -0.848317 0.196471 0.383355
v -0.849531 0.200243 0.384630
v -0.809831 0.196954 0.368700
v -0.809546 0.199209 0.362668
v -0.806910 0.198220 0.365301
v -0.806409 0.195861 0.371698
v -0.809616 0.197869 0.376053
v -0.805828 0.202614 0.359389
v -0.810215 0.204561 0.362164
v -0.809109 0.203525 0.376228
v -0.804124 0.200810 0.377199
v -0.809805 0.206241 0.369847
v -0.803439 0.206504 0.371501
v -0.804139 0.207305 0.365940
v -0.804082 0.201029 0.365678
v -0.801761 0.199547 0.370600
v -0.860219 0.197325 0.386870
v -0.859661 0.198420 0.386746
v -0.860223 0.199302 0.385915
v -0.861172 0.199743 0.385332
v -0.862079 0.198997 0.385298
v -0.862624 0.198092 0.385590
v -0.862011 0.197155 0.386047
v -0.861155 0.196733 0.386778
v -0.859210 0.195434 0.376372
v -0.858520 0.194814 0.375424
v -0.858768 0.193686 0.374848
v -0.859359 0.193021 0.374706
v -0.860081 0.193458 0.375414
v -0.860681 0.194305 0.376155
v -0.860406 0.195205 0.376900
v -0.859936 0.195841 0.377041
v -0.803992 0.205268 0.374579
v -0.806919 0.207399 0.369486
v -0.806743 0.207815 0.366096
v -0.804602 0.200334 0.364015
v -0.801566 0.198080 0.373401
v -0.801583 0.201943 0.375163
v -0.803281 0.202861 0.368308
v -0.806301 0.206998 0.371315
v -0.803589 0.203184 0.361205
v -0.803754 0.205920 0.361105
v -0.861927 0.199849 0.383838
v -0.862588 0.199301 0.382666
v -0.861625 0.198842 0.381399
v -0.861219 0.199793 0.382802
v -0.861850 0.199457 0.382647
v -0.861717 0.197954 0.380120
v -0.861003 0.197664 0.379179
v -0.860850 0.198664 0.380248
v -0.861322 0.198254 0.380226
v -0.860430 0.199729 0.381601
v -0.859755 0.200659 0.383258
v -0.860593 0.200447 0.384319
v -0.860548 0.200233 0.383032
v -0.859958 0.198197 0.378903
v -0.859415 0.199422 0.380087
v -0.860211 0.199037 0.380179
v -0.861892 0.191562 0.380733
v -0.860840 0.191161 0.381820
v -0.859392 0.189997 0.380259
v -0.860434 0.190026 0.379085
v -0.860688 0.190622 0.380464
v -0.858406 0.190420 0.381677
v -0.857091 0.190364 0.380055
v -0.857683 0.189239 0.378559
v -0.858122 0.189875 0.380113
v -0.858583 0.188689 0.377341
v -0.859873 0.189109 0.376452
v -0.861549 0.190585 0.378136
v -0.860087 0.189415 0.377699
v -0.856289 0.189223 0.376925
v -0.857248 0.188424 0.375682
v -0.857308 0.188608 0.377050
v -0.862086 0.192482 0.383281
v -0.861235 0.192459 0.384797
v -0.859825 0.191222 0.383256
v -0.860999 0.191726 0.383230
v -0.862435 0.194116 0.385883
v -0.861632 0.194820 0.387011
v -0.860409 0.193190 0.386655
v -0.861495 0.193534 0.386299
v -0.858871 0.191914 0.385246
v -0.857384 0.191192 0.383482
v -0.858613 0.191046 0.383353
v -0.859744 0.194754 0.387553
v -0.858143 0.193555 0.387140
v -0.859271 0.193217 0.386949
v -0.859864 0.189913 0.374747
v -0.861087 0.190244 0.375951
v -0.858587 0.188819 0.374964
v -0.859859 0.189313 0.375471
v -0.859792 0.191553 0.374238
v -0.860801 0.191139 0.374771
v -0.858796 0.190230 0.373427
v -0.859833 0.190600 0.374192
v -0.857447 0.189312 0.373401
v -0.856754 0.190782 0.372672
v -0.858079 0.191548 0.373034
v -0.857731 0.190255 0.372806
v -0.856163 0.189177 0.374226
v -0.857389 0.188823 0.374508
v -0.863934 0.195251 0.379241
v -0.862952 0.195850 0.378152
v -0.862918 0.197251 0.379648
v -0.864160 0.196897 0.380892
v -0.863609 0.196421 0.379405
v -0.861685 0.197027 0.378936
v -0.862834 0.198362 0.381201
v -0.862190 0.197666 0.379922
v -0.864611 0.197520 0.384174
v -0.864532 0.196022 0.382144
v -0.864022 0.198329 0.382778
v -0.864504 0.197306 0.382560
v -0.863561 0.199301 0.384276
v -0.863353 0.198977 0.382768
v -0.862749 0.194058 0.376733
v -0.863402 0.193538 0.377835
v -0.862623 0.192040 0.376607
v -0.862299 0.192438 0.375792
v -0.862869 0.193004 0.376669
v -0.862342 0.191328 0.377357
v -0.861771 0.191293 0.375651
v -0.862019 0.191173 0.376350
v -0.861426 0.192521 0.375158
v -0.861640 0.191773 0.375221
v -0.864235 0.194952 0.383077
v -0.864266 0.196200 0.384810
v -0.863667 0.195031 0.385033
v -0.863626 0.194113 0.383759
v -0.864034 0.195073 0.384229
v -0.863166 0.195653 0.386085
v -0.863042 0.193839 0.384575
v -0.863153 0.194687 0.385494
v -0.862965 0.192920 0.382283
v -0.862983 0.193296 0.383457
v -0.863714 0.193583 0.381435
v -0.864118 0.194417 0.380422
v -0.864253 0.194736 0.381770
v -0.862815 0.192177 0.379836
v -0.862919 0.192574 0.381075
v -0.863394 0.192822 0.378911
v -0.862621 0.191713 0.378578
v -0.863841 0.194009 0.379105
v -0.858331 0.198809 0.378440
v -0.857518 0.200046 0.379921
v -0.858714 0.200470 0.381691
v -0.858502 0.199779 0.380002
v -0.856344 0.199406 0.378129
v -0.855401 0.200346 0.379697
v -0.856703 0.200761 0.381597
v -0.856491 0.200206 0.379822
v -0.857942 0.201118 0.383472
v -0.859067 0.201107 0.385100
v -0.858879 0.200956 0.383424
v -0.855842 0.201254 0.383243
v -0.857191 0.201337 0.385269
v -0.856936 0.201203 0.383412
v -0.855106 0.189811 0.375514
v -0.854295 0.190814 0.374348
v -0.855372 0.190501 0.373267
v -0.855083 0.189900 0.374212
v -0.853440 0.191214 0.375620
v -0.852832 0.192142 0.374682
v -0.853868 0.192112 0.373662
v -0.853589 0.191525 0.374501
v -0.855166 0.192448 0.373105
v -0.856573 0.192882 0.373112
v -0.855926 0.191617 0.372873
v -0.853522 0.193663 0.373412
v -0.855024 0.194329 0.373420
v -0.854396 0.193124 0.373282
v -0.856269 0.191263 0.381644
v -0.855015 0.191505 0.380036
v -0.855771 0.190624 0.378495
v -0.856158 0.191045 0.380087
v -0.853804 0.192013 0.381613
v -0.852652 0.192050 0.379829
v -0.853621 0.191464 0.378344
v -0.853796 0.191777 0.379919
v -0.852605 0.191676 0.376943
v -0.854301 0.190705 0.376905
v -0.853454 0.191208 0.376902
v -0.855301 0.190067 0.376927
v -0.857987 0.195673 0.387511
v -0.856128 0.194618 0.386984
v -0.856399 0.192513 0.385708
v -0.857096 0.194071 0.387146
v -0.856156 0.196597 0.387136
v -0.854188 0.195563 0.386353
v -0.854274 0.193593 0.385588
v -0.855178 0.195097 0.386708
v -0.852784 0.192992 0.383482
v -0.855013 0.192064 0.383633
v -0.853840 0.192516 0.383620
v -0.856209 0.191600 0.383567
v -0.856122 0.200708 0.386611
v -0.854781 0.201373 0.384673
v -0.853282 0.200835 0.385601
v -0.854620 0.199594 0.386772
v -0.854771 0.200770 0.386167
v -0.851628 0.201440 0.383619
v -0.849651 0.201025 0.384043
v -0.851444 0.199983 0.385434
v -0.851578 0.200896 0.384850
v -0.853871 0.197337 0.386400
v -0.855680 0.198186 0.387084
v -0.852906 0.198749 0.386169
v -0.854359 0.198468 0.386696
v -0.849358 0.199403 0.384735
v -0.850898 0.198045 0.385223
v -0.851245 0.199057 0.385480
v -0.854015 0.199872 0.377900
v -0.852822 0.200615 0.379296
v -0.854397 0.200923 0.381226
v -0.854200 0.200473 0.379529
v -0.851062 0.200342 0.377453
v -0.849404 0.201135 0.378580
v -0.851378 0.201193 0.380539
v -0.851218 0.200832 0.378975
v -0.853202 0.201339 0.382579
v -0.854618 0.201291 0.382962
v -0.849650 0.201636 0.381576
v -0.851538 0.201460 0.382120
v -0.854466 0.196063 0.373956
v -0.852831 0.195190 0.373380
v -0.851893 0.196851 0.373745
v -0.853554 0.197737 0.374799
v -0.853223 0.196462 0.373841
v -0.850094 0.196069 0.373205
v -0.848713 0.197787 0.373377
v -0.850661 0.198492 0.374495
v -0.850389 0.197305 0.373571
v -0.852451 0.199211 0.376090
v -0.855054 0.198615 0.376352
v -0.853809 0.198933 0.376240
v -0.849113 0.199919 0.375636
v -0.850882 0.199544 0.375885
v -0.851799 0.192349 0.375836
v -0.850884 0.193296 0.374934
v -0.852174 0.193340 0.374049
v -0.851959 0.192750 0.374845
v -0.849444 0.193418 0.375941
v -0.848069 0.194296 0.374885
v -0.849743 0.194373 0.374140
v -0.849589 0.193805 0.374951
v -0.851263 0.194608 0.373553
v -0.852472 0.194138 0.373511
v -0.848345 0.195611 0.373395
v -0.849892 0.195093 0.373497
v -0.851550 0.192760 0.381438
v -0.850369 0.192838 0.379805
v -0.851602 0.192229 0.378326
v -0.851548 0.192408 0.379804
v -0.849074 0.193842 0.381292
v -0.847556 0.193992 0.379765
v -0.849158 0.193179 0.378396
v -0.849060 0.193383 0.379809
v -0.850589 0.192686 0.377048
v -0.851678 0.192178 0.376993
v -0.847807 0.193769 0.377105
v -0.849308 0.193218 0.377106
v -0.851867 0.196473 0.385321
v -0.852280 0.194648 0.384903
v -0.853102 0.196020 0.385895
v -0.848723 0.197484 0.384062
v -0.849863 0.195813 0.383879
v -0.850406 0.196938 0.384693
v -0.850630 0.194056 0.383011
v -0.851751 0.193497 0.383260
v -0.847898 0.195442 0.382401
v -0.849361 0.194709 0.382734
v -0.847063 0.198926 0.383764
v -0.844608 0.198556 0.382740
v -0.846514 0.197172 0.382824
v -0.846808 0.198073 0.383402
v -0.842313 0.199672 0.382239
v -0.839530 0.199322 0.381393
v -0.842003 0.198189 0.381635
v -0.842153 0.198952 0.382087
v -0.839247 0.197776 0.380347
v -0.841604 0.196448 0.380140
v -0.844165 0.196871 0.381578
v -0.841825 0.197364 0.380995
v -0.845883 0.195253 0.380974
v -0.846187 0.196214 0.382032
v -0.847586 0.201622 0.382122
v -0.845209 0.201220 0.382048
v -0.847418 0.200455 0.383674
v -0.847529 0.201116 0.383070
v -0.842737 0.201820 0.380338
v -0.840036 0.201458 0.380015
v -0.842616 0.200830 0.381593
v -0.842695 0.201330 0.381026
v -0.839861 0.200581 0.381053
v -0.844971 0.200007 0.382945
v -0.842483 0.200296 0.382027
v -0.847264 0.199723 0.383885
v -0.847292 0.201022 0.376696
v -0.845176 0.201850 0.377659
v -0.847488 0.201765 0.379590
v -0.847396 0.201487 0.378142
v -0.842702 0.201921 0.375698
v -0.840126 0.202722 0.376396
v -0.842754 0.202402 0.378385
v -0.842735 0.202269 0.377090
v -0.840084 0.202380 0.378685
v -0.845269 0.202049 0.380235
v -0.842756 0.202237 0.379483
v -0.847563 0.201823 0.380930
v -0.846723 0.197121 0.373049
v -0.844787 0.198734 0.373015
v -0.847023 0.199409 0.374021
v -0.846871 0.198272 0.373247
v -0.842321 0.198115 0.372505
v -0.839873 0.199757 0.372252
v -0.842544 0.200355 0.373261
v -0.842438 0.199234 0.372685
v -0.840057 0.201765 0.373723
v -0.845024 0.200816 0.374830
v -0.842641 0.201309 0.374317
v -0.847167 0.200339 0.375279
v -0.846168 0.194426 0.375788
v -0.844225 0.195172 0.374394
v -0.846432 0.195323 0.373839
v -0.846290 0.194744 0.374703
v -0.841746 0.195299 0.375040
v -0.839309 0.196060 0.373381
v -0.842017 0.196202 0.373077
v -0.841873 0.195613 0.373942
v -0.839619 0.197573 0.372064
v -0.844530 0.196620 0.373050
v -0.842178 0.197083 0.372614
v -0.846580 0.196132 0.373279
v -0.843778 0.195153 0.379382
v -0.838923 0.196132 0.378360
v -0.841499 0.195264 0.377562
v -0.841469 0.195669 0.378939
v -0.845892 0.194298 0.378261
v -0.845800 0.194591 0.379641
v -0.839035 0.195589 0.375679
v -0.843970 0.194733 0.376688
v -0.841611 0.195169 0.376243
v -0.846037 0.194280 0.376977
v -0.834005 0.200019 0.379908
v -0.831343 0.200979 0.378862
v -0.828337 0.200544 0.378323
v -0.830996 0.199468 0.379001
v -0.831168 0.200299 0.379155
v -0.836967 0.200373 0.380569
v -0.836667 0.198924 0.380302
v -0.836801 0.199684 0.380662
v -0.827979 0.198707 0.377815
v -0.830706 0.197722 0.377488
v -0.833710 0.198416 0.378992
v -0.830844 0.198599 0.378387
v -0.836349 0.197279 0.378829
v -0.836523 0.198132 0.379663
v -0.834465 0.201983 0.378345
v -0.831654 0.202564 0.376942
v -0.828782 0.202375 0.376581
v -0.831574 0.201845 0.377953
v -0.831621 0.202196 0.377475
v -0.837298 0.202115 0.378604
v -0.837238 0.201324 0.379673
v -0.837281 0.201712 0.379161
v -0.828638 0.201666 0.377470
v -0.834323 0.201217 0.379317
v -0.831483 0.201466 0.378413
v -0.837128 0.200905 0.380170
v -0.834677 0.203456 0.375030
v -0.831902 0.203452 0.373005
v -0.829058 0.203984 0.373416
v -0.831780 0.203449 0.375448
v -0.831872 0.203733 0.374245
v -0.837436 0.202867 0.374335
v -0.837386 0.203011 0.376969
v -0.837430 0.203133 0.375702
v -0.828886 0.203210 0.375451
v -0.834530 0.202773 0.377147
v -0.831703 0.202980 0.376307
v -0.837331 0.202569 0.377918
v -0.834464 0.200646 0.371313
v -0.831607 0.199987 0.370320
v -0.828907 0.201326 0.370114
v -0.831771 0.201909 0.371338
v -0.831694 0.201005 0.370753
v -0.837088 0.199166 0.371531
v -0.837287 0.201253 0.372296
v -0.837195 0.200238 0.371778
v -0.829035 0.202952 0.371387
v -0.834641 0.202495 0.372648
v -0.831849 0.202742 0.372058
v -0.837378 0.202179 0.373141
v -0.833907 0.197086 0.372252
v -0.830994 0.197173 0.372611
v -0.828384 0.197972 0.370951
v -0.831334 0.198143 0.370805
v -0.831161 0.197570 0.371645
v -0.836488 0.196208 0.373884
v -0.836793 0.197206 0.372007
v -0.836634 0.196577 0.372834
v -0.828721 0.199323 0.369576
v -0.834231 0.198564 0.370948
v -0.831489 0.198964 0.370283
v -0.836952 0.198106 0.371552
v -0.833457 0.196827 0.376990
v -0.827842 0.197232 0.375555
v -0.830724 0.196842 0.374916
v -0.830652 0.197053 0.376274
v -0.836247 0.196125 0.376356
v -0.836226 0.196515 0.377697
v -0.828062 0.197262 0.372936
v -0.833612 0.196506 0.374397
v -0.830847 0.196919 0.373687
v -0.836349 0.196044 0.375059
v -0.825685 0.201414 0.377286
v -0.822802 0.200750 0.377634
v -0.825327 0.199738 0.377888
v -0.825517 0.200701 0.377801
v -0.820397 0.201674 0.377071
v -0.817844 0.200705 0.377431
v -0.820079 0.199709 0.377175
v -0.820247 0.200742 0.377567
v -0.817576 0.198736 0.375687
v -0.819861 0.197952 0.374905
v -0.822486 0.198773 0.376713
v -0.819942 0.198737 0.376202
v -0.825069 0.197864 0.376227
v -0.825174 0.198755 0.377271
v -0.826058 0.203120 0.375356
v -0.823290 0.203046 0.375365
v -0.825907 0.202298 0.376339
v -0.825986 0.202681 0.375880
v -0.820805 0.204025 0.374284
v -0.818226 0.203874 0.374771
v -0.820632 0.202895 0.375715
v -0.820724 0.203437 0.375036
v -0.818058 0.202544 0.376467
v -0.823093 0.202133 0.376457
v -0.820524 0.202342 0.376371
v -0.825810 0.201902 0.376787
v -0.826296 0.203897 0.371441
v -0.823596 0.204680 0.371815
v -0.826214 0.204161 0.373832
v -0.826290 0.204336 0.372593
v -0.820973 0.204409 0.369933
v -0.818558 0.205479 0.370337
v -0.820965 0.205066 0.372411
v -0.821013 0.205050 0.371075
v -0.818402 0.204988 0.372846
v -0.823458 0.204136 0.374070
v -0.820886 0.204621 0.373459
v -0.826130 0.203638 0.374722
v -0.826065 0.200673 0.368998
v -0.823408 0.201894 0.368814
v -0.826182 0.202434 0.370026
v -0.826126 0.201620 0.369484
v -0.820781 0.201246 0.367398
v -0.818370 0.202407 0.366781
v -0.820835 0.202930 0.368578
v -0.820807 0.202164 0.367975
v -0.818430 0.204000 0.368199
v -0.823510 0.203392 0.369933
v -0.820896 0.203650 0.369180
v -0.826244 0.203190 0.370633
v -0.825438 0.197857 0.371111
v -0.822886 0.198443 0.369285
v -0.825778 0.198844 0.369353
v -0.825600 0.198271 0.370169
v -0.820155 0.198113 0.369430
v -0.817927 0.198634 0.367511
v -0.820504 0.199246 0.367568
v -0.820316 0.198567 0.368398
v -0.818294 0.200330 0.366143
v -0.823252 0.199948 0.368039
v -0.820687 0.200188 0.367153
v -0.825950 0.199668 0.368868
v -0.822395 0.197506 0.374113
v -0.825165 0.197343 0.373405
v -0.825072 0.197382 0.374834
v -0.817505 0.197726 0.372716
v -0.819922 0.197618 0.371924
v -0.819860 0.197609 0.373401
v -0.817636 0.197848 0.369845
v -0.822591 0.197692 0.371376
v -0.820023 0.197811 0.370603
v -0.825292 0.197536 0.372167
v -0.815652 0.201625 0.377344
v -0.813488 0.200199 0.377238
v -0.815468 0.199509 0.376458
v -0.815580 0.200537 0.377306
v -0.811369 0.201039 0.377512
v -0.809350 0.199200 0.377325
v -0.811649 0.198591 0.375996
v -0.811540 0.199737 0.377183
v -0.809847 0.197020 0.374221
v -0.811680 0.197266 0.372689
v -0.813418 0.198301 0.374792
v -0.811680 0.197759 0.374437
v -0.815342 0.197985 0.373696
v -0.815386 0.198618 0.375213
v -0.815907 0.204680 0.373305
v -0.813494 0.204316 0.374477
v -0.815732 0.203504 0.375751
v -0.815808 0.204187 0.374548
v -0.811238 0.203491 0.376109
v -0.809078 0.202166 0.377023
v -0.813446 0.202479 0.376991
v -0.811265 0.202281 0.377069
v -0.815691 0.202613 0.376721
v -0.816265 0.205245 0.368123
v -0.814074 0.206128 0.369027
v -0.816117 0.205732 0.371128
v -0.816244 0.205882 0.369599
v -0.813676 0.205261 0.371687
v -0.816002 0.205202 0.372240
v -0.816169 0.201499 0.365023
v -0.814158 0.202678 0.364113
v -0.816153 0.203494 0.366242
v -0.816169 0.202561 0.365487
v -0.812095 0.201640 0.362217
v -0.810064 0.203251 0.361122
v -0.812233 0.204089 0.363470
v -0.812174 0.202895 0.362599
v -0.810246 0.205858 0.363988
v -0.812181 0.206118 0.366700
v -0.814196 0.204742 0.365968
v -0.812258 0.205241 0.364871
v -0.816197 0.204358 0.367091
v -0.815548 0.198119 0.367776
v -0.813615 0.198539 0.365696
v -0.815912 0.199360 0.365642
v -0.815715 0.198619 0.366597
v -0.811537 0.197824 0.366275
v -0.809569 0.198363 0.364222
v -0.811714 0.199210 0.363524
v -0.811568 0.198390 0.364831
v -0.809673 0.200417 0.361304
v -0.814018 0.200352 0.363881
v -0.811928 0.200335 0.362534
v -0.816084 0.200369 0.365057
v -0.813422 0.197480 0.371516
v -0.815396 0.197654 0.370557
v -0.815350 0.197686 0.372097
v -0.809942 0.196670 0.370355
v -0.811668 0.197230 0.369313
v -0.811683 0.197137 0.370951
v -0.809753 0.197332 0.367212
v -0.813454 0.197670 0.368408
v -0.811598 0.197454 0.367766
v -0.815451 0.197807 0.369109
v -0.857387 0.199149 0.387426
v -0.858001 0.197443 0.387467
v -0.856930 0.197873 0.387358
v -0.858508 0.200379 0.386706
v -0.857402 0.200614 0.386910
v -0.859357 0.196284 0.387592
v -0.859237 0.197569 0.387425
v -0.858719 0.196849 0.387548
v -0.859919 0.200282 0.385759
v -0.859429 0.199341 0.386578
v -0.859273 0.200302 0.386227
v -0.802573 0.200853 0.369273
v -0.859840 0.198831 0.386394
v -0.803788 0.201621 0.366809
v -0.803494 0.201142 0.368033
v -0.861202 0.200067 0.384950
v -0.860507 0.199849 0.385678
v -0.860577 0.200216 0.385317
v -0.860765 0.199648 0.385534
v -0.802663 0.204826 0.369782
v -0.802373 0.202647 0.369405
v -0.861687 0.199649 0.385206
v -0.862552 0.199573 0.384930
v -0.861838 0.199846 0.384796
v -0.861592 0.199487 0.385252
v -0.805249 0.207420 0.370503
v -0.803755 0.206684 0.370285
v -0.863944 0.198503 0.385611
v -0.862765 0.198808 0.385492
v -0.863287 0.199178 0.385292
v -0.863641 0.197072 0.386022
v -0.864314 0.197425 0.385424
v -0.862474 0.198489 0.385438
v -0.805643 0.207820 0.368165
v -0.805538 0.207573 0.369470
v -0.861706 0.198617 0.385409
v -0.860663 0.198785 0.385777
v -0.861199 0.199203 0.385398
v -0.862703 0.197277 0.386142
v -0.862386 0.196168 0.386728
v -0.863013 0.196606 0.386369
v -0.861666 0.197551 0.385864
v -0.862437 0.197662 0.385723
v -0.862147 0.198059 0.385534
v -0.803565 0.205332 0.367466
v -0.803318 0.204976 0.368724
v -0.860941 0.195731 0.387422
v -0.861718 0.196461 0.386933
v -0.861699 0.195846 0.387115
v -0.860373 0.196531 0.387434
v -0.860123 0.195890 0.387570
v -0.803556 0.203230 0.367053
v -0.859841 0.197929 0.386820
v -0.804396 0.207108 0.367969
v -0.861541 0.196835 0.386465
v -0.860665 0.197669 0.386332
v -0.860739 0.196903 0.386832
v -0.861158 0.197155 0.386355
v -0.860210 0.198306 0.386321
v -0.804636 0.204412 0.359764
v -0.804916 0.207278 0.362979
v -0.804746 0.205866 0.360541
v -0.856126 0.196719 0.375064
v -0.856633 0.194714 0.374028
v -0.855651 0.195504 0.374054
v -0.857407 0.197679 0.376662
v -0.856279 0.198165 0.376475
v -0.859067 0.197301 0.377415
v -0.858375 0.196191 0.376108
v -0.858305 0.197439 0.377016
v -0.857789 0.194323 0.374465
v -0.857716 0.193063 0.373586
v -0.857224 0.193840 0.373813
v -0.805409 0.207904 0.366105
v -0.858582 0.194299 0.375150
v -0.802949 0.205348 0.362862
v -0.803591 0.206832 0.362970
v -0.859033 0.192219 0.373958
v -0.858567 0.192935 0.373995
v -0.858338 0.192463 0.373549
v -0.859093 0.193241 0.374703
v -0.803331 0.205588 0.365570
v -0.803414 0.204776 0.360706
v -0.859754 0.192726 0.374687
v -0.860447 0.192700 0.374964
v -0.859745 0.192322 0.374489
v -0.859689 0.193133 0.375018
v -0.808337 0.206520 0.363433
v -0.806562 0.207070 0.363105
v -0.861710 0.194056 0.376000
v -0.860831 0.193698 0.375633
v -0.861096 0.193268 0.375397
v -0.861716 0.195780 0.377516
v -0.862310 0.195049 0.376995
v -0.860452 0.193907 0.375805
v -0.807976 0.203686 0.360066
v -0.808222 0.205072 0.361216
v -0.859873 0.193740 0.375610
v -0.859208 0.193814 0.375285
v -0.859464 0.193394 0.375143
v -0.861036 0.195461 0.377182
v -0.861045 0.196646 0.378205
v -0.861309 0.196265 0.377994
v -0.860055 0.194734 0.376419
v -0.860602 0.194700 0.376551
v -0.860264 0.194237 0.376114
v -0.806192 0.204099 0.359601
v -0.803893 0.201950 0.363973
v -0.860324 0.197155 0.378125
v -0.860545 0.196318 0.377583
v -0.860742 0.196953 0.378244
v -0.859608 0.196497 0.377156
v -0.859758 0.197229 0.377815
v -0.803270 0.203439 0.363193
v -0.858803 0.195083 0.375840
v -0.803849 0.201988 0.365517
v -0.860152 0.195589 0.376995
v -0.859421 0.194833 0.376139
v -0.859626 0.195699 0.376796
v -0.859814 0.195241 0.376629
v -0.859001 0.194448 0.375588
v -0.804650 0.201369 0.361292
v -0.804480 0.202933 0.359979
v -0.804118 0.201699 0.362477
v -0.811703 0.205938 0.370157
v -0.810002 0.206631 0.368356
v -0.811980 0.206361 0.368620
v -0.807119 0.203651 0.376209
v -0.804943 0.202601 0.376753
v -0.806485 0.200631 0.377473
v -0.806860 0.202271 0.376916
v -0.803800 0.198669 0.377225
v -0.806891 0.197088 0.376283
v -0.806501 0.198725 0.377481
v -0.806341 0.197956 0.366096
v -0.808001 0.197966 0.365487
v -0.807715 0.196890 0.368104
v -0.807888 0.197462 0.366745
v -0.805789 0.196208 0.370117
v -0.805311 0.195927 0.373618
v -0.802450 0.197326 0.374922
v -0.802887 0.197318 0.370878
v -0.803757 0.196361 0.372364
v -0.808095 0.196022 0.371763
v -0.807978 0.196286 0.369792
v -0.801382 0.198848 0.371765
v -0.802768 0.199464 0.369374
v -0.803953 0.198663 0.367777
v -0.802646 0.198358 0.369889
v -0.806497 0.198762 0.364226
v -0.807524 0.199375 0.362299
v -0.807798 0.198562 0.364041
v -0.807577 0.196207 0.374097
v -0.802637 0.201348 0.376431
v -0.801185 0.199774 0.374751
v -0.802161 0.199180 0.376219
v -0.800995 0.202352 0.373041
v -0.801412 0.200659 0.370721
v -0.800843 0.200286 0.372701
v -0.804911 0.204425 0.375623
v -0.802522 0.203928 0.375018
v -0.803579 0.203222 0.376143
v -0.808999 0.204689 0.374978
v -0.811269 0.204896 0.372735
v -0.811247 0.204444 0.374632
v -0.806074 0.205726 0.374038
v -0.806761 0.204794 0.375260
v -0.809487 0.205777 0.371115
v -0.811459 0.205352 0.371320
v -0.808313 0.207257 0.366163
v -0.806916 0.207750 0.368147
v -0.808256 0.206827 0.369606
v -0.808334 0.207197 0.368200
v -0.801970 0.204758 0.371154
v -0.803443 0.206032 0.373096
v -0.801835 0.204507 0.373175
v -0.807085 0.206446 0.371908
v -0.806644 0.207156 0.370521
v -0.807922 0.206503 0.370772
v -0.805065 0.207197 0.371544
v -0.805363 0.206610 0.372776
v -0.805114 0.199975 0.363129
v -0.804859 0.199027 0.365577
v -0.805607 0.198866 0.364820
v -0.804055 0.200419 0.366568
v -0.804277 0.200718 0.364948
v -0.804333 0.199582 0.366147
v -0.805716 0.200974 0.360536
v -0.807674 0.202214 0.359647
v -0.807470 0.200607 0.360506
f 250 251 247
f 250 247 120
f 251 248 57
f 251 57 247
f 249 127 248
f 249 248 251
f 9 249 251
f 9 251 250
f 254 255 249
f 254 249 9
f 255 252 127
f 255 127 249
f 253 60 252
f 253 252 255
f 121 253 255
f 121 255 254
f 250 259 256
f 250 256 9
f 259 257 137
f 259 137 256
f 258 66 257
f 258 257 259
f 120 258 259
f 120 259 250
f 254 262 260
f 254 260 121
f 262 261 67
f 262 67 260
f 256 137 261
f 256 261 262
f 9 256 262
f 9 262 254
f 266 267 263
f 266 263 136
f 267 264 62
f 267 62 263
f 265 123 264
f 265 264 267
f 10 265 267
f 10 267 266
f 270 271 265
f 270 265 10
f 271 268 123
f 271 123 265
f 269 71 268
f 269 268 271
f 142 269 271
f 142 271 270
f 266 275 272
f 266 272 10
f 275 273 125
f 275 125 272
f 274 61 273
f 274 273 275
f 136 274 275
f 136 275 266
f 270 278 276
f 270 276 142
f 278 277 70
f 278 70 276
f 272 125 277
f 272 277 278
f 10 272 278
f 10 278 270
f 281 282 264
f 281 264 123
f 282 279 62
f 282 62 264
f 280 132 279
f 280 279 282
f 11 280 282
f 11 282 281
f 285 286 280
f 285 280 11
f 286 283 132
f 286 132 280
f 284 63 283
f 284 283 286
f 124 284 286
f 124 286 285
f 281 289 287
f 281 287 11
f 289 288 144
f 289 144 287
f 268 71 288
f 268 288 289
f 123 268 289
f 123 289 281
f 285 292 290
f 285 290 124
f 292 291 72
f 292 72 290
f 287 144 291
f 287 291 292
f 11 287 292
f 11 292 285
f 295 296 293
f 295 293 12
f 296 294 130
f 296 130 293
f 273 61 294
f 273 294 296
f 125 273 296
f 125 296 295
f 299 300 297
f 299 297 122
f 300 298 64
f 300 64 297
f 293 130 298
f 293 298 300
f 12 293 300
f 12 300 299
f 299 304 301
f 299 301 12
f 304 302 140
f 304 140 301
f 303 69 302
f 303 302 304
f 122 303 304
f 122 304 299
f 295 306 277
f 295 277 125
f 306 305 70
f 306 70 277
f 301 140 305
f 301 305 306
f 12 301 306
f 12 306 295
f 310 311 307
f 310 307 134
f 311 308 58
f 311 58 307
f 309 128 308
f 309 308 311
f 13 309 311
f 13 311 310
f 313 314 309
f 313 309 13
f 314 312 128
f 314 128 309
f 252 60 312
f 252 312 314
f 127 252 314
f 127 314 313
f 317 318 315
f 317 315 126
f 318 316 59
f 318 59 315
f 310 134 316
f 310 316 318
f 13 310 318
f 13 318 317
f 313 320 248
f 313 248 127
f 320 319 57
f 320 57 248
f 317 126 319
f 317 319 320
f 13 317 320
f 13 320 313
f 324 325 321
f 324 321 129
f 325 322 58
f 325 58 321
f 323 133 322
f 323 322 325
f 14 323 325
f 14 325 324
f 327 328 323
f 327 323 14
f 328 326 133
f 328 133 323
f 294 61 326
f 294 326 328
f 130 294 328
f 130 328 327
f 327 330 298
f 327 298 130
f 330 329 64
f 330 64 298
f 324 129 329
f 324 329 330
f 14 324 330
f 14 330 327
f 334 335 331
f 334 331 135
f 335 332 59
f 335 59 331
f 333 131 332
f 333 332 335
f 15 333 335
f 15 335 334
f 337 338 333
f 337 333 15
f 338 336 131
f 338 131 333
f 283 63 336
f 283 336 338
f 132 283 338
f 132 338 337
f 334 340 337
f 334 337 15
f 340 279 132
f 340 132 337
f 339 62 279
f 339 279 340
f 135 339 340
f 135 340 334
f 342 343 316
f 342 316 134
f 343 331 59
f 343 59 316
f 341 135 331
f 341 331 343
f 16 341 343
f 16 343 342
f 344 345 341
f 344 341 16
f 345 339 135
f 345 135 341
f 263 62 339
f 263 339 345
f 136 263 345
f 136 345 344
f 346 347 344
f 346 344 16
f 347 274 136
f 347 136 344
f 326 61 274
f 326 274 347
f 133 326 347
f 133 347 346
f 342 348 346
f 342 346 16
f 348 322 133
f 348 133 346
f 307 58 322
f 307 322 348
f 134 307 348
f 134 348 342
f 351 352 261
f 351 261 137
f 352 349 67
f 352 67 261
f 350 138 349
f 350 349 352
f 17 350 352
f 17 352 351
f 355 356 350
f 355 350 17
f 356 353 138
f 356 138 350
f 354 79 353
f 354 353 356
f 148 354 356
f 148 356 355
f 351 359 357
f 351 357 17
f 359 358 139
f 359 139 357
f 257 66 358
f 257 358 359
f 137 257 359
f 137 359 351
f 355 362 360
f 355 360 148
f 362 361 91
f 362 91 360
f 357 139 361
f 357 361 362
f 17 357 362
f 17 362 355
f 365 366 305
f 365 305 140
f 366 363 70
f 366 70 305
f 364 141 363
f 364 363 366
f 18 364 366
f 18 366 365
f 369 370 364
f 369 364 18
f 370 367 141
f 370 141 364
f 368 85 367
f 368 367 370
f 153 368 370
f 153 370 369
f 365 373 371
f 365 371 18
f 373 372 145
f 373 145 371
f 302 69 372
f 302 372 373
f 140 302 373
f 140 373 365
f 369 376 374
f 369 374 153
f 376 375 82
f 376 82 374
f 371 145 375
f 371 375 376
f 18 371 376
f 18 376 369
f 379 380 269
f 379 269 142
f 380 377 71
f 380 71 269
f 378 143 377
f 378 377 380
f 19 378 380
f 19 380 379
f 383 384 378
f 383 378 19
f 384 381 143
f 384 143 378
f 382 88 381
f 382 381 384
f 155 382 384
f 155 384 383
f 386 387 383
f 386 383 19
f 387 385 155
f 387 155 383
f 367 85 385
f 367 385 387
f 141 367 387
f 141 387 386
f 379 388 386
f 379 386 19
f 388 363 141
f 388 141 386
f 276 70 363
f 276 363 388
f 142 276 388
f 142 388 379
f 391 392 291
f 391 291 144
f 392 389 72
f 392 72 291
f 390 146 389
f 390 389 392
f 20 390 392
f 20 392 391
f 395 396 390
f 395 390 20
f 396 393 146
f 396 146 390
f 394 93 393
f 394 393 396
f 157 394 396
f 157 396 395
f 398 399 395
f 398 395 20
f 399 397 157
f 399 157 395
f 381 88 397
f 381 397 399
f 143 381 399
f 143 399 398
f 391 400 398
f 391 398 20
f 400 377 143
f 400 143 398
f 288 71 377
f 288 377 400
f 144 288 400
f 144 400 391
f 404 405 401
f 404 401 147
f 405 402 91
f 405 91 401
f 403 149 402
f 403 402 405
f 21 403 405
f 21 405 404
f 408 409 403
f 408 403 21
f 409 406 149
f 409 149 403
f 407 92 406
f 407 406 409
f 206 407 409
f 206 409 408
f 412 413 410
f 412 410 158
f 413 411 93
f 413 93 410
f 404 147 411
f 404 411 413
f 21 404 413
f 21 413 412
f 408 416 414
f 408 414 206
f 416 415 94
f 416 94 414
f 412 158 415
f 412 415 416
f 21 412 416
f 21 416 408
f 419 420 354
f 419 354 148
f 420 417 79
f 420 79 354
f 418 150 417
f 418 417 420
f 22 418 420
f 22 420 419
f 423 424 418
f 423 418 22
f 424 421 150
f 424 150 418
f 422 80 421
f 422 421 424
f 201 422 424
f 201 424 423
f 425 426 402
f 425 402 149
f 426 360 91
f 426 91 402
f 419 148 360
f 419 360 426
f 22 419 426
f 22 426 425
f 423 428 427
f 423 427 201
f 428 406 92
f 428 92 427
f 425 149 406
f 425 406 428
f 22 425 428
f 22 428 423
f 432 433 429
f 432 429 151
f 433 430 82
f 433 82 429
f 431 152 430
f 431 430 433
f 23 431 433
f 23 433 432
f 436 437 431
f 436 431 23
f 437 434 152
f 437 152 431
f 435 83 434
f 435 434 437
f 202 435 437
f 202 437 436
f 432 440 438
f 432 438 23
f 440 417 150
f 440 150 438
f 439 79 417
f 439 417 440
f 151 439 440
f 151 440 432
f 436 442 441
f 436 441 202
f 442 421 80
f 442 80 441
f 438 150 421
f 438 421 442
f 23 438 442
f 23 442 436
f 445 446 368
f 445 368 153
f 446 443 85
f 446 85 368
f 444 154 443
f 444 443 446
f 24 444 446
f 24 446 445
f 449 450 444
f 449 444 24
f 450 447 154
f 450 154 444
f 448 86 447
f 448 447 450
f 203 448 450
f 203 450 449
f 445 452 451
f 445 451 24
f 452 430 152
f 452 152 451
f 374 82 430
f 374 430 452
f 153 374 452
f 153 452 445
f 449 454 453
f 449 453 203
f 454 434 83
f 454 83 453
f 451 152 434
f 451 434 454
f 24 451 454
f 24 454 449
f 457 458 382
f 457 382 155
f 458 455 88
f 458 88 382
f 456 156 455
f 456 455 458
f 25 456 458
f 25 458 457
f 461 462 456
f 461 456 25
f 462 459 156
f 462 156 456
f 460 90 459
f 460 459 462
f 204 460 462
f 204 462 461
f 457 464 463
f 457 463 25
f 464 443 154
f 464 154 463
f 385 85 443
f 385 443 464
f 155 385 464
f 155 464 457
f 461 466 465
f 461 465 204
f 466 447 86
f 466 86 465
f 463 154 447
f 463 447 466
f 25 463 466
f 25 466 461
f 468 469 394
f 468 394 157
f 469 410 93
f 469 93 394
f 467 158 410
f 467 410 469
f 26 467 469
f 26 469 468
f 471 472 467
f 471 467 26
f 472 415 158
f 472 158 467
f 470 94 415
f 470 415 472
f 205 470 472
f 205 472 471
f 468 474 473
f 468 473 26
f 474 455 156
f 474 156 473
f 397 88 455
f 397 455 474
f 157 397 474
f 157 474 468
f 471 476 475
f 471 475 205
f 476 459 90
f 476 90 475
f 473 156 459
f 473 459 476
f 26 473 476
f 26 476 471
f 479 480 470
f 479 470 205
f 480 477 94
f 480 94 470
f 478 159 477
f 478 477 480
f 27 478 480
f 27 480 479
f 483 484 478
f 483 478 27
f 484 481 159
f 484 159 478
f 482 95 481
f 482 481 484
f 183 482 484
f 183 484 483
f 487 488 483
f 487 483 27
f 488 485 183
f 488 183 483
f 486 89 485
f 486 485 488
f 164 486 488
f 164 488 487
f 487 490 489
f 487 489 164
f 490 475 90
f 490 90 489
f 479 205 475
f 479 475 490
f 27 479 490
f 27 490 487
f 493 494 407
f 493 407 206
f 494 491 92
f 494 92 407
f 492 160 491
f 492 491 494
f 28 492 494
f 28 494 493
f 497 498 492
f 497 492 28
f 498 495 160
f 498 160 492
f 496 96 495
f 496 495 498
f 184 496 498
f 184 498 497
f 500 501 497
f 500 497 28
f 501 499 184
f 501 184 497
f 481 95 499
f 481 499 501
f 159 481 501
f 159 501 500
f 500 502 477
f 500 477 159
f 502 414 94
f 502 94 477
f 493 206 414
f 493 414 502
f 28 493 502
f 28 502 500
f 505 506 422
f 505 422 201
f 506 503 80
f 506 80 422
f 504 161 503
f 504 503 506
f 29 504 506
f 29 506 505
f 509 510 504
f 509 504 29
f 510 507 161
f 510 161 504
f 508 81 507
f 508 507 510
f 185 508 510
f 185 510 509
f 512 513 509
f 512 509 29
f 513 511 185
f 513 185 509
f 495 96 511
f 495 511 513
f 160 495 513
f 160 513 512
f 512 514 491
f 512 491 160
f 514 427 92
f 514 92 491
f 505 201 427
f 505 427 514
f 29 505 514
f 29 514 512
f 517 518 435
f 517 435 202
f 518 515 83
f 518 83 435
f 516 162 515
f 516 515 518
f 30 516 518
f 30 518 517
f 521 522 516
f 521 516 30
f 522 519 162
f 522 162 516
f 520 84 519
f 520 519 522
f 186 520 522
f 186 522 521
f 524 525 521
f 524 521 30
f 525 523 186
f 525 186 521
f 507 81 523
f 507 523 525
f 161 507 525
f 161 525 524
f 524 526 503
f 524 503 161
f 526 441 80
f 526 80 503
f 517 202 441
f 517 441 526
f 30 517 526
f 30 526 524
f 529 530 448
f 529 448 203
f 530 527 86
f 530 86 448
f 528 163 527
f 528 527 530
f 31 528 530
f 31 530 529
f 533 534 528
f 533 528 31
f 534 531 163
f 534 163 528
f 532 87 531
f 532 531 534
f 187 532 534
f 187 534 533
f 536 537 533
f 536 533 31
f 537 535 187
f 537 187 533
f 519 84 535
f 519 535 537
f 162 519 537
f 162 537 536
f 536 538 515
f 536 515 162
f 538 453 83
f 538 83 515
f 529 203 453
f 529 453 538
f 31 529 538
f 31 538 536
f 541 542 539
f 541 539 32
f 542 486 164
f 542 164 539
f 540 89 486
f 540 486 542
f 188 540 542
f 188 542 541
f 543 544 460
f 543 460 204
f 544 489 90
f 544 90 460
f 539 164 489
f 539 489 544
f 32 539 544
f 32 544 543
f 546 547 541
f 546 541 32
f 547 545 188
f 547 188 541
f 531 87 545
f 531 545 547
f 163 531 547
f 163 547 546
f 546 548 527
f 546 527 163
f 548 465 86
f 548 86 527
f 543 204 465
f 543 465 548
f 32 543 548
f 32 548 546
f 552 553 549
f 552 549 33
f 553 550 165
f 553 165 549
f 551 73 550
f 551 550 553
f 189 551 553
f 189 553 552
f 555 556 482
f 555 482 183
f 556 554 95
f 556 95 482
f 549 165 554
f 549 554 556
f 33 549 556
f 33 556 555
f 559 560 552
f 559 552 33
f 560 557 189
f 560 189 552
f 558 78 557
f 558 557 560
f 170 558 560
f 170 560 559
f 555 562 559
f 555 559 33
f 562 561 170
f 562 170 559
f 485 89 561
f 485 561 562
f 183 485 562
f 183 562 555
f 566 567 563
f 566 563 34
f 567 564 166
f 567 166 563
f 565 74 564
f 565 564 567
f 190 565 567
f 190 567 566
f 569 570 496
f 569 496 184
f 570 568 96
f 570 96 496
f 563 166 568
f 563 568 570
f 34 563 570
f 34 570 569
f 572 573 566
f 572 566 34
f 573 571 190
f 573 190 566
f 550 73 571
f 550 571 573
f 165 550 573
f 165 573 572
f 569 574 572
f 569 572 34
f 574 554 165
f 574 165 572
f 499 95 554
f 499 554 574
f 184 499 574
f 184 574 569
f 578 579 575
f 578 575 35
f 579 576 167
f 579 167 575
f 577 75 576
f 577 576 579
f 191 577 579
f 191 579 578
f 581 582 508
f 581 508 185
f 582 580 81
f 582 81 508
f 575 167 580
f 575 580 582
f 35 575 582
f 35 582 581
f 584 585 578
f 584 578 35
f 585 583 191
f 585 191 578
f 564 74 583
f 564 583 585
f 166 564 585
f 166 585 584
f 581 586 584
f 581 584 35
f 586 568 166
f 586 166 584
f 511 96 568
f 511 568 586
f 185 511 586
f 185 586 581
f 590 591 587
f 590 587 36
f 591 588 168
f 591 168 587
f 589 76 588
f 589 588 591
f 192 589 591
f 192 591 590
f 593 594 520
f 593 520 186
f 594 592 84
f 594 84 520
f 587 168 592
f 587 592 594
f 36 587 594
f 36 594 593
f 596 597 590
f 596 590 36
f 597 595 192
f 597 192 590
f 576 75 595
f 576 595 597
f 167 576 597
f 167 597 596
f 593 598 596
f 593 596 36
f 598 580 167
f 598 167 596
f 523 81 580
f 523 580 598
f 186 523 598
f 186 598 593
f 602 603 599
f 602 599 37
f 603 600 169
f 603 169 599
f 601 77 600
f 601 600 603
f 193 601 603
f 193 603 602
f 605 606 532
f 605 532 187
f 606 604 87
f 606 87 532
f 599 169 604
f 599 604 606
f 37 599 606
f 37 606 605
f 608 609 602
f 608 602 37
f 609 607 193
f 609 193 602
f 588 76 607
f 588 607 609
f 168 588 609
f 168 609 608
f 605 610 608
f 605 608 37
f 610 592 168
f 610 168 608
f 535 84 592
f 535 592 610
f 187 535 610
f 187 610 605
f 613 614 611
f 613 611 38
f 614 558 170
f 614 170 611
f 612 78 558
f 612 558 614
f 194 612 614
f 194 614 613
f 615 616 540
f 615 540 188
f 616 561 89
f 616 89 540
f 611 170 561
f 611 561 616
f 38 611 616
f 38 616 615
f 618 619 613
f 618 613 38
f 619 617 194
f 619 194 613
f 600 77 617
f 600 617 619
f 169 600 619
f 169 619 618
f 615 620 618
f 615 618 38
f 620 604 169
f 620 169 618
f 545 87 604
f 545 604 620
f 188 545 620
f 188 620 615
f 623 624 551
f 623 551 189
f 624 621 73
f 624 73 551
f 622 171 621
f 622 621 624
f 39 622 624
f 39 624 623
f 627 628 622
f 627 622 39
f 628 625 171
f 628 171 622
f 626 100 625
f 626 625 628
f 195 626 628
f 195 628 627
f 631 632 627
f 631 627 39
f 632 629 195
f 632 195 627
f 630 98 629
f 630 629 632
f 176 630 632
f 176 632 631
f 623 634 631
f 623 631 39
f 634 633 176
f 634 176 631
f 557 78 633
f 557 633 634
f 189 557 634
f 189 634 623
f 637 638 565
f 637 565 190
f 638 635 74
f 638 74 565
f 636 172 635
f 636 635 638
f 40 636 638
f 40 638 637
f 641 642 636
f 641 636 40
f 642 639 172
f 642 172 636
f 640 101 639
f 640 639 642
f 196 640 642
f 196 642 641
f 644 645 641
f 644 641 40
f 645 643 196
f 645 196 641
f 625 100 643
f 625 643 645
f 171 625 645
f 171 645 644
f 637 646 644
f 637 644 40
f 646 621 171
f 646 171 644
f 571 73 621
f 571 621 646
f 190 571 646
f 190 646 637
f 649 650 577
f 649 577 191
f 650 647 75
f 650 75 577
f 648 173 647
f 648 647 650
f 41 648 650
f 41 650 649
f 653 654 648
f 653 648 41
f 654 651 173
f 654 173 648
f 652 102 651
f 652 651 654
f 197 652 654
f 197 654 653
f 656 657 653
f 656 653 41
f 657 655 197
f 657 197 653
f 639 101 655
f 639 655 657
f 172 639 657
f 172 657 656
f 649 658 656
f 649 656 41
f 658 635 172
f 658 172 656
f 583 74 635
f 583 635 658
f 191 583 658
f 191 658 649
f 661 662 589
f 661 589 192
f 662 659 76
f 662 76 589
f 660 174 659
f 660 659 662
f 42 660 662
f 42 662 661
f 665 666 660
f 665 660 42
f 666 663 174
f 666 174 660
f 664 99 663
f 664 663 666
f 198 664 666
f 198 666 665
f 668 669 665
f 668 665 42
f 669 667 198
f 669 198 665
f 651 102 667
f 651 667 669
f 173 651 669
f 173 669 668
f 661 670 668
f 661 668 42
f 670 647 173
f 670 173 668
f 595 75 647
f 595 647 670
f 192 595 670
f 192 670 661
f 673 674 601
f 673 601 193
f 674 671 77
f 674 77 601
f 672 175 671
f 672 671 674
f 43 672 674
f 43 674 673
f 677 678 672
f 677 672 43
f 678 675 175
f 678 175 672
f 676 97 675
f 676 675 678
f 199 676 678
f 199 678 677
f 680 681 677
f 680 677 43
f 681 679 199
f 681 199 677
f 663 99 679
f 663 679 681
f 174 663 681
f 174 681 680
f 673 682 680
f 673 680 43
f 682 659 174
f 682 174 680
f 607 76 659
f 607 659 682
f 193 607 682
f 193 682 673
f 684 685 612
f 684 612 194
f 685 633 78
f 685 78 612
f 683 176 633
f 683 633 685
f 44 683 685
f 44 685 684
f 687 688 683
f 687 683 44
f 688 630 176
f 688 176 683
f 686 98 630
f 686 630 688
f 200 686 688
f 200 688 687
f 690 691 687
f 690 687 44
f 691 689 200
f 691 200 687
f 675 97 689
f 675 689 691
f 175 675 691
f 175 691 690
f 684 692 690
f 684 690 44
f 692 671 175
f 692 175 690
f 617 77 671
f 617 671 692
f 194 617 692
f 194 692 684
f 695 696 626
f 695 626 195
f 696 693 100
f 696 100 626
f 694 177 693
f 694 693 696
f 45 694 696
f 45 696 695
f 699 700 694
f 699 694 45
f 700 697 177
f 700 177 694
f 698 109 697
f 698 697 700
f 211 698 700
f 211 700 699
f 703 704 699
f 703 699 45
f 704 701 211
f 704 211 699
f 702 107 701
f 702 701 704
f 182 702 704
f 182 704 703
f 695 706 703
f 695 703 45
f 706 705 182
f 706 182 703
f 629 98 705
f 629 705 706
f 195 629 706
f 195 706 695
f 709 710 640
f 709 640 196
f 710 707 101
f 710 101 640
f 708 178 707
f 708 707 710
f 46 708 710
f 46 710 709
f 713 714 711
f 713 711 46
f 714 712 214
f 714 214 711
f 697 109 712
f 697 712 714
f 177 697 714
f 177 714 713
f 709 715 713
f 709 713 46
f 715 693 177
f 715 177 713
f 643 100 693
f 643 693 715
f 196 643 715
f 196 715 709
f 718 719 652
f 718 652 197
f 719 716 102
f 719 102 652
f 717 179 716
f 717 716 719
f 47 717 719
f 47 719 718
f 718 721 720
f 718 720 47
f 721 707 178
f 721 178 720
f 655 101 707
f 655 707 721
f 197 655 721
f 197 721 718
f 724 725 664
f 724 664 198
f 725 722 99
f 725 99 664
f 723 180 722
f 723 722 725
f 48 723 725
f 48 725 724
f 728 729 723
f 728 723 48
f 729 726 180
f 729 180 723
f 727 104 726
f 727 726 729
f 213 727 729
f 213 729 728
f 732 733 728
f 732 728 48
f 733 730 213
f 733 213 728
f 731 106 730
f 731 730 733
f 179 731 733
f 179 733 732
f 724 734 732
f 724 732 48
f 734 716 179
f 734 179 732
f 667 102 716
f 667 716 734
f 198 667 734
f 198 734 724
f 737 738 676
f 737 676 199
f 738 735 97
f 738 97 676
f 736 181 735
f 736 735 738
f 49 736 738
f 49 738 737
f 741 742 736
f 741 736 49
f 742 739 181
f 742 181 736
f 740 105 739
f 740 739 742
f 208 740 742
f 208 742 741
f 744 745 741
f 744 741 49
f 745 743 208
f 745 208 741
f 726 104 743
f 726 743 745
f 180 726 745
f 180 745 744
f 737 746 744
f 737 744 49
f 746 722 180
f 746 180 744
f 679 99 722
f 679 722 746
f 199 679 746
f 199 746 737
f 748 749 686
f 748 686 200
f 749 705 98
f 749 98 686
f 747 182 705
f 747 705 749
f 50 747 749
f 50 749 748
f 751 752 747
f 751 747 50
f 752 702 182
f 752 182 747
f 750 107 702
f 750 702 752
f 207 750 752
f 207 752 751
f 754 755 751
f 754 751 50
f 755 753 207
f 755 207 751
f 739 105 753
f 739 753 755
f 181 739 755
f 181 755 754
f 748 756 754
f 748 754 50
f 756 735 181
f 756 181 754
f 689 97 735
f 689 735 756
f 200 689 756
f 200 756 748
f 758 759 757
f 758 757 1
f 759 411 147
f 759 147 757
f 393 93 411
f 393 411 759
f 146 393 759
f 146 759 758
f 760 761 361
f 760 361 139
f 761 401 91
f 761 91 361
f 757 147 401
f 757 401 761
f 1 757 761
f 1 761 760
f 758 764 389
f 758 389 146
f 764 762 72
f 764 72 389
f 763 115 762
f 763 762 764
f 1 763 764
f 1 764 758
f 766 767 765
f 766 765 112
f 767 358 66
f 767 66 765
f 760 139 358
f 760 358 767
f 1 760 767
f 1 767 766
f 118 866 873
f 118 873 235
f 8 236 873
f 8 873 866
f 868 875 236
f 868 236 8
f 119 229 875
f 119 875 868
f 773 774 772
f 773 772 2
f 774 258 120
f 774 120 772
f 765 66 258
f 765 258 774
f 112 765 774
f 112 774 773
f 825 871 229
f 825 229 119
f 5 230 871
f 5 871 825
f 7 857 861
f 7 861 234
f 118 235 861
f 118 861 857
f 779 780 247
f 779 247 57
f 780 772 120
f 780 120 247
f 778 2 772
f 778 772 780
f 113 778 780
f 113 780 779
f 117 847 851
f 117 851 233
f 7 234 851
f 7 851 847
f 6 840 843
f 6 843 232
f 117 233 843
f 117 843 840
f 785 786 784
f 785 784 3
f 786 319 126
f 786 126 784
f 779 57 319
f 779 319 786
f 113 779 786
f 113 786 785
f 787 788 332
f 787 332 131
f 788 315 59
f 788 59 332
f 784 126 315
f 784 315 788
f 3 784 788
f 3 788 787
f 116 835 837
f 116 837 231
f 6 232 837
f 6 837 835
f 827 831 230
f 827 230 5
f 116 231 831
f 116 831 827
f 793 794 792
f 793 792 65
f 794 781 225
f 794 225 792
f 775 224 781
f 775 781 794
f 223 775 794
f 223 794 793
f 796 797 336
f 796 336 63
f 797 787 131
f 797 131 336
f 795 3 787
f 795 787 797
f 114 795 797
f 114 797 796
f 799 800 789
f 799 789 226
f 800 792 225
f 800 225 789
f 798 65 792
f 798 792 800
f 227 798 800
f 227 800 799
f 114 804 811
f 114 811 227
f 4 228 811
f 4 811 804
f 806 813 228
f 806 228 4
f 115 221 813
f 115 813 806
f 804 805 803
f 804 803 4
f 805 284 124
f 805 124 803
f 796 63 284
f 796 284 805
f 114 796 805
f 114 805 804
f 803 807 806
f 803 806 4
f 807 762 115
f 807 115 806
f 290 72 762
f 290 762 807
f 124 290 807
f 124 807 803
f 763 809 221
f 763 221 115
f 1 222 809
f 1 809 763
f 3 795 799
f 3 799 226
f 114 227 799
f 114 799 795
f 813 814 811
f 813 811 228
f 814 798 227
f 814 227 811
f 812 65 798
f 812 798 814
f 221 812 814
f 221 814 813
f 809 815 812
f 809 812 221
f 815 793 65
f 815 65 812
f 769 223 793
f 769 793 815
f 222 769 815
f 222 815 809
f 113 785 789
f 113 789 225
f 3 226 789
f 3 789 785
f 2 778 781
f 2 781 224
f 113 225 781
f 113 781 778
f 112 773 775
f 112 775 223
f 2 224 775
f 2 775 773
f 766 769 222
f 766 222 1
f 112 223 769
f 112 769 766
f 820 821 375
f 820 375 145
f 821 429 82
f 821 82 375
f 819 151 429
f 819 429 821
f 5 819 821
f 5 821 820
f 822 823 819
f 822 819 5
f 823 439 151
f 823 151 819
f 353 79 439
f 353 439 823
f 138 353 823
f 138 823 822
f 822 826 349
f 822 349 138
f 826 824 67
f 826 67 349
f 825 119 824
f 825 824 826
f 5 825 826
f 5 826 822
f 828 829 372
f 828 372 69
f 829 820 145
f 829 145 372
f 827 5 820
f 827 820 829
f 116 827 829
f 116 829 828
f 110 914 768
f 110 768 777
f 914 220 903
f 914 903 768
f 768 903 108
f 768 108 771
f 777 768 771
f 777 771 243
f 835 836 834
f 835 834 6
f 836 303 122
f 836 122 834
f 828 69 303
f 828 303 836
f 116 828 836
f 116 836 835
f 243 771 770
f 243 770 808
f 771 108 941
f 771 941 770
f 770 941 219
f 770 219 872
f 808 770 872
f 808 872 111
f 841 842 297
f 841 297 64
f 842 834 122
f 842 122 297
f 840 6 834
f 840 834 842
f 117 840 842
f 117 842 841
f 56 783 776
f 56 776 802
f 783 217 930
f 783 930 776
f 776 930 110
f 776 110 777
f 802 776 777
f 802 777 243
f 847 848 846
f 847 846 7
f 848 329 129
f 848 129 846
f 841 64 329
f 841 329 848
f 117 841 848
f 117 848 847
f 849 850 308
f 849 308 128
f 850 321 58
f 850 58 308
f 846 129 321
f 846 321 850
f 7 846 850
f 7 850 849
f 56 791 782
f 56 782 783
f 791 238 934
f 791 934 782
f 782 934 244
f 782 244 936
f 783 782 936
f 783 936 217
f 855 856 854
f 855 854 68
f 856 843 233
f 856 233 854
f 837 232 843
f 837 843 856
f 231 837 856
f 231 856 855
f 858 859 312
f 858 312 60
f 859 849 128
f 859 128 312
f 857 7 849
f 857 849 859
f 118 857 859
f 118 859 858
f 861 862 851
f 861 851 234
f 862 854 233
f 862 233 851
f 860 68 854
f 860 854 862
f 235 860 862
f 235 862 861
f 56 810 790
f 56 790 791
f 810 218 830
f 810 830 790
f 790 830 239
f 790 239 927
f 791 790 927
f 791 927 238
f 866 867 865
f 866 865 8
f 867 253 121
f 867 121 865
f 858 60 253
f 858 253 867
f 118 858 867
f 118 867 866
f 865 869 868
f 865 868 8
f 869 824 119
f 869 119 868
f 260 67 824
f 260 824 869
f 121 260 869
f 121 869 865
f 243 808 801
f 243 801 802
f 808 111 838
f 808 838 801
f 801 838 218
f 801 218 810
f 802 801 810
f 802 810 56
f 875 876 873
f 875 873 236
f 876 860 235
f 876 235 873
f 874 68 860
f 874 860 876
f 229 874 876
f 229 876 875
f 871 877 874
f 871 874 229
f 877 855 68
f 877 68 874
f 831 231 855
f 831 855 877
f 230 831 877
f 230 877 871
f 246 839 816
f 246 816 818
f 839 245 879
f 839 879 816
f 816 879 212
f 816 212 863
f 818 816 863
f 818 863 54
f 246 818 817
f 246 817 833
f 818 54 845
f 818 845 817
f 817 845 239
f 817 239 830
f 833 817 830
f 833 830 218
f 882 883 881
f 882 881 216
f 883 717 47
f 883 47 881
f 731 179 717
f 731 717 883
f 106 731 883
f 106 883 882
f 886 887 712
f 886 712 109
f 887 884 214
f 887 214 712
f 885 55 884
f 885 884 887
f 215 885 887
f 215 887 886
f 886 890 888
f 886 888 215
f 890 889 53
f 890 53 888
f 698 211 889
f 698 889 890
f 109 698 890
f 109 890 886
f 893 894 891
f 893 891 51
f 894 892 209
f 894 209 891
f 753 105 892
f 753 892 894
f 207 753 894
f 207 894 893
f 898 899 895
f 898 895 51
f 899 896 210
f 899 210 895
f 897 53 896
f 897 896 899
f 241 897 899
f 241 899 898
f 893 901 750
f 893 750 207
f 901 900 107
f 901 107 750
f 895 210 900
f 895 900 901
f 51 895 901
f 51 901 893
f 898 905 902
f 898 902 241
f 905 903 220
f 905 220 902
f 904 108 903
f 904 903 905
f 51 904 905
f 51 905 898
f 892 908 906
f 892 906 209
f 908 907 52
f 908 52 906
f 740 208 907
f 740 907 908
f 105 740 908
f 105 908 892
f 900 909 701
f 900 701 107
f 909 889 211
f 909 211 701
f 896 53 889
f 896 889 909
f 210 896 909
f 210 909 900
f 911 912 897
f 911 897 241
f 912 888 53
f 912 53 897
f 910 215 888
f 910 888 912
f 242 910 912
f 242 912 911
f 902 915 911
f 902 911 241
f 915 913 242
f 915 242 911
f 914 110 913
f 914 913 915
f 220 914 915
f 220 915 902
f 917 918 910
f 917 910 242
f 918 885 215
f 918 215 910
f 916 55 885
f 916 885 918
f 237 916 918
f 237 918 917
f 920 921 919
f 920 919 103
f 921 711 214
f 921 214 919
f 708 46 711
f 708 711 921
f 178 708 921
f 178 921 920
f 922 923 916
f 922 916 237
f 923 884 55
f 923 55 916
f 919 214 884
f 919 884 923
f 103 919 923
f 103 923 922
f 924 925 920
f 924 920 103
f 925 720 178
f 925 178 920
f 881 47 720
f 881 720 925
f 216 881 925
f 216 925 924
f 928 929 882
f 928 882 216
f 929 926 106
f 929 106 882
f 927 239 926
f 927 926 929
f 238 927 929
f 238 929 928
f 931 932 930
f 931 930 217
f 932 913 110
f 932 110 930
f 917 242 913
f 917 913 932
f 237 917 932
f 237 932 931
f 934 935 933
f 934 933 244
f 935 924 103
f 935 103 933
f 928 216 924
f 928 924 935
f 238 928 935
f 238 935 934
f 936 937 931
f 936 931 217
f 937 922 237
f 937 237 931
f 933 103 922
f 933 922 937
f 244 933 937
f 244 937 936
f 939 940 938
f 939 938 240
f 940 906 52
f 940 52 938
f 891 209 906
f 891 906 940
f 51 891 940
f 51 940 939
f 939 943 904
f 939 904 51
f 943 941 108
f 943 108 904
f 942 219 941
f 942 941 943
f 240 942 943
f 240 943 939
f 945 946 743
f 945 743 104
f 946 907 208
f 946 208 743
f 944 52 907
f 944 907 946
f 212 944 946
f 212 946 945
f 879 878 944
f 879 944 212
f 878 938 52
f 878 52 944
f 880 240 938
f 880 938 878
f 245 880 878
f 245 878 879
f 870 864 880
f 870 880 245
f 864 942 240
f 864 240 880
f 872 219 942
f 872 942 864
f 111 872 864
f 111 864 870
f 853 852 727
f 853 727 213
f 852 945 104
f 852 104 727
f 863 212 945
f 863 945 852
f 54 863 852
f 54 852 853
f 845 844 926
f 845 926 239
f 844 730 106
f 844 106 926
f 853 213 730
f 853 730 844
f 54 853 844
f 54 844 845
f 833 832 839
f 833 839 246
f 832 870 245
f 832 245 839
f 838 111 870
f 838 870 832
f 218 838 832
f 218 832 833
