# _4th_Proximal_Phalanges_Hand_L posed
v -0.818643 -0.312519 0.402798
v -0.817048 -0.315805 0.400589
v -0.815481 -0.315617 0.400834
v -0.814028 -0.316715 0.398930
v -0.813507 -0.315670 0.397388
v -0.815344 -0.315284 0.396533
v -0.817519 -0.314484 0.397364
v -0.818204 -0.315582 0.398247
v -0.818360 -0.314995 0.400127
v -0.815712 -0.317116 0.397947
v -0.817292 -0.312525 0.403183
v -0.819472 -0.312353 0.401706
v -0.820304 -0.309326 0.403730
v -0.821070 -0.310039 0.402591
v -0.818490 -0.309281 0.403757
v -0.818585 -0.307666 0.402851
v -0.820336 -0.307860 0.402447
v -0.821654 -0.309003 0.401420
v -0.819300 -0.308344 0.400419
v -0.820335 -0.309218 0.400213
v -0.817816 -0.308216 0.401045
v -0.817148 -0.311492 0.398629
v -0.818850 -0.311792 0.398989
v -0.820039 -0.312226 0.400104
v -0.815770 -0.311585 0.399289
v -0.812416 -0.316130 0.399764
v -0.813700 -0.315064 0.401694
v -0.812227 -0.315130 0.398455
v -0.815157 -0.312636 0.403371
v -0.816013 -0.310127 0.403652
v -0.815994 -0.309020 0.402761
v -0.815411 -0.309313 0.401388
v -0.813779 -0.311790 0.399534
v -0.812482 -0.309340 0.403054
v -0.812479 -0.310792 0.404052
v -0.811696 -0.312902 0.403653
v -0.810518 -0.314792 0.402399
v -0.809291 -0.315957 0.400495
v -0.808941 -0.315078 0.399080
v -0.809882 -0.312526 0.399419
v -0.811267 -0.310224 0.401015
v -0.808492 -0.308991 0.403933
v -0.808417 -0.311068 0.405047
v -0.807453 -0.313394 0.404423
v -0.806273 -0.315293 0.403138
v -0.804997 -0.316513 0.401190
v -0.804641 -0.315545 0.399691
v -0.805389 -0.313159 0.399769
v -0.806879 -0.310475 0.401318
v -0.804482 -0.309576 0.404536
v -0.804433 -0.311507 0.405695
v -0.803553 -0.313804 0.405199
v -0.802306 -0.315811 0.403790
v -0.801018 -0.317049 0.401758
v -0.800580 -0.316153 0.400140
v -0.801484 -0.313561 0.400426
v -0.802978 -0.310741 0.402008
v -0.801134 -0.308476 0.405485
v -0.801253 -0.310854 0.407166
v -0.800272 -0.313862 0.406853
v -0.798589 -0.316427 0.404754
v -0.796793 -0.318096 0.401977
v -0.795909 -0.317193 0.399389
v -0.797445 -0.313496 0.400743
v -0.799178 -0.309768 0.402262
v -0.798741 -0.314017 0.407743
v -0.796590 -0.317383 0.405284
v -0.793847 -0.319428 0.401969
v -0.792656 -0.317886 0.399432
v -0.795211 -0.313805 0.401457
v -0.796544 -0.308741 0.402658
v -0.799469 -0.307236 0.406440
v -0.799960 -0.310334 0.408167
v -0.797199 -0.314100 0.407478
v -0.798455 -0.311055 0.408093
v -0.797396 -0.309691 0.406795
v -0.795608 -0.310181 0.404189
v -0.794747 -0.314017 0.402993
v -0.792704 -0.317009 0.401874
v -0.793148 -0.317963 0.403667
v -0.795349 -0.317083 0.406047
v -0.795695 -0.314084 0.405501
v -0.818978 -0.310043 0.399546
v -0.817257 -0.316232 0.399126
v -0.821290 -0.308644 0.402832
v -0.820819 -0.308042 0.401150
v -0.818836 -0.313630 0.398393
v -0.819131 -0.313863 0.400122
v -0.818457 -0.313967 0.401431
v -0.820013 -0.311050 0.402858
v -0.820805 -0.310863 0.401610
v -0.820449 -0.310438 0.400061
v -0.816522 -0.316292 0.396797
v -0.817195 -0.313201 0.397708
v -0.814114 -0.317133 0.397092
v -0.815428 -0.316781 0.399450
v -0.817105 -0.314301 0.401916
v -0.818874 -0.310727 0.403686
v -0.819730 -0.308043 0.403470
v -0.819270 -0.307550 0.401786
v -0.817627 -0.309620 0.399836
v -0.815127 -0.313607 0.397514
v -0.809823 -0.309443 0.402245
v -0.806707 -0.309975 0.405190
v -0.805992 -0.312517 0.405214
v -0.804907 -0.314680 0.404236
v -0.803623 -0.316303 0.402539
v -0.802648 -0.316605 0.400549
v -0.802911 -0.314695 0.399801
v -0.804106 -0.311976 0.400652
v -0.805811 -0.309477 0.402865
v -0.815548 -0.314162 0.402374
v -0.812978 -0.313855 0.402893
v -0.809048 -0.314102 0.403516
v -0.814007 -0.315982 0.400261
v -0.811617 -0.315619 0.401155
v -0.807775 -0.315746 0.401879
v -0.813053 -0.316217 0.398585
v -0.810732 -0.315874 0.399273
v -0.806802 -0.316048 0.399928
v -0.813848 -0.313634 0.398425
v -0.811215 -0.313694 0.398781
v -0.807119 -0.314096 0.399261
v -0.816043 -0.309981 0.400471
v -0.812751 -0.310804 0.400239
v -0.808294 -0.311548 0.400173
v -0.817292 -0.308217 0.402204
v -0.813995 -0.309323 0.402085
v -0.816987 -0.310967 0.403762
v -0.814054 -0.311580 0.403785
v -0.817401 -0.308929 0.403207
v -0.814462 -0.309724 0.403449
v -0.810632 -0.309874 0.404269
v -0.810090 -0.312041 0.404414
v -0.801013 -0.314976 0.405079
v -0.799583 -0.316903 0.403169
v -0.798362 -0.317460 0.400742
v -0.798740 -0.315098 0.400129
v -0.800128 -0.312016 0.401446
v -0.801821 -0.309578 0.403582
v -0.802737 -0.310167 0.405852
v -0.802196 -0.312596 0.406216
v -0.800093 -0.312142 0.407898
v -0.800633 -0.308916 0.407189
v -0.799218 -0.307461 0.404172
v -0.796640 -0.311413 0.401175
v -0.794857 -0.315636 0.399751
v -0.794282 -0.318885 0.400316
v -0.796280 -0.318023 0.403578
v -0.798462 -0.315622 0.406455
v -0.798773 -0.312288 0.408305
v -0.799142 -0.308912 0.407953
v -0.797052 -0.307886 0.405194
v -0.795197 -0.312012 0.402585
v -0.793272 -0.315800 0.401160
v -0.792599 -0.318635 0.401432
v -0.794361 -0.318762 0.404225
v -0.797099 -0.315825 0.406943
v -0.797357 -0.312065 0.407232
v -0.795153 -0.316097 0.405867
v -0.796010 -0.312008 0.404974
v -0.793816 -0.316075 0.403390
v -0.817814 -0.314193 0.401794
v -0.816228 -0.315776 0.400629
v -0.814702 -0.316380 0.399815
v -0.813563 -0.316689 0.397975
v -0.814159 -0.315682 0.396641
v -0.816602 -0.314846 0.396901
v -0.817841 -0.315146 0.397444
v -0.818304 -0.315379 0.399334
v -0.817875 -0.315515 0.400324
v -0.814652 -0.317329 0.398245
v -0.816813 -0.316543 0.397942
v -0.816329 -0.316806 0.399234
v -0.815184 -0.316945 0.396650
v -0.817994 -0.312517 0.403048
v -0.816357 -0.314296 0.402067
v -0.819130 -0.312449 0.402258
v -0.818830 -0.313789 0.400878
v -0.819572 -0.310898 0.403482
v -0.820905 -0.309729 0.403195
v -0.820320 -0.311038 0.402221
v -0.818025 -0.310721 0.403726
v -0.819480 -0.309149 0.403864
v -0.818671 -0.308169 0.403487
v -0.820505 -0.308305 0.403217
v -0.819558 -0.307613 0.402684
v -0.821195 -0.308113 0.402101
v -0.821613 -0.309447 0.402226
v -0.821025 -0.308989 0.400660
v -0.820037 -0.307685 0.401504
v -0.819964 -0.308749 0.400284
v -0.818365 -0.307616 0.402011
v -0.818617 -0.308093 0.400719
v -0.816121 -0.313305 0.397454
v -0.818119 -0.313289 0.398068
v -0.818030 -0.311599 0.398701
v -0.819718 -0.310286 0.399715
v -0.818264 -0.309788 0.399588
v -0.819581 -0.312032 0.399398
v -0.819286 -0.313883 0.399136
v -0.821101 -0.310603 0.400704
v -0.819828 -0.312316 0.401037
v -0.816408 -0.311512 0.398890
v -0.814448 -0.313732 0.397967
v -0.816937 -0.309687 0.400200
v -0.813407 -0.316271 0.399397
v -0.814729 -0.315346 0.401238
v -0.812973 -0.315762 0.400735
v -0.813070 -0.315431 0.398015
v -0.812110 -0.315986 0.398924
v -0.814452 -0.313967 0.402656
v -0.816336 -0.312590 0.403300
v -0.815700 -0.311280 0.403746
v -0.817343 -0.309666 0.403618
v -0.816065 -0.309426 0.403250
v -0.817373 -0.308432 0.402762
v -0.815846 -0.308903 0.402193
v -0.816854 -0.308678 0.401359
v -0.814691 -0.310328 0.400460
v -0.815009 -0.311657 0.399527
v -0.812875 -0.313527 0.398707
v -0.812602 -0.309901 0.403758
v -0.812154 -0.311829 0.404004
v -0.811143 -0.313914 0.403107
v -0.809886 -0.315508 0.401518
v -0.808946 -0.315822 0.399614
v -0.809269 -0.313879 0.398975
v -0.810553 -0.311281 0.400099
v -0.811939 -0.309506 0.402049
v -0.808674 -0.309813 0.404828
v -0.807944 -0.312334 0.404815
v -0.806897 -0.314395 0.403872
v -0.805615 -0.316042 0.402217
v -0.804626 -0.316344 0.400234
v -0.804925 -0.314409 0.399525
v -0.806092 -0.311760 0.400390
v -0.807759 -0.309366 0.402544
v -0.804602 -0.310372 0.405343
v -0.804080 -0.312663 0.405613
v -0.802966 -0.314867 0.404587
v -0.801649 -0.316563 0.402843
v -0.800589 -0.316976 0.400721
v -0.800912 -0.314953 0.400047
v -0.802177 -0.312127 0.401079
v -0.803851 -0.309691 0.403208
v -0.801440 -0.309395 0.406648
v -0.800853 -0.312334 0.407238
v -0.799465 -0.315299 0.405975
v -0.797701 -0.317355 0.403465
v -0.796073 -0.318271 0.400462
v -0.796564 -0.315328 0.399834
v -0.798205 -0.311650 0.401360
v -0.800279 -0.308552 0.403881
v -0.810463 -0.309186 0.403468
v -0.810446 -0.310941 0.404506
v -0.809609 -0.313109 0.404065
v -0.808418 -0.315000 0.402785
v -0.807171 -0.316204 0.400861
v -0.806811 -0.315257 0.399383
v -0.807640 -0.312832 0.399568
v -0.809034 -0.310371 0.401091
v -0.806545 -0.309136 0.404299
v -0.806439 -0.311266 0.405410
v -0.805480 -0.313644 0.404813
v -0.804274 -0.315576 0.403462
v -0.803025 -0.316746 0.401510
v -0.802623 -0.315817 0.399972
v -0.803421 -0.313368 0.400055
v -0.804905 -0.310639 0.401584
v -0.802507 -0.309427 0.404899
v -0.802617 -0.311303 0.406313
v -0.801635 -0.313855 0.405723
v -0.800299 -0.316034 0.404227
v -0.798888 -0.317456 0.401927
v -0.798338 -0.316481 0.400053
v -0.799384 -0.313578 0.400684
v -0.800952 -0.310535 0.402340
v -0.813579 -0.312743 0.403458
v -0.812304 -0.314837 0.402110
v -0.811013 -0.316045 0.400131
v -0.810768 -0.315046 0.398759
v -0.811980 -0.312141 0.399421
v -0.813453 -0.309857 0.401186
v -0.814358 -0.309281 0.402877
v -0.814357 -0.310525 0.403784
v -0.799404 -0.313954 0.407466
v -0.797424 -0.316928 0.405024
v -0.797779 -0.315809 0.406740
v -0.795102 -0.318859 0.403780
v -0.795163 -0.318796 0.401951
v -0.793069 -0.319102 0.400561
v -0.794021 -0.317726 0.399141
v -0.793649 -0.315815 0.400081
v -0.796074 -0.313555 0.400990
v -0.795590 -0.311685 0.401601
v -0.797769 -0.308775 0.402207
v -0.798153 -0.307300 0.404629
v -0.800282 -0.307609 0.405997
v -0.800042 -0.308556 0.407698
v -0.800465 -0.310531 0.407731
v -0.799506 -0.312121 0.408252
v -0.798018 -0.314067 0.407806
v -0.799140 -0.310596 0.408351
v -0.797978 -0.312373 0.407938
v -0.798122 -0.310250 0.407711
v -0.798342 -0.307886 0.406839
v -0.796405 -0.309573 0.405409
v -0.795622 -0.309261 0.403474
v -0.795359 -0.312263 0.403644
v -0.794796 -0.313942 0.402162
v -0.793548 -0.315772 0.402348
v -0.792304 -0.317436 0.400850
v -0.792715 -0.317671 0.402493
v -0.793229 -0.319059 0.402609
v -0.794208 -0.317703 0.405130
v -0.795832 -0.317398 0.405801
v -0.796176 -0.315837 0.406780
v -0.796720 -0.311861 0.406213
v -0.795108 -0.314050 0.404180
v -0.794295 -0.316254 0.404580
v -0.796458 -0.314065 0.406651
f 174 96 164
f 174 164 2
f 2 164 97
f 2 97 163
f 2 163 89
f 2 89 171
f 2 171 84
f 2 84 174
f 164 96 165
f 164 165 3
f 3 165 115
f 3 115 208
f 3 208 112
f 3 112 177
f 177 97 164
f 177 164 3
f 172 95 166
f 172 166 4
f 4 166 118
f 4 118 207
f 4 207 115
f 4 115 165
f 4 165 96
f 4 96 172
f 166 95 167
f 166 167 5
f 5 167 102
f 5 102 205
f 5 210 118
f 5 118 166
f 205 121 210
f 205 210 5
f 175 93 168
f 175 168 6
f 6 168 94
f 6 94 195
f 6 195 102
f 6 102 167
f 6 167 95
f 6 95 175
f 7 169 87
f 7 87 196
f 168 93 169
f 168 169 7
f 7 196 94
f 7 94 168
f 173 84 170
f 173 170 8
f 8 170 88
f 8 88 201
f 8 201 87
f 8 87 169
f 8 169 93
f 8 93 173
f 170 84 171
f 170 171 9
f 9 171 89
f 9 89 179
f 179 88 170
f 179 170 9
f 176 97 177
f 176 177 11
f 11 177 112
f 11 112 213
f 11 183 98
f 11 98 176
f 213 129 183
f 213 183 11
f 203 88 179
f 203 179 12
f 12 179 89
f 12 89 178
f 178 90 182
f 178 182 12
f 12 182 91
f 12 91 203
f 186 85 181
f 186 181 13
f 13 181 90
f 13 90 180
f 180 98 184
f 180 184 13
f 13 184 99
f 13 99 186
f 181 85 189
f 181 189 14
f 14 189 91
f 14 91 182
f 182 90 181
f 182 181 14
f 15 185 99
f 15 99 184
f 215 131 185
f 215 185 15
f 183 129 215
f 183 215 15
f 184 98 183
f 184 183 15
f 16 187 99
f 16 99 185
f 193 100 187
f 193 187 16
f 217 127 193
f 217 193 16
f 185 131 217
f 185 217 16
f 17 188 85
f 17 85 186
f 191 86 188
f 191 188 17
f 187 100 191
f 187 191 17
f 17 186 99
f 17 99 187
f 188 86 190
f 188 190 18
f 18 190 92
f 18 92 202
f 189 85 188
f 189 188 18
f 202 91 189
f 202 189 18
f 199 83 192
f 199 192 19
f 19 192 86
f 19 86 191
f 191 100 194
f 191 194 19
f 19 194 101
f 19 101 199
f 20 190 86
f 20 86 192
f 198 92 190
f 198 190 20
f 20 192 83
f 20 83 198
f 21 219 124
f 21 124 206
f 193 127 219
f 193 219 21
f 194 100 193
f 194 193 21
f 206 101 194
f 206 194 21
f 22 197 83
f 22 83 199
f 195 94 197
f 195 197 22
f 22 199 101
f 22 101 204
f 22 204 102
f 22 102 195
f 23 198 83
f 23 83 197
f 200 92 198
f 200 198 23
f 196 87 200
f 196 200 23
f 197 94 196
f 197 196 23
f 203 91 202
f 203 202 24
f 24 202 92
f 24 92 200
f 201 88 203
f 201 203 24
f 24 200 87
f 24 87 201
f 25 205 102
f 25 102 204
f 221 121 205
f 221 205 25
f 204 101 206
f 204 206 25
f 25 206 124
f 25 124 221
f 26 209 115
f 26 115 207
f 281 116 209
f 281 209 26
f 207 118 211
f 207 211 26
f 26 211 119
f 26 119 281
f 27 212 112
f 27 112 208
f 280 113 212
f 280 212 27
f 27 208 115
f 27 115 209
f 27 209 116
f 27 116 280
f 211 118 210
f 211 210 28
f 28 210 121
f 28 121 222
f 282 119 211
f 282 211 28
f 28 222 122
f 28 122 282
f 29 214 129
f 29 129 213
f 279 130 214
f 279 214 29
f 213 112 212
f 213 212 29
f 29 212 113
f 29 113 279
f 30 216 131
f 30 131 215
f 286 132 216
f 286 216 30
f 214 130 286
f 214 286 30
f 215 129 214
f 215 214 30
f 31 218 127
f 31 127 217
f 285 128 218
f 285 218 31
f 217 131 216
f 217 216 31
f 31 216 132
f 31 132 285
f 32 220 124
f 32 124 219
f 284 125 220
f 284 220 32
f 218 128 284
f 218 284 32
f 219 127 218
f 219 218 32
f 33 222 121
f 33 121 221
f 283 122 222
f 283 222 33
f 220 125 283
f 220 283 33
f 221 124 220
f 221 220 33
f 285 132 223
f 285 223 34
f 34 223 133
f 34 133 255
f 34 255 103
f 34 103 230
f 230 128 285
f 230 285 34
f 286 130 224
f 286 224 35
f 35 224 134
f 35 134 256
f 35 256 133
f 35 133 223
f 35 223 132
f 35 132 286
f 279 113 225
f 279 225 36
f 36 225 114
f 36 114 257
f 36 257 134
f 36 134 224
f 224 130 279
f 224 279 36
f 280 116 226
f 280 226 37
f 37 226 117
f 37 117 258
f 37 258 114
f 37 114 225
f 225 113 280
f 225 280 37
f 281 119 227
f 281 227 38
f 38 227 120
f 38 120 259
f 38 259 117
f 38 117 226
f 226 116 281
f 226 281 38
f 282 122 228
f 282 228 39
f 39 228 123
f 39 123 260
f 39 260 120
f 39 120 227
f 227 119 282
f 227 282 39
f 283 125 229
f 283 229 40
f 40 229 126
f 40 126 261
f 40 261 123
f 40 123 228
f 40 228 122
f 40 122 283
f 41 230 103
f 41 103 262
f 284 128 230
f 284 230 41
f 41 262 126
f 41 126 229
f 41 229 125
f 41 125 284
f 42 231 104
f 42 104 263
f 255 133 231
f 255 231 42
f 42 263 111
f 42 111 238
f 42 238 103
f 42 103 255
f 43 232 105
f 43 105 264
f 256 134 232
f 256 232 43
f 43 264 104
f 43 104 231
f 43 231 133
f 43 133 256
f 44 233 106
f 44 106 265
f 257 114 233
f 257 233 44
f 44 265 105
f 44 105 232
f 44 232 134
f 44 134 257
f 45 234 107
f 45 107 266
f 258 117 234
f 258 234 45
f 45 266 106
f 45 106 233
f 45 233 114
f 45 114 258
f 46 235 108
f 46 108 267
f 259 120 235
f 259 235 46
f 46 267 107
f 46 107 234
f 46 234 117
f 46 117 259
f 47 236 109
f 47 109 268
f 260 123 236
f 260 236 47
f 47 268 108
f 47 108 235
f 47 235 120
f 47 120 260
f 48 237 110
f 48 110 269
f 261 126 237
f 261 237 48
f 48 269 109
f 48 109 236
f 48 236 123
f 48 123 261
f 262 103 238
f 262 238 49
f 49 238 111
f 49 111 270
f 49 270 110
f 49 110 237
f 49 237 126
f 49 126 262
f 263 104 239
f 263 239 50
f 50 239 141
f 50 141 271
f 50 271 140
f 50 140 246
f 50 246 111
f 50 111 263
f 264 105 240
f 264 240 51
f 51 240 142
f 51 142 272
f 51 272 141
f 51 141 239
f 51 239 104
f 51 104 264
f 265 106 241
f 265 241 52
f 52 241 135
f 52 135 273
f 52 273 142
f 52 142 240
f 52 240 105
f 52 105 265
f 266 107 242
f 266 242 53
f 53 242 136
f 53 136 274
f 53 274 135
f 53 135 241
f 53 241 106
f 53 106 266
f 267 108 243
f 267 243 54
f 54 243 137
f 54 137 275
f 54 275 136
f 54 136 242
f 54 242 107
f 54 107 267
f 268 109 244
f 268 244 55
f 55 244 138
f 55 138 276
f 55 276 137
f 55 137 243
f 55 243 108
f 55 108 268
f 269 110 245
f 269 245 56
f 56 245 139
f 56 139 277
f 56 277 138
f 56 138 244
f 56 244 109
f 56 109 269
f 270 111 246
f 270 246 57
f 57 246 140
f 57 140 278
f 57 278 139
f 57 139 245
f 57 245 110
f 57 110 270
f 271 141 247
f 271 247 58
f 58 247 144
f 58 144 299
f 58 299 145
f 58 145 254
f 58 254 140
f 58 140 271
f 272 142 248
f 272 248 59
f 59 248 143
f 59 143 301
f 59 301 144
f 59 144 247
f 59 247 141
f 59 141 272
f 273 135 249
f 273 249 60
f 60 249 150
f 60 150 287
f 60 287 143
f 60 143 248
f 60 248 142
f 60 142 273
f 274 136 250
f 274 250 61
f 61 250 149
f 61 149 288
f 61 288 150
f 61 150 249
f 61 249 135
f 61 135 274
f 275 137 251
f 275 251 62
f 62 251 148
f 62 148 291
f 62 291 149
f 62 149 250
f 62 250 136
f 62 136 275
f 276 138 252
f 276 252 63
f 63 252 147
f 63 147 293
f 63 293 148
f 63 148 251
f 63 251 137
f 63 137 276
f 277 139 253
f 277 253 64
f 64 253 146
f 64 146 295
f 64 295 147
f 64 147 252
f 64 252 138
f 64 138 277
f 278 140 254
f 278 254 65
f 65 254 145
f 65 145 297
f 65 297 146
f 65 146 253
f 65 253 139
f 65 139 278
f 287 150 289
f 287 289 66
f 66 289 158
f 66 158 303
f 66 303 151
f 66 151 302
f 302 143 287
f 302 287 66
f 288 149 290
f 288 290 67
f 67 290 157
f 67 157 317
f 67 317 158
f 67 158 289
f 289 150 288
f 289 288 67
f 291 148 292
f 291 292 68
f 68 292 156
f 68 156 315
f 68 315 157
f 68 157 290
f 68 290 149
f 68 149 291
f 293 147 294
f 293 294 69
f 69 294 155
f 69 155 313
f 69 313 156
f 69 156 292
f 69 292 148
f 69 148 293
f 295 146 296
f 295 296 70
f 70 296 154
f 70 154 311
f 70 311 155
f 70 155 294
f 70 294 147
f 70 147 295
f 297 145 298
f 297 298 71
f 71 298 153
f 71 153 309
f 71 309 154
f 71 154 296
f 71 296 146
f 71 146 297
f 299 144 300
f 299 300 72
f 72 300 152
f 72 152 307
f 72 307 153
f 72 153 298
f 72 298 145
f 72 145 299
f 301 143 302
f 301 302 73
f 73 302 151
f 73 151 304
f 73 304 152
f 73 152 300
f 73 300 144
f 73 144 301
f 74 305 151
f 74 151 303
f 322 159 305
f 322 305 74
f 74 303 158
f 74 158 318
f 74 318 160
f 74 160 322
f 75 306 152
f 75 152 304
f 305 159 306
f 305 306 75
f 75 304 151
f 75 151 305
f 76 308 153
f 76 153 307
f 319 161 308
f 319 308 76
f 306 159 319
f 306 319 76
f 307 152 306
f 307 306 76
f 77 310 154
f 77 154 309
f 308 161 310
f 308 310 77
f 309 153 308
f 309 308 77
f 78 312 155
f 78 155 311
f 320 162 312
f 320 312 78
f 310 161 320
f 310 320 78
f 311 154 310
f 311 310 78
f 79 314 156
f 79 156 313
f 312 162 314
f 312 314 79
f 313 155 312
f 313 312 79
f 80 316 157
f 80 157 315
f 321 160 316
f 321 316 80
f 315 156 314
f 315 314 80
f 80 314 162
f 80 162 321
f 81 318 158
f 81 158 317
f 316 160 318
f 316 318 81
f 317 157 316
f 317 316 81
f 322 160 321
f 322 321 82
f 82 321 162
f 82 162 320
f 319 159 322
f 319 322 82
f 320 161 319
f 320 319 82
f 173 10 174
f 173 174 84
f 89 163 1
f 89 1 178
f 178 1 180
f 178 180 90
f 175 10 173
f 175 173 93
f 172 10 175
f 172 175 95
f 96 174 10
f 96 10 172
f 176 1 163
f 176 163 97
f 98 180 1
f 98 1 176
