# _4th_Distal_Phalanges_Hand_L posed
v -0.869658 -0.313780 0.354414
v -0.869617 -0.312472 0.354891
v -0.870071 -0.311721 0.355711
v -0.870922 -0.311951 0.356053
v -0.871406 -0.313262 0.356203
v -0.871031 -0.315033 0.356054
v -0.870041 -0.315841 0.355469
v -0.869591 -0.315112 0.354714
v -0.865363 -0.317150 0.358889
v -0.864985 -0.316384 0.357933
v -0.864910 -0.314948 0.357657
v -0.865661 -0.313378 0.358055
v -0.866223 -0.312244 0.358977
v -0.866386 -0.312903 0.360126
v -0.865982 -0.314520 0.360818
v -0.865856 -0.316222 0.360124
v -0.862532 -0.318346 0.360485
v -0.862157 -0.317301 0.359301
v -0.862487 -0.315432 0.358923
v -0.863214 -0.313598 0.359356
v -0.863803 -0.312186 0.360539
v -0.864000 -0.312879 0.361994
v -0.863803 -0.314817 0.362620
v -0.863257 -0.316936 0.362123
v -0.870702 -0.313627 0.353656
v -0.870229 -0.312164 0.354006
v -0.870124 -0.315256 0.354122
v -0.871240 -0.313544 0.353159
v -0.870389 -0.315489 0.353586
v -0.870806 -0.311869 0.353560
v -0.872589 -0.312972 0.355366
v -0.871876 -0.315047 0.355320
v -0.871912 -0.311375 0.355412
v -0.870678 -0.310881 0.355208
v -0.870398 -0.316340 0.355151
v -0.873256 -0.312790 0.354760
v -0.872493 -0.315025 0.354746
v -0.870880 -0.316672 0.354573
v -0.871120 -0.310616 0.354776
v -0.872410 -0.311157 0.354909
v -0.874168 -0.312549 0.353027
v -0.873913 -0.313876 0.353235
v -0.873371 -0.314612 0.352528
v -0.872412 -0.314439 0.351983
v -0.872761 -0.313130 0.351839
v -0.872627 -0.311993 0.352220
v -0.873307 -0.311390 0.352702
v -0.873748 -0.311535 0.353176
v -0.873903 -0.312754 0.352087
v -0.873858 -0.312606 0.353930
v -0.873362 -0.314486 0.353951
v -0.872234 -0.315906 0.353433
v -0.871346 -0.315164 0.352557
v -0.871756 -0.313403 0.352363
v -0.871727 -0.311878 0.352803
v -0.872271 -0.310849 0.353658
v -0.873231 -0.311211 0.353987
v -0.860662 -0.316051 0.360318
v -0.860288 -0.317728 0.360155
v -0.860781 -0.318514 0.361148
v -0.861457 -0.317074 0.362544
v -0.861977 -0.314811 0.363205
v -0.862088 -0.313064 0.362847
v -0.861849 -0.312992 0.361457
v -0.861145 -0.314249 0.360866
v -0.861298 -0.315718 0.359253
v -0.860900 -0.317940 0.359441
v -0.861329 -0.319264 0.360836
v -0.862176 -0.317601 0.363138
v -0.862876 -0.314736 0.364022
v -0.863201 -0.312090 0.363148
v -0.862324 -0.311781 0.361018
v -0.861758 -0.313735 0.359680
v -0.866949 -0.313738 0.356547
v -0.867511 -0.312586 0.357229
v -0.868007 -0.312258 0.358137
v -0.868058 -0.313322 0.358960
v -0.867926 -0.314965 0.358987
v -0.867644 -0.316261 0.357948
v -0.867076 -0.316242 0.356983
v -0.866734 -0.315242 0.356443
v -0.868576 -0.313339 0.355276
v -0.868531 -0.314758 0.355182
v -0.870056 -0.314429 0.357249
v -0.870011 -0.312868 0.357171
v -0.869563 -0.312044 0.356670
v -0.868972 -0.312299 0.355992
v -0.870051 -0.313022 0.354092
v -0.870200 -0.314391 0.354143
v -0.868870 -0.315748 0.355665
v -0.869505 -0.315791 0.356503
v -0.871894 -0.314075 0.355715
v -0.870937 -0.315713 0.355564
v -0.869845 -0.315769 0.354792
v -0.869936 -0.311707 0.354901
v -0.871901 -0.312241 0.355722
v -0.870939 -0.311290 0.355664
v -0.874115 -0.313439 0.352629
v -0.873236 -0.313770 0.351922
v -0.873292 -0.312209 0.352060
v -0.873939 -0.311938 0.352667
v -0.864633 -0.312848 0.359319
v -0.863554 -0.317418 0.359253
v -0.861516 -0.318517 0.359851
v -0.864046 -0.317356 0.360635
v -0.862333 -0.318345 0.361778
v -0.863456 -0.316122 0.358460
v -0.861544 -0.316710 0.359089
v -0.863911 -0.314321 0.358545
v -0.862122 -0.314573 0.359202
v -0.862732 -0.312680 0.360009
v -0.865019 -0.312455 0.360653
v -0.863481 -0.311764 0.361792
v -0.864867 -0.313816 0.361571
v -0.863622 -0.313520 0.363088
v -0.864472 -0.315682 0.361711
v -0.863135 -0.316048 0.363170
v -0.860489 -0.318763 0.360291
v -0.862535 -0.313478 0.363892
v -0.862337 -0.312190 0.362202
v -0.860682 -0.317478 0.361046
v -0.860639 -0.316908 0.359562
v -0.861308 -0.318533 0.362162
v -0.862023 -0.316220 0.363761
v -0.861023 -0.315449 0.361951
v -0.861575 -0.313747 0.362161
v -0.861420 -0.313095 0.360610
v -0.861233 -0.314856 0.359844
v -0.869588 -0.313087 0.354549
v -0.869748 -0.312009 0.355328
v -0.870490 -0.311713 0.355904
v -0.871239 -0.312509 0.356155
v -0.871333 -0.314157 0.356212
v -0.870525 -0.315624 0.355825
v -0.869678 -0.315650 0.355040
v -0.869674 -0.314468 0.354481
v -0.865145 -0.316894 0.358321
v -0.864884 -0.315750 0.357666
v -0.865281 -0.314064 0.357740
v -0.865939 -0.312734 0.358470
v -0.866417 -0.312370 0.359622
v -0.866258 -0.313643 0.360526
v -0.865929 -0.315388 0.360602
v -0.865625 -0.316862 0.359554
v -0.862247 -0.318020 0.359755
v -0.862283 -0.316436 0.358956
v -0.862829 -0.314476 0.359014
v -0.863530 -0.312791 0.359839
v -0.864003 -0.312232 0.361377
v -0.863941 -0.313779 0.362437
v -0.863560 -0.315892 0.362519
v -0.862906 -0.317911 0.361414
v -0.867337 -0.316453 0.357441
v -0.866840 -0.315823 0.356666
v -0.866711 -0.314524 0.356467
v -0.867247 -0.313102 0.356841
v -0.867778 -0.312223 0.357678
v -0.868094 -0.312667 0.358581
v -0.867975 -0.314138 0.359166
v -0.867863 -0.315732 0.358498
v -0.863780 -0.317717 0.359877
v -0.863462 -0.316795 0.358841
v -0.863568 -0.315226 0.358409
v -0.864338 -0.313557 0.358899
v -0.864891 -0.312292 0.359925
v -0.864977 -0.313040 0.361142
v -0.864654 -0.314731 0.361839
v -0.864277 -0.316583 0.361276
v -0.868499 -0.314070 0.355152
v -0.868744 -0.312747 0.355615
v -0.869268 -0.312029 0.356366
v -0.869821 -0.312339 0.356932
v -0.870117 -0.313595 0.357290
v -0.869896 -0.315243 0.356871
v -0.869193 -0.315955 0.356049
v -0.868637 -0.315341 0.355366
v -0.870232 -0.313700 0.354005
v -0.870493 -0.312938 0.353718
v -0.869876 -0.312348 0.354407
v -0.870546 -0.314448 0.353810
v -0.869925 -0.315114 0.354400
v -0.870919 -0.314536 0.353273
v -0.871067 -0.312691 0.353256
v -0.872050 -0.313110 0.355717
v -0.871490 -0.315007 0.355670
v -0.872378 -0.314030 0.355336
v -0.871495 -0.311610 0.355729
v -0.872380 -0.312058 0.355393
v -0.871306 -0.310984 0.355403
v -0.870336 -0.311326 0.355446
v -0.870129 -0.311397 0.354559
v -0.869894 -0.315999 0.354563
v -0.870251 -0.316022 0.355314
v -0.871238 -0.315855 0.355324
v -0.873028 -0.313940 0.354757
v -0.871822 -0.315944 0.354732
v -0.870189 -0.316419 0.354032
v -0.870617 -0.311070 0.354148
v -0.871761 -0.310745 0.354945
v -0.872986 -0.311831 0.354811
v -0.874130 -0.313256 0.353108
v -0.873780 -0.314236 0.352941
v -0.872856 -0.314597 0.352135
v -0.872617 -0.313810 0.351860
v -0.872748 -0.312485 0.351972
v -0.872960 -0.311676 0.352394
v -0.873608 -0.311394 0.352962
v -0.873986 -0.311958 0.353057
v -0.874164 -0.312601 0.352571
v -0.873705 -0.311929 0.352319
v -0.873354 -0.312962 0.351881
v -0.873790 -0.313724 0.352184
v -0.871894 -0.311195 0.353196
v -0.872725 -0.310885 0.353900
v -0.873651 -0.311801 0.353969
v -0.873719 -0.313551 0.353969
v -0.871536 -0.314250 0.352422
v -0.871758 -0.312624 0.352512
v -0.872868 -0.315313 0.353802
v -0.871630 -0.315844 0.352899
v -0.861811 -0.315611 0.359065
v -0.861437 -0.317691 0.359368
v -0.860427 -0.317005 0.360138
v -0.860364 -0.318285 0.360632
v -0.861880 -0.318839 0.360682
v -0.861175 -0.318026 0.361847
v -0.862777 -0.317256 0.362668
v -0.861790 -0.315898 0.362958
v -0.863431 -0.314781 0.363295
v -0.861974 -0.313833 0.363140
v -0.863651 -0.312462 0.362565
v -0.862004 -0.312912 0.362179
v -0.863091 -0.311933 0.360801
v -0.861571 -0.313552 0.361130
v -0.860819 -0.315064 0.360532
v -0.861340 -0.314023 0.360177
v -0.860930 -0.318889 0.359893
v -0.861742 -0.318743 0.362074
v -0.862548 -0.316243 0.363751
v -0.863161 -0.313265 0.363846
v -0.862870 -0.311541 0.362086
v -0.861029 -0.316855 0.359233
v -0.861554 -0.314689 0.359412
v -0.861977 -0.312707 0.360142
v -0.860925 -0.315803 0.359619
v -0.860450 -0.317926 0.359768
v -0.860848 -0.318994 0.361093
v -0.861639 -0.317516 0.363190
v -0.862313 -0.314799 0.364025
v -0.862560 -0.312434 0.363230
v -0.861797 -0.312464 0.361279
v -0.862454 -0.313607 0.359472
v -0.860658 -0.316588 0.361608
v -0.861276 -0.314524 0.362119
f 177 88 129
f 177 129 1
f 136 89 177
f 136 177 1
f 179 95 130
f 179 130 2
f 2 129 88
f 2 88 179
f 190 97 131
f 190 131 3
f 130 95 190
f 130 190 3
f 187 96 132
f 187 132 4
f 131 97 187
f 131 187 4
f 184 92 133
f 184 133 5
f 132 96 184
f 132 184 5
f 185 93 134
f 185 134 6
f 133 92 185
f 133 185 6
f 193 94 135
f 193 135 7
f 134 93 193
f 134 193 7
f 181 89 136
f 181 136 8
f 8 135 94
f 8 94 181
f 9 137 103
f 9 103 161
f 9 161 105
f 9 105 144
f 10 138 107
f 10 107 162
f 10 162 103
f 10 103 137
f 11 139 109
f 11 109 163
f 11 163 107
f 11 107 138
f 12 140 102
f 12 102 164
f 12 164 109
f 12 109 139
f 13 141 112
f 13 112 165
f 13 165 102
f 13 102 140
f 14 142 114
f 14 114 166
f 14 166 112
f 14 112 141
f 15 143 116
f 15 116 167
f 15 167 114
f 15 114 142
f 16 144 105
f 16 105 168
f 16 168 116
f 16 116 143
f 161 103 145
f 161 145 17
f 17 145 104
f 17 104 225
f 17 225 106
f 17 106 152
f 17 152 105
f 17 105 161
f 162 107 146
f 162 146 18
f 18 146 108
f 18 108 222
f 18 222 104
f 18 104 145
f 18 145 103
f 18 103 162
f 163 109 147
f 163 147 19
f 19 147 110
f 19 110 221
f 19 221 108
f 19 108 146
f 19 146 107
f 19 107 163
f 164 102 148
f 164 148 20
f 20 148 111
f 20 111 252
f 20 147 109
f 20 109 164
f 252 110 147
f 252 147 20
f 165 112 149
f 165 149 21
f 21 149 113
f 21 113 233
f 21 233 111
f 21 111 148
f 21 148 102
f 21 102 165
f 166 114 150
f 166 150 22
f 22 150 115
f 22 115 231
f 22 231 113
f 22 113 149
f 22 149 112
f 22 112 166
f 167 116 151
f 167 151 23
f 23 151 117
f 23 117 229
f 23 229 115
f 23 115 150
f 23 150 114
f 23 114 167
f 168 105 152
f 168 152 24
f 24 152 106
f 24 106 227
f 24 227 117
f 24 117 151
f 24 151 116
f 24 116 168
f 49 212 98
f 49 98 209
f 211 99 212
f 211 212 49
f 49 209 101
f 49 101 210
f 49 210 100
f 49 100 211
f 253 121 223
f 253 223 58
f 58 223 122
f 58 122 245
f 58 235 125
f 58 125 253
f 245 128 235
f 245 235 58
f 59 224 118
f 59 118 246
f 223 121 224
f 223 224 59
f 246 122 223
f 246 223 59
f 224 121 226
f 224 226 60
f 60 226 123
f 60 123 247
f 247 118 224
f 247 224 60
f 61 228 124
f 61 124 248
f 253 125 228
f 253 228 61
f 226 121 253
f 226 253 61
f 248 123 226
f 248 226 61
f 62 230 119
f 62 119 249
f 254 126 230
f 254 230 62
f 228 125 254
f 228 254 62
f 249 124 228
f 249 228 62
f 63 232 120
f 63 120 250
f 230 126 232
f 230 232 63
f 250 119 230
f 250 230 63
f 232 126 234
f 232 234 64
f 64 234 127
f 64 127 251
f 251 120 232
f 251 232 64
f 65 236 127
f 65 127 234
f 235 128 236
f 235 236 65
f 65 234 126
f 65 126 254
f 254 125 235
f 254 235 65
f 221 110 243
f 221 243 66
f 66 243 128
f 66 128 245
f 66 245 122
f 66 122 242
f 242 108 221
f 242 221 66
f 67 237 104
f 67 104 222
f 246 118 237
f 246 237 67
f 222 108 242
f 222 242 67
f 67 242 122
f 67 122 246
f 68 238 106
f 68 106 225
f 247 123 238
f 247 238 68
f 237 118 247
f 237 247 68
f 68 225 104
f 68 104 237
f 69 239 117
f 69 117 227
f 248 124 239
f 248 239 69
f 238 123 248
f 238 248 69
f 69 227 106
f 69 106 238
f 70 240 115
f 70 115 229
f 249 119 240
f 249 240 70
f 239 124 249
f 239 249 70
f 70 229 117
f 70 117 239
f 71 241 113
f 71 113 231
f 250 120 241
f 250 241 71
f 240 119 250
f 240 250 71
f 71 231 115
f 71 115 240
f 72 244 111
f 72 111 233
f 251 127 244
f 251 244 72
f 241 120 251
f 241 251 72
f 72 233 113
f 72 113 241
f 243 110 252
f 243 252 73
f 73 252 111
f 73 111 244
f 244 127 236
f 244 236 73
f 73 236 128
f 73 128 243
f 41 209 98
f 41 98 201
f 201 216 50
f 201 50 41
f 43 202 98
f 43 98 212
f 43 52 219
f 43 219 202
f 204 99 211
f 204 211 45
f 45 54 217
f 45 217 204
f 206 100 210
f 206 210 47
f 210 101 207
f 210 207 47
f 47 207 214
f 47 214 56
f 47 56 213
f 47 213 206
f 220 52 43
f 220 43 203
f 203 43 212
f 203 212 99
f 205 45 211
f 205 211 100
f 218 54 45
f 218 45 205
f 101 209 41
f 101 41 208
f 208 41 50
f 208 50 215
f 51 216 201
f 51 201 42
f 42 201 98
f 42 98 202
f 42 202 219
f 42 219 51
f 205 100 206
f 205 206 46
f 46 206 213
f 46 213 55
f 46 55 218
f 46 218 205
f 203 99 204
f 203 204 44
f 44 204 217
f 44 217 53
f 44 53 220
f 44 220 203
f 207 101 208
f 207 208 48
f 48 208 215
f 48 215 57
f 48 57 214
f 48 214 207
f 54 218 183
f 54 183 28
f 25 178 88
f 25 88 177
f 28 183 178
f 28 178 25
f 27 181 94
f 27 94 192
f 197 220 53
f 197 53 29
f 192 197 29
f 192 29 27
f 183 218 55
f 183 55 30
f 26 179 88
f 26 88 178
f 178 183 30
f 178 30 26
f 31 186 92
f 31 92 184
f 36 195 186
f 36 186 31
f 50 216 195
f 50 195 36
f 35 192 94
f 35 94 193
f 35 38 197
f 35 197 192
f 52 220 197
f 52 197 38
f 34 189 97
f 34 97 190
f 34 39 199
f 34 199 189
f 56 214 199
f 56 199 39
f 199 214 57
f 199 57 40
f 187 97 189
f 187 189 33
f 33 189 199
f 33 199 40
f 219 52 38
f 219 38 196
f 196 38 35
f 196 35 194
f 194 35 193
f 194 193 93
f 95 179 26
f 95 26 191
f 213 56 39
f 213 39 198
f 198 39 34
f 198 34 191
f 191 34 190
f 191 190 95
f 191 26 30
f 191 30 198
f 198 30 55
f 198 55 213
f 194 93 185
f 194 185 32
f 195 216 51
f 195 51 37
f 32 37 196
f 32 196 194
f 186 195 37
f 186 37 32
f 32 185 92
f 32 92 186
f 51 219 196
f 51 196 37
f 89 181 27
f 89 27 180
f 182 29 53
f 182 53 217
f 182 28 25
f 182 25 180
f 180 25 177
f 180 177 89
f 180 27 29
f 180 29 182
f 217 54 28
f 217 28 182
f 96 187 33
f 96 33 188
f 215 50 36
f 215 36 200
f 200 36 31
f 200 31 188
f 188 31 184
f 188 184 96
f 188 33 40
f 188 40 200
f 200 40 57
f 200 57 215
f 80 137 9
f 80 9 153
f 80 153 175
f 80 175 90
f 175 7 135
f 175 135 90
f 82 169 1
f 82 1 129
f 74 139 11
f 74 11 155
f 74 155 169
f 74 169 82
f 76 141 13
f 76 13 157
f 76 157 171
f 76 171 86
f 171 3 131
f 171 131 86
f 78 143 15
f 78 15 159
f 78 159 173
f 78 173 84
f 84 173 5
f 84 5 133
f 154 10 137
f 154 137 80
f 90 135 8
f 90 8 176
f 80 90 176
f 80 176 154
f 158 14 141
f 158 141 76
f 86 131 4
f 86 4 172
f 76 86 172
f 76 172 158
f 81 138 10
f 81 10 154
f 83 176 8
f 83 8 136
f 81 83 169
f 81 169 155
f 154 176 83
f 154 83 81
f 81 155 11
f 81 11 138
f 136 1 169
f 136 169 83
f 159 15 142
f 159 142 77
f 85 132 5
f 85 5 173
f 77 142 14
f 77 14 158
f 77 158 172
f 77 172 85
f 77 85 173
f 77 173 159
f 172 4 132
f 172 132 85
f 156 12 139
f 156 139 74
f 82 129 2
f 82 2 170
f 74 82 170
f 74 170 156
f 157 13 140
f 157 140 75
f 87 130 3
f 87 3 171
f 75 140 12
f 75 12 156
f 75 156 170
f 75 170 87
f 75 87 171
f 75 171 157
f 87 170 2
f 87 2 130
f 160 16 143
f 160 143 78
f 84 133 6
f 84 6 174
f 78 84 174
f 78 174 160
f 153 9 144
f 153 144 79
f 91 134 7
f 91 7 175
f 79 144 16
f 79 16 160
f 79 160 174
f 79 174 91
f 79 91 175
f 79 175 153
f 91 174 6
f 91 6 134
