# _4th_Middle_Phalanx_Foot_R posed
v 0.965205 0.211943 0.240130
v 0.965615 0.212296 0.240563
v 0.965794 0.211815 0.241271
v 0.965470 0.211280 0.240992
v 0.966460 0.211821 0.242430
v 0.966589 0.211124 0.242898
v 0.966784 0.212041 0.242846
v 0.966969 0.211425 0.243502
v 0.967288 0.212159 0.244114
v 0.967025 0.212572 0.243226
v 0.967520 0.214450 0.242779
v 0.967136 0.214119 0.242399
v 0.967169 0.213629 0.242845
v 0.967555 0.213913 0.243486
v 0.966076 0.211656 0.241914
v 0.966048 0.211002 0.241944
v 0.965318 0.212967 0.239514
v 0.965651 0.213057 0.240097
v 0.965618 0.214113 0.239403
v 0.965790 0.213854 0.240024
v 0.965912 0.215094 0.239644
v 0.965966 0.214426 0.240290
v 0.966301 0.215865 0.240080
v 0.966190 0.214976 0.240663
v 0.966627 0.216310 0.240645
v 0.966362 0.215361 0.241042
v 0.966993 0.214690 0.242018
v 0.967387 0.215269 0.242213
v 0.966666 0.215294 0.241526
v 0.967009 0.216095 0.241527
v 0.967138 0.213160 0.243288
v 0.967448 0.213103 0.244121
v 0.966099 0.213515 0.240687
v 0.966156 0.212898 0.241090
v 0.966227 0.212367 0.241626
v 0.966385 0.213994 0.241159
v 0.966514 0.213344 0.241565
v 0.966654 0.212808 0.242065
v 0.966696 0.214383 0.241649
v 0.966861 0.213758 0.242048
v 0.966944 0.213272 0.242462
v 0.968635 0.211055 0.242729
v 0.968165 0.210683 0.242067
v 0.967775 0.210643 0.241358
v 0.967393 0.210936 0.240448
v 0.967172 0.211426 0.239651
v 0.967147 0.212199 0.239019
v 0.967260 0.213126 0.238709
v 0.967479 0.214083 0.238675
v 0.967881 0.215026 0.238853
v 0.968277 0.215480 0.239384
v 0.968790 0.215615 0.240146
v 0.969050 0.214927 0.241224
v 0.969159 0.214258 0.241927
v 0.969202 0.213572 0.242523
v 0.969247 0.212665 0.243048
v 0.968984 0.211724 0.243088
v 0.970177 0.210752 0.241512
v 0.969844 0.210359 0.241081
v 0.969465 0.210167 0.240397
v 0.969164 0.210562 0.239477
v 0.969031 0.211037 0.238905
v 0.969039 0.211721 0.238405
v 0.969128 0.212566 0.238023
v 0.969341 0.213431 0.237877
v 0.969659 0.214168 0.238031
v 0.970011 0.214577 0.238482
v 0.970402 0.214766 0.239153
v 0.970681 0.214307 0.240117
v 0.970736 0.213601 0.240782
v 0.970737 0.212926 0.241282
v 0.970693 0.212131 0.241656
v 0.970486 0.211439 0.241747
v 0.971209 0.210576 0.240870
v 0.970838 0.210063 0.240483
v 0.970492 0.209943 0.239836
v 0.970269 0.210258 0.239000
v 0.970188 0.210875 0.238424
v 0.970148 0.211487 0.237926
v 0.970179 0.212379 0.237483
v 0.970361 0.213219 0.237359
v 0.970641 0.213852 0.237554
v 0.970966 0.214196 0.237998
v 0.971308 0.214358 0.238587
v 0.971598 0.213862 0.239520
v 0.971686 0.213153 0.240153
v 0.971713 0.212512 0.240638
v 0.971662 0.211783 0.241026
v 0.971493 0.211173 0.241098
v 0.973065 0.209665 0.240007
v 0.972681 0.209328 0.239451
v 0.972327 0.209359 0.238752
v 0.972127 0.209839 0.238066
v 0.972011 0.210354 0.237536
v 0.971950 0.210926 0.237078
v 0.971927 0.211650 0.236626
v 0.972079 0.212427 0.236457
v 0.972389 0.213234 0.236606
v 0.972803 0.213657 0.237150
v 0.973171 0.213598 0.237923
v 0.973388 0.213059 0.238643
v 0.973491 0.212523 0.239157
v 0.973570 0.212004 0.239651
v 0.973577 0.211291 0.240110
v 0.973556 0.210519 0.240457
v 0.968527 0.214522 0.242468
v 0.968361 0.215239 0.241810
v 0.968553 0.213877 0.243134
v 0.968555 0.212892 0.243723
v 0.968015 0.215929 0.240957
v 0.967478 0.216044 0.239949
v 0.967001 0.215480 0.239382
v 0.966650 0.214620 0.238975
v 0.966426 0.213584 0.238807
v 0.966227 0.212476 0.239017
v 0.966182 0.211444 0.239720
v 0.966478 0.210842 0.240682
v 0.966931 0.210677 0.241598
v 0.967416 0.210687 0.242471
v 0.967800 0.211082 0.243158
v 0.968241 0.211871 0.243736
v 0.968045 0.214619 0.242750
v 0.967894 0.215367 0.242119
v 0.968059 0.214009 0.243419
v 0.968027 0.213059 0.244092
v 0.967527 0.216162 0.241289
v 0.967040 0.216309 0.240213
v 0.966626 0.215757 0.239642
v 0.966218 0.214946 0.239209
v 0.965919 0.213924 0.238943
v 0.965573 0.211569 0.239801
v 0.966464 0.210704 0.241794
v 0.965696 0.212709 0.239072
v 0.965937 0.210879 0.240817
v 0.966995 0.210702 0.242765
v 0.967384 0.211119 0.243473
v 0.967791 0.211916 0.244088
v 0.973397 0.213018 0.236191
v 0.973818 0.213327 0.236772
v 0.974160 0.213140 0.237514
v 0.974348 0.212670 0.238151
v 0.974470 0.212194 0.238672
v 0.974584 0.211666 0.239208
v 0.974613 0.210933 0.239717
v 0.974457 0.210192 0.239941
v 0.974003 0.209421 0.239612
v 0.973595 0.209033 0.239035
v 0.973193 0.209027 0.238302
v 0.972928 0.209428 0.237568
v 0.972783 0.209971 0.236965
v 0.972709 0.210582 0.236449
v 0.972713 0.211314 0.236001
v 0.972917 0.212113 0.235876
v 0.974625 0.211619 0.238164
v 0.974704 0.211146 0.238578
v 0.974734 0.210660 0.238976
v 0.974632 0.210148 0.239215
v 0.974355 0.209677 0.239082
v 0.973992 0.209291 0.238622
v 0.973620 0.209272 0.238046
v 0.973489 0.209548 0.237512
v 0.973405 0.210062 0.236972
v 0.973335 0.210558 0.236496
v 0.973388 0.211088 0.236207
v 0.973538 0.211688 0.236104
v 0.973921 0.212298 0.236348
v 0.974218 0.212470 0.236774
v 0.974391 0.212375 0.237183
v 0.974531 0.212014 0.237689
v 0.974010 0.212433 0.238986
v 0.973893 0.212970 0.238460
v 0.973704 0.213531 0.237786
v 0.974107 0.211914 0.239467
v 0.974126 0.211189 0.240040
v 0.974065 0.210308 0.240360
v 0.973338 0.213658 0.236885
v 0.972877 0.213199 0.236300
v 0.972455 0.212309 0.236071
v 0.972265 0.211442 0.236271
v 0.972277 0.210714 0.236709
v 0.972356 0.210116 0.237220
v 0.972496 0.209592 0.237795
v 0.972733 0.209139 0.238513
v 0.973109 0.209076 0.239311
v 0.973524 0.209433 0.239927
v 0.973962 0.209950 0.237798
v 0.973879 0.210474 0.237280
v 0.973792 0.210954 0.236771
v 0.974319 0.210383 0.238102
v 0.974233 0.210862 0.237594
v 0.974145 0.211369 0.237071
v 0.974540 0.210807 0.238345
v 0.974482 0.211190 0.237872
v 0.974385 0.211675 0.237392
v 0.972185 0.210046 0.240461
v 0.971856 0.209674 0.239934
v 0.971516 0.209564 0.239355
v 0.971297 0.209991 0.238544
v 0.971207 0.210586 0.237912
v 0.971167 0.211195 0.237472
v 0.971159 0.212032 0.237009
v 0.971335 0.212912 0.236866
v 0.971608 0.213521 0.237096
v 0.971970 0.213844 0.237610
v 0.972248 0.213868 0.238221
v 0.972486 0.213263 0.239011
v 0.972610 0.212720 0.239506
v 0.972700 0.212195 0.240073
v 0.972672 0.211499 0.240504
v 0.972534 0.210740 0.240656
v 0.969400 0.210898 0.242208
v 0.968927 0.210499 0.241643
v 0.968579 0.210432 0.241013
v 0.968256 0.210765 0.240030
v 0.968064 0.211262 0.239356
v 0.968036 0.211933 0.238809
v 0.968137 0.212820 0.238420
v 0.968379 0.213702 0.238298
v 0.968744 0.214523 0.238454
v 0.969126 0.214991 0.238928
v 0.969558 0.215212 0.239623
v 0.969828 0.214666 0.240657
v 0.969833 0.213882 0.241327
v 0.969905 0.213246 0.241895
v 0.969927 0.212403 0.242344
v 0.969712 0.211654 0.242437
f 22 20 18
f 22 18 33
f 33 18 2
f 33 2 34
f 35 3 15
f 35 15 5
f 34 2 3
f 34 3 35
f 36 24 22
f 36 22 33
f 39 27 29
f 39 29 26
f 39 26 24
f 39 24 36
f 37 36 33
f 37 33 34
f 40 12 27
f 40 27 39
f 40 39 36
f 40 36 37
f 38 35 5
f 38 5 7
f 38 37 34
f 38 34 35
f 41 13 12
f 41 12 40
f 41 38 7
f 41 7 10
f 10 31 13
f 10 13 41
f 41 40 37
f 41 37 38
f 4 3 2
f 4 2 1
f 1 2 18
f 1 18 17
f 131 134 4
f 131 4 1
f 1 17 133
f 1 133 131
f 16 15 3
f 16 3 4
f 134 132 16
f 134 16 4
f 8 7 5
f 8 5 6
f 6 5 15
f 6 15 16
f 135 136 8
f 135 8 6
f 6 16 132
f 6 132 135
f 9 10 7
f 9 7 8
f 136 137 9
f 136 9 8
f 32 31 10
f 32 10 9
f 137 125 32
f 137 32 9
f 11 12 13
f 11 13 14
f 28 27 12
f 28 12 11
f 11 14 124
f 11 124 122
f 122 123 28
f 122 28 11
f 14 13 31
f 14 31 32
f 14 32 125
f 14 125 124
f 17 18 20
f 17 20 19
f 17 19 130
f 17 130 133
f 19 20 22
f 19 22 21
f 19 21 129
f 19 129 130
f 21 22 24
f 21 24 23
f 21 23 128
f 21 128 129
f 23 24 26
f 23 26 25
f 23 25 127
f 23 127 128
f 25 26 29
f 25 29 30
f 25 30 126
f 25 126 127
f 30 29 27
f 30 27 28
f 123 126 30
f 123 30 28
f 106 107 123
f 106 123 122
f 122 124 108
f 122 108 106
f 107 110 126
f 107 126 123
f 124 125 109
f 124 109 108
f 125 137 121
f 125 121 109
f 110 111 127
f 110 127 126
f 111 112 128
f 111 128 127
f 112 113 129
f 112 129 128
f 113 114 130
f 113 130 129
f 114 115 133
f 114 133 130
f 115 116 131
f 115 131 133
f 116 117 134
f 116 134 131
f 117 118 132
f 117 132 134
f 118 119 135
f 118 135 132
f 119 120 136
f 119 136 135
f 120 121 137
f 120 137 136
f 170 142 141
f 170 141 171
f 171 141 140
f 171 140 172
f 173 143 142
f 173 142 170
f 174 144 143
f 174 143 173
f 175 145 144
f 175 144 174
f 172 140 139
f 172 139 176
f 177 176 139
f 177 139 138
f 178 177 138
f 178 138 153
f 178 153 152
f 178 152 179
f 180 179 152
f 180 152 151
f 181 180 151
f 181 151 150
f 182 181 150
f 182 150 149
f 183 182 149
f 183 149 148
f 184 183 148
f 184 148 147
f 146 145 175
f 146 175 185
f 185 184 147
f 185 147 146
f 159 147 148
f 159 148 160
f 161 160 148
f 161 148 149
f 162 161 149
f 162 149 150
f 163 151 152
f 163 152 164
f 163 162 150
f 163 150 151
f 165 164 152
f 165 152 153
f 158 146 147
f 158 147 159
f 159 160 161
f 159 161 186
f 186 161 162
f 186 162 187
f 188 163 164
f 188 164 165
f 187 162 163
f 187 163 188
f 166 165 153
f 166 153 138
f 157 156 144
f 157 144 145
f 157 145 146
f 157 146 158
f 155 143 144
f 155 144 156
f 192 157 158
f 192 158 189
f 189 158 159
f 189 159 186
f 192 155 156
f 192 156 157
f 154 142 143
f 154 143 155
f 190 189 186
f 190 186 187
f 193 154 155
f 193 155 192
f 193 192 189
f 193 189 190
f 191 188 165
f 191 165 166
f 169 168 140
f 169 140 141
f 169 141 142
f 169 142 154
f 191 190 187
f 191 187 188
f 167 139 140
f 167 140 168
f 194 169 154
f 194 154 193
f 167 166 138
f 167 138 139
f 194 191 166
f 194 166 167
f 167 168 169
f 167 169 194
f 194 193 190
f 194 190 191
f 195 74 75
f 195 75 196
f 184 185 90
f 184 90 91
f 91 90 195
f 91 195 196
f 196 75 76
f 196 76 197
f 183 184 91
f 183 91 92
f 92 91 196
f 92 196 197
f 197 76 77
f 197 77 198
f 182 183 92
f 182 92 93
f 93 92 197
f 93 197 198
f 198 77 78
f 198 78 199
f 181 182 93
f 181 93 94
f 94 93 198
f 94 198 199
f 199 78 79
f 199 79 200
f 180 181 94
f 180 94 95
f 95 94 199
f 95 199 200
f 200 79 80
f 200 80 201
f 179 180 95
f 179 95 96
f 96 95 200
f 96 200 201
f 201 80 81
f 201 81 202
f 178 179 96
f 178 96 97
f 97 96 201
f 97 201 202
f 202 81 82
f 202 82 203
f 177 178 97
f 177 97 98
f 98 97 202
f 98 202 203
f 203 82 83
f 203 83 204
f 176 177 98
f 176 98 99
f 99 98 203
f 99 203 204
f 204 83 84
f 204 84 205
f 172 176 99
f 172 99 100
f 100 99 204
f 100 204 205
f 205 84 85
f 205 85 206
f 171 172 100
f 171 100 101
f 101 100 205
f 101 205 206
f 206 85 86
f 206 86 207
f 170 171 101
f 170 101 102
f 102 101 206
f 102 206 207
f 207 86 87
f 207 87 208
f 173 170 102
f 173 102 103
f 103 102 207
f 103 207 208
f 208 87 88
f 208 88 209
f 174 173 103
f 174 103 104
f 104 103 208
f 104 208 209
f 210 195 90
f 210 90 105
f 210 89 74
f 210 74 195
f 175 174 104
f 175 104 105
f 105 104 209
f 105 209 210
f 105 90 185
f 105 185 175
f 209 88 89
f 209 89 210
f 42 43 212
f 42 212 211
f 120 119 43
f 120 43 42
f 211 226 57
f 211 57 42
f 42 57 121
f 42 121 120
f 43 44 213
f 43 213 212
f 119 118 44
f 119 44 43
f 44 45 214
f 44 214 213
f 118 117 45
f 118 45 44
f 45 46 215
f 45 215 214
f 117 116 46
f 117 46 45
f 46 47 216
f 46 216 215
f 116 115 47
f 116 47 46
f 47 48 217
f 47 217 216
f 115 114 48
f 115 48 47
f 48 49 218
f 48 218 217
f 114 113 49
f 114 49 48
f 49 50 219
f 49 219 218
f 113 112 50
f 113 50 49
f 50 51 220
f 50 220 219
f 112 111 51
f 112 51 50
f 51 52 221
f 51 221 220
f 111 110 52
f 111 52 51
f 52 53 222
f 52 222 221
f 110 107 53
f 110 53 52
f 53 54 223
f 53 223 222
f 107 106 54
f 107 54 53
f 54 55 224
f 54 224 223
f 106 108 55
f 106 55 54
f 55 56 225
f 55 225 224
f 108 109 56
f 108 56 55
f 56 57 226
f 56 226 225
f 109 121 57
f 109 57 56
f 58 59 75
f 58 75 74
f 211 212 59
f 211 59 58
f 74 89 73
f 74 73 58
f 58 73 226
f 58 226 211
f 59 60 76
f 59 76 75
f 212 213 60
f 212 60 59
f 60 61 77
f 60 77 76
f 213 214 61
f 213 61 60
f 61 62 78
f 61 78 77
f 214 215 62
f 214 62 61
f 62 63 79
f 62 79 78
f 215 216 63
f 215 63 62
f 63 64 80
f 63 80 79
f 216 217 64
f 216 64 63
f 64 65 81
f 64 81 80
f 217 218 65
f 217 65 64
f 65 66 82
f 65 82 81
f 218 219 66
f 218 66 65
f 66 67 83
f 66 83 82
f 219 220 67
f 219 67 66
f 67 68 84
f 67 84 83
f 220 221 68
f 220 68 67
f 68 69 85
f 68 85 84
f 221 222 69
f 221 69 68
f 69 70 86
f 69 86 85
f 222 223 70
f 222 70 69
f 70 71 87
f 70 87 86
f 223 224 71
f 223 71 70
f 71 72 88
f 71 88 87
f 224 225 72
f 224 72 71
f 72 73 89
f 72 89 88
f 225 226 73
f 225 73 72
