# _4th_Metatarsal_R rest
v -0.122516 -1.321785 0.081275
v -0.122573 -1.321240 0.079136
v -0.121178 -1.321996 0.079134
v -0.125779 -1.320508 0.078662
v -0.126287 -1.320923 0.080807
v -0.121257 -1.322336 0.081454
v -0.121797 -1.323402 0.084193
v -0.122041 -1.326399 0.082642
v -0.121937 -1.326586 0.085511
v -0.127703 -1.319821 0.077560
v -0.128532 -1.320174 0.079890
v -0.130440 -1.320685 0.078072
v -0.129584 -1.320664 0.075306
v -0.131665 -1.322762 0.076746
v -0.130150 -1.322685 0.073831
v -0.131969 -1.325472 0.076210
v -0.130146 -1.325191 0.073684
v -0.129553 -1.327760 0.075149
v -0.131369 -1.327667 0.076940
v -0.130744 -1.329992 0.078352
v -0.129285 -1.330018 0.076918
v -0.128809 -1.332174 0.077593
v -0.129420 -1.331922 0.079266
v -0.124778 -1.333338 0.079696
v -0.124848 -1.333593 0.077661
v -0.121753 -1.332705 0.077787
v -0.121400 -1.332960 0.079728
v -0.122017 -1.327997 0.077030
v -0.121000 -1.328506 0.079587
v -0.121403 -1.325625 0.078152
v -0.121220 -1.325954 0.080126
v -0.121153 -1.323170 0.079070
v -0.120753 -1.323553 0.081415
v -0.121466 -1.330380 0.077432
v -0.120505 -1.330901 0.079805
v -0.121262 -1.328365 0.081870
v -0.121884 -1.328290 0.085148
v -0.120974 -1.330289 0.082134
v -0.121512 -1.329834 0.084919
v -0.122936 -1.331001 0.085324
v -0.122024 -1.332015 0.082059
v -0.125086 -1.332238 0.081966
v -0.125314 -1.331181 0.085378
v -0.129002 -1.331564 0.081872
v -0.127950 -1.330691 0.085424
v -0.130698 -1.330397 0.081920
v -0.131507 -1.328240 0.081621
v -0.131365 -1.325518 0.080808
v -0.131403 -1.323177 0.080867
v -0.130261 -1.321826 0.081917
v -0.128439 -1.321540 0.082803
v -0.126201 -1.322168 0.083415
v -0.123115 -1.322931 0.084154
v -0.129533 -1.329302 0.085416
v -0.129787 -1.327733 0.085517
v -0.130038 -1.326147 0.085696
v -0.128916 -1.324065 0.086441
v -0.127387 -1.323604 0.086712
v -0.125933 -1.323595 0.086708
v -0.123397 -1.323763 0.086611
v -0.129817 -1.324865 0.085950
v -0.122193 -1.324161 0.086664
v -0.120894 -1.324381 0.083826
v -0.120969 -1.325165 0.086387
v -0.121886 -1.328695 0.089783
v -0.121671 -1.327465 0.090025
v -0.121245 -1.326347 0.090395
v -0.122294 -1.325434 0.090657
v -0.123474 -1.324845 0.090757
v -0.124990 -1.324636 0.091099
v -0.126510 -1.324715 0.091388
v -0.127941 -1.325162 0.091380
v -0.128850 -1.325961 0.091081
v -0.129323 -1.327015 0.090646
v -0.129047 -1.328282 0.089823
v -0.128224 -1.329538 0.089988
v -0.126944 -1.330427 0.090162
v -0.125248 -1.330810 0.090164
v -0.123593 -1.330694 0.089974
v -0.122436 -1.330075 0.089726
v -0.122120 -1.329499 0.096515
v -0.121669 -1.328448 0.096734
v -0.121869 -1.327540 0.096925
v -0.122466 -1.326694 0.097089
v -0.123329 -1.326027 0.097203
v -0.124555 -1.325793 0.097218
v -0.125834 -1.325874 0.097248
v -0.127078 -1.326374 0.097177
v -0.128082 -1.327246 0.096968
v -0.128499 -1.328277 0.096687
v -0.128618 -1.329496 0.096376
v -0.127903 -1.330576 0.096274
v -0.126865 -1.331441 0.096235
v -0.125537 -1.331530 0.096295
v -0.124273 -1.331297 0.096295
v -0.123036 -1.330638 0.096343
v -0.122291 -1.330828 0.103173
v -0.121967 -1.329877 0.103390
v -0.122125 -1.328956 0.103576
v -0.122428 -1.328125 0.103741
v -0.123243 -1.327467 0.103863
v -0.124487 -1.327196 0.103908
v -0.125657 -1.327457 0.103846
v -0.127241 -1.327984 0.103708
v -0.128113 -1.329136 0.103384
v -0.128420 -1.330043 0.103161
v -0.128425 -1.331061 0.102931
v -0.127789 -1.331870 0.102790
v -0.126659 -1.332649 0.102673
v -0.125375 -1.332823 0.102687
v -0.124203 -1.332632 0.102742
v -0.123139 -1.331901 0.102922
v -0.122730 -1.332980 0.109611
v -0.122331 -1.331823 0.109937
v -0.122198 -1.330600 0.110261
v -0.122519 -1.329746 0.110431
v -0.123448 -1.328978 0.110588
v -0.124743 -1.328756 0.110615
v -0.126067 -1.329140 0.110472
v -0.127645 -1.330145 0.110080
v -0.128091 -1.331119 0.109778
v -0.128377 -1.331998 0.109535
v -0.128342 -1.332933 0.109333
v -0.127492 -1.333814 0.109169
v -0.126648 -1.334338 0.109093
v -0.125326 -1.334540 0.109133
v -0.124455 -1.334373 0.109209
v -0.123439 -1.333750 0.109437
v -0.122937 -1.334764 0.115999
v -0.122191 -1.333534 0.116436
v -0.122284 -1.332457 0.116740
v -0.122631 -1.331378 0.117022
v -0.123874 -1.330794 0.117206
v -0.125111 -1.330613 0.117261
v -0.126300 -1.331000 0.117136
v -0.127475 -1.331743 0.116588
v -0.128153 -1.332961 0.116087
v -0.128417 -1.334223 0.115684
v -0.128250 -1.335052 0.115720
v -0.127687 -1.335875 0.115605
v -0.126718 -1.336447 0.115503
v -0.125754 -1.336597 0.115467
v -0.124622 -1.336311 0.115545
v -0.123803 -1.335838 0.115661
v -0.122968 -1.336530 0.122671
v -0.122366 -1.335470 0.123071
v -0.121989 -1.334215 0.123600
v -0.122641 -1.332604 0.123717
v -0.123684 -1.332060 0.123760
v -0.124628 -1.331906 0.123854
v -0.125705 -1.331968 0.124150
v -0.127037 -1.332925 0.122758
v -0.127711 -1.334034 0.122376
v -0.128632 -1.336117 0.121367
v -0.128960 -1.337133 0.121860
v -0.128711 -1.338047 0.121209
v -0.127805 -1.338448 0.120775
v -0.126691 -1.338760 0.120270
v -0.125199 -1.338583 0.120538
v -0.123851 -1.337584 0.121946
v -0.127934 -1.340836 0.123190
v -0.128936 -1.340529 0.122850
v -0.126547 -1.341098 0.123359
v -0.129633 -1.340075 0.122736
v -0.125326 -1.340499 0.128876
v -0.124144 -1.338515 0.130157
v -0.124200 -1.339442 0.122337
v -0.124836 -1.340331 0.122984
v -0.124292 -1.339742 0.127563
v -0.123415 -1.338531 0.128580
v -0.123450 -1.338492 0.123058
v -0.122717 -1.337240 0.123824
v -0.122079 -1.336138 0.124325
v -0.121993 -1.335388 0.124987
v -0.122177 -1.335877 0.128070
v -0.122687 -1.334952 0.128610
v -0.122193 -1.334133 0.126671
v -0.121907 -1.335221 0.126461
v -0.125141 -1.340435 0.124793
v -0.126481 -1.341280 0.125522
v -0.123484 -1.337585 0.125967
v -0.124231 -1.338827 0.124856
v -0.122597 -1.336336 0.126252
v -0.122673 -1.337091 0.128594
v -0.123337 -1.336662 0.130012
v -0.122914 -1.333309 0.126615
v -0.123863 -1.332672 0.126717
v -0.126652 -1.332325 0.125215
v -0.130233 -1.339293 0.123049
v -0.129845 -1.339602 0.125967
v -0.129344 -1.340260 0.125923
v -0.129269 -1.337033 0.123138
v -0.128870 -1.335922 0.122758
v -0.128072 -1.334210 0.123533
v -0.127336 -1.332950 0.123979
v -0.130224 -1.337906 0.124082
v -0.129976 -1.337789 0.126445
v -0.128339 -1.339352 0.129565
v -0.128915 -1.338588 0.129152
v -0.129502 -1.336985 0.128155
v -0.126894 -1.337150 0.131243
v -0.125913 -1.335151 0.130809
v -0.125105 -1.333156 0.128799
v -0.128477 -1.340910 0.126092
v -0.127606 -1.340051 0.129804
v -0.126072 -1.337701 0.131319
v -0.124869 -1.335583 0.131020
v -0.124159 -1.333473 0.128842
v -0.123425 -1.334104 0.128830
v -0.124169 -1.336008 0.130819
v -0.125173 -1.338126 0.131054
v -0.126668 -1.340354 0.129610
v -0.127665 -1.341186 0.126088
v -0.127584 -1.336695 0.130703
v -0.126671 -1.334861 0.130372
v -0.128807 -1.336520 0.125623
v -0.127940 -1.335201 0.126257
v -0.128801 -1.335807 0.128753
v -0.127593 -1.333932 0.126569
v -0.127714 -1.334596 0.128689
v -0.126652 -1.333223 0.128594
v -0.126349 -1.332280 0.127253
v -0.125906 -1.333116 0.128920
v -0.125608 -1.332157 0.126963
v -0.124657 -1.332326 0.126860
v -0.125801 -1.325341 0.075922
v -0.125944 -1.323600 0.076680
v -0.125470 -1.327728 0.076038
v -0.124543 -1.330192 0.076918
v -0.125847 -1.322139 0.077477
v -0.128096 -1.321444 0.075483
v -0.128351 -1.322949 0.074423
v -0.128086 -1.325019 0.074049
v -0.127444 -1.327517 0.075195
v -0.126922 -1.330131 0.076830
v -0.126793 -1.331527 0.077283
v -0.124175 -1.332267 0.077310
v -0.122464 -1.331910 0.077396
v -0.122513 -1.330313 0.077101
v -0.123452 -1.327849 0.076513
v -0.123236 -1.325486 0.077070
v -0.122506 -1.323417 0.077953
v -0.122756 -1.322489 0.078210
v -0.123790 -1.321340 0.078385
v -0.125811 -1.320891 0.077744
v -0.127462 -1.320498 0.076689
f 38 35 29
f 38 29 36
f 41 27 35
f 41 35 38
f 42 24 27
f 42 27 41
f 23 24 42
f 23 42 44
f 20 23 44
f 20 44 46
f 19 20 46
f 19 46 47
f 16 19 47
f 16 47 48
f 11 12 50
f 11 50 51
f 5 11 51
f 5 51 52
f 14 16 48
f 14 48 49
f 50 12 14
f 50 14 49
f 1 5 52
f 1 52 53
f 36 29 31
f 36 31 8
f 7 6 1
f 7 1 53
f 8 31 33
f 8 33 63
f 63 33 6
f 63 6 7
f 64 63 7
f 64 7 62
f 98 97 81
f 98 81 82
f 99 98 82
f 99 82 83
f 100 99 83
f 100 83 84
f 101 100 84
f 101 84 85
f 102 101 85
f 102 85 86
f 103 102 86
f 103 86 87
f 104 103 87
f 104 87 88
f 105 104 88
f 105 88 89
f 106 105 89
f 106 89 90
f 107 106 90
f 107 90 91
f 108 107 91
f 108 91 92
f 109 108 92
f 109 92 93
f 110 109 93
f 110 93 94
f 111 110 94
f 111 94 95
f 112 111 95
f 112 95 96
f 96 81 97
f 96 97 112
f 114 113 97
f 114 97 98
f 115 114 98
f 115 98 99
f 116 115 99
f 116 99 100
f 117 116 100
f 117 100 101
f 118 117 101
f 118 101 102
f 119 118 102
f 119 102 103
f 120 119 103
f 120 103 104
f 121 120 104
f 121 104 105
f 122 121 105
f 122 105 106
f 123 122 106
f 123 106 107
f 124 123 107
f 124 107 108
f 125 124 108
f 125 108 109
f 126 125 109
f 126 109 110
f 127 126 110
f 127 110 111
f 128 127 111
f 128 111 112
f 112 97 113
f 112 113 128
f 130 129 113
f 130 113 114
f 131 130 114
f 131 114 115
f 132 131 115
f 132 115 116
f 133 132 116
f 133 116 117
f 134 133 117
f 134 117 118
f 135 134 118
f 135 118 119
f 136 135 119
f 136 119 120
f 137 136 120
f 137 120 121
f 138 137 121
f 138 121 122
f 139 138 122
f 139 122 123
f 140 139 123
f 140 123 124
f 141 140 124
f 141 124 125
f 142 141 125
f 142 125 126
f 143 142 126
f 143 126 127
f 144 143 127
f 144 127 128
f 128 113 129
f 128 129 144
f 62 7 53
f 62 53 60
f 69 68 62
f 69 62 60
f 85 84 68
f 85 68 69
f 64 62 68
f 64 68 67
f 67 68 84
f 67 84 83
f 9 8 63
f 9 63 64
f 9 64 67
f 9 67 66
f 66 67 83
f 66 83 82
f 36 8 9
f 36 9 37
f 37 9 66
f 37 66 65
f 65 66 82
f 65 82 81
f 39 38 36
f 39 36 37
f 39 37 65
f 39 65 80
f 80 65 81
f 80 81 96
f 41 38 39
f 41 39 40
f 40 39 80
f 40 80 79
f 79 80 96
f 79 96 95
f 43 42 41
f 43 41 40
f 43 40 79
f 43 79 78
f 78 79 95
f 78 95 94
f 44 42 43
f 44 43 45
f 45 43 78
f 45 78 77
f 77 78 94
f 77 94 93
f 46 44 45
f 46 45 54
f 54 45 77
f 54 77 76
f 76 77 93
f 76 93 92
f 47 46 54
f 47 54 55
f 55 54 76
f 55 76 75
f 75 76 92
f 75 92 91
f 48 47 55
f 48 55 56
f 56 55 75
f 56 75 74
f 74 75 91
f 74 91 90
f 49 48 56
f 49 56 61
f 61 56 74
f 61 74 73
f 73 74 90
f 73 90 89
f 57 50 49
f 57 49 61
f 57 61 73
f 57 73 72
f 72 73 89
f 72 89 88
f 51 50 57
f 51 57 58
f 58 57 72
f 58 72 71
f 71 72 88
f 71 88 87
f 52 51 58
f 52 58 59
f 59 58 71
f 59 71 70
f 60 53 52
f 60 52 59
f 70 69 60
f 70 60 59
f 86 85 69
f 86 69 70
f 70 71 87
f 70 87 86
f 158 157 141
f 158 141 142
f 140 141 157
f 140 157 156
f 159 158 142
f 159 142 143
f 160 159 143
f 160 143 144
f 145 160 144
f 145 144 129
f 146 145 129
f 146 129 130
f 147 146 130
f 147 130 131
f 171 167 159
f 171 159 160
f 171 160 145
f 171 145 172
f 173 172 145
f 173 145 146
f 173 146 147
f 173 147 174
f 163 159 167
f 163 167 168
f 169 179 168
f 169 168 182
f 168 167 171
f 168 171 182
f 182 171 172
f 182 172 181
f 181 172 173
f 181 173 183
f 183 173 174
f 183 174 178
f 170 169 182
f 170 182 181
f 184 170 181
f 184 181 183
f 184 183 178
f 184 178 175
f 178 174 147
f 178 147 177
f 148 147 131
f 148 131 132
f 149 148 132
f 149 132 133
f 139 140 156
f 139 156 155
f 138 139 155
f 138 155 154
f 137 138 154
f 137 154 153
f 136 137 153
f 136 153 152
f 189 155 156
f 189 156 164
f 164 156 157
f 164 157 162
f 186 177 147
f 186 147 148
f 162 157 158
f 162 158 161
f 161 158 159
f 161 159 163
f 190 189 164
f 190 164 191
f 191 164 162
f 191 162 204
f 213 161 163
f 213 163 180
f 180 163 168
f 180 168 179
f 204 162 161
f 204 161 213
f 198 191 204
f 198 204 205
f 180 179 169
f 180 169 165
f 212 213 180
f 212 180 165
f 205 204 213
f 205 213 212
f 166 165 169
f 166 169 170
f 211 212 165
f 211 165 166
f 206 205 212
f 206 212 211
f 185 166 170
f 185 170 184
f 210 211 166
f 210 166 185
f 207 206 211
f 207 211 210
f 176 175 178
f 176 178 177
f 185 184 175
f 185 175 176
f 209 210 185
f 209 185 176
f 176 177 186
f 176 186 209
f 208 207 210
f 208 210 209
f 190 191 198
f 190 198 199
f 201 198 205
f 201 205 206
f 202 201 206
f 202 206 207
f 196 189 190
f 196 190 197
f 193 154 155
f 193 155 192
f 192 155 189
f 192 189 196
f 153 154 193
f 153 193 194
f 216 193 192
f 216 192 196
f 200 197 190
f 200 190 199
f 216 196 197
f 216 197 200
f 152 153 194
f 152 194 195
f 217 194 193
f 217 193 216
f 214 199 198
f 214 198 201
f 218 200 199
f 218 199 214
f 218 217 216
f 218 216 200
f 219 195 194
f 219 194 217
f 219 217 218
f 219 218 220
f 220 218 214
f 220 214 215
f 215 214 201
f 215 201 202
f 223 221 220
f 223 220 215
f 222 219 220
f 222 220 221
f 188 195 219
f 188 219 222
f 203 202 207
f 203 207 208
f 208 209 186
f 208 186 187
f 187 186 148
f 187 148 149
f 223 215 202
f 223 202 203
f 151 150 134
f 151 134 135
f 135 136 152
f 135 152 151
f 151 152 195
f 151 195 188
f 151 188 222
f 151 222 224
f 222 221 223
f 222 223 224
f 150 149 133
f 150 133 134
f 225 187 149
f 225 149 150
f 150 151 224
f 150 224 225
f 203 208 187
f 203 187 225
f 224 223 203
f 224 203 225
f 14 12 13
f 14 13 15
f 16 14 15
f 16 15 17
f 233 17 15
f 233 15 232
f 19 16 17
f 19 17 18
f 234 18 17
f 234 17 233
f 20 19 18
f 20 18 21
f 235 21 18
f 235 18 234
f 23 20 21
f 23 21 22
f 22 21 235
f 22 235 236
f 24 23 22
f 24 22 25
f 237 25 22
f 237 22 236
f 27 24 25
f 27 25 26
f 26 25 237
f 26 237 238
f 237 236 235
f 237 235 229
f 35 27 26
f 35 26 34
f 238 237 229
f 238 229 239
f 34 26 238
f 34 238 239
f 28 29 35
f 28 35 34
f 228 229 235
f 228 235 234
f 239 229 228
f 239 228 240
f 28 34 239
f 28 239 240
f 226 228 234
f 226 234 233
f 31 29 28
f 31 28 30
f 241 240 228
f 241 228 226
f 241 30 28
f 241 28 240
f 33 31 30
f 33 30 32
f 227 226 233
f 227 233 232
f 241 226 227
f 241 227 242
f 32 30 241
f 32 241 242
f 3 6 33
f 3 33 32
f 3 32 242
f 3 242 243
f 1 6 3
f 1 3 2
f 2 3 243
f 2 243 244
f 5 1 2
f 5 2 4
f 243 242 227
f 243 227 230
f 245 4 2
f 245 2 244
f 245 244 243
f 245 243 230
f 11 5 4
f 11 4 10
f 13 12 11
f 13 11 10
f 231 230 227
f 231 227 232
f 10 4 245
f 10 245 246
f 231 13 10
f 231 10 246
f 232 15 13
f 232 13 231
f 246 245 230
f 246 230 231
