# _4th_Metacarpal_L posed
v -0.521401 -0.497932 0.234118
v -0.521720 -0.500527 0.235926
v -0.519396 -0.501922 0.235039
v -0.518498 -0.499501 0.233647
v -0.517693 -0.496604 0.246162
v -0.514209 -0.497368 0.246616
v -0.515735 -0.499752 0.244413
v -0.517971 -0.499166 0.243623
v -0.520784 -0.500582 0.239734
v -0.511428 -0.496121 0.241687
v -0.514335 -0.497518 0.235590
v -0.511207 -0.496093 0.246502
v -0.518592 -0.502597 0.239769
v -0.512705 -0.500063 0.244450
v -0.515528 -0.501417 0.235953
v -0.514018 -0.501493 0.240197
v -0.523144 -0.497707 0.240090
v -0.514236 -0.492745 0.247732
v -0.514410 -0.492481 0.242697
v -0.516826 -0.493149 0.235469
v -0.524097 -0.492798 0.235925
v -0.524794 -0.493308 0.241403
v -0.521533 -0.492136 0.247484
v -0.517724 -0.489981 0.247690
v -0.517127 -0.488853 0.243383
v -0.520023 -0.489849 0.237480
v -0.524266 -0.484150 0.240634
v -0.526914 -0.485550 0.240495
v -0.527883 -0.486256 0.244263
v -0.525232 -0.485707 0.249494
v -0.521376 -0.484136 0.249226
v -0.521070 -0.483108 0.244685
v -0.528496 -0.474618 0.244557
v -0.530561 -0.475824 0.245540
v -0.531755 -0.476578 0.248296
v -0.529634 -0.476400 0.252558
v -0.525909 -0.474967 0.252654
v -0.525455 -0.473840 0.248313
v -0.532028 -0.464161 0.247912
v -0.534418 -0.465545 0.249769
v -0.535911 -0.466586 0.252787
v -0.533507 -0.466257 0.256369
v -0.529986 -0.465033 0.256926
v -0.529205 -0.463772 0.252589
v -0.533964 -0.455327 0.250113
v -0.538205 -0.456449 0.250854
v -0.539547 -0.457804 0.256474
v -0.536570 -0.457973 0.261945
v -0.532329 -0.456538 0.261790
v -0.531434 -0.455348 0.256279
v -0.533470 -0.447465 0.259368
v -0.534545 -0.449331 0.264801
v -0.534388 -0.445819 0.250936
v -0.539893 -0.451358 0.267260
v -0.540662 -0.448975 0.251392
v -0.543093 -0.448872 0.258930
v -0.520909 -0.502111 0.237119
v -0.515348 -0.501758 0.242635
v -0.516971 -0.502956 0.236959
v -0.518602 -0.500452 0.241923
v -0.511467 -0.498647 0.243430
v -0.513465 -0.499512 0.238400
v -0.516908 -0.500548 0.234108
v -0.513139 -0.498579 0.245871
v -0.520047 -0.500138 0.235307
v -0.522961 -0.499606 0.236787
v -0.520283 -0.498712 0.242744
v -0.515726 -0.498188 0.245101
v -0.514127 -0.495500 0.248065
v -0.511599 -0.493483 0.245263
v -0.513568 -0.494715 0.239122
v -0.518014 -0.496982 0.233436
v -0.531776 -0.470131 0.247043
v -0.532951 -0.470958 0.249044
v -0.533225 -0.471681 0.252966
v -0.529737 -0.470775 0.255281
v -0.527517 -0.469319 0.252774
v -0.528505 -0.468702 0.247816
v -0.522537 -0.495245 0.243949
v -0.525124 -0.489861 0.245618
v -0.529222 -0.481708 0.248887
v -0.517727 -0.493065 0.248208
v -0.520969 -0.488307 0.249322
v -0.525306 -0.480591 0.251539
v -0.515366 -0.490884 0.245697
v -0.518855 -0.486923 0.246240
v -0.522920 -0.479121 0.248823
v -0.516493 -0.490682 0.239928
v -0.524692 -0.478995 0.243881
v -0.520064 -0.486428 0.241057
v -0.524656 -0.496078 0.236957
v -0.526476 -0.490160 0.239777
v -0.520831 -0.493900 0.234809
v -0.523843 -0.488686 0.237925
v -0.527768 -0.480283 0.242233
v -0.529266 -0.481245 0.244392
v -0.530634 -0.459723 0.257243
v -0.531416 -0.459059 0.251531
v -0.533318 -0.461309 0.259899
v -0.535289 -0.460230 0.248965
v -0.537348 -0.461494 0.252602
v -0.536969 -0.462117 0.257404
v -0.541016 -0.452616 0.254595
v -0.535349 -0.453717 0.266424
v -0.532167 -0.452104 0.260915
v -0.540714 -0.454756 0.261227
v -0.531947 -0.451642 0.254237
v -0.536134 -0.446794 0.259597
v -0.537025 -0.451480 0.249380
v -0.540015 -0.444952 0.257134
v -0.539468 -0.447669 0.262501
v -0.521939 -0.499293 0.235296
v -0.520797 -0.501496 0.235819
v -0.518476 -0.500755 0.234294
v -0.519484 -0.498300 0.233626
v -0.515386 -0.496590 0.246912
v -0.514415 -0.498595 0.245596
v -0.517246 -0.499687 0.243469
v -0.518130 -0.498081 0.244553
v -0.521768 -0.500806 0.237330
v -0.519419 -0.499862 0.242098
v -0.513010 -0.496880 0.247130
v -0.512760 -0.496904 0.238771
v -0.516920 -0.498657 0.233378
v -0.510475 -0.495534 0.244424
v -0.519462 -0.503251 0.236388
v -0.519774 -0.501450 0.239783
v -0.517555 -0.501148 0.242317
v -0.514064 -0.500301 0.244810
v -0.511780 -0.498506 0.245154
v -0.517178 -0.502061 0.234971
v -0.514746 -0.499921 0.235797
v -0.513111 -0.500866 0.242674
v -0.516207 -0.502788 0.239883
v -0.514813 -0.501624 0.237726
v -0.512392 -0.499200 0.240884
v -0.522069 -0.499385 0.239861
v -0.521403 -0.497153 0.243421
v -0.523944 -0.498100 0.236458
v -0.512065 -0.493946 0.247696
v -0.513754 -0.492016 0.245594
v -0.512594 -0.494113 0.242276
v -0.515173 -0.492853 0.239449
v -0.515189 -0.495135 0.235310
v -0.516085 -0.494544 0.248017
v -0.519501 -0.495635 0.233948
v -0.522967 -0.495408 0.234593
v -0.523922 -0.495727 0.240572
v -0.525404 -0.493522 0.238102
v -0.523666 -0.492907 0.244574
v -0.520102 -0.494425 0.246878
v -0.519187 -0.490920 0.248663
v -0.516027 -0.491641 0.247645
v -0.517029 -0.489312 0.245856
v -0.515683 -0.490723 0.243102
v -0.518020 -0.488757 0.240416
v -0.518417 -0.491535 0.236215
v -0.522189 -0.491666 0.236121
v -0.525757 -0.484884 0.240014
v -0.527803 -0.486068 0.241973
v -0.526986 -0.486146 0.247013
v -0.523018 -0.484939 0.250061
v -0.520791 -0.483529 0.247185
v -0.522438 -0.483292 0.242112
v -0.529854 -0.475289 0.244565
v -0.531133 -0.476144 0.246662
v -0.531388 -0.476836 0.250860
v -0.527627 -0.475765 0.253282
v -0.525262 -0.474281 0.250717
v -0.526763 -0.473990 0.245911
v -0.533645 -0.464976 0.248511
v -0.535148 -0.466040 0.251008
v -0.535078 -0.466659 0.255173
v -0.531739 -0.465818 0.257293
v -0.529303 -0.464313 0.255031
v -0.530043 -0.463601 0.249710
v -0.536313 -0.455807 0.249028
v -0.538909 -0.457095 0.254060
v -0.538784 -0.458340 0.259713
v -0.534255 -0.457481 0.262929
v -0.531477 -0.455723 0.259305
v -0.532148 -0.455122 0.253030
v -0.526387 -0.479653 0.242533
v -0.528573 -0.480875 0.243165
v -0.529849 -0.481623 0.246237
v -0.527449 -0.481299 0.250976
v -0.523512 -0.479753 0.250875
v -0.523252 -0.478721 0.246298
v -0.530426 -0.469348 0.246470
v -0.532400 -0.470605 0.248001
v -0.533649 -0.471432 0.250607
v -0.531638 -0.471308 0.254383
v -0.528112 -0.470017 0.254636
v -0.527454 -0.468781 0.250466
v -0.533309 -0.459466 0.249124
v -0.536513 -0.460891 0.250603
v -0.537988 -0.462065 0.254764
v -0.535252 -0.461691 0.258860
v -0.531414 -0.460517 0.259326
v -0.530632 -0.459227 0.254569
v -0.526162 -0.490148 0.242658
v -0.523269 -0.489257 0.248324
v -0.519475 -0.487528 0.248218
v -0.519000 -0.486463 0.243768
v -0.521983 -0.487499 0.238974
v -0.525450 -0.489560 0.237954
v -0.531768 -0.451836 0.257833
v -0.533142 -0.452576 0.264203
v -0.533329 -0.449614 0.261704
v -0.532149 -0.448064 0.255042
v -0.533834 -0.451331 0.250524
v -0.537014 -0.450129 0.268273
v -0.538087 -0.454615 0.265220
v -0.539526 -0.452271 0.251001
v -0.538508 -0.446731 0.250241
v -0.540996 -0.454092 0.257671
v -0.543352 -0.447940 0.256682
v -0.543064 -0.449224 0.262322
v -0.536936 -0.447598 0.261909
v -0.536932 -0.444637 0.257011
v -0.519652 -0.498934 0.234226
v -0.520876 -0.498689 0.234528
v -0.521488 -0.499505 0.235398
v -0.521579 -0.500561 0.235931
v -0.520575 -0.501242 0.235786
v -0.519558 -0.501515 0.235336
v -0.518870 -0.500658 0.234842
v -0.518786 -0.499683 0.234154
v -0.517105 -0.498055 0.244735
v -0.516620 -0.497280 0.245703
v -0.515398 -0.497252 0.246139
v -0.514564 -0.497650 0.246150
v -0.514839 -0.498421 0.245402
v -0.515552 -0.499180 0.244677
v -0.516576 -0.499116 0.244048
v -0.517348 -0.498823 0.244024
v -0.542473 -0.447929 0.253381
v -0.542901 -0.451649 0.258460
v -0.542836 -0.451834 0.261954
v -0.535852 -0.448040 0.263467
v -0.536000 -0.443867 0.254049
v -0.540040 -0.444734 0.252677
v -0.539359 -0.447105 0.259527
v -0.542971 -0.450821 0.256631
v -0.538482 -0.448002 0.266723
v -0.541080 -0.448860 0.267106
v -0.521310 -0.501396 0.237369
v -0.520463 -0.501953 0.238424
v -0.520178 -0.500985 0.239758
v -0.521365 -0.500762 0.238486
v -0.520833 -0.501289 0.238539
v -0.519163 -0.500914 0.240944
v -0.519004 -0.500205 0.241942
v -0.520125 -0.500259 0.240985
v -0.519584 -0.500608 0.240913
v -0.521420 -0.500056 0.239778
v -0.522691 -0.499554 0.238276
v -0.522340 -0.500244 0.237091
v -0.522017 -0.500218 0.238374
v -0.519808 -0.499355 0.242391
v -0.521276 -0.499085 0.241385
v -0.520673 -0.499745 0.241164
v -0.512938 -0.499383 0.239629
v -0.512963 -0.498208 0.238605
v -0.512104 -0.496603 0.240217
v -0.511715 -0.497672 0.241292
v -0.512352 -0.497997 0.239934
v -0.512943 -0.495690 0.238937
v -0.513117 -0.494511 0.240710
v -0.511704 -0.494864 0.242039
v -0.512344 -0.495365 0.240489
v -0.510791 -0.495643 0.243115
v -0.510744 -0.497033 0.243918
v -0.511845 -0.498935 0.242189
v -0.511093 -0.497253 0.242666
v -0.511942 -0.493616 0.243838
v -0.510769 -0.494388 0.244906
v -0.511056 -0.494420 0.243537
v -0.514024 -0.499664 0.237134
v -0.514403 -0.498750 0.235696
v -0.513461 -0.497166 0.237274
v -0.513604 -0.498426 0.237225
v -0.515769 -0.500271 0.234643
v -0.516805 -0.499620 0.233667
v -0.515544 -0.498038 0.233991
v -0.515522 -0.499192 0.234266
v -0.514614 -0.496314 0.235446
v -0.514172 -0.494806 0.237310
v -0.513656 -0.495954 0.237291
v -0.517353 -0.497760 0.233322
v -0.516616 -0.495933 0.233789
v -0.515935 -0.496936 0.233823
v -0.511382 -0.497320 0.245726
v -0.511450 -0.498514 0.244413
v -0.510703 -0.495805 0.245529
v -0.510859 -0.497123 0.244932
v -0.512963 -0.497702 0.246422
v -0.512306 -0.498532 0.245733
v -0.511892 -0.496445 0.247210
v -0.512016 -0.497495 0.246364
v -0.511381 -0.494922 0.247284
v -0.512960 -0.494676 0.248250
v -0.513358 -0.496121 0.247823
v -0.512174 -0.495464 0.247955
v -0.511691 -0.493623 0.246573
v -0.511015 -0.494686 0.246119
v -0.515787 -0.502372 0.241312
v -0.516562 -0.501647 0.242581
v -0.518076 -0.501903 0.241220
v -0.517479 -0.502928 0.239793
v -0.517039 -0.502357 0.241305
v -0.518157 -0.500707 0.242046
v -0.519331 -0.502027 0.239777
v -0.518723 -0.501302 0.241064
v -0.518270 -0.503340 0.236494
v -0.516635 -0.502990 0.238394
v -0.519098 -0.503064 0.238054
v -0.517936 -0.503271 0.238113
v -0.520330 -0.502791 0.236694
v -0.519928 -0.502593 0.238205
v -0.514749 -0.501056 0.243849
v -0.514147 -0.501490 0.242608
v -0.512807 -0.500416 0.243776
v -0.513219 -0.500249 0.244678
v -0.513680 -0.500899 0.243789
v -0.512263 -0.499926 0.242970
v -0.512247 -0.499455 0.244754
v -0.512118 -0.499626 0.244008
v -0.513505 -0.499469 0.245420
v -0.512717 -0.499475 0.245255
v -0.515771 -0.502377 0.237368
v -0.517149 -0.502633 0.235747
v -0.516210 -0.501742 0.235463
v -0.515202 -0.501537 0.236656
v -0.516062 -0.502151 0.236239
v -0.517069 -0.501365 0.234521
v -0.515189 -0.500859 0.235866
v -0.516073 -0.501133 0.235017
v -0.514092 -0.500678 0.238091
v -0.514567 -0.500726 0.236943
v -0.514434 -0.501615 0.238937
v -0.515031 -0.502271 0.240008
v -0.515429 -0.502411 0.238664
v -0.513179 -0.500475 0.240501
v -0.513653 -0.500612 0.239279
v -0.513550 -0.501243 0.241444
v -0.512668 -0.500232 0.241746
v -0.514592 -0.501968 0.241326
v -0.520841 -0.497976 0.243101
v -0.522427 -0.497437 0.241825
v -0.522661 -0.498595 0.239952
v -0.521885 -0.498306 0.241607
v -0.521974 -0.496244 0.243694
v -0.523319 -0.495499 0.242310
v -0.523530 -0.496747 0.240295
v -0.522876 -0.496500 0.242052
v -0.523699 -0.497921 0.238305
v -0.523517 -0.498904 0.236540
v -0.523257 -0.498781 0.238236
v -0.524431 -0.495956 0.238778
v -0.524317 -0.497153 0.236597
v -0.524074 -0.496982 0.238484
v -0.512732 -0.492714 0.245451
v -0.513840 -0.492260 0.246822
v -0.513130 -0.493259 0.247766
v -0.512708 -0.492782 0.246779
v -0.514592 -0.491482 0.245671
v -0.515585 -0.491191 0.246781
v -0.515167 -0.492224 0.247698
v -0.514750 -0.491764 0.246817
v -0.515077 -0.493575 0.248158
v -0.515099 -0.495028 0.248047
v -0.514029 -0.494095 0.248224
v -0.516754 -0.492309 0.248152
v -0.516976 -0.493911 0.248055
v -0.515970 -0.493008 0.248133
v -0.514389 -0.493868 0.239291
v -0.514837 -0.492823 0.241073
v -0.513609 -0.493404 0.242454
v -0.514058 -0.493796 0.240849
v -0.515840 -0.491703 0.239670
v -0.516038 -0.490713 0.241597
v -0.515041 -0.491573 0.242928
v -0.515447 -0.491733 0.241352
v -0.515408 -0.490733 0.244474
v -0.513966 -0.492104 0.244227
v -0.514703 -0.491425 0.244375
v -0.513055 -0.492893 0.244030
v -0.518765 -0.496318 0.233653
v -0.518233 -0.494289 0.234278
v -0.515971 -0.494074 0.235315
v -0.517429 -0.495064 0.233952
v -0.520175 -0.494824 0.234328
v -0.519667 -0.492713 0.235223
v -0.517640 -0.492327 0.235780
v -0.518954 -0.493520 0.234710
v -0.517281 -0.490869 0.238000
v -0.515734 -0.492755 0.237508
v -0.516519 -0.491749 0.237697
v -0.514923 -0.493784 0.237396
v -0.524156 -0.495886 0.235293
v -0.525007 -0.494885 0.237462
v -0.525020 -0.493252 0.236632
v -0.523528 -0.494148 0.235176
v -0.524573 -0.494631 0.235894
v -0.525895 -0.491940 0.238874
v -0.526116 -0.489912 0.238615
v -0.524713 -0.491279 0.236909
v -0.525506 -0.491679 0.237580
v -0.521502 -0.492867 0.235396
v -0.521866 -0.494784 0.234598
v -0.523148 -0.492319 0.235882
v -0.522495 -0.493610 0.235164
v -0.524690 -0.489172 0.237778
v -0.522956 -0.490267 0.236979
v -0.523871 -0.490847 0.236788
v -0.523081 -0.494149 0.244225
v -0.524292 -0.493122 0.243021
v -0.524329 -0.494600 0.240936
v -0.523777 -0.494390 0.242623
v -0.524345 -0.491473 0.245044
v -0.525714 -0.490029 0.244167
v -0.525404 -0.491818 0.241983
v -0.524936 -0.491662 0.243541
v -0.525225 -0.493484 0.239743
v -0.524800 -0.494807 0.239198
v -0.526451 -0.490217 0.241169
v -0.525783 -0.491948 0.240398
v -0.518868 -0.493803 0.247758
v -0.518429 -0.492048 0.248422
v -0.520341 -0.491567 0.248330
v -0.520832 -0.493324 0.247181
v -0.519597 -0.492728 0.248049
v -0.520034 -0.489680 0.248983
v -0.522105 -0.488803 0.249140
v -0.522356 -0.490779 0.247878
v -0.521186 -0.490262 0.248714
v -0.522708 -0.492584 0.246151
v -0.521406 -0.494900 0.245545
v -0.522063 -0.493800 0.245825
v -0.524301 -0.489608 0.247042
v -0.523458 -0.491183 0.246562
v -0.516190 -0.490198 0.245748
v -0.517287 -0.489619 0.246857
v -0.516880 -0.490908 0.247618
v -0.516441 -0.490508 0.246775
v -0.517914 -0.488222 0.246009
v -0.519052 -0.487198 0.247315
v -0.518579 -0.488855 0.247896
v -0.518151 -0.488515 0.247034
v -0.518322 -0.490395 0.248352
v -0.517522 -0.491427 0.248215
v -0.520098 -0.487887 0.248929
v -0.519173 -0.489219 0.248607
v -0.517211 -0.489748 0.240169
v -0.517469 -0.488733 0.241951
v -0.516371 -0.489840 0.243245
v -0.516707 -0.489750 0.241779
v -0.518977 -0.487666 0.240697
v -0.519407 -0.486344 0.242414
v -0.518010 -0.487746 0.243537
v -0.518380 -0.487622 0.242145
v -0.516983 -0.489063 0.244691
v -0.516169 -0.489974 0.244576
v -0.518842 -0.486683 0.245046
v -0.517875 -0.487974 0.244827
v -0.521141 -0.490784 0.236611
v -0.519191 -0.490731 0.236796
v -0.520391 -0.491817 0.235851
v -0.522929 -0.488107 0.238324
v -0.520939 -0.488779 0.238211
v -0.521964 -0.489542 0.237450
v -0.518906 -0.489110 0.238819
v -0.518055 -0.490024 0.238389
v -0.520999 -0.486888 0.239873
v -0.519888 -0.488080 0.239304
v -0.524797 -0.486908 0.238954
v -0.525045 -0.484524 0.240210
v -0.523142 -0.485985 0.239776
v -0.523999 -0.486465 0.239256
v -0.526754 -0.482647 0.241076
v -0.527132 -0.479949 0.242187
v -0.525327 -0.482005 0.241562
v -0.526080 -0.482317 0.241171
v -0.525581 -0.479345 0.243109
v -0.523573 -0.481267 0.242929
v -0.523400 -0.483737 0.241251
v -0.524500 -0.481662 0.242140
v -0.521252 -0.484998 0.241507
v -0.522216 -0.485474 0.240509
v -0.527100 -0.488204 0.240837
v -0.527396 -0.485830 0.241123
v -0.526178 -0.487648 0.239167
v -0.526726 -0.487962 0.239833
v -0.528511 -0.483726 0.243174
v -0.528908 -0.481072 0.243748
v -0.527724 -0.483276 0.241817
v -0.528124 -0.483517 0.242433
v -0.528225 -0.480612 0.242627
v -0.526379 -0.485234 0.240116
v -0.527290 -0.482984 0.241337
v -0.525530 -0.487299 0.238894
v -0.526007 -0.488094 0.246282
v -0.527527 -0.486230 0.245623
v -0.526992 -0.488300 0.243418
v -0.526589 -0.488228 0.244861
v -0.528082 -0.484008 0.247873
v -0.529683 -0.481713 0.247526
v -0.528847 -0.484014 0.245206
v -0.528573 -0.484044 0.246502
v -0.529636 -0.481440 0.245183
v -0.527985 -0.486213 0.243034
v -0.528814 -0.483906 0.244080
v -0.527173 -0.488307 0.242064
v -0.521982 -0.486755 0.249612
v -0.524087 -0.485334 0.250024
v -0.524223 -0.487578 0.248842
v -0.523079 -0.487183 0.249519
v -0.524121 -0.482857 0.250733
v -0.526376 -0.480969 0.251422
v -0.526321 -0.483603 0.250185
v -0.525196 -0.483248 0.250659
v -0.528452 -0.481570 0.250131
v -0.526246 -0.485989 0.248387
v -0.527343 -0.483877 0.249210
v -0.525224 -0.487882 0.247654
v -0.519810 -0.485367 0.246620
v -0.520936 -0.483792 0.248313
v -0.520402 -0.485966 0.248654
v -0.519971 -0.485630 0.247736
v -0.521833 -0.481424 0.247937
v -0.523073 -0.479403 0.249949
v -0.522412 -0.482037 0.249985
v -0.521978 -0.481694 0.249065
v -0.524302 -0.480174 0.251406
v -0.522110 -0.484539 0.249791
v -0.523171 -0.482447 0.250529
v -0.521087 -0.486349 0.249290
v -0.521593 -0.483058 0.243327
v -0.523837 -0.478738 0.244975
v -0.522155 -0.481022 0.245416
v -0.522715 -0.481013 0.244073
v -0.520027 -0.484924 0.244141
v -0.520487 -0.484828 0.242791
v -0.522962 -0.478876 0.247609
v -0.520832 -0.483297 0.245979
v -0.521880 -0.481187 0.246723
v -0.519832 -0.485133 0.245419
v -0.529255 -0.474942 0.244338
v -0.530843 -0.472715 0.245773
v -0.531232 -0.469766 0.246583
v -0.529487 -0.471984 0.245509
v -0.530268 -0.472353 0.245423
v -0.528813 -0.477822 0.243398
v -0.527453 -0.477179 0.243546
v -0.528200 -0.477480 0.243250
v -0.529476 -0.468986 0.246939
v -0.527673 -0.471359 0.246882
v -0.527662 -0.474308 0.245124
v -0.528604 -0.471657 0.246053
v -0.525761 -0.476546 0.244893
v -0.526644 -0.476878 0.244123
v -0.530844 -0.475990 0.246074
v -0.532052 -0.473547 0.247846
v -0.532660 -0.470779 0.248489
v -0.531505 -0.473219 0.246758
v -0.531772 -0.473385 0.247272
v -0.530178 -0.478714 0.245530
v -0.529554 -0.478384 0.244373
v -0.529858 -0.478558 0.244927
v -0.532127 -0.470399 0.247531
v -0.530259 -0.475594 0.245028
v -0.531220 -0.473003 0.246262
v -0.529237 -0.478139 0.243840
v -0.531799 -0.476790 0.249557
v -0.532335 -0.474275 0.251891
v -0.533727 -0.471669 0.251830
v -0.532685 -0.473995 0.249436
v -0.532778 -0.474236 0.250672
v -0.530346 -0.479316 0.249906
v -0.530826 -0.479135 0.247266
v -0.530775 -0.479291 0.248554
v -0.533293 -0.471169 0.249708
v -0.531444 -0.476334 0.247361
v -0.532361 -0.473743 0.248526
v -0.530528 -0.478907 0.246267
v -0.528657 -0.476108 0.253033
v -0.528699 -0.473282 0.254264
v -0.530744 -0.471067 0.254896
v -0.530655 -0.473865 0.253424
v -0.529721 -0.473598 0.253926
v -0.526501 -0.478210 0.252380
v -0.528567 -0.478890 0.251809
v -0.527543 -0.478573 0.252233
v -0.532459 -0.471521 0.253771
v -0.530573 -0.476665 0.251864
v -0.531536 -0.474106 0.252777
v -0.529546 -0.479161 0.251044
v -0.525467 -0.474597 0.251765
v -0.526428 -0.471820 0.251716
v -0.527738 -0.469649 0.253749
v -0.527044 -0.472514 0.253607
v -0.526644 -0.472146 0.252717
v -0.524078 -0.476722 0.249754
v -0.524736 -0.477392 0.251723
v -0.524269 -0.477025 0.250838
v -0.528776 -0.470412 0.255246
v -0.526650 -0.475372 0.253205
v -0.527732 -0.472909 0.254205
v -0.525511 -0.477805 0.252260
v -0.525935 -0.473789 0.247003
v -0.527778 -0.468630 0.249080
v -0.526479 -0.471323 0.249383
v -0.526880 -0.471217 0.248042
v -0.524365 -0.476311 0.247276
v -0.524913 -0.476305 0.245967
v -0.527400 -0.469025 0.251703
v -0.525254 -0.474025 0.249569
v -0.526361 -0.471542 0.250618
v -0.524100 -0.476472 0.248566
v -0.532724 -0.467525 0.247997
v -0.532973 -0.464574 0.247875
v -0.531274 -0.466711 0.247249
v -0.532147 -0.467146 0.247420
v -0.534507 -0.462549 0.248789
v -0.534367 -0.459833 0.248586
v -0.532696 -0.461735 0.248509
v -0.533710 -0.462132 0.248204
v -0.532274 -0.459197 0.250165
v -0.530726 -0.461236 0.250637
v -0.531008 -0.463830 0.248627
v -0.531651 -0.461424 0.249402
v -0.529295 -0.466098 0.248756
v -0.530275 -0.466355 0.247785
v -0.534017 -0.468450 0.250088
v -0.534755 -0.465785 0.250358
v -0.533394 -0.468029 0.249024
v -0.533681 -0.468233 0.249520
v -0.536286 -0.463735 0.251812
v -0.536963 -0.461196 0.251571
v -0.535437 -0.463181 0.250263
v -0.535842 -0.463455 0.250998
v -0.535959 -0.460575 0.249733
v -0.534074 -0.465287 0.249179
v -0.535022 -0.462890 0.249554
v -0.533095 -0.467804 0.248540
v -0.534173 -0.469145 0.254102
v -0.535766 -0.466742 0.254089
v -0.534779 -0.468970 0.251723
v -0.534759 -0.469174 0.252986
v -0.535997 -0.464299 0.256233
v -0.537792 -0.462236 0.256191
v -0.536988 -0.464285 0.253801
v -0.536770 -0.464420 0.255144
v -0.537720 -0.461784 0.253617
v -0.535589 -0.466315 0.251766
v -0.536726 -0.464023 0.252701
v -0.534415 -0.468695 0.250777
v -0.530770 -0.468266 0.256250
v -0.532692 -0.466058 0.256842
v -0.532590 -0.468759 0.255387
v -0.531740 -0.468535 0.255853
v -0.532615 -0.463486 0.258475
v -0.534347 -0.461524 0.259473
v -0.534405 -0.463885 0.257458
v -0.533583 -0.463704 0.257988
v -0.536084 -0.461888 0.258205
v -0.534277 -0.466462 0.255861
v -0.535174 -0.464085 0.256920
v -0.533390 -0.468971 0.254848
v -0.528491 -0.466800 0.253881
v -0.529545 -0.464643 0.256052
v -0.529118 -0.467499 0.255726
v -0.528721 -0.467125 0.254859
v -0.530028 -0.461942 0.256153
v -0.530903 -0.460085 0.258377
v -0.530770 -0.462697 0.258119
v -0.530279 -0.462285 0.257228
v -0.532255 -0.460966 0.259904
v -0.530735 -0.465465 0.257433
v -0.531577 -0.463142 0.258620
v -0.529806 -0.467908 0.256286
v -0.529439 -0.463598 0.251128
v -0.528378 -0.466249 0.251539
v -0.528636 -0.466072 0.250109
v -0.530885 -0.459081 0.253066
v -0.529963 -0.461418 0.253606
v -0.530180 -0.461252 0.252119
v -0.530554 -0.459440 0.255966
v -0.529187 -0.464023 0.253891
v -0.529936 -0.461656 0.254949
v -0.528363 -0.466506 0.252796
v -0.535902 -0.457976 0.248998
v -0.535138 -0.455548 0.249175
v -0.533763 -0.457324 0.249686
v -0.534857 -0.457632 0.248927
v -0.536627 -0.453712 0.249206
v -0.535406 -0.451322 0.249407
v -0.533929 -0.453466 0.250448
v -0.535258 -0.453568 0.249382
v -0.532659 -0.451468 0.252261
v -0.532133 -0.453396 0.253644
v -0.532945 -0.455172 0.251451
v -0.532875 -0.453396 0.251931
v -0.531911 -0.457010 0.252326
v -0.532736 -0.457106 0.250856
v -0.538216 -0.459286 0.253377
v -0.538740 -0.456801 0.252403
v -0.537478 -0.458645 0.250799
v -0.537945 -0.458977 0.252079
v -0.538845 -0.454312 0.250898
v -0.538332 -0.451839 0.250056
v -0.537338 -0.456106 0.249673
v -0.537802 -0.453961 0.249796
v -0.536763 -0.458310 0.249728
v -0.537905 -0.460142 0.258640
v -0.539528 -0.458207 0.258048
v -0.538860 -0.459910 0.255670
v -0.538746 -0.460179 0.257219
v -0.539194 -0.457416 0.255305
v -0.538540 -0.459586 0.254500
v -0.533838 -0.459316 0.261381
v -0.535425 -0.457762 0.262636
v -0.535961 -0.459723 0.260364
v -0.534939 -0.459554 0.261026
v -0.534720 -0.455663 0.264657
v -0.536699 -0.454214 0.266149
v -0.537250 -0.456329 0.263638
v -0.535976 -0.456031 0.264397
v -0.539613 -0.454842 0.263511
v -0.539718 -0.456563 0.260595
v -0.537694 -0.458191 0.260978
v -0.538572 -0.456546 0.262343
v -0.536912 -0.459925 0.259595
v -0.531122 -0.457663 0.258301
v -0.531781 -0.456073 0.260648
v -0.531916 -0.458480 0.260553
v -0.531390 -0.458034 0.259529
v -0.531764 -0.453864 0.260201
v -0.532545 -0.452269 0.262539
v -0.532656 -0.454585 0.263114
v -0.532092 -0.454142 0.261719
v -0.534079 -0.453104 0.265700
v -0.533165 -0.457051 0.262637
v -0.533544 -0.455148 0.264213
v -0.532766 -0.458944 0.261235
v -0.531659 -0.455201 0.254673
v -0.531115 -0.457201 0.255457
v -0.531384 -0.457055 0.253909
v -0.531708 -0.451750 0.256120
v -0.531598 -0.453618 0.257053
v -0.531747 -0.453491 0.255387
v -0.531936 -0.451966 0.259386
v -0.531378 -0.455503 0.257830
v -0.531607 -0.453721 0.258648
v -0.531039 -0.457395 0.256930
v -0.522335 -0.496651 0.234169
v -0.520486 -0.496797 0.233881
v -0.521215 -0.495886 0.234153
v -0.523132 -0.498088 0.234902
v -0.523713 -0.497073 0.234842
v -0.518964 -0.497789 0.233485
v -0.520239 -0.498020 0.233801
v -0.519701 -0.497327 0.233658
v -0.522522 -0.499472 0.235694
v -0.521830 -0.498713 0.234820
v -0.522781 -0.498831 0.235293
v -0.537759 -0.445845 0.258408
v -0.521190 -0.498988 0.234906
v -0.537773 -0.447385 0.260858
v -0.537581 -0.446892 0.259599
v -0.521849 -0.500695 0.236348
v -0.521915 -0.499931 0.235665
v -0.522218 -0.500113 0.236061
v -0.521627 -0.500136 0.235760
v -0.541679 -0.446901 0.258313
v -0.539585 -0.446100 0.258487
v -0.521321 -0.501038 0.235992
v -0.520961 -0.501861 0.236170
v -0.521427 -0.501256 0.236411
v -0.521195 -0.500904 0.235938
v -0.543561 -0.449979 0.257606
v -0.543246 -0.448379 0.257898
v -0.519570 -0.502876 0.235218
v -0.520206 -0.501837 0.235497
v -0.520393 -0.502442 0.235683
v -0.518304 -0.502193 0.234684
v -0.518390 -0.502961 0.235253
v -0.519975 -0.501482 0.235548
v -0.543475 -0.450630 0.259974
v -0.543466 -0.450371 0.258638
v -0.520326 -0.500781 0.235674
v -0.520837 -0.499804 0.235434
v -0.521049 -0.500446 0.235802
v -0.518794 -0.501345 0.234685
v -0.517865 -0.500715 0.234011
v -0.518070 -0.501452 0.234351
v -0.519341 -0.500443 0.235106
v -0.519207 -0.501217 0.235176
v -0.519662 -0.501053 0.235441
v -0.541549 -0.448064 0.260619
v -0.541470 -0.447645 0.259332
v -0.517937 -0.499174 0.233424
v -0.518370 -0.500141 0.233908
v -0.517795 -0.499949 0.233662
v -0.518888 -0.498839 0.233558
v -0.518350 -0.498422 0.233381
v -0.539444 -0.447553 0.260808
v -0.520350 -0.498730 0.234382
v -0.543112 -0.449271 0.260221
v -0.518740 -0.500099 0.234438
v -0.519801 -0.499485 0.234755
v -0.519081 -0.499325 0.234163
v -0.519154 -0.499822 0.234625
v -0.520559 -0.499213 0.234884
v -0.539157 -0.449419 0.268210
v -0.542358 -0.450178 0.265238
v -0.540659 -0.449837 0.267569
v -0.519133 -0.495501 0.246529
v -0.516945 -0.495516 0.247309
v -0.517997 -0.494783 0.247471
v -0.519845 -0.496892 0.244877
v -0.520627 -0.495948 0.245240
v -0.519061 -0.498346 0.243896
v -0.518064 -0.497463 0.245174
v -0.519381 -0.497672 0.244397
v -0.516270 -0.496498 0.246701
v -0.514987 -0.496143 0.247464
v -0.515906 -0.495864 0.247370
v -0.543306 -0.450578 0.262091
v -0.516075 -0.497219 0.245919
v -0.541024 -0.447817 0.265344
v -0.542300 -0.448798 0.265333
v -0.513813 -0.497164 0.246858
v -0.514651 -0.496903 0.246945
v -0.514219 -0.496582 0.247372
v -0.514856 -0.497453 0.246204
v -0.541570 -0.448044 0.262590
v -0.540002 -0.448275 0.267419
v -0.514158 -0.497951 0.246095
v -0.513952 -0.498593 0.245739
v -0.513750 -0.497846 0.246254
v -0.514603 -0.497980 0.245810
v -0.540717 -0.453226 0.264342
v -0.541707 -0.451691 0.264918
v -0.514990 -0.500101 0.244700
v -0.514870 -0.499188 0.245126
v -0.514351 -0.499339 0.245292
v -0.516803 -0.500484 0.243347
v -0.515868 -0.500884 0.243735
v -0.515201 -0.498874 0.245014
v -0.537554 -0.452405 0.267481
v -0.539006 -0.452909 0.266441
v -0.515192 -0.498288 0.245255
v -0.515432 -0.497686 0.245663
v -0.514934 -0.497828 0.245735
v -0.516664 -0.499770 0.243723
v -0.517909 -0.500035 0.242813
v -0.517440 -0.500199 0.242958
v -0.516178 -0.498681 0.244522
v -0.515994 -0.499189 0.244326
v -0.515605 -0.498766 0.244755
v -0.538389 -0.450839 0.268181
v -0.537622 -0.447777 0.263754
v -0.518612 -0.499478 0.243026
v -0.517682 -0.499502 0.243461
v -0.518303 -0.499821 0.242839
v -0.518094 -0.498671 0.244013
v -0.518823 -0.498970 0.243409
v -0.539129 -0.447616 0.264768
v -0.516836 -0.497600 0.245280
v -0.537911 -0.447631 0.262199
v -0.517034 -0.498968 0.244020
v -0.516437 -0.498113 0.244884
v -0.517278 -0.498502 0.244289
v -0.516762 -0.498572 0.244389
v -0.516136 -0.497637 0.245446
v -0.536427 -0.448548 0.266331
v -0.537795 -0.448879 0.267847
v -0.537083 -0.448037 0.265220
v -0.540198 -0.455810 0.257128
v -0.541093 -0.454488 0.259201
v -0.540299 -0.456294 0.258701
v -0.540233 -0.450397 0.251238
v -0.539940 -0.448004 0.250799
v -0.537676 -0.448930 0.249703
v -0.539076 -0.449747 0.250403
v -0.536522 -0.445874 0.250022
v -0.533913 -0.448504 0.250490
v -0.535813 -0.448459 0.249492
v -0.533356 -0.448944 0.260931
v -0.532797 -0.450578 0.261378
v -0.532226 -0.449840 0.258647
v -0.532529 -0.450250 0.260063
v -0.532425 -0.447675 0.256739
v -0.532832 -0.446889 0.253223
v -0.535245 -0.444408 0.252344
v -0.534472 -0.445126 0.256383
v -0.533516 -0.445603 0.254693
v -0.531825 -0.449714 0.254820
v -0.531817 -0.449813 0.256851
v -0.536544 -0.444009 0.255800
v -0.536365 -0.445671 0.258139
v -0.534992 -0.446718 0.259549
v -0.535403 -0.445234 0.257515
v -0.533811 -0.449435 0.262892
v -0.533823 -0.450713 0.264803
v -0.533217 -0.450641 0.262925
v -0.532514 -0.449096 0.252535
v -0.539351 -0.445498 0.251227
v -0.537980 -0.443832 0.252902
v -0.537347 -0.444508 0.251259
v -0.540273 -0.444434 0.254923
v -0.538135 -0.444577 0.257042
v -0.538252 -0.443789 0.255062
v -0.541546 -0.448519 0.252142
v -0.541671 -0.446147 0.252943
v -0.540851 -0.446899 0.251623
v -0.540500 -0.452553 0.252400
v -0.539697 -0.454944 0.254454
v -0.539548 -0.454670 0.252491
v -0.542222 -0.450080 0.253764
v -0.541304 -0.450414 0.252357
v -0.540829 -0.453578 0.256371
v -0.539873 -0.455344 0.255914
v -0.541855 -0.453190 0.261662
v -0.543038 -0.451833 0.259853
v -0.541977 -0.452776 0.258138
v -0.542100 -0.453047 0.259593
v -0.542029 -0.446117 0.256991
v -0.543143 -0.447705 0.255019
v -0.542143 -0.445774 0.254936
v -0.542298 -0.451389 0.255890
v -0.542903 -0.451248 0.257415
v -0.541937 -0.452289 0.256958
v -0.543559 -0.449670 0.256549
v -0.543093 -0.449716 0.255209
v -0.535220 -0.448503 0.264273
v -0.534747 -0.447838 0.261720
v -0.534258 -0.448568 0.262393
v -0.536488 -0.447352 0.260947
v -0.536464 -0.447759 0.262596
v -0.535526 -0.447436 0.261256
v -0.535625 -0.449521 0.266945
v -0.536143 -0.451773 0.267779
v -0.534766 -0.451106 0.266757
f 120 247 251
f 120 251 250
f 247 57 248
f 247 248 251
f 251 248 127
f 251 127 249
f 250 251 249
f 250 249 9
f 9 249 255
f 9 255 254
f 249 127 252
f 249 252 255
f 255 252 60
f 255 60 253
f 254 255 253
f 254 253 121
f 9 256 259
f 9 259 250
f 256 137 257
f 256 257 259
f 259 257 66
f 259 66 258
f 250 259 258
f 250 258 120
f 121 260 262
f 121 262 254
f 260 67 261
f 260 261 262
f 262 261 137
f 262 137 256
f 254 262 256
f 254 256 9
f 136 263 267
f 136 267 266
f 263 62 264
f 263 264 267
f 267 264 123
f 267 123 265
f 266 267 265
f 266 265 10
f 10 265 271
f 10 271 270
f 265 123 268
f 265 268 271
f 271 268 71
f 271 71 269
f 270 271 269
f 270 269 142
f 10 272 275
f 10 275 266
f 272 125 273
f 272 273 275
f 275 273 61
f 275 61 274
f 266 275 274
f 266 274 136
f 142 276 278
f 142 278 270
f 276 70 277
f 276 277 278
f 278 277 125
f 278 125 272
f 270 278 272
f 270 272 10
f 123 264 282
f 123 282 281
f 264 62 279
f 264 279 282
f 282 279 132
f 282 132 280
f 281 282 280
f 281 280 11
f 11 280 286
f 11 286 285
f 280 132 283
f 280 283 286
f 286 283 63
f 286 63 284
f 285 286 284
f 285 284 124
f 11 287 289
f 11 289 281
f 287 144 288
f 287 288 289
f 289 288 71
f 289 71 268
f 281 289 268
f 281 268 123
f 124 290 292
f 124 292 285
f 290 72 291
f 290 291 292
f 292 291 144
f 292 144 287
f 285 292 287
f 285 287 11
f 12 293 296
f 12 296 295
f 293 130 294
f 293 294 296
f 296 294 61
f 296 61 273
f 295 296 273
f 295 273 125
f 122 297 300
f 122 300 299
f 297 64 298
f 297 298 300
f 300 298 130
f 300 130 293
f 299 300 293
f 299 293 12
f 12 301 304
f 12 304 299
f 301 140 302
f 301 302 304
f 304 302 69
f 304 69 303
f 299 304 303
f 299 303 122
f 125 277 306
f 125 306 295
f 277 70 305
f 277 305 306
f 306 305 140
f 306 140 301
f 295 306 301
f 295 301 12
f 134 307 311
f 134 311 310
f 307 58 308
f 307 308 311
f 311 308 128
f 311 128 309
f 310 311 309
f 310 309 13
f 13 309 314
f 13 314 313
f 309 128 312
f 309 312 314
f 314 312 60
f 314 60 252
f 313 314 252
f 313 252 127
f 126 315 318
f 126 318 317
f 315 59 316
f 315 316 318
f 318 316 134
f 318 134 310
f 317 318 310
f 317 310 13
f 127 248 320
f 127 320 313
f 248 57 319
f 248 319 320
f 320 319 126
f 320 126 317
f 313 320 317
f 313 317 13
f 129 321 325
f 129 325 324
f 321 58 322
f 321 322 325
f 325 322 133
f 325 133 323
f 324 325 323
f 324 323 14
f 14 323 328
f 14 328 327
f 323 133 326
f 323 326 328
f 328 326 61
f 328 61 294
f 327 328 294
f 327 294 130
f 130 298 330
f 130 330 327
f 298 64 329
f 298 329 330
f 330 329 129
f 330 129 324
f 327 330 324
f 327 324 14
f 135 331 335
f 135 335 334
f 331 59 332
f 331 332 335
f 335 332 131
f 335 131 333
f 334 335 333
f 334 333 15
f 15 333 338
f 15 338 337
f 333 131 336
f 333 336 338
f 338 336 63
f 338 63 283
f 337 338 283
f 337 283 132
f 15 337 340
f 15 340 334
f 337 132 279
f 337 279 340
f 340 279 62
f 340 62 339
f 334 340 339
f 334 339 135
f 134 316 343
f 134 343 342
f 316 59 331
f 316 331 343
f 343 331 135
f 343 135 341
f 342 343 341
f 342 341 16
f 16 341 345
f 16 345 344
f 341 135 339
f 341 339 345
f 345 339 62
f 345 62 263
f 344 345 263
f 344 263 136
f 16 344 347
f 16 347 346
f 344 136 274
f 344 274 347
f 347 274 61
f 347 61 326
f 346 347 326
f 346 326 133
f 16 346 348
f 16 348 342
f 346 133 322
f 346 322 348
f 348 322 58
f 348 58 307
f 342 348 307
f 342 307 134
f 137 261 352
f 137 352 351
f 261 67 349
f 261 349 352
f 352 349 138
f 352 138 350
f 351 352 350
f 351 350 17
f 17 350 356
f 17 356 355
f 350 138 353
f 350 353 356
f 356 353 79
f 356 79 354
f 355 356 354
f 355 354 148
f 17 357 359
f 17 359 351
f 357 139 358
f 357 358 359
f 359 358 66
f 359 66 257
f 351 359 257
f 351 257 137
f 148 360 362
f 148 362 355
f 360 91 361
f 360 361 362
f 362 361 139
f 362 139 357
f 355 362 357
f 355 357 17
f 140 305 366
f 140 366 365
f 305 70 363
f 305 363 366
f 366 363 141
f 366 141 364
f 365 366 364
f 365 364 18
f 18 364 370
f 18 370 369
f 364 141 367
f 364 367 370
f 370 367 85
f 370 85 368
f 369 370 368
f 369 368 153
f 18 371 373
f 18 373 365
f 371 145 372
f 371 372 373
f 373 372 69
f 373 69 302
f 365 373 302
f 365 302 140
f 153 374 376
f 153 376 369
f 374 82 375
f 374 375 376
f 376 375 145
f 376 145 371
f 369 376 371
f 369 371 18
f 142 269 380
f 142 380 379
f 269 71 377
f 269 377 380
f 380 377 143
f 380 143 378
f 379 380 378
f 379 378 19
f 19 378 384
f 19 384 383
f 378 143 381
f 378 381 384
f 384 381 88
f 384 88 382
f 383 384 382
f 383 382 155
f 19 383 387
f 19 387 386
f 383 155 385
f 383 385 387
f 387 385 85
f 387 85 367
f 386 387 367
f 386 367 141
f 19 386 388
f 19 388 379
f 386 141 363
f 386 363 388
f 388 363 70
f 388 70 276
f 379 388 276
f 379 276 142
f 144 291 392
f 144 392 391
f 291 72 389
f 291 389 392
f 392 389 146
f 392 146 390
f 391 392 390
f 391 390 20
f 20 390 396
f 20 396 395
f 390 146 393
f 390 393 396
f 396 393 93
f 396 93 394
f 395 396 394
f 395 394 157
f 20 395 399
f 20 399 398
f 395 157 397
f 395 397 399
f 399 397 88
f 399 88 381
f 398 399 381
f 398 381 143
f 20 398 400
f 20 400 391
f 398 143 377
f 398 377 400
f 400 377 71
f 400 71 288
f 391 400 288
f 391 288 144
f 147 401 405
f 147 405 404
f 401 91 402
f 401 402 405
f 405 402 149
f 405 149 403
f 404 405 403
f 404 403 21
f 21 403 409
f 21 409 408
f 403 149 406
f 403 406 409
f 409 406 92
f 409 92 407
f 408 409 407
f 408 407 206
f 158 410 413
f 158 413 412
f 410 93 411
f 410 411 413
f 413 411 147
f 413 147 404
f 412 413 404
f 412 404 21
f 206 414 416
f 206 416 408
f 414 94 415
f 414 415 416
f 416 415 158
f 416 158 412
f 408 416 412
f 408 412 21
f 148 354 420
f 148 420 419
f 354 79 417
f 354 417 420
f 420 417 150
f 420 150 418
f 419 420 418
f 419 418 22
f 22 418 424
f 22 424 423
f 418 150 421
f 418 421 424
f 424 421 80
f 424 80 422
f 423 424 422
f 423 422 201
f 149 402 426
f 149 426 425
f 402 91 360
f 402 360 426
f 426 360 148
f 426 148 419
f 425 426 419
f 425 419 22
f 201 427 428
f 201 428 423
f 427 92 406
f 427 406 428
f 428 406 149
f 428 149 425
f 423 428 425
f 423 425 22
f 151 429 433
f 151 433 432
f 429 82 430
f 429 430 433
f 433 430 152
f 433 152 431
f 432 433 431
f 432 431 23
f 23 431 437
f 23 437 436
f 431 152 434
f 431 434 437
f 437 434 83
f 437 83 435
f 436 437 435
f 436 435 202
f 23 438 440
f 23 440 432
f 438 150 417
f 438 417 440
f 440 417 79
f 440 79 439
f 432 440 439
f 432 439 151
f 202 441 442
f 202 442 436
f 441 80 421
f 441 421 442
f 442 421 150
f 442 150 438
f 436 442 438
f 436 438 23
f 153 368 446
f 153 446 445
f 368 85 443
f 368 443 446
f 446 443 154
f 446 154 444
f 445 446 444
f 445 444 24
f 24 444 450
f 24 450 449
f 444 154 447
f 444 447 450
f 450 447 86
f 450 86 448
f 449 450 448
f 449 448 203
f 24 451 452
f 24 452 445
f 451 152 430
f 451 430 452
f 452 430 82
f 452 82 374
f 445 452 374
f 445 374 153
f 203 453 454
f 203 454 449
f 453 83 434
f 453 434 454
f 454 434 152
f 454 152 451
f 449 454 451
f 449 451 24
f 155 382 458
f 155 458 457
f 382 88 455
f 382 455 458
f 458 455 156
f 458 156 456
f 457 458 456
f 457 456 25
f 25 456 462
f 25 462 461
f 456 156 459
f 456 459 462
f 462 459 90
f 462 90 460
f 461 462 460
f 461 460 204
f 25 463 464
f 25 464 457
f 463 154 443
f 463 443 464
f 464 443 85
f 464 85 385
f 457 464 385
f 457 385 155
f 204 465 466
f 204 466 461
f 465 86 447
f 465 447 466
f 466 447 154
f 466 154 463
f 461 466 463
f 461 463 25
f 157 394 469
f 157 469 468
f 394 93 410
f 394 410 469
f 469 410 158
f 469 158 467
f 468 469 467
f 468 467 26
f 26 467 472
f 26 472 471
f 467 158 415
f 467 415 472
f 472 415 94
f 472 94 470
f 471 472 470
f 471 470 205
f 26 473 474
f 26 474 468
f 473 156 455
f 473 455 474
f 474 455 88
f 474 88 397
f 468 474 397
f 468 397 157
f 205 475 476
f 205 476 471
f 475 90 459
f 475 459 476
f 476 459 156
f 476 156 473
f 471 476 473
f 471 473 26
f 205 470 480
f 205 480 479
f 470 94 477
f 470 477 480
f 480 477 159
f 480 159 478
f 479 480 478
f 479 478 27
f 27 478 484
f 27 484 483
f 478 159 481
f 478 481 484
f 484 481 95
f 484 95 482
f 483 484 482
f 483 482 183
f 27 483 488
f 27 488 487
f 483 183 485
f 483 485 488
f 488 485 89
f 488 89 486
f 487 488 486
f 487 486 164
f 164 489 490
f 164 490 487
f 489 90 475
f 489 475 490
f 490 475 205
f 490 205 479
f 487 490 479
f 487 479 27
f 206 407 494
f 206 494 493
f 407 92 491
f 407 491 494
f 494 491 160
f 494 160 492
f 493 494 492
f 493 492 28
f 28 492 498
f 28 498 497
f 492 160 495
f 492 495 498
f 498 495 96
f 498 96 496
f 497 498 496
f 497 496 184
f 28 497 501
f 28 501 500
f 497 184 499
f 497 499 501
f 501 499 95
f 501 95 481
f 500 501 481
f 500 481 159
f 159 477 502
f 159 502 500
f 477 94 414
f 477 414 502
f 502 414 206
f 502 206 493
f 500 502 493
f 500 493 28
f 201 422 506
f 201 506 505
f 422 80 503
f 422 503 506
f 506 503 161
f 506 161 504
f 505 506 504
f 505 504 29
f 29 504 510
f 29 510 509
f 504 161 507
f 504 507 510
f 510 507 81
f 510 81 508
f 509 510 508
f 509 508 185
f 29 509 513
f 29 513 512
f 509 185 511
f 509 511 513
f 513 511 96
f 513 96 495
f 512 513 495
f 512 495 160
f 160 491 514
f 160 514 512
f 491 92 427
f 491 427 514
f 514 427 201
f 514 201 505
f 512 514 505
f 512 505 29
f 202 435 518
f 202 518 517
f 435 83 515
f 435 515 518
f 518 515 162
f 518 162 516
f 517 518 516
f 517 516 30
f 30 516 522
f 30 522 521
f 516 162 519
f 516 519 522
f 522 519 84
f 522 84 520
f 521 522 520
f 521 520 186
f 30 521 525
f 30 525 524
f 521 186 523
f 521 523 525
f 525 523 81
f 525 81 507
f 524 525 507
f 524 507 161
f 161 503 526
f 161 526 524
f 503 80 441
f 503 441 526
f 526 441 202
f 526 202 517
f 524 526 517
f 524 517 30
f 203 448 530
f 203 530 529
f 448 86 527
f 448 527 530
f 530 527 163
f 530 163 528
f 529 530 528
f 529 528 31
f 31 528 534
f 31 534 533
f 528 163 531
f 528 531 534
f 534 531 87
f 534 87 532
f 533 534 532
f 533 532 187
f 31 533 537
f 31 537 536
f 533 187 535
f 533 535 537
f 537 535 84
f 537 84 519
f 536 537 519
f 536 519 162
f 162 515 538
f 162 538 536
f 515 83 453
f 515 453 538
f 538 453 203
f 538 203 529
f 536 538 529
f 536 529 31
f 32 539 542
f 32 542 541
f 539 164 486
f 539 486 542
f 542 486 89
f 542 89 540
f 541 542 540
f 541 540 188
f 204 460 544
f 204 544 543
f 460 90 489
f 460 489 544
f 544 489 164
f 544 164 539
f 543 544 539
f 543 539 32
f 32 541 547
f 32 547 546
f 541 188 545
f 541 545 547
f 547 545 87
f 547 87 531
f 546 547 531
f 546 531 163
f 163 527 548
f 163 548 546
f 527 86 465
f 527 465 548
f 548 465 204
f 548 204 543
f 546 548 543
f 546 543 32
f 33 549 553
f 33 553 552
f 549 165 550
f 549 550 553
f 553 550 73
f 553 73 551
f 552 553 551
f 552 551 189
f 183 482 556
f 183 556 555
f 482 95 554
f 482 554 556
f 556 554 165
f 556 165 549
f 555 556 549
f 555 549 33
f 33 552 560
f 33 560 559
f 552 189 557
f 552 557 560
f 560 557 78
f 560 78 558
f 559 560 558
f 559 558 170
f 33 559 562
f 33 562 555
f 559 170 561
f 559 561 562
f 562 561 89
f 562 89 485
f 555 562 485
f 555 485 183
f 34 563 567
f 34 567 566
f 563 166 564
f 563 564 567
f 567 564 74
f 567 74 565
f 566 567 565
f 566 565 190
f 184 496 570
f 184 570 569
f 496 96 568
f 496 568 570
f 570 568 166
f 570 166 563
f 569 570 563
f 569 563 34
f 34 566 573
f 34 573 572
f 566 190 571
f 566 571 573
f 573 571 73
f 573 73 550
f 572 573 550
f 572 550 165
f 34 572 574
f 34 574 569
f 572 165 554
f 572 554 574
f 574 554 95
f 574 95 499
f 569 574 499
f 569 499 184
f 35 575 579
f 35 579 578
f 575 167 576
f 575 576 579
f 579 576 75
f 579 75 577
f 578 579 577
f 578 577 191
f 185 508 582
f 185 582 581
f 508 81 580
f 508 580 582
f 582 580 167
f 582 167 575
f 581 582 575
f 581 575 35
f 35 578 585
f 35 585 584
f 578 191 583
f 578 583 585
f 585 583 74
f 585 74 564
f 584 585 564
f 584 564 166
f 35 584 586
f 35 586 581
f 584 166 568
f 584 568 586
f 586 568 96
f 586 96 511
f 581 586 511
f 581 511 185
f 36 587 591
f 36 591 590
f 587 168 588
f 587 588 591
f 591 588 76
f 591 76 589
f 590 591 589
f 590 589 192
f 186 520 594
f 186 594 593
f 520 84 592
f 520 592 594
f 594 592 168
f 594 168 587
f 593 594 587
f 593 587 36
f 36 590 597
f 36 597 596
f 590 192 595
f 590 595 597
f 597 595 75
f 597 75 576
f 596 597 576
f 596 576 167
f 36 596 598
f 36 598 593
f 596 167 580
f 596 580 598
f 598 580 81
f 598 81 523
f 593 598 523
f 593 523 186
f 37 599 603
f 37 603 602
f 599 169 600
f 599 600 603
f 603 600 77
f 603 77 601
f 602 603 601
f 602 601 193
f 187 532 606
f 187 606 605
f 532 87 604
f 532 604 606
f 606 604 169
f 606 169 599
f 605 606 599
f 605 599 37
f 37 602 609
f 37 609 608
f 602 193 607
f 602 607 609
f 609 607 76
f 609 76 588
f 608 609 588
f 608 588 168
f 37 608 610
f 37 610 605
f 608 168 592
f 608 592 610
f 610 592 84
f 610 84 535
f 605 610 535
f 605 535 187
f 38 611 614
f 38 614 613
f 611 170 558
f 611 558 614
f 614 558 78
f 614 78 612
f 613 614 612
f 613 612 194
f 188 540 616
f 188 616 615
f 540 89 561
f 540 561 616
f 616 561 170
f 616 170 611
f 615 616 611
f 615 611 38
f 38 613 619
f 38 619 618
f 613 194 617
f 613 617 619
f 619 617 77
f 619 77 600
f 618 619 600
f 618 600 169
f 38 618 620
f 38 620 615
f 618 169 604
f 618 604 620
f 620 604 87
f 620 87 545
f 615 620 545
f 615 545 188
f 189 551 624
f 189 624 623
f 551 73 621
f 551 621 624
f 624 621 171
f 624 171 622
f 623 624 622
f 623 622 39
f 39 622 628
f 39 628 627
f 622 171 625
f 622 625 628
f 628 625 100
f 628 100 626
f 627 628 626
f 627 626 195
f 39 627 632
f 39 632 631
f 627 195 629
f 627 629 632
f 632 629 98
f 632 98 630
f 631 632 630
f 631 630 176
f 39 631 634
f 39 634 623
f 631 176 633
f 631 633 634
f 634 633 78
f 634 78 557
f 623 634 557
f 623 557 189
f 190 565 638
f 190 638 637
f 565 74 635
f 565 635 638
f 638 635 172
f 638 172 636
f 637 638 636
f 637 636 40
f 40 636 642
f 40 642 641
f 636 172 639
f 636 639 642
f 642 639 101
f 642 101 640
f 641 642 640
f 641 640 196
f 40 641 645
f 40 645 644
f 641 196 643
f 641 643 645
f 645 643 100
f 645 100 625
f 644 645 625
f 644 625 171
f 40 644 646
f 40 646 637
f 644 171 621
f 644 621 646
f 646 621 73
f 646 73 571
f 637 646 571
f 637 571 190
f 191 577 650
f 191 650 649
f 577 75 647
f 577 647 650
f 650 647 173
f 650 173 648
f 649 650 648
f 649 648 41
f 41 648 654
f 41 654 653
f 648 173 651
f 648 651 654
f 654 651 102
f 654 102 652
f 653 654 652
f 653 652 197
f 41 653 657
f 41 657 656
f 653 197 655
f 653 655 657
f 657 655 101
f 657 101 639
f 656 657 639
f 656 639 172
f 41 656 658
f 41 658 649
f 656 172 635
f 656 635 658
f 658 635 74
f 658 74 583
f 649 658 583
f 649 583 191
f 192 589 662
f 192 662 661
f 589 76 659
f 589 659 662
f 662 659 174
f 662 174 660
f 661 662 660
f 661 660 42
f 42 660 666
f 42 666 665
f 660 174 663
f 660 663 666
f 666 663 99
f 666 99 664
f 665 666 664
f 665 664 198
f 42 665 669
f 42 669 668
f 665 198 667
f 665 667 669
f 669 667 102
f 669 102 651
f 668 669 651
f 668 651 173
f 42 668 670
f 42 670 661
f 668 173 647
f 668 647 670
f 670 647 75
f 670 75 595
f 661 670 595
f 661 595 192
f 193 601 674
f 193 674 673
f 601 77 671
f 601 671 674
f 674 671 175
f 674 175 672
f 673 674 672
f 673 672 43
f 43 672 678
f 43 678 677
f 672 175 675
f 672 675 678
f 678 675 97
f 678 97 676
f 677 678 676
f 677 676 199
f 43 677 681
f 43 681 680
f 677 199 679
f 677 679 681
f 681 679 99
f 681 99 663
f 680 681 663
f 680 663 174
f 43 680 682
f 43 682 673
f 680 174 659
f 680 659 682
f 682 659 76
f 682 76 607
f 673 682 607
f 673 607 193
f 194 612 685
f 194 685 684
f 612 78 633
f 612 633 685
f 685 633 176
f 685 176 683
f 684 685 683
f 684 683 44
f 44 683 688
f 44 688 687
f 683 176 630
f 683 630 688
f 688 630 98
f 688 98 686
f 687 688 686
f 687 686 200
f 44 687 691
f 44 691 690
f 687 200 689
f 687 689 691
f 691 689 97
f 691 97 675
f 690 691 675
f 690 675 175
f 44 690 692
f 44 692 684
f 690 175 671
f 690 671 692
f 692 671 77
f 692 77 617
f 684 692 617
f 684 617 194
f 195 626 696
f 195 696 695
f 626 100 693
f 626 693 696
f 696 693 177
f 696 177 694
f 695 696 694
f 695 694 45
f 45 694 700
f 45 700 699
f 694 177 697
f 694 697 700
f 700 697 109
f 700 109 698
f 699 700 698
f 699 698 211
f 45 699 704
f 45 704 703
f 699 211 701
f 699 701 704
f 704 701 107
f 704 107 702
f 703 704 702
f 703 702 182
f 45 703 706
f 45 706 695
f 703 182 705
f 703 705 706
f 706 705 98
f 706 98 629
f 695 706 629
f 695 629 195
f 196 640 710
f 196 710 709
f 640 101 707
f 640 707 710
f 710 707 178
f 710 178 708
f 709 710 708
f 709 708 46
f 46 711 714
f 46 714 713
f 711 214 712
f 711 712 714
f 714 712 109
f 714 109 697
f 713 714 697
f 713 697 177
f 46 713 715
f 46 715 709
f 713 177 693
f 713 693 715
f 715 693 100
f 715 100 643
f 709 715 643
f 709 643 196
f 197 652 719
f 197 719 718
f 652 102 716
f 652 716 719
f 719 716 179
f 719 179 717
f 718 719 717
f 718 717 47
f 47 720 721
f 47 721 718
f 720 178 707
f 720 707 721
f 721 707 101
f 721 101 655
f 718 721 655
f 718 655 197
f 198 664 725
f 198 725 724
f 664 99 722
f 664 722 725
f 725 722 180
f 725 180 723
f 724 725 723
f 724 723 48
f 48 723 729
f 48 729 728
f 723 180 726
f 723 726 729
f 729 726 104
f 729 104 727
f 728 729 727
f 728 727 213
f 48 728 733
f 48 733 732
f 728 213 730
f 728 730 733
f 733 730 106
f 733 106 731
f 732 733 731
f 732 731 179
f 48 732 734
f 48 734 724
f 732 179 716
f 732 716 734
f 734 716 102
f 734 102 667
f 724 734 667
f 724 667 198
f 199 676 738
f 199 738 737
f 676 97 735
f 676 735 738
f 738 735 181
f 738 181 736
f 737 738 736
f 737 736 49
f 49 736 742
f 49 742 741
f 736 181 739
f 736 739 742
f 742 739 105
f 742 105 740
f 741 742 740
f 741 740 208
f 49 741 745
f 49 745 744
f 741 208 743
f 741 743 745
f 745 743 104
f 745 104 726
f 744 745 726
f 744 726 180
f 49 744 746
f 49 746 737
f 744 180 722
f 744 722 746
f 746 722 99
f 746 99 679
f 737 746 679
f 737 679 199
f 200 686 749
f 200 749 748
f 686 98 705
f 686 705 749
f 749 705 182
f 749 182 747
f 748 749 747
f 748 747 50
f 50 747 752
f 50 752 751
f 747 182 702
f 747 702 752
f 752 702 107
f 752 107 750
f 751 752 750
f 751 750 207
f 50 751 755
f 50 755 754
f 751 207 753
f 751 753 755
f 755 753 105
f 755 105 739
f 754 755 739
f 754 739 181
f 50 754 756
f 50 756 748
f 754 181 735
f 754 735 756
f 756 735 97
f 756 97 689
f 748 756 689
f 748 689 200
f 1 757 759
f 1 759 758
f 757 147 411
f 757 411 759
f 759 411 93
f 759 93 393
f 758 759 393
f 758 393 146
f 139 361 761
f 139 761 760
f 361 91 401
f 361 401 761
f 761 401 147
f 761 147 757
f 760 761 757
f 760 757 1
f 146 389 764
f 146 764 758
f 389 72 762
f 389 762 764
f 764 762 115
f 764 115 763
f 758 764 763
f 758 763 1
f 112 765 767
f 112 767 766
f 765 66 358
f 765 358 767
f 767 358 139
f 767 139 760
f 766 767 760
f 766 760 1
f 235 873 866
f 235 866 118
f 866 873 236
f 866 236 8
f 8 236 875
f 8 875 868
f 868 875 229
f 868 229 119
f 2 772 774
f 2 774 773
f 772 120 258
f 772 258 774
f 774 258 66
f 774 66 765
f 773 774 765
f 773 765 112
f 119 229 871
f 119 871 825
f 825 871 230
f 825 230 5
f 234 861 857
f 234 857 7
f 857 861 235
f 857 235 118
f 57 247 780
f 57 780 779
f 247 120 772
f 247 772 780
f 780 772 2
f 780 2 778
f 779 780 778
f 779 778 113
f 233 851 847
f 233 847 117
f 847 851 234
f 847 234 7
f 232 843 840
f 232 840 6
f 840 843 233
f 840 233 117
f 3 784 786
f 3 786 785
f 784 126 319
f 784 319 786
f 786 319 57
f 786 57 779
f 785 786 779
f 785 779 113
f 131 332 788
f 131 788 787
f 332 59 315
f 332 315 788
f 788 315 126
f 788 126 784
f 787 788 784
f 787 784 3
f 231 837 835
f 231 835 116
f 835 837 232
f 835 232 6
f 5 230 831
f 5 831 827
f 827 831 231
f 827 231 116
f 65 792 794
f 65 794 793
f 792 225 781
f 792 781 794
f 794 781 224
f 794 224 775
f 793 794 775
f 793 775 223
f 63 336 797
f 63 797 796
f 336 131 787
f 336 787 797
f 797 787 3
f 797 3 795
f 796 797 795
f 796 795 114
f 226 789 800
f 226 800 799
f 789 225 792
f 789 792 800
f 800 792 65
f 800 65 798
f 799 800 798
f 799 798 227
f 227 811 804
f 227 804 114
f 804 811 228
f 804 228 4
f 4 228 813
f 4 813 806
f 806 813 221
f 806 221 115
f 4 803 805
f 4 805 804
f 803 124 284
f 803 284 805
f 805 284 63
f 805 63 796
f 804 805 796
f 804 796 114
f 4 806 807
f 4 807 803
f 806 115 762
f 806 762 807
f 807 762 72
f 807 72 290
f 803 807 290
f 803 290 124
f 115 221 809
f 115 809 763
f 763 809 222
f 763 222 1
f 226 799 795
f 226 795 3
f 795 799 227
f 795 227 114
f 228 811 814
f 228 814 813
f 811 227 798
f 811 798 814
f 814 798 65
f 814 65 812
f 813 814 812
f 813 812 221
f 221 812 815
f 221 815 809
f 812 65 793
f 812 793 815
f 815 793 223
f 815 223 769
f 809 815 769
f 809 769 222
f 225 789 785
f 225 785 113
f 785 789 226
f 785 226 3
f 224 781 778
f 224 778 2
f 778 781 225
f 778 225 113
f 223 775 773
f 223 773 112
f 773 775 224
f 773 224 2
f 1 222 769
f 1 769 766
f 766 769 223
f 766 223 112
f 145 375 821
f 145 821 820
f 375 82 429
f 375 429 821
f 821 429 151
f 821 151 819
f 820 821 819
f 820 819 5
f 5 819 823
f 5 823 822
f 819 151 439
f 819 439 823
f 823 439 79
f 823 79 353
f 822 823 353
f 822 353 138
f 138 349 826
f 138 826 822
f 349 67 824
f 349 824 826
f 826 824 119
f 826 119 825
f 822 826 825
f 822 825 5
f 69 372 829
f 69 829 828
f 372 145 820
f 372 820 829
f 829 820 5
f 829 5 827
f 828 829 827
f 828 827 116
f 777 768 914
f 777 914 110
f 768 903 220
f 768 220 914
f 771 108 903
f 771 903 768
f 243 771 768
f 243 768 777
f 6 834 836
f 6 836 835
f 834 122 303
f 834 303 836
f 836 303 69
f 836 69 828
f 835 836 828
f 835 828 116
f 808 770 771
f 808 771 243
f 770 941 108
f 770 108 771
f 872 219 941
f 872 941 770
f 111 872 770
f 111 770 808
f 64 297 842
f 64 842 841
f 297 122 834
f 297 834 842
f 842 834 6
f 842 6 840
f 841 842 840
f 841 840 117
f 802 776 783
f 802 783 56
f 776 930 217
f 776 217 783
f 777 110 930
f 777 930 776
f 243 777 776
f 243 776 802
f 7 846 848
f 7 848 847
f 846 129 329
f 846 329 848
f 848 329 64
f 848 64 841
f 847 848 841
f 847 841 117
f 128 308 850
f 128 850 849
f 308 58 321
f 308 321 850
f 850 321 129
f 850 129 846
f 849 850 846
f 849 846 7
f 783 782 791
f 783 791 56
f 782 934 238
f 782 238 791
f 936 244 934
f 936 934 782
f 217 936 782
f 217 782 783
f 68 854 856
f 68 856 855
f 854 233 843
f 854 843 856
f 856 843 232
f 856 232 837
f 855 856 837
f 855 837 231
f 60 312 859
f 60 859 858
f 312 128 849
f 312 849 859
f 859 849 7
f 859 7 857
f 858 859 857
f 858 857 118
f 234 851 862
f 234 862 861
f 851 233 854
f 851 854 862
f 862 854 68
f 862 68 860
f 861 862 860
f 861 860 235
f 791 790 810
f 791 810 56
f 790 830 218
f 790 218 810
f 927 239 830
f 927 830 790
f 238 927 790
f 238 790 791
f 8 865 867
f 8 867 866
f 865 121 253
f 865 253 867
f 867 253 60
f 867 60 858
f 866 867 858
f 866 858 118
f 8 868 869
f 8 869 865
f 868 119 824
f 868 824 869
f 869 824 67
f 869 67 260
f 865 869 260
f 865 260 121
f 802 801 808
f 802 808 243
f 801 838 111
f 801 111 808
f 810 218 838
f 810 838 801
f 56 810 801
f 56 801 802
f 236 873 876
f 236 876 875
f 873 235 860
f 873 860 876
f 876 860 68
f 876 68 874
f 875 876 874
f 875 874 229
f 229 874 877
f 229 877 871
f 874 68 855
f 874 855 877
f 877 855 231
f 877 231 831
f 871 877 831
f 871 831 230
f 818 816 839
f 818 839 246
f 816 879 245
f 816 245 839
f 863 212 879
f 863 879 816
f 54 863 816
f 54 816 818
f 833 817 818
f 833 818 246
f 817 845 54
f 817 54 818
f 830 239 845
f 830 845 817
f 218 830 817
f 218 817 833
f 216 881 883
f 216 883 882
f 881 47 717
f 881 717 883
f 883 717 179
f 883 179 731
f 882 883 731
f 882 731 106
f 109 712 887
f 109 887 886
f 712 214 884
f 712 884 887
f 887 884 55
f 887 55 885
f 886 887 885
f 886 885 215
f 215 888 890
f 215 890 886
f 888 53 889
f 888 889 890
f 890 889 211
f 890 211 698
f 886 890 698
f 886 698 109
f 51 891 894
f 51 894 893
f 891 209 892
f 891 892 894
f 894 892 105
f 894 105 753
f 893 894 753
f 893 753 207
f 51 895 899
f 51 899 898
f 895 210 896
f 895 896 899
f 899 896 53
f 899 53 897
f 898 899 897
f 898 897 241
f 207 750 901
f 207 901 893
f 750 107 900
f 750 900 901
f 901 900 210
f 901 210 895
f 893 901 895
f 893 895 51
f 241 902 905
f 241 905 898
f 902 220 903
f 902 903 905
f 905 903 108
f 905 108 904
f 898 905 904
f 898 904 51
f 209 906 908
f 209 908 892
f 906 52 907
f 906 907 908
f 908 907 208
f 908 208 740
f 892 908 740
f 892 740 105
f 107 701 909
f 107 909 900
f 701 211 889
f 701 889 909
f 909 889 53
f 909 53 896
f 900 909 896
f 900 896 210
f 241 897 912
f 241 912 911
f 897 53 888
f 897 888 912
f 912 888 215
f 912 215 910
f 911 912 910
f 911 910 242
f 241 911 915
f 241 915 902
f 911 242 913
f 911 913 915
f 915 913 110
f 915 110 914
f 902 915 914
f 902 914 220
f 242 910 918
f 242 918 917
f 910 215 885
f 910 885 918
f 918 885 55
f 918 55 916
f 917 918 916
f 917 916 237
f 103 919 921
f 103 921 920
f 919 214 711
f 919 711 921
f 921 711 46
f 921 46 708
f 920 921 708
f 920 708 178
f 237 916 923
f 237 923 922
f 916 55 884
f 916 884 923
f 923 884 214
f 923 214 919
f 922 923 919
f 922 919 103
f 103 920 925
f 103 925 924
f 920 178 720
f 920 720 925
f 925 720 47
f 925 47 881
f 924 925 881
f 924 881 216
f 216 882 929
f 216 929 928
f 882 106 926
f 882 926 929
f 929 926 239
f 929 239 927
f 928 929 927
f 928 927 238
f 217 930 932
f 217 932 931
f 930 110 913
f 930 913 932
f 932 913 242
f 932 242 917
f 931 932 917
f 931 917 237
f 244 933 935
f 244 935 934
f 933 103 924
f 933 924 935
f 935 924 216
f 935 216 928
f 934 935 928
f 934 928 238
f 217 931 937
f 217 937 936
f 931 237 922
f 931 922 937
f 937 922 103
f 937 103 933
f 936 937 933
f 936 933 244
f 240 938 940
f 240 940 939
f 938 52 906
f 938 906 940
f 940 906 209
f 940 209 891
f 939 940 891
f 939 891 51
f 51 904 943
f 51 943 939
f 904 108 941
f 904 941 943
f 943 941 219
f 943 219 942
f 939 943 942
f 939 942 240
f 104 743 946
f 104 946 945
f 743 208 907
f 743 907 946
f 946 907 52
f 946 52 944
f 945 946 944
f 945 944 212
f 212 944 878
f 212 878 879
f 944 52 938
f 944 938 878
f 878 938 240
f 878 240 880
f 879 878 880
f 879 880 245
f 245 880 864
f 245 864 870
f 880 240 942
f 880 942 864
f 864 942 219
f 864 219 872
f 870 864 872
f 870 872 111
f 213 727 852
f 213 852 853
f 727 104 945
f 727 945 852
f 852 945 212
f 852 212 863
f 853 852 863
f 853 863 54
f 239 926 844
f 239 844 845
f 926 106 730
f 926 730 844
f 844 730 213
f 844 213 853
f 845 844 853
f 845 853 54
f 246 839 832
f 246 832 833
f 839 245 870
f 839 870 832
f 832 870 111
f 832 111 838
f 833 832 838
f 833 838 218
