# _4th_Proximal_Phalanges_Hand_R posed
v -0.866267 0.180442 0.404141
v -0.865572 0.179677 0.400079
v -0.864734 0.180941 0.399672
v -0.863213 0.180556 0.397576
v -0.861366 0.180021 0.397732
v -0.861665 0.178233 0.398522
v -0.863050 0.177376 0.400325
v -0.864593 0.177360 0.399993
v -0.865604 0.178563 0.401124
v -0.863746 0.178697 0.397623
v -0.865757 0.181629 0.403724
v -0.865918 0.179159 0.404238
v -0.866293 0.180338 0.407846
v -0.866329 0.178962 0.407182
v -0.865230 0.181600 0.407138
v -0.863906 0.181138 0.408263
v -0.864756 0.179651 0.408694
v -0.865409 0.177921 0.407945
v -0.863044 0.178937 0.407190
v -0.863934 0.177983 0.406806
v -0.862532 0.180386 0.406887
v -0.862147 0.178826 0.403048
v -0.863508 0.177855 0.403599
v -0.865147 0.177727 0.404083
v -0.861836 0.180202 0.402626
v -0.862546 0.182290 0.397682
v -0.864012 0.182809 0.399700
v -0.861065 0.181676 0.398009
v -0.864727 0.183213 0.402847
v -0.864154 0.183121 0.405386
v -0.863008 0.182677 0.406021
v -0.861909 0.182127 0.405090
v -0.860977 0.181717 0.401751
v -0.861340 0.185233 0.404423
v -0.862723 0.185724 0.403530
v -0.863071 0.185745 0.401328
v -0.862526 0.185501 0.398881
v -0.861159 0.184952 0.396811
v -0.859580 0.184366 0.396943
v -0.859053 0.184240 0.399549
v -0.859742 0.184613 0.402537
v -0.859419 0.188578 0.403347
v -0.861155 0.189124 0.401945
v -0.861368 0.189102 0.399426
v -0.860809 0.188845 0.396965
v -0.859416 0.188302 0.394820
v -0.857737 0.187679 0.395001
v -0.857010 0.187494 0.397307
v -0.857526 0.187795 0.400630
v -0.857768 0.191669 0.401387
v -0.859473 0.192237 0.400127
v -0.859803 0.192247 0.397707
v -0.859179 0.191946 0.395091
v -0.857735 0.191359 0.392901
v -0.855970 0.190713 0.392957
v -0.855368 0.190582 0.395566
v -0.855839 0.190915 0.399013
v -0.855880 0.194753 0.401211
v -0.858241 0.195486 0.399801
v -0.858990 0.195598 0.396799
v -0.857943 0.195079 0.393322
v -0.855935 0.194307 0.390331
v -0.853283 0.193350 0.389915
v -0.853190 0.193619 0.394044
v -0.853305 0.193851 0.398333
v -0.858755 0.197230 0.396307
v -0.857606 0.196698 0.391855
v -0.854886 0.196181 0.387989
v -0.851772 0.195567 0.387999
v -0.852513 0.195622 0.393082
v -0.851529 0.196089 0.398236
v -0.854915 0.196697 0.401858
v -0.857878 0.197110 0.400007
v -0.857728 0.198129 0.395513
v -0.857321 0.198031 0.398761
v -0.855176 0.198097 0.399065
v -0.852698 0.197588 0.397119
v -0.853346 0.196935 0.393183
v -0.852945 0.197244 0.389495
v -0.854847 0.197974 0.389434
v -0.857230 0.198103 0.391820
v -0.855557 0.197904 0.394288
v -0.863095 0.178358 0.405314
v -0.864953 0.178515 0.399348
v -0.865951 0.179158 0.408554
v -0.864276 0.178433 0.408327
v -0.864046 0.177251 0.401891
v -0.865460 0.178163 0.402359
v -0.865983 0.179481 0.402417
v -0.866370 0.179728 0.405957
v -0.865916 0.178378 0.406039
v -0.864486 0.177645 0.405758
v -0.863038 0.177478 0.398264
v -0.862429 0.177977 0.401354
v -0.862274 0.179234 0.396687
v -0.864394 0.179924 0.398257
v -0.865702 0.180697 0.401757
v -0.866109 0.181104 0.406043
v -0.865165 0.180723 0.408618
v -0.863547 0.179974 0.408301
v -0.862300 0.179531 0.405216
v -0.861324 0.179228 0.400123
v -0.859321 0.186504 0.402990
v -0.859695 0.190517 0.402184
v -0.860585 0.190727 0.399792
v -0.860415 0.190578 0.397248
v -0.859388 0.190159 0.394845
v -0.857675 0.189493 0.393571
v -0.856369 0.189049 0.395024
v -0.856239 0.189098 0.398034
v -0.857406 0.189663 0.401500
v -0.865054 0.182094 0.401403
v -0.863784 0.184247 0.400806
v -0.862062 0.187328 0.399211
v -0.863702 0.181536 0.398598
v -0.862752 0.183823 0.398236
v -0.861088 0.186932 0.396811
v -0.862174 0.181060 0.397482
v -0.861134 0.183161 0.397064
v -0.859400 0.186284 0.395546
v -0.861205 0.180712 0.399879
v -0.859981 0.182762 0.398905
v -0.858154 0.185857 0.397077
v -0.861987 0.180999 0.404476
v -0.860370 0.183011 0.402400
v -0.858141 0.185945 0.399958
v -0.862994 0.181518 0.407048
v -0.861565 0.183560 0.404740
v -0.865198 0.182420 0.405104
v -0.863846 0.184374 0.403424
v -0.864066 0.182023 0.406812
v -0.862933 0.184097 0.405033
v -0.861333 0.187236 0.403606
v -0.862209 0.187449 0.401630
v -0.858835 0.193786 0.395639
v -0.857736 0.193294 0.392856
v -0.855727 0.192489 0.391135
v -0.854354 0.192115 0.393060
v -0.854459 0.192381 0.396601
v -0.855600 0.192892 0.399989
v -0.857904 0.193674 0.400581
v -0.859057 0.193998 0.398455
v -0.858694 0.196619 0.398475
v -0.856918 0.196170 0.401164
v -0.853410 0.195354 0.400866
v -0.851958 0.194725 0.395583
v -0.852123 0.194520 0.390884
v -0.853791 0.194873 0.388115
v -0.856639 0.195718 0.390669
v -0.858567 0.196381 0.394460
v -0.858266 0.197792 0.397931
v -0.856550 0.197718 0.400791
v -0.853039 0.197504 0.399943
v -0.852337 0.196599 0.394922
v -0.852202 0.196537 0.390523
v -0.853413 0.196808 0.387962
v -0.856318 0.197382 0.389451
v -0.858194 0.197626 0.393872
v -0.856630 0.198118 0.397197
v -0.856499 0.198256 0.392500
v -0.854351 0.197599 0.395994
v -0.854101 0.197582 0.391198
v -0.865973 0.180140 0.402092
v -0.865108 0.180271 0.399777
v -0.864009 0.180714 0.398405
v -0.862307 0.180249 0.397106
v -0.861258 0.179077 0.397750
v -0.862404 0.177659 0.399509
v -0.863632 0.177130 0.399945
v -0.865254 0.178032 0.400539
v -0.865726 0.178967 0.400569
v -0.863441 0.179600 0.397112
v -0.864082 0.178002 0.398538
v -0.864786 0.179158 0.398538
v -0.862505 0.178226 0.397138
v -0.866063 0.181056 0.403966
v -0.865375 0.181314 0.401511
v -0.866143 0.179752 0.404208
v -0.865737 0.178878 0.402530
v -0.866462 0.180468 0.406117
v -0.866484 0.179519 0.407578
v -0.866115 0.179092 0.405878
v -0.865645 0.181714 0.405715
v -0.865813 0.181013 0.407695
v -0.864619 0.181439 0.408075
v -0.865577 0.179992 0.408635
v -0.864338 0.180370 0.408658
v -0.865158 0.178804 0.408732
v -0.866128 0.178429 0.407807
v -0.864527 0.177842 0.407442
v -0.863876 0.179247 0.408416
v -0.863538 0.178343 0.407076
v -0.863199 0.180732 0.407941
v -0.862723 0.179637 0.407218
v -0.861701 0.178538 0.400754
v -0.863242 0.177569 0.401770
v -0.862752 0.178252 0.403337
v -0.863754 0.177933 0.405468
v -0.862586 0.178908 0.405252
v -0.864321 0.177596 0.403831
v -0.864923 0.177403 0.402104
v -0.865378 0.177610 0.406105
v -0.865669 0.178476 0.404204
v -0.861903 0.179506 0.402815
v -0.861295 0.179982 0.399890
v -0.862175 0.180239 0.404996
v -0.862939 0.181345 0.397841
v -0.864435 0.181761 0.399727
v -0.863317 0.182592 0.398522
v -0.861407 0.180766 0.397954
v -0.861744 0.181964 0.397407
v -0.864522 0.183061 0.401223
v -0.865326 0.182358 0.403329
v -0.864610 0.183255 0.404321
v -0.864665 0.182243 0.406298
v -0.863571 0.182904 0.405865
v -0.863513 0.181808 0.407079
v -0.862490 0.182414 0.405875
v -0.862406 0.181195 0.406202
v -0.861383 0.181880 0.403643
v -0.861600 0.180878 0.402343
v -0.860789 0.181585 0.399677
v -0.862153 0.185551 0.404229
v -0.863025 0.185791 0.402519
v -0.862906 0.185643 0.400089
v -0.861946 0.185269 0.397751
v -0.860313 0.184626 0.396501
v -0.859092 0.184211 0.398036
v -0.859259 0.184373 0.401074
v -0.860449 0.184920 0.403742
v -0.860526 0.188948 0.403022
v -0.861371 0.189147 0.400629
v -0.861194 0.189004 0.398196
v -0.860207 0.188606 0.395786
v -0.858490 0.187951 0.394506
v -0.857215 0.187508 0.396004
v -0.857114 0.187579 0.398950
v -0.858277 0.188124 0.402297
v -0.858766 0.192022 0.401028
v -0.859801 0.192290 0.398998
v -0.859603 0.192125 0.396393
v -0.858562 0.191691 0.393902
v -0.856772 0.190988 0.392460
v -0.855494 0.190566 0.394058
v -0.855470 0.190699 0.397244
v -0.856595 0.191220 0.400618
v -0.857276 0.195193 0.400931
v -0.858805 0.195632 0.398427
v -0.858676 0.195409 0.395000
v -0.857058 0.194739 0.391783
v -0.854620 0.193799 0.389419
v -0.853012 0.193415 0.391874
v -0.853102 0.193716 0.396086
v -0.854382 0.194289 0.400300
v -0.860364 0.186903 0.403854
v -0.861919 0.187395 0.402718
v -0.862242 0.187422 0.400437
v -0.861674 0.187174 0.397978
v -0.860305 0.186624 0.395863
v -0.858645 0.186014 0.396031
v -0.858016 0.185847 0.398434
v -0.858576 0.186177 0.401530
v -0.858595 0.190139 0.402533
v -0.860337 0.190695 0.401073
v -0.860598 0.190685 0.398522
v -0.859999 0.190401 0.396004
v -0.858593 0.189845 0.393910
v -0.856883 0.189227 0.394031
v -0.856157 0.189018 0.396412
v -0.856633 0.189313 0.399763
v -0.856778 0.193296 0.400805
v -0.858710 0.193924 0.399731
v -0.859048 0.193912 0.397025
v -0.858402 0.193595 0.394201
v -0.856804 0.192898 0.391725
v -0.854770 0.192176 0.391723
v -0.854321 0.192213 0.394760
v -0.854771 0.192568 0.398450
v -0.863941 0.184343 0.402156
v -0.863379 0.184075 0.399469
v -0.861948 0.183512 0.397313
v -0.860395 0.182895 0.397598
v -0.860058 0.182842 0.400710
v -0.860926 0.183270 0.403782
v -0.862274 0.183842 0.405178
v -0.863492 0.184294 0.404427
v -0.858929 0.196594 0.396550
v -0.857692 0.196005 0.392502
v -0.858450 0.197020 0.394107
v -0.856507 0.196563 0.389544
v -0.855321 0.195335 0.389059
v -0.853355 0.195851 0.387503
v -0.852294 0.194441 0.388611
v -0.851727 0.195563 0.390336
v -0.852585 0.194738 0.393504
v -0.851763 0.195712 0.395055
v -0.851958 0.194923 0.398568
v -0.853013 0.196424 0.400708
v -0.855283 0.195790 0.401743
v -0.856726 0.196961 0.401379
v -0.857988 0.196446 0.399917
v -0.858573 0.197264 0.398358
v -0.858401 0.197771 0.395982
v -0.857655 0.197774 0.399507
v -0.857608 0.198101 0.397416
v -0.856473 0.198116 0.399178
v -0.854849 0.197675 0.400977
v -0.853645 0.197902 0.398331
v -0.851785 0.197216 0.397676
v -0.853241 0.197151 0.395103
v -0.852798 0.196362 0.393012
v -0.853118 0.197126 0.391022
v -0.852263 0.196797 0.388661
v -0.853686 0.197551 0.389137
v -0.854757 0.197077 0.388232
v -0.856284 0.198221 0.390544
v -0.857510 0.197563 0.391685
v -0.857558 0.198166 0.393426
v -0.855494 0.197928 0.396791
v -0.854341 0.197457 0.393668
v -0.855244 0.197999 0.391613
v -0.856739 0.198117 0.394977
f 2 164 96
f 2 96 174
f 163 97 164
f 163 164 2
f 171 89 163
f 171 163 2
f 174 84 171
f 174 171 2
f 3 165 96
f 3 96 164
f 208 115 165
f 208 165 3
f 177 112 208
f 177 208 3
f 3 164 97
f 3 97 177
f 4 166 95
f 4 95 172
f 207 118 166
f 207 166 4
f 165 115 207
f 165 207 4
f 172 96 165
f 172 165 4
f 5 167 95
f 5 95 166
f 205 102 167
f 205 167 5
f 166 118 210
f 166 210 5
f 5 210 121
f 5 121 205
f 6 168 93
f 6 93 175
f 195 94 168
f 195 168 6
f 167 102 195
f 167 195 6
f 175 95 167
f 175 167 6
f 196 87 169
f 196 169 7
f 7 169 93
f 7 93 168
f 168 94 196
f 168 196 7
f 8 170 84
f 8 84 173
f 201 88 170
f 201 170 8
f 169 87 201
f 169 201 8
f 173 93 169
f 173 169 8
f 9 171 84
f 9 84 170
f 179 89 171
f 179 171 9
f 9 170 88
f 9 88 179
f 11 177 97
f 11 97 176
f 213 112 177
f 213 177 11
f 176 98 183
f 176 183 11
f 11 183 129
f 11 129 213
f 12 179 88
f 12 88 203
f 178 89 179
f 178 179 12
f 12 182 90
f 12 90 178
f 203 91 182
f 203 182 12
f 13 181 85
f 13 85 186
f 180 90 181
f 180 181 13
f 13 184 98
f 13 98 180
f 186 99 184
f 186 184 13
f 14 189 85
f 14 85 181
f 182 91 189
f 182 189 14
f 14 181 90
f 14 90 182
f 184 99 185
f 184 185 15
f 15 185 131
f 15 131 215
f 15 215 129
f 15 129 183
f 15 183 98
f 15 98 184
f 185 99 187
f 185 187 16
f 16 187 100
f 16 100 193
f 16 193 127
f 16 127 217
f 16 217 131
f 16 131 185
f 186 85 188
f 186 188 17
f 17 188 86
f 17 86 191
f 17 191 100
f 17 100 187
f 187 99 186
f 187 186 17
f 18 190 86
f 18 86 188
f 202 92 190
f 202 190 18
f 18 188 85
f 18 85 189
f 18 189 91
f 18 91 202
f 19 192 83
f 19 83 199
f 191 86 192
f 191 192 19
f 19 194 100
f 19 100 191
f 199 101 194
f 199 194 19
f 192 86 190
f 192 190 20
f 20 190 92
f 20 92 198
f 198 83 192
f 198 192 20
f 206 124 219
f 206 219 21
f 21 219 127
f 21 127 193
f 21 193 100
f 21 100 194
f 21 194 101
f 21 101 206
f 199 83 197
f 199 197 22
f 22 197 94
f 22 94 195
f 204 101 199
f 204 199 22
f 195 102 204
f 195 204 22
f 197 83 198
f 197 198 23
f 23 198 92
f 23 92 200
f 23 200 87
f 23 87 196
f 23 196 94
f 23 94 197
f 24 202 91
f 24 91 203
f 200 92 202
f 200 202 24
f 24 203 88
f 24 88 201
f 201 87 200
f 201 200 24
f 204 102 205
f 204 205 25
f 25 205 121
f 25 121 221
f 25 206 101
f 25 101 204
f 221 124 206
f 221 206 25
f 207 115 209
f 207 209 26
f 26 209 116
f 26 116 281
f 26 211 118
f 26 118 207
f 281 119 211
f 281 211 26
f 208 112 212
f 208 212 27
f 27 212 113
f 27 113 280
f 209 115 208
f 209 208 27
f 280 116 209
f 280 209 27
f 28 210 118
f 28 118 211
f 222 121 210
f 222 210 28
f 28 211 119
f 28 119 282
f 282 122 222
f 282 222 28
f 213 129 214
f 213 214 29
f 29 214 130
f 29 130 279
f 29 212 112
f 29 112 213
f 279 113 212
f 279 212 29
f 215 131 216
f 215 216 30
f 30 216 132
f 30 132 286
f 30 286 130
f 30 130 214
f 30 214 129
f 30 129 215
f 217 127 218
f 217 218 31
f 31 218 128
f 31 128 285
f 31 216 131
f 31 131 217
f 285 132 216
f 285 216 31
f 219 124 220
f 219 220 32
f 32 220 125
f 32 125 284
f 32 284 128
f 32 128 218
f 32 218 127
f 32 127 219
f 221 121 222
f 221 222 33
f 33 222 122
f 33 122 283
f 33 283 125
f 33 125 220
f 33 220 124
f 33 124 221
f 34 223 132
f 34 132 285
f 255 133 223
f 255 223 34
f 230 103 255
f 230 255 34
f 34 285 128
f 34 128 230
f 35 224 130
f 35 130 286
f 256 134 224
f 256 224 35
f 223 133 256
f 223 256 35
f 286 132 223
f 286 223 35
f 36 225 113
f 36 113 279
f 257 114 225
f 257 225 36
f 224 134 257
f 224 257 36
f 36 279 130
f 36 130 224
f 37 226 116
f 37 116 280
f 258 117 226
f 258 226 37
f 225 114 258
f 225 258 37
f 37 280 113
f 37 113 225
f 38 227 119
f 38 119 281
f 259 120 227
f 259 227 38
f 226 117 259
f 226 259 38
f 38 281 116
f 38 116 226
f 39 228 122
f 39 122 282
f 260 123 228
f 260 228 39
f 227 120 260
f 227 260 39
f 39 282 119
f 39 119 227
f 40 229 125
f 40 125 283
f 261 126 229
f 261 229 40
f 228 123 261
f 228 261 40
f 283 122 228
f 283 228 40
f 262 103 230
f 262 230 41
f 41 230 128
f 41 128 284
f 229 126 262
f 229 262 41
f 284 125 229
f 284 229 41
f 263 104 231
f 263 231 42
f 42 231 133
f 42 133 255
f 238 111 263
f 238 263 42
f 255 103 238
f 255 238 42
f 264 105 232
f 264 232 43
f 43 232 134
f 43 134 256
f 231 104 264
f 231 264 43
f 256 133 231
f 256 231 43
f 265 106 233
f 265 233 44
f 44 233 114
f 44 114 257
f 232 105 265
f 232 265 44
f 257 134 232
f 257 232 44
f 266 107 234
f 266 234 45
f 45 234 117
f 45 117 258
f 233 106 266
f 233 266 45
f 258 114 233
f 258 233 45
f 267 108 235
f 267 235 46
f 46 235 120
f 46 120 259
f 234 107 267
f 234 267 46
f 259 117 234
f 259 234 46
f 268 109 236
f 268 236 47
f 47 236 123
f 47 123 260
f 235 108 268
f 235 268 47
f 260 120 235
f 260 235 47
f 269 110 237
f 269 237 48
f 48 237 126
f 48 126 261
f 236 109 269
f 236 269 48
f 261 123 236
f 261 236 48
f 49 238 103
f 49 103 262
f 270 111 238
f 270 238 49
f 237 110 270
f 237 270 49
f 262 126 237
f 262 237 49
f 50 239 104
f 50 104 263
f 271 141 239
f 271 239 50
f 246 140 271
f 246 271 50
f 263 111 246
f 263 246 50
f 51 240 105
f 51 105 264
f 272 142 240
f 272 240 51
f 239 141 272
f 239 272 51
f 264 104 239
f 264 239 51
f 52 241 106
f 52 106 265
f 273 135 241
f 273 241 52
f 240 142 273
f 240 273 52
f 265 105 240
f 265 240 52
f 53 242 107
f 53 107 266
f 274 136 242
f 274 242 53
f 241 135 274
f 241 274 53
f 266 106 241
f 266 241 53
f 54 243 108
f 54 108 267
f 275 137 243
f 275 243 54
f 242 136 275
f 242 275 54
f 267 107 242
f 267 242 54
f 55 244 109
f 55 109 268
f 276 138 244
f 276 244 55
f 243 137 276
f 243 276 55
f 268 108 243
f 268 243 55
f 56 245 110
f 56 110 269
f 277 139 245
f 277 245 56
f 244 138 277
f 244 277 56
f 269 109 244
f 269 244 56
f 57 246 111
f 57 111 270
f 278 140 246
f 278 246 57
f 245 139 278
f 245 278 57
f 270 110 245
f 270 245 57
f 58 247 141
f 58 141 271
f 299 144 247
f 299 247 58
f 254 145 299
f 254 299 58
f 271 140 254
f 271 254 58
f 59 248 142
f 59 142 272
f 301 143 248
f 301 248 59
f 247 144 301
f 247 301 59
f 272 141 247
f 272 247 59
f 60 249 135
f 60 135 273
f 287 150 249
f 287 249 60
f 248 143 287
f 248 287 60
f 273 142 248
f 273 248 60
f 61 250 136
f 61 136 274
f 288 149 250
f 288 250 61
f 249 150 288
f 249 288 61
f 274 135 249
f 274 249 61
f 62 251 137
f 62 137 275
f 291 148 251
f 291 251 62
f 250 149 291
f 250 291 62
f 275 136 250
f 275 250 62
f 63 252 138
f 63 138 276
f 293 147 252
f 293 252 63
f 251 148 293
f 251 293 63
f 276 137 251
f 276 251 63
f 64 253 139
f 64 139 277
f 295 146 253
f 295 253 64
f 252 147 295
f 252 295 64
f 277 138 252
f 277 252 64
f 65 254 140
f 65 140 278
f 297 145 254
f 297 254 65
f 253 146 297
f 253 297 65
f 278 139 253
f 278 253 65
f 66 289 150
f 66 150 287
f 303 158 289
f 303 289 66
f 302 151 303
f 302 303 66
f 66 287 143
f 66 143 302
f 67 290 149
f 67 149 288
f 317 157 290
f 317 290 67
f 289 158 317
f 289 317 67
f 67 288 150
f 67 150 289
f 68 292 148
f 68 148 291
f 315 156 292
f 315 292 68
f 290 157 315
f 290 315 68
f 291 149 290
f 291 290 68
f 69 294 147
f 69 147 293
f 313 155 294
f 313 294 69
f 292 156 313
f 292 313 69
f 293 148 292
f 293 292 69
f 70 296 146
f 70 146 295
f 311 154 296
f 311 296 70
f 294 155 311
f 294 311 70
f 295 147 294
f 295 294 70
f 71 298 145
f 71 145 297
f 309 153 298
f 309 298 71
f 296 154 309
f 296 309 71
f 297 146 296
f 297 296 71
f 72 300 144
f 72 144 299
f 307 152 300
f 307 300 72
f 298 153 307
f 298 307 72
f 299 145 298
f 299 298 72
f 73 302 143
f 73 143 301
f 304 151 302
f 304 302 73
f 300 152 304
f 300 304 73
f 301 144 300
f 301 300 73
f 303 151 305
f 303 305 74
f 74 305 159
f 74 159 322
f 318 158 303
f 318 303 74
f 322 160 318
f 322 318 74
f 304 152 306
f 304 306 75
f 75 306 159
f 75 159 305
f 305 151 304
f 305 304 75
f 307 153 308
f 307 308 76
f 76 308 161
f 76 161 319
f 76 319 159
f 76 159 306
f 76 306 152
f 76 152 307
f 309 154 310
f 309 310 77
f 77 310 161
f 77 161 308
f 77 308 153
f 77 153 309
f 311 155 312
f 311 312 78
f 78 312 162
f 78 162 320
f 78 320 161
f 78 161 310
f 78 310 154
f 78 154 311
f 313 156 314
f 313 314 79
f 79 314 162
f 79 162 312
f 79 312 155
f 79 155 313
f 315 157 316
f 315 316 80
f 80 316 160
f 80 160 321
f 80 314 156
f 80 156 315
f 321 162 314
f 321 314 80
f 317 158 318
f 317 318 81
f 81 318 160
f 81 160 316
f 81 316 157
f 81 157 317
f 82 321 160
f 82 160 322
f 320 162 321
f 320 321 82
f 82 322 159
f 82 159 319
f 82 319 161
f 82 161 320
f 84 174 10
f 84 10 173
f 178 1 163
f 178 163 89
f 90 180 1
f 90 1 178
f 93 173 10
f 93 10 175
f 95 175 10
f 95 10 172
f 172 10 174
f 172 174 96
f 97 163 1
f 97 1 176
f 176 1 180
f 176 180 98
