# _4th_Proximal_Phalanx_Foot_R posed
v 0.898219 0.217386 0.278968
v 0.898540 0.218402 0.278381
v 0.900764 0.217904 0.278149
v 0.899995 0.216248 0.279272
v 0.900707 0.215207 0.280245
v 0.902074 0.219319 0.279459
v 0.901206 0.215424 0.281453
v 0.901234 0.216677 0.281549
v 0.901170 0.217485 0.280790
v 0.900912 0.216711 0.279657
v 0.901115 0.216218 0.280238
v 0.898206 0.218015 0.278701
v 0.899826 0.217597 0.278990
v 0.901037 0.217337 0.279346
v 0.901286 0.217732 0.280463
v 0.901388 0.217664 0.278985
v 0.901610 0.218128 0.280235
v 0.902248 0.219249 0.280074
v 0.901654 0.218713 0.278642
v 0.901935 0.218143 0.278936
v 0.899036 0.215965 0.279818
v 0.897458 0.217427 0.279478
v 0.897268 0.218473 0.278996
v 0.897965 0.219269 0.278448
v 0.899626 0.215398 0.280660
v 0.900409 0.215815 0.282056
v 0.900707 0.217050 0.282153
v 0.900839 0.217929 0.281220
v 0.900928 0.218167 0.280928
v 0.901144 0.218663 0.280794
v 0.901781 0.219680 0.280562
v 0.901394 0.220015 0.279791
v 0.900644 0.219825 0.278947
v 0.899910 0.219279 0.278341
v 0.896222 0.218968 0.279307
v 0.896084 0.218170 0.279896
v 0.896336 0.217729 0.280877
v 0.896460 0.219946 0.279093
v 0.897005 0.220711 0.279290
v 0.897597 0.221353 0.279979
v 0.898003 0.221533 0.280696
v 0.898248 0.221314 0.281591
v 0.898046 0.220623 0.282101
v 0.897809 0.220015 0.282468
v 0.897766 0.219484 0.282838
v 0.897578 0.218888 0.283266
v 0.897193 0.218130 0.282950
v 0.896682 0.217840 0.282005
v 0.894959 0.219435 0.283220
v 0.894511 0.219135 0.282404
v 0.894171 0.219032 0.281267
v 0.893976 0.219264 0.280499
v 0.893978 0.219886 0.279902
v 0.894233 0.220736 0.279793
v 0.894636 0.221413 0.280265
v 0.894991 0.221874 0.280819
v 0.895339 0.222242 0.281446
v 0.895610 0.222244 0.282214
v 0.895678 0.221800 0.282838
v 0.895640 0.221229 0.283286
v 0.895533 0.220538 0.283657
v 0.895237 0.219720 0.283616
v 0.892703 0.220494 0.283676
v 0.892447 0.220215 0.282952
v 0.892034 0.220124 0.281986
v 0.891807 0.220330 0.281206
v 0.891712 0.220913 0.280463
v 0.891982 0.221841 0.280399
v 0.892414 0.222524 0.280975
v 0.892770 0.222966 0.281559
v 0.893115 0.223332 0.282183
v 0.893429 0.223417 0.282964
v 0.893612 0.223095 0.283735
v 0.893596 0.222425 0.284259
v 0.893433 0.221608 0.284514
v 0.893078 0.220841 0.284200
v 0.890732 0.221585 0.284444
v 0.890394 0.221316 0.283717
v 0.889983 0.221160 0.282688
v 0.889741 0.221350 0.281810
v 0.889649 0.221961 0.280937
v 0.890053 0.222970 0.281062
v 0.890433 0.223584 0.281644
v 0.890872 0.224059 0.282297
v 0.891202 0.224387 0.282915
v 0.891527 0.224552 0.283689
v 0.891775 0.224380 0.284587
v 0.891741 0.223674 0.285208
v 0.891517 0.222774 0.285475
v 0.891087 0.221982 0.285030
v 0.888848 0.222586 0.285289
v 0.888502 0.222296 0.284611
v 0.888059 0.222094 0.283512
v 0.887672 0.222290 0.282282
v 0.887515 0.222971 0.281352
v 0.887982 0.224188 0.281580
v 0.888462 0.224901 0.282124
v 0.888957 0.225464 0.282982
v 0.889411 0.225902 0.283667
v 0.889798 0.226122 0.284558
v 0.890059 0.225843 0.285694
v 0.889909 0.224927 0.286295
v 0.889722 0.223852 0.286548
v 0.889264 0.223009 0.285984
v 0.887221 0.223014 0.286444
v 0.886719 0.222775 0.285580
v 0.886157 0.222754 0.284353
v 0.885667 0.223065 0.282795
v 0.885834 0.223931 0.281828
v 0.886125 0.225256 0.282006
v 0.886636 0.225980 0.282498
v 0.887334 0.226707 0.283356
v 0.887929 0.227325 0.284287
v 0.888481 0.227626 0.285358
v 0.888524 0.227165 0.286915
v 0.888278 0.226240 0.287437
v 0.888071 0.224938 0.287891
v 0.887615 0.223580 0.287272
v 0.887055 0.227343 0.288493
v 0.887105 0.228281 0.288406
v 0.886907 0.226887 0.289153
v 0.885910 0.228275 0.289238
v 0.885841 0.229097 0.289095
v 0.885647 0.227733 0.289706
v 0.884701 0.227259 0.290618
v 0.885763 0.226186 0.290419
v 0.882947 0.226853 0.290716
v 0.883726 0.225608 0.290594
v 0.881503 0.226492 0.289929
v 0.882139 0.225255 0.289646
v 0.880368 0.225711 0.288137
v 0.881345 0.224716 0.288017
v 0.881379 0.224274 0.285849
v 0.880298 0.225141 0.286218
v 0.881656 0.224657 0.283820
v 0.880376 0.225303 0.284742
v 0.886893 0.224616 0.288731
v 0.885172 0.224149 0.289047
v 0.884361 0.223810 0.288296
v 0.883695 0.223544 0.286944
v 0.883268 0.223678 0.285376
v 0.882980 0.224146 0.283407
v 0.883117 0.224967 0.282676
v 0.881944 0.225690 0.283039
v 0.880794 0.226297 0.283744
v 0.880968 0.227894 0.283686
v 0.882237 0.227255 0.283189
v 0.883647 0.226504 0.282746
v 0.886308 0.230233 0.287555
v 0.884914 0.230852 0.288334
v 0.884716 0.230856 0.286916
v 0.883195 0.231230 0.287739
v 0.887072 0.229339 0.286619
v 0.881871 0.230800 0.286502
v 0.883139 0.230532 0.285590
v 0.886042 0.229764 0.285857
v 0.884768 0.229589 0.284976
v 0.881082 0.229854 0.285377
v 0.882398 0.229741 0.284644
v 0.884174 0.228904 0.284141
v 0.883770 0.227855 0.283421
v 0.882235 0.228577 0.283796
v 0.880772 0.229070 0.284464
v 0.883685 0.229252 0.288266
v 0.882412 0.228841 0.287113
v 0.883702 0.227674 0.289290
v 0.882319 0.227236 0.288411
v 0.881373 0.226697 0.287139
v 0.881646 0.228235 0.286031
v 0.881261 0.227704 0.285257
v 0.883800 0.228337 0.288714
v 0.882500 0.228011 0.287687
v 0.881695 0.227537 0.286558
v 0.881366 0.227110 0.285801
v 0.880963 0.226396 0.285959
f 4 13 14
f 4 14 10
f 12 13 4
f 12 4 1
f 5 4 10
f 5 10 11
f 8 7 5
f 8 5 11
f 9 8 11
f 9 11 10
f 9 10 14
f 9 14 15
f 15 14 16
f 15 16 17
f 18 17 16
f 18 16 20
f 13 12 2
f 13 2 3
f 16 14 13
f 16 13 3
f 20 16 3
f 20 3 19
f 19 6 18
f 19 18 20
f 22 1 4
f 22 4 21
f 22 23 12
f 22 12 1
f 2 12 23
f 2 23 24
f 34 3 2
f 34 2 24
f 33 19 3
f 33 3 34
f 32 6 19
f 32 19 33
f 31 18 6
f 31 6 32
f 30 17 18
f 30 18 31
f 29 15 17
f 29 17 30
f 28 9 15
f 28 15 29
f 27 8 9
f 27 9 28
f 26 7 8
f 26 8 27
f 25 5 7
f 25 7 26
f 21 4 5
f 21 5 25
f 64 63 77
f 64 77 78
f 65 64 78
f 65 78 79
f 66 65 79
f 66 79 80
f 67 66 80
f 67 80 81
f 68 67 81
f 68 81 82
f 69 68 82
f 69 82 83
f 70 69 83
f 70 83 84
f 71 70 84
f 71 84 85
f 72 71 85
f 72 85 86
f 73 72 86
f 73 86 87
f 74 73 87
f 74 87 88
f 75 74 88
f 75 88 89
f 76 75 89
f 76 89 90
f 90 77 63
f 90 63 76
f 78 77 91
f 78 91 92
f 79 78 92
f 79 92 93
f 80 79 93
f 80 93 94
f 81 80 94
f 81 94 95
f 82 81 95
f 82 95 96
f 83 82 96
f 83 96 97
f 84 83 97
f 84 97 98
f 85 84 98
f 85 98 99
f 86 85 99
f 86 99 100
f 87 86 100
f 87 100 101
f 88 87 101
f 88 101 102
f 89 88 102
f 89 102 103
f 90 89 103
f 90 103 104
f 104 91 77
f 104 77 90
f 35 23 22
f 35 22 36
f 52 53 35
f 52 35 36
f 66 67 53
f 66 53 52
f 24 23 35
f 24 35 38
f 38 35 53
f 38 53 54
f 54 53 67
f 54 67 68
f 34 24 38
f 34 38 39
f 39 38 54
f 39 54 55
f 55 54 68
f 55 68 69
f 33 34 39
f 33 39 40
f 40 39 55
f 40 55 56
f 56 55 69
f 56 69 70
f 32 33 40
f 32 40 41
f 41 40 56
f 41 56 57
f 57 56 70
f 57 70 71
f 31 32 41
f 31 41 42
f 42 41 57
f 42 57 58
f 58 57 71
f 58 71 72
f 30 31 42
f 30 42 43
f 43 42 58
f 43 58 59
f 59 58 72
f 59 72 73
f 29 30 43
f 29 43 44
f 44 43 59
f 44 59 60
f 60 59 73
f 60 73 74
f 28 29 44
f 28 44 45
f 45 44 60
f 45 60 61
f 61 60 74
f 61 74 75
f 27 28 45
f 27 45 46
f 46 45 61
f 46 61 62
f 62 61 75
f 62 75 76
f 26 27 46
f 26 46 47
f 47 46 62
f 47 62 49
f 49 62 76
f 49 76 63
f 25 26 47
f 25 47 48
f 48 47 49
f 48 49 50
f 50 49 63
f 50 63 64
f 37 36 22
f 37 22 21
f 51 52 36
f 51 36 37
f 37 21 25
f 37 25 48
f 37 48 50
f 37 50 51
f 51 50 64
f 51 64 65
f 65 66 52
f 65 52 51
f 115 116 102
f 115 102 101
f 103 102 116
f 103 116 117
f 117 116 119
f 117 119 121
f 137 117 121
f 137 121 126
f 104 103 117
f 104 117 118
f 118 117 137
f 118 137 138
f 138 137 126
f 138 126 128
f 91 104 118
f 91 118 105
f 105 118 138
f 105 138 139
f 139 138 128
f 139 128 130
f 92 91 105
f 92 105 106
f 106 105 139
f 106 139 140
f 140 139 130
f 140 130 132
f 93 92 106
f 93 106 107
f 107 106 140
f 107 140 141
f 141 140 132
f 141 132 133
f 94 93 107
f 94 107 108
f 95 94 108
f 95 108 109
f 108 107 141
f 108 141 142
f 142 141 133
f 142 133 135
f 143 142 135
f 143 135 144
f 143 109 108
f 143 108 142
f 96 95 109
f 96 109 110
f 120 119 116
f 120 116 115
f 149 120 115
f 149 115 153
f 114 115 101
f 114 101 100
f 156 153 115
f 156 115 114
f 151 149 153
f 151 153 156
f 113 114 100
f 113 100 99
f 157 156 114
f 157 114 113
f 155 151 156
f 155 156 157
f 112 113 99
f 112 99 98
f 97 96 110
f 97 110 111
f 111 112 98
f 111 98 97
f 160 157 113
f 160 113 112
f 110 109 143
f 110 143 148
f 161 160 112
f 161 112 111
f 161 111 110
f 161 110 148
f 159 155 157
f 159 157 160
f 148 143 144
f 148 144 147
f 162 159 160
f 162 160 161
f 162 161 148
f 162 148 147
f 123 120 149
f 123 149 150
f 152 150 149
f 152 149 151
f 154 152 151
f 154 151 155
f 125 126 121
f 125 121 124
f 128 126 125
f 128 125 127
f 130 128 127
f 130 127 129
f 132 130 129
f 132 129 131
f 158 154 155
f 158 155 159
f 158 159 162
f 158 162 163
f 162 147 146
f 162 146 163
f 122 119 120
f 122 120 123
f 124 121 119
f 124 119 122
f 164 123 150
f 164 150 152
f 127 125 124
f 127 124 166
f 165 164 152
f 165 152 154
f 129 127 166
f 129 166 167
f 171 122 123
f 171 123 164
f 166 124 122
f 166 122 171
f 172 167 166
f 172 166 171
f 169 165 154
f 169 154 158
f 171 164 165
f 171 165 172
f 170 169 158
f 170 158 163
f 172 165 169
f 172 169 173
f 168 167 172
f 168 172 173
f 131 129 167
f 131 167 168
f 133 132 131
f 133 131 134
f 173 169 170
f 173 170 174
f 146 147 144
f 146 144 145
f 170 163 146
f 170 146 145
f 168 173 174
f 168 174 175
f 135 133 134
f 135 134 136
f 136 134 175
f 136 175 145
f 145 144 135
f 145 135 136
f 175 174 170
f 175 170 145
f 134 131 168
f 134 168 175
