# _4th_Distal_Phalanx_Foot_L posed
v 0.924146 -0.016908 0.276883
v 0.923745 -0.015883 0.277211
v 0.923702 -0.015223 0.277721
v 0.924049 -0.014801 0.278747
v 0.924466 -0.015104 0.279477
v 0.925123 -0.015652 0.279754
v 0.925924 -0.016520 0.279829
v 0.926357 -0.017555 0.279572
v 0.926487 -0.018530 0.278909
v 0.926141 -0.018805 0.278120
v 0.925372 -0.018604 0.277365
v 0.924729 -0.017753 0.276961
v 0.925087 -0.013845 0.278226
v 0.924660 -0.014128 0.277281
v 0.924683 -0.014839 0.276522
v 0.925063 -0.015720 0.276066
v 0.925672 -0.016614 0.276046
v 0.926509 -0.017454 0.276446
v 0.927391 -0.017826 0.277408
v 0.927721 -0.017397 0.278367
v 0.927465 -0.016470 0.279064
v 0.927026 -0.015511 0.279344
v 0.926423 -0.014677 0.279336
v 0.925736 -0.014078 0.278984
v 0.926376 -0.013261 0.277296
v 0.926080 -0.013569 0.276638
v 0.926021 -0.014111 0.276084
v 0.926211 -0.014855 0.275602
v 0.926831 -0.015556 0.275696
v 0.927496 -0.015963 0.276175
v 0.928113 -0.016152 0.276797
v 0.928354 -0.015911 0.277496
v 0.928321 -0.015316 0.278055
v 0.927970 -0.014459 0.278316
v 0.927443 -0.013730 0.278258
v 0.926871 -0.013316 0.277890
v 0.927591 -0.011907 0.276264
v 0.927294 -0.012288 0.275500
v 0.927285 -0.012949 0.274929
v 0.927488 -0.013597 0.274646
v 0.927998 -0.014221 0.274717
v 0.928652 -0.014621 0.275213
v 0.929246 -0.014654 0.275897
v 0.929608 -0.014419 0.276492
v 0.929856 -0.013980 0.276941
v 0.929576 -0.013151 0.277258
v 0.928481 -0.012308 0.277174
v 0.927984 -0.011971 0.276826
v 0.928717 -0.011114 0.275336
v 0.928396 -0.011596 0.274595
v 0.928334 -0.012100 0.274238
v 0.928447 -0.012635 0.274087
v 0.928791 -0.013147 0.274073
v 0.929323 -0.013510 0.274456
v 0.930014 -0.013538 0.275046
v 0.930489 -0.013208 0.275625
v 0.930656 -0.012609 0.276019
v 0.930499 -0.011968 0.276210
v 0.929457 -0.011267 0.276018
v 0.928948 -0.011130 0.275822
v 0.929138 -0.011065 0.275150
v 0.928920 -0.011449 0.274450
v 0.928943 -0.011917 0.274173
v 0.928977 -0.012296 0.274011
v 0.929263 -0.012590 0.273955
v 0.929658 -0.012958 0.274209
v 0.930180 -0.012933 0.274677
v 0.930587 -0.012645 0.275258
v 0.930716 -0.012098 0.275783
v 0.930295 -0.011657 0.275874
v 0.929803 -0.011173 0.275663
v 0.929327 -0.011022 0.275617
v 0.929883 -0.011361 0.275196
v 0.929912 -0.011736 0.274683
v 0.929624 -0.012159 0.274219
v 0.924947 -0.016510 0.277458
v 0.925331 -0.017208 0.277484
v 0.925574 -0.017783 0.277682
v 0.926020 -0.017985 0.278139
v 0.926256 -0.017785 0.278618
v 0.926149 -0.017221 0.278851
v 0.925784 -0.016400 0.278991
v 0.925190 -0.015789 0.279019
v 0.924556 -0.015564 0.279022
v 0.924304 -0.015396 0.278544
v 0.924226 -0.015519 0.278079
v 0.924560 -0.015886 0.277610
v 0.925788 -0.017172 0.278126
v 0.925453 -0.016374 0.278221
v 0.924962 -0.015797 0.278333
f 26 25 37
f 26 37 38
f 27 26 38
f 27 38 39
f 28 27 39
f 28 39 40
f 29 28 40
f 29 40 41
f 30 29 41
f 30 41 42
f 31 30 42
f 31 42 43
f 32 31 43
f 32 43 44
f 33 32 44
f 33 44 45
f 34 33 45
f 34 45 46
f 35 34 46
f 35 46 47
f 36 35 47
f 36 47 48
f 48 37 25
f 48 25 36
f 38 37 49
f 38 49 50
f 39 38 50
f 39 50 51
f 40 39 51
f 40 51 52
f 41 40 52
f 41 52 53
f 42 41 53
f 42 53 54
f 43 42 54
f 43 54 55
f 44 43 55
f 44 55 56
f 45 44 56
f 45 56 57
f 46 45 57
f 46 57 58
f 47 46 58
f 47 58 59
f 48 47 59
f 48 59 60
f 60 49 37
f 60 37 48
f 16 15 27
f 16 27 28
f 17 16 28
f 17 28 29
f 18 17 29
f 18 29 30
f 26 27 15
f 26 15 14
f 25 26 14
f 25 14 13
f 36 25 13
f 36 13 24
f 35 36 24
f 35 24 23
f 34 35 23
f 34 23 22
f 33 34 22
f 33 22 21
f 32 33 21
f 32 21 20
f 19 18 30
f 19 30 31
f 31 32 20
f 31 20 19
f 71 72 60
f 71 60 59
f 59 58 70
f 59 70 71
f 73 71 70
f 73 70 69
f 69 70 58
f 69 58 57
f 61 62 50
f 61 50 49
f 61 72 71
f 61 71 73
f 49 60 72
f 49 72 61
f 68 69 57
f 68 57 56
f 62 61 73
f 62 73 74
f 74 73 69
f 74 69 68
f 51 50 62
f 51 62 63
f 67 68 56
f 67 56 55
f 66 67 55
f 66 55 54
f 52 51 63
f 52 63 64
f 65 66 54
f 65 54 53
f 75 74 68
f 75 68 67
f 65 64 63
f 65 63 75
f 53 52 64
f 53 64 65
f 75 67 66
f 75 66 65
f 63 62 74
f 63 74 75
f 1 16 17
f 1 17 12
f 11 12 17
f 11 17 18
f 10 11 18
f 10 18 19
f 9 10 19
f 9 19 20
f 8 9 20
f 8 20 21
f 7 8 21
f 7 21 22
f 6 7 22
f 6 22 23
f 5 6 23
f 5 23 24
f 4 5 24
f 4 24 13
f 3 4 13
f 3 13 14
f 2 3 14
f 2 14 15
f 2 15 16
f 2 16 1
f 79 78 11
f 79 11 10
f 79 10 9
f 79 9 80
f 81 80 9
f 81 9 8
f 77 12 11
f 77 11 78
f 88 79 80
f 88 80 81
f 88 77 78
f 88 78 79
f 1 12 77
f 1 77 76
f 82 81 8
f 82 8 7
f 89 76 77
f 89 77 88
f 89 88 81
f 89 81 82
f 83 6 5
f 83 5 84
f 87 86 3
f 87 3 2
f 83 82 7
f 83 7 6
f 87 2 1
f 87 1 76
f 85 4 3
f 85 3 86
f 90 87 76
f 90 76 89
f 90 83 84
f 90 84 85
f 85 84 5
f 85 5 4
f 85 86 87
f 85 87 90
f 90 89 82
f 90 82 83
