# _4th_Intermediate_Phalanges_Hand_L posed
v -0.841206 -0.305634 0.388536
v -0.843050 -0.306240 0.388675
v -0.843892 -0.305368 0.387028
v -0.842239 -0.304899 0.386883
v -0.840196 -0.312774 0.386191
v -0.842086 -0.311891 0.386769
v -0.842699 -0.312206 0.385200
v -0.840945 -0.312675 0.384586
v -0.842793 -0.309043 0.388553
v -0.843392 -0.308444 0.386636
v -0.842989 -0.306034 0.385576
v -0.842258 -0.308386 0.385067
v -0.842132 -0.310978 0.384117
v -0.840464 -0.311415 0.383925
v -0.841419 -0.305873 0.385459
v -0.840167 -0.308712 0.384644
v -0.840928 -0.309573 0.389132
v -0.839064 -0.311760 0.385280
v -0.839062 -0.309141 0.385376
v -0.839695 -0.306577 0.386543
v -0.839169 -0.309908 0.389853
v -0.839005 -0.306627 0.389146
v -0.838157 -0.307365 0.387455
v -0.837780 -0.309492 0.386575
v -0.837585 -0.311695 0.386285
v -0.837765 -0.312982 0.387092
v -0.839340 -0.308035 0.389926
v -0.841178 -0.307592 0.389472
v -0.843122 -0.307510 0.388904
v -0.838672 -0.311906 0.388883
v -0.840523 -0.311513 0.388219
v -0.842514 -0.310642 0.387837
v -0.843759 -0.307018 0.386982
v -0.843361 -0.310101 0.386078
v -0.842880 -0.310257 0.384774
v -0.842880 -0.308599 0.385500
v -0.843216 -0.307029 0.385923
v -0.835428 -0.312936 0.388216
v -0.835119 -0.311863 0.387404
v -0.835318 -0.310030 0.387611
v -0.835891 -0.308282 0.388561
v -0.836699 -0.307432 0.390122
v -0.837101 -0.308592 0.390927
v -0.837006 -0.310336 0.390889
v -0.836353 -0.312164 0.389906
v -0.832361 -0.313250 0.389832
v -0.832080 -0.312203 0.389123
v -0.832248 -0.310664 0.389235
v -0.832862 -0.308958 0.390166
v -0.833828 -0.307926 0.391826
v -0.834255 -0.309093 0.392716
v -0.834019 -0.310899 0.392573
v -0.833267 -0.312632 0.391446
v -0.828922 -0.314123 0.391601
v -0.828589 -0.313023 0.390775
v -0.828879 -0.311224 0.390918
v -0.829688 -0.309240 0.392005
v -0.830894 -0.307999 0.393905
v -0.831391 -0.309263 0.395042
v -0.831005 -0.311379 0.394757
v -0.830026 -0.313344 0.393414
v -0.825188 -0.315322 0.393458
v -0.824802 -0.313983 0.392536
v -0.825348 -0.311618 0.392932
v -0.826437 -0.308882 0.394092
v -0.828019 -0.307304 0.396409
v -0.828424 -0.309046 0.397771
v -0.827872 -0.311569 0.397530
v -0.826656 -0.313946 0.395910
v -0.825775 -0.311773 0.399628
v -0.824391 -0.314529 0.397430
v -0.822940 -0.316146 0.394533
v -0.822815 -0.314354 0.393465
v -0.823459 -0.311800 0.394030
v -0.824512 -0.308954 0.395587
v -0.825881 -0.307367 0.397876
v -0.826628 -0.308726 0.399748
v -0.824502 -0.311714 0.399173
v -0.825511 -0.309613 0.399052
v -0.825172 -0.308990 0.397922
v -0.824266 -0.309826 0.396447
v -0.823579 -0.311807 0.395638
v -0.822943 -0.313548 0.395036
v -0.822908 -0.314618 0.395798
v -0.823739 -0.313643 0.397697
v -0.824574 -0.311504 0.397068
v -0.839722 -0.307535 0.385378
v -0.839207 -0.310475 0.384712
v -0.840863 -0.305266 0.386726
v -0.839846 -0.312522 0.384744
v -0.841645 -0.310235 0.388513
v -0.842135 -0.306690 0.389257
v -0.841951 -0.308473 0.389096
v -0.842578 -0.305586 0.387711
v -0.841287 -0.311822 0.387419
v -0.841461 -0.312324 0.385618
v -0.843018 -0.310813 0.386606
v -0.841588 -0.312057 0.384128
v -0.843006 -0.310880 0.384828
v -0.843059 -0.309397 0.387125
v -0.842514 -0.309679 0.384723
v -0.841553 -0.309730 0.384318
v -0.843319 -0.309300 0.385633
v -0.842085 -0.306986 0.384979
v -0.843326 -0.307984 0.387601
v -0.842752 -0.305072 0.386068
v -0.843581 -0.306263 0.386271
v -0.842800 -0.307376 0.385495
v -0.843827 -0.306535 0.387964
v -0.843387 -0.307714 0.386204
v -0.830481 -0.313217 0.390186
v -0.830468 -0.311802 0.389871
v -0.830878 -0.310032 0.390393
v -0.831811 -0.308331 0.391848
v -0.832734 -0.308419 0.393494
v -0.832751 -0.310163 0.393838
v -0.832145 -0.312144 0.393079
v -0.831141 -0.313600 0.391492
v -0.838847 -0.308130 0.386582
v -0.836843 -0.308746 0.387380
v -0.834085 -0.309495 0.388767
v -0.838639 -0.310467 0.386047
v -0.836497 -0.310795 0.386767
v -0.833684 -0.311194 0.388247
v -0.838458 -0.312574 0.386033
v -0.836473 -0.312511 0.387023
v -0.833760 -0.312572 0.388539
v -0.839204 -0.312567 0.387646
v -0.837118 -0.312791 0.388490
v -0.834391 -0.312898 0.389798
v -0.839918 -0.310745 0.389075
v -0.837988 -0.311093 0.389962
v -0.835284 -0.311520 0.391245
v -0.840202 -0.308770 0.389627
v -0.838284 -0.309168 0.390394
v -0.835703 -0.309693 0.391807
v -0.839445 -0.306139 0.387966
v -0.837479 -0.307097 0.388737
v -0.840201 -0.306867 0.389406
v -0.838187 -0.307533 0.390078
v -0.834811 -0.308010 0.390043
v -0.835603 -0.308126 0.391467
v -0.828902 -0.312648 0.395553
v -0.827554 -0.314496 0.393613
v -0.826645 -0.314315 0.391958
v -0.826672 -0.312573 0.391676
v -0.827422 -0.310319 0.392447
v -0.828646 -0.308214 0.394090
v -0.829763 -0.308213 0.396051
v -0.829732 -0.310293 0.396492
v -0.827252 -0.310151 0.399130
v -0.827558 -0.307475 0.398478
v -0.826181 -0.307381 0.395880
v -0.824645 -0.310215 0.393990
v -0.823800 -0.313087 0.393134
v -0.823470 -0.315412 0.393042
v -0.824585 -0.315349 0.395376
v -0.826102 -0.313065 0.397994
v -0.825813 -0.308419 0.398913
v -0.824941 -0.308378 0.396961
v -0.824243 -0.313355 0.398688
v -0.825515 -0.310323 0.399918
v -0.824480 -0.310489 0.396711
v -0.823639 -0.310562 0.395435
v -0.823008 -0.312943 0.394490
v -0.823650 -0.312873 0.395782
v -0.822324 -0.315032 0.394431
v -0.823234 -0.315049 0.396347
v -0.823990 -0.312941 0.397482
v -0.825163 -0.310301 0.398589
v -0.842312 -0.306024 0.388718
v -0.843863 -0.305906 0.387968
v -0.843052 -0.304910 0.386692
v -0.841536 -0.305178 0.387513
v -0.841273 -0.312245 0.386629
v -0.842540 -0.312090 0.386157
v -0.841720 -0.312637 0.384707
v -0.840484 -0.312842 0.385196
v -0.843198 -0.306796 0.388879
v -0.842630 -0.309895 0.388212
v -0.844011 -0.306245 0.387110
v -0.843151 -0.308658 0.387333
v -0.843363 -0.309258 0.386375
v -0.843466 -0.305556 0.386131
v -0.842555 -0.307093 0.385222
v -0.842563 -0.308535 0.385242
v -0.842129 -0.309665 0.384516
v -0.842430 -0.311631 0.384371
v -0.840616 -0.312201 0.384139
v -0.841358 -0.311197 0.383888
v -0.841784 -0.305136 0.386133
v -0.842335 -0.305778 0.385413
v -0.840069 -0.310168 0.384236
v -0.841774 -0.308355 0.384822
v -0.840669 -0.307250 0.384916
v -0.841794 -0.309344 0.388862
v -0.840761 -0.310527 0.388768
v -0.841065 -0.308621 0.389352
v -0.839534 -0.311739 0.384457
v -0.839142 -0.312654 0.385476
v -0.839300 -0.308983 0.385054
v -0.838947 -0.310566 0.385148
v -0.840421 -0.306169 0.385875
v -0.839344 -0.307749 0.385881
v -0.840172 -0.305684 0.387472
v -0.840087 -0.309762 0.389444
v -0.839293 -0.308945 0.389971
v -0.839961 -0.306207 0.388845
v -0.838543 -0.306584 0.388323
v -0.839014 -0.307022 0.387011
v -0.837937 -0.308391 0.386933
v -0.838751 -0.309253 0.386303
v -0.837664 -0.310639 0.386334
v -0.838505 -0.311659 0.385865
v -0.837559 -0.312540 0.386498
v -0.838739 -0.312964 0.386724
v -0.838248 -0.312682 0.387993
v -0.839245 -0.307224 0.389688
v -0.840266 -0.307802 0.389630
v -0.841164 -0.306568 0.389377
v -0.842081 -0.307586 0.389246
v -0.842947 -0.308245 0.388814
v -0.839008 -0.310917 0.389503
v -0.839620 -0.311748 0.388480
v -0.840204 -0.312346 0.387471
v -0.841472 -0.311116 0.388040
v -0.842306 -0.311401 0.387295
v -0.843727 -0.307205 0.387933
v -0.843527 -0.307706 0.386851
v -0.843005 -0.310185 0.386886
v -0.843334 -0.310843 0.385856
v -0.843202 -0.310122 0.385185
v -0.843496 -0.307005 0.386270
v -0.842651 -0.310550 0.384460
v -0.842863 -0.309556 0.385076
v -0.843295 -0.308473 0.385974
v -0.843004 -0.307739 0.385770
v -0.843200 -0.306572 0.385786
v -0.835155 -0.312595 0.387678
v -0.835168 -0.310979 0.387379
v -0.835560 -0.309119 0.387993
v -0.836209 -0.307646 0.389277
v -0.836975 -0.307861 0.390655
v -0.837110 -0.309396 0.390996
v -0.836771 -0.311288 0.390520
v -0.835857 -0.312816 0.389055
v -0.832171 -0.312813 0.389398
v -0.832115 -0.311489 0.389078
v -0.832504 -0.309789 0.389571
v -0.833311 -0.308221 0.390932
v -0.834136 -0.308336 0.392440
v -0.834192 -0.309951 0.392771
v -0.833698 -0.311815 0.392116
v -0.832782 -0.313188 0.390619
v -0.828680 -0.313692 0.391045
v -0.828671 -0.312170 0.390720
v -0.829219 -0.310214 0.391343
v -0.830278 -0.308426 0.392886
v -0.831309 -0.308360 0.394685
v -0.831292 -0.310290 0.395067
v -0.830564 -0.312431 0.394177
v -0.829432 -0.314023 0.392461
v -0.824808 -0.314899 0.392714
v -0.824950 -0.312899 0.392593
v -0.825815 -0.310279 0.393421
v -0.827230 -0.307729 0.395134
v -0.828373 -0.307978 0.397329
v -0.828234 -0.310291 0.397830
v -0.827342 -0.312823 0.396895
v -0.825871 -0.314837 0.394674
v -0.833983 -0.312953 0.389027
v -0.833680 -0.311956 0.388298
v -0.833856 -0.310342 0.388420
v -0.834404 -0.308704 0.389319
v -0.835291 -0.307715 0.390904
v -0.835705 -0.308853 0.391748
v -0.835578 -0.310601 0.391651
v -0.834902 -0.312317 0.390604
v -0.830704 -0.313655 0.390670
v -0.830410 -0.312582 0.389915
v -0.830628 -0.310957 0.390047
v -0.831275 -0.309122 0.391012
v -0.832372 -0.308005 0.392802
v -0.832800 -0.309250 0.393794
v -0.832526 -0.311185 0.393575
v -0.831653 -0.313001 0.392353
v -0.826955 -0.314772 0.392574
v -0.826599 -0.313530 0.391696
v -0.826990 -0.311454 0.391931
v -0.827967 -0.309208 0.393180
v -0.829351 -0.307724 0.395199
v -0.829859 -0.309170 0.396485
v -0.829371 -0.311495 0.396157
v -0.828267 -0.313691 0.394683
v -0.836636 -0.309735 0.386992
v -0.837118 -0.307822 0.387945
v -0.836462 -0.311765 0.386763
v -0.836654 -0.312991 0.387597
v -0.837618 -0.312070 0.389336
v -0.838170 -0.310105 0.390298
v -0.838290 -0.308308 0.390333
v -0.837938 -0.307028 0.389570
v -0.826726 -0.311655 0.398758
v -0.825403 -0.314315 0.396820
v -0.825057 -0.313286 0.398701
v -0.823682 -0.315485 0.395914
v -0.823901 -0.315945 0.393886
v -0.822613 -0.315451 0.393528
v -0.823584 -0.314322 0.392994
v -0.823132 -0.313127 0.393679
v -0.824187 -0.311719 0.393476
v -0.823869 -0.310325 0.394667
v -0.825328 -0.308675 0.394751
v -0.825232 -0.307941 0.396627
v -0.827121 -0.306852 0.397298
v -0.826523 -0.307648 0.399070
v -0.827546 -0.308788 0.398959
v -0.826452 -0.310169 0.399974
v -0.824827 -0.311877 0.399694
v -0.825906 -0.309172 0.399560
v -0.825110 -0.310497 0.399267
v -0.825521 -0.309166 0.398681
v -0.825395 -0.308113 0.397979
v -0.824725 -0.309113 0.397076
v -0.824273 -0.309250 0.396160
v -0.823864 -0.310721 0.396011
v -0.823269 -0.311838 0.394905
v -0.823249 -0.312779 0.395272
v -0.822704 -0.313874 0.394465
v -0.822719 -0.314185 0.395040
v -0.822443 -0.315683 0.395020
v -0.823451 -0.314163 0.396796
v -0.823814 -0.314206 0.397675
v -0.824035 -0.312911 0.398501
v -0.824516 -0.311627 0.398385
v -0.824961 -0.310282 0.397494
v -0.824138 -0.311665 0.396243
v -0.824011 -0.312843 0.396496
f 1 171 92
f 1 92 220
f 174 94 171
f 174 171 1
f 1 208 137
f 1 137 205
f 220 139 208
f 220 208 1
f 205 89 174
f 205 174 1
f 171 94 172
f 171 172 2
f 2 172 109
f 2 109 179
f 2 179 92
f 2 92 171
f 172 94 173
f 172 173 3
f 3 173 106
f 3 106 184
f 184 107 181
f 184 181 3
f 3 181 109
f 3 109 172
f 4 174 89
f 4 89 191
f 173 94 174
f 173 174 4
f 4 191 106
f 4 106 173
f 225 95 175
f 225 175 5
f 5 175 96
f 5 96 178
f 200 125 216
f 200 216 5
f 5 216 128
f 5 128 225
f 5 178 90
f 5 90 200
f 6 176 96
f 6 96 175
f 227 97 176
f 227 176 6
f 175 95 227
f 175 227 6
f 7 177 96
f 7 96 176
f 188 98 177
f 188 177 7
f 231 99 188
f 231 188 7
f 176 97 231
f 176 231 7
f 189 90 178
f 189 178 8
f 8 178 96
f 8 96 177
f 177 98 189
f 177 189 8
f 9 180 91
f 9 91 196
f 182 100 180
f 182 180 9
f 9 196 93
f 9 93 222
f 9 222 105
f 9 105 182
f 192 104 185
f 192 185 11
f 11 185 108
f 11 108 238
f 11 238 107
f 11 107 184
f 11 184 106
f 11 106 192
f 187 101 186
f 187 186 12
f 12 186 108
f 12 108 185
f 194 102 187
f 194 187 12
f 12 185 104
f 12 104 194
f 13 190 98
f 13 98 188
f 187 102 190
f 187 190 13
f 188 99 234
f 188 234 13
f 13 234 101
f 13 101 187
f 14 193 88
f 14 88 199
f 190 102 193
f 190 193 14
f 14 199 90
f 14 90 189
f 14 189 98
f 14 98 190
f 195 104 192
f 195 192 15
f 15 192 106
f 15 106 191
f 203 87 195
f 203 195 15
f 191 89 203
f 191 203 15
f 193 102 194
f 193 194 16
f 16 194 104
f 16 104 195
f 195 87 201
f 195 201 16
f 16 201 88
f 16 88 193
f 196 91 197
f 196 197 17
f 17 197 131
f 17 131 206
f 17 198 93
f 17 93 196
f 206 134 198
f 206 198 17
f 18 200 90
f 18 90 199
f 214 125 200
f 214 200 18
f 199 88 202
f 199 202 18
f 18 202 122
f 18 122 214
f 201 87 204
f 201 204 19
f 19 204 119
f 19 119 212
f 19 212 122
f 19 122 202
f 202 88 201
f 202 201 19
f 203 89 205
f 203 205 20
f 20 205 137
f 20 137 210
f 20 210 119
f 20 119 204
f 204 87 203
f 204 203 20
f 21 207 134
f 21 134 206
f 300 135 207
f 300 207 21
f 206 131 223
f 206 223 21
f 21 223 132
f 21 132 300
f 22 209 137
f 22 137 208
f 302 138 209
f 302 209 22
f 208 139 218
f 208 218 22
f 22 218 140
f 22 140 302
f 23 211 119
f 23 119 210
f 296 120 211
f 296 211 23
f 209 138 296
f 209 296 23
f 210 137 209
f 210 209 23
f 24 213 122
f 24 122 212
f 295 123 213
f 295 213 24
f 211 120 295
f 211 295 24
f 212 119 211
f 212 211 24
f 25 215 125
f 25 125 214
f 297 126 215
f 297 215 25
f 213 123 297
f 213 297 25
f 214 122 213
f 214 213 25
f 26 217 128
f 26 128 216
f 298 129 217
f 298 217 26
f 215 126 298
f 215 298 26
f 216 125 215
f 216 215 26
f 27 219 134
f 27 134 207
f 218 139 219
f 218 219 27
f 207 135 301
f 207 301 27
f 27 301 140
f 27 140 218
f 220 92 221
f 220 221 28
f 28 221 93
f 28 93 198
f 28 198 134
f 28 134 219
f 28 219 139
f 28 139 220
f 29 228 105
f 29 105 222
f 179 109 228
f 179 228 29
f 221 92 179
f 221 179 29
f 222 93 221
f 222 221 29
f 30 224 128
f 30 128 217
f 223 131 224
f 223 224 30
f 217 129 299
f 217 299 30
f 30 299 132
f 30 132 223
f 197 91 226
f 197 226 31
f 31 226 95
f 31 95 225
f 224 131 197
f 224 197 31
f 225 128 224
f 225 224 31
f 32 230 97
f 32 97 227
f 180 100 230
f 180 230 32
f 226 91 180
f 226 180 32
f 227 95 226
f 227 226 32
f 181 107 233
f 181 233 33
f 33 233 110
f 33 110 229
f 228 109 181
f 228 181 33
f 229 105 228
f 229 228 33
f 34 232 99
f 34 99 231
f 183 103 232
f 183 232 34
f 230 100 183
f 230 183 34
f 231 97 230
f 231 230 34
f 35 235 101
f 35 101 234
f 232 103 235
f 232 235 35
f 234 99 232
f 234 232 35
f 36 237 108
f 36 108 186
f 236 110 237
f 236 237 36
f 36 186 101
f 36 101 235
f 36 235 103
f 36 103 236
f 37 233 107
f 37 107 238
f 237 110 233
f 237 233 37
f 238 108 237
f 238 237 37
f 298 126 239
f 298 239 38
f 38 239 127
f 38 127 271
f 38 271 130
f 38 130 246
f 38 246 129
f 38 129 298
f 297 123 240
f 297 240 39
f 39 240 124
f 39 124 272
f 39 272 127
f 39 127 239
f 39 239 126
f 39 126 297
f 295 120 241
f 295 241 40
f 40 241 121
f 40 121 273
f 40 273 124
f 40 124 240
f 40 240 123
f 40 123 295
f 296 138 242
f 296 242 41
f 41 242 141
f 41 141 274
f 41 274 121
f 41 121 241
f 41 241 120
f 41 120 296
f 302 140 243
f 302 243 42
f 42 243 142
f 42 142 275
f 42 275 141
f 42 141 242
f 242 138 302
f 242 302 42
f 301 135 244
f 301 244 43
f 43 244 136
f 43 136 276
f 43 276 142
f 43 142 243
f 43 243 140
f 43 140 301
f 300 132 245
f 300 245 44
f 44 245 133
f 44 133 277
f 44 277 136
f 44 136 244
f 244 135 300
f 244 300 44
f 299 129 246
f 299 246 45
f 45 246 130
f 45 130 278
f 45 278 133
f 45 133 245
f 45 245 132
f 45 132 299
f 46 247 111
f 46 111 279
f 271 127 247
f 271 247 46
f 46 279 118
f 46 118 254
f 46 254 130
f 46 130 271
f 47 248 112
f 47 112 280
f 272 124 248
f 272 248 47
f 47 280 111
f 47 111 247
f 47 247 127
f 47 127 272
f 48 249 113
f 48 113 281
f 273 121 249
f 273 249 48
f 48 281 112
f 48 112 248
f 48 248 124
f 48 124 273
f 49 250 114
f 49 114 282
f 274 141 250
f 274 250 49
f 49 282 113
f 49 113 249
f 49 249 121
f 49 121 274
f 50 251 115
f 50 115 283
f 275 142 251
f 275 251 50
f 50 283 114
f 50 114 250
f 50 250 141
f 50 141 275
f 51 252 116
f 51 116 284
f 276 136 252
f 276 252 51
f 51 284 115
f 51 115 251
f 51 251 142
f 51 142 276
f 52 253 117
f 52 117 285
f 277 133 253
f 277 253 52
f 52 285 116
f 52 116 252
f 52 252 136
f 52 136 277
f 53 254 118
f 53 118 286
f 278 130 254
f 278 254 53
f 53 286 117
f 53 117 253
f 53 253 133
f 53 133 278
f 279 111 255
f 279 255 54
f 54 255 145
f 54 145 287
f 54 287 144
f 54 144 262
f 54 262 118
f 54 118 279
f 280 112 256
f 280 256 55
f 55 256 146
f 55 146 288
f 55 288 145
f 55 145 255
f 55 255 111
f 55 111 280
f 281 113 257
f 281 257 56
f 56 257 147
f 56 147 289
f 56 289 146
f 56 146 256
f 56 256 112
f 56 112 281
f 282 114 258
f 282 258 57
f 57 258 148
f 57 148 290
f 57 290 147
f 57 147 257
f 57 257 113
f 57 113 282
f 283 115 259
f 283 259 58
f 58 259 149
f 58 149 291
f 58 291 148
f 58 148 258
f 58 258 114
f 58 114 283
f 284 116 260
f 284 260 59
f 59 260 150
f 59 150 292
f 59 292 149
f 59 149 259
f 59 259 115
f 59 115 284
f 285 117 261
f 285 261 60
f 60 261 143
f 60 143 293
f 60 293 150
f 60 150 260
f 60 260 116
f 60 116 285
f 286 118 262
f 286 262 61
f 61 262 144
f 61 144 294
f 61 294 143
f 61 143 261
f 61 261 117
f 61 117 286
f 287 145 263
f 287 263 62
f 62 263 156
f 62 156 307
f 62 307 157
f 62 157 270
f 62 270 144
f 62 144 287
f 288 146 264
f 288 264 63
f 63 264 155
f 63 155 309
f 63 309 156
f 63 156 263
f 63 263 145
f 63 145 288
f 289 147 265
f 289 265 64
f 64 265 154
f 64 154 311
f 64 311 155
f 64 155 264
f 64 264 146
f 64 146 289
f 290 148 266
f 290 266 65
f 65 266 153
f 65 153 313
f 65 313 154
f 65 154 265
f 65 265 147
f 65 147 290
f 291 149 267
f 291 267 66
f 66 267 152
f 66 152 315
f 66 315 153
f 66 153 266
f 66 266 148
f 66 148 291
f 292 150 268
f 292 268 67
f 67 268 151
f 67 151 317
f 67 317 152
f 67 152 267
f 67 267 149
f 67 149 292
f 293 143 269
f 293 269 68
f 68 269 158
f 68 158 303
f 68 303 151
f 68 151 268
f 68 268 150
f 68 150 293
f 294 144 270
f 294 270 69
f 69 270 157
f 69 157 304
f 69 304 158
f 69 158 269
f 69 269 143
f 69 143 294
f 303 158 305
f 303 305 70
f 70 305 161
f 70 161 319
f 70 319 162
f 70 162 318
f 318 151 303
f 318 303 70
f 304 157 306
f 304 306 71
f 71 306 168
f 71 168 333
f 71 333 161
f 71 161 305
f 305 158 304
f 305 304 71
f 307 156 308
f 307 308 72
f 72 308 167
f 72 167 331
f 72 331 168
f 72 168 306
f 72 306 157
f 72 157 307
f 309 155 310
f 309 310 73
f 73 310 165
f 73 165 329
f 73 329 167
f 73 167 308
f 73 308 156
f 73 156 309
f 311 154 312
f 311 312 74
f 74 312 164
f 74 164 327
f 74 327 165
f 74 165 310
f 74 310 155
f 74 155 311
f 313 153 314
f 313 314 75
f 75 314 160
f 75 160 325
f 75 325 164
f 75 164 312
f 75 312 154
f 75 154 313
f 315 152 316
f 315 316 76
f 76 316 159
f 76 159 323
f 76 323 160
f 76 160 314
f 76 314 153
f 76 153 315
f 317 151 318
f 317 318 77
f 77 318 162
f 77 162 320
f 77 320 159
f 77 159 316
f 77 316 152
f 77 152 317
f 78 321 162
f 78 162 319
f 335 170 321
f 335 321 78
f 334 169 335
f 334 335 78
f 78 319 161
f 78 161 334
f 79 322 159
f 79 159 320
f 321 170 322
f 321 322 79
f 79 320 162
f 79 162 321
f 80 324 160
f 80 160 323
f 336 163 324
f 336 324 80
f 322 170 336
f 322 336 80
f 323 159 322
f 323 322 80
f 324 163 326
f 324 326 81
f 81 326 164
f 81 164 325
f 325 160 324
f 325 324 81
f 82 328 165
f 82 165 327
f 337 166 328
f 337 328 82
f 326 163 337
f 326 337 82
f 327 164 326
f 327 326 82
f 328 166 330
f 328 330 83
f 83 330 167
f 83 167 329
f 329 165 328
f 329 328 83
f 84 332 168
f 84 168 331
f 338 169 332
f 338 332 84
f 84 330 166
f 84 166 338
f 331 167 330
f 331 330 84
f 85 334 161
f 85 161 333
f 332 169 334
f 332 334 85
f 333 168 332
f 333 332 85
f 86 338 166
f 86 166 337
f 335 169 338
f 335 338 86
f 336 170 335
f 336 335 86
f 337 163 336
f 337 336 86
f 100 182 10
f 100 10 183
f 103 183 10
f 103 10 236
f 229 10 182
f 229 182 105
f 110 236 10
f 110 10 229
