# _5th_Distal_Phalanges_Hand_R rest
v -0.833039 0.017738 -0.139092
v -0.833377 0.017872 -0.137648
v -0.833813 0.018682 -0.136759
v -0.834403 0.019526 -0.137167
v -0.834231 0.020153 -0.138518
v -0.833171 0.020100 -0.140070
v -0.832102 0.019153 -0.140680
v -0.832273 0.018147 -0.140164
v -0.828040 0.018553 -0.139691
v -0.828235 0.017432 -0.139192
v -0.828929 0.016903 -0.137969
v -0.829767 0.017455 -0.136440
v -0.830500 0.018350 -0.135192
v -0.830266 0.019369 -0.135570
v -0.829507 0.019867 -0.136921
v -0.828625 0.019596 -0.138612
v -0.825480 0.018094 -0.139687
v -0.825908 0.016716 -0.139026
v -0.826820 0.016235 -0.137477
v -0.827804 0.016700 -0.135669
v -0.828510 0.017755 -0.134026
v -0.828277 0.019087 -0.134381
v -0.827093 0.019724 -0.135977
v -0.826065 0.019445 -0.137995
v -0.834461 0.017813 -0.139707
v -0.834522 0.017560 -0.138007
v -0.832996 0.018076 -0.140764
v -0.835238 0.017766 -0.140070
v -0.833394 0.017889 -0.141314
v -0.835421 0.017547 -0.138172
v -0.835881 0.020226 -0.139106
v -0.834304 0.020089 -0.140741
v -0.835931 0.019593 -0.137326
v -0.835046 0.018589 -0.136446
v -0.832398 0.019248 -0.141411
v -0.836868 0.020153 -0.139487
v -0.835153 0.020039 -0.141223
v -0.832985 0.019190 -0.142152
v -0.835800 0.018507 -0.136579
v -0.836738 0.019492 -0.137562
v -0.838573 0.019337 -0.140433
v -0.837642 0.019560 -0.141434
v -0.837087 0.018803 -0.142192
v -0.836476 0.017760 -0.141886
v -0.837458 0.017645 -0.140912
v -0.837698 0.017678 -0.139653
v -0.838429 0.018377 -0.139169
v -0.838583 0.019037 -0.139268
v -0.838613 0.018477 -0.140936
v -0.837877 0.019856 -0.139945
v -0.836552 0.019877 -0.141439
v -0.835075 0.019028 -0.142496
v -0.834900 0.017660 -0.141854
v -0.836148 0.017466 -0.140510
v -0.836638 0.017549 -0.138906
v -0.837286 0.018399 -0.137796
v -0.837900 0.019300 -0.138381
v -0.824203 0.016263 -0.136993
v -0.823506 0.016145 -0.138471
v -0.823283 0.017393 -0.139017
v -0.823666 0.018398 -0.137343
v -0.824705 0.018724 -0.135107
v -0.825694 0.018323 -0.133535
v -0.825684 0.017084 -0.133822
v -0.825020 0.016605 -0.135176
v -0.825559 0.015732 -0.137246
v -0.824505 0.016145 -0.139161
v -0.823962 0.017816 -0.139976
v -0.824422 0.019647 -0.137805
v -0.825432 0.020090 -0.134872
v -0.827318 0.019313 -0.132791
v -0.826857 0.017016 -0.132889
v -0.826439 0.015973 -0.135255
v -0.830665 0.017394 -0.137544
v -0.831290 0.018111 -0.136322
v -0.831693 0.019057 -0.135863
v -0.831414 0.019803 -0.136740
v -0.830656 0.020011 -0.138255
v -0.829852 0.019343 -0.139616
v -0.829577 0.018246 -0.139747
v -0.829959 0.017419 -0.138952
v -0.832101 0.017585 -0.137994
v -0.831509 0.017716 -0.139347
v -0.832425 0.020212 -0.138789
v -0.833061 0.019866 -0.137340
v -0.833028 0.019093 -0.136540
v -0.832562 0.018232 -0.136827
v -0.833908 0.017633 -0.138692
v -0.833423 0.017985 -0.139992
v -0.831118 0.018490 -0.140143
v -0.831455 0.019550 -0.140092
v -0.834567 0.020230 -0.139683
v -0.833005 0.019791 -0.140871
v -0.832224 0.018497 -0.140831
v -0.834050 0.017983 -0.137055
v -0.835383 0.019946 -0.137987
v -0.834903 0.019153 -0.136729
v -0.838279 0.019140 -0.141397
v -0.837583 0.018106 -0.141650
v -0.838297 0.017996 -0.140200
v -0.838787 0.018821 -0.139948
v -0.829150 0.017545 -0.135307
v -0.826791 0.017642 -0.139460
v -0.824739 0.016995 -0.139763
v -0.826929 0.018991 -0.139096
v -0.824842 0.018924 -0.139113
v -0.827391 0.016711 -0.138512
v -0.825674 0.016021 -0.138373
v -0.828263 0.016720 -0.136847
v -0.826704 0.016025 -0.136410
v -0.827417 0.016679 -0.134354
v -0.829457 0.018747 -0.134642
v -0.828104 0.018416 -0.133062
v -0.828728 0.019522 -0.135699
v -0.827205 0.019731 -0.134438
v -0.827717 0.019708 -0.137342
v -0.825727 0.019923 -0.136656
v -0.823370 0.016683 -0.139445
v -0.825698 0.019542 -0.133639
v -0.826350 0.017920 -0.132879
v -0.823508 0.016917 -0.138074
v -0.824450 0.015781 -0.138044
v -0.823611 0.018543 -0.138778
v -0.824199 0.019572 -0.136173
v -0.823754 0.017147 -0.135867
v -0.825063 0.017497 -0.134311
v -0.825712 0.016270 -0.134090
v -0.825300 0.016011 -0.136137
v -0.833220 0.017686 -0.138362
v -0.833526 0.018221 -0.137071
v -0.834148 0.019099 -0.136835
v -0.834419 0.019890 -0.137771
v -0.833770 0.020263 -0.139313
v -0.832521 0.019702 -0.140514
v -0.831999 0.018550 -0.140550
v -0.832725 0.017912 -0.139706
v -0.828053 0.017930 -0.139570
v -0.828532 0.017045 -0.138686
v -0.829391 0.017073 -0.137142
v -0.830146 0.017853 -0.135750
v -0.830518 0.018959 -0.135180
v -0.829935 0.019684 -0.136181
v -0.829035 0.019831 -0.137748
v -0.828242 0.019156 -0.139294
v -0.825572 0.017280 -0.139558
v -0.826366 0.016349 -0.138375
v -0.827333 0.016347 -0.136578
v -0.828171 0.017133 -0.134768
v -0.828606 0.018538 -0.133891
v -0.827714 0.019504 -0.135096
v -0.826524 0.019703 -0.136960
v -0.825673 0.018924 -0.139059
v -0.829613 0.018803 -0.139865
v -0.829691 0.017768 -0.139422
v -0.830306 0.017283 -0.138294
v -0.830981 0.017723 -0.136884
v -0.831572 0.018569 -0.135899
v -0.831620 0.019478 -0.136181
v -0.831078 0.020007 -0.137467
v -0.830224 0.019777 -0.139046
v -0.826742 0.018332 -0.139599
v -0.827043 0.017134 -0.139000
v -0.827819 0.016565 -0.137718
v -0.828730 0.017140 -0.136070
v -0.829499 0.018096 -0.134648
v -0.829139 0.019159 -0.135079
v -0.828234 0.019740 -0.136466
v -0.827278 0.019445 -0.138252
v -0.831807 0.017550 -0.138718
v -0.832335 0.017862 -0.137339
v -0.832823 0.018671 -0.136524
v -0.833121 0.019494 -0.136838
v -0.832840 0.020138 -0.138026
v -0.831966 0.019984 -0.139597
v -0.831196 0.019036 -0.140291
v -0.831227 0.018030 -0.139824
v -0.833817 0.017787 -0.139430
v -0.834544 0.017620 -0.138960
v -0.833909 0.017660 -0.137854
v -0.833882 0.017966 -0.140329
v -0.832737 0.018130 -0.140433
v -0.834442 0.017816 -0.140796
v -0.835419 0.017598 -0.139174
v -0.835140 0.020172 -0.138856
v -0.833795 0.020100 -0.140397
v -0.835220 0.020243 -0.140005
v -0.835273 0.019602 -0.137229
v -0.836080 0.019974 -0.138163
v -0.835527 0.019150 -0.136714
v -0.834384 0.018603 -0.136614
v -0.834545 0.017812 -0.136999
v -0.832282 0.018403 -0.141159
v -0.832307 0.019210 -0.140993
v -0.833346 0.019832 -0.141223
v -0.836135 0.020195 -0.140446
v -0.834127 0.019773 -0.141794
v -0.832636 0.018280 -0.141886
v -0.835365 0.017769 -0.137083
v -0.836289 0.019057 -0.136891
v -0.837024 0.019875 -0.138471
v -0.838180 0.019491 -0.141020
v -0.837475 0.019312 -0.141836
v -0.836766 0.018179 -0.142143
v -0.837004 0.017684 -0.141458
v -0.837688 0.017637 -0.140263
v -0.838091 0.017969 -0.139424
v -0.838606 0.018765 -0.139180
v -0.838661 0.019155 -0.139808
v -0.838732 0.018988 -0.140686
v -0.838713 0.018406 -0.140001
v -0.838081 0.018015 -0.140988
v -0.838023 0.018643 -0.141719
v -0.836956 0.017857 -0.138168
v -0.837604 0.018873 -0.137908
v -0.838034 0.019634 -0.139107
v -0.837299 0.019953 -0.140729
v -0.835534 0.017514 -0.141163
v -0.836444 0.017458 -0.139734
v -0.835781 0.019601 -0.142053
v -0.834741 0.018226 -0.142433
v -0.826174 0.015923 -0.137400
v -0.825173 0.016386 -0.139156
v -0.823847 0.016026 -0.137846
v -0.823192 0.016680 -0.138846
v -0.824665 0.017939 -0.139854
v -0.823410 0.017982 -0.138390
v -0.825284 0.019609 -0.137897
v -0.824203 0.018617 -0.136191
v -0.826345 0.019943 -0.135475
v -0.825187 0.018546 -0.134189
v -0.827872 0.019217 -0.133599
v -0.825737 0.017722 -0.133558
v -0.827729 0.017391 -0.133430
v -0.825407 0.016743 -0.134437
v -0.824611 0.016467 -0.136061
v -0.825605 0.016124 -0.135169
v -0.824012 0.016744 -0.139869
v -0.824057 0.018865 -0.139143
v -0.824798 0.019991 -0.136360
v -0.826513 0.019959 -0.133658
v -0.827339 0.018185 -0.132447
v -0.825064 0.015815 -0.138267
v -0.826071 0.015812 -0.136257
v -0.826657 0.016278 -0.134080
v -0.824907 0.015838 -0.137080
v -0.823843 0.016058 -0.138857
v -0.823407 0.017578 -0.139471
v -0.823837 0.019250 -0.137539
v -0.824778 0.019660 -0.134761
v -0.826390 0.018928 -0.132877
v -0.825915 0.016895 -0.133304
v -0.827182 0.016273 -0.135425
v -0.823253 0.016942 -0.137000
v -0.824388 0.017319 -0.134988
f 1 129 88
f 1 88 177
f 1 177 89
f 1 89 136
f 2 130 95
f 2 95 179
f 179 88 129
f 179 129 2
f 3 131 97
f 3 97 190
f 3 190 95
f 3 95 130
f 4 132 96
f 4 96 187
f 4 187 97
f 4 97 131
f 5 133 92
f 5 92 184
f 5 184 96
f 5 96 132
f 6 134 93
f 6 93 185
f 6 185 92
f 6 92 133
f 7 135 94
f 7 94 193
f 7 193 93
f 7 93 134
f 8 136 89
f 8 89 181
f 181 94 135
f 181 135 8
f 161 103 137
f 161 137 9
f 144 105 161
f 144 161 9
f 162 107 138
f 162 138 10
f 137 103 162
f 137 162 10
f 163 109 139
f 163 139 11
f 138 107 163
f 138 163 11
f 164 102 140
f 164 140 12
f 139 109 164
f 139 164 12
f 165 112 141
f 165 141 13
f 140 102 165
f 140 165 13
f 166 114 142
f 166 142 14
f 141 112 166
f 141 166 14
f 167 116 143
f 167 143 15
f 142 114 167
f 142 167 15
f 168 105 144
f 168 144 16
f 143 116 168
f 143 168 16
f 17 145 103
f 17 103 161
f 225 104 145
f 225 145 17
f 152 106 225
f 152 225 17
f 161 105 152
f 161 152 17
f 18 146 107
f 18 107 162
f 222 108 146
f 222 146 18
f 145 104 222
f 145 222 18
f 162 103 145
f 162 145 18
f 19 147 109
f 19 109 163
f 221 110 147
f 221 147 19
f 146 108 221
f 146 221 19
f 163 107 146
f 163 146 19
f 20 148 102
f 20 102 164
f 252 111 148
f 252 148 20
f 164 109 147
f 164 147 20
f 20 147 110
f 20 110 252
f 21 149 112
f 21 112 165
f 233 113 149
f 233 149 21
f 148 111 233
f 148 233 21
f 165 102 148
f 165 148 21
f 22 150 114
f 22 114 166
f 231 115 150
f 231 150 22
f 149 113 231
f 149 231 22
f 166 112 149
f 166 149 22
f 23 151 116
f 23 116 167
f 229 117 151
f 229 151 23
f 150 115 229
f 150 229 23
f 167 114 150
f 167 150 23
f 24 152 105
f 24 105 168
f 227 106 152
f 227 152 24
f 151 117 227
f 151 227 24
f 168 116 151
f 168 151 24
f 209 98 212
f 209 212 49
f 49 212 99
f 49 99 211
f 210 101 209
f 210 209 49
f 211 100 210
f 211 210 49
f 58 223 121
f 58 121 253
f 245 122 223
f 245 223 58
f 253 125 235
f 253 235 58
f 58 235 128
f 58 128 245
f 246 118 224
f 246 224 59
f 59 224 121
f 59 121 223
f 59 223 122
f 59 122 246
f 60 226 121
f 60 121 224
f 247 123 226
f 247 226 60
f 60 224 118
f 60 118 247
f 248 124 228
f 248 228 61
f 61 228 125
f 61 125 253
f 61 253 121
f 61 121 226
f 61 226 123
f 61 123 248
f 249 119 230
f 249 230 62
f 62 230 126
f 62 126 254
f 62 254 125
f 62 125 228
f 62 228 124
f 62 124 249
f 250 120 232
f 250 232 63
f 63 232 126
f 63 126 230
f 63 230 119
f 63 119 250
f 64 234 126
f 64 126 232
f 251 127 234
f 251 234 64
f 64 232 120
f 64 120 251
f 234 127 236
f 234 236 65
f 65 236 128
f 65 128 235
f 254 126 234
f 254 234 65
f 65 235 125
f 65 125 254
f 66 243 110
f 66 110 221
f 245 128 243
f 245 243 66
f 242 122 245
f 242 245 66
f 66 221 108
f 66 108 242
f 222 104 237
f 222 237 67
f 67 237 118
f 67 118 246
f 67 242 108
f 67 108 222
f 246 122 242
f 246 242 67
f 225 106 238
f 225 238 68
f 68 238 123
f 68 123 247
f 68 247 118
f 68 118 237
f 237 104 225
f 237 225 68
f 227 117 239
f 227 239 69
f 69 239 124
f 69 124 248
f 69 248 123
f 69 123 238
f 238 106 227
f 238 227 69
f 229 115 240
f 229 240 70
f 70 240 119
f 70 119 249
f 70 249 124
f 70 124 239
f 239 117 229
f 239 229 70
f 231 113 241
f 231 241 71
f 71 241 120
f 71 120 250
f 71 250 119
f 71 119 240
f 240 115 231
f 240 231 71
f 233 111 244
f 233 244 72
f 72 244 127
f 72 127 251
f 72 251 120
f 72 120 241
f 241 113 233
f 241 233 72
f 73 252 110
f 73 110 243
f 244 111 252
f 244 252 73
f 73 236 127
f 73 127 244
f 243 128 236
f 243 236 73
f 201 98 209
f 201 209 41
f 41 50 216
f 41 216 201
f 212 98 202
f 212 202 43
f 202 219 52
f 202 52 43
f 45 211 99
f 45 99 204
f 204 217 54
f 204 54 45
f 47 210 100
f 47 100 206
f 47 207 101
f 47 101 210
f 56 214 207
f 56 207 47
f 206 213 56
f 206 56 47
f 203 43 52
f 203 52 220
f 99 212 43
f 99 43 203
f 100 211 45
f 100 45 205
f 205 45 54
f 205 54 218
f 208 41 209
f 208 209 101
f 215 50 41
f 215 41 208
f 42 201 216
f 42 216 51
f 202 98 201
f 202 201 42
f 51 219 202
f 51 202 42
f 46 206 100
f 46 100 205
f 55 213 206
f 55 206 46
f 205 218 55
f 205 55 46
f 44 204 99
f 44 99 203
f 53 217 204
f 53 204 44
f 203 220 53
f 203 53 44
f 48 208 101
f 48 101 207
f 57 215 208
f 57 208 48
f 207 214 57
f 207 57 48
f 28 183 218
f 28 218 54
f 177 88 178
f 177 178 25
f 25 178 183
f 25 183 28
f 192 94 181
f 192 181 27
f 29 53 220
f 29 220 197
f 27 29 197
f 27 197 192
f 30 55 218
f 30 218 183
f 178 88 179
f 178 179 26
f 26 30 183
f 26 183 178
f 184 92 186
f 184 186 31
f 31 186 195
f 31 195 36
f 36 195 216
f 36 216 50
f 193 94 192
f 193 192 35
f 192 197 38
f 192 38 35
f 38 197 220
f 38 220 52
f 190 97 189
f 190 189 34
f 189 199 39
f 189 39 34
f 39 199 214
f 39 214 56
f 40 57 214
f 40 214 199
f 33 189 97
f 33 97 187
f 40 199 189
f 40 189 33
f 196 38 52
f 196 52 219
f 194 35 38
f 194 38 196
f 93 193 35
f 93 35 194
f 191 26 179
f 191 179 95
f 198 39 56
f 198 56 213
f 191 34 39
f 191 39 198
f 95 190 34
f 95 34 191
f 198 30 26
f 198 26 191
f 213 55 30
f 213 30 198
f 32 185 93
f 32 93 194
f 37 51 216
f 37 216 195
f 194 196 37
f 194 37 32
f 32 37 195
f 32 195 186
f 186 92 185
f 186 185 32
f 37 196 219
f 37 219 51
f 180 27 181
f 180 181 89
f 217 53 29
f 217 29 182
f 180 25 28
f 180 28 182
f 89 177 25
f 89 25 180
f 182 29 27
f 182 27 180
f 182 28 54
f 182 54 217
f 188 33 187
f 188 187 96
f 200 36 50
f 200 50 215
f 188 31 36
f 188 36 200
f 96 184 31
f 96 31 188
f 200 40 33
f 200 33 188
f 215 57 40
f 215 40 200
f 153 9 137
f 153 137 80
f 90 175 153
f 90 153 80
f 90 135 7
f 90 7 175
f 129 1 169
f 129 169 82
f 155 11 139
f 155 139 74
f 82 169 155
f 82 155 74
f 157 13 141
f 157 141 76
f 86 171 157
f 86 157 76
f 86 131 3
f 86 3 171
f 159 15 143
f 159 143 78
f 84 173 159
f 84 159 78
f 133 5 173
f 133 173 84
f 80 137 10
f 80 10 154
f 176 8 135
f 176 135 90
f 154 176 90
f 154 90 80
f 76 141 14
f 76 14 158
f 172 4 131
f 172 131 86
f 158 172 86
f 158 86 76
f 154 10 138
f 154 138 81
f 136 8 176
f 136 176 83
f 155 169 83
f 155 83 81
f 81 83 176
f 81 176 154
f 138 11 155
f 138 155 81
f 83 169 1
f 83 1 136
f 77 142 15
f 77 15 159
f 173 5 132
f 173 132 85
f 158 14 142
f 158 142 77
f 85 172 158
f 85 158 77
f 159 173 85
f 159 85 77
f 85 132 4
f 85 4 172
f 74 139 12
f 74 12 156
f 170 2 129
f 170 129 82
f 156 170 82
f 156 82 74
f 75 140 13
f 75 13 157
f 171 3 130
f 171 130 87
f 156 12 140
f 156 140 75
f 87 170 156
f 87 156 75
f 157 171 87
f 157 87 75
f 130 2 170
f 130 170 87
f 78 143 16
f 78 16 160
f 174 6 133
f 174 133 84
f 160 174 84
f 160 84 78
f 79 144 9
f 79 9 153
f 175 7 134
f 175 134 91
f 160 16 144
f 160 144 79
f 91 174 160
f 91 160 79
f 153 175 91
f 153 91 79
f 134 6 174
f 134 174 91
