# _5th_Middle_Phalanx_Foot_R posed
v 0.975398 0.228853 0.235595
v 0.975882 0.229202 0.235964
v 0.976227 0.228737 0.236525
v 0.975865 0.228216 0.236271
v 0.977127 0.228754 0.237476
v 0.977371 0.228086 0.237823
v 0.977525 0.228971 0.237827
v 0.977864 0.228381 0.238336
v 0.978291 0.229083 0.238888
v 0.977830 0.229482 0.238172
v 0.978148 0.231308 0.237887
v 0.977707 0.230980 0.237563
v 0.977853 0.230505 0.237909
v 0.978358 0.230781 0.238453
v 0.976647 0.228587 0.237047
v 0.976640 0.227962 0.237032
v 0.975337 0.229850 0.235131
v 0.975789 0.229940 0.235614
v 0.975570 0.230961 0.235094
v 0.975886 0.230708 0.235596
v 0.975882 0.231907 0.235347
v 0.976102 0.231257 0.235850
v 0.976332 0.232653 0.235747
v 0.976388 0.231785 0.236191
v 0.976761 0.233081 0.236239
v 0.976630 0.232152 0.236530
v 0.977470 0.231525 0.237283
v 0.977871 0.232093 0.237465
v 0.977031 0.232094 0.236921
v 0.977333 0.232876 0.236956
v 0.977938 0.230046 0.238258
v 0.978423 0.229989 0.238947
v 0.976343 0.230387 0.236122
v 0.976504 0.229793 0.236421
v 0.976709 0.229279 0.236840
v 0.976713 0.230848 0.236539
v 0.976944 0.230227 0.236835
v 0.977205 0.229712 0.237219
v 0.977111 0.231224 0.236965
v 0.977375 0.230629 0.237255
v 0.977560 0.230161 0.237571
v 0.979256 0.228141 0.237565
v 0.978666 0.227776 0.237002
v 0.978133 0.227732 0.236416
v 0.977554 0.228010 0.235680
v 0.977148 0.228484 0.235045
v 0.976961 0.229233 0.234558
v 0.976976 0.230131 0.234348
v 0.977154 0.231055 0.234369
v 0.977553 0.231973 0.234560
v 0.978040 0.232415 0.235020
v 0.978699 0.232554 0.235650
v 0.979212 0.231887 0.236511
v 0.979494 0.231239 0.237060
v 0.979689 0.230574 0.237521
v 0.979872 0.229700 0.237908
v 0.979654 0.228790 0.237896
v 0.980426 0.227969 0.236427
v 0.980019 0.227587 0.236051
v 0.979505 0.227398 0.235476
v 0.979000 0.227779 0.234734
v 0.978732 0.228237 0.234284
v 0.978608 0.228900 0.233901
v 0.978586 0.229721 0.233625
v 0.978736 0.230560 0.233545
v 0.979055 0.231277 0.233706
v 0.979484 0.231675 0.234097
v 0.980004 0.231861 0.234661
v 0.980502 0.231416 0.235438
v 0.980725 0.230731 0.235957
v 0.980856 0.230076 0.236340
v 0.980918 0.229308 0.236611
v 0.980759 0.228636 0.236655
v 0.981249 0.227876 0.235814
v 0.980818 0.227376 0.235470
v 0.980344 0.227257 0.234930
v 0.979933 0.227564 0.234248
v 0.979710 0.228161 0.233801
v 0.979545 0.228753 0.233417
v 0.979453 0.229615 0.233096
v 0.979578 0.230429 0.233034
v 0.979875 0.231044 0.233225
v 0.980278 0.231379 0.233608
v 0.980734 0.231539 0.234103
v 0.981235 0.231059 0.234851
v 0.981480 0.230374 0.235341
v 0.981632 0.229753 0.235713
v 0.981688 0.229046 0.236000
v 0.981558 0.228455 0.236032
v 0.982805 0.227136 0.234923
v 0.982320 0.226807 0.234447
v 0.981824 0.226832 0.233871
v 0.981468 0.227294 0.233327
v 0.981226 0.227790 0.232914
v 0.981053 0.228342 0.232562
v 0.980912 0.229042 0.232224
v 0.981001 0.229795 0.232121
v 0.981311 0.230578 0.232283
v 0.981821 0.230991 0.232752
v 0.982348 0.230937 0.233388
v 0.982731 0.230418 0.233957
v 0.982958 0.229901 0.234356
v 0.983157 0.229400 0.234740
v 0.983282 0.228710 0.235087
v 0.983356 0.227966 0.235335
v 0.979020 0.231441 0.237573
v 0.978693 0.232130 0.237067
v 0.979214 0.230812 0.238096
v 0.979374 0.229861 0.238535
v 0.978150 0.232789 0.236403
v 0.977406 0.232894 0.235582
v 0.976837 0.232342 0.235088
v 0.976430 0.231513 0.234705
v 0.976202 0.230517 0.234507
v 0.976087 0.229445 0.234625
v 0.976231 0.228443 0.235160
v 0.976748 0.227864 0.235923
v 0.977394 0.227711 0.236668
v 0.978057 0.227728 0.237387
v 0.978570 0.228110 0.237977
v 0.979103 0.228872 0.238497
v 0.978630 0.231499 0.237845
v 0.978323 0.232218 0.237365
v 0.978813 0.230904 0.238375
v 0.978960 0.229981 0.238888
v 0.977762 0.232975 0.236729
v 0.977049 0.233114 0.235848
v 0.976539 0.232579 0.235349
v 0.976071 0.231794 0.234949
v 0.975748 0.230809 0.234673
v 0.975673 0.228526 0.235269
v 0.977001 0.227705 0.236862
v 0.975594 0.229636 0.234716
v 0.976270 0.227865 0.236070
v 0.977729 0.227711 0.237661
v 0.978252 0.228113 0.238270
v 0.978762 0.228881 0.238823
v 0.982168 0.230441 0.231861
v 0.982694 0.230745 0.232354
v 0.983192 0.230568 0.232957
v 0.983526 0.230114 0.233462
v 0.983771 0.229656 0.233869
v 0.984011 0.229147 0.234288
v 0.984169 0.228438 0.234675
v 0.984088 0.227719 0.234827
v 0.983598 0.226967 0.234521
v 0.983086 0.226588 0.234025
v 0.982537 0.226576 0.233421
v 0.982111 0.226960 0.232833
v 0.981825 0.227484 0.232361
v 0.981624 0.228074 0.231963
v 0.981511 0.228782 0.231627
v 0.981659 0.229558 0.231560
v 0.983810 0.229129 0.233392
v 0.983989 0.228674 0.233712
v 0.984117 0.228203 0.234019
v 0.984085 0.227704 0.234196
v 0.983802 0.227244 0.234066
v 0.983360 0.226866 0.233669
v 0.982876 0.226841 0.233195
v 0.982624 0.227108 0.232764
v 0.982411 0.227606 0.232340
v 0.982226 0.228086 0.231968
v 0.982199 0.228600 0.231753
v 0.982306 0.229184 0.231695
v 0.982712 0.229781 0.231921
v 0.983088 0.229951 0.232280
v 0.983348 0.229860 0.232614
v 0.983604 0.229512 0.233016
v 0.983407 0.229849 0.234177
v 0.983164 0.230367 0.233768
v 0.982818 0.230907 0.233239
v 0.983619 0.229349 0.234550
v 0.983783 0.228647 0.234992
v 0.983815 0.227797 0.235212
v 0.982262 0.231030 0.232497
v 0.981701 0.230581 0.231994
v 0.981266 0.229714 0.231764
v 0.981150 0.228872 0.231889
v 0.981276 0.228168 0.232217
v 0.981480 0.227591 0.232610
v 0.981755 0.227086 0.233060
v 0.982152 0.226652 0.233632
v 0.982693 0.226595 0.234289
v 0.983221 0.226943 0.234816
v 0.983130 0.227512 0.233008
v 0.982923 0.228018 0.232604
v 0.982714 0.228482 0.232205
v 0.983530 0.227937 0.233276
v 0.983323 0.228400 0.232877
v 0.983110 0.228890 0.232468
v 0.983786 0.228347 0.233500
v 0.983616 0.228720 0.233123
v 0.983404 0.229187 0.232748
v 0.982079 0.227437 0.235380
v 0.981653 0.227077 0.234924
v 0.981199 0.226967 0.234441
v 0.980797 0.227380 0.233788
v 0.980554 0.227956 0.233292
v 0.980403 0.228544 0.232957
v 0.980271 0.229353 0.232616
v 0.980386 0.230204 0.232541
v 0.980686 0.230795 0.232761
v 0.981140 0.231110 0.233201
v 0.981544 0.231134 0.233709
v 0.981964 0.230552 0.234331
v 0.982207 0.230030 0.234713
v 0.982434 0.229521 0.235158
v 0.982520 0.228847 0.235484
v 0.982440 0.228113 0.235572
v 0.979856 0.228048 0.237071
v 0.979286 0.227655 0.236588
v 0.978812 0.227585 0.236066
v 0.978271 0.227907 0.235267
v 0.977923 0.228385 0.234735
v 0.977755 0.229036 0.234314
v 0.977741 0.229896 0.234034
v 0.977922 0.230753 0.233973
v 0.978284 0.231552 0.234139
v 0.978745 0.232009 0.234553
v 0.979309 0.232227 0.235136
v 0.979818 0.231696 0.235968
v 0.979997 0.230933 0.236488
v 0.980210 0.230318 0.236927
v 0.980353 0.229506 0.237255
v 0.980188 0.228779 0.237298
f 22 20 18
f 22 18 33
f 33 18 2
f 33 2 34
f 35 3 15
f 35 15 5
f 34 2 3
f 34 3 35
f 36 24 22
f 36 22 33
f 39 27 29
f 39 29 26
f 39 26 24
f 39 24 36
f 37 36 33
f 37 33 34
f 40 12 27
f 40 27 39
f 40 39 36
f 40 36 37
f 38 35 5
f 38 5 7
f 38 37 34
f 38 34 35
f 41 13 12
f 41 12 40
f 41 38 7
f 41 7 10
f 10 31 13
f 10 13 41
f 41 40 37
f 41 37 38
f 4 3 2
f 4 2 1
f 1 2 18
f 1 18 17
f 131 134 4
f 131 4 1
f 1 17 133
f 1 133 131
f 16 15 3
f 16 3 4
f 134 132 16
f 134 16 4
f 8 7 5
f 8 5 6
f 6 5 15
f 6 15 16
f 135 136 8
f 135 8 6
f 6 16 132
f 6 132 135
f 9 10 7
f 9 7 8
f 136 137 9
f 136 9 8
f 32 31 10
f 32 10 9
f 137 125 32
f 137 32 9
f 11 12 13
f 11 13 14
f 28 27 12
f 28 12 11
f 11 14 124
f 11 124 122
f 122 123 28
f 122 28 11
f 14 13 31
f 14 31 32
f 14 32 125
f 14 125 124
f 17 18 20
f 17 20 19
f 17 19 130
f 17 130 133
f 19 20 22
f 19 22 21
f 19 21 129
f 19 129 130
f 21 22 24
f 21 24 23
f 21 23 128
f 21 128 129
f 23 24 26
f 23 26 25
f 23 25 127
f 23 127 128
f 25 26 29
f 25 29 30
f 25 30 126
f 25 126 127
f 30 29 27
f 30 27 28
f 123 126 30
f 123 30 28
f 106 107 123
f 106 123 122
f 122 124 108
f 122 108 106
f 107 110 126
f 107 126 123
f 124 125 109
f 124 109 108
f 125 137 121
f 125 121 109
f 110 111 127
f 110 127 126
f 111 112 128
f 111 128 127
f 112 113 129
f 112 129 128
f 113 114 130
f 113 130 129
f 114 115 133
f 114 133 130
f 115 116 131
f 115 131 133
f 116 117 134
f 116 134 131
f 117 118 132
f 117 132 134
f 118 119 135
f 118 135 132
f 119 120 136
f 119 136 135
f 120 121 137
f 120 137 136
f 170 142 141
f 170 141 171
f 171 141 140
f 171 140 172
f 173 143 142
f 173 142 170
f 174 144 143
f 174 143 173
f 175 145 144
f 175 144 174
f 172 140 139
f 172 139 176
f 177 176 139
f 177 139 138
f 178 177 138
f 178 138 153
f 178 153 152
f 178 152 179
f 180 179 152
f 180 152 151
f 181 180 151
f 181 151 150
f 182 181 150
f 182 150 149
f 183 182 149
f 183 149 148
f 184 183 148
f 184 148 147
f 146 145 175
f 146 175 185
f 185 184 147
f 185 147 146
f 159 147 148
f 159 148 160
f 161 160 148
f 161 148 149
f 162 161 149
f 162 149 150
f 163 151 152
f 163 152 164
f 163 162 150
f 163 150 151
f 165 164 152
f 165 152 153
f 158 146 147
f 158 147 159
f 159 160 161
f 159 161 186
f 186 161 162
f 186 162 187
f 188 163 164
f 188 164 165
f 187 162 163
f 187 163 188
f 166 165 153
f 166 153 138
f 157 156 144
f 157 144 145
f 157 145 146
f 157 146 158
f 155 143 144
f 155 144 156
f 192 157 158
f 192 158 189
f 189 158 159
f 189 159 186
f 192 155 156
f 192 156 157
f 154 142 143
f 154 143 155
f 190 189 186
f 190 186 187
f 193 154 155
f 193 155 192
f 193 192 189
f 193 189 190
f 191 188 165
f 191 165 166
f 169 168 140
f 169 140 141
f 169 141 142
f 169 142 154
f 191 190 187
f 191 187 188
f 167 139 140
f 167 140 168
f 194 169 154
f 194 154 193
f 167 166 138
f 167 138 139
f 194 191 166
f 194 166 167
f 167 168 169
f 167 169 194
f 194 193 190
f 194 190 191
f 195 74 75
f 195 75 196
f 184 185 90
f 184 90 91
f 91 90 195
f 91 195 196
f 196 75 76
f 196 76 197
f 183 184 91
f 183 91 92
f 92 91 196
f 92 196 197
f 197 76 77
f 197 77 198
f 182 183 92
f 182 92 93
f 93 92 197
f 93 197 198
f 198 77 78
f 198 78 199
f 181 182 93
f 181 93 94
f 94 93 198
f 94 198 199
f 199 78 79
f 199 79 200
f 180 181 94
f 180 94 95
f 95 94 199
f 95 199 200
f 200 79 80
f 200 80 201
f 179 180 95
f 179 95 96
f 96 95 200
f 96 200 201
f 201 80 81
f 201 81 202
f 178 179 96
f 178 96 97
f 97 96 201
f 97 201 202
f 202 81 82
f 202 82 203
f 177 178 97
f 177 97 98
f 98 97 202
f 98 202 203
f 203 82 83
f 203 83 204
f 176 177 98
f 176 98 99
f 99 98 203
f 99 203 204
f 204 83 84
f 204 84 205
f 172 176 99
f 172 99 100
f 100 99 204
f 100 204 205
f 205 84 85
f 205 85 206
f 171 172 100
f 171 100 101
f 101 100 205
f 101 205 206
f 206 85 86
f 206 86 207
f 170 171 101
f 170 101 102
f 102 101 206
f 102 206 207
f 207 86 87
f 207 87 208
f 173 170 102
f 173 102 103
f 103 102 207
f 103 207 208
f 208 87 88
f 208 88 209
f 174 173 103
f 174 103 104
f 104 103 208
f 104 208 209
f 210 195 90
f 210 90 105
f 210 89 74
f 210 74 195
f 175 174 104
f 175 104 105
f 105 104 209
f 105 209 210
f 105 90 185
f 105 185 175
f 209 88 89
f 209 89 210
f 42 43 212
f 42 212 211
f 120 119 43
f 120 43 42
f 211 226 57
f 211 57 42
f 42 57 121
f 42 121 120
f 43 44 213
f 43 213 212
f 119 118 44
f 119 44 43
f 44 45 214
f 44 214 213
f 118 117 45
f 118 45 44
f 45 46 215
f 45 215 214
f 117 116 46
f 117 46 45
f 46 47 216
f 46 216 215
f 116 115 47
f 116 47 46
f 47 48 217
f 47 217 216
f 115 114 48
f 115 48 47
f 48 49 218
f 48 218 217
f 114 113 49
f 114 49 48
f 49 50 219
f 49 219 218
f 113 112 50
f 113 50 49
f 50 51 220
f 50 220 219
f 112 111 51
f 112 51 50
f 51 52 221
f 51 221 220
f 111 110 52
f 111 52 51
f 52 53 222
f 52 222 221
f 110 107 53
f 110 53 52
f 53 54 223
f 53 223 222
f 107 106 54
f 107 54 53
f 54 55 224
f 54 224 223
f 106 108 55
f 106 55 54
f 55 56 225
f 55 225 224
f 108 109 56
f 108 56 55
f 56 57 226
f 56 226 225
f 109 121 57
f 109 57 56
f 58 59 75
f 58 75 74
f 211 212 59
f 211 59 58
f 74 89 73
f 74 73 58
f 58 73 226
f 58 226 211
f 59 60 76
f 59 76 75
f 212 213 60
f 212 60 59
f 60 61 77
f 60 77 76
f 213 214 61
f 213 61 60
f 61 62 78
f 61 78 77
f 214 215 62
f 214 62 61
f 62 63 79
f 62 79 78
f 215 216 63
f 215 63 62
f 63 64 80
f 63 80 79
f 216 217 64
f 216 64 63
f 64 65 81
f 64 81 80
f 217 218 65
f 217 65 64
f 65 66 82
f 65 82 81
f 218 219 66
f 218 66 65
f 66 67 83
f 66 83 82
f 219 220 67
f 219 67 66
f 67 68 84
f 67 84 83
f 220 221 68
f 220 68 67
f 68 69 85
f 68 85 84
f 221 222 69
f 221 69 68
f 69 70 86
f 69 86 85
f 222 223 70
f 222 70 69
f 70 71 87
f 70 87 86
f 223 224 71
f 223 71 70
f 71 72 88
f 71 88 87
f 224 225 72
f 224 72 71
f 72 73 89
f 72 89 88
f 225 226 73
f 225 73 72
