# _5th_Metacarpal_R rest
v -0.795175 0.025090 -0.109019
v -0.796745 0.027281 -0.110461
v -0.798072 0.025461 -0.111580
v -0.796561 0.023298 -0.110690
v -0.791613 0.027943 -0.115175
v -0.793311 0.025509 -0.116535
v -0.794966 0.026381 -0.116299
v -0.794388 0.027625 -0.115131
v -0.795950 0.028630 -0.112606
v -0.794670 0.019916 -0.115673
v -0.796640 0.020208 -0.112037
v -0.792601 0.022966 -0.117215
v -0.797705 0.027569 -0.114232
v -0.795656 0.023985 -0.118376
v -0.799110 0.022253 -0.113364
v -0.798499 0.022942 -0.116590
v -0.793263 0.028853 -0.110824
v -0.789073 0.024567 -0.114954
v -0.790887 0.021754 -0.112539
v -0.793709 0.021322 -0.109456
v -0.791228 0.025638 -0.107814
v -0.789733 0.029437 -0.109016
v -0.787306 0.029661 -0.111926
v -0.786733 0.025910 -0.112278
v -0.788374 0.023437 -0.110080
v -0.790533 0.023913 -0.108565
v -0.785012 0.025913 -0.105470
v -0.785307 0.027497 -0.104925
v -0.784470 0.030574 -0.105839
v -0.782403 0.030512 -0.108732
v -0.782394 0.026894 -0.108919
v -0.783959 0.025071 -0.106714
v -0.778121 0.026818 -0.101329
v -0.778517 0.028682 -0.100838
v -0.777874 0.031238 -0.101639
v -0.775981 0.030802 -0.104511
v -0.775930 0.027487 -0.104610
v -0.777101 0.026190 -0.102684
v -0.771252 0.026289 -0.096945
v -0.771580 0.028887 -0.096945
v -0.770742 0.031653 -0.098165
v -0.769079 0.030565 -0.100563
v -0.768992 0.027334 -0.100359
v -0.769902 0.026214 -0.098643
v -0.765947 0.024769 -0.093074
v -0.766531 0.027624 -0.092329
v -0.765115 0.030773 -0.094763
v -0.762975 0.029808 -0.097887
v -0.763150 0.026012 -0.097376
v -0.764094 0.024963 -0.095555
v -0.759937 0.022740 -0.093945
v -0.759017 0.024529 -0.094946
v -0.762081 0.021678 -0.090435
v -0.758550 0.029490 -0.095475
v -0.762977 0.026602 -0.089002
v -0.760698 0.029260 -0.091452
v -0.797641 0.027917 -0.111880
v -0.796886 0.025984 -0.116997
v -0.799462 0.024697 -0.113870
v -0.795469 0.028191 -0.114610
v -0.795739 0.021634 -0.118039
v -0.797945 0.020677 -0.114978
v -0.798052 0.022525 -0.111527
v -0.794095 0.024657 -0.117378
v -0.796660 0.025375 -0.110498
v -0.795775 0.028222 -0.110126
v -0.793600 0.028738 -0.113469
v -0.794143 0.026363 -0.115981
v -0.790974 0.025815 -0.116402
v -0.791207 0.021623 -0.115345
v -0.794038 0.020144 -0.112446
v -0.795594 0.022414 -0.109896
v -0.774953 0.027968 -0.098899
v -0.774864 0.030367 -0.099096
v -0.773326 0.031875 -0.101400
v -0.772204 0.028929 -0.103008
v -0.772987 0.026956 -0.101405
v -0.774088 0.026046 -0.099747
v -0.790367 0.029675 -0.111378
v -0.786190 0.030532 -0.108995
v -0.780263 0.031689 -0.105196
v -0.788171 0.027520 -0.114119
v -0.784555 0.028289 -0.111116
v -0.779030 0.029089 -0.107204
v -0.788580 0.023510 -0.112751
v -0.785608 0.024993 -0.109726
v -0.779959 0.026234 -0.105862
v -0.791154 0.022451 -0.109930
v -0.781239 0.025943 -0.103982
v -0.787458 0.024506 -0.107639
v -0.793042 0.027956 -0.108531
v -0.788145 0.028494 -0.106797
v -0.793111 0.023677 -0.108497
v -0.788306 0.025566 -0.107150
v -0.781829 0.027087 -0.103087
v -0.781843 0.029598 -0.102900
v -0.766156 0.026179 -0.097801
v -0.767510 0.025319 -0.095916
v -0.765385 0.028504 -0.099745
v -0.768712 0.026778 -0.094455
v -0.768196 0.029817 -0.095452
v -0.766494 0.031507 -0.097835
v -0.763823 0.029200 -0.091492
v -0.760278 0.027188 -0.096864
v -0.761567 0.024645 -0.095314
v -0.761922 0.031239 -0.095165
v -0.763022 0.023272 -0.093716
v -0.758356 0.023492 -0.092555
v -0.764620 0.024778 -0.090253
v -0.760012 0.025265 -0.090398
v -0.757787 0.026705 -0.092027
v -0.796130 0.026727 -0.109684
v -0.797426 0.026916 -0.111044
v -0.797383 0.023889 -0.111272
v -0.795640 0.023666 -0.110020
v -0.792382 0.026425 -0.116109
v -0.794271 0.025473 -0.116609
v -0.794883 0.027234 -0.115486
v -0.793313 0.027873 -0.115024
v -0.796675 0.028257 -0.111146
v -0.794877 0.028407 -0.114077
v -0.792635 0.024813 -0.116901
v -0.795936 0.019731 -0.113981
v -0.796762 0.021971 -0.110680
v -0.793192 0.020749 -0.116941
v -0.798779 0.026721 -0.112592
v -0.796741 0.028448 -0.113346
v -0.796034 0.027661 -0.115465
v -0.795282 0.025434 -0.117621
v -0.794607 0.023121 -0.118150
v -0.799075 0.023505 -0.112421
v -0.798302 0.021041 -0.113005
v -0.797114 0.023436 -0.118014
v -0.798621 0.025597 -0.115673
v -0.799143 0.022453 -0.114826
v -0.797145 0.020962 -0.116719
v -0.794730 0.028661 -0.111731
v -0.791990 0.029232 -0.112521
v -0.794665 0.028093 -0.109131
v -0.790596 0.023550 -0.116174
v -0.789677 0.022745 -0.113870
v -0.792512 0.020725 -0.113967
v -0.792469 0.021128 -0.110989
v -0.795109 0.020401 -0.110642
v -0.789620 0.026914 -0.115375
v -0.794539 0.023108 -0.109045
v -0.793496 0.025248 -0.108084
v -0.791680 0.029164 -0.109957
v -0.790850 0.028009 -0.107952
v -0.788538 0.030047 -0.110307
v -0.789126 0.029203 -0.113272
v -0.786525 0.027860 -0.112709
v -0.787997 0.025325 -0.113719
v -0.787332 0.024294 -0.111414
v -0.789678 0.022617 -0.111367
v -0.789666 0.023569 -0.108995
v -0.792365 0.022630 -0.109013
v -0.791039 0.024562 -0.108222
v -0.785192 0.026457 -0.105212
v -0.785159 0.029253 -0.104983
v -0.783460 0.031131 -0.107219
v -0.782127 0.028679 -0.109242
v -0.783129 0.025607 -0.107864
v -0.784639 0.025322 -0.105880
v -0.778399 0.027577 -0.100986
v -0.778350 0.029874 -0.100974
v -0.776876 0.031957 -0.103185
v -0.775622 0.029063 -0.105099
v -0.776538 0.026669 -0.103594
v -0.777660 0.026262 -0.101877
v -0.771675 0.027550 -0.096621
v -0.771362 0.030340 -0.097305
v -0.769766 0.031681 -0.099575
v -0.768700 0.028884 -0.101167
v -0.769401 0.026784 -0.099424
v -0.770585 0.025788 -0.097752
v -0.766422 0.025874 -0.092261
v -0.765893 0.029393 -0.093639
v -0.763863 0.031343 -0.096547
v -0.762770 0.027726 -0.098365
v -0.763518 0.025427 -0.096358
v -0.764981 0.024369 -0.094439
v -0.781613 0.026455 -0.103464
v -0.781981 0.028197 -0.102835
v -0.781279 0.031036 -0.103648
v -0.779327 0.030775 -0.106627
v -0.779229 0.027332 -0.106977
v -0.780679 0.025777 -0.104758
v -0.774639 0.026794 -0.099113
v -0.775034 0.029156 -0.098871
v -0.774269 0.031551 -0.099957
v -0.772568 0.030716 -0.102505
v -0.772581 0.027550 -0.102216
v -0.773450 0.026313 -0.100664
v -0.768249 0.025794 -0.094920
v -0.768731 0.028250 -0.094620
v -0.767561 0.031271 -0.096338
v -0.765702 0.030338 -0.099020
v -0.765732 0.026735 -0.098948
v -0.766711 0.025739 -0.096905
v -0.787268 0.029945 -0.107719
v -0.785062 0.030136 -0.110458
v -0.784908 0.026414 -0.110680
v -0.786550 0.024283 -0.108492
v -0.788014 0.025007 -0.107359
v -0.788407 0.026513 -0.106820
v -0.762177 0.024054 -0.094682
v -0.760882 0.025258 -0.095933
v -0.760256 0.024077 -0.094761
v -0.761599 0.022167 -0.093136
v -0.764299 0.023062 -0.091820
v -0.757997 0.026670 -0.095370
v -0.760732 0.029520 -0.096745
v -0.764743 0.027085 -0.090061
v -0.762456 0.024252 -0.088974
v -0.763257 0.030585 -0.093458
v -0.761280 0.028349 -0.090446
v -0.758928 0.030404 -0.092334
v -0.757631 0.024446 -0.092677
v -0.759663 0.023159 -0.091329
v -0.795757 0.024144 -0.110365
v -0.795680 0.025159 -0.109722
v -0.796160 0.026130 -0.110118
v -0.796551 0.026759 -0.110669
v -0.797020 0.026292 -0.111005
v -0.797446 0.025530 -0.111366
v -0.797006 0.024466 -0.111181
v -0.796397 0.023721 -0.110851
v -0.793819 0.027048 -0.115441
v -0.793121 0.026983 -0.115607
v -0.793418 0.026299 -0.116026
v -0.793775 0.025746 -0.116324
v -0.794291 0.025838 -0.116290
v -0.794683 0.026225 -0.116145
v -0.794632 0.026708 -0.115707
v -0.794340 0.027092 -0.115412
v -0.761961 0.027578 -0.089211
v -0.761806 0.030463 -0.092346
v -0.760443 0.031150 -0.093636
v -0.757777 0.024092 -0.093973
v -0.760735 0.022310 -0.090622
v -0.761462 0.024794 -0.088979
v -0.758921 0.026169 -0.091480
v -0.762120 0.029629 -0.091322
v -0.756931 0.026389 -0.093781
v -0.757401 0.029041 -0.093998
v -0.797100 0.028173 -0.111540
v -0.797347 0.028285 -0.112557
v -0.796358 0.028563 -0.113010
v -0.796387 0.028507 -0.111819
v -0.796832 0.028457 -0.112219
v -0.796052 0.028421 -0.114049
v -0.795243 0.028302 -0.114347
v -0.795398 0.028590 -0.113381
v -0.795780 0.028514 -0.113739
v -0.795397 0.028623 -0.112176
v -0.795288 0.028478 -0.110877
v -0.796257 0.028256 -0.110671
v -0.795887 0.028490 -0.111360
v -0.794314 0.028529 -0.113809
v -0.794117 0.028780 -0.112579
v -0.794827 0.028645 -0.113002
v -0.797615 0.020781 -0.115885
v -0.796990 0.020012 -0.114615
v -0.795443 0.019777 -0.114890
v -0.796019 0.020223 -0.116384
v -0.796607 0.020084 -0.115546
v -0.794918 0.019837 -0.113208
v -0.793342 0.020401 -0.113229
v -0.793438 0.020153 -0.114794
v -0.794288 0.019947 -0.114046
v -0.793814 0.020159 -0.116349
v -0.794511 0.020953 -0.117652
v -0.796503 0.021217 -0.117477
v -0.795229 0.020444 -0.117110
v -0.791732 0.021053 -0.114684
v -0.792105 0.021055 -0.116141
v -0.792634 0.020428 -0.115497
v -0.798164 0.020732 -0.114004
v -0.797511 0.020466 -0.112586
v -0.796290 0.019853 -0.113019
v -0.797275 0.020106 -0.113616
v -0.798312 0.021689 -0.112100
v -0.797415 0.022129 -0.111088
v -0.796847 0.020938 -0.111137
v -0.797619 0.021170 -0.111639
v -0.795847 0.020226 -0.111377
v -0.794599 0.020053 -0.111559
v -0.795398 0.019898 -0.112312
v -0.796145 0.022103 -0.110294
v -0.795448 0.021319 -0.110039
v -0.796117 0.021022 -0.110598
v -0.793675 0.022895 -0.117725
v -0.795097 0.022290 -0.118283
v -0.792841 0.021807 -0.117255
v -0.794023 0.021826 -0.117896
v -0.793409 0.024596 -0.117126
v -0.794249 0.023942 -0.117817
v -0.792504 0.023966 -0.117134
v -0.793433 0.023830 -0.117467
v -0.791546 0.023209 -0.116726
v -0.790630 0.024780 -0.116393
v -0.791775 0.025255 -0.116721
v -0.791540 0.024305 -0.116798
v -0.790825 0.022518 -0.115838
v -0.791789 0.022130 -0.116551
v -0.797836 0.025871 -0.116413
v -0.796503 0.026999 -0.116211
v -0.796863 0.027758 -0.114959
v -0.798223 0.026739 -0.114928
v -0.797386 0.026972 -0.115643
v -0.795681 0.028005 -0.114944
v -0.797203 0.028141 -0.113717
v -0.796366 0.028203 -0.114419
v -0.799270 0.025835 -0.113192
v -0.799174 0.025212 -0.114783
v -0.798379 0.027217 -0.113365
v -0.798887 0.026378 -0.114053
v -0.798227 0.027402 -0.112199
v -0.797883 0.027843 -0.112901
v -0.795988 0.025837 -0.117430
v -0.797176 0.024705 -0.117673
v -0.796251 0.023744 -0.118366
v -0.795488 0.024668 -0.118136
v -0.796242 0.024789 -0.118055
v -0.796615 0.022435 -0.118120
v -0.795265 0.023550 -0.118373
v -0.795847 0.022938 -0.118425
v -0.794699 0.024979 -0.117576
v -0.794904 0.024295 -0.118064
v -0.799391 0.023500 -0.114426
v -0.799406 0.024072 -0.113051
v -0.799171 0.022762 -0.112919
v -0.799183 0.022301 -0.113969
v -0.799384 0.023122 -0.113576
v -0.798624 0.023004 -0.111957
v -0.798847 0.021730 -0.113243
v -0.798829 0.022284 -0.112491
v -0.798682 0.021535 -0.115030
v -0.798802 0.021520 -0.114115
v -0.798927 0.022682 -0.115728
v -0.798706 0.024225 -0.116222
v -0.799158 0.023882 -0.115333
v -0.797972 0.021877 -0.116757
v -0.798410 0.021675 -0.115922
v -0.797900 0.023177 -0.117375
v -0.797371 0.022096 -0.117517
v -0.798052 0.024504 -0.117031
v -0.792805 0.028994 -0.113032
v -0.792558 0.029124 -0.111613
v -0.794009 0.028745 -0.111275
v -0.793341 0.028953 -0.112108
v -0.791181 0.029460 -0.111950
v -0.790988 0.029479 -0.110657
v -0.792496 0.028995 -0.110393
v -0.791785 0.029293 -0.111133
v -0.793963 0.028526 -0.110000
v -0.795259 0.028175 -0.109585
v -0.794645 0.028484 -0.110420
v -0.792401 0.028718 -0.109225
v -0.793928 0.028011 -0.108786
v -0.793227 0.028618 -0.109604
v -0.790401 0.022239 -0.114545
v -0.789297 0.023567 -0.114461
v -0.789768 0.024037 -0.115561
v -0.789978 0.022994 -0.115109
v -0.789115 0.023157 -0.113327
v -0.788225 0.024349 -0.113280
v -0.788503 0.024980 -0.114360
v -0.788739 0.023992 -0.113890
v -0.789145 0.025815 -0.115295
v -0.790281 0.026393 -0.115937
v -0.789829 0.025321 -0.115881
v -0.787982 0.026427 -0.114030
v -0.788930 0.027294 -0.114757
v -0.788559 0.026179 -0.114686
v -0.793236 0.020548 -0.111718
v -0.791731 0.021404 -0.111754
v -0.791683 0.021281 -0.113206
v -0.792535 0.020876 -0.112466
v -0.791780 0.021801 -0.110386
v -0.790420 0.022492 -0.110588
v -0.790250 0.022184 -0.111956
v -0.791038 0.021965 -0.111140
v -0.789052 0.022925 -0.112121
v -0.790194 0.022175 -0.113244
v -0.789607 0.022564 -0.112693
v -0.790928 0.021694 -0.113901
v -0.795086 0.022786 -0.109470
v -0.794196 0.022151 -0.109107
v -0.794390 0.020775 -0.109968
v -0.794822 0.021728 -0.109520
v -0.793901 0.023368 -0.108703
v -0.792767 0.023045 -0.108747
v -0.793061 0.021966 -0.109176
v -0.793529 0.022559 -0.108867
v -0.791830 0.022484 -0.109406
v -0.793103 0.021002 -0.110168
v -0.792463 0.021752 -0.109707
v -0.793827 0.020403 -0.110822
v -0.793475 0.026660 -0.107999
v -0.792018 0.027942 -0.108290
v -0.791155 0.026757 -0.107698
v -0.792444 0.025390 -0.107956
v -0.792379 0.026644 -0.107897
v -0.789545 0.028198 -0.107460
v -0.788354 0.027425 -0.106678
v -0.789862 0.026030 -0.107478
v -0.789795 0.027026 -0.107321
v -0.792164 0.024098 -0.108388
v -0.793363 0.024374 -0.108292
v -0.791185 0.025021 -0.108020
v -0.792363 0.024656 -0.108157
v -0.788386 0.025962 -0.107002
v -0.789735 0.025051 -0.107828
v -0.789842 0.025472 -0.107666
v -0.789507 0.029860 -0.110844
v -0.789119 0.029809 -0.109656
v -0.790772 0.029300 -0.109510
v -0.790116 0.029642 -0.110170
v -0.787422 0.030274 -0.109704
v -0.786729 0.030336 -0.108349
v -0.788553 0.029659 -0.108434
v -0.787980 0.030045 -0.109061
v -0.790348 0.028885 -0.108413
v -0.791448 0.028790 -0.108851
v -0.787766 0.029354 -0.107170
v -0.789110 0.029086 -0.107858
v -0.788581 0.028478 -0.113875
v -0.787371 0.027675 -0.113434
v -0.786798 0.028915 -0.112510
v -0.788224 0.029458 -0.112577
v -0.787690 0.028712 -0.113202
v -0.785587 0.028080 -0.111944
v -0.784661 0.029348 -0.110988
v -0.786240 0.029909 -0.111232
v -0.785781 0.029151 -0.111782
v -0.787919 0.030036 -0.111109
v -0.789745 0.029626 -0.112329
v -0.788865 0.029842 -0.111696
v -0.785625 0.030492 -0.109711
v -0.786829 0.030261 -0.110458
v -0.788005 0.023911 -0.112124
v -0.786986 0.025051 -0.111903
v -0.787431 0.025630 -0.113013
v -0.787665 0.024717 -0.112619
v -0.786545 0.024653 -0.110608
v -0.785216 0.025628 -0.110264
v -0.785896 0.026174 -0.111504
v -0.786176 0.025353 -0.111117
v -0.786564 0.026834 -0.112560
v -0.787325 0.026619 -0.113309
v -0.784675 0.027296 -0.110973
v -0.785682 0.027068 -0.111790
v -0.790483 0.023037 -0.109493
v -0.789047 0.023443 -0.109426
v -0.789073 0.023035 -0.110751
v -0.789789 0.022981 -0.110030
v -0.788656 0.024067 -0.108381
v -0.787047 0.024334 -0.107966
v -0.787544 0.023854 -0.109324
v -0.788142 0.023906 -0.108738
v -0.787786 0.023726 -0.110795
v -0.788460 0.023325 -0.111499
v -0.786056 0.024521 -0.109117
v -0.787001 0.024125 -0.109991
v -0.790809 0.024176 -0.108414
v -0.791534 0.023278 -0.108846
v -0.791873 0.023600 -0.108632
v -0.788179 0.025249 -0.107264
v -0.789349 0.024488 -0.108077
v -0.789561 0.024717 -0.107973
v -0.790165 0.023720 -0.108735
v -0.791082 0.023130 -0.109118
v -0.787784 0.024762 -0.107461
v -0.789058 0.024268 -0.108188
v -0.786782 0.026058 -0.106260
v -0.785114 0.026167 -0.105342
v -0.786564 0.025513 -0.106475
v -0.786689 0.025769 -0.106373
v -0.783536 0.026799 -0.104124
v -0.781730 0.026727 -0.103263
v -0.783352 0.026217 -0.104457
v -0.783454 0.026481 -0.104282
v -0.781452 0.026195 -0.103699
v -0.782985 0.025642 -0.104958
v -0.784864 0.025638 -0.105636
v -0.783201 0.025938 -0.104677
v -0.786125 0.024943 -0.106790
v -0.786386 0.025244 -0.106596
v -0.786680 0.028876 -0.105974
v -0.785294 0.028335 -0.104857
v -0.786883 0.027022 -0.105936
v -0.786851 0.027892 -0.105841
v -0.783547 0.029489 -0.103917
v -0.781959 0.028882 -0.102805
v -0.783671 0.027892 -0.103859
v -0.783664 0.028666 -0.103808
v -0.781923 0.027580 -0.102941
v -0.785259 0.026877 -0.105069
v -0.783613 0.027260 -0.103984
v -0.786848 0.026439 -0.106108
v -0.784869 0.030819 -0.108164
v -0.783990 0.030947 -0.106483
v -0.785905 0.030255 -0.106860
v -0.785398 0.030636 -0.107488
v -0.781927 0.031430 -0.106197
v -0.780813 0.031506 -0.104354
v -0.782927 0.030841 -0.104730
v -0.782464 0.031238 -0.105402
v -0.781621 0.030340 -0.103169
v -0.784871 0.030020 -0.105331
v -0.783295 0.030248 -0.104228
v -0.786351 0.029682 -0.106339
v -0.783425 0.028474 -0.110201
v -0.782160 0.029629 -0.109127
v -0.783790 0.030327 -0.109628
v -0.783473 0.029489 -0.110095
v -0.780648 0.028907 -0.108238
v -0.779120 0.029961 -0.106994
v -0.780923 0.030670 -0.107705
v -0.780711 0.029808 -0.108074
v -0.779715 0.031439 -0.106028
v -0.782892 0.031047 -0.108021
v -0.781360 0.031282 -0.107040
v -0.784313 0.030755 -0.108901
v -0.784475 0.025301 -0.108804
v -0.782723 0.026151 -0.108447
v -0.783741 0.026637 -0.109818
v -0.784071 0.025881 -0.109367
v -0.781603 0.025942 -0.106890
v -0.779557 0.026670 -0.106479
v -0.780869 0.027151 -0.107975
v -0.781196 0.026440 -0.107492
v -0.779049 0.028185 -0.107229
v -0.782202 0.027770 -0.109181
v -0.780689 0.028013 -0.108224
v -0.783524 0.027519 -0.110101
v -0.784335 0.025110 -0.106240
v -0.780982 0.025780 -0.104328
v -0.782378 0.025440 -0.105766
v -0.782710 0.025453 -0.105318
v -0.785357 0.024693 -0.107615
v -0.785782 0.024737 -0.107122
v -0.780338 0.025939 -0.105275
v -0.783545 0.025240 -0.107273
v -0.782004 0.025607 -0.106300
v -0.784908 0.024892 -0.108204
v -0.778277 0.027142 -0.101135
v -0.776705 0.027808 -0.099899
v -0.774830 0.027352 -0.098965
v -0.776393 0.026863 -0.100199
v -0.776576 0.027284 -0.100014
v -0.780089 0.027327 -0.102080
v -0.779854 0.026668 -0.102436
v -0.779982 0.026945 -0.102242
v -0.774392 0.026360 -0.099372
v -0.775879 0.026206 -0.100796
v -0.777914 0.026533 -0.101572
v -0.776161 0.026515 -0.100455
v -0.779456 0.026160 -0.102944
v -0.779681 0.026411 -0.102663
v -0.778468 0.029271 -0.100860
v -0.776619 0.030136 -0.100007
v -0.774993 0.029753 -0.098923
v -0.776797 0.028953 -0.099816
v -0.776745 0.029538 -0.099860
v -0.780091 0.029694 -0.101939
v -0.780240 0.028423 -0.101853
v -0.780206 0.029049 -0.101842
v -0.775017 0.028565 -0.098872
v -0.778487 0.028107 -0.100884
v -0.776779 0.028373 -0.099836
v -0.780189 0.027830 -0.101941
v -0.777424 0.031806 -0.102337
v -0.775113 0.031951 -0.102273
v -0.773804 0.031929 -0.100662
v -0.776087 0.031403 -0.100768
v -0.775627 0.031897 -0.101475
v -0.778572 0.031858 -0.104185
v -0.779585 0.031148 -0.102624
v -0.779127 0.031697 -0.103330
v -0.774628 0.030979 -0.099432
v -0.778168 0.030528 -0.101210
v -0.776413 0.030762 -0.100289
v -0.779895 0.030399 -0.102180
v -0.775734 0.029974 -0.104901
v -0.773916 0.028968 -0.104037
v -0.772311 0.029887 -0.102873
v -0.774280 0.030759 -0.103493
v -0.774021 0.029914 -0.103875
v -0.777337 0.029137 -0.106152
v -0.777664 0.030819 -0.105560
v -0.777443 0.030010 -0.105934
v -0.772905 0.031408 -0.102022
v -0.776361 0.031539 -0.103954
v -0.774645 0.031491 -0.102969
v -0.778041 0.031516 -0.104987
v -0.776230 0.027007 -0.104106
v -0.774791 0.026856 -0.102456
v -0.772790 0.027236 -0.101782
v -0.774298 0.027521 -0.103353
v -0.774554 0.027152 -0.102880
v -0.778253 0.026461 -0.104762
v -0.777575 0.027452 -0.105837
v -0.777885 0.026852 -0.105347
v -0.772343 0.028070 -0.102709
v -0.775698 0.028182 -0.104991
v -0.774042 0.028103 -0.103814
v -0.777375 0.028245 -0.106135
v -0.777382 0.026107 -0.102256
v -0.773755 0.026033 -0.100213
v -0.775277 0.026294 -0.101671
v -0.775568 0.026103 -0.101230
v -0.778909 0.026020 -0.103720
v -0.779196 0.025994 -0.103293
v -0.773200 0.026645 -0.101047
v -0.776825 0.026401 -0.103124
v -0.775026 0.026571 -0.102066
v -0.778598 0.026189 -0.104211
v -0.773245 0.027895 -0.097817
v -0.771524 0.026816 -0.096683
v -0.772927 0.026555 -0.097998
v -0.773141 0.027183 -0.097829
v -0.770195 0.027133 -0.095463
v -0.768512 0.026217 -0.094609
v -0.769684 0.026026 -0.095921
v -0.769970 0.026464 -0.095616
v -0.767931 0.025435 -0.095365
v -0.768976 0.025591 -0.096816
v -0.770936 0.025960 -0.097315
v -0.769361 0.025710 -0.096328
v -0.772309 0.025901 -0.098728
v -0.772641 0.026142 -0.098314
v -0.773113 0.030454 -0.098185
v -0.771488 0.029567 -0.097117
v -0.773260 0.029147 -0.097941
v -0.773226 0.029780 -0.098015
v -0.769689 0.030088 -0.096413
v -0.768491 0.029030 -0.095003
v -0.770108 0.028546 -0.095793
v -0.769910 0.029269 -0.096105
v -0.768817 0.027469 -0.094434
v -0.771659 0.028244 -0.096757
v -0.770235 0.027856 -0.095540
v -0.773266 0.028536 -0.097878
v -0.771538 0.031787 -0.100508
v -0.770249 0.031889 -0.098876
v -0.772490 0.031649 -0.099081
v -0.772013 0.031927 -0.099793
v -0.768076 0.031589 -0.098658
v -0.767059 0.031690 -0.097044
v -0.769076 0.031530 -0.097241
v -0.768582 0.031808 -0.097943
v -0.767904 0.030574 -0.095870
v -0.771124 0.031086 -0.097631
v -0.769435 0.030897 -0.096749
v -0.772869 0.031105 -0.098535
v -0.770468 0.028906 -0.102026
v -0.768846 0.029807 -0.100931
v -0.770829 0.030630 -0.101533
v -0.770588 0.029838 -0.101880
v -0.766987 0.028783 -0.100404
v -0.765486 0.029500 -0.099462
v -0.767367 0.030484 -0.099695
v -0.767134 0.029721 -0.100105
v -0.766034 0.031008 -0.098487
v -0.769377 0.031197 -0.100130
v -0.767672 0.031110 -0.099231
v -0.771139 0.031301 -0.101090
v -0.771174 0.026933 -0.100388
v -0.769202 0.027025 -0.099837
v -0.770791 0.027502 -0.101207
v -0.770985 0.027198 -0.100762
v -0.767718 0.026531 -0.098554
v -0.765956 0.026396 -0.098300
v -0.767290 0.027083 -0.099617
v -0.767512 0.026752 -0.099019
v -0.765476 0.027461 -0.099598
v -0.768767 0.027936 -0.100954
v -0.767048 0.027770 -0.100254
v -0.770571 0.028032 -0.101738
v -0.770228 0.025912 -0.098211
v -0.771646 0.026287 -0.099642
v -0.771962 0.025969 -0.099198
v -0.767078 0.025485 -0.096439
v -0.768247 0.026035 -0.097723
v -0.768590 0.025755 -0.097287
v -0.766403 0.025970 -0.097351
v -0.769629 0.026519 -0.099039
v -0.767957 0.026304 -0.098136
v -0.771389 0.026631 -0.100027
v -0.767454 0.026381 -0.093366
v -0.766231 0.025298 -0.092572
v -0.766994 0.025400 -0.093942
v -0.767262 0.025855 -0.093570
v -0.765539 0.025326 -0.091212
v -0.764567 0.023817 -0.090861
v -0.765114 0.023973 -0.092431
v -0.765398 0.024601 -0.091699
v -0.763701 0.022917 -0.092879
v -0.763957 0.023816 -0.093997
v -0.765537 0.024379 -0.093725
v -0.764615 0.023647 -0.093248
v -0.766170 0.024904 -0.095099
v -0.766645 0.025005 -0.094467
v -0.766959 0.029586 -0.094490
v -0.766297 0.028608 -0.092891
v -0.767516 0.027963 -0.093472
v -0.767290 0.028825 -0.093917
v -0.765655 0.027326 -0.091147
v -0.764711 0.025828 -0.089984
v -0.766553 0.026625 -0.092148
v -0.765654 0.026196 -0.090994
v -0.767562 0.027078 -0.093311
v -0.765057 0.031432 -0.097161
v -0.764551 0.031382 -0.095551
v -0.766244 0.030973 -0.095499
v -0.765696 0.031544 -0.096251
v -0.765510 0.030094 -0.094220
v -0.766615 0.030285 -0.094998
v -0.763985 0.028094 -0.099064
v -0.762802 0.028806 -0.098249
v -0.764229 0.030095 -0.098430
v -0.764042 0.029158 -0.098853
v -0.761581 0.027478 -0.097650
v -0.760418 0.028379 -0.096909
v -0.761862 0.029594 -0.097340
v -0.761648 0.028561 -0.097603
v -0.761206 0.030636 -0.096158
v -0.762845 0.031283 -0.095896
v -0.763327 0.030683 -0.097327
v -0.762250 0.030575 -0.096775
v -0.764564 0.030860 -0.097878
v -0.764750 0.025801 -0.097072
v -0.763339 0.025660 -0.096784
v -0.764368 0.026344 -0.098173
v -0.764573 0.026011 -0.097545
v -0.762462 0.025039 -0.095760
v -0.761237 0.024898 -0.095591
v -0.761998 0.025677 -0.096673
v -0.762230 0.025296 -0.096144
v -0.760488 0.026005 -0.096457
v -0.762898 0.026704 -0.098066
v -0.761718 0.026406 -0.097318
v -0.764102 0.027049 -0.098853
v -0.764482 0.024647 -0.095045
v -0.765320 0.025357 -0.096185
v -0.765703 0.025094 -0.095680
v -0.762530 0.023679 -0.094270
v -0.763066 0.024534 -0.095051
v -0.763440 0.024183 -0.094575
v -0.761873 0.024373 -0.095015
v -0.763766 0.025217 -0.095980
v -0.762743 0.024804 -0.095430
v -0.764996 0.025597 -0.096643
v -0.794389 0.025179 -0.108390
v -0.794788 0.023971 -0.109073
v -0.794178 0.024182 -0.108615
v -0.795258 0.026995 -0.108527
v -0.794454 0.026773 -0.108151
v -0.795662 0.023196 -0.109923
v -0.795294 0.024147 -0.109649
v -0.795239 0.023592 -0.109535
v -0.796165 0.027584 -0.109646
v -0.795828 0.026220 -0.109196
v -0.795809 0.027337 -0.109050
v -0.759094 0.024294 -0.091573
v -0.795985 0.025658 -0.109785
v -0.758018 0.025059 -0.092092
v -0.758464 0.024674 -0.091941
v -0.796818 0.027809 -0.110634
v -0.796444 0.027085 -0.110112
v -0.796503 0.027747 -0.110182
v -0.796372 0.026527 -0.110465
v -0.760162 0.027418 -0.090852
v -0.759460 0.025696 -0.091090
v -0.797052 0.027220 -0.110767
v -0.797629 0.027413 -0.111354
v -0.797169 0.027715 -0.111016
v -0.796740 0.026614 -0.110840
v -0.761554 0.029530 -0.091347
v -0.761059 0.028726 -0.090998
v -0.798706 0.026091 -0.111984
v -0.797784 0.026387 -0.111332
v -0.798156 0.026869 -0.111655
v -0.798709 0.024415 -0.111960
v -0.799183 0.025106 -0.112474
v -0.797292 0.025894 -0.111221
v -0.760782 0.030652 -0.092307
v -0.761302 0.030064 -0.091819
v -0.796848 0.025877 -0.110790
v -0.796413 0.025814 -0.110283
v -0.796577 0.026243 -0.110629
v -0.797780 0.024534 -0.111469
v -0.797685 0.023283 -0.111302
v -0.798217 0.023800 -0.111618
v -0.796822 0.024882 -0.110872
v -0.797308 0.025077 -0.111322
v -0.797088 0.025451 -0.111060
v -0.758999 0.028474 -0.091557
v -0.759701 0.027917 -0.091296
v -0.796641 0.022797 -0.110612
v -0.796968 0.023462 -0.111007
v -0.797150 0.022926 -0.110960
v -0.796097 0.023380 -0.110353
v -0.796134 0.022911 -0.110271
v -0.758380 0.026556 -0.091699
v -0.795599 0.024673 -0.110026
v -0.760031 0.029987 -0.091831
v -0.796657 0.023977 -0.111020
v -0.796310 0.024777 -0.110343
v -0.796105 0.023838 -0.110656
v -0.796457 0.024318 -0.110750
v -0.796176 0.025294 -0.110014
v -0.757488 0.027870 -0.094732
v -0.758497 0.030565 -0.093981
v -0.757760 0.029269 -0.094704
v -0.790179 0.028749 -0.114105
v -0.790445 0.027566 -0.115304
v -0.789541 0.028111 -0.114585
v -0.791644 0.028916 -0.113778
v -0.790671 0.029302 -0.113070
v -0.793320 0.028370 -0.114425
v -0.792613 0.027973 -0.115039
v -0.792535 0.028618 -0.114184
v -0.791980 0.027035 -0.115782
v -0.791641 0.026303 -0.116253
v -0.791090 0.026920 -0.115845
v -0.759827 0.030989 -0.092985
v -0.793250 0.026667 -0.115787
v -0.757207 0.028320 -0.092810
v -0.757760 0.029876 -0.093265
v -0.792933 0.025295 -0.116700
v -0.792813 0.025922 -0.116397
v -0.792250 0.025741 -0.116565
v -0.793625 0.025976 -0.116218
v -0.758052 0.028714 -0.091923
v -0.757044 0.027865 -0.093884
v -0.793820 0.025357 -0.116591
v -0.794131 0.025183 -0.116924
v -0.793570 0.025105 -0.116813
v -0.794035 0.025730 -0.116318
v -0.760223 0.030785 -0.095481
v -0.759325 0.030787 -0.094744
v -0.795117 0.026010 -0.116951
v -0.794641 0.025762 -0.116558
v -0.794626 0.025477 -0.116990
v -0.795426 0.027191 -0.115909
v -0.795713 0.026663 -0.116668
v -0.794525 0.026031 -0.116231
v -0.759159 0.028220 -0.096188
v -0.759559 0.029536 -0.096133
v -0.794224 0.026077 -0.116147
v -0.793820 0.026252 -0.116039
v -0.793954 0.025962 -0.116185
v -0.794962 0.026929 -0.115764
v -0.795085 0.027734 -0.115117
v -0.795224 0.027510 -0.115396
v -0.794404 0.026541 -0.115841
v -0.794688 0.026447 -0.115938
v -0.794466 0.026267 -0.116046
v -0.758180 0.028068 -0.095479
v -0.757251 0.025198 -0.092936
v -0.794538 0.028043 -0.114720
v -0.794704 0.027459 -0.115286
v -0.794884 0.027903 -0.114901
v -0.793917 0.027750 -0.115059
v -0.794006 0.028179 -0.114589
v -0.757109 0.026526 -0.092764
v -0.793443 0.027002 -0.115522
v -0.757647 0.025292 -0.092323
v -0.794488 0.026921 -0.115552
v -0.794021 0.026693 -0.115709
v -0.794134 0.027068 -0.115414
v -0.794282 0.026797 -0.115625
v -0.793686 0.026606 -0.115784
v -0.757576 0.025172 -0.094575
v -0.757340 0.026487 -0.094636
v -0.757175 0.025102 -0.093803
v -0.764136 0.030652 -0.094083
v -0.762684 0.031095 -0.094206
v -0.763569 0.031264 -0.094879
v -0.763754 0.026881 -0.089338
v -0.762728 0.025639 -0.088857
v -0.763483 0.024351 -0.089453
v -0.763657 0.025625 -0.089267
v -0.762312 0.022784 -0.089383
v -0.763230 0.022092 -0.091045
v -0.763454 0.023046 -0.089962
v -0.760180 0.023695 -0.094544
v -0.760802 0.024298 -0.094954
v -0.761264 0.023500 -0.094405
v -0.761048 0.023962 -0.094706
v -0.761012 0.022317 -0.093502
v -0.761754 0.021683 -0.092075
v -0.761297 0.021990 -0.090403
v -0.760166 0.022033 -0.092148
v -0.760948 0.021744 -0.092026
v -0.762170 0.022667 -0.093494
v -0.761682 0.023092 -0.094059
v -0.760141 0.022668 -0.091003
v -0.759038 0.023192 -0.091991
v -0.758767 0.022776 -0.093180
v -0.759468 0.022434 -0.092157
v -0.759760 0.024204 -0.094817
v -0.759849 0.024847 -0.095334
v -0.760390 0.024533 -0.095126
v -0.762711 0.022132 -0.092449
v -0.761901 0.024522 -0.088909
v -0.761157 0.023316 -0.089568
v -0.761650 0.023068 -0.089373
v -0.760722 0.024994 -0.089509
v -0.759801 0.023917 -0.090922
v -0.760477 0.023559 -0.090140
v -0.762538 0.027124 -0.089009
v -0.761621 0.026317 -0.088833
v -0.762112 0.025940 -0.088762
v -0.764484 0.028274 -0.090541
v -0.764921 0.029237 -0.092724
v -0.765411 0.028433 -0.091773
v -0.762774 0.028543 -0.089935
v -0.763407 0.027878 -0.089564
v -0.763628 0.029976 -0.092729
v -0.764527 0.029962 -0.093466
v -0.761118 0.031229 -0.094379
v -0.761293 0.030869 -0.092885
v -0.762460 0.030562 -0.092898
v -0.761913 0.030961 -0.093539
v -0.760516 0.027018 -0.090154
v -0.761528 0.027978 -0.089759
v -0.760995 0.026689 -0.089267
v -0.762688 0.029581 -0.091325
v -0.762029 0.030008 -0.091802
v -0.762748 0.030106 -0.092209
v -0.761772 0.029272 -0.090788
v -0.762184 0.029010 -0.090318
v -0.758328 0.024261 -0.094576
v -0.758672 0.023398 -0.094118
v -0.759278 0.023836 -0.094549
v -0.757881 0.023991 -0.092678
v -0.757559 0.024194 -0.093207
v -0.758078 0.023399 -0.093403
v -0.758277 0.025329 -0.095168
v -0.758983 0.026882 -0.096089
v -0.759281 0.025588 -0.095738
f 250 251 247
f 250 247 120
f 251 248 57
f 251 57 247
f 249 127 248
f 249 248 251
f 9 249 251
f 9 251 250
f 254 255 249
f 254 249 9
f 255 252 127
f 255 127 249
f 253 60 252
f 253 252 255
f 121 253 255
f 121 255 254
f 250 259 256
f 250 256 9
f 259 257 137
f 259 137 256
f 258 66 257
f 258 257 259
f 120 258 259
f 120 259 250
f 254 262 260
f 254 260 121
f 262 261 67
f 262 67 260
f 256 137 261
f 256 261 262
f 9 256 262
f 9 262 254
f 266 267 263
f 266 263 136
f 267 264 62
f 267 62 263
f 265 123 264
f 265 264 267
f 10 265 267
f 10 267 266
f 270 271 265
f 270 265 10
f 271 268 123
f 271 123 265
f 269 71 268
f 269 268 271
f 142 269 271
f 142 271 270
f 266 275 272
f 266 272 10
f 275 273 125
f 275 125 272
f 274 61 273
f 274 273 275
f 136 274 275
f 136 275 266
f 270 278 276
f 270 276 142
f 278 277 70
f 278 70 276
f 272 125 277
f 272 277 278
f 10 272 278
f 10 278 270
f 281 282 264
f 281 264 123
f 282 279 62
f 282 62 264
f 280 132 279
f 280 279 282
f 11 280 282
f 11 282 281
f 285 286 280
f 285 280 11
f 286 283 132
f 286 132 280
f 284 63 283
f 284 283 286
f 124 284 286
f 124 286 285
f 281 289 287
f 281 287 11
f 289 288 144
f 289 144 287
f 268 71 288
f 268 288 289
f 123 268 289
f 123 289 281
f 285 292 290
f 285 290 124
f 292 291 72
f 292 72 290
f 287 144 291
f 287 291 292
f 11 287 292
f 11 292 285
f 295 296 293
f 295 293 12
f 296 294 130
f 296 130 293
f 273 61 294
f 273 294 296
f 125 273 296
f 125 296 295
f 299 300 297
f 299 297 122
f 300 298 64
f 300 64 297
f 293 130 298
f 293 298 300
f 12 293 300
f 12 300 299
f 299 304 301
f 299 301 12
f 304 302 140
f 304 140 301
f 303 69 302
f 303 302 304
f 122 303 304
f 122 304 299
f 295 306 277
f 295 277 125
f 306 305 70
f 306 70 277
f 301 140 305
f 301 305 306
f 12 301 306
f 12 306 295
f 310 311 307
f 310 307 134
f 311 308 58
f 311 58 307
f 309 128 308
f 309 308 311
f 13 309 311
f 13 311 310
f 313 314 309
f 313 309 13
f 314 312 128
f 314 128 309
f 252 60 312
f 252 312 314
f 127 252 314
f 127 314 313
f 317 318 315
f 317 315 126
f 318 316 59
f 318 59 315
f 310 134 316
f 310 316 318
f 13 310 318
f 13 318 317
f 313 320 248
f 313 248 127
f 320 319 57
f 320 57 248
f 317 126 319
f 317 319 320
f 13 317 320
f 13 320 313
f 324 325 321
f 324 321 129
f 325 322 58
f 325 58 321
f 323 133 322
f 323 322 325
f 14 323 325
f 14 325 324
f 327 328 323
f 327 323 14
f 328 326 133
f 328 133 323
f 294 61 326
f 294 326 328
f 130 294 328
f 130 328 327
f 327 330 298
f 327 298 130
f 330 329 64
f 330 64 298
f 324 129 329
f 324 329 330
f 14 324 330
f 14 330 327
f 334 335 331
f 334 331 135
f 335 332 59
f 335 59 331
f 333 131 332
f 333 332 335
f 15 333 335
f 15 335 334
f 337 338 333
f 337 333 15
f 338 336 131
f 338 131 333
f 283 63 336
f 283 336 338
f 132 283 338
f 132 338 337
f 334 340 337
f 334 337 15
f 340 279 132
f 340 132 337
f 339 62 279
f 339 279 340
f 135 339 340
f 135 340 334
f 342 343 316
f 342 316 134
f 343 331 59
f 343 59 316
f 341 135 331
f 341 331 343
f 16 341 343
f 16 343 342
f 344 345 341
f 344 341 16
f 345 339 135
f 345 135 341
f 263 62 339
f 263 339 345
f 136 263 345
f 136 345 344
f 346 347 344
f 346 344 16
f 347 274 136
f 347 136 344
f 326 61 274
f 326 274 347
f 133 326 347
f 133 347 346
f 342 348 346
f 342 346 16
f 348 322 133
f 348 133 346
f 307 58 322
f 307 322 348
f 134 307 348
f 134 348 342
f 351 352 261
f 351 261 137
f 352 349 67
f 352 67 261
f 350 138 349
f 350 349 352
f 17 350 352
f 17 352 351
f 355 356 350
f 355 350 17
f 356 353 138
f 356 138 350
f 354 79 353
f 354 353 356
f 148 354 356
f 148 356 355
f 351 359 357
f 351 357 17
f 359 358 139
f 359 139 357
f 257 66 358
f 257 358 359
f 137 257 359
f 137 359 351
f 355 362 360
f 355 360 148
f 362 361 91
f 362 91 360
f 357 139 361
f 357 361 362
f 17 357 362
f 17 362 355
f 365 366 305
f 365 305 140
f 366 363 70
f 366 70 305
f 364 141 363
f 364 363 366
f 18 364 366
f 18 366 365
f 369 370 364
f 369 364 18
f 370 367 141
f 370 141 364
f 368 85 367
f 368 367 370
f 153 368 370
f 153 370 369
f 365 373 371
f 365 371 18
f 373 372 145
f 373 145 371
f 302 69 372
f 302 372 373
f 140 302 373
f 140 373 365
f 369 376 374
f 369 374 153
f 376 375 82
f 376 82 374
f 371 145 375
f 371 375 376
f 18 371 376
f 18 376 369
f 379 380 269
f 379 269 142
f 380 377 71
f 380 71 269
f 378 143 377
f 378 377 380
f 19 378 380
f 19 380 379
f 383 384 378
f 383 378 19
f 384 381 143
f 384 143 378
f 382 88 381
f 382 381 384
f 155 382 384
f 155 384 383
f 386 387 383
f 386 383 19
f 387 385 155
f 387 155 383
f 367 85 385
f 367 385 387
f 141 367 387
f 141 387 386
f 379 388 386
f 379 386 19
f 388 363 141
f 388 141 386
f 276 70 363
f 276 363 388
f 142 276 388
f 142 388 379
f 391 392 291
f 391 291 144
f 392 389 72
f 392 72 291
f 390 146 389
f 390 389 392
f 20 390 392
f 20 392 391
f 395 396 390
f 395 390 20
f 396 393 146
f 396 146 390
f 394 93 393
f 394 393 396
f 157 394 396
f 157 396 395
f 398 399 395
f 398 395 20
f 399 397 157
f 399 157 395
f 381 88 397
f 381 397 399
f 143 381 399
f 143 399 398
f 391 400 398
f 391 398 20
f 400 377 143
f 400 143 398
f 288 71 377
f 288 377 400
f 144 288 400
f 144 400 391
f 404 405 401
f 404 401 147
f 405 402 91
f 405 91 401
f 403 149 402
f 403 402 405
f 21 403 405
f 21 405 404
f 408 409 403
f 408 403 21
f 409 406 149
f 409 149 403
f 407 92 406
f 407 406 409
f 206 407 409
f 206 409 408
f 412 413 410
f 412 410 158
f 413 411 93
f 413 93 410
f 404 147 411
f 404 411 413
f 21 404 413
f 21 413 412
f 408 416 414
f 408 414 206
f 416 415 94
f 416 94 414
f 412 158 415
f 412 415 416
f 21 412 416
f 21 416 408
f 419 420 354
f 419 354 148
f 420 417 79
f 420 79 354
f 418 150 417
f 418 417 420
f 22 418 420
f 22 420 419
f 423 424 418
f 423 418 22
f 424 421 150
f 424 150 418
f 422 80 421
f 422 421 424
f 201 422 424
f 201 424 423
f 425 426 402
f 425 402 149
f 426 360 91
f 426 91 402
f 419 148 360
f 419 360 426
f 22 419 426
f 22 426 425
f 423 428 427
f 423 427 201
f 428 406 92
f 428 92 427
f 425 149 406
f 425 406 428
f 22 425 428
f 22 428 423
f 432 433 429
f 432 429 151
f 433 430 82
f 433 82 429
f 431 152 430
f 431 430 433
f 23 431 433
f 23 433 432
f 436 437 431
f 436 431 23
f 437 434 152
f 437 152 431
f 435 83 434
f 435 434 437
f 202 435 437
f 202 437 436
f 432 440 438
f 432 438 23
f 440 417 150
f 440 150 438
f 439 79 417
f 439 417 440
f 151 439 440
f 151 440 432
f 436 442 441
f 436 441 202
f 442 421 80
f 442 80 441
f 438 150 421
f 438 421 442
f 23 438 442
f 23 442 436
f 445 446 368
f 445 368 153
f 446 443 85
f 446 85 368
f 444 154 443
f 444 443 446
f 24 444 446
f 24 446 445
f 449 450 444
f 449 444 24
f 450 447 154
f 450 154 444
f 448 86 447
f 448 447 450
f 203 448 450
f 203 450 449
f 445 452 451
f 445 451 24
f 452 430 152
f 452 152 451
f 374 82 430
f 374 430 452
f 153 374 452
f 153 452 445
f 449 454 453
f 449 453 203
f 454 434 83
f 454 83 453
f 451 152 434
f 451 434 454
f 24 451 454
f 24 454 449
f 457 458 382
f 457 382 155
f 458 455 88
f 458 88 382
f 456 156 455
f 456 455 458
f 25 456 458
f 25 458 457
f 461 462 456
f 461 456 25
f 462 459 156
f 462 156 456
f 460 90 459
f 460 459 462
f 204 460 462
f 204 462 461
f 457 464 463
f 457 463 25
f 464 443 154
f 464 154 463
f 385 85 443
f 385 443 464
f 155 385 464
f 155 464 457
f 461 466 465
f 461 465 204
f 466 447 86
f 466 86 465
f 463 154 447
f 463 447 466
f 25 463 466
f 25 466 461
f 468 469 394
f 468 394 157
f 469 410 93
f 469 93 394
f 467 158 410
f 467 410 469
f 26 467 469
f 26 469 468
f 471 472 467
f 471 467 26
f 472 415 158
f 472 158 467
f 470 94 415
f 470 415 472
f 205 470 472
f 205 472 471
f 468 474 473
f 468 473 26
f 474 455 156
f 474 156 473
f 397 88 455
f 397 455 474
f 157 397 474
f 157 474 468
f 471 476 475
f 471 475 205
f 476 459 90
f 476 90 475
f 473 156 459
f 473 459 476
f 26 473 476
f 26 476 471
f 479 480 470
f 479 470 205
f 480 477 94
f 480 94 470
f 478 159 477
f 478 477 480
f 27 478 480
f 27 480 479
f 483 484 478
f 483 478 27
f 484 481 159
f 484 159 478
f 482 95 481
f 482 481 484
f 183 482 484
f 183 484 483
f 487 488 483
f 487 483 27
f 488 485 183
f 488 183 483
f 486 89 485
f 486 485 488
f 164 486 488
f 164 488 487
f 487 490 489
f 487 489 164
f 490 475 90
f 490 90 489
f 479 205 475
f 479 475 490
f 27 479 490
f 27 490 487
f 493 494 407
f 493 407 206
f 494 491 92
f 494 92 407
f 492 160 491
f 492 491 494
f 28 492 494
f 28 494 493
f 497 498 492
f 497 492 28
f 498 495 160
f 498 160 492
f 496 96 495
f 496 495 498
f 184 496 498
f 184 498 497
f 500 501 497
f 500 497 28
f 501 499 184
f 501 184 497
f 481 95 499
f 481 499 501
f 159 481 501
f 159 501 500
f 500 502 477
f 500 477 159
f 502 414 94
f 502 94 477
f 493 206 414
f 493 414 502
f 28 493 502
f 28 502 500
f 505 506 422
f 505 422 201
f 506 503 80
f 506 80 422
f 504 161 503
f 504 503 506
f 29 504 506
f 29 506 505
f 509 510 504
f 509 504 29
f 510 507 161
f 510 161 504
f 508 81 507
f 508 507 510
f 185 508 510
f 185 510 509
f 512 513 509
f 512 509 29
f 513 511 185
f 513 185 509
f 495 96 511
f 495 511 513
f 160 495 513
f 160 513 512
f 512 514 491
f 512 491 160
f 514 427 92
f 514 92 491
f 505 201 427
f 505 427 514
f 29 505 514
f 29 514 512
f 517 518 435
f 517 435 202
f 518 515 83
f 518 83 435
f 516 162 515
f 516 515 518
f 30 516 518
f 30 518 517
f 521 522 516
f 521 516 30
f 522 519 162
f 522 162 516
f 520 84 519
f 520 519 522
f 186 520 522
f 186 522 521
f 524 525 521
f 524 521 30
f 525 523 186
f 525 186 521
f 507 81 523
f 507 523 525
f 161 507 525
f 161 525 524
f 524 526 503
f 524 503 161
f 526 441 80
f 526 80 503
f 517 202 441
f 517 441 526
f 30 517 526
f 30 526 524
f 529 530 448
f 529 448 203
f 530 527 86
f 530 86 448
f 528 163 527
f 528 527 530
f 31 528 530
f 31 530 529
f 533 534 528
f 533 528 31
f 534 531 163
f 534 163 528
f 532 87 531
f 532 531 534
f 187 532 534
f 187 534 533
f 536 537 533
f 536 533 31
f 537 535 187
f 537 187 533
f 519 84 535
f 519 535 537
f 162 519 537
f 162 537 536
f 536 538 515
f 536 515 162
f 538 453 83
f 538 83 515
f 529 203 453
f 529 453 538
f 31 529 538
f 31 538 536
f 541 542 539
f 541 539 32
f 542 486 164
f 542 164 539
f 540 89 486
f 540 486 542
f 188 540 542
f 188 542 541
f 543 544 460
f 543 460 204
f 544 489 90
f 544 90 460
f 539 164 489
f 539 489 544
f 32 539 544
f 32 544 543
f 546 547 541
f 546 541 32
f 547 545 188
f 547 188 541
f 531 87 545
f 531 545 547
f 163 531 547
f 163 547 546
f 546 548 527
f 546 527 163
f 548 465 86
f 548 86 527
f 543 204 465
f 543 465 548
f 32 543 548
f 32 548 546
f 552 553 549
f 552 549 33
f 553 550 165
f 553 165 549
f 551 73 550
f 551 550 553
f 189 551 553
f 189 553 552
f 555 556 482
f 555 482 183
f 556 554 95
f 556 95 482
f 549 165 554
f 549 554 556
f 33 549 556
f 33 556 555
f 559 560 552
f 559 552 33
f 560 557 189
f 560 189 552
f 558 78 557
f 558 557 560
f 170 558 560
f 170 560 559
f 555 562 559
f 555 559 33
f 562 561 170
f 562 170 559
f 485 89 561
f 485 561 562
f 183 485 562
f 183 562 555
f 566 567 563
f 566 563 34
f 567 564 166
f 567 166 563
f 565 74 564
f 565 564 567
f 190 565 567
f 190 567 566
f 569 570 496
f 569 496 184
f 570 568 96
f 570 96 496
f 563 166 568
f 563 568 570
f 34 563 570
f 34 570 569
f 572 573 566
f 572 566 34
f 573 571 190
f 573 190 566
f 550 73 571
f 550 571 573
f 165 550 573
f 165 573 572
f 569 574 572
f 569 572 34
f 574 554 165
f 574 165 572
f 499 95 554
f 499 554 574
f 184 499 574
f 184 574 569
f 578 579 575
f 578 575 35
f 579 576 167
f 579 167 575
f 577 75 576
f 577 576 579
f 191 577 579
f 191 579 578
f 581 582 508
f 581 508 185
f 582 580 81
f 582 81 508
f 575 167 580
f 575 580 582
f 35 575 582
f 35 582 581
f 584 585 578
f 584 578 35
f 585 583 191
f 585 191 578
f 564 74 583
f 564 583 585
f 166 564 585
f 166 585 584
f 581 586 584
f 581 584 35
f 586 568 166
f 586 166 584
f 511 96 568
f 511 568 586
f 185 511 586
f 185 586 581
f 590 591 587
f 590 587 36
f 591 588 168
f 591 168 587
f 589 76 588
f 589 588 591
f 192 589 591
f 192 591 590
f 593 594 520
f 593 520 186
f 594 592 84
f 594 84 520
f 587 168 592
f 587 592 594
f 36 587 594
f 36 594 593
f 596 597 590
f 596 590 36
f 597 595 192
f 597 192 590
f 576 75 595
f 576 595 597
f 167 576 597
f 167 597 596
f 593 598 596
f 593 596 36
f 598 580 167
f 598 167 596
f 523 81 580
f 523 580 598
f 186 523 598
f 186 598 593
f 602 603 599
f 602 599 37
f 603 600 169
f 603 169 599
f 601 77 600
f 601 600 603
f 193 601 603
f 193 603 602
f 605 606 532
f 605 532 187
f 606 604 87
f 606 87 532
f 599 169 604
f 599 604 606
f 37 599 606
f 37 606 605
f 608 609 602
f 608 602 37
f 609 607 193
f 609 193 602
f 588 76 607
f 588 607 609
f 168 588 609
f 168 609 608
f 605 610 608
f 605 608 37
f 610 592 168
f 610 168 608
f 535 84 592
f 535 592 610
f 187 535 610
f 187 610 605
f 613 614 611
f 613 611 38
f 614 558 170
f 614 170 611
f 612 78 558
f 612 558 614
f 194 612 614
f 194 614 613
f 615 616 540
f 615 540 188
f 616 561 89
f 616 89 540
f 611 170 561
f 611 561 616
f 38 611 616
f 38 616 615
f 618 619 613
f 618 613 38
f 619 617 194
f 619 194 613
f 600 77 617
f 600 617 619
f 169 600 619
f 169 619 618
f 615 620 618
f 615 618 38
f 620 604 169
f 620 169 618
f 545 87 604
f 545 604 620
f 188 545 620
f 188 620 615
f 623 624 551
f 623 551 189
f 624 621 73
f 624 73 551
f 622 171 621
f 622 621 624
f 39 622 624
f 39 624 623
f 627 628 622
f 627 622 39
f 628 625 171
f 628 171 622
f 626 100 625
f 626 625 628
f 195 626 628
f 195 628 627
f 631 632 627
f 631 627 39
f 632 629 195
f 632 195 627
f 630 98 629
f 630 629 632
f 176 630 632
f 176 632 631
f 623 634 631
f 623 631 39
f 634 633 176
f 634 176 631
f 557 78 633
f 557 633 634
f 189 557 634
f 189 634 623
f 637 638 565
f 637 565 190
f 638 635 74
f 638 74 565
f 636 172 635
f 636 635 638
f 40 636 638
f 40 638 637
f 641 642 636
f 641 636 40
f 642 639 172
f 642 172 636
f 640 101 639
f 640 639 642
f 196 640 642
f 196 642 641
f 644 645 641
f 644 641 40
f 645 643 196
f 645 196 641
f 625 100 643
f 625 643 645
f 171 625 645
f 171 645 644
f 637 646 644
f 637 644 40
f 646 621 171
f 646 171 644
f 571 73 621
f 571 621 646
f 190 571 646
f 190 646 637
f 649 650 577
f 649 577 191
f 650 647 75
f 650 75 577
f 648 173 647
f 648 647 650
f 41 648 650
f 41 650 649
f 653 654 648
f 653 648 41
f 654 651 173
f 654 173 648
f 652 102 651
f 652 651 654
f 197 652 654
f 197 654 653
f 656 657 653
f 656 653 41
f 657 655 197
f 657 197 653
f 639 101 655
f 639 655 657
f 172 639 657
f 172 657 656
f 649 658 656
f 649 656 41
f 658 635 172
f 658 172 656
f 583 74 635
f 583 635 658
f 191 583 658
f 191 658 649
f 661 662 589
f 661 589 192
f 662 659 76
f 662 76 589
f 660 174 659
f 660 659 662
f 42 660 662
f 42 662 661
f 665 666 660
f 665 660 42
f 666 663 174
f 666 174 660
f 664 99 663
f 664 663 666
f 198 664 666
f 198 666 665
f 668 669 665
f 668 665 42
f 669 667 198
f 669 198 665
f 651 102 667
f 651 667 669
f 173 651 669
f 173 669 668
f 661 670 668
f 661 668 42
f 670 647 173
f 670 173 668
f 595 75 647
f 595 647 670
f 192 595 670
f 192 670 661
f 673 674 601
f 673 601 193
f 674 671 77
f 674 77 601
f 672 175 671
f 672 671 674
f 43 672 674
f 43 674 673
f 677 678 672
f 677 672 43
f 678 675 175
f 678 175 672
f 676 97 675
f 676 675 678
f 199 676 678
f 199 678 677
f 680 681 677
f 680 677 43
f 681 679 199
f 681 199 677
f 663 99 679
f 663 679 681
f 174 663 681
f 174 681 680
f 673 682 680
f 673 680 43
f 682 659 174
f 682 174 680
f 607 76 659
f 607 659 682
f 193 607 682
f 193 682 673
f 684 685 612
f 684 612 194
f 685 633 78
f 685 78 612
f 683 176 633
f 683 633 685
f 44 683 685
f 44 685 684
f 687 688 683
f 687 683 44
f 688 630 176
f 688 176 683
f 686 98 630
f 686 630 688
f 200 686 688
f 200 688 687
f 690 691 687
f 690 687 44
f 691 689 200
f 691 200 687
f 675 97 689
f 675 689 691
f 175 675 691
f 175 691 690
f 684 692 690
f 684 690 44
f 692 671 175
f 692 175 690
f 617 77 671
f 617 671 692
f 194 617 692
f 194 692 684
f 695 696 626
f 695 626 195
f 696 693 100
f 696 100 626
f 694 177 693
f 694 693 696
f 45 694 696
f 45 696 695
f 699 700 694
f 699 694 45
f 700 697 177
f 700 177 694
f 698 109 697
f 698 697 700
f 211 698 700
f 211 700 699
f 703 704 699
f 703 699 45
f 704 701 211
f 704 211 699
f 702 107 701
f 702 701 704
f 182 702 704
f 182 704 703
f 695 706 703
f 695 703 45
f 706 705 182
f 706 182 703
f 629 98 705
f 629 705 706
f 195 629 706
f 195 706 695
f 709 710 640
f 709 640 196
f 710 707 101
f 710 101 640
f 708 178 707
f 708 707 710
f 46 708 710
f 46 710 709
f 713 714 711
f 713 711 46
f 714 712 214
f 714 214 711
f 697 109 712
f 697 712 714
f 177 697 714
f 177 714 713
f 709 715 713
f 709 713 46
f 715 693 177
f 715 177 713
f 643 100 693
f 643 693 715
f 196 643 715
f 196 715 709
f 718 719 652
f 718 652 197
f 719 716 102
f 719 102 652
f 717 179 716
f 717 716 719
f 47 717 719
f 47 719 718
f 718 721 720
f 718 720 47
f 721 707 178
f 721 178 720
f 655 101 707
f 655 707 721
f 197 655 721
f 197 721 718
f 724 725 664
f 724 664 198
f 725 722 99
f 725 99 664
f 723 180 722
f 723 722 725
f 48 723 725
f 48 725 724
f 728 729 723
f 728 723 48
f 729 726 180
f 729 180 723
f 727 104 726
f 727 726 729
f 213 727 729
f 213 729 728
f 732 733 728
f 732 728 48
f 733 730 213
f 733 213 728
f 731 106 730
f 731 730 733
f 179 731 733
f 179 733 732
f 724 734 732
f 724 732 48
f 734 716 179
f 734 179 732
f 667 102 716
f 667 716 734
f 198 667 734
f 198 734 724
f 737 738 676
f 737 676 199
f 738 735 97
f 738 97 676
f 736 181 735
f 736 735 738
f 49 736 738
f 49 738 737
f 741 742 736
f 741 736 49
f 742 739 181
f 742 181 736
f 740 105 739
f 740 739 742
f 208 740 742
f 208 742 741
f 744 745 741
f 744 741 49
f 745 743 208
f 745 208 741
f 726 104 743
f 726 743 745
f 180 726 745
f 180 745 744
f 737 746 744
f 737 744 49
f 746 722 180
f 746 180 744
f 679 99 722
f 679 722 746
f 199 679 746
f 199 746 737
f 748 749 686
f 748 686 200
f 749 705 98
f 749 98 686
f 747 182 705
f 747 705 749
f 50 747 749
f 50 749 748
f 751 752 747
f 751 747 50
f 752 702 182
f 752 182 747
f 750 107 702
f 750 702 752
f 207 750 752
f 207 752 751
f 754 755 751
f 754 751 50
f 755 753 207
f 755 207 751
f 739 105 753
f 739 753 755
f 181 739 755
f 181 755 754
f 748 756 754
f 748 754 50
f 756 735 181
f 756 181 754
f 689 97 735
f 689 735 756
f 200 689 756
f 200 756 748
f 758 759 757
f 758 757 1
f 759 411 147
f 759 147 757
f 393 93 411
f 393 411 759
f 146 393 759
f 146 759 758
f 760 761 361
f 760 361 139
f 761 401 91
f 761 91 361
f 757 147 401
f 757 401 761
f 1 757 761
f 1 761 760
f 758 764 389
f 758 389 146
f 764 762 72
f 764 72 389
f 763 115 762
f 763 762 764
f 1 763 764
f 1 764 758
f 766 767 765
f 766 765 112
f 767 358 66
f 767 66 765
f 760 139 358
f 760 358 767
f 1 760 767
f 1 767 766
f 118 866 873
f 118 873 235
f 8 236 873
f 8 873 866
f 868 875 236
f 868 236 8
f 119 229 875
f 119 875 868
f 773 774 772
f 773 772 2
f 774 258 120
f 774 120 772
f 765 66 258
f 765 258 774
f 112 765 774
f 112 774 773
f 825 871 229
f 825 229 119
f 5 230 871
f 5 871 825
f 7 857 861
f 7 861 234
f 118 235 861
f 118 861 857
f 779 780 247
f 779 247 57
f 780 772 120
f 780 120 247
f 778 2 772
f 778 772 780
f 113 778 780
f 113 780 779
f 117 847 851
f 117 851 233
f 7 234 851
f 7 851 847
f 6 840 843
f 6 843 232
f 117 233 843
f 117 843 840
f 785 786 784
f 785 784 3
f 786 319 126
f 786 126 784
f 779 57 319
f 779 319 786
f 113 779 786
f 113 786 785
f 787 788 332
f 787 332 131
f 788 315 59
f 788 59 332
f 784 126 315
f 784 315 788
f 3 784 788
f 3 788 787
f 116 835 837
f 116 837 231
f 6 232 837
f 6 837 835
f 827 831 230
f 827 230 5
f 116 231 831
f 116 831 827
f 793 794 792
f 793 792 65
f 794 781 225
f 794 225 792
f 775 224 781
f 775 781 794
f 223 775 794
f 223 794 793
f 796 797 336
f 796 336 63
f 797 787 131
f 797 131 336
f 795 3 787
f 795 787 797
f 114 795 797
f 114 797 796
f 799 800 789
f 799 789 226
f 800 792 225
f 800 225 789
f 798 65 792
f 798 792 800
f 227 798 800
f 227 800 799
f 114 804 811
f 114 811 227
f 4 228 811
f 4 811 804
f 806 813 228
f 806 228 4
f 115 221 813
f 115 813 806
f 804 805 803
f 804 803 4
f 805 284 124
f 805 124 803
f 796 63 284
f 796 284 805
f 114 796 805
f 114 805 804
f 803 807 806
f 803 806 4
f 807 762 115
f 807 115 806
f 290 72 762
f 290 762 807
f 124 290 807
f 124 807 803
f 763 809 221
f 763 221 115
f 1 222 809
f 1 809 763
f 3 795 799
f 3 799 226
f 114 227 799
f 114 799 795
f 813 814 811
f 813 811 228
f 814 798 227
f 814 227 811
f 812 65 798
f 812 798 814
f 221 812 814
f 221 814 813
f 809 815 812
f 809 812 221
f 815 793 65
f 815 65 812
f 769 223 793
f 769 793 815
f 222 769 815
f 222 815 809
f 113 785 789
f 113 789 225
f 3 226 789
f 3 789 785
f 2 778 781
f 2 781 224
f 113 225 781
f 113 781 778
f 112 773 775
f 112 775 223
f 2 224 775
f 2 775 773
f 766 769 222
f 766 222 1
f 112 223 769
f 112 769 766
f 820 821 375
f 820 375 145
f 821 429 82
f 821 82 375
f 819 151 429
f 819 429 821
f 5 819 821
f 5 821 820
f 822 823 819
f 822 819 5
f 823 439 151
f 823 151 819
f 353 79 439
f 353 439 823
f 138 353 823
f 138 823 822
f 822 826 349
f 822 349 138
f 826 824 67
f 826 67 349
f 825 119 824
f 825 824 826
f 5 825 826
f 5 826 822
f 828 829 372
f 828 372 69
f 829 820 145
f 829 145 372
f 827 5 820
f 827 820 829
f 116 827 829
f 116 829 828
f 110 914 768
f 110 768 777
f 914 220 903
f 914 903 768
f 768 903 108
f 768 108 771
f 777 768 771
f 777 771 243
f 835 836 834
f 835 834 6
f 836 303 122
f 836 122 834
f 828 69 303
f 828 303 836
f 116 828 836
f 116 836 835
f 243 771 770
f 243 770 808
f 771 108 941
f 771 941 770
f 770 941 219
f 770 219 872
f 808 770 872
f 808 872 111
f 841 842 297
f 841 297 64
f 842 834 122
f 842 122 297
f 840 6 834
f 840 834 842
f 117 840 842
f 117 842 841
f 56 783 776
f 56 776 802
f 783 217 930
f 783 930 776
f 776 930 110
f 776 110 777
f 802 776 777
f 802 777 243
f 847 848 846
f 847 846 7
f 848 329 129
f 848 129 846
f 841 64 329
f 841 329 848
f 117 841 848
f 117 848 847
f 849 850 308
f 849 308 128
f 850 321 58
f 850 58 308
f 846 129 321
f 846 321 850
f 7 846 850
f 7 850 849
f 56 791 782
f 56 782 783
f 791 238 934
f 791 934 782
f 782 934 244
f 782 244 936
f 783 782 936
f 783 936 217
f 855 856 854
f 855 854 68
f 856 843 233
f 856 233 854
f 837 232 843
f 837 843 856
f 231 837 856
f 231 856 855
f 858 859 312
f 858 312 60
f 859 849 128
f 859 128 312
f 857 7 849
f 857 849 859
f 118 857 859
f 118 859 858
f 861 862 851
f 861 851 234
f 862 854 233
f 862 233 851
f 860 68 854
f 860 854 862
f 235 860 862
f 235 862 861
f 56 810 790
f 56 790 791
f 810 218 830
f 810 830 790
f 790 830 239
f 790 239 927
f 791 790 927
f 791 927 238
f 866 867 865
f 866 865 8
f 867 253 121
f 867 121 865
f 858 60 253
f 858 253 867
f 118 858 867
f 118 867 866
f 865 869 868
f 865 868 8
f 869 824 119
f 869 119 868
f 260 67 824
f 260 824 869
f 121 260 869
f 121 869 865
f 243 808 801
f 243 801 802
f 808 111 838
f 808 838 801
f 801 838 218
f 801 218 810
f 802 801 810
f 802 810 56
f 875 876 873
f 875 873 236
f 876 860 235
f 876 235 873
f 874 68 860
f 874 860 876
f 229 874 876
f 229 876 875
f 871 877 874
f 871 874 229
f 877 855 68
f 877 68 874
f 831 231 855
f 831 855 877
f 230 831 877
f 230 877 871
f 246 839 816
f 246 816 818
f 839 245 879
f 839 879 816
f 816 879 212
f 816 212 863
f 818 816 863
f 818 863 54
f 246 818 817
f 246 817 833
f 818 54 845
f 818 845 817
f 817 845 239
f 817 239 830
f 833 817 830
f 833 830 218
f 882 883 881
f 882 881 216
f 883 717 47
f 883 47 881
f 731 179 717
f 731 717 883
f 106 731 883
f 106 883 882
f 886 887 712
f 886 712 109
f 887 884 214
f 887 214 712
f 885 55 884
f 885 884 887
f 215 885 887
f 215 887 886
f 886 890 888
f 886 888 215
f 890 889 53
f 890 53 888
f 698 211 889
f 698 889 890
f 109 698 890
f 109 890 886
f 893 894 891
f 893 891 51
f 894 892 209
f 894 209 891
f 753 105 892
f 753 892 894
f 207 753 894
f 207 894 893
f 898 899 895
f 898 895 51
f 899 896 210
f 899 210 895
f 897 53 896
f 897 896 899
f 241 897 899
f 241 899 898
f 893 901 750
f 893 750 207
f 901 900 107
f 901 107 750
f 895 210 900
f 895 900 901
f 51 895 901
f 51 901 893
f 898 905 902
f 898 902 241
f 905 903 220
f 905 220 902
f 904 108 903
f 904 903 905
f 51 904 905
f 51 905 898
f 892 908 906
f 892 906 209
f 908 907 52
f 908 52 906
f 740 208 907
f 740 907 908
f 105 740 908
f 105 908 892
f 900 909 701
f 900 701 107
f 909 889 211
f 909 211 701
f 896 53 889
f 896 889 909
f 210 896 909
f 210 909 900
f 911 912 897
f 911 897 241
f 912 888 53
f 912 53 897
f 910 215 888
f 910 888 912
f 242 910 912
f 242 912 911
f 902 915 911
f 902 911 241
f 915 913 242
f 915 242 911
f 914 110 913
f 914 913 915
f 220 914 915
f 220 915 902
f 917 918 910
f 917 910 242
f 918 885 215
f 918 215 910
f 916 55 885
f 916 885 918
f 237 916 918
f 237 918 917
f 920 921 919
f 920 919 103
f 921 711 214
f 921 214 919
f 708 46 711
f 708 711 921
f 178 708 921
f 178 921 920
f 922 923 916
f 922 916 237
f 923 884 55
f 923 55 916
f 919 214 884
f 919 884 923
f 103 919 923
f 103 923 922
f 924 925 920
f 924 920 103
f 925 720 178
f 925 178 920
f 881 47 720
f 881 720 925
f 216 881 925
f 216 925 924
f 928 929 882
f 928 882 216
f 929 926 106
f 929 106 882
f 927 239 926
f 927 926 929
f 238 927 929
f 238 929 928
f 931 932 930
f 931 930 217
f 932 913 110
f 932 110 930
f 917 242 913
f 917 913 932
f 237 917 932
f 237 932 931
f 934 935 933
f 934 933 244
f 935 924 103
f 935 103 933
f 928 216 924
f 928 924 935
f 238 928 935
f 238 935 934
f 936 937 931
f 936 931 217
f 937 922 237
f 937 237 931
f 933 103 922
f 933 922 937
f 244 933 937
f 244 937 936
f 939 940 938
f 939 938 240
f 940 906 52
f 940 52 938
f 891 209 906
f 891 906 940
f 51 891 940
f 51 940 939
f 939 943 904
f 939 904 51
f 943 941 108
f 943 108 904
f 942 219 941
f 942 941 943
f 240 942 943
f 240 943 939
f 945 946 743
f 945 743 104
f 946 907 208
f 946 208 743
f 944 52 907
f 944 907 946
f 212 944 946
f 212 946 945
f 879 878 944
f 879 944 212
f 878 938 52
f 878 52 944
f 880 240 938
f 880 938 878
f 245 880 878
f 245 878 879
f 870 864 880
f 870 880 245
f 864 942 240
f 864 240 880
f 872 219 942
f 872 942 864
f 111 872 864
f 111 864 870
f 853 852 727
f 853 727 213
f 852 945 104
f 852 104 727
f 863 212 945
f 863 945 852
f 54 863 852
f 54 852 853
f 845 844 926
f 845 926 239
f 844 730 106
f 844 106 926
f 853 213 730
f 853 730 844
f 54 853 844
f 54 844 845
f 833 832 839
f 833 839 246
f 832 870 245
f 832 245 839
f 838 111 870
f 838 870 832
f 218 838 832
f 218 832 833
