# _5th_Distal_Phalanges_Hand_L posed
v -0.831462 -0.340008 0.376532
v -0.831692 -0.339006 0.377222
v -0.832282 -0.338633 0.378003
v -0.833054 -0.339083 0.378099
v -0.833236 -0.340304 0.377856
v -0.832525 -0.341644 0.377414
v -0.831414 -0.341973 0.376911
v -0.831119 -0.341139 0.376507
v -0.828198 -0.342370 0.378481
v -0.827877 -0.341488 0.377991
v -0.828117 -0.340227 0.378045
v -0.828867 -0.339192 0.378853
v -0.829693 -0.338523 0.379762
v -0.829933 -0.339295 0.380267
v -0.829637 -0.340651 0.380154
v -0.828974 -0.341929 0.379448
v -0.826177 -0.342991 0.379112
v -0.825916 -0.341816 0.378466
v -0.826315 -0.340291 0.378638
v -0.827127 -0.338986 0.379483
v -0.827981 -0.338136 0.380696
v -0.828338 -0.339031 0.381402
v -0.827794 -0.340747 0.381400
v -0.827037 -0.342285 0.380575
v -0.832548 -0.339988 0.375769
v -0.832415 -0.338736 0.376451
v -0.831644 -0.341270 0.375908
v -0.833107 -0.339957 0.375285
v -0.831886 -0.341422 0.375377
v -0.833068 -0.338550 0.376044
v -0.834482 -0.340193 0.377025
v -0.833372 -0.341716 0.376671
v -0.834191 -0.338725 0.377522
v -0.833124 -0.337988 0.377671
v -0.831703 -0.342401 0.376495
v -0.835183 -0.340095 0.376444
v -0.833989 -0.341738 0.376101
v -0.832142 -0.342673 0.375880
v -0.833643 -0.337798 0.377290
v -0.834744 -0.338578 0.377060
v -0.836139 -0.339816 0.374882
v -0.835604 -0.340871 0.374837
v -0.834948 -0.341217 0.374193
v -0.834087 -0.340754 0.373933
v -0.834702 -0.339747 0.374012
v -0.834828 -0.338854 0.374582
v -0.835603 -0.338608 0.374991
v -0.835975 -0.338913 0.375284
v -0.835858 -0.339758 0.374099
v -0.835817 -0.339944 0.375683
v -0.834944 -0.341362 0.375405
v -0.833602 -0.342159 0.374877
v -0.832912 -0.341194 0.374440
v -0.833669 -0.339823 0.374565
v -0.833979 -0.338645 0.375250
v -0.834725 -0.338077 0.376093
v -0.835544 -0.338661 0.376127
v -0.824409 -0.340834 0.379829
v -0.823945 -0.341975 0.379255
v -0.824293 -0.342953 0.379808
v -0.824860 -0.342176 0.381128
v -0.825631 -0.340513 0.382087
v -0.826142 -0.338976 0.382287
v -0.825671 -0.338623 0.381400
v -0.825051 -0.339524 0.380664
v -0.825207 -0.340325 0.378899
v -0.824700 -0.342104 0.378550
v -0.825002 -0.343546 0.379334
v -0.825935 -0.342776 0.381375
v -0.826703 -0.340715 0.382768
v -0.827688 -0.338387 0.382679
v -0.826476 -0.337592 0.381410
v -0.825853 -0.338834 0.379737
v -0.829542 -0.339602 0.377942
v -0.830218 -0.338909 0.378769
v -0.830856 -0.338891 0.379428
v -0.830983 -0.339886 0.379534
v -0.830586 -0.341220 0.379161
v -0.829811 -0.342082 0.378355
v -0.829190 -0.341777 0.377726
v -0.829106 -0.340768 0.377495
v -0.830674 -0.339519 0.377324
v -0.830361 -0.340658 0.376928
v -0.831968 -0.341089 0.378390
v -0.832224 -0.339779 0.378689
v -0.831864 -0.338923 0.378638
v -0.831206 -0.338885 0.378139
v -0.832031 -0.339418 0.376365
v -0.831878 -0.340585 0.376093
v -0.830417 -0.341647 0.377130
v -0.831072 -0.341969 0.377675
v -0.833564 -0.340997 0.377198
v -0.832325 -0.342088 0.376882
v -0.831254 -0.341747 0.376398
v -0.832196 -0.338446 0.377350
v -0.833962 -0.339493 0.377595
v -0.833251 -0.338469 0.377919
v -0.835898 -0.340459 0.374382
v -0.835007 -0.340396 0.373875
v -0.835409 -0.339163 0.374289
v -0.836069 -0.339202 0.374741
v -0.828410 -0.338683 0.379697
v -0.826931 -0.342222 0.378492
v -0.825225 -0.342797 0.378673
v -0.827538 -0.342530 0.379438
v -0.826016 -0.343183 0.380127
v -0.826957 -0.340997 0.378199
v -0.825451 -0.341156 0.378462
v -0.827515 -0.339624 0.378738
v -0.826107 -0.339533 0.379092
v -0.826793 -0.338233 0.380270
v -0.829070 -0.338672 0.380647
v -0.827914 -0.337919 0.381723
v -0.828885 -0.339946 0.380839
v -0.827819 -0.339698 0.382141
v -0.828300 -0.341437 0.380478
v -0.826921 -0.341722 0.381660
v -0.824110 -0.342892 0.379132
v -0.826631 -0.339576 0.382967
v -0.826449 -0.338149 0.382141
v -0.824212 -0.342055 0.379921
v -0.824464 -0.341230 0.378918
v -0.824966 -0.343193 0.380505
v -0.825660 -0.341745 0.382237
v -0.824356 -0.340632 0.381092
v -0.825386 -0.339333 0.381623
v -0.825400 -0.338430 0.380763
v -0.825073 -0.339803 0.379721
v -0.831539 -0.339445 0.376806
v -0.831910 -0.338730 0.377670
v -0.832689 -0.338758 0.378098
v -0.833235 -0.339636 0.378008
v -0.832985 -0.341024 0.377683
v -0.831923 -0.341970 0.377178
v -0.831098 -0.341657 0.376651
v -0.831332 -0.340589 0.376438
v -0.827958 -0.342014 0.378163
v -0.827918 -0.340890 0.377909
v -0.828479 -0.339608 0.378402
v -0.829266 -0.338788 0.379306
v -0.829941 -0.338777 0.380128
v -0.829842 -0.339944 0.380266
v -0.829320 -0.341331 0.379882
v -0.828559 -0.342308 0.378973
v -0.825920 -0.342521 0.378655
v -0.826073 -0.341079 0.378413
v -0.826689 -0.339583 0.378978
v -0.827524 -0.338462 0.380068
v -0.828348 -0.338359 0.381201
v -0.828120 -0.339869 0.381492
v -0.827420 -0.341569 0.381092
v -0.826607 -0.342881 0.379861
v -0.829439 -0.342086 0.377989
v -0.829070 -0.341317 0.377563
v -0.829274 -0.340164 0.377624
v -0.829868 -0.339209 0.378362
v -0.830581 -0.338740 0.379158
v -0.830981 -0.339309 0.379547
v -0.830853 -0.340563 0.379408
v -0.830221 -0.341777 0.378773
v -0.827171 -0.342631 0.378853
v -0.826892 -0.341616 0.378329
v -0.827174 -0.340273 0.378361
v -0.827980 -0.339145 0.379217
v -0.828850 -0.338377 0.380237
v -0.829016 -0.339245 0.380788
v -0.828646 -0.340707 0.380758
v -0.827924 -0.342061 0.380015
v -0.830482 -0.340075 0.377042
v -0.830922 -0.339133 0.377739
v -0.831552 -0.338793 0.378464
v -0.832100 -0.339265 0.378697
v -0.832203 -0.340421 0.378584
v -0.831587 -0.341669 0.378006
v -0.830695 -0.341958 0.377356
v -0.830302 -0.341201 0.376976
v -0.832059 -0.340002 0.376119
v -0.832498 -0.339385 0.376000
v -0.832005 -0.338877 0.376804
v -0.832219 -0.340651 0.375750
v -0.831461 -0.341159 0.376197
v -0.832589 -0.340713 0.375228
v -0.833131 -0.339235 0.375572
v -0.833916 -0.340243 0.377379
v -0.832992 -0.341658 0.377030
v -0.834056 -0.341005 0.376814
v -0.833715 -0.338877 0.377808
v -0.834484 -0.339397 0.377279
v -0.833701 -0.338256 0.377705
v -0.832658 -0.338319 0.377828
v -0.832486 -0.338174 0.377101
v -0.831276 -0.341902 0.376155
v -0.831600 -0.342139 0.376715
v -0.832606 -0.342228 0.376608
v -0.834718 -0.340981 0.376243
v -0.833175 -0.342327 0.376011
v -0.831522 -0.342212 0.375589
v -0.833065 -0.337946 0.376745
v -0.834222 -0.338088 0.377293
v -0.835140 -0.339253 0.376734
v -0.835945 -0.340396 0.374817
v -0.835407 -0.341080 0.374543
v -0.834471 -0.341013 0.373955
v -0.834417 -0.340270 0.373919
v -0.834833 -0.339242 0.374254
v -0.835213 -0.338705 0.374734
v -0.835881 -0.338728 0.375157
v -0.836102 -0.339296 0.375057
v -0.836130 -0.339779 0.374490
v -0.835858 -0.339078 0.374491
v -0.835298 -0.339760 0.373979
v -0.835536 -0.340536 0.374010
v -0.834294 -0.338191 0.375695
v -0.835144 -0.338256 0.376211
v -0.835804 -0.339243 0.375916
v -0.835477 -0.340689 0.375548
v -0.833277 -0.340471 0.374479
v -0.833842 -0.339213 0.374847
v -0.834312 -0.341892 0.375199
v -0.833046 -0.341873 0.374544
v -0.825729 -0.340311 0.378718
v -0.825269 -0.341992 0.378462
v -0.824110 -0.341403 0.379380
v -0.823944 -0.342557 0.379498
v -0.825544 -0.343294 0.379221
v -0.824575 -0.342760 0.380437
v -0.826539 -0.342543 0.381000
v -0.825271 -0.341343 0.381653
v -0.827322 -0.340754 0.382050
v -0.825879 -0.339672 0.382272
v -0.828072 -0.338702 0.382018
v -0.825944 -0.338713 0.381898
v -0.827261 -0.337834 0.381054
v -0.825360 -0.338970 0.380983
v -0.824737 -0.340179 0.380279
v -0.825300 -0.339115 0.380169
v -0.824616 -0.342990 0.378726
v -0.825435 -0.343429 0.380355
v -0.826270 -0.341856 0.382181
v -0.827387 -0.339506 0.382918
v -0.827257 -0.337657 0.382166
v -0.824930 -0.341193 0.378607
v -0.825564 -0.339543 0.379265
v -0.826086 -0.338120 0.380437
v -0.824767 -0.340474 0.379279
v -0.824176 -0.342080 0.378887
v -0.824482 -0.343290 0.379645
v -0.825340 -0.342618 0.381479
v -0.826053 -0.340667 0.382798
v -0.826868 -0.338577 0.382735
v -0.825757 -0.338120 0.381464
v -0.826508 -0.338838 0.379569
v -0.823975 -0.341447 0.380573
v -0.824849 -0.339922 0.381415
f 177 88 129
f 177 129 1
f 136 89 177
f 136 177 1
f 179 95 130
f 179 130 2
f 2 129 88
f 2 88 179
f 190 97 131
f 190 131 3
f 130 95 190
f 130 190 3
f 187 96 132
f 187 132 4
f 131 97 187
f 131 187 4
f 184 92 133
f 184 133 5
f 132 96 184
f 132 184 5
f 185 93 134
f 185 134 6
f 133 92 185
f 133 185 6
f 193 94 135
f 193 135 7
f 134 93 193
f 134 193 7
f 181 89 136
f 181 136 8
f 8 135 94
f 8 94 181
f 9 137 103
f 9 103 161
f 9 161 105
f 9 105 144
f 10 138 107
f 10 107 162
f 10 162 103
f 10 103 137
f 11 139 109
f 11 109 163
f 11 163 107
f 11 107 138
f 12 140 102
f 12 102 164
f 12 164 109
f 12 109 139
f 13 141 112
f 13 112 165
f 13 165 102
f 13 102 140
f 14 142 114
f 14 114 166
f 14 166 112
f 14 112 141
f 15 143 116
f 15 116 167
f 15 167 114
f 15 114 142
f 16 144 105
f 16 105 168
f 16 168 116
f 16 116 143
f 161 103 145
f 161 145 17
f 17 145 104
f 17 104 225
f 17 225 106
f 17 106 152
f 17 152 105
f 17 105 161
f 162 107 146
f 162 146 18
f 18 146 108
f 18 108 222
f 18 222 104
f 18 104 145
f 18 145 103
f 18 103 162
f 163 109 147
f 163 147 19
f 19 147 110
f 19 110 221
f 19 221 108
f 19 108 146
f 19 146 107
f 19 107 163
f 164 102 148
f 164 148 20
f 20 148 111
f 20 111 252
f 20 147 109
f 20 109 164
f 252 110 147
f 252 147 20
f 165 112 149
f 165 149 21
f 21 149 113
f 21 113 233
f 21 233 111
f 21 111 148
f 21 148 102
f 21 102 165
f 166 114 150
f 166 150 22
f 22 150 115
f 22 115 231
f 22 231 113
f 22 113 149
f 22 149 112
f 22 112 166
f 167 116 151
f 167 151 23
f 23 151 117
f 23 117 229
f 23 229 115
f 23 115 150
f 23 150 114
f 23 114 167
f 168 105 152
f 168 152 24
f 24 152 106
f 24 106 227
f 24 227 117
f 24 117 151
f 24 151 116
f 24 116 168
f 49 212 98
f 49 98 209
f 211 99 212
f 211 212 49
f 49 209 101
f 49 101 210
f 49 210 100
f 49 100 211
f 253 121 223
f 253 223 58
f 58 223 122
f 58 122 245
f 58 235 125
f 58 125 253
f 245 128 235
f 245 235 58
f 59 224 118
f 59 118 246
f 223 121 224
f 223 224 59
f 246 122 223
f 246 223 59
f 224 121 226
f 224 226 60
f 60 226 123
f 60 123 247
f 247 118 224
f 247 224 60
f 61 228 124
f 61 124 248
f 253 125 228
f 253 228 61
f 226 121 253
f 226 253 61
f 248 123 226
f 248 226 61
f 62 230 119
f 62 119 249
f 254 126 230
f 254 230 62
f 228 125 254
f 228 254 62
f 249 124 228
f 249 228 62
f 63 232 120
f 63 120 250
f 230 126 232
f 230 232 63
f 250 119 230
f 250 230 63
f 232 126 234
f 232 234 64
f 64 234 127
f 64 127 251
f 251 120 232
f 251 232 64
f 65 236 127
f 65 127 234
f 235 128 236
f 235 236 65
f 65 234 126
f 65 126 254
f 254 125 235
f 254 235 65
f 221 110 243
f 221 243 66
f 66 243 128
f 66 128 245
f 66 245 122
f 66 122 242
f 242 108 221
f 242 221 66
f 67 237 104
f 67 104 222
f 246 118 237
f 246 237 67
f 222 108 242
f 222 242 67
f 67 242 122
f 67 122 246
f 68 238 106
f 68 106 225
f 247 123 238
f 247 238 68
f 237 118 247
f 237 247 68
f 68 225 104
f 68 104 237
f 69 239 117
f 69 117 227
f 248 124 239
f 248 239 69
f 238 123 248
f 238 248 69
f 69 227 106
f 69 106 238
f 70 240 115
f 70 115 229
f 249 119 240
f 249 240 70
f 239 124 249
f 239 249 70
f 70 229 117
f 70 117 239
f 71 241 113
f 71 113 231
f 250 120 241
f 250 241 71
f 240 119 250
f 240 250 71
f 71 231 115
f 71 115 240
f 72 244 111
f 72 111 233
f 251 127 244
f 251 244 72
f 241 120 251
f 241 251 72
f 72 233 113
f 72 113 241
f 243 110 252
f 243 252 73
f 73 252 111
f 73 111 244
f 244 127 236
f 244 236 73
f 73 236 128
f 73 128 243
f 41 209 98
f 41 98 201
f 201 216 50
f 201 50 41
f 43 202 98
f 43 98 212
f 43 52 219
f 43 219 202
f 204 99 211
f 204 211 45
f 45 54 217
f 45 217 204
f 206 100 210
f 206 210 47
f 210 101 207
f 210 207 47
f 47 207 214
f 47 214 56
f 47 56 213
f 47 213 206
f 220 52 43
f 220 43 203
f 203 43 212
f 203 212 99
f 205 45 211
f 205 211 100
f 218 54 45
f 218 45 205
f 101 209 41
f 101 41 208
f 208 41 50
f 208 50 215
f 51 216 201
f 51 201 42
f 42 201 98
f 42 98 202
f 42 202 219
f 42 219 51
f 205 100 206
f 205 206 46
f 46 206 213
f 46 213 55
f 46 55 218
f 46 218 205
f 203 99 204
f 203 204 44
f 44 204 217
f 44 217 53
f 44 53 220
f 44 220 203
f 207 101 208
f 207 208 48
f 48 208 215
f 48 215 57
f 48 57 214
f 48 214 207
f 54 218 183
f 54 183 28
f 25 178 88
f 25 88 177
f 28 183 178
f 28 178 25
f 27 181 94
f 27 94 192
f 197 220 53
f 197 53 29
f 192 197 29
f 192 29 27
f 183 218 55
f 183 55 30
f 26 179 88
f 26 88 178
f 178 183 30
f 178 30 26
f 31 186 92
f 31 92 184
f 36 195 186
f 36 186 31
f 50 216 195
f 50 195 36
f 35 192 94
f 35 94 193
f 35 38 197
f 35 197 192
f 52 220 197
f 52 197 38
f 34 189 97
f 34 97 190
f 34 39 199
f 34 199 189
f 56 214 199
f 56 199 39
f 199 214 57
f 199 57 40
f 187 97 189
f 187 189 33
f 33 189 199
f 33 199 40
f 219 52 38
f 219 38 196
f 196 38 35
f 196 35 194
f 194 35 193
f 194 193 93
f 95 179 26
f 95 26 191
f 213 56 39
f 213 39 198
f 198 39 34
f 198 34 191
f 191 34 190
f 191 190 95
f 191 26 30
f 191 30 198
f 198 30 55
f 198 55 213
f 194 93 185
f 194 185 32
f 195 216 51
f 195 51 37
f 32 37 196
f 32 196 194
f 186 195 37
f 186 37 32
f 32 185 92
f 32 92 186
f 51 219 196
f 51 196 37
f 89 181 27
f 89 27 180
f 182 29 53
f 182 53 217
f 182 28 25
f 182 25 180
f 180 25 177
f 180 177 89
f 180 27 29
f 180 29 182
f 217 54 28
f 217 28 182
f 96 187 33
f 96 33 188
f 215 50 36
f 215 36 200
f 200 36 31
f 200 31 188
f 188 31 184
f 188 184 96
f 188 33 40
f 188 40 200
f 200 40 57
f 200 57 215
f 80 137 9
f 80 9 153
f 80 153 175
f 80 175 90
f 175 7 135
f 175 135 90
f 82 169 1
f 82 1 129
f 74 139 11
f 74 11 155
f 74 155 169
f 74 169 82
f 76 141 13
f 76 13 157
f 76 157 171
f 76 171 86
f 171 3 131
f 171 131 86
f 78 143 15
f 78 15 159
f 78 159 173
f 78 173 84
f 84 173 5
f 84 5 133
f 154 10 137
f 154 137 80
f 90 135 8
f 90 8 176
f 80 90 176
f 80 176 154
f 158 14 141
f 158 141 76
f 86 131 4
f 86 4 172
f 76 86 172
f 76 172 158
f 81 138 10
f 81 10 154
f 83 176 8
f 83 8 136
f 81 83 169
f 81 169 155
f 154 176 83
f 154 83 81
f 81 155 11
f 81 11 138
f 136 1 169
f 136 169 83
f 159 15 142
f 159 142 77
f 85 132 5
f 85 5 173
f 77 142 14
f 77 14 158
f 77 158 172
f 77 172 85
f 77 85 173
f 77 173 159
f 172 4 132
f 172 132 85
f 156 12 139
f 156 139 74
f 82 129 2
f 82 2 170
f 74 82 170
f 74 170 156
f 157 13 140
f 157 140 75
f 87 130 3
f 87 3 171
f 75 140 12
f 75 12 156
f 75 156 170
f 75 170 87
f 75 87 171
f 75 171 157
f 87 170 2
f 87 2 130
f 160 16 143
f 160 143 78
f 84 133 6
f 84 6 174
f 78 84 174
f 78 174 160
f 153 9 144
f 153 144 79
f 91 134 7
f 91 7 175
f 79 144 16
f 79 16 160
f 79 160 174
f 79 174 91
f 79 91 175
f 79 175 153
f 91 174 6
f 91 6 134
