# _5th_Proximal_Phalanx_Foot_R rest
v -0.155490 -1.332703 0.094105
v -0.156099 -1.333638 0.093474
v -0.156247 -1.335008 0.095097
v -0.155104 -1.333310 0.095940
v -0.154210 -1.333258 0.097619
v -0.154664 -1.336947 0.093952
v -0.152998 -1.333787 0.097863
v -0.152765 -1.334519 0.096370
v -0.153405 -1.334912 0.095094
v -0.154599 -1.334246 0.095757
v -0.154063 -1.334120 0.096510
v -0.155760 -1.333105 0.093558
v -0.155384 -1.334050 0.094663
v -0.154906 -1.334749 0.095271
v -0.153689 -1.335136 0.094757
v -0.155278 -1.335253 0.095242
v -0.153882 -1.335639 0.094480
v -0.154019 -1.336931 0.093962
v -0.155619 -1.336281 0.094605
v -0.155276 -1.336031 0.095071
v -0.154685 -1.332464 0.096017
v -0.155052 -1.332182 0.093858
v -0.155505 -1.332690 0.092729
v -0.156038 -1.333756 0.092387
v -0.153872 -1.332585 0.097020
v -0.152441 -1.333443 0.097221
v -0.152210 -1.334378 0.095953
v -0.153001 -1.334960 0.094622
v -0.153254 -1.335160 0.094276
v -0.153355 -1.335635 0.093832
v -0.153572 -1.336823 0.093372
v -0.154371 -1.336840 0.092976
v -0.155323 -1.336237 0.092991
v -0.156082 -1.335309 0.093387
v -0.155293 -1.332261 0.092004
v -0.154744 -1.331663 0.092763
v -0.153766 -1.331574 0.093397
v -0.155473 -1.333066 0.091181
v -0.155232 -1.333971 0.090684
v -0.154515 -1.334850 0.090370
v -0.153786 -1.335287 0.090422
v -0.152885 -1.335329 0.090814
v -0.152372 -1.334718 0.091393
v -0.151993 -1.334155 0.091973
v -0.151665 -1.333745 0.092616
v -0.151293 -1.333229 0.093302
v -0.151652 -1.332466 0.093789
v -0.152621 -1.331899 0.093631
v -0.151316 -1.331574 0.091912
v -0.152208 -1.330983 0.091838
v -0.153528 -1.330831 0.091460
v -0.154320 -1.330857 0.091079
v -0.154970 -1.331278 0.090467
v -0.155078 -1.332044 0.089830
v -0.154743 -1.332969 0.089219
v -0.154028 -1.333992 0.088736
v -0.153358 -1.334355 0.088815
v -0.152474 -1.334581 0.089122
v -0.151722 -1.334278 0.089702
v -0.151279 -1.333521 0.090539
v -0.150893 -1.332849 0.091236
v -0.151043 -1.331981 0.091799
v -0.151065 -1.330569 0.090122
v -0.151849 -1.330144 0.090111
v -0.152939 -1.329953 0.089738
v -0.153763 -1.329960 0.089354
v -0.154632 -1.330323 0.088698
v -0.154718 -1.331183 0.088040
v -0.154294 -1.332104 0.087582
v -0.153752 -1.332977 0.087259
v -0.153036 -1.333636 0.087176
v -0.152172 -1.333891 0.087444
v -0.151159 -1.333525 0.088162
v -0.150649 -1.332756 0.088879
v -0.150347 -1.331949 0.089558
v -0.150572 -1.331134 0.090005
v -0.150345 -1.329739 0.088475
v -0.151166 -1.329306 0.088402
v -0.152335 -1.329079 0.088025
v -0.153278 -1.329088 0.087630
v -0.154208 -1.329483 0.086989
v -0.154190 -1.330536 0.086318
v -0.153709 -1.331335 0.085979
v -0.153225 -1.332383 0.085616
v -0.152494 -1.332979 0.085606
v -0.151718 -1.333248 0.085774
v -0.150633 -1.332955 0.086392
v -0.149891 -1.332131 0.087117
v -0.149507 -1.331223 0.087871
v -0.149762 -1.330343 0.088343
v -0.149535 -1.328840 0.086842
v -0.150381 -1.328436 0.086765
v -0.151563 -1.328152 0.086431
v -0.152916 -1.328160 0.085833
v -0.153828 -1.328524 0.085153
v -0.153650 -1.329775 0.084398
v -0.153107 -1.330674 0.084076
v -0.152568 -1.331698 0.083671
v -0.151859 -1.332265 0.083544
v -0.150857 -1.332705 0.083690
v -0.149692 -1.332689 0.084196
v -0.148827 -1.331542 0.085172
v -0.148510 -1.330457 0.086089
v -0.148857 -1.329487 0.086669
v -0.148420 -1.327761 0.085298
v -0.149455 -1.327345 0.085231
v -0.150833 -1.327161 0.084795
v -0.152562 -1.327150 0.084056
v -0.153439 -1.327715 0.083391
v -0.153194 -1.329005 0.082581
v -0.152666 -1.329898 0.082217
v -0.151906 -1.330827 0.081701
v -0.151047 -1.331627 0.081225
v -0.149963 -1.332257 0.081284
v -0.148469 -1.332207 0.081756
v -0.147678 -1.331123 0.082921
v -0.147046 -1.329818 0.084203
v -0.147592 -1.328513 0.085088
v -0.146616 -1.330867 0.081146
v -0.146787 -1.331728 0.080143
v -0.145836 -1.330286 0.081755
v -0.145889 -1.330579 0.079641
v -0.146120 -1.331177 0.078670
v -0.145338 -1.329897 0.080227
v -0.144404 -1.328772 0.080438
v -0.144559 -1.328864 0.082051
v -0.144401 -1.327197 0.079926
v -0.144487 -1.326968 0.081472
v -0.145305 -1.325936 0.079399
v -0.145491 -1.325505 0.080814
v -0.147230 -1.324637 0.079286
v -0.147278 -1.324584 0.080661
v -0.149578 -1.324513 0.080885
v -0.149245 -1.324308 0.079590
v -0.151627 -1.325145 0.080601
v -0.150746 -1.324572 0.079416
v -0.146112 -1.328632 0.083942
v -0.145958 -1.327091 0.083471
v -0.146766 -1.326254 0.083277
v -0.148300 -1.325564 0.083059
v -0.150015 -1.325394 0.082577
v -0.152024 -1.325771 0.081773
v -0.152732 -1.326476 0.081133
v -0.152402 -1.326041 0.079921
v -0.151734 -1.325549 0.078827
v -0.151777 -1.326715 0.077562
v -0.152252 -1.327299 0.078754
v -0.152602 -1.327902 0.080157
v -0.147804 -1.332488 0.077589
v -0.147012 -1.331750 0.076305
v -0.148395 -1.331537 0.076135
v -0.147633 -1.330641 0.075037
v -0.148785 -1.332604 0.078820
v -0.148888 -1.329302 0.074918
v -0.149671 -1.330026 0.075845
v -0.149449 -1.331843 0.077882
v -0.150318 -1.330750 0.077524
v -0.150038 -1.328053 0.075638
v -0.150661 -1.328984 0.076394
v -0.151117 -1.329852 0.078050
v -0.151916 -1.328904 0.078935
v -0.151608 -1.328145 0.077495
v -0.150983 -1.327312 0.076355
v -0.147016 -1.329635 0.077189
v -0.148215 -1.328384 0.077012
v -0.145818 -1.328373 0.079166
v -0.146792 -1.327078 0.078858
v -0.148193 -1.326105 0.078863
v -0.149344 -1.327403 0.077380
v -0.150155 -1.326782 0.077796
v -0.146472 -1.328999 0.078338
v -0.147571 -1.327816 0.078001
v -0.148780 -1.326936 0.078129
v -0.149593 -1.326447 0.078408
v -0.149457 -1.325674 0.078899
f 4 13 14
f 4 14 10
f 12 13 4
f 12 4 1
f 5 4 10
f 5 10 11
f 8 7 5
f 8 5 11
f 9 8 11
f 9 11 10
f 9 10 14
f 9 14 15
f 15 14 16
f 15 16 17
f 18 17 16
f 18 16 20
f 13 12 2
f 13 2 3
f 16 14 13
f 16 13 3
f 20 16 3
f 20 3 19
f 19 6 18
f 19 18 20
f 22 1 4
f 22 4 21
f 22 23 12
f 22 12 1
f 2 12 23
f 2 23 24
f 34 3 2
f 34 2 24
f 33 19 3
f 33 3 34
f 32 6 19
f 32 19 33
f 31 18 6
f 31 6 32
f 30 17 18
f 30 18 31
f 29 15 17
f 29 17 30
f 28 9 15
f 28 15 29
f 27 8 9
f 27 9 28
f 26 7 8
f 26 8 27
f 25 5 7
f 25 7 26
f 21 4 5
f 21 5 25
f 64 63 77
f 64 77 78
f 65 64 78
f 65 78 79
f 66 65 79
f 66 79 80
f 67 66 80
f 67 80 81
f 68 67 81
f 68 81 82
f 69 68 82
f 69 82 83
f 70 69 83
f 70 83 84
f 71 70 84
f 71 84 85
f 72 71 85
f 72 85 86
f 73 72 86
f 73 86 87
f 74 73 87
f 74 87 88
f 75 74 88
f 75 88 89
f 76 75 89
f 76 89 90
f 90 77 63
f 90 63 76
f 78 77 91
f 78 91 92
f 79 78 92
f 79 92 93
f 80 79 93
f 80 93 94
f 81 80 94
f 81 94 95
f 82 81 95
f 82 95 96
f 83 82 96
f 83 96 97
f 84 83 97
f 84 97 98
f 85 84 98
f 85 98 99
f 86 85 99
f 86 99 100
f 87 86 100
f 87 100 101
f 88 87 101
f 88 101 102
f 89 88 102
f 89 102 103
f 90 89 103
f 90 103 104
f 104 91 77
f 104 77 90
f 35 23 22
f 35 22 36
f 52 53 35
f 52 35 36
f 66 67 53
f 66 53 52
f 24 23 35
f 24 35 38
f 38 35 53
f 38 53 54
f 54 53 67
f 54 67 68
f 34 24 38
f 34 38 39
f 39 38 54
f 39 54 55
f 55 54 68
f 55 68 69
f 33 34 39
f 33 39 40
f 40 39 55
f 40 55 56
f 56 55 69
f 56 69 70
f 32 33 40
f 32 40 41
f 41 40 56
f 41 56 57
f 57 56 70
f 57 70 71
f 31 32 41
f 31 41 42
f 42 41 57
f 42 57 58
f 58 57 71
f 58 71 72
f 30 31 42
f 30 42 43
f 43 42 58
f 43 58 59
f 59 58 72
f 59 72 73
f 29 30 43
f 29 43 44
f 44 43 59
f 44 59 60
f 60 59 73
f 60 73 74
f 28 29 44
f 28 44 45
f 45 44 60
f 45 60 61
f 61 60 74
f 61 74 75
f 27 28 45
f 27 45 46
f 46 45 61
f 46 61 62
f 62 61 75
f 62 75 76
f 26 27 46
f 26 46 47
f 47 46 62
f 47 62 49
f 49 62 76
f 49 76 63
f 25 26 47
f 25 47 48
f 48 47 49
f 48 49 50
f 50 49 63
f 50 63 64
f 37 36 22
f 37 22 21
f 51 52 36
f 51 36 37
f 37 21 25
f 37 25 48
f 37 48 50
f 37 50 51
f 51 50 64
f 51 64 65
f 65 66 52
f 65 52 51
f 115 116 102
f 115 102 101
f 103 102 116
f 103 116 117
f 117 116 119
f 117 119 121
f 137 117 121
f 137 121 126
f 104 103 117
f 104 117 118
f 118 117 137
f 118 137 138
f 138 137 126
f 138 126 128
f 91 104 118
f 91 118 105
f 105 118 138
f 105 138 139
f 139 138 128
f 139 128 130
f 92 91 105
f 92 105 106
f 106 105 139
f 106 139 140
f 140 139 130
f 140 130 132
f 93 92 106
f 93 106 107
f 107 106 140
f 107 140 141
f 141 140 132
f 141 132 133
f 94 93 107
f 94 107 108
f 95 94 108
f 95 108 109
f 108 107 141
f 108 141 142
f 142 141 133
f 142 133 135
f 143 142 135
f 143 135 144
f 143 109 108
f 143 108 142
f 96 95 109
f 96 109 110
f 120 119 116
f 120 116 115
f 149 120 115
f 149 115 153
f 114 115 101
f 114 101 100
f 156 153 115
f 156 115 114
f 151 149 153
f 151 153 156
f 113 114 100
f 113 100 99
f 157 156 114
f 157 114 113
f 155 151 156
f 155 156 157
f 112 113 99
f 112 99 98
f 97 96 110
f 97 110 111
f 111 112 98
f 111 98 97
f 160 157 113
f 160 113 112
f 110 109 143
f 110 143 148
f 161 160 112
f 161 112 111
f 161 111 110
f 161 110 148
f 159 155 157
f 159 157 160
f 148 143 144
f 148 144 147
f 162 159 160
f 162 160 161
f 162 161 148
f 162 148 147
f 123 120 149
f 123 149 150
f 152 150 149
f 152 149 151
f 154 152 151
f 154 151 155
f 125 126 121
f 125 121 124
f 128 126 125
f 128 125 127
f 130 128 127
f 130 127 129
f 132 130 129
f 132 129 131
f 158 154 155
f 158 155 159
f 158 159 162
f 158 162 163
f 162 147 146
f 162 146 163
f 122 119 120
f 122 120 123
f 124 121 119
f 124 119 122
f 164 123 150
f 164 150 152
f 127 125 124
f 127 124 166
f 165 164 152
f 165 152 154
f 129 127 166
f 129 166 167
f 171 122 123
f 171 123 164
f 166 124 122
f 166 122 171
f 172 167 166
f 172 166 171
f 169 165 154
f 169 154 158
f 171 164 165
f 171 165 172
f 170 169 158
f 170 158 163
f 172 165 169
f 172 169 173
f 168 167 172
f 168 172 173
f 131 129 167
f 131 167 168
f 133 132 131
f 133 131 134
f 173 169 170
f 173 170 174
f 146 147 144
f 146 144 145
f 170 163 146
f 170 146 145
f 168 173 174
f 168 174 175
f 135 133 134
f 135 134 136
f 136 134 175
f 136 175 145
f 145 144 135
f 145 135 136
f 175 174 170
f 175 170 145
f 134 131 168
f 134 168 175
