# _5th_Distal_Phalanx_Foot_R posed
v 0.907776 0.200889 0.286090
v 0.908041 0.199929 0.287042
v 0.908364 0.199555 0.287884
v 0.908837 0.199793 0.288996
v 0.908976 0.200540 0.289437
v 0.909142 0.201503 0.289237
v 0.909237 0.202748 0.288637
v 0.908990 0.203760 0.287740
v 0.908563 0.204388 0.286566
v 0.908172 0.204112 0.285761
v 0.907740 0.203188 0.285352
v 0.907736 0.201965 0.285571
v 0.910029 0.199639 0.288635
v 0.909576 0.199264 0.287696
v 0.909209 0.199587 0.286591
v 0.909001 0.200382 0.285591
v 0.908950 0.201484 0.284943
v 0.909090 0.202833 0.284667
v 0.909515 0.204030 0.285161
v 0.909978 0.204229 0.286213
v 0.910296 0.203559 0.287435
v 0.910500 0.202608 0.288318
v 0.910523 0.201549 0.288906
v 0.910362 0.200504 0.289067
v 0.911191 0.199818 0.287611
v 0.910819 0.199642 0.286903
v 0.910487 0.199842 0.286109
v 0.910221 0.200392 0.285210
v 0.910279 0.201389 0.284767
v 0.910528 0.202313 0.284833
v 0.910859 0.203080 0.285163
v 0.911161 0.203280 0.285895
v 0.911457 0.202977 0.286747
v 0.911669 0.202160 0.287534
v 0.911688 0.201218 0.287999
v 0.911509 0.200390 0.288016
v 0.912704 0.199330 0.286888
v 0.912290 0.199175 0.286041
v 0.911929 0.199495 0.285156
v 0.911725 0.200043 0.284497
v 0.911747 0.200897 0.284103
v 0.911992 0.201812 0.284194
v 0.912390 0.202464 0.284667
v 0.912769 0.202723 0.285258
v 0.913174 0.202701 0.285838
v 0.913420 0.201973 0.286643
v 0.913115 0.200538 0.287312
v 0.912946 0.199826 0.287289
v 0.913865 0.199236 0.286020
v 0.913383 0.199148 0.285152
v 0.913072 0.199378 0.284572
v 0.912867 0.199816 0.284126
v 0.912834 0.200442 0.283756
v 0.913012 0.201209 0.283790
v 0.913477 0.201897 0.284144
v 0.913981 0.202158 0.284730
v 0.914414 0.201942 0.285360
v 0.914644 0.201404 0.285911
v 0.914299 0.200081 0.286388
v 0.914021 0.199559 0.286418
v 0.914173 0.199438 0.285731
v 0.913812 0.199361 0.284922
v 0.913579 0.199647 0.284412
v 0.913402 0.199909 0.284056
v 0.913442 0.200316 0.283769
v 0.913522 0.200951 0.283716
v 0.913898 0.201442 0.284029
v 0.914334 0.201687 0.284616
v 0.914716 0.201524 0.285361
v 0.914662 0.200922 0.285797
v 0.914576 0.200144 0.285979
v 0.914331 0.199681 0.286154
v 0.914525 0.200201 0.285402
v 0.914339 0.200348 0.284705
v 0.913916 0.200324 0.284129
v 0.908536 0.201328 0.286608
v 0.908435 0.202136 0.286172
v 0.908306 0.202804 0.286007
v 0.908513 0.203410 0.286221
v 0.908786 0.203571 0.286719
v 0.909008 0.203139 0.287259
v 0.909188 0.202302 0.287915
v 0.909102 0.201429 0.288426
v 0.908789 0.200814 0.288735
v 0.908697 0.200363 0.288424
v 0.908572 0.200258 0.287929
v 0.908600 0.200628 0.287184
v 0.908776 0.202627 0.286681
v 0.908963 0.201814 0.287271
v 0.908931 0.201065 0.287817
f 38 37 25
f 38 25 26
f 39 38 26
f 39 26 27
f 40 39 27
f 40 27 28
f 41 40 28
f 41 28 29
f 42 41 29
f 42 29 30
f 43 42 30
f 43 30 31
f 44 43 31
f 44 31 32
f 45 44 32
f 45 32 33
f 46 45 33
f 46 33 34
f 47 46 34
f 47 34 35
f 48 47 35
f 48 35 36
f 36 25 37
f 36 37 48
f 50 49 37
f 50 37 38
f 51 50 38
f 51 38 39
f 52 51 39
f 52 39 40
f 53 52 40
f 53 40 41
f 54 53 41
f 54 41 42
f 55 54 42
f 55 42 43
f 56 55 43
f 56 43 44
f 57 56 44
f 57 44 45
f 58 57 45
f 58 45 46
f 59 58 46
f 59 46 47
f 60 59 47
f 60 47 48
f 48 37 49
f 48 49 60
f 28 27 15
f 28 15 16
f 29 28 16
f 29 16 17
f 30 29 17
f 30 17 18
f 14 15 27
f 14 27 26
f 13 14 26
f 13 26 25
f 24 13 25
f 24 25 36
f 23 24 36
f 23 36 35
f 22 23 35
f 22 35 34
f 21 22 34
f 21 34 33
f 20 21 33
f 20 33 32
f 31 30 18
f 31 18 19
f 19 20 32
f 19 32 31
f 59 60 72
f 59 72 71
f 71 70 58
f 71 58 59
f 69 70 71
f 69 71 73
f 57 58 70
f 57 70 69
f 49 50 62
f 49 62 61
f 73 71 72
f 73 72 61
f 61 72 60
f 61 60 49
f 56 57 69
f 56 69 68
f 74 73 61
f 74 61 62
f 68 69 73
f 68 73 74
f 63 62 50
f 63 50 51
f 55 56 68
f 55 68 67
f 54 55 67
f 54 67 66
f 64 63 51
f 64 51 52
f 53 54 66
f 53 66 65
f 67 68 74
f 67 74 75
f 75 63 64
f 75 64 65
f 65 64 52
f 65 52 53
f 65 66 67
f 65 67 75
f 75 74 62
f 75 62 63
f 12 17 16
f 12 16 1
f 18 17 12
f 18 12 11
f 19 18 11
f 19 11 10
f 20 19 10
f 20 10 9
f 21 20 9
f 21 9 8
f 22 21 8
f 22 8 7
f 23 22 7
f 23 7 6
f 24 23 6
f 24 6 5
f 13 24 5
f 13 5 4
f 14 13 4
f 14 4 3
f 15 14 3
f 15 3 2
f 1 16 15
f 1 15 2
f 10 11 78
f 10 78 79
f 80 9 10
f 80 10 79
f 8 9 80
f 8 80 81
f 78 11 12
f 78 12 77
f 81 80 79
f 81 79 88
f 79 78 77
f 79 77 88
f 76 77 12
f 76 12 1
f 7 8 81
f 7 81 82
f 88 77 76
f 88 76 89
f 82 81 88
f 82 88 89
f 84 5 6
f 84 6 83
f 2 3 86
f 2 86 87
f 6 7 82
f 6 82 83
f 76 1 2
f 76 2 87
f 86 3 4
f 86 4 85
f 89 76 87
f 89 87 90
f 85 84 83
f 85 83 90
f 4 5 84
f 4 84 85
f 90 87 86
f 90 86 85
f 83 82 89
f 83 89 90
