# _5th_Middle_Phalanx_Foot_R rest
v -0.124706 -1.336965 0.129104
v -0.124699 -1.337504 0.129115
v -0.124061 -1.337731 0.129272
v -0.123890 -1.337231 0.129345
v -0.123486 -1.338595 0.129427
v -0.122857 -1.338595 0.129669
v -0.123407 -1.339032 0.129447
v -0.122723 -1.339182 0.129661
v -0.122816 -1.339921 0.129471
v -0.123509 -1.339541 0.129323
v -0.124834 -1.340314 0.128958
v -0.124826 -1.339822 0.128945
v -0.124313 -1.339853 0.129072
v -0.124150 -1.340453 0.129068
v -0.123644 -1.338105 0.129374
v -0.123267 -1.337839 0.129586
v -0.125620 -1.337136 0.128881
v -0.125378 -1.337605 0.128928
v -0.126338 -1.337686 0.128637
v -0.125868 -1.337958 0.128725
v -0.126770 -1.338336 0.128399
v -0.126051 -1.338399 0.128571
v -0.126987 -1.339036 0.128253
v -0.126166 -1.338906 0.128434
v -0.126949 -1.339638 0.128175
v -0.126182 -1.339324 0.128328
v -0.125336 -1.339806 0.128729
v -0.125583 -1.340313 0.128686
v -0.125907 -1.339668 0.128429
v -0.126378 -1.340149 0.128310
v -0.123808 -1.339863 0.129161
v -0.123344 -1.340382 0.129215
v -0.125345 -1.338280 0.128899
v -0.124789 -1.338249 0.129088
v -0.124208 -1.338324 0.129235
v -0.125373 -1.338833 0.128803
v -0.124805 -1.338822 0.129036
v -0.124247 -1.338909 0.129223
v -0.125344 -1.339368 0.128746
v -0.124797 -1.339381 0.128989
v -0.124309 -1.339420 0.129143
v -0.123118 -1.339405 0.130682
v -0.123236 -1.338721 0.130680
v -0.123569 -1.338185 0.130605
v -0.124198 -1.337691 0.130446
v -0.124887 -1.337405 0.130278
v -0.125658 -1.337404 0.130081
v -0.126349 -1.337684 0.129851
v -0.126913 -1.338157 0.129624
v -0.127369 -1.338809 0.129459
v -0.127362 -1.339430 0.129415
v -0.127062 -1.340084 0.129506
v -0.126113 -1.340443 0.129724
v -0.125367 -1.340559 0.129915
v -0.124665 -1.340587 0.130095
v -0.123881 -1.340492 0.130363
v -0.123319 -1.340009 0.130563
v -0.123784 -1.339385 0.131680
v -0.123775 -1.338865 0.131719
v -0.124013 -1.338284 0.131700
v -0.124711 -1.337864 0.131544
v -0.125275 -1.337721 0.131392
v -0.125928 -1.337761 0.131224
v -0.126612 -1.337962 0.131021
v -0.127187 -1.338341 0.130839
v -0.127535 -1.338860 0.130710
v -0.127543 -1.339403 0.130671
v -0.127312 -1.339982 0.130699
v -0.126553 -1.340387 0.130861
v -0.125803 -1.340446 0.131044
v -0.125156 -1.340413 0.131213
v -0.124508 -1.340250 0.131420
v -0.124059 -1.339919 0.131553
v -0.124148 -1.339466 0.132315
v -0.124046 -1.338902 0.132372
v -0.124305 -1.338383 0.132339
v -0.124921 -1.338006 0.132236
v -0.125570 -1.337942 0.132060
v -0.126178 -1.337933 0.131894
v -0.126914 -1.338096 0.131656
v -0.127461 -1.338462 0.131464
v -0.127727 -1.338941 0.131348
v -0.127700 -1.339443 0.131321
v -0.127495 -1.339949 0.131346
v -0.126734 -1.340328 0.131530
v -0.126003 -1.340385 0.131734
v -0.125385 -1.340371 0.131906
v -0.124766 -1.340238 0.132085
v -0.124375 -1.339949 0.132209
v -0.124316 -1.339511 0.133627
v -0.124402 -1.338931 0.133639
v -0.124773 -1.338444 0.133556
v -0.125397 -1.338218 0.133386
v -0.125961 -1.338119 0.133223
v -0.126523 -1.338103 0.133056
v -0.127168 -1.338170 0.132853
v -0.127702 -1.338474 0.132675
v -0.128091 -1.339015 0.132518
v -0.128061 -1.339639 0.132492
v -0.127635 -1.340155 0.132581
v -0.126962 -1.340382 0.132775
v -0.126393 -1.340458 0.132941
v -0.125843 -1.340521 0.133094
v -0.125198 -1.340456 0.133285
v -0.124581 -1.340299 0.133498
v -0.125146 -1.340645 0.129451
v -0.125888 -1.340544 0.129210
v -0.124427 -1.340716 0.129599
v -0.123560 -1.340600 0.129865
v -0.126706 -1.340257 0.128921
v -0.127276 -1.339575 0.128763
v -0.127235 -1.338855 0.128813
v -0.126957 -1.338148 0.129004
v -0.126461 -1.337543 0.129284
v -0.125719 -1.337103 0.129550
v -0.124759 -1.337001 0.129795
v -0.123925 -1.337355 0.130015
v -0.123370 -1.337935 0.130163
v -0.122938 -1.338582 0.130270
v -0.122810 -1.339249 0.130220
v -0.122964 -1.340049 0.130073
v -0.124995 -1.340604 0.129151
v -0.125739 -1.340536 0.128903
v -0.124291 -1.340686 0.129281
v -0.123393 -1.340610 0.129508
v -0.126599 -1.340293 0.128564
v -0.127229 -1.339614 0.128429
v -0.127204 -1.338926 0.128504
v -0.126962 -1.338202 0.128654
v -0.126521 -1.337520 0.128907
v -0.124722 -1.336818 0.129453
v -0.123229 -1.337832 0.129907
v -0.125763 -1.336985 0.129210
v -0.123816 -1.337192 0.129729
v -0.122741 -1.338541 0.130026
v -0.122613 -1.339229 0.129968
v -0.122748 -1.340036 0.129797
v -0.128305 -1.339180 0.133125
v -0.128193 -1.339778 0.133137
v -0.127712 -1.340214 0.133263
v -0.127119 -1.340416 0.133431
v -0.126581 -1.340529 0.133585
v -0.126006 -1.340625 0.133750
v -0.125325 -1.340585 0.133952
v -0.124779 -1.340321 0.134108
v -0.124496 -1.339642 0.134209
v -0.124564 -1.339020 0.134230
v -0.124928 -1.338480 0.134142
v -0.125529 -1.338169 0.133976
v -0.126147 -1.338033 0.133799
v -0.126761 -1.337999 0.133619
v -0.127410 -1.338083 0.133426
v -0.127937 -1.338441 0.133259
v -0.126565 -1.340118 0.133928
v -0.126084 -1.340162 0.134075
v -0.125600 -1.340169 0.134206
v -0.125177 -1.340030 0.134304
v -0.124966 -1.339648 0.134357
v -0.124974 -1.339104 0.134383
v -0.125248 -1.338649 0.134292
v -0.125682 -1.338443 0.134206
v -0.126256 -1.338354 0.134059
v -0.126785 -1.338294 0.133917
v -0.127240 -1.338395 0.133795
v -0.127640 -1.338658 0.133669
v -0.127876 -1.339198 0.133603
v -0.127763 -1.339609 0.133626
v -0.127501 -1.339846 0.133685
v -0.127036 -1.340007 0.133809
v -0.126491 -1.340572 0.133241
v -0.127065 -1.340483 0.133069
v -0.127728 -1.340301 0.132874
v -0.125949 -1.340636 0.133404
v -0.125236 -1.340627 0.133589
v -0.124571 -1.340395 0.133826
v -0.128262 -1.339751 0.132779
v -0.128291 -1.339073 0.132802
v -0.127889 -1.338408 0.132946
v -0.127286 -1.338065 0.133133
v -0.126645 -1.337985 0.133334
v -0.126042 -1.338023 0.133512
v -0.125449 -1.338151 0.133684
v -0.124826 -1.338422 0.133857
v -0.124385 -1.338953 0.133948
v -0.124279 -1.339584 0.133936
v -0.125791 -1.338960 0.134249
v -0.126357 -1.338886 0.134097
v -0.126893 -1.338796 0.133956
v -0.125894 -1.339445 0.134225
v -0.126429 -1.339356 0.134086
v -0.126988 -1.339270 0.133937
v -0.126012 -1.339836 0.134148
v -0.126479 -1.339737 0.134050
v -0.127001 -1.339658 0.133900
v -0.124183 -1.339491 0.133017
v -0.124240 -1.338935 0.133063
v -0.124468 -1.338456 0.133020
v -0.125131 -1.338138 0.132877
v -0.125799 -1.338034 0.132711
v -0.126372 -1.338052 0.132539
v -0.127087 -1.338166 0.132304
v -0.127665 -1.338535 0.132098
v -0.127897 -1.339019 0.131983
v -0.127824 -1.339563 0.131971
v -0.127525 -1.339994 0.132011
v -0.126778 -1.340237 0.132228
v -0.126218 -1.340311 0.132409
v -0.125625 -1.340412 0.132559
v -0.125002 -1.340324 0.132731
v -0.124489 -1.340026 0.132912
v -0.123398 -1.339433 0.131168
v -0.123447 -1.338783 0.131161
v -0.123726 -1.338293 0.131106
v -0.124423 -1.337807 0.130970
v -0.125051 -1.337597 0.130796
v -0.125719 -1.337593 0.130622
v -0.126430 -1.337813 0.130411
v -0.127004 -1.338223 0.130233
v -0.127402 -1.338798 0.130096
v -0.127433 -1.339391 0.130048
v -0.127211 -1.340012 0.130081
v -0.126363 -1.340412 0.130259
v -0.125562 -1.340418 0.130446
v -0.124906 -1.340466 0.130626
v -0.124198 -1.340350 0.130871
v -0.123715 -1.339992 0.131019
f 22 20 18
f 22 18 33
f 33 18 2
f 33 2 34
f 35 3 15
f 35 15 5
f 34 2 3
f 34 3 35
f 36 24 22
f 36 22 33
f 39 27 29
f 39 29 26
f 39 26 24
f 39 24 36
f 37 36 33
f 37 33 34
f 40 12 27
f 40 27 39
f 40 39 36
f 40 36 37
f 38 35 5
f 38 5 7
f 38 37 34
f 38 34 35
f 41 13 12
f 41 12 40
f 41 38 7
f 41 7 10
f 10 31 13
f 10 13 41
f 41 40 37
f 41 37 38
f 4 3 2
f 4 2 1
f 1 2 18
f 1 18 17
f 131 134 4
f 131 4 1
f 1 17 133
f 1 133 131
f 16 15 3
f 16 3 4
f 134 132 16
f 134 16 4
f 8 7 5
f 8 5 6
f 6 5 15
f 6 15 16
f 135 136 8
f 135 8 6
f 6 16 132
f 6 132 135
f 9 10 7
f 9 7 8
f 136 137 9
f 136 9 8
f 32 31 10
f 32 10 9
f 137 125 32
f 137 32 9
f 11 12 13
f 11 13 14
f 28 27 12
f 28 12 11
f 11 14 124
f 11 124 122
f 122 123 28
f 122 28 11
f 14 13 31
f 14 31 32
f 14 32 125
f 14 125 124
f 17 18 20
f 17 20 19
f 17 19 130
f 17 130 133
f 19 20 22
f 19 22 21
f 19 21 129
f 19 129 130
f 21 22 24
f 21 24 23
f 21 23 128
f 21 128 129
f 23 24 26
f 23 26 25
f 23 25 127
f 23 127 128
f 25 26 29
f 25 29 30
f 25 30 126
f 25 126 127
f 30 29 27
f 30 27 28
f 123 126 30
f 123 30 28
f 106 107 123
f 106 123 122
f 122 124 108
f 122 108 106
f 107 110 126
f 107 126 123
f 124 125 109
f 124 109 108
f 125 137 121
f 125 121 109
f 110 111 127
f 110 127 126
f 111 112 128
f 111 128 127
f 112 113 129
f 112 129 128
f 113 114 130
f 113 130 129
f 114 115 133
f 114 133 130
f 115 116 131
f 115 131 133
f 116 117 134
f 116 134 131
f 117 118 132
f 117 132 134
f 118 119 135
f 118 135 132
f 119 120 136
f 119 136 135
f 120 121 137
f 120 137 136
f 170 142 141
f 170 141 171
f 171 141 140
f 171 140 172
f 173 143 142
f 173 142 170
f 174 144 143
f 174 143 173
f 175 145 144
f 175 144 174
f 172 140 139
f 172 139 176
f 177 176 139
f 177 139 138
f 178 177 138
f 178 138 153
f 178 153 152
f 178 152 179
f 180 179 152
f 180 152 151
f 181 180 151
f 181 151 150
f 182 181 150
f 182 150 149
f 183 182 149
f 183 149 148
f 184 183 148
f 184 148 147
f 146 145 175
f 146 175 185
f 185 184 147
f 185 147 146
f 159 147 148
f 159 148 160
f 161 160 148
f 161 148 149
f 162 161 149
f 162 149 150
f 163 151 152
f 163 152 164
f 163 162 150
f 163 150 151
f 165 164 152
f 165 152 153
f 158 146 147
f 158 147 159
f 159 160 161
f 159 161 186
f 186 161 162
f 186 162 187
f 188 163 164
f 188 164 165
f 187 162 163
f 187 163 188
f 166 165 153
f 166 153 138
f 157 156 144
f 157 144 145
f 157 145 146
f 157 146 158
f 155 143 144
f 155 144 156
f 192 157 158
f 192 158 189
f 189 158 159
f 189 159 186
f 192 155 156
f 192 156 157
f 154 142 143
f 154 143 155
f 190 189 186
f 190 186 187
f 193 154 155
f 193 155 192
f 193 192 189
f 193 189 190
f 191 188 165
f 191 165 166
f 169 168 140
f 169 140 141
f 169 141 142
f 169 142 154
f 191 190 187
f 191 187 188
f 167 139 140
f 167 140 168
f 194 169 154
f 194 154 193
f 167 166 138
f 167 138 139
f 194 191 166
f 194 166 167
f 167 168 169
f 167 169 194
f 194 193 190
f 194 190 191
f 195 74 75
f 195 75 196
f 184 185 90
f 184 90 91
f 91 90 195
f 91 195 196
f 196 75 76
f 196 76 197
f 183 184 91
f 183 91 92
f 92 91 196
f 92 196 197
f 197 76 77
f 197 77 198
f 182 183 92
f 182 92 93
f 93 92 197
f 93 197 198
f 198 77 78
f 198 78 199
f 181 182 93
f 181 93 94
f 94 93 198
f 94 198 199
f 199 78 79
f 199 79 200
f 180 181 94
f 180 94 95
f 95 94 199
f 95 199 200
f 200 79 80
f 200 80 201
f 179 180 95
f 179 95 96
f 96 95 200
f 96 200 201
f 201 80 81
f 201 81 202
f 178 179 96
f 178 96 97
f 97 96 201
f 97 201 202
f 202 81 82
f 202 82 203
f 177 178 97
f 177 97 98
f 98 97 202
f 98 202 203
f 203 82 83
f 203 83 204
f 176 177 98
f 176 98 99
f 99 98 203
f 99 203 204
f 204 83 84
f 204 84 205
f 172 176 99
f 172 99 100
f 100 99 204
f 100 204 205
f 205 84 85
f 205 85 206
f 171 172 100
f 171 100 101
f 101 100 205
f 101 205 206
f 206 85 86
f 206 86 207
f 170 171 101
f 170 101 102
f 102 101 206
f 102 206 207
f 207 86 87
f 207 87 208
f 173 170 102
f 173 102 103
f 103 102 207
f 103 207 208
f 208 87 88
f 208 88 209
f 174 173 103
f 174 103 104
f 104 103 208
f 104 208 209
f 210 195 90
f 210 90 105
f 210 89 74
f 210 74 195
f 175 174 104
f 175 104 105
f 105 104 209
f 105 209 210
f 105 90 185
f 105 185 175
f 209 88 89
f 209 89 210
f 42 43 212
f 42 212 211
f 120 119 43
f 120 43 42
f 211 226 57
f 211 57 42
f 42 57 121
f 42 121 120
f 43 44 213
f 43 213 212
f 119 118 44
f 119 44 43
f 44 45 214
f 44 214 213
f 118 117 45
f 118 45 44
f 45 46 215
f 45 215 214
f 117 116 46
f 117 46 45
f 46 47 216
f 46 216 215
f 116 115 47
f 116 47 46
f 47 48 217
f 47 217 216
f 115 114 48
f 115 48 47
f 48 49 218
f 48 218 217
f 114 113 49
f 114 49 48
f 49 50 219
f 49 219 218
f 113 112 50
f 113 50 49
f 50 51 220
f 50 220 219
f 112 111 51
f 112 51 50
f 51 52 221
f 51 221 220
f 111 110 52
f 111 52 51
f 52 53 222
f 52 222 221
f 110 107 53
f 110 53 52
f 53 54 223
f 53 223 222
f 107 106 54
f 107 54 53
f 54 55 224
f 54 224 223
f 106 108 55
f 106 55 54
f 55 56 225
f 55 225 224
f 108 109 56
f 108 56 55
f 56 57 226
f 56 226 225
f 109 121 57
f 109 57 56
f 58 59 75
f 58 75 74
f 211 212 59
f 211 59 58
f 74 89 73
f 74 73 58
f 58 73 226
f 58 226 211
f 59 60 76
f 59 76 75
f 212 213 60
f 212 60 59
f 60 61 77
f 60 77 76
f 213 214 61
f 213 61 60
f 61 62 78
f 61 78 77
f 214 215 62
f 214 62 61
f 62 63 79
f 62 79 78
f 215 216 63
f 215 63 62
f 63 64 80
f 63 80 79
f 216 217 64
f 216 64 63
f 64 65 81
f 64 81 80
f 217 218 65
f 217 65 64
f 65 66 82
f 65 82 81
f 218 219 66
f 218 66 65
f 66 67 83
f 66 83 82
f 219 220 67
f 219 67 66
f 67 68 84
f 67 84 83
f 220 221 68
f 220 68 67
f 68 69 85
f 68 85 84
f 221 222 69
f 221 69 68
f 69 70 86
f 69 86 85
f 222 223 70
f 222 70 69
f 70 71 87
f 70 87 86
f 223 224 71
f 223 71 70
f 71 72 88
f 71 88 87
f 224 225 72
f 224 72 71
f 72 73 89
f 72 89 88
f 225 226 73
f 225 73 72
