# _5th_Proximal_Phalanx_Foot_R posed
v 0.951291 0.230644 0.238988
v 0.951226 0.231958 0.237868
v 0.953298 0.232098 0.236937
v 0.953204 0.229937 0.239037
v 0.954746 0.228757 0.240010
v 0.954246 0.235057 0.238031
v 0.955689 0.229251 0.241207
v 0.955114 0.231107 0.241260
v 0.954190 0.232359 0.240403
v 0.953849 0.231063 0.239225
v 0.954517 0.230449 0.239872
v 0.951052 0.231411 0.238516
v 0.952630 0.231578 0.238451
v 0.953709 0.231881 0.238659
v 0.953987 0.232795 0.239982
v 0.953893 0.232354 0.237980
v 0.954044 0.233472 0.239537
v 0.954462 0.235114 0.238814
v 0.953975 0.233798 0.237142
v 0.954277 0.233250 0.237636
v 0.952849 0.229095 0.239927
v 0.950908 0.230365 0.239776
v 0.950240 0.231645 0.239077
v 0.950507 0.232885 0.237967
v 0.953965 0.228575 0.240775
v 0.955165 0.229453 0.242085
v 0.954895 0.231344 0.242024
v 0.954002 0.232805 0.240902
v 0.953788 0.233226 0.240531
v 0.953733 0.234011 0.240222
v 0.954100 0.235498 0.239445
v 0.953543 0.235706 0.238505
v 0.952835 0.234981 0.237638
v 0.952265 0.233678 0.237123
v 0.949484 0.231782 0.239584
v 0.949844 0.230698 0.240467
v 0.950590 0.230262 0.241641
v 0.949336 0.233163 0.239053
v 0.949642 0.234454 0.238961
v 0.950228 0.235644 0.239440
v 0.950802 0.236127 0.240112
v 0.951427 0.235992 0.241149
v 0.951629 0.235024 0.242008
v 0.951819 0.234086 0.242684
v 0.952143 0.233247 0.243221
v 0.952445 0.232275 0.243859
v 0.952188 0.231116 0.243745
v 0.951366 0.230552 0.242853
v 0.950295 0.231659 0.244703
v 0.949548 0.231020 0.243908
v 0.948721 0.230985 0.242415
v 0.948188 0.231195 0.241474
v 0.947791 0.231983 0.240539
v 0.947782 0.233199 0.240100
v 0.948048 0.234605 0.240119
v 0.948605 0.236062 0.240541
v 0.949129 0.236446 0.241174
v 0.949806 0.236551 0.242113
v 0.950292 0.235916 0.243117
v 0.950566 0.234605 0.243942
v 0.950775 0.233473 0.244669
v 0.950572 0.232179 0.244850
v 0.948368 0.232016 0.245603
v 0.947816 0.231507 0.244857
v 0.947044 0.231460 0.243657
v 0.946487 0.231650 0.242686
v 0.945950 0.232386 0.241516
v 0.945997 0.233712 0.241060
v 0.946406 0.235013 0.241176
v 0.946926 0.236182 0.241448
v 0.947542 0.236982 0.242012
v 0.948201 0.237143 0.242915
v 0.948834 0.236377 0.244254
v 0.949030 0.235150 0.245176
v 0.949104 0.233887 0.245867
v 0.948822 0.232722 0.245943
v 0.946826 0.232498 0.246976
v 0.946207 0.232023 0.246193
v 0.945384 0.231933 0.244914
v 0.944783 0.232119 0.243799
v 0.944259 0.232869 0.242536
v 0.944463 0.234409 0.242116
v 0.944900 0.235508 0.242351
v 0.945489 0.236871 0.242473
v 0.946123 0.237557 0.243079
v 0.946688 0.237795 0.243878
v 0.947317 0.237183 0.245278
v 0.947557 0.235924 0.246505
v 0.947645 0.234516 0.247338
v 0.947325 0.233264 0.247408
v 0.945281 0.232911 0.248489
v 0.944669 0.232465 0.247661
v 0.943836 0.232287 0.246389
v 0.942948 0.232571 0.244793
v 0.942384 0.233322 0.243569
v 0.942712 0.235140 0.243254
v 0.943252 0.236333 0.243514
v 0.943815 0.237710 0.243717
v 0.944337 0.238451 0.244317
v 0.945077 0.238900 0.245310
v 0.945835 0.238653 0.246689
v 0.946081 0.236904 0.248198
v 0.946146 0.235193 0.249024
v 0.945812 0.233762 0.249017
v 0.943787 0.233116 0.250447
v 0.943110 0.232628 0.249397
v 0.942201 0.232602 0.247848
v 0.941074 0.232927 0.245812
v 0.940671 0.233871 0.244535
v 0.941009 0.235775 0.244285
v 0.941511 0.236991 0.244532
v 0.942005 0.238383 0.245053
v 0.942481 0.239629 0.245750
v 0.943313 0.240340 0.246760
v 0.944133 0.240124 0.248552
v 0.944530 0.238289 0.249935
v 0.944818 0.236128 0.251219
v 0.944414 0.234116 0.251111
v 0.943418 0.239472 0.251454
v 0.943207 0.241042 0.250913
v 0.943743 0.238542 0.252626
v 0.942372 0.240384 0.252566
v 0.941990 0.241663 0.252071
v 0.942529 0.239343 0.253511
v 0.942247 0.238184 0.255153
v 0.943446 0.237067 0.254814
v 0.940804 0.237002 0.255931
v 0.941762 0.235623 0.255832
v 0.939249 0.236036 0.255467
v 0.939941 0.234541 0.255351
v 0.937636 0.234604 0.253758
v 0.938601 0.233528 0.253633
v 0.937953 0.233018 0.250868
v 0.936970 0.233812 0.251453
v 0.937494 0.233608 0.248111
v 0.936526 0.234022 0.249522
v 0.944151 0.235256 0.252919
v 0.942819 0.234095 0.253862
v 0.941836 0.233313 0.253292
v 0.940694 0.232606 0.251776
v 0.939649 0.232589 0.249813
v 0.938646 0.233313 0.247261
v 0.938412 0.234398 0.246117
v 0.937339 0.234903 0.246799
v 0.936424 0.235305 0.247908
v 0.936268 0.237387 0.247393
v 0.937373 0.237027 0.246471
v 0.938688 0.236546 0.245675
v 0.941519 0.243551 0.249499
v 0.940360 0.243862 0.250881
v 0.939620 0.243611 0.249322
v 0.938478 0.243628 0.250730
v 0.942153 0.242640 0.248183
v 0.937055 0.242242 0.249846
v 0.937954 0.242179 0.248505
v 0.940732 0.242499 0.247796
v 0.939441 0.241578 0.247280
v 0.936345 0.240340 0.248994
v 0.937315 0.240626 0.247760
v 0.938949 0.240207 0.246699
v 0.938691 0.238521 0.246117
v 0.937235 0.238870 0.246937
v 0.936052 0.238963 0.248152
v 0.939556 0.241124 0.251808
v 0.938171 0.239873 0.250956
v 0.940550 0.238561 0.253718
v 0.939114 0.237390 0.253168
v 0.937989 0.236256 0.251931
v 0.937398 0.238496 0.250027
v 0.937013 0.237477 0.249310
v 0.940144 0.239713 0.252688
v 0.938722 0.238660 0.251937
v 0.937815 0.237550 0.250879
v 0.937420 0.236762 0.250106
v 0.937305 0.235651 0.250601
f 4 13 14
f 4 14 10
f 12 13 4
f 12 4 1
f 5 4 10
f 5 10 11
f 8 7 5
f 8 5 11
f 9 8 11
f 9 11 10
f 9 10 14
f 9 14 15
f 15 14 16
f 15 16 17
f 18 17 16
f 18 16 20
f 13 12 2
f 13 2 3
f 16 14 13
f 16 13 3
f 20 16 3
f 20 3 19
f 19 6 18
f 19 18 20
f 22 1 4
f 22 4 21
f 22 23 12
f 22 12 1
f 2 12 23
f 2 23 24
f 34 3 2
f 34 2 24
f 33 19 3
f 33 3 34
f 32 6 19
f 32 19 33
f 31 18 6
f 31 6 32
f 30 17 18
f 30 18 31
f 29 15 17
f 29 17 30
f 28 9 15
f 28 15 29
f 27 8 9
f 27 9 28
f 26 7 8
f 26 8 27
f 25 5 7
f 25 7 26
f 21 4 5
f 21 5 25
f 64 63 77
f 64 77 78
f 65 64 78
f 65 78 79
f 66 65 79
f 66 79 80
f 67 66 80
f 67 80 81
f 68 67 81
f 68 81 82
f 69 68 82
f 69 82 83
f 70 69 83
f 70 83 84
f 71 70 84
f 71 84 85
f 72 71 85
f 72 85 86
f 73 72 86
f 73 86 87
f 74 73 87
f 74 87 88
f 75 74 88
f 75 88 89
f 76 75 89
f 76 89 90
f 90 77 63
f 90 63 76
f 78 77 91
f 78 91 92
f 79 78 92
f 79 92 93
f 80 79 93
f 80 93 94
f 81 80 94
f 81 94 95
f 82 81 95
f 82 95 96
f 83 82 96
f 83 96 97
f 84 83 97
f 84 97 98
f 85 84 98
f 85 98 99
f 86 85 99
f 86 99 100
f 87 86 100
f 87 100 101
f 88 87 101
f 88 101 102
f 89 88 102
f 89 102 103
f 90 89 103
f 90 103 104
f 104 91 77
f 104 77 90
f 35 23 22
f 35 22 36
f 52 53 35
f 52 35 36
f 66 67 53
f 66 53 52
f 24 23 35
f 24 35 38
f 38 35 53
f 38 53 54
f 54 53 67
f 54 67 68
f 34 24 38
f 34 38 39
f 39 38 54
f 39 54 55
f 55 54 68
f 55 68 69
f 33 34 39
f 33 39 40
f 40 39 55
f 40 55 56
f 56 55 69
f 56 69 70
f 32 33 40
f 32 40 41
f 41 40 56
f 41 56 57
f 57 56 70
f 57 70 71
f 31 32 41
f 31 41 42
f 42 41 57
f 42 57 58
f 58 57 71
f 58 71 72
f 30 31 42
f 30 42 43
f 43 42 58
f 43 58 59
f 59 58 72
f 59 72 73
f 29 30 43
f 29 43 44
f 44 43 59
f 44 59 60
f 60 59 73
f 60 73 74
f 28 29 44
f 28 44 45
f 45 44 60
f 45 60 61
f 61 60 74
f 61 74 75
f 27 28 45
f 27 45 46
f 46 45 61
f 46 61 62
f 62 61 75
f 62 75 76
f 26 27 46
f 26 46 47
f 47 46 62
f 47 62 49
f 49 62 76
f 49 76 63
f 25 26 47
f 25 47 48
f 48 47 49
f 48 49 50
f 50 49 63
f 50 63 64
f 37 36 22
f 37 22 21
f 51 52 36
f 51 36 37
f 37 21 25
f 37 25 48
f 37 48 50
f 37 50 51
f 51 50 64
f 51 64 65
f 65 66 52
f 65 52 51
f 115 116 102
f 115 102 101
f 103 102 116
f 103 116 117
f 117 116 119
f 117 119 121
f 137 117 121
f 137 121 126
f 104 103 117
f 104 117 118
f 118 117 137
f 118 137 138
f 138 137 126
f 138 126 128
f 91 104 118
f 91 118 105
f 105 118 138
f 105 138 139
f 139 138 128
f 139 128 130
f 92 91 105
f 92 105 106
f 106 105 139
f 106 139 140
f 140 139 130
f 140 130 132
f 93 92 106
f 93 106 107
f 107 106 140
f 107 140 141
f 141 140 132
f 141 132 133
f 94 93 107
f 94 107 108
f 95 94 108
f 95 108 109
f 108 107 141
f 108 141 142
f 142 141 133
f 142 133 135
f 143 142 135
f 143 135 144
f 143 109 108
f 143 108 142
f 96 95 109
f 96 109 110
f 120 119 116
f 120 116 115
f 149 120 115
f 149 115 153
f 114 115 101
f 114 101 100
f 156 153 115
f 156 115 114
f 151 149 153
f 151 153 156
f 113 114 100
f 113 100 99
f 157 156 114
f 157 114 113
f 155 151 156
f 155 156 157
f 112 113 99
f 112 99 98
f 97 96 110
f 97 110 111
f 111 112 98
f 111 98 97
f 160 157 113
f 160 113 112
f 110 109 143
f 110 143 148
f 161 160 112
f 161 112 111
f 161 111 110
f 161 110 148
f 159 155 157
f 159 157 160
f 148 143 144
f 148 144 147
f 162 159 160
f 162 160 161
f 162 161 148
f 162 148 147
f 123 120 149
f 123 149 150
f 152 150 149
f 152 149 151
f 154 152 151
f 154 151 155
f 125 126 121
f 125 121 124
f 128 126 125
f 128 125 127
f 130 128 127
f 130 127 129
f 132 130 129
f 132 129 131
f 158 154 155
f 158 155 159
f 158 159 162
f 158 162 163
f 162 147 146
f 162 146 163
f 122 119 120
f 122 120 123
f 124 121 119
f 124 119 122
f 164 123 150
f 164 150 152
f 127 125 124
f 127 124 166
f 165 164 152
f 165 152 154
f 129 127 166
f 129 166 167
f 171 122 123
f 171 123 164
f 166 124 122
f 166 122 171
f 172 167 166
f 172 166 171
f 169 165 154
f 169 154 158
f 171 164 165
f 171 165 172
f 170 169 158
f 170 158 163
f 172 165 169
f 172 169 173
f 168 167 172
f 168 172 173
f 131 129 167
f 131 167 168
f 133 132 131
f 133 131 134
f 173 169 170
f 173 170 174
f 146 147 144
f 146 144 145
f 170 163 146
f 170 146 145
f 168 173 174
f 168 174 175
f 135 133 134
f 135 134 136
f 136 134 175
f 136 175 145
f 145 144 135
f 145 135 136
f 175 174 170
f 175 170 145
f 134 131 168
f 134 168 175
