# _5th_Distal_Phalanges_Hand_L rest
v 0.833266 0.018970 -0.137917
v 0.833354 0.019386 -0.136901
v 0.833294 0.020294 -0.136527
v 0.833441 0.020989 -0.137136
v 0.833179 0.021273 -0.138350
v 0.832519 0.020860 -0.139449
v 0.832129 0.019860 -0.139544
v 0.832614 0.019091 -0.138827
v 0.829239 0.019476 -0.138499
v 0.829792 0.018595 -0.137754
v 0.830428 0.018380 -0.136687
v 0.830725 0.019198 -0.135762
v 0.830817 0.020230 -0.135155
v 0.830281 0.021089 -0.135778
v 0.829629 0.021273 -0.136934
v 0.829199 0.020659 -0.138071
v 0.827469 0.018991 -0.138275
v 0.828293 0.017925 -0.137329
v 0.829056 0.017831 -0.136043
v 0.829476 0.018613 -0.134883
v 0.829447 0.019843 -0.134034
v 0.828798 0.021023 -0.134748
v 0.827800 0.021313 -0.136126
v 0.827280 0.020619 -0.137503
v 0.834349 0.018940 -0.138441
v 0.834354 0.019048 -0.137093
v 0.833223 0.018905 -0.139266
v 0.834976 0.018840 -0.138717
v 0.833630 0.018615 -0.139619
v 0.835044 0.019025 -0.137239
v 0.834434 0.021260 -0.138863
v 0.833423 0.020729 -0.139976
v 0.834570 0.021051 -0.137324
v 0.834218 0.020281 -0.136297
v 0.832360 0.019771 -0.140123
v 0.835234 0.021148 -0.139153
v 0.834117 0.020603 -0.140341
v 0.832871 0.019554 -0.140665
v 0.834823 0.020199 -0.136391
v 0.835233 0.020938 -0.137491
v 0.836909 0.020291 -0.139636
v 0.836197 0.020231 -0.140420
v 0.836125 0.019363 -0.140702
v 0.836040 0.018471 -0.140097
v 0.836753 0.018622 -0.139372
v 0.836822 0.018923 -0.138458
v 0.837065 0.019683 -0.138364
v 0.836937 0.020263 -0.138669
v 0.837307 0.019416 -0.139716
v 0.836146 0.020826 -0.139427
v 0.835250 0.020464 -0.140494
v 0.834538 0.019406 -0.140932
v 0.834887 0.018330 -0.139986
v 0.835805 0.018498 -0.138968
v 0.836014 0.018919 -0.137824
v 0.836083 0.019925 -0.137309
v 0.836248 0.020648 -0.138074
v 0.827054 0.017965 -0.135640
v 0.826632 0.017440 -0.136671
v 0.826017 0.018450 -0.137496
v 0.825853 0.019852 -0.136616
v 0.826354 0.020633 -0.135094
v 0.827083 0.020454 -0.133805
v 0.827575 0.019255 -0.133596
v 0.827401 0.018642 -0.134429
v 0.828267 0.017364 -0.135669
v 0.827431 0.017289 -0.137198
v 0.826408 0.018567 -0.138355
v 0.825910 0.020747 -0.137392
v 0.826276 0.021755 -0.135392
v 0.827805 0.021380 -0.133614
v 0.828351 0.019231 -0.132895
v 0.828673 0.017950 -0.134295
v 0.831506 0.018936 -0.136585
v 0.831599 0.019828 -0.135937
v 0.831491 0.020767 -0.135927
v 0.831066 0.021271 -0.136827
v 0.830535 0.021133 -0.138001
v 0.830290 0.020227 -0.138760
v 0.830523 0.019223 -0.138476
v 0.831074 0.018660 -0.137617
v 0.832539 0.019038 -0.137023
v 0.832150 0.018868 -0.138054
v 0.831820 0.021225 -0.138515
v 0.832321 0.021234 -0.137341
v 0.832531 0.020695 -0.136482
v 0.832541 0.019858 -0.136390
v 0.833925 0.018971 -0.137610
v 0.833526 0.019010 -0.138679
v 0.831612 0.019378 -0.138894
v 0.831445 0.020331 -0.139226
v 0.833490 0.021102 -0.139251
v 0.832570 0.020398 -0.139929
v 0.832485 0.019246 -0.139436
v 0.833761 0.019605 -0.136516
v 0.834079 0.021227 -0.137920
v 0.833920 0.020742 -0.136697
v 0.836837 0.019894 -0.140272
v 0.836727 0.018883 -0.140080
v 0.837196 0.019124 -0.138995
v 0.837229 0.019939 -0.139108
v 0.830132 0.019470 -0.134934
v 0.828637 0.018693 -0.137987
v 0.827326 0.017939 -0.137938
v 0.828189 0.019982 -0.138181
v 0.826613 0.019832 -0.138120
v 0.829383 0.018068 -0.136985
v 0.828327 0.017405 -0.136603
v 0.829912 0.018428 -0.135777
v 0.828960 0.017824 -0.135177
v 0.829063 0.018770 -0.133887
v 0.829835 0.020676 -0.134855
v 0.828783 0.020556 -0.133529
v 0.829086 0.021201 -0.135889
v 0.827737 0.021566 -0.134985
v 0.828382 0.021028 -0.137148
v 0.826728 0.021305 -0.136666
v 0.826365 0.017662 -0.137566
v 0.826590 0.021485 -0.134295
v 0.827642 0.020116 -0.133189
v 0.826348 0.018317 -0.136647
v 0.827461 0.017217 -0.136251
v 0.825798 0.019536 -0.137718
v 0.825673 0.021074 -0.136158
v 0.826339 0.019113 -0.135103
v 0.827025 0.019633 -0.134091
v 0.827906 0.018397 -0.133515
v 0.827894 0.017868 -0.134941
v 0.833365 0.019074 -0.137363
v 0.833284 0.019815 -0.136595
v 0.833389 0.020662 -0.136736
v 0.833362 0.021197 -0.137711
v 0.832851 0.021188 -0.138962
v 0.832217 0.020392 -0.139621
v 0.832278 0.019356 -0.139240
v 0.833011 0.018991 -0.138422
v 0.829487 0.018953 -0.138199
v 0.830128 0.018355 -0.137256
v 0.830645 0.018709 -0.136144
v 0.830796 0.019684 -0.135394
v 0.830593 0.020785 -0.135354
v 0.829962 0.021259 -0.136332
v 0.829353 0.021063 -0.137522
v 0.829129 0.020107 -0.138416
v 0.827851 0.018300 -0.137906
v 0.828735 0.017739 -0.136734
v 0.829331 0.018116 -0.135427
v 0.829505 0.019161 -0.134368
v 0.829206 0.020586 -0.134202
v 0.828279 0.021284 -0.135411
v 0.827455 0.021087 -0.136835
v 0.827253 0.019891 -0.138101
v 0.830340 0.019689 -0.138753
v 0.830772 0.018870 -0.138077
v 0.831337 0.018680 -0.137094
v 0.831565 0.019369 -0.136215
v 0.831594 0.020320 -0.135786
v 0.831301 0.021088 -0.136306
v 0.830793 0.021302 -0.137427
v 0.830359 0.020746 -0.138495
v 0.828336 0.019271 -0.138323
v 0.828996 0.018347 -0.137481
v 0.829703 0.018105 -0.136359
v 0.830041 0.018968 -0.135355
v 0.830118 0.020077 -0.134638
v 0.829480 0.020984 -0.135314
v 0.828691 0.021243 -0.136521
v 0.828220 0.020589 -0.137721
v 0.832389 0.018855 -0.137540
v 0.832556 0.019423 -0.136638
v 0.832540 0.020315 -0.136321
v 0.832470 0.021001 -0.136843
v 0.832103 0.021331 -0.137937
v 0.831624 0.020836 -0.139023
v 0.831467 0.019827 -0.139191
v 0.831851 0.019042 -0.138506
v 0.833855 0.018960 -0.138207
v 0.834426 0.018919 -0.137823
v 0.833847 0.019159 -0.136996
v 0.833901 0.018929 -0.138935
v 0.832987 0.019023 -0.139033
v 0.834412 0.018702 -0.139246
v 0.835105 0.018877 -0.138001
v 0.833880 0.021244 -0.138635
v 0.833012 0.020803 -0.139709
v 0.834000 0.021061 -0.139513
v 0.834066 0.021062 -0.137234
v 0.834605 0.021235 -0.138082
v 0.834386 0.020754 -0.136703
v 0.833735 0.020256 -0.136409
v 0.834190 0.019464 -0.136430
v 0.832585 0.019083 -0.139646
v 0.832280 0.019839 -0.139800
v 0.832834 0.020359 -0.140213
v 0.834740 0.020952 -0.139853
v 0.833484 0.020195 -0.140638
v 0.832945 0.018802 -0.140149
v 0.834824 0.019425 -0.136501
v 0.835005 0.020656 -0.136827
v 0.835377 0.021114 -0.138308
v 0.836599 0.020284 -0.140110
v 0.836196 0.019913 -0.140626
v 0.836118 0.018802 -0.140440
v 0.836436 0.018520 -0.139774
v 0.836878 0.018761 -0.138896
v 0.836989 0.019249 -0.138402
v 0.837051 0.020037 -0.138510
v 0.836995 0.020263 -0.139113
v 0.837183 0.019933 -0.139710
v 0.837336 0.019552 -0.139002
v 0.837087 0.018966 -0.139577
v 0.836859 0.019368 -0.140331
v 0.836074 0.019351 -0.137391
v 0.836150 0.020344 -0.137566
v 0.836282 0.020808 -0.138733
v 0.835733 0.020721 -0.140021
v 0.835372 0.018378 -0.139447
v 0.835970 0.018664 -0.138401
v 0.834819 0.020047 -0.140826
v 0.834590 0.018695 -0.140600
v 0.828675 0.017531 -0.135863
v 0.827858 0.017552 -0.137293
v 0.826909 0.017505 -0.136178
v 0.826211 0.017835 -0.137124
v 0.826906 0.018762 -0.138324
v 0.825865 0.019176 -0.137239
v 0.826603 0.020744 -0.137467
v 0.826108 0.020338 -0.135851
v 0.827096 0.021569 -0.135810
v 0.826694 0.020599 -0.134359
v 0.828357 0.021228 -0.134199
v 0.827349 0.019895 -0.133619
v 0.828933 0.019560 -0.133446
v 0.827561 0.018862 -0.133933
v 0.827224 0.018367 -0.135030
v 0.827994 0.018130 -0.134268
v 0.826856 0.017631 -0.137911
v 0.826023 0.019721 -0.138103
v 0.825959 0.021378 -0.136449
v 0.827029 0.021836 -0.134465
v 0.828222 0.020383 -0.132973
v 0.827929 0.017212 -0.136440
v 0.828546 0.017634 -0.134977
v 0.828605 0.018397 -0.133528
v 0.827730 0.017507 -0.135570
v 0.826938 0.017258 -0.136930
v 0.826053 0.018478 -0.137893
v 0.825618 0.020474 -0.137051
v 0.825959 0.021420 -0.135153
v 0.827276 0.021033 -0.133530
v 0.827745 0.019094 -0.133148
v 0.829141 0.018228 -0.134541
v 0.826102 0.018643 -0.135860
v 0.826666 0.019405 -0.134522
f 177 88 129
f 177 129 1
f 136 89 177
f 136 177 1
f 179 95 130
f 179 130 2
f 2 129 88
f 2 88 179
f 190 97 131
f 190 131 3
f 130 95 190
f 130 190 3
f 187 96 132
f 187 132 4
f 131 97 187
f 131 187 4
f 184 92 133
f 184 133 5
f 132 96 184
f 132 184 5
f 185 93 134
f 185 134 6
f 133 92 185
f 133 185 6
f 193 94 135
f 193 135 7
f 134 93 193
f 134 193 7
f 181 89 136
f 181 136 8
f 8 135 94
f 8 94 181
f 9 137 103
f 9 103 161
f 9 161 105
f 9 105 144
f 10 138 107
f 10 107 162
f 10 162 103
f 10 103 137
f 11 139 109
f 11 109 163
f 11 163 107
f 11 107 138
f 12 140 102
f 12 102 164
f 12 164 109
f 12 109 139
f 13 141 112
f 13 112 165
f 13 165 102
f 13 102 140
f 14 142 114
f 14 114 166
f 14 166 112
f 14 112 141
f 15 143 116
f 15 116 167
f 15 167 114
f 15 114 142
f 16 144 105
f 16 105 168
f 16 168 116
f 16 116 143
f 161 103 145
f 161 145 17
f 17 145 104
f 17 104 225
f 17 225 106
f 17 106 152
f 17 152 105
f 17 105 161
f 162 107 146
f 162 146 18
f 18 146 108
f 18 108 222
f 18 222 104
f 18 104 145
f 18 145 103
f 18 103 162
f 163 109 147
f 163 147 19
f 19 147 110
f 19 110 221
f 19 221 108
f 19 108 146
f 19 146 107
f 19 107 163
f 164 102 148
f 164 148 20
f 20 148 111
f 20 111 252
f 20 147 109
f 20 109 164
f 252 110 147
f 252 147 20
f 165 112 149
f 165 149 21
f 21 149 113
f 21 113 233
f 21 233 111
f 21 111 148
f 21 148 102
f 21 102 165
f 166 114 150
f 166 150 22
f 22 150 115
f 22 115 231
f 22 231 113
f 22 113 149
f 22 149 112
f 22 112 166
f 167 116 151
f 167 151 23
f 23 151 117
f 23 117 229
f 23 229 115
f 23 115 150
f 23 150 114
f 23 114 167
f 168 105 152
f 168 152 24
f 24 152 106
f 24 106 227
f 24 227 117
f 24 117 151
f 24 151 116
f 24 116 168
f 49 212 98
f 49 98 209
f 211 99 212
f 211 212 49
f 49 209 101
f 49 101 210
f 49 210 100
f 49 100 211
f 253 121 223
f 253 223 58
f 58 223 122
f 58 122 245
f 58 235 125
f 58 125 253
f 245 128 235
f 245 235 58
f 59 224 118
f 59 118 246
f 223 121 224
f 223 224 59
f 246 122 223
f 246 223 59
f 224 121 226
f 224 226 60
f 60 226 123
f 60 123 247
f 247 118 224
f 247 224 60
f 61 228 124
f 61 124 248
f 253 125 228
f 253 228 61
f 226 121 253
f 226 253 61
f 248 123 226
f 248 226 61
f 62 230 119
f 62 119 249
f 254 126 230
f 254 230 62
f 228 125 254
f 228 254 62
f 249 124 228
f 249 228 62
f 63 232 120
f 63 120 250
f 230 126 232
f 230 232 63
f 250 119 230
f 250 230 63
f 232 126 234
f 232 234 64
f 64 234 127
f 64 127 251
f 251 120 232
f 251 232 64
f 65 236 127
f 65 127 234
f 235 128 236
f 235 236 65
f 65 234 126
f 65 126 254
f 254 125 235
f 254 235 65
f 221 110 243
f 221 243 66
f 66 243 128
f 66 128 245
f 66 245 122
f 66 122 242
f 242 108 221
f 242 221 66
f 67 237 104
f 67 104 222
f 246 118 237
f 246 237 67
f 222 108 242
f 222 242 67
f 67 242 122
f 67 122 246
f 68 238 106
f 68 106 225
f 247 123 238
f 247 238 68
f 237 118 247
f 237 247 68
f 68 225 104
f 68 104 237
f 69 239 117
f 69 117 227
f 248 124 239
f 248 239 69
f 238 123 248
f 238 248 69
f 69 227 106
f 69 106 238
f 70 240 115
f 70 115 229
f 249 119 240
f 249 240 70
f 239 124 249
f 239 249 70
f 70 229 117
f 70 117 239
f 71 241 113
f 71 113 231
f 250 120 241
f 250 241 71
f 240 119 250
f 240 250 71
f 71 231 115
f 71 115 240
f 72 244 111
f 72 111 233
f 251 127 244
f 251 244 72
f 241 120 251
f 241 251 72
f 72 233 113
f 72 113 241
f 243 110 252
f 243 252 73
f 73 252 111
f 73 111 244
f 244 127 236
f 244 236 73
f 73 236 128
f 73 128 243
f 41 209 98
f 41 98 201
f 201 216 50
f 201 50 41
f 43 202 98
f 43 98 212
f 43 52 219
f 43 219 202
f 204 99 211
f 204 211 45
f 45 54 217
f 45 217 204
f 206 100 210
f 206 210 47
f 210 101 207
f 210 207 47
f 47 207 214
f 47 214 56
f 47 56 213
f 47 213 206
f 220 52 43
f 220 43 203
f 203 43 212
f 203 212 99
f 205 45 211
f 205 211 100
f 218 54 45
f 218 45 205
f 101 209 41
f 101 41 208
f 208 41 50
f 208 50 215
f 51 216 201
f 51 201 42
f 42 201 98
f 42 98 202
f 42 202 219
f 42 219 51
f 205 100 206
f 205 206 46
f 46 206 213
f 46 213 55
f 46 55 218
f 46 218 205
f 203 99 204
f 203 204 44
f 44 204 217
f 44 217 53
f 44 53 220
f 44 220 203
f 207 101 208
f 207 208 48
f 48 208 215
f 48 215 57
f 48 57 214
f 48 214 207
f 54 218 183
f 54 183 28
f 25 178 88
f 25 88 177
f 28 183 178
f 28 178 25
f 27 181 94
f 27 94 192
f 197 220 53
f 197 53 29
f 192 197 29
f 192 29 27
f 183 218 55
f 183 55 30
f 26 179 88
f 26 88 178
f 178 183 30
f 178 30 26
f 31 186 92
f 31 92 184
f 36 195 186
f 36 186 31
f 50 216 195
f 50 195 36
f 35 192 94
f 35 94 193
f 35 38 197
f 35 197 192
f 52 220 197
f 52 197 38
f 34 189 97
f 34 97 190
f 34 39 199
f 34 199 189
f 56 214 199
f 56 199 39
f 199 214 57
f 199 57 40
f 187 97 189
f 187 189 33
f 33 189 199
f 33 199 40
f 219 52 38
f 219 38 196
f 196 38 35
f 196 35 194
f 194 35 193
f 194 193 93
f 95 179 26
f 95 26 191
f 213 56 39
f 213 39 198
f 198 39 34
f 198 34 191
f 191 34 190
f 191 190 95
f 191 26 30
f 191 30 198
f 198 30 55
f 198 55 213
f 194 93 185
f 194 185 32
f 195 216 51
f 195 51 37
f 32 37 196
f 32 196 194
f 186 195 37
f 186 37 32
f 32 185 92
f 32 92 186
f 51 219 196
f 51 196 37
f 89 181 27
f 89 27 180
f 182 29 53
f 182 53 217
f 182 28 25
f 182 25 180
f 180 25 177
f 180 177 89
f 180 27 29
f 180 29 182
f 217 54 28
f 217 28 182
f 96 187 33
f 96 33 188
f 215 50 36
f 215 36 200
f 200 36 31
f 200 31 188
f 188 31 184
f 188 184 96
f 188 33 40
f 188 40 200
f 200 40 57
f 200 57 215
f 80 137 9
f 80 9 153
f 80 153 175
f 80 175 90
f 175 7 135
f 175 135 90
f 82 169 1
f 82 1 129
f 74 139 11
f 74 11 155
f 74 155 169
f 74 169 82
f 76 141 13
f 76 13 157
f 76 157 171
f 76 171 86
f 171 3 131
f 171 131 86
f 78 143 15
f 78 15 159
f 78 159 173
f 78 173 84
f 84 173 5
f 84 5 133
f 154 10 137
f 154 137 80
f 90 135 8
f 90 8 176
f 80 90 176
f 80 176 154
f 158 14 141
f 158 141 76
f 86 131 4
f 86 4 172
f 76 86 172
f 76 172 158
f 81 138 10
f 81 10 154
f 83 176 8
f 83 8 136
f 81 83 169
f 81 169 155
f 154 176 83
f 154 83 81
f 81 155 11
f 81 11 138
f 136 1 169
f 136 169 83
f 159 15 142
f 159 142 77
f 85 132 5
f 85 5 173
f 77 142 14
f 77 14 158
f 77 158 172
f 77 172 85
f 77 85 173
f 77 173 159
f 172 4 132
f 172 132 85
f 156 12 139
f 156 139 74
f 82 129 2
f 82 2 170
f 74 82 170
f 74 170 156
f 157 13 140
f 157 140 75
f 87 130 3
f 87 3 171
f 75 140 12
f 75 12 156
f 75 156 170
f 75 170 87
f 75 87 171
f 75 171 157
f 87 170 2
f 87 2 130
f 160 16 143
f 160 143 78
f 84 133 6
f 84 6 174
f 78 84 174
f 78 174 160
f 153 9 144
f 153 144 79
f 91 134 7
f 91 7 175
f 79 144 16
f 79 16 160
f 79 160 174
f 79 174 91
f 79 91 175
f 79 175 153
f 91 174 6
f 91 6 134
