# _5th_Metatarsal_L posed
v 0.896779 -0.066061 0.293920
v 0.895967 -0.067926 0.295449
v 0.895358 -0.065662 0.295648
v 0.896660 -0.071721 0.296284
v 0.898351 -0.070999 0.295139
v 0.896336 -0.064245 0.294237
v 0.898087 -0.062913 0.293328
v 0.898427 -0.060467 0.296771
v 0.899888 -0.059261 0.296031
v 0.896708 -0.073727 0.296682
v 0.898972 -0.073168 0.295374
v 0.899752 -0.074845 0.296283
v 0.897446 -0.075523 0.297925
v 0.900909 -0.075655 0.297598
v 0.898438 -0.076195 0.299273
v 0.901853 -0.075506 0.299370
v 0.899703 -0.075875 0.300713
v 0.900840 -0.074154 0.301460
v 0.902897 -0.074128 0.300134
v 0.903546 -0.072574 0.300683
v 0.901543 -0.072570 0.301833
v 0.901938 -0.071208 0.302554
v 0.903359 -0.070597 0.301468
v 0.902544 -0.065836 0.302292
v 0.901357 -0.067261 0.303247
v 0.900015 -0.064122 0.303141
v 0.900755 -0.062443 0.302830
v 0.897179 -0.062684 0.300252
v 0.897504 -0.060886 0.299725
v 0.895944 -0.062528 0.298106
v 0.896677 -0.061343 0.297486
v 0.895562 -0.064094 0.296130
v 0.896357 -0.062609 0.295208
v 0.898380 -0.062721 0.301846
v 0.898770 -0.060928 0.301717
v 0.898886 -0.060165 0.298760
v 0.900687 -0.059047 0.297576
v 0.899998 -0.060145 0.300443
v 0.901863 -0.059318 0.298949
v 0.903354 -0.060548 0.299702
v 0.901589 -0.061223 0.301421
v 0.903636 -0.064536 0.300961
v 0.904988 -0.063324 0.299469
v 0.904968 -0.068263 0.300343
v 0.905961 -0.066209 0.298358
v 0.905134 -0.069999 0.299227
v 0.905043 -0.071305 0.298124
v 0.904140 -0.072887 0.297075
v 0.902872 -0.073620 0.295753
v 0.902114 -0.072864 0.294627
v 0.901185 -0.071486 0.294184
v 0.899999 -0.069179 0.293699
v 0.898499 -0.064713 0.292610
v 0.906114 -0.068125 0.297278
v 0.905720 -0.068900 0.296291
v 0.905350 -0.069690 0.295144
v 0.903886 -0.069315 0.293461
v 0.902578 -0.068132 0.292835
v 0.901449 -0.066649 0.292363
v 0.900025 -0.063712 0.292089
v 0.904722 -0.069893 0.294200
v 0.899777 -0.061933 0.292891
v 0.897775 -0.061353 0.294797
v 0.899354 -0.059980 0.294567
v 0.902978 -0.057420 0.295867
v 0.902028 -0.057483 0.294794
v 0.901590 -0.057854 0.293827
v 0.901961 -0.059049 0.292842
v 0.902555 -0.060869 0.291865
v 0.903408 -0.062882 0.291309
v 0.904459 -0.064405 0.291410
v 0.905666 -0.065408 0.291877
v 0.906624 -0.065930 0.292523
v 0.907338 -0.066093 0.293402
v 0.907587 -0.065860 0.294560
v 0.907652 -0.064822 0.295418
v 0.907621 -0.063301 0.296588
v 0.906957 -0.061277 0.297815
v 0.905738 -0.059224 0.297792
v 0.904325 -0.057905 0.297054
v 0.905597 -0.054901 0.293188
v 0.904833 -0.054616 0.292328
v 0.904685 -0.054932 0.291556
v 0.904917 -0.055826 0.290739
v 0.905429 -0.057162 0.290039
v 0.906242 -0.058692 0.289691
v 0.907132 -0.059931 0.289607
v 0.908237 -0.060847 0.289903
v 0.909264 -0.061394 0.290502
v 0.909987 -0.061546 0.291285
v 0.910383 -0.061323 0.292206
v 0.910458 -0.060592 0.293095
v 0.910461 -0.059455 0.294377
v 0.909744 -0.057886 0.295210
v 0.908622 -0.056568 0.295246
v 0.907148 -0.055444 0.294565
v 0.908569 -0.051918 0.290747
v 0.907997 -0.051879 0.290038
v 0.907825 -0.052276 0.289265
v 0.907838 -0.052852 0.288528
v 0.908280 -0.053780 0.287863
v 0.909154 -0.054894 0.287463
v 0.910154 -0.055713 0.287520
v 0.911662 -0.056668 0.287838
v 0.912700 -0.057096 0.288512
v 0.913385 -0.057189 0.289254
v 0.913811 -0.056955 0.290120
v 0.913931 -0.056272 0.291223
v 0.913476 -0.055270 0.291993
v 0.912552 -0.054109 0.292492
v 0.911457 -0.053176 0.292512
v 0.909944 -0.052325 0.291830
v 0.912563 -0.048330 0.288766
v 0.911790 -0.048447 0.287634
v 0.911353 -0.048773 0.286599
v 0.911388 -0.049353 0.285844
v 0.911944 -0.050336 0.285061
v 0.912933 -0.051361 0.284703
v 0.914121 -0.052168 0.284945
v 0.915591 -0.052997 0.285682
v 0.916364 -0.053158 0.286475
v 0.916937 -0.053187 0.287167
v 0.917340 -0.052950 0.287946
v 0.917274 -0.052150 0.289000
v 0.916823 -0.051326 0.289597
v 0.915819 -0.050134 0.290043
v 0.914968 -0.049498 0.289973
v 0.913657 -0.048701 0.289485
v 0.916666 -0.045119 0.286016
v 0.915625 -0.044935 0.284779
v 0.915309 -0.045232 0.283896
v 0.915227 -0.045793 0.282969
v 0.916006 -0.046809 0.282319
v 0.916926 -0.047728 0.282031
v 0.917958 -0.048417 0.282262
v 0.918974 -0.049097 0.283004
v 0.919914 -0.049255 0.284051
v 0.920630 -0.049158 0.285068
v 0.920984 -0.048777 0.285673
v 0.920948 -0.048194 0.286434
v 0.920409 -0.047381 0.286993
v 0.919673 -0.046792 0.287109
v 0.918669 -0.046139 0.287011
v 0.917836 -0.045657 0.286803
v 0.920448 -0.041552 0.283098
v 0.919661 -0.041338 0.282183
v 0.919018 -0.041317 0.281114
v 0.918816 -0.042382 0.279838
v 0.919360 -0.043305 0.279257
v 0.920023 -0.043968 0.278938
v 0.920956 -0.044508 0.278627
v 0.921752 -0.045585 0.280062
v 0.922564 -0.045736 0.280952
v 0.923282 -0.046398 0.282785
v 0.924268 -0.046133 0.283504
v 0.924215 -0.045871 0.284506
v 0.924057 -0.045222 0.285047
v 0.923316 -0.044476 0.285402
v 0.922270 -0.043523 0.285232
v 0.921267 -0.042204 0.284248
v 0.926516 -0.042102 0.285008
v 0.926835 -0.043297 0.284515
v 0.925810 -0.041159 0.284887
v 0.926641 -0.044069 0.283502
v 0.927940 -0.037699 0.282065
v 0.925856 -0.036995 0.279705
v 0.923288 -0.041713 0.284605
v 0.925278 -0.039819 0.284518
v 0.926446 -0.037297 0.282892
v 0.924669 -0.037299 0.280737
v 0.922324 -0.040961 0.283966
v 0.921199 -0.040522 0.282800
v 0.920349 -0.040249 0.281915
v 0.920132 -0.040059 0.280990
v 0.921790 -0.038086 0.278432
v 0.921893 -0.038531 0.277213
v 0.920352 -0.039793 0.278378
v 0.920594 -0.039226 0.279383
v 0.926692 -0.038324 0.284019
v 0.927495 -0.038962 0.283869
v 0.923013 -0.039437 0.281630
v 0.924403 -0.038965 0.283497
v 0.921471 -0.039116 0.279962
v 0.923106 -0.037473 0.279037
v 0.924014 -0.037338 0.277935
v 0.920458 -0.040617 0.277602
v 0.920905 -0.041386 0.276748
v 0.922217 -0.044351 0.277829
v 0.926567 -0.044474 0.282554
v 0.927853 -0.042962 0.281334
v 0.928029 -0.042315 0.282040
v 0.925375 -0.045360 0.282203
v 0.924715 -0.045367 0.281504
v 0.923382 -0.045373 0.280302
v 0.922470 -0.045211 0.279268
v 0.926674 -0.044440 0.281542
v 0.927582 -0.043435 0.280819
v 0.928306 -0.040619 0.280159
v 0.928057 -0.041613 0.279680
v 0.927550 -0.042856 0.279639
v 0.927388 -0.039334 0.277901
v 0.925477 -0.039319 0.275955
v 0.922926 -0.040575 0.274991
v 0.928028 -0.041269 0.282832
v 0.928487 -0.039641 0.280738
v 0.927062 -0.038390 0.278301
v 0.924938 -0.038368 0.276369
v 0.922319 -0.039861 0.275318
v 0.922069 -0.039202 0.276089
v 0.924581 -0.037839 0.276968
v 0.926603 -0.037573 0.278833
v 0.928400 -0.038689 0.281312
v 0.927889 -0.040020 0.283461
v 0.927597 -0.040326 0.277797
v 0.925778 -0.040133 0.275804
v 0.926379 -0.044118 0.280420
v 0.925416 -0.043626 0.279286
v 0.927164 -0.042448 0.278219
v 0.924150 -0.043237 0.277104
v 0.925674 -0.041707 0.276102
v 0.924064 -0.041624 0.275138
v 0.922825 -0.042759 0.275769
v 0.923608 -0.041045 0.274945
v 0.922116 -0.042540 0.275976
v 0.921424 -0.041936 0.276250
v 0.898120 -0.070078 0.299770
v 0.897449 -0.070824 0.298664
v 0.899094 -0.068257 0.300944
v 0.899714 -0.067038 0.301801
v 0.896948 -0.071245 0.297685
v 0.896683 -0.074267 0.298589
v 0.897388 -0.074568 0.299612
v 0.898476 -0.074144 0.300729
v 0.899726 -0.072096 0.301514
v 0.900476 -0.070217 0.302009
v 0.900827 -0.069767 0.302400
v 0.900383 -0.067014 0.302671
v 0.899813 -0.064825 0.302582
v 0.899050 -0.064003 0.301739
v 0.898170 -0.064490 0.300304
v 0.897200 -0.064682 0.298363
v 0.896216 -0.065504 0.296737
v 0.896176 -0.066866 0.296282
v 0.896274 -0.069484 0.296188
v 0.896331 -0.071925 0.297043
v 0.896325 -0.073685 0.297589
f 36 29 35
f 36 35 38
f 38 35 27
f 38 27 41
f 41 27 24
f 41 24 42
f 44 42 24
f 44 24 23
f 46 44 23
f 46 23 20
f 47 46 20
f 47 20 19
f 48 47 19
f 48 19 16
f 51 50 12
f 51 12 11
f 52 51 11
f 52 11 5
f 49 48 16
f 49 16 14
f 49 14 12
f 49 12 50
f 53 52 5
f 53 5 1
f 8 31 29
f 8 29 36
f 53 1 6
f 53 6 7
f 63 33 31
f 63 31 8
f 7 6 33
f 7 33 63
f 62 7 63
f 62 63 64
f 82 81 97
f 82 97 98
f 83 82 98
f 83 98 99
f 84 83 99
f 84 99 100
f 85 84 100
f 85 100 101
f 86 85 101
f 86 101 102
f 87 86 102
f 87 102 103
f 88 87 103
f 88 103 104
f 89 88 104
f 89 104 105
f 90 89 105
f 90 105 106
f 91 90 106
f 91 106 107
f 92 91 107
f 92 107 108
f 93 92 108
f 93 108 109
f 94 93 109
f 94 109 110
f 95 94 110
f 95 110 111
f 96 95 111
f 96 111 112
f 112 97 81
f 112 81 96
f 98 97 113
f 98 113 114
f 99 98 114
f 99 114 115
f 100 99 115
f 100 115 116
f 101 100 116
f 101 116 117
f 102 101 117
f 102 117 118
f 103 102 118
f 103 118 119
f 104 103 119
f 104 119 120
f 105 104 120
f 105 120 121
f 106 105 121
f 106 121 122
f 107 106 122
f 107 122 123
f 108 107 123
f 108 123 124
f 109 108 124
f 109 124 125
f 110 109 125
f 110 125 126
f 111 110 126
f 111 126 127
f 112 111 127
f 112 127 128
f 128 113 97
f 128 97 112
f 114 113 129
f 114 129 130
f 115 114 130
f 115 130 131
f 116 115 131
f 116 131 132
f 117 116 132
f 117 132 133
f 118 117 133
f 118 133 134
f 119 118 134
f 119 134 135
f 120 119 135
f 120 135 136
f 121 120 136
f 121 136 137
f 122 121 137
f 122 137 138
f 123 122 138
f 123 138 139
f 124 123 139
f 124 139 140
f 125 124 140
f 125 140 141
f 126 125 141
f 126 141 142
f 127 126 142
f 127 142 143
f 128 127 143
f 128 143 144
f 144 129 113
f 144 113 128
f 60 53 7
f 60 7 62
f 60 62 68
f 60 68 69
f 69 68 84
f 69 84 85
f 67 68 62
f 67 62 64
f 83 84 68
f 83 68 67
f 64 63 8
f 64 8 9
f 66 67 64
f 66 64 9
f 82 83 67
f 82 67 66
f 37 9 8
f 37 8 36
f 65 66 9
f 65 9 37
f 81 82 66
f 81 66 65
f 37 36 38
f 37 38 39
f 80 65 37
f 80 37 39
f 96 81 65
f 96 65 80
f 40 39 38
f 40 38 41
f 79 80 39
f 79 39 40
f 95 96 80
f 95 80 79
f 40 41 42
f 40 42 43
f 78 79 40
f 78 40 43
f 94 95 79
f 94 79 78
f 45 43 42
f 45 42 44
f 77 78 43
f 77 43 45
f 93 94 78
f 93 78 77
f 54 45 44
f 54 44 46
f 76 77 45
f 76 45 54
f 92 93 77
f 92 77 76
f 55 54 46
f 55 46 47
f 75 76 54
f 75 54 55
f 91 92 76
f 91 76 75
f 56 55 47
f 56 47 48
f 74 75 55
f 74 55 56
f 90 91 75
f 90 75 74
f 61 56 48
f 61 48 49
f 73 74 56
f 73 56 61
f 89 90 74
f 89 74 73
f 61 49 50
f 61 50 57
f 72 73 61
f 72 61 57
f 88 89 73
f 88 73 72
f 58 57 50
f 58 50 51
f 71 72 57
f 71 57 58
f 87 88 72
f 87 72 71
f 59 58 51
f 59 51 52
f 70 71 58
f 70 58 59
f 59 52 53
f 59 53 60
f 59 60 69
f 59 69 70
f 70 69 85
f 70 85 86
f 86 87 71
f 86 71 70
f 142 141 157
f 142 157 158
f 156 157 141
f 156 141 140
f 143 142 158
f 143 158 159
f 144 143 159
f 144 159 160
f 129 144 160
f 129 160 145
f 130 129 145
f 130 145 146
f 131 130 146
f 131 146 147
f 160 159 167
f 160 167 171
f 172 145 160
f 172 160 171
f 146 145 172
f 146 172 173
f 174 147 146
f 174 146 173
f 168 167 159
f 168 159 163
f 182 168 179
f 182 179 169
f 182 171 167
f 182 167 168
f 181 172 171
f 181 171 182
f 183 173 172
f 183 172 181
f 178 174 173
f 178 173 183
f 181 182 169
f 181 169 170
f 183 181 170
f 183 170 184
f 175 178 183
f 175 183 184
f 177 147 174
f 177 174 178
f 132 131 147
f 132 147 148
f 133 132 148
f 133 148 149
f 155 156 140
f 155 140 139
f 154 155 139
f 154 139 138
f 153 154 138
f 153 138 137
f 152 153 137
f 152 137 136
f 164 156 155
f 164 155 189
f 162 157 156
f 162 156 164
f 148 147 177
f 148 177 186
f 161 158 157
f 161 157 162
f 163 159 158
f 163 158 161
f 191 164 189
f 191 189 190
f 204 162 164
f 204 164 191
f 180 163 161
f 180 161 213
f 179 168 163
f 179 163 180
f 213 161 162
f 213 162 204
f 205 204 191
f 205 191 198
f 165 169 179
f 165 179 180
f 165 180 213
f 165 213 212
f 212 213 204
f 212 204 205
f 170 169 165
f 170 165 166
f 166 165 212
f 166 212 211
f 211 212 205
f 211 205 206
f 184 170 166
f 184 166 185
f 185 166 211
f 185 211 210
f 210 211 206
f 210 206 207
f 177 178 175
f 177 175 176
f 176 175 184
f 176 184 185
f 176 185 210
f 176 210 209
f 209 186 177
f 209 177 176
f 209 210 207
f 209 207 208
f 199 198 191
f 199 191 190
f 206 205 198
f 206 198 201
f 207 206 201
f 207 201 202
f 197 190 189
f 197 189 196
f 192 155 154
f 192 154 193
f 196 189 155
f 196 155 192
f 194 193 154
f 194 154 153
f 196 192 193
f 196 193 216
f 199 190 197
f 199 197 200
f 200 197 196
f 200 196 216
f 195 194 153
f 195 153 152
f 216 193 194
f 216 194 217
f 201 198 199
f 201 199 214
f 214 199 200
f 214 200 218
f 200 216 217
f 200 217 218
f 217 194 195
f 217 195 219
f 220 218 217
f 220 217 219
f 215 214 218
f 215 218 220
f 202 201 214
f 202 214 215
f 215 220 221
f 215 221 223
f 221 220 219
f 221 219 222
f 222 219 195
f 222 195 188
f 208 207 202
f 208 202 203
f 187 186 209
f 187 209 208
f 149 148 186
f 149 186 187
f 203 202 215
f 203 215 223
f 135 134 150
f 135 150 151
f 151 152 136
f 151 136 135
f 188 195 152
f 188 152 151
f 224 222 188
f 224 188 151
f 224 223 221
f 224 221 222
f 134 133 149
f 134 149 150
f 150 149 187
f 150 187 225
f 225 224 151
f 225 151 150
f 225 187 208
f 225 208 203
f 225 203 223
f 225 223 224
f 15 13 12
f 15 12 14
f 17 15 14
f 17 14 16
f 232 15 17
f 232 17 233
f 18 17 16
f 18 16 19
f 233 17 18
f 233 18 234
f 21 18 19
f 21 19 20
f 234 18 21
f 234 21 235
f 22 21 20
f 22 20 23
f 236 235 21
f 236 21 22
f 25 22 23
f 25 23 24
f 236 22 25
f 236 25 237
f 26 25 24
f 26 24 27
f 238 237 25
f 238 25 26
f 229 235 236
f 229 236 237
f 34 26 27
f 34 27 35
f 239 229 237
f 239 237 238
f 239 238 26
f 239 26 34
f 34 35 29
f 34 29 28
f 234 235 229
f 234 229 228
f 240 228 229
f 240 229 239
f 240 239 34
f 240 34 28
f 233 234 228
f 233 228 226
f 30 28 29
f 30 29 31
f 226 228 240
f 226 240 241
f 240 28 30
f 240 30 241
f 32 30 31
f 32 31 33
f 232 233 226
f 232 226 227
f 242 227 226
f 242 226 241
f 242 241 30
f 242 30 32
f 32 33 6
f 32 6 3
f 243 242 32
f 243 32 3
f 2 3 6
f 2 6 1
f 244 243 3
f 244 3 2
f 4 2 1
f 4 1 5
f 230 227 242
f 230 242 243
f 244 2 4
f 244 4 245
f 230 243 244
f 230 244 245
f 10 4 5
f 10 5 11
f 10 11 12
f 10 12 13
f 232 227 230
f 232 230 231
f 246 245 4
f 246 4 10
f 246 10 13
f 246 13 231
f 231 13 15
f 231 15 232
f 231 230 245
f 231 245 246
