# _5th_Intermediate_Phalanges_Hand_L rest
v 0.823199 0.018056 -0.130442
v 0.824234 0.019138 -0.131704
v 0.826097 0.018077 -0.132160
v 0.824842 0.017008 -0.131162
v 0.819959 0.018354 -0.137619
v 0.821534 0.019230 -0.137329
v 0.822496 0.018583 -0.138844
v 0.820980 0.017383 -0.138680
v 0.822642 0.019747 -0.134260
v 0.823879 0.018207 -0.135268
v 0.825295 0.016477 -0.133458
v 0.823382 0.016204 -0.135698
v 0.822708 0.016690 -0.138262
v 0.821146 0.016040 -0.137856
v 0.823983 0.015733 -0.132615
v 0.821717 0.015313 -0.135126
v 0.820976 0.019662 -0.133530
v 0.819726 0.016707 -0.136647
v 0.820645 0.015856 -0.134526
v 0.821991 0.016136 -0.132014
v 0.819674 0.019839 -0.132524
v 0.821097 0.017990 -0.130028
v 0.820461 0.016501 -0.131388
v 0.819373 0.016245 -0.133586
v 0.818523 0.016873 -0.135477
v 0.818149 0.018235 -0.136112
v 0.820531 0.019236 -0.130923
v 0.821922 0.019295 -0.131735
v 0.823535 0.019683 -0.132821
v 0.818781 0.019671 -0.134611
v 0.820202 0.019585 -0.135525
v 0.822034 0.019747 -0.135899
v 0.824920 0.018307 -0.133888
v 0.823507 0.018561 -0.136929
v 0.823501 0.017257 -0.137601
v 0.823744 0.016986 -0.135899
v 0.824729 0.017066 -0.134394
v 0.816563 0.018335 -0.134330
v 0.816852 0.017085 -0.133775
v 0.817607 0.016594 -0.132221
v 0.818520 0.016967 -0.130437
v 0.819193 0.018279 -0.129044
v 0.818851 0.019560 -0.129699
v 0.818095 0.020187 -0.131230
v 0.817135 0.019818 -0.133138
v 0.814308 0.018704 -0.132357
v 0.814621 0.017537 -0.131714
v 0.815275 0.017087 -0.130401
v 0.816172 0.017428 -0.128664
v 0.816983 0.018821 -0.127139
v 0.816670 0.020207 -0.127761
v 0.815830 0.020744 -0.129356
v 0.814853 0.020207 -0.131270
v 0.811558 0.019147 -0.130659
v 0.811863 0.017805 -0.130001
v 0.812662 0.017293 -0.128478
v 0.813734 0.017718 -0.126494
v 0.814734 0.019308 -0.124749
v 0.814404 0.020967 -0.125334
v 0.813378 0.021462 -0.127231
v 0.812235 0.020795 -0.129385
v 0.808365 0.019531 -0.129213
v 0.808714 0.017910 -0.128338
v 0.809778 0.017369 -0.126304
v 0.811359 0.017701 -0.123719
v 0.812715 0.019723 -0.121553
v 0.811979 0.021592 -0.122446
v 0.810665 0.022206 -0.124609
v 0.809298 0.021472 -0.127183
v 0.808729 0.022911 -0.122778
v 0.807224 0.021837 -0.125915
v 0.806418 0.019796 -0.128343
v 0.806837 0.017886 -0.127202
v 0.807803 0.017325 -0.124954
v 0.809495 0.017905 -0.122153
v 0.810940 0.019835 -0.120082
v 0.810513 0.022117 -0.120416
v 0.807754 0.021478 -0.122666
v 0.809312 0.021059 -0.121328
v 0.809483 0.019813 -0.121225
v 0.808442 0.018517 -0.122270
v 0.807199 0.018354 -0.124069
v 0.806564 0.018553 -0.125669
v 0.806489 0.019739 -0.126276
v 0.806937 0.020988 -0.124760
v 0.807763 0.019683 -0.123468
v 0.821801 0.015535 -0.133472
v 0.820359 0.015820 -0.136019
v 0.823523 0.016404 -0.131170
v 0.820175 0.016938 -0.137906
v 0.821334 0.019691 -0.134795
v 0.823124 0.019292 -0.131436
v 0.822114 0.019584 -0.133080
v 0.824315 0.017830 -0.131669
v 0.820799 0.019402 -0.136604
v 0.821264 0.018102 -0.138011
v 0.822818 0.019301 -0.137145
v 0.821820 0.017020 -0.138834
v 0.823424 0.017740 -0.138185
v 0.823125 0.018954 -0.135615
v 0.823295 0.016672 -0.137050
v 0.822443 0.015898 -0.136899
v 0.823915 0.017729 -0.136527
v 0.824043 0.015759 -0.134290
v 0.823820 0.018915 -0.134196
v 0.825492 0.016623 -0.132012
v 0.825488 0.017421 -0.133539
v 0.824299 0.016567 -0.134781
v 0.825132 0.019180 -0.132665
v 0.824417 0.017582 -0.134924
v 0.813102 0.018221 -0.131289
v 0.813646 0.017347 -0.130241
v 0.814475 0.017231 -0.128598
v 0.815508 0.018160 -0.126661
v 0.815867 0.019959 -0.126052
v 0.815126 0.020956 -0.127399
v 0.814093 0.020908 -0.129373
v 0.813169 0.019794 -0.131196
v 0.820616 0.016186 -0.132919
v 0.819056 0.016422 -0.131993
v 0.816912 0.016930 -0.130510
v 0.819561 0.016442 -0.135145
v 0.818113 0.016534 -0.133944
v 0.816102 0.017007 -0.132070
v 0.818900 0.017406 -0.136674
v 0.817487 0.017491 -0.135190
v 0.815619 0.017849 -0.133084
v 0.819098 0.019057 -0.136125
v 0.817590 0.019126 -0.134856
v 0.815684 0.019313 -0.132962
v 0.819928 0.019775 -0.134084
v 0.818511 0.020019 -0.132930
v 0.816545 0.020336 -0.131281
v 0.820771 0.019529 -0.132176
v 0.819370 0.019713 -0.131115
v 0.817441 0.020233 -0.129496
v 0.821804 0.017028 -0.130587
v 0.819981 0.017272 -0.130051
v 0.821661 0.018681 -0.130664
v 0.820057 0.018807 -0.129825
v 0.817778 0.017729 -0.128790
v 0.818076 0.019297 -0.128269
v 0.811359 0.021667 -0.127082
v 0.810181 0.020357 -0.129307
v 0.809955 0.018491 -0.129677
v 0.810603 0.017475 -0.128318
v 0.811745 0.017455 -0.126263
v 0.813107 0.018492 -0.123970
v 0.813551 0.020587 -0.123208
v 0.812628 0.021760 -0.124768
v 0.810495 0.022557 -0.122195
v 0.811994 0.021224 -0.120298
v 0.811541 0.018497 -0.121304
v 0.809466 0.017242 -0.124180
v 0.807977 0.017439 -0.126740
v 0.807315 0.018462 -0.128758
v 0.807543 0.020797 -0.127920
v 0.808807 0.022398 -0.124998
v 0.810146 0.020816 -0.120411
v 0.809903 0.018907 -0.121132
v 0.807210 0.021990 -0.124124
v 0.808967 0.022146 -0.121383
v 0.808070 0.018963 -0.122720
v 0.807920 0.017828 -0.123182
v 0.806867 0.017912 -0.125451
v 0.806920 0.018995 -0.124936
v 0.806270 0.018752 -0.127100
v 0.806538 0.020602 -0.126465
v 0.807193 0.020491 -0.124376
v 0.808745 0.020701 -0.122031
v 0.823747 0.018766 -0.131166
v 0.825339 0.018912 -0.132102
v 0.825586 0.017253 -0.131599
v 0.823953 0.017254 -0.130762
v 0.820813 0.018937 -0.137412
v 0.822026 0.019091 -0.137993
v 0.821595 0.017851 -0.138939
v 0.820416 0.017711 -0.138276
v 0.824007 0.019531 -0.132178
v 0.822281 0.019759 -0.135111
v 0.825681 0.018414 -0.133094
v 0.823426 0.018850 -0.134903
v 0.823636 0.018341 -0.136070
v 0.825937 0.017115 -0.132789
v 0.824333 0.016171 -0.134521
v 0.823553 0.016564 -0.135865
v 0.822957 0.016288 -0.137002
v 0.822716 0.017434 -0.138816
v 0.820976 0.016658 -0.138388
v 0.821965 0.016259 -0.138192
v 0.824529 0.016273 -0.131673
v 0.824869 0.016018 -0.132954
v 0.821161 0.015528 -0.136526
v 0.823037 0.015797 -0.135557
v 0.822769 0.015328 -0.133879
v 0.821690 0.019660 -0.133903
v 0.820584 0.019698 -0.134484
v 0.821409 0.019522 -0.132641
v 0.820260 0.016271 -0.137288
v 0.819483 0.017273 -0.137296
v 0.820912 0.015571 -0.134676
v 0.820076 0.016119 -0.135725
v 0.822895 0.015798 -0.132301
v 0.821319 0.015877 -0.133249
v 0.822592 0.016799 -0.130881
v 0.820336 0.019730 -0.133092
v 0.820111 0.019595 -0.131670
v 0.821932 0.017941 -0.130333
v 0.820948 0.017134 -0.130348
v 0.821228 0.016326 -0.131772
v 0.819912 0.016259 -0.132484
v 0.820065 0.016242 -0.134019
v 0.818898 0.016458 -0.134642
v 0.819180 0.016832 -0.136106
v 0.818246 0.017449 -0.135989
v 0.818847 0.018275 -0.136742
v 0.818390 0.019065 -0.135593
v 0.820879 0.018724 -0.130311
v 0.821229 0.019199 -0.131363
v 0.822445 0.018920 -0.130881
v 0.822603 0.019485 -0.132254
v 0.823050 0.019742 -0.133471
v 0.819253 0.019910 -0.133538
v 0.819488 0.019579 -0.135155
v 0.819865 0.019216 -0.136506
v 0.821026 0.019641 -0.135726
v 0.821746 0.019548 -0.136738
v 0.824478 0.019147 -0.133393
v 0.824308 0.018221 -0.134545
v 0.822908 0.019143 -0.136395
v 0.823400 0.018818 -0.137736
v 0.823718 0.017742 -0.137400
v 0.824904 0.017524 -0.134259
v 0.823285 0.017026 -0.137942
v 0.823556 0.017098 -0.136879
v 0.824059 0.017605 -0.135669
v 0.824169 0.016984 -0.135059
v 0.825072 0.016854 -0.134008
v 0.816591 0.017641 -0.134231
v 0.817195 0.016715 -0.133086
v 0.818057 0.016666 -0.131336
v 0.818883 0.017463 -0.129602
v 0.819121 0.019001 -0.129172
v 0.818517 0.019940 -0.130374
v 0.817632 0.020162 -0.132194
v 0.816727 0.019164 -0.133964
v 0.814416 0.018063 -0.132122
v 0.814914 0.017234 -0.131132
v 0.815713 0.017121 -0.129575
v 0.816645 0.017971 -0.127751
v 0.816944 0.019628 -0.127212
v 0.816283 0.020584 -0.128460
v 0.815337 0.020612 -0.130320
v 0.814466 0.019538 -0.132049
v 0.811646 0.018370 -0.130476
v 0.812227 0.017436 -0.129316
v 0.813176 0.017369 -0.127516
v 0.814300 0.018366 -0.125504
v 0.814773 0.020283 -0.124718
v 0.813935 0.021375 -0.126189
v 0.812789 0.021251 -0.128338
v 0.811775 0.020055 -0.130299
v 0.808408 0.018530 -0.129044
v 0.809147 0.017505 -0.127427
v 0.810494 0.017404 -0.125068
v 0.812200 0.018491 -0.122411
v 0.812487 0.020835 -0.121731
v 0.811340 0.022052 -0.123442
v 0.809969 0.022038 -0.125885
v 0.808721 0.020565 -0.128368
v 0.815534 0.018505 -0.133259
v 0.815817 0.017359 -0.132675
v 0.816496 0.016879 -0.131328
v 0.817341 0.017220 -0.129650
v 0.818118 0.018535 -0.128153
v 0.817795 0.019855 -0.128782
v 0.817027 0.020420 -0.130345
v 0.816094 0.019966 -0.132206
v 0.813010 0.018923 -0.131510
v 0.813324 0.017689 -0.130862
v 0.814025 0.017211 -0.129483
v 0.814977 0.017551 -0.127623
v 0.815871 0.019060 -0.126012
v 0.815528 0.020567 -0.126629
v 0.814625 0.021069 -0.128378
v 0.813574 0.020476 -0.130370
v 0.809892 0.019368 -0.129896
v 0.810229 0.017886 -0.129108
v 0.811149 0.017331 -0.127347
v 0.812400 0.017830 -0.125106
v 0.813615 0.019535 -0.123140
v 0.813158 0.021354 -0.123825
v 0.811986 0.021842 -0.125890
v 0.810725 0.021162 -0.128264
v 0.818573 0.016363 -0.132978
v 0.819545 0.016712 -0.130996
v 0.817757 0.016932 -0.134729
v 0.817381 0.018271 -0.135309
v 0.818019 0.019741 -0.133980
v 0.818948 0.019972 -0.131941
v 0.819743 0.019340 -0.130395
v 0.820197 0.018108 -0.129617
v 0.809605 0.022644 -0.123551
v 0.808132 0.021768 -0.126503
v 0.807844 0.022537 -0.124365
v 0.806786 0.020819 -0.127302
v 0.807220 0.019632 -0.129029
v 0.806607 0.018473 -0.128111
v 0.807596 0.017867 -0.127832
v 0.807198 0.017533 -0.126120
v 0.808661 0.017247 -0.125564
v 0.808505 0.017391 -0.123512
v 0.810548 0.017625 -0.122735
v 0.810443 0.018731 -0.121058
v 0.812174 0.019884 -0.120331
v 0.811041 0.021170 -0.119849
v 0.811302 0.022039 -0.121177
v 0.809772 0.022815 -0.121437
v 0.807952 0.022323 -0.122550
v 0.809772 0.021610 -0.120765
v 0.808612 0.021324 -0.121836
v 0.809577 0.020637 -0.121122
v 0.810190 0.019812 -0.120527
v 0.809171 0.019003 -0.121571
v 0.808975 0.018229 -0.121989
v 0.807748 0.018309 -0.123069
v 0.807286 0.017795 -0.124399
v 0.806803 0.018428 -0.124975
v 0.806537 0.018260 -0.126164
v 0.806421 0.018830 -0.126177
v 0.806141 0.019634 -0.127416
v 0.806781 0.020463 -0.125577
v 0.806863 0.021424 -0.125252
v 0.807188 0.021352 -0.123831
v 0.807775 0.020740 -0.123016
v 0.808513 0.019710 -0.122388
v 0.807428 0.018937 -0.123812
v 0.807163 0.019676 -0.124721
f 1 171 92
f 1 92 220
f 174 94 171
f 174 171 1
f 1 208 137
f 1 137 205
f 220 139 208
f 220 208 1
f 205 89 174
f 205 174 1
f 171 94 172
f 171 172 2
f 2 172 109
f 2 109 179
f 2 179 92
f 2 92 171
f 172 94 173
f 172 173 3
f 3 173 106
f 3 106 184
f 184 107 181
f 184 181 3
f 3 181 109
f 3 109 172
f 4 174 89
f 4 89 191
f 173 94 174
f 173 174 4
f 4 191 106
f 4 106 173
f 225 95 175
f 225 175 5
f 5 175 96
f 5 96 178
f 200 125 216
f 200 216 5
f 5 216 128
f 5 128 225
f 5 178 90
f 5 90 200
f 6 176 96
f 6 96 175
f 227 97 176
f 227 176 6
f 175 95 227
f 175 227 6
f 7 177 96
f 7 96 176
f 188 98 177
f 188 177 7
f 231 99 188
f 231 188 7
f 176 97 231
f 176 231 7
f 189 90 178
f 189 178 8
f 8 178 96
f 8 96 177
f 177 98 189
f 177 189 8
f 9 180 91
f 9 91 196
f 182 100 180
f 182 180 9
f 9 196 93
f 9 93 222
f 9 222 105
f 9 105 182
f 192 104 185
f 192 185 11
f 11 185 108
f 11 108 238
f 11 238 107
f 11 107 184
f 11 184 106
f 11 106 192
f 187 101 186
f 187 186 12
f 12 186 108
f 12 108 185
f 194 102 187
f 194 187 12
f 12 185 104
f 12 104 194
f 13 190 98
f 13 98 188
f 187 102 190
f 187 190 13
f 188 99 234
f 188 234 13
f 13 234 101
f 13 101 187
f 14 193 88
f 14 88 199
f 190 102 193
f 190 193 14
f 14 199 90
f 14 90 189
f 14 189 98
f 14 98 190
f 195 104 192
f 195 192 15
f 15 192 106
f 15 106 191
f 203 87 195
f 203 195 15
f 191 89 203
f 191 203 15
f 193 102 194
f 193 194 16
f 16 194 104
f 16 104 195
f 195 87 201
f 195 201 16
f 16 201 88
f 16 88 193
f 196 91 197
f 196 197 17
f 17 197 131
f 17 131 206
f 17 198 93
f 17 93 196
f 206 134 198
f 206 198 17
f 18 200 90
f 18 90 199
f 214 125 200
f 214 200 18
f 199 88 202
f 199 202 18
f 18 202 122
f 18 122 214
f 201 87 204
f 201 204 19
f 19 204 119
f 19 119 212
f 19 212 122
f 19 122 202
f 202 88 201
f 202 201 19
f 203 89 205
f 203 205 20
f 20 205 137
f 20 137 210
f 20 210 119
f 20 119 204
f 204 87 203
f 204 203 20
f 21 207 134
f 21 134 206
f 300 135 207
f 300 207 21
f 206 131 223
f 206 223 21
f 21 223 132
f 21 132 300
f 22 209 137
f 22 137 208
f 302 138 209
f 302 209 22
f 208 139 218
f 208 218 22
f 22 218 140
f 22 140 302
f 23 211 119
f 23 119 210
f 296 120 211
f 296 211 23
f 209 138 296
f 209 296 23
f 210 137 209
f 210 209 23
f 24 213 122
f 24 122 212
f 295 123 213
f 295 213 24
f 211 120 295
f 211 295 24
f 212 119 211
f 212 211 24
f 25 215 125
f 25 125 214
f 297 126 215
f 297 215 25
f 213 123 297
f 213 297 25
f 214 122 213
f 214 213 25
f 26 217 128
f 26 128 216
f 298 129 217
f 298 217 26
f 215 126 298
f 215 298 26
f 216 125 215
f 216 215 26
f 27 219 134
f 27 134 207
f 218 139 219
f 218 219 27
f 207 135 301
f 207 301 27
f 27 301 140
f 27 140 218
f 220 92 221
f 220 221 28
f 28 221 93
f 28 93 198
f 28 198 134
f 28 134 219
f 28 219 139
f 28 139 220
f 29 228 105
f 29 105 222
f 179 109 228
f 179 228 29
f 221 92 179
f 221 179 29
f 222 93 221
f 222 221 29
f 30 224 128
f 30 128 217
f 223 131 224
f 223 224 30
f 217 129 299
f 217 299 30
f 30 299 132
f 30 132 223
f 197 91 226
f 197 226 31
f 31 226 95
f 31 95 225
f 224 131 197
f 224 197 31
f 225 128 224
f 225 224 31
f 32 230 97
f 32 97 227
f 180 100 230
f 180 230 32
f 226 91 180
f 226 180 32
f 227 95 226
f 227 226 32
f 181 107 233
f 181 233 33
f 33 233 110
f 33 110 229
f 228 109 181
f 228 181 33
f 229 105 228
f 229 228 33
f 34 232 99
f 34 99 231
f 183 103 232
f 183 232 34
f 230 100 183
f 230 183 34
f 231 97 230
f 231 230 34
f 35 235 101
f 35 101 234
f 232 103 235
f 232 235 35
f 234 99 232
f 234 232 35
f 36 237 108
f 36 108 186
f 236 110 237
f 236 237 36
f 36 186 101
f 36 101 235
f 36 235 103
f 36 103 236
f 37 233 107
f 37 107 238
f 237 110 233
f 237 233 37
f 238 108 237
f 238 237 37
f 298 126 239
f 298 239 38
f 38 239 127
f 38 127 271
f 38 271 130
f 38 130 246
f 38 246 129
f 38 129 298
f 297 123 240
f 297 240 39
f 39 240 124
f 39 124 272
f 39 272 127
f 39 127 239
f 39 239 126
f 39 126 297
f 295 120 241
f 295 241 40
f 40 241 121
f 40 121 273
f 40 273 124
f 40 124 240
f 40 240 123
f 40 123 295
f 296 138 242
f 296 242 41
f 41 242 141
f 41 141 274
f 41 274 121
f 41 121 241
f 41 241 120
f 41 120 296
f 302 140 243
f 302 243 42
f 42 243 142
f 42 142 275
f 42 275 141
f 42 141 242
f 242 138 302
f 242 302 42
f 301 135 244
f 301 244 43
f 43 244 136
f 43 136 276
f 43 276 142
f 43 142 243
f 43 243 140
f 43 140 301
f 300 132 245
f 300 245 44
f 44 245 133
f 44 133 277
f 44 277 136
f 44 136 244
f 244 135 300
f 244 300 44
f 299 129 246
f 299 246 45
f 45 246 130
f 45 130 278
f 45 278 133
f 45 133 245
f 45 245 132
f 45 132 299
f 46 247 111
f 46 111 279
f 271 127 247
f 271 247 46
f 46 279 118
f 46 118 254
f 46 254 130
f 46 130 271
f 47 248 112
f 47 112 280
f 272 124 248
f 272 248 47
f 47 280 111
f 47 111 247
f 47 247 127
f 47 127 272
f 48 249 113
f 48 113 281
f 273 121 249
f 273 249 48
f 48 281 112
f 48 112 248
f 48 248 124
f 48 124 273
f 49 250 114
f 49 114 282
f 274 141 250
f 274 250 49
f 49 282 113
f 49 113 249
f 49 249 121
f 49 121 274
f 50 251 115
f 50 115 283
f 275 142 251
f 275 251 50
f 50 283 114
f 50 114 250
f 50 250 141
f 50 141 275
f 51 252 116
f 51 116 284
f 276 136 252
f 276 252 51
f 51 284 115
f 51 115 251
f 51 251 142
f 51 142 276
f 52 253 117
f 52 117 285
f 277 133 253
f 277 253 52
f 52 285 116
f 52 116 252
f 52 252 136
f 52 136 277
f 53 254 118
f 53 118 286
f 278 130 254
f 278 254 53
f 53 286 117
f 53 117 253
f 53 253 133
f 53 133 278
f 279 111 255
f 279 255 54
f 54 255 145
f 54 145 287
f 54 287 144
f 54 144 262
f 54 262 118
f 54 118 279
f 280 112 256
f 280 256 55
f 55 256 146
f 55 146 288
f 55 288 145
f 55 145 255
f 55 255 111
f 55 111 280
f 281 113 257
f 281 257 56
f 56 257 147
f 56 147 289
f 56 289 146
f 56 146 256
f 56 256 112
f 56 112 281
f 282 114 258
f 282 258 57
f 57 258 148
f 57 148 290
f 57 290 147
f 57 147 257
f 57 257 113
f 57 113 282
f 283 115 259
f 283 259 58
f 58 259 149
f 58 149 291
f 58 291 148
f 58 148 258
f 58 258 114
f 58 114 283
f 284 116 260
f 284 260 59
f 59 260 150
f 59 150 292
f 59 292 149
f 59 149 259
f 59 259 115
f 59 115 284
f 285 117 261
f 285 261 60
f 60 261 143
f 60 143 293
f 60 293 150
f 60 150 260
f 60 260 116
f 60 116 285
f 286 118 262
f 286 262 61
f 61 262 144
f 61 144 294
f 61 294 143
f 61 143 261
f 61 261 117
f 61 117 286
f 287 145 263
f 287 263 62
f 62 263 156
f 62 156 307
f 62 307 157
f 62 157 270
f 62 270 144
f 62 144 287
f 288 146 264
f 288 264 63
f 63 264 155
f 63 155 309
f 63 309 156
f 63 156 263
f 63 263 145
f 63 145 288
f 289 147 265
f 289 265 64
f 64 265 154
f 64 154 311
f 64 311 155
f 64 155 264
f 64 264 146
f 64 146 289
f 290 148 266
f 290 266 65
f 65 266 153
f 65 153 313
f 65 313 154
f 65 154 265
f 65 265 147
f 65 147 290
f 291 149 267
f 291 267 66
f 66 267 152
f 66 152 315
f 66 315 153
f 66 153 266
f 66 266 148
f 66 148 291
f 292 150 268
f 292 268 67
f 67 268 151
f 67 151 317
f 67 317 152
f 67 152 267
f 67 267 149
f 67 149 292
f 293 143 269
f 293 269 68
f 68 269 158
f 68 158 303
f 68 303 151
f 68 151 268
f 68 268 150
f 68 150 293
f 294 144 270
f 294 270 69
f 69 270 157
f 69 157 304
f 69 304 158
f 69 158 269
f 69 269 143
f 69 143 294
f 303 158 305
f 303 305 70
f 70 305 161
f 70 161 319
f 70 319 162
f 70 162 318
f 318 151 303
f 318 303 70
f 304 157 306
f 304 306 71
f 71 306 168
f 71 168 333
f 71 333 161
f 71 161 305
f 305 158 304
f 305 304 71
f 307 156 308
f 307 308 72
f 72 308 167
f 72 167 331
f 72 331 168
f 72 168 306
f 72 306 157
f 72 157 307
f 309 155 310
f 309 310 73
f 73 310 165
f 73 165 329
f 73 329 167
f 73 167 308
f 73 308 156
f 73 156 309
f 311 154 312
f 311 312 74
f 74 312 164
f 74 164 327
f 74 327 165
f 74 165 310
f 74 310 155
f 74 155 311
f 313 153 314
f 313 314 75
f 75 314 160
f 75 160 325
f 75 325 164
f 75 164 312
f 75 312 154
f 75 154 313
f 315 152 316
f 315 316 76
f 76 316 159
f 76 159 323
f 76 323 160
f 76 160 314
f 76 314 153
f 76 153 315
f 317 151 318
f 317 318 77
f 77 318 162
f 77 162 320
f 77 320 159
f 77 159 316
f 77 316 152
f 77 152 317
f 78 321 162
f 78 162 319
f 335 170 321
f 335 321 78
f 334 169 335
f 334 335 78
f 78 319 161
f 78 161 334
f 79 322 159
f 79 159 320
f 321 170 322
f 321 322 79
f 79 320 162
f 79 162 321
f 80 324 160
f 80 160 323
f 336 163 324
f 336 324 80
f 322 170 336
f 322 336 80
f 323 159 322
f 323 322 80
f 324 163 326
f 324 326 81
f 81 326 164
f 81 164 325
f 325 160 324
f 325 324 81
f 82 328 165
f 82 165 327
f 337 166 328
f 337 328 82
f 326 163 337
f 326 337 82
f 327 164 326
f 327 326 82
f 328 166 330
f 328 330 83
f 83 330 167
f 83 167 329
f 329 165 328
f 329 328 83
f 84 332 168
f 84 168 331
f 338 169 332
f 338 332 84
f 84 330 166
f 84 166 338
f 331 167 330
f 331 330 84
f 85 334 161
f 85 161 333
f 332 169 334
f 332 334 85
f 333 168 332
f 333 332 85
f 86 338 166
f 86 166 337
f 335 169 338
f 335 338 86
f 336 170 335
f 336 335 86
f 337 163 336
f 337 336 86
f 100 182 10
f 100 10 183
f 103 183 10
f 103 10 236
f 229 10 182
f 229 182 105
f 110 236 10
f 110 10 229
