# _5th_Distal_Phalanx_Foot_L rest
v 0.134793 -1.335763 0.126561
v 0.133297 -1.335587 0.126917
v 0.132258 -1.335901 0.127108
v 0.131347 -1.336985 0.127065
v 0.131423 -1.337957 0.126676
v 0.132168 -1.338797 0.126501
v 0.133451 -1.339628 0.126283
v 0.134931 -1.339890 0.125899
v 0.136444 -1.339559 0.125606
v 0.137050 -1.338652 0.125629
v 0.136915 -1.337363 0.125739
v 0.135937 -1.336407 0.126227
v 0.131209 -1.337386 0.128726
v 0.131881 -1.336285 0.128782
v 0.133121 -1.335760 0.128680
v 0.134534 -1.335802 0.128496
v 0.135806 -1.336394 0.128196
v 0.136875 -1.337516 0.127839
v 0.137119 -1.339084 0.127551
v 0.136235 -1.340097 0.127539
v 0.134685 -1.340350 0.127698
v 0.133269 -1.340108 0.128005
v 0.132082 -1.339505 0.128280
v 0.131315 -1.338575 0.128516
v 0.131853 -1.337710 0.130488
v 0.132437 -1.336955 0.130443
v 0.133327 -1.336508 0.130305
v 0.134513 -1.336353 0.130125
v 0.135516 -1.337029 0.129915
v 0.135989 -1.338025 0.129741
v 0.136117 -1.339074 0.129623
v 0.135548 -1.339820 0.129559
v 0.134552 -1.340185 0.129678
v 0.133302 -1.340014 0.129971
v 0.132296 -1.339445 0.130238
v 0.131794 -1.338619 0.130413
v 0.131711 -1.337821 0.132851
v 0.132439 -1.336986 0.132810
v 0.133491 -1.336580 0.132622
v 0.134456 -1.336588 0.132411
v 0.135335 -1.337143 0.132207
v 0.135784 -1.338143 0.132022
v 0.135698 -1.339207 0.131975
v 0.135263 -1.339976 0.132040
v 0.134647 -1.340510 0.132273
v 0.133429 -1.340446 0.132555
v 0.132023 -1.339355 0.132575
v 0.131629 -1.338615 0.132725
v 0.132047 -1.337987 0.134671
v 0.132855 -1.337159 0.134526
v 0.133579 -1.336864 0.134305
v 0.134296 -1.336889 0.134052
v 0.135023 -1.337223 0.133880
v 0.135441 -1.338022 0.133712
v 0.135459 -1.339096 0.133782
v 0.134993 -1.339941 0.133997
v 0.134202 -1.340347 0.134334
v 0.133325 -1.340306 0.134618
v 0.132164 -1.339187 0.134623
v 0.131879 -1.338576 0.134525
v 0.132333 -1.338199 0.135072
v 0.133064 -1.337485 0.135042
v 0.133743 -1.337325 0.134855
v 0.134263 -1.337259 0.134678
v 0.134756 -1.337489 0.134662
v 0.135190 -1.338067 0.134479
v 0.135140 -1.338892 0.134554
v 0.134683 -1.339683 0.134696
v 0.133843 -1.340165 0.134895
v 0.133103 -1.339834 0.134921
v 0.132469 -1.339195 0.135107
v 0.132092 -1.338731 0.134956
v 0.133004 -1.338909 0.135278
v 0.133737 -1.338558 0.135300
v 0.134324 -1.337975 0.135063
v 0.134427 -1.336885 0.127033
v 0.135346 -1.337301 0.126718
v 0.135955 -1.337720 0.126314
v 0.136111 -1.338490 0.126174
v 0.135721 -1.339061 0.126201
v 0.134924 -1.339104 0.126436
v 0.133780 -1.338828 0.126764
v 0.132810 -1.338280 0.126852
v 0.132241 -1.337714 0.126635
v 0.132234 -1.337098 0.126879
v 0.132617 -1.336668 0.127001
v 0.133472 -1.336615 0.127189
v 0.135142 -1.338208 0.126663
v 0.134066 -1.337922 0.127016
v 0.133132 -1.337536 0.127095
f 26 25 37
f 26 37 38
f 27 26 38
f 27 38 39
f 28 27 39
f 28 39 40
f 29 28 40
f 29 40 41
f 30 29 41
f 30 41 42
f 31 30 42
f 31 42 43
f 32 31 43
f 32 43 44
f 33 32 44
f 33 44 45
f 34 33 45
f 34 45 46
f 35 34 46
f 35 46 47
f 36 35 47
f 36 47 48
f 48 37 25
f 48 25 36
f 38 37 49
f 38 49 50
f 39 38 50
f 39 50 51
f 40 39 51
f 40 51 52
f 41 40 52
f 41 52 53
f 42 41 53
f 42 53 54
f 43 42 54
f 43 54 55
f 44 43 55
f 44 55 56
f 45 44 56
f 45 56 57
f 46 45 57
f 46 57 58
f 47 46 58
f 47 58 59
f 48 47 59
f 48 59 60
f 60 49 37
f 60 37 48
f 16 15 27
f 16 27 28
f 17 16 28
f 17 28 29
f 18 17 29
f 18 29 30
f 26 27 15
f 26 15 14
f 25 26 14
f 25 14 13
f 36 25 13
f 36 13 24
f 35 36 24
f 35 24 23
f 34 35 23
f 34 23 22
f 33 34 22
f 33 22 21
f 32 33 21
f 32 21 20
f 19 18 30
f 19 30 31
f 31 32 20
f 31 20 19
f 71 72 60
f 71 60 59
f 59 58 70
f 59 70 71
f 73 71 70
f 73 70 69
f 69 70 58
f 69 58 57
f 61 62 50
f 61 50 49
f 61 72 71
f 61 71 73
f 49 60 72
f 49 72 61
f 68 69 57
f 68 57 56
f 62 61 73
f 62 73 74
f 74 73 69
f 74 69 68
f 51 50 62
f 51 62 63
f 67 68 56
f 67 56 55
f 66 67 55
f 66 55 54
f 52 51 63
f 52 63 64
f 65 66 54
f 65 54 53
f 75 74 68
f 75 68 67
f 65 64 63
f 65 63 75
f 53 52 64
f 53 64 65
f 75 67 66
f 75 66 65
f 63 62 74
f 63 74 75
f 1 16 17
f 1 17 12
f 11 12 17
f 11 17 18
f 10 11 18
f 10 18 19
f 9 10 19
f 9 19 20
f 8 9 20
f 8 20 21
f 7 8 21
f 7 21 22
f 6 7 22
f 6 22 23
f 5 6 23
f 5 23 24
f 4 5 24
f 4 24 13
f 3 4 13
f 3 13 14
f 2 3 14
f 2 14 15
f 2 15 16
f 2 16 1
f 79 78 11
f 79 11 10
f 79 10 9
f 79 9 80
f 81 80 9
f 81 9 8
f 77 12 11
f 77 11 78
f 88 79 80
f 88 80 81
f 88 77 78
f 88 78 79
f 1 12 77
f 1 77 76
f 82 81 8
f 82 8 7
f 89 76 77
f 89 77 88
f 89 88 81
f 89 81 82
f 83 6 5
f 83 5 84
f 87 86 3
f 87 3 2
f 83 82 7
f 83 7 6
f 87 2 1
f 87 1 76
f 85 4 3
f 85 3 86
f 90 87 76
f 90 76 89
f 90 83 84
f 90 84 85
f 85 84 5
f 85 5 4
f 85 86 87
f 85 87 90
f 90 89 82
f 90 82 83
