# _5th_Distal_Phalanx_Foot_L posed
v 0.930203 -0.025276 0.270692
v 0.929334 -0.024036 0.271027
v 0.928821 -0.023305 0.271673
v 0.928470 -0.022992 0.273011
v 0.928554 -0.023535 0.273919
v 0.929208 -0.024304 0.274459
v 0.930208 -0.025441 0.274806
v 0.931073 -0.026711 0.274559
v 0.931847 -0.027811 0.273738
v 0.932023 -0.027986 0.272674
v 0.931623 -0.027556 0.271503
v 0.930977 -0.026377 0.270917
v 0.929573 -0.021713 0.273350
v 0.929760 -0.021865 0.272079
v 0.930410 -0.022609 0.271161
v 0.931294 -0.023639 0.270720
v 0.932164 -0.024783 0.270850
v 0.933008 -0.025951 0.271553
v 0.933449 -0.026644 0.272957
v 0.933117 -0.026308 0.274218
v 0.932206 -0.025271 0.274985
v 0.931342 -0.024104 0.275233
v 0.930513 -0.023031 0.275063
v 0.929857 -0.022182 0.274443
v 0.931267 -0.020829 0.273342
v 0.931427 -0.021073 0.272431
v 0.931831 -0.021643 0.271710
v 0.932501 -0.022489 0.271162
v 0.933265 -0.023413 0.271460
v 0.933775 -0.024044 0.272242
v 0.934093 -0.024429 0.273190
v 0.933870 -0.024274 0.274092
v 0.933355 -0.023637 0.274774
v 0.932619 -0.022598 0.275032
v 0.931921 -0.021650 0.274833
v 0.931442 -0.021035 0.274221
v 0.932739 -0.018952 0.273373
v 0.932979 -0.019266 0.272339
v 0.933476 -0.019984 0.271601
v 0.934019 -0.020748 0.271285
v 0.934664 -0.021566 0.271512
v 0.935151 -0.022191 0.272307
v 0.935370 -0.022391 0.273340
v 0.935331 -0.022226 0.274211
v 0.935207 -0.021772 0.274914
v 0.934518 -0.020784 0.275262
v 0.933226 -0.019670 0.274722
v 0.932831 -0.019159 0.274156
v 0.934209 -0.017799 0.273320
v 0.934440 -0.018245 0.272269
v 0.934718 -0.018806 0.271752
v 0.935063 -0.019452 0.271540
v 0.935558 -0.020105 0.271610
v 0.935976 -0.020657 0.272225
v 0.936347 -0.020834 0.273226
v 0.936407 -0.020550 0.274171
v 0.936190 -0.019881 0.274809
v 0.935748 -0.019109 0.275060
v 0.934610 -0.018153 0.274411
v 0.934168 -0.017926 0.273940
v 0.934733 -0.017712 0.273400
v 0.935017 -0.018046 0.272477
v 0.935326 -0.018580 0.272100
v 0.935557 -0.019026 0.271867
v 0.935959 -0.019393 0.271913
v 0.936313 -0.019922 0.272316
v 0.936568 -0.020001 0.273105
v 0.936569 -0.019769 0.273999
v 0.936251 -0.019191 0.274734
v 0.935651 -0.018642 0.274678
v 0.935142 -0.017973 0.274287
v 0.934643 -0.017759 0.273990
v 0.935545 -0.018118 0.273825
v 0.935971 -0.018486 0.273240
v 0.936059 -0.018915 0.272500
v 0.930582 -0.024915 0.271850
v 0.931143 -0.025814 0.271938
v 0.931429 -0.026588 0.272142
v 0.931672 -0.026951 0.272819
v 0.931583 -0.026803 0.273490
v 0.931189 -0.026135 0.273795
v 0.930519 -0.025114 0.273915
v 0.929736 -0.024330 0.273732
v 0.929030 -0.024026 0.273408
v 0.929005 -0.023710 0.272818
v 0.929227 -0.023767 0.272276
v 0.929935 -0.024146 0.271919
v 0.931228 -0.025914 0.272865
v 0.930620 -0.024914 0.272952
v 0.929903 -0.024193 0.272908
f 26 25 37
f 26 37 38
f 27 26 38
f 27 38 39
f 28 27 39
f 28 39 40
f 29 28 40
f 29 40 41
f 30 29 41
f 30 41 42
f 31 30 42
f 31 42 43
f 32 31 43
f 32 43 44
f 33 32 44
f 33 44 45
f 34 33 45
f 34 45 46
f 35 34 46
f 35 46 47
f 36 35 47
f 36 47 48
f 48 37 25
f 48 25 36
f 38 37 49
f 38 49 50
f 39 38 50
f 39 50 51
f 40 39 51
f 40 51 52
f 41 40 52
f 41 52 53
f 42 41 53
f 42 53 54
f 43 42 54
f 43 54 55
f 44 43 55
f 44 55 56
f 45 44 56
f 45 56 57
f 46 45 57
f 46 57 58
f 47 46 58
f 47 58 59
f 48 47 59
f 48 59 60
f 60 49 37
f 60 37 48
f 16 15 27
f 16 27 28
f 17 16 28
f 17 28 29
f 18 17 29
f 18 29 30
f 26 27 15
f 26 15 14
f 25 26 14
f 25 14 13
f 36 25 13
f 36 13 24
f 35 36 24
f 35 24 23
f 34 35 23
f 34 23 22
f 33 34 22
f 33 22 21
f 32 33 21
f 32 21 20
f 19 18 30
f 19 30 31
f 31 32 20
f 31 20 19
f 71 72 60
f 71 60 59
f 59 58 70
f 59 70 71
f 73 71 70
f 73 70 69
f 69 70 58
f 69 58 57
f 61 62 50
f 61 50 49
f 61 72 71
f 61 71 73
f 49 60 72
f 49 72 61
f 68 69 57
f 68 57 56
f 62 61 73
f 62 73 74
f 74 73 69
f 74 69 68
f 51 50 62
f 51 62 63
f 67 68 56
f 67 56 55
f 66 67 55
f 66 55 54
f 52 51 63
f 52 63 64
f 65 66 54
f 65 54 53
f 75 74 68
f 75 68 67
f 65 64 63
f 65 63 75
f 53 52 64
f 53 64 65
f 75 67 66
f 75 66 65
f 63 62 74
f 63 74 75
f 1 16 17
f 1 17 12
f 11 12 17
f 11 17 18
f 10 11 18
f 10 18 19
f 9 10 19
f 9 19 20
f 8 9 20
f 8 20 21
f 7 8 21
f 7 21 22
f 6 7 22
f 6 22 23
f 5 6 23
f 5 23 24
f 4 5 24
f 4 24 13
f 3 4 13
f 3 13 14
f 2 3 14
f 2 14 15
f 2 15 16
f 2 16 1
f 79 78 11
f 79 11 10
f 79 10 9
f 79 9 80
f 81 80 9
f 81 9 8
f 77 12 11
f 77 11 78
f 88 79 80
f 88 80 81
f 88 77 78
f 88 78 79
f 1 12 77
f 1 77 76
f 82 81 8
f 82 8 7
f 89 76 77
f 89 77 88
f 89 88 81
f 89 81 82
f 83 6 5
f 83 5 84
f 87 86 3
f 87 3 2
f 83 82 7
f 83 7 6
f 87 2 1
f 87 1 76
f 85 4 3
f 85 3 86
f 90 87 76
f 90 76 89
f 90 83 84
f 90 84 85
f 85 84 5
f 85 5 4
f 85 86 87
f 85 87 90
f 90 89 82
f 90 82 83
