# _5th_Proximal_Phalanx_Foot_L rest
v 0.141094 -1.338503 0.124000
v 0.142322 -1.338413 0.125016
v 0.140907 -1.338996 0.127102
v 0.139024 -1.339206 0.125122
v 0.136783 -1.340071 0.125263
v 0.142537 -1.341793 0.127860
v 0.136369 -1.341639 0.125294
v 0.138339 -1.342340 0.125358
v 0.140156 -1.341925 0.125593
v 0.139440 -1.340275 0.125757
v 0.138365 -1.340745 0.125648
v 0.141952 -1.338462 0.124337
v 0.140871 -1.339367 0.125532
v 0.140270 -1.340252 0.126238
v 0.140706 -1.341763 0.125835
v 0.140573 -1.340149 0.126925
v 0.141258 -1.341854 0.126339
v 0.142355 -1.342461 0.127528
v 0.141772 -1.340394 0.127902
v 0.141045 -1.340600 0.127653
v 0.138534 -1.339161 0.124082
v 0.141096 -1.338672 0.123157
v 0.142728 -1.338516 0.123473
v 0.143639 -1.338574 0.124695
v 0.137175 -1.340058 0.124182
v 0.136870 -1.342044 0.124424
v 0.138645 -1.342853 0.124782
v 0.140630 -1.342389 0.125263
v 0.141174 -1.342246 0.125460
v 0.141892 -1.342423 0.125827
v 0.142905 -1.342886 0.126973
v 0.143584 -1.342066 0.127236
v 0.143598 -1.340723 0.127099
v 0.143001 -1.339386 0.126680
v 0.143388 -1.338513 0.122655
v 0.142140 -1.338728 0.122061
v 0.141106 -1.339687 0.121724
v 0.144691 -1.338805 0.123254
v 0.145533 -1.339586 0.123869
v 0.146029 -1.340849 0.124291
v 0.145932 -1.341862 0.124395
v 0.145253 -1.342822 0.124139
v 0.144223 -1.342996 0.123481
v 0.143242 -1.343058 0.122937
v 0.142252 -1.343151 0.122601
v 0.141163 -1.343229 0.122150
v 0.140411 -1.342405 0.121735
v 0.140648 -1.341068 0.121577
v 0.142248 -1.342297 0.119946
v 0.142358 -1.341026 0.119758
v 0.143090 -1.339564 0.120114
v 0.143754 -1.338757 0.120389
v 0.144792 -1.338332 0.120909
v 0.145842 -1.338672 0.121503
v 0.146804 -1.339567 0.122049
v 0.147550 -1.340915 0.122555
v 0.147412 -1.341823 0.122623
v 0.146900 -1.342871 0.122531
v 0.145915 -1.343472 0.122068
v 0.144545 -1.343484 0.121394
v 0.143386 -1.343487 0.120781
v 0.142454 -1.342819 0.120184
v 0.143964 -1.342034 0.118118
v 0.144029 -1.340970 0.118069
v 0.144684 -1.339726 0.118273
v 0.145353 -1.338876 0.118544
v 0.146478 -1.338189 0.119097
v 0.147580 -1.338607 0.119768
v 0.148335 -1.339589 0.120323
v 0.148884 -1.340664 0.120823
v 0.149027 -1.341794 0.121109
v 0.148578 -1.342839 0.121041
v 0.147341 -1.343674 0.120438
v 0.146093 -1.343753 0.119672
v 0.144929 -1.343591 0.118957
v 0.144173 -1.342877 0.118406
v 0.145451 -1.342360 0.116291
v 0.145597 -1.341253 0.116228
v 0.146265 -1.339907 0.116433
v 0.146977 -1.338933 0.116761
v 0.148112 -1.338199 0.117382
v 0.149270 -1.338837 0.118194
v 0.149826 -1.339807 0.118641
v 0.150497 -1.340922 0.119333
v 0.150529 -1.342030 0.119574
v 0.150225 -1.342994 0.119528
v 0.149114 -1.343949 0.118925
v 0.147779 -1.344238 0.117992
v 0.146470 -1.344103 0.117161
v 0.145668 -1.343320 0.116567
v 0.146874 -1.342740 0.114353
v 0.147043 -1.341624 0.114331
v 0.147643 -1.340230 0.114500
v 0.148701 -1.338831 0.114952
v 0.149867 -1.338100 0.115519
v 0.151152 -1.339020 0.116421
v 0.151707 -1.340112 0.116947
v 0.152405 -1.341273 0.117572
v 0.152571 -1.342344 0.117750
v 0.152295 -1.343643 0.117758
v 0.151390 -1.344844 0.117355
v 0.149615 -1.345070 0.116126
v 0.148068 -1.344760 0.115210
v 0.147131 -1.343827 0.114612
v 0.148052 -1.343335 0.112115
v 0.148252 -1.342013 0.112177
v 0.149059 -1.340473 0.112506
v 0.150374 -1.338672 0.113073
v 0.151583 -1.338094 0.113833
v 0.152929 -1.339108 0.114721
v 0.153536 -1.340181 0.115233
v 0.154277 -1.341524 0.115609
v 0.154899 -1.342895 0.115819
v 0.154770 -1.344391 0.115947
v 0.153812 -1.345918 0.115335
v 0.151852 -1.346098 0.114277
v 0.149715 -1.345981 0.113118
v 0.148351 -1.344640 0.112392
v 0.153601 -1.347114 0.112819
v 0.155133 -1.347454 0.113402
v 0.152477 -1.347585 0.112070
v 0.155104 -1.347754 0.111595
v 0.156522 -1.347879 0.111953
v 0.154031 -1.347927 0.110848
v 0.153152 -1.348259 0.109318
v 0.151305 -1.348106 0.110100
v 0.153216 -1.347375 0.107515
v 0.151320 -1.347113 0.107909
v 0.153641 -1.345718 0.106475
v 0.151855 -1.345239 0.106664
v 0.153820 -1.342958 0.106057
v 0.152177 -1.342841 0.106549
v 0.152474 -1.340382 0.107701
v 0.153859 -1.340648 0.106835
v 0.153552 -1.338602 0.109254
v 0.154540 -1.339229 0.107783
v 0.149375 -1.346292 0.111348
v 0.149362 -1.345586 0.109520
v 0.149511 -1.344264 0.108992
v 0.149924 -1.342265 0.108965
v 0.150878 -1.340381 0.109458
v 0.152475 -1.338511 0.110533
v 0.153660 -1.338188 0.111362
v 0.154867 -1.338318 0.110295
v 0.155829 -1.338767 0.109046
v 0.157745 -1.339422 0.109779
v 0.156650 -1.339225 0.111062
v 0.155279 -1.339165 0.112383
v 0.158686 -1.346891 0.113716
v 0.159755 -1.347335 0.112084
v 0.160236 -1.345766 0.112488
v 0.161039 -1.346084 0.110780
v 0.157515 -1.345893 0.114785
v 0.161042 -1.344003 0.109988
v 0.160387 -1.343571 0.111466
v 0.158536 -1.344787 0.113983
v 0.158807 -1.343260 0.113162
v 0.160050 -1.342063 0.109555
v 0.159630 -1.341921 0.111100
v 0.158077 -1.341894 0.112839
v 0.156903 -1.340489 0.112603
v 0.158274 -1.340418 0.111129
v 0.159183 -1.340628 0.109537
v 0.157982 -1.346097 0.110260
v 0.158068 -1.344127 0.109509
v 0.154891 -1.346580 0.109127
v 0.155060 -1.344824 0.108170
v 0.155077 -1.342798 0.107872
v 0.157580 -1.342372 0.109206
v 0.157078 -1.341155 0.109130
v 0.156259 -1.346273 0.109775
v 0.156533 -1.344452 0.108984
v 0.156386 -1.342677 0.108733
v 0.156093 -1.341537 0.108743
v 0.155208 -1.341224 0.108072
f 10 14 13
f 10 13 4
f 1 4 13
f 1 13 12
f 11 10 4
f 11 4 5
f 11 5 7
f 11 7 8
f 10 11 8
f 10 8 9
f 15 14 10
f 15 10 9
f 17 16 14
f 17 14 15
f 20 16 17
f 20 17 18
f 3 2 12
f 3 12 13
f 3 13 14
f 3 14 16
f 19 3 16
f 19 16 20
f 20 18 6
f 20 6 19
f 21 4 1
f 21 1 22
f 1 12 23
f 1 23 22
f 24 23 12
f 24 12 2
f 24 2 3
f 24 3 34
f 34 3 19
f 34 19 33
f 33 19 6
f 33 6 32
f 32 6 18
f 32 18 31
f 31 18 17
f 31 17 30
f 30 17 15
f 30 15 29
f 29 15 9
f 29 9 28
f 28 9 8
f 28 8 27
f 27 8 7
f 27 7 26
f 26 7 5
f 26 5 25
f 25 5 4
f 25 4 21
f 78 77 63
f 78 63 64
f 79 78 64
f 79 64 65
f 80 79 65
f 80 65 66
f 81 80 66
f 81 66 67
f 82 81 67
f 82 67 68
f 83 82 68
f 83 68 69
f 84 83 69
f 84 69 70
f 85 84 70
f 85 70 71
f 86 85 71
f 86 71 72
f 87 86 72
f 87 72 73
f 88 87 73
f 88 73 74
f 89 88 74
f 89 74 75
f 90 89 75
f 90 75 76
f 76 63 77
f 76 77 90
f 92 91 77
f 92 77 78
f 93 92 78
f 93 78 79
f 94 93 79
f 94 79 80
f 95 94 80
f 95 80 81
f 96 95 81
f 96 81 82
f 97 96 82
f 97 82 83
f 98 97 83
f 98 83 84
f 99 98 84
f 99 84 85
f 100 99 85
f 100 85 86
f 101 100 86
f 101 86 87
f 102 101 87
f 102 87 88
f 103 102 88
f 103 88 89
f 104 103 89
f 104 89 90
f 90 77 91
f 90 91 104
f 36 22 23
f 36 23 35
f 36 35 53
f 36 53 52
f 52 53 67
f 52 67 66
f 38 35 23
f 38 23 24
f 54 53 35
f 54 35 38
f 68 67 53
f 68 53 54
f 39 38 24
f 39 24 34
f 55 54 38
f 55 38 39
f 69 68 54
f 69 54 55
f 40 39 34
f 40 34 33
f 56 55 39
f 56 39 40
f 70 69 55
f 70 55 56
f 41 40 33
f 41 33 32
f 57 56 40
f 57 40 41
f 71 70 56
f 71 56 57
f 42 41 32
f 42 32 31
f 58 57 41
f 58 41 42
f 72 71 57
f 72 57 58
f 43 42 31
f 43 31 30
f 59 58 42
f 59 42 43
f 73 72 58
f 73 58 59
f 44 43 30
f 44 30 29
f 60 59 43
f 60 43 44
f 74 73 59
f 74 59 60
f 45 44 29
f 45 29 28
f 61 60 44
f 61 44 45
f 75 74 60
f 75 60 61
f 46 45 28
f 46 28 27
f 62 61 45
f 62 45 46
f 76 75 61
f 76 61 62
f 47 46 27
f 47 27 26
f 49 62 46
f 49 46 47
f 63 76 62
f 63 62 49
f 48 47 26
f 48 26 25
f 50 49 47
f 50 47 48
f 64 63 49
f 64 49 50
f 21 22 36
f 21 36 37
f 37 36 52
f 37 52 51
f 48 25 21
f 48 21 37
f 51 50 48
f 51 48 37
f 65 64 50
f 65 50 51
f 51 52 66
f 51 66 65
f 101 102 116
f 101 116 115
f 117 116 102
f 117 102 103
f 121 119 116
f 121 116 117
f 126 121 117
f 126 117 137
f 118 117 103
f 118 103 104
f 138 137 117
f 138 117 118
f 128 126 137
f 128 137 138
f 105 118 104
f 105 104 91
f 139 138 118
f 139 118 105
f 130 128 138
f 130 138 139
f 106 105 91
f 106 91 92
f 140 139 105
f 140 105 106
f 132 130 139
f 132 139 140
f 107 106 92
f 107 92 93
f 141 140 106
f 141 106 107
f 133 132 140
f 133 140 141
f 108 107 93
f 108 93 94
f 109 108 94
f 109 94 95
f 142 141 107
f 142 107 108
f 135 133 141
f 135 141 142
f 144 135 142
f 144 142 143
f 142 108 109
f 142 109 143
f 110 109 95
f 110 95 96
f 115 116 119
f 115 119 120
f 153 115 120
f 153 120 149
f 100 101 115
f 100 115 114
f 114 115 153
f 114 153 156
f 156 153 149
f 156 149 151
f 99 100 114
f 99 114 113
f 113 114 156
f 113 156 157
f 157 156 151
f 157 151 155
f 98 99 113
f 98 113 112
f 111 110 96
f 111 96 97
f 97 98 112
f 97 112 111
f 112 113 157
f 112 157 160
f 148 143 109
f 148 109 110
f 111 112 160
f 111 160 161
f 148 110 111
f 148 111 161
f 160 157 155
f 160 155 159
f 147 144 143
f 147 143 148
f 161 160 159
f 161 159 162
f 147 148 161
f 147 161 162
f 150 149 120
f 150 120 123
f 151 149 150
f 151 150 152
f 155 151 152
f 155 152 154
f 124 121 126
f 124 126 125
f 127 125 126
f 127 126 128
f 129 127 128
f 129 128 130
f 131 129 130
f 131 130 132
f 159 155 154
f 159 154 158
f 163 162 159
f 163 159 158
f 163 146 147
f 163 147 162
f 123 120 119
f 123 119 122
f 122 119 121
f 122 121 124
f 152 150 123
f 152 123 164
f 166 124 125
f 166 125 127
f 154 152 164
f 154 164 165
f 167 166 127
f 167 127 129
f 164 123 122
f 164 122 171
f 171 122 124
f 171 124 166
f 171 166 167
f 171 167 172
f 158 154 165
f 158 165 169
f 172 165 164
f 172 164 171
f 163 158 169
f 163 169 170
f 173 169 165
f 173 165 172
f 173 172 167
f 173 167 168
f 168 167 129
f 168 129 131
f 134 131 132
f 134 132 133
f 174 170 169
f 174 169 173
f 145 144 147
f 145 147 146
f 145 146 163
f 145 163 170
f 175 174 173
f 175 173 168
f 136 134 133
f 136 133 135
f 145 175 134
f 145 134 136
f 136 135 144
f 136 144 145
f 145 170 174
f 145 174 175
f 175 168 131
f 175 131 134
