# _5th_Metatarsal_R posed
v 0.865475 0.226715 0.290596
v 0.864225 0.228307 0.290949
v 0.864192 0.226669 0.291910
v 0.863840 0.231368 0.290155
v 0.865465 0.230915 0.289693
v 0.865457 0.225465 0.291479
v 0.867214 0.224688 0.291415
v 0.867415 0.224274 0.294807
v 0.868897 0.223567 0.294802
v 0.863401 0.232890 0.289687
v 0.865456 0.232640 0.289077
v 0.865560 0.234300 0.289138
v 0.863393 0.234732 0.289937
v 0.866065 0.235602 0.289833
v 0.863793 0.235907 0.290697
v 0.866527 0.236346 0.291202
v 0.864590 0.236502 0.291909
v 0.865689 0.235869 0.293145
v 0.867482 0.235928 0.292316
v 0.868205 0.235215 0.293321
v 0.866490 0.235091 0.294042
v 0.866953 0.234505 0.295088
v 0.868340 0.234080 0.294614
v 0.868560 0.230893 0.296949
v 0.867206 0.231891 0.297035
v 0.866843 0.229363 0.298070
v 0.867801 0.228295 0.298511
v 0.865443 0.226665 0.296403
v 0.866143 0.225335 0.296712
v 0.864881 0.225509 0.294867
v 0.865783 0.224673 0.294903
v 0.864590 0.225810 0.292850
v 0.865650 0.224680 0.292786
v 0.866092 0.227542 0.297586
v 0.866777 0.226367 0.298181
v 0.867503 0.224864 0.296362
v 0.869299 0.224153 0.296025
v 0.868082 0.225709 0.297626
v 0.869918 0.225108 0.296963
v 0.870682 0.226590 0.297117
v 0.868917 0.227189 0.298003
v 0.869877 0.229827 0.296542
v 0.871400 0.228831 0.295997
v 0.870229 0.232509 0.294767
v 0.871731 0.230677 0.294171
v 0.870181 0.233360 0.293327
v 0.870024 0.233856 0.292046
v 0.869183 0.234352 0.290659
v 0.868280 0.234079 0.289377
v 0.868038 0.232981 0.288817
v 0.867683 0.231646 0.288969
v 0.867330 0.229598 0.289429
v 0.867276 0.225782 0.290248
v 0.871630 0.231660 0.292687
v 0.871331 0.231754 0.291672
v 0.871074 0.231811 0.290538
v 0.870306 0.230603 0.289403
v 0.869652 0.229245 0.289334
v 0.869171 0.227779 0.289495
v 0.868730 0.225307 0.290327
v 0.870707 0.231467 0.289757
v 0.868776 0.224298 0.291553
v 0.867056 0.224041 0.293033
v 0.868580 0.223424 0.293462
v 0.871659 0.223038 0.295527
v 0.871095 0.222472 0.294690
v 0.870842 0.222284 0.293840
v 0.871040 0.222862 0.292709
v 0.871280 0.223929 0.291359
v 0.871610 0.225338 0.290252
v 0.872083 0.226685 0.289808
v 0.872724 0.227840 0.289826
v 0.873243 0.228665 0.290141
v 0.873612 0.229259 0.290744
v 0.873662 0.229558 0.291671
v 0.873784 0.229156 0.292676
v 0.873882 0.228504 0.294080
v 0.873591 0.227366 0.295679
v 0.873084 0.225638 0.296367
v 0.872395 0.224121 0.296262
v 0.874609 0.221073 0.294694
v 0.874224 0.220388 0.294148
v 0.874171 0.220304 0.293472
v 0.874299 0.220696 0.292568
v 0.874530 0.221505 0.291595
v 0.874894 0.222643 0.290814
v 0.875333 0.223692 0.290336
v 0.875941 0.224704 0.290260
v 0.876516 0.225547 0.290535
v 0.876909 0.226103 0.291074
v 0.877108 0.226365 0.291836
v 0.877170 0.226187 0.292748
v 0.877197 0.225845 0.294090
v 0.876835 0.224871 0.295233
v 0.876242 0.223692 0.295693
v 0.875458 0.222312 0.295552
v 0.877885 0.218960 0.294220
v 0.877572 0.218545 0.293700
v 0.877485 0.218509 0.292992
v 0.877497 0.218656 0.292253
v 0.877753 0.219178 0.291455
v 0.878257 0.220029 0.290798
v 0.878843 0.220866 0.290583
v 0.879747 0.222016 0.290529
v 0.880342 0.222806 0.290902
v 0.880726 0.223299 0.291432
v 0.880958 0.223543 0.292160
v 0.881010 0.223482 0.293210
v 0.880742 0.222941 0.294110
v 0.880194 0.222079 0.294852
v 0.879546 0.221165 0.295158
v 0.878675 0.219961 0.294911
v 0.881990 0.216852 0.294353
v 0.881560 0.216347 0.293463
v 0.881328 0.216106 0.292581
v 0.881360 0.216255 0.291828
v 0.881711 0.216804 0.290932
v 0.882314 0.217639 0.290344
v 0.883017 0.218579 0.290274
v 0.883849 0.219775 0.290565
v 0.884278 0.220355 0.291109
v 0.884596 0.220758 0.291621
v 0.884826 0.220965 0.292286
v 0.884767 0.220759 0.293333
v 0.884495 0.220282 0.294044
v 0.883899 0.219359 0.294756
v 0.883391 0.218682 0.294900
v 0.882633 0.217632 0.294783
v 0.886225 0.214770 0.293802
v 0.885669 0.213955 0.292935
v 0.885511 0.213777 0.292179
v 0.885484 0.213824 0.291304
v 0.885977 0.214498 0.290500
v 0.886538 0.215265 0.289998
v 0.887147 0.216082 0.289959
v 0.887663 0.217061 0.290286
v 0.888178 0.217768 0.291022
v 0.888579 0.218232 0.291820
v 0.888829 0.218268 0.292412
v 0.888797 0.218118 0.293171
v 0.888461 0.217614 0.293845
v 0.888000 0.217060 0.294110
v 0.887383 0.216322 0.294233
v 0.886880 0.215707 0.294222
v 0.890318 0.212302 0.293252
v 0.889909 0.211641 0.292640
v 0.889596 0.211098 0.291852
v 0.889431 0.211343 0.290533
v 0.889751 0.211918 0.289801
v 0.890173 0.212433 0.289361
v 0.890824 0.212937 0.288986
v 0.890980 0.214366 0.289644
v 0.891424 0.214980 0.290263
v 0.891538 0.216242 0.291356
v 0.892228 0.216557 0.292017
v 0.892077 0.216706 0.292827
v 0.892002 0.216406 0.293446
v 0.891531 0.215827 0.293941
v 0.890957 0.214849 0.294123
v 0.890624 0.213352 0.293868
v 0.894526 0.214887 0.294708
v 0.894605 0.215619 0.293927
v 0.894199 0.214022 0.294937
v 0.894462 0.215753 0.292908
v 0.896992 0.211245 0.294329
v 0.895931 0.209429 0.292807
v 0.892208 0.213656 0.294404
v 0.894128 0.212848 0.295149
v 0.895801 0.210871 0.294990
v 0.894796 0.209685 0.293365
v 0.891731 0.212675 0.294183
v 0.891150 0.211687 0.293460
v 0.890701 0.210984 0.292889
v 0.890724 0.210487 0.292289
v 0.892808 0.208701 0.291291
v 0.892994 0.208614 0.290261
v 0.891370 0.209474 0.290539
v 0.891508 0.209494 0.291480
v 0.895595 0.212018 0.295421
v 0.896101 0.212608 0.295119
v 0.892946 0.211025 0.293125
v 0.893801 0.211694 0.294698
v 0.892105 0.209843 0.291979
v 0.893843 0.208825 0.292014
v 0.894742 0.208589 0.291327
v 0.891408 0.209799 0.289683
v 0.891729 0.210147 0.288810
v 0.891948 0.212882 0.288541
v 0.894477 0.215689 0.292079
v 0.895966 0.214569 0.291842
v 0.896118 0.214411 0.292595
v 0.893442 0.215869 0.291436
v 0.893050 0.215467 0.290902
v 0.892227 0.214720 0.289977
v 0.891733 0.214024 0.289255
v 0.894729 0.215349 0.291378
v 0.895746 0.214648 0.291286
v 0.896982 0.212683 0.291906
v 0.896666 0.213135 0.291182
v 0.896030 0.213841 0.290663
v 0.896912 0.210801 0.290732
v 0.895772 0.209639 0.289255
v 0.893723 0.209513 0.287966
v 0.896204 0.213965 0.293549
v 0.897227 0.212259 0.292690
v 0.896792 0.210210 0.291352
v 0.895489 0.208994 0.289877
v 0.893354 0.208982 0.288434
v 0.893173 0.208732 0.289217
v 0.895228 0.208746 0.290482
v 0.896524 0.209717 0.292011
v 0.897263 0.211782 0.293449
v 0.896251 0.213291 0.294455
v 0.896884 0.211497 0.290300
v 0.895858 0.210222 0.288859
v 0.894752 0.214671 0.290685
v 0.894302 0.213703 0.290013
v 0.896050 0.212981 0.289786
v 0.893769 0.212369 0.288540
v 0.895408 0.211372 0.288476
v 0.894351 0.210575 0.287737
v 0.893072 0.211247 0.287699
v 0.894154 0.209995 0.287793
v 0.892542 0.210985 0.287891
v 0.892093 0.210487 0.288276
v 0.864724 0.231804 0.293332
v 0.864239 0.231766 0.292229
v 0.865650 0.231207 0.294903
v 0.866233 0.230824 0.296004
v 0.863929 0.231593 0.291347
v 0.862960 0.233902 0.290842
v 0.863270 0.234637 0.291495
v 0.864006 0.235006 0.292507
v 0.865252 0.234191 0.293900
v 0.866129 0.233267 0.294997
v 0.866426 0.233181 0.295463
v 0.866607 0.231275 0.296667
v 0.866636 0.229602 0.297398
v 0.866360 0.228556 0.297066
v 0.865821 0.228174 0.295815
v 0.865357 0.227395 0.294308
v 0.864702 0.227152 0.292789
v 0.864467 0.227919 0.291952
v 0.864020 0.229705 0.290907
v 0.863423 0.231681 0.290602
v 0.862969 0.233071 0.290330
f 38 35 29
f 38 29 36
f 41 27 35
f 41 35 38
f 42 24 27
f 42 27 41
f 23 24 42
f 23 42 44
f 20 23 44
f 20 44 46
f 19 20 46
f 19 46 47
f 16 19 47
f 16 47 48
f 11 12 50
f 11 50 51
f 5 11 51
f 5 51 52
f 14 16 48
f 14 48 49
f 50 12 14
f 50 14 49
f 1 5 52
f 1 52 53
f 36 29 31
f 36 31 8
f 7 6 1
f 7 1 53
f 8 31 33
f 8 33 63
f 63 33 6
f 63 6 7
f 64 63 7
f 64 7 62
f 98 97 81
f 98 81 82
f 99 98 82
f 99 82 83
f 100 99 83
f 100 83 84
f 101 100 84
f 101 84 85
f 102 101 85
f 102 85 86
f 103 102 86
f 103 86 87
f 104 103 87
f 104 87 88
f 105 104 88
f 105 88 89
f 106 105 89
f 106 89 90
f 107 106 90
f 107 90 91
f 108 107 91
f 108 91 92
f 109 108 92
f 109 92 93
f 110 109 93
f 110 93 94
f 111 110 94
f 111 94 95
f 112 111 95
f 112 95 96
f 96 81 97
f 96 97 112
f 114 113 97
f 114 97 98
f 115 114 98
f 115 98 99
f 116 115 99
f 116 99 100
f 117 116 100
f 117 100 101
f 118 117 101
f 118 101 102
f 119 118 102
f 119 102 103
f 120 119 103
f 120 103 104
f 121 120 104
f 121 104 105
f 122 121 105
f 122 105 106
f 123 122 106
f 123 106 107
f 124 123 107
f 124 107 108
f 125 124 108
f 125 108 109
f 126 125 109
f 126 109 110
f 127 126 110
f 127 110 111
f 128 127 111
f 128 111 112
f 112 97 113
f 112 113 128
f 130 129 113
f 130 113 114
f 131 130 114
f 131 114 115
f 132 131 115
f 132 115 116
f 133 132 116
f 133 116 117
f 134 133 117
f 134 117 118
f 135 134 118
f 135 118 119
f 136 135 119
f 136 119 120
f 137 136 120
f 137 120 121
f 138 137 121
f 138 121 122
f 139 138 122
f 139 122 123
f 140 139 123
f 140 123 124
f 141 140 124
f 141 124 125
f 142 141 125
f 142 125 126
f 143 142 126
f 143 126 127
f 144 143 127
f 144 127 128
f 128 113 129
f 128 129 144
f 62 7 53
f 62 53 60
f 69 68 62
f 69 62 60
f 85 84 68
f 85 68 69
f 64 62 68
f 64 68 67
f 67 68 84
f 67 84 83
f 9 8 63
f 9 63 64
f 9 64 67
f 9 67 66
f 66 67 83
f 66 83 82
f 36 8 9
f 36 9 37
f 37 9 66
f 37 66 65
f 65 66 82
f 65 82 81
f 39 38 36
f 39 36 37
f 39 37 65
f 39 65 80
f 80 65 81
f 80 81 96
f 41 38 39
f 41 39 40
f 40 39 80
f 40 80 79
f 79 80 96
f 79 96 95
f 43 42 41
f 43 41 40
f 43 40 79
f 43 79 78
f 78 79 95
f 78 95 94
f 44 42 43
f 44 43 45
f 45 43 78
f 45 78 77
f 77 78 94
f 77 94 93
f 46 44 45
f 46 45 54
f 54 45 77
f 54 77 76
f 76 77 93
f 76 93 92
f 47 46 54
f 47 54 55
f 55 54 76
f 55 76 75
f 75 76 92
f 75 92 91
f 48 47 55
f 48 55 56
f 56 55 75
f 56 75 74
f 74 75 91
f 74 91 90
f 49 48 56
f 49 56 61
f 61 56 74
f 61 74 73
f 73 74 90
f 73 90 89
f 57 50 49
f 57 49 61
f 57 61 73
f 57 73 72
f 72 73 89
f 72 89 88
f 51 50 57
f 51 57 58
f 58 57 72
f 58 72 71
f 71 72 88
f 71 88 87
f 52 51 58
f 52 58 59
f 59 58 71
f 59 71 70
f 60 53 52
f 60 52 59
f 70 69 60
f 70 60 59
f 86 85 69
f 86 69 70
f 70 71 87
f 70 87 86
f 158 157 141
f 158 141 142
f 140 141 157
f 140 157 156
f 159 158 142
f 159 142 143
f 160 159 143
f 160 143 144
f 145 160 144
f 145 144 129
f 146 145 129
f 146 129 130
f 147 146 130
f 147 130 131
f 171 167 159
f 171 159 160
f 171 160 145
f 171 145 172
f 173 172 145
f 173 145 146
f 173 146 147
f 173 147 174
f 163 159 167
f 163 167 168
f 169 179 168
f 169 168 182
f 168 167 171
f 168 171 182
f 182 171 172
f 182 172 181
f 181 172 173
f 181 173 183
f 183 173 174
f 183 174 178
f 170 169 182
f 170 182 181
f 184 170 181
f 184 181 183
f 184 183 178
f 184 178 175
f 178 174 147
f 178 147 177
f 148 147 131
f 148 131 132
f 149 148 132
f 149 132 133
f 139 140 156
f 139 156 155
f 138 139 155
f 138 155 154
f 137 138 154
f 137 154 153
f 136 137 153
f 136 153 152
f 189 155 156
f 189 156 164
f 164 156 157
f 164 157 162
f 186 177 147
f 186 147 148
f 162 157 158
f 162 158 161
f 161 158 159
f 161 159 163
f 190 189 164
f 190 164 191
f 191 164 162
f 191 162 204
f 213 161 163
f 213 163 180
f 180 163 168
f 180 168 179
f 204 162 161
f 204 161 213
f 198 191 204
f 198 204 205
f 180 179 169
f 180 169 165
f 212 213 180
f 212 180 165
f 205 204 213
f 205 213 212
f 166 165 169
f 166 169 170
f 211 212 165
f 211 165 166
f 206 205 212
f 206 212 211
f 185 166 170
f 185 170 184
f 210 211 166
f 210 166 185
f 207 206 211
f 207 211 210
f 176 175 178
f 176 178 177
f 185 184 175
f 185 175 176
f 209 210 185
f 209 185 176
f 176 177 186
f 176 186 209
f 208 207 210
f 208 210 209
f 190 191 198
f 190 198 199
f 201 198 205
f 201 205 206
f 202 201 206
f 202 206 207
f 196 189 190
f 196 190 197
f 193 154 155
f 193 155 192
f 192 155 189
f 192 189 196
f 153 154 193
f 153 193 194
f 216 193 192
f 216 192 196
f 200 197 190
f 200 190 199
f 216 196 197
f 216 197 200
f 152 153 194
f 152 194 195
f 217 194 193
f 217 193 216
f 214 199 198
f 214 198 201
f 218 200 199
f 218 199 214
f 218 217 216
f 218 216 200
f 219 195 194
f 219 194 217
f 219 217 218
f 219 218 220
f 220 218 214
f 220 214 215
f 215 214 201
f 215 201 202
f 223 221 220
f 223 220 215
f 222 219 220
f 222 220 221
f 188 195 219
f 188 219 222
f 203 202 207
f 203 207 208
f 208 209 186
f 208 186 187
f 187 186 148
f 187 148 149
f 223 215 202
f 223 202 203
f 151 150 134
f 151 134 135
f 135 136 152
f 135 152 151
f 151 152 195
f 151 195 188
f 151 188 222
f 151 222 224
f 222 221 223
f 222 223 224
f 150 149 133
f 150 133 134
f 225 187 149
f 225 149 150
f 150 151 224
f 150 224 225
f 203 208 187
f 203 187 225
f 224 223 203
f 224 203 225
f 14 12 13
f 14 13 15
f 16 14 15
f 16 15 17
f 233 17 15
f 233 15 232
f 19 16 17
f 19 17 18
f 234 18 17
f 234 17 233
f 20 19 18
f 20 18 21
f 235 21 18
f 235 18 234
f 23 20 21
f 23 21 22
f 22 21 235
f 22 235 236
f 24 23 22
f 24 22 25
f 237 25 22
f 237 22 236
f 27 24 25
f 27 25 26
f 26 25 237
f 26 237 238
f 237 236 235
f 237 235 229
f 35 27 26
f 35 26 34
f 238 237 229
f 238 229 239
f 34 26 238
f 34 238 239
f 28 29 35
f 28 35 34
f 228 229 235
f 228 235 234
f 239 229 228
f 239 228 240
f 28 34 239
f 28 239 240
f 226 228 234
f 226 234 233
f 31 29 28
f 31 28 30
f 241 240 228
f 241 228 226
f 241 30 28
f 241 28 240
f 33 31 30
f 33 30 32
f 227 226 233
f 227 233 232
f 241 226 227
f 241 227 242
f 32 30 241
f 32 241 242
f 3 6 33
f 3 33 32
f 3 32 242
f 3 242 243
f 1 6 3
f 1 3 2
f 2 3 243
f 2 243 244
f 5 1 2
f 5 2 4
f 243 242 227
f 243 227 230
f 245 4 2
f 245 2 244
f 245 244 243
f 245 243 230
f 11 5 4
f 11 4 10
f 13 12 11
f 13 11 10
f 231 230 227
f 231 227 232
f 10 4 245
f 10 245 246
f 231 13 10
f 231 10 246
f 232 15 13
f 232 13 231
f 246 245 230
f 246 230 231
