# C1_Atlas rest
v 0.011906 0.256338 -0.000434
v 0.012615 0.257993 -0.000594
v 0.013795 0.258155 -0.001009
v 0.012681 0.255785 -0.000582
v 0.009957 0.256709 0.006050
v 0.014836 0.256174 0.003833
v 0.015011 0.258833 0.003540
v 0.009929 0.259267 0.005565
v 0.009962 0.255772 -0.000393
v 0.009973 0.254739 -0.000608
v 0.009984 0.253979 0.003449
v 0.014281 0.254003 0.002606
v 0.013862 0.261335 0.000001
v 0.009892 0.262397 0.000885
v 0.009895 0.262266 0.003382
v 0.014223 0.261812 0.001885
v 0.014788 0.260595 0.002954
v 0.009910 0.260990 0.004745
v 0.041237 0.251287 -0.014665
v 0.040423 0.249562 -0.013989
v 0.042138 0.248590 -0.016679
v 0.043305 0.250269 -0.016635
v 0.052316 0.252934 -0.016511
v 0.053728 0.254137 -0.012641
v 0.051127 0.253716 -0.012650
v 0.050106 0.252206 -0.017277
v 0.019533 0.254289 0.001725
v 0.020341 0.258135 0.001891
v 0.018634 0.252739 0.000525
v 0.039030 0.247971 -0.012902
v 0.039591 0.246662 -0.015099
v 0.024784 0.246143 -0.008400
v 0.023502 0.246538 -0.008477
v 0.023620 0.246190 -0.010472
v 0.024552 0.245706 -0.010109
v 0.024131 0.250648 -0.001535
v 0.025040 0.253427 -0.000502
v 0.022300 0.250039 -0.002991
v 0.055749 0.255203 -0.012677
v 0.054243 0.256104 -0.009589
v 0.052260 0.255890 -0.008701
v 0.019299 0.260558 0.001594
v 0.048936 0.252367 -0.015470
v 0.049470 0.254230 -0.012593
v 0.048427 0.254908 -0.012568
v 0.048011 0.254123 -0.014181
v 0.039551 0.250396 -0.011692
v 0.038794 0.248870 -0.010740
v 0.023985 0.248812 -0.010510
v 0.023255 0.249407 -0.008125
v 0.038272 0.250184 -0.008069
v 0.037384 0.248796 -0.008009
v 0.037760 0.247892 -0.010081
v 0.035992 0.242971 -0.013489
v 0.035990 0.243093 -0.010690
v 0.034382 0.244310 -0.012040
v 0.034572 0.243728 -0.014163
v 0.037222 0.244376 -0.013713
v 0.037039 0.245752 -0.010726
v 0.034844 0.243789 -0.008167
v 0.033328 0.244961 -0.009803
v 0.036273 0.247060 -0.007971
v 0.036532 0.251786 -0.005166
v 0.035705 0.249985 -0.005396
v 0.033095 0.253036 -0.003139
v 0.032799 0.250990 -0.003435
v 0.034250 0.261284 -0.003890
v 0.028913 0.261829 -0.000556
v 0.028872 0.257202 -0.000994
v 0.033504 0.256173 -0.003267
v 0.028940 0.253995 -0.001289
v 0.028812 0.251825 -0.001807
v 0.033409 0.243603 -0.017719
v 0.035048 0.243079 -0.016011
v 0.034320 0.243494 -0.015717
v 0.032928 0.244008 -0.016895
v 0.036362 0.243464 -0.016700
v 0.034397 0.243808 -0.018738
v 0.028647 0.249888 -0.002622
v 0.028955 0.246069 -0.004437
v 0.031087 0.245310 -0.004978
v 0.032236 0.248964 -0.003907
v 0.027427 0.246166 -0.008954
v 0.026699 0.246442 -0.007855
v 0.031621 0.244450 -0.018525
v 0.031496 0.244594 -0.017807
v 0.032142 0.244902 -0.019584
v 0.030619 0.245971 -0.006590
v 0.028725 0.246336 -0.006165
v 0.030170 0.244953 -0.017518
v 0.029664 0.245059 -0.018438
v 0.029913 0.245941 -0.019220
v 0.034742 0.248410 -0.005670
v 0.032979 0.244633 -0.005993
v 0.032048 0.245557 -0.007606
v 0.027751 0.245097 -0.016070
v 0.027080 0.245283 -0.017177
v 0.027763 0.246720 -0.017749
v 0.028373 0.245998 -0.010180
v 0.024883 0.245541 -0.011743
v 0.024017 0.246092 -0.012477
v 0.024568 0.248391 -0.012785
v 0.024840 0.246759 -0.005843
v 0.023905 0.246723 -0.007053
v 0.025026 0.246382 -0.007364
v 0.025803 0.246583 -0.006737
v 0.021695 0.250754 -0.005235
v 0.025577 0.245251 -0.013622
v 0.029705 0.245726 -0.011993
v 0.026705 0.246543 -0.006081
v 0.026094 0.246561 -0.005017
v 0.024747 0.245643 -0.014617
v 0.025350 0.247591 -0.015081
v 0.031265 0.245257 -0.014117
v 0.032446 0.244570 -0.015830
v 0.026191 0.251149 -0.016191
v 0.025285 0.252282 -0.013571
v 0.026116 0.255162 -0.000379
v 0.037577 0.254754 -0.004643
v 0.023202 0.262263 0.000943
v 0.024289 0.257988 0.000435
v 0.021965 0.263895 -0.003648
v 0.022066 0.264590 -0.001692
v 0.023728 0.264102 -0.002664
v 0.023542 0.263811 -0.003515
v 0.012836 0.240791 -0.046117
v 0.010080 0.240739 -0.045247
v 0.010057 0.243174 -0.044971
v 0.011659 0.242921 -0.045544
v 0.017705 0.253129 -0.001154
v 0.011990 0.260092 -0.000608
v 0.012817 0.260729 -0.000612
v 0.013035 0.239310 -0.045501
v 0.010096 0.239008 -0.044924
v 0.013933 0.253785 0.001098
v 0.012320 0.238157 -0.044643
v 0.010107 0.237819 -0.044550
v 0.009989 0.253406 0.001107
v 0.013156 0.238108 -0.042578
v 0.010112 0.237400 -0.042764
v 0.013677 0.255165 -0.000138
v 0.009982 0.253970 -0.000049
v 0.014515 0.238935 -0.040221
v 0.010108 0.237876 -0.040562
v 0.017255 0.255437 -0.001310
v 0.014510 0.239534 -0.043242
v 0.014386 0.241148 -0.043746
v 0.015646 0.242726 -0.042180
v 0.015944 0.240334 -0.041578
v 0.014857 0.258407 -0.001011
v 0.017235 0.258275 -0.002052
v 0.009936 0.258233 -0.000277
v 0.013450 0.239583 -0.038233
v 0.010097 0.239098 -0.038563
v 0.017189 0.240102 -0.038564
v 0.016561 0.240857 -0.036936
v 0.017266 0.260345 -0.001286
v 0.021238 0.241561 -0.036907
v 0.020555 0.242338 -0.035054
v 0.009908 0.260781 -0.000430
v 0.017718 0.241039 -0.040364
v 0.009897 0.261797 -0.000265
v 0.021686 0.242449 -0.038347
v 0.017334 0.261472 0.000583
v 0.017797 0.243156 -0.040712
v 0.014459 0.245274 -0.040199
v 0.017088 0.245450 -0.039115
v 0.021866 0.244350 -0.038500
v 0.021123 0.246376 -0.037210
v 0.024631 0.264124 -0.002081
v 0.027242 0.263856 -0.002836
v 0.025847 0.263453 -0.003969
v 0.028583 0.263536 -0.000707
v 0.023987 0.263333 0.000097
v 0.031531 0.264195 -0.006466
v 0.029391 0.262791 -0.007937
v 0.032810 0.265161 -0.005371
v 0.027955 0.264640 -0.001334
v 0.033740 0.263621 -0.004475
v 0.026461 0.245859 -0.035968
v 0.025717 0.248109 -0.034669
v 0.020306 0.246087 -0.034931
v 0.024475 0.247779 -0.033036
v 0.020209 0.244263 -0.034004
v 0.023962 0.245534 -0.032074
v 0.024421 0.243536 -0.032861
v 0.025694 0.262466 -0.010515
v 0.025216 0.260764 -0.010738
v 0.022960 0.261602 -0.006836
v 0.023419 0.263220 -0.006466
v 0.027244 0.262482 -0.009632
v 0.024920 0.263206 -0.005588
v 0.031626 0.262000 -0.011995
v 0.029215 0.261704 -0.012838
v 0.027571 0.261638 -0.013533
v 0.026806 0.259809 -0.013852
v 0.025608 0.242773 -0.034556
v 0.026317 0.243885 -0.035803
v 0.020208 0.260744 -0.003230
v 0.021349 0.262229 -0.003437
v 0.022431 0.259861 -0.007274
v 0.029044 0.249218 -0.032640
v 0.027172 0.249537 -0.030890
v 0.033896 0.263241 -0.011187
v 0.036350 0.261097 -0.009336
v 0.036395 0.262993 -0.009851
v 0.030453 0.247288 -0.034285
v 0.030463 0.245278 -0.033877
v 0.035121 0.260851 -0.016040
v 0.032794 0.260206 -0.016413
v 0.038019 0.259374 -0.014180
v 0.037945 0.260882 -0.014804
v 0.029430 0.243944 -0.032547
v 0.027408 0.244505 -0.030704
v 0.030506 0.259981 -0.016487
v 0.028765 0.259963 -0.016755
v 0.027815 0.258507 -0.017065
v 0.026674 0.247338 -0.029807
v 0.030638 0.258290 -0.020636
v 0.033782 0.259015 -0.020208
v 0.028920 0.258041 -0.021092
v 0.028648 0.256513 -0.021075
v 0.033759 0.249669 -0.031669
v 0.033395 0.247223 -0.031430
v 0.032308 0.245430 -0.030357
v 0.029847 0.245570 -0.028202
v 0.036970 0.259835 -0.019945
v 0.040634 0.258185 -0.018203
v 0.039882 0.259804 -0.018642
v 0.034632 0.246382 -0.028183
v 0.035477 0.248597 -0.029144
v 0.038119 0.259847 -0.022900
v 0.035740 0.258915 -0.023865
v 0.039761 0.260487 -0.022409
v 0.038571 0.260526 -0.019365
v 0.041211 0.259400 -0.021792
v 0.027990 0.249596 -0.019102
v 0.026703 0.254281 -0.017262
v 0.025343 0.255562 -0.014178
v 0.032958 0.257915 -0.024389
v 0.028017 0.254828 -0.021204
v 0.031157 0.256285 -0.026308
v 0.031245 0.255143 -0.026192
v 0.031636 0.245520 -0.026184
v 0.029750 0.247408 -0.021257
v 0.035421 0.259014 -0.028092
v 0.034905 0.257479 -0.028669
v 0.031563 0.257510 -0.025556
v 0.037785 0.259410 -0.026746
v 0.035890 0.258979 -0.026593
v 0.028174 0.252318 -0.020598
v 0.029618 0.249316 -0.023840
v 0.038807 0.259679 -0.025353
v 0.040308 0.260241 -0.025776
v 0.041572 0.259003 -0.025830
v 0.029027 0.250985 -0.025491
v 0.038650 0.259918 -0.028604
v 0.039064 0.258254 -0.028627
v 0.029990 0.252729 -0.027553
v 0.032146 0.252025 -0.029950
v 0.027117 0.256740 -0.017330
v 0.035828 0.251339 -0.029399
v 0.049626 0.255736 -0.008093
v 0.034909 0.255676 -0.028122
v 0.038358 0.255097 -0.026961
v 0.038770 0.251886 -0.027197
v 0.032368 0.245141 -0.022405
v 0.042393 0.252486 -0.024637
v 0.041330 0.255939 -0.024699
v 0.038523 0.245097 -0.024250
v 0.036324 0.244111 -0.021319
v 0.044916 0.253831 -0.021318
v 0.041950 0.257322 -0.021464
v 0.044450 0.256019 -0.018299
v 0.043834 0.252627 -0.016566
v 0.041548 0.253357 -0.015393
v 0.038871 0.244126 -0.018393
v 0.039367 0.257282 -0.012866
v 0.041696 0.255341 -0.016237
v 0.044272 0.254606 -0.016799
v 0.038985 0.258660 -0.008578
v 0.046628 0.250717 -0.017039
v 0.046276 0.253114 -0.015769
v 0.037400 0.258353 -0.004788
v 0.041493 0.245845 -0.020916
v 0.039148 0.246917 -0.025925
v 0.042156 0.255520 -0.005952
v 0.041974 0.257910 -0.005713
v 0.042086 0.258754 -0.007449
v 0.043032 0.247996 -0.023239
v 0.046656 0.249989 -0.020155
v 0.041046 0.255662 -0.010647
v 0.040780 0.254563 -0.013004
v 0.042812 0.256701 -0.009304
v 0.048628 0.254704 -0.009561
v 0.046699 0.251689 -0.021771
v 0.043116 0.250033 -0.024516
v 0.047086 0.256669 -0.016765
v 0.048705 0.255411 -0.018199
v 0.049732 0.253334 -0.018866
v 0.039205 0.249127 -0.026696
v 0.019784 0.262026 -0.000475
v 0.021265 0.263195 -0.001153
v 0.054122 0.257998 -0.009078
v 0.056036 0.257216 -0.012545
v 0.051480 0.258414 -0.007834
v 0.054502 0.254041 -0.015552
v 0.054588 0.255666 -0.015941
v 0.053436 0.257534 -0.015360
v 0.054490 0.259166 -0.012770
v 0.053568 0.259481 -0.009952
v 0.019477 0.257652 -0.003800
v 0.022244 0.256876 -0.007603
v 0.052076 0.254593 -0.017295
v 0.020256 0.254565 -0.004338
v 0.022768 0.253681 -0.008029
v 0.046283 0.255261 -0.015549
v 0.024356 0.252960 -0.010995
v 0.024085 0.256234 -0.011163
v 0.047531 0.256375 -0.013688
v 0.024284 0.259093 -0.011129
v 0.047935 0.257322 -0.012102
v 0.050745 0.257340 -0.015650
v 0.025707 0.258090 -0.014278
v 0.048326 0.257962 -0.014250
v 0.051803 0.259476 -0.012334
v 0.051471 0.259823 -0.009258
v 0.016402 0.244785 -0.036766
v 0.016213 0.242861 -0.035812
v 0.013217 0.244022 -0.038073
v 0.013014 0.241938 -0.037043
v 0.049264 0.259322 -0.011871
v 0.010046 0.244550 -0.039109
v 0.012331 0.245648 -0.041073
v 0.010073 0.241783 -0.037489
v 0.047923 0.255053 -0.010729
v 0.047371 0.257380 -0.010714
v 0.048482 0.259858 -0.009346
v 0.013573 0.244381 -0.042612
v 0.011400 0.246127 -0.042652
v 0.010027 0.246504 -0.042296
v 0.012210 0.244632 -0.044246
v 0.049148 0.258397 -0.007362
v 0.010038 0.245335 -0.044187
v 0.045434 0.257331 -0.009355
v 0.045621 0.259481 -0.007758
v 0.039404 0.252113 -0.008360
v 0.042686 0.253959 -0.007686
v 0.040567 0.252129 -0.012507
v 0.040905 0.252986 -0.010370
v 0.043138 0.254416 -0.009102
v 0.045733 0.254992 -0.009341
v 0.045931 0.254624 -0.008261
v 0.046038 0.255960 -0.006964
v 0.046001 0.258284 -0.006664
v 0.024188 0.264655 -0.000615
v 0.035422 0.264148 -0.010650
v 0.036691 0.261598 -0.015572
v 0.008006 0.256296 -0.000428
v 0.007243 0.255726 -0.000574
v 0.006078 0.258072 -0.000997
v 0.007262 0.257935 -0.000585
v 0.004854 0.258723 0.003556
v 0.005087 0.256069 0.003849
v 0.005687 0.253910 0.002620
v 0.005943 0.261250 0.000014
v 0.005576 0.261719 0.001899
v 0.005038 0.260490 0.002970
v -0.021254 0.250623 -0.014631
v -0.023297 0.249560 -0.016596
v -0.022097 0.247903 -0.016643
v -0.020412 0.248913 -0.013954
v -0.032359 0.252028 -0.016450
v -0.030137 0.251348 -0.017222
v -0.031182 0.252832 -0.012587
v -0.033787 0.253202 -0.012571
v 0.000421 0.254083 0.001756
v -0.000462 0.257912 0.001925
v 0.001348 0.252552 0.000552
v -0.019541 0.246026 -0.015079
v -0.019006 0.247353 -0.012871
v -0.004686 0.245825 -0.008383
v -0.004449 0.245387 -0.010086
v -0.003518 0.245896 -0.010451
v -0.003408 0.246250 -0.008446
v -0.004120 0.250341 -0.001505
v -0.005075 0.253102 -0.000460
v -0.002275 0.249772 -0.002961
v -0.035821 0.254226 -0.012603
v -0.032348 0.254983 -0.008627
v -0.034334 0.255159 -0.009513
v 0.000527 0.260356 0.001624
v -0.028968 0.251535 -0.015417
v -0.028078 0.253307 -0.014127
v -0.028507 0.254082 -0.012512
v -0.029537 0.253380 -0.012534
v -0.019551 0.249761 -0.011655
v -0.018781 0.248256 -0.010702
v -0.003933 0.248503 -0.010474
v -0.003216 0.249120 -0.008084
v -0.017716 0.247304 -0.010045
v -0.017337 0.248208 -0.007970
v -0.018250 0.249572 -0.008029
v -0.015831 0.242412 -0.013460
v -0.014425 0.243199 -0.014140
v -0.014233 0.243787 -0.012013
v -0.015812 0.242540 -0.010663
v -0.016941 0.245187 -0.010692
v -0.017115 0.243796 -0.013691
v -0.013195 0.244463 -0.009772
v -0.014684 0.243260 -0.008139
v -0.016192 0.246502 -0.007934
v -0.016538 0.251207 -0.005120
v -0.015672 0.249430 -0.005354
v -0.013123 0.252537 -0.003088
v -0.012787 0.250501 -0.003383
v -0.014449 0.260755 -0.003830
v -0.013596 0.255661 -0.003212
v -0.008980 0.256795 -0.000943
v -0.009112 0.261421 -0.000501
v -0.008816 0.251420 -0.001759
v -0.008985 0.253587 -0.001240
v -0.013276 0.243110 -0.017697
v -0.012799 0.243523 -0.016872
v -0.014179 0.242973 -0.015694
v -0.014902 0.242542 -0.015992
v -0.016246 0.242890 -0.016698
v -0.014284 0.243286 -0.018732
v -0.008617 0.249487 -0.002580
v -0.012185 0.248486 -0.003850
v -0.010959 0.244859 -0.004936
v -0.008910 0.245786 -0.004404
v -0.006612 0.246085 -0.007817
v -0.007338 0.245789 -0.008911
v -0.011500 0.243992 -0.018501
v -0.011378 0.244140 -0.017785
v -0.012035 0.244433 -0.019561
v -0.010506 0.245530 -0.006553
v -0.008632 0.245946 -0.006126
v -0.009552 0.244645 -0.018422
v -0.010054 0.244528 -0.017504
v -0.009825 0.245519 -0.019205
v -0.014679 0.247879 -0.005629
v -0.012842 0.244147 -0.005953
v -0.011935 0.245089 -0.007558
v -0.007638 0.244721 -0.016056
v -0.006973 0.244924 -0.017163
v -0.007684 0.246344 -0.017735
v -0.008276 0.245598 -0.010139
v -0.004778 0.245212 -0.011711
v -0.003920 0.245792 -0.012455
v -0.004517 0.248090 -0.012763
v -0.004746 0.246453 -0.005813
v -0.005695 0.246257 -0.006714
v -0.004920 0.246065 -0.007347
v -0.003812 0.246427 -0.007024
v -0.001682 0.250505 -0.005199
v -0.009592 0.245302 -0.011968
v -0.005459 0.244908 -0.013603
v -0.006056 0.246344 -0.004975
v -0.006616 0.246219 -0.006055
v -0.005286 0.247275 -0.015067
v -0.004643 0.245331 -0.014602
v -0.011146 0.244807 -0.014099
v -0.012319 0.244092 -0.015812
v -0.006203 0.250815 -0.016176
v -0.005316 0.251968 -0.013548
v -0.006185 0.254813 -0.000334
v -0.017642 0.254142 -0.004589
v -0.004413 0.257678 0.000480
v -0.003413 0.261978 0.000986
v -0.002218 0.263641 -0.003611
v -0.003793 0.263534 -0.003473
v -0.003984 0.263817 -0.002620
v -0.002331 0.264330 -0.001652
v 0.007319 0.240743 -0.046110
v 0.008459 0.242885 -0.045541
v 0.002270 0.252962 -0.001129
v 0.007001 0.260666 -0.000603
v 0.007841 0.260047 -0.000601
v 0.007147 0.239259 -0.045492
v 0.006038 0.253700 0.001111
v 0.007886 0.238113 -0.044636
v 0.007052 0.238025 -0.042571
v 0.006261 0.255086 -0.000126
v 0.005679 0.238805 -0.040216
v 0.002677 0.255280 -0.001287
v 0.005669 0.239433 -0.043233
v 0.005763 0.241056 -0.043738
v 0.004474 0.242594 -0.042172
v 0.004221 0.240180 -0.041569
v 0.002635 0.258118 -0.002029
v 0.005011 0.258301 -0.000995
v 0.006735 0.239468 -0.038230
v 0.003601 0.240690 -0.036934
v 0.002985 0.239944 -0.038560
v 0.002560 0.260187 -0.001262
v -0.001088 0.241326 -0.036899
v -0.000418 0.242107 -0.035047
v 0.002435 0.240850 -0.040355
v -0.001556 0.242188 -0.038333
v 0.002470 0.261312 0.000607
v 0.002314 0.242974 -0.040698
v 0.005617 0.245163 -0.040191
v 0.002983 0.245267 -0.039102
v -0.001774 0.244087 -0.038479
v -0.001070 0.246118 -0.037191
v -0.006090 0.263128 -0.003921
v -0.007491 0.263495 -0.002783
v -0.004886 0.263818 -0.002034
v -0.004222 0.263029 0.000143
v -0.008818 0.263136 -0.000651
v -0.011793 0.263746 -0.006417
v -0.009626 0.262399 -0.007893
v -0.013090 0.264675 -0.005316
v -0.013988 0.263110 -0.004414
v -0.008217 0.264255 -0.001279
v -0.006387 0.245504 -0.035934
v -0.005686 0.247768 -0.034644
v -0.004436 0.247458 -0.033014
v -0.000244 0.245822 -0.034911
v -0.003876 0.245226 -0.032049
v -0.000109 0.244010 -0.033991
v -0.004299 0.243222 -0.032839
v -0.005927 0.262167 -0.010479
v -0.003662 0.262954 -0.006429
v -0.003169 0.261333 -0.006796
v -0.005413 0.260464 -0.010703
v -0.007475 0.262145 -0.009593
v -0.005162 0.262910 -0.005544
v -0.011850 0.261545 -0.011957
v -0.009434 0.261304 -0.012803
v -0.007790 0.261274 -0.013501
v -0.006988 0.259459 -0.013822
v -0.005472 0.242438 -0.034531
v -0.006204 0.243532 -0.035773
v -0.000392 0.260524 -0.003197
v -0.002603 0.259600 -0.007234
v -0.001565 0.261983 -0.003400
v -0.009026 0.248822 -0.032617
v -0.007160 0.249188 -0.030873
v -0.014144 0.262735 -0.011146
v -0.016636 0.262428 -0.009804
v -0.016554 0.260531 -0.009286
v -0.010397 0.246854 -0.034251
v -0.010366 0.244838 -0.033837
v -0.012987 0.259717 -0.016383
v -0.015327 0.260316 -0.016009
v -0.018149 0.260285 -0.014770
v -0.018194 0.258777 -0.014144
v -0.009306 0.243523 -0.032513
v -0.007295 0.244131 -0.030679
v -0.010694 0.259540 -0.016458
v -0.007975 0.258132 -0.017043
v -0.008954 0.259563 -0.016729
v -0.006615 0.246996 -0.029786
v -0.010798 0.257859 -0.020621
v -0.013956 0.258514 -0.020188
v -0.008772 0.256132 -0.021066
v -0.009075 0.257647 -0.021081
v -0.013746 0.249165 -0.031636
v -0.013329 0.246714 -0.031388
v -0.012207 0.244937 -0.030322
v -0.009752 0.245144 -0.028181
v -0.017159 0.259263 -0.019922
v -0.020069 0.259162 -0.018613
v -0.020789 0.257524 -0.018175
v -0.014551 0.245839 -0.028148
v -0.015437 0.248042 -0.029100
v -0.015916 0.258378 -0.023851
v -0.018313 0.259253 -0.022881
v -0.019967 0.259853 -0.022384
v -0.021393 0.258733 -0.021764
v -0.018774 0.259917 -0.019337
v -0.007972 0.249227 -0.019096
v -0.006782 0.253934 -0.017246
v -0.005441 0.255240 -0.014152
v -0.013114 0.257440 -0.024380
v -0.008105 0.254462 -0.021195
v -0.011347 0.254724 -0.026189
v -0.011283 0.255885 -0.026309
v -0.011538 0.245054 -0.026161
v -0.009693 0.246997 -0.021252
v -0.015605 0.258461 -0.028074
v -0.011713 0.257078 -0.025552
v -0.015058 0.256957 -0.028656
v -0.017974 0.258806 -0.026726
v -0.016070 0.258404 -0.026572
v -0.008216 0.251948 -0.020595
v -0.009599 0.248912 -0.023832
v -0.019000 0.259062 -0.025333
v -0.020513 0.259592 -0.025753
v -0.021751 0.258328 -0.025806
v -0.009041 0.250600 -0.025479
v -0.018851 0.259297 -0.028582
v -0.019231 0.257630 -0.028606
v -0.010042 0.252326 -0.027541
v -0.012183 0.251564 -0.029928
v -0.007242 0.256382 -0.017311
v -0.015847 0.250787 -0.029364
v -0.029713 0.254876 -0.008023
v -0.015022 0.255147 -0.028104
v -0.018797 0.251265 -0.027157
v -0.018454 0.254483 -0.026930
v -0.012265 0.244665 -0.022384
v -0.022431 0.251790 -0.024593
v -0.021440 0.255263 -0.024666
v -0.016225 0.243544 -0.021324
v -0.018417 0.244486 -0.024220
v -0.024981 0.253083 -0.021272
v -0.022090 0.256634 -0.021437
v -0.024560 0.255269 -0.018256
v -0.021604 0.252681 -0.015358
v -0.023873 0.251899 -0.016524
v -0.018781 0.243503 -0.018395
v -0.021791 0.254656 -0.016201
v -0.019498 0.256652 -0.012825
v -0.024352 0.253859 -0.016756
v -0.019136 0.258033 -0.008525
v -0.026323 0.252337 -0.015721
v -0.026626 0.249938 -0.016994
v -0.017540 0.257745 -0.004729
v -0.021402 0.245168 -0.020885
v -0.019076 0.246288 -0.025887
v -0.022107 0.257201 -0.005648
v -0.022239 0.254800 -0.005890
v -0.022239 0.258058 -0.007387
v -0.022980 0.247288 -0.023197
v -0.026641 0.249208 -0.020109
v -0.020854 0.253899 -0.012962
v -0.021138 0.254985 -0.010597
v -0.022924 0.255985 -0.009246
v -0.028699 0.253866 -0.009498
v -0.026719 0.250905 -0.021721
v -0.023104 0.249322 -0.024471
v -0.028802 0.254584 -0.018145
v -0.027208 0.255870 -0.016716
v -0.029785 0.252485 -0.018810
v -0.019177 0.248497 -0.026656
v 0.000007 0.261813 -0.000443
v -0.001499 0.262951 -0.001116
v -0.034248 0.257057 -0.008997
v -0.036146 0.256236 -0.012468
v -0.031615 0.257523 -0.007754
v -0.034676 0.254714 -0.015873
v -0.034558 0.253089 -0.015484
v -0.034644 0.258221 -0.012695
v -0.033564 0.256609 -0.015292
v -0.033724 0.258554 -0.009872
v 0.000404 0.257448 -0.003769
v -0.002359 0.256616 -0.007564
v -0.032151 0.253694 -0.017233
v -0.000316 0.254344 -0.004302
v -0.002818 0.253409 -0.007990
v -0.026375 0.254477 -0.015500
v -0.004395 0.252658 -0.010963
v -0.004192 0.255941 -0.011129
v -0.027642 0.255565 -0.013633
v -0.004451 0.258803 -0.011093
v -0.028061 0.256505 -0.012041
v -0.030874 0.256470 -0.015591
v -0.005857 0.257762 -0.014252
v -0.028468 0.257138 -0.014193
v -0.031965 0.258583 -0.012263
v -0.031635 0.258938 -0.009179
v 0.003685 0.244587 -0.036755
v 0.003910 0.242666 -0.035805
v 0.006886 0.243927 -0.038068
v 0.007129 0.241835 -0.037040
v -0.029426 0.258479 -0.011804
v 0.007739 0.245582 -0.041072
v -0.028003 0.254234 -0.010669
v -0.027497 0.256571 -0.010650
v -0.028651 0.259031 -0.009273
v 0.006519 0.244286 -0.042608
v 0.008661 0.246087 -0.042651
v 0.007877 0.244578 -0.044243
v -0.029285 0.257550 -0.007286
v -0.025783 0.258711 -0.007688
v -0.025559 0.256559 -0.009291
v -0.022739 0.253234 -0.007630
v -0.019420 0.251471 -0.008315
v -0.020943 0.252316 -0.010324
v -0.020593 0.251474 -0.012469
v -0.023202 0.253693 -0.009048
v -0.025811 0.254216 -0.009281
v -0.025999 0.253833 -0.008200
v -0.026131 0.255163 -0.006897
v -0.026138 0.257495 -0.006592
v -0.004453 0.264349 -0.000569
v -0.015688 0.263607 -0.010606
v -0.016911 0.261030 -0.015539
f 1 2 3
f 1 3 4
f 5 6 7
f 5 7 8
f 9 1 4
f 9 4 10
f 5 11 12
f 5 12 6
f 13 14 15
f 13 15 16
f 8 7 17
f 8 17 18
f 19 20 21
f 19 21 22
f 23 24 25
f 23 25 26
f 27 28 7
f 27 7 6
f 6 12 29
f 6 29 27
f 21 20 30
f 21 30 31
f 32 33 34
f 32 34 35
f 36 37 28
f 36 28 27
f 36 27 29
f 36 29 38
f 39 40 41
f 39 41 24
f 28 42 17
f 28 17 7
f 43 44 45
f 43 45 46
f 47 48 30
f 47 30 20
f 49 34 33
f 49 33 50
f 48 51 52
f 48 52 53
f 54 55 56
f 54 56 57
f 55 54 58
f 55 58 59
f 55 60 61
f 55 61 56
f 60 55 59
f 60 59 62
f 63 64 52
f 63 52 51
f 65 66 64
f 65 64 63
f 67 68 69
f 67 69 70
f 65 71 72
f 65 72 66
f 73 74 75
f 73 75 76
f 77 74 73
f 77 73 78
f 54 57 75
f 54 75 74
f 58 54 74
f 58 74 77
f 79 80 81
f 79 81 82
f 35 83 84
f 35 84 32
f 85 73 76
f 85 76 86
f 78 73 85
f 78 85 87
f 88 89 84
f 88 84 83
f 81 80 89
f 81 89 88
f 85 86 90
f 85 90 91
f 87 85 91
f 87 91 92
f 93 82 81
f 93 81 94
f 94 81 88
f 94 88 95
f 96 97 91
f 96 91 90
f 92 91 97
f 92 97 98
f 95 88 83
f 95 83 99
f 100 99 83
f 100 83 35
f 101 100 35
f 101 35 34
f 34 49 102
f 34 102 101
f 103 104 105
f 103 105 106
f 38 107 104
f 38 104 103
f 33 32 105
f 33 105 104
f 107 50 33
f 107 33 104
f 100 108 109
f 100 109 99
f 84 106 105
f 84 105 32
f 61 95 99
f 61 99 109
f 62 93 94
f 62 94 60
f 60 94 95
f 60 95 61
f 103 106 110
f 103 110 111
f 89 110 106
f 89 106 84
f 111 110 89
f 111 89 80
f 98 97 112
f 98 112 113
f 113 112 101
f 113 101 102
f 56 61 109
f 56 109 114
f 56 114 115
f 56 115 57
f 108 100 101
f 108 101 112
f 57 115 76
f 57 76 75
f 116 113 102
f 116 102 117
f 90 86 76
f 90 76 115
f 37 72 71
f 37 71 118
f 96 90 115
f 96 115 114
f 63 119 70
f 63 70 65
f 68 120 121
f 68 121 69
f 109 108 96
f 109 96 114
f 97 96 108
f 97 108 112
f 122 123 124
f 122 124 125
f 111 36 38
f 111 38 103
f 126 127 128
f 126 128 129
f 107 38 29
f 107 29 130
f 2 131 132
f 2 132 3
f 36 111 80
f 36 80 79
f 126 133 134
f 126 134 127
f 12 135 130
f 12 130 29
f 133 136 137
f 133 137 134
f 11 138 135
f 11 135 12
f 139 140 137
f 139 137 136
f 141 135 138
f 141 138 142
f 143 144 140
f 143 140 139
f 135 141 145
f 135 145 130
f 139 136 133
f 139 133 146
f 146 133 126
f 146 126 147
f 148 149 146
f 148 146 147
f 141 150 151
f 141 151 145
f 141 142 10
f 141 10 4
f 150 141 4
f 150 4 3
f 143 139 146
f 143 146 149
f 2 1 9
f 2 9 152
f 143 153 154
f 143 154 144
f 153 143 155
f 153 155 156
f 150 3 132
f 150 132 13
f 13 157 151
f 13 151 150
f 158 159 156
f 158 156 155
f 2 152 160
f 2 160 131
f 143 149 161
f 143 161 155
f 13 132 162
f 13 162 14
f 161 163 158
f 161 158 155
f 157 13 16
f 157 16 164
f 148 165 161
f 148 161 149
f 166 167 165
f 166 165 148
f 165 168 163
f 165 163 161
f 168 165 167
f 168 167 169
f 124 170 171
f 124 171 172
f 120 68 173
f 120 173 174
f 175 176 172
f 175 172 171
f 177 178 173
f 177 173 179
f 180 168 169
f 180 169 181
f 181 169 182
f 181 182 183
f 183 182 184
f 183 184 185
f 186 185 184
f 186 184 159
f 187 188 189
f 187 189 190
f 191 192 172
f 191 172 176
f 193 194 191
f 193 191 176
f 195 196 188
f 195 188 187
f 158 197 186
f 158 186 159
f 163 198 197
f 163 197 158
f 199 200 189
f 199 189 201
f 124 172 192
f 124 192 125
f 168 180 198
f 168 198 163
f 202 181 183
f 202 183 203
f 175 204 193
f 175 193 176
f 67 205 206
f 67 206 179
f 207 180 181
f 207 181 202
f 208 198 180
f 208 180 207
f 204 209 210
f 204 210 193
f 205 211 212
f 205 212 206
f 208 213 197
f 208 197 198
f 213 214 186
f 213 186 197
f 210 215 194
f 210 194 193
f 195 216 217
f 195 217 196
f 185 218 203
f 185 203 183
f 214 218 185
f 214 185 186
f 219 215 210
f 219 210 220
f 216 221 222
f 216 222 217
f 223 224 208
f 223 208 207
f 225 226 214
f 225 214 213
f 227 220 210
f 227 210 209
f 211 228 229
f 211 229 212
f 208 224 225
f 208 225 213
f 230 225 224
f 230 224 231
f 220 227 232
f 220 232 233
f 234 235 229
f 234 229 236
f 113 116 237
f 113 237 98
f 238 116 117
f 238 117 239
f 219 220 233
f 219 233 240
f 241 222 242
f 241 242 243
f 230 244 226
f 230 226 225
f 245 92 98
f 245 98 237
f 246 247 242
f 246 242 248
f 249 250 240
f 249 240 233
f 251 237 116
f 251 116 238
f 252 245 237
f 252 237 251
f 249 233 232
f 249 232 253
f 254 234 236
f 254 236 255
f 256 218 214
f 256 214 226
f 257 258 247
f 257 247 246
f 256 226 244
f 256 244 252
f 256 259 203
f 256 203 218
f 259 260 202
f 259 202 203
f 261 241 251
f 261 251 238
f 241 243 259
f 241 259 256
f 241 256 252
f 241 252 251
f 260 223 207
f 260 207 202
f 224 223 262
f 224 262 231
f 24 41 263
f 24 263 25
f 264 260 259
f 264 259 243
f 264 265 266
f 264 266 262
f 264 262 223
f 264 223 260
f 267 245 252
f 267 252 244
f 267 87 92
f 267 92 245
f 257 254 255
f 257 255 258
f 268 266 265
f 268 265 269
f 267 244 270
f 267 270 271
f 272 268 269
f 272 269 273
f 267 271 78
f 267 78 87
f 272 273 228
f 272 228 274
f 22 275 276
f 22 276 19
f 58 77 277
f 58 277 31
f 228 211 278
f 228 278 279
f 228 279 280
f 228 280 274
f 277 77 78
f 277 78 271
f 211 205 281
f 211 281 278
f 22 282 283
f 22 283 275
f 67 284 281
f 67 281 205
f 282 43 46
f 282 46 283
f 277 271 270
f 277 270 285
f 190 122 125
f 190 125 192
f 187 190 192
f 187 192 191
f 31 277 285
f 31 285 21
f 230 286 270
f 230 270 244
f 284 119 287
f 284 287 288
f 284 288 289
f 284 289 281
f 285 270 286
f 285 286 290
f 291 282 22
f 291 22 21
f 281 292 293
f 281 293 278
f 281 289 294
f 281 294 292
f 291 21 285
f 291 285 290
f 278 293 276
f 278 276 279
f 291 26 43
f 291 43 282
f 295 44 25
f 295 25 263
f 26 25 44
f 26 44 43
f 296 297 268
f 296 268 272
f 272 274 298
f 272 298 299
f 272 299 300
f 272 300 296
f 301 231 262
f 301 262 266
f 266 268 297
f 266 297 301
f 286 230 231
f 286 231 301
f 290 286 301
f 290 301 297
f 302 120 174
f 302 174 303
f 302 303 200
f 302 200 199
f 304 40 39
f 304 39 305
f 306 41 40
f 306 40 304
f 120 302 164
f 120 164 42
f 199 157 164
f 199 164 302
f 305 39 307
f 305 307 308
f 36 79 72
f 36 72 37
f 305 308 309
f 305 309 310
f 304 305 310
f 304 310 311
f 199 312 151
f 199 151 157
f 313 312 199
f 313 199 201
f 307 23 314
f 307 314 308
f 314 23 26
f 314 26 300
f 315 145 151
f 315 151 312
f 316 315 312
f 316 312 313
f 291 290 297
f 291 297 296
f 107 130 145
f 107 145 315
f 296 300 26
f 296 26 291
f 315 316 50
f 315 50 107
f 279 276 275
f 279 275 280
f 317 280 275
f 317 275 283
f 50 316 318
f 50 318 49
f 313 319 318
f 313 318 316
f 283 46 320
f 283 320 317
f 319 313 201
f 319 201 321
f 274 280 317
f 274 317 298
f 322 320 46
f 322 46 45
f 239 117 318
f 239 318 319
f 117 102 49
f 117 49 318
f 323 309 308
f 323 308 314
f 321 324 239
f 321 239 319
f 323 314 300
f 323 300 299
f 238 239 324
f 238 324 261
f 298 317 320
f 298 320 325
f 299 298 325
f 299 325 323
f 323 326 310
f 323 310 309
f 304 311 327
f 304 327 306
f 167 328 182
f 167 182 169
f 329 184 182
f 329 182 328
f 330 328 167
f 330 167 166
f 330 331 329
f 330 329 328
f 310 326 327
f 310 327 311
f 323 325 332
f 323 332 326
f 333 330 166
f 333 166 334
f 333 335 331
f 333 331 330
f 332 325 320
f 332 320 322
f 336 337 322
f 336 322 45
f 326 332 338
f 326 338 327
f 148 339 334
f 148 334 166
f 333 334 340
f 333 340 341
f 334 339 342
f 334 342 340
f 338 332 322
f 338 322 337
f 154 153 331
f 154 331 335
f 338 343 306
f 338 306 327
f 153 156 329
f 153 329 331
f 41 306 343
f 41 343 263
f 342 344 341
f 342 341 340
f 336 45 44
f 336 44 295
f 307 39 24
f 307 24 23
f 131 160 162
f 131 162 132
f 342 339 148
f 342 148 147
f 342 129 128
f 342 128 344
f 147 126 129
f 147 129 342
f 338 337 345
f 338 345 346
f 329 156 159
f 329 159 184
f 119 347 348
f 119 348 287
f 119 63 51
f 119 51 347
f 347 47 349
f 347 349 350
f 347 350 351
f 347 351 348
f 347 51 48
f 347 48 47
f 336 352 345
f 336 345 337
f 353 352 336
f 353 336 295
f 263 354 353
f 263 353 295
f 263 343 355
f 263 355 354
f 338 346 355
f 338 355 343
f 292 350 349
f 292 349 293
f 350 292 294
f 350 294 351
f 287 348 353
f 287 353 354
f 348 351 352
f 348 352 353
f 276 293 349
f 276 349 19
f 345 352 351
f 345 351 294
f 47 20 19
f 47 19 349
f 289 346 345
f 289 345 294
f 288 355 346
f 288 346 289
f 355 288 287
f 355 287 354
f 123 356 170
f 123 170 124
f 356 178 171
f 356 171 170
f 178 177 175
f 178 175 171
f 177 357 204
f 177 204 175
f 357 358 209
f 357 209 204
f 358 235 227
f 358 227 209
f 235 234 232
f 235 232 227
f 234 254 253
f 234 253 232
f 254 257 249
f 254 249 253
f 257 246 250
f 257 250 249
f 246 248 240
f 246 240 250
f 248 221 219
f 248 219 240
f 221 216 215
f 221 215 219
f 216 195 194
f 216 194 215
f 195 187 191
f 195 191 194
f 284 67 70
f 284 70 119
f 71 65 70
f 71 70 69
f 58 31 30
f 58 30 59
f 123 122 200
f 123 200 303
f 178 356 174
f 178 174 173
f 68 67 179
f 68 179 173
f 321 201 189
f 321 189 188
f 324 321 188
f 324 188 196
f 122 190 189
f 122 189 200
f 357 177 179
f 357 179 206
f 358 357 206
f 358 206 212
f 261 324 196
f 261 196 217
f 241 261 217
f 241 217 222
f 235 358 212
f 235 212 229
f 228 273 236
f 228 236 229
f 221 248 242
f 221 242 222
f 264 243 242
f 264 242 247
f 273 269 255
f 273 255 236
f 265 264 247
f 265 247 258
f 269 265 258
f 269 258 255
f 356 123 303
f 356 303 174
f 62 59 53
f 62 53 52
f 93 62 52
f 93 52 64
f 82 93 64
f 82 64 66
f 79 82 66
f 79 66 72
f 30 48 53
f 30 53 59
f 69 121 118
f 69 118 71
f 28 37 118
f 28 118 121
f 16 15 18
f 16 18 17
f 164 16 17
f 164 17 42
f 28 121 120
f 28 120 42
f 359 360 361
f 359 361 362
f 5 8 363
f 5 363 364
f 9 10 360
f 9 360 359
f 5 364 365
f 5 365 11
f 366 367 15
f 366 15 14
f 8 18 368
f 8 368 363
f 369 370 371
f 369 371 372
f 373 374 375
f 373 375 376
f 377 364 363
f 377 363 378
f 364 377 379
f 364 379 365
f 371 380 381
f 371 381 372
f 382 383 384
f 382 384 385
f 386 377 378
f 386 378 387
f 386 388 379
f 386 379 377
f 389 376 390
f 389 390 391
f 378 363 368
f 378 368 392
f 393 394 395
f 393 395 396
f 397 372 381
f 397 381 398
f 399 400 385
f 399 385 384
f 398 401 402
f 398 402 403
f 404 405 406
f 404 406 407
f 407 408 409
f 407 409 404
f 407 406 410
f 407 410 411
f 411 412 408
f 411 408 407
f 413 403 402
f 413 402 414
f 415 413 414
f 415 414 416
f 417 418 419
f 417 419 420
f 415 416 421
f 415 421 422
f 423 424 425
f 423 425 426
f 427 428 423
f 427 423 426
f 404 426 425
f 404 425 405
f 409 427 426
f 409 426 404
f 429 430 431
f 429 431 432
f 383 382 433
f 383 433 434
f 435 436 424
f 435 424 423
f 428 437 435
f 428 435 423
f 438 434 433
f 438 433 439
f 431 438 439
f 431 439 432
f 435 440 441
f 435 441 436
f 437 442 440
f 437 440 435
f 443 444 431
f 443 431 430
f 444 445 438
f 444 438 431
f 446 441 440
f 446 440 447
f 442 448 447
f 442 447 440
f 445 449 434
f 445 434 438
f 450 383 434
f 450 434 449
f 451 384 383
f 451 383 450
f 384 451 452
f 384 452 399
f 453 454 455
f 453 455 456
f 388 453 456
f 388 456 457
f 385 456 455
f 385 455 382
f 457 456 385
f 457 385 400
f 450 449 458
f 450 458 459
f 433 382 455
f 433 455 454
f 410 458 449
f 410 449 445
f 412 411 444
f 412 444 443
f 411 410 445
f 411 445 444
f 453 460 461
f 453 461 454
f 439 433 454
f 439 454 461
f 460 432 439
f 460 439 461
f 448 462 463
f 448 463 447
f 462 452 451
f 462 451 463
f 406 464 458
f 406 458 410
f 406 405 465
f 406 465 464
f 459 463 451
f 459 451 450
f 405 425 424
f 405 424 465
f 466 467 452
f 466 452 462
f 441 465 424
f 441 424 436
f 387 468 422
f 387 422 421
f 446 464 465
f 446 465 441
f 413 415 418
f 413 418 469
f 420 419 470
f 420 470 471
f 458 464 446
f 458 446 459
f 447 463 459
f 447 459 446
f 472 473 474
f 472 474 475
f 460 453 388
f 460 388 386
f 476 477 128
f 476 128 127
f 457 478 379
f 457 379 388
f 362 361 479
f 362 479 480
f 386 429 432
f 386 432 460
f 476 127 134
f 476 134 481
f 365 379 478
f 365 478 482
f 481 134 137
f 481 137 483
f 11 365 482
f 11 482 138
f 484 483 137
f 484 137 140
f 485 142 138
f 485 138 482
f 486 484 140
f 486 140 144
f 482 478 487
f 482 487 485
f 484 488 481
f 484 481 483
f 488 489 476
f 488 476 481
f 490 489 488
f 490 488 491
f 485 487 492
f 485 492 493
f 485 360 10
f 485 10 142
f 493 361 360
f 493 360 485
f 486 491 488
f 486 488 484
f 362 152 9
f 362 9 359
f 486 144 154
f 486 154 494
f 494 495 496
f 494 496 486
f 493 366 479
f 493 479 361
f 366 493 492
f 366 492 497
f 498 496 495
f 498 495 499
f 362 480 160
f 362 160 152
f 486 496 500
f 486 500 491
f 366 14 162
f 366 162 479
f 500 496 498
f 500 498 501
f 497 502 367
f 497 367 366
f 490 491 500
f 490 500 503
f 504 490 503
f 504 503 505
f 503 500 501
f 503 501 506
f 506 507 505
f 506 505 503
f 474 508 509
f 474 509 510
f 471 511 512
f 471 512 420
f 513 509 508
f 513 508 514
f 515 516 512
f 515 512 517
f 518 519 507
f 518 507 506
f 519 520 521
f 519 521 507
f 520 522 523
f 520 523 521
f 524 499 523
f 524 523 522
f 525 526 527
f 525 527 528
f 529 514 508
f 529 508 530
f 531 514 529
f 531 529 532
f 533 525 528
f 533 528 534
f 498 499 524
f 498 524 535
f 501 498 535
f 501 535 536
f 537 538 527
f 537 527 539
f 474 473 530
f 474 530 508
f 506 501 536
f 506 536 518
f 540 541 520
f 540 520 519
f 513 514 531
f 513 531 542
f 417 516 543
f 417 543 544
f 545 540 519
f 545 519 518
f 546 545 518
f 546 518 536
f 542 531 547
f 542 547 548
f 544 543 549
f 544 549 550
f 546 536 535
f 546 535 551
f 551 535 524
f 551 524 552
f 547 531 532
f 547 532 553
f 533 534 554
f 533 554 555
f 522 520 541
f 522 541 556
f 552 524 522
f 552 522 556
f 557 558 547
f 557 547 553
f 555 554 559
f 555 559 560
f 561 545 546
f 561 546 562
f 563 551 552
f 563 552 564
f 565 548 547
f 565 547 558
f 550 549 566
f 550 566 567
f 546 551 563
f 546 563 562
f 568 569 562
f 568 562 563
f 558 570 571
f 558 571 565
f 572 573 566
f 572 566 574
f 462 448 575
f 462 575 466
f 576 577 467
f 576 467 466
f 557 578 570
f 557 570 558
f 579 580 581
f 579 581 559
f 568 563 564
f 568 564 582
f 583 575 448
f 583 448 442
f 584 585 581
f 584 581 586
f 587 570 578
f 587 578 588
f 589 576 466
f 589 466 575
f 590 589 575
f 590 575 583
f 587 591 571
f 587 571 570
f 592 593 573
f 592 573 572
f 594 564 552
f 594 552 556
f 595 584 586
f 595 586 596
f 594 590 582
f 594 582 564
f 594 556 541
f 594 541 597
f 597 541 540
f 597 540 598
f 599 576 589
f 599 589 579
f 579 594 597
f 579 597 580
f 579 589 590
f 579 590 594
f 598 540 545
f 598 545 561
f 562 569 600
f 562 600 561
f 376 375 601
f 376 601 390
f 602 580 597
f 602 597 598
f 602 600 603
f 602 603 604
f 602 598 561
f 602 561 600
f 605 582 590
f 605 590 583
f 605 583 442
f 605 442 437
f 595 596 593
f 595 593 592
f 606 607 604
f 606 604 603
f 605 608 609
f 605 609 582
f 610 611 607
f 610 607 606
f 605 437 428
f 605 428 608
f 610 612 567
f 610 567 611
f 370 369 613
f 370 613 614
f 409 380 615
f 409 615 427
f 567 616 617
f 567 617 550
f 567 612 618
f 567 618 616
f 615 608 428
f 615 428 427
f 550 617 619
f 550 619 544
f 370 614 620
f 370 620 621
f 417 544 619
f 417 619 622
f 621 620 394
f 621 394 393
f 615 623 609
f 615 609 608
f 526 530 473
f 526 473 472
f 525 529 530
f 525 530 526
f 380 371 623
f 380 623 615
f 568 582 609
f 568 609 624
f 622 625 626
f 622 626 469
f 622 619 627
f 622 627 625
f 623 628 624
f 623 624 609
f 629 371 370
f 629 370 621
f 619 617 630
f 619 630 631
f 619 631 632
f 619 632 627
f 629 628 623
f 629 623 371
f 617 616 613
f 617 613 630
f 629 621 393
f 629 393 374
f 633 601 375
f 633 375 396
f 374 393 396
f 374 396 375
f 634 610 606
f 634 606 635
f 610 636 637
f 610 637 612
f 610 634 638
f 610 638 636
f 639 603 600
f 639 600 569
f 603 639 635
f 603 635 606
f 624 639 569
f 624 569 568
f 628 635 639
f 628 639 624
f 640 641 511
f 640 511 471
f 640 537 539
f 640 539 641
f 642 643 389
f 642 389 391
f 644 642 391
f 644 391 390
f 471 392 502
f 471 502 640
f 537 640 502
f 537 502 497
f 643 645 646
f 643 646 389
f 386 387 421
f 386 421 429
f 643 647 648
f 643 648 645
f 642 649 647
f 642 647 643
f 537 497 492
f 537 492 650
f 651 538 537
f 651 537 650
f 646 645 652
f 646 652 373
f 652 638 374
f 652 374 373
f 653 650 492
f 653 492 487
f 654 651 650
f 654 650 653
f 629 634 635
f 629 635 628
f 457 653 487
f 457 487 478
f 634 629 374
f 634 374 638
f 653 457 400
f 653 400 654
f 616 618 614
f 616 614 613
f 655 620 614
f 655 614 618
f 400 399 656
f 400 656 654
f 651 654 656
f 651 656 657
f 620 655 658
f 620 658 394
f 657 659 538
f 657 538 651
f 612 637 655
f 612 655 618
f 660 395 394
f 660 394 658
f 577 657 656
f 577 656 467
f 467 656 399
f 467 399 452
f 661 652 645
f 661 645 648
f 659 657 577
f 659 577 662
f 661 636 638
f 661 638 652
f 576 599 662
f 576 662 577
f 637 663 658
f 637 658 655
f 636 661 663
f 636 663 637
f 661 648 647
f 661 647 664
f 642 644 665
f 642 665 649
f 505 507 521
f 505 521 666
f 667 666 521
f 667 521 523
f 668 504 505
f 668 505 666
f 668 666 667
f 668 667 669
f 647 649 665
f 647 665 664
f 661 664 670
f 661 670 663
f 333 671 504
f 333 504 668
f 333 668 669
f 333 669 335
f 670 660 658
f 670 658 663
f 672 395 660
f 672 660 673
f 664 665 674
f 664 674 670
f 490 504 671
f 490 671 675
f 333 341 676
f 333 676 671
f 671 676 677
f 671 677 675
f 674 673 660
f 674 660 670
f 154 335 669
f 154 669 494
f 674 665 644
f 674 644 678
f 494 669 667
f 494 667 495
f 390 601 678
f 390 678 644
f 677 676 341
f 677 341 344
f 672 633 396
f 672 396 395
f 646 373 376
f 646 376 389
f 480 479 162
f 480 162 160
f 677 489 490
f 677 490 675
f 677 344 128
f 677 128 477
f 489 677 477
f 489 477 476
f 674 679 680
f 674 680 673
f 667 523 499
f 667 499 495
f 469 626 681
f 469 681 682
f 469 682 403
f 469 403 413
f 682 683 684
f 682 684 397
f 682 681 685
f 682 685 683
f 682 397 398
f 682 398 403
f 672 673 680
f 672 680 686
f 687 633 672
f 687 672 686
f 601 633 687
f 601 687 688
f 601 688 689
f 601 689 678
f 674 678 689
f 674 689 679
f 631 630 684
f 631 684 683
f 683 685 632
f 683 632 631
f 626 688 687
f 626 687 681
f 681 687 686
f 681 686 685
f 613 369 684
f 613 684 630
f 680 632 685
f 680 685 686
f 397 684 369
f 397 369 372
f 627 632 680
f 627 680 679
f 625 627 679
f 625 679 689
f 689 688 626
f 689 626 625
f 475 474 510
f 475 510 690
f 690 510 509
f 690 509 517
f 517 509 513
f 517 513 515
f 515 513 542
f 515 542 691
f 691 542 548
f 691 548 692
f 692 548 565
f 692 565 574
f 574 565 571
f 574 571 572
f 572 571 591
f 572 591 592
f 592 591 587
f 592 587 595
f 595 587 588
f 595 588 584
f 584 588 578
f 584 578 585
f 585 578 557
f 585 557 560
f 560 557 553
f 560 553 555
f 555 553 532
f 555 532 533
f 533 532 529
f 533 529 525
f 622 469 418
f 622 418 417
f 422 419 418
f 422 418 415
f 409 408 381
f 409 381 380
f 475 641 539
f 475 539 472
f 517 512 511
f 517 511 690
f 420 512 516
f 420 516 417
f 659 528 527
f 659 527 538
f 662 534 528
f 662 528 659
f 472 539 527
f 472 527 526
f 691 543 516
f 691 516 515
f 692 549 543
f 692 543 691
f 599 554 534
f 599 534 662
f 579 559 554
f 579 554 599
f 574 566 549
f 574 549 692
f 567 566 573
f 567 573 611
f 560 559 581
f 560 581 585
f 602 586 581
f 602 581 580
f 611 573 593
f 611 593 607
f 604 596 586
f 604 586 602
f 607 593 596
f 607 596 604
f 690 511 641
f 690 641 475
f 412 402 401
f 412 401 408
f 443 414 402
f 443 402 412
f 430 416 414
f 430 414 443
f 429 421 416
f 429 416 430
f 381 408 401
f 381 401 398
f 419 422 468
f 419 468 470
f 378 470 468
f 378 468 387
f 367 368 18
f 367 18 15
f 502 392 368
f 502 368 367
f 378 392 471
f 378 471 470
