# C1_Atlas posed
v -0.739671 -0.083922 0.453817
v -0.740915 -0.085168 0.454231
v -0.740583 -0.086358 0.454481
v -0.738886 -0.084467 0.453714
v -0.742331 -0.081753 0.447962
v -0.739732 -0.086295 0.449216
v -0.742020 -0.087398 0.450064
v -0.744545 -0.082642 0.449006
v -0.739776 -0.081905 0.453956
v -0.738775 -0.081574 0.453930
v -0.739151 -0.081026 0.449855
v -0.737605 -0.085116 0.449997
v -0.743727 -0.087446 0.454214
v -0.746175 -0.084030 0.454224
v -0.746716 -0.083803 0.451788
v -0.744548 -0.087809 0.452450
v -0.743543 -0.087839 0.451058
v -0.745907 -0.083277 0.450186
v -0.722102 -0.110701 0.461775
v -0.720962 -0.109300 0.460864
v -0.718828 -0.110766 0.462963
v -0.720005 -0.112431 0.463116
v -0.719643 -0.121784 0.462174
v -0.721322 -0.123239 0.458506
v -0.721749 -0.120659 0.458829
v -0.719469 -0.119519 0.463095
v -0.735985 -0.090199 0.450081
v -0.739282 -0.092263 0.450657
v -0.734537 -0.088913 0.451029
v -0.720234 -0.107373 0.459680
v -0.718285 -0.107607 0.461410
v -0.724229 -0.093070 0.457152
v -0.724971 -0.092009 0.457513
v -0.724091 -0.092144 0.459334
v -0.723452 -0.092824 0.458731
v -0.730358 -0.093501 0.451672
v -0.732881 -0.095230 0.451162
v -0.729993 -0.091682 0.453223
v -0.721653 -0.125496 0.458464
v -0.723762 -0.124167 0.455932
v -0.724423 -0.122169 0.455342
v -0.741735 -0.092147 0.451651
v -0.720460 -0.118346 0.461580
v -0.722752 -0.119276 0.459149
v -0.723704 -0.118528 0.459441
v -0.722692 -0.117988 0.460882
v -0.722603 -0.108603 0.458978
v -0.721700 -0.107303 0.457838
v -0.726358 -0.093387 0.459904
v -0.727759 -0.092735 0.457861
v -0.723768 -0.107071 0.455642
v -0.722797 -0.105759 0.455413
v -0.721306 -0.105952 0.457146
v -0.716473 -0.102854 0.459591
v -0.717324 -0.102693 0.456930
v -0.718583 -0.101700 0.458750
v -0.717431 -0.101830 0.460630
v -0.717309 -0.104505 0.459933
v -0.719410 -0.104591 0.457399
v -0.718984 -0.101675 0.454834
v -0.720097 -0.100774 0.456910
v -0.721572 -0.104120 0.455159
v -0.726543 -0.105779 0.453479
v -0.725099 -0.104404 0.453425
v -0.729298 -0.102840 0.452343
v -0.727447 -0.101883 0.452215
v -0.736258 -0.106802 0.454735
v -0.739312 -0.101742 0.452490
v -0.734990 -0.100151 0.451878
v -0.731997 -0.104306 0.453105
v -0.731966 -0.099138 0.451431
v -0.729890 -0.098313 0.451462
v -0.716745 -0.100952 0.464200
v -0.716203 -0.102186 0.462186
v -0.716887 -0.101626 0.462109
v -0.717482 -0.100581 0.463574
v -0.715959 -0.103599 0.462731
v -0.716353 -0.102021 0.465072
v -0.727960 -0.097554 0.451835
v -0.723900 -0.096667 0.452672
v -0.722395 -0.098444 0.452690
v -0.725650 -0.100695 0.452301
v -0.723274 -0.095595 0.457280
v -0.724044 -0.094929 0.456399
v -0.717867 -0.099623 0.465442
v -0.718226 -0.099504 0.464804
v -0.717836 -0.100343 0.466480
v -0.722718 -0.098349 0.454464
v -0.723759 -0.096668 0.454432
v -0.719046 -0.098363 0.464812
v -0.719060 -0.097992 0.465799
v -0.719580 -0.098584 0.466710
v -0.723892 -0.102982 0.453485
v -0.720914 -0.100059 0.453221
v -0.721624 -0.099620 0.455128
v -0.720319 -0.096042 0.463828
v -0.720408 -0.095556 0.465037
v -0.721353 -0.096730 0.465805
v -0.722500 -0.096512 0.458273
v -0.722767 -0.093196 0.460213
v -0.723348 -0.092625 0.461178
v -0.725191 -0.093952 0.461906
v -0.725448 -0.093149 0.454825
v -0.725389 -0.092347 0.456126
v -0.724644 -0.093305 0.456172
v -0.724749 -0.094057 0.455493
v -0.730241 -0.091525 0.455635
v -0.721789 -0.093881 0.461847
v -0.721356 -0.097797 0.459749
v -0.724603 -0.094840 0.454712
v -0.725093 -0.094196 0.453790
v -0.722144 -0.093309 0.463020
v -0.723610 -0.094575 0.463811
v -0.719877 -0.099252 0.461442
v -0.718428 -0.100245 0.462751
v -0.726298 -0.096663 0.465550
v -0.728308 -0.096014 0.463426
v -0.734158 -0.096824 0.451264
v -0.729061 -0.107736 0.453476
v -0.741895 -0.096435 0.452047
v -0.737523 -0.096019 0.451402
v -0.742555 -0.096178 0.457029
v -0.743674 -0.096370 0.455286
v -0.742452 -0.097827 0.455851
v -0.742020 -0.097614 0.456634
v -0.713134 -0.082763 0.494110
v -0.714180 -0.080104 0.493696
v -0.716485 -0.080895 0.493976
v -0.715601 -0.082348 0.494219
v -0.734740 -0.088299 0.452877
v -0.743020 -0.085309 0.454816
v -0.743340 -0.086303 0.454833
v -0.711881 -0.082398 0.493157
v -0.712678 -0.079504 0.492998
v -0.737117 -0.084825 0.451453
v -0.711278 -0.081273 0.492190
v -0.711686 -0.079081 0.492373
v -0.738009 -0.081003 0.451980
v -0.711515 -0.081891 0.490066
v -0.711773 -0.078813 0.490564
v -0.738128 -0.085152 0.452991
v -0.738219 -0.081276 0.453218
v -0.712466 -0.083277 0.487775
v -0.712789 -0.078814 0.488556
v -0.736945 -0.088679 0.453616
v -0.712219 -0.083693 0.490808
v -0.713599 -0.084165 0.491670
v -0.715059 -0.085773 0.490317
v -0.712939 -0.085190 0.489162
v -0.740480 -0.087439 0.454372
v -0.739340 -0.089694 0.454970
v -0.742056 -0.082721 0.454402
v -0.713915 -0.082358 0.486175
v -0.714436 -0.079078 0.486909
v -0.713131 -0.086060 0.486018
v -0.714447 -0.085613 0.484717
v -0.741418 -0.090382 0.454695
v -0.713632 -0.090230 0.484106
v -0.715045 -0.089723 0.482602
v -0.744348 -0.083586 0.455127
v -0.713347 -0.087006 0.487873
v -0.745322 -0.083913 0.455198
v -0.713925 -0.091057 0.485616
v -0.742917 -0.090699 0.453139
v -0.715166 -0.087828 0.488660
v -0.718280 -0.085392 0.489161
v -0.717901 -0.087837 0.487745
v -0.715561 -0.091891 0.486159
v -0.717982 -0.091797 0.485486
v -0.742343 -0.098637 0.455152
v -0.741081 -0.101042 0.455407
v -0.740852 -0.099681 0.456626
v -0.740932 -0.102030 0.453074
v -0.742399 -0.097601 0.452979
v -0.739086 -0.105441 0.458304
v -0.738089 -0.103061 0.459740
v -0.739855 -0.106891 0.457265
v -0.741969 -0.101870 0.454026
v -0.738396 -0.107168 0.455907
v -0.716163 -0.096529 0.483338
v -0.718790 -0.096510 0.482710
v -0.718576 -0.090766 0.483355
v -0.719310 -0.095115 0.481260
v -0.717189 -0.089981 0.482070
v -0.717679 -0.093793 0.479910
v -0.715505 -0.093594 0.480147
v -0.738276 -0.099669 0.462727
v -0.736815 -0.098652 0.462636
v -0.739314 -0.096549 0.459422
v -0.740741 -0.097511 0.459359
v -0.738036 -0.101064 0.461638
v -0.740490 -0.098847 0.458274
v -0.735597 -0.105174 0.463119
v -0.735863 -0.102872 0.464242
v -0.736136 -0.101359 0.465151
v -0.734622 -0.100038 0.465165
v -0.713990 -0.094568 0.481422
v -0.714452 -0.095704 0.482761
v -0.740347 -0.093414 0.456192
v -0.741287 -0.095010 0.456547
v -0.737778 -0.095484 0.459534
v -0.719294 -0.099861 0.480491
v -0.720635 -0.098089 0.479172
v -0.736229 -0.107670 0.462265
v -0.733991 -0.109100 0.459614
v -0.735570 -0.109830 0.460531
v -0.716659 -0.100637 0.481419
v -0.714930 -0.099927 0.480574
v -0.732386 -0.108344 0.466207
v -0.732428 -0.105969 0.466782
v -0.730618 -0.110423 0.463634
v -0.731852 -0.110912 0.464586
v -0.714389 -0.098405 0.479156
v -0.716021 -0.096570 0.477826
v -0.732922 -0.103754 0.467159
v -0.733381 -0.102136 0.467684
v -0.732269 -0.100769 0.467802
v -0.719072 -0.096789 0.477714
v -0.730242 -0.103597 0.470745
v -0.730030 -0.106760 0.470007
v -0.730433 -0.101934 0.471396
v -0.729129 -0.101154 0.471077
v -0.718484 -0.104362 0.478923
v -0.716430 -0.103164 0.478201
v -0.715419 -0.101455 0.476939
v -0.716889 -0.099041 0.475278
v -0.729847 -0.110009 0.469443
v -0.727650 -0.112755 0.466827
v -0.729248 -0.112634 0.467730
v -0.716133 -0.103803 0.474699
v -0.717634 -0.105421 0.475989
v -0.728717 -0.111305 0.472106
v -0.728359 -0.108825 0.473194
v -0.728915 -0.113028 0.471521
v -0.730128 -0.111705 0.468791
v -0.727631 -0.113970 0.470457
v -0.723548 -0.098025 0.467720
v -0.728708 -0.098297 0.467214
v -0.731117 -0.097239 0.464747
v -0.728181 -0.105912 0.473906
v -0.727754 -0.099995 0.470920
v -0.726752 -0.103805 0.475663
v -0.725712 -0.103487 0.475281
v -0.716817 -0.100554 0.473045
v -0.720432 -0.099080 0.469023
v -0.727433 -0.108866 0.477327
v -0.726042 -0.107898 0.477616
v -0.727941 -0.104550 0.475154
v -0.727408 -0.111121 0.475755
v -0.727650 -0.109185 0.475806
v -0.725575 -0.099242 0.469751
v -0.721529 -0.099798 0.471966
v -0.727700 -0.112069 0.474317
v -0.727630 -0.113700 0.474615
v -0.726090 -0.114464 0.474192
v -0.722799 -0.099933 0.474019
v -0.727110 -0.112240 0.477519
v -0.725454 -0.112059 0.477102
v -0.723543 -0.101583 0.476242
v -0.721592 -0.103534 0.478052
v -0.730805 -0.099529 0.467769
v -0.719958 -0.106708 0.476794
v -0.725268 -0.119602 0.455135
v -0.724539 -0.107244 0.476684
v -0.723236 -0.110191 0.474900
v -0.720115 -0.109493 0.474342
v -0.717238 -0.100838 0.469211
v -0.720203 -0.112910 0.471451
v -0.723669 -0.113100 0.472453
v -0.714779 -0.106725 0.470019
v -0.715343 -0.104116 0.467322
v -0.721515 -0.115496 0.468162
v -0.725589 -0.113925 0.469559
v -0.724454 -0.115593 0.465826
v -0.722009 -0.113729 0.463496
v -0.723701 -0.111755 0.462891
v -0.715329 -0.106299 0.464118
v -0.728632 -0.110875 0.461684
v -0.725242 -0.112633 0.464124
v -0.723615 -0.114834 0.464095
v -0.731142 -0.110677 0.457920
v -0.719266 -0.115726 0.463082
v -0.721897 -0.116129 0.462455
v -0.732360 -0.108813 0.454448
v -0.715409 -0.109525 0.466519
v -0.715801 -0.108053 0.471940
v -0.727977 -0.112380 0.454188
v -0.730276 -0.113013 0.454519
v -0.730552 -0.113533 0.456363
v -0.716276 -0.111869 0.468992
v -0.717773 -0.115725 0.465908
v -0.727215 -0.111731 0.458919
v -0.725673 -0.111276 0.460984
v -0.727963 -0.113642 0.457580
v -0.724251 -0.118423 0.456472
v -0.718884 -0.116464 0.467834
v -0.717771 -0.112737 0.470664
v -0.724623 -0.118180 0.464081
v -0.722590 -0.119370 0.464920
v -0.720197 -0.119667 0.464934
v -0.717595 -0.108921 0.473174
v -0.742374 -0.093260 0.453897
v -0.742797 -0.095099 0.454580
v -0.725664 -0.124662 0.455886
v -0.723436 -0.126443 0.458744
v -0.727199 -0.122235 0.455197
v -0.720225 -0.124137 0.461160
v -0.721578 -0.124802 0.461885
v -0.723796 -0.124324 0.461927
v -0.725639 -0.125680 0.459640
v -0.726960 -0.124714 0.457146
v -0.737608 -0.091703 0.456157
v -0.735027 -0.094309 0.459203
v -0.721026 -0.122182 0.463337
v -0.734407 -0.091415 0.455859
v -0.731836 -0.093736 0.458809
v -0.723912 -0.116856 0.462724
v -0.729897 -0.095191 0.461247
v -0.732923 -0.096073 0.462193
v -0.725028 -0.118273 0.460989
v -0.735479 -0.097235 0.462778
v -0.726185 -0.118857 0.459613
v -0.724384 -0.121758 0.462585
v -0.733284 -0.098452 0.465360
v -0.726078 -0.119602 0.461762
v -0.726878 -0.123235 0.459713
v -0.728112 -0.122814 0.456885
v -0.718130 -0.086794 0.485442
v -0.716683 -0.085891 0.484131
v -0.718086 -0.083645 0.487033
v -0.716518 -0.082668 0.485616
v -0.727655 -0.120769 0.459632
v -0.719289 -0.080932 0.488645
v -0.719058 -0.083590 0.490420
v -0.717181 -0.079895 0.486472
v -0.724481 -0.117968 0.457785
v -0.726781 -0.118245 0.458380
v -0.729057 -0.120034 0.457443
v -0.717106 -0.084429 0.491424
v -0.719372 -0.082996 0.492193
v -0.720242 -0.081811 0.492149
v -0.717332 -0.083357 0.493267
v -0.728039 -0.120012 0.455101
v -0.718672 -0.081557 0.493708
v -0.727703 -0.116316 0.457360
v -0.730029 -0.117110 0.456272
v -0.725097 -0.108812 0.456178
v -0.725931 -0.112466 0.455429
v -0.723650 -0.110207 0.459992
v -0.724892 -0.110663 0.458073
v -0.725831 -0.113149 0.456825
v -0.725480 -0.115793 0.456778
v -0.725368 -0.115773 0.455624
v -0.726895 -0.116237 0.454655
v -0.729107 -0.116976 0.454890
v -0.743353 -0.098298 0.453930
v -0.736718 -0.109373 0.461712
v -0.732698 -0.110038 0.465681
v -0.740856 -0.080258 0.454415
v -0.740538 -0.079358 0.454548
v -0.742929 -0.079107 0.455666
v -0.742542 -0.080139 0.455053
v -0.745110 -0.077853 0.451617
v -0.742693 -0.077137 0.450704
v -0.740213 -0.077047 0.451312
v -0.746137 -0.079998 0.455426
v -0.747180 -0.079678 0.453772
v -0.746511 -0.078674 0.452548
v -0.741102 -0.051931 0.471358
v -0.740255 -0.049797 0.473331
v -0.738355 -0.050354 0.472816
v -0.739457 -0.052083 0.470190
v -0.745385 -0.042145 0.475166
v -0.743864 -0.044049 0.475408
v -0.746769 -0.043241 0.471445
v -0.747927 -0.040927 0.471921
v -0.741790 -0.072248 0.453010
v -0.745603 -0.072716 0.453844
v -0.739786 -0.072679 0.453678
v -0.736256 -0.051989 0.470487
v -0.737881 -0.052784 0.468576
v -0.733182 -0.065353 0.461680
v -0.732259 -0.065547 0.463179
v -0.732335 -0.066621 0.463500
v -0.733153 -0.066702 0.461636
v -0.738939 -0.066944 0.456008
v -0.742031 -0.066921 0.455777
v -0.737458 -0.068583 0.456989
v -0.749490 -0.039375 0.472501
v -0.750140 -0.042599 0.468303
v -0.750690 -0.040863 0.469504
v -0.747445 -0.074499 0.454527
v -0.744145 -0.045077 0.473529
v -0.745821 -0.046424 0.472547
v -0.747089 -0.046170 0.471233
v -0.746766 -0.044966 0.471259
v -0.740568 -0.053012 0.468035
v -0.739206 -0.053146 0.466657
v -0.734836 -0.067128 0.464180
v -0.735806 -0.067842 0.461911
v -0.738177 -0.053769 0.465644
v -0.739431 -0.054284 0.463796
v -0.740945 -0.053902 0.464305
v -0.732224 -0.054104 0.467535
v -0.732322 -0.055741 0.468145
v -0.733359 -0.055967 0.466200
v -0.733074 -0.053960 0.464868
v -0.735833 -0.053814 0.465668
v -0.733828 -0.053393 0.468269
v -0.734242 -0.057007 0.464033
v -0.734042 -0.055081 0.462423
v -0.737525 -0.054767 0.463196
v -0.742667 -0.055858 0.461613
v -0.740713 -0.056075 0.461300
v -0.743346 -0.059367 0.459429
v -0.741305 -0.059003 0.459199
v -0.751062 -0.061000 0.462208
v -0.746311 -0.060006 0.460331
v -0.746497 -0.064558 0.457686
v -0.750876 -0.065987 0.458325
v -0.741327 -0.062927 0.457227
v -0.743493 -0.063475 0.457246
v -0.730941 -0.057045 0.471373
v -0.731386 -0.057574 0.470596
v -0.731628 -0.056007 0.469556
v -0.731383 -0.055203 0.469858
v -0.731936 -0.054116 0.470824
v -0.731144 -0.056238 0.472567
v -0.739285 -0.062510 0.457547
v -0.739156 -0.058909 0.459097
v -0.735177 -0.058892 0.459127
v -0.735521 -0.061095 0.458508
v -0.734173 -0.063596 0.461496
v -0.733842 -0.062891 0.462593
v -0.730976 -0.059070 0.472065
v -0.731261 -0.059183 0.471390
v -0.731266 -0.058799 0.473269
v -0.735221 -0.059662 0.460763
v -0.735126 -0.061532 0.460154
v -0.730981 -0.061113 0.471829
v -0.731274 -0.060536 0.470998
v -0.731657 -0.061215 0.472824
v -0.738914 -0.056492 0.461057
v -0.734849 -0.056955 0.460236
v -0.735002 -0.058243 0.461851
v -0.731076 -0.062758 0.469268
v -0.730760 -0.063532 0.470274
v -0.732126 -0.063396 0.471256
v -0.733638 -0.062034 0.463876
v -0.731774 -0.065294 0.464752
v -0.731837 -0.066351 0.465465
v -0.734038 -0.066602 0.466377
v -0.734452 -0.065329 0.459362
v -0.734334 -0.064435 0.460332
v -0.733748 -0.065142 0.460776
v -0.733816 -0.066283 0.460374
v -0.737349 -0.069550 0.459214
v -0.733297 -0.060831 0.465775
v -0.731210 -0.064686 0.466608
v -0.734985 -0.064004 0.458737
v -0.734762 -0.063512 0.459833
v -0.732928 -0.065767 0.468526
v -0.731077 -0.065667 0.467536
v -0.732770 -0.059361 0.467957
v -0.732034 -0.058142 0.469630
v -0.736150 -0.066208 0.470540
v -0.737618 -0.067244 0.468139
v -0.743972 -0.066458 0.456217
v -0.745830 -0.055794 0.461941
v -0.746246 -0.069043 0.455804
v -0.749991 -0.071411 0.456127
v -0.749919 -0.073433 0.460739
v -0.750351 -0.071910 0.460830
v -0.750895 -0.071767 0.460103
v -0.751101 -0.073422 0.459028
v -0.714821 -0.077587 0.494956
v -0.716571 -0.079343 0.494708
v -0.739427 -0.073800 0.455239
v -0.745110 -0.080834 0.455723
v -0.744283 -0.081409 0.455451
v -0.713681 -0.076874 0.494059
v -0.739514 -0.077412 0.452663
v -0.712628 -0.077111 0.492866
v -0.713353 -0.076152 0.490993
v -0.740380 -0.078186 0.454128
v -0.715118 -0.074965 0.489118
v -0.741373 -0.074986 0.455850
v -0.714899 -0.075389 0.492158
v -0.716220 -0.076068 0.492990
v -0.718442 -0.075273 0.492031
v -0.716473 -0.074170 0.490951
v -0.743778 -0.075970 0.457212
v -0.743474 -0.078185 0.455883
v -0.715916 -0.076035 0.487194
v -0.718358 -0.073427 0.486702
v -0.717441 -0.072713 0.488196
v -0.745891 -0.076555 0.456951
v -0.720423 -0.069248 0.487543
v -0.721413 -0.070009 0.485831
v -0.717967 -0.072639 0.490212
v -0.720977 -0.069209 0.489191
v -0.747440 -0.076721 0.455415
v -0.719854 -0.073276 0.491039
v -0.720953 -0.077074 0.490520
v -0.722161 -0.074567 0.489911
v -0.722739 -0.069665 0.489795
v -0.724710 -0.070926 0.488897
v -0.750582 -0.069653 0.461529
v -0.751657 -0.068384 0.460736
v -0.751333 -0.070878 0.459681
v -0.750981 -0.071073 0.457304
v -0.752308 -0.066862 0.458810
v -0.752274 -0.064703 0.464955
v -0.749975 -0.066378 0.465734
v -0.753819 -0.063727 0.464307
v -0.752911 -0.062284 0.463230
v -0.752976 -0.067854 0.459572
v -0.726146 -0.065637 0.488393
v -0.728334 -0.066976 0.487541
v -0.728089 -0.067923 0.485706
v -0.724783 -0.071434 0.486508
v -0.726132 -0.067613 0.484195
v -0.723331 -0.070872 0.485193
v -0.724228 -0.066588 0.484571
v -0.747919 -0.069952 0.467590
v -0.748999 -0.072047 0.463520
v -0.747268 -0.071982 0.463435
v -0.746146 -0.069865 0.467342
v -0.748619 -0.068430 0.466975
v -0.749663 -0.070565 0.462895
v -0.748819 -0.064297 0.469794
v -0.747617 -0.066539 0.470175
v -0.746891 -0.068119 0.470580
v -0.744899 -0.068271 0.470357
v -0.723433 -0.065343 0.486209
v -0.724333 -0.065122 0.487767
v -0.746613 -0.074044 0.459354
v -0.745395 -0.071951 0.463379
v -0.748258 -0.073460 0.460062
v -0.730876 -0.064057 0.486353
v -0.731085 -0.065806 0.484460
v -0.750838 -0.062497 0.469640
v -0.751694 -0.059961 0.468671
v -0.750074 -0.059351 0.467736
v -0.729078 -0.062215 0.487705
v -0.727337 -0.061523 0.486856
v -0.746339 -0.062926 0.473807
v -0.747718 -0.060912 0.473948
v -0.748901 -0.058168 0.473193
v -0.747706 -0.057564 0.472260
v -0.726155 -0.061970 0.485118
v -0.726564 -0.063931 0.483171
v -0.745439 -0.065017 0.473481
v -0.743148 -0.067123 0.473303
v -0.744842 -0.066674 0.473479
v -0.729201 -0.065485 0.482844
v -0.742839 -0.064644 0.477118
v -0.744541 -0.061880 0.477342
v -0.740512 -0.065980 0.476839
v -0.741984 -0.066216 0.477241
v -0.732926 -0.059683 0.486233
v -0.730623 -0.059211 0.485387
v -0.728933 -0.059576 0.483785
v -0.728919 -0.061795 0.481379
v -0.746299 -0.059118 0.477754
v -0.747465 -0.056263 0.476929
v -0.746312 -0.054996 0.476251
v -0.731065 -0.057536 0.482263
v -0.733098 -0.057530 0.483817
v -0.744066 -0.060262 0.481143
v -0.745872 -0.058248 0.480775
v -0.747069 -0.056868 0.480691
v -0.746658 -0.055104 0.480067
v -0.747556 -0.057786 0.477592
v -0.734485 -0.064216 0.473262
v -0.738893 -0.066816 0.472367
v -0.740481 -0.068297 0.469482
v -0.742193 -0.062602 0.480999
v -0.738746 -0.066041 0.476481
v -0.738686 -0.063455 0.481847
v -0.739693 -0.063921 0.482213
v -0.729931 -0.059949 0.479693
v -0.732423 -0.061996 0.475106
v -0.742932 -0.060886 0.485168
v -0.741114 -0.063873 0.481822
v -0.741235 -0.060924 0.485302
v -0.744344 -0.058688 0.484324
v -0.743421 -0.060322 0.483786
v -0.736647 -0.065032 0.475358
v -0.733456 -0.062924 0.478011
v -0.745267 -0.057716 0.483197
v -0.746114 -0.056511 0.483955
v -0.745336 -0.054922 0.483915
v -0.734387 -0.064145 0.479885
v -0.744578 -0.058169 0.486355
v -0.743170 -0.057244 0.486064
v -0.735732 -0.063949 0.482408
v -0.735076 -0.061851 0.484875
v -0.741252 -0.067228 0.473052
v -0.735663 -0.058111 0.484743
v -0.749377 -0.044987 0.467288
v -0.739717 -0.060295 0.484364
v -0.737605 -0.055354 0.483196
v -0.740496 -0.056768 0.483634
v -0.730804 -0.058867 0.476077
v -0.739901 -0.051948 0.481407
v -0.742742 -0.054077 0.482090
v -0.731303 -0.054697 0.475427
v -0.732082 -0.053173 0.478779
v -0.742757 -0.049766 0.478895
v -0.745049 -0.053708 0.479389
v -0.745417 -0.050696 0.476413
v -0.742896 -0.052364 0.472575
v -0.742587 -0.050056 0.473878
v -0.732841 -0.052077 0.472992
v -0.744533 -0.052929 0.473862
v -0.746526 -0.055518 0.470714
v -0.744462 -0.050297 0.474617
v -0.748808 -0.056017 0.466839
v -0.743966 -0.047851 0.473588
v -0.741539 -0.046837 0.474321
v -0.749047 -0.057137 0.462875
v -0.734524 -0.050375 0.476177
v -0.733490 -0.053292 0.480898
v -0.749740 -0.052739 0.464348
v -0.747527 -0.051808 0.464056
v -0.750103 -0.053036 0.466234
v -0.736338 -0.049788 0.479132
v -0.740054 -0.046797 0.477161
v -0.744404 -0.053310 0.470432
v -0.746108 -0.053244 0.468450
v -0.747937 -0.051817 0.467657
v -0.747749 -0.045696 0.468319
v -0.741198 -0.047421 0.479110
v -0.737894 -0.050461 0.480839
v -0.746151 -0.046478 0.476817
v -0.747202 -0.048309 0.475479
v -0.744371 -0.044883 0.477141
v -0.735332 -0.054010 0.482155
v -0.748392 -0.074661 0.456929
v -0.749724 -0.073689 0.458071
v -0.752530 -0.041559 0.469426
v -0.751460 -0.039751 0.472874
v -0.752457 -0.044096 0.467926
v -0.748713 -0.040856 0.475578
v -0.747296 -0.040379 0.474820
v -0.752739 -0.041858 0.473305
v -0.750245 -0.042506 0.475272
v -0.753500 -0.042628 0.470524
v -0.743405 -0.073779 0.459085
v -0.742510 -0.071182 0.462980
v -0.746632 -0.042969 0.476264
v -0.740659 -0.072082 0.459007
v -0.739616 -0.069681 0.462734
v -0.745992 -0.048523 0.473864
v -0.738641 -0.068157 0.465667
v -0.741526 -0.069488 0.466541
v -0.747874 -0.047572 0.472512
v -0.744227 -0.070225 0.467195
v -0.749283 -0.047387 0.471260
v -0.749195 -0.044999 0.475106
v -0.742884 -0.068779 0.470211
v -0.749420 -0.047381 0.473537
v -0.752344 -0.044460 0.472556
v -0.753379 -0.044666 0.469620
v -0.721938 -0.074823 0.487388
v -0.720362 -0.074311 0.486009
v -0.719986 -0.077687 0.488000
v -0.718269 -0.077126 0.486510
v -0.751574 -0.046770 0.471695
v -0.720439 -0.079266 0.491126
v -0.747557 -0.046560 0.469419
v -0.749534 -0.047837 0.469851
v -0.752503 -0.047501 0.469267
v -0.719232 -0.077793 0.492508
v -0.720195 -0.080414 0.492614
v -0.718642 -0.079281 0.493933
v -0.751875 -0.046253 0.467120
v -0.751731 -0.049961 0.467223
v -0.749275 -0.049549 0.468241
v -0.745797 -0.050927 0.465451
v -0.742969 -0.053479 0.465193
v -0.743685 -0.052490 0.467552
v -0.742242 -0.052684 0.469367
v -0.745987 -0.050753 0.466990
v -0.747219 -0.048506 0.467739
v -0.747215 -0.048120 0.466642
v -0.748812 -0.048359 0.465713
v -0.751022 -0.049132 0.465949
v -0.752069 -0.071361 0.458322
v -0.752260 -0.061310 0.469556
v -0.748989 -0.059639 0.473906
f 1 2 3
f 1 3 4
f 5 6 7
f 5 7 8
f 9 1 4
f 9 4 10
f 5 11 12
f 5 12 6
f 13 14 15
f 13 15 16
f 8 7 17
f 8 17 18
f 19 20 21
f 19 21 22
f 23 24 25
f 23 25 26
f 27 28 7
f 27 7 6
f 6 12 29
f 6 29 27
f 21 20 30
f 21 30 31
f 32 33 34
f 32 34 35
f 36 37 28
f 36 28 27
f 36 27 29
f 36 29 38
f 39 40 41
f 39 41 24
f 28 42 17
f 28 17 7
f 43 44 45
f 43 45 46
f 47 48 30
f 47 30 20
f 49 34 33
f 49 33 50
f 48 51 52
f 48 52 53
f 54 55 56
f 54 56 57
f 55 54 58
f 55 58 59
f 55 60 61
f 55 61 56
f 60 55 59
f 60 59 62
f 63 64 52
f 63 52 51
f 65 66 64
f 65 64 63
f 67 68 69
f 67 69 70
f 65 71 72
f 65 72 66
f 73 74 75
f 73 75 76
f 77 74 73
f 77 73 78
f 54 57 75
f 54 75 74
f 58 54 74
f 58 74 77
f 79 80 81
f 79 81 82
f 35 83 84
f 35 84 32
f 85 73 76
f 85 76 86
f 78 73 85
f 78 85 87
f 88 89 84
f 88 84 83
f 81 80 89
f 81 89 88
f 85 86 90
f 85 90 91
f 87 85 91
f 87 91 92
f 93 82 81
f 93 81 94
f 94 81 88
f 94 88 95
f 96 97 91
f 96 91 90
f 92 91 97
f 92 97 98
f 95 88 83
f 95 83 99
f 100 99 83
f 100 83 35
f 101 100 35
f 101 35 34
f 34 49 102
f 34 102 101
f 103 104 105
f 103 105 106
f 38 107 104
f 38 104 103
f 33 32 105
f 33 105 104
f 107 50 33
f 107 33 104
f 100 108 109
f 100 109 99
f 84 106 105
f 84 105 32
f 61 95 99
f 61 99 109
f 62 93 94
f 62 94 60
f 60 94 95
f 60 95 61
f 103 106 110
f 103 110 111
f 89 110 106
f 89 106 84
f 111 110 89
f 111 89 80
f 98 97 112
f 98 112 113
f 113 112 101
f 113 101 102
f 56 61 109
f 56 109 114
f 56 114 115
f 56 115 57
f 108 100 101
f 108 101 112
f 57 115 76
f 57 76 75
f 116 113 102
f 116 102 117
f 90 86 76
f 90 76 115
f 37 72 71
f 37 71 118
f 96 90 115
f 96 115 114
f 63 119 70
f 63 70 65
f 68 120 121
f 68 121 69
f 109 108 96
f 109 96 114
f 97 96 108
f 97 108 112
f 122 123 124
f 122 124 125
f 111 36 38
f 111 38 103
f 126 127 128
f 126 128 129
f 107 38 29
f 107 29 130
f 2 131 132
f 2 132 3
f 36 111 80
f 36 80 79
f 126 133 134
f 126 134 127
f 12 135 130
f 12 130 29
f 133 136 137
f 133 137 134
f 11 138 135
f 11 135 12
f 139 140 137
f 139 137 136
f 141 135 138
f 141 138 142
f 143 144 140
f 143 140 139
f 135 141 145
f 135 145 130
f 139 136 133
f 139 133 146
f 146 133 126
f 146 126 147
f 148 149 146
f 148 146 147
f 141 150 151
f 141 151 145
f 141 142 10
f 141 10 4
f 150 141 4
f 150 4 3
f 143 139 146
f 143 146 149
f 2 1 9
f 2 9 152
f 143 153 154
f 143 154 144
f 153 143 155
f 153 155 156
f 150 3 132
f 150 132 13
f 13 157 151
f 13 151 150
f 158 159 156
f 158 156 155
f 2 152 160
f 2 160 131
f 143 149 161
f 143 161 155
f 13 132 162
f 13 162 14
f 161 163 158
f 161 158 155
f 157 13 16
f 157 16 164
f 148 165 161
f 148 161 149
f 166 167 165
f 166 165 148
f 165 168 163
f 165 163 161
f 168 165 167
f 168 167 169
f 124 170 171
f 124 171 172
f 120 68 173
f 120 173 174
f 175 176 172
f 175 172 171
f 177 178 173
f 177 173 179
f 180 168 169
f 180 169 181
f 181 169 182
f 181 182 183
f 183 182 184
f 183 184 185
f 186 185 184
f 186 184 159
f 187 188 189
f 187 189 190
f 191 192 172
f 191 172 176
f 193 194 191
f 193 191 176
f 195 196 188
f 195 188 187
f 158 197 186
f 158 186 159
f 163 198 197
f 163 197 158
f 199 200 189
f 199 189 201
f 124 172 192
f 124 192 125
f 168 180 198
f 168 198 163
f 202 181 183
f 202 183 203
f 175 204 193
f 175 193 176
f 67 205 206
f 67 206 179
f 207 180 181
f 207 181 202
f 208 198 180
f 208 180 207
f 204 209 210
f 204 210 193
f 205 211 212
f 205 212 206
f 208 213 197
f 208 197 198
f 213 214 186
f 213 186 197
f 210 215 194
f 210 194 193
f 195 216 217
f 195 217 196
f 185 218 203
f 185 203 183
f 214 218 185
f 214 185 186
f 219 215 210
f 219 210 220
f 216 221 222
f 216 222 217
f 223 224 208
f 223 208 207
f 225 226 214
f 225 214 213
f 227 220 210
f 227 210 209
f 211 228 229
f 211 229 212
f 208 224 225
f 208 225 213
f 230 225 224
f 230 224 231
f 220 227 232
f 220 232 233
f 234 235 229
f 234 229 236
f 113 116 237
f 113 237 98
f 238 116 117
f 238 117 239
f 219 220 233
f 219 233 240
f 241 222 242
f 241 242 243
f 230 244 226
f 230 226 225
f 245 92 98
f 245 98 237
f 246 247 242
f 246 242 248
f 249 250 240
f 249 240 233
f 251 237 116
f 251 116 238
f 252 245 237
f 252 237 251
f 249 233 232
f 249 232 253
f 254 234 236
f 254 236 255
f 256 218 214
f 256 214 226
f 257 258 247
f 257 247 246
f 256 226 244
f 256 244 252
f 256 259 203
f 256 203 218
f 259 260 202
f 259 202 203
f 261 241 251
f 261 251 238
f 241 243 259
f 241 259 256
f 241 256 252
f 241 252 251
f 260 223 207
f 260 207 202
f 224 223 262
f 224 262 231
f 24 41 263
f 24 263 25
f 264 260 259
f 264 259 243
f 264 265 266
f 264 266 262
f 264 262 223
f 264 223 260
f 267 245 252
f 267 252 244
f 267 87 92
f 267 92 245
f 257 254 255
f 257 255 258
f 268 266 265
f 268 265 269
f 267 244 270
f 267 270 271
f 272 268 269
f 272 269 273
f 267 271 78
f 267 78 87
f 272 273 228
f 272 228 274
f 22 275 276
f 22 276 19
f 58 77 277
f 58 277 31
f 228 211 278
f 228 278 279
f 228 279 280
f 228 280 274
f 277 77 78
f 277 78 271
f 211 205 281
f 211 281 278
f 22 282 283
f 22 283 275
f 67 284 281
f 67 281 205
f 282 43 46
f 282 46 283
f 277 271 270
f 277 270 285
f 190 122 125
f 190 125 192
f 187 190 192
f 187 192 191
f 31 277 285
f 31 285 21
f 230 286 270
f 230 270 244
f 284 119 287
f 284 287 288
f 284 288 289
f 284 289 281
f 285 270 286
f 285 286 290
f 291 282 22
f 291 22 21
f 281 292 293
f 281 293 278
f 281 289 294
f 281 294 292
f 291 21 285
f 291 285 290
f 278 293 276
f 278 276 279
f 291 26 43
f 291 43 282
f 295 44 25
f 295 25 263
f 26 25 44
f 26 44 43
f 296 297 268
f 296 268 272
f 272 274 298
f 272 298 299
f 272 299 300
f 272 300 296
f 301 231 262
f 301 262 266
f 266 268 297
f 266 297 301
f 286 230 231
f 286 231 301
f 290 286 301
f 290 301 297
f 302 120 174
f 302 174 303
f 302 303 200
f 302 200 199
f 304 40 39
f 304 39 305
f 306 41 40
f 306 40 304
f 120 302 164
f 120 164 42
f 199 157 164
f 199 164 302
f 305 39 307
f 305 307 308
f 36 79 72
f 36 72 37
f 305 308 309
f 305 309 310
f 304 305 310
f 304 310 311
f 199 312 151
f 199 151 157
f 313 312 199
f 313 199 201
f 307 23 314
f 307 314 308
f 314 23 26
f 314 26 300
f 315 145 151
f 315 151 312
f 316 315 312
f 316 312 313
f 291 290 297
f 291 297 296
f 107 130 145
f 107 145 315
f 296 300 26
f 296 26 291
f 315 316 50
f 315 50 107
f 279 276 275
f 279 275 280
f 317 280 275
f 317 275 283
f 50 316 318
f 50 318 49
f 313 319 318
f 313 318 316
f 283 46 320
f 283 320 317
f 319 313 201
f 319 201 321
f 274 280 317
f 274 317 298
f 322 320 46
f 322 46 45
f 239 117 318
f 239 318 319
f 117 102 49
f 117 49 318
f 323 309 308
f 323 308 314
f 321 324 239
f 321 239 319
f 323 314 300
f 323 300 299
f 238 239 324
f 238 324 261
f 298 317 320
f 298 320 325
f 299 298 325
f 299 325 323
f 323 326 310
f 323 310 309
f 304 311 327
f 304 327 306
f 167 328 182
f 167 182 169
f 329 184 182
f 329 182 328
f 330 328 167
f 330 167 166
f 330 331 329
f 330 329 328
f 310 326 327
f 310 327 311
f 323 325 332
f 323 332 326
f 333 330 166
f 333 166 334
f 333 335 331
f 333 331 330
f 332 325 320
f 332 320 322
f 336 337 322
f 336 322 45
f 326 332 338
f 326 338 327
f 148 339 334
f 148 334 166
f 333 334 340
f 333 340 341
f 334 339 342
f 334 342 340
f 338 332 322
f 338 322 337
f 154 153 331
f 154 331 335
f 338 343 306
f 338 306 327
f 153 156 329
f 153 329 331
f 41 306 343
f 41 343 263
f 342 344 341
f 342 341 340
f 336 45 44
f 336 44 295
f 307 39 24
f 307 24 23
f 131 160 162
f 131 162 132
f 342 339 148
f 342 148 147
f 342 129 128
f 342 128 344
f 147 126 129
f 147 129 342
f 338 337 345
f 338 345 346
f 329 156 159
f 329 159 184
f 119 347 348
f 119 348 287
f 119 63 51
f 119 51 347
f 347 47 349
f 347 349 350
f 347 350 351
f 347 351 348
f 347 51 48
f 347 48 47
f 336 352 345
f 336 345 337
f 353 352 336
f 353 336 295
f 263 354 353
f 263 353 295
f 263 343 355
f 263 355 354
f 338 346 355
f 338 355 343
f 292 350 349
f 292 349 293
f 350 292 294
f 350 294 351
f 287 348 353
f 287 353 354
f 348 351 352
f 348 352 353
f 276 293 349
f 276 349 19
f 345 352 351
f 345 351 294
f 47 20 19
f 47 19 349
f 289 346 345
f 289 345 294
f 288 355 346
f 288 346 289
f 355 288 287
f 355 287 354
f 123 356 170
f 123 170 124
f 356 178 171
f 356 171 170
f 178 177 175
f 178 175 171
f 177 357 204
f 177 204 175
f 357 358 209
f 357 209 204
f 358 235 227
f 358 227 209
f 235 234 232
f 235 232 227
f 234 254 253
f 234 253 232
f 254 257 249
f 254 249 253
f 257 246 250
f 257 250 249
f 246 248 240
f 246 240 250
f 248 221 219
f 248 219 240
f 221 216 215
f 221 215 219
f 216 195 194
f 216 194 215
f 195 187 191
f 195 191 194
f 284 67 70
f 284 70 119
f 71 65 70
f 71 70 69
f 58 31 30
f 58 30 59
f 123 122 200
f 123 200 303
f 178 356 174
f 178 174 173
f 68 67 179
f 68 179 173
f 321 201 189
f 321 189 188
f 324 321 188
f 324 188 196
f 122 190 189
f 122 189 200
f 357 177 179
f 357 179 206
f 358 357 206
f 358 206 212
f 261 324 196
f 261 196 217
f 241 261 217
f 241 217 222
f 235 358 212
f 235 212 229
f 228 273 236
f 228 236 229
f 221 248 242
f 221 242 222
f 264 243 242
f 264 242 247
f 273 269 255
f 273 255 236
f 265 264 247
f 265 247 258
f 269 265 258
f 269 258 255
f 356 123 303
f 356 303 174
f 62 59 53
f 62 53 52
f 93 62 52
f 93 52 64
f 82 93 64
f 82 64 66
f 79 82 66
f 79 66 72
f 30 48 53
f 30 53 59
f 69 121 118
f 69 118 71
f 28 37 118
f 28 118 121
f 16 15 18
f 16 18 17
f 164 16 17
f 164 17 42
f 28 121 120
f 28 120 42
f 359 360 361
f 359 361 362
f 5 8 363
f 5 363 364
f 9 10 360
f 9 360 359
f 5 364 365
f 5 365 11
f 366 367 15
f 366 15 14
f 8 18 368
f 8 368 363
f 369 370 371
f 369 371 372
f 373 374 375
f 373 375 376
f 377 364 363
f 377 363 378
f 364 377 379
f 364 379 365
f 371 380 381
f 371 381 372
f 382 383 384
f 382 384 385
f 386 377 378
f 386 378 387
f 386 388 379
f 386 379 377
f 389 376 390
f 389 390 391
f 378 363 368
f 378 368 392
f 393 394 395
f 393 395 396
f 397 372 381
f 397 381 398
f 399 400 385
f 399 385 384
f 398 401 402
f 398 402 403
f 404 405 406
f 404 406 407
f 407 408 409
f 407 409 404
f 407 406 410
f 407 410 411
f 411 412 408
f 411 408 407
f 413 403 402
f 413 402 414
f 415 413 414
f 415 414 416
f 417 418 419
f 417 419 420
f 415 416 421
f 415 421 422
f 423 424 425
f 423 425 426
f 427 428 423
f 427 423 426
f 404 426 425
f 404 425 405
f 409 427 426
f 409 426 404
f 429 430 431
f 429 431 432
f 383 382 433
f 383 433 434
f 435 436 424
f 435 424 423
f 428 437 435
f 428 435 423
f 438 434 433
f 438 433 439
f 431 438 439
f 431 439 432
f 435 440 441
f 435 441 436
f 437 442 440
f 437 440 435
f 443 444 431
f 443 431 430
f 444 445 438
f 444 438 431
f 446 441 440
f 446 440 447
f 442 448 447
f 442 447 440
f 445 449 434
f 445 434 438
f 450 383 434
f 450 434 449
f 451 384 383
f 451 383 450
f 384 451 452
f 384 452 399
f 453 454 455
f 453 455 456
f 388 453 456
f 388 456 457
f 385 456 455
f 385 455 382
f 457 456 385
f 457 385 400
f 450 449 458
f 450 458 459
f 433 382 455
f 433 455 454
f 410 458 449
f 410 449 445
f 412 411 444
f 412 444 443
f 411 410 445
f 411 445 444
f 453 460 461
f 453 461 454
f 439 433 454
f 439 454 461
f 460 432 439
f 460 439 461
f 448 462 463
f 448 463 447
f 462 452 451
f 462 451 463
f 406 464 458
f 406 458 410
f 406 405 465
f 406 465 464
f 459 463 451
f 459 451 450
f 405 425 424
f 405 424 465
f 466 467 452
f 466 452 462
f 441 465 424
f 441 424 436
f 387 468 422
f 387 422 421
f 446 464 465
f 446 465 441
f 413 415 418
f 413 418 469
f 420 419 470
f 420 470 471
f 458 464 446
f 458 446 459
f 447 463 459
f 447 459 446
f 472 473 474
f 472 474 475
f 460 453 388
f 460 388 386
f 476 477 128
f 476 128 127
f 457 478 379
f 457 379 388
f 362 361 479
f 362 479 480
f 386 429 432
f 386 432 460
f 476 127 134
f 476 134 481
f 365 379 478
f 365 478 482
f 481 134 137
f 481 137 483
f 11 365 482
f 11 482 138
f 484 483 137
f 484 137 140
f 485 142 138
f 485 138 482
f 486 484 140
f 486 140 144
f 482 478 487
f 482 487 485
f 484 488 481
f 484 481 483
f 488 489 476
f 488 476 481
f 490 489 488
f 490 488 491
f 485 487 492
f 485 492 493
f 485 360 10
f 485 10 142
f 493 361 360
f 493 360 485
f 486 491 488
f 486 488 484
f 362 152 9
f 362 9 359
f 486 144 154
f 486 154 494
f 494 495 496
f 494 496 486
f 493 366 479
f 493 479 361
f 366 493 492
f 366 492 497
f 498 496 495
f 498 495 499
f 362 480 160
f 362 160 152
f 486 496 500
f 486 500 491
f 366 14 162
f 366 162 479
f 500 496 498
f 500 498 501
f 497 502 367
f 497 367 366
f 490 491 500
f 490 500 503
f 504 490 503
f 504 503 505
f 503 500 501
f 503 501 506
f 506 507 505
f 506 505 503
f 474 508 509
f 474 509 510
f 471 511 512
f 471 512 420
f 513 509 508
f 513 508 514
f 515 516 512
f 515 512 517
f 518 519 507
f 518 507 506
f 519 520 521
f 519 521 507
f 520 522 523
f 520 523 521
f 524 499 523
f 524 523 522
f 525 526 527
f 525 527 528
f 529 514 508
f 529 508 530
f 531 514 529
f 531 529 532
f 533 525 528
f 533 528 534
f 498 499 524
f 498 524 535
f 501 498 535
f 501 535 536
f 537 538 527
f 537 527 539
f 474 473 530
f 474 530 508
f 506 501 536
f 506 536 518
f 540 541 520
f 540 520 519
f 513 514 531
f 513 531 542
f 417 516 543
f 417 543 544
f 545 540 519
f 545 519 518
f 546 545 518
f 546 518 536
f 542 531 547
f 542 547 548
f 544 543 549
f 544 549 550
f 546 536 535
f 546 535 551
f 551 535 524
f 551 524 552
f 547 531 532
f 547 532 553
f 533 534 554
f 533 554 555
f 522 520 541
f 522 541 556
f 552 524 522
f 552 522 556
f 557 558 547
f 557 547 553
f 555 554 559
f 555 559 560
f 561 545 546
f 561 546 562
f 563 551 552
f 563 552 564
f 565 548 547
f 565 547 558
f 550 549 566
f 550 566 567
f 546 551 563
f 546 563 562
f 568 569 562
f 568 562 563
f 558 570 571
f 558 571 565
f 572 573 566
f 572 566 574
f 462 448 575
f 462 575 466
f 576 577 467
f 576 467 466
f 557 578 570
f 557 570 558
f 579 580 581
f 579 581 559
f 568 563 564
f 568 564 582
f 583 575 448
f 583 448 442
f 584 585 581
f 584 581 586
f 587 570 578
f 587 578 588
f 589 576 466
f 589 466 575
f 590 589 575
f 590 575 583
f 587 591 571
f 587 571 570
f 592 593 573
f 592 573 572
f 594 564 552
f 594 552 556
f 595 584 586
f 595 586 596
f 594 590 582
f 594 582 564
f 594 556 541
f 594 541 597
f 597 541 540
f 597 540 598
f 599 576 589
f 599 589 579
f 579 594 597
f 579 597 580
f 579 589 590
f 579 590 594
f 598 540 545
f 598 545 561
f 562 569 600
f 562 600 561
f 376 375 601
f 376 601 390
f 602 580 597
f 602 597 598
f 602 600 603
f 602 603 604
f 602 598 561
f 602 561 600
f 605 582 590
f 605 590 583
f 605 583 442
f 605 442 437
f 595 596 593
f 595 593 592
f 606 607 604
f 606 604 603
f 605 608 609
f 605 609 582
f 610 611 607
f 610 607 606
f 605 437 428
f 605 428 608
f 610 612 567
f 610 567 611
f 370 369 613
f 370 613 614
f 409 380 615
f 409 615 427
f 567 616 617
f 567 617 550
f 567 612 618
f 567 618 616
f 615 608 428
f 615 428 427
f 550 617 619
f 550 619 544
f 370 614 620
f 370 620 621
f 417 544 619
f 417 619 622
f 621 620 394
f 621 394 393
f 615 623 609
f 615 609 608
f 526 530 473
f 526 473 472
f 525 529 530
f 525 530 526
f 380 371 623
f 380 623 615
f 568 582 609
f 568 609 624
f 622 625 626
f 622 626 469
f 622 619 627
f 622 627 625
f 623 628 624
f 623 624 609
f 629 371 370
f 629 370 621
f 619 617 630
f 619 630 631
f 619 631 632
f 619 632 627
f 629 628 623
f 629 623 371
f 617 616 613
f 617 613 630
f 629 621 393
f 629 393 374
f 633 601 375
f 633 375 396
f 374 393 396
f 374 396 375
f 634 610 606
f 634 606 635
f 610 636 637
f 610 637 612
f 610 634 638
f 610 638 636
f 639 603 600
f 639 600 569
f 603 639 635
f 603 635 606
f 624 639 569
f 624 569 568
f 628 635 639
f 628 639 624
f 640 641 511
f 640 511 471
f 640 537 539
f 640 539 641
f 642 643 389
f 642 389 391
f 644 642 391
f 644 391 390
f 471 392 502
f 471 502 640
f 537 640 502
f 537 502 497
f 643 645 646
f 643 646 389
f 386 387 421
f 386 421 429
f 643 647 648
f 643 648 645
f 642 649 647
f 642 647 643
f 537 497 492
f 537 492 650
f 651 538 537
f 651 537 650
f 646 645 652
f 646 652 373
f 652 638 374
f 652 374 373
f 653 650 492
f 653 492 487
f 654 651 650
f 654 650 653
f 629 634 635
f 629 635 628
f 457 653 487
f 457 487 478
f 634 629 374
f 634 374 638
f 653 457 400
f 653 400 654
f 616 618 614
f 616 614 613
f 655 620 614
f 655 614 618
f 400 399 656
f 400 656 654
f 651 654 656
f 651 656 657
f 620 655 658
f 620 658 394
f 657 659 538
f 657 538 651
f 612 637 655
f 612 655 618
f 660 395 394
f 660 394 658
f 577 657 656
f 577 656 467
f 467 656 399
f 467 399 452
f 661 652 645
f 661 645 648
f 659 657 577
f 659 577 662
f 661 636 638
f 661 638 652
f 576 599 662
f 576 662 577
f 637 663 658
f 637 658 655
f 636 661 663
f 636 663 637
f 661 648 647
f 661 647 664
f 642 644 665
f 642 665 649
f 505 507 521
f 505 521 666
f 667 666 521
f 667 521 523
f 668 504 505
f 668 505 666
f 668 666 667
f 668 667 669
f 647 649 665
f 647 665 664
f 661 664 670
f 661 670 663
f 333 671 504
f 333 504 668
f 333 668 669
f 333 669 335
f 670 660 658
f 670 658 663
f 672 395 660
f 672 660 673
f 664 665 674
f 664 674 670
f 490 504 671
f 490 671 675
f 333 341 676
f 333 676 671
f 671 676 677
f 671 677 675
f 674 673 660
f 674 660 670
f 154 335 669
f 154 669 494
f 674 665 644
f 674 644 678
f 494 669 667
f 494 667 495
f 390 601 678
f 390 678 644
f 677 676 341
f 677 341 344
f 672 633 396
f 672 396 395
f 646 373 376
f 646 376 389
f 480 479 162
f 480 162 160
f 677 489 490
f 677 490 675
f 677 344 128
f 677 128 477
f 489 677 477
f 489 477 476
f 674 679 680
f 674 680 673
f 667 523 499
f 667 499 495
f 469 626 681
f 469 681 682
f 469 682 403
f 469 403 413
f 682 683 684
f 682 684 397
f 682 681 685
f 682 685 683
f 682 397 398
f 682 398 403
f 672 673 680
f 672 680 686
f 687 633 672
f 687 672 686
f 601 633 687
f 601 687 688
f 601 688 689
f 601 689 678
f 674 678 689
f 674 689 679
f 631 630 684
f 631 684 683
f 683 685 632
f 683 632 631
f 626 688 687
f 626 687 681
f 681 687 686
f 681 686 685
f 613 369 684
f 613 684 630
f 680 632 685
f 680 685 686
f 397 684 369
f 397 369 372
f 627 632 680
f 627 680 679
f 625 627 679
f 625 679 689
f 689 688 626
f 689 626 625
f 475 474 510
f 475 510 690
f 690 510 509
f 690 509 517
f 517 509 513
f 517 513 515
f 515 513 542
f 515 542 691
f 691 542 548
f 691 548 692
f 692 548 565
f 692 565 574
f 574 565 571
f 574 571 572
f 572 571 591
f 572 591 592
f 592 591 587
f 592 587 595
f 595 587 588
f 595 588 584
f 584 588 578
f 584 578 585
f 585 578 557
f 585 557 560
f 560 557 553
f 560 553 555
f 555 553 532
f 555 532 533
f 533 532 529
f 533 529 525
f 622 469 418
f 622 418 417
f 422 419 418
f 422 418 415
f 409 408 381
f 409 381 380
f 475 641 539
f 475 539 472
f 517 512 511
f 517 511 690
f 420 512 516
f 420 516 417
f 659 528 527
f 659 527 538
f 662 534 528
f 662 528 659
f 472 539 527
f 472 527 526
f 691 543 516
f 691 516 515
f 692 549 543
f 692 543 691
f 599 554 534
f 599 534 662
f 579 559 554
f 579 554 599
f 574 566 549
f 574 549 692
f 567 566 573
f 567 573 611
f 560 559 581
f 560 581 585
f 602 586 581
f 602 581 580
f 611 573 593
f 611 593 607
f 604 596 586
f 604 586 602
f 607 593 596
f 607 596 604
f 690 511 641
f 690 641 475
f 412 402 401
f 412 401 408
f 443 414 402
f 443 402 412
f 430 416 414
f 430 414 443
f 429 421 416
f 429 416 430
f 381 408 401
f 381 401 398
f 419 422 468
f 419 468 470
f 378 470 468
f 378 468 387
f 367 368 18
f 367 18 15
f 502 392 368
f 502 368 367
f 378 392 471
f 378 471 470
