# C2_Axis posed
v -0.704849 -0.078382 0.484103
v -0.701616 -0.077394 0.488904
v -0.703475 -0.077117 0.490190
v -0.705896 -0.077100 0.484984
v -0.698683 -0.076659 0.495249
v -0.700899 -0.076856 0.494033
v -0.702263 -0.078955 0.479304
v -0.700077 -0.077327 0.485958
v -0.697022 -0.096463 0.460484
v -0.699580 -0.098577 0.461549
v -0.700497 -0.100196 0.458870
v -0.699175 -0.096280 0.458355
v -0.713643 -0.099616 0.466809
v -0.711996 -0.101431 0.464688
v -0.709852 -0.100351 0.465882
v -0.712054 -0.098166 0.468013
v -0.716535 -0.096902 0.450014
v -0.714313 -0.095469 0.448649
v -0.712391 -0.097815 0.450108
v -0.714427 -0.098632 0.451255
v -0.697032 -0.094434 0.460308
v -0.698323 -0.094222 0.458313
v -0.700279 -0.094836 0.457240
v -0.699256 -0.093186 0.457430
v -0.701283 -0.092546 0.456591
v -0.700063 -0.091534 0.457166
v -0.702266 -0.089775 0.456697
v -0.700814 -0.089480 0.457583
v -0.702341 -0.087257 0.458368
v -0.701132 -0.087703 0.459121
v -0.699106 -0.086733 0.463812
v -0.698834 -0.085465 0.464945
v -0.697012 -0.086025 0.467265
v -0.697713 -0.087372 0.465866
v -0.694736 -0.087973 0.468713
v -0.696117 -0.088770 0.467107
v -0.692976 -0.091696 0.468204
v -0.694538 -0.091214 0.466799
v -0.694310 -0.095525 0.464858
v -0.695498 -0.093536 0.463908
v -0.710379 -0.071457 0.451462
v -0.711850 -0.067620 0.452039
v -0.714553 -0.064216 0.448406
v -0.713749 -0.064106 0.452258
v -0.709741 -0.074803 0.446384
v -0.714860 -0.064139 0.445190
v -0.691952 -0.075389 0.497339
v -0.692234 -0.074598 0.497900
v -0.690239 -0.074781 0.495586
v -0.690246 -0.073931 0.496067
v -0.696922 -0.076667 0.492527
v -0.710578 -0.074473 0.443109
v -0.709045 -0.075325 0.450771
v -0.709369 -0.078455 0.446054
v -0.698328 -0.077460 0.483365
v -0.698249 -0.079127 0.478176
v -0.702866 -0.083551 0.476318
v -0.697999 -0.081732 0.475710
v -0.697668 -0.084964 0.473320
v -0.703283 -0.088226 0.473780
v -0.697099 -0.092418 0.463197
v -0.698075 -0.092776 0.461023
v -0.698832 -0.092605 0.459293
v -0.696813 -0.091184 0.464584
v -0.696957 -0.089825 0.465364
v -0.698132 -0.089082 0.464267
v -0.699403 -0.088601 0.462762
v -0.698466 -0.090946 0.462729
v -0.700394 -0.088546 0.461098
v -0.700889 -0.088695 0.459660
v -0.700532 -0.086908 0.461499
v -0.699661 -0.090723 0.461180
v -0.700492 -0.089883 0.458610
v -0.699932 -0.091123 0.457896
v -0.700328 -0.090369 0.459789
v -0.699488 -0.091910 0.458347
v -0.697620 -0.080746 0.474137
v -0.697140 -0.083380 0.472303
v -0.698007 -0.078003 0.477053
v -0.697880 -0.076298 0.481787
v -0.700786 -0.084147 0.472026
v -0.701320 -0.081719 0.474092
v -0.701670 -0.079241 0.476994
v -0.709365 -0.077454 0.455235
v -0.714608 -0.062069 0.451412
v -0.714967 -0.062109 0.448958
v -0.711880 -0.078701 0.455591
v -0.719084 -0.081374 0.457219
v -0.715025 -0.062102 0.446243
v -0.715472 -0.060959 0.450234
v -0.723879 -0.082058 0.456973
v -0.715621 -0.061079 0.448086
v -0.715214 -0.080145 0.456339
v -0.717393 -0.086597 0.458099
v -0.713764 -0.084625 0.456512
v -0.719082 -0.090386 0.459338
v -0.717112 -0.091957 0.461971
v -0.714653 -0.089299 0.460493
v -0.711238 -0.082630 0.454085
v -0.708989 -0.081159 0.453409
v -0.712504 -0.094700 0.446689
v -0.710048 -0.098341 0.447837
v -0.704508 -0.091018 0.455373
v -0.703520 -0.094725 0.455649
v -0.701845 -0.097697 0.457117
v -0.711647 -0.087155 0.458553
v -0.708703 -0.085804 0.456433
v -0.715937 -0.094274 0.464352
v -0.713172 -0.092610 0.463238
v -0.709533 -0.090364 0.474305
v -0.708652 -0.085978 0.476735
v -0.708582 -0.081863 0.479166
v -0.708110 -0.078771 0.481473
v -0.715280 -0.096609 0.466221
v -0.712784 -0.095312 0.466243
v -0.711346 -0.094867 0.468547
v -0.710529 -0.096965 0.469576
v -0.705297 -0.079417 0.472772
v -0.704827 -0.081858 0.471983
v -0.709686 -0.085492 0.475575
v -0.709823 -0.081977 0.477792
v -0.708377 -0.080733 0.473419
v -0.707923 -0.083511 0.471872
v -0.710348 -0.089209 0.473220
v -0.704215 -0.084630 0.470556
v -0.707810 -0.086019 0.470351
v -0.710554 -0.092116 0.470867
v -0.709334 -0.093850 0.471855
v -0.708030 -0.088344 0.468559
v -0.706933 -0.099818 0.446660
v -0.708670 -0.097071 0.446600
v -0.705927 -0.098708 0.446251
v -0.710746 -0.094023 0.446350
v -0.705899 -0.091389 0.452751
v -0.705226 -0.095482 0.453007
v -0.707176 -0.092837 0.450065
v -0.705446 -0.096514 0.450189
v -0.708596 -0.093354 0.447921
v -0.706564 -0.096347 0.447753
v -0.705366 -0.098562 0.451527
v -0.705262 -0.097945 0.453543
v -0.704010 -0.098381 0.455515
v -0.702009 -0.100127 0.456534
v -0.701160 -0.105079 0.454742
v -0.700638 -0.106755 0.455668
v -0.700612 -0.104547 0.456419
v -0.701202 -0.103898 0.455795
v -0.698892 -0.106241 0.456518
v -0.699452 -0.104272 0.456928
v -0.700336 -0.101507 0.457578
v -0.699289 -0.103151 0.456404
v -0.697915 -0.105412 0.456093
v -0.700383 -0.102905 0.457893
v -0.702209 -0.102298 0.456687
v -0.700756 -0.102424 0.455633
v -0.700636 -0.103434 0.454224
v -0.698976 -0.103224 0.454454
v -0.700787 -0.103695 0.453205
v -0.701348 -0.105415 0.453631
v -0.704319 -0.101778 0.447160
v -0.703490 -0.100968 0.446960
v -0.704796 -0.098073 0.447157
v -0.704382 -0.098618 0.448914
v -0.704577 -0.099721 0.450110
v -0.705858 -0.099817 0.452006
v -0.704871 -0.100788 0.450420
v -0.703268 -0.101220 0.449686
v -0.703689 -0.101909 0.450054
v -0.702926 -0.100557 0.448788
v -0.702912 -0.100267 0.447566
v -0.702524 -0.103983 0.448158
v -0.701773 -0.103066 0.447957
v -0.700242 -0.104764 0.448533
v -0.701272 -0.106241 0.448785
v -0.701077 -0.101889 0.448338
v -0.701344 -0.101751 0.449482
v -0.702567 -0.102933 0.450740
v -0.701930 -0.102198 0.450302
v -0.701316 -0.103655 0.452074
v -0.700255 -0.102831 0.451497
v -0.699375 -0.103078 0.452842
v -0.697243 -0.104333 0.454329
v -0.697411 -0.103518 0.452303
v -0.698786 -0.102747 0.450406
v -0.699251 -0.103345 0.448919
v -0.696139 -0.106195 0.454114
v -0.697106 -0.107485 0.455471
v -0.698423 -0.108341 0.455914
v -0.700233 -0.108825 0.455381
v -0.698723 -0.106408 0.449252
v -0.699961 -0.107808 0.449649
v -0.697174 -0.105093 0.449636
v -0.696040 -0.105142 0.452174
v -0.696380 -0.104664 0.450667
v -0.695830 -0.106880 0.452204
v -0.696108 -0.107870 0.453426
v -0.697144 -0.108829 0.454352
v -0.697880 -0.107625 0.450206
v -0.699019 -0.108710 0.450732
v -0.696768 -0.106732 0.450326
v -0.696071 -0.106794 0.451216
v -0.696861 -0.108286 0.451787
v -0.697918 -0.109303 0.452484
v -0.698301 -0.109471 0.454808
v -0.699411 -0.109770 0.454760
v -0.699031 -0.109830 0.453261
v -0.700066 -0.109983 0.453874
v -0.700020 -0.109307 0.451724
v -0.700432 -0.109605 0.452721
v -0.701252 -0.109198 0.453689
v -0.700951 -0.108559 0.450714
v -0.701791 -0.105068 0.452139
v -0.702046 -0.107048 0.449791
v -0.701635 -0.107413 0.453574
v -0.701236 -0.108849 0.452154
v -0.707420 -0.086232 0.454123
v -0.705268 -0.088203 0.456249
v -0.707777 -0.088268 0.451753
v -0.708933 -0.089833 0.449560
v -0.709585 -0.084111 0.452121
v -0.709064 -0.085855 0.449771
v -0.710261 -0.086775 0.448213
v -0.709032 -0.083254 0.450919
v -0.709482 -0.084251 0.448578
v -0.710577 -0.084499 0.446867
v -0.710508 -0.089884 0.447498
v -0.712133 -0.086902 0.446643
v -0.713023 -0.089814 0.446211
v -0.714739 -0.090540 0.446413
v -0.712198 -0.084376 0.445194
v -0.714825 -0.085881 0.445612
v -0.713529 -0.083233 0.443554
v -0.714403 -0.080540 0.441402
v -0.716776 -0.082782 0.443457
v -0.715415 -0.077098 0.440219
v -0.718969 -0.079072 0.442368
v -0.715222 -0.061814 0.444686
v -0.715689 -0.061232 0.446439
v -0.716953 -0.087531 0.446016
v -0.716981 -0.092243 0.447948
v -0.718832 -0.094209 0.449652
v -0.719365 -0.084937 0.444709
v -0.722459 -0.080881 0.443856
v -0.714207 -0.063633 0.442990
v -0.723117 -0.086848 0.446465
v -0.726178 -0.082651 0.445333
v -0.709621 -0.071662 0.454383
v -0.720283 -0.089775 0.447947
v -0.721078 -0.092139 0.450714
v -0.724322 -0.088206 0.452503
v -0.722397 -0.090712 0.453914
v -0.721067 -0.089998 0.456914
v -0.722457 -0.086541 0.456012
v -0.726338 -0.087504 0.448472
v -0.729482 -0.084039 0.446616
v -0.711108 -0.067410 0.455056
v -0.708281 -0.079126 0.449783
v -0.693400 -0.074004 0.496401
v -0.692415 -0.073478 0.495963
v -0.693071 -0.072514 0.495979
v -0.690678 -0.074913 0.493217
v -0.690358 -0.073558 0.494094
v -0.698573 -0.075203 0.481483
v -0.702867 -0.076418 0.477217
v -0.699187 -0.074200 0.481448
v -0.706135 -0.076983 0.473672
v -0.712853 -0.063715 0.454797
v -0.714600 -0.061268 0.452754
v -0.695763 -0.076779 0.489559
v -0.695093 -0.075943 0.488973
v -0.709889 -0.077789 0.442932
v -0.694759 -0.074617 0.489339
v -0.692599 -0.073276 0.494461
v -0.709058 -0.071685 0.455769
v -0.710998 -0.067166 0.456278
v -0.696539 -0.074125 0.489577
v -0.713033 -0.063507 0.455765
v -0.708857 -0.077915 0.474328
v -0.710136 -0.078881 0.479485
v -0.715141 -0.061101 0.453895
v -0.716457 -0.060654 0.451421
v -0.717194 -0.060821 0.449310
v -0.715353 -0.063321 0.441974
v -0.728372 -0.082508 0.456343
v -0.727737 -0.084651 0.455008
v -0.727737 -0.086273 0.452849
v -0.729311 -0.086751 0.450173
v -0.733712 -0.086417 0.452126
v -0.732150 -0.085844 0.454036
v -0.731811 -0.084545 0.455306
v -0.731928 -0.082744 0.456339
v -0.716839 -0.061525 0.444561
v -0.732958 -0.084903 0.456492
v -0.732701 -0.083119 0.457694
v -0.717438 -0.061088 0.447209
v -0.712389 -0.070166 0.439217
v -0.733946 -0.083570 0.459660
v -0.733998 -0.084754 0.458232
v -0.713937 -0.066098 0.440429
v -0.736193 -0.084243 0.460480
v -0.733943 -0.086387 0.455409
v -0.736080 -0.087808 0.454685
v -0.735584 -0.085548 0.458053
v -0.713208 -0.058300 0.467426
v -0.739094 -0.084940 0.460983
v -0.738321 -0.086539 0.457678
v -0.738618 -0.088618 0.454272
v -0.737751 -0.087638 0.452320
v -0.720128 -0.058514 0.469584
v -0.742089 -0.085651 0.460508
v -0.741497 -0.088603 0.452808
v -0.741522 -0.089019 0.454444
v -0.744401 -0.089072 0.455010
v -0.745250 -0.088818 0.453745
v -0.741051 -0.087152 0.457256
v -0.718930 -0.060285 0.471087
v -0.744569 -0.086463 0.459424
v -0.743475 -0.087720 0.457012
v -0.745902 -0.088563 0.456448
v -0.746500 -0.087326 0.457998
v -0.747917 -0.088236 0.455053
v -0.715915 -0.058820 0.464359
v -0.713739 -0.058602 0.471575
v -0.732352 -0.084311 0.448088
v -0.711155 -0.058116 0.466340
v -0.735636 -0.085433 0.450172
v -0.738790 -0.086355 0.451159
v -0.742158 -0.087362 0.451859
v -0.745824 -0.087885 0.452712
v -0.747959 -0.087200 0.453148
v -0.715145 -0.057125 0.462756
v -0.736543 -0.084205 0.449961
v -0.734335 -0.083201 0.448453
v -0.739341 -0.085252 0.451071
v -0.712744 -0.060787 0.473284
v -0.720138 -0.060016 0.466472
v -0.707753 -0.080899 0.448307
v -0.708308 -0.080397 0.445938
v -0.709743 -0.058247 0.471065
v -0.709768 -0.058759 0.472725
v -0.742450 -0.086193 0.451708
v -0.709764 -0.059969 0.474429
v -0.745354 -0.086727 0.452341
v -0.747091 -0.086439 0.452673
v -0.707613 -0.058080 0.474151
v -0.706992 -0.058780 0.475202
v -0.707723 -0.057582 0.473259
v -0.722891 -0.092670 0.454670
v -0.722304 -0.094236 0.452205
v -0.720699 -0.096680 0.451252
v -0.719040 -0.098754 0.451434
v -0.717369 -0.100506 0.452189
v -0.712604 -0.103950 0.459516
v -0.710246 -0.102154 0.458494
v -0.710561 -0.102501 0.461478
v -0.712840 -0.103512 0.461833
v -0.713631 -0.102414 0.464172
v -0.714894 -0.100646 0.466171
v -0.716978 -0.097858 0.466236
v -0.717950 -0.096002 0.464880
v -0.719194 -0.094174 0.463108
v -0.720772 -0.092844 0.460660
v -0.722046 -0.092236 0.457645
v -0.719818 -0.097110 0.453369
v -0.718856 -0.098666 0.453360
v -0.720826 -0.095166 0.453936
v -0.721175 -0.093926 0.455461
v -0.720926 -0.093551 0.457599
v -0.719804 -0.094356 0.459951
v -0.717507 -0.100058 0.454013
v -0.717661 -0.098165 0.454937
v -0.713803 -0.102812 0.459826
v -0.714028 -0.102418 0.461436
v -0.714575 -0.101227 0.462834
v -0.719026 -0.094914 0.457899
v -0.718792 -0.095386 0.461993
v -0.717846 -0.096772 0.463508
v -0.716954 -0.098330 0.464431
v -0.715650 -0.099806 0.464261
v -0.714368 -0.100913 0.460988
v -0.702074 -0.106776 0.451343
v -0.715473 -0.102051 0.455495
v -0.714878 -0.102811 0.454137
v -0.713269 -0.103949 0.457095
v -0.714130 -0.103168 0.457926
v -0.710968 -0.101485 0.455915
v -0.710366 -0.099125 0.452016
v -0.712855 -0.100257 0.452960
v -0.718223 -0.096239 0.456270
v -0.715642 -0.099650 0.456652
v -0.717753 -0.095928 0.459998
v -0.716484 -0.097280 0.458181
v -0.714457 -0.100877 0.458875
v -0.716356 -0.098286 0.462840
v -0.716897 -0.097069 0.461625
v -0.715380 -0.098287 0.460093
v -0.715310 -0.099272 0.462214
v -0.703094 -0.104015 0.450552
v -0.703116 -0.104712 0.448767
v -0.703374 -0.104665 0.449704
v -0.704445 -0.102783 0.449684
v -0.704806 -0.102583 0.447892
v -0.704931 -0.102903 0.448856
v -0.705733 -0.101473 0.449912
v -0.706958 -0.100999 0.448016
v -0.706487 -0.101368 0.449067
v -0.708967 -0.099543 0.449809
v -0.707878 -0.100082 0.450964
v -0.706922 -0.100378 0.451708
v -0.705617 -0.099356 0.454113
v -0.708043 -0.099822 0.454704
v -0.706600 -0.099951 0.454417
v -0.707417 -0.100786 0.458113
v -0.704518 -0.100248 0.456313
v -0.701617 -0.103018 0.457366
v -0.701487 -0.101883 0.459331
v -0.704985 -0.101095 0.457893
v -0.708019 -0.101627 0.461863
v -0.705741 -0.101433 0.462598
v -0.702681 -0.100566 0.462524
v -0.706581 -0.098662 0.467926
v -0.697799 -0.097101 0.465589
v -0.703367 -0.093216 0.470733
v -0.695867 -0.092822 0.469038
v -0.702700 -0.098469 0.466698
v -0.699755 -0.093743 0.469368
v -0.697643 -0.087764 0.471693
v -0.695992 -0.088562 0.469833
v -0.697165 -0.088481 0.470579
v -0.697364 -0.086054 0.468570
v -0.697350 -0.085280 0.470839
v -0.697499 -0.085878 0.469573
v -0.700315 -0.085941 0.470152
v -0.699736 -0.086335 0.468184
v -0.699567 -0.086218 0.466460
v -0.709175 -0.090154 0.461498
v -0.703246 -0.086893 0.468981
v -0.703893 -0.088054 0.457657
v -0.701064 -0.085851 0.461767
v -0.702821 -0.088615 0.466623
v -0.705385 -0.087766 0.459584
v -0.707934 -0.090516 0.466095
v -0.707902 -0.092125 0.464035
v -0.702652 -0.087316 0.462640
v -0.710905 -0.074432 0.439054
v -0.708881 -0.056273 0.475888
v -0.709754 -0.082190 0.443721
v -0.709840 -0.080744 0.441382
v -0.710092 -0.077774 0.439585
v -0.709181 -0.082827 0.445676
v -0.708290 -0.083088 0.447720
v -0.707299 -0.082644 0.450345
v -0.706991 -0.080108 0.453032
v -0.707665 -0.076324 0.454772
v -0.708106 -0.055264 0.475321
v -0.707104 -0.081857 0.449360
v -0.707082 -0.079569 0.452187
v -0.708029 -0.075868 0.453664
v -0.708686 -0.057409 0.476696
v -0.710315 -0.073982 0.440619
v -0.711553 -0.070144 0.440911
v -0.709297 -0.077119 0.440760
v -0.708575 -0.080769 0.443209
v -0.708761 -0.079556 0.441751
v -0.708256 -0.081306 0.444744
v -0.707843 -0.081909 0.446777
v -0.708629 -0.079667 0.443339
v -0.707073 -0.072270 0.485108
v -0.703460 -0.072326 0.489741
v -0.704587 -0.074061 0.490695
v -0.706985 -0.074108 0.485475
v -0.700077 -0.072826 0.495886
v -0.702036 -0.073729 0.494552
v -0.705935 -0.068862 0.480963
v -0.702536 -0.070568 0.487073
v -0.714826 -0.047530 0.468552
v -0.718014 -0.047909 0.469905
v -0.720015 -0.046549 0.467713
v -0.716592 -0.048407 0.466246
v -0.728970 -0.057478 0.473785
v -0.729059 -0.054525 0.472448
v -0.726602 -0.054303 0.473498
v -0.726708 -0.057875 0.474683
v -0.731244 -0.056480 0.456684
v -0.728773 -0.055737 0.455206
v -0.728610 -0.053246 0.457461
v -0.730574 -0.054257 0.458576
v -0.713579 -0.048954 0.467806
v -0.714649 -0.049350 0.465710
v -0.716654 -0.049829 0.464658
v -0.714810 -0.050435 0.464477
v -0.716060 -0.051933 0.463285
v -0.714424 -0.052062 0.463672
v -0.715069 -0.054585 0.462497
v -0.713671 -0.054138 0.463409
v -0.713374 -0.056930 0.463369
v -0.712642 -0.056063 0.464339
v -0.709985 -0.056830 0.468736
v -0.708863 -0.057900 0.469482
v -0.707568 -0.057010 0.472043
v -0.709098 -0.056077 0.471021
v -0.706883 -0.054582 0.474215
v -0.708615 -0.054416 0.472769
v -0.707914 -0.050639 0.474976
v -0.708962 -0.051568 0.473336
v -0.711695 -0.047755 0.472736
v -0.711460 -0.049668 0.471140
v -0.701326 -0.075339 0.494889
v -0.704169 -0.075711 0.490876
v -0.699569 -0.074927 0.496265
v -0.697509 -0.069302 0.490073
v -0.693014 -0.068488 0.494285
v -0.692348 -0.068983 0.496549
v -0.698489 -0.069285 0.490800
v -0.693869 -0.070117 0.498214
v -0.693532 -0.071028 0.498492
v -0.696128 -0.073790 0.496963
v -0.691770 -0.069740 0.496763
v -0.699005 -0.070939 0.493478
v -0.701539 -0.068634 0.484819
v -0.703063 -0.065896 0.480354
v -0.709595 -0.065058 0.479361
v -0.704761 -0.063148 0.478770
v -0.706781 -0.059916 0.477445
v -0.713110 -0.061213 0.478232
v -0.712065 -0.051279 0.469979
v -0.713268 -0.051012 0.467908
v -0.713925 -0.051119 0.466133
v -0.710926 -0.052387 0.470980
v -0.710104 -0.053683 0.471321
v -0.710659 -0.054647 0.469941
v -0.711494 -0.055364 0.468241
v -0.712244 -0.053069 0.468975
v -0.712397 -0.055553 0.466540
v -0.713021 -0.055345 0.465160
v -0.711434 -0.056939 0.466441
v -0.713187 -0.053540 0.467313
v -0.713570 -0.053937 0.464537
v -0.713989 -0.052485 0.464265
v -0.713625 -0.053818 0.465817
v -0.714093 -0.051765 0.464965
v -0.704013 -0.063176 0.477028
v -0.705486 -0.060442 0.476079
v -0.702288 -0.066238 0.478988
v -0.700628 -0.068745 0.483030
v -0.708809 -0.062097 0.475655
v -0.707483 -0.064781 0.476877
v -0.705897 -0.067624 0.478903
v -0.712971 -0.067545 0.456864
v -0.710557 -0.072339 0.456422
v -0.713298 -0.073384 0.456708
v -0.715657 -0.068322 0.457298
v -0.722721 -0.071375 0.458869
v -0.720921 -0.076346 0.457838
v -0.725177 -0.077886 0.457778
v -0.726875 -0.073820 0.458335
v -0.716894 -0.074775 0.457202
v -0.719056 -0.069583 0.458078
v -0.724601 -0.066783 0.461369
v -0.720729 -0.065479 0.459669
v -0.728151 -0.065454 0.463453
v -0.727343 -0.063830 0.466616
v -0.723932 -0.063789 0.464704
v -0.717781 -0.064647 0.457048
v -0.715194 -0.064108 0.456218
v -0.727099 -0.054600 0.453309
v -0.727369 -0.050748 0.455690
v -0.717717 -0.054717 0.461355
v -0.719251 -0.051492 0.462774
v -0.719670 -0.048707 0.465191
v -0.720470 -0.062900 0.462555
v -0.717573 -0.061425 0.460452
v -0.727643 -0.062092 0.469672
v -0.724581 -0.061244 0.468418
v -0.719217 -0.063740 0.478702
v -0.715536 -0.067055 0.479857
v -0.712650 -0.070682 0.481002
v -0.710106 -0.073285 0.482374
v -0.728407 -0.060517 0.472194
v -0.725665 -0.059898 0.472099
v -0.724036 -0.059975 0.474319
v -0.724616 -0.058234 0.475988
v -0.709245 -0.068569 0.474552
v -0.710495 -0.066281 0.474543
v -0.716150 -0.067725 0.478506
v -0.713822 -0.070988 0.479600
v -0.712380 -0.069734 0.475228
v -0.713931 -0.066997 0.474593
v -0.719234 -0.064779 0.477255
v -0.711908 -0.063483 0.474039
v -0.715574 -0.064676 0.473871
v -0.721460 -0.062133 0.475821
v -0.721503 -0.060392 0.477387
v -0.717387 -0.062621 0.472805
v -0.726016 -0.047385 0.455311
v -0.725638 -0.050451 0.454294
v -0.724586 -0.047440 0.454708
v -0.725354 -0.053890 0.452975
v -0.719296 -0.054577 0.458816
v -0.721317 -0.051264 0.460294
v -0.721469 -0.053566 0.456540
v -0.722428 -0.049853 0.457883
v -0.723113 -0.053472 0.454501
v -0.723440 -0.049982 0.455402
v -0.723511 -0.048701 0.459747
v -0.722833 -0.049656 0.461501
v -0.721936 -0.049116 0.463634
v -0.721381 -0.046885 0.465308
v -0.724019 -0.042251 0.465097
v -0.724572 -0.040972 0.466511
v -0.723088 -0.042771 0.466601
v -0.723201 -0.043434 0.465760
v -0.722818 -0.040495 0.467360
v -0.721970 -0.042388 0.467130
v -0.720847 -0.045131 0.466870
v -0.721195 -0.042950 0.466328
v -0.721589 -0.040365 0.466821
v -0.721728 -0.044236 0.467564
v -0.722881 -0.045479 0.466052
v -0.721949 -0.044178 0.465232
v -0.722637 -0.042968 0.464188
v -0.721202 -0.042147 0.464521
v -0.723024 -0.042580 0.463276
v -0.724491 -0.041804 0.464115
v -0.725177 -0.044457 0.456611
v -0.724051 -0.044465 0.456275
v -0.723220 -0.047449 0.455506
v -0.723059 -0.047299 0.457378
v -0.723777 -0.046962 0.458810
v -0.724628 -0.048236 0.460510
v -0.724641 -0.046461 0.459379
v -0.723752 -0.044929 0.458966
v -0.724470 -0.044798 0.459470
v -0.723166 -0.044936 0.457957
v -0.723102 -0.044786 0.456712
v -0.725072 -0.042010 0.458372
v -0.723939 -0.042146 0.457996
v -0.723765 -0.040118 0.459187
v -0.725459 -0.039762 0.459741
v -0.722624 -0.042674 0.458096
v -0.722623 -0.043271 0.459119
v -0.724176 -0.043544 0.460530
v -0.723270 -0.043552 0.459968
v -0.723525 -0.042616 0.462133
v -0.722250 -0.042381 0.461457
v -0.721587 -0.042039 0.462901
v -0.720575 -0.040227 0.464900
v -0.720405 -0.040339 0.462719
v -0.721179 -0.041212 0.460548
v -0.722069 -0.040641 0.459253
v -0.720917 -0.038127 0.465342
v -0.722332 -0.038182 0.466905
v -0.723838 -0.038509 0.467433
v -0.725590 -0.039138 0.466871
v -0.723550 -0.038188 0.460501
v -0.725343 -0.038057 0.461149
v -0.721489 -0.038284 0.460653
v -0.720381 -0.038270 0.463203
v -0.720500 -0.038393 0.461595
v -0.721307 -0.036890 0.463750
v -0.722015 -0.036700 0.465168
v -0.723321 -0.036914 0.466216
v -0.723565 -0.037055 0.461845
v -0.725070 -0.037127 0.462537
v -0.722134 -0.037043 0.461821
v -0.721542 -0.036819 0.462759
v -0.723029 -0.036396 0.463646
v -0.724410 -0.036517 0.464490
v -0.724569 -0.037299 0.466713
v -0.725616 -0.037762 0.466635
v -0.725518 -0.037050 0.465264
v -0.726348 -0.037761 0.465784
v -0.726112 -0.037604 0.463547
v -0.726512 -0.037931 0.464539
v -0.726786 -0.039017 0.465258
v -0.726465 -0.038436 0.462274
v -0.724771 -0.041906 0.462548
v -0.726456 -0.039952 0.460850
v -0.725972 -0.040516 0.464600
v -0.726716 -0.038818 0.463698
v -0.717091 -0.059654 0.458502
v -0.716445 -0.057480 0.461313
v -0.718890 -0.057731 0.456785
v -0.720993 -0.056699 0.455024
v -0.717640 -0.061980 0.455766
v -0.718577 -0.059721 0.454080
v -0.720240 -0.059363 0.452736
v -0.716801 -0.061911 0.454435
v -0.718018 -0.060805 0.452445
v -0.719196 -0.060825 0.450774
v -0.722455 -0.057064 0.452914
v -0.721927 -0.059999 0.451085
v -0.724485 -0.058326 0.451411
v -0.726244 -0.058936 0.451632
v -0.720544 -0.061456 0.448981
v -0.723471 -0.062135 0.449536
v -0.721023 -0.062654 0.446958
v -0.720230 -0.064542 0.444049
v -0.723255 -0.064990 0.446401
v -0.718970 -0.067333 0.441835
v -0.722730 -0.068744 0.444076
v -0.721156 -0.073911 0.442562
v -0.717138 -0.072067 0.440250
v -0.726106 -0.062391 0.450170
v -0.728881 -0.059547 0.453345
v -0.731366 -0.059771 0.455336
v -0.726475 -0.065410 0.447939
v -0.726404 -0.070047 0.445649
v -0.725083 -0.075617 0.444247
v -0.730386 -0.066882 0.449767
v -0.730232 -0.071518 0.447175
v -0.728800 -0.077215 0.445732
v -0.729881 -0.063406 0.452302
v -0.731689 -0.062982 0.455526
v -0.731538 -0.068374 0.455775
v -0.731478 -0.065754 0.458029
v -0.729692 -0.066290 0.460823
v -0.728689 -0.069408 0.458838
v -0.733074 -0.069000 0.451532
v -0.733520 -0.072951 0.448450
v -0.694215 -0.071762 0.496774
v -0.694224 -0.073055 0.496709
v -0.693170 -0.071399 0.496308
v -0.714303 -0.053746 0.475967
v -0.691828 -0.069518 0.494765
v -0.700508 -0.069887 0.482357
v -0.705026 -0.070486 0.478191
v -0.700355 -0.070990 0.481975
v -0.708270 -0.071116 0.474635
v -0.703962 -0.073510 0.478026
v -0.707096 -0.074013 0.474171
v -0.710995 -0.070956 0.447053
v -0.712513 -0.067190 0.447642
v -0.713291 -0.067023 0.444341
v -0.711861 -0.070699 0.443590
v -0.696381 -0.070159 0.490079
v -0.693341 -0.071234 0.494800
v -0.692832 -0.072215 0.494697
v -0.696244 -0.072709 0.490167
v -0.697421 -0.071701 0.489980
v -0.699176 -0.072408 0.481892
v -0.710887 -0.072337 0.475246
v -0.711945 -0.073910 0.480301
v -0.709712 -0.075081 0.474865
v -0.707353 -0.075985 0.485528
v -0.710997 -0.076486 0.480537
v -0.729331 -0.079310 0.457241
v -0.730690 -0.076136 0.457397
v -0.731683 -0.073806 0.456797
v -0.732924 -0.072016 0.455202
v -0.734718 -0.071896 0.452629
v -0.737699 -0.075460 0.453938
v -0.735936 -0.075436 0.455754
v -0.734728 -0.076526 0.456630
v -0.733582 -0.078197 0.457092
v -0.732589 -0.080450 0.456958
v -0.735715 -0.077325 0.457745
v -0.734272 -0.078797 0.458411
v -0.733125 -0.080953 0.458817
v -0.734327 -0.081727 0.460851
v -0.735311 -0.079814 0.460284
v -0.736242 -0.078584 0.459253
v -0.736554 -0.082680 0.461665
v -0.737379 -0.080982 0.461019
v -0.737517 -0.076564 0.457029
v -0.740130 -0.076674 0.456522
v -0.737981 -0.078957 0.459141
v -0.739333 -0.083745 0.461964
v -0.740000 -0.082448 0.461395
v -0.740751 -0.079861 0.458781
v -0.742640 -0.077568 0.456101
v -0.741559 -0.077173 0.454048
v -0.742544 -0.084802 0.461265
v -0.742805 -0.083684 0.460833
v -0.745004 -0.078975 0.454396
v -0.745113 -0.079159 0.456072
v -0.747306 -0.081096 0.456324
v -0.747933 -0.081451 0.454957
v -0.743284 -0.081020 0.458273
v -0.745611 -0.085676 0.459767
v -0.745337 -0.084353 0.459773
v -0.745534 -0.082065 0.457946
v -0.747993 -0.082820 0.457394
v -0.747516 -0.084535 0.458457
v -0.749487 -0.083926 0.455762
v -0.749019 -0.086493 0.457203
v -0.732173 -0.078599 0.446685
v -0.735751 -0.074975 0.449632
v -0.733369 -0.079111 0.447147
v -0.738770 -0.076822 0.451595
v -0.741676 -0.078423 0.452467
v -0.744834 -0.080019 0.453068
v -0.747898 -0.082192 0.453649
v -0.749067 -0.084158 0.453648
v -0.749104 -0.085909 0.453488
v -0.738722 -0.078218 0.450950
v -0.736546 -0.077126 0.449458
v -0.741418 -0.079543 0.452011
v -0.713037 -0.066503 0.441854
v -0.719817 -0.051413 0.474469
v -0.734727 -0.079746 0.448006
v -0.737351 -0.081045 0.450090
v -0.744340 -0.081004 0.452562
v -0.740271 -0.082338 0.451424
v -0.746847 -0.082630 0.453015
v -0.747970 -0.084027 0.453070
v -0.745681 -0.084497 0.452512
v -0.747702 -0.085292 0.452849
v -0.743253 -0.083509 0.451909
v -0.733008 -0.064862 0.459254
v -0.733794 -0.062656 0.457416
v -0.734188 -0.059606 0.457370
v -0.734190 -0.057113 0.458305
v -0.733921 -0.055010 0.459695
v -0.731646 -0.051608 0.468158
v -0.728805 -0.051138 0.466911
v -0.728956 -0.051935 0.469830
v -0.731313 -0.052735 0.470221
v -0.730990 -0.054692 0.472067
v -0.730647 -0.057336 0.473341
v -0.730500 -0.060683 0.472392
v -0.730226 -0.062252 0.470466
v -0.730223 -0.063854 0.468122
v -0.730860 -0.065111 0.465241
v -0.731775 -0.065493 0.462056
v -0.733558 -0.059344 0.459599
v -0.733792 -0.057610 0.460132
v -0.733058 -0.061547 0.459480
v -0.732390 -0.063100 0.460542
v -0.731741 -0.063824 0.462503
v -0.731136 -0.063206 0.465095
v -0.733557 -0.055940 0.461290
v -0.732393 -0.057672 0.461614
v -0.731825 -0.053274 0.468006
v -0.731583 -0.054160 0.469409
v -0.731112 -0.055765 0.470353
v -0.731099 -0.061729 0.463374
v -0.730789 -0.062405 0.467446
v -0.730771 -0.061238 0.469387
v -0.730964 -0.059812 0.470805
v -0.730901 -0.057875 0.471200
v -0.730948 -0.055336 0.468517
v -0.726145 -0.040614 0.462247
v -0.733086 -0.053641 0.463480
v -0.733243 -0.052330 0.462464
v -0.732410 -0.051336 0.465775
v -0.732498 -0.052680 0.466258
v -0.729210 -0.051344 0.464182
v -0.727671 -0.051568 0.459858
v -0.730203 -0.052577 0.460823
v -0.731480 -0.059800 0.462278
v -0.731590 -0.055815 0.463883
v -0.730534 -0.060792 0.465801
v -0.730593 -0.058499 0.464580
v -0.731215 -0.054816 0.466479
v -0.730641 -0.059015 0.469335
v -0.730421 -0.059892 0.467770
v -0.730174 -0.057620 0.466810
v -0.730517 -0.057466 0.469126
v -0.725281 -0.043036 0.460605
v -0.725922 -0.042028 0.459099
v -0.725994 -0.042495 0.459953
v -0.725641 -0.044532 0.459289
v -0.725982 -0.044389 0.457488
v -0.726178 -0.044513 0.458485
v -0.725789 -0.046360 0.459003
v -0.726634 -0.046932 0.456937
v -0.726392 -0.046668 0.458091
v -0.727083 -0.049760 0.458021
v -0.726461 -0.049015 0.459386
v -0.725832 -0.048412 0.460276
v -0.723933 -0.049020 0.462408
v -0.726036 -0.050371 0.462853
v -0.725033 -0.049291 0.462766
v -0.725803 -0.050248 0.466447
v -0.723416 -0.048308 0.464873
v -0.722805 -0.044779 0.466965
v -0.721789 -0.046079 0.468532
v -0.724143 -0.048435 0.466574
v -0.726406 -0.051084 0.470211
v -0.724449 -0.050004 0.471091
v -0.721552 -0.048692 0.471084
v -0.722806 -0.054057 0.475301
v -0.715296 -0.049012 0.473521
v -0.716619 -0.056786 0.476747
v -0.710762 -0.051876 0.475792
f 1 2 3
f 1 3 4
f 5 6 3
f 5 3 2
f 7 8 2
f 7 2 1
f 9 10 11
f 9 11 12
f 13 14 15
f 13 15 16
f 17 18 19
f 17 19 20
f 21 9 12
f 21 12 22
f 22 12 23
f 22 23 24
f 24 23 25
f 24 25 26
f 26 25 27
f 26 27 28
f 28 27 29
f 28 29 30
f 31 32 33
f 31 33 34
f 34 33 35
f 34 35 36
f 36 35 37
f 36 37 38
f 38 37 39
f 38 39 40
f 40 39 9
f 40 9 21
f 508 509 3
f 508 3 6
f 510 508 6
f 510 6 5
f 270 261 49
f 270 49 269
f 510 47 48
f 510 48 517
f 49 50 48
f 49 48 47
f 5 2 8
f 5 8 51
f 269 49 51
f 47 5 51
f 47 51 49
f 55 8 7
f 55 7 56
f 56 7 57
f 56 57 58
f 59 58 57
f 59 57 60
f 61 40 21
f 61 21 62
f 62 21 22
f 62 22 63
f 64 65 36
f 64 36 38
f 64 38 40
f 64 40 61
f 66 67 31
f 66 31 34
f 66 34 36
f 66 36 65
f 66 65 64
f 66 64 68
f 64 61 62
f 64 62 68
f 69 70 30
f 69 30 71
f 69 71 31
f 69 31 67
f 68 62 63
f 68 63 72
f 73 74 26
f 73 26 28
f 73 28 30
f 73 30 70
f 75 69 67
f 75 67 72
f 72 67 66
f 72 66 68
f 76 63 22
f 76 22 24
f 75 72 63
f 75 63 76
f 76 24 26
f 76 26 74
f 76 74 73
f 76 73 75
f 73 70 69
f 73 69 75
f 77 58 59
f 77 59 78
f 79 56 58
f 79 58 77
f 80 55 56
f 80 56 79
f 77 78 81
f 77 81 82
f 79 77 82
f 79 82 83
f 84 550 551
f 84 551 87
f 88 554 555
f 88 555 91
f 87 551 557
f 87 557 93
f 557 554 88
f 557 88 93
f 93 88 94
f 93 94 95
f 94 96 97
f 94 97 98
f 99 87 93
f 99 93 95
f 84 87 99
f 84 99 100
f 101 102 19
f 101 19 18
f 103 27 25
f 103 25 104
f 104 25 23
f 104 23 105
f 95 94 98
f 95 98 106
f 107 99 95
f 107 95 106
f 98 97 108
f 98 108 109
f 110 60 57
f 110 57 111
f 111 57 7
f 111 7 112
f 112 7 1
f 112 1 113
f 114 13 16
f 114 16 115
f 109 108 114
f 109 114 115
f 116 115 16
f 116 16 117
f 118 83 82
f 118 82 119
f 120 111 112
f 120 112 121
f 120 121 122
f 120 122 123
f 124 110 111
f 124 111 120
f 119 82 81
f 119 81 125
f 123 119 125
f 123 125 126
f 124 120 123
f 124 123 126
f 127 128 110
f 127 110 124
f 127 116 117
f 127 117 128
f 127 124 126
f 127 126 129
f 130 102 131
f 130 131 132
f 131 102 101
f 131 101 133
f 134 103 104
f 134 104 135
f 136 134 135
f 136 135 137
f 138 136 137
f 138 137 139
f 138 139 131
f 138 131 133
f 140 137 135
f 140 135 141
f 142 141 135
f 142 135 104
f 105 23 12
f 105 12 11
f 143 142 104
f 143 104 105
f 144 145 146
f 144 146 147
f 146 145 148
f 146 148 149
f 143 105 11
f 143 11 150
f 151 149 148
f 151 148 152
f 150 153 149
f 150 149 151
f 147 154 143
f 147 143 155
f 155 143 150
f 155 150 151
f 144 147 155
f 144 155 156
f 156 155 151
f 156 151 157
f 158 159 144
f 158 144 156
f 160 130 132
f 160 132 161
f 132 131 139
f 132 139 162
f 162 139 137
f 162 137 163
f 164 140 165
f 164 165 166
f 163 137 140
f 163 140 164
f 167 164 166
f 167 166 168
f 169 163 164
f 169 164 167
f 170 162 163
f 170 163 169
f 170 161 132
f 170 132 162
f 171 160 161
f 171 161 172
f 173 174 171
f 173 171 172
f 172 161 170
f 172 170 175
f 175 170 169
f 175 169 176
f 167 168 177
f 167 177 178
f 176 169 167
f 176 167 178
f 178 177 179
f 178 179 180
f 158 156 157
f 158 157 181
f 180 179 158
f 180 158 181
f 157 151 152
f 157 152 182
f 183 181 157
f 183 157 182
f 184 180 181
f 184 181 183
f 184 176 178
f 184 178 180
f 185 175 176
f 185 176 184
f 185 173 172
f 185 172 175
f 186 182 152
f 186 152 187
f 187 152 148
f 187 148 188
f 188 148 145
f 188 145 189
f 190 191 174
f 190 174 173
f 190 173 185
f 190 185 192
f 183 182 186
f 183 186 193
f 184 183 193
f 184 193 194
f 192 185 184
f 192 184 194
f 195 193 186
f 195 186 196
f 196 186 187
f 196 187 197
f 198 199 191
f 198 191 190
f 198 190 192
f 198 192 200
f 201 195 196
f 201 196 202
f 194 193 195
f 194 195 201
f 200 192 194
f 200 194 201
f 202 198 200
f 202 200 201
f 202 196 197
f 202 197 203
f 203 199 198
f 203 198 202
f 204 197 187
f 204 187 188
f 204 188 189
f 204 189 205
f 206 203 197
f 206 197 204
f 206 204 205
f 206 205 207
f 208 199 203
f 208 203 206
f 208 206 207
f 208 207 209
f 207 205 189
f 207 189 210
f 211 191 199
f 211 199 208
f 159 158 179
f 159 179 212
f 213 174 191
f 213 191 211
f 145 144 159
f 145 159 214
f 214 210 189
f 214 189 145
f 215 211 208
f 215 208 209
f 215 209 207
f 215 207 210
f 216 217 134
f 216 134 218
f 218 134 136
f 218 136 219
f 220 99 107
f 220 107 216
f 221 220 216
f 221 216 218
f 221 218 219
f 221 219 222
f 223 100 99
f 223 99 220
f 224 223 220
f 224 220 221
f 224 221 222
f 224 222 225
f 226 219 136
f 226 136 138
f 227 222 219
f 227 219 226
f 228 133 101
f 228 101 229
f 226 138 133
f 226 133 228
f 230 225 222
f 230 222 227
f 231 227 226
f 231 226 228
f 230 227 231
f 230 231 232
f 233 232 231
f 233 231 234
f 235 233 234
f 235 234 236
f 702 703 235
f 702 235 236
f 231 228 229
f 231 229 239
f 229 101 18
f 229 18 240
f 18 17 241
f 18 241 240
f 234 231 239
f 234 239 242
f 243 236 234
f 243 234 242
f 702 236 243
f 702 243 709
f 243 242 245
f 243 245 246
f 709 243 246
f 709 246 712
f 248 239 229
f 248 229 240
f 245 242 239
f 245 239 248
f 248 240 241
f 248 241 249
f 250 248 249
f 250 249 251
f 251 252 253
f 251 253 250
f 253 252 96
f 253 96 94
f 253 94 88
f 253 88 91
f 254 245 248
f 254 248 250
f 246 245 254
f 246 254 255
f 5 47 510
f 48 258 722
f 48 722 517
f 258 48 50
f 258 50 259
f 260 722 258
f 260 258 259
f 50 49 261
f 50 261 262
f 80 79 83
f 80 83 263
f 263 83 264
f 263 264 265
f 122 118 119
f 122 119 123
f 264 83 118
f 264 118 266
f 730 264 266
f 730 266 731
f 51 8 55
f 51 55 269
f 270 269 55
f 270 55 80
f 732 45 52
f 732 52 735
f 272 262 261
f 272 261 270
f 272 270 80
f 272 80 263
f 273 259 50
f 273 50 262
f 738 260 259
f 738 259 273
f 739 738 273
f 739 273 276
f 739 276 265
f 739 265 741
f 272 263 265
f 272 265 276
f 273 262 272
f 273 272 276
f 265 264 730
f 265 730 741
f 278 122 121
f 278 121 279
f 266 118 122
f 266 122 278
f 279 121 112
f 279 112 113
f 731 266 278
f 731 278 744
f 4 3 509
f 4 509 745
f 113 1 4
f 113 4 745
f 746 279 113
f 746 113 745
f 744 278 279
f 744 279 746
f 91 555 747
f 91 747 284
f 285 253 91
f 285 91 284
f 250 253 285
f 250 285 286
f 254 250 286
f 254 286 287
f 288 287 286
f 288 286 289
f 289 286 285
f 289 285 290
f 290 285 284
f 290 284 291
f 291 284 747
f 291 747 756
f 293 290 291
f 293 291 294
f 294 291 756
f 294 756 759
f 294 759 760
f 294 760 297
f 293 294 297
f 293 297 298
f 297 760 763
f 297 763 300
f 301 289 290
f 301 290 293
f 302 288 289
f 302 289 301
f 303 298 297
f 303 297 300
f 301 293 298
f 301 298 303
f 300 763 768
f 300 768 305
f 306 302 301
f 306 301 303
f 306 303 300
f 306 300 305
f 307 308 288
f 307 288 302
f 305 768 773
f 305 773 310
f 311 308 307
f 311 307 312
f 313 314 311
f 313 311 312
f 307 302 306
f 307 306 315
f 315 306 305
f 315 305 310
f 310 773 780
f 310 780 317
f 318 312 307
f 318 307 315
f 319 313 312
f 319 312 318
f 318 317 320
f 318 320 319
f 318 315 310
f 318 310 317
f 321 314 313
f 321 313 319
f 321 319 320
f 321 320 786
f 786 320 317
f 786 317 780
f 712 246 255
f 712 255 787
f 255 254 287
f 255 287 324
f 789 787 255
f 789 255 324
f 324 287 288
f 324 288 326
f 327 326 288
f 327 288 308
f 328 327 308
f 328 308 311
f 329 328 311
f 329 311 314
f 330 329 314
f 330 314 321
f 795 330 321
f 795 321 786
f 332 333 324
f 332 324 326
f 332 326 327
f 332 327 334
f 52 460 461
f 52 461 735
f 801 789 324
f 801 324 333
f 801 333 332
f 801 332 802
f 341 334 327
f 341 327 328
f 802 332 334
f 802 334 804
f 343 341 328
f 343 328 329
f 343 329 330
f 343 330 344
f 807 343 344
f 807 344 808
f 808 344 330
f 808 330 795
f 804 334 341
f 804 341 809
f 809 341 343
f 809 343 807
f 348 251 249
f 348 249 349
f 349 249 241
f 349 241 350
f 350 241 17
f 350 17 351
f 351 17 20
f 351 20 352
f 353 354 355
f 353 355 356
f 356 355 14
f 356 14 357
f 357 14 13
f 357 13 358
f 358 13 114
f 358 114 359
f 359 114 108
f 359 108 360
f 360 108 97
f 360 97 361
f 361 97 96
f 361 96 362
f 362 96 252
f 362 252 363
f 363 252 251
f 363 251 348
f 364 350 351
f 364 351 365
f 364 366 349
f 364 349 350
f 367 348 349
f 367 349 366
f 368 363 348
f 368 348 367
f 369 362 363
f 369 363 368
f 370 365 351
f 370 351 352
f 371 364 365
f 371 365 370
f 372 353 356
f 372 356 373
f 374 373 356
f 374 356 357
f 369 368 367
f 369 367 375
f 376 361 362
f 376 362 369
f 377 360 361
f 377 361 376
f 378 359 360
f 378 360 377
f 379 358 359
f 379 359 378
f 379 374 357
f 379 357 358
f 380 372 373
f 380 373 374
f 214 159 212
f 214 212 381
f 382 370 352
f 382 352 383
f 382 383 384
f 382 384 385
f 385 384 353
f 385 353 372
f 386 354 353
f 386 353 384
f 20 19 387
f 20 387 388
f 386 384 383
f 386 383 388
f 388 383 352
f 388 352 20
f 375 367 366
f 375 366 389
f 389 366 364
f 389 364 371
f 390 371 370
f 390 370 382
f 376 369 375
f 376 375 391
f 392 391 375
f 392 375 389
f 392 389 371
f 392 371 390
f 393 385 372
f 393 372 380
f 394 378 377
f 394 377 395
f 393 390 382
f 393 382 385
f 377 376 391
f 377 391 395
f 396 395 391
f 396 391 392
f 397 394 395
f 397 395 396
f 379 378 394
f 379 394 397
f 380 374 379
f 380 379 397
f 396 393 380
f 396 380 397
f 396 392 390
f 396 390 393
f 381 213 211
f 381 211 215
f 381 215 210
f 381 210 214
f 212 179 177
f 212 177 398
f 399 171 174
f 399 174 213
f 400 399 213
f 400 213 381
f 400 381 212
f 400 212 398
f 398 177 168
f 398 168 401
f 402 160 171
f 402 171 399
f 403 402 399
f 403 399 400
f 403 400 398
f 403 398 401
f 401 168 166
f 401 166 404
f 405 130 160
f 405 160 402
f 406 405 402
f 406 402 403
f 406 403 401
f 406 401 404
f 407 387 19
f 407 19 102
f 102 130 405
f 102 405 407
f 408 407 405
f 408 405 406
f 404 166 165
f 404 165 409
f 410 165 140
f 410 140 141
f 411 386 388
f 411 388 387
f 411 387 407
f 411 407 408
f 408 406 404
f 408 404 409
f 412 411 408
f 412 408 409
f 412 409 165
f 412 165 410
f 413 354 386
f 413 386 411
f 414 142 143
f 414 143 154
f 414 410 141
f 414 141 142
f 415 146 149
f 415 149 153
f 154 147 146
f 154 146 415
f 153 150 11
f 153 11 416
f 417 413 411
f 417 411 412
f 417 412 410
f 417 410 414
f 417 414 154
f 417 154 415
f 417 415 153
f 417 153 416
f 418 355 354
f 418 354 413
f 418 15 14
f 418 14 355
f 419 418 413
f 419 413 417
f 419 417 416
f 419 416 420
f 421 117 16
f 421 16 15
f 422 10 9
f 422 9 39
f 423 60 110
f 423 110 128
f 424 422 39
f 424 39 37
f 423 128 117
f 423 117 421
f 419 420 425
f 419 425 421
f 421 15 418
f 421 418 419
f 420 10 422
f 420 422 425
f 416 11 10
f 416 10 420
f 425 422 424
f 425 424 426
f 423 421 425
f 423 425 426
f 59 60 423
f 59 423 427
f 428 424 37
f 428 37 35
f 426 424 428
f 426 428 429
f 427 423 426
f 427 426 429
f 428 35 33
f 428 33 430
f 431 78 59
f 431 59 427
f 432 431 427
f 432 427 429
f 432 429 428
f 432 428 430
f 81 78 431
f 81 431 433
f 434 433 431
f 434 431 432
f 430 33 32
f 430 32 435
f 434 432 430
f 434 430 435
f 436 106 98
f 436 98 109
f 125 81 433
f 125 433 437
f 129 126 125
f 129 125 437
f 29 27 103
f 29 103 438
f 438 103 134
f 438 134 217
f 71 30 29
f 71 29 439
f 32 31 71
f 32 71 439
f 440 437 433
f 440 433 434
f 441 217 216
f 441 216 107
f 442 129 437
f 442 437 440
f 441 107 106
f 441 106 436
f 442 116 127
f 442 127 129
f 443 436 109
f 443 109 115
f 444 441 436
f 444 436 443
f 443 115 116
f 443 116 442
f 443 442 440
f 443 440 444
f 444 440 434
f 444 434 435
f 444 435 32
f 444 32 439
f 444 439 29
f 444 29 438
f 444 438 217
f 444 217 441
f 445 235 703
f 445 703 296
f 447 230 232
f 447 232 448
f 449 233 235
f 449 235 445
f 448 232 233
f 448 233 449
f 450 225 230
f 450 230 447
f 451 224 225
f 451 225 450
f 452 223 224
f 452 224 451
f 453 100 223
f 453 223 452
f 84 100 453
f 84 453 454
f 550 84 454
f 550 454 274
f 453 452 456
f 453 456 457
f 458 454 453
f 458 453 457
f 247 274 454
f 247 454 458
f 460 445 296
f 460 296 461
f 449 445 460
f 449 460 462
f 463 447 448
f 463 448 464
f 464 448 449
f 464 449 462
f 450 447 463
f 450 463 465
f 451 450 465
f 451 465 466
f 456 452 451
f 456 451 466
f 465 463 464
f 465 464 467
f 466 465 467
f 466 467 338
f 337 456 466
f 337 466 338
f 467 464 462
f 467 462 271
f 457 456 337
f 457 337 257
f 54 257 337
f 54 337 338
f 54 338 467
f 54 467 271
f 458 457 257
f 458 257 53
f 52 271 462
f 52 462 460
f 45 53 257
f 45 257 54
f 45 54 271
f 45 271 52
f 247 458 53
f 247 53 41
f 41 53 45
f 41 45 732
f 468 471 470
f 468 470 469
f 472 469 470
f 472 470 473
f 474 468 469
f 474 469 475
f 476 479 478
f 476 478 477
f 480 483 482
f 480 482 481
f 484 487 486
f 484 486 485
f 488 489 479
f 488 479 476
f 489 491 490
f 489 490 479
f 491 493 492
f 491 492 490
f 493 495 494
f 493 494 492
f 495 497 496
f 495 496 494
f 498 501 500
f 498 500 499
f 501 503 502
f 501 502 500
f 503 505 504
f 503 504 502
f 505 507 506
f 505 506 504
f 507 488 476
f 507 476 506
f 508 473 470
f 508 470 509
f 510 472 473
f 510 473 508
f 511 514 513
f 511 513 512
f 510 517 516
f 510 516 515
f 513 515 516
f 513 516 518
f 472 519 475
f 472 475 469
f 519 513 514
f 515 513 519
f 515 519 472
f 520 521 474
f 520 474 475
f 521 523 522
f 521 522 474
f 524 525 522
f 524 522 523
f 526 527 488
f 526 488 507
f 527 528 489
f 527 489 488
f 529 505 503
f 529 503 530
f 529 526 507
f 529 507 505
f 531 501 498
f 531 498 532
f 531 530 503
f 531 503 501
f 531 533 529
f 531 529 530
f 529 533 527
f 529 527 526
f 534 536 497
f 534 497 535
f 534 532 498
f 534 498 536
f 533 537 528
f 533 528 527
f 538 495 493
f 538 493 539
f 538 535 497
f 538 497 495
f 540 537 532
f 540 532 534
f 537 533 531
f 537 531 532
f 541 491 489
f 541 489 528
f 540 541 528
f 540 528 537
f 541 539 493
f 541 493 491
f 541 540 538
f 541 538 539
f 538 540 534
f 538 534 535
f 542 543 524
f 542 524 523
f 544 542 523
f 544 523 521
f 545 544 521
f 545 521 520
f 542 547 546
f 542 546 543
f 544 548 547
f 544 547 542
f 549 552 551
f 549 551 550
f 553 556 555
f 553 555 554
f 552 558 557
f 552 557 551
f 557 558 553
f 557 553 554
f 558 560 559
f 558 559 553
f 559 563 562
f 559 562 561
f 564 560 558
f 564 558 552
f 549 565 564
f 549 564 552
f 566 485 486
f 566 486 567
f 568 569 492
f 568 492 494
f 569 570 490
f 569 490 492
f 560 571 563
f 560 563 559
f 572 571 560
f 572 560 564
f 563 574 573
f 563 573 562
f 575 576 522
f 575 522 525
f 576 577 474
f 576 474 522
f 577 578 468
f 577 468 474
f 579 580 483
f 579 483 480
f 574 580 579
f 574 579 573
f 581 582 483
f 581 483 580
f 583 584 547
f 583 547 548
f 585 586 577
f 585 577 576
f 585 588 587
f 585 587 586
f 589 585 576
f 589 576 575
f 584 590 546
f 584 546 547
f 588 591 590
f 588 590 584
f 589 591 588
f 589 588 585
f 592 589 575
f 592 575 593
f 592 593 582
f 592 582 581
f 592 594 591
f 592 591 589
f 595 597 596
f 595 596 567
f 596 598 566
f 596 566 567
f 599 600 569
f 599 569 568
f 601 602 600
f 601 600 599
f 603 604 602
f 603 602 601
f 603 598 596
f 603 596 604
f 605 606 600
f 605 600 602
f 607 569 600
f 607 600 606
f 570 478 479
f 570 479 490
f 608 570 569
f 608 569 607
f 609 612 611
f 609 611 610
f 611 614 613
f 611 613 610
f 608 615 478
f 608 478 570
f 616 617 613
f 616 613 614
f 615 616 614
f 615 614 618
f 612 620 608
f 612 608 619
f 620 616 615
f 620 615 608
f 609 621 620
f 609 620 612
f 621 622 616
f 621 616 620
f 623 621 609
f 623 609 624
f 625 626 597
f 625 597 595
f 597 627 604
f 597 604 596
f 627 628 602
f 627 602 604
f 629 631 630
f 629 630 605
f 628 629 605
f 628 605 602
f 632 633 631
f 632 631 629
f 634 632 629
f 634 629 628
f 635 634 628
f 635 628 627
f 635 627 597
f 635 597 626
f 636 637 626
f 636 626 625
f 638 637 636
f 638 636 639
f 637 640 635
f 637 635 626
f 640 641 634
f 640 634 635
f 632 643 642
f 632 642 633
f 641 643 632
f 641 632 634
f 643 645 644
f 643 644 642
f 623 646 622
f 623 622 621
f 645 646 623
f 645 623 644
f 622 647 617
f 622 617 616
f 648 647 622
f 648 622 646
f 649 648 646
f 649 646 645
f 649 645 643
f 649 643 641
f 650 649 641
f 650 641 640
f 650 640 637
f 650 637 638
f 651 652 617
f 651 617 647
f 652 653 613
f 652 613 617
f 653 654 610
f 653 610 613
f 655 638 639
f 655 639 656
f 655 657 650
f 655 650 638
f 648 658 651
f 648 651 647
f 649 659 658
f 649 658 648
f 657 659 649
f 657 649 650
f 660 661 651
f 660 651 658
f 661 662 652
f 661 652 651
f 663 655 656
f 663 656 664
f 663 665 657
f 663 657 655
f 666 667 661
f 666 661 660
f 659 666 660
f 659 660 658
f 665 666 659
f 665 659 657
f 667 666 665
f 667 665 663
f 667 668 662
f 667 662 661
f 668 667 663
f 668 663 664
f 669 653 652
f 669 652 662
f 669 670 654
f 669 654 653
f 671 669 662
f 671 662 668
f 671 672 670
f 671 670 669
f 673 671 668
f 673 668 664
f 673 674 672
f 673 672 671
f 672 675 654
f 672 654 670
f 676 673 664
f 676 664 656
f 624 677 644
f 624 644 623
f 678 676 656
f 678 656 639
f 610 679 624
f 610 624 609
f 679 610 654
f 679 654 675
f 680 674 673
f 680 673 676
f 680 675 672
f 680 672 674
f 681 683 599
f 681 599 682
f 683 684 601
f 683 601 599
f 685 681 572
f 685 572 564
f 686 683 681
f 686 681 685
f 686 687 684
f 686 684 683
f 688 685 564
f 688 564 565
f 689 686 685
f 689 685 688
f 689 690 687
f 689 687 686
f 691 603 601
f 691 601 684
f 692 691 684
f 692 684 687
f 693 694 566
f 693 566 598
f 691 693 598
f 691 598 603
f 695 692 687
f 695 687 690
f 696 693 691
f 696 691 692
f 695 697 696
f 695 696 692
f 698 699 696
f 698 696 697
f 700 701 699
f 700 699 698
f 702 701 700
f 702 700 703
f 696 704 694
f 696 694 693
f 694 705 485
f 694 485 566
f 485 705 706
f 485 706 484
f 699 707 704
f 699 704 696
f 708 707 699
f 708 699 701
f 702 709 708
f 702 708 701
f 708 711 710
f 708 710 707
f 709 712 711
f 709 711 708
f 713 705 694
f 713 694 704
f 710 713 704
f 710 704 707
f 713 714 706
f 713 706 705
f 715 716 714
f 715 714 713
f 716 715 718
f 716 718 717
f 718 559 561
f 718 561 717
f 718 556 553
f 718 553 559
f 719 715 713
f 719 713 710
f 711 720 719
f 711 719 710
f 510 515 472
f 516 517 722
f 516 722 721
f 721 723 518
f 721 518 516
f 260 723 721
f 260 721 722
f 518 725 512
f 518 512 513
f 545 726 548
f 545 548 544
f 726 728 727
f 726 727 548
f 587 588 584
f 587 584 583
f 727 729 583
f 727 583 548
f 730 731 729
f 730 729 727
f 519 514 520
f 519 520 475
f 511 545 520
f 511 520 514
f 732 735 734
f 732 734 733
f 736 511 512
f 736 512 725
f 736 726 545
f 736 545 511
f 737 725 518
f 737 518 723
f 738 737 723
f 738 723 260
f 739 740 737
f 739 737 738
f 739 741 728
f 739 728 740
f 736 740 728
f 736 728 726
f 737 740 736
f 737 736 725
f 728 741 730
f 728 730 727
f 742 743 586
f 742 586 587
f 729 742 587
f 729 587 583
f 743 578 577
f 743 577 586
f 731 744 742
f 731 742 729
f 471 745 509
f 471 509 470
f 578 745 471
f 578 471 468
f 746 745 578
f 746 578 743
f 744 746 743
f 744 743 742
f 556 748 747
f 556 747 555
f 749 748 556
f 749 556 718
f 715 750 749
f 715 749 718
f 719 751 750
f 719 750 715
f 752 753 750
f 752 750 751
f 753 754 749
f 753 749 750
f 754 755 748
f 754 748 749
f 755 756 747
f 755 747 748
f 757 758 755
f 757 755 754
f 758 759 756
f 758 756 755
f 758 761 760
f 758 760 759
f 757 762 761
f 757 761 758
f 761 764 763
f 761 763 760
f 765 757 754
f 765 754 753
f 766 765 753
f 766 753 752
f 767 764 761
f 767 761 762
f 765 767 762
f 765 762 757
f 764 769 768
f 764 768 763
f 770 767 765
f 770 765 766
f 770 769 764
f 770 764 767
f 771 766 752
f 771 752 772
f 769 774 773
f 769 773 768
f 775 776 771
f 775 771 772
f 777 776 775
f 777 775 778
f 771 779 770
f 771 770 766
f 779 774 769
f 779 769 770
f 774 781 780
f 774 780 773
f 782 779 771
f 782 771 776
f 783 782 776
f 783 776 777
f 782 783 784
f 782 784 781
f 782 781 774
f 782 774 779
f 785 783 777
f 785 777 778
f 785 786 784
f 785 784 783
f 786 780 781
f 786 781 784
f 712 787 720
f 712 720 711
f 720 788 751
f 720 751 719
f 789 788 720
f 789 720 787
f 788 790 752
f 788 752 751
f 791 772 752
f 791 752 790
f 792 775 772
f 792 772 791
f 793 778 775
f 793 775 792
f 794 785 778
f 794 778 793
f 795 786 785
f 795 785 794
f 796 790 788
f 796 788 797
f 796 798 791
f 796 791 790
f 734 735 461
f 734 461 799
f 801 797 788
f 801 788 789
f 801 802 796
f 801 796 797
f 803 792 791
f 803 791 798
f 802 804 798
f 802 798 796
f 805 793 792
f 805 792 803
f 805 806 794
f 805 794 793
f 807 808 806
f 807 806 805
f 808 795 794
f 808 794 806
f 804 809 803
f 804 803 798
f 809 807 805
f 809 805 803
f 810 811 714
f 810 714 716
f 811 812 706
f 811 706 714
f 812 813 484
f 812 484 706
f 813 814 487
f 813 487 484
f 815 818 817
f 815 817 816
f 818 819 481
f 818 481 817
f 819 820 480
f 819 480 481
f 820 821 579
f 820 579 480
f 821 822 573
f 821 573 579
f 822 823 562
f 822 562 573
f 823 824 561
f 823 561 562
f 824 825 717
f 824 717 561
f 825 810 716
f 825 716 717
f 826 827 813
f 826 813 812
f 826 812 811
f 826 811 828
f 829 828 811
f 829 811 810
f 830 829 810
f 830 810 825
f 831 830 825
f 831 825 824
f 832 814 813
f 832 813 827
f 833 832 827
f 833 827 826
f 834 835 818
f 834 818 815
f 836 819 818
f 836 818 835
f 831 837 829
f 831 829 830
f 838 831 824
f 838 824 823
f 839 838 823
f 839 823 822
f 840 839 822
f 840 822 821
f 841 840 821
f 841 821 820
f 841 820 819
f 841 819 836
f 842 836 835
f 842 835 834
f 679 843 677
f 679 677 624
f 844 845 814
f 844 814 832
f 844 847 846
f 844 846 845
f 847 834 815
f 847 815 846
f 848 846 815
f 848 815 816
f 487 850 849
f 487 849 486
f 848 850 845
f 848 845 846
f 850 487 814
f 850 814 845
f 837 851 828
f 837 828 829
f 851 833 826
f 851 826 828
f 852 844 832
f 852 832 833
f 838 853 837
f 838 837 831
f 854 851 837
f 854 837 853
f 854 852 833
f 854 833 851
f 855 842 834
f 855 834 847
f 856 857 839
f 856 839 840
f 855 847 844
f 855 844 852
f 839 857 853
f 839 853 838
f 858 854 853
f 858 853 857
f 859 858 857
f 859 857 856
f 841 859 856
f 841 856 840
f 842 859 841
f 842 841 836
f 858 859 842
f 858 842 855
f 858 855 852
f 858 852 854
f 843 680 676
f 843 676 678
f 843 679 675
f 843 675 680
f 677 860 642
f 677 642 644
f 861 678 639
f 861 639 636
f 862 843 678
f 862 678 861
f 862 860 677
f 862 677 843
f 860 863 633
f 860 633 642
f 864 861 636
f 864 636 625
f 865 862 861
f 865 861 864
f 865 863 860
f 865 860 862
f 863 866 631
f 863 631 633
f 867 864 625
f 867 625 595
f 868 865 864
f 868 864 867
f 868 866 863
f 868 863 865
f 869 567 486
f 869 486 849
f 567 869 867
f 567 867 595
f 870 868 867
f 870 867 869
f 866 871 630
f 866 630 631
f 872 606 605
f 872 605 630
f 873 849 850
f 873 850 848
f 873 870 869
f 873 869 849
f 870 871 866
f 870 866 868
f 874 871 870
f 874 870 873
f 874 872 630
f 874 630 871
f 875 873 848
f 875 848 816
f 876 619 608
f 876 608 607
f 876 607 606
f 876 606 872
f 877 618 614
f 877 614 611
f 619 877 611
f 619 611 612
f 618 878 478
f 618 478 615
f 879 874 873
f 879 873 875
f 879 876 872
f 879 872 874
f 879 877 619
f 879 619 876
f 879 878 618
f 879 618 877
f 880 875 816
f 880 816 817
f 880 817 481
f 880 481 482
f 881 879 875
f 881 875 880
f 881 882 878
f 881 878 879
f 883 482 483
f 883 483 582
f 884 506 476
f 884 476 477
f 885 593 575
f 885 575 525
f 886 504 506
f 886 506 884
f 885 883 582
f 885 582 593
f 881 883 800
f 881 800 882
f 883 881 880
f 883 880 482
f 882 800 884
f 882 884 477
f 878 882 477
f 878 477 478
f 800 724 886
f 800 886 884
f 885 724 800
f 885 800 883
f 524 459 885
f 524 885 525
f 455 502 504
f 455 504 886
f 724 446 455
f 724 455 886
f 459 446 724
f 459 724 885
f 455 347 500
f 455 500 502
f 346 459 524
f 346 524 543
f 345 446 459
f 345 459 346
f 345 347 455
f 345 455 446
f 546 342 346
f 546 346 543
f 340 345 346
f 340 346 342
f 347 339 499
f 347 499 500
f 340 339 347
f 340 347 345
f 336 574 563
f 336 563 571
f 590 335 342
f 590 342 546
f 594 335 590
f 594 590 591
f 496 331 568
f 496 568 494
f 331 682 599
f 331 599 568
f 536 325 496
f 536 496 497
f 499 325 536
f 499 536 498
f 323 340 342
f 323 342 335
f 322 572 681
f 322 681 682
f 316 323 335
f 316 335 594
f 322 336 571
f 322 571 572
f 316 594 592
f 316 592 581
f 309 580 574
f 309 574 336
f 304 309 336
f 304 336 322
f 309 316 581
f 309 581 580
f 309 304 323
f 309 323 316
f 304 339 340
f 304 340 323
f 304 325 499
f 304 499 339
f 304 331 496
f 304 496 325
f 304 322 682
f 304 682 331
f 299 296 703
f 299 703 700
f 295 292 697
f 295 697 695
f 283 299 700
f 283 700 698
f 292 283 698
f 292 698 697
f 282 295 695
f 282 695 690
f 281 282 690
f 281 690 689
f 280 281 689
f 280 689 688
f 277 280 688
f 277 688 565
f 549 275 277
f 549 277 565
f 550 274 275
f 550 275 549
f 277 267 268
f 277 268 280
f 256 267 277
f 256 277 275
f 247 256 275
f 247 275 274
f 799 461 296
f 799 296 299
f 283 244 799
f 283 799 299
f 238 237 292
f 238 292 295
f 237 244 283
f 237 283 292
f 282 92 238
f 282 238 295
f 281 90 92
f 281 92 282
f 268 90 281
f 268 281 280
f 92 89 237
f 92 237 238
f 90 86 89
f 90 89 92
f 85 86 90
f 85 90 268
f 89 46 244
f 89 244 237
f 267 44 85
f 267 85 268
f 43 86 85
f 43 85 44
f 43 46 89
f 43 89 86
f 256 42 44
f 256 44 267
f 734 799 244
f 734 244 46
f 733 43 44
f 733 44 42
f 733 734 46
f 733 46 43
f 247 41 42
f 247 42 256
f 41 732 733
f 41 733 42
