# C2_Axis rest
v 0.011498 0.236129 -0.030330
v 0.010127 0.233233 -0.035284
v 0.009242 0.235303 -0.035742
v 0.009920 0.236947 -0.030671
v 0.008639 0.230979 -0.041396
v 0.008653 0.233136 -0.039721
v 0.013471 0.232357 -0.027411
v 0.010961 0.230985 -0.033399
v 0.033312 0.223061 -0.016872
v 0.034459 0.226914 -0.016893
v 0.035993 0.226788 -0.014941
v 0.033023 0.224493 -0.014603
v 0.031720 0.246178 -0.015571
v 0.033802 0.243426 -0.014947
v 0.033220 0.241331 -0.016401
v 0.030700 0.244653 -0.016802
v 0.030768 0.240690 -0.002761
v 0.030177 0.236913 -0.002562
v 0.032411 0.235809 -0.004498
v 0.032534 0.239085 -0.004576
v 0.031579 0.222688 -0.016532
v 0.031418 0.223142 -0.014678
v 0.031713 0.225010 -0.013280
v 0.030452 0.223612 -0.013631
v 0.029620 0.225488 -0.012231
v 0.028890 0.224140 -0.012990
v 0.026999 0.226195 -0.011669
v 0.026887 0.224860 -0.012800
v 0.024542 0.226625 -0.012555
v 0.025052 0.225671 -0.013566
v 0.023867 0.225354 -0.017486
v 0.022586 0.225228 -0.018303
v 0.023037 0.224261 -0.020675
v 0.024368 0.224805 -0.019504
v 0.024959 0.222689 -0.022697
v 0.025705 0.223796 -0.021091
v 0.028704 0.221187 -0.023285
v 0.028222 0.222306 -0.021666
v 0.032372 0.221871 -0.020797
v 0.030555 0.222517 -0.019491
v 0.008897 0.226101 -0.004780
v 0.004724 0.226038 -0.004811
v 0.000922 0.224556 -0.001927
v 0.000745 0.226145 -0.004555
v 0.012600 0.223514 -0.001892
v 0.000904 0.222553 0.000049
v 0.008313 0.224016 -0.045093
v 0.007403 0.224111 -0.045441
v 0.008411 0.221748 -0.044174
v 0.007511 0.221539 -0.044534
v 0.009554 0.228718 -0.039706
v 0.012240 0.221900 0.000283
v 0.012990 0.225973 -0.004747
v 0.016213 0.224437 -0.001807
v 0.011916 0.228543 -0.031929
v 0.014510 0.227616 -0.027970
v 0.018222 0.233711 -0.025045
v 0.017454 0.227410 -0.026277
v 0.020930 0.227149 -0.024768
v 0.022849 0.234655 -0.023250
v 0.029386 0.223884 -0.018286
v 0.029837 0.224031 -0.016456
v 0.029784 0.224011 -0.014980
v 0.028138 0.223974 -0.019249
v 0.026783 0.224233 -0.019625
v 0.026082 0.224961 -0.018347
v 0.025657 0.225654 -0.016777
v 0.027912 0.225013 -0.017308
v 0.025673 0.226009 -0.015248
v 0.025914 0.225898 -0.014093
v 0.024122 0.225980 -0.015351
v 0.027725 0.225635 -0.015765
v 0.027175 0.225120 -0.013639
v 0.028461 0.224306 -0.013487
v 0.027483 0.225652 -0.014533
v 0.029177 0.224168 -0.014029
v 0.016878 0.226130 -0.025196
v 0.019737 0.225724 -0.024127
v 0.013696 0.226604 -0.027170
v 0.011199 0.227221 -0.030821
v 0.019904 0.230070 -0.022595
v 0.017204 0.230664 -0.023832
v 0.014287 0.231140 -0.025836
v 0.014663 0.230114 -0.007363
v -0.001491 0.225200 -0.003942
v -0.001384 0.223993 -0.002327
v 0.015444 0.233924 -0.006565
v 0.016770 0.244917 -0.004648
v -0.001287 0.222158 -0.000704
v -0.002756 0.224610 -0.003049
v 0.016745 0.251133 -0.002470
v -0.002554 0.223404 -0.001695
v 0.016252 0.239075 -0.005680
v 0.021620 0.245009 -0.006182
v 0.020565 0.238974 -0.006533
v 0.024439 0.248654 -0.006686
v 0.025731 0.247702 -0.009514
v 0.024100 0.243435 -0.009176
v 0.019340 0.233728 -0.005943
v 0.018387 0.230015 -0.006396
v 0.030029 0.233232 -0.001988
v 0.033502 0.231498 -0.004069
v 0.027839 0.228437 -0.010028
v 0.031184 0.228034 -0.010974
v 0.033853 0.227215 -0.012936
v 0.022935 0.238171 -0.008912
v 0.022416 0.232973 -0.008630
v 0.027464 0.247579 -0.012017
v 0.026753 0.243475 -0.012075
v 0.023538 0.242610 -0.021530
v 0.019356 0.241183 -0.023400
v 0.015136 0.240430 -0.025145
v 0.011858 0.239299 -0.027087
v 0.029143 0.247738 -0.014012
v 0.028571 0.244603 -0.014773
v 0.028082 0.243676 -0.016970
v 0.029761 0.243297 -0.018351
v 0.014675 0.234025 -0.021271
v 0.017166 0.234065 -0.020926
v 0.018990 0.241946 -0.022068
v 0.015325 0.241558 -0.023600
v 0.015305 0.238286 -0.020641
v 0.018221 0.238201 -0.019737
v 0.022621 0.243014 -0.020265
v 0.020058 0.233701 -0.020224
v 0.020779 0.238291 -0.018775
v 0.025520 0.243110 -0.018675
v 0.027004 0.242256 -0.020098
v 0.023116 0.238503 -0.017528
v 0.035509 0.227084 -0.004708
v 0.032852 0.228844 -0.003665
v 0.034863 0.225482 -0.004679
v 0.029869 0.230757 -0.002367
v 0.028163 0.228639 -0.007841
v 0.031763 0.228654 -0.008704
v 0.029384 0.228756 -0.005822
v 0.032837 0.227286 -0.006981
v 0.029681 0.229136 -0.004035
v 0.032645 0.227003 -0.005050
v 0.034439 0.228275 -0.008109
v 0.033759 0.229323 -0.009343
v 0.034171 0.229007 -0.011151
v 0.035913 0.227328 -0.012809
v 0.040359 0.225591 -0.012666
v 0.041721 0.225550 -0.013726
v 0.039851 0.225868 -0.013888
v 0.039267 0.226191 -0.013163
v 0.041608 0.223950 -0.014830
v 0.039825 0.224761 -0.014603
v 0.037278 0.226002 -0.014315
v 0.039008 0.224215 -0.014151
v 0.041212 0.222526 -0.014770
v 0.038378 0.226321 -0.014709
v 0.037635 0.227808 -0.013147
v 0.038181 0.225485 -0.013001
v 0.039202 0.224590 -0.012268
v 0.039376 0.222733 -0.012991
v 0.039499 0.224182 -0.011591
v 0.040719 0.225177 -0.011926
v 0.037702 0.224449 -0.006232
v 0.037253 0.223256 -0.006298
v 0.034527 0.224673 -0.005562
v 0.034930 0.225414 -0.006859
v 0.035695 0.226534 -0.007674
v 0.035318 0.229284 -0.008402
v 0.036476 0.227177 -0.007909
v 0.037266 0.224812 -0.008098
v 0.037699 0.225604 -0.008272
v 0.036883 0.223762 -0.007573
v 0.036756 0.222908 -0.006786
v 0.039850 0.223108 -0.007809
v 0.039302 0.222025 -0.007821
v 0.041011 0.220679 -0.008968
v 0.041933 0.222128 -0.008981
v 0.038461 0.221359 -0.008147
v 0.038172 0.222411 -0.008745
v 0.038730 0.224758 -0.009260
v 0.038321 0.223671 -0.009109
v 0.039472 0.224128 -0.010666
v 0.039105 0.222454 -0.010563
v 0.039358 0.222243 -0.011780
v 0.040699 0.220667 -0.013693
v 0.040233 0.219609 -0.012205
v 0.039494 0.220016 -0.010391
v 0.040041 0.219664 -0.009366
v 0.042516 0.219328 -0.014212
v 0.043171 0.221294 -0.014957
v 0.043494 0.223111 -0.014922
v 0.043511 0.224942 -0.014014
v 0.042649 0.219424 -0.010198
v 0.043434 0.221182 -0.010227
v 0.041902 0.217770 -0.010803
v 0.041912 0.218004 -0.012837
v 0.041618 0.217452 -0.011683
v 0.043392 0.217858 -0.013178
v 0.043982 0.218949 -0.014019
v 0.044394 0.220730 -0.014410
v 0.043741 0.219075 -0.011281
v 0.044276 0.220769 -0.011387
v 0.043270 0.217806 -0.011617
v 0.043384 0.217537 -0.012442
v 0.044342 0.218868 -0.012753
v 0.044820 0.220549 -0.012994
v 0.044572 0.222358 -0.014411
v 0.044544 0.223631 -0.014044
v 0.044872 0.222318 -0.013200
v 0.044662 0.223888 -0.013271
v 0.044390 0.222556 -0.011775
v 0.044408 0.223637 -0.012329
v 0.043765 0.225166 -0.012610
v 0.043672 0.223022 -0.010682
v 0.040501 0.224799 -0.010750
v 0.042285 0.223707 -0.009471
v 0.042263 0.225532 -0.012106
v 0.043671 0.224236 -0.011558
v 0.023227 0.230144 -0.007694
v 0.025139 0.229256 -0.010060
v 0.025176 0.229633 -0.006208
v 0.026490 0.229980 -0.004541
v 0.021109 0.230938 -0.005454
v 0.022935 0.229273 -0.004327
v 0.023626 0.229930 -0.002982
v 0.020503 0.229198 -0.004907
v 0.021479 0.228485 -0.003368
v 0.021584 0.228688 -0.001946
v 0.026342 0.230499 -0.002704
v 0.023447 0.231135 -0.001343
v 0.025822 0.232628 -0.000981
v 0.026078 0.235027 -0.000509
v 0.021218 0.229389 -0.000352
v 0.022035 0.233362 0.000351
v 0.019943 0.229362 0.001120
v 0.017288 0.227702 0.002687
v 0.018855 0.233023 0.002417
v 0.013813 0.226466 0.003697
v 0.014928 0.233263 0.003866
v -0.001572 0.221051 0.000235
v -0.002339 0.222429 -0.000684
v 0.023044 0.236723 0.000832
v 0.026993 0.239209 -0.000719
v 0.028148 0.242969 -0.001269
v 0.020259 0.237867 0.002628
v 0.015885 0.239366 0.004351
v 0.000582 0.219871 0.001028
v 0.021163 0.244376 0.002979
v 0.016734 0.245699 0.004905
v 0.009008 0.227156 -0.006878
v 0.024259 0.242789 0.000830
v 0.026006 0.246203 -0.000725
v 0.022179 0.250783 0.000030
v 0.024531 0.249788 -0.001889
v 0.024019 0.249799 -0.004212
v 0.020976 0.250264 -0.002693
v 0.021108 0.250075 0.003083
v 0.017290 0.251200 0.005390
v 0.004406 0.226926 -0.006994
v 0.016846 0.226019 -0.004430
v 0.006919 0.224818 -0.043860
v 0.006695 0.223547 -0.043788
v 0.005654 0.223846 -0.043585
v 0.008915 0.221780 -0.042149
v 0.007518 0.221137 -0.042912
v 0.010098 0.227475 -0.030330
v 0.011380 0.231491 -0.025527
v 0.009041 0.227731 -0.030084
v 0.012076 0.234339 -0.021612
v 0.000312 0.226452 -0.006508
v -0.002417 0.225493 -0.004864
v 0.010479 0.226974 -0.037679
v 0.009928 0.225846 -0.037404
v 0.015592 0.222438 0.000165
v 0.008656 0.225084 -0.037772
v 0.006764 0.223384 -0.042517
v 0.008998 0.227330 -0.007978
v 0.004068 0.227371 -0.007836
v 0.007823 0.226803 -0.037386
v -0.000015 0.227086 -0.007082
v 0.012413 0.238037 -0.021114
v 0.012045 0.241167 -0.024766
v -0.002772 0.226670 -0.005409
v -0.003336 0.226235 -0.003472
v -0.003197 0.225756 -0.001922
v 0.000042 0.220149 0.001965
v 0.016558 0.256696 -0.000161
v 0.018592 0.255843 0.000297
v 0.019972 0.254852 0.001415
v 0.019953 0.254884 0.003407
v 0.018922 0.261781 0.004135
v 0.018896 0.261187 0.002608
v 0.017886 0.261241 0.001858
v 0.016268 0.261365 0.001360
v -0.002211 0.222509 0.000821
v 0.018043 0.263641 0.001642
v 0.016479 0.263355 0.000864
v -0.002881 0.224759 -0.000562
v 0.007698 0.218729 0.002936
v 0.016614 0.266219 0.000122
v 0.017744 0.266005 0.001046
v 0.003234 0.219121 0.002566
v 0.016853 0.269816 0.000539
v 0.019108 0.264625 0.002554
v 0.019789 0.267092 0.003605
v 0.018220 0.268258 0.001810
v -0.006833 0.229450 -0.015550
v 0.017035 0.274090 0.001437
v 0.018650 0.271902 0.003140
v 0.019751 0.269914 0.004566
v 0.018943 0.267016 0.005306
v -0.008224 0.237540 -0.014901
v 0.017334 0.278126 0.003089
v 0.018516 0.271613 0.005942
v 0.019169 0.273285 0.005244
v 0.018095 0.276468 0.005507
v 0.017086 0.275738 0.006019
v 0.018629 0.275222 0.004404
v -0.006356 0.238133 -0.016172
v 0.017710 0.281105 0.004817
v 0.018324 0.277823 0.005158
v 0.017361 0.279040 0.005249
v 0.016780 0.281108 0.005165
v 0.015237 0.278486 0.005524
v -0.006361 0.231357 -0.012410
v -0.007227 0.231772 -0.018385
v 0.016977 0.255947 0.005675
v -0.006525 0.226716 -0.015478
v 0.017383 0.262025 0.005779
v 0.017414 0.266762 0.006254
v 0.017121 0.271094 0.006642
v 0.015804 0.274923 0.006558
v 0.013940 0.276373 0.006355
v -0.007825 0.228582 -0.011763
v 0.016052 0.262421 0.006231
v 0.015531 0.258120 0.006208
v 0.016321 0.266939 0.006547
v -0.005057 0.232790 -0.019768
v -0.006170 0.237527 -0.012393
v 0.018704 0.225043 -0.003785
v 0.018257 0.223841 -0.002173
v -0.006822 0.227218 -0.019348
v -0.006551 0.228179 -0.020519
v 0.016075 0.270952 0.006919
v -0.005577 0.229533 -0.021687
v 0.015174 0.274055 0.006908
v 0.013910 0.275344 0.006761
v -0.007114 0.226004 -0.022349
v -0.006458 0.226166 -0.023278
v -0.007507 0.225485 -0.021695
v 0.025954 0.251154 -0.002448
v 0.027363 0.248978 -0.001459
v 0.029607 0.246550 -0.001929
v 0.031556 0.244761 -0.003028
v 0.033236 0.243289 -0.004423
v 0.036288 0.241764 -0.011574
v 0.035557 0.238413 -0.011392
v 0.035390 0.240292 -0.013386
v 0.035611 0.243173 -0.013007
v 0.034277 0.245158 -0.014172
v 0.032353 0.247450 -0.014836
v 0.029778 0.249866 -0.013606
v 0.028375 0.250411 -0.011907
v 0.026987 0.251063 -0.009826
v 0.025987 0.251794 -0.007251
v 0.025588 0.251787 -0.004605
v 0.030043 0.246888 -0.003613
v 0.031434 0.245772 -0.004257
v 0.028319 0.248362 -0.003227
v 0.027212 0.249625 -0.003825
v 0.026815 0.250502 -0.005237
v 0.027416 0.250398 -0.007396
v 0.032749 0.244578 -0.005425
v 0.031214 0.245267 -0.005593
v 0.035115 0.243350 -0.011136
v 0.034567 0.244400 -0.012092
v 0.033358 0.245688 -0.012648
v 0.028199 0.248423 -0.006414
v 0.028153 0.250187 -0.009393
v 0.029193 0.249777 -0.011084
v 0.030427 0.249153 -0.012373
v 0.031846 0.247564 -0.013008
v 0.033407 0.244583 -0.011367
v 0.041896 0.224700 -0.010407
v 0.034604 0.243027 -0.007496
v 0.035434 0.241526 -0.006982
v 0.036401 0.241284 -0.009704
v 0.035522 0.242759 -0.009801
v 0.035154 0.237858 -0.009294
v 0.033771 0.234688 -0.006630
v 0.034039 0.238346 -0.006490
v 0.029518 0.246627 -0.005888
v 0.032642 0.243851 -0.007728
v 0.029010 0.248007 -0.008500
v 0.030497 0.245606 -0.007994
v 0.033609 0.243640 -0.009878
v 0.030742 0.247756 -0.011442
v 0.029861 0.247807 -0.010158
v 0.031289 0.245289 -0.009888
v 0.031796 0.246249 -0.011570
v 0.039504 0.225327 -0.009112
v 0.040238 0.224245 -0.008087
v 0.040046 0.225153 -0.008577
v 0.038267 0.226328 -0.007895
v 0.038179 0.225576 -0.006623
v 0.038324 0.226379 -0.007222
v 0.036882 0.227937 -0.007377
v 0.036365 0.228130 -0.005692
v 0.036692 0.228286 -0.006563
v 0.034588 0.231618 -0.005841
v 0.035177 0.231089 -0.007039
v 0.035566 0.230426 -0.007902
v 0.034788 0.230227 -0.009770
v 0.034591 0.233547 -0.009313
v 0.035032 0.231643 -0.009686
v 0.035128 0.234754 -0.011947
v 0.035512 0.230237 -0.011745
v 0.038267 0.227514 -0.013923
v 0.037117 0.228342 -0.015125
v 0.035916 0.231726 -0.012748
v 0.035196 0.237412 -0.014427
v 0.035415 0.235027 -0.015744
v 0.035351 0.231279 -0.016686
v 0.032186 0.238143 -0.018829
v 0.032951 0.226546 -0.020191
v 0.027745 0.234702 -0.021398
v 0.029040 0.225127 -0.022915
v 0.032983 0.233006 -0.019340
v 0.029084 0.229994 -0.021799
v 0.023769 0.227229 -0.023758
v 0.025090 0.224756 -0.023076
v 0.024689 0.226407 -0.023173
v 0.022794 0.225240 -0.021475
v 0.021708 0.225937 -0.023076
v 0.022445 0.225765 -0.022136
v 0.021942 0.229313 -0.021494
v 0.022724 0.227944 -0.020309
v 0.022922 0.226980 -0.019133
v 0.025580 0.237288 -0.012177
v 0.022527 0.232574 -0.019577
v 0.025081 0.228326 -0.011522
v 0.023038 0.226481 -0.015259
v 0.024519 0.231524 -0.018164
v 0.024349 0.231120 -0.012189
v 0.025426 0.237893 -0.015961
v 0.027123 0.237275 -0.014665
v 0.023985 0.229208 -0.015328
v 0.012233 0.219051 0.002639
v -0.009475 0.226682 -0.023414
v 0.019742 0.224585 -0.000387
v 0.018445 0.222350 0.000984
v 0.015623 0.220027 0.002090
v 0.020370 0.225575 -0.001740
v 0.020677 0.226050 -0.003288
v 0.020276 0.226491 -0.005233
v 0.017751 0.226947 -0.006946
v 0.013872 0.227293 -0.007761
v -0.010293 0.225044 -0.023329
v 0.019647 0.225321 -0.004693
v 0.017295 0.226319 -0.006377
v 0.013469 0.226854 -0.006924
v -0.008402 0.227488 -0.023983
v 0.011882 0.219414 0.001556
v 0.007817 0.219122 0.001704
v 0.015133 0.219757 0.001146
v 0.018669 0.222265 -0.000518
v 0.017538 0.220902 0.000387
v 0.019173 0.223236 -0.001524
v 0.019718 0.224436 -0.002874
v 0.017615 0.222010 -0.000554
v 0.005093 0.236180 -0.030370
v 0.004818 0.233276 -0.035318
v 0.006048 0.235329 -0.035761
v 0.006788 0.236971 -0.030690
v 0.004634 0.231012 -0.041421
v 0.005388 0.233162 -0.039740
v 0.002831 0.232443 -0.027482
v 0.003854 0.231043 -0.033445
v -0.018670 0.223470 -0.017248
v -0.019088 0.227326 -0.017265
v -0.020678 0.227219 -0.015335
v -0.017804 0.224888 -0.014970
v -0.012069 0.246493 -0.015835
v -0.015009 0.243777 -0.015246
v -0.014788 0.241681 -0.016700
v -0.011236 0.244959 -0.017058
v -0.011596 0.240989 -0.003040
v -0.011635 0.237213 -0.002846
v -0.014459 0.236146 -0.004814
v -0.013979 0.239415 -0.004881
v -0.016827 0.223072 -0.016887
v -0.016354 0.223518 -0.015030
v -0.016114 0.225381 -0.013628
v -0.015085 0.223969 -0.013968
v -0.013594 0.225824 -0.012548
v -0.013186 0.224471 -0.013303
v -0.010485 0.226488 -0.011946
v -0.010806 0.225157 -0.013081
v -0.007785 0.226879 -0.012795
v -0.008691 0.225938 -0.013817
v -0.008002 0.225610 -0.017721
v -0.006802 0.225465 -0.018520
v -0.007888 0.224512 -0.020902
v -0.008966 0.225074 -0.019748
v -0.010620 0.222981 -0.022958
v -0.010871 0.224092 -0.021358
v -0.015009 0.221544 -0.023603
v -0.013986 0.222648 -0.021974
v -0.018390 0.222278 -0.021163
v -0.016117 0.222890 -0.019831
v 0.006967 0.233126 -0.040264
v 0.007643 0.235592 -0.036062
v 0.006630 0.231383 -0.041925
v 0.002926 0.225904 -0.037450
v 0.002138 0.221838 -0.042193
v 0.002306 0.221801 -0.044213
v 0.002591 0.227040 -0.037730
v 0.002783 0.224063 -0.045127
v 0.003658 0.224143 -0.045464
v 0.006083 0.227581 -0.043500
v 0.003098 0.221577 -0.044562
v 0.003545 0.228768 -0.039744
v 0.002600 0.228620 -0.031991
v 0.000493 0.227731 -0.028068
v -0.001260 0.233865 -0.025175
v -0.002251 0.227571 -0.026415
v -0.005633 0.227365 -0.024955
v -0.005564 0.234877 -0.023438
v -0.014374 0.224232 -0.018605
v -0.014602 0.224383 -0.016781
v -0.014388 0.224359 -0.015305
v -0.013141 0.224304 -0.019549
v -0.011685 0.224542 -0.019905
v -0.010575 0.225255 -0.018615
v -0.009732 0.225936 -0.017036
v -0.012383 0.225333 -0.017602
v -0.009464 0.226287 -0.015507
v -0.009619 0.226179 -0.014356
v -0.007823 0.226234 -0.015588
v -0.011835 0.225947 -0.016054
v -0.011134 0.225422 -0.013923
v -0.012723 0.224630 -0.013793
v -0.011428 0.225959 -0.014819
v -0.013591 0.224505 -0.014346
v -0.001796 0.226283 -0.025330
v -0.004651 0.225924 -0.024302
v 0.001208 0.226707 -0.027258
v 0.003207 0.227287 -0.030876
v -0.003443 0.230256 -0.022758
v -0.000718 0.230808 -0.023956
v 0.002011 0.231238 -0.025920
v 0.004089 0.230197 -0.007442
v 0.009361 0.229819 -0.007781
v 0.009960 0.233789 -0.006835
v 0.004415 0.234008 -0.006645
v 0.006259 0.244993 -0.004718
v 0.011654 0.245214 -0.004366
v 0.012545 0.251256 -0.002509
v 0.008130 0.251194 -0.002525
v 0.010755 0.239125 -0.005654
v 0.005088 0.239158 -0.005758
v 0.000829 0.245159 -0.006319
v 0.000354 0.239124 -0.006673
v -0.001601 0.248840 -0.006851
v -0.003631 0.247913 -0.009699
v -0.002659 0.243631 -0.009352
v 0.000246 0.233873 -0.006082
v 0.000204 0.230155 -0.006531
v -0.012321 0.233539 -0.002283
v -0.016713 0.231862 -0.004417
v -0.010729 0.228733 -0.010309
v -0.014653 0.228383 -0.011303
v -0.017999 0.227610 -0.013302
v -0.002653 0.238362 -0.009088
v -0.003446 0.233170 -0.008816
v -0.006073 0.247820 -0.012225
v -0.006074 0.243715 -0.012286
v -0.004260 0.242820 -0.021703
v -0.000434 0.241335 -0.023525
v 0.003436 0.240520 -0.025218
v 0.006116 0.239343 -0.027123
v -0.008395 0.248007 -0.014240
v -0.008373 0.244872 -0.015004
v -0.008323 0.243944 -0.017197
v -0.010598 0.243594 -0.018600
v 0.003215 0.234115 -0.021350
v 0.000718 0.234194 -0.021039
v 0.000406 0.242088 -0.022185
v 0.003827 0.241646 -0.023672
v 0.003737 0.238376 -0.020718
v 0.000853 0.238335 -0.019852
v -0.002904 0.243206 -0.020426
v -0.002272 0.233876 -0.020378
v -0.001660 0.238463 -0.018924
v -0.005796 0.243343 -0.018871
v -0.007917 0.242517 -0.020316
v -0.003917 0.238708 -0.017707
v -0.019964 0.227491 -0.005101
v -0.016496 0.229207 -0.004016
v -0.019506 0.225885 -0.005071
v -0.012628 0.231069 -0.002669
v -0.010948 0.228936 -0.008126
v -0.015087 0.229007 -0.009039
v -0.012308 0.229070 -0.006124
v -0.016640 0.227657 -0.007337
v -0.012634 0.229451 -0.004340
v -0.016541 0.227370 -0.005405
v -0.018298 0.228668 -0.008481
v -0.017281 0.229703 -0.009701
v -0.017883 0.229398 -0.011514
v -0.020336 0.227752 -0.013201
v -0.025860 0.226083 -0.013121
v -0.027504 0.226063 -0.014195
v -0.025256 0.226355 -0.014334
v -0.024482 0.226668 -0.013601
v -0.027689 0.224470 -0.015305
v -0.025464 0.225253 -0.015054
v -0.022269 0.226453 -0.014729
v -0.024601 0.224696 -0.014595
v -0.027486 0.223046 -0.015248
v -0.023499 0.226788 -0.015135
v -0.022264 0.228256 -0.013558
v -0.023344 0.225949 -0.013430
v -0.024676 0.225069 -0.012714
v -0.025258 0.223223 -0.013448
v -0.025083 0.224666 -0.012043
v -0.026343 0.225675 -0.012388
v -0.022992 0.224898 -0.006664
v -0.022681 0.223703 -0.006730
v -0.019223 0.225074 -0.005952
v -0.019494 0.225821 -0.007251
v -0.020148 0.226950 -0.008071
v -0.019136 0.229686 -0.008781
v -0.020944 0.227602 -0.008312
v -0.022336 0.225256 -0.008522
v -0.022694 0.226051 -0.008698
v -0.022103 0.224203 -0.007998
v -0.022145 0.223350 -0.007213
v -0.025721 0.223594 -0.008273
v -0.025270 0.222507 -0.008284
v -0.027491 0.221190 -0.009458
v -0.028326 0.222647 -0.009474
v -0.024405 0.221832 -0.008602
v -0.023856 0.222877 -0.009192
v -0.024060 0.225225 -0.009702
v -0.023784 0.224136 -0.009551
v -0.025048 0.224610 -0.011119
v -0.024936 0.222937 -0.011020
v -0.025292 0.222732 -0.012240
v -0.027199 0.221184 -0.014175
v -0.026817 0.220121 -0.012689
v -0.025854 0.220512 -0.010865
v -0.026547 0.220167 -0.009849
v -0.029543 0.219876 -0.014723
v -0.029970 0.221845 -0.015463
v -0.030032 0.223660 -0.015422
v -0.029729 0.225483 -0.014506
v -0.029607 0.219965 -0.010713
v -0.030231 0.221727 -0.010741
v -0.029043 0.218308 -0.011318
v -0.029053 0.218546 -0.013349
v -0.028792 0.217989 -0.012196
v -0.030772 0.218421 -0.013707
v -0.031278 0.219518 -0.014548
v -0.031460 0.221298 -0.014933
v -0.030933 0.219634 -0.011809
v -0.031277 0.221329 -0.011912
v -0.030612 0.218364 -0.012147
v -0.030803 0.218099 -0.012974
v -0.031676 0.219438 -0.013287
v -0.031956 0.221120 -0.013524
v -0.031400 0.222922 -0.014927
v -0.031159 0.224190 -0.014554
v -0.031738 0.222884 -0.013721
v -0.031249 0.224445 -0.013781
v -0.031127 0.223112 -0.012290
v -0.030982 0.224191 -0.012839
v -0.029980 0.225706 -0.013104
v -0.030213 0.223564 -0.011189
v -0.026143 0.225293 -0.011212
v -0.028473 0.224227 -0.009960
v -0.028122 0.226050 -0.012583
v -0.030012 0.224776 -0.012057
v -0.005047 0.230360 -0.007902
v -0.007526 0.229508 -0.010299
v -0.007301 0.229880 -0.006447
v -0.008713 0.230244 -0.004797
v -0.002445 0.231118 -0.005628
v -0.004908 0.229484 -0.004534
v -0.005548 0.230149 -0.003197
v -0.002263 0.229372 -0.005078
v -0.003541 0.228676 -0.003555
v -0.003670 0.228879 -0.002135
v -0.008510 0.230759 -0.002957
v -0.005148 0.231348 -0.001552
v -0.007548 0.232873 -0.001220
v -0.007328 0.235270 -0.000743
v -0.003214 0.229572 -0.000534
v -0.003163 0.233547 0.000169
v -0.001999 0.229526 0.000956
v 0.000195 0.227830 0.002558
v -0.000047 0.233162 0.002280
v 0.003363 0.226545 0.003617
v 0.003953 0.233343 0.003786
v 0.009473 0.233424 0.004418
v 0.008531 0.225972 0.004148
v -0.003528 0.236915 0.000645
v -0.007412 0.239455 -0.000952
v -0.007940 0.243223 -0.001506
v -0.000380 0.238015 0.002484
v 0.004442 0.239448 0.004271
v 0.010296 0.240205 0.004983
v 0.000194 0.244523 0.002839
v 0.005043 0.245780 0.004828
v 0.011043 0.246531 0.005568
v -0.003440 0.242985 0.000645
v -0.004504 0.246417 -0.000922
v 0.001466 0.250927 -0.000101
v -0.001525 0.249971 -0.002055
v -0.000734 0.249974 -0.004369
v 0.003068 0.250391 -0.002808
v 0.001767 0.250208 0.002959
v 0.005701 0.251279 0.005316
v 0.004567 0.224838 -0.043875
v 0.005804 0.225341 -0.043843
v 0.004510 0.223566 -0.043802
v -0.013103 0.230324 -0.022086
v 0.003255 0.221174 -0.042939
v 0.004472 0.227521 -0.030369
v 0.005110 0.231541 -0.025570
v 0.005644 0.227759 -0.030107
v 0.005880 0.234388 -0.021654
v 0.008258 0.231723 -0.025764
v 0.008980 0.234310 -0.021653
v 0.008530 0.223539 -0.001941
v 0.004409 0.223578 -0.001957
v 0.004214 0.221963 0.000219
v 0.008238 0.221849 0.000350
v 0.003952 0.225124 -0.037803
v 0.004614 0.223402 -0.042531
v 0.005666 0.223257 -0.042616
v 0.006408 0.226059 -0.037933
v 0.005269 0.226824 -0.037403
v 0.007231 0.227094 -0.030431
v 0.006545 0.238083 -0.021153
v 0.006843 0.241207 -0.024798
v 0.009470 0.237956 -0.021222
v 0.008488 0.238161 -0.030622
v 0.009414 0.241368 -0.025299
v 0.013356 0.256907 -0.000377
v 0.009924 0.256742 -0.000202
v 0.007298 0.255921 0.000226
v 0.005119 0.254954 0.001322
v 0.004479 0.254989 0.003311
v 0.007568 0.261857 0.004068
v 0.008104 0.261260 0.002543
v 0.009569 0.261297 0.001808
v 0.011551 0.261397 0.001331
v 0.013987 0.261456 0.001207
v 0.010197 0.263694 0.001596
v 0.012002 0.263386 0.000838
v 0.014323 0.263466 0.000282
v 0.014717 0.266368 -0.000570
v 0.012732 0.266246 0.000100
v 0.011369 0.266047 0.001009
v 0.015198 0.270008 -0.000185
v 0.013494 0.269838 0.000521
v 0.008951 0.264693 0.002495
v 0.008305 0.267168 0.003540
v 0.011424 0.268303 0.001771
v 0.015734 0.274151 0.000774
v 0.014476 0.274107 0.001423
v 0.011782 0.271948 0.003102
v 0.008383 0.269989 0.004503
v 0.008154 0.267087 0.005245
v 0.016348 0.278530 0.002678
v 0.015319 0.278139 0.003078
v 0.008630 0.271677 0.005888
v 0.009056 0.273351 0.005190
v 0.009938 0.276520 0.005465
v 0.009552 0.275787 0.005979
v 0.012339 0.275264 0.004370
v 0.016900 0.282372 0.005107
v 0.015553 0.281119 0.004806
v 0.012538 0.277861 0.005128
v 0.011498 0.279078 0.005219
v 0.013933 0.281126 0.005150
v 0.010842 0.278514 0.005501
v 0.013709 0.280707 0.004888
v 0.011595 0.251873 0.006260
v 0.007257 0.256012 0.005616
v 0.011812 0.253877 0.006439
v 0.008465 0.262084 0.005727
v 0.009235 0.266816 0.006208
v 0.009579 0.271143 0.006601
v 0.009979 0.274961 0.006527
v 0.010833 0.276393 0.006339
v 0.012161 0.276843 0.006226
v 0.009852 0.262462 0.006194
v 0.009216 0.258162 0.006169
v 0.010435 0.266977 0.006513
v 0.003805 0.219477 0.001490
v -0.016431 0.233381 -0.019666
v 0.012152 0.256488 0.006493
v 0.012958 0.261977 0.006425
v 0.010744 0.270986 0.006890
v 0.013509 0.267019 0.006726
v 0.010977 0.274082 0.006886
v 0.011442 0.275360 0.006748
v 0.013273 0.273802 0.007105
v 0.012633 0.275502 0.006778
v 0.013517 0.270894 0.007147
v -0.003019 0.251355 -0.002629
v -0.005571 0.249207 -0.001666
v -0.009072 0.246819 -0.002174
v -0.011890 0.245063 -0.003303
v -0.014229 0.243619 -0.004723
v -0.018207 0.242150 -0.011911
v -0.017768 0.238796 -0.011733
v -0.017351 0.240671 -0.013717
v -0.017195 0.243548 -0.013330
v -0.015294 0.245511 -0.014471
v -0.012591 0.247771 -0.015104
v -0.008800 0.250140 -0.013836
v -0.006687 0.250660 -0.012118
v -0.004542 0.251287 -0.010019
v -0.002872 0.251997 -0.007428
v -0.002263 0.251982 -0.004777
v -0.009336 0.247162 -0.003860
v -0.011369 0.246070 -0.004525
v -0.006737 0.248606 -0.003447
v -0.004920 0.249849 -0.004026
v -0.004151 0.250719 -0.005430
v -0.005009 0.250626 -0.007596
v -0.013243 0.244899 -0.005714
v -0.011026 0.245563 -0.005859
v -0.016441 0.243715 -0.011454
v -0.015618 0.244756 -0.012399
v -0.013900 0.246024 -0.012935
v -0.006395 0.248667 -0.006631
v -0.006150 0.250429 -0.009602
v -0.007735 0.250039 -0.011308
v -0.009573 0.249436 -0.012613
v -0.011708 0.247873 -0.013270
v -0.014038 0.244920 -0.011660
v -0.027824 0.225212 -0.010886
v -0.015844 0.243381 -0.007811
v -0.017211 0.241895 -0.007314
v -0.018413 0.241671 -0.010047
v -0.017045 0.243130 -0.010127
v -0.017325 0.238235 -0.009634
v -0.016236 0.235050 -0.006967
v -0.015906 0.238702 -0.006816
v -0.008494 0.246894 -0.006127
v -0.013081 0.244174 -0.008016
v -0.007595 0.248266 -0.008728
v -0.009956 0.245893 -0.008249
v -0.014391 0.243980 -0.010178
v -0.010097 0.248046 -0.011691
v -0.008839 0.248082 -0.010396
v -0.011102 0.245590 -0.010152
v -0.011707 0.246558 -0.011837
v -0.024878 0.225803 -0.009561
v -0.025975 0.224732 -0.008550
v -0.025572 0.225635 -0.009033
v -0.023249 0.226780 -0.008325
v -0.023335 0.226028 -0.007056
v -0.023335 0.226832 -0.007652
v -0.021301 0.228365 -0.007782
v -0.020729 0.228548 -0.006091
v -0.021044 0.228709 -0.006964
v -0.017884 0.231999 -0.006202
v -0.018646 0.231483 -0.007409
v -0.019219 0.230828 -0.008279
v -0.018316 0.230621 -0.010137
v -0.017414 0.233928 -0.009664
v -0.018324 0.232036 -0.010050
v -0.017903 0.235143 -0.012297
v -0.019228 0.230645 -0.012120
v -0.023099 0.227973 -0.014343
v -0.021674 0.228784 -0.015526
v -0.019463 0.232136 -0.013121
v -0.017660 0.237798 -0.014766
v -0.018461 0.235425 -0.016094
v -0.019184 0.231689 -0.017051
v -0.014447 0.238491 -0.019125
v -0.017876 0.226943 -0.020544
v -0.010527 0.234997 -0.021650
v -0.014355 0.225474 -0.023220
f 1 2 3
f 1 3 4
f 5 6 3
f 5 3 2
f 7 8 2
f 7 2 1
f 9 10 11
f 9 11 12
f 13 14 15
f 13 15 16
f 17 18 19
f 17 19 20
f 21 9 12
f 21 12 22
f 22 12 23
f 22 23 24
f 24 23 25
f 24 25 26
f 26 25 27
f 26 27 28
f 28 27 29
f 28 29 30
f 31 32 33
f 31 33 34
f 34 33 35
f 34 35 36
f 36 35 37
f 36 37 38
f 38 37 39
f 38 39 40
f 40 39 9
f 40 9 21
f 508 509 3
f 508 3 6
f 510 508 6
f 510 6 5
f 270 261 49
f 270 49 269
f 510 47 48
f 510 48 517
f 49 50 48
f 49 48 47
f 5 2 8
f 5 8 51
f 269 49 51
f 47 5 51
f 47 51 49
f 55 8 7
f 55 7 56
f 56 7 57
f 56 57 58
f 59 58 57
f 59 57 60
f 61 40 21
f 61 21 62
f 62 21 22
f 62 22 63
f 64 65 36
f 64 36 38
f 64 38 40
f 64 40 61
f 66 67 31
f 66 31 34
f 66 34 36
f 66 36 65
f 66 65 64
f 66 64 68
f 64 61 62
f 64 62 68
f 69 70 30
f 69 30 71
f 69 71 31
f 69 31 67
f 68 62 63
f 68 63 72
f 73 74 26
f 73 26 28
f 73 28 30
f 73 30 70
f 75 69 67
f 75 67 72
f 72 67 66
f 72 66 68
f 76 63 22
f 76 22 24
f 75 72 63
f 75 63 76
f 76 24 26
f 76 26 74
f 76 74 73
f 76 73 75
f 73 70 69
f 73 69 75
f 77 58 59
f 77 59 78
f 79 56 58
f 79 58 77
f 80 55 56
f 80 56 79
f 77 78 81
f 77 81 82
f 79 77 82
f 79 82 83
f 84 550 551
f 84 551 87
f 88 554 555
f 88 555 91
f 87 551 557
f 87 557 93
f 557 554 88
f 557 88 93
f 93 88 94
f 93 94 95
f 94 96 97
f 94 97 98
f 99 87 93
f 99 93 95
f 84 87 99
f 84 99 100
f 101 102 19
f 101 19 18
f 103 27 25
f 103 25 104
f 104 25 23
f 104 23 105
f 95 94 98
f 95 98 106
f 107 99 95
f 107 95 106
f 98 97 108
f 98 108 109
f 110 60 57
f 110 57 111
f 111 57 7
f 111 7 112
f 112 7 1
f 112 1 113
f 114 13 16
f 114 16 115
f 109 108 114
f 109 114 115
f 116 115 16
f 116 16 117
f 118 83 82
f 118 82 119
f 120 111 112
f 120 112 121
f 120 121 122
f 120 122 123
f 124 110 111
f 124 111 120
f 119 82 81
f 119 81 125
f 123 119 125
f 123 125 126
f 124 120 123
f 124 123 126
f 127 128 110
f 127 110 124
f 127 116 117
f 127 117 128
f 127 124 126
f 127 126 129
f 130 102 131
f 130 131 132
f 131 102 101
f 131 101 133
f 134 103 104
f 134 104 135
f 136 134 135
f 136 135 137
f 138 136 137
f 138 137 139
f 138 139 131
f 138 131 133
f 140 137 135
f 140 135 141
f 142 141 135
f 142 135 104
f 105 23 12
f 105 12 11
f 143 142 104
f 143 104 105
f 144 145 146
f 144 146 147
f 146 145 148
f 146 148 149
f 143 105 11
f 143 11 150
f 151 149 148
f 151 148 152
f 150 153 149
f 150 149 151
f 147 154 143
f 147 143 155
f 155 143 150
f 155 150 151
f 144 147 155
f 144 155 156
f 156 155 151
f 156 151 157
f 158 159 144
f 158 144 156
f 160 130 132
f 160 132 161
f 132 131 139
f 132 139 162
f 162 139 137
f 162 137 163
f 164 140 165
f 164 165 166
f 163 137 140
f 163 140 164
f 167 164 166
f 167 166 168
f 169 163 164
f 169 164 167
f 170 162 163
f 170 163 169
f 170 161 132
f 170 132 162
f 171 160 161
f 171 161 172
f 173 174 171
f 173 171 172
f 172 161 170
f 172 170 175
f 175 170 169
f 175 169 176
f 167 168 177
f 167 177 178
f 176 169 167
f 176 167 178
f 178 177 179
f 178 179 180
f 158 156 157
f 158 157 181
f 180 179 158
f 180 158 181
f 157 151 152
f 157 152 182
f 183 181 157
f 183 157 182
f 184 180 181
f 184 181 183
f 184 176 178
f 184 178 180
f 185 175 176
f 185 176 184
f 185 173 172
f 185 172 175
f 186 182 152
f 186 152 187
f 187 152 148
f 187 148 188
f 188 148 145
f 188 145 189
f 190 191 174
f 190 174 173
f 190 173 185
f 190 185 192
f 183 182 186
f 183 186 193
f 184 183 193
f 184 193 194
f 192 185 184
f 192 184 194
f 195 193 186
f 195 186 196
f 196 186 187
f 196 187 197
f 198 199 191
f 198 191 190
f 198 190 192
f 198 192 200
f 201 195 196
f 201 196 202
f 194 193 195
f 194 195 201
f 200 192 194
f 200 194 201
f 202 198 200
f 202 200 201
f 202 196 197
f 202 197 203
f 203 199 198
f 203 198 202
f 204 197 187
f 204 187 188
f 204 188 189
f 204 189 205
f 206 203 197
f 206 197 204
f 206 204 205
f 206 205 207
f 208 199 203
f 208 203 206
f 208 206 207
f 208 207 209
f 207 205 189
f 207 189 210
f 211 191 199
f 211 199 208
f 159 158 179
f 159 179 212
f 213 174 191
f 213 191 211
f 145 144 159
f 145 159 214
f 214 210 189
f 214 189 145
f 215 211 208
f 215 208 209
f 215 209 207
f 215 207 210
f 216 217 134
f 216 134 218
f 218 134 136
f 218 136 219
f 220 99 107
f 220 107 216
f 221 220 216
f 221 216 218
f 221 218 219
f 221 219 222
f 223 100 99
f 223 99 220
f 224 223 220
f 224 220 221
f 224 221 222
f 224 222 225
f 226 219 136
f 226 136 138
f 227 222 219
f 227 219 226
f 228 133 101
f 228 101 229
f 226 138 133
f 226 133 228
f 230 225 222
f 230 222 227
f 231 227 226
f 231 226 228
f 230 227 231
f 230 231 232
f 233 232 231
f 233 231 234
f 235 233 234
f 235 234 236
f 702 703 235
f 702 235 236
f 231 228 229
f 231 229 239
f 229 101 18
f 229 18 240
f 18 17 241
f 18 241 240
f 234 231 239
f 234 239 242
f 243 236 234
f 243 234 242
f 702 236 243
f 702 243 709
f 243 242 245
f 243 245 246
f 709 243 246
f 709 246 712
f 248 239 229
f 248 229 240
f 245 242 239
f 245 239 248
f 248 240 241
f 248 241 249
f 250 248 249
f 250 249 251
f 251 252 253
f 251 253 250
f 253 252 96
f 253 96 94
f 253 94 88
f 253 88 91
f 254 245 248
f 254 248 250
f 246 245 254
f 246 254 255
f 5 47 510
f 48 258 722
f 48 722 517
f 258 48 50
f 258 50 259
f 260 722 258
f 260 258 259
f 50 49 261
f 50 261 262
f 80 79 83
f 80 83 263
f 263 83 264
f 263 264 265
f 122 118 119
f 122 119 123
f 264 83 118
f 264 118 266
f 730 264 266
f 730 266 731
f 51 8 55
f 51 55 269
f 270 269 55
f 270 55 80
f 732 45 52
f 732 52 735
f 272 262 261
f 272 261 270
f 272 270 80
f 272 80 263
f 273 259 50
f 273 50 262
f 738 260 259
f 738 259 273
f 739 738 273
f 739 273 276
f 739 276 265
f 739 265 741
f 272 263 265
f 272 265 276
f 273 262 272
f 273 272 276
f 265 264 730
f 265 730 741
f 278 122 121
f 278 121 279
f 266 118 122
f 266 122 278
f 279 121 112
f 279 112 113
f 731 266 278
f 731 278 744
f 4 3 509
f 4 509 745
f 113 1 4
f 113 4 745
f 746 279 113
f 746 113 745
f 744 278 279
f 744 279 746
f 91 555 747
f 91 747 284
f 285 253 91
f 285 91 284
f 250 253 285
f 250 285 286
f 254 250 286
f 254 286 287
f 288 287 286
f 288 286 289
f 289 286 285
f 289 285 290
f 290 285 284
f 290 284 291
f 291 284 747
f 291 747 756
f 293 290 291
f 293 291 294
f 294 291 756
f 294 756 759
f 294 759 760
f 294 760 297
f 293 294 297
f 293 297 298
f 297 760 763
f 297 763 300
f 301 289 290
f 301 290 293
f 302 288 289
f 302 289 301
f 303 298 297
f 303 297 300
f 301 293 298
f 301 298 303
f 300 763 768
f 300 768 305
f 306 302 301
f 306 301 303
f 306 303 300
f 306 300 305
f 307 308 288
f 307 288 302
f 305 768 773
f 305 773 310
f 311 308 307
f 311 307 312
f 313 314 311
f 313 311 312
f 307 302 306
f 307 306 315
f 315 306 305
f 315 305 310
f 310 773 780
f 310 780 317
f 318 312 307
f 318 307 315
f 319 313 312
f 319 312 318
f 318 317 320
f 318 320 319
f 318 315 310
f 318 310 317
f 321 314 313
f 321 313 319
f 321 319 320
f 321 320 786
f 786 320 317
f 786 317 780
f 712 246 255
f 712 255 787
f 255 254 287
f 255 287 324
f 789 787 255
f 789 255 324
f 324 287 288
f 324 288 326
f 327 326 288
f 327 288 308
f 328 327 308
f 328 308 311
f 329 328 311
f 329 311 314
f 330 329 314
f 330 314 321
f 795 330 321
f 795 321 786
f 332 333 324
f 332 324 326
f 332 326 327
f 332 327 334
f 52 460 461
f 52 461 735
f 801 789 324
f 801 324 333
f 801 333 332
f 801 332 802
f 341 334 327
f 341 327 328
f 802 332 334
f 802 334 804
f 343 341 328
f 343 328 329
f 343 329 330
f 343 330 344
f 807 343 344
f 807 344 808
f 808 344 330
f 808 330 795
f 804 334 341
f 804 341 809
f 809 341 343
f 809 343 807
f 348 251 249
f 348 249 349
f 349 249 241
f 349 241 350
f 350 241 17
f 350 17 351
f 351 17 20
f 351 20 352
f 353 354 355
f 353 355 356
f 356 355 14
f 356 14 357
f 357 14 13
f 357 13 358
f 358 13 114
f 358 114 359
f 359 114 108
f 359 108 360
f 360 108 97
f 360 97 361
f 361 97 96
f 361 96 362
f 362 96 252
f 362 252 363
f 363 252 251
f 363 251 348
f 364 350 351
f 364 351 365
f 364 366 349
f 364 349 350
f 367 348 349
f 367 349 366
f 368 363 348
f 368 348 367
f 369 362 363
f 369 363 368
f 370 365 351
f 370 351 352
f 371 364 365
f 371 365 370
f 372 353 356
f 372 356 373
f 374 373 356
f 374 356 357
f 369 368 367
f 369 367 375
f 376 361 362
f 376 362 369
f 377 360 361
f 377 361 376
f 378 359 360
f 378 360 377
f 379 358 359
f 379 359 378
f 379 374 357
f 379 357 358
f 380 372 373
f 380 373 374
f 214 159 212
f 214 212 381
f 382 370 352
f 382 352 383
f 382 383 384
f 382 384 385
f 385 384 353
f 385 353 372
f 386 354 353
f 386 353 384
f 20 19 387
f 20 387 388
f 386 384 383
f 386 383 388
f 388 383 352
f 388 352 20
f 375 367 366
f 375 366 389
f 389 366 364
f 389 364 371
f 390 371 370
f 390 370 382
f 376 369 375
f 376 375 391
f 392 391 375
f 392 375 389
f 392 389 371
f 392 371 390
f 393 385 372
f 393 372 380
f 394 378 377
f 394 377 395
f 393 390 382
f 393 382 385
f 377 376 391
f 377 391 395
f 396 395 391
f 396 391 392
f 397 394 395
f 397 395 396
f 379 378 394
f 379 394 397
f 380 374 379
f 380 379 397
f 396 393 380
f 396 380 397
f 396 392 390
f 396 390 393
f 381 213 211
f 381 211 215
f 381 215 210
f 381 210 214
f 212 179 177
f 212 177 398
f 399 171 174
f 399 174 213
f 400 399 213
f 400 213 381
f 400 381 212
f 400 212 398
f 398 177 168
f 398 168 401
f 402 160 171
f 402 171 399
f 403 402 399
f 403 399 400
f 403 400 398
f 403 398 401
f 401 168 166
f 401 166 404
f 405 130 160
f 405 160 402
f 406 405 402
f 406 402 403
f 406 403 401
f 406 401 404
f 407 387 19
f 407 19 102
f 102 130 405
f 102 405 407
f 408 407 405
f 408 405 406
f 404 166 165
f 404 165 409
f 410 165 140
f 410 140 141
f 411 386 388
f 411 388 387
f 411 387 407
f 411 407 408
f 408 406 404
f 408 404 409
f 412 411 408
f 412 408 409
f 412 409 165
f 412 165 410
f 413 354 386
f 413 386 411
f 414 142 143
f 414 143 154
f 414 410 141
f 414 141 142
f 415 146 149
f 415 149 153
f 154 147 146
f 154 146 415
f 153 150 11
f 153 11 416
f 417 413 411
f 417 411 412
f 417 412 410
f 417 410 414
f 417 414 154
f 417 154 415
f 417 415 153
f 417 153 416
f 418 355 354
f 418 354 413
f 418 15 14
f 418 14 355
f 419 418 413
f 419 413 417
f 419 417 416
f 419 416 420
f 421 117 16
f 421 16 15
f 422 10 9
f 422 9 39
f 423 60 110
f 423 110 128
f 424 422 39
f 424 39 37
f 423 128 117
f 423 117 421
f 419 420 425
f 419 425 421
f 421 15 418
f 421 418 419
f 420 10 422
f 420 422 425
f 416 11 10
f 416 10 420
f 425 422 424
f 425 424 426
f 423 421 425
f 423 425 426
f 59 60 423
f 59 423 427
f 428 424 37
f 428 37 35
f 426 424 428
f 426 428 429
f 427 423 426
f 427 426 429
f 428 35 33
f 428 33 430
f 431 78 59
f 431 59 427
f 432 431 427
f 432 427 429
f 432 429 428
f 432 428 430
f 81 78 431
f 81 431 433
f 434 433 431
f 434 431 432
f 430 33 32
f 430 32 435
f 434 432 430
f 434 430 435
f 436 106 98
f 436 98 109
f 125 81 433
f 125 433 437
f 129 126 125
f 129 125 437
f 29 27 103
f 29 103 438
f 438 103 134
f 438 134 217
f 71 30 29
f 71 29 439
f 32 31 71
f 32 71 439
f 440 437 433
f 440 433 434
f 441 217 216
f 441 216 107
f 442 129 437
f 442 437 440
f 441 107 106
f 441 106 436
f 442 116 127
f 442 127 129
f 443 436 109
f 443 109 115
f 444 441 436
f 444 436 443
f 443 115 116
f 443 116 442
f 443 442 440
f 443 440 444
f 444 440 434
f 444 434 435
f 444 435 32
f 444 32 439
f 444 439 29
f 444 29 438
f 444 438 217
f 444 217 441
f 445 235 703
f 445 703 296
f 447 230 232
f 447 232 448
f 449 233 235
f 449 235 445
f 448 232 233
f 448 233 449
f 450 225 230
f 450 230 447
f 451 224 225
f 451 225 450
f 452 223 224
f 452 224 451
f 453 100 223
f 453 223 452
f 84 100 453
f 84 453 454
f 550 84 454
f 550 454 274
f 453 452 456
f 453 456 457
f 458 454 453
f 458 453 457
f 247 274 454
f 247 454 458
f 460 445 296
f 460 296 461
f 449 445 460
f 449 460 462
f 463 447 448
f 463 448 464
f 464 448 449
f 464 449 462
f 450 447 463
f 450 463 465
f 451 450 465
f 451 465 466
f 456 452 451
f 456 451 466
f 465 463 464
f 465 464 467
f 466 465 467
f 466 467 338
f 337 456 466
f 337 466 338
f 467 464 462
f 467 462 271
f 457 456 337
f 457 337 257
f 54 257 337
f 54 337 338
f 54 338 467
f 54 467 271
f 458 457 257
f 458 257 53
f 52 271 462
f 52 462 460
f 45 53 257
f 45 257 54
f 45 54 271
f 45 271 52
f 247 458 53
f 247 53 41
f 41 53 45
f 41 45 732
f 468 471 470
f 468 470 469
f 472 469 470
f 472 470 473
f 474 468 469
f 474 469 475
f 476 479 478
f 476 478 477
f 480 483 482
f 480 482 481
f 484 487 486
f 484 486 485
f 488 489 479
f 488 479 476
f 489 491 490
f 489 490 479
f 491 493 492
f 491 492 490
f 493 495 494
f 493 494 492
f 495 497 496
f 495 496 494
f 498 501 500
f 498 500 499
f 501 503 502
f 501 502 500
f 503 505 504
f 503 504 502
f 505 507 506
f 505 506 504
f 507 488 476
f 507 476 506
f 508 473 470
f 508 470 509
f 510 472 473
f 510 473 508
f 511 514 513
f 511 513 512
f 510 517 516
f 510 516 515
f 513 515 516
f 513 516 518
f 472 519 475
f 472 475 469
f 519 513 514
f 515 513 519
f 515 519 472
f 520 521 474
f 520 474 475
f 521 523 522
f 521 522 474
f 524 525 522
f 524 522 523
f 526 527 488
f 526 488 507
f 527 528 489
f 527 489 488
f 529 505 503
f 529 503 530
f 529 526 507
f 529 507 505
f 531 501 498
f 531 498 532
f 531 530 503
f 531 503 501
f 531 533 529
f 531 529 530
f 529 533 527
f 529 527 526
f 534 536 497
f 534 497 535
f 534 532 498
f 534 498 536
f 533 537 528
f 533 528 527
f 538 495 493
f 538 493 539
f 538 535 497
f 538 497 495
f 540 537 532
f 540 532 534
f 537 533 531
f 537 531 532
f 541 491 489
f 541 489 528
f 540 541 528
f 540 528 537
f 541 539 493
f 541 493 491
f 541 540 538
f 541 538 539
f 538 540 534
f 538 534 535
f 542 543 524
f 542 524 523
f 544 542 523
f 544 523 521
f 545 544 521
f 545 521 520
f 542 547 546
f 542 546 543
f 544 548 547
f 544 547 542
f 549 552 551
f 549 551 550
f 553 556 555
f 553 555 554
f 552 558 557
f 552 557 551
f 557 558 553
f 557 553 554
f 558 560 559
f 558 559 553
f 559 563 562
f 559 562 561
f 564 560 558
f 564 558 552
f 549 565 564
f 549 564 552
f 566 485 486
f 566 486 567
f 568 569 492
f 568 492 494
f 569 570 490
f 569 490 492
f 560 571 563
f 560 563 559
f 572 571 560
f 572 560 564
f 563 574 573
f 563 573 562
f 575 576 522
f 575 522 525
f 576 577 474
f 576 474 522
f 577 578 468
f 577 468 474
f 579 580 483
f 579 483 480
f 574 580 579
f 574 579 573
f 581 582 483
f 581 483 580
f 583 584 547
f 583 547 548
f 585 586 577
f 585 577 576
f 585 588 587
f 585 587 586
f 589 585 576
f 589 576 575
f 584 590 546
f 584 546 547
f 588 591 590
f 588 590 584
f 589 591 588
f 589 588 585
f 592 589 575
f 592 575 593
f 592 593 582
f 592 582 581
f 592 594 591
f 592 591 589
f 595 597 596
f 595 596 567
f 596 598 566
f 596 566 567
f 599 600 569
f 599 569 568
f 601 602 600
f 601 600 599
f 603 604 602
f 603 602 601
f 603 598 596
f 603 596 604
f 605 606 600
f 605 600 602
f 607 569 600
f 607 600 606
f 570 478 479
f 570 479 490
f 608 570 569
f 608 569 607
f 609 612 611
f 609 611 610
f 611 614 613
f 611 613 610
f 608 615 478
f 608 478 570
f 616 617 613
f 616 613 614
f 615 616 614
f 615 614 618
f 612 620 608
f 612 608 619
f 620 616 615
f 620 615 608
f 609 621 620
f 609 620 612
f 621 622 616
f 621 616 620
f 623 621 609
f 623 609 624
f 625 626 597
f 625 597 595
f 597 627 604
f 597 604 596
f 627 628 602
f 627 602 604
f 629 631 630
f 629 630 605
f 628 629 605
f 628 605 602
f 632 633 631
f 632 631 629
f 634 632 629
f 634 629 628
f 635 634 628
f 635 628 627
f 635 627 597
f 635 597 626
f 636 637 626
f 636 626 625
f 638 637 636
f 638 636 639
f 637 640 635
f 637 635 626
f 640 641 634
f 640 634 635
f 632 643 642
f 632 642 633
f 641 643 632
f 641 632 634
f 643 645 644
f 643 644 642
f 623 646 622
f 623 622 621
f 645 646 623
f 645 623 644
f 622 647 617
f 622 617 616
f 648 647 622
f 648 622 646
f 649 648 646
f 649 646 645
f 649 645 643
f 649 643 641
f 650 649 641
f 650 641 640
f 650 640 637
f 650 637 638
f 651 652 617
f 651 617 647
f 652 653 613
f 652 613 617
f 653 654 610
f 653 610 613
f 655 638 639
f 655 639 656
f 655 657 650
f 655 650 638
f 648 658 651
f 648 651 647
f 649 659 658
f 649 658 648
f 657 659 649
f 657 649 650
f 660 661 651
f 660 651 658
f 661 662 652
f 661 652 651
f 663 655 656
f 663 656 664
f 663 665 657
f 663 657 655
f 666 667 661
f 666 661 660
f 659 666 660
f 659 660 658
f 665 666 659
f 665 659 657
f 667 666 665
f 667 665 663
f 667 668 662
f 667 662 661
f 668 667 663
f 668 663 664
f 669 653 652
f 669 652 662
f 669 670 654
f 669 654 653
f 671 669 662
f 671 662 668
f 671 672 670
f 671 670 669
f 673 671 668
f 673 668 664
f 673 674 672
f 673 672 671
f 672 675 654
f 672 654 670
f 676 673 664
f 676 664 656
f 624 677 644
f 624 644 623
f 678 676 656
f 678 656 639
f 610 679 624
f 610 624 609
f 679 610 654
f 679 654 675
f 680 674 673
f 680 673 676
f 680 675 672
f 680 672 674
f 681 683 599
f 681 599 682
f 683 684 601
f 683 601 599
f 685 681 572
f 685 572 564
f 686 683 681
f 686 681 685
f 686 687 684
f 686 684 683
f 688 685 564
f 688 564 565
f 689 686 685
f 689 685 688
f 689 690 687
f 689 687 686
f 691 603 601
f 691 601 684
f 692 691 684
f 692 684 687
f 693 694 566
f 693 566 598
f 691 693 598
f 691 598 603
f 695 692 687
f 695 687 690
f 696 693 691
f 696 691 692
f 695 697 696
f 695 696 692
f 698 699 696
f 698 696 697
f 700 701 699
f 700 699 698
f 702 701 700
f 702 700 703
f 696 704 694
f 696 694 693
f 694 705 485
f 694 485 566
f 485 705 706
f 485 706 484
f 699 707 704
f 699 704 696
f 708 707 699
f 708 699 701
f 702 709 708
f 702 708 701
f 708 711 710
f 708 710 707
f 709 712 711
f 709 711 708
f 713 705 694
f 713 694 704
f 710 713 704
f 710 704 707
f 713 714 706
f 713 706 705
f 715 716 714
f 715 714 713
f 716 715 718
f 716 718 717
f 718 559 561
f 718 561 717
f 718 556 553
f 718 553 559
f 719 715 713
f 719 713 710
f 711 720 719
f 711 719 710
f 510 515 472
f 516 517 722
f 516 722 721
f 721 723 518
f 721 518 516
f 260 723 721
f 260 721 722
f 518 725 512
f 518 512 513
f 545 726 548
f 545 548 544
f 726 728 727
f 726 727 548
f 587 588 584
f 587 584 583
f 727 729 583
f 727 583 548
f 730 731 729
f 730 729 727
f 519 514 520
f 519 520 475
f 511 545 520
f 511 520 514
f 732 735 734
f 732 734 733
f 736 511 512
f 736 512 725
f 736 726 545
f 736 545 511
f 737 725 518
f 737 518 723
f 738 737 723
f 738 723 260
f 739 740 737
f 739 737 738
f 739 741 728
f 739 728 740
f 736 740 728
f 736 728 726
f 737 740 736
f 737 736 725
f 728 741 730
f 728 730 727
f 742 743 586
f 742 586 587
f 729 742 587
f 729 587 583
f 743 578 577
f 743 577 586
f 731 744 742
f 731 742 729
f 471 745 509
f 471 509 470
f 578 745 471
f 578 471 468
f 746 745 578
f 746 578 743
f 744 746 743
f 744 743 742
f 556 748 747
f 556 747 555
f 749 748 556
f 749 556 718
f 715 750 749
f 715 749 718
f 719 751 750
f 719 750 715
f 752 753 750
f 752 750 751
f 753 754 749
f 753 749 750
f 754 755 748
f 754 748 749
f 755 756 747
f 755 747 748
f 757 758 755
f 757 755 754
f 758 759 756
f 758 756 755
f 758 761 760
f 758 760 759
f 757 762 761
f 757 761 758
f 761 764 763
f 761 763 760
f 765 757 754
f 765 754 753
f 766 765 753
f 766 753 752
f 767 764 761
f 767 761 762
f 765 767 762
f 765 762 757
f 764 769 768
f 764 768 763
f 770 767 765
f 770 765 766
f 770 769 764
f 770 764 767
f 771 766 752
f 771 752 772
f 769 774 773
f 769 773 768
f 775 776 771
f 775 771 772
f 777 776 775
f 777 775 778
f 771 779 770
f 771 770 766
f 779 774 769
f 779 769 770
f 774 781 780
f 774 780 773
f 782 779 771
f 782 771 776
f 783 782 776
f 783 776 777
f 782 783 784
f 782 784 781
f 782 781 774
f 782 774 779
f 785 783 777
f 785 777 778
f 785 786 784
f 785 784 783
f 786 780 781
f 786 781 784
f 712 787 720
f 712 720 711
f 720 788 751
f 720 751 719
f 789 788 720
f 789 720 787
f 788 790 752
f 788 752 751
f 791 772 752
f 791 752 790
f 792 775 772
f 792 772 791
f 793 778 775
f 793 775 792
f 794 785 778
f 794 778 793
f 795 786 785
f 795 785 794
f 796 790 788
f 796 788 797
f 796 798 791
f 796 791 790
f 734 735 461
f 734 461 799
f 801 797 788
f 801 788 789
f 801 802 796
f 801 796 797
f 803 792 791
f 803 791 798
f 802 804 798
f 802 798 796
f 805 793 792
f 805 792 803
f 805 806 794
f 805 794 793
f 807 808 806
f 807 806 805
f 808 795 794
f 808 794 806
f 804 809 803
f 804 803 798
f 809 807 805
f 809 805 803
f 810 811 714
f 810 714 716
f 811 812 706
f 811 706 714
f 812 813 484
f 812 484 706
f 813 814 487
f 813 487 484
f 815 818 817
f 815 817 816
f 818 819 481
f 818 481 817
f 819 820 480
f 819 480 481
f 820 821 579
f 820 579 480
f 821 822 573
f 821 573 579
f 822 823 562
f 822 562 573
f 823 824 561
f 823 561 562
f 824 825 717
f 824 717 561
f 825 810 716
f 825 716 717
f 826 827 813
f 826 813 812
f 826 812 811
f 826 811 828
f 829 828 811
f 829 811 810
f 830 829 810
f 830 810 825
f 831 830 825
f 831 825 824
f 832 814 813
f 832 813 827
f 833 832 827
f 833 827 826
f 834 835 818
f 834 818 815
f 836 819 818
f 836 818 835
f 831 837 829
f 831 829 830
f 838 831 824
f 838 824 823
f 839 838 823
f 839 823 822
f 840 839 822
f 840 822 821
f 841 840 821
f 841 821 820
f 841 820 819
f 841 819 836
f 842 836 835
f 842 835 834
f 679 843 677
f 679 677 624
f 844 845 814
f 844 814 832
f 844 847 846
f 844 846 845
f 847 834 815
f 847 815 846
f 848 846 815
f 848 815 816
f 487 850 849
f 487 849 486
f 848 850 845
f 848 845 846
f 850 487 814
f 850 814 845
f 837 851 828
f 837 828 829
f 851 833 826
f 851 826 828
f 852 844 832
f 852 832 833
f 838 853 837
f 838 837 831
f 854 851 837
f 854 837 853
f 854 852 833
f 854 833 851
f 855 842 834
f 855 834 847
f 856 857 839
f 856 839 840
f 855 847 844
f 855 844 852
f 839 857 853
f 839 853 838
f 858 854 853
f 858 853 857
f 859 858 857
f 859 857 856
f 841 859 856
f 841 856 840
f 842 859 841
f 842 841 836
f 858 859 842
f 858 842 855
f 858 855 852
f 858 852 854
f 843 680 676
f 843 676 678
f 843 679 675
f 843 675 680
f 677 860 642
f 677 642 644
f 861 678 639
f 861 639 636
f 862 843 678
f 862 678 861
f 862 860 677
f 862 677 843
f 860 863 633
f 860 633 642
f 864 861 636
f 864 636 625
f 865 862 861
f 865 861 864
f 865 863 860
f 865 860 862
f 863 866 631
f 863 631 633
f 867 864 625
f 867 625 595
f 868 865 864
f 868 864 867
f 868 866 863
f 868 863 865
f 869 567 486
f 869 486 849
f 567 869 867
f 567 867 595
f 870 868 867
f 870 867 869
f 866 871 630
f 866 630 631
f 872 606 605
f 872 605 630
f 873 849 850
f 873 850 848
f 873 870 869
f 873 869 849
f 870 871 866
f 870 866 868
f 874 871 870
f 874 870 873
f 874 872 630
f 874 630 871
f 875 873 848
f 875 848 816
f 876 619 608
f 876 608 607
f 876 607 606
f 876 606 872
f 877 618 614
f 877 614 611
f 619 877 611
f 619 611 612
f 618 878 478
f 618 478 615
f 879 874 873
f 879 873 875
f 879 876 872
f 879 872 874
f 879 877 619
f 879 619 876
f 879 878 618
f 879 618 877
f 880 875 816
f 880 816 817
f 880 817 481
f 880 481 482
f 881 879 875
f 881 875 880
f 881 882 878
f 881 878 879
f 883 482 483
f 883 483 582
f 884 506 476
f 884 476 477
f 885 593 575
f 885 575 525
f 886 504 506
f 886 506 884
f 885 883 582
f 885 582 593
f 881 883 800
f 881 800 882
f 883 881 880
f 883 880 482
f 882 800 884
f 882 884 477
f 878 882 477
f 878 477 478
f 800 724 886
f 800 886 884
f 885 724 800
f 885 800 883
f 524 459 885
f 524 885 525
f 455 502 504
f 455 504 886
f 724 446 455
f 724 455 886
f 459 446 724
f 459 724 885
f 455 347 500
f 455 500 502
f 346 459 524
f 346 524 543
f 345 446 459
f 345 459 346
f 345 347 455
f 345 455 446
f 546 342 346
f 546 346 543
f 340 345 346
f 340 346 342
f 347 339 499
f 347 499 500
f 340 339 347
f 340 347 345
f 336 574 563
f 336 563 571
f 590 335 342
f 590 342 546
f 594 335 590
f 594 590 591
f 496 331 568
f 496 568 494
f 331 682 599
f 331 599 568
f 536 325 496
f 536 496 497
f 499 325 536
f 499 536 498
f 323 340 342
f 323 342 335
f 322 572 681
f 322 681 682
f 316 323 335
f 316 335 594
f 322 336 571
f 322 571 572
f 316 594 592
f 316 592 581
f 309 580 574
f 309 574 336
f 304 309 336
f 304 336 322
f 309 316 581
f 309 581 580
f 309 304 323
f 309 323 316
f 304 339 340
f 304 340 323
f 304 325 499
f 304 499 339
f 304 331 496
f 304 496 325
f 304 322 682
f 304 682 331
f 299 296 703
f 299 703 700
f 295 292 697
f 295 697 695
f 283 299 700
f 283 700 698
f 292 283 698
f 292 698 697
f 282 295 695
f 282 695 690
f 281 282 690
f 281 690 689
f 280 281 689
f 280 689 688
f 277 280 688
f 277 688 565
f 549 275 277
f 549 277 565
f 550 274 275
f 550 275 549
f 277 267 268
f 277 268 280
f 256 267 277
f 256 277 275
f 247 256 275
f 247 275 274
f 799 461 296
f 799 296 299
f 283 244 799
f 283 799 299
f 238 237 292
f 238 292 295
f 237 244 283
f 237 283 292
f 282 92 238
f 282 238 295
f 281 90 92
f 281 92 282
f 268 90 281
f 268 281 280
f 92 89 237
f 92 237 238
f 90 86 89
f 90 89 92
f 85 86 90
f 85 90 268
f 89 46 244
f 89 244 237
f 267 44 85
f 267 85 268
f 43 86 85
f 43 85 44
f 43 46 89
f 43 89 86
f 256 42 44
f 256 44 267
f 734 799 244
f 734 244 46
f 733 43 44
f 733 44 42
f 733 734 46
f 733 46 43
f 247 41 42
f 247 42 256
f 41 732 733
f 41 733 42
