# C3 posed
v -0.687966 -0.067393 0.489962
v -0.705822 -0.043764 0.454297
v -0.690333 -0.068612 0.487481
v -0.687510 -0.068167 0.489847
v -0.690478 -0.069475 0.470285
v -0.695528 -0.071642 0.470869
v -0.694880 -0.068936 0.471337
v -0.690743 -0.067590 0.470724
v -0.704085 -0.043619 0.455069
v -0.702971 -0.043085 0.455581
v -0.687562 -0.067465 0.475900
v -0.682211 -0.066708 0.492085
v -0.681334 -0.066794 0.490264
v -0.681901 -0.065987 0.490132
v -0.682599 -0.066238 0.491766
v -0.697168 -0.084621 0.456974
v -0.697690 -0.080553 0.460304
v -0.696346 -0.080450 0.460478
v -0.695605 -0.084093 0.456858
v -0.694690 -0.079072 0.465079
v -0.696430 -0.079431 0.464934
v -0.694505 -0.080118 0.460295
v -0.694068 -0.082758 0.456176
v -0.691111 -0.078779 0.465287
v -0.702154 -0.042519 0.456233
v -0.685262 -0.066766 0.480931
v -0.701384 -0.041946 0.457304
v -0.701005 -0.041247 0.459044
v -0.684700 -0.067108 0.491396
v -0.682546 -0.068641 0.488258
v -0.682609 -0.066611 0.488487
v -0.686695 -0.069421 0.489716
v -0.684275 -0.067865 0.491754
v -0.686027 -0.079277 0.469902
v -0.682634 -0.079683 0.468039
v -0.683056 -0.077603 0.467862
v -0.684455 -0.076670 0.469657
v -0.686062 -0.083961 0.467360
v -0.682606 -0.083240 0.466428
v -0.680166 -0.082328 0.466126
v -0.679802 -0.078965 0.467628
v -0.681442 -0.077484 0.467209
v -0.701253 -0.040910 0.460379
v -0.701774 -0.040926 0.461157
v -0.683478 -0.066510 0.486357
v -0.691115 -0.085803 0.447532
v -0.689584 -0.085069 0.448399
v -0.688332 -0.084930 0.448847
v -0.687280 -0.085035 0.449391
v -0.683134 -0.085417 0.464125
v -0.680436 -0.084471 0.464160
v -0.686521 -0.086631 0.465327
v -0.683777 -0.068325 0.485248
v -0.685018 -0.068744 0.481304
v -0.694889 -0.071547 0.473920
v -0.693616 -0.071177 0.475260
v -0.692031 -0.068488 0.482113
v -0.694658 -0.068935 0.474944
v -0.683047 -0.076396 0.465890
v -0.685360 -0.075818 0.468418
v -0.681781 -0.075887 0.465624
v -0.690695 -0.070749 0.476421
v -0.689714 -0.068896 0.481551
v -0.681167 -0.078650 0.459868
v -0.681257 -0.081806 0.458537
v -0.681510 -0.081716 0.457900
v -0.681550 -0.077944 0.459213
v -0.681126 -0.076542 0.462020
v -0.681901 -0.075810 0.461991
v -0.680272 -0.076187 0.464622
v -0.680841 -0.075721 0.465261
v -0.687925 -0.088030 0.462496
v -0.684300 -0.086690 0.461901
v -0.682015 -0.085930 0.461192
v -0.687020 -0.087017 0.458913
v -0.685161 -0.086143 0.459306
v -0.682503 -0.085231 0.458194
v -0.679266 -0.077325 0.465762
v -0.679372 -0.077067 0.466550
v -0.678676 -0.079138 0.465913
v -0.678898 -0.078944 0.466994
v -0.678383 -0.081583 0.465076
v -0.678689 -0.081929 0.465811
v -0.690786 -0.088948 0.460028
v -0.687523 -0.088119 0.457244
v -0.684626 -0.084560 0.455956
v -0.683830 -0.083476 0.456514
v -0.684401 -0.085872 0.455218
v -0.678644 -0.083281 0.463512
v -0.678599 -0.084122 0.464150
v -0.682113 -0.081595 0.456996
v -0.680801 -0.084253 0.458530
v -0.681385 -0.084860 0.458088
v -0.679654 -0.084485 0.460449
v -0.680112 -0.085397 0.460283
v -0.684224 -0.089202 0.454664
v -0.682892 -0.088191 0.453757
v -0.689201 -0.088254 0.455749
v -0.685482 -0.089558 0.453977
v -0.692624 -0.088488 0.457851
v -0.699288 -0.069512 0.455822
v -0.700235 -0.066279 0.456365
v -0.700718 -0.066200 0.454823
v -0.699888 -0.068991 0.454367
v -0.691684 -0.081713 0.444355
v -0.692632 -0.081565 0.444877
v -0.693091 -0.079976 0.444355
v -0.691801 -0.079704 0.443977
v -0.692460 -0.083204 0.443351
v -0.692994 -0.082832 0.444366
v -0.702572 -0.041517 0.461711
v -0.686403 -0.063873 0.447678
v -0.686149 -0.064820 0.449861
v -0.685336 -0.066987 0.449284
v -0.685408 -0.066438 0.447318
v -0.691249 -0.070142 0.456329
v -0.692485 -0.067169 0.457349
v -0.694805 -0.067904 0.457135
v -0.693257 -0.070584 0.455908
v -0.689087 -0.082984 0.453838
v -0.690006 -0.084597 0.454563
v -0.697487 -0.081725 0.464361
v -0.695958 -0.083530 0.465742
v -0.695749 -0.082939 0.467134
v -0.696728 -0.082090 0.466034
v -0.698815 -0.070810 0.450050
v -0.699676 -0.073095 0.451027
v -0.699616 -0.072410 0.452077
v -0.699410 -0.070781 0.452627
v -0.678873 -0.079520 0.465038
v -0.679430 -0.078557 0.464572
v -0.680160 -0.077812 0.463419
v -0.693264 -0.085428 0.443931
v -0.691571 -0.083989 0.443482
v -0.691716 -0.085805 0.443935
v -0.678866 -0.081278 0.464236
v -0.681727 -0.068708 0.493437
v -0.680906 -0.069441 0.491207
v -0.680341 -0.068176 0.491366
v -0.680904 -0.067584 0.493018
v -0.679004 -0.082694 0.463188
v -0.679692 -0.080880 0.463123
v -0.690342 -0.076143 0.467645
v -0.687748 -0.076384 0.469079
v -0.686841 -0.077494 0.465486
v -0.679871 -0.083163 0.461477
v -0.680737 -0.082958 0.459815
v -0.686744 -0.069484 0.474876
v -0.681158 -0.081770 0.459301
v -0.685232 -0.066682 0.451318
v -0.685031 -0.067434 0.450477
v -0.685875 -0.064415 0.446081
v -0.686459 -0.062696 0.445944
v -0.684614 -0.079072 0.454513
v -0.683924 -0.081265 0.454520
v -0.683754 -0.082685 0.454034
v -0.687446 -0.060174 0.446229
v -0.687534 -0.060521 0.448197
v -0.683308 -0.084049 0.453394
v -0.687485 -0.060891 0.450599
v -0.686961 -0.061028 0.452593
v -0.686231 -0.063260 0.452231
v -0.696350 -0.068556 0.456919
v -0.694998 -0.071274 0.455829
v -0.693679 -0.064236 0.457924
v -0.696063 -0.065055 0.457831
v -0.690499 -0.077852 0.461658
v -0.691649 -0.077071 0.458094
v -0.693840 -0.079518 0.456723
v -0.686182 -0.076536 0.461802
v -0.688715 -0.075667 0.458574
v -0.689447 -0.065958 0.457121
v -0.690484 -0.063065 0.457588
v -0.685898 -0.064515 0.456851
v -0.686859 -0.061748 0.457286
v -0.694653 -0.078482 0.452926
v -0.692812 -0.075047 0.455908
v -0.690502 -0.073590 0.456319
v -0.685511 -0.063760 0.454906
v -0.686410 -0.061264 0.455256
v -0.693695 -0.073858 0.455219
v -0.695613 -0.075282 0.454621
v -0.692255 -0.072746 0.455677
v -0.699471 -0.064763 0.448610
v -0.700505 -0.064583 0.445238
v -0.700054 -0.066905 0.444962
v -0.698849 -0.067463 0.448072
v -0.699919 -0.065433 0.451797
v -0.699104 -0.068114 0.451198
v -0.688508 -0.069179 0.486774
v -0.701360 -0.047398 0.458759
v -0.703555 -0.050174 0.459755
v -0.699108 -0.070539 0.447373
v -0.699698 -0.069514 0.444854
v -0.690033 -0.086384 0.455010
v -0.694210 -0.086845 0.456534
v -0.698266 -0.081938 0.461769
v -0.696035 -0.084088 0.464432
v -0.687433 -0.071014 0.477380
v -0.687074 -0.069138 0.481182
v -0.685615 -0.069546 0.485738
v -0.684980 -0.070948 0.478066
v -0.697644 -0.084888 0.459198
v -0.695965 -0.085601 0.462847
v -0.696649 -0.087737 0.458269
v -0.695859 -0.088428 0.460821
v -0.684403 -0.069983 0.488573
v -0.694472 -0.087482 0.464900
v -0.694788 -0.089231 0.463338
v -0.694464 -0.086312 0.466313
v -0.685152 -0.069659 0.477501
v -0.694658 -0.085125 0.467214
v -0.694988 -0.084062 0.467745
v -0.685288 -0.066049 0.454235
v -0.685361 -0.067111 0.456117
v -0.694707 -0.075756 0.471629
v -0.693462 -0.076207 0.472450
v -0.695054 -0.074581 0.469535
v -0.688535 -0.068884 0.456529
v -0.688066 -0.071879 0.456209
v -0.684813 -0.069263 0.454997
v -0.684782 -0.067989 0.453398
v -0.689578 -0.080056 0.469777
v -0.693204 -0.079244 0.470115
v -0.694603 -0.081427 0.468477
v -0.692974 -0.083017 0.468931
v -0.696259 -0.080381 0.467118
v -0.695055 -0.078548 0.469131
v -0.695392 -0.082200 0.468304
v -0.696770 -0.081205 0.466845
v -0.694130 -0.083656 0.468867
v -0.686293 -0.061992 0.444393
v -0.686947 -0.059766 0.444782
v -0.697322 -0.080039 0.464650
v -0.697762 -0.080663 0.464538
v -0.685432 -0.064084 0.444374
v -0.685249 -0.066225 0.445361
v -0.683989 -0.068132 0.443522
v -0.684548 -0.064850 0.442103
v -0.683843 -0.070161 0.444861
v -0.684869 -0.067541 0.446183
v -0.681418 -0.069534 0.490248
v -0.682887 -0.070676 0.490769
v -0.680612 -0.067651 0.490822
v -0.704716 -0.045188 0.454011
v -0.683733 -0.070341 0.446733
v -0.684477 -0.068333 0.447622
v -0.684160 -0.069134 0.449706
v -0.683388 -0.071295 0.449323
v -0.684012 -0.068991 0.451574
v -0.683858 -0.070193 0.492059
v -0.683181 -0.068574 0.492909
v -0.682238 -0.069908 0.493001
v -0.681516 -0.067015 0.492627
v -0.686035 -0.058962 0.441764
v -0.685325 -0.062119 0.441682
v -0.681697 -0.070210 0.491813
v -0.684825 -0.073040 0.473852
v -0.687311 -0.073574 0.472668
v -0.684467 -0.074069 0.474596
v -0.685412 -0.062496 0.439756
v -0.685011 -0.065621 0.440434
v -0.686591 -0.074354 0.457802
v -0.683824 -0.071308 0.452931
v -0.684576 -0.074621 0.452573
v -0.684780 -0.073746 0.449252
v -0.685511 -0.072522 0.446141
v -0.686266 -0.058724 0.439787
v -0.687774 -0.058995 0.438191
v -0.686866 -0.063051 0.438203
v -0.686733 -0.066328 0.438812
v -0.689584 -0.063056 0.438894
v -0.690516 -0.060099 0.439092
v -0.689332 -0.066046 0.439109
v -0.689175 -0.084619 0.467935
v -0.691867 -0.085750 0.468316
v -0.689635 -0.087566 0.466196
v -0.691558 -0.088154 0.466817
v -0.693268 -0.066397 0.440069
v -0.693735 -0.063797 0.440140
v -0.694430 -0.061680 0.440407
v -0.697807 -0.065157 0.439977
v -0.698484 -0.063065 0.440200
v -0.697285 -0.067298 0.439907
v -0.701100 -0.066030 0.439939
v -0.706156 -0.042954 0.453636
v -0.689505 -0.075576 0.473103
v -0.702379 -0.064763 0.442284
v -0.701817 -0.066440 0.442082
v -0.686857 -0.075301 0.474077
v -0.701179 -0.068093 0.442206
v -0.700414 -0.067904 0.440004
v -0.693318 -0.085841 0.468258
v -0.700734 -0.069629 0.442175
v -0.700358 -0.070905 0.442814
v -0.693043 -0.087803 0.466923
v -0.700024 -0.068543 0.453229
v -0.700825 -0.066050 0.453659
v -0.700154 -0.073787 0.448235
v -0.700080 -0.073953 0.449717
v -0.700291 -0.073646 0.446206
v -0.698241 -0.085060 0.456973
v -0.698776 -0.080752 0.460168
v -0.698917 -0.081208 0.460603
v -0.698436 -0.085161 0.457573
v -0.700239 -0.072921 0.444652
v -0.700198 -0.072321 0.443335
v -0.699974 -0.069984 0.440279
v -0.699603 -0.072121 0.440739
v -0.692305 -0.089817 0.464820
v -0.690726 -0.089391 0.464267
v -0.693546 -0.089598 0.465083
v -0.693698 -0.091031 0.461696
v -0.692513 -0.090891 0.460946
v -0.694457 -0.090570 0.462379
v -0.699448 -0.073857 0.441899
v -0.699603 -0.071851 0.453810
v -0.700224 -0.074083 0.452891
v -0.695185 -0.090515 0.458789
v -0.694162 -0.090125 0.458092
v -0.695636 -0.090147 0.459654
v -0.700784 -0.075490 0.451604
v -0.699407 -0.076954 0.452416
v -0.699223 -0.075261 0.453878
v -0.701038 -0.076068 0.449813
v -0.699748 -0.077721 0.450221
v -0.701133 -0.076139 0.447944
v -0.696632 -0.089047 0.457116
v -0.696065 -0.088295 0.456572
v -0.696797 -0.088846 0.457673
v -0.700820 -0.075857 0.445685
v -0.699916 -0.075121 0.443545
v -0.699259 -0.077340 0.445860
v -0.699937 -0.077687 0.448087
v -0.694460 -0.076820 0.467668
v -0.697377 -0.077804 0.446833
v -0.697594 -0.078119 0.448679
v -0.690214 -0.073184 0.469207
v -0.697402 -0.078317 0.450537
v -0.699045 -0.072708 0.454944
v -0.699437 -0.066155 0.457329
v -0.698470 -0.069473 0.456730
v -0.697817 -0.072728 0.455620
v -0.683338 -0.075215 0.461709
v -0.697404 -0.075570 0.454219
v -0.697063 -0.077711 0.452455
v -0.680724 -0.077703 0.462060
v -0.697411 -0.065491 0.457608
v -0.698326 -0.065807 0.457580
v -0.697409 -0.069095 0.456856
v -0.682509 -0.077315 0.458310
v -0.681074 -0.079605 0.460596
v -0.696381 -0.072156 0.455801
v -0.684953 -0.076479 0.455978
v -0.685144 -0.069286 0.441052
v -0.687307 -0.068938 0.439951
v -0.685738 -0.071605 0.442811
v -0.685667 -0.076804 0.451962
v -0.686956 -0.074955 0.446407
v -0.687375 -0.072818 0.443549
v -0.680500 -0.080344 0.461688
v -0.688014 -0.071066 0.441476
v -0.689167 -0.073722 0.442218
v -0.691748 -0.074478 0.441634
v -0.690945 -0.071631 0.441120
v -0.689736 -0.076516 0.442694
v -0.688139 -0.075606 0.443475
v -0.684282 -0.089082 0.453047
v -0.689701 -0.068828 0.439838
v -0.686217 -0.081101 0.452833
v -0.686817 -0.079344 0.452356
v -0.687300 -0.077980 0.451126
v -0.696591 -0.069651 0.439874
v -0.685772 -0.082667 0.453039
v -0.692968 -0.068954 0.440212
v -0.693757 -0.071947 0.440586
v -0.696603 -0.072170 0.440165
v -0.684708 -0.083378 0.452826
v -0.682297 -0.086978 0.452540
v -0.682454 -0.084233 0.451670
v -0.683748 -0.083188 0.451506
v -0.682621 -0.086370 0.451210
v -0.694384 -0.074880 0.441470
v -0.687523 -0.083459 0.453128
v -0.687814 -0.081822 0.452540
v -0.688393 -0.080042 0.451922
v -0.697056 -0.074690 0.441517
v -0.685826 -0.084920 0.452795
v -0.686426 -0.085178 0.453311
v -0.687251 -0.085287 0.453802
v -0.692087 -0.077245 0.442647
v -0.694594 -0.078066 0.443380
v -0.695325 -0.078153 0.448840
v -0.694953 -0.078426 0.450660
v -0.685445 -0.084447 0.451708
v -0.683356 -0.083575 0.449724
v -0.684321 -0.082581 0.450232
v -0.686104 -0.083780 0.450514
v -0.684033 -0.088106 0.452473
v -0.684398 -0.087274 0.451449
v -0.695464 -0.077975 0.447347
v -0.697261 -0.076951 0.443630
v -0.684025 -0.085469 0.449311
v -0.685512 -0.086298 0.449731
v -0.688563 -0.078551 0.450724
v -0.696418 -0.077944 0.445059
v -0.687683 -0.077077 0.449283
v -0.686157 -0.075715 0.449381
v -0.694477 -0.078626 0.444731
v -0.688682 -0.077596 0.449262
v -0.695463 -0.078025 0.446107
v -0.693313 -0.078228 0.446083
v -0.693679 -0.078117 0.447482
v -0.687964 -0.076647 0.447501
v -0.689077 -0.077209 0.447950
v -0.691164 -0.077868 0.446794
v -0.691009 -0.077843 0.447758
v -0.693052 -0.078927 0.450651
v -0.693554 -0.078373 0.448880
v -0.688504 -0.077537 0.446083
v -0.687683 -0.076331 0.444847
v -0.689865 -0.077670 0.446623
v -0.690754 -0.078214 0.449099
v -0.692451 -0.079615 0.452417
v -0.690379 -0.079032 0.450542
v -0.686835 -0.078443 0.444732
v -0.687315 -0.078999 0.446250
v -0.688685 -0.082339 0.448295
v -0.689991 -0.080483 0.446843
v -0.686161 -0.081123 0.445555
v -0.686043 -0.080312 0.447124
v -0.687822 -0.082918 0.448991
v -0.690007 -0.080218 0.451989
v -0.688358 -0.079071 0.444145
v -0.688647 -0.082200 0.445264
v -0.685068 -0.081458 0.448585
v -0.684407 -0.082210 0.447498
v -0.686966 -0.083254 0.449612
v -0.690110 -0.079731 0.444232
v -0.692712 -0.080002 0.445346
v -0.687622 -0.084483 0.446900
v -0.685402 -0.084471 0.447686
v -0.692400 -0.086116 0.446267
v -0.691909 -0.086583 0.445598
v -0.686718 -0.085584 0.448592
v -0.693016 -0.083743 0.445574
v -0.688155 -0.085363 0.447972
v -0.692497 -0.084876 0.446628
v -0.691210 -0.078891 0.446133
v -0.689196 -0.084865 0.446382
v -0.689502 -0.085687 0.447606
v -0.691674 -0.081920 0.446525
v -0.690439 -0.082979 0.444634
v -0.690500 -0.085398 0.445272
v -0.690949 -0.086423 0.446641
v -0.691140 -0.083993 0.447766
v -0.692701 -0.081197 0.454762
v -0.689381 -0.081640 0.453248
v -0.686462 -0.087568 0.454301
v -0.685528 -0.087365 0.453684
v -0.685184 -0.086842 0.452987
v -0.685325 -0.086066 0.451832
v -0.686220 -0.085291 0.450328
v -0.705313 -0.043057 0.452086
v -0.691081 -0.068075 0.487428
v -0.690814 -0.067236 0.487703
v -0.688090 -0.066509 0.490114
v -0.693140 -0.061865 0.471510
v -0.698377 -0.063498 0.472180
v -0.696172 -0.065241 0.471932
v -0.692157 -0.063547 0.471375
v -0.691291 -0.065538 0.471203
v -0.688440 -0.065330 0.476113
v -0.689071 -0.063152 0.476594
v -0.682812 -0.064990 0.492361
v -0.682353 -0.063882 0.490732
v -0.682320 -0.064789 0.490325
v -0.682862 -0.065485 0.491887
v -0.708938 -0.050976 0.462388
v -0.706544 -0.055245 0.464376
v -0.705406 -0.054551 0.464646
v -0.707398 -0.050382 0.462283
v -0.702813 -0.055854 0.468815
v -0.704415 -0.056607 0.468606
v -0.703774 -0.053624 0.464558
v -0.705442 -0.050245 0.461408
v -0.699798 -0.053948 0.469283
v -0.685576 -0.065243 0.481793
v -0.686341 -0.063680 0.481428
v -0.682797 -0.065865 0.491699
v -0.684939 -0.066558 0.491355
v -0.685081 -0.066017 0.491572
v -0.684628 -0.062687 0.489216
v -0.683419 -0.064296 0.488859
v -0.688226 -0.065045 0.490420
v -0.685173 -0.065297 0.492167
v -0.695648 -0.051774 0.474327
v -0.693409 -0.048884 0.472995
v -0.692491 -0.050634 0.472202
v -0.692847 -0.052682 0.473517
v -0.698779 -0.047610 0.473210
v -0.695712 -0.045777 0.472457
v -0.693266 -0.044882 0.472152
v -0.690783 -0.047576 0.472680
v -0.691212 -0.049556 0.471703
v -0.683862 -0.065424 0.486648
v -0.682936 -0.065426 0.488674
v -0.684250 -0.064303 0.486712
v -0.710837 -0.046695 0.466646
v -0.711153 -0.047812 0.464276
v -0.711200 -0.047406 0.463817
v -0.710791 -0.045905 0.465968
v -0.697680 -0.043838 0.470816
v -0.694977 -0.042906 0.470849
v -0.700967 -0.045339 0.471972
v -0.685700 -0.062828 0.486132
v -0.687318 -0.062169 0.482362
v -0.697517 -0.064035 0.475129
v -0.696159 -0.063909 0.476430
v -0.692601 -0.066858 0.482375
v -0.695644 -0.066119 0.475397
v -0.691941 -0.050971 0.469981
v -0.693162 -0.053518 0.472007
v -0.690662 -0.050503 0.469709
v -0.693486 -0.062772 0.477705
v -0.691082 -0.064986 0.482180
v -0.692426 -0.046466 0.465048
v -0.694551 -0.043807 0.464652
v -0.694757 -0.043849 0.463994
v -0.692361 -0.047039 0.464187
v -0.690898 -0.048608 0.466515
v -0.691065 -0.049615 0.466206
v -0.689755 -0.049080 0.468984
v -0.689855 -0.049952 0.469408
v -0.703202 -0.044362 0.469523
v -0.699591 -0.042982 0.468935
v -0.697399 -0.041954 0.468269
v -0.702223 -0.043559 0.465907
v -0.700190 -0.043184 0.466219
v -0.697652 -0.041930 0.465162
v -0.689545 -0.047943 0.470491
v -0.689395 -0.048419 0.471160
v -0.690171 -0.046280 0.471200
v -0.690121 -0.046862 0.472156
v -0.691512 -0.044054 0.471116
v -0.691892 -0.044190 0.471884
v -0.706254 -0.044734 0.467143
v -0.703454 -0.042580 0.464572
v -0.699133 -0.043094 0.462629
v -0.697791 -0.043569 0.462936
v -0.699827 -0.041776 0.462314
v -0.692906 -0.042515 0.470072
v -0.693321 -0.042043 0.470921
v -0.695247 -0.044053 0.463037
v -0.695683 -0.041713 0.465376
v -0.696556 -0.041493 0.465067
v -0.694734 -0.041380 0.467385
v -0.695667 -0.040935 0.467438
v -0.701771 -0.039044 0.462735
v -0.700196 -0.038728 0.461717
v -0.705003 -0.043084 0.463018
v -0.703045 -0.039354 0.462056
v -0.707634 -0.045585 0.464756
v -0.701513 -0.063151 0.456846
v -0.703854 -0.044635 0.450804
v -0.703994 -0.046703 0.452192
v -0.701811 -0.063496 0.455252
v -0.704089 -0.046254 0.450062
v -0.704694 -0.047088 0.450425
v -0.704137 -0.048399 0.449436
v -0.702994 -0.047710 0.449125
v -0.705706 -0.045340 0.449444
v -0.705800 -0.046225 0.450257
v -0.695400 -0.067060 0.471730
v -0.688738 -0.057201 0.448751
v -0.688901 -0.056955 0.451127
v -0.689638 -0.054691 0.451263
v -0.689553 -0.054590 0.449224
v -0.695522 -0.057928 0.458295
v -0.694582 -0.061172 0.458314
v -0.696877 -0.061981 0.458088
v -0.697413 -0.058706 0.457819
v -0.701890 -0.046387 0.459728
v -0.703525 -0.045954 0.460782
v -0.706701 -0.055389 0.468599
v -0.706462 -0.053506 0.470574
v -0.705801 -0.054206 0.471757
v -0.706161 -0.055124 0.470373
v -0.702498 -0.060283 0.451744
v -0.704471 -0.059386 0.453233
v -0.703904 -0.060152 0.454049
v -0.702695 -0.061389 0.454139
v -0.690644 -0.045872 0.470453
v -0.690542 -0.046796 0.469684
v -0.690775 -0.047470 0.468302
v -0.707637 -0.044342 0.450542
v -0.705472 -0.044253 0.449876
v -0.706648 -0.043121 0.450804
v -0.691789 -0.044339 0.470180
v -0.683517 -0.063591 0.494260
v -0.683537 -0.061922 0.492417
v -0.682305 -0.062560 0.492270
v -0.682226 -0.063805 0.493626
v -0.692863 -0.043079 0.469563
v -0.692305 -0.044826 0.468925
v -0.697355 -0.056096 0.470871
v -0.695320 -0.054738 0.472563
v -0.695636 -0.052355 0.469531
v -0.693999 -0.042780 0.467976
v -0.694718 -0.042994 0.466246
v -0.689758 -0.060870 0.476263
v -0.694375 -0.043987 0.465381
v -0.689171 -0.055423 0.453130
v -0.689553 -0.054508 0.452557
v -0.688809 -0.056029 0.447431
v -0.688235 -0.057622 0.446760
v -0.695921 -0.046753 0.459714
v -0.696714 -0.044708 0.460403
v -0.697493 -0.043414 0.460354
v -0.704474 -0.042888 0.454493
v -0.703853 -0.042968 0.453124
v -0.698036 -0.041952 0.460168
v -0.701822 -0.048557 0.451015
v -0.706432 -0.045041 0.453039
v -0.687783 -0.058827 0.452945
v -0.698512 -0.062378 0.457913
v -0.699210 -0.059233 0.457767
v -0.703181 -0.042411 0.454884
v -0.706254 -0.045902 0.451663
v -0.699107 -0.053246 0.465618
v -0.699886 -0.053527 0.461883
v -0.703235 -0.052662 0.461044
v -0.694894 -0.051632 0.465809
v -0.696674 -0.052915 0.462236
v -0.691476 -0.060156 0.458055
v -0.702125 -0.041545 0.455679
v -0.687831 -0.058987 0.457740
v -0.707111 -0.043127 0.452591
v -0.703615 -0.052862 0.457049
v -0.699782 -0.055124 0.459114
v -0.697036 -0.054912 0.459324
v -0.687258 -0.058766 0.455710
v -0.707148 -0.043961 0.453051
v -0.699820 -0.056351 0.458036
v -0.702255 -0.056296 0.457677
v -0.697964 -0.056426 0.458303
v -0.700500 -0.041315 0.454631
v -0.702331 -0.042438 0.453666
v -0.701592 -0.062508 0.445669
v -0.700679 -0.062232 0.448914
v -0.703758 -0.048428 0.450427
v -0.700970 -0.062780 0.452056
v -0.689793 -0.065505 0.487365
v -0.695108 -0.067548 0.475395
v -0.692687 -0.067811 0.482293
v -0.702825 -0.059912 0.449083
v -0.702912 -0.060326 0.446333
v -0.704591 -0.044770 0.461706
v -0.708009 -0.047401 0.462881
v -0.707697 -0.054979 0.466107
v -0.706990 -0.052772 0.469472
v -0.690987 -0.060857 0.479015
v -0.689189 -0.063095 0.482155
v -0.687842 -0.063180 0.486762
v -0.688948 -0.059603 0.479892
v -0.709258 -0.051691 0.464540
v -0.708013 -0.051162 0.468389
v -0.710302 -0.048711 0.464550
v -0.709851 -0.048433 0.467258
v -0.686876 -0.062912 0.489710
v -0.707783 -0.049432 0.471023
v -0.709251 -0.047890 0.469991
v -0.706925 -0.050692 0.472045
v -0.688354 -0.060505 0.478975
v -0.706267 -0.051943 0.472554
v -0.705826 -0.053081 0.472730
v -0.688543 -0.056745 0.455732
v -0.689063 -0.056529 0.457820
v -0.700164 -0.060159 0.474139
v -0.699377 -0.059296 0.475171
v -0.699926 -0.060655 0.471776
v -0.692601 -0.057263 0.458399
v -0.694087 -0.054667 0.458979
v -0.690053 -0.054285 0.457407
v -0.689409 -0.054763 0.455527
v -0.698929 -0.053326 0.474079
v -0.701255 -0.056233 0.473818
v -0.703846 -0.055006 0.472729
v -0.703489 -0.052961 0.473768
v -0.704645 -0.056410 0.470975
v -0.702383 -0.057601 0.472502
v -0.704955 -0.054865 0.472703
v -0.705576 -0.056034 0.470895
v -0.704794 -0.053174 0.473773
v -0.687827 -0.057608 0.445098
v -0.701655 -0.046730 0.449543
v -0.705515 -0.056620 0.468418
v -0.706252 -0.056394 0.468444
v -0.688426 -0.055527 0.445751
v -0.689490 -0.054103 0.447311
v -0.689841 -0.051405 0.446214
v -0.688420 -0.053783 0.443885
v -0.690830 -0.050187 0.448075
v -0.689912 -0.053126 0.448503
v -0.684091 -0.061896 0.491477
v -0.685891 -0.062090 0.492150
v -0.682252 -0.062962 0.491577
v -0.682204 -0.065410 0.490164
v -0.690670 -0.050511 0.449924
v -0.689945 -0.052703 0.450137
v -0.689979 -0.052500 0.452383
v -0.690726 -0.050319 0.452698
v -0.689593 -0.053040 0.454141
v -0.686234 -0.063401 0.493152
v -0.684631 -0.064428 0.493576
v -0.684694 -0.062890 0.494130
v -0.682399 -0.064490 0.493033
v -0.700799 -0.043710 0.455976
v -0.687408 -0.056164 0.442641
v -0.684569 -0.062003 0.493134
v -0.690515 -0.056776 0.476469
v -0.692913 -0.057563 0.475245
v -0.690787 -0.056003 0.477503
v -0.687895 -0.055397 0.440898
v -0.689418 -0.053025 0.442461
v -0.694279 -0.052378 0.461338
v -0.690724 -0.051586 0.456104
v -0.693369 -0.049487 0.456618
v -0.693322 -0.049330 0.453181
v -0.693456 -0.049810 0.449796
v -0.698358 -0.042333 0.453916
v -0.698313 -0.043597 0.454678
v -0.689530 -0.055437 0.439428
v -0.691362 -0.053096 0.440942
v -0.691604 -0.057283 0.439823
v -0.701907 -0.044297 0.451364
v -0.693207 -0.054971 0.440891
v -0.701573 -0.049179 0.473638
v -0.704344 -0.050088 0.474055
v -0.703901 -0.046787 0.472758
v -0.705712 -0.047696 0.473327
v -0.696422 -0.057378 0.441520
v -0.695199 -0.059611 0.440814
v -0.699882 -0.046129 0.449446
v -0.699248 -0.061039 0.440640
v -0.701110 -0.048481 0.457096
v -0.700148 -0.059113 0.441224
v -0.702374 -0.062386 0.440525
v -0.701757 -0.064192 0.440085
v -0.695816 -0.057537 0.476006
v -0.701330 -0.044307 0.455204
v -0.702979 -0.063120 0.442616
v -0.693469 -0.056400 0.477119
v -0.703471 -0.061540 0.443260
v -0.702970 -0.060597 0.441180
v -0.705546 -0.050888 0.473882
v -0.704061 -0.060121 0.443705
v -0.704479 -0.059124 0.444710
v -0.706656 -0.048891 0.473185
v -0.701756 -0.063592 0.454025
v -0.698525 -0.044633 0.452866
v -0.705544 -0.058382 0.450714
v -0.705441 -0.058629 0.452183
v -0.705765 -0.058001 0.448723
v -0.710051 -0.051303 0.462405
v -0.707533 -0.055721 0.464196
v -0.707879 -0.055591 0.464725
v -0.710206 -0.051516 0.462987
v -0.705434 -0.058071 0.447042
v -0.705166 -0.058123 0.445620
v -0.703865 -0.058863 0.442069
v -0.704829 -0.057181 0.443143
v -0.707509 -0.046358 0.471814
v -0.706061 -0.045557 0.471321
v -0.708326 -0.047350 0.471882
v -0.709650 -0.045431 0.469035
v -0.708707 -0.044603 0.468394
v -0.709900 -0.046427 0.469483
v -0.705652 -0.056123 0.444752
v -0.703384 -0.061045 0.455549
v -0.705322 -0.059510 0.455236
v -0.709817 -0.045375 0.465294
v -0.706746 -0.058447 0.454346
v -0.706476 -0.056749 0.455667
v -0.705156 -0.058303 0.456606
v -0.707474 -0.057671 0.452774
v -0.707426 -0.055773 0.453753
v -0.707776 -0.057153 0.451000
v -0.710348 -0.047466 0.463142
v -0.707578 -0.056538 0.448794
v -0.706629 -0.055933 0.446632
v -0.707237 -0.054536 0.449530
v -0.707763 -0.055315 0.451687
v -0.701005 -0.058110 0.470679
v -0.705944 -0.053318 0.450774
v -0.706125 -0.053733 0.452603
v -0.695298 -0.058650 0.471546
v -0.705913 -0.053990 0.454452
v -0.703355 -0.060387 0.456926
v -0.699267 -0.043663 0.451583
v -0.700756 -0.062936 0.457781
v -0.702335 -0.059813 0.457699
v -0.691861 -0.050853 0.465630
v -0.703879 -0.057061 0.457198
v -0.705088 -0.054771 0.456147
v -0.691286 -0.047513 0.466918
v -0.701763 -0.046832 0.452259
v -0.701725 -0.045067 0.454292
v -0.699679 -0.062606 0.457900
v -0.692822 -0.047837 0.463053
v -0.692864 -0.045905 0.466019
v -0.700839 -0.059414 0.457851
v -0.694463 -0.049293 0.460353
v -0.691694 -0.050561 0.444066
v -0.693292 -0.051829 0.442705
v -0.693403 -0.049696 0.446336
v -0.695617 -0.048361 0.456539
v -0.696050 -0.048961 0.450590
v -0.695357 -0.050001 0.447221
v -0.692755 -0.045313 0.467325
v -0.694996 -0.051108 0.444687
v -0.697449 -0.050049 0.446028
v -0.699998 -0.050898 0.445428
v -0.697681 -0.052375 0.444218
v -0.699552 -0.048457 0.447210
v -0.697665 -0.048377 0.447857
v -0.701902 -0.038715 0.461152
v -0.695121 -0.053337 0.442331
v -0.698583 -0.045753 0.458521
v -0.698031 -0.047288 0.457515
v -0.697701 -0.048250 0.455911
v -0.701039 -0.056935 0.441920
v -0.699167 -0.044379 0.459200
v -0.697731 -0.055340 0.442403
v -0.700138 -0.053705 0.443521
v -0.702556 -0.055156 0.442903
v -0.698784 -0.043142 0.459301
v -0.699109 -0.038923 0.460273
v -0.697645 -0.040811 0.458657
v -0.698042 -0.042329 0.458081
v -0.699123 -0.039199 0.458801
v -0.702333 -0.052159 0.445126
v -0.701019 -0.044882 0.459336
v -0.700308 -0.046110 0.458287
v -0.699739 -0.047610 0.457141
v -0.704314 -0.053942 0.444856
v -0.700606 -0.042672 0.459594
v -0.701185 -0.042991 0.460100
v -0.701852 -0.043550 0.460518
v -0.701851 -0.049335 0.447138
v -0.704252 -0.050459 0.447822
v -0.704345 -0.052371 0.452989
v -0.704040 -0.052452 0.454839
v -0.700125 -0.042486 0.458461
v -0.698145 -0.041304 0.456527
v -0.698248 -0.042772 0.456639
v -0.700354 -0.043048 0.457069
v -0.701169 -0.039126 0.460355
v -0.701049 -0.039678 0.459108
v -0.704492 -0.052168 0.451499
v -0.705646 -0.052982 0.447487
v -0.699865 -0.040191 0.456598
v -0.701499 -0.040600 0.457085
v -0.699083 -0.048483 0.455563
v -0.705448 -0.052132 0.449213
v -0.697633 -0.048637 0.453860
v -0.695593 -0.048744 0.453721
v -0.704369 -0.050351 0.449281
v -0.698737 -0.048854 0.453887
v -0.704644 -0.051784 0.450330
v -0.703077 -0.050317 0.450575
v -0.703161 -0.051014 0.451843
v -0.697767 -0.048627 0.452010
v -0.698941 -0.049014 0.452487
v -0.701098 -0.049473 0.451363
v -0.700866 -0.049668 0.452292
v -0.702850 -0.050919 0.455158
v -0.703081 -0.051140 0.453262
v -0.698873 -0.047899 0.450853
v -0.697613 -0.047946 0.449415
v -0.699972 -0.048781 0.451272
v -0.700759 -0.049613 0.453702
v -0.702623 -0.050537 0.457097
v -0.700821 -0.049182 0.455345
v -0.698244 -0.045831 0.449980
v -0.698812 -0.046136 0.451538
f 1 465 3
f 1 3 4
f 5 6 7
f 5 7 8
f 472 473 11
f 472 11 8
f 12 13 14
f 12 14 15
f 16 17 18
f 16 18 19
f 20 18 17
f 20 17 21
f 22 23 19
f 22 19 18
f 24 22 18
f 24 18 20
f 473 488 26
f 473 26 11
f 490 491 29
f 490 29 15
f 13 30 31
f 13 31 14
f 32 33 29
f 32 29 4
f 34 35 36
f 34 36 37
f 34 38 39
f 34 39 35
f 40 41 35
f 40 35 39
f 41 42 36
f 41 36 35
f 506 507 31
f 506 31 45
f 321 330 328
f 321 328 319
f 40 39 50
f 40 50 51
f 52 50 39
f 52 39 38
f 53 54 26
f 53 26 45
f 55 56 57
f 55 57 58
f 59 60 37
f 59 37 36
f 59 36 42
f 59 42 61
f 62 63 57
f 62 57 56
f 64 65 66
f 64 66 67
f 68 64 67
f 68 67 69
f 70 68 69
f 70 69 71
f 72 73 50
f 72 50 52
f 51 50 73
f 51 73 74
f 72 75 76
f 72 76 73
f 74 73 76
f 74 76 77
f 78 70 71
f 78 71 79
f 80 78 79
f 80 79 81
f 82 80 81
f 82 81 83
f 72 84 85
f 72 85 75
f 75 86 87
f 75 87 76
f 85 88 86
f 85 86 75
f 89 82 83
f 89 83 90
f 91 77 76
f 91 76 87
f 65 92 93
f 65 93 66
f 94 89 90
f 94 90 95
f 92 94 95
f 92 95 93
f 85 96 97
f 85 97 88
f 98 99 96
f 98 96 85
f 85 84 100
f 85 100 98
f 101 102 103
f 101 103 104
f 105 106 107
f 105 107 108
f 95 74 77
f 95 77 93
f 90 51 74
f 90 74 95
f 109 110 106
f 109 106 105
f 93 77 91
f 93 91 66
f 574 472 8
f 574 8 7
f 112 113 114
f 112 114 115
f 83 40 51
f 83 51 90
f 81 41 40
f 81 40 83
f 116 117 118
f 116 118 119
f 81 79 42
f 81 42 41
f 19 23 120
f 19 120 121
f 79 71 61
f 79 61 42
f 122 123 124
f 122 124 125
f 126 127 128
f 126 128 129
f 78 80 130
f 78 130 131
f 78 131 132
f 78 132 70
f 133 109 134
f 133 134 135
f 80 82 136
f 80 136 130
f 137 138 139
f 137 139 140
f 89 141 136
f 89 136 82
f 131 130 136
f 131 136 142
f 24 143 144
f 24 144 145
f 94 146 141
f 94 141 89
f 92 147 146
f 92 146 94
f 148 5 8
f 148 8 11
f 65 149 147
f 65 147 92
f 113 150 151
f 113 151 114
f 115 152 153
f 115 153 112
f 154 91 87
f 154 87 155
f 155 87 86
f 155 86 156
f 112 153 157
f 112 157 158
f 159 156 86
f 159 86 88
f 160 161 162
f 160 162 113
f 113 112 158
f 113 158 160
f 119 118 163
f 119 163 164
f 117 165 166
f 117 166 118
f 22 24 145
f 22 145 167
f 167 168 169
f 167 169 22
f 168 167 170
f 168 170 171
f 167 145 59
f 167 59 170
f 165 117 172
f 165 172 173
f 173 172 174
f 173 174 175
f 176 169 168
f 176 168 177
f 171 178 177
f 171 177 168
f 175 174 179
f 175 179 180
f 161 180 179
f 161 179 162
f 176 177 181
f 176 181 182
f 178 183 181
f 178 181 177
f 184 185 186
f 184 186 187
f 188 184 187
f 188 187 189
f 6 55 58
f 6 58 7
f 63 190 3
f 63 3 57
f 654 58 57
f 654 57 655
f 655 57 3
f 655 3 465
f 189 187 193
f 189 193 126
f 190 32 4
f 190 4 3
f 186 194 193
f 186 193 187
f 19 121 195
f 19 195 196
f 196 195 98
f 196 98 100
f 197 198 123
f 197 123 122
f 63 62 199
f 63 199 200
f 63 200 201
f 63 201 190
f 201 200 54
f 201 54 53
f 200 199 202
f 200 202 54
f 197 203 204
f 197 204 198
f 204 203 205
f 204 205 206
f 53 30 207
f 53 207 201
f 190 201 207
f 190 207 32
f 208 204 206
f 208 206 209
f 210 198 204
f 210 204 208
f 506 45 26
f 506 26 488
f 54 202 211
f 54 211 26
f 212 213 124
f 212 124 123
f 53 45 31
f 53 31 30
f 210 212 123
f 210 123 198
f 574 7 58
f 574 58 654
f 113 162 179
f 113 179 214
f 174 215 214
f 174 214 179
f 55 216 217
f 55 217 56
f 216 55 6
f 216 6 218
f 117 116 219
f 117 219 172
f 219 215 174
f 219 174 172
f 220 221 215
f 220 215 219
f 113 214 222
f 113 222 150
f 223 224 225
f 223 225 226
f 227 225 224
f 227 224 228
f 229 230 125
f 229 125 124
f 231 229 124
f 231 124 213
f 221 222 214
f 221 214 215
f 153 232 233
f 153 233 157
f 228 21 234
f 228 234 227
f 230 235 122
f 230 122 125
f 232 153 152
f 232 152 236
f 491 1 4
f 491 4 29
f 115 237 236
f 115 236 152
f 236 237 238
f 236 238 239
f 240 238 237
f 240 237 241
f 207 30 242
f 207 242 243
f 30 13 244
f 30 244 242
f 507 708 14
f 507 14 31
f 246 240 241
f 246 241 247
f 33 12 15
f 33 15 29
f 247 241 237
f 247 237 115
f 248 247 115
f 248 115 114
f 249 246 247
f 249 247 248
f 250 151 150
f 250 150 222
f 32 251 252
f 32 252 33
f 251 253 137
f 251 137 252
f 33 252 254
f 33 254 12
f 252 137 140
f 252 140 254
f 114 151 250
f 114 250 248
f 255 233 232
f 255 232 256
f 243 242 138
f 243 138 257
f 242 244 139
f 242 139 138
f 211 148 11
f 211 11 26
f 239 256 232
f 239 232 236
f 258 259 148
f 258 148 211
f 259 258 60
f 259 60 144
f 211 202 260
f 211 260 258
f 60 258 260
f 60 260 37
f 261 256 239
f 261 239 262
f 263 264 221
f 263 221 220
f 264 250 222
f 264 222 221
f 264 249 248
f 264 248 250
f 265 266 249
f 265 249 264
f 708 490 15
f 708 15 14
f 267 246 249
f 267 249 266
f 244 13 12
f 244 12 254
f 268 255 256
f 268 256 261
f 254 140 139
f 254 139 244
f 269 268 261
f 269 261 270
f 271 270 261
f 271 261 262
f 270 272 273
f 270 273 269
f 271 274 272
f 271 272 270
f 34 223 275
f 34 275 38
f 223 226 276
f 223 276 275
f 277 52 38
f 277 38 275
f 275 276 278
f 275 278 277
f 274 279 280
f 274 280 272
f 32 207 243
f 32 243 251
f 272 280 281
f 272 281 273
f 251 243 257
f 251 257 253
f 282 283 281
f 282 281 280
f 280 279 284
f 280 284 282
f 282 285 749
f 282 749 283
f 56 217 287
f 56 287 62
f 223 287 217
f 223 217 224
f 224 217 216
f 224 216 228
f 186 185 288
f 186 288 289
f 749 285 289
f 749 289 288
f 62 287 290
f 62 290 199
f 290 260 202
f 290 202 199
f 194 186 289
f 194 289 291
f 285 282 284
f 285 284 292
f 223 34 290
f 223 290 287
f 34 37 260
f 34 260 290
f 285 292 291
f 285 291 289
f 231 213 212
f 231 212 293
f 291 294 295
f 291 295 194
f 293 212 210
f 293 210 296
f 126 129 297
f 126 297 189
f 189 297 298
f 189 298 188
f 126 299 300
f 126 300 127
f 126 193 301
f 126 301 299
f 17 16 302
f 17 302 303
f 304 305 203
f 304 203 197
f 21 17 303
f 21 303 234
f 235 304 197
f 235 197 122
f 306 194 295
f 306 295 307
f 194 306 301
f 194 301 193
f 292 308 294
f 292 294 291
f 309 295 294
f 309 294 308
f 310 311 277
f 310 277 278
f 296 210 208
f 296 208 312
f 311 310 313
f 311 313 314
f 315 312 208
f 315 208 209
f 316 307 295
f 316 295 309
f 103 298 297
f 103 297 104
f 311 72 52
f 311 52 277
f 72 311 314
f 72 314 84
f 317 104 297
f 317 297 129
f 318 317 129
f 318 129 128
f 314 313 319
f 314 319 320
f 321 315 209
f 321 209 206
f 322 318 128
f 322 128 127
f 320 100 84
f 320 84 314
f 323 324 318
f 323 318 322
f 127 300 325
f 127 325 322
f 323 322 325
f 323 325 326
f 325 300 299
f 325 299 327
f 328 302 16
f 328 16 329
f 319 328 329
f 319 329 320
f 321 206 205
f 321 205 330
f 330 205 203
f 330 203 305
f 327 299 301
f 327 301 331
f 332 306 307
f 332 307 316
f 320 329 196
f 320 196 100
f 329 16 19
f 329 19 196
f 331 301 306
f 331 306 332
f 333 334 327
f 333 327 331
f 228 216 218
f 228 218 335
f 228 335 20
f 228 20 21
f 326 325 327
f 326 327 334
f 333 336 337
f 333 337 334
f 143 335 218
f 143 218 338
f 218 6 5
f 218 5 338
f 334 337 339
f 334 339 326
f 335 143 24
f 335 24 20
f 340 101 104
f 340 104 317
f 338 5 148
f 338 148 259
f 324 340 317
f 324 317 318
f 144 143 338
f 144 338 259
f 341 102 101
f 341 101 342
f 59 145 144
f 59 144 60
f 342 101 340
f 342 340 343
f 170 59 61
f 170 61 344
f 345 343 340
f 345 340 324
f 344 61 71
f 344 71 69
f 323 326 339
f 323 339 346
f 68 70 132
f 68 132 347
f 346 345 324
f 346 324 323
f 171 170 344
f 171 344 263
f 118 166 348
f 118 348 163
f 163 348 349
f 163 349 350
f 344 69 67
f 344 67 351
f 68 347 352
f 68 352 64
f 350 349 341
f 350 341 342
f 353 350 342
f 353 342 343
f 350 353 164
f 350 164 163
f 344 351 354
f 344 354 263
f 351 67 66
f 351 66 91
f 91 154 354
f 91 354 351
f 181 183 119
f 181 119 164
f 64 352 149
f 64 149 65
f 345 182 353
f 345 353 343
f 263 220 178
f 263 178 171
f 164 353 182
f 164 182 181
f 355 262 239
f 355 239 238
f 178 220 219
f 178 219 116
f 178 116 119
f 178 119 183
f 356 271 262
f 356 262 355
f 357 240 246
f 357 246 267
f 264 263 354
f 264 354 265
f 154 358 265
f 154 265 354
f 357 355 238
f 357 238 240
f 359 360 357
f 359 357 267
f 361 132 131
f 361 131 142
f 132 361 352
f 132 352 347
f 355 357 362
f 355 362 356
f 147 149 352
f 147 352 361
f 363 362 357
f 363 357 360
f 147 361 142
f 147 142 146
f 364 365 362
f 364 362 363
f 146 142 136
f 146 136 141
f 366 363 360
f 366 360 367
f 97 96 99
f 97 99 368
f 274 271 356
f 274 356 369
f 365 369 356
f 365 356 362
f 154 155 370
f 154 370 371
f 154 371 372
f 154 372 358
f 373 308 292
f 373 292 284
f 155 156 374
f 155 374 370
f 279 274 369
f 279 369 375
f 284 279 375
f 284 375 373
f 369 365 376
f 369 376 375
f 308 373 377
f 308 377 309
f 374 156 159
f 374 159 378
f 88 97 379
f 88 379 159
f 380 381 378
f 380 378 159
f 159 379 382
f 159 382 380
f 375 376 377
f 375 377 373
f 365 364 383
f 365 383 376
f 384 385 370
f 384 370 374
f 371 370 385
f 371 385 386
f 377 387 316
f 377 316 309
f 387 377 376
f 387 376 383
f 374 378 388
f 374 388 389
f 374 389 390
f 374 390 384
f 363 366 391
f 363 391 364
f 392 383 364
f 392 364 391
f 339 337 393
f 339 393 394
f 381 395 388
f 381 388 378
f 380 396 397
f 380 397 381
f 395 381 397
f 395 397 398
f 176 182 345
f 176 345 346
f 176 346 339
f 176 339 394
f 379 97 368
f 379 368 399
f 399 400 382
f 399 382 379
f 337 336 401
f 337 401 393
f 402 333 331
f 402 331 332
f 403 396 380
f 403 380 382
f 382 400 404
f 382 404 403
f 402 332 316
f 402 316 387
f 386 405 372
f 386 372 371
f 392 402 387
f 392 387 383
f 333 402 406
f 333 406 336
f 358 372 407
f 358 407 408
f 266 265 358
f 266 358 408
f 402 392 409
f 402 409 406
f 372 405 410
f 372 410 407
f 336 406 411
f 336 411 401
f 412 413 401
f 412 401 411
f 408 407 414
f 408 414 359
f 414 407 410
f 414 410 415
f 412 411 406
f 412 406 409
f 267 266 408
f 267 408 359
f 413 412 416
f 413 416 417
f 418 394 393
f 418 393 419
f 359 414 420
f 359 420 421
f 414 415 422
f 414 422 420
f 393 401 413
f 393 413 419
f 423 419 413
f 423 413 417
f 424 176 394
f 424 394 418
f 419 423 425
f 419 425 418
f 426 421 420
f 426 420 427
f 428 427 420
f 428 420 429
f 430 426 427
f 430 427 431
f 427 428 432
f 427 432 431
f 418 425 433
f 418 433 424
f 405 386 433
f 405 433 425
f 434 367 421
f 434 421 426
f 435 434 426
f 435 426 430
f 423 410 405
f 423 405 425
f 410 423 417
f 410 417 415
f 430 431 436
f 430 436 437
f 431 432 438
f 431 438 436
f 415 417 416
f 415 416 422
f 439 108 391
f 439 391 366
f 437 436 397
f 437 397 396
f 436 438 398
f 436 398 397
f 392 391 108
f 392 108 107
f 392 107 440
f 392 440 409
f 441 430 437
f 441 437 442
f 437 396 403
f 437 403 442
f 443 133 135
f 443 135 444
f 442 403 404
f 442 404 445
f 133 446 110
f 133 110 109
f 442 445 447
f 442 447 441
f 133 443 448
f 133 448 446
f 412 449 422
f 412 422 416
f 430 441 450
f 430 450 435
f 450 441 447
f 450 447 451
f 449 412 409
f 449 409 440
f 452 106 110
f 452 110 446
f 453 439 434
f 453 434 435
f 367 434 439
f 367 439 366
f 452 440 107
f 452 107 106
f 435 450 454
f 435 454 453
f 440 452 429
f 440 429 449
f 455 454 450
f 455 450 451
f 452 446 448
f 452 448 456
f 428 429 452
f 428 452 456
f 359 421 367
f 359 367 360
f 429 420 422
f 429 422 449
f 22 169 457
f 22 457 23
f 138 137 253
f 138 253 257
f 176 424 457
f 176 457 169
f 457 424 433
f 457 433 458
f 99 98 195
f 99 195 459
f 368 99 459
f 368 459 460
f 23 457 458
f 23 458 120
f 368 460 461
f 368 461 399
f 390 121 120
f 390 120 384
f 399 461 462
f 399 462 400
f 385 458 433
f 385 433 386
f 384 120 458
f 384 458 385
f 445 404 463
f 445 463 49
f 447 445 49
f 447 49 48
f 459 195 121
f 459 121 390
f 451 447 48
f 451 48 47
f 390 389 460
f 390 460 459
f 455 451 47
f 455 47 46
f 456 448 443
f 456 443 46
f 428 456 46
f 428 46 47
f 47 48 432
f 47 432 428
f 453 454 135
f 453 135 134
f 453 105 108
f 453 108 439
f 105 453 134
f 105 134 109
f 48 49 438
f 48 438 432
f 135 454 455
f 135 455 444
f 49 463 398
f 49 398 438
f 46 443 444
f 46 444 455
f 462 395 398
f 462 398 463
f 400 462 463
f 400 463 404
f 460 389 388
f 460 388 461
f 461 388 395
f 461 395 462
f 229 231 226
f 229 226 225
f 230 229 225
f 230 225 227
f 235 230 227
f 235 227 234
f 231 293 276
f 231 276 226
f 293 296 278
f 293 278 276
f 305 304 303
f 305 303 302
f 304 235 234
f 304 234 303
f 296 312 310
f 296 310 278
f 312 315 313
f 312 313 310
f 315 321 319
f 315 319 313
f 330 305 302
f 330 302 328
f 1 467 466
f 1 466 465
f 468 471 470
f 468 470 469
f 472 471 474
f 472 474 473
f 475 478 477
f 475 477 476
f 479 482 481
f 479 481 480
f 483 484 480
f 483 480 481
f 485 481 482
f 485 482 486
f 487 483 481
f 487 481 485
f 473 474 489
f 473 489 488
f 490 478 492
f 490 492 491
f 476 477 494
f 476 494 493
f 495 467 492
f 495 492 496
f 497 500 499
f 497 499 498
f 497 498 502
f 497 502 501
f 503 502 498
f 503 498 504
f 504 498 499
f 504 499 505
f 506 508 494
f 506 494 507
f 509 512 511
f 509 511 510
f 503 514 513
f 503 513 502
f 515 501 502
f 515 502 513
f 516 508 489
f 516 489 517
f 518 521 520
f 518 520 519
f 522 499 500
f 522 500 523
f 522 524 505
f 522 505 499
f 525 519 520
f 525 520 526
f 527 530 529
f 527 529 528
f 531 532 530
f 531 530 527
f 533 534 532
f 533 532 531
f 535 515 513
f 535 513 536
f 514 537 536
f 514 536 513
f 535 536 539
f 535 539 538
f 537 540 539
f 537 539 536
f 541 542 534
f 541 534 533
f 543 544 542
f 543 542 541
f 545 546 544
f 545 544 543
f 535 538 548
f 535 548 547
f 538 539 550
f 538 550 549
f 548 538 549
f 548 549 551
f 552 553 546
f 552 546 545
f 554 550 539
f 554 539 540
f 528 529 556
f 528 556 555
f 557 558 553
f 557 553 552
f 555 556 558
f 555 558 557
f 548 551 560
f 548 560 559
f 561 548 559
f 561 559 562
f 548 561 563
f 548 563 547
f 564 567 103
f 564 103 102
f 568 571 570
f 568 570 569
f 558 556 540
f 558 540 537
f 553 558 537
f 553 537 514
f 572 568 569
f 572 569 573
f 556 529 554
f 556 554 540
f 574 470 471
f 574 471 472
f 575 578 577
f 575 577 576
f 546 553 514
f 546 514 503
f 544 546 503
f 544 503 504
f 579 582 581
f 579 581 580
f 544 504 505
f 544 505 542
f 482 584 583
f 482 583 486
f 542 505 524
f 542 524 534
f 585 588 587
f 585 587 586
f 589 592 591
f 589 591 590
f 541 594 593
f 541 593 543
f 541 533 595
f 541 595 594
f 596 598 597
f 596 597 572
f 543 593 599
f 543 599 545
f 600 603 602
f 600 602 601
f 552 545 599
f 552 599 604
f 594 605 599
f 594 599 593
f 487 608 607
f 487 607 606
f 557 552 604
f 557 604 609
f 555 557 609
f 555 609 610
f 611 474 471
f 611 471 468
f 528 555 610
f 528 610 612
f 576 577 614
f 576 614 613
f 578 575 616
f 578 616 615
f 617 618 550
f 617 550 554
f 618 619 549
f 618 549 550
f 575 158 157
f 575 157 616
f 622 551 549
f 622 549 619
f 160 576 625
f 160 625 161
f 576 160 158
f 576 158 575
f 582 627 626
f 582 626 581
f 580 581 166
f 580 166 165
f 485 630 608
f 485 608 487
f 630 485 632
f 630 632 631
f 631 634 633
f 631 633 630
f 630 633 522
f 630 522 608
f 165 173 635
f 165 635 580
f 173 175 637
f 173 637 635
f 639 640 631
f 639 631 632
f 634 631 640
f 634 640 641
f 175 180 642
f 175 642 637
f 161 625 642
f 161 642 180
f 639 645 644
f 639 644 640
f 641 640 644
f 641 644 646
f 184 650 649
f 184 649 185
f 188 652 650
f 188 650 184
f 469 470 521
f 469 521 518
f 526 520 466
f 526 466 653
f 654 655 520
f 654 520 521
f 655 465 466
f 655 466 520
f 652 589 656
f 652 656 650
f 653 466 467
f 653 467 495
f 649 650 656
f 649 656 657
f 482 659 658
f 482 658 584
f 659 563 561
f 659 561 658
f 660 585 586
f 660 586 661
f 526 663 662
f 526 662 525
f 526 653 664
f 526 664 663
f 664 516 517
f 664 517 663
f 663 517 665
f 663 665 662
f 660 661 667
f 660 667 666
f 667 669 668
f 667 668 666
f 516 664 670
f 516 670 493
f 653 495 670
f 653 670 664
f 671 672 669
f 671 669 667
f 673 671 667
f 673 667 661
f 506 488 489
f 506 489 508
f 517 489 674
f 517 674 665
f 675 586 587
f 675 587 676
f 516 493 494
f 516 494 508
f 673 661 586
f 673 586 675
f 574 654 521
f 574 521 470
f 576 677 642
f 576 642 625
f 637 642 677
f 637 677 678
f 518 519 680
f 518 680 679
f 679 681 469
f 679 469 518
f 580 635 682
f 580 682 579
f 682 635 637
f 682 637 678
f 683 682 678
f 683 678 684
f 576 613 685
f 576 685 677
f 686 689 688
f 686 688 687
f 690 691 687
f 690 687 688
f 692 587 588
f 692 588 693
f 694 676 587
f 694 587 692
f 684 678 677
f 684 677 685
f 616 157 233
f 616 233 695
f 691 690 697
f 691 697 484
f 693 588 585
f 693 585 698
f 695 699 615
f 695 615 616
f 491 492 467
f 491 467 1
f 578 615 699
f 578 699 700
f 699 702 701
f 699 701 700
f 703 704 700
f 703 700 701
f 670 706 705
f 670 705 493
f 493 705 707
f 493 707 476
f 507 494 477
f 507 477 708
f 709 710 704
f 709 704 703
f 496 492 478
f 496 478 475
f 710 578 700
f 710 700 704
f 711 577 578
f 711 578 710
f 712 711 710
f 712 710 709
f 713 685 613
f 713 613 614
f 495 496 715
f 495 715 714
f 714 715 600
f 714 600 716
f 496 475 717
f 496 717 715
f 715 717 603
f 715 603 600
f 577 711 713
f 577 713 614
f 255 719 695
f 255 695 233
f 706 720 601
f 706 601 705
f 705 601 602
f 705 602 707
f 674 489 474
f 674 474 611
f 702 699 695
f 702 695 719
f 721 674 611
f 721 611 722
f 722 607 523
f 722 523 721
f 674 721 723
f 674 723 665
f 523 500 723
f 523 723 721
f 724 725 702
f 724 702 719
f 726 683 684
f 726 684 727
f 727 684 685
f 727 685 713
f 727 713 711
f 727 711 712
f 728 727 712
f 728 712 729
f 708 477 478
f 708 478 490
f 730 729 712
f 730 712 709
f 707 717 475
f 707 475 476
f 268 724 719
f 268 719 255
f 717 707 602
f 717 602 603
f 269 733 724
f 269 724 268
f 734 725 724
f 734 724 733
f 733 269 273
f 733 273 735
f 734 733 735
f 734 735 737
f 497 501 738
f 497 738 686
f 686 738 739
f 686 739 689
f 740 738 501
f 740 501 515
f 738 740 741
f 738 741 739
f 737 735 743
f 737 743 742
f 495 714 706
f 495 706 670
f 735 273 281
f 735 281 743
f 714 716 720
f 714 720 706
f 745 743 281
f 745 281 283
f 743 745 747
f 743 747 742
f 745 283 749
f 745 749 748
f 519 525 750
f 519 750 680
f 686 687 680
f 686 680 750
f 687 691 679
f 687 679 680
f 649 752 288
f 649 288 185
f 749 288 752
f 749 752 748
f 525 662 753
f 525 753 750
f 753 662 665
f 753 665 723
f 657 754 752
f 657 752 649
f 748 755 747
f 748 747 745
f 686 750 753
f 686 753 497
f 497 753 723
f 497 723 500
f 748 752 754
f 748 754 755
f 694 756 675
f 694 675 676
f 754 657 758
f 754 758 757
f 756 759 673
f 756 673 675
f 589 652 760
f 589 760 592
f 652 188 298
f 652 298 760
f 589 590 763
f 589 763 762
f 589 762 764
f 589 764 656
f 480 766 765
f 480 765 479
f 767 660 666
f 767 666 768
f 484 697 766
f 484 766 480
f 698 585 660
f 698 660 767
f 769 770 758
f 769 758 657
f 657 656 764
f 657 764 769
f 755 754 757
f 755 757 771
f 772 771 757
f 772 757 758
f 773 741 740
f 773 740 774
f 759 775 671
f 759 671 673
f 774 777 776
f 774 776 773
f 778 672 671
f 778 671 775
f 779 772 758
f 779 758 770
f 103 567 760
f 103 760 298
f 774 740 515
f 774 515 535
f 535 547 777
f 535 777 774
f 780 592 760
f 780 760 567
f 781 591 592
f 781 592 780
f 777 782 512
f 777 512 776
f 509 669 672
f 509 672 778
f 783 590 591
f 783 591 781
f 782 777 547
f 782 547 563
f 784 783 781
f 784 781 785
f 590 783 786
f 590 786 763
f 784 787 786
f 784 786 783
f 786 788 762
f 786 762 763
f 511 789 479
f 511 479 765
f 512 782 789
f 512 789 511
f 509 510 668
f 509 668 669
f 510 768 666
f 510 666 668
f 788 790 764
f 788 764 762
f 791 779 770
f 791 770 769
f 782 563 659
f 782 659 789
f 789 659 482
f 789 482 479
f 790 791 769
f 790 769 764
f 792 790 788
f 792 788 793
f 691 794 681
f 691 681 679
f 691 484 483
f 691 483 794
f 787 793 788
f 787 788 786
f 792 793 796
f 792 796 795
f 606 797 681
f 606 681 794
f 681 797 468
f 681 468 469
f 793 787 798
f 793 798 796
f 794 483 487
f 794 487 606
f 799 780 567
f 799 567 564
f 797 722 611
f 797 611 468
f 785 781 780
f 785 780 799
f 607 722 797
f 607 797 606
f 341 801 564
f 341 564 102
f 522 523 607
f 522 607 608
f 801 802 799
f 801 799 564
f 633 803 524
f 633 524 522
f 804 785 799
f 804 799 802
f 803 532 534
f 803 534 524
f 784 805 798
f 784 798 787
f 531 806 595
f 531 595 533
f 805 784 785
f 805 785 804
f 634 726 803
f 634 803 633
f 581 626 348
f 581 348 166
f 626 809 349
f 626 349 348
f 803 810 530
f 803 530 532
f 531 527 811
f 531 811 806
f 809 801 341
f 809 341 349
f 812 802 801
f 812 801 809
f 809 626 627
f 809 627 812
f 803 726 813
f 803 813 810
f 810 554 529
f 810 529 530
f 554 810 813
f 554 813 617
f 644 627 582
f 644 582 646
f 527 528 612
f 527 612 811
f 804 802 812
f 804 812 645
f 726 634 641
f 726 641 683
f 627 644 645
f 627 645 812
f 814 701 702
f 814 702 725
f 641 579 682
f 641 682 683
f 641 646 582
f 641 582 579
f 815 814 725
f 815 725 734
f 816 730 709
f 816 709 703
f 727 728 813
f 727 813 726
f 617 813 728
f 617 728 817
f 816 703 701
f 816 701 814
f 818 730 816
f 818 816 819
f 820 605 594
f 820 594 595
f 595 806 811
f 595 811 820
f 814 815 821
f 814 821 816
f 610 820 811
f 610 811 612
f 822 819 816
f 822 816 821
f 610 609 605
f 610 605 820
f 823 822 821
f 823 821 824
f 609 604 599
f 609 599 605
f 825 826 819
f 825 819 822
f 560 827 562
f 560 562 559
f 737 828 815
f 737 815 734
f 824 821 815
f 824 815 828
f 617 830 829
f 617 829 618
f 617 817 831
f 617 831 830
f 832 747 755
f 832 755 771
f 618 829 833
f 618 833 619
f 742 834 828
f 742 828 737
f 747 832 834
f 747 834 742
f 828 834 835
f 828 835 824
f 771 772 836
f 771 836 832
f 833 837 622
f 833 622 619
f 551 622 838
f 551 838 560
f 839 622 837
f 839 837 840
f 622 839 841
f 622 841 838
f 834 832 836
f 834 836 835
f 824 835 842
f 824 842 823
f 843 833 829
f 843 829 844
f 830 845 844
f 830 844 829
f 836 772 779
f 836 779 846
f 846 842 835
f 846 835 836
f 833 848 847
f 833 847 837
f 833 843 849
f 833 849 848
f 822 823 850
f 822 850 825
f 851 850 823
f 851 823 842
f 798 853 852
f 798 852 796
f 840 837 847
f 840 847 854
f 839 840 856
f 839 856 855
f 854 857 856
f 854 856 840
f 639 805 804
f 639 804 645
f 639 853 798
f 639 798 805
f 838 858 827
f 838 827 560
f 858 838 841
f 858 841 859
f 796 852 860
f 796 860 795
f 861 791 790
f 861 790 792
f 862 841 839
f 862 839 855
f 841 862 863
f 841 863 859
f 861 846 779
f 861 779 791
f 845 830 831
f 845 831 864
f 851 842 846
f 851 846 861
f 792 795 865
f 792 865 861
f 817 867 866
f 817 866 831
f 729 867 817
f 729 817 728
f 861 865 868
f 861 868 851
f 831 866 869
f 831 869 864
f 795 860 870
f 795 870 865
f 871 870 860
f 871 860 872
f 867 818 873
f 867 873 866
f 873 874 869
f 873 869 866
f 871 868 865
f 871 865 870
f 730 818 867
f 730 867 729
f 872 876 875
f 872 875 871
f 877 878 852
f 877 852 853
f 818 880 879
f 818 879 873
f 873 879 881
f 873 881 874
f 852 878 872
f 852 872 860
f 882 876 872
f 882 872 878
f 883 877 853
f 883 853 639
f 878 877 884
f 878 884 882
f 885 886 879
f 885 879 880
f 808 807 879
f 808 879 886
f 800 761 886
f 800 886 885
f 886 761 751
f 886 751 808
f 877 883 746
f 877 746 884
f 864 884 746
f 864 746 845
f 744 885 880
f 744 880 826
f 736 800 885
f 736 885 744
f 882 884 864
f 882 864 869
f 869 874 876
f 869 876 882
f 800 731 732
f 800 732 761
f 761 732 718
f 761 718 751
f 874 881 875
f 874 875 876
f 696 825 850
f 696 850 571
f 731 855 856
f 731 856 732
f 732 856 857
f 732 857 718
f 851 570 571
f 851 571 850
f 851 868 651
f 851 651 570
f 648 647 731
f 648 731 800
f 731 647 862
f 731 862 855
f 643 638 598
f 643 598 596
f 647 636 863
f 647 863 862
f 596 572 573
f 596 573 629
f 647 648 628
f 647 628 636
f 596 629 624
f 596 624 643
f 871 875 881
f 871 881 623
f 800 736 621
f 800 621 648
f 621 620 628
f 621 628 648
f 623 651 868
f 623 868 871
f 566 629 573
f 566 573 569
f 565 736 744
f 565 744 696
f 826 825 696
f 826 696 744
f 566 569 570
f 566 570 651
f 736 565 464
f 736 464 621
f 651 623 807
f 651 807 566
f 286 620 621
f 286 621 464
f 566 245 624
f 566 624 629
f 808 245 566
f 808 566 807
f 818 819 826
f 818 826 880
f 807 623 881
f 807 881 879
f 485 486 192
f 485 192 632
f 601 720 716
f 601 716 600
f 639 632 192
f 639 192 883
f 192 191 746
f 192 746 883
f 562 111 658
f 562 658 561
f 827 44 111
f 827 111 562
f 486 583 191
f 486 191 192
f 827 858 43
f 827 43 44
f 849 843 583
f 849 583 584
f 858 859 28
f 858 28 43
f 844 845 746
f 844 746 191
f 843 844 191
f 843 191 583
f 636 25 27
f 636 27 863
f 628 10 25
f 628 25 636
f 111 849 584
f 111 584 658
f 620 9 10
f 620 10 628
f 849 111 44
f 849 44 848
f 286 2 9
f 286 9 620
f 245 2 643
f 245 643 624
f 808 9 2
f 808 2 245
f 9 808 751
f 9 751 10
f 565 597 598
f 565 598 464
f 565 696 571
f 565 571 568
f 568 572 597
f 568 597 565
f 10 751 718
f 10 718 25
f 598 638 286
f 598 286 464
f 25 718 857
f 25 857 27
f 2 286 638
f 2 638 643
f 28 27 857
f 28 857 854
f 859 863 27
f 859 27 28
f 44 43 847
f 44 847 848
f 43 28 854
f 43 854 847
f 692 688 689
f 692 689 694
f 693 690 688
f 693 688 692
f 698 697 690
f 698 690 693
f 694 689 739
f 694 739 756
f 756 739 741
f 756 741 759
f 768 765 766
f 768 766 767
f 767 766 697
f 767 697 698
f 759 741 773
f 759 773 775
f 775 773 776
f 775 776 778
f 778 776 512
f 778 512 509
f 510 511 765
f 510 765 768
