# C3 rest
v 0.004370 0.212318 -0.022566
v -0.018346 0.210611 0.009888
v 0.005681 0.215362 -0.020031
v 0.005285 0.212112 -0.022596
v 0.010051 0.213376 -0.005521
v 0.011301 0.220802 -0.004837
v 0.008511 0.218906 -0.005264
v 0.007936 0.212988 -0.005733
v -0.018269 0.208763 0.008924
v -0.018725 0.207221 0.008253
v 0.007364 0.210144 -0.010720
v 0.004367 0.205724 -0.025391
v 0.004987 0.204635 -0.023995
v 0.004057 0.204934 -0.023733
v 0.003864 0.205945 -0.025020
v 0.026421 0.223344 0.005604
v 0.021854 0.224145 0.003640
v 0.021975 0.222333 0.003129
v 0.026246 0.221016 0.005310
v 0.020107 0.221047 -0.000857
v 0.020168 0.223441 -0.000297
v 0.022024 0.219668 0.002782
v 0.025364 0.218304 0.005543
v 0.020450 0.216270 -0.001963
v -0.019294 0.206059 0.007539
v 0.006052 0.207990 -0.015363
v -0.019936 0.205112 0.006520
v -0.020882 0.204759 0.005065
v 0.004428 0.208617 -0.024383
v 0.007074 0.206532 -0.022184
v 0.004896 0.205829 -0.022241
v 0.006768 0.211675 -0.022713
v 0.005225 0.208466 -0.024815
v 0.021058 0.211065 -0.007019
v 0.022514 0.206310 -0.006418
v 0.020337 0.206212 -0.005985
v 0.018756 0.208228 -0.006982
v 0.026230 0.211601 -0.005468
v 0.026420 0.206662 -0.005521
v 0.026084 0.203197 -0.005796
v 0.022443 0.202373 -0.006728
v 0.020664 0.203915 -0.005865
v -0.021482 0.205249 0.004072
v -0.021662 0.206128 0.003584
v 0.005044 0.206549 -0.020266
v 0.030153 0.211058 0.010692
v 0.029685 0.209200 0.009726
v 0.029779 0.207659 0.009068
v 0.030052 0.206502 0.008371
v 0.028910 0.207076 -0.003836
v 0.028556 0.203357 -0.004437
v 0.029142 0.212162 -0.004063
v 0.007108 0.207491 -0.019375
v 0.008101 0.208569 -0.015831
v 0.010700 0.220508 -0.007548
v 0.010275 0.218990 -0.008964
v 0.006356 0.216840 -0.015026
v 0.007825 0.219274 -0.008338
v 0.019470 0.205219 -0.004343
v 0.017944 0.208767 -0.005701
v 0.019245 0.203350 -0.004418
v 0.010127 0.215409 -0.010601
v 0.007331 0.214209 -0.015055
v 0.023284 0.201262 -0.000406
v 0.026723 0.201686 0.000332
v 0.026688 0.201735 0.000884
v 0.022593 0.201294 0.000246
v 0.020724 0.201423 -0.001873
v 0.019811 0.202188 -0.001594
v 0.020047 0.201168 -0.004050
v 0.019327 0.201973 -0.004363
v 0.030713 0.213386 -0.001658
v 0.030316 0.208103 -0.001967
v 0.030206 0.204664 -0.001922
v 0.030558 0.210712 0.001001
v 0.030050 0.208187 0.000315
v 0.029939 0.204000 0.000559
v 0.021219 0.200618 -0.005271
v 0.020780 0.200945 -0.005831
v 0.023187 0.200417 -0.005690
v 0.022732 0.201011 -0.006454
v 0.025915 0.200366 -0.005351
v 0.026059 0.201096 -0.005876
v 0.031395 0.216557 0.000893
v 0.031792 0.210956 0.002263
v 0.029177 0.205776 0.002879
v 0.028183 0.204687 0.002363
v 0.030646 0.205443 0.003218
v 0.027880 0.200535 -0.004260
v 0.028617 0.200890 -0.004850
v 0.026590 0.202125 0.001731
v 0.029290 0.201656 -0.000033
v 0.029843 0.202385 0.000386
v 0.029436 0.200960 -0.001801
v 0.030274 0.201691 -0.001659
v 0.034027 0.205608 0.003175
v 0.033512 0.203221 0.003620
v 0.031784 0.212665 0.003827
v 0.034180 0.207080 0.003973
v 0.030915 0.218198 0.003134
v 0.011042 0.220462 0.008259
v 0.007377 0.220292 0.008167
v 0.007421 0.220292 0.009466
v 0.010588 0.220440 0.009537
v 0.026401 0.209129 0.013531
v 0.025977 0.210691 0.013454
v 0.024355 0.210567 0.014094
v 0.024418 0.208477 0.014008
v 0.027796 0.210073 0.014303
v 0.027197 0.211275 0.013788
v -0.021219 0.207712 0.003370
v 0.008497 0.196581 0.010578
v 0.009267 0.197874 0.008955
v 0.011861 0.197532 0.009095
v 0.011537 0.196319 0.010513
v 0.013049 0.210127 0.005544
v 0.009516 0.210815 0.005216
v 0.009925 0.214162 0.006014
v 0.013214 0.212837 0.006413
v 0.026976 0.210550 0.005853
v 0.028252 0.212514 0.005394
v 0.022329 0.225373 0.000219
v 0.024117 0.224134 -0.001530
v 0.023321 0.224047 -0.002653
v 0.022517 0.224871 -0.001391
v 0.013220 0.217923 0.012330
v 0.015316 0.220599 0.011793
v 0.014496 0.220692 0.011042
v 0.012773 0.219909 0.010636
v 0.023705 0.200467 -0.005002
v 0.022685 0.200759 -0.004419
v 0.021981 0.201074 -0.003288
v 0.029701 0.212078 0.013883
v 0.028762 0.209113 0.013877
v 0.030439 0.210010 0.013399
v 0.025659 0.200618 -0.004554
v 0.006274 0.206046 -0.026770
v 0.007643 0.205240 -0.025053
v 0.006409 0.204149 -0.025201
v 0.005357 0.204677 -0.026474
v 0.027267 0.200752 -0.003860
v 0.025285 0.201186 -0.003456
v 0.017483 0.215072 -0.003833
v 0.017942 0.212184 -0.005672
v 0.019931 0.210338 -0.003138
v 0.027869 0.201351 -0.002384
v 0.027773 0.201795 -0.000881
v 0.009838 0.209783 -0.010166
v 0.026572 0.201857 -0.000265
v 0.011250 0.198296 0.007625
v 0.012227 0.197949 0.008151
v 0.009417 0.195277 0.011541
v 0.007438 0.195096 0.011814
v 0.023900 0.203692 0.004476
v 0.026273 0.203386 0.004087
v 0.027820 0.203306 0.004261
v 0.004428 0.195191 0.011887
v 0.004526 0.196571 0.010535
v 0.029388 0.202744 0.004471
v 0.004604 0.197962 0.008822
v 0.004562 0.198351 0.007252
v 0.007200 0.198398 0.007303
v 0.010381 0.216459 0.006603
v 0.013635 0.215455 0.006946
v 0.006071 0.211124 0.005154
v 0.006560 0.214649 0.005880
v 0.020283 0.214035 0.000807
v 0.019870 0.214045 0.003931
v 0.022129 0.217289 0.005392
v 0.019747 0.207943 -0.000372
v 0.018917 0.209804 0.002846
v 0.008791 0.206148 0.004570
v 0.005405 0.206224 0.004540
v 0.007912 0.200735 0.003833
v 0.004650 0.200758 0.003799
v 0.021488 0.216511 0.008556
v 0.017927 0.214044 0.006057
v 0.016795 0.210537 0.005177
v 0.007470 0.198992 0.005166
v 0.004517 0.199027 0.005173
v 0.016643 0.214508 0.006900
v 0.017835 0.217434 0.007819
v 0.015690 0.212301 0.006202
v 0.006845 0.214997 0.013623
v 0.006788 0.214534 0.016277
v 0.009386 0.215054 0.016341
v 0.009906 0.215344 0.013817
v 0.007122 0.217496 0.011466
v 0.010199 0.217544 0.011649
v 0.006771 0.213441 -0.019804
v -0.013992 0.209982 0.005844
v -0.011406 0.215102 0.005790
v 0.013171 0.216869 0.014325
v 0.012223 0.215847 0.016275
v 0.029914 0.213131 0.004853
v 0.029219 0.219571 0.004807
v 0.022850 0.225770 0.002496
v 0.024883 0.224030 -0.000516
v 0.010810 0.211700 -0.012164
v 0.008153 0.211135 -0.015317
v 0.007927 0.210144 -0.019504
v 0.011062 0.208832 -0.013278
v 0.026235 0.224839 0.003986
v 0.026633 0.223832 0.000541
v 0.029280 0.223730 0.004032
v 0.029679 0.223618 0.001719
v 0.008038 0.209186 -0.022193
v 0.028357 0.222766 -0.001768
v 0.030222 0.223059 -0.000688
v 0.026981 0.222897 -0.002752
v 0.009795 0.208445 -0.012695
v 0.025633 0.223128 -0.003278
v 0.024439 0.223450 -0.003492
v 0.010104 0.199491 0.005552
v 0.010939 0.200932 0.004168
v 0.015501 0.221472 -0.005948
v 0.016020 0.220190 -0.006983
v 0.014664 0.221075 -0.004032
v 0.012182 0.206059 0.004680
v 0.015486 0.206560 0.004663
v 0.013532 0.200651 0.004769
v 0.012426 0.199312 0.005967
v 0.021166 0.215820 -0.006103
v 0.019589 0.220359 -0.005377
v 0.021806 0.222447 -0.003887
v 0.023592 0.220821 -0.004863
v 0.020725 0.224032 -0.002220
v 0.018742 0.222345 -0.004019
v 0.022443 0.223652 -0.003624
v 0.021490 0.224880 -0.001946
v 0.023997 0.222477 -0.004589
v 0.006909 0.193625 0.012845
v 0.004270 0.193494 0.012752
v 0.020656 0.224747 0.000119
v 0.021208 0.225492 0.000267
v 0.009382 0.193555 0.012605
v 0.011613 0.194920 0.011838
v 0.014201 0.193056 0.012711
v 0.010716 0.191422 0.013909
v 0.016219 0.194513 0.011679
v 0.013001 0.195487 0.011130
v 0.007828 0.205771 -0.024148
v 0.008610 0.207891 -0.024410
v 0.005915 0.204207 -0.024654
v -0.016492 0.210368 0.009991
v 0.016167 0.195491 0.010337
v 0.013730 0.196111 0.009990
v 0.014347 0.197145 0.008404
v 0.016872 0.196809 0.008376
v 0.013939 0.197841 0.007035
v 0.007653 0.208901 -0.025314
v 0.005947 0.207586 -0.026053
v 0.007498 0.207034 -0.026392
v 0.004719 0.205110 -0.025996
v 0.003965 0.190074 0.014568
v 0.007615 0.190813 0.014437
v 0.008159 0.206456 -0.025488
v 0.014110 0.208541 -0.009996
v 0.014431 0.211552 -0.008476
v 0.015098 0.208619 -0.010760
v 0.008261 0.189949 0.015771
v 0.011673 0.191407 0.015167
v 0.018099 0.206204 0.002927
v 0.016236 0.199211 0.005912
v 0.019624 0.201287 0.006203
v 0.019172 0.199589 0.008695
v 0.018175 0.198448 0.011159
v 0.003908 0.189037 0.015975
v 0.004078 0.190190 0.017472
v 0.008735 0.191213 0.017223
v 0.012247 0.193067 0.016737
v 0.008050 0.195289 0.017516
v 0.004591 0.195015 0.017631
v 0.011317 0.196625 0.017274
v 0.026121 0.215972 -0.005217
v 0.026591 0.219841 -0.004982
v 0.029215 0.216703 -0.004080
v 0.029250 0.219518 -0.004170
v 0.010716 0.202719 0.017734
v 0.007814 0.202025 0.017836
v 0.005342 0.201934 0.017841
v 0.008413 0.208168 0.019088
v 0.006000 0.208042 0.019120
v 0.010813 0.208550 0.018971
v 0.008635 0.213092 0.020037
v -0.019250 0.210050 0.010374
v 0.015989 0.215090 -0.008450
v 0.006846 0.215512 0.018824
v 0.008769 0.215577 0.018808
v 0.016015 0.211882 -0.009867
v 0.010643 0.215662 0.018531
v 0.010765 0.213198 0.019786
v 0.026391 0.221755 -0.004574
v 0.012352 0.215812 0.018397
v 0.013713 0.216281 0.017823
v 0.028581 0.221448 -0.003825
v 0.010239 0.219922 0.010429
v 0.007394 0.219874 0.010363
v 0.016241 0.220220 0.013902
v 0.016269 0.220912 0.012817
v 0.016266 0.219304 0.015372
v 0.026625 0.224930 0.005856
v 0.021870 0.225651 0.004039
v 0.022216 0.226111 0.003688
v 0.026591 0.225438 0.005437
v 0.015671 0.218075 0.016462
v 0.015170 0.217012 0.017374
v 0.013024 0.213807 0.019437
v 0.015288 0.214573 0.018955
v 0.031040 0.220245 -0.002613
v 0.031082 0.217913 -0.002516
v 0.030516 0.221939 -0.002470
v 0.032427 0.221366 0.000047
v 0.032689 0.219506 0.000347
v 0.031713 0.222535 -0.000220
v 0.017017 0.215805 0.018055
v 0.013701 0.221173 0.009784
v 0.016004 0.222609 0.010547
v 0.032104 0.222357 0.002802
v 0.032078 0.220655 0.003124
v 0.031524 0.223211 0.002309
v 0.017488 0.223395 0.011578
v 0.019118 0.222380 0.010467
v 0.017256 0.222108 0.009447
v 0.018224 0.223152 0.012912
v 0.020079 0.222140 0.012109
v 0.018466 0.222399 0.014265
v 0.030686 0.223524 0.004720
v 0.030187 0.222413 0.005092
v 0.030378 0.223918 0.004368
v 0.018451 0.220672 0.015766
v 0.018073 0.217930 0.017010
v 0.020242 0.219130 0.015075
v 0.020236 0.221358 0.013692
v 0.017404 0.220673 -0.002822
v 0.020998 0.217164 0.013800
v 0.021071 0.218511 0.012535
v 0.014170 0.214258 -0.004916
v 0.021092 0.219203 0.011128
v 0.014532 0.221247 0.008736
v 0.007241 0.219521 0.007207
v 0.011010 0.219683 0.007335
v 0.014675 0.219839 0.007863
v 0.018956 0.203755 -0.000961
v 0.017854 0.219846 0.008629
v 0.020312 0.219392 0.009678
v 0.022003 0.201266 -0.002099
v 0.006832 0.216577 0.006425
v 0.007020 0.217949 0.006703
v 0.010777 0.218119 0.006942
v 0.021902 0.201995 0.001228
v 0.024152 0.201696 -0.001062
v 0.014311 0.217704 0.007333
v 0.020928 0.203983 0.003689
v 0.015507 0.193659 0.014696
v 0.014776 0.195771 0.016068
v 0.017605 0.196499 0.013575
v 0.021753 0.203215 0.006807
v 0.020364 0.201488 0.011255
v 0.018417 0.199649 0.013478
v 0.024831 0.201564 -0.002105
v 0.016687 0.198589 0.015160
v 0.019117 0.201699 0.014863
v 0.019378 0.205213 0.015965
v 0.016659 0.202632 0.016219
v 0.021812 0.203812 0.014537
v 0.021151 0.201725 0.013597
v 0.034157 0.204951 0.004402
v 0.014126 0.198910 0.016827
v 0.025874 0.205679 0.005975
v 0.024044 0.205767 0.006647
v 0.022736 0.205417 0.007786
v 0.013449 0.208745 0.018748
v 0.027509 0.205586 0.005549
v 0.013486 0.203653 0.017502
v 0.016413 0.206319 0.017377
v 0.016046 0.210095 0.018471
v 0.028491 0.204219 0.005339
v 0.032665 0.201620 0.004500
v 0.030048 0.200820 0.005478
v 0.028727 0.202247 0.006057
v 0.032200 0.201305 0.005626
v 0.019214 0.208927 0.016816
v 0.027894 0.208214 0.005889
v 0.026293 0.207922 0.006568
v 0.024476 0.207925 0.007349
v 0.018420 0.212592 0.017570
v 0.029768 0.206094 0.005504
v 0.029807 0.207205 0.005262
v 0.029651 0.208573 0.005114
v 0.022022 0.207301 0.015197
v 0.022209 0.211493 0.015361
v 0.021545 0.215431 0.011744
v 0.021671 0.215881 0.010304
v 0.029557 0.204961 0.006247
v 0.029481 0.200938 0.007198
v 0.028183 0.202254 0.007196
v 0.028924 0.205132 0.007367
v 0.033361 0.204171 0.004880
v 0.032622 0.204028 0.005829
v 0.021511 0.214812 0.012859
v 0.020479 0.214964 0.016051
v 0.031264 0.202095 0.007481
v 0.031659 0.204523 0.007494
v 0.023107 0.207132 0.008392
v 0.021521 0.214928 0.014744
v 0.021996 0.204734 0.009287
v 0.020908 0.202233 0.008875
v 0.022658 0.212269 0.014349
v 0.022316 0.206264 0.009551
v 0.021697 0.214182 0.013727
v 0.022363 0.211240 0.013097
v 0.022011 0.212442 0.012228
v 0.021741 0.204056 0.010665
v 0.022014 0.206010 0.010627
v 0.022381 0.208511 0.011999
v 0.022268 0.208789 0.011274
v 0.022559 0.213400 0.009711
v 0.022126 0.213059 0.011177
v 0.022719 0.204350 0.011757
v 0.021828 0.202128 0.012469
v 0.022484 0.206559 0.011759
v 0.022524 0.209238 0.010217
v 0.023132 0.213601 0.008189
v 0.023235 0.209690 0.009005
v 0.024198 0.201615 0.012160
v 0.024452 0.203280 0.011190
v 0.027219 0.207214 0.009835
v 0.025265 0.207745 0.011412
v 0.026959 0.201960 0.011175
v 0.025954 0.202397 0.010104
v 0.027895 0.206526 0.009034
v 0.024301 0.210221 0.007745
v 0.024555 0.203593 0.012955
v 0.027485 0.205541 0.011983
v 0.027128 0.202145 0.008691
v 0.028196 0.200886 0.009212
v 0.028335 0.205742 0.008313
v 0.024805 0.206277 0.013342
v 0.024356 0.210586 0.013292
v 0.029772 0.205585 0.010309
v 0.030183 0.202928 0.009132
v 0.030307 0.212272 0.011916
v 0.030952 0.211343 0.012194
v 0.030836 0.205459 0.008728
v 0.027946 0.212196 0.012854
v 0.030364 0.207079 0.009597
v 0.029044 0.212304 0.011835
v 0.023484 0.208565 0.012398
v 0.029840 0.207586 0.011076
v 0.030410 0.208831 0.010199
v 0.026354 0.210333 0.011986
v 0.027910 0.207901 0.012858
v 0.030184 0.208941 0.012168
v 0.030902 0.210514 0.011206
v 0.028359 0.210779 0.010738
v 0.024317 0.215429 0.006378
v 0.025669 0.210337 0.006509
v 0.031977 0.208190 0.004254
v 0.032094 0.206608 0.004483
v 0.031773 0.205723 0.004967
v 0.031161 0.205221 0.005943
v 0.030416 0.205561 0.007371
v -0.018791 0.208492 0.011349
v 0.004992 0.215995 -0.019810
v 0.004119 0.215349 -0.020055
v 0.003399 0.212096 -0.022626
v 0.001272 0.213300 -0.005665
v 0.001997 0.220718 -0.004986
v 0.004279 0.218868 -0.005332
v 0.003270 0.212948 -0.005810
v 0.005574 0.212827 -0.005923
v 0.004907 0.210291 -0.010612
v 0.002385 0.210101 -0.010802
v 0.002403 0.205708 -0.025422
v 0.001646 0.204608 -0.024048
v 0.002683 0.204923 -0.023755
v 0.003003 0.205938 -0.025034
v -0.011890 0.222981 0.004996
v -0.006987 0.223875 0.003181
v -0.007596 0.222057 0.002656
v -0.012246 0.220655 0.004694
v -0.006412 0.220804 -0.001281
v -0.005832 0.223201 -0.000709
v -0.008319 0.219389 0.002292
v -0.011907 0.217959 0.004939
v -0.008064 0.216014 -0.002426
v 0.004217 0.207832 -0.015947
v 0.002494 0.207960 -0.015421
v 0.003448 0.206008 -0.024906
v 0.003818 0.208658 -0.024272
v 0.003183 0.208606 -0.024403
v 0.000248 0.206475 -0.022293
v 0.002239 0.205807 -0.022283
v 0.001789 0.211632 -0.022790
v 0.002298 0.208441 -0.024861
v -0.010627 0.210790 -0.007538
v -0.013198 0.206007 -0.007014
v -0.010986 0.205947 -0.006511
v -0.009021 0.207992 -0.007444
v -0.015544 0.211232 -0.006147
v -0.016917 0.206289 -0.006240
v -0.017454 0.202830 -0.006530
v -0.014161 0.202069 -0.007349
v -0.011883 0.203643 -0.006417
v 0.003773 0.206565 -0.020381
v 0.003555 0.205729 -0.022273
v 0.002508 0.206529 -0.020306
v -0.017732 0.222742 0.001540
v -0.016174 0.223473 0.003639
v -0.016571 0.223072 0.003978
v -0.018501 0.221875 0.002010
v -0.019129 0.206657 -0.004631
v -0.019717 0.202946 -0.005248
v -0.018226 0.211738 -0.004829
v 0.000794 0.207438 -0.019476
v 0.000532 0.208506 -0.015954
v 0.002131 0.220431 -0.007684
v 0.001976 0.218916 -0.009096
v 0.004499 0.216824 -0.015055
v 0.004609 0.219246 -0.008389
v -0.010153 0.204970 -0.004845
v -0.007894 0.208546 -0.006132
v -0.010419 0.203104 -0.004926
v 0.000988 0.215329 -0.010747
v 0.002861 0.214171 -0.015126
v -0.014452 0.200947 -0.001059
v -0.017707 0.201310 -0.000431
v -0.017596 0.201359 0.000123
v -0.013670 0.200992 -0.000383
v -0.012046 0.201152 -0.002440
v -0.010903 0.201933 -0.002125
v -0.011732 0.200906 -0.004599
v -0.010850 0.201724 -0.004882
v -0.019313 0.212932 -0.002466
v -0.020113 0.207658 -0.002799
v -0.020781 0.204222 -0.002776
v -0.019474 0.210262 0.000180
v -0.019580 0.207747 -0.000508
v -0.020391 0.203564 -0.000291
v -0.013203 0.200335 -0.005863
v -0.012759 0.200670 -0.006407
v -0.015258 0.200101 -0.006349
v -0.014759 0.200702 -0.007095
v -0.017926 0.200002 -0.006099
v -0.017956 0.200730 -0.006624
v -0.019094 0.216090 0.000086
v -0.020593 0.210481 0.001405
v -0.018975 0.205353 0.002067
v -0.018258 0.204283 0.001576
v -0.020526 0.204992 0.002357
v -0.019696 0.200136 -0.005070
v -0.020415 0.200478 -0.005681
v -0.017309 0.201751 0.000976
v -0.020337 0.201233 -0.000880
v -0.020681 0.201950 -0.000473
v -0.020849 0.200534 -0.002658
v -0.021503 0.201249 -0.002538
v -0.023984 0.205090 0.002208
v -0.023921 0.202715 0.002651
v -0.020091 0.212189 0.002981
v -0.023775 0.206557 0.003013
v -0.018043 0.217740 0.002352
v 0.003726 0.220395 0.008139
v -0.016583 0.207497 0.012107
v -0.014433 0.209961 0.011302
v 0.004267 0.220382 0.009433
v -0.014721 0.208753 0.012838
v -0.013937 0.210325 0.012785
v -0.012244 0.210231 0.013479
v -0.012766 0.208140 0.013378
v -0.016008 0.209669 0.013570
v -0.015112 0.210884 0.013083
v 0.006374 0.218765 -0.005396
v 0.000544 0.196516 0.010434
v -0.000087 0.197797 0.008786
v -0.002763 0.197412 0.008831
v -0.002582 0.196204 0.010257
v -0.001184 0.210003 0.005302
v 0.002531 0.210753 0.005097
v 0.003058 0.214100 0.005899
v -0.000577 0.212714 0.006181
v -0.015355 0.210169 0.005147
v -0.016282 0.212109 0.004660
v -0.007585 0.225093 -0.000250
v -0.009973 0.223816 -0.002064
v -0.009297 0.223743 -0.003163
v -0.008100 0.224585 -0.001871
v 0.001073 0.217811 0.012128
v -0.000442 0.220452 0.011535
v 0.000405 0.220561 0.010811
v 0.001963 0.219809 0.010459
v -0.015668 0.200142 -0.005678
v -0.014505 0.200452 -0.005059
v -0.013575 0.200780 -0.003902
v -0.017642 0.211636 0.013101
v -0.017233 0.208690 0.013107
v -0.018846 0.209553 0.012580
v -0.017508 0.200260 -0.005293
v 0.000436 0.205998 -0.026862
v -0.000963 0.205169 -0.025189
v -0.000027 0.204097 -0.025303
v 0.001035 0.204642 -0.026542
v -0.018984 0.200365 -0.004649
v -0.016856 0.200834 -0.004177
v -0.005575 0.214868 -0.004209
v -0.007017 0.211967 -0.006081
v -0.009157 0.210085 -0.003622
v -0.019259 0.200953 -0.003189
v -0.018878 0.201399 -0.001678
v -0.000114 0.209699 -0.010330
v -0.017585 0.201483 -0.001022
v -0.002125 0.198186 0.007385
v -0.003133 0.197823 0.007874
v -0.000596 0.195196 0.011358
v 0.001376 0.195046 0.011703
v -0.013915 0.203367 0.003824
v -0.016440 0.203018 0.003353
v -0.018016 0.202910 0.003476
v -0.019098 0.208380 0.009372
v -0.018727 0.207145 0.010260
v -0.019725 0.202318 0.003631
v -0.011797 0.208247 0.011799
v -0.016880 0.211878 0.011075
v 0.001930 0.198355 0.007208
v 0.003240 0.216395 0.006484
v -0.000294 0.215329 0.006714
v -0.019439 0.206629 0.008759
v -0.015719 0.211791 0.012129
v -0.008104 0.213782 0.000338
v -0.007333 0.213801 0.003479
v -0.008750 0.217006 0.004887
v -0.009220 0.207693 -0.000862
v -0.007526 0.209573 0.002399
v 0.001986 0.206090 0.004452
v -0.020316 0.205001 0.007863
v 0.001373 0.200681 0.003717
v -0.019127 0.210877 0.011366
v -0.008032 0.216240 0.008069
v -0.005128 0.213837 0.005672
v -0.004928 0.210346 0.004809
v 0.001542 0.198943 0.005059
v -0.018244 0.211820 0.011115
v -0.003617 0.214326 0.006561
v -0.004048 0.217234 0.007458
v -0.003256 0.212133 0.005882
v -0.020150 0.202483 0.008270
v -0.019102 0.205147 0.009480
v 0.004294 0.215007 0.016256
v 0.003848 0.215289 0.013716
v -0.012245 0.210251 0.012676
v 0.004038 0.217487 0.011547
v 0.002587 0.213405 -0.019869
v 0.006204 0.219269 -0.008559
v 0.005491 0.217339 -0.015009
v 0.000894 0.216756 0.014120
v 0.001596 0.215749 0.016098
v -0.017937 0.212693 0.004069
v -0.015800 0.219148 0.004088
v -0.007784 0.225481 0.002014
v -0.010684 0.223698 -0.001074
v -0.000869 0.211601 -0.012353
v 0.001217 0.211076 -0.015428
v 0.000642 0.210083 -0.019620
v -0.002021 0.208722 -0.013492
v -0.011484 0.224482 0.003392
v -0.012473 0.223464 -0.000072
v -0.015033 0.223309 0.003336
v -0.015686 0.223188 0.001009
v -0.000039 0.209118 -0.022321
v -0.014805 0.222362 -0.002442
v -0.016627 0.222617 -0.001418
v -0.013430 0.222520 -0.003383
v -0.000777 0.208356 -0.012869
v -0.012019 0.222778 -0.003866
v -0.010718 0.223123 -0.004041
v -0.000926 0.199401 0.005355
v -0.001571 0.200829 0.003946
v -0.002273 0.221311 -0.006229
v -0.003263 0.220016 -0.007288
v -0.001238 0.220931 -0.004285
v -0.001442 0.205943 0.004444
v -0.004655 0.206388 0.004315
v -0.004172 0.200505 0.004455
v -0.003251 0.199184 0.005687
v -0.009451 0.215548 -0.006595
v -0.006646 0.220121 -0.005792
v -0.008244 0.222170 -0.004360
v -0.010607 0.220508 -0.005402
v -0.006525 0.223780 -0.002648
v -0.005111 0.222127 -0.004395
v -0.008596 0.223364 -0.004110
v -0.007091 0.224614 -0.002393
v -0.010617 0.222158 -0.005131
v 0.001660 0.193582 0.012749
v -0.013658 0.205932 0.012684
v -0.005981 0.224499 -0.000301
v -0.006368 0.225233 -0.000167
v -0.000863 0.193472 0.012417
v -0.002861 0.194802 0.011574
v -0.005813 0.192894 0.012343
v -0.002572 0.191315 0.013663
v -0.007606 0.194319 0.011245
v -0.004191 0.195347 0.010817
v -0.000917 0.205699 -0.024287
v -0.001188 0.207810 -0.024564
v 0.000537 0.204164 -0.024740
v 0.003388 0.205039 -0.023672
v -0.007455 0.195298 0.009908
v -0.004890 0.195959 0.009653
v -0.005433 0.196983 0.008047
v -0.008056 0.196605 0.007927
v -0.005009 0.197687 0.006695
v -0.000081 0.208836 -0.025434
v 0.001222 0.207547 -0.026127
v -0.000502 0.206968 -0.026517
v 0.001832 0.205086 -0.026042
v -0.017674 0.205334 0.007531
v 0.000454 0.190755 0.014304
v -0.001214 0.206379 -0.025635
v -0.004699 0.208382 -0.010307
v -0.004028 0.211393 -0.008779
v -0.005771 0.208443 -0.011103
v -0.000280 0.189880 0.015612
v -0.003438 0.191285 0.014887
v -0.007589 0.205984 0.002485
v -0.007111 0.199019 0.005496
v -0.009982 0.201038 0.005682
v -0.009679 0.199347 0.008184
v -0.008721 0.198222 0.010679
v -0.018533 0.200480 0.008401
v -0.017195 0.201760 0.007924
v -0.000396 0.191139 0.017055
v -0.003564 0.192937 0.016448
v 0.001173 0.195231 0.017391
v -0.016656 0.205146 0.011230
v -0.001841 0.196514 0.017037
v -0.014384 0.215607 -0.005865
v -0.013968 0.219469 -0.005620
v -0.017292 0.216278 -0.004819
v -0.016728 0.219094 -0.004891
v 0.000101 0.202626 0.017547
v 0.002880 0.201982 0.017749
v -0.013992 0.203253 0.012288
v 0.003605 0.208125 0.019006
v -0.012506 0.209891 0.007126
v 0.001263 0.208463 0.018808
v 0.004411 0.213053 0.019966
v 0.006519 0.213032 0.020116
v -0.004697 0.214909 -0.008783
v -0.017000 0.206126 0.008273
v 0.004929 0.215542 0.018744
v -0.005729 0.211695 -0.010221
v 0.003066 0.215591 0.018404
v 0.002294 0.213120 0.019644
v -0.013285 0.221389 -0.005194
v 0.001362 0.215710 0.018214
v 0.000104 0.216154 0.017596
v -0.015567 0.221038 -0.004514
v 0.004539 0.219869 0.010335
v -0.015838 0.202033 0.009380
v -0.001470 0.220053 0.013612
v -0.001335 0.220746 0.012529
v -0.001737 0.219135 0.015076
v -0.011742 0.224565 0.005251
v -0.006609 0.225382 0.003588
v -0.006905 0.225835 0.003229
v -0.011622 0.225073 0.004836
v -0.001443 0.217915 0.016179
v -0.001212 0.216859 0.017102
v 0.000144 0.213688 0.019221
v -0.001990 0.214412 0.018666
v -0.018293 0.219785 -0.003386
v -0.018815 0.217451 -0.003305
v -0.017367 0.221490 -0.003216
v -0.019285 0.220878 -0.000761
v -0.019915 0.219012 -0.000481
v -0.018301 0.222061 -0.000999
v -0.003457 0.215613 0.017715
v 0.001286 0.221058 0.009581
v -0.000701 0.222453 0.010276
v -0.018793 0.220174 0.002322
v -0.002025 0.223211 0.011263
v -0.004027 0.222162 0.010092
v -0.002185 0.221926 0.009131
v -0.002841 0.222952 0.012572
v -0.005061 0.221902 0.011701
v -0.003288 0.222193 0.013912
v -0.016228 0.221972 0.004360
v -0.003725 0.220462 0.015404
v -0.004021 0.217722 0.016646
v -0.005966 0.218883 0.014646
v -0.005412 0.221115 0.013275
v -0.003972 0.220479 -0.003164
v -0.007204 0.216901 0.013335
v -0.006971 0.218249 0.012075
v -0.002570 0.214111 -0.005190
v -0.006858 0.218942 0.010671
v 0.000384 0.221116 0.008505
v -0.016909 0.201576 0.010415
v 0.003487 0.219614 0.007211
v -0.000179 0.219702 0.007620
v -0.009563 0.203516 -0.001452
v -0.003417 0.219649 0.008281
v -0.006044 0.219148 0.009247
v -0.013391 0.200972 -0.002711
v -0.013874 0.207393 0.010747
v -0.016102 0.206826 0.009101
v 0.003293 0.218050 0.006818
v -0.012681 0.201705 0.000628
v -0.015296 0.201365 -0.001741
v -0.000384 0.217571 0.007090
v -0.010917 0.203712 0.003139
v -0.006843 0.193475 0.014288
v -0.005570 0.195600 0.015700
v -0.008412 0.196281 0.013107
v -0.011614 0.202929 0.006227
v -0.010239 0.201226 0.010717
v -0.008537 0.199420 0.013000
v -0.016139 0.201221 -0.002808
v -0.006933 0.198388 0.014739
v -0.008739 0.201457 0.014374
v -0.008215 0.204968 0.015488
v -0.005983 0.202434 0.015822
v -0.011059 0.203522 0.013967
v -0.010865 0.201447 0.013036
v -0.024162 0.204430 0.003427
v -0.004204 0.198753 0.016500
v -0.015322 0.205319 0.005272
v -0.013365 0.205440 0.006006
v -0.012010 0.205114 0.007189
v -0.001376 0.208611 0.018494
v -0.017061 0.205195 0.004792
v -0.002508 0.203513 0.017222
v -0.004918 0.206128 0.017009
v -0.003742 0.209914 0.018135
v -0.018397 0.203809 0.004540
v -0.023320 0.201132 0.003546
v -0.020736 0.200382 0.004603
v -0.019020 0.201833 0.005236
v -0.022819 0.200825 0.004686
v -0.007235 0.208686 0.016366
v -0.016837 0.207815 0.005137
v -0.015190 0.207554 0.005867
v -0.013249 0.207591 0.006709
v -0.005620 0.212370 0.017166
v -0.019282 0.205659 0.004677
v -0.019096 0.206769 0.004441
v -0.018644 0.208140 0.004307
v -0.010506 0.207008 0.014641
v -0.009784 0.211199 0.014823
v -0.008208 0.215157 0.011250
v -0.008284 0.215605 0.009808
v -0.019256 0.204530 0.005418
v -0.019987 0.200509 0.006343
v -0.018367 0.201849 0.006394
v -0.018481 0.204713 0.006561
v -0.023464 0.203666 0.003924
v -0.022659 0.203537 0.004895
v -0.008294 0.214537 0.012364
v -0.007198 0.214706 0.015591
v -0.021549 0.201631 0.006578
v -0.021443 0.204050 0.006595
v -0.011943 0.206824 0.007793
v -0.008279 0.214651 0.014249
v -0.011295 0.204444 0.008712
v -0.010801 0.201962 0.008320
v -0.010076 0.211968 0.013801
v -0.011249 0.205969 0.008974
v -0.008629 0.213902 0.013221
v -0.010005 0.210945 0.012552
v -0.009379 0.212156 0.011701
v -0.011096 0.203770 0.010095
v -0.010930 0.205720 0.010060
v -0.010672 0.208215 0.011437
v -0.010520 0.208496 0.010717
v -0.009827 0.213105 0.009170
v -0.009389 0.212772 0.010650
v -0.011975 0.204045 0.011157
v -0.011522 0.201839 0.011886
v -0.011232 0.206260 0.011180
v -0.010734 0.208941 0.009653
v -0.010467 0.213296 0.007630
v -0.011437 0.209379 0.008419
v -0.014088 0.201282 0.011492
v -0.014032 0.202944 0.010523
f 1 465 3
f 1 3 4
f 5 6 7
f 5 7 8
f 472 473 11
f 472 11 8
f 12 13 14
f 12 14 15
f 16 17 18
f 16 18 19
f 20 18 17
f 20 17 21
f 22 23 19
f 22 19 18
f 24 22 18
f 24 18 20
f 473 488 26
f 473 26 11
f 490 491 29
f 490 29 15
f 13 30 31
f 13 31 14
f 32 33 29
f 32 29 4
f 34 35 36
f 34 36 37
f 34 38 39
f 34 39 35
f 40 41 35
f 40 35 39
f 41 42 36
f 41 36 35
f 506 507 31
f 506 31 45
f 321 330 328
f 321 328 319
f 40 39 50
f 40 50 51
f 52 50 39
f 52 39 38
f 53 54 26
f 53 26 45
f 55 56 57
f 55 57 58
f 59 60 37
f 59 37 36
f 59 36 42
f 59 42 61
f 62 63 57
f 62 57 56
f 64 65 66
f 64 66 67
f 68 64 67
f 68 67 69
f 70 68 69
f 70 69 71
f 72 73 50
f 72 50 52
f 51 50 73
f 51 73 74
f 72 75 76
f 72 76 73
f 74 73 76
f 74 76 77
f 78 70 71
f 78 71 79
f 80 78 79
f 80 79 81
f 82 80 81
f 82 81 83
f 72 84 85
f 72 85 75
f 75 86 87
f 75 87 76
f 85 88 86
f 85 86 75
f 89 82 83
f 89 83 90
f 91 77 76
f 91 76 87
f 65 92 93
f 65 93 66
f 94 89 90
f 94 90 95
f 92 94 95
f 92 95 93
f 85 96 97
f 85 97 88
f 98 99 96
f 98 96 85
f 85 84 100
f 85 100 98
f 101 102 103
f 101 103 104
f 105 106 107
f 105 107 108
f 95 74 77
f 95 77 93
f 90 51 74
f 90 74 95
f 109 110 106
f 109 106 105
f 93 77 91
f 93 91 66
f 574 472 8
f 574 8 7
f 112 113 114
f 112 114 115
f 83 40 51
f 83 51 90
f 81 41 40
f 81 40 83
f 116 117 118
f 116 118 119
f 81 79 42
f 81 42 41
f 19 23 120
f 19 120 121
f 79 71 61
f 79 61 42
f 122 123 124
f 122 124 125
f 126 127 128
f 126 128 129
f 78 80 130
f 78 130 131
f 78 131 132
f 78 132 70
f 133 109 134
f 133 134 135
f 80 82 136
f 80 136 130
f 137 138 139
f 137 139 140
f 89 141 136
f 89 136 82
f 131 130 136
f 131 136 142
f 24 143 144
f 24 144 145
f 94 146 141
f 94 141 89
f 92 147 146
f 92 146 94
f 148 5 8
f 148 8 11
f 65 149 147
f 65 147 92
f 113 150 151
f 113 151 114
f 115 152 153
f 115 153 112
f 154 91 87
f 154 87 155
f 155 87 86
f 155 86 156
f 112 153 157
f 112 157 158
f 159 156 86
f 159 86 88
f 160 161 162
f 160 162 113
f 113 112 158
f 113 158 160
f 119 118 163
f 119 163 164
f 117 165 166
f 117 166 118
f 22 24 145
f 22 145 167
f 167 168 169
f 167 169 22
f 168 167 170
f 168 170 171
f 167 145 59
f 167 59 170
f 165 117 172
f 165 172 173
f 173 172 174
f 173 174 175
f 176 169 168
f 176 168 177
f 171 178 177
f 171 177 168
f 175 174 179
f 175 179 180
f 161 180 179
f 161 179 162
f 176 177 181
f 176 181 182
f 178 183 181
f 178 181 177
f 184 185 186
f 184 186 187
f 188 184 187
f 188 187 189
f 6 55 58
f 6 58 7
f 63 190 3
f 63 3 57
f 654 58 57
f 654 57 655
f 655 57 3
f 655 3 465
f 189 187 193
f 189 193 126
f 190 32 4
f 190 4 3
f 186 194 193
f 186 193 187
f 19 121 195
f 19 195 196
f 196 195 98
f 196 98 100
f 197 198 123
f 197 123 122
f 63 62 199
f 63 199 200
f 63 200 201
f 63 201 190
f 201 200 54
f 201 54 53
f 200 199 202
f 200 202 54
f 197 203 204
f 197 204 198
f 204 203 205
f 204 205 206
f 53 30 207
f 53 207 201
f 190 201 207
f 190 207 32
f 208 204 206
f 208 206 209
f 210 198 204
f 210 204 208
f 506 45 26
f 506 26 488
f 54 202 211
f 54 211 26
f 212 213 124
f 212 124 123
f 53 45 31
f 53 31 30
f 210 212 123
f 210 123 198
f 574 7 58
f 574 58 654
f 113 162 179
f 113 179 214
f 174 215 214
f 174 214 179
f 55 216 217
f 55 217 56
f 216 55 6
f 216 6 218
f 117 116 219
f 117 219 172
f 219 215 174
f 219 174 172
f 220 221 215
f 220 215 219
f 113 214 222
f 113 222 150
f 223 224 225
f 223 225 226
f 227 225 224
f 227 224 228
f 229 230 125
f 229 125 124
f 231 229 124
f 231 124 213
f 221 222 214
f 221 214 215
f 153 232 233
f 153 233 157
f 228 21 234
f 228 234 227
f 230 235 122
f 230 122 125
f 232 153 152
f 232 152 236
f 491 1 4
f 491 4 29
f 115 237 236
f 115 236 152
f 236 237 238
f 236 238 239
f 240 238 237
f 240 237 241
f 207 30 242
f 207 242 243
f 30 13 244
f 30 244 242
f 507 708 14
f 507 14 31
f 246 240 241
f 246 241 247
f 33 12 15
f 33 15 29
f 247 241 237
f 247 237 115
f 248 247 115
f 248 115 114
f 249 246 247
f 249 247 248
f 250 151 150
f 250 150 222
f 32 251 252
f 32 252 33
f 251 253 137
f 251 137 252
f 33 252 254
f 33 254 12
f 252 137 140
f 252 140 254
f 114 151 250
f 114 250 248
f 255 233 232
f 255 232 256
f 243 242 138
f 243 138 257
f 242 244 139
f 242 139 138
f 211 148 11
f 211 11 26
f 239 256 232
f 239 232 236
f 258 259 148
f 258 148 211
f 259 258 60
f 259 60 144
f 211 202 260
f 211 260 258
f 60 258 260
f 60 260 37
f 261 256 239
f 261 239 262
f 263 264 221
f 263 221 220
f 264 250 222
f 264 222 221
f 264 249 248
f 264 248 250
f 265 266 249
f 265 249 264
f 708 490 15
f 708 15 14
f 267 246 249
f 267 249 266
f 244 13 12
f 244 12 254
f 268 255 256
f 268 256 261
f 254 140 139
f 254 139 244
f 269 268 261
f 269 261 270
f 271 270 261
f 271 261 262
f 270 272 273
f 270 273 269
f 271 274 272
f 271 272 270
f 34 223 275
f 34 275 38
f 223 226 276
f 223 276 275
f 277 52 38
f 277 38 275
f 275 276 278
f 275 278 277
f 274 279 280
f 274 280 272
f 32 207 243
f 32 243 251
f 272 280 281
f 272 281 273
f 251 243 257
f 251 257 253
f 282 283 281
f 282 281 280
f 280 279 284
f 280 284 282
f 282 285 749
f 282 749 283
f 56 217 287
f 56 287 62
f 223 287 217
f 223 217 224
f 224 217 216
f 224 216 228
f 186 185 288
f 186 288 289
f 749 285 289
f 749 289 288
f 62 287 290
f 62 290 199
f 290 260 202
f 290 202 199
f 194 186 289
f 194 289 291
f 285 282 284
f 285 284 292
f 223 34 290
f 223 290 287
f 34 37 260
f 34 260 290
f 285 292 291
f 285 291 289
f 231 213 212
f 231 212 293
f 291 294 295
f 291 295 194
f 293 212 210
f 293 210 296
f 126 129 297
f 126 297 189
f 189 297 298
f 189 298 188
f 126 299 300
f 126 300 127
f 126 193 301
f 126 301 299
f 17 16 302
f 17 302 303
f 304 305 203
f 304 203 197
f 21 17 303
f 21 303 234
f 235 304 197
f 235 197 122
f 306 194 295
f 306 295 307
f 194 306 301
f 194 301 193
f 292 308 294
f 292 294 291
f 309 295 294
f 309 294 308
f 310 311 277
f 310 277 278
f 296 210 208
f 296 208 312
f 311 310 313
f 311 313 314
f 315 312 208
f 315 208 209
f 316 307 295
f 316 295 309
f 103 298 297
f 103 297 104
f 311 72 52
f 311 52 277
f 72 311 314
f 72 314 84
f 317 104 297
f 317 297 129
f 318 317 129
f 318 129 128
f 314 313 319
f 314 319 320
f 321 315 209
f 321 209 206
f 322 318 128
f 322 128 127
f 320 100 84
f 320 84 314
f 323 324 318
f 323 318 322
f 127 300 325
f 127 325 322
f 323 322 325
f 323 325 326
f 325 300 299
f 325 299 327
f 328 302 16
f 328 16 329
f 319 328 329
f 319 329 320
f 321 206 205
f 321 205 330
f 330 205 203
f 330 203 305
f 327 299 301
f 327 301 331
f 332 306 307
f 332 307 316
f 320 329 196
f 320 196 100
f 329 16 19
f 329 19 196
f 331 301 306
f 331 306 332
f 333 334 327
f 333 327 331
f 228 216 218
f 228 218 335
f 228 335 20
f 228 20 21
f 326 325 327
f 326 327 334
f 333 336 337
f 333 337 334
f 143 335 218
f 143 218 338
f 218 6 5
f 218 5 338
f 334 337 339
f 334 339 326
f 335 143 24
f 335 24 20
f 340 101 104
f 340 104 317
f 338 5 148
f 338 148 259
f 324 340 317
f 324 317 318
f 144 143 338
f 144 338 259
f 341 102 101
f 341 101 342
f 59 145 144
f 59 144 60
f 342 101 340
f 342 340 343
f 170 59 61
f 170 61 344
f 345 343 340
f 345 340 324
f 344 61 71
f 344 71 69
f 323 326 339
f 323 339 346
f 68 70 132
f 68 132 347
f 346 345 324
f 346 324 323
f 171 170 344
f 171 344 263
f 118 166 348
f 118 348 163
f 163 348 349
f 163 349 350
f 344 69 67
f 344 67 351
f 68 347 352
f 68 352 64
f 350 349 341
f 350 341 342
f 353 350 342
f 353 342 343
f 350 353 164
f 350 164 163
f 344 351 354
f 344 354 263
f 351 67 66
f 351 66 91
f 91 154 354
f 91 354 351
f 181 183 119
f 181 119 164
f 64 352 149
f 64 149 65
f 345 182 353
f 345 353 343
f 263 220 178
f 263 178 171
f 164 353 182
f 164 182 181
f 355 262 239
f 355 239 238
f 178 220 219
f 178 219 116
f 178 116 119
f 178 119 183
f 356 271 262
f 356 262 355
f 357 240 246
f 357 246 267
f 264 263 354
f 264 354 265
f 154 358 265
f 154 265 354
f 357 355 238
f 357 238 240
f 359 360 357
f 359 357 267
f 361 132 131
f 361 131 142
f 132 361 352
f 132 352 347
f 355 357 362
f 355 362 356
f 147 149 352
f 147 352 361
f 363 362 357
f 363 357 360
f 147 361 142
f 147 142 146
f 364 365 362
f 364 362 363
f 146 142 136
f 146 136 141
f 366 363 360
f 366 360 367
f 97 96 99
f 97 99 368
f 274 271 356
f 274 356 369
f 365 369 356
f 365 356 362
f 154 155 370
f 154 370 371
f 154 371 372
f 154 372 358
f 373 308 292
f 373 292 284
f 155 156 374
f 155 374 370
f 279 274 369
f 279 369 375
f 284 279 375
f 284 375 373
f 369 365 376
f 369 376 375
f 308 373 377
f 308 377 309
f 374 156 159
f 374 159 378
f 88 97 379
f 88 379 159
f 380 381 378
f 380 378 159
f 159 379 382
f 159 382 380
f 375 376 377
f 375 377 373
f 365 364 383
f 365 383 376
f 384 385 370
f 384 370 374
f 371 370 385
f 371 385 386
f 377 387 316
f 377 316 309
f 387 377 376
f 387 376 383
f 374 378 388
f 374 388 389
f 374 389 390
f 374 390 384
f 363 366 391
f 363 391 364
f 392 383 364
f 392 364 391
f 339 337 393
f 339 393 394
f 381 395 388
f 381 388 378
f 380 396 397
f 380 397 381
f 395 381 397
f 395 397 398
f 176 182 345
f 176 345 346
f 176 346 339
f 176 339 394
f 379 97 368
f 379 368 399
f 399 400 382
f 399 382 379
f 337 336 401
f 337 401 393
f 402 333 331
f 402 331 332
f 403 396 380
f 403 380 382
f 382 400 404
f 382 404 403
f 402 332 316
f 402 316 387
f 386 405 372
f 386 372 371
f 392 402 387
f 392 387 383
f 333 402 406
f 333 406 336
f 358 372 407
f 358 407 408
f 266 265 358
f 266 358 408
f 402 392 409
f 402 409 406
f 372 405 410
f 372 410 407
f 336 406 411
f 336 411 401
f 412 413 401
f 412 401 411
f 408 407 414
f 408 414 359
f 414 407 410
f 414 410 415
f 412 411 406
f 412 406 409
f 267 266 408
f 267 408 359
f 413 412 416
f 413 416 417
f 418 394 393
f 418 393 419
f 359 414 420
f 359 420 421
f 414 415 422
f 414 422 420
f 393 401 413
f 393 413 419
f 423 419 413
f 423 413 417
f 424 176 394
f 424 394 418
f 419 423 425
f 419 425 418
f 426 421 420
f 426 420 427
f 428 427 420
f 428 420 429
f 430 426 427
f 430 427 431
f 427 428 432
f 427 432 431
f 418 425 433
f 418 433 424
f 405 386 433
f 405 433 425
f 434 367 421
f 434 421 426
f 435 434 426
f 435 426 430
f 423 410 405
f 423 405 425
f 410 423 417
f 410 417 415
f 430 431 436
f 430 436 437
f 431 432 438
f 431 438 436
f 415 417 416
f 415 416 422
f 439 108 391
f 439 391 366
f 437 436 397
f 437 397 396
f 436 438 398
f 436 398 397
f 392 391 108
f 392 108 107
f 392 107 440
f 392 440 409
f 441 430 437
f 441 437 442
f 437 396 403
f 437 403 442
f 443 133 135
f 443 135 444
f 442 403 404
f 442 404 445
f 133 446 110
f 133 110 109
f 442 445 447
f 442 447 441
f 133 443 448
f 133 448 446
f 412 449 422
f 412 422 416
f 430 441 450
f 430 450 435
f 450 441 447
f 450 447 451
f 449 412 409
f 449 409 440
f 452 106 110
f 452 110 446
f 453 439 434
f 453 434 435
f 367 434 439
f 367 439 366
f 452 440 107
f 452 107 106
f 435 450 454
f 435 454 453
f 440 452 429
f 440 429 449
f 455 454 450
f 455 450 451
f 452 446 448
f 452 448 456
f 428 429 452
f 428 452 456
f 359 421 367
f 359 367 360
f 429 420 422
f 429 422 449
f 22 169 457
f 22 457 23
f 138 137 253
f 138 253 257
f 176 424 457
f 176 457 169
f 457 424 433
f 457 433 458
f 99 98 195
f 99 195 459
f 368 99 459
f 368 459 460
f 23 457 458
f 23 458 120
f 368 460 461
f 368 461 399
f 390 121 120
f 390 120 384
f 399 461 462
f 399 462 400
f 385 458 433
f 385 433 386
f 384 120 458
f 384 458 385
f 445 404 463
f 445 463 49
f 447 445 49
f 447 49 48
f 459 195 121
f 459 121 390
f 451 447 48
f 451 48 47
f 390 389 460
f 390 460 459
f 455 451 47
f 455 47 46
f 456 448 443
f 456 443 46
f 428 456 46
f 428 46 47
f 47 48 432
f 47 432 428
f 453 454 135
f 453 135 134
f 453 105 108
f 453 108 439
f 105 453 134
f 105 134 109
f 48 49 438
f 48 438 432
f 135 454 455
f 135 455 444
f 49 463 398
f 49 398 438
f 46 443 444
f 46 444 455
f 462 395 398
f 462 398 463
f 400 462 463
f 400 463 404
f 460 389 388
f 460 388 461
f 461 388 395
f 461 395 462
f 229 231 226
f 229 226 225
f 230 229 225
f 230 225 227
f 235 230 227
f 235 227 234
f 231 293 276
f 231 276 226
f 293 296 278
f 293 278 276
f 305 304 303
f 305 303 302
f 304 235 234
f 304 234 303
f 296 312 310
f 296 310 278
f 312 315 313
f 312 313 310
f 315 321 319
f 315 319 313
f 330 305 302
f 330 302 328
f 1 467 466
f 1 466 465
f 468 471 470
f 468 470 469
f 472 471 474
f 472 474 473
f 475 478 477
f 475 477 476
f 479 482 481
f 479 481 480
f 483 484 480
f 483 480 481
f 485 481 482
f 485 482 486
f 487 483 481
f 487 481 485
f 473 474 489
f 473 489 488
f 490 478 492
f 490 492 491
f 476 477 494
f 476 494 493
f 495 467 492
f 495 492 496
f 497 500 499
f 497 499 498
f 497 498 502
f 497 502 501
f 503 502 498
f 503 498 504
f 504 498 499
f 504 499 505
f 506 508 494
f 506 494 507
f 509 512 511
f 509 511 510
f 503 514 513
f 503 513 502
f 515 501 502
f 515 502 513
f 516 508 489
f 516 489 517
f 518 521 520
f 518 520 519
f 522 499 500
f 522 500 523
f 522 524 505
f 522 505 499
f 525 519 520
f 525 520 526
f 527 530 529
f 527 529 528
f 531 532 530
f 531 530 527
f 533 534 532
f 533 532 531
f 535 515 513
f 535 513 536
f 514 537 536
f 514 536 513
f 535 536 539
f 535 539 538
f 537 540 539
f 537 539 536
f 541 542 534
f 541 534 533
f 543 544 542
f 543 542 541
f 545 546 544
f 545 544 543
f 535 538 548
f 535 548 547
f 538 539 550
f 538 550 549
f 548 538 549
f 548 549 551
f 552 553 546
f 552 546 545
f 554 550 539
f 554 539 540
f 528 529 556
f 528 556 555
f 557 558 553
f 557 553 552
f 555 556 558
f 555 558 557
f 548 551 560
f 548 560 559
f 561 548 559
f 561 559 562
f 548 561 563
f 548 563 547
f 564 567 103
f 564 103 102
f 568 571 570
f 568 570 569
f 558 556 540
f 558 540 537
f 553 558 537
f 553 537 514
f 572 568 569
f 572 569 573
f 556 529 554
f 556 554 540
f 574 470 471
f 574 471 472
f 575 578 577
f 575 577 576
f 546 553 514
f 546 514 503
f 544 546 503
f 544 503 504
f 579 582 581
f 579 581 580
f 544 504 505
f 544 505 542
f 482 584 583
f 482 583 486
f 542 505 524
f 542 524 534
f 585 588 587
f 585 587 586
f 589 592 591
f 589 591 590
f 541 594 593
f 541 593 543
f 541 533 595
f 541 595 594
f 596 598 597
f 596 597 572
f 543 593 599
f 543 599 545
f 600 603 602
f 600 602 601
f 552 545 599
f 552 599 604
f 594 605 599
f 594 599 593
f 487 608 607
f 487 607 606
f 557 552 604
f 557 604 609
f 555 557 609
f 555 609 610
f 611 474 471
f 611 471 468
f 528 555 610
f 528 610 612
f 576 577 614
f 576 614 613
f 578 575 616
f 578 616 615
f 617 618 550
f 617 550 554
f 618 619 549
f 618 549 550
f 575 158 157
f 575 157 616
f 622 551 549
f 622 549 619
f 160 576 625
f 160 625 161
f 576 160 158
f 576 158 575
f 582 627 626
f 582 626 581
f 580 581 166
f 580 166 165
f 485 630 608
f 485 608 487
f 630 485 632
f 630 632 631
f 631 634 633
f 631 633 630
f 630 633 522
f 630 522 608
f 165 173 635
f 165 635 580
f 173 175 637
f 173 637 635
f 639 640 631
f 639 631 632
f 634 631 640
f 634 640 641
f 175 180 642
f 175 642 637
f 161 625 642
f 161 642 180
f 639 645 644
f 639 644 640
f 641 640 644
f 641 644 646
f 184 650 649
f 184 649 185
f 188 652 650
f 188 650 184
f 469 470 521
f 469 521 518
f 526 520 466
f 526 466 653
f 654 655 520
f 654 520 521
f 655 465 466
f 655 466 520
f 652 589 656
f 652 656 650
f 653 466 467
f 653 467 495
f 649 650 656
f 649 656 657
f 482 659 658
f 482 658 584
f 659 563 561
f 659 561 658
f 660 585 586
f 660 586 661
f 526 663 662
f 526 662 525
f 526 653 664
f 526 664 663
f 664 516 517
f 664 517 663
f 663 517 665
f 663 665 662
f 660 661 667
f 660 667 666
f 667 669 668
f 667 668 666
f 516 664 670
f 516 670 493
f 653 495 670
f 653 670 664
f 671 672 669
f 671 669 667
f 673 671 667
f 673 667 661
f 506 488 489
f 506 489 508
f 517 489 674
f 517 674 665
f 675 586 587
f 675 587 676
f 516 493 494
f 516 494 508
f 673 661 586
f 673 586 675
f 574 654 521
f 574 521 470
f 576 677 642
f 576 642 625
f 637 642 677
f 637 677 678
f 518 519 680
f 518 680 679
f 679 681 469
f 679 469 518
f 580 635 682
f 580 682 579
f 682 635 637
f 682 637 678
f 683 682 678
f 683 678 684
f 576 613 685
f 576 685 677
f 686 689 688
f 686 688 687
f 690 691 687
f 690 687 688
f 692 587 588
f 692 588 693
f 694 676 587
f 694 587 692
f 684 678 677
f 684 677 685
f 616 157 233
f 616 233 695
f 691 690 697
f 691 697 484
f 693 588 585
f 693 585 698
f 695 699 615
f 695 615 616
f 491 492 467
f 491 467 1
f 578 615 699
f 578 699 700
f 699 702 701
f 699 701 700
f 703 704 700
f 703 700 701
f 670 706 705
f 670 705 493
f 493 705 707
f 493 707 476
f 507 494 477
f 507 477 708
f 709 710 704
f 709 704 703
f 496 492 478
f 496 478 475
f 710 578 700
f 710 700 704
f 711 577 578
f 711 578 710
f 712 711 710
f 712 710 709
f 713 685 613
f 713 613 614
f 495 496 715
f 495 715 714
f 714 715 600
f 714 600 716
f 496 475 717
f 496 717 715
f 715 717 603
f 715 603 600
f 577 711 713
f 577 713 614
f 255 719 695
f 255 695 233
f 706 720 601
f 706 601 705
f 705 601 602
f 705 602 707
f 674 489 474
f 674 474 611
f 702 699 695
f 702 695 719
f 721 674 611
f 721 611 722
f 722 607 523
f 722 523 721
f 674 721 723
f 674 723 665
f 523 500 723
f 523 723 721
f 724 725 702
f 724 702 719
f 726 683 684
f 726 684 727
f 727 684 685
f 727 685 713
f 727 713 711
f 727 711 712
f 728 727 712
f 728 712 729
f 708 477 478
f 708 478 490
f 730 729 712
f 730 712 709
f 707 717 475
f 707 475 476
f 268 724 719
f 268 719 255
f 717 707 602
f 717 602 603
f 269 733 724
f 269 724 268
f 734 725 724
f 734 724 733
f 733 269 273
f 733 273 735
f 734 733 735
f 734 735 737
f 497 501 738
f 497 738 686
f 686 738 739
f 686 739 689
f 740 738 501
f 740 501 515
f 738 740 741
f 738 741 739
f 737 735 743
f 737 743 742
f 495 714 706
f 495 706 670
f 735 273 281
f 735 281 743
f 714 716 720
f 714 720 706
f 745 743 281
f 745 281 283
f 743 745 747
f 743 747 742
f 745 283 749
f 745 749 748
f 519 525 750
f 519 750 680
f 686 687 680
f 686 680 750
f 687 691 679
f 687 679 680
f 649 752 288
f 649 288 185
f 749 288 752
f 749 752 748
f 525 662 753
f 525 753 750
f 753 662 665
f 753 665 723
f 657 754 752
f 657 752 649
f 748 755 747
f 748 747 745
f 686 750 753
f 686 753 497
f 497 753 723
f 497 723 500
f 748 752 754
f 748 754 755
f 694 756 675
f 694 675 676
f 754 657 758
f 754 758 757
f 756 759 673
f 756 673 675
f 589 652 760
f 589 760 592
f 652 188 298
f 652 298 760
f 589 590 763
f 589 763 762
f 589 762 764
f 589 764 656
f 480 766 765
f 480 765 479
f 767 660 666
f 767 666 768
f 484 697 766
f 484 766 480
f 698 585 660
f 698 660 767
f 769 770 758
f 769 758 657
f 657 656 764
f 657 764 769
f 755 754 757
f 755 757 771
f 772 771 757
f 772 757 758
f 773 741 740
f 773 740 774
f 759 775 671
f 759 671 673
f 774 777 776
f 774 776 773
f 778 672 671
f 778 671 775
f 779 772 758
f 779 758 770
f 103 567 760
f 103 760 298
f 774 740 515
f 774 515 535
f 535 547 777
f 535 777 774
f 780 592 760
f 780 760 567
f 781 591 592
f 781 592 780
f 777 782 512
f 777 512 776
f 509 669 672
f 509 672 778
f 783 590 591
f 783 591 781
f 782 777 547
f 782 547 563
f 784 783 781
f 784 781 785
f 590 783 786
f 590 786 763
f 784 787 786
f 784 786 783
f 786 788 762
f 786 762 763
f 511 789 479
f 511 479 765
f 512 782 789
f 512 789 511
f 509 510 668
f 509 668 669
f 510 768 666
f 510 666 668
f 788 790 764
f 788 764 762
f 791 779 770
f 791 770 769
f 782 563 659
f 782 659 789
f 789 659 482
f 789 482 479
f 790 791 769
f 790 769 764
f 792 790 788
f 792 788 793
f 691 794 681
f 691 681 679
f 691 484 483
f 691 483 794
f 787 793 788
f 787 788 786
f 792 793 796
f 792 796 795
f 606 797 681
f 606 681 794
f 681 797 468
f 681 468 469
f 793 787 798
f 793 798 796
f 794 483 487
f 794 487 606
f 799 780 567
f 799 567 564
f 797 722 611
f 797 611 468
f 785 781 780
f 785 780 799
f 607 722 797
f 607 797 606
f 341 801 564
f 341 564 102
f 522 523 607
f 522 607 608
f 801 802 799
f 801 799 564
f 633 803 524
f 633 524 522
f 804 785 799
f 804 799 802
f 803 532 534
f 803 534 524
f 784 805 798
f 784 798 787
f 531 806 595
f 531 595 533
f 805 784 785
f 805 785 804
f 634 726 803
f 634 803 633
f 581 626 348
f 581 348 166
f 626 809 349
f 626 349 348
f 803 810 530
f 803 530 532
f 531 527 811
f 531 811 806
f 809 801 341
f 809 341 349
f 812 802 801
f 812 801 809
f 809 626 627
f 809 627 812
f 803 726 813
f 803 813 810
f 810 554 529
f 810 529 530
f 554 810 813
f 554 813 617
f 644 627 582
f 644 582 646
f 527 528 612
f 527 612 811
f 804 802 812
f 804 812 645
f 726 634 641
f 726 641 683
f 627 644 645
f 627 645 812
f 814 701 702
f 814 702 725
f 641 579 682
f 641 682 683
f 641 646 582
f 641 582 579
f 815 814 725
f 815 725 734
f 816 730 709
f 816 709 703
f 727 728 813
f 727 813 726
f 617 813 728
f 617 728 817
f 816 703 701
f 816 701 814
f 818 730 816
f 818 816 819
f 820 605 594
f 820 594 595
f 595 806 811
f 595 811 820
f 814 815 821
f 814 821 816
f 610 820 811
f 610 811 612
f 822 819 816
f 822 816 821
f 610 609 605
f 610 605 820
f 823 822 821
f 823 821 824
f 609 604 599
f 609 599 605
f 825 826 819
f 825 819 822
f 560 827 562
f 560 562 559
f 737 828 815
f 737 815 734
f 824 821 815
f 824 815 828
f 617 830 829
f 617 829 618
f 617 817 831
f 617 831 830
f 832 747 755
f 832 755 771
f 618 829 833
f 618 833 619
f 742 834 828
f 742 828 737
f 747 832 834
f 747 834 742
f 828 834 835
f 828 835 824
f 771 772 836
f 771 836 832
f 833 837 622
f 833 622 619
f 551 622 838
f 551 838 560
f 839 622 837
f 839 837 840
f 622 839 841
f 622 841 838
f 834 832 836
f 834 836 835
f 824 835 842
f 824 842 823
f 843 833 829
f 843 829 844
f 830 845 844
f 830 844 829
f 836 772 779
f 836 779 846
f 846 842 835
f 846 835 836
f 833 848 847
f 833 847 837
f 833 843 849
f 833 849 848
f 822 823 850
f 822 850 825
f 851 850 823
f 851 823 842
f 798 853 852
f 798 852 796
f 840 837 847
f 840 847 854
f 839 840 856
f 839 856 855
f 854 857 856
f 854 856 840
f 639 805 804
f 639 804 645
f 639 853 798
f 639 798 805
f 838 858 827
f 838 827 560
f 858 838 841
f 858 841 859
f 796 852 860
f 796 860 795
f 861 791 790
f 861 790 792
f 862 841 839
f 862 839 855
f 841 862 863
f 841 863 859
f 861 846 779
f 861 779 791
f 845 830 831
f 845 831 864
f 851 842 846
f 851 846 861
f 792 795 865
f 792 865 861
f 817 867 866
f 817 866 831
f 729 867 817
f 729 817 728
f 861 865 868
f 861 868 851
f 831 866 869
f 831 869 864
f 795 860 870
f 795 870 865
f 871 870 860
f 871 860 872
f 867 818 873
f 867 873 866
f 873 874 869
f 873 869 866
f 871 868 865
f 871 865 870
f 730 818 867
f 730 867 729
f 872 876 875
f 872 875 871
f 877 878 852
f 877 852 853
f 818 880 879
f 818 879 873
f 873 879 881
f 873 881 874
f 852 878 872
f 852 872 860
f 882 876 872
f 882 872 878
f 883 877 853
f 883 853 639
f 878 877 884
f 878 884 882
f 885 886 879
f 885 879 880
f 808 807 879
f 808 879 886
f 800 761 886
f 800 886 885
f 886 761 751
f 886 751 808
f 877 883 746
f 877 746 884
f 864 884 746
f 864 746 845
f 744 885 880
f 744 880 826
f 736 800 885
f 736 885 744
f 882 884 864
f 882 864 869
f 869 874 876
f 869 876 882
f 800 731 732
f 800 732 761
f 761 732 718
f 761 718 751
f 874 881 875
f 874 875 876
f 696 825 850
f 696 850 571
f 731 855 856
f 731 856 732
f 732 856 857
f 732 857 718
f 851 570 571
f 851 571 850
f 851 868 651
f 851 651 570
f 648 647 731
f 648 731 800
f 731 647 862
f 731 862 855
f 643 638 598
f 643 598 596
f 647 636 863
f 647 863 862
f 596 572 573
f 596 573 629
f 647 648 628
f 647 628 636
f 596 629 624
f 596 624 643
f 871 875 881
f 871 881 623
f 800 736 621
f 800 621 648
f 621 620 628
f 621 628 648
f 623 651 868
f 623 868 871
f 566 629 573
f 566 573 569
f 565 736 744
f 565 744 696
f 826 825 696
f 826 696 744
f 566 569 570
f 566 570 651
f 736 565 464
f 736 464 621
f 651 623 807
f 651 807 566
f 286 620 621
f 286 621 464
f 566 245 624
f 566 624 629
f 808 245 566
f 808 566 807
f 818 819 826
f 818 826 880
f 807 623 881
f 807 881 879
f 485 486 192
f 485 192 632
f 601 720 716
f 601 716 600
f 639 632 192
f 639 192 883
f 192 191 746
f 192 746 883
f 562 111 658
f 562 658 561
f 827 44 111
f 827 111 562
f 486 583 191
f 486 191 192
f 827 858 43
f 827 43 44
f 849 843 583
f 849 583 584
f 858 859 28
f 858 28 43
f 844 845 746
f 844 746 191
f 843 844 191
f 843 191 583
f 636 25 27
f 636 27 863
f 628 10 25
f 628 25 636
f 111 849 584
f 111 584 658
f 620 9 10
f 620 10 628
f 849 111 44
f 849 44 848
f 286 2 9
f 286 9 620
f 245 2 643
f 245 643 624
f 808 9 2
f 808 2 245
f 9 808 751
f 9 751 10
f 565 597 598
f 565 598 464
f 565 696 571
f 565 571 568
f 568 572 597
f 568 597 565
f 10 751 718
f 10 718 25
f 598 638 286
f 598 286 464
f 25 718 857
f 25 857 27
f 2 286 638
f 2 638 643
f 28 27 857
f 28 857 854
f 859 863 27
f 859 27 28
f 44 43 847
f 44 847 848
f 43 28 854
f 43 854 847
f 692 688 689
f 692 689 694
f 693 690 688
f 693 688 692
f 698 697 690
f 698 690 693
f 694 689 739
f 694 739 756
f 756 739 741
f 756 741 759
f 768 765 766
f 768 766 767
f 767 766 697
f 767 697 698
f 759 741 773
f 759 773 775
f 775 773 776
f 775 776 778
f 778 776 512
f 778 512 509
f 510 511 765
f 510 765 768
