# C4 posed
v -0.674118 -0.059047 0.485801
v -0.675142 -0.058452 0.480187
v -0.674475 -0.059056 0.480292
v -0.673714 -0.059879 0.485721
v -0.674533 -0.060099 0.465754
v -0.677809 -0.061068 0.466095
v -0.678289 -0.059596 0.466349
v -0.675094 -0.058478 0.465968
v -0.676019 -0.056448 0.466531
v -0.674710 -0.056798 0.471275
v -0.673833 -0.058498 0.470860
v -0.666913 -0.058455 0.490965
v -0.665434 -0.058358 0.489207
v -0.666101 -0.057543 0.489047
v -0.667449 -0.058005 0.490592
v -0.672705 -0.074176 0.452237
v -0.674748 -0.071697 0.454678
v -0.671954 -0.070205 0.454956
v -0.669543 -0.072427 0.451942
v -0.673909 -0.067574 0.458349
v -0.676399 -0.070316 0.458683
v -0.668543 -0.068020 0.455664
v -0.668465 -0.070747 0.451881
v -0.670057 -0.066017 0.459250
v -0.666484 -0.055090 0.477950
v -0.666257 -0.056681 0.476975
v -0.667672 -0.057620 0.490507
v -0.671414 -0.058643 0.488926
v -0.671157 -0.059216 0.489004
v -0.667057 -0.060169 0.485929
v -0.666198 -0.057825 0.486591
v -0.672959 -0.061260 0.485887
v -0.670401 -0.059927 0.489573
v -0.667793 -0.069398 0.465427
v -0.664569 -0.070186 0.465343
v -0.663619 -0.067168 0.464813
v -0.663602 -0.065626 0.466969
v -0.668124 -0.075095 0.463345
v -0.664969 -0.075225 0.463799
v -0.660829 -0.074813 0.465395
v -0.661115 -0.070105 0.466474
v -0.662208 -0.067478 0.464210
v -0.681594 -0.031132 0.453056
v -0.666374 -0.056555 0.486848
v -0.666495 -0.057253 0.482985
v -0.666593 -0.074643 0.445707
v -0.664943 -0.073914 0.446826
v -0.663930 -0.073903 0.447437
v -0.663097 -0.074129 0.448111
v -0.664647 -0.077946 0.460875
v -0.661619 -0.077831 0.461670
v -0.667620 -0.078402 0.460896
v -0.667264 -0.059228 0.482327
v -0.666213 -0.058854 0.477644
v -0.677594 -0.061252 0.468778
v -0.676516 -0.062282 0.470437
v -0.676024 -0.058754 0.474442
v -0.677842 -0.059292 0.469683
v -0.664700 -0.067075 0.461267
v -0.664538 -0.064977 0.464988
v -0.663430 -0.067272 0.461437
v -0.673016 -0.062284 0.471712
v -0.673500 -0.059078 0.475779
v -0.661633 -0.070482 0.458317
v -0.661129 -0.072569 0.457190
v -0.661365 -0.072153 0.456129
v -0.661764 -0.069236 0.457240
v -0.662098 -0.069248 0.459577
v -0.662554 -0.067979 0.459072
v -0.661994 -0.068713 0.461070
v -0.662358 -0.067671 0.461329
v -0.667194 -0.078782 0.457440
v -0.664607 -0.078266 0.458093
v -0.662202 -0.077664 0.458428
v -0.664139 -0.076491 0.454825
v -0.662982 -0.076377 0.455362
v -0.661889 -0.075704 0.455946
v -0.661304 -0.068992 0.462684
v -0.661335 -0.068032 0.463542
v -0.660224 -0.070454 0.464256
v -0.659640 -0.069957 0.466128
v -0.659332 -0.073502 0.464013
v -0.658933 -0.074087 0.465693
v -0.667166 -0.078070 0.454413
v -0.663864 -0.077171 0.453422
v -0.662492 -0.074253 0.453684
v -0.662250 -0.073265 0.454281
v -0.662443 -0.075624 0.453207
v -0.659599 -0.075995 0.461332
v -0.659599 -0.077269 0.461942
v -0.661862 -0.071672 0.454999
v -0.661024 -0.075094 0.457129
v -0.661432 -0.075456 0.456467
v -0.660442 -0.076202 0.458832
v -0.660807 -0.077148 0.458640
v -0.661906 -0.078856 0.451628
v -0.660730 -0.077998 0.451400
v -0.665083 -0.077137 0.451864
v -0.662586 -0.078959 0.450692
v -0.667382 -0.077343 0.452635
v -0.677058 -0.057858 0.452895
v -0.679733 -0.031012 0.454072
v -0.678862 -0.030591 0.454753
v -0.677276 -0.057357 0.451531
v -0.667206 -0.070539 0.443304
v -0.668014 -0.070257 0.443443
v -0.668061 -0.068430 0.442726
v -0.666860 -0.068279 0.442813
v -0.668025 -0.072047 0.442101
v -0.668528 -0.071612 0.442924
v -0.679069 -0.057523 0.466671
v -0.661881 -0.051502 0.447073
v -0.662552 -0.053251 0.449778
v -0.661332 -0.055164 0.448294
v -0.661672 -0.054342 0.446129
v -0.666066 -0.058106 0.454606
v -0.665351 -0.054693 0.456407
v -0.667010 -0.055236 0.455831
v -0.667440 -0.058547 0.454102
v -0.665443 -0.072023 0.451665
v -0.665570 -0.073345 0.451775
v -0.676428 -0.074811 0.458057
v -0.675623 -0.075851 0.458951
v -0.675781 -0.075068 0.460170
v -0.676365 -0.074428 0.459337
v -0.673946 -0.058662 0.446880
v -0.674434 -0.060883 0.447698
v -0.674928 -0.060252 0.448829
v -0.675263 -0.058724 0.449485
v -0.660604 -0.070935 0.462934
v -0.661161 -0.070296 0.461826
v -0.661687 -0.069991 0.460592
v -0.668977 -0.074307 0.442209
v -0.667341 -0.072963 0.442336
v -0.667546 -0.074799 0.442417
v -0.660156 -0.072930 0.462203
v -0.666178 -0.060388 0.491968
v -0.665160 -0.061087 0.489735
v -0.664272 -0.059723 0.490162
v -0.665166 -0.059230 0.491871
v -0.660090 -0.074831 0.460905
v -0.660816 -0.072350 0.460752
v -0.671407 -0.064623 0.461929
v -0.668508 -0.066180 0.464176
v -0.667822 -0.067554 0.460601
v -0.660631 -0.074646 0.459475
v -0.660974 -0.073818 0.458283
v -0.672427 -0.060665 0.470563
v -0.661198 -0.072574 0.458043
v -0.661546 -0.055508 0.450220
v -0.661148 -0.055887 0.449512
v -0.660916 -0.052140 0.444621
v -0.661398 -0.050410 0.445027
v -0.662806 -0.068918 0.452956
v -0.662236 -0.071056 0.453266
v -0.662138 -0.072664 0.452833
v -0.678269 -0.030121 0.455544
v -0.677778 -0.029650 0.456677
v -0.661413 -0.073964 0.452356
v -0.678075 -0.029075 0.457856
v -0.678626 -0.028726 0.458582
v -0.663288 -0.051906 0.451849
v -0.669278 -0.055934 0.455231
v -0.668936 -0.059163 0.453679
v -0.666284 -0.051534 0.457310
v -0.679191 -0.028689 0.458987
v -0.667271 -0.066523 0.457317
v -0.667175 -0.065262 0.454337
v -0.668542 -0.067528 0.452878
v -0.665750 -0.066420 0.457711
v -0.665964 -0.064384 0.454897
v -0.663947 -0.054013 0.456604
v -0.679938 -0.029219 0.459233
v -0.662815 -0.053135 0.455718
v -0.677764 -0.035203 0.457043
v -0.669876 -0.066484 0.449242
v -0.667187 -0.063836 0.452263
v -0.666420 -0.061893 0.453512
v -0.662526 -0.052439 0.453882
v -0.679073 -0.037419 0.456701
v -0.668342 -0.062349 0.452150
v -0.670519 -0.063286 0.451151
v -0.667420 -0.061129 0.452977
v -0.680389 -0.032618 0.452934
v -0.682092 -0.030345 0.452410
v -0.674282 -0.054188 0.441246
v -0.673621 -0.055081 0.444954
v -0.681491 -0.030618 0.451286
v -0.674449 -0.055980 0.448221
v -0.673408 -0.060093 0.480529
v -0.678491 -0.057889 0.470015
v -0.676274 -0.057915 0.474692
v -0.673771 -0.058158 0.443900
v -0.673928 -0.056866 0.440986
v -0.665626 -0.075150 0.451685
v -0.668362 -0.075410 0.451713
v -0.676620 -0.075483 0.456327
v -0.675666 -0.076745 0.457498
v -0.668807 -0.061887 0.472875
v -0.669757 -0.059823 0.477056
v -0.670779 -0.060919 0.481325
v -0.664860 -0.060563 0.473754
v -0.676799 -0.076405 0.454790
v -0.675869 -0.077681 0.456077
v -0.676778 -0.077510 0.453944
v -0.676115 -0.078713 0.454896
v -0.670102 -0.061716 0.485436
v -0.675377 -0.079357 0.457248
v -0.675767 -0.079896 0.455943
v -0.675017 -0.078248 0.458955
v -0.665258 -0.059142 0.472710
v -0.675032 -0.076932 0.460383
v -0.675286 -0.075879 0.461068
v -0.662414 -0.054969 0.452862
v -0.662601 -0.055797 0.454898
v -0.677006 -0.066105 0.465884
v -0.676215 -0.066976 0.467053
v -0.676579 -0.063742 0.463779
v -0.664176 -0.057074 0.455330
v -0.664460 -0.060249 0.454170
v -0.661835 -0.058056 0.453263
v -0.661757 -0.056786 0.451617
v -0.671751 -0.070980 0.464691
v -0.675544 -0.070413 0.464485
v -0.675607 -0.072771 0.462525
v -0.673709 -0.074223 0.463370
v -0.677039 -0.071918 0.460820
v -0.676548 -0.069430 0.463193
v -0.675870 -0.074185 0.461357
v -0.676819 -0.073516 0.459821
v -0.674756 -0.075475 0.462426
v -0.660898 -0.049871 0.442916
v -0.679949 -0.032328 0.450496
v -0.677268 -0.071976 0.457958
v -0.677268 -0.073633 0.457720
v -0.660016 -0.052041 0.442991
v -0.659953 -0.054202 0.443864
v -0.657918 -0.054916 0.442198
v -0.658154 -0.052666 0.441569
v -0.658148 -0.056964 0.443648
v -0.660480 -0.055947 0.444867
v -0.665835 -0.061203 0.488628
v -0.667996 -0.062518 0.488673
v -0.664522 -0.059183 0.489712
v -0.666441 -0.056950 0.489053
v -0.658634 -0.058637 0.445803
v -0.660635 -0.056647 0.446478
v -0.660277 -0.057191 0.448402
v -0.659225 -0.059834 0.448284
v -0.660838 -0.057569 0.450218
v -0.669147 -0.062065 0.489942
v -0.668201 -0.060380 0.491199
v -0.666762 -0.061602 0.491279
v -0.665938 -0.058699 0.491560
v -0.679675 -0.034217 0.451237
v -0.658623 -0.049764 0.441532
v -0.666210 -0.061922 0.490120
v -0.664294 -0.062319 0.468660
v -0.670400 -0.063978 0.467549
v -0.664047 -0.063645 0.469817
v -0.657902 -0.049906 0.439827
v -0.657545 -0.053110 0.440096
v -0.664281 -0.063485 0.454968
v -0.660130 -0.060270 0.451659
v -0.662050 -0.064273 0.451096
v -0.660583 -0.062438 0.448287
v -0.659437 -0.060498 0.445215
v -0.680224 -0.030276 0.453463
v -0.679849 -0.030517 0.452476
v -0.659015 -0.050323 0.438215
v -0.658935 -0.053724 0.438684
v -0.662839 -0.050587 0.438449
v -0.677188 -0.036062 0.450064
v -0.662617 -0.053662 0.438481
v -0.670380 -0.075686 0.463233
v -0.672664 -0.077085 0.463059
v -0.670445 -0.078812 0.461135
v -0.672825 -0.079549 0.461328
v -0.666566 -0.053698 0.437855
v -0.667017 -0.051025 0.438087
v -0.682360 -0.032495 0.451803
v -0.671154 -0.052170 0.436663
v -0.679143 -0.029907 0.454028
v -0.670643 -0.054379 0.436492
v -0.674748 -0.052984 0.435815
v -0.682180 -0.033409 0.450568
v -0.672681 -0.066508 0.467925
v -0.678287 -0.029129 0.454994
v -0.675667 -0.053452 0.437846
v -0.668248 -0.065463 0.468938
v -0.675054 -0.055174 0.437935
v -0.674101 -0.054939 0.435840
v -0.674268 -0.077656 0.462301
v -0.674641 -0.056779 0.437894
v -0.674254 -0.058122 0.438647
v -0.674415 -0.079643 0.460680
v -0.676129 -0.056576 0.450188
v -0.683194 -0.030552 0.451335
v -0.674205 -0.061364 0.444677
v -0.674213 -0.061599 0.446244
v -0.673841 -0.061016 0.442497
v -0.676010 -0.074895 0.452488
v -0.676870 -0.072996 0.454620
v -0.677579 -0.074313 0.455265
v -0.677702 -0.075498 0.453218
v -0.673847 -0.060197 0.440772
v -0.673982 -0.059576 0.439296
v -0.673722 -0.057117 0.436099
v -0.673329 -0.059344 0.436669
v -0.673199 -0.080564 0.458519
v -0.670921 -0.079642 0.458016
v -0.674891 -0.080692 0.458282
v -0.673457 -0.080388 0.455867
v -0.670516 -0.079020 0.455445
v -0.675558 -0.080799 0.455960
v -0.673316 -0.061234 0.438008
v -0.676249 -0.059853 0.450723
v -0.675366 -0.061927 0.449554
v -0.673766 -0.079487 0.453790
v -0.670603 -0.078214 0.453479
v -0.676258 -0.079856 0.453934
v -0.674604 -0.063144 0.448014
v -0.674205 -0.065100 0.448825
v -0.675177 -0.063582 0.450566
v -0.674310 -0.063574 0.446076
v -0.674008 -0.065701 0.446482
v -0.674056 -0.063486 0.444034
v -0.674871 -0.077476 0.452398
v -0.671552 -0.076672 0.452302
v -0.677153 -0.077759 0.452738
v -0.673593 -0.063076 0.441588
v -0.673454 -0.062512 0.439625
v -0.672383 -0.064818 0.441928
v -0.673457 -0.065363 0.444182
v -0.675744 -0.066411 0.461218
v -0.671358 -0.065646 0.443425
v -0.672096 -0.066145 0.445120
v -0.672736 -0.062981 0.464999
v -0.672616 -0.066618 0.446971
v -0.676003 -0.060815 0.451837
v -0.683171 -0.031385 0.451742
v -0.675369 -0.057479 0.453673
v -0.674289 -0.060553 0.452405
v -0.663983 -0.066154 0.457956
v -0.673288 -0.063858 0.450883
v -0.672638 -0.066113 0.448994
v -0.661873 -0.070010 0.459730
v -0.677200 -0.029203 0.454540
v -0.678695 -0.030150 0.453185
v -0.672503 -0.056799 0.454496
v -0.662557 -0.067510 0.455536
v -0.661589 -0.071145 0.458942
v -0.671211 -0.059800 0.453099
v -0.662457 -0.065718 0.453311
v -0.658187 -0.055823 0.440750
v -0.659829 -0.056510 0.439682
v -0.659518 -0.058493 0.442163
v -0.662744 -0.066371 0.450526
v -0.661332 -0.063186 0.445733
v -0.661443 -0.061128 0.442466
v -0.661341 -0.071739 0.459646
v -0.661401 -0.058995 0.440596
v -0.663173 -0.061787 0.440864
v -0.665738 -0.062373 0.439726
v -0.664477 -0.059281 0.439193
v -0.664304 -0.064903 0.441885
v -0.662599 -0.063963 0.442795
v -0.661396 -0.078575 0.450267
v -0.662969 -0.056494 0.439010
v -0.663264 -0.070322 0.451686
v -0.664007 -0.068533 0.450795
v -0.664172 -0.067249 0.449531
v -0.670049 -0.056882 0.436601
v -0.662861 -0.072073 0.451875
v -0.666380 -0.056385 0.437990
v -0.667371 -0.059479 0.438023
v -0.670247 -0.059548 0.436876
v -0.662062 -0.073020 0.451775
v -0.660109 -0.076854 0.450845
v -0.660128 -0.074147 0.451087
v -0.661003 -0.072905 0.450972
v -0.660018 -0.076145 0.449946
v -0.668325 -0.062606 0.438846
v -0.664029 -0.072667 0.451471
v -0.664230 -0.070803 0.451111
v -0.664829 -0.068928 0.450187
v -0.670855 -0.062196 0.438182
v -0.662578 -0.074309 0.451183
v -0.663102 -0.074489 0.451387
v -0.663860 -0.074511 0.451557
v -0.666626 -0.065520 0.441319
v -0.668940 -0.066148 0.441378
v -0.670377 -0.066302 0.445451
v -0.670259 -0.066644 0.447043
v -0.662109 -0.073877 0.450588
v -0.660293 -0.073269 0.449600
v -0.661187 -0.072178 0.449987
v -0.662385 -0.073087 0.449671
v -0.661233 -0.077644 0.449967
v -0.661362 -0.076769 0.449401
v -0.670192 -0.066058 0.444279
v -0.670716 -0.064523 0.440469
v -0.660455 -0.074953 0.448656
v -0.661667 -0.075577 0.448403
v -0.665037 -0.067495 0.448855
v -0.670321 -0.065783 0.442262
v -0.663969 -0.066070 0.447905
v -0.662595 -0.064773 0.448180
v -0.669062 -0.066797 0.442613
v -0.664815 -0.066416 0.447580
v -0.669936 -0.066061 0.443363
v -0.668181 -0.066500 0.443944
v -0.668586 -0.066316 0.444833
v -0.663520 -0.065329 0.446573
v -0.664715 -0.065856 0.446557
v -0.666286 -0.066320 0.445127
v -0.666211 -0.066273 0.445819
v -0.668174 -0.067145 0.447371
v -0.668570 -0.066567 0.445851
v -0.664083 -0.066343 0.445524
v -0.662601 -0.064888 0.444427
v -0.665261 -0.066297 0.445447
v -0.666152 -0.066684 0.446829
v -0.667829 -0.067952 0.449144
v -0.666099 -0.067581 0.448136
v -0.662460 -0.067510 0.445087
v -0.663193 -0.068115 0.446303
v -0.664251 -0.071282 0.447357
v -0.665350 -0.069257 0.445863
v -0.662362 -0.070481 0.445802
v -0.662340 -0.069682 0.447380
v -0.663688 -0.072014 0.448126
v -0.665971 -0.068838 0.449649
v -0.663683 -0.067968 0.444128
v -0.664485 -0.071312 0.444836
v -0.661771 -0.070998 0.448660
v -0.661316 -0.071868 0.447647
v -0.663067 -0.072470 0.448811
v -0.665343 -0.068491 0.443627
v -0.667806 -0.068503 0.443690
v -0.663691 -0.073669 0.445834
v -0.661799 -0.073873 0.446995
v -0.668129 -0.075016 0.444372
v -0.667688 -0.075530 0.443738
v -0.662571 -0.074715 0.447294
v -0.668679 -0.072571 0.443953
v -0.663816 -0.074367 0.446518
v -0.668146 -0.073722 0.444839
v -0.666366 -0.067451 0.444762
v -0.664899 -0.073881 0.445151
v -0.664951 -0.074576 0.445981
v -0.667111 -0.070662 0.445081
v -0.666268 -0.072012 0.443793
v -0.666382 -0.074442 0.443883
v -0.666580 -0.075337 0.444811
v -0.666543 -0.072780 0.446150
v -0.668002 -0.069530 0.451277
v -0.665598 -0.070491 0.451083
v -0.663504 -0.076889 0.451181
v -0.662618 -0.076761 0.450868
v -0.662234 -0.076274 0.450551
v -0.662080 -0.075470 0.450020
v -0.662310 -0.074518 0.449099
v -0.679071 -0.035830 0.449209
v -0.677117 -0.034340 0.449396
v -0.674966 -0.057633 0.480532
v -0.674305 -0.058163 0.486010
v -0.677114 -0.052614 0.467018
v -0.680259 -0.053963 0.467295
v -0.679729 -0.055419 0.467055
v -0.676562 -0.054218 0.466688
v -0.677177 -0.031542 0.455724
v -0.675545 -0.030594 0.454619
v -0.675078 -0.054886 0.471470
v -0.667525 -0.056678 0.491265
v -0.666473 -0.055345 0.489716
v -0.666528 -0.056304 0.489256
v -0.667717 -0.057225 0.490724
v -0.685496 -0.037075 0.458503
v -0.685378 -0.040863 0.459886
v -0.682238 -0.040375 0.459995
v -0.681968 -0.036388 0.458030
v -0.681863 -0.044503 0.462246
v -0.685451 -0.044061 0.463118
v -0.678149 -0.040157 0.460370
v -0.680110 -0.036970 0.457586
v -0.677781 -0.043611 0.463034
v -0.675280 -0.031812 0.455278
v -0.667359 -0.053484 0.477515
v -0.678009 -0.032084 0.451462
v -0.675435 -0.033878 0.449886
v -0.671546 -0.058086 0.489195
v -0.669181 -0.054009 0.486970
v -0.667024 -0.055430 0.486995
v -0.674519 -0.056733 0.486652
v -0.671317 -0.057271 0.490022
v -0.677392 -0.041557 0.470130
v -0.675317 -0.039008 0.470609
v -0.672804 -0.040525 0.469313
v -0.671645 -0.042295 0.470910
v -0.681288 -0.036909 0.469794
v -0.678820 -0.035050 0.470585
v -0.675128 -0.033339 0.472400
v -0.672416 -0.037327 0.472010
v -0.671933 -0.039269 0.468975
v -0.666826 -0.056118 0.483339
v -0.677211 -0.036232 0.455156
v -0.667282 -0.054971 0.483370
v -0.691554 -0.035489 0.461429
v -0.691125 -0.037232 0.459583
v -0.689180 -0.035971 0.459408
v -0.689371 -0.034223 0.461435
v -0.680496 -0.031975 0.468640
v -0.677946 -0.030474 0.469669
v -0.683125 -0.033428 0.468492
v -0.669145 -0.053772 0.483249
v -0.668563 -0.052040 0.478795
v -0.679926 -0.054486 0.469921
v -0.679522 -0.053562 0.471910
v -0.676606 -0.057067 0.474727
v -0.678854 -0.056359 0.470179
v -0.673965 -0.040199 0.465806
v -0.672199 -0.042757 0.468741
v -0.673060 -0.039340 0.466155
v -0.676620 -0.051833 0.473477
v -0.674664 -0.055703 0.476349
v -0.673881 -0.034957 0.464318
v -0.674850 -0.032771 0.463912
v -0.674895 -0.032909 0.462758
v -0.673345 -0.035644 0.462914
v -0.673380 -0.036523 0.465105
v -0.673031 -0.037592 0.464205
v -0.672825 -0.037298 0.466376
v -0.672461 -0.038367 0.466279
v -0.683367 -0.031872 0.465364
v -0.680938 -0.030893 0.466094
v -0.678637 -0.029994 0.466480
v -0.679833 -0.030969 0.462515
v -0.678792 -0.030516 0.463109
v -0.677462 -0.030531 0.463576
v -0.672281 -0.037151 0.468062
v -0.671641 -0.038136 0.468592
v -0.672144 -0.035879 0.470096
v -0.671192 -0.036448 0.471787
v -0.673293 -0.033006 0.470853
v -0.673157 -0.032826 0.472663
v -0.683223 -0.031493 0.462280
v -0.680166 -0.029885 0.461409
v -0.677299 -0.031306 0.460938
v -0.676452 -0.032070 0.461239
v -0.678131 -0.030117 0.460893
v -0.675275 -0.030526 0.469012
v -0.675979 -0.029758 0.469967
v -0.675114 -0.033233 0.461492
v -0.676290 -0.030813 0.464608
v -0.676898 -0.030594 0.464044
v -0.676322 -0.030142 0.466612
v -0.677199 -0.029602 0.466671
v -0.679809 -0.026928 0.460399
v -0.678384 -0.026792 0.460050
v -0.681271 -0.030184 0.459795
v -0.680504 -0.026984 0.459471
v -0.683138 -0.031640 0.460354
v -0.679074 -0.052011 0.453883
v -0.678177 -0.055030 0.453732
v -0.678400 -0.054829 0.452084
v -0.679085 -0.052112 0.452417
v -0.679857 -0.033843 0.449502
v -0.680315 -0.034578 0.449469
v -0.679326 -0.035754 0.448246
v -0.678275 -0.035170 0.448406
v -0.681535 -0.032861 0.448720
v -0.681589 -0.033728 0.449323
v -0.677465 -0.032052 0.454876
v -0.663813 -0.045899 0.448020
v -0.665121 -0.045799 0.451037
v -0.665454 -0.043207 0.450313
v -0.665449 -0.043385 0.447980
v -0.670334 -0.045724 0.456697
v -0.667534 -0.048361 0.457477
v -0.669235 -0.048785 0.456921
v -0.671740 -0.046073 0.456209
v -0.678503 -0.034142 0.458063
v -0.679387 -0.033268 0.458544
v -0.688238 -0.040554 0.463843
v -0.688135 -0.039560 0.465080
v -0.687666 -0.040596 0.465992
v -0.687828 -0.041177 0.464954
v -0.677701 -0.047772 0.448720
v -0.679339 -0.046655 0.450101
v -0.679237 -0.047754 0.450940
v -0.678517 -0.049284 0.451080
v -0.672869 -0.035361 0.468943
v -0.673039 -0.035844 0.467645
v -0.673398 -0.036023 0.466330
v -0.683637 -0.031785 0.449391
v -0.681519 -0.031838 0.449283
v -0.682777 -0.030620 0.449879
v -0.673787 -0.033393 0.468881
v -0.668003 -0.055095 0.492862
v -0.667842 -0.053308 0.491049
v -0.666275 -0.053913 0.491144
v -0.666514 -0.055320 0.492532
v -0.675008 -0.031559 0.468214
v -0.674108 -0.033794 0.467265
v -0.677743 -0.046247 0.465033
v -0.676152 -0.044010 0.467920
v -0.676796 -0.041523 0.464998
v -0.675471 -0.031600 0.466746
v -0.675367 -0.032071 0.465334
v -0.675296 -0.052343 0.471969
v -0.674820 -0.033060 0.464718
v -0.665636 -0.043647 0.452223
v -0.665619 -0.042918 0.451703
v -0.663680 -0.044123 0.445975
v -0.662981 -0.045818 0.445803
v -0.674415 -0.035244 0.458644
v -0.675217 -0.033405 0.459626
v -0.676149 -0.032024 0.459698
v -0.662246 -0.048131 0.445401
v -0.662740 -0.048663 0.447542
v -0.676404 -0.030481 0.459701
v -0.663630 -0.049347 0.449780
v -0.663772 -0.049763 0.451950
v -0.664686 -0.047850 0.452534
v -0.671513 -0.049452 0.456326
v -0.673339 -0.046390 0.455837
v -0.675071 -0.032755 0.453617
v -0.668154 -0.052091 0.456790
v -0.676073 -0.040992 0.461629
v -0.675542 -0.040994 0.458436
v -0.678136 -0.039702 0.457578
v -0.674765 -0.040271 0.462128
v -0.673996 -0.041083 0.458833
v -0.665992 -0.048080 0.457606
v -0.664720 -0.050986 0.457255
v -0.664657 -0.047792 0.456621
v -0.663587 -0.050424 0.456241
v -0.678934 -0.040209 0.453680
v -0.674905 -0.041450 0.456044
v -0.673002 -0.042801 0.456737
v -0.664196 -0.047595 0.454700
v -0.663270 -0.050006 0.454412
v -0.674938 -0.043216 0.455382
v -0.677329 -0.043533 0.454487
v -0.673390 -0.043812 0.455902
v -0.674283 -0.052323 0.445650
v -0.674736 -0.051803 0.441647
v -0.675850 -0.049640 0.442014
v -0.675487 -0.049670 0.445868
v -0.675316 -0.053232 0.448926
v -0.676351 -0.050462 0.449153
v -0.674719 -0.056292 0.481171
v -0.675728 -0.031711 0.452350
v -0.677356 -0.034433 0.451745
v -0.677561 -0.047164 0.445757
v -0.677205 -0.047360 0.442591
v -0.680525 -0.031935 0.458985
v -0.682847 -0.033394 0.458810
v -0.688971 -0.039660 0.462378
v -0.688854 -0.038494 0.463959
v -0.672925 -0.049940 0.474892
v -0.672014 -0.053276 0.478162
v -0.673050 -0.054333 0.482437
v -0.668911 -0.048811 0.475739
v -0.689822 -0.038630 0.461171
v -0.689722 -0.037502 0.462863
v -0.690555 -0.037547 0.460694
v -0.690656 -0.036536 0.462020
v -0.672575 -0.054544 0.486647
v -0.690219 -0.036305 0.464520
v -0.690985 -0.035755 0.463398
v -0.689094 -0.037416 0.465852
v -0.668479 -0.049799 0.474288
v -0.688170 -0.038824 0.466820
v -0.687669 -0.039960 0.467135
v -0.665731 -0.045347 0.454487
v -0.666171 -0.045443 0.456647
v -0.682671 -0.049675 0.468659
v -0.682448 -0.048897 0.470107
v -0.681126 -0.050554 0.466007
v -0.668143 -0.045569 0.457273
v -0.670394 -0.043038 0.457077
v -0.667087 -0.042823 0.455836
v -0.666429 -0.043236 0.453905
v -0.681554 -0.042543 0.469494
v -0.684242 -0.045183 0.468746
v -0.685908 -0.042892 0.467571
v -0.685190 -0.040921 0.468995
v -0.686704 -0.043884 0.465555
v -0.684578 -0.046136 0.467127
v -0.687085 -0.041655 0.466852
v -0.687591 -0.042270 0.465099
v -0.686868 -0.040342 0.468360
v -0.662475 -0.045296 0.443689
v -0.661701 -0.047553 0.443090
v -0.687211 -0.043136 0.462829
v -0.688231 -0.041834 0.463091
v -0.663072 -0.043175 0.444489
v -0.664233 -0.041789 0.445960
v -0.663218 -0.039544 0.444794
v -0.662117 -0.041174 0.443510
v -0.664483 -0.038588 0.446752
v -0.665597 -0.041104 0.447375
v -0.668559 -0.053300 0.489962
v -0.671059 -0.053636 0.490173
v -0.666195 -0.054332 0.490531
v -0.677550 -0.032708 0.453873
v -0.665655 -0.038272 0.449243
v -0.665977 -0.041152 0.449095
v -0.665825 -0.041098 0.451120
v -0.666591 -0.038468 0.451893
v -0.666312 -0.041689 0.452900
v -0.671569 -0.055038 0.491129
v -0.669680 -0.056091 0.491924
v -0.669265 -0.054341 0.492505
v -0.666839 -0.056087 0.492002
v -0.659467 -0.046511 0.441482
v -0.660748 -0.043601 0.442573
v -0.669137 -0.053431 0.491554
v -0.670035 -0.045666 0.471473
v -0.675985 -0.047776 0.470286
v -0.670519 -0.044874 0.472988
v -0.660435 -0.042560 0.441068
v -0.662049 -0.040044 0.442303
v -0.672115 -0.040761 0.458806
v -0.667228 -0.039681 0.455137
v -0.671213 -0.037694 0.455586
v -0.669232 -0.037350 0.452525
v -0.667470 -0.037198 0.449150
v -0.658863 -0.046016 0.439787
v -0.659955 -0.046141 0.438300
v -0.661731 -0.042444 0.439546
v -0.663664 -0.040007 0.441001
v -0.664898 -0.044615 0.439457
v -0.663764 -0.047518 0.438676
v -0.666567 -0.042206 0.440416
v -0.683444 -0.037793 0.469634
v -0.686113 -0.038075 0.469648
v -0.685587 -0.034891 0.468553
v -0.687897 -0.035831 0.468712
v -0.669783 -0.044368 0.439431
v -0.668510 -0.046694 0.438819
v -0.667734 -0.048843 0.438413
v -0.672623 -0.047910 0.437383
v -0.671848 -0.050014 0.436951
v -0.673563 -0.045911 0.437922
v -0.676047 -0.049215 0.436452
v -0.675285 -0.051040 0.436012
v -0.679276 -0.047377 0.471156
v -0.676228 -0.051717 0.438097
v -0.676851 -0.050017 0.438427
v -0.675031 -0.045788 0.472262
v -0.677391 -0.048395 0.439080
v -0.676707 -0.047380 0.437117
v -0.687805 -0.038391 0.468933
v -0.678032 -0.046943 0.439555
v -0.678456 -0.045934 0.440706
v -0.689280 -0.036526 0.467962
v -0.677842 -0.051607 0.451028
v -0.676976 -0.054103 0.450691
v -0.679753 -0.045271 0.447395
v -0.679742 -0.045562 0.448953
v -0.679477 -0.044668 0.445258
v -0.688523 -0.038601 0.458618
v -0.687847 -0.041156 0.459998
v -0.689135 -0.040793 0.460927
v -0.690153 -0.039384 0.459318
v -0.679164 -0.044773 0.443377
v -0.679049 -0.044881 0.441778
v -0.677688 -0.045611 0.438042
v -0.678658 -0.043888 0.439280
v -0.689089 -0.034475 0.466304
v -0.686780 -0.033643 0.465785
v -0.690531 -0.035327 0.465945
v -0.689457 -0.033979 0.463706
v -0.686346 -0.033105 0.463201
v -0.691360 -0.034964 0.463702
v -0.679647 -0.042870 0.441110
v -0.679852 -0.049402 0.452488
v -0.680517 -0.046986 0.452077
v -0.686130 -0.033177 0.461086
v -0.680800 -0.045171 0.451050
v -0.681578 -0.043716 0.452437
v -0.681259 -0.045941 0.453545
v -0.681022 -0.044104 0.449365
v -0.682020 -0.042461 0.450408
v -0.680976 -0.043416 0.447424
v -0.686075 -0.034546 0.459418
v -0.680611 -0.042722 0.445026
v -0.680361 -0.042479 0.443009
v -0.680664 -0.040800 0.445985
v -0.681613 -0.041704 0.448178
v -0.682328 -0.047315 0.464444
v -0.680196 -0.040009 0.447756
v -0.680909 -0.040581 0.449438
v -0.677498 -0.049170 0.467332
v -0.681418 -0.041087 0.451283
v -0.680122 -0.048868 0.453855
v -0.676481 -0.054608 0.454692
v -0.677428 -0.051506 0.454682
v -0.678548 -0.048199 0.454492
v -0.673180 -0.039478 0.462461
v -0.679896 -0.044694 0.454120
v -0.680926 -0.042071 0.453055
v -0.673644 -0.035867 0.465497
v -0.670471 -0.052798 0.456242
v -0.673818 -0.053832 0.455535
v -0.674664 -0.050531 0.455555
v -0.673110 -0.036901 0.460706
v -0.674181 -0.034620 0.465111
v -0.675584 -0.047113 0.455242
v -0.672179 -0.037518 0.458075
v -0.664122 -0.038606 0.443658
v -0.665946 -0.038768 0.442679
v -0.666639 -0.037838 0.445651
v -0.673082 -0.036385 0.455591
v -0.670535 -0.036492 0.450241
v -0.669718 -0.037125 0.446520
v -0.674269 -0.034238 0.465980
v -0.668593 -0.038135 0.444119
v -0.671648 -0.037204 0.445016
v -0.674149 -0.037975 0.443847
v -0.671345 -0.039358 0.442558
v -0.674314 -0.035870 0.446789
v -0.672305 -0.035811 0.447550
v -0.679374 -0.026430 0.459074
v -0.668494 -0.040469 0.441717
v -0.675751 -0.034103 0.457804
v -0.675355 -0.035617 0.456355
v -0.674843 -0.036297 0.454759
v -0.674585 -0.043726 0.438823
v -0.676464 -0.032615 0.458540
v -0.671236 -0.042300 0.440369
v -0.673878 -0.040606 0.441211
v -0.676316 -0.041945 0.439850
v -0.676410 -0.031402 0.458805
v -0.677260 -0.027105 0.459248
v -0.675624 -0.029200 0.458678
v -0.675583 -0.030614 0.458115
v -0.676853 -0.027312 0.458194
v -0.676430 -0.039097 0.442816
v -0.677788 -0.032756 0.458212
v -0.676864 -0.034157 0.457301
v -0.676306 -0.035637 0.455810
v -0.678257 -0.040727 0.441808
v -0.677654 -0.030580 0.458569
v -0.678156 -0.030821 0.458763
v -0.678753 -0.031310 0.458854
v -0.676583 -0.036639 0.446197
v -0.678789 -0.037581 0.446203
v -0.679608 -0.039529 0.449974
v -0.679558 -0.039672 0.451598
v -0.677083 -0.030444 0.457924
v -0.675378 -0.029513 0.456991
v -0.675391 -0.030975 0.456946
v -0.676920 -0.030927 0.456792
v -0.678715 -0.026936 0.458532
v -0.678349 -0.027497 0.457723
v -0.679432 -0.039254 0.448807
v -0.679313 -0.039588 0.444681
v -0.676615 -0.028082 0.456573
v -0.677976 -0.028271 0.456393
v -0.675745 -0.036436 0.454101
v -0.679574 -0.038942 0.446796
v -0.674138 -0.036573 0.452887
v -0.672242 -0.036792 0.452907
v -0.679150 -0.037535 0.447556
v -0.675050 -0.036729 0.452595
v -0.679324 -0.038828 0.447963
v -0.678138 -0.037618 0.448822
v -0.678259 -0.038260 0.449572
v -0.673473 -0.036462 0.451449
v -0.674738 -0.036783 0.451467
v -0.676407 -0.036962 0.450086
v -0.676249 -0.037156 0.450737
v -0.678172 -0.038144 0.452270
v -0.678293 -0.038363 0.450615
v -0.674634 -0.035737 0.450693
v -0.672696 -0.035606 0.449373
v -0.675548 -0.036457 0.450488
v -0.676347 -0.037112 0.451824
v -0.678203 -0.037859 0.454227
v -0.676711 -0.036798 0.453335
v -0.674093 -0.033766 0.450786
v -0.674915 -0.034115 0.452046
f 1 2 3
f 1 3 4
f 5 6 7
f 5 7 8
f 9 10 11
f 9 11 8
f 12 13 14
f 12 14 15
f 16 17 18
f 16 18 19
f 20 18 17
f 20 17 21
f 22 23 19
f 22 19 18
f 24 22 18
f 24 18 20
f 10 25 26
f 10 26 11
f 27 28 29
f 27 29 15
f 13 30 31
f 13 31 14
f 32 33 29
f 32 29 4
f 34 35 36
f 34 36 37
f 34 38 39
f 34 39 35
f 40 41 35
f 40 35 39
f 41 42 36
f 41 36 35
f 506 44 31
f 506 31 45
f 321 330 328
f 321 328 319
f 40 39 50
f 40 50 51
f 52 50 39
f 52 39 38
f 53 54 26
f 53 26 45
f 55 56 57
f 55 57 58
f 59 60 37
f 59 37 36
f 59 36 42
f 59 42 61
f 62 63 57
f 62 57 56
f 64 65 66
f 64 66 67
f 68 64 67
f 68 67 69
f 70 68 69
f 70 69 71
f 72 73 50
f 72 50 52
f 51 50 73
f 51 73 74
f 72 75 76
f 72 76 73
f 74 73 76
f 74 76 77
f 78 70 71
f 78 71 79
f 80 78 79
f 80 79 81
f 82 80 81
f 82 81 83
f 72 84 85
f 72 85 75
f 75 86 87
f 75 87 76
f 85 88 86
f 85 86 75
f 89 82 83
f 89 83 90
f 91 77 76
f 91 76 87
f 65 92 93
f 65 93 66
f 94 89 90
f 94 90 95
f 92 94 95
f 92 95 93
f 85 96 97
f 85 97 88
f 98 99 96
f 98 96 85
f 85 84 100
f 85 100 98
f 101 565 566
f 101 566 104
f 105 106 107
f 105 107 108
f 95 74 77
f 95 77 93
f 90 51 74
f 90 74 95
f 109 110 106
f 109 106 105
f 93 77 91
f 93 91 66
f 111 9 8
f 111 8 7
f 112 113 114
f 112 114 115
f 83 40 51
f 83 51 90
f 81 41 40
f 81 40 83
f 116 117 118
f 116 118 119
f 81 79 42
f 81 42 41
f 19 23 120
f 19 120 121
f 79 71 61
f 79 61 42
f 122 123 124
f 122 124 125
f 126 127 128
f 126 128 129
f 78 80 130
f 78 130 131
f 78 131 132
f 78 132 70
f 133 109 134
f 133 134 135
f 80 82 136
f 80 136 130
f 137 138 139
f 137 139 140
f 89 141 136
f 89 136 82
f 131 130 136
f 131 136 142
f 24 143 144
f 24 144 145
f 94 146 141
f 94 141 89
f 92 147 146
f 92 146 94
f 148 5 8
f 148 8 11
f 65 149 147
f 65 147 92
f 113 150 151
f 113 151 114
f 115 152 153
f 115 153 112
f 154 91 87
f 154 87 155
f 155 87 86
f 155 86 156
f 112 153 620
f 112 620 621
f 159 156 86
f 159 86 88
f 623 624 162
f 623 162 113
f 113 112 621
f 113 621 623
f 119 118 163
f 119 163 164
f 117 165 629
f 117 629 118
f 22 24 145
f 22 145 167
f 167 168 169
f 167 169 22
f 168 167 170
f 168 170 171
f 167 145 59
f 167 59 170
f 165 117 172
f 165 172 636
f 636 172 174
f 636 174 638
f 176 169 168
f 176 168 177
f 171 178 177
f 171 177 168
f 638 174 179
f 638 179 643
f 624 643 179
f 624 179 162
f 176 177 181
f 176 181 182
f 178 183 181
f 178 181 177
f 647 648 186
f 647 186 187
f 651 647 187
f 651 187 189
f 6 55 58
f 6 58 7
f 63 190 3
f 63 3 57
f 191 58 57
f 191 57 192
f 192 57 3
f 192 3 2
f 189 187 193
f 189 193 126
f 190 32 4
f 190 4 3
f 186 194 193
f 186 193 187
f 19 121 195
f 19 195 196
f 196 195 98
f 196 98 100
f 197 198 123
f 197 123 122
f 63 62 199
f 63 199 200
f 63 200 201
f 63 201 190
f 201 200 54
f 201 54 53
f 200 199 202
f 200 202 54
f 197 203 204
f 197 204 198
f 204 203 205
f 204 205 206
f 53 30 207
f 53 207 201
f 190 201 207
f 190 207 32
f 208 204 206
f 208 206 209
f 210 198 204
f 210 204 208
f 506 45 26
f 506 26 25
f 54 202 211
f 54 211 26
f 212 213 124
f 212 124 123
f 53 45 31
f 53 31 30
f 210 212 123
f 210 123 198
f 111 7 58
f 111 58 191
f 113 162 179
f 113 179 214
f 174 215 214
f 174 214 179
f 55 216 217
f 55 217 56
f 216 55 6
f 216 6 218
f 117 116 219
f 117 219 172
f 219 215 174
f 219 174 172
f 220 221 215
f 220 215 219
f 113 214 222
f 113 222 150
f 223 224 225
f 223 225 226
f 227 225 224
f 227 224 228
f 229 230 125
f 229 125 124
f 231 229 124
f 231 124 213
f 221 222 214
f 221 214 215
f 153 232 696
f 153 696 620
f 228 21 234
f 228 234 227
f 230 235 122
f 230 122 125
f 232 153 152
f 232 152 236
f 28 1 4
f 28 4 29
f 115 237 236
f 115 236 152
f 236 237 238
f 236 238 239
f 240 238 237
f 240 237 241
f 207 30 242
f 207 242 243
f 30 13 244
f 30 244 242
f 44 245 14
f 44 14 31
f 246 240 241
f 246 241 247
f 33 12 15
f 33 15 29
f 247 241 237
f 247 237 115
f 248 247 115
f 248 115 114
f 249 246 247
f 249 247 248
f 250 151 150
f 250 150 222
f 32 251 252
f 32 252 33
f 251 253 137
f 251 137 252
f 33 252 254
f 33 254 12
f 252 137 140
f 252 140 254
f 114 151 250
f 114 250 248
f 718 696 232
f 718 232 256
f 243 242 138
f 243 138 257
f 242 244 139
f 242 139 138
f 211 148 11
f 211 11 26
f 239 256 232
f 239 232 236
f 258 259 148
f 258 148 211
f 259 258 60
f 259 60 144
f 211 202 260
f 211 260 258
f 60 258 260
f 60 260 37
f 261 256 239
f 261 239 262
f 263 264 221
f 263 221 220
f 264 250 222
f 264 222 221
f 264 249 248
f 264 248 250
f 265 266 249
f 265 249 264
f 245 27 15
f 245 15 14
f 267 246 249
f 267 249 266
f 244 13 12
f 244 12 254
f 731 718 256
f 731 256 261
f 254 140 139
f 254 139 244
f 732 731 261
f 732 261 270
f 271 270 261
f 271 261 262
f 270 272 736
f 270 736 732
f 271 274 272
f 271 272 270
f 34 223 275
f 34 275 38
f 223 226 276
f 223 276 275
f 277 52 38
f 277 38 275
f 275 276 278
f 275 278 277
f 274 279 280
f 274 280 272
f 32 207 243
f 32 243 251
f 272 280 744
f 272 744 736
f 251 243 257
f 251 257 253
f 282 746 744
f 282 744 280
f 280 279 284
f 280 284 282
f 282 285 749
f 282 749 746
f 56 217 287
f 56 287 62
f 223 287 217
f 223 217 224
f 224 217 216
f 224 216 228
f 186 648 751
f 186 751 289
f 749 285 289
f 749 289 751
f 62 287 290
f 62 290 199
f 290 260 202
f 290 202 199
f 194 186 289
f 194 289 291
f 285 282 284
f 285 284 292
f 223 34 290
f 223 290 287
f 34 37 260
f 34 260 290
f 285 292 291
f 285 291 289
f 231 213 212
f 231 212 293
f 291 294 295
f 291 295 194
f 293 212 210
f 293 210 296
f 126 129 297
f 126 297 189
f 189 297 761
f 189 761 651
f 126 299 300
f 126 300 127
f 126 193 301
f 126 301 299
f 17 16 302
f 17 302 303
f 304 305 203
f 304 203 197
f 21 17 303
f 21 303 234
f 235 304 197
f 235 197 122
f 306 194 295
f 306 295 307
f 194 306 301
f 194 301 193
f 292 308 294
f 292 294 291
f 309 295 294
f 309 294 308
f 310 311 277
f 310 277 278
f 296 210 208
f 296 208 312
f 311 310 313
f 311 313 314
f 315 312 208
f 315 208 209
f 316 307 295
f 316 295 309
f 566 761 297
f 566 297 104
f 311 72 52
f 311 52 277
f 72 311 314
f 72 314 84
f 317 104 297
f 317 297 129
f 318 317 129
f 318 129 128
f 314 313 319
f 314 319 320
f 321 315 209
f 321 209 206
f 322 318 128
f 322 128 127
f 320 100 84
f 320 84 314
f 323 324 318
f 323 318 322
f 127 300 325
f 127 325 322
f 323 322 325
f 323 325 326
f 325 300 299
f 325 299 327
f 328 302 16
f 328 16 329
f 319 328 329
f 319 329 320
f 321 206 205
f 321 205 330
f 330 205 203
f 330 203 305
f 327 299 301
f 327 301 331
f 332 306 307
f 332 307 316
f 320 329 196
f 320 196 100
f 329 16 19
f 329 19 196
f 331 301 306
f 331 306 332
f 333 334 327
f 333 327 331
f 228 216 218
f 228 218 335
f 228 335 20
f 228 20 21
f 326 325 327
f 326 327 334
f 333 336 337
f 333 337 334
f 143 335 218
f 143 218 338
f 218 6 5
f 218 5 338
f 334 337 339
f 334 339 326
f 335 143 24
f 335 24 20
f 340 101 104
f 340 104 317
f 338 5 148
f 338 148 259
f 324 340 317
f 324 317 318
f 144 143 338
f 144 338 259
f 800 565 101
f 800 101 342
f 59 145 144
f 59 144 60
f 342 101 340
f 342 340 343
f 170 59 61
f 170 61 344
f 345 343 340
f 345 340 324
f 344 61 71
f 344 71 69
f 323 326 339
f 323 339 346
f 68 70 132
f 68 132 347
f 346 345 324
f 346 324 323
f 171 170 344
f 171 344 263
f 118 629 807
f 118 807 163
f 163 807 808
f 163 808 350
f 344 69 67
f 344 67 351
f 68 347 352
f 68 352 64
f 350 808 800
f 350 800 342
f 353 350 342
f 353 342 343
f 350 353 164
f 350 164 163
f 344 351 354
f 344 354 263
f 351 67 66
f 351 66 91
f 91 154 354
f 91 354 351
f 181 183 119
f 181 119 164
f 64 352 149
f 64 149 65
f 345 182 353
f 345 353 343
f 263 220 178
f 263 178 171
f 164 353 182
f 164 182 181
f 355 262 239
f 355 239 238
f 178 220 219
f 178 219 116
f 178 116 119
f 178 119 183
f 356 271 262
f 356 262 355
f 357 240 246
f 357 246 267
f 264 263 354
f 264 354 265
f 154 358 265
f 154 265 354
f 357 355 238
f 357 238 240
f 359 360 357
f 359 357 267
f 361 132 131
f 361 131 142
f 132 361 352
f 132 352 347
f 355 357 362
f 355 362 356
f 147 149 352
f 147 352 361
f 363 362 357
f 363 357 360
f 147 361 142
f 147 142 146
f 364 365 362
f 364 362 363
f 146 142 136
f 146 136 141
f 366 363 360
f 366 360 367
f 97 96 99
f 97 99 368
f 274 271 356
f 274 356 369
f 365 369 356
f 365 356 362
f 154 155 370
f 154 370 371
f 154 371 372
f 154 372 358
f 373 308 292
f 373 292 284
f 155 156 374
f 155 374 370
f 279 274 369
f 279 369 375
f 284 279 375
f 284 375 373
f 369 365 376
f 369 376 375
f 308 373 377
f 308 377 309
f 374 156 159
f 374 159 378
f 88 97 379
f 88 379 159
f 380 381 378
f 380 378 159
f 159 379 382
f 159 382 380
f 375 376 377
f 375 377 373
f 365 364 383
f 365 383 376
f 384 385 370
f 384 370 374
f 371 370 385
f 371 385 386
f 377 387 316
f 377 316 309
f 387 377 376
f 387 376 383
f 374 378 388
f 374 388 389
f 374 389 390
f 374 390 384
f 363 366 391
f 363 391 364
f 392 383 364
f 392 364 391
f 339 337 393
f 339 393 394
f 381 395 388
f 381 388 378
f 380 396 397
f 380 397 381
f 395 381 397
f 395 397 398
f 176 182 345
f 176 345 346
f 176 346 339
f 176 339 394
f 379 97 368
f 379 368 399
f 399 400 382
f 399 382 379
f 337 336 401
f 337 401 393
f 402 333 331
f 402 331 332
f 403 396 380
f 403 380 382
f 382 400 404
f 382 404 403
f 402 332 316
f 402 316 387
f 386 405 372
f 386 372 371
f 392 402 387
f 392 387 383
f 333 402 406
f 333 406 336
f 358 372 407
f 358 407 408
f 266 265 358
f 266 358 408
f 402 392 409
f 402 409 406
f 372 405 410
f 372 410 407
f 336 406 411
f 336 411 401
f 412 413 401
f 412 401 411
f 408 407 414
f 408 414 359
f 414 407 410
f 414 410 415
f 412 411 406
f 412 406 409
f 267 266 408
f 267 408 359
f 413 412 416
f 413 416 417
f 418 394 393
f 418 393 419
f 359 414 420
f 359 420 421
f 414 415 422
f 414 422 420
f 393 401 413
f 393 413 419
f 423 419 413
f 423 413 417
f 424 176 394
f 424 394 418
f 419 423 425
f 419 425 418
f 426 421 420
f 426 420 427
f 428 427 420
f 428 420 429
f 430 426 427
f 430 427 431
f 427 428 432
f 427 432 431
f 418 425 433
f 418 433 424
f 405 386 433
f 405 433 425
f 434 367 421
f 434 421 426
f 435 434 426
f 435 426 430
f 423 410 405
f 423 405 425
f 410 423 417
f 410 417 415
f 430 431 436
f 430 436 437
f 431 432 438
f 431 438 436
f 415 417 416
f 415 416 422
f 439 108 391
f 439 391 366
f 437 436 397
f 437 397 396
f 436 438 398
f 436 398 397
f 392 391 108
f 392 108 107
f 392 107 440
f 392 440 409
f 441 430 437
f 441 437 442
f 437 396 403
f 437 403 442
f 443 133 135
f 443 135 444
f 442 403 404
f 442 404 445
f 133 446 110
f 133 110 109
f 442 445 447
f 442 447 441
f 133 443 448
f 133 448 446
f 412 449 422
f 412 422 416
f 430 441 450
f 430 450 435
f 450 441 447
f 450 447 451
f 449 412 409
f 449 409 440
f 452 106 110
f 452 110 446
f 453 439 434
f 453 434 435
f 367 434 439
f 367 439 366
f 452 440 107
f 452 107 106
f 435 450 454
f 435 454 453
f 440 452 429
f 440 429 449
f 455 454 450
f 455 450 451
f 452 446 448
f 452 448 456
f 428 429 452
f 428 452 456
f 359 421 367
f 359 367 360
f 429 420 422
f 429 422 449
f 22 169 457
f 22 457 23
f 138 137 253
f 138 253 257
f 176 424 457
f 176 457 169
f 457 424 433
f 457 433 458
f 99 98 195
f 99 195 459
f 368 99 459
f 368 459 460
f 23 457 458
f 23 458 120
f 368 460 461
f 368 461 399
f 390 121 120
f 390 120 384
f 399 461 462
f 399 462 400
f 385 458 433
f 385 433 386
f 384 120 458
f 384 458 385
f 445 404 463
f 445 463 49
f 447 445 49
f 447 49 48
f 459 195 121
f 459 121 390
f 451 447 48
f 451 48 47
f 390 389 460
f 390 460 459
f 455 451 47
f 455 47 46
f 456 448 443
f 456 443 46
f 428 456 46
f 428 46 47
f 47 48 432
f 47 432 428
f 453 454 135
f 453 135 134
f 453 105 108
f 453 108 439
f 105 453 134
f 105 134 109
f 48 49 438
f 48 438 432
f 135 454 455
f 135 455 444
f 49 463 398
f 49 398 438
f 46 443 444
f 46 444 455
f 462 395 398
f 462 398 463
f 400 462 463
f 400 463 404
f 460 389 388
f 460 388 461
f 461 388 395
f 461 395 462
f 229 231 226
f 229 226 225
f 230 229 225
f 230 225 227
f 235 230 227
f 235 227 234
f 231 293 276
f 231 276 226
f 293 296 278
f 293 278 276
f 305 304 303
f 305 303 302
f 304 235 234
f 304 234 303
f 296 312 310
f 296 310 278
f 312 315 313
f 312 313 310
f 315 321 319
f 315 319 313
f 330 305 302
f 330 302 328
f 1 467 466
f 1 466 2
f 468 471 470
f 468 470 469
f 9 471 474
f 9 474 10
f 475 478 477
f 475 477 476
f 479 482 481
f 479 481 480
f 483 484 480
f 483 480 481
f 485 481 482
f 485 482 486
f 487 483 481
f 487 481 485
f 10 474 489
f 10 489 25
f 27 478 492
f 27 492 28
f 476 477 494
f 476 494 493
f 495 467 492
f 495 492 496
f 497 500 499
f 497 499 498
f 497 498 502
f 497 502 501
f 503 502 498
f 503 498 504
f 504 498 499
f 504 499 505
f 506 508 494
f 506 494 44
f 509 512 511
f 509 511 510
f 503 514 513
f 503 513 502
f 515 501 502
f 515 502 513
f 516 508 489
f 516 489 517
f 518 521 520
f 518 520 519
f 522 499 500
f 522 500 523
f 522 524 505
f 522 505 499
f 525 519 520
f 525 520 526
f 527 530 529
f 527 529 528
f 531 532 530
f 531 530 527
f 533 534 532
f 533 532 531
f 535 515 513
f 535 513 536
f 514 537 536
f 514 536 513
f 535 536 539
f 535 539 538
f 537 540 539
f 537 539 536
f 541 542 534
f 541 534 533
f 543 544 542
f 543 542 541
f 545 546 544
f 545 544 543
f 535 538 548
f 535 548 547
f 538 539 550
f 538 550 549
f 548 538 549
f 548 549 551
f 552 553 546
f 552 546 545
f 554 550 539
f 554 539 540
f 528 529 556
f 528 556 555
f 557 558 553
f 557 553 552
f 555 556 558
f 555 558 557
f 548 551 560
f 548 560 559
f 561 548 559
f 561 559 562
f 548 561 563
f 548 563 547
f 564 567 566
f 564 566 565
f 568 571 570
f 568 570 569
f 558 556 540
f 558 540 537
f 553 558 537
f 553 537 514
f 572 568 569
f 572 569 573
f 556 529 554
f 556 554 540
f 111 470 471
f 111 471 9
f 575 578 577
f 575 577 576
f 546 553 514
f 546 514 503
f 544 546 503
f 544 503 504
f 579 582 581
f 579 581 580
f 544 504 505
f 544 505 542
f 482 584 583
f 482 583 486
f 542 505 524
f 542 524 534
f 585 588 587
f 585 587 586
f 589 592 591
f 589 591 590
f 541 594 593
f 541 593 543
f 541 533 595
f 541 595 594
f 596 598 597
f 596 597 572
f 543 593 599
f 543 599 545
f 600 603 602
f 600 602 601
f 552 545 599
f 552 599 604
f 594 605 599
f 594 599 593
f 487 608 607
f 487 607 606
f 557 552 604
f 557 604 609
f 555 557 609
f 555 609 610
f 611 474 471
f 611 471 468
f 528 555 610
f 528 610 612
f 576 577 614
f 576 614 613
f 578 575 616
f 578 616 615
f 617 618 550
f 617 550 554
f 618 619 549
f 618 549 550
f 575 621 620
f 575 620 616
f 622 551 549
f 622 549 619
f 623 576 625
f 623 625 624
f 576 623 621
f 576 621 575
f 582 627 626
f 582 626 581
f 580 581 629
f 580 629 165
f 485 630 608
f 485 608 487
f 630 485 632
f 630 632 631
f 631 634 633
f 631 633 630
f 630 633 522
f 630 522 608
f 165 636 635
f 165 635 580
f 636 638 637
f 636 637 635
f 639 640 631
f 639 631 632
f 634 631 640
f 634 640 641
f 638 643 642
f 638 642 637
f 624 625 642
f 624 642 643
f 639 645 644
f 639 644 640
f 641 640 644
f 641 644 646
f 647 650 649
f 647 649 648
f 651 652 650
f 651 650 647
f 469 470 521
f 469 521 518
f 526 520 466
f 526 466 653
f 191 192 520
f 191 520 521
f 192 2 466
f 192 466 520
f 652 589 656
f 652 656 650
f 653 466 467
f 653 467 495
f 649 650 656
f 649 656 657
f 482 659 658
f 482 658 584
f 659 563 561
f 659 561 658
f 660 585 586
f 660 586 661
f 526 663 662
f 526 662 525
f 526 653 664
f 526 664 663
f 664 516 517
f 664 517 663
f 663 517 665
f 663 665 662
f 660 661 667
f 660 667 666
f 667 669 668
f 667 668 666
f 516 664 670
f 516 670 493
f 653 495 670
f 653 670 664
f 671 672 669
f 671 669 667
f 673 671 667
f 673 667 661
f 506 25 489
f 506 489 508
f 517 489 674
f 517 674 665
f 675 586 587
f 675 587 676
f 516 493 494
f 516 494 508
f 673 661 586
f 673 586 675
f 111 191 521
f 111 521 470
f 576 677 642
f 576 642 625
f 637 642 677
f 637 677 678
f 518 519 680
f 518 680 679
f 679 681 469
f 679 469 518
f 580 635 682
f 580 682 579
f 682 635 637
f 682 637 678
f 683 682 678
f 683 678 684
f 576 613 685
f 576 685 677
f 686 689 688
f 686 688 687
f 690 691 687
f 690 687 688
f 692 587 588
f 692 588 693
f 694 676 587
f 694 587 692
f 684 678 677
f 684 677 685
f 616 620 696
f 616 696 695
f 691 690 697
f 691 697 484
f 693 588 585
f 693 585 698
f 695 699 615
f 695 615 616
f 28 492 467
f 28 467 1
f 578 615 699
f 578 699 700
f 699 702 701
f 699 701 700
f 703 704 700
f 703 700 701
f 670 706 705
f 670 705 493
f 493 705 707
f 493 707 476
f 44 494 477
f 44 477 245
f 709 710 704
f 709 704 703
f 496 492 478
f 496 478 475
f 710 578 700
f 710 700 704
f 711 577 578
f 711 578 710
f 712 711 710
f 712 710 709
f 713 685 613
f 713 613 614
f 495 496 715
f 495 715 714
f 714 715 600
f 714 600 716
f 496 475 717
f 496 717 715
f 715 717 603
f 715 603 600
f 577 711 713
f 577 713 614
f 718 719 695
f 718 695 696
f 706 720 601
f 706 601 705
f 705 601 602
f 705 602 707
f 674 489 474
f 674 474 611
f 702 699 695
f 702 695 719
f 721 674 611
f 721 611 722
f 722 607 523
f 722 523 721
f 674 721 723
f 674 723 665
f 523 500 723
f 523 723 721
f 724 725 702
f 724 702 719
f 726 683 684
f 726 684 727
f 727 684 685
f 727 685 713
f 727 713 711
f 727 711 712
f 728 727 712
f 728 712 729
f 245 477 478
f 245 478 27
f 730 729 712
f 730 712 709
f 707 717 475
f 707 475 476
f 731 724 719
f 731 719 718
f 717 707 602
f 717 602 603
f 732 733 724
f 732 724 731
f 734 725 724
f 734 724 733
f 733 732 736
f 733 736 735
f 734 733 735
f 734 735 737
f 497 501 738
f 497 738 686
f 686 738 739
f 686 739 689
f 740 738 501
f 740 501 515
f 738 740 741
f 738 741 739
f 737 735 743
f 737 743 742
f 495 714 706
f 495 706 670
f 735 736 744
f 735 744 743
f 714 716 720
f 714 720 706
f 745 743 744
f 745 744 746
f 743 745 747
f 743 747 742
f 745 746 749
f 745 749 748
f 519 525 750
f 519 750 680
f 686 687 680
f 686 680 750
f 687 691 679
f 687 679 680
f 649 752 751
f 649 751 648
f 749 751 752
f 749 752 748
f 525 662 753
f 525 753 750
f 753 662 665
f 753 665 723
f 657 754 752
f 657 752 649
f 748 755 747
f 748 747 745
f 686 750 753
f 686 753 497
f 497 753 723
f 497 723 500
f 748 752 754
f 748 754 755
f 694 756 675
f 694 675 676
f 754 657 758
f 754 758 757
f 756 759 673
f 756 673 675
f 589 652 760
f 589 760 592
f 652 651 761
f 652 761 760
f 589 590 763
f 589 763 762
f 589 762 764
f 589 764 656
f 480 766 765
f 480 765 479
f 767 660 666
f 767 666 768
f 484 697 766
f 484 766 480
f 698 585 660
f 698 660 767
f 769 770 758
f 769 758 657
f 657 656 764
f 657 764 769
f 755 754 757
f 755 757 771
f 772 771 757
f 772 757 758
f 773 741 740
f 773 740 774
f 759 775 671
f 759 671 673
f 774 777 776
f 774 776 773
f 778 672 671
f 778 671 775
f 779 772 758
f 779 758 770
f 566 567 760
f 566 760 761
f 774 740 515
f 774 515 535
f 535 547 777
f 535 777 774
f 780 592 760
f 780 760 567
f 781 591 592
f 781 592 780
f 777 782 512
f 777 512 776
f 509 669 672
f 509 672 778
f 783 590 591
f 783 591 781
f 782 777 547
f 782 547 563
f 784 783 781
f 784 781 785
f 590 783 786
f 590 786 763
f 784 787 786
f 784 786 783
f 786 788 762
f 786 762 763
f 511 789 479
f 511 479 765
f 512 782 789
f 512 789 511
f 509 510 668
f 509 668 669
f 510 768 666
f 510 666 668
f 788 790 764
f 788 764 762
f 791 779 770
f 791 770 769
f 782 563 659
f 782 659 789
f 789 659 482
f 789 482 479
f 790 791 769
f 790 769 764
f 792 790 788
f 792 788 793
f 691 794 681
f 691 681 679
f 691 484 483
f 691 483 794
f 787 793 788
f 787 788 786
f 792 793 796
f 792 796 795
f 606 797 681
f 606 681 794
f 681 797 468
f 681 468 469
f 793 787 798
f 793 798 796
f 794 483 487
f 794 487 606
f 799 780 567
f 799 567 564
f 797 722 611
f 797 611 468
f 785 781 780
f 785 780 799
f 607 722 797
f 607 797 606
f 800 801 564
f 800 564 565
f 522 523 607
f 522 607 608
f 801 802 799
f 801 799 564
f 633 803 524
f 633 524 522
f 804 785 799
f 804 799 802
f 803 532 534
f 803 534 524
f 784 805 798
f 784 798 787
f 531 806 595
f 531 595 533
f 805 784 785
f 805 785 804
f 634 726 803
f 634 803 633
f 581 626 807
f 581 807 629
f 626 809 808
f 626 808 807
f 803 810 530
f 803 530 532
f 531 527 811
f 531 811 806
f 809 801 800
f 809 800 808
f 812 802 801
f 812 801 809
f 809 626 627
f 809 627 812
f 803 726 813
f 803 813 810
f 810 554 529
f 810 529 530
f 554 810 813
f 554 813 617
f 644 627 582
f 644 582 646
f 527 528 612
f 527 612 811
f 804 802 812
f 804 812 645
f 726 634 641
f 726 641 683
f 627 644 645
f 627 645 812
f 814 701 702
f 814 702 725
f 641 579 682
f 641 682 683
f 641 646 582
f 641 582 579
f 815 814 725
f 815 725 734
f 816 730 709
f 816 709 703
f 727 728 813
f 727 813 726
f 617 813 728
f 617 728 817
f 816 703 701
f 816 701 814
f 818 730 816
f 818 816 819
f 820 605 594
f 820 594 595
f 595 806 811
f 595 811 820
f 814 815 821
f 814 821 816
f 610 820 811
f 610 811 612
f 822 819 816
f 822 816 821
f 610 609 605
f 610 605 820
f 823 822 821
f 823 821 824
f 609 604 599
f 609 599 605
f 825 826 819
f 825 819 822
f 560 827 562
f 560 562 559
f 737 828 815
f 737 815 734
f 824 821 815
f 824 815 828
f 617 830 829
f 617 829 618
f 617 817 831
f 617 831 830
f 832 747 755
f 832 755 771
f 618 829 833
f 618 833 619
f 742 834 828
f 742 828 737
f 747 832 834
f 747 834 742
f 828 834 835
f 828 835 824
f 771 772 836
f 771 836 832
f 833 837 622
f 833 622 619
f 551 622 838
f 551 838 560
f 839 622 837
f 839 837 840
f 622 839 841
f 622 841 838
f 834 832 836
f 834 836 835
f 824 835 842
f 824 842 823
f 843 833 829
f 843 829 844
f 830 845 844
f 830 844 829
f 836 772 779
f 836 779 846
f 846 842 835
f 846 835 836
f 833 848 847
f 833 847 837
f 833 843 849
f 833 849 848
f 822 823 850
f 822 850 825
f 851 850 823
f 851 823 842
f 798 853 852
f 798 852 796
f 840 837 847
f 840 847 854
f 839 840 856
f 839 856 855
f 854 857 856
f 854 856 840
f 639 805 804
f 639 804 645
f 639 853 798
f 639 798 805
f 838 858 827
f 838 827 560
f 858 838 841
f 858 841 859
f 796 852 860
f 796 860 795
f 861 791 790
f 861 790 792
f 862 841 839
f 862 839 855
f 841 862 863
f 841 863 859
f 861 846 779
f 861 779 791
f 845 830 831
f 845 831 864
f 851 842 846
f 851 846 861
f 792 795 865
f 792 865 861
f 817 867 866
f 817 866 831
f 729 867 817
f 729 817 728
f 861 865 868
f 861 868 851
f 831 866 869
f 831 869 864
f 795 860 870
f 795 870 865
f 871 870 860
f 871 860 872
f 867 818 873
f 867 873 866
f 873 874 869
f 873 869 866
f 871 868 865
f 871 865 870
f 730 818 867
f 730 867 729
f 872 876 875
f 872 875 871
f 877 878 852
f 877 852 853
f 818 880 879
f 818 879 873
f 873 879 881
f 873 881 874
f 852 878 872
f 852 872 860
f 882 876 872
f 882 872 878
f 883 877 853
f 883 853 639
f 878 877 884
f 878 884 882
f 885 886 879
f 885 879 880
f 708 655 879
f 708 879 886
f 654 628 886
f 654 886 885
f 886 628 574
f 886 574 708
f 877 883 507
f 877 507 884
f 864 884 507
f 864 507 845
f 491 885 880
f 491 880 826
f 490 654 885
f 490 885 491
f 882 884 864
f 882 864 869
f 869 874 876
f 869 876 882
f 654 473 488
f 654 488 628
f 628 488 472
f 628 472 574
f 874 881 875
f 874 875 876
f 465 825 850
f 465 850 571
f 473 855 856
f 473 856 488
f 488 856 857
f 488 857 472
f 851 570 571
f 851 571 850
f 851 868 464
f 851 464 570
f 349 348 473
f 349 473 654
f 473 348 862
f 473 862 855
f 341 298 598
f 341 598 596
f 348 288 863
f 348 863 862
f 596 572 573
f 596 573 286
f 348 349 283
f 348 283 288
f 596 286 281
f 596 281 341
f 871 875 881
f 871 881 273
f 654 490 269
f 654 269 349
f 269 268 283
f 269 283 349
f 273 464 868
f 273 868 871
f 255 286 573
f 255 573 569
f 233 490 491
f 233 491 465
f 826 825 465
f 826 465 491
f 255 569 570
f 255 570 464
f 490 233 188
f 490 188 269
f 464 273 655
f 464 655 255
f 185 268 269
f 185 269 188
f 255 184 281
f 255 281 286
f 708 184 255
f 708 255 655
f 818 819 826
f 818 826 880
f 655 273 881
f 655 881 879
f 485 486 180
f 485 180 632
f 601 720 716
f 601 716 600
f 639 632 180
f 639 180 883
f 180 175 507
f 180 507 883
f 562 173 658
f 562 658 561
f 827 166 173
f 827 173 562
f 486 583 175
f 486 175 180
f 827 858 161
f 827 161 166
f 849 843 583
f 849 583 584
f 858 859 160
f 858 160 161
f 844 845 507
f 844 507 175
f 843 844 175
f 843 175 583
f 288 157 158
f 288 158 863
f 283 103 157
f 283 157 288
f 173 849 584
f 173 584 658
f 268 102 103
f 268 103 283
f 849 173 166
f 849 166 848
f 185 43 102
f 185 102 268
f 184 43 341
f 184 341 281
f 708 102 43
f 708 43 184
f 102 708 574
f 102 574 103
f 233 597 598
f 233 598 188
f 233 465 571
f 233 571 568
f 568 572 597
f 568 597 233
f 103 574 472
f 103 472 157
f 598 298 185
f 598 185 188
f 157 472 857
f 157 857 158
f 43 185 298
f 43 298 341
f 160 158 857
f 160 857 854
f 859 863 158
f 859 158 160
f 166 161 847
f 166 847 848
f 161 160 854
f 161 854 847
f 692 688 689
f 692 689 694
f 693 690 688
f 693 688 692
f 698 697 690
f 698 690 693
f 694 689 739
f 694 739 756
f 756 739 741
f 756 741 759
f 768 765 766
f 768 766 767
f 767 766 697
f 767 697 698
f 759 741 773
f 759 773 775
f 775 773 776
f 775 776 778
f 778 776 512
f 778 512 509
f 510 511 765
f 510 765 768
