# C5 rest
v -0.000980 0.180765 -0.021779
v -0.026816 0.179012 -0.015026
v 0.000403 0.193050 -0.041277
v 0.000092 0.189014 -0.046067
v 0.005810 0.193340 -0.033069
v 0.005972 0.197459 -0.028049
v 0.004071 0.197571 -0.028402
v 0.002504 0.192602 -0.034573
v 0.000695 0.190012 -0.017349
v 0.000506 0.177145 -0.008390
v 0.001841 0.188016 -0.035107
v -0.000646 0.178802 -0.049532
v 0.000148 0.177055 -0.048209
v -0.001394 0.177534 -0.047235
v -0.001422 0.179459 -0.048987
v 0.024539 0.199280 -0.020031
v 0.020554 0.197652 -0.021601
v 0.019525 0.191569 -0.021676
v 0.023623 0.191481 -0.019619
v 0.016805 0.193601 -0.025814
v 0.017364 0.197387 -0.025426
v 0.017893 0.186450 -0.021925
v 0.021933 0.187968 -0.019439
v 0.016437 0.187050 -0.025917
v -0.001953 0.182102 -0.037990
v 0.000814 0.182816 -0.037509
v 0.000303 0.172734 -0.006910
v -0.000242 0.167288 -0.007282
v -0.000709 0.184895 -0.047937
v 0.002375 0.180451 -0.045573
v -0.000146 0.179750 -0.044962
v 0.002539 0.191814 -0.046381
v 0.000671 0.184873 -0.048672
v 0.017443 0.185962 -0.029279
v 0.019427 0.181725 -0.028909
v 0.016784 0.181586 -0.027506
v 0.014802 0.182391 -0.029000
v 0.023622 0.185945 -0.028462
v 0.025337 0.181172 -0.028621
v 0.026067 0.176683 -0.029092
v 0.019332 0.177231 -0.029412
v 0.015887 0.178820 -0.027481
v -0.000993 0.160593 -0.008156
v -0.001740 0.153082 -0.008504
v -0.000093 0.181743 -0.041178
v 0.028139 0.182630 -0.014436
v 0.027644 0.180290 -0.015017
v 0.027722 0.178145 -0.015399
v 0.027967 0.176301 -0.015913
v 0.028414 0.182310 -0.026441
v 0.029201 0.178828 -0.026534
v 0.027581 0.186026 -0.026757
v 0.002055 0.182932 -0.041570
v 0.003238 0.184153 -0.038102
v 0.005273 0.199383 -0.033022
v 0.005822 0.197733 -0.035299
v 0.001299 0.197126 -0.037726
v 0.002718 0.198750 -0.033306
v 0.016071 0.180097 -0.025595
v 0.013719 0.181154 -0.027856
v 0.015638 0.178344 -0.025737
v 0.007875 0.196537 -0.036045
v 0.003160 0.196332 -0.038825
v 0.020543 0.175428 -0.022095
v 0.023929 0.176820 -0.021809
v 0.023768 0.176750 -0.021430
v 0.019720 0.175308 -0.021681
v 0.017614 0.176635 -0.023308
v 0.016481 0.176574 -0.023382
v 0.016538 0.176781 -0.025098
v 0.015547 0.176728 -0.025502
v 0.029211 0.187544 -0.024064
v 0.029023 0.183133 -0.024236
v 0.029446 0.180427 -0.024223
v 0.028365 0.183703 -0.021650
v 0.027932 0.181997 -0.022127
v 0.027839 0.180126 -0.022260
v 0.016942 0.176368 -0.026561
v 0.015817 0.176802 -0.027245
v 0.020219 0.176353 -0.027537
v 0.019348 0.175836 -0.029118
v 0.024993 0.176711 -0.027578
v 0.025553 0.175522 -0.028855
v 0.029084 0.192375 -0.021741
v 0.029763 0.184369 -0.020480
v 0.026880 0.179163 -0.020287
v 0.025627 0.178562 -0.020746
v 0.028572 0.178948 -0.019750
v 0.028210 0.177428 -0.025669
v 0.029234 0.177139 -0.026367
v 0.023647 0.177323 -0.021053
v 0.027856 0.177208 -0.022369
v 0.028249 0.177834 -0.022202
v 0.028987 0.177559 -0.023769
v 0.029789 0.178009 -0.023956
v 0.032411 0.178878 -0.019787
v 0.031857 0.174926 -0.019442
v 0.029797 0.186204 -0.019379
v 0.032549 0.179757 -0.019201
v 0.028502 0.193398 -0.020375
v 0.005325 0.193909 -0.019140
v -0.002430 0.146250 -0.008868
v -0.002795 0.145423 -0.010088
v 0.005046 0.193142 -0.018026
v 0.024020 0.180013 -0.013102
v 0.023457 0.181800 -0.013369
v 0.021582 0.181105 -0.013282
v 0.021731 0.179016 -0.013294
v 0.025680 0.179937 -0.011953
v 0.024898 0.181970 -0.012664
v -0.002850 0.148056 -0.011344
v 0.002076 0.161115 -0.015897
v 0.003356 0.163936 -0.017190
v 0.006709 0.162955 -0.016669
v 0.005764 0.161207 -0.015587
v 0.007526 0.175219 -0.020285
v 0.003360 0.173428 -0.021382
v 0.003574 0.176359 -0.021412
v 0.007769 0.177478 -0.020394
v 0.023834 0.183008 -0.019296
v 0.025513 0.184472 -0.019208
v 0.022058 0.202604 -0.024122
v 0.023870 0.202755 -0.025175
v 0.022590 0.202487 -0.026485
v 0.021546 0.202390 -0.025605
v 0.008165 0.185670 -0.015485
v 0.010503 0.188541 -0.016051
v 0.009362 0.189227 -0.016792
v 0.007446 0.189405 -0.017098
v 0.021265 0.176441 -0.026467
v 0.019640 0.176198 -0.025634
v 0.018857 0.176173 -0.024582
v 0.027815 0.182222 -0.011892
v 0.026810 0.178888 -0.012031
v 0.028705 0.179842 -0.012042
v 0.024301 0.177483 -0.026104
v 0.001723 0.177290 -0.051214
v 0.003191 0.176767 -0.050422
v 0.001797 0.174849 -0.050217
v 0.000669 0.175525 -0.050941
v 0.026832 0.178134 -0.025161
v 0.023478 0.177461 -0.024803
v 0.013784 0.190550 -0.028679
v 0.013753 0.184927 -0.028088
v 0.015988 0.182731 -0.025632
v 0.027034 0.177898 -0.023992
v 0.026627 0.177548 -0.022756
v 0.005529 0.188846 -0.033295
v 0.024210 0.177175 -0.022278
v 0.006347 0.164626 -0.017762
v 0.007426 0.163983 -0.017284
v 0.003872 0.158502 -0.014527
v 0.001331 0.158025 -0.014629
v 0.021186 0.176131 -0.019403
v 0.023513 0.176296 -0.019833
v 0.025281 0.176851 -0.019596
v -0.002355 0.177635 -0.047015
v -0.002635 0.154026 -0.013035
v 0.027160 0.175215 -0.019118
v 0.000003 0.197166 -0.037655
v 0.000351 0.198503 -0.033267
v 0.001079 0.164843 -0.018186
v 0.003958 0.180557 -0.021343
v 0.008177 0.180457 -0.020299
v 0.000493 0.187053 -0.016242
v 0.000434 0.179999 -0.010969
v 0.015871 0.182184 -0.023119
v 0.015468 0.181905 -0.021118
v 0.017959 0.185130 -0.020228
v 0.015530 0.179960 -0.023409
v 0.014461 0.179208 -0.021521
v 0.002860 0.170275 -0.021486
v 0.000361 0.183077 -0.013875
v 0.002384 0.167795 -0.020896
v -0.002513 0.166464 -0.019599
v 0.017341 0.186059 -0.018239
v 0.014047 0.181690 -0.020050
v 0.011777 0.178137 -0.020234
v 0.002026 0.166091 -0.019634
v -0.002605 0.167648 -0.021030
v 0.011847 0.181524 -0.019745
v 0.013154 0.185564 -0.019047
v 0.010770 0.179245 -0.020085
v -0.002455 0.169656 -0.021787
v -0.001605 0.176075 -0.021880
v 0.004137 0.180663 -0.010886
v 0.004517 0.183660 -0.013664
v -0.002062 0.172738 -0.021961
v 0.004693 0.187213 -0.015967
v 0.002296 0.193284 -0.042330
v -0.002501 0.164603 -0.018243
v -0.002483 0.162996 -0.017125
v 0.008299 0.183100 -0.013349
v 0.007407 0.180073 -0.011034
v 0.027576 0.186030 -0.019168
v 0.026880 0.192761 -0.019643
v 0.023660 0.204168 -0.022328
v 0.025342 0.203565 -0.023951
v 0.007345 0.190851 -0.035556
v 0.004749 0.191506 -0.039634
v 0.003815 0.190947 -0.042764
v 0.006524 0.184407 -0.034638
v 0.025913 0.205030 -0.021411
v 0.026736 0.204429 -0.022899
v 0.027012 0.205144 -0.021391
v 0.027721 0.204971 -0.022144
v 0.004958 0.191312 -0.045993
v 0.028051 0.204408 -0.024292
v 0.028555 0.204903 -0.023119
v 0.026771 0.203513 -0.025652
v 0.005013 0.183458 -0.033394
v 0.025068 0.202846 -0.026603
v 0.023626 0.202470 -0.027236
v 0.004888 0.165887 -0.019327
v 0.005766 0.168274 -0.020240
v 0.010125 0.200437 -0.031529
v 0.011360 0.198781 -0.032873
v 0.009967 0.197329 -0.027316
v 0.006790 0.171948 -0.020387
v 0.010713 0.173450 -0.019686
v 0.009259 0.168158 -0.019627
v 0.007783 0.165611 -0.019351
v 0.018051 0.193406 -0.030611
v 0.016150 0.200480 -0.030479
v 0.019797 0.202562 -0.029146
v 0.021821 0.200352 -0.029467
v 0.018596 0.202638 -0.027573
v 0.014729 0.201421 -0.029376
v 0.021265 0.202657 -0.027907
v 0.020190 0.202488 -0.026394
v 0.022791 0.201933 -0.028751
v 0.001270 0.154883 -0.013331
v -0.002537 0.160437 -0.015879
v 0.018488 0.199788 -0.024697
v 0.019897 0.201443 -0.024237
v 0.004276 0.155479 -0.013661
v 0.006855 0.157163 -0.014247
v 0.009822 0.154386 -0.013145
v 0.006179 0.151648 -0.012446
v 0.011457 0.157161 -0.014400
v 0.008596 0.157846 -0.015021
v 0.003443 0.178849 -0.049328
v 0.004868 0.187218 -0.048972
v 0.001264 0.175474 -0.049522
v -0.002594 0.157662 -0.014639
v 0.011869 0.160058 -0.015671
v 0.009275 0.159393 -0.015778
v 0.009956 0.162196 -0.017350
v 0.012673 0.163368 -0.017228
v 0.009706 0.164122 -0.018484
v 0.003202 0.186378 -0.049485
v 0.001461 0.181242 -0.050217
v 0.003109 0.179135 -0.050990
v -0.000026 0.177005 -0.050359
v 0.000454 0.197213 -0.028875
v 0.002222 0.149182 -0.011616
v 0.003845 0.179124 -0.050504
v 0.009686 0.182593 -0.030697
v 0.009601 0.187953 -0.030711
v 0.011071 0.183691 -0.031650
v 0.003093 0.146057 -0.010123
v 0.007260 0.149067 -0.010708
v 0.014851 0.176270 -0.020933
v 0.012089 0.166236 -0.018497
v 0.015593 0.172696 -0.018289
v 0.015000 0.168266 -0.016813
v 0.013863 0.165262 -0.015023
v 0.000969 0.193223 -0.018185
v 0.000921 0.193984 -0.019432
v 0.003821 0.146400 -0.008738
v 0.008070 0.149500 -0.009145
v 0.003204 0.153583 -0.008454
v -0.002222 0.179413 -0.044772
v 0.007298 0.154909 -0.008558
v 0.023816 0.191432 -0.028694
v 0.024945 0.199524 -0.028651
v 0.027748 0.193376 -0.027036
v 0.028183 0.199917 -0.027301
v 0.006604 0.161570 -0.008270
v 0.003029 0.160930 -0.008139
v -0.002007 0.181700 -0.041223
v 0.003370 0.167524 -0.007281
v -0.001523 0.184778 -0.047738
v 0.006535 0.167826 -0.007488
v 0.003683 0.173451 -0.006887
v -0.026915 0.176709 -0.015614
v 0.012981 0.195820 -0.033257
v -0.001296 0.186696 -0.035747
v 0.003561 0.177557 -0.008312
v 0.012061 0.188663 -0.032196
v 0.005797 0.177893 -0.008610
v 0.006240 0.174198 -0.007017
v 0.025306 0.202173 -0.028132
v 0.007716 0.178334 -0.008696
v 0.009261 0.179227 -0.009396
v 0.027914 0.202599 -0.026988
v 0.004633 0.190124 -0.017177
v -0.000550 0.192095 -0.034827
v 0.011993 0.185349 -0.014031
v 0.011801 0.187136 -0.015072
v 0.012123 0.182954 -0.012381
v 0.025167 0.203283 -0.020101
v 0.021213 0.201373 -0.021441
v 0.022298 0.203487 -0.021656
v 0.025588 0.204945 -0.020470
v 0.011474 0.181194 -0.011090
v 0.010942 0.179983 -0.010001
v 0.008648 0.175699 -0.007639
v 0.011089 0.177350 -0.008398
v 0.029585 0.201506 -0.025152
v 0.029360 0.196318 -0.024858
v 0.029248 0.203774 -0.025019
v 0.029673 0.203077 -0.022890
v 0.029382 0.199117 -0.022595
v 0.029387 0.204658 -0.023030
v 0.013131 0.179181 -0.009485
v 0.008340 0.192778 -0.017809
v 0.011097 0.191782 -0.017077
v 0.029077 0.203835 -0.021238
v 0.028758 0.200195 -0.021028
v 0.028692 0.205002 -0.021570
v 0.012980 0.190867 -0.016213
v 0.015004 0.191592 -0.017120
v 0.012734 0.192982 -0.018072
v 0.013842 0.188366 -0.015069
v 0.016054 0.189628 -0.015725
v 0.014240 0.186463 -0.013754
v 0.027812 0.203870 -0.020266
v 0.027407 0.199850 -0.020063
v 0.027563 0.205143 -0.020741
v 0.014323 0.183466 -0.012093
v 0.014127 0.181267 -0.010764
v 0.016396 0.184240 -0.012706
v 0.016216 0.187215 -0.014226
v 0.013384 0.196697 -0.027208
v 0.017336 0.185064 -0.014048
v 0.017305 0.187054 -0.015268
v 0.009687 0.192652 -0.030845
v 0.017368 0.189117 -0.016420
v 0.009219 0.193731 -0.018783
v -0.000515 0.193603 -0.041103
v 0.004957 0.190953 -0.020069
v 0.009066 0.190659 -0.019481
v 0.015668 0.177388 -0.023149
v 0.013333 0.190578 -0.018664
v 0.016432 0.190292 -0.017550
v 0.019182 0.175973 -0.023465
v -0.001100 0.188731 -0.045937
v -0.000166 0.186651 -0.021215
v 0.004489 0.186056 -0.020824
v 0.019107 0.175764 -0.021147
v 0.021707 0.176179 -0.022781
v 0.008638 0.185161 -0.020018
v 0.017639 0.176465 -0.019904
v 0.011384 0.154592 -0.011656
v 0.011113 0.155168 -0.009876
v 0.013628 0.161202 -0.012618
v 0.018335 0.175380 -0.018318
v 0.016307 0.169665 -0.015148
v 0.015329 0.166496 -0.012944
v 0.022744 0.176984 -0.023673
v 0.013514 0.160634 -0.010677
v 0.015965 0.166469 -0.011787
v 0.016092 0.169361 -0.011152
v 0.013149 0.162467 -0.009753
v 0.018835 0.172188 -0.012956
v 0.018061 0.169797 -0.013493
v 0.032521 0.175510 -0.018852
v 0.010390 0.157703 -0.008953
v 0.022826 0.177083 -0.019037
v 0.021118 0.176852 -0.018580
v 0.019314 0.176423 -0.018052
v 0.009362 0.168755 -0.007997
v 0.024571 0.177564 -0.019085
v 0.009621 0.162949 -0.008613
v 0.012556 0.166373 -0.009303
v 0.012127 0.171267 -0.008744
v 0.025962 0.175829 -0.018817
v 0.030945 0.171369 -0.018576
v 0.028043 0.170694 -0.018123
v 0.026532 0.172516 -0.018025
v 0.030437 0.169563 -0.017716
v 0.015770 0.173270 -0.010708
v 0.024897 0.180494 -0.018973
v 0.022736 0.179401 -0.018943
v 0.021064 0.178392 -0.018420
v 0.014905 0.176489 -0.010054
v 0.027472 0.177151 -0.018448
v 0.027505 0.179007 -0.018656
v 0.027312 0.181186 -0.018879
v 0.019010 0.175873 -0.012560
v 0.019094 0.180450 -0.012510
v 0.017892 0.185413 -0.015918
v 0.017930 0.186096 -0.017000
v 0.027292 0.175053 -0.017900
v 0.027565 0.170285 -0.017034
v 0.026054 0.172210 -0.017282
v 0.026701 0.175193 -0.017109
v 0.031622 0.173349 -0.018266
v 0.030784 0.172211 -0.017500
v 0.017944 0.184433 -0.014997
v 0.016939 0.181694 -0.011856
v 0.029433 0.170392 -0.016560
v 0.029738 0.172777 -0.016395
v 0.019561 0.177340 -0.017891
v 0.018084 0.183487 -0.013170
v 0.018173 0.175200 -0.017214
v 0.016971 0.172635 -0.016974
v 0.019513 0.182144 -0.013465
v 0.018651 0.176653 -0.017253
v 0.018259 0.183676 -0.014176
v 0.019091 0.181564 -0.014648
v 0.018552 0.182700 -0.015457
v 0.017966 0.173587 -0.016154
v 0.018459 0.175983 -0.016401
v 0.019122 0.179150 -0.015443
v 0.018841 0.179346 -0.016069
v 0.018964 0.183599 -0.017265
v 0.018584 0.183343 -0.016257
v 0.019622 0.174460 -0.015360
v 0.018682 0.170776 -0.014559
v 0.019253 0.177088 -0.015525
v 0.018969 0.179712 -0.016861
v 0.019534 0.183912 -0.018237
v 0.019625 0.179955 -0.017645
v 0.021748 0.172050 -0.014633
v 0.021957 0.174483 -0.015382
v 0.025052 0.178782 -0.015609
v 0.022740 0.179462 -0.015138
v 0.024948 0.172772 -0.014827
v 0.023847 0.173432 -0.015679
v 0.025766 0.177633 -0.015950
v 0.020707 0.180848 -0.018407
v 0.022104 0.174252 -0.014035
v 0.025325 0.176695 -0.014077
v 0.025086 0.172505 -0.016378
v 0.026312 0.170926 -0.015908
v 0.026185 0.176336 -0.016393
v 0.022264 0.177161 -0.013738
v 0.021516 0.181635 -0.014044
v 0.027802 0.175579 -0.014557
v 0.028326 0.172094 -0.015516
v 0.028372 0.183766 -0.013525
v 0.029175 0.182259 -0.013035
v 0.028898 0.174608 -0.015484
v 0.025681 0.183579 -0.013321
v 0.028392 0.177095 -0.014830
v 0.026892 0.184096 -0.013935
v 0.020525 0.179697 -0.014933
v 0.027897 0.178113 -0.013964
v 0.028455 0.179507 -0.014459
v 0.023888 0.182150 -0.014494
v 0.025784 0.178770 -0.013197
v 0.028352 0.179444 -0.013099
v 0.029064 0.181619 -0.013795
v 0.026208 0.182669 -0.014828
v 0.020781 0.185757 -0.019231
v 0.022125 0.181902 -0.019147
v 0.030049 0.181120 -0.018911
v 0.030157 0.177989 -0.018718
v 0.029767 0.175814 -0.018334
v 0.029059 0.174244 -0.017663
v 0.028289 0.174639 -0.016702
v -0.027477 0.174531 -0.016011
v -0.028167 0.172633 -0.016542
v -0.001587 0.192919 -0.041294
v -0.002237 0.188862 -0.046086
v -0.006436 0.192537 -0.033184
v -0.004910 0.196742 -0.028153
v -0.003038 0.197102 -0.028470
v -0.003480 0.192209 -0.034628
v -0.028956 0.170906 -0.017348
v -0.029942 0.170398 -0.018325
v -0.004066 0.187630 -0.035163
v -0.003625 0.178609 -0.049556
v -0.004910 0.176727 -0.048250
v -0.003333 0.177408 -0.047251
v -0.002742 0.179374 -0.048998
v -0.021143 0.196240 -0.020462
v -0.017951 0.195100 -0.021971
v -0.018329 0.189075 -0.022059
v -0.021829 0.188479 -0.020076
v -0.016009 0.191440 -0.026135
v -0.015597 0.195208 -0.025739
v -0.017992 0.184100 -0.022304
v -0.020949 0.185147 -0.019886
v -0.017231 0.184847 -0.026263
v -0.030419 0.171883 -0.018996
v -0.004542 0.182468 -0.037560
v -0.002080 0.179506 -0.048790
v -0.030427 0.174022 -0.019370
v -0.002310 0.184791 -0.047950
v -0.006541 0.179872 -0.045649
v -0.004226 0.179485 -0.044997
v -0.004036 0.191383 -0.046432
v -0.003667 0.184590 -0.048706
v -0.018939 0.183584 -0.029643
v -0.021717 0.179045 -0.029331
v -0.019132 0.179250 -0.027885
v -0.017332 0.180301 -0.029333
v -0.024489 0.182791 -0.028933
v -0.027121 0.177746 -0.029146
v -0.028818 0.173113 -0.029654
v -0.022768 0.174502 -0.029856
v -0.018984 0.176559 -0.027857
v -0.029754 0.177192 -0.019540
v -0.022359 0.178994 -0.019633
v -0.003930 0.181494 -0.041213
v -0.024169 0.201462 -0.022033
v -0.022943 0.201762 -0.021187
v -0.023369 0.200446 -0.020724
v -0.024724 0.200235 -0.021713
v -0.029320 0.178527 -0.027016
v -0.030770 0.174910 -0.027143
v -0.027823 0.182385 -0.027296
v -0.005770 0.182423 -0.041640
v -0.006615 0.183512 -0.038194
v -0.004355 0.198748 -0.033107
v -0.005527 0.196985 -0.035398
v -0.001325 0.196953 -0.037749
v -0.001986 0.198440 -0.033348
v -0.018511 0.177851 -0.025971
v -0.016466 0.179194 -0.028178
v -0.018568 0.176127 -0.026114
v -0.007907 0.195498 -0.036182
v -0.003456 0.195896 -0.038881
v -0.022975 0.172608 -0.022590
v -0.025666 0.173594 -0.022358
v -0.025456 0.173549 -0.021977
v -0.022163 0.172595 -0.022160
v -0.020298 0.174179 -0.023737
v -0.019292 0.174258 -0.023788
v -0.019649 0.174438 -0.025502
v -0.018836 0.174504 -0.025887
v -0.028584 0.183734 -0.024628
v -0.029357 0.179301 -0.024824
v -0.030296 0.176515 -0.024835
v -0.028205 0.179987 -0.022230
v -0.028249 0.178314 -0.022711
v -0.028577 0.176435 -0.022853
v -0.020390 0.173953 -0.026973
v -0.019380 0.174525 -0.027632
v -0.023500 0.173519 -0.028008
v -0.023076 0.173090 -0.029571
v -0.027662 0.173288 -0.028130
v -0.028593 0.172005 -0.029417
v -0.027112 0.188652 -0.022279
v -0.029139 0.180492 -0.021080
v -0.027531 0.175607 -0.020875
v -0.026612 0.175153 -0.021315
v -0.029003 0.175181 -0.020369
v -0.030058 0.173629 -0.026275
v -0.031130 0.173201 -0.026989
v -0.025144 0.174148 -0.021595
v -0.029219 0.173485 -0.022982
v -0.029410 0.174070 -0.022817
v -0.030406 0.173681 -0.024394
v -0.031058 0.174033 -0.024590
v -0.032498 0.174619 -0.020467
v -0.032696 0.170709 -0.020142
v -0.028610 0.182351 -0.019970
v -0.032348 0.175494 -0.019878
v -0.026143 0.189774 -0.020901
v -0.003478 0.193329 -0.019232
v -0.020300 0.183063 -0.019669
v -0.025081 0.179298 -0.015383
v -0.003132 0.192603 -0.018112
v -0.023157 0.176922 -0.013632
v -0.022344 0.178794 -0.013878
v -0.020683 0.178336 -0.013758
v -0.021231 0.176208 -0.013786
v -0.024481 0.176644 -0.012513
v -0.023521 0.178788 -0.013198
v -0.027740 0.177880 -0.014407
v -0.007023 0.160538 -0.016023
v -0.008124 0.163206 -0.017345
v -0.011418 0.161802 -0.016915
v -0.010490 0.160175 -0.015811
v -0.010428 0.174061 -0.020501
v -0.007141 0.172753 -0.021511
v -0.006597 0.175703 -0.021533
v -0.010135 0.176320 -0.020605
v -0.023739 0.179891 -0.019807
v -0.024971 0.181156 -0.019739
v -0.018704 0.199891 -0.024491
v -0.020549 0.199796 -0.025571
v -0.019572 0.199682 -0.026859
v -0.018478 0.199728 -0.025964
v -0.007315 0.184657 -0.015660
v -0.009124 0.187252 -0.016266
v -0.008025 0.188086 -0.016981
v -0.006164 0.188512 -0.017246
v -0.024241 0.173489 -0.026959
v -0.022697 0.173455 -0.026100
v -0.021798 0.173540 -0.025037
v -0.026071 0.178671 -0.012476
v -0.025754 0.175439 -0.012619
v -0.027367 0.176155 -0.012658
v -0.026649 0.174169 -0.026645
v -0.006171 0.176777 -0.051276
v -0.007802 0.176054 -0.050509
v -0.006842 0.174289 -0.050286
v -0.005512 0.175124 -0.050990
v -0.028603 0.174519 -0.025743
v -0.025698 0.174263 -0.025333
v -0.014314 0.188708 -0.028955
v -0.015590 0.183014 -0.028391
v -0.017803 0.180530 -0.025992
v -0.028634 0.174268 -0.024583
v -0.028121 0.173979 -0.023345
v -0.007350 0.188004 -0.033419
v -0.025938 0.173912 -0.022829
v -0.011079 0.163516 -0.017994
v -0.012093 0.162740 -0.017545
v -0.008822 0.157698 -0.014706
v -0.006464 0.157533 -0.014740
v -0.022789 0.173275 -0.019907
v -0.024977 0.173143 -0.020380
v -0.026414 0.173483 -0.020171
v -0.027328 0.175787 -0.013712
v -0.025070 0.175438 -0.013769
v -0.028348 0.171600 -0.019739
v -0.022932 0.179078 -0.015010
v -0.027699 0.175821 -0.015075
v -0.006028 0.164391 -0.018281
v -0.005883 0.179919 -0.021456
v -0.009775 0.179292 -0.020506
v -0.027334 0.174494 -0.014579
v -0.020353 0.177027 -0.015398
v -0.017336 0.180021 -0.023482
v -0.016589 0.179817 -0.021474
v -0.017999 0.182776 -0.020617
v -0.017609 0.177808 -0.023777
v -0.016369 0.177208 -0.021871
v -0.007516 0.169610 -0.021616
v -0.025270 0.180659 -0.014494
v -0.007521 0.167163 -0.021023
v -0.028171 0.173393 -0.015461
v -0.016774 0.183823 -0.018609
v -0.015048 0.179795 -0.020378
v -0.013775 0.176481 -0.020532
v -0.007183 0.165505 -0.019755
v -0.024098 0.180303 -0.013861
v -0.012917 0.179913 -0.020026
v -0.013069 0.183850 -0.019336
v -0.012512 0.177735 -0.020354
v -0.029247 0.170812 -0.016141
v -0.027575 0.178519 -0.013644
v -0.003151 0.180187 -0.010972
v -0.003652 0.183126 -0.013758
v -0.026642 0.180139 -0.014111
v -0.003641 0.186667 -0.016060
v -0.003453 0.192907 -0.042377
v -0.029206 0.168350 -0.016181
v -0.027850 0.171943 -0.015188
v -0.007452 0.182071 -0.013531
v -0.006574 0.179161 -0.011200
v -0.026555 0.182464 -0.019725
v -0.024630 0.189348 -0.020148
v -0.019634 0.201279 -0.022717
v -0.021604 0.200433 -0.024366
v -0.008789 0.189794 -0.035705
v -0.006277 0.190784 -0.039730
v -0.005541 0.190334 -0.042842
v -0.009595 0.183358 -0.034795
v -0.021479 0.201861 -0.021832
v -0.022604 0.201131 -0.023333
v -0.022507 0.201830 -0.021828
v -0.023327 0.201555 -0.022591
v -0.006564 0.190556 -0.046083
v -0.024051 0.200925 -0.024743
v -0.024271 0.201368 -0.023578
v -0.023203 0.200178 -0.026086
v -0.008282 0.182595 -0.033527
v -0.021859 0.199720 -0.027013
v -0.020658 0.199523 -0.027625
v -0.009922 0.164944 -0.019521
v -0.010469 0.167237 -0.020447
v -0.008715 0.199191 -0.031698
v -0.010469 0.197340 -0.033066
v -0.008767 0.196093 -0.027494
v -0.010567 0.170833 -0.020602
v -0.013737 0.171874 -0.019984
v -0.013631 0.166694 -0.019919
v -0.012773 0.164301 -0.019620
v -0.017896 0.191040 -0.030945
v -0.014407 0.198456 -0.030750
v -0.017244 0.200102 -0.029470
v -0.019702 0.197598 -0.029832
v -0.015877 0.200349 -0.027880
v -0.012683 0.199605 -0.029622
v -0.018463 0.200016 -0.028256
v -0.017273 0.199998 -0.026729
v -0.020178 0.199077 -0.029125
v -0.006523 0.154393 -0.013445
v -0.020694 0.178869 -0.014517
v -0.016007 0.197501 -0.025019
v -0.016911 0.198998 -0.024576
v -0.009510 0.154610 -0.013861
v -0.011899 0.155978 -0.014514
v -0.014860 0.152829 -0.013502
v -0.011622 0.150530 -0.012712
v -0.016338 0.155402 -0.014791
v -0.013737 0.156433 -0.015335
v -0.007702 0.178125 -0.049416
v -0.007309 0.186422 -0.049065
v -0.006248 0.174987 -0.049583
v -0.022201 0.174260 -0.014252
v -0.016589 0.158251 -0.016061
v -0.014340 0.157896 -0.016106
v -0.014937 0.160613 -0.017685
v -0.017160 0.161467 -0.017623
v -0.014652 0.162571 -0.018806
v -0.005821 0.185788 -0.049553
v -0.005158 0.180811 -0.050269
v -0.007182 0.178466 -0.051069
v -0.004562 0.176711 -0.050395
v -0.026631 0.172890 -0.016990
v -0.007857 0.148551 -0.011770
v -0.007948 0.178357 -0.050596
v -0.012718 0.181137 -0.030928
v -0.011251 0.186590 -0.030918
v -0.013853 0.182070 -0.031902
v -0.008603 0.145327 -0.010305
v -0.012389 0.147835 -0.011006
v -0.017285 0.174190 -0.021307
v -0.016381 0.164416 -0.018865
v -0.018098 0.170522 -0.018697
v -0.018095 0.166141 -0.017232
v -0.017104 0.163280 -0.015428
v -0.027689 0.167422 -0.016544
v -0.026376 0.169164 -0.016980
v -0.008617 0.145622 -0.008931
v -0.012413 0.148212 -0.009453
v -0.006607 0.152963 -0.008598
v -0.025233 0.173393 -0.014654
v -0.010459 0.153783 -0.008814
v -0.023465 0.188317 -0.029137
v -0.022723 0.196359 -0.029070
v -0.026445 0.189791 -0.027533
v -0.025501 0.196345 -0.027768
v -0.008471 0.160606 -0.008476
v -0.004985 0.160417 -0.008250
v -0.022691 0.171339 -0.014565
v -0.003847 0.167059 -0.007376
v -0.021102 0.178118 -0.018873
v -0.007019 0.166952 -0.007665
v -0.002976 0.173018 -0.006970
v -0.025891 0.174258 -0.016530
v -0.012795 0.194123 -0.033489
v -0.024884 0.170266 -0.016251
v -0.002484 0.177163 -0.008385
v -0.013585 0.186986 -0.032443
v -0.004743 0.177206 -0.008737
v -0.005440 0.173438 -0.007162
v -0.022423 0.198996 -0.028545
v -0.006597 0.177399 -0.008868
v -0.008143 0.178091 -0.009603
v -0.024646 0.199094 -0.027439
v -0.003216 0.189608 -0.017262
v -0.025815 0.169473 -0.015423
v -0.010781 0.183857 -0.014287
v -0.010466 0.185675 -0.015318
v -0.010992 0.181441 -0.012646
v -0.020929 0.200204 -0.020521
v -0.017748 0.198781 -0.021805
v -0.018370 0.200776 -0.022028
v -0.021047 0.201826 -0.020888
v -0.010381 0.179765 -0.011345
v -0.009814 0.178627 -0.010246
v -0.007731 0.174632 -0.007839
v -0.010040 0.175972 -0.008652
v -0.026210 0.197783 -0.025638
v -0.027025 0.192572 -0.025369
v -0.025411 0.200121 -0.025488
v -0.025672 0.199376 -0.023375
v -0.026154 0.195416 -0.023097
v -0.025100 0.201011 -0.023501
v -0.011983 0.177540 -0.009781
v -0.006448 0.191804 -0.017965
v -0.009227 0.190444 -0.017293
v -0.025119 0.196600 -0.021518
v -0.011078 0.189283 -0.016470
v -0.013084 0.189741 -0.017416
v -0.010776 0.191432 -0.018317
v -0.012194 0.186655 -0.015352
v -0.014219 0.187635 -0.016049
v -0.012673 0.184696 -0.014052
v -0.023761 0.196439 -0.020536
v -0.012964 0.181678 -0.012404
v -0.012878 0.179499 -0.011077
v -0.014967 0.182183 -0.013058
v -0.014543 0.185193 -0.014563
v -0.012219 0.195008 -0.027452
v -0.016022 0.182875 -0.014418
v -0.015861 0.184874 -0.015630
v -0.010151 0.191351 -0.031034
v -0.015744 0.186938 -0.016774
v -0.007311 0.192641 -0.018955
v 0.000477 0.191184 -0.020443
v -0.004013 0.190364 -0.020165
v -0.008021 0.189537 -0.019662
v -0.018297 0.175188 -0.023534
v -0.012021 0.188911 -0.018932
v -0.014836 0.188234 -0.017881
v -0.021912 0.173311 -0.023928
v -0.022529 0.176502 -0.015649
v -0.024927 0.175514 -0.016169
v -0.004909 0.185443 -0.020928
v -0.021378 0.173141 -0.021611
v -0.024004 0.173213 -0.023292
v -0.009021 0.184009 -0.020214
v -0.019572 0.174053 -0.020335
v -0.015692 0.152880 -0.012046
v -0.014625 0.153536 -0.010244
v -0.016886 0.159255 -0.013032
v -0.020058 0.172891 -0.018769
v -0.018508 0.167422 -0.015584
v -0.017550 0.164384 -0.013369
v -0.024936 0.173886 -0.024196
v -0.016204 0.158736 -0.011083
v -0.017792 0.164297 -0.012223
v -0.017166 0.167213 -0.011572
v -0.015196 0.160651 -0.010134
v -0.019740 0.169688 -0.013427
v -0.019636 0.167363 -0.013963
v -0.033066 0.171219 -0.019559
v -0.013121 0.156207 -0.009283
v -0.024003 0.174035 -0.019566
v -0.022376 0.174025 -0.019078
v -0.020672 0.173827 -0.018516
v -0.009802 0.167517 -0.008244
v -0.025507 0.174300 -0.019643
v -0.011304 0.161607 -0.008895
v -0.013759 0.164679 -0.009647
v -0.012274 0.169686 -0.009051
v -0.027073 0.172374 -0.019413
v -0.032389 0.167248 -0.019289
v -0.029825 0.166940 -0.018792
v -0.028080 0.168969 -0.018654
v -0.032095 0.165503 -0.018435
v -0.015986 0.171209 -0.011098
v -0.025175 0.177219 -0.019519
v -0.023409 0.176390 -0.019456
v -0.021961 0.175590 -0.018907
v -0.014365 0.174582 -0.010406
v -0.028098 0.173522 -0.019062
v -0.027800 0.175389 -0.019258
v -0.027231 0.177611 -0.019463
v -0.019081 0.173394 -0.013012
v -0.018259 0.178006 -0.012938
v -0.016913 0.183130 -0.016301
v -0.017050 0.183801 -0.017381
v -0.028234 0.171435 -0.018525
v -0.029221 0.166602 -0.017698
v -0.027534 0.168731 -0.017905
v -0.027491 0.171662 -0.017723
v -0.032552 0.169163 -0.018976
v -0.031855 0.168131 -0.018206
v -0.016953 0.182145 -0.015385
v -0.015790 0.179550 -0.012230
v -0.030773 0.166481 -0.017256
v -0.030561 0.168847 -0.017080
v -0.020665 0.174725 -0.018354
v -0.016852 0.181196 -0.013562
v -0.019659 0.172748 -0.017662
v -0.019027 0.170309 -0.017410
v -0.018555 0.179650 -0.013894
v -0.019804 0.174155 -0.017701
v -0.017217 0.181350 -0.014572
v -0.018550 0.179102 -0.015074
v -0.017997 0.180309 -0.015866
v -0.019525 0.171159 -0.016605
v -0.019547 0.173516 -0.016849
v -0.019267 0.176647 -0.015885
v -0.019116 0.176872 -0.016504
v -0.018620 0.181139 -0.017680
v -0.018083 0.180943 -0.016665
v -0.020677 0.171845 -0.015840
v -0.020328 0.168255 -0.015039
v -0.019835 0.174544 -0.015981
v -0.019354 0.177214 -0.017298
v -0.019310 0.181369 -0.018662
v -0.020105 0.177364 -0.018094
v -0.022948 0.169152 -0.015171
v -0.022852 0.171572 -0.015909
f 348 341 3
f 348 3 4
f 5 6 7
f 5 7 8
f 298 288 11
f 298 11 8
f 12 13 14
f 12 14 15
f 16 17 18
f 16 18 19
f 20 18 17
f 20 17 21
f 22 23 19
f 22 19 18
f 24 22 18
f 24 18 20
f 288 25 26
f 288 26 11
f 490 283 29
f 490 29 15
f 13 30 31
f 13 31 14
f 32 33 29
f 32 29 4
f 34 35 36
f 34 36 37
f 34 38 39
f 34 39 35
f 40 41 35
f 40 35 39
f 41 42 36
f 41 36 35
f 281 273 31
f 281 31 45
f 321 330 328
f 321 328 319
f 40 39 50
f 40 50 51
f 52 50 39
f 52 39 38
f 53 54 26
f 53 26 45
f 55 56 57
f 55 57 58
f 59 60 37
f 59 37 36
f 59 36 42
f 59 42 61
f 62 63 57
f 62 57 56
f 64 65 66
f 64 66 67
f 68 64 67
f 68 67 69
f 70 68 69
f 70 69 71
f 72 73 50
f 72 50 52
f 51 50 73
f 51 73 74
f 72 75 76
f 72 76 73
f 74 73 76
f 74 76 77
f 78 70 71
f 78 71 79
f 80 78 79
f 80 79 81
f 82 80 81
f 82 81 83
f 72 84 85
f 72 85 75
f 75 86 87
f 75 87 76
f 85 88 86
f 85 86 75
f 89 82 83
f 89 83 90
f 91 77 76
f 91 76 87
f 65 92 93
f 65 93 66
f 94 89 90
f 94 90 95
f 92 94 95
f 92 95 93
f 85 96 97
f 85 97 88
f 98 99 96
f 98 96 85
f 85 84 100
f 85 100 98
f 101 269 268
f 101 268 104
f 105 106 107
f 105 107 108
f 95 74 77
f 95 77 93
f 90 51 74
f 90 74 95
f 109 110 106
f 109 106 105
f 93 77 91
f 93 91 66
f 255 298 8
f 255 8 7
f 112 113 114
f 112 114 115
f 83 40 51
f 83 51 90
f 81 41 40
f 81 40 83
f 116 117 118
f 116 118 119
f 81 79 42
f 81 42 41
f 19 23 120
f 19 120 121
f 79 71 61
f 79 61 42
f 122 123 124
f 122 124 125
f 126 127 128
f 126 128 129
f 78 80 130
f 78 130 131
f 78 131 132
f 78 132 70
f 133 109 134
f 133 134 135
f 80 82 136
f 80 136 130
f 137 138 139
f 137 139 140
f 89 141 136
f 89 136 82
f 131 130 136
f 131 136 142
f 24 143 144
f 24 144 145
f 94 146 141
f 94 141 89
f 92 147 146
f 92 146 94
f 148 5 8
f 148 8 11
f 65 149 147
f 65 147 92
f 113 150 151
f 113 151 114
f 115 152 153
f 115 153 112
f 154 91 87
f 154 87 155
f 155 87 86
f 155 86 156
f 112 153 245
f 112 245 233
f 159 156 86
f 159 86 88
f 192 191 162
f 192 162 113
f 113 112 233
f 113 233 192
f 119 118 163
f 119 163 164
f 117 188 185
f 117 185 118
f 22 24 145
f 22 145 167
f 167 168 169
f 167 169 22
f 168 167 170
f 168 170 171
f 167 145 59
f 167 59 170
f 188 117 172
f 188 172 184
f 184 172 174
f 184 174 180
f 176 169 168
f 176 168 177
f 171 178 177
f 171 177 168
f 180 174 179
f 180 179 175
f 191 175 179
f 191 179 162
f 176 177 181
f 176 181 182
f 178 183 181
f 178 181 177
f 173 166 186
f 173 186 187
f 165 173 187
f 165 187 189
f 6 55 58
f 6 58 7
f 63 190 3
f 63 3 57
f 161 58 57
f 161 57 160
f 160 57 3
f 160 3 341
f 189 187 193
f 189 193 126
f 190 32 4
f 190 4 3
f 186 194 193
f 186 193 187
f 19 121 195
f 19 195 196
f 196 195 98
f 196 98 100
f 197 198 123
f 197 123 122
f 63 62 199
f 63 199 200
f 63 200 201
f 63 201 190
f 201 200 54
f 201 54 53
f 200 199 202
f 200 202 54
f 197 203 204
f 197 204 198
f 204 203 205
f 204 205 206
f 53 30 207
f 53 207 201
f 190 201 207
f 190 207 32
f 208 204 206
f 208 206 209
f 210 198 204
f 210 204 208
f 281 45 26
f 281 26 25
f 54 202 211
f 54 211 26
f 212 213 124
f 212 124 123
f 53 45 31
f 53 31 30
f 210 212 123
f 210 123 198
f 255 7 58
f 255 58 161
f 113 162 179
f 113 179 214
f 174 215 214
f 174 214 179
f 55 216 217
f 55 217 56
f 216 55 6
f 216 6 218
f 117 116 219
f 117 219 172
f 219 215 174
f 219 174 172
f 220 221 215
f 220 215 219
f 113 214 222
f 113 222 150
f 223 224 225
f 223 225 226
f 227 225 224
f 227 224 228
f 229 230 125
f 229 125 124
f 231 229 124
f 231 124 213
f 221 222 214
f 221 214 215
f 153 232 158
f 153 158 245
f 228 21 234
f 228 234 227
f 230 235 122
f 230 122 125
f 232 153 152
f 232 152 236
f 283 348 4
f 283 4 29
f 115 237 236
f 115 236 152
f 236 237 238
f 236 238 239
f 240 238 237
f 240 237 241
f 207 30 242
f 207 242 243
f 30 13 244
f 30 244 242
f 273 157 14
f 273 14 31
f 246 240 241
f 246 241 247
f 33 12 15
f 33 15 29
f 247 241 237
f 247 237 115
f 248 247 115
f 248 115 114
f 249 246 247
f 249 247 248
f 250 151 150
f 250 150 222
f 32 251 252
f 32 252 33
f 251 253 137
f 251 137 252
f 33 252 254
f 33 254 12
f 252 137 140
f 252 140 254
f 114 151 250
f 114 250 248
f 111 158 232
f 111 232 256
f 243 242 138
f 243 138 257
f 242 244 139
f 242 139 138
f 211 148 11
f 211 11 26
f 239 256 232
f 239 232 236
f 258 259 148
f 258 148 211
f 259 258 60
f 259 60 144
f 211 202 260
f 211 260 258
f 60 258 260
f 60 260 37
f 261 256 239
f 261 239 262
f 263 264 221
f 263 221 220
f 264 250 222
f 264 222 221
f 264 249 248
f 264 248 250
f 265 266 249
f 265 249 264
f 157 490 15
f 157 15 14
f 267 246 249
f 267 249 266
f 244 13 12
f 244 12 254
f 103 111 256
f 103 256 261
f 254 140 139
f 254 139 244
f 102 103 261
f 102 261 270
f 271 270 261
f 271 261 262
f 270 272 44
f 270 44 102
f 271 274 272
f 271 272 270
f 34 223 275
f 34 275 38
f 223 226 276
f 223 276 275
f 277 52 38
f 277 38 275
f 275 276 278
f 275 278 277
f 274 279 280
f 274 280 272
f 32 207 243
f 32 243 251
f 272 280 43
f 272 43 44
f 251 243 257
f 251 257 253
f 282 28 43
f 282 43 280
f 280 279 284
f 280 284 282
f 282 285 27
f 282 27 28
f 56 217 287
f 56 287 62
f 223 287 217
f 223 217 224
f 224 217 216
f 224 216 228
f 186 166 10
f 186 10 289
f 27 285 289
f 27 289 10
f 62 287 290
f 62 290 199
f 290 260 202
f 290 202 199
f 194 186 289
f 194 289 291
f 285 282 284
f 285 284 292
f 223 34 290
f 223 290 287
f 34 37 260
f 34 260 290
f 285 292 291
f 285 291 289
f 231 213 212
f 231 212 293
f 291 294 295
f 291 295 194
f 293 212 210
f 293 210 296
f 126 129 297
f 126 297 189
f 189 297 9
f 189 9 165
f 126 299 300
f 126 300 127
f 126 193 301
f 126 301 299
f 17 16 302
f 17 302 303
f 304 305 203
f 304 203 197
f 21 17 303
f 21 303 234
f 235 304 197
f 235 197 122
f 306 194 295
f 306 295 307
f 194 306 301
f 194 301 193
f 292 308 294
f 292 294 291
f 309 295 294
f 309 294 308
f 310 311 277
f 310 277 278
f 296 210 208
f 296 208 312
f 311 310 313
f 311 313 314
f 315 312 208
f 315 208 209
f 316 307 295
f 316 295 309
f 268 9 297
f 268 297 104
f 311 72 52
f 311 52 277
f 72 311 314
f 72 314 84
f 317 104 297
f 317 297 129
f 318 317 129
f 318 129 128
f 314 313 319
f 314 319 320
f 321 315 209
f 321 209 206
f 322 318 128
f 322 128 127
f 320 100 84
f 320 84 314
f 323 324 318
f 323 318 322
f 127 300 325
f 127 325 322
f 323 322 325
f 323 325 326
f 325 300 299
f 325 299 327
f 328 302 16
f 328 16 329
f 319 328 329
f 319 329 320
f 321 206 205
f 321 205 330
f 330 205 203
f 330 203 305
f 327 299 301
f 327 301 331
f 332 306 307
f 332 307 316
f 320 329 196
f 320 196 100
f 329 16 19
f 329 19 196
f 331 301 306
f 331 306 332
f 333 334 327
f 333 327 331
f 228 216 218
f 228 218 335
f 228 335 20
f 228 20 21
f 326 325 327
f 326 327 334
f 333 336 337
f 333 337 334
f 143 335 218
f 143 218 338
f 218 6 5
f 218 5 338
f 334 337 339
f 334 339 326
f 335 143 24
f 335 24 20
f 340 101 104
f 340 104 317
f 338 5 148
f 338 148 259
f 324 340 317
f 324 317 318
f 144 143 338
f 144 338 259
f 800 269 101
f 800 101 342
f 59 145 144
f 59 144 60
f 342 101 340
f 342 340 343
f 170 59 61
f 170 61 344
f 345 343 340
f 345 340 324
f 344 61 71
f 344 71 69
f 323 326 339
f 323 339 346
f 68 70 132
f 68 132 347
f 346 345 324
f 346 324 323
f 171 170 344
f 171 344 263
f 118 185 1
f 118 1 163
f 163 1 349
f 163 349 350
f 344 69 67
f 344 67 351
f 68 347 352
f 68 352 64
f 350 349 800
f 350 800 342
f 353 350 342
f 353 342 343
f 350 353 164
f 350 164 163
f 344 351 354
f 344 354 263
f 351 67 66
f 351 66 91
f 91 154 354
f 91 354 351
f 181 183 119
f 181 119 164
f 64 352 149
f 64 149 65
f 345 182 353
f 345 353 343
f 263 220 178
f 263 178 171
f 164 353 182
f 164 182 181
f 355 262 239
f 355 239 238
f 178 220 219
f 178 219 116
f 178 116 119
f 178 119 183
f 356 271 262
f 356 262 355
f 357 240 246
f 357 246 267
f 264 263 354
f 264 354 265
f 154 358 265
f 154 265 354
f 357 355 238
f 357 238 240
f 359 360 357
f 359 357 267
f 361 132 131
f 361 131 142
f 132 361 352
f 132 352 347
f 355 357 362
f 355 362 356
f 147 149 352
f 147 352 361
f 363 362 357
f 363 357 360
f 147 361 142
f 147 142 146
f 364 365 362
f 364 362 363
f 146 142 136
f 146 136 141
f 366 363 360
f 366 360 367
f 97 96 99
f 97 99 368
f 274 271 356
f 274 356 369
f 365 369 356
f 365 356 362
f 154 155 370
f 154 370 371
f 154 371 372
f 154 372 358
f 373 308 292
f 373 292 284
f 155 156 374
f 155 374 370
f 279 274 369
f 279 369 375
f 284 279 375
f 284 375 373
f 369 365 376
f 369 376 375
f 308 373 377
f 308 377 309
f 374 156 159
f 374 159 378
f 88 97 379
f 88 379 159
f 380 381 378
f 380 378 159
f 159 379 382
f 159 382 380
f 375 376 377
f 375 377 373
f 365 364 383
f 365 383 376
f 384 385 370
f 384 370 374
f 371 370 385
f 371 385 386
f 377 387 316
f 377 316 309
f 387 377 376
f 387 376 383
f 374 378 388
f 374 388 389
f 374 389 390
f 374 390 384
f 363 366 391
f 363 391 364
f 392 383 364
f 392 364 391
f 339 337 393
f 339 393 394
f 381 395 388
f 381 388 378
f 380 396 397
f 380 397 381
f 395 381 397
f 395 397 398
f 176 182 345
f 176 345 346
f 176 346 339
f 176 339 394
f 379 97 368
f 379 368 399
f 399 400 382
f 399 382 379
f 337 336 401
f 337 401 393
f 402 333 331
f 402 331 332
f 403 396 380
f 403 380 382
f 382 400 404
f 382 404 403
f 402 332 316
f 402 316 387
f 386 405 372
f 386 372 371
f 392 402 387
f 392 387 383
f 333 402 406
f 333 406 336
f 358 372 407
f 358 407 408
f 266 265 358
f 266 358 408
f 402 392 409
f 402 409 406
f 372 405 410
f 372 410 407
f 336 406 411
f 336 411 401
f 412 413 401
f 412 401 411
f 408 407 414
f 408 414 359
f 414 407 410
f 414 410 415
f 412 411 406
f 412 406 409
f 267 266 408
f 267 408 359
f 413 412 416
f 413 416 417
f 418 394 393
f 418 393 419
f 359 414 420
f 359 420 421
f 414 415 422
f 414 422 420
f 393 401 413
f 393 413 419
f 423 419 413
f 423 413 417
f 424 176 394
f 424 394 418
f 419 423 425
f 419 425 418
f 426 421 420
f 426 420 427
f 428 427 420
f 428 420 429
f 430 426 427
f 430 427 431
f 427 428 432
f 427 432 431
f 418 425 433
f 418 433 424
f 405 386 433
f 405 433 425
f 434 367 421
f 434 421 426
f 435 434 426
f 435 426 430
f 423 410 405
f 423 405 425
f 410 423 417
f 410 417 415
f 430 431 436
f 430 436 437
f 431 432 438
f 431 438 436
f 415 417 416
f 415 416 422
f 439 108 391
f 439 391 366
f 437 436 397
f 437 397 396
f 436 438 398
f 436 398 397
f 392 391 108
f 392 108 107
f 392 107 440
f 392 440 409
f 441 430 437
f 441 437 442
f 437 396 403
f 437 403 442
f 443 133 135
f 443 135 444
f 442 403 404
f 442 404 445
f 133 446 110
f 133 110 109
f 442 445 447
f 442 447 441
f 133 443 448
f 133 448 446
f 412 449 422
f 412 422 416
f 430 441 450
f 430 450 435
f 450 441 447
f 450 447 451
f 449 412 409
f 449 409 440
f 452 106 110
f 452 110 446
f 453 439 434
f 453 434 435
f 367 434 439
f 367 439 366
f 452 440 107
f 452 107 106
f 435 450 454
f 435 454 453
f 440 452 429
f 440 429 449
f 455 454 450
f 455 450 451
f 452 446 448
f 452 448 456
f 428 429 452
f 428 452 456
f 359 421 367
f 359 367 360
f 429 420 422
f 429 422 449
f 22 169 457
f 22 457 23
f 138 137 253
f 138 253 257
f 176 424 457
f 176 457 169
f 457 424 433
f 457 433 458
f 99 98 195
f 99 195 459
f 368 99 459
f 368 459 460
f 23 457 458
f 23 458 120
f 368 460 461
f 368 461 399
f 390 121 120
f 390 120 384
f 399 461 462
f 399 462 400
f 385 458 433
f 385 433 386
f 384 120 458
f 384 458 385
f 445 404 463
f 445 463 49
f 447 445 49
f 447 49 48
f 459 195 121
f 459 121 390
f 451 447 48
f 451 48 47
f 390 389 460
f 390 460 459
f 455 451 47
f 455 47 46
f 456 448 443
f 456 443 46
f 428 456 46
f 428 46 47
f 47 48 432
f 47 432 428
f 453 454 135
f 453 135 134
f 453 105 108
f 453 108 439
f 105 453 134
f 105 134 109
f 48 49 438
f 48 438 432
f 135 454 455
f 135 455 444
f 49 463 398
f 49 398 438
f 46 443 444
f 46 444 455
f 462 395 398
f 462 398 463
f 400 462 463
f 400 463 404
f 460 389 388
f 460 388 461
f 461 388 395
f 461 395 462
f 229 231 226
f 229 226 225
f 230 229 225
f 230 225 227
f 235 230 227
f 235 227 234
f 231 293 276
f 231 276 226
f 293 296 278
f 293 278 276
f 305 304 303
f 305 303 302
f 304 235 234
f 304 234 303
f 296 312 310
f 296 310 278
f 312 315 313
f 312 313 310
f 315 321 319
f 315 319 313
f 330 305 302
f 330 302 328
f 348 467 466
f 348 466 341
f 468 471 470
f 468 470 469
f 298 471 474
f 298 474 288
f 475 478 477
f 475 477 476
f 479 482 481
f 479 481 480
f 483 484 480
f 483 480 481
f 485 481 482
f 485 482 486
f 487 483 481
f 487 481 485
f 288 474 489
f 288 489 25
f 490 478 492
f 490 492 283
f 476 477 494
f 476 494 493
f 495 467 492
f 495 492 496
f 497 500 499
f 497 499 498
f 497 498 502
f 497 502 501
f 503 502 498
f 503 498 504
f 504 498 499
f 504 499 505
f 281 508 494
f 281 494 273
f 509 512 511
f 509 511 510
f 503 514 513
f 503 513 502
f 515 501 502
f 515 502 513
f 516 508 489
f 516 489 517
f 518 521 520
f 518 520 519
f 522 499 500
f 522 500 523
f 522 524 505
f 522 505 499
f 525 519 520
f 525 520 526
f 527 530 529
f 527 529 528
f 531 532 530
f 531 530 527
f 533 534 532
f 533 532 531
f 535 515 513
f 535 513 536
f 514 537 536
f 514 536 513
f 535 536 539
f 535 539 538
f 537 540 539
f 537 539 536
f 541 542 534
f 541 534 533
f 543 544 542
f 543 542 541
f 545 546 544
f 545 544 543
f 535 538 548
f 535 548 547
f 538 539 550
f 538 550 549
f 548 538 549
f 548 549 551
f 552 553 546
f 552 546 545
f 554 550 539
f 554 539 540
f 528 529 556
f 528 556 555
f 557 558 553
f 557 553 552
f 555 556 558
f 555 558 557
f 548 551 560
f 548 560 559
f 561 548 559
f 561 559 562
f 548 561 563
f 548 563 547
f 564 567 268
f 564 268 269
f 568 571 570
f 568 570 569
f 558 556 540
f 558 540 537
f 553 558 537
f 553 537 514
f 572 568 569
f 572 569 573
f 556 529 554
f 556 554 540
f 255 470 471
f 255 471 298
f 575 578 577
f 575 577 576
f 546 553 514
f 546 514 503
f 544 546 503
f 544 503 504
f 579 582 581
f 579 581 580
f 544 504 505
f 544 505 542
f 482 584 583
f 482 583 486
f 542 505 524
f 542 524 534
f 585 588 587
f 585 587 586
f 589 592 591
f 589 591 590
f 541 594 593
f 541 593 543
f 541 533 595
f 541 595 594
f 596 598 597
f 596 597 572
f 543 593 599
f 543 599 545
f 600 603 602
f 600 602 601
f 552 545 599
f 552 599 604
f 594 605 599
f 594 599 593
f 487 608 607
f 487 607 606
f 557 552 604
f 557 604 609
f 555 557 609
f 555 609 610
f 611 474 471
f 611 471 468
f 528 555 610
f 528 610 612
f 576 577 614
f 576 614 613
f 578 575 616
f 578 616 615
f 617 618 550
f 617 550 554
f 618 619 549
f 618 549 550
f 575 233 245
f 575 245 616
f 622 551 549
f 622 549 619
f 192 576 625
f 192 625 191
f 576 192 233
f 576 233 575
f 582 627 626
f 582 626 581
f 580 581 185
f 580 185 188
f 485 630 608
f 485 608 487
f 630 485 632
f 630 632 631
f 631 634 633
f 631 633 630
f 630 633 522
f 630 522 608
f 188 184 635
f 188 635 580
f 184 180 637
f 184 637 635
f 639 640 631
f 639 631 632
f 634 631 640
f 634 640 641
f 180 175 642
f 180 642 637
f 191 625 642
f 191 642 175
f 639 645 644
f 639 644 640
f 641 640 644
f 641 644 646
f 173 650 649
f 173 649 166
f 165 652 650
f 165 650 173
f 469 470 521
f 469 521 518
f 526 520 466
f 526 466 653
f 161 160 520
f 161 520 521
f 160 341 466
f 160 466 520
f 652 589 656
f 652 656 650
f 653 466 467
f 653 467 495
f 649 650 656
f 649 656 657
f 482 659 658
f 482 658 584
f 659 563 561
f 659 561 658
f 660 585 586
f 660 586 661
f 526 663 662
f 526 662 525
f 526 653 664
f 526 664 663
f 664 516 517
f 664 517 663
f 663 517 665
f 663 665 662
f 660 661 667
f 660 667 666
f 667 669 668
f 667 668 666
f 516 664 670
f 516 670 493
f 653 495 670
f 653 670 664
f 671 672 669
f 671 669 667
f 673 671 667
f 673 667 661
f 281 25 489
f 281 489 508
f 517 489 674
f 517 674 665
f 675 586 587
f 675 587 676
f 516 493 494
f 516 494 508
f 673 661 586
f 673 586 675
f 255 161 521
f 255 521 470
f 576 677 642
f 576 642 625
f 637 642 677
f 637 677 678
f 518 519 680
f 518 680 679
f 679 681 469
f 679 469 518
f 580 635 682
f 580 682 579
f 682 635 637
f 682 637 678
f 683 682 678
f 683 678 684
f 576 613 685
f 576 685 677
f 686 689 688
f 686 688 687
f 690 691 687
f 690 687 688
f 692 587 588
f 692 588 693
f 694 676 587
f 694 587 692
f 684 678 677
f 684 677 685
f 616 245 158
f 616 158 695
f 691 690 697
f 691 697 484
f 693 588 585
f 693 585 698
f 695 699 615
f 695 615 616
f 283 492 467
f 283 467 348
f 578 615 699
f 578 699 700
f 699 702 701
f 699 701 700
f 703 704 700
f 703 700 701
f 670 706 705
f 670 705 493
f 493 705 707
f 493 707 476
f 273 494 477
f 273 477 157
f 709 710 704
f 709 704 703
f 496 492 478
f 496 478 475
f 710 578 700
f 710 700 704
f 711 577 578
f 711 578 710
f 712 711 710
f 712 710 709
f 713 685 613
f 713 613 614
f 495 496 715
f 495 715 714
f 714 715 600
f 714 600 716
f 496 475 717
f 496 717 715
f 715 717 603
f 715 603 600
f 577 711 713
f 577 713 614
f 111 719 695
f 111 695 158
f 706 720 601
f 706 601 705
f 705 601 602
f 705 602 707
f 674 489 474
f 674 474 611
f 702 699 695
f 702 695 719
f 721 674 611
f 721 611 722
f 722 607 523
f 722 523 721
f 674 721 723
f 674 723 665
f 523 500 723
f 523 723 721
f 724 725 702
f 724 702 719
f 726 683 684
f 726 684 727
f 727 684 685
f 727 685 713
f 727 713 711
f 727 711 712
f 728 727 712
f 728 712 729
f 157 477 478
f 157 478 490
f 730 729 712
f 730 712 709
f 707 717 475
f 707 475 476
f 103 724 719
f 103 719 111
f 717 707 602
f 717 602 603
f 102 733 724
f 102 724 103
f 734 725 724
f 734 724 733
f 733 102 44
f 733 44 735
f 734 733 735
f 734 735 737
f 497 501 738
f 497 738 686
f 686 738 739
f 686 739 689
f 740 738 501
f 740 501 515
f 738 740 741
f 738 741 739
f 737 735 743
f 737 743 742
f 495 714 706
f 495 706 670
f 735 44 43
f 735 43 743
f 714 716 720
f 714 720 706
f 745 743 43
f 745 43 28
f 743 745 747
f 743 747 742
f 745 28 27
f 745 27 748
f 519 525 750
f 519 750 680
f 686 687 680
f 686 680 750
f 687 691 679
f 687 679 680
f 649 752 10
f 649 10 166
f 27 10 752
f 27 752 748
f 525 662 753
f 525 753 750
f 753 662 665
f 753 665 723
f 657 754 752
f 657 752 649
f 748 755 747
f 748 747 745
f 686 750 753
f 686 753 497
f 497 753 723
f 497 723 500
f 748 752 754
f 748 754 755
f 694 756 675
f 694 675 676
f 754 657 758
f 754 758 757
f 756 759 673
f 756 673 675
f 589 652 760
f 589 760 592
f 652 165 9
f 652 9 760
f 589 590 763
f 589 763 762
f 589 762 764
f 589 764 656
f 480 766 765
f 480 765 479
f 767 660 666
f 767 666 768
f 484 697 766
f 484 766 480
f 698 585 660
f 698 660 767
f 769 770 758
f 769 758 657
f 657 656 764
f 657 764 769
f 755 754 757
f 755 757 771
f 772 771 757
f 772 757 758
f 773 741 740
f 773 740 774
f 759 775 671
f 759 671 673
f 774 777 776
f 774 776 773
f 778 672 671
f 778 671 775
f 779 772 758
f 779 758 770
f 268 567 760
f 268 760 9
f 774 740 515
f 774 515 535
f 535 547 777
f 535 777 774
f 780 592 760
f 780 760 567
f 781 591 592
f 781 592 780
f 777 782 512
f 777 512 776
f 509 669 672
f 509 672 778
f 783 590 591
f 783 591 781
f 782 777 547
f 782 547 563
f 784 783 781
f 784 781 785
f 590 783 786
f 590 786 763
f 784 787 786
f 784 786 783
f 786 788 762
f 786 762 763
f 511 789 479
f 511 479 765
f 512 782 789
f 512 789 511
f 509 510 668
f 509 668 669
f 510 768 666
f 510 666 668
f 788 790 764
f 788 764 762
f 791 779 770
f 791 770 769
f 782 563 659
f 782 659 789
f 789 659 482
f 789 482 479
f 790 791 769
f 790 769 764
f 792 790 788
f 792 788 793
f 691 794 681
f 691 681 679
f 691 484 483
f 691 483 794
f 787 793 788
f 787 788 786
f 792 793 796
f 792 796 795
f 606 797 681
f 606 681 794
f 681 797 468
f 681 468 469
f 793 787 798
f 793 798 796
f 794 483 487
f 794 487 606
f 799 780 567
f 799 567 564
f 797 722 611
f 797 611 468
f 785 781 780
f 785 780 799
f 607 722 797
f 607 797 606
f 800 801 564
f 800 564 269
f 522 523 607
f 522 607 608
f 801 802 799
f 801 799 564
f 633 803 524
f 633 524 522
f 804 785 799
f 804 799 802
f 803 532 534
f 803 534 524
f 784 805 798
f 784 798 787
f 531 806 595
f 531 595 533
f 805 784 785
f 805 785 804
f 634 726 803
f 634 803 633
f 581 626 1
f 581 1 185
f 626 809 349
f 626 349 1
f 803 810 530
f 803 530 532
f 531 527 811
f 531 811 806
f 809 801 800
f 809 800 349
f 812 802 801
f 812 801 809
f 809 626 627
f 809 627 812
f 803 726 813
f 803 813 810
f 810 554 529
f 810 529 530
f 554 810 813
f 554 813 617
f 644 627 582
f 644 582 646
f 527 528 612
f 527 612 811
f 804 802 812
f 804 812 645
f 726 634 641
f 726 641 683
f 627 644 645
f 627 645 812
f 814 701 702
f 814 702 725
f 641 579 682
f 641 682 683
f 641 646 582
f 641 582 579
f 815 814 725
f 815 725 734
f 816 730 709
f 816 709 703
f 727 728 813
f 727 813 726
f 617 813 728
f 617 728 817
f 816 703 701
f 816 701 814
f 818 730 816
f 818 816 819
f 820 605 594
f 820 594 595
f 595 806 811
f 595 811 820
f 814 815 821
f 814 821 816
f 610 820 811
f 610 811 612
f 822 819 816
f 822 816 821
f 610 609 605
f 610 605 820
f 823 822 821
f 823 821 824
f 609 604 599
f 609 599 605
f 825 826 819
f 825 819 822
f 560 827 562
f 560 562 559
f 737 828 815
f 737 815 734
f 824 821 815
f 824 815 828
f 617 830 829
f 617 829 618
f 617 817 831
f 617 831 830
f 832 747 755
f 832 755 771
f 618 829 833
f 618 833 619
f 742 834 828
f 742 828 737
f 747 832 834
f 747 834 742
f 828 834 835
f 828 835 824
f 771 772 836
f 771 836 832
f 833 837 622
f 833 622 619
f 551 622 838
f 551 838 560
f 839 622 837
f 839 837 840
f 622 839 841
f 622 841 838
f 834 832 836
f 834 836 835
f 824 835 842
f 824 842 823
f 843 833 829
f 843 829 844
f 830 845 844
f 830 844 829
f 836 772 779
f 836 779 846
f 846 842 835
f 846 835 836
f 833 848 847
f 833 847 837
f 833 843 849
f 833 849 848
f 822 823 850
f 822 850 825
f 851 850 823
f 851 823 842
f 798 853 852
f 798 852 796
f 840 837 847
f 840 847 854
f 839 840 856
f 839 856 855
f 854 857 856
f 854 856 840
f 639 805 804
f 639 804 645
f 639 853 798
f 639 798 805
f 838 858 827
f 838 827 560
f 858 838 841
f 858 841 859
f 796 852 860
f 796 860 795
f 861 791 790
f 861 790 792
f 862 841 839
f 862 839 855
f 841 862 863
f 841 863 859
f 861 846 779
f 861 779 791
f 845 830 831
f 845 831 864
f 851 842 846
f 851 846 861
f 792 795 865
f 792 865 861
f 817 867 866
f 817 866 831
f 729 867 817
f 729 817 728
f 861 865 868
f 861 868 851
f 831 866 869
f 831 869 864
f 795 860 870
f 795 870 865
f 871 870 860
f 871 860 872
f 867 818 873
f 867 873 866
f 873 874 869
f 873 869 866
f 871 868 865
f 871 865 870
f 730 818 867
f 730 867 729
f 872 876 875
f 872 875 871
f 877 878 852
f 877 852 853
f 818 880 879
f 818 879 873
f 873 879 881
f 873 881 874
f 852 878 872
f 852 872 860
f 882 876 872
f 882 872 878
f 883 877 853
f 883 853 639
f 878 877 884
f 878 884 882
f 885 886 879
f 885 879 880
f 808 807 879
f 808 879 886
f 761 751 886
f 761 886 885
f 886 751 749
f 886 749 808
f 877 883 746
f 877 746 884
f 864 884 746
f 864 746 845
f 744 885 880
f 744 880 826
f 736 761 885
f 736 885 744
f 882 884 864
f 882 864 869
f 869 874 876
f 869 876 882
f 761 731 732
f 761 732 751
f 751 732 718
f 751 718 749
f 874 881 875
f 874 875 876
f 708 825 850
f 708 850 571
f 731 855 856
f 731 856 732
f 732 856 857
f 732 857 718
f 851 570 571
f 851 571 850
f 851 868 696
f 851 696 570
f 655 654 731
f 655 731 761
f 731 654 862
f 731 862 855
f 651 648 598
f 651 598 596
f 654 647 863
f 654 863 862
f 596 572 573
f 596 573 643
f 654 655 638
f 654 638 647
f 596 643 636
f 596 636 651
f 871 875 881
f 871 881 629
f 761 736 628
f 761 628 655
f 628 624 638
f 628 638 655
f 629 696 868
f 629 868 871
f 623 643 573
f 623 573 569
f 621 736 744
f 621 744 708
f 826 825 708
f 826 708 744
f 623 569 570
f 623 570 696
f 736 621 620
f 736 620 628
f 696 629 807
f 696 807 623
f 574 624 628
f 574 628 620
f 623 566 636
f 623 636 643
f 808 566 623
f 808 623 807
f 818 819 826
f 818 826 880
f 807 629 881
f 807 881 879
f 485 486 565
f 485 565 632
f 601 720 716
f 601 716 600
f 639 632 565
f 639 565 883
f 565 507 746
f 565 746 883
f 562 506 658
f 562 658 561
f 827 491 506
f 827 506 562
f 486 583 507
f 486 507 565
f 827 858 488
f 827 488 491
f 849 843 583
f 849 583 584
f 858 859 473
f 858 473 488
f 844 845 746
f 844 746 507
f 843 844 507
f 843 507 583
f 647 465 472
f 647 472 863
f 638 464 465
f 638 465 647
f 506 849 584
f 506 584 658
f 624 286 464
f 624 464 638
f 849 506 491
f 849 491 848
f 574 2 286
f 574 286 624
f 566 2 651
f 566 651 636
f 808 286 2
f 808 2 566
f 286 808 749
f 286 749 464
f 621 597 598
f 621 598 620
f 621 708 571
f 621 571 568
f 568 572 597
f 568 597 621
f 464 749 718
f 464 718 465
f 598 648 574
f 598 574 620
f 465 718 857
f 465 857 472
f 2 574 648
f 2 648 651
f 473 472 857
f 473 857 854
f 859 863 472
f 859 472 473
f 491 488 847
f 491 847 848
f 488 473 854
f 488 854 847
f 692 688 689
f 692 689 694
f 693 690 688
f 693 688 692
f 698 697 690
f 698 690 693
f 694 689 739
f 694 739 756
f 756 739 741
f 756 741 759
f 768 765 766
f 768 766 767
f 767 766 697
f 767 697 698
f 759 741 773
f 759 773 775
f 775 773 776
f 775 776 778
f 778 776 512
f 778 512 509
f 510 511 765
f 510 765 768
