# C6 posed
v -0.638734 -0.007034 0.448457
v -0.637265 -0.007083 0.449477
v -0.638929 -0.040772 0.481365
v -0.638568 -0.042015 0.487623
v -0.634457 -0.043108 0.463530
v -0.639080 -0.044030 0.462466
v -0.640265 -0.040908 0.462889
v -0.635216 -0.038970 0.464225
v -0.636640 -0.006764 0.450583
v -0.636516 -0.006392 0.451783
v -0.636399 -0.039782 0.468650
v -0.632508 -0.041625 0.494935
v -0.628808 -0.041391 0.495411
v -0.629455 -0.039925 0.494838
v -0.632738 -0.040708 0.494546
v -0.636636 -0.055993 0.445769
v -0.636444 -0.052639 0.449773
v -0.632699 -0.051074 0.451516
v -0.631525 -0.053776 0.448007
v -0.633387 -0.049784 0.456647
v -0.636976 -0.050940 0.454929
v -0.629322 -0.049027 0.453151
v -0.628890 -0.051672 0.449064
v -0.627818 -0.048548 0.458986
v -0.632103 -0.036799 0.477712
v -0.630359 -0.038803 0.477001
v -0.636739 -0.006071 0.453243
v -0.637823 -0.005725 0.454817
v -0.637032 -0.042054 0.492026
v -0.628739 -0.042504 0.490822
v -0.629317 -0.040295 0.491146
v -0.636531 -0.043824 0.488076
v -0.636196 -0.042999 0.492878
v -0.624504 -0.048937 0.466033
v -0.621843 -0.050382 0.465982
v -0.621889 -0.046513 0.466151
v -0.623850 -0.045948 0.467714
v -0.624809 -0.055745 0.462794
v -0.622112 -0.055755 0.463765
v -0.619953 -0.056300 0.464715
v -0.620172 -0.051087 0.466518
v -0.620977 -0.046631 0.466104
v -0.639409 -0.005865 0.455629
v -0.641111 -0.006396 0.455638
v -0.630348 -0.039296 0.483452
v -0.622570 -0.053595 0.440128
v -0.621331 -0.052992 0.441263
v -0.620528 -0.053195 0.442275
v -0.620079 -0.053768 0.443305
v -0.622550 -0.060811 0.459213
v -0.620304 -0.061604 0.459763
v -0.624876 -0.060641 0.459029
v -0.630381 -0.041350 0.483062
v -0.630336 -0.041308 0.478009
v -0.641057 -0.043220 0.465373
v -0.639859 -0.043818 0.467736
v -0.640012 -0.040278 0.474527
v -0.641656 -0.040720 0.466757
v -0.622028 -0.046558 0.462262
v -0.623750 -0.045388 0.465964
v -0.620936 -0.046061 0.463250
v -0.637648 -0.044413 0.469748
v -0.637660 -0.041252 0.475900
v -0.619519 -0.051537 0.459106
v -0.619540 -0.054556 0.456680
v -0.619845 -0.054041 0.455706
v -0.619701 -0.050473 0.458150
v -0.619213 -0.048461 0.461178
v -0.619481 -0.047126 0.460595
v -0.618951 -0.047024 0.463515
v -0.619650 -0.046077 0.463541
v -0.627345 -0.061496 0.453830
v -0.624065 -0.061098 0.454731
v -0.621998 -0.061525 0.454775
v -0.624706 -0.058229 0.451229
v -0.623294 -0.057680 0.452533
v -0.621960 -0.057922 0.453117
v -0.618935 -0.048336 0.465320
v -0.619697 -0.047289 0.465972
v -0.618179 -0.051744 0.465995
v -0.618817 -0.051502 0.466756
v -0.617574 -0.055859 0.464883
v -0.618344 -0.056365 0.465474
v -0.630463 -0.061348 0.449631
v -0.626245 -0.059095 0.448772
v -0.621715 -0.054494 0.450737
v -0.621548 -0.053687 0.452069
v -0.621841 -0.056431 0.449068
v -0.617782 -0.061086 0.459538
v -0.618371 -0.062022 0.460313
v -0.621272 -0.052789 0.453920
v -0.619752 -0.058493 0.454063
v -0.620553 -0.058505 0.453347
v -0.619089 -0.061309 0.454664
v -0.619955 -0.061905 0.454561
v -0.624402 -0.060432 0.447162
v -0.621762 -0.059451 0.447867
v -0.627770 -0.058749 0.446900
v -0.624900 -0.060266 0.445878
v -0.631510 -0.059864 0.447531
v -0.635679 -0.037521 0.450178
v -0.636984 -0.033763 0.451264
v -0.636802 -0.033407 0.449620
v -0.635609 -0.036929 0.448813
v -0.622527 -0.049201 0.438075
v -0.623546 -0.049042 0.438461
v -0.623815 -0.047472 0.438627
v -0.622379 -0.047231 0.438572
v -0.622993 -0.050611 0.436852
v -0.623798 -0.050252 0.437641
v -0.642793 -0.007359 0.455239
v -0.620402 -0.031602 0.447340
v -0.621765 -0.033504 0.450117
v -0.619687 -0.036762 0.448913
v -0.618353 -0.035141 0.446395
v -0.626978 -0.038562 0.453031
v -0.628096 -0.035325 0.454552
v -0.629229 -0.035764 0.453967
v -0.627796 -0.038873 0.452507
v -0.624108 -0.052301 0.448855
v -0.625115 -0.053953 0.448474
v -0.639643 -0.055315 0.451652
v -0.639082 -0.057726 0.452917
v -0.639037 -0.056438 0.455164
v -0.639551 -0.055211 0.453828
v -0.632164 -0.038404 0.444503
v -0.632926 -0.041098 0.444732
v -0.633313 -0.040446 0.445794
v -0.633912 -0.038704 0.446859
v -0.618297 -0.052106 0.464918
v -0.618901 -0.050212 0.464093
v -0.619061 -0.049061 0.462914
v -0.623936 -0.052929 0.436932
v -0.622229 -0.051501 0.436955
v -0.622421 -0.053406 0.437065
v -0.618081 -0.055244 0.463376
v -0.630453 -0.044110 0.497101
v -0.628615 -0.044657 0.496880
v -0.628108 -0.043521 0.496787
v -0.629436 -0.043190 0.497430
v -0.618476 -0.059487 0.459235
v -0.619169 -0.054228 0.461363
v -0.630911 -0.047777 0.461898
v -0.626032 -0.046151 0.464215
v -0.623967 -0.047270 0.460685
v -0.619396 -0.059377 0.456597
v -0.619537 -0.057231 0.456147
v -0.633851 -0.042144 0.467740
v -0.619459 -0.054729 0.457491
v -0.621136 -0.036538 0.450685
v -0.620238 -0.037649 0.450265
v -0.619020 -0.032797 0.444645
v -0.619466 -0.030350 0.445453
v -0.621051 -0.049106 0.451619
v -0.620791 -0.051329 0.450888
v -0.620284 -0.052782 0.449884
v -0.620391 -0.027096 0.446161
v -0.621678 -0.027895 0.448138
v -0.619396 -0.054396 0.448498
v -0.623019 -0.028782 0.450501
v -0.623767 -0.029403 0.452523
v -0.623329 -0.031955 0.452162
v -0.630592 -0.036277 0.453338
v -0.628920 -0.039493 0.451925
v -0.629133 -0.031795 0.455500
v -0.630429 -0.032142 0.454925
v -0.625287 -0.047604 0.456321
v -0.625707 -0.045946 0.452264
v -0.628191 -0.048187 0.450756
v -0.623281 -0.047432 0.457494
v -0.624240 -0.045873 0.452716
v -0.626645 -0.034754 0.455271
v -0.627545 -0.031363 0.456159
v -0.624426 -0.033927 0.455713
v -0.625289 -0.030642 0.456499
v -0.628926 -0.046903 0.447289
v -0.626208 -0.044309 0.450202
v -0.625959 -0.042400 0.451010
v -0.623133 -0.032887 0.454229
v -0.623948 -0.029898 0.454937
v -0.627627 -0.042371 0.450332
v -0.629857 -0.043581 0.449068
v -0.626901 -0.041250 0.450954
v -0.637020 -0.012865 0.455734
v -0.631434 -0.029821 0.440004
v -0.630633 -0.033301 0.439310
v -0.631162 -0.034421 0.442993
v -0.634136 -0.032000 0.446920
v -0.632865 -0.035565 0.446029
v -0.636938 -0.041394 0.481572
v -0.639657 -0.015300 0.455330
v -0.637755 -0.008682 0.448484
v -0.631065 -0.037800 0.441628
v -0.630202 -0.036458 0.438831
v -0.626829 -0.056249 0.447488
v -0.631349 -0.057236 0.447222
v -0.640129 -0.056354 0.448953
v -0.639293 -0.058788 0.451212
v -0.633281 -0.043961 0.471717
v -0.634425 -0.041808 0.476800
v -0.634051 -0.042152 0.482125
v -0.629614 -0.042982 0.473994
v -0.640432 -0.059121 0.446756
v -0.639719 -0.060637 0.449283
v -0.640207 -0.061403 0.446216
v -0.639813 -0.062650 0.447609
v -0.633395 -0.044221 0.488813
v -0.639024 -0.062709 0.451466
v -0.639220 -0.063626 0.449397
v -0.638819 -0.061365 0.453832
v -0.628854 -0.041242 0.473073
v -0.638606 -0.059543 0.455251
v -0.638605 -0.057925 0.456048
v -0.622205 -0.035264 0.453495
v -0.624048 -0.036660 0.454569
v -0.639598 -0.047533 0.462862
v -0.637905 -0.048259 0.464746
v -0.637826 -0.047263 0.461894
v -0.625926 -0.037812 0.453918
v -0.625360 -0.041077 0.452108
v -0.623770 -0.039189 0.452985
v -0.621077 -0.037633 0.452637
v -0.631067 -0.051798 0.462827
v -0.637171 -0.051607 0.461150
v -0.638190 -0.053199 0.458228
v -0.636309 -0.055643 0.459048
v -0.639545 -0.051960 0.456411
v -0.638645 -0.050671 0.459622
v -0.639284 -0.054338 0.457207
v -0.640102 -0.053270 0.455346
v -0.638223 -0.056879 0.457959
v -0.617754 -0.029696 0.444174
v -0.618899 -0.026302 0.444617
v -0.638642 -0.052093 0.453501
v -0.639435 -0.053364 0.452549
v -0.616717 -0.032737 0.444228
v -0.616782 -0.035656 0.444263
v -0.615422 -0.036372 0.443009
v -0.615070 -0.033132 0.442052
v -0.616491 -0.038667 0.443496
v -0.616464 -0.037621 0.444906
v -0.628130 -0.044026 0.495013
v -0.631962 -0.045506 0.493106
v -0.628408 -0.042461 0.496412
v -0.638848 -0.006070 0.447788
v -0.617975 -0.040560 0.445141
v -0.617265 -0.038739 0.446433
v -0.618388 -0.039642 0.448464
v -0.619496 -0.041291 0.447632
v -0.619988 -0.039564 0.451293
v -0.634586 -0.045555 0.493094
v -0.634859 -0.044072 0.493930
v -0.631319 -0.045163 0.496307
v -0.631070 -0.042671 0.496286
v -0.616861 -0.025176 0.442282
v -0.615226 -0.029300 0.442108
v -0.629551 -0.045339 0.496450
v -0.625844 -0.044779 0.468202
v -0.630350 -0.045494 0.465660
v -0.627715 -0.045078 0.469770
v -0.614203 -0.029302 0.440310
v -0.614221 -0.033415 0.440845
v -0.622967 -0.046047 0.452966
v -0.622516 -0.041884 0.451093
v -0.621850 -0.044918 0.450088
v -0.621640 -0.043964 0.445838
v -0.619235 -0.041963 0.443557
v -0.615834 -0.024525 0.440647
v -0.616832 -0.024573 0.438987
v -0.615132 -0.029708 0.438671
v -0.615388 -0.033983 0.439602
v -0.618646 -0.029766 0.437496
v -0.619998 -0.025472 0.437880
v -0.618216 -0.033494 0.437463
v -0.629788 -0.057380 0.460622
v -0.635504 -0.058851 0.458544
v -0.631054 -0.061403 0.457515
v -0.635796 -0.061935 0.456499
v -0.621456 -0.033499 0.436455
v -0.622177 -0.030144 0.436712
v -0.623261 -0.026478 0.437177
v -0.625625 -0.030847 0.435355
v -0.626572 -0.027408 0.435950
v -0.625117 -0.033864 0.434966
v -0.628785 -0.031182 0.433395
v -0.629630 -0.028093 0.433847
v -0.634591 -0.047715 0.466170
v -0.631520 -0.029202 0.436375
v -0.630714 -0.031972 0.435894
v -0.630546 -0.046608 0.468217
v -0.630281 -0.034248 0.435840
v -0.628375 -0.033788 0.433241
v -0.637654 -0.059429 0.457388
v -0.629917 -0.036181 0.435629
v -0.629928 -0.037773 0.436322
v -0.637736 -0.062182 0.455583
v -0.634430 -0.036165 0.447739
v -0.635744 -0.032826 0.448423
v -0.631605 -0.041449 0.442342
v -0.632601 -0.041780 0.443597
v -0.630647 -0.041149 0.440115
v -0.639196 -0.057202 0.444958
v -0.638710 -0.053570 0.448624
v -0.639901 -0.054888 0.448386
v -0.640354 -0.058205 0.445327
v -0.630148 -0.040193 0.438459
v -0.629909 -0.039382 0.436925
v -0.628222 -0.036416 0.433292
v -0.628253 -0.039053 0.434412
v -0.636589 -0.064015 0.453101
v -0.632964 -0.062859 0.453679
v -0.638097 -0.063934 0.452503
v -0.637038 -0.064819 0.449202
v -0.634081 -0.063399 0.449674
v -0.638508 -0.064649 0.449206
v -0.628835 -0.041014 0.435559
v -0.634472 -0.039963 0.447723
v -0.633413 -0.042478 0.445591
v -0.638101 -0.063410 0.446374
v -0.634823 -0.062272 0.447023
v -0.639289 -0.063817 0.446629
v -0.633093 -0.043682 0.444257
v -0.633100 -0.045752 0.444832
v -0.633674 -0.044242 0.446457
v -0.632768 -0.043780 0.442842
v -0.632610 -0.045909 0.443103
v -0.632064 -0.043334 0.441295
v -0.638551 -0.061316 0.444572
v -0.635494 -0.059603 0.445228
v -0.639829 -0.061774 0.445079
v -0.630972 -0.042797 0.439147
v -0.629950 -0.042444 0.436933
v -0.630274 -0.044556 0.439290
v -0.631938 -0.045196 0.441291
v -0.635799 -0.049110 0.460154
v -0.629628 -0.045672 0.440436
v -0.630868 -0.046171 0.442257
v -0.632790 -0.045896 0.463289
v -0.631669 -0.046879 0.443952
v -0.634775 -0.041060 0.448836
v -0.636065 -0.033640 0.452359
v -0.634479 -0.037336 0.451250
v -0.633729 -0.040847 0.449818
v -0.620553 -0.046494 0.458863
v -0.632618 -0.044368 0.447669
v -0.632211 -0.046747 0.445493
v -0.619287 -0.049819 0.461488
v -0.631939 -0.032557 0.454313
v -0.634160 -0.033161 0.453383
v -0.632636 -0.036900 0.452386
v -0.621375 -0.049581 0.456346
v -0.619410 -0.052418 0.459757
v -0.631052 -0.040220 0.450941
v -0.622165 -0.047900 0.453180
v -0.615542 -0.036752 0.441028
v -0.616365 -0.037008 0.439321
v -0.617848 -0.039606 0.441111
v -0.621878 -0.046369 0.448677
v -0.619946 -0.043685 0.443100
v -0.618745 -0.041512 0.440830
v -0.619410 -0.053187 0.460248
v -0.618000 -0.039480 0.439437
v -0.619014 -0.041767 0.439245
v -0.621093 -0.042340 0.437942
v -0.619773 -0.039549 0.438046
v -0.619811 -0.044306 0.439204
v -0.618656 -0.043608 0.440444
v -0.622220 -0.059888 0.446450
v -0.618568 -0.036692 0.437831
v -0.621539 -0.050267 0.449442
v -0.622087 -0.048238 0.449105
v -0.622688 -0.046855 0.447132
v -0.624666 -0.036799 0.434933
v -0.620806 -0.052405 0.448680
v -0.621244 -0.036596 0.436541
v -0.622242 -0.039718 0.436558
v -0.624973 -0.039604 0.435108
v -0.619748 -0.053084 0.448026
v -0.619007 -0.057766 0.447366
v -0.617984 -0.054167 0.447116
v -0.618594 -0.052739 0.447015
v -0.617837 -0.056589 0.446191
v -0.623630 -0.042608 0.436901
v -0.622144 -0.052532 0.448407
v -0.622597 -0.050469 0.448782
v -0.622986 -0.048313 0.448171
v -0.626337 -0.042183 0.436028
v -0.620950 -0.054601 0.447006
v -0.621878 -0.054824 0.447246
v -0.623146 -0.054851 0.447524
v -0.622043 -0.044911 0.438345
v -0.625029 -0.045659 0.438203
v -0.628406 -0.046295 0.443226
v -0.628732 -0.046844 0.445041
v -0.620126 -0.054014 0.446353
v -0.617890 -0.053119 0.445402
v -0.618441 -0.051900 0.446004
v -0.619896 -0.052921 0.445320
v -0.620600 -0.058737 0.446389
v -0.619486 -0.057487 0.445595
v -0.627893 -0.045946 0.441769
v -0.627881 -0.044522 0.437557
v -0.617993 -0.054979 0.444269
v -0.618985 -0.055711 0.443972
v -0.623337 -0.046951 0.446457
v -0.627925 -0.045684 0.439143
v -0.622431 -0.046062 0.444995
v -0.621900 -0.045319 0.445344
v -0.625502 -0.046287 0.439430
v -0.623196 -0.046199 0.444819
v -0.627319 -0.045865 0.440583
v -0.624793 -0.046055 0.441237
v -0.625811 -0.046085 0.442555
v -0.621259 -0.045390 0.443521
v -0.622488 -0.045729 0.443605
v -0.623094 -0.045911 0.442418
v -0.623643 -0.045938 0.443308
v -0.626349 -0.047187 0.445663
v -0.626243 -0.046482 0.443884
v -0.620360 -0.045891 0.442397
v -0.618887 -0.044448 0.441713
v -0.621965 -0.045874 0.442493
v -0.624202 -0.046258 0.444572
v -0.626339 -0.048224 0.447491
v -0.624271 -0.046962 0.446178
v -0.618644 -0.046787 0.441450
v -0.619458 -0.047602 0.442568
v -0.620905 -0.050509 0.442535
v -0.621661 -0.048364 0.441778
v -0.618931 -0.049870 0.441539
v -0.618824 -0.049229 0.443398
v -0.620316 -0.051337 0.443487
v -0.623992 -0.048375 0.447925
v -0.619541 -0.047002 0.440113
v -0.620303 -0.050154 0.439491
v -0.618315 -0.050530 0.444739
v -0.617930 -0.051418 0.443636
v -0.620035 -0.052021 0.444333
v -0.620922 -0.047355 0.439187
v -0.623794 -0.047610 0.439793
v -0.619503 -0.052550 0.440509
v -0.618407 -0.053319 0.442428
v -0.623614 -0.053834 0.438941
v -0.622901 -0.054275 0.438328
v -0.619268 -0.054252 0.442423
v -0.624186 -0.051315 0.438554
v -0.620021 -0.053467 0.441058
v -0.623884 -0.052580 0.439399
v -0.622674 -0.046805 0.441442
v -0.620586 -0.052604 0.439227
v -0.621021 -0.053518 0.440125
v -0.623149 -0.049642 0.440152
v -0.621496 -0.050535 0.438211
v -0.621557 -0.053070 0.438149
v -0.622154 -0.054166 0.439184
v -0.622782 -0.051802 0.440771
v -0.627524 -0.050208 0.449080
v -0.623932 -0.050536 0.448989
v -0.625247 -0.057909 0.446192
v -0.623296 -0.057729 0.446450
v -0.621634 -0.057091 0.446458
v -0.620383 -0.055987 0.445819
v -0.619905 -0.054592 0.444558
v -0.638984 -0.040958 0.487603
v -0.639593 -0.040043 0.481312
v -0.639501 -0.039125 0.481662
v -0.639289 -0.039937 0.487997
v -0.639300 -0.029173 0.466033
v -0.643625 -0.030947 0.464816
v -0.642634 -0.034086 0.464116
v -0.637330 -0.032887 0.465317
v -0.636267 -0.035842 0.464299
v -0.637536 -0.037169 0.469257
v -0.638278 -0.034376 0.469621
v -0.633473 -0.038840 0.495431
v -0.630356 -0.036935 0.496206
v -0.630046 -0.038225 0.495141
v -0.633145 -0.039533 0.494755
v -0.650697 -0.015501 0.453014
v -0.648098 -0.019097 0.455777
v -0.644012 -0.018535 0.457344
v -0.645081 -0.014751 0.454992
v -0.643233 -0.021489 0.461722
v -0.646950 -0.022268 0.460070
v -0.639934 -0.018516 0.458622
v -0.641620 -0.015041 0.455622
v -0.637822 -0.019770 0.464154
v -0.637828 -0.006195 0.446534
v -0.632009 -0.034056 0.477854
v -0.632924 -0.040081 0.494461
v -0.637475 -0.041154 0.491624
v -0.637623 -0.040350 0.492333
v -0.631470 -0.034654 0.492230
v -0.630558 -0.036725 0.491787
v -0.638718 -0.037520 0.489211
v -0.637440 -0.039415 0.493518
v -0.634672 -0.019679 0.471289
v -0.633447 -0.016997 0.471975
v -0.631130 -0.019925 0.470927
v -0.632171 -0.022006 0.472015
v -0.639369 -0.013849 0.470318
v -0.637139 -0.012516 0.471526
v -0.635656 -0.011107 0.472826
v -0.632495 -0.015637 0.472878
v -0.630486 -0.019274 0.471016
v -0.631209 -0.037561 0.483701
v -0.629611 -0.038393 0.491445
v -0.631601 -0.035691 0.484100
v -0.657407 -0.011613 0.455967
v -0.656769 -0.012958 0.453812
v -0.655538 -0.012367 0.453330
v -0.656250 -0.011118 0.455728
v -0.641011 -0.007646 0.468750
v -0.639650 -0.005879 0.469758
v -0.642771 -0.009116 0.468272
v -0.632908 -0.034079 0.484368
v -0.633392 -0.032514 0.479589
v -0.644383 -0.033636 0.467097
v -0.643541 -0.033210 0.469645
v -0.640798 -0.038014 0.474934
v -0.643202 -0.036265 0.467558
v -0.631687 -0.018767 0.467253
v -0.631943 -0.021814 0.470198
v -0.630417 -0.018782 0.468148
v -0.641935 -0.032064 0.471969
v -0.639376 -0.036307 0.476790
v -0.633047 -0.012609 0.466091
v -0.635138 -0.009646 0.464734
v -0.635173 -0.009906 0.463620
v -0.632654 -0.013204 0.464835
v -0.630728 -0.015332 0.467121
v -0.630197 -0.016295 0.466127
v -0.629402 -0.016958 0.468909
v -0.629379 -0.018084 0.468564
v -0.645797 -0.008360 0.463350
v -0.642862 -0.006955 0.464434
v -0.641477 -0.005409 0.464833
v -0.642020 -0.008364 0.460160
v -0.640432 -0.008322 0.461376
v -0.639458 -0.007522 0.462148
v -0.629987 -0.016544 0.471024
v -0.629886 -0.017976 0.471232
v -0.631372 -0.013789 0.472802
v -0.631648 -0.014589 0.473377
v -0.633490 -0.010050 0.473102
v -0.634340 -0.010325 0.473736
v -0.648626 -0.009045 0.458993
v -0.644022 -0.007890 0.457937
v -0.637458 -0.009156 0.458857
v -0.636698 -0.010063 0.459884
v -0.638900 -0.007288 0.457867
v -0.637366 -0.004668 0.469656
v -0.638312 -0.004576 0.470616
v -0.635742 -0.011133 0.461386
v -0.637951 -0.006064 0.463459
v -0.638669 -0.006316 0.462699
v -0.639053 -0.003779 0.464976
v -0.640109 -0.003831 0.464969
v -0.643536 -0.005295 0.457032
v -0.640779 -0.004645 0.457681
v -0.645223 -0.008484 0.455895
v -0.643969 -0.005318 0.455713
v -0.648786 -0.010114 0.456433
v -0.638339 -0.029880 0.451549
v -0.636249 -0.008043 0.445811
v -0.636812 -0.010303 0.447189
v -0.638073 -0.029851 0.450082
v -0.636278 -0.009605 0.445157
v -0.636946 -0.010457 0.445363
v -0.636196 -0.011828 0.445003
v -0.634921 -0.011122 0.445031
v -0.637626 -0.008467 0.444390
v -0.637962 -0.009463 0.444937
v -0.641414 -0.037490 0.463533
v -0.622993 -0.024156 0.448676
v -0.624918 -0.024437 0.451745
v -0.625370 -0.020419 0.451845
v -0.623611 -0.020025 0.449105
v -0.631780 -0.024760 0.455508
v -0.630545 -0.028283 0.455816
v -0.631772 -0.028461 0.455277
v -0.632673 -0.024861 0.455020
v -0.638236 -0.011630 0.456136
v -0.640067 -0.010902 0.456180
v -0.652034 -0.019637 0.458039
v -0.652904 -0.017920 0.460040
v -0.651853 -0.019536 0.461774
v -0.651665 -0.020334 0.460075
v -0.636704 -0.025356 0.446842
v -0.638905 -0.023904 0.447812
v -0.638704 -0.024946 0.448571
v -0.638014 -0.026919 0.448972
v -0.631799 -0.013259 0.471886
v -0.631224 -0.014761 0.470452
v -0.630782 -0.015338 0.468963
v -0.639758 -0.007354 0.445085
v -0.637546 -0.007383 0.444847
v -0.638832 -0.006131 0.445521
v -0.633683 -0.010339 0.471434
v -0.633112 -0.036446 0.498466
v -0.632014 -0.034870 0.498627
v -0.630938 -0.035373 0.498241
v -0.631720 -0.036614 0.498603
v -0.636986 -0.006170 0.468797
v -0.634148 -0.011118 0.469099
v -0.639487 -0.023101 0.466331
v -0.634398 -0.022082 0.468538
v -0.633819 -0.018921 0.465778
v -0.637930 -0.005987 0.466170
v -0.636799 -0.007511 0.465062
v -0.637785 -0.030824 0.469774
v -0.635091 -0.009722 0.465564
v -0.626188 -0.022005 0.453295
v -0.626194 -0.020517 0.453341
v -0.622915 -0.021610 0.446651
v -0.621702 -0.023928 0.446605
v -0.633598 -0.012996 0.458089
v -0.634807 -0.010975 0.458116
v -0.635386 -0.009288 0.457673
v -0.637458 -0.006157 0.448599
v -0.636661 -0.006287 0.447513
v -0.635799 -0.007133 0.456962
v -0.634590 -0.012507 0.447578
v -0.639242 -0.008348 0.447311
v -0.624998 -0.027151 0.453025
v -0.633226 -0.028710 0.454695
v -0.633999 -0.024903 0.454541
v -0.636533 -0.005881 0.449573
v -0.638810 -0.009199 0.446088
v -0.635540 -0.018116 0.461616
v -0.635313 -0.018330 0.457218
v -0.638790 -0.017709 0.456217
v -0.633719 -0.017398 0.462888
v -0.634059 -0.017642 0.457783
v -0.628974 -0.028052 0.456475
v -0.636259 -0.005273 0.451189
v -0.626673 -0.027464 0.456874
v -0.639598 -0.006174 0.446933
v -0.638964 -0.018019 0.452461
v -0.634945 -0.019196 0.454705
v -0.633511 -0.020700 0.454902
v -0.625183 -0.026990 0.455288
v -0.639832 -0.007119 0.447297
v -0.634887 -0.021516 0.454072
v -0.637513 -0.021576 0.453011
v -0.633569 -0.022095 0.454389
v -0.632247 -0.030804 0.443904
v -0.635014 -0.005441 0.450997
v -0.632979 -0.026569 0.440517
v -0.633675 -0.027212 0.444287
v -0.635630 -0.006072 0.448826
v -0.635381 -0.028339 0.447325
v -0.638279 -0.037532 0.482267
v -0.642765 -0.038616 0.467196
v -0.641033 -0.039362 0.474716
v -0.635781 -0.024245 0.444058
v -0.634591 -0.023842 0.441092
v -0.642911 -0.009940 0.455775
v -0.647110 -0.011855 0.455343
v -0.653331 -0.018329 0.455755
v -0.653889 -0.016737 0.458733
v -0.638001 -0.030380 0.474156
v -0.637059 -0.034230 0.478161
v -0.636394 -0.035405 0.483338
v -0.634264 -0.029602 0.476397
v -0.655472 -0.015794 0.454507
v -0.655548 -0.015035 0.457439
v -0.656724 -0.013813 0.454729
v -0.657015 -0.013092 0.456473
v -0.636398 -0.035567 0.490369
v -0.656008 -0.013771 0.460218
v -0.656939 -0.012573 0.458528
v -0.654783 -0.015370 0.462058
v -0.632713 -0.030139 0.475067
v -0.653369 -0.017021 0.462861
v -0.652311 -0.018457 0.463116
v -0.625961 -0.024457 0.455436
v -0.628145 -0.024872 0.456687
v -0.646099 -0.028808 0.466229
v -0.644993 -0.027839 0.468419
v -0.644646 -0.027640 0.465419
v -0.630398 -0.024953 0.456227
v -0.632118 -0.021652 0.455594
v -0.629624 -0.022354 0.456008
v -0.626590 -0.021769 0.455487
v -0.641937 -0.020527 0.468443
v -0.646825 -0.023823 0.466142
v -0.648908 -0.022362 0.463766
v -0.648804 -0.019685 0.465501
v -0.649428 -0.023525 0.461515
v -0.647592 -0.024926 0.464247
v -0.650567 -0.021865 0.463032
v -0.650770 -0.022566 0.460853
v -0.651177 -0.019589 0.464643
v -0.620093 -0.022981 0.445378
v -0.636138 -0.012077 0.446150
v -0.649109 -0.021980 0.458898
v -0.650600 -0.021226 0.458308
v -0.621101 -0.020134 0.446487
v -0.622910 -0.018037 0.447419
v -0.622398 -0.016298 0.446602
v -0.620274 -0.018174 0.444731
v -0.624574 -0.015404 0.447659
v -0.623772 -0.016597 0.448671
v -0.631452 -0.034464 0.496719
v -0.635575 -0.035089 0.494965
v -0.630577 -0.036217 0.497526
v -0.629816 -0.039048 0.494712
v -0.626712 -0.015418 0.449642
v -0.624916 -0.016732 0.450376
v -0.626130 -0.017376 0.452455
v -0.628091 -0.016573 0.452061
v -0.627040 -0.019277 0.454934
v -0.637682 -0.036631 0.494688
v -0.636914 -0.038146 0.494986
v -0.634515 -0.035946 0.497948
v -0.632821 -0.037623 0.497186
v -0.633777 -0.010342 0.445806
v -0.618079 -0.021104 0.443576
v -0.633210 -0.034798 0.498329
v -0.632991 -0.024216 0.471896
v -0.637260 -0.025610 0.469232
v -0.634482 -0.025607 0.473268
v -0.617467 -0.019925 0.441988
v -0.619901 -0.017078 0.443769
v -0.633129 -0.016824 0.458211
v -0.630464 -0.019033 0.455194
v -0.631873 -0.016087 0.455257
v -0.631587 -0.015341 0.450963
v -0.628724 -0.014653 0.448444
v -0.635321 -0.007971 0.452217
v -0.633366 -0.006928 0.451599
v -0.618626 -0.019677 0.440465
v -0.621304 -0.016978 0.442645
v -0.621566 -0.021388 0.438999
v -0.633020 -0.008157 0.452323
v -0.623478 -0.018379 0.440170
v -0.644530 -0.014972 0.468235
v -0.650152 -0.016682 0.466101
v -0.648280 -0.011810 0.466401
v -0.652454 -0.013957 0.465086
v -0.626152 -0.020014 0.438872
v -0.624670 -0.022991 0.437994
v -0.634936 -0.008001 0.447031
v -0.627966 -0.024127 0.436559
v -0.632370 -0.010056 0.446721
v -0.629427 -0.021485 0.437184
v -0.630878 -0.025175 0.434471
v -0.635881 -0.014162 0.454051
v -0.641897 -0.026686 0.469949
v -0.635225 -0.008381 0.451173
v -0.632610 -0.026531 0.436868
v -0.637812 -0.025703 0.471973
v -0.633647 -0.024582 0.437572
v -0.632143 -0.022964 0.435179
v -0.652320 -0.017195 0.464951
v -0.634545 -0.022877 0.438012
v -0.635437 -0.021929 0.439159
v -0.654231 -0.014660 0.464085
v -0.636796 -0.029370 0.448958
v -0.632784 -0.009005 0.450595
v -0.638328 -0.022107 0.445806
v -0.639181 -0.022853 0.446987
v -0.637630 -0.021059 0.443713
v -0.653531 -0.015899 0.452348
v -0.650571 -0.019420 0.454735
v -0.652331 -0.019093 0.454790
v -0.655011 -0.015975 0.452883
v -0.636837 -0.020947 0.441906
v -0.636324 -0.020923 0.440231
v -0.633598 -0.020957 0.436060
v -0.635088 -0.019385 0.437934
v -0.654693 -0.011851 0.462429
v -0.651074 -0.010698 0.463013
v -0.655900 -0.012633 0.461677
v -0.655955 -0.010321 0.458949
v -0.652713 -0.009730 0.459274
v -0.657013 -0.011332 0.458742
v -0.636606 -0.018651 0.439563
v -0.639124 -0.026599 0.450119
v -0.640028 -0.023449 0.448999
v -0.652907 -0.010181 0.456342
v -0.640644 -0.021955 0.448147
v -0.641834 -0.020615 0.449332
v -0.641204 -0.022578 0.450336
v -0.640598 -0.021248 0.446876
v -0.641728 -0.019667 0.447800
v -0.639939 -0.020671 0.445352
v -0.652022 -0.011988 0.453748
v -0.638983 -0.019741 0.443274
v -0.638201 -0.018697 0.441184
v -0.639475 -0.018071 0.444031
v -0.640961 -0.019225 0.445940
v -0.644349 -0.024523 0.464568
v -0.639514 -0.017217 0.445529
v -0.640599 -0.018163 0.447271
v -0.639689 -0.026045 0.466855
v -0.641477 -0.018651 0.449005
v -0.639906 -0.026320 0.451479
v -0.633455 -0.008019 0.449027
v -0.637164 -0.029625 0.452633
v -0.638845 -0.026151 0.452453
v -0.630849 -0.016869 0.464181
v -0.640316 -0.022226 0.451635
v -0.641660 -0.019554 0.450361
v -0.631572 -0.014474 0.467828
v -0.634690 -0.010851 0.448488
v -0.635298 -0.009049 0.449952
v -0.635321 -0.029188 0.453769
v -0.633633 -0.014310 0.462675
v -0.633421 -0.012096 0.466992
v -0.636229 -0.025347 0.453608
v -0.633587 -0.015042 0.459074
v -0.622937 -0.015474 0.444835
v -0.623928 -0.015253 0.443212
v -0.626472 -0.014791 0.445551
v -0.632920 -0.014597 0.454368
v -0.630373 -0.013673 0.448470
v -0.628360 -0.013842 0.445780
v -0.633831 -0.011683 0.467696
v -0.626698 -0.014456 0.443913
v -0.628898 -0.013324 0.444332
v -0.631028 -0.013752 0.443057
v -0.628291 -0.015043 0.442431
v -0.631062 -0.011923 0.444995
v -0.629592 -0.012125 0.446075
v -0.641555 -0.004159 0.456427
v -0.625641 -0.016352 0.441471
v -0.634915 -0.011758 0.456337
v -0.634164 -0.013479 0.455329
v -0.634018 -0.014247 0.452970
v -0.630839 -0.019046 0.438113
v -0.635701 -0.009505 0.456361
v -0.627839 -0.017635 0.439937
v -0.630505 -0.015944 0.440815
v -0.632752 -0.017223 0.439116
v -0.635340 -0.008165 0.456068
v -0.637636 -0.004067 0.456983
v -0.634689 -0.006021 0.455738
v -0.634326 -0.007408 0.455131
v -0.636127 -0.003862 0.455633
v -0.633307 -0.014761 0.441886
v -0.636867 -0.010134 0.455996
v -0.635945 -0.012044 0.455660
v -0.635021 -0.013677 0.454372
v -0.635284 -0.016432 0.440638
v -0.637313 -0.007456 0.455446
v -0.638157 -0.007925 0.455641
v -0.639148 -0.008757 0.455774
v -0.633284 -0.012557 0.444132
v -0.636110 -0.013763 0.443912
v -0.638623 -0.016891 0.448490
v -0.639017 -0.017248 0.450339
v -0.636377 -0.007187 0.454736
v -0.634167 -0.006202 0.453801
v -0.633808 -0.007619 0.453931
v -0.635648 -0.007532 0.453444
v -0.639586 -0.004010 0.456188
v -0.638037 -0.004011 0.455170
v -0.638164 -0.016386 0.447061
v -0.637749 -0.016117 0.442642
v -0.635487 -0.004543 0.453298
v -0.636745 -0.004511 0.453138
v -0.634662 -0.014359 0.452291
v -0.638313 -0.015781 0.444496
v -0.633568 -0.014012 0.450731
v -0.632662 -0.014347 0.450888
v -0.636730 -0.013968 0.445215
v -0.634275 -0.014318 0.450525
v -0.637789 -0.015731 0.445977
v -0.635835 -0.014274 0.446926
v -0.636517 -0.015275 0.448071
v -0.632394 -0.013341 0.449255
v -0.633563 -0.013860 0.449308
v -0.634279 -0.013722 0.448178
v -0.634634 -0.014310 0.448969
v -0.637273 -0.015754 0.451290
v -0.636955 -0.015655 0.449403
v -0.632105 -0.012079 0.448446
v -0.630143 -0.012040 0.447510
v -0.633356 -0.013091 0.448358
v -0.635132 -0.014805 0.450203
v -0.637693 -0.015553 0.453340
v -0.635438 -0.014828 0.451931
v -0.631385 -0.010088 0.448015
v -0.632399 -0.010327 0.449236
f 464 465 3
f 464 3 4
f 5 6 7
f 5 7 8
f 472 473 11
f 472 11 8
f 12 13 14
f 12 14 15
f 16 17 18
f 16 18 19
f 20 18 17
f 20 17 21
f 22 23 19
f 22 19 18
f 24 22 18
f 24 18 20
f 473 25 26
f 473 26 11
f 490 491 29
f 490 29 15
f 13 30 31
f 13 31 14
f 32 33 29
f 32 29 4
f 34 35 36
f 34 36 37
f 34 38 39
f 34 39 35
f 40 41 35
f 40 35 39
f 41 42 36
f 41 36 35
f 506 507 31
f 506 31 45
f 321 330 328
f 321 328 319
f 40 39 50
f 40 50 51
f 52 50 39
f 52 39 38
f 53 54 26
f 53 26 45
f 55 56 57
f 55 57 58
f 59 60 37
f 59 37 36
f 59 36 42
f 59 42 61
f 62 63 57
f 62 57 56
f 64 65 66
f 64 66 67
f 68 64 67
f 68 67 69
f 70 68 69
f 70 69 71
f 72 73 50
f 72 50 52
f 51 50 73
f 51 73 74
f 72 75 76
f 72 76 73
f 74 73 76
f 74 76 77
f 78 70 71
f 78 71 79
f 80 78 79
f 80 79 81
f 82 80 81
f 82 81 83
f 72 84 85
f 72 85 75
f 75 86 87
f 75 87 76
f 85 88 86
f 85 86 75
f 89 82 83
f 89 83 90
f 91 77 76
f 91 76 87
f 65 92 93
f 65 93 66
f 94 89 90
f 94 90 95
f 92 94 95
f 92 95 93
f 85 96 97
f 85 97 88
f 98 99 96
f 98 96 85
f 85 84 100
f 85 100 98
f 101 102 103
f 101 103 104
f 105 106 107
f 105 107 108
f 95 74 77
f 95 77 93
f 90 51 74
f 90 74 95
f 109 110 106
f 109 106 105
f 93 77 91
f 93 91 66
f 574 472 8
f 574 8 7
f 112 113 114
f 112 114 115
f 83 40 51
f 83 51 90
f 81 41 40
f 81 40 83
f 116 117 118
f 116 118 119
f 81 79 42
f 81 42 41
f 19 23 120
f 19 120 121
f 79 71 61
f 79 61 42
f 122 123 124
f 122 124 125
f 126 127 128
f 126 128 129
f 78 80 130
f 78 130 131
f 78 131 132
f 78 132 70
f 133 109 134
f 133 134 135
f 80 82 136
f 80 136 130
f 137 138 139
f 137 139 140
f 89 141 136
f 89 136 82
f 131 130 136
f 131 136 142
f 24 143 144
f 24 144 145
f 94 146 141
f 94 141 89
f 92 147 146
f 92 146 94
f 148 5 8
f 148 8 11
f 65 149 147
f 65 147 92
f 113 150 151
f 113 151 114
f 115 152 153
f 115 153 112
f 154 91 87
f 154 87 155
f 155 87 86
f 155 86 156
f 112 153 157
f 112 157 158
f 159 156 86
f 159 86 88
f 160 161 162
f 160 162 113
f 113 112 158
f 113 158 160
f 119 118 163
f 119 163 164
f 117 165 166
f 117 166 118
f 22 24 145
f 22 145 167
f 167 168 169
f 167 169 22
f 168 167 170
f 168 170 171
f 167 145 59
f 167 59 170
f 165 117 172
f 165 172 173
f 173 172 174
f 173 174 175
f 176 169 168
f 176 168 177
f 171 178 177
f 171 177 168
f 175 174 179
f 175 179 180
f 161 180 179
f 161 179 162
f 176 177 181
f 176 181 182
f 178 183 181
f 178 181 177
f 647 185 186
f 647 186 187
f 188 647 187
f 188 187 189
f 6 55 58
f 6 58 7
f 63 190 3
f 63 3 57
f 654 58 57
f 654 57 655
f 655 57 3
f 655 3 465
f 189 187 193
f 189 193 126
f 190 32 4
f 190 4 3
f 186 194 193
f 186 193 187
f 19 121 195
f 19 195 196
f 196 195 98
f 196 98 100
f 197 198 123
f 197 123 122
f 63 62 199
f 63 199 200
f 63 200 201
f 63 201 190
f 201 200 54
f 201 54 53
f 200 199 202
f 200 202 54
f 197 203 204
f 197 204 198
f 204 203 205
f 204 205 206
f 53 30 207
f 53 207 201
f 190 201 207
f 190 207 32
f 208 204 206
f 208 206 209
f 210 198 204
f 210 204 208
f 506 45 26
f 506 26 25
f 54 202 211
f 54 211 26
f 212 213 124
f 212 124 123
f 53 45 31
f 53 31 30
f 210 212 123
f 210 123 198
f 574 7 58
f 574 58 654
f 113 162 179
f 113 179 214
f 174 215 214
f 174 214 179
f 55 216 217
f 55 217 56
f 216 55 6
f 216 6 218
f 117 116 219
f 117 219 172
f 219 215 174
f 219 174 172
f 220 221 215
f 220 215 219
f 113 214 222
f 113 222 150
f 223 224 225
f 223 225 226
f 227 225 224
f 227 224 228
f 229 230 125
f 229 125 124
f 231 229 124
f 231 124 213
f 221 222 214
f 221 214 215
f 153 232 233
f 153 233 157
f 228 21 234
f 228 234 227
f 230 235 122
f 230 122 125
f 232 153 152
f 232 152 236
f 491 464 4
f 491 4 29
f 115 237 236
f 115 236 152
f 236 237 238
f 236 238 239
f 240 238 237
f 240 237 241
f 207 30 242
f 207 242 243
f 30 13 244
f 30 244 242
f 507 708 14
f 507 14 31
f 246 240 241
f 246 241 247
f 33 12 15
f 33 15 29
f 247 241 237
f 247 237 115
f 248 247 115
f 248 115 114
f 249 246 247
f 249 247 248
f 250 151 150
f 250 150 222
f 32 251 252
f 32 252 33
f 251 253 137
f 251 137 252
f 33 252 254
f 33 254 12
f 252 137 140
f 252 140 254
f 114 151 250
f 114 250 248
f 255 233 232
f 255 232 256
f 243 242 138
f 243 138 257
f 242 244 139
f 242 139 138
f 211 148 11
f 211 11 26
f 239 256 232
f 239 232 236
f 258 259 148
f 258 148 211
f 259 258 60
f 259 60 144
f 211 202 260
f 211 260 258
f 60 258 260
f 60 260 37
f 261 256 239
f 261 239 262
f 263 264 221
f 263 221 220
f 264 250 222
f 264 222 221
f 264 249 248
f 264 248 250
f 265 266 249
f 265 249 264
f 708 490 15
f 708 15 14
f 267 246 249
f 267 249 266
f 244 13 12
f 244 12 254
f 268 255 256
f 268 256 261
f 254 140 139
f 254 139 244
f 269 268 261
f 269 261 270
f 271 270 261
f 271 261 262
f 270 272 273
f 270 273 269
f 271 274 272
f 271 272 270
f 34 223 275
f 34 275 38
f 223 226 276
f 223 276 275
f 277 52 38
f 277 38 275
f 275 276 278
f 275 278 277
f 274 279 280
f 274 280 272
f 32 207 243
f 32 243 251
f 272 280 281
f 272 281 273
f 251 243 257
f 251 257 253
f 282 283 281
f 282 281 280
f 280 279 284
f 280 284 282
f 282 285 286
f 282 286 283
f 56 217 287
f 56 287 62
f 223 287 217
f 223 217 224
f 224 217 216
f 224 216 228
f 186 185 288
f 186 288 289
f 286 285 289
f 286 289 288
f 62 287 290
f 62 290 199
f 290 260 202
f 290 202 199
f 194 186 289
f 194 289 291
f 285 282 284
f 285 284 292
f 223 34 290
f 223 290 287
f 34 37 260
f 34 260 290
f 285 292 291
f 285 291 289
f 231 213 212
f 231 212 293
f 291 294 295
f 291 295 194
f 293 212 210
f 293 210 296
f 126 129 297
f 126 297 189
f 189 297 298
f 189 298 188
f 126 299 300
f 126 300 127
f 126 193 301
f 126 301 299
f 17 16 302
f 17 302 303
f 304 305 203
f 304 203 197
f 21 17 303
f 21 303 234
f 235 304 197
f 235 197 122
f 306 194 295
f 306 295 307
f 194 306 301
f 194 301 193
f 292 308 294
f 292 294 291
f 309 295 294
f 309 294 308
f 310 311 277
f 310 277 278
f 296 210 208
f 296 208 312
f 311 310 313
f 311 313 314
f 315 312 208
f 315 208 209
f 316 307 295
f 316 295 309
f 103 298 297
f 103 297 104
f 311 72 52
f 311 52 277
f 72 311 314
f 72 314 84
f 317 104 297
f 317 297 129
f 318 317 129
f 318 129 128
f 314 313 319
f 314 319 320
f 321 315 209
f 321 209 206
f 322 318 128
f 322 128 127
f 320 100 84
f 320 84 314
f 323 324 318
f 323 318 322
f 127 300 325
f 127 325 322
f 323 322 325
f 323 325 326
f 325 300 299
f 325 299 327
f 328 302 16
f 328 16 329
f 319 328 329
f 319 329 320
f 321 206 205
f 321 205 330
f 330 205 203
f 330 203 305
f 327 299 301
f 327 301 331
f 332 306 307
f 332 307 316
f 320 329 196
f 320 196 100
f 329 16 19
f 329 19 196
f 331 301 306
f 331 306 332
f 333 334 327
f 333 327 331
f 228 216 218
f 228 218 335
f 228 335 20
f 228 20 21
f 326 325 327
f 326 327 334
f 333 336 337
f 333 337 334
f 143 335 218
f 143 218 338
f 218 6 5
f 218 5 338
f 334 337 339
f 334 339 326
f 335 143 24
f 335 24 20
f 340 101 104
f 340 104 317
f 338 5 148
f 338 148 259
f 324 340 317
f 324 317 318
f 144 143 338
f 144 338 259
f 341 102 101
f 341 101 342
f 59 145 144
f 59 144 60
f 342 101 340
f 342 340 343
f 170 59 61
f 170 61 344
f 345 343 340
f 345 340 324
f 344 61 71
f 344 71 69
f 323 326 339
f 323 339 346
f 68 70 132
f 68 132 347
f 346 345 324
f 346 324 323
f 171 170 344
f 171 344 263
f 118 166 348
f 118 348 163
f 163 348 349
f 163 349 350
f 344 69 67
f 344 67 351
f 68 347 352
f 68 352 64
f 350 349 341
f 350 341 342
f 353 350 342
f 353 342 343
f 350 353 164
f 350 164 163
f 344 351 354
f 344 354 263
f 351 67 66
f 351 66 91
f 91 154 354
f 91 354 351
f 181 183 119
f 181 119 164
f 64 352 149
f 64 149 65
f 345 182 353
f 345 353 343
f 263 220 178
f 263 178 171
f 164 353 182
f 164 182 181
f 355 262 239
f 355 239 238
f 178 220 219
f 178 219 116
f 178 116 119
f 178 119 183
f 356 271 262
f 356 262 355
f 357 240 246
f 357 246 267
f 264 263 354
f 264 354 265
f 154 358 265
f 154 265 354
f 357 355 238
f 357 238 240
f 359 360 357
f 359 357 267
f 361 132 131
f 361 131 142
f 132 361 352
f 132 352 347
f 355 357 362
f 355 362 356
f 147 149 352
f 147 352 361
f 363 362 357
f 363 357 360
f 147 361 142
f 147 142 146
f 364 365 362
f 364 362 363
f 146 142 136
f 146 136 141
f 366 363 360
f 366 360 367
f 97 96 99
f 97 99 368
f 274 271 356
f 274 356 369
f 365 369 356
f 365 356 362
f 154 155 370
f 154 370 371
f 154 371 372
f 154 372 358
f 373 308 292
f 373 292 284
f 155 156 374
f 155 374 370
f 279 274 369
f 279 369 375
f 284 279 375
f 284 375 373
f 369 365 376
f 369 376 375
f 308 373 377
f 308 377 309
f 374 156 159
f 374 159 378
f 88 97 379
f 88 379 159
f 380 381 378
f 380 378 159
f 159 379 382
f 159 382 380
f 375 376 377
f 375 377 373
f 365 364 383
f 365 383 376
f 384 385 370
f 384 370 374
f 371 370 385
f 371 385 386
f 377 387 316
f 377 316 309
f 387 377 376
f 387 376 383
f 374 378 388
f 374 388 389
f 374 389 390
f 374 390 384
f 363 366 391
f 363 391 364
f 392 383 364
f 392 364 391
f 339 337 393
f 339 393 394
f 381 395 388
f 381 388 378
f 380 396 397
f 380 397 381
f 395 381 397
f 395 397 398
f 176 182 345
f 176 345 346
f 176 346 339
f 176 339 394
f 379 97 368
f 379 368 399
f 399 400 382
f 399 382 379
f 337 336 401
f 337 401 393
f 402 333 331
f 402 331 332
f 403 396 380
f 403 380 382
f 382 400 404
f 382 404 403
f 402 332 316
f 402 316 387
f 386 405 372
f 386 372 371
f 392 402 387
f 392 387 383
f 333 402 406
f 333 406 336
f 358 372 407
f 358 407 408
f 266 265 358
f 266 358 408
f 402 392 409
f 402 409 406
f 372 405 410
f 372 410 407
f 336 406 411
f 336 411 401
f 412 413 401
f 412 401 411
f 408 407 414
f 408 414 359
f 414 407 410
f 414 410 415
f 412 411 406
f 412 406 409
f 267 266 408
f 267 408 359
f 413 412 416
f 413 416 417
f 418 394 393
f 418 393 419
f 359 414 420
f 359 420 421
f 414 415 422
f 414 422 420
f 393 401 413
f 393 413 419
f 423 419 413
f 423 413 417
f 424 176 394
f 424 394 418
f 419 423 425
f 419 425 418
f 426 421 420
f 426 420 427
f 428 427 420
f 428 420 429
f 430 426 427
f 430 427 431
f 427 428 432
f 427 432 431
f 418 425 433
f 418 433 424
f 405 386 433
f 405 433 425
f 434 367 421
f 434 421 426
f 435 434 426
f 435 426 430
f 423 410 405
f 423 405 425
f 410 423 417
f 410 417 415
f 430 431 436
f 430 436 437
f 431 432 438
f 431 438 436
f 415 417 416
f 415 416 422
f 439 108 391
f 439 391 366
f 437 436 397
f 437 397 396
f 436 438 398
f 436 398 397
f 392 391 108
f 392 108 107
f 392 107 440
f 392 440 409
f 441 430 437
f 441 437 442
f 437 396 403
f 437 403 442
f 443 133 135
f 443 135 444
f 442 403 404
f 442 404 445
f 133 446 110
f 133 110 109
f 442 445 447
f 442 447 441
f 133 443 448
f 133 448 446
f 412 449 422
f 412 422 416
f 430 441 450
f 430 450 435
f 450 441 447
f 450 447 451
f 449 412 409
f 449 409 440
f 452 106 110
f 452 110 446
f 453 439 434
f 453 434 435
f 367 434 439
f 367 439 366
f 452 440 107
f 452 107 106
f 435 450 454
f 435 454 453
f 440 452 429
f 440 429 449
f 455 454 450
f 455 450 451
f 452 446 448
f 452 448 456
f 428 429 452
f 428 452 456
f 359 421 367
f 359 367 360
f 429 420 422
f 429 422 449
f 22 169 457
f 22 457 23
f 138 137 253
f 138 253 257
f 176 424 457
f 176 457 169
f 457 424 433
f 457 433 458
f 99 98 195
f 99 195 459
f 368 99 459
f 368 459 460
f 23 457 458
f 23 458 120
f 368 460 461
f 368 461 399
f 390 121 120
f 390 120 384
f 399 461 462
f 399 462 400
f 385 458 433
f 385 433 386
f 384 120 458
f 384 458 385
f 445 404 463
f 445 463 49
f 447 445 49
f 447 49 48
f 459 195 121
f 459 121 390
f 451 447 48
f 451 48 47
f 390 389 460
f 390 460 459
f 455 451 47
f 455 47 46
f 456 448 443
f 456 443 46
f 428 456 46
f 428 46 47
f 47 48 432
f 47 432 428
f 453 454 135
f 453 135 134
f 453 105 108
f 453 108 439
f 105 453 134
f 105 134 109
f 48 49 438
f 48 438 432
f 135 454 455
f 135 455 444
f 49 463 398
f 49 398 438
f 46 443 444
f 46 444 455
f 462 395 398
f 462 398 463
f 400 462 463
f 400 463 404
f 460 389 388
f 460 388 461
f 461 388 395
f 461 395 462
f 229 231 226
f 229 226 225
f 230 229 225
f 230 225 227
f 235 230 227
f 235 227 234
f 231 293 276
f 231 276 226
f 293 296 278
f 293 278 276
f 305 304 303
f 305 303 302
f 304 235 234
f 304 234 303
f 296 312 310
f 296 310 278
f 312 315 313
f 312 313 310
f 315 321 319
f 315 319 313
f 330 305 302
f 330 302 328
f 464 467 466
f 464 466 465
f 468 471 470
f 468 470 469
f 472 471 474
f 472 474 473
f 475 478 477
f 475 477 476
f 479 482 481
f 479 481 480
f 483 484 480
f 483 480 481
f 485 481 482
f 485 482 486
f 487 483 481
f 487 481 485
f 473 474 489
f 473 489 25
f 490 478 492
f 490 492 491
f 476 477 494
f 476 494 493
f 495 467 492
f 495 492 496
f 497 500 499
f 497 499 498
f 497 498 502
f 497 502 501
f 503 502 498
f 503 498 504
f 504 498 499
f 504 499 505
f 506 508 494
f 506 494 507
f 509 512 511
f 509 511 510
f 503 514 513
f 503 513 502
f 515 501 502
f 515 502 513
f 516 508 489
f 516 489 517
f 518 521 520
f 518 520 519
f 522 499 500
f 522 500 523
f 522 524 505
f 522 505 499
f 525 519 520
f 525 520 526
f 527 530 529
f 527 529 528
f 531 532 530
f 531 530 527
f 533 534 532
f 533 532 531
f 535 515 513
f 535 513 536
f 514 537 536
f 514 536 513
f 535 536 539
f 535 539 538
f 537 540 539
f 537 539 536
f 541 542 534
f 541 534 533
f 543 544 542
f 543 542 541
f 545 546 544
f 545 544 543
f 535 538 548
f 535 548 547
f 538 539 550
f 538 550 549
f 548 538 549
f 548 549 551
f 552 553 546
f 552 546 545
f 554 550 539
f 554 539 540
f 528 529 556
f 528 556 555
f 557 558 553
f 557 553 552
f 555 556 558
f 555 558 557
f 548 551 560
f 548 560 559
f 561 548 559
f 561 559 562
f 548 561 563
f 548 563 547
f 564 567 103
f 564 103 102
f 568 571 570
f 568 570 569
f 558 556 540
f 558 540 537
f 553 558 537
f 553 537 514
f 572 568 569
f 572 569 573
f 556 529 554
f 556 554 540
f 574 470 471
f 574 471 472
f 575 578 577
f 575 577 576
f 546 553 514
f 546 514 503
f 544 546 503
f 544 503 504
f 579 582 581
f 579 581 580
f 544 504 505
f 544 505 542
f 482 584 583
f 482 583 486
f 542 505 524
f 542 524 534
f 585 588 587
f 585 587 586
f 589 592 591
f 589 591 590
f 541 594 593
f 541 593 543
f 541 533 595
f 541 595 594
f 596 598 597
f 596 597 572
f 543 593 599
f 543 599 545
f 600 603 602
f 600 602 601
f 552 545 599
f 552 599 604
f 594 605 599
f 594 599 593
f 487 608 607
f 487 607 606
f 557 552 604
f 557 604 609
f 555 557 609
f 555 609 610
f 611 474 471
f 611 471 468
f 528 555 610
f 528 610 612
f 576 577 614
f 576 614 613
f 578 575 616
f 578 616 615
f 617 618 550
f 617 550 554
f 618 619 549
f 618 549 550
f 575 158 157
f 575 157 616
f 622 551 549
f 622 549 619
f 160 576 625
f 160 625 161
f 576 160 158
f 576 158 575
f 582 627 626
f 582 626 581
f 580 581 166
f 580 166 165
f 485 630 608
f 485 608 487
f 630 485 632
f 630 632 631
f 631 634 633
f 631 633 630
f 630 633 522
f 630 522 608
f 165 173 635
f 165 635 580
f 173 175 637
f 173 637 635
f 639 640 631
f 639 631 632
f 634 631 640
f 634 640 641
f 175 180 642
f 175 642 637
f 161 625 642
f 161 642 180
f 639 645 644
f 639 644 640
f 641 640 644
f 641 644 646
f 647 650 649
f 647 649 185
f 188 652 650
f 188 650 647
f 469 470 521
f 469 521 518
f 526 520 466
f 526 466 653
f 654 655 520
f 654 520 521
f 655 465 466
f 655 466 520
f 652 589 656
f 652 656 650
f 653 466 467
f 653 467 495
f 649 650 656
f 649 656 657
f 482 659 658
f 482 658 584
f 659 563 561
f 659 561 658
f 660 585 586
f 660 586 661
f 526 663 662
f 526 662 525
f 526 653 664
f 526 664 663
f 664 516 517
f 664 517 663
f 663 517 665
f 663 665 662
f 660 661 667
f 660 667 666
f 667 669 668
f 667 668 666
f 516 664 670
f 516 670 493
f 653 495 670
f 653 670 664
f 671 672 669
f 671 669 667
f 673 671 667
f 673 667 661
f 506 25 489
f 506 489 508
f 517 489 674
f 517 674 665
f 675 586 587
f 675 587 676
f 516 493 494
f 516 494 508
f 673 661 586
f 673 586 675
f 574 654 521
f 574 521 470
f 576 677 642
f 576 642 625
f 637 642 677
f 637 677 678
f 518 519 680
f 518 680 679
f 679 681 469
f 679 469 518
f 580 635 682
f 580 682 579
f 682 635 637
f 682 637 678
f 683 682 678
f 683 678 684
f 576 613 685
f 576 685 677
f 686 689 688
f 686 688 687
f 690 691 687
f 690 687 688
f 692 587 588
f 692 588 693
f 694 676 587
f 694 587 692
f 684 678 677
f 684 677 685
f 616 157 233
f 616 233 695
f 691 690 697
f 691 697 484
f 693 588 585
f 693 585 698
f 695 699 615
f 695 615 616
f 491 492 467
f 491 467 464
f 578 615 699
f 578 699 700
f 699 702 701
f 699 701 700
f 703 704 700
f 703 700 701
f 670 706 705
f 670 705 493
f 493 705 707
f 493 707 476
f 507 494 477
f 507 477 708
f 709 710 704
f 709 704 703
f 496 492 478
f 496 478 475
f 710 578 700
f 710 700 704
f 711 577 578
f 711 578 710
f 712 711 710
f 712 710 709
f 713 685 613
f 713 613 614
f 495 496 715
f 495 715 714
f 714 715 600
f 714 600 716
f 496 475 717
f 496 717 715
f 715 717 603
f 715 603 600
f 577 711 713
f 577 713 614
f 255 719 695
f 255 695 233
f 706 720 601
f 706 601 705
f 705 601 602
f 705 602 707
f 674 489 474
f 674 474 611
f 702 699 695
f 702 695 719
f 721 674 611
f 721 611 722
f 722 607 523
f 722 523 721
f 674 721 723
f 674 723 665
f 523 500 723
f 523 723 721
f 724 725 702
f 724 702 719
f 726 683 684
f 726 684 727
f 727 684 685
f 727 685 713
f 727 713 711
f 727 711 712
f 728 727 712
f 728 712 729
f 708 477 478
f 708 478 490
f 730 729 712
f 730 712 709
f 707 717 475
f 707 475 476
f 268 724 719
f 268 719 255
f 717 707 602
f 717 602 603
f 269 733 724
f 269 724 268
f 734 725 724
f 734 724 733
f 733 269 273
f 733 273 735
f 734 733 735
f 734 735 737
f 497 501 738
f 497 738 686
f 686 738 739
f 686 739 689
f 740 738 501
f 740 501 515
f 738 740 741
f 738 741 739
f 737 735 743
f 737 743 742
f 495 714 706
f 495 706 670
f 735 273 281
f 735 281 743
f 714 716 720
f 714 720 706
f 745 743 281
f 745 281 283
f 743 745 747
f 743 747 742
f 745 283 286
f 745 286 748
f 519 525 750
f 519 750 680
f 686 687 680
f 686 680 750
f 687 691 679
f 687 679 680
f 649 752 288
f 649 288 185
f 286 288 752
f 286 752 748
f 525 662 753
f 525 753 750
f 753 662 665
f 753 665 723
f 657 754 752
f 657 752 649
f 748 755 747
f 748 747 745
f 686 750 753
f 686 753 497
f 497 753 723
f 497 723 500
f 748 752 754
f 748 754 755
f 694 756 675
f 694 675 676
f 754 657 758
f 754 758 757
f 756 759 673
f 756 673 675
f 589 652 760
f 589 760 592
f 652 188 298
f 652 298 760
f 589 590 763
f 589 763 762
f 589 762 764
f 589 764 656
f 480 766 765
f 480 765 479
f 767 660 666
f 767 666 768
f 484 697 766
f 484 766 480
f 698 585 660
f 698 660 767
f 769 770 758
f 769 758 657
f 657 656 764
f 657 764 769
f 755 754 757
f 755 757 771
f 772 771 757
f 772 757 758
f 773 741 740
f 773 740 774
f 759 775 671
f 759 671 673
f 774 777 776
f 774 776 773
f 778 672 671
f 778 671 775
f 779 772 758
f 779 758 770
f 103 567 760
f 103 760 298
f 774 740 515
f 774 515 535
f 535 547 777
f 535 777 774
f 780 592 760
f 780 760 567
f 781 591 592
f 781 592 780
f 777 782 512
f 777 512 776
f 509 669 672
f 509 672 778
f 783 590 591
f 783 591 781
f 782 777 547
f 782 547 563
f 784 783 781
f 784 781 785
f 590 783 786
f 590 786 763
f 784 787 786
f 784 786 783
f 786 788 762
f 786 762 763
f 511 789 479
f 511 479 765
f 512 782 789
f 512 789 511
f 509 510 668
f 509 668 669
f 510 768 666
f 510 666 668
f 788 790 764
f 788 764 762
f 791 779 770
f 791 770 769
f 782 563 659
f 782 659 789
f 789 659 482
f 789 482 479
f 790 791 769
f 790 769 764
f 792 790 788
f 792 788 793
f 691 794 681
f 691 681 679
f 691 484 483
f 691 483 794
f 787 793 788
f 787 788 786
f 792 793 796
f 792 796 795
f 606 797 681
f 606 681 794
f 681 797 468
f 681 468 469
f 793 787 798
f 793 798 796
f 794 483 487
f 794 487 606
f 799 780 567
f 799 567 564
f 797 722 611
f 797 611 468
f 785 781 780
f 785 780 799
f 607 722 797
f 607 797 606
f 341 801 564
f 341 564 102
f 522 523 607
f 522 607 608
f 801 802 799
f 801 799 564
f 633 803 524
f 633 524 522
f 804 785 799
f 804 799 802
f 803 532 534
f 803 534 524
f 784 805 798
f 784 798 787
f 531 806 595
f 531 595 533
f 805 784 785
f 805 785 804
f 634 726 803
f 634 803 633
f 581 626 348
f 581 348 166
f 626 809 349
f 626 349 348
f 803 810 530
f 803 530 532
f 531 527 811
f 531 811 806
f 809 801 341
f 809 341 349
f 812 802 801
f 812 801 809
f 809 626 627
f 809 627 812
f 803 726 813
f 803 813 810
f 810 554 529
f 810 529 530
f 554 810 813
f 554 813 617
f 644 627 582
f 644 582 646
f 527 528 612
f 527 612 811
f 804 802 812
f 804 812 645
f 726 634 641
f 726 641 683
f 627 644 645
f 627 645 812
f 814 701 702
f 814 702 725
f 641 579 682
f 641 682 683
f 641 646 582
f 641 582 579
f 815 814 725
f 815 725 734
f 816 730 709
f 816 709 703
f 727 728 813
f 727 813 726
f 617 813 728
f 617 728 817
f 816 703 701
f 816 701 814
f 818 730 816
f 818 816 819
f 820 605 594
f 820 594 595
f 595 806 811
f 595 811 820
f 814 815 821
f 814 821 816
f 610 820 811
f 610 811 612
f 822 819 816
f 822 816 821
f 610 609 605
f 610 605 820
f 823 822 821
f 823 821 824
f 609 604 599
f 609 599 605
f 825 826 819
f 825 819 822
f 560 827 562
f 560 562 559
f 737 828 815
f 737 815 734
f 824 821 815
f 824 815 828
f 617 830 829
f 617 829 618
f 617 817 831
f 617 831 830
f 832 747 755
f 832 755 771
f 618 829 833
f 618 833 619
f 742 834 828
f 742 828 737
f 747 832 834
f 747 834 742
f 828 834 835
f 828 835 824
f 771 772 836
f 771 836 832
f 833 837 622
f 833 622 619
f 551 622 838
f 551 838 560
f 839 622 837
f 839 837 840
f 622 839 841
f 622 841 838
f 834 832 836
f 834 836 835
f 824 835 842
f 824 842 823
f 843 833 829
f 843 829 844
f 830 845 844
f 830 844 829
f 836 772 779
f 836 779 846
f 846 842 835
f 846 835 836
f 833 848 847
f 833 847 837
f 833 843 849
f 833 849 848
f 822 823 850
f 822 850 825
f 851 850 823
f 851 823 842
f 798 853 852
f 798 852 796
f 840 837 847
f 840 847 854
f 839 840 856
f 839 856 855
f 854 857 856
f 854 856 840
f 639 805 804
f 639 804 645
f 639 853 798
f 639 798 805
f 838 858 827
f 838 827 560
f 858 838 841
f 858 841 859
f 796 852 860
f 796 860 795
f 861 791 790
f 861 790 792
f 862 841 839
f 862 839 855
f 841 862 863
f 841 863 859
f 861 846 779
f 861 779 791
f 845 830 831
f 845 831 864
f 851 842 846
f 851 846 861
f 792 795 865
f 792 865 861
f 817 867 866
f 817 866 831
f 729 867 817
f 729 817 728
f 861 865 868
f 861 868 851
f 831 866 869
f 831 869 864
f 795 860 870
f 795 870 865
f 871 870 860
f 871 860 872
f 867 818 873
f 867 873 866
f 873 874 869
f 873 869 866
f 871 868 865
f 871 865 870
f 730 818 867
f 730 867 729
f 872 876 875
f 872 875 871
f 877 878 852
f 877 852 853
f 818 880 879
f 818 879 873
f 873 879 881
f 873 881 874
f 852 878 872
f 852 872 860
f 882 876 872
f 882 872 878
f 883 877 853
f 883 853 639
f 878 877 884
f 878 884 882
f 885 886 879
f 885 879 880
f 808 807 879
f 808 879 886
f 800 761 886
f 800 886 885
f 886 761 751
f 886 751 808
f 877 883 749
f 877 749 884
f 864 884 749
f 864 749 845
f 746 885 880
f 746 880 826
f 744 800 885
f 744 885 746
f 882 884 864
f 882 864 869
f 869 874 876
f 869 876 882
f 800 732 736
f 800 736 761
f 761 736 731
f 761 731 751
f 874 881 875
f 874 875 876
f 718 825 850
f 718 850 571
f 732 855 856
f 732 856 736
f 736 856 857
f 736 857 731
f 851 570 571
f 851 571 850
f 851 868 696
f 851 696 570
f 651 648 732
f 651 732 800
f 732 648 862
f 732 862 855
f 643 638 598
f 643 598 596
f 648 636 863
f 648 863 862
f 596 572 573
f 596 573 629
f 648 651 628
f 648 628 636
f 596 629 624
f 596 624 643
f 871 875 881
f 871 881 623
f 800 744 621
f 800 621 651
f 621 620 628
f 621 628 651
f 623 696 868
f 623 868 871
f 566 629 573
f 566 573 569
f 565 744 746
f 565 746 718
f 826 825 718
f 826 718 746
f 566 569 570
f 566 570 696
f 744 565 488
f 744 488 621
f 696 623 807
f 696 807 566
f 245 620 621
f 245 621 488
f 566 192 624
f 566 624 629
f 808 192 566
f 808 566 807
f 818 819 826
f 818 826 880
f 807 623 881
f 807 881 879
f 485 486 191
f 485 191 632
f 601 720 716
f 601 716 600
f 639 632 191
f 639 191 883
f 191 184 749
f 191 749 883
f 562 111 658
f 562 658 561
f 827 44 111
f 827 111 562
f 486 583 184
f 486 184 191
f 827 858 43
f 827 43 44
f 849 843 583
f 849 583 584
f 858 859 28
f 858 28 43
f 844 845 749
f 844 749 184
f 843 844 184
f 843 184 583
f 636 10 27
f 636 27 863
f 628 9 10
f 628 10 636
f 111 849 584
f 111 584 658
f 620 2 9
f 620 9 628
f 849 111 44
f 849 44 848
f 245 1 2
f 245 2 620
f 192 1 643
f 192 643 624
f 808 2 1
f 808 1 192
f 2 808 751
f 2 751 9
f 565 597 598
f 565 598 488
f 565 718 571
f 565 571 568
f 568 572 597
f 568 597 565
f 9 751 731
f 9 731 10
f 598 638 245
f 598 245 488
f 10 731 857
f 10 857 27
f 1 245 638
f 1 638 643
f 28 27 857
f 28 857 854
f 859 863 27
f 859 27 28
f 44 43 847
f 44 847 848
f 43 28 854
f 43 854 847
f 692 688 689
f 692 689 694
f 693 690 688
f 693 688 692
f 698 697 690
f 698 690 693
f 694 689 739
f 694 739 756
f 756 739 741
f 756 741 759
f 768 765 766
f 768 766 767
f 767 766 697
f 767 697 698
f 759 741 773
f 759 773 775
f 775 773 776
f 775 776 778
f 778 776 512
f 778 512 509
f 510 511 765
f 510 765 768
