# C6 rest
v -0.027626 0.136694 -0.016401
v -0.027279 0.135602 -0.017770
v -0.001246 0.155853 -0.050420
v -0.000947 0.157351 -0.056617
v 0.005138 0.148584 -0.034617
v 0.004721 0.152876 -0.032440
v 0.001360 0.152981 -0.032306
v 0.000912 0.148009 -0.034787
v -0.027555 0.135172 -0.018974
v -0.028053 0.135201 -0.020131
v 0.000611 0.150361 -0.038787
v -0.000557 0.153331 -0.065214
v 0.000307 0.149978 -0.066629
v -0.001181 0.149935 -0.065799
v -0.001428 0.153139 -0.064712
v 0.019305 0.150986 -0.017903
v 0.015598 0.150569 -0.021558
v 0.015035 0.147009 -0.024111
v 0.018478 0.146063 -0.021243
v 0.012809 0.148350 -0.028768
v 0.013034 0.151634 -0.026251
v 0.013918 0.143592 -0.026429
v 0.017167 0.143177 -0.022803
v 0.013029 0.143365 -0.032406
v -0.002259 0.147439 -0.048407
v 0.000277 0.146377 -0.048330
v -0.028653 0.135623 -0.021452
v -0.029565 0.136848 -0.022653
v -0.001118 0.156949 -0.061254
v 0.002089 0.149269 -0.062312
v -0.000213 0.149108 -0.062311
v 0.001316 0.156216 -0.057723
v -0.000104 0.156703 -0.062361
v 0.013327 0.142052 -0.040081
v 0.015522 0.140108 -0.040841
v 0.011852 0.138858 -0.040704
v 0.010464 0.140806 -0.041646
v 0.020123 0.143943 -0.037395
v 0.020824 0.141704 -0.039038
v 0.021862 0.140133 -0.040560
v 0.016622 0.138946 -0.041848
v 0.012255 0.138056 -0.040907
v -0.030059 0.138526 -0.023028
v -0.030098 0.140262 -0.022629
v -0.000268 0.147983 -0.054570
v 0.022343 0.136043 -0.016019
v 0.021988 0.134958 -0.017397
v 0.022271 0.134519 -0.018599
v 0.022787 0.134535 -0.019752
v 0.026138 0.142806 -0.034918
v 0.027497 0.141151 -0.036097
v 0.025280 0.144830 -0.034117
v 0.001708 0.148633 -0.054337
v 0.002474 0.147444 -0.049489
v 0.002887 0.155052 -0.034660
v 0.003452 0.154696 -0.037294
v -0.000977 0.155142 -0.043530
v 0.000141 0.155051 -0.035652
v 0.012460 0.138129 -0.036934
v 0.010245 0.140129 -0.039949
v 0.012180 0.137183 -0.038134
v 0.004388 0.153337 -0.039856
v 0.000459 0.153639 -0.045533
v 0.018408 0.136844 -0.034932
v 0.021611 0.137347 -0.032815
v 0.021184 0.137228 -0.031760
v 0.017503 0.136430 -0.033886
v 0.015295 0.135971 -0.036775
v 0.014050 0.135626 -0.036045
v 0.013663 0.135762 -0.038983
v 0.012552 0.136080 -0.038753
v 0.026117 0.146201 -0.028518
v 0.026630 0.143271 -0.030227
v 0.027670 0.141539 -0.030847
v 0.024285 0.142083 -0.026475
v 0.024010 0.140901 -0.028065
v 0.024563 0.139898 -0.028997
v 0.014616 0.136604 -0.040819
v 0.013294 0.137085 -0.041166
v 0.017944 0.137236 -0.041919
v 0.017398 0.137905 -0.042465
v 0.022166 0.137849 -0.041315
v 0.022308 0.138858 -0.041718
v 0.025653 0.148050 -0.023638
v 0.024998 0.143229 -0.023764
v 0.021797 0.137963 -0.026521
v 0.020886 0.137837 -0.027787
v 0.023833 0.138361 -0.025023
v 0.027836 0.138621 -0.036506
v 0.028408 0.139654 -0.037165
v 0.019842 0.137698 -0.029575
v 0.025642 0.138291 -0.030530
v 0.025514 0.138864 -0.029632
v 0.028395 0.138784 -0.031490
v 0.028698 0.139755 -0.031206
v 0.027079 0.141636 -0.022802
v 0.026875 0.139049 -0.024110
v 0.024488 0.144082 -0.021532
v 0.026968 0.141746 -0.021422
v 0.024263 0.148024 -0.021233
v 0.001605 0.144766 -0.021051
v -0.002495 0.144908 -0.021479
v -0.002516 0.144249 -0.019920
v 0.001284 0.144190 -0.019714
v 0.018559 0.134042 -0.013733
v 0.018031 0.135004 -0.013824
v 0.016449 0.134750 -0.013799
v 0.016682 0.133344 -0.014108
v 0.019927 0.134674 -0.012536
v 0.019215 0.135463 -0.013057
v -0.029662 0.142034 -0.021876
v 0.001292 0.128166 -0.021926
v 0.002211 0.130685 -0.024375
v 0.006098 0.129639 -0.023999
v 0.005392 0.127301 -0.021813
v 0.004859 0.137832 -0.026165
v 0.001236 0.138081 -0.027098
v 0.001385 0.139136 -0.026270
v 0.004977 0.138570 -0.025467
v 0.019286 0.138974 -0.023915
v 0.020579 0.140372 -0.023401
v 0.016809 0.154825 -0.022716
v 0.019046 0.155422 -0.024256
v 0.017504 0.155445 -0.026337
v 0.016400 0.155194 -0.024827
v 0.004419 0.140586 -0.016585
v 0.006670 0.142259 -0.016800
v 0.005771 0.142626 -0.017673
v 0.003784 0.142811 -0.018412
v 0.018415 0.137227 -0.040880
v 0.016579 0.136942 -0.039788
v 0.015633 0.136427 -0.038527
v 0.021791 0.136345 -0.012533
v 0.020983 0.134304 -0.012903
v 0.022691 0.135155 -0.013096
v 0.021667 0.137763 -0.039688
v 0.002077 0.152797 -0.068021
v 0.003199 0.151258 -0.068332
v 0.002307 0.150381 -0.068293
v 0.001482 0.151628 -0.068540
v 0.026167 0.138639 -0.035914
v 0.020689 0.137955 -0.037392
v 0.010882 0.146581 -0.034332
v 0.010521 0.142085 -0.037723
v 0.012768 0.139788 -0.034960
v 0.026187 0.138843 -0.033126
v 0.024202 0.138137 -0.032499
v 0.003766 0.148642 -0.038753
v 0.021672 0.137516 -0.033630
v 0.005158 0.131279 -0.025305
v 0.006545 0.130748 -0.025218
v 0.003263 0.126711 -0.019787
v 0.000708 0.126459 -0.020268
v 0.016818 0.135716 -0.027150
v 0.019096 0.136072 -0.026678
v 0.020773 0.135878 -0.025952
v -0.002736 0.126341 -0.020471
v -0.002700 0.128232 -0.022090
v 0.022780 0.135303 -0.024973
v -0.002661 0.130291 -0.024072
v -0.002633 0.131642 -0.025865
v -0.000051 0.132039 -0.025818
v 0.001538 0.140413 -0.025341
v 0.005297 0.139677 -0.024655
v -0.002546 0.138025 -0.027481
v -0.002537 0.139198 -0.026615
v 0.013353 0.140131 -0.030443
v 0.012301 0.139034 -0.026308
v 0.013859 0.141732 -0.024362
v 0.013634 0.138504 -0.032087
v 0.012621 0.137771 -0.027128
v 0.001043 0.136719 -0.028128
v -0.002555 0.136577 -0.028502
v 0.000895 0.134510 -0.029079
v -0.002575 0.134350 -0.029375
v 0.012963 0.141175 -0.020739
v 0.010931 0.138467 -0.024071
v 0.009093 0.137766 -0.024773
v 0.000559 0.132643 -0.027921
v -0.002606 0.132522 -0.028176
v 0.008649 0.139126 -0.023676
v 0.009281 0.141290 -0.021959
v 0.007729 0.138219 -0.024384
v -0.022773 0.138762 -0.024270
v -0.002680 0.135950 -0.011828
v 0.000938 0.136265 -0.011621
v 0.001239 0.137962 -0.015106
v -0.002577 0.140722 -0.017927
v 0.001300 0.140590 -0.017663
v -0.000071 0.154298 -0.051187
v -0.021262 0.141910 -0.023364
v -0.025780 0.136370 -0.016805
v 0.004650 0.138732 -0.014063
v 0.004103 0.136855 -0.011500
v 0.022348 0.142500 -0.022165
v 0.021898 0.146909 -0.020787
v 0.018050 0.155017 -0.020066
v 0.020239 0.155592 -0.022636
v 0.005025 0.149639 -0.042859
v 0.001853 0.151082 -0.047286
v 0.001459 0.152050 -0.052529
v 0.004898 0.146462 -0.045942
v 0.020889 0.155745 -0.018075
v 0.022138 0.156181 -0.020802
v 0.023181 0.156197 -0.017781
v 0.024255 0.156579 -0.019314
v 0.002555 0.153658 -0.059284
v 0.023954 0.156744 -0.023235
v 0.025075 0.156772 -0.021260
v 0.022393 0.156630 -0.025467
v 0.003648 0.144961 -0.045130
v 0.020533 0.156134 -0.026759
v 0.018894 0.155758 -0.027410
v 0.003191 0.132446 -0.027632
v 0.003752 0.134845 -0.028275
v 0.007776 0.154637 -0.032945
v 0.008693 0.153765 -0.035259
v 0.008232 0.152713 -0.032458
v 0.004347 0.136812 -0.027239
v 0.007868 0.137012 -0.025890
v 0.006458 0.135107 -0.027012
v 0.005897 0.132038 -0.027275
v 0.014459 0.148312 -0.035481
v 0.012625 0.153434 -0.032241
v 0.014253 0.154252 -0.029278
v 0.017008 0.153558 -0.030743
v 0.012950 0.154655 -0.027078
v 0.011523 0.154115 -0.030311
v 0.015138 0.155410 -0.028086
v 0.014170 0.155372 -0.026002
v 0.017736 0.155482 -0.029275
v 0.000832 0.124388 -0.019444
v -0.002770 0.124363 -0.019323
v 0.013814 0.153226 -0.024524
v 0.014905 0.154169 -0.023494
v 0.003995 0.124496 -0.019989
v 0.006701 0.125564 -0.020216
v 0.007994 0.124286 -0.019421
v 0.005223 0.122640 -0.018361
v 0.009731 0.126157 -0.019774
v 0.008540 0.126093 -0.021059
v 0.003051 0.150176 -0.066615
v 0.003536 0.153754 -0.063880
v 0.001278 0.150207 -0.067775
v -0.028461 0.136319 -0.015657
v 0.010782 0.128526 -0.021103
v 0.009097 0.127549 -0.022398
v 0.009273 0.129339 -0.024121
v 0.010600 0.130724 -0.023150
v 0.008255 0.131406 -0.026413
v 0.002762 0.156161 -0.063181
v 0.001156 0.156088 -0.063804
v 0.002916 0.153769 -0.067105
v 0.000663 0.152683 -0.066970
v -0.002821 0.121596 -0.017538
v 0.001578 0.121481 -0.018097
v 0.003612 0.152249 -0.067721
v 0.008668 0.142336 -0.041502
v 0.008327 0.146129 -0.037924
v 0.008118 0.144500 -0.042538
v 0.002183 0.120145 -0.016640
v 0.005943 0.121691 -0.017446
v 0.013142 0.136726 -0.027717
v 0.009672 0.134464 -0.025726
v 0.012881 0.134668 -0.025159
v 0.012714 0.133186 -0.021058
v 0.011949 0.129795 -0.019352
v -0.002852 0.120069 -0.016191
v -0.002859 0.120621 -0.014339
v 0.002529 0.120764 -0.014850
v 0.006303 0.122673 -0.015985
v 0.001668 0.123725 -0.012805
v -0.002832 0.123565 -0.012507
v 0.005296 0.124605 -0.013153
v 0.020438 0.148563 -0.034112
v 0.020348 0.153809 -0.030702
v 0.024292 0.150389 -0.031077
v 0.023462 0.154669 -0.028878
v 0.004444 0.127330 -0.011333
v 0.001039 0.126891 -0.011146
v -0.002802 0.126723 -0.011039
v 0.000831 0.129970 -0.008975
v -0.002779 0.129783 -0.009048
v 0.003874 0.130457 -0.008952
v 0.000461 0.132526 -0.006276
v -0.002768 0.132333 -0.006267
v 0.009002 0.150879 -0.037463
v -0.002719 0.135003 -0.008273
v 0.000205 0.135116 -0.008221
v 0.008910 0.147264 -0.040413
v 0.002480 0.135494 -0.008447
v 0.003054 0.133014 -0.006422
v 0.020392 0.155707 -0.029060
v 0.004436 0.135781 -0.008479
v 0.005813 0.136494 -0.009256
v 0.023226 0.156315 -0.027499
v 0.001105 0.142610 -0.018938
v -0.002542 0.142814 -0.019008
v 0.007788 0.140639 -0.014872
v 0.007589 0.141944 -0.015842
v 0.008155 0.139161 -0.012961
v 0.019762 0.153552 -0.016536
v 0.015939 0.152696 -0.019923
v 0.016838 0.154181 -0.019476
v 0.020280 0.155036 -0.016657
v 0.007675 0.138004 -0.011429
v 0.007230 0.137162 -0.009957
v 0.005552 0.133791 -0.006701
v 0.007835 0.134975 -0.007957
v 0.025687 0.155333 -0.025545
v 0.025652 0.151761 -0.026981
v 0.025231 0.156548 -0.024566
v 0.026907 0.155144 -0.021736
v 0.026431 0.152063 -0.022870
v 0.026286 0.156428 -0.021339
v 0.009308 0.136435 -0.009046
v 0.004653 0.143951 -0.019186
v 0.007675 0.143371 -0.017598
v 0.025696 0.154995 -0.018636
v 0.025558 0.151759 -0.020044
v 0.025665 0.156278 -0.018596
v 0.009114 0.143194 -0.016486
v 0.010961 0.144041 -0.017189
v 0.009110 0.144410 -0.018489
v 0.009529 0.142614 -0.015217
v 0.011532 0.143258 -0.015666
v 0.009574 0.141469 -0.013882
v 0.023876 0.154282 -0.016634
v 0.023129 0.151052 -0.017950
v 0.023825 0.155721 -0.016816
v 0.009749 0.139805 -0.012064
v 0.010084 0.138252 -0.010178
v 0.011592 0.139802 -0.012515
v 0.011357 0.141992 -0.014048
v 0.010872 0.151108 -0.031456
v 0.012661 0.139851 -0.013870
v 0.012455 0.141565 -0.015332
v 0.008312 0.147965 -0.035032
v 0.012603 0.142921 -0.016804
v 0.005412 0.144855 -0.020255
v -0.002495 0.144275 -0.022765
v 0.001640 0.143851 -0.022384
v 0.005387 0.144051 -0.021459
v 0.013393 0.135999 -0.034052
v 0.009370 0.143764 -0.019942
v 0.012068 0.143718 -0.018132
v 0.016496 0.136575 -0.037154
v -0.002525 0.140580 -0.025658
v -0.002507 0.142604 -0.024220
v 0.001631 0.142277 -0.023930
v 0.016425 0.137245 -0.031646
v 0.019167 0.137192 -0.035652
v 0.005464 0.141648 -0.023200
v 0.015096 0.136676 -0.028270
v 0.008623 0.124081 -0.017515
v 0.008873 0.124539 -0.015675
v 0.010558 0.127180 -0.017190
v 0.014452 0.134869 -0.023901
v 0.013410 0.130928 -0.018851
v 0.012107 0.128584 -0.016823
v 0.019811 0.137567 -0.036181
v 0.010655 0.126901 -0.015532
v 0.012510 0.128561 -0.015244
v 0.012598 0.130357 -0.013485
v 0.010382 0.128226 -0.013734
v 0.014645 0.130144 -0.015180
v 0.014159 0.129130 -0.016629
v 0.027363 0.139296 -0.022657
v 0.008119 0.126104 -0.013641
v 0.018093 0.136064 -0.025012
v 0.016071 0.135795 -0.024395
v 0.014895 0.135425 -0.022235
v 0.006765 0.131047 -0.009250
v 0.020444 0.135952 -0.024630
v 0.007394 0.128220 -0.011690
v 0.010000 0.130200 -0.011664
v 0.009266 0.132327 -0.009537
v 0.021513 0.135069 -0.024330
v 0.026238 0.135842 -0.024236
v 0.023222 0.133622 -0.024001
v 0.021709 0.133669 -0.023637
v 0.025683 0.134104 -0.023329
v 0.012218 0.132532 -0.011833
v 0.020187 0.137157 -0.024021
v 0.018053 0.136950 -0.024111
v 0.016006 0.136431 -0.023263
v 0.011110 0.134661 -0.010245
v 0.022718 0.136455 -0.023142
v 0.022600 0.137433 -0.023143
v 0.022184 0.138664 -0.023075
v 0.014648 0.132194 -0.013808
v 0.014436 0.135144 -0.012938
v 0.013191 0.139576 -0.016925
v 0.013319 0.140471 -0.018624
v 0.022528 0.135353 -0.022690
v 0.022537 0.132789 -0.022301
v 0.021128 0.133013 -0.022645
v 0.021737 0.134535 -0.021677
v 0.026800 0.137408 -0.022945
v 0.026101 0.135783 -0.022385
v 0.013252 0.138660 -0.015633
v 0.012580 0.137214 -0.011478
v 0.024425 0.133261 -0.021322
v 0.024846 0.134350 -0.020827
v 0.014886 0.135898 -0.021420
v 0.013407 0.138008 -0.013078
v 0.014565 0.134437 -0.020189
v 0.013980 0.133775 -0.020612
v 0.014685 0.136067 -0.014040
v 0.014481 0.135144 -0.019827
v 0.013541 0.137841 -0.014637
v 0.014407 0.135745 -0.015949
v 0.013911 0.136982 -0.016950
v 0.014532 0.132803 -0.019033
v 0.014452 0.134063 -0.018813
v 0.014619 0.134411 -0.017523
v 0.014333 0.135122 -0.018236
v 0.014290 0.138551 -0.019876
v 0.013940 0.137811 -0.018142
v 0.015459 0.131901 -0.018226
v 0.014675 0.129911 -0.017852
v 0.014926 0.133385 -0.017891
v 0.014261 0.136026 -0.019328
v 0.014980 0.139310 -0.021712
v 0.014648 0.136693 -0.020905
v 0.016984 0.130427 -0.017835
v 0.017318 0.131697 -0.018755
v 0.019595 0.134005 -0.018553
v 0.017466 0.133796 -0.017466
v 0.019769 0.131759 -0.018071
v 0.018911 0.131859 -0.019842
v 0.020406 0.133964 -0.019686
v 0.015787 0.137316 -0.022764
v 0.017113 0.131019 -0.016325
v 0.019927 0.132653 -0.015755
v 0.020081 0.132142 -0.021361
v 0.021206 0.131844 -0.020468
v 0.021003 0.134131 -0.020625
v 0.017157 0.132195 -0.015093
v 0.016403 0.135041 -0.014936
v 0.022263 0.132966 -0.017124
v 0.023027 0.132655 -0.019320
v 0.022425 0.136812 -0.014618
v 0.023158 0.136174 -0.014249
v 0.023632 0.133761 -0.019154
v 0.019947 0.136386 -0.013910
v 0.022874 0.133876 -0.017582
v 0.021094 0.136733 -0.014896
v 0.015741 0.134114 -0.016761
v 0.022175 0.133688 -0.015606
v 0.022755 0.134599 -0.016422
v 0.018453 0.135227 -0.015600
v 0.020110 0.133586 -0.014234
v 0.022476 0.134494 -0.014344
v 0.023155 0.135646 -0.015262
v 0.020495 0.135769 -0.016451
v 0.016222 0.141432 -0.023072
v 0.017666 0.138240 -0.023962
v 0.024601 0.141327 -0.021461
v 0.025002 0.139542 -0.022213
v 0.024923 0.137806 -0.022616
v 0.024380 0.136141 -0.022252
v 0.023419 0.134941 -0.021064
v -0.002064 0.157363 -0.056411
v -0.002128 0.156196 -0.050142
v -0.003014 0.155876 -0.050435
v -0.003179 0.157379 -0.056634
v -0.009834 0.148773 -0.034744
v -0.009332 0.153055 -0.032556
v -0.005970 0.153074 -0.032368
v -0.005623 0.148091 -0.034842
v -0.002361 0.147909 -0.034357
v -0.002289 0.150636 -0.038882
v -0.005197 0.150434 -0.038836
v -0.003546 0.153368 -0.065235
v -0.004478 0.150037 -0.066664
v -0.003005 0.149958 -0.065812
v -0.002688 0.153154 -0.064721
v -0.024171 0.151547 -0.018240
v -0.020424 0.151027 -0.021838
v -0.019916 0.147452 -0.024383
v -0.023424 0.146601 -0.021569
v -0.017594 0.148740 -0.029009
v -0.017770 0.152030 -0.026494
v -0.018856 0.144005 -0.026686
v -0.022166 0.143679 -0.023110
v -0.017885 0.143765 -0.032650
v -0.027827 0.135152 -0.014731
v -0.004823 0.146440 -0.048367
v -0.002060 0.153075 -0.064536
v -0.002037 0.156955 -0.060685
v -0.002948 0.156972 -0.061268
v -0.006344 0.149374 -0.062374
v -0.004048 0.149155 -0.062339
v -0.005454 0.156300 -0.057772
v -0.003952 0.156750 -0.062390
v -0.018099 0.142470 -0.040335
v -0.020332 0.140589 -0.041130
v -0.016699 0.139244 -0.040941
v -0.015248 0.141148 -0.041857
v -0.024877 0.144532 -0.037742
v -0.025613 0.142313 -0.039396
v -0.026669 0.140770 -0.040934
v -0.021447 0.139457 -0.042154
v -0.017120 0.138453 -0.041150
v -0.002202 0.148227 -0.054455
v -0.002135 0.148788 -0.062381
v -0.004140 0.148031 -0.054598
v -0.030377 0.157010 -0.019027
v -0.028580 0.156404 -0.017220
v -0.028671 0.154967 -0.017040
v -0.030440 0.155729 -0.019068
v -0.030955 0.143552 -0.035346
v -0.032339 0.141933 -0.036545
v -0.030056 0.145553 -0.034533
v -0.006102 0.148730 -0.054394
v -0.006973 0.147562 -0.049559
v -0.007407 0.155182 -0.034746
v -0.007942 0.154840 -0.037391
v -0.003409 0.155172 -0.043551
v -0.004645 0.155111 -0.035692
v -0.017382 0.138529 -0.037179
v -0.015073 0.140468 -0.040158
v -0.017111 0.137578 -0.038377
v -0.008877 0.153504 -0.039967
v -0.004853 0.153705 -0.045578
v -0.023387 0.137386 -0.035252
v -0.026605 0.137974 -0.033178
v -0.026198 0.137844 -0.032116
v -0.022509 0.136948 -0.034192
v -0.020273 0.136440 -0.037056
v -0.019049 0.136064 -0.036309
v -0.018617 0.136195 -0.039246
v -0.017502 0.136485 -0.039002
v -0.030942 0.146945 -0.028954
v -0.031505 0.144032 -0.030662
v -0.032581 0.142330 -0.031295
v -0.029250 0.142782 -0.026881
v -0.028982 0.141593 -0.028463
v -0.029546 0.140605 -0.029401
v -0.019520 0.137063 -0.041097
v -0.018181 0.137510 -0.041425
v -0.022811 0.137779 -0.042242
v -0.022241 0.138436 -0.042782
v -0.027021 0.138495 -0.041692
v -0.027131 0.139508 -0.042099
v -0.030504 0.148782 -0.024072
v -0.029974 0.143945 -0.024185
v -0.026870 0.138598 -0.026885
v -0.025943 0.138446 -0.028138
v -0.028918 0.139051 -0.025417
v -0.032738 0.139413 -0.036958
v -0.033273 0.140461 -0.037626
v -0.024877 0.138279 -0.029911
v -0.030644 0.139028 -0.030949
v -0.030515 0.139598 -0.030049
v -0.033369 0.139595 -0.031948
v -0.033650 0.140574 -0.031669
v -0.032110 0.142411 -0.023251
v -0.031954 0.139820 -0.024550
v -0.029476 0.144784 -0.021950
v -0.032017 0.142517 -0.021871
v -0.029152 0.148719 -0.021646
v -0.006606 0.144871 -0.021117
v -0.025487 0.134181 -0.014587
v -0.023766 0.135773 -0.015927
v -0.006320 0.144287 -0.019776
v -0.023933 0.134593 -0.014066
v -0.023378 0.135538 -0.014149
v -0.021804 0.135242 -0.014101
v -0.022069 0.133846 -0.014412
v -0.025301 0.135261 -0.012891
v -0.024561 0.136029 -0.013401
v -0.002305 0.153000 -0.032374
v -0.006696 0.128265 -0.021991
v -0.007517 0.130805 -0.024452
v -0.011434 0.129858 -0.024141
v -0.010822 0.127503 -0.021943
v -0.009963 0.138018 -0.026288
v -0.006327 0.138179 -0.027163
v -0.006462 0.139234 -0.026335
v -0.010072 0.138756 -0.025591
v -0.024373 0.139540 -0.024247
v -0.025637 0.140972 -0.023755
v -0.021507 0.155317 -0.023013
v -0.023703 0.155972 -0.024585
v -0.022133 0.155956 -0.026644
v -0.021060 0.155677 -0.025118
v -0.009589 0.140756 -0.016699
v -0.011791 0.142486 -0.016947
v -0.010872 0.142831 -0.017805
v -0.008871 0.142968 -0.018513
v -0.023297 0.137780 -0.041208
v -0.021486 0.137448 -0.040091
v -0.020574 0.136908 -0.038816
v -0.027120 0.136979 -0.012916
v -0.026361 0.134921 -0.013271
v -0.028043 0.135817 -0.013489
v -0.026549 0.138393 -0.040058
v -0.006150 0.152899 -0.068081
v -0.007309 0.151389 -0.068409
v -0.006442 0.150490 -0.068357
v -0.005579 0.151715 -0.068591
v -0.031078 0.139386 -0.036343
v -0.025600 0.138557 -0.037745
v -0.015632 0.146920 -0.034541
v -0.015333 0.142425 -0.037934
v -0.017676 0.140192 -0.035207
v -0.031135 0.139593 -0.033554
v -0.029179 0.138833 -0.032898
v -0.008397 0.148795 -0.038854
v -0.026649 0.138143 -0.033994
v -0.010434 0.131475 -0.025432
v -0.011835 0.130979 -0.025368
v -0.008737 0.126861 -0.019883
v -0.006180 0.126544 -0.020325
v -0.021943 0.136216 -0.027443
v -0.024218 0.136634 -0.027003
v -0.025910 0.136486 -0.026300
v -0.028070 0.135265 -0.016808
v -0.027528 0.134340 -0.015985
v -0.027946 0.135967 -0.025349
v -0.021067 0.134589 -0.017046
v -0.026377 0.137348 -0.015263
v -0.005204 0.132103 -0.025859
v -0.006594 0.140515 -0.025410
v -0.010376 0.139869 -0.024785
v -0.028191 0.134546 -0.017967
v -0.025254 0.136970 -0.014264
v -0.018317 0.140540 -0.030691
v -0.017356 0.139410 -0.026538
v -0.018874 0.142144 -0.024618
v -0.018615 0.138924 -0.032341
v -0.017694 0.138158 -0.027361
v -0.006153 0.136817 -0.028195
v -0.028927 0.134452 -0.019546
v -0.006043 0.134607 -0.029145
v -0.028464 0.136846 -0.014646
v -0.018048 0.141564 -0.020983
v -0.016037 0.138805 -0.024281
v -0.014209 0.138058 -0.024957
v -0.005768 0.132727 -0.027977
v -0.027709 0.137463 -0.015004
v -0.013750 0.139403 -0.023856
v -0.014351 0.141583 -0.022148
v -0.012843 0.138475 -0.024549
v -0.002630 0.137906 -0.015438
v -0.028349 0.133333 -0.019701
v -0.006293 0.136351 -0.011682
v -0.006501 0.138053 -0.015172
v -0.027612 0.133622 -0.017501
v -0.006458 0.140684 -0.017726
v -0.004219 0.154350 -0.051219
v -0.002248 0.155438 -0.035630
v -0.002186 0.155801 -0.043379
v -0.009904 0.138906 -0.014184
v -0.009444 0.137015 -0.011615
v -0.027369 0.143145 -0.022549
v -0.026825 0.147540 -0.021165
v -0.022780 0.155541 -0.020381
v -0.024913 0.156174 -0.022983
v -0.009566 0.149822 -0.042976
v -0.006288 0.151183 -0.047350
v -0.005788 0.152140 -0.052583
v -0.009477 0.146641 -0.046053
v -0.025627 0.156347 -0.018433
v -0.026822 0.156815 -0.021179
v -0.027909 0.156862 -0.018174
v -0.028949 0.157272 -0.019723
v -0.006738 0.153774 -0.059352
v -0.028586 0.157426 -0.023638
v -0.029734 0.157486 -0.021682
v -0.026996 0.157268 -0.025846
v -0.008280 0.145110 -0.045221
v -0.025133 0.156723 -0.027110
v -0.023497 0.156306 -0.027738
v -0.008406 0.132597 -0.027730
v -0.008900 0.135014 -0.028387
v -0.012333 0.154893 -0.033109
v -0.013239 0.154045 -0.035437
v -0.012848 0.152982 -0.032630
v -0.009460 0.136990 -0.027357
v -0.012989 0.137275 -0.026057
v -0.011613 0.135340 -0.027162
v -0.011124 0.132257 -0.027417
v -0.019142 0.148744 -0.035743
v -0.017222 0.153818 -0.032477
v -0.018873 0.154679 -0.029538
v -0.021622 0.154058 -0.031043
v -0.017594 0.155048 -0.027319
v -0.016132 0.154470 -0.030531
v -0.019744 0.155860 -0.028359
v -0.018810 0.155797 -0.026260
v -0.022320 0.156000 -0.029585
v -0.006370 0.124478 -0.019502
v -0.021732 0.135531 -0.015236
v -0.018533 0.153642 -0.024778
v -0.019613 0.154613 -0.023763
v -0.009522 0.124666 -0.020097
v -0.012199 0.125802 -0.020365
v -0.013537 0.124559 -0.019591
v -0.010823 0.122845 -0.018486
v -0.015222 0.126473 -0.019969
v -0.014013 0.126377 -0.021237
v -0.007216 0.150304 -0.066690
v -0.007646 0.153893 -0.063962
v -0.005426 0.150290 -0.067824
v -0.002095 0.149935 -0.065519
v -0.016191 0.128870 -0.021312
v -0.014512 0.127847 -0.022584
v -0.014615 0.129641 -0.024308
v -0.015921 0.131062 -0.023354
v -0.013510 0.131683 -0.026587
v -0.006818 0.156280 -0.063251
v -0.005205 0.156167 -0.063850
v -0.006977 0.153892 -0.067177
v -0.004756 0.152750 -0.067010
v -0.022559 0.132713 -0.015401
v -0.007213 0.121595 -0.018164
v -0.007705 0.152390 -0.067804
v -0.013418 0.142625 -0.041681
v -0.013036 0.146399 -0.038094
v -0.012798 0.144768 -0.042704
v -0.007876 0.120277 -0.016716
v -0.011582 0.121916 -0.017582
v -0.018234 0.137126 -0.027958
v -0.014856 0.134775 -0.025918
v -0.018065 0.135063 -0.025395
v -0.018000 0.133580 -0.021291
v -0.017351 0.130173 -0.019576
v -0.026267 0.134749 -0.020978
v -0.026533 0.132473 -0.020822
v -0.008232 0.120904 -0.014931
v -0.011939 0.122907 -0.016126
v -0.007321 0.123838 -0.012872
v -0.025387 0.132739 -0.021699
v -0.010923 0.124809 -0.013277
v -0.025124 0.149151 -0.034462
v -0.024951 0.154394 -0.031051
v -0.028973 0.151078 -0.031486
v -0.028064 0.155335 -0.029273
v -0.010028 0.127515 -0.011439
v -0.006637 0.126990 -0.011200
v -0.025305 0.133245 -0.016101
v -0.006384 0.130061 -0.009029
v -0.022528 0.131539 -0.016629
v -0.009414 0.130626 -0.009053
v -0.005990 0.132605 -0.006326
v -0.020937 0.137789 -0.023045
v -0.013591 0.151167 -0.037644
v -0.025689 0.134566 -0.020032
v -0.005639 0.135185 -0.008267
v -0.013551 0.147549 -0.040589
v -0.007901 0.135618 -0.008530
v -0.008568 0.133159 -0.006512
v -0.024970 0.156293 -0.029410
v -0.009849 0.135952 -0.008594
v -0.011196 0.136698 -0.009395
v -0.027806 0.156975 -0.027890
v -0.006193 0.142700 -0.018996
v -0.024248 0.132426 -0.020164
v -0.012978 0.140892 -0.015042
v -0.012731 0.142193 -0.016007
v -0.013412 0.139425 -0.013137
v -0.024581 0.154125 -0.016879
v -0.020734 0.153164 -0.020207
v -0.021599 0.154672 -0.019772
v -0.025058 0.155623 -0.017007
v -0.012986 0.138257 -0.011599
v -0.012586 0.137404 -0.010120
v -0.011042 0.133998 -0.006831
v -0.013277 0.135237 -0.008127
v -0.030319 0.156062 -0.025975
v -0.030356 0.152489 -0.027411
v -0.029847 0.157264 -0.024988
v -0.031600 0.155908 -0.022186
v -0.031188 0.152815 -0.023314
v -0.030952 0.157176 -0.021779
v -0.014696 0.136733 -0.009241
v -0.009699 0.144130 -0.019300
v -0.012756 0.143623 -0.017760
v -0.030366 0.152489 -0.020476
v -0.014213 0.143482 -0.016672
v -0.016026 0.144376 -0.017402
v -0.014150 0.144699 -0.018673
v -0.014661 0.142912 -0.015412
v -0.016640 0.143609 -0.015890
v -0.014756 0.141769 -0.014078
v -0.027990 0.151717 -0.018345
v -0.015002 0.140111 -0.012264
v -0.015407 0.138569 -0.010384
v -0.016838 0.140157 -0.012744
v -0.016522 0.142339 -0.014271
v -0.015545 0.151446 -0.031668
v -0.017883 0.140235 -0.014115
v -0.017611 0.141942 -0.015571
v -0.013017 0.148236 -0.035204
v -0.017702 0.143302 -0.017042
v -0.010419 0.145054 -0.020382
v -0.025137 0.132350 -0.018409
v -0.006646 0.143956 -0.022452
v -0.010398 0.144249 -0.021587
v -0.018412 0.136417 -0.034305
v -0.014405 0.144059 -0.020131
v -0.017127 0.144083 -0.018362
v -0.021452 0.137074 -0.037452
v -0.022789 0.134319 -0.017774
v -0.024895 0.134586 -0.018888
v -0.006657 0.142382 -0.024000
v -0.021443 0.137733 -0.031935
v -0.024125 0.137754 -0.035982
v -0.010512 0.141846 -0.023331
v -0.020179 0.137129 -0.028538
v -0.014201 0.124372 -0.017692
v -0.014466 0.124836 -0.015856
v -0.016062 0.127519 -0.017400
v -0.019649 0.135308 -0.024159
v -0.018790 0.131346 -0.019096
v -0.017580 0.128966 -0.017055
v -0.024751 0.138145 -0.036521
v -0.016192 0.127243 -0.015743
v -0.018007 0.128955 -0.015485
v -0.018076 0.130755 -0.013730
v -0.015911 0.128563 -0.013942
v -0.020102 0.130596 -0.015451
v -0.019619 0.129569 -0.016890
v -0.032457 0.140080 -0.023106
v -0.013704 0.126380 -0.013811
v -0.023240 0.136600 -0.025322
v -0.021236 0.136276 -0.024676
v -0.020103 0.135875 -0.022501
v -0.012288 0.131289 -0.009400
v -0.025599 0.136552 -0.024973
v -0.012953 0.128478 -0.011848
v -0.015510 0.130527 -0.011867
v -0.014753 0.132632 -0.009729
v -0.026696 0.135699 -0.024688
v -0.031399 0.136599 -0.024661
v -0.028447 0.134298 -0.024383
v -0.026938 0.134304 -0.023997
v -0.030904 0.134848 -0.023745
v -0.017664 0.132914 -0.012074
v -0.025320 0.137749 -0.024363
v -0.023191 0.137485 -0.024422
v -0.021171 0.136910 -0.023545
v -0.016526 0.135010 -0.010468
v -0.027882 0.137116 -0.023519
v -0.027738 0.138091 -0.023521
v -0.027291 0.139309 -0.023449
v -0.020071 0.132643 -0.014083
v -0.019795 0.135580 -0.013212
v -0.018375 0.139974 -0.017175
v -0.018454 0.140871 -0.018874
v -0.027727 0.136010 -0.023063
v -0.027810 0.133450 -0.022673
v -0.026391 0.133635 -0.022997
v -0.026973 0.135172 -0.022039
v -0.031940 0.138179 -0.023382
v -0.031292 0.136537 -0.022810
v -0.018479 0.139060 -0.015886
v -0.017908 0.137597 -0.011723
v -0.029700 0.133974 -0.021721
v -0.030100 0.135072 -0.021234
v -0.020094 0.136347 -0.021688
v -0.018689 0.138413 -0.013335
v -0.019830 0.134879 -0.020452
v -0.019257 0.134202 -0.020864
v -0.020002 0.136507 -0.014317
v -0.019734 0.135583 -0.020090
v -0.018803 0.138249 -0.014896
v -0.019703 0.136180 -0.016218
v -0.019160 0.137402 -0.017211
v -0.019859 0.133249 -0.019295
v -0.019748 0.134503 -0.019075
v -0.019926 0.134855 -0.017791
v -0.019610 0.135557 -0.018499
v -0.019454 0.138980 -0.020141
v -0.019150 0.138231 -0.018403
v -0.020821 0.132374 -0.018503
v -0.020096 0.130364 -0.018118
v -0.020254 0.133839 -0.018162
v -0.019498 0.136458 -0.019590
v -0.020095 0.139757 -0.021986
v -0.019843 0.137135 -0.021172
v -0.022391 0.130943 -0.018134
v -0.022677 0.132221 -0.019057
f 464 465 3
f 464 3 4
f 5 6 7
f 5 7 8
f 472 473 11
f 472 11 8
f 12 13 14
f 12 14 15
f 16 17 18
f 16 18 19
f 20 18 17
f 20 17 21
f 22 23 19
f 22 19 18
f 24 22 18
f 24 18 20
f 473 25 26
f 473 26 11
f 490 491 29
f 490 29 15
f 13 30 31
f 13 31 14
f 32 33 29
f 32 29 4
f 34 35 36
f 34 36 37
f 34 38 39
f 34 39 35
f 40 41 35
f 40 35 39
f 41 42 36
f 41 36 35
f 506 507 31
f 506 31 45
f 321 330 328
f 321 328 319
f 40 39 50
f 40 50 51
f 52 50 39
f 52 39 38
f 53 54 26
f 53 26 45
f 55 56 57
f 55 57 58
f 59 60 37
f 59 37 36
f 59 36 42
f 59 42 61
f 62 63 57
f 62 57 56
f 64 65 66
f 64 66 67
f 68 64 67
f 68 67 69
f 70 68 69
f 70 69 71
f 72 73 50
f 72 50 52
f 51 50 73
f 51 73 74
f 72 75 76
f 72 76 73
f 74 73 76
f 74 76 77
f 78 70 71
f 78 71 79
f 80 78 79
f 80 79 81
f 82 80 81
f 82 81 83
f 72 84 85
f 72 85 75
f 75 86 87
f 75 87 76
f 85 88 86
f 85 86 75
f 89 82 83
f 89 83 90
f 91 77 76
f 91 76 87
f 65 92 93
f 65 93 66
f 94 89 90
f 94 90 95
f 92 94 95
f 92 95 93
f 85 96 97
f 85 97 88
f 98 99 96
f 98 96 85
f 85 84 100
f 85 100 98
f 101 102 103
f 101 103 104
f 105 106 107
f 105 107 108
f 95 74 77
f 95 77 93
f 90 51 74
f 90 74 95
f 109 110 106
f 109 106 105
f 93 77 91
f 93 91 66
f 574 472 8
f 574 8 7
f 112 113 114
f 112 114 115
f 83 40 51
f 83 51 90
f 81 41 40
f 81 40 83
f 116 117 118
f 116 118 119
f 81 79 42
f 81 42 41
f 19 23 120
f 19 120 121
f 79 71 61
f 79 61 42
f 122 123 124
f 122 124 125
f 126 127 128
f 126 128 129
f 78 80 130
f 78 130 131
f 78 131 132
f 78 132 70
f 133 109 134
f 133 134 135
f 80 82 136
f 80 136 130
f 137 138 139
f 137 139 140
f 89 141 136
f 89 136 82
f 131 130 136
f 131 136 142
f 24 143 144
f 24 144 145
f 94 146 141
f 94 141 89
f 92 147 146
f 92 146 94
f 148 5 8
f 148 8 11
f 65 149 147
f 65 147 92
f 113 150 151
f 113 151 114
f 115 152 153
f 115 153 112
f 154 91 87
f 154 87 155
f 155 87 86
f 155 86 156
f 112 153 157
f 112 157 158
f 159 156 86
f 159 86 88
f 160 161 162
f 160 162 113
f 113 112 158
f 113 158 160
f 119 118 163
f 119 163 164
f 117 165 166
f 117 166 118
f 22 24 145
f 22 145 167
f 167 168 169
f 167 169 22
f 168 167 170
f 168 170 171
f 167 145 59
f 167 59 170
f 165 117 172
f 165 172 173
f 173 172 174
f 173 174 175
f 176 169 168
f 176 168 177
f 171 178 177
f 171 177 168
f 175 174 179
f 175 179 180
f 161 180 179
f 161 179 162
f 176 177 181
f 176 181 182
f 178 183 181
f 178 181 177
f 647 185 186
f 647 186 187
f 188 647 187
f 188 187 189
f 6 55 58
f 6 58 7
f 63 190 3
f 63 3 57
f 654 58 57
f 654 57 655
f 655 57 3
f 655 3 465
f 189 187 193
f 189 193 126
f 190 32 4
f 190 4 3
f 186 194 193
f 186 193 187
f 19 121 195
f 19 195 196
f 196 195 98
f 196 98 100
f 197 198 123
f 197 123 122
f 63 62 199
f 63 199 200
f 63 200 201
f 63 201 190
f 201 200 54
f 201 54 53
f 200 199 202
f 200 202 54
f 197 203 204
f 197 204 198
f 204 203 205
f 204 205 206
f 53 30 207
f 53 207 201
f 190 201 207
f 190 207 32
f 208 204 206
f 208 206 209
f 210 198 204
f 210 204 208
f 506 45 26
f 506 26 25
f 54 202 211
f 54 211 26
f 212 213 124
f 212 124 123
f 53 45 31
f 53 31 30
f 210 212 123
f 210 123 198
f 574 7 58
f 574 58 654
f 113 162 179
f 113 179 214
f 174 215 214
f 174 214 179
f 55 216 217
f 55 217 56
f 216 55 6
f 216 6 218
f 117 116 219
f 117 219 172
f 219 215 174
f 219 174 172
f 220 221 215
f 220 215 219
f 113 214 222
f 113 222 150
f 223 224 225
f 223 225 226
f 227 225 224
f 227 224 228
f 229 230 125
f 229 125 124
f 231 229 124
f 231 124 213
f 221 222 214
f 221 214 215
f 153 232 233
f 153 233 157
f 228 21 234
f 228 234 227
f 230 235 122
f 230 122 125
f 232 153 152
f 232 152 236
f 491 464 4
f 491 4 29
f 115 237 236
f 115 236 152
f 236 237 238
f 236 238 239
f 240 238 237
f 240 237 241
f 207 30 242
f 207 242 243
f 30 13 244
f 30 244 242
f 507 708 14
f 507 14 31
f 246 240 241
f 246 241 247
f 33 12 15
f 33 15 29
f 247 241 237
f 247 237 115
f 248 247 115
f 248 115 114
f 249 246 247
f 249 247 248
f 250 151 150
f 250 150 222
f 32 251 252
f 32 252 33
f 251 253 137
f 251 137 252
f 33 252 254
f 33 254 12
f 252 137 140
f 252 140 254
f 114 151 250
f 114 250 248
f 255 233 232
f 255 232 256
f 243 242 138
f 243 138 257
f 242 244 139
f 242 139 138
f 211 148 11
f 211 11 26
f 239 256 232
f 239 232 236
f 258 259 148
f 258 148 211
f 259 258 60
f 259 60 144
f 211 202 260
f 211 260 258
f 60 258 260
f 60 260 37
f 261 256 239
f 261 239 262
f 263 264 221
f 263 221 220
f 264 250 222
f 264 222 221
f 264 249 248
f 264 248 250
f 265 266 249
f 265 249 264
f 708 490 15
f 708 15 14
f 267 246 249
f 267 249 266
f 244 13 12
f 244 12 254
f 268 255 256
f 268 256 261
f 254 140 139
f 254 139 244
f 269 268 261
f 269 261 270
f 271 270 261
f 271 261 262
f 270 272 273
f 270 273 269
f 271 274 272
f 271 272 270
f 34 223 275
f 34 275 38
f 223 226 276
f 223 276 275
f 277 52 38
f 277 38 275
f 275 276 278
f 275 278 277
f 274 279 280
f 274 280 272
f 32 207 243
f 32 243 251
f 272 280 281
f 272 281 273
f 251 243 257
f 251 257 253
f 282 283 281
f 282 281 280
f 280 279 284
f 280 284 282
f 282 285 286
f 282 286 283
f 56 217 287
f 56 287 62
f 223 287 217
f 223 217 224
f 224 217 216
f 224 216 228
f 186 185 288
f 186 288 289
f 286 285 289
f 286 289 288
f 62 287 290
f 62 290 199
f 290 260 202
f 290 202 199
f 194 186 289
f 194 289 291
f 285 282 284
f 285 284 292
f 223 34 290
f 223 290 287
f 34 37 260
f 34 260 290
f 285 292 291
f 285 291 289
f 231 213 212
f 231 212 293
f 291 294 295
f 291 295 194
f 293 212 210
f 293 210 296
f 126 129 297
f 126 297 189
f 189 297 298
f 189 298 188
f 126 299 300
f 126 300 127
f 126 193 301
f 126 301 299
f 17 16 302
f 17 302 303
f 304 305 203
f 304 203 197
f 21 17 303
f 21 303 234
f 235 304 197
f 235 197 122
f 306 194 295
f 306 295 307
f 194 306 301
f 194 301 193
f 292 308 294
f 292 294 291
f 309 295 294
f 309 294 308
f 310 311 277
f 310 277 278
f 296 210 208
f 296 208 312
f 311 310 313
f 311 313 314
f 315 312 208
f 315 208 209
f 316 307 295
f 316 295 309
f 103 298 297
f 103 297 104
f 311 72 52
f 311 52 277
f 72 311 314
f 72 314 84
f 317 104 297
f 317 297 129
f 318 317 129
f 318 129 128
f 314 313 319
f 314 319 320
f 321 315 209
f 321 209 206
f 322 318 128
f 322 128 127
f 320 100 84
f 320 84 314
f 323 324 318
f 323 318 322
f 127 300 325
f 127 325 322
f 323 322 325
f 323 325 326
f 325 300 299
f 325 299 327
f 328 302 16
f 328 16 329
f 319 328 329
f 319 329 320
f 321 206 205
f 321 205 330
f 330 205 203
f 330 203 305
f 327 299 301
f 327 301 331
f 332 306 307
f 332 307 316
f 320 329 196
f 320 196 100
f 329 16 19
f 329 19 196
f 331 301 306
f 331 306 332
f 333 334 327
f 333 327 331
f 228 216 218
f 228 218 335
f 228 335 20
f 228 20 21
f 326 325 327
f 326 327 334
f 333 336 337
f 333 337 334
f 143 335 218
f 143 218 338
f 218 6 5
f 218 5 338
f 334 337 339
f 334 339 326
f 335 143 24
f 335 24 20
f 340 101 104
f 340 104 317
f 338 5 148
f 338 148 259
f 324 340 317
f 324 317 318
f 144 143 338
f 144 338 259
f 341 102 101
f 341 101 342
f 59 145 144
f 59 144 60
f 342 101 340
f 342 340 343
f 170 59 61
f 170 61 344
f 345 343 340
f 345 340 324
f 344 61 71
f 344 71 69
f 323 326 339
f 323 339 346
f 68 70 132
f 68 132 347
f 346 345 324
f 346 324 323
f 171 170 344
f 171 344 263
f 118 166 348
f 118 348 163
f 163 348 349
f 163 349 350
f 344 69 67
f 344 67 351
f 68 347 352
f 68 352 64
f 350 349 341
f 350 341 342
f 353 350 342
f 353 342 343
f 350 353 164
f 350 164 163
f 344 351 354
f 344 354 263
f 351 67 66
f 351 66 91
f 91 154 354
f 91 354 351
f 181 183 119
f 181 119 164
f 64 352 149
f 64 149 65
f 345 182 353
f 345 353 343
f 263 220 178
f 263 178 171
f 164 353 182
f 164 182 181
f 355 262 239
f 355 239 238
f 178 220 219
f 178 219 116
f 178 116 119
f 178 119 183
f 356 271 262
f 356 262 355
f 357 240 246
f 357 246 267
f 264 263 354
f 264 354 265
f 154 358 265
f 154 265 354
f 357 355 238
f 357 238 240
f 359 360 357
f 359 357 267
f 361 132 131
f 361 131 142
f 132 361 352
f 132 352 347
f 355 357 362
f 355 362 356
f 147 149 352
f 147 352 361
f 363 362 357
f 363 357 360
f 147 361 142
f 147 142 146
f 364 365 362
f 364 362 363
f 146 142 136
f 146 136 141
f 366 363 360
f 366 360 367
f 97 96 99
f 97 99 368
f 274 271 356
f 274 356 369
f 365 369 356
f 365 356 362
f 154 155 370
f 154 370 371
f 154 371 372
f 154 372 358
f 373 308 292
f 373 292 284
f 155 156 374
f 155 374 370
f 279 274 369
f 279 369 375
f 284 279 375
f 284 375 373
f 369 365 376
f 369 376 375
f 308 373 377
f 308 377 309
f 374 156 159
f 374 159 378
f 88 97 379
f 88 379 159
f 380 381 378
f 380 378 159
f 159 379 382
f 159 382 380
f 375 376 377
f 375 377 373
f 365 364 383
f 365 383 376
f 384 385 370
f 384 370 374
f 371 370 385
f 371 385 386
f 377 387 316
f 377 316 309
f 387 377 376
f 387 376 383
f 374 378 388
f 374 388 389
f 374 389 390
f 374 390 384
f 363 366 391
f 363 391 364
f 392 383 364
f 392 364 391
f 339 337 393
f 339 393 394
f 381 395 388
f 381 388 378
f 380 396 397
f 380 397 381
f 395 381 397
f 395 397 398
f 176 182 345
f 176 345 346
f 176 346 339
f 176 339 394
f 379 97 368
f 379 368 399
f 399 400 382
f 399 382 379
f 337 336 401
f 337 401 393
f 402 333 331
f 402 331 332
f 403 396 380
f 403 380 382
f 382 400 404
f 382 404 403
f 402 332 316
f 402 316 387
f 386 405 372
f 386 372 371
f 392 402 387
f 392 387 383
f 333 402 406
f 333 406 336
f 358 372 407
f 358 407 408
f 266 265 358
f 266 358 408
f 402 392 409
f 402 409 406
f 372 405 410
f 372 410 407
f 336 406 411
f 336 411 401
f 412 413 401
f 412 401 411
f 408 407 414
f 408 414 359
f 414 407 410
f 414 410 415
f 412 411 406
f 412 406 409
f 267 266 408
f 267 408 359
f 413 412 416
f 413 416 417
f 418 394 393
f 418 393 419
f 359 414 420
f 359 420 421
f 414 415 422
f 414 422 420
f 393 401 413
f 393 413 419
f 423 419 413
f 423 413 417
f 424 176 394
f 424 394 418
f 419 423 425
f 419 425 418
f 426 421 420
f 426 420 427
f 428 427 420
f 428 420 429
f 430 426 427
f 430 427 431
f 427 428 432
f 427 432 431
f 418 425 433
f 418 433 424
f 405 386 433
f 405 433 425
f 434 367 421
f 434 421 426
f 435 434 426
f 435 426 430
f 423 410 405
f 423 405 425
f 410 423 417
f 410 417 415
f 430 431 436
f 430 436 437
f 431 432 438
f 431 438 436
f 415 417 416
f 415 416 422
f 439 108 391
f 439 391 366
f 437 436 397
f 437 397 396
f 436 438 398
f 436 398 397
f 392 391 108
f 392 108 107
f 392 107 440
f 392 440 409
f 441 430 437
f 441 437 442
f 437 396 403
f 437 403 442
f 443 133 135
f 443 135 444
f 442 403 404
f 442 404 445
f 133 446 110
f 133 110 109
f 442 445 447
f 442 447 441
f 133 443 448
f 133 448 446
f 412 449 422
f 412 422 416
f 430 441 450
f 430 450 435
f 450 441 447
f 450 447 451
f 449 412 409
f 449 409 440
f 452 106 110
f 452 110 446
f 453 439 434
f 453 434 435
f 367 434 439
f 367 439 366
f 452 440 107
f 452 107 106
f 435 450 454
f 435 454 453
f 440 452 429
f 440 429 449
f 455 454 450
f 455 450 451
f 452 446 448
f 452 448 456
f 428 429 452
f 428 452 456
f 359 421 367
f 359 367 360
f 429 420 422
f 429 422 449
f 22 169 457
f 22 457 23
f 138 137 253
f 138 253 257
f 176 424 457
f 176 457 169
f 457 424 433
f 457 433 458
f 99 98 195
f 99 195 459
f 368 99 459
f 368 459 460
f 23 457 458
f 23 458 120
f 368 460 461
f 368 461 399
f 390 121 120
f 390 120 384
f 399 461 462
f 399 462 400
f 385 458 433
f 385 433 386
f 384 120 458
f 384 458 385
f 445 404 463
f 445 463 49
f 447 445 49
f 447 49 48
f 459 195 121
f 459 121 390
f 451 447 48
f 451 48 47
f 390 389 460
f 390 460 459
f 455 451 47
f 455 47 46
f 456 448 443
f 456 443 46
f 428 456 46
f 428 46 47
f 47 48 432
f 47 432 428
f 453 454 135
f 453 135 134
f 453 105 108
f 453 108 439
f 105 453 134
f 105 134 109
f 48 49 438
f 48 438 432
f 135 454 455
f 135 455 444
f 49 463 398
f 49 398 438
f 46 443 444
f 46 444 455
f 462 395 398
f 462 398 463
f 400 462 463
f 400 463 404
f 460 389 388
f 460 388 461
f 461 388 395
f 461 395 462
f 229 231 226
f 229 226 225
f 230 229 225
f 230 225 227
f 235 230 227
f 235 227 234
f 231 293 276
f 231 276 226
f 293 296 278
f 293 278 276
f 305 304 303
f 305 303 302
f 304 235 234
f 304 234 303
f 296 312 310
f 296 310 278
f 312 315 313
f 312 313 310
f 315 321 319
f 315 319 313
f 330 305 302
f 330 302 328
f 464 467 466
f 464 466 465
f 468 471 470
f 468 470 469
f 472 471 474
f 472 474 473
f 475 478 477
f 475 477 476
f 479 482 481
f 479 481 480
f 483 484 480
f 483 480 481
f 485 481 482
f 485 482 486
f 487 483 481
f 487 481 485
f 473 474 489
f 473 489 25
f 490 478 492
f 490 492 491
f 476 477 494
f 476 494 493
f 495 467 492
f 495 492 496
f 497 500 499
f 497 499 498
f 497 498 502
f 497 502 501
f 503 502 498
f 503 498 504
f 504 498 499
f 504 499 505
f 506 508 494
f 506 494 507
f 509 512 511
f 509 511 510
f 503 514 513
f 503 513 502
f 515 501 502
f 515 502 513
f 516 508 489
f 516 489 517
f 518 521 520
f 518 520 519
f 522 499 500
f 522 500 523
f 522 524 505
f 522 505 499
f 525 519 520
f 525 520 526
f 527 530 529
f 527 529 528
f 531 532 530
f 531 530 527
f 533 534 532
f 533 532 531
f 535 515 513
f 535 513 536
f 514 537 536
f 514 536 513
f 535 536 539
f 535 539 538
f 537 540 539
f 537 539 536
f 541 542 534
f 541 534 533
f 543 544 542
f 543 542 541
f 545 546 544
f 545 544 543
f 535 538 548
f 535 548 547
f 538 539 550
f 538 550 549
f 548 538 549
f 548 549 551
f 552 553 546
f 552 546 545
f 554 550 539
f 554 539 540
f 528 529 556
f 528 556 555
f 557 558 553
f 557 553 552
f 555 556 558
f 555 558 557
f 548 551 560
f 548 560 559
f 561 548 559
f 561 559 562
f 548 561 563
f 548 563 547
f 564 567 103
f 564 103 102
f 568 571 570
f 568 570 569
f 558 556 540
f 558 540 537
f 553 558 537
f 553 537 514
f 572 568 569
f 572 569 573
f 556 529 554
f 556 554 540
f 574 470 471
f 574 471 472
f 575 578 577
f 575 577 576
f 546 553 514
f 546 514 503
f 544 546 503
f 544 503 504
f 579 582 581
f 579 581 580
f 544 504 505
f 544 505 542
f 482 584 583
f 482 583 486
f 542 505 524
f 542 524 534
f 585 588 587
f 585 587 586
f 589 592 591
f 589 591 590
f 541 594 593
f 541 593 543
f 541 533 595
f 541 595 594
f 596 598 597
f 596 597 572
f 543 593 599
f 543 599 545
f 600 603 602
f 600 602 601
f 552 545 599
f 552 599 604
f 594 605 599
f 594 599 593
f 487 608 607
f 487 607 606
f 557 552 604
f 557 604 609
f 555 557 609
f 555 609 610
f 611 474 471
f 611 471 468
f 528 555 610
f 528 610 612
f 576 577 614
f 576 614 613
f 578 575 616
f 578 616 615
f 617 618 550
f 617 550 554
f 618 619 549
f 618 549 550
f 575 158 157
f 575 157 616
f 622 551 549
f 622 549 619
f 160 576 625
f 160 625 161
f 576 160 158
f 576 158 575
f 582 627 626
f 582 626 581
f 580 581 166
f 580 166 165
f 485 630 608
f 485 608 487
f 630 485 632
f 630 632 631
f 631 634 633
f 631 633 630
f 630 633 522
f 630 522 608
f 165 173 635
f 165 635 580
f 173 175 637
f 173 637 635
f 639 640 631
f 639 631 632
f 634 631 640
f 634 640 641
f 175 180 642
f 175 642 637
f 161 625 642
f 161 642 180
f 639 645 644
f 639 644 640
f 641 640 644
f 641 644 646
f 647 650 649
f 647 649 185
f 188 652 650
f 188 650 647
f 469 470 521
f 469 521 518
f 526 520 466
f 526 466 653
f 654 655 520
f 654 520 521
f 655 465 466
f 655 466 520
f 652 589 656
f 652 656 650
f 653 466 467
f 653 467 495
f 649 650 656
f 649 656 657
f 482 659 658
f 482 658 584
f 659 563 561
f 659 561 658
f 660 585 586
f 660 586 661
f 526 663 662
f 526 662 525
f 526 653 664
f 526 664 663
f 664 516 517
f 664 517 663
f 663 517 665
f 663 665 662
f 660 661 667
f 660 667 666
f 667 669 668
f 667 668 666
f 516 664 670
f 516 670 493
f 653 495 670
f 653 670 664
f 671 672 669
f 671 669 667
f 673 671 667
f 673 667 661
f 506 25 489
f 506 489 508
f 517 489 674
f 517 674 665
f 675 586 587
f 675 587 676
f 516 493 494
f 516 494 508
f 673 661 586
f 673 586 675
f 574 654 521
f 574 521 470
f 576 677 642
f 576 642 625
f 637 642 677
f 637 677 678
f 518 519 680
f 518 680 679
f 679 681 469
f 679 469 518
f 580 635 682
f 580 682 579
f 682 635 637
f 682 637 678
f 683 682 678
f 683 678 684
f 576 613 685
f 576 685 677
f 686 689 688
f 686 688 687
f 690 691 687
f 690 687 688
f 692 587 588
f 692 588 693
f 694 676 587
f 694 587 692
f 684 678 677
f 684 677 685
f 616 157 233
f 616 233 695
f 691 690 697
f 691 697 484
f 693 588 585
f 693 585 698
f 695 699 615
f 695 615 616
f 491 492 467
f 491 467 464
f 578 615 699
f 578 699 700
f 699 702 701
f 699 701 700
f 703 704 700
f 703 700 701
f 670 706 705
f 670 705 493
f 493 705 707
f 493 707 476
f 507 494 477
f 507 477 708
f 709 710 704
f 709 704 703
f 496 492 478
f 496 478 475
f 710 578 700
f 710 700 704
f 711 577 578
f 711 578 710
f 712 711 710
f 712 710 709
f 713 685 613
f 713 613 614
f 495 496 715
f 495 715 714
f 714 715 600
f 714 600 716
f 496 475 717
f 496 717 715
f 715 717 603
f 715 603 600
f 577 711 713
f 577 713 614
f 255 719 695
f 255 695 233
f 706 720 601
f 706 601 705
f 705 601 602
f 705 602 707
f 674 489 474
f 674 474 611
f 702 699 695
f 702 695 719
f 721 674 611
f 721 611 722
f 722 607 523
f 722 523 721
f 674 721 723
f 674 723 665
f 523 500 723
f 523 723 721
f 724 725 702
f 724 702 719
f 726 683 684
f 726 684 727
f 727 684 685
f 727 685 713
f 727 713 711
f 727 711 712
f 728 727 712
f 728 712 729
f 708 477 478
f 708 478 490
f 730 729 712
f 730 712 709
f 707 717 475
f 707 475 476
f 268 724 719
f 268 719 255
f 717 707 602
f 717 602 603
f 269 733 724
f 269 724 268
f 734 725 724
f 734 724 733
f 733 269 273
f 733 273 735
f 734 733 735
f 734 735 737
f 497 501 738
f 497 738 686
f 686 738 739
f 686 739 689
f 740 738 501
f 740 501 515
f 738 740 741
f 738 741 739
f 737 735 743
f 737 743 742
f 495 714 706
f 495 706 670
f 735 273 281
f 735 281 743
f 714 716 720
f 714 720 706
f 745 743 281
f 745 281 283
f 743 745 747
f 743 747 742
f 745 283 286
f 745 286 748
f 519 525 750
f 519 750 680
f 686 687 680
f 686 680 750
f 687 691 679
f 687 679 680
f 649 752 288
f 649 288 185
f 286 288 752
f 286 752 748
f 525 662 753
f 525 753 750
f 753 662 665
f 753 665 723
f 657 754 752
f 657 752 649
f 748 755 747
f 748 747 745
f 686 750 753
f 686 753 497
f 497 753 723
f 497 723 500
f 748 752 754
f 748 754 755
f 694 756 675
f 694 675 676
f 754 657 758
f 754 758 757
f 756 759 673
f 756 673 675
f 589 652 760
f 589 760 592
f 652 188 298
f 652 298 760
f 589 590 763
f 589 763 762
f 589 762 764
f 589 764 656
f 480 766 765
f 480 765 479
f 767 660 666
f 767 666 768
f 484 697 766
f 484 766 480
f 698 585 660
f 698 660 767
f 769 770 758
f 769 758 657
f 657 656 764
f 657 764 769
f 755 754 757
f 755 757 771
f 772 771 757
f 772 757 758
f 773 741 740
f 773 740 774
f 759 775 671
f 759 671 673
f 774 777 776
f 774 776 773
f 778 672 671
f 778 671 775
f 779 772 758
f 779 758 770
f 103 567 760
f 103 760 298
f 774 740 515
f 774 515 535
f 535 547 777
f 535 777 774
f 780 592 760
f 780 760 567
f 781 591 592
f 781 592 780
f 777 782 512
f 777 512 776
f 509 669 672
f 509 672 778
f 783 590 591
f 783 591 781
f 782 777 547
f 782 547 563
f 784 783 781
f 784 781 785
f 590 783 786
f 590 786 763
f 784 787 786
f 784 786 783
f 786 788 762
f 786 762 763
f 511 789 479
f 511 479 765
f 512 782 789
f 512 789 511
f 509 510 668
f 509 668 669
f 510 768 666
f 510 666 668
f 788 790 764
f 788 764 762
f 791 779 770
f 791 770 769
f 782 563 659
f 782 659 789
f 789 659 482
f 789 482 479
f 790 791 769
f 790 769 764
f 792 790 788
f 792 788 793
f 691 794 681
f 691 681 679
f 691 484 483
f 691 483 794
f 787 793 788
f 787 788 786
f 792 793 796
f 792 796 795
f 606 797 681
f 606 681 794
f 681 797 468
f 681 468 469
f 793 787 798
f 793 798 796
f 794 483 487
f 794 487 606
f 799 780 567
f 799 567 564
f 797 722 611
f 797 611 468
f 785 781 780
f 785 780 799
f 607 722 797
f 607 797 606
f 341 801 564
f 341 564 102
f 522 523 607
f 522 607 608
f 801 802 799
f 801 799 564
f 633 803 524
f 633 524 522
f 804 785 799
f 804 799 802
f 803 532 534
f 803 534 524
f 784 805 798
f 784 798 787
f 531 806 595
f 531 595 533
f 805 784 785
f 805 785 804
f 634 726 803
f 634 803 633
f 581 626 348
f 581 348 166
f 626 809 349
f 626 349 348
f 803 810 530
f 803 530 532
f 531 527 811
f 531 811 806
f 809 801 341
f 809 341 349
f 812 802 801
f 812 801 809
f 809 626 627
f 809 627 812
f 803 726 813
f 803 813 810
f 810 554 529
f 810 529 530
f 554 810 813
f 554 813 617
f 644 627 582
f 644 582 646
f 527 528 612
f 527 612 811
f 804 802 812
f 804 812 645
f 726 634 641
f 726 641 683
f 627 644 645
f 627 645 812
f 814 701 702
f 814 702 725
f 641 579 682
f 641 682 683
f 641 646 582
f 641 582 579
f 815 814 725
f 815 725 734
f 816 730 709
f 816 709 703
f 727 728 813
f 727 813 726
f 617 813 728
f 617 728 817
f 816 703 701
f 816 701 814
f 818 730 816
f 818 816 819
f 820 605 594
f 820 594 595
f 595 806 811
f 595 811 820
f 814 815 821
f 814 821 816
f 610 820 811
f 610 811 612
f 822 819 816
f 822 816 821
f 610 609 605
f 610 605 820
f 823 822 821
f 823 821 824
f 609 604 599
f 609 599 605
f 825 826 819
f 825 819 822
f 560 827 562
f 560 562 559
f 737 828 815
f 737 815 734
f 824 821 815
f 824 815 828
f 617 830 829
f 617 829 618
f 617 817 831
f 617 831 830
f 832 747 755
f 832 755 771
f 618 829 833
f 618 833 619
f 742 834 828
f 742 828 737
f 747 832 834
f 747 834 742
f 828 834 835
f 828 835 824
f 771 772 836
f 771 836 832
f 833 837 622
f 833 622 619
f 551 622 838
f 551 838 560
f 839 622 837
f 839 837 840
f 622 839 841
f 622 841 838
f 834 832 836
f 834 836 835
f 824 835 842
f 824 842 823
f 843 833 829
f 843 829 844
f 830 845 844
f 830 844 829
f 836 772 779
f 836 779 846
f 846 842 835
f 846 835 836
f 833 848 847
f 833 847 837
f 833 843 849
f 833 849 848
f 822 823 850
f 822 850 825
f 851 850 823
f 851 823 842
f 798 853 852
f 798 852 796
f 840 837 847
f 840 847 854
f 839 840 856
f 839 856 855
f 854 857 856
f 854 856 840
f 639 805 804
f 639 804 645
f 639 853 798
f 639 798 805
f 838 858 827
f 838 827 560
f 858 838 841
f 858 841 859
f 796 852 860
f 796 860 795
f 861 791 790
f 861 790 792
f 862 841 839
f 862 839 855
f 841 862 863
f 841 863 859
f 861 846 779
f 861 779 791
f 845 830 831
f 845 831 864
f 851 842 846
f 851 846 861
f 792 795 865
f 792 865 861
f 817 867 866
f 817 866 831
f 729 867 817
f 729 817 728
f 861 865 868
f 861 868 851
f 831 866 869
f 831 869 864
f 795 860 870
f 795 870 865
f 871 870 860
f 871 860 872
f 867 818 873
f 867 873 866
f 873 874 869
f 873 869 866
f 871 868 865
f 871 865 870
f 730 818 867
f 730 867 729
f 872 876 875
f 872 875 871
f 877 878 852
f 877 852 853
f 818 880 879
f 818 879 873
f 873 879 881
f 873 881 874
f 852 878 872
f 852 872 860
f 882 876 872
f 882 872 878
f 883 877 853
f 883 853 639
f 878 877 884
f 878 884 882
f 885 886 879
f 885 879 880
f 808 807 879
f 808 879 886
f 800 761 886
f 800 886 885
f 886 761 751
f 886 751 808
f 877 883 749
f 877 749 884
f 864 884 749
f 864 749 845
f 746 885 880
f 746 880 826
f 744 800 885
f 744 885 746
f 882 884 864
f 882 864 869
f 869 874 876
f 869 876 882
f 800 732 736
f 800 736 761
f 761 736 731
f 761 731 751
f 874 881 875
f 874 875 876
f 718 825 850
f 718 850 571
f 732 855 856
f 732 856 736
f 736 856 857
f 736 857 731
f 851 570 571
f 851 571 850
f 851 868 696
f 851 696 570
f 651 648 732
f 651 732 800
f 732 648 862
f 732 862 855
f 643 638 598
f 643 598 596
f 648 636 863
f 648 863 862
f 596 572 573
f 596 573 629
f 648 651 628
f 648 628 636
f 596 629 624
f 596 624 643
f 871 875 881
f 871 881 623
f 800 744 621
f 800 621 651
f 621 620 628
f 621 628 651
f 623 696 868
f 623 868 871
f 566 629 573
f 566 573 569
f 565 744 746
f 565 746 718
f 826 825 718
f 826 718 746
f 566 569 570
f 566 570 696
f 744 565 488
f 744 488 621
f 696 623 807
f 696 807 566
f 245 620 621
f 245 621 488
f 566 192 624
f 566 624 629
f 808 192 566
f 808 566 807
f 818 819 826
f 818 826 880
f 807 623 881
f 807 881 879
f 485 486 191
f 485 191 632
f 601 720 716
f 601 716 600
f 639 632 191
f 639 191 883
f 191 184 749
f 191 749 883
f 562 111 658
f 562 658 561
f 827 44 111
f 827 111 562
f 486 583 184
f 486 184 191
f 827 858 43
f 827 43 44
f 849 843 583
f 849 583 584
f 858 859 28
f 858 28 43
f 844 845 749
f 844 749 184
f 843 844 184
f 843 184 583
f 636 10 27
f 636 27 863
f 628 9 10
f 628 10 636
f 111 849 584
f 111 584 658
f 620 2 9
f 620 9 628
f 849 111 44
f 849 44 848
f 245 1 2
f 245 2 620
f 192 1 643
f 192 643 624
f 808 2 1
f 808 1 192
f 2 808 751
f 2 751 9
f 565 597 598
f 565 598 488
f 565 718 571
f 565 571 568
f 568 572 597
f 568 597 565
f 9 751 731
f 9 731 10
f 598 638 245
f 598 245 488
f 10 731 857
f 10 857 27
f 1 245 638
f 1 638 643
f 28 27 857
f 28 857 854
f 859 863 27
f 859 27 28
f 44 43 847
f 44 847 848
f 43 28 854
f 43 854 847
f 692 688 689
f 692 689 694
f 693 690 688
f 693 688 692
f 698 697 690
f 698 690 693
f 694 689 739
f 694 739 756
f 756 739 741
f 756 741 759
f 768 765 766
f 768 766 767
f 767 766 697
f 767 697 698
f 759 741 773
f 759 773 775
f 775 773 776
f 775 776 778
f 778 776 512
f 778 512 509
f 510 511 765
f 510 765 768
