# C7 rest
v -0.002596 0.133550 -0.060608
v -0.002492 0.134030 -0.064763
v -0.003069 0.135501 -0.059842
v -0.036126 0.113182 -0.022052
v -0.002986 0.135919 -0.064590
v -0.035187 0.114551 -0.020127
v -0.002776 0.137133 -0.069725
v -0.002903 0.137070 -0.073197
v -0.027519 0.119002 -0.019197
v -0.035090 0.115729 -0.019205
v -0.032015 0.118546 -0.018030
v -0.030038 0.118097 -0.019786
v -0.003166 0.128615 -0.065879
v -0.002827 0.129132 -0.067961
v -0.027206 0.118109 -0.021294
v -0.026513 0.124333 -0.027028
v -0.003182 0.128295 -0.062864
v -0.028800 0.120509 -0.028513
v -0.036917 0.114547 -0.021954
v -0.002852 0.129715 -0.070962
v -0.001823 0.130937 -0.071795
v -0.035987 0.115230 -0.020811
v -0.003021 0.130504 -0.073895
v -0.004067 0.130207 -0.078445
v -0.040949 0.119955 -0.028339
v -0.003175 0.130251 -0.076398
v -0.002187 0.131454 -0.061404
v -0.002315 0.129653 -0.062454
v -0.002322 0.131861 -0.065108
v -0.001900 0.130585 -0.068115
v -0.002342 0.130013 -0.065502
v -0.001913 0.132836 -0.068577
v -0.002283 0.135153 -0.069239
v -0.001899 0.133020 -0.073024
v -0.002162 0.136243 -0.074498
v -0.002706 0.134940 -0.076802
v -0.002352 0.133154 -0.075763
v -0.002633 0.130374 -0.077745
v -0.002195 0.131631 -0.074823
v -0.035882 0.116217 -0.020169
v -0.002778 0.131005 -0.078765
v -0.003005 0.132402 -0.079119
v -0.033539 0.118477 -0.019066
v 0.013272 0.128021 -0.028768
v 0.012342 0.123676 -0.046203
v 0.017388 0.124357 -0.045626
v 0.007871 0.121032 -0.045072
v 0.019886 0.124233 -0.043707
v 0.021800 0.122385 -0.041241
v 0.025410 0.120516 -0.034163
v 0.022373 0.119038 -0.038656
v 0.028516 0.121647 -0.030281
v 0.020957 0.119448 -0.044984
v 0.021048 0.121285 -0.044013
v 0.020111 0.118001 -0.041850
v 0.019768 0.117046 -0.043208
v 0.019655 0.121160 -0.046647
v 0.019474 0.122735 -0.045910
v 0.016195 0.121755 -0.047682
v 0.016724 0.123076 -0.047455
v 0.011740 0.122401 -0.047535
v 0.011182 0.120976 -0.047495
v 0.007592 0.119956 -0.045081
v 0.007465 0.118848 -0.045281
v 0.007655 0.118046 -0.045133
v 0.010648 0.119737 -0.046693
v 0.014941 0.120494 -0.046921
v 0.010499 0.119139 -0.045929
v 0.018448 0.120020 -0.046087
v 0.019545 0.118905 -0.045067
v -0.001583 0.128337 -0.040433
v 0.018748 0.117053 -0.043784
v 0.020624 0.116084 -0.036720
v 0.023422 0.116295 -0.033631
v -0.001475 0.109423 -0.025009
v 0.010774 0.122579 -0.033467
v 0.010698 0.121860 -0.029843
v 0.009506 0.120789 -0.027966
v -0.003325 0.136001 -0.054048
v -0.002748 0.135152 -0.045571
v -0.001561 0.121236 -0.016184
v -0.001995 0.133225 -0.055190
v -0.000231 0.132118 -0.049677
v -0.001319 0.128835 -0.058279
v -0.001128 0.131097 -0.056696
v 0.000905 0.129542 -0.052546
v 0.020147 0.132605 -0.028341
v -0.002887 0.127469 -0.058484
v 0.000587 0.127403 -0.054261
v 0.018078 0.131060 -0.029076
v 0.016343 0.131240 -0.030160
v -0.002424 0.134302 -0.037734
v -0.002352 0.134057 -0.036654
v -0.002411 0.111556 -0.028935
v -0.001642 0.112303 -0.031006
v 0.000165 0.134290 -0.037426
v -0.000465 0.119533 -0.031202
v -0.000699 0.117074 -0.032538
v -0.001107 0.114006 -0.032728
v -0.000371 0.110883 -0.027517
v 0.014407 0.132552 -0.031607
v 0.002018 0.113418 -0.032452
v 0.001177 0.111950 -0.030612
v 0.013051 0.132559 -0.031323
v -0.002120 0.108366 -0.023404
v 0.000214 0.108469 -0.023527
v 0.003107 0.108066 -0.023530
v 0.004762 0.108401 -0.024575
v 0.002040 0.109259 -0.024843
v 0.005179 0.109356 -0.025835
v 0.002473 0.111293 -0.028377
v 0.003428 0.111034 -0.027863
v 0.002810 0.110436 -0.026724
v -0.001676 0.125889 -0.053139
v -0.001038 0.130426 -0.045799
v 0.000847 0.107630 -0.022508
v -0.002013 0.107210 -0.022064
v 0.002102 0.124397 -0.049447
v 0.004677 0.123026 -0.046838
v 0.005057 0.112464 -0.031948
v 0.003706 0.111524 -0.030246
v 0.005342 0.110933 -0.029257
v 0.005637 0.110400 -0.027554
v 0.008646 0.109830 -0.028270
v -0.001229 0.105426 -0.021006
v -0.000440 0.103867 -0.019665
v -0.000042 0.103755 -0.017468
v 0.018512 0.126763 -0.041662
v 0.019072 0.129598 -0.037123
v -0.001057 0.105996 -0.014852
v -0.001992 0.108828 -0.012360
v 0.001487 0.133325 -0.040482
v 0.006741 0.132814 -0.037870
v 0.010504 0.132461 -0.036042
v 0.003065 0.130636 -0.045491
v 0.003440 0.128131 -0.048692
v 0.003352 0.126109 -0.050295
v -0.002110 0.118427 -0.013250
v -0.002204 0.112026 -0.010328
v 0.007856 0.129629 -0.042476
v 0.014069 0.128996 -0.040005
v 0.007388 0.127237 -0.045930
v 0.005629 0.124233 -0.048011
v 0.007547 0.122803 -0.046096
v 0.012629 0.126112 -0.044084
v -0.002784 0.116806 -0.010163
v -0.002581 0.114820 -0.008722
v 0.015762 0.132865 -0.031691
v 0.017713 0.132723 -0.031038
v -0.001421 0.123726 -0.018068
v 0.002456 0.123960 -0.017539
v 0.012877 0.130357 -0.027398
v 0.013551 0.132098 -0.029929
v 0.015167 0.131562 -0.026992
v 0.002277 0.121325 -0.015512
v 0.001427 0.118781 -0.013082
v -0.000453 0.116950 -0.010372
v 0.001394 0.117172 -0.010556
v 0.019603 0.133644 -0.030675
v 0.021489 0.134690 -0.030053
v 0.003006 0.117816 -0.011383
v 0.022217 0.130460 -0.034057
v 0.021761 0.126360 -0.038555
v 0.024541 0.131878 -0.031195
v 0.024906 0.125237 -0.034870
v -0.001472 0.125726 -0.019881
v 0.001570 0.125656 -0.019587
v 0.022894 0.135029 -0.028190
v 0.003600 0.125910 -0.019077
v -0.005307 0.127032 -0.024919
v -0.005293 0.125526 -0.026168
v 0.027031 0.134217 -0.026174
v 0.026375 0.129318 -0.027886
v -0.005256 0.123445 -0.028690
v 0.004967 0.125129 -0.018606
v -0.005231 0.122011 -0.030376
v 0.006713 0.126402 -0.019127
v 0.006803 0.124421 -0.017847
v 0.022476 0.134414 -0.026455
v 0.019160 0.132287 -0.025325
v 0.021635 0.133676 -0.025163
v 0.006834 0.123134 -0.016691
v 0.004959 0.118591 -0.012077
v 0.025716 0.131859 -0.023830
v 0.025767 0.135030 -0.022368
v 0.023271 0.130476 -0.023346
v 0.018927 0.128022 -0.024637
v 0.018238 0.132242 -0.021739
v 0.023145 0.133982 -0.021072
v -0.005330 0.128303 -0.023362
v 0.005747 0.119758 -0.013216
v 0.006848 0.121308 -0.014860
v 0.005622 0.133560 -0.035401
v 0.009967 0.130931 -0.031068
v 0.008783 0.133303 -0.033633
v 0.009005 0.123729 -0.016062
v 0.008182 0.125124 -0.017606
v 0.000370 0.133404 -0.036448
v 0.004818 0.132029 -0.035411
v 0.010251 0.123825 -0.016469
v 0.010442 0.128581 -0.032529
v 0.010792 0.125543 -0.035033
v 0.007925 0.131344 -0.033834
v -0.001242 0.127636 -0.021121
v 0.001953 0.128484 -0.044411
v 0.001225 0.128175 -0.039861
v 0.005326 0.126966 -0.020335
v 0.002270 0.127408 -0.020858
v 0.005218 0.125740 -0.043065
v 0.004567 0.127444 -0.038496
v 0.008670 0.126714 -0.036973
v 0.006429 0.121604 -0.044195
v 0.007574 0.123825 -0.041037
v 0.009903 0.123244 -0.037976
v -0.000886 0.128217 -0.022562
v 0.007773 0.120841 -0.041342
v 0.003182 0.127907 -0.022062
v 0.006808 0.117727 -0.042851
v 0.007062 0.118982 -0.042201
v 0.009407 0.125469 -0.017927
v 0.007063 0.117001 -0.043157
v 0.008675 0.126972 -0.019645
v 0.006629 0.127851 -0.021510
v 0.009334 0.120150 -0.037694
v -0.000398 0.121147 -0.029842
v 0.008086 0.116609 -0.040772
v 0.008180 0.116222 -0.041522
v -0.000797 0.126924 -0.023972
v -0.000397 0.122899 -0.028147
v -0.000594 0.125137 -0.025603
v 0.008313 0.117565 -0.039506
v 0.017253 0.115279 -0.041782
v 0.012777 0.114654 -0.040194
v 0.012882 0.115024 -0.039231
v 0.017475 0.115748 -0.039823
v 0.016460 0.115261 -0.042287
v 0.012327 0.114638 -0.040755
v 0.003421 0.126651 -0.023368
v 0.009526 0.118532 -0.033886
v 0.007806 0.122182 -0.026366
v 0.003471 0.124517 -0.025058
v 0.003544 0.122430 -0.027336
v 0.002233 0.106250 -0.021499
v -0.005372 0.127518 -0.021811
v -0.005418 0.125245 -0.020724
v 0.003127 0.116243 -0.032221
v 0.006764 0.115592 -0.032679
v 0.006870 0.119880 -0.028592
v 0.003582 0.120185 -0.029235
v 0.003558 0.118314 -0.030574
v 0.008070 0.117990 -0.030666
v 0.003315 0.105130 -0.020282
v 0.008137 0.108775 -0.025952
v 0.008976 0.115912 -0.036673
v 0.008129 0.111064 -0.031391
v 0.012718 0.113817 -0.035983
v 0.006943 0.107647 -0.024106
v 0.004907 0.106867 -0.022687
v 0.008728 0.117977 -0.044682
v 0.008395 0.116276 -0.042053
v 0.008001 0.116908 -0.043183
v 0.006266 0.106371 -0.021325
v 0.011796 0.115217 -0.041412
v 0.015211 0.115291 -0.042311
v 0.008836 0.108054 -0.022310
v -0.005482 0.123362 -0.018685
v 0.011478 0.116491 -0.042573
v 0.016117 0.116986 -0.043148
v 0.016099 0.119673 -0.045648
v 0.013044 0.119773 -0.046177
v 0.011729 0.118414 -0.044565
v 0.016170 0.118916 -0.044677
v 0.034321 0.120090 -0.028523
v 0.003776 0.105222 -0.018205
v 0.009071 0.108343 -0.019991
v 0.006714 0.106745 -0.019373
v 0.016513 0.114452 -0.034336
v -0.000104 0.115094 -0.008873
v 0.019238 0.114791 -0.033387
v 0.002627 0.106946 -0.015570
v 0.001406 0.109478 -0.012839
v 0.000584 0.112416 -0.010641
v 0.005803 0.108134 -0.016634
v -0.005804 0.114698 -0.008508
v -0.005747 0.116692 -0.010092
v -0.005656 0.118299 -0.013359
v 0.002345 0.115725 -0.009460
v 0.021794 0.114601 -0.031555
v 0.026733 0.116580 -0.031062
v -0.005796 0.111867 -0.010136
v 0.024114 0.113447 -0.029870
v -0.005784 0.108657 -0.012129
v 0.003460 0.113197 -0.011249
v -0.005758 0.105721 -0.014590
v 0.004543 0.110539 -0.013644
v 0.008518 0.109946 -0.017177
v 0.018931 0.115246 -0.030027
v 0.004905 0.116632 -0.010018
v 0.007476 0.112345 -0.014135
v 0.006255 0.114547 -0.011659
v 0.020931 0.114928 -0.029004
v -0.005728 0.103087 -0.017145
v 0.011302 0.110269 -0.019576
v -0.005675 0.103216 -0.019467
v 0.011035 0.112542 -0.017133
v 0.022087 0.113410 -0.028412
v -0.005624 0.104979 -0.020938
v 0.022815 0.111776 -0.026878
v 0.007747 0.126789 -0.022536
v 0.008051 0.124180 -0.024074
v 0.011303 0.124763 -0.019513
v 0.010271 0.126203 -0.020885
v 0.032663 0.116943 -0.028941
v 0.030146 0.114382 -0.027900
v 0.011613 0.123315 -0.018218
v 0.009318 0.121735 -0.014072
v 0.025567 0.112099 -0.027123
v 0.029922 0.113279 -0.025664
v 0.007232 0.118071 -0.011241
v 0.008939 0.119803 -0.012422
v -0.005580 0.106980 -0.021992
v 0.016444 0.114901 -0.029849
v 0.010250 0.114908 -0.014775
v 0.009012 0.116789 -0.012604
v 0.011033 0.121615 -0.014917
v 0.014238 0.112692 -0.030782
v 0.012021 0.111725 -0.031677
v 0.011472 0.118780 -0.014545
v 0.015011 0.114172 -0.028384
v 0.012083 0.121473 -0.016883
v 0.014117 0.113433 -0.026160
v 0.012617 0.120028 -0.015952
v 0.012947 0.120270 -0.017368
v 0.012948 0.111375 -0.027634
v 0.011000 0.110292 -0.028085
v 0.010181 0.109184 -0.025154
v 0.013865 0.112973 -0.024164
v 0.012703 0.120914 -0.018455
v 0.012607 0.122049 -0.019647
v 0.013875 0.119838 -0.020072
v 0.012705 0.123219 -0.021290
v 0.013724 0.120599 -0.021145
v 0.017200 0.113943 -0.020561
v 0.013917 0.121390 -0.022733
v -0.005537 0.108251 -0.023343
v 0.016830 0.112928 -0.019291
v 0.015251 0.118585 -0.024858
v 0.015287 0.115974 -0.026787
v 0.015019 0.118146 -0.023622
v 0.014639 0.115368 -0.025263
v 0.019303 0.112787 -0.021067
v 0.015121 0.117816 -0.022563
v 0.014611 0.115381 -0.023858
v 0.022394 0.111458 -0.025222
v 0.021147 0.111794 -0.023106
v 0.013608 0.115961 -0.017189
v 0.013546 0.118254 -0.016361
v -0.032804 0.117632 -0.020570
v -0.034935 0.116434 -0.021084
v 0.024722 0.111547 -0.024449
v 0.022610 0.111284 -0.021953
v 0.027541 0.112770 -0.022881
v 0.025063 0.112590 -0.020672
v 0.023375 0.117632 -0.015351
v 0.015353 0.117684 -0.021602
v -0.032283 0.116572 -0.017701
v -0.035278 0.115566 -0.021793
v 0.020442 0.112643 -0.019001
v 0.024067 0.113982 -0.018786
v 0.014207 0.119149 -0.017384
v 0.014503 0.119006 -0.019357
v 0.019905 0.117668 -0.015900
v 0.013706 0.113638 -0.018112
v 0.017000 0.114265 -0.017883
v 0.018289 0.117943 -0.016827
v 0.016190 0.118468 -0.017202
v 0.020737 0.114897 -0.017371
v 0.016454 0.118589 -0.018196
v -0.035461 0.116432 -0.018161
v -0.035895 0.115031 -0.022708
v 0.023952 0.115166 -0.017866
v 0.020884 0.118049 -0.016825
v -0.005558 0.121194 -0.016315
v 0.018979 0.117633 -0.018672
v -0.005380 0.111503 -0.028740
v -0.005317 0.112481 -0.031092
v -0.036370 0.117252 -0.019145
v 0.010996 0.109491 -0.021837
v -0.005222 0.117555 -0.032954
v -0.005214 0.120507 -0.031857
v 0.013326 0.111753 -0.020017
v -0.005433 0.110526 -0.026839
v -0.005489 0.109338 -0.024957
v 0.014043 0.112157 -0.021178
v 0.012353 0.110488 -0.024472
v 0.016218 0.117696 -0.020309
v 0.015447 0.116376 -0.022065
v 0.015257 0.114550 -0.021595
v 0.018003 0.116454 -0.020332
v 0.012628 0.125689 -0.029687
v 0.012996 0.124389 -0.026972
v 0.012162 0.124119 -0.023198
v 0.014485 0.122240 -0.024416
v 0.028734 0.123393 -0.026680
v 0.034584 0.120581 -0.026792
v 0.015905 0.123919 -0.026065
v 0.017250 0.125193 -0.026275
v 0.033773 0.117639 -0.026899
v 0.031289 0.115676 -0.026528
v 0.016857 0.116768 -0.028140
v 0.016269 0.119352 -0.026363
v 0.019285 0.116977 -0.028254
v 0.018180 0.120053 -0.027449
v 0.020219 0.120693 -0.027436
v -0.036355 0.117831 -0.018125
v 0.021657 0.117296 -0.027676
v 0.025876 0.113942 -0.020535
v 0.022291 0.121946 -0.026895
v 0.025095 0.124005 -0.025905
v 0.024910 0.114647 -0.019433
v 0.030296 0.119273 -0.026725
v 0.024708 0.118104 -0.027298
v 0.024796 0.115638 -0.018794
v 0.022451 0.117949 -0.017792
v 0.021768 0.117113 -0.019332
v 0.020668 0.115229 -0.020735
v 0.023895 0.115871 -0.019751
v 0.017054 0.115968 -0.017399
v 0.016378 0.117392 -0.017205
v 0.020790 0.116842 -0.015253
v 0.022180 0.116223 -0.015511
v -0.035355 0.118419 -0.018722
v 0.021098 0.116067 -0.016487
v 0.018998 0.117003 -0.016409
v 0.024032 0.135795 -0.024296
v 0.022417 0.135017 -0.023067
v 0.022928 0.135143 -0.021570
v 0.025009 0.135924 -0.022918
v 0.018311 0.133324 -0.022686
v 0.018202 0.133362 -0.021552
v 0.024825 0.135643 -0.027098
v 0.026266 0.135479 -0.026373
v 0.023405 0.135310 -0.030355
v 0.024613 0.134646 -0.030580
v 0.021137 0.134750 -0.031835
v 0.022174 0.134083 -0.032509
v 0.013606 0.131948 -0.026490
v 0.011312 0.132446 -0.030307
v 0.010341 0.131982 -0.030429
v 0.012838 0.131624 -0.026478
v 0.018178 0.133936 -0.032535
v 0.018761 0.133284 -0.033745
v 0.015106 0.133531 -0.033076
v 0.014916 0.132538 -0.034860
v 0.011559 0.133012 -0.032111
v 0.010500 0.132728 -0.032561
v 0.013004 0.133350 -0.033024
v 0.012236 0.132850 -0.034127
v 0.028980 0.115793 -0.026215
v 0.024175 0.114606 -0.026674
v 0.023784 0.113413 -0.025562
v 0.028330 0.114696 -0.024626
v 0.030146 0.117202 -0.026917
v 0.024571 0.115918 -0.027065
v 0.030654 0.114583 -0.024690
v 0.025980 0.114266 -0.022784
v 0.028255 0.113916 -0.022239
v 0.023031 0.113202 -0.023971
v 0.024255 0.117010 -0.018719
v 0.024249 0.117857 -0.017365
v 0.025209 0.117249 -0.016725
v 0.025258 0.116668 -0.017745
v 0.024898 0.114445 -0.021334
v 0.022351 0.113805 -0.022403
v 0.024562 0.116385 -0.015644
v 0.024290 0.115866 -0.016804
v 0.024252 0.114994 -0.020446
v 0.021695 0.114544 -0.021350
v -0.007127 0.133280 -0.055307
v -0.007965 0.131171 -0.056851
v -0.006688 0.131503 -0.061507
v -0.006276 0.133590 -0.060691
v -0.005800 0.135531 -0.059904
v -0.005797 0.136027 -0.054104
v -0.006199 0.127504 -0.058557
v -0.005690 0.128321 -0.062919
v -0.006548 0.129699 -0.062550
v -0.007748 0.128903 -0.058424
v -0.006182 0.134070 -0.064847
v -0.005661 0.135948 -0.064651
v -0.006377 0.131904 -0.065200
v -0.005564 0.128640 -0.065932
v -0.006376 0.130056 -0.065593
v -0.006167 0.135194 -0.069327
v -0.005615 0.137164 -0.069789
v -0.006611 0.132886 -0.068684
v -0.005799 0.129164 -0.068027
v -0.006689 0.130636 -0.068223
v -0.006594 0.130987 -0.071902
v -0.006420 0.133069 -0.073127
v -0.005626 0.129744 -0.071024
v -0.006030 0.136284 -0.074584
v -0.005332 0.137097 -0.073252
v -0.006071 0.131673 -0.074910
v -0.005841 0.133192 -0.075842
v -0.004559 0.137220 -0.053681
v -0.004425 0.136814 -0.059734
v -0.004319 0.137216 -0.064259
v -0.004188 0.138362 -0.069579
v -0.004100 0.138044 -0.073624
v -0.004054 0.136943 -0.076100
v -0.005408 0.134967 -0.076861
v -0.004035 0.135041 -0.077768
v -0.005052 0.132424 -0.079164
v -0.004017 0.132492 -0.079629
v -0.004242 0.129558 -0.070909
v -0.004315 0.128720 -0.068074
v -0.004365 0.128215 -0.066091
v -0.004437 0.127886 -0.063023
v -0.004542 0.127292 -0.058593
v -0.005310 0.130528 -0.073946
v -0.004170 0.130343 -0.073777
v -0.005323 0.131030 -0.078821
v -0.035318 0.117575 -0.020072
v -0.004039 0.130821 -0.079379
v -0.005527 0.130404 -0.077808
v -0.005048 0.130270 -0.076439
v -0.004112 0.130123 -0.076471
v -0.011135 0.128307 -0.040141
v -0.010333 0.133516 -0.036693
v -0.007593 0.134112 -0.036775
v -0.008300 0.128410 -0.040586
v -0.004937 0.128714 -0.040559
v -0.004786 0.130874 -0.046309
v -0.008561 0.130507 -0.045970
v -0.028868 0.132703 -0.022804
v -0.023298 0.130723 -0.028220
v -0.023679 0.128393 -0.029606
v -0.029511 0.128493 -0.025738
v -0.020673 0.128903 -0.033236
v -0.020216 0.131246 -0.031754
v -0.023042 0.126048 -0.030496
v -0.027821 0.125633 -0.027298
v -0.020972 0.125869 -0.035752
v -0.004669 0.126234 -0.053432
v -0.007683 0.125952 -0.053272
v -0.022391 0.126472 -0.044875
v -0.022058 0.124028 -0.046978
v -0.017692 0.121294 -0.045643
v -0.017286 0.123059 -0.046650
v -0.028369 0.127240 -0.042730
v -0.027115 0.124815 -0.046634
v -0.026394 0.123520 -0.048429
v -0.021421 0.122742 -0.048280
v -0.017434 0.120214 -0.045638
v -0.029698 0.124739 -0.044831
v -0.029218 0.123237 -0.047011
v -0.031759 0.126894 -0.039771
v -0.009865 0.127513 -0.054494
v -0.010067 0.134397 -0.037660
v -0.011268 0.133459 -0.040773
v -0.006773 0.135195 -0.045663
v -0.007468 0.134355 -0.037849
v -0.017766 0.121102 -0.041913
v -0.016278 0.121837 -0.044700
v -0.017054 0.119231 -0.042736
v -0.012671 0.130804 -0.045847
v -0.009159 0.132214 -0.049880
v -0.022465 0.114998 -0.041534
v -0.026512 0.115702 -0.043249
v -0.027327 0.115734 -0.042779
v -0.022940 0.115023 -0.040993
v -0.018255 0.116496 -0.042109
v -0.018188 0.116882 -0.041355
v -0.017050 0.117251 -0.043691
v -0.016795 0.117971 -0.043374
v -0.035085 0.125825 -0.036229
v -0.031755 0.122925 -0.042450
v -0.030902 0.121815 -0.045184
v -0.035712 0.121115 -0.035541
v -0.032506 0.119588 -0.039888
v -0.030126 0.118512 -0.042977
v -0.017532 0.118307 -0.045691
v -0.017320 0.119104 -0.045831
v -0.020420 0.120058 -0.047388
v -0.020893 0.121307 -0.048214
v -0.024686 0.120904 -0.047812
v -0.025880 0.122190 -0.048630
v -0.036780 0.129927 -0.029324
v -0.038964 0.122297 -0.031809
v -0.033832 0.116859 -0.034917
v -0.030903 0.116601 -0.037872
v -0.037248 0.117203 -0.032503
v -0.028238 0.120504 -0.047138
v -0.029397 0.121666 -0.047754
v -0.027627 0.116207 -0.040831
v -0.028697 0.117541 -0.044847
v -0.029742 0.117552 -0.044317
v -0.029400 0.119408 -0.046167
v -0.030803 0.119978 -0.046148
v -0.044872 0.120848 -0.030316
v -0.043260 0.117677 -0.030654
v -0.039310 0.124042 -0.028227
v -0.045202 0.121343 -0.028601
v -0.036251 0.132455 -0.025239
v -0.009805 0.128313 -0.022763
v -0.036914 0.114874 -0.024203
v -0.040832 0.117886 -0.028520
v -0.009525 0.127726 -0.021307
v -0.030170 0.117466 -0.017528
v -0.029425 0.118390 -0.017913
v -0.027301 0.118875 -0.018191
v -0.027510 0.117804 -0.018203
v -0.032015 0.117340 -0.016455
v -0.031086 0.118147 -0.017061
v -0.004979 0.134615 -0.036204
v -0.009493 0.109509 -0.025183
v -0.010450 0.110988 -0.027739
v -0.013672 0.110607 -0.027087
v -0.013012 0.109417 -0.025173
v -0.014088 0.118496 -0.030963
v -0.010011 0.119632 -0.031411
v -0.010106 0.121248 -0.030058
v -0.014133 0.120368 -0.029628
v -0.030825 0.121187 -0.028592
v -0.032894 0.122477 -0.028147
v -0.023823 0.132479 -0.030780
v -0.026619 0.131671 -0.031137
v -0.024595 0.132950 -0.032495
v -0.023253 0.132932 -0.032151
v -0.013453 0.124128 -0.017895
v -0.015892 0.125344 -0.019072
v -0.014487 0.126100 -0.019482
v -0.012440 0.125807 -0.019902
v -0.020318 0.119458 -0.046617
v -0.018626 0.118261 -0.045290
v -0.017988 0.117178 -0.043759
v -0.034576 0.118177 -0.016671
v -0.033404 0.116748 -0.016776
v -0.035774 0.116954 -0.017017
v -0.022838 0.120145 -0.046982
v -0.025917 0.120109 -0.046593
v -0.021623 0.118761 -0.045310
v -0.018739 0.126999 -0.037590
v -0.017520 0.124085 -0.041598
v -0.019999 0.123550 -0.038649
v -0.026047 0.119355 -0.045627
v -0.026099 0.117424 -0.044094
v -0.011651 0.128629 -0.044718
v -0.025263 0.115709 -0.043217
v -0.013242 0.111455 -0.028724
v -0.014224 0.111216 -0.028253
v -0.011266 0.108591 -0.023777
v -0.008944 0.108440 -0.023552
v -0.026937 0.114889 -0.035306
v -0.029693 0.115278 -0.034481
v -0.032333 0.115135 -0.032768
v -0.039171 0.115350 -0.026148
v -0.039726 0.116458 -0.027765
v -0.034749 0.114027 -0.031191
v -0.028205 0.116397 -0.018427
v -0.033316 0.114344 -0.023657
v -0.008336 0.111617 -0.029063
v -0.010147 0.123000 -0.028367
v -0.014135 0.122613 -0.027732
v -0.033645 0.111834 -0.023218
v -0.032122 0.112316 -0.024303
v -0.021086 0.122903 -0.034188
v -0.021186 0.122182 -0.030563
v -0.023557 0.124752 -0.027799
v -0.019504 0.120446 -0.038340
v -0.019900 0.118835 -0.034546
v -0.009768 0.117167 -0.032733
v -0.031906 0.115399 -0.018565
v -0.009416 0.114091 -0.032906
v -0.005258 0.114406 -0.032836
v -0.022897 0.124463 -0.023993
v -0.020100 0.121087 -0.028634
v -0.018600 0.118263 -0.031263
v -0.008994 0.112378 -0.031165
v -0.028164 0.114697 -0.018906
v -0.018444 0.122449 -0.026957
v -0.018750 0.124451 -0.024678
v -0.017457 0.120128 -0.029138
v -0.026954 0.119772 -0.027341
v -0.032693 0.115069 -0.022578
v -0.009199 0.118505 -0.013407
v -0.009556 0.121326 -0.016364
v -0.030352 0.113270 -0.022185
v -0.009559 0.123817 -0.018252
v -0.004941 0.134577 -0.037910
v -0.004757 0.136927 -0.045048
v -0.013420 0.121489 -0.015861
v -0.012733 0.118929 -0.013395
v -0.035698 0.124585 -0.027289
v -0.033859 0.131027 -0.024645
v -0.025579 0.131970 -0.027916
v -0.028404 0.131522 -0.030132
v -0.012953 0.128305 -0.049058
v -0.010216 0.129660 -0.052797
v -0.012834 0.126279 -0.050654
v -0.029626 0.132767 -0.026431
v -0.030472 0.133106 -0.029491
v -0.032078 0.134201 -0.026382
v -0.032845 0.134957 -0.027711
v -0.031694 0.135217 -0.031264
v -0.033173 0.135581 -0.029465
v -0.029804 0.134137 -0.031799
v -0.011658 0.124541 -0.049750
v -0.027919 0.133181 -0.032077
v -0.025938 0.133288 -0.032641
v -0.011834 0.112083 -0.030897
v -0.012561 0.113567 -0.032770
v -0.015623 0.133783 -0.035888
v -0.016645 0.133060 -0.038403
v -0.014849 0.132236 -0.035861
v -0.013624 0.116415 -0.032587
v -0.017252 0.115841 -0.033211
v -0.015638 0.112676 -0.032406
v -0.014385 0.111709 -0.030645
v -0.023955 0.129387 -0.040869
v -0.020498 0.132786 -0.036746
v -0.022308 0.133209 -0.034914
v -0.024960 0.132949 -0.035770
v -0.020645 0.133054 -0.033270
v -0.018868 0.133593 -0.034264
v -0.023115 0.133725 -0.033849
v -0.021718 0.133359 -0.032869
v -0.025209 0.133944 -0.033996
v -0.009135 0.107287 -0.022221
v -0.031584 0.113146 -0.020175
v -0.020597 0.132305 -0.031134
v -0.021563 0.132787 -0.031056
v -0.011961 0.107765 -0.022789
v -0.014161 0.108246 -0.023910
v -0.016021 0.107083 -0.023149
v -0.013418 0.106413 -0.021845
v -0.017972 0.107902 -0.024656
v -0.015758 0.108613 -0.025027
v -0.019059 0.109053 -0.026554
v -0.016098 0.109575 -0.026305
v -0.016457 0.110627 -0.028043
v -0.019442 0.110116 -0.028894
v -0.016076 0.111152 -0.029732
v -0.029013 0.116903 -0.021397
v -0.010001 0.105518 -0.021202
v -0.014378 0.123225 -0.047258
v -0.015033 0.125953 -0.043515
v -0.015253 0.124451 -0.048473
v -0.010880 0.103974 -0.019900
v -0.014576 0.105315 -0.020680
v -0.019276 0.116205 -0.037302
v -0.018761 0.111338 -0.031989
v -0.022622 0.112075 -0.032448
v -0.021793 0.110624 -0.028814
v -0.021129 0.109502 -0.025848
v -0.031681 0.115732 -0.021918
v -0.028250 0.114382 -0.021586
v -0.011378 0.103872 -0.017723
v -0.015128 0.105416 -0.018627
v -0.010436 0.106094 -0.015062
v -0.027958 0.113361 -0.020301
v -0.014063 0.107115 -0.015945
v -0.029071 0.130083 -0.038220
v -0.028835 0.133764 -0.034829
v -0.032331 0.131000 -0.035297
v -0.032282 0.134624 -0.033749
v -0.012915 0.109624 -0.013164
v -0.009557 0.108906 -0.012532
v -0.026019 0.118984 -0.025792
v -0.009372 0.112098 -0.010493
v -0.025202 0.122625 -0.025317
v -0.012131 0.112545 -0.010927
v -0.009008 0.114887 -0.008864
v -0.025851 0.118540 -0.024547
v -0.017618 0.129898 -0.043048
v -0.026384 0.116778 -0.023011
v -0.008701 0.116871 -0.010292
v -0.017044 0.127493 -0.046475
v -0.011015 0.117062 -0.010605
v -0.011468 0.115211 -0.009125
v -0.028293 0.134404 -0.033594
v -0.012847 0.117321 -0.010873
v -0.014406 0.117994 -0.011770
v -0.031263 0.135273 -0.033029
v -0.009387 0.125812 -0.020059
v -0.025106 0.112540 -0.022057
v -0.017886 0.123382 -0.017243
v -0.017776 0.124669 -0.018396
v -0.018019 0.121556 -0.015415
v -0.028817 0.133824 -0.022614
v -0.023274 0.131990 -0.027296
v -0.024034 0.132328 -0.027343
v -0.028876 0.133788 -0.023753
v -0.017023 0.119987 -0.013724
v -0.016309 0.118804 -0.012550
v -0.013874 0.115893 -0.009821
v -0.016388 0.116845 -0.010493
v -0.034792 0.135230 -0.031931
v -0.034750 0.132459 -0.032543
v -0.033582 0.135873 -0.031652
v -0.036613 0.136091 -0.027803
v -0.037412 0.134842 -0.027641
v -0.035139 0.136230 -0.028461
v -0.018628 0.118323 -0.011818
v -0.013049 0.127574 -0.021202
v -0.016135 0.127187 -0.020816
v -0.035503 0.136511 -0.024290
v -0.036303 0.135630 -0.023776
v -0.034468 0.136366 -0.025623
v -0.017587 0.126650 -0.019669
v -0.019514 0.127255 -0.020276
v -0.017368 0.128098 -0.022048
v -0.019152 0.125398 -0.018217
v -0.020354 0.125764 -0.018594
v -0.020071 0.124017 -0.016713
v -0.033502 0.135691 -0.022848
v -0.033764 0.134533 -0.022361
v -0.032926 0.135557 -0.024321
v -0.020512 0.122029 -0.014741
v -0.020246 0.120088 -0.013076
v -0.022190 0.121938 -0.015665
v -0.021296 0.124136 -0.017177
v -0.018040 0.131616 -0.034424
v -0.023154 0.121811 -0.017679
v -0.022588 0.123647 -0.018989
v -0.014553 0.127645 -0.038926
v -0.022190 0.125089 -0.020268
v -0.013896 0.128090 -0.022448
v -0.026252 0.114952 -0.022531
v -0.009856 0.127019 -0.024180
v -0.014102 0.126837 -0.023765
v -0.018453 0.117842 -0.040102
v -0.018461 0.127056 -0.023124
v -0.021069 0.126514 -0.021590
v -0.018445 0.116554 -0.042649
v -0.024620 0.120966 -0.022016
v -0.024726 0.121763 -0.023610
v -0.010019 0.125236 -0.025819
v -0.023081 0.115396 -0.040035
v -0.021894 0.115566 -0.042165
v -0.014121 0.124700 -0.025456
v -0.023085 0.114182 -0.036781
v -0.017448 0.106615 -0.021849
v -0.017976 0.106997 -0.019919
v -0.019936 0.108347 -0.022946
v -0.024858 0.113084 -0.031652
v -0.023303 0.110845 -0.025265
v -0.022086 0.109823 -0.022573
v -0.021499 0.116834 -0.043309
v -0.020268 0.108638 -0.020642
v -0.022477 0.110603 -0.020332
v -0.022273 0.112863 -0.017885
v -0.019809 0.110225 -0.017812
v -0.024876 0.114009 -0.018983
v -0.024449 0.112123 -0.020865
v -0.044446 0.118392 -0.028667
v -0.017160 0.108363 -0.017147
v -0.029529 0.115723 -0.031115
v -0.027060 0.115331 -0.030824
v -0.025708 0.114575 -0.029296
v -0.014959 0.113383 -0.011662
v -0.031579 0.115443 -0.030184
v -0.015987 0.110744 -0.014108
v -0.018857 0.112601 -0.014729
v -0.017705 0.114779 -0.012196
v -0.032790 0.113950 -0.029643
v -0.040844 0.115073 -0.029498
v -0.036351 0.112708 -0.028513
v -0.033620 0.112332 -0.028143
v -0.040742 0.113967 -0.027255
v -0.021548 0.115210 -0.015494
v -0.032316 0.117818 -0.028893
v -0.029928 0.117456 -0.029363
v -0.027512 0.117202 -0.029139
v -0.020370 0.117068 -0.013264
v -0.034930 0.115182 -0.028004
v -0.035282 0.116499 -0.028414
v -0.035364 0.118683 -0.028655
v -0.024773 0.116324 -0.018061
v -0.024702 0.118613 -0.017228
v -0.023541 0.122396 -0.020465
v -0.023542 0.123570 -0.022111
v -0.034613 0.113983 -0.026875
v -0.035638 0.112138 -0.025804
v -0.033280 0.112006 -0.026470
v -0.033938 0.113758 -0.025253
v -0.042021 0.116386 -0.028182
v -0.041492 0.115281 -0.026317
v -0.023714 0.121261 -0.019280
v -0.022701 0.119105 -0.015317
v -0.038499 0.113411 -0.024369
v -0.039218 0.114567 -0.023762
v -0.026020 0.116378 -0.027717
v -0.023757 0.120375 -0.016775
v -0.024931 0.113819 -0.027035
v -0.023738 0.111744 -0.028450
v -0.025299 0.119521 -0.018281
v -0.025453 0.115759 -0.026165
v -0.024019 0.120621 -0.018205
v -0.025510 0.119385 -0.020267
v -0.024834 0.120206 -0.020952
v -0.024778 0.113353 -0.025030
v -0.025488 0.115770 -0.024762
v -0.026285 0.118081 -0.022546
v -0.026007 0.118209 -0.023495
f 82 85 27
f 82 27 1
f 1 3 79
f 1 79 82
f 88 17 28
f 88 28 84
f 3 1 2
f 3 2 5
f 1 27 29
f 1 29 2
f 17 13 31
f 17 31 28
f 5 2 33
f 5 33 7
f 2 29 32
f 2 32 33
f 13 14 30
f 13 30 31
f 21 34 32
f 21 32 30
f 14 20 21
f 14 21 30
f 35 8 7
f 35 7 33
f 39 37 34
f 39 34 21
f 506 79 3
f 506 3 507
f 507 3 5
f 507 5 508
f 508 5 7
f 508 7 509
f 509 7 8
f 509 8 510
f 510 8 35
f 510 35 511
f 511 35 36
f 511 36 513
f 513 36 42
f 513 42 515
f 516 20 14
f 516 14 517
f 518 13 17
f 518 17 519
f 517 14 13
f 517 13 518
f 519 17 88
f 519 88 520
f 23 20 516
f 23 516 522
f 42 36 37
f 42 37 41
f 24 525 41
f 24 41 38
f 23 39 21
f 23 21 20
f 26 38 39
f 26 39 23
f 23 522 528
f 23 528 26
f 26 528 24
f 26 24 38
f 84 28 27
f 84 27 85
f 28 31 29
f 28 29 27
f 31 30 32
f 31 32 29
f 35 33 32
f 35 32 34
f 36 35 34
f 36 34 37
f 39 38 41
f 39 41 37
f 515 42 41
f 515 41 525
f 206 198 93
f 206 93 71
f 533 534 115
f 533 115 71
f 188 152 44
f 188 44 187
f 201 44 152
f 201 152 194
f 400 407 187
f 400 187 44
f 202 400 44
f 202 44 201
f 534 545 114
f 534 114 115
f 145 45 47
f 145 47 144
f 145 128 46
f 145 46 45
f 60 61 45
f 60 45 46
f 61 63 47
f 61 47 45
f 60 46 48
f 60 48 58
f 163 48 46
f 163 46 128
f 84 89 114
f 84 114 88
f 96 132 80
f 96 80 92
f 216 212 144
f 216 144 47
f 216 47 63
f 216 63 219
f 135 83 80
f 135 80 132
f 237 236 232
f 237 232 233
f 227 237 233
f 227 233 226
f 221 227 226
f 221 226 218
f 165 49 48
f 165 48 163
f 58 48 49
f 58 49 54
f 165 50 51
f 165 51 49
f 54 49 51
f 54 51 55
f 65 221 218
f 65 218 64
f 66 65 64
f 66 64 62
f 67 66 62
f 67 62 59
f 165 173 52
f 165 52 50
f 50 74 73
f 50 73 51
f 52 289 74
f 52 74 50
f 69 67 59
f 69 59 57
f 235 55 51
f 235 51 73
f 236 72 56
f 236 56 232
f 70 69 57
f 70 57 53
f 72 70 53
f 72 53 56
f 52 273 313
f 52 313 289
f 404 405 273
f 404 273 52
f 52 173 184
f 52 184 404
f 215 190 244
f 215 244 204
f 434 375 376
f 434 376 429
f 53 54 55
f 53 55 56
f 57 58 54
f 57 54 53
f 430 372 375
f 430 375 434
f 56 55 235
f 56 235 232
f 616 533 71
f 616 71 93
f 75 100 113
f 75 113 109
f 59 60 58
f 59 58 57
f 62 61 60
f 62 60 59
f 250 97 225
f 250 225 249
f 62 64 63
f 62 63 61
f 187 407 414
f 187 414 418
f 64 218 219
f 64 219 63
f 153 91 101
f 153 101 104
f 151 175 169
f 151 169 167
f 65 66 68
f 65 68 259
f 65 259 261
f 65 261 221
f 364 430 431
f 364 431 475
f 66 67 270
f 66 270 68
f 69 269 270
f 69 270 67
f 259 68 270
f 259 270 271
f 202 211 213
f 202 213 214
f 70 272 269
f 70 269 69
f 72 268 272
f 72 272 70
f 205 206 71
f 205 71 115
f 236 264 268
f 236 268 72
f 100 111 112
f 100 112 113
f 109 106 105
f 109 105 75
f 277 235 73
f 277 73 279
f 279 73 74
f 279 74 288
f 75 105 345
f 75 345 393
f 291 288 74
f 291 74 289
f 392 385 94
f 392 94 100
f 100 75 393
f 100 393 392
f 249 225 229
f 249 229 242
f 97 390 176
f 97 176 225
f 400 202 214
f 400 214 76
f 76 77 401
f 76 401 400
f 77 76 224
f 77 224 239
f 76 214 216
f 76 216 224
f 390 97 98
f 390 98 389
f 389 98 99
f 389 99 676
f 402 401 77
f 402 77 78
f 239 251 78
f 239 78 77
f 676 99 95
f 676 95 386
f 385 386 95
f 385 95 94
f 402 78 240
f 402 240 310
f 251 248 240
f 251 240 78
f 383 286 138
f 383 138 81
f 266 383 81
f 266 81 150
f 198 96 92
f 198 92 93
f 83 82 79
f 83 79 80
f 691 92 80
f 691 80 692
f 692 80 79
f 692 79 506
f 150 81 155
f 150 155 151
f 138 156 155
f 138 155 81
f 187 418 419
f 187 419 186
f 186 419 404
f 186 404 184
f 154 90 91
f 154 91 153
f 83 135 136
f 83 136 86
f 83 86 85
f 83 85 82
f 85 86 89
f 85 89 84
f 86 136 137
f 86 137 89
f 154 180 87
f 154 87 90
f 87 180 181
f 87 181 179
f 160 87 179
f 160 179 168
f 159 90 87
f 159 87 160
f 520 88 114
f 520 114 545
f 89 137 118
f 89 118 114
f 149 148 101
f 149 101 91
f 159 149 91
f 159 91 90
f 616 93 92
f 616 92 691
f 100 94 95
f 100 95 103
f 99 102 103
f 99 103 95
f 96 193 133
f 96 133 132
f 193 96 198
f 193 198 199
f 97 250 246
f 97 246 98
f 246 102 99
f 246 99 98
f 247 120 102
f 247 102 246
f 100 103 121
f 100 121 111
f 141 134 458
f 141 458 454
f 456 458 134
f 456 134 195
f 457 455 104
f 457 104 101
f 453 457 101
f 453 101 148
f 120 121 103
f 120 103 102
f 105 117 321
f 105 321 345
f 195 194 449
f 195 449 456
f 455 448 153
f 455 153 104
f 117 105 106
f 117 106 116
f 109 107 116
f 109 116 106
f 116 107 258
f 116 258 243
f 257 258 107
f 257 107 108
f 253 257 108
f 253 108 110
f 110 108 107
f 110 107 109
f 123 110 109
f 123 109 113
f 124 253 110
f 124 110 123
f 122 112 111
f 122 111 121
f 113 112 122
f 113 122 123
f 307 321 117
f 307 117 125
f 118 205 115
f 118 115 114
f 243 125 117
f 243 117 116
f 119 209 205
f 119 205 118
f 209 119 212
f 209 212 213
f 118 137 143
f 118 143 119
f 212 119 143
f 212 143 144
f 126 125 243
f 126 243 252
f 254 255 120
f 254 120 247
f 255 122 121
f 255 121 120
f 255 124 123
f 255 123 122
f 327 335 124
f 327 124 255
f 336 253 124
f 336 124 335
f 304 307 125
f 304 125 126
f 302 304 126
f 302 126 127
f 274 127 126
f 274 126 252
f 127 130 294
f 127 294 302
f 274 280 130
f 274 130 127
f 145 141 129
f 145 129 128
f 141 454 452
f 141 452 129
f 162 163 128
f 162 128 129
f 129 452 446
f 129 446 162
f 280 281 131
f 280 131 130
f 130 131 292
f 130 292 294
f 139 290 292
f 139 292 131
f 131 281 282
f 131 282 139
f 139 147 284
f 139 284 290
f 132 133 140
f 132 140 135
f 141 140 133
f 141 133 134
f 134 133 193
f 134 193 195
f 138 286 285
f 138 285 146
f 284 147 146
f 284 146 285
f 135 140 142
f 135 142 136
f 142 143 137
f 142 137 136
f 156 138 146
f 156 146 157
f 147 139 282
f 147 282 278
f 141 145 142
f 141 142 140
f 145 144 143
f 145 143 142
f 147 278 157
f 147 157 146
f 453 148 149
f 453 149 451
f 157 158 161
f 157 161 156
f 451 149 159
f 451 159 445
f 151 167 166
f 151 166 150
f 150 166 245
f 150 245 266
f 151 182 178
f 151 178 175
f 151 155 192
f 151 192 182
f 152 188 440
f 152 440 450
f 447 439 180
f 447 180 154
f 194 152 450
f 194 450 449
f 448 447 154
f 448 154 153
f 191 156 161
f 191 161 183
f 156 191 192
f 156 192 155
f 278 287 158
f 278 158 157
f 298 161 158
f 298 158 287
f 444 164 162
f 444 162 446
f 445 159 160
f 445 160 443
f 164 444 442
f 164 442 172
f 441 443 160
f 441 160 168
f 319 183 161
f 319 161 298
f 244 245 166
f 244 166 204
f 164 165 163
f 164 163 162
f 165 164 172
f 165 172 173
f 208 204 166
f 208 166 167
f 207 208 167
f 207 167 169
f 172 442 438
f 172 438 185
f 435 441 168
f 435 168 179
f 177 207 169
f 177 169 175
f 185 184 173
f 185 173 172
f 222 223 207
f 222 207 177
f 175 178 197
f 175 197 177
f 222 177 197
f 222 197 220
f 197 178 182
f 197 182 196
f 437 440 188
f 437 188 189
f 438 437 189
f 438 189 185
f 435 179 181
f 435 181 436
f 436 181 180
f 436 180 439
f 196 182 192
f 196 192 316
f 320 191 183
f 320 183 319
f 185 189 186
f 185 186 184
f 189 188 187
f 189 187 186
f 316 192 191
f 316 191 320
f 325 200 196
f 325 196 316
f 195 193 199
f 195 199 203
f 195 203 201
f 195 201 194
f 220 197 196
f 220 196 200
f 325 330 315
f 325 315 200
f 211 203 199
f 211 199 210
f 199 198 206
f 199 206 210
f 200 315 311
f 200 311 220
f 203 211 202
f 203 202 201
f 217 215 204
f 217 204 208
f 210 206 205
f 210 205 209
f 223 217 208
f 223 208 207
f 213 211 210
f 213 210 209
f 170 190 215
f 170 215 228
f 216 214 213
f 216 213 212
f 228 215 217
f 228 217 238
f 224 216 219
f 224 219 231
f 309 238 217
f 309 217 223
f 231 219 218
f 231 218 226
f 222 220 311
f 222 311 312
f 227 221 261
f 227 261 260
f 312 309 223
f 312 223 222
f 239 224 231
f 239 231 254
f 225 176 174
f 225 174 229
f 229 174 171
f 229 171 230
f 231 226 233
f 231 233 234
f 227 260 263
f 227 263 237
f 230 171 170
f 230 170 228
f 241 230 228
f 241 228 238
f 230 241 242
f 230 242 229
f 231 234 256
f 231 256 254
f 234 233 232
f 234 232 235
f 235 277 256
f 235 256 234
f 240 248 249
f 240 249 242
f 237 263 264
f 237 264 236
f 309 310 241
f 309 241 238
f 254 247 251
f 254 251 239
f 242 241 310
f 242 310 240
f 262 252 243
f 262 243 258
f 251 247 246
f 251 246 250
f 251 250 249
f 251 249 248
f 276 274 252
f 276 252 262
f 265 257 253
f 265 253 336
f 255 254 256
f 255 256 327
f 277 326 327
f 277 327 256
f 265 262 258
f 265 258 257
f 395 388 265
f 395 265 336
f 267 261 259
f 267 259 271
f 261 267 263
f 261 263 260
f 262 265 275
f 262 275 276
f 268 264 263
f 268 263 267
f 303 275 265
f 303 265 388
f 268 267 271
f 268 271 272
f 305 296 275
f 305 275 303
f 272 271 270
f 272 270 269
f 373 303 388
f 373 388 391
f 313 273 405
f 313 405 408
f 280 274 276
f 280 276 283
f 296 283 276
f 296 276 275
f 277 279 297
f 277 297 322
f 277 322 329
f 277 329 326
f 293 287 278
f 293 278 282
f 279 288 301
f 279 301 297
f 281 280 283
f 281 283 295
f 282 281 295
f 282 295 293
f 283 296 299
f 283 299 295
f 287 293 300
f 287 300 298
f 301 288 291
f 301 291 306
f 289 313 314
f 289 314 291
f 317 308 306
f 317 306 291
f 291 314 318
f 291 318 317
f 295 299 300
f 295 300 293
f 296 305 323
f 296 323 299
f 416 412 297
f 416 297 301
f 322 297 412
f 322 412 410
f 300 324 319
f 300 319 298
f 324 300 299
f 324 299 323
f 301 306 460
f 301 460 464
f 301 464 422
f 301 422 416
f 303 373 356
f 303 356 305
f 357 323 305
f 357 305 356
f 311 315 339
f 311 339 341
f 308 461 460
f 308 460 306
f 317 360 354
f 317 354 308
f 461 308 354
f 461 354 468
f 402 310 309
f 402 309 312
f 402 312 311
f 402 311 341
f 314 313 408
f 314 408 409
f 409 465 318
f 409 318 314
f 315 330 338
f 315 338 339
f 328 325 316
f 328 316 320
f 362 360 317
f 362 317 318
f 318 465 467
f 318 467 362
f 328 320 319
f 328 319 324
f 410 348 329
f 410 329 322
f 357 328 324
f 357 324 323
f 325 328 332
f 325 332 330
f 326 329 331
f 326 331 334
f 335 327 326
f 335 326 334
f 328 357 370
f 328 370 332
f 329 348 350
f 329 350 331
f 330 332 333
f 330 333 338
f 371 340 338
f 371 338 333
f 334 331 337
f 334 337 395
f 337 331 350
f 337 350 353
f 371 333 332
f 371 332 370
f 336 335 334
f 336 334 395
f 340 371 365
f 340 365 352
f 344 341 339
f 344 339 342
f 395 337 398
f 395 398 394
f 337 353 397
f 337 397 398
f 339 338 340
f 339 340 342
f 349 342 340
f 349 340 352
f 403 402 341
f 403 341 344
f 342 349 347
f 342 347 344
f 346 394 398
f 346 398 343
f 426 343 398
f 426 398 399
f 368 346 343
f 368 343 351
f 343 426 478
f 343 478 351
f 344 347 411
f 344 411 403
f 348 410 411
f 348 411 347
f 374 391 394
f 374 394 346
f 377 374 346
f 377 346 368
f 349 350 348
f 349 348 347
f 350 349 352
f 350 352 353
f 368 351 355
f 368 355 361
f 351 478 474
f 351 474 355
f 353 352 365
f 353 365 397
f 428 429 356
f 428 356 373
f 361 355 354
f 361 354 360
f 355 474 468
f 355 468 354
f 435 436 437
f 435 437 438
f 436 439 440
f 436 440 437
f 441 435 438
f 441 438 442
f 443 441 442
f 443 442 444
f 445 443 444
f 445 444 446
f 447 448 449
f 447 449 450
f 439 447 450
f 439 450 440
f 451 445 446
f 451 446 452
f 453 451 452
f 453 452 454
f 448 455 456
f 448 456 449
f 455 457 458
f 455 458 456
f 457 453 454
f 457 454 458
f 459 460 461
f 459 461 462
f 463 464 460
f 463 460 459
f 465 462 466
f 465 466 467
f 462 461 468
f 462 468 466
f 469 470 471
f 469 471 472
f 473 466 468
f 473 468 474
f 475 476 472
f 475 472 471
f 477 473 474
f 477 474 478
f 434 433 431
f 434 431 430
f 433 434 429
f 433 429 428
f 433 476 475
f 433 475 431
f 427 477 478
f 427 478 426
f 426 425 469
f 426 469 427
f 425 424 470
f 425 470 469
f 472 423 427
f 472 427 469
f 422 464 463
f 422 463 421
f 423 420 477
f 423 477 427
f 421 419 418
f 421 418 422
f 420 417 473
f 420 473 477
f 417 467 466
f 417 466 473
f 416 414 413
f 416 413 412
f 412 413 411
f 412 411 410
f 409 459 462
f 409 462 465
f 422 418 414
f 422 414 416
f 408 463 459
f 408 459 409
f 407 406 413
f 407 413 414
f 408 405 421
f 408 421 463
f 405 404 419
f 405 419 421
f 406 403 411
f 406 411 413
f 402 403 406
f 402 406 401
f 357 356 429
f 357 429 376
f 400 401 406
f 400 406 407
f 399 398 397
f 399 397 396
f 395 394 391
f 395 391 388
f 426 399 384
f 426 384 425
f 384 382 424
f 384 424 425
f 472 476 381
f 472 381 423
f 378 384 399
f 378 399 396
f 377 381 476
f 377 476 433
f 384 378 376
f 384 376 375
f 391 374 428
f 391 428 373
f 433 428 374
f 433 374 377
f 384 375 372
f 384 372 382
f 396 371 370
f 396 370 378
f 381 369 420
f 381 420 423
f 368 369 381
f 368 381 377
f 371 396 397
f 371 397 365
f 364 470 424
f 364 424 382
f 363 417 420
f 363 420 369
f 364 382 372
f 364 372 430
f 363 362 467
f 363 467 417
f 470 364 475
f 470 475 471
f 361 360 362
f 361 362 363
f 369 368 361
f 369 361 363
f 357 376 378
f 357 378 370
f 479 482 481
f 479 481 480
f 482 479 484
f 482 484 483
f 485 488 487
f 485 487 486
f 483 490 489
f 483 489 482
f 482 489 491
f 482 491 481
f 486 487 493
f 486 493 492
f 490 495 494
f 490 494 489
f 489 494 496
f 489 496 491
f 492 493 498
f 492 498 497
f 499 498 496
f 499 496 500
f 497 498 499
f 497 499 501
f 502 494 495
f 502 495 503
f 504 499 500
f 504 500 505
f 506 507 483
f 506 483 484
f 507 508 490
f 507 490 483
f 508 509 495
f 508 495 490
f 509 510 503
f 509 503 495
f 510 511 502
f 510 502 503
f 511 513 512
f 511 512 502
f 513 515 514
f 513 514 512
f 516 517 497
f 516 497 501
f 518 519 486
f 518 486 492
f 517 518 492
f 517 492 497
f 519 520 485
f 519 485 486
f 521 522 516
f 521 516 501
f 514 523 505
f 514 505 512
f 24 526 523
f 24 523 525
f 521 501 499
f 521 499 504
f 527 521 504
f 527 504 526
f 521 527 528
f 521 528 522
f 527 526 24
f 527 24 528
f 488 480 481
f 488 481 487
f 487 481 491
f 487 491 493
f 493 491 496
f 493 496 498
f 502 500 496
f 502 496 494
f 512 505 500
f 512 500 502
f 504 505 523
f 504 523 526
f 515 525 523
f 515 523 514
f 529 532 531
f 529 531 530
f 533 532 535
f 533 535 534
f 536 539 538
f 536 538 537
f 540 541 537
f 540 537 538
f 542 538 539
f 542 539 543
f 544 540 538
f 544 538 542
f 534 535 546
f 534 546 545
f 547 550 549
f 547 549 548
f 547 548 552
f 547 552 551
f 553 552 548
f 553 548 554
f 554 548 549
f 554 549 555
f 553 557 556
f 553 556 552
f 558 551 552
f 558 552 556
f 488 485 546
f 488 546 559
f 560 563 562
f 560 562 561
f 564 549 550
f 564 550 565
f 564 566 555
f 564 555 549
f 567 561 562
f 567 562 568
f 569 572 571
f 569 571 570
f 573 574 572
f 573 572 569
f 575 576 574
f 575 574 573
f 577 558 556
f 577 556 578
f 557 579 578
f 557 578 556
f 577 578 581
f 577 581 580
f 579 582 581
f 579 581 578
f 583 584 576
f 583 576 575
f 585 586 584
f 585 584 583
f 587 588 586
f 587 586 585
f 577 580 590
f 577 590 589
f 580 581 592
f 580 592 591
f 590 580 591
f 590 591 593
f 594 595 588
f 594 588 587
f 596 592 581
f 596 581 582
f 570 571 598
f 570 598 597
f 599 600 595
f 599 595 594
f 597 598 600
f 597 600 599
f 590 593 602
f 590 602 601
f 603 590 601
f 603 601 604
f 590 603 605
f 590 605 589
f 606 609 244
f 606 244 190
f 610 613 612
f 610 612 611
f 600 598 582
f 600 582 579
f 595 600 579
f 595 579 557
f 614 610 611
f 614 611 615
f 598 571 596
f 598 596 582
f 616 531 532
f 616 532 533
f 617 620 619
f 617 619 618
f 588 595 557
f 588 557 553
f 586 588 553
f 586 553 554
f 621 624 623
f 621 623 622
f 586 554 555
f 586 555 584
f 539 626 625
f 539 625 543
f 584 555 566
f 584 566 576
f 627 630 629
f 627 629 628
f 631 634 633
f 631 633 632
f 583 636 635
f 583 635 585
f 583 575 637
f 583 637 636
f 638 640 639
f 638 639 614
f 585 635 641
f 585 641 587
f 594 587 641
f 594 641 642
f 636 643 641
f 636 641 635
f 544 646 645
f 544 645 644
f 599 594 642
f 599 642 647
f 597 599 647
f 597 647 648
f 649 535 532
f 649 532 529
f 570 597 648
f 570 648 650
f 618 619 652
f 618 652 651
f 620 617 654
f 620 654 653
f 655 656 592
f 655 592 596
f 656 657 591
f 656 591 592
f 617 393 345
f 617 345 654
f 660 593 591
f 660 591 657
f 392 618 663
f 392 663 385
f 618 392 393
f 618 393 617
f 624 665 664
f 624 664 623
f 622 623 176
f 622 176 390
f 542 668 646
f 542 646 544
f 668 542 670
f 668 670 669
f 669 672 671
f 669 671 668
f 668 671 564
f 668 564 646
f 390 389 673
f 390 673 622
f 389 676 675
f 389 675 673
f 677 678 669
f 677 669 670
f 672 669 678
f 672 678 679
f 676 386 680
f 676 680 675
f 385 663 680
f 385 680 386
f 677 683 682
f 677 682 678
f 679 678 682
f 679 682 684
f 383 688 687
f 383 687 286
f 266 690 688
f 266 688 383
f 530 531 563
f 530 563 560
f 568 562 484
f 568 484 479
f 691 692 562
f 691 562 563
f 692 506 484
f 692 484 562
f 690 631 693
f 690 693 688
f 687 688 693
f 687 693 694
f 539 696 695
f 539 695 626
f 696 605 603
f 696 603 695
f 697 627 628
f 697 628 698
f 568 700 699
f 568 699 567
f 568 479 480
f 568 480 700
f 480 488 559
f 480 559 700
f 700 559 701
f 700 701 699
f 697 698 703
f 697 703 702
f 703 705 704
f 703 704 702
f 706 707 705
f 706 705 703
f 708 706 703
f 708 703 698
f 520 545 546
f 520 546 485
f 559 546 709
f 559 709 701
f 710 628 629
f 710 629 711
f 708 698 628
f 708 628 710
f 616 691 563
f 616 563 531
f 618 712 680
f 618 680 663
f 675 680 712
f 675 712 713
f 560 561 715
f 560 715 714
f 714 716 530
f 714 530 560
f 622 673 717
f 622 717 621
f 717 673 675
f 717 675 713
f 718 717 713
f 718 713 719
f 618 651 720
f 618 720 712
f 721 724 723
f 721 723 722
f 725 726 722
f 725 722 723
f 727 629 630
f 727 630 728
f 729 711 629
f 729 629 727
f 719 713 712
f 719 712 720
f 654 345 321
f 654 321 730
f 726 725 732
f 726 732 541
f 728 630 627
f 728 627 733
f 730 734 653
f 730 653 654
f 620 653 734
f 620 734 735
f 734 737 736
f 734 736 735
f 738 739 735
f 738 735 736
f 740 741 739
f 740 739 738
f 741 620 735
f 741 735 739
f 742 619 620
f 742 620 741
f 743 742 741
f 743 741 740
f 744 720 651
f 744 651 652
f 619 742 744
f 619 744 652
f 307 746 730
f 307 730 321
f 709 546 535
f 709 535 649
f 737 734 730
f 737 730 746
f 747 709 649
f 747 649 748
f 748 645 565
f 748 565 747
f 709 747 749
f 709 749 701
f 565 550 749
f 565 749 747
f 750 751 737
f 750 737 746
f 752 718 719
f 752 719 753
f 753 719 720
f 753 720 744
f 753 744 742
f 753 742 743
f 754 753 743
f 754 743 755
f 756 755 743
f 756 743 740
f 304 750 746
f 304 746 307
f 302 759 750
f 302 750 304
f 760 751 750
f 760 750 759
f 759 302 294
f 759 294 761
f 760 759 761
f 760 761 763
f 547 551 764
f 547 764 721
f 721 764 765
f 721 765 724
f 766 764 551
f 766 551 558
f 764 766 767
f 764 767 765
f 763 761 769
f 763 769 768
f 761 294 292
f 761 292 769
f 771 769 292
f 771 292 290
f 769 771 773
f 769 773 768
f 771 290 284
f 771 284 774
f 561 567 776
f 561 776 715
f 721 722 715
f 721 715 776
f 722 726 714
f 722 714 715
f 687 778 285
f 687 285 286
f 284 285 778
f 284 778 774
f 567 699 779
f 567 779 776
f 779 699 701
f 779 701 749
f 694 780 778
f 694 778 687
f 774 781 773
f 774 773 771
f 721 776 779
f 721 779 547
f 547 779 749
f 547 749 550
f 774 778 780
f 774 780 781
f 729 782 710
f 729 710 711
f 780 694 784
f 780 784 783
f 782 785 708
f 782 708 710
f 631 690 786
f 631 786 634
f 690 266 245
f 690 245 786
f 631 632 789
f 631 789 788
f 631 788 790
f 631 790 693
f 537 792 791
f 537 791 536
f 793 697 702
f 793 702 794
f 541 732 792
f 541 792 537
f 733 627 697
f 733 697 793
f 795 796 784
f 795 784 694
f 694 693 790
f 694 790 795
f 781 780 783
f 781 783 797
f 798 797 783
f 798 783 784
f 799 767 766
f 799 766 800
f 785 801 706
f 785 706 708
f 800 803 802
f 800 802 799
f 804 707 706
f 804 706 801
f 805 798 784
f 805 784 796
f 244 609 786
f 244 786 245
f 800 766 558
f 800 558 577
f 577 589 803
f 577 803 800
f 806 634 786
f 806 786 609
f 807 633 634
f 807 634 806
f 803 809 808
f 803 808 802
f 810 705 707
f 810 707 804
f 811 632 633
f 811 633 807
f 809 803 589
f 809 589 605
f 812 811 807
f 812 807 813
f 632 811 814
f 632 814 789
f 812 815 814
f 812 814 811
f 814 816 788
f 814 788 789
f 817 818 536
f 817 536 791
f 808 809 818
f 808 818 817
f 810 819 704
f 810 704 705
f 819 794 702
f 819 702 704
f 816 820 790
f 816 790 788
f 821 805 796
f 821 796 795
f 809 605 696
f 809 696 818
f 818 696 539
f 818 539 536
f 820 821 795
f 820 795 790
f 822 820 816
f 822 816 823
f 726 824 716
f 726 716 714
f 726 541 540
f 726 540 824
f 815 823 816
f 815 816 814
f 822 823 826
f 822 826 825
f 644 827 716
f 644 716 824
f 716 827 529
f 716 529 530
f 823 815 828
f 823 828 826
f 824 540 544
f 824 544 644
f 829 806 609
f 829 609 606
f 827 748 649
f 827 649 529
f 813 807 806
f 813 806 829
f 645 748 827
f 645 827 644
f 170 831 606
f 170 606 190
f 564 565 645
f 564 645 646
f 831 832 829
f 831 829 606
f 671 833 566
f 671 566 564
f 834 813 829
f 834 829 832
f 833 574 576
f 833 576 566
f 812 835 828
f 812 828 815
f 573 836 637
f 573 637 575
f 835 812 813
f 835 813 834
f 672 752 833
f 672 833 671
f 623 664 174
f 623 174 176
f 664 839 171
f 664 171 174
f 833 840 572
f 833 572 574
f 573 569 841
f 573 841 836
f 839 831 170
f 839 170 171
f 842 832 831
f 842 831 839
f 839 664 665
f 839 665 842
f 833 752 843
f 833 843 840
f 840 596 571
f 840 571 572
f 596 840 843
f 596 843 655
f 682 665 624
f 682 624 684
f 569 570 650
f 569 650 841
f 834 832 842
f 834 842 683
f 752 672 679
f 752 679 718
f 665 682 683
f 665 683 842
f 844 736 737
f 844 737 751
f 679 621 717
f 679 717 718
f 679 684 624
f 679 624 621
f 845 844 751
f 845 751 760
f 846 756 740
f 846 740 738
f 753 754 843
f 753 843 752
f 655 843 754
f 655 754 847
f 846 738 736
f 846 736 844
f 848 756 846
f 848 846 849
f 850 643 636
f 850 636 637
f 637 836 841
f 637 841 850
f 844 845 851
f 844 851 846
f 648 850 841
f 648 841 650
f 852 849 846
f 852 846 851
f 648 647 643
f 648 643 850
f 853 852 851
f 853 851 854
f 647 642 641
f 647 641 643
f 855 856 849
f 855 849 852
f 602 857 604
f 602 604 601
f 763 858 845
f 763 845 760
f 854 851 845
f 854 845 858
f 655 860 859
f 655 859 656
f 655 847 861
f 655 861 860
f 862 773 781
f 862 781 797
f 656 859 863
f 656 863 657
f 768 864 858
f 768 858 763
f 773 862 864
f 773 864 768
f 858 864 865
f 858 865 854
f 797 798 866
f 797 866 862
f 863 867 660
f 863 660 657
f 593 660 868
f 593 868 602
f 869 660 867
f 869 867 870
f 660 869 871
f 660 871 868
f 864 862 866
f 864 866 865
f 854 865 872
f 854 872 853
f 873 863 859
f 873 859 874
f 860 875 874
f 860 874 859
f 866 798 805
f 866 805 876
f 876 872 865
f 876 865 866
f 863 878 877
f 863 877 867
f 863 873 879
f 863 879 878
f 852 853 880
f 852 880 855
f 881 880 853
f 881 853 872
f 828 883 882
f 828 882 826
f 870 867 877
f 870 877 884
f 869 870 886
f 869 886 885
f 884 887 886
f 884 886 870
f 677 835 834
f 677 834 683
f 677 883 828
f 677 828 835
f 868 888 857
f 868 857 602
f 888 868 871
f 888 871 889
f 826 882 890
f 826 890 825
f 891 821 820
f 891 820 822
f 892 871 869
f 892 869 885
f 871 892 893
f 871 893 889
f 891 876 805
f 891 805 821
f 875 860 861
f 875 861 894
f 881 872 876
f 881 876 891
f 822 825 895
f 822 895 891
f 847 897 896
f 847 896 861
f 755 897 847
f 755 847 754
f 891 895 898
f 891 898 881
f 861 896 899
f 861 899 894
f 825 890 900
f 825 900 895
f 901 900 890
f 901 890 902
f 897 848 903
f 897 903 896
f 903 904 899
f 903 899 896
f 901 898 895
f 901 895 900
f 756 848 897
f 756 897 755
f 902 906 905
f 902 905 901
f 838 837 882
f 838 882 883
f 848 787 830
f 848 830 903
f 903 830 777
f 903 777 904
f 882 837 902
f 882 902 890
f 775 906 902
f 775 902 837
f 772 838 883
f 772 883 677
f 837 838 770
f 837 770 775
f 762 758 830
f 762 830 787
f 757 745 830
f 757 830 758
f 731 689 758
f 731 758 762
f 758 689 686
f 758 686 757
f 838 772 685
f 838 685 770
f 894 770 685
f 894 685 875
f 681 762 787
f 681 787 856
f 674 731 762
f 674 762 681
f 775 770 894
f 775 894 899
f 899 904 906
f 899 906 775
f 731 666 667
f 731 667 689
f 689 667 662
f 689 662 686
f 904 777 905
f 904 905 906
f 661 855 880
f 661 880 613
f 666 885 886
f 666 886 667
f 667 886 887
f 667 887 662
f 810 808 817
f 810 817 819
f 819 817 791
f 819 791 794
f 804 802 808
f 804 808 810
f 801 799 802
f 801 802 804
f 785 767 799
f 785 799 801
f 793 792 732
f 793 732 733
f 794 791 792
f 794 792 793
f 782 765 767
f 782 767 785
f 729 724 765
f 729 765 782
f 733 732 725
f 733 725 728
f 728 725 723
f 728 723 727
f 727 723 724
f 727 724 729
f 659 658 884
f 659 884 877
f 608 659 877
f 608 877 878
f 889 893 607
f 889 607 658
f 658 607 887
f 658 887 884
f 524 387 415
f 524 415 432
f 380 662 887
f 380 887 607
f 640 415 387
f 640 387 379
f 367 686 662
f 367 662 380
f 610 614 639
f 610 639 366
f 366 661 613
f 366 613 610
f 366 639 640
f 366 640 379
f 359 757 686
f 359 686 367
f 757 359 524
f 757 524 358
f 358 524 432
f 358 432 43
f 387 524 359
f 387 359 40
f 879 25 608
f 879 608 878
f 40 359 367
f 40 367 22
f 25 879 626
f 25 626 695
f 22 367 380
f 22 380 19
f 19 380 607
f 19 607 893
f 873 874 18
f 873 18 625
f 874 875 685
f 874 685 18
f 888 889 658
f 888 658 659
f 879 873 625
f 879 625 626
f 857 888 659
f 857 659 608
f 543 625 18
f 543 18 16
f 857 608 25
f 857 25 604
f 604 25 695
f 604 695 603
f 16 18 685
f 16 685 772
f 677 670 16
f 677 16 772
f 881 612 613
f 881 613 880
f 542 543 16
f 542 16 670
f 745 15 777
f 745 777 830
f 848 849 856
f 848 856 787
f 757 358 12
f 757 12 745
f 12 358 43
f 12 43 11
f 387 40 10
f 387 10 379
f 9 15 745
f 9 745 12
f 674 366 379
f 674 379 10
f 12 611 612
f 12 612 9
f 856 855 661
f 856 661 681
f 366 674 681
f 366 681 661
f 12 11 615
f 12 615 611
f 15 9 898
f 15 898 901
f 10 40 22
f 10 22 6
f 731 674 10
f 731 10 6
f 901 905 777
f 901 777 15
f 638 11 43
f 638 43 432
f 4 6 22
f 4 22 19
f 638 614 615
f 638 615 11
f 4 19 893
f 4 893 892
f 432 415 640
f 432 640 638
f 666 4 892
f 666 892 885
f 6 4 666
f 6 666 731
f 881 898 9
f 881 9 612
