# Calcaneus_R posed
v 0.755026 0.260450 0.350783
v 0.739193 0.260304 0.353995
v 0.723517 0.263051 0.360598
v 0.730243 0.266776 0.361726
v 0.711983 0.263975 0.368155
v 0.721910 0.268943 0.365815
v 0.741150 0.265834 0.357941
v 0.761685 0.264496 0.353845
v 0.715984 0.269980 0.371551
v 0.723624 0.274005 0.370138
v 0.715962 0.278848 0.377172
v 0.711700 0.273928 0.376791
v 0.707785 0.281348 0.382333
v 0.704048 0.275497 0.382090
v 0.765990 0.257783 0.344522
v 0.775205 0.259790 0.344970
v 0.778425 0.250877 0.333495
v 0.788825 0.254919 0.333704
v 0.785739 0.260347 0.346111
v 0.799910 0.259650 0.335692
v 0.774273 0.263757 0.355106
v 0.749361 0.270420 0.362459
v 0.762369 0.269143 0.363306
v 0.732693 0.270947 0.364576
v 0.732038 0.275516 0.370080
v 0.721950 0.281726 0.379453
v 0.714228 0.284436 0.385243
v 0.740714 0.275902 0.370381
v 0.730686 0.281966 0.380738
v 0.721859 0.284120 0.386813
v 0.748622 0.277601 0.371300
v 0.741122 0.283719 0.377385
v 0.723921 0.281214 0.391015
v 0.734211 0.281609 0.385732
v 0.742597 0.280302 0.382115
v 0.724405 0.276266 0.393725
v 0.735170 0.272958 0.389701
v 0.720973 0.269099 0.395317
v 0.729332 0.264532 0.394087
v 0.713710 0.264809 0.391978
v 0.719881 0.259213 0.388728
v 0.705507 0.266397 0.388371
v 0.711936 0.259531 0.384421
v 0.716734 0.255322 0.380006
v 0.702595 0.270261 0.384882
v 0.710067 0.265912 0.380362
v 0.712466 0.262262 0.375456
v 0.710736 0.258968 0.370414
v 0.721736 0.254190 0.363524
v 0.738483 0.250971 0.357296
v 0.719254 0.250397 0.374798
v 0.721487 0.246345 0.370588
v 0.724922 0.242891 0.365268
v 0.750788 0.248642 0.354208
v 0.731865 0.236527 0.365134
v 0.730798 0.242769 0.370696
v 0.729764 0.249769 0.376826
v 0.729184 0.255266 0.382802
v 0.737294 0.258648 0.389131
v 0.745163 0.270338 0.386451
v 0.744761 0.254060 0.376276
v 0.746698 0.247943 0.369601
v 0.740459 0.240871 0.368075
v 0.744612 0.232441 0.361398
v 0.758870 0.237590 0.352427
v 0.768632 0.247823 0.345108
v 0.777327 0.243264 0.338257
v 0.772799 0.237990 0.346877
v 0.782581 0.237612 0.339910
v 0.746598 0.257883 0.384038
v 0.753957 0.266666 0.381904
v 0.749477 0.274800 0.377299
v 0.763454 0.261963 0.367071
v 0.779687 0.257070 0.357882
v 0.796186 0.256676 0.345562
v 0.806687 0.258187 0.337185
v 0.753250 0.260096 0.374813
v 0.762516 0.252163 0.364764
v 0.761078 0.245393 0.361413
v 0.773315 0.246794 0.357324
v 0.784817 0.246482 0.353195
v 0.798324 0.247551 0.345667
v 0.753787 0.240368 0.362588
v 0.761574 0.232297 0.357715
v 0.771135 0.234194 0.354356
v 0.777894 0.236926 0.351810
v 0.782543 0.240928 0.348366
v 0.791606 0.242271 0.342336
v 0.788632 0.247176 0.336083
v 0.789476 0.241641 0.338909
v 0.800147 0.247763 0.339875
v 0.798899 0.252209 0.335037
v 0.708353 0.273621 0.391563
v 0.709363 0.280511 0.389401
v 0.731356 0.268158 0.362568
v 0.727495 0.272529 0.367564
v 0.746030 0.268537 0.359407
v 0.723192 0.277636 0.374158
v 0.738526 0.273133 0.366972
v 0.731099 0.278674 0.375252
v 0.706920 0.271346 0.381037
v 0.716420 0.274490 0.373649
v 0.713501 0.267985 0.376117
v 0.718013 0.269464 0.368852
v 0.721474 0.266249 0.363732
v 0.733374 0.264092 0.358567
v 0.711830 0.264215 0.371859
v 0.716164 0.259836 0.365539
v 0.749234 0.263078 0.353629
v 0.729967 0.256476 0.358208
v 0.723865 0.248102 0.364245
v 0.716101 0.251692 0.370202
v 0.712107 0.260625 0.380145
v 0.714179 0.256689 0.375433
v 0.718889 0.256456 0.384315
v 0.723381 0.252287 0.378874
v 0.724953 0.247136 0.373506
v 0.725909 0.241970 0.368507
v 0.746330 0.254450 0.353055
v 0.735384 0.244106 0.359928
v 0.764431 0.261009 0.348118
v 0.760232 0.253996 0.349302
v 0.728807 0.258483 0.388931
v 0.737356 0.267389 0.391350
v 0.739153 0.276294 0.386102
v 0.736982 0.283537 0.382320
v 0.740128 0.281214 0.373967
v 0.747387 0.279977 0.376634
v 0.749774 0.272995 0.367135
v 0.762024 0.267614 0.358294
v 0.774099 0.261912 0.350170
v 0.747959 0.263041 0.386711
v 0.748464 0.273630 0.382195
v 0.756082 0.271012 0.369762
v 0.754010 0.265918 0.375739
v 0.739395 0.256279 0.383102
v 0.751198 0.258718 0.378737
v 0.737498 0.251382 0.376671
v 0.751719 0.253465 0.371469
v 0.765121 0.257462 0.366478
v 0.771181 0.263275 0.360975
v 0.783985 0.259495 0.351219
v 0.737108 0.244799 0.371867
v 0.736310 0.237981 0.367077
v 0.750112 0.243691 0.365498
v 0.750044 0.236462 0.362965
v 0.760500 0.248213 0.363161
v 0.775091 0.250400 0.358576
v 0.744946 0.238457 0.357610
v 0.760141 0.232665 0.355324
v 0.761835 0.238021 0.359415
v 0.770675 0.235245 0.349810
v 0.770603 0.240812 0.356142
v 0.779798 0.242701 0.352728
v 0.762643 0.242965 0.349754
v 0.774229 0.241506 0.342701
v 0.782654 0.237598 0.346137
v 0.797148 0.259312 0.341436
v 0.792298 0.251928 0.351096
v 0.790272 0.243726 0.347330
v 0.787825 0.240249 0.342036
v 0.805341 0.250602 0.340267
v 0.795627 0.244560 0.341412
v 0.787153 0.259252 0.340134
v 0.804015 0.253234 0.335339
v 0.776324 0.257153 0.338606
v 0.770428 0.249898 0.340806
v 0.784525 0.248702 0.334649
v 0.786453 0.241951 0.337116
v 0.794114 0.247302 0.337685
v 0.795574 0.252949 0.334163
v 0.727453 0.271312 0.394217
v 0.711642 0.261918 0.388918
v 0.720361 0.264117 0.393255
v 0.706352 0.264911 0.384032
v 0.709198 0.277778 0.379036
v 0.706653 0.268721 0.389833
v 0.722224 0.283314 0.383046
v 0.714860 0.282003 0.380866
v 0.715596 0.271178 0.394425
v 0.727617 0.282751 0.386286
v 0.716985 0.284881 0.388771
v 0.729387 0.278074 0.390208
v 0.714258 0.278920 0.393417
v 0.707063 0.282520 0.385275
v 0.704525 0.275311 0.387738
v 0.746973 0.260300 0.352525
v 0.731076 0.261978 0.357066
v 0.758614 0.263404 0.351536
v 0.726894 0.265091 0.361012
v 0.717254 0.263628 0.364348
v 0.726017 0.268040 0.363674
v 0.716581 0.266762 0.366885
v 0.740165 0.263082 0.355971
v 0.735625 0.266194 0.359931
v 0.751505 0.265952 0.355318
v 0.722749 0.271480 0.367964
v 0.714287 0.266770 0.369785
v 0.719372 0.272547 0.370510
v 0.719687 0.276352 0.373741
v 0.714517 0.271866 0.374322
v 0.713313 0.276793 0.376482
v 0.707719 0.274700 0.379410
v 0.711785 0.280212 0.379708
v 0.705244 0.278651 0.381909
v 0.760770 0.258914 0.347874
v 0.768259 0.262034 0.349528
v 0.770332 0.259492 0.344573
v 0.771664 0.254507 0.339037
v 0.781875 0.257953 0.339173
v 0.784920 0.252673 0.332546
v 0.780520 0.259993 0.345550
v 0.794421 0.257415 0.334522
v 0.792801 0.260219 0.340942
v 0.779516 0.261685 0.350833
v 0.768102 0.264546 0.354126
v 0.755278 0.267396 0.358263
v 0.736777 0.268376 0.361313
v 0.756048 0.270169 0.362708
v 0.768110 0.266399 0.359293
v 0.741000 0.271044 0.363377
v 0.727251 0.270072 0.365126
v 0.732381 0.273236 0.367362
v 0.727806 0.274891 0.370094
v 0.726798 0.278605 0.374807
v 0.718954 0.280388 0.378172
v 0.718022 0.283390 0.382274
v 0.710878 0.283180 0.383725
v 0.736357 0.275702 0.370250
v 0.744790 0.272933 0.366597
v 0.735212 0.279291 0.375398
v 0.726109 0.281428 0.380261
v 0.726164 0.282586 0.383888
v 0.718055 0.284784 0.386013
v 0.753872 0.272209 0.367963
v 0.745083 0.277186 0.370260
v 0.745185 0.281044 0.373757
v 0.735487 0.283496 0.379099
v 0.742349 0.282755 0.379976
v 0.723008 0.283071 0.389111
v 0.731623 0.283120 0.383743
v 0.728956 0.281238 0.388294
v 0.738503 0.281101 0.384116
v 0.724267 0.278918 0.392604
v 0.734647 0.277314 0.387762
v 0.729674 0.274708 0.391786
v 0.722533 0.272880 0.395090
v 0.732562 0.269373 0.392956
v 0.725016 0.266816 0.394932
v 0.717090 0.266921 0.393902
v 0.724234 0.261343 0.391947
v 0.716473 0.261708 0.390688
v 0.709565 0.265602 0.390216
v 0.702980 0.272837 0.383292
v 0.707818 0.262616 0.386549
v 0.715427 0.258792 0.386822
v 0.709846 0.262314 0.382257
v 0.713884 0.266179 0.373617
v 0.714429 0.257522 0.382192
v 0.702862 0.268356 0.387085
v 0.706293 0.268093 0.382657
v 0.710898 0.269923 0.378659
v 0.712230 0.264071 0.377877
v 0.713589 0.258655 0.377972
v 0.711406 0.260610 0.373022
v 0.710497 0.261307 0.369099
v 0.715866 0.256544 0.367079
v 0.722118 0.258399 0.361778
v 0.729507 0.252282 0.360194
v 0.738875 0.255242 0.355099
v 0.713827 0.254482 0.373119
v 0.718218 0.252984 0.377303
v 0.720205 0.248331 0.372770
v 0.719519 0.249697 0.367388
v 0.722950 0.244606 0.368021
v 0.731190 0.246737 0.360901
v 0.753707 0.253956 0.351483
v 0.744567 0.249748 0.355682
v 0.740343 0.241796 0.358913
v 0.727606 0.239573 0.365333
v 0.731030 0.239563 0.368182
v 0.725637 0.244378 0.370908
v 0.724201 0.249834 0.376040
v 0.722652 0.254436 0.381863
v 0.729428 0.252699 0.379706
v 0.724397 0.257042 0.385859
v 0.730273 0.246343 0.373737
v 0.733335 0.256996 0.385929
v 0.733231 0.261264 0.392104
v 0.742421 0.264841 0.389559
v 0.740073 0.271598 0.388047
v 0.743806 0.275338 0.384385
v 0.737034 0.254080 0.379784
v 0.738436 0.248264 0.373730
v 0.745381 0.251229 0.372934
v 0.743548 0.244372 0.368909
v 0.735530 0.241529 0.369707
v 0.742256 0.236568 0.365412
v 0.737782 0.234089 0.363369
v 0.751748 0.234282 0.356167
v 0.754508 0.243086 0.353542
v 0.760765 0.248375 0.350614
v 0.766026 0.252593 0.345086
v 0.772110 0.245516 0.341907
v 0.777940 0.246916 0.335667
v 0.770165 0.242803 0.345975
v 0.765704 0.238012 0.349999
v 0.777544 0.237658 0.343318
v 0.779905 0.240398 0.339089
v 0.745101 0.256527 0.380275
v 0.741939 0.258105 0.386645
v 0.752386 0.261297 0.383023
v 0.749989 0.268700 0.384510
v 0.752357 0.270911 0.379490
v 0.746671 0.277749 0.379718
v 0.750322 0.276397 0.374018
v 0.755154 0.268228 0.372092
v 0.764372 0.265560 0.365675
v 0.771486 0.259530 0.362597
v 0.777859 0.260723 0.356584
v 0.787612 0.256658 0.351656
v 0.790988 0.258689 0.345948
v 0.801623 0.257753 0.341641
v 0.803132 0.259401 0.336492
v 0.755588 0.262928 0.377616
v 0.758313 0.261028 0.371019
v 0.749867 0.256611 0.375605
v 0.758027 0.255968 0.369912
v 0.771858 0.253936 0.361969
v 0.754318 0.250166 0.367133
v 0.753557 0.246698 0.365579
v 0.747018 0.240629 0.365321
v 0.767094 0.246159 0.359286
v 0.767531 0.249640 0.360967
v 0.778954 0.246628 0.355297
v 0.798566 0.252051 0.346189
v 0.782740 0.251150 0.356364
v 0.792777 0.246558 0.349301
v 0.757335 0.242902 0.361969
v 0.753294 0.231851 0.359363
v 0.757513 0.236338 0.360516
v 0.765801 0.239784 0.357953
v 0.766669 0.233069 0.356065
v 0.775304 0.241945 0.354447
v 0.774740 0.235471 0.353113
v 0.783917 0.243452 0.350959
v 0.779970 0.238969 0.350156
v 0.796128 0.244427 0.343711
v 0.787210 0.241490 0.345351
v 0.765829 0.234788 0.351889
v 0.780139 0.236277 0.348297
v 0.785123 0.238580 0.343549
v 0.784654 0.244815 0.336079
v 0.789251 0.244332 0.337401
v 0.790335 0.242031 0.340723
v 0.787419 0.239266 0.338869
v 0.789403 0.250639 0.334390
v 0.805695 0.251973 0.337448
v 0.800836 0.246976 0.342136
v 0.794298 0.244938 0.339714
v 0.799796 0.249859 0.337312
v 0.793504 0.249839 0.335785
v 0.801485 0.255127 0.333684
v 0.710683 0.283366 0.388113
v 0.714826 0.275508 0.394287
v 0.710546 0.269203 0.392119
v 0.704545 0.272188 0.388690
v 0.704580 0.278672 0.386741
v 0.708728 0.277066 0.390578
v 0.714662 0.282287 0.391933
f 2 188 106
f 2 106 194
f 270 110 188
f 270 188 2
f 2 194 109
f 2 109 187
f 187 119 270
f 187 270 2
f 191 105 190
f 191 190 3
f 3 190 106
f 3 106 188
f 268 108 191
f 268 191 3
f 188 110 268
f 188 268 3
f 4 192 95
f 4 95 195
f 190 105 192
f 190 192 4
f 4 195 106
f 4 106 190
f 198 104 193
f 198 193 5
f 5 193 105
f 5 105 191
f 266 107 198
f 266 198 5
f 191 108 266
f 191 266 5
f 6 197 96
f 6 96 222
f 193 104 197
f 193 197 6
f 222 95 192
f 222 192 6
f 6 192 105
f 6 105 193
f 218 97 196
f 218 196 7
f 7 196 109
f 7 109 194
f 195 95 218
f 195 218 7
f 7 194 106
f 7 106 195
f 8 207 121
f 8 121 189
f 216 131 207
f 216 207 8
f 196 97 217
f 196 217 8
f 8 217 130
f 8 130 216
f 8 189 109
f 8 109 196
f 201 102 199
f 201 199 9
f 9 199 104
f 9 104 198
f 258 103 201
f 258 201 9
f 198 107 258
f 198 258 9
f 10 200 98
f 10 98 224
f 199 102 200
f 199 200 10
f 10 224 96
f 10 96 197
f 10 197 104
f 10 104 199
f 200 102 202
f 200 202 11
f 11 202 176
f 11 176 204
f 11 204 179
f 11 179 226
f 11 226 98
f 11 98 200
f 262 101 203
f 262 203 12
f 12 203 176
f 12 176 202
f 201 103 262
f 201 262 12
f 202 102 201
f 202 201 12
f 204 176 205
f 204 205 13
f 13 205 185
f 13 185 228
f 13 228 179
f 13 179 204
f 203 101 254
f 203 254 14
f 14 254 186
f 14 186 368
f 14 368 185
f 14 185 205
f 205 176 203
f 205 203 14
f 206 121 208
f 206 208 15
f 15 208 166
f 15 166 209
f 15 209 167
f 15 167 303
f 15 303 122
f 15 122 206
f 212 164 210
f 212 210 16
f 16 210 166
f 16 166 208
f 207 131 212
f 207 212 16
f 208 121 207
f 208 207 16
f 209 166 211
f 209 211 17
f 17 211 168
f 17 168 305
f 17 305 167
f 17 167 209
f 210 164 213
f 210 213 18
f 18 213 171
f 18 171 357
f 211 166 210
f 211 210 18
f 357 168 211
f 357 211 18
f 322 158 214
f 322 214 19
f 19 214 164
f 19 164 212
f 212 131 215
f 212 215 19
f 19 215 142
f 19 142 322
f 214 158 324
f 214 324 20
f 20 324 165
f 20 165 363
f 20 213 164
f 20 164 214
f 363 171 213
f 363 213 20
f 21 216 130
f 21 130 220
f 215 131 216
f 215 216 21
f 21 220 141
f 21 141 320
f 21 320 142
f 21 142 215
f 230 129 219
f 230 219 22
f 22 219 130
f 22 130 217
f 217 97 221
f 217 221 22
f 22 221 99
f 22 99 230
f 219 129 235
f 219 235 23
f 23 235 134
f 23 134 318
f 23 318 141
f 23 141 220
f 220 130 219
f 220 219 23
f 218 95 222
f 218 222 24
f 24 222 96
f 24 96 223
f 24 223 99
f 24 99 221
f 221 97 218
f 221 218 24
f 224 98 225
f 224 225 25
f 25 225 100
f 25 100 229
f 25 229 99
f 25 99 223
f 25 223 96
f 25 96 224
f 26 227 178
f 26 178 232
f 226 179 227
f 226 227 26
f 26 232 100
f 26 100 225
f 26 225 98
f 26 98 226
f 27 234 178
f 27 178 227
f 364 182 234
f 364 234 27
f 228 185 364
f 228 364 27
f 27 227 179
f 27 179 228
f 229 100 231
f 229 231 28
f 28 231 127
f 28 127 236
f 28 236 129
f 28 129 230
f 230 99 229
f 230 229 28
f 232 178 233
f 232 233 29
f 29 233 181
f 29 181 241
f 241 126 238
f 241 238 29
f 29 238 127
f 29 127 231
f 29 231 100
f 29 100 232
f 30 240 181
f 30 181 233
f 234 182 240
f 234 240 30
f 30 233 178
f 30 178 234
f 236 127 237
f 236 237 31
f 31 237 128
f 31 128 316
f 31 235 129
f 31 129 236
f 316 134 235
f 316 235 31
f 238 126 239
f 238 239 32
f 32 239 128
f 32 128 237
f 32 237 127
f 32 127 238
f 33 242 181
f 33 181 240
f 244 183 242
f 244 242 33
f 370 184 244
f 370 244 33
f 33 240 182
f 33 182 370
f 245 125 243
f 245 243 34
f 34 243 126
f 34 126 241
f 242 183 245
f 242 245 34
f 34 241 181
f 34 181 242
f 35 315 128
f 35 128 239
f 292 133 315
f 292 315 35
f 35 239 126
f 35 126 243
f 35 243 125
f 35 125 292
f 247 172 246
f 247 246 36
f 36 246 183
f 36 183 244
f 365 180 247
f 365 247 36
f 244 184 365
f 244 365 36
f 37 248 124
f 37 124 291
f 246 172 248
f 246 248 37
f 37 291 125
f 37 125 245
f 37 245 183
f 37 183 246
f 38 249 172
f 38 172 247
f 250 174 249
f 250 249 38
f 247 180 250
f 247 250 38
f 39 251 123
f 39 123 289
f 249 174 251
f 249 251 39
f 39 289 124
f 39 124 248
f 39 248 172
f 39 172 249
f 253 173 252
f 253 252 40
f 40 252 174
f 40 174 250
f 366 177 253
f 366 253 40
f 250 180 366
f 250 366 40
f 41 256 115
f 41 115 286
f 252 173 256
f 252 256 41
f 41 286 123
f 41 123 251
f 41 251 174
f 41 174 252
f 42 255 173
f 42 173 253
f 260 175 255
f 260 255 42
f 253 177 260
f 253 260 42
f 43 257 113
f 43 113 259
f 255 175 257
f 255 257 43
f 43 259 115
f 43 115 256
f 256 173 255
f 256 255 43
f 259 113 264
f 259 264 44
f 44 264 114
f 44 114 272
f 44 272 116
f 44 116 284
f 44 284 115
f 44 115 259
f 254 101 261
f 254 261 45
f 45 261 175
f 45 175 260
f 367 186 254
f 367 254 45
f 45 260 177
f 45 177 367
f 262 103 263
f 262 263 46
f 46 263 113
f 46 113 257
f 46 257 175
f 46 175 261
f 46 261 101
f 46 101 262
f 258 107 265
f 258 265 47
f 47 265 114
f 47 114 264
f 263 103 258
f 263 258 47
f 264 113 263
f 264 263 47
f 266 108 267
f 266 267 48
f 48 267 112
f 48 112 271
f 48 271 114
f 48 114 265
f 48 265 107
f 48 107 266
f 268 110 269
f 268 269 49
f 49 269 111
f 49 111 274
f 49 274 112
f 49 112 267
f 49 267 108
f 49 108 268
f 270 119 278
f 270 278 50
f 50 278 120
f 50 120 276
f 50 269 110
f 50 110 270
f 276 111 269
f 276 269 50
f 271 112 273
f 271 273 51
f 51 273 117
f 51 117 283
f 51 283 116
f 51 116 272
f 272 114 271
f 272 271 51
f 274 111 275
f 274 275 52
f 52 275 118
f 52 118 282
f 52 273 112
f 52 112 274
f 282 117 273
f 282 273 52
f 275 111 276
f 275 276 53
f 53 276 120
f 53 120 280
f 53 280 118
f 53 118 275
f 54 279 120
f 54 120 278
f 301 149 279
f 301 279 54
f 302 155 301
f 302 301 54
f 277 122 302
f 277 302 54
f 278 119 277
f 278 277 54
f 55 281 118
f 55 118 280
f 299 144 281
f 299 281 55
f 279 149 299
f 279 299 55
f 280 120 279
f 280 279 55
f 287 117 282
f 287 282 56
f 56 282 118
f 56 118 281
f 56 297 143
f 56 143 287
f 281 144 297
f 281 297 56
f 57 285 116
f 57 116 283
f 294 138 285
f 294 285 57
f 283 117 287
f 283 287 57
f 57 287 143
f 57 143 294
f 58 288 123
f 58 123 286
f 293 136 288
f 293 288 58
f 285 138 293
f 285 293 58
f 286 115 284
f 286 284 58
f 58 284 116
f 58 116 285
f 59 290 124
f 59 124 289
f 311 132 290
f 311 290 59
f 288 136 311
f 288 311 59
f 289 123 288
f 289 288 59
f 60 292 125
f 60 125 291
f 313 133 292
f 313 292 60
f 290 132 313
f 290 313 60
f 291 124 290
f 291 290 60
f 293 138 295
f 293 295 61
f 61 295 139
f 61 139 327
f 61 310 136
f 61 136 293
f 327 137 310
f 327 310 61
f 294 143 296
f 294 296 62
f 62 296 145
f 62 145 331
f 62 331 147
f 62 147 330
f 295 138 294
f 295 294 62
f 330 139 295
f 330 295 62
f 297 144 298
f 297 298 63
f 63 298 146
f 63 146 332
f 63 332 145
f 63 145 296
f 63 296 143
f 63 143 297
f 299 149 300
f 299 300 64
f 64 300 150
f 64 150 340
f 64 340 146
f 64 146 298
f 64 298 144
f 64 144 299
f 65 307 152
f 65 152 350
f 301 155 307
f 301 307 65
f 65 350 150
f 65 150 300
f 65 300 149
f 65 149 301
f 66 304 156
f 66 156 306
f 303 167 304
f 303 304 66
f 66 306 155
f 66 155 302
f 66 302 122
f 66 122 303
f 67 309 156
f 67 156 304
f 353 169 309
f 353 309 67
f 305 168 353
f 305 353 67
f 67 304 167
f 67 167 305
f 306 156 308
f 306 308 68
f 68 308 157
f 68 157 351
f 307 155 306
f 307 306 68
f 351 152 307
f 351 307 68
f 69 352 157
f 69 157 308
f 356 161 352
f 356 352 69
f 69 308 156
f 69 156 309
f 69 309 169
f 69 169 356
f 70 312 132
f 70 132 311
f 310 137 312
f 310 312 70
f 311 136 310
f 311 310 70
f 71 314 133
f 71 133 313
f 325 135 314
f 325 314 71
f 312 137 325
f 312 325 71
f 313 132 312
f 313 312 71
f 72 316 128
f 72 128 315
f 317 134 316
f 317 316 72
f 314 135 317
f 314 317 72
f 315 133 314
f 315 314 72
f 326 140 319
f 326 319 73
f 73 319 141
f 73 141 318
f 317 135 326
f 317 326 73
f 318 134 317
f 318 317 73
f 74 321 142
f 74 142 320
f 337 159 321
f 337 321 74
f 74 319 140
f 74 140 329
f 320 141 319
f 320 319 74
f 74 329 148
f 74 148 337
f 75 323 158
f 75 158 322
f 336 162 323
f 336 323 75
f 321 159 336
f 321 336 75
f 322 142 321
f 322 321 75
f 323 162 358
f 323 358 76
f 76 358 165
f 76 165 324
f 324 158 323
f 324 323 76
f 325 137 327
f 325 327 77
f 77 327 139
f 77 139 328
f 77 328 140
f 77 140 326
f 326 135 325
f 326 325 77
f 78 329 140
f 78 140 328
f 334 148 329
f 334 329 78
f 328 139 330
f 328 330 78
f 78 330 147
f 78 147 334
f 79 333 147
f 79 147 331
f 342 153 333
f 342 333 79
f 331 145 339
f 331 339 79
f 79 339 151
f 79 151 342
f 80 335 148
f 80 148 334
f 344 154 335
f 344 335 80
f 333 153 344
f 333 344 80
f 334 147 333
f 334 333 80
f 81 337 148
f 81 148 335
f 338 159 337
f 338 337 81
f 346 160 338
f 346 338 81
f 335 154 346
f 335 346 81
f 338 160 348
f 338 348 82
f 82 348 163
f 82 163 359
f 82 359 162
f 82 162 336
f 82 336 159
f 82 159 338
f 332 146 341
f 332 341 83
f 83 341 151
f 83 151 339
f 339 145 332
f 339 332 83
f 340 150 343
f 340 343 84
f 84 343 151
f 84 151 341
f 341 146 340
f 341 340 84
f 85 342 151
f 85 151 343
f 345 153 342
f 345 342 85
f 85 343 150
f 85 150 350
f 350 152 345
f 350 345 85
f 86 345 152
f 86 152 351
f 344 153 345
f 344 345 86
f 86 347 154
f 86 154 344
f 351 157 347
f 351 347 86
f 87 349 160
f 87 160 346
f 352 161 349
f 352 349 87
f 87 346 154
f 87 154 347
f 87 347 157
f 87 157 352
f 349 161 355
f 349 355 88
f 88 355 163
f 88 163 348
f 88 348 160
f 88 160 349
f 89 354 169
f 89 169 353
f 362 170 354
f 362 354 89
f 353 168 357
f 353 357 89
f 89 357 171
f 89 171 362
f 355 161 356
f 355 356 90
f 90 356 169
f 90 169 354
f 90 354 170
f 90 170 360
f 360 163 355
f 360 355 90
f 359 163 360
f 359 360 91
f 91 360 170
f 91 170 361
f 91 361 165
f 91 165 358
f 91 358 162
f 91 162 359
f 92 363 165
f 92 165 361
f 362 171 363
f 362 363 92
f 92 361 170
f 92 170 362
f 93 367 177
f 93 177 366
f 369 186 367
f 369 367 93
f 365 184 369
f 365 369 93
f 366 180 365
f 366 365 93
f 94 370 182
f 94 182 364
f 369 184 370
f 369 370 94
f 94 364 185
f 94 185 368
f 94 368 186
f 94 186 369
f 189 1 187
f 189 187 109
f 119 187 1
f 119 1 277
f 206 1 189
f 206 189 121
f 277 1 206
f 277 206 122
