# Capitate_R rest
v -0.724415 0.031682 -0.054478
v -0.731068 0.028930 -0.054193
v -0.737416 0.027245 -0.055147
v -0.743660 0.025487 -0.056138
v -0.748992 0.024093 -0.058569
v -0.747247 0.022933 -0.062915
v -0.742047 0.022992 -0.061461
v -0.736146 0.024531 -0.060156
v -0.729905 0.026716 -0.059277
v -0.724164 0.028447 -0.058250
v -0.723027 0.029302 -0.062239
v -0.728947 0.026955 -0.065173
v -0.735382 0.026653 -0.066067
v -0.741402 0.026546 -0.066890
v -0.747259 0.027276 -0.066905
v -0.745620 0.030803 -0.071119
v -0.740837 0.030293 -0.071476
v -0.735055 0.030149 -0.070372
v -0.728947 0.030402 -0.069061
v -0.723653 0.032141 -0.065809
v -0.732270 0.034098 -0.053737
v -0.726779 0.034867 -0.054583
v -0.738508 0.033024 -0.055320
v -0.744981 0.032001 -0.057602
v -0.749460 0.028304 -0.061024
v -0.748523 0.035240 -0.060879
v -0.749029 0.031771 -0.063237
v -0.744137 0.038941 -0.058345
v -0.738626 0.038443 -0.057901
v -0.732568 0.039996 -0.055574
v -0.726798 0.037656 -0.056819
v -0.747986 0.039450 -0.059830
v -0.744723 0.041879 -0.062828
v -0.749338 0.041967 -0.063814
v -0.744257 0.040165 -0.070988
v -0.749442 0.039686 -0.071618
v -0.742614 0.035139 -0.072031
v -0.747654 0.034347 -0.071788
v -0.738655 0.040095 -0.062241
v -0.738324 0.039863 -0.069970
v -0.737051 0.035139 -0.070946
v -0.732556 0.041242 -0.060697
v -0.731309 0.038955 -0.068412
v -0.730401 0.034827 -0.069499
v -0.727449 0.039007 -0.060472
v -0.726192 0.036679 -0.065014
v -0.725189 0.034461 -0.066842
v -0.748766 0.032242 -0.067320
v -0.750280 0.037172 -0.065860
v -0.728183 0.038537 -0.063395
v -0.732363 0.040257 -0.065191
v -0.738853 0.040493 -0.066577
v -0.744912 0.041870 -0.067365
v -0.748434 0.042109 -0.068231
v -0.722799 0.033857 -0.058603
v -0.723926 0.035553 -0.062361
v -0.738820 0.024675 -0.063898
v -0.732452 0.025372 -0.062919
v -0.733534 0.026017 -0.056911
v -0.739655 0.024013 -0.057858
v -0.745689 0.022348 -0.059500
v -0.741159 0.029422 -0.055605
v -0.734943 0.030787 -0.054306
v -0.741675 0.035724 -0.056610
v -0.738020 0.028016 -0.069017
v -0.735916 0.036713 -0.054719
v -0.731943 0.028152 -0.068128
v -0.738795 0.032720 -0.071367
v -0.732887 0.032625 -0.070175
v -0.749563 0.025064 -0.062688
v -0.747328 0.027256 -0.057302
v -0.744649 0.024307 -0.065009
v -0.743699 0.028366 -0.069596
v -0.744254 0.032790 -0.072067
v -0.748197 0.031829 -0.060290
v -0.746489 0.036510 -0.058709
v -0.748957 0.029559 -0.064803
v -0.747560 0.031106 -0.069494
v -0.734428 0.037384 -0.070312
v -0.735828 0.040752 -0.058893
v -0.735530 0.040598 -0.063793
v -0.735281 0.040113 -0.067761
v -0.740675 0.037816 -0.071782
v -0.741716 0.039762 -0.060625
v -0.742003 0.041427 -0.064928
v -0.741938 0.040862 -0.068754
v -0.746724 0.041339 -0.060845
v -0.747166 0.042513 -0.065653
v -0.747003 0.041391 -0.069891
v -0.746151 0.037430 -0.072615
v -0.750039 0.035462 -0.069474
v -0.750565 0.040551 -0.067521
v -0.749262 0.034111 -0.064356
v -0.749850 0.038605 -0.062158
v -0.725528 0.028996 -0.066320
v -0.729162 0.037172 -0.054264
v -0.728345 0.032291 -0.053646
v -0.726856 0.028062 -0.056115
v -0.726160 0.027447 -0.061300
v -0.729574 0.040273 -0.058100
v -0.729943 0.039956 -0.062409
v -0.727836 0.036246 -0.067569
v -0.729269 0.038587 -0.065562
v -0.724718 0.034628 -0.056115
v -0.722220 0.030323 -0.058143
v -0.726400 0.032828 -0.068398
v -0.722151 0.032614 -0.062403
v -0.723996 0.034680 -0.065022
v -0.726100 0.037421 -0.062679
v -0.724906 0.036635 -0.059412
v -0.727570 0.029987 -0.053994
v -0.734353 0.028072 -0.054701
v -0.740500 0.026355 -0.055539
v -0.746733 0.024392 -0.056962
v -0.748500 0.022653 -0.061215
v -0.745077 0.022563 -0.062316
v -0.739182 0.023740 -0.060732
v -0.733025 0.025533 -0.059689
v -0.726580 0.027519 -0.058685
v -0.723826 0.029210 -0.056579
v -0.730344 0.027061 -0.056514
v -0.736680 0.024972 -0.057339
v -0.742628 0.023161 -0.058615
v -0.723499 0.028640 -0.059921
v -0.725730 0.027812 -0.063939
v -0.729335 0.026494 -0.062248
v -0.732165 0.026735 -0.065811
v -0.735679 0.024867 -0.063422
v -0.738478 0.026579 -0.066492
v -0.741755 0.024381 -0.064519
v -0.744212 0.026597 -0.067184
v -0.747430 0.024499 -0.064840
v -0.746054 0.029297 -0.069482
v -0.740967 0.027989 -0.069456
v -0.743593 0.030457 -0.071543
v -0.737933 0.030202 -0.070974
v -0.735027 0.028045 -0.068538
v -0.732052 0.030147 -0.069796
v -0.728754 0.028351 -0.067584
v -0.725857 0.030929 -0.067768
v -0.723048 0.030621 -0.064440
v -0.725661 0.033480 -0.054584
v -0.731780 0.031448 -0.053776
v -0.728861 0.034672 -0.053704
v -0.735446 0.033551 -0.054456
v -0.737997 0.030121 -0.054954
v -0.741554 0.032498 -0.056226
v -0.744276 0.028508 -0.056386
v -0.747642 0.029812 -0.058654
v -0.749628 0.026044 -0.059506
v -0.747027 0.033856 -0.059116
v -0.749104 0.030189 -0.062228
v -0.748818 0.033306 -0.062166
v -0.744366 0.035830 -0.057566
v -0.748392 0.037464 -0.060097
v -0.741458 0.038277 -0.058554
v -0.738664 0.036048 -0.056165
v -0.736105 0.039530 -0.056465
v -0.732520 0.037110 -0.053831
v -0.729293 0.039211 -0.055905
v -0.726611 0.036285 -0.055544
v -0.746466 0.039327 -0.059051
v -0.744295 0.040831 -0.060533
v -0.748915 0.040741 -0.061190
v -0.747036 0.042390 -0.063276
v -0.749015 0.042261 -0.066308
v -0.744956 0.042168 -0.065220
v -0.746636 0.040011 -0.071697
v -0.743432 0.037690 -0.072246
v -0.741495 0.032723 -0.071870
v -0.745307 0.034948 -0.072289
v -0.746552 0.032345 -0.071427
v -0.748745 0.036329 -0.072290
v -0.741825 0.040972 -0.062626
v -0.738548 0.039630 -0.060060
v -0.738767 0.040497 -0.064496
v -0.741504 0.040044 -0.070509
v -0.737747 0.037681 -0.071133
v -0.739900 0.035230 -0.071571
v -0.735982 0.032725 -0.070689
v -0.732613 0.041237 -0.058158
v -0.735675 0.040883 -0.061371
v -0.732495 0.040717 -0.063095
v -0.734924 0.039638 -0.069406
v -0.730965 0.036911 -0.069219
v -0.729601 0.032642 -0.069688
v -0.733838 0.035018 -0.070212
v -0.727026 0.038638 -0.058594
v -0.729741 0.040375 -0.060272
v -0.727848 0.038830 -0.062145
v -0.727066 0.034699 -0.068308
v -0.728558 0.037589 -0.066635
v -0.725297 0.035503 -0.066036
v -0.724428 0.033461 -0.066484
v -0.749243 0.027479 -0.063920
v -0.748991 0.031843 -0.065051
v -0.748177 0.029863 -0.067235
v -0.748779 0.033237 -0.069579
v -0.749618 0.036341 -0.063171
v -0.750494 0.039639 -0.064792
v -0.749645 0.034678 -0.066772
v -0.727301 0.037673 -0.064054
v -0.729810 0.039336 -0.064209
v -0.731917 0.039847 -0.066946
v -0.735462 0.040350 -0.066020
v -0.738800 0.040377 -0.068359
v -0.742107 0.041229 -0.067023
v -0.744733 0.041290 -0.069239
v -0.747090 0.042164 -0.067862
v -0.749013 0.041414 -0.069726
v -0.750814 0.038066 -0.068629
v -0.722818 0.032896 -0.056539
v -0.724663 0.035725 -0.057677
v -0.724757 0.036047 -0.063721
v -0.721866 0.031282 -0.060306
v -0.725407 0.037229 -0.061157
v -0.723122 0.034706 -0.060601
v -0.723043 0.033825 -0.063969
f 142 97 111
f 142 111 1
f 1 111 98
f 1 98 120
f 212 104 142
f 212 142 1
f 120 105 212
f 120 212 1
f 2 112 59
f 2 59 121
f 143 63 112
f 143 112 2
f 111 97 143
f 111 143 2
f 121 98 111
f 121 111 2
f 3 113 60
f 3 60 122
f 146 62 113
f 146 113 3
f 112 63 146
f 112 146 3
f 122 59 112
f 122 112 3
f 4 114 61
f 4 61 123
f 148 71 114
f 148 114 4
f 4 123 60
f 4 60 113
f 113 62 148
f 113 148 4
f 5 115 61
f 5 61 114
f 150 70 115
f 150 115 5
f 5 114 71
f 5 71 150
f 6 116 61
f 6 61 115
f 132 72 116
f 132 116 6
f 115 70 132
f 115 132 6
f 130 57 117
f 130 117 7
f 7 117 60
f 7 60 123
f 116 72 130
f 116 130 7
f 123 61 116
f 123 116 7
f 128 58 118
f 128 118 8
f 8 118 59
f 8 59 122
f 8 122 60
f 8 60 117
f 117 57 128
f 117 128 8
f 9 119 98
f 9 98 121
f 126 99 119
f 126 119 9
f 9 121 59
f 9 59 118
f 9 118 58
f 9 58 126
f 10 120 98
f 10 98 119
f 124 105 120
f 124 120 10
f 119 99 124
f 119 124 10
f 11 125 95
f 11 95 141
f 124 99 125
f 124 125 11
f 11 141 107
f 11 107 215
f 215 105 124
f 215 124 11
f 12 126 58
f 12 58 127
f 125 99 126
f 125 126 12
f 12 127 67
f 12 67 139
f 12 139 95
f 12 95 125
f 128 57 129
f 128 129 13
f 13 129 65
f 13 65 137
f 13 137 67
f 13 67 127
f 13 127 58
f 13 58 128
f 130 72 131
f 130 131 14
f 14 131 73
f 14 73 134
f 14 134 65
f 14 65 129
f 14 129 57
f 14 57 130
f 15 133 73
f 15 73 131
f 197 78 133
f 197 133 15
f 132 70 195
f 132 195 15
f 15 195 77
f 15 77 197
f 15 131 72
f 15 72 132
f 16 135 73
f 16 73 133
f 172 74 135
f 172 135 16
f 133 78 172
f 133 172 16
f 17 136 65
f 17 65 134
f 170 68 136
f 170 136 17
f 135 74 170
f 135 170 17
f 17 134 73
f 17 73 135
f 18 138 67
f 18 67 137
f 180 69 138
f 180 138 18
f 137 65 136
f 137 136 18
f 18 136 68
f 18 68 180
f 19 140 95
f 19 95 139
f 186 106 140
f 186 140 19
f 138 69 186
f 138 186 19
f 139 67 138
f 139 138 19
f 141 95 140
f 141 140 20
f 20 140 106
f 20 106 194
f 218 107 141
f 218 141 20
f 20 194 108
f 20 108 218
f 21 144 96
f 21 96 159
f 143 97 144
f 143 144 21
f 21 145 63
f 21 63 143
f 159 66 145
f 159 145 21
f 22 161 96
f 22 96 144
f 142 104 161
f 142 161 22
f 144 97 142
f 144 142 22
f 23 147 62
f 23 62 146
f 157 64 147
f 157 147 23
f 145 66 157
f 145 157 23
f 146 63 145
f 146 145 23
f 24 149 71
f 24 71 148
f 151 75 149
f 151 149 24
f 154 76 151
f 154 151 24
f 147 64 154
f 147 154 24
f 148 62 147
f 148 147 24
f 195 70 150
f 195 150 25
f 25 150 71
f 25 71 149
f 149 75 152
f 149 152 25
f 25 152 77
f 25 77 195
f 26 153 75
f 26 75 151
f 199 93 153
f 199 153 26
f 151 76 155
f 151 155 26
f 26 155 94
f 26 94 199
f 27 196 77
f 27 77 152
f 153 93 196
f 153 196 27
f 27 152 75
f 27 75 153
f 154 64 156
f 154 156 28
f 28 156 84
f 28 84 163
f 28 162 76
f 28 76 154
f 163 87 162
f 163 162 28
f 157 66 158
f 157 158 29
f 29 158 80
f 29 80 175
f 29 175 84
f 29 84 156
f 29 156 64
f 29 64 157
f 159 96 160
f 159 160 30
f 30 160 100
f 30 100 181
f 30 181 80
f 30 80 158
f 30 158 66
f 30 66 159
f 31 188 100
f 31 100 160
f 213 110 188
f 213 188 31
f 161 104 213
f 161 213 31
f 31 160 96
f 31 96 161
f 162 87 164
f 162 164 32
f 32 164 94
f 32 94 155
f 32 155 76
f 32 76 162
f 33 165 87
f 33 87 163
f 167 88 165
f 167 165 33
f 174 85 167
f 174 167 33
f 163 84 174
f 163 174 33
f 165 88 166
f 165 166 34
f 34 166 92
f 34 92 200
f 34 200 94
f 34 94 164
f 34 164 87
f 34 87 165
f 36 210 89
f 36 89 168
f 211 92 210
f 211 210 36
f 36 168 90
f 36 90 173
f 36 173 91
f 36 91 211
f 170 74 171
f 170 171 37
f 37 171 90
f 37 90 169
f 37 179 68
f 37 68 170
f 169 83 179
f 169 179 37
f 38 173 90
f 38 90 171
f 198 91 173
f 198 173 38
f 38 171 74
f 38 74 172
f 38 172 78
f 38 78 198
f 182 81 176
f 182 176 39
f 39 176 85
f 39 85 174
f 175 80 182
f 175 182 39
f 39 174 84
f 39 84 175
f 184 79 178
f 184 178 40
f 40 178 83
f 40 83 177
f 206 82 184
f 206 184 40
f 177 86 206
f 177 206 40
f 41 180 68
f 41 68 179
f 187 69 180
f 187 180 41
f 41 178 79
f 41 79 187
f 179 83 178
f 179 178 41
f 42 183 81
f 42 81 182
f 189 101 183
f 189 183 42
f 181 100 189
f 181 189 42
f 182 80 181
f 182 181 42
f 43 185 79
f 43 79 184
f 192 102 185
f 192 185 43
f 184 82 204
f 184 204 43
f 43 204 103
f 43 103 192
f 186 69 187
f 186 187 44
f 44 187 79
f 44 79 185
f 185 102 191
f 185 191 44
f 44 191 106
f 44 106 186
f 45 190 101
f 45 101 189
f 216 109 190
f 216 190 45
f 188 110 216
f 188 216 45
f 189 100 188
f 189 188 45
f 47 194 106
f 47 106 191
f 193 108 194
f 193 194 47
f 47 191 102
f 47 102 193
f 48 197 77
f 48 77 196
f 198 78 197
f 198 197 48
f 201 91 198
f 201 198 48
f 48 196 93
f 48 93 201
f 211 91 201
f 211 201 49
f 49 201 93
f 49 93 199
f 200 92 211
f 200 211 49
f 49 199 94
f 49 94 200
f 50 203 101
f 50 101 190
f 202 103 203
f 202 203 50
f 50 190 109
f 50 109 202
f 51 205 81
f 51 81 183
f 204 82 205
f 204 205 51
f 51 183 101
f 51 101 203
f 51 203 103
f 51 103 204
f 52 207 85
f 52 85 176
f 206 86 207
f 206 207 52
f 52 176 81
f 52 81 205
f 52 205 82
f 52 82 206
f 53 209 88
f 53 88 167
f 208 89 209
f 208 209 53
f 53 167 85
f 53 85 207
f 53 207 86
f 53 86 208
f 54 166 88
f 54 88 209
f 210 92 166
f 210 166 54
f 54 209 89
f 54 89 210
f 212 105 215
f 212 215 55
f 55 215 107
f 55 107 217
f 55 217 110
f 55 110 213
f 213 104 212
f 213 212 55
f 217 107 218
f 217 218 56
f 56 218 108
f 56 108 214
f 56 214 109
f 56 109 216
f 56 216 110
f 56 110 217
f 83 169 35
f 83 35 177
f 86 177 35
f 86 35 208
f 208 35 168
f 208 168 89
f 168 35 169
f 168 169 90
f 102 192 46
f 102 46 193
f 202 46 192
f 202 192 103
f 193 46 214
f 193 214 108
f 214 46 202
f 214 202 109
