# Capitate_R posed
v -0.768038 0.198039 0.370695
v -0.773345 0.196789 0.374052
v -0.778781 0.196536 0.376334
v -0.784163 0.196208 0.378530
v -0.789464 0.196182 0.379220
v -0.790405 0.195331 0.375142
v -0.785915 0.194328 0.373780
v -0.780681 0.194495 0.371976
v -0.775259 0.195207 0.369687
v -0.770227 0.195602 0.367747
v -0.771048 0.196554 0.364207
v -0.777205 0.195859 0.364804
v -0.782397 0.196811 0.367176
v -0.787211 0.197853 0.369399
v -0.791366 0.199501 0.372146
v -0.791381 0.202704 0.368208
v -0.788140 0.201470 0.365688
v -0.783424 0.200224 0.363788
v -0.778291 0.199244 0.361885
v -0.772566 0.199483 0.361822
v -0.772985 0.201406 0.374955
v -0.769185 0.201202 0.371727
v -0.778504 0.201726 0.376711
v -0.784498 0.202203 0.378046
v -0.790084 0.200154 0.377591
v -0.787945 0.205953 0.377251
v -0.790087 0.203298 0.375725
v -0.782832 0.208116 0.377084
v -0.778685 0.206685 0.374821
v -0.772862 0.206729 0.373708
v -0.769661 0.203840 0.370052
v -0.786230 0.209379 0.377780
v -0.784723 0.211218 0.373992
v -0.788537 0.212201 0.375424
v -0.788454 0.210526 0.367656
v -0.792645 0.211084 0.369630
v -0.788727 0.206017 0.366103
v -0.792472 0.206185 0.368662
v -0.780359 0.208566 0.371573
v -0.783695 0.209126 0.365622
v -0.784152 0.204936 0.364295
v -0.774945 0.208335 0.369853
v -0.778013 0.206963 0.363482
v -0.778670 0.203360 0.362240
v -0.771538 0.205498 0.367615
v -0.773157 0.203754 0.363616
v -0.773700 0.201860 0.361772
v -0.791666 0.204088 0.372538
v -0.791123 0.208448 0.374341
v -0.773507 0.205530 0.365770
v -0.777055 0.207927 0.366394
v -0.782406 0.209402 0.368415
v -0.786939 0.211726 0.370680
v -0.789872 0.212638 0.371691
v -0.768298 0.200059 0.366829
v -0.770505 0.202109 0.364537
v -0.784326 0.195474 0.370430
v -0.779064 0.194868 0.368155
v -0.776982 0.194987 0.373178
v -0.782310 0.194420 0.375357
v -0.787819 0.194201 0.376969
v -0.781299 0.199111 0.377749
v -0.775871 0.199073 0.375794
v -0.780877 0.204736 0.377231
v -0.785409 0.198758 0.366208
v -0.775587 0.204394 0.375934
v -0.780514 0.197722 0.364001
v -0.786108 0.203197 0.364805
v -0.781246 0.201963 0.362909
v -0.791571 0.197551 0.376397
v -0.787030 0.198490 0.379380
v -0.789181 0.196287 0.372342
v -0.789766 0.200107 0.368449
v -0.790415 0.204280 0.366850
v -0.788119 0.202895 0.377544
v -0.785208 0.206466 0.377920
v -0.791192 0.201543 0.374519
v -0.792001 0.203130 0.370340
v -0.781486 0.206350 0.363530
v -0.776621 0.208292 0.372752
v -0.778672 0.208623 0.368934
v -0.780400 0.208580 0.365842
v -0.786655 0.207962 0.365373
v -0.781935 0.208640 0.374231
v -0.783778 0.210579 0.371136
v -0.785591 0.210486 0.368237
v -0.785391 0.210894 0.376422
v -0.787681 0.212490 0.373026
v -0.789724 0.211946 0.369772
v -0.791133 0.208671 0.367331
v -0.792943 0.207316 0.371521
v -0.791418 0.211589 0.373226
v -0.790302 0.205473 0.374993
v -0.788828 0.209219 0.376912
v -0.774810 0.197150 0.362327
v -0.770327 0.203568 0.373088
v -0.770423 0.199157 0.373173
v -0.771306 0.195512 0.370621
v -0.773289 0.195401 0.366398
v -0.771761 0.206711 0.370397
v -0.774066 0.206954 0.367338
v -0.775619 0.203935 0.362476
v -0.775285 0.205991 0.364657
v -0.768417 0.200798 0.369603
v -0.768372 0.196868 0.366905
v -0.775630 0.200827 0.361177
v -0.769814 0.199274 0.363666
v -0.771948 0.201650 0.362573
v -0.771873 0.204131 0.365324
v -0.769661 0.202903 0.367213
v -0.770474 0.197073 0.372549
v -0.776162 0.196672 0.375222
v -0.781399 0.196345 0.377492
v -0.787011 0.195882 0.379358
v -0.790604 0.195129 0.377009
v -0.788614 0.194573 0.374568
v -0.783332 0.194400 0.372977
v -0.777976 0.194770 0.370852
v -0.772387 0.195263 0.368560
v -0.769062 0.196027 0.368843
v -0.774250 0.195294 0.371969
v -0.779698 0.194677 0.374344
v -0.785005 0.194279 0.376188
v -0.770465 0.195827 0.366173
v -0.774107 0.195915 0.364212
v -0.776244 0.195225 0.367186
v -0.779902 0.196294 0.365845
v -0.781763 0.195044 0.369302
v -0.784879 0.197331 0.368320
v -0.786820 0.195796 0.371347
v -0.789395 0.198416 0.370502
v -0.791103 0.196919 0.373779
v -0.791254 0.201307 0.369642
v -0.787775 0.199292 0.367267
v -0.790158 0.202097 0.366935
v -0.785801 0.200835 0.364696
v -0.782987 0.198211 0.365152
v -0.780957 0.199638 0.362799
v -0.777885 0.197285 0.362902
v -0.775324 0.199027 0.361395
v -0.771804 0.197925 0.362564
v -0.768642 0.199814 0.371200
v -0.773174 0.199040 0.374698
v -0.770351 0.201305 0.373369
v -0.775756 0.201559 0.375914
v -0.778544 0.199097 0.376749
v -0.781258 0.201895 0.377465
v -0.784124 0.198944 0.378630
v -0.787368 0.200889 0.378511
v -0.789965 0.198076 0.378811
v -0.786319 0.204316 0.377871
v -0.789997 0.201842 0.376519
v -0.789136 0.204472 0.376427
v -0.783265 0.205393 0.377780
v -0.787046 0.207766 0.377773
v -0.781097 0.207100 0.375667
v -0.778399 0.204447 0.376146
v -0.775960 0.207035 0.374707
v -0.772608 0.204054 0.374998
v -0.770764 0.205518 0.371914
v -0.769216 0.202495 0.370923
v -0.784785 0.208926 0.377649
v -0.783571 0.210000 0.375514
v -0.787273 0.210796 0.377195
v -0.786521 0.212109 0.374745
v -0.789385 0.212665 0.373404
v -0.785930 0.211763 0.372309
v -0.790556 0.210884 0.368246
v -0.788916 0.208382 0.366325
v -0.788316 0.203722 0.365699
v -0.790859 0.206348 0.367178
v -0.791897 0.204228 0.368414
v -0.793109 0.208138 0.368799
v -0.782688 0.209912 0.372779
v -0.779377 0.207918 0.373161
v -0.781391 0.209170 0.369935
v -0.786238 0.209892 0.366717
v -0.784239 0.207268 0.364480
v -0.786509 0.205575 0.365169
v -0.783733 0.202642 0.363987
v -0.773826 0.208074 0.371785
v -0.777614 0.208637 0.370818
v -0.776101 0.208125 0.368027
v -0.780985 0.208284 0.364441
v -0.778538 0.205227 0.362716
v -0.778608 0.201357 0.361722
v -0.781481 0.204197 0.363330
v -0.770442 0.204911 0.368824
v -0.772857 0.207054 0.368845
v -0.772632 0.205593 0.366548
v -0.775702 0.202546 0.361559
v -0.775453 0.205120 0.363518
v -0.773201 0.202693 0.362427
v -0.773178 0.200827 0.361682
v -0.791415 0.199708 0.375319
v -0.790874 0.203544 0.374347
v -0.791671 0.201926 0.372327
v -0.792509 0.205188 0.370849
v -0.789575 0.207334 0.376046
v -0.790297 0.210499 0.375238
v -0.791573 0.206283 0.373361
v -0.773333 0.204702 0.364859
v -0.774915 0.206587 0.365926
v -0.777612 0.207682 0.364868
v -0.779690 0.208633 0.367233
v -0.783205 0.209481 0.367053
v -0.784850 0.210649 0.369614
v -0.787780 0.211394 0.369191
v -0.788707 0.212412 0.371334
v -0.791120 0.212299 0.370844
v -0.792604 0.209607 0.372516
v -0.767560 0.199019 0.368390
v -0.768872 0.201896 0.368403
v -0.771638 0.202824 0.363909
v -0.768913 0.197860 0.365108
v -0.770707 0.203684 0.366139
v -0.769283 0.201056 0.365478
v -0.770939 0.200637 0.362913
f 142 97 111
f 142 111 1
f 1 111 98
f 1 98 120
f 212 104 142
f 212 142 1
f 120 105 212
f 120 212 1
f 2 112 59
f 2 59 121
f 143 63 112
f 143 112 2
f 111 97 143
f 111 143 2
f 121 98 111
f 121 111 2
f 3 113 60
f 3 60 122
f 146 62 113
f 146 113 3
f 112 63 146
f 112 146 3
f 122 59 112
f 122 112 3
f 4 114 61
f 4 61 123
f 148 71 114
f 148 114 4
f 4 123 60
f 4 60 113
f 113 62 148
f 113 148 4
f 5 115 61
f 5 61 114
f 150 70 115
f 150 115 5
f 5 114 71
f 5 71 150
f 6 116 61
f 6 61 115
f 132 72 116
f 132 116 6
f 115 70 132
f 115 132 6
f 130 57 117
f 130 117 7
f 7 117 60
f 7 60 123
f 116 72 130
f 116 130 7
f 123 61 116
f 123 116 7
f 128 58 118
f 128 118 8
f 8 118 59
f 8 59 122
f 8 122 60
f 8 60 117
f 117 57 128
f 117 128 8
f 9 119 98
f 9 98 121
f 126 99 119
f 126 119 9
f 9 121 59
f 9 59 118
f 9 118 58
f 9 58 126
f 10 120 98
f 10 98 119
f 124 105 120
f 124 120 10
f 119 99 124
f 119 124 10
f 11 125 95
f 11 95 141
f 124 99 125
f 124 125 11
f 11 141 107
f 11 107 215
f 215 105 124
f 215 124 11
f 12 126 58
f 12 58 127
f 125 99 126
f 125 126 12
f 12 127 67
f 12 67 139
f 12 139 95
f 12 95 125
f 128 57 129
f 128 129 13
f 13 129 65
f 13 65 137
f 13 137 67
f 13 67 127
f 13 127 58
f 13 58 128
f 130 72 131
f 130 131 14
f 14 131 73
f 14 73 134
f 14 134 65
f 14 65 129
f 14 129 57
f 14 57 130
f 15 133 73
f 15 73 131
f 197 78 133
f 197 133 15
f 132 70 195
f 132 195 15
f 15 195 77
f 15 77 197
f 15 131 72
f 15 72 132
f 16 135 73
f 16 73 133
f 172 74 135
f 172 135 16
f 133 78 172
f 133 172 16
f 17 136 65
f 17 65 134
f 170 68 136
f 170 136 17
f 135 74 170
f 135 170 17
f 17 134 73
f 17 73 135
f 18 138 67
f 18 67 137
f 180 69 138
f 180 138 18
f 137 65 136
f 137 136 18
f 18 136 68
f 18 68 180
f 19 140 95
f 19 95 139
f 186 106 140
f 186 140 19
f 138 69 186
f 138 186 19
f 139 67 138
f 139 138 19
f 141 95 140
f 141 140 20
f 20 140 106
f 20 106 194
f 218 107 141
f 218 141 20
f 20 194 108
f 20 108 218
f 21 144 96
f 21 96 159
f 143 97 144
f 143 144 21
f 21 145 63
f 21 63 143
f 159 66 145
f 159 145 21
f 22 161 96
f 22 96 144
f 142 104 161
f 142 161 22
f 144 97 142
f 144 142 22
f 23 147 62
f 23 62 146
f 157 64 147
f 157 147 23
f 145 66 157
f 145 157 23
f 146 63 145
f 146 145 23
f 24 149 71
f 24 71 148
f 151 75 149
f 151 149 24
f 154 76 151
f 154 151 24
f 147 64 154
f 147 154 24
f 148 62 147
f 148 147 24
f 195 70 150
f 195 150 25
f 25 150 71
f 25 71 149
f 149 75 152
f 149 152 25
f 25 152 77
f 25 77 195
f 26 153 75
f 26 75 151
f 199 93 153
f 199 153 26
f 151 76 155
f 151 155 26
f 26 155 94
f 26 94 199
f 27 196 77
f 27 77 152
f 153 93 196
f 153 196 27
f 27 152 75
f 27 75 153
f 154 64 156
f 154 156 28
f 28 156 84
f 28 84 163
f 28 162 76
f 28 76 154
f 163 87 162
f 163 162 28
f 157 66 158
f 157 158 29
f 29 158 80
f 29 80 175
f 29 175 84
f 29 84 156
f 29 156 64
f 29 64 157
f 159 96 160
f 159 160 30
f 30 160 100
f 30 100 181
f 30 181 80
f 30 80 158
f 30 158 66
f 30 66 159
f 31 188 100
f 31 100 160
f 213 110 188
f 213 188 31
f 161 104 213
f 161 213 31
f 31 160 96
f 31 96 161
f 162 87 164
f 162 164 32
f 32 164 94
f 32 94 155
f 32 155 76
f 32 76 162
f 33 165 87
f 33 87 163
f 167 88 165
f 167 165 33
f 174 85 167
f 174 167 33
f 163 84 174
f 163 174 33
f 165 88 166
f 165 166 34
f 34 166 92
f 34 92 200
f 34 200 94
f 34 94 164
f 34 164 87
f 34 87 165
f 36 210 89
f 36 89 168
f 211 92 210
f 211 210 36
f 36 168 90
f 36 90 173
f 36 173 91
f 36 91 211
f 170 74 171
f 170 171 37
f 37 171 90
f 37 90 169
f 37 179 68
f 37 68 170
f 169 83 179
f 169 179 37
f 38 173 90
f 38 90 171
f 198 91 173
f 198 173 38
f 38 171 74
f 38 74 172
f 38 172 78
f 38 78 198
f 182 81 176
f 182 176 39
f 39 176 85
f 39 85 174
f 175 80 182
f 175 182 39
f 39 174 84
f 39 84 175
f 184 79 178
f 184 178 40
f 40 178 83
f 40 83 177
f 206 82 184
f 206 184 40
f 177 86 206
f 177 206 40
f 41 180 68
f 41 68 179
f 187 69 180
f 187 180 41
f 41 178 79
f 41 79 187
f 179 83 178
f 179 178 41
f 42 183 81
f 42 81 182
f 189 101 183
f 189 183 42
f 181 100 189
f 181 189 42
f 182 80 181
f 182 181 42
f 43 185 79
f 43 79 184
f 192 102 185
f 192 185 43
f 184 82 204
f 184 204 43
f 43 204 103
f 43 103 192
f 186 69 187
f 186 187 44
f 44 187 79
f 44 79 185
f 185 102 191
f 185 191 44
f 44 191 106
f 44 106 186
f 45 190 101
f 45 101 189
f 216 109 190
f 216 190 45
f 188 110 216
f 188 216 45
f 189 100 188
f 189 188 45
f 47 194 106
f 47 106 191
f 193 108 194
f 193 194 47
f 47 191 102
f 47 102 193
f 48 197 77
f 48 77 196
f 198 78 197
f 198 197 48
f 201 91 198
f 201 198 48
f 48 196 93
f 48 93 201
f 211 91 201
f 211 201 49
f 49 201 93
f 49 93 199
f 200 92 211
f 200 211 49
f 49 199 94
f 49 94 200
f 50 203 101
f 50 101 190
f 202 103 203
f 202 203 50
f 50 190 109
f 50 109 202
f 51 205 81
f 51 81 183
f 204 82 205
f 204 205 51
f 51 183 101
f 51 101 203
f 51 203 103
f 51 103 204
f 52 207 85
f 52 85 176
f 206 86 207
f 206 207 52
f 52 176 81
f 52 81 205
f 52 205 82
f 52 82 206
f 53 209 88
f 53 88 167
f 208 89 209
f 208 209 53
f 53 167 85
f 53 85 207
f 53 207 86
f 53 86 208
f 54 166 88
f 54 88 209
f 210 92 166
f 210 166 54
f 54 209 89
f 54 89 210
f 212 105 215
f 212 215 55
f 55 215 107
f 55 107 217
f 55 217 110
f 55 110 213
f 213 104 212
f 213 212 55
f 217 107 218
f 217 218 56
f 56 218 108
f 56 108 214
f 56 214 109
f 56 109 216
f 56 216 110
f 56 110 217
f 83 169 35
f 83 35 177
f 86 177 35
f 86 35 208
f 208 35 168
f 208 168 89
f 168 35 169
f 168 169 90
f 102 192 46
f 102 46 193
f 202 46 192
f 202 192 103
f 193 46 214
f 193 214 108
f 214 46 202
f 214 202 109
