# Capitate_L rest
v 0.716828 0.035966 -0.056628
v 0.723127 0.035121 -0.055854
v 0.729021 0.035218 -0.056135
v 0.734833 0.035232 -0.056468
v 0.739907 0.035464 -0.058133
v 0.739057 0.034434 -0.062190
v 0.734486 0.033173 -0.061449
v 0.728985 0.033025 -0.060821
v 0.723074 0.033387 -0.060567
v 0.717683 0.033467 -0.060155
v 0.716845 0.034260 -0.063731
v 0.722691 0.033854 -0.065828
v 0.728330 0.035149 -0.065960
v 0.733560 0.036507 -0.066066
v 0.738382 0.038472 -0.065434
v 0.736511 0.041456 -0.069089
v 0.732584 0.039955 -0.069924
v 0.727594 0.038413 -0.069563
v 0.722211 0.037119 -0.069033
v 0.717011 0.037117 -0.066626
v 0.722909 0.039760 -0.055026
v 0.718111 0.039225 -0.056290
v 0.728618 0.040404 -0.055835
v 0.734563 0.041202 -0.057233
v 0.739526 0.039365 -0.059991
v 0.737100 0.045043 -0.059553
v 0.738536 0.042401 -0.061772
v 0.732289 0.046979 -0.057564
v 0.727668 0.045257 -0.057770
v 0.721940 0.044999 -0.056261
v 0.717661 0.041787 -0.058087
v 0.735573 0.048419 -0.058441
v 0.732478 0.049986 -0.061262
v 0.736470 0.051203 -0.061648
v 0.733161 0.049109 -0.068564
v 0.737751 0.049946 -0.068611
v 0.733014 0.044538 -0.069943
v 0.737477 0.044999 -0.069258
v 0.727667 0.047028 -0.061478
v 0.728084 0.047404 -0.068300
v 0.728181 0.043172 -0.069565
v 0.722064 0.046479 -0.060685
v 0.722177 0.044894 -0.067711
v 0.722455 0.041261 -0.069003
v 0.718206 0.043387 -0.061145
v 0.718054 0.041499 -0.065395
v 0.717867 0.039532 -0.067234
v 0.738543 0.043082 -0.065350
v 0.738562 0.047507 -0.063625
v 0.719186 0.043401 -0.063659
v 0.722505 0.045974 -0.064702
v 0.728105 0.047777 -0.065234
v 0.733021 0.050406 -0.065221
v 0.736042 0.051492 -0.065603
v 0.715280 0.037784 -0.060287
v 0.716160 0.039797 -0.063370
v 0.731547 0.034070 -0.063818
v 0.725865 0.033123 -0.063580
v 0.726139 0.033427 -0.058156
v 0.731909 0.033200 -0.058473
v 0.737579 0.033297 -0.059391
v 0.731740 0.037967 -0.056025
v 0.726012 0.037599 -0.055444
v 0.730795 0.043534 -0.056483
v 0.730510 0.037163 -0.068193
v 0.725493 0.042902 -0.055359
v 0.725215 0.035807 -0.068038
v 0.730268 0.041546 -0.069896
v 0.725148 0.040010 -0.069469
v 0.740511 0.036765 -0.061629
v 0.737643 0.037674 -0.057009
v 0.736693 0.035186 -0.064214
v 0.735317 0.038811 -0.068095
v 0.734962 0.042915 -0.069944
v 0.737568 0.042015 -0.059270
v 0.734889 0.045477 -0.057785
v 0.739121 0.040630 -0.063282
v 0.737960 0.042022 -0.067447
v 0.725365 0.044431 -0.069148
v 0.724822 0.046663 -0.058794
v 0.725011 0.046872 -0.063131
v 0.725243 0.046735 -0.066663
v 0.730716 0.046352 -0.069767
v 0.730225 0.047311 -0.059764
v 0.730439 0.049155 -0.063410
v 0.730833 0.048982 -0.066803
v 0.734143 0.049821 -0.059350
v 0.734651 0.051326 -0.063450
v 0.735128 0.050692 -0.067248
v 0.735549 0.047352 -0.069956
v 0.739061 0.046301 -0.066918
v 0.738159 0.050593 -0.064854
v 0.738283 0.044541 -0.062591
v 0.737551 0.048320 -0.060341
v 0.719392 0.034909 -0.067068
v 0.719582 0.041707 -0.055629
v 0.719972 0.037315 -0.055458
v 0.719894 0.033577 -0.058028
v 0.719875 0.033320 -0.062687
v 0.719528 0.044756 -0.058771
v 0.720277 0.044930 -0.062531
v 0.719772 0.041720 -0.067491
v 0.720283 0.043875 -0.065444
v 0.716533 0.038675 -0.057861
v 0.715573 0.034608 -0.060153
v 0.719413 0.038549 -0.068571
v 0.715336 0.036893 -0.063769
v 0.716645 0.039293 -0.065749
v 0.717607 0.041913 -0.063312
v 0.716499 0.040698 -0.060618
v 0.719877 0.035204 -0.055978
v 0.726175 0.035184 -0.056011
v 0.731888 0.035199 -0.056215
v 0.737775 0.035070 -0.056940
v 0.740049 0.034341 -0.060585
v 0.737242 0.033572 -0.061910
v 0.731810 0.033095 -0.061059
v 0.726048 0.033127 -0.060675
v 0.719999 0.033262 -0.060344
v 0.717077 0.033902 -0.058678
v 0.723139 0.033554 -0.058076
v 0.729105 0.033293 -0.058268
v 0.734704 0.033217 -0.058883
v 0.717208 0.033616 -0.061684
v 0.719642 0.033750 -0.065027
v 0.722886 0.033311 -0.063247
v 0.725542 0.034457 -0.066067
v 0.728779 0.033473 -0.063716
v 0.731026 0.035831 -0.066016
v 0.734169 0.034544 -0.064078
v 0.735967 0.037219 -0.066031
v 0.739004 0.035973 -0.063768
v 0.737097 0.040135 -0.067698
v 0.733064 0.037852 -0.068276
v 0.734899 0.040732 -0.069690
v 0.730089 0.039170 -0.069789
v 0.727908 0.036460 -0.068083
v 0.724982 0.037673 -0.069372
v 0.722401 0.035202 -0.067880
v 0.719340 0.036753 -0.068188
v 0.716737 0.035571 -0.065581
v 0.717481 0.037789 -0.056488
v 0.723113 0.037395 -0.055267
v 0.719862 0.039465 -0.055316
v 0.725809 0.040080 -0.055362
v 0.728830 0.037785 -0.055737
v 0.731412 0.040728 -0.056349
v 0.734674 0.037966 -0.056444
v 0.737428 0.040034 -0.058013
v 0.740069 0.037352 -0.058776
v 0.736000 0.043375 -0.058243
v 0.738884 0.040988 -0.060972
v 0.737909 0.043571 -0.060765
v 0.733144 0.044319 -0.057040
v 0.736404 0.046842 -0.058750
v 0.730179 0.045818 -0.058061
v 0.728115 0.043084 -0.056383
v 0.725142 0.045487 -0.056707
v 0.722427 0.042389 -0.054906
v 0.719353 0.043607 -0.056935
v 0.717716 0.040473 -0.057068
v 0.734242 0.047899 -0.057922
v 0.732166 0.048805 -0.059356
v 0.736176 0.049844 -0.059462
v 0.734367 0.050990 -0.061387
v 0.736338 0.051592 -0.063849
v 0.732809 0.050488 -0.063318
v 0.735287 0.049585 -0.068950
v 0.733137 0.046917 -0.069898
v 0.732610 0.042209 -0.070059
v 0.735377 0.045015 -0.069904
v 0.736971 0.043009 -0.069173
v 0.737991 0.046982 -0.069469
v 0.730202 0.048533 -0.061437
v 0.727503 0.046427 -0.059603
v 0.727857 0.047586 -0.063419
v 0.730800 0.048334 -0.068435
v 0.728198 0.045512 -0.069508
v 0.730641 0.043955 -0.069814
v 0.727811 0.040849 -0.069591
v 0.721902 0.046278 -0.058452
v 0.724865 0.046944 -0.060976
v 0.722335 0.046220 -0.062824
v 0.725187 0.046388 -0.068169
v 0.722427 0.043143 -0.068574
v 0.722299 0.039231 -0.069381
v 0.725405 0.042272 -0.069259
v 0.717773 0.042821 -0.059564
v 0.719828 0.045060 -0.060653
v 0.718728 0.043469 -0.062582
v 0.719537 0.040288 -0.068311
v 0.719998 0.042952 -0.066517
v 0.717648 0.040377 -0.066454
v 0.717420 0.038475 -0.067058
v 0.739776 0.038852 -0.062601
v 0.738639 0.042604 -0.063362
v 0.738588 0.040914 -0.065476
v 0.738510 0.044124 -0.067271
v 0.737967 0.046423 -0.061385
v 0.738079 0.049567 -0.062523
v 0.738679 0.045313 -0.064636
v 0.718689 0.042519 -0.064380
v 0.720458 0.044523 -0.064158
v 0.722367 0.045671 -0.066311
v 0.725197 0.046833 -0.065104
v 0.728236 0.047816 -0.066810
v 0.730747 0.049187 -0.065247
v 0.733160 0.050030 -0.066915
v 0.734853 0.051199 -0.065415
v 0.736824 0.051160 -0.066895
v 0.739043 0.048626 -0.065945
v 0.715348 0.036800 -0.058530
v 0.716361 0.039725 -0.059173
v 0.716868 0.040523 -0.064447
v 0.715228 0.035522 -0.062037
v 0.716934 0.041463 -0.062061
v 0.715526 0.038746 -0.061962
v 0.715943 0.038259 -0.064976
f 1 111 97
f 1 97 142
f 120 98 111
f 120 111 1
f 1 142 104
f 1 104 212
f 1 212 105
f 1 105 120
f 121 59 112
f 121 112 2
f 2 112 63
f 2 63 143
f 2 143 97
f 2 97 111
f 2 111 98
f 2 98 121
f 122 60 113
f 122 113 3
f 3 113 62
f 3 62 146
f 3 146 63
f 3 63 112
f 3 112 59
f 3 59 122
f 123 61 114
f 123 114 4
f 4 114 71
f 4 71 148
f 113 60 123
f 113 123 4
f 4 148 62
f 4 62 113
f 114 61 115
f 114 115 5
f 5 115 70
f 5 70 150
f 150 71 114
f 150 114 5
f 115 61 116
f 115 116 6
f 6 116 72
f 6 72 132
f 6 132 70
f 6 70 115
f 7 117 57
f 7 57 130
f 123 60 117
f 123 117 7
f 7 130 72
f 7 72 116
f 7 116 61
f 7 61 123
f 8 118 58
f 8 58 128
f 122 59 118
f 122 118 8
f 117 60 122
f 117 122 8
f 8 128 57
f 8 57 117
f 121 98 119
f 121 119 9
f 9 119 99
f 9 99 126
f 118 59 121
f 118 121 9
f 126 58 118
f 126 118 9
f 119 98 120
f 119 120 10
f 10 120 105
f 10 105 124
f 10 124 99
f 10 99 119
f 141 95 125
f 141 125 11
f 11 125 99
f 11 99 124
f 215 107 141
f 215 141 11
f 11 124 105
f 11 105 215
f 127 58 126
f 127 126 12
f 12 126 99
f 12 99 125
f 139 67 127
f 139 127 12
f 125 95 139
f 125 139 12
f 13 129 57
f 13 57 128
f 137 65 129
f 137 129 13
f 127 67 137
f 127 137 13
f 128 58 127
f 128 127 13
f 14 131 72
f 14 72 130
f 134 73 131
f 134 131 14
f 129 65 134
f 129 134 14
f 130 57 129
f 130 129 14
f 131 73 133
f 131 133 15
f 15 133 78
f 15 78 197
f 15 195 70
f 15 70 132
f 197 77 195
f 197 195 15
f 132 72 131
f 132 131 15
f 133 73 135
f 133 135 16
f 16 135 74
f 16 74 172
f 16 172 78
f 16 78 133
f 134 65 136
f 134 136 17
f 17 136 68
f 17 68 170
f 17 170 74
f 17 74 135
f 135 73 134
f 135 134 17
f 137 67 138
f 137 138 18
f 18 138 69
f 18 69 180
f 18 136 65
f 18 65 137
f 180 68 136
f 180 136 18
f 139 95 140
f 139 140 19
f 19 140 106
f 19 106 186
f 19 186 69
f 19 69 138
f 19 138 67
f 19 67 139
f 20 140 95
f 20 95 141
f 194 106 140
f 194 140 20
f 20 141 107
f 20 107 218
f 218 108 194
f 218 194 20
f 159 96 144
f 159 144 21
f 21 144 97
f 21 97 143
f 143 63 145
f 143 145 21
f 21 145 66
f 21 66 159
f 144 96 161
f 144 161 22
f 22 161 104
f 22 104 142
f 22 142 97
f 22 97 144
f 146 62 147
f 146 147 23
f 23 147 64
f 23 64 157
f 23 157 66
f 23 66 145
f 23 145 63
f 23 63 146
f 148 71 149
f 148 149 24
f 24 149 75
f 24 75 151
f 24 151 76
f 24 76 154
f 24 154 64
f 24 64 147
f 24 147 62
f 24 62 148
f 25 150 70
f 25 70 195
f 149 71 150
f 149 150 25
f 25 152 75
f 25 75 149
f 195 77 152
f 195 152 25
f 151 75 153
f 151 153 26
f 26 153 93
f 26 93 199
f 26 155 76
f 26 76 151
f 199 94 155
f 199 155 26
f 152 77 196
f 152 196 27
f 27 196 93
f 27 93 153
f 153 75 152
f 153 152 27
f 28 156 64
f 28 64 154
f 163 84 156
f 163 156 28
f 154 76 162
f 154 162 28
f 28 162 87
f 28 87 163
f 29 158 66
f 29 66 157
f 175 80 158
f 175 158 29
f 156 84 175
f 156 175 29
f 157 64 156
f 157 156 29
f 30 160 96
f 30 96 159
f 181 100 160
f 181 160 30
f 158 80 181
f 158 181 30
f 159 66 158
f 159 158 30
f 160 100 188
f 160 188 31
f 31 188 110
f 31 110 213
f 31 213 104
f 31 104 161
f 161 96 160
f 161 160 31
f 32 164 87
f 32 87 162
f 155 94 164
f 155 164 32
f 162 76 155
f 162 155 32
f 163 87 165
f 163 165 33
f 33 165 88
f 33 88 167
f 33 167 85
f 33 85 174
f 33 174 84
f 33 84 163
f 34 166 88
f 34 88 165
f 200 92 166
f 200 166 34
f 164 94 200
f 164 200 34
f 165 87 164
f 165 164 34
f 168 89 210
f 168 210 36
f 36 210 92
f 36 92 211
f 173 90 168
f 173 168 36
f 211 91 173
f 211 173 36
f 37 171 74
f 37 74 170
f 169 90 171
f 169 171 37
f 170 68 179
f 170 179 37
f 37 179 83
f 37 83 169
f 171 90 173
f 171 173 38
f 38 173 91
f 38 91 198
f 172 74 171
f 172 171 38
f 198 78 172
f 198 172 38
f 39 176 81
f 39 81 182
f 174 85 176
f 174 176 39
f 39 182 80
f 39 80 175
f 175 84 174
f 175 174 39
f 40 178 79
f 40 79 184
f 177 83 178
f 177 178 40
f 40 184 82
f 40 82 206
f 40 206 86
f 40 86 177
f 179 68 180
f 179 180 41
f 41 180 69
f 41 69 187
f 187 79 178
f 187 178 41
f 41 178 83
f 41 83 179
f 182 81 183
f 182 183 42
f 42 183 101
f 42 101 189
f 42 189 100
f 42 100 181
f 42 181 80
f 42 80 182
f 184 79 185
f 184 185 43
f 43 185 102
f 43 102 192
f 43 204 82
f 43 82 184
f 192 103 204
f 192 204 43
f 44 187 69
f 44 69 186
f 185 79 187
f 185 187 44
f 44 191 102
f 44 102 185
f 186 106 191
f 186 191 44
f 189 101 190
f 189 190 45
f 45 190 109
f 45 109 216
f 45 216 110
f 45 110 188
f 45 188 100
f 45 100 189
f 191 106 194
f 191 194 47
f 47 194 108
f 47 108 193
f 193 102 191
f 193 191 47
f 196 77 197
f 196 197 48
f 48 197 78
f 48 78 198
f 48 198 91
f 48 91 201
f 201 93 196
f 201 196 48
f 49 201 91
f 49 91 211
f 199 93 201
f 199 201 49
f 49 211 92
f 49 92 200
f 200 94 199
f 200 199 49
f 190 101 203
f 190 203 50
f 50 203 103
f 50 103 202
f 202 109 190
f 202 190 50
f 183 81 205
f 183 205 51
f 51 205 82
f 51 82 204
f 203 101 183
f 203 183 51
f 204 103 203
f 204 203 51
f 176 85 207
f 176 207 52
f 52 207 86
f 52 86 206
f 205 81 176
f 205 176 52
f 206 82 205
f 206 205 52
f 167 88 209
f 167 209 53
f 53 209 89
f 53 89 208
f 207 85 167
f 207 167 53
f 208 86 207
f 208 207 53
f 209 88 166
f 209 166 54
f 54 166 92
f 54 92 210
f 210 89 209
f 210 209 54
f 55 215 105
f 55 105 212
f 217 107 215
f 217 215 55
f 213 110 217
f 213 217 55
f 55 212 104
f 55 104 213
f 56 218 107
f 56 107 217
f 214 108 218
f 214 218 56
f 216 109 214
f 216 214 56
f 217 110 216
f 217 216 56
f 177 35 169
f 177 169 83
f 208 35 177
f 208 177 86
f 89 168 35
f 89 35 208
f 90 169 35
f 90 35 168
f 193 46 192
f 193 192 102
f 103 192 46
f 103 46 202
f 108 214 46
f 108 46 193
f 109 202 46
f 109 46 214
