# Clavicle_L rest
v 0.103467 0.103827 -0.010594
v 0.108982 0.109773 -0.014445
v 0.104778 0.111785 -0.016314
v 0.099433 0.105683 -0.012247
v 0.098527 0.097999 -0.006619
v 0.094845 0.099706 -0.008314
v 0.094043 0.091833 -0.002318
v 0.090535 0.093505 -0.004333
v 0.080303 0.073583 0.009420
v 0.085015 0.079290 0.006245
v 0.081762 0.081464 0.003841
v 0.077457 0.075935 0.007253
v 0.075317 0.068588 0.012315
v 0.072778 0.071026 0.010211
v 0.086001 0.087232 -0.000015
v 0.089566 0.085597 0.002173
v 0.042184 0.044083 0.016917
v 0.042622 0.048487 0.014472
v 0.038603 0.048064 0.014721
v 0.038715 0.043206 0.016643
v 0.039416 0.052244 -0.006589
v 0.041583 0.052640 -0.005392
v 0.041864 0.048730 -0.006551
v 0.039658 0.047301 -0.008390
v 0.038435 0.055213 -0.001723
v 0.040920 0.055799 -0.001192
v 0.038090 0.055622 0.003588
v 0.040678 0.056494 0.004220
v 0.038050 0.054582 0.007111
v 0.040561 0.054886 0.008369
v 0.037612 0.051672 0.011003
v 0.039908 0.052025 0.011691
v 0.036791 0.047464 0.014097
v 0.037347 0.042419 0.015654
v 0.041003 0.043190 -0.007229
v 0.042749 0.045799 -0.005830
v 0.046781 0.041828 0.002330
v 0.045796 0.040006 0.002758
v 0.043339 0.039823 -0.000559
v 0.044614 0.041705 -0.001208
v 0.042826 0.041407 -0.004421
v 0.044365 0.044296 -0.003723
v 0.046128 0.044052 -0.000779
v 0.048092 0.043988 0.002407
v 0.044627 0.038854 0.004067
v 0.042670 0.038843 0.002798
v 0.049753 0.041949 0.005174
v 0.050796 0.044768 0.003966
v 0.044392 0.052164 0.012066
v 0.044146 0.055179 0.009455
v 0.060269 0.057805 0.016332
v 0.059656 0.059312 0.014760
v 0.057702 0.057654 0.014583
v 0.058206 0.056044 0.016497
v 0.044253 0.056810 0.005451
v 0.051061 0.058041 0.010339
v 0.051176 0.055764 0.012130
v 0.056966 0.058727 0.013272
v 0.057871 0.060765 0.012433
v 0.051815 0.051624 0.016083
v 0.051484 0.053775 0.013402
v 0.046677 0.051092 0.012855
v 0.045712 0.048478 0.014952
v 0.052709 0.049317 0.018156
v 0.059631 0.054143 0.018085
v 0.046060 0.045463 0.017473
v 0.053626 0.043700 0.006340
v 0.054095 0.046590 0.004397
v 0.059870 0.048137 0.006441
v 0.059863 0.050676 0.004359
v 0.044762 0.037414 0.007957
v 0.043728 0.035735 0.012423
v 0.041955 0.035077 0.011340
v 0.042291 0.037288 0.007345
v 0.048220 0.038856 0.008051
v 0.046634 0.037428 0.013853
v 0.052853 0.040859 0.009867
v 0.050895 0.039644 0.015044
v 0.057983 0.044277 0.015982
v 0.059719 0.045554 0.010255
v 0.051369 0.059300 0.007925
v 0.044319 0.056057 0.000365
v 0.052260 0.058154 0.004538
v 0.045015 0.053267 -0.003089
v 0.059425 0.063469 0.010377
v 0.061701 0.060940 0.014643
v 0.069697 0.063177 0.015325
v 0.067195 0.065830 0.012972
v 0.063945 0.058189 0.017321
v 0.045517 0.050757 -0.003906
v 0.053672 0.055438 0.001898
v 0.054884 0.050396 0.002509
v 0.059709 0.053437 0.003089
v 0.051979 0.048675 0.002128
v 0.054279 0.052910 0.001259
v 0.059025 0.055553 0.003097
v 0.049535 0.047149 0.001598
v 0.046085 0.047057 -0.002489
v 0.047644 0.046801 -0.000245
v 0.045858 0.048826 -0.003481
v 0.048236 0.048586 -0.000836
v 0.051575 0.050530 0.000463
v 0.050073 0.049106 0.000465
v 0.040517 0.038362 0.002757
v 0.041288 0.039093 -0.002823
v 0.039158 0.041028 -0.006815
v 0.037193 0.045246 -0.008473
v 0.036596 0.050143 -0.006044
v 0.036738 0.053088 -0.001091
v 0.036679 0.053400 0.003588
v 0.036581 0.052411 0.006637
v 0.036320 0.050369 0.009471
v 0.036040 0.047164 0.012244
v 0.036669 0.042332 0.013983
v 0.040628 0.035125 0.010514
v 0.040680 0.037228 0.007236
v 0.044161 0.039126 0.016426
v 0.040991 0.037241 0.015790
v 0.039625 0.035954 0.014705
v 0.068261 0.055465 0.017051
v 0.062820 0.050770 0.017770
v 0.055591 0.045560 0.018303
v 0.064880 0.049381 0.015446
v 0.048561 0.041253 0.017383
v 0.038831 0.035809 0.013136
v 0.073695 0.060259 0.015577
v 0.079103 0.065650 0.013229
v 0.083880 0.070726 0.010650
v 0.088532 0.076688 0.007467
v 0.093144 0.083283 0.003253
v 0.097470 0.089860 -0.001361
v 0.101855 0.095966 -0.005741
v 0.106658 0.101935 -0.009781
v 0.112129 0.108153 -0.013292
v 0.060444 0.062865 0.006591
v 0.065193 0.068058 0.009214
v 0.062267 0.060021 0.004408
v 0.064454 0.057309 0.003396
v 0.065375 0.055279 0.004433
v 0.066107 0.053130 0.006485
v 0.066358 0.050521 0.010275
v 0.070647 0.054607 0.014628
v 0.070423 0.073026 0.006918
v 0.067683 0.064885 0.003695
v 0.065867 0.067367 0.005612
v 0.074763 0.077711 0.004042
v 0.070662 0.072632 0.003136
v 0.072479 0.070376 0.001167
v 0.069336 0.062008 0.002892
v 0.070485 0.060158 0.004009
v 0.074232 0.067877 0.000809
v 0.071503 0.058150 0.006096
v 0.075437 0.066171 0.002234
v 0.071924 0.055771 0.009706
v 0.076605 0.063633 0.004768
v 0.076903 0.061142 0.008374
v 0.075622 0.059719 0.013262
v 0.080493 0.064935 0.011365
v 0.085228 0.069948 0.009066
v 0.081432 0.066239 0.006356
v 0.080544 0.068391 0.002954
v 0.079145 0.070995 0.000323
v 0.078249 0.072735 -0.001246
v 0.076555 0.075079 -0.001191
v 0.074917 0.077317 0.000410
v 0.078985 0.082868 0.000676
v 0.078414 0.081574 -0.002161
v 0.083082 0.088288 -0.003085
v 0.079739 0.078954 -0.003246
v 0.085449 0.070641 0.004239
v 0.081240 0.076719 -0.003191
v 0.082379 0.075072 -0.001544
v 0.084946 0.081936 -0.006156
v 0.086227 0.080663 -0.004667
v 0.083526 0.084071 -0.006339
v 0.090416 0.087191 -0.009219
v 0.088775 0.088034 -0.010356
v 0.088449 0.078844 -0.002373
v 0.092801 0.085563 -0.006726
v 0.084009 0.072634 0.001043
v 0.089997 0.075925 0.005929
v 0.090235 0.076665 0.000668
v 0.094425 0.082294 0.001925
v 0.095202 0.083391 -0.003862
v 0.098826 0.089058 -0.002719
v 0.094806 0.092921 -0.014362
v 0.093129 0.094116 -0.015450
v 0.101871 0.104832 -0.024971
v 0.104576 0.103140 -0.024523
v 0.099886 0.098501 -0.019887
v 0.097608 0.099914 -0.020419
v 0.097020 0.091603 -0.011338
v 0.102208 0.098345 -0.016667
v 0.107162 0.103711 -0.021206
v 0.103590 0.095612 -0.007130
v 0.099876 0.089447 -0.008343
v 0.082261 0.086652 -0.005424
v 0.087487 0.089720 -0.010292
v 0.087422 0.094204 -0.006970
v 0.086338 0.092467 -0.009246
v 0.091438 0.100233 -0.011000
v 0.091604 0.095914 -0.015076
v 0.090320 0.098372 -0.013613
v 0.096043 0.106301 -0.015049
v 0.095558 0.101934 -0.019672
v 0.094539 0.104456 -0.017919
v 0.101076 0.112114 -0.019506
v 0.099593 0.107289 -0.023906
v 0.099145 0.110005 -0.022082
v 0.104930 0.096573 -0.012878
v 0.108019 0.100796 -0.010289
v 0.108218 0.100028 -0.013318
v 0.110534 0.103825 -0.018598
v 0.113312 0.106773 -0.013664
v 0.112793 0.105151 -0.015076
v 0.115368 0.109660 -0.022303
v 0.112871 0.108197 -0.024990
v 0.106245 0.109869 -0.029543
v 0.104711 0.112909 -0.028225
v 0.109414 0.107774 -0.029086
v 0.117317 0.111601 -0.027745
v 0.112860 0.110969 -0.032036
v 0.104432 0.115430 -0.025940
v 0.117425 0.110776 -0.018476
v 0.120234 0.114059 -0.024797
v 0.118504 0.112031 -0.016173
v 0.123683 0.117204 -0.027794
v 0.120106 0.114481 -0.030353
v 0.122191 0.117043 -0.031990
v 0.125487 0.119241 -0.030373
v 0.109320 0.113658 -0.032406
v 0.111533 0.119440 -0.032082
v 0.116889 0.121752 -0.033244
v 0.116393 0.118870 -0.034437
v 0.112753 0.116642 -0.034102
v 0.115948 0.113918 -0.033846
v 0.119618 0.117508 -0.034131
v 0.107887 0.116367 -0.030442
v 0.122417 0.121495 -0.032940
v 0.123777 0.115815 -0.020510
v 0.126943 0.119700 -0.025676
v 0.128999 0.121306 -0.028405
v 0.129219 0.119210 -0.019437
v 0.132179 0.122395 -0.023042
v 0.134145 0.123062 -0.024651
v 0.124680 0.124588 -0.032270
v 0.117011 0.124638 -0.031883
v 0.111352 0.121920 -0.029658
v 0.107785 0.118702 -0.027935
v 0.105889 0.117156 -0.023099
v 0.136036 0.123736 -0.019618
v 0.138418 0.124244 -0.020731
v 0.134059 0.121877 -0.017512
v 0.141788 0.125667 -0.016799
v 0.139639 0.124782 -0.015828
v 0.144123 0.127395 -0.018910
v 0.140630 0.125740 -0.022392
v 0.136380 0.124685 -0.025955
v 0.131938 0.124483 -0.029248
v 0.128293 0.126504 -0.032512
v 0.126567 0.130724 -0.034049
v 0.121848 0.129097 -0.032532
v 0.109489 0.116685 -0.019500
v 0.109021 0.120364 -0.025201
v 0.112225 0.123464 -0.027199
v 0.116588 0.126396 -0.030141
v 0.143939 0.128658 -0.024431
v 0.146792 0.129864 -0.020565
v 0.140082 0.127575 -0.028358
v 0.135961 0.127216 -0.031253
v 0.131852 0.127658 -0.033124
v 0.131697 0.131416 -0.034810
v 0.138948 0.130598 -0.033706
v 0.113547 0.114981 -0.017494
v 0.112528 0.120391 -0.021850
v 0.115525 0.124172 -0.023961
v 0.118667 0.127704 -0.026500
v 0.122833 0.131075 -0.029184
v 0.116976 0.119047 -0.019586
v 0.117288 0.113400 -0.015702
v 0.122576 0.115868 -0.017490
v 0.121502 0.116939 -0.016844
v 0.126245 0.118416 -0.017263
v 0.121240 0.123147 -0.020613
v 0.125294 0.119807 -0.016632
v 0.122787 0.127835 -0.022848
v 0.137448 0.123353 -0.015239
v 0.131402 0.121302 -0.015495
v 0.136596 0.124080 -0.011919
v 0.129970 0.122377 -0.015317
v 0.143125 0.126605 -0.012916
v 0.140549 0.125156 -0.012563
v 0.145604 0.128599 -0.015940
v 0.148165 0.131220 -0.017617
v 0.134895 0.125344 -0.012068
v 0.127813 0.124917 -0.018078
v 0.127916 0.128776 -0.019776
v 0.133135 0.127284 -0.015150
v 0.133337 0.130632 -0.016349
v 0.130129 0.132544 -0.021169
v 0.134879 0.134083 -0.017726
v 0.125942 0.131737 -0.024858
v 0.127334 0.133950 -0.031327
v 0.143155 0.130873 -0.030640
v 0.146598 0.131389 -0.026468
v 0.148807 0.132804 -0.021543
v 0.131419 0.135867 -0.027617
v 0.137663 0.134517 -0.032940
v 0.132625 0.135434 -0.032968
v 0.135247 0.136864 -0.024009
v 0.138986 0.137693 -0.020559
v 0.147210 0.136299 -0.023116
v 0.144957 0.135475 -0.026882
v 0.140684 0.137823 -0.026208
v 0.143526 0.138232 -0.023016
v 0.141655 0.134962 -0.030561
v 0.136877 0.137486 -0.029536
v 0.149501 0.134124 -0.018563
v 0.148594 0.136831 -0.019599
v 0.142348 0.137815 -0.017404
v 0.139072 0.135359 -0.014747
v 0.137500 0.132618 -0.012983
v 0.137464 0.130061 -0.011297
v 0.139058 0.128131 -0.008959
v 0.141981 0.126486 -0.009979
v 0.143743 0.127933 -0.009709
v 0.140717 0.126730 -0.008879
v 0.143170 0.129070 -0.007760
v 0.141684 0.130233 -0.007782
v 0.139731 0.131887 -0.009932
v 0.140038 0.133775 -0.011478
v 0.141750 0.135757 -0.013008
v 0.145555 0.138483 -0.019386
v 0.144697 0.137537 -0.015100
v 0.147107 0.138122 -0.016547
v 0.148837 0.136943 -0.017249
v 0.149162 0.135134 -0.016440
v 0.147864 0.136530 -0.014344
v 0.145118 0.129747 -0.009295
v 0.144626 0.130906 -0.007996
v 0.143722 0.131694 -0.007677
v 0.145993 0.130246 -0.010636
v 0.145805 0.132459 -0.008626
v 0.147046 0.131664 -0.012201
v 0.148142 0.133325 -0.014016
v 0.145420 0.136359 -0.013504
v 0.142742 0.132991 -0.008853
v 0.143384 0.134482 -0.010328
v 0.146677 0.133979 -0.010191
v 0.144585 0.135745 -0.011810
v 0.147517 0.135457 -0.012072
v 0.035859 0.043351 -0.005568
v 0.037495 0.040193 -0.004591
v 0.039004 0.038975 -0.001575
v 0.038887 0.038726 0.003215
v 0.039235 0.037853 0.007107
v 0.039370 0.036442 0.009415
v 0.038104 0.037223 0.011180
v 0.036469 0.042160 0.011637
v 0.035854 0.046284 0.010057
v 0.035836 0.048723 0.007958
v 0.035934 0.050136 0.005815
v 0.036025 0.050716 0.003389
v 0.036014 0.050081 0.000141
v 0.035404 0.047519 -0.003549
v 0.037383 0.040492 0.000434
v 0.036515 0.040751 -0.001696
v 0.037437 0.039815 0.003663
v 0.035858 0.042632 -0.001919
v 0.036484 0.042078 0.001231
v 0.035625 0.045662 -0.000833
v 0.037852 0.039375 0.006468
v 0.038148 0.038556 0.008227
v 0.037651 0.039363 0.009143
v 0.036626 0.041192 0.004250
v 0.037223 0.040596 0.007034
v 0.036755 0.042170 0.009517
v 0.036039 0.045099 0.008622
v 0.036155 0.043641 0.004735
v 0.036507 0.042867 0.007231
v 0.035864 0.046159 0.007064
v 0.035731 0.047049 0.005204
v 0.035734 0.047580 0.003143
v 0.036012 0.044554 0.002050
v 0.035783 0.047769 0.001089
f 1 2 3
f 1 3 4
f 5 1 4
f 5 4 6
f 7 5 6
f 7 6 8
f 9 10 11
f 9 11 12
f 13 9 12
f 13 12 14
f 15 11 10
f 15 10 16
f 16 7 8
f 16 8 15
f 17 18 19
f 17 19 20
f 21 22 23
f 21 23 24
f 25 26 22
f 25 22 21
f 27 28 26
f 27 26 25
f 29 30 28
f 29 28 27
f 31 32 30
f 31 30 29
f 19 32 31
f 19 31 33
f 20 19 33
f 20 33 34
f 35 24 23
f 35 23 36
f 37 38 39
f 37 39 40
f 41 35 36
f 41 36 42
f 40 41 42
f 40 42 43
f 44 37 40
f 44 40 43
f 39 38 45
f 39 45 46
f 47 37 44
f 47 44 48
f 32 19 18
f 32 18 49
f 30 32 49
f 30 49 50
f 51 52 53
f 51 53 54
f 28 30 50
f 28 50 55
f 56 50 49
f 56 49 57
f 56 57 58
f 56 58 59
f 59 58 53
f 59 53 52
f 60 54 53
f 60 53 61
f 61 53 58
f 61 58 57
f 61 57 49
f 61 49 62
f 61 62 63
f 61 63 60
f 62 49 18
f 62 18 63
f 64 65 54
f 64 54 60
f 66 63 18
f 66 18 17
f 64 60 63
f 64 63 66
f 67 47 48
f 67 48 68
f 69 67 68
f 69 68 70
f 71 72 73
f 71 73 74
f 71 74 46
f 71 46 45
f 75 38 37
f 75 37 47
f 75 76 72
f 75 72 71
f 75 71 45
f 75 45 38
f 77 78 76
f 77 76 75
f 77 75 47
f 77 47 67
f 79 78 77
f 79 77 80
f 80 77 67
f 80 67 69
f 55 50 56
f 55 56 81
f 26 28 55
f 26 55 82
f 83 82 55
f 83 55 81
f 84 22 26
f 84 26 82
f 81 56 59
f 81 59 85
f 59 52 86
f 59 86 85
f 87 13 14
f 87 14 88
f 89 86 52
f 89 52 51
f 88 86 89
f 88 89 87
f 51 54 65
f 51 65 89
f 90 23 22
f 90 22 84
f 91 84 82
f 91 82 83
f 70 68 92
f 70 92 93
f 92 68 48
f 92 48 94
f 95 90 84
f 95 84 91
f 96 93 92
f 96 92 95
f 94 48 44
f 94 44 97
f 43 42 98
f 43 98 99
f 97 44 43
f 97 43 99
f 100 36 23
f 100 23 90
f 98 42 36
f 98 36 100
f 101 99 98
f 101 98 100
f 102 94 97
f 102 97 103
f 95 92 94
f 95 94 102
f 100 90 95
f 100 95 102
f 103 101 100
f 103 100 102
f 103 97 99
f 103 99 101
f 39 46 104
f 39 104 105
f 105 41 40
f 105 40 39
f 35 41 105
f 35 105 106
f 107 24 35
f 107 35 106
f 108 21 24
f 108 24 107
f 25 21 108
f 25 108 109
f 27 25 109
f 27 109 110
f 29 27 110
f 29 110 111
f 31 29 111
f 31 111 112
f 33 31 112
f 33 112 113
f 34 33 113
f 34 113 114
f 74 73 115
f 74 115 116
f 104 46 74
f 104 74 116
f 72 76 117
f 72 117 118
f 73 72 118
f 73 118 119
f 117 17 20
f 117 20 118
f 120 89 65
f 120 65 121
f 122 79 123
f 122 123 121
f 124 66 17
f 124 17 117
f 122 64 66
f 122 66 124
f 124 117 76
f 124 76 78
f 124 78 79
f 124 79 122
f 121 65 64
f 121 64 122
f 118 20 34
f 118 34 119
f 125 115 73
f 125 73 119
f 119 34 114
f 119 114 125
f 126 87 89
f 126 89 120
f 127 13 87
f 127 87 126
f 128 9 13
f 128 13 127
f 129 10 9
f 129 9 128
f 130 16 10
f 130 10 129
f 131 7 16
f 131 16 130
f 132 5 7
f 132 7 131
f 133 1 5
f 133 5 132
f 134 2 1
f 134 1 133
f 83 81 85
f 83 85 135
f 136 85 86
f 136 86 88
f 91 83 135
f 91 135 137
f 96 95 91
f 96 91 137
f 138 93 96
f 138 96 137
f 70 93 138
f 70 138 139
f 69 70 139
f 69 139 140
f 80 69 140
f 80 140 141
f 141 123 79
f 141 79 80
f 120 121 123
f 120 123 142
f 143 136 88
f 143 88 14
f 144 137 135
f 144 135 145
f 145 135 85
f 145 85 136
f 146 143 14
f 146 14 12
f 145 136 143
f 145 143 147
f 148 144 145
f 148 145 147
f 138 137 144
f 138 144 149
f 139 138 149
f 139 149 150
f 149 144 148
f 149 148 151
f 140 139 150
f 140 150 152
f 153 150 149
f 153 149 151
f 142 123 141
f 142 141 154
f 141 140 152
f 141 152 154
f 155 152 150
f 155 150 153
f 156 154 152
f 156 152 155
f 126 120 142
f 126 142 157
f 157 142 154
f 157 154 156
f 127 126 157
f 127 157 158
f 128 127 158
f 128 158 159
f 158 157 156
f 158 156 160
f 160 156 155
f 160 155 161
f 161 155 153
f 161 153 162
f 162 153 151
f 162 151 163
f 163 151 148
f 163 148 164
f 165 164 148
f 165 148 147
f 147 143 146
f 147 146 165
f 166 146 12
f 166 12 11
f 167 165 146
f 167 146 166
f 168 166 11
f 168 11 15
f 169 164 165
f 169 165 167
f 170 159 158
f 170 158 160
f 171 172 162
f 171 162 163
f 173 174 172
f 173 172 171
f 171 163 164
f 171 164 169
f 171 169 175
f 171 175 173
f 176 174 173
f 176 173 177
f 178 174 176
f 178 176 179
f 180 170 160
f 180 160 161
f 180 161 162
f 180 162 172
f 180 172 174
f 180 174 178
f 129 128 159
f 129 159 181
f 181 159 170
f 181 170 182
f 182 170 180
f 182 180 178
f 130 129 181
f 130 181 183
f 184 182 178
f 184 178 179
f 131 130 183
f 131 183 185
f 183 181 182
f 183 182 184
f 186 176 177
f 186 177 187
f 188 189 190
f 188 190 191
f 192 186 190
f 192 190 193
f 190 186 187
f 190 187 191
f 192 179 176
f 192 176 186
f 190 189 194
f 190 194 193
f 132 131 185
f 132 185 195
f 196 184 179
f 196 179 192
f 185 183 184
f 185 184 196
f 175 169 167
f 175 167 197
f 197 167 166
f 197 166 168
f 177 173 175
f 177 175 198
f 199 168 15
f 199 15 8
f 200 198 175
f 200 175 197
f 200 197 168
f 200 168 199
f 201 199 8
f 201 8 6
f 202 198 200
f 202 200 203
f 187 177 198
f 187 198 202
f 203 200 199
f 203 199 201
f 204 201 6
f 204 6 4
f 205 191 187
f 205 187 202
f 206 203 201
f 206 201 204
f 205 202 203
f 205 203 206
f 207 204 4
f 207 4 3
f 208 188 191
f 208 191 205
f 208 205 206
f 208 206 209
f 209 206 204
f 209 204 207
f 196 192 193
f 196 193 210
f 195 185 196
f 195 196 210
f 133 132 195
f 133 195 211
f 211 195 210
f 211 210 212
f 213 210 193
f 213 193 194
f 134 133 211
f 134 211 214
f 215 212 210
f 215 210 213
f 214 211 212
f 214 212 215
f 216 213 194
f 216 194 217
f 218 188 208
f 218 208 219
f 217 194 189
f 217 189 220
f 220 189 188
f 220 188 218
f 221 217 220
f 221 220 222
f 219 208 209
f 219 209 223
f 215 213 216
f 215 216 224
f 225 216 217
f 225 217 221
f 226 214 215
f 226 215 224
f 227 225 221
f 227 221 228
f 227 228 229
f 227 229 230
f 222 220 218
f 222 218 231
f 232 233 234
f 232 234 235
f 236 235 234
f 236 234 237
f 238 231 218
f 238 218 219
f 232 235 231
f 232 231 238
f 228 221 222
f 228 222 236
f 239 230 229
f 239 229 237
f 237 229 228
f 237 228 236
f 234 233 239
f 234 239 237
f 236 222 231
f 236 231 235
f 224 216 225
f 224 225 240
f 240 225 227
f 240 227 241
f 241 227 230
f 241 230 242
f 243 240 241
f 243 241 244
f 245 244 241
f 245 241 242
f 242 230 239
f 242 239 246
f 246 239 233
f 246 233 247
f 247 233 232
f 247 232 248
f 248 232 238
f 248 238 249
f 238 219 223
f 238 223 249
f 223 209 207
f 223 207 250
f 251 244 245
f 251 245 252
f 253 243 244
f 253 244 251
f 251 252 254
f 251 254 255
f 256 254 252
f 256 252 257
f 257 252 245
f 257 245 258
f 258 245 242
f 258 242 259
f 260 259 242
f 260 242 246
f 261 260 246
f 261 246 262
f 250 207 3
f 250 3 263
f 264 249 223
f 264 223 250
f 265 248 249
f 265 249 264
f 266 247 248
f 266 248 265
f 266 262 246
f 266 246 247
f 267 268 256
f 267 256 257
f 269 267 257
f 269 257 258
f 270 269 258
f 270 258 259
f 270 259 260
f 270 260 271
f 272 271 260
f 272 260 261
f 273 270 271
f 273 271 272
f 263 3 2
f 263 2 274
f 264 250 263
f 264 263 275
f 265 264 275
f 265 275 276
f 266 265 276
f 266 276 277
f 278 262 266
f 278 266 277
f 275 263 274
f 275 274 279
f 280 134 214
f 280 214 226
f 280 274 2
f 280 2 134
f 226 224 240
f 226 240 281
f 282 280 226
f 282 226 281
f 282 279 274
f 282 274 280
f 283 281 240
f 283 240 243
f 276 275 279
f 276 279 284
f 285 284 279
f 285 279 282
f 285 282 281
f 285 281 283
f 277 276 284
f 277 284 286
f 253 251 255
f 253 255 287
f 288 283 243
f 288 243 253
f 288 253 287
f 288 287 289
f 290 285 283
f 290 283 288
f 255 254 291
f 255 291 292
f 289 287 255
f 289 255 292
f 291 254 256
f 291 256 293
f 294 293 256
f 294 256 268
f 290 288 289
f 290 289 295
f 296 284 285
f 296 285 290
f 297 286 284
f 297 284 296
f 296 290 295
f 296 295 298
f 297 296 298
f 297 298 299
f 300 297 299
f 300 299 301
f 302 286 297
f 302 297 300
f 278 277 286
f 278 286 302
f 303 261 262
f 303 262 278
f 304 269 270
f 304 270 273
f 305 267 269
f 305 269 304
f 306 268 267
f 306 267 305
f 303 278 302
f 303 302 307
f 308 273 272
f 308 272 309
f 309 272 261
f 309 261 303
f 307 302 300
f 307 300 310
f 310 300 301
f 310 301 311
f 312 306 305
f 312 305 313
f 314 315 312
f 314 312 313
f 314 310 311
f 314 311 315
f 316 308 309
f 316 309 317
f 304 273 308
f 304 308 316
f 313 305 304
f 313 304 316
f 317 314 313
f 317 313 316
f 317 307 310
f 317 310 314
f 309 303 307
f 309 307 317
f 318 294 268
f 318 268 306
f 318 306 312
f 318 312 319
f 320 311 301
f 320 301 321
f 321 301 299
f 321 299 322
f 322 299 298
f 322 298 323
f 323 298 295
f 323 295 324
f 325 292 291
f 325 291 326
f 324 295 289
f 324 289 327
f 327 289 292
f 327 292 325
f 327 325 326
f 327 326 328
f 329 324 327
f 329 327 328
f 330 323 324
f 330 324 329
f 331 322 323
f 331 323 330
f 332 321 322
f 332 322 331
f 333 315 311
f 333 311 320
f 319 312 315
f 319 315 333
f 334 320 321
f 334 321 332
f 335 336 319
f 335 319 333
f 335 333 320
f 335 320 334
f 337 318 319
f 337 319 336
f 337 336 335
f 337 335 338
f 328 326 339
f 328 339 340
f 341 329 328
f 341 328 340
f 339 326 291
f 339 291 342
f 343 340 339
f 343 339 342
f 342 291 293
f 342 293 344
f 345 294 318
f 345 318 337
f 344 293 294
f 344 294 345
f 338 335 334
f 338 334 346
f 347 341 340
f 347 340 343
f 330 329 341
f 330 341 347
f 331 330 347
f 331 347 348
f 348 347 343
f 348 343 349
f 349 343 342
f 349 342 344
f 332 331 348
f 332 348 350
f 350 348 349
f 350 349 351
f 346 334 332
f 346 332 350
f 351 338 346
f 351 346 350
f 351 349 344
f 351 344 345
f 351 345 337
f 351 337 338
f 352 107 106
f 352 106 353
f 353 106 105
f 353 105 354
f 354 105 104
f 354 104 355
f 355 104 116
f 355 116 356
f 356 116 115
f 356 115 357
f 357 115 125
f 357 125 358
f 358 125 114
f 358 114 359
f 359 114 113
f 359 113 360
f 360 113 112
f 360 112 361
f 361 112 111
f 361 111 362
f 362 111 110
f 362 110 363
f 363 110 109
f 363 109 364
f 364 109 108
f 364 108 365
f 108 107 352
f 108 352 365
f 366 367 353
f 366 353 354
f 366 354 355
f 366 355 368
f 369 352 353
f 369 353 367
f 370 369 367
f 370 367 366
f 371 365 352
f 371 352 369
f 372 368 355
f 372 355 356
f 372 356 357
f 372 357 373
f 374 373 357
f 374 357 358
f 370 366 368
f 370 368 375
f 376 375 368
f 376 368 372
f 376 372 373
f 376 373 374
f 377 359 360
f 377 360 378
f 377 374 358
f 377 358 359
f 379 375 376
f 379 376 380
f 380 377 378
f 380 378 381
f 381 378 360
f 381 360 361
f 381 361 362
f 381 362 382
f 381 382 379
f 381 379 380
f 376 374 377
f 376 377 380
f 383 382 362
f 383 362 363
f 384 370 375
f 384 375 379
f 385 383 363
f 385 363 364
f 371 384 383
f 371 383 385
f 385 364 365
f 385 365 371
f 384 371 369
f 384 369 370
f 384 379 382
f 384 382 383
