# Clavicle_L posed
v -0.593354 -0.119986 0.401273
v -0.598894 -0.126738 0.403253
v -0.601123 -0.123435 0.406319
v -0.595404 -0.116767 0.404087
v -0.587870 -0.113742 0.399018
v -0.589753 -0.110859 0.401758
v -0.582024 -0.107818 0.396322
v -0.583854 -0.105194 0.399312
v -0.564737 -0.090112 0.389368
v -0.570126 -0.095893 0.390952
v -0.572433 -0.093658 0.394236
v -0.567204 -0.088202 0.392303
v -0.560074 -0.084199 0.388140
v -0.562609 -0.082567 0.390920
v -0.577899 -0.099202 0.396606
v -0.576109 -0.101830 0.393433
v -0.537535 -0.049895 0.393951
v -0.541874 -0.051316 0.396135
v -0.541673 -0.047398 0.397129
v -0.536842 -0.046634 0.395275
v -0.545439 -0.054942 0.417167
v -0.545738 -0.056655 0.415360
v -0.541800 -0.057054 0.416382
v -0.540461 -0.055440 0.418812
v -0.548539 -0.052689 0.412833
v -0.548999 -0.054921 0.411565
v -0.549055 -0.050756 0.407881
v -0.549798 -0.053070 0.406484
v -0.548079 -0.049578 0.404539
v -0.548270 -0.051595 0.402571
v -0.545263 -0.047802 0.400970
v -0.545505 -0.049792 0.399611
v -0.541160 -0.045833 0.398280
v -0.536113 -0.045593 0.396637
v -0.536304 -0.056128 0.417299
v -0.538839 -0.057505 0.415428
v -0.534790 -0.058605 0.406432
v -0.533029 -0.057433 0.406332
v -0.532924 -0.056107 0.410243
v -0.534725 -0.057625 0.410464
v -0.534472 -0.056895 0.414070
v -0.537287 -0.058308 0.412927
v -0.536997 -0.059066 0.409585
v -0.536879 -0.059950 0.405951
v -0.531962 -0.055857 0.405449
v -0.532037 -0.054387 0.407257
v -0.534796 -0.060560 0.402813
v -0.537538 -0.062083 0.403635
v -0.545410 -0.053945 0.397878
v -0.548389 -0.054684 0.400437
v -0.550223 -0.068049 0.388944
v -0.551734 -0.068034 0.390626
v -0.550188 -0.066137 0.391396
v -0.548586 -0.065937 0.389422
v -0.549942 -0.056107 0.404216
v -0.550877 -0.061148 0.397473
v -0.548630 -0.060579 0.395736
v -0.551278 -0.065900 0.392868
v -0.553244 -0.067134 0.393387
v -0.544531 -0.059736 0.391782
v -0.546651 -0.060368 0.394433
v -0.544231 -0.055813 0.396428
v -0.541706 -0.054103 0.394731
v -0.542214 -0.059815 0.389538
v -0.546637 -0.066695 0.387477
v -0.538714 -0.053485 0.392231
v -0.536356 -0.063984 0.400509
v -0.539187 -0.065188 0.402207
v -0.540443 -0.070144 0.398487
v -0.542941 -0.070921 0.400466
v -0.530580 -0.054708 0.401707
v -0.529032 -0.052258 0.397770
v -0.528451 -0.050869 0.399346
v -0.530577 -0.052541 0.403047
v -0.531835 -0.058047 0.400555
v -0.530590 -0.054678 0.395514
v -0.533616 -0.062008 0.397399
v -0.532596 -0.058490 0.393071
v -0.536856 -0.065206 0.389998
v -0.537939 -0.068685 0.394910
v -0.552074 -0.062252 0.399674
v -0.549100 -0.057685 0.409037
v -0.550826 -0.064068 0.402623
v -0.546219 -0.059244 0.412112
v -0.555819 -0.069394 0.394862
v -0.553241 -0.070106 0.390107
v -0.555034 -0.077630 0.387001
v -0.557780 -0.076118 0.390005
v -0.550417 -0.071264 0.386873
v -0.543672 -0.059827 0.412738
v -0.547995 -0.066062 0.404702
v -0.542911 -0.066736 0.403754
v -0.545682 -0.071320 0.401717
v -0.541349 -0.063994 0.405011
v -0.545431 -0.066688 0.405126
v -0.547830 -0.070786 0.401918
v -0.539947 -0.061749 0.406270
v -0.539973 -0.059721 0.411220
v -0.539672 -0.060499 0.408605
v -0.541733 -0.059910 0.412231
v -0.541412 -0.061344 0.408983
v -0.543194 -0.064226 0.406717
v -0.541854 -0.062719 0.407180
v -0.531672 -0.052326 0.407955
v -0.532269 -0.054812 0.413029
v -0.534252 -0.054125 0.417477
v -0.538541 -0.053009 0.419653
v -0.543503 -0.051978 0.417520
v -0.546519 -0.050762 0.412755
v -0.546913 -0.049289 0.408316
v -0.545983 -0.048205 0.405443
v -0.544007 -0.046970 0.402827
v -0.540869 -0.045671 0.400276
v -0.536035 -0.045457 0.398436
v -0.528558 -0.049865 0.400540
v -0.530603 -0.051042 0.403643
v -0.532464 -0.051637 0.393818
v -0.530741 -0.048713 0.395399
v -0.529511 -0.047674 0.396854
v -0.547454 -0.075299 0.385810
v -0.543090 -0.069632 0.386803
v -0.538309 -0.062292 0.388519
v -0.541551 -0.072225 0.388384
v -0.534368 -0.055645 0.391556
v -0.529382 -0.047393 0.398592
v -0.551908 -0.081193 0.385539
v -0.556951 -0.087355 0.386111
v -0.561710 -0.092975 0.387101
v -0.567357 -0.098715 0.388710
v -0.573620 -0.104770 0.391313
v -0.579878 -0.110669 0.394365
v -0.585668 -0.116519 0.397166
v -0.591302 -0.122656 0.399517
v -0.597109 -0.129282 0.401192
v -0.555098 -0.071486 0.398151
v -0.560052 -0.075493 0.394193
v -0.552123 -0.073722 0.399671
v -0.549281 -0.075959 0.399964
v -0.547223 -0.076405 0.398697
v -0.545073 -0.076351 0.396525
v -0.542519 -0.075279 0.392847
v -0.546425 -0.078261 0.387384
v -0.564679 -0.081448 0.394774
v -0.556657 -0.079367 0.398681
v -0.559265 -0.077197 0.397413
v -0.569071 -0.086724 0.396183
v -0.564208 -0.082809 0.398297
v -0.561825 -0.085012 0.399612
v -0.553683 -0.081024 0.398940
v -0.551794 -0.081672 0.397527
v -0.559230 -0.086648 0.399414
v -0.549770 -0.081890 0.395231
v -0.557486 -0.087263 0.397691
v -0.547433 -0.081050 0.391672
v -0.554932 -0.087457 0.394925
v -0.552492 -0.086499 0.391405
v -0.551224 -0.083704 0.387150
v -0.556129 -0.089208 0.387458
v -0.560834 -0.094698 0.388194
v -0.557295 -0.091707 0.391933
v -0.559434 -0.092024 0.395441
v -0.562065 -0.091647 0.398374
v -0.563826 -0.091374 0.400142
v -0.566259 -0.089880 0.400610
v -0.568609 -0.087959 0.399591
v -0.573934 -0.092065 0.398098
v -0.572626 -0.092316 0.400970
v -0.579061 -0.097424 0.400422
v -0.569920 -0.093759 0.401594
v -0.561434 -0.096426 0.392719
v -0.567608 -0.095042 0.401080
v -0.565929 -0.095528 0.399163
v -0.572566 -0.099774 0.402770
v -0.571250 -0.100464 0.400961
v -0.574771 -0.098601 0.403381
v -0.577466 -0.106214 0.404011
v -0.578379 -0.105048 0.405595
v -0.569351 -0.101771 0.398097
v -0.575750 -0.107628 0.400910
v -0.563449 -0.096147 0.396202
v -0.566490 -0.100536 0.389724
v -0.567129 -0.102416 0.394656
v -0.572541 -0.106339 0.392182
v -0.573498 -0.108911 0.397450
v -0.578979 -0.112327 0.395242
v -0.582874 -0.112285 0.407547
v -0.584142 -0.111090 0.409094
v -0.594189 -0.122919 0.415450
v -0.592366 -0.125253 0.414193
v -0.588085 -0.119118 0.411228
v -0.589614 -0.117197 0.412429
v -0.581486 -0.113391 0.403993
v -0.587852 -0.120331 0.407450
v -0.592843 -0.126729 0.410243
v -0.585196 -0.118572 0.397956
v -0.579222 -0.115064 0.400267
v -0.577433 -0.097265 0.402900
v -0.580134 -0.103899 0.405929
v -0.584676 -0.103079 0.402776
v -0.582960 -0.102644 0.405280
v -0.590424 -0.108473 0.405360
v -0.586028 -0.109629 0.409201
v -0.588580 -0.108102 0.408195
v -0.596163 -0.114438 0.407792
v -0.591757 -0.115135 0.412341
v -0.594361 -0.113773 0.410977
v -0.601605 -0.120920 0.410491
v -0.596798 -0.120574 0.415134
v -0.599565 -0.119750 0.413534
v -0.585990 -0.121657 0.403012
v -0.590081 -0.124039 0.399585
v -0.589254 -0.125111 0.402409
v -0.592811 -0.129139 0.406726
v -0.595663 -0.130440 0.401183
v -0.594059 -0.130285 0.402683
v -0.598293 -0.135190 0.408768
v -0.596932 -0.133555 0.412089
v -0.598896 -0.128754 0.418457
v -0.602036 -0.127074 0.417668
v -0.596639 -0.131505 0.417049
v -0.600038 -0.138825 0.413349
v -0.599589 -0.135864 0.418800
v -0.604608 -0.126258 0.415576
v -0.599353 -0.136043 0.404497
v -0.602375 -0.140837 0.409648
v -0.600582 -0.136441 0.401975
v -0.605276 -0.145218 0.411442
v -0.602718 -0.142444 0.414975
v -0.605134 -0.145075 0.415893
v -0.607170 -0.147840 0.413343
v -0.602458 -0.132769 0.420239
v -0.608123 -0.135112 0.419242
v -0.610121 -0.140688 0.418704
v -0.607247 -0.140412 0.419998
v -0.605226 -0.136722 0.420797
v -0.602335 -0.139526 0.419574
v -0.605710 -0.143309 0.418719
v -0.605277 -0.130968 0.418802
v -0.609553 -0.145835 0.416726
v -0.603997 -0.142994 0.404482
v -0.607619 -0.147812 0.408426
v -0.609067 -0.150696 0.410393
v -0.607108 -0.148039 0.401799
v -0.610067 -0.152134 0.404323
v -0.610602 -0.154533 0.405252
v -0.612526 -0.147960 0.415392
v -0.613021 -0.140558 0.417366
v -0.610652 -0.134344 0.416984
v -0.607658 -0.130243 0.416440
v -0.606304 -0.126876 0.412424
v -0.611274 -0.154830 0.399873
v -0.611635 -0.157467 0.400200
v -0.609551 -0.152197 0.398483
v -0.612937 -0.159544 0.395422
v -0.612186 -0.157150 0.395159
v -0.614503 -0.162514 0.396712
v -0.612981 -0.160168 0.401100
v -0.612089 -0.157152 0.405800
v -0.612066 -0.153925 0.410296
v -0.614230 -0.151573 0.414517
v -0.618517 -0.150645 0.416504
v -0.617182 -0.145601 0.416504
v -0.605701 -0.129165 0.407895
v -0.609301 -0.130679 0.413455
v -0.612189 -0.134513 0.414370
v -0.614831 -0.139726 0.415832
v -0.615679 -0.164107 0.402021
v -0.616789 -0.165697 0.397468
v -0.614737 -0.161579 0.406945
v -0.614549 -0.158521 0.410968
v -0.615182 -0.155211 0.414008
v -0.618918 -0.155795 0.415656
v -0.617721 -0.162305 0.412382
v -0.603806 -0.132304 0.404743
v -0.609195 -0.132985 0.409190
v -0.612768 -0.136696 0.410273
v -0.616071 -0.140653 0.411735
v -0.619163 -0.145630 0.413012
v -0.607638 -0.136440 0.405677
v -0.602039 -0.135220 0.401898
v -0.604175 -0.140933 0.401978
v -0.605321 -0.139780 0.401691
v -0.606519 -0.144501 0.400639
v -0.611475 -0.141045 0.405351
v -0.607978 -0.143488 0.400329
v -0.616035 -0.143476 0.407003
v -0.610886 -0.154801 0.395274
v -0.609139 -0.149013 0.397386
v -0.611711 -0.153014 0.392366
v -0.610290 -0.147656 0.397660
v -0.613857 -0.159670 0.391311
v -0.612560 -0.157033 0.391765
v -0.615659 -0.163066 0.393434
v -0.618107 -0.166162 0.394244
v -0.613058 -0.151509 0.393031
v -0.612912 -0.146615 0.400938
v -0.616737 -0.147455 0.402514
v -0.615035 -0.150890 0.396510
v -0.618351 -0.151647 0.397585
v -0.620355 -0.150193 0.403155
v -0.621693 -0.153739 0.398418
v -0.619725 -0.147313 0.407944
v -0.621749 -0.150735 0.413673
v -0.617823 -0.165383 0.408168
v -0.618225 -0.167412 0.403138
v -0.619593 -0.168070 0.397779
v -0.623494 -0.153589 0.408893
v -0.621719 -0.161073 0.412042
v -0.622908 -0.156348 0.413614
v -0.624345 -0.156171 0.404282
v -0.625029 -0.158713 0.399852
v -0.623145 -0.167233 0.399763
v -0.622381 -0.166201 0.404038
v -0.624970 -0.162065 0.404709
v -0.625280 -0.163812 0.400799
v -0.621988 -0.164166 0.408554
v -0.624777 -0.159450 0.409046
v -0.620921 -0.167887 0.394729
v -0.623657 -0.167500 0.395994
v -0.625022 -0.160949 0.395818
v -0.622792 -0.156886 0.394295
v -0.620168 -0.154689 0.393103
v -0.617647 -0.153992 0.391505
v -0.615677 -0.154684 0.388788
v -0.613854 -0.157678 0.388866
v -0.615205 -0.159351 0.388071
v -0.614187 -0.156156 0.388206
v -0.616406 -0.158276 0.386393
v -0.617650 -0.156939 0.386868
v -0.619372 -0.155837 0.389509
v -0.621213 -0.156710 0.390888
v -0.623072 -0.158920 0.391820
v -0.625476 -0.164644 0.396722
v -0.624650 -0.162461 0.392908
v -0.625077 -0.165228 0.393547
v -0.623795 -0.167018 0.393682
v -0.621984 -0.166973 0.392813
v -0.623483 -0.165180 0.391220
v -0.616947 -0.160635 0.387257
v -0.618155 -0.159836 0.386173
v -0.618997 -0.158926 0.386147
v -0.617373 -0.161904 0.388266
v -0.619630 -0.161238 0.386414
v -0.618706 -0.163464 0.389433
v -0.620273 -0.165157 0.390827
v -0.623461 -0.162591 0.391170
v -0.620327 -0.158430 0.387565
v -0.621754 -0.159576 0.388774
v -0.621073 -0.162634 0.387635
v -0.622924 -0.161243 0.389815
v -0.622471 -0.164092 0.389167
v -0.536771 -0.050744 0.417301
v -0.533545 -0.051817 0.415873
v -0.532295 -0.052255 0.412542
v -0.532132 -0.050659 0.408018
v -0.531304 -0.049744 0.404208
v -0.529925 -0.049083 0.401972
v -0.530803 -0.047384 0.400677
v -0.535835 -0.045976 0.400732
v -0.539964 -0.046115 0.402417
v -0.542363 -0.046880 0.404418
v -0.543733 -0.047712 0.406428
v -0.544266 -0.048575 0.408710
v -0.543577 -0.049524 0.411807
v -0.540989 -0.049931 0.415512
v -0.533933 -0.050186 0.411123
v -0.534203 -0.050031 0.413416
v -0.533307 -0.049208 0.408033
v -0.536115 -0.049583 0.413826
v -0.535580 -0.049179 0.410636
v -0.539171 -0.049202 0.412859
v -0.532890 -0.048715 0.405236
v -0.532084 -0.048409 0.403472
v -0.532933 -0.047703 0.402751
v -0.534736 -0.048337 0.407719
v -0.534154 -0.048015 0.404887
v -0.535795 -0.046900 0.402662
v -0.538747 -0.046663 0.403728
v -0.537219 -0.047883 0.407397
v -0.536467 -0.047406 0.404914
v -0.539787 -0.047035 0.405264
v -0.540652 -0.047529 0.407075
v -0.541147 -0.048195 0.409037
v -0.538092 -0.048622 0.409996
v -0.541297 -0.048883 0.410978
f 1 2 3
f 1 3 4
f 5 1 4
f 5 4 6
f 7 5 6
f 7 6 8
f 9 10 11
f 9 11 12
f 13 9 12
f 13 12 14
f 15 11 10
f 15 10 16
f 16 7 8
f 16 8 15
f 17 18 19
f 17 19 20
f 21 22 23
f 21 23 24
f 25 26 22
f 25 22 21
f 27 28 26
f 27 26 25
f 29 30 28
f 29 28 27
f 31 32 30
f 31 30 29
f 19 32 31
f 19 31 33
f 20 19 33
f 20 33 34
f 35 24 23
f 35 23 36
f 37 38 39
f 37 39 40
f 41 35 36
f 41 36 42
f 40 41 42
f 40 42 43
f 44 37 40
f 44 40 43
f 39 38 45
f 39 45 46
f 47 37 44
f 47 44 48
f 32 19 18
f 32 18 49
f 30 32 49
f 30 49 50
f 51 52 53
f 51 53 54
f 28 30 50
f 28 50 55
f 56 50 49
f 56 49 57
f 56 57 58
f 56 58 59
f 59 58 53
f 59 53 52
f 60 54 53
f 60 53 61
f 61 53 58
f 61 58 57
f 61 57 49
f 61 49 62
f 61 62 63
f 61 63 60
f 62 49 18
f 62 18 63
f 64 65 54
f 64 54 60
f 66 63 18
f 66 18 17
f 64 60 63
f 64 63 66
f 67 47 48
f 67 48 68
f 69 67 68
f 69 68 70
f 71 72 73
f 71 73 74
f 71 74 46
f 71 46 45
f 75 38 37
f 75 37 47
f 75 76 72
f 75 72 71
f 75 71 45
f 75 45 38
f 77 78 76
f 77 76 75
f 77 75 47
f 77 47 67
f 79 78 77
f 79 77 80
f 80 77 67
f 80 67 69
f 55 50 56
f 55 56 81
f 26 28 55
f 26 55 82
f 83 82 55
f 83 55 81
f 84 22 26
f 84 26 82
f 81 56 59
f 81 59 85
f 59 52 86
f 59 86 85
f 87 13 14
f 87 14 88
f 89 86 52
f 89 52 51
f 88 86 89
f 88 89 87
f 51 54 65
f 51 65 89
f 90 23 22
f 90 22 84
f 91 84 82
f 91 82 83
f 70 68 92
f 70 92 93
f 92 68 48
f 92 48 94
f 95 90 84
f 95 84 91
f 96 93 92
f 96 92 95
f 94 48 44
f 94 44 97
f 43 42 98
f 43 98 99
f 97 44 43
f 97 43 99
f 100 36 23
f 100 23 90
f 98 42 36
f 98 36 100
f 101 99 98
f 101 98 100
f 102 94 97
f 102 97 103
f 95 92 94
f 95 94 102
f 100 90 95
f 100 95 102
f 103 101 100
f 103 100 102
f 103 97 99
f 103 99 101
f 39 46 104
f 39 104 105
f 105 41 40
f 105 40 39
f 35 41 105
f 35 105 106
f 107 24 35
f 107 35 106
f 108 21 24
f 108 24 107
f 25 21 108
f 25 108 109
f 27 25 109
f 27 109 110
f 29 27 110
f 29 110 111
f 31 29 111
f 31 111 112
f 33 31 112
f 33 112 113
f 34 33 113
f 34 113 114
f 74 73 115
f 74 115 116
f 104 46 74
f 104 74 116
f 72 76 117
f 72 117 118
f 73 72 118
f 73 118 119
f 117 17 20
f 117 20 118
f 120 89 65
f 120 65 121
f 122 79 123
f 122 123 121
f 124 66 17
f 124 17 117
f 122 64 66
f 122 66 124
f 124 117 76
f 124 76 78
f 124 78 79
f 124 79 122
f 121 65 64
f 121 64 122
f 118 20 34
f 118 34 119
f 125 115 73
f 125 73 119
f 119 34 114
f 119 114 125
f 126 87 89
f 126 89 120
f 127 13 87
f 127 87 126
f 128 9 13
f 128 13 127
f 129 10 9
f 129 9 128
f 130 16 10
f 130 10 129
f 131 7 16
f 131 16 130
f 132 5 7
f 132 7 131
f 133 1 5
f 133 5 132
f 134 2 1
f 134 1 133
f 83 81 85
f 83 85 135
f 136 85 86
f 136 86 88
f 91 83 135
f 91 135 137
f 96 95 91
f 96 91 137
f 138 93 96
f 138 96 137
f 70 93 138
f 70 138 139
f 69 70 139
f 69 139 140
f 80 69 140
f 80 140 141
f 141 123 79
f 141 79 80
f 120 121 123
f 120 123 142
f 143 136 88
f 143 88 14
f 144 137 135
f 144 135 145
f 145 135 85
f 145 85 136
f 146 143 14
f 146 14 12
f 145 136 143
f 145 143 147
f 148 144 145
f 148 145 147
f 138 137 144
f 138 144 149
f 139 138 149
f 139 149 150
f 149 144 148
f 149 148 151
f 140 139 150
f 140 150 152
f 153 150 149
f 153 149 151
f 142 123 141
f 142 141 154
f 141 140 152
f 141 152 154
f 155 152 150
f 155 150 153
f 156 154 152
f 156 152 155
f 126 120 142
f 126 142 157
f 157 142 154
f 157 154 156
f 127 126 157
f 127 157 158
f 128 127 158
f 128 158 159
f 158 157 156
f 158 156 160
f 160 156 155
f 160 155 161
f 161 155 153
f 161 153 162
f 162 153 151
f 162 151 163
f 163 151 148
f 163 148 164
f 165 164 148
f 165 148 147
f 147 143 146
f 147 146 165
f 166 146 12
f 166 12 11
f 167 165 146
f 167 146 166
f 168 166 11
f 168 11 15
f 169 164 165
f 169 165 167
f 170 159 158
f 170 158 160
f 171 172 162
f 171 162 163
f 173 174 172
f 173 172 171
f 171 163 164
f 171 164 169
f 171 169 175
f 171 175 173
f 176 174 173
f 176 173 177
f 178 174 176
f 178 176 179
f 180 170 160
f 180 160 161
f 180 161 162
f 180 162 172
f 180 172 174
f 180 174 178
f 129 128 159
f 129 159 181
f 181 159 170
f 181 170 182
f 182 170 180
f 182 180 178
f 130 129 181
f 130 181 183
f 184 182 178
f 184 178 179
f 131 130 183
f 131 183 185
f 183 181 182
f 183 182 184
f 186 176 177
f 186 177 187
f 188 189 190
f 188 190 191
f 192 186 190
f 192 190 193
f 190 186 187
f 190 187 191
f 192 179 176
f 192 176 186
f 190 189 194
f 190 194 193
f 132 131 185
f 132 185 195
f 196 184 179
f 196 179 192
f 185 183 184
f 185 184 196
f 175 169 167
f 175 167 197
f 197 167 166
f 197 166 168
f 177 173 175
f 177 175 198
f 199 168 15
f 199 15 8
f 200 198 175
f 200 175 197
f 200 197 168
f 200 168 199
f 201 199 8
f 201 8 6
f 202 198 200
f 202 200 203
f 187 177 198
f 187 198 202
f 203 200 199
f 203 199 201
f 204 201 6
f 204 6 4
f 205 191 187
f 205 187 202
f 206 203 201
f 206 201 204
f 205 202 203
f 205 203 206
f 207 204 4
f 207 4 3
f 208 188 191
f 208 191 205
f 208 205 206
f 208 206 209
f 209 206 204
f 209 204 207
f 196 192 193
f 196 193 210
f 195 185 196
f 195 196 210
f 133 132 195
f 133 195 211
f 211 195 210
f 211 210 212
f 213 210 193
f 213 193 194
f 134 133 211
f 134 211 214
f 215 212 210
f 215 210 213
f 214 211 212
f 214 212 215
f 216 213 194
f 216 194 217
f 218 188 208
f 218 208 219
f 217 194 189
f 217 189 220
f 220 189 188
f 220 188 218
f 221 217 220
f 221 220 222
f 219 208 209
f 219 209 223
f 215 213 216
f 215 216 224
f 225 216 217
f 225 217 221
f 226 214 215
f 226 215 224
f 227 225 221
f 227 221 228
f 227 228 229
f 227 229 230
f 222 220 218
f 222 218 231
f 232 233 234
f 232 234 235
f 236 235 234
f 236 234 237
f 238 231 218
f 238 218 219
f 232 235 231
f 232 231 238
f 228 221 222
f 228 222 236
f 239 230 229
f 239 229 237
f 237 229 228
f 237 228 236
f 234 233 239
f 234 239 237
f 236 222 231
f 236 231 235
f 224 216 225
f 224 225 240
f 240 225 227
f 240 227 241
f 241 227 230
f 241 230 242
f 243 240 241
f 243 241 244
f 245 244 241
f 245 241 242
f 242 230 239
f 242 239 246
f 246 239 233
f 246 233 247
f 247 233 232
f 247 232 248
f 248 232 238
f 248 238 249
f 238 219 223
f 238 223 249
f 223 209 207
f 223 207 250
f 251 244 245
f 251 245 252
f 253 243 244
f 253 244 251
f 251 252 254
f 251 254 255
f 256 254 252
f 256 252 257
f 257 252 245
f 257 245 258
f 258 245 242
f 258 242 259
f 260 259 242
f 260 242 246
f 261 260 246
f 261 246 262
f 250 207 3
f 250 3 263
f 264 249 223
f 264 223 250
f 265 248 249
f 265 249 264
f 266 247 248
f 266 248 265
f 266 262 246
f 266 246 247
f 267 268 256
f 267 256 257
f 269 267 257
f 269 257 258
f 270 269 258
f 270 258 259
f 270 259 260
f 270 260 271
f 272 271 260
f 272 260 261
f 273 270 271
f 273 271 272
f 263 3 2
f 263 2 274
f 264 250 263
f 264 263 275
f 265 264 275
f 265 275 276
f 266 265 276
f 266 276 277
f 278 262 266
f 278 266 277
f 275 263 274
f 275 274 279
f 280 134 214
f 280 214 226
f 280 274 2
f 280 2 134
f 226 224 240
f 226 240 281
f 282 280 226
f 282 226 281
f 282 279 274
f 282 274 280
f 283 281 240
f 283 240 243
f 276 275 279
f 276 279 284
f 285 284 279
f 285 279 282
f 285 282 281
f 285 281 283
f 277 276 284
f 277 284 286
f 253 251 255
f 253 255 287
f 288 283 243
f 288 243 253
f 288 253 287
f 288 287 289
f 290 285 283
f 290 283 288
f 255 254 291
f 255 291 292
f 289 287 255
f 289 255 292
f 291 254 256
f 291 256 293
f 294 293 256
f 294 256 268
f 290 288 289
f 290 289 295
f 296 284 285
f 296 285 290
f 297 286 284
f 297 284 296
f 296 290 295
f 296 295 298
f 297 296 298
f 297 298 299
f 300 297 299
f 300 299 301
f 302 286 297
f 302 297 300
f 278 277 286
f 278 286 302
f 303 261 262
f 303 262 278
f 304 269 270
f 304 270 273
f 305 267 269
f 305 269 304
f 306 268 267
f 306 267 305
f 303 278 302
f 303 302 307
f 308 273 272
f 308 272 309
f 309 272 261
f 309 261 303
f 307 302 300
f 307 300 310
f 310 300 301
f 310 301 311
f 312 306 305
f 312 305 313
f 314 315 312
f 314 312 313
f 314 310 311
f 314 311 315
f 316 308 309
f 316 309 317
f 304 273 308
f 304 308 316
f 313 305 304
f 313 304 316
f 317 314 313
f 317 313 316
f 317 307 310
f 317 310 314
f 309 303 307
f 309 307 317
f 318 294 268
f 318 268 306
f 318 306 312
f 318 312 319
f 320 311 301
f 320 301 321
f 321 301 299
f 321 299 322
f 322 299 298
f 322 298 323
f 323 298 295
f 323 295 324
f 325 292 291
f 325 291 326
f 324 295 289
f 324 289 327
f 327 289 292
f 327 292 325
f 327 325 326
f 327 326 328
f 329 324 327
f 329 327 328
f 330 323 324
f 330 324 329
f 331 322 323
f 331 323 330
f 332 321 322
f 332 322 331
f 333 315 311
f 333 311 320
f 319 312 315
f 319 315 333
f 334 320 321
f 334 321 332
f 335 336 319
f 335 319 333
f 335 333 320
f 335 320 334
f 337 318 319
f 337 319 336
f 337 336 335
f 337 335 338
f 328 326 339
f 328 339 340
f 341 329 328
f 341 328 340
f 339 326 291
f 339 291 342
f 343 340 339
f 343 339 342
f 342 291 293
f 342 293 344
f 345 294 318
f 345 318 337
f 344 293 294
f 344 294 345
f 338 335 334
f 338 334 346
f 347 341 340
f 347 340 343
f 330 329 341
f 330 341 347
f 331 330 347
f 331 347 348
f 348 347 343
f 348 343 349
f 349 343 342
f 349 342 344
f 332 331 348
f 332 348 350
f 350 348 349
f 350 349 351
f 346 334 332
f 346 332 350
f 351 338 346
f 351 346 350
f 351 349 344
f 351 344 345
f 351 345 337
f 351 337 338
f 352 107 106
f 352 106 353
f 353 106 105
f 353 105 354
f 354 105 104
f 354 104 355
f 355 104 116
f 355 116 356
f 356 116 115
f 356 115 357
f 357 115 125
f 357 125 358
f 358 125 114
f 358 114 359
f 359 114 113
f 359 113 360
f 360 113 112
f 360 112 361
f 361 112 111
f 361 111 362
f 362 111 110
f 362 110 363
f 363 110 109
f 363 109 364
f 364 109 108
f 364 108 365
f 108 107 352
f 108 352 365
f 366 367 353
f 366 353 354
f 366 354 355
f 366 355 368
f 369 352 353
f 369 353 367
f 370 369 367
f 370 367 366
f 371 365 352
f 371 352 369
f 372 368 355
f 372 355 356
f 372 356 357
f 372 357 373
f 374 373 357
f 374 357 358
f 370 366 368
f 370 368 375
f 376 375 368
f 376 368 372
f 376 372 373
f 376 373 374
f 377 359 360
f 377 360 378
f 377 374 358
f 377 358 359
f 379 375 376
f 379 376 380
f 380 377 378
f 380 378 381
f 381 378 360
f 381 360 361
f 381 361 362
f 381 362 382
f 381 382 379
f 381 379 380
f 376 374 377
f 376 377 380
f 383 382 362
f 383 362 363
f 384 370 375
f 384 375 379
f 385 383 363
f 385 363 364
f 371 384 383
f 371 383 385
f 385 364 365
f 385 365 371
f 384 371 369
f 384 369 370
f 384 379 382
f 384 382 383
