# Cuboid_R rest
v -0.138772 -1.332258 0.061469
v -0.142607 -1.332382 0.053130
v -0.143115 -1.336298 0.044730
v -0.139782 -1.339717 0.058164
v -0.141162 -1.345936 0.057255
v -0.142946 -1.342103 0.047290
v -0.135523 -1.342638 0.069579
v -0.135766 -1.336527 0.067756
v -0.138295 -1.346688 0.066326
v -0.130496 -1.333802 0.061681
v -0.130124 -1.341804 0.064433
v -0.133078 -1.345254 0.059816
v -0.136066 -1.343863 0.051077
v -0.139080 -1.339640 0.039688
v -0.138753 -1.332818 0.035547
v -0.137849 -1.328360 0.043542
v -0.133338 -1.328040 0.056592
v -0.124909 -1.329815 0.058124
v -0.124077 -1.336359 0.059150
v -0.127155 -1.320933 0.048435
v -0.126312 -1.343481 0.057791
v -0.121457 -1.339104 0.054066
v -0.129342 -1.344306 0.053161
v -0.132160 -1.342612 0.045877
v -0.135367 -1.339508 0.035200
v -0.136754 -1.333319 0.026298
v -0.132018 -1.327759 0.025017
v -0.131725 -1.331089 0.023524
v -0.132513 -1.323330 0.033191
v -0.115331 -1.334072 0.041972
v -0.115996 -1.329985 0.043670
v -0.119515 -1.326254 0.048099
v -0.120508 -1.317959 0.040600
v -0.116241 -1.315707 0.030004
v -0.113823 -1.321194 0.032595
v -0.110373 -1.323405 0.024388
v -0.111714 -1.329006 0.022656
v -0.125721 -1.326440 0.022787
v -0.125513 -1.330948 0.025400
v -0.118317 -1.329857 0.022699
v -0.119029 -1.325220 0.022370
v -0.110621 -1.320399 0.012136
v -0.111234 -1.325428 0.011088
v -0.130710 -1.336135 0.028721
v -0.126197 -1.337492 0.035068
v -0.123570 -1.338651 0.042854
v -0.117568 -1.335313 0.036351
v -0.117849 -1.332950 0.027084
v -0.114001 -1.318609 0.020008
v -0.118974 -1.318912 0.018064
v -0.125780 -1.318973 0.016231
v -0.116637 -1.312508 0.019152
v -0.119705 -1.311942 0.012740
v -0.126478 -1.317615 0.031099
v -0.123202 -1.315099 0.026803
v -0.128362 -1.318209 0.026393
v -0.124915 -1.313786 0.014790
v -0.138833 -1.343797 0.063145
v -0.141945 -1.341051 0.052110
v -0.141040 -1.335227 0.054380
v -0.137294 -1.337803 0.064123
v -0.134766 -1.332192 0.065016
v -0.132992 -1.339215 0.069979
v -0.134559 -1.346391 0.069354
v -0.138707 -1.347195 0.059998
v -0.141589 -1.344588 0.049582
v -0.142315 -1.338264 0.041163
v -0.142993 -1.332475 0.045048
v -0.139512 -1.329303 0.054853
v -0.127481 -1.335581 0.060710
v -0.121427 -1.331393 0.055030
v -0.138289 -1.336630 0.033885
v -0.135012 -1.331001 0.027250
v -0.133943 -1.334738 0.024717
v -0.135749 -1.341677 0.043019
v -0.128265 -1.333689 0.025738
v -0.132767 -1.344398 0.052745
v -0.129712 -1.344159 0.059434
v -0.125349 -1.340559 0.060154
v -0.119706 -1.335607 0.051796
v -0.125120 -1.341616 0.052015
v -0.131138 -1.338875 0.036356
v -0.127948 -1.340460 0.044890
v -0.119187 -1.337795 0.043879
v -0.121789 -1.333206 0.026734
v -0.114917 -1.333060 0.032554
v -0.121275 -1.336119 0.035429
v -0.113719 -1.329520 0.019251
v -0.111634 -1.328584 0.030937
v -0.115242 -1.325490 0.039372
v -0.108897 -1.323229 0.013840
v -0.114789 -1.325408 0.018092
v -0.122373 -1.328658 0.024932
v -0.128606 -1.328977 0.023565
v -0.111548 -1.319942 0.022276
v -0.115691 -1.320777 0.018552
v -0.129151 -1.328632 0.058544
v -0.122678 -1.323757 0.050372
v -0.116891 -1.320406 0.038843
v -0.113777 -1.316000 0.024059
v -0.135560 -1.328010 0.034256
v -0.132672 -1.325389 0.045611
v -0.118959 -1.315003 0.030088
v -0.124052 -1.317495 0.038644
v -0.117037 -1.315441 0.016226
v -0.129052 -1.320385 0.036186
v -0.122414 -1.322554 0.019865
v -0.121964 -1.315828 0.013287
v -0.129623 -1.323760 0.022249
v -0.128758 -1.318065 0.022747
v -0.125821 -1.316047 0.024788
v -0.121305 -1.312615 0.018402
v -0.140713 -1.332330 0.057283
v -0.143050 -1.334524 0.049174
v -0.138979 -1.335879 0.059285
v -0.141670 -1.338100 0.051741
v -0.140555 -1.342858 0.057840
v -0.142677 -1.339184 0.045859
v -0.142402 -1.344105 0.052653
v -0.137296 -1.334427 0.064569
v -0.137737 -1.341236 0.064158
v -0.135568 -1.339605 0.068599
v -0.136927 -1.344669 0.067960
v -0.139802 -1.346450 0.061864
v -0.133551 -1.335470 0.067965
v -0.130109 -1.337871 0.064067
v -0.133277 -1.343107 0.070083
v -0.131216 -1.344077 0.063071
v -0.137357 -1.347786 0.064798
v -0.134540 -1.344811 0.055410
v -0.140095 -1.346270 0.055439
v -0.137611 -1.342172 0.045342
v -0.142221 -1.341699 0.043593
v -0.139575 -1.336162 0.036952
v -0.142375 -1.335299 0.041102
v -0.138537 -1.330018 0.038468
v -0.141888 -1.330134 0.050627
v -0.135671 -1.327616 0.049744
v -0.137097 -1.330359 0.060426
v -0.131689 -1.331022 0.060677
v -0.127695 -1.331720 0.059166
v -0.130299 -1.324621 0.052780
v -0.124574 -1.333296 0.059215
v -0.127144 -1.339127 0.061797
v -0.125754 -1.325242 0.055444
v -0.128248 -1.342612 0.060974
v -0.122727 -1.337797 0.056830
v -0.123771 -1.341561 0.056242
v -0.127761 -1.344108 0.055526
v -0.131201 -1.344651 0.056439
v -0.130749 -1.343583 0.049478
v -0.134175 -1.343409 0.048538
v -0.133750 -1.341078 0.040522
v -0.137214 -1.339563 0.037481
v -0.137080 -1.336436 0.028528
v -0.137466 -1.333234 0.031195
v -0.135527 -1.330231 0.030174
v -0.134265 -1.331915 0.024090
v -0.131851 -1.329224 0.023826
v -0.132768 -1.325154 0.028158
v -0.134709 -1.326487 0.038910
v -0.130561 -1.322545 0.041074
v -0.118613 -1.337049 0.048750
v -0.120910 -1.334006 0.054075
v -0.115029 -1.331871 0.042735
v -0.118419 -1.328891 0.048488
v -0.122115 -1.328112 0.054090
v -0.119935 -1.322157 0.044837
v -0.123884 -1.318825 0.044965
v -0.117912 -1.316995 0.035457
v -0.116594 -1.323743 0.040640
v -0.114386 -1.318607 0.031312
v -0.112306 -1.322072 0.029169
v -0.112496 -1.326433 0.033846
v -0.109732 -1.325491 0.021144
v -0.113200 -1.331507 0.032263
v -0.128672 -1.326825 0.022332
v -0.128684 -1.331030 0.024666
v -0.125822 -1.328791 0.024891
v -0.121958 -1.330575 0.024572
v -0.122639 -1.326198 0.023605
v -0.118857 -1.327913 0.023210
v -0.114968 -1.323193 0.017590
v -0.114524 -1.327798 0.017804
v -0.109792 -1.321793 0.009690
v -0.133039 -1.337935 0.031987
v -0.131066 -1.334009 0.025345
v -0.128400 -1.337075 0.031687
v -0.125045 -1.333443 0.025881
v -0.129386 -1.339733 0.040815
v -0.124903 -1.337934 0.038962
v -0.126720 -1.341238 0.048640
v -0.122298 -1.339867 0.048408
v -0.116438 -1.335298 0.039501
v -0.120560 -1.337088 0.039582
v -0.122083 -1.335167 0.031342
v -0.118079 -1.331714 0.024183
v -0.117687 -1.334163 0.031723
v -0.114019 -1.331199 0.024750
v -0.110842 -1.326878 0.014927
v -0.109541 -1.320858 0.016479
v -0.112737 -1.318981 0.025213
v -0.112273 -1.319578 0.017359
v -0.116518 -1.318805 0.019248
v -0.118692 -1.321817 0.019762
v -0.122212 -1.318901 0.016432
v -0.125682 -1.322767 0.019444
v -0.130305 -1.320883 0.024135
v -0.115856 -1.314374 0.025441
v -0.115085 -1.315183 0.018321
v -0.118148 -1.311805 0.015081
v -0.119093 -1.315563 0.014547
v -0.130438 -1.320815 0.029874
v -0.126756 -1.319426 0.041463
v -0.121420 -1.316101 0.034785
v -0.120262 -1.313640 0.023297
v -0.127431 -1.317892 0.028736
v -0.124890 -1.316310 0.029069
v -0.126760 -1.315877 0.020659
v -0.124240 -1.314260 0.020760
v -0.122197 -1.312511 0.012515
v -0.125377 -1.316189 0.014189
v -0.132196 -1.334721 0.064597
v -0.131716 -1.342489 0.067328
v -0.135297 -1.346465 0.062414
v -0.138117 -1.344971 0.053371
v -0.140507 -1.340547 0.042351
v -0.140395 -1.334064 0.038549
v -0.139992 -1.328964 0.046816
v -0.135212 -1.329226 0.058528
v -0.133275 -1.331675 0.062831
v -0.131648 -1.338599 0.066941
v -0.132886 -1.345265 0.066302
v -0.136655 -1.345930 0.057783
v -0.139636 -1.343220 0.047689
v -0.140828 -1.337286 0.039562
v -0.140911 -1.331118 0.041322
v -0.137607 -1.328308 0.052266
f 2 114 60
f 2 60 113
f 118 59 116
f 118 116 3
f 3 116 60
f 3 60 114
f 4 117 58
f 4 58 121
f 116 59 117
f 116 117 4
f 4 121 61
f 4 61 115
f 4 115 60
f 4 60 116
f 117 59 119
f 117 119 5
f 5 124 58
f 5 58 117
f 119 59 118
f 119 118 6
f 7 122 61
f 7 61 121
f 121 58 123
f 121 123 7
f 8 120 61
f 8 61 122
f 9 123 58
f 9 58 124
f 146 79 144
f 146 144 11
f 157 73 156
f 157 156 15
f 141 70 143
f 141 143 18
f 18 143 71
f 18 71 167
f 18 145 97
f 18 97 141
f 167 98 145
f 167 145 18
f 144 79 147
f 144 147 19
f 19 147 80
f 19 80 164
f 19 164 71
f 19 71 143
f 19 143 70
f 19 70 144
f 145 98 169
f 145 169 20
f 20 169 104
f 20 104 214
f 20 214 106
f 20 106 162
f 20 142 97
f 20 97 145
f 162 102 142
f 162 142 20
f 21 148 79
f 21 79 146
f 149 81 148
f 149 148 21
f 146 78 149
f 146 149 21
f 22 163 80
f 22 80 147
f 193 84 163
f 193 163 22
f 22 147 79
f 22 79 148
f 22 148 81
f 22 81 193
f 150 77 151
f 150 151 23
f 23 151 83
f 23 83 192
f 23 149 78
f 23 78 150
f 192 81 149
f 192 149 23
f 152 75 153
f 152 153 24
f 24 153 82
f 24 82 190
f 24 151 77
f 24 77 152
f 190 83 151
f 190 151 24
f 154 72 155
f 154 155 25
f 25 155 74
f 25 74 186
f 25 186 82
f 25 82 153
f 25 153 75
f 25 75 154
f 156 73 158
f 156 158 26
f 26 158 74
f 26 74 155
f 26 155 72
f 26 72 156
f 27 159 73
f 27 73 157
f 177 94 159
f 177 159 27
f 157 101 160
f 157 160 27
f 27 160 109
f 27 109 177
f 28 178 76
f 28 76 187
f 159 94 178
f 159 178 28
f 28 187 74
f 28 74 158
f 28 158 73
f 28 73 159
f 161 102 162
f 161 162 29
f 29 162 106
f 29 106 213
f 29 213 110
f 29 110 208
f 29 160 101
f 29 101 161
f 208 109 160
f 208 160 29
f 30 165 80
f 30 80 163
f 176 89 165
f 176 165 30
f 194 86 176
f 194 176 30
f 163 84 194
f 163 194 30
f 31 166 71
f 31 71 164
f 174 90 166
f 174 166 31
f 165 89 174
f 165 174 31
f 31 164 80
f 31 80 165
f 32 168 98
f 32 98 167
f 171 99 168
f 171 168 32
f 166 90 171
f 166 171 32
f 167 71 166
f 167 166 32
f 168 99 170
f 168 170 33
f 33 170 103
f 33 103 215
f 33 215 104
f 33 104 169
f 169 98 168
f 169 168 33
f 170 99 172
f 170 172 34
f 34 172 100
f 34 100 209
f 34 209 103
f 34 103 170
f 171 90 173
f 171 173 35
f 35 173 95
f 35 95 202
f 35 202 100
f 35 100 172
f 172 99 171
f 172 171 35
f 174 89 175
f 174 175 36
f 36 175 91
f 36 91 201
f 36 201 95
f 36 95 173
f 36 173 90
f 36 90 174
f 176 86 199
f 176 199 37
f 37 199 88
f 37 88 200
f 37 175 89
f 37 89 176
f 200 91 175
f 200 175 37
f 181 93 179
f 181 179 38
f 38 179 94
f 38 94 177
f 207 107 181
f 207 181 38
f 177 109 207
f 177 207 38
f 39 180 85
f 39 85 189
f 179 93 180
f 179 180 39
f 39 189 76
f 39 76 178
f 39 178 94
f 39 94 179
f 40 182 92
f 40 92 184
f 180 93 182
f 180 182 40
f 40 184 88
f 40 88 197
f 40 197 85
f 40 85 180
f 41 183 92
f 41 92 182
f 205 96 183
f 205 183 41
f 181 107 205
f 181 205 41
f 182 93 181
f 182 181 41
f 201 91 185
f 201 185 42
f 42 185 92
f 42 92 183
f 42 203 95
f 42 95 201
f 183 96 203
f 183 203 42
f 43 200 88
f 43 88 184
f 185 91 200
f 185 200 43
f 43 184 92
f 43 92 185
f 187 76 188
f 187 188 44
f 44 188 82
f 44 82 186
f 44 186 74
f 44 74 187
f 45 190 82
f 45 82 188
f 191 83 190
f 191 190 45
f 196 87 191
f 196 191 45
f 189 85 196
f 189 196 45
f 45 188 76
f 45 76 189
f 193 81 192
f 193 192 46
f 46 192 83
f 46 83 191
f 195 84 193
f 195 193 46
f 191 87 195
f 191 195 46
f 47 194 84
f 47 84 195
f 198 86 194
f 198 194 47
f 47 195 87
f 47 87 198
f 199 86 198
f 199 198 48
f 48 198 87
f 48 87 196
f 48 196 85
f 48 85 197
f 48 197 88
f 48 88 199
f 203 96 204
f 203 204 49
f 49 204 105
f 49 105 210
f 49 210 100
f 49 100 202
f 49 202 95
f 49 95 203
f 205 107 206
f 205 206 50
f 50 206 108
f 50 108 212
f 50 212 105
f 50 105 204
f 50 204 96
f 50 96 205
f 207 109 208
f 207 208 51
f 51 208 110
f 51 110 222
f 51 206 107
f 51 107 207
f 222 108 206
f 222 206 51
f 210 105 211
f 210 211 52
f 52 211 112
f 52 112 216
f 52 216 103
f 52 103 209
f 52 209 100
f 52 100 210
f 212 108 221
f 212 221 53
f 53 221 112
f 53 112 211
f 53 211 105
f 53 105 212
f 54 217 106
f 54 106 214
f 218 111 217
f 218 217 54
f 54 214 104
f 54 104 218
f 55 218 104
f 55 104 215
f 220 111 218
f 220 218 55
f 216 112 220
f 216 220 55
f 55 215 103
f 55 103 216
f 56 219 110
f 56 110 213
f 217 111 219
f 217 219 56
f 56 213 106
f 56 106 217
f 221 108 222
f 221 222 57
f 57 222 110
f 57 110 219
f 57 219 111
f 57 111 220
f 57 220 112
f 57 112 221
f 115 1 113
f 115 113 60
f 120 1 115
f 120 115 61
f 125 8 122
f 125 122 63
f 62 120 8
f 62 8 125
f 127 7 123
f 127 123 64
f 63 122 7
f 63 7 127
f 129 9 124
f 129 124 65
f 64 123 9
f 64 9 129
f 65 124 5
f 65 5 131
f 131 5 119
f 131 119 66
f 66 119 6
f 66 6 133
f 133 6 118
f 133 118 67
f 135 3 114
f 135 114 68
f 67 118 3
f 67 3 135
f 137 2 113
f 137 113 69
f 68 114 2
f 68 2 137
f 139 69 113
f 139 113 1
f 1 120 62
f 1 62 139
f 231 223 10
f 231 10 140
f 232 224 11
f 232 11 126
f 97 142 17
f 97 17 140
f 140 17 230
f 140 230 231
f 140 10 141
f 140 141 97
f 231 62 125
f 231 125 223
f 230 139 62
f 230 62 231
f 232 63 127
f 232 127 224
f 70 141 10
f 70 10 126
f 126 10 223
f 126 223 232
f 126 11 144
f 126 144 70
f 233 225 12
f 233 12 128
f 223 125 63
f 223 63 232
f 233 64 129
f 233 129 225
f 78 146 11
f 78 11 128
f 128 11 224
f 128 224 233
f 128 12 150
f 128 150 78
f 234 226 13
f 234 13 130
f 224 127 64
f 224 64 233
f 234 65 131
f 234 131 226
f 77 150 12
f 77 12 130
f 130 12 225
f 130 225 234
f 130 13 152
f 130 152 77
f 235 227 14
f 235 14 132
f 225 129 65
f 225 65 234
f 235 66 133
f 235 133 227
f 75 152 13
f 75 13 132
f 132 13 226
f 132 226 235
f 132 14 154
f 132 154 75
f 236 228 15
f 236 15 134
f 226 131 66
f 226 66 235
f 236 67 135
f 236 135 228
f 72 154 14
f 72 14 134
f 134 14 227
f 134 227 236
f 134 15 156
f 134 156 72
f 237 229 16
f 237 16 136
f 227 133 67
f 227 67 236
f 237 68 137
f 237 137 229
f 101 157 15
f 101 15 136
f 136 15 228
f 136 228 237
f 136 16 161
f 136 161 101
f 238 230 17
f 238 17 138
f 228 135 68
f 228 68 237
f 229 137 69
f 229 69 238
f 102 161 16
f 102 16 138
f 138 16 229
f 138 229 238
f 138 17 142
f 138 142 102
f 238 69 139
f 238 139 230
