# Femur_L rest
v 0.113094 -0.495852 -0.009733
v 0.112647 -0.500111 -0.010531
v 0.117925 -0.501242 -0.011238
v 0.118685 -0.497001 -0.010608
v 0.111137 -0.505017 -0.011394
v 0.116231 -0.505219 -0.011634
v 0.106796 -0.510027 -0.012117
v 0.113041 -0.510848 -0.012490
v 0.133447 -0.492215 -0.011589
v 0.132414 -0.487683 -0.009224
v 0.129640 -0.489788 -0.007694
v 0.130324 -0.494145 -0.009463
v 0.129185 -0.498198 -0.012035
v 0.132138 -0.496984 -0.014774
v 0.127242 -0.502792 -0.014963
v 0.129900 -0.502810 -0.018066
v 0.125147 -0.508885 -0.016514
v 0.127091 -0.508920 -0.019449
v 0.123503 -0.517367 -0.016811
v 0.125617 -0.517251 -0.020352
v 0.102452 -0.515964 -0.012939
v 0.109986 -0.517098 -0.012807
v 0.096787 -0.476799 -0.004311
v 0.096083 -0.476220 -0.003779
v 0.092015 -0.481846 -0.002561
v 0.092473 -0.482718 -0.003012
v 0.091566 -0.481147 -0.001179
v 0.086482 -0.486044 -0.002102
v 0.087413 -0.486474 -0.003804
v 0.095547 -0.475255 -0.002768
v 0.081537 -0.490679 -0.005467
v 0.083118 -0.490356 -0.007079
v 0.077203 -0.494003 -0.010595
v 0.079264 -0.493664 -0.011404
v 0.075330 -0.495033 -0.017939
v 0.076977 -0.494348 -0.018081
v 0.076094 -0.494500 -0.025009
v 0.077938 -0.493747 -0.024266
v 0.080748 -0.491937 -0.031646
v 0.082412 -0.491409 -0.030109
v 0.085200 -0.486518 -0.036492
v 0.086707 -0.486746 -0.034735
v 0.088131 -0.479647 -0.038513
v 0.089488 -0.480370 -0.037192
v 0.091186 -0.473823 -0.037446
v 0.092503 -0.475276 -0.036274
v 0.094720 -0.468861 -0.033197
v 0.095872 -0.470607 -0.032460
v 0.098035 -0.466632 -0.025801
v 0.098580 -0.468465 -0.025281
v 0.108923 -0.495041 -0.011793
v 0.113722 -0.490945 -0.009009
v 0.108900 -0.489746 -0.010733
v 0.088029 -0.486957 -0.004516
v 0.084168 -0.490473 -0.007522
v 0.080688 -0.493677 -0.011751
v 0.078181 -0.494637 -0.018177
v 0.078967 -0.493641 -0.024146
v 0.083267 -0.491317 -0.029694
v 0.087580 -0.486994 -0.033950
v 0.090331 -0.480652 -0.036527
v 0.093054 -0.475930 -0.035431
v 0.096423 -0.471789 -0.031915
v 0.098878 -0.469236 -0.025176
v 0.095582 -0.485079 -0.009026
v 0.098312 -0.480005 -0.009417
v 0.099754 -0.486873 -0.010746
v 0.102017 -0.481804 -0.011045
v 0.092420 -0.488429 -0.009779
v 0.086022 -0.492740 -0.018772
v 0.086877 -0.492206 -0.014986
v 0.085930 -0.492166 -0.022895
v 0.088009 -0.489855 -0.026873
v 0.090769 -0.486547 -0.029646
v 0.093322 -0.482700 -0.031183
v 0.095333 -0.479128 -0.030579
v 0.097487 -0.476045 -0.028021
v 0.098863 -0.474303 -0.023724
v 0.099074 -0.468928 -0.017384
v 0.099067 -0.474374 -0.017727
v 0.089257 -0.478282 0.002147
v 0.093155 -0.472708 -0.000317
v 0.082383 -0.484369 0.001462
v 0.076565 -0.489408 -0.002344
v 0.072000 -0.493377 -0.008731
v 0.069586 -0.495060 -0.017470
v 0.070500 -0.494233 -0.026846
v 0.075535 -0.490541 -0.034659
v 0.080460 -0.484551 -0.039157
v 0.084009 -0.477818 -0.040279
v 0.088085 -0.471270 -0.038766
v 0.091849 -0.465750 -0.034085
v 0.095636 -0.462610 -0.026413
v 0.096940 -0.462009 -0.017840
v 0.098737 -0.466342 -0.017568
v 0.086623 -0.467291 0.002115
v 0.083084 -0.472968 0.004680
v 0.076467 -0.479856 0.003694
v 0.070965 -0.484627 -0.000196
v 0.065627 -0.488451 -0.006713
v 0.062070 -0.489886 -0.016536
v 0.063388 -0.488920 -0.026209
v 0.068058 -0.485189 -0.034320
v 0.073381 -0.480137 -0.038637
v 0.077651 -0.473971 -0.039525
v 0.081404 -0.467242 -0.038148
v 0.084959 -0.461312 -0.033666
v 0.088810 -0.457276 -0.026453
v 0.090800 -0.456305 -0.016953
v 0.079828 -0.463816 0.001543
v 0.077087 -0.468741 0.003615
v 0.072036 -0.474017 0.002859
v 0.066747 -0.478588 -0.000466
v 0.061780 -0.482507 -0.006642
v 0.058414 -0.483296 -0.016306
v 0.059849 -0.481813 -0.024956
v 0.063972 -0.479647 -0.032419
v 0.068662 -0.475857 -0.036498
v 0.072231 -0.470707 -0.037413
v 0.075177 -0.464702 -0.035870
v 0.078534 -0.458767 -0.031450
v 0.081631 -0.454892 -0.025072
v 0.083293 -0.453910 -0.016033
v 0.072584 -0.465795 0.001460
v 0.075177 -0.461560 -0.000265
v 0.068306 -0.469751 0.000594
v 0.064389 -0.473663 -0.001786
v 0.059823 -0.476529 -0.007693
v 0.058001 -0.476664 -0.016807
v 0.059764 -0.475729 -0.023841
v 0.062197 -0.473503 -0.029406
v 0.065144 -0.471409 -0.032837
v 0.067981 -0.468141 -0.034054
v 0.070794 -0.463189 -0.032914
v 0.074101 -0.457873 -0.028961
v 0.076530 -0.454599 -0.023048
v 0.077843 -0.453727 -0.016111
v 0.097542 -0.472126 -0.007893
v 0.096582 -0.471240 -0.007096
v 0.096239 -0.469821 -0.006340
v 0.094181 -0.466903 -0.004325
v 0.097960 -0.467808 -0.011506
v 0.096236 -0.464332 -0.010569
v 0.098905 -0.468187 -0.017530
v 0.098333 -0.469570 -0.011965
v 0.098694 -0.470131 -0.012565
v 0.098963 -0.476560 -0.011465
v 0.099259 -0.475182 -0.014519
v 0.088883 -0.462290 -0.002667
v 0.090411 -0.458888 -0.008736
v 0.082343 -0.459285 -0.002764
v 0.083480 -0.456247 -0.008233
v 0.077435 -0.457820 -0.004285
v 0.077892 -0.455437 -0.009240
v 0.065165 -0.465637 -0.003005
v 0.068418 -0.462691 -0.002349
v 0.062429 -0.467655 -0.004922
v 0.059255 -0.469861 -0.009484
v 0.061119 -0.464678 -0.009085
v 0.058677 -0.471244 -0.017394
v 0.070752 -0.459773 -0.003561
v 0.071592 -0.457572 -0.006418
v 0.064157 -0.460432 -0.009199
v 0.072742 -0.455718 -0.010217
v 0.067925 -0.457484 -0.009711
v 0.071784 -0.454889 -0.016101
v 0.070476 -0.455825 -0.020897
v 0.068979 -0.457831 -0.024640
v 0.067220 -0.461075 -0.027838
v 0.066829 -0.457294 -0.016702
v 0.066457 -0.458526 -0.022162
v 0.064927 -0.465328 -0.029314
v 0.062742 -0.460855 -0.016875
v 0.059875 -0.465526 -0.016990
v 0.063176 -0.462453 -0.023306
v 0.060200 -0.471439 -0.022587
v 0.061471 -0.469981 -0.026130
v 0.060794 -0.467225 -0.023140
v 0.063040 -0.467736 -0.028358
v 0.102907 -0.493415 -0.011969
v 0.104081 -0.488440 -0.011252
v 0.109197 -0.498917 -0.012176
v 0.107703 -0.503158 -0.012883
v 0.103917 -0.507449 -0.013765
v 0.099691 -0.511862 -0.015657
v 0.098176 -0.514624 -0.017642
v 0.099631 -0.518461 -0.015924
v 0.102542 -0.497010 -0.012652
v 0.101624 -0.500516 -0.013540
v 0.099935 -0.504678 -0.015009
v 0.097830 -0.508747 -0.017372
v 0.096890 -0.511054 -0.020087
v 0.089545 -0.490605 -0.011682
v 0.095903 -0.494989 -0.012859
v 0.097284 -0.491346 -0.011141
v 0.097167 -0.498375 -0.014159
v 0.091936 -0.495173 -0.015788
v 0.091055 -0.495141 -0.019509
v 0.091482 -0.494521 -0.022920
v 0.093183 -0.492275 -0.026368
v 0.095500 -0.488704 -0.028241
v 0.097832 -0.485321 -0.029142
v 0.099927 -0.482246 -0.028824
v 0.101636 -0.479315 -0.027160
v 0.103157 -0.477265 -0.023869
v 0.103449 -0.477259 -0.018563
v 0.103529 -0.477564 -0.015560
v 0.102990 -0.479039 -0.012658
v 0.105349 -0.482911 -0.011429
v 0.106489 -0.479404 -0.012375
v 0.110011 -0.482977 -0.010393
v 0.114415 -0.485168 -0.008132
v 0.117520 -0.481026 -0.006859
v 0.115326 -0.478118 -0.009155
v 0.122715 -0.479756 -0.006515
v 0.121653 -0.476863 -0.009174
v 0.127943 -0.509843 -0.024059
v 0.130850 -0.503028 -0.023947
v 0.126342 -0.517982 -0.024336
v 0.110516 -0.478561 -0.012066
v 0.107269 -0.477761 -0.016001
v 0.107129 -0.477974 -0.019646
v 0.106958 -0.479005 -0.024548
v 0.114571 -0.476961 -0.012429
v 0.110368 -0.477141 -0.016173
v 0.110594 -0.478069 -0.020361
v 0.097629 -0.502569 -0.016058
v 0.094297 -0.498377 -0.017297
v 0.095334 -0.500687 -0.018224
v 0.093818 -0.498098 -0.019937
v 0.096372 -0.505584 -0.019448
v 0.095988 -0.502220 -0.021237
v 0.094576 -0.497228 -0.023442
v 0.096788 -0.494516 -0.026434
v 0.099682 -0.490918 -0.027567
v 0.102022 -0.487613 -0.028053
v 0.103870 -0.484409 -0.027987
v 0.105572 -0.481397 -0.026809
v 0.096742 -0.508304 -0.022332
v 0.097840 -0.500083 -0.025049
v 0.098055 -0.505783 -0.024533
v 0.097062 -0.517473 -0.020544
v 0.096222 -0.519584 -0.023594
v 0.097372 -0.524550 -0.023493
v 0.098236 -0.521467 -0.019523
v 0.096703 -0.513578 -0.022668
v 0.096526 -0.516103 -0.025249
v 0.097769 -0.511001 -0.024904
v 0.098487 -0.513631 -0.027662
v 0.100348 -0.509537 -0.027313
v 0.101307 -0.512774 -0.030002
v 0.103950 -0.508322 -0.029004
v 0.105161 -0.512321 -0.033130
v 0.100445 -0.503751 -0.026628
v 0.100815 -0.497323 -0.027038
v 0.103788 -0.493729 -0.027859
v 0.103951 -0.501624 -0.028318
v 0.107787 -0.506105 -0.030128
v 0.109675 -0.508545 -0.033429
v 0.106151 -0.490182 -0.028323
v 0.107831 -0.498019 -0.029150
v 0.111458 -0.501621 -0.030832
v 0.112922 -0.503306 -0.034274
v 0.107990 -0.486623 -0.028478
v 0.110388 -0.493079 -0.029711
v 0.113521 -0.495520 -0.031701
v 0.114875 -0.496388 -0.035383
v 0.110560 -0.509316 -0.037612
v 0.106378 -0.513793 -0.037688
v 0.113058 -0.503698 -0.038715
v 0.114538 -0.495450 -0.040167
v 0.118272 -0.495839 -0.044080
v 0.116773 -0.505552 -0.042329
v 0.113908 -0.511933 -0.040814
v 0.127770 -0.510453 -0.029028
v 0.130756 -0.503422 -0.028827
v 0.127251 -0.510646 -0.033087
v 0.130469 -0.503014 -0.033589
v 0.125978 -0.518441 -0.027893
v 0.124700 -0.518744 -0.032033
v 0.110523 -0.479943 -0.025087
v 0.109429 -0.483057 -0.027501
v 0.112186 -0.488257 -0.029847
v 0.115279 -0.489528 -0.032337
v 0.113469 -0.484278 -0.028472
v 0.114299 -0.480073 -0.025341
v 0.114472 -0.477777 -0.020921
v 0.113933 -0.476189 -0.016451
v 0.118564 -0.474292 -0.017768
v 0.118336 -0.475497 -0.021996
v 0.117760 -0.478439 -0.027133
v 0.116981 -0.484223 -0.030235
v 0.115653 -0.489566 -0.035971
v 0.115671 -0.486488 -0.039515
v 0.115619 -0.480498 -0.034645
v 0.117530 -0.474680 -0.030013
v 0.119996 -0.471463 -0.024372
v 0.121349 -0.471080 -0.020096
v 0.124409 -0.470575 -0.018020
v 0.122288 -0.468668 -0.024950
v 0.119044 -0.484550 -0.043013
v 0.113994 -0.476758 -0.039151
v 0.117376 -0.470354 -0.033169
v 0.117516 -0.474064 -0.041817
v 0.108762 -0.517597 -0.040297
v 0.125431 -0.527615 -0.026670
v 0.123498 -0.527666 -0.030715
v 0.125506 -0.527326 -0.023390
v 0.124480 -0.527114 -0.019491
v 0.122687 -0.526771 -0.016175
v 0.103483 -0.525848 -0.012415
v 0.109004 -0.525974 -0.012296
v 0.100013 -0.526030 -0.014970
v 0.098937 -0.526581 -0.018620
v 0.099015 -0.528147 -0.021521
v 0.098591 -0.530309 -0.025675
v 0.099151 -0.530495 -0.024054
v 0.098432 -0.534342 -0.029202
v 0.099099 -0.533954 -0.025199
v 0.098802 -0.533138 -0.021503
v 0.098940 -0.532389 -0.018121
v 0.100416 -0.532089 -0.014361
v 0.103860 -0.531862 -0.012027
v 0.109146 -0.532095 -0.011754
v 0.122104 -0.533218 -0.015523
v 0.124023 -0.533778 -0.019071
v 0.124866 -0.534356 -0.022643
v 0.124809 -0.534329 -0.026053
v 0.122740 -0.533214 -0.029730
v 0.095939 -0.518173 -0.028530
v 0.095509 -0.521071 -0.026824
v 0.097146 -0.516248 -0.030633
v 0.098911 -0.515473 -0.032774
v 0.100273 -0.515638 -0.035207
v 0.102103 -0.516640 -0.038153
v 0.104205 -0.519549 -0.040441
v 0.095998 -0.532269 -0.035327
v 0.098973 -0.531759 -0.038361
v 0.102136 -0.534772 -0.036118
v 0.099584 -0.535231 -0.033297
v 0.095486 -0.531690 -0.031075
v 0.095543 -0.524516 -0.026559
v 0.095880 -0.528467 -0.027646
v 0.093531 -0.527476 -0.037184
v 0.095157 -0.526881 -0.039643
v 0.092655 -0.526829 -0.034399
v 0.096777 -0.525394 -0.040818
v 0.102695 -0.529083 -0.040064
v 0.092819 -0.525438 -0.032815
v 0.093342 -0.525060 -0.037502
v 0.097923 -0.523012 -0.040849
v 0.104898 -0.524641 -0.040868
v 0.093045 -0.523775 -0.032284
v 0.093530 -0.522957 -0.037380
v 0.098092 -0.520795 -0.039946
v 0.093663 -0.521696 -0.032177
v 0.094023 -0.521160 -0.036991
v 0.097138 -0.519460 -0.038567
v 0.094485 -0.519989 -0.032739
v 0.094893 -0.518808 -0.034155
v 0.096252 -0.518586 -0.037093
v 0.095326 -0.518476 -0.035607
v 0.094610 -0.519751 -0.036485
v 0.123980 -0.844039 0.003556
v 0.125338 -0.841041 0.003257
v 0.120629 -0.838390 0.002218
v 0.120758 -0.843819 0.003003
v 0.099203 -0.599002 -0.021784
v 0.099051 -0.626739 -0.019180
v 0.097815 -0.626543 -0.015371
v 0.097711 -0.598816 -0.017879
v 0.101450 -0.599175 -0.025320
v 0.101073 -0.626954 -0.022702
v 0.104384 -0.599364 -0.027595
v 0.104225 -0.627159 -0.025577
v 0.117038 -0.599509 -0.027111
v 0.116683 -0.627490 -0.024074
v 0.113425 -0.627434 -0.026416
v 0.113451 -0.599472 -0.028429
v 0.120150 -0.599475 -0.024603
v 0.119099 -0.627480 -0.021621
v 0.122054 -0.599336 -0.021278
v 0.121011 -0.627406 -0.018857
v 0.122946 -0.599149 -0.017837
v 0.122199 -0.627279 -0.015648
v 0.122952 -0.598957 -0.014364
v 0.122542 -0.627112 -0.012139
v 0.122104 -0.598785 -0.011044
v 0.121778 -0.626916 -0.008618
v 0.120448 -0.598605 -0.007744
v 0.120032 -0.626719 -0.005322
v 0.101664 -0.598304 -0.006279
v 0.102002 -0.626114 -0.003789
v 0.105590 -0.626109 -0.001662
v 0.105255 -0.598215 -0.004211
v 0.099077 -0.598412 -0.008988
v 0.099206 -0.626197 -0.007028
v 0.097460 -0.598607 -0.013371
v 0.097721 -0.626350 -0.011127
v 0.100001 -0.654565 -0.016783
v 0.098950 -0.654393 -0.013049
v 0.101911 -0.654734 -0.020251
v 0.104757 -0.654870 -0.023283
v 0.117411 -0.654824 -0.021539
v 0.114445 -0.654907 -0.024285
v 0.119616 -0.654743 -0.019220
v 0.121503 -0.654632 -0.016642
v 0.122841 -0.654484 -0.013555
v 0.123352 -0.654321 -0.010039
v 0.122701 -0.654137 -0.006341
v 0.120755 -0.653978 -0.003021
v 0.102732 -0.653851 -0.001743
v 0.106246 -0.653747 0.000562
v 0.100139 -0.654007 -0.005033
v 0.098850 -0.654207 -0.009022
v 0.101242 -0.684468 -0.015196
v 0.100164 -0.684276 -0.011461
v 0.103007 -0.684557 -0.018429
v 0.105737 -0.684340 -0.021734
v 0.118220 -0.683336 -0.020447
v 0.115127 -0.683922 -0.023234
v 0.120414 -0.683171 -0.018276
v 0.122543 -0.682738 -0.015609
v 0.124325 -0.682418 -0.012137
v 0.124880 -0.682129 -0.008514
v 0.124185 -0.682056 -0.004401
v 0.122089 -0.682048 -0.000963
v 0.103337 -0.683684 -0.000309
v 0.106874 -0.683264 0.002223
v 0.100930 -0.683866 -0.003852
v 0.100089 -0.684133 -0.007960
v 0.101372 -0.719432 -0.015132
v 0.100109 -0.719265 -0.011159
v 0.103554 -0.719617 -0.018547
v 0.105940 -0.719863 -0.021043
v 0.119573 -0.719913 -0.020820
v 0.115984 -0.719980 -0.023182
v 0.122228 -0.719870 -0.018155
v 0.124310 -0.719817 -0.015228
v 0.125777 -0.719741 -0.011819
v 0.126346 -0.719630 -0.007957
v 0.125714 -0.719489 -0.003790
v 0.123326 -0.719347 -0.000034
v 0.104015 -0.718958 0.000888
v 0.107891 -0.718976 0.003142
v 0.101207 -0.719016 -0.002712
v 0.100089 -0.719127 -0.006963
v 0.126682 -0.747920 -0.003964
v 0.123924 -0.747806 -0.000216
v 0.127673 -0.779482 -0.004865
v 0.124646 -0.779784 -0.001315
v 0.127613 -0.748035 -0.008364
v 0.129236 -0.779418 -0.009614
v 0.127286 -0.748138 -0.012603
v 0.129317 -0.779371 -0.014567
v 0.125844 -0.748219 -0.016504
v 0.127880 -0.779352 -0.019314
v 0.123571 -0.748284 -0.019978
v 0.125138 -0.779367 -0.023692
v 0.120232 -0.748351 -0.023139
v 0.121182 -0.779323 -0.026245
v 0.116369 -0.748343 -0.024350
v 0.117176 -0.779554 -0.025723
v 0.103641 -0.748083 -0.019765
v 0.106580 -0.748310 -0.021966
v 0.102456 -0.779522 -0.021398
v 0.105959 -0.779641 -0.022576
v 0.100858 -0.747902 -0.016330
v 0.099699 -0.779416 -0.019235
v 0.099291 -0.747747 -0.011965
v 0.097497 -0.779467 -0.014258
v 0.100830 -0.747540 -0.002921
v 0.099399 -0.747630 -0.007354
v 0.099732 -0.779625 -0.004375
v 0.097923 -0.779547 -0.009058
v 0.103948 -0.747502 0.000760
v 0.108133 -0.747533 0.002699
v 0.112338 -0.527604 -0.037898
v 0.114657 -0.521055 -0.039501
v 0.117284 -0.523798 -0.037452
v 0.115769 -0.529714 -0.036053
v 0.120150 -0.525784 -0.035194
v 0.119092 -0.531481 -0.034032
v 0.115449 -0.539174 -0.033320
v 0.112229 -0.539105 -0.033642
v 0.103269 -0.779682 -0.000707
v 0.113522 -0.858076 -0.029017
v 0.114171 -0.854170 -0.034206
v 0.113977 -0.854114 -0.033993
v 0.114026 -0.859318 -0.028841
v 0.113458 -0.846577 -0.037732
v 0.113249 -0.846480 -0.037512
v 0.108852 -0.860867 -0.027913
v 0.111235 -0.860365 -0.026475
v 0.111325 -0.861579 -0.025409
v 0.108858 -0.862324 -0.026770
v 0.108397 -0.853386 -0.032551
v 0.107435 -0.861508 -0.029968
v 0.106896 -0.853766 -0.033175
v 0.109765 -0.853280 -0.031968
v 0.113783 -0.859948 -0.026891
v 0.114052 -0.860647 -0.026209
v 0.112325 -0.853615 -0.033164
v 0.138898 -0.832396 -0.038454
v 0.142243 -0.840581 -0.038614
v 0.142237 -0.840661 -0.040175
v 0.138692 -0.832378 -0.040529
v 0.143109 -0.848916 -0.039681
v 0.142594 -0.849596 -0.041114
v 0.142885 -0.854926 -0.035981
v 0.142092 -0.856572 -0.037135
v 0.144124 -0.844115 -0.034505
v 0.141603 -0.857987 -0.027147
v 0.140524 -0.859930 -0.027261
v 0.139707 -0.856981 -0.016176
v 0.138774 -0.858419 -0.016103
v 0.137820 -0.853097 -0.004664
v 0.136716 -0.854841 -0.003938
v 0.133342 -0.846960 0.001717
v 0.131815 -0.848258 0.002110
v 0.126311 -0.839809 0.003125
v 0.120717 -0.837278 0.001378
v 0.114864 -0.840481 0.000888
v 0.114695 -0.841064 0.001776
v 0.110992 -0.843794 0.002012
v 0.111885 -0.845608 0.003098
v 0.104496 -0.845931 0.003436
v 0.105426 -0.848038 0.004101
v 0.144576 -0.847681 -0.026015
v 0.143219 -0.846443 -0.015924
v 0.140671 -0.843294 -0.007885
v 0.136844 -0.839892 -0.002032
v 0.081297 -0.840544 -0.042373
v 0.080657 -0.840318 -0.041159
v 0.089162 -0.835270 -0.037740
v 0.089713 -0.835615 -0.039428
v 0.075629 -0.847498 -0.040745
v 0.075646 -0.847471 -0.039590
v 0.095795 -0.858819 -0.000136
v 0.094629 -0.857379 -0.000439
v 0.090897 -0.861978 -0.004982
v 0.092212 -0.863547 -0.005072
v 0.098914 -0.851238 0.003789
v 0.097257 -0.849778 0.002713
v 0.089528 -0.849993 -0.002226
v 0.084145 -0.853678 -0.007121
v 0.073614 -0.844056 -0.035792
v 0.077095 -0.838078 -0.037598
v 0.091232 -0.813180 -0.010514
v 0.095514 -0.813416 -0.004870
v 0.089080 -0.812796 -0.018447
v 0.092135 -0.812249 -0.027042
v 0.129361 -0.812007 -0.030956
v 0.133425 -0.811780 -0.026474
v 0.123273 -0.812850 -0.031818
v 0.118225 -0.813214 -0.031022
v 0.098369 -0.812812 -0.028974
v 0.102702 -0.813238 -0.029372
v 0.135553 -0.811989 -0.019859
v 0.138047 -0.820187 -0.021304
v 0.135598 -0.819436 -0.029686
v 0.135098 -0.812290 -0.012718
v 0.137181 -0.820707 -0.013674
v 0.132082 -0.812626 -0.005677
v 0.134343 -0.821042 -0.006750
v 0.127189 -0.812928 -0.000556
v 0.128706 -0.821676 -0.000692
v 0.140473 -0.840090 -0.044577
v 0.141917 -0.849902 -0.044933
v 0.136767 -0.833627 -0.044351
v 0.130354 -0.829961 -0.043834
v 0.131103 -0.827817 -0.040574
v 0.124600 -0.830206 -0.042904
v 0.124181 -0.828140 -0.039920
v 0.133693 -0.836159 -0.047337
v 0.129785 -0.834586 -0.047128
v 0.136451 -0.841511 -0.048056
v 0.130342 -0.842340 -0.049458
v 0.125085 -0.834380 -0.046218
v 0.118564 -0.834066 -0.042595
v 0.116849 -0.832714 -0.038686
v 0.120784 -0.836120 -0.045359
v 0.124803 -0.842233 -0.048717
v 0.115242 -0.841729 -0.042731
v 0.113228 -0.841211 -0.038765
v 0.118793 -0.842306 -0.046052
v 0.114722 -0.848024 -0.041509
v 0.124522 -0.850748 -0.047797
v 0.118353 -0.849685 -0.045118
v 0.116052 -0.857406 -0.037385
v 0.119826 -0.859542 -0.039321
v 0.117342 -0.862908 -0.027819
v 0.130162 -0.851117 -0.048681
v 0.124687 -0.860845 -0.040616
v 0.136768 -0.850891 -0.048137
v 0.140021 -0.859366 -0.039212
v 0.129642 -0.861369 -0.041167
v 0.135265 -0.860980 -0.040696
v 0.138490 -0.862970 -0.027529
v 0.115854 -0.863334 -0.023457
v 0.120763 -0.864512 -0.025951
v 0.124509 -0.865379 -0.026027
v 0.128756 -0.865784 -0.026463
v 0.111939 -0.864673 -0.021137
v 0.118917 -0.864536 -0.020674
v 0.121883 -0.865159 -0.018219
v 0.112595 -0.864988 -0.015990
v 0.108385 -0.866449 -0.023379
v 0.106155 -0.868982 -0.019615
v 0.113119 -0.863595 -0.010881
v 0.103695 -0.870067 -0.015976
v 0.098087 -0.873247 -0.022804
v 0.101627 -0.871871 -0.025716
v 0.132981 -0.865431 -0.026951
v 0.137257 -0.861545 -0.015432
v 0.125456 -0.865189 -0.016019
v 0.129550 -0.864582 -0.014599
v 0.133611 -0.857757 -0.002918
v 0.129409 -0.850358 0.002682
v 0.125185 -0.859783 -0.004609
v 0.101549 -0.870222 -0.012554
v 0.095015 -0.873605 -0.020473
v 0.099094 -0.860788 0.001101
v 0.095366 -0.866895 -0.004900
v 0.116658 -0.844677 0.003155
v 0.072927 -0.841715 -0.031682
v 0.072853 -0.849582 -0.032215
v 0.074681 -0.855139 -0.036317
v 0.074994 -0.855587 -0.036963
v 0.076675 -0.861070 -0.033193
v 0.076346 -0.860829 -0.032976
v 0.073462 -0.853505 -0.027318
v 0.075253 -0.857085 -0.040262
v 0.076380 -0.863280 -0.035191
v 0.091186 -0.837868 -0.043170
v 0.083718 -0.842150 -0.045585
v 0.096136 -0.837563 -0.041469
v 0.096989 -0.835237 -0.036551
v 0.077521 -0.848911 -0.045098
v 0.099354 -0.840810 -0.042169
v 0.101769 -0.839060 -0.035955
v 0.101596 -0.846443 -0.043202
v 0.103821 -0.845639 -0.036661
v 0.107334 -0.863347 -0.029422
v 0.105860 -0.863412 -0.033234
v 0.104338 -0.867848 -0.033845
v 0.102593 -0.866000 -0.039849
v 0.105307 -0.862774 -0.035887
v 0.104839 -0.869011 -0.028264
v 0.106282 -0.861598 -0.032826
v 0.105727 -0.861328 -0.035242
v 0.079194 -0.866066 -0.023741
v 0.085194 -0.866970 -0.013070
v 0.084059 -0.864961 -0.012550
v 0.078406 -0.864723 -0.023043
v 0.087596 -0.870997 -0.014509
v 0.080207 -0.870315 -0.026565
v 0.104836 -0.855279 -0.036790
v 0.104998 -0.854753 -0.035376
v 0.105668 -0.853994 -0.034018
v 0.103954 -0.845590 -0.035878
v 0.079938 -0.855478 -0.012454
v 0.074928 -0.854741 -0.019585
v 0.073109 -0.845321 -0.023801
v 0.100345 -0.871136 -0.034380
v 0.097499 -0.868022 -0.042050
v 0.095544 -0.873114 -0.033503
v 0.092342 -0.868715 -0.042775
v 0.090660 -0.873664 -0.031991
v 0.086480 -0.868661 -0.042201
v 0.085717 -0.873118 -0.029456
v 0.091901 -0.873033 -0.017727
v 0.099616 -0.869613 -0.009639
v 0.080320 -0.867237 -0.040001
v 0.079276 -0.859502 -0.044465
v 0.085024 -0.860685 -0.046614
v 0.081689 -0.851364 -0.047799
v 0.087231 -0.845446 -0.047783
v 0.091641 -0.860657 -0.047101
v 0.086361 -0.852918 -0.049033
v 0.097384 -0.859647 -0.045707
v 0.091725 -0.841766 -0.045911
v 0.091869 -0.853481 -0.049083
v 0.089664 -0.847853 -0.048611
v 0.097282 -0.843299 -0.045048
v 0.094950 -0.841646 -0.045091
v 0.092383 -0.844842 -0.047344
v 0.094959 -0.845376 -0.046943
v 0.093272 -0.849419 -0.048583
v 0.099048 -0.846425 -0.045414
v 0.096674 -0.853410 -0.047750
v 0.102360 -0.857431 -0.042547
v 0.098952 -0.850790 -0.046502
v 0.098501 -0.824090 -0.001667
v 0.099405 -0.813745 -0.001773
v 0.093405 -0.824071 -0.004611
v 0.104857 -0.813719 0.000696
v 0.107646 -0.779695 0.001092
v 0.104553 -0.824007 0.000359
v 0.101691 -0.854060 0.004010
v 0.106094 -0.862126 -0.001245
v 0.113633 -0.850233 0.002989
v 0.123062 -0.852871 0.001012
v 0.106524 -0.852410 0.003868
v 0.114655 -0.861060 -0.006687
v 0.098340 -0.830417 -0.000754
v 0.104748 -0.829438 0.000692
v 0.084955 -0.832695 -0.035442
v 0.076226 -0.834788 -0.030576
v 0.088672 -0.823177 -0.009998
v 0.085608 -0.821623 -0.019157
v 0.087719 -0.820883 -0.028432
v 0.080232 -0.830409 -0.020604
v 0.085404 -0.831800 -0.009298
v 0.081499 -0.829536 -0.029469
v 0.078197 -0.846979 -0.012723
v 0.081855 -0.845644 -0.007880
v 0.083208 -0.839019 -0.008200
v 0.078825 -0.841957 -0.012574
v 0.075552 -0.837574 -0.021778
v 0.075346 -0.846125 -0.017933
v 0.075458 -0.842067 -0.018291
v 0.095739 -0.821237 -0.032054
v 0.102041 -0.821999 -0.032004
v 0.123123 -0.821069 -0.033870
v 0.118649 -0.821891 -0.033199
v 0.129087 -0.819895 -0.033951
v 0.130593 -0.824389 -0.037064
v 0.123617 -0.825130 -0.036385
v 0.131637 -0.828009 -0.039539
v 0.124403 -0.827894 -0.039240
v 0.143376 -0.836997 -0.034147
v 0.144545 -0.839410 -0.024816
v 0.141403 -0.830466 -0.033598
v 0.142810 -0.832108 -0.023449
v 0.142513 -0.838672 -0.015284
v 0.139440 -0.827434 -0.014467
v 0.140620 -0.826232 -0.022436
v 0.140944 -0.832446 -0.014699
v 0.138532 -0.836702 -0.007015
v 0.136246 -0.827910 -0.007077
v 0.137263 -0.832095 -0.007027
v 0.132795 -0.834313 -0.000283
v 0.130227 -0.826662 -0.000468
v 0.131130 -0.829984 -0.000217
v 0.138610 -0.824549 -0.031562
v 0.118591 -0.827085 -0.035393
v 0.091087 -0.831275 -0.003798
v 0.090560 -0.829143 -0.034021
v 0.093913 -0.844570 -0.000028
v 0.089114 -0.839393 -0.003118
v 0.086750 -0.844784 -0.003723
v 0.108156 -0.840026 0.001895
v 0.114095 -0.837016 0.001596
v 0.100703 -0.841778 0.001827
v 0.098518 -0.837135 0.000191
v 0.105796 -0.835016 0.001319
v 0.121853 -0.832677 0.001746
v 0.124277 -0.499226 -0.012024
v 0.124474 -0.495911 -0.009775
v 0.124159 -0.491828 -0.007980
v 0.123043 -0.503397 -0.013743
v 0.119744 -0.509997 -0.014288
v 0.117648 -0.517278 -0.013989
v 0.116362 -0.526414 -0.013314
v 0.116212 -0.532671 -0.012487
v 0.118664 -0.492375 -0.009298
v 0.118614 -0.487923 -0.008014
v 0.120214 -0.485141 -0.006995
v 0.123523 -0.483409 -0.006224
v 0.123334 -0.488702 -0.007288
v 0.128525 -0.486042 -0.006519
v 0.126514 -0.483835 -0.006111
v 0.130814 -0.483298 -0.006933
v 0.127861 -0.480628 -0.006365
v 0.133603 -0.484760 -0.012320
v 0.131641 -0.480230 -0.009491
v 0.128234 -0.477123 -0.009441
v 0.131683 -0.476516 -0.014136
v 0.133976 -0.481584 -0.016349
v 0.121508 -0.474696 -0.012687
v 0.128031 -0.474512 -0.012923
v 0.133274 -0.478037 -0.021564
v 0.130982 -0.473767 -0.019109
v 0.128108 -0.471359 -0.018194
v 0.120692 -0.467897 -0.035028
v 0.126003 -0.468828 -0.025180
v 0.128871 -0.471047 -0.025592
v 0.125748 -0.470582 -0.033781
v 0.123373 -0.475317 -0.040635
v 0.116446 -0.598462 -0.004316
v 0.117074 -0.626512 -0.002615
v 0.110490 -0.598061 -0.003116
v 0.110725 -0.625980 -0.000664
v 0.117724 -0.653855 -0.000456
v 0.110918 -0.653841 0.001536
v 0.118191 -0.682213 0.001880
v 0.111612 -0.682615 0.003270
v 0.118627 -0.719164 0.002847
v 0.112475 -0.719147 0.003877
v 0.118785 -0.747600 0.002743
v 0.112844 -0.747577 0.003462
v 0.119241 -0.779652 0.001376
v 0.112373 -0.779540 0.001960
v 0.119618 -0.813391 0.002100
v 0.111403 -0.813729 0.002136
v 0.111562 -0.823484 0.001493
v 0.119881 -0.822501 0.001736
v 0.121422 -0.829622 0.001701
v 0.113124 -0.832199 0.001466
v 0.112092 -0.828413 0.001434
v 0.120671 -0.826853 0.001688
v 0.121825 -0.538373 -0.014842
v 0.115934 -0.537676 -0.011755
v 0.121106 -0.566940 -0.010106
v 0.116138 -0.566338 -0.006740
v 0.123706 -0.538670 -0.018461
v 0.122970 -0.567197 -0.013615
v 0.124367 -0.539119 -0.021982
v 0.123896 -0.567514 -0.017312
v 0.124130 -0.539467 -0.025197
v 0.122007 -0.539550 -0.028492
v 0.124268 -0.567702 -0.020737
v 0.123556 -0.567951 -0.025634
v 0.118535 -0.539287 -0.031731
v 0.120269 -0.568209 -0.029545
v 0.116121 -0.568414 -0.030604
v 0.113297 -0.568573 -0.030770
v 0.102183 -0.539229 -0.031053
v 0.104152 -0.538984 -0.033394
v 0.102342 -0.568245 -0.027205
v 0.104847 -0.568377 -0.028746
v 0.100690 -0.539063 -0.027619
v 0.099933 -0.567935 -0.024330
v 0.099737 -0.538556 -0.024380
v 0.098221 -0.567736 -0.021060
v 0.099346 -0.538187 -0.021035
v 0.097382 -0.567468 -0.016877
v 0.099282 -0.537789 -0.017774
v 0.098294 -0.567151 -0.012538
v 0.100487 -0.537175 -0.014063
v 0.101316 -0.566931 -0.008996
v 0.109168 -0.537361 -0.011212
v 0.109784 -0.566446 -0.006006
v 0.103994 -0.537154 -0.011689
v 0.105085 -0.566653 -0.007011
v 0.117098 -0.832771 -0.038536
v 0.096101 -0.835061 -0.036339
v 0.101935 -0.839387 -0.035650
v 0.133061 -0.493904 -0.031777
v 0.133645 -0.495212 -0.025847
v 0.134605 -0.489793 -0.015594
v 0.134836 -0.487134 -0.020633
v 0.133282 -0.496009 -0.020263
v 0.131726 -0.475466 -0.027558
v 0.128933 -0.474355 -0.032607
v 0.110495 -0.599426 -0.028989
v 0.110295 -0.568572 -0.030481
v 0.107184 -0.599478 -0.028539
v 0.107508 -0.568552 -0.029722
v 0.110163 -0.627455 -0.027446
v 0.106949 -0.627334 -0.026858
v 0.110931 -0.654796 -0.025956
v 0.107411 -0.654829 -0.025011
v 0.111423 -0.684136 -0.024784
v 0.108014 -0.684363 -0.023492
v 0.112088 -0.719823 -0.024196
v 0.108382 -0.719929 -0.022858
v 0.112444 -0.748415 -0.024224
v 0.109043 -0.748275 -0.023119
v 0.112282 -0.779525 -0.024468
v 0.109029 -0.779666 -0.023478
v 0.112763 -0.813548 -0.030224
v 0.107505 -0.813518 -0.029630
v 0.111311 -0.835367 -0.036214
v 0.112310 -0.829610 -0.034925
v 0.107342 -0.822289 -0.032058
v 0.107058 -0.829841 -0.034760
v 0.099975 -0.829732 -0.034452
v 0.112684 -0.822531 -0.032549
v 0.106527 -0.835696 -0.036294
v 0.103119 -0.835274 -0.036249
v 0.104629 -0.845516 -0.035016
v 0.103587 -0.843433 -0.036440
v 0.105415 -0.845594 -0.034740
v 0.104117 -0.840043 -0.035486
v 0.104955 -0.843150 -0.035672
v 0.106976 -0.845741 -0.034937
v 0.106771 -0.840302 -0.036257
v 0.106997 -0.843112 -0.035727
v 0.109602 -0.840097 -0.036441
v 0.109605 -0.845950 -0.035625
v 0.109952 -0.842973 -0.036285
v 0.113518 -0.841556 -0.038929
v 0.111391 -0.846030 -0.036568
v 0.111252 -0.844063 -0.036527
v 0.106512 -0.539303 -0.033903
v 0.105594 -0.532514 -0.037868
v 0.109224 -0.539357 -0.033774
v 0.109510 -0.526769 -0.039270
v 0.122371 -0.517900 -0.036739
v 0.120492 -0.516341 -0.039055
v 0.118041 -0.514419 -0.040389
v 0.120366 -0.507174 -0.041773
v 0.125344 -0.509679 -0.038163
v 0.123317 -0.508583 -0.040398
v 0.128855 -0.501221 -0.038688
v 0.123053 -0.497093 -0.043355
v 0.126253 -0.499013 -0.041651
v 0.123903 -0.486508 -0.042652
v 0.128503 -0.488938 -0.040324
v 0.131652 -0.491507 -0.036813
v 0.134383 -0.484819 -0.025976
v 0.133047 -0.481684 -0.032011
v 0.128385 -0.478321 -0.037086
f 1 2 3
f 1 3 4
f 5 6 3
f 5 3 2
f 7 8 6
f 7 6 5
f 9 10 11
f 9 11 12
f 13 14 9
f 13 9 12
f 15 16 14
f 15 14 13
f 17 18 16
f 17 16 15
f 19 20 18
f 19 18 17
f 21 22 8
f 21 8 7
f 23 24 25
f 23 25 26
f 25 27 28
f 25 28 29
f 27 25 24
f 27 24 30
f 29 28 31
f 29 31 32
f 32 31 33
f 32 33 34
f 34 33 35
f 34 35 36
f 36 35 37
f 36 37 38
f 38 37 39
f 38 39 40
f 40 39 41
f 40 41 42
f 42 41 43
f 42 43 44
f 44 43 45
f 44 45 46
f 46 45 47
f 46 47 48
f 48 47 49
f 48 49 50
f 51 1 52
f 51 52 53
f 29 54 26
f 29 26 25
f 32 55 54
f 32 54 29
f 34 56 55
f 34 55 32
f 36 57 56
f 36 56 34
f 38 58 57
f 38 57 36
f 40 59 58
f 40 58 38
f 42 60 59
f 42 59 40
f 44 61 60
f 44 60 42
f 46 62 61
f 46 61 44
f 48 63 62
f 48 62 46
f 50 64 63
f 50 63 48
f 26 65 66
f 26 66 23
f 65 67 68
f 65 68 66
f 54 69 65
f 54 65 26
f 57 70 71
f 57 71 56
f 58 72 70
f 58 70 57
f 59 73 72
f 59 72 58
f 60 74 73
f 60 73 59
f 61 75 74
f 61 74 60
f 76 75 61
f 76 61 62
f 63 77 76
f 63 76 62
f 64 78 77
f 64 77 63
f 79 80 78
f 79 78 64
f 81 27 30
f 81 30 82
f 83 28 27
f 83 27 81
f 84 31 28
f 84 28 83
f 85 33 31
f 85 31 84
f 86 35 33
f 86 33 85
f 87 37 35
f 87 35 86
f 88 39 37
f 88 37 87
f 89 41 39
f 89 39 88
f 90 43 41
f 90 41 89
f 91 45 43
f 91 43 90
f 92 47 45
f 92 45 91
f 93 49 47
f 93 47 92
f 94 95 49
f 94 49 93
f 96 97 81
f 96 81 82
f 98 83 81
f 98 81 97
f 99 84 83
f 99 83 98
f 100 85 84
f 100 84 99
f 101 86 85
f 101 85 100
f 102 87 86
f 102 86 101
f 103 88 87
f 103 87 102
f 104 89 88
f 104 88 103
f 105 90 89
f 105 89 104
f 106 91 90
f 106 90 105
f 107 92 91
f 107 91 106
f 108 93 92
f 108 92 107
f 109 94 93
f 109 93 108
f 110 111 97
f 110 97 96
f 112 98 97
f 112 97 111
f 113 99 98
f 113 98 112
f 114 100 99
f 114 99 113
f 115 101 100
f 115 100 114
f 116 102 101
f 116 101 115
f 117 103 102
f 117 102 116
f 118 104 103
f 118 103 117
f 119 105 104
f 119 104 118
f 120 106 105
f 120 105 119
f 121 107 106
f 121 106 120
f 122 108 107
f 122 107 121
f 123 109 108
f 123 108 122
f 124 111 110
f 124 110 125
f 126 112 111
f 126 111 124
f 127 113 112
f 127 112 126
f 128 114 113
f 128 113 127
f 129 115 114
f 129 114 128
f 130 116 115
f 130 115 129
f 131 117 116
f 131 116 130
f 132 118 117
f 132 117 131
f 133 119 118
f 133 118 132
f 134 120 119
f 134 119 133
f 135 121 120
f 135 120 134
f 136 122 121
f 136 121 135
f 137 123 122
f 137 122 136
f 23 138 139
f 23 139 24
f 139 140 30
f 139 30 24
f 140 141 82
f 140 82 30
f 140 142 143
f 140 143 141
f 144 145 146
f 144 146 79
f 143 142 95
f 143 95 94
f 50 144 79
f 50 79 64
f 95 144 50
f 95 50 49
f 145 144 95
f 145 95 142
f 146 145 139
f 146 139 138
f 145 142 140
f 145 140 139
f 66 147 138
f 66 138 23
f 147 148 146
f 147 146 138
f 146 148 80
f 146 80 79
f 149 96 82
f 149 82 141
f 150 149 141
f 150 141 143
f 150 143 94
f 150 94 109
f 151 110 96
f 151 96 149
f 152 151 149
f 152 149 150
f 152 150 109
f 152 109 123
f 153 125 110
f 153 110 151
f 154 153 151
f 154 151 152
f 154 152 123
f 154 123 137
f 155 126 124
f 155 124 156
f 126 155 157
f 126 157 127
f 158 128 127
f 158 127 157
f 155 159 158
f 155 158 157
f 160 129 128
f 160 128 158
f 161 125 153
f 161 153 162
f 125 161 156
f 125 156 124
f 163 159 155
f 163 155 156
f 164 162 153
f 164 153 154
f 165 163 156
f 165 156 161
f 137 166 164
f 137 164 154
f 164 165 161
f 164 161 162
f 136 167 166
f 136 166 137
f 167 136 135
f 167 135 168
f 134 169 168
f 134 168 135
f 166 170 165
f 166 165 164
f 167 171 170
f 167 170 166
f 169 171 167
f 169 167 168
f 133 172 169
f 133 169 134
f 170 173 163
f 170 163 165
f 173 174 159
f 173 159 163
f 159 174 160
f 159 160 158
f 171 175 173
f 171 173 170
f 130 176 177
f 130 177 131
f 176 130 129
f 176 129 160
f 175 178 174
f 175 174 173
f 172 175 171
f 172 171 169
f 178 179 177
f 178 177 176
f 179 132 131
f 179 131 177
f 132 179 172
f 132 172 133
f 179 178 175
f 179 175 172
f 174 178 176
f 174 176 160
f 180 51 53
f 180 53 181
f 182 2 1
f 182 1 51
f 183 5 2
f 183 2 182
f 184 7 5
f 184 5 183
f 185 21 7
f 185 7 184
f 186 187 21
f 186 21 185
f 188 182 51
f 188 51 180
f 188 189 183
f 188 183 182
f 190 184 183
f 190 183 189
f 191 185 184
f 191 184 190
f 192 186 185
f 192 185 191
f 55 193 69
f 55 69 54
f 193 194 195
f 193 195 69
f 71 193 55
f 71 55 56
f 67 195 180
f 67 180 181
f 195 194 188
f 195 188 180
f 69 195 67
f 69 67 65
f 196 189 188
f 196 188 194
f 197 194 193
f 197 193 71
f 70 198 197
f 70 197 71
f 72 199 198
f 72 198 70
f 200 199 72
f 200 72 73
f 74 201 200
f 74 200 73
f 75 202 201
f 75 201 74
f 76 203 202
f 76 202 75
f 77 204 203
f 77 203 76
f 78 205 204
f 78 204 77
f 80 206 205
f 80 205 78
f 148 207 206
f 148 206 80
f 208 207 148
f 208 148 147
f 68 208 147
f 68 147 66
f 209 68 67
f 209 67 181
f 209 210 208
f 209 208 68
f 211 209 181
f 211 181 53
f 211 53 52
f 211 52 212
f 213 214 211
f 213 211 212
f 215 216 214
f 215 214 213
f 18 217 218
f 18 218 16
f 20 219 217
f 20 217 18
f 211 220 210
f 211 210 209
f 210 221 207
f 210 207 208
f 221 222 206
f 221 206 207
f 222 223 205
f 222 205 206
f 214 224 220
f 214 220 211
f 225 221 210
f 225 210 220
f 226 222 221
f 226 221 225
f 227 190 189
f 227 189 196
f 197 228 196
f 197 196 194
f 228 229 227
f 228 227 196
f 198 230 228
f 198 228 197
f 231 191 190
f 231 190 227
f 230 232 229
f 230 229 228
f 199 233 230
f 199 230 198
f 200 234 233
f 200 233 199
f 201 235 234
f 201 234 200
f 202 236 235
f 202 235 201
f 237 236 202
f 237 202 203
f 223 238 204
f 223 204 205
f 238 237 203
f 238 203 204
f 232 231 227
f 232 227 229
f 239 192 191
f 239 191 231
f 233 240 232
f 233 232 230
f 241 239 231
f 241 231 232
f 242 243 244
f 242 244 245
f 242 245 187
f 242 187 186
f 246 247 243
f 246 243 242
f 246 242 186
f 246 186 192
f 248 249 247
f 248 247 246
f 248 246 192
f 248 192 239
f 250 248 239
f 250 239 241
f 250 251 249
f 250 249 248
f 252 253 251
f 252 251 250
f 254 252 250
f 254 250 241
f 254 241 232
f 254 232 240
f 234 255 240
f 234 240 233
f 235 256 255
f 235 255 234
f 255 257 254
f 255 254 240
f 257 258 252
f 257 252 254
f 252 258 259
f 252 259 253
f 236 260 256
f 236 256 235
f 261 257 255
f 261 255 256
f 262 258 257
f 262 257 261
f 262 263 259
f 262 259 258
f 237 264 260
f 237 260 236
f 265 261 256
f 265 256 260
f 266 262 261
f 266 261 265
f 267 263 262
f 267 262 266
f 259 268 269
f 259 269 253
f 263 270 268
f 263 268 259
f 271 270 263
f 271 263 267
f 272 273 270
f 272 270 271
f 273 274 268
f 273 268 270
f 217 275 276
f 217 276 218
f 275 277 278
f 275 278 276
f 219 279 275
f 219 275 217
f 279 280 277
f 279 277 275
f 281 223 222
f 281 222 226
f 281 282 238
f 281 238 223
f 238 282 264
f 238 264 237
f 283 265 260
f 283 260 264
f 284 266 265
f 284 265 283
f 285 283 264
f 285 264 282
f 286 285 282
f 286 282 281
f 287 286 281
f 287 281 226
f 288 287 226
f 288 226 225
f 288 225 220
f 288 220 224
f 289 290 287
f 289 287 288
f 290 291 286
f 290 286 287
f 291 292 285
f 291 285 286
f 285 292 284
f 285 284 283
f 293 267 266
f 293 266 284
f 294 271 267
f 294 267 293
f 295 293 284
f 295 284 292
f 296 295 292
f 296 292 291
f 297 296 291
f 297 291 290
f 297 290 289
f 297 289 298
f 299 300 297
f 299 297 298
f 294 301 272
f 294 272 271
f 295 302 294
f 295 294 293
f 296 303 302
f 296 302 295
f 300 303 296
f 300 296 297
f 302 304 301
f 302 301 294
f 274 305 269
f 274 269 268
f 306 307 280
f 306 280 279
f 308 306 279
f 308 279 219
f 309 308 219
f 309 219 20
f 19 310 309
f 19 309 20
f 311 312 22
f 311 22 21
f 313 311 21
f 313 21 187
f 245 314 313
f 245 313 187
f 315 314 245
f 315 245 244
f 316 317 315
f 316 315 244
f 318 319 317
f 318 317 316
f 319 320 315
f 319 315 317
f 320 321 314
f 320 314 315
f 321 322 313
f 321 313 314
f 322 323 311
f 322 311 313
f 323 324 312
f 323 312 311
f 325 326 309
f 325 309 310
f 326 327 308
f 326 308 309
f 327 328 306
f 327 306 308
f 328 329 307
f 328 307 306
f 330 331 243
f 330 243 247
f 249 332 330
f 249 330 247
f 251 333 332
f 251 332 249
f 334 333 251
f 334 251 253
f 269 335 334
f 269 334 253
f 305 336 335
f 305 335 269
f 337 338 339
f 337 339 340
f 341 337 340
f 341 340 318
f 331 342 244
f 331 244 243
f 342 343 316
f 342 316 244
f 343 341 318
f 343 318 316
f 337 344 345
f 337 345 338
f 346 344 337
f 346 337 341
f 345 347 348
f 345 348 338
f 349 350 344
f 349 344 346
f 343 349 346
f 343 346 341
f 350 347 345
f 350 345 344
f 347 351 352
f 347 352 348
f 353 349 343
f 353 343 342
f 354 350 349
f 354 349 353
f 354 351 347
f 354 347 350
f 351 355 336
f 351 336 352
f 356 353 342
f 356 342 331
f 357 354 353
f 357 353 356
f 357 355 351
f 357 351 354
f 355 358 335
f 355 335 336
f 359 356 331
f 359 331 330
f 360 359 330
f 360 330 332
f 335 358 361
f 335 361 334
f 361 362 333
f 361 333 334
f 363 357 356
f 363 356 359
f 362 363 359
f 362 359 360
f 333 362 360
f 333 360 332
f 363 362 361
f 363 361 358
f 363 358 355
f 363 355 357
f 364 365 366
f 364 366 367
f 368 369 370
f 368 370 371
f 372 373 369
f 372 369 368
f 374 375 373
f 374 373 372
f 376 377 378
f 376 378 379
f 380 381 377
f 380 377 376
f 382 383 381
f 382 381 380
f 384 385 383
f 384 383 382
f 386 387 385
f 386 385 384
f 388 389 387
f 388 387 386
f 390 391 389
f 390 389 388
f 392 393 394
f 392 394 395
f 396 397 393
f 396 393 392
f 398 399 397
f 398 397 396
f 399 398 371
f 399 371 370
f 369 400 401
f 369 401 370
f 373 402 400
f 373 400 369
f 375 403 402
f 375 402 373
f 377 404 405
f 377 405 378
f 381 406 404
f 381 404 377
f 383 407 406
f 383 406 381
f 385 408 407
f 385 407 383
f 387 409 408
f 387 408 385
f 389 410 409
f 389 409 387
f 391 411 410
f 391 410 389
f 393 412 413
f 393 413 394
f 397 414 412
f 397 412 393
f 399 415 414
f 399 414 397
f 415 399 370
f 415 370 401
f 400 416 417
f 400 417 401
f 402 418 416
f 402 416 400
f 403 419 418
f 403 418 402
f 404 420 421
f 404 421 405
f 406 422 420
f 406 420 404
f 407 423 422
f 407 422 406
f 408 424 423
f 408 423 407
f 409 425 424
f 409 424 408
f 410 426 425
f 410 425 409
f 411 427 426
f 411 426 410
f 412 428 429
f 412 429 413
f 414 430 428
f 414 428 412
f 415 431 430
f 415 430 414
f 431 415 401
f 431 401 417
f 416 432 433
f 416 433 417
f 418 434 432
f 418 432 416
f 419 435 434
f 419 434 418
f 420 436 437
f 420 437 421
f 422 438 436
f 422 436 420
f 423 439 438
f 423 438 422
f 424 440 439
f 424 439 423
f 425 441 440
f 425 440 424
f 426 442 441
f 426 441 425
f 427 443 442
f 427 442 426
f 428 444 445
f 428 445 429
f 430 446 444
f 430 444 428
f 431 447 446
f 431 446 430
f 447 431 417
f 447 417 433
f 448 442 443
f 448 443 449
f 450 448 449
f 450 449 451
f 452 441 442
f 452 442 448
f 453 452 448
f 453 448 450
f 454 440 441
f 454 441 452
f 455 454 452
f 455 452 453
f 456 439 440
f 456 440 454
f 457 456 454
f 457 454 455
f 458 438 439
f 458 439 456
f 459 458 456
f 459 456 457
f 460 436 438
f 460 438 458
f 461 460 458
f 461 458 459
f 462 437 436
f 462 436 460
f 463 462 460
f 463 460 461
f 464 434 435
f 464 435 465
f 466 464 465
f 466 465 467
f 468 432 434
f 468 434 464
f 469 468 464
f 469 464 466
f 470 433 432
f 470 432 468
f 471 470 468
f 471 468 469
f 472 446 447
f 472 447 473
f 474 472 473
f 474 473 475
f 473 447 433
f 473 433 470
f 475 473 470
f 475 470 471
f 444 476 477
f 444 477 445
f 478 479 480
f 478 480 481
f 481 480 482
f 481 482 483
f 478 481 484
f 478 484 485
f 486 476 472
f 486 472 474
f 487 488 489
f 487 489 490
f 488 491 492
f 488 492 489
f 493 494 495
f 493 495 496
f 497 493 498
f 497 498 499
f 493 497 500
f 493 500 494
f 501 487 490
f 501 490 502
f 501 502 495
f 501 495 494
f 503 501 494
f 503 494 500
f 501 503 488
f 501 488 487
f 504 505 506
f 504 506 507
f 506 505 508
f 506 508 509
f 508 510 511
f 508 511 509
f 512 510 508
f 512 508 505
f 510 513 514
f 510 514 511
f 513 515 516
f 513 516 514
f 515 517 518
f 515 518 516
f 517 519 520
f 517 520 518
f 519 521 365
f 519 365 520
f 521 522 366
f 521 366 365
f 522 523 524
f 522 524 366
f 523 525 526
f 523 526 524
f 525 527 528
f 525 528 526
f 529 513 510
f 529 510 512
f 530 515 513
f 530 513 529
f 531 517 515
f 531 515 530
f 531 532 519
f 531 519 517
f 533 534 535
f 533 535 536
f 537 538 534
f 537 534 533
f 539 540 541
f 539 541 542
f 543 544 540
f 543 540 539
f 527 544 543
f 527 543 528
f 545 546 541
f 545 541 540
f 547 548 534
f 547 534 538
f 475 549 550
f 475 550 474
f 471 551 549
f 471 549 475
f 469 552 551
f 469 551 471
f 553 459 457
f 553 457 554
f 555 461 459
f 555 459 553
f 556 463 461
f 556 461 555
f 466 557 552
f 466 552 469
f 467 558 557
f 467 557 466
f 455 559 554
f 455 554 457
f 559 560 561
f 559 561 554
f 453 562 559
f 453 559 455
f 562 563 560
f 562 560 559
f 450 564 562
f 450 562 453
f 564 565 563
f 564 563 562
f 451 566 564
f 451 564 450
f 566 567 565
f 566 565 564
f 568 506 509
f 568 509 569
f 570 507 506
f 570 506 568
f 571 572 507
f 571 507 570
f 572 571 573
f 572 573 574
f 575 576 571
f 575 571 570
f 577 575 570
f 577 570 568
f 577 578 576
f 577 576 575
f 579 573 571
f 579 571 576
f 573 580 581
f 573 581 574
f 579 582 580
f 579 580 573
f 583 579 576
f 583 576 578
f 580 584 585
f 580 585 581
f 582 586 584
f 582 584 580
f 583 586 582
f 583 582 579
f 584 587 492
f 584 492 585
f 588 589 586
f 588 586 583
f 586 589 587
f 586 587 584
f 587 590 489
f 587 489 492
f 589 591 590
f 589 590 587
f 590 592 490
f 590 490 489
f 578 593 588
f 578 588 583
f 594 591 589
f 594 589 588
f 595 577 568
f 595 568 569
f 595 593 578
f 595 578 577
f 511 596 569
f 511 569 509
f 597 594 588
f 597 588 593
f 598 595 569
f 598 569 596
f 598 597 593
f 598 593 595
f 514 599 596
f 514 596 511
f 592 600 502
f 592 502 490
f 591 601 592
f 591 592 590
f 602 601 591
f 602 591 594
f 603 602 594
f 603 594 597
f 600 604 495
f 600 495 502
f 601 605 600
f 601 600 592
f 602 606 605
f 602 605 601
f 605 607 604
f 605 604 600
f 604 608 496
f 604 496 495
f 609 608 604
f 609 604 607
f 606 610 607
f 606 607 605
f 611 609 607
f 611 607 610
f 612 613 609
f 612 609 611
f 614 598 596
f 614 596 599
f 614 603 597
f 614 597 598
f 516 615 599
f 516 599 514
f 603 616 606
f 603 606 602
f 614 617 616
f 614 616 603
f 615 617 614
f 615 614 599
f 518 618 615
f 518 615 516
f 520 619 618
f 520 618 518
f 619 520 365
f 619 365 364
f 618 620 617
f 618 617 615
f 621 622 612
f 621 612 611
f 623 539 542
f 623 542 624
f 367 366 524
f 367 524 625
f 626 548 547
f 626 547 627
f 628 627 547
f 628 547 538
f 629 628 538
f 629 538 537
f 628 629 630
f 628 630 631
f 627 628 631
f 627 631 632
f 633 634 630
f 633 630 629
f 635 636 533
f 635 533 536
f 637 635 536
f 637 536 638
f 639 633 629
f 639 629 537
f 636 639 537
f 636 537 533
f 640 637 638
f 640 638 641
f 642 640 641
f 642 641 643
f 644 498 493
f 644 493 496
f 645 646 647
f 645 647 648
f 608 649 644
f 608 644 496
f 649 646 645
f 649 645 644
f 613 649 608
f 613 608 609
f 645 650 498
f 645 498 644
f 651 650 645
f 651 645 648
f 652 653 654
f 652 654 655
f 652 655 631
f 652 631 630
f 542 653 656
f 542 656 624
f 653 652 657
f 653 657 656
f 654 653 542
f 654 542 541
f 657 652 630
f 657 630 634
f 658 659 651
f 658 651 648
f 659 660 650
f 659 650 651
f 661 659 658
f 661 658 643
f 650 660 499
f 650 499 498
f 546 662 654
f 546 654 541
f 662 663 655
f 662 655 654
f 655 663 632
f 655 632 631
f 664 626 627
f 664 627 632
f 665 666 647
f 665 647 646
f 665 646 649
f 665 649 613
f 667 668 666
f 667 666 665
f 667 665 613
f 667 613 612
f 669 670 668
f 669 668 667
f 671 672 656
f 671 656 657
f 669 667 612
f 669 612 622
f 673 672 622
f 673 622 621
f 672 671 669
f 672 669 622
f 672 673 624
f 672 624 656
f 669 671 674
f 669 674 670
f 671 657 634
f 671 634 674
f 675 674 634
f 675 634 633
f 675 676 670
f 675 670 674
f 677 675 633
f 677 633 639
f 678 677 639
f 678 639 636
f 676 679 668
f 676 668 670
f 680 676 675
f 680 675 677
f 679 681 666
f 679 666 668
f 682 678 636
f 682 636 635
f 680 683 679
f 680 679 676
f 678 684 680
f 678 680 677
f 685 686 637
f 685 637 640
f 686 682 635
f 686 635 637
f 687 684 678
f 687 678 682
f 688 689 684
f 688 684 687
f 688 687 682
f 688 682 686
f 684 689 683
f 684 683 680
f 690 685 640
f 690 640 642
f 690 688 686
f 690 686 685
f 691 681 679
f 691 679 683
f 658 692 642
f 658 642 643
f 692 693 690
f 692 690 642
f 647 692 658
f 647 658 648
f 681 692 647
f 681 647 666
f 693 692 681
f 693 681 691
f 693 689 688
f 693 688 690
f 693 691 683
f 693 683 689
f 694 695 550
f 694 550 696
f 486 695 697
f 486 697 698
f 695 694 699
f 695 699 697
f 695 486 474
f 695 474 550
f 700 543 539
f 700 539 623
f 701 623 624
f 701 624 673
f 702 703 367
f 702 367 625
f 526 702 625
f 526 625 524
f 704 702 526
f 704 526 528
f 705 702 704
f 705 704 701
f 703 702 705
f 703 705 620
f 701 704 700
f 701 700 623
f 704 528 543
f 704 543 700
f 705 610 606
f 705 606 616
f 620 705 616
f 620 616 617
f 705 621 611
f 705 611 610
f 705 701 673
f 705 673 621
f 619 703 620
f 619 620 618
f 367 703 619
f 367 619 364
f 694 706 707
f 694 707 699
f 548 708 535
f 548 535 534
f 709 708 548
f 709 548 626
f 549 710 696
f 549 696 550
f 711 551 552
f 711 552 712
f 710 711 713
f 710 713 714
f 710 549 551
f 710 551 711
f 711 712 715
f 711 715 713
f 716 662 546
f 716 546 717
f 718 719 716
f 718 716 717
f 720 709 626
f 720 626 664
f 713 720 718
f 713 718 714
f 720 713 715
f 720 715 709
f 721 722 720
f 721 720 664
f 721 663 662
f 721 662 716
f 722 721 716
f 722 716 719
f 721 664 632
f 721 632 663
f 720 722 719
f 720 719 718
f 723 712 552
f 723 552 557
f 724 723 557
f 724 557 558
f 725 726 556
f 725 556 555
f 561 727 553
f 561 553 554
f 727 725 555
f 727 555 553
f 727 728 729
f 727 729 725
f 728 730 731
f 728 731 729
f 732 512 505
f 732 505 504
f 733 529 512
f 733 512 732
f 734 735 733
f 734 733 732
f 736 530 529
f 736 529 733
f 563 737 738
f 563 738 560
f 735 739 736
f 735 736 733
f 737 739 735
f 737 735 738
f 740 531 530
f 740 530 736
f 565 741 737
f 565 737 563
f 739 742 740
f 739 740 736
f 741 742 739
f 741 739 737
f 740 743 532
f 740 532 531
f 743 521 519
f 743 519 532
f 567 744 741
f 567 741 565
f 742 745 743
f 742 743 740
f 744 745 742
f 744 742 741
f 572 730 504
f 572 504 507
f 730 734 732
f 730 732 504
f 731 730 572
f 731 572 574
f 734 730 728
f 734 728 746
f 738 746 561
f 738 561 560
f 746 728 727
f 746 727 561
f 746 738 735
f 746 735 734
f 729 747 726
f 729 726 725
f 714 748 696
f 714 696 710
f 748 706 694
f 748 694 696
f 715 749 708
f 715 708 709
f 749 715 712
f 749 712 723
f 544 750 545
f 544 545 540
f 718 751 748
f 718 748 714
f 752 717 546
f 752 546 545
f 750 751 752
f 750 752 545
f 752 751 718
f 752 718 717
f 753 525 523
f 753 523 754
f 755 750 544
f 755 544 527
f 751 756 706
f 751 706 748
f 755 527 525
f 755 525 753
f 756 755 753
f 756 753 757
f 755 756 751
f 755 751 750
f 706 756 757
f 706 757 707
f 758 522 521
f 758 521 743
f 758 754 523
f 758 523 522
f 3 759 760
f 3 760 4
f 761 760 12
f 761 12 11
f 760 759 13
f 760 13 12
f 762 759 3
f 762 3 6
f 759 762 15
f 759 15 13
f 763 762 6
f 763 6 8
f 762 763 17
f 762 17 15
f 764 763 8
f 764 8 22
f 763 764 19
f 763 19 17
f 765 764 22
f 765 22 312
f 764 765 310
f 764 310 19
f 766 765 312
f 766 312 324
f 765 766 325
f 765 325 310
f 767 768 212
f 767 212 52
f 4 767 52
f 4 52 1
f 761 767 4
f 761 4 760
f 769 213 212
f 769 212 768
f 770 769 768
f 770 768 771
f 769 770 215
f 769 215 213
f 771 768 767
f 771 767 761
f 772 773 770
f 772 770 771
f 772 11 10
f 772 10 774
f 773 772 774
f 773 774 775
f 772 771 761
f 772 761 11
f 773 775 215
f 773 215 770
f 776 777 774
f 776 774 10
f 777 778 775
f 777 775 774
f 779 777 776
f 779 776 780
f 781 289 288
f 781 288 224
f 781 299 298
f 781 298 289
f 775 778 216
f 775 216 215
f 216 781 224
f 216 224 214
f 782 781 216
f 782 216 778
f 783 784 779
f 783 779 780
f 782 778 777
f 782 777 779
f 784 785 782
f 784 782 779
f 782 785 299
f 782 299 781
f 303 786 304
f 303 304 302
f 787 786 303
f 787 303 300
f 785 787 300
f 785 300 299
f 788 787 785
f 788 785 784
f 788 789 786
f 788 786 787
f 789 790 304
f 789 304 786
f 791 792 391
f 791 391 390
f 792 791 793
f 792 793 794
f 794 793 395
f 794 395 394
f 792 795 411
f 792 411 391
f 795 792 794
f 795 794 796
f 796 794 394
f 796 394 413
f 795 797 427
f 795 427 411
f 797 795 796
f 797 796 798
f 798 796 413
f 798 413 429
f 797 799 443
f 797 443 427
f 799 797 798
f 799 798 800
f 800 798 429
f 800 429 445
f 799 801 449
f 799 449 443
f 801 799 800
f 801 800 802
f 802 800 445
f 802 445 477
f 801 803 451
f 801 451 449
f 804 802 477
f 804 477 698
f 803 801 802
f 803 802 804
f 803 805 566
f 803 566 451
f 805 803 804
f 805 804 806
f 806 804 698
f 806 698 697
f 807 806 697
f 807 697 699
f 805 808 567
f 805 567 566
f 807 808 805
f 807 805 806
f 809 810 754
f 809 754 758
f 810 757 753
f 810 753 754
f 745 809 758
f 745 758 743
f 811 807 699
f 811 699 707
f 808 812 744
f 808 744 567
f 812 809 745
f 812 745 744
f 812 808 807
f 812 807 811
f 809 812 811
f 809 811 810
f 810 811 707
f 810 707 757
f 813 325 766
f 813 766 814
f 815 813 814
f 815 814 816
f 390 815 816
f 390 816 791
f 817 326 325
f 817 325 813
f 818 817 813
f 818 813 815
f 388 818 815
f 388 815 390
f 819 327 326
f 819 326 817
f 820 819 817
f 820 817 818
f 821 328 327
f 821 327 819
f 386 820 818
f 386 818 388
f 822 329 328
f 822 328 821
f 823 384 382
f 823 382 824
f 384 823 820
f 384 820 386
f 823 821 819
f 823 819 820
f 825 483 329
f 825 329 822
f 824 382 380
f 824 380 826
f 824 822 821
f 824 821 823
f 826 380 376
f 826 376 827
f 826 825 822
f 826 822 824
f 827 376 379
f 827 379 828
f 827 484 825
f 827 825 826
f 829 340 339
f 829 339 830
f 831 829 830
f 831 830 832
f 372 831 832
f 372 832 374
f 833 318 340
f 833 340 829
f 834 833 829
f 834 829 831
f 368 834 831
f 368 831 372
f 835 319 318
f 835 318 833
f 836 835 833
f 836 833 834
f 371 836 834
f 371 834 368
f 837 320 319
f 837 319 835
f 838 837 835
f 838 835 836
f 398 838 836
f 398 836 371
f 839 321 320
f 839 320 837
f 840 839 837
f 840 837 838
f 396 840 838
f 396 838 398
f 841 322 321
f 841 321 839
f 842 841 839
f 842 839 840
f 392 842 840
f 392 840 396
f 843 814 766
f 843 766 324
f 843 844 816
f 843 816 814
f 844 793 791
f 844 791 816
f 845 323 322
f 845 322 841
f 846 845 841
f 846 841 842
f 845 843 324
f 845 324 323
f 845 846 844
f 845 844 843
f 846 395 793
f 846 793 844
f 395 846 842
f 395 842 392
f 847 731 574
f 847 574 581
f 847 747 729
f 847 729 731
f 749 848 535
f 749 535 708
f 535 848 638
f 535 638 536
f 641 849 661
f 641 661 643
f 850 851 276
f 850 276 278
f 852 853 780
f 852 780 776
f 851 854 218
f 851 218 276
f 9 852 776
f 9 776 10
f 854 852 9
f 854 9 14
f 852 854 851
f 852 851 853
f 218 854 14
f 218 14 16
f 855 856 789
f 855 789 788
f 857 858 828
f 857 828 379
f 857 859 860
f 857 860 858
f 860 859 374
f 860 374 832
f 861 857 379
f 861 379 378
f 861 862 859
f 861 859 857
f 859 862 375
f 859 375 374
f 863 861 378
f 863 378 405
f 863 864 862
f 863 862 861
f 862 864 403
f 862 403 375
f 865 863 405
f 865 405 421
f 865 866 864
f 865 864 863
f 864 866 419
f 864 419 403
f 867 865 421
f 867 421 437
f 867 868 866
f 867 866 865
f 866 868 435
f 866 435 419
f 869 867 437
f 869 437 462
f 869 870 868
f 869 868 867
f 868 870 465
f 868 465 435
f 871 869 462
f 871 462 463
f 871 872 870
f 871 870 869
f 870 872 467
f 870 467 465
f 873 871 463
f 873 463 556
f 873 874 872
f 873 872 871
f 872 874 558
f 872 558 467
f 875 876 747
f 875 747 847
f 874 877 724
f 874 724 558
f 878 879 724
f 878 724 877
f 726 880 873
f 726 873 556
f 880 877 874
f 880 874 873
f 876 880 726
f 876 726 747
f 881 878 876
f 881 876 875
f 749 879 882
f 749 882 848
f 879 878 881
f 879 881 882
f 724 879 749
f 724 749 723
f 878 877 880
f 878 880 876
f 848 849 641
f 848 641 638
f 883 660 659
f 883 659 661
f 884 883 661
f 884 661 849
f 883 885 499
f 883 499 660
f 882 886 849
f 882 849 848
f 884 887 885
f 884 885 883
f 886 887 884
f 886 884 849
f 885 888 497
f 885 497 499
f 881 889 886
f 881 886 882
f 890 887 886
f 890 886 889
f 890 888 885
f 890 885 887
f 891 889 881
f 891 881 875
f 888 892 500
f 888 500 497
f 890 893 892
f 890 892 888
f 891 893 890
f 891 890 889
f 894 847 581
f 894 581 585
f 894 585 492
f 894 492 491
f 894 891 875
f 894 875 847
f 892 895 503
f 892 503 500
f 895 491 488
f 895 488 503
f 896 895 892
f 896 892 893
f 895 896 894
f 895 894 491
f 894 896 893
f 894 893 891
f 897 860 832
f 897 832 830
f 348 898 339
f 348 339 338
f 898 897 830
f 898 830 339
f 897 899 858
f 897 858 860
f 828 485 484
f 828 484 827
f 485 828 858
f 485 858 899
f 900 898 348
f 900 348 352
f 900 352 336
f 900 336 305
f 900 899 897
f 900 897 898
f 478 485 899
f 478 899 900
f 481 483 825
f 481 825 484
f 483 482 307
f 483 307 329
f 901 280 307
f 901 307 482
f 902 480 479
f 902 479 903
f 902 901 482
f 902 482 480
f 904 903 274
f 904 274 273
f 905 277 280
f 905 280 901
f 906 902 903
f 906 903 904
f 906 905 901
f 906 901 902
f 907 278 277
f 907 277 905
f 908 904 273
f 908 273 272
f 909 906 904
f 909 904 908
f 909 907 905
f 909 905 906
f 910 908 272
f 910 272 301
f 790 910 301
f 790 301 304
f 911 909 908
f 911 908 910
f 912 850 278
f 912 278 907
f 853 913 783
f 853 783 780
f 850 913 853
f 850 853 851
f 783 855 788
f 783 788 784
f 914 855 783
f 914 783 913
f 911 912 907
f 911 907 909
f 912 914 913
f 912 913 850
f 914 912 911
f 914 911 915
f 915 911 910
f 915 910 790
f 856 915 790
f 856 790 789
f 914 915 856
f 914 856 855
f 903 479 305
f 903 305 274
f 479 478 900
f 479 900 305
f 486 698 477
f 486 477 476
f 446 472 476
f 446 476 444
