# Fibula_R rest
v -0.078602 -0.900091 -0.008928
v -0.076119 -0.904333 -0.006067
v -0.079144 -0.905715 -0.005731
v -0.081655 -0.901189 -0.008747
v -0.073044 -0.911819 -0.002417
v -0.077021 -0.909986 -0.003104
v -0.074091 -0.916893 -0.001377
v -0.078622 -0.913633 -0.001327
v -0.082700 -0.916117 -0.001826
v -0.080357 -0.920243 -0.002016
v -0.088277 -0.916907 -0.005946
v -0.085299 -0.921741 -0.004596
v -0.090125 -0.917466 -0.010522
v -0.088135 -0.922903 -0.009378
v -0.089820 -0.922652 -0.014727
v -0.088072 -0.924810 -0.012877
v -0.089258 -0.915034 -0.012727
v -0.089300 -0.921207 -0.016707
v -0.087438 -0.913729 -0.008758
v -0.085590 -0.913794 -0.005853
v -0.083198 -0.912480 -0.004794
v -0.082379 -0.907178 -0.006754
v -0.083274 -0.904402 -0.009204
v -0.082123 -0.910091 -0.005360
v -0.083334 -0.898627 -0.012520
v -0.081366 -0.896648 -0.013722
v -0.083932 -0.904094 -0.013106
v -0.084447 -0.904805 -0.016359
v -0.083346 -0.900936 -0.018222
v -0.082507 -0.906521 -0.022190
v -0.084803 -0.908453 -0.020008
v -0.081506 -0.899863 -0.018653
v -0.080290 -0.904077 -0.022568
v -0.078809 -0.910484 -0.024674
v -0.076732 -0.908041 -0.025249
v -0.083335 -0.914150 -0.023864
v -0.085393 -0.914635 -0.022244
v -0.086009 -0.918632 -0.020102
v -0.085915 -0.912068 -0.017153
v -0.085223 -0.909430 -0.013889
v -0.084405 -0.907761 -0.010749
v -0.087299 -0.920377 -0.018508
v -0.087397 -0.913431 -0.014604
v -0.086314 -0.911439 -0.011353
v -0.084910 -0.910818 -0.008316
v -0.078911 -0.916809 -0.024480
v -0.074452 -0.920233 -0.026026
v -0.073430 -0.915051 -0.026538
v -0.072266 -0.911814 -0.025786
v -0.068793 -0.917541 -0.025107
v -0.068140 -0.914848 -0.023819
v -0.065802 -0.920942 -0.019199
v -0.065662 -0.917554 -0.017883
v -0.065759 -0.918403 -0.011252
v -0.066055 -0.922535 -0.012011
v -0.070255 -0.916693 -0.006830
v -0.070162 -0.920889 -0.007695
v -0.072100 -0.918969 -0.005931
v -0.073694 -0.919348 -0.004310
v -0.072479 -0.911155 -0.008053
v -0.075072 -0.906519 -0.010320
v -0.076887 -0.903105 -0.012008
v -0.078499 -0.900436 -0.014379
v -0.078151 -0.902063 -0.017000
v -0.076609 -0.904643 -0.018816
v -0.074510 -0.907436 -0.020683
v -0.072166 -0.910191 -0.021103
v -0.070238 -0.912424 -0.020420
v -0.069080 -0.913975 -0.016833
v -0.068678 -0.914748 -0.012460
v -0.070512 -0.913857 -0.009716
v -0.071030 -0.926731 -0.009026
v -0.075890 -0.926166 -0.009823
v -0.073685 -0.926196 -0.009268
v -0.079442 -0.922256 -0.005432
v -0.082894 -0.923526 -0.007286
v -0.086523 -0.924280 -0.009997
v -0.086680 -0.925939 -0.012152
v -0.079612 -0.926459 -0.009479
v -0.082699 -0.926564 -0.009432
v -0.067419 -0.926344 -0.013493
v -0.067333 -0.925109 -0.019494
v -0.070047 -0.922606 -0.024869
v -0.084239 -0.923679 -0.023565
v -0.082627 -0.923105 -0.025542
v -0.079165 -0.923480 -0.026705
v -0.075299 -0.924891 -0.027105
v -0.070891 -0.926616 -0.025118
v -0.085150 -0.924467 -0.021245
v -0.085937 -0.925012 -0.019821
v -0.087806 -0.925663 -0.017768
v -0.086270 -0.934111 -0.018492
v -0.086040 -0.933917 -0.020017
v -0.085445 -0.933814 -0.021651
v -0.084777 -0.933643 -0.023299
v -0.083982 -0.933475 -0.024888
v -0.082314 -0.933404 -0.026545
v -0.079474 -0.933565 -0.027510
v -0.076190 -0.934230 -0.027087
v -0.072741 -0.934936 -0.025209
v -0.068236 -0.928801 -0.019884
v -0.068777 -0.930293 -0.014790
v -0.072445 -0.930896 -0.011370
v -0.076458 -0.929797 -0.011555
v -0.080176 -0.929899 -0.011258
v -0.082744 -0.929778 -0.011271
v -0.086169 -0.928482 -0.013302
v -0.088060 -0.926510 -0.016670
v -0.087014 -0.927969 -0.014274
v -0.074638 -0.930200 -0.011423
v -0.070218 -0.935907 -0.020429
v -0.071021 -0.936168 -0.016469
v -0.073734 -0.936024 -0.014082
v -0.075735 -0.935846 -0.013880
v -0.077656 -0.935629 -0.013789
v -0.080572 -0.935354 -0.013657
v -0.083082 -0.934817 -0.013700
v -0.085378 -0.934453 -0.015414
v -0.085994 -0.934146 -0.016643
v -0.084621 -0.948546 -0.026069
v -0.083741 -0.948422 -0.027735
v -0.082587 -0.948419 -0.028732
v -0.080298 -0.948660 -0.028942
v -0.078518 -0.948985 -0.028549
v -0.076887 -0.949141 -0.027931
v -0.074932 -0.949575 -0.026343
v -0.073548 -0.950190 -0.023508
v -0.073799 -0.950459 -0.020720
v -0.075486 -0.950558 -0.018804
v -0.077099 -0.950522 -0.017908
v -0.079181 -0.950474 -0.017580
v -0.081292 -0.950288 -0.017785
v -0.083248 -0.949874 -0.018430
v -0.084592 -0.949584 -0.019752
v -0.085072 -0.949305 -0.021141
v -0.085242 -0.949036 -0.022777
v -0.085077 -0.948742 -0.024461
v -0.085986 -0.966455 -0.030607
v -0.084529 -0.966373 -0.032047
v -0.082513 -0.966496 -0.032377
v -0.080643 -0.966714 -0.031946
v -0.079080 -0.966965 -0.031099
v -0.077773 -0.967235 -0.029974
v -0.076536 -0.967534 -0.028597
v -0.075694 -0.967870 -0.026725
v -0.075821 -0.968165 -0.024566
v -0.077154 -0.968388 -0.022432
v -0.078887 -0.968325 -0.021619
v -0.080943 -0.968175 -0.021458
v -0.082813 -0.967988 -0.021669
v -0.084590 -0.967759 -0.022232
v -0.086098 -0.967469 -0.023387
v -0.087172 -0.967147 -0.025017
v -0.087553 -0.966838 -0.026976
v -0.087125 -0.966594 -0.028948
v -0.088371 -0.982866 -0.032892
v -0.086705 -0.982858 -0.033958
v -0.084911 -0.982889 -0.034826
v -0.082978 -0.983119 -0.034413
v -0.081459 -0.983403 -0.033373
v -0.080097 -0.983678 -0.032297
v -0.078773 -0.983993 -0.030927
v -0.077926 -0.984346 -0.029006
v -0.077807 -0.984691 -0.026699
v -0.079081 -0.984866 -0.024724
v -0.081141 -0.984838 -0.023671
v -0.083288 -0.984674 -0.023504
v -0.085205 -0.984449 -0.023893
v -0.086891 -0.984193 -0.024636
v -0.088335 -0.983901 -0.025778
v -0.089386 -0.983581 -0.027349
v -0.089879 -0.983262 -0.029251
v -0.089609 -0.982993 -0.031267
v -0.089257 -0.997861 -0.034184
v -0.087999 -0.997878 -0.035282
v -0.086058 -0.997934 -0.035941
v -0.083552 -0.998304 -0.035718
v -0.081887 -0.998598 -0.034872
v -0.080721 -0.998921 -0.033513
v -0.079740 -0.999243 -0.032045
v -0.079226 -0.999568 -0.030266
v -0.079461 -0.999840 -0.028353
v -0.080799 -1.000149 -0.026162
v -0.082572 -0.999979 -0.025222
v -0.084593 -0.999647 -0.025028
v -0.086516 -0.999443 -0.025478
v -0.087916 -0.999188 -0.026204
v -0.088890 -0.999118 -0.027044
v -0.089920 -0.998777 -0.028601
v -0.090402 -0.998441 -0.030479
v -0.090185 -0.998152 -0.032489
v -0.076314 -0.906289 -0.014719
v -0.074111 -0.909579 -0.015147
v -0.071357 -0.912198 -0.015707
v -0.071984 -0.911311 -0.005114
v -0.074921 -0.904421 -0.007256
v -0.077334 -0.900265 -0.010259
v -0.079965 -0.897326 -0.013866
v -0.079910 -0.899643 -0.018044
v -0.077971 -0.903098 -0.021860
v -0.075356 -0.906504 -0.023794
v -0.071593 -0.910458 -0.024235
v -0.068597 -0.913257 -0.022565
v -0.066526 -0.916056 -0.017303
v -0.066520 -0.916896 -0.011676
v -0.070113 -0.915515 -0.007567
v -0.081351 -1.020417 -0.033861
v -0.081118 -1.020564 -0.031620
v -0.081795 -1.020632 -0.029462
v -0.083199 -1.020616 -0.027717
v -0.085210 -1.020500 -0.026862
v -0.087255 -1.020331 -0.026876
v -0.089000 -1.020149 -0.027544
v -0.090396 -1.019979 -0.028505
v -0.091434 -1.019823 -0.029743
v -0.092137 -1.019682 -0.031186
v -0.092430 -1.019565 -0.032819
v -0.092141 -1.019491 -0.034524
v -0.091221 -1.019478 -0.036063
v -0.089776 -1.019531 -0.037214
v -0.087979 -1.019641 -0.037891
v -0.085930 -1.019798 -0.038083
v -0.083974 -1.020005 -0.037279
v -0.082510 -1.020214 -0.035733
v -0.084374 -1.044656 -0.035745
v -0.084131 -1.044776 -0.034005
v -0.084260 -1.044874 -0.032118
v -0.085213 -1.044896 -0.030378
v -0.087107 -1.044778 -0.029757
v -0.088895 -1.044641 -0.029605
v -0.090679 -1.044499 -0.029539
v -0.092906 -1.044319 -0.029509
v -0.094913 -1.044086 -0.030724
v -0.095958 -1.043877 -0.032873
v -0.095737 -1.043759 -0.035232
v -0.094492 -1.043753 -0.037119
v -0.093027 -1.043793 -0.038496
v -0.091431 -1.043863 -0.039544
v -0.089597 -1.043974 -0.040215
v -0.087601 -1.044143 -0.040110
v -0.085966 -1.044340 -0.038992
v -0.084934 -1.044515 -0.037421
v -0.086442 -1.065651 -0.038592
v -0.086515 -1.065743 -0.036750
v -0.086905 -1.065801 -0.034967
v -0.087786 -1.065808 -0.033262
v -0.089316 -1.065729 -0.031981
v -0.091275 -1.065566 -0.031493
v -0.093242 -1.065358 -0.031841
v -0.095294 -1.065134 -0.032314
v -0.097768 -1.064849 -0.033182
v -0.098663 -1.064635 -0.035549
v -0.098147 -1.064554 -0.037978
v -0.096798 -1.064586 -0.039806
v -0.095241 -1.064671 -0.041018
v -0.093715 -1.064769 -0.041948
v -0.092018 -1.064893 -0.042685
v -0.090017 -1.065071 -0.042957
v -0.088029 -1.065300 -0.042268
v -0.086820 -1.065509 -0.040550
v -0.087438 -1.088674 -0.041041
v -0.087490 -1.088796 -0.038950
v -0.088352 -1.088846 -0.037119
v -0.089627 -1.088844 -0.035681
v -0.091307 -1.088773 -0.034896
v -0.093046 -1.088669 -0.034612
v -0.094811 -1.088543 -0.034644
v -0.096589 -1.088386 -0.035187
v -0.099023 -1.088179 -0.035790
v -0.100150 -1.087973 -0.037901
v -0.099495 -1.087878 -0.040229
v -0.098177 -1.087868 -0.041931
v -0.096742 -1.087899 -0.043086
v -0.095286 -1.087950 -0.043927
v -0.093692 -1.088025 -0.044534
v -0.091814 -1.088135 -0.044895
v -0.089636 -1.088302 -0.044665
v -0.087997 -1.088506 -0.043174
v -0.089646 -1.112372 -0.043261
v -0.089695 -1.112509 -0.041001
v -0.090825 -1.112556 -0.039118
v -0.092452 -1.112528 -0.037932
v -0.094132 -1.112462 -0.037321
v -0.095758 -1.112370 -0.037168
v -0.097282 -1.112256 -0.037472
v -0.098734 -1.112131 -0.038026
v -0.100465 -1.111980 -0.038730
v -0.101882 -1.111797 -0.040249
v -0.101451 -1.111699 -0.042269
v -0.100327 -1.111674 -0.043792
v -0.099115 -1.111681 -0.044893
v -0.097836 -1.111706 -0.045770
v -0.096346 -1.111758 -0.046424
v -0.094560 -1.111849 -0.046746
v -0.092450 -1.111991 -0.046579
v -0.090458 -1.112187 -0.045422
v -0.090600 -1.136609 -0.045946
v -0.090935 -1.136743 -0.043487
v -0.091976 -1.136809 -0.041422
v -0.093564 -1.136806 -0.039945
v -0.095420 -1.136745 -0.039131
v -0.097299 -1.136656 -0.038739
v -0.099243 -1.136537 -0.038770
v -0.101286 -1.136383 -0.039258
v -0.102811 -1.136198 -0.040759
v -0.103442 -1.136032 -0.042788
v -0.103189 -1.135921 -0.044814
v -0.102424 -1.135857 -0.046569
v -0.101292 -1.135834 -0.048032
v -0.099847 -1.135845 -0.049248
v -0.098031 -1.135885 -0.050357
v -0.095704 -1.135997 -0.050817
v -0.093280 -1.136184 -0.050152
v -0.091325 -1.136409 -0.048438
v -0.092636 -1.160320 -0.047986
v -0.092721 -1.160438 -0.046042
v -0.093433 -1.160507 -0.044306
v -0.094504 -1.160539 -0.042814
v -0.095916 -1.160539 -0.041520
v -0.097772 -1.160492 -0.040572
v -0.099916 -1.160364 -0.040640
v -0.101698 -1.160187 -0.041813
v -0.103001 -1.160012 -0.043392
v -0.103641 -1.159856 -0.045280
v -0.103558 -1.159739 -0.047211
v -0.103080 -1.159650 -0.049048
v -0.101915 -1.159622 -0.050551
v -0.100379 -1.159639 -0.051689
v -0.098531 -1.159696 -0.052480
v -0.096414 -1.159812 -0.052568
v -0.094505 -1.159984 -0.051598
v -0.093229 -1.160163 -0.049922
v -0.095729 -1.183390 -0.048913
v -0.095684 -1.183469 -0.047578
v -0.095912 -1.183526 -0.046231
v -0.096500 -1.183552 -0.044871
v -0.097562 -1.183532 -0.043612
v -0.099144 -1.183445 -0.042746
v -0.101018 -1.183286 -0.042722
v -0.102616 -1.183093 -0.043701
v -0.103613 -1.182923 -0.045209
v -0.104091 -1.182790 -0.046839
v -0.104117 -1.182695 -0.048474
v -0.103741 -1.182638 -0.050068
v -0.102884 -1.182629 -0.051525
v -0.101553 -1.182678 -0.052684
v -0.099822 -1.182799 -0.053175
v -0.098099 -1.182971 -0.052734
v -0.096824 -1.183144 -0.051618
v -0.096066 -1.183285 -0.050278
v -0.097382 -1.205443 -0.049891
v -0.097442 -1.205536 -0.048167
v -0.097825 -1.205599 -0.046504
v -0.098612 -1.205627 -0.044874
v -0.100068 -1.205573 -0.043688
v -0.101921 -1.205437 -0.043376
v -0.103691 -1.205266 -0.043795
v -0.104975 -1.205092 -0.044979
v -0.105624 -1.204955 -0.046426
v -0.105895 -1.204855 -0.047779
v -0.105951 -1.204777 -0.049070
v -0.105790 -1.204714 -0.050404
v -0.105349 -1.204666 -0.051888
v -0.104383 -1.204656 -0.053480
v -0.102655 -1.204735 -0.054609
v -0.100562 -1.204913 -0.054530
v -0.098836 -1.205124 -0.053367
v -0.097774 -1.205307 -0.051695
v -0.100588 -1.231887 -0.052000
v -0.100535 -1.231968 -0.050316
v -0.100861 -1.231995 -0.048639
v -0.101578 -1.231970 -0.046933
v -0.102930 -1.231848 -0.045442
v -0.104888 -1.231607 -0.044768
v -0.106902 -1.231309 -0.045207
v -0.108355 -1.231048 -0.046581
v -0.109112 -1.230872 -0.048221
v -0.109479 -1.230754 -0.049761
v -0.109621 -1.230669 -0.051271
v -0.109531 -1.230610 -0.052898
v -0.109015 -1.230603 -0.054708
v -0.107728 -1.230709 -0.056360
v -0.105708 -1.230958 -0.057054
v -0.103654 -1.231266 -0.056518
v -0.102074 -1.231539 -0.055264
v -0.101076 -1.231746 -0.053678
v -0.103532 -1.254232 -0.053293
v -0.103561 -1.254287 -0.051214
v -0.104102 -1.254239 -0.049245
v -0.105207 -1.254072 -0.047507
v -0.106876 -1.253780 -0.046271
v -0.108894 -1.253395 -0.045868
v -0.110799 -1.253003 -0.046497
v -0.112025 -1.252718 -0.047994
v -0.112587 -1.252561 -0.049553
v -0.112878 -1.252465 -0.050901
v -0.113029 -1.252397 -0.052208
v -0.113015 -1.252357 -0.053654
v -0.112702 -1.252367 -0.055399
v -0.111759 -1.252493 -0.057440
v -0.109781 -1.252841 -0.058854
v -0.107385 -1.253319 -0.058617
v -0.105464 -1.253738 -0.057200
v -0.104157 -1.254048 -0.055360
v -0.107096 -1.275577 -0.052790
v -0.107326 -1.275678 -0.050971
v -0.107758 -1.275531 -0.049546
v -0.108992 -1.275251 -0.047906
v -0.110305 -1.275131 -0.046960
v -0.112042 -1.275058 -0.046564
v -0.114259 -1.274732 -0.046853
v -0.116182 -1.274413 -0.047938
v -0.117256 -1.274182 -0.049816
v -0.117866 -1.274014 -0.051707
v -0.118121 -1.273895 -0.053660
v -0.117926 -1.273833 -0.055747
v -0.116994 -1.273877 -0.057799
v -0.115256 -1.274053 -0.059415
v -0.113653 -1.274464 -0.059759
v -0.111909 -1.274872 -0.059308
v -0.109734 -1.274979 -0.057921
v -0.107932 -1.275308 -0.055344
v -0.108096 -1.287624 -0.053227
v -0.107041 -1.288113 -0.049989
v -0.107497 -1.288221 -0.047610
v -0.109051 -1.288116 -0.045624
v -0.110872 -1.287509 -0.045540
v -0.113087 -1.287084 -0.045808
v -0.116334 -1.286475 -0.046257
v -0.119184 -1.286354 -0.046677
v -0.121762 -1.285755 -0.049675
v -0.122349 -1.285473 -0.053107
v -0.122169 -1.284959 -0.056641
v -0.121346 -1.284860 -0.059739
v -0.119868 -1.284228 -0.061310
v -0.117575 -1.284371 -0.062444
v -0.115576 -1.284661 -0.062033
v -0.113550 -1.285505 -0.060387
v -0.111436 -1.285973 -0.058444
v -0.109534 -1.286965 -0.056011
v -0.112697 -1.293648 -0.044476
v -0.116935 -1.293355 -0.044847
v -0.120657 -1.291522 -0.045442
v -0.123266 -1.290698 -0.048947
v -0.123449 -1.289664 -0.059437
v -0.122423 -1.288660 -0.061927
v -0.109332 -1.292710 -0.043297
v -0.107455 -1.292711 -0.043593
v -0.108061 -1.298136 -0.044477
v -0.106382 -1.297784 -0.045772
v -0.110252 -1.302246 -0.047399
v -0.108350 -1.302927 -0.048305
v -0.113467 -1.304857 -0.048981
v -0.112282 -1.306537 -0.050286
v -0.117680 -1.307358 -0.050540
v -0.115929 -1.309283 -0.052283
v -0.120007 -1.307490 -0.052653
v -0.119095 -1.309802 -0.054905
v -0.122014 -1.305400 -0.054557
v -0.120564 -1.306853 -0.057980
v -0.122908 -1.301171 -0.056711
v -0.121064 -1.302375 -0.059903
v -0.120170 -1.298028 -0.061849
v -0.122552 -1.296845 -0.058874
v -0.119375 -1.293272 -0.064634
v -0.120412 -1.288684 -0.064246
v -0.115142 -1.289398 -0.063459
v -0.113305 -1.290292 -0.061772
v -0.111617 -1.291556 -0.059318
v -0.109739 -1.292875 -0.056824
v -0.107904 -1.293385 -0.053724
v -0.106754 -1.292866 -0.050121
v -0.106277 -1.292632 -0.046567
v -0.117209 -1.288568 -0.064457
v -0.117691 -1.298700 -0.062208
v -0.117954 -1.302865 -0.060629
v -0.118253 -1.306284 -0.059406
v -0.116805 -1.308310 -0.056380
v -0.115174 -1.307951 -0.054502
v -0.112163 -1.305553 -0.052557
v -0.108751 -1.301346 -0.050052
v -0.106763 -1.296574 -0.047864
v -0.114348 -1.303568 -0.057391
v -0.110190 -1.299747 -0.052746
v -0.114790 -1.292471 -0.062681
v -0.107952 -1.296521 -0.050035
v -0.113610 -1.293512 -0.060957
v -0.112472 -1.294514 -0.058950
v -0.110650 -1.295292 -0.056191
v -0.108884 -1.295308 -0.053246
v -0.116618 -1.302400 -0.048207
v -0.118572 -1.303949 -0.049114
v -0.120557 -1.303928 -0.050240
v -0.122098 -1.302296 -0.051712
v -0.123264 -1.299804 -0.053262
v -0.123668 -1.297269 -0.054653
v -0.123658 -1.290486 -0.054201
v -0.113474 -1.299989 -0.046809
v -0.112133 -1.296839 -0.045219
v -0.116582 -1.296375 -0.045712
v -0.117034 -1.298424 -0.046613
v -0.121039 -1.300605 -0.048290
v -0.123433 -1.296959 -0.049620
v -0.123895 -1.293388 -0.054795
v -0.122959 -1.294268 -0.059635
v -0.123673 -1.293844 -0.049179
v -0.121245 -1.295827 -0.046000
v -0.122080 -1.293856 -0.062213
v -0.115473 -1.296974 -0.061906
v -0.116536 -1.292916 -0.064185
f 28 29 30
f 28 30 31
f 23 4 25
f 23 25 27
f 27 25 29
f 27 29 28
f 22 3 4
f 22 4 23
f 19 17 13
f 19 13 11
f 28 31 39
f 28 39 40
f 43 17 19
f 43 19 44
f 40 39 43
f 40 43 44
f 22 23 27
f 22 27 41
f 20 9 8
f 20 8 21
f 20 19 11
f 20 11 9
f 27 28 40
f 27 40 41
f 24 6 3
f 24 3 22
f 44 19 20
f 44 20 45
f 45 20 21
f 45 21 24
f 24 21 8
f 24 8 6
f 24 22 41
f 24 41 45
f 41 40 44
f 41 44 45
f 5 6 8
f 5 8 7
f 2 3 6
f 2 6 5
f 4 3 2
f 4 2 1
f 26 25 4
f 26 4 1
f 29 25 26
f 29 26 32
f 30 29 32
f 30 32 33
f 34 30 33
f 34 33 35
f 49 48 34
f 49 34 35
f 59 58 5
f 59 5 7
f 7 8 9
f 7 9 10
f 12 10 9
f 12 9 11
f 14 12 11
f 14 11 13
f 75 59 7
f 75 7 10
f 76 75 10
f 76 10 12
f 76 12 14
f 76 14 77
f 52 53 54
f 52 54 55
f 50 51 53
f 50 53 52
f 50 48 49
f 50 49 51
f 37 31 30
f 37 30 36
f 36 30 34
f 36 34 46
f 47 46 34
f 47 34 48
f 47 48 50
f 47 50 83
f 39 31 37
f 39 37 38
f 43 39 38
f 43 38 42
f 18 17 43
f 18 43 42
f 90 42 38
f 90 38 89
f 89 38 37
f 89 37 84
f 85 84 37
f 85 37 36
f 86 85 36
f 86 36 46
f 87 86 46
f 87 46 47
f 88 87 47
f 88 47 83
f 83 50 52
f 83 52 82
f 82 52 55
f 82 55 81
f 81 55 57
f 81 57 72
f 73 59 75
f 73 75 79
f 80 79 75
f 80 75 76
f 80 76 77
f 80 77 78
f 15 13 17
f 15 17 18
f 18 42 90
f 18 90 91
f 78 77 14
f 78 14 16
f 16 14 13
f 16 13 15
f 15 18 91
f 15 91 108
f 74 72 57
f 74 57 58
f 58 59 73
f 58 73 74
f 101 88 83
f 101 83 82
f 102 101 82
f 102 82 81
f 103 102 81
f 103 81 72
f 110 103 72
f 110 72 74
f 110 74 73
f 110 73 104
f 105 104 73
f 105 73 79
f 106 105 79
f 106 79 80
f 107 106 80
f 107 80 78
f 109 107 78
f 109 78 16
f 109 16 15
f 109 15 108
f 157 156 138
f 157 138 139
f 158 157 139
f 158 139 140
f 159 158 140
f 159 140 141
f 160 159 141
f 160 141 142
f 161 160 142
f 161 142 143
f 162 161 143
f 162 143 144
f 163 162 144
f 163 144 145
f 164 163 145
f 164 145 146
f 165 164 146
f 165 146 147
f 166 165 147
f 166 147 148
f 167 166 148
f 167 148 149
f 168 167 149
f 168 149 150
f 169 168 150
f 169 150 151
f 170 169 151
f 170 151 152
f 171 170 152
f 171 152 153
f 172 171 153
f 172 153 154
f 173 172 154
f 173 154 155
f 155 138 156
f 155 156 173
f 119 118 107
f 119 107 109
f 135 134 118
f 135 118 119
f 153 152 134
f 153 134 135
f 119 109 108
f 119 108 92
f 136 135 119
f 136 119 92
f 154 153 135
f 154 135 136
f 117 106 107
f 117 107 118
f 117 118 134
f 117 134 133
f 133 134 152
f 133 152 151
f 116 105 106
f 116 106 117
f 116 117 133
f 116 133 132
f 132 133 151
f 132 151 150
f 115 104 105
f 115 105 116
f 115 116 132
f 115 132 131
f 131 132 150
f 131 150 149
f 114 110 104
f 114 104 115
f 114 115 131
f 114 131 130
f 130 131 149
f 130 149 148
f 113 103 110
f 113 110 114
f 113 114 130
f 113 130 129
f 129 130 148
f 129 148 147
f 112 102 103
f 112 103 113
f 112 113 129
f 112 129 128
f 128 129 147
f 128 147 146
f 92 108 91
f 92 91 93
f 137 136 92
f 137 92 93
f 155 154 136
f 155 136 137
f 94 93 91
f 94 91 90
f 120 137 93
f 120 93 94
f 138 155 137
f 138 137 120
f 95 94 90
f 95 90 89
f 121 120 94
f 121 94 95
f 139 138 120
f 139 120 121
f 96 95 89
f 96 89 84
f 122 121 95
f 122 95 96
f 140 139 121
f 140 121 122
f 97 96 84
f 97 84 85
f 123 122 96
f 123 96 97
f 141 140 122
f 141 122 123
f 98 97 85
f 98 85 86
f 124 123 97
f 124 97 98
f 142 141 123
f 142 123 124
f 99 98 86
f 99 86 87
f 125 124 98
f 125 98 99
f 143 142 124
f 143 124 125
f 100 99 87
f 100 87 88
f 126 125 99
f 126 99 100
f 144 143 125
f 144 125 126
f 111 100 88
f 111 88 101
f 127 126 100
f 127 100 111
f 111 101 102
f 111 102 112
f 111 112 128
f 111 128 127
f 145 144 126
f 145 126 127
f 127 128 146
f 127 146 145
f 60 71 194
f 60 194 193
f 196 2 5
f 196 5 195
f 61 60 193
f 61 193 192
f 196 195 60
f 196 60 61
f 197 1 2
f 197 2 196
f 197 196 61
f 197 61 62
f 63 62 61
f 63 61 192
f 198 197 62
f 198 62 63
f 198 26 1
f 198 1 197
f 199 198 63
f 199 63 64
f 199 32 26
f 199 26 198
f 65 64 63
f 65 63 192
f 200 199 64
f 200 64 65
f 200 33 32
f 200 32 199
f 66 65 192
f 66 192 193
f 201 200 65
f 201 65 66
f 201 35 33
f 201 33 200
f 67 66 193
f 67 193 194
f 202 201 66
f 202 66 67
f 202 49 35
f 202 35 201
f 203 202 67
f 203 67 68
f 203 51 49
f 203 49 202
f 69 68 67
f 69 67 194
f 204 203 68
f 204 68 69
f 204 53 51
f 204 51 203
f 206 195 5
f 206 5 56
f 70 69 194
f 70 194 71
f 205 204 69
f 205 69 70
f 205 54 53
f 205 53 204
f 57 55 54
f 57 54 56
f 56 54 205
f 56 205 206
f 5 58 57
f 5 57 56
f 205 70 71
f 205 71 206
f 206 71 60
f 206 60 195
f 244 243 225
f 244 225 226
f 245 244 226
f 245 226 227
f 246 245 227
f 246 227 228
f 247 246 228
f 247 228 229
f 248 247 229
f 248 229 230
f 249 248 230
f 249 230 231
f 250 249 231
f 250 231 232
f 251 250 232
f 251 232 233
f 252 251 233
f 252 233 234
f 253 252 234
f 253 234 235
f 254 253 235
f 254 235 236
f 255 254 236
f 255 236 237
f 256 255 237
f 256 237 238
f 257 256 238
f 257 238 239
f 258 257 239
f 258 239 240
f 259 258 240
f 259 240 241
f 260 259 241
f 260 241 242
f 242 225 243
f 242 243 260
f 262 261 243
f 262 243 244
f 263 262 244
f 263 244 245
f 264 263 245
f 264 245 246
f 265 264 246
f 265 246 247
f 266 265 247
f 266 247 248
f 267 266 248
f 267 248 249
f 268 267 249
f 268 249 250
f 269 268 250
f 269 250 251
f 270 269 251
f 270 251 252
f 271 270 252
f 271 252 253
f 272 271 253
f 272 253 254
f 273 272 254
f 273 254 255
f 274 273 255
f 274 255 256
f 275 274 256
f 275 256 257
f 276 275 257
f 276 257 258
f 277 276 258
f 277 258 259
f 278 277 259
f 278 259 260
f 260 243 261
f 260 261 278
f 280 279 261
f 280 261 262
f 281 280 262
f 281 262 263
f 282 281 263
f 282 263 264
f 283 282 264
f 283 264 265
f 284 283 265
f 284 265 266
f 285 284 266
f 285 266 267
f 286 285 267
f 286 267 268
f 287 286 268
f 287 268 269
f 288 287 269
f 288 269 270
f 289 288 270
f 289 270 271
f 290 289 271
f 290 271 272
f 291 290 272
f 291 272 273
f 292 291 273
f 292 273 274
f 293 292 274
f 293 274 275
f 294 293 275
f 294 275 276
f 295 294 276
f 295 276 277
f 296 295 277
f 296 277 278
f 278 261 279
f 278 279 296
f 298 297 279
f 298 279 280
f 299 298 280
f 299 280 281
f 300 299 281
f 300 281 282
f 301 300 282
f 301 282 283
f 302 301 283
f 302 283 284
f 303 302 284
f 303 284 285
f 304 303 285
f 304 285 286
f 305 304 286
f 305 286 287
f 306 305 287
f 306 287 288
f 307 306 288
f 307 288 289
f 308 307 289
f 308 289 290
f 309 308 290
f 309 290 291
f 310 309 291
f 310 291 292
f 311 310 292
f 311 292 293
f 312 311 293
f 312 293 294
f 313 312 294
f 313 294 295
f 314 313 295
f 314 295 296
f 296 279 297
f 296 297 314
f 316 315 297
f 316 297 298
f 317 316 298
f 317 298 299
f 318 317 299
f 318 299 300
f 319 318 300
f 319 300 301
f 320 319 301
f 320 301 302
f 321 320 302
f 321 302 303
f 322 321 303
f 322 303 304
f 323 322 304
f 323 304 305
f 324 323 305
f 324 305 306
f 325 324 306
f 325 306 307
f 326 325 307
f 326 307 308
f 327 326 308
f 327 308 309
f 328 327 309
f 328 309 310
f 329 328 310
f 329 310 311
f 330 329 311
f 330 311 312
f 331 330 312
f 331 312 313
f 332 331 313
f 332 313 314
f 314 297 315
f 314 315 332
f 334 333 315
f 334 315 316
f 335 334 316
f 335 316 317
f 336 335 317
f 336 317 318
f 337 336 318
f 337 318 319
f 338 337 319
f 338 319 320
f 339 338 320
f 339 320 321
f 340 339 321
f 340 321 322
f 341 340 322
f 341 322 323
f 342 341 323
f 342 323 324
f 343 342 324
f 343 324 325
f 344 343 325
f 344 325 326
f 345 344 326
f 345 326 327
f 346 345 327
f 346 327 328
f 347 346 328
f 347 328 329
f 348 347 329
f 348 329 330
f 349 348 330
f 349 330 331
f 350 349 331
f 350 331 332
f 332 315 333
f 332 333 350
f 352 351 333
f 352 333 334
f 353 352 334
f 353 334 335
f 354 353 335
f 354 335 336
f 355 354 336
f 355 336 337
f 356 355 337
f 356 337 338
f 357 356 338
f 357 338 339
f 358 357 339
f 358 339 340
f 359 358 340
f 359 340 341
f 360 359 341
f 360 341 342
f 361 360 342
f 361 342 343
f 362 361 343
f 362 343 344
f 363 362 344
f 363 344 345
f 364 363 345
f 364 345 346
f 365 364 346
f 365 346 347
f 366 365 347
f 366 347 348
f 367 366 348
f 367 348 349
f 368 367 349
f 368 349 350
f 350 333 351
f 350 351 368
f 370 369 351
f 370 351 352
f 371 370 352
f 371 352 353
f 372 371 353
f 372 353 354
f 373 372 354
f 373 354 355
f 374 373 355
f 374 355 356
f 375 374 356
f 375 356 357
f 376 375 357
f 376 357 358
f 377 376 358
f 377 358 359
f 378 377 359
f 378 359 360
f 379 378 360
f 379 360 361
f 380 379 361
f 380 361 362
f 381 380 362
f 381 362 363
f 382 381 363
f 382 363 364
f 383 382 364
f 383 364 365
f 384 383 365
f 384 365 366
f 385 384 366
f 385 366 367
f 386 385 367
f 386 367 368
f 368 351 369
f 368 369 386
f 388 387 369
f 388 369 370
f 389 388 370
f 389 370 371
f 390 389 371
f 390 371 372
f 391 390 372
f 391 372 373
f 392 391 373
f 392 373 374
f 393 392 374
f 393 374 375
f 394 393 375
f 394 375 376
f 395 394 376
f 395 376 377
f 396 395 377
f 396 377 378
f 397 396 378
f 397 378 379
f 398 397 379
f 398 379 380
f 399 398 380
f 399 380 381
f 400 399 381
f 400 381 382
f 401 400 382
f 401 382 383
f 402 401 383
f 402 383 384
f 403 402 384
f 403 384 385
f 404 403 385
f 404 385 386
f 386 369 387
f 386 387 404
f 406 405 387
f 406 387 388
f 407 406 388
f 407 388 389
f 408 407 389
f 408 389 390
f 409 408 390
f 409 390 391
f 410 409 391
f 410 391 392
f 411 410 392
f 411 392 393
f 412 411 393
f 412 393 394
f 413 412 394
f 413 394 395
f 414 413 395
f 414 395 396
f 415 414 396
f 415 396 397
f 416 415 397
f 416 397 398
f 417 416 398
f 417 398 399
f 418 417 399
f 418 399 400
f 419 418 400
f 419 400 401
f 420 419 401
f 420 401 402
f 421 420 402
f 421 402 403
f 422 421 403
f 422 403 404
f 404 387 405
f 404 405 422
f 165 166 184
f 165 184 183
f 183 184 211
f 183 211 210
f 210 211 229
f 210 229 228
f 164 165 183
f 164 183 182
f 182 183 210
f 182 210 209
f 209 210 228
f 209 228 227
f 163 164 182
f 163 182 181
f 181 182 209
f 181 209 208
f 208 209 227
f 208 227 226
f 162 163 181
f 162 181 180
f 180 181 208
f 180 208 207
f 207 208 226
f 207 226 225
f 161 162 180
f 161 180 179
f 179 180 207
f 179 207 224
f 224 207 225
f 224 225 242
f 160 161 179
f 160 179 178
f 178 179 224
f 178 224 223
f 223 224 242
f 223 242 241
f 159 160 178
f 159 178 177
f 177 178 223
f 177 223 222
f 222 223 241
f 222 241 240
f 158 159 177
f 158 177 176
f 176 177 222
f 176 222 221
f 221 222 240
f 221 240 239
f 175 174 156
f 175 156 157
f 220 219 174
f 220 174 175
f 157 158 176
f 157 176 175
f 175 176 221
f 175 221 220
f 238 237 219
f 238 219 220
f 220 221 239
f 220 239 238
f 191 190 172
f 191 172 173
f 218 217 190
f 218 190 191
f 173 156 174
f 173 174 191
f 191 174 219
f 191 219 218
f 236 235 217
f 236 217 218
f 218 219 237
f 218 237 236
f 171 172 190
f 171 190 189
f 189 190 217
f 189 217 216
f 216 217 235
f 216 235 234
f 185 184 166
f 185 166 167
f 212 211 184
f 212 184 185
f 230 229 211
f 230 211 212
f 186 185 167
f 186 167 168
f 213 212 185
f 213 185 186
f 231 230 212
f 231 212 213
f 187 186 168
f 187 168 169
f 214 213 186
f 214 186 187
f 232 231 213
f 232 213 214
f 188 187 169
f 188 169 170
f 215 214 187
f 215 187 188
f 170 171 189
f 170 189 188
f 188 189 216
f 188 216 215
f 233 232 214
f 233 214 215
f 215 216 234
f 215 234 233
f 429 428 410
f 429 410 411
f 430 429 411
f 430 411 412
f 431 430 412
f 431 412 413
f 409 410 428
f 409 428 427
f 408 409 427
f 408 427 426
f 438 437 419
f 438 419 420
f 439 438 420
f 439 420 421
f 440 439 421
f 440 421 422
f 423 440 422
f 423 422 405
f 424 423 405
f 424 405 406
f 425 424 406
f 425 406 407
f 407 408 426
f 407 426 425
f 448 426 427
f 448 427 447
f 436 435 417
f 436 417 418
f 418 419 437
f 418 437 436
f 473 425 426
f 473 426 448
f 458 460 477
f 458 477 478
f 479 456 458
f 479 458 478
f 477 460 462
f 477 462 476
f 454 456 479
f 454 479 480
f 481 452 454
f 481 454 480
f 450 452 481
f 450 481 482
f 473 448 450
f 473 450 482
f 472 424 425
f 472 425 473
f 468 467 437
f 468 437 438
f 469 468 438
f 469 438 439
f 470 469 439
f 470 439 440
f 471 470 440
f 471 440 423
f 471 423 424
f 471 424 472
f 472 473 482
f 472 482 486
f 490 471 472
f 490 472 486
f 489 470 471
f 489 471 490
f 434 433 415
f 434 415 416
f 416 417 435
f 416 435 434
f 456 454 453
f 456 453 455
f 458 456 455
f 458 455 457
f 460 458 457
f 460 457 459
f 462 460 459
f 462 459 461
f 453 454 452
f 453 452 451
f 451 452 450
f 451 450 449
f 450 448 447
f 450 447 449
f 447 427 428
f 447 428 441
f 442 441 428
f 442 428 429
f 499 449 447
f 499 447 441
f 498 451 449
f 498 449 499
f 457 455 492
f 457 492 493
f 494 459 457
f 494 457 493
f 492 455 453
f 492 453 491
f 491 453 451
f 491 451 498
f 461 459 494
f 461 494 495
f 432 431 413
f 432 413 414
f 414 415 433
f 414 433 432
f 464 461 495
f 464 495 496
f 499 441 442
f 499 442 500
f 501 498 499
f 501 499 500
f 491 498 501
f 491 501 502
f 503 496 495
f 503 495 502
f 443 430 431
f 443 431 444
f 443 442 429
f 443 429 430
f 502 501 500
f 502 500 507
f 502 493 492
f 502 492 491
f 495 494 493
f 495 493 502
f 507 443 444
f 507 444 506
f 506 504 496
f 506 496 503
f 506 503 502
f 506 502 507
f 500 442 443
f 500 443 507
f 497 444 431
f 497 431 432
f 504 506 444
f 504 444 497
f 497 432 433
f 497 433 445
f 486 482 481
f 486 481 484
f 488 469 470
f 488 470 489
f 489 490 486
f 489 486 484
f 505 464 496
f 505 496 504
f 505 504 497
f 505 497 445
f 446 445 433
f 446 433 434
f 446 434 435
f 446 435 466
f 508 505 445
f 508 445 446
f 474 466 435
f 474 435 436
f 463 462 461
f 463 461 464
f 463 464 505
f 463 505 508
f 484 481 480
f 484 480 483
f 478 477 476
f 478 476 483
f 480 479 478
f 480 478 483
f 488 489 484
f 488 484 483
f 476 462 463
f 476 463 475
f 487 468 469
f 487 469 488
f 509 483 476
f 509 476 475
f 474 436 437
f 474 437 467
f 508 446 466
f 508 466 465
f 465 475 463
f 465 463 508
f 487 488 483
f 487 483 509
f 465 466 474
f 465 474 510
f 485 467 468
f 485 468 487
f 510 474 467
f 510 467 485
f 485 487 509
f 485 509 510
f 509 475 465
f 509 465 510
