# Fibula_L posed
v 0.370022 -0.133374 0.301456
v 0.374000 -0.130951 0.298252
v 0.375592 -0.133867 0.298236
v 0.371337 -0.136320 0.301602
v 0.381138 -0.127800 0.294129
v 0.379630 -0.131769 0.295304
v 0.386232 -0.128581 0.293108
v 0.383341 -0.133286 0.293651
v 0.386116 -0.137061 0.294555
v 0.390031 -0.134431 0.294382
v 0.387374 -0.142016 0.299244
v 0.391923 -0.138889 0.297461
v 0.388129 -0.143265 0.303961
v 0.393353 -0.141041 0.302481
v 0.393305 -0.142098 0.307960
v 0.395287 -0.140434 0.305885
v 0.385685 -0.142334 0.306092
v 0.391861 -0.141463 0.309887
v 0.384200 -0.141097 0.301995
v 0.384085 -0.139609 0.298914
v 0.382589 -0.137473 0.297624
v 0.377300 -0.136827 0.299584
v 0.374649 -0.137627 0.302167
v 0.380149 -0.136523 0.298113
v 0.368976 -0.137723 0.305577
v 0.366883 -0.135790 0.306582
v 0.374447 -0.137845 0.306101
v 0.375235 -0.137922 0.309356
v 0.371344 -0.136905 0.311155
v 0.376870 -0.135211 0.314851
v 0.378928 -0.137584 0.312917
v 0.370147 -0.135122 0.311394
v 0.374287 -0.133163 0.315025
v 0.380554 -0.130993 0.316791
v 0.377986 -0.129060 0.317175
v 0.384517 -0.135275 0.316427
v 0.385130 -0.137454 0.315053
v 0.389108 -0.138017 0.312920
v 0.382555 -0.138745 0.310145
v 0.379843 -0.138635 0.306902
v 0.378085 -0.138315 0.303747
v 0.390913 -0.139344 0.311455
v 0.383981 -0.140401 0.307768
v 0.381882 -0.139856 0.304479
v 0.381119 -0.138872 0.301334
v 0.386828 -0.130654 0.316469
v 0.389908 -0.125835 0.317407
v 0.384703 -0.125148 0.317912
v 0.381396 -0.124325 0.317109
v 0.386803 -0.120566 0.315912
v 0.384067 -0.120269 0.314626
v 0.389867 -0.118058 0.309662
v 0.386481 -0.118320 0.308422
v 0.387238 -0.119122 0.301868
v 0.391366 -0.119024 0.302559
v 0.385820 -0.124186 0.298056
v 0.389984 -0.123689 0.298806
v 0.388202 -0.125941 0.297330
v 0.388675 -0.127671 0.295904
v 0.380516 -0.126639 0.299642
v 0.376147 -0.129268 0.302282
v 0.372923 -0.131108 0.304232
v 0.370431 -0.132614 0.306817
v 0.372054 -0.131850 0.309328
v 0.374520 -0.129932 0.310886
v 0.377156 -0.127446 0.312427
v 0.379716 -0.124888 0.312511
v 0.381775 -0.122906 0.311566
v 0.383176 -0.122068 0.307857
v 0.383852 -0.122123 0.303477
v 0.383068 -0.124312 0.300998
v 0.395857 -0.123961 0.300088
v 0.395673 -0.128696 0.301445
v 0.395530 -0.126586 0.300644
v 0.392005 -0.132987 0.297604
v 0.393548 -0.136078 0.299801
v 0.394606 -0.139282 0.302877
v 0.396291 -0.139066 0.304986
v 0.396239 -0.132379 0.301525
v 0.396573 -0.135415 0.301830
v 0.395264 -0.119917 0.304093
v 0.394116 -0.119227 0.310035
v 0.391913 -0.121459 0.315708
v 0.394025 -0.135504 0.316022
v 0.393362 -0.133729 0.317803
v 0.393490 -0.130159 0.318545
v 0.394603 -0.126204 0.318466
v 0.395954 -0.121967 0.315961
v 0.394842 -0.136613 0.313819
v 0.395422 -0.137513 0.312491
v 0.396179 -0.139543 0.310664
v 0.404447 -0.137330 0.311014
v 0.404259 -0.136941 0.312497
v 0.404134 -0.136174 0.314045
v 0.403937 -0.135337 0.315598
v 0.403733 -0.134383 0.317080
v 0.403560 -0.132554 0.318526
v 0.403519 -0.129634 0.319149
v 0.403926 -0.126401 0.318340
v 0.404340 -0.123171 0.316076
v 0.397849 -0.119801 0.310440
v 0.399298 -0.120816 0.305440
v 0.400124 -0.124779 0.302471
v 0.399338 -0.128789 0.303138
v 0.399714 -0.132477 0.303269
v 0.399788 -0.135013 0.303578
v 0.398789 -0.138244 0.306004
v 0.397023 -0.139859 0.309591
v 0.398358 -0.139000 0.307073
v 0.399600 -0.126983 0.302791
v 0.405047 -0.121170 0.311046
v 0.405312 -0.122401 0.307223
v 0.405340 -0.125359 0.305181
v 0.405312 -0.127366 0.305215
v 0.405240 -0.129284 0.305350
v 0.405184 -0.132190 0.305560
v 0.404841 -0.134696 0.305902
v 0.404676 -0.136784 0.307866
v 0.404435 -0.137270 0.309156
v 0.418734 -0.133774 0.317982
v 0.418567 -0.132724 0.319528
v 0.418492 -0.131472 0.320380
v 0.418562 -0.129177 0.320319
v 0.418745 -0.127446 0.319720
v 0.418768 -0.125901 0.318920
v 0.419029 -0.124128 0.317118
v 0.419496 -0.123049 0.314148
v 0.419743 -0.123600 0.311418
v 0.419942 -0.125475 0.309718
v 0.420015 -0.127170 0.309019
v 0.420119 -0.129261 0.308935
v 0.420096 -0.131330 0.309384
v 0.419842 -0.133211 0.310254
v 0.419674 -0.134403 0.311719
v 0.419452 -0.134735 0.313151
v 0.419220 -0.134732 0.314792
v 0.418940 -0.134396 0.316442
v 0.436648 -0.133285 0.322216
v 0.436478 -0.131689 0.323473
v 0.436452 -0.129657 0.323565
v 0.436522 -0.127850 0.322920
v 0.436642 -0.126391 0.321899
v 0.436796 -0.125215 0.320633
v 0.436980 -0.124135 0.319126
v 0.437224 -0.123498 0.317173
v 0.437497 -0.123852 0.315050
v 0.437788 -0.125395 0.313091
v 0.437845 -0.127201 0.312488
v 0.437849 -0.129254 0.312568
v 0.437807 -0.131085 0.312995
v 0.437721 -0.132785 0.313760
v 0.437562 -0.134158 0.315080
v 0.437347 -0.135050 0.316818
v 0.437095 -0.135220 0.318803
v 0.436849 -0.134588 0.320706
v 0.453124 -0.134170 0.324378
v 0.453005 -0.132406 0.325239
v 0.452914 -0.130538 0.325890
v 0.452990 -0.128665 0.325256
v 0.453144 -0.127269 0.324048
v 0.453299 -0.126033 0.322824
v 0.453493 -0.124865 0.321313
v 0.453753 -0.124228 0.319312
v 0.454054 -0.124354 0.317013
v 0.454296 -0.125824 0.315206
v 0.454408 -0.127976 0.314402
v 0.454405 -0.130122 0.314487
v 0.454331 -0.131980 0.315096
v 0.454215 -0.133573 0.316029
v 0.454049 -0.134883 0.317328
v 0.453832 -0.135759 0.319006
v 0.453579 -0.136048 0.320948
v 0.453321 -0.135568 0.322912
v 0.468070 -0.133797 0.325419
v 0.468008 -0.132430 0.326359
v 0.467926 -0.130439 0.326786
v 0.468102 -0.127970 0.326270
v 0.468256 -0.126408 0.325238
v 0.468470 -0.125394 0.323755
v 0.468696 -0.124574 0.322186
v 0.468954 -0.124251 0.320364
v 0.469215 -0.124684 0.318496
v 0.469592 -0.126233 0.316480
v 0.469544 -0.128100 0.315759
v 0.469363 -0.130136 0.315806
v 0.469312 -0.131993 0.316475
v 0.469175 -0.133305 0.317358
v 0.469190 -0.134172 0.318301
v 0.468951 -0.135030 0.319963
v 0.468679 -0.135312 0.321880
v 0.468405 -0.134886 0.323845
v 0.376072 -0.129997 0.306772
v 0.379173 -0.127538 0.306868
v 0.381570 -0.124571 0.307046
v 0.380592 -0.126481 0.296681
v 0.374014 -0.129627 0.299286
v 0.370118 -0.131958 0.302620
v 0.367452 -0.134344 0.306549
v 0.369802 -0.133637 0.310615
v 0.373132 -0.131034 0.314082
v 0.376338 -0.127986 0.315616
v 0.379980 -0.123941 0.315531
v 0.382507 -0.120981 0.313477
v 0.385052 -0.119347 0.307982
v 0.385808 -0.119932 0.302408
v 0.384652 -0.124047 0.298794
v 0.489827 -0.124404 0.323689
v 0.489925 -0.124424 0.321447
v 0.490013 -0.125335 0.319393
v 0.490079 -0.126921 0.317832
v 0.490103 -0.129008 0.317220
v 0.490089 -0.131033 0.317472
v 0.490049 -0.132687 0.318336
v 0.489999 -0.133962 0.319448
v 0.489939 -0.134852 0.320793
v 0.489872 -0.135387 0.322301
v 0.489800 -0.135495 0.323949
v 0.489729 -0.135018 0.325601
v 0.489669 -0.133935 0.327015
v 0.489628 -0.132375 0.327984
v 0.489611 -0.130519 0.328444
v 0.489616 -0.128467 0.328396
v 0.489663 -0.126621 0.327373
v 0.489739 -0.125342 0.325674
v 0.514104 -0.125392 0.325353
v 0.514180 -0.125346 0.323604
v 0.514261 -0.125684 0.321755
v 0.514331 -0.126823 0.320146
v 0.514347 -0.128768 0.319752
v 0.514343 -0.130556 0.319810
v 0.514336 -0.132330 0.319952
v 0.514325 -0.134540 0.320182
v 0.514261 -0.136392 0.321617
v 0.514162 -0.137187 0.323862
v 0.514061 -0.136705 0.326169
v 0.513987 -0.135260 0.327888
v 0.513936 -0.133655 0.329080
v 0.513900 -0.131958 0.329930
v 0.513881 -0.130066 0.330379
v 0.513897 -0.128101 0.330043
v 0.513955 -0.126606 0.328747
v 0.514028 -0.125759 0.327074
v 0.535106 -0.125565 0.327930
v 0.535177 -0.125844 0.326118
v 0.535240 -0.126430 0.324401
v 0.535289 -0.127494 0.322819
v 0.535308 -0.129155 0.321731
v 0.535288 -0.131153 0.321478
v 0.535233 -0.133064 0.322052
v 0.535173 -0.135046 0.322758
v 0.535088 -0.137402 0.323905
v 0.534976 -0.138024 0.326349
v 0.534890 -0.137241 0.328689
v 0.534846 -0.135698 0.330339
v 0.534829 -0.134018 0.331355
v 0.534824 -0.132401 0.332096
v 0.534830 -0.130636 0.332626
v 0.534860 -0.128621 0.332661
v 0.534928 -0.126727 0.331749
v 0.535021 -0.125721 0.329910
v 0.558033 -0.124581 0.329947
v 0.558129 -0.124865 0.327885
v 0.558218 -0.125922 0.326175
v 0.558292 -0.127345 0.324902
v 0.558337 -0.129095 0.324321
v 0.558360 -0.130848 0.324243
v 0.558369 -0.132591 0.324479
v 0.558354 -0.134290 0.325222
v 0.558340 -0.136632 0.326101
v 0.558250 -0.137512 0.328318
v 0.558139 -0.136604 0.330544
v 0.558053 -0.135110 0.332073
v 0.557992 -0.133560 0.333049
v 0.557945 -0.132026 0.333710
v 0.557908 -0.130380 0.334126
v 0.557881 -0.128482 0.334264
v 0.557879 -0.126352 0.333784
v 0.557938 -0.124896 0.332119
v 0.581716 -0.124767 0.331860
v 0.581825 -0.125068 0.329632
v 0.581930 -0.126395 0.327902
v 0.582009 -0.128136 0.326917
v 0.582060 -0.129865 0.326508
v 0.582090 -0.131491 0.326546
v 0.582096 -0.132965 0.327023
v 0.582089 -0.134339 0.327738
v 0.582078 -0.135972 0.328636
v 0.582025 -0.137205 0.330301
v 0.581922 -0.136554 0.332248
v 0.581834 -0.135273 0.333623
v 0.581765 -0.133951 0.334572
v 0.581706 -0.132588 0.335290
v 0.581655 -0.131042 0.335764
v 0.581616 -0.129239 0.335875
v 0.581595 -0.127171 0.335466
v 0.581624 -0.125330 0.334090
v 0.605847 -0.123626 0.334077
v 0.605971 -0.124230 0.331685
v 0.606086 -0.125490 0.329764
v 0.606182 -0.127225 0.328488
v 0.606250 -0.129151 0.327899
v 0.606297 -0.131053 0.327730
v 0.606326 -0.132972 0.327986
v 0.606334 -0.134938 0.328704
v 0.606285 -0.136279 0.330365
v 0.606196 -0.136678 0.332444
v 0.606095 -0.136201 0.334418
v 0.605998 -0.135249 0.336063
v 0.605910 -0.133967 0.337379
v 0.605829 -0.132402 0.338413
v 0.605748 -0.130483 0.339299
v 0.605690 -0.128130 0.339484
v 0.605685 -0.125807 0.338546
v 0.605737 -0.124065 0.336624
v 0.629528 -0.123662 0.335794
v 0.629624 -0.123962 0.333882
v 0.629722 -0.124860 0.332248
v 0.629814 -0.126085 0.330897
v 0.629902 -0.127625 0.329781
v 0.629982 -0.129566 0.329060
v 0.630017 -0.131678 0.329375
v 0.629992 -0.133309 0.330741
v 0.629938 -0.134422 0.332453
v 0.629857 -0.134845 0.334394
v 0.629761 -0.134547 0.336293
v 0.629663 -0.133871 0.338053
v 0.629568 -0.132551 0.339404
v 0.629485 -0.130906 0.340351
v 0.629413 -0.128990 0.340919
v 0.629371 -0.126888 0.340761
v 0.629385 -0.125108 0.339580
v 0.629444 -0.124033 0.337776
v 0.652638 -0.124915 0.336547
v 0.652695 -0.125021 0.335221
v 0.652749 -0.125397 0.333916
v 0.652800 -0.126132 0.332641
v 0.652843 -0.127324 0.331520
v 0.652864 -0.128989 0.330849
v 0.652846 -0.130848 0.331043
v 0.652789 -0.132322 0.332197
v 0.652715 -0.133141 0.333803
v 0.652642 -0.133432 0.335470
v 0.652573 -0.133276 0.337089
v 0.652510 -0.132725 0.338621
v 0.652457 -0.131713 0.339961
v 0.652421 -0.130264 0.340952
v 0.652418 -0.128494 0.341235
v 0.652453 -0.126836 0.340599
v 0.652513 -0.125698 0.339348
v 0.652577 -0.125096 0.337934
v 0.674632 -0.124820 0.337207
v 0.674705 -0.125071 0.335510
v 0.674773 -0.125637 0.333911
v 0.674837 -0.126599 0.332391
v 0.674877 -0.128174 0.331389
v 0.674877 -0.130044 0.331296
v 0.674846 -0.131751 0.331916
v 0.674786 -0.132890 0.333237
v 0.674720 -0.133372 0.334742
v 0.674660 -0.133489 0.336111
v 0.674604 -0.133399 0.337393
v 0.674548 -0.133091 0.338693
v 0.674488 -0.132489 0.340109
v 0.674427 -0.131353 0.341570
v 0.674391 -0.129516 0.342484
v 0.674410 -0.127451 0.342163
v 0.674472 -0.125872 0.340813
v 0.674551 -0.125006 0.339036
v 0.701110 -0.125800 0.339065
v 0.701163 -0.125938 0.337394
v 0.701192 -0.126451 0.335776
v 0.701198 -0.127356 0.334174
v 0.701158 -0.128870 0.332860
v 0.701056 -0.130893 0.332424
v 0.700918 -0.132847 0.333095
v 0.700788 -0.134137 0.334624
v 0.700692 -0.134705 0.336334
v 0.700624 -0.134897 0.337899
v 0.700571 -0.134867 0.339407
v 0.700529 -0.134594 0.341004
v 0.700508 -0.133877 0.342732
v 0.700539 -0.132411 0.344213
v 0.700644 -0.130324 0.344661
v 0.700787 -0.128341 0.343890
v 0.700922 -0.126911 0.342464
v 0.701031 -0.126097 0.340780
v 0.723496 -0.126917 0.340178
v 0.723524 -0.127184 0.338128
v 0.723489 -0.127947 0.336246
v 0.723383 -0.129249 0.334661
v 0.723202 -0.131057 0.333639
v 0.722967 -0.133119 0.333481
v 0.722729 -0.134950 0.334329
v 0.722560 -0.136004 0.335954
v 0.722469 -0.136388 0.337561
v 0.722413 -0.136526 0.338927
v 0.722375 -0.136528 0.340236
v 0.722355 -0.136349 0.341663
v 0.722365 -0.135839 0.343349
v 0.722448 -0.134664 0.345253
v 0.722662 -0.132527 0.346414
v 0.722953 -0.130160 0.345895
v 0.723205 -0.128403 0.344267
v 0.723389 -0.127307 0.342294
v 0.744912 -0.128926 0.339612
v 0.745003 -0.129356 0.337840
v 0.744871 -0.129957 0.336486
v 0.744664 -0.131383 0.335015
v 0.744630 -0.132795 0.334235
v 0.744683 -0.134556 0.334044
v 0.744531 -0.136729 0.334590
v 0.744375 -0.138520 0.335889
v 0.744251 -0.139376 0.337871
v 0.744157 -0.139770 0.339811
v 0.744084 -0.139803 0.341771
v 0.744037 -0.139374 0.343811
v 0.744039 -0.138215 0.345729
v 0.744105 -0.136304 0.347120
v 0.744396 -0.134656 0.347267
v 0.744664 -0.132961 0.346613
v 0.744587 -0.130972 0.344992
v 0.744743 -0.129473 0.342235
v 0.756932 -0.128981 0.339888
v 0.757293 -0.128282 0.336560
v 0.757402 -0.128998 0.334261
v 0.757387 -0.130766 0.332481
v 0.756921 -0.132614 0.332620
v 0.756670 -0.134795 0.333148
v 0.756317 -0.137983 0.333977
v 0.756416 -0.140750 0.334721
v 0.756058 -0.142983 0.337989
v 0.755870 -0.143184 0.341451
v 0.755396 -0.142635 0.344930
v 0.755278 -0.141473 0.347896
v 0.754562 -0.139881 0.349292
v 0.754547 -0.137482 0.350146
v 0.754679 -0.135541 0.349505
v 0.755340 -0.133675 0.347628
v 0.755619 -0.131785 0.345458
v 0.756426 -0.130122 0.342816
v 0.763128 -0.134085 0.331641
v 0.763161 -0.138237 0.332500
v 0.761632 -0.141966 0.333554
v 0.761059 -0.144189 0.337332
v 0.760193 -0.143228 0.347731
v 0.759155 -0.142003 0.350095
v 0.761929 -0.130978 0.330113
v 0.761793 -0.129095 0.330191
v 0.767228 -0.129193 0.331011
v 0.766771 -0.127416 0.332105
v 0.771506 -0.130712 0.334054
v 0.772051 -0.128684 0.334715
v 0.774357 -0.133503 0.335926
v 0.775952 -0.132062 0.337041
v 0.777174 -0.137287 0.337892
v 0.778974 -0.135221 0.339368
v 0.777508 -0.139324 0.340241
v 0.779762 -0.137996 0.342308
v 0.775614 -0.141232 0.342398
v 0.776993 -0.139301 0.345578
v 0.771519 -0.142171 0.344721
v 0.772619 -0.139897 0.347634
v 0.768270 -0.139109 0.349550
v 0.767235 -0.141886 0.346912
v 0.763535 -0.138350 0.352314
v 0.759059 -0.139752 0.352152
v 0.759361 -0.134602 0.350756
v 0.760086 -0.132924 0.348860
v 0.761178 -0.131454 0.346216
v 0.762310 -0.129798 0.343509
v 0.762635 -0.128314 0.340228
v 0.761985 -0.127637 0.336550
v 0.761667 -0.127597 0.332993
v 0.758707 -0.136582 0.351997
v 0.768755 -0.136577 0.349605
v 0.772880 -0.136716 0.347983
v 0.776274 -0.136902 0.346733
v 0.778132 -0.135680 0.343535
v 0.777628 -0.134317 0.341503
v 0.774998 -0.131754 0.339291
v 0.770538 -0.128992 0.336521
v 0.765628 -0.127636 0.334241
v 0.773262 -0.133489 0.344358
v 0.769099 -0.130213 0.339381
v 0.762369 -0.134121 0.349878
v 0.765695 -0.128559 0.336521
v 0.763289 -0.133083 0.348018
v 0.764169 -0.132123 0.345885
v 0.764765 -0.130592 0.342935
v 0.764608 -0.129193 0.339825
v 0.772148 -0.136874 0.335578
v 0.773842 -0.138580 0.336662
v 0.773986 -0.140406 0.338002
v 0.772504 -0.141871 0.339668
v 0.770144 -0.143021 0.341388
v 0.767681 -0.143442 0.342863
v 0.760951 -0.143981 0.342569
v 0.769503 -0.134117 0.333892
v 0.766259 -0.133211 0.332239
v 0.766140 -0.137568 0.333246
v 0.768217 -0.137759 0.334141
v 0.770702 -0.141349 0.336207
v 0.767287 -0.143818 0.337875
v 0.763854 -0.143933 0.343117
v 0.764722 -0.142386 0.347768
v 0.764211 -0.144332 0.337538
v 0.765951 -0.142165 0.334077
v 0.764284 -0.141252 0.350221
v 0.766873 -0.134555 0.349091
v 0.762962 -0.135634 0.351554
f 31 30 29
f 31 29 28
f 27 25 4
f 27 4 23
f 28 29 25
f 28 25 27
f 23 4 3
f 23 3 22
f 11 13 17
f 11 17 19
f 40 39 31
f 40 31 28
f 44 19 17
f 44 17 43
f 44 43 39
f 44 39 40
f 41 27 23
f 41 23 22
f 21 8 9
f 21 9 20
f 9 11 19
f 9 19 20
f 41 40 28
f 41 28 27
f 22 3 6
f 22 6 24
f 45 20 19
f 45 19 44
f 24 21 20
f 24 20 45
f 6 8 21
f 6 21 24
f 45 41 22
f 45 22 24
f 45 44 40
f 45 40 41
f 7 8 6
f 7 6 5
f 5 6 3
f 5 3 2
f 1 2 3
f 1 3 4
f 1 4 25
f 1 25 26
f 32 26 25
f 32 25 29
f 33 32 29
f 33 29 30
f 35 33 30
f 35 30 34
f 35 34 48
f 35 48 49
f 7 5 58
f 7 58 59
f 10 9 8
f 10 8 7
f 11 9 10
f 11 10 12
f 13 11 12
f 13 12 14
f 10 7 59
f 10 59 75
f 12 10 75
f 12 75 76
f 77 14 12
f 77 12 76
f 55 54 53
f 55 53 52
f 52 53 51
f 52 51 50
f 51 49 48
f 51 48 50
f 36 30 31
f 36 31 37
f 46 34 30
f 46 30 36
f 48 34 46
f 48 46 47
f 83 50 48
f 83 48 47
f 38 37 31
f 38 31 39
f 42 38 39
f 42 39 43
f 42 43 17
f 42 17 18
f 89 38 42
f 89 42 90
f 84 37 38
f 84 38 89
f 36 37 84
f 36 84 85
f 46 36 85
f 46 85 86
f 47 46 86
f 47 86 87
f 83 47 87
f 83 87 88
f 82 52 50
f 82 50 83
f 81 55 52
f 81 52 82
f 72 57 55
f 72 55 81
f 79 75 59
f 79 59 73
f 76 75 79
f 76 79 80
f 78 77 76
f 78 76 80
f 18 17 13
f 18 13 15
f 91 90 42
f 91 42 18
f 16 14 77
f 16 77 78
f 15 13 14
f 15 14 16
f 108 91 18
f 108 18 15
f 58 57 72
f 58 72 74
f 74 73 59
f 74 59 58
f 82 83 88
f 82 88 101
f 81 82 101
f 81 101 102
f 72 81 102
f 72 102 103
f 74 72 103
f 74 103 110
f 104 73 74
f 104 74 110
f 79 73 104
f 79 104 105
f 80 79 105
f 80 105 106
f 78 80 106
f 78 106 107
f 16 78 107
f 16 107 109
f 108 15 16
f 108 16 109
f 139 138 156
f 139 156 157
f 140 139 157
f 140 157 158
f 141 140 158
f 141 158 159
f 142 141 159
f 142 159 160
f 143 142 160
f 143 160 161
f 144 143 161
f 144 161 162
f 145 144 162
f 145 162 163
f 146 145 163
f 146 163 164
f 147 146 164
f 147 164 165
f 148 147 165
f 148 165 166
f 149 148 166
f 149 166 167
f 150 149 167
f 150 167 168
f 151 150 168
f 151 168 169
f 152 151 169
f 152 169 170
f 153 152 170
f 153 170 171
f 154 153 171
f 154 171 172
f 155 154 172
f 155 172 173
f 173 156 138
f 173 138 155
f 109 107 118
f 109 118 119
f 119 118 134
f 119 134 135
f 135 134 152
f 135 152 153
f 92 108 109
f 92 109 119
f 92 119 135
f 92 135 136
f 136 135 153
f 136 153 154
f 118 107 106
f 118 106 117
f 133 134 118
f 133 118 117
f 151 152 134
f 151 134 133
f 117 106 105
f 117 105 116
f 132 133 117
f 132 117 116
f 150 151 133
f 150 133 132
f 116 105 104
f 116 104 115
f 131 132 116
f 131 116 115
f 149 150 132
f 149 132 131
f 115 104 110
f 115 110 114
f 130 131 115
f 130 115 114
f 148 149 131
f 148 131 130
f 114 110 103
f 114 103 113
f 129 130 114
f 129 114 113
f 147 148 130
f 147 130 129
f 113 103 102
f 113 102 112
f 128 129 113
f 128 113 112
f 146 147 129
f 146 129 128
f 93 91 108
f 93 108 92
f 93 92 136
f 93 136 137
f 137 136 154
f 137 154 155
f 90 91 93
f 90 93 94
f 94 93 137
f 94 137 120
f 120 137 155
f 120 155 138
f 89 90 94
f 89 94 95
f 95 94 120
f 95 120 121
f 121 120 138
f 121 138 139
f 84 89 95
f 84 95 96
f 96 95 121
f 96 121 122
f 122 121 139
f 122 139 140
f 85 84 96
f 85 96 97
f 97 96 122
f 97 122 123
f 123 122 140
f 123 140 141
f 86 85 97
f 86 97 98
f 98 97 123
f 98 123 124
f 124 123 141
f 124 141 142
f 87 86 98
f 87 98 99
f 99 98 124
f 99 124 125
f 125 124 142
f 125 142 143
f 88 87 99
f 88 99 100
f 100 99 125
f 100 125 126
f 126 125 143
f 126 143 144
f 101 88 100
f 101 100 111
f 111 100 126
f 111 126 127
f 112 102 101
f 112 101 111
f 127 128 112
f 127 112 111
f 127 126 144
f 127 144 145
f 145 146 128
f 145 128 127
f 193 194 71
f 193 71 60
f 195 5 2
f 195 2 196
f 192 193 60
f 192 60 61
f 61 60 195
f 61 195 196
f 196 2 1
f 196 1 197
f 62 61 196
f 62 196 197
f 192 61 62
f 192 62 63
f 63 62 197
f 63 197 198
f 197 1 26
f 197 26 198
f 64 63 198
f 64 198 199
f 198 26 32
f 198 32 199
f 192 63 64
f 192 64 65
f 65 64 199
f 65 199 200
f 199 32 33
f 199 33 200
f 193 192 65
f 193 65 66
f 66 65 200
f 66 200 201
f 200 33 35
f 200 35 201
f 194 193 66
f 194 66 67
f 67 66 201
f 67 201 202
f 201 35 49
f 201 49 202
f 68 67 202
f 68 202 203
f 202 49 51
f 202 51 203
f 194 67 68
f 194 68 69
f 69 68 203
f 69 203 204
f 203 51 53
f 203 53 204
f 56 5 195
f 56 195 206
f 71 194 69
f 71 69 70
f 70 69 204
f 70 204 205
f 204 53 54
f 204 54 205
f 56 54 55
f 56 55 57
f 206 205 54
f 206 54 56
f 56 57 58
f 56 58 5
f 206 71 70
f 206 70 205
f 195 60 71
f 195 71 206
f 226 225 243
f 226 243 244
f 227 226 244
f 227 244 245
f 228 227 245
f 228 245 246
f 229 228 246
f 229 246 247
f 230 229 247
f 230 247 248
f 231 230 248
f 231 248 249
f 232 231 249
f 232 249 250
f 233 232 250
f 233 250 251
f 234 233 251
f 234 251 252
f 235 234 252
f 235 252 253
f 236 235 253
f 236 253 254
f 237 236 254
f 237 254 255
f 238 237 255
f 238 255 256
f 239 238 256
f 239 256 257
f 240 239 257
f 240 257 258
f 241 240 258
f 241 258 259
f 242 241 259
f 242 259 260
f 260 243 225
f 260 225 242
f 244 243 261
f 244 261 262
f 245 244 262
f 245 262 263
f 246 245 263
f 246 263 264
f 247 246 264
f 247 264 265
f 248 247 265
f 248 265 266
f 249 248 266
f 249 266 267
f 250 249 267
f 250 267 268
f 251 250 268
f 251 268 269
f 252 251 269
f 252 269 270
f 253 252 270
f 253 270 271
f 254 253 271
f 254 271 272
f 255 254 272
f 255 272 273
f 256 255 273
f 256 273 274
f 257 256 274
f 257 274 275
f 258 257 275
f 258 275 276
f 259 258 276
f 259 276 277
f 260 259 277
f 260 277 278
f 278 261 243
f 278 243 260
f 262 261 279
f 262 279 280
f 263 262 280
f 263 280 281
f 264 263 281
f 264 281 282
f 265 264 282
f 265 282 283
f 266 265 283
f 266 283 284
f 267 266 284
f 267 284 285
f 268 267 285
f 268 285 286
f 269 268 286
f 269 286 287
f 270 269 287
f 270 287 288
f 271 270 288
f 271 288 289
f 272 271 289
f 272 289 290
f 273 272 290
f 273 290 291
f 274 273 291
f 274 291 292
f 275 274 292
f 275 292 293
f 276 275 293
f 276 293 294
f 277 276 294
f 277 294 295
f 278 277 295
f 278 295 296
f 296 279 261
f 296 261 278
f 280 279 297
f 280 297 298
f 281 280 298
f 281 298 299
f 282 281 299
f 282 299 300
f 283 282 300
f 283 300 301
f 284 283 301
f 284 301 302
f 285 284 302
f 285 302 303
f 286 285 303
f 286 303 304
f 287 286 304
f 287 304 305
f 288 287 305
f 288 305 306
f 289 288 306
f 289 306 307
f 290 289 307
f 290 307 308
f 291 290 308
f 291 308 309
f 292 291 309
f 292 309 310
f 293 292 310
f 293 310 311
f 294 293 311
f 294 311 312
f 295 294 312
f 295 312 313
f 296 295 313
f 296 313 314
f 314 297 279
f 314 279 296
f 298 297 315
f 298 315 316
f 299 298 316
f 299 316 317
f 300 299 317
f 300 317 318
f 301 300 318
f 301 318 319
f 302 301 319
f 302 319 320
f 303 302 320
f 303 320 321
f 304 303 321
f 304 321 322
f 305 304 322
f 305 322 323
f 306 305 323
f 306 323 324
f 307 306 324
f 307 324 325
f 308 307 325
f 308 325 326
f 309 308 326
f 309 326 327
f 310 309 327
f 310 327 328
f 311 310 328
f 311 328 329
f 312 311 329
f 312 329 330
f 313 312 330
f 313 330 331
f 314 313 331
f 314 331 332
f 332 315 297
f 332 297 314
f 316 315 333
f 316 333 334
f 317 316 334
f 317 334 335
f 318 317 335
f 318 335 336
f 319 318 336
f 319 336 337
f 320 319 337
f 320 337 338
f 321 320 338
f 321 338 339
f 322 321 339
f 322 339 340
f 323 322 340
f 323 340 341
f 324 323 341
f 324 341 342
f 325 324 342
f 325 342 343
f 326 325 343
f 326 343 344
f 327 326 344
f 327 344 345
f 328 327 345
f 328 345 346
f 329 328 346
f 329 346 347
f 330 329 347
f 330 347 348
f 331 330 348
f 331 348 349
f 332 331 349
f 332 349 350
f 350 333 315
f 350 315 332
f 334 333 351
f 334 351 352
f 335 334 352
f 335 352 353
f 336 335 353
f 336 353 354
f 337 336 354
f 337 354 355
f 338 337 355
f 338 355 356
f 339 338 356
f 339 356 357
f 340 339 357
f 340 357 358
f 341 340 358
f 341 358 359
f 342 341 359
f 342 359 360
f 343 342 360
f 343 360 361
f 344 343 361
f 344 361 362
f 345 344 362
f 345 362 363
f 346 345 363
f 346 363 364
f 347 346 364
f 347 364 365
f 348 347 365
f 348 365 366
f 349 348 366
f 349 366 367
f 350 349 367
f 350 367 368
f 368 351 333
f 368 333 350
f 352 351 369
f 352 369 370
f 353 352 370
f 353 370 371
f 354 353 371
f 354 371 372
f 355 354 372
f 355 372 373
f 356 355 373
f 356 373 374
f 357 356 374
f 357 374 375
f 358 357 375
f 358 375 376
f 359 358 376
f 359 376 377
f 360 359 377
f 360 377 378
f 361 360 378
f 361 378 379
f 362 361 379
f 362 379 380
f 363 362 380
f 363 380 381
f 364 363 381
f 364 381 382
f 365 364 382
f 365 382 383
f 366 365 383
f 366 383 384
f 367 366 384
f 367 384 385
f 368 367 385
f 368 385 386
f 386 369 351
f 386 351 368
f 370 369 387
f 370 387 388
f 371 370 388
f 371 388 389
f 372 371 389
f 372 389 390
f 373 372 390
f 373 390 391
f 374 373 391
f 374 391 392
f 375 374 392
f 375 392 393
f 376 375 393
f 376 393 394
f 377 376 394
f 377 394 395
f 378 377 395
f 378 395 396
f 379 378 396
f 379 396 397
f 380 379 397
f 380 397 398
f 381 380 398
f 381 398 399
f 382 381 399
f 382 399 400
f 383 382 400
f 383 400 401
f 384 383 401
f 384 401 402
f 385 384 402
f 385 402 403
f 386 385 403
f 386 403 404
f 404 387 369
f 404 369 386
f 388 387 405
f 388 405 406
f 389 388 406
f 389 406 407
f 390 389 407
f 390 407 408
f 391 390 408
f 391 408 409
f 392 391 409
f 392 409 410
f 393 392 410
f 393 410 411
f 394 393 411
f 394 411 412
f 395 394 412
f 395 412 413
f 396 395 413
f 396 413 414
f 397 396 414
f 397 414 415
f 398 397 415
f 398 415 416
f 399 398 416
f 399 416 417
f 400 399 417
f 400 417 418
f 401 400 418
f 401 418 419
f 402 401 419
f 402 419 420
f 403 402 420
f 403 420 421
f 404 403 421
f 404 421 422
f 422 405 387
f 422 387 404
f 183 184 166
f 183 166 165
f 210 211 184
f 210 184 183
f 228 229 211
f 228 211 210
f 182 183 165
f 182 165 164
f 209 210 183
f 209 183 182
f 227 228 210
f 227 210 209
f 181 182 164
f 181 164 163
f 208 209 182
f 208 182 181
f 226 227 209
f 226 209 208
f 180 181 163
f 180 163 162
f 207 208 181
f 207 181 180
f 225 226 208
f 225 208 207
f 179 180 162
f 179 162 161
f 224 207 180
f 224 180 179
f 242 225 207
f 242 207 224
f 178 179 161
f 178 161 160
f 223 224 179
f 223 179 178
f 241 242 224
f 241 224 223
f 177 178 160
f 177 160 159
f 222 223 178
f 222 178 177
f 240 241 223
f 240 223 222
f 176 177 159
f 176 159 158
f 221 222 177
f 221 177 176
f 239 240 222
f 239 222 221
f 157 156 174
f 157 174 175
f 175 174 219
f 175 219 220
f 175 176 158
f 175 158 157
f 220 221 176
f 220 176 175
f 220 219 237
f 220 237 238
f 238 239 221
f 238 221 220
f 173 172 190
f 173 190 191
f 191 190 217
f 191 217 218
f 191 174 156
f 191 156 173
f 218 219 174
f 218 174 191
f 218 217 235
f 218 235 236
f 236 237 219
f 236 219 218
f 189 190 172
f 189 172 171
f 216 217 190
f 216 190 189
f 234 235 217
f 234 217 216
f 167 166 184
f 167 184 185
f 185 184 211
f 185 211 212
f 212 211 229
f 212 229 230
f 168 167 185
f 168 185 186
f 186 185 212
f 186 212 213
f 213 212 230
f 213 230 231
f 169 168 186
f 169 186 187
f 187 186 213
f 187 213 214
f 214 213 231
f 214 231 232
f 170 169 187
f 170 187 188
f 188 187 214
f 188 214 215
f 188 189 171
f 188 171 170
f 215 216 189
f 215 189 188
f 215 214 232
f 215 232 233
f 233 234 216
f 233 216 215
f 411 410 428
f 411 428 429
f 412 411 429
f 412 429 430
f 413 412 430
f 413 430 431
f 427 428 410
f 427 410 409
f 426 427 409
f 426 409 408
f 420 419 437
f 420 437 438
f 421 420 438
f 421 438 439
f 422 421 439
f 422 439 440
f 405 422 440
f 405 440 423
f 406 405 423
f 406 423 424
f 407 406 424
f 407 424 425
f 425 426 408
f 425 408 407
f 447 427 426
f 447 426 448
f 418 417 435
f 418 435 436
f 436 437 419
f 436 419 418
f 448 426 425
f 448 425 473
f 478 477 460
f 478 460 458
f 478 458 456
f 478 456 479
f 476 462 460
f 476 460 477
f 480 479 456
f 480 456 454
f 480 454 452
f 480 452 481
f 482 481 452
f 482 452 450
f 482 450 448
f 482 448 473
f 473 425 424
f 473 424 472
f 438 437 467
f 438 467 468
f 439 438 468
f 439 468 469
f 440 439 469
f 440 469 470
f 423 440 470
f 423 470 471
f 472 424 423
f 472 423 471
f 486 482 473
f 486 473 472
f 486 472 471
f 486 471 490
f 490 471 470
f 490 470 489
f 416 415 433
f 416 433 434
f 434 435 417
f 434 417 416
f 455 453 454
f 455 454 456
f 457 455 456
f 457 456 458
f 459 457 458
f 459 458 460
f 461 459 460
f 461 460 462
f 451 452 454
f 451 454 453
f 449 450 452
f 449 452 451
f 449 447 448
f 449 448 450
f 441 428 427
f 441 427 447
f 429 428 441
f 429 441 442
f 441 447 449
f 441 449 499
f 499 449 451
f 499 451 498
f 493 492 455
f 493 455 457
f 493 457 459
f 493 459 494
f 491 453 455
f 491 455 492
f 498 451 453
f 498 453 491
f 495 494 459
f 495 459 461
f 414 413 431
f 414 431 432
f 432 433 415
f 432 415 414
f 496 495 461
f 496 461 464
f 500 442 441
f 500 441 499
f 500 499 498
f 500 498 501
f 502 501 498
f 502 498 491
f 502 495 496
f 502 496 503
f 444 431 430
f 444 430 443
f 430 429 442
f 430 442 443
f 507 500 501
f 507 501 502
f 491 492 493
f 491 493 502
f 502 493 494
f 502 494 495
f 506 444 443
f 506 443 507
f 503 496 504
f 503 504 506
f 507 502 503
f 507 503 506
f 507 443 442
f 507 442 500
f 432 431 444
f 432 444 497
f 497 444 506
f 497 506 504
f 445 433 432
f 445 432 497
f 484 481 482
f 484 482 486
f 489 470 469
f 489 469 488
f 484 486 490
f 484 490 489
f 504 496 464
f 504 464 505
f 445 497 504
f 445 504 505
f 434 433 445
f 434 445 446
f 466 435 434
f 466 434 446
f 446 445 505
f 446 505 508
f 436 435 466
f 436 466 474
f 464 461 462
f 464 462 463
f 508 505 464
f 508 464 463
f 483 480 481
f 483 481 484
f 483 476 477
f 483 477 478
f 483 478 479
f 483 479 480
f 483 484 489
f 483 489 488
f 475 463 462
f 475 462 476
f 488 469 468
f 488 468 487
f 475 476 483
f 475 483 509
f 467 437 436
f 467 436 474
f 465 466 446
f 465 446 508
f 508 463 475
f 508 475 465
f 509 483 488
f 509 488 487
f 510 474 466
f 510 466 465
f 487 468 467
f 487 467 485
f 485 467 474
f 485 474 510
f 510 509 487
f 510 487 485
f 510 465 475
f 510 475 509
