# Fibula_R posed
v 0.331792 0.202899 0.304281
v 0.336367 0.200661 0.300872
v 0.337758 0.203613 0.300565
v 0.332890 0.205884 0.304145
v 0.344392 0.198194 0.296339
v 0.342374 0.201769 0.297387
v 0.349669 0.199619 0.294972
v 0.346228 0.203449 0.295324
v 0.348646 0.207592 0.295939
v 0.352906 0.205887 0.295825
v 0.349010 0.213443 0.300661
v 0.354118 0.210998 0.298823
v 0.349186 0.215868 0.305707
v 0.354864 0.214431 0.304130
v 0.354163 0.216751 0.310039
v 0.356543 0.215084 0.307853
v 0.346552 0.215099 0.308174
v 0.352549 0.216399 0.312227
v 0.345556 0.212691 0.303840
v 0.345883 0.210569 0.300591
v 0.344669 0.208041 0.299393
v 0.339118 0.206949 0.301745
v 0.336093 0.207818 0.304568
v 0.342203 0.206844 0.300079
v 0.330000 0.207716 0.308392
v 0.327928 0.205802 0.309702
v 0.335475 0.208939 0.308839
v 0.335954 0.209967 0.312342
v 0.331922 0.208782 0.314454
v 0.337317 0.209209 0.318465
v 0.339396 0.211251 0.316137
v 0.330822 0.206984 0.314897
v 0.334839 0.206904 0.318882
v 0.341233 0.206597 0.320801
v 0.338741 0.204462 0.321427
v 0.344950 0.211123 0.319978
v 0.345520 0.212848 0.318310
v 0.349731 0.213545 0.315864
v 0.343253 0.212268 0.312959
v 0.340816 0.210848 0.309515
v 0.339368 0.209455 0.306149
v 0.351603 0.214704 0.314124
v 0.344805 0.213441 0.310205
v 0.343037 0.211739 0.306721
v 0.342662 0.209934 0.303387
v 0.347696 0.207413 0.320314
v 0.351197 0.203969 0.321564
v 0.345879 0.202472 0.322308
v 0.342637 0.200867 0.321602
v 0.348637 0.198292 0.320382
v 0.345970 0.197134 0.319110
v 0.352631 0.195045 0.313657
v 0.349235 0.194272 0.312428
v 0.350617 0.193481 0.305198
v 0.354817 0.194384 0.305794
v 0.349089 0.196766 0.300752
v 0.353344 0.197310 0.301449
v 0.351460 0.198617 0.299745
v 0.351947 0.199915 0.298038
v 0.343241 0.198314 0.302523
v 0.338263 0.200483 0.305360
v 0.334627 0.202022 0.307433
v 0.331724 0.203574 0.310174
v 0.333188 0.203804 0.312918
v 0.335701 0.202921 0.314697
v 0.338449 0.201579 0.316478
v 0.341279 0.199806 0.316677
v 0.343655 0.198197 0.315724
v 0.345531 0.196774 0.311713
v 0.346669 0.195858 0.306911
v 0.345924 0.197048 0.304082
v 0.359239 0.199001 0.302616
v 0.358452 0.203502 0.303818
v 0.358589 0.201401 0.303078
v 0.354703 0.205716 0.299423
v 0.355776 0.209319 0.301564
v 0.356256 0.213166 0.304667
v 0.357783 0.213807 0.306945
v 0.358688 0.206920 0.303638
v 0.358726 0.209784 0.303746
v 0.358592 0.196320 0.307270
v 0.356863 0.197014 0.313838
v 0.353826 0.200041 0.319936
v 0.354679 0.213023 0.319286
v 0.353991 0.211782 0.321354
v 0.354372 0.208818 0.322400
v 0.355885 0.205503 0.322539
v 0.357913 0.201356 0.320045
v 0.355629 0.213592 0.316797
v 0.356273 0.214164 0.315273
v 0.357052 0.215662 0.313112
v 0.365696 0.215308 0.313427
v 0.365388 0.215312 0.315077
v 0.365176 0.215010 0.316820
v 0.364898 0.214637 0.318572
v 0.364632 0.214144 0.320251
v 0.364484 0.212874 0.321944
v 0.364656 0.210448 0.322806
v 0.365461 0.207454 0.322113
v 0.366423 0.204085 0.319828
v 0.360619 0.198362 0.314109
v 0.362530 0.198241 0.308540
v 0.363308 0.201137 0.305026
v 0.362041 0.204707 0.305542
v 0.362071 0.208098 0.305430
v 0.361883 0.210459 0.305592
v 0.360313 0.213786 0.308049
v 0.357996 0.215828 0.311896
v 0.359694 0.214659 0.309175
v 0.362520 0.203066 0.305264
v 0.367856 0.201129 0.314437
v 0.368401 0.201257 0.310182
v 0.368352 0.203337 0.307777
v 0.368123 0.205111 0.307697
v 0.367849 0.206829 0.307732
v 0.367493 0.209453 0.307781
v 0.366869 0.211710 0.308002
v 0.366304 0.214048 0.310016
v 0.365878 0.214771 0.311401
v 0.380030 0.216664 0.320865
v 0.379805 0.216125 0.322619
v 0.379764 0.215240 0.323623
v 0.380068 0.213220 0.323686
v 0.380489 0.211573 0.323123
v 0.380748 0.210007 0.322332
v 0.381380 0.208017 0.320450
v 0.382280 0.206361 0.317241
v 0.382766 0.206158 0.314214
v 0.382960 0.207384 0.312243
v 0.382939 0.208699 0.311382
v 0.382845 0.210534 0.311172
v 0.382568 0.212470 0.311548
v 0.382028 0.214312 0.312402
v 0.381583 0.215721 0.313945
v 0.381173 0.216353 0.315502
v 0.380764 0.216744 0.317307
v 0.380339 0.216837 0.319140
v 0.398154 0.220638 0.324801
v 0.398004 0.219573 0.326281
v 0.398172 0.217822 0.326511
v 0.398495 0.216075 0.325918
v 0.398876 0.214535 0.324890
v 0.399289 0.213180 0.323573
v 0.399754 0.211847 0.321982
v 0.400284 0.210787 0.319872
v 0.400762 0.210546 0.317515
v 0.401120 0.211392 0.315268
v 0.401060 0.212805 0.314500
v 0.400845 0.214617 0.314466
v 0.400569 0.216325 0.314822
v 0.400225 0.218008 0.315555
v 0.399779 0.219549 0.316917
v 0.399279 0.220779 0.318768
v 0.398789 0.221442 0.320934
v 0.398393 0.221384 0.323062
v 0.414880 0.224901 0.326554
v 0.414839 0.223602 0.327621
v 0.414861 0.222156 0.328464
v 0.415201 0.220355 0.327893
v 0.415638 0.218814 0.326660
v 0.416064 0.217409 0.325394
v 0.416557 0.215987 0.323804
v 0.417120 0.214895 0.321636
v 0.417683 0.214386 0.319090
v 0.417988 0.215177 0.317004
v 0.417973 0.216830 0.315985
v 0.417737 0.218715 0.315944
v 0.417401 0.220492 0.316494
v 0.417011 0.222126 0.317415
v 0.416559 0.223614 0.318756
v 0.416057 0.224829 0.320541
v 0.415546 0.225606 0.322656
v 0.415106 0.225720 0.324848
v 0.430297 0.227368 0.327215
v 0.430262 0.226462 0.328349
v 0.430331 0.224856 0.328965
v 0.430828 0.222591 0.328567
v 0.431271 0.220950 0.327537
v 0.431774 0.219656 0.325972
v 0.432280 0.218508 0.324295
v 0.432800 0.217719 0.322300
v 0.433249 0.217572 0.320205
v 0.433721 0.218363 0.317866
v 0.433562 0.219752 0.316947
v 0.433156 0.221497 0.316867
v 0.432831 0.223296 0.317478
v 0.432448 0.224674 0.318359
v 0.432263 0.225709 0.319330
v 0.431731 0.226917 0.321103
v 0.431193 0.227699 0.323198
v 0.430719 0.227885 0.325397
v 0.337671 0.202231 0.310196
v 0.341035 0.200627 0.310397
v 0.343734 0.198478 0.310722
v 0.343660 0.197491 0.299272
v 0.336375 0.199698 0.302116
v 0.331875 0.201892 0.305676
v 0.328608 0.204558 0.309791
v 0.330652 0.205355 0.314200
v 0.333914 0.204495 0.318077
v 0.337286 0.202754 0.319884
v 0.341360 0.199817 0.319981
v 0.344406 0.197141 0.317884
v 0.347707 0.194775 0.311945
v 0.349005 0.194043 0.305799
v 0.347818 0.196592 0.301618
v 0.454108 0.222114 0.325365
v 0.454494 0.221431 0.322873
v 0.454753 0.221576 0.320525
v 0.454854 0.222458 0.318676
v 0.454736 0.224069 0.317847
v 0.454477 0.225893 0.317979
v 0.454152 0.227587 0.318816
v 0.453826 0.229031 0.319951
v 0.453501 0.230217 0.321372
v 0.453186 0.231148 0.323001
v 0.452892 0.231756 0.324817
v 0.452658 0.231863 0.326684
v 0.452529 0.231372 0.328335
v 0.452525 0.230331 0.329531
v 0.452641 0.228876 0.330184
v 0.452865 0.227093 0.330288
v 0.453236 0.225180 0.329292
v 0.453665 0.223545 0.327502
v 0.479109 0.226981 0.326560
v 0.479435 0.226360 0.324605
v 0.479739 0.226037 0.322502
v 0.479914 0.226484 0.320607
v 0.479777 0.228029 0.320016
v 0.479576 0.229586 0.319939
v 0.479362 0.231160 0.319953
v 0.479087 0.233141 0.320025
v 0.478629 0.235215 0.321478
v 0.478135 0.236644 0.323927
v 0.477765 0.236992 0.326550
v 0.477603 0.236316 0.328594
v 0.477554 0.235330 0.330059
v 0.477578 0.234152 0.331150
v 0.477695 0.232676 0.331808
v 0.477964 0.230874 0.331591
v 0.478359 0.229156 0.330262
v 0.478755 0.227869 0.328458
v 0.500672 0.230780 0.329050
v 0.500984 0.230382 0.326979
v 0.501240 0.230284 0.324988
v 0.501412 0.230643 0.323108
v 0.501415 0.231688 0.321737
v 0.501217 0.233316 0.321281
v 0.500872 0.235158 0.321767
v 0.500495 0.237110 0.322394
v 0.499989 0.239539 0.323481
v 0.499449 0.240926 0.326189
v 0.499100 0.241067 0.328902
v 0.498974 0.240316 0.330903
v 0.498986 0.239229 0.332197
v 0.499041 0.238101 0.333174
v 0.499156 0.236775 0.333925
v 0.499395 0.235062 0.334136
v 0.499801 0.233120 0.333266
v 0.500275 0.231610 0.331273
v 0.524448 0.233467 0.331205
v 0.524846 0.232955 0.328820
v 0.525097 0.233239 0.326772
v 0.525221 0.233998 0.325192
v 0.525171 0.235294 0.324376
v 0.525017 0.236778 0.324135
v 0.524800 0.238368 0.324254
v 0.524484 0.240105 0.324955
v 0.524080 0.242449 0.325748
v 0.523542 0.244015 0.328208
v 0.523173 0.244038 0.330838
v 0.523002 0.243304 0.332723
v 0.522950 0.242324 0.333979
v 0.522960 0.241245 0.334871
v 0.523032 0.239981 0.335491
v 0.523185 0.238401 0.335813
v 0.523488 0.236396 0.335446
v 0.523970 0.234535 0.333664
v 0.548907 0.236992 0.333373
v 0.549370 0.236403 0.330755
v 0.549631 0.236888 0.328628
v 0.549691 0.238016 0.327332
v 0.549624 0.239354 0.326706
v 0.549469 0.240773 0.326607
v 0.549232 0.242228 0.327033
v 0.548952 0.243688 0.327744
v 0.548610 0.245440 0.328641
v 0.548138 0.247135 0.330464
v 0.547771 0.247304 0.332788
v 0.547583 0.246714 0.334505
v 0.547493 0.245931 0.335727
v 0.547457 0.245027 0.336684
v 0.547490 0.243875 0.337371
v 0.547626 0.242365 0.337657
v 0.547900 0.240431 0.337359
v 0.548366 0.238326 0.335917
v 0.573928 0.239283 0.336215
v 0.574437 0.238851 0.333331
v 0.574777 0.239173 0.330944
v 0.574922 0.240164 0.329278
v 0.574887 0.241594 0.328408
v 0.574755 0.243174 0.328037
v 0.574523 0.244939 0.328168
v 0.574179 0.246929 0.328842
v 0.573671 0.248745 0.330689
v 0.573150 0.249906 0.333116
v 0.572732 0.250268 0.335499
v 0.572432 0.250091 0.337536
v 0.572238 0.249500 0.339209
v 0.572135 0.248557 0.340574
v 0.572097 0.247252 0.341791
v 0.572261 0.245301 0.342216
v 0.572685 0.242933 0.341312
v 0.573290 0.240674 0.339191
v 0.598423 0.242063 0.338602
v 0.598883 0.241520 0.336262
v 0.599219 0.241609 0.334202
v 0.599454 0.242102 0.332453
v 0.599600 0.242970 0.330959
v 0.599611 0.244354 0.329904
v 0.599342 0.246320 0.330089
v 0.598852 0.248305 0.331592
v 0.598321 0.249982 0.333562
v 0.597795 0.251151 0.335871
v 0.597344 0.251677 0.338197
v 0.596962 0.251818 0.340387
v 0.596738 0.251235 0.342144
v 0.596642 0.250205 0.343441
v 0.596666 0.248789 0.344303
v 0.596887 0.246913 0.344304
v 0.597339 0.244890 0.343043
v 0.597888 0.243212 0.340963
v 0.622346 0.245168 0.339973
v 0.622694 0.244670 0.338317
v 0.623004 0.244415 0.336657
v 0.623264 0.244485 0.334999
v 0.623426 0.245024 0.333485
v 0.623408 0.246174 0.332484
v 0.623131 0.247878 0.332539
v 0.622641 0.249667 0.333825
v 0.622109 0.251085 0.335739
v 0.621626 0.252067 0.337779
v 0.621210 0.252639 0.339803
v 0.620864 0.252831 0.341757
v 0.620625 0.252541 0.343518
v 0.620529 0.251723 0.344890
v 0.620660 0.250321 0.345421
v 0.621024 0.248614 0.344802
v 0.621495 0.247083 0.343369
v 0.621948 0.245940 0.341677
v 0.645221 0.246743 0.341622
v 0.645698 0.246161 0.339424
v 0.646111 0.245898 0.337310
v 0.646454 0.246019 0.335251
v 0.646570 0.246919 0.333784
v 0.646378 0.248507 0.333453
v 0.645992 0.250289 0.334053
v 0.645466 0.251902 0.335616
v 0.644964 0.253024 0.337490
v 0.644546 0.253765 0.339230
v 0.644179 0.254282 0.340878
v 0.643833 0.254617 0.342572
v 0.643489 0.254747 0.344441
v 0.643192 0.254437 0.346425
v 0.643133 0.253269 0.347796
v 0.643460 0.251336 0.347628
v 0.644034 0.249343 0.346097
v 0.644657 0.247764 0.343935
v 0.672167 0.249891 0.345434
v 0.672697 0.249159 0.343176
v 0.673149 0.248779 0.340925
v 0.673531 0.248751 0.338633
v 0.673713 0.249403 0.336635
v 0.673513 0.250950 0.335747
v 0.672958 0.252998 0.336360
v 0.672237 0.254895 0.338219
v 0.671583 0.256249 0.340421
v 0.671044 0.257201 0.342478
v 0.670563 0.257929 0.344487
v 0.670097 0.258487 0.346643
v 0.669665 0.258725 0.349032
v 0.669433 0.258194 0.351214
v 0.669624 0.256616 0.352140
v 0.670186 0.254522 0.351445
v 0.670876 0.252572 0.349787
v 0.671556 0.251019 0.347677
v 0.694814 0.252377 0.348450
v 0.695522 0.251452 0.345501
v 0.696071 0.251050 0.342658
v 0.696397 0.251282 0.340109
v 0.696400 0.252274 0.338255
v 0.696021 0.253976 0.337577
v 0.695318 0.256040 0.338374
v 0.694501 0.257856 0.340425
v 0.693840 0.259076 0.342585
v 0.693322 0.259949 0.344450
v 0.692858 0.260671 0.346257
v 0.692393 0.261300 0.348259
v 0.691908 0.261787 0.350684
v 0.691483 0.261825 0.353556
v 0.691497 0.260638 0.355660
v 0.692129 0.258335 0.355555
v 0.693039 0.255934 0.353772
v 0.693962 0.253897 0.351312
v 0.716956 0.254879 0.348768
v 0.717761 0.254188 0.345903
v 0.718156 0.253886 0.343606
v 0.718474 0.254227 0.340873
v 0.718685 0.254984 0.339227
v 0.718720 0.256404 0.338396
v 0.718215 0.258614 0.338571
v 0.717443 0.260928 0.339978
v 0.716512 0.262818 0.342664
v 0.715674 0.264274 0.345388
v 0.714884 0.265425 0.348220
v 0.714126 0.266219 0.351290
v 0.713494 0.266322 0.354419
v 0.713131 0.265492 0.357071
v 0.713415 0.264195 0.357899
v 0.713948 0.262402 0.357626
v 0.714485 0.259780 0.356042
v 0.715721 0.256898 0.352540
v 0.729736 0.255528 0.348878
v 0.731682 0.252857 0.343658
v 0.732880 0.252021 0.339534
v 0.733636 0.252434 0.335953
v 0.732948 0.254128 0.335658
v 0.732316 0.256356 0.335840
v 0.731407 0.259642 0.336140
v 0.731086 0.262509 0.336333
v 0.729292 0.266377 0.340576
v 0.727761 0.268561 0.345663
v 0.725981 0.270080 0.350968
v 0.724831 0.270781 0.355638
v 0.723574 0.270204 0.358316
v 0.723256 0.268671 0.360532
v 0.723587 0.266686 0.360505
v 0.724929 0.264069 0.358668
v 0.726006 0.261225 0.356357
v 0.727921 0.258273 0.353049
v 0.740460 0.254854 0.332347
v 0.739867 0.259049 0.332410
v 0.737449 0.262964 0.333171
v 0.735158 0.267148 0.338324
v 0.730355 0.272324 0.354020
v 0.728399 0.272597 0.357965
v 0.740001 0.251143 0.330983
v 0.739934 0.249530 0.331697
v 0.745921 0.250116 0.331674
v 0.744930 0.249264 0.334251
v 0.749438 0.253373 0.335091
v 0.749893 0.252007 0.336660
v 0.751839 0.256990 0.336329
v 0.753350 0.256404 0.338026
v 0.754157 0.261531 0.337260
v 0.755828 0.260602 0.339582
v 0.753463 0.264754 0.340120
v 0.755417 0.264825 0.342902
v 0.750245 0.267714 0.343349
v 0.750742 0.267916 0.348298
v 0.744477 0.269874 0.347662
v 0.744745 0.269625 0.352455
v 0.738956 0.270028 0.356706
v 0.738679 0.270854 0.352051
v 0.732572 0.270892 0.361885
v 0.727609 0.271860 0.361754
v 0.728297 0.266776 0.362194
v 0.729711 0.264306 0.360259
v 0.731875 0.261551 0.356980
v 0.734214 0.258552 0.353463
v 0.736019 0.255271 0.348836
v 0.737032 0.252353 0.343106
v 0.738451 0.250025 0.337062
v 0.727212 0.269111 0.363034
v 0.739484 0.267926 0.357778
v 0.744955 0.267112 0.354191
v 0.749499 0.266529 0.351153
v 0.753038 0.263549 0.346180
v 0.753314 0.261132 0.343742
v 0.751166 0.257560 0.342153
v 0.747142 0.253462 0.340173
v 0.742454 0.250859 0.338251
v 0.746832 0.262196 0.350060
v 0.744008 0.256350 0.344956
v 0.731961 0.265944 0.360750
v 0.741356 0.253130 0.341827
v 0.733642 0.264012 0.358446
v 0.735434 0.261956 0.355605
v 0.737303 0.258889 0.351684
v 0.738493 0.255772 0.347364
v 0.749147 0.259761 0.335408
v 0.750605 0.261931 0.336030
v 0.750112 0.264355 0.337469
v 0.747604 0.266637 0.339967
v 0.744105 0.268643 0.342800
v 0.740657 0.269846 0.345453
v 0.733039 0.270021 0.346214
v 0.746910 0.256288 0.334380
v 0.743898 0.254459 0.332841
v 0.743042 0.258932 0.333125
v 0.745072 0.259657 0.333960
v 0.746921 0.264094 0.335336
v 0.742125 0.267235 0.337942
v 0.736142 0.270357 0.346483
v 0.735482 0.271732 0.353607
v 0.738681 0.267447 0.337949
v 0.742209 0.263501 0.332966
v 0.734143 0.272162 0.357595
v 0.737432 0.265913 0.358470
v 0.732111 0.268179 0.362227
f 28 29 30
f 28 30 31
f 23 4 25
f 23 25 27
f 27 25 29
f 27 29 28
f 22 3 4
f 22 4 23
f 19 17 13
f 19 13 11
f 28 31 39
f 28 39 40
f 43 17 19
f 43 19 44
f 40 39 43
f 40 43 44
f 22 23 27
f 22 27 41
f 20 9 8
f 20 8 21
f 20 19 11
f 20 11 9
f 27 28 40
f 27 40 41
f 24 6 3
f 24 3 22
f 44 19 20
f 44 20 45
f 45 20 21
f 45 21 24
f 24 21 8
f 24 8 6
f 24 22 41
f 24 41 45
f 41 40 44
f 41 44 45
f 5 6 8
f 5 8 7
f 2 3 6
f 2 6 5
f 4 3 2
f 4 2 1
f 26 25 4
f 26 4 1
f 29 25 26
f 29 26 32
f 30 29 32
f 30 32 33
f 34 30 33
f 34 33 35
f 49 48 34
f 49 34 35
f 59 58 5
f 59 5 7
f 7 8 9
f 7 9 10
f 12 10 9
f 12 9 11
f 14 12 11
f 14 11 13
f 75 59 7
f 75 7 10
f 76 75 10
f 76 10 12
f 76 12 14
f 76 14 77
f 52 53 54
f 52 54 55
f 50 51 53
f 50 53 52
f 50 48 49
f 50 49 51
f 37 31 30
f 37 30 36
f 36 30 34
f 36 34 46
f 47 46 34
f 47 34 48
f 47 48 50
f 47 50 83
f 39 31 37
f 39 37 38
f 43 39 38
f 43 38 42
f 18 17 43
f 18 43 42
f 90 42 38
f 90 38 89
f 89 38 37
f 89 37 84
f 85 84 37
f 85 37 36
f 86 85 36
f 86 36 46
f 87 86 46
f 87 46 47
f 88 87 47
f 88 47 83
f 83 50 52
f 83 52 82
f 82 52 55
f 82 55 81
f 81 55 57
f 81 57 72
f 73 59 75
f 73 75 79
f 80 79 75
f 80 75 76
f 80 76 77
f 80 77 78
f 15 13 17
f 15 17 18
f 18 42 90
f 18 90 91
f 78 77 14
f 78 14 16
f 16 14 13
f 16 13 15
f 15 18 91
f 15 91 108
f 74 72 57
f 74 57 58
f 58 59 73
f 58 73 74
f 101 88 83
f 101 83 82
f 102 101 82
f 102 82 81
f 103 102 81
f 103 81 72
f 110 103 72
f 110 72 74
f 110 74 73
f 110 73 104
f 105 104 73
f 105 73 79
f 106 105 79
f 106 79 80
f 107 106 80
f 107 80 78
f 109 107 78
f 109 78 16
f 109 16 15
f 109 15 108
f 157 156 138
f 157 138 139
f 158 157 139
f 158 139 140
f 159 158 140
f 159 140 141
f 160 159 141
f 160 141 142
f 161 160 142
f 161 142 143
f 162 161 143
f 162 143 144
f 163 162 144
f 163 144 145
f 164 163 145
f 164 145 146
f 165 164 146
f 165 146 147
f 166 165 147
f 166 147 148
f 167 166 148
f 167 148 149
f 168 167 149
f 168 149 150
f 169 168 150
f 169 150 151
f 170 169 151
f 170 151 152
f 171 170 152
f 171 152 153
f 172 171 153
f 172 153 154
f 173 172 154
f 173 154 155
f 155 138 156
f 155 156 173
f 119 118 107
f 119 107 109
f 135 134 118
f 135 118 119
f 153 152 134
f 153 134 135
f 119 109 108
f 119 108 92
f 136 135 119
f 136 119 92
f 154 153 135
f 154 135 136
f 117 106 107
f 117 107 118
f 117 118 134
f 117 134 133
f 133 134 152
f 133 152 151
f 116 105 106
f 116 106 117
f 116 117 133
f 116 133 132
f 132 133 151
f 132 151 150
f 115 104 105
f 115 105 116
f 115 116 132
f 115 132 131
f 131 132 150
f 131 150 149
f 114 110 104
f 114 104 115
f 114 115 131
f 114 131 130
f 130 131 149
f 130 149 148
f 113 103 110
f 113 110 114
f 113 114 130
f 113 130 129
f 129 130 148
f 129 148 147
f 112 102 103
f 112 103 113
f 112 113 129
f 112 129 128
f 128 129 147
f 128 147 146
f 92 108 91
f 92 91 93
f 137 136 92
f 137 92 93
f 155 154 136
f 155 136 137
f 94 93 91
f 94 91 90
f 120 137 93
f 120 93 94
f 138 155 137
f 138 137 120
f 95 94 90
f 95 90 89
f 121 120 94
f 121 94 95
f 139 138 120
f 139 120 121
f 96 95 89
f 96 89 84
f 122 121 95
f 122 95 96
f 140 139 121
f 140 121 122
f 97 96 84
f 97 84 85
f 123 122 96
f 123 96 97
f 141 140 122
f 141 122 123
f 98 97 85
f 98 85 86
f 124 123 97
f 124 97 98
f 142 141 123
f 142 123 124
f 99 98 86
f 99 86 87
f 125 124 98
f 125 98 99
f 143 142 124
f 143 124 125
f 100 99 87
f 100 87 88
f 126 125 99
f 126 99 100
f 144 143 125
f 144 125 126
f 111 100 88
f 111 88 101
f 127 126 100
f 127 100 111
f 111 101 102
f 111 102 112
f 111 112 128
f 111 128 127
f 145 144 126
f 145 126 127
f 127 128 146
f 127 146 145
f 60 71 194
f 60 194 193
f 196 2 5
f 196 5 195
f 61 60 193
f 61 193 192
f 196 195 60
f 196 60 61
f 197 1 2
f 197 2 196
f 197 196 61
f 197 61 62
f 63 62 61
f 63 61 192
f 198 197 62
f 198 62 63
f 198 26 1
f 198 1 197
f 199 198 63
f 199 63 64
f 199 32 26
f 199 26 198
f 65 64 63
f 65 63 192
f 200 199 64
f 200 64 65
f 200 33 32
f 200 32 199
f 66 65 192
f 66 192 193
f 201 200 65
f 201 65 66
f 201 35 33
f 201 33 200
f 67 66 193
f 67 193 194
f 202 201 66
f 202 66 67
f 202 49 35
f 202 35 201
f 203 202 67
f 203 67 68
f 203 51 49
f 203 49 202
f 69 68 67
f 69 67 194
f 204 203 68
f 204 68 69
f 204 53 51
f 204 51 203
f 206 195 5
f 206 5 56
f 70 69 194
f 70 194 71
f 205 204 69
f 205 69 70
f 205 54 53
f 205 53 204
f 57 55 54
f 57 54 56
f 56 54 205
f 56 205 206
f 5 58 57
f 5 57 56
f 205 70 71
f 205 71 206
f 206 71 60
f 206 60 195
f 244 243 225
f 244 225 226
f 245 244 226
f 245 226 227
f 246 245 227
f 246 227 228
f 247 246 228
f 247 228 229
f 248 247 229
f 248 229 230
f 249 248 230
f 249 230 231
f 250 249 231
f 250 231 232
f 251 250 232
f 251 232 233
f 252 251 233
f 252 233 234
f 253 252 234
f 253 234 235
f 254 253 235
f 254 235 236
f 255 254 236
f 255 236 237
f 256 255 237
f 256 237 238
f 257 256 238
f 257 238 239
f 258 257 239
f 258 239 240
f 259 258 240
f 259 240 241
f 260 259 241
f 260 241 242
f 242 225 243
f 242 243 260
f 262 261 243
f 262 243 244
f 263 262 244
f 263 244 245
f 264 263 245
f 264 245 246
f 265 264 246
f 265 246 247
f 266 265 247
f 266 247 248
f 267 266 248
f 267 248 249
f 268 267 249
f 268 249 250
f 269 268 250
f 269 250 251
f 270 269 251
f 270 251 252
f 271 270 252
f 271 252 253
f 272 271 253
f 272 253 254
f 273 272 254
f 273 254 255
f 274 273 255
f 274 255 256
f 275 274 256
f 275 256 257
f 276 275 257
f 276 257 258
f 277 276 258
f 277 258 259
f 278 277 259
f 278 259 260
f 260 243 261
f 260 261 278
f 280 279 261
f 280 261 262
f 281 280 262
f 281 262 263
f 282 281 263
f 282 263 264
f 283 282 264
f 283 264 265
f 284 283 265
f 284 265 266
f 285 284 266
f 285 266 267
f 286 285 267
f 286 267 268
f 287 286 268
f 287 268 269
f 288 287 269
f 288 269 270
f 289 288 270
f 289 270 271
f 290 289 271
f 290 271 272
f 291 290 272
f 291 272 273
f 292 291 273
f 292 273 274
f 293 292 274
f 293 274 275
f 294 293 275
f 294 275 276
f 295 294 276
f 295 276 277
f 296 295 277
f 296 277 278
f 278 261 279
f 278 279 296
f 298 297 279
f 298 279 280
f 299 298 280
f 299 280 281
f 300 299 281
f 300 281 282
f 301 300 282
f 301 282 283
f 302 301 283
f 302 283 284
f 303 302 284
f 303 284 285
f 304 303 285
f 304 285 286
f 305 304 286
f 305 286 287
f 306 305 287
f 306 287 288
f 307 306 288
f 307 288 289
f 308 307 289
f 308 289 290
f 309 308 290
f 309 290 291
f 310 309 291
f 310 291 292
f 311 310 292
f 311 292 293
f 312 311 293
f 312 293 294
f 313 312 294
f 313 294 295
f 314 313 295
f 314 295 296
f 296 279 297
f 296 297 314
f 316 315 297
f 316 297 298
f 317 316 298
f 317 298 299
f 318 317 299
f 318 299 300
f 319 318 300
f 319 300 301
f 320 319 301
f 320 301 302
f 321 320 302
f 321 302 303
f 322 321 303
f 322 303 304
f 323 322 304
f 323 304 305
f 324 323 305
f 324 305 306
f 325 324 306
f 325 306 307
f 326 325 307
f 326 307 308
f 327 326 308
f 327 308 309
f 328 327 309
f 328 309 310
f 329 328 310
f 329 310 311
f 330 329 311
f 330 311 312
f 331 330 312
f 331 312 313
f 332 331 313
f 332 313 314
f 314 297 315
f 314 315 332
f 334 333 315
f 334 315 316
f 335 334 316
f 335 316 317
f 336 335 317
f 336 317 318
f 337 336 318
f 337 318 319
f 338 337 319
f 338 319 320
f 339 338 320
f 339 320 321
f 340 339 321
f 340 321 322
f 341 340 322
f 341 322 323
f 342 341 323
f 342 323 324
f 343 342 324
f 343 324 325
f 344 343 325
f 344 325 326
f 345 344 326
f 345 326 327
f 346 345 327
f 346 327 328
f 347 346 328
f 347 328 329
f 348 347 329
f 348 329 330
f 349 348 330
f 349 330 331
f 350 349 331
f 350 331 332
f 332 315 333
f 332 333 350
f 352 351 333
f 352 333 334
f 353 352 334
f 353 334 335
f 354 353 335
f 354 335 336
f 355 354 336
f 355 336 337
f 356 355 337
f 356 337 338
f 357 356 338
f 357 338 339
f 358 357 339
f 358 339 340
f 359 358 340
f 359 340 341
f 360 359 341
f 360 341 342
f 361 360 342
f 361 342 343
f 362 361 343
f 362 343 344
f 363 362 344
f 363 344 345
f 364 363 345
f 364 345 346
f 365 364 346
f 365 346 347
f 366 365 347
f 366 347 348
f 367 366 348
f 367 348 349
f 368 367 349
f 368 349 350
f 350 333 351
f 350 351 368
f 370 369 351
f 370 351 352
f 371 370 352
f 371 352 353
f 372 371 353
f 372 353 354
f 373 372 354
f 373 354 355
f 374 373 355
f 374 355 356
f 375 374 356
f 375 356 357
f 376 375 357
f 376 357 358
f 377 376 358
f 377 358 359
f 378 377 359
f 378 359 360
f 379 378 360
f 379 360 361
f 380 379 361
f 380 361 362
f 381 380 362
f 381 362 363
f 382 381 363
f 382 363 364
f 383 382 364
f 383 364 365
f 384 383 365
f 384 365 366
f 385 384 366
f 385 366 367
f 386 385 367
f 386 367 368
f 368 351 369
f 368 369 386
f 388 387 369
f 388 369 370
f 389 388 370
f 389 370 371
f 390 389 371
f 390 371 372
f 391 390 372
f 391 372 373
f 392 391 373
f 392 373 374
f 393 392 374
f 393 374 375
f 394 393 375
f 394 375 376
f 395 394 376
f 395 376 377
f 396 395 377
f 396 377 378
f 397 396 378
f 397 378 379
f 398 397 379
f 398 379 380
f 399 398 380
f 399 380 381
f 400 399 381
f 400 381 382
f 401 400 382
f 401 382 383
f 402 401 383
f 402 383 384
f 403 402 384
f 403 384 385
f 404 403 385
f 404 385 386
f 386 369 387
f 386 387 404
f 406 405 387
f 406 387 388
f 407 406 388
f 407 388 389
f 408 407 389
f 408 389 390
f 409 408 390
f 409 390 391
f 410 409 391
f 410 391 392
f 411 410 392
f 411 392 393
f 412 411 393
f 412 393 394
f 413 412 394
f 413 394 395
f 414 413 395
f 414 395 396
f 415 414 396
f 415 396 397
f 416 415 397
f 416 397 398
f 417 416 398
f 417 398 399
f 418 417 399
f 418 399 400
f 419 418 400
f 419 400 401
f 420 419 401
f 420 401 402
f 421 420 402
f 421 402 403
f 422 421 403
f 422 403 404
f 404 387 405
f 404 405 422
f 165 166 184
f 165 184 183
f 183 184 211
f 183 211 210
f 210 211 229
f 210 229 228
f 164 165 183
f 164 183 182
f 182 183 210
f 182 210 209
f 209 210 228
f 209 228 227
f 163 164 182
f 163 182 181
f 181 182 209
f 181 209 208
f 208 209 227
f 208 227 226
f 162 163 181
f 162 181 180
f 180 181 208
f 180 208 207
f 207 208 226
f 207 226 225
f 161 162 180
f 161 180 179
f 179 180 207
f 179 207 224
f 224 207 225
f 224 225 242
f 160 161 179
f 160 179 178
f 178 179 224
f 178 224 223
f 223 224 242
f 223 242 241
f 159 160 178
f 159 178 177
f 177 178 223
f 177 223 222
f 222 223 241
f 222 241 240
f 158 159 177
f 158 177 176
f 176 177 222
f 176 222 221
f 221 222 240
f 221 240 239
f 175 174 156
f 175 156 157
f 220 219 174
f 220 174 175
f 157 158 176
f 157 176 175
f 175 176 221
f 175 221 220
f 238 237 219
f 238 219 220
f 220 221 239
f 220 239 238
f 191 190 172
f 191 172 173
f 218 217 190
f 218 190 191
f 173 156 174
f 173 174 191
f 191 174 219
f 191 219 218
f 236 235 217
f 236 217 218
f 218 219 237
f 218 237 236
f 171 172 190
f 171 190 189
f 189 190 217
f 189 217 216
f 216 217 235
f 216 235 234
f 185 184 166
f 185 166 167
f 212 211 184
f 212 184 185
f 230 229 211
f 230 211 212
f 186 185 167
f 186 167 168
f 213 212 185
f 213 185 186
f 231 230 212
f 231 212 213
f 187 186 168
f 187 168 169
f 214 213 186
f 214 186 187
f 232 231 213
f 232 213 214
f 188 187 169
f 188 169 170
f 215 214 187
f 215 187 188
f 170 171 189
f 170 189 188
f 188 189 216
f 188 216 215
f 233 232 214
f 233 214 215
f 215 216 234
f 215 234 233
f 429 428 410
f 429 410 411
f 430 429 411
f 430 411 412
f 431 430 412
f 431 412 413
f 409 410 428
f 409 428 427
f 408 409 427
f 408 427 426
f 438 437 419
f 438 419 420
f 439 438 420
f 439 420 421
f 440 439 421
f 440 421 422
f 423 440 422
f 423 422 405
f 424 423 405
f 424 405 406
f 425 424 406
f 425 406 407
f 407 408 426
f 407 426 425
f 448 426 427
f 448 427 447
f 436 435 417
f 436 417 418
f 418 419 437
f 418 437 436
f 473 425 426
f 473 426 448
f 458 460 477
f 458 477 478
f 479 456 458
f 479 458 478
f 477 460 462
f 477 462 476
f 454 456 479
f 454 479 480
f 481 452 454
f 481 454 480
f 450 452 481
f 450 481 482
f 473 448 450
f 473 450 482
f 472 424 425
f 472 425 473
f 468 467 437
f 468 437 438
f 469 468 438
f 469 438 439
f 470 469 439
f 470 439 440
f 471 470 440
f 471 440 423
f 471 423 424
f 471 424 472
f 472 473 482
f 472 482 486
f 490 471 472
f 490 472 486
f 489 470 471
f 489 471 490
f 434 433 415
f 434 415 416
f 416 417 435
f 416 435 434
f 456 454 453
f 456 453 455
f 458 456 455
f 458 455 457
f 460 458 457
f 460 457 459
f 462 460 459
f 462 459 461
f 453 454 452
f 453 452 451
f 451 452 450
f 451 450 449
f 450 448 447
f 450 447 449
f 447 427 428
f 447 428 441
f 442 441 428
f 442 428 429
f 499 449 447
f 499 447 441
f 498 451 449
f 498 449 499
f 457 455 492
f 457 492 493
f 494 459 457
f 494 457 493
f 492 455 453
f 492 453 491
f 491 453 451
f 491 451 498
f 461 459 494
f 461 494 495
f 432 431 413
f 432 413 414
f 414 415 433
f 414 433 432
f 464 461 495
f 464 495 496
f 499 441 442
f 499 442 500
f 501 498 499
f 501 499 500
f 491 498 501
f 491 501 502
f 503 496 495
f 503 495 502
f 443 430 431
f 443 431 444
f 443 442 429
f 443 429 430
f 502 501 500
f 502 500 507
f 502 493 492
f 502 492 491
f 495 494 493
f 495 493 502
f 507 443 444
f 507 444 506
f 506 504 496
f 506 496 503
f 506 503 502
f 506 502 507
f 500 442 443
f 500 443 507
f 497 444 431
f 497 431 432
f 504 506 444
f 504 444 497
f 497 432 433
f 497 433 445
f 486 482 481
f 486 481 484
f 488 469 470
f 488 470 489
f 489 490 486
f 489 486 484
f 505 464 496
f 505 496 504
f 505 504 497
f 505 497 445
f 446 445 433
f 446 433 434
f 446 434 435
f 446 435 466
f 508 505 445
f 508 445 446
f 474 466 435
f 474 435 436
f 463 462 461
f 463 461 464
f 463 464 505
f 463 505 508
f 484 481 480
f 484 480 483
f 478 477 476
f 478 476 483
f 480 479 478
f 480 478 483
f 488 489 484
f 488 484 483
f 476 462 463
f 476 463 475
f 487 468 469
f 487 469 488
f 509 483 476
f 509 476 475
f 474 436 437
f 474 437 467
f 508 446 466
f 508 466 465
f 465 475 463
f 465 463 508
f 487 488 483
f 487 483 509
f 465 466 474
f 465 474 510
f 485 467 468
f 485 468 487
f 510 474 467
f 510 467 485
f 485 487 509
f 485 509 510
f 509 475 465
f 509 465 510
