# Hamate_R posed
v -0.805113 0.188682 0.350257
v -0.802293 0.189012 0.348114
v -0.798223 0.191868 0.346428
v -0.795017 0.194805 0.349397
v -0.790628 0.195626 0.352953
v -0.786633 0.196686 0.358009
v -0.784462 0.198622 0.362204
v -0.787781 0.196760 0.365968
v -0.789920 0.193333 0.361505
v -0.793818 0.192554 0.356673
v -0.797403 0.193196 0.353613
v -0.799517 0.191429 0.351711
v -0.801837 0.189841 0.351781
v -0.804298 0.189268 0.352315
v -0.805428 0.190996 0.351701
v -0.803645 0.192598 0.351836
v -0.802337 0.193532 0.353737
v -0.800834 0.194826 0.356824
v -0.797705 0.194589 0.360450
v -0.794805 0.194590 0.364465
v -0.793206 0.197559 0.366900
v -0.803961 0.196621 0.355726
v -0.804481 0.196387 0.352402
v -0.804678 0.196164 0.357924
v -0.803044 0.194305 0.359870
v -0.800619 0.193821 0.362832
v -0.798169 0.194618 0.366188
v -0.797630 0.197738 0.367779
v -0.805935 0.191125 0.349471
v -0.804578 0.194267 0.349638
v -0.803998 0.191316 0.346877
v -0.801962 0.195399 0.346092
v -0.796831 0.199414 0.348464
v -0.792735 0.201356 0.353397
v -0.789272 0.202151 0.358662
v -0.787687 0.201810 0.363021
v -0.790013 0.202297 0.365405
v -0.794723 0.202150 0.366503
v -0.799220 0.201446 0.367612
v -0.804276 0.199066 0.349255
v -0.800937 0.204026 0.349497
v -0.803852 0.205591 0.353623
v -0.807204 0.202339 0.351871
v -0.806563 0.199448 0.353944
v -0.806018 0.199776 0.356458
v -0.805112 0.199015 0.359346
v -0.802139 0.204054 0.364587
v -0.797657 0.204932 0.362548
v -0.803913 0.204665 0.360214
v -0.800194 0.206701 0.358259
v -0.805327 0.205034 0.356699
v -0.807004 0.203035 0.356041
v -0.805155 0.201835 0.359778
v -0.804178 0.196784 0.362522
v -0.802245 0.195615 0.364991
v -0.800586 0.195563 0.367144
v -0.800619 0.197593 0.368117
v -0.802495 0.198975 0.366848
v -0.804263 0.200376 0.363881
v -0.792708 0.205204 0.360549
v -0.796071 0.205809 0.354805
v -0.800058 0.193071 0.354177
v -0.797469 0.193871 0.357018
v -0.794106 0.193641 0.360911
v -0.803855 0.190716 0.352194
v -0.801823 0.191707 0.352740
v -0.806174 0.189663 0.351253
v -0.803307 0.188444 0.350933
v -0.799844 0.189841 0.349428
v -0.797591 0.192862 0.350078
v -0.794073 0.193825 0.352813
v -0.790044 0.194105 0.357079
v -0.786350 0.195303 0.362156
v -0.791003 0.194724 0.365557
v -0.804668 0.189700 0.348505
v -0.801595 0.190891 0.345984
v -0.805190 0.192377 0.350738
v -0.804666 0.193114 0.347530
v -0.797252 0.195193 0.346335
v -0.803805 0.194321 0.351934
v -0.804058 0.196190 0.349094
v -0.803030 0.195111 0.354724
v -0.805734 0.199205 0.351861
v -0.805232 0.198130 0.354690
v -0.807651 0.201185 0.354728
v -0.806005 0.204438 0.354259
v -0.803105 0.195557 0.357683
v -0.805182 0.198031 0.357328
v -0.800673 0.194421 0.360080
v -0.797960 0.194853 0.363622
v -0.795775 0.195867 0.366953
v -0.799173 0.196256 0.367890
v -0.800836 0.194220 0.365723
v -0.803364 0.194378 0.363069
v -0.804994 0.196400 0.360210
v -0.805481 0.203676 0.358170
v -0.805920 0.201159 0.357890
v -0.795999 0.199678 0.367726
v -0.800110 0.199172 0.368524
v -0.801615 0.196970 0.366850
v -0.802666 0.201667 0.366444
v -0.804792 0.202927 0.362300
v -0.803220 0.197855 0.364544
v -0.804753 0.199490 0.361471
v -0.786572 0.200712 0.365262
v -0.791008 0.199675 0.367008
v -0.786462 0.200105 0.360550
v -0.798506 0.203341 0.365348
v -0.793294 0.197985 0.350344
v -0.788866 0.198917 0.355247
v -0.793703 0.204028 0.363959
v -0.789760 0.203255 0.362184
v -0.801133 0.205467 0.361601
v -0.803499 0.206112 0.357323
v -0.801174 0.199538 0.347290
v -0.796443 0.202955 0.351211
v -0.804706 0.203154 0.350128
v -0.800290 0.206751 0.353682
v -0.792341 0.204154 0.356629
v -0.796485 0.206466 0.359205
v -0.803956 0.188662 0.349432
v -0.800352 0.189518 0.347066
v -0.796829 0.193778 0.347434
v -0.793004 0.195514 0.350841
v -0.788760 0.196273 0.355574
v -0.784978 0.197184 0.360497
v -0.785466 0.196973 0.364419
v -0.788337 0.194503 0.364003
v -0.791680 0.192552 0.359016
v -0.795762 0.193177 0.355071
v -0.798609 0.192472 0.352448
v -0.800407 0.190491 0.351587
v -0.803168 0.189506 0.351993
v -0.804882 0.188525 0.351492
v -0.801371 0.188848 0.350324
v -0.798731 0.191511 0.349404
v -0.796025 0.193624 0.351391
v -0.792045 0.193863 0.354708
v -0.787964 0.194523 0.359560
v -0.805203 0.190224 0.352251
v -0.804594 0.191724 0.351666
v -0.802746 0.191349 0.352314
v -0.802927 0.193166 0.352609
v -0.800939 0.192230 0.353329
v -0.801528 0.194107 0.355006
v -0.798902 0.193827 0.355395
v -0.799174 0.194614 0.358661
v -0.795879 0.193573 0.358883
v -0.796124 0.194769 0.362508
v -0.792550 0.193799 0.363215
v -0.793613 0.195474 0.366317
v -0.790548 0.197120 0.366620
v -0.802644 0.195545 0.356189
v -0.803480 0.194709 0.353280
v -0.804123 0.196442 0.354304
v -0.801921 0.194893 0.358705
v -0.804260 0.196437 0.357112
v -0.804137 0.195146 0.358711
v -0.801926 0.193847 0.361310
v -0.799348 0.194471 0.361760
v -0.799344 0.194159 0.364513
v -0.796673 0.194773 0.365439
v -0.797659 0.196047 0.367473
v -0.795590 0.197652 0.367288
v -0.805990 0.191023 0.350893
v -0.805806 0.189519 0.349826
v -0.804280 0.193551 0.351031
v -0.805309 0.192868 0.349397
v -0.804295 0.195280 0.350771
v -0.805007 0.191216 0.347892
v -0.803211 0.190223 0.347176
v -0.803408 0.192644 0.345991
v -0.799494 0.193050 0.345249
v -0.799188 0.197459 0.347007
v -0.795470 0.196818 0.348414
v -0.794663 0.200600 0.350856
v -0.790884 0.198364 0.352239
v -0.790843 0.201878 0.356007
v -0.787359 0.199401 0.358177
v -0.788272 0.202178 0.361249
v -0.786117 0.200653 0.362880
v -0.788596 0.202205 0.364164
v -0.788447 0.200066 0.366680
v -0.792222 0.202344 0.366125
v -0.793618 0.199712 0.367263
v -0.797033 0.201892 0.367001
v -0.798112 0.199429 0.368226
v -0.804163 0.194858 0.347933
v -0.803095 0.197457 0.347524
v -0.804499 0.197571 0.350691
v -0.798538 0.201762 0.348501
v -0.803327 0.201495 0.348351
v -0.802839 0.205384 0.351346
v -0.805647 0.200728 0.350431
v -0.805607 0.204233 0.352197
v -0.805460 0.198412 0.353343
v -0.807222 0.200291 0.353049
v -0.806459 0.199565 0.355107
v -0.805161 0.198024 0.355948
v -0.805428 0.199634 0.357766
v -0.805178 0.197493 0.358761
v -0.800740 0.202782 0.366144
v -0.796179 0.203783 0.364598
v -0.799961 0.204511 0.363524
v -0.798841 0.205969 0.360560
v -0.803535 0.204654 0.362276
v -0.802277 0.206047 0.359581
v -0.804785 0.204874 0.358220
v -0.801983 0.206629 0.355749
v -0.804697 0.205367 0.355444
v -0.807370 0.203096 0.354046
v -0.806925 0.201345 0.356390
v -0.806138 0.204380 0.356292
v -0.805941 0.202543 0.357903
v -0.804790 0.203092 0.360069
v -0.805222 0.200446 0.359623
v -0.804361 0.195222 0.361668
v -0.804752 0.197971 0.361013
v -0.803278 0.195924 0.363893
v -0.802120 0.194198 0.364364
v -0.801326 0.195565 0.366146
v -0.799884 0.194901 0.367164
v -0.799382 0.197718 0.368301
v -0.800642 0.196631 0.367709
v -0.801504 0.198227 0.367805
v -0.802424 0.197370 0.365721
v -0.803316 0.199674 0.365493
v -0.804110 0.198548 0.363173
v -0.804890 0.201093 0.361876
v -0.801423 0.200617 0.367914
v -0.804102 0.202424 0.364649
v -0.791427 0.203829 0.363160
v -0.790725 0.204016 0.359439
v -0.795218 0.205281 0.361610
v -0.794360 0.203651 0.353977
v -0.794037 0.206019 0.357682
v -0.798175 0.207072 0.356602
v -0.798418 0.205247 0.351964
f 1 121 68
f 1 68 134
f 166 75 121
f 166 121 1
f 134 67 166
f 134 166 1
f 2 122 69
f 2 69 135
f 171 76 122
f 171 122 2
f 121 75 171
f 121 171 2
f 135 68 121
f 135 121 2
f 3 123 70
f 3 70 136
f 173 79 123
f 173 123 3
f 122 76 173
f 122 173 3
f 136 69 122
f 136 122 3
f 4 124 71
f 4 71 137
f 175 109 124
f 175 124 4
f 4 137 70
f 4 70 123
f 123 79 175
f 123 175 4
f 5 125 72
f 5 72 138
f 177 110 125
f 177 125 5
f 124 109 177
f 124 177 5
f 138 71 124
f 138 124 5
f 6 126 73
f 6 73 139
f 179 107 126
f 179 126 6
f 125 110 179
f 125 179 6
f 139 72 125
f 139 125 6
f 7 127 73
f 7 73 126
f 181 105 127
f 181 127 7
f 126 107 181
f 126 181 7
f 8 128 73
f 8 73 127
f 152 74 128
f 152 128 8
f 183 106 152
f 183 152 8
f 127 105 183
f 127 183 8
f 150 64 129
f 150 129 9
f 9 129 72
f 9 72 139
f 9 139 73
f 9 73 128
f 128 74 150
f 128 150 9
f 148 63 130
f 148 130 10
f 10 130 71
f 10 71 138
f 10 138 72
f 10 72 129
f 129 64 148
f 129 148 10
f 146 62 131
f 146 131 11
f 11 131 70
f 11 70 137
f 130 63 146
f 130 146 11
f 137 71 130
f 137 130 11
f 144 66 132
f 144 132 12
f 12 132 69
f 12 69 136
f 12 136 70
f 12 70 131
f 131 62 144
f 131 144 12
f 142 65 133
f 142 133 13
f 13 133 68
f 13 68 135
f 13 135 69
f 13 69 132
f 132 66 142
f 132 142 13
f 140 67 134
f 140 134 14
f 14 134 68
f 14 68 133
f 133 65 140
f 133 140 14
f 140 65 141
f 140 141 15
f 15 141 77
f 15 77 165
f 15 165 67
f 15 67 140
f 142 66 143
f 142 143 16
f 16 143 80
f 16 80 167
f 16 167 77
f 16 77 141
f 16 141 65
f 16 65 142
f 144 62 145
f 144 145 17
f 17 145 82
f 17 82 154
f 17 154 80
f 17 80 143
f 17 143 66
f 17 66 144
f 146 63 147
f 146 147 18
f 18 147 89
f 18 89 156
f 18 153 82
f 18 82 145
f 156 87 153
f 156 153 18
f 18 145 62
f 18 62 146
f 148 64 149
f 148 149 19
f 19 149 90
f 19 90 160
f 19 160 89
f 19 89 147
f 19 147 63
f 19 63 148
f 150 74 151
f 150 151 20
f 20 151 91
f 20 91 162
f 20 162 90
f 20 90 149
f 20 149 64
f 20 64 150
f 21 164 91
f 21 91 151
f 185 98 164
f 185 164 21
f 152 106 185
f 152 185 21
f 21 151 74
f 21 74 152
f 22 155 82
f 22 82 153
f 199 84 155
f 199 155 22
f 153 87 157
f 153 157 22
f 22 157 88
f 22 88 199
f 23 196 83
f 23 83 190
f 155 84 196
f 155 196 23
f 169 80 154
f 169 154 23
f 23 154 82
f 23 82 155
f 190 81 169
f 190 169 23
f 157 87 158
f 157 158 24
f 24 158 95
f 24 95 201
f 24 201 88
f 24 88 157
f 156 89 159
f 156 159 25
f 25 159 94
f 25 94 217
f 25 217 95
f 25 95 158
f 158 87 156
f 158 156 25
f 160 90 161
f 160 161 26
f 26 161 93
f 26 93 220
f 26 220 94
f 26 94 159
f 26 159 89
f 26 89 160
f 162 91 163
f 162 163 27
f 27 163 92
f 27 92 222
f 27 222 93
f 27 93 161
f 27 161 90
f 27 90 162
f 164 98 187
f 164 187 28
f 28 187 99
f 28 99 223
f 28 223 92
f 28 92 163
f 28 163 91
f 28 91 164
f 165 77 168
f 165 168 29
f 29 168 78
f 29 78 170
f 29 170 75
f 29 75 166
f 166 67 165
f 166 165 29
f 167 80 169
f 167 169 30
f 30 169 81
f 30 81 188
f 30 188 78
f 30 78 168
f 168 77 167
f 168 167 30
f 31 172 76
f 31 76 171
f 170 78 172
f 170 172 31
f 171 75 170
f 171 170 31
f 32 174 79
f 32 79 173
f 189 115 174
f 189 174 32
f 188 81 189
f 188 189 32
f 173 76 172
f 173 172 32
f 32 172 78
f 32 78 188
f 33 176 109
f 33 109 175
f 191 116 176
f 191 176 33
f 174 115 191
f 174 191 33
f 175 79 174
f 175 174 33
f 34 178 110
f 34 110 177
f 235 119 178
f 235 178 34
f 176 116 235
f 176 235 34
f 177 109 176
f 177 176 34
f 35 180 107
f 35 107 179
f 233 112 180
f 233 180 35
f 178 119 233
f 178 233 35
f 179 110 178
f 179 178 35
f 36 182 105
f 36 105 181
f 180 112 182
f 180 182 36
f 181 107 180
f 181 180 36
f 37 184 106
f 37 106 183
f 232 111 184
f 232 184 37
f 182 112 232
f 182 232 37
f 183 105 182
f 183 182 37
f 38 186 98
f 38 98 185
f 203 108 186
f 203 186 38
f 184 111 203
f 184 203 38
f 185 106 184
f 185 184 38
f 39 202 101
f 39 101 230
f 186 108 202
f 186 202 39
f 187 98 186
f 187 186 39
f 230 99 187
f 230 187 39
f 189 81 190
f 189 190 40
f 40 190 83
f 40 83 194
f 40 192 115
f 40 115 189
f 194 117 192
f 194 192 40
f 192 117 193
f 192 193 41
f 41 193 118
f 41 118 238
f 41 191 115
f 41 115 192
f 238 116 191
f 238 191 41
f 42 195 86
f 42 86 210
f 193 117 195
f 193 195 42
f 209 118 193
f 209 193 42
f 210 114 209
f 210 209 42
f 194 83 197
f 194 197 43
f 43 197 85
f 43 85 211
f 43 211 86
f 43 86 195
f 195 117 194
f 195 194 43
f 196 84 198
f 196 198 44
f 44 198 85
f 44 85 197
f 197 83 196
f 197 196 44
f 199 88 200
f 199 200 45
f 45 200 97
f 45 97 212
f 45 212 85
f 45 85 198
f 45 198 84
f 45 84 199
f 201 95 218
f 201 218 46
f 46 218 104
f 46 104 216
f 46 200 88
f 46 88 201
f 216 97 200
f 216 200 46
f 202 108 204
f 202 204 47
f 47 204 113
f 47 113 206
f 47 206 102
f 47 102 231
f 231 101 202
f 231 202 47
f 48 205 113
f 48 113 204
f 234 120 205
f 234 205 48
f 204 108 203
f 204 203 48
f 48 203 111
f 48 111 234
f 206 113 207
f 206 207 49
f 49 207 114
f 49 114 208
f 49 208 96
f 49 96 215
f 49 215 102
f 49 102 206
f 50 209 114
f 50 114 207
f 237 118 209
f 237 209 50
f 207 113 205
f 207 205 50
f 50 205 120
f 50 120 237
f 51 210 86
f 51 86 213
f 208 114 210
f 208 210 51
f 213 96 208
f 213 208 51
f 52 213 86
f 52 86 211
f 214 96 213
f 214 213 52
f 212 97 214
f 212 214 52
f 52 211 85
f 52 85 212
f 214 97 216
f 214 216 53
f 53 216 104
f 53 104 229
f 215 96 214
f 215 214 53
f 229 102 215
f 229 215 53
f 217 94 219
f 217 219 54
f 54 219 103
f 54 103 228
f 54 228 104
f 54 104 218
f 218 95 217
f 218 217 54
f 220 93 221
f 220 221 55
f 55 221 100
f 55 100 226
f 55 226 103
f 55 103 219
f 55 219 94
f 55 94 220
f 222 92 224
f 222 224 56
f 56 224 100
f 56 100 221
f 56 221 93
f 56 93 222
f 223 99 225
f 223 225 57
f 57 225 100
f 57 100 224
f 224 92 223
f 224 223 57
f 230 101 227
f 230 227 58
f 58 227 103
f 58 103 226
f 225 99 230
f 225 230 58
f 226 100 225
f 226 225 58
f 231 102 229
f 231 229 59
f 59 229 104
f 59 104 228
f 227 101 231
f 227 231 59
f 228 103 227
f 228 227 59
f 60 234 111
f 60 111 232
f 236 120 234
f 236 234 60
f 233 119 236
f 233 236 60
f 60 232 112
f 60 112 233
f 238 118 237
f 238 237 61
f 61 237 120
f 61 120 236
f 235 116 238
f 235 238 61
f 236 119 235
f 236 235 61
