# Humerus_R posed
v -0.580880 0.217983 0.404678
v -0.583919 0.226128 0.409696
v -0.586162 0.220410 0.418401
v -0.585021 0.211945 0.412504
v -0.588844 0.206254 0.421122
v -0.587595 0.214306 0.427527
v -0.591425 0.200062 0.429018
v -0.588551 0.207283 0.435871
v -0.593378 0.192931 0.436115
v -0.589787 0.199909 0.443364
v -0.595145 0.186326 0.442716
v -0.591209 0.193049 0.450114
v -0.599161 0.173831 0.454550
v -0.594165 0.180421 0.462815
v -0.603468 0.163025 0.464235
v -0.598257 0.170120 0.473220
v -0.610035 0.154240 0.473466
v -0.602040 0.163377 0.481669
v -0.613297 0.151332 0.475907
v -0.609345 0.156576 0.486029
v -0.609677 0.154689 0.492892
v -0.600526 0.159726 0.493970
v -0.592819 0.166781 0.484773
v -0.590444 0.162633 0.493243
v -0.599009 0.160125 0.504157
v -0.610226 0.154458 0.501856
v -0.587304 0.162153 0.502509
v -0.582628 0.162051 0.489630
v -0.578076 0.159571 0.498224
v -0.576963 0.156327 0.484336
v -0.572529 0.153709 0.493350
v -0.573501 0.145946 0.484661
v -0.569004 0.145704 0.492544
v -0.571590 0.137080 0.487830
v -0.568321 0.137802 0.494796
v -0.572958 0.129864 0.490220
v -0.571520 0.130556 0.496310
v -0.580224 0.122440 0.489046
v -0.581444 0.124074 0.497114
v -0.593566 0.120317 0.487879
v -0.594720 0.121247 0.496198
v -0.603753 0.122258 0.487335
v -0.603613 0.124006 0.495300
v -0.612328 0.129298 0.488119
v -0.610595 0.130560 0.496031
v -0.614227 0.138952 0.496620
v -0.616614 0.138629 0.487635
v -0.616113 0.147842 0.489110
v -0.614604 0.146975 0.498475
v -0.614463 0.140022 0.472942
v -0.609984 0.140317 0.470490
v -0.606647 0.131295 0.470855
v -0.609767 0.128195 0.474232
v -0.601306 0.127897 0.470271
v -0.604495 0.123717 0.475199
v -0.595254 0.128449 0.472824
v -0.595898 0.121792 0.478314
v -0.590840 0.129185 0.474443
v -0.588504 0.123157 0.481014
v -0.581761 0.123654 0.478543
v -0.577408 0.125204 0.483158
v -0.581541 0.127309 0.473730
v -0.573121 0.129425 0.485000
v -0.572413 0.134392 0.482254
v -0.603106 0.120753 0.481758
v -0.608694 0.122902 0.480682
v -0.613403 0.127235 0.479885
v -0.618947 0.139725 0.479624
v -0.574232 0.142987 0.477670
v -0.580345 0.137524 0.468260
v -0.585908 0.138676 0.467880
v -0.576015 0.153061 0.472694
v -0.579971 0.148344 0.464446
v -0.585108 0.148848 0.463547
v -0.578088 0.167746 0.472365
v -0.575841 0.162640 0.466741
v -0.576044 0.130921 0.477692
v -0.576036 0.140206 0.471973
v -0.576956 0.149854 0.467285
v -0.599867 0.159744 0.499213
v -0.610111 0.154675 0.497446
v -0.588853 0.162224 0.497998
v -0.580558 0.160545 0.494001
v -0.575277 0.154793 0.488780
v -0.571462 0.146163 0.488351
v -0.570100 0.137642 0.491375
v -0.572515 0.130468 0.493242
v -0.580797 0.123388 0.493383
v -0.593605 0.121235 0.491909
v -0.603022 0.123783 0.491296
v -0.610764 0.130323 0.491738
v -0.614588 0.139098 0.492261
v -0.614702 0.147374 0.493982
v -0.577776 0.177762 0.463484
v -0.574541 0.173314 0.459207
v -0.576029 0.190081 0.452134
v -0.572700 0.186441 0.449078
v -0.576597 0.159156 0.462225
v -0.574910 0.169891 0.455074
v -0.572637 0.183348 0.444812
v -0.584087 0.157571 0.458040
v -0.581051 0.167905 0.450121
v -0.577019 0.180132 0.439712
v -0.579436 0.157855 0.459644
v -0.614599 0.146007 0.474157
v -0.618078 0.146691 0.480896
v -0.589465 0.181668 0.465561
v -0.591897 0.172275 0.476586
v -0.574366 0.197597 0.445967
v -0.573026 0.205331 0.440164
v -0.571548 0.213748 0.433364
v -0.570285 0.221019 0.427187
v -0.568476 0.228634 0.419992
v -0.578647 0.229306 0.398108
v -0.576360 0.225983 0.396250
v -0.566491 0.236343 0.412764
v -0.581178 0.233509 0.400665
v -0.586685 0.194046 0.452613
v -0.585320 0.201160 0.445956
v -0.584158 0.208748 0.438793
v -0.583402 0.216269 0.430973
v -0.582795 0.223182 0.422975
v -0.581906 0.229903 0.414844
v -0.579888 0.237683 0.406078
v -0.610360 0.147852 0.471044
v -0.583161 0.180805 0.465879
v -0.583977 0.171727 0.476208
v -0.573715 0.238354 0.410799
v -0.581058 0.192961 0.453401
v -0.579597 0.200196 0.446975
v -0.578535 0.207891 0.440436
v -0.577518 0.215899 0.433125
v -0.576731 0.223072 0.426162
v -0.575567 0.230478 0.418670
v -0.583759 0.165917 0.483574
v -0.577035 0.158109 0.478850
v -0.574046 0.144707 0.481247
v -0.571722 0.135833 0.485282
v -0.572570 0.129385 0.487501
v -0.578275 0.123373 0.486109
v -0.584617 0.123134 0.479796
v -0.586830 0.128390 0.473604
v -0.599618 0.138251 0.463997
v -0.604804 0.140253 0.466499
v -0.593612 0.138619 0.466263
v -0.571301 0.191477 0.437877
v -0.574488 0.188131 0.432778
v -0.570613 0.201801 0.420274
v -0.567754 0.205996 0.426130
v -0.560934 0.229047 0.407160
v -0.563957 0.223755 0.399872
v -0.565764 0.213901 0.419641
v -0.568631 0.209622 0.413001
v -0.569700 0.198415 0.432239
v -0.572437 0.195002 0.426777
v -0.571083 0.194457 0.442651
v -0.563938 0.225090 0.417581
v -0.565791 0.217345 0.424494
v -0.567587 0.209962 0.430720
v -0.569444 0.201880 0.437084
v -0.607949 0.150497 0.507701
v -0.612277 0.144716 0.504271
v -0.611917 0.138225 0.502492
v -0.608813 0.130825 0.501851
v -0.603135 0.125261 0.501594
v -0.595280 0.123216 0.501853
v -0.583615 0.126602 0.502862
v -0.575174 0.132768 0.502991
v -0.570931 0.138603 0.501085
v -0.571814 0.144895 0.501229
v -0.573563 0.150840 0.501798
v -0.577157 0.155594 0.503811
v -0.584608 0.156552 0.508391
v -0.596836 0.155370 0.509932
v -0.603492 0.146260 0.511437
v -0.605555 0.141941 0.510144
v -0.605643 0.136845 0.508883
v -0.604723 0.131680 0.507349
v -0.594616 0.148055 0.512797
v -0.582137 0.148848 0.510496
v -0.594701 0.140492 0.512736
v -0.581928 0.139703 0.510151
v -0.596914 0.133954 0.510996
v -0.600027 0.128400 0.507325
v -0.594902 0.126897 0.506761
v -0.588816 0.130971 0.509044
v -0.597139 0.156568 0.455455
v -0.590922 0.156018 0.455179
v -0.592618 0.148096 0.460537
v -0.598969 0.147952 0.460106
v -0.593333 0.167240 0.447208
v -0.589097 0.179896 0.436789
v -0.587163 0.186925 0.430289
v -0.584928 0.193829 0.423417
v -0.582031 0.200622 0.416330
v -0.578344 0.207532 0.409115
v -0.574610 0.214297 0.402279
v -0.592498 0.187037 0.456187
v -0.596949 0.180431 0.448457
v -0.573680 0.180144 0.454116
v -0.577075 0.184074 0.457518
v -0.573719 0.176811 0.449940
v -0.579005 0.174182 0.444838
v -0.587974 0.188046 0.458700
v -0.582182 0.186982 0.459229
v -0.591011 0.173910 0.441920
v -0.587068 0.166068 0.447033
v -0.583001 0.178026 0.436161
v -0.580887 0.185398 0.429269
v -0.578816 0.192251 0.422758
v -0.576202 0.199333 0.416194
v -0.573139 0.206988 0.409309
v -0.570241 0.214410 0.402614
v -0.584979 0.172251 0.441444
v -0.577655 0.168642 0.452292
v -0.574862 0.181760 0.442153
v -0.573027 0.189888 0.435220
v -0.569514 0.203886 0.422945
v -0.562433 0.226129 0.403240
v -0.567635 0.211694 0.415860
v -0.571282 0.196774 0.429384
v -0.576295 0.175433 0.447251
v -0.589804 0.139237 0.467871
v -0.587492 0.156885 0.456619
v -0.588967 0.148832 0.462399
v -0.583768 0.166784 0.448380
v -0.579272 0.178329 0.437379
v -0.576812 0.185989 0.430310
v -0.574683 0.192698 0.423951
v -0.570130 0.207661 0.410607
v -0.565443 0.222312 0.397702
v -0.581364 0.172643 0.442735
v -0.572546 0.199746 0.417505
v -0.604398 0.150052 0.464782
v -0.609818 0.134432 0.471552
v -0.612760 0.133746 0.473268
v -0.616956 0.133341 0.479266
v -0.616724 0.133630 0.484086
v -0.613840 0.128134 0.484550
v -0.609769 0.123956 0.484378
v -0.570696 0.221911 0.395136
v -0.561733 0.232608 0.411061
v -0.567382 0.221670 0.396265
v -0.567849 0.215122 0.403914
v -0.566401 0.216859 0.405973
v -0.565055 0.219334 0.409065
v -0.563427 0.221712 0.413118
v -0.574175 0.256558 0.386702
v -0.574397 0.251709 0.381237
v -0.571536 0.249155 0.379449
v -0.559484 0.243791 0.377998
v -0.557462 0.244388 0.379491
v -0.555496 0.245386 0.381257
v -0.553258 0.247419 0.383897
v -0.552776 0.250547 0.387388
v -0.555033 0.254642 0.391305
v -0.560934 0.257999 0.392987
v -0.568992 0.258643 0.390916
v -0.568404 0.247219 0.378415
v -0.558213 0.266136 0.384068
v -0.566708 0.266427 0.382341
v -0.571678 0.263969 0.378096
v -0.571640 0.259760 0.372611
v -0.568916 0.257410 0.370598
v -0.565991 0.255765 0.369761
v -0.556731 0.252526 0.369917
v -0.554832 0.253156 0.371483
v -0.552934 0.254396 0.373645
v -0.550843 0.256336 0.376561
v -0.549875 0.259025 0.379556
v -0.552398 0.262940 0.382933
v -0.555041 0.274473 0.374968
v -0.564218 0.274864 0.372845
v -0.569414 0.272075 0.368241
v -0.569554 0.268073 0.363330
v -0.566822 0.265704 0.361425
v -0.563938 0.264058 0.360760
v -0.554140 0.261291 0.361832
v -0.551978 0.261727 0.363418
v -0.550134 0.263225 0.365770
v -0.548243 0.265342 0.368532
v -0.547141 0.267954 0.371295
v -0.549254 0.271509 0.374163
v -0.551169 0.283621 0.365746
v -0.561491 0.284629 0.362638
v -0.567744 0.281663 0.357458
v -0.568377 0.277575 0.352677
v -0.565337 0.274907 0.350869
v -0.561913 0.273071 0.350497
v -0.550926 0.271203 0.352569
v -0.548403 0.271519 0.354118
v -0.546587 0.273656 0.356427
v -0.545088 0.275819 0.359087
v -0.543909 0.278251 0.361995
v -0.545207 0.280963 0.364623
v -0.546653 0.298912 0.353783
v -0.558186 0.298197 0.350657
v -0.566063 0.296896 0.343677
v -0.567813 0.291433 0.340583
v -0.564490 0.288693 0.338512
v -0.560400 0.286982 0.337916
v -0.547747 0.285358 0.341552
v -0.544762 0.285872 0.343093
v -0.542845 0.288178 0.345796
v -0.541585 0.290344 0.348464
v -0.540505 0.292560 0.351643
v -0.541220 0.295170 0.354286
v -0.535147 0.305882 0.329089
v -0.538737 0.305681 0.324359
v -0.542801 0.305382 0.321025
v -0.533203 0.307589 0.332684
v -0.558359 0.306304 0.316709
v -0.564305 0.309139 0.315937
v -0.532338 0.310920 0.336528
v -0.533623 0.315850 0.339395
v -0.536943 0.321703 0.338210
v -0.544873 0.322284 0.315151
v -0.568405 0.314164 0.318439
v -0.566632 0.319868 0.320409
v -0.540357 0.327456 0.333889
v -0.546844 0.318034 0.338023
v -0.553926 0.315713 0.336664
v -0.559766 0.315964 0.332313
v -0.561980 0.324131 0.320174
v -0.542393 0.329601 0.327846
v -0.546338 0.325842 0.327708
v -0.550129 0.323632 0.325673
v -0.552978 0.323128 0.322859
v -0.555352 0.324756 0.317455
v -0.541443 0.325521 0.318567
v -0.545498 0.324530 0.322207
v -0.547347 0.322883 0.320555
v -0.549314 0.322604 0.319361
v -0.549650 0.322734 0.315336
v -0.582500 0.221681 0.406913
v -0.585894 0.216084 0.415305
v -0.588602 0.210391 0.424306
v -0.590325 0.203826 0.432473
v -0.592013 0.196618 0.439793
v -0.593736 0.189980 0.446472
v -0.597031 0.177342 0.458760
v -0.601592 0.166755 0.468879
v -0.605733 0.160494 0.475803
v -0.595374 0.184048 0.452397
v -0.613976 0.152632 0.481794
v -0.614277 0.152221 0.486654
v -0.609531 0.156704 0.479782
v -0.606943 0.156856 0.470213
v -0.601574 0.159334 0.459084
v -0.597863 0.170200 0.450038
v -0.593463 0.182783 0.439003
v -0.591526 0.189475 0.432499
v -0.589434 0.196425 0.425429
v -0.586519 0.202904 0.417886
v -0.582355 0.209206 0.410091
v -0.578178 0.215464 0.402854
v -0.595426 0.176842 0.444414
v -0.574021 0.223528 0.395019
v -0.564620 0.245179 0.377433
v -0.561963 0.253942 0.369388
v -0.559899 0.262625 0.360746
v -0.558253 0.272061 0.350911
v -0.555975 0.285823 0.338743
v -0.552519 0.305898 0.317178
v -0.561571 0.243951 0.377341
v -0.547211 0.305503 0.318535
v -0.558827 0.252870 0.369514
v -0.556885 0.261824 0.361169
v -0.554149 0.271516 0.351728
v -0.551084 0.285322 0.340301
v -0.523800 0.330625 0.335089
v -0.527383 0.338121 0.336195
v -0.529828 0.343988 0.333597
v -0.530636 0.346473 0.329366
v -0.532938 0.342058 0.322886
v -0.528896 0.345170 0.321393
v -0.526470 0.349265 0.325675
v -0.519063 0.344626 0.320541
v -0.520683 0.343718 0.316866
v -0.517613 0.340296 0.315675
v -0.516646 0.340767 0.319318
v -0.515360 0.335766 0.315013
v -0.514764 0.336860 0.318886
v -0.514826 0.332184 0.320439
v -0.514808 0.329455 0.315434
v -0.517414 0.324345 0.320007
v -0.516753 0.328140 0.324084
v -0.520924 0.322251 0.322980
v -0.520767 0.325731 0.329589
v -0.524685 0.348520 0.332142
v -0.522842 0.349701 0.328309
v -0.517545 0.344350 0.324325
v -0.516062 0.340612 0.322637
v -0.515104 0.337872 0.321497
v -0.515653 0.335094 0.323489
v -0.516777 0.331834 0.325866
v -0.518361 0.333031 0.329205
v -0.520321 0.336535 0.333229
v -0.522454 0.341530 0.336024
v -0.525432 0.345929 0.335000
v -0.516398 0.337987 0.326261
v -0.517156 0.341439 0.329416
v -0.519863 0.345484 0.331802
v -0.519522 0.348095 0.326247
v -0.522123 0.348284 0.322469
v -0.525036 0.345343 0.319187
v -0.533266 0.342278 0.318006
v -0.529585 0.344179 0.317554
v -0.535973 0.335694 0.315075
v -0.536270 0.335310 0.321769
v -0.541453 0.328134 0.310639
v -0.527537 0.325490 0.335880
v -0.531357 0.331654 0.336261
v -0.534587 0.335983 0.333245
v -0.536527 0.337454 0.328907
v -0.523943 0.322068 0.330983
v -0.523097 0.320414 0.323786
v -0.545964 0.326456 0.310166
v -0.545947 0.340151 0.302098
v -0.541963 0.341489 0.303727
v -0.535382 0.345988 0.306542
v -0.529845 0.349225 0.309013
v -0.526100 0.348034 0.310640
v -0.525594 0.349232 0.304171
v -0.522341 0.347698 0.307202
v -0.516369 0.341061 0.300966
v -0.515864 0.341645 0.304760
v -0.514502 0.334763 0.302964
v -0.514287 0.336665 0.306306
v -0.515370 0.328974 0.306099
v -0.514436 0.331917 0.309059
v -0.549603 0.334550 0.307145
v -0.544140 0.336727 0.308398
v -0.537440 0.342460 0.311615
v -0.532707 0.346573 0.313996
v -0.528780 0.346551 0.314219
v -0.550086 0.325307 0.311500
v -0.555714 0.329474 0.309746
v -0.563272 0.329863 0.311678
v -0.567231 0.325926 0.311786
v -0.559016 0.333366 0.307374
v -0.562233 0.333645 0.307729
v -0.555783 0.335786 0.304997
v -0.550368 0.341135 0.298322
v -0.565195 0.331442 0.306567
v -0.568723 0.319662 0.309938
v -0.563464 0.333999 0.305927
v -0.563118 0.333088 0.301643
v -0.562143 0.336048 0.302129
v -0.558468 0.334074 0.295734
v -0.558416 0.336781 0.297851
v -0.518052 0.325096 0.311319
v -0.521457 0.322047 0.315098
v -0.524151 0.322641 0.317170
v -0.526562 0.320910 0.318646
v -0.515870 0.335605 0.311732
v -0.515674 0.337724 0.308831
v -0.517021 0.340630 0.308220
v -0.521849 0.344747 0.309620
v -0.524264 0.345139 0.311713
v -0.526192 0.344962 0.313662
v -0.526016 0.343696 0.316007
v -0.522258 0.342459 0.314063
v -0.518413 0.339892 0.312795
v -0.519261 0.343193 0.308343
v -0.518783 0.345736 0.304937
v -0.520398 0.346635 0.301058
v -0.521512 0.342858 0.311078
v -0.519873 0.341845 0.310527
v -0.567357 0.328901 0.306092
v -0.564781 0.330780 0.299952
v -0.559811 0.332645 0.291837
v -0.568438 0.322214 0.303138
v -0.565751 0.323736 0.296836
v -0.559759 0.325711 0.289304
v -0.564918 0.314209 0.308158
v -0.564406 0.316320 0.301838
v -0.561979 0.317616 0.296140
v -0.556053 0.318353 0.289591
v -0.560605 0.336816 0.303674
v -0.556242 0.338624 0.299442
v -0.541565 0.338939 0.296258
v -0.537984 0.340245 0.298493
v -0.531173 0.345620 0.301031
v -0.525966 0.342500 0.297879
v -0.533551 0.336667 0.295815
v -0.536847 0.335503 0.292898
v -0.521978 0.337555 0.297700
v -0.529798 0.332713 0.294757
v -0.532454 0.331604 0.291481
v -0.544487 0.342592 0.291441
v -0.539143 0.338926 0.287613
v -0.535863 0.330435 0.289913
v -0.533024 0.325818 0.291437
v -0.530018 0.326790 0.292801
v -0.533726 0.320314 0.295234
v -0.530561 0.321761 0.296078
v -0.536563 0.317538 0.299443
v -0.533580 0.319170 0.300379
v -0.537162 0.317725 0.304537
v -0.540434 0.316041 0.303227
v -0.538934 0.318490 0.306965
v -0.542593 0.318036 0.305401
v -0.539652 0.316542 0.308712
v -0.543515 0.315610 0.307524
v -0.533925 0.319235 0.313506
v -0.532483 0.320837 0.312219
v -0.520136 0.332057 0.299758
v -0.521158 0.326769 0.302885
v -0.524596 0.323180 0.307082
v -0.529900 0.321674 0.310852
v -0.528156 0.328252 0.296006
v -0.528727 0.323999 0.298774
v -0.531441 0.321643 0.302261
v -0.535056 0.320261 0.306481
v -0.530829 0.320687 0.337627
v -0.534279 0.326140 0.337350
v -0.537693 0.330540 0.333901
v -0.539854 0.332442 0.328463
v -0.527947 0.314580 0.327511
v -0.537867 0.331192 0.312088
v -0.538464 0.330006 0.320018
v -0.528244 0.316897 0.333402
v -0.538679 0.343442 0.305171
v -0.540527 0.339269 0.309824
v -0.530700 0.314079 0.322542
v -0.534610 0.342442 0.300108
v -0.529941 0.339285 0.297634
v -0.526417 0.335132 0.297081
v -0.541068 0.312039 0.313500
v -0.545379 0.310705 0.312378
v -0.537100 0.315127 0.318048
v -0.524744 0.330333 0.298316
v -0.525523 0.325774 0.301102
v -0.528457 0.322911 0.304628
v -0.533075 0.321347 0.308438
v -0.541343 0.297414 0.333081
v -0.539079 0.298603 0.336741
v -0.544697 0.297460 0.330485
v -0.537565 0.300522 0.339628
v -0.559068 0.300064 0.325394
v -0.564283 0.301560 0.326392
v -0.536439 0.303130 0.342991
v -0.537375 0.306975 0.345353
v -0.540829 0.313095 0.343601
v -0.567678 0.305527 0.328221
v -0.565843 0.312339 0.329128
v -0.543180 0.323388 0.335025
v -0.545526 0.321461 0.318232
v -0.560644 0.320724 0.325213
v -0.544274 0.327717 0.327560
v -0.553817 0.323628 0.320080
v -0.543717 0.324346 0.321213
v -0.549194 0.321991 0.317773
v -0.553454 0.299636 0.326117
v -0.548390 0.298403 0.328291
v -0.535840 0.319584 0.307487
v -0.534299 0.320523 0.308810
v -0.536161 0.319131 0.295096
v -0.545635 0.333818 0.291304
v -0.550131 0.337342 0.293551
v -0.553842 0.336309 0.294066
v -0.551705 0.335621 0.289818
v -0.541953 0.330412 0.290319
v -0.535007 0.325511 0.290908
v -0.546292 0.316782 0.303436
v -0.540140 0.316538 0.298909
v -0.545000 0.316481 0.302038
v -0.548253 0.315535 0.307164
v -0.550984 0.310867 0.312855
v -0.553063 0.334392 0.286145
v -0.542463 0.329219 0.285021
v -0.537915 0.321897 0.285374
v -0.552572 0.329864 0.281776
v -0.548219 0.318610 0.280593
v -0.539264 0.311894 0.293323
v -0.544478 0.311757 0.297977
v -0.548396 0.313770 0.300188
v -0.550472 0.313581 0.302492
v -0.554986 0.310773 0.309514
v -0.556839 0.308666 0.312896
v -0.548288 0.314145 0.285245
v -0.552506 0.312508 0.292324
v -0.554768 0.314550 0.297675
v -0.557938 0.313652 0.303137
v -0.560011 0.311483 0.308133
v -0.561105 0.309597 0.311882
v -0.561501 0.233007 0.388826
v -0.559510 0.233816 0.390552
v -0.557213 0.235775 0.393374
v -0.556723 0.239410 0.397588
v -0.563536 0.232489 0.387396
v -0.558210 0.243473 0.401773
v -0.563760 0.246973 0.403232
v -0.571462 0.248347 0.401015
v -0.577005 0.246888 0.396362
v -0.577770 0.242492 0.391058
v -0.574960 0.239217 0.389096
v -0.571910 0.236570 0.387830
v -0.568980 0.234271 0.386714
v -0.566114 0.232632 0.386382
f 80 22 21
f 80 21 81
f 82 24 22
f 82 22 80
f 79 78 70
f 79 70 73
f 95 76 98
f 95 98 99
f 130 119 118
f 130 118 129
f 131 120 119
f 131 119 130
f 132 121 120
f 132 120 131
f 133 122 121
f 133 121 132
f 134 123 122
f 134 122 133
f 28 24 82
f 28 82 83
f 72 79 98
f 72 98 76
f 30 28 83
f 30 83 84
f 75 76 95
f 75 95 94
f 135 127 108
f 135 108 23
f 135 23 24
f 135 24 28
f 136 72 76
f 136 76 75
f 135 28 30
f 135 30 136
f 75 127 135
f 75 135 136
f 69 78 79
f 69 79 72
f 32 30 84
f 32 84 85
f 136 30 32
f 136 32 137
f 69 72 136
f 69 136 137
f 77 78 69
f 77 69 64
f 34 32 85
f 34 85 86
f 137 32 34
f 137 34 138
f 64 69 137
f 64 137 138
f 36 34 86
f 36 86 87
f 138 34 36
f 138 36 139
f 63 64 138
f 63 138 139
f 38 88 89
f 38 89 40
f 77 64 63
f 77 63 61
f 38 36 87
f 38 87 88
f 140 61 63
f 140 63 139
f 140 139 36
f 140 36 38
f 38 40 57
f 38 57 59
f 60 61 140
f 60 140 141
f 140 38 59
f 140 59 141
f 62 70 78
f 62 78 77
f 77 61 60
f 77 60 62
f 62 60 141
f 62 141 142
f 57 55 54
f 57 54 56
f 112 113 134
f 112 134 133
f 111 112 133
f 111 133 132
f 131 130 109
f 131 109 110
f 110 111 132
f 110 132 131
f 158 112 111
f 158 111 159
f 159 111 110
f 159 110 160
f 160 110 109
f 160 109 156
f 146 154 160
f 146 160 156
f 49 26 81
f 49 81 93
f 49 93 92
f 49 92 46
f 45 46 92
f 45 92 91
f 43 45 91
f 43 91 90
f 41 43 90
f 41 90 89
f 39 41 89
f 39 89 88
f 37 39 88
f 37 88 87
f 35 37 87
f 35 87 86
f 33 35 86
f 33 86 85
f 31 33 85
f 31 85 84
f 29 31 84
f 29 84 83
f 27 29 83
f 27 83 82
f 25 27 82
f 25 82 80
f 80 81 26
f 80 26 25
f 161 26 49
f 161 49 162
f 163 162 49
f 163 49 46
f 164 163 46
f 164 46 45
f 174 25 26
f 174 26 161
f 173 27 25
f 173 25 174
f 173 172 29
f 173 29 27
f 171 31 29
f 171 29 172
f 175 161 162
f 175 162 176
f 174 161 175
f 174 175 179
f 173 174 179
f 173 179 180
f 171 172 173
f 171 173 180
f 170 33 31
f 170 31 171
f 170 169 35
f 170 35 33
f 177 176 162
f 177 162 163
f 179 175 176
f 179 176 181
f 178 177 163
f 178 163 164
f 165 164 45
f 165 45 43
f 184 178 164
f 184 164 165
f 166 165 43
f 166 43 41
f 185 184 165
f 185 165 166
f 167 166 41
f 167 41 39
f 181 176 177
f 181 177 183
f 183 177 178
f 183 178 184
f 186 185 166
f 186 166 167
f 168 167 39
f 168 39 37
f 168 37 35
f 168 35 169
f 180 179 181
f 180 181 182
f 182 181 183
f 182 183 186
f 170 171 180
f 170 180 182
f 168 169 170
f 168 170 182
f 186 167 168
f 186 168 182
f 183 184 185
f 183 185 186
f 96 97 156
f 96 156 109
f 201 200 97
f 201 97 96
f 96 109 130
f 96 130 129
f 201 94 95
f 201 95 200
f 146 156 97
f 146 97 100
f 126 94 201
f 126 201 205
f 201 96 129
f 201 129 205
f 127 75 94
f 127 94 126
f 107 108 127
f 107 127 126
f 205 204 107
f 205 107 126
f 205 129 118
f 205 118 204
f 217 146 100
f 217 100 216
f 217 216 103
f 217 103 147
f 159 160 154
f 159 154 149
f 218 149 154
f 218 154 221
f 221 217 147
f 221 147 155
f 222 216 100
f 222 100 202
f 221 154 146
f 221 146 217
f 222 203 103
f 222 103 216
f 200 95 99
f 200 99 202
f 100 97 200
f 100 200 202
f 104 98 79
f 104 79 73
f 215 99 98
f 215 98 104
f 104 73 74
f 104 74 101
f 104 101 102
f 104 102 215
f 222 202 99
f 222 99 215
f 102 203 222
f 102 222 215
f 74 73 70
f 74 70 71
f 71 70 62
f 71 62 142
f 224 101 74
f 224 74 225
f 189 188 224
f 189 224 225
f 226 224 188
f 226 188 207
f 226 102 101
f 226 101 224
f 228 147 103
f 228 103 227
f 209 208 192
f 209 192 193
f 228 227 208
f 228 208 209
f 210 209 193
f 210 193 194
f 229 228 209
f 229 209 210
f 229 155 147
f 229 147 228
f 232 226 207
f 232 207 214
f 227 103 203
f 227 203 232
f 214 208 227
f 214 227 232
f 232 203 102
f 232 102 226
f 148 218 221
f 148 221 155
f 148 155 229
f 148 229 233
f 229 210 211
f 229 211 233
f 59 57 56
f 59 56 58
f 58 56 145
f 58 145 223
f 142 141 59
f 142 59 58
f 223 71 142
f 223 142 58
f 223 145 189
f 223 189 225
f 223 225 74
f 223 74 71
f 145 56 54
f 145 54 143
f 190 189 145
f 190 145 143
f 187 188 189
f 187 189 190
f 144 143 54
f 144 54 52
f 235 51 144
f 235 144 52
f 105 125 51
f 105 51 50
f 53 52 54
f 53 54 55
f 236 50 51
f 236 51 235
f 236 235 52
f 236 52 53
f 68 50 236
f 68 236 237
f 47 68 237
f 47 237 238
f 237 236 53
f 237 53 67
f 67 53 55
f 67 55 66
f 55 57 65
f 55 65 66
f 65 57 40
f 65 40 42
f 42 40 89
f 42 89 90
f 240 66 65
f 240 65 42
f 44 42 90
f 44 90 91
f 239 240 42
f 239 42 44
f 44 91 92
f 44 92 47
f 44 47 238
f 44 238 239
f 239 238 237
f 239 237 67
f 239 67 66
f 239 66 240
f 230 233 211
f 230 211 212
f 153 148 233
f 153 233 230
f 153 230 244
f 153 244 245
f 220 218 148
f 220 148 153
f 246 220 153
f 246 153 245
f 152 149 218
f 152 218 220
f 158 159 149
f 158 149 152
f 152 220 246
f 152 246 247
f 157 158 152
f 157 152 247
f 213 212 196
f 213 196 197
f 244 230 212
f 244 212 213
f 157 113 112
f 157 112 158
f 273 272 284
f 273 284 285
f 274 273 285
f 274 285 286
f 275 274 286
f 275 286 287
f 276 275 287
f 276 287 288
f 277 276 288
f 277 288 289
f 280 279 291
f 280 291 292
f 281 280 292
f 281 292 293
f 282 281 293
f 282 293 294
f 283 282 294
f 283 294 295
f 295 284 272
f 295 272 283
f 272 273 261
f 272 261 260
f 283 272 260
f 283 260 271
f 282 283 271
f 282 271 270
f 281 282 270
f 281 270 269
f 280 281 269
f 280 269 268
f 279 280 268
f 279 268 267
f 276 277 265
f 276 265 264
f 275 276 264
f 275 264 263
f 262 261 273
f 262 273 274
f 274 275 263
f 274 263 262
f 303 304 292
f 303 292 291
f 293 292 304
f 293 304 305
f 300 301 289
f 300 289 288
f 294 293 305
f 294 305 306
f 295 294 306
f 295 306 307
f 299 300 288
f 299 288 287
f 284 295 307
f 284 307 296
f 285 284 296
f 285 296 297
f 286 285 297
f 286 297 298
f 298 299 287
f 298 287 286
f 298 297 322
f 298 322 323
f 323 322 327
f 323 327 328
f 121 122 3
f 121 3 6
f 6 3 336
f 6 336 337
f 120 121 6
f 120 6 8
f 8 6 337
f 8 337 338
f 119 120 8
f 119 8 10
f 10 8 338
f 10 338 339
f 118 119 10
f 118 10 12
f 12 10 339
f 12 339 340
f 12 198 204
f 12 204 118
f 14 107 204
f 14 204 198
f 108 107 14
f 108 14 16
f 16 14 341
f 16 341 342
f 18 22 24
f 18 24 23
f 23 108 16
f 23 16 18
f 341 14 198
f 341 198 344
f 199 13 341
f 199 341 344
f 344 198 12
f 344 12 340
f 105 50 68
f 105 68 106
f 106 68 47
f 106 47 48
f 48 47 92
f 48 92 93
f 93 81 21
f 93 21 48
f 346 48 21
f 346 21 20
f 21 22 18
f 21 18 20
f 347 345 346
f 347 346 20
f 345 19 105
f 345 105 106
f 345 106 48
f 345 48 346
f 347 20 18
f 347 18 343
f 17 19 345
f 17 345 347
f 125 105 19
f 125 19 17
f 17 347 343
f 17 343 348
f 18 16 342
f 18 342 343
f 342 341 13
f 342 13 15
f 199 344 340
f 199 340 11
f 207 188 187
f 207 187 191
f 11 340 339
f 11 339 9
f 9 339 338
f 9 338 7
f 352 351 11
f 352 11 9
f 352 193 192
f 352 192 351
f 338 337 5
f 338 5 7
f 353 352 9
f 353 9 7
f 211 210 194
f 211 194 195
f 353 194 193
f 353 193 352
f 195 194 353
f 195 353 354
f 196 212 211
f 196 211 195
f 353 7 5
f 353 5 354
f 4 5 337
f 4 337 336
f 355 354 5
f 355 5 4
f 355 196 195
f 355 195 354
f 4 336 335
f 4 335 1
f 356 355 4
f 356 4 1
f 206 192 208
f 206 208 214
f 356 197 196
f 356 196 355
f 350 13 199
f 350 199 357
f 214 207 191
f 214 191 206
f 206 191 350
f 206 350 357
f 357 351 192
f 357 192 206
f 357 199 11
f 357 11 351
f 349 187 190
f 349 190 234
f 350 191 187
f 350 187 349
f 15 13 350
f 15 350 349
f 348 343 342
f 348 342 15
f 349 234 348
f 349 348 15
f 190 143 144
f 190 144 234
f 234 144 51
f 234 51 125
f 234 125 17
f 234 17 348
f 335 336 3
f 335 3 2
f 2 3 122
f 2 122 123
f 231 244 213
f 231 213 243
f 231 151 245
f 231 245 244
f 116 113 157
f 116 157 242
f 242 157 247
f 242 247 150
f 246 245 151
f 246 151 219
f 219 150 247
f 219 247 246
f 124 123 134
f 124 134 128
f 134 113 116
f 134 116 128
f 117 2 123
f 117 123 124
f 114 335 2
f 114 2 117
f 1 335 114
f 1 114 115
f 360 265 277
f 360 277 361
f 361 277 289
f 361 289 362
f 362 289 301
f 362 301 363
f 356 1 115
f 356 115 358
f 278 279 267
f 278 267 266
f 278 266 367
f 278 367 368
f 367 360 361
f 367 361 368
f 290 291 279
f 290 279 278
f 290 278 368
f 290 368 369
f 368 361 362
f 368 362 369
f 302 303 291
f 302 291 290
f 302 290 369
f 302 369 370
f 369 362 363
f 369 363 370
f 243 213 197
f 243 197 241
f 241 197 356
f 241 356 358
f 384 383 394
f 384 394 395
f 396 387 384
f 396 384 395
f 394 383 381
f 394 381 393
f 397 396 395
f 397 395 401
f 389 387 396
f 389 396 397
f 395 394 393
f 395 393 401
f 402 398 397
f 402 397 401
f 399 398 402
f 399 402 403
f 390 400 399
f 390 399 403
f 402 401 393
f 402 393 392
f 404 391 390
f 404 390 403
f 404 403 402
f 404 402 392
f 392 393 381
f 392 381 378
f 405 377 391
f 405 391 404
f 405 404 392
f 405 392 378
f 371 389 397
f 371 397 398
f 372 371 398
f 372 398 399
f 373 372 399
f 373 399 400
f 390 391 377
f 390 377 374
f 374 373 400
f 374 400 390
f 375 374 377
f 375 377 376
f 409 410 375
f 409 375 407
f 434 409 407
f 434 407 435
f 438 437 418
f 438 418 432
f 386 385 384
f 386 384 387
f 388 386 387
f 388 387 389
f 382 383 384
f 382 384 385
f 423 422 435
f 423 435 436
f 436 435 407
f 436 407 408
f 407 375 376
f 407 376 408
f 406 376 377
f 406 377 405
f 462 461 436
f 462 436 408
f 462 408 376
f 462 376 406
f 406 405 378
f 406 378 379
f 380 379 378
f 380 378 381
f 380 381 383
f 380 383 382
f 456 431 429
f 456 429 457
f 456 382 385
f 456 385 431
f 460 423 436
f 460 436 461
f 463 462 406
f 463 406 379
f 458 457 429
f 458 429 427
f 460 461 462
f 460 462 463
f 459 425 423
f 459 423 460
f 459 460 463
f 459 463 468
f 466 425 459
f 466 459 465
f 465 458 427
f 465 427 466
f 464 380 382
f 464 382 456
f 465 459 468
f 465 468 469
f 464 463 379
f 464 379 380
f 469 468 463
f 469 463 464
f 464 456 457
f 464 457 458
f 464 458 465
f 464 465 469
f 440 439 445
f 440 445 470
f 471 470 445
f 471 445 448
f 473 446 440
f 473 440 470
f 474 473 470
f 474 470 471
f 442 439 438
f 442 438 441
f 447 445 439
f 447 439 442
f 443 441 438
f 443 438 432
f 449 448 445
f 449 445 447
f 480 442 441
f 480 441 443
f 449 447 442
f 449 442 480
f 444 443 432
f 444 432 419
f 434 435 422
f 434 422 421
f 424 422 423
f 424 423 425
f 467 424 425
f 467 425 466
f 467 466 427
f 467 427 426
f 485 467 426
f 485 426 488
f 428 426 427
f 428 427 429
f 430 428 429
f 430 429 431
f 452 430 431
f 452 431 385
f 453 452 385
f 453 385 386
f 453 386 388
f 453 388 454
f 508 488 426
f 508 426 428
f 509 508 428
f 509 428 430
f 510 509 430
f 510 430 452
f 511 510 452
f 511 452 453
f 412 416 389
f 412 389 371
f 413 412 371
f 413 371 372
f 517 516 412
f 517 412 413
f 414 413 372
f 414 372 373
f 518 517 413
f 518 413 414
f 415 414 373
f 415 373 374
f 519 518 414
f 519 414 415
f 415 374 375
f 415 375 410
f 455 454 388
f 455 388 417
f 519 325 320
f 519 320 518
f 388 389 416
f 388 416 417
f 411 418 317
f 411 317 330
f 330 325 519
f 330 519 522
f 519 415 410
f 519 410 522
f 523 416 412
f 523 412 516
f 483 482 419
f 483 419 420
f 520 417 416
f 520 416 523
f 521 409 434
f 521 434 525
f 432 418 411
f 432 411 433
f 420 419 432
f 420 432 433
f 525 524 420
f 525 420 433
f 525 434 421
f 525 421 524
f 484 421 422
f 484 422 424
f 526 455 417
f 526 417 520
f 527 524 421
f 527 421 484
f 484 424 467
f 484 467 485
f 486 483 527
f 486 527 528
f 527 483 420
f 527 420 524
f 487 482 483
f 487 483 486
f 527 484 485
f 527 485 528
f 490 487 486
f 490 486 489
f 489 486 528
f 489 528 529
f 528 485 488
f 528 488 529
f 532 530 504
f 532 504 506
f 506 455 526
f 506 526 532
f 495 490 489
f 495 489 512
f 512 489 529
f 512 529 533
f 529 488 508
f 529 508 533
f 497 495 512
f 497 512 513
f 513 512 533
f 513 533 534
f 533 508 509
f 533 509 534
f 499 497 513
f 499 513 514
f 514 513 534
f 514 534 535
f 534 509 510
f 534 510 535
f 308 309 532
f 308 532 526
f 530 532 309
f 530 309 310
f 311 308 526
f 311 526 520
f 314 311 520
f 314 520 523
f 315 314 523
f 315 523 516
f 316 315 516
f 316 516 517
f 517 518 320
f 517 320 316
f 440 446 318
f 440 318 319
f 322 297 296
f 322 296 321
f 333 328 327
f 333 327 332
f 439 440 319
f 439 319 324
f 327 322 321
f 327 321 326
f 438 439 324
f 438 324 329
f 332 327 326
f 332 326 331
f 334 317 418
f 334 418 437
f 437 438 329
f 437 329 334
f 556 370 363
f 556 363 555
f 500 499 514
f 500 514 515
f 502 500 515
f 502 515 557
f 535 510 511
f 535 511 536
f 515 514 535
f 515 535 536
f 507 454 455
f 507 455 506
f 558 536 511
f 558 511 507
f 511 453 454
f 511 454 507
f 507 506 504
f 507 504 502
f 507 502 557
f 507 557 558
f 558 557 515
f 558 515 536
f 537 303 302
f 537 302 539
f 538 304 303
f 538 303 537
f 537 539 310
f 537 310 309
f 309 308 538
f 309 538 537
f 540 305 304
f 540 304 538
f 308 311 540
f 308 540 538
f 539 302 370
f 539 370 556
f 539 556 366
f 539 366 310
f 543 306 305
f 543 305 540
f 311 314 543
f 311 543 540
f 541 301 300
f 541 300 542
f 555 363 301
f 555 301 541
f 542 300 299
f 542 299 546
f 544 307 306
f 544 306 543
f 314 315 544
f 314 544 543
f 545 296 307
f 545 307 544
f 315 316 545
f 315 545 544
f 548 321 296
f 548 296 545
f 316 320 548
f 316 548 545
f 546 299 298
f 546 298 547
f 546 547 319
f 546 319 318
f 547 298 323
f 547 323 550
f 547 550 324
f 547 324 319
f 548 320 325
f 548 325 551
f 548 551 326
f 548 326 321
f 553 330 317
f 553 317 549
f 549 317 334
f 549 334 554
f 549 554 333
f 549 333 332
f 332 331 553
f 332 553 549
f 550 323 328
f 550 328 552
f 550 552 329
f 550 329 324
f 551 325 330
f 551 330 553
f 551 553 331
f 551 331 326
f 552 328 333
f 552 333 554
f 552 554 334
f 552 334 329
f 522 410 409
f 522 409 521
f 411 330 522
f 411 522 521
f 521 525 433
f 521 433 411
f 491 444 419
f 491 419 482
f 491 482 487
f 491 487 492
f 481 480 443
f 481 443 444
f 451 449 480
f 451 480 481
f 481 444 491
f 481 491 561
f 562 451 481
f 562 481 561
f 450 448 449
f 450 449 451
f 493 492 487
f 493 487 490
f 561 491 492
f 561 492 560
f 494 493 490
f 494 490 495
f 494 495 497
f 494 497 496
f 498 496 497
f 498 497 499
f 501 498 499
f 501 499 500
f 501 500 502
f 501 502 503
f 505 503 502
f 505 502 504
f 531 505 504
f 531 504 530
f 531 530 310
f 531 310 366
f 364 366 556
f 364 556 555
f 472 471 448
f 472 448 450
f 563 562 561
f 563 561 560
f 450 451 562
f 450 562 563
f 560 492 493
f 560 493 564
f 564 493 494
f 564 494 565
f 571 472 450
f 571 450 563
f 571 563 560
f 571 560 564
f 475 474 471
f 475 471 472
f 571 564 572
f 571 572 574
f 475 472 571
f 475 571 574
f 572 564 565
f 572 565 573
f 565 494 496
f 565 496 559
f 567 559 496
f 567 496 498
f 567 498 501
f 567 501 568
f 568 501 503
f 568 503 566
f 566 503 505
f 566 505 569
f 569 505 531
f 569 531 570
f 531 366 364
f 531 364 570
f 312 364 555
f 312 555 541
f 575 574 572
f 575 572 573
f 576 573 565
f 576 565 559
f 582 575 573
f 582 573 576
f 577 576 559
f 577 559 567
f 479 475 574
f 479 574 575
f 479 575 582
f 479 582 583
f 583 582 576
f 583 576 577
f 578 577 567
f 578 567 568
f 579 578 568
f 579 568 566
f 580 579 566
f 580 566 569
f 478 474 475
f 478 475 479
f 478 479 583
f 478 583 584
f 584 583 577
f 584 577 578
f 477 473 474
f 477 474 478
f 477 478 584
f 477 584 585
f 585 584 578
f 585 578 579
f 476 446 473
f 476 473 477
f 586 585 579
f 586 579 580
f 313 312 541
f 313 541 542
f 313 318 446
f 313 446 476
f 542 546 318
f 542 318 313
f 581 570 364
f 581 364 312
f 581 580 569
f 581 569 570
f 476 477 585
f 476 585 586
f 586 580 581
f 586 581 587
f 587 313 476
f 587 476 586
f 581 312 313
f 581 313 587
f 589 151 231
f 589 231 588
f 253 252 267
f 253 267 268
f 589 588 252
f 589 252 253
f 590 219 151
f 590 151 589
f 254 253 268
f 254 268 269
f 590 589 253
f 590 253 254
f 591 150 219
f 591 219 590
f 255 254 269
f 255 269 270
f 591 590 254
f 591 254 255
f 266 267 252
f 266 252 251
f 251 252 588
f 251 588 592
f 588 231 243
f 588 243 592
f 256 255 270
f 256 270 271
f 593 591 255
f 593 255 256
f 594 116 242
f 594 242 593
f 593 242 150
f 593 150 591
f 257 256 271
f 257 271 260
f 594 593 256
f 594 256 257
f 595 128 116
f 595 116 594
f 248 258 261
f 248 261 262
f 258 257 260
f 258 260 261
f 595 594 257
f 595 257 258
f 596 595 258
f 596 258 248
f 596 124 128
f 596 128 595
f 249 248 262
f 249 262 263
f 597 596 248
f 597 248 249
f 597 117 124
f 597 124 596
f 250 249 263
f 250 263 264
f 598 597 249
f 598 249 250
f 599 115 114
f 599 114 598
f 598 114 117
f 598 117 597
f 259 250 264
f 259 264 265
f 599 598 250
f 599 250 259
f 600 358 115
f 600 115 599
f 259 265 360
f 259 360 359
f 600 599 259
f 600 259 359
f 367 266 251
f 367 251 365
f 592 243 241
f 592 241 601
f 365 251 592
f 365 592 601
f 359 360 367
f 359 367 365
f 601 600 359
f 601 359 365
f 601 241 358
f 601 358 600
