# Humerus_R rest
v -0.294240 0.082031 -0.030013
v -0.294483 0.081212 -0.040173
v -0.283827 0.082447 -0.040940
v -0.283984 0.085374 -0.030799
v -0.273277 0.088018 -0.032193
v -0.272672 0.082870 -0.041314
v -0.262995 0.089892 -0.032311
v -0.261683 0.083339 -0.040367
v -0.252894 0.091679 -0.031026
v -0.251175 0.084406 -0.038823
v -0.243520 0.093278 -0.029829
v -0.241558 0.085709 -0.037383
v -0.226253 0.097151 -0.027525
v -0.223585 0.088403 -0.034969
v -0.211699 0.101433 -0.025577
v -0.208721 0.092145 -0.033708
v -0.198485 0.107426 -0.025860
v -0.197540 0.095171 -0.034139
v -0.194539 0.110604 -0.026060
v -0.189451 0.102674 -0.033784
v -0.182653 0.101620 -0.035893
v -0.185369 0.091387 -0.036895
v -0.197668 0.084793 -0.034821
v -0.188458 0.081397 -0.034920
v -0.177268 0.087058 -0.041778
v -0.175041 0.099732 -0.040457
v -0.180747 0.076048 -0.038022
v -0.191774 0.075293 -0.029594
v -0.183589 0.069364 -0.030232
v -0.193369 0.073082 -0.020193
v -0.184741 0.067179 -0.020983
v -0.187445 0.072648 -0.010828
v -0.181122 0.066341 -0.012894
v -0.179897 0.072447 -0.004702
v -0.174786 0.067271 -0.007535
v -0.173666 0.075064 -0.000755
v -0.169121 0.071835 -0.003820
v -0.169788 0.084235 0.002863
v -0.163923 0.082664 -0.002969
v -0.168446 0.097560 -0.000062
v -0.161985 0.096084 -0.005429
v -0.169203 0.106661 -0.005264
v -0.163601 0.103863 -0.010589
v -0.171897 0.112482 -0.014508
v -0.166187 0.108343 -0.018815
v -0.170208 0.109224 -0.027123
v -0.177290 0.114004 -0.023255
v -0.181369 0.110568 -0.031067
v -0.173222 0.106834 -0.034527
v -0.190435 0.115623 -0.016119
v -0.192991 0.112033 -0.013390
v -0.187801 0.111315 -0.005186
v -0.182973 0.114165 -0.005660
v -0.186773 0.107450 -0.000153
v -0.180033 0.110239 -0.000587
v -0.185460 0.100965 0.000467
v -0.177035 0.101911 0.002677
v -0.184896 0.096208 0.000779
v -0.176180 0.093932 0.003125
v -0.179068 0.088201 0.006602
v -0.176487 0.082451 0.004746
v -0.185172 0.088289 0.006232
v -0.177732 0.076772 0.002158
v -0.182913 0.075481 -0.000095
v -0.173019 0.107997 -0.001024
v -0.174694 0.112902 -0.004331
v -0.177457 0.116302 -0.009153
v -0.184372 0.118063 -0.020981
v -0.191490 0.076061 -0.005256
v -0.195660 0.085826 0.001411
v -0.196178 0.090789 -0.001459
v -0.201243 0.076311 -0.011363
v -0.205055 0.083549 -0.005024
v -0.205666 0.088436 -0.006957
v -0.209745 0.074264 -0.023571
v -0.211683 0.075147 -0.015820
v -0.184409 0.081074 0.003526
v -0.194473 0.080064 -0.000898
v -0.203813 0.079550 -0.006476
v -0.181083 0.089324 -0.039306
v -0.178833 0.100776 -0.038353
v -0.184407 0.078717 -0.036391
v -0.187453 0.072576 -0.029819
v -0.188936 0.070705 -0.020585
v -0.184668 0.069665 -0.012080
v -0.177393 0.069921 -0.006366
v -0.171539 0.073638 -0.002585
v -0.166683 0.083295 -0.000295
v -0.165627 0.096245 -0.002825
v -0.166846 0.104470 -0.008175
v -0.169603 0.109745 -0.016532
v -0.173880 0.110714 -0.025178
v -0.177171 0.108046 -0.032613
v -0.222871 0.073694 -0.026846
v -0.224140 0.073089 -0.019917
v -0.239444 0.071815 -0.030175
v -0.240177 0.070582 -0.024443
v -0.213368 0.078051 -0.011097
v -0.225569 0.075522 -0.015278
v -0.241960 0.072583 -0.019796
v -0.215302 0.086620 -0.010644
v -0.228022 0.083159 -0.013602
v -0.243997 0.078991 -0.016354
v -0.214521 0.081769 -0.009873
v -0.192843 0.113773 -0.021487
v -0.187371 0.114979 -0.026768
v -0.222410 0.082926 -0.035520
v -0.207683 0.084701 -0.034645
v -0.248983 0.069931 -0.032337
v -0.258315 0.068200 -0.034978
v -0.268865 0.066427 -0.037605
v -0.278225 0.064999 -0.039729
v -0.288668 0.063221 -0.041415
v -0.306340 0.078659 -0.034742
v -0.306161 0.077974 -0.030298
v -0.299209 0.061262 -0.043092
v -0.306417 0.079141 -0.040340
v -0.240430 0.080520 -0.037688
v -0.250115 0.079173 -0.039398
v -0.260468 0.078030 -0.041298
v -0.271290 0.077458 -0.042986
v -0.281900 0.077258 -0.044152
v -0.292538 0.076847 -0.044997
v -0.304418 0.075268 -0.045907
v -0.196814 0.110159 -0.019736
v -0.222175 0.077207 -0.032552
v -0.208340 0.077586 -0.030946
v -0.301391 0.068000 -0.046469
v -0.239622 0.075351 -0.035050
v -0.249199 0.073815 -0.036935
v -0.259089 0.072561 -0.039276
v -0.269790 0.071472 -0.041501
v -0.279705 0.070735 -0.043332
v -0.290220 0.069700 -0.044954
v -0.198920 0.076944 -0.030013
v -0.198939 0.074173 -0.018845
v -0.189524 0.074436 -0.008338
v -0.181285 0.073613 -0.002486
v -0.175680 0.075585 0.001142
v -0.172920 0.082964 0.004365
v -0.177496 0.090661 0.005271
v -0.185464 0.092931 0.003383
v -0.198039 0.104724 -0.004476
v -0.196689 0.108323 -0.009318
v -0.196860 0.098420 -0.003580
v -0.252460 0.071049 -0.022180
v -0.254517 0.076383 -0.018177
v -0.272976 0.072537 -0.021151
v -0.270751 0.067043 -0.026339
v -0.300146 0.059659 -0.032318
v -0.302906 0.065991 -0.025600
v -0.280793 0.064860 -0.028511
v -0.283603 0.070589 -0.022878
v -0.261214 0.069232 -0.024193
v -0.263565 0.074268 -0.019785
v -0.250212 0.068670 -0.026889
v -0.289020 0.060639 -0.035628
v -0.278737 0.062573 -0.033710
v -0.269225 0.064502 -0.031739
v -0.259196 0.066664 -0.029295
v -0.168097 0.097084 -0.039411
v -0.167300 0.103685 -0.034781
v -0.165099 0.105652 -0.028624
v -0.161642 0.104996 -0.021273
v -0.159133 0.101321 -0.014561
v -0.158373 0.094478 -0.010048
v -0.160419 0.082372 -0.008704
v -0.164532 0.072767 -0.010364
v -0.169802 0.067731 -0.012362
v -0.173209 0.066769 -0.017746
v -0.175994 0.066591 -0.023407
v -0.176744 0.068060 -0.029573
v -0.172874 0.073458 -0.035535
v -0.169919 0.084747 -0.040110
v -0.162918 0.093059 -0.036242
v -0.161355 0.096537 -0.032975
v -0.159480 0.098381 -0.028351
v -0.157884 0.099400 -0.023144
v -0.163534 0.083911 -0.034923
v -0.166920 0.072708 -0.029558
v -0.159252 0.086104 -0.028952
v -0.161993 0.075144 -0.022080
v -0.156779 0.090459 -0.023764
v -0.156410 0.095940 -0.018728
v -0.156433 0.091729 -0.015277
v -0.157354 0.084282 -0.017295
v -0.215797 0.099732 -0.013616
v -0.216218 0.094191 -0.010633
v -0.207109 0.096456 -0.007762
v -0.206864 0.102505 -0.009895
v -0.229045 0.095549 -0.016376
v -0.245268 0.091067 -0.019412
v -0.254815 0.089181 -0.020911
v -0.264622 0.087121 -0.022023
v -0.274608 0.084577 -0.022658
v -0.284823 0.081319 -0.023009
v -0.294642 0.077875 -0.023457
v -0.232994 0.086878 -0.036185
v -0.235255 0.094972 -0.028784
v -0.232330 0.071828 -0.022393
v -0.231474 0.072961 -0.028542
v -0.233882 0.073938 -0.017668
v -0.236170 0.080993 -0.015076
v -0.231862 0.081690 -0.036502
v -0.231294 0.076440 -0.033687
v -0.237432 0.093023 -0.018056
v -0.229030 0.090104 -0.012937
v -0.245242 0.086116 -0.015224
v -0.255325 0.084076 -0.016732
v -0.264789 0.082087 -0.018056
v -0.274480 0.079572 -0.019299
v -0.284780 0.076562 -0.020668
v -0.294788 0.073676 -0.022029
v -0.237381 0.088020 -0.014162
v -0.226928 0.079194 -0.013959
v -0.243077 0.075843 -0.018049
v -0.253617 0.073847 -0.020238
v -0.272042 0.070175 -0.023733
v -0.301599 0.062962 -0.028600
v -0.282505 0.068281 -0.025577
v -0.262512 0.071966 -0.022063
v -0.235110 0.077459 -0.016227
v -0.196189 0.094264 -0.003404
v -0.215803 0.090373 -0.010709
v -0.206289 0.092349 -0.007862
v -0.228597 0.086479 -0.012895
v -0.244718 0.082238 -0.014619
v -0.255145 0.079834 -0.016134
v -0.264405 0.077794 -0.017403
v -0.284340 0.073205 -0.020695
v -0.303752 0.068391 -0.023939
v -0.236836 0.084193 -0.013719
v -0.273937 0.075693 -0.018868
v -0.203748 0.105715 -0.016001
v -0.188758 0.113210 -0.009233
v -0.186707 0.115671 -0.010696
v -0.181177 0.118078 -0.015013
v -0.177370 0.116476 -0.017578
v -0.174074 0.115197 -0.012377
v -0.172150 0.112610 -0.007436
v -0.305215 0.074132 -0.024344
v -0.298883 0.058327 -0.037429
v -0.304413 0.070785 -0.023452
v -0.294317 0.070882 -0.022326
v -0.293726 0.068470 -0.024181
v -0.292693 0.065658 -0.027183
v -0.290830 0.062345 -0.030490
v -0.331647 0.070115 -0.048846
v -0.333379 0.073192 -0.042331
v -0.333633 0.071727 -0.038308
v -0.332754 0.062364 -0.028700
v -0.332025 0.059893 -0.029150
v -0.331296 0.057287 -0.030078
v -0.330458 0.053890 -0.032157
v -0.329400 0.051589 -0.036205
v -0.328317 0.051463 -0.042287
v -0.328360 0.055578 -0.048064
v -0.329776 0.063520 -0.050634
v -0.333638 0.069628 -0.035049
v -0.340579 0.053275 -0.048965
v -0.341477 0.061624 -0.051594
v -0.343181 0.068126 -0.049413
v -0.345318 0.070785 -0.043297
v -0.345862 0.069456 -0.039373
v -0.345853 0.067416 -0.036524
v -0.344628 0.059628 -0.030482
v -0.343849 0.057243 -0.031042
v -0.342924 0.054523 -0.032388
v -0.341794 0.051210 -0.034587
v -0.340935 0.048715 -0.037850
v -0.340171 0.049041 -0.043623
v -0.353089 0.050554 -0.049755
v -0.354323 0.059620 -0.052512
v -0.356125 0.066526 -0.049962
v -0.357896 0.069121 -0.044372
v -0.358343 0.067755 -0.040489
v -0.358188 0.065704 -0.037746
v -0.356514 0.057031 -0.032344
v -0.355627 0.054451 -0.032660
v -0.354683 0.051662 -0.034325
v -0.353760 0.048533 -0.036669
v -0.353053 0.046002 -0.039709
v -0.352536 0.046188 -0.044781
v -0.366232 0.046968 -0.050853
v -0.368534 0.057221 -0.054041
v -0.370626 0.065315 -0.051475
v -0.372203 0.068365 -0.046068
v -0.372425 0.066769 -0.041879
v -0.371960 0.064186 -0.038928
v -0.370070 0.053877 -0.034280
v -0.369174 0.050999 -0.034338
v -0.368629 0.048057 -0.036495
v -0.367783 0.045304 -0.038974
v -0.366860 0.042713 -0.041914
v -0.366129 0.042440 -0.045889
v -0.385180 0.041839 -0.055164
v -0.386421 0.053709 -0.057457
v -0.390817 0.063392 -0.055923
v -0.390131 0.067404 -0.050720
v -0.390557 0.065626 -0.046238
v -0.390405 0.062440 -0.043010
v -0.387486 0.050062 -0.038694
v -0.386745 0.046698 -0.038729
v -0.385981 0.043504 -0.041179
v -0.385111 0.040972 -0.043752
v -0.383833 0.038449 -0.046693
v -0.383077 0.037649 -0.050370
v -0.410487 0.036091 -0.043771
v -0.413998 0.040835 -0.042596
v -0.416274 0.045651 -0.042236
v -0.408641 0.032788 -0.046190
v -0.419154 0.061146 -0.046770
v -0.420937 0.066136 -0.050906
v -0.407426 0.029974 -0.050435
v -0.407753 0.029006 -0.056274
v -0.411789 0.030827 -0.061579
v -0.430609 0.044551 -0.053390
v -0.421385 0.067892 -0.057714
v -0.423136 0.064102 -0.062521
v -0.418371 0.033638 -0.065242
v -0.409063 0.041164 -0.062381
v -0.408298 0.048818 -0.062577
v -0.411581 0.055432 -0.062821
v -0.426130 0.058632 -0.063967
v -0.424441 0.036645 -0.064647
v -0.422099 0.041417 -0.063124
v -0.422223 0.046149 -0.061801
v -0.424042 0.049743 -0.061068
v -0.429269 0.053022 -0.060533
v -0.429888 0.039491 -0.056352
v -0.425980 0.042538 -0.058974
v -0.426264 0.045188 -0.057544
v -0.426940 0.047439 -0.057476
v -0.430332 0.048841 -0.055675
v -0.294365 0.081896 -0.034699
v -0.283948 0.084260 -0.035837
v -0.273021 0.085776 -0.036980
v -0.262374 0.086880 -0.036605
v -0.252068 0.088379 -0.035269
v -0.242614 0.089925 -0.034078
v -0.224948 0.093039 -0.031600
v -0.210129 0.097376 -0.030147
v -0.200462 0.101032 -0.030318
v -0.234187 0.091427 -0.033024
v -0.190345 0.109256 -0.030321
v -0.186054 0.108313 -0.032569
v -0.194692 0.104533 -0.030799
v -0.202924 0.104710 -0.025087
v -0.214009 0.102110 -0.019334
v -0.228023 0.098180 -0.021881
v -0.244712 0.093700 -0.024506
v -0.254069 0.091900 -0.025747
v -0.264057 0.090026 -0.026850
v -0.274240 0.087673 -0.027001
v -0.284641 0.084319 -0.026374
v -0.294538 0.080716 -0.026047
v -0.236680 0.095649 -0.023321
v -0.305966 0.076822 -0.026836
v -0.333595 0.066933 -0.031485
v -0.345448 0.064268 -0.033345
v -0.357708 0.062336 -0.035058
v -0.371337 0.060936 -0.036936
v -0.389410 0.058402 -0.040811
v -0.418994 0.055668 -0.044440
v -0.333218 0.064452 -0.029296
v -0.418061 0.050435 -0.042770
v -0.344987 0.061602 -0.031355
v -0.357145 0.059628 -0.033483
v -0.370680 0.057029 -0.035345
v -0.388231 0.053539 -0.039318
v -0.420508 0.016900 -0.061993
v -0.423561 0.017902 -0.069852
v -0.428856 0.019310 -0.074093
v -0.433714 0.020569 -0.074212
v -0.436394 0.025760 -0.068320
v -0.439723 0.021541 -0.068467
v -0.438692 0.016940 -0.072941
v -0.440899 0.012725 -0.063841
v -0.443304 0.015528 -0.061876
v -0.442591 0.013928 -0.057392
v -0.439913 0.011860 -0.059249
v -0.440744 0.013247 -0.052619
v -0.438201 0.011287 -0.055223
v -0.434250 0.012192 -0.052350
v -0.436852 0.014335 -0.047646
v -0.429955 0.016901 -0.046915
v -0.428783 0.014072 -0.051738
v -0.426014 0.019940 -0.048121
v -0.422531 0.016966 -0.054157
v -0.433044 0.013658 -0.074964
v -0.437043 0.012682 -0.073235
v -0.437724 0.010313 -0.064966
v -0.437116 0.010426 -0.060595
v -0.436581 0.010599 -0.057486
v -0.433307 0.011314 -0.056516
v -0.429398 0.012583 -0.055574
v -0.427182 0.012800 -0.058823
v -0.425679 0.012548 -0.064388
v -0.426030 0.012393 -0.070568
v -0.429141 0.014266 -0.074660
v -0.432592 0.010442 -0.060496
v -0.431877 0.009314 -0.065111
v -0.431984 0.010066 -0.070548
v -0.438102 0.010593 -0.069651
v -0.441138 0.014043 -0.068875
v -0.441957 0.018502 -0.066004
v -0.440541 0.027378 -0.066140
v -0.442288 0.023538 -0.065999
v -0.439012 0.032544 -0.060501
v -0.433219 0.031048 -0.063713
v -0.437960 0.040992 -0.054408
v -0.416631 0.021615 -0.059769
v -0.419516 0.023387 -0.066307
v -0.424221 0.026064 -0.069426
v -0.428499 0.028693 -0.069125
v -0.419032 0.020568 -0.053198
v -0.424124 0.022261 -0.047920
v -0.437040 0.045806 -0.054581
v -0.451542 0.044263 -0.061281
v -0.451266 0.039716 -0.061624
v -0.452008 0.031541 -0.064060
v -0.452235 0.024781 -0.065743
v -0.450501 0.021150 -0.064195
v -0.456598 0.022159 -0.061663
v -0.453464 0.018690 -0.060745
v -0.455343 0.016683 -0.050048
v -0.452563 0.014986 -0.052241
v -0.450246 0.016117 -0.045381
v -0.448570 0.014452 -0.048493
v -0.444279 0.017646 -0.042742
v -0.443570 0.015127 -0.046203
v -0.443872 0.047813 -0.060830
v -0.444503 0.041756 -0.061075
v -0.445623 0.033017 -0.064641
v -0.446359 0.026794 -0.067277
v -0.446473 0.023064 -0.065868
v -0.434950 0.049606 -0.055934
v -0.438333 0.054202 -0.060499
v -0.436349 0.060622 -0.064689
v -0.433708 0.065380 -0.063164
v -0.442259 0.056876 -0.063636
v -0.441868 0.059707 -0.065273
v -0.445871 0.053848 -0.063096
v -0.454889 0.049180 -0.061848
v -0.441344 0.063405 -0.064090
v -0.431561 0.069024 -0.057865
v -0.443470 0.061261 -0.065113
v -0.446539 0.062385 -0.062098
v -0.447898 0.060521 -0.064299
v -0.452380 0.059417 -0.058099
v -0.452166 0.058031 -0.061280
v -0.437531 0.019744 -0.043355
v -0.432389 0.022719 -0.044174
v -0.430791 0.024499 -0.046735
v -0.428387 0.026824 -0.047044
v -0.443335 0.014702 -0.051021
v -0.446965 0.014749 -0.051143
v -0.449019 0.015378 -0.053642
v -0.449816 0.018366 -0.059456
v -0.448109 0.019931 -0.061753
v -0.446236 0.021237 -0.063341
v -0.443581 0.020765 -0.063466
v -0.444790 0.018135 -0.060063
v -0.444688 0.015602 -0.055919
v -0.450198 0.016732 -0.056588
v -0.454512 0.016538 -0.056679
v -0.458118 0.018887 -0.056039
v -0.447556 0.018163 -0.058577
v -0.447567 0.017065 -0.056869
v -0.440124 0.066261 -0.062681
v -0.446497 0.065046 -0.060065
v -0.454698 0.062155 -0.055522
v -0.438687 0.069946 -0.056333
v -0.445002 0.068772 -0.053315
v -0.452860 0.064724 -0.048764
v -0.430235 0.067477 -0.051204
v -0.436729 0.068175 -0.049479
v -0.442394 0.067136 -0.046689
v -0.448725 0.063228 -0.041674
v -0.447173 0.058441 -0.065094
v -0.452065 0.055047 -0.062698
v -0.456051 0.042134 -0.055688
v -0.455221 0.037803 -0.056468
v -0.456710 0.029250 -0.059360
v -0.457965 0.026124 -0.053307
v -0.455759 0.035396 -0.050590
v -0.457258 0.039616 -0.049466
v -0.455613 0.023818 -0.047790
v -0.454681 0.033285 -0.045492
v -0.456559 0.036993 -0.043982
v -0.461899 0.045207 -0.057253
v -0.463412 0.042303 -0.050369
v -0.456926 0.040940 -0.043581
v -0.453256 0.039136 -0.039621
v -0.452914 0.035678 -0.039918
v -0.446920 0.040244 -0.037477
v -0.447291 0.036651 -0.037826
v -0.441619 0.042487 -0.038510
v -0.442007 0.038983 -0.039123
v -0.437446 0.041568 -0.041466
v -0.437315 0.045461 -0.040734
v -0.435723 0.042331 -0.043980
v -0.436475 0.046314 -0.044241
v -0.433106 0.043055 -0.043603
v -0.433257 0.047256 -0.043754
v -0.431109 0.035616 -0.045944
v -0.433205 0.034184 -0.046002
v -0.450920 0.023038 -0.043796
v -0.445232 0.024572 -0.041602
v -0.439433 0.027597 -0.042220
v -0.435023 0.031919 -0.044978
v -0.451233 0.032632 -0.041977
v -0.446470 0.033561 -0.040249
v -0.442021 0.035770 -0.041203
v -0.437442 0.038350 -0.043640
v -0.412187 0.025544 -0.058131
v -0.415238 0.027344 -0.063629
v -0.420331 0.030287 -0.066659
v -0.425751 0.033309 -0.066228
v -0.417321 0.027378 -0.047073
v -0.438782 0.036390 -0.056169
v -0.431478 0.035053 -0.059486
v -0.413734 0.025355 -0.052002
v -0.451437 0.035706 -0.062628
v -0.445051 0.037281 -0.062406
v -0.420933 0.031496 -0.045219
v -0.455396 0.033594 -0.057714
v -0.456025 0.030792 -0.052182
v -0.454397 0.028805 -0.047273
v -0.426452 0.044289 -0.043014
v -0.426282 0.049003 -0.043055
v -0.424745 0.038455 -0.046220
v -0.450770 0.028222 -0.043473
v -0.445801 0.029424 -0.041594
v -0.441014 0.031966 -0.042252
v -0.436590 0.035652 -0.044723
v -0.401871 0.043103 -0.041477
v -0.399706 0.039627 -0.043395
v -0.403772 0.046959 -0.041492
v -0.398533 0.036870 -0.045788
v -0.408343 0.061096 -0.046502
v -0.407951 0.065279 -0.050195
v -0.397328 0.034150 -0.049114
v -0.397487 0.033300 -0.053704
v -0.402133 0.035332 -0.058984
v -0.408414 0.066849 -0.055561
v -0.411684 0.063001 -0.060688
v -0.414885 0.037091 -0.063689
v -0.427528 0.044529 -0.054548
v -0.420114 0.056918 -0.063318
v -0.423455 0.039007 -0.063737
v -0.426568 0.051166 -0.060379
v -0.426842 0.041202 -0.057641
v -0.427921 0.047940 -0.056145
v -0.407941 0.055767 -0.044370
v -0.405835 0.050765 -0.042547
v -0.436158 0.038990 -0.043916
v -0.435716 0.036920 -0.044732
v -0.446169 0.042886 -0.037413
v -0.456930 0.048735 -0.050719
v -0.456712 0.051336 -0.056360
v -0.455404 0.054945 -0.057235
v -0.458710 0.054325 -0.053723
v -0.456097 0.046516 -0.046116
v -0.453365 0.041221 -0.039875
v -0.437100 0.050668 -0.043681
v -0.441210 0.046256 -0.038829
v -0.438193 0.049937 -0.042238
v -0.433137 0.051807 -0.045336
v -0.425534 0.054065 -0.045580
v -0.460953 0.056963 -0.051420
v -0.459774 0.048815 -0.042687
v -0.455671 0.046494 -0.035344
v -0.462041 0.058982 -0.045441
v -0.456959 0.058364 -0.034312
v -0.443275 0.048294 -0.031999
v -0.438918 0.051901 -0.036254
v -0.437917 0.054382 -0.040471
v -0.435731 0.055729 -0.042287
v -0.427939 0.058765 -0.045359
v -0.423782 0.060138 -0.046119
v -0.450552 0.058359 -0.033165
v -0.443406 0.060775 -0.037079
v -0.439944 0.060822 -0.042269
v -0.434643 0.062506 -0.045544
v -0.429092 0.063652 -0.047155
v -0.424816 0.064152 -0.047983
v -0.317500 0.064214 -0.026405
v -0.316700 0.061648 -0.027150
v -0.315674 0.058170 -0.029241
v -0.314309 0.055518 -0.034051
v -0.318219 0.066658 -0.026057
v -0.313049 0.054605 -0.039949
v -0.313380 0.058418 -0.045607
v -0.315365 0.065861 -0.048540
v -0.317932 0.072743 -0.047152
v -0.319741 0.076168 -0.041287
v -0.319725 0.074992 -0.036623
v -0.319511 0.073225 -0.032715
v -0.319361 0.071437 -0.029206
v -0.318930 0.069309 -0.026646
f 80 22 21
f 80 21 81
f 82 24 22
f 82 22 80
f 79 78 70
f 79 70 73
f 95 76 98
f 95 98 99
f 130 119 118
f 130 118 129
f 131 120 119
f 131 119 130
f 132 121 120
f 132 120 131
f 133 122 121
f 133 121 132
f 134 123 122
f 134 122 133
f 28 24 82
f 28 82 83
f 72 79 98
f 72 98 76
f 30 28 83
f 30 83 84
f 75 76 95
f 75 95 94
f 135 127 108
f 135 108 23
f 135 23 24
f 135 24 28
f 136 72 76
f 136 76 75
f 135 28 30
f 135 30 136
f 75 127 135
f 75 135 136
f 69 78 79
f 69 79 72
f 32 30 84
f 32 84 85
f 136 30 32
f 136 32 137
f 69 72 136
f 69 136 137
f 77 78 69
f 77 69 64
f 34 32 85
f 34 85 86
f 137 32 34
f 137 34 138
f 64 69 137
f 64 137 138
f 36 34 86
f 36 86 87
f 138 34 36
f 138 36 139
f 63 64 138
f 63 138 139
f 38 88 89
f 38 89 40
f 77 64 63
f 77 63 61
f 38 36 87
f 38 87 88
f 140 61 63
f 140 63 139
f 140 139 36
f 140 36 38
f 38 40 57
f 38 57 59
f 60 61 140
f 60 140 141
f 140 38 59
f 140 59 141
f 62 70 78
f 62 78 77
f 77 61 60
f 77 60 62
f 62 60 141
f 62 141 142
f 57 55 54
f 57 54 56
f 112 113 134
f 112 134 133
f 111 112 133
f 111 133 132
f 131 130 109
f 131 109 110
f 110 111 132
f 110 132 131
f 158 112 111
f 158 111 159
f 159 111 110
f 159 110 160
f 160 110 109
f 160 109 156
f 146 154 160
f 146 160 156
f 49 26 81
f 49 81 93
f 49 93 92
f 49 92 46
f 45 46 92
f 45 92 91
f 43 45 91
f 43 91 90
f 41 43 90
f 41 90 89
f 39 41 89
f 39 89 88
f 37 39 88
f 37 88 87
f 35 37 87
f 35 87 86
f 33 35 86
f 33 86 85
f 31 33 85
f 31 85 84
f 29 31 84
f 29 84 83
f 27 29 83
f 27 83 82
f 25 27 82
f 25 82 80
f 80 81 26
f 80 26 25
f 161 26 49
f 161 49 162
f 163 162 49
f 163 49 46
f 164 163 46
f 164 46 45
f 174 25 26
f 174 26 161
f 173 27 25
f 173 25 174
f 173 172 29
f 173 29 27
f 171 31 29
f 171 29 172
f 175 161 162
f 175 162 176
f 174 161 175
f 174 175 179
f 173 174 179
f 173 179 180
f 171 172 173
f 171 173 180
f 170 33 31
f 170 31 171
f 170 169 35
f 170 35 33
f 177 176 162
f 177 162 163
f 179 175 176
f 179 176 181
f 178 177 163
f 178 163 164
f 165 164 45
f 165 45 43
f 184 178 164
f 184 164 165
f 166 165 43
f 166 43 41
f 185 184 165
f 185 165 166
f 167 166 41
f 167 41 39
f 181 176 177
f 181 177 183
f 183 177 178
f 183 178 184
f 186 185 166
f 186 166 167
f 168 167 39
f 168 39 37
f 168 37 35
f 168 35 169
f 180 179 181
f 180 181 182
f 182 181 183
f 182 183 186
f 170 171 180
f 170 180 182
f 168 169 170
f 168 170 182
f 186 167 168
f 186 168 182
f 183 184 185
f 183 185 186
f 96 97 156
f 96 156 109
f 201 200 97
f 201 97 96
f 96 109 130
f 96 130 129
f 201 94 95
f 201 95 200
f 146 156 97
f 146 97 100
f 126 94 201
f 126 201 205
f 201 96 129
f 201 129 205
f 127 75 94
f 127 94 126
f 107 108 127
f 107 127 126
f 205 204 107
f 205 107 126
f 205 129 118
f 205 118 204
f 217 146 100
f 217 100 216
f 217 216 103
f 217 103 147
f 159 160 154
f 159 154 149
f 218 149 154
f 218 154 221
f 221 217 147
f 221 147 155
f 222 216 100
f 222 100 202
f 221 154 146
f 221 146 217
f 222 203 103
f 222 103 216
f 200 95 99
f 200 99 202
f 100 97 200
f 100 200 202
f 104 98 79
f 104 79 73
f 215 99 98
f 215 98 104
f 104 73 74
f 104 74 101
f 104 101 102
f 104 102 215
f 222 202 99
f 222 99 215
f 102 203 222
f 102 222 215
f 74 73 70
f 74 70 71
f 71 70 62
f 71 62 142
f 224 101 74
f 224 74 225
f 189 188 224
f 189 224 225
f 226 224 188
f 226 188 207
f 226 102 101
f 226 101 224
f 228 147 103
f 228 103 227
f 209 208 192
f 209 192 193
f 228 227 208
f 228 208 209
f 210 209 193
f 210 193 194
f 229 228 209
f 229 209 210
f 229 155 147
f 229 147 228
f 232 226 207
f 232 207 214
f 227 103 203
f 227 203 232
f 214 208 227
f 214 227 232
f 232 203 102
f 232 102 226
f 148 218 221
f 148 221 155
f 148 155 229
f 148 229 233
f 229 210 211
f 229 211 233
f 59 57 56
f 59 56 58
f 58 56 145
f 58 145 223
f 142 141 59
f 142 59 58
f 223 71 142
f 223 142 58
f 223 145 189
f 223 189 225
f 223 225 74
f 223 74 71
f 145 56 54
f 145 54 143
f 190 189 145
f 190 145 143
f 187 188 189
f 187 189 190
f 144 143 54
f 144 54 52
f 235 51 144
f 235 144 52
f 105 125 51
f 105 51 50
f 53 52 54
f 53 54 55
f 236 50 51
f 236 51 235
f 236 235 52
f 236 52 53
f 68 50 236
f 68 236 237
f 47 68 237
f 47 237 238
f 237 236 53
f 237 53 67
f 67 53 55
f 67 55 66
f 55 57 65
f 55 65 66
f 65 57 40
f 65 40 42
f 42 40 89
f 42 89 90
f 240 66 65
f 240 65 42
f 44 42 90
f 44 90 91
f 239 240 42
f 239 42 44
f 44 91 92
f 44 92 47
f 44 47 238
f 44 238 239
f 239 238 237
f 239 237 67
f 239 67 66
f 239 66 240
f 230 233 211
f 230 211 212
f 153 148 233
f 153 233 230
f 153 230 244
f 153 244 245
f 220 218 148
f 220 148 153
f 246 220 153
f 246 153 245
f 152 149 218
f 152 218 220
f 158 159 149
f 158 149 152
f 152 220 246
f 152 246 247
f 157 158 152
f 157 152 247
f 213 212 196
f 213 196 197
f 244 230 212
f 244 212 213
f 157 113 112
f 157 112 158
f 273 272 284
f 273 284 285
f 274 273 285
f 274 285 286
f 275 274 286
f 275 286 287
f 276 275 287
f 276 287 288
f 277 276 288
f 277 288 289
f 280 279 291
f 280 291 292
f 281 280 292
f 281 292 293
f 282 281 293
f 282 293 294
f 283 282 294
f 283 294 295
f 295 284 272
f 295 272 283
f 272 273 261
f 272 261 260
f 283 272 260
f 283 260 271
f 282 283 271
f 282 271 270
f 281 282 270
f 281 270 269
f 280 281 269
f 280 269 268
f 279 280 268
f 279 268 267
f 276 277 265
f 276 265 264
f 275 276 264
f 275 264 263
f 262 261 273
f 262 273 274
f 274 275 263
f 274 263 262
f 303 304 292
f 303 292 291
f 293 292 304
f 293 304 305
f 300 301 289
f 300 289 288
f 294 293 305
f 294 305 306
f 295 294 306
f 295 306 307
f 299 300 288
f 299 288 287
f 284 295 307
f 284 307 296
f 285 284 296
f 285 296 297
f 286 285 297
f 286 297 298
f 298 299 287
f 298 287 286
f 298 297 322
f 298 322 323
f 323 322 327
f 323 327 328
f 121 122 3
f 121 3 6
f 6 3 336
f 6 336 337
f 120 121 6
f 120 6 8
f 8 6 337
f 8 337 338
f 119 120 8
f 119 8 10
f 10 8 338
f 10 338 339
f 118 119 10
f 118 10 12
f 12 10 339
f 12 339 340
f 12 198 204
f 12 204 118
f 14 107 204
f 14 204 198
f 108 107 14
f 108 14 16
f 16 14 341
f 16 341 342
f 18 22 24
f 18 24 23
f 23 108 16
f 23 16 18
f 341 14 198
f 341 198 344
f 199 13 341
f 199 341 344
f 344 198 12
f 344 12 340
f 105 50 68
f 105 68 106
f 106 68 47
f 106 47 48
f 48 47 92
f 48 92 93
f 93 81 21
f 93 21 48
f 346 48 21
f 346 21 20
f 21 22 18
f 21 18 20
f 347 345 346
f 347 346 20
f 345 19 105
f 345 105 106
f 345 106 48
f 345 48 346
f 347 20 18
f 347 18 343
f 17 19 345
f 17 345 347
f 125 105 19
f 125 19 17
f 17 347 343
f 17 343 348
f 18 16 342
f 18 342 343
f 342 341 13
f 342 13 15
f 199 344 340
f 199 340 11
f 207 188 187
f 207 187 191
f 11 340 339
f 11 339 9
f 9 339 338
f 9 338 7
f 352 351 11
f 352 11 9
f 352 193 192
f 352 192 351
f 338 337 5
f 338 5 7
f 353 352 9
f 353 9 7
f 211 210 194
f 211 194 195
f 353 194 193
f 353 193 352
f 195 194 353
f 195 353 354
f 196 212 211
f 196 211 195
f 353 7 5
f 353 5 354
f 4 5 337
f 4 337 336
f 355 354 5
f 355 5 4
f 355 196 195
f 355 195 354
f 4 336 335
f 4 335 1
f 356 355 4
f 356 4 1
f 206 192 208
f 206 208 214
f 356 197 196
f 356 196 355
f 350 13 199
f 350 199 357
f 214 207 191
f 214 191 206
f 206 191 350
f 206 350 357
f 357 351 192
f 357 192 206
f 357 199 11
f 357 11 351
f 349 187 190
f 349 190 234
f 350 191 187
f 350 187 349
f 15 13 350
f 15 350 349
f 348 343 342
f 348 342 15
f 349 234 348
f 349 348 15
f 190 143 144
f 190 144 234
f 234 144 51
f 234 51 125
f 234 125 17
f 234 17 348
f 335 336 3
f 335 3 2
f 2 3 122
f 2 122 123
f 231 244 213
f 231 213 243
f 231 151 245
f 231 245 244
f 116 113 157
f 116 157 242
f 242 157 247
f 242 247 150
f 246 245 151
f 246 151 219
f 219 150 247
f 219 247 246
f 124 123 134
f 124 134 128
f 134 113 116
f 134 116 128
f 117 2 123
f 117 123 124
f 114 335 2
f 114 2 117
f 1 335 114
f 1 114 115
f 360 265 277
f 360 277 361
f 361 277 289
f 361 289 362
f 362 289 301
f 362 301 363
f 356 1 115
f 356 115 358
f 278 279 267
f 278 267 266
f 278 266 367
f 278 367 368
f 367 360 361
f 367 361 368
f 290 291 279
f 290 279 278
f 290 278 368
f 290 368 369
f 368 361 362
f 368 362 369
f 302 303 291
f 302 291 290
f 302 290 369
f 302 369 370
f 369 362 363
f 369 363 370
f 243 213 197
f 243 197 241
f 241 197 356
f 241 356 358
f 384 383 394
f 384 394 395
f 396 387 384
f 396 384 395
f 394 383 381
f 394 381 393
f 397 396 395
f 397 395 401
f 389 387 396
f 389 396 397
f 395 394 393
f 395 393 401
f 402 398 397
f 402 397 401
f 399 398 402
f 399 402 403
f 390 400 399
f 390 399 403
f 402 401 393
f 402 393 392
f 404 391 390
f 404 390 403
f 404 403 402
f 404 402 392
f 392 393 381
f 392 381 378
f 405 377 391
f 405 391 404
f 405 404 392
f 405 392 378
f 371 389 397
f 371 397 398
f 372 371 398
f 372 398 399
f 373 372 399
f 373 399 400
f 390 391 377
f 390 377 374
f 374 373 400
f 374 400 390
f 375 374 377
f 375 377 376
f 409 410 375
f 409 375 407
f 434 409 407
f 434 407 435
f 438 437 418
f 438 418 432
f 386 385 384
f 386 384 387
f 388 386 387
f 388 387 389
f 382 383 384
f 382 384 385
f 423 422 435
f 423 435 436
f 436 435 407
f 436 407 408
f 407 375 376
f 407 376 408
f 406 376 377
f 406 377 405
f 462 461 436
f 462 436 408
f 462 408 376
f 462 376 406
f 406 405 378
f 406 378 379
f 380 379 378
f 380 378 381
f 380 381 383
f 380 383 382
f 456 431 429
f 456 429 457
f 456 382 385
f 456 385 431
f 460 423 436
f 460 436 461
f 463 462 406
f 463 406 379
f 458 457 429
f 458 429 427
f 460 461 462
f 460 462 463
f 459 425 423
f 459 423 460
f 459 460 463
f 459 463 468
f 466 425 459
f 466 459 465
f 465 458 427
f 465 427 466
f 464 380 382
f 464 382 456
f 465 459 468
f 465 468 469
f 464 463 379
f 464 379 380
f 469 468 463
f 469 463 464
f 464 456 457
f 464 457 458
f 464 458 465
f 464 465 469
f 440 439 445
f 440 445 470
f 471 470 445
f 471 445 448
f 473 446 440
f 473 440 470
f 474 473 470
f 474 470 471
f 442 439 438
f 442 438 441
f 447 445 439
f 447 439 442
f 443 441 438
f 443 438 432
f 449 448 445
f 449 445 447
f 480 442 441
f 480 441 443
f 449 447 442
f 449 442 480
f 444 443 432
f 444 432 419
f 434 435 422
f 434 422 421
f 424 422 423
f 424 423 425
f 467 424 425
f 467 425 466
f 467 466 427
f 467 427 426
f 485 467 426
f 485 426 488
f 428 426 427
f 428 427 429
f 430 428 429
f 430 429 431
f 452 430 431
f 452 431 385
f 453 452 385
f 453 385 386
f 453 386 388
f 453 388 454
f 508 488 426
f 508 426 428
f 509 508 428
f 509 428 430
f 510 509 430
f 510 430 452
f 511 510 452
f 511 452 453
f 412 416 389
f 412 389 371
f 413 412 371
f 413 371 372
f 517 516 412
f 517 412 413
f 414 413 372
f 414 372 373
f 518 517 413
f 518 413 414
f 415 414 373
f 415 373 374
f 519 518 414
f 519 414 415
f 415 374 375
f 415 375 410
f 455 454 388
f 455 388 417
f 519 325 320
f 519 320 518
f 388 389 416
f 388 416 417
f 411 418 317
f 411 317 330
f 330 325 519
f 330 519 522
f 519 415 410
f 519 410 522
f 523 416 412
f 523 412 516
f 483 482 419
f 483 419 420
f 520 417 416
f 520 416 523
f 521 409 434
f 521 434 525
f 432 418 411
f 432 411 433
f 420 419 432
f 420 432 433
f 525 524 420
f 525 420 433
f 525 434 421
f 525 421 524
f 484 421 422
f 484 422 424
f 526 455 417
f 526 417 520
f 527 524 421
f 527 421 484
f 484 424 467
f 484 467 485
f 486 483 527
f 486 527 528
f 527 483 420
f 527 420 524
f 487 482 483
f 487 483 486
f 527 484 485
f 527 485 528
f 490 487 486
f 490 486 489
f 489 486 528
f 489 528 529
f 528 485 488
f 528 488 529
f 532 530 504
f 532 504 506
f 506 455 526
f 506 526 532
f 495 490 489
f 495 489 512
f 512 489 529
f 512 529 533
f 529 488 508
f 529 508 533
f 497 495 512
f 497 512 513
f 513 512 533
f 513 533 534
f 533 508 509
f 533 509 534
f 499 497 513
f 499 513 514
f 514 513 534
f 514 534 535
f 534 509 510
f 534 510 535
f 308 309 532
f 308 532 526
f 530 532 309
f 530 309 310
f 311 308 526
f 311 526 520
f 314 311 520
f 314 520 523
f 315 314 523
f 315 523 516
f 316 315 516
f 316 516 517
f 517 518 320
f 517 320 316
f 440 446 318
f 440 318 319
f 322 297 296
f 322 296 321
f 333 328 327
f 333 327 332
f 439 440 319
f 439 319 324
f 327 322 321
f 327 321 326
f 438 439 324
f 438 324 329
f 332 327 326
f 332 326 331
f 334 317 418
f 334 418 437
f 437 438 329
f 437 329 334
f 556 370 363
f 556 363 555
f 500 499 514
f 500 514 515
f 502 500 515
f 502 515 557
f 535 510 511
f 535 511 536
f 515 514 535
f 515 535 536
f 507 454 455
f 507 455 506
f 558 536 511
f 558 511 507
f 511 453 454
f 511 454 507
f 507 506 504
f 507 504 502
f 507 502 557
f 507 557 558
f 558 557 515
f 558 515 536
f 537 303 302
f 537 302 539
f 538 304 303
f 538 303 537
f 537 539 310
f 537 310 309
f 309 308 538
f 309 538 537
f 540 305 304
f 540 304 538
f 308 311 540
f 308 540 538
f 539 302 370
f 539 370 556
f 539 556 366
f 539 366 310
f 543 306 305
f 543 305 540
f 311 314 543
f 311 543 540
f 541 301 300
f 541 300 542
f 555 363 301
f 555 301 541
f 542 300 299
f 542 299 546
f 544 307 306
f 544 306 543
f 314 315 544
f 314 544 543
f 545 296 307
f 545 307 544
f 315 316 545
f 315 545 544
f 548 321 296
f 548 296 545
f 316 320 548
f 316 548 545
f 546 299 298
f 546 298 547
f 546 547 319
f 546 319 318
f 547 298 323
f 547 323 550
f 547 550 324
f 547 324 319
f 548 320 325
f 548 325 551
f 548 551 326
f 548 326 321
f 553 330 317
f 553 317 549
f 549 317 334
f 549 334 554
f 549 554 333
f 549 333 332
f 332 331 553
f 332 553 549
f 550 323 328
f 550 328 552
f 550 552 329
f 550 329 324
f 551 325 330
f 551 330 553
f 551 553 331
f 551 331 326
f 552 328 333
f 552 333 554
f 552 554 334
f 552 334 329
f 522 410 409
f 522 409 521
f 411 330 522
f 411 522 521
f 521 525 433
f 521 433 411
f 491 444 419
f 491 419 482
f 491 482 487
f 491 487 492
f 481 480 443
f 481 443 444
f 451 449 480
f 451 480 481
f 481 444 491
f 481 491 561
f 562 451 481
f 562 481 561
f 450 448 449
f 450 449 451
f 493 492 487
f 493 487 490
f 561 491 492
f 561 492 560
f 494 493 490
f 494 490 495
f 494 495 497
f 494 497 496
f 498 496 497
f 498 497 499
f 501 498 499
f 501 499 500
f 501 500 502
f 501 502 503
f 505 503 502
f 505 502 504
f 531 505 504
f 531 504 530
f 531 530 310
f 531 310 366
f 364 366 556
f 364 556 555
f 472 471 448
f 472 448 450
f 563 562 561
f 563 561 560
f 450 451 562
f 450 562 563
f 560 492 493
f 560 493 564
f 564 493 494
f 564 494 565
f 571 472 450
f 571 450 563
f 571 563 560
f 571 560 564
f 475 474 471
f 475 471 472
f 571 564 572
f 571 572 574
f 475 472 571
f 475 571 574
f 572 564 565
f 572 565 573
f 565 494 496
f 565 496 559
f 567 559 496
f 567 496 498
f 567 498 501
f 567 501 568
f 568 501 503
f 568 503 566
f 566 503 505
f 566 505 569
f 569 505 531
f 569 531 570
f 531 366 364
f 531 364 570
f 312 364 555
f 312 555 541
f 575 574 572
f 575 572 573
f 576 573 565
f 576 565 559
f 582 575 573
f 582 573 576
f 577 576 559
f 577 559 567
f 479 475 574
f 479 574 575
f 479 575 582
f 479 582 583
f 583 582 576
f 583 576 577
f 578 577 567
f 578 567 568
f 579 578 568
f 579 568 566
f 580 579 566
f 580 566 569
f 478 474 475
f 478 475 479
f 478 479 583
f 478 583 584
f 584 583 577
f 584 577 578
f 477 473 474
f 477 474 478
f 477 478 584
f 477 584 585
f 585 584 578
f 585 578 579
f 476 446 473
f 476 473 477
f 586 585 579
f 586 579 580
f 313 312 541
f 313 541 542
f 313 318 446
f 313 446 476
f 542 546 318
f 542 318 313
f 581 570 364
f 581 364 312
f 581 580 569
f 581 569 570
f 476 477 585
f 476 585 586
f 586 580 581
f 586 581 587
f 587 313 476
f 587 476 586
f 581 312 313
f 581 313 587
f 589 151 231
f 589 231 588
f 253 252 267
f 253 267 268
f 589 588 252
f 589 252 253
f 590 219 151
f 590 151 589
f 254 253 268
f 254 268 269
f 590 589 253
f 590 253 254
f 591 150 219
f 591 219 590
f 255 254 269
f 255 269 270
f 591 590 254
f 591 254 255
f 266 267 252
f 266 252 251
f 251 252 588
f 251 588 592
f 588 231 243
f 588 243 592
f 256 255 270
f 256 270 271
f 593 591 255
f 593 255 256
f 594 116 242
f 594 242 593
f 593 242 150
f 593 150 591
f 257 256 271
f 257 271 260
f 594 593 256
f 594 256 257
f 595 128 116
f 595 116 594
f 248 258 261
f 248 261 262
f 258 257 260
f 258 260 261
f 595 594 257
f 595 257 258
f 596 595 258
f 596 258 248
f 596 124 128
f 596 128 595
f 249 248 262
f 249 262 263
f 597 596 248
f 597 248 249
f 597 117 124
f 597 124 596
f 250 249 263
f 250 263 264
f 598 597 249
f 598 249 250
f 599 115 114
f 599 114 598
f 598 114 117
f 598 117 597
f 259 250 264
f 259 264 265
f 599 598 250
f 599 250 259
f 600 358 115
f 600 115 599
f 259 265 360
f 259 360 359
f 600 599 259
f 600 259 359
f 367 266 251
f 367 251 365
f 592 243 241
f 592 241 601
f 365 251 592
f 365 592 601
f 359 360 367
f 359 367 365
f 601 600 359
f 601 359 365
f 601 241 358
f 601 358 600
