# Humerus_L posed
v -0.547544 -0.284700 0.334922
v -0.547821 -0.289579 0.343025
v -0.551743 -0.281453 0.348394
v -0.553085 -0.277401 0.339944
v -0.558213 -0.269861 0.345746
v -0.555035 -0.272549 0.353769
v -0.562421 -0.261888 0.350434
v -0.558117 -0.263174 0.358032
v -0.566310 -0.253380 0.353966
v -0.561461 -0.254055 0.361572
v -0.569840 -0.245473 0.357273
v -0.564761 -0.245780 0.364787
v -0.577148 -0.231079 0.363259
v -0.571122 -0.230522 0.371063
v -0.584380 -0.219183 0.368234
v -0.577923 -0.218599 0.376732
v -0.594004 -0.209881 0.373953
v -0.583836 -0.210365 0.381965
v -0.598697 -0.207511 0.375474
v -0.593821 -0.205323 0.384522
v -0.596017 -0.200710 0.389087
v -0.585019 -0.201135 0.389738
v -0.574461 -0.208623 0.383304
v -0.574377 -0.200621 0.387725
v -0.586405 -0.196303 0.396760
v -0.599340 -0.196595 0.395538
v -0.574011 -0.195040 0.393395
v -0.566823 -0.199557 0.382740
v -0.565264 -0.192341 0.386924
v -0.562606 -0.196049 0.375162
v -0.561084 -0.188591 0.379718
v -0.562765 -0.187074 0.370678
v -0.560532 -0.182021 0.375158
v -0.564875 -0.178512 0.369134
v -0.563222 -0.175004 0.373613
v -0.569440 -0.172527 0.368451
v -0.569083 -0.169915 0.372810
v -0.579147 -0.169665 0.366523
v -0.580888 -0.167558 0.373547
v -0.592702 -0.172428 0.368147
v -0.595062 -0.169680 0.375008
v -0.602261 -0.177163 0.370824
v -0.602796 -0.174739 0.377502
v -0.608340 -0.184676 0.376105
v -0.607459 -0.181391 0.382196
v -0.607975 -0.188537 0.386707
v -0.608883 -0.193272 0.380327
v -0.604925 -0.199397 0.384929
v -0.605818 -0.193871 0.391204
v -0.604011 -0.200690 0.369004
v -0.598737 -0.200645 0.366290
v -0.599103 -0.192592 0.362267
v -0.604253 -0.189634 0.364320
v -0.595093 -0.188669 0.359243
v -0.600880 -0.184186 0.362122
v -0.588624 -0.185971 0.360217
v -0.593106 -0.178651 0.361913
v -0.583945 -0.184406 0.360799
v -0.585283 -0.176193 0.362860
v -0.578760 -0.175811 0.359335
v -0.574532 -0.173582 0.362411
v -0.576519 -0.180701 0.356981
v -0.569105 -0.174635 0.364355
v -0.566058 -0.179346 0.364037
v -0.601650 -0.178477 0.365718
v -0.606505 -0.182307 0.366938
v -0.609448 -0.187393 0.369068
v -0.609982 -0.198713 0.374986
v -0.563877 -0.188386 0.364325
v -0.570929 -0.190582 0.356359
v -0.575301 -0.193240 0.357994
v -0.562028 -0.198916 0.364576
v -0.566803 -0.200522 0.357258
v -0.571114 -0.202870 0.358072
v -0.560094 -0.210959 0.370061
v -0.559237 -0.209118 0.363166
v -0.570239 -0.179933 0.360117
v -0.566248 -0.189558 0.359223
v -0.563739 -0.199394 0.359309
v -0.585756 -0.198520 0.393368
v -0.597743 -0.198735 0.392468
v -0.574124 -0.197619 0.390629
v -0.566174 -0.195747 0.384898
v -0.562186 -0.192301 0.377520
v -0.561583 -0.184957 0.372950
v -0.564033 -0.176907 0.371568
v -0.569309 -0.171483 0.370818
v -0.579873 -0.168548 0.370341
v -0.592918 -0.171263 0.371599
v -0.601273 -0.176208 0.374351
v -0.606660 -0.183231 0.378989
v -0.607172 -0.190770 0.383650
v -0.604502 -0.196275 0.388130
v -0.557150 -0.222985 0.366460
v -0.555329 -0.220660 0.360598
v -0.552250 -0.237609 0.361467
v -0.550246 -0.235251 0.356801
v -0.560764 -0.208890 0.358489
v -0.556465 -0.220170 0.356141
v -0.550924 -0.234955 0.352183
v -0.567726 -0.211995 0.356486
v -0.562281 -0.222980 0.353002
v -0.555496 -0.236381 0.347945
v -0.563571 -0.210014 0.356683
v -0.601899 -0.204709 0.372322
v -0.606348 -0.203118 0.378533
v -0.566682 -0.228644 0.372514
v -0.571694 -0.216625 0.378560
v -0.548727 -0.245986 0.358901
v -0.545388 -0.254462 0.356830
v -0.541647 -0.263931 0.354239
v -0.538359 -0.272277 0.351797
v -0.534395 -0.281233 0.348583
v -0.542006 -0.296154 0.333503
v -0.541070 -0.293715 0.330087
v -0.530199 -0.290234 0.345364
v -0.542932 -0.299018 0.337914
v -0.560580 -0.243857 0.366027
v -0.557298 -0.252293 0.363007
v -0.554001 -0.261423 0.359841
v -0.550983 -0.270978 0.356270
v -0.548209 -0.280210 0.352369
v -0.545163 -0.289278 0.348234
v -0.540760 -0.299139 0.343728
v -0.596324 -0.206255 0.369707
v -0.561259 -0.225834 0.370848
v -0.564595 -0.213941 0.376036
v -0.535547 -0.295214 0.346348
v -0.555932 -0.240817 0.364833
v -0.552597 -0.249188 0.362016
v -0.549432 -0.258103 0.359419
v -0.546118 -0.267679 0.356383
v -0.543185 -0.276517 0.353391
v -0.539764 -0.285693 0.350014
v -0.566241 -0.205780 0.379731
v -0.561795 -0.200074 0.371529
v -0.563316 -0.187912 0.367732
v -0.565190 -0.178809 0.366739
v -0.568976 -0.173312 0.366086
v -0.576550 -0.171140 0.364148
v -0.581655 -0.175646 0.360869
v -0.580650 -0.183065 0.358753
v -0.588682 -0.199004 0.357923
v -0.593153 -0.200910 0.361922
v -0.582521 -0.196300 0.358561
v -0.547533 -0.244285 0.349278
v -0.551103 -0.245246 0.344667
v -0.543867 -0.260873 0.338767
v -0.540361 -0.260279 0.344455
v -0.527567 -0.285490 0.336508
v -0.531471 -0.286015 0.329164
v -0.536338 -0.269023 0.341773
v -0.539845 -0.269949 0.335405
v -0.544211 -0.251968 0.346960
v -0.547400 -0.252923 0.341902
v -0.546655 -0.244147 0.354214
v -0.531552 -0.278174 0.344099
v -0.535532 -0.269287 0.347058
v -0.539249 -0.261015 0.349655
v -0.543168 -0.252158 0.352132
v -0.600076 -0.190196 0.397710
v -0.605841 -0.188768 0.394010
v -0.607427 -0.184584 0.390173
v -0.607073 -0.178405 0.386119
v -0.603456 -0.172705 0.382438
v -0.596142 -0.168767 0.380041
v -0.583085 -0.167448 0.379314
v -0.572759 -0.169547 0.379578
v -0.566377 -0.173480 0.379266
v -0.564880 -0.178259 0.382020
v -0.564633 -0.182885 0.385114
v -0.566930 -0.186537 0.389261
v -0.574724 -0.187338 0.394847
v -0.587466 -0.189405 0.398575
v -0.598050 -0.183938 0.397752
v -0.601438 -0.181923 0.395666
v -0.603167 -0.178726 0.392825
v -0.603961 -0.175330 0.389477
v -0.588537 -0.181973 0.397337
v -0.575364 -0.179943 0.392872
v -0.591327 -0.176424 0.394461
v -0.578178 -0.173311 0.389165
v -0.595727 -0.173043 0.391213
v -0.600369 -0.171530 0.387103
v -0.595425 -0.169173 0.384944
v -0.588030 -0.169378 0.386752
v -0.580076 -0.216547 0.357225
v -0.574430 -0.214320 0.355288
v -0.578338 -0.206067 0.357196
v -0.584500 -0.208142 0.358294
v -0.573482 -0.227759 0.353449
v -0.566106 -0.241486 0.348538
v -0.562397 -0.249599 0.345383
v -0.558405 -0.257708 0.341849
v -0.553872 -0.265631 0.337932
v -0.548623 -0.273447 0.333784
v -0.543307 -0.280940 0.329945
v -0.567692 -0.238458 0.367739
v -0.573198 -0.238575 0.360188
v -0.552788 -0.228186 0.358770
v -0.554821 -0.230607 0.363811
v -0.553602 -0.227689 0.354204
v -0.558801 -0.229838 0.350468
v -0.563486 -0.236552 0.368980
v -0.558631 -0.233623 0.367545
v -0.569487 -0.234860 0.351009
v -0.568146 -0.224966 0.351328
v -0.561274 -0.238410 0.345767
v -0.557370 -0.246914 0.342376
v -0.553599 -0.254841 0.339160
v -0.549281 -0.262804 0.335857
v -0.544374 -0.271217 0.332454
v -0.539606 -0.279417 0.329199
v -0.564586 -0.231905 0.348493
v -0.559133 -0.221425 0.354158
v -0.553211 -0.235748 0.350000
v -0.549389 -0.244927 0.346953
v -0.542375 -0.260802 0.341486
v -0.529564 -0.285673 0.332507
v -0.538451 -0.269807 0.338304
v -0.545951 -0.252628 0.344417
v -0.556134 -0.228761 0.352194
v -0.578603 -0.194817 0.359210
v -0.571005 -0.213212 0.355938
v -0.574633 -0.204588 0.358110
v -0.564999 -0.223822 0.351860
v -0.557949 -0.236857 0.345927
v -0.553693 -0.245554 0.342420
v -0.549952 -0.253266 0.339268
v -0.541656 -0.270108 0.333043
v -0.533109 -0.286470 0.327169
v -0.561290 -0.230432 0.348783
v -0.546076 -0.261285 0.336179
v -0.589168 -0.209137 0.364165
v -0.601136 -0.195619 0.364761
v -0.604848 -0.195222 0.366431
v -0.610464 -0.193406 0.371779
v -0.610726 -0.191248 0.375598
v -0.610150 -0.185994 0.373145
v -0.607649 -0.181684 0.370469
v -0.537567 -0.289192 0.326167
v -0.527301 -0.286582 0.341307
v -0.534895 -0.287334 0.326201
v -0.537409 -0.278533 0.329965
v -0.535708 -0.278379 0.331988
v -0.533908 -0.278318 0.335168
v -0.531965 -0.277605 0.339011
v -0.529276 -0.321822 0.334329
v -0.530817 -0.320843 0.327878
v -0.529197 -0.318762 0.324664
v -0.520951 -0.311186 0.318368
v -0.519147 -0.310218 0.319366
v -0.517274 -0.309446 0.320765
v -0.514883 -0.308950 0.323240
v -0.513608 -0.309477 0.327274
v -0.514290 -0.311474 0.332704
v -0.518119 -0.315264 0.336882
v -0.524478 -0.319564 0.337402
v -0.527192 -0.316695 0.322261
v -0.512901 -0.325220 0.332400
v -0.519709 -0.329240 0.333135
v -0.524437 -0.331161 0.329801
v -0.525577 -0.330610 0.323505
v -0.524026 -0.328842 0.320209
v -0.522128 -0.326968 0.318133
v -0.515624 -0.321176 0.314708
v -0.513918 -0.320233 0.315817
v -0.512038 -0.319468 0.317672
v -0.509804 -0.318804 0.320385
v -0.508252 -0.319070 0.323736
v -0.509158 -0.321296 0.328742
v -0.507200 -0.335269 0.327757
v -0.514472 -0.339822 0.328341
v -0.519480 -0.341757 0.324575
v -0.520736 -0.341145 0.318848
v -0.519208 -0.339301 0.315621
v -0.517368 -0.337346 0.313694
v -0.510349 -0.331253 0.311111
v -0.508505 -0.330050 0.312103
v -0.506597 -0.329402 0.314252
v -0.504465 -0.329017 0.316985
v -0.502818 -0.329290 0.320109
v -0.503462 -0.331355 0.324472
v -0.500584 -0.345781 0.323199
v -0.508504 -0.351742 0.323489
v -0.514413 -0.354219 0.319384
v -0.516145 -0.353649 0.313797
v -0.514491 -0.351405 0.310437
v -0.512303 -0.348954 0.308544
v -0.504091 -0.342616 0.306902
v -0.502001 -0.341202 0.307730
v -0.499885 -0.341077 0.310142
v -0.498042 -0.340907 0.312924
v -0.496394 -0.340936 0.316093
v -0.496632 -0.342189 0.319730
v -0.491161 -0.362276 0.318893
v -0.500591 -0.367362 0.318690
v -0.507200 -0.372682 0.314129
v -0.510435 -0.370576 0.309570
v -0.508568 -0.368299 0.305883
v -0.505785 -0.365805 0.303695
v -0.496227 -0.358213 0.303097
v -0.493710 -0.356786 0.303909
v -0.491470 -0.356554 0.306716
v -0.489819 -0.356459 0.309579
v -0.488331 -0.356212 0.312921
v -0.488126 -0.357176 0.316409
v -0.478435 -0.376233 0.298684
v -0.481141 -0.379749 0.295463
v -0.484343 -0.382670 0.293464
v -0.476463 -0.375065 0.301983
v -0.496479 -0.391234 0.293746
v -0.500361 -0.396045 0.295649
v -0.474800 -0.375433 0.306444
v -0.474247 -0.378317 0.311282
v -0.474780 -0.384712 0.313631
v -0.479569 -0.399721 0.296470
v -0.502079 -0.400222 0.300889
v -0.498639 -0.403075 0.304658
v -0.475257 -0.392678 0.313323
v -0.483899 -0.385419 0.314205
v -0.490358 -0.386803 0.313694
v -0.494830 -0.391332 0.311493
v -0.493236 -0.404872 0.305287
v -0.475780 -0.398179 0.309681
v -0.480203 -0.396672 0.308874
v -0.483913 -0.397318 0.307084
v -0.486261 -0.399387 0.305144
v -0.487378 -0.404329 0.301818
v -0.475876 -0.399305 0.299949
v -0.479663 -0.398124 0.303515
v -0.481638 -0.398325 0.301838
v -0.483268 -0.399428 0.301158
v -0.483290 -0.401721 0.297900
v -0.547861 -0.287016 0.338629
v -0.552681 -0.279527 0.344091
v -0.556904 -0.271428 0.349888
v -0.560497 -0.262747 0.354409
v -0.564186 -0.253984 0.358001
v -0.567695 -0.246007 0.361334
v -0.574357 -0.231044 0.367419
v -0.581712 -0.219181 0.372884
v -0.587818 -0.212182 0.377162
v -0.570915 -0.238932 0.364320
v -0.599645 -0.205867 0.380715
v -0.600840 -0.203308 0.384364
v -0.593216 -0.208517 0.379755
v -0.589784 -0.212512 0.371643
v -0.583504 -0.218277 0.362260
v -0.576853 -0.230086 0.357945
v -0.569214 -0.244019 0.352516
v -0.565545 -0.251885 0.349254
v -0.561619 -0.260189 0.345621
v -0.557095 -0.268097 0.341219
v -0.551562 -0.275587 0.336226
v -0.545977 -0.282745 0.331753
v -0.572703 -0.237303 0.355202
v -0.539849 -0.291626 0.327520
v -0.524701 -0.314302 0.319702
v -0.519412 -0.324343 0.316104
v -0.514545 -0.334833 0.312128
v -0.509676 -0.346674 0.307605
v -0.502615 -0.362903 0.302866
v -0.491851 -0.388553 0.292658
v -0.522592 -0.312350 0.318389
v -0.487740 -0.385625 0.292427
v -0.517207 -0.322365 0.315014
v -0.512374 -0.332951 0.311432
v -0.506557 -0.344405 0.307096
v -0.498883 -0.359993 0.302814
v -0.461363 -0.388731 0.311692
v -0.461730 -0.395400 0.316672
v -0.461570 -0.402273 0.317547
v -0.461163 -0.406711 0.315218
v -0.464007 -0.407297 0.308478
v -0.459830 -0.409129 0.307508
v -0.456874 -0.409362 0.312242
v -0.452485 -0.405660 0.304122
v -0.453859 -0.407395 0.300996
v -0.452613 -0.404188 0.297773
v -0.451860 -0.402350 0.300861
v -0.452392 -0.400122 0.294733
v -0.451707 -0.398792 0.298377
v -0.453360 -0.394295 0.297752
v -0.454093 -0.394691 0.292291
v -0.457934 -0.389199 0.294668
v -0.456297 -0.389891 0.299613
v -0.461422 -0.387246 0.297185
v -0.460410 -0.386579 0.304222
v -0.456070 -0.404822 0.316981
v -0.454081 -0.407075 0.313775
v -0.451584 -0.402962 0.306865
v -0.451606 -0.400319 0.303496
v -0.451734 -0.398381 0.301131
v -0.453140 -0.395339 0.301798
v -0.455161 -0.391922 0.302712
v -0.456116 -0.391724 0.306441
v -0.456661 -0.393153 0.311802
v -0.456817 -0.396464 0.316778
v -0.457631 -0.401553 0.318487
v -0.452874 -0.396488 0.305565
v -0.452466 -0.397894 0.309879
v -0.453330 -0.400858 0.314253
v -0.451964 -0.405670 0.310547
v -0.453717 -0.408682 0.308042
v -0.456728 -0.409037 0.304745
v -0.463947 -0.410090 0.304514
v -0.460498 -0.410547 0.304001
v -0.467986 -0.407255 0.299992
v -0.468704 -0.403641 0.305547
v -0.474519 -0.405426 0.294426
v -0.466019 -0.385570 0.311060
v -0.466939 -0.391625 0.314944
v -0.467845 -0.397746 0.315034
v -0.468621 -0.401815 0.312490
v -0.464156 -0.384083 0.304608
v -0.463744 -0.386143 0.297623
v -0.478699 -0.405975 0.294340
v -0.473975 -0.421198 0.293021
v -0.470416 -0.419971 0.294050
v -0.463997 -0.419787 0.296676
v -0.458820 -0.419148 0.298751
v -0.456381 -0.416007 0.298750
v -0.455481 -0.420183 0.293450
v -0.453559 -0.416202 0.294667
v -0.451132 -0.412030 0.284913
v -0.450609 -0.410331 0.288376
v -0.451845 -0.405287 0.283577
v -0.451097 -0.404983 0.287256
v -0.454476 -0.399340 0.284119
v -0.452841 -0.399815 0.287707
v -0.478830 -0.415362 0.295965
v -0.473736 -0.414453 0.296711
v -0.466833 -0.415018 0.300156
v -0.462000 -0.415426 0.302698
v -0.459002 -0.413899 0.301910
v -0.482550 -0.405896 0.295872
v -0.485717 -0.412219 0.297361
v -0.492013 -0.414346 0.300767
v -0.496715 -0.412621 0.300012
v -0.487110 -0.417819 0.297641
v -0.489742 -0.419064 0.298736
v -0.483533 -0.419804 0.295909
v -0.477268 -0.425653 0.291044
v -0.492960 -0.419018 0.297418
v -0.500130 -0.409154 0.296029
v -0.490620 -0.420760 0.297573
v -0.490564 -0.422170 0.293372
v -0.488759 -0.423927 0.294829
v -0.486290 -0.424373 0.287578
v -0.485349 -0.425400 0.290574
v -0.457885 -0.394482 0.287701
v -0.461602 -0.391307 0.290520
v -0.463497 -0.391653 0.293243
v -0.465990 -0.390371 0.294360
v -0.452737 -0.401869 0.291956
v -0.451823 -0.404999 0.290267
v -0.451860 -0.408115 0.291290
v -0.454177 -0.412389 0.295448
v -0.455931 -0.412466 0.298039
v -0.457510 -0.411991 0.300136
v -0.457865 -0.409696 0.301590
v -0.455348 -0.408385 0.298461
v -0.453255 -0.405635 0.295322
v -0.452705 -0.410895 0.293033
v -0.451471 -0.414552 0.290968
v -0.452347 -0.417885 0.288322
v -0.454565 -0.409992 0.295854
v -0.453649 -0.408889 0.294539
v -0.495652 -0.418046 0.296378
v -0.492740 -0.421842 0.291255
v -0.487944 -0.425834 0.283762
v -0.498860 -0.414672 0.291154
v -0.496008 -0.418239 0.285690
v -0.490341 -0.421629 0.278524
v -0.498845 -0.404348 0.291299
v -0.497558 -0.409168 0.286599
v -0.495032 -0.412328 0.281616
v -0.489909 -0.414227 0.274784
v -0.487231 -0.423148 0.296183
v -0.482933 -0.425218 0.292285
v -0.470832 -0.421725 0.286336
v -0.467624 -0.420298 0.287980
v -0.460789 -0.420890 0.290637
v -0.457811 -0.418195 0.285251
v -0.465362 -0.417256 0.283025
v -0.468306 -0.419057 0.280752
v -0.456431 -0.412909 0.282033
v -0.463855 -0.413322 0.279459
v -0.466298 -0.415130 0.276717
v -0.472139 -0.428376 0.284098
v -0.469180 -0.425533 0.277851
v -0.469338 -0.416254 0.275666
v -0.468731 -0.410737 0.274368
v -0.466089 -0.409718 0.275242
v -0.471168 -0.404594 0.275580
v -0.468232 -0.404172 0.276160
v -0.474347 -0.401176 0.278816
v -0.471442 -0.400909 0.279627
v -0.474774 -0.398855 0.283529
v -0.477956 -0.399389 0.282417
v -0.475914 -0.398819 0.286417
v -0.478930 -0.400589 0.285735
v -0.477266 -0.396644 0.287212
v -0.480646 -0.397919 0.286681
v -0.471997 -0.394255 0.291103
v -0.470259 -0.395672 0.290353
v -0.456893 -0.406779 0.281092
v -0.459468 -0.401276 0.281884
v -0.463331 -0.397433 0.284917
v -0.467946 -0.396134 0.288893
v -0.464130 -0.408515 0.278270
v -0.466026 -0.403867 0.279068
v -0.468914 -0.401114 0.281836
v -0.472238 -0.399088 0.285832
v -0.470308 -0.382046 0.311245
v -0.471133 -0.387722 0.314197
v -0.472119 -0.394179 0.314018
v -0.472854 -0.399224 0.310804
v -0.469672 -0.381343 0.299434
v -0.470761 -0.405845 0.296067
v -0.472073 -0.401075 0.302377
v -0.469377 -0.380280 0.305457
v -0.467287 -0.419617 0.295285
v -0.470149 -0.414466 0.298093
v -0.471755 -0.384445 0.295700
v -0.464371 -0.420022 0.289432
v -0.461805 -0.417129 0.284770
v -0.460516 -0.412842 0.281651
v -0.480233 -0.391146 0.289621
v -0.484134 -0.392228 0.289071
v -0.476152 -0.389816 0.293914
v -0.460875 -0.407761 0.280305
v -0.463024 -0.402934 0.281046
v -0.466253 -0.399839 0.283680
v -0.470387 -0.398232 0.287495
v -0.486510 -0.369736 0.299772
v -0.484436 -0.368013 0.302826
v -0.489074 -0.372278 0.298398
v -0.482688 -0.367523 0.305718
v -0.499599 -0.382080 0.298541
v -0.503401 -0.384625 0.301221
v -0.481047 -0.367474 0.309387
v -0.480574 -0.369631 0.313239
v -0.481107 -0.376557 0.315269
v -0.504879 -0.388041 0.305271
v -0.500980 -0.392304 0.308596
v -0.478954 -0.389876 0.313183
v -0.480549 -0.397727 0.298851
v -0.493542 -0.399074 0.307784
v -0.477900 -0.397498 0.309077
v -0.486633 -0.401516 0.303209
v -0.478244 -0.397843 0.302191
v -0.483305 -0.399715 0.299529
v -0.495190 -0.379353 0.297691
v -0.491616 -0.375455 0.297821
v -0.473121 -0.398310 0.286594
v -0.471634 -0.397821 0.287760
v -0.473476 -0.404599 0.275545
v -0.475824 -0.421758 0.280712
v -0.478303 -0.425056 0.285189
v -0.481699 -0.425333 0.286030
v -0.480247 -0.426285 0.281432
v -0.474057 -0.418205 0.277535
v -0.470364 -0.411482 0.274261
v -0.482348 -0.401980 0.284303
v -0.477517 -0.401952 0.278764
v -0.481407 -0.402009 0.282646
v -0.484489 -0.399769 0.287417
v -0.488625 -0.394138 0.290828
v -0.481890 -0.427807 0.277858
v -0.475126 -0.420343 0.272236
v -0.474141 -0.412667 0.268315
v -0.483194 -0.426371 0.271817
v -0.483721 -0.416426 0.264912
v -0.478695 -0.400977 0.271436
v -0.482819 -0.400270 0.276776
v -0.485197 -0.402103 0.280549
v -0.486974 -0.401499 0.282956
v -0.491857 -0.397265 0.288801
v -0.494251 -0.394520 0.291185
v -0.485249 -0.410379 0.267230
v -0.489115 -0.406816 0.273875
v -0.490142 -0.406400 0.280076
v -0.493127 -0.403969 0.285181
v -0.495734 -0.400393 0.289019
v -0.497422 -0.397344 0.291663
v -0.526324 -0.297972 0.323298
v -0.524477 -0.297070 0.324564
v -0.522061 -0.296415 0.327121
v -0.520655 -0.296973 0.331920
v -0.528131 -0.298967 0.322400
v -0.520771 -0.298545 0.337335
v -0.524323 -0.302422 0.341307
v -0.530200 -0.307220 0.341938
v -0.535100 -0.310297 0.338873
v -0.536942 -0.309775 0.332916
v -0.535546 -0.307238 0.329288
v -0.533790 -0.304767 0.326429
v -0.532053 -0.302538 0.323866
v -0.530194 -0.300455 0.322239
f 81 21 22
f 81 22 80
f 80 22 24
f 80 24 82
f 73 70 78
f 73 78 79
f 99 98 76
f 99 76 95
f 129 118 119
f 129 119 130
f 130 119 120
f 130 120 131
f 131 120 121
f 131 121 132
f 132 121 122
f 132 122 133
f 133 122 123
f 133 123 134
f 83 82 24
f 83 24 28
f 76 98 79
f 76 79 72
f 84 83 28
f 84 28 30
f 94 95 76
f 94 76 75
f 23 108 127
f 23 127 135
f 28 24 23
f 28 23 135
f 75 76 72
f 75 72 136
f 136 30 28
f 136 28 135
f 136 135 127
f 136 127 75
f 72 79 78
f 72 78 69
f 85 84 30
f 85 30 32
f 137 32 30
f 137 30 136
f 137 136 72
f 137 72 69
f 64 69 78
f 64 78 77
f 86 85 32
f 86 32 34
f 138 34 32
f 138 32 137
f 138 137 69
f 138 69 64
f 87 86 34
f 87 34 36
f 139 36 34
f 139 34 138
f 139 138 64
f 139 64 63
f 40 89 88
f 40 88 38
f 61 63 64
f 61 64 77
f 88 87 36
f 88 36 38
f 139 63 61
f 139 61 140
f 38 36 139
f 38 139 140
f 59 57 40
f 59 40 38
f 141 140 61
f 141 61 60
f 141 59 38
f 141 38 140
f 77 78 70
f 77 70 62
f 62 60 61
f 62 61 77
f 142 141 60
f 142 60 62
f 56 54 55
f 56 55 57
f 133 134 113
f 133 113 112
f 132 133 112
f 132 112 111
f 110 109 130
f 110 130 131
f 131 132 111
f 131 111 110
f 159 111 112
f 159 112 158
f 160 110 111
f 160 111 159
f 156 109 110
f 156 110 160
f 156 160 154
f 156 154 146
f 93 81 26
f 93 26 49
f 46 92 93
f 46 93 49
f 91 92 46
f 91 46 45
f 90 91 45
f 90 45 43
f 89 90 43
f 89 43 41
f 88 89 41
f 88 41 39
f 87 88 39
f 87 39 37
f 86 87 37
f 86 37 35
f 85 86 35
f 85 35 33
f 84 85 33
f 84 33 31
f 83 84 31
f 83 31 29
f 82 83 29
f 82 29 27
f 80 82 27
f 80 27 25
f 25 26 81
f 25 81 80
f 162 49 26
f 162 26 161
f 46 49 162
f 46 162 163
f 45 46 163
f 45 163 164
f 161 26 25
f 161 25 174
f 174 25 27
f 174 27 173
f 27 29 172
f 27 172 173
f 172 29 31
f 172 31 171
f 176 162 161
f 176 161 175
f 179 175 161
f 179 161 174
f 180 179 174
f 180 174 173
f 180 173 172
f 180 172 171
f 171 31 33
f 171 33 170
f 33 35 169
f 33 169 170
f 163 162 176
f 163 176 177
f 181 176 175
f 181 175 179
f 164 163 177
f 164 177 178
f 43 45 164
f 43 164 165
f 165 164 178
f 165 178 184
f 41 43 165
f 41 165 166
f 166 165 184
f 166 184 185
f 39 41 166
f 39 166 167
f 183 177 176
f 183 176 181
f 184 178 177
f 184 177 183
f 167 166 185
f 167 185 186
f 37 39 167
f 37 167 168
f 169 35 37
f 169 37 168
f 182 181 179
f 182 179 180
f 186 183 181
f 186 181 182
f 182 180 171
f 182 171 170
f 182 170 169
f 182 169 168
f 182 168 167
f 182 167 186
f 186 185 184
f 186 184 183
f 109 156 97
f 109 97 96
f 96 97 200
f 96 200 201
f 129 130 109
f 129 109 96
f 200 95 94
f 200 94 201
f 100 97 156
f 100 156 146
f 205 201 94
f 205 94 126
f 205 129 96
f 205 96 201
f 126 94 75
f 126 75 127
f 126 127 108
f 126 108 107
f 126 107 204
f 126 204 205
f 204 118 129
f 204 129 205
f 216 100 146
f 216 146 217
f 147 103 216
f 147 216 217
f 149 154 160
f 149 160 159
f 221 154 149
f 221 149 218
f 155 147 217
f 155 217 221
f 202 100 216
f 202 216 222
f 217 146 154
f 217 154 221
f 216 103 203
f 216 203 222
f 202 99 95
f 202 95 200
f 202 200 97
f 202 97 100
f 73 79 98
f 73 98 104
f 104 98 99
f 104 99 215
f 101 74 73
f 101 73 104
f 215 102 101
f 215 101 104
f 215 99 202
f 215 202 222
f 215 222 203
f 215 203 102
f 71 70 73
f 71 73 74
f 142 62 70
f 142 70 71
f 225 74 101
f 225 101 224
f 225 224 188
f 225 188 189
f 207 188 224
f 207 224 226
f 224 101 102
f 224 102 226
f 227 103 147
f 227 147 228
f 193 192 208
f 193 208 209
f 209 208 227
f 209 227 228
f 194 193 209
f 194 209 210
f 210 209 228
f 210 228 229
f 228 147 155
f 228 155 229
f 214 207 226
f 214 226 232
f 232 203 103
f 232 103 227
f 232 227 208
f 232 208 214
f 226 102 203
f 226 203 232
f 155 221 218
f 155 218 148
f 233 229 155
f 233 155 148
f 233 211 210
f 233 210 229
f 58 56 57
f 58 57 59
f 223 145 56
f 223 56 58
f 58 59 141
f 58 141 142
f 58 142 71
f 58 71 223
f 225 189 145
f 225 145 223
f 71 74 225
f 71 225 223
f 143 54 56
f 143 56 145
f 143 145 189
f 143 189 190
f 190 189 188
f 190 188 187
f 52 54 143
f 52 143 144
f 52 144 51
f 52 51 235
f 50 51 125
f 50 125 105
f 55 54 52
f 55 52 53
f 235 51 50
f 235 50 236
f 53 52 235
f 53 235 236
f 237 236 50
f 237 50 68
f 238 237 68
f 238 68 47
f 67 53 236
f 67 236 237
f 66 55 53
f 66 53 67
f 66 65 57
f 66 57 55
f 42 40 57
f 42 57 65
f 90 89 40
f 90 40 42
f 42 65 66
f 42 66 240
f 91 90 42
f 91 42 44
f 44 42 240
f 44 240 239
f 47 92 91
f 47 91 44
f 239 238 47
f 239 47 44
f 67 237 238
f 67 238 239
f 240 66 67
f 240 67 239
f 212 211 233
f 212 233 230
f 230 233 148
f 230 148 153
f 245 244 230
f 245 230 153
f 153 148 218
f 153 218 220
f 245 153 220
f 245 220 246
f 220 218 149
f 220 149 152
f 152 149 159
f 152 159 158
f 247 246 220
f 247 220 152
f 247 152 158
f 247 158 157
f 197 196 212
f 197 212 213
f 213 212 230
f 213 230 244
f 158 112 113
f 158 113 157
f 285 284 272
f 285 272 273
f 286 285 273
f 286 273 274
f 287 286 274
f 287 274 275
f 288 287 275
f 288 275 276
f 289 288 276
f 289 276 277
f 292 291 279
f 292 279 280
f 293 292 280
f 293 280 281
f 294 293 281
f 294 281 282
f 295 294 282
f 295 282 283
f 283 272 284
f 283 284 295
f 260 261 273
f 260 273 272
f 271 260 272
f 271 272 283
f 270 271 283
f 270 283 282
f 269 270 282
f 269 282 281
f 268 269 281
f 268 281 280
f 267 268 280
f 267 280 279
f 264 265 277
f 264 277 276
f 263 264 276
f 263 276 275
f 274 273 261
f 274 261 262
f 262 263 275
f 262 275 274
f 291 292 304
f 291 304 303
f 305 304 292
f 305 292 293
f 288 289 301
f 288 301 300
f 306 305 293
f 306 293 294
f 307 306 294
f 307 294 295
f 287 288 300
f 287 300 299
f 296 307 295
f 296 295 284
f 297 296 284
f 297 284 285
f 298 297 285
f 298 285 286
f 286 287 299
f 286 299 298
f 323 322 297
f 323 297 298
f 328 327 322
f 328 322 323
f 6 3 122
f 6 122 121
f 337 336 3
f 337 3 6
f 8 6 121
f 8 121 120
f 338 337 6
f 338 6 8
f 10 8 120
f 10 120 119
f 339 338 8
f 339 8 10
f 12 10 119
f 12 119 118
f 340 339 10
f 340 10 12
f 118 204 198
f 118 198 12
f 198 204 107
f 198 107 14
f 16 14 107
f 16 107 108
f 342 341 14
f 342 14 16
f 23 24 22
f 23 22 18
f 18 16 108
f 18 108 23
f 344 198 14
f 344 14 341
f 344 341 13
f 344 13 199
f 340 12 198
f 340 198 344
f 106 68 50
f 106 50 105
f 48 47 68
f 48 68 106
f 93 92 47
f 93 47 48
f 48 21 81
f 48 81 93
f 20 21 48
f 20 48 346
f 20 18 22
f 20 22 21
f 20 346 345
f 20 345 347
f 106 105 19
f 106 19 345
f 346 48 106
f 346 106 345
f 343 18 20
f 343 20 347
f 347 345 19
f 347 19 17
f 17 19 105
f 17 105 125
f 348 343 347
f 348 347 17
f 343 342 16
f 343 16 18
f 15 13 341
f 15 341 342
f 11 340 344
f 11 344 199
f 191 187 188
f 191 188 207
f 9 339 340
f 9 340 11
f 7 338 339
f 7 339 9
f 9 11 351
f 9 351 352
f 351 192 193
f 351 193 352
f 7 5 337
f 7 337 338
f 7 9 352
f 7 352 353
f 195 194 210
f 195 210 211
f 352 193 194
f 352 194 353
f 354 353 194
f 354 194 195
f 195 211 212
f 195 212 196
f 354 5 7
f 354 7 353
f 336 337 5
f 336 5 4
f 4 5 354
f 4 354 355
f 354 195 196
f 354 196 355
f 1 335 336
f 1 336 4
f 1 4 355
f 1 355 356
f 214 208 192
f 214 192 206
f 355 196 197
f 355 197 356
f 357 199 13
f 357 13 350
f 206 191 207
f 206 207 214
f 357 350 191
f 357 191 206
f 206 192 351
f 206 351 357
f 351 11 199
f 351 199 357
f 234 190 187
f 234 187 349
f 349 187 191
f 349 191 350
f 349 350 13
f 349 13 15
f 15 342 343
f 15 343 348
f 15 348 234
f 15 234 349
f 234 144 143
f 234 143 190
f 125 51 144
f 125 144 234
f 348 17 125
f 348 125 234
f 2 3 336
f 2 336 335
f 123 122 3
f 123 3 2
f 243 213 244
f 243 244 231
f 244 245 151
f 244 151 231
f 242 157 113
f 242 113 116
f 150 247 157
f 150 157 242
f 219 151 245
f 219 245 246
f 246 247 150
f 246 150 219
f 128 134 123
f 128 123 124
f 128 116 113
f 128 113 134
f 124 123 2
f 124 2 117
f 117 2 335
f 117 335 114
f 115 114 335
f 115 335 1
f 361 277 265
f 361 265 360
f 362 289 277
f 362 277 361
f 363 301 289
f 363 289 362
f 358 115 1
f 358 1 356
f 266 267 279
f 266 279 278
f 368 367 266
f 368 266 278
f 368 361 360
f 368 360 367
f 278 279 291
f 278 291 290
f 369 368 278
f 369 278 290
f 369 362 361
f 369 361 368
f 290 291 303
f 290 303 302
f 370 369 290
f 370 290 302
f 370 363 362
f 370 362 369
f 241 197 213
f 241 213 243
f 358 356 197
f 358 197 241
f 395 394 383
f 395 383 384
f 395 384 387
f 395 387 396
f 393 381 383
f 393 383 394
f 401 395 396
f 401 396 397
f 397 396 387
f 397 387 389
f 401 393 394
f 401 394 395
f 401 397 398
f 401 398 402
f 403 402 398
f 403 398 399
f 403 399 400
f 403 400 390
f 392 393 401
f 392 401 402
f 403 390 391
f 403 391 404
f 392 402 403
f 392 403 404
f 378 381 393
f 378 393 392
f 404 391 377
f 404 377 405
f 378 392 404
f 378 404 405
f 398 397 389
f 398 389 371
f 399 398 371
f 399 371 372
f 400 399 372
f 400 372 373
f 374 377 391
f 374 391 390
f 390 400 373
f 390 373 374
f 376 377 374
f 376 374 375
f 407 375 410
f 407 410 409
f 435 407 409
f 435 409 434
f 432 418 437
f 432 437 438
f 387 384 385
f 387 385 386
f 389 387 386
f 389 386 388
f 385 384 383
f 385 383 382
f 436 435 422
f 436 422 423
f 408 407 435
f 408 435 436
f 408 376 375
f 408 375 407
f 405 377 376
f 405 376 406
f 408 436 461
f 408 461 462
f 406 376 408
f 406 408 462
f 379 378 405
f 379 405 406
f 381 378 379
f 381 379 380
f 382 383 381
f 382 381 380
f 457 429 431
f 457 431 456
f 431 385 382
f 431 382 456
f 461 436 423
f 461 423 460
f 379 406 462
f 379 462 463
f 427 429 457
f 427 457 458
f 463 462 461
f 463 461 460
f 460 423 425
f 460 425 459
f 468 463 460
f 468 460 459
f 465 459 425
f 465 425 466
f 466 427 458
f 466 458 465
f 456 382 380
f 456 380 464
f 469 468 459
f 469 459 465
f 380 379 463
f 380 463 464
f 464 463 468
f 464 468 469
f 458 457 456
f 458 456 464
f 469 465 458
f 469 458 464
f 470 445 439
f 470 439 440
f 448 445 470
f 448 470 471
f 470 440 446
f 470 446 473
f 471 470 473
f 471 473 474
f 441 438 439
f 441 439 442
f 442 439 445
f 442 445 447
f 432 438 441
f 432 441 443
f 447 445 448
f 447 448 449
f 443 441 442
f 443 442 480
f 480 442 447
f 480 447 449
f 419 432 443
f 419 443 444
f 421 422 435
f 421 435 434
f 425 423 422
f 425 422 424
f 466 425 424
f 466 424 467
f 426 427 466
f 426 466 467
f 488 426 467
f 488 467 485
f 429 427 426
f 429 426 428
f 431 429 428
f 431 428 430
f 385 431 430
f 385 430 452
f 386 385 452
f 386 452 453
f 454 388 386
f 454 386 453
f 428 426 488
f 428 488 508
f 430 428 508
f 430 508 509
f 452 430 509
f 452 509 510
f 453 452 510
f 453 510 511
f 371 389 416
f 371 416 412
f 372 371 412
f 372 412 413
f 413 412 516
f 413 516 517
f 373 372 413
f 373 413 414
f 414 413 517
f 414 517 518
f 374 373 414
f 374 414 415
f 415 414 518
f 415 518 519
f 410 375 374
f 410 374 415
f 417 388 454
f 417 454 455
f 518 320 325
f 518 325 519
f 417 416 389
f 417 389 388
f 330 317 418
f 330 418 411
f 522 519 325
f 522 325 330
f 522 410 415
f 522 415 519
f 516 412 416
f 516 416 523
f 420 419 482
f 420 482 483
f 523 416 417
f 523 417 520
f 525 434 409
f 525 409 521
f 433 411 418
f 433 418 432
f 433 432 419
f 433 419 420
f 433 420 524
f 433 524 525
f 524 421 434
f 524 434 525
f 424 422 421
f 424 421 484
f 520 417 455
f 520 455 526
f 484 421 524
f 484 524 527
f 485 467 424
f 485 424 484
f 528 527 483
f 528 483 486
f 524 420 483
f 524 483 527
f 486 483 482
f 486 482 487
f 528 485 484
f 528 484 527
f 489 486 487
f 489 487 490
f 529 528 486
f 529 486 489
f 529 488 485
f 529 485 528
f 506 504 530
f 506 530 532
f 532 526 455
f 532 455 506
f 512 489 490
f 512 490 495
f 533 529 489
f 533 489 512
f 533 508 488
f 533 488 529
f 513 512 495
f 513 495 497
f 534 533 512
f 534 512 513
f 534 509 508
f 534 508 533
f 514 513 497
f 514 497 499
f 535 534 513
f 535 513 514
f 535 510 509
f 535 509 534
f 526 532 309
f 526 309 308
f 310 309 532
f 310 532 530
f 520 526 308
f 520 308 311
f 523 520 311
f 523 311 314
f 516 523 314
f 516 314 315
f 517 516 315
f 517 315 316
f 316 320 518
f 316 518 517
f 319 318 446
f 319 446 440
f 321 296 297
f 321 297 322
f 332 327 328
f 332 328 333
f 324 319 440
f 324 440 439
f 326 321 322
f 326 322 327
f 329 324 439
f 329 439 438
f 331 326 327
f 331 327 332
f 437 418 317
f 437 317 334
f 334 329 438
f 334 438 437
f 555 363 370
f 555 370 556
f 515 514 499
f 515 499 500
f 557 515 500
f 557 500 502
f 536 511 510
f 536 510 535
f 536 535 514
f 536 514 515
f 506 455 454
f 506 454 507
f 507 511 536
f 507 536 558
f 507 454 453
f 507 453 511
f 502 504 506
f 502 506 507
f 558 557 502
f 558 502 507
f 536 515 557
f 536 557 558
f 539 302 303
f 539 303 537
f 537 303 304
f 537 304 538
f 309 310 539
f 309 539 537
f 537 538 308
f 537 308 309
f 538 304 305
f 538 305 540
f 538 540 311
f 538 311 308
f 556 370 302
f 556 302 539
f 310 366 556
f 310 556 539
f 540 305 306
f 540 306 543
f 540 543 314
f 540 314 311
f 542 300 301
f 542 301 541
f 541 301 363
f 541 363 555
f 546 299 300
f 546 300 542
f 543 306 307
f 543 307 544
f 543 544 315
f 543 315 314
f 544 307 296
f 544 296 545
f 544 545 316
f 544 316 315
f 545 296 321
f 545 321 548
f 545 548 320
f 545 320 316
f 547 298 299
f 547 299 546
f 318 319 547
f 318 547 546
f 550 323 298
f 550 298 547
f 319 324 550
f 319 550 547
f 551 325 320
f 551 320 548
f 321 326 551
f 321 551 548
f 549 317 330
f 549 330 553
f 554 334 317
f 554 317 549
f 332 333 554
f 332 554 549
f 549 553 331
f 549 331 332
f 552 328 323
f 552 323 550
f 324 329 552
f 324 552 550
f 553 330 325
f 553 325 551
f 326 331 553
f 326 553 551
f 554 333 328
f 554 328 552
f 329 334 554
f 329 554 552
f 521 409 410
f 521 410 522
f 521 522 330
f 521 330 411
f 411 433 525
f 411 525 521
f 482 419 444
f 482 444 491
f 492 487 482
f 492 482 491
f 444 443 480
f 444 480 481
f 481 480 449
f 481 449 451
f 561 491 444
f 561 444 481
f 561 481 451
f 561 451 562
f 451 449 448
f 451 448 450
f 490 487 492
f 490 492 493
f 560 492 491
f 560 491 561
f 495 490 493
f 495 493 494
f 496 497 495
f 496 495 494
f 499 497 496
f 499 496 498
f 500 499 498
f 500 498 501
f 503 502 500
f 503 500 501
f 504 502 503
f 504 503 505
f 530 504 505
f 530 505 531
f 366 310 530
f 366 530 531
f 555 556 366
f 555 366 364
f 450 448 471
f 450 471 472
f 560 561 562
f 560 562 563
f 563 562 451
f 563 451 450
f 564 493 492
f 564 492 560
f 565 494 493
f 565 493 564
f 563 450 472
f 563 472 571
f 564 560 563
f 564 563 571
f 472 471 474
f 472 474 475
f 574 572 564
f 574 564 571
f 574 571 472
f 574 472 475
f 573 565 564
f 573 564 572
f 559 496 494
f 559 494 565
f 498 496 559
f 498 559 567
f 568 501 498
f 568 498 567
f 566 503 501
f 566 501 568
f 569 505 503
f 569 503 566
f 570 531 505
f 570 505 569
f 570 364 366
f 570 366 531
f 541 555 364
f 541 364 312
f 573 572 574
f 573 574 575
f 559 565 573
f 559 573 576
f 576 573 575
f 576 575 582
f 567 559 576
f 567 576 577
f 575 574 475
f 575 475 479
f 583 582 575
f 583 575 479
f 577 576 582
f 577 582 583
f 568 567 577
f 568 577 578
f 566 568 578
f 566 578 579
f 569 566 579
f 569 579 580
f 479 475 474
f 479 474 478
f 584 583 479
f 584 479 478
f 578 577 583
f 578 583 584
f 478 474 473
f 478 473 477
f 585 584 478
f 585 478 477
f 579 578 584
f 579 584 585
f 477 473 446
f 477 446 476
f 580 579 585
f 580 585 586
f 542 541 312
f 542 312 313
f 476 446 318
f 476 318 313
f 313 318 546
f 313 546 542
f 312 364 570
f 312 570 581
f 570 569 580
f 570 580 581
f 586 585 477
f 586 477 476
f 587 581 580
f 587 580 586
f 586 476 313
f 586 313 587
f 587 313 312
f 587 312 581
f 588 231 151
f 588 151 589
f 268 267 252
f 268 252 253
f 253 252 588
f 253 588 589
f 589 151 219
f 589 219 590
f 269 268 253
f 269 253 254
f 254 253 589
f 254 589 590
f 590 219 150
f 590 150 591
f 270 269 254
f 270 254 255
f 255 254 590
f 255 590 591
f 251 252 267
f 251 267 266
f 592 588 252
f 592 252 251
f 592 243 231
f 592 231 588
f 271 270 255
f 271 255 256
f 256 255 591
f 256 591 593
f 593 242 116
f 593 116 594
f 591 150 242
f 591 242 593
f 260 271 256
f 260 256 257
f 257 256 593
f 257 593 594
f 594 116 128
f 594 128 595
f 262 261 258
f 262 258 248
f 261 260 257
f 261 257 258
f 258 257 594
f 258 594 595
f 248 258 595
f 248 595 596
f 595 128 124
f 595 124 596
f 263 262 248
f 263 248 249
f 249 248 596
f 249 596 597
f 596 124 117
f 596 117 597
f 264 263 249
f 264 249 250
f 250 249 597
f 250 597 598
f 598 114 115
f 598 115 599
f 597 117 114
f 597 114 598
f 265 264 250
f 265 250 259
f 259 250 598
f 259 598 599
f 599 115 358
f 599 358 600
f 359 360 265
f 359 265 259
f 359 259 599
f 359 599 600
f 365 251 266
f 365 266 367
f 601 241 243
f 601 243 592
f 601 592 251
f 601 251 365
f 365 367 360
f 365 360 359
f 365 359 600
f 365 600 601
f 600 358 241
f 600 241 601
