# Hyoid_Bone posed
v -0.690502 -0.057784 0.421143
v -0.694095 -0.059391 0.422877
v -0.694575 -0.055356 0.422997
v -0.692636 -0.054306 0.421782
v -0.697679 -0.076517 0.428019
v -0.693710 -0.076498 0.426817
v -0.696889 -0.081207 0.430229
v -0.700104 -0.080800 0.430912
v -0.689070 -0.075886 0.426655
v -0.692223 -0.080544 0.429814
v -0.697870 -0.070593 0.425369
v -0.697427 -0.070599 0.424961
v -0.697529 -0.071234 0.425268
v -0.698005 -0.070978 0.425688
v -0.693069 -0.072918 0.424712
v -0.696759 -0.073899 0.426514
v -0.697384 -0.071856 0.425543
v -0.696705 -0.071825 0.425115
v -0.696668 -0.070840 0.424641
v -0.696422 -0.071356 0.424720
v -0.697815 -0.071529 0.425788
v -0.696567 -0.067745 0.425550
v -0.695032 -0.067388 0.423902
v -0.692135 -0.068578 0.422897
v -0.691060 -0.070675 0.423434
v -0.697513 -0.072146 0.427425
v -0.696745 -0.069263 0.426918
v -0.690188 -0.064050 0.421647
v -0.694176 -0.063917 0.423202
v -0.685178 -0.066766 0.422053
v -0.686039 -0.069585 0.423157
v -0.687302 -0.072588 0.424644
v -0.684283 -0.062565 0.421051
v -0.698468 -0.075274 0.429115
v -0.700484 -0.079375 0.431817
v -0.695623 -0.063853 0.424913
v -0.694531 -0.068212 0.427382
v -0.691230 -0.067208 0.427396
v -0.690774 -0.064296 0.426648
v -0.693982 -0.065920 0.426171
v -0.692291 -0.070079 0.428326
v -0.695686 -0.070997 0.428277
v -0.696587 -0.074022 0.429708
v -0.693467 -0.073298 0.429748
v -0.698703 -0.078181 0.432212
v -0.696256 -0.077336 0.432258
v -0.693435 -0.062627 0.425640
v -0.696345 -0.054258 0.423624
v -0.696542 -0.053816 0.423798
v -0.696612 -0.053713 0.423220
v -0.695873 -0.054313 0.423139
v -0.695373 -0.053789 0.422753
v -0.695468 -0.059439 0.424759
v -0.695858 -0.055516 0.424529
v -0.696376 -0.054053 0.425149
v -0.695124 -0.053091 0.422676
v -0.692505 -0.051977 0.421621
v -0.685738 -0.049453 0.420563
v -0.685053 -0.052422 0.420279
v -0.684477 -0.055984 0.420336
v -0.693664 -0.055302 0.425372
v -0.690697 -0.054706 0.425893
v -0.691037 -0.052400 0.426120
v -0.694197 -0.053436 0.425785
v -0.693323 -0.058555 0.425429
v -0.690576 -0.057735 0.425873
v -0.690440 -0.061388 0.426150
v -0.683219 -0.048848 0.421924
v -0.682631 -0.052026 0.421483
v -0.686318 -0.050466 0.424717
v -0.685636 -0.053060 0.424389
v -0.682299 -0.055417 0.421504
v -0.682266 -0.061384 0.422249
v -0.685762 -0.060798 0.424934
v -0.685534 -0.056002 0.424454
v -0.693112 -0.077360 0.431687
v -0.690120 -0.073344 0.429114
v -0.688475 -0.069905 0.427541
v -0.687282 -0.066957 0.426464
v -0.686413 -0.063874 0.425626
v -0.682855 -0.065329 0.423153
v -0.683782 -0.068215 0.424149
v -0.684955 -0.070792 0.425406
v -0.687278 -0.074579 0.427567
v -0.690542 -0.078785 0.430507
v -0.701812 -0.083742 0.433049
v -0.702415 -0.082343 0.433949
v -0.704314 -0.086585 0.435476
v -0.705360 -0.085031 0.436260
v -0.707764 -0.089249 0.438215
v -0.709084 -0.087769 0.439005
v -0.698782 -0.084091 0.432413
v -0.701297 -0.087211 0.434897
v -0.704659 -0.089954 0.437468
v -0.695088 -0.083794 0.432222
v -0.698439 -0.087110 0.434776
v -0.701948 -0.089903 0.437343
v -0.693481 -0.082316 0.432928
v -0.696909 -0.085636 0.435532
v -0.700180 -0.088231 0.437858
v -0.695603 -0.080603 0.433898
v -0.698991 -0.083536 0.436415
v -0.702152 -0.086282 0.438742
v -0.701003 -0.081197 0.434341
v -0.698822 -0.080436 0.434521
v -0.702167 -0.083211 0.436876
v -0.704210 -0.083894 0.436623
v -0.705662 -0.086075 0.439641
v -0.708060 -0.086468 0.439416
v -0.707249 -0.091651 0.439990
v -0.709693 -0.090993 0.440460
v -0.706034 -0.089340 0.441122
v -0.705214 -0.090448 0.440738
v -0.705589 -0.091409 0.440179
v -0.707942 -0.088802 0.441433
v -0.709599 -0.089056 0.441361
v -0.710341 -0.090046 0.440926
v -0.708809 -0.091259 0.441550
v -0.693394 -0.045958 0.422929
v -0.693623 -0.050270 0.422392
v -0.695619 -0.051084 0.423642
v -0.696992 -0.047538 0.424665
v -0.707063 -0.038098 0.433804
v -0.710716 -0.037339 0.437452
v -0.708251 -0.034693 0.437236
v -0.703814 -0.035151 0.433052
v -0.704071 -0.032077 0.437133
v -0.699643 -0.032648 0.433192
v -0.704878 -0.041902 0.429688
v -0.705130 -0.041806 0.430079
v -0.704880 -0.041137 0.429798
v -0.704544 -0.041459 0.429347
v -0.701892 -0.036812 0.430156
v -0.704455 -0.040094 0.429892
v -0.705004 -0.040661 0.430239
v -0.705278 -0.039026 0.431766
v -0.704037 -0.040672 0.429183
v -0.704048 -0.040138 0.429420
v -0.705201 -0.041288 0.430340
v -0.701203 -0.042136 0.427708
v -0.702503 -0.043449 0.429212
v -0.699323 -0.036874 0.428535
v -0.699362 -0.039011 0.427356
v -0.703190 -0.042889 0.430896
v -0.705058 -0.041264 0.432080
v -0.695834 -0.040957 0.425133
v -0.699017 -0.044108 0.426189
v -0.694618 -0.034517 0.428464
v -0.692746 -0.035837 0.426736
v -0.696877 -0.033443 0.430566
v -0.690228 -0.038279 0.424730
v -0.707078 -0.040030 0.434426
v -0.710323 -0.039090 0.437884
v -0.700055 -0.045719 0.427649
v -0.700814 -0.042517 0.431265
v -0.699454 -0.043538 0.429553
v -0.695989 -0.042985 0.429876
v -0.697586 -0.041227 0.431330
v -0.699659 -0.039955 0.432884
v -0.702929 -0.041365 0.432752
v -0.704886 -0.040068 0.434833
v -0.701938 -0.038660 0.434987
v -0.708263 -0.039055 0.438114
v -0.705833 -0.038159 0.438177
v -0.697595 -0.045616 0.428211
v -0.696584 -0.053277 0.423772
v -0.696254 -0.052757 0.423374
v -0.695635 -0.052718 0.422915
v -0.698002 -0.049074 0.426324
v -0.696635 -0.052336 0.425008
v -0.686486 -0.046569 0.421166
v -0.687559 -0.043395 0.422244
v -0.694601 -0.051472 0.425951
v -0.691781 -0.050278 0.426564
v -0.695732 -0.048702 0.426919
v -0.693009 -0.047793 0.427379
v -0.694473 -0.044906 0.428647
v -0.684155 -0.045802 0.422428
v -0.686909 -0.047863 0.425178
v -0.687900 -0.038381 0.425743
v -0.685364 -0.042902 0.423405
v -0.688110 -0.045485 0.426052
v -0.690371 -0.041981 0.427791
v -0.699199 -0.036235 0.434735
v -0.703256 -0.035880 0.437962
v -0.696438 -0.037366 0.432473
v -0.694229 -0.038576 0.430769
v -0.692213 -0.040186 0.429222
v -0.690058 -0.035915 0.427617
v -0.692026 -0.034540 0.429258
v -0.694043 -0.033662 0.431036
v -0.697483 -0.032873 0.433885
v -0.701827 -0.032647 0.437488
v -0.713050 -0.038790 0.440504
v -0.713244 -0.036912 0.440092
v -0.716484 -0.039461 0.443110
v -0.716367 -0.037204 0.442896
v -0.720544 -0.040804 0.446056
v -0.720170 -0.038407 0.445845
v -0.710911 -0.034427 0.439889
v -0.714166 -0.034500 0.442824
v -0.717953 -0.035484 0.445648
v -0.707695 -0.032201 0.440003
v -0.711737 -0.032664 0.442974
v -0.715674 -0.033683 0.445796
v -0.705638 -0.032593 0.440440
v -0.709743 -0.033116 0.443454
v -0.713416 -0.034046 0.446020
v -0.706579 -0.035709 0.440682
v -0.710484 -0.036508 0.443511
v -0.714127 -0.037265 0.446128
v -0.709146 -0.038193 0.440897
v -0.711323 -0.038947 0.440708
v -0.712954 -0.039057 0.443530
v -0.714986 -0.039766 0.443265
v -0.716882 -0.040133 0.446556
v -0.719076 -0.041341 0.446199
v -0.722336 -0.039173 0.448233
v -0.720631 -0.036814 0.448220
v -0.718337 -0.036705 0.448818
v -0.718497 -0.038301 0.448798
v -0.719122 -0.035968 0.448507
v -0.719820 -0.040152 0.448746
v -0.721317 -0.041043 0.448572
v -0.722415 -0.040567 0.448350
v -0.721614 -0.038791 0.449425
f 1 2 3
f 1 3 4
f 5 6 7
f 5 7 8
f 6 9 10
f 6 10 7
f 11 12 13
f 11 13 14
f 15 16 17
f 15 17 18
f 19 20 13
f 19 13 12
f 21 14 13
f 21 13 17
f 12 11 22
f 12 22 23
f 18 17 13
f 18 13 20
f 20 19 24
f 20 24 25
f 14 21 26
f 14 26 27
f 15 18 20
f 15 20 25
f 24 19 12
f 24 12 23
f 22 11 14
f 22 14 27
f 26 21 17
f 26 17 16
f 28 24 23
f 28 23 29
f 6 5 16
f 6 16 15
f 25 24 30
f 25 30 31
f 32 15 25
f 32 25 31
f 28 33 30
f 28 30 24
f 6 15 32
f 6 32 9
f 34 26 16
f 34 16 5
f 5 8 35
f 5 35 34
f 23 22 36
f 23 36 29
f 37 38 39
f 37 39 40
f 41 38 37
f 41 37 42
f 43 44 41
f 43 41 42
f 45 46 44
f 45 44 43
f 36 22 40
f 36 40 47
f 48 49 50
f 48 50 51
f 51 52 4
f 51 4 3
f 53 54 3
f 53 3 2
f 49 48 54
f 49 54 55
f 52 51 50
f 52 50 56
f 51 3 54
f 51 54 48
f 56 57 4
f 56 4 52
f 57 58 59
f 57 59 4
f 60 1 4
f 60 4 59
f 61 62 63
f 61 63 64
f 65 66 62
f 65 62 61
f 67 66 65
f 67 65 47
f 36 53 2
f 36 2 29
f 29 2 1
f 29 1 28
f 28 1 60
f 28 60 33
f 58 68 69
f 58 69 59
f 68 70 71
f 68 71 69
f 62 71 70
f 62 70 63
f 60 72 73
f 60 73 33
f 66 67 74
f 66 74 75
f 73 72 75
f 73 75 74
f 72 69 71
f 72 71 75
f 62 66 75
f 62 75 71
f 60 59 69
f 60 69 72
f 46 76 77
f 46 77 44
f 78 41 44
f 78 44 77
f 79 38 41
f 79 41 78
f 80 39 38
f 80 38 79
f 39 80 74
f 39 74 67
f 81 73 74
f 81 74 80
f 80 79 82
f 80 82 81
f 79 78 83
f 79 83 82
f 78 77 84
f 78 84 83
f 77 76 85
f 77 85 84
f 33 73 81
f 33 81 30
f 81 82 31
f 81 31 30
f 82 83 32
f 82 32 31
f 9 32 83
f 9 83 84
f 84 85 10
f 84 10 9
f 35 8 86
f 35 86 87
f 86 88 89
f 86 89 87
f 89 88 90
f 89 90 91
f 8 7 92
f 8 92 86
f 93 88 86
f 93 86 92
f 94 90 88
f 94 88 93
f 7 10 95
f 7 95 92
f 96 93 92
f 96 92 95
f 97 94 93
f 97 93 96
f 10 85 98
f 10 98 95
f 99 96 95
f 99 95 98
f 100 97 96
f 100 96 99
f 85 76 101
f 85 101 98
f 102 99 98
f 102 98 101
f 103 100 99
f 103 99 102
f 45 104 105
f 45 105 46
f 106 105 104
f 106 104 107
f 108 106 107
f 108 107 109
f 101 76 46
f 101 46 105
f 102 101 105
f 102 105 106
f 103 102 106
f 103 106 108
f 90 94 110
f 90 110 111
f 100 103 112
f 100 112 113
f 114 97 100
f 114 100 113
f 110 94 97
f 110 97 114
f 103 108 115
f 103 115 112
f 109 116 115
f 109 115 108
f 111 117 91
f 111 91 90
f 110 114 118
f 110 118 111
f 118 114 113
f 118 113 112
f 27 37 40
f 27 40 22
f 42 37 27
f 42 27 26
f 34 43 42
f 34 42 26
f 35 45 43
f 35 43 34
f 47 40 39
f 47 39 67
f 61 64 55
f 61 55 54
f 53 65 61
f 53 61 54
f 47 65 53
f 47 53 36
f 104 45 35
f 104 35 87
f 107 104 87
f 107 87 89
f 109 107 89
f 109 89 91
f 117 116 109
f 117 109 91
f 118 116 117
f 118 117 111
f 118 112 115
f 118 115 116
f 119 120 121
f 119 121 122
f 123 124 125
f 123 125 126
f 126 125 127
f 126 127 128
f 129 130 131
f 129 131 132
f 133 134 135
f 133 135 136
f 137 132 131
f 137 131 138
f 139 135 131
f 139 131 130
f 132 140 141
f 132 141 129
f 134 138 131
f 134 131 135
f 138 142 143
f 138 143 137
f 130 144 145
f 130 145 139
f 133 142 138
f 133 138 134
f 143 140 132
f 143 132 137
f 141 144 130
f 141 130 129
f 145 136 135
f 145 135 139
f 146 147 140
f 146 140 143
f 126 133 136
f 126 136 123
f 142 148 149
f 142 149 143
f 150 148 142
f 150 142 133
f 146 143 149
f 146 149 151
f 126 128 150
f 126 150 133
f 152 123 136
f 152 136 145
f 123 152 153
f 123 153 124
f 140 147 154
f 140 154 141
f 155 156 157
f 155 157 158
f 159 160 155
f 159 155 158
f 161 160 159
f 161 159 162
f 163 161 162
f 163 162 164
f 154 165 156
f 154 156 141
f 166 167 50
f 166 50 49
f 167 121 120
f 167 120 168
f 169 122 121
f 169 121 170
f 49 55 170
f 49 170 166
f 168 56 50
f 168 50 167
f 167 166 170
f 167 170 121
f 56 168 120
f 56 120 57
f 57 120 171
f 57 171 58
f 172 171 120
f 172 120 119
f 173 64 63
f 173 63 174
f 175 173 174
f 175 174 176
f 177 165 175
f 177 175 176
f 154 147 122
f 154 122 169
f 147 146 119
f 147 119 122
f 146 151 172
f 146 172 119
f 58 171 178
f 58 178 68
f 68 178 179
f 68 179 70
f 174 63 70
f 174 70 179
f 172 151 180
f 172 180 181
f 176 182 183
f 176 183 177
f 180 183 182
f 180 182 181
f 181 182 179
f 181 179 178
f 174 179 182
f 174 182 176
f 172 181 178
f 172 178 171
f 164 162 184
f 164 184 185
f 186 184 162
f 186 162 159
f 187 186 159
f 187 159 158
f 188 187 158
f 188 158 157
f 157 177 183
f 157 183 188
f 189 188 183
f 189 183 180
f 188 189 190
f 188 190 187
f 187 190 191
f 187 191 186
f 186 191 192
f 186 192 184
f 184 192 193
f 184 193 185
f 151 149 189
f 151 189 180
f 189 149 148
f 189 148 190
f 190 148 150
f 190 150 191
f 128 192 191
f 128 191 150
f 192 128 127
f 192 127 193
f 153 194 195
f 153 195 124
f 195 194 196
f 195 196 197
f 196 198 199
f 196 199 197
f 124 195 200
f 124 200 125
f 201 200 195
f 201 195 197
f 202 201 197
f 202 197 199
f 125 200 203
f 125 203 127
f 204 203 200
f 204 200 201
f 205 204 201
f 205 201 202
f 127 203 206
f 127 206 193
f 207 206 203
f 207 203 204
f 208 207 204
f 208 204 205
f 193 206 209
f 193 209 185
f 210 209 206
f 210 206 207
f 211 210 207
f 211 207 208
f 163 164 212
f 163 212 213
f 214 215 213
f 214 213 212
f 216 217 215
f 216 215 214
f 209 212 164
f 209 164 185
f 210 214 212
f 210 212 209
f 211 216 214
f 211 214 210
f 199 218 219
f 199 219 202
f 208 220 221
f 208 221 211
f 222 220 208
f 222 208 205
f 219 222 205
f 219 205 202
f 211 221 223
f 211 223 216
f 217 216 223
f 217 223 224
f 218 199 198
f 218 198 225
f 219 218 226
f 219 226 222
f 226 221 220
f 226 220 222
f 144 141 156
f 144 156 155
f 160 145 144
f 160 144 155
f 152 145 160
f 152 160 161
f 153 152 161
f 153 161 163
f 165 177 157
f 165 157 156
f 173 170 55
f 173 55 64
f 169 170 173
f 169 173 175
f 165 154 169
f 165 169 175
f 213 194 153
f 213 153 163
f 215 196 194
f 215 194 213
f 217 198 196
f 217 196 215
f 225 198 217
f 225 217 224
f 226 218 225
f 226 225 224
f 226 224 223
f 226 223 221
