# Intermediate_Cuneiform_L posed
v 0.812637 -0.081038 0.318121
v 0.826774 -0.074841 0.312116
v 0.840646 -0.069288 0.308839
v 0.846144 -0.071457 0.317365
v 0.852111 -0.071755 0.325128
v 0.858324 -0.070666 0.332802
v 0.848635 -0.074578 0.335634
v 0.838747 -0.079052 0.337148
v 0.833103 -0.079345 0.331086
v 0.825435 -0.079918 0.323876
v 0.836509 -0.074357 0.320163
v 0.842430 -0.074227 0.328103
v 0.843233 -0.082134 0.308627
v 0.830229 -0.087728 0.312240
v 0.815733 -0.094903 0.317107
v 0.829507 -0.087628 0.324529
v 0.836490 -0.086673 0.331908
v 0.839868 -0.086681 0.339079
v 0.850764 -0.083344 0.337631
v 0.859926 -0.078948 0.334481
v 0.855195 -0.080641 0.326691
v 0.850660 -0.080117 0.317587
v 0.846917 -0.084737 0.329493
v 0.840807 -0.084723 0.320691
v 0.843022 -0.074812 0.306263
v 0.826616 -0.080960 0.309603
v 0.810141 -0.089171 0.317453
v 0.824709 -0.084894 0.325212
v 0.833072 -0.083651 0.332685
v 0.837563 -0.083847 0.339367
v 0.849698 -0.079152 0.337583
v 0.860805 -0.074792 0.334581
v 0.855839 -0.075534 0.325907
v 0.850993 -0.074721 0.316575
v 0.849331 -0.082700 0.323565
v 0.844642 -0.072438 0.322699
v 0.852132 -0.072877 0.321004
v 0.853774 -0.077526 0.321639
v 0.848497 -0.077564 0.311960
v 0.846665 -0.071697 0.312006
v 0.837755 -0.072389 0.314583
v 0.841786 -0.083506 0.314777
v 0.834993 -0.081741 0.307800
v 0.833456 -0.074773 0.307666
v 0.819313 -0.088431 0.312331
v 0.817981 -0.081317 0.312856
v 0.829337 -0.088401 0.318497
v 0.839677 -0.085591 0.326558
v 0.843395 -0.086786 0.334862
v 0.854324 -0.083351 0.332025
v 0.850723 -0.072097 0.330295
v 0.857928 -0.072743 0.329016
v 0.854650 -0.074772 0.335878
v 0.855466 -0.078908 0.336554
v 0.858646 -0.077315 0.330246
v 0.843964 -0.079074 0.338196
v 0.844548 -0.083100 0.339226
v 0.840549 -0.076160 0.333132
v 0.835141 -0.081568 0.335342
v 0.834748 -0.085805 0.336525
v 0.834451 -0.076225 0.325923
v 0.828892 -0.081991 0.328454
v 0.825581 -0.077784 0.318459
v 0.816825 -0.084276 0.322438
v 0.819416 -0.089742 0.321737
v 0.830651 -0.085805 0.328800
v 0.819960 -0.077839 0.315079
v 0.833749 -0.071395 0.310556
v 0.843290 -0.070612 0.313038
v 0.849315 -0.071519 0.321222
v 0.855325 -0.071504 0.329182
v 0.853332 -0.072221 0.334331
v 0.843751 -0.076574 0.336486
v 0.836115 -0.079118 0.334124
v 0.829483 -0.079511 0.327507
v 0.818963 -0.080660 0.320890
v 0.831172 -0.076728 0.321967
v 0.837631 -0.076386 0.329684
v 0.831806 -0.075000 0.315965
v 0.841411 -0.072506 0.318743
v 0.839664 -0.074036 0.324157
v 0.847402 -0.072648 0.326580
v 0.845666 -0.073848 0.331819
v 0.837029 -0.084567 0.310355
v 0.823551 -0.091564 0.314672
v 0.822686 -0.090534 0.320340
v 0.833692 -0.086692 0.328155
v 0.837956 -0.087095 0.335687
v 0.845576 -0.085310 0.338638
v 0.855569 -0.081252 0.336238
v 0.858044 -0.079814 0.330503
v 0.853197 -0.080106 0.322155
v 0.847114 -0.081106 0.313114
v 0.835449 -0.085942 0.316458
v 0.851286 -0.083180 0.327950
v 0.848875 -0.085508 0.333847
v 0.842122 -0.085942 0.330616
v 0.846121 -0.082928 0.319081
v 0.844774 -0.084101 0.325035
v 0.835617 -0.086383 0.322614
v 0.834681 -0.077804 0.307287
v 0.817925 -0.084999 0.312681
v 0.816585 -0.087586 0.321825
v 0.829923 -0.083823 0.328747
v 0.835162 -0.083762 0.336176
v 0.843830 -0.081389 0.338772
v 0.855453 -0.076882 0.336075
v 0.858727 -0.075026 0.330122
v 0.853244 -0.075197 0.321390
v 0.847554 -0.074538 0.311300
v 0.851887 -0.077097 0.316794
v 0.856048 -0.077960 0.325971
v 0.854951 -0.073390 0.325056
v 0.849334 -0.072581 0.316813
v 0.842832 -0.071375 0.306806
v 0.843623 -0.078334 0.306790
v 0.825902 -0.077876 0.309901
v 0.809975 -0.085494 0.317792
v 0.827601 -0.084620 0.309848
v 0.811366 -0.092636 0.317381
v 0.826306 -0.086657 0.325404
v 0.832999 -0.085733 0.332784
v 0.838250 -0.085520 0.339800
v 0.860808 -0.076865 0.334550
v 0.850244 -0.081236 0.337999
v 0.849202 -0.076888 0.337187
v 0.859999 -0.072429 0.333799
v 0.837835 -0.081428 0.338488
v 0.832579 -0.081667 0.332067
v 0.824125 -0.082753 0.325164
f 1 67 46
f 1 46 118
f 76 63 67
f 76 67 1
f 118 64 76
f 118 76 1
f 79 41 68
f 79 68 2
f 2 68 44
f 2 44 117
f 67 63 79
f 67 79 2
f 117 46 67
f 117 67 2
f 3 69 40
f 3 40 115
f 68 41 69
f 68 69 3
f 115 44 68
f 115 68 3
f 80 36 70
f 80 70 4
f 4 70 37
f 4 37 114
f 69 41 80
f 69 80 4
f 114 40 69
f 114 69 4
f 82 51 71
f 82 71 5
f 5 71 52
f 5 52 113
f 70 36 82
f 70 82 5
f 5 113 37
f 5 37 70
f 71 51 72
f 71 72 6
f 6 72 53
f 6 53 127
f 127 52 71
f 127 71 6
f 7 73 56
f 7 56 126
f 83 58 73
f 83 73 7
f 7 126 53
f 7 53 72
f 7 72 51
f 7 51 83
f 73 58 74
f 73 74 8
f 8 74 59
f 8 59 128
f 128 56 73
f 128 73 8
f 78 61 75
f 78 75 9
f 9 75 62
f 9 62 129
f 74 58 78
f 74 78 9
f 129 59 74
f 129 74 9
f 77 63 76
f 77 76 10
f 10 76 64
f 10 64 130
f 75 61 77
f 75 77 10
f 10 130 62
f 10 62 75
f 11 81 36
f 11 36 80
f 77 61 81
f 77 81 11
f 79 63 77
f 79 77 11
f 80 41 79
f 80 79 11
f 12 83 51
f 12 51 82
f 78 58 83
f 78 83 12
f 81 61 78
f 81 78 12
f 82 36 81
f 82 81 12
f 93 42 84
f 93 84 13
f 13 84 43
f 13 43 116
f 116 39 93
f 116 93 13
f 14 85 45
f 14 45 119
f 94 47 85
f 94 85 14
f 84 42 94
f 84 94 14
f 119 43 84
f 119 84 14
f 85 47 86
f 85 86 15
f 15 86 65
f 15 65 120
f 120 45 85
f 120 85 15
f 100 48 87
f 100 87 16
f 16 87 66
f 16 66 121
f 16 86 47
f 16 47 100
f 121 65 86
f 121 86 16
f 97 49 88
f 97 88 17
f 17 88 60
f 17 60 122
f 17 87 48
f 17 48 97
f 122 66 87
f 122 87 17
f 88 49 89
f 88 89 18
f 18 89 57
f 18 57 123
f 18 123 60
f 18 60 88
f 96 50 90
f 96 90 19
f 19 90 54
f 19 54 125
f 89 49 96
f 89 96 19
f 19 125 57
f 19 57 89
f 90 50 91
f 90 91 20
f 20 91 55
f 20 55 124
f 124 54 90
f 124 90 20
f 95 35 92
f 95 92 21
f 21 92 38
f 21 38 112
f 91 50 95
f 91 95 21
f 112 55 91
f 112 91 21
f 22 93 39
f 22 39 111
f 98 42 93
f 98 93 22
f 92 35 98
f 92 98 22
f 22 111 38
f 22 38 92
f 23 97 48
f 23 48 99
f 96 49 97
f 96 97 23
f 23 99 35
f 23 35 95
f 23 95 50
f 23 50 96
f 24 100 47
f 24 47 94
f 99 48 100
f 99 100 24
f 24 94 42
f 24 42 98
f 24 98 35
f 24 35 99
f 116 43 101
f 116 101 25
f 25 101 44
f 25 44 115
f 25 115 40
f 25 40 110
f 110 39 116
f 110 116 25
f 119 45 102
f 119 102 26
f 26 102 46
f 26 46 117
f 26 117 44
f 26 44 101
f 101 43 119
f 101 119 26
f 27 103 64
f 27 64 118
f 120 65 103
f 120 103 27
f 27 118 46
f 27 46 102
f 102 45 120
f 102 120 27
f 28 104 62
f 28 62 130
f 121 66 104
f 121 104 28
f 103 65 121
f 103 121 28
f 130 64 103
f 130 103 28
f 29 105 59
f 29 59 129
f 122 60 105
f 122 105 29
f 104 66 122
f 104 122 29
f 29 129 62
f 29 62 104
f 30 106 56
f 30 56 128
f 123 57 106
f 123 106 30
f 30 128 59
f 30 59 105
f 30 105 60
f 30 60 123
f 31 107 53
f 31 53 126
f 125 54 107
f 125 107 31
f 126 56 106
f 126 106 31
f 31 106 57
f 31 57 125
f 32 108 52
f 32 52 127
f 124 55 108
f 124 108 32
f 107 54 124
f 107 124 32
f 32 127 53
f 32 53 107
f 33 109 37
f 33 37 113
f 112 38 109
f 112 109 33
f 108 55 112
f 108 112 33
f 113 52 108
f 113 108 33
f 111 39 110
f 111 110 34
f 34 110 40
f 34 40 114
f 34 114 37
f 34 37 109
f 34 109 38
f 34 38 111
