# Intermediate_Cuneiform_R rest
v -0.101494 -1.285054 0.010732
v -0.105976 -1.290705 0.026398
v -0.109793 -1.298136 0.039816
v -0.110717 -1.308368 0.036880
v -0.110795 -1.318329 0.035584
v -0.110050 -1.328313 0.035072
v -0.107161 -1.323575 0.025410
v -0.105147 -1.317664 0.016092
v -0.104972 -1.309257 0.016326
v -0.104530 -1.298468 0.015756
v -0.107126 -1.303649 0.027784
v -0.106781 -1.313732 0.026591
v -0.120902 -1.299284 0.034486
v -0.117390 -1.292747 0.021435
v -0.113931 -1.285959 0.005740
v -0.112054 -1.301607 0.013758
v -0.111803 -1.312060 0.014012
v -0.110724 -1.319621 0.011453
v -0.114074 -1.326225 0.020692
v -0.116471 -1.330361 0.030470
v -0.118410 -1.321351 0.031682
v -0.119389 -1.311384 0.034779
v -0.116317 -1.317640 0.022890
v -0.116819 -1.306758 0.024547
v -0.116170 -1.297630 0.039780
v -0.111541 -1.288470 0.024497
v -0.106731 -1.282506 0.005226
v -0.107417 -1.298811 0.011846
v -0.107583 -1.310302 0.013030
v -0.107349 -1.318311 0.011398
v -0.110390 -1.325598 0.022359
v -0.113712 -1.331185 0.033188
v -0.115172 -1.321373 0.035302
v -0.115866 -1.311037 0.038513
v -0.118293 -1.314934 0.029043
v -0.108620 -1.311303 0.032214
v -0.113271 -1.315230 0.037522
v -0.117338 -1.316697 0.035615
v -0.118652 -1.305684 0.038205
v -0.113285 -1.304661 0.040272
v -0.108452 -1.300370 0.032959
v -0.118758 -1.302949 0.029272
v -0.116918 -1.292930 0.030229
v -0.110926 -1.292022 0.033177
v -0.112614 -1.285118 0.014330
v -0.106352 -1.284847 0.017061
v -0.114962 -1.296883 0.016838
v -0.114586 -1.310388 0.019884
v -0.114113 -1.319026 0.016239
v -0.117975 -1.324587 0.026358
v -0.108367 -1.321181 0.031356
v -0.112887 -1.325194 0.036101
v -0.110162 -1.327908 0.028744
v -0.113437 -1.328828 0.026565
v -0.116224 -1.326445 0.033287
v -0.107297 -1.322067 0.018570
v -0.110235 -1.323097 0.016102
v -0.105380 -1.316069 0.021271
v -0.105990 -1.313755 0.013715
v -0.108547 -1.314222 0.010466
v -0.105279 -1.306460 0.022009
v -0.105962 -1.304270 0.013977
v -0.105120 -1.294565 0.020274
v -0.104260 -1.291164 0.008984
v -0.109927 -1.292286 0.008071
v -0.109548 -1.305668 0.012826
v -0.103791 -1.288042 0.018813
v -0.107359 -1.294539 0.033456
v -0.110410 -1.303128 0.038201
v -0.110784 -1.313477 0.036425
v -0.110606 -1.323560 0.035118
v -0.108182 -1.325943 0.030304
v -0.105960 -1.320745 0.020864
v -0.105082 -1.313612 0.016377
v -0.104747 -1.304049 0.016238
v -0.103157 -1.291627 0.013176
v -0.105630 -1.301180 0.022153
v -0.105471 -1.311483 0.021539
v -0.107001 -1.297156 0.027094
v -0.108663 -1.306070 0.032619
v -0.106839 -1.308866 0.027445
v -0.108602 -1.316115 0.031384
v -0.106630 -1.318740 0.026424
v -0.119036 -1.296192 0.028403
v -0.116118 -1.289753 0.013813
v -0.112654 -1.293508 0.010492
v -0.111924 -1.307315 0.014628
v -0.111392 -1.315823 0.012264
v -0.112637 -1.323308 0.015898
v -0.115388 -1.328583 0.025549
v -0.117723 -1.326134 0.031413
v -0.118802 -1.316604 0.033566
v -0.120206 -1.305467 0.034754
v -0.116858 -1.299716 0.023118
v -0.117898 -1.319540 0.027254
v -0.116218 -1.322115 0.020836
v -0.114459 -1.315095 0.018658
v -0.118695 -1.309287 0.029666
v -0.116529 -1.312858 0.024701
v -0.114801 -1.304520 0.019342
v -0.113974 -1.292478 0.032499
v -0.109192 -1.284542 0.015142
v -0.106896 -1.290425 0.007434
v -0.107724 -1.305168 0.013463
v -0.107338 -1.314318 0.012032
v -0.108762 -1.322324 0.016883
v -0.112078 -1.328539 0.027959
v -0.114578 -1.326486 0.034651
v -0.115415 -1.316220 0.036707
v -0.116155 -1.304641 0.039684
v -0.118019 -1.311737 0.037624
v -0.117084 -1.321488 0.034078
v -0.113449 -1.320194 0.036450
v -0.113341 -1.310136 0.038531
v -0.113249 -1.298043 0.041219
v -0.118934 -1.298309 0.037897
v -0.108734 -1.288307 0.025553
v -0.103723 -1.282775 0.006900
v -0.114705 -1.289205 0.022954
v -0.109989 -1.283183 0.004140
v -0.109441 -1.300031 0.011773
v -0.109080 -1.310267 0.011817
v -0.108784 -1.319051 0.010638
v -0.115299 -1.331090 0.032080
v -0.112078 -1.326209 0.021293
v -0.108587 -1.325035 0.023529
v -0.111824 -1.330139 0.034486
v -0.105986 -1.317935 0.013419
v -0.106089 -1.309551 0.014164
v -0.105537 -1.298424 0.012653
f 118 46 67
f 118 67 1
f 1 67 63
f 1 63 76
f 1 76 64
f 1 64 118
f 2 68 41
f 2 41 79
f 117 44 68
f 117 68 2
f 2 79 63
f 2 63 67
f 2 67 46
f 2 46 117
f 115 40 69
f 115 69 3
f 3 69 41
f 3 41 68
f 3 68 44
f 3 44 115
f 4 70 36
f 4 36 80
f 114 37 70
f 114 70 4
f 4 80 41
f 4 41 69
f 4 69 40
f 4 40 114
f 5 71 51
f 5 51 82
f 113 52 71
f 113 71 5
f 5 82 36
f 5 36 70
f 70 37 113
f 70 113 5
f 6 72 51
f 6 51 71
f 127 53 72
f 127 72 6
f 6 71 52
f 6 52 127
f 126 56 73
f 126 73 7
f 7 73 58
f 7 58 83
f 72 53 126
f 72 126 7
f 83 51 72
f 83 72 7
f 8 74 58
f 8 58 73
f 128 59 74
f 128 74 8
f 8 73 56
f 8 56 128
f 9 75 61
f 9 61 78
f 129 62 75
f 129 75 9
f 9 78 58
f 9 58 74
f 9 74 59
f 9 59 129
f 10 76 63
f 10 63 77
f 130 64 76
f 130 76 10
f 10 77 61
f 10 61 75
f 75 62 130
f 75 130 10
f 80 36 81
f 80 81 11
f 11 81 61
f 11 61 77
f 11 77 63
f 11 63 79
f 11 79 41
f 11 41 80
f 82 51 83
f 82 83 12
f 12 83 58
f 12 58 78
f 12 78 61
f 12 61 81
f 12 81 36
f 12 36 82
f 13 84 42
f 13 42 93
f 116 43 84
f 116 84 13
f 13 93 39
f 13 39 116
f 119 45 85
f 119 85 14
f 14 85 47
f 14 47 94
f 14 94 42
f 14 42 84
f 14 84 43
f 14 43 119
f 15 86 47
f 15 47 85
f 120 65 86
f 120 86 15
f 15 85 45
f 15 45 120
f 16 87 48
f 16 48 100
f 121 66 87
f 121 87 16
f 100 47 86
f 100 86 16
f 16 86 65
f 16 65 121
f 17 88 49
f 17 49 97
f 122 60 88
f 122 88 17
f 97 48 87
f 97 87 17
f 17 87 66
f 17 66 122
f 18 89 49
f 18 49 88
f 123 57 89
f 123 89 18
f 88 60 123
f 88 123 18
f 19 90 50
f 19 50 96
f 125 54 90
f 125 90 19
f 19 96 49
f 19 49 89
f 89 57 125
f 89 125 19
f 20 91 50
f 20 50 90
f 124 55 91
f 124 91 20
f 20 90 54
f 20 54 124
f 21 92 35
f 21 35 95
f 112 38 92
f 112 92 21
f 21 95 50
f 21 50 91
f 21 91 55
f 21 55 112
f 111 39 93
f 111 93 22
f 22 93 42
f 22 42 98
f 22 98 35
f 22 35 92
f 92 38 111
f 92 111 22
f 99 48 97
f 99 97 23
f 23 97 49
f 23 49 96
f 95 35 99
f 95 99 23
f 96 50 95
f 96 95 23
f 94 47 100
f 94 100 24
f 24 100 48
f 24 48 99
f 98 42 94
f 98 94 24
f 99 35 98
f 99 98 24
f 25 101 43
f 25 43 116
f 115 44 101
f 115 101 25
f 110 40 115
f 110 115 25
f 25 116 39
f 25 39 110
f 26 102 45
f 26 45 119
f 117 46 102
f 117 102 26
f 101 44 117
f 101 117 26
f 26 119 43
f 26 43 101
f 118 64 103
f 118 103 27
f 27 103 65
f 27 65 120
f 102 46 118
f 102 118 27
f 27 120 45
f 27 45 102
f 130 62 104
f 130 104 28
f 28 104 66
f 28 66 121
f 28 121 65
f 28 65 103
f 28 103 64
f 28 64 130
f 129 59 105
f 129 105 29
f 29 105 60
f 29 60 122
f 29 122 66
f 29 66 104
f 104 62 129
f 104 129 29
f 128 56 106
f 128 106 30
f 30 106 57
f 30 57 123
f 105 59 128
f 105 128 30
f 123 60 105
f 123 105 30
f 126 53 107
f 126 107 31
f 31 107 54
f 31 54 125
f 31 106 56
f 31 56 126
f 125 57 106
f 125 106 31
f 127 52 108
f 127 108 32
f 32 108 55
f 32 55 124
f 32 124 54
f 32 54 107
f 107 53 127
f 107 127 32
f 113 37 109
f 113 109 33
f 33 109 38
f 33 38 112
f 33 112 55
f 33 55 108
f 33 108 52
f 33 52 113
f 34 110 39
f 34 39 111
f 114 40 110
f 114 110 34
f 109 37 114
f 109 114 34
f 111 38 109
f 111 109 34
