# L1 posed
v -0.391233 -0.015022 0.476946
v -0.390039 -0.015755 0.476449
v -0.388890 -0.015521 0.478098
v -0.390185 -0.014601 0.479001
v -0.386610 -0.013304 0.479798
v -0.386537 -0.014872 0.479884
v -0.383554 -0.015343 0.478621
v -0.383508 -0.013770 0.478601
v -0.405256 -0.006169 0.445350
v -0.402059 -0.005862 0.443333
v -0.404112 -0.006980 0.439538
v -0.407413 -0.007502 0.441508
v -0.405762 -0.007809 0.445901
v -0.407580 -0.009069 0.442275
v -0.405567 -0.008948 0.436271
v -0.408805 -0.009683 0.438435
v -0.409145 -0.010922 0.439721
v -0.410015 -0.013170 0.437800
v -0.409719 -0.012354 0.435976
v -0.410227 -0.015671 0.434088
v -0.410210 -0.016480 0.436190
v -0.406413 -0.011573 0.433529
v -0.406783 -0.014627 0.431471
v -0.402009 -0.007836 0.433608
v -0.402830 -0.010457 0.430822
v -0.403130 -0.013545 0.428800
v -0.398655 -0.006478 0.430721
v -0.399482 -0.009185 0.428005
v -0.399788 -0.012435 0.426089
v -0.379652 -0.023935 0.468318
v -0.380451 -0.022530 0.467478
v -0.382098 -0.023228 0.466328
v -0.381430 -0.024374 0.466792
v -0.379833 -0.025695 0.469073
v -0.381121 -0.025796 0.466951
v -0.397199 -0.004591 0.434228
v -0.394010 -0.003185 0.431362
v -0.395531 -0.005126 0.427869
v -0.396360 -0.007939 0.425262
v -0.396688 -0.011357 0.423379
v -0.393864 -0.010587 0.421059
v -0.393538 -0.007047 0.423090
v -0.392800 -0.004169 0.425560
v -0.391201 -0.002203 0.428927
v -0.391775 -0.002323 0.435575
v -0.388721 -0.001329 0.433120
v -0.389136 -0.002301 0.439914
v -0.385900 -0.001332 0.437408
v -0.389600 -0.002814 0.428386
v -0.387212 -0.002051 0.432304
v -0.391080 -0.004531 0.425203
v -0.391617 -0.007216 0.422721
v -0.392004 -0.010645 0.420590
v -0.378755 -0.013135 0.453482
v -0.378265 -0.012157 0.456652
v -0.381404 -0.013725 0.457123
v -0.381786 -0.014925 0.453469
v -0.377761 -0.015419 0.449093
v -0.381023 -0.018016 0.446939
v -0.378716 -0.017824 0.444642
v -0.377410 -0.015179 0.445962
v -0.384742 -0.016404 0.454090
v -0.385659 -0.019417 0.451014
v -0.383904 -0.014693 0.457445
v -0.388080 -0.017380 0.456051
v -0.386836 -0.015565 0.458459
v -0.389132 -0.020558 0.454167
v -0.390584 -0.016135 0.474873
v -0.391567 -0.015711 0.474824
v -0.391107 -0.016376 0.473265
v -0.390013 -0.016681 0.473595
v -0.388570 -0.016001 0.475845
v -0.386707 -0.015761 0.478202
v -0.384640 -0.016212 0.477353
v -0.389801 -0.017382 0.470843
v -0.388884 -0.017272 0.472246
v -0.386645 -0.016503 0.474966
v -0.387669 -0.018332 0.469496
v -0.386682 -0.017653 0.471180
v -0.382666 -0.016874 0.474308
v -0.381314 -0.016241 0.473521
v -0.381698 -0.015774 0.476645
v -0.383394 -0.016596 0.476026
v -0.384965 -0.016661 0.473720
v -0.383652 -0.017397 0.472614
v -0.384930 -0.018208 0.471169
v -0.391495 -0.018143 0.458647
v -0.392577 -0.021617 0.457103
v -0.394451 -0.017998 0.460062
v -0.395674 -0.021784 0.458253
v -0.395140 -0.003704 0.438276
v -0.392670 -0.003748 0.442393
v -0.400558 -0.005951 0.437038
v -0.397089 -0.020990 0.457083
v -0.396168 -0.016967 0.459960
v -0.396122 -0.004794 0.444888
v -0.398526 -0.004955 0.440911
v -0.399587 -0.005567 0.447344
v -0.402599 -0.006242 0.449400
v -0.376675 -0.011215 0.453901
v -0.376698 -0.010327 0.456436
v -0.384728 -0.002010 0.436354
v -0.377031 -0.008640 0.454055
v -0.383339 -0.006903 0.455266
v -0.382880 -0.006654 0.457761
v -0.377516 -0.008125 0.456376
v -0.381949 -0.004516 0.449175
v -0.386202 -0.005187 0.451175
v -0.375239 -0.008036 0.450447
v -0.379235 -0.004114 0.446451
v -0.375633 -0.007943 0.447095
v -0.378797 -0.004677 0.444238
v -0.375896 -0.012376 0.450238
v -0.376100 -0.012078 0.447015
v -0.390687 -0.011169 0.422190
v -0.390425 -0.008458 0.424204
v -0.389955 -0.006271 0.426650
v -0.388741 -0.004665 0.429344
v -0.386685 -0.003866 0.432530
v -0.384533 -0.003708 0.435780
v -0.377533 -0.008489 0.444139
v -0.379265 -0.005740 0.442543
v -0.377786 -0.011790 0.444568
v -0.378424 -0.014653 0.444100
v -0.379198 -0.017346 0.442955
v -0.389470 -0.010256 0.427493
v -0.389541 -0.012506 0.426306
v -0.385433 -0.011856 0.433844
v -0.385326 -0.014296 0.432978
v -0.387464 -0.013515 0.430000
v -0.387481 -0.011209 0.430968
v -0.389138 -0.008297 0.428973
v -0.388324 -0.006628 0.430518
v -0.387396 -0.008916 0.431867
v -0.386851 -0.006064 0.432749
v -0.384886 -0.005791 0.435477
v -0.385436 -0.009407 0.434601
v -0.386082 -0.002693 0.444178
v -0.389766 -0.004277 0.446444
v -0.382858 -0.001789 0.441919
v -0.381886 -0.002671 0.440542
v -0.381842 -0.004039 0.439650
v -0.382226 -0.005968 0.438830
v -0.380279 -0.007553 0.441354
v -0.379423 -0.009430 0.442664
v -0.383462 -0.010036 0.437766
v -0.380058 -0.011885 0.442933
v -0.381949 -0.010973 0.440811
v -0.383625 -0.012651 0.437168
v -0.380468 -0.014194 0.442502
v -0.382307 -0.013457 0.440295
v -0.383404 -0.015119 0.436360
v -0.380353 -0.016801 0.441738
v -0.381970 -0.016039 0.439613
v -0.390425 -0.006016 0.453072
v -0.393450 -0.005277 0.448825
v -0.396923 -0.005680 0.451518
v -0.399989 -0.006620 0.453619
v -0.398402 -0.010110 0.456991
v -0.397165 -0.008210 0.457847
v -0.400985 -0.008447 0.453477
v -0.403468 -0.007787 0.449788
v -0.371672 -0.012350 0.456648
v -0.370781 -0.011414 0.458833
v -0.368700 -0.010412 0.459952
v -0.369233 -0.012523 0.456738
v -0.369961 -0.013061 0.452125
v -0.371574 -0.013315 0.454235
v -0.366381 -0.012871 0.451379
v -0.365950 -0.012549 0.456716
v -0.363755 -0.013408 0.452034
v -0.363291 -0.011837 0.456080
v -0.361546 -0.009837 0.454532
v -0.362253 -0.012127 0.452645
v -0.363040 -0.008860 0.459114
v -0.361304 -0.008803 0.457629
v -0.365961 -0.009452 0.460175
v -0.387895 -0.007008 0.456874
v -0.386850 -0.006885 0.459628
v -0.394008 -0.006749 0.455633
v -0.390729 -0.007817 0.459630
v -0.393134 -0.009587 0.464187
v -0.388867 -0.007843 0.462167
v -0.397310 -0.016505 0.457700
v -0.397574 -0.020179 0.455313
v -0.395036 -0.013842 0.462763
v -0.395625 -0.011568 0.461770
v -0.397029 -0.012618 0.458576
v -0.396851 -0.014287 0.458912
v -0.398958 -0.011280 0.455309
v -0.398318 -0.019423 0.452507
v -0.398614 -0.015914 0.454242
v -0.381542 -0.014269 0.476404
v -0.382132 -0.014492 0.473065
v -0.370502 -0.013373 0.451053
v -0.372426 -0.013431 0.454096
v -0.366503 -0.013335 0.449824
v -0.363582 -0.013899 0.451095
v -0.362191 -0.008905 0.460697
v -0.365528 -0.009617 0.461800
v -0.368794 -0.010619 0.461521
v -0.360300 -0.009045 0.458398
v -0.360539 -0.010262 0.454292
v -0.361747 -0.012705 0.452440
v -0.368924 -0.012570 0.462226
v -0.365050 -0.012216 0.462198
v -0.362049 -0.011680 0.460863
v -0.360363 -0.011987 0.458846
v -0.360189 -0.012841 0.455988
v -0.361572 -0.014570 0.454359
v -0.363736 -0.015441 0.452843
v -0.366744 -0.015701 0.452227
v -0.369724 -0.015491 0.453250
v -0.381615 -0.016086 0.470678
v -0.381973 -0.014479 0.470991
v -0.382688 -0.017474 0.471375
v -0.384688 -0.018872 0.469858
v -0.381855 -0.017625 0.469893
v -0.382747 -0.019342 0.468901
v -0.385702 -0.020182 0.467732
v -0.383626 -0.021050 0.467418
v -0.381820 -0.021624 0.467147
v -0.380685 -0.020041 0.468342
v -0.382837 -0.022230 0.466062
v -0.385725 -0.020263 0.466239
v -0.383979 -0.021374 0.466126
v -0.387545 -0.018246 0.466226
v -0.386107 -0.017672 0.464269
v -0.383855 -0.018856 0.464146
v -0.391963 -0.014974 0.463262
v -0.391285 -0.015802 0.461642
v -0.389517 -0.016099 0.460282
v -0.388848 -0.016169 0.464477
v -0.389135 -0.016201 0.467217
v -0.385773 -0.015279 0.460313
v -0.383435 -0.014906 0.460352
v -0.383964 -0.016233 0.462247
v -0.387475 -0.015982 0.462362
v -0.391379 -0.014742 0.474539
v -0.391019 -0.015485 0.472715
v -0.391012 -0.013921 0.476600
v -0.389878 -0.013315 0.478912
v -0.390433 -0.013122 0.475721
v -0.390892 -0.013997 0.474130
v -0.390379 -0.013736 0.473016
v -0.389958 -0.012673 0.474388
v -0.389264 -0.012582 0.477600
v -0.386694 -0.012441 0.478306
v -0.384311 -0.012549 0.477663
v -0.383165 -0.012589 0.475700
v -0.383083 -0.012147 0.473146
v -0.382963 -0.011477 0.471801
v -0.388647 -0.011838 0.475780
v -0.386509 -0.011481 0.476624
v -0.384931 -0.011692 0.476646
v -0.384561 -0.011279 0.475150
v -0.389971 -0.013411 0.471053
v -0.389530 -0.012146 0.472480
v -0.388291 -0.011096 0.473675
v -0.386303 -0.010622 0.474675
v -0.384554 -0.010326 0.473249
v -0.386490 -0.009824 0.472747
v -0.388183 -0.010469 0.471713
v -0.389233 -0.011653 0.470533
v -0.389860 -0.012959 0.468937
v -0.389985 -0.014852 0.468963
v -0.390384 -0.014639 0.465929
v -0.390832 -0.014707 0.472886
v -0.388135 -0.018168 0.468147
v -0.389952 -0.016399 0.469889
v -0.390304 -0.014926 0.471440
v -0.369593 -0.018560 0.463861
v -0.372035 -0.019852 0.465491
v -0.369992 -0.022215 0.467596
v -0.368765 -0.020450 0.465449
v -0.366407 -0.018056 0.463605
v -0.366900 -0.020733 0.465902
v -0.384978 -0.009326 0.472054
v -0.369586 -0.016034 0.462839
v -0.373830 -0.015859 0.463427
v -0.372910 -0.012334 0.462393
v -0.380586 -0.015834 0.468973
v -0.381031 -0.013690 0.469774
v -0.377906 -0.014132 0.466394
v -0.376564 -0.012747 0.464213
v -0.377844 -0.010306 0.465143
v -0.378853 -0.011443 0.467314
v -0.379295 -0.015160 0.467591
v -0.380101 -0.012461 0.468689
v -0.380409 -0.018035 0.468425
v -0.382580 -0.010340 0.471216
v -0.385217 -0.008533 0.471206
v -0.381460 -0.009495 0.470368
v -0.384814 -0.007722 0.470772
v -0.378948 -0.021297 0.468564
v -0.378080 -0.023411 0.469567
v -0.378099 -0.025809 0.470884
v -0.373690 -0.021237 0.467465
v -0.372710 -0.025586 0.471382
v -0.375255 -0.025726 0.471455
v -0.375635 -0.022522 0.468703
v -0.377993 -0.019002 0.467094
v -0.376028 -0.017641 0.465528
v -0.378526 -0.008215 0.466130
v -0.379461 -0.009268 0.468300
v -0.378449 -0.006498 0.467235
v -0.379628 -0.007591 0.469187
v -0.381769 -0.007784 0.470744
v -0.384264 -0.006858 0.470876
v -0.378071 -0.005310 0.465488
v -0.378232 -0.007127 0.464293
v -0.377154 -0.009028 0.463715
v -0.375482 -0.010867 0.463162
v -0.371800 -0.011435 0.459877
v -0.379386 -0.006187 0.470436
v -0.381664 -0.006554 0.471533
v -0.377853 -0.004904 0.468589
v -0.377232 -0.003651 0.467083
v -0.383633 -0.006019 0.471762
v -0.384294 -0.005114 0.470836
v -0.385249 -0.006221 0.469600
v -0.384853 -0.004879 0.468140
v -0.383660 -0.003970 0.469605
v -0.381647 -0.003258 0.468350
v -0.383110 -0.004079 0.466544
v -0.379028 -0.002820 0.467315
v -0.380892 -0.003907 0.465371
v -0.378782 -0.004366 0.464585
v -0.377539 -0.002921 0.466614
v -0.380561 -0.002035 0.470039
v -0.377717 -0.001438 0.468939
v -0.376272 -0.001561 0.468405
v -0.382949 -0.002965 0.471412
v -0.383756 -0.003976 0.472880
v -0.383306 -0.004778 0.473838
v -0.381375 -0.005152 0.473396
v -0.378822 -0.004633 0.472369
v -0.376748 -0.002976 0.470741
v -0.376059 -0.001916 0.468902
v -0.375263 -0.000475 0.470615
v -0.376134 -0.001397 0.472455
v -0.378112 -0.002940 0.474413
v -0.381030 -0.003768 0.475389
v -0.382951 -0.003431 0.475606
v -0.383168 -0.002978 0.474866
v -0.382360 -0.001936 0.473299
v -0.379857 -0.000745 0.471433
v -0.376986 -0.000042 0.470293
v -0.375402 -0.000194 0.469909
v -0.377616 -0.001194 0.475570
v -0.375752 0.000233 0.473585
v -0.380464 -0.002228 0.476820
v -0.382229 -0.002105 0.476988
v -0.374957 0.001103 0.472181
v -0.375095 0.001422 0.471558
v -0.376632 0.001277 0.471563
v -0.379552 0.000397 0.472436
v -0.381933 -0.000949 0.474410
v -0.382345 -0.001922 0.476369
v -0.377552 0.000434 0.476059
v -0.375852 0.001766 0.474240
v -0.379835 -0.000463 0.477518
v -0.375117 0.002708 0.473264
v -0.381309 -0.000190 0.477818
v -0.377644 0.002344 0.476266
v -0.376242 0.002947 0.474854
v -0.379386 0.001510 0.477438
v -0.381870 0.000031 0.476938
v -0.380413 0.002972 0.477597
v -0.377825 0.004439 0.476001
v -0.381473 0.000352 0.474878
v -0.379334 0.001579 0.473228
v -0.380727 0.002148 0.475204
v -0.381012 0.003182 0.476706
v -0.378173 0.005411 0.475315
v -0.375886 0.004113 0.474446
v -0.375237 0.002998 0.472771
v -0.376023 0.004754 0.473890
v -0.378811 0.003363 0.474236
v -0.376605 0.002447 0.472613
v -0.376861 0.003634 0.473501
v -0.389466 -0.009680 0.464970
v -0.386863 -0.009312 0.471205
v -0.391861 -0.012628 0.465805
v -0.389964 -0.011434 0.466759
v -0.390636 -0.013320 0.466201
v -0.389920 -0.012336 0.467605
v -0.389135 -0.011202 0.468918
v -0.388167 -0.010123 0.470025
v -0.388959 -0.010409 0.467554
v -0.386925 -0.008839 0.469791
v -0.387971 -0.009696 0.468300
v -0.388298 -0.008969 0.465869
v -0.386354 -0.007726 0.468707
v -0.387371 -0.008535 0.466781
v -0.387729 -0.007401 0.463750
v -0.385887 -0.006011 0.466312
v -0.386786 -0.006785 0.464899
v -0.386266 -0.006050 0.461574
v -0.384572 -0.004538 0.464579
v -0.385533 -0.005203 0.463040
v -0.383273 -0.005930 0.459617
v -0.382379 -0.004580 0.463251
v -0.383068 -0.005132 0.461444
v -0.378190 -0.006949 0.458094
v -0.379122 -0.006158 0.462327
v -0.378891 -0.006216 0.459881
v -0.376441 -0.008532 0.461462
v -0.375898 -0.009343 0.457979
v -0.375762 -0.008427 0.459169
v -0.374735 -0.010504 0.461092
v -0.380303 -0.014133 0.459711
v -0.382859 -0.020065 0.464334
v -0.382323 -0.021278 0.464601
v -0.377996 -0.018252 0.461929
v -0.379910 -0.020492 0.463005
v -0.382070 -0.022335 0.464561
v -0.380595 -0.021664 0.463199
v -0.381873 -0.023516 0.464559
v -0.378970 -0.021696 0.462388
v -0.376687 -0.020810 0.462840
v -0.380163 -0.022388 0.462896
v -0.381829 -0.024864 0.464382
v -0.378504 -0.023455 0.462025
v -0.375432 -0.023362 0.463874
v -0.379767 -0.023876 0.462398
v -0.371344 -0.022374 0.462413
v -0.372508 -0.019544 0.461099
v -0.368753 -0.021827 0.461568
v -0.369781 -0.018783 0.460264
v -0.367381 -0.018481 0.459631
v -0.366362 -0.021480 0.460801
v -0.379188 -0.016209 0.461149
v -0.376088 -0.012208 0.458509
v -0.370920 -0.016046 0.457865
v -0.368542 -0.016310 0.456847
v -0.371796 -0.015327 0.455115
v -0.372890 -0.012371 0.457097
v -0.374769 -0.011087 0.459125
v -0.372826 -0.014575 0.456320
v -0.373137 -0.014697 0.457709
v -0.373760 -0.017200 0.459895
v -0.375322 -0.014961 0.459273
v -0.366258 -0.016644 0.455944
v -0.362173 -0.022236 0.466657
v -0.360743 -0.023279 0.468550
v -0.360137 -0.024658 0.467893
v -0.361655 -0.024022 0.466145
v -0.361430 -0.022665 0.469650
v -0.359485 -0.023590 0.471309
v -0.358856 -0.024310 0.470319
v -0.358195 -0.025239 0.469708
v -0.356676 -0.025710 0.471178
v -0.357291 -0.025158 0.471665
v -0.356640 -0.025967 0.474207
v -0.355952 -0.026391 0.473371
v -0.357918 -0.024418 0.472710
v -0.357262 -0.025416 0.475071
v -0.362901 -0.021894 0.468082
v -0.363386 -0.022400 0.468964
v -0.361897 -0.023149 0.470300
v -0.360594 -0.023953 0.472236
v -0.362712 -0.026260 0.474340
v -0.363903 -0.025303 0.472653
v -0.367516 -0.027325 0.475768
v -0.367298 -0.028484 0.478122
v -0.359231 -0.024749 0.473912
v -0.366675 -0.029202 0.480068
v -0.361585 -0.026786 0.475960
v -0.358284 -0.025817 0.476195
v -0.360425 -0.027505 0.477627
v -0.364461 -0.029227 0.480962
v -0.367295 -0.022727 0.468656
v -0.369988 -0.026246 0.472653
v -0.368315 -0.026517 0.474004
v -0.365313 -0.024299 0.471191
v -0.363788 -0.021279 0.466965
v -0.364602 -0.020326 0.465556
v -0.357382 -0.026870 0.478009
v -0.358576 -0.028200 0.478922
v -0.361012 -0.029143 0.480396
v -0.356658 -0.026286 0.477127
v -0.355906 -0.026545 0.475760
v -0.355600 -0.027267 0.474261
v -0.362894 -0.020442 0.465285
v -0.364222 -0.016553 0.455979
v -0.365185 -0.018383 0.459220
v -0.361296 -0.014461 0.457537
v -0.362271 -0.015721 0.456704
v -0.361585 -0.014099 0.459241
v -0.363715 -0.021588 0.460814
v -0.363321 -0.018128 0.459412
v -0.362672 -0.020115 0.461150
v -0.362345 -0.013892 0.460596
v -0.363670 -0.018738 0.463539
v -0.362017 -0.020656 0.463236
v -0.362556 -0.017332 0.460489
v -0.364768 -0.015061 0.462085
v -0.361849 -0.022653 0.462885
v -0.398685 -0.013483 0.454935
v -0.400952 -0.010150 0.452522
v -0.403085 -0.009705 0.449455
v -0.405081 -0.009929 0.445994
v -0.406606 -0.010942 0.442896
v -0.400377 -0.012701 0.451723
v -0.399919 -0.015376 0.450829
v -0.399381 -0.018643 0.449496
v -0.402158 -0.012445 0.448726
v -0.401277 -0.014989 0.447821
v -0.400780 -0.018028 0.446691
v -0.403908 -0.012701 0.445841
v -0.402786 -0.014920 0.445022
v -0.402428 -0.017674 0.444133
v -0.408969 -0.014225 0.439277
v -0.408984 -0.016990 0.437830
v -0.408117 -0.012377 0.440882
v -0.405460 -0.013247 0.443333
v -0.406703 -0.013673 0.441995
v -0.404817 -0.015103 0.442766
v -0.404516 -0.017431 0.441866
v -0.407031 -0.015161 0.441153
v -0.406954 -0.017302 0.440069
v -0.379677 -0.029595 0.467941
v -0.379384 -0.030656 0.466367
v -0.377752 -0.031648 0.467175
v -0.377917 -0.030333 0.469565
v -0.375267 -0.031752 0.466022
v -0.375062 -0.030516 0.470058
v -0.369633 -0.031005 0.465046
v -0.366958 -0.030939 0.466266
v -0.369815 -0.030330 0.471457
v -0.372512 -0.030402 0.469978
v -0.373257 -0.032030 0.464333
v -0.371544 -0.032023 0.461964
v -0.365045 -0.030826 0.469293
v -0.368128 -0.030682 0.472780
v -0.375366 -0.034198 0.460725
v -0.373088 -0.034413 0.458044
v -0.377392 -0.034034 0.462733
v -0.380095 -0.031450 0.464889
v -0.378482 -0.032957 0.465180
v -0.368330 -0.031254 0.462313
v -0.366480 -0.031120 0.462885
v -0.369052 -0.032059 0.459945
v -0.364174 -0.031110 0.462429
v -0.363411 -0.031003 0.464151
v -0.363049 -0.031097 0.466448
v -0.368882 -0.033638 0.457731
v -0.365844 -0.032111 0.459527
v -0.363172 -0.031300 0.459897
v -0.362496 -0.030745 0.462305
v -0.363685 -0.030660 0.471097
v -0.367339 -0.030892 0.474713
v -0.362522 -0.030666 0.473054
v -0.367146 -0.031172 0.477319
v -0.361366 -0.031000 0.474710
v -0.360222 -0.031214 0.476534
v -0.364304 -0.031863 0.480164
v -0.366524 -0.031561 0.479354
v -0.358452 -0.031199 0.478044
v -0.360913 -0.031406 0.479725
v -0.362548 -0.031017 0.465442
v -0.361100 -0.031096 0.467208
v -0.361588 -0.031071 0.468006
v -0.359187 -0.031060 0.469143
v -0.360300 -0.031331 0.470096
v -0.358948 -0.031453 0.471956
v -0.357644 -0.030994 0.470797
v -0.357008 -0.031366 0.473344
v -0.358027 -0.031700 0.474479
v -0.384162 -0.037393 0.465602
v -0.382794 -0.038753 0.466417
v -0.381867 -0.037954 0.465431
v -0.383998 -0.036114 0.464854
v -0.381079 -0.036971 0.464278
v -0.382117 -0.035064 0.464340
v -0.386939 -0.036596 0.464193
v -0.385868 -0.037995 0.465277
v -0.385151 -0.033949 0.463737
v -0.387424 -0.036042 0.462956
v -0.383152 -0.032898 0.463980
v -0.381736 -0.040022 0.467593
v -0.380360 -0.040033 0.466620
v -0.380709 -0.038659 0.464128
v -0.376960 -0.037753 0.459539
v -0.375565 -0.037654 0.456983
v -0.377686 -0.040579 0.458860
v -0.376642 -0.040300 0.456437
v -0.374366 -0.038595 0.455113
v -0.371930 -0.036760 0.455304
v -0.375887 -0.040562 0.454560
v -0.382402 -0.041234 0.468879
v -0.380644 -0.042135 0.469000
v -0.380382 -0.043261 0.467998
v -0.381055 -0.041324 0.465285
v -0.380941 -0.040210 0.463525
v -0.383597 -0.042364 0.469762
v -0.382423 -0.043693 0.470393
v -0.382257 -0.045000 0.469540
v -0.388954 -0.038279 0.464786
v -0.388007 -0.039052 0.465925
v -0.389057 -0.038604 0.463446
v -0.390145 -0.040499 0.466279
v -0.389063 -0.040342 0.466733
v -0.389978 -0.040972 0.465337
v -0.390547 -0.041900 0.467238
v -0.389581 -0.041507 0.467514
v -0.390264 -0.042586 0.466464
v -0.390100 -0.043604 0.468666
v -0.388963 -0.042643 0.468646
v -0.389798 -0.044352 0.467772
v -0.388914 -0.045009 0.470174
v -0.387767 -0.043642 0.469914
v -0.388570 -0.046016 0.469423
v -0.385337 -0.044975 0.471140
v -0.385609 -0.043338 0.470185
v -0.385293 -0.046257 0.470234
v -0.387529 -0.042014 0.468296
v -0.385664 -0.040984 0.467861
v -0.384023 -0.040060 0.466929
v -0.381894 -0.044417 0.466466
v -0.381832 -0.043417 0.464074
v -0.382991 -0.045582 0.468079
v -0.381691 -0.043252 0.462581
v -0.385345 -0.046192 0.468513
v -0.387932 -0.045885 0.467938
v -0.389181 -0.044516 0.466614
v -0.389736 -0.042965 0.465727
v -0.389747 -0.041700 0.465057
v -0.389280 -0.040691 0.463944
v -0.385212 -0.033085 0.462518
v -0.386877 -0.034912 0.461392
v -0.388300 -0.037268 0.461085
v -0.383555 -0.031961 0.463054
v -0.381015 -0.028463 0.466177
v -0.381221 -0.029603 0.465275
v -0.381812 -0.030369 0.464256
v -0.379971 -0.040164 0.462092
v -0.379702 -0.037892 0.462572
v -0.378976 -0.040550 0.460538
v -0.378395 -0.037630 0.461071
v -0.379700 -0.035737 0.463288
v -0.381238 -0.043869 0.461487
v -0.380078 -0.044045 0.460343
v -0.373637 -0.037738 0.453182
v -0.370810 -0.036090 0.452720
v -0.375184 -0.039721 0.452403
v -0.367718 -0.037438 0.453738
v -0.367979 -0.036179 0.455372
v -0.380125 -0.034024 0.464284
v -0.381399 -0.032137 0.464096
v -0.382481 -0.031122 0.463482
v -0.382667 -0.046745 0.459299
v -0.383283 -0.046001 0.459662
v -0.384865 -0.045010 0.457882
v -0.383630 -0.046674 0.457859
v -0.380251 -0.045711 0.459738
v -0.382568 -0.048196 0.458334
v -0.381954 -0.047883 0.459614
v -0.380034 -0.047164 0.459749
v -0.383735 -0.045580 0.460454
v -0.385494 -0.044693 0.459381
v -0.381878 -0.048452 0.456698
v -0.383167 -0.046995 0.455918
v -0.381399 -0.046684 0.454184
v -0.379844 -0.048232 0.455301
v -0.378640 -0.050084 0.456097
v -0.381058 -0.050209 0.457703
v -0.381900 -0.050207 0.459467
v -0.384325 -0.045146 0.454953
v -0.382935 -0.045358 0.452735
v -0.385317 -0.043808 0.454143
v -0.383978 -0.044050 0.451766
v -0.385987 -0.043369 0.456650
v -0.380779 -0.044450 0.451686
v -0.379198 -0.046037 0.453149
v -0.381550 -0.043074 0.450438
v -0.377221 -0.047855 0.454248
v -0.375782 -0.049791 0.454909
v -0.377671 -0.042384 0.451816
v -0.377149 -0.045074 0.452775
v -0.377497 -0.041012 0.449782
v -0.375761 -0.047286 0.453742
v -0.374359 -0.049298 0.454555
v -0.376494 -0.044709 0.454056
v -0.375500 -0.046901 0.454534
v -0.374160 -0.049255 0.455168
v -0.376814 -0.042552 0.454013
v -0.374540 -0.038534 0.450420
v -0.373751 -0.036196 0.451826
v -0.374766 -0.037136 0.449899
v -0.376891 -0.039386 0.448678
v -0.376356 -0.037428 0.447868
v -0.375695 -0.035542 0.449106
v -0.377381 -0.034233 0.450232
v -0.375149 -0.035021 0.451876
v -0.381854 -0.041443 0.449315
v -0.381558 -0.039810 0.448141
v -0.384807 -0.042607 0.450957
v -0.385497 -0.040904 0.449738
v -0.386344 -0.042745 0.453459
v -0.387558 -0.041607 0.452313
v -0.386976 -0.042573 0.456072
v -0.388222 -0.041578 0.455654
v -0.380611 -0.033399 0.451407
v -0.379467 -0.034356 0.453836
v -0.378496 -0.033296 0.456191
v -0.374590 -0.033058 0.454018
v -0.372431 -0.032284 0.452603
v -0.371202 -0.030268 0.450780
v -0.369182 -0.028981 0.449346
v -0.369852 -0.029648 0.446331
v -0.371714 -0.031365 0.448890
v -0.370320 -0.031069 0.453506
v -0.367989 -0.030127 0.452838
v -0.372027 -0.033896 0.450846
v -0.372145 -0.031622 0.451371
v -0.375982 -0.035718 0.446190
v -0.375830 -0.033441 0.447438
v -0.378053 -0.031752 0.448064
v -0.382089 -0.038297 0.446156
v -0.386604 -0.039404 0.447456
v -0.389448 -0.040390 0.450127
v -0.391878 -0.041519 0.454893
v -0.386634 -0.043250 0.458551
v -0.383539 -0.045346 0.461598
v -0.385436 -0.045046 0.460831
v -0.387691 -0.042322 0.458275
v -0.388787 -0.041106 0.458130
v -0.390758 -0.039740 0.457952
v -0.385128 -0.046088 0.466579
v -0.383570 -0.045807 0.466744
v -0.383205 -0.045329 0.465262
v -0.387302 -0.045494 0.466013
v -0.389036 -0.039370 0.461763
v -0.383288 -0.033013 0.460038
v -0.385443 -0.034243 0.459463
v -0.388065 -0.035815 0.458769
v -0.382380 -0.032023 0.460864
v -0.386821 -0.043830 0.460238
v -0.387893 -0.042404 0.459856
v -0.388796 -0.040799 0.459324
v -0.389615 -0.039252 0.458618
v -0.389124 -0.038399 0.443672
v -0.384894 -0.037768 0.441720
v -0.392699 -0.039408 0.446140
v -0.392177 -0.036972 0.439627
v -0.388482 -0.036270 0.437160
v -0.395613 -0.038321 0.442045
v -0.380657 -0.036945 0.439760
v -0.384744 -0.036115 0.434480
v -0.377984 -0.035622 0.437300
v -0.374223 -0.034163 0.442847
v -0.381514 -0.035428 0.432158
v -0.391427 -0.034762 0.433393
v -0.394893 -0.035471 0.435986
v -0.398353 -0.036388 0.438402
v -0.397388 -0.033389 0.432661
v -0.393976 -0.032780 0.429840
v -0.400928 -0.034184 0.435117
v -0.375198 -0.030447 0.444982
v -0.377295 -0.027411 0.445606
v -0.390577 -0.032248 0.426892
v -0.387851 -0.034391 0.430603
v -0.396181 -0.030020 0.426850
v -0.392960 -0.029435 0.423746
v -0.399571 -0.030628 0.429878
v -0.387511 -0.031547 0.424353
v -0.384608 -0.033628 0.428038
v -0.390139 -0.028752 0.421224
v -0.377995 -0.025424 0.440972
v -0.376988 -0.025909 0.442841
v -0.375441 -0.028990 0.442095
v -0.377149 -0.028049 0.439842
v -0.374669 -0.032478 0.439961
v -0.376661 -0.030579 0.437722
v -0.379452 -0.027263 0.438469
v -0.380035 -0.025103 0.439338
v -0.378644 -0.029139 0.436944
v -0.397847 -0.026665 0.424864
v -0.394694 -0.026045 0.421799
v -0.401230 -0.027313 0.427958
v -0.391950 -0.025416 0.419396
v -0.398928 -0.023015 0.423993
v -0.395784 -0.022358 0.421079
v -0.392952 -0.021724 0.418831
v -0.402299 -0.023694 0.426983
v -0.399510 -0.019361 0.424081
v -0.396399 -0.018587 0.421283
v -0.393580 -0.017760 0.418985
v -0.402866 -0.020105 0.426900
v -0.403139 -0.031363 0.432465
v -0.398694 -0.038869 0.444260
v -0.401364 -0.037137 0.440438
v -0.395907 -0.039584 0.448732
v -0.404098 -0.035239 0.436921
v -0.406433 -0.032220 0.434341
v -0.399830 -0.037325 0.445097
v -0.402339 -0.036106 0.441576
v -0.397297 -0.037612 0.449013
v -0.404713 -0.034186 0.438255
v -0.406698 -0.031321 0.435826
v -0.394513 -0.038771 0.453934
v -0.394052 -0.037369 0.456059
v -0.391118 -0.036377 0.456968
v -0.395515 -0.033268 0.455234
v -0.389510 -0.037918 0.459036
v -0.390527 -0.034782 0.456101
v -0.393879 -0.032329 0.455900
v -0.395416 -0.028263 0.456374
v -0.396791 -0.028425 0.454925
v -0.397254 -0.028202 0.452984
v -0.396669 -0.032528 0.453053
v -0.396002 -0.035031 0.452941
v -0.396064 -0.036265 0.451754
v -0.397979 -0.035762 0.448207
v -0.399947 -0.035378 0.445203
v -0.402106 -0.034286 0.442326
v -0.404183 -0.032403 0.439475
v -0.405845 -0.030005 0.437367
v -0.404805 -0.028063 0.430728
v -0.408046 -0.028840 0.432885
v -0.408450 -0.028509 0.434630
v -0.407497 -0.027829 0.436404
v -0.405898 -0.024453 0.429798
v -0.409203 -0.025341 0.432221
v -0.390972 -0.031233 0.454849
v -0.392338 -0.027580 0.455372
v -0.388814 -0.033685 0.455177
v -0.397999 -0.027395 0.450192
v -0.398003 -0.031268 0.449785
v -0.399065 -0.026540 0.447204
v -0.399335 -0.029996 0.446586
v -0.402146 -0.024733 0.442086
v -0.404255 -0.023893 0.439997
v -0.404368 -0.026286 0.439522
v -0.402284 -0.027501 0.441370
v -0.400726 -0.028824 0.443806
v -0.400474 -0.025703 0.444465
v -0.406714 -0.023167 0.438376
v -0.406610 -0.025539 0.438146
v -0.403222 -0.029903 0.440849
v -0.404862 -0.028215 0.438991
v -0.401397 -0.031524 0.443190
v -0.406159 -0.027229 0.438063
v -0.408764 -0.022400 0.436275
v -0.408514 -0.025468 0.436025
v -0.409521 -0.025650 0.434199
v -0.406532 -0.020844 0.429673
v -0.409991 -0.021559 0.432391
v -0.409984 -0.022033 0.434594
v -0.386724 -0.034747 0.456918
v -0.381757 -0.030175 0.462287
v -0.381930 -0.031104 0.461749
v -0.381647 -0.029163 0.462920
v -0.381705 -0.027938 0.463490
v -0.383242 -0.034215 0.457030
v -0.377450 -0.031905 0.457968
v -0.380266 -0.029903 0.460808
v -0.379500 -0.030736 0.460033
v -0.379895 -0.029098 0.460948
v -0.379620 -0.027559 0.461328
v -0.386140 -0.032965 0.453410
v -0.387568 -0.030237 0.452319
v -0.385017 -0.034119 0.454847
v -0.388888 -0.026647 0.452401
v -0.388274 -0.043539 0.463365
v -0.388699 -0.044146 0.465254
v -0.389229 -0.042550 0.464644
v -0.388845 -0.041734 0.462802
v -0.386938 -0.044968 0.463843
v -0.388758 -0.040972 0.460763
v -0.387987 -0.042894 0.461459
v -0.386826 -0.044441 0.461851
v -0.386078 -0.030391 0.424081
v -0.383513 -0.032408 0.427534
v -0.380639 -0.033879 0.431489
v -0.388599 -0.027831 0.421128
v -0.390270 -0.024794 0.419324
v -0.391057 -0.021242 0.418651
v -0.391741 -0.017280 0.418670
v -0.390433 -0.017583 0.420333
v -0.389929 -0.020907 0.420594
v -0.389245 -0.024022 0.421501
v -0.387858 -0.026722 0.422945
v -0.385682 -0.028945 0.425253
v -0.383456 -0.030656 0.427962
v -0.380716 -0.032247 0.431467
v -0.378212 -0.032170 0.434875
v -0.377631 -0.033936 0.435747
v -0.378986 -0.022677 0.441409
v -0.378507 -0.023091 0.443113
v -0.380121 -0.022587 0.440056
v -0.380772 -0.024309 0.445112
v -0.386005 -0.027224 0.426610
v -0.383969 -0.028765 0.428812
v -0.381261 -0.030210 0.431798
v -0.387563 -0.025666 0.424995
v -0.388530 -0.023499 0.424564
v -0.389041 -0.021078 0.424356
v -0.389299 -0.018598 0.424542
v -0.381182 -0.030463 0.448952
v -0.366251 -0.028039 0.448651
v -0.365886 -0.028728 0.445359
v -0.365756 -0.029195 0.452302
v -0.363216 -0.028363 0.449093
v -0.362985 -0.028716 0.446794
v -0.363718 -0.029140 0.452327
v -0.360961 -0.029747 0.449954
v -0.361035 -0.030303 0.447331
v -0.361696 -0.030084 0.452537
v -0.383174 -0.032941 0.452148
v -0.382651 -0.034281 0.454730
v -0.384213 -0.029767 0.450209
v -0.385410 -0.025656 0.449204
v -0.381487 -0.050016 0.460710
v -0.376313 -0.030142 0.460132
v -0.375230 -0.028451 0.462396
v -0.371111 -0.028205 0.460721
v -0.372091 -0.029968 0.458075
v -0.378666 -0.029322 0.460174
v -0.378339 -0.027614 0.460816
v -0.373192 -0.031392 0.455777
v -0.368505 -0.028027 0.459768
v -0.369333 -0.029961 0.457021
v -0.361670 -0.029402 0.460701
v -0.361870 -0.029909 0.464433
v -0.362018 -0.030771 0.456589
v -0.360480 -0.029936 0.466620
v -0.361653 -0.027516 0.461473
v -0.361491 -0.028112 0.464956
v -0.362324 -0.028789 0.458633
v -0.363481 -0.027451 0.459112
v -0.359986 -0.028404 0.466807
v -0.358632 -0.029873 0.468705
v -0.358054 -0.028723 0.468698
v -0.356539 -0.029021 0.470218
v -0.357096 -0.029760 0.470328
v -0.355732 -0.030692 0.474562
v -0.356423 -0.030370 0.472918
v -0.355817 -0.029565 0.472454
v -0.355513 -0.029240 0.473693
v -0.365130 -0.033032 0.450772
v -0.362439 -0.033095 0.449913
v -0.361906 -0.037205 0.450891
v -0.364837 -0.037493 0.452042
v -0.361028 -0.037951 0.452270
v -0.364388 -0.038186 0.453506
v -0.367644 -0.036767 0.452303
v -0.368398 -0.033309 0.450707
v -0.360585 -0.033823 0.447576
v -0.360202 -0.036330 0.449644
v -0.359202 -0.036464 0.450443
v -0.369815 -0.035476 0.451849
v -0.370820 -0.033586 0.450484
v -0.370850 -0.031475 0.448965
v -0.369270 -0.030442 0.447075
v -0.365695 -0.029940 0.446425
v -0.363102 -0.029644 0.447320
v -0.361494 -0.030937 0.447183
v -0.359622 -0.033264 0.447622
v -0.384996 -0.022811 0.430667
v -0.387051 -0.021978 0.427846
v -0.387222 -0.019570 0.428244
v -0.385084 -0.020371 0.431216
v -0.383156 -0.021343 0.434554
v -0.383182 -0.023782 0.433941
v -0.379385 -0.030081 0.434819
v -0.381862 -0.024679 0.437042
v -0.381722 -0.022208 0.437819
v -0.386779 -0.024393 0.427378
v -0.384803 -0.025292 0.429994
v -0.382816 -0.026307 0.433048
v -0.381312 -0.027035 0.436153
v -0.397878 -0.033690 0.449074
v -0.399577 -0.032763 0.445902
v -0.364094 -0.036177 0.455239
v -0.359423 -0.031971 0.450444
v -0.359472 -0.034231 0.452394
v -0.361088 -0.035692 0.453898
v -0.383168 -0.045114 0.463146
v -0.378111 -0.042983 0.458517
v -0.377148 -0.042640 0.456140
v -0.364022 -0.033700 0.456677
v -0.361551 -0.033710 0.454845
v -0.360839 -0.032755 0.453828
v -0.360613 -0.031519 0.452588
v -0.366932 -0.029698 0.456377
v -0.366112 -0.027744 0.458982
v -0.364744 -0.029401 0.456024
v -0.362862 -0.029582 0.456089
v -0.384905 -0.045754 0.464473
v -0.385071 -0.045409 0.462415
v -0.378135 -0.044883 0.458367
v -0.376920 -0.044672 0.456158
v -0.379596 -0.049324 0.460576
v -0.377760 -0.046719 0.458674
v -0.376178 -0.046699 0.456462
v -0.377033 -0.049025 0.459483
v -0.374881 -0.049401 0.457267
v -0.376165 -0.051475 0.460321
v -0.374119 -0.051597 0.457886
v -0.379106 -0.051526 0.461525
v -0.373224 -0.051326 0.455863
v -0.380991 -0.052069 0.461492
v -0.373360 -0.051190 0.455114
v -0.381189 -0.052061 0.460629
v -0.380351 -0.052040 0.458758
v -0.377814 -0.051863 0.456601
v -0.374922 -0.051638 0.455323
v -0.377401 -0.053341 0.456843
v -0.379824 -0.053438 0.459174
v -0.374445 -0.053403 0.455698
v -0.380256 -0.053695 0.461348
v -0.372903 -0.053412 0.455650
v -0.372773 -0.053472 0.456351
v -0.380143 -0.053870 0.461965
v -0.378400 -0.053546 0.461923
v -0.375517 -0.053522 0.460389
v -0.373596 -0.053544 0.457986
v -0.375317 -0.055172 0.459919
v -0.373561 -0.055216 0.457705
v -0.377625 -0.055363 0.461579
v -0.372784 -0.055435 0.456397
v -0.372895 -0.055418 0.455825
v -0.379072 -0.055857 0.461660
v -0.379635 -0.055610 0.460785
v -0.379252 -0.054756 0.458876
v -0.377071 -0.054751 0.456882
v -0.374305 -0.054957 0.455959
v -0.375247 -0.056954 0.459036
v -0.373828 -0.056619 0.457552
v -0.377030 -0.056971 0.460454
v -0.373382 -0.057376 0.456593
v -0.377946 -0.058360 0.459793
v -0.378549 -0.058093 0.458921
v -0.373491 -0.057618 0.455780
v -0.374435 -0.056481 0.456059
v -0.376380 -0.056781 0.456785
v -0.378363 -0.056397 0.458207
v -0.375263 -0.058622 0.457682
v -0.375563 -0.059081 0.456592
v -0.356436 -0.031696 0.475562
v -0.357185 -0.031736 0.476595
v -0.395436 -0.024941 0.457076
v -0.396821 -0.024710 0.455791
v -0.397289 -0.024213 0.453837
v -0.397951 -0.023423 0.450909
v -0.402074 -0.021342 0.442889
v -0.404299 -0.020917 0.440809
v -0.406582 -0.020326 0.439085
v -0.408867 -0.019835 0.436942
v -0.410226 -0.019354 0.435371
v -0.410245 -0.018507 0.433001
v -0.406784 -0.017677 0.430248
v -0.403102 -0.016776 0.427538
v -0.399754 -0.015874 0.424831
v -0.396662 -0.014980 0.422098
v -0.393851 -0.014221 0.419726
v -0.379255 -0.020375 0.442019
v -0.380141 -0.020189 0.440735
v -0.391984 -0.014002 0.419346
v -0.378906 -0.020576 0.443814
v -0.392647 -0.024607 0.455983
v -0.381456 -0.021136 0.445924
v -0.385491 -0.022414 0.449637
v -0.388978 -0.023593 0.453019
v -0.390576 -0.014424 0.421098
v -0.389351 -0.015789 0.425392
v -0.387255 -0.016829 0.428996
v -0.385191 -0.017725 0.431801
v -0.381635 -0.019583 0.438386
v -0.383200 -0.018608 0.434981
v -0.400273 -0.022096 0.445352
v -0.398849 -0.022736 0.448062
v -0.371430 -0.029289 0.474918
v -0.373463 -0.029141 0.474032
v -0.370151 -0.029472 0.475962
v -0.369354 -0.029912 0.477455
v -0.361003 -0.030633 0.480738
v -0.365029 -0.031165 0.481888
v -0.367287 -0.030922 0.480977
v -0.380054 -0.028003 0.469635
v -0.378918 -0.028547 0.471678
v -0.380930 -0.027191 0.466825
v -0.361792 -0.025140 0.462329
v -0.361633 -0.026138 0.465409
v -0.360037 -0.026645 0.467264
v -0.358050 -0.027014 0.469088
v -0.356497 -0.027483 0.470603
v -0.355389 -0.028311 0.474223
v -0.355723 -0.028074 0.472775
v -0.368417 -0.030492 0.479379
v -0.363292 -0.024835 0.460876
v -0.376063 -0.029062 0.473527
v -0.374648 -0.026135 0.464025
v -0.378231 -0.025555 0.461470
v -0.381761 -0.026471 0.464023
v -0.379562 -0.025752 0.461836
v -0.370559 -0.025574 0.462556
v -0.365752 -0.024970 0.460836
v -0.368045 -0.025233 0.461623
v -0.357886 -0.029913 0.478723
v -0.356583 -0.029480 0.477623
v -0.355869 -0.029187 0.476897
v -0.355613 -0.028832 0.475786
f 1 2 3
f 1 3 4
f 5 6 7
f 5 7 8
f 9 10 11
f 9 11 12
f 13 9 12
f 13 12 14
f 12 11 15
f 12 15 16
f 14 12 16
f 14 16 17
f 18 17 16
f 18 16 19
f 20 21 18
f 20 18 19
f 19 16 15
f 19 15 22
f 23 20 19
f 23 19 22
f 22 15 24
f 22 24 25
f 23 22 25
f 23 25 26
f 25 24 27
f 25 27 28
f 26 25 28
f 26 28 29
f 30 31 32
f 30 32 33
f 34 30 33
f 34 33 35
f 27 36 37
f 27 37 38
f 28 27 38
f 28 38 39
f 29 28 39
f 29 39 40
f 41 40 39
f 41 39 42
f 42 39 38
f 42 38 43
f 43 38 37
f 43 37 44
f 44 37 45
f 44 45 46
f 46 45 47
f 46 47 48
f 49 44 46
f 49 46 50
f 51 43 44
f 51 44 49
f 52 42 43
f 52 43 51
f 53 41 42
f 53 42 52
f 54 55 56
f 54 56 57
f 58 54 57
f 58 57 59
f 60 61 58
f 60 58 59
f 59 57 62
f 59 62 63
f 62 57 56
f 62 56 64
f 65 62 64
f 65 64 66
f 67 63 62
f 67 62 65
f 68 69 70
f 68 70 71
f 2 1 69
f 2 69 68
f 72 2 68
f 72 68 71
f 73 3 2
f 73 2 72
f 6 4 3
f 6 3 73
f 74 7 6
f 74 6 73
f 71 70 75
f 71 75 76
f 74 73 72
f 74 72 77
f 77 72 71
f 77 71 76
f 76 75 78
f 76 78 79
f 80 81 82
f 80 82 83
f 83 82 7
f 83 7 74
f 84 85 80
f 84 80 83
f 83 74 77
f 83 77 84
f 84 77 76
f 84 76 79
f 79 86 85
f 79 85 84
f 87 88 67
f 87 67 65
f 87 89 90
f 87 90 88
f 91 92 47
f 91 47 45
f 91 45 37
f 91 37 36
f 24 15 11
f 24 11 93
f 93 36 27
f 93 27 24
f 94 90 89
f 94 89 95
f 96 97 10
f 96 10 98
f 93 11 10
f 93 10 97
f 91 36 93
f 91 93 97
f 98 10 9
f 98 9 99
f 96 92 91
f 96 91 97
f 100 101 55
f 100 55 54
f 102 50 46
f 102 46 48
f 103 104 105
f 103 105 106
f 107 108 104
f 107 104 103
f 109 110 107
f 109 107 103
f 111 112 110
f 111 110 109
f 100 103 106
f 100 106 101
f 113 109 103
f 113 103 100
f 54 58 113
f 54 113 100
f 58 61 114
f 58 114 113
f 113 114 111
f 113 111 109
f 115 53 52
f 115 52 116
f 116 52 51
f 116 51 117
f 117 51 49
f 117 49 118
f 118 49 50
f 118 50 119
f 119 50 102
f 119 102 120
f 121 122 112
f 121 112 111
f 121 111 114
f 121 114 123
f 124 123 114
f 124 114 61
f 124 61 60
f 124 60 125
f 126 127 115
f 126 115 116
f 128 129 130
f 128 130 131
f 130 127 126
f 130 126 131
f 132 117 118
f 132 118 133
f 132 126 116
f 132 116 117
f 134 132 133
f 134 133 135
f 135 133 118
f 135 118 119
f 134 131 126
f 134 126 132
f 136 135 119
f 136 119 120
f 137 134 135
f 137 135 136
f 137 128 131
f 137 131 134
f 108 107 138
f 108 138 139
f 138 47 92
f 138 92 139
f 107 110 140
f 107 140 138
f 140 110 112
f 140 112 141
f 140 48 47
f 140 47 138
f 141 102 48
f 141 48 140
f 112 122 142
f 112 142 141
f 142 120 102
f 142 102 141
f 143 136 120
f 143 120 142
f 144 143 142
f 144 142 122
f 144 122 121
f 144 121 145
f 146 137 136
f 146 136 143
f 147 145 121
f 147 121 123
f 144 145 147
f 144 147 148
f 146 143 144
f 146 144 148
f 149 128 137
f 149 137 146
f 150 147 123
f 150 123 124
f 148 147 150
f 148 150 151
f 149 146 148
f 149 148 151
f 152 129 128
f 152 128 149
f 150 124 125
f 150 125 153
f 151 150 153
f 151 153 154
f 152 149 151
f 152 151 154
f 155 108 139
f 155 139 156
f 139 92 96
f 139 96 156
f 156 96 98
f 156 98 157
f 158 157 98
f 158 98 99
f 159 160 158
f 159 158 161
f 162 161 158
f 162 158 99
f 162 99 9
f 162 9 13
f 163 164 165
f 163 165 166
f 167 168 163
f 167 163 166
f 169 167 166
f 169 166 170
f 171 169 170
f 171 170 172
f 173 174 171
f 173 171 172
f 175 176 173
f 175 173 172
f 177 175 172
f 177 172 170
f 170 166 165
f 170 165 177
f 178 179 105
f 178 105 104
f 104 108 155
f 104 155 178
f 180 155 156
f 180 156 157
f 157 158 160
f 157 160 180
f 181 180 160
f 181 160 182
f 183 179 178
f 183 178 181
f 181 178 155
f 181 155 180
f 184 185 94
f 184 94 95
f 186 187 188
f 186 188 189
f 184 95 186
f 184 186 189
f 190 188 187
f 190 187 159
f 191 185 184
f 191 184 192
f 8 7 82
f 8 82 193
f 193 82 81
f 193 81 194
f 195 196 168
f 195 168 167
f 197 195 167
f 197 167 169
f 198 197 169
f 198 169 171
f 199 175 177
f 199 177 200
f 200 177 165
f 200 165 201
f 202 176 175
f 202 175 199
f 203 173 176
f 203 176 202
f 204 174 173
f 204 173 203
f 204 198 171
f 204 171 174
f 200 201 205
f 200 205 206
f 199 200 206
f 199 206 207
f 202 199 207
f 202 207 208
f 203 202 208
f 203 208 209
f 204 203 209
f 204 209 210
f 211 198 204
f 211 204 210
f 197 198 211
f 197 211 212
f 195 197 212
f 195 212 213
f 214 215 194
f 214 194 81
f 216 81 80
f 216 80 85
f 217 216 85
f 217 85 86
f 217 86 79
f 217 79 78
f 218 216 217
f 218 217 219
f 219 217 220
f 219 220 221
f 222 223 219
f 222 219 221
f 32 31 222
f 32 222 224
f 221 220 225
f 221 225 226
f 224 222 221
f 224 221 226
f 225 227 228
f 225 228 229
f 214 81 216
f 214 216 218
f 230 95 89
f 230 89 231
f 232 231 89
f 232 89 87
f 232 87 65
f 232 65 66
f 233 228 227
f 233 227 234
f 235 66 64
f 235 64 236
f 237 228 233
f 237 233 238
f 238 235 236
f 238 236 237
f 238 233 231
f 238 231 232
f 238 232 66
f 238 66 235
f 239 240 70
f 239 70 69
f 239 69 1
f 239 1 241
f 242 241 1
f 242 1 4
f 242 4 6
f 242 6 5
f 243 244 239
f 243 239 241
f 245 244 243
f 245 243 246
f 243 241 242
f 243 242 247
f 247 242 5
f 247 5 248
f 248 5 8
f 248 8 249
f 250 249 8
f 250 8 193
f 251 250 193
f 251 193 194
f 252 251 194
f 252 194 215
f 253 246 243
f 253 243 247
f 254 253 247
f 254 247 248
f 254 248 249
f 254 249 255
f 256 255 249
f 256 249 250
f 257 245 246
f 257 246 258
f 258 246 253
f 258 253 259
f 260 259 253
f 260 253 254
f 260 254 255
f 260 255 256
f 261 256 250
f 261 250 251
f 262 260 256
f 262 256 261
f 263 259 260
f 263 260 262
f 264 258 259
f 264 259 263
f 265 257 258
f 265 258 264
f 233 234 266
f 233 266 267
f 230 231 233
f 230 233 267
f 240 239 244
f 240 244 268
f 257 265 267
f 257 267 266
f 227 225 220
f 227 220 269
f 269 220 217
f 269 217 78
f 269 270 234
f 269 234 227
f 269 78 75
f 269 75 270
f 270 75 70
f 270 70 240
f 270 240 268
f 270 268 271
f 271 266 234
f 271 234 270
f 245 257 266
f 245 266 271
f 271 268 244
f 271 244 245
f 272 273 274
f 272 274 275
f 276 272 275
f 276 275 277
f 278 261 251
f 278 251 252
f 273 272 279
f 273 279 280
f 280 279 205
f 280 205 281
f 282 283 215
f 282 215 214
f 284 285 286
f 284 286 287
f 288 284 287
f 288 287 289
f 288 289 283
f 288 283 282
f 282 214 218
f 282 218 290
f 218 219 223
f 218 223 290
f 291 252 215
f 291 215 283
f 292 278 252
f 292 252 291
f 293 291 283
f 293 283 289
f 294 292 291
f 294 291 293
f 295 223 222
f 295 222 31
f 295 31 30
f 295 30 296
f 296 30 34
f 296 34 297
f 274 273 298
f 274 298 299
f 300 299 298
f 300 298 301
f 300 301 296
f 300 296 297
f 288 282 290
f 288 290 302
f 302 301 298
f 302 298 303
f 303 298 273
f 303 273 280
f 280 285 284
f 280 284 303
f 303 284 288
f 303 288 302
f 302 290 223
f 302 223 295
f 302 295 296
f 302 296 301
f 304 305 287
f 304 287 286
f 293 289 287
f 293 287 305
f 305 304 306
f 305 306 307
f 305 307 308
f 305 308 293
f 309 294 293
f 309 293 308
f 310 306 304
f 310 304 311
f 311 304 286
f 311 286 312
f 312 286 285
f 312 285 313
f 314 201 165
f 314 165 164
f 281 205 201
f 281 201 314
f 285 280 281
f 285 281 313
f 315 316 308
f 315 308 307
f 317 315 307
f 317 307 306
f 306 310 318
f 306 318 317
f 319 309 308
f 319 308 316
f 320 321 309
f 320 309 319
f 322 321 320
f 322 320 323
f 324 325 322
f 324 322 323
f 326 327 325
f 326 325 324
f 328 327 326
f 328 326 329
f 318 310 328
f 318 328 329
f 326 324 330
f 326 330 331
f 329 326 331
f 329 331 332
f 330 324 323
f 330 323 333
f 334 320 319
f 334 319 335
f 333 323 320
f 333 320 334
f 335 319 316
f 335 316 336
f 336 316 315
f 336 315 337
f 337 315 317
f 337 317 338
f 338 317 318
f 338 318 339
f 339 318 329
f 339 329 332
f 340 341 338
f 340 338 339
f 342 337 338
f 342 338 341
f 343 336 337
f 343 337 342
f 344 335 336
f 344 336 343
f 345 334 335
f 345 335 344
f 346 333 334
f 346 334 345
f 347 330 333
f 347 333 346
f 331 330 347
f 331 347 348
f 332 331 348
f 332 348 349
f 340 339 332
f 340 332 349
f 350 342 341
f 350 341 351
f 343 342 350
f 343 350 352
f 344 343 352
f 344 352 353
f 354 351 341
f 354 341 340
f 354 340 349
f 354 349 355
f 355 349 348
f 355 348 356
f 356 348 347
f 356 347 357
f 357 347 346
f 357 346 358
f 358 346 345
f 358 345 359
f 345 344 353
f 345 353 359
f 360 350 351
f 360 351 361
f 352 350 360
f 352 360 362
f 363 361 351
f 363 351 354
f 353 352 362
f 353 362 364
f 365 360 361
f 365 361 366
f 367 362 360
f 367 360 365
f 368 359 353
f 368 353 364
f 364 362 367
f 364 367 369
f 369 367 365
f 369 365 370
f 371 358 359
f 371 359 368
f 371 372 357
f 371 357 358
f 373 371 368
f 373 368 374
f 374 368 364
f 374 364 369
f 374 369 370
f 374 370 375
f 376 370 365
f 376 365 366
f 376 366 361
f 376 361 363
f 377 363 354
f 377 354 355
f 378 375 370
f 378 370 376
f 373 374 375
f 373 375 379
f 379 372 371
f 379 371 373
f 380 356 357
f 380 357 372
f 380 377 355
f 380 355 356
f 381 379 375
f 381 375 378
f 378 376 363
f 378 363 377
f 378 377 380
f 378 380 381
f 380 372 379
f 380 379 381
f 382 183 181
f 382 181 182
f 182 160 159
f 182 159 187
f 262 261 278
f 262 278 383
f 384 182 187
f 384 187 186
f 385 382 182
f 385 182 384
f 386 387 385
f 386 385 384
f 384 186 95
f 384 95 230
f 384 230 267
f 384 267 386
f 267 265 387
f 267 387 386
f 387 265 264
f 387 264 388
f 263 262 383
f 263 383 389
f 388 264 263
f 388 263 389
f 390 385 387
f 390 387 388
f 383 278 292
f 383 292 391
f 389 383 391
f 389 391 392
f 390 388 389
f 390 389 392
f 393 382 385
f 393 385 390
f 394 294 309
f 394 309 321
f 394 391 292
f 394 292 294
f 392 391 394
f 392 394 395
f 393 390 392
f 393 392 395
f 396 183 382
f 396 382 393
f 394 321 322
f 394 322 397
f 395 394 397
f 395 397 398
f 396 393 395
f 396 395 398
f 179 183 396
f 179 396 399
f 400 397 322
f 400 322 325
f 398 397 400
f 398 400 401
f 399 396 398
f 399 398 401
f 105 179 399
f 105 399 402
f 403 400 325
f 403 325 327
f 401 400 403
f 401 403 404
f 402 399 401
f 402 401 404
f 106 105 402
f 106 402 405
f 403 327 328
f 403 328 406
f 406 328 310
f 406 310 311
f 404 403 406
f 404 406 407
f 405 402 404
f 405 404 407
f 408 406 311
f 408 311 312
f 101 106 405
f 101 405 409
f 407 406 408
f 407 408 410
f 409 405 407
f 409 407 410
f 411 408 312
f 411 312 313
f 411 313 281
f 411 281 314
f 236 64 56
f 236 56 412
f 226 225 229
f 226 229 413
f 414 224 226
f 414 226 413
f 414 413 415
f 414 415 416
f 32 224 414
f 32 414 417
f 417 414 416
f 417 416 418
f 33 32 417
f 33 417 419
f 420 416 415
f 420 415 421
f 422 419 417
f 422 417 418
f 422 418 416
f 422 416 420
f 35 33 419
f 35 419 423
f 424 420 421
f 424 421 425
f 426 423 419
f 426 419 422
f 426 422 420
f 426 420 424
f 427 425 421
f 427 421 428
f 429 427 428
f 429 428 430
f 429 430 431
f 429 431 432
f 433 229 228
f 433 228 237
f 412 56 55
f 412 55 434
f 435 436 431
f 435 431 430
f 196 195 213
f 196 213 437
f 437 213 436
f 437 436 435
f 438 314 164
f 438 164 163
f 439 411 314
f 439 314 438
f 438 163 168
f 438 168 196
f 438 196 437
f 438 437 440
f 439 410 408
f 439 408 411
f 55 101 409
f 55 409 434
f 434 409 410
f 434 410 439
f 439 438 440
f 439 440 441
f 440 437 435
f 440 435 441
f 442 435 430
f 442 430 428
f 428 421 415
f 428 415 442
f 415 413 229
f 415 229 433
f 433 412 434
f 433 434 443
f 237 236 412
f 237 412 433
f 443 442 415
f 443 415 433
f 443 434 439
f 443 439 441
f 443 441 435
f 443 435 442
f 436 213 212
f 436 212 444
f 445 446 447
f 445 447 448
f 446 449 450
f 446 450 451
f 451 452 447
f 451 447 446
f 453 452 451
f 453 451 454
f 455 456 453
f 455 453 454
f 454 451 450
f 454 450 457
f 457 458 455
f 457 455 454
f 449 459 460
f 449 460 461
f 450 449 461
f 450 461 462
f 463 462 461
f 463 461 464
f 463 464 465
f 463 465 466
f 457 450 462
f 457 462 467
f 463 466 468
f 463 468 469
f 467 462 463
f 467 463 469
f 458 457 467
f 458 467 470
f 471 470 467
f 471 467 469
f 471 469 468
f 471 468 472
f 473 274 299
f 473 299 474
f 475 476 473
f 475 473 474
f 277 275 274
f 277 274 473
f 477 478 277
f 477 277 473
f 476 460 477
f 476 477 473
f 476 475 465
f 476 465 464
f 464 461 460
f 464 460 476
f 479 470 471
f 479 471 480
f 471 472 481
f 471 481 480
f 458 470 479
f 458 479 482
f 483 455 458
f 483 458 482
f 484 456 455
f 484 455 483
f 485 477 460
f 485 460 459
f 445 459 449
f 445 449 446
f 444 212 211
f 444 211 486
f 487 431 436
f 487 436 444
f 210 209 488
f 210 488 489
f 486 211 210
f 486 210 489
f 488 209 208
f 488 208 490
f 432 431 487
f 432 487 491
f 492 487 444
f 492 444 486
f 493 491 487
f 493 487 492
f 490 208 207
f 490 207 494
f 478 477 485
f 478 485 495
f 495 485 496
f 495 496 497
f 276 277 478
f 276 478 495
f 497 498 276
f 497 276 495
f 206 205 279
f 206 279 498
f 498 279 272
f 498 272 276
f 494 207 206
f 494 206 498
f 497 490 494
f 497 494 498
f 496 485 459
f 496 459 445
f 445 448 499
f 445 499 496
f 496 499 491
f 496 491 493
f 496 493 492
f 496 492 497
f 497 492 486
f 497 486 489
f 497 489 488
f 497 488 490
f 189 188 190
f 189 190 500
f 501 190 159
f 501 159 161
f 502 501 161
f 502 161 162
f 502 162 13
f 502 13 503
f 504 503 13
f 504 13 14
f 192 184 189
f 192 189 500
f 500 190 501
f 500 501 505
f 506 507 191
f 506 191 192
f 506 192 500
f 506 500 505
f 505 501 502
f 505 502 508
f 509 510 507
f 509 507 506
f 509 506 505
f 509 505 508
f 511 508 502
f 511 502 503
f 512 513 510
f 512 510 509
f 512 509 508
f 512 508 511
f 514 18 21
f 514 21 515
f 516 504 14
f 516 14 17
f 516 17 18
f 516 18 514
f 517 511 503
f 517 503 504
f 517 504 516
f 517 516 518
f 519 520 513
f 519 513 512
f 521 522 520
f 521 520 519
f 519 512 511
f 519 511 517
f 519 517 518
f 519 518 521
f 518 516 514
f 518 514 521
f 521 514 515
f 521 515 522
f 523 524 525
f 523 525 526
f 526 525 527
f 526 527 528
f 529 530 531
f 529 531 532
f 532 533 534
f 532 534 529
f 528 527 533
f 528 533 532
f 531 530 535
f 531 535 536
f 537 538 534
f 537 534 533
f 527 539 537
f 527 537 533
f 525 524 540
f 525 540 541
f 525 541 539
f 525 539 527
f 542 543 530
f 542 530 529
f 529 534 544
f 529 544 542
f 530 543 545
f 530 545 546
f 530 546 547
f 530 547 535
f 534 538 548
f 534 548 544
f 544 549 543
f 544 543 542
f 549 550 545
f 549 545 543
f 550 551 546
f 550 546 545
f 535 552 553
f 535 553 536
f 552 554 555
f 552 555 553
f 556 557 558
f 556 558 559
f 559 555 554
f 559 554 556
f 557 560 561
f 557 561 558
f 551 562 547
f 551 547 546
f 562 563 564
f 562 564 547
f 547 564 552
f 547 552 535
f 564 563 565
f 564 565 566
f 564 566 554
f 564 554 552
f 567 566 565
f 567 565 568
f 556 554 566
f 556 566 567
f 567 568 569
f 567 569 570
f 567 570 557
f 567 557 556
f 571 572 573
f 571 573 574
f 574 573 575
f 574 575 576
f 574 577 578
f 574 578 571
f 579 580 577
f 579 577 574
f 576 581 579
f 576 579 574
f 572 582 583
f 572 583 573
f 573 583 584
f 573 584 575
f 538 537 585
f 538 585 586
f 586 585 587
f 586 587 588
f 586 589 590
f 586 590 538
f 588 591 589
f 588 589 586
f 582 592 593
f 582 593 583
f 583 593 594
f 583 594 595
f 583 595 596
f 583 596 584
f 593 592 597
f 593 597 598
f 593 598 599
f 593 599 594
f 577 600 601
f 577 601 578
f 580 602 600
f 580 600 577
f 600 603 604
f 600 604 601
f 602 605 603
f 602 603 600
f 603 606 607
f 603 607 604
f 605 608 606
f 605 606 603
f 606 609 610
f 606 610 607
f 608 611 609
f 608 609 606
f 609 612 613
f 609 613 610
f 611 614 612
f 611 612 609
f 615 616 613
f 615 613 612
f 614 617 615
f 614 615 612
f 604 607 610
f 604 610 618
f 618 619 601
f 618 601 604
f 610 613 616
f 610 616 618
f 619 620 578
f 619 578 601
f 620 572 571
f 620 571 578
f 620 592 582
f 620 582 572
f 616 615 598
f 616 598 597
f 616 597 619
f 616 619 618
f 617 599 598
f 617 598 615
f 597 592 620
f 597 620 619
f 621 622 595
f 621 595 594
f 594 599 623
f 594 623 621
f 622 624 596
f 622 596 595
f 599 617 625
f 599 625 623
f 617 614 626
f 617 626 625
f 614 611 627
f 614 627 626
f 628 627 611
f 628 611 608
f 608 605 629
f 608 629 628
f 605 602 630
f 605 630 629
f 580 579 631
f 580 631 632
f 632 633 602
f 632 602 580
f 581 634 631
f 581 631 579
f 524 523 635
f 524 635 636
f 636 637 540
f 636 540 524
f 584 596 638
f 584 638 639
f 639 638 640
f 639 640 641
f 642 575 584
f 642 584 639
f 641 539 642
f 641 642 639
f 638 596 624
f 638 624 643
f 638 643 644
f 638 644 640
f 585 537 539
f 585 539 641
f 641 640 587
f 641 587 585
f 645 646 590
f 645 590 589
f 589 591 647
f 589 647 645
f 590 646 648
f 590 648 649
f 590 649 548
f 590 548 538
f 539 541 650
f 539 650 642
f 642 650 576
f 642 576 575
f 541 540 651
f 541 651 650
f 650 651 581
f 650 581 576
f 651 540 637
f 651 637 652
f 651 652 634
f 651 634 581
f 653 654 655
f 653 655 656
f 657 644 654
f 657 654 653
f 653 656 658
f 653 658 659
f 653 659 660
f 653 660 657
f 661 662 655
f 661 655 654
f 644 643 661
f 644 661 654
f 663 664 665
f 663 665 666
f 658 656 664
f 658 664 663
f 663 666 667
f 663 667 668
f 668 669 658
f 668 658 663
f 664 670 671
f 664 671 665
f 656 655 670
f 656 670 664
f 672 673 671
f 672 671 670
f 670 655 674
f 670 674 672
f 675 676 665
f 675 665 671
f 673 677 675
f 673 675 671
f 676 678 666
f 676 666 665
f 666 678 679
f 666 679 667
f 680 681 676
f 680 676 675
f 677 682 680
f 677 680 675
f 681 683 678
f 681 678 676
f 678 683 684
f 678 684 679
f 683 681 685
f 683 685 686
f 683 686 687
f 683 687 684
f 681 680 688
f 681 688 685
f 680 647 591
f 680 591 688
f 682 689 647
f 682 647 680
f 689 690 645
f 689 645 647
f 691 692 693
f 691 693 694
f 689 682 692
f 689 692 691
f 694 695 696
f 694 696 691
f 691 696 690
f 691 690 689
f 692 697 698
f 692 698 693
f 682 677 697
f 682 697 692
f 697 699 700
f 697 700 698
f 677 673 699
f 677 699 697
f 699 701 702
f 699 702 700
f 673 672 701
f 673 701 699
f 703 704 702
f 703 702 701
f 672 674 703
f 672 703 701
f 696 695 705
f 696 705 706
f 696 706 707
f 696 707 708
f 708 709 690
f 708 690 696
f 710 711 712
f 710 712 713
f 714 715 711
f 714 711 710
f 710 713 716
f 710 716 717
f 717 709 714
f 717 714 710
f 694 693 718
f 694 718 719
f 694 719 720
f 694 720 695
f 693 698 721
f 693 721 718
f 698 700 722
f 698 722 721
f 700 702 723
f 700 723 722
f 702 704 724
f 702 724 723
f 655 662 725
f 655 725 674
f 726 727 662
f 726 662 661
f 661 643 624
f 661 624 726
f 728 729 704
f 728 704 703
f 674 725 728
f 674 728 703
f 704 729 730
f 704 730 724
f 623 625 731
f 623 731 732
f 732 733 621
f 732 621 623
f 625 626 734
f 625 734 731
f 602 633 735
f 602 735 630
f 632 631 736
f 632 736 737
f 632 737 738
f 632 738 633
f 634 739 736
f 634 736 631
f 662 727 740
f 662 740 725
f 741 742 729
f 741 729 728
f 725 740 741
f 725 741 728
f 742 743 730
f 742 730 729
f 722 744 745
f 722 745 721
f 723 746 744
f 723 744 722
f 747 748 745
f 747 745 744
f 746 749 747
f 746 747 744
f 721 745 750
f 721 750 718
f 748 751 750
f 748 750 745
f 752 753 718
f 752 718 750
f 750 751 754
f 750 754 752
f 755 748 747
f 755 747 756
f 756 747 749
f 756 749 757
f 758 759 755
f 758 755 756
f 757 760 758
f 757 758 756
f 753 761 719
f 753 719 718
f 719 761 762
f 719 762 720
f 755 759 763
f 755 763 764
f 755 764 751
f 755 751 748
f 765 766 763
f 765 763 759
f 758 767 765
f 758 765 759
f 768 769 764
f 768 764 763
f 763 766 770
f 763 770 768
f 769 754 751
f 769 751 764
f 771 772 773
f 771 773 774
f 774 773 775
f 774 775 776
f 777 778 771
f 777 771 774
f 774 776 779
f 774 779 777
f 761 773 772
f 761 772 762
f 753 775 773
f 753 773 761
f 780 781 766
f 780 766 765
f 767 782 780
f 767 780 765
f 766 781 783
f 766 783 770
f 781 780 784
f 781 784 785
f 781 785 786
f 781 786 783
f 782 787 784
f 782 784 780
f 785 784 788
f 785 788 789
f 785 789 790
f 785 790 786
f 784 787 791
f 784 791 788
f 758 760 792
f 758 792 767
f 793 794 757
f 793 757 749
f 746 795 793
f 746 793 749
f 794 796 760
f 794 760 757
f 760 796 797
f 760 797 792
f 798 799 794
f 798 794 793
f 793 795 800
f 793 800 798
f 799 801 796
f 799 796 794
f 796 801 802
f 796 802 797
f 795 724 803
f 795 803 800
f 746 723 724
f 746 724 795
f 724 730 804
f 724 804 803
f 730 805 806
f 730 806 804
f 743 807 805
f 743 805 730
f 808 809 806
f 808 806 805
f 807 738 808
f 807 808 805
f 806 809 810
f 806 810 811
f 806 811 812
f 806 812 813
f 813 814 804
f 813 804 806
f 815 816 800
f 815 800 803
f 803 804 814
f 803 814 815
f 816 817 798
f 816 798 800
f 817 818 799
f 817 799 798
f 818 819 801
f 818 801 799
f 819 820 802
f 819 802 801
f 767 792 821
f 767 821 782
f 792 797 822
f 792 822 821
f 797 802 823
f 797 823 822
f 802 820 824
f 802 824 823
f 825 787 782
f 825 782 821
f 821 822 826
f 821 826 825
f 827 828 810
f 827 810 809
f 809 808 829
f 809 829 827
f 812 830 831
f 812 831 813
f 832 833 831
f 832 831 830
f 834 835 836
f 834 836 837
f 837 838 839
f 837 839 834
f 835 840 841
f 835 841 836
f 842 843 820
f 842 820 819
f 819 818 844
f 819 844 842
f 843 845 824
f 843 824 820
f 840 846 847
f 840 847 841
f 847 848 823
f 847 823 824
f 845 841 847
f 845 847 824
f 822 823 848
f 822 848 826
f 787 825 849
f 787 849 791
f 825 826 850
f 825 850 849
f 826 848 851
f 826 851 850
f 848 847 846
f 848 846 851
f 808 738 852
f 808 852 829
f 652 637 853
f 652 853 854
f 652 854 739
f 652 739 634
f 637 636 855
f 637 855 853
f 636 635 856
f 636 856 855
f 738 737 857
f 738 857 852
f 807 735 633
f 807 633 738
f 737 736 707
f 737 707 857
f 739 858 707
f 739 707 736
f 854 853 859
f 854 859 860
f 860 858 739
f 860 739 854
f 853 855 861
f 853 861 859
f 855 856 862
f 855 862 861
f 863 864 827
f 863 827 829
f 852 865 863
f 852 863 829
f 864 866 828
f 864 828 827
f 867 868 869
f 867 869 870
f 871 734 868
f 871 868 867
f 867 870 872
f 867 872 873
f 873 874 871
f 873 871 867
f 627 628 869
f 627 869 868
f 627 868 734
f 627 734 626
f 628 629 630
f 628 630 869
f 870 869 630
f 870 630 735
f 807 872 870
f 807 870 735
f 769 768 875
f 769 875 876
f 769 876 877
f 769 877 754
f 768 770 878
f 768 878 875
f 770 783 879
f 770 879 878
f 783 786 880
f 783 880 879
f 786 790 881
f 786 881 880
f 882 883 880
f 882 880 881
f 883 884 879
f 883 879 880
f 884 885 878
f 884 878 879
f 885 886 875
f 885 875 878
f 886 887 876
f 886 876 875
f 887 888 877
f 887 877 876
f 877 888 889
f 877 889 890
f 877 890 752
f 877 752 754
f 891 892 772
f 891 772 771
f 778 893 891
f 778 891 771
f 772 892 894
f 772 894 762
f 887 886 895
f 887 895 896
f 896 897 888
f 896 888 887
f 886 885 898
f 886 898 895
f 885 884 899
f 885 899 898
f 884 883 900
f 884 900 899
f 883 882 901
f 883 901 900
f 695 720 902
f 695 902 705
f 711 903 904
f 711 904 712
f 715 905 903
f 715 903 711
f 903 906 907
f 903 907 904
f 905 908 906
f 905 906 903
f 909 910 907
f 909 907 906
f 908 911 909
f 908 909 906
f 894 902 720
f 894 720 762
f 706 705 912
f 706 912 913
f 706 913 857
f 706 857 707
f 705 902 914
f 705 914 912
f 902 894 915
f 902 915 914
f 857 913 865
f 857 865 852
f 863 865 913
f 863 913 912
f 912 914 864
f 912 864 863
f 915 866 864
f 915 864 914
f 669 916 659
f 669 659 658
f 917 918 919
f 917 919 920
f 921 922 918
f 921 918 917
f 917 920 923
f 917 923 858
f 917 858 860
f 917 860 921
f 920 919 924
f 920 924 925
f 925 714 923
f 925 923 920
f 926 927 562
f 926 562 551
f 551 550 928
f 551 928 926
f 927 929 563
f 927 563 562
f 930 931 927
f 930 927 926
f 926 932 933
f 926 933 930
f 931 934 929
f 931 929 927
f 929 935 565
f 929 565 563
f 934 936 935
f 934 935 929
f 936 937 938
f 936 938 935
f 939 940 941
f 939 941 942
f 940 938 937
f 940 937 941
f 565 935 938
f 565 938 568
f 943 944 945
f 943 945 946
f 946 945 947
f 946 947 948
f 946 949 950
f 946 950 943
f 948 648 949
f 948 949 946
f 944 951 952
f 944 952 945
f 945 952 953
f 945 953 947
f 949 954 955
f 949 955 950
f 648 646 954
f 648 954 949
f 646 716 955
f 646 955 954
f 955 956 957
f 955 957 950
f 716 713 956
f 716 956 955
f 713 712 957
f 713 957 956
f 957 958 943
f 957 943 950
f 712 904 958
f 712 958 957
f 958 959 944
f 958 944 943
f 904 907 959
f 904 959 958
f 959 960 951
f 959 951 944
f 907 910 960
f 907 960 959
f 910 961 951
f 910 951 960
f 961 953 952
f 961 952 951
f 962 963 964
f 962 964 965
f 966 967 962
f 966 962 965
f 963 900 901
f 963 901 964
f 897 968 889
f 897 889 888
f 893 778 969
f 893 969 970
f 889 776 775
f 889 775 890
f 968 779 776
f 968 776 889
f 753 752 890
f 753 890 775
f 963 971 899
f 963 899 900
f 971 895 898
f 971 898 899
f 971 972 896
f 971 896 895
f 972 973 897
f 972 897 896
f 973 974 968
f 973 968 897
f 974 777 779
f 974 779 968
f 974 969 778
f 974 778 777
f 963 962 972
f 963 972 971
f 967 973 972
f 967 972 962
f 973 967 969
f 973 969 974
f 967 966 970
f 967 970 969
f 814 975 816
f 814 816 815
f 975 976 817
f 975 817 816
f 976 844 818
f 976 818 817
f 648 948 977
f 648 977 649
f 645 690 716
f 645 716 646
f 716 690 709
f 716 709 717
f 909 978 961
f 909 961 910
f 978 979 953
f 978 953 961
f 979 980 947
f 979 947 953
f 980 977 948
f 980 948 947
f 813 831 975
f 813 975 814
f 833 976 975
f 833 975 831
f 838 833 832
f 838 832 839
f 733 981 622
f 733 622 621
f 981 726 624
f 981 624 622
f 982 983 588
f 982 588 587
f 640 644 982
f 640 982 587
f 983 688 591
f 983 591 588
f 649 977 984
f 649 984 548
f 707 858 923
f 707 923 708
f 977 980 985
f 977 985 984
f 980 979 986
f 980 986 985
f 979 978 987
f 979 987 986
f 978 909 911
f 978 911 987
f 988 989 933
f 988 933 990
f 990 933 932
f 990 932 991
f 991 908 905
f 991 905 990
f 990 905 715
f 990 715 988
f 550 549 984
f 550 984 928
f 548 984 549
f 548 549 544
f 984 985 986
f 984 986 928
f 986 987 911
f 986 911 928
f 911 908 991
f 911 991 928
f 715 714 925
f 715 925 988
f 709 708 923
f 709 923 714
f 743 742 872
f 743 872 807
f 871 992 731
f 871 731 734
f 992 733 732
f 992 732 731
f 992 993 981
f 992 981 733
f 993 727 726
f 993 726 981
f 874 993 992
f 874 992 871
f 742 741 873
f 742 873 872
f 741 740 874
f 741 874 873
f 740 727 993
f 740 993 874
f 994 995 983
f 994 983 982
f 982 644 657
f 982 657 994
f 995 685 688
f 995 688 983
f 916 996 660
f 916 660 659
f 997 998 995
f 997 995 994
f 999 1000 998
f 999 998 997
f 994 657 660
f 994 660 997
f 997 660 996
f 997 996 999
f 998 686 685
f 998 685 995
f 1000 687 686
f 1000 686 998
f 1001 1002 1000
f 1001 1000 999
f 999 996 1003
f 999 1003 1001
f 1002 1004 687
f 1002 687 1000
f 996 916 1005
f 996 1005 1003
f 1004 1006 684
f 1004 684 687
f 916 669 1007
f 916 1007 1005
f 669 668 1008
f 669 1008 1007
f 668 667 1009
f 668 1009 1008
f 667 679 1010
f 667 1010 1009
f 679 684 1006
f 679 1006 1010
f 1011 1012 1008
f 1011 1008 1009
f 1009 1010 1013
f 1009 1013 1011
f 1012 1014 1007
f 1012 1007 1008
f 1010 1006 1015
f 1010 1015 1013
f 1006 1004 1016
f 1006 1016 1015
f 1014 1017 1005
f 1014 1005 1007
f 1017 1018 1003
f 1017 1003 1005
f 1001 1003 1018
f 1001 1018 1019
f 1019 1020 1002
f 1019 1002 1001
f 1020 1016 1004
f 1020 1004 1002
f 1021 1022 1020
f 1021 1020 1019
f 1019 1018 1023
f 1019 1023 1021
f 1022 1024 1016
f 1022 1016 1020
f 1024 1025 1015
f 1024 1015 1016
f 1018 1017 1026
f 1018 1026 1023
f 1017 1014 1027
f 1017 1027 1026
f 1014 1012 1028
f 1014 1028 1027
f 1012 1011 1029
f 1012 1029 1028
f 1011 1013 1030
f 1011 1030 1029
f 1013 1015 1025
f 1013 1025 1030
f 1031 1032 1022
f 1031 1022 1021
f 1021 1023 1033
f 1021 1033 1031
f 1032 1034 1024
f 1032 1024 1022
f 1023 1026 1035
f 1023 1035 1033
f 1026 1027 1036
f 1026 1036 1035
f 1034 1037 1025
f 1034 1025 1024
f 1037 1038 1030
f 1037 1030 1025
f 1038 1039 1029
f 1038 1029 1030
f 1039 1040 1028
f 1039 1028 1029
f 1040 1036 1027
f 1040 1027 1028
f 1041 1034 1032
f 1041 1032 1031
f 1031 1033 1035
f 1031 1035 1041
f 1036 1042 1041
f 1036 1041 1035
f 1042 1037 1034
f 1042 1034 1041
f 1036 1040 1039
f 1036 1039 1042
f 1042 1039 1038
f 1042 1038 1037
f 859 861 921
f 859 921 860
f 861 862 922
f 861 922 921
f 925 924 989
f 925 989 988
f 938 940 569
f 938 569 568
f 1043 1044 570
f 1043 570 569
f 940 939 1043
f 940 1043 569
f 570 1044 560
f 570 560 557
f 926 928 991
f 926 991 932
f 833 838 844
f 833 844 976
f 838 837 842
f 838 842 844
f 837 836 843
f 837 843 842
f 843 836 841
f 843 841 845
f 1045 90 94
f 1045 94 1046
f 1047 812 811
f 1047 811 1046
f 1046 94 185
f 1046 185 1047
f 1048 830 812
f 1048 812 1047
f 835 834 1049
f 835 1049 1050
f 1050 520 522
f 1050 522 1051
f 840 835 1050
f 840 1050 1051
f 1051 522 515
f 1051 515 1052
f 846 840 1051
f 846 1051 1052
f 1052 515 21
f 1052 21 1053
f 1053 851 846
f 1053 846 1052
f 1053 21 20
f 1053 20 1054
f 1054 850 851
f 1054 851 1053
f 1054 20 23
f 1054 23 1055
f 849 850 1054
f 849 1054 1055
f 1055 23 26
f 1055 26 1056
f 791 849 1055
f 791 1055 1056
f 1056 26 29
f 1056 29 1057
f 788 791 1056
f 788 1056 1057
f 1046 811 810
f 1046 810 1045
f 1057 29 40
f 1057 40 1058
f 789 788 1057
f 789 1057 1058
f 1058 40 41
f 1058 41 1059
f 790 789 1058
f 790 1058 1059
f 1060 891 893
f 1060 893 1061
f 1059 41 53
f 1059 53 1062
f 881 790 1059
f 881 1059 1062
f 1060 125 60
f 1060 60 1063
f 1063 892 891
f 1063 891 1060
f 1064 88 90
f 1064 90 1045
f 1064 1045 810
f 1064 810 828
f 1063 60 59
f 1063 59 1065
f 894 892 1063
f 894 1063 1065
f 1066 63 67
f 1066 67 1067
f 1067 67 88
f 1067 88 1064
f 1067 1064 828
f 1067 828 866
f 1067 866 915
f 1067 915 1066
f 1065 59 63
f 1065 63 1066
f 915 894 1065
f 915 1065 1066
f 1062 53 115
f 1062 115 1068
f 882 881 1062
f 882 1062 1068
f 1069 127 130
f 1069 130 1070
f 1070 964 901
f 1070 901 1069
f 1068 115 127
f 1068 127 1069
f 901 882 1068
f 901 1068 1069
f 1070 130 129
f 1070 129 1071
f 1071 965 964
f 1071 964 1070
f 1061 153 125
f 1061 125 1060
f 1061 893 970
f 1061 970 1072
f 1071 129 152
f 1071 152 1073
f 1073 152 154
f 1073 154 1072
f 966 965 1071
f 966 1071 1073
f 1072 970 966
f 1072 966 1073
f 1072 154 153
f 1072 153 1061
f 1049 513 520
f 1049 520 1050
f 1049 834 839
f 1049 839 1074
f 1047 185 191
f 1047 191 1048
f 1075 832 830
f 1075 830 1048
f 1074 510 513
f 1074 513 1049
f 1075 507 510
f 1075 510 1074
f 1074 839 832
f 1074 832 1075
f 1048 191 507
f 1048 507 1075
f 1076 474 299
f 1076 299 1077
f 1076 531 536
f 1076 536 1078
f 1078 475 474
f 1078 474 1076
f 1078 536 553
f 1078 553 1079
f 1080 1081 558
f 1080 558 561
f 1081 1082 559
f 1081 559 558
f 1083 523 526
f 1083 526 1084
f 1083 34 35
f 1083 35 1085
f 635 523 1083
f 635 1083 1085
f 931 930 1086
f 931 1086 1087
f 1087 448 447
f 1087 447 1088
f 934 931 1087
f 934 1087 1088
f 1088 447 452
f 1088 452 1089
f 936 934 1088
f 936 1088 1089
f 1089 452 453
f 1089 453 1090
f 937 936 1089
f 937 1089 1090
f 1091 942 941
f 1091 941 1092
f 1090 453 456
f 1090 456 1092
f 1092 941 937
f 1092 937 1090
f 1079 465 475
f 1079 475 1078
f 1079 553 555
f 1079 555 1093
f 1081 472 468
f 1081 468 1082
f 1082 468 466
f 1082 466 1093
f 1093 555 559
f 1093 559 1082
f 1093 466 465
f 1093 465 1079
f 1086 499 448
f 1086 448 1087
f 1086 930 933
f 1086 933 1094
f 1084 297 34
f 1084 34 1083
f 1084 526 528
f 1084 528 1095
f 1077 299 300
f 1077 300 1095
f 1077 532 531
f 1077 531 1076
f 1095 528 532
f 1095 532 1077
f 1095 300 297
f 1095 297 1084
f 1096 918 922
f 1096 922 1097
f 1085 35 423
f 1085 423 1098
f 856 635 1085
f 856 1085 1098
f 1097 424 425
f 1097 425 1096
f 1099 426 424
f 1099 424 1097
f 1097 922 862
f 1097 862 1099
f 1098 423 426
f 1098 426 1099
f 862 856 1098
f 862 1098 1099
f 1096 425 427
f 1096 427 1100
f 919 918 1096
f 919 1096 1100
f 1094 491 499
f 1094 499 1086
f 1094 933 989
f 1094 989 1101
f 1100 427 429
f 1100 429 1102
f 1102 429 432
f 1102 432 1101
f 924 919 1100
f 924 1100 1102
f 1101 989 924
f 1101 924 1102
f 1101 432 491
f 1101 491 1094
f 1080 481 472
f 1080 472 1081
f 1103 480 481
f 1103 481 1080
f 1080 561 560
f 1080 560 1103
f 1104 479 480
f 1104 480 1103
f 1103 560 1044
f 1103 1044 1104
f 1105 482 479
f 1105 479 1104
f 1104 1044 1043
f 1104 1043 1105
f 1092 456 484
f 1092 484 1091
f 1091 484 483
f 1091 483 1106
f 1106 939 942
f 1106 942 1091
f 1106 483 482
f 1106 482 1105
f 1105 1043 939
f 1105 939 1106
