# L2 rest
v -0.006700 -0.110073 -0.040296
v -0.006414 -0.110861 -0.040633
v -0.008051 -0.113292 -0.042439
v -0.008706 -0.113291 -0.042602
v -0.011367 -0.116838 -0.044224
v -0.010211 -0.116886 -0.044587
v -0.010505 -0.120138 -0.045496
v -0.011759 -0.120294 -0.045253
v -0.009716 -0.092006 -0.010736
v -0.009118 -0.093631 -0.011331
v -0.006808 -0.091509 -0.007577
v -0.007217 -0.089784 -0.006832
v -0.008493 -0.091133 -0.011117
v -0.006037 -0.089121 -0.007574
v -0.003476 -0.089843 -0.004814
v -0.003666 -0.088242 -0.004097
v -0.002967 -0.087682 -0.004941
v 0.000400 -0.086768 -0.003707
v 0.000298 -0.087240 -0.002652
v 0.004337 -0.086631 -0.002119
v 0.004448 -0.086160 -0.003427
v 0.000407 -0.088683 -0.003184
v 0.004349 -0.088015 -0.002526
v -0.003417 -0.091848 -0.005294
v 0.000445 -0.090502 -0.003648
v 0.004400 -0.089710 -0.002960
v -0.003376 -0.094084 -0.005267
v 0.000502 -0.092573 -0.003606
v 0.004444 -0.091651 -0.002893
v 0.003069 -0.118543 -0.042797
v 0.001948 -0.117295 -0.041670
v 0.002985 -0.115005 -0.040343
v 0.004086 -0.115988 -0.041187
v 0.004537 -0.118855 -0.043578
v 0.005459 -0.116561 -0.041791
v -0.006691 -0.096080 -0.008168
v -0.006601 -0.098656 -0.008008
v -0.003242 -0.096583 -0.004889
v 0.000632 -0.094961 -0.003227
v 0.004511 -0.093939 -0.002488
v 0.004741 -0.096496 -0.002277
v 0.000914 -0.097493 -0.003095
v -0.002940 -0.099087 -0.004654
v -0.006430 -0.101288 -0.007881
v -0.008913 -0.101174 -0.012171
v -0.008929 -0.104175 -0.012162
v -0.010320 -0.104127 -0.016555
v -0.010276 -0.107293 -0.016603
v -0.005433 -0.101831 -0.008782
v -0.007857 -0.104776 -0.012786
v -0.002249 -0.099752 -0.005668
v 0.001426 -0.098387 -0.004091
v 0.005055 -0.097583 -0.003030
v -0.002608 -0.110987 -0.031448
v -0.004591 -0.112269 -0.032885
v -0.003273 -0.110343 -0.032618
v -0.000883 -0.108761 -0.031080
v 0.001057 -0.111616 -0.030997
v 0.004302 -0.108918 -0.030445
v 0.004890 -0.110263 -0.029881
v 0.001782 -0.112054 -0.030168
v 0.000317 -0.106113 -0.030413
v 0.004377 -0.104310 -0.029594
v -0.002525 -0.108598 -0.032141
v 0.000470 -0.103874 -0.029993
v -0.002156 -0.106527 -0.031649
v 0.004308 -0.102355 -0.029495
v -0.004736 -0.108774 -0.038790
v -0.003964 -0.106989 -0.037810
v -0.002590 -0.106281 -0.036620
v -0.004096 -0.108744 -0.038269
v -0.006513 -0.112180 -0.040884
v -0.008597 -0.115692 -0.043527
v -0.008729 -0.118122 -0.044272
v -0.002221 -0.107273 -0.036570
v -0.003498 -0.109499 -0.038301
v -0.006096 -0.113765 -0.041289
v -0.001948 -0.110043 -0.037950
v -0.003225 -0.111639 -0.039122
v -0.007374 -0.118874 -0.043373
v -0.008221 -0.120344 -0.043675
v -0.009618 -0.121245 -0.045048
v -0.008184 -0.118960 -0.044031
v -0.005869 -0.115179 -0.041517
v -0.005482 -0.116295 -0.041635
v -0.003560 -0.113805 -0.040196
v 0.000165 -0.102009 -0.029697
v 0.004217 -0.100043 -0.028704
v -0.000699 -0.100248 -0.028778
v 0.003820 -0.098100 -0.027553
v -0.008983 -0.098440 -0.012060
v -0.010215 -0.101032 -0.016281
v -0.006704 -0.093716 -0.008092
v 0.003325 -0.096555 -0.025868
v -0.002012 -0.098935 -0.027385
v -0.010065 -0.098451 -0.016022
v -0.008974 -0.096002 -0.011853
v -0.010146 -0.096022 -0.015599
v -0.010614 -0.094299 -0.015137
v -0.004626 -0.112253 -0.031355
v -0.006303 -0.113076 -0.032542
v -0.009272 -0.107708 -0.016837
v -0.007202 -0.112148 -0.030396
v -0.009866 -0.109880 -0.029020
v -0.010846 -0.111685 -0.030819
v -0.008488 -0.112919 -0.031659
v -0.010274 -0.111229 -0.026181
v -0.010699 -0.107804 -0.025437
v -0.006578 -0.113726 -0.028740
v -0.009633 -0.113950 -0.026175
v -0.005659 -0.114052 -0.027900
v -0.008501 -0.114009 -0.025689
v -0.002313 -0.112982 -0.030498
v -0.001611 -0.113221 -0.029600
v 0.005217 -0.097368 -0.005040
v 0.002244 -0.097810 -0.006233
v -0.000927 -0.098873 -0.008031
v -0.003815 -0.100882 -0.010617
v -0.005997 -0.103654 -0.013859
v -0.007315 -0.106352 -0.017145
v -0.004404 -0.112794 -0.027119
v -0.007031 -0.112585 -0.025028
v -0.001183 -0.111977 -0.028553
v 0.001827 -0.111149 -0.029200
v 0.004923 -0.109878 -0.029006
v 0.002874 -0.096089 -0.010054
v 0.005477 -0.095229 -0.009467
v 0.002164 -0.097893 -0.018019
v 0.005368 -0.095397 -0.018298
v 0.005429 -0.094331 -0.014411
v 0.002492 -0.096219 -0.014514
v 0.000212 -0.097527 -0.011029
v -0.002206 -0.099534 -0.012346
v -0.000386 -0.098445 -0.014559
v -0.003768 -0.101580 -0.014614
v -0.005055 -0.104167 -0.017430
v -0.000891 -0.100323 -0.017722
v -0.011212 -0.107808 -0.021045
v -0.010757 -0.104141 -0.020640
v -0.011153 -0.111070 -0.021274
v -0.009806 -0.111107 -0.021293
v -0.008149 -0.109887 -0.021237
v -0.005911 -0.107810 -0.021188
v -0.004863 -0.109980 -0.024475
v -0.003162 -0.110654 -0.026394
v -0.001210 -0.103102 -0.021225
v -0.000655 -0.109271 -0.027143
v -0.001058 -0.105955 -0.024461
v 0.001982 -0.100884 -0.021635
v 0.001882 -0.108324 -0.027530
v 0.001857 -0.104341 -0.024815
v 0.005089 -0.099421 -0.021998
v 0.004779 -0.108126 -0.027770
v 0.004851 -0.103906 -0.025332
v -0.010914 -0.104694 -0.024696
v -0.010646 -0.101207 -0.020210
v -0.011357 -0.099137 -0.019899
v -0.011765 -0.097162 -0.019403
v -0.010028 -0.097706 -0.022321
v -0.012047 -0.099756 -0.023210
v -0.010121 -0.095681 -0.019037
v -0.009480 -0.093286 -0.015144
v -0.004449 -0.125240 -0.037927
v -0.005943 -0.127279 -0.039283
v -0.007274 -0.130966 -0.040863
v -0.004212 -0.128560 -0.038999
v -0.002403 -0.126359 -0.037022
v -0.002787 -0.124778 -0.037148
v -0.002167 -0.129324 -0.037356
v -0.004189 -0.133185 -0.040322
v -0.002367 -0.133203 -0.038006
v -0.004701 -0.137248 -0.040964
v -0.006141 -0.140437 -0.040754
v -0.003426 -0.137515 -0.039043
v -0.008595 -0.139456 -0.042425
v -0.008139 -0.141697 -0.042129
v -0.008436 -0.135619 -0.042132
v -0.010820 -0.107550 -0.028172
v -0.011676 -0.109653 -0.030216
v -0.011909 -0.102360 -0.024027
v -0.011436 -0.105213 -0.027493
v -0.010946 -0.101735 -0.026432
v -0.011980 -0.107666 -0.029788
v -0.001926 -0.097263 -0.025352
v 0.003057 -0.095483 -0.024379
v -0.006349 -0.099898 -0.026949
v -0.008824 -0.099140 -0.024927
v -0.007339 -0.097787 -0.023874
v -0.005264 -0.098016 -0.025075
v -0.008035 -0.096443 -0.021578
v 0.003156 -0.093859 -0.022117
v -0.001550 -0.095094 -0.022457
v -0.010908 -0.121475 -0.044627
v -0.009494 -0.120064 -0.042996
v -0.001763 -0.125387 -0.036489
v -0.002781 -0.123495 -0.036676
v -0.001357 -0.128670 -0.036671
v -0.001543 -0.133148 -0.037629
v -0.009347 -0.141527 -0.043829
v -0.009084 -0.136852 -0.043395
v -0.007520 -0.131407 -0.041828
v -0.008234 -0.143556 -0.043003
v -0.005756 -0.141865 -0.041119
v -0.002839 -0.138358 -0.039214
v -0.005836 -0.131092 -0.042462
v -0.007465 -0.136927 -0.043811
v -0.007676 -0.141177 -0.044118
v -0.006527 -0.143080 -0.043477
v -0.004524 -0.141927 -0.041994
v -0.002222 -0.138682 -0.040415
v -0.000762 -0.133602 -0.038731
v 0.000446 -0.129555 -0.038186
v 0.000062 -0.126128 -0.037779
v -0.006322 -0.117955 -0.041535
v -0.007689 -0.117177 -0.040639
v -0.004863 -0.117190 -0.041883
v -0.002316 -0.113813 -0.040150
v -0.003914 -0.117133 -0.041393
v -0.001671 -0.115759 -0.040955
v -0.000199 -0.111986 -0.038943
v 0.000424 -0.113919 -0.039823
v 0.001136 -0.115735 -0.040688
v -0.000851 -0.117776 -0.041764
v 0.002167 -0.114038 -0.039672
v 0.000336 -0.111188 -0.037952
v 0.001284 -0.112789 -0.038884
v -0.000926 -0.109318 -0.036733
v -0.001724 -0.110068 -0.036090
v -0.000637 -0.112200 -0.037321
v -0.004872 -0.103518 -0.030593
v -0.003390 -0.103878 -0.030958
v -0.002416 -0.104918 -0.031411
v -0.003347 -0.107376 -0.034203
v -0.002781 -0.107136 -0.035037
v -0.003006 -0.108631 -0.033276
v -0.003268 -0.110961 -0.034362
v -0.002603 -0.111440 -0.035637
v -0.003073 -0.107939 -0.033768
v -0.005184 -0.106783 -0.037229
v -0.003139 -0.105595 -0.035756
v -0.007879 -0.109376 -0.039497
v -0.009963 -0.112760 -0.042014
v -0.009118 -0.109685 -0.038579
v -0.006569 -0.107492 -0.036979
v -0.007701 -0.107729 -0.036191
v -0.010146 -0.109776 -0.037459
v -0.011205 -0.112635 -0.040531
v -0.012528 -0.115866 -0.042278
v -0.013206 -0.118589 -0.043160
v -0.012585 -0.119591 -0.042688
v -0.010970 -0.118463 -0.041399
v -0.008914 -0.115813 -0.039400
v -0.012098 -0.112472 -0.039103
v -0.013132 -0.115008 -0.040500
v -0.013483 -0.116978 -0.041432
v -0.013139 -0.117380 -0.040933
v -0.008148 -0.107398 -0.034889
v -0.010330 -0.109507 -0.036153
v -0.011627 -0.112011 -0.037750
v -0.012606 -0.114797 -0.039383
v -0.011357 -0.116304 -0.039797
v -0.010705 -0.113615 -0.038227
v -0.010543 -0.111018 -0.036361
v -0.010408 -0.108768 -0.034677
v -0.008446 -0.106717 -0.033376
v -0.004994 -0.106051 -0.033982
v -0.005414 -0.105669 -0.032713
v -0.004494 -0.106028 -0.035675
v -0.001028 -0.108987 -0.037109
v -0.002360 -0.106229 -0.035359
v -0.004615 -0.106004 -0.034898
v -0.000603 -0.129567 -0.044128
v 0.000124 -0.126690 -0.044027
v 0.001738 -0.129831 -0.046895
v 0.000726 -0.130720 -0.045851
v -0.001003 -0.133569 -0.045326
v 0.000864 -0.132699 -0.047034
v -0.009625 -0.114273 -0.038218
v -0.002734 -0.129709 -0.043037
v -0.003125 -0.124234 -0.041367
v -0.006227 -0.125636 -0.040514
v -0.004971 -0.116413 -0.039679
v -0.007172 -0.116074 -0.039046
v -0.006015 -0.120708 -0.040817
v -0.006295 -0.121037 -0.039589
v -0.008859 -0.119264 -0.038385
v -0.009090 -0.120583 -0.040302
v -0.005427 -0.118850 -0.040470
v -0.008505 -0.118712 -0.039946
v -0.002727 -0.117714 -0.041118
v -0.009227 -0.115450 -0.038288
v -0.010265 -0.113859 -0.037195
v -0.011640 -0.118084 -0.039271
v -0.012848 -0.115323 -0.037668
v 0.000397 -0.119461 -0.042772
v 0.002172 -0.120778 -0.044116
v 0.004088 -0.121610 -0.045474
v 0.000827 -0.125043 -0.044439
v 0.003785 -0.127861 -0.048360
v 0.003875 -0.124856 -0.047037
v 0.001652 -0.123032 -0.044414
v -0.001286 -0.120012 -0.041869
v -0.002123 -0.121969 -0.041776
v -0.011955 -0.120147 -0.038447
v -0.011692 -0.121365 -0.040360
v -0.014367 -0.121648 -0.038749
v -0.014019 -0.121746 -0.040027
v -0.014263 -0.119243 -0.039426
v -0.015155 -0.117011 -0.038220
v -0.014695 -0.122008 -0.037906
v -0.012210 -0.120466 -0.037585
v -0.009911 -0.120956 -0.038284
v -0.007946 -0.122722 -0.039364
v -0.006245 -0.126114 -0.039461
v -0.016649 -0.122723 -0.040053
v -0.016811 -0.121017 -0.039982
v -0.017173 -0.123327 -0.039017
v -0.017464 -0.124457 -0.038744
v -0.017371 -0.119228 -0.039206
v -0.017940 -0.118613 -0.038207
v -0.015556 -0.115865 -0.036917
v -0.016626 -0.116524 -0.036121
v -0.018773 -0.119351 -0.037648
v -0.018822 -0.120698 -0.037494
v -0.016865 -0.118007 -0.035955
v -0.018472 -0.122480 -0.037767
v -0.016304 -0.119567 -0.036186
v -0.015318 -0.121003 -0.036740
v -0.018073 -0.123971 -0.038029
v -0.021265 -0.123104 -0.038555
v -0.021019 -0.125049 -0.038790
v -0.020898 -0.126851 -0.039233
v -0.021387 -0.121631 -0.038719
v -0.021088 -0.121108 -0.039472
v -0.020627 -0.121716 -0.040492
v -0.020430 -0.123465 -0.040976
v -0.020372 -0.125192 -0.040983
v -0.020531 -0.126622 -0.040690
v -0.020555 -0.127581 -0.040108
v -0.023386 -0.130092 -0.041121
v -0.023192 -0.128904 -0.041648
v -0.023057 -0.126966 -0.041687
v -0.023158 -0.125293 -0.041958
v -0.023404 -0.123691 -0.041512
v -0.023652 -0.123140 -0.040513
v -0.023775 -0.123615 -0.039595
v -0.023560 -0.125055 -0.039331
v -0.023419 -0.127073 -0.039574
v -0.023517 -0.129500 -0.040229
v -0.025346 -0.128578 -0.042166
v -0.025541 -0.130638 -0.042082
v -0.025501 -0.127240 -0.042820
v -0.025573 -0.125438 -0.042188
v -0.025892 -0.131700 -0.041695
v -0.025949 -0.131204 -0.040854
v -0.025579 -0.128878 -0.040183
v -0.025429 -0.126601 -0.039915
v -0.025642 -0.125135 -0.040176
v -0.025678 -0.124793 -0.041207
v -0.027699 -0.130400 -0.042723
v -0.027868 -0.132547 -0.042565
v -0.027726 -0.128780 -0.043055
v -0.028181 -0.133291 -0.042015
v -0.027866 -0.127238 -0.042445
v -0.030269 -0.131962 -0.042718
v -0.029941 -0.133634 -0.042680
v -0.029693 -0.130087 -0.042854
v -0.027812 -0.126416 -0.041562
v -0.030641 -0.129578 -0.042443
v -0.031786 -0.132770 -0.042415
v -0.027469 -0.126464 -0.040424
v -0.027337 -0.127980 -0.040227
v -0.029618 -0.128055 -0.040475
v -0.030479 -0.128392 -0.041408
v -0.031997 -0.132084 -0.041515
v -0.030703 -0.134302 -0.042284
v -0.028195 -0.132746 -0.041233
v -0.030748 -0.133394 -0.041199
v -0.030262 -0.129987 -0.040416
v -0.027614 -0.130255 -0.040395
v -0.029682 -0.131393 -0.040479
v -0.011232 -0.105826 -0.029571
v -0.009392 -0.112360 -0.036958
v -0.008215 -0.102645 -0.028827
v -0.009745 -0.105284 -0.030493
v -0.007215 -0.104828 -0.031290
v -0.008927 -0.105993 -0.031978
v -0.010723 -0.108053 -0.033366
v -0.010311 -0.110252 -0.035208
v -0.011350 -0.107759 -0.032277
v -0.010450 -0.111649 -0.035553
v -0.011302 -0.109687 -0.033768
v -0.012288 -0.108503 -0.031632
v -0.012927 -0.112683 -0.035453
v -0.012679 -0.110530 -0.033328
v -0.013079 -0.109703 -0.031412
v -0.014978 -0.113657 -0.034311
v -0.013989 -0.111607 -0.032843
v -0.013009 -0.111512 -0.031597
v -0.015417 -0.115278 -0.034124
v -0.014242 -0.113304 -0.032786
v -0.012190 -0.113200 -0.031945
v -0.014701 -0.116820 -0.034454
v -0.013541 -0.114966 -0.033158
v -0.010245 -0.114948 -0.032842
v -0.012508 -0.118941 -0.035862
v -0.011594 -0.116888 -0.034095
v -0.009708 -0.120466 -0.037092
v -0.007756 -0.116242 -0.034230
v -0.009041 -0.118634 -0.035395
v -0.007624 -0.122443 -0.038325
v -0.003692 -0.113597 -0.035176
v 0.000490 -0.113387 -0.038216
v 0.001748 -0.113932 -0.038665
v -0.000305 -0.118680 -0.039085
v 0.001421 -0.116240 -0.038941
v 0.002678 -0.114080 -0.038960
v 0.002153 -0.115608 -0.039055
v 0.003867 -0.113872 -0.039005
v 0.002612 -0.117550 -0.039477
v 0.001624 -0.119810 -0.040510
v 0.003440 -0.115867 -0.039296
v 0.005258 -0.113730 -0.039005
v 0.004785 -0.117842 -0.039834
v 0.004032 -0.121651 -0.042088
v 0.004984 -0.116030 -0.039402
v 0.003592 -0.126474 -0.043118
v 0.001262 -0.124516 -0.041315
v 0.003323 -0.129742 -0.043743
v 0.000788 -0.128014 -0.041945
v 0.000682 -0.131317 -0.042622
v 0.003223 -0.132488 -0.044307
v -0.002098 -0.116182 -0.037406
v -0.005108 -0.117401 -0.035826
v -0.001112 -0.125835 -0.039577
v -0.000524 -0.128749 -0.040064
v -0.000947 -0.124035 -0.037772
v -0.004552 -0.123325 -0.037504
v -0.006400 -0.120452 -0.036952
v -0.002148 -0.123000 -0.037675
v -0.002420 -0.122812 -0.038199
v -0.000639 -0.122555 -0.039615
v -0.002643 -0.120131 -0.037941
v 0.000050 -0.131753 -0.040566
v 0.002119 -0.139750 -0.049283
v 0.002515 -0.142542 -0.051371
v 0.004066 -0.142252 -0.051451
v 0.004011 -0.138610 -0.049426
v 0.001577 -0.140309 -0.051878
v 0.001922 -0.144727 -0.054139
v 0.002918 -0.146726 -0.053910
v 0.004010 -0.147646 -0.054022
v 0.003943 -0.151391 -0.056441
v 0.003290 -0.149837 -0.056142
v 0.003197 -0.152785 -0.058586
v 0.003933 -0.153232 -0.057958
v 0.002261 -0.147873 -0.056164
v 0.002461 -0.151204 -0.058831
v 0.001326 -0.138359 -0.049968
v 0.001532 -0.137021 -0.050751
v 0.001869 -0.138432 -0.052391
v 0.002039 -0.141260 -0.054217
v 0.003447 -0.139009 -0.054543
v 0.002971 -0.137350 -0.053054
v 0.004124 -0.135272 -0.053875
v 0.004504 -0.136355 -0.055521
v 0.002267 -0.143926 -0.056110
v 0.004582 -0.137744 -0.057367
v 0.003409 -0.140752 -0.056295
v 0.002532 -0.147572 -0.059179
v 0.003423 -0.143693 -0.059023
v 0.004339 -0.140589 -0.059384
v 0.001898 -0.132911 -0.049136
v 0.004024 -0.131053 -0.050751
v 0.003876 -0.133323 -0.052402
v 0.002371 -0.135632 -0.051583
v 0.001085 -0.135747 -0.049032
v 0.000609 -0.134721 -0.047639
v 0.002939 -0.150550 -0.061336
v 0.004044 -0.147454 -0.061280
v 0.004490 -0.143719 -0.060782
v 0.002721 -0.153223 -0.060737
v 0.003353 -0.154665 -0.059990
v 0.004031 -0.154645 -0.059129
v 0.000812 -0.136904 -0.047991
v -0.000132 -0.134853 -0.041422
v 0.000706 -0.134230 -0.043325
v -0.002751 -0.140150 -0.043132
v -0.001268 -0.138221 -0.042509
v -0.003522 -0.140449 -0.043922
v 0.003334 -0.134648 -0.045381
v 0.000386 -0.136713 -0.044165
v 0.001790 -0.136504 -0.045753
v -0.004103 -0.139881 -0.044372
v -0.000301 -0.136119 -0.046506
v 0.001672 -0.137677 -0.047167
v -0.000729 -0.138194 -0.044945
v -0.003435 -0.136537 -0.044507
v 0.003741 -0.136212 -0.047251
v -0.005090 -0.095923 -0.022198
v -0.007967 -0.094694 -0.018782
v -0.007582 -0.092724 -0.015513
v -0.006619 -0.090786 -0.011894
v -0.004424 -0.089074 -0.008839
v -0.004619 -0.093909 -0.019184
v -0.001073 -0.093022 -0.019431
v 0.003267 -0.092103 -0.019502
v -0.003982 -0.091996 -0.016034
v -0.000659 -0.091272 -0.016514
v 0.003356 -0.090473 -0.016733
v -0.003174 -0.090428 -0.013040
v -0.000077 -0.089776 -0.013553
v 0.003590 -0.089094 -0.013870
v 0.000916 -0.086909 -0.005421
v 0.004437 -0.086379 -0.005335
v -0.001935 -0.087791 -0.006574
v -0.001815 -0.089005 -0.010193
v -0.000870 -0.088181 -0.008450
v 0.000693 -0.088503 -0.010565
v 0.003813 -0.087938 -0.010772
v 0.001234 -0.087562 -0.007960
v 0.004101 -0.087064 -0.007926
v 0.008755 -0.118774 -0.043602
v 0.010328 -0.118402 -0.042839
v 0.011056 -0.120606 -0.044168
v 0.008968 -0.121517 -0.045502
v 0.011561 -0.122836 -0.044474
v 0.009025 -0.124765 -0.047067
v 0.011123 -0.129650 -0.046956
v 0.010664 -0.132747 -0.049192
v 0.008417 -0.131012 -0.050780
v 0.008950 -0.127780 -0.048390
v 0.012375 -0.124811 -0.044512
v 0.013100 -0.126423 -0.044113
v 0.009893 -0.135499 -0.051638
v 0.008347 -0.133284 -0.052436
v 0.015617 -0.121611 -0.041888
v 0.016620 -0.123826 -0.041498
v 0.014774 -0.119695 -0.041965
v 0.011581 -0.117109 -0.041724
v 0.012979 -0.119216 -0.042845
v 0.012215 -0.130489 -0.045929
v 0.011904 -0.132478 -0.047108
v 0.013730 -0.129266 -0.044228
v 0.012033 -0.134468 -0.047718
v 0.011406 -0.135503 -0.049101
v 0.010770 -0.136799 -0.050814
v 0.015909 -0.129313 -0.043169
v 0.013861 -0.133260 -0.045437
v 0.012965 -0.135822 -0.046607
v 0.011719 -0.136631 -0.048068
v 0.009120 -0.137238 -0.053102
v 0.007933 -0.135231 -0.053904
v 0.008472 -0.138923 -0.054582
v 0.007390 -0.136320 -0.055544
v 0.008317 -0.140688 -0.056336
v 0.008004 -0.143645 -0.059070
v 0.007156 -0.140567 -0.059410
v 0.007118 -0.137718 -0.057389
v 0.007164 -0.147414 -0.061311
v 0.006871 -0.143689 -0.060795
v 0.010997 -0.138099 -0.050037
v 0.010526 -0.140029 -0.051945
v 0.010251 -0.138223 -0.052451
v 0.009853 -0.144492 -0.054197
v 0.009849 -0.141073 -0.054273
v 0.009394 -0.143786 -0.056163
v 0.009258 -0.147710 -0.056214
v 0.008765 -0.151064 -0.058880
v 0.008793 -0.147463 -0.059235
v 0.016967 -0.113424 -0.040302
v 0.018690 -0.115844 -0.041762
v 0.018106 -0.116757 -0.042007
v 0.015791 -0.113475 -0.040245
v 0.017284 -0.116729 -0.041510
v 0.015144 -0.115440 -0.041047
v 0.015567 -0.109722 -0.038037
v 0.016682 -0.111274 -0.039221
v 0.013869 -0.111723 -0.039016
v 0.014769 -0.108697 -0.037187
v 0.013235 -0.113677 -0.039892
v 0.020328 -0.118357 -0.043521
v 0.021146 -0.119791 -0.043835
v 0.019588 -0.117461 -0.041678
v 0.019476 -0.120201 -0.040972
v 0.019910 -0.120505 -0.039754
v 0.022456 -0.119959 -0.040491
v 0.022483 -0.118637 -0.038576
v 0.021488 -0.122117 -0.039555
v 0.019663 -0.125093 -0.040691
v 0.023483 -0.120279 -0.038494
v 0.020997 -0.118421 -0.044184
v 0.022304 -0.120652 -0.045219
v 0.023595 -0.120830 -0.044813
v 0.022444 -0.119461 -0.043171
v 0.020994 -0.116632 -0.040796
v 0.021431 -0.117574 -0.044424
v 0.023033 -0.119527 -0.045667
v 0.024265 -0.119638 -0.045437
v 0.015797 -0.106949 -0.036651
v 0.016887 -0.109133 -0.038397
v 0.016079 -0.105895 -0.035441
v 0.015974 -0.105951 -0.036697
v 0.017361 -0.108361 -0.038364
v 0.016598 -0.105238 -0.035832
v 0.017088 -0.106625 -0.037899
v 0.017849 -0.108378 -0.038889
v 0.018341 -0.106374 -0.037327
v 0.019540 -0.109619 -0.040409
v 0.019295 -0.110412 -0.040747
v 0.020727 -0.108883 -0.039619
v 0.021331 -0.112767 -0.042736
v 0.020743 -0.112787 -0.042569
v 0.022572 -0.112195 -0.042157
v 0.022705 -0.116303 -0.044742
v 0.021268 -0.115160 -0.043669
v 0.023853 -0.116214 -0.044390
v 0.019481 -0.111718 -0.041005
v 0.019154 -0.113309 -0.041412
v 0.019007 -0.114721 -0.041643
v 0.025384 -0.118884 -0.042889
v 0.024012 -0.117805 -0.041588
v 0.025853 -0.117877 -0.043357
v 0.022283 -0.115223 -0.039569
v 0.025191 -0.115191 -0.042458
v 0.023992 -0.112015 -0.040691
v 0.022110 -0.109141 -0.038718
v 0.019798 -0.107029 -0.037093
v 0.017957 -0.105620 -0.035763
v 0.018261 -0.105583 -0.034990
v 0.013507 -0.110941 -0.038021
v 0.014804 -0.109025 -0.036813
v 0.016694 -0.106779 -0.035131
v 0.012522 -0.112576 -0.038945
v 0.008063 -0.116511 -0.041806
v 0.009513 -0.115883 -0.041218
v 0.010709 -0.114857 -0.040386
v 0.020724 -0.115538 -0.039202
v 0.018556 -0.115959 -0.039813
v 0.021923 -0.118119 -0.040122
v 0.018938 -0.118372 -0.040614
v 0.016221 -0.117347 -0.041226
v 0.022741 -0.114839 -0.038464
v 0.024936 -0.117381 -0.039477
v 0.021303 -0.121841 -0.038517
v 0.019765 -0.125558 -0.039644
v 0.023434 -0.119787 -0.037305
v 0.020573 -0.130763 -0.042050
v 0.018913 -0.130558 -0.042641
v 0.014305 -0.117484 -0.041850
v 0.012484 -0.115517 -0.040752
v 0.011585 -0.113858 -0.039724
v 0.028302 -0.116191 -0.038454
v 0.026184 -0.114587 -0.037876
v 0.026458 -0.111945 -0.035658
v 0.028803 -0.115028 -0.037154
v 0.027386 -0.118444 -0.039659
v 0.030921 -0.117689 -0.038472
v 0.030292 -0.118327 -0.039464
v 0.029721 -0.120125 -0.040243
v 0.023801 -0.113215 -0.037377
v 0.024112 -0.111002 -0.035733
v 0.031771 -0.118386 -0.037928
v 0.029911 -0.115637 -0.036376
v 0.030184 -0.117094 -0.036223
v 0.031852 -0.119714 -0.037786
v 0.034021 -0.122032 -0.038875
v 0.034105 -0.120575 -0.039027
v 0.033741 -0.120076 -0.039768
v 0.028543 -0.112829 -0.034546
v 0.029022 -0.114416 -0.034374
v 0.027759 -0.110814 -0.033065
v 0.028069 -0.112484 -0.033023
v 0.026435 -0.109796 -0.033530
v 0.028358 -0.115969 -0.034708
v 0.029660 -0.118658 -0.036459
v 0.027427 -0.114156 -0.033399
v 0.031507 -0.121492 -0.038067
v 0.033769 -0.123967 -0.039120
v 0.026189 -0.118161 -0.036101
v 0.028691 -0.120120 -0.037011
v 0.025548 -0.116135 -0.034325
v 0.031103 -0.122985 -0.038334
v 0.033601 -0.125762 -0.039572
v 0.027989 -0.121151 -0.038169
v 0.030466 -0.123495 -0.039042
v 0.033202 -0.126510 -0.040444
v 0.025716 -0.119703 -0.037820
v 0.023023 -0.117972 -0.035601
v 0.020336 -0.119893 -0.037129
v 0.021987 -0.115629 -0.034419
v 0.024455 -0.114243 -0.033057
v 0.022986 -0.112277 -0.031854
v 0.020865 -0.112517 -0.032711
v 0.019223 -0.111780 -0.033030
v 0.019299 -0.116894 -0.035983
v 0.026318 -0.112436 -0.032172
v 0.025217 -0.110966 -0.031033
v 0.027052 -0.110735 -0.031820
v 0.025974 -0.108921 -0.030426
v 0.027047 -0.108942 -0.031623
v 0.026186 -0.106942 -0.029987
v 0.026214 -0.107783 -0.031828
v 0.025392 -0.105145 -0.029752
v 0.017996 -0.109913 -0.032744
v 0.018035 -0.113160 -0.035307
v 0.016210 -0.115813 -0.037518
v 0.016648 -0.119727 -0.038069
v 0.016333 -0.122407 -0.038327
v 0.014896 -0.123678 -0.037881
v 0.013792 -0.125807 -0.037874
v 0.015706 -0.124969 -0.036606
v 0.016792 -0.123051 -0.036810
v 0.014808 -0.125488 -0.039690
v 0.014044 -0.128425 -0.040172
v 0.018430 -0.122825 -0.037662
v 0.016116 -0.122593 -0.037798
v 0.021970 -0.111541 -0.030581
v 0.019481 -0.111745 -0.031507
v 0.017599 -0.110559 -0.031571
v 0.024532 -0.109189 -0.029226
v 0.025409 -0.106844 -0.028375
v 0.025881 -0.104507 -0.027685
v 0.025207 -0.101076 -0.026598
v 0.025051 -0.109012 -0.033952
v 0.023060 -0.113660 -0.038390
v 0.022940 -0.111757 -0.037125
v 0.025189 -0.107085 -0.032457
v 0.023830 -0.104666 -0.030655
v 0.022459 -0.102084 -0.028969
v 0.025982 -0.114302 -0.040690
v 0.026285 -0.116252 -0.041632
v 0.026061 -0.116655 -0.041136
v 0.025061 -0.111809 -0.039277
v 0.018848 -0.105617 -0.034092
v 0.014663 -0.111906 -0.037406
v 0.015791 -0.109736 -0.036183
v 0.017461 -0.106988 -0.034308
v 0.013473 -0.113136 -0.038289
v 0.023935 -0.109620 -0.035379
v 0.024447 -0.107410 -0.033536
v 0.022876 -0.105410 -0.032130
v 0.021338 -0.104304 -0.031426
v 0.025814 -0.103980 -0.024900
v 0.025646 -0.107069 -0.025655
v 0.026558 -0.101638 -0.024221
v 0.025872 -0.100501 -0.020409
v 0.026043 -0.103404 -0.020857
v 0.026292 -0.098433 -0.020086
v 0.025169 -0.110486 -0.026410
v 0.026373 -0.107030 -0.021285
v 0.024464 -0.113212 -0.026409
v 0.021512 -0.113115 -0.028930
v 0.026150 -0.110274 -0.021527
v 0.025715 -0.100316 -0.016488
v 0.025497 -0.097766 -0.016211
v 0.025327 -0.095362 -0.015771
v 0.024507 -0.095360 -0.012026
v 0.024611 -0.097772 -0.012248
v 0.024375 -0.093013 -0.011486
v 0.017416 -0.112547 -0.030627
v 0.014217 -0.111324 -0.031080
v 0.024515 -0.100486 -0.012373
v 0.025764 -0.103385 -0.016780
v 0.022408 -0.095504 -0.008326
v 0.022284 -0.098066 -0.008177
v 0.022317 -0.093161 -0.008237
v 0.024376 -0.103469 -0.012376
v 0.025562 -0.106535 -0.016841
v 0.021990 -0.100690 -0.008058
v 0.013702 -0.110877 -0.029281
v 0.013605 -0.111781 -0.030244
v 0.016830 -0.112807 -0.029725
v 0.016584 -0.111575 -0.028672
v 0.020693 -0.113468 -0.028083
v 0.019644 -0.112256 -0.027284
v 0.016360 -0.108878 -0.027249
v 0.013968 -0.108039 -0.027606
v 0.018666 -0.110159 -0.026537
v 0.019181 -0.093640 -0.005386
v 0.019001 -0.096132 -0.005015
v 0.019115 -0.091419 -0.005403
v 0.018581 -0.098639 -0.004783
v 0.015412 -0.092283 -0.003683
v 0.015228 -0.094666 -0.003306
v 0.014832 -0.097204 -0.003175
v 0.015358 -0.090221 -0.003719
v 0.011647 -0.091527 -0.002928
v 0.011502 -0.093811 -0.002524
v 0.011109 -0.096369 -0.002312
v 0.011569 -0.089587 -0.002992
v 0.022139 -0.090976 -0.007706
v 0.026373 -0.096469 -0.019574
v 0.025438 -0.093648 -0.015295
v 0.026434 -0.099055 -0.023384
v 0.024595 -0.091392 -0.010879
v 0.022153 -0.089263 -0.006949
v 0.024759 -0.095049 -0.019187
v 0.024271 -0.092679 -0.015286
v 0.024504 -0.097079 -0.022471
v 0.023351 -0.090566 -0.011245
v 0.020976 -0.088644 -0.007678
v 0.023229 -0.098559 -0.025068
v 0.020764 -0.099406 -0.027070
v 0.019204 -0.103073 -0.030707
v 0.016591 -0.098597 -0.027468
v 0.019492 -0.105210 -0.032832
v 0.017836 -0.103482 -0.031061
v 0.015303 -0.099954 -0.028852
v 0.010952 -0.097970 -0.027585
v 0.011572 -0.096408 -0.025905
v 0.012043 -0.095322 -0.024419
v 0.016709 -0.096923 -0.025434
v 0.019892 -0.097558 -0.025186
v 0.021914 -0.097254 -0.024001
v 0.022705 -0.095881 -0.021711
v 0.022794 -0.094133 -0.018915
v 0.022523 -0.092180 -0.015640
v 0.021651 -0.090279 -0.012009
v 0.019560 -0.088647 -0.008934
v 0.018894 -0.089432 -0.004912
v 0.018714 -0.087845 -0.004184
v 0.017978 -0.087315 -0.005020
v 0.017116 -0.087455 -0.006647
v 0.015109 -0.088414 -0.003247
v 0.014868 -0.086982 -0.002709
v 0.014634 -0.101737 -0.029769
v 0.010763 -0.099922 -0.028737
v 0.016995 -0.104550 -0.031511
v 0.012243 -0.093695 -0.022158
v 0.016659 -0.094760 -0.022538
v 0.012425 -0.091940 -0.019543
v 0.016476 -0.092697 -0.019510
v 0.012324 -0.088938 -0.013908
v 0.012034 -0.087798 -0.010807
v 0.014949 -0.088244 -0.010625
v 0.015757 -0.089484 -0.013623
v 0.016245 -0.090959 -0.016590
v 0.012527 -0.090313 -0.016773
v 0.011497 -0.086936 -0.007957
v 0.014247 -0.087329 -0.008012
v 0.018613 -0.090032 -0.013133
v 0.017285 -0.088661 -0.010272
v 0.019312 -0.091570 -0.016137
v 0.016290 -0.087875 -0.008519
v 0.010930 -0.086271 -0.005361
v 0.014311 -0.086673 -0.005471
v 0.014695 -0.086517 -0.003760
v 0.011287 -0.087893 -0.002555
v 0.010892 -0.086513 -0.002144
v 0.010764 -0.086052 -0.003451
v 0.017382 -0.107550 -0.033876
v 0.011240 -0.113914 -0.039008
v 0.012197 -0.113729 -0.038724
v 0.010055 -0.113752 -0.039040
v 0.008685 -0.113666 -0.039025
v 0.016828 -0.111063 -0.035747
v 0.014248 -0.118384 -0.039177
v 0.011806 -0.115418 -0.039112
v 0.012561 -0.116019 -0.039008
v 0.010512 -0.115728 -0.039338
v 0.008987 -0.115952 -0.039426
v 0.016905 -0.106157 -0.031754
v 0.014610 -0.103599 -0.030070
v 0.017503 -0.108233 -0.033390
v 0.010950 -0.102228 -0.029531
v 0.023696 -0.108900 -0.036317
v 0.023298 -0.109184 -0.037612
v 0.021058 -0.107219 -0.036320
v 0.021713 -0.106863 -0.035027
v 0.024827 -0.111351 -0.037928
v 0.022230 -0.106160 -0.033520
v 0.023980 -0.108147 -0.034845
v 0.023999 -0.110388 -0.036534
v 0.023377 -0.104106 -0.012992
v 0.024614 -0.106980 -0.017067
v 0.024909 -0.110356 -0.021533
v 0.021092 -0.101267 -0.008953
v 0.017978 -0.099325 -0.005795
v 0.014390 -0.098114 -0.004169
v 0.010803 -0.097464 -0.003064
v 0.010881 -0.097249 -0.005074
v 0.013871 -0.097562 -0.006306
v 0.017011 -0.098491 -0.008148
v 0.019788 -0.100378 -0.010772
v 0.021796 -0.103056 -0.014044
v 0.022921 -0.105696 -0.017350
v 0.023468 -0.109195 -0.021455
v 0.022183 -0.111938 -0.025231
v 0.023430 -0.113308 -0.025913
v 0.010885 -0.109755 -0.029043
v 0.010737 -0.110130 -0.029918
v 0.011283 -0.107987 -0.027806
v 0.011233 -0.108767 -0.030489
v 0.019937 -0.101069 -0.014772
v 0.021018 -0.103597 -0.017605
v 0.021559 -0.107199 -0.021373
v 0.018518 -0.099091 -0.012484
v 0.016312 -0.097182 -0.011136
v 0.013799 -0.095849 -0.010124
v 0.011331 -0.095112 -0.009501
v 0.016020 -0.108410 -0.031180
v 0.013152 -0.129256 -0.038283
v 0.015057 -0.128283 -0.036797
v 0.013261 -0.131455 -0.040668
v 0.014001 -0.133258 -0.038851
v 0.014836 -0.132765 -0.037763
v 0.013182 -0.134548 -0.041528
v 0.014975 -0.138276 -0.040561
v 0.015631 -0.137919 -0.039373
v 0.014015 -0.137869 -0.042634
v 0.017309 -0.108203 -0.032256
v 0.017682 -0.110549 -0.034483
v 0.014901 -0.105820 -0.030499
v 0.011153 -0.104176 -0.029635
v 0.033216 -0.120702 -0.040783
v 0.012159 -0.119597 -0.040576
v 0.009557 -0.121539 -0.042124
v 0.009801 -0.126347 -0.043160
v 0.012353 -0.124284 -0.041391
v 0.011336 -0.117375 -0.039531
v 0.009146 -0.117755 -0.039861
v 0.014459 -0.122238 -0.039717
v 0.009900 -0.129606 -0.043789
v 0.012632 -0.127761 -0.042029
v 0.010893 -0.137447 -0.047236
v 0.010201 -0.139527 -0.049341
v 0.013375 -0.137879 -0.045061
v 0.009537 -0.142306 -0.051420
v 0.008898 -0.136091 -0.047288
v 0.008381 -0.138493 -0.049457
v 0.010932 -0.136296 -0.045824
v 0.009528 -0.134518 -0.045427
v 0.008028 -0.142123 -0.051480
v 0.008788 -0.146544 -0.053952
v 0.007657 -0.147538 -0.054049
v 0.007439 -0.151314 -0.056466
v 0.008146 -0.149725 -0.056177
v 0.007680 -0.154576 -0.060023
v 0.007978 -0.152686 -0.058620
v 0.007286 -0.153162 -0.057981
v 0.007026 -0.154587 -0.059155
v 0.017330 -0.132700 -0.040490
v 0.017514 -0.136736 -0.041146
v 0.021110 -0.138780 -0.042665
v 0.021216 -0.134960 -0.042359
v 0.021656 -0.140823 -0.044080
v 0.021708 -0.136171 -0.043629
v 0.020426 -0.130362 -0.041066
v 0.017721 -0.128074 -0.039162
v 0.018676 -0.139857 -0.040966
v 0.020514 -0.141029 -0.042368
v 0.020449 -0.142887 -0.043245
v 0.019439 -0.126728 -0.039465
v 0.018207 -0.124742 -0.038087
v 0.016692 -0.124334 -0.037283
v 0.016231 -0.125917 -0.037148
v 0.015767 -0.128906 -0.037491
v 0.015632 -0.132787 -0.038150
v 0.016284 -0.137049 -0.039209
v 0.018179 -0.141299 -0.041326
v 0.014920 -0.097601 -0.018105
v 0.014572 -0.095948 -0.014597
v 0.012029 -0.094212 -0.014449
v 0.012311 -0.095308 -0.018333
v 0.012113 -0.099296 -0.022035
v 0.014805 -0.100582 -0.021715
v 0.020374 -0.109412 -0.024643
v 0.014472 -0.104038 -0.024891
v 0.011725 -0.103769 -0.025367
v 0.017064 -0.098068 -0.014677
v 0.017514 -0.099921 -0.017844
v 0.017595 -0.102679 -0.021343
v 0.017123 -0.105537 -0.024571
v 0.019973 -0.095464 -0.022308
v 0.019759 -0.093462 -0.019291
v 0.020112 -0.136316 -0.044020
v 0.016948 -0.141420 -0.042179
v 0.018799 -0.142491 -0.043689
v 0.020038 -0.140548 -0.044342
v 0.024522 -0.115634 -0.039986
v 0.024903 -0.120646 -0.040578
v 0.025376 -0.119406 -0.038673
v 0.016157 -0.136106 -0.044659
v 0.016616 -0.139410 -0.044538
v 0.016024 -0.140001 -0.044081
v 0.015313 -0.139733 -0.043281
v 0.012524 -0.131058 -0.042710
v 0.009842 -0.132350 -0.044354
v 0.012291 -0.133974 -0.043414
v 0.012408 -0.136443 -0.044261
v 0.025661 -0.114096 -0.039574
v 0.024016 -0.112973 -0.038404
v 0.027126 -0.120940 -0.040270
v 0.027595 -0.120816 -0.039002
v 0.033010 -0.122443 -0.041275
v 0.029583 -0.121822 -0.040324
v 0.030178 -0.122390 -0.039303
v 0.032972 -0.124162 -0.041295
v 0.033147 -0.125574 -0.041016
v 0.035420 -0.125845 -0.042028
v 0.035551 -0.127772 -0.042005
v 0.035467 -0.124175 -0.042284
v 0.035750 -0.128930 -0.041492
v 0.035719 -0.122581 -0.041830
v 0.035940 -0.128323 -0.040602
v 0.036039 -0.122018 -0.040835
v 0.036247 -0.122474 -0.039929
v 0.036081 -0.123902 -0.039677
v 0.035926 -0.125910 -0.039932
v 0.037766 -0.125383 -0.040282
v 0.037933 -0.123928 -0.040530
v 0.037881 -0.127641 -0.040567
v 0.037870 -0.123598 -0.041551
v 0.038159 -0.129951 -0.041255
v 0.038050 -0.130462 -0.042094
v 0.037691 -0.124247 -0.042529
v 0.037583 -0.126034 -0.043171
v 0.037519 -0.127377 -0.042533
v 0.037711 -0.129429 -0.042467
v 0.039669 -0.129118 -0.043117
v 0.039839 -0.131256 -0.042980
v 0.039647 -0.127494 -0.043431
v 0.040156 -0.131974 -0.042441
v 0.040217 -0.131416 -0.041660
v 0.039818 -0.125959 -0.042813
v 0.039836 -0.125142 -0.041931
v 0.039611 -0.125189 -0.040800
v 0.039511 -0.126694 -0.040616
v 0.039753 -0.128944 -0.040803
v 0.042066 -0.130590 -0.043144
v 0.041760 -0.132270 -0.043118
v 0.041505 -0.128733 -0.043257
v 0.042488 -0.132903 -0.042735
v 0.042420 -0.128199 -0.042850
v 0.042342 -0.127020 -0.041811
v 0.042601 -0.131980 -0.041650
v 0.041664 -0.130010 -0.040910
v 0.042212 -0.128594 -0.040839
v 0.041607 -0.126698 -0.040877
v 0.043500 -0.131344 -0.042859
v 0.043754 -0.130643 -0.041960
v 0.008336 -0.153110 -0.060788
v 0.008173 -0.150446 -0.061385
v 0.007408 -0.097833 -0.027478
v 0.007554 -0.096224 -0.025813
v 0.007716 -0.095039 -0.024273
v 0.007909 -0.093369 -0.021989
v 0.008256 -0.088720 -0.013996
v 0.008313 -0.087624 -0.010940
v 0.007998 -0.086865 -0.008230
v 0.007892 -0.086207 -0.005430
v 0.007724 -0.085995 -0.003445
v 0.007603 -0.086441 -0.002151
v 0.007867 -0.087788 -0.002418
v 0.008056 -0.089440 -0.002810
v 0.008134 -0.091344 -0.002719
v 0.008122 -0.093625 -0.002265
v 0.008085 -0.096220 -0.002023
v 0.008351 -0.109621 -0.029043
v 0.008624 -0.107975 -0.027885
v 0.008038 -0.097365 -0.002815
v 0.007974 -0.109729 -0.029857
v 0.007593 -0.099550 -0.028467
v 0.007787 -0.108210 -0.030373
v 0.007818 -0.104114 -0.029581
v 0.007729 -0.102033 -0.029417
v 0.008146 -0.097107 -0.004942
v 0.008667 -0.094766 -0.009513
v 0.009160 -0.093258 -0.014531
v 0.009593 -0.092984 -0.018583
v 0.008903 -0.103629 -0.025454
v 0.009245 -0.098324 -0.021960
v 0.008333 -0.090117 -0.016932
v 0.008149 -0.091737 -0.019610
v 0.006256 -0.130155 -0.052035
v 0.006387 -0.127682 -0.050252
v 0.006105 -0.132297 -0.053472
v 0.006070 -0.134268 -0.054733
v 0.005819 -0.143918 -0.061143
v 0.005917 -0.140833 -0.060139
v 0.005956 -0.137758 -0.058123
v 0.006615 -0.119031 -0.044246
v 0.006496 -0.121193 -0.046081
v 0.006733 -0.116849 -0.042088
v 0.006357 -0.135033 -0.047302
v 0.006333 -0.137402 -0.049339
v 0.006204 -0.141347 -0.051455
v 0.005911 -0.147242 -0.054006
v 0.005826 -0.151673 -0.056598
v 0.005502 -0.155135 -0.059483
v 0.005729 -0.153700 -0.058179
v 0.006042 -0.135830 -0.056273
v 0.006484 -0.134201 -0.046005
v 0.006446 -0.124781 -0.048544
v 0.006734 -0.122551 -0.042996
v 0.006969 -0.118184 -0.040065
v 0.007019 -0.113652 -0.039017
v 0.007040 -0.115894 -0.039389
v 0.006655 -0.127631 -0.044123
v 0.006598 -0.132874 -0.045108
v 0.006610 -0.130657 -0.044644
v 0.005751 -0.148106 -0.061693
v 0.005623 -0.151662 -0.062236
v 0.005542 -0.154445 -0.061545
v 0.005534 -0.155021 -0.060587
f 1 2 3
f 1 3 4
f 5 6 7
f 5 7 8
f 9 10 11
f 9 11 12
f 13 9 12
f 13 12 14
f 12 11 15
f 12 15 16
f 14 12 16
f 14 16 17
f 18 17 16
f 18 16 19
f 20 21 18
f 20 18 19
f 19 16 15
f 19 15 22
f 23 20 19
f 23 19 22
f 22 15 24
f 22 24 25
f 23 22 25
f 23 25 26
f 25 24 27
f 25 27 28
f 26 25 28
f 26 28 29
f 30 31 32
f 30 32 33
f 34 30 33
f 34 33 35
f 27 36 37
f 27 37 38
f 28 27 38
f 28 38 39
f 29 28 39
f 29 39 40
f 41 40 39
f 41 39 42
f 42 39 38
f 42 38 43
f 43 38 37
f 43 37 44
f 44 37 45
f 44 45 46
f 46 45 47
f 46 47 48
f 49 44 46
f 49 46 50
f 51 43 44
f 51 44 49
f 52 42 43
f 52 43 51
f 53 41 42
f 53 42 52
f 54 55 56
f 54 56 57
f 58 54 57
f 58 57 59
f 60 61 58
f 60 58 59
f 59 57 62
f 59 62 63
f 62 57 56
f 62 56 64
f 65 62 64
f 65 64 66
f 67 63 62
f 67 62 65
f 68 69 70
f 68 70 71
f 2 1 69
f 2 69 68
f 72 2 68
f 72 68 71
f 73 3 2
f 73 2 72
f 6 4 3
f 6 3 73
f 74 7 6
f 74 6 73
f 71 70 75
f 71 75 76
f 74 73 72
f 74 72 77
f 77 72 71
f 77 71 76
f 76 75 78
f 76 78 79
f 80 81 82
f 80 82 83
f 83 82 7
f 83 7 74
f 84 85 80
f 84 80 83
f 83 74 77
f 83 77 84
f 84 77 76
f 84 76 79
f 79 86 85
f 79 85 84
f 87 88 67
f 87 67 65
f 87 89 90
f 87 90 88
f 91 92 47
f 91 47 45
f 91 45 37
f 91 37 36
f 24 15 11
f 24 11 93
f 93 36 27
f 93 27 24
f 94 90 89
f 94 89 95
f 96 97 10
f 96 10 98
f 93 11 10
f 93 10 97
f 91 36 93
f 91 93 97
f 98 10 9
f 98 9 99
f 96 92 91
f 96 91 97
f 100 101 55
f 100 55 54
f 102 50 46
f 102 46 48
f 103 104 105
f 103 105 106
f 107 108 104
f 107 104 103
f 109 110 107
f 109 107 103
f 111 112 110
f 111 110 109
f 100 103 106
f 100 106 101
f 113 109 103
f 113 103 100
f 54 58 113
f 54 113 100
f 58 61 114
f 58 114 113
f 113 114 111
f 113 111 109
f 115 53 52
f 115 52 116
f 116 52 51
f 116 51 117
f 117 51 49
f 117 49 118
f 118 49 50
f 118 50 119
f 119 50 102
f 119 102 120
f 121 122 112
f 121 112 111
f 121 111 114
f 121 114 123
f 124 123 114
f 124 114 61
f 124 61 60
f 124 60 125
f 126 127 115
f 126 115 116
f 128 129 130
f 128 130 131
f 130 127 126
f 130 126 131
f 132 117 118
f 132 118 133
f 132 126 116
f 132 116 117
f 134 132 133
f 134 133 135
f 135 133 118
f 135 118 119
f 134 131 126
f 134 126 132
f 136 135 119
f 136 119 120
f 137 134 135
f 137 135 136
f 137 128 131
f 137 131 134
f 108 107 138
f 108 138 139
f 138 47 92
f 138 92 139
f 107 110 140
f 107 140 138
f 140 110 112
f 140 112 141
f 140 48 47
f 140 47 138
f 141 102 48
f 141 48 140
f 112 122 142
f 112 142 141
f 142 120 102
f 142 102 141
f 143 136 120
f 143 120 142
f 144 143 142
f 144 142 122
f 144 122 121
f 144 121 145
f 146 137 136
f 146 136 143
f 147 145 121
f 147 121 123
f 144 145 147
f 144 147 148
f 146 143 144
f 146 144 148
f 149 128 137
f 149 137 146
f 150 147 123
f 150 123 124
f 148 147 150
f 148 150 151
f 149 146 148
f 149 148 151
f 152 129 128
f 152 128 149
f 150 124 125
f 150 125 153
f 151 150 153
f 151 153 154
f 152 149 151
f 152 151 154
f 155 108 139
f 155 139 156
f 139 92 96
f 139 96 156
f 156 96 98
f 156 98 157
f 158 157 98
f 158 98 99
f 159 160 158
f 159 158 161
f 162 161 158
f 162 158 99
f 162 99 9
f 162 9 13
f 163 164 165
f 163 165 166
f 167 168 163
f 167 163 166
f 169 167 166
f 169 166 170
f 171 169 170
f 171 170 172
f 173 174 171
f 173 171 172
f 175 176 173
f 175 173 172
f 177 175 172
f 177 172 170
f 170 166 165
f 170 165 177
f 178 179 105
f 178 105 104
f 104 108 155
f 104 155 178
f 180 155 156
f 180 156 157
f 157 158 160
f 157 160 180
f 181 180 160
f 181 160 182
f 183 179 178
f 183 178 181
f 181 178 155
f 181 155 180
f 184 185 94
f 184 94 95
f 186 187 188
f 186 188 189
f 184 95 186
f 184 186 189
f 190 188 187
f 190 187 159
f 191 185 184
f 191 184 192
f 8 7 82
f 8 82 193
f 193 82 81
f 193 81 194
f 195 196 168
f 195 168 167
f 197 195 167
f 197 167 169
f 198 197 169
f 198 169 171
f 199 175 177
f 199 177 200
f 200 177 165
f 200 165 201
f 202 176 175
f 202 175 199
f 203 173 176
f 203 176 202
f 204 174 173
f 204 173 203
f 204 198 171
f 204 171 174
f 200 201 205
f 200 205 206
f 199 200 206
f 199 206 207
f 202 199 207
f 202 207 208
f 203 202 208
f 203 208 209
f 204 203 209
f 204 209 210
f 211 198 204
f 211 204 210
f 197 198 211
f 197 211 212
f 195 197 212
f 195 212 213
f 214 215 194
f 214 194 81
f 216 81 80
f 216 80 85
f 217 216 85
f 217 85 86
f 217 86 79
f 217 79 78
f 218 216 217
f 218 217 219
f 219 217 220
f 219 220 221
f 222 223 219
f 222 219 221
f 32 31 222
f 32 222 224
f 221 220 225
f 221 225 226
f 224 222 221
f 224 221 226
f 225 227 228
f 225 228 229
f 214 81 216
f 214 216 218
f 230 95 89
f 230 89 231
f 232 231 89
f 232 89 87
f 232 87 65
f 232 65 66
f 233 228 227
f 233 227 234
f 235 66 64
f 235 64 236
f 237 228 233
f 237 233 238
f 238 235 236
f 238 236 237
f 238 233 231
f 238 231 232
f 238 232 66
f 238 66 235
f 239 240 70
f 239 70 69
f 239 69 1
f 239 1 241
f 242 241 1
f 242 1 4
f 242 4 6
f 242 6 5
f 243 244 239
f 243 239 241
f 245 244 243
f 245 243 246
f 243 241 242
f 243 242 247
f 247 242 5
f 247 5 248
f 248 5 8
f 248 8 249
f 250 249 8
f 250 8 193
f 251 250 193
f 251 193 194
f 252 251 194
f 252 194 215
f 253 246 243
f 253 243 247
f 254 253 247
f 254 247 248
f 254 248 249
f 254 249 255
f 256 255 249
f 256 249 250
f 257 245 246
f 257 246 258
f 258 246 253
f 258 253 259
f 260 259 253
f 260 253 254
f 260 254 255
f 260 255 256
f 261 256 250
f 261 250 251
f 262 260 256
f 262 256 261
f 263 259 260
f 263 260 262
f 264 258 259
f 264 259 263
f 265 257 258
f 265 258 264
f 233 234 266
f 233 266 267
f 230 231 233
f 230 233 267
f 240 239 244
f 240 244 268
f 257 265 267
f 257 267 266
f 227 225 220
f 227 220 269
f 269 220 217
f 269 217 78
f 269 270 234
f 269 234 227
f 269 78 75
f 269 75 270
f 270 75 70
f 270 70 240
f 270 240 268
f 270 268 271
f 271 266 234
f 271 234 270
f 245 257 266
f 245 266 271
f 271 268 244
f 271 244 245
f 272 273 274
f 272 274 275
f 276 272 275
f 276 275 277
f 278 261 251
f 278 251 252
f 273 272 279
f 273 279 280
f 280 279 205
f 280 205 281
f 282 283 215
f 282 215 214
f 284 285 286
f 284 286 287
f 288 284 287
f 288 287 289
f 288 289 283
f 288 283 282
f 282 214 218
f 282 218 290
f 218 219 223
f 218 223 290
f 291 252 215
f 291 215 283
f 292 278 252
f 292 252 291
f 293 291 283
f 293 283 289
f 294 292 291
f 294 291 293
f 295 223 222
f 295 222 31
f 295 31 30
f 295 30 296
f 296 30 34
f 296 34 297
f 274 273 298
f 274 298 299
f 300 299 298
f 300 298 301
f 300 301 296
f 300 296 297
f 288 282 290
f 288 290 302
f 302 301 298
f 302 298 303
f 303 298 273
f 303 273 280
f 280 285 284
f 280 284 303
f 303 284 288
f 303 288 302
f 302 290 223
f 302 223 295
f 302 295 296
f 302 296 301
f 304 305 287
f 304 287 286
f 293 289 287
f 293 287 305
f 305 304 306
f 305 306 307
f 305 307 308
f 305 308 293
f 309 294 293
f 309 293 308
f 310 306 304
f 310 304 311
f 311 304 286
f 311 286 312
f 312 286 285
f 312 285 313
f 314 201 165
f 314 165 164
f 281 205 201
f 281 201 314
f 285 280 281
f 285 281 313
f 315 316 308
f 315 308 307
f 317 315 307
f 317 307 306
f 306 310 318
f 306 318 317
f 319 309 308
f 319 308 316
f 320 321 309
f 320 309 319
f 322 321 320
f 322 320 323
f 324 325 322
f 324 322 323
f 326 327 325
f 326 325 324
f 328 327 326
f 328 326 329
f 318 310 328
f 318 328 329
f 326 324 330
f 326 330 331
f 329 326 331
f 329 331 332
f 330 324 323
f 330 323 333
f 334 320 319
f 334 319 335
f 333 323 320
f 333 320 334
f 335 319 316
f 335 316 336
f 336 316 315
f 336 315 337
f 337 315 317
f 337 317 338
f 338 317 318
f 338 318 339
f 339 318 329
f 339 329 332
f 340 341 338
f 340 338 339
f 342 337 338
f 342 338 341
f 343 336 337
f 343 337 342
f 344 335 336
f 344 336 343
f 345 334 335
f 345 335 344
f 346 333 334
f 346 334 345
f 347 330 333
f 347 333 346
f 331 330 347
f 331 347 348
f 332 331 348
f 332 348 349
f 340 339 332
f 340 332 349
f 350 342 341
f 350 341 351
f 343 342 350
f 343 350 352
f 344 343 352
f 344 352 353
f 354 351 341
f 354 341 340
f 354 340 349
f 354 349 355
f 355 349 348
f 355 348 356
f 356 348 347
f 356 347 357
f 357 347 346
f 357 346 358
f 358 346 345
f 358 345 359
f 345 344 353
f 345 353 359
f 360 350 351
f 360 351 361
f 352 350 360
f 352 360 362
f 363 361 351
f 363 351 354
f 353 352 362
f 353 362 364
f 365 360 361
f 365 361 366
f 367 362 360
f 367 360 365
f 368 359 353
f 368 353 364
f 364 362 367
f 364 367 369
f 369 367 365
f 369 365 370
f 371 358 359
f 371 359 368
f 371 372 357
f 371 357 358
f 373 371 368
f 373 368 374
f 374 368 364
f 374 364 369
f 374 369 370
f 374 370 375
f 376 370 365
f 376 365 366
f 376 366 361
f 376 361 363
f 377 363 354
f 377 354 355
f 378 375 370
f 378 370 376
f 373 374 375
f 373 375 379
f 379 372 371
f 379 371 373
f 380 356 357
f 380 357 372
f 380 377 355
f 380 355 356
f 381 379 375
f 381 375 378
f 378 376 363
f 378 363 377
f 378 377 380
f 378 380 381
f 380 372 379
f 380 379 381
f 382 183 181
f 382 181 182
f 182 160 159
f 182 159 187
f 262 261 278
f 262 278 383
f 384 182 187
f 384 187 186
f 385 382 182
f 385 182 384
f 386 387 385
f 386 385 384
f 384 186 95
f 384 95 230
f 384 230 267
f 384 267 386
f 267 265 387
f 267 387 386
f 387 265 264
f 387 264 388
f 263 262 383
f 263 383 389
f 388 264 263
f 388 263 389
f 390 385 387
f 390 387 388
f 383 278 292
f 383 292 391
f 389 383 391
f 389 391 392
f 390 388 389
f 390 389 392
f 393 382 385
f 393 385 390
f 394 294 309
f 394 309 321
f 394 391 292
f 394 292 294
f 392 391 394
f 392 394 395
f 393 390 392
f 393 392 395
f 396 183 382
f 396 382 393
f 394 321 322
f 394 322 397
f 395 394 397
f 395 397 398
f 396 393 395
f 396 395 398
f 179 183 396
f 179 396 399
f 400 397 322
f 400 322 325
f 398 397 400
f 398 400 401
f 399 396 398
f 399 398 401
f 105 179 399
f 105 399 402
f 403 400 325
f 403 325 327
f 401 400 403
f 401 403 404
f 402 399 401
f 402 401 404
f 106 105 402
f 106 402 405
f 403 327 328
f 403 328 406
f 406 328 310
f 406 310 311
f 404 403 406
f 404 406 407
f 405 402 404
f 405 404 407
f 408 406 311
f 408 311 312
f 101 106 405
f 101 405 409
f 407 406 408
f 407 408 410
f 409 405 407
f 409 407 410
f 411 408 312
f 411 312 313
f 411 313 281
f 411 281 314
f 236 64 56
f 236 56 412
f 226 225 229
f 226 229 413
f 414 224 226
f 414 226 413
f 414 413 415
f 414 415 416
f 32 224 414
f 32 414 417
f 417 414 416
f 417 416 418
f 33 32 417
f 33 417 419
f 420 416 415
f 420 415 421
f 422 419 417
f 422 417 418
f 422 418 416
f 422 416 420
f 35 33 419
f 35 419 423
f 424 420 421
f 424 421 425
f 426 423 419
f 426 419 422
f 426 422 420
f 426 420 424
f 427 425 421
f 427 421 428
f 429 427 428
f 429 428 430
f 429 430 431
f 429 431 432
f 433 229 228
f 433 228 237
f 412 56 55
f 412 55 434
f 435 436 431
f 435 431 430
f 196 195 213
f 196 213 437
f 437 213 436
f 437 436 435
f 438 314 164
f 438 164 163
f 439 411 314
f 439 314 438
f 438 163 168
f 438 168 196
f 438 196 437
f 438 437 440
f 439 410 408
f 439 408 411
f 55 101 409
f 55 409 434
f 434 409 410
f 434 410 439
f 439 438 440
f 439 440 441
f 440 437 435
f 440 435 441
f 442 435 430
f 442 430 428
f 428 421 415
f 428 415 442
f 415 413 229
f 415 229 433
f 433 412 434
f 433 434 443
f 237 236 412
f 237 412 433
f 443 442 415
f 443 415 433
f 443 434 439
f 443 439 441
f 443 441 435
f 443 435 442
f 436 213 212
f 436 212 444
f 445 446 447
f 445 447 448
f 446 449 450
f 446 450 451
f 451 452 447
f 451 447 446
f 453 452 451
f 453 451 454
f 455 456 453
f 455 453 454
f 454 451 450
f 454 450 457
f 457 458 455
f 457 455 454
f 449 459 460
f 449 460 461
f 450 449 461
f 450 461 462
f 463 462 461
f 463 461 464
f 463 464 465
f 463 465 466
f 457 450 462
f 457 462 467
f 463 466 468
f 463 468 469
f 467 462 463
f 467 463 469
f 458 457 467
f 458 467 470
f 471 470 467
f 471 467 469
f 471 469 468
f 471 468 472
f 473 274 299
f 473 299 474
f 475 476 473
f 475 473 474
f 277 275 274
f 277 274 473
f 477 478 277
f 477 277 473
f 476 460 477
f 476 477 473
f 476 475 465
f 476 465 464
f 464 461 460
f 464 460 476
f 479 470 471
f 479 471 480
f 471 472 481
f 471 481 480
f 458 470 479
f 458 479 482
f 483 455 458
f 483 458 482
f 484 456 455
f 484 455 483
f 485 477 460
f 485 460 459
f 445 459 449
f 445 449 446
f 444 212 211
f 444 211 486
f 487 431 436
f 487 436 444
f 210 209 488
f 210 488 489
f 486 211 210
f 486 210 489
f 488 209 208
f 488 208 490
f 432 431 487
f 432 487 491
f 492 487 444
f 492 444 486
f 493 491 487
f 493 487 492
f 490 208 207
f 490 207 494
f 478 477 485
f 478 485 495
f 495 485 496
f 495 496 497
f 276 277 478
f 276 478 495
f 497 498 276
f 497 276 495
f 206 205 279
f 206 279 498
f 498 279 272
f 498 272 276
f 494 207 206
f 494 206 498
f 497 490 494
f 497 494 498
f 496 485 459
f 496 459 445
f 445 448 499
f 445 499 496
f 496 499 491
f 496 491 493
f 496 493 492
f 496 492 497
f 497 492 486
f 497 486 489
f 497 489 488
f 497 488 490
f 189 188 190
f 189 190 500
f 501 190 159
f 501 159 161
f 502 501 161
f 502 161 162
f 502 162 13
f 502 13 503
f 504 503 13
f 504 13 14
f 192 184 189
f 192 189 500
f 500 190 501
f 500 501 505
f 506 507 191
f 506 191 192
f 506 192 500
f 506 500 505
f 505 501 502
f 505 502 508
f 509 510 507
f 509 507 506
f 509 506 505
f 509 505 508
f 511 508 502
f 511 502 503
f 512 513 510
f 512 510 509
f 512 509 508
f 512 508 511
f 514 18 21
f 514 21 515
f 516 504 14
f 516 14 17
f 516 17 18
f 516 18 514
f 517 511 503
f 517 503 504
f 517 504 516
f 517 516 518
f 519 520 513
f 519 513 512
f 521 522 520
f 521 520 519
f 519 512 511
f 519 511 517
f 519 517 518
f 519 518 521
f 518 516 514
f 518 514 521
f 521 514 515
f 521 515 522
f 523 524 525
f 523 525 526
f 526 525 527
f 526 527 528
f 529 530 531
f 529 531 532
f 532 533 534
f 532 534 529
f 528 527 533
f 528 533 532
f 531 530 535
f 531 535 536
f 537 538 534
f 537 534 533
f 527 539 537
f 527 537 533
f 525 524 540
f 525 540 541
f 525 541 539
f 525 539 527
f 542 543 530
f 542 530 529
f 529 534 544
f 529 544 542
f 530 543 545
f 530 545 546
f 530 546 547
f 530 547 535
f 534 538 548
f 534 548 544
f 544 549 543
f 544 543 542
f 549 550 545
f 549 545 543
f 550 551 546
f 550 546 545
f 535 552 553
f 535 553 536
f 552 554 555
f 552 555 553
f 556 557 558
f 556 558 559
f 559 555 554
f 559 554 556
f 557 560 561
f 557 561 558
f 551 562 547
f 551 547 546
f 562 563 564
f 562 564 547
f 547 564 552
f 547 552 535
f 564 563 565
f 564 565 566
f 564 566 554
f 564 554 552
f 567 566 565
f 567 565 568
f 556 554 566
f 556 566 567
f 567 568 569
f 567 569 570
f 567 570 557
f 567 557 556
f 571 572 573
f 571 573 574
f 574 573 575
f 574 575 576
f 574 577 578
f 574 578 571
f 579 580 577
f 579 577 574
f 576 581 579
f 576 579 574
f 572 582 583
f 572 583 573
f 573 583 584
f 573 584 575
f 538 537 585
f 538 585 586
f 586 585 587
f 586 587 588
f 586 589 590
f 586 590 538
f 588 591 589
f 588 589 586
f 582 592 593
f 582 593 583
f 583 593 594
f 583 594 595
f 583 595 596
f 583 596 584
f 593 592 597
f 593 597 598
f 593 598 599
f 593 599 594
f 577 600 601
f 577 601 578
f 580 602 600
f 580 600 577
f 600 603 604
f 600 604 601
f 602 605 603
f 602 603 600
f 603 606 607
f 603 607 604
f 605 608 606
f 605 606 603
f 606 609 610
f 606 610 607
f 608 611 609
f 608 609 606
f 609 612 613
f 609 613 610
f 611 614 612
f 611 612 609
f 615 616 613
f 615 613 612
f 614 617 615
f 614 615 612
f 604 607 610
f 604 610 618
f 618 619 601
f 618 601 604
f 610 613 616
f 610 616 618
f 619 620 578
f 619 578 601
f 620 572 571
f 620 571 578
f 620 592 582
f 620 582 572
f 616 615 598
f 616 598 597
f 616 597 619
f 616 619 618
f 617 599 598
f 617 598 615
f 597 592 620
f 597 620 619
f 621 622 595
f 621 595 594
f 594 599 623
f 594 623 621
f 622 624 596
f 622 596 595
f 599 617 625
f 599 625 623
f 617 614 626
f 617 626 625
f 614 611 627
f 614 627 626
f 628 627 611
f 628 611 608
f 608 605 629
f 608 629 628
f 605 602 630
f 605 630 629
f 580 579 631
f 580 631 632
f 632 633 602
f 632 602 580
f 581 634 631
f 581 631 579
f 524 523 635
f 524 635 636
f 636 637 540
f 636 540 524
f 584 596 638
f 584 638 639
f 639 638 640
f 639 640 641
f 642 575 584
f 642 584 639
f 641 539 642
f 641 642 639
f 638 596 624
f 638 624 643
f 638 643 644
f 638 644 640
f 585 537 539
f 585 539 641
f 641 640 587
f 641 587 585
f 645 646 590
f 645 590 589
f 589 591 647
f 589 647 645
f 590 646 648
f 590 648 649
f 590 649 548
f 590 548 538
f 539 541 650
f 539 650 642
f 642 650 576
f 642 576 575
f 541 540 651
f 541 651 650
f 650 651 581
f 650 581 576
f 651 540 637
f 651 637 652
f 651 652 634
f 651 634 581
f 653 654 655
f 653 655 656
f 657 644 654
f 657 654 653
f 653 656 658
f 653 658 659
f 653 659 660
f 653 660 657
f 661 662 655
f 661 655 654
f 644 643 661
f 644 661 654
f 663 664 665
f 663 665 666
f 658 656 664
f 658 664 663
f 663 666 667
f 663 667 668
f 668 669 658
f 668 658 663
f 664 670 671
f 664 671 665
f 656 655 670
f 656 670 664
f 672 673 671
f 672 671 670
f 670 655 674
f 670 674 672
f 675 676 665
f 675 665 671
f 673 677 675
f 673 675 671
f 676 678 666
f 676 666 665
f 666 678 679
f 666 679 667
f 680 681 676
f 680 676 675
f 677 682 680
f 677 680 675
f 681 683 678
f 681 678 676
f 678 683 684
f 678 684 679
f 683 681 685
f 683 685 686
f 683 686 687
f 683 687 684
f 681 680 688
f 681 688 685
f 680 647 591
f 680 591 688
f 682 689 647
f 682 647 680
f 689 690 645
f 689 645 647
f 691 692 693
f 691 693 694
f 689 682 692
f 689 692 691
f 694 695 696
f 694 696 691
f 691 696 690
f 691 690 689
f 692 697 698
f 692 698 693
f 682 677 697
f 682 697 692
f 697 699 700
f 697 700 698
f 677 673 699
f 677 699 697
f 699 701 702
f 699 702 700
f 673 672 701
f 673 701 699
f 703 704 702
f 703 702 701
f 672 674 703
f 672 703 701
f 696 695 705
f 696 705 706
f 696 706 707
f 696 707 708
f 708 709 690
f 708 690 696
f 710 711 712
f 710 712 713
f 714 715 711
f 714 711 710
f 710 713 716
f 710 716 717
f 717 709 714
f 717 714 710
f 694 693 718
f 694 718 719
f 694 719 720
f 694 720 695
f 693 698 721
f 693 721 718
f 698 700 722
f 698 722 721
f 700 702 723
f 700 723 722
f 702 704 724
f 702 724 723
f 655 662 725
f 655 725 674
f 726 727 662
f 726 662 661
f 661 643 624
f 661 624 726
f 728 729 704
f 728 704 703
f 674 725 728
f 674 728 703
f 704 729 730
f 704 730 724
f 623 625 731
f 623 731 732
f 732 733 621
f 732 621 623
f 625 626 734
f 625 734 731
f 602 633 735
f 602 735 630
f 632 631 736
f 632 736 737
f 632 737 738
f 632 738 633
f 634 739 736
f 634 736 631
f 662 727 740
f 662 740 725
f 741 742 729
f 741 729 728
f 725 740 741
f 725 741 728
f 742 743 730
f 742 730 729
f 722 744 745
f 722 745 721
f 723 746 744
f 723 744 722
f 747 748 745
f 747 745 744
f 746 749 747
f 746 747 744
f 721 745 750
f 721 750 718
f 748 751 750
f 748 750 745
f 752 753 718
f 752 718 750
f 750 751 754
f 750 754 752
f 755 748 747
f 755 747 756
f 756 747 749
f 756 749 757
f 758 759 755
f 758 755 756
f 757 760 758
f 757 758 756
f 753 761 719
f 753 719 718
f 719 761 762
f 719 762 720
f 755 759 763
f 755 763 764
f 755 764 751
f 755 751 748
f 765 766 763
f 765 763 759
f 758 767 765
f 758 765 759
f 768 769 764
f 768 764 763
f 763 766 770
f 763 770 768
f 769 754 751
f 769 751 764
f 771 772 773
f 771 773 774
f 774 773 775
f 774 775 776
f 777 778 771
f 777 771 774
f 774 776 779
f 774 779 777
f 761 773 772
f 761 772 762
f 753 775 773
f 753 773 761
f 780 781 766
f 780 766 765
f 767 782 780
f 767 780 765
f 766 781 783
f 766 783 770
f 781 780 784
f 781 784 785
f 781 785 786
f 781 786 783
f 782 787 784
f 782 784 780
f 785 784 788
f 785 788 789
f 785 789 790
f 785 790 786
f 784 787 791
f 784 791 788
f 758 760 792
f 758 792 767
f 793 794 757
f 793 757 749
f 746 795 793
f 746 793 749
f 794 796 760
f 794 760 757
f 760 796 797
f 760 797 792
f 798 799 794
f 798 794 793
f 793 795 800
f 793 800 798
f 799 801 796
f 799 796 794
f 796 801 802
f 796 802 797
f 795 724 803
f 795 803 800
f 746 723 724
f 746 724 795
f 724 730 804
f 724 804 803
f 730 805 806
f 730 806 804
f 743 807 805
f 743 805 730
f 808 809 806
f 808 806 805
f 807 738 808
f 807 808 805
f 806 809 810
f 806 810 811
f 806 811 812
f 806 812 813
f 813 814 804
f 813 804 806
f 815 816 800
f 815 800 803
f 803 804 814
f 803 814 815
f 816 817 798
f 816 798 800
f 817 818 799
f 817 799 798
f 818 819 801
f 818 801 799
f 819 820 802
f 819 802 801
f 767 792 821
f 767 821 782
f 792 797 822
f 792 822 821
f 797 802 823
f 797 823 822
f 802 820 824
f 802 824 823
f 825 787 782
f 825 782 821
f 821 822 826
f 821 826 825
f 827 828 810
f 827 810 809
f 809 808 829
f 809 829 827
f 812 830 831
f 812 831 813
f 832 833 831
f 832 831 830
f 834 835 836
f 834 836 837
f 837 838 839
f 837 839 834
f 835 840 841
f 835 841 836
f 842 843 820
f 842 820 819
f 819 818 844
f 819 844 842
f 843 845 824
f 843 824 820
f 840 846 847
f 840 847 841
f 847 848 823
f 847 823 824
f 845 841 847
f 845 847 824
f 822 823 848
f 822 848 826
f 787 825 849
f 787 849 791
f 825 826 850
f 825 850 849
f 826 848 851
f 826 851 850
f 848 847 846
f 848 846 851
f 808 738 852
f 808 852 829
f 652 637 853
f 652 853 854
f 652 854 739
f 652 739 634
f 637 636 855
f 637 855 853
f 636 635 856
f 636 856 855
f 738 737 857
f 738 857 852
f 807 735 633
f 807 633 738
f 737 736 707
f 737 707 857
f 739 858 707
f 739 707 736
f 854 853 859
f 854 859 860
f 860 858 739
f 860 739 854
f 853 855 861
f 853 861 859
f 855 856 862
f 855 862 861
f 863 864 827
f 863 827 829
f 852 865 863
f 852 863 829
f 864 866 828
f 864 828 827
f 867 868 869
f 867 869 870
f 871 734 868
f 871 868 867
f 867 870 872
f 867 872 873
f 873 874 871
f 873 871 867
f 627 628 869
f 627 869 868
f 627 868 734
f 627 734 626
f 628 629 630
f 628 630 869
f 870 869 630
f 870 630 735
f 807 872 870
f 807 870 735
f 769 768 875
f 769 875 876
f 769 876 877
f 769 877 754
f 768 770 878
f 768 878 875
f 770 783 879
f 770 879 878
f 783 786 880
f 783 880 879
f 786 790 881
f 786 881 880
f 882 883 880
f 882 880 881
f 883 884 879
f 883 879 880
f 884 885 878
f 884 878 879
f 885 886 875
f 885 875 878
f 886 887 876
f 886 876 875
f 887 888 877
f 887 877 876
f 877 888 889
f 877 889 890
f 877 890 752
f 877 752 754
f 891 892 772
f 891 772 771
f 778 893 891
f 778 891 771
f 772 892 894
f 772 894 762
f 887 886 895
f 887 895 896
f 896 897 888
f 896 888 887
f 886 885 898
f 886 898 895
f 885 884 899
f 885 899 898
f 884 883 900
f 884 900 899
f 883 882 901
f 883 901 900
f 695 720 902
f 695 902 705
f 711 903 904
f 711 904 712
f 715 905 903
f 715 903 711
f 903 906 907
f 903 907 904
f 905 908 906
f 905 906 903
f 909 910 907
f 909 907 906
f 908 911 909
f 908 909 906
f 894 902 720
f 894 720 762
f 706 705 912
f 706 912 913
f 706 913 857
f 706 857 707
f 705 902 914
f 705 914 912
f 902 894 915
f 902 915 914
f 857 913 865
f 857 865 852
f 863 865 913
f 863 913 912
f 912 914 864
f 912 864 863
f 915 866 864
f 915 864 914
f 669 916 659
f 669 659 658
f 917 918 919
f 917 919 920
f 921 922 918
f 921 918 917
f 917 920 923
f 917 923 858
f 917 858 860
f 917 860 921
f 920 919 924
f 920 924 925
f 925 714 923
f 925 923 920
f 926 927 562
f 926 562 551
f 551 550 928
f 551 928 926
f 927 929 563
f 927 563 562
f 930 931 927
f 930 927 926
f 926 932 933
f 926 933 930
f 931 934 929
f 931 929 927
f 929 935 565
f 929 565 563
f 934 936 935
f 934 935 929
f 936 937 938
f 936 938 935
f 939 940 941
f 939 941 942
f 940 938 937
f 940 937 941
f 565 935 938
f 565 938 568
f 943 944 945
f 943 945 946
f 946 945 947
f 946 947 948
f 946 949 950
f 946 950 943
f 948 648 949
f 948 949 946
f 944 951 952
f 944 952 945
f 945 952 953
f 945 953 947
f 949 954 955
f 949 955 950
f 648 646 954
f 648 954 949
f 646 716 955
f 646 955 954
f 955 956 957
f 955 957 950
f 716 713 956
f 716 956 955
f 713 712 957
f 713 957 956
f 957 958 943
f 957 943 950
f 712 904 958
f 712 958 957
f 958 959 944
f 958 944 943
f 904 907 959
f 904 959 958
f 959 960 951
f 959 951 944
f 907 910 960
f 907 960 959
f 910 961 951
f 910 951 960
f 961 953 952
f 961 952 951
f 962 963 964
f 962 964 965
f 966 967 962
f 966 962 965
f 963 900 901
f 963 901 964
f 897 968 889
f 897 889 888
f 893 778 969
f 893 969 970
f 889 776 775
f 889 775 890
f 968 779 776
f 968 776 889
f 753 752 890
f 753 890 775
f 963 971 899
f 963 899 900
f 971 895 898
f 971 898 899
f 971 972 896
f 971 896 895
f 972 973 897
f 972 897 896
f 973 974 968
f 973 968 897
f 974 777 779
f 974 779 968
f 974 969 778
f 974 778 777
f 963 962 972
f 963 972 971
f 967 973 972
f 967 972 962
f 973 967 969
f 973 969 974
f 967 966 970
f 967 970 969
f 814 975 816
f 814 816 815
f 975 976 817
f 975 817 816
f 976 844 818
f 976 818 817
f 648 948 977
f 648 977 649
f 645 690 716
f 645 716 646
f 716 690 709
f 716 709 717
f 909 978 961
f 909 961 910
f 978 979 953
f 978 953 961
f 979 980 947
f 979 947 953
f 980 977 948
f 980 948 947
f 813 831 975
f 813 975 814
f 833 976 975
f 833 975 831
f 838 833 832
f 838 832 839
f 733 981 622
f 733 622 621
f 981 726 624
f 981 624 622
f 982 983 588
f 982 588 587
f 640 644 982
f 640 982 587
f 983 688 591
f 983 591 588
f 649 977 984
f 649 984 548
f 707 858 923
f 707 923 708
f 977 980 985
f 977 985 984
f 980 979 986
f 980 986 985
f 979 978 987
f 979 987 986
f 978 909 911
f 978 911 987
f 988 989 933
f 988 933 990
f 990 933 932
f 990 932 991
f 991 908 905
f 991 905 990
f 990 905 715
f 990 715 988
f 550 549 984
f 550 984 928
f 548 984 549
f 548 549 544
f 984 985 986
f 984 986 928
f 986 987 911
f 986 911 928
f 911 908 991
f 911 991 928
f 715 714 925
f 715 925 988
f 709 708 923
f 709 923 714
f 743 742 872
f 743 872 807
f 871 992 731
f 871 731 734
f 992 733 732
f 992 732 731
f 992 993 981
f 992 981 733
f 993 727 726
f 993 726 981
f 874 993 992
f 874 992 871
f 742 741 873
f 742 873 872
f 741 740 874
f 741 874 873
f 740 727 993
f 740 993 874
f 994 995 983
f 994 983 982
f 982 644 657
f 982 657 994
f 995 685 688
f 995 688 983
f 916 996 660
f 916 660 659
f 997 998 995
f 997 995 994
f 999 1000 998
f 999 998 997
f 994 657 660
f 994 660 997
f 997 660 996
f 997 996 999
f 998 686 685
f 998 685 995
f 1000 687 686
f 1000 686 998
f 1001 1002 1000
f 1001 1000 999
f 999 996 1003
f 999 1003 1001
f 1002 1004 687
f 1002 687 1000
f 996 916 1005
f 996 1005 1003
f 1004 1006 684
f 1004 684 687
f 916 669 1007
f 916 1007 1005
f 669 668 1008
f 669 1008 1007
f 668 667 1009
f 668 1009 1008
f 667 679 1010
f 667 1010 1009
f 679 684 1006
f 679 1006 1010
f 1011 1012 1008
f 1011 1008 1009
f 1009 1010 1013
f 1009 1013 1011
f 1012 1014 1007
f 1012 1007 1008
f 1010 1006 1015
f 1010 1015 1013
f 1006 1004 1016
f 1006 1016 1015
f 1014 1017 1005
f 1014 1005 1007
f 1017 1018 1003
f 1017 1003 1005
f 1001 1003 1018
f 1001 1018 1019
f 1019 1020 1002
f 1019 1002 1001
f 1020 1016 1004
f 1020 1004 1002
f 1021 1022 1020
f 1021 1020 1019
f 1019 1018 1023
f 1019 1023 1021
f 1022 1024 1016
f 1022 1016 1020
f 1024 1025 1015
f 1024 1015 1016
f 1018 1017 1026
f 1018 1026 1023
f 1017 1014 1027
f 1017 1027 1026
f 1014 1012 1028
f 1014 1028 1027
f 1012 1011 1029
f 1012 1029 1028
f 1011 1013 1030
f 1011 1030 1029
f 1013 1015 1025
f 1013 1025 1030
f 1031 1032 1022
f 1031 1022 1021
f 1021 1023 1033
f 1021 1033 1031
f 1032 1034 1024
f 1032 1024 1022
f 1023 1026 1035
f 1023 1035 1033
f 1026 1027 1036
f 1026 1036 1035
f 1034 1037 1025
f 1034 1025 1024
f 1037 1038 1030
f 1037 1030 1025
f 1038 1039 1029
f 1038 1029 1030
f 1039 1040 1028
f 1039 1028 1029
f 1040 1036 1027
f 1040 1027 1028
f 1041 1034 1032
f 1041 1032 1031
f 1031 1033 1035
f 1031 1035 1041
f 1036 1042 1041
f 1036 1041 1035
f 1042 1037 1034
f 1042 1034 1041
f 1036 1040 1039
f 1036 1039 1042
f 1042 1039 1038
f 1042 1038 1037
f 859 861 921
f 859 921 860
f 861 862 922
f 861 922 921
f 925 924 989
f 925 989 988
f 938 940 569
f 938 569 568
f 1043 1044 570
f 1043 570 569
f 940 939 1043
f 940 1043 569
f 570 1044 560
f 570 560 557
f 926 928 991
f 926 991 932
f 833 838 844
f 833 844 976
f 838 837 842
f 838 842 844
f 837 836 843
f 837 843 842
f 843 836 841
f 843 841 845
f 1045 90 94
f 1045 94 1046
f 1047 812 811
f 1047 811 1046
f 1046 94 185
f 1046 185 1047
f 1048 830 812
f 1048 812 1047
f 835 834 1049
f 835 1049 1050
f 1050 520 522
f 1050 522 1051
f 840 835 1050
f 840 1050 1051
f 1051 522 515
f 1051 515 1052
f 846 840 1051
f 846 1051 1052
f 1052 515 21
f 1052 21 1053
f 1053 851 846
f 1053 846 1052
f 1053 21 20
f 1053 20 1054
f 1054 850 851
f 1054 851 1053
f 1054 20 23
f 1054 23 1055
f 849 850 1054
f 849 1054 1055
f 1055 23 26
f 1055 26 1056
f 791 849 1055
f 791 1055 1056
f 1056 26 29
f 1056 29 1057
f 788 791 1056
f 788 1056 1057
f 1046 811 810
f 1046 810 1045
f 1057 29 40
f 1057 40 1058
f 789 788 1057
f 789 1057 1058
f 1058 40 41
f 1058 41 1059
f 790 789 1058
f 790 1058 1059
f 1060 891 893
f 1060 893 1061
f 1059 41 53
f 1059 53 1062
f 881 790 1059
f 881 1059 1062
f 1060 125 60
f 1060 60 1063
f 1063 892 891
f 1063 891 1060
f 1064 88 90
f 1064 90 1045
f 1064 1045 810
f 1064 810 828
f 1063 60 59
f 1063 59 1065
f 894 892 1063
f 894 1063 1065
f 1066 63 67
f 1066 67 1067
f 1067 67 88
f 1067 88 1064
f 1067 1064 828
f 1067 828 866
f 1067 866 915
f 1067 915 1066
f 1065 59 63
f 1065 63 1066
f 915 894 1065
f 915 1065 1066
f 1062 53 115
f 1062 115 1068
f 882 881 1062
f 882 1062 1068
f 1069 127 130
f 1069 130 1070
f 1070 964 901
f 1070 901 1069
f 1068 115 127
f 1068 127 1069
f 901 882 1068
f 901 1068 1069
f 1070 130 129
f 1070 129 1071
f 1071 965 964
f 1071 964 1070
f 1061 153 125
f 1061 125 1060
f 1061 893 970
f 1061 970 1072
f 1071 129 152
f 1071 152 1073
f 1073 152 154
f 1073 154 1072
f 966 965 1071
f 966 1071 1073
f 1072 970 966
f 1072 966 1073
f 1072 154 153
f 1072 153 1061
f 1049 513 520
f 1049 520 1050
f 1049 834 839
f 1049 839 1074
f 1047 185 191
f 1047 191 1048
f 1075 832 830
f 1075 830 1048
f 1074 510 513
f 1074 513 1049
f 1075 507 510
f 1075 510 1074
f 1074 839 832
f 1074 832 1075
f 1048 191 507
f 1048 507 1075
f 1076 474 299
f 1076 299 1077
f 1076 531 536
f 1076 536 1078
f 1078 475 474
f 1078 474 1076
f 1078 536 553
f 1078 553 1079
f 1080 1081 558
f 1080 558 561
f 1081 1082 559
f 1081 559 558
f 1083 523 526
f 1083 526 1084
f 1083 34 35
f 1083 35 1085
f 635 523 1083
f 635 1083 1085
f 931 930 1086
f 931 1086 1087
f 1087 448 447
f 1087 447 1088
f 934 931 1087
f 934 1087 1088
f 1088 447 452
f 1088 452 1089
f 936 934 1088
f 936 1088 1089
f 1089 452 453
f 1089 453 1090
f 937 936 1089
f 937 1089 1090
f 1091 942 941
f 1091 941 1092
f 1090 453 456
f 1090 456 1092
f 1092 941 937
f 1092 937 1090
f 1079 465 475
f 1079 475 1078
f 1079 553 555
f 1079 555 1093
f 1081 472 468
f 1081 468 1082
f 1082 468 466
f 1082 466 1093
f 1093 555 559
f 1093 559 1082
f 1093 466 465
f 1093 465 1079
f 1086 499 448
f 1086 448 1087
f 1086 930 933
f 1086 933 1094
f 1084 297 34
f 1084 34 1083
f 1084 526 528
f 1084 528 1095
f 1077 299 300
f 1077 300 1095
f 1077 532 531
f 1077 531 1076
f 1095 528 532
f 1095 532 1077
f 1095 300 297
f 1095 297 1084
f 1096 918 922
f 1096 922 1097
f 1085 35 423
f 1085 423 1098
f 856 635 1085
f 856 1085 1098
f 1097 424 425
f 1097 425 1096
f 1099 426 424
f 1099 424 1097
f 1097 922 862
f 1097 862 1099
f 1098 423 426
f 1098 426 1099
f 862 856 1098
f 862 1098 1099
f 1096 425 427
f 1096 427 1100
f 919 918 1096
f 919 1096 1100
f 1094 491 499
f 1094 499 1086
f 1094 933 989
f 1094 989 1101
f 1100 427 429
f 1100 429 1102
f 1102 429 432
f 1102 432 1101
f 924 919 1100
f 924 1100 1102
f 1101 989 924
f 1101 924 1102
f 1101 432 491
f 1101 491 1094
f 1080 481 472
f 1080 472 1081
f 1103 480 481
f 1103 481 1080
f 1080 561 560
f 1080 560 1103
f 1104 479 480
f 1104 480 1103
f 1103 560 1044
f 1103 1044 1104
f 1105 482 479
f 1105 479 1104
f 1104 1044 1043
f 1104 1043 1105
f 1092 456 484
f 1092 484 1091
f 1091 484 483
f 1091 483 1106
f 1106 939 942
f 1106 942 1091
f 1106 483 482
f 1106 482 1105
f 1105 1043 939
f 1105 939 1106
