# L3 rest
v -0.006510 -0.126629 -0.039128
v -0.006144 -0.127850 -0.039346
v -0.007731 -0.131258 -0.040801
v -0.008399 -0.130856 -0.040860
v -0.010916 -0.135484 -0.041921
v -0.009947 -0.135524 -0.042259
v -0.010201 -0.139731 -0.042698
v -0.011170 -0.139908 -0.042421
v -0.011235 -0.113088 -0.010312
v -0.010783 -0.117466 -0.010478
v -0.008173 -0.114826 -0.006752
v -0.008347 -0.110031 -0.006654
v -0.009839 -0.110933 -0.010893
v -0.007126 -0.108060 -0.007609
v -0.004491 -0.112767 -0.004049
v -0.004349 -0.107946 -0.004192
v -0.003542 -0.105954 -0.005336
v 0.000410 -0.104164 -0.004426
v 0.000049 -0.106225 -0.003075
v 0.004217 -0.104940 -0.002487
v 0.004558 -0.102728 -0.004075
v -0.000322 -0.111162 -0.002671
v 0.003707 -0.110049 -0.002112
v -0.004802 -0.118946 -0.003724
v -0.000792 -0.117338 -0.002250
v 0.003191 -0.116273 -0.001672
v -0.005295 -0.125594 -0.003132
v -0.001305 -0.123937 -0.001614
v 0.002700 -0.122843 -0.001038
v 0.002710 -0.139645 -0.041001
v 0.001560 -0.138886 -0.039883
v 0.002391 -0.135980 -0.038366
v 0.003275 -0.136538 -0.038754
v 0.004238 -0.139293 -0.041781
v 0.004652 -0.136633 -0.039156
v -0.008852 -0.127643 -0.006041
v -0.009500 -0.134735 -0.005352
v -0.005779 -0.132491 -0.002390
v -0.001776 -0.130692 -0.000953
v 0.002231 -0.129557 -0.000395
v 0.001893 -0.135761 -0.000196
v -0.002007 -0.136757 -0.000839
v -0.005937 -0.138557 -0.002095
v -0.009913 -0.141352 -0.004643
v -0.012310 -0.137228 -0.009567
v -0.012963 -0.144143 -0.009036
v -0.013770 -0.139915 -0.014147
v -0.014084 -0.146727 -0.013870
v -0.009133 -0.143752 -0.005397
v -0.011992 -0.146319 -0.009563
v -0.005458 -0.141111 -0.003089
v -0.001735 -0.139702 -0.002111
v 0.001965 -0.138866 -0.001513
v -0.003739 -0.141045 -0.030317
v -0.005468 -0.139915 -0.031456
v -0.004034 -0.136545 -0.031149
v -0.001919 -0.136788 -0.029465
v -0.000520 -0.145730 -0.029564
v 0.002647 -0.142372 -0.028875
v 0.002918 -0.146121 -0.027810
v -0.000047 -0.147983 -0.028208
v -0.000523 -0.132078 -0.028974
v 0.003319 -0.131660 -0.028463
v -0.003145 -0.133562 -0.030753
v 0.000049 -0.126870 -0.029138
v -0.002459 -0.129437 -0.030545
v 0.003799 -0.125040 -0.028887
v -0.004622 -0.125547 -0.038048
v -0.003954 -0.123428 -0.037602
v -0.002765 -0.123222 -0.036724
v -0.003881 -0.125577 -0.037432
v -0.006259 -0.129730 -0.039334
v -0.008422 -0.134371 -0.041537
v -0.008658 -0.137689 -0.041969
v -0.001762 -0.124722 -0.036341
v -0.002895 -0.126649 -0.037221
v -0.005979 -0.132426 -0.039619
v -0.002142 -0.129890 -0.037266
v -0.003186 -0.130755 -0.037787
v -0.007508 -0.140086 -0.041216
v -0.008334 -0.142496 -0.041408
v -0.009598 -0.142303 -0.042371
v -0.008321 -0.139443 -0.041795
v -0.005879 -0.134914 -0.039728
v -0.005663 -0.136968 -0.039705
v -0.003815 -0.133814 -0.038354
v 0.000285 -0.121498 -0.029371
v 0.004242 -0.118695 -0.028837
v -0.000140 -0.117202 -0.028799
v 0.004219 -0.113905 -0.028170
v -0.011437 -0.129981 -0.010019
v -0.012659 -0.132385 -0.014368
v -0.008355 -0.121039 -0.006477
v 0.003837 -0.111640 -0.026711
v -0.001158 -0.114865 -0.027520
v -0.011998 -0.126020 -0.014447
v -0.010864 -0.123551 -0.010285
v -0.011888 -0.119974 -0.014441
v -0.012041 -0.115185 -0.014281
v -0.005753 -0.143906 -0.030994
v -0.007197 -0.141558 -0.031271
v -0.013102 -0.148353 -0.014051
v -0.008271 -0.143842 -0.030269
v -0.010312 -0.137148 -0.027522
v -0.011119 -0.137734 -0.029088
v -0.009256 -0.141188 -0.030329
v -0.011729 -0.144781 -0.024990
v -0.011581 -0.136969 -0.023788
v -0.008202 -0.152583 -0.029882
v -0.011500 -0.151199 -0.025053
v -0.007539 -0.153894 -0.027841
v -0.010586 -0.152668 -0.024278
v -0.003863 -0.149446 -0.030292
v -0.003416 -0.151029 -0.028655
v 0.002140 -0.139582 -0.003741
v -0.001016 -0.139996 -0.004325
v -0.004302 -0.141032 -0.005368
v -0.007594 -0.143239 -0.007325
v -0.010112 -0.145591 -0.010688
v -0.011150 -0.147523 -0.014351
v -0.006434 -0.152100 -0.026003
v -0.009288 -0.151890 -0.023362
v -0.003092 -0.149431 -0.026795
v -0.000069 -0.146804 -0.026435
v 0.002907 -0.145022 -0.025808
v -0.000338 -0.138489 -0.007643
v 0.002423 -0.137835 -0.007337
v -0.000784 -0.140060 -0.014992
v 0.002295 -0.139250 -0.014982
v 0.002325 -0.137968 -0.011448
v -0.000613 -0.138823 -0.011629
v -0.003198 -0.139699 -0.008288
v -0.005932 -0.141628 -0.009230
v -0.003761 -0.140257 -0.011669
v -0.007623 -0.143283 -0.011580
v -0.008738 -0.145259 -0.014666
v -0.004052 -0.141444 -0.014906
v -0.013639 -0.142482 -0.018943
v -0.012598 -0.134785 -0.018828
v -0.013837 -0.149004 -0.019036
v -0.012647 -0.150436 -0.019038
v -0.011091 -0.149849 -0.018966
v -0.008855 -0.147957 -0.018818
v -0.007205 -0.149239 -0.022468
v -0.005250 -0.148938 -0.024429
v -0.003893 -0.142872 -0.018436
v -0.002629 -0.145967 -0.024620
v -0.003280 -0.143864 -0.021789
v -0.000619 -0.141055 -0.018467
v -0.000085 -0.143848 -0.024245
v -0.000359 -0.141697 -0.021558
v 0.002348 -0.140439 -0.018518
v 0.002743 -0.143020 -0.024040
v 0.002534 -0.141200 -0.021665
v -0.011442 -0.130465 -0.023097
v -0.012108 -0.128228 -0.018646
v -0.012306 -0.122430 -0.018562
v -0.012440 -0.117352 -0.018388
v -0.009606 -0.115616 -0.021846
v -0.011700 -0.119097 -0.022443
v -0.010573 -0.114378 -0.018309
v -0.010602 -0.112695 -0.014512
v -0.006279 -0.153672 -0.035824
v -0.007655 -0.154726 -0.037053
v -0.008763 -0.159302 -0.038200
v -0.006286 -0.157712 -0.036815
v -0.003396 -0.157499 -0.034378
v -0.004455 -0.154148 -0.034678
v -0.003206 -0.162594 -0.035000
v -0.005813 -0.164755 -0.037953
v -0.003544 -0.167453 -0.035834
v -0.005951 -0.169099 -0.038386
v -0.007063 -0.173063 -0.037868
v -0.004829 -0.171399 -0.036573
v -0.009343 -0.169550 -0.039082
v -0.008687 -0.172963 -0.038895
v -0.009540 -0.165020 -0.039008
v -0.010691 -0.132099 -0.026580
v -0.011351 -0.133526 -0.028563
v -0.011921 -0.124811 -0.022711
v -0.010794 -0.127226 -0.026252
v -0.009792 -0.120442 -0.025945
v -0.011153 -0.129524 -0.028388
v -0.001094 -0.113040 -0.025628
v 0.003540 -0.110868 -0.025282
v -0.005146 -0.116510 -0.026712
v -0.007739 -0.116406 -0.024696
v -0.006447 -0.114604 -0.023672
v -0.004232 -0.114213 -0.024973
v -0.007739 -0.113878 -0.021199
v 0.003510 -0.109930 -0.023047
v -0.000976 -0.111209 -0.022822
v -0.010510 -0.142529 -0.041949
v -0.009553 -0.142190 -0.040715
v -0.002579 -0.156519 -0.033761
v -0.004161 -0.152720 -0.034237
v -0.002466 -0.162522 -0.034231
v -0.002888 -0.167896 -0.035453
v -0.009946 -0.171768 -0.040401
v -0.009956 -0.166226 -0.040223
v -0.008700 -0.159774 -0.039061
v -0.008679 -0.174819 -0.039743
v -0.006519 -0.174917 -0.038465
v -0.004044 -0.172298 -0.037056
v -0.007032 -0.160220 -0.039554
v -0.008054 -0.166188 -0.040574
v -0.008020 -0.171146 -0.040697
v -0.007056 -0.174323 -0.040097
v -0.005525 -0.174598 -0.039130
v -0.003353 -0.172059 -0.037866
v -0.001744 -0.167745 -0.036580
v -0.001107 -0.162447 -0.035433
v -0.001448 -0.157351 -0.035054
v -0.006665 -0.140111 -0.039437
v -0.007939 -0.139213 -0.038638
v -0.005218 -0.138472 -0.039765
v -0.002938 -0.134135 -0.038026
v -0.004451 -0.138894 -0.039128
v -0.002349 -0.136831 -0.038520
v -0.001399 -0.132855 -0.037126
v -0.000268 -0.134826 -0.037718
v 0.000523 -0.136819 -0.038622
v -0.001380 -0.139657 -0.039589
v 0.001619 -0.135024 -0.037842
v -0.000704 -0.132354 -0.036472
v 0.000779 -0.133844 -0.037189
v -0.001795 -0.130546 -0.036142
v -0.002133 -0.131487 -0.034944
v -0.001022 -0.134353 -0.035861
v -0.004112 -0.121803 -0.029945
v -0.002920 -0.122896 -0.030302
v -0.002298 -0.125440 -0.030610
v -0.003222 -0.127053 -0.033276
v -0.002935 -0.126914 -0.034963
v -0.003314 -0.131470 -0.032014
v -0.003790 -0.135037 -0.032866
v -0.003025 -0.134482 -0.034171
v -0.003127 -0.129027 -0.032666
v -0.005185 -0.122754 -0.036767
v -0.003553 -0.122424 -0.035870
v -0.007585 -0.125880 -0.038501
v -0.009511 -0.130440 -0.040380
v -0.008836 -0.125786 -0.037259
v -0.006492 -0.122985 -0.035794
v -0.008029 -0.124446 -0.034773
v -0.009861 -0.126636 -0.035763
v -0.010882 -0.130249 -0.038864
v -0.012266 -0.134716 -0.040202
v -0.012764 -0.138477 -0.040743
v -0.012341 -0.140671 -0.040285
v -0.011091 -0.140207 -0.039244
v -0.009048 -0.137482 -0.037520
v -0.011752 -0.130769 -0.037365
v -0.012902 -0.134329 -0.038545
v -0.013326 -0.137067 -0.039297
v -0.013106 -0.138223 -0.038807
v -0.008519 -0.125579 -0.033771
v -0.010055 -0.127468 -0.034541
v -0.011319 -0.130994 -0.036080
v -0.012444 -0.134853 -0.037496
v -0.011381 -0.137538 -0.037818
v -0.010571 -0.133972 -0.036504
v -0.010211 -0.130501 -0.034834
v -0.009868 -0.127327 -0.033255
v -0.008041 -0.125032 -0.032294
v -0.005622 -0.124851 -0.033415
v -0.005006 -0.124315 -0.031877
v -0.005104 -0.122701 -0.035258
v -0.001429 -0.129405 -0.036866
v -0.002467 -0.124458 -0.035459
v -0.005765 -0.124128 -0.034428
v -0.001674 -0.158134 -0.041351
v -0.000743 -0.152858 -0.041559
v 0.000959 -0.155252 -0.044261
v -0.000249 -0.158489 -0.043050
v -0.002112 -0.163465 -0.042266
v -0.000153 -0.161104 -0.044049
v -0.009627 -0.135476 -0.036460
v -0.003866 -0.158815 -0.040188
v -0.004070 -0.151594 -0.038888
v -0.007036 -0.153420 -0.037935
v -0.005397 -0.139186 -0.037764
v -0.007480 -0.138697 -0.037163
v -0.006624 -0.145689 -0.038564
v -0.007071 -0.147351 -0.037297
v -0.009482 -0.144759 -0.036205
v -0.009605 -0.145277 -0.038024
v -0.005942 -0.142819 -0.038379
v -0.008918 -0.142414 -0.037826
v -0.003262 -0.140319 -0.038978
v -0.009391 -0.137745 -0.036430
v -0.010234 -0.135451 -0.035455
v -0.011860 -0.141130 -0.037147
v -0.012780 -0.137130 -0.035743
v -0.000037 -0.141415 -0.040817
v 0.001788 -0.141877 -0.042199
v 0.003780 -0.141748 -0.043534
v 0.000153 -0.148880 -0.042208
v 0.003341 -0.148498 -0.046013
v 0.003486 -0.145334 -0.044918
v 0.001126 -0.145275 -0.042371
v -0.001845 -0.143610 -0.039812
v -0.002856 -0.147273 -0.039528
v -0.012450 -0.145416 -0.036159
v -0.012124 -0.145973 -0.037982
v -0.014811 -0.147108 -0.036305
v -0.014377 -0.146330 -0.037575
v -0.014419 -0.142415 -0.037149
v -0.015094 -0.139182 -0.036094
v -0.015222 -0.148299 -0.035433
v -0.012809 -0.146659 -0.035263
v -0.010636 -0.147490 -0.035959
v -0.008796 -0.149845 -0.036931
v -0.007412 -0.153924 -0.037053
v -0.016950 -0.147390 -0.037471
v -0.016975 -0.144591 -0.037507
v -0.017563 -0.148989 -0.036396
v -0.017890 -0.150742 -0.036047
v -0.017414 -0.142066 -0.036848
v -0.017954 -0.141593 -0.035883
v -0.015396 -0.138006 -0.034872
v -0.016501 -0.139499 -0.033993
v -0.018879 -0.143082 -0.035247
v -0.019032 -0.145328 -0.035001
v -0.016925 -0.142210 -0.033708
v -0.018772 -0.147960 -0.035169
v -0.016590 -0.144955 -0.033840
v -0.015800 -0.147312 -0.034319
v -0.018439 -0.150116 -0.035353
v -0.021835 -0.148485 -0.035811
v -0.021481 -0.150886 -0.035946
v -0.021275 -0.153139 -0.036299
v -0.021908 -0.146263 -0.036063
v -0.021474 -0.145027 -0.036857
v -0.020950 -0.145390 -0.037839
v -0.020863 -0.147893 -0.038211
v -0.020903 -0.150587 -0.038120
v -0.021067 -0.152822 -0.037754
v -0.020989 -0.154140 -0.037132
v -0.024227 -0.157744 -0.037903
v -0.024157 -0.156105 -0.038486
v -0.023990 -0.153032 -0.038617
v -0.023896 -0.150004 -0.038952
v -0.023996 -0.147639 -0.038593
v -0.024380 -0.147453 -0.037640
v -0.024763 -0.148871 -0.036714
v -0.024655 -0.151320 -0.036388
v -0.024387 -0.153970 -0.036529
v -0.024295 -0.156949 -0.037052
v -0.026654 -0.155146 -0.038996
v -0.027067 -0.158666 -0.038804
v -0.026469 -0.152055 -0.039639
v -0.026378 -0.149427 -0.039079
v -0.027468 -0.160421 -0.038355
v -0.027513 -0.159982 -0.037553
v -0.027195 -0.156928 -0.037039
v -0.026941 -0.153474 -0.036907
v -0.026927 -0.150641 -0.037209
v -0.026631 -0.149104 -0.038177
v -0.029371 -0.157274 -0.039463
v -0.029865 -0.161055 -0.039192
v -0.029023 -0.154043 -0.039797
v -0.030272 -0.162508 -0.038602
v -0.029038 -0.151804 -0.039238
v -0.032261 -0.159384 -0.039347
v -0.032047 -0.162089 -0.039241
v -0.031366 -0.156213 -0.039531
v -0.029109 -0.151176 -0.038442
v -0.032297 -0.155452 -0.039092
v -0.033875 -0.160542 -0.038960
v -0.029120 -0.152447 -0.037413
v -0.029266 -0.155305 -0.037179
v -0.031627 -0.154865 -0.037351
v -0.032236 -0.154370 -0.038155
v -0.034195 -0.160075 -0.038118
v -0.032838 -0.163112 -0.038810
v -0.030329 -0.162103 -0.037866
v -0.032990 -0.162414 -0.037807
v -0.032550 -0.157983 -0.037214
v -0.029782 -0.158907 -0.037205
v -0.032031 -0.160190 -0.037225
v -0.010138 -0.126107 -0.028526
v -0.009249 -0.132965 -0.035378
v -0.006996 -0.120637 -0.028262
v -0.008605 -0.124317 -0.029550
v -0.006288 -0.123201 -0.030430
v -0.007947 -0.124436 -0.030923
v -0.009907 -0.126998 -0.032069
v -0.009868 -0.130079 -0.033772
v -0.010364 -0.127229 -0.030994
v -0.010171 -0.132564 -0.033991
v -0.010650 -0.129923 -0.032323
v -0.011327 -0.129119 -0.030222
v -0.012584 -0.133953 -0.033733
v -0.012016 -0.131577 -0.031748
v -0.012294 -0.131531 -0.029823
v -0.014635 -0.136126 -0.032432
v -0.013413 -0.133716 -0.031115
v -0.012686 -0.135188 -0.029839
v -0.015336 -0.139216 -0.032099
v -0.014026 -0.137074 -0.030907
v -0.012395 -0.138722 -0.030077
v -0.014940 -0.142077 -0.032327
v -0.013747 -0.140280 -0.031165
v -0.010924 -0.142302 -0.031026
v -0.013104 -0.145435 -0.033627
v -0.012231 -0.143831 -0.032037
v -0.010542 -0.147806 -0.034817
v -0.008662 -0.144409 -0.032484
v -0.009947 -0.146697 -0.033362
v -0.008588 -0.150280 -0.035938
v -0.004451 -0.139349 -0.033451
v 0.000136 -0.135823 -0.036693
v 0.001227 -0.136299 -0.037267
v -0.001103 -0.144349 -0.036955
v 0.000656 -0.141048 -0.037442
v 0.002055 -0.136731 -0.037778
v 0.001712 -0.139492 -0.037739
v 0.003158 -0.136725 -0.038124
v 0.001658 -0.142238 -0.038049
v 0.000805 -0.146219 -0.038720
v 0.002587 -0.140046 -0.038024
v 0.004665 -0.136529 -0.038368
v 0.003793 -0.142688 -0.038685
v 0.003169 -0.147228 -0.039981
v 0.004084 -0.140423 -0.038411
v 0.002617 -0.153135 -0.040446
v 0.000199 -0.151892 -0.038732
v 0.002115 -0.158785 -0.040982
v -0.000489 -0.158048 -0.039204
v -0.000694 -0.162175 -0.039632
v 0.001853 -0.162220 -0.041504
v -0.002908 -0.142009 -0.035486
v -0.006102 -0.145483 -0.033919
v -0.002594 -0.156086 -0.036985
v -0.002021 -0.160159 -0.037261
v -0.002433 -0.153650 -0.035186
v -0.006015 -0.152225 -0.035358
v -0.007428 -0.148692 -0.034783
v -0.003693 -0.152173 -0.035288
v -0.003856 -0.152254 -0.035838
v -0.001784 -0.151270 -0.037202
v -0.003727 -0.148409 -0.035697
v -0.001538 -0.164269 -0.037623
v 0.001184 -0.169781 -0.045646
v 0.001605 -0.169955 -0.047392
v 0.003233 -0.168542 -0.047445
v 0.003101 -0.167408 -0.045534
v 0.000760 -0.170072 -0.048132
v 0.001102 -0.172786 -0.050188
v 0.002004 -0.172774 -0.049752
v 0.003161 -0.172593 -0.049790
v 0.003037 -0.177928 -0.051956
v 0.002317 -0.176499 -0.051903
v 0.002353 -0.181198 -0.055575
v 0.003125 -0.182594 -0.055579
v 0.001925 -0.175585 -0.052206
v 0.002029 -0.179128 -0.055709
v 0.000349 -0.168972 -0.046331
v 0.000617 -0.166979 -0.047380
v 0.001005 -0.168761 -0.049011
v 0.001115 -0.171088 -0.050734
v 0.002087 -0.166866 -0.051875
v 0.001831 -0.164686 -0.050042
v 0.003616 -0.158209 -0.051538
v 0.004007 -0.160215 -0.053687
v 0.001466 -0.173543 -0.052828
v 0.004064 -0.163243 -0.055951
v 0.002349 -0.169162 -0.054109
v 0.001718 -0.176301 -0.055841
v 0.002292 -0.172279 -0.056793
v 0.003738 -0.167696 -0.057968
v 0.001102 -0.159466 -0.046105
v 0.003581 -0.152110 -0.048168
v 0.003392 -0.155626 -0.049796
v 0.001598 -0.162571 -0.048420
v 0.000082 -0.165677 -0.045779
v -0.000489 -0.164778 -0.044512
v 0.002112 -0.178505 -0.058310
v 0.003261 -0.175059 -0.059045
v 0.003838 -0.171802 -0.058827
v 0.002418 -0.180298 -0.057760
v 0.002724 -0.181144 -0.057411
v 0.003477 -0.181813 -0.056750
v -0.000303 -0.168705 -0.044771
v -0.001714 -0.167844 -0.038329
v -0.000735 -0.165680 -0.040156
v -0.004303 -0.172494 -0.039793
v -0.002801 -0.171207 -0.039223
v -0.005160 -0.172379 -0.040407
v 0.001798 -0.165328 -0.042340
v -0.001070 -0.168589 -0.040854
v 0.000277 -0.168665 -0.042374
v -0.005544 -0.171157 -0.040945
v -0.001403 -0.167275 -0.043321
v 0.000320 -0.169662 -0.043731
v -0.002172 -0.169876 -0.041572
v -0.004685 -0.167053 -0.041238
v 0.002627 -0.166741 -0.043934
v -0.004544 -0.112468 -0.022089
v -0.008398 -0.112834 -0.018262
v -0.008574 -0.111448 -0.015055
v -0.007857 -0.110053 -0.011784
v -0.005358 -0.107743 -0.009008
v -0.004763 -0.111266 -0.019028
v -0.000902 -0.109810 -0.019765
v 0.003470 -0.108905 -0.020320
v -0.004638 -0.110094 -0.015867
v -0.000807 -0.108724 -0.016735
v 0.003458 -0.107721 -0.017329
v -0.004028 -0.109103 -0.012986
v -0.000352 -0.107848 -0.013630
v 0.003618 -0.106781 -0.014205
v 0.000908 -0.104109 -0.006205
v 0.004591 -0.102768 -0.006090
v -0.002419 -0.105847 -0.007048
v -0.002508 -0.107663 -0.010268
v -0.001322 -0.106500 -0.008640
v 0.000473 -0.106761 -0.010698
v 0.003831 -0.105729 -0.011043
v 0.001083 -0.105372 -0.008390
v 0.004220 -0.104243 -0.008479
v 0.008448 -0.139201 -0.041822
v 0.009952 -0.139477 -0.041071
v 0.010659 -0.141679 -0.042286
v 0.008658 -0.141657 -0.043581
v 0.011019 -0.145048 -0.042470
v 0.008654 -0.145250 -0.044968
v 0.010300 -0.155040 -0.044363
v 0.009812 -0.159385 -0.046213
v 0.007981 -0.152081 -0.048215
v 0.008525 -0.148428 -0.046065
v 0.011660 -0.148601 -0.042327
v 0.012162 -0.152530 -0.041698
v 0.009098 -0.162525 -0.048512
v 0.007868 -0.155577 -0.049842
v 0.014767 -0.146834 -0.039713
v 0.015517 -0.151093 -0.039101
v 0.014123 -0.143222 -0.039974
v 0.011179 -0.138657 -0.039976
v 0.012531 -0.141116 -0.040940
v 0.011169 -0.158205 -0.043178
v 0.010861 -0.160873 -0.044177
v 0.012558 -0.157762 -0.041512
v 0.010868 -0.164543 -0.044644
v 0.010267 -0.165505 -0.045894
v 0.009675 -0.166844 -0.047483
v 0.014624 -0.158326 -0.040399
v 0.012508 -0.163084 -0.042437
v 0.011481 -0.166946 -0.043474
v 0.010325 -0.168434 -0.044892
v 0.008723 -0.164571 -0.050118
v 0.007446 -0.158148 -0.051575
v 0.008317 -0.166737 -0.051937
v 0.006902 -0.160163 -0.053714
v 0.007899 -0.169075 -0.054163
v 0.007739 -0.172166 -0.056857
v 0.006638 -0.167643 -0.058002
v 0.006611 -0.163201 -0.055975
v 0.006633 -0.174971 -0.059083
v 0.006303 -0.171742 -0.058851
v 0.009728 -0.168713 -0.046431
v 0.009296 -0.169835 -0.048224
v 0.009191 -0.168604 -0.049103
v 0.008800 -0.172567 -0.050270
v 0.008942 -0.170902 -0.050818
v 0.008447 -0.173382 -0.052902
v 0.007815 -0.175436 -0.052267
v 0.007529 -0.178991 -0.055755
v 0.008035 -0.176144 -0.055899
v 0.016952 -0.133337 -0.038552
v 0.018475 -0.136411 -0.039930
v 0.017913 -0.137934 -0.039988
v 0.016072 -0.133695 -0.038210
v 0.017132 -0.138384 -0.039338
v 0.015252 -0.136416 -0.038691
v 0.015668 -0.129483 -0.037426
v 0.016597 -0.130300 -0.037968
v 0.014693 -0.132478 -0.037277
v 0.015028 -0.129024 -0.037010
v 0.013388 -0.134503 -0.037849
v 0.019998 -0.139456 -0.041475
v 0.020616 -0.141821 -0.041685
v 0.019202 -0.139500 -0.039686
v 0.018643 -0.145068 -0.038824
v 0.018888 -0.146700 -0.037571
v 0.021620 -0.144514 -0.038342
v 0.021511 -0.143992 -0.036524
v 0.020333 -0.149106 -0.037244
v 0.018246 -0.152769 -0.038214
v 0.022370 -0.146661 -0.036307
v 0.020829 -0.138778 -0.042062
v 0.021852 -0.141580 -0.042665
v 0.022735 -0.141761 -0.042261
v 0.021845 -0.141456 -0.041014
v 0.020535 -0.138543 -0.038911
v 0.021272 -0.137017 -0.042237
v 0.022610 -0.138995 -0.042994
v 0.023551 -0.139128 -0.042735
v 0.015737 -0.124334 -0.036489
v 0.016648 -0.126212 -0.037388
v 0.016494 -0.124042 -0.035624
v 0.016763 -0.122804 -0.036889
v 0.017657 -0.125119 -0.037619
v 0.017639 -0.121975 -0.036051
v 0.017823 -0.122967 -0.037781
v 0.018326 -0.125059 -0.038241
v 0.019111 -0.122249 -0.036972
v 0.020002 -0.126063 -0.039346
v 0.019573 -0.127297 -0.039561
v 0.021117 -0.125268 -0.038734
v 0.021486 -0.130211 -0.041110
v 0.020824 -0.130638 -0.041041
v 0.022609 -0.129748 -0.040647
v 0.022644 -0.134808 -0.042541
v 0.021271 -0.133709 -0.041794
v 0.023602 -0.134729 -0.042221
v 0.019581 -0.129163 -0.039554
v 0.019123 -0.131865 -0.039840
v 0.018844 -0.134352 -0.039953
v 0.024691 -0.139821 -0.040630
v 0.023526 -0.139401 -0.039571
v 0.025249 -0.137624 -0.041086
v 0.021779 -0.136760 -0.037812
v 0.025029 -0.133895 -0.040526
v 0.024027 -0.129491 -0.039158
v 0.022410 -0.125116 -0.037517
v 0.020427 -0.122409 -0.036017
v 0.019160 -0.122181 -0.035462
v 0.019753 -0.123569 -0.034648
v 0.014067 -0.132007 -0.036612
v 0.015313 -0.130145 -0.036298
v 0.016774 -0.126464 -0.035138
v 0.012450 -0.133568 -0.037301
v 0.008309 -0.136547 -0.039191
v 0.009700 -0.136385 -0.038816
v 0.010637 -0.135785 -0.038445
v 0.020137 -0.138040 -0.037432
v 0.018045 -0.138626 -0.037993
v 0.021209 -0.141688 -0.038125
v 0.018243 -0.142232 -0.038622
v 0.015834 -0.139860 -0.039165
v 0.022097 -0.137001 -0.036732
v 0.024208 -0.140272 -0.037498
v 0.020038 -0.149544 -0.036249
v 0.018519 -0.153244 -0.037341
v 0.022200 -0.146975 -0.035167
v 0.019312 -0.159031 -0.039381
v 0.017624 -0.159561 -0.039837
v 0.014029 -0.139289 -0.039739
v 0.012412 -0.136537 -0.038737
v 0.011499 -0.134790 -0.037937
v 0.027529 -0.138187 -0.036497
v 0.025456 -0.136237 -0.036103
v 0.025551 -0.133068 -0.034089
v 0.027924 -0.136995 -0.035281
v 0.026596 -0.141442 -0.037547
v 0.030105 -0.140467 -0.036340
v 0.029542 -0.140968 -0.037294
v 0.028908 -0.143504 -0.037953
v 0.023128 -0.134671 -0.035770
v 0.023332 -0.131787 -0.034302
v 0.030876 -0.141904 -0.035728
v 0.028866 -0.138430 -0.034428
v 0.029031 -0.141109 -0.034161
v 0.030827 -0.144130 -0.035494
v 0.033305 -0.147159 -0.036359
v 0.033566 -0.144951 -0.036601
v 0.033247 -0.143749 -0.037378
v 0.027347 -0.135142 -0.032832
v 0.027736 -0.138188 -0.032522
v 0.026375 -0.132787 -0.031493
v 0.026646 -0.136108 -0.031306
v 0.025219 -0.130714 -0.032094
v 0.027071 -0.141056 -0.032752
v 0.028445 -0.143855 -0.034297
v 0.026049 -0.139314 -0.031567
v 0.030337 -0.146758 -0.035668
v 0.032751 -0.149560 -0.036498
v 0.024950 -0.144486 -0.034024
v 0.027448 -0.146238 -0.034768
v 0.024198 -0.142920 -0.032418
v 0.029812 -0.148918 -0.035854
v 0.032358 -0.151811 -0.036856
v 0.026813 -0.147254 -0.035870
v 0.029232 -0.149572 -0.036537
v 0.032008 -0.152828 -0.037684
v 0.024585 -0.145728 -0.035652
v 0.021666 -0.145887 -0.033699
v 0.018998 -0.148006 -0.035068
v 0.020600 -0.143658 -0.032792
v 0.023028 -0.141449 -0.031380
v 0.021464 -0.140408 -0.030647
v 0.019413 -0.140873 -0.031545
v 0.017889 -0.139317 -0.031694
v 0.017992 -0.144859 -0.034175
v 0.024849 -0.137816 -0.030454
v 0.023658 -0.136882 -0.029442
v 0.025503 -0.134282 -0.030214
v 0.024335 -0.132675 -0.028914
v 0.025486 -0.130650 -0.030180
v 0.024555 -0.128687 -0.028724
v 0.024778 -0.128284 -0.030556
v 0.023908 -0.125319 -0.028836
v 0.016844 -0.136018 -0.031361
v 0.017019 -0.138804 -0.033673
v 0.015257 -0.141542 -0.035676
v 0.015374 -0.147909 -0.035906
v 0.015069 -0.151753 -0.036046
v 0.013442 -0.153219 -0.035364
v 0.011999 -0.156979 -0.035210
v 0.013138 -0.156083 -0.033942
v 0.015224 -0.152189 -0.034450
v 0.013448 -0.155655 -0.037171
v 0.012427 -0.159764 -0.037433
v 0.017213 -0.151614 -0.035610
v 0.014882 -0.151676 -0.035491
v 0.020164 -0.143077 -0.030549
v 0.017676 -0.143262 -0.031221
v 0.015970 -0.140517 -0.030511
v 0.022856 -0.136322 -0.027860
v 0.023776 -0.131269 -0.026920
v 0.024397 -0.126400 -0.026582
v 0.024101 -0.119672 -0.026245
v 0.024043 -0.129124 -0.032641
v 0.022526 -0.134729 -0.036761
v 0.022387 -0.132235 -0.035670
v 0.024017 -0.126443 -0.031304
v 0.022598 -0.123602 -0.029830
v 0.021399 -0.119991 -0.028515
v 0.025732 -0.133468 -0.038885
v 0.025931 -0.136184 -0.039650
v 0.025646 -0.137338 -0.039162
v 0.024906 -0.129961 -0.037681
v 0.019600 -0.124281 -0.033637
v 0.014193 -0.133983 -0.036009
v 0.015576 -0.131065 -0.035113
v 0.017083 -0.126579 -0.033463
v 0.012901 -0.135512 -0.036818
v 0.023256 -0.129321 -0.034073
v 0.023582 -0.126237 -0.032368
v 0.021940 -0.123757 -0.031189
v 0.020460 -0.122590 -0.030669
v 0.024560 -0.129591 -0.023450
v 0.023955 -0.136068 -0.024151
v 0.025647 -0.123929 -0.023059
v 0.025273 -0.127323 -0.019008
v 0.024973 -0.133843 -0.019212
v 0.026126 -0.121529 -0.018913
v 0.023207 -0.143833 -0.025351
v 0.025057 -0.141466 -0.019362
v 0.022165 -0.150254 -0.025424
v 0.019001 -0.151801 -0.030163
v 0.024423 -0.147962 -0.019473
v 0.025089 -0.131446 -0.014749
v 0.025216 -0.125125 -0.014802
v 0.025807 -0.119095 -0.014780
v 0.024167 -0.122718 -0.010611
v 0.023930 -0.129109 -0.010369
v 0.024806 -0.116647 -0.010790
v 0.015038 -0.148913 -0.030490
v 0.012091 -0.145384 -0.029697
v 0.023862 -0.136301 -0.009946
v 0.025240 -0.138904 -0.014566
v 0.021421 -0.126903 -0.006335
v 0.021133 -0.133958 -0.005667
v 0.021768 -0.120330 -0.006752
v 0.023604 -0.143172 -0.009441
v 0.024664 -0.145684 -0.014309
v 0.020661 -0.140552 -0.004974
v 0.011239 -0.146489 -0.026561
v 0.011206 -0.147672 -0.028334
v 0.014248 -0.150532 -0.028853
v 0.013982 -0.148950 -0.026985
v 0.017994 -0.153169 -0.028131
v 0.016955 -0.151435 -0.026270
v 0.013817 -0.145505 -0.024795
v 0.011492 -0.143522 -0.024370
v 0.016054 -0.148331 -0.024663
v 0.017965 -0.125031 -0.003354
v 0.017528 -0.131906 -0.002626
v 0.018335 -0.118406 -0.003931
v 0.016888 -0.137965 -0.002338
v 0.014122 -0.123572 -0.001759
v 0.013680 -0.130310 -0.001107
v 0.013101 -0.136368 -0.000998
v 0.014472 -0.116990 -0.002384
v 0.010290 -0.122674 -0.001107
v 0.009861 -0.129378 -0.000470
v 0.009355 -0.135573 -0.000276
v 0.010642 -0.116111 -0.001737
v 0.022334 -0.114134 -0.007011
v 0.026774 -0.116460 -0.018728
v 0.026451 -0.114307 -0.014612
v 0.026007 -0.118241 -0.022773
v 0.025696 -0.112259 -0.010620
v 0.023007 -0.109339 -0.006905
v 0.025282 -0.113561 -0.018614
v 0.025332 -0.111878 -0.014816
v 0.024333 -0.114844 -0.022140
v 0.024605 -0.110162 -0.011179
v 0.022094 -0.107415 -0.007842
v 0.022512 -0.115720 -0.024963
v 0.020022 -0.115937 -0.026934
v 0.018493 -0.121281 -0.030148
v 0.016348 -0.114463 -0.027672
v 0.019094 -0.123761 -0.032093
v 0.017227 -0.122426 -0.030485
v 0.015113 -0.116850 -0.028933
v 0.011202 -0.113745 -0.028232
v 0.011872 -0.111463 -0.026781
v 0.012282 -0.110676 -0.025357
v 0.016495 -0.112631 -0.025782
v 0.019380 -0.113668 -0.025180
v 0.021448 -0.113965 -0.023918
v 0.022713 -0.113174 -0.021463
v 0.023363 -0.112098 -0.018533
v 0.023547 -0.110709 -0.015329
v 0.022849 -0.109358 -0.012042
v 0.020524 -0.107162 -0.009218
v 0.018777 -0.112241 -0.004243
v 0.019172 -0.107427 -0.004376
v 0.018681 -0.105464 -0.005507
v 0.017740 -0.105397 -0.007205
v 0.014761 -0.110825 -0.002796
v 0.014965 -0.105897 -0.003191
v 0.014247 -0.121170 -0.029499
v 0.010678 -0.118549 -0.028895
v 0.016359 -0.124997 -0.030785
v 0.012420 -0.109733 -0.023124
v 0.016577 -0.110796 -0.022977
v 0.012533 -0.108712 -0.020399
v 0.016593 -0.109397 -0.019919
v 0.012312 -0.106591 -0.014279
v 0.012038 -0.105561 -0.011110
v 0.015097 -0.106424 -0.010821
v 0.015983 -0.107470 -0.013771
v 0.016500 -0.108318 -0.016887
v 0.012574 -0.107533 -0.017406
v 0.011590 -0.104088 -0.008537
v 0.014484 -0.105067 -0.008497
v 0.019355 -0.108566 -0.013185
v 0.017870 -0.107199 -0.010436
v 0.019981 -0.109520 -0.016079
v 0.016729 -0.106091 -0.008784
v 0.011187 -0.102637 -0.006138
v 0.014612 -0.103802 -0.006310
v 0.014940 -0.103844 -0.004537
v 0.010864 -0.109892 -0.002170
v 0.010917 -0.104790 -0.002538
v 0.011008 -0.102595 -0.004122
v 0.016803 -0.128548 -0.032855
v 0.010904 -0.136518 -0.037865
v 0.011771 -0.136043 -0.037371
v 0.009804 -0.136566 -0.038189
v 0.008326 -0.136443 -0.038404
v 0.016150 -0.134005 -0.034361
v 0.013252 -0.143981 -0.037106
v 0.010972 -0.139264 -0.037832
v 0.011860 -0.140768 -0.037557
v 0.010044 -0.139863 -0.038100
v 0.008525 -0.140315 -0.038456
v 0.016082 -0.128987 -0.030726
v 0.013868 -0.126540 -0.029272
v 0.016726 -0.130977 -0.032210
v 0.010375 -0.124885 -0.028951
v 0.023618 -0.126718 -0.034834
v 0.023434 -0.125909 -0.036046
v 0.021874 -0.123789 -0.035025
v 0.022313 -0.124892 -0.034039
v 0.024524 -0.130191 -0.036396
v 0.021947 -0.124354 -0.032558
v 0.023490 -0.126573 -0.033549
v 0.023530 -0.129734 -0.035137
v 0.022356 -0.145393 -0.009953
v 0.023458 -0.147357 -0.014473
v 0.023017 -0.149451 -0.019453
v 0.019590 -0.142990 -0.005714
v 0.016113 -0.140546 -0.003324
v 0.012490 -0.139330 -0.002265
v 0.008886 -0.138686 -0.001589
v 0.008690 -0.139412 -0.003814
v 0.011822 -0.139661 -0.004465
v 0.015054 -0.140525 -0.005578
v 0.018184 -0.142553 -0.007610
v 0.020594 -0.144760 -0.011039
v 0.021590 -0.146630 -0.014730
v 0.021499 -0.148942 -0.019343
v 0.019690 -0.151062 -0.023694
v 0.020983 -0.151777 -0.024641
v 0.008511 -0.144873 -0.025871
v 0.008454 -0.145969 -0.027872
v 0.008841 -0.142866 -0.024104
v 0.009291 -0.142195 -0.028947
v 0.018420 -0.142582 -0.011874
v 0.019454 -0.144493 -0.014989
v 0.019459 -0.147167 -0.019138
v 0.016809 -0.141024 -0.009481
v 0.014259 -0.139242 -0.008477
v 0.011495 -0.138179 -0.007772
v 0.008843 -0.137673 -0.007408
v 0.014633 -0.136363 -0.029631
v 0.011075 -0.162102 -0.035582
v 0.012323 -0.162099 -0.034412
v 0.011502 -0.163905 -0.037783
v 0.011206 -0.167376 -0.036744
v 0.012226 -0.167464 -0.035646
v 0.011341 -0.167477 -0.038492
v 0.012491 -0.171614 -0.038076
v 0.013065 -0.171780 -0.037278
v 0.012157 -0.170782 -0.039412
v 0.016295 -0.133079 -0.030948
v 0.016824 -0.134521 -0.033073
v 0.013802 -0.131724 -0.029117
v 0.010000 -0.131495 -0.028532
v 0.032712 -0.144140 -0.038349
v 0.011204 -0.145955 -0.038830
v 0.008769 -0.147088 -0.040040
v 0.008739 -0.152977 -0.040513
v 0.011209 -0.151607 -0.038854
v 0.010749 -0.142012 -0.038143
v 0.008583 -0.142570 -0.038735
v 0.013187 -0.150877 -0.037368
v 0.008688 -0.158617 -0.041055
v 0.011258 -0.157735 -0.039340
v 0.009542 -0.169394 -0.043840
v 0.008779 -0.169535 -0.045730
v 0.011872 -0.169487 -0.041745
v 0.008426 -0.169730 -0.047465
v 0.007493 -0.166552 -0.043986
v 0.007096 -0.167311 -0.045584
v 0.009592 -0.168407 -0.042487
v 0.008409 -0.165167 -0.042417
v 0.006976 -0.168446 -0.047489
v 0.007880 -0.172578 -0.049814
v 0.006757 -0.172476 -0.049829
v 0.006539 -0.177832 -0.051995
v 0.007334 -0.176364 -0.051955
v 0.006733 -0.181063 -0.057440
v 0.007053 -0.181092 -0.055616
v 0.006236 -0.182525 -0.055608
v 0.005871 -0.181846 -0.056778
v 0.015793 -0.164158 -0.038215
v 0.015501 -0.168497 -0.038647
v 0.018946 -0.168764 -0.039428
v 0.019612 -0.164226 -0.039352
v 0.019428 -0.170953 -0.040764
v 0.019985 -0.165414 -0.040577
v 0.019368 -0.158548 -0.038522
v 0.016989 -0.157074 -0.037094
v 0.016138 -0.172404 -0.038165
v 0.017912 -0.172220 -0.039232
v 0.017785 -0.174081 -0.040086
v 0.018671 -0.154019 -0.037347
v 0.017351 -0.153047 -0.036089
v 0.015388 -0.153603 -0.034903
v 0.013891 -0.157017 -0.034578
v 0.013140 -0.162131 -0.035200
v 0.012980 -0.167019 -0.036045
v 0.013907 -0.170862 -0.036815
v 0.015445 -0.174291 -0.038752
v 0.012115 -0.139710 -0.015139
v 0.011931 -0.138488 -0.011769
v 0.009138 -0.137794 -0.011523
v 0.009218 -0.139073 -0.015058
v 0.009211 -0.140262 -0.018592
v 0.012021 -0.140707 -0.018607
v 0.017855 -0.148520 -0.022745
v 0.011877 -0.141354 -0.021689
v 0.009135 -0.141035 -0.021733
v 0.014926 -0.139760 -0.011877
v 0.015237 -0.140924 -0.015124
v 0.015094 -0.142350 -0.018644
v 0.014561 -0.143366 -0.021977
v 0.019836 -0.111896 -0.022300
v 0.020099 -0.110682 -0.019243
v 0.018091 -0.165476 -0.040879
v 0.014523 -0.174033 -0.039385
v 0.016208 -0.173681 -0.040400
v 0.017559 -0.170431 -0.041014
v 0.024043 -0.136719 -0.038148
v 0.024036 -0.145093 -0.038347
v 0.024377 -0.144511 -0.036535
v 0.014665 -0.166525 -0.041470
v 0.015084 -0.170584 -0.041203
v 0.014521 -0.171833 -0.040658
v 0.013652 -0.171891 -0.039976
v 0.011045 -0.161856 -0.039772
v 0.008638 -0.162058 -0.041577
v 0.010750 -0.165363 -0.040296
v 0.010837 -0.168258 -0.041001
v 0.025286 -0.133999 -0.037836
v 0.023566 -0.133190 -0.036816
v 0.026213 -0.145346 -0.037983
v 0.026545 -0.146093 -0.036728
v 0.032431 -0.146633 -0.038729
v 0.028642 -0.146289 -0.037927
v 0.029080 -0.147846 -0.036873
v 0.032250 -0.149309 -0.038651
v 0.032216 -0.151521 -0.038299
v 0.035079 -0.151618 -0.039206
v 0.034995 -0.154666 -0.039093
v 0.035220 -0.148615 -0.039522
v 0.034909 -0.156281 -0.038522
v 0.035495 -0.146261 -0.039154
v 0.035021 -0.155479 -0.037673
v 0.035883 -0.146054 -0.038211
v 0.036141 -0.147437 -0.037303
v 0.035835 -0.149868 -0.036990
v 0.035353 -0.152510 -0.037140
v 0.037904 -0.151927 -0.037552
v 0.038114 -0.149119 -0.037837
v 0.037876 -0.155341 -0.037706
v 0.037945 -0.147613 -0.038787
v 0.037951 -0.158363 -0.038239
v 0.037894 -0.158811 -0.039038
v 0.037674 -0.147948 -0.039682
v 0.037570 -0.150551 -0.040254
v 0.037523 -0.153616 -0.039634
v 0.037657 -0.157098 -0.039468
v 0.040024 -0.155628 -0.040152
v 0.040227 -0.159365 -0.039911
v 0.039910 -0.152427 -0.040461
v 0.040497 -0.160776 -0.039339
v 0.040563 -0.160360 -0.038606
v 0.040085 -0.150209 -0.039891
v 0.040202 -0.149584 -0.039096
v 0.040116 -0.150839 -0.038081
v 0.040040 -0.153666 -0.037867
v 0.040262 -0.157208 -0.037922
v 0.042692 -0.157610 -0.040092
v 0.042290 -0.160304 -0.040000
v 0.042040 -0.154494 -0.040242
v 0.042978 -0.161280 -0.039590
v 0.043000 -0.153709 -0.039813
v 0.043013 -0.152638 -0.038873
v 0.043155 -0.160568 -0.038589
v 0.042371 -0.158394 -0.037983
v 0.043048 -0.156195 -0.037965
v 0.042379 -0.153144 -0.038069
v 0.044182 -0.158695 -0.039737
v 0.044516 -0.158212 -0.038901
v 0.007109 -0.180179 -0.057796
v 0.007550 -0.178363 -0.058361
v 0.007725 -0.113678 -0.028205
v 0.007962 -0.111271 -0.026818
v 0.008077 -0.110431 -0.025385
v 0.008147 -0.109765 -0.023137
v 0.008262 -0.106353 -0.014447
v 0.008326 -0.105180 -0.011287
v 0.008101 -0.103760 -0.008706
v 0.008073 -0.102351 -0.006131
v 0.007883 -0.102368 -0.003979
v 0.007554 -0.104580 -0.002311
v 0.007305 -0.109641 -0.001998
v 0.006954 -0.115862 -0.001557
v 0.006546 -0.122426 -0.000940
v 0.006129 -0.129136 -0.000346
v 0.005769 -0.135360 -0.000166
v 0.006129 -0.144395 -0.025608
v 0.006325 -0.142786 -0.023992
v 0.005543 -0.138541 -0.001303
v 0.005843 -0.145424 -0.027714
v 0.007575 -0.118079 -0.028721
v 0.006002 -0.141348 -0.028626
v 0.006662 -0.131754 -0.028313
v 0.007165 -0.124871 -0.028844
v 0.005514 -0.139315 -0.003650
v 0.005882 -0.137525 -0.007458
v 0.006088 -0.137559 -0.011522
v 0.006273 -0.138805 -0.014929
v 0.006371 -0.141170 -0.021617
v 0.006299 -0.140236 -0.018370
v 0.008386 -0.107573 -0.017682
v 0.008267 -0.108969 -0.020615
v 0.005943 -0.150390 -0.049282
v 0.006084 -0.147732 -0.047714
v 0.005756 -0.153276 -0.050752
v 0.005675 -0.156171 -0.052457
v 0.005199 -0.172509 -0.059297
v 0.005390 -0.167569 -0.058738
v 0.005475 -0.163100 -0.056816
v 0.006363 -0.139075 -0.042418
v 0.006262 -0.140918 -0.044121
v 0.006458 -0.136861 -0.039456
v 0.005136 -0.164558 -0.044004
v 0.005209 -0.165563 -0.045589
v 0.005220 -0.167722 -0.047650
v 0.005040 -0.172120 -0.049922
v 0.004905 -0.178604 -0.052066
v 0.004643 -0.183067 -0.057655
v 0.004763 -0.183699 -0.055768
v 0.005599 -0.159535 -0.054617
v 0.005202 -0.163370 -0.042967
v 0.006172 -0.144863 -0.046328
v 0.005909 -0.148597 -0.041147
v 0.006199 -0.142745 -0.038911
v 0.006548 -0.136345 -0.038418
v 0.006357 -0.140297 -0.038473
v 0.005678 -0.153644 -0.041319
v 0.005300 -0.161485 -0.042258
v 0.005425 -0.158712 -0.041688
v 0.005091 -0.175726 -0.059517
v 0.004937 -0.178607 -0.059249
v 0.004830 -0.180153 -0.059001
v 0.004753 -0.181755 -0.058650
f 1 2 3
f 1 3 4
f 5 6 7
f 5 7 8
f 9 10 11
f 9 11 12
f 13 9 12
f 13 12 14
f 12 11 15
f 12 15 16
f 14 12 16
f 14 16 17
f 18 17 16
f 18 16 19
f 20 21 18
f 20 18 19
f 19 16 15
f 19 15 22
f 23 20 19
f 23 19 22
f 22 15 24
f 22 24 25
f 23 22 25
f 23 25 26
f 25 24 27
f 25 27 28
f 26 25 28
f 26 28 29
f 30 31 32
f 30 32 33
f 34 30 33
f 34 33 35
f 27 36 37
f 27 37 38
f 28 27 38
f 28 38 39
f 29 28 39
f 29 39 40
f 41 40 39
f 41 39 42
f 42 39 38
f 42 38 43
f 43 38 37
f 43 37 44
f 44 37 45
f 44 45 46
f 46 45 47
f 46 47 48
f 49 44 46
f 49 46 50
f 51 43 44
f 51 44 49
f 52 42 43
f 52 43 51
f 53 41 42
f 53 42 52
f 54 55 56
f 54 56 57
f 58 54 57
f 58 57 59
f 60 61 58
f 60 58 59
f 59 57 62
f 59 62 63
f 62 57 56
f 62 56 64
f 65 62 64
f 65 64 66
f 67 63 62
f 67 62 65
f 68 69 70
f 68 70 71
f 2 1 69
f 2 69 68
f 72 2 68
f 72 68 71
f 73 3 2
f 73 2 72
f 6 4 3
f 6 3 73
f 74 7 6
f 74 6 73
f 71 70 75
f 71 75 76
f 74 73 72
f 74 72 77
f 77 72 71
f 77 71 76
f 76 75 78
f 76 78 79
f 80 81 82
f 80 82 83
f 83 82 7
f 83 7 74
f 84 85 80
f 84 80 83
f 83 74 77
f 83 77 84
f 84 77 76
f 84 76 79
f 79 86 85
f 79 85 84
f 87 88 67
f 87 67 65
f 87 89 90
f 87 90 88
f 91 92 47
f 91 47 45
f 91 45 37
f 91 37 36
f 24 15 11
f 24 11 93
f 93 36 27
f 93 27 24
f 94 90 89
f 94 89 95
f 96 97 10
f 96 10 98
f 93 11 10
f 93 10 97
f 91 36 93
f 91 93 97
f 98 10 9
f 98 9 99
f 96 92 91
f 96 91 97
f 100 101 55
f 100 55 54
f 102 50 46
f 102 46 48
f 103 104 105
f 103 105 106
f 107 108 104
f 107 104 103
f 109 110 107
f 109 107 103
f 111 112 110
f 111 110 109
f 100 103 106
f 100 106 101
f 113 109 103
f 113 103 100
f 54 58 113
f 54 113 100
f 58 61 114
f 58 114 113
f 113 114 111
f 113 111 109
f 115 53 52
f 115 52 116
f 116 52 51
f 116 51 117
f 117 51 49
f 117 49 118
f 118 49 50
f 118 50 119
f 119 50 102
f 119 102 120
f 121 122 112
f 121 112 111
f 121 111 114
f 121 114 123
f 124 123 114
f 124 114 61
f 124 61 60
f 124 60 125
f 126 127 115
f 126 115 116
f 128 129 130
f 128 130 131
f 130 127 126
f 130 126 131
f 132 117 118
f 132 118 133
f 132 126 116
f 132 116 117
f 134 132 133
f 134 133 135
f 135 133 118
f 135 118 119
f 134 131 126
f 134 126 132
f 136 135 119
f 136 119 120
f 137 134 135
f 137 135 136
f 137 128 131
f 137 131 134
f 108 107 138
f 108 138 139
f 138 47 92
f 138 92 139
f 107 110 140
f 107 140 138
f 140 110 112
f 140 112 141
f 140 48 47
f 140 47 138
f 141 102 48
f 141 48 140
f 112 122 142
f 112 142 141
f 142 120 102
f 142 102 141
f 143 136 120
f 143 120 142
f 144 143 142
f 144 142 122
f 144 122 121
f 144 121 145
f 146 137 136
f 146 136 143
f 147 145 121
f 147 121 123
f 144 145 147
f 144 147 148
f 146 143 144
f 146 144 148
f 149 128 137
f 149 137 146
f 150 147 123
f 150 123 124
f 148 147 150
f 148 150 151
f 149 146 148
f 149 148 151
f 152 129 128
f 152 128 149
f 150 124 125
f 150 125 153
f 151 150 153
f 151 153 154
f 152 149 151
f 152 151 154
f 155 108 139
f 155 139 156
f 139 92 96
f 139 96 156
f 156 96 98
f 156 98 157
f 158 157 98
f 158 98 99
f 159 160 158
f 159 158 161
f 162 161 158
f 162 158 99
f 162 99 9
f 162 9 13
f 163 164 165
f 163 165 166
f 167 168 163
f 167 163 166
f 169 167 166
f 169 166 170
f 171 169 170
f 171 170 172
f 173 174 171
f 173 171 172
f 175 176 173
f 175 173 172
f 177 175 172
f 177 172 170
f 170 166 165
f 170 165 177
f 178 179 105
f 178 105 104
f 104 108 155
f 104 155 178
f 180 155 156
f 180 156 157
f 157 158 160
f 157 160 180
f 181 180 160
f 181 160 182
f 183 179 178
f 183 178 181
f 181 178 155
f 181 155 180
f 184 185 94
f 184 94 95
f 186 187 188
f 186 188 189
f 184 95 186
f 184 186 189
f 190 188 187
f 190 187 159
f 191 185 184
f 191 184 192
f 8 7 82
f 8 82 193
f 193 82 81
f 193 81 194
f 195 196 168
f 195 168 167
f 197 195 167
f 197 167 169
f 198 197 169
f 198 169 171
f 199 175 177
f 199 177 200
f 200 177 165
f 200 165 201
f 202 176 175
f 202 175 199
f 203 173 176
f 203 176 202
f 204 174 173
f 204 173 203
f 204 198 171
f 204 171 174
f 200 201 205
f 200 205 206
f 199 200 206
f 199 206 207
f 202 199 207
f 202 207 208
f 203 202 208
f 203 208 209
f 204 203 209
f 204 209 210
f 211 198 204
f 211 204 210
f 197 198 211
f 197 211 212
f 195 197 212
f 195 212 213
f 214 215 194
f 214 194 81
f 216 81 80
f 216 80 85
f 217 216 85
f 217 85 86
f 217 86 79
f 217 79 78
f 218 216 217
f 218 217 219
f 219 217 220
f 219 220 221
f 222 223 219
f 222 219 221
f 32 31 222
f 32 222 224
f 221 220 225
f 221 225 226
f 224 222 221
f 224 221 226
f 225 227 228
f 225 228 229
f 214 81 216
f 214 216 218
f 230 95 89
f 230 89 231
f 232 231 89
f 232 89 87
f 232 87 65
f 232 65 66
f 233 228 227
f 233 227 234
f 235 66 64
f 235 64 236
f 237 228 233
f 237 233 238
f 238 235 236
f 238 236 237
f 238 233 231
f 238 231 232
f 238 232 66
f 238 66 235
f 239 240 70
f 239 70 69
f 239 69 1
f 239 1 241
f 242 241 1
f 242 1 4
f 242 4 6
f 242 6 5
f 243 244 239
f 243 239 241
f 245 244 243
f 245 243 246
f 243 241 242
f 243 242 247
f 247 242 5
f 247 5 248
f 248 5 8
f 248 8 249
f 250 249 8
f 250 8 193
f 251 250 193
f 251 193 194
f 252 251 194
f 252 194 215
f 253 246 243
f 253 243 247
f 254 253 247
f 254 247 248
f 254 248 249
f 254 249 255
f 256 255 249
f 256 249 250
f 257 245 246
f 257 246 258
f 258 246 253
f 258 253 259
f 260 259 253
f 260 253 254
f 260 254 255
f 260 255 256
f 261 256 250
f 261 250 251
f 262 260 256
f 262 256 261
f 263 259 260
f 263 260 262
f 264 258 259
f 264 259 263
f 265 257 258
f 265 258 264
f 233 234 266
f 233 266 267
f 230 231 233
f 230 233 267
f 240 239 244
f 240 244 268
f 257 265 267
f 257 267 266
f 227 225 220
f 227 220 269
f 269 220 217
f 269 217 78
f 269 270 234
f 269 234 227
f 269 78 75
f 269 75 270
f 270 75 70
f 270 70 240
f 270 240 268
f 270 268 271
f 271 266 234
f 271 234 270
f 245 257 266
f 245 266 271
f 271 268 244
f 271 244 245
f 272 273 274
f 272 274 275
f 276 272 275
f 276 275 277
f 278 261 251
f 278 251 252
f 273 272 279
f 273 279 280
f 280 279 205
f 280 205 281
f 282 283 215
f 282 215 214
f 284 285 286
f 284 286 287
f 288 284 287
f 288 287 289
f 288 289 283
f 288 283 282
f 282 214 218
f 282 218 290
f 218 219 223
f 218 223 290
f 291 252 215
f 291 215 283
f 292 278 252
f 292 252 291
f 293 291 283
f 293 283 289
f 294 292 291
f 294 291 293
f 295 223 222
f 295 222 31
f 295 31 30
f 295 30 296
f 296 30 34
f 296 34 297
f 274 273 298
f 274 298 299
f 300 299 298
f 300 298 301
f 300 301 296
f 300 296 297
f 288 282 290
f 288 290 302
f 302 301 298
f 302 298 303
f 303 298 273
f 303 273 280
f 280 285 284
f 280 284 303
f 303 284 288
f 303 288 302
f 302 290 223
f 302 223 295
f 302 295 296
f 302 296 301
f 304 305 287
f 304 287 286
f 293 289 287
f 293 287 305
f 305 304 306
f 305 306 307
f 305 307 308
f 305 308 293
f 309 294 293
f 309 293 308
f 310 306 304
f 310 304 311
f 311 304 286
f 311 286 312
f 312 286 285
f 312 285 313
f 314 201 165
f 314 165 164
f 281 205 201
f 281 201 314
f 285 280 281
f 285 281 313
f 315 316 308
f 315 308 307
f 317 315 307
f 317 307 306
f 306 310 318
f 306 318 317
f 319 309 308
f 319 308 316
f 320 321 309
f 320 309 319
f 322 321 320
f 322 320 323
f 324 325 322
f 324 322 323
f 326 327 325
f 326 325 324
f 328 327 326
f 328 326 329
f 318 310 328
f 318 328 329
f 326 324 330
f 326 330 331
f 329 326 331
f 329 331 332
f 330 324 323
f 330 323 333
f 334 320 319
f 334 319 335
f 333 323 320
f 333 320 334
f 335 319 316
f 335 316 336
f 336 316 315
f 336 315 337
f 337 315 317
f 337 317 338
f 338 317 318
f 338 318 339
f 339 318 329
f 339 329 332
f 340 341 338
f 340 338 339
f 342 337 338
f 342 338 341
f 343 336 337
f 343 337 342
f 344 335 336
f 344 336 343
f 345 334 335
f 345 335 344
f 346 333 334
f 346 334 345
f 347 330 333
f 347 333 346
f 331 330 347
f 331 347 348
f 332 331 348
f 332 348 349
f 340 339 332
f 340 332 349
f 350 342 341
f 350 341 351
f 343 342 350
f 343 350 352
f 344 343 352
f 344 352 353
f 354 351 341
f 354 341 340
f 354 340 349
f 354 349 355
f 355 349 348
f 355 348 356
f 356 348 347
f 356 347 357
f 357 347 346
f 357 346 358
f 358 346 345
f 358 345 359
f 345 344 353
f 345 353 359
f 360 350 351
f 360 351 361
f 352 350 360
f 352 360 362
f 363 361 351
f 363 351 354
f 353 352 362
f 353 362 364
f 365 360 361
f 365 361 366
f 367 362 360
f 367 360 365
f 368 359 353
f 368 353 364
f 364 362 367
f 364 367 369
f 369 367 365
f 369 365 370
f 371 358 359
f 371 359 368
f 371 372 357
f 371 357 358
f 373 371 368
f 373 368 374
f 374 368 364
f 374 364 369
f 374 369 370
f 374 370 375
f 376 370 365
f 376 365 366
f 376 366 361
f 376 361 363
f 377 363 354
f 377 354 355
f 378 375 370
f 378 370 376
f 373 374 375
f 373 375 379
f 379 372 371
f 379 371 373
f 380 356 357
f 380 357 372
f 380 377 355
f 380 355 356
f 381 379 375
f 381 375 378
f 378 376 363
f 378 363 377
f 378 377 380
f 378 380 381
f 380 372 379
f 380 379 381
f 382 183 181
f 382 181 182
f 182 160 159
f 182 159 187
f 262 261 278
f 262 278 383
f 384 182 187
f 384 187 186
f 385 382 182
f 385 182 384
f 386 387 385
f 386 385 384
f 384 186 95
f 384 95 230
f 384 230 267
f 384 267 386
f 267 265 387
f 267 387 386
f 387 265 264
f 387 264 388
f 263 262 383
f 263 383 389
f 388 264 263
f 388 263 389
f 390 385 387
f 390 387 388
f 383 278 292
f 383 292 391
f 389 383 391
f 389 391 392
f 390 388 389
f 390 389 392
f 393 382 385
f 393 385 390
f 394 294 309
f 394 309 321
f 394 391 292
f 394 292 294
f 392 391 394
f 392 394 395
f 393 390 392
f 393 392 395
f 396 183 382
f 396 382 393
f 394 321 322
f 394 322 397
f 395 394 397
f 395 397 398
f 396 393 395
f 396 395 398
f 179 183 396
f 179 396 399
f 400 397 322
f 400 322 325
f 398 397 400
f 398 400 401
f 399 396 398
f 399 398 401
f 105 179 399
f 105 399 402
f 403 400 325
f 403 325 327
f 401 400 403
f 401 403 404
f 402 399 401
f 402 401 404
f 106 105 402
f 106 402 405
f 403 327 328
f 403 328 406
f 406 328 310
f 406 310 311
f 404 403 406
f 404 406 407
f 405 402 404
f 405 404 407
f 408 406 311
f 408 311 312
f 101 106 405
f 101 405 409
f 407 406 408
f 407 408 410
f 409 405 407
f 409 407 410
f 411 408 312
f 411 312 313
f 411 313 281
f 411 281 314
f 236 64 56
f 236 56 412
f 226 225 229
f 226 229 413
f 414 224 226
f 414 226 413
f 414 413 415
f 414 415 416
f 32 224 414
f 32 414 417
f 417 414 416
f 417 416 418
f 33 32 417
f 33 417 419
f 420 416 415
f 420 415 421
f 422 419 417
f 422 417 418
f 422 418 416
f 422 416 420
f 35 33 419
f 35 419 423
f 424 420 421
f 424 421 425
f 426 423 419
f 426 419 422
f 426 422 420
f 426 420 424
f 427 425 421
f 427 421 428
f 429 427 428
f 429 428 430
f 429 430 431
f 429 431 432
f 433 229 228
f 433 228 237
f 412 56 55
f 412 55 434
f 435 436 431
f 435 431 430
f 196 195 213
f 196 213 437
f 437 213 436
f 437 436 435
f 438 314 164
f 438 164 163
f 439 411 314
f 439 314 438
f 438 163 168
f 438 168 196
f 438 196 437
f 438 437 440
f 439 410 408
f 439 408 411
f 55 101 409
f 55 409 434
f 434 409 410
f 434 410 439
f 439 438 440
f 439 440 441
f 440 437 435
f 440 435 441
f 442 435 430
f 442 430 428
f 428 421 415
f 428 415 442
f 415 413 229
f 415 229 433
f 433 412 434
f 433 434 443
f 237 236 412
f 237 412 433
f 443 442 415
f 443 415 433
f 443 434 439
f 443 439 441
f 443 441 435
f 443 435 442
f 436 213 212
f 436 212 444
f 445 446 447
f 445 447 448
f 446 449 450
f 446 450 451
f 451 452 447
f 451 447 446
f 453 452 451
f 453 451 454
f 455 456 453
f 455 453 454
f 454 451 450
f 454 450 457
f 457 458 455
f 457 455 454
f 449 459 460
f 449 460 461
f 450 449 461
f 450 461 462
f 463 462 461
f 463 461 464
f 463 464 465
f 463 465 466
f 457 450 462
f 457 462 467
f 463 466 468
f 463 468 469
f 467 462 463
f 467 463 469
f 458 457 467
f 458 467 470
f 471 470 467
f 471 467 469
f 471 469 468
f 471 468 472
f 473 274 299
f 473 299 474
f 475 476 473
f 475 473 474
f 277 275 274
f 277 274 473
f 477 478 277
f 477 277 473
f 476 460 477
f 476 477 473
f 476 475 465
f 476 465 464
f 464 461 460
f 464 460 476
f 479 470 471
f 479 471 480
f 471 472 481
f 471 481 480
f 458 470 479
f 458 479 482
f 483 455 458
f 483 458 482
f 484 456 455
f 484 455 483
f 485 477 460
f 485 460 459
f 445 459 449
f 445 449 446
f 444 212 211
f 444 211 486
f 487 431 436
f 487 436 444
f 210 209 488
f 210 488 489
f 486 211 210
f 486 210 489
f 488 209 208
f 488 208 490
f 432 431 487
f 432 487 491
f 492 487 444
f 492 444 486
f 493 491 487
f 493 487 492
f 490 208 207
f 490 207 494
f 478 477 485
f 478 485 495
f 495 485 496
f 495 496 497
f 276 277 478
f 276 478 495
f 497 498 276
f 497 276 495
f 206 205 279
f 206 279 498
f 498 279 272
f 498 272 276
f 494 207 206
f 494 206 498
f 497 490 494
f 497 494 498
f 496 485 459
f 496 459 445
f 445 448 499
f 445 499 496
f 496 499 491
f 496 491 493
f 496 493 492
f 496 492 497
f 497 492 486
f 497 486 489
f 497 489 488
f 497 488 490
f 189 188 190
f 189 190 500
f 501 190 159
f 501 159 161
f 502 501 161
f 502 161 162
f 502 162 13
f 502 13 503
f 504 503 13
f 504 13 14
f 192 184 189
f 192 189 500
f 500 190 501
f 500 501 505
f 506 507 191
f 506 191 192
f 506 192 500
f 506 500 505
f 505 501 502
f 505 502 508
f 509 510 507
f 509 507 506
f 509 506 505
f 509 505 508
f 511 508 502
f 511 502 503
f 512 513 510
f 512 510 509
f 512 509 508
f 512 508 511
f 514 18 21
f 514 21 515
f 516 504 14
f 516 14 17
f 516 17 18
f 516 18 514
f 517 511 503
f 517 503 504
f 517 504 516
f 517 516 518
f 519 520 513
f 519 513 512
f 521 522 520
f 521 520 519
f 519 512 511
f 519 511 517
f 519 517 518
f 519 518 521
f 518 516 514
f 518 514 521
f 521 514 515
f 521 515 522
f 523 524 525
f 523 525 526
f 526 525 527
f 526 527 528
f 529 530 531
f 529 531 532
f 532 533 534
f 532 534 529
f 528 527 533
f 528 533 532
f 531 530 535
f 531 535 536
f 537 538 534
f 537 534 533
f 527 539 537
f 527 537 533
f 525 524 540
f 525 540 541
f 525 541 539
f 525 539 527
f 542 543 530
f 542 530 529
f 529 534 544
f 529 544 542
f 530 543 545
f 530 545 546
f 530 546 547
f 530 547 535
f 534 538 548
f 534 548 544
f 544 549 543
f 544 543 542
f 549 550 545
f 549 545 543
f 550 551 546
f 550 546 545
f 535 552 553
f 535 553 536
f 552 554 555
f 552 555 553
f 556 557 558
f 556 558 559
f 559 555 554
f 559 554 556
f 557 560 561
f 557 561 558
f 551 562 547
f 551 547 546
f 562 563 564
f 562 564 547
f 547 564 552
f 547 552 535
f 564 563 565
f 564 565 566
f 564 566 554
f 564 554 552
f 567 566 565
f 567 565 568
f 556 554 566
f 556 566 567
f 567 568 569
f 567 569 570
f 567 570 557
f 567 557 556
f 571 572 573
f 571 573 574
f 574 573 575
f 574 575 576
f 574 577 578
f 574 578 571
f 579 580 577
f 579 577 574
f 576 581 579
f 576 579 574
f 572 582 583
f 572 583 573
f 573 583 584
f 573 584 575
f 538 537 585
f 538 585 586
f 586 585 587
f 586 587 588
f 586 589 590
f 586 590 538
f 588 591 589
f 588 589 586
f 582 592 593
f 582 593 583
f 583 593 594
f 583 594 595
f 583 595 596
f 583 596 584
f 593 592 597
f 593 597 598
f 593 598 599
f 593 599 594
f 577 600 601
f 577 601 578
f 580 602 600
f 580 600 577
f 600 603 604
f 600 604 601
f 602 605 603
f 602 603 600
f 603 606 607
f 603 607 604
f 605 608 606
f 605 606 603
f 606 609 610
f 606 610 607
f 608 611 609
f 608 609 606
f 609 612 613
f 609 613 610
f 611 614 612
f 611 612 609
f 615 616 613
f 615 613 612
f 614 617 615
f 614 615 612
f 604 607 610
f 604 610 618
f 618 619 601
f 618 601 604
f 610 613 616
f 610 616 618
f 619 620 578
f 619 578 601
f 620 572 571
f 620 571 578
f 620 592 582
f 620 582 572
f 616 615 598
f 616 598 597
f 616 597 619
f 616 619 618
f 617 599 598
f 617 598 615
f 597 592 620
f 597 620 619
f 621 622 595
f 621 595 594
f 594 599 623
f 594 623 621
f 622 624 596
f 622 596 595
f 599 617 625
f 599 625 623
f 617 614 626
f 617 626 625
f 614 611 627
f 614 627 626
f 628 627 611
f 628 611 608
f 608 605 629
f 608 629 628
f 605 602 630
f 605 630 629
f 580 579 631
f 580 631 632
f 632 633 602
f 632 602 580
f 581 634 631
f 581 631 579
f 524 523 635
f 524 635 636
f 636 637 540
f 636 540 524
f 584 596 638
f 584 638 639
f 639 638 640
f 639 640 641
f 642 575 584
f 642 584 639
f 641 539 642
f 641 642 639
f 638 596 624
f 638 624 643
f 638 643 644
f 638 644 640
f 585 537 539
f 585 539 641
f 641 640 587
f 641 587 585
f 645 646 590
f 645 590 589
f 589 591 647
f 589 647 645
f 590 646 648
f 590 648 649
f 590 649 548
f 590 548 538
f 539 541 650
f 539 650 642
f 642 650 576
f 642 576 575
f 541 540 651
f 541 651 650
f 650 651 581
f 650 581 576
f 651 540 637
f 651 637 652
f 651 652 634
f 651 634 581
f 653 654 655
f 653 655 656
f 657 644 654
f 657 654 653
f 653 656 658
f 653 658 659
f 653 659 660
f 653 660 657
f 661 662 655
f 661 655 654
f 644 643 661
f 644 661 654
f 663 664 665
f 663 665 666
f 658 656 664
f 658 664 663
f 663 666 667
f 663 667 668
f 668 669 658
f 668 658 663
f 664 670 671
f 664 671 665
f 656 655 670
f 656 670 664
f 672 673 671
f 672 671 670
f 670 655 674
f 670 674 672
f 675 676 665
f 675 665 671
f 673 677 675
f 673 675 671
f 676 678 666
f 676 666 665
f 666 678 679
f 666 679 667
f 680 681 676
f 680 676 675
f 677 682 680
f 677 680 675
f 681 683 678
f 681 678 676
f 678 683 684
f 678 684 679
f 683 681 685
f 683 685 686
f 683 686 687
f 683 687 684
f 681 680 688
f 681 688 685
f 680 647 591
f 680 591 688
f 682 689 647
f 682 647 680
f 689 690 645
f 689 645 647
f 691 692 693
f 691 693 694
f 689 682 692
f 689 692 691
f 694 695 696
f 694 696 691
f 691 696 690
f 691 690 689
f 692 697 698
f 692 698 693
f 682 677 697
f 682 697 692
f 697 699 700
f 697 700 698
f 677 673 699
f 677 699 697
f 699 701 702
f 699 702 700
f 673 672 701
f 673 701 699
f 703 704 702
f 703 702 701
f 672 674 703
f 672 703 701
f 696 695 705
f 696 705 706
f 696 706 707
f 696 707 708
f 708 709 690
f 708 690 696
f 710 711 712
f 710 712 713
f 714 715 711
f 714 711 710
f 710 713 716
f 710 716 717
f 717 709 714
f 717 714 710
f 694 693 718
f 694 718 719
f 694 719 720
f 694 720 695
f 693 698 721
f 693 721 718
f 698 700 722
f 698 722 721
f 700 702 723
f 700 723 722
f 702 704 724
f 702 724 723
f 655 662 725
f 655 725 674
f 726 727 662
f 726 662 661
f 661 643 624
f 661 624 726
f 728 729 704
f 728 704 703
f 674 725 728
f 674 728 703
f 704 729 730
f 704 730 724
f 623 625 731
f 623 731 732
f 732 733 621
f 732 621 623
f 625 626 734
f 625 734 731
f 602 633 735
f 602 735 630
f 632 631 736
f 632 736 737
f 632 737 738
f 632 738 633
f 634 739 736
f 634 736 631
f 662 727 740
f 662 740 725
f 741 742 729
f 741 729 728
f 725 740 741
f 725 741 728
f 742 743 730
f 742 730 729
f 722 744 745
f 722 745 721
f 723 746 744
f 723 744 722
f 747 748 745
f 747 745 744
f 746 749 747
f 746 747 744
f 721 745 750
f 721 750 718
f 748 751 750
f 748 750 745
f 752 753 718
f 752 718 750
f 750 751 754
f 750 754 752
f 755 748 747
f 755 747 756
f 756 747 749
f 756 749 757
f 758 759 755
f 758 755 756
f 757 760 758
f 757 758 756
f 753 761 719
f 753 719 718
f 719 761 762
f 719 762 720
f 755 759 763
f 755 763 764
f 755 764 751
f 755 751 748
f 765 766 763
f 765 763 759
f 758 767 765
f 758 765 759
f 768 769 764
f 768 764 763
f 763 766 770
f 763 770 768
f 769 754 751
f 769 751 764
f 771 772 773
f 771 773 774
f 774 773 775
f 774 775 776
f 777 778 771
f 777 771 774
f 774 776 779
f 774 779 777
f 761 773 772
f 761 772 762
f 753 775 773
f 753 773 761
f 780 781 766
f 780 766 765
f 767 782 780
f 767 780 765
f 766 781 783
f 766 783 770
f 781 780 784
f 781 784 785
f 781 785 786
f 781 786 783
f 782 787 784
f 782 784 780
f 785 784 788
f 785 788 789
f 785 789 790
f 785 790 786
f 784 787 791
f 784 791 788
f 758 760 792
f 758 792 767
f 793 794 757
f 793 757 749
f 746 795 793
f 746 793 749
f 794 796 760
f 794 760 757
f 760 796 797
f 760 797 792
f 798 799 794
f 798 794 793
f 793 795 800
f 793 800 798
f 799 801 796
f 799 796 794
f 796 801 802
f 796 802 797
f 795 724 803
f 795 803 800
f 746 723 724
f 746 724 795
f 724 730 804
f 724 804 803
f 730 805 806
f 730 806 804
f 743 807 805
f 743 805 730
f 808 809 806
f 808 806 805
f 807 738 808
f 807 808 805
f 806 809 810
f 806 810 811
f 806 811 812
f 806 812 813
f 813 814 804
f 813 804 806
f 815 816 800
f 815 800 803
f 803 804 814
f 803 814 815
f 816 817 798
f 816 798 800
f 817 818 799
f 817 799 798
f 818 819 801
f 818 801 799
f 819 820 802
f 819 802 801
f 767 792 821
f 767 821 782
f 792 797 822
f 792 822 821
f 797 802 823
f 797 823 822
f 802 820 824
f 802 824 823
f 825 787 782
f 825 782 821
f 821 822 826
f 821 826 825
f 827 828 810
f 827 810 809
f 809 808 829
f 809 829 827
f 812 830 831
f 812 831 813
f 832 833 831
f 832 831 830
f 834 835 836
f 834 836 837
f 837 838 839
f 837 839 834
f 835 840 841
f 835 841 836
f 842 843 820
f 842 820 819
f 819 818 844
f 819 844 842
f 843 845 824
f 843 824 820
f 840 846 847
f 840 847 841
f 847 848 823
f 847 823 824
f 845 841 847
f 845 847 824
f 822 823 848
f 822 848 826
f 787 825 849
f 787 849 791
f 825 826 850
f 825 850 849
f 826 848 851
f 826 851 850
f 848 847 846
f 848 846 851
f 808 738 852
f 808 852 829
f 652 637 853
f 652 853 854
f 652 854 739
f 652 739 634
f 637 636 855
f 637 855 853
f 636 635 856
f 636 856 855
f 738 737 857
f 738 857 852
f 807 735 633
f 807 633 738
f 737 736 707
f 737 707 857
f 739 858 707
f 739 707 736
f 854 853 859
f 854 859 860
f 860 858 739
f 860 739 854
f 853 855 861
f 853 861 859
f 855 856 862
f 855 862 861
f 863 864 827
f 863 827 829
f 852 865 863
f 852 863 829
f 864 866 828
f 864 828 827
f 867 868 869
f 867 869 870
f 871 734 868
f 871 868 867
f 867 870 872
f 867 872 873
f 873 874 871
f 873 871 867
f 627 628 869
f 627 869 868
f 627 868 734
f 627 734 626
f 628 629 630
f 628 630 869
f 870 869 630
f 870 630 735
f 807 872 870
f 807 870 735
f 769 768 875
f 769 875 876
f 769 876 877
f 769 877 754
f 768 770 878
f 768 878 875
f 770 783 879
f 770 879 878
f 783 786 880
f 783 880 879
f 786 790 881
f 786 881 880
f 882 883 880
f 882 880 881
f 883 884 879
f 883 879 880
f 884 885 878
f 884 878 879
f 885 886 875
f 885 875 878
f 886 887 876
f 886 876 875
f 887 888 877
f 887 877 876
f 877 888 889
f 877 889 890
f 877 890 752
f 877 752 754
f 891 892 772
f 891 772 771
f 778 893 891
f 778 891 771
f 772 892 894
f 772 894 762
f 887 886 895
f 887 895 896
f 896 897 888
f 896 888 887
f 886 885 898
f 886 898 895
f 885 884 899
f 885 899 898
f 884 883 900
f 884 900 899
f 883 882 901
f 883 901 900
f 695 720 902
f 695 902 705
f 711 903 904
f 711 904 712
f 715 905 903
f 715 903 711
f 903 906 907
f 903 907 904
f 905 908 906
f 905 906 903
f 909 910 907
f 909 907 906
f 908 911 909
f 908 909 906
f 894 902 720
f 894 720 762
f 706 705 912
f 706 912 913
f 706 913 857
f 706 857 707
f 705 902 914
f 705 914 912
f 902 894 915
f 902 915 914
f 857 913 865
f 857 865 852
f 863 865 913
f 863 913 912
f 912 914 864
f 912 864 863
f 915 866 864
f 915 864 914
f 669 916 659
f 669 659 658
f 917 918 919
f 917 919 920
f 921 922 918
f 921 918 917
f 917 920 923
f 917 923 858
f 917 858 860
f 917 860 921
f 920 919 924
f 920 924 925
f 925 714 923
f 925 923 920
f 926 927 562
f 926 562 551
f 551 550 928
f 551 928 926
f 927 929 563
f 927 563 562
f 930 931 927
f 930 927 926
f 926 932 933
f 926 933 930
f 931 934 929
f 931 929 927
f 929 935 565
f 929 565 563
f 934 936 935
f 934 935 929
f 936 937 938
f 936 938 935
f 939 940 941
f 939 941 942
f 940 938 937
f 940 937 941
f 565 935 938
f 565 938 568
f 943 944 945
f 943 945 946
f 946 945 947
f 946 947 948
f 946 949 950
f 946 950 943
f 948 648 949
f 948 949 946
f 944 951 952
f 944 952 945
f 945 952 953
f 945 953 947
f 949 954 955
f 949 955 950
f 648 646 954
f 648 954 949
f 646 716 955
f 646 955 954
f 955 956 957
f 955 957 950
f 716 713 956
f 716 956 955
f 713 712 957
f 713 957 956
f 957 958 943
f 957 943 950
f 712 904 958
f 712 958 957
f 958 959 944
f 958 944 943
f 904 907 959
f 904 959 958
f 959 960 951
f 959 951 944
f 907 910 960
f 907 960 959
f 910 961 951
f 910 951 960
f 961 953 952
f 961 952 951
f 962 963 964
f 962 964 965
f 966 967 962
f 966 962 965
f 963 900 901
f 963 901 964
f 897 968 889
f 897 889 888
f 893 778 969
f 893 969 970
f 889 776 775
f 889 775 890
f 968 779 776
f 968 776 889
f 753 752 890
f 753 890 775
f 963 971 899
f 963 899 900
f 971 895 898
f 971 898 899
f 971 972 896
f 971 896 895
f 972 973 897
f 972 897 896
f 973 974 968
f 973 968 897
f 974 777 779
f 974 779 968
f 974 969 778
f 974 778 777
f 963 962 972
f 963 972 971
f 967 973 972
f 967 972 962
f 973 967 969
f 973 969 974
f 967 966 970
f 967 970 969
f 814 975 816
f 814 816 815
f 975 976 817
f 975 817 816
f 976 844 818
f 976 818 817
f 648 948 977
f 648 977 649
f 645 690 716
f 645 716 646
f 716 690 709
f 716 709 717
f 909 978 961
f 909 961 910
f 978 979 953
f 978 953 961
f 979 980 947
f 979 947 953
f 980 977 948
f 980 948 947
f 813 831 975
f 813 975 814
f 833 976 975
f 833 975 831
f 838 833 832
f 838 832 839
f 733 981 622
f 733 622 621
f 981 726 624
f 981 624 622
f 982 983 588
f 982 588 587
f 640 644 982
f 640 982 587
f 983 688 591
f 983 591 588
f 649 977 984
f 649 984 548
f 707 858 923
f 707 923 708
f 977 980 985
f 977 985 984
f 980 979 986
f 980 986 985
f 979 978 987
f 979 987 986
f 978 909 911
f 978 911 987
f 988 989 933
f 988 933 990
f 990 933 932
f 990 932 991
f 991 908 905
f 991 905 990
f 990 905 715
f 990 715 988
f 550 549 984
f 550 984 928
f 548 984 549
f 548 549 544
f 984 985 986
f 984 986 928
f 986 987 911
f 986 911 928
f 911 908 991
f 911 991 928
f 715 714 925
f 715 925 988
f 709 708 923
f 709 923 714
f 743 742 872
f 743 872 807
f 871 992 731
f 871 731 734
f 992 733 732
f 992 732 731
f 992 993 981
f 992 981 733
f 993 727 726
f 993 726 981
f 874 993 992
f 874 992 871
f 742 741 873
f 742 873 872
f 741 740 874
f 741 874 873
f 740 727 993
f 740 993 874
f 994 995 983
f 994 983 982
f 982 644 657
f 982 657 994
f 995 685 688
f 995 688 983
f 916 996 660
f 916 660 659
f 997 998 995
f 997 995 994
f 999 1000 998
f 999 998 997
f 994 657 660
f 994 660 997
f 997 660 996
f 997 996 999
f 998 686 685
f 998 685 995
f 1000 687 686
f 1000 686 998
f 1001 1002 1000
f 1001 1000 999
f 999 996 1003
f 999 1003 1001
f 1002 1004 687
f 1002 687 1000
f 996 916 1005
f 996 1005 1003
f 1004 1006 684
f 1004 684 687
f 916 669 1007
f 916 1007 1005
f 669 668 1008
f 669 1008 1007
f 668 667 1009
f 668 1009 1008
f 667 679 1010
f 667 1010 1009
f 679 684 1006
f 679 1006 1010
f 1011 1012 1008
f 1011 1008 1009
f 1009 1010 1013
f 1009 1013 1011
f 1012 1014 1007
f 1012 1007 1008
f 1010 1006 1015
f 1010 1015 1013
f 1006 1004 1016
f 1006 1016 1015
f 1014 1017 1005
f 1014 1005 1007
f 1017 1018 1003
f 1017 1003 1005
f 1001 1003 1018
f 1001 1018 1019
f 1019 1020 1002
f 1019 1002 1001
f 1020 1016 1004
f 1020 1004 1002
f 1021 1022 1020
f 1021 1020 1019
f 1019 1018 1023
f 1019 1023 1021
f 1022 1024 1016
f 1022 1016 1020
f 1024 1025 1015
f 1024 1015 1016
f 1018 1017 1026
f 1018 1026 1023
f 1017 1014 1027
f 1017 1027 1026
f 1014 1012 1028
f 1014 1028 1027
f 1012 1011 1029
f 1012 1029 1028
f 1011 1013 1030
f 1011 1030 1029
f 1013 1015 1025
f 1013 1025 1030
f 1031 1032 1022
f 1031 1022 1021
f 1021 1023 1033
f 1021 1033 1031
f 1032 1034 1024
f 1032 1024 1022
f 1023 1026 1035
f 1023 1035 1033
f 1026 1027 1036
f 1026 1036 1035
f 1034 1037 1025
f 1034 1025 1024
f 1037 1038 1030
f 1037 1030 1025
f 1038 1039 1029
f 1038 1029 1030
f 1039 1040 1028
f 1039 1028 1029
f 1040 1036 1027
f 1040 1027 1028
f 1041 1034 1032
f 1041 1032 1031
f 1031 1033 1035
f 1031 1035 1041
f 1036 1042 1041
f 1036 1041 1035
f 1042 1037 1034
f 1042 1034 1041
f 1036 1040 1039
f 1036 1039 1042
f 1042 1039 1038
f 1042 1038 1037
f 859 861 921
f 859 921 860
f 861 862 922
f 861 922 921
f 925 924 989
f 925 989 988
f 938 940 569
f 938 569 568
f 1043 1044 570
f 1043 570 569
f 940 939 1043
f 940 1043 569
f 570 1044 560
f 570 560 557
f 926 928 991
f 926 991 932
f 833 838 844
f 833 844 976
f 838 837 842
f 838 842 844
f 837 836 843
f 837 843 842
f 843 836 841
f 843 841 845
f 1045 90 94
f 1045 94 1046
f 1047 812 811
f 1047 811 1046
f 1046 94 185
f 1046 185 1047
f 1048 830 812
f 1048 812 1047
f 835 834 1049
f 835 1049 1050
f 1050 520 522
f 1050 522 1051
f 840 835 1050
f 840 1050 1051
f 1051 522 515
f 1051 515 1052
f 846 840 1051
f 846 1051 1052
f 1052 515 21
f 1052 21 1053
f 1053 851 846
f 1053 846 1052
f 1053 21 20
f 1053 20 1054
f 1054 850 851
f 1054 851 1053
f 1054 20 23
f 1054 23 1055
f 849 850 1054
f 849 1054 1055
f 1055 23 26
f 1055 26 1056
f 791 849 1055
f 791 1055 1056
f 1056 26 29
f 1056 29 1057
f 788 791 1056
f 788 1056 1057
f 1046 811 810
f 1046 810 1045
f 1057 29 40
f 1057 40 1058
f 789 788 1057
f 789 1057 1058
f 1058 40 41
f 1058 41 1059
f 790 789 1058
f 790 1058 1059
f 1060 891 893
f 1060 893 1061
f 1059 41 53
f 1059 53 1062
f 881 790 1059
f 881 1059 1062
f 1060 125 60
f 1060 60 1063
f 1063 892 891
f 1063 891 1060
f 1064 88 90
f 1064 90 1045
f 1064 1045 810
f 1064 810 828
f 1063 60 59
f 1063 59 1065
f 894 892 1063
f 894 1063 1065
f 1066 63 67
f 1066 67 1067
f 1067 67 88
f 1067 88 1064
f 1067 1064 828
f 1067 828 866
f 1067 866 915
f 1067 915 1066
f 1065 59 63
f 1065 63 1066
f 915 894 1065
f 915 1065 1066
f 1062 53 115
f 1062 115 1068
f 882 881 1062
f 882 1062 1068
f 1069 127 130
f 1069 130 1070
f 1070 964 901
f 1070 901 1069
f 1068 115 127
f 1068 127 1069
f 901 882 1068
f 901 1068 1069
f 1070 130 129
f 1070 129 1071
f 1071 965 964
f 1071 964 1070
f 1061 153 125
f 1061 125 1060
f 1061 893 970
f 1061 970 1072
f 1071 129 152
f 1071 152 1073
f 1073 152 154
f 1073 154 1072
f 966 965 1071
f 966 1071 1073
f 1072 970 966
f 1072 966 1073
f 1072 154 153
f 1072 153 1061
f 1049 513 520
f 1049 520 1050
f 1049 834 839
f 1049 839 1074
f 1047 185 191
f 1047 191 1048
f 1075 832 830
f 1075 830 1048
f 1074 510 513
f 1074 513 1049
f 1075 507 510
f 1075 510 1074
f 1074 839 832
f 1074 832 1075
f 1048 191 507
f 1048 507 1075
f 1076 474 299
f 1076 299 1077
f 1076 531 536
f 1076 536 1078
f 1078 475 474
f 1078 474 1076
f 1078 536 553
f 1078 553 1079
f 1080 1081 558
f 1080 558 561
f 1081 1082 559
f 1081 559 558
f 1083 523 526
f 1083 526 1084
f 1083 34 35
f 1083 35 1085
f 635 523 1083
f 635 1083 1085
f 931 930 1086
f 931 1086 1087
f 1087 448 447
f 1087 447 1088
f 934 931 1087
f 934 1087 1088
f 1088 447 452
f 1088 452 1089
f 936 934 1088
f 936 1088 1089
f 1089 452 453
f 1089 453 1090
f 937 936 1089
f 937 1089 1090
f 1091 942 941
f 1091 941 1092
f 1090 453 456
f 1090 456 1092
f 1092 941 937
f 1092 937 1090
f 1079 465 475
f 1079 475 1078
f 1079 553 555
f 1079 555 1093
f 1081 472 468
f 1081 468 1082
f 1082 468 466
f 1082 466 1093
f 1093 555 559
f 1093 559 1082
f 1093 466 465
f 1093 465 1079
f 1086 499 448
f 1086 448 1087
f 1086 930 933
f 1086 933 1094
f 1084 297 34
f 1084 34 1083
f 1084 526 528
f 1084 528 1095
f 1077 299 300
f 1077 300 1095
f 1077 532 531
f 1077 531 1076
f 1095 528 532
f 1095 532 1077
f 1095 300 297
f 1095 297 1084
f 1096 918 922
f 1096 922 1097
f 1085 35 423
f 1085 423 1098
f 856 635 1085
f 856 1085 1098
f 1097 424 425
f 1097 425 1096
f 1099 426 424
f 1099 424 1097
f 1097 922 862
f 1097 862 1099
f 1098 423 426
f 1098 426 1099
f 862 856 1098
f 862 1098 1099
f 1096 425 427
f 1096 427 1100
f 919 918 1096
f 919 1096 1100
f 1094 491 499
f 1094 499 1086
f 1094 933 989
f 1094 989 1101
f 1100 427 429
f 1100 429 1102
f 1102 429 432
f 1102 432 1101
f 924 919 1100
f 924 1100 1102
f 1101 989 924
f 1101 924 1102
f 1101 432 491
f 1101 491 1094
f 1080 481 472
f 1080 472 1081
f 1103 480 481
f 1103 481 1080
f 1080 561 560
f 1080 560 1103
f 1104 479 480
f 1104 480 1103
f 1103 560 1044
f 1103 1044 1104
f 1105 482 479
f 1105 479 1104
f 1104 1044 1043
f 1104 1043 1105
f 1092 456 484
f 1092 484 1091
f 1091 484 483
f 1091 483 1106
f 1106 939 942
f 1106 942 1091
f 1106 483 482
f 1106 482 1105
f 1105 1043 939
f 1105 939 1106
