# L4 rest
v -0.007772 -0.182834 -0.043812
v -0.007490 -0.184436 -0.043869
v -0.009003 -0.185418 -0.045259
v -0.009828 -0.184612 -0.045728
v -0.011731 -0.187009 -0.045730
v -0.011001 -0.187238 -0.046131
v -0.011215 -0.189744 -0.045518
v -0.012039 -0.189592 -0.045086
v -0.014564 -0.174834 -0.010854
v -0.014037 -0.178459 -0.009139
v -0.011069 -0.176590 -0.005215
v -0.011438 -0.172444 -0.007248
v -0.013207 -0.173998 -0.011926
v -0.010158 -0.171915 -0.008593
v -0.006958 -0.175327 -0.002379
v -0.007078 -0.170882 -0.004621
v -0.006263 -0.170370 -0.006276
v -0.002368 -0.169269 -0.005042
v -0.002513 -0.169855 -0.003073
v 0.001319 -0.169610 -0.001827
v 0.001515 -0.168608 -0.003926
v -0.002674 -0.174356 -0.000773
v 0.001210 -0.173901 0.000260
v -0.006857 -0.179972 0.000157
v -0.002756 -0.179003 0.001787
v 0.001141 -0.178468 0.002644
v -0.006860 -0.184034 0.002745
v -0.002793 -0.183065 0.004227
v 0.001109 -0.182542 0.004945
v 0.001385 -0.194685 -0.041764
v 0.000216 -0.194274 -0.040139
v 0.001025 -0.192889 -0.038733
v 0.002284 -0.193407 -0.039967
v 0.002888 -0.194171 -0.043402
v 0.003671 -0.193540 -0.040876
v -0.010764 -0.185474 -0.000037
v -0.010880 -0.189233 0.002599
v -0.006827 -0.187755 0.005299
v -0.002751 -0.186739 0.006597
v 0.001160 -0.186142 0.007230
v 0.001347 -0.189171 0.009065
v -0.002564 -0.189933 0.008473
v -0.006587 -0.190881 0.007336
v -0.010686 -0.192306 0.004598
v -0.013857 -0.191172 -0.001760
v -0.013844 -0.194440 0.000077
v -0.015025 -0.193173 -0.006478
v -0.015057 -0.196588 -0.004719
v -0.009809 -0.193975 0.004545
v -0.012807 -0.195979 0.000276
v -0.006012 -0.192635 0.007160
v -0.002146 -0.191953 0.008258
v 0.001608 -0.191291 0.009071
v -0.004942 -0.196757 -0.025533
v -0.006746 -0.195933 -0.027940
v -0.005510 -0.194226 -0.027616
v -0.003357 -0.194947 -0.024669
v -0.001457 -0.199925 -0.022517
v 0.001548 -0.198920 -0.021907
v 0.002089 -0.201159 -0.019510
v -0.000813 -0.201403 -0.019868
v -0.002240 -0.192607 -0.024648
v 0.001582 -0.192959 -0.023482
v -0.004813 -0.192710 -0.027485
v -0.002023 -0.189587 -0.026197
v -0.004425 -0.190380 -0.028201
v 0.001660 -0.189008 -0.025706
v -0.005975 -0.184017 -0.042237
v -0.005678 -0.182207 -0.041563
v -0.004315 -0.183130 -0.039752
v -0.005663 -0.185045 -0.041343
v -0.007897 -0.186121 -0.043454
v -0.009591 -0.187257 -0.045191
v -0.009622 -0.188983 -0.044549
v -0.003654 -0.184932 -0.038492
v -0.005263 -0.186221 -0.040370
v -0.007950 -0.187750 -0.042554
v -0.003704 -0.187685 -0.038595
v -0.005292 -0.188254 -0.039893
v -0.008408 -0.191372 -0.042404
v -0.009078 -0.192808 -0.042085
v -0.010488 -0.191518 -0.043959
v -0.009158 -0.190355 -0.043481
v -0.007674 -0.189330 -0.041666
v -0.007075 -0.190899 -0.040954
v -0.005474 -0.189915 -0.040002
v -0.002157 -0.186107 -0.028190
v 0.001734 -0.185086 -0.027418
v -0.002888 -0.183261 -0.028904
v 0.001452 -0.182125 -0.027968
v -0.013479 -0.187298 -0.004135
v -0.014557 -0.189221 -0.008570
v -0.010732 -0.181396 -0.002686
v 0.000913 -0.181077 -0.026396
v -0.004201 -0.181773 -0.028122
v -0.014538 -0.185304 -0.010763
v -0.013425 -0.183264 -0.006579
v -0.015222 -0.180936 -0.013192
v -0.015591 -0.177328 -0.015234
v -0.006811 -0.197685 -0.026445
v -0.008367 -0.196549 -0.028007
v -0.014017 -0.197804 -0.004241
v -0.009302 -0.197232 -0.026157
v -0.011904 -0.193376 -0.024183
v -0.012672 -0.193352 -0.026362
v -0.010456 -0.195991 -0.027421
v -0.012639 -0.197118 -0.019194
v -0.013109 -0.192875 -0.019146
v -0.008816 -0.201939 -0.023963
v -0.012161 -0.200575 -0.017830
v -0.008027 -0.203107 -0.021190
v -0.011190 -0.201578 -0.016256
v -0.004621 -0.201119 -0.023941
v -0.004048 -0.202200 -0.020847
v 0.001718 -0.192589 0.007171
v -0.001487 -0.192992 0.006410
v -0.004933 -0.193621 0.005150
v -0.008365 -0.194748 0.002910
v -0.011008 -0.196370 -0.000562
v -0.012119 -0.197934 -0.004261
v -0.006982 -0.202244 -0.017577
v -0.009902 -0.201423 -0.014183
v -0.003760 -0.201449 -0.017954
v -0.000848 -0.200856 -0.017443
v 0.002080 -0.200649 -0.016961
v -0.001061 -0.193427 0.002847
v 0.001697 -0.193171 0.003232
v -0.002128 -0.196526 -0.004612
v 0.001245 -0.196238 -0.004406
v 0.001417 -0.194597 -0.000896
v -0.001588 -0.194890 -0.001117
v -0.004013 -0.194039 0.002163
v -0.006858 -0.194890 0.001106
v -0.004784 -0.195267 -0.001255
v -0.008575 -0.196019 -0.001345
v -0.009742 -0.197468 -0.004468
v -0.005309 -0.196700 -0.004587
v -0.014654 -0.195224 -0.011548
v -0.014290 -0.191165 -0.013287
v -0.014610 -0.198638 -0.009848
v -0.013414 -0.199719 -0.009037
v -0.011887 -0.199773 -0.008592
v -0.009745 -0.199353 -0.008258
v -0.007929 -0.200502 -0.012379
v -0.005941 -0.200776 -0.014973
v -0.005135 -0.197983 -0.008159
v -0.003436 -0.199786 -0.015297
v -0.004231 -0.198633 -0.011893
v -0.002021 -0.197664 -0.008329
v -0.000978 -0.199271 -0.014834
v -0.001389 -0.198069 -0.011683
v 0.001252 -0.197504 -0.008187
v 0.001835 -0.199420 -0.014730
v 0.001550 -0.198192 -0.011776
v -0.013932 -0.188986 -0.019942
v -0.014634 -0.187200 -0.015144
v -0.015838 -0.183149 -0.017384
v -0.016082 -0.179485 -0.019318
v -0.013516 -0.179690 -0.022933
v -0.015429 -0.181056 -0.023312
v -0.014360 -0.178351 -0.019572
v -0.014245 -0.176261 -0.015973
v -0.006793 -0.202537 -0.030615
v -0.007808 -0.202819 -0.032632
v -0.008611 -0.204626 -0.034321
v -0.006364 -0.204973 -0.031587
v -0.004388 -0.205304 -0.028361
v -0.005315 -0.203445 -0.029134
v -0.004331 -0.207931 -0.028614
v -0.006195 -0.208067 -0.032105
v -0.004604 -0.210526 -0.029184
v -0.005979 -0.210719 -0.031999
v -0.005818 -0.212596 -0.031172
v -0.004696 -0.211790 -0.029667
v -0.008386 -0.210876 -0.034327
v -0.007441 -0.212625 -0.033318
v -0.008959 -0.207722 -0.035028
v -0.013016 -0.190167 -0.023997
v -0.013465 -0.190585 -0.026587
v -0.015416 -0.185033 -0.021650
v -0.013839 -0.186863 -0.025193
v -0.013385 -0.182460 -0.028006
v -0.013784 -0.187974 -0.027631
v -0.004354 -0.181091 -0.025738
v 0.000538 -0.180949 -0.024415
v -0.008601 -0.181776 -0.028868
v -0.011570 -0.180752 -0.026364
v -0.010322 -0.180295 -0.024561
v -0.007858 -0.180879 -0.025733
v -0.011651 -0.179425 -0.021982
v 0.000462 -0.180720 -0.021419
v -0.004347 -0.180432 -0.022189
v -0.011421 -0.191322 -0.043530
v -0.010165 -0.192648 -0.041665
v -0.002824 -0.205593 -0.027856
v -0.004205 -0.202638 -0.028717
v -0.002451 -0.208476 -0.027849
v -0.002784 -0.210804 -0.028407
v -0.008342 -0.211929 -0.036009
v -0.008887 -0.208519 -0.036756
v -0.008633 -0.204749 -0.035883
v -0.006938 -0.213565 -0.034233
v -0.004925 -0.213552 -0.031500
v -0.003504 -0.212446 -0.029641
v -0.007202 -0.204967 -0.036229
v -0.007447 -0.209219 -0.037213
v -0.007038 -0.212009 -0.036428
v -0.005753 -0.213333 -0.034589
v -0.004032 -0.213446 -0.032362
v -0.002706 -0.212613 -0.030870
v -0.001908 -0.210856 -0.029714
v -0.001735 -0.208578 -0.029035
v -0.002266 -0.205764 -0.028875
v -0.007345 -0.193242 -0.039517
v -0.008327 -0.192698 -0.039190
v -0.006460 -0.192292 -0.040172
v -0.004176 -0.190455 -0.039489
v -0.005541 -0.193109 -0.039559
v -0.003542 -0.192342 -0.039562
v -0.002474 -0.189995 -0.038075
v -0.001413 -0.191681 -0.038654
v -0.000620 -0.193246 -0.039174
v -0.002490 -0.194256 -0.040121
v 0.000202 -0.192266 -0.037948
v -0.001874 -0.190153 -0.036961
v -0.000593 -0.191419 -0.037568
v -0.003006 -0.188438 -0.036430
v -0.003614 -0.190103 -0.034573
v -0.002558 -0.192065 -0.035058
v -0.006838 -0.184957 -0.030614
v -0.005438 -0.185951 -0.030131
v -0.004571 -0.187769 -0.029557
v -0.005195 -0.187639 -0.033596
v -0.004492 -0.186528 -0.035765
v -0.005118 -0.191086 -0.030099
v -0.005349 -0.193010 -0.030488
v -0.004588 -0.192413 -0.032572
v -0.005057 -0.189285 -0.031903
v -0.006470 -0.181892 -0.041153
v -0.004739 -0.182798 -0.039132
v -0.008611 -0.182410 -0.043343
v -0.010698 -0.184362 -0.045350
v -0.009529 -0.182882 -0.041979
v -0.007828 -0.182358 -0.040331
v -0.008901 -0.183345 -0.039025
v -0.010131 -0.183655 -0.040022
v -0.011295 -0.184580 -0.043470
v -0.012348 -0.186606 -0.043691
v -0.012671 -0.188414 -0.043249
v -0.012351 -0.190134 -0.041947
v -0.011130 -0.191392 -0.040514
v -0.009751 -0.191611 -0.038571
v -0.011516 -0.184873 -0.040933
v -0.012418 -0.186477 -0.041362
v -0.012752 -0.187633 -0.041490
v -0.012513 -0.188592 -0.040317
v -0.009303 -0.184472 -0.037161
v -0.010821 -0.184925 -0.038151
v -0.011793 -0.186020 -0.038983
v -0.012360 -0.187321 -0.039591
v -0.011752 -0.189792 -0.038988
v -0.011946 -0.188450 -0.038148
v -0.011967 -0.186993 -0.037306
v -0.011500 -0.185756 -0.036358
v -0.009881 -0.184934 -0.035143
v -0.006616 -0.185034 -0.035684
v -0.007112 -0.185555 -0.033075
v -0.006251 -0.182905 -0.038919
v -0.002928 -0.187373 -0.037636
v -0.003805 -0.184763 -0.037463
v -0.006234 -0.184013 -0.037528
v -0.002233 -0.205301 -0.037720
v -0.001546 -0.202461 -0.039000
v 0.000290 -0.203528 -0.042895
v -0.000785 -0.205589 -0.040080
v -0.002499 -0.207970 -0.038256
v -0.000641 -0.207056 -0.041089
v -0.011005 -0.190290 -0.037514
v -0.004499 -0.205337 -0.036545
v -0.005144 -0.201496 -0.036097
v -0.008053 -0.201682 -0.034712
v -0.006384 -0.193633 -0.037577
v -0.008414 -0.193017 -0.037143
v -0.007585 -0.197261 -0.037180
v -0.008013 -0.198646 -0.034855
v -0.010412 -0.196681 -0.034272
v -0.010478 -0.196370 -0.037048
v -0.006997 -0.195629 -0.037545
v -0.009852 -0.194774 -0.037401
v -0.004342 -0.194419 -0.039011
v -0.010560 -0.191972 -0.036725
v -0.011544 -0.190437 -0.036161
v -0.012784 -0.193172 -0.037446
v -0.013875 -0.190546 -0.036796
v -0.001235 -0.195496 -0.041052
v 0.000584 -0.195775 -0.043187
v 0.002556 -0.194975 -0.046058
v -0.000773 -0.200200 -0.040986
v 0.002411 -0.199154 -0.048492
v 0.002415 -0.196843 -0.047691
v 0.000066 -0.198035 -0.042312
v -0.002965 -0.196809 -0.038817
v -0.003867 -0.198982 -0.037539
v -0.013249 -0.196133 -0.034751
v -0.012873 -0.196036 -0.037386
v -0.015441 -0.196315 -0.035152
v -0.015010 -0.195601 -0.037231
v -0.015159 -0.193093 -0.037756
v -0.015935 -0.190926 -0.037358
v -0.015825 -0.197172 -0.033614
v -0.013573 -0.197063 -0.033185
v -0.011443 -0.198136 -0.033489
v -0.009607 -0.199724 -0.034042
v -0.008018 -0.201938 -0.033140
v -0.017402 -0.195346 -0.037471
v -0.017452 -0.193380 -0.038388
v -0.018000 -0.196492 -0.035532
v -0.018328 -0.197716 -0.034569
v -0.017917 -0.191605 -0.038317
v -0.018487 -0.191319 -0.037164
v -0.016357 -0.190350 -0.035959
v -0.017408 -0.191145 -0.034474
v -0.019349 -0.192122 -0.036010
v -0.019473 -0.193719 -0.034962
v -0.017711 -0.192872 -0.033299
v -0.019212 -0.195701 -0.034298
v -0.017282 -0.194822 -0.032554
v -0.016434 -0.196597 -0.032412
v -0.018895 -0.197332 -0.033825
v -0.022038 -0.194516 -0.036062
v -0.021791 -0.196644 -0.035338
v -0.021622 -0.198268 -0.035154
v -0.022073 -0.192695 -0.037192
v -0.021611 -0.191757 -0.038650
v -0.021066 -0.191975 -0.039854
v -0.020983 -0.193705 -0.039603
v -0.021050 -0.195708 -0.038644
v -0.021252 -0.197389 -0.037492
v -0.021261 -0.198661 -0.036126
v -0.024482 -0.199358 -0.037248
v -0.024436 -0.198062 -0.038525
v -0.024311 -0.196113 -0.039449
v -0.024083 -0.193969 -0.040793
v -0.024110 -0.192357 -0.041010
v -0.024583 -0.192337 -0.039755
v -0.025112 -0.193415 -0.038047
v -0.025072 -0.195243 -0.036817
v -0.024796 -0.197322 -0.036153
v -0.024616 -0.199218 -0.036139
v -0.027377 -0.196680 -0.039827
v -0.027597 -0.198966 -0.038633
v -0.026970 -0.194602 -0.041600
v -0.026750 -0.193028 -0.041549
v -0.027836 -0.200185 -0.037553
v -0.027886 -0.200126 -0.036489
v -0.027812 -0.198307 -0.036510
v -0.027739 -0.195889 -0.037357
v -0.027681 -0.194046 -0.038562
v -0.027148 -0.192995 -0.040347
v -0.030380 -0.197557 -0.040278
v -0.030568 -0.200322 -0.038736
v -0.029815 -0.195153 -0.041689
v -0.030766 -0.201384 -0.037517
v -0.029715 -0.193782 -0.041518
v -0.033247 -0.197919 -0.040275
v -0.032903 -0.200371 -0.039030
v -0.032254 -0.195761 -0.041293
v -0.029897 -0.193570 -0.040576
v -0.033018 -0.194707 -0.041204
v -0.034681 -0.197791 -0.039968
v -0.030190 -0.194680 -0.038809
v -0.030421 -0.196879 -0.037573
v -0.032712 -0.195235 -0.038790
v -0.033026 -0.194212 -0.040200
v -0.035018 -0.197426 -0.039086
v -0.033638 -0.200878 -0.038321
v -0.030823 -0.201306 -0.036594
v -0.033853 -0.200613 -0.037170
v -0.033677 -0.197299 -0.037860
v -0.030620 -0.199540 -0.036431
v -0.033045 -0.199684 -0.036705
v -0.013272 -0.185781 -0.029653
v -0.011540 -0.188979 -0.036700
v -0.010291 -0.183746 -0.031850
v -0.011553 -0.184960 -0.032342
v -0.008991 -0.184698 -0.032732
v -0.010626 -0.185002 -0.033587
v -0.012222 -0.185916 -0.034483
v -0.012308 -0.187320 -0.035653
v -0.012800 -0.186074 -0.032602
v -0.012535 -0.188780 -0.035249
v -0.013166 -0.187306 -0.033672
v -0.013743 -0.187212 -0.030686
v -0.014050 -0.189055 -0.034697
v -0.014030 -0.188206 -0.032322
v -0.014540 -0.188588 -0.029474
v -0.016036 -0.190070 -0.032623
v -0.015244 -0.189292 -0.031051
v -0.014530 -0.190904 -0.028357
v -0.016520 -0.191951 -0.031307
v -0.015555 -0.191362 -0.029778
v -0.013829 -0.193331 -0.027735
v -0.015932 -0.193992 -0.030674
v -0.014970 -0.193581 -0.029196
v -0.012034 -0.196120 -0.028478
v -0.013944 -0.196604 -0.031380
v -0.013208 -0.196341 -0.029648
v -0.011357 -0.198666 -0.031981
v -0.009681 -0.197819 -0.029475
v -0.010837 -0.198615 -0.030455
v -0.009444 -0.200030 -0.032590
v -0.005770 -0.195386 -0.030407
v -0.001437 -0.193229 -0.035634
v -0.000312 -0.193695 -0.036292
v -0.002265 -0.198471 -0.033895
v -0.000465 -0.196148 -0.035373
v 0.000769 -0.193731 -0.037049
v 0.000259 -0.195540 -0.036121
v 0.001990 -0.193824 -0.038026
v 0.000909 -0.196921 -0.036085
v -0.000225 -0.199210 -0.035799
v 0.001499 -0.195762 -0.036729
v 0.003469 -0.193881 -0.038842
v 0.002874 -0.197300 -0.036887
v 0.002176 -0.199887 -0.037781
v 0.003089 -0.196074 -0.037596
v 0.001841 -0.203614 -0.037021
v -0.000570 -0.202906 -0.034726
v 0.001642 -0.206371 -0.036773
v -0.000880 -0.205600 -0.034314
v -0.000893 -0.207998 -0.034300
v 0.001613 -0.208413 -0.036717
v -0.004105 -0.196754 -0.032545
v -0.007182 -0.198679 -0.030240
v -0.002204 -0.203881 -0.030949
v -0.001683 -0.206754 -0.031325
v -0.002823 -0.203063 -0.029261
v -0.006472 -0.201478 -0.030375
v -0.008413 -0.199759 -0.031064
v -0.004000 -0.201884 -0.029530
v -0.004212 -0.201666 -0.030156
v -0.002419 -0.201805 -0.032653
v -0.004619 -0.200117 -0.031181
v -0.001395 -0.209200 -0.031691
v 0.001025 -0.210803 -0.043962
v 0.001479 -0.212630 -0.046646
v 0.003030 -0.213350 -0.046793
v 0.002826 -0.211517 -0.044196
v 0.000638 -0.211798 -0.046770
v 0.001093 -0.213347 -0.049085
v 0.002017 -0.214587 -0.048798
v 0.003176 -0.215478 -0.048893
v 0.003308 -0.217073 -0.050887
v 0.002442 -0.216008 -0.050803
v 0.002547 -0.216898 -0.053671
v 0.003349 -0.218053 -0.053271
v 0.001551 -0.214569 -0.051292
v 0.001834 -0.215617 -0.054565
v 0.000214 -0.210349 -0.044246
v 0.000406 -0.209818 -0.045299
v 0.000844 -0.210771 -0.047820
v 0.001180 -0.211742 -0.050279
v 0.002482 -0.208390 -0.053372
v 0.001917 -0.208381 -0.050406
v 0.003105 -0.204671 -0.054623
v 0.003591 -0.205021 -0.056824
v 0.001519 -0.212502 -0.052740
v 0.003772 -0.205808 -0.059087
v 0.002762 -0.208771 -0.056223
v 0.001877 -0.213560 -0.056232
v 0.002877 -0.210835 -0.058653
v 0.003625 -0.208107 -0.060726
v 0.000636 -0.205899 -0.044964
v 0.002813 -0.201860 -0.050837
v 0.002770 -0.203683 -0.052671
v 0.001258 -0.207627 -0.047966
v -0.000173 -0.208605 -0.043251
v -0.000787 -0.208190 -0.041497
v 0.002429 -0.215902 -0.058485
v 0.003457 -0.213547 -0.060127
v 0.003846 -0.210710 -0.061508
v 0.002167 -0.217114 -0.057220
v 0.002821 -0.217899 -0.056051
v 0.003479 -0.218582 -0.054938
v -0.000488 -0.209103 -0.041856
v -0.001429 -0.210904 -0.032179
v -0.000864 -0.209586 -0.034727
v -0.003301 -0.212786 -0.033523
v -0.002187 -0.212324 -0.032861
v -0.004262 -0.212533 -0.034850
v 0.001823 -0.209283 -0.038027
v -0.001123 -0.210353 -0.035586
v 0.000324 -0.209464 -0.038290
v -0.004938 -0.211504 -0.036181
v -0.001685 -0.208806 -0.039606
v 0.000279 -0.209490 -0.040549
v -0.002123 -0.210512 -0.036602
v -0.004797 -0.209691 -0.036853
v 0.002426 -0.209884 -0.041118
v -0.008295 -0.179930 -0.022307
v -0.012187 -0.178272 -0.019148
v -0.012170 -0.176472 -0.016155
v -0.011189 -0.174571 -0.012569
v -0.008452 -0.173093 -0.009359
v -0.008354 -0.179004 -0.018880
v -0.004189 -0.179663 -0.018583
v 0.000414 -0.180204 -0.018165
v -0.007969 -0.177747 -0.015559
v -0.003921 -0.178661 -0.015354
v 0.000402 -0.179363 -0.014989
v -0.007130 -0.176497 -0.012439
v -0.003339 -0.177508 -0.012204
v 0.000585 -0.178235 -0.011950
v -0.001922 -0.170608 -0.006421
v 0.001633 -0.170142 -0.006001
v -0.005260 -0.171706 -0.007361
v -0.005412 -0.175078 -0.009578
v -0.004193 -0.173781 -0.008228
v -0.002472 -0.175800 -0.009433
v 0.000826 -0.176212 -0.009309
v -0.001758 -0.173473 -0.007753
v 0.001212 -0.173383 -0.007607
v 0.007034 -0.194170 -0.043391
v 0.008523 -0.194688 -0.041744
v 0.009331 -0.195776 -0.043163
v 0.007376 -0.194972 -0.046048
v 0.009840 -0.198038 -0.042283
v 0.007545 -0.196843 -0.047676
v 0.009616 -0.203532 -0.042868
v 0.009280 -0.205905 -0.044939
v 0.007162 -0.201867 -0.050820
v 0.007547 -0.199159 -0.048474
v 0.010670 -0.200205 -0.040952
v 0.011432 -0.202467 -0.038962
v 0.008675 -0.207627 -0.047947
v 0.007198 -0.203679 -0.052663
v 0.013748 -0.198989 -0.037488
v 0.015014 -0.201503 -0.036038
v 0.012855 -0.196815 -0.038771
v 0.009684 -0.194278 -0.040112
v 0.011139 -0.195501 -0.041016
v 0.010675 -0.205597 -0.040051
v 0.010536 -0.207066 -0.041062
v 0.012110 -0.205308 -0.037679
v 0.010683 -0.208201 -0.041469
v 0.010079 -0.208612 -0.043225
v 0.009511 -0.209811 -0.045281
v 0.014369 -0.205337 -0.036489
v 0.012377 -0.207979 -0.038215
v 0.011570 -0.208817 -0.039571
v 0.010386 -0.209112 -0.041831
v 0.008029 -0.208377 -0.050393
v 0.006883 -0.204660 -0.054622
v 0.007478 -0.208389 -0.053362
v 0.006425 -0.205015 -0.056825
v 0.007213 -0.208775 -0.056211
v 0.007102 -0.210839 -0.058641
v 0.006420 -0.208116 -0.060715
v 0.006258 -0.205815 -0.059080
v 0.006568 -0.213547 -0.060118
v 0.006231 -0.210712 -0.061494
v 0.009697 -0.210345 -0.044227
v 0.009285 -0.211781 -0.046758
v 0.009088 -0.210753 -0.047809
v 0.008844 -0.213338 -0.049071
v 0.008766 -0.211733 -0.050267
v 0.008440 -0.212502 -0.052726
v 0.008397 -0.214569 -0.051276
v 0.008130 -0.215618 -0.054549
v 0.008097 -0.213561 -0.056219
v 0.015376 -0.189923 -0.039942
v 0.016981 -0.190910 -0.040886
v 0.016355 -0.192304 -0.040110
v 0.014074 -0.190462 -0.039438
v 0.015436 -0.193119 -0.039501
v 0.013439 -0.192350 -0.039511
v 0.013599 -0.187693 -0.038546
v 0.015196 -0.188264 -0.039834
v 0.012365 -0.190000 -0.038033
v 0.012819 -0.187380 -0.037589
v 0.011306 -0.191686 -0.038618
v 0.018324 -0.191388 -0.042326
v 0.018990 -0.192820 -0.041996
v 0.017253 -0.193254 -0.039434
v 0.017465 -0.197271 -0.037107
v 0.017878 -0.198657 -0.034780
v 0.020358 -0.196382 -0.036958
v 0.020275 -0.196693 -0.034182
v 0.019466 -0.199740 -0.033957
v 0.017915 -0.201682 -0.034638
v 0.021301 -0.198150 -0.033393
v 0.019079 -0.190372 -0.043403
v 0.020409 -0.191539 -0.043875
v 0.021321 -0.191343 -0.043419
v 0.020076 -0.192658 -0.041574
v 0.018238 -0.192708 -0.039101
v 0.019552 -0.189000 -0.044466
v 0.021145 -0.189759 -0.045433
v 0.021974 -0.189593 -0.045003
v 0.013553 -0.184944 -0.038447
v 0.015176 -0.186234 -0.040316
v 0.013697 -0.184774 -0.037414
v 0.014223 -0.183152 -0.039709
v 0.015584 -0.185063 -0.041290
v 0.014644 -0.182816 -0.039086
v 0.015596 -0.182217 -0.041512
v 0.015897 -0.184034 -0.042181
v 0.016391 -0.181902 -0.041094
v 0.017704 -0.182847 -0.043739
v 0.017422 -0.184451 -0.043799
v 0.018542 -0.182425 -0.043270
v 0.019769 -0.184623 -0.045639
v 0.018941 -0.185430 -0.045171
v 0.020636 -0.184376 -0.045262
v 0.020942 -0.187251 -0.046042
v 0.019527 -0.187269 -0.045107
v 0.021670 -0.187025 -0.045640
v 0.017826 -0.186134 -0.043383
v 0.017871 -0.187763 -0.042479
v 0.017588 -0.189343 -0.041593
v 0.022263 -0.190145 -0.041843
v 0.021033 -0.191398 -0.040414
v 0.022595 -0.188431 -0.043150
v 0.019651 -0.191620 -0.038481
v 0.022276 -0.186624 -0.043598
v 0.021224 -0.184598 -0.043382
v 0.019455 -0.182898 -0.041902
v 0.017746 -0.182370 -0.040263
v 0.016162 -0.182915 -0.038858
v 0.016129 -0.184019 -0.037462
v 0.011759 -0.190159 -0.036921
v 0.012892 -0.188446 -0.036382
v 0.014373 -0.186536 -0.035710
v 0.010480 -0.191423 -0.037536
v 0.006229 -0.193541 -0.040869
v 0.007616 -0.193409 -0.039951
v 0.008868 -0.192892 -0.038710
v 0.018296 -0.193028 -0.037065
v 0.016268 -0.193642 -0.037511
v 0.019735 -0.194786 -0.037314
v 0.016880 -0.195638 -0.037475
v 0.014234 -0.194427 -0.038957
v 0.020442 -0.191985 -0.036634
v 0.022669 -0.193186 -0.037343
v 0.019295 -0.200047 -0.032504
v 0.017872 -0.201922 -0.033076
v 0.021206 -0.198680 -0.031885
v 0.018501 -0.204708 -0.035812
v 0.017072 -0.204990 -0.036143
v 0.012390 -0.194262 -0.040078
v 0.010515 -0.193251 -0.039142
v 0.009687 -0.192269 -0.037920
v 0.025821 -0.190942 -0.037236
v 0.023758 -0.190561 -0.036687
v 0.023922 -0.189070 -0.034586
v 0.026236 -0.190367 -0.035835
v 0.025046 -0.193109 -0.037639
v 0.028372 -0.191338 -0.037027
v 0.027808 -0.191623 -0.038183
v 0.027342 -0.193398 -0.038258
v 0.021424 -0.190450 -0.036065
v 0.022410 -0.188794 -0.035147
v 0.029226 -0.192141 -0.035869
v 0.027277 -0.191163 -0.034344
v 0.027572 -0.192890 -0.033167
v 0.029343 -0.193739 -0.034820
v 0.031914 -0.194537 -0.035905
v 0.031956 -0.192716 -0.037035
v 0.031504 -0.191779 -0.038495
v 0.025895 -0.190086 -0.032501
v 0.026370 -0.191968 -0.031182
v 0.025094 -0.189308 -0.030934
v 0.025396 -0.191379 -0.029658
v 0.023888 -0.188222 -0.032212
v 0.025776 -0.194008 -0.030553
v 0.027137 -0.194840 -0.032425
v 0.024806 -0.193597 -0.029080
v 0.029076 -0.195721 -0.034158
v 0.031660 -0.196666 -0.035182
v 0.023790 -0.196619 -0.031270
v 0.026286 -0.196614 -0.032287
v 0.023045 -0.196355 -0.029543
v 0.028755 -0.197351 -0.033686
v 0.031489 -0.198290 -0.034998
v 0.025684 -0.197189 -0.033493
v 0.028192 -0.197734 -0.034434
v 0.031134 -0.198682 -0.035973
v 0.023430 -0.197078 -0.033077
v 0.020676 -0.198628 -0.030361
v 0.018249 -0.199789 -0.030971
v 0.019515 -0.197829 -0.029388
v 0.021864 -0.196134 -0.028380
v 0.020280 -0.196003 -0.027332
v 0.018194 -0.196556 -0.027925
v 0.016573 -0.195938 -0.027866
v 0.017015 -0.198689 -0.030160
v 0.023657 -0.193347 -0.027626
v 0.022492 -0.193367 -0.026262
v 0.024363 -0.190920 -0.028244
v 0.023288 -0.190600 -0.026481
v 0.024382 -0.188603 -0.029361
v 0.023616 -0.187989 -0.027516
v 0.023593 -0.187227 -0.030566
v 0.023093 -0.185814 -0.029447
v 0.015337 -0.194233 -0.027553
v 0.015611 -0.195395 -0.030344
v 0.013957 -0.196762 -0.032490
v 0.014444 -0.200142 -0.031098
v 0.014020 -0.201719 -0.030066
v 0.012646 -0.203101 -0.029192
v 0.012100 -0.205787 -0.028817
v 0.012651 -0.205611 -0.027805
v 0.014028 -0.202669 -0.028652
v 0.012032 -0.203921 -0.030888
v 0.011523 -0.206771 -0.031280
v 0.016303 -0.201507 -0.030299
v 0.013813 -0.201931 -0.029450
v 0.019118 -0.197242 -0.026072
v 0.016628 -0.197688 -0.026366
v 0.014755 -0.196759 -0.025468
v 0.021711 -0.193391 -0.024087
v 0.022824 -0.190182 -0.023893
v 0.023658 -0.186879 -0.025081
v 0.023223 -0.182473 -0.027850
v 0.023034 -0.187320 -0.033566
v 0.020893 -0.190302 -0.037420
v 0.021426 -0.188990 -0.036603
v 0.022663 -0.186083 -0.032478
v 0.021415 -0.184943 -0.032194
v 0.020156 -0.183745 -0.031740
v 0.022332 -0.186492 -0.041264
v 0.022665 -0.187648 -0.041389
v 0.022418 -0.188605 -0.040214
v 0.021434 -0.184891 -0.040843
v 0.016496 -0.185043 -0.035616
v 0.012430 -0.192071 -0.035015
v 0.013485 -0.190109 -0.034524
v 0.015062 -0.187647 -0.033537
v 0.011311 -0.193234 -0.035597
v 0.022187 -0.187331 -0.035550
v 0.022095 -0.185927 -0.034375
v 0.020493 -0.185009 -0.033479
v 0.018855 -0.184702 -0.032644
v 0.023718 -0.189001 -0.019832
v 0.022887 -0.192890 -0.019041
v 0.025216 -0.185049 -0.021532
v 0.024393 -0.187215 -0.015030
v 0.024035 -0.191179 -0.013176
v 0.025614 -0.183165 -0.017264
v 0.022415 -0.197133 -0.019094
v 0.024386 -0.195239 -0.011435
v 0.021926 -0.200588 -0.017730
v 0.018615 -0.201944 -0.023875
v 0.024330 -0.198654 -0.009734
v 0.024277 -0.189237 -0.008457
v 0.024274 -0.185319 -0.010650
v 0.024975 -0.180951 -0.013076
v 0.023138 -0.183279 -0.006472
v 0.023174 -0.187314 -0.004027
v 0.023769 -0.178474 -0.009028
v 0.014421 -0.201121 -0.023877
v 0.011249 -0.199930 -0.022479
v 0.023535 -0.191190 -0.001648
v 0.024730 -0.193190 -0.006360
v 0.020437 -0.185487 0.000054
v 0.020534 -0.189248 0.002692
v 0.020424 -0.181409 -0.002594
v 0.023509 -0.194460 0.000191
v 0.024748 -0.196607 -0.004600
v 0.020327 -0.192320 0.004690
v 0.010596 -0.200861 -0.017407
v 0.010583 -0.201408 -0.019834
v 0.013828 -0.202206 -0.020792
v 0.013524 -0.201456 -0.017903
v 0.017809 -0.203114 -0.021110
v 0.016744 -0.202254 -0.017507
v 0.013187 -0.199793 -0.015248
v 0.010707 -0.199273 -0.014798
v 0.015689 -0.200784 -0.014910
v 0.016522 -0.184043 0.002814
v 0.016469 -0.187765 0.005368
v 0.016536 -0.179982 0.000225
v 0.016212 -0.190891 0.007403
v 0.012465 -0.183071 0.004272
v 0.012402 -0.186745 0.006642
v 0.012188 -0.189939 0.008517
v 0.012442 -0.179009 0.001832
v 0.008594 -0.182545 0.004968
v 0.008533 -0.186145 0.007253
v 0.008336 -0.189173 0.009087
v 0.008571 -0.178470 0.002666
v 0.020781 -0.176603 -0.005121
v 0.025871 -0.179501 -0.019196
v 0.025357 -0.177342 -0.015117
v 0.025241 -0.181074 -0.023190
v 0.024309 -0.174848 -0.010741
v 0.021164 -0.172457 -0.007154
v 0.024149 -0.178365 -0.019460
v 0.024015 -0.176274 -0.015864
v 0.023325 -0.179706 -0.022826
v 0.022957 -0.174012 -0.011819
v 0.019891 -0.171925 -0.008507
v 0.021400 -0.180766 -0.026274
v 0.018445 -0.181789 -0.028815
v 0.016690 -0.184966 -0.030545
v 0.014039 -0.181781 -0.028070
v 0.016978 -0.185565 -0.033004
v 0.015286 -0.185960 -0.030071
v 0.012731 -0.183267 -0.028858
v 0.008379 -0.182128 -0.027948
v 0.008928 -0.181081 -0.026372
v 0.009298 -0.180953 -0.024389
v 0.014177 -0.181098 -0.025684
v 0.017685 -0.180890 -0.025666
v 0.020142 -0.180307 -0.024476
v 0.021454 -0.179439 -0.021886
v 0.021973 -0.178284 -0.019049
v 0.021940 -0.176481 -0.016059
v 0.020943 -0.174583 -0.012476
v 0.018189 -0.173102 -0.009284
v 0.016654 -0.175336 -0.002309
v 0.016790 -0.170892 -0.004551
v 0.015984 -0.170379 -0.006211
v 0.014986 -0.171715 -0.007301
v 0.012367 -0.174362 -0.000731
v 0.012213 -0.169861 -0.003033
v 0.011991 -0.186113 -0.028148
v 0.008113 -0.185089 -0.027399
v 0.014414 -0.187777 -0.029502
v 0.009358 -0.180723 -0.021392
v 0.014148 -0.180439 -0.022135
v 0.009405 -0.180207 -0.018139
v 0.013966 -0.179670 -0.018530
v 0.009191 -0.178237 -0.011926
v 0.008967 -0.176213 -0.009288
v 0.012196 -0.175806 -0.009390
v 0.013079 -0.177515 -0.012156
v 0.013677 -0.178668 -0.015302
v 0.009416 -0.179366 -0.014963
v 0.008530 -0.173387 -0.007586
v 0.011478 -0.173479 -0.007713
v 0.016881 -0.176506 -0.012370
v 0.015148 -0.175085 -0.009519
v 0.017736 -0.177755 -0.015485
v 0.013923 -0.173789 -0.008175
v 0.008120 -0.170149 -0.005983
v 0.011638 -0.170614 -0.006381
v 0.012078 -0.169275 -0.005001
v 0.008482 -0.173904 0.000280
v 0.008347 -0.169614 -0.001809
v 0.008213 -0.168615 -0.003909
v 0.014913 -0.189293 -0.031845
v 0.009113 -0.193734 -0.037025
v 0.010190 -0.193699 -0.036262
v 0.007897 -0.193826 -0.038009
v 0.006432 -0.193883 -0.038833
v 0.014446 -0.192420 -0.032516
v 0.012124 -0.198477 -0.033852
v 0.009616 -0.195544 -0.036094
v 0.010336 -0.196152 -0.035342
v 0.008379 -0.195765 -0.036709
v 0.006803 -0.196075 -0.037585
v 0.014258 -0.190387 -0.028146
v 0.011843 -0.189593 -0.026156
v 0.014962 -0.191094 -0.030041
v 0.008171 -0.189011 -0.025688
v 0.020714 -0.184935 -0.038059
v 0.020047 -0.183671 -0.039941
v 0.018805 -0.183355 -0.038946
v 0.019189 -0.184482 -0.037077
v 0.021693 -0.186032 -0.038887
v 0.019756 -0.184945 -0.035052
v 0.021380 -0.185764 -0.036258
v 0.021855 -0.187001 -0.037204
v 0.022470 -0.195998 0.000383
v 0.023704 -0.197821 -0.004129
v 0.023129 -0.199734 -0.008929
v 0.019448 -0.193989 0.004634
v 0.015637 -0.192645 0.007226
v 0.011761 -0.191960 0.008300
v 0.008050 -0.191293 0.009089
v 0.007934 -0.192592 0.007189
v 0.011110 -0.192999 0.006449
v 0.014569 -0.193632 0.005212
v 0.018013 -0.194761 0.002991
v 0.020674 -0.196385 -0.000467
v 0.021807 -0.197948 -0.004161
v 0.021599 -0.199787 -0.008493
v 0.019647 -0.201435 -0.014096
v 0.020945 -0.201590 -0.016162
v 0.007745 -0.200650 -0.016945
v 0.007697 -0.201161 -0.019495
v 0.007996 -0.199423 -0.014709
v 0.008234 -0.198923 -0.021888
v 0.018246 -0.196030 -0.001266
v 0.019430 -0.197479 -0.004383
v 0.019455 -0.199366 -0.008171
v 0.016516 -0.194902 0.001178
v 0.013665 -0.194049 0.002218
v 0.010701 -0.193433 0.002883
v 0.008002 -0.193174 0.003249
v 0.013166 -0.194953 -0.024619
v 0.011568 -0.208591 -0.028993
v 0.012272 -0.208480 -0.027809
v 0.011243 -0.209209 -0.031658
v 0.011739 -0.210861 -0.029677
v 0.012602 -0.210803 -0.028375
v 0.011275 -0.210911 -0.032146
v 0.012541 -0.212614 -0.030832
v 0.013330 -0.212447 -0.029601
v 0.012030 -0.212327 -0.032825
v 0.014640 -0.192718 -0.027429
v 0.015194 -0.193018 -0.030429
v 0.012050 -0.192613 -0.024606
v 0.008223 -0.192962 -0.023463
v 0.030966 -0.191996 -0.039702
v 0.010095 -0.199214 -0.035769
v 0.007704 -0.199890 -0.037765
v 0.008036 -0.203616 -0.037003
v 0.010430 -0.202911 -0.034692
v 0.008965 -0.196924 -0.036061
v 0.007006 -0.197302 -0.036875
v 0.012261 -0.201819 -0.032598
v 0.008235 -0.206373 -0.036753
v 0.010734 -0.205609 -0.034278
v 0.009610 -0.209503 -0.040530
v 0.008882 -0.210805 -0.043947
v 0.011990 -0.210519 -0.036562
v 0.008440 -0.212622 -0.046632
v 0.007467 -0.209895 -0.041111
v 0.007118 -0.211522 -0.044185
v 0.009551 -0.209473 -0.038269
v 0.008057 -0.209290 -0.038013
v 0.006926 -0.213349 -0.046783
v 0.007912 -0.214585 -0.048783
v 0.006771 -0.215477 -0.048884
v 0.006681 -0.217072 -0.050878
v 0.007497 -0.216010 -0.050790
v 0.007159 -0.217901 -0.056037
v 0.007408 -0.216900 -0.053657
v 0.006645 -0.218053 -0.053261
v 0.006473 -0.218583 -0.054929
v 0.016034 -0.208061 -0.032052
v 0.015818 -0.210727 -0.031946
v 0.018243 -0.210892 -0.034249
v 0.018818 -0.207705 -0.034960
v 0.018208 -0.211936 -0.035922
v 0.018752 -0.208501 -0.036677
v 0.018480 -0.204583 -0.034261
v 0.016206 -0.204964 -0.031538
v 0.015650 -0.212613 -0.031118
v 0.017292 -0.212650 -0.033240
v 0.016793 -0.213579 -0.034141
v 0.017660 -0.202787 -0.032579
v 0.016631 -0.202549 -0.030554
v 0.015142 -0.203472 -0.029074
v 0.014212 -0.205320 -0.028311
v 0.014154 -0.207934 -0.028565
v 0.014427 -0.210522 -0.029146
v 0.014524 -0.211789 -0.029627
v 0.014760 -0.213577 -0.031446
v 0.011801 -0.196532 -0.004571
v 0.011247 -0.194896 -0.001079
v 0.008301 -0.194601 -0.000876
v 0.008530 -0.196244 -0.004389
v 0.008543 -0.197511 -0.008169
v 0.011713 -0.197670 -0.008289
v 0.017664 -0.200512 -0.012304
v 0.011099 -0.198072 -0.011646
v 0.008263 -0.198197 -0.011755
v 0.014455 -0.195277 -0.001197
v 0.014996 -0.196706 -0.004527
v 0.014842 -0.197989 -0.008099
v 0.013962 -0.198640 -0.011840
v 0.018102 -0.179940 -0.022230
v 0.018139 -0.179014 -0.018803
v 0.017315 -0.209206 -0.037137
v 0.013867 -0.213460 -0.032306
v 0.015609 -0.213346 -0.034514
v 0.016902 -0.212005 -0.036349
v 0.021648 -0.189803 -0.038888
v 0.022755 -0.196051 -0.037282
v 0.023116 -0.196148 -0.034645
v 0.014671 -0.209700 -0.036788
v 0.014828 -0.211508 -0.036116
v 0.014117 -0.212542 -0.034793
v 0.013149 -0.212796 -0.033480
v 0.010745 -0.208005 -0.034266
v 0.008274 -0.208416 -0.036698
v 0.010720 -0.209591 -0.034695
v 0.010984 -0.210359 -0.035552
v 0.022263 -0.187334 -0.039491
v 0.021839 -0.188461 -0.038048
v 0.024892 -0.195617 -0.037114
v 0.025310 -0.196332 -0.035033
v 0.030880 -0.193725 -0.039451
v 0.027286 -0.195364 -0.037341
v 0.027871 -0.196510 -0.035398
v 0.030939 -0.195729 -0.038492
v 0.031134 -0.197411 -0.037339
v 0.034207 -0.196138 -0.039278
v 0.034324 -0.198088 -0.038354
v 0.033987 -0.193993 -0.040623
v 0.034360 -0.199385 -0.037076
v 0.034016 -0.192380 -0.040841
v 0.034489 -0.199244 -0.035966
v 0.034481 -0.192361 -0.039583
v 0.035000 -0.193439 -0.037872
v 0.034952 -0.195267 -0.036641
v 0.034670 -0.197347 -0.035979
v 0.037621 -0.195916 -0.037166
v 0.037572 -0.194073 -0.038372
v 0.037688 -0.198336 -0.036316
v 0.037050 -0.193021 -0.040160
v 0.037759 -0.200157 -0.036295
v 0.037716 -0.200214 -0.037360
v 0.036659 -0.193054 -0.041364
v 0.036879 -0.194628 -0.041413
v 0.037275 -0.196708 -0.039638
v 0.037485 -0.198994 -0.038442
v 0.040279 -0.197580 -0.040071
v 0.040455 -0.200346 -0.038525
v 0.039724 -0.195181 -0.041487
v 0.040644 -0.201412 -0.037301
v 0.040695 -0.201336 -0.036377
v 0.039624 -0.193811 -0.041316
v 0.039800 -0.193599 -0.040373
v 0.040082 -0.194709 -0.038605
v 0.040303 -0.196904 -0.037367
v 0.040493 -0.199567 -0.036218
v 0.043149 -0.197946 -0.040048
v 0.042794 -0.200397 -0.038801
v 0.042164 -0.195791 -0.041076
v 0.043523 -0.200907 -0.038084
v 0.042925 -0.194738 -0.040982
v 0.042926 -0.194242 -0.039979
v 0.043729 -0.200640 -0.036933
v 0.042919 -0.199706 -0.036477
v 0.043560 -0.197320 -0.037635
v 0.042603 -0.195262 -0.038572
v 0.044579 -0.197821 -0.039731
v 0.044908 -0.197453 -0.038849
v 0.007823 -0.217114 -0.057204
v 0.007578 -0.215902 -0.058469
v 0.004905 -0.182258 -0.027720
v 0.004986 -0.181204 -0.026183
v 0.005031 -0.181086 -0.024110
v 0.005054 -0.180945 -0.021001
v 0.005128 -0.178450 -0.011885
v 0.005239 -0.176354 -0.009348
v 0.005032 -0.173670 -0.007733
v 0.005072 -0.170191 -0.006099
v 0.004989 -0.168538 -0.003826
v 0.004804 -0.169418 -0.001498
v 0.004835 -0.173762 0.000621
v 0.004864 -0.178304 0.002932
v 0.004864 -0.182379 0.005171
v 0.004867 -0.185961 0.007407
v 0.004885 -0.188973 0.009188
v 0.005309 -0.200648 -0.016940
v 0.005451 -0.199608 -0.014839
v 0.004893 -0.191197 0.009175
v 0.005016 -0.201110 -0.019481
v 0.004996 -0.184949 -0.027128
v 0.004872 -0.198774 -0.021770
v 0.004917 -0.193210 -0.023039
v 0.004982 -0.189086 -0.025448
v 0.004905 -0.192584 0.007202
v 0.005055 -0.193187 0.003197
v 0.005196 -0.194549 -0.000895
v 0.005385 -0.196085 -0.004213
v 0.005459 -0.198381 -0.011698
v 0.005419 -0.197455 -0.007825
v 0.005233 -0.179680 -0.014936
v 0.005147 -0.180557 -0.017962
v 0.005102 -0.200586 -0.053312
v 0.005127 -0.198204 -0.051867
v 0.005037 -0.202541 -0.054636
v 0.005076 -0.203721 -0.056038
v 0.005193 -0.210882 -0.061979
v 0.005226 -0.207896 -0.061527
v 0.005155 -0.205622 -0.059932
v 0.004984 -0.193578 -0.044806
v 0.004989 -0.193856 -0.047612
v 0.004942 -0.193607 -0.041306
v 0.004952 -0.210752 -0.041007
v 0.005055 -0.212216 -0.043948
v 0.005089 -0.213753 -0.046483
v 0.005021 -0.215881 -0.048606
v 0.005119 -0.217664 -0.050767
v 0.004972 -0.219100 -0.054745
v 0.005119 -0.218658 -0.052920
v 0.005137 -0.204507 -0.057900
v 0.005005 -0.210114 -0.038987
v 0.005089 -0.195675 -0.050629
v 0.004940 -0.200389 -0.039037
v 0.004954 -0.197437 -0.037055
v 0.004995 -0.193895 -0.039058
v 0.004994 -0.196087 -0.037774
v 0.004966 -0.204083 -0.038376
v 0.005049 -0.208977 -0.037955
v 0.004994 -0.206866 -0.038091
v 0.005179 -0.214236 -0.060207
v 0.005113 -0.216638 -0.058935
v 0.005056 -0.217719 -0.057925
v 0.005027 -0.218283 -0.056560
f 1 2 3
f 1 3 4
f 5 6 7
f 5 7 8
f 9 10 11
f 9 11 12
f 13 9 12
f 13 12 14
f 12 11 15
f 12 15 16
f 14 12 16
f 14 16 17
f 18 17 16
f 18 16 19
f 20 21 18
f 20 18 19
f 19 16 15
f 19 15 22
f 23 20 19
f 23 19 22
f 22 15 24
f 22 24 25
f 23 22 25
f 23 25 26
f 25 24 27
f 25 27 28
f 26 25 28
f 26 28 29
f 30 31 32
f 30 32 33
f 34 30 33
f 34 33 35
f 27 36 37
f 27 37 38
f 28 27 38
f 28 38 39
f 29 28 39
f 29 39 40
f 41 40 39
f 41 39 42
f 42 39 38
f 42 38 43
f 43 38 37
f 43 37 44
f 44 37 45
f 44 45 46
f 46 45 47
f 46 47 48
f 49 44 46
f 49 46 50
f 51 43 44
f 51 44 49
f 52 42 43
f 52 43 51
f 53 41 42
f 53 42 52
f 54 55 56
f 54 56 57
f 58 54 57
f 58 57 59
f 60 61 58
f 60 58 59
f 59 57 62
f 59 62 63
f 62 57 56
f 62 56 64
f 65 62 64
f 65 64 66
f 67 63 62
f 67 62 65
f 68 69 70
f 68 70 71
f 2 1 69
f 2 69 68
f 72 2 68
f 72 68 71
f 73 3 2
f 73 2 72
f 6 4 3
f 6 3 73
f 74 7 6
f 74 6 73
f 71 70 75
f 71 75 76
f 74 73 72
f 74 72 77
f 77 72 71
f 77 71 76
f 76 75 78
f 76 78 79
f 80 81 82
f 80 82 83
f 83 82 7
f 83 7 74
f 84 85 80
f 84 80 83
f 83 74 77
f 83 77 84
f 84 77 76
f 84 76 79
f 79 86 85
f 79 85 84
f 87 88 67
f 87 67 65
f 87 89 90
f 87 90 88
f 91 92 47
f 91 47 45
f 91 45 37
f 91 37 36
f 24 15 11
f 24 11 93
f 93 36 27
f 93 27 24
f 94 90 89
f 94 89 95
f 96 97 10
f 96 10 98
f 93 11 10
f 93 10 97
f 91 36 93
f 91 93 97
f 98 10 9
f 98 9 99
f 96 92 91
f 96 91 97
f 100 101 55
f 100 55 54
f 102 50 46
f 102 46 48
f 103 104 105
f 103 105 106
f 107 108 104
f 107 104 103
f 109 110 107
f 109 107 103
f 111 112 110
f 111 110 109
f 100 103 106
f 100 106 101
f 113 109 103
f 113 103 100
f 54 58 113
f 54 113 100
f 58 61 114
f 58 114 113
f 113 114 111
f 113 111 109
f 115 53 52
f 115 52 116
f 116 52 51
f 116 51 117
f 117 51 49
f 117 49 118
f 118 49 50
f 118 50 119
f 119 50 102
f 119 102 120
f 121 122 112
f 121 112 111
f 121 111 114
f 121 114 123
f 124 123 114
f 124 114 61
f 124 61 60
f 124 60 125
f 126 127 115
f 126 115 116
f 128 129 130
f 128 130 131
f 130 127 126
f 130 126 131
f 132 117 118
f 132 118 133
f 132 126 116
f 132 116 117
f 134 132 133
f 134 133 135
f 135 133 118
f 135 118 119
f 134 131 126
f 134 126 132
f 136 135 119
f 136 119 120
f 137 134 135
f 137 135 136
f 137 128 131
f 137 131 134
f 108 107 138
f 108 138 139
f 138 47 92
f 138 92 139
f 107 110 140
f 107 140 138
f 140 110 112
f 140 112 141
f 140 48 47
f 140 47 138
f 141 102 48
f 141 48 140
f 112 122 142
f 112 142 141
f 142 120 102
f 142 102 141
f 143 136 120
f 143 120 142
f 144 143 142
f 144 142 122
f 144 122 121
f 144 121 145
f 146 137 136
f 146 136 143
f 147 145 121
f 147 121 123
f 144 145 147
f 144 147 148
f 146 143 144
f 146 144 148
f 149 128 137
f 149 137 146
f 150 147 123
f 150 123 124
f 148 147 150
f 148 150 151
f 149 146 148
f 149 148 151
f 152 129 128
f 152 128 149
f 150 124 125
f 150 125 153
f 151 150 153
f 151 153 154
f 152 149 151
f 152 151 154
f 155 108 139
f 155 139 156
f 139 92 96
f 139 96 156
f 156 96 98
f 156 98 157
f 158 157 98
f 158 98 99
f 159 160 158
f 159 158 161
f 162 161 158
f 162 158 99
f 162 99 9
f 162 9 13
f 163 164 165
f 163 165 166
f 167 168 163
f 167 163 166
f 169 167 166
f 169 166 170
f 171 169 170
f 171 170 172
f 173 174 171
f 173 171 172
f 175 176 173
f 175 173 172
f 177 175 172
f 177 172 170
f 170 166 165
f 170 165 177
f 178 179 105
f 178 105 104
f 104 108 155
f 104 155 178
f 180 155 156
f 180 156 157
f 157 158 160
f 157 160 180
f 181 180 160
f 181 160 182
f 183 179 178
f 183 178 181
f 181 178 155
f 181 155 180
f 184 185 94
f 184 94 95
f 186 187 188
f 186 188 189
f 184 95 186
f 184 186 189
f 190 188 187
f 190 187 159
f 191 185 184
f 191 184 192
f 8 7 82
f 8 82 193
f 193 82 81
f 193 81 194
f 195 196 168
f 195 168 167
f 197 195 167
f 197 167 169
f 198 197 169
f 198 169 171
f 199 175 177
f 199 177 200
f 200 177 165
f 200 165 201
f 202 176 175
f 202 175 199
f 203 173 176
f 203 176 202
f 204 174 173
f 204 173 203
f 204 198 171
f 204 171 174
f 200 201 205
f 200 205 206
f 199 200 206
f 199 206 207
f 202 199 207
f 202 207 208
f 203 202 208
f 203 208 209
f 204 203 209
f 204 209 210
f 211 198 204
f 211 204 210
f 197 198 211
f 197 211 212
f 195 197 212
f 195 212 213
f 214 215 194
f 214 194 81
f 216 81 80
f 216 80 85
f 217 216 85
f 217 85 86
f 217 86 79
f 217 79 78
f 218 216 217
f 218 217 219
f 219 217 220
f 219 220 221
f 222 223 219
f 222 219 221
f 32 31 222
f 32 222 224
f 221 220 225
f 221 225 226
f 224 222 221
f 224 221 226
f 225 227 228
f 225 228 229
f 214 81 216
f 214 216 218
f 230 95 89
f 230 89 231
f 232 231 89
f 232 89 87
f 232 87 65
f 232 65 66
f 233 228 227
f 233 227 234
f 235 66 64
f 235 64 236
f 237 228 233
f 237 233 238
f 238 235 236
f 238 236 237
f 238 233 231
f 238 231 232
f 238 232 66
f 238 66 235
f 239 240 70
f 239 70 69
f 239 69 1
f 239 1 241
f 242 241 1
f 242 1 4
f 242 4 6
f 242 6 5
f 243 244 239
f 243 239 241
f 245 244 243
f 245 243 246
f 243 241 242
f 243 242 247
f 247 242 5
f 247 5 248
f 248 5 8
f 248 8 249
f 250 249 8
f 250 8 193
f 251 250 193
f 251 193 194
f 252 251 194
f 252 194 215
f 253 246 243
f 253 243 247
f 254 253 247
f 254 247 248
f 254 248 249
f 254 249 255
f 256 255 249
f 256 249 250
f 257 245 246
f 257 246 258
f 258 246 253
f 258 253 259
f 260 259 253
f 260 253 254
f 260 254 255
f 260 255 256
f 261 256 250
f 261 250 251
f 262 260 256
f 262 256 261
f 263 259 260
f 263 260 262
f 264 258 259
f 264 259 263
f 265 257 258
f 265 258 264
f 233 234 266
f 233 266 267
f 230 231 233
f 230 233 267
f 240 239 244
f 240 244 268
f 257 265 267
f 257 267 266
f 227 225 220
f 227 220 269
f 269 220 217
f 269 217 78
f 269 270 234
f 269 234 227
f 269 78 75
f 269 75 270
f 270 75 70
f 270 70 240
f 270 240 268
f 270 268 271
f 271 266 234
f 271 234 270
f 245 257 266
f 245 266 271
f 271 268 244
f 271 244 245
f 272 273 274
f 272 274 275
f 276 272 275
f 276 275 277
f 278 261 251
f 278 251 252
f 273 272 279
f 273 279 280
f 280 279 205
f 280 205 281
f 282 283 215
f 282 215 214
f 284 285 286
f 284 286 287
f 288 284 287
f 288 287 289
f 288 289 283
f 288 283 282
f 282 214 218
f 282 218 290
f 218 219 223
f 218 223 290
f 291 252 215
f 291 215 283
f 292 278 252
f 292 252 291
f 293 291 283
f 293 283 289
f 294 292 291
f 294 291 293
f 295 223 222
f 295 222 31
f 295 31 30
f 295 30 296
f 296 30 34
f 296 34 297
f 274 273 298
f 274 298 299
f 300 299 298
f 300 298 301
f 300 301 296
f 300 296 297
f 288 282 290
f 288 290 302
f 302 301 298
f 302 298 303
f 303 298 273
f 303 273 280
f 280 285 284
f 280 284 303
f 303 284 288
f 303 288 302
f 302 290 223
f 302 223 295
f 302 295 296
f 302 296 301
f 304 305 287
f 304 287 286
f 293 289 287
f 293 287 305
f 305 304 306
f 305 306 307
f 305 307 308
f 305 308 293
f 309 294 293
f 309 293 308
f 310 306 304
f 310 304 311
f 311 304 286
f 311 286 312
f 312 286 285
f 312 285 313
f 314 201 165
f 314 165 164
f 281 205 201
f 281 201 314
f 285 280 281
f 285 281 313
f 315 316 308
f 315 308 307
f 317 315 307
f 317 307 306
f 306 310 318
f 306 318 317
f 319 309 308
f 319 308 316
f 320 321 309
f 320 309 319
f 322 321 320
f 322 320 323
f 324 325 322
f 324 322 323
f 326 327 325
f 326 325 324
f 328 327 326
f 328 326 329
f 318 310 328
f 318 328 329
f 326 324 330
f 326 330 331
f 329 326 331
f 329 331 332
f 330 324 323
f 330 323 333
f 334 320 319
f 334 319 335
f 333 323 320
f 333 320 334
f 335 319 316
f 335 316 336
f 336 316 315
f 336 315 337
f 337 315 317
f 337 317 338
f 338 317 318
f 338 318 339
f 339 318 329
f 339 329 332
f 340 341 338
f 340 338 339
f 342 337 338
f 342 338 341
f 343 336 337
f 343 337 342
f 344 335 336
f 344 336 343
f 345 334 335
f 345 335 344
f 346 333 334
f 346 334 345
f 347 330 333
f 347 333 346
f 331 330 347
f 331 347 348
f 332 331 348
f 332 348 349
f 340 339 332
f 340 332 349
f 350 342 341
f 350 341 351
f 343 342 350
f 343 350 352
f 344 343 352
f 344 352 353
f 354 351 341
f 354 341 340
f 354 340 349
f 354 349 355
f 355 349 348
f 355 348 356
f 356 348 347
f 356 347 357
f 357 347 346
f 357 346 358
f 358 346 345
f 358 345 359
f 345 344 353
f 345 353 359
f 360 350 351
f 360 351 361
f 352 350 360
f 352 360 362
f 363 361 351
f 363 351 354
f 353 352 362
f 353 362 364
f 365 360 361
f 365 361 366
f 367 362 360
f 367 360 365
f 368 359 353
f 368 353 364
f 364 362 367
f 364 367 369
f 369 367 365
f 369 365 370
f 371 358 359
f 371 359 368
f 371 372 357
f 371 357 358
f 373 371 368
f 373 368 374
f 374 368 364
f 374 364 369
f 374 369 370
f 374 370 375
f 376 370 365
f 376 365 366
f 376 366 361
f 376 361 363
f 377 363 354
f 377 354 355
f 378 375 370
f 378 370 376
f 373 374 375
f 373 375 379
f 379 372 371
f 379 371 373
f 380 356 357
f 380 357 372
f 380 377 355
f 380 355 356
f 381 379 375
f 381 375 378
f 378 376 363
f 378 363 377
f 378 377 380
f 378 380 381
f 380 372 379
f 380 379 381
f 382 183 181
f 382 181 182
f 182 160 159
f 182 159 187
f 262 261 278
f 262 278 383
f 384 182 187
f 384 187 186
f 385 382 182
f 385 182 384
f 386 387 385
f 386 385 384
f 384 186 95
f 384 95 230
f 384 230 267
f 384 267 386
f 267 265 387
f 267 387 386
f 387 265 264
f 387 264 388
f 263 262 383
f 263 383 389
f 388 264 263
f 388 263 389
f 390 385 387
f 390 387 388
f 383 278 292
f 383 292 391
f 389 383 391
f 389 391 392
f 390 388 389
f 390 389 392
f 393 382 385
f 393 385 390
f 394 294 309
f 394 309 321
f 394 391 292
f 394 292 294
f 392 391 394
f 392 394 395
f 393 390 392
f 393 392 395
f 396 183 382
f 396 382 393
f 394 321 322
f 394 322 397
f 395 394 397
f 395 397 398
f 396 393 395
f 396 395 398
f 179 183 396
f 179 396 399
f 400 397 322
f 400 322 325
f 398 397 400
f 398 400 401
f 399 396 398
f 399 398 401
f 105 179 399
f 105 399 402
f 403 400 325
f 403 325 327
f 401 400 403
f 401 403 404
f 402 399 401
f 402 401 404
f 106 105 402
f 106 402 405
f 403 327 328
f 403 328 406
f 406 328 310
f 406 310 311
f 404 403 406
f 404 406 407
f 405 402 404
f 405 404 407
f 408 406 311
f 408 311 312
f 101 106 405
f 101 405 409
f 407 406 408
f 407 408 410
f 409 405 407
f 409 407 410
f 411 408 312
f 411 312 313
f 411 313 281
f 411 281 314
f 236 64 56
f 236 56 412
f 226 225 229
f 226 229 413
f 414 224 226
f 414 226 413
f 414 413 415
f 414 415 416
f 32 224 414
f 32 414 417
f 417 414 416
f 417 416 418
f 33 32 417
f 33 417 419
f 420 416 415
f 420 415 421
f 422 419 417
f 422 417 418
f 422 418 416
f 422 416 420
f 35 33 419
f 35 419 423
f 424 420 421
f 424 421 425
f 426 423 419
f 426 419 422
f 426 422 420
f 426 420 424
f 427 425 421
f 427 421 428
f 429 427 428
f 429 428 430
f 429 430 431
f 429 431 432
f 433 229 228
f 433 228 237
f 412 56 55
f 412 55 434
f 435 436 431
f 435 431 430
f 196 195 213
f 196 213 437
f 437 213 436
f 437 436 435
f 438 314 164
f 438 164 163
f 439 411 314
f 439 314 438
f 438 163 168
f 438 168 196
f 438 196 437
f 438 437 440
f 439 410 408
f 439 408 411
f 55 101 409
f 55 409 434
f 434 409 410
f 434 410 439
f 439 438 440
f 439 440 441
f 440 437 435
f 440 435 441
f 442 435 430
f 442 430 428
f 428 421 415
f 428 415 442
f 415 413 229
f 415 229 433
f 433 412 434
f 433 434 443
f 237 236 412
f 237 412 433
f 443 442 415
f 443 415 433
f 443 434 439
f 443 439 441
f 443 441 435
f 443 435 442
f 436 213 212
f 436 212 444
f 445 446 447
f 445 447 448
f 446 449 450
f 446 450 451
f 451 452 447
f 451 447 446
f 453 452 451
f 453 451 454
f 455 456 453
f 455 453 454
f 454 451 450
f 454 450 457
f 457 458 455
f 457 455 454
f 449 459 460
f 449 460 461
f 450 449 461
f 450 461 462
f 463 462 461
f 463 461 464
f 463 464 465
f 463 465 466
f 457 450 462
f 457 462 467
f 463 466 468
f 463 468 469
f 467 462 463
f 467 463 469
f 458 457 467
f 458 467 470
f 471 470 467
f 471 467 469
f 471 469 468
f 471 468 472
f 473 274 299
f 473 299 474
f 475 476 473
f 475 473 474
f 277 275 274
f 277 274 473
f 477 478 277
f 477 277 473
f 476 460 477
f 476 477 473
f 476 475 465
f 476 465 464
f 464 461 460
f 464 460 476
f 479 470 471
f 479 471 480
f 471 472 481
f 471 481 480
f 458 470 479
f 458 479 482
f 483 455 458
f 483 458 482
f 484 456 455
f 484 455 483
f 485 477 460
f 485 460 459
f 445 459 449
f 445 449 446
f 444 212 211
f 444 211 486
f 487 431 436
f 487 436 444
f 210 209 488
f 210 488 489
f 486 211 210
f 486 210 489
f 488 209 208
f 488 208 490
f 432 431 487
f 432 487 491
f 492 487 444
f 492 444 486
f 493 491 487
f 493 487 492
f 490 208 207
f 490 207 494
f 478 477 485
f 478 485 495
f 495 485 496
f 495 496 497
f 276 277 478
f 276 478 495
f 497 498 276
f 497 276 495
f 206 205 279
f 206 279 498
f 498 279 272
f 498 272 276
f 494 207 206
f 494 206 498
f 497 490 494
f 497 494 498
f 496 485 459
f 496 459 445
f 445 448 499
f 445 499 496
f 496 499 491
f 496 491 493
f 496 493 492
f 496 492 497
f 497 492 486
f 497 486 489
f 497 489 488
f 497 488 490
f 189 188 190
f 189 190 500
f 501 190 159
f 501 159 161
f 502 501 161
f 502 161 162
f 502 162 13
f 502 13 503
f 504 503 13
f 504 13 14
f 192 184 189
f 192 189 500
f 500 190 501
f 500 501 505
f 506 507 191
f 506 191 192
f 506 192 500
f 506 500 505
f 505 501 502
f 505 502 508
f 509 510 507
f 509 507 506
f 509 506 505
f 509 505 508
f 511 508 502
f 511 502 503
f 512 513 510
f 512 510 509
f 512 509 508
f 512 508 511
f 514 18 21
f 514 21 515
f 516 504 14
f 516 14 17
f 516 17 18
f 516 18 514
f 517 511 503
f 517 503 504
f 517 504 516
f 517 516 518
f 519 520 513
f 519 513 512
f 521 522 520
f 521 520 519
f 519 512 511
f 519 511 517
f 519 517 518
f 519 518 521
f 518 516 514
f 518 514 521
f 521 514 515
f 521 515 522
f 523 524 525
f 523 525 526
f 526 525 527
f 526 527 528
f 529 530 531
f 529 531 532
f 532 533 534
f 532 534 529
f 528 527 533
f 528 533 532
f 531 530 535
f 531 535 536
f 537 538 534
f 537 534 533
f 527 539 537
f 527 537 533
f 525 524 540
f 525 540 541
f 525 541 539
f 525 539 527
f 542 543 530
f 542 530 529
f 529 534 544
f 529 544 542
f 530 543 545
f 530 545 546
f 530 546 547
f 530 547 535
f 534 538 548
f 534 548 544
f 544 549 543
f 544 543 542
f 549 550 545
f 549 545 543
f 550 551 546
f 550 546 545
f 535 552 553
f 535 553 536
f 552 554 555
f 552 555 553
f 556 557 558
f 556 558 559
f 559 555 554
f 559 554 556
f 557 560 561
f 557 561 558
f 551 562 547
f 551 547 546
f 562 563 564
f 562 564 547
f 547 564 552
f 547 552 535
f 564 563 565
f 564 565 566
f 564 566 554
f 564 554 552
f 567 566 565
f 567 565 568
f 556 554 566
f 556 566 567
f 567 568 569
f 567 569 570
f 567 570 557
f 567 557 556
f 571 572 573
f 571 573 574
f 574 573 575
f 574 575 576
f 574 577 578
f 574 578 571
f 579 580 577
f 579 577 574
f 576 581 579
f 576 579 574
f 572 582 583
f 572 583 573
f 573 583 584
f 573 584 575
f 538 537 585
f 538 585 586
f 586 585 587
f 586 587 588
f 586 589 590
f 586 590 538
f 588 591 589
f 588 589 586
f 582 592 593
f 582 593 583
f 583 593 594
f 583 594 595
f 583 595 596
f 583 596 584
f 593 592 597
f 593 597 598
f 593 598 599
f 593 599 594
f 577 600 601
f 577 601 578
f 580 602 600
f 580 600 577
f 600 603 604
f 600 604 601
f 602 605 603
f 602 603 600
f 603 606 607
f 603 607 604
f 605 608 606
f 605 606 603
f 606 609 610
f 606 610 607
f 608 611 609
f 608 609 606
f 609 612 613
f 609 613 610
f 611 614 612
f 611 612 609
f 615 616 613
f 615 613 612
f 614 617 615
f 614 615 612
f 604 607 610
f 604 610 618
f 618 619 601
f 618 601 604
f 610 613 616
f 610 616 618
f 619 620 578
f 619 578 601
f 620 572 571
f 620 571 578
f 620 592 582
f 620 582 572
f 616 615 598
f 616 598 597
f 616 597 619
f 616 619 618
f 617 599 598
f 617 598 615
f 597 592 620
f 597 620 619
f 621 622 595
f 621 595 594
f 594 599 623
f 594 623 621
f 622 624 596
f 622 596 595
f 599 617 625
f 599 625 623
f 617 614 626
f 617 626 625
f 614 611 627
f 614 627 626
f 628 627 611
f 628 611 608
f 608 605 629
f 608 629 628
f 605 602 630
f 605 630 629
f 580 579 631
f 580 631 632
f 632 633 602
f 632 602 580
f 581 634 631
f 581 631 579
f 524 523 635
f 524 635 636
f 636 637 540
f 636 540 524
f 584 596 638
f 584 638 639
f 639 638 640
f 639 640 641
f 642 575 584
f 642 584 639
f 641 539 642
f 641 642 639
f 638 596 624
f 638 624 643
f 638 643 644
f 638 644 640
f 585 537 539
f 585 539 641
f 641 640 587
f 641 587 585
f 645 646 590
f 645 590 589
f 589 591 647
f 589 647 645
f 590 646 648
f 590 648 649
f 590 649 548
f 590 548 538
f 539 541 650
f 539 650 642
f 642 650 576
f 642 576 575
f 541 540 651
f 541 651 650
f 650 651 581
f 650 581 576
f 651 540 637
f 651 637 652
f 651 652 634
f 651 634 581
f 653 654 655
f 653 655 656
f 657 644 654
f 657 654 653
f 653 656 658
f 653 658 659
f 653 659 660
f 653 660 657
f 661 662 655
f 661 655 654
f 644 643 661
f 644 661 654
f 663 664 665
f 663 665 666
f 658 656 664
f 658 664 663
f 663 666 667
f 663 667 668
f 668 669 658
f 668 658 663
f 664 670 671
f 664 671 665
f 656 655 670
f 656 670 664
f 672 673 671
f 672 671 670
f 670 655 674
f 670 674 672
f 675 676 665
f 675 665 671
f 673 677 675
f 673 675 671
f 676 678 666
f 676 666 665
f 666 678 679
f 666 679 667
f 680 681 676
f 680 676 675
f 677 682 680
f 677 680 675
f 681 683 678
f 681 678 676
f 678 683 684
f 678 684 679
f 683 681 685
f 683 685 686
f 683 686 687
f 683 687 684
f 681 680 688
f 681 688 685
f 680 647 591
f 680 591 688
f 682 689 647
f 682 647 680
f 689 690 645
f 689 645 647
f 691 692 693
f 691 693 694
f 689 682 692
f 689 692 691
f 694 695 696
f 694 696 691
f 691 696 690
f 691 690 689
f 692 697 698
f 692 698 693
f 682 677 697
f 682 697 692
f 697 699 700
f 697 700 698
f 677 673 699
f 677 699 697
f 699 701 702
f 699 702 700
f 673 672 701
f 673 701 699
f 703 704 702
f 703 702 701
f 672 674 703
f 672 703 701
f 696 695 705
f 696 705 706
f 696 706 707
f 696 707 708
f 708 709 690
f 708 690 696
f 710 711 712
f 710 712 713
f 714 715 711
f 714 711 710
f 710 713 716
f 710 716 717
f 717 709 714
f 717 714 710
f 694 693 718
f 694 718 719
f 694 719 720
f 694 720 695
f 693 698 721
f 693 721 718
f 698 700 722
f 698 722 721
f 700 702 723
f 700 723 722
f 702 704 724
f 702 724 723
f 655 662 725
f 655 725 674
f 726 727 662
f 726 662 661
f 661 643 624
f 661 624 726
f 728 729 704
f 728 704 703
f 674 725 728
f 674 728 703
f 704 729 730
f 704 730 724
f 623 625 731
f 623 731 732
f 732 733 621
f 732 621 623
f 625 626 734
f 625 734 731
f 602 633 735
f 602 735 630
f 632 631 736
f 632 736 737
f 632 737 738
f 632 738 633
f 634 739 736
f 634 736 631
f 662 727 740
f 662 740 725
f 741 742 729
f 741 729 728
f 725 740 741
f 725 741 728
f 742 743 730
f 742 730 729
f 722 744 745
f 722 745 721
f 723 746 744
f 723 744 722
f 747 748 745
f 747 745 744
f 746 749 747
f 746 747 744
f 721 745 750
f 721 750 718
f 748 751 750
f 748 750 745
f 752 753 718
f 752 718 750
f 750 751 754
f 750 754 752
f 755 748 747
f 755 747 756
f 756 747 749
f 756 749 757
f 758 759 755
f 758 755 756
f 757 760 758
f 757 758 756
f 753 761 719
f 753 719 718
f 719 761 762
f 719 762 720
f 755 759 763
f 755 763 764
f 755 764 751
f 755 751 748
f 765 766 763
f 765 763 759
f 758 767 765
f 758 765 759
f 768 769 764
f 768 764 763
f 763 766 770
f 763 770 768
f 769 754 751
f 769 751 764
f 771 772 773
f 771 773 774
f 774 773 775
f 774 775 776
f 777 778 771
f 777 771 774
f 774 776 779
f 774 779 777
f 761 773 772
f 761 772 762
f 753 775 773
f 753 773 761
f 780 781 766
f 780 766 765
f 767 782 780
f 767 780 765
f 766 781 783
f 766 783 770
f 781 780 784
f 781 784 785
f 781 785 786
f 781 786 783
f 782 787 784
f 782 784 780
f 785 784 788
f 785 788 789
f 785 789 790
f 785 790 786
f 784 787 791
f 784 791 788
f 758 760 792
f 758 792 767
f 793 794 757
f 793 757 749
f 746 795 793
f 746 793 749
f 794 796 760
f 794 760 757
f 760 796 797
f 760 797 792
f 798 799 794
f 798 794 793
f 793 795 800
f 793 800 798
f 799 801 796
f 799 796 794
f 796 801 802
f 796 802 797
f 795 724 803
f 795 803 800
f 746 723 724
f 746 724 795
f 724 730 804
f 724 804 803
f 730 805 806
f 730 806 804
f 743 807 805
f 743 805 730
f 808 809 806
f 808 806 805
f 807 738 808
f 807 808 805
f 806 809 810
f 806 810 811
f 806 811 812
f 806 812 813
f 813 814 804
f 813 804 806
f 815 816 800
f 815 800 803
f 803 804 814
f 803 814 815
f 816 817 798
f 816 798 800
f 817 818 799
f 817 799 798
f 818 819 801
f 818 801 799
f 819 820 802
f 819 802 801
f 767 792 821
f 767 821 782
f 792 797 822
f 792 822 821
f 797 802 823
f 797 823 822
f 802 820 824
f 802 824 823
f 825 787 782
f 825 782 821
f 821 822 826
f 821 826 825
f 827 828 810
f 827 810 809
f 809 808 829
f 809 829 827
f 812 830 831
f 812 831 813
f 832 833 831
f 832 831 830
f 834 835 836
f 834 836 837
f 837 838 839
f 837 839 834
f 835 840 841
f 835 841 836
f 842 843 820
f 842 820 819
f 819 818 844
f 819 844 842
f 843 845 824
f 843 824 820
f 840 846 847
f 840 847 841
f 847 848 823
f 847 823 824
f 845 841 847
f 845 847 824
f 822 823 848
f 822 848 826
f 787 825 849
f 787 849 791
f 825 826 850
f 825 850 849
f 826 848 851
f 826 851 850
f 848 847 846
f 848 846 851
f 808 738 852
f 808 852 829
f 652 637 853
f 652 853 854
f 652 854 739
f 652 739 634
f 637 636 855
f 637 855 853
f 636 635 856
f 636 856 855
f 738 737 857
f 738 857 852
f 807 735 633
f 807 633 738
f 737 736 707
f 737 707 857
f 739 858 707
f 739 707 736
f 854 853 859
f 854 859 860
f 860 858 739
f 860 739 854
f 853 855 861
f 853 861 859
f 855 856 862
f 855 862 861
f 863 864 827
f 863 827 829
f 852 865 863
f 852 863 829
f 864 866 828
f 864 828 827
f 867 868 869
f 867 869 870
f 871 734 868
f 871 868 867
f 867 870 872
f 867 872 873
f 873 874 871
f 873 871 867
f 627 628 869
f 627 869 868
f 627 868 734
f 627 734 626
f 628 629 630
f 628 630 869
f 870 869 630
f 870 630 735
f 807 872 870
f 807 870 735
f 769 768 875
f 769 875 876
f 769 876 877
f 769 877 754
f 768 770 878
f 768 878 875
f 770 783 879
f 770 879 878
f 783 786 880
f 783 880 879
f 786 790 881
f 786 881 880
f 882 883 880
f 882 880 881
f 883 884 879
f 883 879 880
f 884 885 878
f 884 878 879
f 885 886 875
f 885 875 878
f 886 887 876
f 886 876 875
f 887 888 877
f 887 877 876
f 877 888 889
f 877 889 890
f 877 890 752
f 877 752 754
f 891 892 772
f 891 772 771
f 778 893 891
f 778 891 771
f 772 892 894
f 772 894 762
f 887 886 895
f 887 895 896
f 896 897 888
f 896 888 887
f 886 885 898
f 886 898 895
f 885 884 899
f 885 899 898
f 884 883 900
f 884 900 899
f 883 882 901
f 883 901 900
f 695 720 902
f 695 902 705
f 711 903 904
f 711 904 712
f 715 905 903
f 715 903 711
f 903 906 907
f 903 907 904
f 905 908 906
f 905 906 903
f 909 910 907
f 909 907 906
f 908 911 909
f 908 909 906
f 894 902 720
f 894 720 762
f 706 705 912
f 706 912 913
f 706 913 857
f 706 857 707
f 705 902 914
f 705 914 912
f 902 894 915
f 902 915 914
f 857 913 865
f 857 865 852
f 863 865 913
f 863 913 912
f 912 914 864
f 912 864 863
f 915 866 864
f 915 864 914
f 669 916 659
f 669 659 658
f 917 918 919
f 917 919 920
f 921 922 918
f 921 918 917
f 917 920 923
f 917 923 858
f 917 858 860
f 917 860 921
f 920 919 924
f 920 924 925
f 925 714 923
f 925 923 920
f 926 927 562
f 926 562 551
f 551 550 928
f 551 928 926
f 927 929 563
f 927 563 562
f 930 931 927
f 930 927 926
f 926 932 933
f 926 933 930
f 931 934 929
f 931 929 927
f 929 935 565
f 929 565 563
f 934 936 935
f 934 935 929
f 936 937 938
f 936 938 935
f 939 940 941
f 939 941 942
f 940 938 937
f 940 937 941
f 565 935 938
f 565 938 568
f 943 944 945
f 943 945 946
f 946 945 947
f 946 947 948
f 946 949 950
f 946 950 943
f 948 648 949
f 948 949 946
f 944 951 952
f 944 952 945
f 945 952 953
f 945 953 947
f 949 954 955
f 949 955 950
f 648 646 954
f 648 954 949
f 646 716 955
f 646 955 954
f 955 956 957
f 955 957 950
f 716 713 956
f 716 956 955
f 713 712 957
f 713 957 956
f 957 958 943
f 957 943 950
f 712 904 958
f 712 958 957
f 958 959 944
f 958 944 943
f 904 907 959
f 904 959 958
f 959 960 951
f 959 951 944
f 907 910 960
f 907 960 959
f 910 961 951
f 910 951 960
f 961 953 952
f 961 952 951
f 962 963 964
f 962 964 965
f 966 967 962
f 966 962 965
f 963 900 901
f 963 901 964
f 897 968 889
f 897 889 888
f 893 778 969
f 893 969 970
f 889 776 775
f 889 775 890
f 968 779 776
f 968 776 889
f 753 752 890
f 753 890 775
f 963 971 899
f 963 899 900
f 971 895 898
f 971 898 899
f 971 972 896
f 971 896 895
f 972 973 897
f 972 897 896
f 973 974 968
f 973 968 897
f 974 777 779
f 974 779 968
f 974 969 778
f 974 778 777
f 963 962 972
f 963 972 971
f 967 973 972
f 967 972 962
f 973 967 969
f 973 969 974
f 967 966 970
f 967 970 969
f 814 975 816
f 814 816 815
f 975 976 817
f 975 817 816
f 976 844 818
f 976 818 817
f 648 948 977
f 648 977 649
f 645 690 716
f 645 716 646
f 716 690 709
f 716 709 717
f 909 978 961
f 909 961 910
f 978 979 953
f 978 953 961
f 979 980 947
f 979 947 953
f 980 977 948
f 980 948 947
f 813 831 975
f 813 975 814
f 833 976 975
f 833 975 831
f 838 833 832
f 838 832 839
f 733 981 622
f 733 622 621
f 981 726 624
f 981 624 622
f 982 983 588
f 982 588 587
f 640 644 982
f 640 982 587
f 983 688 591
f 983 591 588
f 649 977 984
f 649 984 548
f 707 858 923
f 707 923 708
f 977 980 985
f 977 985 984
f 980 979 986
f 980 986 985
f 979 978 987
f 979 987 986
f 978 909 911
f 978 911 987
f 988 989 933
f 988 933 990
f 990 933 932
f 990 932 991
f 991 908 905
f 991 905 990
f 990 905 715
f 990 715 988
f 550 549 984
f 550 984 928
f 548 984 549
f 548 549 544
f 984 985 986
f 984 986 928
f 986 987 911
f 986 911 928
f 911 908 991
f 911 991 928
f 715 714 925
f 715 925 988
f 709 708 923
f 709 923 714
f 743 742 872
f 743 872 807
f 871 992 731
f 871 731 734
f 992 733 732
f 992 732 731
f 992 993 981
f 992 981 733
f 993 727 726
f 993 726 981
f 874 993 992
f 874 992 871
f 742 741 873
f 742 873 872
f 741 740 874
f 741 874 873
f 740 727 993
f 740 993 874
f 994 995 983
f 994 983 982
f 982 644 657
f 982 657 994
f 995 685 688
f 995 688 983
f 916 996 660
f 916 660 659
f 997 998 995
f 997 995 994
f 999 1000 998
f 999 998 997
f 994 657 660
f 994 660 997
f 997 660 996
f 997 996 999
f 998 686 685
f 998 685 995
f 1000 687 686
f 1000 686 998
f 1001 1002 1000
f 1001 1000 999
f 999 996 1003
f 999 1003 1001
f 1002 1004 687
f 1002 687 1000
f 996 916 1005
f 996 1005 1003
f 1004 1006 684
f 1004 684 687
f 916 669 1007
f 916 1007 1005
f 669 668 1008
f 669 1008 1007
f 668 667 1009
f 668 1009 1008
f 667 679 1010
f 667 1010 1009
f 679 684 1006
f 679 1006 1010
f 1011 1012 1008
f 1011 1008 1009
f 1009 1010 1013
f 1009 1013 1011
f 1012 1014 1007
f 1012 1007 1008
f 1010 1006 1015
f 1010 1015 1013
f 1006 1004 1016
f 1006 1016 1015
f 1014 1017 1005
f 1014 1005 1007
f 1017 1018 1003
f 1017 1003 1005
f 1001 1003 1018
f 1001 1018 1019
f 1019 1020 1002
f 1019 1002 1001
f 1020 1016 1004
f 1020 1004 1002
f 1021 1022 1020
f 1021 1020 1019
f 1019 1018 1023
f 1019 1023 1021
f 1022 1024 1016
f 1022 1016 1020
f 1024 1025 1015
f 1024 1015 1016
f 1018 1017 1026
f 1018 1026 1023
f 1017 1014 1027
f 1017 1027 1026
f 1014 1012 1028
f 1014 1028 1027
f 1012 1011 1029
f 1012 1029 1028
f 1011 1013 1030
f 1011 1030 1029
f 1013 1015 1025
f 1013 1025 1030
f 1031 1032 1022
f 1031 1022 1021
f 1021 1023 1033
f 1021 1033 1031
f 1032 1034 1024
f 1032 1024 1022
f 1023 1026 1035
f 1023 1035 1033
f 1026 1027 1036
f 1026 1036 1035
f 1034 1037 1025
f 1034 1025 1024
f 1037 1038 1030
f 1037 1030 1025
f 1038 1039 1029
f 1038 1029 1030
f 1039 1040 1028
f 1039 1028 1029
f 1040 1036 1027
f 1040 1027 1028
f 1041 1034 1032
f 1041 1032 1031
f 1031 1033 1035
f 1031 1035 1041
f 1036 1042 1041
f 1036 1041 1035
f 1042 1037 1034
f 1042 1034 1041
f 1036 1040 1039
f 1036 1039 1042
f 1042 1039 1038
f 1042 1038 1037
f 859 861 921
f 859 921 860
f 861 862 922
f 861 922 921
f 925 924 989
f 925 989 988
f 938 940 569
f 938 569 568
f 1043 1044 570
f 1043 570 569
f 940 939 1043
f 940 1043 569
f 570 1044 560
f 570 560 557
f 926 928 991
f 926 991 932
f 833 838 844
f 833 844 976
f 838 837 842
f 838 842 844
f 837 836 843
f 837 843 842
f 843 836 841
f 843 841 845
f 1045 90 94
f 1045 94 1046
f 1047 812 811
f 1047 811 1046
f 1046 94 185
f 1046 185 1047
f 1048 830 812
f 1048 812 1047
f 835 834 1049
f 835 1049 1050
f 1050 520 522
f 1050 522 1051
f 840 835 1050
f 840 1050 1051
f 1051 522 515
f 1051 515 1052
f 846 840 1051
f 846 1051 1052
f 1052 515 21
f 1052 21 1053
f 1053 851 846
f 1053 846 1052
f 1053 21 20
f 1053 20 1054
f 1054 850 851
f 1054 851 1053
f 1054 20 23
f 1054 23 1055
f 849 850 1054
f 849 1054 1055
f 1055 23 26
f 1055 26 1056
f 791 849 1055
f 791 1055 1056
f 1056 26 29
f 1056 29 1057
f 788 791 1056
f 788 1056 1057
f 1046 811 810
f 1046 810 1045
f 1057 29 40
f 1057 40 1058
f 789 788 1057
f 789 1057 1058
f 1058 40 41
f 1058 41 1059
f 790 789 1058
f 790 1058 1059
f 1060 891 893
f 1060 893 1061
f 1059 41 53
f 1059 53 1062
f 881 790 1059
f 881 1059 1062
f 1060 125 60
f 1060 60 1063
f 1063 892 891
f 1063 891 1060
f 1064 88 90
f 1064 90 1045
f 1064 1045 810
f 1064 810 828
f 1063 60 59
f 1063 59 1065
f 894 892 1063
f 894 1063 1065
f 1066 63 67
f 1066 67 1067
f 1067 67 88
f 1067 88 1064
f 1067 1064 828
f 1067 828 866
f 1067 866 915
f 1067 915 1066
f 1065 59 63
f 1065 63 1066
f 915 894 1065
f 915 1065 1066
f 1062 53 115
f 1062 115 1068
f 882 881 1062
f 882 1062 1068
f 1069 127 130
f 1069 130 1070
f 1070 964 901
f 1070 901 1069
f 1068 115 127
f 1068 127 1069
f 901 882 1068
f 901 1068 1069
f 1070 130 129
f 1070 129 1071
f 1071 965 964
f 1071 964 1070
f 1061 153 125
f 1061 125 1060
f 1061 893 970
f 1061 970 1072
f 1071 129 152
f 1071 152 1073
f 1073 152 154
f 1073 154 1072
f 966 965 1071
f 966 1071 1073
f 1072 970 966
f 1072 966 1073
f 1072 154 153
f 1072 153 1061
f 1049 513 520
f 1049 520 1050
f 1049 834 839
f 1049 839 1074
f 1047 185 191
f 1047 191 1048
f 1075 832 830
f 1075 830 1048
f 1074 510 513
f 1074 513 1049
f 1075 507 510
f 1075 510 1074
f 1074 839 832
f 1074 832 1075
f 1048 191 507
f 1048 507 1075
f 1076 474 299
f 1076 299 1077
f 1076 531 536
f 1076 536 1078
f 1078 475 474
f 1078 474 1076
f 1078 536 553
f 1078 553 1079
f 1080 1081 558
f 1080 558 561
f 1081 1082 559
f 1081 559 558
f 1083 523 526
f 1083 526 1084
f 1083 34 35
f 1083 35 1085
f 635 523 1083
f 635 1083 1085
f 931 930 1086
f 931 1086 1087
f 1087 448 447
f 1087 447 1088
f 934 931 1087
f 934 1087 1088
f 1088 447 452
f 1088 452 1089
f 936 934 1088
f 936 1088 1089
f 1089 452 453
f 1089 453 1090
f 937 936 1089
f 937 1089 1090
f 1091 942 941
f 1091 941 1092
f 1090 453 456
f 1090 456 1092
f 1092 941 937
f 1092 937 1090
f 1079 465 475
f 1079 475 1078
f 1079 553 555
f 1079 555 1093
f 1081 472 468
f 1081 468 1082
f 1082 468 466
f 1082 466 1093
f 1093 555 559
f 1093 559 1082
f 1093 466 465
f 1093 465 1079
f 1086 499 448
f 1086 448 1087
f 1086 930 933
f 1086 933 1094
f 1084 297 34
f 1084 34 1083
f 1084 526 528
f 1084 528 1095
f 1077 299 300
f 1077 300 1095
f 1077 532 531
f 1077 531 1076
f 1095 528 532
f 1095 532 1077
f 1095 300 297
f 1095 297 1084
f 1096 918 922
f 1096 922 1097
f 1085 35 423
f 1085 423 1098
f 856 635 1085
f 856 1085 1098
f 1097 424 425
f 1097 425 1096
f 1099 426 424
f 1099 424 1097
f 1097 922 862
f 1097 862 1099
f 1098 423 426
f 1098 426 1099
f 862 856 1098
f 862 1098 1099
f 1096 425 427
f 1096 427 1100
f 919 918 1096
f 919 1096 1100
f 1094 491 499
f 1094 499 1086
f 1094 933 989
f 1094 989 1101
f 1100 427 429
f 1100 429 1102
f 1102 429 432
f 1102 432 1101
f 924 919 1100
f 924 1100 1102
f 1101 989 924
f 1101 924 1102
f 1101 432 491
f 1101 491 1094
f 1080 481 472
f 1080 472 1081
f 1103 480 481
f 1103 481 1080
f 1080 561 560
f 1080 560 1103
f 1104 479 480
f 1104 480 1103
f 1103 560 1044
f 1103 1044 1104
f 1105 482 479
f 1105 479 1104
f 1104 1044 1043
f 1104 1043 1105
f 1092 456 484
f 1092 484 1091
f 1091 484 483
f 1091 483 1106
f 1106 939 942
f 1106 942 1091
f 1106 483 482
f 1106 482 1105
f 1105 1043 939
f 1105 939 1106
