# L5 posed
v -0.302856 -0.003478 0.459041
v -0.300046 -0.003807 0.459465
v -0.298818 -0.003073 0.460515
v -0.301081 -0.002683 0.460216
v -0.297177 -0.001179 0.461392
v -0.296907 -0.002069 0.461550
v -0.289771 -0.001205 0.462690
v -0.290046 -0.000251 0.462491
v -0.288454 0.011803 0.441014
v -0.280444 0.011501 0.442322
v -0.281004 0.009670 0.438670
v -0.289493 0.009878 0.437000
v -0.291682 0.010154 0.441084
v -0.292349 0.008256 0.437442
v -0.281740 0.006733 0.435470
v -0.290044 0.006747 0.433629
v -0.292930 0.005515 0.434267
v -0.293645 0.002388 0.432383
v -0.290624 0.003091 0.431483
v -0.291497 -0.000691 0.430141
v -0.294655 -0.001465 0.431204
v -0.282281 0.003297 0.433198
v -0.282768 -0.000244 0.431926
v -0.271636 0.006819 0.437224
v -0.272246 0.003597 0.435143
v -0.272603 0.000135 0.433972
v -0.262041 0.007474 0.437584
v -0.262751 0.004265 0.435760
v -0.263623 0.000894 0.434737
v -0.277540 -0.010143 0.458583
v -0.277312 -0.008804 0.458333
v -0.279355 -0.009525 0.457525
v -0.279266 -0.010748 0.457615
v -0.279538 -0.011873 0.458652
v -0.279552 -0.012147 0.457548
v -0.261893 0.010118 0.440563
v -0.252288 0.011030 0.440199
v -0.252480 0.008320 0.437147
v -0.253544 0.005138 0.435599
v -0.254751 0.001780 0.434701
v -0.246076 0.002354 0.434495
v -0.245054 0.005646 0.435454
v -0.244143 0.008781 0.436806
v -0.243228 0.011606 0.439637
v -0.252033 0.012559 0.443690
v -0.242629 0.013391 0.442931
v -0.252086 0.012447 0.446905
v -0.242273 0.013295 0.446026
v -0.240233 0.010797 0.440285
v -0.239529 0.012537 0.443157
v -0.241584 0.008234 0.437613
v -0.242138 0.005266 0.436189
v -0.242929 0.002260 0.434802
v -0.261462 -0.000359 0.454347
v -0.264312 0.000574 0.455276
v -0.268584 -0.000903 0.455271
v -0.265882 -0.002148 0.454349
v -0.252693 -0.002325 0.453084
v -0.256387 -0.005319 0.453075
v -0.249942 -0.004833 0.452137
v -0.247899 -0.002100 0.452193
v -0.271832 -0.003658 0.454262
v -0.271430 -0.006886 0.453641
v -0.272386 -0.001815 0.455154
v -0.279518 -0.004550 0.454041
v -0.278293 -0.002643 0.454980
v -0.281109 -0.007855 0.453222
v -0.300670 -0.005106 0.458178
v -0.303728 -0.005295 0.457272
v -0.300608 -0.006059 0.456417
v -0.297962 -0.005291 0.457950
v -0.295918 -0.003489 0.459981
v -0.295294 -0.002796 0.461404
v -0.289900 -0.002397 0.461996
v -0.295606 -0.006354 0.456465
v -0.294206 -0.005419 0.457972
v -0.291597 -0.003447 0.460180
v -0.289670 -0.006338 0.457381
v -0.289183 -0.005343 0.458530
v -0.282747 -0.002786 0.461371
v -0.279688 -0.001580 0.461830
v -0.283760 -0.001114 0.462528
v -0.285819 -0.002534 0.461758
v -0.287369 -0.003560 0.460242
v -0.283927 -0.003747 0.460257
v -0.285808 -0.004912 0.459227
v -0.287828 -0.005132 0.453547
v -0.289968 -0.008576 0.452284
v -0.293607 -0.004828 0.452935
v -0.295903 -0.008594 0.451257
v -0.261840 0.011501 0.443976
v -0.262297 0.011200 0.447213
v -0.270957 0.009535 0.440253
v -0.296679 -0.007795 0.450457
v -0.295475 -0.003575 0.452490
v -0.270818 0.010746 0.446917
v -0.270415 0.011000 0.443670
v -0.279917 0.011204 0.445973
v -0.288101 0.011365 0.444924
v -0.259536 0.001420 0.454479
v -0.262440 0.002242 0.455231
v -0.239651 0.012596 0.445873
v -0.259743 0.003716 0.454424
v -0.265986 0.005918 0.454345
v -0.267187 0.006148 0.455226
v -0.262827 0.004185 0.455157
v -0.253743 0.008057 0.452358
v -0.263536 0.007676 0.452648
v -0.247739 0.004547 0.453212
v -0.244371 0.008587 0.451319
v -0.242178 0.004792 0.451816
v -0.240708 0.008303 0.450452
v -0.250380 0.000526 0.453307
v -0.245486 0.000867 0.452186
v -0.243551 0.001723 0.436424
v -0.243529 0.004022 0.438113
v -0.243481 0.006462 0.439973
v -0.242252 0.008911 0.442003
v -0.241164 0.010548 0.444175
v -0.240679 0.010767 0.446255
v -0.242262 0.004224 0.451200
v -0.240446 0.007409 0.450067
v -0.246042 0.000867 0.451930
v -0.248679 -0.001945 0.452249
v -0.250676 -0.004693 0.452333
v -0.249097 0.002054 0.442245
v -0.249902 -0.000100 0.441230
v -0.253510 -0.000119 0.450409
v -0.256736 -0.003325 0.451579
v -0.254454 -0.001834 0.446874
v -0.252481 0.000820 0.447053
v -0.247894 0.004368 0.443197
v -0.245997 0.006728 0.443903
v -0.249542 0.003923 0.446495
v -0.245022 0.007900 0.445389
v -0.243863 0.008310 0.447075
v -0.249783 0.003402 0.448916
v -0.252164 0.011111 0.449701
v -0.262569 0.009818 0.450076
v -0.242576 0.011936 0.448815
v -0.239887 0.011152 0.448438
v -0.240245 0.009809 0.448470
v -0.242508 0.007681 0.448901
v -0.243285 0.005486 0.450376
v -0.245314 0.003212 0.451348
v -0.249980 0.002500 0.450808
v -0.249543 0.000461 0.452233
v -0.250769 0.001324 0.451945
v -0.254027 -0.001058 0.452423
v -0.252167 -0.002025 0.452763
v -0.254283 -0.001697 0.452955
v -0.256796 -0.004219 0.453880
v -0.253296 -0.004638 0.452915
v -0.255708 -0.004505 0.453542
v -0.272233 0.007884 0.452378
v -0.271560 0.009611 0.449788
v -0.280116 0.010317 0.449093
v -0.288325 0.010241 0.448191
v -0.292931 0.006540 0.450128
v -0.289702 0.008317 0.450876
v -0.291672 0.008621 0.447675
v -0.291392 0.009889 0.444658
v -0.242667 0.002584 0.455126
v -0.244273 0.002990 0.456554
v -0.239632 0.003916 0.457017
v -0.236453 0.003470 0.454826
v -0.233017 0.002903 0.452347
v -0.239214 0.002350 0.453754
v -0.224098 0.003837 0.450671
v -0.228557 0.004257 0.453876
v -0.217017 0.004827 0.449913
v -0.220812 0.005104 0.452938
v -0.214267 0.005809 0.452264
v -0.212278 0.005551 0.449940
v -0.222992 0.005482 0.455616
v -0.216779 0.005887 0.454256
v -0.231933 0.004842 0.457033
v -0.272873 0.006417 0.454159
v -0.273562 0.006343 0.455168
v -0.280740 0.008666 0.451741
v -0.280521 0.006476 0.453814
v -0.290542 0.005083 0.453732
v -0.280087 0.006380 0.455088
v -0.295182 -0.002861 0.451280
v -0.295478 -0.007012 0.449911
v -0.293741 0.000065 0.454193
v -0.293781 0.003448 0.452732
v -0.294157 0.002751 0.451631
v -0.294565 0.000125 0.452233
v -0.293127 0.005054 0.449525
v -0.293710 -0.006277 0.448963
v -0.293704 -0.001997 0.449649
v -0.283696 -0.000151 0.462426
v -0.279961 -0.000389 0.461746
v -0.233184 0.001997 0.451786
v -0.241357 0.001874 0.453706
v -0.222769 0.002899 0.449581
v -0.214971 0.003891 0.448650
v -0.222061 0.004949 0.456639
v -0.232454 0.004197 0.458192
v -0.243239 0.003249 0.458409
v -0.215466 0.005304 0.454802
v -0.211312 0.005252 0.452023
v -0.210272 0.004878 0.449217
v -0.244122 0.001925 0.458674
v -0.232948 0.002859 0.458233
v -0.222719 0.003631 0.456633
v -0.216415 0.003874 0.454653
v -0.213143 0.003750 0.452380
v -0.213892 0.003147 0.450460
v -0.218768 0.002217 0.449803
v -0.227043 0.001034 0.450923
v -0.235182 0.000440 0.452541
v -0.278427 -0.002289 0.460468
v -0.278914 -0.001019 0.460428
v -0.281442 -0.003774 0.460225
v -0.284752 -0.005569 0.458800
v -0.279063 -0.004045 0.459854
v -0.280749 -0.005853 0.459074
v -0.285221 -0.006834 0.457674
v -0.281661 -0.007145 0.458049
v -0.278859 -0.007830 0.458179
v -0.277252 -0.006453 0.459054
v -0.279676 -0.008451 0.457474
v -0.283549 -0.006759 0.457252
v -0.280952 -0.007461 0.457430
v -0.286879 -0.006097 0.456845
v -0.282193 -0.004725 0.456844
v -0.278238 -0.005427 0.457038
v -0.289361 -0.001616 0.455286
v -0.288032 -0.002611 0.454847
v -0.284466 -0.003082 0.454871
v -0.286229 -0.003509 0.456552
v -0.290045 -0.004935 0.456604
v -0.277532 -0.002316 0.455757
v -0.273359 -0.001908 0.456116
v -0.276056 -0.003140 0.456638
v -0.282203 -0.003009 0.456132
v -0.304099 -0.004331 0.456947
v -0.300824 -0.005297 0.456134
v -0.303365 -0.002730 0.458726
v -0.301557 -0.001847 0.459969
v -0.300059 -0.001726 0.458682
v -0.301712 -0.003388 0.457343
v -0.297483 -0.002298 0.457685
v -0.296476 -0.000920 0.458603
v -0.298174 -0.000743 0.459673
v -0.295284 -0.000230 0.460697
v -0.290778 0.000567 0.461479
v -0.285774 0.000982 0.461598
v -0.281935 0.000771 0.461320
v -0.280062 0.000129 0.460258
v -0.294928 0.000059 0.459446
v -0.292908 0.000615 0.460126
v -0.290588 0.000977 0.460678
v -0.287395 0.001352 0.460750
v -0.293170 -0.001247 0.457887
v -0.292464 -0.000024 0.458587
v -0.291183 0.000588 0.459276
v -0.289268 0.001035 0.459994
v -0.283920 0.001173 0.460571
v -0.286063 0.000896 0.459830
v -0.287855 0.001014 0.459119
v -0.289268 0.000992 0.458462
v -0.289828 -0.000052 0.457741
v -0.292036 -0.003187 0.456929
v -0.288672 -0.001874 0.456615
v -0.300186 -0.004248 0.456489
v -0.289857 -0.006700 0.456760
v -0.295290 -0.005785 0.456114
v -0.296421 -0.004187 0.456659
v -0.248521 -0.003422 0.459564
v -0.256849 -0.005009 0.459888
v -0.256923 -0.007765 0.460807
v -0.249674 -0.005158 0.460072
v -0.239942 -0.002713 0.459207
v -0.245366 -0.005406 0.460182
v -0.281965 0.000841 0.460104
v -0.246436 -0.001233 0.459087
v -0.255486 -0.001377 0.459626
v -0.251749 0.002212 0.458806
v -0.276046 -0.002878 0.460067
v -0.277099 -0.001092 0.460466
v -0.265771 -0.000888 0.460544
v -0.258120 0.001634 0.459901
v -0.259398 0.003617 0.460141
v -0.266721 0.001511 0.461225
v -0.271455 -0.002190 0.460397
v -0.272242 0.000321 0.461183
v -0.275848 -0.004689 0.459572
v -0.279068 0.000846 0.460537
v -0.281852 0.001936 0.460123
v -0.275956 0.002669 0.461485
v -0.279939 0.003781 0.460401
v -0.275072 -0.007571 0.459162
v -0.275947 -0.009594 0.459448
v -0.278813 -0.012052 0.459922
v -0.263853 -0.007095 0.459602
v -0.268151 -0.011596 0.461269
v -0.274881 -0.012109 0.461151
v -0.270180 -0.008642 0.459579
v -0.270984 -0.005305 0.459638
v -0.263919 -0.003593 0.459950
v -0.260244 0.005209 0.460529
v -0.267408 0.003476 0.461807
v -0.259975 0.006596 0.460576
v -0.266772 0.005224 0.462185
v -0.274868 0.004855 0.461940
v -0.278509 0.005767 0.460778
v -0.259709 0.007404 0.459248
v -0.259456 0.006048 0.458972
v -0.257395 0.004683 0.459128
v -0.255008 0.003169 0.459118
v -0.248457 0.002966 0.457423
v -0.265785 0.006954 0.462660
v -0.273059 0.006736 0.462649
v -0.259276 0.008363 0.460910
v -0.257326 0.009599 0.459974
v -0.277314 0.007533 0.461462
v -0.277524 0.008508 0.460653
v -0.279077 0.006589 0.459921
v -0.277270 0.008384 0.458996
v -0.275022 0.010423 0.459701
v -0.269757 0.011422 0.459080
v -0.271961 0.009770 0.458270
v -0.262758 0.011333 0.459023
v -0.265890 0.009577 0.458199
v -0.261447 0.008348 0.458567
v -0.258206 0.010485 0.459477
v -0.266429 0.013550 0.459866
v -0.258718 0.013189 0.459940
v -0.254165 0.012659 0.460400
v -0.273682 0.012536 0.460857
v -0.276496 0.011011 0.461983
v -0.277053 0.010210 0.462666
v -0.272887 0.009634 0.463566
v -0.264595 0.009420 0.463884
v -0.257153 0.010809 0.462390
v -0.253951 0.011982 0.461083
v -0.252159 0.014152 0.462192
v -0.255803 0.012993 0.463641
v -0.264089 0.011713 0.465104
v -0.272929 0.012169 0.464473
v -0.276815 0.012582 0.463757
v -0.275808 0.013204 0.463121
v -0.272021 0.014556 0.461996
v -0.263985 0.015672 0.460728
v -0.256114 0.015144 0.460842
v -0.251387 0.014804 0.461362
v -0.263171 0.013616 0.465809
v -0.255488 0.014649 0.464541
v -0.271512 0.014051 0.465241
v -0.275297 0.014230 0.464615
v -0.252025 0.015648 0.463354
v -0.251210 0.016402 0.462406
v -0.254762 0.016730 0.461775
v -0.261997 0.017306 0.461559
v -0.270182 0.016557 0.462578
v -0.274260 0.014687 0.463968
v -0.262532 0.015430 0.465923
v -0.256341 0.016044 0.465036
v -0.269338 0.015560 0.465736
v -0.253174 0.016794 0.464212
v -0.272474 0.015777 0.465234
v -0.262135 0.016993 0.465876
v -0.257445 0.017087 0.465395
v -0.267277 0.016884 0.465889
v -0.272323 0.016310 0.464495
v -0.269299 0.017722 0.465644
v -0.262006 0.018280 0.465636
v -0.268200 0.017745 0.463127
v -0.261021 0.018240 0.462468
v -0.266289 0.018467 0.463861
v -0.269542 0.017831 0.464917
v -0.261836 0.019276 0.464666
v -0.255939 0.017938 0.464989
v -0.252223 0.017518 0.463387
v -0.255240 0.018645 0.464182
v -0.260921 0.019006 0.463578
v -0.254837 0.017915 0.462597
v -0.256236 0.018691 0.463389
v -0.284917 0.005194 0.455408
v -0.284099 0.001044 0.459634
v -0.290171 0.001306 0.455793
v -0.287124 0.002529 0.456472
v -0.288481 -0.000029 0.456569
v -0.288087 0.001158 0.457277
v -0.287193 0.002164 0.458084
v -0.285806 0.001845 0.458889
v -0.285713 0.003538 0.457326
v -0.283714 0.002650 0.459326
v -0.284447 0.003446 0.458251
v -0.283119 0.005457 0.456488
v -0.281326 0.004773 0.459103
v -0.282370 0.005410 0.457616
v -0.279707 0.006569 0.456122
v -0.278441 0.007369 0.457981
v -0.279105 0.006943 0.457062
v -0.273370 0.007557 0.455914
v -0.272704 0.008839 0.457469
v -0.273013 0.008222 0.456667
v -0.267783 0.006967 0.455895
v -0.267677 0.008420 0.457379
v -0.267910 0.007742 0.456635
v -0.262575 0.005353 0.455868
v -0.262128 0.006440 0.457794
v -0.262392 0.006132 0.456637
v -0.256828 0.004702 0.457788
v -0.259747 0.003277 0.455921
v -0.257631 0.004270 0.456522
v -0.253200 0.003533 0.457875
v -0.267426 -0.001111 0.456248
v -0.276319 -0.006433 0.457119
v -0.276019 -0.007567 0.457132
v -0.262657 -0.004488 0.456873
v -0.269845 -0.006728 0.457020
v -0.276214 -0.008618 0.457129
v -0.272187 -0.008012 0.457012
v -0.276613 -0.009916 0.457133
v -0.268204 -0.008321 0.456755
v -0.261107 -0.006405 0.457021
v -0.271598 -0.008939 0.456911
v -0.277268 -0.011559 0.457119
v -0.267890 -0.010093 0.456579
v -0.260567 -0.008928 0.457057
v -0.271426 -0.010593 0.456769
v -0.252149 -0.007818 0.456815
v -0.251895 -0.005230 0.456436
v -0.244498 -0.006904 0.456269
v -0.244053 -0.004112 0.455839
v -0.237202 -0.003434 0.455196
v -0.237513 -0.006197 0.455672
v -0.265736 -0.002856 0.456767
v -0.258570 0.000863 0.456056
v -0.243253 -0.001521 0.454909
v -0.236842 -0.001408 0.453873
v -0.241976 -0.000171 0.453838
v -0.246694 0.002062 0.455375
v -0.254499 0.002064 0.456410
v -0.245712 0.000051 0.454645
v -0.248295 -0.000506 0.455324
v -0.252502 -0.003177 0.456136
v -0.255337 -0.001360 0.456149
v -0.230550 -0.001276 0.452789
v -0.223972 -0.006527 0.458966
v -0.222904 -0.007419 0.460473
v -0.218885 -0.007943 0.459473
v -0.221784 -0.007445 0.458236
v -0.251264 -0.012836 0.466104
v -0.255045 -0.015213 0.466594
v -0.251912 -0.015645 0.468136
v -0.249680 -0.014019 0.467963
v -0.249630 -0.016248 0.467296
v -0.251200 -0.016120 0.465113
v -0.218840 -0.011246 0.458488
v -0.218605 -0.009583 0.458773
v -0.215934 -0.010431 0.461385
v -0.217386 -0.011944 0.461103
v -0.222158 -0.009977 0.464485
v -0.218320 -0.009558 0.463274
v -0.217427 -0.008969 0.461991
v -0.222386 -0.009401 0.463246
v -0.227132 -0.009775 0.464030
v -0.226141 -0.010471 0.465560
v -0.227884 -0.007714 0.461190
v -0.228658 -0.006855 0.459754
v -0.234820 -0.007780 0.460773
v -0.233755 -0.008543 0.461992
v -0.222324 -0.013031 0.462159
v -0.222819 -0.012781 0.458870
v -0.227785 -0.013653 0.459411
v -0.227060 -0.013871 0.462801
v -0.242019 -0.015362 0.462081
v -0.233655 -0.014288 0.460268
v -0.232593 -0.014583 0.463520
v -0.239712 -0.015454 0.465008
v -0.242118 -0.010049 0.463680
v -0.239787 -0.011683 0.466143
v -0.232671 -0.010415 0.464772
v -0.231484 -0.011303 0.466701
v -0.237511 -0.012327 0.467784
v -0.245855 -0.013876 0.468784
v -0.250424 -0.008407 0.461562
v -0.256552 -0.011437 0.462178
v -0.251954 -0.011397 0.463072
v -0.244791 -0.009274 0.462912
v -0.236322 -0.006739 0.459924
v -0.237986 -0.005346 0.459572
v -0.229329 -0.012103 0.468356
v -0.235466 -0.013213 0.469233
v -0.242702 -0.014157 0.469610
v -0.224720 -0.011118 0.467094
v -0.221802 -0.010667 0.465847
v -0.219433 -0.010284 0.464470
v -0.229802 -0.005642 0.458534
v -0.224731 -0.000717 0.452397
v -0.231256 -0.003074 0.454666
v -0.217477 0.001457 0.453281
v -0.220282 0.000296 0.452782
v -0.220248 0.001279 0.454897
v -0.231166 -0.006007 0.455729
v -0.227043 -0.002663 0.454696
v -0.227842 -0.004602 0.456058
v -0.223997 0.001463 0.456475
v -0.232665 -0.003418 0.458397
v -0.225912 -0.005307 0.457226
v -0.226078 -0.001706 0.455865
v -0.233294 -0.000267 0.457930
v -0.226490 -0.006899 0.457087
v -0.293449 0.001689 0.449840
v -0.292061 0.006629 0.447481
v -0.291943 0.007759 0.444953
v -0.291916 0.007952 0.441812
v -0.292157 0.006251 0.438727
v -0.291858 0.002806 0.447862
v -0.292111 -0.001267 0.447975
v -0.292092 -0.005485 0.447683
v -0.290904 0.003497 0.445633
v -0.290960 -0.000640 0.446075
v -0.290956 -0.004684 0.445975
v -0.290272 0.003656 0.443172
v -0.290103 -0.000257 0.443728
v -0.290130 -0.003985 0.443766
v -0.293810 0.001358 0.434253
v -0.294564 -0.002069 0.433462
v -0.292889 0.004023 0.435998
v -0.290566 0.002939 0.440290
v -0.291469 0.002400 0.438226
v -0.290378 -0.000007 0.440654
v -0.290497 -0.003148 0.440619
v -0.291961 0.000313 0.437446
v -0.292378 -0.002475 0.437005
v -0.279462 -0.015553 0.457539
v -0.277411 -0.016465 0.456672
v -0.275789 -0.017342 0.457105
v -0.278722 -0.016321 0.458630
v -0.270009 -0.017273 0.456973
v -0.274785 -0.016613 0.459787
v -0.256749 -0.017031 0.458016
v -0.250279 -0.016230 0.459208
v -0.256481 -0.015174 0.461052
v -0.268062 -0.016051 0.459924
v -0.263656 -0.017550 0.456452
v -0.256606 -0.018429 0.455851
v -0.244669 -0.015785 0.460953
v -0.251882 -0.015202 0.461926
v -0.263601 -0.020544 0.454843
v -0.255144 -0.020852 0.453773
v -0.270697 -0.020007 0.455201
v -0.277144 -0.017229 0.455788
v -0.274854 -0.018508 0.455858
v -0.249456 -0.017530 0.456354
v -0.245167 -0.016881 0.456737
v -0.248266 -0.018336 0.455087
v -0.237817 -0.015577 0.456506
v -0.236191 -0.014549 0.457583
v -0.234712 -0.014160 0.458860
v -0.246138 -0.019403 0.453639
v -0.239699 -0.017582 0.454752
v -0.232475 -0.015591 0.454756
v -0.229677 -0.013632 0.456144
v -0.237440 -0.015736 0.466762
v -0.245792 -0.016376 0.468038
v -0.235416 -0.015744 0.468475
v -0.242652 -0.016284 0.468971
v -0.228552 -0.013418 0.457790
v -0.226071 -0.014217 0.464436
v -0.231410 -0.015020 0.465585
v -0.285428 -0.022481 0.453906
v -0.283480 -0.023905 0.454153
v -0.281018 -0.023417 0.454280
v -0.284415 -0.021412 0.454003
v -0.278681 -0.022484 0.454277
v -0.280442 -0.020708 0.454580
v -0.289364 -0.020534 0.453079
v -0.288816 -0.022200 0.453423
v -0.284953 -0.019542 0.453826
v -0.289575 -0.019744 0.452806
v -0.281420 -0.018989 0.454467
v -0.282246 -0.025345 0.454535
v -0.279162 -0.026132 0.454393
v -0.277971 -0.024264 0.453820
v -0.265343 -0.023415 0.453754
v -0.257670 -0.023787 0.452258
v -0.266190 -0.026007 0.452925
v -0.258874 -0.025735 0.451314
v -0.254549 -0.023938 0.450981
v -0.251328 -0.022504 0.451393
v -0.256880 -0.025474 0.450072
v -0.285269 -0.026391 0.454520
v -0.283154 -0.027746 0.454448
v -0.283058 -0.028427 0.453848
v -0.279398 -0.027056 0.453665
v -0.278415 -0.025321 0.453075
v -0.289307 -0.027426 0.454396
v -0.289102 -0.028884 0.454288
v -0.289422 -0.029554 0.453596
v -0.295280 -0.020959 0.452037
v -0.293815 -0.022671 0.452740
v -0.294952 -0.021043 0.451488
v -0.300234 -0.022221 0.451507
v -0.297534 -0.023515 0.452414
v -0.300424 -0.022644 0.450864
v -0.303280 -0.024176 0.451523
v -0.300212 -0.024397 0.452309
v -0.303614 -0.024772 0.450723
v -0.302289 -0.026813 0.451928
v -0.299499 -0.026301 0.452613
v -0.302770 -0.027278 0.451243
v -0.300433 -0.027982 0.452506
v -0.298209 -0.027443 0.453089
v -0.300890 -0.028563 0.451824
v -0.296254 -0.028681 0.453460
v -0.294698 -0.027676 0.453841
v -0.296499 -0.029333 0.452834
v -0.295389 -0.026143 0.453095
v -0.291089 -0.025497 0.453487
v -0.286891 -0.024664 0.453845
v -0.285095 -0.029075 0.452482
v -0.281324 -0.027993 0.452602
v -0.290075 -0.029579 0.452327
v -0.279523 -0.026296 0.452258
v -0.294609 -0.029198 0.451893
v -0.297513 -0.028548 0.451206
v -0.299456 -0.027371 0.450874
v -0.301200 -0.025333 0.450666
v -0.299739 -0.023634 0.450599
v -0.296000 -0.023018 0.450947
v -0.283302 -0.018920 0.453574
v -0.286598 -0.019701 0.452728
v -0.289710 -0.021040 0.451727
v -0.280741 -0.018075 0.454222
v -0.279506 -0.014415 0.456862
v -0.279171 -0.015471 0.456188
v -0.279220 -0.016322 0.455471
v -0.276619 -0.024984 0.453241
v -0.275639 -0.023067 0.453965
v -0.271721 -0.025890 0.453264
v -0.271043 -0.023140 0.454072
v -0.275517 -0.021204 0.454582
v -0.278537 -0.026934 0.452128
v -0.275328 -0.028622 0.452018
v -0.252776 -0.022941 0.449941
v -0.248090 -0.021542 0.450091
v -0.256355 -0.024267 0.449101
v -0.242831 -0.021984 0.450860
v -0.243738 -0.021260 0.451732
v -0.276987 -0.019632 0.455071
v -0.278653 -0.018094 0.455077
v -0.279503 -0.017141 0.454848
v -0.277762 -0.031021 0.449640
v -0.279291 -0.029346 0.450365
v -0.280644 -0.029365 0.448763
v -0.278321 -0.031126 0.448505
v -0.274150 -0.030566 0.451225
v -0.276676 -0.033017 0.448088
v -0.276479 -0.032800 0.449254
v -0.272260 -0.032339 0.450829
v -0.281269 -0.027966 0.451059
v -0.283094 -0.028240 0.449960
v -0.274144 -0.033439 0.446448
v -0.276474 -0.031564 0.446924
v -0.271172 -0.031220 0.445913
v -0.268906 -0.032892 0.445720
v -0.265515 -0.034747 0.445310
v -0.272701 -0.035865 0.446226
v -0.275510 -0.035927 0.447773
v -0.277708 -0.030099 0.446662
v -0.271987 -0.029904 0.445795
v -0.278414 -0.029102 0.446178
v -0.272345 -0.028759 0.445530
v -0.281692 -0.028876 0.447242
v -0.267019 -0.028616 0.446240
v -0.265161 -0.029988 0.446299
v -0.267304 -0.027438 0.446062
v -0.261972 -0.031637 0.446102
v -0.257892 -0.033291 0.445968
v -0.261571 -0.026439 0.447920
v -0.260798 -0.028576 0.447472
v -0.261881 -0.025194 0.447241
v -0.257487 -0.030606 0.447131
v -0.253388 -0.032537 0.446827
v -0.259092 -0.028107 0.448577
v -0.256635 -0.030146 0.448033
v -0.253182 -0.032475 0.447728
v -0.258892 -0.026735 0.449124
v -0.257206 -0.022873 0.448392
v -0.254151 -0.020608 0.449624
v -0.259360 -0.021753 0.448425
v -0.262113 -0.023843 0.447118
v -0.262424 -0.022175 0.447264
v -0.262092 -0.020540 0.448410
v -0.264001 -0.019468 0.449272
v -0.258249 -0.019790 0.449870
v -0.267229 -0.026090 0.445968
v -0.266688 -0.024656 0.445985
v -0.272747 -0.027603 0.445333
v -0.273003 -0.025915 0.445468
v -0.279053 -0.028109 0.445658
v -0.279466 -0.027143 0.444981
v -0.282464 -0.028124 0.446338
v -0.284283 -0.027358 0.445574
v -0.268294 -0.018899 0.449874
v -0.267116 -0.019613 0.450692
v -0.265469 -0.018536 0.452057
v -0.255080 -0.017787 0.451229
v -0.248057 -0.016917 0.450424
v -0.241795 -0.015227 0.449356
v -0.235018 -0.014018 0.448245
v -0.233019 -0.014347 0.446939
v -0.241150 -0.016605 0.448210
v -0.243069 -0.015331 0.450788
v -0.236677 -0.013963 0.450132
v -0.246405 -0.018803 0.449146
v -0.245494 -0.016452 0.449726
v -0.259397 -0.020542 0.447175
v -0.259252 -0.018604 0.448497
v -0.261223 -0.017175 0.449322
v -0.265534 -0.023403 0.445562
v -0.272349 -0.024942 0.444741
v -0.279927 -0.026230 0.443962
v -0.289891 -0.027080 0.444010
v -0.283808 -0.028151 0.448679
v -0.281399 -0.027082 0.451644
v -0.283522 -0.027255 0.451058
v -0.285084 -0.027711 0.447868
v -0.286540 -0.026431 0.447712
v -0.289619 -0.025463 0.447695
v -0.292227 -0.028976 0.451140
v -0.289894 -0.029254 0.451503
v -0.286716 -0.029013 0.451542
v -0.294279 -0.028379 0.450801
v -0.291613 -0.023128 0.450885
v -0.277982 -0.018793 0.453005
v -0.281898 -0.019875 0.452268
v -0.285877 -0.021353 0.451154
v -0.276104 -0.017772 0.453699
v -0.285195 -0.027616 0.449961
v -0.286576 -0.027487 0.449102
v -0.287520 -0.026161 0.449007
v -0.287976 -0.024658 0.449118
v -0.271715 -0.024597 0.442636
v -0.263101 -0.022991 0.443484
v -0.280115 -0.026565 0.441135
v -0.271049 -0.023991 0.439723
v -0.262137 -0.022671 0.440383
v -0.279493 -0.025930 0.438192
v -0.253376 -0.021527 0.443550
v -0.251791 -0.021876 0.439900
v -0.244071 -0.019870 0.442878
v -0.247458 -0.018610 0.446322
v -0.242270 -0.020594 0.439187
v -0.261876 -0.021809 0.437375
v -0.270327 -0.022814 0.436876
v -0.279317 -0.024489 0.435248
v -0.269965 -0.020784 0.434169
v -0.261458 -0.019813 0.434653
v -0.279880 -0.022448 0.432125
v -0.250180 -0.015572 0.448515
v -0.252561 -0.013051 0.449892
v -0.251714 -0.018925 0.434355
v -0.251729 -0.021029 0.436970
v -0.261582 -0.016372 0.432682
v -0.252035 -0.015326 0.432392
v -0.270584 -0.017369 0.432215
v -0.242377 -0.017744 0.433738
v -0.241988 -0.019722 0.436267
v -0.243034 -0.014075 0.432062
v -0.248583 -0.011497 0.449420
v -0.247794 -0.011640 0.449362
v -0.245322 -0.014101 0.447743
v -0.245895 -0.013550 0.447657
v -0.241950 -0.016831 0.445403
v -0.242070 -0.015512 0.445356
v -0.249405 -0.013393 0.448127
v -0.252079 -0.011779 0.449879
v -0.245143 -0.014761 0.446028
v -0.261816 -0.012207 0.431733
v -0.252302 -0.011066 0.431409
v -0.271362 -0.013221 0.431239
v -0.244006 -0.009951 0.431284
v -0.262609 -0.008419 0.431992
v -0.253429 -0.007504 0.431859
v -0.244966 -0.006508 0.431872
v -0.272072 -0.009279 0.431300
v -0.263550 -0.005100 0.432952
v -0.254692 -0.004293 0.432901
v -0.246038 -0.003285 0.432832
v -0.272521 -0.005718 0.432223
v -0.280543 -0.018590 0.430185
v -0.287621 -0.026994 0.436954
v -0.287411 -0.025697 0.433747
v -0.289004 -0.027532 0.440046
v -0.287800 -0.023604 0.430338
v -0.288953 -0.019577 0.428120
v -0.291005 -0.025889 0.437251
v -0.290730 -0.024893 0.434157
v -0.292285 -0.026090 0.440264
v -0.291058 -0.022852 0.431122
v -0.291837 -0.019011 0.429215
v -0.293185 -0.025568 0.443959
v -0.293243 -0.023848 0.446960
v -0.288949 -0.022409 0.448996
v -0.295150 -0.019743 0.447599
v -0.288239 -0.023224 0.450152
v -0.287678 -0.020901 0.449321
v -0.293333 -0.018643 0.448758
v -0.295783 -0.014729 0.449403
v -0.296536 -0.014887 0.448312
v -0.295327 -0.014743 0.447575
v -0.294860 -0.019239 0.446330
v -0.294110 -0.022449 0.445409
v -0.293617 -0.024158 0.443496
v -0.292555 -0.024337 0.440645
v -0.291478 -0.024016 0.438228
v -0.291359 -0.023264 0.435589
v -0.291370 -0.021363 0.432967
v -0.291706 -0.017947 0.431431
v -0.281402 -0.014188 0.429190
v -0.289651 -0.014894 0.427106
v -0.292547 -0.014804 0.428138
v -0.292538 -0.014493 0.430419
v -0.282069 -0.009963 0.429219
v -0.290376 -0.010586 0.427362
v -0.287595 -0.017567 0.449795
v -0.289859 -0.014189 0.450590
v -0.284151 -0.019758 0.449841
v -0.293562 -0.014092 0.446604
v -0.293398 -0.018264 0.444741
v -0.291947 -0.013347 0.445310
v -0.291824 -0.017203 0.443174
v -0.290000 -0.011489 0.441505
v -0.290366 -0.010435 0.438419
v -0.290150 -0.013103 0.436718
v -0.289855 -0.014705 0.439384
v -0.290691 -0.016116 0.441418
v -0.290812 -0.012543 0.443602
v -0.292256 -0.009324 0.434943
v -0.291741 -0.011866 0.433781
v -0.289889 -0.017935 0.436670
v -0.290233 -0.015559 0.434722
v -0.290489 -0.019568 0.438682
v -0.291167 -0.014051 0.433275
v -0.294445 -0.008173 0.431621
v -0.293573 -0.011351 0.430422
v -0.293392 -0.011140 0.428302
v -0.282668 -0.006322 0.430101
v -0.291392 -0.006762 0.428311
v -0.294538 -0.007421 0.429407
v -0.281870 -0.020565 0.450833
v -0.276070 -0.016120 0.454866
v -0.275841 -0.016878 0.454323
v -0.276510 -0.015222 0.455531
v -0.277215 -0.014109 0.456349
v -0.275750 -0.019807 0.451616
v -0.262444 -0.016984 0.453120
v -0.272042 -0.015824 0.454658
v -0.269669 -0.016436 0.454097
v -0.271486 -0.014952 0.455099
v -0.271370 -0.013587 0.455866
v -0.278005 -0.018930 0.450080
v -0.279311 -0.016616 0.450413
v -0.277217 -0.019854 0.450477
v -0.281009 -0.013526 0.451516
v -0.291866 -0.027139 0.450356
v -0.295879 -0.027230 0.450603
v -0.296956 -0.025595 0.450606
v -0.292636 -0.025723 0.450460
v -0.290551 -0.027938 0.450618
v -0.289281 -0.025903 0.449908
v -0.288663 -0.027238 0.449904
v -0.287245 -0.027515 0.450469
v -0.239317 -0.016613 0.434565
v -0.239405 -0.018563 0.436677
v -0.239626 -0.019181 0.439474
v -0.240070 -0.013251 0.433204
v -0.241468 -0.009514 0.432388
v -0.242065 -0.006122 0.432837
v -0.242899 -0.002874 0.433292
v -0.243520 -0.003352 0.434931
v -0.243462 -0.006269 0.435084
v -0.243376 -0.009510 0.435270
v -0.242101 -0.012806 0.435606
v -0.240974 -0.015595 0.436468
v -0.240463 -0.017186 0.438008
v -0.240013 -0.017932 0.440276
v -0.240227 -0.017099 0.442820
v -0.240455 -0.018379 0.442554
v -0.250620 -0.009420 0.450922
v -0.249894 -0.009519 0.450746
v -0.253215 -0.009772 0.451372
v -0.256315 -0.010976 0.451390
v -0.244852 -0.014373 0.438818
v -0.243673 -0.015781 0.439964
v -0.242308 -0.016433 0.441779
v -0.245856 -0.012443 0.438250
v -0.247789 -0.010084 0.438936
v -0.249030 -0.007602 0.439400
v -0.249855 -0.005299 0.439692
v -0.265672 -0.016299 0.450115
v -0.226880 -0.012532 0.446895
v -0.222606 -0.012505 0.445017
v -0.230390 -0.012647 0.449406
v -0.218611 -0.011983 0.445595
v -0.214809 -0.012063 0.443930
v -0.224580 -0.012296 0.448955
v -0.213713 -0.012874 0.445716
v -0.210091 -0.012966 0.443942
v -0.220120 -0.012997 0.448833
v -0.272105 -0.018667 0.450094
v -0.273045 -0.019794 0.450736
v -0.271638 -0.015981 0.450568
v -0.271342 -0.012604 0.451929
v -0.276071 -0.035872 0.448708
v -0.260951 -0.015486 0.454293
v -0.260486 -0.013567 0.455663
v -0.252060 -0.013176 0.455208
v -0.251742 -0.014760 0.453581
v -0.268088 -0.014766 0.454816
v -0.267832 -0.013258 0.455626
v -0.252300 -0.016096 0.452268
v -0.244409 -0.012567 0.454573
v -0.243899 -0.014268 0.452802
v -0.225804 -0.012509 0.455075
v -0.223878 -0.012566 0.457161
v -0.225902 -0.014332 0.452101
v -0.226426 -0.011226 0.455795
v -0.221733 -0.011112 0.457141
v -0.227729 -0.012410 0.453728
v -0.231087 -0.011428 0.454110
v -0.221746 -0.013692 0.464939
v -0.222097 -0.013375 0.463466
v -0.218277 -0.012438 0.462414
v -0.219385 -0.012763 0.463729
v -0.228308 -0.017607 0.447381
v -0.220571 -0.016855 0.446423
v -0.222700 -0.019416 0.448218
v -0.231587 -0.020903 0.449360
v -0.221830 -0.019676 0.449324
v -0.232085 -0.021345 0.450568
v -0.239259 -0.020978 0.449585
v -0.236195 -0.018478 0.448299
v -0.214049 -0.016317 0.445711
v -0.216549 -0.018100 0.447140
v -0.215218 -0.017918 0.447898
v -0.243927 -0.020352 0.449582
v -0.242392 -0.018605 0.448810
v -0.239004 -0.016862 0.448043
v -0.232832 -0.015549 0.446874
v -0.223909 -0.014233 0.445316
v -0.216824 -0.013929 0.444364
v -0.212073 -0.014182 0.444108
v -0.211098 -0.015452 0.445893
v -0.253436 -0.010966 0.447219
v -0.252409 -0.009674 0.443964
v -0.254387 -0.007477 0.445191
v -0.256628 -0.009077 0.449822
v -0.256684 -0.009937 0.452130
v -0.253949 -0.011690 0.449294
v -0.243096 -0.015728 0.444103
v -0.254200 -0.011984 0.449919
v -0.255610 -0.010038 0.451870
v -0.249419 -0.011871 0.441834
v -0.249650 -0.012982 0.444077
v -0.249840 -0.013600 0.446048
v -0.250626 -0.013737 0.447486
v -0.293001 -0.021623 0.442800
v -0.291422 -0.020744 0.440759
v -0.232606 -0.020389 0.451290
v -0.212949 -0.014727 0.446908
v -0.216170 -0.016797 0.448511
v -0.222439 -0.018706 0.449986
v -0.283295 -0.028080 0.451705
v -0.266791 -0.028146 0.452265
v -0.259654 -0.027446 0.450704
v -0.233033 -0.017763 0.452703
v -0.223744 -0.017030 0.450965
v -0.220035 -0.015340 0.449953
v -0.217292 -0.014015 0.448687
v -0.237056 -0.013578 0.452167
v -0.237427 -0.011905 0.453966
v -0.231119 -0.012869 0.451746
v -0.226903 -0.012805 0.451674
v -0.288610 -0.028512 0.451033
v -0.285452 -0.027658 0.451175
v -0.266092 -0.029749 0.451631
v -0.259343 -0.028564 0.450000
v -0.271945 -0.035366 0.449946
v -0.265044 -0.031360 0.451098
v -0.258587 -0.030161 0.449323
v -0.263743 -0.034098 0.450745
v -0.256361 -0.032979 0.449214
v -0.263092 -0.036779 0.450453
v -0.254895 -0.035492 0.449042
v -0.271848 -0.038115 0.449246
v -0.251296 -0.034831 0.447471
v -0.275699 -0.038588 0.448246
v -0.250536 -0.034634 0.446516
v -0.274696 -0.038464 0.447469
v -0.270935 -0.038118 0.446065
v -0.262987 -0.036786 0.444917
v -0.255222 -0.035216 0.445702
v -0.260926 -0.038454 0.444752
v -0.269007 -0.039901 0.445499
v -0.253799 -0.037027 0.445609
v -0.273066 -0.040039 0.447389
v -0.250273 -0.036699 0.446446
v -0.251071 -0.036896 0.447544
v -0.274093 -0.040303 0.448084
v -0.270337 -0.039974 0.448880
v -0.262074 -0.038693 0.450000
v -0.254484 -0.037454 0.448840
v -0.261365 -0.040157 0.449121
v -0.255262 -0.039079 0.448412
v -0.268107 -0.041206 0.448549
v -0.252131 -0.038629 0.447518
v -0.251212 -0.038484 0.446533
v -0.271211 -0.041541 0.447867
v -0.271067 -0.041433 0.447003
v -0.266989 -0.040959 0.445376
v -0.259915 -0.039749 0.444985
v -0.253816 -0.038628 0.445580
v -0.260922 -0.041341 0.448242
v -0.256306 -0.040358 0.448060
v -0.266010 -0.042069 0.448045
v -0.254804 -0.040540 0.447348
v -0.267982 -0.042912 0.447281
v -0.268247 -0.042531 0.446642
v -0.254144 -0.040433 0.446382
v -0.255154 -0.040060 0.445693
v -0.259762 -0.041176 0.445425
v -0.265059 -0.041779 0.445651
v -0.260763 -0.042209 0.447352
v -0.260600 -0.042316 0.446074
v -0.224659 -0.014540 0.466067
v -0.229271 -0.015205 0.467421
v -0.295634 -0.011627 0.450421
v -0.296513 -0.011394 0.449499
v -0.295293 -0.010974 0.448890
v -0.293352 -0.010298 0.447991
v -0.290018 -0.008028 0.442998
v -0.290440 -0.007208 0.439894
v -0.292360 -0.006200 0.436485
v -0.294781 -0.005368 0.432639
v -0.294904 -0.004560 0.430263
v -0.291724 -0.003681 0.429195
v -0.282931 -0.003382 0.430951
v -0.272589 -0.002942 0.433104
v -0.263698 -0.002293 0.433862
v -0.254952 -0.001426 0.433842
v -0.246392 -0.000614 0.433587
v -0.251372 -0.007498 0.451826
v -0.253527 -0.007738 0.452336
v -0.243202 -0.000365 0.433858
v -0.250839 -0.007401 0.451675
v -0.290173 -0.011429 0.451394
v -0.257525 -0.008269 0.452495
v -0.270990 -0.009708 0.452915
v -0.280970 -0.010732 0.452446
v -0.243906 -0.000857 0.435496
v -0.250545 -0.002933 0.440410
v -0.255443 -0.005032 0.446155
v -0.258410 -0.006906 0.451455
v -0.256052 -0.007881 0.453205
v -0.258854 -0.008011 0.454590
v -0.290724 -0.008985 0.445210
v -0.291737 -0.009675 0.446864
v -0.262065 -0.014352 0.462953
v -0.272611 -0.015012 0.462268
v -0.256859 -0.014179 0.463733
v -0.243849 -0.015601 0.469654
v -0.248641 -0.015749 0.468933
v -0.281313 -0.014096 0.458511
v -0.281721 -0.014697 0.459769
v -0.279609 -0.013352 0.457358
v -0.227789 -0.009159 0.456456
v -0.222035 -0.009294 0.457505
v -0.216838 -0.011342 0.464121
v -0.216126 -0.010894 0.462611
v -0.231816 -0.009078 0.455529
v -0.278978 -0.015356 0.461735
v -0.260360 -0.011519 0.456969
v -0.267905 -0.011739 0.456202
v -0.277566 -0.012969 0.456858
v -0.271430 -0.012191 0.456422
v -0.252205 -0.010813 0.456628
v -0.237644 -0.009419 0.455403
v -0.244441 -0.010038 0.455976
v -0.235057 -0.014694 0.469102
v -0.228654 -0.013838 0.468301
v -0.224089 -0.012999 0.467040
v -0.220423 -0.012250 0.465760
f 1 2 3
f 1 3 4
f 5 6 7
f 5 7 8
f 9 10 11
f 9 11 12
f 13 9 12
f 13 12 14
f 12 11 15
f 12 15 16
f 14 12 16
f 14 16 17
f 18 17 16
f 18 16 19
f 20 21 18
f 20 18 19
f 19 16 15
f 19 15 22
f 23 20 19
f 23 19 22
f 22 15 24
f 22 24 25
f 23 22 25
f 23 25 26
f 25 24 27
f 25 27 28
f 26 25 28
f 26 28 29
f 30 31 32
f 30 32 33
f 34 30 33
f 34 33 35
f 27 36 37
f 27 37 38
f 28 27 38
f 28 38 39
f 29 28 39
f 29 39 40
f 41 40 39
f 41 39 42
f 42 39 38
f 42 38 43
f 43 38 37
f 43 37 44
f 44 37 45
f 44 45 46
f 46 45 47
f 46 47 48
f 49 44 46
f 49 46 50
f 51 43 44
f 51 44 49
f 52 42 43
f 52 43 51
f 53 41 42
f 53 42 52
f 54 55 56
f 54 56 57
f 58 54 57
f 58 57 59
f 60 61 58
f 60 58 59
f 59 57 62
f 59 62 63
f 62 57 56
f 62 56 64
f 65 62 64
f 65 64 66
f 67 63 62
f 67 62 65
f 68 69 70
f 68 70 71
f 2 1 69
f 2 69 68
f 72 2 68
f 72 68 71
f 73 3 2
f 73 2 72
f 6 4 3
f 6 3 73
f 74 7 6
f 74 6 73
f 71 70 75
f 71 75 76
f 74 73 72
f 74 72 77
f 77 72 71
f 77 71 76
f 76 75 78
f 76 78 79
f 80 81 82
f 80 82 83
f 83 82 7
f 83 7 74
f 84 85 80
f 84 80 83
f 83 74 77
f 83 77 84
f 84 77 76
f 84 76 79
f 79 86 85
f 79 85 84
f 87 88 67
f 87 67 65
f 87 89 90
f 87 90 88
f 91 92 47
f 91 47 45
f 91 45 37
f 91 37 36
f 24 15 11
f 24 11 93
f 93 36 27
f 93 27 24
f 94 90 89
f 94 89 95
f 96 97 10
f 96 10 98
f 93 11 10
f 93 10 97
f 91 36 93
f 91 93 97
f 98 10 9
f 98 9 99
f 96 92 91
f 96 91 97
f 100 101 55
f 100 55 54
f 102 50 46
f 102 46 48
f 103 104 105
f 103 105 106
f 107 108 104
f 107 104 103
f 109 110 107
f 109 107 103
f 111 112 110
f 111 110 109
f 100 103 106
f 100 106 101
f 113 109 103
f 113 103 100
f 54 58 113
f 54 113 100
f 58 61 114
f 58 114 113
f 113 114 111
f 113 111 109
f 115 53 52
f 115 52 116
f 116 52 51
f 116 51 117
f 117 51 49
f 117 49 118
f 118 49 50
f 118 50 119
f 119 50 102
f 119 102 120
f 121 122 112
f 121 112 111
f 121 111 114
f 121 114 123
f 124 123 114
f 124 114 61
f 124 61 60
f 124 60 125
f 126 127 115
f 126 115 116
f 128 129 130
f 128 130 131
f 130 127 126
f 130 126 131
f 132 117 118
f 132 118 133
f 132 126 116
f 132 116 117
f 134 132 133
f 134 133 135
f 135 133 118
f 135 118 119
f 134 131 126
f 134 126 132
f 136 135 119
f 136 119 120
f 137 134 135
f 137 135 136
f 137 128 131
f 137 131 134
f 108 107 138
f 108 138 139
f 138 47 92
f 138 92 139
f 107 110 140
f 107 140 138
f 140 110 112
f 140 112 141
f 140 48 47
f 140 47 138
f 141 102 48
f 141 48 140
f 112 122 142
f 112 142 141
f 142 120 102
f 142 102 141
f 143 136 120
f 143 120 142
f 144 143 142
f 144 142 122
f 144 122 121
f 144 121 145
f 146 137 136
f 146 136 143
f 147 145 121
f 147 121 123
f 144 145 147
f 144 147 148
f 146 143 144
f 146 144 148
f 149 128 137
f 149 137 146
f 150 147 123
f 150 123 124
f 148 147 150
f 148 150 151
f 149 146 148
f 149 148 151
f 152 129 128
f 152 128 149
f 150 124 125
f 150 125 153
f 151 150 153
f 151 153 154
f 152 149 151
f 152 151 154
f 155 108 139
f 155 139 156
f 139 92 96
f 139 96 156
f 156 96 98
f 156 98 157
f 158 157 98
f 158 98 99
f 159 160 158
f 159 158 161
f 162 161 158
f 162 158 99
f 162 99 9
f 162 9 13
f 163 164 165
f 163 165 166
f 167 168 163
f 167 163 166
f 169 167 166
f 169 166 170
f 171 169 170
f 171 170 172
f 173 174 171
f 173 171 172
f 175 176 173
f 175 173 172
f 177 175 172
f 177 172 170
f 170 166 165
f 170 165 177
f 178 179 105
f 178 105 104
f 104 108 155
f 104 155 178
f 180 155 156
f 180 156 157
f 157 158 160
f 157 160 180
f 181 180 160
f 181 160 182
f 183 179 178
f 183 178 181
f 181 178 155
f 181 155 180
f 184 185 94
f 184 94 95
f 186 187 188
f 186 188 189
f 184 95 186
f 184 186 189
f 190 188 187
f 190 187 159
f 191 185 184
f 191 184 192
f 8 7 82
f 8 82 193
f 193 82 81
f 193 81 194
f 195 196 168
f 195 168 167
f 197 195 167
f 197 167 169
f 198 197 169
f 198 169 171
f 199 175 177
f 199 177 200
f 200 177 165
f 200 165 201
f 202 176 175
f 202 175 199
f 203 173 176
f 203 176 202
f 204 174 173
f 204 173 203
f 204 198 171
f 204 171 174
f 200 201 205
f 200 205 206
f 199 200 206
f 199 206 207
f 202 199 207
f 202 207 208
f 203 202 208
f 203 208 209
f 204 203 209
f 204 209 210
f 211 198 204
f 211 204 210
f 197 198 211
f 197 211 212
f 195 197 212
f 195 212 213
f 214 215 194
f 214 194 81
f 216 81 80
f 216 80 85
f 217 216 85
f 217 85 86
f 217 86 79
f 217 79 78
f 218 216 217
f 218 217 219
f 219 217 220
f 219 220 221
f 222 223 219
f 222 219 221
f 32 31 222
f 32 222 224
f 221 220 225
f 221 225 226
f 224 222 221
f 224 221 226
f 225 227 228
f 225 228 229
f 214 81 216
f 214 216 218
f 230 95 89
f 230 89 231
f 232 231 89
f 232 89 87
f 232 87 65
f 232 65 66
f 233 228 227
f 233 227 234
f 235 66 64
f 235 64 236
f 237 228 233
f 237 233 238
f 238 235 236
f 238 236 237
f 238 233 231
f 238 231 232
f 238 232 66
f 238 66 235
f 239 240 70
f 239 70 69
f 239 69 1
f 239 1 241
f 242 241 1
f 242 1 4
f 242 4 6
f 242 6 5
f 243 244 239
f 243 239 241
f 245 244 243
f 245 243 246
f 243 241 242
f 243 242 247
f 247 242 5
f 247 5 248
f 248 5 8
f 248 8 249
f 250 249 8
f 250 8 193
f 251 250 193
f 251 193 194
f 252 251 194
f 252 194 215
f 253 246 243
f 253 243 247
f 254 253 247
f 254 247 248
f 254 248 249
f 254 249 255
f 256 255 249
f 256 249 250
f 257 245 246
f 257 246 258
f 258 246 253
f 258 253 259
f 260 259 253
f 260 253 254
f 260 254 255
f 260 255 256
f 261 256 250
f 261 250 251
f 262 260 256
f 262 256 261
f 263 259 260
f 263 260 262
f 264 258 259
f 264 259 263
f 265 257 258
f 265 258 264
f 233 234 266
f 233 266 267
f 230 231 233
f 230 233 267
f 240 239 244
f 240 244 268
f 257 265 267
f 257 267 266
f 227 225 220
f 227 220 269
f 269 220 217
f 269 217 78
f 269 270 234
f 269 234 227
f 269 78 75
f 269 75 270
f 270 75 70
f 270 70 240
f 270 240 268
f 270 268 271
f 271 266 234
f 271 234 270
f 245 257 266
f 245 266 271
f 271 268 244
f 271 244 245
f 272 273 274
f 272 274 275
f 276 272 275
f 276 275 277
f 278 261 251
f 278 251 252
f 273 272 279
f 273 279 280
f 280 279 205
f 280 205 281
f 282 283 215
f 282 215 214
f 284 285 286
f 284 286 287
f 288 284 287
f 288 287 289
f 288 289 283
f 288 283 282
f 282 214 218
f 282 218 290
f 218 219 223
f 218 223 290
f 291 252 215
f 291 215 283
f 292 278 252
f 292 252 291
f 293 291 283
f 293 283 289
f 294 292 291
f 294 291 293
f 295 223 222
f 295 222 31
f 295 31 30
f 295 30 296
f 296 30 34
f 296 34 297
f 274 273 298
f 274 298 299
f 300 299 298
f 300 298 301
f 300 301 296
f 300 296 297
f 288 282 290
f 288 290 302
f 302 301 298
f 302 298 303
f 303 298 273
f 303 273 280
f 280 285 284
f 280 284 303
f 303 284 288
f 303 288 302
f 302 290 223
f 302 223 295
f 302 295 296
f 302 296 301
f 304 305 287
f 304 287 286
f 293 289 287
f 293 287 305
f 305 304 306
f 305 306 307
f 305 307 308
f 305 308 293
f 309 294 293
f 309 293 308
f 310 306 304
f 310 304 311
f 311 304 286
f 311 286 312
f 312 286 285
f 312 285 313
f 314 201 165
f 314 165 164
f 281 205 201
f 281 201 314
f 285 280 281
f 285 281 313
f 315 316 308
f 315 308 307
f 317 315 307
f 317 307 306
f 306 310 318
f 306 318 317
f 319 309 308
f 319 308 316
f 320 321 309
f 320 309 319
f 322 321 320
f 322 320 323
f 324 325 322
f 324 322 323
f 326 327 325
f 326 325 324
f 328 327 326
f 328 326 329
f 318 310 328
f 318 328 329
f 326 324 330
f 326 330 331
f 329 326 331
f 329 331 332
f 330 324 323
f 330 323 333
f 334 320 319
f 334 319 335
f 333 323 320
f 333 320 334
f 335 319 316
f 335 316 336
f 336 316 315
f 336 315 337
f 337 315 317
f 337 317 338
f 338 317 318
f 338 318 339
f 339 318 329
f 339 329 332
f 340 341 338
f 340 338 339
f 342 337 338
f 342 338 341
f 343 336 337
f 343 337 342
f 344 335 336
f 344 336 343
f 345 334 335
f 345 335 344
f 346 333 334
f 346 334 345
f 347 330 333
f 347 333 346
f 331 330 347
f 331 347 348
f 332 331 348
f 332 348 349
f 340 339 332
f 340 332 349
f 350 342 341
f 350 341 351
f 343 342 350
f 343 350 352
f 344 343 352
f 344 352 353
f 354 351 341
f 354 341 340
f 354 340 349
f 354 349 355
f 355 349 348
f 355 348 356
f 356 348 347
f 356 347 357
f 357 347 346
f 357 346 358
f 358 346 345
f 358 345 359
f 345 344 353
f 345 353 359
f 360 350 351
f 360 351 361
f 352 350 360
f 352 360 362
f 363 361 351
f 363 351 354
f 353 352 362
f 353 362 364
f 365 360 361
f 365 361 366
f 367 362 360
f 367 360 365
f 368 359 353
f 368 353 364
f 364 362 367
f 364 367 369
f 369 367 365
f 369 365 370
f 371 358 359
f 371 359 368
f 371 372 357
f 371 357 358
f 373 371 368
f 373 368 374
f 374 368 364
f 374 364 369
f 374 369 370
f 374 370 375
f 376 370 365
f 376 365 366
f 376 366 361
f 376 361 363
f 377 363 354
f 377 354 355
f 378 375 370
f 378 370 376
f 373 374 375
f 373 375 379
f 379 372 371
f 379 371 373
f 380 356 357
f 380 357 372
f 380 377 355
f 380 355 356
f 381 379 375
f 381 375 378
f 378 376 363
f 378 363 377
f 378 377 380
f 378 380 381
f 380 372 379
f 380 379 381
f 382 183 181
f 382 181 182
f 182 160 159
f 182 159 187
f 262 261 278
f 262 278 383
f 384 182 187
f 384 187 186
f 385 382 182
f 385 182 384
f 386 387 385
f 386 385 384
f 384 186 95
f 384 95 230
f 384 230 267
f 384 267 386
f 267 265 387
f 267 387 386
f 387 265 264
f 387 264 388
f 263 262 383
f 263 383 389
f 388 264 263
f 388 263 389
f 390 385 387
f 390 387 388
f 383 278 292
f 383 292 391
f 389 383 391
f 389 391 392
f 390 388 389
f 390 389 392
f 393 382 385
f 393 385 390
f 394 294 309
f 394 309 321
f 394 391 292
f 394 292 294
f 392 391 394
f 392 394 395
f 393 390 392
f 393 392 395
f 396 183 382
f 396 382 393
f 394 321 322
f 394 322 397
f 395 394 397
f 395 397 398
f 396 393 395
f 396 395 398
f 179 183 396
f 179 396 399
f 400 397 322
f 400 322 325
f 398 397 400
f 398 400 401
f 399 396 398
f 399 398 401
f 105 179 399
f 105 399 402
f 403 400 325
f 403 325 327
f 401 400 403
f 401 403 404
f 402 399 401
f 402 401 404
f 106 105 402
f 106 402 405
f 403 327 328
f 403 328 406
f 406 328 310
f 406 310 311
f 404 403 406
f 404 406 407
f 405 402 404
f 405 404 407
f 408 406 311
f 408 311 312
f 101 106 405
f 101 405 409
f 407 406 408
f 407 408 410
f 409 405 407
f 409 407 410
f 411 408 312
f 411 312 313
f 411 313 281
f 411 281 314
f 236 64 56
f 236 56 412
f 226 225 229
f 226 229 413
f 414 224 226
f 414 226 413
f 414 413 415
f 414 415 416
f 32 224 414
f 32 414 417
f 417 414 416
f 417 416 418
f 33 32 417
f 33 417 419
f 420 416 415
f 420 415 421
f 422 419 417
f 422 417 418
f 422 418 416
f 422 416 420
f 35 33 419
f 35 419 423
f 424 420 421
f 424 421 425
f 426 423 419
f 426 419 422
f 426 422 420
f 426 420 424
f 427 425 421
f 427 421 428
f 429 427 428
f 429 428 430
f 429 430 431
f 429 431 432
f 433 229 228
f 433 228 237
f 412 56 55
f 412 55 434
f 435 436 431
f 435 431 430
f 196 195 213
f 196 213 437
f 437 213 436
f 437 436 435
f 438 314 164
f 438 164 163
f 439 411 314
f 439 314 438
f 438 163 168
f 438 168 196
f 438 196 437
f 438 437 440
f 439 410 408
f 439 408 411
f 55 101 409
f 55 409 434
f 434 409 410
f 434 410 439
f 439 438 440
f 439 440 441
f 440 437 435
f 440 435 441
f 442 435 430
f 442 430 428
f 428 421 415
f 428 415 442
f 415 413 229
f 415 229 433
f 433 412 434
f 433 434 443
f 237 236 412
f 237 412 433
f 443 442 415
f 443 415 433
f 443 434 439
f 443 439 441
f 443 441 435
f 443 435 442
f 436 213 212
f 436 212 444
f 445 446 447
f 445 447 448
f 449 450 451
f 449 451 452
f 453 451 450
f 453 450 454
f 455 456 457
f 455 457 458
f 459 460 461
f 459 461 462
f 461 457 456
f 461 456 447
f 463 464 459
f 463 459 462
f 465 466 467
f 465 467 468
f 455 458 469
f 455 469 470
f 471 470 469
f 471 469 472
f 473 474 475
f 473 475 476
f 471 472 475
f 471 475 474
f 473 476 453
f 473 453 454
f 477 449 452
f 477 452 478
f 464 463 479
f 464 479 480
f 481 480 479
f 481 479 478
f 481 478 452
f 481 452 482
f 483 274 299
f 483 299 484
f 485 486 483
f 485 483 484
f 277 275 274
f 277 274 483
f 487 488 277
f 487 277 483
f 486 467 487
f 486 487 483
f 486 485 449
f 486 449 477
f 477 468 467
f 477 467 486
f 489 480 481
f 489 481 490
f 481 482 491
f 481 491 490
f 464 480 489
f 464 489 492
f 493 459 464
f 493 464 492
f 494 460 459
f 494 459 493
f 495 487 467
f 495 467 466
f 445 466 465
f 445 465 446
f 444 212 211
f 444 211 496
f 497 431 436
f 497 436 444
f 210 209 498
f 210 498 499
f 496 211 210
f 496 210 499
f 498 209 208
f 498 208 500
f 432 431 497
f 432 497 501
f 502 497 444
f 502 444 496
f 503 501 497
f 503 497 502
f 500 208 207
f 500 207 504
f 488 487 495
f 488 495 505
f 505 495 506
f 505 506 507
f 276 277 488
f 276 488 505
f 507 508 276
f 507 276 505
f 206 205 279
f 206 279 508
f 508 279 272
f 508 272 276
f 504 207 206
f 504 206 508
f 507 500 504
f 507 504 508
f 506 495 466
f 506 466 445
f 445 448 509
f 445 509 506
f 506 509 501
f 506 501 503
f 506 503 502
f 506 502 507
f 507 502 496
f 507 496 499
f 507 499 498
f 507 498 500
f 189 188 190
f 189 190 510
f 511 190 159
f 511 159 161
f 512 511 161
f 512 161 162
f 512 162 13
f 512 13 513
f 514 513 13
f 514 13 14
f 192 184 189
f 192 189 510
f 510 190 511
f 510 511 515
f 516 517 191
f 516 191 192
f 516 192 510
f 516 510 515
f 515 511 512
f 515 512 518
f 519 520 517
f 519 517 516
f 519 516 515
f 519 515 518
f 521 518 512
f 521 512 513
f 522 523 520
f 522 520 519
f 522 519 518
f 522 518 521
f 524 18 21
f 524 21 525
f 526 514 14
f 526 14 17
f 526 17 18
f 526 18 524
f 527 521 513
f 527 513 514
f 527 514 526
f 527 526 528
f 529 530 523
f 529 523 522
f 531 532 530
f 531 530 529
f 529 522 521
f 529 521 527
f 529 527 528
f 529 528 531
f 528 526 524
f 528 524 531
f 531 524 525
f 531 525 532
f 533 534 535
f 533 535 536
f 536 535 537
f 536 537 538
f 539 540 541
f 539 541 542
f 542 543 544
f 542 544 539
f 538 537 543
f 538 543 542
f 541 540 545
f 541 545 546
f 547 548 544
f 547 544 543
f 537 549 547
f 537 547 543
f 535 534 550
f 535 550 551
f 535 551 549
f 535 549 537
f 552 553 540
f 552 540 539
f 539 544 554
f 539 554 552
f 540 553 555
f 540 555 556
f 540 556 557
f 540 557 545
f 544 548 558
f 544 558 554
f 554 559 553
f 554 553 552
f 559 560 555
f 559 555 553
f 560 561 556
f 560 556 555
f 545 473 454
f 545 454 546
f 468 477 478
f 468 478 479
f 476 562 563
f 476 563 453
f 465 468 479
f 465 479 463
f 562 564 565
f 562 565 563
f 561 566 557
f 561 557 556
f 566 471 474
f 566 474 557
f 557 474 473
f 557 473 545
f 446 462 461
f 446 461 447
f 465 463 462
f 465 462 446
f 475 472 567
f 475 567 568
f 475 568 562
f 475 562 476
f 569 570 571
f 569 571 572
f 572 571 573
f 572 573 574
f 572 575 576
f 572 576 569
f 577 578 575
f 577 575 572
f 574 579 577
f 574 577 572
f 570 580 581
f 570 581 571
f 571 581 582
f 571 582 573
f 548 547 583
f 548 583 584
f 584 583 585
f 584 585 586
f 584 587 588
f 584 588 548
f 586 589 587
f 586 587 584
f 580 590 591
f 580 591 581
f 581 591 592
f 581 592 593
f 581 593 594
f 581 594 582
f 591 590 595
f 591 595 596
f 591 596 597
f 591 597 592
f 575 598 599
f 575 599 576
f 578 600 598
f 578 598 575
f 598 601 602
f 598 602 599
f 600 603 601
f 600 601 598
f 601 604 605
f 601 605 602
f 603 606 604
f 603 604 601
f 604 607 608
f 604 608 605
f 606 609 607
f 606 607 604
f 607 610 611
f 607 611 608
f 609 612 610
f 609 610 607
f 613 614 611
f 613 611 610
f 612 615 613
f 612 613 610
f 602 605 608
f 602 608 616
f 616 617 599
f 616 599 602
f 608 611 614
f 608 614 616
f 617 618 576
f 617 576 599
f 618 570 569
f 618 569 576
f 618 590 580
f 618 580 570
f 614 613 596
f 614 596 595
f 614 595 617
f 614 617 616
f 615 597 596
f 615 596 613
f 595 590 618
f 595 618 617
f 619 620 593
f 619 593 592
f 592 597 621
f 592 621 619
f 620 622 594
f 620 594 593
f 597 615 623
f 597 623 621
f 615 612 624
f 615 624 623
f 612 609 625
f 612 625 624
f 626 625 609
f 626 609 606
f 606 603 627
f 606 627 626
f 603 600 628
f 603 628 627
f 578 577 629
f 578 629 630
f 630 631 600
f 630 600 578
f 579 632 629
f 579 629 577
f 534 533 633
f 534 633 634
f 634 635 550
f 634 550 534
f 582 594 636
f 582 636 637
f 637 636 638
f 637 638 639
f 640 573 582
f 640 582 637
f 639 549 640
f 639 640 637
f 636 594 622
f 636 622 641
f 636 641 642
f 636 642 638
f 583 547 549
f 583 549 639
f 639 638 585
f 639 585 583
f 643 644 588
f 643 588 587
f 587 589 645
f 587 645 643
f 588 644 646
f 588 646 647
f 588 647 558
f 588 558 548
f 549 551 648
f 549 648 640
f 640 648 574
f 640 574 573
f 551 550 649
f 551 649 648
f 648 649 579
f 648 579 574
f 649 550 635
f 649 635 650
f 649 650 632
f 649 632 579
f 651 652 653
f 651 653 654
f 655 642 652
f 655 652 651
f 651 654 656
f 651 656 657
f 651 657 658
f 651 658 655
f 659 660 653
f 659 653 652
f 642 641 659
f 642 659 652
f 661 662 663
f 661 663 664
f 656 654 662
f 656 662 661
f 661 664 665
f 661 665 666
f 666 667 656
f 666 656 661
f 662 668 669
f 662 669 663
f 654 653 668
f 654 668 662
f 670 671 669
f 670 669 668
f 668 653 672
f 668 672 670
f 673 674 663
f 673 663 669
f 671 675 673
f 671 673 669
f 674 676 664
f 674 664 663
f 664 676 677
f 664 677 665
f 678 679 674
f 678 674 673
f 675 680 678
f 675 678 673
f 679 681 676
f 679 676 674
f 676 681 682
f 676 682 677
f 681 679 683
f 681 683 684
f 681 684 685
f 681 685 682
f 679 678 686
f 679 686 683
f 678 645 589
f 678 589 686
f 680 687 645
f 680 645 678
f 687 688 643
f 687 643 645
f 689 690 691
f 689 691 692
f 687 680 690
f 687 690 689
f 692 693 694
f 692 694 689
f 689 694 688
f 689 688 687
f 690 695 696
f 690 696 691
f 680 675 695
f 680 695 690
f 695 697 698
f 695 698 696
f 675 671 697
f 675 697 695
f 697 699 700
f 697 700 698
f 671 670 699
f 671 699 697
f 701 702 700
f 701 700 699
f 670 672 701
f 670 701 699
f 694 693 703
f 694 703 704
f 694 704 705
f 694 705 706
f 706 707 688
f 706 688 694
f 708 709 710
f 708 710 711
f 712 713 709
f 712 709 708
f 708 711 714
f 708 714 715
f 715 707 712
f 715 712 708
f 692 691 716
f 692 716 717
f 692 717 718
f 692 718 693
f 691 696 719
f 691 719 716
f 696 698 720
f 696 720 719
f 698 700 721
f 698 721 720
f 700 702 722
f 700 722 721
f 653 660 723
f 653 723 672
f 724 725 660
f 724 660 659
f 659 641 622
f 659 622 724
f 726 727 702
f 726 702 701
f 672 723 726
f 672 726 701
f 702 727 728
f 702 728 722
f 621 623 729
f 621 729 730
f 730 731 619
f 730 619 621
f 623 624 732
f 623 732 729
f 600 631 733
f 600 733 628
f 630 629 734
f 630 734 735
f 630 735 736
f 630 736 631
f 632 737 734
f 632 734 629
f 660 725 738
f 660 738 723
f 739 740 727
f 739 727 726
f 723 738 739
f 723 739 726
f 740 741 728
f 740 728 727
f 720 742 743
f 720 743 719
f 721 744 742
f 721 742 720
f 745 746 743
f 745 743 742
f 744 747 745
f 744 745 742
f 719 743 748
f 719 748 716
f 746 749 748
f 746 748 743
f 750 751 716
f 750 716 748
f 748 749 752
f 748 752 750
f 753 746 745
f 753 745 754
f 754 745 747
f 754 747 755
f 756 757 753
f 756 753 754
f 755 758 756
f 755 756 754
f 751 759 717
f 751 717 716
f 717 759 760
f 717 760 718
f 753 757 761
f 753 761 762
f 753 762 749
f 753 749 746
f 763 764 761
f 763 761 757
f 756 765 763
f 756 763 757
f 766 767 762
f 766 762 761
f 761 764 768
f 761 768 766
f 767 752 749
f 767 749 762
f 769 770 771
f 769 771 772
f 772 771 773
f 772 773 774
f 775 776 769
f 775 769 772
f 772 774 777
f 772 777 775
f 759 771 770
f 759 770 760
f 751 773 771
f 751 771 759
f 778 779 764
f 778 764 763
f 765 780 778
f 765 778 763
f 764 779 781
f 764 781 768
f 779 778 782
f 779 782 783
f 779 783 784
f 779 784 781
f 780 785 782
f 780 782 778
f 783 782 786
f 783 786 787
f 783 787 788
f 783 788 784
f 782 785 789
f 782 789 786
f 756 758 790
f 756 790 765
f 791 792 755
f 791 755 747
f 744 793 791
f 744 791 747
f 792 794 758
f 792 758 755
f 758 794 795
f 758 795 790
f 796 797 792
f 796 792 791
f 791 793 798
f 791 798 796
f 797 799 794
f 797 794 792
f 794 799 800
f 794 800 795
f 793 722 801
f 793 801 798
f 744 721 722
f 744 722 793
f 722 728 802
f 722 802 801
f 728 803 804
f 728 804 802
f 741 805 803
f 741 803 728
f 806 807 804
f 806 804 803
f 805 736 806
f 805 806 803
f 804 807 808
f 804 808 809
f 804 809 810
f 804 810 811
f 811 812 802
f 811 802 804
f 813 814 798
f 813 798 801
f 801 802 812
f 801 812 813
f 814 815 796
f 814 796 798
f 815 816 797
f 815 797 796
f 816 817 799
f 816 799 797
f 817 818 800
f 817 800 799
f 765 790 819
f 765 819 780
f 790 795 820
f 790 820 819
f 795 800 821
f 795 821 820
f 800 818 822
f 800 822 821
f 823 785 780
f 823 780 819
f 819 820 824
f 819 824 823
f 825 826 808
f 825 808 807
f 807 806 827
f 807 827 825
f 810 828 829
f 810 829 811
f 830 831 829
f 830 829 828
f 832 833 834
f 832 834 835
f 835 836 837
f 835 837 832
f 833 838 839
f 833 839 834
f 840 841 818
f 840 818 817
f 817 816 842
f 817 842 840
f 841 843 822
f 841 822 818
f 838 844 845
f 838 845 839
f 845 846 821
f 845 821 822
f 843 839 845
f 843 845 822
f 820 821 846
f 820 846 824
f 785 823 847
f 785 847 789
f 823 824 848
f 823 848 847
f 824 846 849
f 824 849 848
f 846 845 844
f 846 844 849
f 806 736 850
f 806 850 827
f 650 635 851
f 650 851 852
f 650 852 737
f 650 737 632
f 635 634 853
f 635 853 851
f 634 633 854
f 634 854 853
f 736 735 855
f 736 855 850
f 805 733 631
f 805 631 736
f 735 734 705
f 735 705 855
f 737 856 705
f 737 705 734
f 852 851 857
f 852 857 858
f 858 856 737
f 858 737 852
f 851 853 859
f 851 859 857
f 853 854 860
f 853 860 859
f 861 862 825
f 861 825 827
f 850 863 861
f 850 861 827
f 862 864 826
f 862 826 825
f 865 866 867
f 865 867 868
f 869 732 866
f 869 866 865
f 865 868 870
f 865 870 871
f 871 872 869
f 871 869 865
f 625 626 867
f 625 867 866
f 625 866 732
f 625 732 624
f 626 627 628
f 626 628 867
f 868 867 628
f 868 628 733
f 805 870 868
f 805 868 733
f 767 766 873
f 767 873 874
f 767 874 875
f 767 875 752
f 766 768 876
f 766 876 873
f 768 781 877
f 768 877 876
f 781 784 878
f 781 878 877
f 784 788 879
f 784 879 878
f 880 881 878
f 880 878 879
f 881 882 877
f 881 877 878
f 882 883 876
f 882 876 877
f 883 884 873
f 883 873 876
f 884 885 874
f 884 874 873
f 885 886 875
f 885 875 874
f 875 886 887
f 875 887 888
f 875 888 750
f 875 750 752
f 889 890 770
f 889 770 769
f 776 891 889
f 776 889 769
f 770 890 892
f 770 892 760
f 885 884 893
f 885 893 894
f 894 895 886
f 894 886 885
f 884 883 896
f 884 896 893
f 883 882 897
f 883 897 896
f 882 881 898
f 882 898 897
f 881 880 899
f 881 899 898
f 693 718 900
f 693 900 703
f 709 901 902
f 709 902 710
f 713 903 901
f 713 901 709
f 901 904 905
f 901 905 902
f 903 906 904
f 903 904 901
f 907 908 905
f 907 905 904
f 906 909 907
f 906 907 904
f 892 900 718
f 892 718 760
f 704 703 910
f 704 910 911
f 704 911 855
f 704 855 705
f 703 900 912
f 703 912 910
f 900 892 913
f 900 913 912
f 855 911 863
f 855 863 850
f 861 863 911
f 861 911 910
f 910 912 862
f 910 862 861
f 913 864 862
f 913 862 912
f 667 914 657
f 667 657 656
f 915 916 917
f 915 917 918
f 919 920 916
f 919 916 915
f 915 918 921
f 915 921 856
f 915 856 858
f 915 858 919
f 918 917 922
f 918 922 923
f 923 712 921
f 923 921 918
f 924 925 566
f 924 566 561
f 561 560 926
f 561 926 924
f 925 470 471
f 925 471 566
f 927 928 925
f 927 925 924
f 924 929 930
f 924 930 927
f 928 455 470
f 928 470 925
f 931 932 933
f 931 933 934
f 932 469 458
f 932 458 933
f 935 936 937
f 935 937 938
f 938 937 939
f 938 939 940
f 938 941 942
f 938 942 935
f 940 646 941
f 940 941 938
f 936 943 944
f 936 944 937
f 937 944 945
f 937 945 939
f 941 946 947
f 941 947 942
f 646 644 946
f 646 946 941
f 644 714 947
f 644 947 946
f 947 948 949
f 947 949 942
f 714 711 948
f 714 948 947
f 711 710 949
f 711 949 948
f 949 950 935
f 949 935 942
f 710 902 950
f 710 950 949
f 950 951 936
f 950 936 935
f 902 905 951
f 902 951 950
f 951 952 943
f 951 943 936
f 905 908 952
f 905 952 951
f 908 953 943
f 908 943 952
f 953 945 944
f 953 944 943
f 954 955 956
f 954 956 957
f 958 959 954
f 958 954 957
f 955 898 899
f 955 899 956
f 895 960 887
f 895 887 886
f 891 776 961
f 891 961 962
f 887 774 773
f 887 773 888
f 960 777 774
f 960 774 887
f 751 750 888
f 751 888 773
f 955 963 897
f 955 897 898
f 963 893 896
f 963 896 897
f 963 964 894
f 963 894 893
f 964 965 895
f 964 895 894
f 965 966 960
f 965 960 895
f 966 775 777
f 966 777 960
f 966 961 776
f 966 776 775
f 955 954 964
f 955 964 963
f 959 965 964
f 959 964 954
f 965 959 961
f 965 961 966
f 959 958 962
f 959 962 961
f 812 967 814
f 812 814 813
f 967 968 815
f 967 815 814
f 968 842 816
f 968 816 815
f 646 940 969
f 646 969 647
f 643 688 714
f 643 714 644
f 714 688 707
f 714 707 715
f 907 970 953
f 907 953 908
f 970 971 945
f 970 945 953
f 971 972 939
f 971 939 945
f 972 969 940
f 972 940 939
f 811 829 967
f 811 967 812
f 831 968 967
f 831 967 829
f 836 831 830
f 836 830 837
f 731 973 620
f 731 620 619
f 973 724 622
f 973 622 620
f 974 975 586
f 974 586 585
f 638 642 974
f 638 974 585
f 975 686 589
f 975 589 586
f 647 969 976
f 647 976 558
f 705 856 921
f 705 921 706
f 969 972 977
f 969 977 976
f 972 971 978
f 972 978 977
f 971 970 979
f 971 979 978
f 970 907 909
f 970 909 979
f 980 981 930
f 980 930 982
f 982 930 929
f 982 929 983
f 983 906 903
f 983 903 982
f 982 903 713
f 982 713 980
f 560 559 976
f 560 976 926
f 558 976 559
f 558 559 554
f 976 977 978
f 976 978 926
f 978 979 909
f 978 909 926
f 909 906 983
f 909 983 926
f 713 712 923
f 713 923 980
f 707 706 921
f 707 921 712
f 741 740 870
f 741 870 805
f 869 984 729
f 869 729 732
f 984 731 730
f 984 730 729
f 984 985 973
f 984 973 731
f 985 725 724
f 985 724 973
f 872 985 984
f 872 984 869
f 740 739 871
f 740 871 870
f 739 738 872
f 739 872 871
f 738 725 985
f 738 985 872
f 986 987 975
f 986 975 974
f 974 642 655
f 974 655 986
f 987 683 686
f 987 686 975
f 914 988 658
f 914 658 657
f 989 990 987
f 989 987 986
f 991 992 990
f 991 990 989
f 986 655 658
f 986 658 989
f 989 658 988
f 989 988 991
f 990 684 683
f 990 683 987
f 992 685 684
f 992 684 990
f 993 994 992
f 993 992 991
f 991 988 995
f 991 995 993
f 994 996 685
f 994 685 992
f 988 914 997
f 988 997 995
f 996 998 682
f 996 682 685
f 914 667 999
f 914 999 997
f 667 666 1000
f 667 1000 999
f 666 665 1001
f 666 1001 1000
f 665 677 1002
f 665 1002 1001
f 677 682 998
f 677 998 1002
f 1003 1004 1000
f 1003 1000 1001
f 1001 1002 1005
f 1001 1005 1003
f 1004 1006 999
f 1004 999 1000
f 1002 998 1007
f 1002 1007 1005
f 998 996 1008
f 998 1008 1007
f 1006 1009 997
f 1006 997 999
f 1009 1010 995
f 1009 995 997
f 993 995 1010
f 993 1010 1011
f 1011 1012 994
f 1011 994 993
f 1012 1008 996
f 1012 996 994
f 1013 1014 1012
f 1013 1012 1011
f 1011 1010 1015
f 1011 1015 1013
f 1014 1016 1008
f 1014 1008 1012
f 1016 1017 1007
f 1016 1007 1008
f 1010 1009 1018
f 1010 1018 1015
f 1009 1006 1019
f 1009 1019 1018
f 1006 1004 1020
f 1006 1020 1019
f 1004 1003 1021
f 1004 1021 1020
f 1003 1005 1022
f 1003 1022 1021
f 1005 1007 1017
f 1005 1017 1022
f 1023 1024 1014
f 1023 1014 1013
f 1013 1015 1025
f 1013 1025 1023
f 1024 1026 1016
f 1024 1016 1014
f 1015 1018 1027
f 1015 1027 1025
f 1018 1019 1028
f 1018 1028 1027
f 1026 1029 1017
f 1026 1017 1016
f 1029 1030 1022
f 1029 1022 1017
f 1030 1031 1021
f 1030 1021 1022
f 1031 1032 1020
f 1031 1020 1021
f 1032 1028 1019
f 1032 1019 1020
f 1033 1026 1024
f 1033 1024 1023
f 1023 1025 1027
f 1023 1027 1033
f 1028 1034 1033
f 1028 1033 1027
f 1034 1029 1026
f 1034 1026 1033
f 1028 1032 1031
f 1028 1031 1034
f 1034 1031 1030
f 1034 1030 1029
f 857 859 919
f 857 919 858
f 859 860 920
f 859 920 919
f 923 922 981
f 923 981 980
f 469 932 567
f 469 567 472
f 1035 1036 568
f 1035 568 567
f 932 931 1035
f 932 1035 567
f 568 1036 564
f 568 564 562
f 924 926 983
f 924 983 929
f 831 836 842
f 831 842 968
f 836 835 840
f 836 840 842
f 835 834 841
f 835 841 840
f 841 834 839
f 841 839 843
f 1037 90 94
f 1037 94 1038
f 1039 810 809
f 1039 809 1038
f 1038 94 185
f 1038 185 1039
f 1040 828 810
f 1040 810 1039
f 833 832 1041
f 833 1041 1042
f 1042 530 532
f 1042 532 1043
f 838 833 1042
f 838 1042 1043
f 1043 532 525
f 1043 525 1044
f 844 838 1043
f 844 1043 1044
f 1044 525 21
f 1044 21 1045
f 1045 849 844
f 1045 844 1044
f 1045 21 20
f 1045 20 1046
f 1046 848 849
f 1046 849 1045
f 1046 20 23
f 1046 23 1047
f 847 848 1046
f 847 1046 1047
f 1047 23 26
f 1047 26 1048
f 789 847 1047
f 789 1047 1048
f 1048 26 29
f 1048 29 1049
f 786 789 1048
f 786 1048 1049
f 1038 809 808
f 1038 808 1037
f 1049 29 40
f 1049 40 1050
f 787 786 1049
f 787 1049 1050
f 1050 40 41
f 1050 41 1051
f 788 787 1050
f 788 1050 1051
f 1052 889 891
f 1052 891 1053
f 1051 41 53
f 1051 53 1054
f 879 788 1051
f 879 1051 1054
f 1052 125 60
f 1052 60 1055
f 1055 890 889
f 1055 889 1052
f 1056 88 90
f 1056 90 1037
f 1056 1037 808
f 1056 808 826
f 1055 60 59
f 1055 59 1057
f 892 890 1055
f 892 1055 1057
f 1058 63 67
f 1058 67 1059
f 1059 67 88
f 1059 88 1056
f 1059 1056 826
f 1059 826 864
f 1059 864 913
f 1059 913 1058
f 1057 59 63
f 1057 63 1058
f 913 892 1057
f 913 1057 1058
f 1054 53 115
f 1054 115 1060
f 880 879 1054
f 880 1054 1060
f 1061 127 130
f 1061 130 1062
f 1062 956 899
f 1062 899 1061
f 1060 115 127
f 1060 127 1061
f 899 880 1060
f 899 1060 1061
f 1062 130 129
f 1062 129 1063
f 1063 957 956
f 1063 956 1062
f 1053 153 125
f 1053 125 1052
f 1053 891 962
f 1053 962 1064
f 1063 129 152
f 1063 152 1065
f 1065 152 154
f 1065 154 1064
f 958 957 1063
f 958 1063 1065
f 1064 962 958
f 1064 958 1065
f 1064 154 153
f 1064 153 1053
f 1041 523 530
f 1041 530 1042
f 1041 832 837
f 1041 837 1066
f 1039 185 191
f 1039 191 1040
f 1067 830 828
f 1067 828 1040
f 1066 520 523
f 1066 523 1041
f 1067 517 520
f 1067 520 1066
f 1066 837 830
f 1066 830 1067
f 1040 191 517
f 1040 517 1067
f 1068 484 299
f 1068 299 1069
f 1068 541 546
f 1068 546 1070
f 1070 485 484
f 1070 484 1068
f 1070 546 454
f 1070 454 450
f 1071 1072 563
f 1071 563 565
f 1072 451 453
f 1072 453 563
f 1073 533 536
f 1073 536 1074
f 1073 34 35
f 1073 35 1075
f 633 533 1073
f 633 1073 1075
f 928 927 1076
f 928 1076 1077
f 1077 448 447
f 1077 447 456
f 455 928 1077
f 455 1077 456
f 1078 934 933
f 1078 933 1079
f 457 461 460
f 457 460 1079
f 1079 933 458
f 1079 458 457
f 450 449 485
f 450 485 1070
f 1072 482 452
f 1072 452 451
f 1076 509 448
f 1076 448 1077
f 1076 927 930
f 1076 930 1080
f 1074 297 34
f 1074 34 1073
f 1074 536 538
f 1074 538 1081
f 1069 299 300
f 1069 300 1081
f 1069 542 541
f 1069 541 1068
f 1081 538 542
f 1081 542 1069
f 1081 300 297
f 1081 297 1074
f 1082 916 920
f 1082 920 1083
f 1075 35 423
f 1075 423 1084
f 854 633 1075
f 854 1075 1084
f 1083 424 425
f 1083 425 1082
f 1085 426 424
f 1085 424 1083
f 1083 920 860
f 1083 860 1085
f 1084 423 426
f 1084 426 1085
f 860 854 1084
f 860 1084 1085
f 1082 425 427
f 1082 427 1086
f 917 916 1082
f 917 1082 1086
f 1080 501 509
f 1080 509 1076
f 1080 930 981
f 1080 981 1087
f 1086 427 429
f 1086 429 1088
f 1088 429 432
f 1088 432 1087
f 922 917 1086
f 922 1086 1088
f 1087 981 922
f 1087 922 1088
f 1087 432 501
f 1087 501 1080
f 1071 491 482
f 1071 482 1072
f 1089 490 491
f 1089 491 1071
f 1071 565 564
f 1071 564 1089
f 1090 489 490
f 1090 490 1089
f 1089 564 1036
f 1089 1036 1090
f 1091 492 489
f 1091 489 1090
f 1090 1036 1035
f 1090 1035 1091
f 1079 460 494
f 1079 494 1078
f 1078 494 493
f 1078 493 1092
f 1092 931 934
f 1092 934 1078
f 1092 493 492
f 1092 492 1091
f 1091 1035 931
f 1091 931 1092
