# Lateral_Cuneiform_R posed
v 0.866866 0.217758 0.296839
v 0.859858 0.219002 0.302154
v 0.853501 0.222109 0.307443
v 0.850365 0.226159 0.312276
v 0.850151 0.228388 0.313263
v 0.854981 0.230538 0.305330
v 0.859905 0.232871 0.301490
v 0.862912 0.238743 0.302485
v 0.866905 0.238831 0.300453
v 0.867544 0.233270 0.298345
v 0.867997 0.225210 0.295984
v 0.860609 0.225005 0.300428
v 0.853827 0.226560 0.305775
v 0.851514 0.230394 0.311785
v 0.860780 0.235248 0.306915
v 0.864582 0.237981 0.305778
v 0.869385 0.238506 0.302934
v 0.857483 0.232967 0.308946
v 0.854714 0.231474 0.314272
v 0.871431 0.219328 0.301812
v 0.864886 0.220303 0.307054
v 0.860029 0.222109 0.310987
v 0.856539 0.225094 0.315211
v 0.853784 0.228641 0.317332
v 0.871870 0.224993 0.299964
v 0.872099 0.232136 0.300785
v 0.869322 0.222810 0.310081
v 0.874686 0.222727 0.304758
v 0.875141 0.225853 0.303427
v 0.874627 0.231681 0.303947
v 0.870765 0.234137 0.307399
v 0.866967 0.233730 0.309467
v 0.860670 0.232753 0.311936
v 0.859084 0.231184 0.315047
v 0.858478 0.227858 0.317619
v 0.860556 0.224306 0.316464
v 0.864990 0.223508 0.313380
v 0.862249 0.232893 0.316615
v 0.863002 0.233834 0.311566
v 0.862257 0.227861 0.318424
v 0.863002 0.224281 0.319208
v 0.867521 0.224498 0.315113
v 0.871937 0.224535 0.312189
v 0.875992 0.223945 0.308181
v 0.877702 0.226508 0.306089
v 0.876256 0.231365 0.307352
v 0.872555 0.233369 0.310683
v 0.868513 0.233878 0.313267
v 0.865587 0.232547 0.318381
v 0.865780 0.228234 0.319052
v 0.873648 0.227535 0.314101
v 0.868682 0.232620 0.317365
v 0.856850 0.228877 0.302766
v 0.864163 0.236100 0.300253
v 0.863790 0.229176 0.298616
v 0.863498 0.221766 0.298369
v 0.856580 0.223155 0.303460
v 0.851420 0.225758 0.309363
v 0.852111 0.229255 0.308751
v 0.865847 0.217563 0.302486
v 0.870828 0.221639 0.298082
v 0.870584 0.229061 0.298309
v 0.869493 0.236080 0.299665
v 0.865811 0.239485 0.303288
v 0.854377 0.231967 0.310029
v 0.852139 0.230700 0.314319
v 0.852526 0.226110 0.315017
v 0.854942 0.223376 0.311949
v 0.859712 0.219670 0.307468
v 0.856527 0.230299 0.316655
v 0.857184 0.226164 0.317054
v 0.860542 0.223891 0.313964
v 0.864811 0.221971 0.310462
v 0.870339 0.220786 0.306279
v 0.873344 0.223176 0.302432
v 0.873423 0.228678 0.302071
v 0.872407 0.234941 0.304091
v 0.857980 0.233308 0.305645
v 0.861072 0.237146 0.304577
v 0.863820 0.235225 0.308448
v 0.860604 0.233409 0.309730
v 0.867912 0.236070 0.306373
v 0.857999 0.231972 0.312519
v 0.861275 0.232617 0.313788
v 0.860895 0.226120 0.318249
v 0.860629 0.229778 0.316660
v 0.864025 0.224127 0.316042
v 0.864541 0.226459 0.319501
v 0.868436 0.223896 0.312680
v 0.873074 0.223421 0.308846
v 0.876513 0.224324 0.305167
v 0.876199 0.228995 0.305065
v 0.873847 0.233220 0.307374
v 0.875202 0.224919 0.310650
v 0.869702 0.233834 0.310209
v 0.865276 0.233238 0.312766
v 0.863760 0.230271 0.319188
v 0.868878 0.229943 0.318057
v 0.869838 0.226149 0.315219
v 0.876279 0.230466 0.310044
v 0.871467 0.232842 0.314152
v 0.866292 0.233395 0.316474
v 0.863183 0.218054 0.299315
v 0.856449 0.220255 0.304607
v 0.851598 0.224020 0.309715
v 0.850089 0.227302 0.312732
v 0.850696 0.229461 0.312473
v 0.857443 0.231698 0.303409
v 0.861231 0.235965 0.301783
v 0.864837 0.238888 0.301418
v 0.867237 0.236072 0.299310
v 0.867785 0.229288 0.297098
v 0.867337 0.221451 0.296085
v 0.864193 0.225099 0.298014
v 0.859996 0.221995 0.300873
v 0.857041 0.225726 0.302857
v 0.853529 0.224295 0.306614
v 0.863618 0.233148 0.299677
v 0.860113 0.228974 0.300625
v 0.854230 0.228584 0.305387
v 0.853106 0.230607 0.308492
v 0.851459 0.227503 0.309213
v 0.859355 0.234783 0.304081
v 0.862525 0.236787 0.306528
v 0.863627 0.238881 0.304398
v 0.867087 0.238411 0.304498
v 0.868514 0.239280 0.301491
v 0.859283 0.233770 0.307789
v 0.855948 0.232308 0.307011
v 0.856101 0.232165 0.311593
v 0.853005 0.231214 0.313091
v 0.868236 0.219176 0.304751
v 0.862481 0.221190 0.309008
v 0.858321 0.223553 0.313195
v 0.855067 0.226478 0.316680
v 0.854088 0.230748 0.316254
v 0.871876 0.222099 0.300781
v 0.871965 0.228610 0.300376
v 0.871437 0.235738 0.301461
v 0.870231 0.232874 0.299068
v 0.870703 0.225119 0.297515
v 0.869473 0.217334 0.299560
v 0.862429 0.218711 0.305044
v 0.856743 0.221054 0.310038
v 0.853393 0.225344 0.313889
v 0.851202 0.228451 0.316378
v 0.867151 0.221276 0.308721
v 0.872119 0.222457 0.307588
v 0.875209 0.224165 0.303769
v 0.874942 0.228792 0.303656
v 0.873059 0.233833 0.305872
v 0.868873 0.233816 0.308412
v 0.872731 0.221382 0.303440
v 0.873317 0.225455 0.301890
v 0.873361 0.231909 0.302369
v 0.869963 0.236177 0.304983
v 0.865770 0.235797 0.307610
v 0.859167 0.232799 0.310358
v 0.859830 0.232023 0.313518
v 0.856957 0.231441 0.314664
v 0.858816 0.229799 0.316621
v 0.858568 0.224843 0.315784
v 0.856122 0.228245 0.317544
v 0.859344 0.225929 0.317608
v 0.862777 0.223893 0.314897
v 0.862552 0.222943 0.312119
v 0.867146 0.223150 0.311739
v 0.861896 0.233098 0.311780
v 0.860946 0.231902 0.315750
v 0.862743 0.232913 0.314071
v 0.861737 0.230291 0.317833
v 0.860433 0.227774 0.317732
v 0.862494 0.226124 0.319112
v 0.861672 0.224014 0.317876
v 0.865310 0.224333 0.317124
v 0.866243 0.224119 0.314226
v 0.869758 0.224398 0.313688
v 0.870596 0.223811 0.311081
v 0.873989 0.224242 0.310165
v 0.875372 0.223170 0.306483
v 0.877511 0.224753 0.307217
v 0.876500 0.226170 0.304654
v 0.877315 0.229095 0.306477
v 0.875587 0.231603 0.305559
v 0.874606 0.232640 0.309072
v 0.871662 0.233823 0.309020
v 0.870528 0.233687 0.311983
v 0.867756 0.233740 0.311362
v 0.865378 0.233387 0.314939
v 0.864974 0.233609 0.310428
v 0.862002 0.234298 0.309077
v 0.863817 0.232983 0.317511
v 0.863901 0.228067 0.319205
v 0.865675 0.230372 0.319221
v 0.867175 0.226229 0.317555
v 0.869716 0.227928 0.316560
v 0.872818 0.225999 0.313207
v 0.876527 0.226689 0.311001
v 0.873989 0.230865 0.313099
v 0.868707 0.233579 0.315460
v 0.867137 0.232610 0.317893
v 0.871698 0.230221 0.316260
f 1 103 56
f 1 56 113
f 142 60 103
f 142 103 1
f 113 61 142
f 113 142 1
f 2 104 57
f 2 57 115
f 143 69 104
f 143 104 2
f 103 60 143
f 103 143 2
f 115 56 103
f 115 103 2
f 3 105 58
f 3 58 117
f 144 68 105
f 144 105 3
f 104 69 144
f 104 144 3
f 117 57 104
f 117 104 3
f 4 106 58
f 4 58 105
f 145 67 106
f 145 106 4
f 4 105 68
f 4 68 145
f 5 107 59
f 5 59 122
f 146 66 107
f 146 107 5
f 5 122 58
f 5 58 106
f 106 67 146
f 106 146 5
f 6 108 53
f 6 53 120
f 129 78 108
f 129 108 6
f 120 59 121
f 120 121 6
f 6 121 65
f 6 65 129
f 7 109 54
f 7 54 118
f 123 79 109
f 123 109 7
f 7 119 53
f 7 53 108
f 118 55 119
f 118 119 7
f 108 78 123
f 108 123 7
f 8 110 54
f 8 54 109
f 125 64 110
f 125 110 8
f 8 109 79
f 8 79 125
f 9 111 54
f 9 54 110
f 127 63 111
f 127 111 9
f 110 64 127
f 110 127 9
f 10 112 55
f 10 55 118
f 140 62 112
f 140 112 10
f 10 118 54
f 10 54 111
f 10 111 63
f 10 63 140
f 11 113 56
f 11 56 114
f 141 61 113
f 141 113 11
f 11 114 55
f 11 55 112
f 11 112 62
f 11 62 141
f 114 56 115
f 114 115 12
f 12 115 57
f 12 57 116
f 12 116 53
f 12 53 119
f 119 55 114
f 119 114 12
f 116 57 117
f 116 117 13
f 13 117 58
f 13 58 122
f 13 120 53
f 13 53 116
f 122 59 120
f 122 120 13
f 121 59 107
f 121 107 14
f 14 107 66
f 14 66 131
f 131 65 121
f 131 121 14
f 15 124 79
f 15 79 123
f 191 80 124
f 191 124 15
f 123 78 128
f 123 128 15
f 15 128 81
f 15 81 191
f 126 64 125
f 126 125 16
f 16 125 79
f 16 79 124
f 157 82 126
f 157 126 16
f 16 124 80
f 16 80 157
f 127 64 126
f 127 126 17
f 17 126 82
f 17 82 156
f 139 63 127
f 139 127 17
f 156 77 139
f 156 139 17
f 18 129 65
f 18 65 130
f 128 78 129
f 128 129 18
f 18 130 83
f 18 83 158
f 18 158 81
f 18 81 128
f 130 65 131
f 130 131 19
f 19 131 66
f 19 66 136
f 160 83 130
f 160 130 19
f 19 136 70
f 19 70 160
f 20 132 60
f 20 60 142
f 153 74 132
f 153 132 20
f 142 61 137
f 142 137 20
f 20 137 75
f 20 75 153
f 21 133 69
f 21 69 143
f 147 73 133
f 147 133 21
f 132 74 147
f 132 147 21
f 143 60 132
f 143 132 21
f 22 134 68
f 22 68 144
f 166 72 134
f 166 134 22
f 133 73 166
f 133 166 22
f 144 69 133
f 144 133 22
f 23 135 67
f 23 67 145
f 162 71 135
f 162 135 23
f 23 145 68
f 23 68 134
f 134 72 162
f 134 162 23
f 24 136 66
f 24 66 146
f 163 70 136
f 163 136 24
f 146 67 135
f 146 135 24
f 24 135 71
f 24 71 163
f 141 62 138
f 141 138 25
f 25 138 76
f 25 76 154
f 137 61 141
f 137 141 25
f 154 75 137
f 154 137 25
f 140 63 139
f 140 139 26
f 26 139 77
f 26 77 155
f 138 62 140
f 138 140 26
f 26 155 76
f 26 76 138
f 147 74 148
f 147 148 27
f 27 148 90
f 27 90 178
f 27 178 89
f 27 89 167
f 167 73 147
f 167 147 27
f 148 74 153
f 148 153 28
f 28 153 75
f 28 75 149
f 28 180 90
f 28 90 148
f 149 91 180
f 149 180 28
f 155 77 151
f 155 151 30
f 30 151 93
f 30 93 184
f 30 184 92
f 30 92 150
f 30 150 76
f 30 76 155
f 156 82 152
f 156 152 31
f 31 152 95
f 31 95 186
f 151 77 156
f 151 156 31
f 31 186 93
f 31 93 151
f 32 157 80
f 32 80 190
f 152 82 157
f 152 157 32
f 32 188 95
f 32 95 152
f 190 96 188
f 190 188 32
f 158 83 159
f 158 159 33
f 33 159 84
f 33 84 168
f 33 168 81
f 33 81 158
f 34 160 70
f 34 70 161
f 159 83 160
f 159 160 34
f 34 161 86
f 34 86 169
f 34 169 84
f 34 84 159
f 161 70 163
f 161 163 35
f 35 163 71
f 35 71 164
f 35 164 85
f 35 85 172
f 35 172 86
f 35 86 161
f 162 72 165
f 162 165 36
f 36 165 87
f 36 87 174
f 36 174 85
f 36 85 164
f 164 71 162
f 164 162 36
f 166 73 167
f 166 167 37
f 37 167 89
f 37 89 176
f 37 176 87
f 37 87 165
f 37 165 72
f 37 72 166
f 38 170 84
f 38 84 169
f 189 96 170
f 189 170 38
f 169 86 171
f 169 171 38
f 38 171 97
f 38 97 192
f 38 192 102
f 38 102 189
f 190 80 191
f 190 191 39
f 39 191 81
f 39 81 168
f 39 168 84
f 39 84 170
f 39 170 96
f 39 96 190
f 172 85 173
f 172 173 40
f 40 173 88
f 40 88 193
f 40 193 97
f 40 97 171
f 40 171 86
f 40 86 172
f 174 87 175
f 174 175 41
f 41 175 88
f 41 88 173
f 41 173 85
f 41 85 174
f 176 89 177
f 176 177 42
f 42 177 99
f 42 99 195
f 42 175 87
f 42 87 176
f 195 88 175
f 195 175 42
f 178 90 179
f 178 179 43
f 43 179 94
f 43 94 197
f 43 197 99
f 43 99 177
f 43 177 89
f 43 89 178
f 180 91 181
f 180 181 44
f 44 181 94
f 44 94 179
f 44 179 90
f 44 90 180
f 182 92 183
f 182 183 45
f 45 183 100
f 45 100 198
f 45 181 91
f 45 91 182
f 198 94 181
f 198 181 45
f 184 93 185
f 184 185 46
f 46 185 100
f 46 100 183
f 46 183 92
f 46 92 184
f 186 95 187
f 186 187 47
f 47 187 101
f 47 101 199
f 47 185 93
f 47 93 186
f 199 100 185
f 199 185 47
f 188 96 189
f 188 189 48
f 48 189 102
f 48 102 200
f 48 200 101
f 48 101 187
f 48 187 95
f 48 95 188
f 192 97 194
f 192 194 49
f 49 194 98
f 49 98 201
f 49 201 102
f 49 102 192
f 193 88 195
f 193 195 50
f 50 195 99
f 50 99 196
f 50 196 98
f 50 98 194
f 194 97 193
f 194 193 50
f 197 94 198
f 197 198 51
f 51 198 100
f 51 100 199
f 51 199 101
f 51 101 202
f 202 98 196
f 202 196 51
f 51 196 99
f 51 99 197
f 201 98 202
f 201 202 52
f 52 202 101
f 52 101 200
f 52 200 102
f 52 102 201
f 154 29 149
f 154 149 75
f 150 29 154
f 150 154 76
f 91 149 29
f 91 29 182
f 182 29 150
f 182 150 92
