# Lunate_R rest
v -0.709983 0.047589 -0.065636
v -0.706411 0.049229 -0.070449
v -0.707528 0.048231 -0.075365
v -0.711203 0.046709 -0.079001
v -0.716465 0.043848 -0.080484
v -0.720242 0.041040 -0.077744
v -0.724300 0.039169 -0.073143
v -0.725506 0.038715 -0.068249
v -0.717300 0.043483 -0.063612
v -0.712289 0.049795 -0.074154
v -0.715891 0.048846 -0.076282
v -0.720613 0.046599 -0.077234
v -0.723115 0.044135 -0.076514
v -0.727822 0.043700 -0.072801
v -0.727542 0.042604 -0.068558
v -0.719539 0.047070 -0.066773
v -0.714811 0.049050 -0.067611
v -0.713586 0.049973 -0.070901
v -0.724343 0.044677 -0.067089
v -0.723029 0.040416 -0.064875
v -0.725424 0.048145 -0.072007
v -0.719476 0.049483 -0.071412
v -0.705066 0.044030 -0.075878
v -0.705096 0.044262 -0.070410
v -0.709012 0.042354 -0.065977
v -0.716132 0.038564 -0.063191
v -0.722576 0.036204 -0.063157
v -0.724029 0.033887 -0.067254
v -0.720608 0.035637 -0.073147
v -0.716853 0.037463 -0.078722
v -0.713948 0.040362 -0.083085
v -0.707683 0.042866 -0.080595
v -0.710043 0.038024 -0.078256
v -0.706751 0.039841 -0.075223
v -0.708217 0.038973 -0.071075
v -0.711501 0.038317 -0.067697
v -0.716927 0.034636 -0.066825
v -0.713772 0.035769 -0.072872
v -0.727887 0.045114 -0.068804
v -0.724899 0.046040 -0.074956
v -0.722799 0.047706 -0.068676
v -0.717280 0.049203 -0.069107
v -0.715589 0.049726 -0.073228
v -0.720776 0.048748 -0.074635
v -0.709524 0.049935 -0.072759
v -0.710747 0.049746 -0.068449
v -0.715497 0.047127 -0.065414
v -0.721230 0.043872 -0.065196
v -0.725245 0.041650 -0.067081
v -0.727062 0.040925 -0.070567
v -0.724024 0.041990 -0.075308
v -0.720113 0.043946 -0.078258
v -0.715890 0.046670 -0.078647
v -0.711462 0.048721 -0.076432
v -0.707234 0.045868 -0.078017
v -0.704707 0.046869 -0.073254
v -0.706304 0.046544 -0.067836
v -0.712572 0.043314 -0.063859
v -0.719979 0.039462 -0.062937
v -0.724900 0.036756 -0.065288
v -0.717133 0.040350 -0.080556
v -0.711401 0.044071 -0.081831
v -0.724382 0.036478 -0.070468
v -0.720704 0.038188 -0.075672
v -0.720565 0.034219 -0.063708
v -0.713490 0.038067 -0.065550
v -0.711070 0.038808 -0.081181
v -0.706561 0.040973 -0.077976
v -0.719323 0.033856 -0.070079
v -0.709266 0.037888 -0.074552
v -0.705402 0.041709 -0.073027
v -0.707867 0.040859 -0.068335
v -0.712724 0.036696 -0.069538
v -0.715250 0.035984 -0.076169
v -0.707470 0.048876 -0.067789
v -0.706431 0.048924 -0.073085
v -0.709189 0.047493 -0.077315
v -0.713605 0.045426 -0.080391
v -0.718453 0.042301 -0.079428
v -0.722285 0.040016 -0.075553
v -0.725305 0.038718 -0.070597
v -0.724741 0.039380 -0.066319
v -0.713712 0.045504 -0.064121
v -0.710136 0.049368 -0.074669
v -0.713733 0.049565 -0.075121
v -0.713453 0.047869 -0.077897
v -0.718237 0.047938 -0.077110
v -0.718235 0.045274 -0.078820
v -0.722426 0.045136 -0.076864
v -0.721904 0.042692 -0.077017
v -0.725424 0.044031 -0.074942
v -0.726242 0.041281 -0.073001
v -0.728539 0.043055 -0.069914
v -0.726504 0.040936 -0.068536
v -0.726466 0.043637 -0.067725
v -0.718566 0.045459 -0.064880
v -0.716918 0.048300 -0.067233
v -0.712730 0.048736 -0.066637
v -0.714297 0.049630 -0.069068
v -0.709712 0.050136 -0.070592
v -0.712821 0.050021 -0.072657
v -0.721940 0.045856 -0.066760
v -0.723381 0.042648 -0.065984
v -0.720573 0.041711 -0.063812
v -0.719943 0.048549 -0.068848
v -0.725536 0.046633 -0.068581
v -0.727678 0.046180 -0.072382
v -0.723215 0.047558 -0.074905
v -0.722525 0.049150 -0.071571
v -0.718041 0.049389 -0.073991
v -0.716758 0.049660 -0.071161
v -0.704972 0.046883 -0.070409
v -0.705671 0.046405 -0.075845
v -0.704601 0.044253 -0.073229
v -0.706661 0.043658 -0.068048
v -0.708792 0.045244 -0.065560
v -0.712459 0.040408 -0.064290
v -0.716346 0.041294 -0.063009
v -0.719788 0.036819 -0.062787
v -0.722855 0.038018 -0.063762
v -0.724186 0.034579 -0.064059
v -0.725323 0.036327 -0.067832
v -0.722573 0.034547 -0.070269
v -0.722764 0.037210 -0.073117
v -0.718675 0.036619 -0.075820
v -0.718910 0.039128 -0.078218
v -0.715310 0.038569 -0.081389
v -0.714936 0.042085 -0.082221
v -0.710084 0.041591 -0.082433
v -0.709093 0.045069 -0.080066
v -0.705984 0.043705 -0.078251
v -0.708073 0.040090 -0.079963
v -0.707871 0.038940 -0.076511
v -0.705661 0.041516 -0.075577
v -0.707224 0.039419 -0.073368
v -0.706152 0.041424 -0.070576
v -0.710018 0.038471 -0.069129
v -0.710499 0.039576 -0.066825
v -0.714148 0.036707 -0.067362
v -0.716900 0.036016 -0.064547
v -0.720799 0.033124 -0.066907
v -0.713272 0.037100 -0.078779
v -0.717404 0.034956 -0.073159
v -0.715694 0.034897 -0.069828
v -0.711807 0.036781 -0.075646
v -0.710664 0.037182 -0.072042
f 1 75 46
f 1 46 98
f 116 57 75
f 116 75 1
f 1 98 47
f 1 47 83
f 83 58 116
f 83 116 1
f 2 76 45
f 2 45 100
f 112 56 76
f 112 76 2
f 2 100 46
f 2 46 75
f 75 57 112
f 75 112 2
f 3 77 54
f 3 54 84
f 113 55 77
f 113 77 3
f 3 84 45
f 3 45 76
f 76 56 113
f 76 113 3
f 4 78 53
f 4 53 86
f 130 62 78
f 130 78 4
f 4 86 54
f 4 54 77
f 77 55 130
f 77 130 4
f 5 79 52
f 5 52 88
f 128 61 79
f 128 79 5
f 5 88 53
f 5 53 78
f 78 62 128
f 78 128 5
f 6 80 51
f 6 51 90
f 126 64 80
f 126 80 6
f 6 90 52
f 6 52 79
f 79 61 126
f 79 126 6
f 7 81 50
f 7 50 92
f 124 63 81
f 124 81 7
f 7 92 51
f 7 51 80
f 80 64 124
f 80 124 7
f 8 82 49
f 8 49 94
f 122 60 82
f 122 82 8
f 8 94 50
f 8 50 81
f 81 63 122
f 81 122 8
f 10 85 43
f 10 43 101
f 84 54 85
f 84 85 10
f 101 45 84
f 101 84 10
f 11 87 44
f 11 44 110
f 86 53 87
f 86 87 11
f 11 110 43
f 11 43 85
f 11 85 54
f 11 54 86
f 12 89 40
f 12 40 108
f 88 52 89
f 88 89 12
f 12 108 44
f 12 44 87
f 12 87 53
f 12 53 88
f 13 91 40
f 13 40 89
f 90 51 91
f 90 91 13
f 13 89 52
f 13 52 90
f 14 93 39
f 14 39 107
f 92 50 93
f 92 93 14
f 14 107 40
f 14 40 91
f 14 91 51
f 14 51 92
f 15 95 39
f 15 39 93
f 94 49 95
f 94 95 15
f 15 93 50
f 15 50 94
f 16 97 42
f 16 42 105
f 96 47 97
f 96 97 16
f 105 41 102
f 105 102 16
f 16 102 48
f 16 48 96
f 17 99 42
f 17 42 97
f 98 46 99
f 98 99 17
f 17 97 47
f 17 47 98
f 18 101 43
f 18 43 111
f 100 45 101
f 100 101 18
f 111 42 99
f 111 99 18
f 18 99 46
f 18 46 100
f 19 103 48
f 19 48 102
f 95 49 103
f 95 103 19
f 19 106 39
f 19 39 95
f 102 41 106
f 102 106 19
f 20 120 59
f 20 59 104
f 82 60 120
f 82 120 20
f 103 49 82
f 103 82 20
f 104 48 103
f 104 103 20
f 106 41 109
f 106 109 21
f 21 109 44
f 21 44 108
f 107 39 106
f 107 106 21
f 108 40 107
f 108 107 21
f 105 42 111
f 105 111 22
f 22 111 43
f 22 43 110
f 109 41 105
f 109 105 22
f 110 44 109
f 110 109 22
f 113 56 114
f 113 114 23
f 23 114 71
f 23 71 134
f 23 134 68
f 23 68 131
f 131 55 113
f 131 113 23
f 112 57 115
f 112 115 24
f 24 115 72
f 24 72 136
f 24 136 71
f 24 71 114
f 114 56 112
f 114 112 24
f 116 58 117
f 116 117 25
f 25 117 66
f 25 66 138
f 25 138 72
f 25 72 115
f 25 115 57
f 25 57 116
f 118 59 119
f 118 119 26
f 26 119 65
f 26 65 140
f 26 140 66
f 26 66 117
f 26 117 58
f 26 58 118
f 120 60 121
f 120 121 27
f 27 121 65
f 27 65 119
f 27 119 59
f 27 59 120
f 122 63 123
f 122 123 28
f 28 123 69
f 28 69 141
f 28 121 60
f 28 60 122
f 141 65 121
f 141 121 28
f 124 64 125
f 124 125 29
f 29 125 74
f 29 74 143
f 29 143 69
f 29 69 123
f 29 123 63
f 29 63 124
f 126 61 127
f 126 127 30
f 30 127 67
f 30 67 142
f 30 125 64
f 30 64 126
f 142 74 125
f 142 125 30
f 128 62 129
f 128 129 31
f 31 129 67
f 31 67 127
f 31 127 61
f 31 61 128
f 130 55 131
f 130 131 32
f 32 131 68
f 32 68 132
f 32 132 67
f 32 67 129
f 32 129 62
f 32 62 130
f 132 68 133
f 132 133 33
f 33 133 70
f 33 70 145
f 33 142 67
f 33 67 132
f 145 74 142
f 145 142 33
f 34 135 70
f 34 70 133
f 134 71 135
f 134 135 34
f 34 133 68
f 34 68 134
f 136 72 137
f 136 137 35
f 35 137 73
f 35 73 146
f 35 146 70
f 35 70 135
f 35 135 71
f 35 71 136
f 138 66 139
f 138 139 36
f 36 139 73
f 36 73 137
f 36 137 72
f 36 72 138
f 140 65 141
f 140 141 37
f 37 141 69
f 37 69 144
f 37 144 73
f 37 73 139
f 37 139 66
f 37 66 140
f 38 145 70
f 38 70 146
f 143 74 145
f 143 145 38
f 144 69 143
f 144 143 38
f 146 73 144
f 146 144 38
f 47 96 9
f 47 9 83
f 104 9 96
f 104 96 48
f 58 83 9
f 58 9 118
f 118 9 104
f 118 104 59
