# Lunate_L posed
v -0.706936 -0.307012 0.377456
v -0.704366 -0.312058 0.378806
v -0.705826 -0.317239 0.380049
v -0.709452 -0.320899 0.381428
v -0.714685 -0.322417 0.381330
v -0.718188 -0.319746 0.379281
v -0.721012 -0.314952 0.378092
v -0.720901 -0.309886 0.377227
v -0.712505 -0.304991 0.377051
v -0.708503 -0.315102 0.383846
v -0.711731 -0.317083 0.385298
v -0.716206 -0.317979 0.385462
v -0.718882 -0.317462 0.383782
v -0.721722 -0.313173 0.384799
v -0.720910 -0.309079 0.382606
v -0.713295 -0.307201 0.382874
v -0.709595 -0.308194 0.382570
v -0.708919 -0.311544 0.383780
v -0.717513 -0.307483 0.382941
v -0.717667 -0.306314 0.377199
v -0.718075 -0.311690 0.388397
v -0.713218 -0.311492 0.386610
v -0.705562 -0.318951 0.374544
v -0.705228 -0.313236 0.372810
v -0.708086 -0.308640 0.371586
v -0.713338 -0.305833 0.371219
v -0.718433 -0.305604 0.372281
v -0.721466 -0.310197 0.371170
v -0.719682 -0.316209 0.372488
v -0.717153 -0.321953 0.374114
v -0.714402 -0.326158 0.377241
v -0.708336 -0.323782 0.376193
v -0.711685 -0.322142 0.371390
v -0.708220 -0.318994 0.370775
v -0.709170 -0.314748 0.369294
v -0.711254 -0.311049 0.369359
v -0.716073 -0.310401 0.368276
v -0.714572 -0.316688 0.369228
v -0.720255 -0.308744 0.385631
v -0.719138 -0.315236 0.386424
v -0.715655 -0.308652 0.385801
v -0.711414 -0.309423 0.384519
v -0.710727 -0.313771 0.385248
v -0.715021 -0.314824 0.387272
v -0.706363 -0.313950 0.382095
v -0.706832 -0.309381 0.381201
v -0.710402 -0.306255 0.380300
v -0.715268 -0.306074 0.379996
v -0.719292 -0.308041 0.380080
v -0.721725 -0.311579 0.380872
v -0.720156 -0.316579 0.381556
v -0.717048 -0.319661 0.382547
v -0.712917 -0.319986 0.383574
v -0.708594 -0.317784 0.382933
v -0.706690 -0.320522 0.378275
v -0.704158 -0.315666 0.376409
v -0.705263 -0.309929 0.374790
v -0.709694 -0.305832 0.374108
v -0.715470 -0.304906 0.374242
v -0.720428 -0.307383 0.374359
v -0.716539 -0.323170 0.377885
v -0.710888 -0.324367 0.379624
v -0.721513 -0.312822 0.374669
v -0.719264 -0.318198 0.375869
v -0.717958 -0.306892 0.369231
v -0.712290 -0.308676 0.369688
v -0.712521 -0.324866 0.373637
v -0.707925 -0.321610 0.372781
v -0.718779 -0.313640 0.369318
v -0.710717 -0.318448 0.369732
v -0.706403 -0.316471 0.371316
v -0.708027 -0.311540 0.370183
v -0.712949 -0.313174 0.368804
v -0.716108 -0.319851 0.371061
v -0.705100 -0.309249 0.378021
v -0.704614 -0.314856 0.379456
v -0.707491 -0.319222 0.380731
v -0.711904 -0.322325 0.381648
v -0.716630 -0.321421 0.380275
v -0.719701 -0.317476 0.378586
v -0.721337 -0.312321 0.377565
v -0.719608 -0.307837 0.377224
v -0.709675 -0.305481 0.377161
v -0.707205 -0.315976 0.382401
v -0.709736 -0.315984 0.384643
v -0.710551 -0.319246 0.383458
v -0.713917 -0.317852 0.385722
v -0.715225 -0.320181 0.383247
v -0.718047 -0.317691 0.384642
v -0.718649 -0.318438 0.381709
v -0.720305 -0.315590 0.384439
v -0.721562 -0.314099 0.381355
v -0.721797 -0.310259 0.383869
v -0.720818 -0.309553 0.380215
v -0.719540 -0.308119 0.383041
v -0.712864 -0.305711 0.380162
v -0.711191 -0.307718 0.382852
v -0.708254 -0.307492 0.380731
v -0.709262 -0.309637 0.383297
v -0.706211 -0.311638 0.381722
v -0.708606 -0.313442 0.383928
v -0.715356 -0.307169 0.382867
v -0.717359 -0.306906 0.379980
v -0.715286 -0.305214 0.377071
v -0.713412 -0.308983 0.385212
v -0.717951 -0.308463 0.386055
v -0.720559 -0.312224 0.387417
v -0.717305 -0.315063 0.387258
v -0.715515 -0.311371 0.387916
v -0.712704 -0.314345 0.386387
v -0.711237 -0.311510 0.385253
v -0.704286 -0.312677 0.375437
v -0.705167 -0.318339 0.377334
v -0.704993 -0.316213 0.373595
v -0.706373 -0.310749 0.372185
v -0.707058 -0.307581 0.374189
v -0.710612 -0.306957 0.371215
v -0.712523 -0.304981 0.374098
v -0.716237 -0.305406 0.371379
v -0.718126 -0.305755 0.374407
v -0.720416 -0.306738 0.371528
v -0.721585 -0.310045 0.374504
v -0.720909 -0.313292 0.371683
v -0.720649 -0.315557 0.375211
v -0.718380 -0.318947 0.373261
v -0.718002 -0.320818 0.376712
v -0.715924 -0.324636 0.375399
v -0.714412 -0.324775 0.379259
v -0.710852 -0.325674 0.376565
v -0.708570 -0.322598 0.379009
v -0.706533 -0.321373 0.375479
v -0.709590 -0.323680 0.373222
v -0.709506 -0.320392 0.370784
v -0.706855 -0.319117 0.372108
v -0.708540 -0.317121 0.369968
v -0.706853 -0.313918 0.370576
v -0.710380 -0.312655 0.369128
v -0.710026 -0.309979 0.369879
v -0.713552 -0.310777 0.369038
v -0.715042 -0.307740 0.369264
v -0.719374 -0.310406 0.368697
v -0.714564 -0.322511 0.372078
v -0.717586 -0.316752 0.370221
v -0.715738 -0.313553 0.368536
v -0.713156 -0.319530 0.370112
v -0.711676 -0.315869 0.368946
f 98 46 75
f 98 75 1
f 1 75 57
f 1 57 116
f 83 47 98
f 83 98 1
f 1 116 58
f 1 58 83
f 100 45 76
f 100 76 2
f 2 76 56
f 2 56 112
f 75 46 100
f 75 100 2
f 2 112 57
f 2 57 75
f 84 54 77
f 84 77 3
f 3 77 55
f 3 55 113
f 76 45 84
f 76 84 3
f 3 113 56
f 3 56 76
f 86 53 78
f 86 78 4
f 4 78 62
f 4 62 130
f 77 54 86
f 77 86 4
f 4 130 55
f 4 55 77
f 88 52 79
f 88 79 5
f 5 79 61
f 5 61 128
f 78 53 88
f 78 88 5
f 5 128 62
f 5 62 78
f 90 51 80
f 90 80 6
f 6 80 64
f 6 64 126
f 79 52 90
f 79 90 6
f 6 126 61
f 6 61 79
f 92 50 81
f 92 81 7
f 7 81 63
f 7 63 124
f 80 51 92
f 80 92 7
f 7 124 64
f 7 64 80
f 94 49 82
f 94 82 8
f 8 82 60
f 8 60 122
f 81 50 94
f 81 94 8
f 8 122 63
f 8 63 81
f 101 43 85
f 101 85 10
f 10 85 54
f 10 54 84
f 10 84 45
f 10 45 101
f 110 44 87
f 110 87 11
f 11 87 53
f 11 53 86
f 85 43 110
f 85 110 11
f 86 54 85
f 86 85 11
f 108 40 89
f 108 89 12
f 12 89 52
f 12 52 88
f 87 44 108
f 87 108 12
f 88 53 87
f 88 87 12
f 89 40 91
f 89 91 13
f 13 91 51
f 13 51 90
f 90 52 89
f 90 89 13
f 107 39 93
f 107 93 14
f 14 93 50
f 14 50 92
f 91 40 107
f 91 107 14
f 92 51 91
f 92 91 14
f 93 39 95
f 93 95 15
f 15 95 49
f 15 49 94
f 94 50 93
f 94 93 15
f 105 42 97
f 105 97 16
f 16 97 47
f 16 47 96
f 16 102 41
f 16 41 105
f 96 48 102
f 96 102 16
f 97 42 99
f 97 99 17
f 17 99 46
f 17 46 98
f 98 47 97
f 98 97 17
f 111 43 101
f 111 101 18
f 18 101 45
f 18 45 100
f 18 99 42
f 18 42 111
f 100 46 99
f 100 99 18
f 102 48 103
f 102 103 19
f 19 103 49
f 19 49 95
f 95 39 106
f 95 106 19
f 19 106 41
f 19 41 102
f 104 59 120
f 104 120 20
f 20 120 60
f 20 60 82
f 20 82 49
f 20 49 103
f 20 103 48
f 20 48 104
f 21 109 41
f 21 41 106
f 108 44 109
f 108 109 21
f 21 106 39
f 21 39 107
f 21 107 40
f 21 40 108
f 22 111 42
f 22 42 105
f 110 43 111
f 110 111 22
f 22 105 41
f 22 41 109
f 22 109 44
f 22 44 110
f 23 114 56
f 23 56 113
f 134 71 114
f 134 114 23
f 131 68 134
f 131 134 23
f 23 113 55
f 23 55 131
f 24 115 57
f 24 57 112
f 136 72 115
f 136 115 24
f 114 71 136
f 114 136 24
f 24 112 56
f 24 56 114
f 25 117 58
f 25 58 116
f 138 66 117
f 138 117 25
f 115 72 138
f 115 138 25
f 116 57 115
f 116 115 25
f 26 119 59
f 26 59 118
f 140 65 119
f 140 119 26
f 117 66 140
f 117 140 26
f 118 58 117
f 118 117 26
f 27 121 60
f 27 60 120
f 119 65 121
f 119 121 27
f 120 59 119
f 120 119 27
f 28 123 63
f 28 63 122
f 141 69 123
f 141 123 28
f 122 60 121
f 122 121 28
f 28 121 65
f 28 65 141
f 29 125 64
f 29 64 124
f 143 74 125
f 143 125 29
f 123 69 143
f 123 143 29
f 124 63 123
f 124 123 29
f 30 127 61
f 30 61 126
f 142 67 127
f 142 127 30
f 126 64 125
f 126 125 30
f 30 125 74
f 30 74 142
f 31 129 62
f 31 62 128
f 127 67 129
f 127 129 31
f 128 61 127
f 128 127 31
f 32 131 55
f 32 55 130
f 132 68 131
f 132 131 32
f 129 67 132
f 129 132 32
f 130 62 129
f 130 129 32
f 33 133 68
f 33 68 132
f 145 70 133
f 145 133 33
f 132 67 142
f 132 142 33
f 33 142 74
f 33 74 145
f 133 70 135
f 133 135 34
f 34 135 71
f 34 71 134
f 134 68 133
f 134 133 34
f 35 137 72
f 35 72 136
f 146 73 137
f 146 137 35
f 135 70 146
f 135 146 35
f 136 71 135
f 136 135 35
f 36 139 66
f 36 66 138
f 137 73 139
f 137 139 36
f 138 72 137
f 138 137 36
f 37 141 65
f 37 65 140
f 144 69 141
f 144 141 37
f 139 73 144
f 139 144 37
f 140 66 139
f 140 139 37
f 146 70 145
f 146 145 38
f 38 145 74
f 38 74 143
f 38 143 69
f 38 69 144
f 38 144 73
f 38 73 146
f 83 9 96
f 83 96 47
f 48 96 9
f 48 9 104
f 118 9 83
f 118 83 58
f 59 104 9
f 59 9 118
