# Medial_Cuneiform_L rest
v 0.112653 -1.324959 0.089637
v 0.113469 -1.320812 0.085028
v 0.111092 -1.316617 0.079264
v 0.108476 -1.313425 0.074262
v 0.103179 -1.317775 0.070877
v 0.101377 -1.324265 0.067164
v 0.099307 -1.329085 0.064923
v 0.096356 -1.334319 0.064630
v 0.097055 -1.336238 0.069458
v 0.098780 -1.339480 0.074100
v 0.098568 -1.340902 0.078080
v 0.100966 -1.336497 0.079308
v 0.103455 -1.331950 0.081995
v 0.107304 -1.328383 0.085851
v 0.108030 -1.324821 0.080965
v 0.106308 -1.321584 0.075986
v 0.103869 -1.329507 0.077282
v 0.102337 -1.326776 0.072494
v 0.099867 -1.331422 0.070389
v 0.101373 -1.334154 0.075022
v 0.104264 -1.311056 0.075407
v 0.101232 -1.313596 0.071163
v 0.097754 -1.320561 0.066414
v 0.095244 -1.325959 0.063506
v 0.091500 -1.333833 0.063860
v 0.091852 -1.336982 0.069738
v 0.092906 -1.339080 0.075037
v 0.093833 -1.340994 0.082463
v 0.097689 -1.336036 0.082575
v 0.101028 -1.331575 0.084920
v 0.104616 -1.327714 0.089103
v 0.109782 -1.322881 0.092999
v 0.109284 -1.319356 0.087838
v 0.106509 -1.314212 0.080186
v 0.099373 -1.311529 0.075850
v 0.097002 -1.312479 0.072149
v 0.092857 -1.317798 0.067909
v 0.090261 -1.322667 0.064409
v 0.087515 -1.330304 0.065931
v 0.088278 -1.333565 0.071605
v 0.088904 -1.336079 0.077003
v 0.090070 -1.338359 0.084197
v 0.093940 -1.333512 0.084900
v 0.097322 -1.329055 0.086739
v 0.100783 -1.324772 0.090631
v 0.102989 -1.319730 0.092827
v 0.101821 -1.313648 0.080979
v 0.086250 -1.321883 0.068607
v 0.085269 -1.326784 0.069538
v 0.085727 -1.329567 0.073655
v 0.085328 -1.331937 0.079662
v 0.086218 -1.334211 0.085911
v 0.090691 -1.331152 0.085378
v 0.093612 -1.326196 0.087140
v 0.096504 -1.321520 0.090034
v 0.103399 -1.317380 0.087596
v 0.098056 -1.318446 0.089204
v 0.098570 -1.316720 0.085873
v 0.097916 -1.314533 0.080234
v 0.096966 -1.313154 0.075979
v 0.093768 -1.313906 0.073161
v 0.089154 -1.317048 0.069864
v 0.093821 -1.317130 0.078397
v 0.094910 -1.320016 0.083997
v 0.089279 -1.319981 0.076455
v 0.091528 -1.323378 0.082551
v 0.086506 -1.323479 0.075112
v 0.087954 -1.327186 0.081886
v 0.105137 -1.325677 0.076549
v 0.101977 -1.330539 0.073674
v 0.103312 -1.322611 0.071645
v 0.101042 -1.328029 0.068719
v 0.098579 -1.333045 0.067266
v 0.099529 -1.335348 0.072100
v 0.100141 -1.338210 0.076654
v 0.102449 -1.333054 0.078397
v 0.105497 -1.328553 0.081566
v 0.110435 -1.324795 0.085332
v 0.109912 -1.321010 0.080156
v 0.107169 -1.317293 0.075194
v 0.104420 -1.313894 0.072020
v 0.100998 -1.318911 0.068617
v 0.098738 -1.324832 0.064522
v 0.095855 -1.330545 0.063156
v 0.094327 -1.335978 0.066520
v 0.094947 -1.338501 0.071644
v 0.095874 -1.342175 0.076659
v 0.097612 -1.338923 0.080829
v 0.100845 -1.334209 0.082395
v 0.104289 -1.330555 0.085815
v 0.108454 -1.327175 0.090578
v 0.109118 -1.313153 0.077371
v 0.091549 -1.327519 0.062970
v 0.088725 -1.334616 0.067705
v 0.090504 -1.336410 0.073343
v 0.090595 -1.339191 0.079215
v 0.093931 -1.337273 0.083656
v 0.097471 -1.332498 0.084649
v 0.100949 -1.328230 0.087781
v 0.112548 -1.321479 0.089285
v 0.112068 -1.317191 0.083702
v 0.104392 -1.324234 0.092115
v 0.106576 -1.319298 0.090497
v 0.105202 -1.316310 0.084054
v 0.103026 -1.312441 0.078208
v 0.100439 -1.311198 0.072723
v 0.097192 -1.316074 0.069296
v 0.094124 -1.321647 0.065203
v 0.096680 -1.312621 0.074312
v 0.098909 -1.312921 0.078356
v 0.100374 -1.315238 0.083914
v 0.100827 -1.317380 0.089131
v 0.098962 -1.321310 0.091699
v 0.092968 -1.314958 0.070453
v 0.095611 -1.314669 0.076949
v 0.096368 -1.317150 0.082009
v 0.096791 -1.318970 0.087352
v 0.096984 -1.325528 0.088895
v 0.089357 -1.319395 0.067070
v 0.085743 -1.325335 0.066256
v 0.091176 -1.316548 0.074868
v 0.092383 -1.320127 0.080350
v 0.094127 -1.322694 0.085955
v 0.093909 -1.329973 0.086007
v 0.090396 -1.334271 0.085626
v 0.086702 -1.330087 0.070192
v 0.085173 -1.325389 0.071754
v 0.087229 -1.320352 0.072584
v 0.087103 -1.332743 0.075468
v 0.085282 -1.327951 0.077578
v 0.087028 -1.335644 0.081226
v 0.087029 -1.330592 0.083889
v 0.088560 -1.323278 0.079158
v 0.090995 -1.327062 0.084090
v 0.113157 -1.322926 0.087322
v 0.112418 -1.318781 0.082012
v 0.109644 -1.314972 0.076879
v 0.105677 -1.315480 0.072808
v 0.102273 -1.320999 0.069031
v 0.100564 -1.326729 0.065863
v 0.098145 -1.331829 0.064458
v 0.096713 -1.335256 0.067077
v 0.097967 -1.337899 0.071730
v 0.098473 -1.340985 0.076201
v 0.099320 -1.339221 0.078930
v 0.102073 -1.334148 0.080646
v 0.105189 -1.330036 0.083985
v 0.109970 -1.326644 0.087754
v 0.107716 -1.326625 0.083407
v 0.110820 -1.322854 0.082957
v 0.107326 -1.323289 0.078362
v 0.108678 -1.319072 0.077630
v 0.104879 -1.319698 0.073330
v 0.105704 -1.327038 0.079211
v 0.103735 -1.330764 0.079623
v 0.103274 -1.328191 0.074783
v 0.104261 -1.324180 0.074266
v 0.102029 -1.325569 0.069798
v 0.099988 -1.330435 0.067612
v 0.101005 -1.329122 0.071467
v 0.100715 -1.332820 0.072638
v 0.102563 -1.331821 0.076167
v 0.101331 -1.335402 0.077140
v 0.100175 -1.336872 0.074523
v 0.098648 -1.333939 0.069850
v 0.107727 -1.312008 0.074662
v 0.102316 -1.315580 0.070870
v 0.102862 -1.311886 0.072556
v 0.099401 -1.317240 0.069042
v 0.099851 -1.322070 0.066061
v 0.096526 -1.323160 0.064681
v 0.097277 -1.327568 0.063972
v 0.093657 -1.329647 0.062819
v 0.093969 -1.334346 0.063956
v 0.091657 -1.336005 0.066501
v 0.094548 -1.337152 0.069381
v 0.092610 -1.337686 0.072334
v 0.095582 -1.340206 0.073841
v 0.092259 -1.340801 0.078102
v 0.096271 -1.342294 0.079491
v 0.095646 -1.338472 0.082337
v 0.099462 -1.336411 0.081134
v 0.099219 -1.333630 0.083505
v 0.102455 -1.332364 0.083888
v 0.102837 -1.329638 0.086933
v 0.105983 -1.328902 0.088064
v 0.107098 -1.325727 0.091577
v 0.112020 -1.324482 0.091890
v 0.109771 -1.320665 0.090635
v 0.112415 -1.319598 0.086744
v 0.107856 -1.316922 0.083923
v 0.110178 -1.314639 0.079938
v 0.105395 -1.312648 0.077809
v 0.101823 -1.311033 0.075742
v 0.099104 -1.312852 0.071386
v 0.097955 -1.311651 0.074093
v 0.094927 -1.315131 0.069985
v 0.095316 -1.319105 0.067048
v 0.091530 -1.320177 0.066038
v 0.092835 -1.324215 0.063726
v 0.087689 -1.326672 0.063846
v 0.089026 -1.332249 0.064243
v 0.087474 -1.332004 0.068728
v 0.089719 -1.335599 0.070722
v 0.088810 -1.334719 0.074410
v 0.090837 -1.337696 0.075940
v 0.088977 -1.337603 0.080357
v 0.091936 -1.339738 0.083384
v 0.092088 -1.335979 0.084738
v 0.095884 -1.334864 0.083952
v 0.095616 -1.331155 0.085493
v 0.099189 -1.330312 0.085863
v 0.099068 -1.326820 0.088527
v 0.102680 -1.326310 0.089938
v 0.101767 -1.322459 0.092265
v 0.106457 -1.321123 0.093431
v 0.104156 -1.313968 0.080561
v 0.100581 -1.312437 0.078489
v 0.087847 -1.321908 0.066109
v 0.086373 -1.328540 0.067746
v 0.085275 -1.324277 0.069073
v 0.085511 -1.328171 0.071598
v 0.087063 -1.331501 0.072661
v 0.085485 -1.330766 0.076642
v 0.087002 -1.334101 0.078283
v 0.084933 -1.332701 0.082553
v 0.088045 -1.336524 0.085124
v 0.088419 -1.332696 0.085655
v 0.092357 -1.332403 0.085408
v 0.092503 -1.328674 0.085865
v 0.095409 -1.327774 0.087254
v 0.095058 -1.323860 0.088585
v 0.098481 -1.323300 0.090655
v 0.102580 -1.315632 0.084212
v 0.106342 -1.318341 0.087702
v 0.103272 -1.318222 0.090347
v 0.097106 -1.319901 0.089755
v 0.100410 -1.318427 0.091498
v 0.098297 -1.317566 0.087548
v 0.101063 -1.316679 0.086963
v 0.098321 -1.315715 0.083005
v 0.099787 -1.313663 0.080765
v 0.097418 -1.313920 0.078171
v 0.098122 -1.312275 0.075914
v 0.095388 -1.313565 0.074553
v 0.095308 -1.313032 0.072664
v 0.091252 -1.315168 0.071518
v 0.090899 -1.317181 0.068581
v 0.087629 -1.319532 0.069216
v 0.093687 -1.315475 0.075841
v 0.095818 -1.315810 0.079362
v 0.094447 -1.318669 0.081138
v 0.096702 -1.318359 0.084959
v 0.095492 -1.320629 0.086956
v 0.088686 -1.318128 0.073390
v 0.091547 -1.318641 0.077454
v 0.090312 -1.321600 0.079565
v 0.093242 -1.321633 0.083210
v 0.092657 -1.324855 0.084779
v 0.086085 -1.322510 0.071923
v 0.087747 -1.321648 0.075855
v 0.086927 -1.325094 0.078673
v 0.089731 -1.325372 0.082167
v 0.089093 -1.328907 0.084063
v 0.085328 -1.326483 0.074413
v 0.085749 -1.329347 0.081099
f 148 78 135
f 148 135 1
f 1 135 100
f 1 100 188
f 1 188 91
f 1 91 148
f 150 79 136
f 150 136 2
f 2 136 101
f 2 101 190
f 135 78 150
f 135 150 2
f 2 190 100
f 2 100 135
f 152 80 137
f 152 137 3
f 3 137 92
f 3 92 192
f 136 79 152
f 136 152 3
f 3 192 101
f 3 101 136
f 137 80 138
f 137 138 4
f 4 138 81
f 4 81 166
f 4 166 92
f 4 92 137
f 153 71 139
f 153 139 5
f 5 139 82
f 5 82 167
f 5 167 81
f 5 81 138
f 5 138 80
f 5 80 153
f 158 72 140
f 158 140 6
f 6 140 83
f 6 83 170
f 6 170 82
f 6 82 139
f 6 139 71
f 6 71 158
f 159 73 141
f 159 141 7
f 7 141 84
f 7 84 172
f 140 72 159
f 140 159 7
f 7 172 83
f 7 83 140
f 141 73 142
f 141 142 8
f 8 142 85
f 8 85 174
f 8 174 84
f 8 84 141
f 165 74 143
f 165 143 9
f 9 143 86
f 9 86 176
f 9 176 85
f 9 85 142
f 9 142 73
f 9 73 165
f 164 75 144
f 164 144 10
f 10 144 87
f 10 87 178
f 10 178 86
f 10 86 143
f 10 143 74
f 10 74 164
f 144 75 145
f 144 145 11
f 11 145 88
f 11 88 180
f 11 180 87
f 11 87 144
f 163 76 146
f 163 146 12
f 12 146 89
f 12 89 182
f 12 182 88
f 12 88 145
f 12 145 75
f 12 75 163
f 155 77 147
f 155 147 13
f 13 147 90
f 13 90 184
f 146 76 155
f 146 155 13
f 13 184 89
f 13 89 146
f 149 78 148
f 149 148 14
f 14 148 91
f 14 91 186
f 147 77 149
f 147 149 14
f 14 186 90
f 14 90 147
f 154 69 151
f 154 151 15
f 15 151 79
f 15 79 150
f 149 77 154
f 149 154 15
f 150 78 149
f 150 149 15
f 157 71 153
f 157 153 16
f 16 153 80
f 16 80 152
f 151 69 157
f 151 157 16
f 152 79 151
f 152 151 16
f 17 156 69
f 17 69 154
f 162 70 156
f 162 156 17
f 155 76 162
f 155 162 17
f 17 154 77
f 17 77 155
f 18 158 71
f 18 71 157
f 160 72 158
f 160 158 18
f 156 70 160
f 156 160 18
f 157 69 156
f 157 156 18
f 160 70 161
f 160 161 19
f 19 161 74
f 19 74 165
f 19 165 73
f 19 73 159
f 19 159 72
f 19 72 160
f 20 163 75
f 20 75 164
f 162 76 163
f 162 163 20
f 20 164 74
f 20 74 161
f 20 161 70
f 20 70 162
f 166 81 168
f 166 168 21
f 21 168 106
f 21 106 194
f 21 194 105
f 21 105 193
f 193 92 166
f 193 166 21
f 167 82 169
f 167 169 22
f 22 169 107
f 22 107 195
f 22 195 106
f 22 106 168
f 168 81 167
f 168 167 22
f 170 83 171
f 170 171 23
f 23 171 108
f 23 108 198
f 23 198 107
f 23 107 169
f 23 169 82
f 23 82 170
f 172 84 173
f 172 173 24
f 24 173 93
f 24 93 200
f 24 200 108
f 24 108 171
f 24 171 83
f 24 83 172
f 174 85 175
f 174 175 25
f 25 175 94
f 25 94 202
f 25 202 93
f 25 93 173
f 25 173 84
f 25 84 174
f 176 86 177
f 176 177 26
f 26 177 95
f 26 95 204
f 26 204 94
f 26 94 175
f 26 175 85
f 26 85 176
f 178 87 179
f 178 179 27
f 27 179 96
f 27 96 206
f 27 206 95
f 27 95 177
f 27 177 86
f 27 86 178
f 180 88 181
f 180 181 28
f 28 181 97
f 28 97 208
f 28 208 96
f 28 96 179
f 28 179 87
f 28 87 180
f 182 89 183
f 182 183 29
f 29 183 98
f 29 98 210
f 29 210 97
f 29 97 181
f 29 181 88
f 29 88 182
f 184 90 185
f 184 185 30
f 30 185 99
f 30 99 212
f 30 212 98
f 30 98 183
f 30 183 89
f 30 89 184
f 186 91 187
f 186 187 31
f 31 187 102
f 31 102 214
f 31 214 99
f 31 99 185
f 31 185 90
f 31 90 186
f 188 100 189
f 188 189 32
f 32 189 103
f 32 103 216
f 32 216 102
f 32 102 187
f 32 187 91
f 32 91 188
f 190 101 191
f 190 191 33
f 33 191 104
f 33 104 235
f 33 235 103
f 33 103 189
f 33 189 100
f 33 100 190
f 192 92 193
f 192 193 34
f 34 193 105
f 34 105 217
f 34 217 104
f 34 104 191
f 34 191 101
f 34 101 192
f 194 106 196
f 194 196 35
f 35 196 109
f 35 109 244
f 35 244 110
f 35 110 218
f 218 105 194
f 218 194 35
f 195 107 197
f 195 197 36
f 36 197 114
f 36 114 246
f 36 246 109
f 36 109 196
f 196 106 195
f 196 195 36
f 198 108 199
f 198 199 37
f 37 199 119
f 37 119 248
f 37 248 114
f 37 114 197
f 37 197 107
f 37 107 198
f 200 93 201
f 200 201 38
f 38 201 120
f 38 120 219
f 38 219 119
f 38 119 199
f 38 199 108
f 38 108 200
f 202 94 203
f 202 203 39
f 39 203 126
f 39 126 220
f 39 220 120
f 39 120 201
f 39 201 93
f 39 93 202
f 204 95 205
f 204 205 40
f 40 205 129
f 40 129 223
f 40 223 126
f 40 126 203
f 40 203 94
f 40 94 204
f 206 96 207
f 206 207 41
f 41 207 131
f 41 131 225
f 41 225 129
f 41 129 205
f 41 205 95
f 41 95 206
f 208 97 209
f 208 209 42
f 42 209 125
f 42 125 227
f 42 227 131
f 42 131 207
f 42 207 96
f 42 96 208
f 210 98 211
f 210 211 43
f 43 211 124
f 43 124 229
f 43 229 125
f 43 125 209
f 43 209 97
f 43 97 210
f 212 99 213
f 212 213 44
f 44 213 118
f 44 118 231
f 44 231 124
f 44 124 211
f 44 211 98
f 44 98 212
f 214 102 215
f 214 215 45
f 45 215 113
f 45 113 233
f 45 233 118
f 45 118 213
f 45 213 99
f 45 99 214
f 236 112 238
f 236 238 46
f 46 238 113
f 46 113 215
f 46 215 102
f 46 102 216
f 46 216 103
f 46 103 236
f 217 105 218
f 217 218 47
f 47 218 110
f 47 110 242
f 47 234 104
f 47 104 217
f 242 111 234
f 242 234 47
f 219 120 221
f 219 221 48
f 48 221 127
f 48 127 260
f 48 260 128
f 48 128 249
f 249 119 219
f 249 219 48
f 220 126 222
f 220 222 49
f 49 222 127
f 49 127 221
f 221 120 220
f 221 220 49
f 223 129 224
f 223 224 50
f 50 224 130
f 50 130 265
f 50 222 126
f 50 126 223
f 265 127 222
f 265 222 50
f 225 131 226
f 225 226 51
f 51 226 132
f 51 132 266
f 51 224 129
f 51 129 225
f 266 130 224
f 266 224 51
f 227 125 228
f 227 228 52
f 52 228 132
f 52 132 226
f 52 226 131
f 52 131 227
f 229 124 230
f 229 230 53
f 53 230 134
f 53 134 264
f 53 228 125
f 53 125 229
f 264 132 228
f 264 228 53
f 231 118 232
f 231 232 54
f 54 232 123
f 54 123 259
f 54 230 124
f 54 124 231
f 259 134 230
f 259 230 54
f 233 113 237
f 233 237 55
f 55 237 117
f 55 117 254
f 55 232 118
f 55 118 233
f 254 123 232
f 254 232 55
f 56 236 103
f 56 103 235
f 240 112 236
f 240 236 56
f 234 111 240
f 234 240 56
f 235 104 234
f 235 234 56
f 238 112 239
f 238 239 57
f 57 239 117
f 57 117 237
f 57 237 113
f 57 113 238
f 240 111 241
f 240 241 58
f 58 241 116
f 58 116 253
f 58 253 117
f 58 117 239
f 58 239 112
f 58 112 240
f 242 110 243
f 242 243 59
f 59 243 115
f 59 115 251
f 59 251 116
f 59 116 241
f 59 241 111
f 59 111 242
f 244 109 245
f 244 245 60
f 60 245 115
f 60 115 243
f 60 243 110
f 60 110 244
f 246 114 247
f 246 247 61
f 61 247 121
f 61 121 250
f 61 250 115
f 61 115 245
f 61 245 109
f 61 109 246
f 248 119 249
f 248 249 62
f 62 249 128
f 62 128 255
f 62 255 121
f 62 121 247
f 62 247 114
f 62 114 248
f 63 252 116
f 63 116 251
f 256 122 252
f 256 252 63
f 250 121 256
f 250 256 63
f 251 115 250
f 251 250 63
f 64 254 117
f 64 117 253
f 258 123 254
f 258 254 64
f 252 122 258
f 252 258 64
f 253 116 252
f 253 252 64
f 65 257 122
f 65 122 256
f 261 133 257
f 261 257 65
f 255 128 261
f 255 261 65
f 256 121 255
f 256 255 65
f 66 259 123
f 66 123 258
f 263 134 259
f 263 259 66
f 257 133 263
f 257 263 66
f 258 122 257
f 258 257 66
f 265 130 262
f 265 262 67
f 67 262 133
f 67 133 261
f 260 127 265
f 260 265 67
f 261 128 260
f 261 260 67
f 266 132 264
f 266 264 68
f 68 264 134
f 68 134 263
f 262 130 266
f 262 266 68
f 263 133 262
f 263 262 68
