# Medial_Cuneiform_R rest
v -0.112268 -1.325945 0.092356
v -0.113573 -1.322131 0.088063
v -0.112000 -1.318260 0.082353
v -0.110111 -1.315303 0.077358
v -0.105425 -1.319365 0.073722
v -0.104006 -1.325501 0.070165
v -0.102217 -1.330035 0.067935
v -0.099392 -1.334914 0.067445
v -0.099528 -1.336644 0.072066
v -0.100612 -1.339651 0.076628
v -0.099981 -1.340923 0.080350
v -0.102178 -1.336794 0.081677
v -0.104314 -1.332507 0.084377
v -0.107588 -1.329147 0.088322
v -0.108824 -1.325890 0.083765
v -0.107771 -1.322909 0.078878
v -0.105226 -1.330290 0.079972
v -0.104324 -1.327780 0.075293
v -0.102150 -1.332142 0.073149
v -0.103039 -1.334662 0.077675
v -0.106096 -1.312980 0.077969
v -0.103643 -1.315400 0.073725
v -0.100754 -1.321975 0.069038
v -0.098610 -1.327054 0.066151
v -0.094927 -1.334399 0.066222
v -0.094607 -1.337269 0.071804
v -0.095022 -1.339171 0.076902
v -0.095103 -1.340861 0.083974
v -0.098786 -1.336254 0.084396
v -0.101752 -1.332067 0.086863
v -0.104754 -1.328418 0.091083
v -0.109277 -1.323886 0.095180
v -0.109396 -1.320647 0.090247
v -0.107661 -1.315900 0.082720
v -0.101464 -1.313343 0.077894
v -0.099603 -1.314264 0.074203
v -0.096063 -1.319273 0.069904
v -0.093909 -1.323867 0.066444
v -0.091044 -1.330974 0.067701
v -0.091128 -1.333959 0.073137
v -0.091126 -1.336248 0.078289
v -0.091450 -1.338293 0.085174
v -0.095082 -1.333783 0.086154
v -0.098140 -1.329608 0.088151
v -0.101065 -1.325563 0.092079
v -0.102994 -1.320814 0.094284
v -0.103199 -1.315285 0.082977
v -0.089739 -1.322993 0.069952
v -0.088641 -1.327566 0.070797
v -0.088604 -1.330124 0.074737
v -0.087582 -1.332249 0.080351
v -0.087746 -1.334298 0.086326
v -0.092037 -1.331499 0.086235
v -0.094677 -1.326852 0.088108
v -0.097174 -1.322446 0.091040
v -0.103943 -1.318702 0.089393
v -0.098762 -1.319592 0.090375
v -0.099609 -1.318037 0.087280
v -0.099601 -1.316072 0.081900
v -0.099167 -1.314835 0.077796
v -0.096445 -1.315541 0.074849
v -0.092411 -1.318478 0.071350
v -0.095907 -1.318485 0.079806
v -0.096316 -1.321115 0.085202
v -0.091804 -1.321129 0.077573
v -0.093237 -1.324252 0.083557
v -0.089287 -1.324391 0.076087
v -0.089895 -1.327780 0.082629
v -0.106551 -1.326723 0.079354
v -0.103806 -1.331289 0.076422
v -0.105391 -1.323899 0.074529
v -0.103473 -1.329005 0.071647
v -0.101232 -1.333701 0.070120
v -0.101590 -1.335803 0.074774
v -0.101647 -1.338437 0.079136
v -0.103720 -1.333590 0.080923
v -0.106328 -1.329350 0.084130
v -0.110633 -1.325828 0.088100
v -0.110729 -1.322357 0.083136
v -0.108727 -1.318907 0.078155
v -0.106538 -1.315711 0.074859
v -0.103593 -1.320440 0.071401
v -0.101796 -1.326034 0.067436
v -0.099138 -1.331384 0.065955
v -0.097269 -1.336417 0.069030
v -0.097287 -1.338713 0.073926
v -0.097582 -1.342102 0.078767
v -0.098841 -1.338999 0.082797
v -0.101790 -1.334587 0.084521
v -0.104732 -1.331144 0.088016
v -0.108208 -1.327947 0.092843
v -0.110404 -1.314999 0.080330
v -0.095177 -1.328473 0.065300
v -0.091921 -1.335022 0.069548
v -0.092988 -1.336645 0.075032
v -0.092431 -1.339167 0.080577
v -0.095137 -1.337342 0.085043
v -0.098433 -1.332885 0.086260
v -0.101447 -1.328868 0.089480
v -0.112266 -1.322673 0.091965
v -0.112457 -1.318730 0.086619
v -0.104301 -1.325087 0.093827
v -0.106593 -1.320504 0.092461
v -0.106008 -1.317789 0.086239
v -0.104630 -1.314216 0.080486
v -0.102784 -1.313102 0.075070
v -0.100008 -1.317701 0.071608
v -0.097460 -1.322957 0.067557
v -0.099078 -1.314358 0.076197
v -0.100751 -1.314602 0.080216
v -0.101520 -1.316706 0.085607
v -0.101382 -1.318633 0.090571
v -0.099310 -1.322257 0.092844
v -0.095955 -1.316562 0.072252
v -0.097771 -1.316225 0.078592
v -0.097928 -1.318477 0.083446
v -0.097758 -1.320099 0.088518
v -0.097667 -1.326246 0.090083
v -0.092847 -1.320734 0.068793
v -0.089442 -1.326266 0.067752
v -0.093798 -1.317957 0.076226
v -0.094314 -1.321246 0.081534
v -0.095341 -1.323586 0.086996
v -0.095003 -1.330432 0.087134
v -0.091682 -1.334426 0.086484
v -0.089857 -1.330685 0.071603
v -0.088351 -1.326218 0.072840
v -0.090275 -1.321505 0.073749
v -0.089653 -1.333104 0.076620
v -0.087815 -1.328531 0.078338
v -0.088951 -1.335739 0.082043
v -0.088770 -1.330938 0.084461
v -0.090803 -1.324167 0.080079
v -0.092520 -1.327677 0.084998
v -0.113010 -1.324078 0.090210
v -0.112927 -1.320263 0.085095
v -0.110913 -1.316732 0.079949
v -0.107605 -1.317217 0.075745
v -0.104711 -1.322413 0.071952
v -0.103336 -1.327826 0.068904
v -0.101128 -1.332605 0.067425
v -0.099464 -1.335757 0.069788
v -0.100120 -1.338187 0.074307
v -0.100083 -1.341030 0.078584
v -0.100628 -1.339338 0.081197
v -0.103119 -1.334578 0.083006
v -0.105768 -1.330701 0.086386
v -0.109921 -1.327520 0.090346
v -0.108252 -1.327540 0.086050
v -0.111266 -1.324051 0.085882
v -0.108454 -1.324486 0.081232
v -0.109862 -1.320563 0.080615
v -0.106735 -1.321159 0.076218
v -0.106789 -1.327964 0.081925
v -0.104839 -1.331435 0.082166
v -0.104945 -1.329085 0.077553
v -0.105988 -1.325342 0.077104
v -0.104329 -1.326690 0.072717
v -0.102559 -1.331268 0.070543
v -0.103144 -1.329980 0.074236
v -0.102690 -1.333432 0.075360
v -0.104077 -1.332466 0.078832
v -0.102761 -1.335803 0.079669
v -0.101920 -1.337211 0.077127
v -0.101021 -1.334497 0.072561
v -0.109396 -1.313948 0.077636
v -0.104654 -1.317291 0.073590
v -0.105057 -1.313793 0.075168
v -0.102082 -1.318838 0.071610
v -0.102727 -1.323431 0.068944
v -0.099737 -1.324425 0.067335
v -0.100440 -1.328591 0.066817
v -0.097129 -1.330511 0.065404
v -0.097222 -1.334919 0.066571
v -0.094769 -1.336401 0.068741
v -0.097166 -1.337477 0.071748
v -0.095043 -1.337900 0.074322
v -0.097631 -1.340289 0.076073
v -0.094075 -1.340727 0.079729
v -0.097663 -1.342173 0.081460
v -0.096856 -1.338519 0.084003
v -0.100586 -1.336658 0.083233
v -0.100166 -1.333997 0.085386
v -0.103178 -1.332850 0.086053
v -0.103275 -1.330238 0.088900
v -0.106119 -1.329577 0.090267
v -0.106862 -1.326545 0.093619
v -0.111457 -1.325447 0.094393
v -0.109544 -1.321840 0.092933
v -0.112433 -1.320943 0.089544
v -0.108498 -1.318404 0.086395
v -0.111111 -1.316369 0.082863
v -0.106884 -1.314455 0.080356
v -0.103777 -1.312915 0.078035
v -0.101642 -1.314661 0.073708
v -0.100312 -1.313467 0.076106
v -0.097834 -1.316765 0.072012
v -0.098431 -1.320557 0.069364
v -0.094971 -1.321518 0.068057
v -0.096361 -1.325375 0.066086
v -0.091485 -1.327598 0.065716
v -0.092596 -1.332859 0.066304
v -0.090692 -1.332525 0.070340
v -0.092531 -1.335912 0.072487
v -0.091324 -1.335008 0.075833
v -0.093015 -1.337817 0.077515
v -0.090828 -1.337628 0.081457
v -0.093255 -1.339635 0.084623
v -0.093323 -1.336078 0.085851
v -0.096977 -1.335100 0.085482
v -0.096631 -1.331580 0.086844
v -0.099958 -1.330832 0.087537
v -0.099635 -1.327500 0.089967
v -0.102883 -1.327051 0.091646
v -0.101860 -1.323373 0.093674
v -0.106152 -1.322170 0.095223
v -0.105423 -1.315631 0.082825
v -0.102312 -1.314169 0.080501
v -0.091490 -1.323086 0.067778
v -0.089823 -1.329265 0.069258
v -0.088739 -1.325219 0.070325
v -0.088635 -1.328841 0.072769
v -0.089922 -1.331981 0.073971
v -0.088053 -1.331199 0.077525
v -0.089250 -1.334336 0.079264
v -0.086907 -1.332913 0.083030
v -0.089495 -1.336518 0.085809
v -0.089858 -1.332911 0.086287
v -0.093569 -1.332704 0.086453
v -0.093725 -1.329189 0.086838
v -0.096319 -1.328364 0.088421
v -0.095925 -1.324651 0.089573
v -0.098932 -1.324141 0.091848
v -0.103549 -1.317107 0.086114
v -0.106672 -1.319648 0.089805
v -0.103534 -1.319442 0.091970
v -0.097793 -1.320936 0.090816
v -0.100736 -1.319570 0.092760
v -0.099171 -1.318798 0.088833
v -0.101834 -1.318017 0.088552
v -0.099681 -1.317140 0.084554
v -0.101315 -1.315272 0.082573
v -0.099354 -1.315524 0.079908
v -0.100273 -1.314025 0.077839
v -0.097826 -1.315224 0.076307
v -0.097954 -1.314750 0.074524
v -0.094235 -1.316715 0.073079
v -0.094171 -1.318651 0.070327
v -0.091008 -1.320797 0.070626
v -0.096068 -1.316973 0.077372
v -0.097703 -1.317257 0.080891
v -0.096192 -1.319893 0.082459
v -0.097925 -1.319566 0.086259
v -0.096553 -1.321646 0.088041
v -0.091594 -1.319427 0.074617
v -0.093847 -1.319888 0.078716
v -0.092429 -1.322613 0.080612
v -0.094805 -1.322625 0.084321
v -0.094046 -1.325618 0.085778
v -0.089235 -1.323525 0.073047
v -0.090404 -1.322679 0.076881
v -0.089292 -1.325854 0.079487
v -0.091560 -1.326101 0.083046
v -0.090714 -1.329382 0.084808
v -0.088205 -1.327206 0.075359
v -0.087876 -1.329793 0.081701
f 1 135 78
f 1 78 148
f 188 100 135
f 188 135 1
f 148 91 188
f 148 188 1
f 2 136 79
f 2 79 150
f 190 101 136
f 190 136 2
f 2 150 78
f 2 78 135
f 135 100 190
f 135 190 2
f 3 137 80
f 3 80 152
f 192 92 137
f 192 137 3
f 3 152 79
f 3 79 136
f 136 101 192
f 136 192 3
f 4 138 80
f 4 80 137
f 166 81 138
f 166 138 4
f 137 92 166
f 137 166 4
f 5 139 71
f 5 71 153
f 167 82 139
f 167 139 5
f 138 81 167
f 138 167 5
f 153 80 138
f 153 138 5
f 6 140 72
f 6 72 158
f 170 83 140
f 170 140 6
f 139 82 170
f 139 170 6
f 158 71 139
f 158 139 6
f 7 141 73
f 7 73 159
f 172 84 141
f 172 141 7
f 7 159 72
f 7 72 140
f 140 83 172
f 140 172 7
f 8 142 73
f 8 73 141
f 174 85 142
f 174 142 8
f 141 84 174
f 141 174 8
f 9 143 74
f 9 74 165
f 176 86 143
f 176 143 9
f 142 85 176
f 142 176 9
f 165 73 142
f 165 142 9
f 10 144 75
f 10 75 164
f 178 87 144
f 178 144 10
f 143 86 178
f 143 178 10
f 164 74 143
f 164 143 10
f 11 145 75
f 11 75 144
f 180 88 145
f 180 145 11
f 144 87 180
f 144 180 11
f 12 146 76
f 12 76 163
f 182 89 146
f 182 146 12
f 145 88 182
f 145 182 12
f 163 75 145
f 163 145 12
f 13 147 77
f 13 77 155
f 184 90 147
f 184 147 13
f 13 155 76
f 13 76 146
f 146 89 184
f 146 184 13
f 14 148 78
f 14 78 149
f 186 91 148
f 186 148 14
f 14 149 77
f 14 77 147
f 147 90 186
f 147 186 14
f 15 151 69
f 15 69 154
f 150 79 151
f 150 151 15
f 15 154 77
f 15 77 149
f 15 149 78
f 15 78 150
f 16 153 71
f 16 71 157
f 152 80 153
f 152 153 16
f 16 157 69
f 16 69 151
f 16 151 79
f 16 79 152
f 154 69 156
f 154 156 17
f 17 156 70
f 17 70 162
f 17 162 76
f 17 76 155
f 155 77 154
f 155 154 17
f 157 71 158
f 157 158 18
f 18 158 72
f 18 72 160
f 18 160 70
f 18 70 156
f 18 156 69
f 18 69 157
f 19 161 70
f 19 70 160
f 165 74 161
f 165 161 19
f 159 73 165
f 159 165 19
f 160 72 159
f 160 159 19
f 164 75 163
f 164 163 20
f 20 163 76
f 20 76 162
f 161 74 164
f 161 164 20
f 162 70 161
f 162 161 20
f 21 168 81
f 21 81 166
f 194 106 168
f 194 168 21
f 193 105 194
f 193 194 21
f 21 166 92
f 21 92 193
f 22 169 82
f 22 82 167
f 195 107 169
f 195 169 22
f 168 106 195
f 168 195 22
f 22 167 81
f 22 81 168
f 23 171 83
f 23 83 170
f 198 108 171
f 198 171 23
f 169 107 198
f 169 198 23
f 170 82 169
f 170 169 23
f 24 173 84
f 24 84 172
f 200 93 173
f 200 173 24
f 171 108 200
f 171 200 24
f 172 83 171
f 172 171 24
f 25 175 85
f 25 85 174
f 202 94 175
f 202 175 25
f 173 93 202
f 173 202 25
f 174 84 173
f 174 173 25
f 26 177 86
f 26 86 176
f 204 95 177
f 204 177 26
f 175 94 204
f 175 204 26
f 176 85 175
f 176 175 26
f 27 179 87
f 27 87 178
f 206 96 179
f 206 179 27
f 177 95 206
f 177 206 27
f 178 86 177
f 178 177 27
f 28 181 88
f 28 88 180
f 208 97 181
f 208 181 28
f 179 96 208
f 179 208 28
f 180 87 179
f 180 179 28
f 29 183 89
f 29 89 182
f 210 98 183
f 210 183 29
f 181 97 210
f 181 210 29
f 182 88 181
f 182 181 29
f 30 185 90
f 30 90 184
f 212 99 185
f 212 185 30
f 183 98 212
f 183 212 30
f 184 89 183
f 184 183 30
f 31 187 91
f 31 91 186
f 214 102 187
f 214 187 31
f 185 99 214
f 185 214 31
f 186 90 185
f 186 185 31
f 32 189 100
f 32 100 188
f 216 103 189
f 216 189 32
f 187 102 216
f 187 216 32
f 188 91 187
f 188 187 32
f 33 191 101
f 33 101 190
f 235 104 191
f 235 191 33
f 189 103 235
f 189 235 33
f 190 100 189
f 190 189 33
f 34 193 92
f 34 92 192
f 217 105 193
f 217 193 34
f 191 104 217
f 191 217 34
f 192 101 191
f 192 191 34
f 35 196 106
f 35 106 194
f 244 109 196
f 244 196 35
f 218 110 244
f 218 244 35
f 35 194 105
f 35 105 218
f 36 197 107
f 36 107 195
f 246 114 197
f 246 197 36
f 196 109 246
f 196 246 36
f 36 195 106
f 36 106 196
f 37 199 108
f 37 108 198
f 248 119 199
f 248 199 37
f 197 114 248
f 197 248 37
f 198 107 197
f 198 197 37
f 38 201 93
f 38 93 200
f 219 120 201
f 219 201 38
f 199 119 219
f 199 219 38
f 200 108 199
f 200 199 38
f 39 203 94
f 39 94 202
f 220 126 203
f 220 203 39
f 201 120 220
f 201 220 39
f 202 93 201
f 202 201 39
f 40 205 95
f 40 95 204
f 223 129 205
f 223 205 40
f 203 126 223
f 203 223 40
f 204 94 203
f 204 203 40
f 41 207 96
f 41 96 206
f 225 131 207
f 225 207 41
f 205 129 225
f 205 225 41
f 206 95 205
f 206 205 41
f 42 209 97
f 42 97 208
f 227 125 209
f 227 209 42
f 207 131 227
f 207 227 42
f 208 96 207
f 208 207 42
f 43 211 98
f 43 98 210
f 229 124 211
f 229 211 43
f 209 125 229
f 209 229 43
f 210 97 209
f 210 209 43
f 44 213 99
f 44 99 212
f 231 118 213
f 231 213 44
f 211 124 231
f 211 231 44
f 212 98 211
f 212 211 44
f 45 215 102
f 45 102 214
f 233 113 215
f 233 215 45
f 213 118 233
f 213 233 45
f 214 99 213
f 214 213 45
f 46 238 112
f 46 112 236
f 215 113 238
f 215 238 46
f 216 102 215
f 216 215 46
f 236 103 216
f 236 216 46
f 47 218 105
f 47 105 217
f 242 110 218
f 242 218 47
f 217 104 234
f 217 234 47
f 47 234 111
f 47 111 242
f 48 221 120
f 48 120 219
f 260 127 221
f 260 221 48
f 249 128 260
f 249 260 48
f 48 219 119
f 48 119 249
f 49 222 126
f 49 126 220
f 221 127 222
f 221 222 49
f 49 220 120
f 49 120 221
f 50 224 129
f 50 129 223
f 265 130 224
f 265 224 50
f 223 126 222
f 223 222 50
f 50 222 127
f 50 127 265
f 51 226 131
f 51 131 225
f 266 132 226
f 266 226 51
f 225 129 224
f 225 224 51
f 51 224 130
f 51 130 266
f 52 228 125
f 52 125 227
f 226 132 228
f 226 228 52
f 227 131 226
f 227 226 52
f 53 230 124
f 53 124 229
f 264 134 230
f 264 230 53
f 229 125 228
f 229 228 53
f 53 228 132
f 53 132 264
f 54 232 118
f 54 118 231
f 259 123 232
f 259 232 54
f 231 124 230
f 231 230 54
f 54 230 134
f 54 134 259
f 55 237 113
f 55 113 233
f 254 117 237
f 254 237 55
f 233 118 232
f 233 232 55
f 55 232 123
f 55 123 254
f 235 103 236
f 235 236 56
f 56 236 112
f 56 112 240
f 56 240 111
f 56 111 234
f 56 234 104
f 56 104 235
f 57 239 112
f 57 112 238
f 237 117 239
f 237 239 57
f 238 113 237
f 238 237 57
f 58 241 111
f 58 111 240
f 253 116 241
f 253 241 58
f 239 117 253
f 239 253 58
f 240 112 239
f 240 239 58
f 59 243 110
f 59 110 242
f 251 115 243
f 251 243 59
f 241 116 251
f 241 251 59
f 242 111 241
f 242 241 59
f 60 245 109
f 60 109 244
f 243 115 245
f 243 245 60
f 244 110 243
f 244 243 60
f 61 247 114
f 61 114 246
f 250 121 247
f 250 247 61
f 245 115 250
f 245 250 61
f 246 109 245
f 246 245 61
f 62 249 119
f 62 119 248
f 255 128 249
f 255 249 62
f 247 121 255
f 247 255 62
f 248 114 247
f 248 247 62
f 251 116 252
f 251 252 63
f 63 252 122
f 63 122 256
f 63 256 121
f 63 121 250
f 63 250 115
f 63 115 251
f 253 117 254
f 253 254 64
f 64 254 123
f 64 123 258
f 64 258 122
f 64 122 252
f 64 252 116
f 64 116 253
f 256 122 257
f 256 257 65
f 65 257 133
f 65 133 261
f 65 261 128
f 65 128 255
f 65 255 121
f 65 121 256
f 258 123 259
f 258 259 66
f 66 259 134
f 66 134 263
f 66 263 133
f 66 133 257
f 66 257 122
f 66 122 258
f 67 262 130
f 67 130 265
f 261 133 262
f 261 262 67
f 67 265 127
f 67 127 260
f 67 260 128
f 67 128 261
f 68 264 132
f 68 132 266
f 263 134 264
f 263 264 68
f 68 266 130
f 68 130 262
f 68 262 133
f 68 133 263
