# Navicular_R rest
v -0.100113 -1.292524 0.025291
v -0.096348 -1.293847 0.026706
v -0.091524 -1.299685 0.023486
v -0.090089 -1.303124 0.018904
v -0.088052 -1.305070 0.010178
v -0.087115 -1.310176 0.012881
v -0.092142 -1.320898 0.031568
v -0.097304 -1.321180 0.035512
v -0.102948 -1.322349 0.040093
v -0.107294 -1.321177 0.041498
v -0.109318 -1.316054 0.041048
v -0.109201 -1.308784 0.034484
v -0.106349 -1.300303 0.028275
v -0.103768 -1.295257 0.025038
v -0.093099 -1.296613 0.025840
v -0.088606 -1.316573 0.021950
v -0.101319 -1.292619 0.034698
v -0.097223 -1.294104 0.036629
v -0.092649 -1.297953 0.035585
v -0.090013 -1.301417 0.032093
v -0.087702 -1.303982 0.025985
v -0.086402 -1.305709 0.019933
v -0.085619 -1.309628 0.022581
v -0.086267 -1.316095 0.028506
v -0.089627 -1.322150 0.037033
v -0.097830 -1.324297 0.044775
v -0.103944 -1.325186 0.050014
v -0.109157 -1.323374 0.050219
v -0.111543 -1.317811 0.047010
v -0.111526 -1.309403 0.040111
v -0.108531 -1.301007 0.034984
v -0.105511 -1.295581 0.032171
v -0.087203 -1.309373 0.034194
v -0.090006 -1.304879 0.042272
v -0.094202 -1.301383 0.046780
v -0.098951 -1.296916 0.046464
v -0.102395 -1.294639 0.042362
v -0.106685 -1.298075 0.041642
v -0.109531 -1.302870 0.043546
v -0.112200 -1.310207 0.046209
v -0.112785 -1.319226 0.053027
v -0.109757 -1.324359 0.056252
v -0.103745 -1.324886 0.059476
v -0.097775 -1.323848 0.055496
v -0.089941 -1.321920 0.046403
v -0.086838 -1.315098 0.037640
v -0.088906 -1.312587 0.048207
v -0.091184 -1.308214 0.052946
v -0.096556 -1.303729 0.056111
v -0.101242 -1.300625 0.056446
v -0.104256 -1.298431 0.051823
v -0.107773 -1.300677 0.049569
v -0.110250 -1.304848 0.049674
v -0.112227 -1.310646 0.051464
v -0.113729 -1.320116 0.059237
v -0.111140 -1.325019 0.062164
v -0.104725 -1.323855 0.063335
v -0.097358 -1.321851 0.056910
v -0.090969 -1.319892 0.050968
v -0.088334 -1.315663 0.046719
v -0.092701 -1.317173 0.054544
v -0.097871 -1.319915 0.058812
v -0.105256 -1.321466 0.065516
v -0.109890 -1.319814 0.061091
v -0.111041 -1.316595 0.058122
v -0.110095 -1.312106 0.056215
v -0.109340 -1.308054 0.053987
v -0.094522 -1.312403 0.057927
v -0.099367 -1.308755 0.061342
v -0.102626 -1.306087 0.058853
v -0.104641 -1.304174 0.056233
v -0.098290 -1.315936 0.061144
v -0.103049 -1.314904 0.064512
v -0.106413 -1.313793 0.062246
v -0.107291 -1.305503 0.054644
v -0.105811 -1.308974 0.036478
v -0.105386 -1.314149 0.039704
v -0.103563 -1.316996 0.040119
v -0.101378 -1.319455 0.038899
v -0.097316 -1.318436 0.034069
v -0.094612 -1.317368 0.029459
v -0.091405 -1.314583 0.022306
v -0.089845 -1.311587 0.016892
v -0.091088 -1.308177 0.018501
v -0.092354 -1.305959 0.024086
v -0.094419 -1.302939 0.027372
v -0.094997 -1.299588 0.027577
v -0.097456 -1.297256 0.027940
v -0.100551 -1.296692 0.026958
v -0.102948 -1.298432 0.027829
v -0.104923 -1.302893 0.031446
v -0.102494 -1.307266 0.035735
v -0.101161 -1.312506 0.038289
v -0.099337 -1.305399 0.032973
v -0.098187 -1.310587 0.035532
v -0.096935 -1.303965 0.030957
v -0.095549 -1.308544 0.031307
v -0.093881 -1.311061 0.027130
v -0.097332 -1.313940 0.034792
v -0.100496 -1.315471 0.038697
f 23 22 21
f 23 21 33
f 34 33 21
f 34 21 20
f 35 34 20
f 35 20 19
f 36 35 19
f 36 19 18
f 37 36 18
f 37 18 17
f 38 37 17
f 38 17 32
f 39 38 32
f 39 32 31
f 40 39 31
f 40 31 30
f 41 40 30
f 41 30 29
f 42 41 29
f 42 29 28
f 43 42 28
f 43 28 27
f 44 43 27
f 44 27 26
f 45 44 26
f 45 26 25
f 46 45 25
f 46 25 24
f 46 24 23
f 46 23 33
f 59 58 44
f 59 44 45
f 59 45 46
f 59 46 60
f 60 46 33
f 60 33 47
f 57 43 44
f 57 44 58
f 56 42 43
f 56 43 57
f 55 41 42
f 55 42 56
f 54 40 41
f 54 41 55
f 53 39 40
f 53 40 54
f 47 33 34
f 47 34 48
f 59 60 47
f 59 47 61
f 49 48 34
f 49 34 35
f 50 49 35
f 50 35 36
f 51 50 36
f 51 36 37
f 58 59 61
f 58 61 62
f 61 47 48
f 61 48 68
f 72 62 61
f 72 61 68
f 57 58 62
f 57 62 63
f 69 68 48
f 69 48 49
f 63 62 72
f 63 72 73
f 73 72 68
f 73 68 69
f 70 69 49
f 70 49 50
f 56 57 63
f 56 63 64
f 65 55 56
f 65 56 64
f 54 55 65
f 54 65 66
f 74 73 69
f 74 69 70
f 52 51 37
f 52 37 38
f 52 38 39
f 52 39 53
f 71 70 50
f 71 50 51
f 53 54 66
f 53 66 67
f 71 51 52
f 71 52 75
f 64 63 73
f 64 73 74
f 74 70 71
f 74 71 75
f 66 65 64
f 66 64 74
f 75 67 66
f 75 66 74
f 75 52 53
f 75 53 67
f 29 30 12
f 29 12 11
f 13 12 30
f 13 30 31
f 14 13 31
f 14 31 32
f 1 14 32
f 1 32 17
f 1 17 18
f 1 18 2
f 15 2 18
f 15 18 19
f 3 15 19
f 3 19 20
f 4 3 20
f 4 20 21
f 5 4 21
f 5 21 22
f 6 5 22
f 6 22 23
f 16 6 23
f 16 23 24
f 7 16 24
f 7 24 25
f 8 7 25
f 8 25 26
f 9 8 26
f 9 26 27
f 10 9 27
f 10 27 28
f 28 29 11
f 28 11 10
f 76 12 13
f 76 13 91
f 11 12 76
f 11 76 77
f 90 91 13
f 90 13 14
f 89 90 14
f 89 14 1
f 92 76 91
f 92 91 90
f 2 15 87
f 2 87 88
f 88 89 1
f 88 1 2
f 92 90 89
f 92 89 94
f 86 87 15
f 86 15 3
f 94 89 88
f 94 88 96
f 88 87 86
f 88 86 96
f 85 86 3
f 85 3 4
f 96 86 85
f 96 85 97
f 84 85 4
f 84 4 5
f 95 94 96
f 95 96 97
f 93 77 76
f 93 76 92
f 93 92 94
f 93 94 95
f 10 11 77
f 10 77 78
f 9 10 78
f 9 78 79
f 80 79 78
f 80 78 100
f 8 9 79
f 8 79 80
f 78 77 93
f 78 93 100
f 83 84 5
f 83 5 6
f 81 82 16
f 81 16 7
f 7 8 80
f 7 80 81
f 81 80 100
f 81 100 99
f 100 93 95
f 100 95 99
f 82 81 99
f 82 99 98
f 98 84 83
f 98 83 82
f 82 83 6
f 82 6 16
f 98 97 85
f 98 85 84
f 99 95 97
f 99 97 98
