# Navicular_L posed
v 0.783886 -0.087596 0.326210
v 0.782571 -0.081874 0.328226
v 0.782185 -0.075707 0.337732
v 0.782350 -0.074945 0.344190
v 0.780618 -0.075353 0.351379
v 0.783101 -0.071598 0.355956
v 0.795473 -0.067735 0.356227
v 0.799133 -0.073043 0.352765
v 0.803483 -0.078386 0.349878
v 0.805204 -0.083860 0.346561
v 0.803300 -0.088004 0.340678
v 0.798626 -0.092139 0.336080
v 0.791909 -0.092820 0.330921
v 0.787393 -0.091865 0.327980
v 0.781925 -0.077434 0.332737
v 0.789136 -0.068119 0.357743
v 0.786328 -0.084985 0.321268
v 0.785070 -0.078581 0.323284
v 0.784189 -0.072278 0.329487
v 0.783784 -0.069543 0.335859
v 0.782608 -0.068453 0.342499
v 0.781594 -0.068829 0.347872
v 0.783700 -0.065626 0.351059
v 0.788822 -0.062288 0.354756
v 0.795982 -0.061626 0.355646
v 0.803031 -0.068986 0.351220
v 0.807409 -0.074811 0.347609
v 0.808700 -0.082182 0.344033
v 0.806251 -0.088007 0.338956
v 0.801084 -0.092584 0.333251
v 0.794575 -0.092565 0.327683
v 0.789749 -0.090921 0.324257
v 0.786866 -0.062922 0.344303
v 0.787751 -0.064287 0.334403
v 0.789201 -0.068689 0.326943
v 0.789514 -0.075935 0.320734
v 0.789469 -0.082615 0.319222
v 0.793344 -0.087855 0.321848
v 0.797487 -0.089827 0.325144
v 0.802764 -0.090752 0.330924
v 0.808468 -0.086843 0.337161
v 0.810494 -0.080263 0.341920
v 0.809028 -0.070640 0.342552
v 0.805072 -0.064457 0.345256
v 0.798163 -0.058122 0.350433
v 0.790583 -0.059461 0.348784
v 0.792741 -0.058345 0.339928
v 0.792697 -0.060368 0.332047
v 0.793871 -0.067138 0.323861
v 0.794892 -0.073737 0.318834
v 0.794371 -0.080123 0.317873
v 0.796758 -0.085298 0.320313
v 0.799931 -0.087743 0.323998
v 0.803837 -0.088510 0.328804
v 0.810273 -0.085352 0.334803
v 0.812465 -0.079491 0.339283
v 0.809630 -0.070596 0.339212
v 0.804018 -0.063821 0.342546
v 0.798574 -0.058116 0.345564
v 0.793813 -0.057440 0.344165
v 0.798692 -0.059649 0.340261
v 0.803553 -0.064203 0.339360
v 0.808917 -0.070994 0.335423
v 0.808633 -0.079677 0.334698
v 0.806986 -0.083139 0.332375
v 0.804158 -0.083559 0.328717
v 0.801619 -0.084224 0.325634
v 0.797760 -0.061777 0.332848
v 0.798991 -0.067577 0.325657
v 0.798587 -0.073586 0.323077
v 0.798086 -0.077750 0.321725
v 0.802100 -0.064703 0.333790
v 0.804362 -0.069914 0.329543
v 0.804561 -0.075743 0.328575
v 0.799626 -0.081703 0.323155
v 0.797062 -0.087030 0.336430
v 0.799968 -0.083986 0.340557
v 0.800654 -0.080708 0.343981
v 0.800776 -0.077629 0.347902
v 0.797295 -0.074448 0.350551
v 0.794431 -0.072993 0.352635
v 0.789798 -0.072364 0.354366
v 0.786297 -0.073296 0.354414
v 0.785549 -0.075225 0.349449
v 0.786068 -0.075152 0.343839
v 0.786234 -0.077230 0.338251
v 0.784873 -0.078618 0.334370
v 0.785169 -0.082162 0.330848
v 0.786526 -0.086706 0.329661
v 0.788929 -0.089078 0.330277
v 0.792819 -0.089219 0.332630
v 0.794276 -0.083428 0.336043
v 0.796685 -0.079423 0.340851
v 0.791173 -0.080855 0.336440
v 0.793668 -0.077073 0.341130
v 0.788784 -0.078837 0.336710
v 0.790458 -0.075798 0.341920
v 0.790167 -0.074675 0.347270
v 0.794906 -0.075395 0.345374
v 0.798029 -0.077622 0.344038
f 33 21 22
f 33 22 23
f 20 21 33
f 20 33 34
f 19 20 34
f 19 34 35
f 18 19 35
f 18 35 36
f 17 18 36
f 17 36 37
f 32 17 37
f 32 37 38
f 31 32 38
f 31 38 39
f 30 31 39
f 30 39 40
f 29 30 40
f 29 40 41
f 28 29 41
f 28 41 42
f 27 28 42
f 27 42 43
f 26 27 43
f 26 43 44
f 25 26 44
f 25 44 45
f 24 25 45
f 24 45 46
f 33 23 24
f 33 24 46
f 45 44 58
f 45 58 59
f 60 46 45
f 60 45 59
f 47 33 46
f 47 46 60
f 58 44 43
f 58 43 57
f 57 43 42
f 57 42 56
f 56 42 41
f 56 41 55
f 55 41 40
f 55 40 54
f 54 40 39
f 54 39 53
f 48 34 33
f 48 33 47
f 61 47 60
f 61 60 59
f 35 34 48
f 35 48 49
f 36 35 49
f 36 49 50
f 37 36 50
f 37 50 51
f 62 61 59
f 62 59 58
f 68 48 47
f 68 47 61
f 68 61 62
f 68 62 72
f 63 62 58
f 63 58 57
f 49 48 68
f 49 68 69
f 73 72 62
f 73 62 63
f 69 68 72
f 69 72 73
f 50 49 69
f 50 69 70
f 64 63 57
f 64 57 56
f 64 56 55
f 64 55 65
f 66 65 55
f 66 55 54
f 70 69 73
f 70 73 74
f 38 37 51
f 38 51 52
f 53 39 38
f 53 38 52
f 51 50 70
f 51 70 71
f 67 66 54
f 67 54 53
f 75 52 51
f 75 51 71
f 74 73 63
f 74 63 64
f 75 71 70
f 75 70 74
f 74 64 65
f 74 65 66
f 74 66 67
f 74 67 75
f 67 53 52
f 67 52 75
f 11 12 30
f 11 30 29
f 31 30 12
f 31 12 13
f 32 31 13
f 32 13 14
f 17 32 14
f 17 14 1
f 2 18 17
f 2 17 1
f 19 18 2
f 19 2 15
f 20 19 15
f 20 15 3
f 21 20 3
f 21 3 4
f 22 21 4
f 22 4 5
f 23 22 5
f 23 5 6
f 24 23 6
f 24 6 16
f 25 24 16
f 25 16 7
f 26 25 7
f 26 7 8
f 27 26 8
f 27 8 9
f 28 27 9
f 28 9 10
f 10 11 29
f 10 29 28
f 91 13 12
f 91 12 76
f 77 76 12
f 77 12 11
f 14 13 91
f 14 91 90
f 1 14 90
f 1 90 89
f 90 91 76
f 90 76 92
f 88 87 15
f 88 15 2
f 2 1 89
f 2 89 88
f 94 89 90
f 94 90 92
f 3 15 87
f 3 87 86
f 96 88 89
f 96 89 94
f 96 86 87
f 96 87 88
f 4 3 86
f 4 86 85
f 97 85 86
f 97 86 96
f 5 4 85
f 5 85 84
f 97 96 94
f 97 94 95
f 92 76 77
f 92 77 93
f 95 94 92
f 95 92 93
f 78 77 11
f 78 11 10
f 79 78 10
f 79 10 9
f 100 78 79
f 100 79 80
f 80 79 9
f 80 9 8
f 100 93 77
f 100 77 78
f 6 5 84
f 6 84 83
f 7 16 82
f 7 82 81
f 81 80 8
f 81 8 7
f 99 100 80
f 99 80 81
f 99 95 93
f 99 93 100
f 98 99 81
f 98 81 82
f 82 83 84
f 82 84 98
f 16 6 83
f 16 83 82
f 84 85 97
f 84 97 98
f 98 97 95
f 98 95 99
