# Patella_R posed
v 0.310865 0.162565 0.285662
v 0.315239 0.164211 0.287182
v 0.328697 0.168872 0.298924
v 0.331089 0.168367 0.300771
v 0.322608 0.167018 0.293082
v 0.331767 0.165231 0.300144
v 0.333884 0.158637 0.297474
v 0.333803 0.152821 0.292661
v 0.327756 0.150331 0.289118
v 0.320131 0.151684 0.285731
v 0.314936 0.156065 0.284592
v 0.312018 0.159820 0.284961
v 0.319185 0.157645 0.286713
v 0.325561 0.159231 0.290753
v 0.331088 0.160252 0.295768
v 0.316817 0.161480 0.286390
v 0.324114 0.163938 0.291938
v 0.329729 0.165097 0.297589
v 0.321123 0.154787 0.287287
v 0.326496 0.155236 0.290198
v 0.330940 0.156230 0.293094
v 0.310368 0.165274 0.284754
v 0.314116 0.165754 0.286515
v 0.322591 0.168462 0.292742
v 0.328745 0.171153 0.297763
v 0.332320 0.172986 0.298655
v 0.309204 0.161213 0.283391
v 0.311030 0.158754 0.282008
v 0.334727 0.168326 0.301817
v 0.334938 0.164492 0.301008
v 0.337793 0.156903 0.295380
v 0.336514 0.151266 0.289718
v 0.328586 0.148545 0.286526
v 0.319793 0.150468 0.282421
v 0.314368 0.154735 0.281246
v 0.308021 0.164960 0.283073
v 0.310333 0.164135 0.285411
v 0.314953 0.165038 0.287560
v 0.322323 0.167931 0.293393
v 0.328279 0.170308 0.298914
v 0.331570 0.171176 0.300617
v 0.307667 0.163500 0.283690
v 0.335621 0.172301 0.300617
v 0.336609 0.175651 0.298208
v 0.311145 0.167766 0.281411
v 0.308956 0.167689 0.279394
v 0.314412 0.174969 0.278765
v 0.319925 0.180840 0.279738
v 0.326044 0.183966 0.281717
v 0.335030 0.184563 0.284553
v 0.337712 0.182063 0.289721
v 0.337051 0.178216 0.294836
v 0.315400 0.168290 0.282834
v 0.324859 0.171138 0.287971
v 0.331276 0.173981 0.292865
v 0.333970 0.176053 0.294646
v 0.317473 0.173922 0.280312
v 0.322299 0.178289 0.280891
v 0.326898 0.180525 0.282269
v 0.332737 0.183033 0.285742
v 0.334595 0.180304 0.289704
v 0.326678 0.175619 0.283579
v 0.327656 0.184271 0.278403
v 0.330816 0.180514 0.284625
v 0.332134 0.177996 0.287570
v 0.320245 0.180390 0.275836
v 0.313100 0.175433 0.276148
v 0.343093 0.172464 0.297050
v 0.343127 0.175775 0.296342
v 0.344046 0.179374 0.292085
v 0.342534 0.181696 0.285307
v 0.338194 0.181853 0.278695
v 0.329545 0.181065 0.274065
v 0.321849 0.177185 0.271739
v 0.316037 0.172618 0.271167
v 0.310818 0.167304 0.274923
v 0.308878 0.164415 0.278451
v 0.308924 0.162403 0.279158
v 0.309833 0.160454 0.279061
v 0.312140 0.157734 0.277349
v 0.315523 0.154823 0.275359
v 0.323002 0.150540 0.275167
v 0.332054 0.149382 0.279486
v 0.340055 0.151690 0.284739
v 0.342606 0.157932 0.291488
v 0.342179 0.164018 0.295157
v 0.342272 0.168526 0.296854
v 0.311518 0.162144 0.274709
v 0.311753 0.160259 0.275542
v 0.311483 0.164471 0.273993
v 0.313484 0.159160 0.274009
v 0.312155 0.166542 0.272979
v 0.316233 0.167889 0.269423
v 0.324170 0.172340 0.268572
v 0.332125 0.175328 0.270719
v 0.339947 0.177165 0.275296
v 0.345985 0.177958 0.279733
v 0.316727 0.158230 0.271756
v 0.325374 0.155332 0.270250
v 0.335007 0.155087 0.272110
v 0.342584 0.157050 0.277140
v 0.348382 0.160758 0.281839
v 0.316905 0.162358 0.270053
v 0.326931 0.164118 0.267171
v 0.334573 0.165632 0.269200
v 0.342464 0.167845 0.273483
v 0.348724 0.169527 0.277258
v 0.316796 0.160267 0.271054
v 0.326794 0.161078 0.267717
v 0.335057 0.162749 0.268802
v 0.342849 0.165266 0.273104
v 0.349360 0.167578 0.277199
v 0.316537 0.164867 0.269366
v 0.326275 0.166308 0.267138
v 0.334251 0.168126 0.268570
v 0.342104 0.170429 0.272889
v 0.348991 0.171915 0.276653
v 0.352260 0.177397 0.287268
v 0.353291 0.174672 0.291077
v 0.352487 0.172377 0.292187
v 0.352890 0.169547 0.290895
v 0.352839 0.166199 0.288048
v 0.356000 0.173286 0.284313
v 0.355753 0.170222 0.284467
v 0.356062 0.171856 0.284170
v 0.355792 0.173674 0.288000
v 0.355767 0.172348 0.288247
v 0.355633 0.170962 0.287970
f 17 16 13
f 17 13 14
f 14 13 19
f 14 19 20
f 18 17 14
f 18 14 15
f 15 14 20
f 15 20 21
f 3 5 17
f 3 17 18
f 6 4 3
f 6 3 18
f 7 6 18
f 7 18 15
f 8 7 15
f 8 15 21
f 9 8 21
f 9 21 20
f 10 9 20
f 10 20 19
f 11 10 19
f 11 19 13
f 13 16 12
f 13 12 11
f 1 12 16
f 1 16 2
f 16 17 5
f 16 5 2
f 2 38 37
f 2 37 1
f 38 2 5
f 38 5 39
f 39 5 3
f 39 3 40
f 40 3 4
f 40 4 41
f 23 22 37
f 23 37 38
f 24 23 38
f 24 38 39
f 25 24 39
f 25 39 40
f 26 25 40
f 26 40 41
f 60 49 59
f 60 59 64
f 53 45 22
f 53 22 23
f 54 53 23
f 54 23 24
f 62 57 53
f 62 53 54
f 62 59 58
f 62 58 57
f 55 25 26
f 55 26 56
f 61 60 64
f 61 64 65
f 55 54 24
f 55 24 25
f 65 62 54
f 65 54 55
f 55 56 61
f 55 61 65
f 64 59 62
f 64 62 65
f 58 59 49
f 58 49 48
f 57 58 48
f 57 48 47
f 47 45 53
f 47 53 57
f 26 41 43
f 26 43 44
f 56 26 44
f 56 44 52
f 61 56 52
f 61 52 51
f 60 61 51
f 60 51 50
f 49 60 50
f 49 50 63
f 48 49 63
f 48 63 66
f 47 48 66
f 47 66 67
f 46 45 47
f 46 47 67
f 36 22 45
f 36 45 46
f 42 37 22
f 42 22 36
f 1 37 42
f 1 42 27
f 28 12 1
f 28 1 27
f 35 11 12
f 35 12 28
f 34 10 11
f 34 11 35
f 33 9 10
f 33 10 34
f 32 8 9
f 32 9 33
f 31 7 8
f 31 8 32
f 30 6 7
f 30 7 31
f 43 41 4
f 43 4 29
f 29 4 6
f 29 6 30
f 27 42 78
f 27 78 79
f 78 42 36
f 78 36 77
f 28 27 79
f 28 79 80
f 77 36 46
f 77 46 76
f 76 46 67
f 76 67 75
f 75 67 66
f 75 66 74
f 74 66 63
f 74 63 73
f 73 63 50
f 73 50 72
f 72 50 51
f 72 51 71
f 35 28 80
f 35 80 81
f 34 35 81
f 34 81 82
f 33 34 82
f 33 82 83
f 32 33 83
f 32 83 84
f 31 32 84
f 31 84 85
f 79 78 88
f 79 88 89
f 91 80 79
f 91 79 89
f 90 77 76
f 90 76 92
f 88 78 77
f 88 77 90
f 81 80 91
f 81 91 98
f 98 91 89
f 98 89 108
f 108 89 88
f 108 88 103
f 93 92 76
f 93 76 75
f 113 90 92
f 113 92 93
f 103 88 90
f 103 90 113
f 82 81 98
f 82 98 99
f 99 98 108
f 99 108 109
f 109 108 103
f 109 103 104
f 83 82 99
f 83 99 100
f 100 99 109
f 100 109 110
f 110 109 104
f 110 104 105
f 94 93 75
f 94 75 74
f 114 113 93
f 114 93 94
f 104 103 113
f 104 113 114
f 84 83 100
f 84 100 101
f 101 100 110
f 101 110 111
f 111 110 105
f 111 105 106
f 95 94 74
f 95 74 73
f 115 114 94
f 115 94 95
f 95 73 72
f 95 72 96
f 95 96 116
f 95 116 115
f 105 104 114
f 105 114 115
f 116 106 105
f 116 105 115
f 71 51 52
f 71 52 70
f 97 96 72
f 97 72 71
f 70 52 44
f 70 44 69
f 69 44 43
f 69 43 68
f 68 43 29
f 68 29 87
f 87 29 30
f 87 30 86
f 30 31 85
f 30 85 86
f 85 84 101
f 85 101 102
f 97 71 70
f 97 70 118
f 117 116 96
f 117 96 97
f 102 101 111
f 102 111 112
f 122 86 85
f 122 85 102
f 112 111 106
f 112 106 107
f 107 106 116
f 107 116 117
f 119 118 70
f 119 70 69
f 117 97 118
f 117 118 123
f 123 118 119
f 123 119 126
f 125 107 117
f 125 117 123
f 120 119 69
f 120 69 68
f 124 112 107
f 124 107 125
f 122 102 112
f 122 112 124
f 126 119 120
f 126 120 127
f 125 123 126
f 125 126 127
f 121 120 68
f 121 68 87
f 128 127 120
f 128 120 121
f 121 87 86
f 121 86 122
f 121 122 124
f 121 124 128
f 128 124 125
f 128 125 127
