# Pisiform_L posed
v -0.713246 -0.330177 0.371772
v -0.711514 -0.327015 0.370578
v -0.712782 -0.324268 0.370283
v -0.715341 -0.323570 0.370105
v -0.722134 -0.329197 0.370771
v -0.720630 -0.331308 0.372189
v -0.716083 -0.323550 0.367436
v -0.721209 -0.326387 0.368319
v -0.718895 -0.326220 0.369930
v -0.712226 -0.324166 0.367443
v -0.710807 -0.327876 0.369460
v -0.713381 -0.331897 0.371444
v -0.717854 -0.331698 0.372779
v -0.717776 -0.333181 0.371709
v -0.721513 -0.332311 0.370444
v -0.723692 -0.329287 0.369537
v -0.716213 -0.327661 0.370514
v -0.713399 -0.331739 0.369762
v -0.711764 -0.328023 0.367788
v -0.713485 -0.325015 0.365897
v -0.717082 -0.325076 0.366094
v -0.720311 -0.327026 0.367001
v -0.722033 -0.329349 0.368037
v -0.716946 -0.332852 0.369573
v -0.719835 -0.332376 0.368553
v -0.715003 -0.330753 0.367924
v -0.717139 -0.331805 0.367926
v -0.718723 -0.331172 0.367322
v -0.720709 -0.329631 0.367291
v -0.719283 -0.328211 0.366622
v -0.717647 -0.326714 0.366097
v -0.715457 -0.326893 0.365932
v -0.713789 -0.327946 0.366737
v -0.716895 -0.329285 0.366504
v -0.718798 -0.329799 0.371409
v -0.714532 -0.328960 0.371179
v -0.716216 -0.331006 0.372440
v -0.719351 -0.331738 0.372766
v -0.717472 -0.330437 0.372033
v -0.717984 -0.332375 0.372568
v -0.713195 -0.331117 0.371969
v -0.715346 -0.332805 0.371805
v -0.715719 -0.332050 0.372313
v -0.711853 -0.325672 0.369945
v -0.711581 -0.328583 0.370700
v -0.714107 -0.325904 0.369897
v -0.712537 -0.327289 0.370113
v -0.710853 -0.327221 0.370349
v -0.711298 -0.330177 0.370816
v -0.711276 -0.329413 0.371330
v -0.710946 -0.325849 0.368136
v -0.712400 -0.324086 0.368651
v -0.711247 -0.325527 0.369278
v -0.717707 -0.326838 0.370111
v -0.716733 -0.324394 0.369723
v -0.714022 -0.323545 0.370353
v -0.715576 -0.324945 0.370012
v -0.715725 -0.323335 0.368855
v -0.713714 -0.323356 0.367102
v -0.713654 -0.323387 0.368424
v -0.718803 -0.324537 0.368010
v -0.720534 -0.326291 0.369509
v -0.718237 -0.324435 0.369205
v -0.721114 -0.327918 0.370427
v -0.723367 -0.329276 0.370503
v -0.722948 -0.327769 0.368946
v -0.722500 -0.327802 0.369971
v -0.721816 -0.330347 0.371543
v -0.720052 -0.328848 0.370918
v -0.723011 -0.330931 0.370065
v -0.721589 -0.332009 0.371613
v -0.722958 -0.330890 0.371040
v -0.719826 -0.333057 0.371223
v -0.720070 -0.332562 0.372204
v -0.720821 -0.326625 0.367534
v -0.718768 -0.325904 0.366416
v -0.716387 -0.324248 0.366547
v -0.718672 -0.325117 0.367062
v -0.714945 -0.324664 0.365884
v -0.712762 -0.324525 0.366539
v -0.713974 -0.323875 0.366326
v -0.722827 -0.329254 0.368671
v -0.721442 -0.328122 0.367544
v -0.722259 -0.327923 0.368148
v -0.710937 -0.328122 0.368822
v -0.712177 -0.326329 0.366581
v -0.711235 -0.326061 0.367400
v -0.711873 -0.330174 0.369061
v -0.713284 -0.331949 0.370698
v -0.711309 -0.330310 0.370109
v -0.715357 -0.332529 0.369981
v -0.717239 -0.333154 0.370565
v -0.715227 -0.332866 0.370993
v -0.718445 -0.333091 0.369154
v -0.720618 -0.332555 0.369478
v -0.718979 -0.333297 0.370156
v -0.721293 -0.331064 0.368233
v -0.722175 -0.331191 0.369000
v -0.712870 -0.327914 0.367138
v -0.714009 -0.329346 0.367384
v -0.714183 -0.331333 0.368761
v -0.712920 -0.329749 0.368174
v -0.716189 -0.331414 0.367991
v -0.717035 -0.332323 0.368600
v -0.715658 -0.331966 0.368703
v -0.714558 -0.325672 0.365744
v -0.714551 -0.327338 0.366193
v -0.713267 -0.326589 0.366265
v -0.717583 -0.326047 0.366034
v -0.716688 -0.326770 0.366001
v -0.715878 -0.325655 0.365880
v -0.719966 -0.327577 0.366816
v -0.718273 -0.327496 0.366259
v -0.718618 -0.326657 0.366277
v -0.721410 -0.329458 0.367676
v -0.720172 -0.329019 0.366951
v -0.720926 -0.328496 0.367240
v -0.719258 -0.331803 0.367856
v -0.719930 -0.330303 0.367246
v -0.720627 -0.330709 0.367758
v -0.717979 -0.331550 0.367565
v -0.718012 -0.332355 0.368208
v -0.715955 -0.329950 0.367096
v -0.717716 -0.330293 0.366804
v -0.716922 -0.330792 0.367233
v -0.716137 -0.328109 0.366225
v -0.715015 -0.328700 0.366608
v -0.718004 -0.328691 0.366356
v -0.718842 -0.329609 0.366741
v -0.717332 -0.327694 0.366133
f 6 38 39
f 6 39 35
f 35 39 36
f 35 36 17
f 39 37 1
f 39 1 36
f 38 13 37
f 38 37 39
f 14 42 43
f 14 43 40
f 40 43 37
f 40 37 13
f 43 41 1
f 43 1 37
f 42 12 41
f 42 41 43
f 3 46 47
f 3 47 44
f 44 47 45
f 44 45 2
f 47 36 1
f 47 1 45
f 46 17 36
f 46 36 47
f 12 49 50
f 12 50 41
f 41 50 45
f 41 45 1
f 50 48 2
f 50 2 45
f 49 11 48
f 49 48 50
f 10 52 53
f 10 53 51
f 51 53 48
f 51 48 11
f 53 44 2
f 53 2 48
f 52 3 44
f 52 44 53
f 3 56 57
f 3 57 46
f 46 57 54
f 46 54 17
f 57 55 9
f 57 9 54
f 56 4 55
f 56 55 57
f 10 59 60
f 10 60 52
f 52 60 56
f 52 56 3
f 60 58 4
f 60 4 56
f 59 7 58
f 59 58 60
f 8 62 63
f 8 63 61
f 61 63 58
f 61 58 7
f 63 55 4
f 63 4 58
f 62 9 55
f 62 55 63
f 9 62 67
f 9 67 64
f 64 67 65
f 64 65 5
f 67 66 16
f 67 16 65
f 62 8 66
f 62 66 67
f 6 35 69
f 6 69 68
f 68 69 64
f 68 64 5
f 69 54 9
f 69 9 64
f 35 17 54
f 35 54 69
f 15 71 72
f 15 72 70
f 70 72 65
f 70 65 16
f 72 68 5
f 72 5 65
f 71 6 68
f 71 68 72
f 14 40 74
f 14 74 73
f 73 74 71
f 73 71 15
f 74 38 6
f 74 6 71
f 40 13 38
f 40 38 74
f 8 61 78
f 8 78 75
f 75 78 76
f 75 76 22
f 78 77 21
f 78 21 76
f 61 7 77
f 61 77 78
f 7 59 81
f 7 81 77
f 77 81 79
f 77 79 21
f 81 80 20
f 81 20 79
f 59 10 80
f 59 80 81
f 8 75 84
f 8 84 66
f 66 84 82
f 66 82 16
f 84 83 23
f 84 23 82
f 75 22 83
f 75 83 84
f 19 86 87
f 19 87 85
f 85 87 51
f 85 51 11
f 87 80 10
f 87 10 51
f 86 20 80
f 86 80 87
f 12 89 90
f 12 90 49
f 49 90 85
f 49 85 11
f 90 88 19
f 90 19 85
f 89 18 88
f 89 88 90
f 14 92 93
f 14 93 42
f 42 93 89
f 42 89 12
f 93 91 18
f 93 18 89
f 92 24 91
f 92 91 93
f 15 95 96
f 15 96 73
f 73 96 92
f 73 92 14
f 96 94 24
f 96 24 92
f 95 25 94
f 95 94 96
f 25 95 98
f 25 98 97
f 97 98 82
f 97 82 23
f 98 70 16
f 98 16 82
f 95 15 70
f 95 70 98
f 19 88 102
f 19 102 99
f 99 102 100
f 99 100 33
f 102 101 26
f 102 26 100
f 88 18 101
f 88 101 102
f 24 104 105
f 24 105 91
f 91 105 101
f 91 101 18
f 105 103 26
f 105 26 101
f 104 27 103
f 104 103 105
f 20 86 108
f 20 108 106
f 106 108 107
f 106 107 32
f 108 99 33
f 108 33 107
f 86 19 99
f 86 99 108
f 21 79 111
f 21 111 109
f 109 111 110
f 109 110 31
f 111 106 32
f 111 32 110
f 79 20 106
f 79 106 111
f 22 76 114
f 22 114 112
f 112 114 113
f 112 113 30
f 114 109 31
f 114 31 113
f 76 21 109
f 76 109 114
f 23 83 117
f 23 117 115
f 115 117 116
f 115 116 29
f 117 112 30
f 117 30 116
f 83 22 112
f 83 112 117
f 23 115 120
f 23 120 97
f 97 120 118
f 97 118 25
f 120 119 28
f 120 28 118
f 115 29 119
f 115 119 120
f 25 118 122
f 25 122 94
f 94 122 104
f 94 104 24
f 122 121 27
f 122 27 104
f 118 28 121
f 118 121 122
f 28 124 125
f 28 125 121
f 121 125 103
f 121 103 27
f 125 123 26
f 125 26 103
f 124 34 123
f 124 123 125
f 32 107 127
f 32 127 126
f 126 127 123
f 126 123 34
f 127 100 26
f 127 26 123
f 107 33 100
f 107 100 127
f 34 124 129
f 34 129 128
f 128 129 116
f 128 116 30
f 129 119 29
f 129 29 116
f 124 28 119
f 124 119 129
f 30 113 130
f 30 130 128
f 128 130 126
f 128 126 34
f 130 110 32
f 130 32 126
f 113 31 110
f 113 110 130
