# Pisiform_L rest
v 0.717043 0.029898 -0.086255
v 0.715539 0.029952 -0.083020
v 0.717438 0.029009 -0.080407
v 0.720167 0.027505 -0.079895
v 0.725633 0.024761 -0.085953
v 0.724260 0.026479 -0.087946
v 0.719593 0.025379 -0.079859
v 0.724304 0.023523 -0.083050
v 0.722882 0.025703 -0.082758
v 0.715496 0.027425 -0.080206
v 0.714048 0.029596 -0.083794
v 0.716564 0.029639 -0.087940
v 0.721713 0.028247 -0.088120
v 0.720697 0.027633 -0.089547
v 0.723965 0.024962 -0.088966
v 0.726494 0.023223 -0.086131
v 0.720086 0.027503 -0.083994
v 0.715802 0.028532 -0.087762
v 0.714165 0.028005 -0.083972
v 0.715786 0.025776 -0.081088
v 0.719482 0.024075 -0.081402
v 0.722569 0.023150 -0.083586
v 0.724107 0.023071 -0.086035
v 0.718921 0.026660 -0.089124
v 0.721372 0.024568 -0.088864
v 0.716754 0.026511 -0.086891
v 0.718582 0.025473 -0.088085
v 0.720008 0.024285 -0.087572
v 0.722362 0.023246 -0.086199
v 0.721031 0.023461 -0.084676
v 0.719577 0.023873 -0.083063
v 0.717267 0.024873 -0.083078
v 0.715711 0.026283 -0.084013
v 0.718323 0.024604 -0.085559
v 0.722502 0.026844 -0.086307
v 0.718370 0.028832 -0.085154
v 0.720115 0.028837 -0.087306
v 0.723169 0.027493 -0.088278
v 0.721320 0.027928 -0.086842
v 0.721547 0.028063 -0.088789
v 0.716840 0.030064 -0.087172
v 0.718451 0.028899 -0.088987
v 0.719273 0.029027 -0.088286
v 0.715932 0.029328 -0.081716
v 0.715256 0.030024 -0.084560
v 0.718146 0.028130 -0.082098
v 0.716282 0.029126 -0.083350
v 0.714697 0.030148 -0.083173
v 0.714612 0.030263 -0.086097
v 0.715038 0.030602 -0.085358
v 0.714070 0.028609 -0.081792
v 0.716291 0.028132 -0.080167
v 0.715023 0.029201 -0.081520
v 0.721611 0.026449 -0.083286
v 0.721147 0.026579 -0.080796
v 0.718951 0.028361 -0.079783
v 0.719963 0.027396 -0.081264
v 0.720002 0.026478 -0.079659
v 0.717077 0.026381 -0.079497
v 0.717663 0.027287 -0.079557
v 0.722317 0.024422 -0.081040
v 0.724273 0.024615 -0.082937
v 0.722384 0.025475 -0.080930
v 0.724834 0.024991 -0.084608
v 0.726672 0.023993 -0.086117
v 0.725917 0.023141 -0.084561
v 0.725993 0.024014 -0.084584
v 0.725374 0.025452 -0.087079
v 0.723766 0.025869 -0.085458
v 0.725623 0.023949 -0.087715
v 0.724707 0.025661 -0.088698
v 0.726074 0.024594 -0.087690
v 0.722498 0.026305 -0.089583
v 0.723362 0.026800 -0.089133
v 0.723455 0.023224 -0.083239
v 0.721080 0.023483 -0.082348
v 0.719252 0.024680 -0.080547
v 0.721538 0.023908 -0.081580
v 0.717353 0.025003 -0.080841
v 0.715501 0.026557 -0.080573
v 0.716811 0.025758 -0.080006
v 0.725226 0.023087 -0.086016
v 0.723635 0.022993 -0.084766
v 0.724795 0.022973 -0.084643
v 0.713806 0.029111 -0.084032
v 0.714438 0.026951 -0.082312
v 0.713950 0.027974 -0.082004
v 0.714339 0.028821 -0.086107
v 0.716090 0.029203 -0.087973
v 0.714246 0.029795 -0.086218
v 0.717644 0.027708 -0.088690
v 0.719614 0.027162 -0.089458
v 0.717920 0.028434 -0.089025
v 0.720117 0.025653 -0.089468
v 0.722545 0.024785 -0.089119
v 0.721078 0.026042 -0.089730
v 0.722998 0.023615 -0.087678
v 0.724203 0.023682 -0.087885
v 0.714993 0.027011 -0.083928
v 0.715876 0.026629 -0.085421
v 0.716198 0.027479 -0.087411
v 0.715069 0.027706 -0.085750
v 0.717785 0.025977 -0.087631
v 0.718673 0.025973 -0.088597
v 0.717463 0.026716 -0.088143
v 0.716612 0.025155 -0.081805
v 0.716370 0.025520 -0.083457
v 0.715317 0.026193 -0.082632
v 0.719673 0.023833 -0.082397
v 0.718562 0.024293 -0.083047
v 0.718008 0.024572 -0.081885
v 0.721979 0.023225 -0.084103
v 0.720057 0.023699 -0.083886
v 0.720644 0.023504 -0.083079
v 0.723288 0.023145 -0.086087
v 0.721838 0.023267 -0.085548
v 0.722870 0.023064 -0.085092
v 0.720622 0.024385 -0.088243
v 0.721390 0.023619 -0.086804
v 0.722213 0.023622 -0.087266
v 0.719296 0.024818 -0.087892
v 0.719428 0.025238 -0.088697
v 0.717506 0.025477 -0.086157
v 0.719003 0.024420 -0.086622
v 0.718299 0.025105 -0.087062
v 0.717755 0.024765 -0.084335
v 0.716670 0.025597 -0.084844
v 0.719506 0.023938 -0.085051
v 0.720266 0.023803 -0.086029
v 0.719009 0.024093 -0.084010
f 6 38 39
f 6 39 35
f 35 39 36
f 35 36 17
f 39 37 1
f 39 1 36
f 38 13 37
f 38 37 39
f 14 42 43
f 14 43 40
f 40 43 37
f 40 37 13
f 43 41 1
f 43 1 37
f 42 12 41
f 42 41 43
f 3 46 47
f 3 47 44
f 44 47 45
f 44 45 2
f 47 36 1
f 47 1 45
f 46 17 36
f 46 36 47
f 12 49 50
f 12 50 41
f 41 50 45
f 41 45 1
f 50 48 2
f 50 2 45
f 49 11 48
f 49 48 50
f 10 52 53
f 10 53 51
f 51 53 48
f 51 48 11
f 53 44 2
f 53 2 48
f 52 3 44
f 52 44 53
f 3 56 57
f 3 57 46
f 46 57 54
f 46 54 17
f 57 55 9
f 57 9 54
f 56 4 55
f 56 55 57
f 10 59 60
f 10 60 52
f 52 60 56
f 52 56 3
f 60 58 4
f 60 4 56
f 59 7 58
f 59 58 60
f 8 62 63
f 8 63 61
f 61 63 58
f 61 58 7
f 63 55 4
f 63 4 58
f 62 9 55
f 62 55 63
f 9 62 67
f 9 67 64
f 64 67 65
f 64 65 5
f 67 66 16
f 67 16 65
f 62 8 66
f 62 66 67
f 6 35 69
f 6 69 68
f 68 69 64
f 68 64 5
f 69 54 9
f 69 9 64
f 35 17 54
f 35 54 69
f 15 71 72
f 15 72 70
f 70 72 65
f 70 65 16
f 72 68 5
f 72 5 65
f 71 6 68
f 71 68 72
f 14 40 74
f 14 74 73
f 73 74 71
f 73 71 15
f 74 38 6
f 74 6 71
f 40 13 38
f 40 38 74
f 8 61 78
f 8 78 75
f 75 78 76
f 75 76 22
f 78 77 21
f 78 21 76
f 61 7 77
f 61 77 78
f 7 59 81
f 7 81 77
f 77 81 79
f 77 79 21
f 81 80 20
f 81 20 79
f 59 10 80
f 59 80 81
f 8 75 84
f 8 84 66
f 66 84 82
f 66 82 16
f 84 83 23
f 84 23 82
f 75 22 83
f 75 83 84
f 19 86 87
f 19 87 85
f 85 87 51
f 85 51 11
f 87 80 10
f 87 10 51
f 86 20 80
f 86 80 87
f 12 89 90
f 12 90 49
f 49 90 85
f 49 85 11
f 90 88 19
f 90 19 85
f 89 18 88
f 89 88 90
f 14 92 93
f 14 93 42
f 42 93 89
f 42 89 12
f 93 91 18
f 93 18 89
f 92 24 91
f 92 91 93
f 15 95 96
f 15 96 73
f 73 96 92
f 73 92 14
f 96 94 24
f 96 24 92
f 95 25 94
f 95 94 96
f 25 95 98
f 25 98 97
f 97 98 82
f 97 82 23
f 98 70 16
f 98 16 82
f 95 15 70
f 95 70 98
f 19 88 102
f 19 102 99
f 99 102 100
f 99 100 33
f 102 101 26
f 102 26 100
f 88 18 101
f 88 101 102
f 24 104 105
f 24 105 91
f 91 105 101
f 91 101 18
f 105 103 26
f 105 26 101
f 104 27 103
f 104 103 105
f 20 86 108
f 20 108 106
f 106 108 107
f 106 107 32
f 108 99 33
f 108 33 107
f 86 19 99
f 86 99 108
f 21 79 111
f 21 111 109
f 109 111 110
f 109 110 31
f 111 106 32
f 111 32 110
f 79 20 106
f 79 106 111
f 22 76 114
f 22 114 112
f 112 114 113
f 112 113 30
f 114 109 31
f 114 31 113
f 76 21 109
f 76 109 114
f 23 83 117
f 23 117 115
f 115 117 116
f 115 116 29
f 117 112 30
f 117 30 116
f 83 22 112
f 83 112 117
f 23 115 120
f 23 120 97
f 97 120 118
f 97 118 25
f 120 119 28
f 120 28 118
f 115 29 119
f 115 119 120
f 25 118 122
f 25 122 94
f 94 122 104
f 94 104 24
f 122 121 27
f 122 27 104
f 118 28 121
f 118 121 122
f 28 124 125
f 28 125 121
f 121 125 103
f 121 103 27
f 125 123 26
f 125 26 103
f 124 34 123
f 124 123 125
f 32 107 127
f 32 127 126
f 126 127 123
f 126 123 34
f 127 100 26
f 127 26 123
f 107 33 100
f 107 100 127
f 34 124 129
f 34 129 128
f 128 129 116
f 128 116 30
f 129 119 29
f 129 29 116
f 124 28 119
f 124 119 129
f 30 113 130
f 30 130 128
f 128 130 126
f 128 126 34
f 130 110 32
f 130 32 126
f 113 31 110
f 113 110 130
