# Pisiform_R rest
v -0.724030 0.033544 -0.088493
v -0.722627 0.033325 -0.084962
v -0.724195 0.032521 -0.082452
v -0.726515 0.031189 -0.082199
v -0.731607 0.028561 -0.088995
v -0.730483 0.030485 -0.090956
v -0.725969 0.028469 -0.082020
v -0.730266 0.026846 -0.085807
v -0.728995 0.029353 -0.085409
v -0.722446 0.030247 -0.081947
v -0.721317 0.032640 -0.085565
v -0.723639 0.033161 -0.090169
v -0.728225 0.032286 -0.090911
v -0.727359 0.031345 -0.092233
v -0.730258 0.028507 -0.091904
v -0.732399 0.026741 -0.089224
v -0.726598 0.031091 -0.086412
v -0.722925 0.031658 -0.089833
v -0.721373 0.030713 -0.085690
v -0.722677 0.028282 -0.082829
v -0.725915 0.026794 -0.083546
v -0.728745 0.026080 -0.086131
v -0.730242 0.026169 -0.088828
v -0.725728 0.029833 -0.091529
v -0.727907 0.027596 -0.091462
v -0.723710 0.029296 -0.088950
v -0.725371 0.028294 -0.090358
v -0.726623 0.027033 -0.089952
v -0.728680 0.026112 -0.088789
v -0.727420 0.026199 -0.087070
v -0.726062 0.026516 -0.085252
v -0.724024 0.027381 -0.085021
v -0.722699 0.028853 -0.085846
v -0.725041 0.027183 -0.087688
v -0.728831 0.030660 -0.089065
v -0.725147 0.032440 -0.087461
v -0.726774 0.032752 -0.089902
v -0.729528 0.031582 -0.091215
v -0.727814 0.031818 -0.089524
v -0.728101 0.032027 -0.091575
v -0.723878 0.033727 -0.089429
v -0.725343 0.032561 -0.091445
v -0.726059 0.032852 -0.090825
v -0.722924 0.032627 -0.083633
v -0.722412 0.033378 -0.086525
v -0.724838 0.031547 -0.084245
v -0.723261 0.032439 -0.085355
v -0.721897 0.033420 -0.085028
v -0.721878 0.033587 -0.088053
v -0.722252 0.034066 -0.087356
v -0.721270 0.031429 -0.083455
v -0.723161 0.031245 -0.082030
v -0.722120 0.032313 -0.083315
v -0.727902 0.030054 -0.085824
v -0.727390 0.030195 -0.083212
v -0.725474 0.032020 -0.081968
v -0.726386 0.030981 -0.083579
v -0.726339 0.029902 -0.081901
v -0.723778 0.029270 -0.081374
v -0.724315 0.030475 -0.081538
v -0.728406 0.027711 -0.083533
v -0.730233 0.028220 -0.085723
v -0.728468 0.029038 -0.083463
v -0.730819 0.028745 -0.087522
v -0.732554 0.027751 -0.089260
v -0.731792 0.026581 -0.087539
v -0.731857 0.027701 -0.087603
v -0.731436 0.029378 -0.090151
v -0.729912 0.029657 -0.088301
v -0.731694 0.027500 -0.090774
v -0.730919 0.029518 -0.091750
v -0.732099 0.028394 -0.090830
v -0.728969 0.029967 -0.092424
v -0.729734 0.030736 -0.092089
v -0.729520 0.026324 -0.085886
v -0.727364 0.026291 -0.084692
v -0.725686 0.027529 -0.082661
v -0.727739 0.026919 -0.083974
v -0.724031 0.027601 -0.082740
v -0.722433 0.029191 -0.082293
v -0.723545 0.028453 -0.081844
v -0.731250 0.026368 -0.088945
v -0.729756 0.026022 -0.087466
v -0.730791 0.026185 -0.087481
v -0.721092 0.032009 -0.085758
v -0.721550 0.029475 -0.083967
v -0.721147 0.030638 -0.083632
v -0.721592 0.031761 -0.087957
v -0.723205 0.032541 -0.090122
v -0.721540 0.032949 -0.088109
v -0.724583 0.030936 -0.090976
v -0.726372 0.030576 -0.091985
v -0.724857 0.031892 -0.091395
v -0.726807 0.028763 -0.091982
v -0.728980 0.028055 -0.091879
v -0.727689 0.029405 -0.092390
v -0.729321 0.026658 -0.090400
v -0.730420 0.026932 -0.090764
v -0.722077 0.029631 -0.085702
v -0.722889 0.029302 -0.087332
v -0.723246 0.030411 -0.089465
v -0.722203 0.030501 -0.087621
v -0.724646 0.028797 -0.089815
v -0.725476 0.028934 -0.090921
v -0.724385 0.029668 -0.090339
v -0.723412 0.027644 -0.083644
v -0.723252 0.028027 -0.085324
v -0.722313 0.028691 -0.084374
v -0.726120 0.026497 -0.084580
v -0.725164 0.026874 -0.085126
v -0.724637 0.027154 -0.083877
v -0.728242 0.026066 -0.086591
v -0.726520 0.026358 -0.086149
v -0.727008 0.026227 -0.085387
v -0.729508 0.026133 -0.088783
v -0.728181 0.026067 -0.088057
v -0.729085 0.025984 -0.087708
v -0.727204 0.027251 -0.090722
v -0.727833 0.026421 -0.089304
v -0.728594 0.026549 -0.089881
v -0.725999 0.027588 -0.090218
v -0.726151 0.028132 -0.091082
v -0.724342 0.028133 -0.088239
v -0.725686 0.027052 -0.088857
v -0.725077 0.027793 -0.089253
v -0.724496 0.027307 -0.086367
v -0.723559 0.028157 -0.086790
v -0.726074 0.026547 -0.087285
v -0.726792 0.026485 -0.088378
v -0.725593 0.026678 -0.086162
f 35 39 38
f 35 38 6
f 17 36 39
f 17 39 35
f 36 1 37
f 36 37 39
f 39 37 13
f 39 13 38
f 40 43 42
f 40 42 14
f 13 37 43
f 13 43 40
f 37 1 41
f 37 41 43
f 43 41 12
f 43 12 42
f 44 47 46
f 44 46 3
f 2 45 47
f 2 47 44
f 45 1 36
f 45 36 47
f 47 36 17
f 47 17 46
f 41 50 49
f 41 49 12
f 1 45 50
f 1 50 41
f 45 2 48
f 45 48 50
f 50 48 11
f 50 11 49
f 51 53 52
f 51 52 10
f 11 48 53
f 11 53 51
f 48 2 44
f 48 44 53
f 53 44 3
f 53 3 52
f 46 57 56
f 46 56 3
f 17 54 57
f 17 57 46
f 54 9 55
f 54 55 57
f 57 55 4
f 57 4 56
f 52 60 59
f 52 59 10
f 3 56 60
f 3 60 52
f 56 4 58
f 56 58 60
f 60 58 7
f 60 7 59
f 61 63 62
f 61 62 8
f 7 58 63
f 7 63 61
f 58 4 55
f 58 55 63
f 63 55 9
f 63 9 62
f 64 67 62
f 64 62 9
f 5 65 67
f 5 67 64
f 65 16 66
f 65 66 67
f 67 66 8
f 67 8 62
f 68 69 35
f 68 35 6
f 5 64 69
f 5 69 68
f 64 9 54
f 64 54 69
f 69 54 17
f 69 17 35
f 70 72 71
f 70 71 15
f 16 65 72
f 16 72 70
f 65 5 68
f 65 68 72
f 72 68 6
f 72 6 71
f 73 74 40
f 73 40 14
f 15 71 74
f 15 74 73
f 71 6 38
f 71 38 74
f 74 38 13
f 74 13 40
f 75 78 61
f 75 61 8
f 22 76 78
f 22 78 75
f 76 21 77
f 76 77 78
f 78 77 7
f 78 7 61
f 77 81 59
f 77 59 7
f 21 79 81
f 21 81 77
f 79 20 80
f 79 80 81
f 81 80 10
f 81 10 59
f 66 84 75
f 66 75 8
f 16 82 84
f 16 84 66
f 82 23 83
f 82 83 84
f 84 83 22
f 84 22 75
f 85 87 86
f 85 86 19
f 11 51 87
f 11 87 85
f 51 10 80
f 51 80 87
f 87 80 20
f 87 20 86
f 49 90 89
f 49 89 12
f 11 85 90
f 11 90 49
f 85 19 88
f 85 88 90
f 90 88 18
f 90 18 89
f 42 93 92
f 42 92 14
f 12 89 93
f 12 93 42
f 89 18 91
f 89 91 93
f 93 91 24
f 93 24 92
f 73 96 95
f 73 95 15
f 14 92 96
f 14 96 73
f 92 24 94
f 92 94 96
f 96 94 25
f 96 25 95
f 97 98 95
f 97 95 25
f 23 82 98
f 23 98 97
f 82 16 70
f 82 70 98
f 98 70 15
f 98 15 95
f 99 102 88
f 99 88 19
f 33 100 102
f 33 102 99
f 100 26 101
f 100 101 102
f 102 101 18
f 102 18 88
f 91 105 104
f 91 104 24
f 18 101 105
f 18 105 91
f 101 26 103
f 101 103 105
f 105 103 27
f 105 27 104
f 106 108 86
f 106 86 20
f 32 107 108
f 32 108 106
f 107 33 99
f 107 99 108
f 108 99 19
f 108 19 86
f 109 111 79
f 109 79 21
f 31 110 111
f 31 111 109
f 110 32 106
f 110 106 111
f 111 106 20
f 111 20 79
f 112 114 76
f 112 76 22
f 30 113 114
f 30 114 112
f 113 31 109
f 113 109 114
f 114 109 21
f 114 21 76
f 115 117 83
f 115 83 23
f 29 116 117
f 29 117 115
f 116 30 112
f 116 112 117
f 117 112 22
f 117 22 83
f 97 120 115
f 97 115 23
f 25 118 120
f 25 120 97
f 118 28 119
f 118 119 120
f 120 119 29
f 120 29 115
f 94 122 118
f 94 118 25
f 24 104 122
f 24 122 94
f 104 27 121
f 104 121 122
f 122 121 28
f 122 28 118
f 121 125 124
f 121 124 28
f 27 103 125
f 27 125 121
f 103 26 123
f 103 123 125
f 125 123 34
f 125 34 124
f 126 127 107
f 126 107 32
f 34 123 127
f 34 127 126
f 123 26 100
f 123 100 127
f 127 100 33
f 127 33 107
f 128 129 124
f 128 124 34
f 30 116 129
f 30 129 128
f 116 29 119
f 116 119 129
f 129 119 28
f 129 28 124
f 128 130 113
f 128 113 30
f 34 126 130
f 34 130 128
f 126 32 110
f 126 110 130
f 130 110 31
f 130 31 113
