# Pisiform_R posed
v -0.781301 0.199026 0.343171
v -0.778709 0.197922 0.345193
v -0.778980 0.196808 0.347742
v -0.780925 0.195800 0.348835
v -0.788359 0.195469 0.345632
v -0.787975 0.197488 0.343873
v -0.780949 0.193318 0.348328
v -0.786253 0.193132 0.347207
v -0.784609 0.195128 0.347273
v -0.777841 0.194533 0.346984
v -0.778089 0.197330 0.344017
v -0.781807 0.199023 0.341645
v -0.785857 0.198849 0.343103
v -0.785946 0.198233 0.341548
v -0.788598 0.195938 0.342757
v -0.789425 0.193994 0.345568
v -0.782854 0.196651 0.345625
v -0.781396 0.197560 0.341354
v -0.778560 0.195668 0.343672
v -0.778787 0.193021 0.346135
v -0.781899 0.192177 0.346892
v -0.785364 0.192386 0.346134
v -0.787690 0.193201 0.344779
v -0.784665 0.196594 0.341107
v -0.786757 0.194818 0.341862
v -0.782073 0.195362 0.342063
v -0.784172 0.194948 0.341619
v -0.785209 0.193869 0.342339
v -0.786472 0.192995 0.344067
v -0.784725 0.192573 0.344808
v -0.782814 0.192323 0.345611
v -0.780966 0.192840 0.344956
v -0.780015 0.194192 0.343909
v -0.782961 0.193351 0.343356
v -0.785832 0.197069 0.344574
v -0.781929 0.197933 0.344330
v -0.784199 0.198899 0.343263
v -0.787137 0.198420 0.343382
v -0.785020 0.198092 0.343909
v -0.786101 0.198756 0.342499
v -0.781558 0.199380 0.342407
v -0.783803 0.198937 0.341380
v -0.784030 0.199124 0.342234
v -0.778491 0.197043 0.346253
v -0.779216 0.198293 0.343898
v -0.780452 0.196408 0.346527
v -0.779543 0.197290 0.345062
v -0.778153 0.197951 0.344813
v -0.779432 0.198764 0.342504
v -0.779324 0.199066 0.343283
v -0.777362 0.195795 0.345443
v -0.778239 0.195495 0.347398
v -0.777789 0.196620 0.346075
v -0.783808 0.195733 0.346540
v -0.782239 0.195232 0.348326
v -0.779856 0.196381 0.348642
v -0.781470 0.195909 0.347686
v -0.780907 0.194585 0.348798
v -0.778812 0.193672 0.347910
v -0.779067 0.194818 0.348208
v -0.783648 0.193214 0.348203
v -0.785926 0.194318 0.347451
v -0.783409 0.194372 0.348475
v -0.787067 0.195232 0.346420
v -0.789366 0.194906 0.345757
v -0.788247 0.193424 0.346555
v -0.788109 0.194430 0.346696
v -0.788575 0.196427 0.344780
v -0.786529 0.196121 0.345526
v -0.789411 0.194938 0.344156
v -0.788848 0.196855 0.343330
v -0.789577 0.195774 0.344430
v -0.787544 0.197215 0.341961
v -0.787843 0.197889 0.342686
v -0.785810 0.192620 0.346720
v -0.783622 0.192124 0.346621
v -0.781191 0.192606 0.347569
v -0.783476 0.192553 0.347438
v -0.779929 0.192531 0.346741
v -0.778187 0.193680 0.346562
v -0.778995 0.193036 0.347324
v -0.788484 0.193497 0.345190
v -0.786744 0.192725 0.345575
v -0.787522 0.192969 0.346073
v -0.778121 0.196796 0.343672
v -0.778181 0.194216 0.344902
v -0.777497 0.195127 0.345136
v -0.779520 0.197111 0.342184
v -0.781569 0.198426 0.341389
v -0.779317 0.198184 0.342212
v -0.783322 0.197334 0.341151
v -0.785221 0.197409 0.341166
v -0.783533 0.198292 0.341095
v -0.785907 0.195854 0.341113
v -0.787683 0.195415 0.342111
v -0.786645 0.196592 0.341306
v -0.787569 0.193892 0.343208
v -0.788528 0.194317 0.343483
v -0.779320 0.194786 0.343840
v -0.780727 0.194933 0.342922
v -0.781724 0.196412 0.341609
v -0.780091 0.195986 0.342548
v -0.783275 0.195202 0.341768
v -0.784377 0.195645 0.341328
v -0.783134 0.196059 0.341367
v -0.779836 0.192710 0.345763
v -0.780375 0.193403 0.344452
v -0.779102 0.193688 0.344836
v -0.782568 0.192164 0.346152
v -0.781993 0.192525 0.345337
v -0.780983 0.192446 0.346089
v -0.785178 0.192429 0.345543
v -0.783592 0.192425 0.345115
v -0.783663 0.192188 0.345911
v -0.787108 0.193090 0.344463
v -0.785773 0.192747 0.344388
v -0.786337 0.192682 0.345069
v -0.785954 0.194285 0.342051
v -0.785981 0.193301 0.343317
v -0.786799 0.193613 0.343250
v -0.784734 0.194356 0.341921
v -0.785126 0.195040 0.341406
v -0.782477 0.194242 0.342741
v -0.783998 0.193555 0.342743
v -0.783557 0.194237 0.342259
v -0.781936 0.193117 0.344133
v -0.781231 0.193869 0.343489
v -0.783708 0.192801 0.344060
v -0.784756 0.193055 0.343549
v -0.782818 0.192622 0.344716
f 35 39 38
f 35 38 6
f 17 36 39
f 17 39 35
f 36 1 37
f 36 37 39
f 39 37 13
f 39 13 38
f 40 43 42
f 40 42 14
f 13 37 43
f 13 43 40
f 37 1 41
f 37 41 43
f 43 41 12
f 43 12 42
f 44 47 46
f 44 46 3
f 2 45 47
f 2 47 44
f 45 1 36
f 45 36 47
f 47 36 17
f 47 17 46
f 41 50 49
f 41 49 12
f 1 45 50
f 1 50 41
f 45 2 48
f 45 48 50
f 50 48 11
f 50 11 49
f 51 53 52
f 51 52 10
f 11 48 53
f 11 53 51
f 48 2 44
f 48 44 53
f 53 44 3
f 53 3 52
f 46 57 56
f 46 56 3
f 17 54 57
f 17 57 46
f 54 9 55
f 54 55 57
f 57 55 4
f 57 4 56
f 52 60 59
f 52 59 10
f 3 56 60
f 3 60 52
f 56 4 58
f 56 58 60
f 60 58 7
f 60 7 59
f 61 63 62
f 61 62 8
f 7 58 63
f 7 63 61
f 58 4 55
f 58 55 63
f 63 55 9
f 63 9 62
f 64 67 62
f 64 62 9
f 5 65 67
f 5 67 64
f 65 16 66
f 65 66 67
f 67 66 8
f 67 8 62
f 68 69 35
f 68 35 6
f 5 64 69
f 5 69 68
f 64 9 54
f 64 54 69
f 69 54 17
f 69 17 35
f 70 72 71
f 70 71 15
f 16 65 72
f 16 72 70
f 65 5 68
f 65 68 72
f 72 68 6
f 72 6 71
f 73 74 40
f 73 40 14
f 15 71 74
f 15 74 73
f 71 6 38
f 71 38 74
f 74 38 13
f 74 13 40
f 75 78 61
f 75 61 8
f 22 76 78
f 22 78 75
f 76 21 77
f 76 77 78
f 78 77 7
f 78 7 61
f 77 81 59
f 77 59 7
f 21 79 81
f 21 81 77
f 79 20 80
f 79 80 81
f 81 80 10
f 81 10 59
f 66 84 75
f 66 75 8
f 16 82 84
f 16 84 66
f 82 23 83
f 82 83 84
f 84 83 22
f 84 22 75
f 85 87 86
f 85 86 19
f 11 51 87
f 11 87 85
f 51 10 80
f 51 80 87
f 87 80 20
f 87 20 86
f 49 90 89
f 49 89 12
f 11 85 90
f 11 90 49
f 85 19 88
f 85 88 90
f 90 88 18
f 90 18 89
f 42 93 92
f 42 92 14
f 12 89 93
f 12 93 42
f 89 18 91
f 89 91 93
f 93 91 24
f 93 24 92
f 73 96 95
f 73 95 15
f 14 92 96
f 14 96 73
f 92 24 94
f 92 94 96
f 96 94 25
f 96 25 95
f 97 98 95
f 97 95 25
f 23 82 98
f 23 98 97
f 82 16 70
f 82 70 98
f 98 70 15
f 98 15 95
f 99 102 88
f 99 88 19
f 33 100 102
f 33 102 99
f 100 26 101
f 100 101 102
f 102 101 18
f 102 18 88
f 91 105 104
f 91 104 24
f 18 101 105
f 18 105 91
f 101 26 103
f 101 103 105
f 105 103 27
f 105 27 104
f 106 108 86
f 106 86 20
f 32 107 108
f 32 108 106
f 107 33 99
f 107 99 108
f 108 99 19
f 108 19 86
f 109 111 79
f 109 79 21
f 31 110 111
f 31 111 109
f 110 32 106
f 110 106 111
f 111 106 20
f 111 20 79
f 112 114 76
f 112 76 22
f 30 113 114
f 30 114 112
f 113 31 109
f 113 109 114
f 114 109 21
f 114 21 76
f 115 117 83
f 115 83 23
f 29 116 117
f 29 117 115
f 116 30 112
f 116 112 117
f 117 112 22
f 117 22 83
f 97 120 115
f 97 115 23
f 25 118 120
f 25 120 97
f 118 28 119
f 118 119 120
f 120 119 29
f 120 29 115
f 94 122 118
f 94 118 25
f 24 104 122
f 24 122 94
f 104 27 121
f 104 121 122
f 122 121 28
f 122 28 118
f 121 125 124
f 121 124 28
f 27 103 125
f 27 125 121
f 103 26 123
f 103 123 125
f 125 123 34
f 125 34 124
f 126 127 107
f 126 107 32
f 34 123 127
f 34 127 126
f 123 26 100
f 123 100 127
f 127 100 33
f 127 33 107
f 128 129 124
f 128 124 34
f 30 116 129
f 30 129 128
f 116 29 119
f 116 119 129
f 129 119 28
f 129 28 124
f 128 130 113
f 128 113 30
f 34 126 130
f 34 130 128
f 126 32 110
f 126 110 130
f 130 110 31
f 130 31 113
