# Radius_L posed
v -0.467236 -0.409733 0.324361
v -0.468226 -0.407932 0.320271
v -0.459885 -0.410684 0.318242
v -0.460541 -0.412143 0.322755
v -0.457760 -0.410669 0.330483
v -0.463495 -0.408983 0.332356
v -0.456517 -0.406157 0.331555
v -0.461450 -0.404060 0.333631
v -0.461607 -0.397677 0.331294
v -0.455007 -0.400444 0.329822
v -0.461742 -0.395140 0.328417
v -0.454779 -0.397312 0.326790
v -0.460720 -0.393814 0.318215
v -0.456473 -0.396677 0.318136
v -0.463012 -0.396595 0.315053
v -0.458987 -0.399569 0.315799
v -0.464885 -0.400519 0.314953
v -0.459598 -0.404595 0.314334
v -0.457705 -0.405400 0.328354
v -0.456706 -0.402369 0.327590
v -0.456314 -0.399833 0.325398
v -0.457854 -0.399441 0.320003
v -0.459121 -0.400884 0.318301
v -0.459902 -0.403589 0.318013
v -0.459448 -0.408660 0.320078
v -0.459656 -0.409586 0.322991
v -0.458152 -0.407839 0.327842
v -0.459228 -0.402830 0.320820
v -0.459864 -0.405948 0.322019
v -0.459653 -0.406590 0.318133
v -0.460060 -0.407667 0.315590
v -0.467492 -0.404023 0.316230
v -0.459525 -0.393623 0.324103
v -0.455379 -0.396045 0.323240
v -0.456989 -0.399176 0.322988
v -0.458433 -0.402552 0.324292
v -0.458974 -0.405690 0.325463
v -0.458813 -0.409090 0.326185
v -0.459991 -0.412575 0.326626
v -0.465268 -0.410477 0.328949
v -0.484985 -0.400422 0.329703
v -0.486518 -0.398264 0.325909
v -0.489401 -0.401013 0.330090
v -0.490407 -0.399388 0.327153
v -0.487178 -0.398762 0.335740
v -0.491787 -0.399110 0.335772
v -0.493533 -0.394240 0.338550
v -0.495466 -0.396255 0.337320
v -0.479085 -0.399828 0.334296
v -0.478098 -0.401920 0.326694
v -0.477841 -0.400742 0.323525
v -0.485918 -0.394315 0.337072
v -0.491986 -0.391120 0.338653
v -0.478096 -0.397282 0.334924
v -0.476857 -0.393318 0.333343
v -0.475860 -0.391092 0.330576
v -0.475625 -0.389603 0.326638
v -0.475911 -0.390054 0.323331
v -0.476721 -0.392231 0.320927
v -0.477489 -0.394941 0.320253
v -0.477891 -0.397924 0.321052
v -0.488932 -0.394728 0.323537
v -0.492500 -0.396069 0.325119
v -0.478607 -0.401983 0.331088
v -0.485729 -0.400614 0.333654
v -0.490014 -0.400694 0.333298
v -0.495357 -0.389807 0.324346
v -0.496539 -0.392597 0.325412
v -0.486871 -0.390362 0.322410
v -0.493851 -0.386918 0.323939
v -0.485757 -0.387832 0.322879
v -0.484281 -0.385229 0.325954
v -0.484068 -0.385162 0.329791
v -0.483907 -0.386863 0.333665
v -0.484877 -0.391252 0.336664
v -0.490674 -0.388177 0.338156
v -0.489374 -0.383984 0.335163
v -0.489428 -0.382103 0.330783
v -0.490644 -0.382098 0.327013
v -0.492499 -0.384236 0.324495
v -0.464571 -0.396474 0.316802
v -0.462956 -0.394168 0.319872
v -0.462039 -0.393983 0.324459
v -0.463947 -0.395576 0.328563
v -0.464070 -0.397821 0.331007
v -0.464167 -0.403501 0.332951
v -0.465132 -0.407745 0.332250
v -0.466722 -0.408764 0.328806
v -0.468098 -0.408332 0.324855
v -0.469243 -0.406092 0.321118
v -0.468476 -0.402624 0.318198
v -0.466255 -0.399567 0.316694
v -0.464283 -0.409900 0.318960
v -0.464136 -0.411756 0.323476
v -0.460630 -0.410331 0.331993
v -0.458780 -0.405235 0.333303
v -0.458083 -0.398607 0.331155
v -0.458044 -0.395463 0.327962
v -0.458407 -0.394977 0.318010
v -0.461105 -0.397852 0.315181
v -0.462713 -0.402520 0.314723
v -0.463791 -0.406046 0.315526
v -0.457173 -0.394376 0.323621
v -0.462835 -0.412299 0.328074
v -0.493224 -0.398616 0.330121
v -0.497243 -0.395740 0.331094
v -0.504664 -0.390640 0.333089
v -0.503537 -0.390375 0.338685
v -0.504388 -0.387586 0.327887
v -0.503064 -0.385094 0.326295
v -0.501899 -0.388187 0.339869
v -0.500283 -0.385267 0.340019
v -0.498630 -0.382184 0.339189
v -0.497264 -0.378998 0.336493
v -0.496749 -0.376968 0.332259
v -0.498041 -0.377550 0.328392
v -0.499960 -0.379941 0.326358
v -0.501343 -0.382527 0.325834
v -0.512412 -0.376062 0.342070
v -0.514187 -0.379385 0.341932
v -0.515880 -0.381933 0.339831
v -0.516339 -0.381756 0.336647
v -0.515798 -0.379777 0.333547
v -0.515206 -0.377671 0.330306
v -0.513831 -0.374458 0.328380
v -0.512035 -0.371310 0.329214
v -0.510560 -0.369230 0.331514
v -0.509772 -0.368783 0.334850
v -0.509955 -0.370203 0.338260
v -0.510952 -0.372876 0.340745
v -0.527962 -0.366283 0.345345
v -0.529691 -0.369878 0.345634
v -0.531113 -0.371942 0.343652
v -0.531257 -0.371150 0.340812
v -0.530686 -0.369272 0.337956
v -0.530289 -0.367263 0.334939
v -0.529237 -0.364360 0.332502
v -0.527504 -0.361388 0.333110
v -0.526080 -0.359394 0.335348
v -0.525407 -0.359110 0.338531
v -0.525639 -0.360693 0.341845
v -0.526654 -0.363291 0.343988
v -0.542166 -0.362225 0.347967
v -0.543485 -0.364392 0.346238
v -0.543503 -0.363536 0.343851
v -0.543021 -0.361470 0.341143
v -0.542507 -0.359477 0.338244
v -0.541666 -0.356756 0.335865
v -0.539929 -0.353454 0.335894
v -0.538487 -0.351362 0.338198
v -0.537942 -0.351411 0.341751
v -0.538306 -0.353541 0.344567
v -0.539461 -0.356062 0.346325
v -0.540597 -0.359096 0.347564
v -0.562173 -0.352069 0.351555
v -0.563538 -0.354612 0.351076
v -0.563590 -0.353146 0.347892
v -0.562985 -0.350899 0.345074
v -0.562414 -0.348601 0.342176
v -0.561560 -0.345945 0.340147
v -0.559969 -0.342269 0.339723
v -0.558261 -0.339532 0.342002
v -0.557632 -0.339946 0.346065
v -0.558258 -0.342594 0.348923
v -0.559453 -0.345458 0.350345
v -0.560683 -0.348549 0.351101
v -0.575443 -0.345240 0.353882
v -0.577074 -0.348129 0.353157
v -0.576977 -0.347048 0.350060
v -0.576472 -0.344672 0.347108
v -0.575736 -0.342093 0.344662
v -0.574679 -0.339228 0.343149
v -0.573208 -0.335888 0.342932
v -0.571585 -0.332994 0.344485
v -0.570708 -0.333217 0.348633
v -0.571369 -0.335743 0.351742
v -0.572610 -0.338791 0.353098
v -0.574009 -0.342003 0.353574
v -0.591138 -0.337769 0.356428
v -0.592469 -0.340176 0.355650
v -0.592711 -0.339628 0.352924
v -0.592344 -0.337495 0.349620
v -0.591605 -0.334859 0.347355
v -0.590509 -0.331879 0.346233
v -0.589039 -0.328611 0.346220
v -0.587412 -0.325771 0.347652
v -0.586621 -0.325486 0.351619
v -0.587169 -0.328197 0.354781
v -0.588235 -0.331398 0.355976
v -0.589628 -0.334502 0.356290
v -0.609281 -0.329443 0.359645
v -0.610397 -0.331737 0.359136
v -0.610907 -0.331576 0.356402
v -0.610736 -0.329310 0.353370
v -0.610064 -0.326586 0.351292
v -0.609032 -0.323496 0.350124
v -0.607701 -0.320439 0.350020
v -0.606197 -0.317684 0.351639
v -0.605323 -0.317554 0.355313
v -0.605771 -0.320291 0.358459
v -0.606750 -0.323331 0.359750
v -0.607892 -0.326422 0.359947
v -0.627333 -0.322683 0.364543
v -0.628612 -0.324791 0.363219
v -0.629227 -0.324470 0.360423
v -0.629161 -0.322136 0.357410
v -0.628611 -0.318875 0.355205
v -0.627688 -0.315727 0.354112
v -0.626568 -0.312584 0.353953
v -0.624876 -0.310026 0.355386
v -0.624088 -0.310040 0.359244
v -0.624256 -0.312744 0.362384
v -0.624925 -0.315966 0.364207
v -0.626013 -0.319359 0.364965
v -0.652769 -0.315037 0.372118
v -0.654407 -0.318400 0.370717
v -0.655226 -0.317049 0.366830
v -0.655076 -0.313513 0.363935
v -0.654285 -0.308885 0.360831
v -0.653706 -0.304869 0.358335
v -0.653029 -0.302472 0.357835
v -0.651271 -0.299983 0.360266
v -0.650298 -0.300629 0.364097
v -0.650100 -0.303612 0.368270
v -0.650566 -0.306885 0.370453
v -0.651355 -0.310327 0.371739
v -0.667193 -0.312108 0.377382
v -0.668731 -0.315814 0.375616
v -0.669393 -0.313988 0.370951
v -0.669276 -0.309125 0.367732
v -0.669064 -0.303536 0.363923
v -0.668993 -0.299025 0.360305
v -0.668613 -0.295268 0.358462
v -0.666508 -0.293052 0.361530
v -0.665212 -0.294332 0.366850
v -0.664881 -0.297744 0.371171
v -0.665133 -0.302106 0.374256
v -0.665652 -0.305891 0.376104
v -0.672767 -0.313345 0.371866
v -0.677243 -0.315158 0.378510
v -0.675720 -0.311863 0.381869
v -0.670512 -0.304414 0.377534
v -0.670063 -0.300334 0.375465
v -0.671718 -0.307719 0.378913
v -0.677866 -0.307515 0.382129
v -0.672692 -0.308047 0.368534
v -0.672430 -0.302332 0.364484
v -0.672273 -0.297857 0.360644
v -0.678800 -0.290082 0.357740
v -0.678537 -0.287076 0.360118
v -0.671943 -0.289996 0.364835
v -0.679592 -0.286082 0.363832
v -0.669895 -0.292281 0.367755
v -0.669650 -0.295699 0.372080
v -0.673369 -0.315372 0.374107
v -0.678224 -0.315416 0.375419
v -0.673652 -0.295222 0.358971
v -0.679365 -0.291630 0.358438
v -0.686203 -0.283897 0.360357
v -0.686368 -0.286960 0.358141
v -0.690254 -0.282801 0.364465
v -0.687256 -0.289362 0.358452
v -0.691929 -0.289817 0.357864
v -0.695098 -0.287524 0.356702
v -0.693015 -0.285121 0.359009
v -0.692424 -0.282232 0.360875
v -0.693429 -0.281506 0.362881
v -0.684994 -0.315885 0.378926
v -0.683960 -0.315623 0.375364
v -0.691351 -0.315670 0.376896
v -0.688841 -0.314562 0.373214
v -0.691652 -0.311439 0.370857
v -0.695084 -0.310942 0.373699
v -0.697993 -0.304029 0.368528
v -0.693608 -0.305032 0.366966
v -0.699283 -0.296857 0.363062
v -0.695042 -0.298105 0.362209
v -0.699377 -0.291664 0.359612
v -0.694537 -0.293371 0.359145
v -0.679236 -0.312019 0.372650
v -0.680346 -0.305815 0.369346
v -0.680840 -0.299641 0.365193
v -0.680651 -0.294994 0.361471
v -0.685743 -0.311507 0.372160
v -0.687026 -0.305218 0.368708
v -0.687765 -0.298716 0.364375
v -0.687743 -0.293519 0.360795
v -0.680701 -0.314350 0.382322
v -0.679538 -0.312507 0.384286
v -0.685398 -0.314450 0.382703
v -0.688050 -0.312166 0.383892
v -0.692905 -0.314337 0.378528
v -0.694966 -0.308805 0.375996
v -0.698179 -0.302002 0.370287
v -0.699352 -0.295588 0.366369
v -0.700830 -0.291480 0.363985
v -0.699403 -0.288429 0.359916
v -0.695870 -0.285996 0.357882
v -0.701859 -0.288964 0.361914
v -0.680615 -0.309403 0.385100
v -0.684328 -0.303703 0.383188
v -0.684394 -0.307571 0.386137
v -0.688890 -0.308121 0.387259
v -0.690603 -0.303619 0.384494
v -0.689496 -0.312057 0.381838
v -0.689639 -0.309677 0.385828
v -0.691456 -0.307132 0.383851
v -0.684788 -0.311552 0.385113
v -0.677326 -0.301880 0.379432
v -0.677164 -0.297315 0.377339
v -0.677217 -0.292850 0.373912
v -0.684035 -0.299397 0.381169
v -0.684317 -0.294654 0.378752
v -0.685983 -0.289463 0.374539
v -0.678381 -0.288473 0.368634
v -0.688517 -0.285789 0.369247
v -0.696710 -0.281581 0.365330
v -0.695539 -0.283195 0.367598
v -0.697803 -0.284366 0.360046
v -0.697272 -0.281184 0.361179
v -0.702074 -0.283185 0.360239
v -0.701249 -0.281009 0.361766
v -0.700659 -0.281469 0.365315
v -0.707083 -0.282057 0.361086
v -0.706505 -0.281245 0.362550
v -0.706406 -0.282212 0.363834
v -0.706948 -0.283789 0.362260
v -0.703547 -0.285658 0.367078
v -0.701181 -0.283228 0.367827
v -0.702984 -0.288062 0.364717
v -0.695129 -0.284817 0.370028
v -0.693656 -0.288174 0.374641
v -0.692334 -0.293918 0.378569
v -0.691633 -0.298877 0.381885
v -0.700208 -0.286289 0.369939
v -0.699091 -0.290125 0.373098
v -0.697680 -0.294290 0.377124
v -0.694946 -0.299868 0.380650
v -0.692480 -0.305390 0.379085
v -0.696507 -0.298810 0.373804
v -0.698499 -0.293668 0.370328
v -0.699976 -0.289685 0.368728
v -0.551856 -0.357183 0.349551
v -0.553166 -0.359552 0.348354
v -0.552984 -0.358285 0.346093
v -0.552476 -0.355944 0.343382
v -0.552029 -0.353946 0.340457
v -0.551246 -0.351253 0.338053
v -0.549634 -0.347701 0.337697
v -0.547927 -0.345317 0.340005
v -0.547480 -0.345749 0.343986
v -0.548221 -0.348301 0.346654
v -0.549202 -0.350922 0.348115
v -0.550364 -0.353857 0.349118
v -0.641180 -0.318286 0.368753
v -0.642639 -0.320951 0.367257
v -0.643389 -0.319918 0.363922
v -0.643303 -0.316997 0.360837
v -0.642763 -0.313461 0.358315
v -0.642019 -0.309999 0.356766
v -0.640893 -0.306831 0.356514
v -0.639424 -0.304188 0.358183
v -0.638455 -0.304661 0.362154
v -0.638419 -0.307441 0.365467
v -0.638842 -0.310886 0.367651
v -0.639904 -0.314484 0.368811
f 24 23 22
f 24 22 28
f 35 21 20
f 35 20 36
f 28 22 35
f 28 35 36
f 30 24 28
f 30 28 29
f 36 20 19
f 36 19 37
f 29 28 36
f 29 36 37
f 26 25 30
f 26 30 29
f 38 26 29
f 38 29 37
f 38 37 19
f 38 19 27
f 27 19 7
f 27 7 5
f 39 38 27
f 39 27 5
f 66 65 45
f 66 45 46
f 58 59 71
f 58 71 72
f 57 58 72
f 57 72 73
f 83 33 13
f 83 13 82
f 83 82 58
f 83 58 57
f 56 57 73
f 56 73 74
f 84 11 33
f 84 33 83
f 84 83 57
f 84 57 56
f 55 56 74
f 55 74 75
f 85 9 11
f 85 11 84
f 85 84 56
f 85 56 55
f 55 75 52
f 55 52 54
f 85 55 54
f 85 54 86
f 54 52 45
f 54 45 49
f 87 86 54
f 87 54 49
f 64 49 45
f 64 45 65
f 88 87 49
f 88 49 64
f 64 65 41
f 64 41 50
f 89 88 64
f 89 64 50
f 50 41 42
f 50 42 51
f 90 2 1
f 90 1 89
f 90 89 50
f 90 50 51
f 61 51 42
f 61 42 62
f 91 90 51
f 91 51 61
f 60 61 62
f 60 62 69
f 69 71 59
f 69 59 60
f 92 60 59
f 92 59 81
f 92 91 61
f 92 61 60
f 82 13 15
f 82 15 81
f 81 15 17
f 81 17 92
f 81 59 58
f 81 58 82
f 31 30 25
f 31 25 3
f 4 3 25
f 4 25 26
f 26 38 39
f 26 39 4
f 86 87 6
f 86 6 8
f 8 9 85
f 8 85 86
f 10 7 19
f 10 19 20
f 12 10 20
f 12 20 21
f 16 14 22
f 16 22 23
f 18 16 23
f 18 23 24
f 24 30 31
f 24 31 18
f 32 2 90
f 32 90 91
f 91 92 17
f 91 17 32
f 34 12 21
f 34 21 35
f 35 22 14
f 35 14 34
f 40 6 87
f 40 87 88
f 40 88 89
f 40 89 1
f 94 1 2
f 94 2 93
f 93 2 32
f 93 32 102
f 3 4 94
f 3 94 93
f 93 102 31
f 93 31 3
f 4 39 104
f 4 104 94
f 94 104 40
f 94 40 1
f 95 5 7
f 95 7 96
f 104 39 5
f 104 5 95
f 95 96 8
f 95 8 6
f 6 40 104
f 6 104 95
f 96 7 10
f 96 10 97
f 96 97 9
f 96 9 8
f 98 11 9
f 98 9 97
f 10 12 98
f 10 98 97
f 103 33 11
f 103 11 98
f 12 34 103
f 12 103 98
f 100 15 13
f 100 13 99
f 99 13 33
f 99 33 103
f 14 16 100
f 14 100 99
f 99 103 34
f 99 34 14
f 101 17 15
f 101 15 100
f 16 18 101
f 16 101 100
f 102 32 17
f 102 17 101
f 18 31 102
f 18 102 101
f 44 42 41
f 44 41 43
f 43 41 65
f 43 65 66
f 62 42 44
f 62 44 63
f 63 44 43
f 63 43 105
f 43 66 46
f 43 46 105
f 106 105 46
f 106 46 48
f 68 63 105
f 68 105 106
f 67 62 63
f 67 63 68
f 48 46 45
f 48 45 47
f 53 47 45
f 53 45 52
f 76 53 52
f 76 52 75
f 77 76 75
f 77 75 74
f 78 77 74
f 78 74 73
f 79 78 73
f 79 73 72
f 80 79 72
f 80 72 71
f 80 71 69
f 80 69 70
f 70 69 62
f 70 62 67
f 68 106 107
f 68 107 109
f 109 107 122
f 109 122 123
f 67 68 109
f 67 109 110
f 110 109 123
f 110 123 124
f 118 70 67
f 118 67 110
f 118 110 124
f 118 124 125
f 117 80 70
f 117 70 118
f 117 118 125
f 117 125 126
f 116 79 80
f 116 80 117
f 116 117 126
f 116 126 127
f 115 78 79
f 115 79 116
f 115 116 127
f 115 127 128
f 114 77 78
f 114 78 115
f 114 115 128
f 114 128 129
f 113 76 77
f 113 77 114
f 113 114 129
f 113 129 130
f 112 53 76
f 112 76 113
f 112 113 130
f 112 130 119
f 111 47 53
f 111 53 112
f 111 112 119
f 111 119 120
f 108 48 47
f 108 47 111
f 107 106 48
f 107 48 108
f 121 122 107
f 121 107 108
f 108 111 120
f 108 120 121
f 131 132 120
f 131 120 119
f 142 131 119
f 142 119 130
f 141 142 130
f 141 130 129
f 140 141 129
f 140 129 128
f 139 140 128
f 139 128 127
f 138 139 127
f 138 127 126
f 137 138 126
f 137 126 125
f 136 137 125
f 136 125 124
f 135 136 124
f 135 124 123
f 134 135 123
f 134 123 122
f 121 120 132
f 121 132 133
f 133 134 122
f 133 122 121
f 190 179 167
f 190 167 178
f 202 191 179
f 202 179 190
f 189 190 178
f 189 178 177
f 201 202 190
f 201 190 189
f 188 189 177
f 188 177 176
f 200 201 189
f 200 189 188
f 187 188 176
f 187 176 175
f 199 200 188
f 199 188 187
f 186 187 175
f 186 175 174
f 198 199 187
f 198 187 186
f 185 186 174
f 185 174 173
f 197 198 186
f 197 186 185
f 184 185 173
f 184 173 172
f 196 197 185
f 196 185 184
f 183 184 172
f 183 172 171
f 195 196 184
f 195 184 183
f 182 183 171
f 182 171 170
f 194 195 183
f 194 183 182
f 181 182 170
f 181 170 169
f 193 194 182
f 193 182 181
f 168 167 179
f 168 179 180
f 180 181 169
f 180 169 168
f 180 179 191
f 180 191 192
f 192 193 181
f 192 181 180
f 250 234 233
f 250 233 249
f 259 250 249
f 259 249 260
f 239 229 228
f 239 228 255
f 230 229 239
f 230 239 246
f 231 230 246
f 231 246 247
f 257 233 232
f 257 232 248
f 232 231 247
f 232 247 248
f 258 249 233
f 258 233 257
f 280 239 255
f 280 255 256
f 269 271 272
f 269 272 284
f 280 256 269
f 280 269 284
f 281 246 239
f 281 239 280
f 284 272 275
f 284 275 285
f 281 280 284
f 281 284 285
f 282 247 246
f 282 246 281
f 285 275 277
f 285 277 286
f 282 281 285
f 282 285 286
f 258 257 248
f 258 248 283
f 283 248 247
f 283 247 282
f 286 277 279
f 286 279 287
f 260 249 258
f 260 258 262
f 262 258 283
f 262 283 287
f 287 279 263
f 287 263 262
f 283 282 286
f 283 286 287
f 256 255 228
f 256 228 240
f 241 240 228
f 241 228 227
f 272 271 270
f 272 270 273
f 275 272 273
f 275 273 274
f 277 275 274
f 277 274 276
f 279 277 276
f 279 276 278
f 264 263 279
f 264 279 278
f 264 260 262
f 264 262 263
f 265 260 264
f 265 264 298
f 269 256 240
f 269 240 268
f 270 271 269
f 270 269 268
f 289 241 245
f 289 245 300
f 288 240 241
f 288 241 289
f 268 240 288
f 268 288 290
f 290 288 289
f 290 289 308
f 308 306 291
f 308 291 290
f 308 289 300
f 308 300 302
f 308 302 303
f 308 303 306
f 241 227 244
f 241 244 245
f 244 227 238
f 244 238 242
f 242 238 237
f 242 237 243
f 243 237 236
f 243 236 254
f 302 300 245
f 302 245 301
f 309 245 244
f 309 244 242
f 310 309 242
f 310 242 243
f 235 234 251
f 235 251 253
f 254 236 235
f 254 235 253
f 311 310 243
f 311 243 254
f 251 234 250
f 251 250 252
f 315 253 251
f 315 251 252
f 311 254 253
f 311 253 315
f 252 250 259
f 252 259 261
f 266 259 260
f 266 260 265
f 267 261 259
f 267 259 266
f 298 264 278
f 298 278 297
f 319 265 298
f 319 298 297
f 320 266 265
f 320 265 319
f 317 267 266
f 317 266 320
f 320 319 321
f 320 321 322
f 325 322 321
f 325 321 324
f 326 325 324
f 326 324 327
f 321 319 297
f 321 297 299
f 327 324 321
f 327 321 299
f 317 320 322
f 317 322 323
f 323 322 325
f 323 325 326
f 318 261 267
f 318 267 317
f 316 315 252
f 316 252 261
f 314 311 315
f 314 315 316
f 313 310 311
f 313 311 314
f 312 309 310
f 312 310 313
f 312 301 245
f 312 245 309
f 304 303 302
f 304 302 301
f 318 317 323
f 318 323 329
f 316 261 318
f 316 318 331
f 314 316 331
f 314 331 332
f 313 314 332
f 313 332 333
f 312 313 333
f 312 333 334
f 304 301 312
f 304 312 334
f 306 303 304
f 306 304 307
f 268 290 291
f 268 291 305
f 305 291 306
f 305 306 307
f 292 270 268
f 292 268 305
f 307 304 334
f 307 334 338
f 338 334 333
f 338 333 337
f 339 305 307
f 339 307 338
f 273 270 292
f 273 292 293
f 293 292 305
f 293 305 339
f 294 274 273
f 294 273 293
f 337 333 332
f 337 332 336
f 339 338 337
f 339 337 340
f 294 293 339
f 294 339 340
f 276 274 294
f 276 294 295
f 331 318 329
f 331 329 335
f 336 332 331
f 336 331 335
f 340 337 336
f 340 336 341
f 295 294 340
f 295 340 341
f 329 323 326
f 329 326 328
f 328 326 327
f 328 327 330
f 341 336 335
f 341 335 342
f 278 276 295
f 278 295 296
f 296 295 341
f 296 341 342
f 299 297 278
f 299 278 296
f 330 327 299
f 330 299 296
f 342 328 330
f 342 330 296
f 342 335 329
f 342 329 328
f 343 344 144
f 343 144 143
f 143 144 133
f 143 133 132
f 143 154 354
f 143 354 343
f 132 131 154
f 132 154 143
f 344 345 145
f 344 145 144
f 144 145 134
f 144 134 133
f 345 346 146
f 345 146 145
f 145 146 135
f 145 135 134
f 346 347 147
f 346 147 146
f 146 147 136
f 146 136 135
f 347 348 148
f 347 148 147
f 147 148 137
f 147 137 136
f 348 349 149
f 348 149 148
f 148 149 138
f 148 138 137
f 349 350 150
f 349 150 149
f 149 150 139
f 149 139 138
f 350 351 151
f 350 151 150
f 150 151 140
f 150 140 139
f 351 352 152
f 351 152 151
f 151 152 141
f 151 141 140
f 352 353 153
f 352 153 152
f 152 153 142
f 152 142 141
f 353 354 154
f 353 154 153
f 153 154 131
f 153 131 142
f 167 168 156
f 167 156 155
f 155 156 344
f 155 344 343
f 155 166 178
f 155 178 167
f 343 354 166
f 343 166 155
f 168 169 157
f 168 157 156
f 156 157 345
f 156 345 344
f 169 170 158
f 169 158 157
f 157 158 346
f 157 346 345
f 170 171 159
f 170 159 158
f 158 159 347
f 158 347 346
f 171 172 160
f 171 160 159
f 159 160 348
f 159 348 347
f 172 173 161
f 172 161 160
f 160 161 349
f 160 349 348
f 173 174 162
f 173 162 161
f 161 162 350
f 161 350 349
f 174 175 163
f 174 163 162
f 162 163 351
f 162 351 350
f 175 176 164
f 175 164 163
f 163 164 352
f 163 352 351
f 176 177 165
f 176 165 164
f 164 165 353
f 164 353 352
f 177 178 166
f 177 166 165
f 165 166 354
f 165 354 353
f 203 204 192
f 203 192 191
f 355 356 204
f 355 204 203
f 191 202 214
f 191 214 203
f 203 214 366
f 203 366 355
f 204 205 193
f 204 193 192
f 356 357 205
f 356 205 204
f 205 206 194
f 205 194 193
f 357 358 206
f 357 206 205
f 206 207 195
f 206 195 194
f 358 359 207
f 358 207 206
f 207 208 196
f 207 196 195
f 359 360 208
f 359 208 207
f 208 209 197
f 208 197 196
f 360 361 209
f 360 209 208
f 209 210 198
f 209 198 197
f 361 362 210
f 361 210 209
f 210 211 199
f 210 199 198
f 362 363 211
f 362 211 210
f 211 212 200
f 211 200 199
f 363 364 212
f 363 212 211
f 212 213 201
f 212 201 200
f 364 365 213
f 364 213 212
f 213 214 202
f 213 202 201
f 365 366 214
f 365 214 213
f 227 228 216
f 227 216 215
f 215 216 356
f 215 356 355
f 215 226 238
f 215 238 227
f 355 366 226
f 355 226 215
f 228 229 217
f 228 217 216
f 216 217 357
f 216 357 356
f 229 230 218
f 229 218 217
f 217 218 358
f 217 358 357
f 230 231 219
f 230 219 218
f 218 219 359
f 218 359 358
f 231 232 220
f 231 220 219
f 219 220 360
f 219 360 359
f 232 233 221
f 232 221 220
f 220 221 361
f 220 361 360
f 233 234 222
f 233 222 221
f 221 222 362
f 221 362 361
f 234 235 223
f 234 223 222
f 222 223 363
f 222 363 362
f 235 236 224
f 235 224 223
f 223 224 364
f 223 364 363
f 236 237 225
f 236 225 224
f 224 225 365
f 224 365 364
f 237 238 226
f 237 226 225
f 225 226 366
f 225 366 365
