# Rib_10R posed
v -0.350717 0.092791 0.415489
v -0.349852 0.091534 0.416065
v -0.350980 0.089594 0.416807
v -0.351456 0.091487 0.415978
v -0.349857 0.094512 0.414741
v -0.349891 0.093937 0.415033
v -0.350801 0.093484 0.415143
v -0.350876 0.094315 0.415071
v -0.349710 0.095478 0.414513
v -0.345839 0.098601 0.415089
v -0.346051 0.097022 0.414420
v -0.349486 0.097040 0.415088
v -0.345995 0.100555 0.416618
v -0.341878 0.101020 0.418032
v -0.341237 0.099116 0.416340
v -0.339205 0.099571 0.419757
v -0.338745 0.097905 0.418138
v -0.337987 0.096701 0.421340
v -0.337336 0.094797 0.420028
v -0.342879 0.102872 0.420339
v -0.340005 0.101303 0.421846
v -0.341970 0.103537 0.425309
v -0.340743 0.101435 0.426158
v -0.338785 0.098646 0.423096
v -0.338674 0.096884 0.423698
v -0.337750 0.094535 0.422141
v -0.337328 0.092381 0.420965
v -0.340563 0.099813 0.426634
v -0.342044 0.098326 0.426955
v -0.340222 0.095262 0.424234
v -0.339502 0.092875 0.422685
v -0.344692 0.105284 0.423979
v -0.346772 0.102908 0.419010
v -0.348610 0.105803 0.422459
v -0.348288 0.107529 0.430269
v -0.345895 0.106132 0.431742
v -0.344820 0.104799 0.432600
v -0.353065 0.108689 0.443359
v -0.355458 0.109769 0.441816
v -0.352295 0.107305 0.443975
v -0.338115 0.095774 0.417085
v -0.336353 0.092907 0.419036
v -0.338204 0.094083 0.416645
v -0.340490 0.095925 0.415372
v -0.340480 0.097554 0.415525
v -0.339222 0.092443 0.416895
v -0.341725 0.094354 0.415974
v -0.346644 0.095711 0.414470
v -0.347773 0.094401 0.415219
v -0.346210 0.091728 0.417617
v -0.341508 0.090419 0.418472
v -0.337291 0.091219 0.418123
v -0.337151 0.090473 0.420213
v -0.338473 0.089054 0.419111
v -0.339974 0.088781 0.420791
v -0.340624 0.087684 0.419512
v -0.339585 0.088994 0.418593
v -0.341131 0.087648 0.418973
v -0.338160 0.090644 0.417822
v -0.349394 0.099171 0.416301
v -0.351157 0.097861 0.416755
v -0.350954 0.095896 0.415633
v -0.352123 0.093919 0.417079
v -0.351881 0.096156 0.418033
v -0.351536 0.091907 0.419335
v -0.351061 0.094127 0.420044
v -0.351409 0.096422 0.421267
v -0.352272 0.098741 0.419583
v -0.354049 0.101304 0.422534
v -0.352948 0.099084 0.423986
v -0.355669 0.102448 0.429604
v -0.357067 0.104222 0.428079
v -0.353510 0.103475 0.421646
v -0.357111 0.105867 0.427355
v -0.351597 0.100701 0.418557
v -0.347558 0.092150 0.422312
v -0.348279 0.094510 0.423041
v -0.349862 0.097381 0.425664
v -0.351589 0.089789 0.418262
v -0.348419 0.087891 0.420174
v -0.347609 0.090138 0.421719
v -0.351401 0.089126 0.417385
v -0.348367 0.087428 0.418768
v -0.344187 0.086593 0.419580
v -0.343871 0.087209 0.420859
v -0.343305 0.089577 0.422148
v -0.352116 0.092230 0.416353
v -0.351706 0.091684 0.416020
v -0.348037 0.088256 0.418054
v -0.349913 0.101877 0.418445
v -0.351805 0.104908 0.421708
v -0.355735 0.107541 0.427340
v -0.352403 0.108241 0.428421
v -0.363601 0.108117 0.437739
v -0.362596 0.110020 0.437779
v -0.359294 0.110434 0.439628
v -0.436933 -0.002484 0.445767
v -0.437043 -0.003544 0.447232
v -0.437663 -0.003883 0.445673
v -0.437295 -0.003233 0.445177
v -0.437483 -0.002631 0.443337
v -0.437278 -0.001370 0.444032
v -0.438237 -0.001484 0.441148
v -0.437701 -0.000063 0.441928
v -0.439590 -0.002414 0.441262
v -0.441109 -0.001535 0.438418
v -0.439425 -0.001037 0.439117
v -0.439805 -0.004941 0.444288
v -0.441327 -0.003448 0.442353
v -0.438375 -0.003232 0.443727
v -0.438303 -0.004800 0.445585
v -0.439170 -0.006113 0.445761
v -0.441243 -0.005841 0.446337
v -0.442350 -0.003863 0.444924
v -0.441689 -0.005515 0.447697
v -0.442880 -0.003163 0.445771
v -0.438683 -0.005927 0.446852
v -0.438016 -0.003958 0.451498
v -0.439812 -0.003344 0.450673
v -0.437134 -0.002052 0.459026
v -0.438572 -0.001154 0.458102
v -0.435827 -0.001319 0.459057
v -0.436875 -0.003555 0.451800
v -0.437466 -0.004526 0.447476
v -0.440670 0.001847 0.456329
v -0.441609 -0.001512 0.449814
v -0.435585 0.001589 0.468270
v -0.437503 0.002808 0.467268
v -0.439234 0.007312 0.464409
v -0.442481 0.001574 0.447576
v -0.442834 -0.000894 0.442398
v -0.442415 -0.002352 0.441182
v -0.442050 -0.001840 0.439846
v -0.442607 0.000689 0.440743
v -0.441090 0.000957 0.438525
v -0.441879 0.003244 0.446336
v -0.440893 0.003577 0.445821
v -0.439596 0.003302 0.445997
v -0.438966 0.000997 0.439854
v -0.438620 0.002618 0.446532
v -0.437723 0.001335 0.447455
v -0.436884 -0.000398 0.448801
v -0.436284 -0.002311 0.451024
v -0.436318 0.002580 0.455950
v -0.435355 0.000192 0.457872
v -0.434910 0.006850 0.464046
v -0.433754 0.003903 0.466273
v -0.437062 0.004372 0.454760
v -0.435643 0.008743 0.463005
v -0.432872 0.012094 0.472146
v -0.432617 0.010759 0.473300
v -0.434409 0.002593 0.467431
v -0.433047 0.009857 0.474185
v -0.437926 0.005818 0.454044
v -0.436396 0.010147 0.462486
v -0.434267 0.014485 0.470901
v -0.437062 0.010998 0.462412
v -0.435022 0.015327 0.470754
v -0.433483 0.013359 0.471332
v -0.431663 0.020598 0.478672
v -0.430818 0.019654 0.479040
v -0.430234 0.018725 0.480093
v -0.432427 0.021266 0.478609
v -0.435892 0.015906 0.470710
v -0.433263 0.021847 0.478535
v -0.429844 0.030871 0.486251
v -0.429013 0.030100 0.486216
v -0.428170 0.029259 0.486290
v -0.437837 0.011461 0.462513
v -0.439585 0.007038 0.453716
v -0.440543 0.006901 0.453784
v -0.438985 0.011338 0.462579
v -0.437169 0.016124 0.470869
v -0.438717 0.006677 0.453789
v -0.393318 0.084262 0.498150
v -0.387963 0.090581 0.492627
v -0.387436 0.091363 0.493740
v -0.392828 0.085128 0.499358
v -0.387504 0.093169 0.495103
v -0.392906 0.087393 0.501070
v -0.381609 0.098116 0.486234
v -0.382646 0.100012 0.486753
v -0.388551 0.095161 0.495383
v -0.374046 0.105019 0.474093
v -0.373204 0.103051 0.473252
v -0.399228 0.087412 0.492924
v -0.398542 0.086380 0.492845
v -0.404293 0.078375 0.497153
v -0.405053 0.079386 0.497169
v -0.434504 0.022514 0.478645
v -0.430920 0.031835 0.486673
v -0.431654 0.032252 0.488277
v -0.426878 0.043483 0.496217
v -0.426705 0.042577 0.493707
v -0.421977 0.054401 0.501076
v -0.421948 0.052837 0.498297
v -0.416660 0.064552 0.503815
v -0.416797 0.062340 0.500616
v -0.421133 0.051357 0.497496
v -0.416236 0.061117 0.499519
v -0.415397 0.059971 0.499454
v -0.420173 0.050178 0.497600
v -0.425750 0.041281 0.492903
v -0.424816 0.040180 0.492823
v -0.411051 0.074343 0.503521
v -0.411605 0.072016 0.500099
v -0.410939 0.070424 0.499180
v -0.410125 0.069344 0.499078
v -0.405605 0.081040 0.498369
v -0.404769 0.082940 0.501565
v -0.394177 0.089322 0.501292
v -0.398399 0.090745 0.497669
v -0.402726 0.082497 0.503481
v -0.396334 0.090395 0.499891
v -0.392555 0.097123 0.491403
v -0.390445 0.096622 0.493907
v -0.400608 0.081248 0.504523
v -0.399151 0.079670 0.504641
v -0.405376 0.070708 0.506382
v -0.406724 0.072181 0.506255
v -0.408783 0.073596 0.505363
v -0.414535 0.064038 0.505535
v -0.420085 0.053604 0.503450
v -0.425471 0.042345 0.498246
v -0.430800 0.030835 0.490090
v -0.438214 0.015264 0.471742
v -0.439956 0.009953 0.463179
v -0.371584 0.106885 0.450500
v -0.370934 0.109156 0.450736
v -0.367999 0.109761 0.452794
v -0.364843 0.109148 0.455072
v -0.362579 0.106045 0.456568
v -0.373657 0.101304 0.471695
v -0.363307 0.104442 0.455768
v -0.363041 0.107834 0.456561
v -0.376464 0.106184 0.472453
v -0.352990 0.105884 0.443877
v -0.364305 0.103682 0.455290
v -0.365487 0.103416 0.454896
v -0.356052 0.104610 0.443012
v -0.354371 0.104948 0.443545
v -0.345079 0.103461 0.432989
v -0.346661 0.102258 0.433044
v -0.349163 0.101343 0.432544
v -0.345596 0.097104 0.426869
v -0.343936 0.094198 0.424164
v -0.343460 0.091744 0.423296
v -0.339922 0.090517 0.421790
v -0.363261 0.106823 0.438461
v -0.371247 0.105698 0.451190
v -0.393607 0.092797 0.486372
v -0.394266 0.093948 0.486319
v -0.392334 0.091371 0.487288
v -0.397332 0.085325 0.493550
v -0.381254 0.105415 0.466590
v -0.381611 0.103274 0.465960
v -0.379940 0.100700 0.467549
v -0.387291 0.095939 0.479090
v -0.388620 0.097518 0.478005
v -0.381323 0.102047 0.466409
v -0.388941 0.098768 0.477609
v -0.388638 0.100384 0.478573
v -0.399600 0.089062 0.494278
v -0.394291 0.095838 0.487915
v -0.384736 0.101285 0.484991
v -0.386962 0.101863 0.481898
v -0.379024 0.106771 0.469553
v -0.361596 0.105264 0.439993
v -0.358580 0.104564 0.441895
v -0.367318 0.103595 0.453963
v -0.369790 0.104421 0.452382
v -0.352706 0.101334 0.431454
v -0.377664 0.099898 0.469330
v -0.375644 0.100099 0.470604
v -0.388780 0.090227 0.491393
v -0.393975 0.084128 0.497101
v -0.390487 0.090257 0.489195
v -0.385115 0.094955 0.481038
v -0.383252 0.095164 0.483005
v -0.395462 0.084411 0.495289
v -0.381717 0.096499 0.484809
v -0.382364 0.095685 0.483873
v -0.374535 0.100489 0.470980
v -0.343984 0.087134 0.418926
v -0.434097 0.009662 0.474345
v -0.430923 0.018054 0.481971
v -0.431937 0.018269 0.482105
v -0.430204 0.018081 0.481311
v -0.426364 0.026846 0.489182
v -0.426244 0.026995 0.487739
v -0.421897 0.036991 0.494091
v -0.421593 0.036923 0.495615
v -0.417191 0.047300 0.498871
v -0.416605 0.047300 0.500107
v -0.411312 0.057700 0.502612
v -0.411945 0.057598 0.501599
v -0.406149 0.067423 0.502310
v -0.405559 0.067535 0.503145
v -0.412942 0.058038 0.500798
v -0.407335 0.067582 0.501081
v -0.401326 0.076448 0.499125
v -0.400027 0.076334 0.500702
v -0.399431 0.076479 0.501648
v -0.414400 0.058971 0.499851
v -0.409003 0.068277 0.499607
v -0.418088 0.047961 0.498222
v -0.419231 0.049063 0.497789
v -0.403097 0.077351 0.497754
v -0.405101 0.068543 0.504621
v -0.410933 0.058768 0.504368
v -0.417212 0.049744 0.503056
v -0.416606 0.048283 0.501791
v -0.411405 0.060527 0.505740
v -0.424066 0.040458 0.498113
v -0.423067 0.039008 0.497586
v -0.418325 0.051450 0.503486
v -0.429345 0.029078 0.490402
v -0.428181 0.028035 0.490106
v -0.422198 0.037845 0.496828
v -0.412614 0.062151 0.505892
v -0.398988 0.077434 0.502923
v -0.422856 0.037956 0.493251
v -0.427142 0.028111 0.486673
v -0.423904 0.039130 0.492953
v -0.427181 0.027350 0.489817
v -0.433188 0.018755 0.481905
v -0.434652 0.020329 0.481215
v -0.437295 0.012828 0.472887
v -0.435531 0.022365 0.479724
v -0.435654 0.010482 0.473827
v -0.441540 0.005187 0.454463
f 1 2 3
f 1 3 4
f 5 6 1
f 5 1 7
f 5 7 8
f 5 8 9
f 10 11 9
f 10 9 12
f 10 13 14
f 10 14 15
f 15 14 16
f 15 16 17
f 16 18 19
f 16 19 17
f 16 14 20
f 16 20 21
f 21 22 23
f 21 23 24
f 18 24 25
f 18 25 26
f 21 24 18
f 21 18 16
f 19 18 26
f 19 26 27
f 24 23 28
f 24 28 25
f 25 28 29
f 25 29 30
f 25 30 31
f 25 31 26
f 20 32 22
f 20 22 21
f 20 14 13
f 20 13 33
f 32 20 33
f 32 33 34
f 32 35 36
f 32 36 22
f 23 22 36
f 23 36 37
f 38 36 35
f 38 35 39
f 36 38 40
f 36 40 37
f 41 17 19
f 41 19 42
f 43 44 45
f 43 45 41
f 43 46 47
f 43 47 44
f 48 44 47
f 48 47 49
f 5 9 11
f 5 11 48
f 48 11 45
f 48 45 44
f 49 6 5
f 49 5 48
f 50 47 46
f 50 46 51
f 2 49 47
f 2 47 50
f 43 41 42
f 43 42 52
f 52 42 53
f 52 53 54
f 54 53 55
f 54 55 56
f 57 54 56
f 57 56 58
f 54 57 59
f 54 59 52
f 27 53 42
f 27 42 19
f 59 46 43
f 59 43 52
f 15 17 41
f 15 41 45
f 10 15 45
f 10 45 11
f 12 60 13
f 12 13 10
f 61 60 12
f 61 12 62
f 63 64 61
f 63 61 62
f 64 63 65
f 64 65 66
f 64 66 67
f 64 67 68
f 69 68 67
f 69 67 70
f 69 70 71
f 69 71 72
f 73 69 72
f 73 72 74
f 68 69 73
f 68 73 75
f 67 66 76
f 67 76 77
f 67 77 78
f 67 78 70
f 64 68 75
f 64 75 61
f 79 80 81
f 79 81 65
f 79 82 83
f 79 83 80
f 83 84 85
f 83 85 80
f 86 81 80
f 86 80 85
f 82 79 87
f 82 87 88
f 4 3 82
f 4 82 88
f 89 83 82
f 89 82 3
f 79 65 63
f 79 63 87
f 66 65 81
f 66 81 76
f 8 87 63
f 8 63 62
f 7 88 87
f 7 87 8
f 4 88 7
f 4 7 1
f 9 8 62
f 9 62 12
f 61 75 90
f 61 90 60
f 60 90 33
f 60 33 13
f 33 90 91
f 33 91 34
f 73 74 92
f 73 92 91
f 91 92 93
f 91 93 34
f 92 74 94
f 92 94 95
f 93 92 95
f 93 95 96
f 91 90 75
f 91 75 73
f 49 2 1
f 49 1 6
f 97 98 99
f 97 99 100
f 100 101 102
f 100 102 97
f 103 104 102
f 103 102 101
f 105 106 107
f 105 107 103
f 108 109 105
f 108 105 110
f 108 111 112
f 108 112 113
f 114 109 108
f 114 108 113
f 115 116 114
f 115 114 113
f 115 117 118
f 115 118 119
f 118 120 121
f 118 121 119
f 122 120 118
f 122 118 123
f 124 123 118
f 124 118 117
f 121 125 126
f 121 126 119
f 120 127 128
f 120 128 121
f 128 129 125
f 128 125 121
f 126 116 115
f 126 115 119
f 116 126 130
f 116 130 131
f 114 116 131
f 114 131 132
f 112 117 115
f 112 115 113
f 124 117 112
f 124 112 111
f 98 124 111
f 98 111 99
f 110 99 111
f 110 111 108
f 109 114 132
f 109 132 133
f 105 109 133
f 105 133 106
f 106 133 134
f 106 134 135
f 134 136 137
f 134 137 135
f 135 137 138
f 135 138 139
f 107 106 135
f 107 135 139
f 132 131 134
f 132 134 133
f 110 105 103
f 110 103 101
f 100 99 110
f 100 110 101
f 103 107 139
f 103 139 104
f 139 138 140
f 139 140 104
f 104 140 141
f 104 141 102
f 142 97 102
f 142 102 141
f 98 97 142
f 98 142 143
f 143 142 144
f 143 144 145
f 144 146 147
f 144 147 145
f 144 142 141
f 144 141 148
f 144 148 149
f 144 149 146
f 150 151 147
f 150 147 146
f 152 147 151
f 152 151 153
f 145 147 152
f 145 152 122
f 145 122 123
f 145 123 143
f 98 143 123
f 98 123 124
f 154 148 141
f 154 141 140
f 154 155 149
f 154 149 148
f 156 155 157
f 156 157 158
f 149 155 156
f 149 156 159
f 150 146 149
f 150 149 159
f 159 156 160
f 159 160 161
f 150 159 161
f 150 161 162
f 160 156 158
f 160 158 163
f 163 158 164
f 163 164 165
f 166 167 163
f 166 163 165
f 163 167 168
f 163 168 160
f 169 164 158
f 169 158 157
f 170 171 172
f 170 172 169
f 169 172 173
f 169 173 164
f 169 157 174
f 169 174 170
f 174 157 155
f 174 155 154
f 138 174 154
f 138 154 140
f 175 176 177
f 175 177 178
f 177 179 180
f 177 180 178
f 179 181 182
f 179 182 183
f 184 182 181
f 184 181 185
f 186 187 188
f 186 188 189
f 165 190 191
f 165 191 166
f 191 192 193
f 191 193 194
f 193 195 196
f 193 196 194
f 195 197 198
f 195 198 196
f 199 200 201
f 199 201 202
f 191 194 203
f 191 203 166
f 167 166 203
f 167 203 204
f 196 199 203
f 196 203 194
f 203 199 202
f 203 202 204
f 199 196 198
f 199 198 200
f 198 197 205
f 198 205 206
f 207 200 198
f 207 198 206
f 208 201 200
f 208 200 207
f 189 188 208
f 189 208 207
f 206 209 189
f 206 189 207
f 206 205 210
f 206 210 209
f 180 179 183
f 180 183 211
f 212 210 213
f 212 213 214
f 215 212 214
f 215 214 216
f 216 214 211
f 216 211 183
f 213 217 211
f 213 211 214
f 180 211 217
f 180 217 218
f 219 218 217
f 219 217 220
f 221 220 217
f 221 217 213
f 213 210 205
f 213 205 221
f 221 205 197
f 221 197 222
f 195 223 222
f 195 222 197
f 195 193 224
f 195 224 223
f 193 192 225
f 193 225 224
f 165 164 173
f 165 173 190
f 226 173 172
f 226 172 227
f 170 174 138
f 170 138 137
f 137 136 171
f 137 171 170
f 95 94 228
f 95 228 229
f 230 231 39
f 230 39 96
f 96 95 229
f 96 229 230
f 39 35 93
f 39 93 96
f 232 185 233
f 232 233 234
f 235 184 185
f 235 185 232
f 236 184 235
f 236 235 231
f 39 231 235
f 39 235 38
f 40 38 235
f 40 235 232
f 40 232 234
f 40 234 237
f 238 239 240
f 238 240 241
f 29 28 242
f 29 242 243
f 29 243 244
f 29 244 245
f 244 243 241
f 244 241 240
f 242 237 241
f 242 241 243
f 237 234 238
f 237 238 241
f 237 242 37
f 237 37 40
f 28 23 37
f 28 37 242
f 32 34 93
f 32 93 35
f 246 77 76
f 246 76 247
f 77 246 245
f 77 245 78
f 246 30 29
f 246 29 245
f 247 31 30
f 247 30 246
f 27 26 31
f 27 31 248
f 27 248 55
f 27 55 53
f 86 85 55
f 86 55 248
f 247 86 248
f 247 248 31
f 76 81 86
f 76 86 247
f 94 249 250
f 94 250 228
f 251 187 186
f 251 186 252
f 253 254 187
f 253 187 251
f 255 229 228
f 255 228 256
f 257 258 259
f 257 259 260
f 250 260 256
f 250 256 228
f 256 260 259
f 256 259 261
f 261 262 255
f 261 255 256
f 263 264 252
f 263 252 186
f 263 209 210
f 263 210 212
f 189 209 263
f 189 263 186
f 263 212 215
f 263 215 264
f 215 216 265
f 215 265 266
f 184 236 265
f 184 265 182
f 216 183 182
f 216 182 265
f 262 266 267
f 262 267 255
f 229 255 267
f 229 267 230
f 230 267 236
f 230 236 231
f 266 265 236
f 266 236 267
f 266 262 264
f 266 264 215
f 261 252 264
f 261 264 262
f 261 259 251
f 261 251 252
f 253 251 259
f 253 259 258
f 268 249 72
f 268 72 71
f 269 270 271
f 269 271 268
f 78 245 244
f 78 244 272
f 272 71 70
f 272 70 78
f 244 240 269
f 244 269 272
f 272 269 268
f 272 268 71
f 269 240 239
f 269 239 270
f 273 270 239
f 273 239 274
f 275 176 175
f 275 175 276
f 275 277 278
f 275 278 279
f 280 254 253
f 280 253 277
f 275 276 280
f 275 280 277
f 281 177 176
f 281 176 282
f 177 281 181
f 177 181 179
f 185 181 281
f 185 281 233
f 238 234 233
f 238 233 283
f 2 50 89
f 2 89 3
f 89 50 51
f 89 51 284
f 284 51 57
f 284 57 58
f 284 58 56
f 284 56 84
f 284 84 83
f 284 83 89
f 85 84 56
f 85 56 55
f 59 57 51
f 59 51 46
f 120 122 152
f 120 152 127
f 153 285 127
f 153 127 152
f 286 287 285
f 286 285 153
f 151 288 286
f 151 286 153
f 288 151 150
f 288 150 162
f 289 288 162
f 289 162 290
f 289 290 291
f 289 291 292
f 293 294 292
f 293 292 291
f 295 294 293
f 295 293 296
f 297 298 295
f 297 295 296
f 297 296 299
f 297 299 300
f 300 301 302
f 300 302 297
f 302 303 298
f 302 298 297
f 276 302 301
f 276 301 280
f 276 175 303
f 276 303 302
f 304 305 300
f 304 300 299
f 299 306 307
f 299 307 304
f 202 201 304
f 202 304 307
f 305 304 201
f 305 201 208
f 305 308 301
f 305 301 300
f 208 188 308
f 208 308 305
f 188 187 254
f 188 254 308
f 301 308 254
f 301 254 280
f 299 296 293
f 299 293 306
f 295 298 309
f 295 309 310
f 311 312 310
f 311 310 313
f 314 315 311
f 314 311 316
f 224 314 316
f 224 316 223
f 225 317 314
f 225 314 224
f 317 318 315
f 317 315 314
f 311 315 319
f 311 319 312
f 312 319 292
f 312 292 294
f 310 312 294
f 310 294 295
f 311 313 320
f 311 320 316
f 320 220 221
f 320 221 222
f 316 320 222
f 316 222 223
f 219 220 320
f 219 320 313
f 313 310 309
f 313 309 219
f 298 303 321
f 298 321 309
f 321 303 175
f 321 175 178
f 218 321 178
f 218 178 180
f 219 309 321
f 219 321 218
f 293 291 322
f 293 322 306
f 290 323 322
f 290 322 291
f 290 162 161
f 290 161 323
f 323 161 160
f 323 160 168
f 323 168 324
f 323 324 322
f 322 324 307
f 322 307 306
f 168 167 204
f 168 204 324
f 202 307 324
f 202 324 204
f 289 292 319
f 289 319 325
f 286 288 289
f 286 289 325
f 325 319 315
f 325 315 318
f 286 325 318
f 286 318 287
f 287 318 317
f 287 317 326
f 225 327 326
f 225 326 317
f 328 327 329
f 328 329 226
f 129 328 226
f 129 226 227
f 128 330 328
f 128 328 129
f 328 330 326
f 328 326 327
f 329 327 225
f 329 225 192
f 329 192 191
f 329 191 190
f 226 329 190
f 226 190 173
f 287 326 330
f 287 330 285
f 127 285 330
f 127 330 128
f 125 331 130
f 125 130 126
f 130 331 171
f 130 171 136
f 125 129 227
f 125 227 331
f 171 331 227
f 171 227 172
f 131 130 136
f 131 136 134
f 238 283 274
f 238 274 239
f 283 233 281
f 283 281 282
f 282 176 275
f 282 275 279
f 279 274 283
f 279 283 282
f 274 279 278
f 274 278 273
f 278 277 253
f 278 253 258
f 257 273 278
f 257 278 258
f 257 271 270
f 257 270 273
f 271 257 260
f 271 260 250
f 249 268 271
f 249 271 250
f 72 249 94
f 72 94 74
