# Rib_9L posed
v -0.439446 -0.133854 0.365329
v -0.439640 -0.134963 0.363745
v -0.446416 -0.141285 0.372229
v -0.446165 -0.139801 0.373747
v -0.456562 -0.147193 0.388169
v -0.454839 -0.147108 0.389902
v -0.444160 -0.138952 0.375305
v -0.467870 -0.153216 0.405510
v -0.466131 -0.153250 0.407196
v -0.463757 -0.154819 0.409059
v -0.452167 -0.147986 0.391306
v -0.477692 -0.157642 0.425867
v -0.475175 -0.159985 0.428520
v -0.488146 -0.160802 0.443078
v -0.485140 -0.163138 0.445982
v -0.461712 -0.156634 0.410288
v -0.473308 -0.162294 0.430553
v -0.472534 -0.163527 0.431189
v -0.460739 -0.158045 0.410358
v -0.483065 -0.165558 0.448223
v -0.482346 -0.167085 0.449236
v -0.472075 -0.165301 0.431527
v -0.460112 -0.159835 0.410215
v -0.448040 -0.151370 0.391240
v -0.449600 -0.149746 0.391734
v -0.556013 -0.070914 0.510621
v -0.554818 -0.071201 0.507364
v -0.553400 -0.076391 0.508963
v -0.554919 -0.075943 0.512864
v -0.551418 -0.083660 0.511186
v -0.549501 -0.092152 0.513344
v -0.551307 -0.091785 0.515652
v -0.553091 -0.082991 0.513411
v -0.552215 -0.081925 0.516621
v -0.550931 -0.090666 0.519065
v -0.553301 -0.074844 0.515703
v -0.543789 -0.088709 0.523246
v -0.548309 -0.089579 0.521057
v -0.546271 -0.099884 0.520803
v -0.542889 -0.099268 0.521417
v -0.540468 -0.110879 0.520367
v -0.543030 -0.111262 0.519853
v -0.549765 -0.101490 0.516876
v -0.547829 -0.101492 0.514636
v -0.544330 -0.111571 0.513920
v -0.546679 -0.112381 0.515987
v -0.539716 -0.123538 0.511465
v -0.541569 -0.125344 0.512899
v -0.540343 -0.125642 0.515606
v -0.545251 -0.111882 0.518716
v -0.548772 -0.100811 0.519575
v -0.537973 -0.124592 0.516812
v -0.535594 -0.123706 0.517545
v -0.537751 -0.110253 0.519994
v -0.533599 -0.122776 0.517401
v -0.529262 -0.135588 0.511467
v -0.527529 -0.134415 0.511691
v -0.532048 -0.121688 0.516515
v -0.536282 -0.109789 0.518553
v -0.526026 -0.132875 0.511297
v -0.525231 -0.140924 0.499591
v -0.530906 -0.132110 0.506131
v -0.529252 -0.131469 0.506866
v -0.523396 -0.140332 0.500497
v -0.534884 -0.121283 0.512003
v -0.536463 -0.121880 0.511466
v -0.527520 -0.131374 0.508259
v -0.521380 -0.140416 0.501864
v -0.532493 -0.120591 0.513409
v -0.539120 -0.110168 0.513735
v -0.536854 -0.109541 0.515055
v -0.531864 -0.121213 0.515428
v -0.536035 -0.109552 0.517017
v -0.526152 -0.131701 0.509846
v -0.519967 -0.140819 0.503066
v -0.506564 -0.162377 0.487185
v -0.498964 -0.168353 0.476105
v -0.497437 -0.166035 0.476390
v -0.504887 -0.159859 0.487362
v -0.491552 -0.171573 0.464196
v -0.489998 -0.169148 0.464439
v -0.490005 -0.167621 0.464097
v -0.497281 -0.164481 0.476144
v -0.504802 -0.158169 0.486952
v -0.514383 -0.154383 0.496694
v -0.512650 -0.152208 0.496861
v -0.516807 -0.155321 0.495634
v -0.509140 -0.163229 0.486166
v -0.524084 -0.146796 0.503652
v -0.527211 -0.147933 0.502029
v -0.520375 -0.156094 0.493889
v -0.512700 -0.163398 0.484522
v -0.521799 -0.145561 0.504635
v -0.512483 -0.150247 0.496190
v -0.519365 -0.141901 0.504187
v -0.520021 -0.143887 0.504920
v -0.531180 -0.136849 0.510884
v -0.533592 -0.138033 0.509577
v -0.514708 -0.148802 0.494463
v -0.513174 -0.149423 0.495477
v -0.499198 -0.162026 0.474320
v -0.492356 -0.163970 0.461435
v -0.495412 -0.162065 0.459115
v -0.501981 -0.160148 0.472335
v -0.504485 -0.160442 0.471038
v -0.497950 -0.162448 0.457617
v -0.511705 -0.155336 0.482392
v -0.509468 -0.154931 0.483455
v -0.506913 -0.155883 0.485060
v -0.519024 -0.148546 0.491903
v -0.517110 -0.148247 0.492927
v -0.490424 -0.166541 0.463336
v -0.497774 -0.163541 0.475554
v -0.505342 -0.157193 0.486303
v -0.538701 -0.099054 0.516401
v -0.538718 -0.098925 0.518702
v -0.539556 -0.098915 0.520069
v -0.540762 -0.088715 0.521826
v -0.546065 -0.080425 0.519891
v -0.543455 -0.080589 0.518488
v -0.411754 -0.110376 0.347966
v -0.412714 -0.110573 0.346642
v -0.414974 -0.109780 0.348912
v -0.412693 -0.109930 0.349442
v -0.416069 -0.110679 0.353684
v -0.412936 -0.111569 0.352163
v -0.413019 -0.110108 0.351153
v -0.415661 -0.109560 0.352513
v -0.415616 -0.109334 0.351231
v -0.418852 -0.108717 0.351274
v -0.419211 -0.108541 0.352831
v -0.413445 -0.109652 0.350662
v -0.418168 -0.109661 0.348482
v -0.420916 -0.109024 0.348322
v -0.421741 -0.108570 0.350759
v -0.447085 -0.152889 0.390588
v -0.460363 -0.161866 0.409929
v -0.472863 -0.167161 0.431259
v -0.482032 -0.169003 0.449817
v -0.483396 -0.170763 0.449495
v -0.440835 -0.139481 0.376154
v -0.437823 -0.141122 0.376005
v -0.434038 -0.132998 0.367664
v -0.437585 -0.133004 0.366876
v -0.431171 -0.134463 0.367746
v -0.428630 -0.126237 0.362353
v -0.432103 -0.126194 0.361446
v -0.425133 -0.126984 0.361883
v -0.479902 -0.158025 0.424010
v -0.490549 -0.161088 0.441242
v -0.480888 -0.159536 0.423054
v -0.491846 -0.162799 0.440670
v -0.481254 -0.161564 0.422868
v -0.492400 -0.165689 0.441252
v -0.480136 -0.164872 0.424510
v -0.491262 -0.169056 0.443277
v -0.467132 -0.159992 0.404378
v -0.464732 -0.162060 0.406359
v -0.477528 -0.167216 0.427323
v -0.453979 -0.153860 0.385262
v -0.451009 -0.155752 0.386334
v -0.456255 -0.151119 0.385392
v -0.468601 -0.157014 0.403545
v -0.488555 -0.171352 0.445893
v -0.474831 -0.168093 0.429904
v -0.485441 -0.171779 0.448273
v -0.462345 -0.163011 0.408493
v -0.500862 -0.166783 0.457466
v -0.500289 -0.170471 0.459180
v -0.506406 -0.162008 0.470484
v -0.499636 -0.164034 0.457079
v -0.508118 -0.164590 0.470542
v -0.508068 -0.168074 0.471763
v -0.468563 -0.154612 0.404229
v -0.456973 -0.148584 0.386616
v -0.422888 -0.114940 0.356877
v -0.419021 -0.115430 0.356347
v -0.417183 -0.112463 0.354900
v -0.421045 -0.111526 0.355339
v -0.416024 -0.116348 0.354816
v -0.414166 -0.113681 0.353276
v -0.412665 -0.114425 0.351164
v -0.411395 -0.112127 0.350189
v -0.414548 -0.117393 0.352911
v -0.421428 -0.120185 0.357974
v -0.418465 -0.120839 0.356593
v -0.422590 -0.127797 0.360685
v -0.425267 -0.119816 0.358527
v -0.427276 -0.131186 0.355335
v -0.432533 -0.138910 0.361357
v -0.435901 -0.137957 0.360949
v -0.430599 -0.130598 0.355105
v -0.421525 -0.128660 0.359395
v -0.428107 -0.136760 0.365936
v -0.428486 -0.137837 0.364591
v -0.422246 -0.129699 0.358054
v -0.434661 -0.144020 0.373941
v -0.434725 -0.145630 0.372598
v -0.435850 -0.142627 0.375070
v -0.429105 -0.135684 0.367004
v -0.446991 -0.155062 0.389532
v -0.448432 -0.156340 0.387834
v -0.436184 -0.146801 0.371072
v -0.439020 -0.146926 0.370009
v -0.442596 -0.145616 0.369766
v -0.445509 -0.143366 0.370621
v -0.551652 -0.076141 0.507469
v -0.549659 -0.083672 0.510032
v -0.549376 -0.075979 0.507045
v -0.547884 -0.083446 0.509635
v -0.542175 -0.111085 0.513547
v -0.545506 -0.101201 0.513612
v -0.535441 -0.137255 0.507162
v -0.529794 -0.146753 0.499690
v -0.523616 -0.155040 0.491701
v -0.516077 -0.162439 0.482585
v -0.505138 -0.169488 0.473573
v -0.501642 -0.169564 0.475164
v -0.494107 -0.172839 0.463141
v -0.497515 -0.172359 0.461300
v -0.515546 -0.158809 0.481582
v -0.513619 -0.156705 0.481865
v -0.520831 -0.149565 0.491242
v -0.522789 -0.151582 0.490834
v -0.527080 -0.142006 0.498952
v -0.528882 -0.143791 0.498688
v -0.532700 -0.133156 0.505683
v -0.534578 -0.134869 0.505790
v -0.537880 -0.122505 0.511301
v -0.547459 -0.075648 0.507407
v -0.546258 -0.083013 0.509922
v -0.544456 -0.091174 0.511962
v -0.546031 -0.091691 0.511730
v -0.547681 -0.092033 0.512169
v -0.543847 -0.100795 0.513225
v -0.540838 -0.110723 0.513599
v -0.542211 -0.100245 0.513424
v -0.540357 -0.099605 0.514484
v -0.542885 -0.090495 0.512923
v -0.541434 -0.089742 0.514695
v -0.544787 -0.082337 0.510834
v -0.545941 -0.075142 0.508352
v -0.544486 -0.070476 0.512176
v -0.545730 -0.070227 0.513779
v -0.544960 -0.073788 0.515601
v -0.543384 -0.073973 0.513361
v -0.542617 -0.081041 0.515596
v -0.540234 -0.089069 0.518063
v -0.543380 -0.081586 0.512598
v -0.544817 -0.074388 0.509805
v -0.543910 -0.070298 0.509317
v -0.544374 -0.070194 0.507332
v -0.545812 -0.069968 0.505451
v -0.549024 -0.070207 0.504500
v -0.546735 -0.068331 0.505933
v -0.549411 -0.068305 0.505172
v -0.544483 -0.069321 0.509846
v -0.544726 -0.068593 0.507820
v -0.546407 -0.068608 0.509524
v -0.545344 -0.069314 0.511598
v -0.549411 -0.068268 0.507786
v -0.555834 -0.069005 0.510919
v -0.554724 -0.068683 0.508649
v -0.552465 -0.070728 0.505274
v -0.552466 -0.068242 0.506411
v -0.554279 -0.068454 0.512450
v -0.555922 -0.068705 0.514696
v -0.550749 -0.068659 0.513357
v -0.546982 -0.069077 0.513009
v -0.549806 -0.068886 0.514733
v -0.548868 -0.069751 0.514915
v -0.553832 -0.068589 0.516417
v -0.554072 -0.069680 0.517188
v -0.556265 -0.069993 0.515156
v -0.550894 -0.074231 0.516224
v -0.549762 -0.080825 0.518959
v -0.547214 -0.073579 0.516634
v -0.419614 -0.109378 0.345835
v -0.421874 -0.108695 0.346484
v -0.422953 -0.108204 0.348168
v -0.433195 -0.129232 0.356029
v -0.434328 -0.127882 0.357598
v -0.431078 -0.121288 0.354010
v -0.429689 -0.122559 0.352172
v -0.438700 -0.136383 0.362230
v -0.421562 -0.113829 0.345418
v -0.416845 -0.114272 0.343945
v -0.420264 -0.118949 0.347450
v -0.424269 -0.118356 0.348319
v -0.425259 -0.113160 0.348154
v -0.423667 -0.110311 0.346652
v -0.419703 -0.111304 0.344045
v -0.422449 -0.109220 0.346253
v -0.425374 -0.109587 0.348840
v -0.424075 -0.108643 0.348206
v -0.423356 -0.108333 0.350044
v -0.426887 -0.123819 0.350796
v -0.427326 -0.117344 0.350153
v -0.428836 -0.116251 0.352148
v -0.426875 -0.112368 0.350286
v -0.424103 -0.108511 0.350585
v -0.425275 -0.109326 0.351593
v -0.426772 -0.111560 0.352888
v -0.426452 -0.114811 0.356216
v -0.424599 -0.111253 0.354674
v -0.423221 -0.109175 0.353331
v -0.422349 -0.108484 0.352158
v -0.419808 -0.109431 0.354011
v -0.428667 -0.115223 0.354454
v -0.430834 -0.120310 0.356138
v -0.428769 -0.119783 0.357850
v -0.434043 -0.126823 0.359519
v -0.415463 -0.111862 0.343274
v -0.411551 -0.112843 0.345131
v -0.412122 -0.114614 0.345166
v -0.410975 -0.111088 0.347793
v -0.411487 -0.111596 0.345488
v -0.411393 -0.114686 0.348417
v -0.410691 -0.112553 0.347877
v -0.411697 -0.110579 0.349686
v -0.416055 -0.110253 0.345529
v -0.419131 -0.110034 0.344428
v -0.415073 -0.110784 0.343802
v -0.429940 -0.138687 0.362892
v -0.424167 -0.130608 0.356540
v -0.423336 -0.124394 0.350441
v -0.419927 -0.123815 0.351328
v -0.417116 -0.121729 0.355015
v -0.417698 -0.122776 0.353096
v -0.414510 -0.118246 0.350578
v -0.416270 -0.118912 0.348215
f 1 2 3
f 1 3 4
f 4 5 6
f 4 6 7
f 6 5 8
f 6 8 9
f 9 10 11
f 9 11 6
f 9 12 13
f 9 13 10
f 13 12 14
f 13 14 15
f 16 10 13
f 16 13 17
f 17 18 19
f 17 19 16
f 18 17 20
f 18 20 21
f 19 18 22
f 19 22 23
f 24 25 16
f 24 16 19
f 26 27 28
f 26 28 29
f 30 31 32
f 30 32 33
f 34 33 32
f 34 32 35
f 29 28 30
f 29 30 33
f 34 36 29
f 34 29 33
f 37 38 39
f 37 39 40
f 41 40 39
f 41 39 42
f 43 44 45
f 43 45 46
f 46 45 47
f 46 47 48
f 46 48 49
f 46 49 50
f 51 50 42
f 51 42 39
f 38 35 51
f 38 51 39
f 35 32 43
f 35 43 51
f 51 43 46
f 51 46 50
f 49 52 42
f 49 42 50
f 41 42 52
f 41 52 53
f 54 41 53
f 54 53 55
f 55 53 56
f 55 56 57
f 54 55 58
f 54 58 59
f 58 55 57
f 58 57 60
f 61 62 63
f 61 63 64
f 65 63 62
f 65 62 66
f 67 68 64
f 67 64 63
f 69 67 63
f 69 63 65
f 69 65 70
f 69 70 71
f 72 69 71
f 72 71 73
f 72 74 67
f 72 67 69
f 75 68 67
f 75 67 74
f 76 77 78
f 76 78 79
f 77 80 81
f 77 81 78
f 78 81 82
f 78 82 83
f 84 79 78
f 84 78 83
f 85 76 79
f 85 79 86
f 76 85 87
f 76 87 88
f 89 90 91
f 89 91 87
f 87 91 92
f 87 92 88
f 93 89 87
f 93 87 85
f 86 94 95
f 86 95 96
f 96 95 60
f 96 60 57
f 93 96 57
f 93 57 56
f 52 97 56
f 52 56 53
f 49 98 97
f 49 97 52
f 98 90 89
f 98 89 97
f 97 89 93
f 97 93 56
f 93 85 86
f 93 86 96
f 94 86 79
f 94 79 84
f 99 68 75
f 99 75 100
f 101 102 103
f 101 103 104
f 105 104 103
f 105 103 106
f 107 108 104
f 107 104 105
f 108 109 101
f 108 101 104
f 108 107 110
f 108 110 111
f 61 64 111
f 61 111 110
f 99 111 64
f 99 64 68
f 111 99 109
f 111 109 108
f 112 113 83
f 112 83 82
f 112 102 101
f 112 101 113
f 113 114 84
f 113 84 83
f 109 114 113
f 109 113 101
f 114 109 99
f 114 99 100
f 114 100 94
f 114 94 84
f 94 100 75
f 94 75 95
f 75 74 60
f 75 60 95
f 58 60 74
f 58 74 72
f 58 72 73
f 58 73 59
f 59 73 115
f 59 115 116
f 116 117 54
f 116 54 59
f 54 117 40
f 54 40 41
f 117 118 37
f 117 37 40
f 119 37 118
f 119 118 120
f 121 122 123
f 121 123 124
f 125 126 127
f 125 127 128
f 129 130 131
f 129 131 128
f 129 128 127
f 129 127 132
f 129 132 124
f 129 124 123
f 130 129 123
f 130 123 133
f 134 135 130
f 134 130 133
f 24 19 23
f 24 23 136
f 137 23 22
f 137 22 138
f 139 140 138
f 139 138 22
f 22 18 21
f 22 21 139
f 20 15 102
f 20 102 112
f 102 15 14
f 102 14 103
f 20 17 13
f 20 13 15
f 20 112 82
f 20 82 21
f 10 16 25
f 10 25 11
f 141 11 25
f 141 25 142
f 143 144 7
f 143 7 141
f 145 143 141
f 145 141 142
f 143 146 147
f 143 147 144
f 146 143 145
f 146 145 148
f 141 7 6
f 141 6 11
f 7 144 1
f 7 1 4
f 14 12 149
f 14 149 150
f 151 152 150
f 151 150 149
f 151 153 154
f 151 154 152
f 155 156 154
f 155 154 153
f 155 157 158
f 155 158 159
f 160 161 158
f 160 158 157
f 162 160 157
f 162 157 163
f 153 163 157
f 153 157 155
f 164 159 165
f 164 165 166
f 167 165 159
f 167 159 158
f 156 155 159
f 156 159 164
f 168 154 156
f 168 156 169
f 170 171 168
f 170 168 172
f 168 169 173
f 168 173 172
f 168 171 152
f 168 152 154
f 151 174 163
f 151 163 153
f 174 151 149
f 174 149 8
f 5 175 174
f 5 174 8
f 9 8 149
f 9 149 12
f 163 174 175
f 163 175 162
f 14 150 106
f 14 106 103
f 150 152 171
f 150 171 106
f 3 175 5
f 3 5 4
f 176 177 178
f 176 178 179
f 177 180 181
f 177 181 178
f 178 181 126
f 178 126 125
f 182 183 126
f 182 126 181
f 182 181 180
f 182 180 184
f 177 185 186
f 177 186 180
f 185 148 187
f 185 187 186
f 188 146 148
f 188 148 185
f 185 177 176
f 185 176 188
f 189 190 191
f 189 191 192
f 193 194 195
f 193 195 196
f 197 198 195
f 197 195 194
f 197 199 24
f 197 24 136
f 194 200 199
f 194 199 197
f 145 142 199
f 145 199 200
f 187 148 145
f 187 145 200
f 187 200 194
f 187 194 193
f 24 199 142
f 24 142 25
f 198 197 136
f 198 136 201
f 198 201 202
f 198 202 203
f 204 203 202
f 204 202 161
f 158 161 202
f 158 202 167
f 202 201 137
f 202 137 167
f 201 136 23
f 201 23 137
f 204 205 191
f 204 191 190
f 205 160 162
f 205 162 206
f 160 205 204
f 160 204 161
f 206 162 175
f 206 175 3
f 207 208 30
f 207 30 28
f 208 207 209
f 208 209 210
f 43 32 31
f 43 31 44
f 211 45 44
f 211 44 212
f 213 98 49
f 213 49 48
f 214 90 98
f 214 98 213
f 214 215 91
f 214 91 90
f 92 91 215
f 92 215 216
f 217 92 216
f 217 216 173
f 92 217 218
f 92 218 88
f 76 88 218
f 76 218 77
f 80 77 218
f 80 218 219
f 217 220 219
f 217 219 218
f 164 166 219
f 164 219 220
f 156 164 220
f 156 220 169
f 169 220 217
f 169 217 173
f 80 219 166
f 80 166 140
f 221 172 173
f 221 173 216
f 221 222 170
f 221 170 172
f 170 222 107
f 170 107 105
f 107 222 223
f 107 223 110
f 222 221 224
f 222 224 223
f 224 221 216
f 224 216 215
f 225 223 224
f 225 224 226
f 227 62 61
f 227 61 225
f 226 228 227
f 226 227 225
f 66 62 227
f 66 227 229
f 47 229 227
f 47 227 228
f 225 61 110
f 225 110 223
f 214 226 224
f 214 224 215
f 213 228 226
f 213 226 214
f 47 228 213
f 47 213 48
f 211 229 47
f 211 47 45
f 171 170 105
f 171 105 106
f 167 137 138
f 167 138 165
f 140 166 165
f 140 165 138
f 139 81 80
f 139 80 140
f 82 81 139
f 82 139 21
f 209 230 231
f 209 231 210
f 210 231 232
f 210 232 233
f 234 208 210
f 234 210 233
f 234 212 44
f 234 44 31
f 208 234 31
f 208 31 30
f 234 233 235
f 234 235 212
f 236 70 65
f 236 65 66
f 229 211 236
f 229 236 66
f 236 211 212
f 236 212 235
f 70 236 235
f 70 235 237
f 115 73 71
f 115 71 238
f 238 71 70
f 238 70 237
f 115 238 239
f 115 239 240
f 239 238 237
f 239 237 232
f 237 235 233
f 237 233 232
f 231 241 239
f 231 239 232
f 231 230 242
f 231 242 241
f 243 244 245
f 243 245 246
f 247 246 245
f 247 245 120
f 247 120 118
f 247 118 248
f 118 117 116
f 118 116 248
f 115 240 248
f 115 248 116
f 249 240 239
f 249 239 241
f 249 241 242
f 249 242 250
f 249 247 248
f 249 248 240
f 246 247 249
f 246 249 250
f 243 246 250
f 243 250 251
f 250 242 252
f 250 252 251
f 253 252 242
f 253 242 230
f 254 253 230
f 254 230 209
f 255 253 254
f 255 254 256
f 257 258 259
f 257 259 260
f 259 258 255
f 259 255 261
f 262 263 27
f 262 27 26
f 256 254 264
f 256 264 265
f 264 254 209
f 264 209 207
f 27 264 207
f 27 207 28
f 265 264 27
f 265 27 263
f 261 265 263
f 261 263 266
f 266 263 262
f 266 262 267
f 259 268 269
f 259 269 260
f 243 260 269
f 243 269 244
f 244 269 270
f 244 270 271
f 270 272 273
f 270 273 271
f 267 262 26
f 267 26 274
f 274 26 29
f 274 29 36
f 36 275 273
f 36 273 274
f 38 276 34
f 38 34 35
f 119 276 38
f 119 38 37
f 276 275 36
f 276 36 34
f 244 271 277
f 244 277 245
f 120 245 277
f 120 277 119
f 277 275 276
f 277 276 119
f 273 275 277
f 273 277 271
f 273 272 267
f 273 267 274
f 267 272 268
f 267 268 266
f 268 272 270
f 268 270 269
f 268 259 261
f 268 261 266
f 261 255 256
f 261 256 265
f 255 258 252
f 255 252 253
f 257 251 252
f 257 252 258
f 251 257 260
f 251 260 243
f 278 279 280
f 278 280 134
f 281 282 283
f 281 283 284
f 191 205 206
f 191 206 285
f 286 287 288
f 286 288 289
f 286 290 291
f 286 291 292
f 293 291 294
f 293 294 295
f 293 295 280
f 293 280 279
f 280 296 135
f 280 135 134
f 285 206 3
f 285 3 2
f 281 192 191
f 281 191 285
f 282 281 285
f 282 285 2
f 297 192 281
f 297 281 284
f 298 289 297
f 298 297 284
f 299 298 284
f 299 284 283
f 291 290 300
f 291 300 294
f 296 280 295
f 296 295 301
f 295 294 302
f 295 302 301
f 294 300 303
f 294 303 302
f 304 176 179
f 304 179 305
f 306 302 303
f 306 303 305
f 130 135 307
f 130 307 131
f 296 301 307
f 296 307 135
f 307 301 302
f 307 302 306
f 178 125 308
f 178 308 179
f 131 308 125
f 131 125 128
f 306 308 131
f 306 131 307
f 306 305 179
f 306 179 308
f 309 299 283
f 309 283 310
f 311 147 146
f 311 146 188
f 311 188 176
f 311 176 304
f 310 283 282
f 310 282 312
f 282 2 1
f 282 1 312
f 312 1 144
f 312 144 147
f 312 147 311
f 312 311 310
f 309 310 311
f 309 311 304
f 309 304 305
f 309 305 303
f 303 300 299
f 303 299 309
f 299 300 290
f 299 290 298
f 290 286 289
f 290 289 298
f 286 292 313
f 286 313 287
f 287 313 314
f 287 314 315
f 121 316 317
f 121 317 122
f 182 318 319
f 182 319 183
f 320 316 121
f 320 121 124
f 124 132 127
f 124 127 320
f 320 127 126
f 320 126 183
f 316 320 183
f 316 183 319
f 317 316 319
f 317 319 314
f 134 133 321
f 134 321 278
f 133 123 122
f 133 122 321
f 278 322 293
f 278 293 279
f 322 323 313
f 322 313 292
f 293 322 292
f 293 292 291
f 322 278 321
f 322 321 323
f 317 323 321
f 317 321 122
f 317 314 313
f 317 313 323
f 314 319 318
f 314 318 315
f 324 195 198
f 324 198 203
f 203 204 190
f 203 190 324
f 196 195 324
f 196 324 325
f 189 325 324
f 189 324 190
f 189 192 297
f 189 297 326
f 326 297 289
f 326 289 288
f 326 327 325
f 326 325 189
f 328 184 180
f 328 180 186
f 328 186 187
f 328 187 193
f 329 328 193
f 329 193 196
f 318 182 184
f 318 184 330
f 327 331 330
f 327 330 329
f 330 184 328
f 330 328 329
f 327 329 196
f 327 196 325
f 331 327 326
f 331 326 288
f 331 315 318
f 331 318 330
f 287 315 331
f 287 331 288
