# Rib_1L rest
v 0.073702 0.035911 -0.001382
v 0.071435 0.036767 -0.002674
v 0.068574 0.032415 0.000972
v 0.070536 0.031366 0.002732
v 0.064663 0.029010 0.003295
v 0.066244 0.027982 0.005197
v 0.076088 0.034508 -0.000178
v 0.072837 0.029823 0.004497
v 0.068110 0.026537 0.007021
v 0.061780 0.025371 0.008141
v 0.057701 0.023572 0.011369
v 0.059188 0.022014 0.012514
v 0.063489 0.023817 0.009813
v 0.061478 0.019582 0.013533
v 0.065849 0.021674 0.011229
v 0.070505 0.024480 0.008862
v 0.075401 0.027999 0.006175
v 0.078592 0.032882 0.001154
v 0.084806 0.035276 -0.001964
v 0.082036 0.037450 -0.002588
v 0.081357 0.030459 0.002072
v 0.086614 0.055925 -0.015368
v 0.083436 0.055848 -0.015359
v 0.083790 0.044267 -0.007531
v 0.086861 0.042309 -0.007230
v 0.079545 0.038802 -0.003835
v 0.081301 0.045149 -0.008314
v 0.080522 0.055470 -0.015625
v 0.081475 0.067716 -0.021771
v 0.078140 0.066644 -0.021363
v 0.074724 0.054426 -0.016027
v 0.077391 0.055000 -0.015882
v 0.074797 0.065505 -0.021057
v 0.071664 0.064122 -0.020807
v 0.063146 0.071242 -0.024023
v 0.068929 0.062651 -0.020945
v 0.066455 0.073467 -0.024153
v 0.069597 0.075392 -0.024624
v 0.072854 0.077135 -0.025329
v 0.065858 0.086539 -0.028168
v 0.062488 0.084171 -0.026855
v 0.059274 0.081547 -0.025880
v 0.056587 0.079014 -0.025702
v 0.075974 0.045969 -0.009963
v 0.078555 0.045731 -0.009123
v 0.074394 0.040754 -0.006048
v 0.076899 0.040032 -0.004943
v 0.073526 0.045707 -0.011086
v 0.072281 0.040918 -0.007439
v 0.088669 0.053309 -0.020104
v 0.089290 0.054565 -0.017692
v 0.089214 0.040139 -0.009486
v 0.088333 0.039406 -0.011771
v 0.078774 0.022508 0.002094
v 0.079749 0.023409 0.005746
v 0.074858 0.019792 0.008666
v 0.074255 0.018786 0.005132
v 0.078010 0.025434 0.007134
v 0.073008 0.022028 0.009717
v 0.083267 0.028394 -0.000042
v 0.085861 0.032407 -0.006617
v 0.086809 0.032888 -0.004403
v 0.082133 0.027690 -0.003013
v 0.080328 0.028104 -0.005129
v 0.077084 0.022970 -0.000248
v 0.072782 0.019363 0.002821
v 0.069865 0.015951 0.007482
v 0.065745 0.013843 0.009709
v 0.064751 0.014339 0.007388
v 0.068641 0.016600 0.005562
v 0.063481 0.015500 0.005716
v 0.067162 0.017760 0.003990
v 0.060061 0.012995 0.005309
v 0.061200 0.011152 0.007578
v 0.055820 0.009990 0.007815
v 0.055390 0.011543 0.005754
v 0.058026 0.015364 0.003074
v 0.053628 0.013674 0.003549
v 0.055157 0.018428 0.001432
v 0.059039 0.019822 0.002391
v 0.061548 0.017390 0.003834
v 0.062672 0.021422 0.000840
v 0.065147 0.019407 0.002194
v 0.069204 0.021752 -0.000614
v 0.071262 0.020374 0.001106
v 0.072928 0.025272 -0.003577
v 0.075220 0.023992 -0.002134
v 0.078463 0.029003 -0.006833
v 0.081684 0.033711 -0.010015
v 0.084071 0.032767 -0.008378
v 0.077540 0.041236 -0.015519
v 0.080760 0.040616 -0.014972
v 0.078899 0.034749 -0.011152
v 0.075851 0.035852 -0.012068
v 0.076021 0.030133 -0.008095
v 0.073259 0.031400 -0.009067
v 0.070285 0.026936 -0.004789
v 0.066663 0.023709 -0.002006
v 0.060198 0.023779 -0.000661
v 0.064298 0.025819 -0.003175
v 0.065546 0.031075 -0.005693
v 0.067781 0.028685 -0.005828
v 0.062483 0.028092 -0.003273
v 0.067884 0.035034 -0.009478
v 0.070693 0.032638 -0.009777
v 0.072725 0.037055 -0.012688
v 0.074070 0.041838 -0.015996
v 0.068027 0.059601 -0.023929
v 0.071104 0.059907 -0.025144
v 0.073578 0.051083 -0.020422
v 0.069952 0.051485 -0.019475
v 0.070803 0.043253 -0.015491
v 0.069766 0.039198 -0.012181
v 0.067710 0.035932 -0.007965
v 0.069444 0.039754 -0.011209
v 0.069925 0.044104 -0.014287
v 0.068869 0.051906 -0.018514
v 0.069604 0.052759 -0.017576
v 0.067141 0.061186 -0.021543
v 0.066566 0.059912 -0.022584
v 0.071050 0.044946 -0.012761
v 0.070155 0.040312 -0.009659
v 0.072003 0.053815 -0.016527
v 0.076959 0.051479 -0.020554
v 0.080287 0.051850 -0.020786
v 0.083755 0.040015 -0.014359
v 0.083439 0.052132 -0.021129
v 0.086472 0.039433 -0.013224
v 0.069724 0.036970 -0.004263
v 0.067081 0.032828 -0.000752
v 0.063293 0.029659 0.001300
v 0.058844 0.027562 0.003930
v 0.060219 0.026558 0.006138
v 0.054937 0.025926 0.006748
v 0.056256 0.025002 0.009237
v 0.052223 0.024559 0.010602
v 0.050724 0.025304 0.007892
v 0.053594 0.023083 0.012399
v 0.055108 0.021524 0.013187
v 0.049845 0.021972 0.013161
v 0.051262 0.020648 0.013639
v 0.057721 0.018868 0.014023
v 0.059986 0.015574 0.014399
v 0.063976 0.016623 0.014215
v 0.053831 0.018245 0.013571
v 0.055674 0.015038 0.013079
v 0.051790 0.019468 0.011677
v 0.050826 0.020540 0.011212
v 0.054977 0.017227 0.009206
v 0.053254 0.018003 0.011801
v 0.053404 0.018869 0.008856
v 0.050887 0.020685 0.008694
v 0.048736 0.023133 0.011841
v 0.049770 0.021520 0.010631
v 0.046735 0.023909 0.009310
v 0.048322 0.022253 0.009074
v 0.048904 0.026006 0.005185
v 0.053708 0.026706 0.004389
v 0.044087 0.024389 0.006202
v 0.045657 0.022906 0.006362
v 0.048735 0.021307 0.005822
v 0.052232 0.018941 0.005635
v 0.046249 0.021529 0.003729
v 0.049678 0.019000 0.003338
v 0.044613 0.022809 0.004716
v 0.043189 0.024377 0.003794
v 0.048005 0.026512 0.002830
v 0.044548 0.022762 0.001776
v 0.049061 0.025000 0.001347
v 0.053205 0.026839 0.002253
v 0.057923 0.027636 0.001562
v 0.057757 0.026927 -0.000411
v 0.062533 0.029560 -0.000420
v 0.066090 0.032485 -0.002583
v 0.062123 0.028986 -0.002290
v 0.065412 0.031760 -0.004640
v 0.053936 0.025853 0.001395
v 0.056340 0.022719 0.001308
v 0.051937 0.022007 0.000951
v 0.058474 0.025754 -0.001240
v 0.068438 0.036558 -0.006113
v 0.061191 0.069369 -0.024609
v 0.061465 0.068652 -0.026076
v 0.086593 0.065728 -0.027029
v 0.086942 0.067235 -0.024886
v 0.054570 0.090879 -0.028308
v 0.057973 0.093577 -0.030312
v 0.069268 0.088495 -0.029757
v 0.061290 0.095781 -0.032580
v 0.072230 0.089868 -0.031649
v 0.063827 0.097108 -0.034683
v 0.039212 0.099865 -0.029962
v 0.043941 0.093992 -0.027915
v 0.047134 0.097632 -0.029997
v 0.042905 0.103438 -0.032841
v 0.032190 0.103468 -0.035423
v 0.039212 0.105025 -0.036825
v 0.037957 0.104979 -0.039536
v 0.031784 0.103669 -0.038974
v 0.043282 0.108750 -0.038252
v 0.042340 0.107065 -0.041119
v 0.046758 0.106538 -0.035008
v 0.050507 0.100766 -0.032402
v 0.068354 0.019082 0.012116
v 0.070265 0.016702 0.010709
v 0.066015 0.014032 0.012765
v 0.061647 0.010696 0.010404
v 0.061692 0.012200 0.013089
v 0.056011 0.010046 0.010009
v 0.055729 0.011858 0.007846
v 0.056003 0.012127 0.009210
v 0.055630 0.014863 0.006702
v 0.053803 0.014740 0.004672
v 0.055188 0.012675 0.006285
v 0.054233 0.016973 0.006055
v 0.051885 0.016920 0.003680
v 0.051071 0.016370 0.002103
v 0.048041 0.019712 0.001365
v 0.056192 0.014990 0.009304
v 0.056030 0.012979 0.010515
v 0.055195 0.015459 0.011325
v 0.056606 0.011768 0.011890
v 0.027639 0.103144 -0.036455
v 0.027365 0.102707 -0.039163
v 0.015947 0.097587 -0.029453
v 0.020720 0.099915 -0.032234
v 0.019652 0.098258 -0.034710
v 0.015684 0.095914 -0.032541
v 0.017701 0.096616 -0.026401
v 0.022802 0.098383 -0.028384
v 0.013064 0.093919 -0.025635
v 0.012562 0.094936 -0.028105
v 0.012438 0.093427 -0.030235
v 0.012469 0.090959 -0.027392
v 0.016442 0.093633 -0.034037
v 0.013481 0.091862 -0.031851
v 0.014172 0.089780 -0.030656
v 0.017932 0.091609 -0.032614
v 0.015906 0.089050 -0.028405
v 0.015674 0.089442 -0.026140
v 0.019388 0.090618 -0.029052
v 0.019578 0.090959 -0.026592
v 0.014806 0.091748 -0.024914
v 0.020295 0.095818 -0.036210
v 0.022004 0.093703 -0.034124
v 0.044285 0.104583 -0.043659
v 0.047275 0.101418 -0.041608
v 0.044815 0.100068 -0.038468
v 0.042639 0.104001 -0.041261
v 0.038173 0.103036 -0.039711
v 0.043605 0.108779 -0.043298
v 0.041639 0.098251 -0.035787
v 0.028743 0.092671 -0.028030
v 0.035880 0.091777 -0.027696
v 0.035844 0.092633 -0.026514
v 0.028851 0.094341 -0.027251
v 0.036750 0.095856 -0.027429
v 0.029213 0.099521 -0.030247
v 0.024752 0.102022 -0.034542
v 0.023095 0.100615 -0.037119
v 0.018827 0.093517 -0.025602
v 0.023867 0.094514 -0.026688
v 0.024116 0.092286 -0.027372
v 0.032204 0.101165 -0.038552
v 0.027906 0.100474 -0.039733
v 0.037160 0.094805 -0.031811
v 0.024132 0.098226 -0.038405
v 0.026941 0.096166 -0.035549
v 0.023756 0.092542 -0.030178
v 0.028724 0.093965 -0.031228
v 0.041811 0.087634 -0.028471
v 0.041268 0.087944 -0.026936
v 0.041991 0.090607 -0.026757
v 0.051321 0.087892 -0.026714
v 0.049030 0.084915 -0.026023
v 0.054965 0.076686 -0.026417
v 0.055457 0.075897 -0.028018
v 0.048433 0.081882 -0.028323
v 0.047649 0.082118 -0.026732
v 0.055965 0.086017 -0.034843
v 0.063509 0.079324 -0.032650
v 0.060393 0.077421 -0.031258
v 0.053370 0.083992 -0.032861
v 0.066420 0.069449 -0.028862
v 0.063459 0.068771 -0.027658
v 0.057594 0.076231 -0.029776
v 0.074234 0.060889 -0.025675
v 0.077693 0.062060 -0.026313
v 0.073325 0.072665 -0.030656
v 0.069797 0.071080 -0.029654
v 0.050725 0.082562 -0.030569
v 0.043980 0.088885 -0.031566
v 0.046725 0.090473 -0.034903
v 0.049192 0.092657 -0.037506
v 0.064545 0.094665 -0.038504
v 0.073180 0.087319 -0.035753
v 0.071592 0.085164 -0.036454
v 0.063102 0.092339 -0.039105
v 0.079710 0.079804 -0.027659
v 0.082101 0.078831 -0.030235
v 0.073660 0.089303 -0.034053
v 0.084810 0.068322 -0.022503
v 0.076408 0.078723 -0.026396
v 0.081663 0.076915 -0.032239
v 0.066307 0.081156 -0.034148
v 0.058495 0.087976 -0.036746
v 0.076934 0.074130 -0.032035
v 0.069291 0.083098 -0.035691
v 0.061084 0.090204 -0.038400
v 0.079740 0.075375 -0.032883
v 0.081095 0.062988 -0.027245
v 0.084270 0.063942 -0.028066
v 0.086376 0.052474 -0.021163
v 0.051587 0.094788 -0.039841
v 0.054138 0.096924 -0.041997
v 0.049986 0.102533 -0.045085
v 0.052782 0.105472 -0.046496
v 0.056255 0.099112 -0.042850
v 0.046924 0.105458 -0.045680
v 0.045813 0.109906 -0.045338
v 0.049914 0.109857 -0.046078
v 0.049604 0.106749 -0.046997
v 0.054074 0.108416 -0.045396
v 0.064941 0.096442 -0.037099
v 0.057400 0.101273 -0.042147
v 0.057708 0.102984 -0.040491
v 0.056530 0.104003 -0.037824
v 0.053948 0.102967 -0.035229
v 0.049671 0.109079 -0.037024
v 0.052044 0.110698 -0.039299
v 0.050143 0.111922 -0.043834
v 0.053778 0.110282 -0.042514
v 0.047745 0.112010 -0.042035
v 0.045324 0.111143 -0.040102
f 1 2 3
f 1 3 4
f 4 3 5
f 4 5 6
f 7 1 4
f 7 4 8
f 8 4 6
f 8 6 9
f 10 11 12
f 10 12 13
f 13 12 14
f 13 14 15
f 9 6 10
f 9 10 13
f 16 9 13
f 16 13 15
f 17 8 9
f 17 9 16
f 18 7 8
f 18 8 17
f 19 20 18
f 19 18 21
f 22 23 24
f 22 24 25
f 25 24 20
f 25 20 19
f 20 26 7
f 20 7 18
f 26 20 24
f 26 24 27
f 27 24 23
f 27 23 28
f 29 30 28
f 29 28 23
f 31 32 33
f 31 33 34
f 35 36 34
f 35 34 37
f 38 33 30
f 38 30 39
f 40 41 38
f 40 38 39
f 41 42 37
f 41 37 38
f 42 43 35
f 42 35 37
f 37 34 33
f 37 33 38
f 30 33 32
f 30 32 28
f 32 31 44
f 32 44 45
f 45 44 46
f 45 46 47
f 44 48 49
f 44 49 46
f 50 51 52
f 50 52 53
f 54 55 56
f 54 56 57
f 21 18 17
f 21 17 58
f 58 17 16
f 58 16 59
f 55 58 59
f 55 59 56
f 60 21 58
f 60 58 55
f 61 53 52
f 61 52 62
f 62 52 25
f 62 25 19
f 62 19 21
f 62 21 60
f 61 62 60
f 61 60 63
f 63 60 55
f 63 55 54
f 64 63 54
f 64 54 65
f 65 54 57
f 65 57 66
f 67 68 69
f 67 69 70
f 66 57 67
f 66 67 70
f 70 69 71
f 70 71 72
f 73 71 69
f 73 69 74
f 73 74 75
f 73 75 76
f 77 73 76
f 77 76 78
f 79 80 81
f 79 81 77
f 81 80 82
f 81 82 83
f 81 71 73
f 81 73 77
f 83 72 71
f 83 71 81
f 84 85 72
f 84 72 83
f 86 87 85
f 86 85 84
f 85 66 70
f 85 70 72
f 87 65 66
f 87 66 85
f 88 64 65
f 88 65 87
f 89 90 64
f 89 64 88
f 91 92 93
f 91 93 94
f 93 89 88
f 93 88 95
f 95 88 87
f 95 87 86
f 94 93 95
f 94 95 96
f 96 95 86
f 96 86 97
f 97 86 84
f 97 84 98
f 98 84 83
f 98 83 82
f 82 99 100
f 82 100 98
f 101 102 100
f 101 100 103
f 104 105 102
f 104 102 101
f 102 97 98
f 102 98 100
f 105 96 97
f 105 97 102
f 106 94 96
f 106 96 105
f 107 91 94
f 107 94 106
f 108 109 110
f 108 110 111
f 112 107 106
f 112 106 113
f 113 106 105
f 113 105 104
f 104 114 115
f 104 115 113
f 116 112 113
f 116 113 115
f 117 111 112
f 117 112 116
f 117 118 119
f 117 119 120
f 121 116 115
f 121 115 122
f 48 121 122
f 48 122 49
f 123 31 34
f 123 34 36
f 118 123 36
f 118 36 119
f 31 123 48
f 31 48 44
f 123 118 121
f 123 121 48
f 118 117 116
f 118 116 121
f 120 108 111
f 120 111 117
f 111 110 107
f 111 107 112
f 110 124 91
f 110 91 107
f 124 125 92
f 124 92 91
f 126 92 125
f 126 125 127
f 92 126 89
f 92 89 93
f 126 128 90
f 126 90 89
f 90 61 63
f 90 63 64
f 128 53 61
f 128 61 90
f 26 47 1
f 26 1 7
f 47 46 2
f 47 2 1
f 47 26 27
f 47 27 45
f 45 27 28
f 45 28 32
f 46 49 129
f 46 129 2
f 2 129 130
f 2 130 3
f 3 130 131
f 3 131 5
f 5 131 132
f 5 132 133
f 132 134 135
f 132 135 133
f 136 135 134
f 136 134 137
f 138 11 135
f 138 135 136
f 139 138 140
f 139 140 141
f 142 14 12
f 142 12 139
f 143 144 14
f 143 14 142
f 143 142 145
f 143 145 146
f 142 139 141
f 142 141 145
f 139 12 11
f 139 11 138
f 147 141 140
f 147 140 148
f 149 150 147
f 149 147 151
f 151 147 148
f 151 148 152
f 150 145 141
f 150 141 147
f 148 140 153
f 148 153 154
f 154 153 155
f 154 155 156
f 155 153 136
f 155 136 137
f 138 136 153
f 138 153 140
f 133 135 11
f 133 11 10
f 6 5 133
f 6 133 10
f 157 137 134
f 157 134 158
f 137 157 159
f 137 159 155
f 155 159 160
f 155 160 156
f 156 160 161
f 156 161 152
f 161 162 151
f 161 151 152
f 161 163 164
f 161 164 162
f 160 165 163
f 160 163 161
f 159 166 165
f 159 165 160
f 159 157 167
f 159 167 166
f 165 166 168
f 165 168 163
f 167 169 168
f 167 168 166
f 157 158 170
f 157 170 167
f 171 172 170
f 171 170 158
f 131 173 171
f 131 171 132
f 130 174 173
f 130 173 131
f 173 175 172
f 173 172 171
f 174 176 175
f 174 175 173
f 158 134 132
f 158 132 171
f 167 170 177
f 167 177 169
f 169 177 178
f 169 178 179
f 99 178 177
f 99 177 180
f 180 177 170
f 180 170 172
f 129 181 174
f 129 174 130
f 49 122 181
f 49 181 129
f 181 114 176
f 181 176 174
f 122 115 114
f 122 114 181
f 25 52 51
f 25 51 22
f 182 119 36
f 182 36 35
f 183 120 119
f 183 119 182
f 184 185 51
f 184 51 50
f 186 41 40
f 186 40 187
f 187 40 188
f 187 188 189
f 189 188 190
f 189 190 191
f 192 193 194
f 192 194 195
f 196 192 195
f 196 195 197
f 196 197 198
f 196 198 199
f 197 200 201
f 197 201 198
f 197 195 202
f 197 202 200
f 194 203 202
f 194 202 195
f 186 187 203
f 186 203 194
f 103 175 176
f 103 176 101
f 101 176 114
f 101 114 104
f 180 172 175
f 180 175 103
f 59 16 15
f 59 15 204
f 56 59 204
f 56 204 205
f 57 56 205
f 57 205 67
f 206 68 67
f 206 67 205
f 205 204 144
f 205 144 206
f 207 68 206
f 207 206 208
f 74 69 68
f 74 68 207
f 74 207 209
f 74 209 75
f 210 75 209
f 210 209 211
f 212 213 214
f 212 214 210
f 215 216 213
f 215 213 212
f 162 164 216
f 162 216 215
f 216 217 78
f 216 78 213
f 179 79 217
f 179 217 218
f 164 218 217
f 164 217 216
f 79 77 78
f 79 78 217
f 78 76 214
f 78 214 213
f 162 215 149
f 162 149 151
f 215 212 219
f 215 219 149
f 212 210 211
f 212 211 219
f 211 220 221
f 211 221 219
f 209 222 220
f 209 220 211
f 219 221 150
f 219 150 149
f 214 76 75
f 214 75 210
f 207 208 222
f 207 222 209
f 208 143 146
f 208 146 222
f 206 144 143
f 206 143 208
f 15 14 144
f 15 144 204
f 82 80 178
f 82 178 99
f 103 100 99
f 103 99 180
f 169 179 218
f 169 218 168
f 179 178 80
f 179 80 79
f 152 148 154
f 152 154 156
f 221 146 145
f 221 145 150
f 220 222 146
f 220 146 221
f 163 168 218
f 163 218 164
f 223 196 199
f 223 199 224
f 225 226 227
f 225 227 228
f 229 230 226
f 229 226 225
f 231 229 225
f 231 225 232
f 231 232 233
f 231 233 234
f 232 225 228
f 232 228 233
f 233 228 235
f 233 235 236
f 237 236 235
f 237 235 238
f 237 239 240
f 237 240 234
f 237 238 241
f 237 241 239
f 240 239 241
f 240 241 242
f 240 243 231
f 240 231 234
f 234 233 236
f 234 236 237
f 238 235 244
f 238 244 245
f 228 227 244
f 228 244 235
f 246 247 248
f 246 248 249
f 201 249 250
f 201 250 198
f 251 246 249
f 251 249 201
f 249 248 252
f 249 252 250
f 253 254 255
f 253 255 256
f 257 192 196
f 257 196 258
f 259 223 224
f 259 224 260
f 226 259 260
f 226 260 227
f 258 196 223
f 258 223 259
f 230 258 259
f 230 259 226
f 256 255 257
f 256 257 258
f 229 261 262
f 229 262 230
f 231 243 261
f 231 261 229
f 240 242 261
f 240 261 243
f 242 263 262
f 242 262 261
f 262 256 258
f 262 258 230
f 263 253 256
f 263 256 262
f 264 265 224
f 264 224 199
f 199 198 250
f 199 250 264
f 250 252 266
f 250 266 264
f 260 224 265
f 260 265 267
f 244 267 268
f 244 268 245
f 227 260 267
f 227 267 244
f 268 267 265
f 268 265 264
f 242 241 269
f 242 269 263
f 238 245 269
f 238 269 241
f 270 269 245
f 270 245 268
f 268 264 266
f 268 266 270
f 270 253 263
f 270 263 269
f 266 254 253
f 266 253 270
f 271 272 255
f 271 255 254
f 273 193 192
f 273 192 257
f 272 273 257
f 272 257 255
f 274 42 41
f 274 41 186
f 194 193 274
f 194 274 186
f 275 43 42
f 275 42 274
f 275 274 193
f 275 193 273
f 276 277 183
f 276 183 182
f 43 276 182
f 43 182 35
f 278 277 276
f 278 276 279
f 279 276 43
f 279 43 275
f 279 275 273
f 279 273 272
f 278 279 272
f 278 272 271
f 280 281 282
f 280 282 283
f 284 109 108
f 284 108 285
f 285 108 120
f 285 120 183
f 277 286 285
f 277 285 183
f 286 282 284
f 286 284 285
f 287 288 125
f 287 125 124
f 109 287 124
f 109 124 110
f 289 288 287
f 289 287 290
f 290 287 109
f 290 109 284
f 290 284 282
f 290 282 281
f 283 282 286
f 283 286 291
f 291 286 277
f 291 277 278
f 291 278 271
f 291 271 292
f 292 271 254
f 292 254 266
f 292 293 283
f 292 283 291
f 280 283 293
f 280 293 294
f 295 296 297
f 295 297 298
f 299 300 301
f 299 301 190
f 302 29 23
f 302 23 22
f 185 302 22
f 185 22 51
f 39 30 29
f 39 29 303
f 190 188 303
f 190 303 299
f 188 40 39
f 188 39 303
f 303 29 302
f 303 302 299
f 299 302 185
f 299 185 300
f 296 301 300
f 296 300 304
f 300 185 184
f 300 184 304
f 289 290 281
f 289 281 305
f 306 305 281
f 306 281 280
f 307 289 305
f 307 305 308
f 309 308 305
f 309 305 306
f 310 307 308
f 310 308 297
f 288 311 127
f 288 127 125
f 307 311 288
f 307 288 289
f 312 184 50
f 312 50 313
f 313 50 53
f 313 53 128
f 127 313 128
f 127 128 126
f 313 127 311
f 313 311 312
f 312 311 307
f 312 307 310
f 310 304 184
f 310 184 312
f 304 310 297
f 304 297 296
f 298 297 308
f 298 308 309
f 314 294 248
f 314 248 247
f 315 314 247
f 315 247 316
f 317 318 315
f 317 315 316
f 319 316 247
f 319 247 246
f 320 319 246
f 320 246 251
f 321 322 319
f 321 319 320
f 322 317 316
f 322 316 319
f 323 317 322
f 323 322 321
f 191 190 301
f 191 301 324
f 324 301 296
f 324 296 295
f 325 326 324
f 325 324 295
f 191 324 326
f 191 326 327
f 189 191 327
f 189 327 328
f 202 203 328
f 202 328 329
f 187 189 328
f 187 328 203
f 329 328 327
f 329 327 330
f 331 332 323
f 331 323 321
f 333 331 321
f 333 321 320
f 333 330 332
f 333 332 331
f 334 333 320
f 334 320 251
f 200 334 251
f 200 251 201
f 200 202 329
f 200 329 334
f 334 329 330
f 334 330 333
f 330 327 326
f 330 326 332
f 332 326 325
f 332 325 323
f 323 325 318
f 323 318 317
f 318 325 295
f 318 295 298
f 298 309 315
f 298 315 318
f 309 306 314
f 309 314 315
f 306 280 294
f 306 294 314
f 294 293 252
f 294 252 248
f 252 293 292
f 252 292 266
