# Rib_9R rest
v -0.094447 -0.135283 0.053073
v -0.095052 -0.137092 0.052382
v -0.093906 -0.135572 0.050568
v -0.093988 -0.134443 0.051534
v -0.095952 -0.136554 0.054389
v -0.095379 -0.136787 0.054196
v -0.094881 -0.134521 0.053161
v -0.095593 -0.133599 0.052670
v -0.096866 -0.135792 0.054045
v -0.100348 -0.138858 0.053953
v -0.098415 -0.140022 0.055324
v -0.099046 -0.134939 0.052457
v -0.103665 -0.137216 0.051004
v -0.104282 -0.140858 0.050885
v -0.101000 -0.143262 0.054263
v -0.103812 -0.143923 0.049524
v -0.100705 -0.146963 0.052295
v -0.102379 -0.144528 0.047336
v -0.099705 -0.146653 0.049357
v -0.108441 -0.139223 0.047723
v -0.107458 -0.141586 0.046491
v -0.112237 -0.138975 0.041386
v -0.110827 -0.139881 0.039985
v -0.105843 -0.142630 0.044821
v -0.104260 -0.142269 0.043323
v -0.100873 -0.143573 0.045541
v -0.098660 -0.144695 0.047295
v -0.109421 -0.139809 0.038969
v -0.108288 -0.138349 0.038284
v -0.103025 -0.140450 0.042437
v -0.099399 -0.141476 0.044423
v -0.113315 -0.136947 0.042810
v -0.107989 -0.136121 0.048188
v -0.113033 -0.134196 0.043724
v -0.118818 -0.133847 0.036938
v -0.117983 -0.135498 0.035279
v -0.116589 -0.136023 0.033830
v -0.123300 -0.131569 0.027710
v -0.123920 -0.129605 0.029026
v -0.121659 -0.132057 0.026516
v -0.099096 -0.146918 0.052589
v -0.097926 -0.146740 0.050130
v -0.097858 -0.146483 0.052526
v -0.097821 -0.143739 0.054797
v -0.098976 -0.143893 0.055097
v -0.096622 -0.144804 0.051938
v -0.096836 -0.142243 0.053602
v -0.097122 -0.139998 0.055159
v -0.096104 -0.138991 0.054182
v -0.095457 -0.139444 0.051595
v -0.095288 -0.141983 0.050580
v -0.096649 -0.146066 0.050553
v -0.096842 -0.145320 0.048365
v -0.095622 -0.144723 0.049166
v -0.095783 -0.143258 0.047080
v -0.094791 -0.143023 0.048255
v -0.095160 -0.143755 0.049693
v -0.094555 -0.142670 0.048847
v -0.095987 -0.145131 0.050693
v -0.102315 -0.134006 0.050243
v -0.100765 -0.131966 0.049095
v -0.097728 -0.132839 0.051136
v -0.096168 -0.131935 0.049107
v -0.099094 -0.131156 0.047366
v -0.095227 -0.133013 0.047257
v -0.098059 -0.132254 0.045562
v -0.102188 -0.131588 0.043559
v -0.103310 -0.130608 0.045248
v -0.108382 -0.129338 0.041579
v -0.107098 -0.130164 0.039783
v -0.111965 -0.126951 0.034762
v -0.113335 -0.126149 0.036148
v -0.109970 -0.129900 0.042963
v -0.114859 -0.126678 0.037196
v -0.104884 -0.131267 0.046839
v -0.097799 -0.134900 0.044296
v -0.101829 -0.134148 0.042325
v -0.106668 -0.132643 0.038379
v -0.093705 -0.133832 0.048557
v -0.093573 -0.136410 0.047267
v -0.095104 -0.135702 0.045951
v -0.093412 -0.134649 0.049521
v -0.093115 -0.136957 0.048333
v -0.093982 -0.140253 0.047710
v -0.094639 -0.139929 0.046565
v -0.095916 -0.139239 0.045381
v -0.094482 -0.132789 0.050385
v -0.094010 -0.133752 0.051183
v -0.093751 -0.137766 0.049545
v -0.106552 -0.133193 0.047827
v -0.111636 -0.131549 0.043738
v -0.116583 -0.128137 0.037914
v -0.118266 -0.131022 0.038088
v -0.118479 -0.121916 0.029982
v -0.120843 -0.123508 0.030570
v -0.123007 -0.126523 0.030171
v -0.014560 -0.045806 -0.014777
v -0.013825 -0.045328 -0.017488
v -0.012892 -0.044892 -0.016025
v -0.013450 -0.045486 -0.014553
v -0.013393 -0.045470 -0.012140
v -0.015098 -0.045626 -0.012735
v -0.013761 -0.044411 -0.009676
v -0.015494 -0.044889 -0.010498
v -0.013134 -0.042735 -0.010694
v -0.013578 -0.040996 -0.008772
v -0.014009 -0.042895 -0.008293
v -0.011725 -0.041525 -0.016228
v -0.011836 -0.039388 -0.014640
v -0.012880 -0.044400 -0.013304
v -0.012222 -0.043841 -0.016896
v -0.011496 -0.042006 -0.017972
v -0.010669 -0.039344 -0.018993
v -0.011349 -0.038127 -0.017007
v -0.011482 -0.039063 -0.020435
v -0.012459 -0.037780 -0.018251
v -0.012274 -0.042535 -0.018842
v -0.015421 -0.043298 -0.023163
v -0.016215 -0.040948 -0.022510
v -0.020974 -0.043642 -0.030689
v -0.021701 -0.041251 -0.029427
v -0.021555 -0.045382 -0.029852
v -0.015937 -0.044752 -0.022700
v -0.013081 -0.044509 -0.018635
v -0.023556 -0.039729 -0.027477
v -0.016997 -0.039394 -0.022050
v -0.027824 -0.044866 -0.039268
v -0.029435 -0.041896 -0.036980
v -0.031172 -0.040198 -0.035410
v -0.019008 -0.038491 -0.019734
v -0.014846 -0.038272 -0.014175
v -0.012881 -0.038491 -0.013255
v -0.013301 -0.039405 -0.010888
v -0.016179 -0.039276 -0.011321
v -0.016371 -0.040913 -0.009388
v -0.020701 -0.039736 -0.016424
v -0.020920 -0.040952 -0.015097
v -0.020868 -0.042392 -0.014960
v -0.016071 -0.043052 -0.009009
v -0.020402 -0.043555 -0.015433
v -0.019587 -0.044446 -0.016297
v -0.018376 -0.045084 -0.017440
v -0.016819 -0.045813 -0.020950
v -0.024407 -0.045632 -0.024752
v -0.022908 -0.046010 -0.027444
v -0.031531 -0.046686 -0.032026
v -0.029783 -0.047365 -0.035030
v -0.025721 -0.044810 -0.023294
v -0.032852 -0.045810 -0.030589
v -0.039816 -0.048486 -0.039657
v -0.038955 -0.048420 -0.041710
v -0.028244 -0.046923 -0.038379
v -0.038525 -0.047827 -0.042847
v -0.026692 -0.043914 -0.022615
v -0.033847 -0.044832 -0.029872
v -0.041996 -0.046271 -0.037105
v -0.034452 -0.043818 -0.029748
v -0.042627 -0.045198 -0.037032
v -0.040997 -0.047452 -0.037961
v -0.051243 -0.048576 -0.043792
v -0.050158 -0.050048 -0.044933
v -0.049517 -0.050563 -0.046833
v -0.051864 -0.047434 -0.043767
v -0.042932 -0.044077 -0.037418
v -0.052264 -0.046538 -0.043769
v -0.063645 -0.050081 -0.049079
v -0.062953 -0.051017 -0.049040
v -0.062164 -0.052053 -0.049375
v -0.034675 -0.042717 -0.030139
v -0.027355 -0.041736 -0.022614
v -0.026998 -0.040535 -0.023453
v -0.034446 -0.041452 -0.031075
v -0.042936 -0.042462 -0.038263
v -0.027232 -0.042894 -0.022361
v -0.118021 -0.090268 -0.041597
v -0.121517 -0.096050 -0.031137
v -0.123108 -0.096708 -0.032406
v -0.119337 -0.090591 -0.042524
v -0.124926 -0.096163 -0.032642
v -0.121755 -0.089999 -0.043137
v -0.126364 -0.103683 -0.018976
v -0.127765 -0.102610 -0.017949
v -0.126365 -0.094994 -0.031781
v -0.128638 -0.111856 -0.001854
v -0.127009 -0.112821 -0.002933
v -0.117377 -0.083058 -0.033093
v -0.115637 -0.083871 -0.033074
v -0.110080 -0.078523 -0.041486
v -0.111815 -0.077497 -0.041493
v -0.052669 -0.045061 -0.044143
v -0.064630 -0.048862 -0.049606
v -0.065933 -0.047611 -0.051708
v -0.078737 -0.052977 -0.054262
v -0.076905 -0.053432 -0.051860
v -0.089751 -0.058126 -0.053903
v -0.087263 -0.058484 -0.051583
v -0.099697 -0.063729 -0.052507
v -0.096708 -0.063893 -0.050114
v -0.085431 -0.059535 -0.051065
v -0.094604 -0.064979 -0.049658
v -0.093361 -0.066077 -0.049919
v -0.084136 -0.060678 -0.051257
v -0.075258 -0.054598 -0.051036
v -0.074062 -0.055737 -0.051064
v -0.109029 -0.070396 -0.049881
v -0.105936 -0.070256 -0.047361
v -0.103789 -0.071262 -0.046816
v -0.102252 -0.072358 -0.046840
v -0.114295 -0.076762 -0.042496
v -0.117157 -0.077352 -0.045087
v -0.123399 -0.088464 -0.042467
v -0.122766 -0.083774 -0.037436
v -0.117752 -0.079605 -0.047577
v -0.123712 -0.086009 -0.040314
v -0.125701 -0.090551 -0.025936
v -0.126878 -0.092808 -0.029287
v -0.117142 -0.082063 -0.049375
v -0.115583 -0.083732 -0.049967
v -0.107060 -0.077008 -0.054879
v -0.108296 -0.075328 -0.054090
v -0.109144 -0.072865 -0.052352
v -0.099836 -0.066084 -0.055239
v -0.089997 -0.060005 -0.056789
v -0.078619 -0.054273 -0.056966
v -0.065296 -0.048394 -0.054387
v -0.042249 -0.041022 -0.040128
v -0.033374 -0.040117 -0.032810
v -0.121496 -0.114137 0.018525
v -0.124178 -0.115569 0.018632
v -0.126615 -0.118034 0.017562
v -0.127851 -0.120624 0.015676
v -0.125975 -0.122966 0.012660
v -0.125017 -0.112380 -0.002548
v -0.123647 -0.122071 0.012457
v -0.127771 -0.122513 0.013888
v -0.128554 -0.110086 0.000501
v -0.119757 -0.131340 0.025824
v -0.122101 -0.120792 0.012542
v -0.120546 -0.119064 0.012893
v -0.116643 -0.127584 0.025462
v -0.118199 -0.129758 0.025477
v -0.115161 -0.135692 0.032920
v -0.113900 -0.134321 0.032480
v -0.112669 -0.132142 0.032538
v -0.107309 -0.135753 0.037944
v -0.102145 -0.137465 0.041977
v -0.098228 -0.138299 0.043894
v -0.097390 -0.142588 0.045931
v -0.116624 -0.121368 0.029113
v -0.119705 -0.113790 0.017642
v -0.118850 -0.089384 -0.021292
v -0.120699 -0.088924 -0.021339
v -0.117880 -0.090842 -0.022957
v -0.114676 -0.085471 -0.034459
v -0.124961 -0.106266 0.004935
v -0.122515 -0.105555 0.005176
v -0.120192 -0.106527 0.002928
v -0.119429 -0.098196 -0.010607
v -0.120488 -0.096940 -0.008968
v -0.120782 -0.105502 0.004528
v -0.122247 -0.096731 -0.008630
v -0.124218 -0.097002 -0.009163
v -0.119892 -0.082738 -0.034411
v -0.123250 -0.089149 -0.022858
v -0.127899 -0.100656 -0.015211
v -0.126732 -0.098460 -0.011790
v -0.127386 -0.108019 0.003093
v -0.115238 -0.122284 0.027728
v -0.115265 -0.124756 0.026308
v -0.119207 -0.116711 0.014189
v -0.118989 -0.114732 0.016013
v -0.111513 -0.129470 0.033479
v -0.120936 -0.108436 0.000584
v -0.122122 -0.110286 -0.001299
v -0.120444 -0.095220 -0.029626
v -0.117271 -0.089758 -0.040469
v -0.118993 -0.093300 -0.026596
v -0.120652 -0.100344 -0.013891
v -0.122074 -0.102123 -0.016594
v -0.115566 -0.087907 -0.037568
v -0.124502 -0.103736 -0.018641
v -0.122982 -0.102958 -0.017660
v -0.123351 -0.111389 -0.001976
v -0.094182 -0.140602 0.048837
v -0.038496 -0.045537 -0.043830
v -0.049272 -0.049357 -0.049696
v -0.049815 -0.047488 -0.050031
v -0.049256 -0.050376 -0.048327
v -0.061011 -0.053955 -0.053986
v -0.060904 -0.054065 -0.052780
v -0.072318 -0.058925 -0.054683
v -0.072954 -0.059107 -0.056595
v -0.082719 -0.064256 -0.054862
v -0.083353 -0.064795 -0.056467
v -0.093303 -0.070799 -0.055268
v -0.092789 -0.070202 -0.054157
v -0.102448 -0.077019 -0.051850
v -0.103130 -0.077557 -0.052930
v -0.092597 -0.069056 -0.052772
v -0.101692 -0.075716 -0.049969
v -0.110259 -0.082404 -0.045615
v -0.111215 -0.083673 -0.047512
v -0.111882 -0.084193 -0.048488
v -0.092671 -0.067338 -0.050874
v -0.101431 -0.073814 -0.047825
v -0.082780 -0.063242 -0.053428
v -0.083217 -0.061860 -0.051950
v -0.109271 -0.080160 -0.042750
v -0.104580 -0.077778 -0.054063
v -0.094929 -0.070957 -0.056788
v -0.086731 -0.063511 -0.058423
v -0.085005 -0.064566 -0.058034
v -0.097086 -0.070041 -0.057493
v -0.077001 -0.055846 -0.057721
v -0.075562 -0.057079 -0.057775
v -0.088289 -0.062053 -0.057940
v -0.063840 -0.049974 -0.055117
v -0.062694 -0.051582 -0.055558
v -0.074328 -0.058191 -0.057562
v -0.098402 -0.068467 -0.056752
v -0.113260 -0.084377 -0.049369
v -0.072565 -0.057968 -0.052940
v -0.060983 -0.053623 -0.050554
v -0.073162 -0.056806 -0.051557
v -0.061801 -0.052929 -0.055168
v -0.050412 -0.045728 -0.049471
v -0.051430 -0.044231 -0.048557
v -0.040692 -0.041571 -0.042322
v -0.052834 -0.043363 -0.046244
v -0.039353 -0.043242 -0.043184
v -0.025650 -0.039320 -0.024946
f 1 2 3
f 1 3 4
f 5 6 1
f 5 1 7
f 5 7 8
f 5 8 9
f 10 11 9
f 10 9 12
f 10 13 14
f 10 14 15
f 15 14 16
f 15 16 17
f 16 18 19
f 16 19 17
f 16 14 20
f 16 20 21
f 21 22 23
f 21 23 24
f 18 24 25
f 18 25 26
f 21 24 18
f 21 18 16
f 19 18 26
f 19 26 27
f 24 23 28
f 24 28 25
f 25 28 29
f 25 29 30
f 25 30 31
f 25 31 26
f 20 32 22
f 20 22 21
f 20 14 13
f 20 13 33
f 32 20 33
f 32 33 34
f 32 35 36
f 32 36 22
f 23 22 36
f 23 36 37
f 38 36 35
f 38 35 39
f 36 38 40
f 36 40 37
f 41 17 19
f 41 19 42
f 43 44 45
f 43 45 41
f 43 46 47
f 43 47 44
f 48 44 47
f 48 47 49
f 5 9 11
f 5 11 48
f 48 11 45
f 48 45 44
f 49 6 5
f 49 5 48
f 50 47 46
f 50 46 51
f 2 49 47
f 2 47 50
f 43 41 42
f 43 42 52
f 52 42 53
f 52 53 54
f 54 53 55
f 54 55 56
f 57 54 56
f 57 56 58
f 54 57 59
f 54 59 52
f 27 53 42
f 27 42 19
f 59 46 43
f 59 43 52
f 15 17 41
f 15 41 45
f 10 15 45
f 10 45 11
f 12 60 13
f 12 13 10
f 61 60 12
f 61 12 62
f 63 64 61
f 63 61 62
f 64 63 65
f 64 65 66
f 64 66 67
f 64 67 68
f 69 68 67
f 69 67 70
f 69 70 71
f 69 71 72
f 73 69 72
f 73 72 74
f 68 69 73
f 68 73 75
f 67 66 76
f 67 76 77
f 67 77 78
f 67 78 70
f 64 68 75
f 64 75 61
f 79 80 81
f 79 81 65
f 79 82 83
f 79 83 80
f 83 84 85
f 83 85 80
f 86 81 80
f 86 80 85
f 82 79 87
f 82 87 88
f 4 3 82
f 4 82 88
f 89 83 82
f 89 82 3
f 79 65 63
f 79 63 87
f 66 65 81
f 66 81 76
f 8 87 63
f 8 63 62
f 7 88 87
f 7 87 8
f 4 88 7
f 4 7 1
f 9 8 62
f 9 62 12
f 61 75 90
f 61 90 60
f 60 90 33
f 60 33 13
f 33 90 91
f 33 91 34
f 73 74 92
f 73 92 91
f 91 92 93
f 91 93 34
f 92 74 94
f 92 94 95
f 93 92 95
f 93 95 96
f 91 90 75
f 91 75 73
f 49 2 1
f 49 1 6
f 97 98 99
f 97 99 100
f 100 101 102
f 100 102 97
f 103 104 102
f 103 102 101
f 105 106 107
f 105 107 103
f 108 109 105
f 108 105 110
f 108 111 112
f 108 112 113
f 114 109 108
f 114 108 113
f 115 116 114
f 115 114 113
f 115 117 118
f 115 118 119
f 118 120 121
f 118 121 119
f 122 120 118
f 122 118 123
f 124 123 118
f 124 118 117
f 121 125 126
f 121 126 119
f 120 127 128
f 120 128 121
f 128 129 125
f 128 125 121
f 126 116 115
f 126 115 119
f 116 126 130
f 116 130 131
f 114 116 131
f 114 131 132
f 112 117 115
f 112 115 113
f 124 117 112
f 124 112 111
f 98 124 111
f 98 111 99
f 110 99 111
f 110 111 108
f 109 114 132
f 109 132 133
f 105 109 133
f 105 133 106
f 106 133 134
f 106 134 135
f 134 136 137
f 134 137 135
f 135 137 138
f 135 138 139
f 107 106 135
f 107 135 139
f 132 131 134
f 132 134 133
f 110 105 103
f 110 103 101
f 100 99 110
f 100 110 101
f 103 107 139
f 103 139 104
f 139 138 140
f 139 140 104
f 104 140 141
f 104 141 102
f 142 97 102
f 142 102 141
f 98 97 142
f 98 142 143
f 143 142 144
f 143 144 145
f 144 146 147
f 144 147 145
f 144 142 141
f 144 141 148
f 144 148 149
f 144 149 146
f 150 151 147
f 150 147 146
f 152 147 151
f 152 151 153
f 145 147 152
f 145 152 122
f 145 122 123
f 145 123 143
f 98 143 123
f 98 123 124
f 154 148 141
f 154 141 140
f 154 155 149
f 154 149 148
f 156 155 157
f 156 157 158
f 149 155 156
f 149 156 159
f 150 146 149
f 150 149 159
f 159 156 160
f 159 160 161
f 150 159 161
f 150 161 162
f 160 156 158
f 160 158 163
f 163 158 164
f 163 164 165
f 166 167 163
f 166 163 165
f 163 167 168
f 163 168 160
f 169 164 158
f 169 158 157
f 170 171 172
f 170 172 169
f 169 172 173
f 169 173 164
f 169 157 174
f 169 174 170
f 174 157 155
f 174 155 154
f 138 174 154
f 138 154 140
f 175 176 177
f 175 177 178
f 177 179 180
f 177 180 178
f 179 181 182
f 179 182 183
f 184 182 181
f 184 181 185
f 186 187 188
f 186 188 189
f 165 190 191
f 165 191 166
f 191 192 193
f 191 193 194
f 193 195 196
f 193 196 194
f 195 197 198
f 195 198 196
f 199 200 201
f 199 201 202
f 191 194 203
f 191 203 166
f 167 166 203
f 167 203 204
f 196 199 203
f 196 203 194
f 203 199 202
f 203 202 204
f 199 196 198
f 199 198 200
f 198 197 205
f 198 205 206
f 207 200 198
f 207 198 206
f 208 201 200
f 208 200 207
f 189 188 208
f 189 208 207
f 206 209 189
f 206 189 207
f 206 205 210
f 206 210 209
f 180 179 183
f 180 183 211
f 212 210 213
f 212 213 214
f 215 212 214
f 215 214 216
f 216 214 211
f 216 211 183
f 213 217 211
f 213 211 214
f 180 211 217
f 180 217 218
f 219 218 217
f 219 217 220
f 221 220 217
f 221 217 213
f 213 210 205
f 213 205 221
f 221 205 197
f 221 197 222
f 195 223 222
f 195 222 197
f 195 193 224
f 195 224 223
f 193 192 225
f 193 225 224
f 165 164 173
f 165 173 190
f 226 173 172
f 226 172 227
f 170 174 138
f 170 138 137
f 137 136 171
f 137 171 170
f 95 94 228
f 95 228 229
f 230 231 39
f 230 39 96
f 96 95 229
f 96 229 230
f 39 35 93
f 39 93 96
f 232 185 233
f 232 233 234
f 235 184 185
f 235 185 232
f 236 184 235
f 236 235 231
f 39 231 235
f 39 235 38
f 40 38 235
f 40 235 232
f 40 232 234
f 40 234 237
f 238 239 240
f 238 240 241
f 29 28 242
f 29 242 243
f 29 243 244
f 29 244 245
f 244 243 241
f 244 241 240
f 242 237 241
f 242 241 243
f 237 234 238
f 237 238 241
f 237 242 37
f 237 37 40
f 28 23 37
f 28 37 242
f 32 34 93
f 32 93 35
f 246 77 76
f 246 76 247
f 77 246 245
f 77 245 78
f 246 30 29
f 246 29 245
f 247 31 30
f 247 30 246
f 27 26 31
f 27 31 248
f 27 248 55
f 27 55 53
f 86 85 55
f 86 55 248
f 247 86 248
f 247 248 31
f 76 81 86
f 76 86 247
f 94 249 250
f 94 250 228
f 251 187 186
f 251 186 252
f 253 254 187
f 253 187 251
f 255 229 228
f 255 228 256
f 257 258 259
f 257 259 260
f 250 260 256
f 250 256 228
f 256 260 259
f 256 259 261
f 261 262 255
f 261 255 256
f 263 264 252
f 263 252 186
f 263 209 210
f 263 210 212
f 189 209 263
f 189 263 186
f 263 212 215
f 263 215 264
f 215 216 265
f 215 265 266
f 184 236 265
f 184 265 182
f 216 183 182
f 216 182 265
f 262 266 267
f 262 267 255
f 229 255 267
f 229 267 230
f 230 267 236
f 230 236 231
f 266 265 236
f 266 236 267
f 266 262 264
f 266 264 215
f 261 252 264
f 261 264 262
f 261 259 251
f 261 251 252
f 253 251 259
f 253 259 258
f 268 249 72
f 268 72 71
f 269 270 271
f 269 271 268
f 78 245 244
f 78 244 272
f 272 71 70
f 272 70 78
f 244 240 269
f 244 269 272
f 272 269 268
f 272 268 71
f 269 240 239
f 269 239 270
f 273 270 239
f 273 239 274
f 275 176 175
f 275 175 276
f 275 277 278
f 275 278 279
f 280 254 253
f 280 253 277
f 275 276 280
f 275 280 277
f 281 177 176
f 281 176 282
f 177 281 181
f 177 181 179
f 185 181 281
f 185 281 233
f 238 234 233
f 238 233 283
f 2 50 89
f 2 89 3
f 89 50 51
f 89 51 284
f 284 51 57
f 284 57 58
f 284 58 56
f 284 56 84
f 284 84 83
f 284 83 89
f 85 84 56
f 85 56 55
f 59 57 51
f 59 51 46
f 120 122 152
f 120 152 127
f 153 285 127
f 153 127 152
f 286 287 285
f 286 285 153
f 151 288 286
f 151 286 153
f 288 151 150
f 288 150 162
f 289 288 162
f 289 162 290
f 289 290 291
f 289 291 292
f 293 294 292
f 293 292 291
f 295 294 293
f 295 293 296
f 297 298 295
f 297 295 296
f 297 296 299
f 297 299 300
f 300 301 302
f 300 302 297
f 302 303 298
f 302 298 297
f 276 302 301
f 276 301 280
f 276 175 303
f 276 303 302
f 304 305 300
f 304 300 299
f 299 306 307
f 299 307 304
f 202 201 304
f 202 304 307
f 305 304 201
f 305 201 208
f 305 308 301
f 305 301 300
f 208 188 308
f 208 308 305
f 188 187 254
f 188 254 308
f 301 308 254
f 301 254 280
f 299 296 293
f 299 293 306
f 295 298 309
f 295 309 310
f 311 312 310
f 311 310 313
f 314 315 311
f 314 311 316
f 224 314 316
f 224 316 223
f 225 317 314
f 225 314 224
f 317 318 315
f 317 315 314
f 311 315 319
f 311 319 312
f 312 319 292
f 312 292 294
f 310 312 294
f 310 294 295
f 311 313 320
f 311 320 316
f 320 220 221
f 320 221 222
f 316 320 222
f 316 222 223
f 219 220 320
f 219 320 313
f 313 310 309
f 313 309 219
f 298 303 321
f 298 321 309
f 321 303 175
f 321 175 178
f 218 321 178
f 218 178 180
f 219 309 321
f 219 321 218
f 293 291 322
f 293 322 306
f 290 323 322
f 290 322 291
f 290 162 161
f 290 161 323
f 323 161 160
f 323 160 168
f 323 168 324
f 323 324 322
f 322 324 307
f 322 307 306
f 168 167 204
f 168 204 324
f 202 307 324
f 202 324 204
f 289 292 319
f 289 319 325
f 286 288 289
f 286 289 325
f 325 319 315
f 325 315 318
f 286 325 318
f 286 318 287
f 287 318 317
f 287 317 326
f 225 327 326
f 225 326 317
f 328 327 329
f 328 329 226
f 129 328 226
f 129 226 227
f 128 330 328
f 128 328 129
f 328 330 326
f 328 326 327
f 329 327 225
f 329 225 192
f 329 192 191
f 329 191 190
f 226 329 190
f 226 190 173
f 287 326 330
f 287 330 285
f 127 285 330
f 127 330 128
f 125 331 130
f 125 130 126
f 130 331 171
f 130 171 136
f 125 129 227
f 125 227 331
f 171 331 227
f 171 227 172
f 131 130 136
f 131 136 134
f 238 283 274
f 238 274 239
f 283 233 281
f 283 281 282
f 282 176 275
f 282 275 279
f 279 274 283
f 279 283 282
f 274 279 278
f 274 278 273
f 278 277 253
f 278 253 258
f 257 273 278
f 257 278 258
f 257 271 270
f 257 270 273
f 271 257 260
f 271 260 250
f 249 268 271
f 249 271 250
f 72 249 94
f 72 94 74
