# Rib_12R rest
v -0.070591 -0.163759 -0.038894
v -0.070546 -0.159953 -0.040960
v -0.071697 -0.159647 -0.040743
v -0.071761 -0.163540 -0.038626
v -0.069522 -0.160864 -0.041520
v -0.069096 -0.156735 -0.043542
v -0.070141 -0.155775 -0.043044
v -0.067960 -0.152520 -0.045146
v -0.069134 -0.151518 -0.044719
v -0.068551 -0.158041 -0.044278
v -0.067335 -0.153896 -0.045925
v -0.065630 -0.149715 -0.047521
v -0.066179 -0.148383 -0.046677
v -0.063754 -0.145914 -0.048491
v -0.064282 -0.144628 -0.047622
v -0.067574 -0.154983 -0.046728
v -0.065897 -0.150739 -0.048360
v -0.068315 -0.155715 -0.047323
v -0.066675 -0.151351 -0.048984
v -0.064912 -0.147370 -0.050122
v -0.064080 -0.146853 -0.049421
v -0.069334 -0.155950 -0.047670
v -0.067751 -0.151437 -0.049348
v -0.069470 -0.160183 -0.045571
v -0.068720 -0.159274 -0.045012
v -0.016167 -0.095937 -0.031507
v -0.017998 -0.096382 -0.033655
v -0.018931 -0.097804 -0.030939
v -0.017385 -0.097600 -0.028327
v -0.021239 -0.099522 -0.035290
v -0.020185 -0.097518 -0.036481
v -0.023765 -0.099103 -0.040076
v -0.024437 -0.100624 -0.039299
v -0.019063 -0.097546 -0.037874
v -0.022022 -0.098794 -0.041752
v -0.017008 -0.096543 -0.035574
v -0.019570 -0.101501 -0.044095
v -0.024178 -0.102843 -0.047789
v -0.024597 -0.101116 -0.047363
v -0.019944 -0.099583 -0.043444
v -0.031775 -0.107180 -0.050032
v -0.032603 -0.105613 -0.050204
v -0.028456 -0.101109 -0.043153
v -0.034093 -0.104159 -0.045827
v -0.034118 -0.105236 -0.045000
v -0.028902 -0.102088 -0.042382
v -0.040185 -0.108535 -0.048362
v -0.039840 -0.109308 -0.047256
v -0.033468 -0.104293 -0.048125
v -0.039869 -0.109039 -0.049987
v -0.026779 -0.100690 -0.045329
v -0.039166 -0.110308 -0.051254
v -0.038389 -0.111793 -0.051227
v -0.031264 -0.108793 -0.049266
v -0.037676 -0.113163 -0.050560
v -0.043515 -0.118640 -0.051704
v -0.044375 -0.117479 -0.052189
v -0.031311 -0.110127 -0.047870
v -0.037049 -0.114294 -0.049477
v -0.042815 -0.119395 -0.050800
v -0.049512 -0.121868 -0.048466
v -0.048509 -0.123088 -0.048442
v -0.043016 -0.117932 -0.047755
v -0.043923 -0.116618 -0.047935
v -0.037607 -0.113228 -0.046594
v -0.038363 -0.111872 -0.046316
v -0.042519 -0.118964 -0.048327
v -0.047968 -0.124188 -0.049036
v -0.037084 -0.114285 -0.047435
v -0.031905 -0.110785 -0.045380
v -0.032411 -0.110045 -0.044654
v -0.036949 -0.114591 -0.048427
v -0.031543 -0.110889 -0.046452
v -0.042286 -0.119559 -0.048952
v -0.047916 -0.124845 -0.050029
v -0.060063 -0.134772 -0.052790
v -0.058646 -0.135554 -0.052293
v -0.061544 -0.139817 -0.051898
v -0.062929 -0.139150 -0.052286
v -0.063888 -0.143581 -0.051276
v -0.065304 -0.142955 -0.051578
v -0.060422 -0.139954 -0.051272
v -0.062705 -0.143633 -0.050728
v -0.057516 -0.135771 -0.051521
v -0.055938 -0.129359 -0.053126
v -0.054664 -0.130284 -0.052601
v -0.061462 -0.133627 -0.052875
v -0.057100 -0.128095 -0.053055
v -0.051400 -0.122020 -0.053116
v -0.057948 -0.126704 -0.052368
v -0.052287 -0.120665 -0.052464
v -0.062153 -0.132178 -0.052044
v -0.050301 -0.123360 -0.052903
v -0.049240 -0.124378 -0.052302
v -0.048368 -0.124916 -0.051265
v -0.053618 -0.130615 -0.051618
v -0.045334 -0.116088 -0.052411
v -0.046241 -0.114728 -0.052011
v -0.053051 -0.129510 -0.049644
v -0.053068 -0.130326 -0.050584
v -0.059546 -0.138661 -0.049600
v -0.060029 -0.137514 -0.048864
v -0.062147 -0.140842 -0.048357
v -0.061641 -0.142096 -0.049096
v -0.061211 -0.136439 -0.048592
v -0.063482 -0.139769 -0.048102
v -0.058330 -0.132128 -0.048707
v -0.057288 -0.133269 -0.049034
v -0.056792 -0.134495 -0.049771
v -0.053592 -0.128320 -0.048955
v -0.054613 -0.127187 -0.048733
v -0.061902 -0.143096 -0.049975
v -0.059717 -0.139532 -0.050477
v -0.056871 -0.135379 -0.050644
v -0.025344 -0.106469 -0.045712
v -0.026409 -0.107458 -0.043984
v -0.024294 -0.105046 -0.047338
v -0.019850 -0.103664 -0.043921
v -0.016796 -0.100117 -0.040934
v -0.017104 -0.102247 -0.039791
v -0.069834 -0.176547 -0.036359
v -0.069643 -0.176743 -0.036534
v -0.069676 -0.176416 -0.036178
v -0.069978 -0.176335 -0.036077
v -0.068765 -0.176220 -0.036696
v -0.069077 -0.176457 -0.036468
v -0.069316 -0.176697 -0.036706
v -0.069209 -0.176576 -0.036995
v -0.069354 -0.176494 -0.036303
v -0.068920 -0.176092 -0.036103
v -0.069259 -0.176201 -0.035978
v -0.069439 -0.176670 -0.036497
v -0.069657 -0.176182 -0.035894
v -0.069653 -0.175949 -0.035598
v -0.069281 -0.175914 -0.035606
v -0.070461 -0.160549 -0.045861
v -0.070476 -0.155576 -0.047730
v -0.068990 -0.150952 -0.049437
v -0.066059 -0.147341 -0.050533
v -0.067386 -0.146749 -0.050643
v -0.068985 -0.162174 -0.042284
v -0.069125 -0.163535 -0.043019
v -0.069006 -0.166002 -0.040347
v -0.069541 -0.164626 -0.039517
v -0.069178 -0.167526 -0.041134
v -0.069213 -0.167953 -0.037779
v -0.068751 -0.169223 -0.038647
v -0.068943 -0.170669 -0.039446
v -0.065565 -0.143556 -0.047249
v -0.067463 -0.147340 -0.046319
v -0.068916 -0.146792 -0.046326
v -0.067078 -0.142931 -0.047295
v -0.068479 -0.142825 -0.047779
v -0.070216 -0.146807 -0.046748
v -0.071005 -0.147478 -0.047531
v -0.069400 -0.143340 -0.048652
v -0.071100 -0.148663 -0.048503
v -0.072426 -0.153159 -0.046788
v -0.072463 -0.151919 -0.045903
v -0.073656 -0.156608 -0.043986
v -0.073592 -0.157906 -0.044798
v -0.072291 -0.155662 -0.043159
v -0.071529 -0.151219 -0.044994
v -0.069584 -0.144407 -0.049688
v -0.068775 -0.145733 -0.050402
v -0.070243 -0.150004 -0.049165
v -0.071481 -0.154621 -0.047321
v -0.066763 -0.138920 -0.048932
v -0.067777 -0.139397 -0.049997
v -0.062778 -0.135711 -0.048807
v -0.064346 -0.135403 -0.049488
v -0.065154 -0.139103 -0.048296
v -0.065365 -0.135732 -0.050668
v -0.070431 -0.151064 -0.044645
v -0.071322 -0.155392 -0.042886
v -0.068421 -0.173635 -0.036770
v -0.068367 -0.174903 -0.036365
v -0.068582 -0.175646 -0.037022
v -0.068645 -0.174593 -0.037553
v -0.069099 -0.176278 -0.037425
v -0.069268 -0.175442 -0.038053
v -0.069822 -0.176594 -0.037526
v -0.069715 -0.176743 -0.037070
v -0.070179 -0.175855 -0.038181
v -0.069539 -0.173983 -0.038881
v -0.068785 -0.172960 -0.038317
v -0.069794 -0.171857 -0.039986
v -0.068542 -0.171776 -0.037464
v -0.073218 -0.169866 -0.038408
v -0.073094 -0.168456 -0.037531
v -0.073622 -0.165008 -0.039713
v -0.073672 -0.166486 -0.040525
v -0.070923 -0.172466 -0.040136
v -0.071967 -0.172316 -0.039879
v -0.072176 -0.169165 -0.041585
v -0.071254 -0.169423 -0.041811
v -0.070982 -0.165120 -0.043805
v -0.071886 -0.164797 -0.043669
v -0.069932 -0.164627 -0.043565
v -0.070114 -0.168801 -0.041665
v -0.071429 -0.160197 -0.045805
v -0.073492 -0.163831 -0.043335
v -0.073100 -0.159259 -0.045522
v -0.073943 -0.162398 -0.042590
v -0.073989 -0.161024 -0.041781
v -0.072629 -0.160002 -0.040973
v -0.019581 -0.101254 -0.028268
v -0.022040 -0.101388 -0.034699
v -0.022086 -0.103734 -0.034816
v -0.019257 -0.104258 -0.028790
v -0.033683 -0.106906 -0.044612
v -0.028766 -0.103700 -0.042121
v -0.046515 -0.113986 -0.050419
v -0.052394 -0.119898 -0.050862
v -0.057948 -0.125807 -0.050971
v -0.062066 -0.131169 -0.050802
v -0.065256 -0.136770 -0.051741
v -0.064342 -0.138104 -0.052324
v -0.066767 -0.141893 -0.051550
v -0.067770 -0.140524 -0.051028
v -0.061117 -0.130914 -0.049606
v -0.059722 -0.131307 -0.048909
v -0.055866 -0.126288 -0.048991
v -0.057094 -0.125735 -0.049670
v -0.050671 -0.120793 -0.048876
v -0.051725 -0.120023 -0.049513
v -0.044996 -0.115399 -0.048565
v -0.045943 -0.114376 -0.049097
v -0.039081 -0.110608 -0.046293
v -0.021278 -0.104904 -0.035319
v -0.018309 -0.105013 -0.030903
v -0.024404 -0.104178 -0.039076
v -0.023793 -0.105356 -0.039473
v -0.024528 -0.102324 -0.039008
v -0.028388 -0.105442 -0.041905
v -0.033072 -0.108613 -0.044316
v -0.027726 -0.106732 -0.042419
v -0.027167 -0.107390 -0.042947
v -0.022108 -0.105838 -0.041253
v -0.023082 -0.105915 -0.040137
v -0.020230 -0.105451 -0.036407
v -0.017754 -0.105075 -0.033288
v -0.014934 -0.103865 -0.035299
v -0.016273 -0.103882 -0.036741
v -0.015676 -0.102203 -0.037624
v -0.014494 -0.102201 -0.036175
v -0.017865 -0.104230 -0.039076
v -0.020936 -0.104796 -0.042685
v -0.018894 -0.105496 -0.037800
v -0.016988 -0.104680 -0.035441
v -0.015448 -0.105028 -0.033965
v -0.015709 -0.105744 -0.032078
v -0.016338 -0.105582 -0.029423
v -0.018011 -0.105021 -0.026634
v -0.015809 -0.104926 -0.029388
v -0.016989 -0.104395 -0.027000
v -0.014900 -0.104648 -0.033736
v -0.014734 -0.103282 -0.034734
v -0.015368 -0.103281 -0.033131
v -0.015149 -0.105123 -0.032152
v -0.016286 -0.103937 -0.029133
v -0.015364 -0.096670 -0.030892
v -0.015860 -0.097364 -0.029459
v -0.016912 -0.100911 -0.027091
v -0.018294 -0.101431 -0.026187
v -0.016054 -0.099071 -0.031063
v -0.014984 -0.096722 -0.033019
v -0.014487 -0.101124 -0.035735
v -0.015254 -0.099674 -0.034721
v -0.014101 -0.099567 -0.036704
v -0.013935 -0.099317 -0.036016
v -0.014403 -0.097081 -0.035860
v -0.014244 -0.097566 -0.035128
v -0.015160 -0.096001 -0.033768
v -0.015634 -0.097388 -0.037617
v -0.017241 -0.098312 -0.039691
v -0.014995 -0.099606 -0.038304
v -0.069930 -0.175811 -0.035449
v -0.069571 -0.175561 -0.035264
v -0.069764 -0.175576 -0.035250
v -0.072427 -0.167440 -0.036895
v -0.072010 -0.170466 -0.035359
v -0.070874 -0.170029 -0.035213
v -0.071401 -0.166990 -0.036736
v -0.072707 -0.163964 -0.038826
v -0.072860 -0.171360 -0.036083
v -0.071507 -0.172860 -0.034620
v -0.072307 -0.173600 -0.035330
v -0.070403 -0.172412 -0.034490
v -0.070141 -0.174995 -0.034899
v -0.069519 -0.174824 -0.034791
v -0.069846 -0.173968 -0.034444
v -0.070737 -0.174312 -0.034572
v -0.069299 -0.175664 -0.035323
v -0.069125 -0.175430 -0.035223
v -0.069493 -0.175292 -0.035072
v -0.068954 -0.174881 -0.035068
v -0.069019 -0.173943 -0.034845
v -0.068655 -0.172839 -0.035842
v -0.068509 -0.174281 -0.035578
v -0.068621 -0.175188 -0.035614
v -0.068960 -0.175743 -0.035650
v -0.068606 -0.175738 -0.036201
v -0.069356 -0.172394 -0.034981
v -0.069727 -0.170126 -0.035662
v -0.068867 -0.170755 -0.036498
v -0.070215 -0.167156 -0.037081
v -0.071380 -0.174826 -0.035175
v -0.071577 -0.175426 -0.036029
v -0.070762 -0.175831 -0.035810
v -0.070585 -0.175352 -0.035254
v -0.071260 -0.176005 -0.036778
v -0.070618 -0.176260 -0.036381
v -0.070244 -0.176314 -0.036176
v -0.070014 -0.176581 -0.036550
v -0.070236 -0.176572 -0.036794
v -0.070604 -0.176434 -0.037282
v -0.069660 -0.176838 -0.036795
v -0.069971 -0.176052 -0.035753
v -0.069901 -0.175427 -0.035066
v -0.070179 -0.175662 -0.035312
v -0.070299 -0.175937 -0.035761
v -0.073674 -0.168137 -0.041232
v -0.072788 -0.171330 -0.039251
v -0.073124 -0.172525 -0.037177
v -0.072555 -0.174450 -0.036416
v -0.072681 -0.173650 -0.038162
v -0.070596 -0.174489 -0.039046
v -0.071709 -0.174347 -0.038796
v -0.071205 -0.175737 -0.037931
v -0.072103 -0.175221 -0.037339
f 1 2 3
f 1 3 4
f 2 5 6
f 2 6 7
f 6 8 9
f 6 9 7
f 8 6 10
f 8 10 11
f 8 11 12
f 8 12 13
f 12 14 15
f 12 15 13
f 16 17 12
f 16 12 11
f 17 16 18
f 17 18 19
f 19 20 21
f 19 21 17
f 18 22 23
f 18 23 19
f 24 18 16
f 24 16 25
f 26 27 28
f 26 28 29
f 30 31 32
f 30 32 33
f 34 35 32
f 34 32 31
f 27 31 30
f 27 30 28
f 34 31 27
f 34 27 36
f 37 38 39
f 37 39 40
f 41 42 39
f 41 39 38
f 43 44 45
f 43 45 46
f 44 47 48
f 44 48 45
f 44 49 50
f 44 50 47
f 51 39 42
f 51 42 49
f 40 39 51
f 40 51 35
f 35 51 43
f 35 43 32
f 51 49 44
f 51 44 43
f 50 49 42
f 50 42 52
f 41 53 52
f 41 52 42
f 54 55 53
f 54 53 41
f 55 56 57
f 55 57 53
f 54 58 59
f 54 59 55
f 59 60 56
f 59 56 55
f 61 62 63
f 61 63 64
f 65 66 64
f 65 64 63
f 67 63 62
f 67 62 68
f 69 65 63
f 69 63 67
f 69 70 71
f 69 71 65
f 72 73 70
f 72 70 69
f 72 69 67
f 72 67 74
f 75 74 67
f 75 67 68
f 76 77 78
f 76 78 79
f 79 78 80
f 79 80 81
f 78 82 83
f 78 83 80
f 84 82 78
f 84 78 77
f 85 86 77
f 85 77 76
f 76 87 88
f 76 88 85
f 89 88 90
f 89 90 91
f 88 87 92
f 88 92 90
f 93 85 88
f 93 88 89
f 86 94 95
f 86 95 96
f 94 56 60
f 94 60 95
f 93 57 56
f 93 56 94
f 52 53 57
f 52 57 97
f 50 52 97
f 50 97 98
f 98 97 89
f 98 89 91
f 97 57 93
f 97 93 89
f 93 94 86
f 93 86 85
f 96 84 77
f 96 77 86
f 99 100 75
f 99 75 68
f 101 102 103
f 101 103 104
f 105 106 103
f 105 103 102
f 107 105 102
f 107 102 108
f 108 102 101
f 108 101 109
f 108 110 111
f 108 111 107
f 61 111 110
f 61 110 62
f 99 68 62
f 99 62 110
f 110 108 109
f 110 109 99
f 112 83 82
f 112 82 113
f 112 113 101
f 112 101 104
f 113 82 84
f 113 84 114
f 109 101 113
f 109 113 114
f 114 100 99
f 114 99 109
f 114 84 96
f 114 96 100
f 96 95 75
f 96 75 100
f 75 95 60
f 75 60 74
f 59 72 74
f 59 74 60
f 59 58 73
f 59 73 72
f 58 115 116
f 58 116 73
f 115 58 54
f 115 54 117
f 54 41 38
f 54 38 117
f 117 38 37
f 117 37 118
f 119 120 118
f 119 118 37
f 121 122 123
f 121 123 124
f 125 126 127
f 125 127 128
f 129 126 130
f 129 130 131
f 129 132 127
f 129 127 126
f 129 123 122
f 129 122 132
f 131 133 123
f 131 123 129
f 134 133 131
f 134 131 135
f 24 136 22
f 24 22 18
f 137 138 23
f 137 23 22
f 139 23 138
f 139 138 140
f 23 139 20
f 23 20 19
f 21 112 104
f 21 104 14
f 104 103 15
f 104 15 14
f 21 14 12
f 21 12 17
f 21 20 83
f 21 83 112
f 11 10 25
f 11 25 16
f 141 142 25
f 141 25 10
f 143 141 5
f 143 5 144
f 145 142 141
f 145 141 143
f 143 144 146
f 143 146 147
f 147 148 145
f 147 145 143
f 141 10 6
f 141 6 5
f 5 2 1
f 5 1 144
f 15 149 150
f 15 150 13
f 151 150 149
f 151 149 152
f 151 152 153
f 151 153 154
f 155 154 153
f 155 153 156
f 155 157 158
f 155 158 159
f 160 159 158
f 160 158 161
f 162 163 159
f 162 159 160
f 154 155 159
f 154 159 163
f 164 165 166
f 164 166 157
f 167 158 157
f 167 157 166
f 156 164 157
f 156 157 155
f 168 169 156
f 168 156 153
f 170 171 168
f 170 168 172
f 168 171 173
f 168 173 169
f 168 153 152
f 168 152 172
f 151 154 163
f 151 163 174
f 174 9 150
f 174 150 151
f 7 9 174
f 7 174 175
f 8 13 150
f 8 150 9
f 163 162 175
f 163 175 174
f 15 103 106
f 15 106 149
f 149 106 172
f 149 172 152
f 3 2 7
f 3 7 175
f 176 177 178
f 176 178 179
f 179 178 180
f 179 180 181
f 178 125 128
f 178 128 180
f 182 180 128
f 182 128 183
f 182 184 181
f 182 181 180
f 179 181 185
f 179 185 186
f 186 185 187
f 186 187 148
f 188 186 148
f 188 148 147
f 186 188 176
f 186 176 179
f 189 190 191
f 189 191 192
f 193 194 195
f 193 195 196
f 197 196 195
f 197 195 198
f 197 136 24
f 197 24 199
f 196 197 199
f 196 199 200
f 145 200 199
f 145 199 142
f 187 200 145
f 187 145 148
f 187 193 196
f 187 196 200
f 24 25 142
f 24 142 199
f 198 201 136
f 198 136 197
f 198 202 203
f 198 203 201
f 204 161 203
f 204 203 202
f 158 167 203
f 158 203 161
f 203 167 137
f 203 137 201
f 201 137 22
f 201 22 136
f 204 192 191
f 204 191 205
f 205 206 162
f 205 162 160
f 160 161 204
f 160 204 205
f 206 3 175
f 206 175 162
f 207 28 30
f 207 30 208
f 208 209 210
f 208 210 207
f 43 46 33
f 43 33 32
f 211 212 46
f 211 46 45
f 213 47 50
f 213 50 98
f 214 213 98
f 214 98 91
f 214 91 90
f 214 90 215
f 92 216 215
f 92 215 90
f 217 173 216
f 217 216 92
f 92 87 218
f 92 218 217
f 76 79 218
f 76 218 87
f 81 219 218
f 81 218 79
f 217 218 219
f 217 219 220
f 164 220 219
f 164 219 165
f 156 169 220
f 156 220 164
f 169 173 217
f 169 217 220
f 81 140 165
f 81 165 219
f 221 216 173
f 221 173 171
f 221 171 170
f 221 170 222
f 170 105 107
f 170 107 222
f 107 111 223
f 107 223 222
f 222 223 224
f 222 224 221
f 224 215 216
f 224 216 221
f 225 226 224
f 225 224 223
f 227 225 61
f 227 61 64
f 226 225 227
f 226 227 228
f 66 229 227
f 66 227 64
f 48 228 227
f 48 227 229
f 225 223 111
f 225 111 61
f 214 215 224
f 214 224 226
f 213 214 226
f 213 226 228
f 48 47 213
f 48 213 228
f 211 45 48
f 211 48 229
f 172 106 105
f 172 105 170
f 167 166 138
f 167 138 137
f 140 138 166
f 140 166 165
f 139 140 81
f 139 81 80
f 83 20 139
f 83 139 80
f 210 209 230
f 210 230 231
f 209 232 233
f 209 233 230
f 234 232 209
f 234 209 208
f 234 33 46
f 234 46 212
f 208 30 33
f 208 33 234
f 234 212 235
f 234 235 232
f 236 66 65
f 236 65 71
f 229 66 236
f 229 236 211
f 236 235 212
f 236 212 211
f 71 237 235
f 71 235 236
f 116 238 70
f 116 70 73
f 238 237 71
f 238 71 70
f 116 239 240
f 116 240 238
f 240 233 237
f 240 237 238
f 237 233 232
f 237 232 235
f 230 233 240
f 230 240 241
f 230 241 242
f 230 242 231
f 243 244 245
f 243 245 246
f 247 120 245
f 247 245 244
f 247 248 118
f 247 118 120
f 118 248 115
f 118 115 117
f 116 115 248
f 116 248 239
f 249 241 240
f 249 240 239
f 249 250 242
f 249 242 241
f 249 239 248
f 249 248 247
f 244 250 249
f 244 249 247
f 243 251 250
f 243 250 244
f 250 251 252
f 250 252 242
f 253 231 242
f 253 242 252
f 254 210 231
f 254 231 253
f 255 256 254
f 255 254 253
f 257 258 259
f 257 259 260
f 259 261 255
f 259 255 260
f 262 26 29
f 262 29 263
f 256 264 265
f 256 265 254
f 265 207 210
f 265 210 254
f 29 28 207
f 29 207 265
f 264 263 29
f 264 29 265
f 261 266 263
f 261 263 264
f 266 267 262
f 266 262 263
f 259 258 268
f 259 268 269
f 243 246 268
f 243 268 258
f 246 270 271
f 246 271 268
f 271 270 272
f 271 272 273
f 267 274 26
f 267 26 262
f 274 36 27
f 274 27 26
f 36 274 272
f 36 272 275
f 40 35 34
f 40 34 276
f 119 37 40
f 119 40 276
f 276 34 36
f 276 36 275
f 246 245 277
f 246 277 270
f 120 119 277
f 120 277 245
f 277 119 276
f 277 276 275
f 272 270 277
f 272 277 275
f 272 274 267
f 272 267 273
f 267 266 269
f 267 269 273
f 269 268 271
f 269 271 273
f 269 266 261
f 269 261 259
f 261 264 256
f 261 256 255
f 255 253 252
f 255 252 260
f 257 260 252
f 257 252 251
f 251 243 258
f 251 258 257
f 278 134 279
f 278 279 280
f 281 282 283
f 281 283 284
f 191 285 206
f 191 206 205
f 285 4 3
f 285 3 206
f 281 285 191
f 281 191 190
f 284 4 285
f 284 285 281
f 286 282 281
f 286 281 190
f 287 282 286
f 287 286 288
f 289 283 282
f 289 282 287
f 290 291 292
f 290 292 293
f 294 295 296
f 294 296 279
f 296 295 297
f 296 297 291
f 291 297 298
f 291 298 292
f 299 300 177
f 299 177 176
f 301 300 298
f 301 298 297
f 131 130 302
f 131 302 135
f 294 135 302
f 294 302 295
f 302 301 297
f 302 297 295
f 178 177 303
f 178 303 125
f 130 126 125
f 130 125 303
f 301 302 130
f 301 130 303
f 301 303 177
f 301 177 300
f 304 305 283
f 304 283 289
f 306 188 147
f 306 147 146
f 306 299 176
f 306 176 188
f 305 307 284
f 305 284 283
f 284 307 1
f 284 1 4
f 307 146 144
f 307 144 1
f 307 305 306
f 307 306 146
f 304 299 306
f 304 306 305
f 304 298 300
f 304 300 299
f 298 304 289
f 298 289 292
f 289 287 293
f 289 293 292
f 293 287 288
f 293 288 308
f 308 309 310
f 308 310 311
f 309 312 313
f 309 313 310
f 121 124 314
f 121 314 315
f 182 183 316
f 182 316 317
f 318 122 121
f 318 121 315
f 122 318 127
f 122 127 132
f 318 183 128
f 318 128 127
f 315 316 183
f 315 183 318
f 314 313 316
f 314 316 315
f 134 278 319
f 134 319 133
f 133 319 124
f 133 124 123
f 278 280 320
f 278 320 321
f 321 311 310
f 321 310 322
f 320 290 311
f 320 311 321
f 321 322 319
f 321 319 278
f 314 124 319
f 314 319 322
f 314 322 310
f 314 310 313
f 313 312 317
f 313 317 316
f 323 202 198
f 323 198 195
f 202 323 192
f 202 192 204
f 194 324 323
f 194 323 195
f 189 192 323
f 189 323 324
f 189 325 286
f 189 286 190
f 325 326 288
f 325 288 286
f 325 189 324
f 325 324 327
f 328 185 181
f 328 181 184
f 328 193 187
f 328 187 185
f 329 194 193
f 329 193 328
f 317 330 184
f 317 184 182
f 327 329 330
f 327 330 331
f 330 329 328
f 330 328 184
f 327 324 194
f 327 194 329
f 331 326 325
f 331 325 327
f 331 330 317
f 331 317 312
f 309 326 331
f 309 331 312
f 308 288 326
f 308 326 309
f 308 311 290
f 308 290 293
f 320 296 291
f 320 291 290
f 320 280 279
f 320 279 296
f 279 134 135
f 279 135 294
