# Rib_10L posed
v -0.336120 -0.106040 0.363191
v -0.336538 -0.106895 0.362191
v -0.343495 -0.112377 0.370337
v -0.342949 -0.111753 0.371246
v -0.351347 -0.115779 0.382603
v -0.349912 -0.115288 0.383791
v -0.341300 -0.111178 0.372737
v -0.362526 -0.118979 0.397304
v -0.361153 -0.118430 0.398516
v -0.359196 -0.118417 0.399933
v -0.347769 -0.115185 0.385035
v -0.369806 -0.119487 0.410512
v -0.367944 -0.119410 0.412134
v -0.375967 -0.119444 0.419480
v -0.374413 -0.119277 0.421158
v -0.357612 -0.118899 0.400625
v -0.366614 -0.120127 0.413353
v -0.366037 -0.120720 0.413717
v -0.356742 -0.119239 0.400649
v -0.373228 -0.119912 0.422635
v -0.372756 -0.120515 0.423331
v -0.365754 -0.121537 0.414053
v -0.356242 -0.119981 0.400825
v -0.345376 -0.115578 0.385738
v -0.346274 -0.115314 0.385635
v -0.430573 -0.050170 0.445126
v -0.429940 -0.050595 0.443192
v -0.428878 -0.053808 0.445220
v -0.429989 -0.053242 0.447029
v -0.427100 -0.058222 0.447624
v -0.425275 -0.063550 0.450438
v -0.426696 -0.062976 0.451721
v -0.428662 -0.057487 0.449184
v -0.428125 -0.055901 0.451612
v -0.426231 -0.061647 0.453531
v -0.429404 -0.051920 0.449519
v -0.422859 -0.058883 0.457498
v -0.424938 -0.059543 0.456845
v -0.422434 -0.066216 0.456892
v -0.420727 -0.065712 0.457230
v -0.418244 -0.073383 0.457568
v -0.419622 -0.073735 0.457462
v -0.424740 -0.068789 0.453932
v -0.423310 -0.068955 0.452763
v -0.420401 -0.075172 0.453908
v -0.421738 -0.075505 0.454840
v -0.416596 -0.083302 0.453758
v -0.417624 -0.084130 0.454693
v -0.417009 -0.083755 0.456380
v -0.421081 -0.074629 0.456569
v -0.424024 -0.067545 0.455588
v -0.415545 -0.082637 0.457177
v -0.414264 -0.081793 0.457282
v -0.417063 -0.073116 0.457376
v -0.413136 -0.081188 0.457238
v -0.409140 -0.090789 0.456036
v -0.408104 -0.089743 0.455946
v -0.412137 -0.080599 0.456911
v -0.416119 -0.072859 0.456794
v -0.407254 -0.088721 0.455474
v -0.405599 -0.097723 0.450259
v -0.410198 -0.090119 0.452639
v -0.409245 -0.089431 0.453072
v -0.404625 -0.097014 0.450770
v -0.413558 -0.081345 0.454249
v -0.414461 -0.081918 0.453960
v -0.408177 -0.088707 0.453643
v -0.403481 -0.096378 0.451399
v -0.412515 -0.080659 0.454842
v -0.417221 -0.073735 0.454252
v -0.416356 -0.073183 0.454746
v -0.411741 -0.080221 0.455882
v -0.415908 -0.072880 0.455724
v -0.407303 -0.088294 0.454485
v -0.402645 -0.096108 0.452004
v -0.391860 -0.112930 0.444597
v -0.385601 -0.117857 0.438506
v -0.384922 -0.115841 0.438220
v -0.391127 -0.110945 0.444291
v -0.379184 -0.121421 0.431713
v -0.378523 -0.119387 0.431392
v -0.378654 -0.118450 0.430919
v -0.385023 -0.114827 0.437767
v -0.391242 -0.109837 0.443758
v -0.397755 -0.106480 0.449647
v -0.396967 -0.104877 0.449444
v -0.399058 -0.107639 0.449161
v -0.393259 -0.113904 0.444010
v -0.404672 -0.100328 0.453336
v -0.406499 -0.101795 0.452530
v -0.401008 -0.108834 0.448284
v -0.395237 -0.114623 0.442991
v -0.403439 -0.099030 0.453690
v -0.396990 -0.103641 0.448772
v -0.402257 -0.096471 0.452749
v -0.402574 -0.097647 0.453430
v -0.410257 -0.091949 0.455847
v -0.411726 -0.093283 0.455240
v -0.398346 -0.103362 0.447600
v -0.397447 -0.103282 0.448209
v -0.386384 -0.114071 0.436192
v -0.380156 -0.117701 0.428992
v -0.381744 -0.117803 0.427545
v -0.387966 -0.114289 0.435033
v -0.389143 -0.114807 0.434301
v -0.382924 -0.118304 0.426725
v -0.395218 -0.109908 0.440681
v -0.394104 -0.109338 0.441388
v -0.392643 -0.109287 0.442518
v -0.400719 -0.104301 0.446129
v -0.399720 -0.103734 0.446726
v -0.379054 -0.118048 0.430275
v -0.385404 -0.114452 0.437220
v -0.391668 -0.109523 0.443297
v -0.418671 -0.066425 0.454436
v -0.418670 -0.065925 0.455718
v -0.419418 -0.065680 0.456793
v -0.421176 -0.059122 0.456232
v -0.424382 -0.053890 0.453899
v -0.422586 -0.054200 0.453171
v -0.317422 -0.091937 0.357022
v -0.318624 -0.092918 0.355970
v -0.319807 -0.092216 0.357819
v -0.318039 -0.091146 0.358098
v -0.320770 -0.090989 0.360593
v -0.318355 -0.091836 0.359878
v -0.318474 -0.090627 0.359185
v -0.320777 -0.090102 0.359764
v -0.320751 -0.090227 0.359117
v -0.324056 -0.090937 0.358521
v -0.324098 -0.090642 0.359294
v -0.318809 -0.090432 0.358814
v -0.323615 -0.093090 0.357224
v -0.326293 -0.092600 0.356382
v -0.326644 -0.091591 0.357508
v -0.344774 -0.116207 0.385777
v -0.356480 -0.121635 0.401395
v -0.366207 -0.123060 0.414527
v -0.372589 -0.121369 0.423796
v -0.373170 -0.122995 0.424103
v -0.338813 -0.111248 0.374144
v -0.336876 -0.111562 0.374774
v -0.332096 -0.105083 0.366200
v -0.334623 -0.105318 0.364725
v -0.329402 -0.105310 0.366743
v -0.328355 -0.100146 0.362416
v -0.331138 -0.100866 0.360953
v -0.325089 -0.100172 0.363069
v -0.371143 -0.120204 0.409221
v -0.377227 -0.120117 0.418358
v -0.371581 -0.120895 0.408461
v -0.378026 -0.120870 0.417928
v -0.371735 -0.122254 0.408542
v -0.378620 -0.122621 0.418366
v -0.370990 -0.124258 0.410340
v -0.377763 -0.124537 0.420268
v -0.361856 -0.123038 0.397814
v -0.359902 -0.123538 0.400020
v -0.369385 -0.124828 0.412698
v -0.349637 -0.118885 0.382228
v -0.347075 -0.119144 0.383901
v -0.351820 -0.117890 0.381105
v -0.363165 -0.121236 0.396227
v -0.376156 -0.124957 0.422121
v -0.367577 -0.124507 0.414314
v -0.374467 -0.124423 0.423620
v -0.357783 -0.123239 0.401458
v -0.384561 -0.120550 0.426776
v -0.384198 -0.122701 0.428413
v -0.390003 -0.115498 0.433963
v -0.383741 -0.119025 0.426430
v -0.390929 -0.116980 0.434166
v -0.390832 -0.119211 0.435517
v -0.362965 -0.119639 0.396542
v -0.351835 -0.116337 0.381714
v -0.324959 -0.095187 0.360876
v -0.321829 -0.095034 0.361404
v -0.321065 -0.093090 0.361005
v -0.324411 -0.093574 0.360895
v -0.319195 -0.095378 0.360360
v -0.318830 -0.093421 0.360249
v -0.317412 -0.094276 0.358989
v -0.316754 -0.092647 0.358838
v -0.318330 -0.096240 0.359421
v -0.322892 -0.097085 0.361532
v -0.320434 -0.097650 0.361048
v -0.322750 -0.100863 0.362556
v -0.326194 -0.097128 0.360938
v -0.326325 -0.104689 0.358696
v -0.330104 -0.108654 0.363260
v -0.333401 -0.108660 0.361971
v -0.329398 -0.104681 0.357693
v -0.322011 -0.101697 0.361826
v -0.326834 -0.106721 0.366204
v -0.326937 -0.107480 0.365528
v -0.322522 -0.102649 0.361064
v -0.334816 -0.112591 0.374816
v -0.334617 -0.113550 0.374427
v -0.335658 -0.111905 0.374944
v -0.327746 -0.105995 0.366689
v -0.344652 -0.117518 0.385840
v -0.345455 -0.118719 0.385318
v -0.335497 -0.114293 0.373612
v -0.337523 -0.114572 0.372296
v -0.340620 -0.114404 0.370734
v -0.343119 -0.113616 0.369717
v -0.427451 -0.053726 0.444325
v -0.425819 -0.058175 0.447193
v -0.425706 -0.053442 0.444019
v -0.424724 -0.057874 0.447114
v -0.418986 -0.074615 0.453911
v -0.421768 -0.068651 0.452477
v -0.412896 -0.093441 0.453581
v -0.408095 -0.101643 0.450822
v -0.402920 -0.108714 0.447132
v -0.397246 -0.114609 0.441630
v -0.389119 -0.119463 0.436851
v -0.387129 -0.118904 0.437902
v -0.380644 -0.122797 0.431204
v -0.382568 -0.123120 0.429962
v -0.397081 -0.112028 0.440372
v -0.396139 -0.110675 0.440369
v -0.401642 -0.105101 0.445754
v -0.402460 -0.106269 0.446010
v -0.406608 -0.098498 0.449771
v -0.407612 -0.099747 0.449717
v -0.411209 -0.090906 0.452316
v -0.412348 -0.092049 0.452365
v -0.415369 -0.082480 0.453765
v -0.424487 -0.053059 0.444280
v -0.423811 -0.057329 0.447412
v -0.422133 -0.062512 0.450224
v -0.422871 -0.063088 0.449963
v -0.423809 -0.063489 0.450023
v -0.420772 -0.068221 0.452572
v -0.418058 -0.074202 0.454060
v -0.419954 -0.067668 0.452879
v -0.419170 -0.067022 0.453484
v -0.421405 -0.061719 0.450999
v -0.420836 -0.060783 0.452329
v -0.422930 -0.056552 0.448256
v -0.423511 -0.052437 0.445123
v -0.423304 -0.049240 0.446943
v -0.424087 -0.048766 0.447745
v -0.423554 -0.050653 0.449906
v -0.422462 -0.051105 0.448592
v -0.421608 -0.054715 0.451580
v -0.420034 -0.059508 0.454736
v -0.422321 -0.055721 0.449598
v -0.422747 -0.051674 0.446481
v -0.422809 -0.049417 0.445393
v -0.422925 -0.049603 0.443823
v -0.423087 -0.049799 0.441900
v -0.424572 -0.049975 0.440563
v -0.424038 -0.048752 0.442335
v -0.425524 -0.048559 0.441317
v -0.423389 -0.048816 0.445514
v -0.423358 -0.048630 0.444040
v -0.424796 -0.048515 0.445055
v -0.424077 -0.048624 0.446333
v -0.426187 -0.048420 0.443592
v -0.430163 -0.048841 0.444864
v -0.429504 -0.048688 0.443584
v -0.427597 -0.049843 0.440802
v -0.428020 -0.048287 0.441995
v -0.428891 -0.048377 0.445642
v -0.430479 -0.049056 0.447865
v -0.427143 -0.047840 0.446886
v -0.425125 -0.048119 0.446990
v -0.426562 -0.047482 0.448074
v -0.425948 -0.047870 0.448489
v -0.429370 -0.048117 0.449167
v -0.429982 -0.048797 0.450018
v -0.431113 -0.049818 0.448262
v -0.427368 -0.050821 0.450228
v -0.426009 -0.054337 0.453391
v -0.425133 -0.050460 0.450341
v -0.325457 -0.094159 0.354881
v -0.326958 -0.093892 0.355027
v -0.327295 -0.093313 0.355720
v -0.331649 -0.103958 0.357606
v -0.332633 -0.103045 0.358071
v -0.330233 -0.099932 0.356231
v -0.329214 -0.100608 0.355710
v -0.335843 -0.107954 0.361606
v -0.327064 -0.101359 0.355635
v -0.328018 -0.097942 0.354695
v -0.325769 -0.098829 0.354327
v -0.329061 -0.097302 0.355511
v -0.327225 -0.094758 0.354247
v -0.327486 -0.096036 0.354293
v -0.328336 -0.095527 0.355110
v -0.327829 -0.094225 0.355051
v -0.327521 -0.092630 0.356469
v -0.327543 -0.093672 0.355297
v -0.327773 -0.092798 0.356477
v -0.328255 -0.093322 0.356642
v -0.328752 -0.094757 0.356799
v -0.328090 -0.095923 0.358944
v -0.327814 -0.094156 0.358969
v -0.327219 -0.092297 0.358643
v -0.326856 -0.091503 0.358102
v -0.324325 -0.091487 0.360285
v -0.329210 -0.096634 0.356972
v -0.330284 -0.098997 0.357566
v -0.329051 -0.097971 0.359365
v -0.332535 -0.101914 0.359361
v -0.325094 -0.096912 0.353623
v -0.324824 -0.095587 0.353510
v -0.320821 -0.096054 0.353811
v -0.321804 -0.097479 0.354112
v -0.318688 -0.095258 0.355259
v -0.319728 -0.097165 0.355602
v -0.316961 -0.092403 0.357062
v -0.318304 -0.093916 0.355325
v -0.317996 -0.095620 0.357697
v -0.316764 -0.093876 0.357310
v -0.317277 -0.091315 0.358404
v -0.320924 -0.094058 0.354999
v -0.324929 -0.094729 0.353907
v -0.327082 -0.094182 0.354664
v -0.320405 -0.094863 0.354081
v -0.328019 -0.108127 0.364589
v -0.323909 -0.103844 0.359966
v -0.324148 -0.101621 0.356370
v -0.322828 -0.099451 0.354988
v -0.321684 -0.100947 0.357711
v -0.319691 -0.098498 0.360129
v -0.320185 -0.099505 0.359242
v -0.319014 -0.097467 0.358301
v -0.320553 -0.098942 0.356474
f 1 2 3
f 1 3 4
f 4 5 6
f 4 6 7
f 6 5 8
f 6 8 9
f 9 10 11
f 9 11 6
f 9 12 13
f 9 13 10
f 13 12 14
f 13 14 15
f 16 10 13
f 16 13 17
f 17 18 19
f 17 19 16
f 18 17 20
f 18 20 21
f 19 18 22
f 19 22 23
f 24 25 16
f 24 16 19
f 26 27 28
f 26 28 29
f 30 31 32
f 30 32 33
f 34 33 32
f 34 32 35
f 29 28 30
f 29 30 33
f 34 36 29
f 34 29 33
f 37 38 39
f 37 39 40
f 41 40 39
f 41 39 42
f 43 44 45
f 43 45 46
f 46 45 47
f 46 47 48
f 46 48 49
f 46 49 50
f 51 50 42
f 51 42 39
f 38 35 51
f 38 51 39
f 35 32 43
f 35 43 51
f 51 43 46
f 51 46 50
f 49 52 42
f 49 42 50
f 41 42 52
f 41 52 53
f 54 41 53
f 54 53 55
f 55 53 56
f 55 56 57
f 54 55 58
f 54 58 59
f 58 55 57
f 58 57 60
f 61 62 63
f 61 63 64
f 65 63 62
f 65 62 66
f 67 68 64
f 67 64 63
f 69 67 63
f 69 63 65
f 69 65 70
f 69 70 71
f 72 69 71
f 72 71 73
f 72 74 67
f 72 67 69
f 75 68 67
f 75 67 74
f 76 77 78
f 76 78 79
f 77 80 81
f 77 81 78
f 78 81 82
f 78 82 83
f 84 79 78
f 84 78 83
f 85 76 79
f 85 79 86
f 76 85 87
f 76 87 88
f 89 90 91
f 89 91 87
f 87 91 92
f 87 92 88
f 93 89 87
f 93 87 85
f 86 94 95
f 86 95 96
f 96 95 60
f 96 60 57
f 93 96 57
f 93 57 56
f 52 97 56
f 52 56 53
f 49 98 97
f 49 97 52
f 98 90 89
f 98 89 97
f 97 89 93
f 97 93 56
f 93 85 86
f 93 86 96
f 94 86 79
f 94 79 84
f 99 68 75
f 99 75 100
f 101 102 103
f 101 103 104
f 105 104 103
f 105 103 106
f 107 108 104
f 107 104 105
f 108 109 101
f 108 101 104
f 108 107 110
f 108 110 111
f 61 64 111
f 61 111 110
f 99 111 64
f 99 64 68
f 111 99 109
f 111 109 108
f 112 113 83
f 112 83 82
f 112 102 101
f 112 101 113
f 113 114 84
f 113 84 83
f 109 114 113
f 109 113 101
f 114 109 99
f 114 99 100
f 114 100 94
f 114 94 84
f 94 100 75
f 94 75 95
f 75 74 60
f 75 60 95
f 58 60 74
f 58 74 72
f 58 72 73
f 58 73 59
f 59 73 115
f 59 115 116
f 116 117 54
f 116 54 59
f 54 117 40
f 54 40 41
f 117 118 37
f 117 37 40
f 119 37 118
f 119 118 120
f 121 122 123
f 121 123 124
f 125 126 127
f 125 127 128
f 129 130 131
f 129 131 128
f 129 128 127
f 129 127 132
f 129 132 124
f 129 124 123
f 130 129 123
f 130 123 133
f 134 135 130
f 134 130 133
f 24 19 23
f 24 23 136
f 137 23 22
f 137 22 138
f 139 140 138
f 139 138 22
f 22 18 21
f 22 21 139
f 20 15 102
f 20 102 112
f 102 15 14
f 102 14 103
f 20 17 13
f 20 13 15
f 20 112 82
f 20 82 21
f 10 16 25
f 10 25 11
f 141 11 25
f 141 25 142
f 143 144 7
f 143 7 141
f 145 143 141
f 145 141 142
f 143 146 147
f 143 147 144
f 146 143 145
f 146 145 148
f 141 7 6
f 141 6 11
f 7 144 1
f 7 1 4
f 14 12 149
f 14 149 150
f 151 152 150
f 151 150 149
f 151 153 154
f 151 154 152
f 155 156 154
f 155 154 153
f 155 157 158
f 155 158 159
f 160 161 158
f 160 158 157
f 162 160 157
f 162 157 163
f 153 163 157
f 153 157 155
f 164 159 165
f 164 165 166
f 167 165 159
f 167 159 158
f 156 155 159
f 156 159 164
f 168 154 156
f 168 156 169
f 170 171 168
f 170 168 172
f 168 169 173
f 168 173 172
f 168 171 152
f 168 152 154
f 151 174 163
f 151 163 153
f 174 151 149
f 174 149 8
f 5 175 174
f 5 174 8
f 9 8 149
f 9 149 12
f 163 174 175
f 163 175 162
f 14 150 106
f 14 106 103
f 150 152 171
f 150 171 106
f 3 175 5
f 3 5 4
f 176 177 178
f 176 178 179
f 177 180 181
f 177 181 178
f 178 181 126
f 178 126 125
f 182 183 126
f 182 126 181
f 182 181 180
f 182 180 184
f 177 185 186
f 177 186 180
f 185 148 187
f 185 187 186
f 188 146 148
f 188 148 185
f 185 177 176
f 185 176 188
f 189 190 191
f 189 191 192
f 193 194 195
f 193 195 196
f 197 198 195
f 197 195 194
f 197 199 24
f 197 24 136
f 194 200 199
f 194 199 197
f 145 142 199
f 145 199 200
f 187 148 145
f 187 145 200
f 187 200 194
f 187 194 193
f 24 199 142
f 24 142 25
f 198 197 136
f 198 136 201
f 198 201 202
f 198 202 203
f 204 203 202
f 204 202 161
f 158 161 202
f 158 202 167
f 202 201 137
f 202 137 167
f 201 136 23
f 201 23 137
f 204 205 191
f 204 191 190
f 205 160 162
f 205 162 206
f 160 205 204
f 160 204 161
f 206 162 175
f 206 175 3
f 207 208 30
f 207 30 28
f 208 207 209
f 208 209 210
f 43 32 31
f 43 31 44
f 211 45 44
f 211 44 212
f 213 98 49
f 213 49 48
f 214 90 98
f 214 98 213
f 214 215 91
f 214 91 90
f 92 91 215
f 92 215 216
f 217 92 216
f 217 216 173
f 92 217 218
f 92 218 88
f 76 88 218
f 76 218 77
f 80 77 218
f 80 218 219
f 217 220 219
f 217 219 218
f 164 166 219
f 164 219 220
f 156 164 220
f 156 220 169
f 169 220 217
f 169 217 173
f 80 219 166
f 80 166 140
f 221 172 173
f 221 173 216
f 221 222 170
f 221 170 172
f 170 222 107
f 170 107 105
f 107 222 223
f 107 223 110
f 222 221 224
f 222 224 223
f 224 221 216
f 224 216 215
f 225 223 224
f 225 224 226
f 227 62 61
f 227 61 225
f 226 228 227
f 226 227 225
f 66 62 227
f 66 227 229
f 47 229 227
f 47 227 228
f 225 61 110
f 225 110 223
f 214 226 224
f 214 224 215
f 213 228 226
f 213 226 214
f 47 228 213
f 47 213 48
f 211 229 47
f 211 47 45
f 171 170 105
f 171 105 106
f 167 137 138
f 167 138 165
f 140 166 165
f 140 165 138
f 139 81 80
f 139 80 140
f 82 81 139
f 82 139 21
f 209 230 231
f 209 231 210
f 210 231 232
f 210 232 233
f 234 208 210
f 234 210 233
f 234 212 44
f 234 44 31
f 208 234 31
f 208 31 30
f 234 233 235
f 234 235 212
f 236 70 65
f 236 65 66
f 229 211 236
f 229 236 66
f 236 211 212
f 236 212 235
f 70 236 235
f 70 235 237
f 115 73 71
f 115 71 238
f 238 71 70
f 238 70 237
f 115 238 239
f 115 239 240
f 239 238 237
f 239 237 232
f 237 235 233
f 237 233 232
f 231 241 239
f 231 239 232
f 231 230 242
f 231 242 241
f 243 244 245
f 243 245 246
f 247 246 245
f 247 245 120
f 247 120 118
f 247 118 248
f 118 117 116
f 118 116 248
f 115 240 248
f 115 248 116
f 249 240 239
f 249 239 241
f 249 241 242
f 249 242 250
f 249 247 248
f 249 248 240
f 246 247 249
f 246 249 250
f 243 246 250
f 243 250 251
f 250 242 252
f 250 252 251
f 253 252 242
f 253 242 230
f 254 253 230
f 254 230 209
f 255 253 254
f 255 254 256
f 257 258 259
f 257 259 260
f 259 258 255
f 259 255 261
f 262 263 27
f 262 27 26
f 256 254 264
f 256 264 265
f 264 254 209
f 264 209 207
f 27 264 207
f 27 207 28
f 265 264 27
f 265 27 263
f 261 265 263
f 261 263 266
f 266 263 262
f 266 262 267
f 259 268 269
f 259 269 260
f 243 260 269
f 243 269 244
f 244 269 270
f 244 270 271
f 270 272 273
f 270 273 271
f 267 262 26
f 267 26 274
f 274 26 29
f 274 29 36
f 36 275 273
f 36 273 274
f 38 276 34
f 38 34 35
f 119 276 38
f 119 38 37
f 276 275 36
f 276 36 34
f 244 271 277
f 244 277 245
f 120 245 277
f 120 277 119
f 277 275 276
f 277 276 119
f 273 275 277
f 273 277 271
f 273 272 267
f 273 267 274
f 267 272 268
f 267 268 266
f 268 272 270
f 268 270 269
f 268 259 261
f 268 261 266
f 261 255 256
f 261 256 265
f 255 258 252
f 255 252 253
f 257 251 252
f 257 252 258
f 251 257 260
f 251 260 243
f 278 279 280
f 278 280 134
f 281 282 283
f 281 283 284
f 191 205 206
f 191 206 285
f 285 206 3
f 285 3 2
f 281 192 191
f 281 191 285
f 282 281 285
f 282 285 2
f 286 192 281
f 286 281 284
f 287 288 286
f 287 286 284
f 289 287 284
f 289 284 283
f 290 291 292
f 290 292 293
f 294 280 295
f 294 295 296
f 295 293 297
f 295 297 296
f 293 292 298
f 293 298 297
f 299 176 179
f 299 179 300
f 301 297 298
f 301 298 300
f 130 135 302
f 130 302 131
f 294 296 302
f 294 302 135
f 302 296 297
f 302 297 301
f 178 125 303
f 178 303 179
f 131 303 125
f 131 125 128
f 301 303 131
f 301 131 302
f 301 300 179
f 301 179 303
f 304 289 283
f 304 283 305
f 306 147 146
f 306 146 188
f 306 188 176
f 306 176 299
f 305 283 282
f 305 282 307
f 282 2 1
f 282 1 307
f 307 1 144
f 307 144 147
f 307 147 306
f 307 306 305
f 304 305 306
f 304 306 299
f 304 299 300
f 304 300 298
f 298 292 289
f 298 289 304
f 289 292 291
f 289 291 287
f 291 308 288
f 291 288 287
f 308 309 310
f 308 310 311
f 311 310 312
f 311 312 313
f 121 314 315
f 121 315 122
f 182 316 317
f 182 317 183
f 318 314 121
f 318 121 124
f 124 132 127
f 124 127 318
f 318 127 126
f 318 126 183
f 314 318 183
f 314 183 317
f 315 314 317
f 315 317 312
f 134 133 319
f 134 319 278
f 133 123 122
f 133 122 319
f 278 320 321
f 278 321 279
f 320 322 310
f 320 310 309
f 321 320 309
f 321 309 290
f 320 278 319
f 320 319 322
f 315 322 319
f 315 319 122
f 315 312 310
f 315 310 322
f 312 317 316
f 312 316 313
f 323 195 198
f 323 198 203
f 203 204 190
f 203 190 323
f 196 195 323
f 196 323 324
f 189 324 323
f 189 323 190
f 189 192 286
f 189 286 325
f 325 286 288
f 325 288 326
f 325 327 324
f 325 324 189
f 328 184 180
f 328 180 186
f 328 186 187
f 328 187 193
f 329 328 193
f 329 193 196
f 316 182 184
f 316 184 330
f 327 331 330
f 327 330 329
f 330 184 328
f 330 328 329
f 327 329 196
f 327 196 324
f 331 327 325
f 331 325 326
f 331 313 316
f 331 316 330
f 311 313 331
f 311 331 326
f 280 294 135
f 280 135 134
f 321 295 280
f 321 280 279
f 321 290 293
f 321 293 295
f 308 291 290
f 308 290 309
f 308 311 326
f 308 326 288
