# Rib_3R rest
v -0.046777 0.027850 0.126842
v -0.046651 0.026728 0.126392
v -0.055875 0.028363 0.123945
v -0.055961 0.029200 0.124118
v -0.047691 0.028394 0.128339
v -0.056691 0.029959 0.125282
v -0.041008 0.027121 0.128467
v -0.041891 0.027488 0.130274
v -0.049428 0.026310 0.130348
v -0.043359 0.025517 0.132211
v -0.050987 0.022710 0.131442
v -0.044549 0.022155 0.133367
v -0.045381 0.019020 0.134173
v -0.051986 0.019527 0.132098
v -0.039843 0.021983 0.134796
v -0.040500 0.018649 0.135713
v -0.038807 0.018601 0.135026
v -0.038320 0.021784 0.134385
v -0.038927 0.025175 0.133463
v -0.037622 0.024563 0.133120
v -0.052271 0.017388 0.131849
v -0.045695 0.016657 0.134078
v -0.059941 0.024122 0.127861
v -0.061039 0.020926 0.128486
v -0.061388 0.019004 0.128388
v -0.040974 0.015992 0.135637
v -0.051941 0.016204 0.131145
v -0.045306 0.015341 0.133029
v -0.040688 0.014679 0.134173
v -0.058447 0.027804 0.127046
v -0.066781 0.031959 0.121088
v -0.068633 0.029813 0.122564
v -0.075308 0.034669 0.114405
v -0.077500 0.032299 0.115527
v -0.079276 0.028650 0.115643
v -0.070158 0.026024 0.122968
v -0.066123 0.031246 0.120083
v -0.038168 0.026722 0.131429
v -0.037394 0.025886 0.131709
v -0.037751 0.023984 0.131764
v -0.037391 0.025643 0.130668
v -0.037887 0.026433 0.129797
v -0.037238 0.025097 0.129929
v -0.037481 0.023568 0.130297
v -0.037707 0.025446 0.128911
v -0.066147 0.030598 0.119908
v -0.066892 0.028786 0.119929
v -0.075065 0.031725 0.112827
v -0.074371 0.033392 0.112964
v -0.057765 0.023580 0.124663
v -0.067949 0.025777 0.119834
v -0.056560 0.026474 0.124154
v -0.058936 0.020493 0.125143
v -0.069025 0.022601 0.119803
v -0.076365 0.028783 0.112659
v -0.081301 0.035457 0.103193
v -0.080669 0.037123 0.103548
v -0.083006 0.032456 0.103029
v -0.089026 0.036803 0.091857
v -0.086485 0.039571 0.092246
v -0.085398 0.041194 0.092740
v -0.080699 0.037690 0.103962
v -0.074340 0.034047 0.113265
v -0.077679 0.025729 0.112453
v -0.060117 0.018171 0.126202
v -0.070311 0.020637 0.120749
v -0.080610 0.023802 0.114527
v -0.079309 0.023773 0.113187
v -0.071348 0.020621 0.122221
v -0.061200 0.017934 0.127823
v -0.049755 0.018946 0.128324
v -0.050907 0.016775 0.129582
v -0.048501 0.021746 0.127270
v -0.047281 0.024589 0.126487
v -0.041360 0.023684 0.127605
v -0.042367 0.020960 0.128566
v -0.040863 0.025864 0.127649
v -0.037809 0.023468 0.128572
v -0.037857 0.021017 0.130988
v -0.038327 0.020686 0.129099
v -0.039990 0.015218 0.131972
v -0.039267 0.016358 0.132834
v -0.039370 0.016200 0.133981
v -0.038697 0.018457 0.133460
v -0.039363 0.016530 0.135060
v -0.038609 0.018233 0.131902
v -0.039123 0.017729 0.130293
v -0.044385 0.016058 0.131273
v -0.043355 0.018206 0.129796
v -0.038118 0.021396 0.132746
v -0.011876 0.072338 0.009859
v -0.012470 0.070910 0.010934
v -0.012351 0.070926 0.009246
v -0.011909 0.071605 0.008130
v -0.011206 0.073783 0.008618
v -0.011619 0.074181 0.011025
v -0.012025 0.072968 0.012211
v -0.012322 0.071664 0.013496
v -0.012033 0.073858 0.015019
v -0.012189 0.072602 0.015524
v -0.013105 0.069769 0.009055
v -0.013587 0.068903 0.011384
v -0.012592 0.070621 0.007174
v -0.011850 0.072008 0.005699
v -0.011341 0.072712 0.007120
v -0.014718 0.072345 0.004921
v -0.014973 0.074342 0.005063
v -0.011299 0.074296 0.005061
v -0.014866 0.070256 0.006159
v -0.015531 0.069648 0.008401
v -0.021513 0.070772 0.005176
v -0.020699 0.071124 0.003115
v -0.020559 0.073350 0.002224
v -0.020850 0.075051 0.002279
v -0.015233 0.075922 0.005934
v -0.021315 0.076374 0.002965
v -0.015782 0.076883 0.007579
v -0.021928 0.077319 0.004112
v -0.010790 0.077632 0.009470
v -0.010322 0.076732 0.006045
v -0.027944 0.074301 -0.003026
v -0.027651 0.075856 -0.004029
v -0.027703 0.077550 -0.003920
v -0.010644 0.074279 0.006363
v -0.010146 0.075620 0.007452
v -0.010713 0.075802 0.009999
v -0.011808 0.077563 0.012367
v -0.011283 0.075857 0.012269
v -0.011700 0.075000 0.013742
v -0.016071 0.070055 0.010827
v -0.013511 0.070368 0.014573
v -0.016528 0.071391 0.012839
v -0.013244 0.072369 0.016555
v -0.013080 0.074893 0.016754
v -0.012478 0.076712 0.015270
v -0.017073 0.076790 0.011439
v -0.017389 0.075170 0.013055
v -0.017191 0.073185 0.013509
v -0.023073 0.074463 0.007788
v -0.022756 0.073256 0.007648
v -0.022255 0.071813 0.006731
v -0.041366 0.072821 -0.004512
v -0.034986 0.072488 -0.003087
v -0.035665 0.072359 -0.000664
v -0.041604 0.072460 -0.002231
v -0.071629 0.065415 -0.001100
v -0.072504 0.065480 -0.002669
v -0.062112 0.069422 -0.006618
v -0.061535 0.068706 -0.005438
v -0.060387 0.069844 0.000455
v -0.060911 0.069025 -0.002517
v -0.050818 0.071437 -0.003652
v -0.050731 0.072215 -0.001110
v -0.041311 0.074072 -0.006079
v -0.051010 0.071494 -0.006177
v -0.051238 0.072492 -0.007728
v -0.060341 0.072104 0.003004
v -0.060881 0.073160 0.002535
v -0.069585 0.070287 0.007462
v -0.068937 0.068936 0.007386
v -0.076596 0.065715 0.013414
v -0.076853 0.067158 0.014217
v -0.086565 0.060379 0.030694
v -0.086640 0.059649 0.030026
v -0.082837 0.062202 0.020926
v -0.082485 0.062896 0.021781
v -0.101556 0.045447 0.065471
v -0.101146 0.049410 0.053803
v -0.102140 0.047544 0.052107
v -0.102619 0.043424 0.063962
v -0.099277 0.051539 0.055836
v -0.097907 0.054505 0.045933
v -0.099575 0.052564 0.043643
v -0.095738 0.057154 0.036041
v -0.097378 0.055292 0.033677
v -0.098138 0.053733 0.031915
v -0.093512 0.058415 0.024609
v -0.094154 0.057042 0.023007
v -0.087928 0.061586 0.015814
v -0.081007 0.064925 0.007565
v -0.081490 0.063808 0.005732
v -0.088484 0.060395 0.014168
v -0.086703 0.063024 0.018128
v -0.079926 0.066204 0.010018
v -0.092016 0.060101 0.026879
v -0.085038 0.064008 0.020368
v -0.090042 0.061204 0.029025
v -0.078469 0.067232 0.012516
v -0.083279 0.064095 0.021958
v -0.087904 0.061392 0.030580
v -0.096638 0.053533 0.057929
v -0.093318 0.054228 0.058942
v -0.092679 0.056808 0.049949
v -0.095579 0.056209 0.048353
v -0.090765 0.059079 0.040125
v -0.093483 0.058651 0.038416
v -0.099439 0.047749 0.067163
v -0.096613 0.049936 0.068950
v -0.102253 0.046139 0.050830
v -0.102122 0.042176 0.062582
v -0.100462 0.038164 0.078698
v -0.099521 0.039838 0.079869
v -0.093486 0.041458 0.078323
v -0.090376 0.043916 0.079246
v -0.096267 0.039242 0.077452
v -0.097767 0.044072 0.063196
v -0.094690 0.046248 0.064670
v -0.097638 0.047295 0.052046
v -0.094274 0.049560 0.054265
v -0.079384 0.061917 0.006454
v -0.080900 0.061717 0.004566
v -0.081600 0.062614 0.004477
v -0.088652 0.059207 0.012974
v -0.072709 0.066459 -0.002208
v -0.062243 0.070532 -0.006124
v -0.072720 0.067349 -0.001308
v -0.062304 0.071473 -0.005337
v -0.087642 0.058438 0.013180
v -0.085810 0.058820 0.015029
v -0.076837 0.065285 0.012753
v -0.069124 0.067973 0.006292
v -0.083374 0.061602 0.019686
v -0.077196 0.064753 0.011686
v -0.069444 0.067326 0.005025
v -0.070423 0.066168 0.002043
v -0.078020 0.063164 0.009211
v -0.084303 0.060098 0.017472
v -0.089119 0.057373 0.039543
v -0.089843 0.056214 0.038072
v -0.087456 0.058738 0.028597
v -0.091838 0.054685 0.035695
v -0.088830 0.057064 0.026351
v -0.090788 0.055537 0.023887
v -0.093175 0.054922 0.021849
v -0.100854 0.049536 0.040789
v -0.099371 0.048915 0.040694
v -0.100516 0.045952 0.050664
v -0.096365 0.050280 0.042633
v -0.100530 0.050846 0.041895
v -0.098342 0.052526 0.030810
v -0.094373 0.055900 0.021896
v -0.096914 0.051776 0.030898
v -0.094320 0.052907 0.033019
v -0.090817 0.049926 0.067685
v -0.091940 0.048399 0.066358
v -0.091793 0.051683 0.056403
v -0.091234 0.053259 0.057945
v -0.091629 0.053731 0.058578
v -0.091173 0.050582 0.068625
v -0.091040 0.056096 0.049939
v -0.091178 0.053996 0.047743
v -0.090648 0.055475 0.049364
v -0.089205 0.057990 0.040096
v -0.093406 0.052228 0.045288
v -0.088925 0.045630 0.080207
v -0.085397 0.041781 0.093334
v -0.084971 0.029504 0.102898
v -0.080447 0.025836 0.115488
v -0.080772 0.024508 0.115094
v -0.071414 0.021557 0.122781
v -0.071079 0.023118 0.123026
v -0.088216 0.027693 0.104550
v -0.086952 0.027640 0.103480
v -0.100134 0.042792 0.062467
v -0.098442 0.037741 0.077050
v -0.099943 0.037324 0.077531
v -0.094959 0.032274 0.092340
v -0.095136 0.032969 0.093104
v -0.091628 0.034094 0.091427
v -0.093687 0.032422 0.091531
v -0.088477 0.028298 0.105176
v -0.087128 0.042283 0.094794
v -0.082021 0.038234 0.105232
v -0.084475 0.035563 0.105881
v -0.090023 0.039936 0.095042
v -0.092426 0.036843 0.094397
v -0.086582 0.032113 0.105857
v -0.097441 0.042129 0.081023
v -0.094699 0.044764 0.082264
v -0.088028 0.029490 0.105595
v -0.094355 0.034356 0.093760
v -0.028439 0.078752 -0.002484
v -0.029500 0.079043 -0.000325
v -0.022588 0.077759 0.005480
v -0.016442 0.077189 0.009433
v -0.030460 0.078538 0.002192
v -0.023176 0.077216 0.006919
v -0.023272 0.075600 0.007587
v -0.030329 0.074279 0.003186
v -0.029938 0.072637 0.002137
v -0.029200 0.071836 0.000260
v -0.028454 0.072760 -0.001484
v -0.041167 0.075357 -0.007098
v -0.033648 0.074713 -0.007201
v -0.034418 0.073447 -0.005103
v -0.036083 0.074086 0.000906
v -0.030538 0.075350 0.003376
v -0.041697 0.079358 -0.002790
v -0.042051 0.078267 -0.000442
v -0.035762 0.079008 -0.000281
v -0.034785 0.079724 -0.003216
v -0.036266 0.076761 0.001149
v -0.030705 0.076320 0.003286
v -0.036249 0.075489 0.001242
v -0.042248 0.076314 0.000424
v -0.041991 0.073701 -0.000302
v -0.042212 0.075058 0.000374
v -0.050820 0.073371 0.000288
v -0.051265 0.075932 0.000090
v -0.051002 0.074572 0.000555
v -0.060153 0.070706 0.002198
v -0.033637 0.079715 -0.006017
v -0.032902 0.078596 -0.007978
v -0.032943 0.076583 -0.008586
v -0.041019 0.076672 -0.007183
v -0.040939 0.077690 -0.006533
v -0.051532 0.076133 -0.005742
v -0.051764 0.077030 -0.004069
v -0.041229 0.078849 -0.005333
v -0.062402 0.073517 -0.001630
v -0.062536 0.072451 -0.003976
v -0.070770 0.070464 0.005770
v -0.061684 0.073780 0.001004
v -0.071847 0.069733 0.003267
v -0.051622 0.077050 -0.001521
v -0.072615 0.068523 0.000542
v -0.051413 0.075199 -0.006802
v -0.051391 0.074024 -0.007650
v -0.091375 0.046585 0.082405
v -0.089194 0.046409 0.081217
v -0.093230 0.050972 0.069469
f 1 2 3
f 1 3 4
f 5 1 4
f 5 4 6
f 7 1 5
f 7 5 8
f 5 9 10
f 5 10 8
f 10 9 11
f 10 11 12
f 13 12 11
f 13 11 14
f 15 12 13
f 15 13 16
f 16 17 18
f 16 18 15
f 19 15 18
f 19 18 20
f 19 10 12
f 19 12 15
f 14 21 22
f 14 22 13
f 14 11 23
f 14 23 24
f 21 14 24
f 21 24 25
f 26 16 13
f 26 13 22
f 21 27 28
f 21 28 22
f 29 26 22
f 29 22 28
f 5 6 30
f 5 30 9
f 30 6 31
f 30 31 32
f 33 34 32
f 33 32 31
f 32 34 35
f 32 35 36
f 23 30 32
f 23 32 36
f 6 4 37
f 6 37 31
f 11 9 30
f 11 30 23
f 19 38 8
f 19 8 10
f 38 19 20
f 38 20 39
f 39 20 40
f 39 40 41
f 42 38 39
f 42 39 41
f 43 41 40
f 43 40 44
f 41 43 45
f 41 45 42
f 42 7 8
f 42 8 38
f 4 3 46
f 4 46 37
f 47 48 49
f 47 49 46
f 50 51 47
f 50 47 52
f 50 53 54
f 50 54 51
f 51 55 48
f 51 48 47
f 56 57 49
f 56 49 48
f 55 58 56
f 55 56 48
f 59 60 56
f 59 56 58
f 56 60 61
f 56 61 57
f 49 57 62
f 49 62 63
f 37 46 49
f 37 49 63
f 54 64 55
f 54 55 51
f 54 53 65
f 54 65 66
f 67 68 66
f 67 66 69
f 54 66 68
f 54 68 64
f 65 70 69
f 65 69 66
f 71 72 65
f 71 65 53
f 71 53 50
f 71 50 73
f 73 50 52
f 73 52 74
f 75 76 73
f 75 73 74
f 77 45 78
f 77 78 75
f 77 75 74
f 77 74 2
f 44 79 80
f 44 80 78
f 75 78 80
f 75 80 76
f 52 3 2
f 52 2 74
f 3 52 47
f 3 47 46
f 29 81 82
f 29 82 83
f 84 17 85
f 84 85 83
f 82 86 84
f 82 84 83
f 79 86 87
f 79 87 80
f 81 88 89
f 81 89 87
f 81 29 28
f 81 28 88
f 28 27 72
f 28 72 88
f 89 88 72
f 89 72 71
f 71 73 76
f 71 76 89
f 80 87 89
f 80 89 76
f 82 81 87
f 82 87 86
f 86 79 90
f 86 90 84
f 84 90 18
f 84 18 17
f 79 44 40
f 79 40 90
f 20 18 90
f 20 90 40
f 85 26 29
f 85 29 83
f 85 17 16
f 85 16 26
f 91 92 93
f 91 93 94
f 91 95 96
f 91 96 97
f 98 97 99
f 98 99 100
f 91 97 98
f 91 98 92
f 101 93 92
f 101 92 102
f 93 101 103
f 93 103 94
f 104 105 94
f 104 94 103
f 106 107 108
f 106 108 104
f 103 109 106
f 103 106 104
f 103 101 110
f 103 110 109
f 111 112 109
f 111 109 110
f 106 109 112
f 106 112 113
f 107 106 113
f 107 113 114
f 115 107 114
f 115 114 116
f 117 115 116
f 117 116 118
f 115 117 119
f 115 119 120
f 107 115 120
f 107 120 108
f 113 121 122
f 113 122 114
f 114 122 123
f 114 123 116
f 108 124 105
f 108 105 104
f 125 95 105
f 125 105 124
f 108 120 125
f 108 125 124
f 126 125 120
f 126 120 119
f 127 128 126
f 127 126 119
f 129 96 126
f 129 126 128
f 95 125 126
f 95 126 96
f 105 95 91
f 105 91 94
f 130 110 101
f 130 101 102
f 102 131 132
f 102 132 130
f 92 98 131
f 92 131 102
f 131 98 100
f 131 100 133
f 100 99 134
f 100 134 133
f 135 134 99
f 135 99 129
f 134 135 136
f 134 136 137
f 137 138 133
f 137 133 134
f 132 131 133
f 132 133 138
f 132 138 139
f 132 139 140
f 130 132 140
f 130 140 141
f 110 130 141
f 110 141 111
f 97 96 129
f 97 129 99
f 142 143 144
f 142 144 145
f 146 147 148
f 146 148 149
f 150 151 152
f 150 152 153
f 154 142 155
f 154 155 156
f 148 156 155
f 148 155 149
f 152 155 142
f 152 142 145
f 149 155 152
f 149 152 151
f 157 158 159
f 157 159 160
f 161 160 159
f 161 159 162
f 163 164 165
f 163 165 166
f 167 168 169
f 167 169 170
f 171 172 173
f 171 173 168
f 173 172 174
f 173 174 175
f 176 175 177
f 176 177 178
f 179 180 181
f 179 181 182
f 179 183 184
f 179 184 180
f 179 182 178
f 179 178 177
f 174 185 177
f 174 177 175
f 186 183 185
f 186 185 187
f 185 183 179
f 185 179 177
f 184 183 186
f 184 186 188
f 161 162 189
f 161 189 166
f 163 166 189
f 163 189 190
f 186 189 162
f 186 162 188
f 186 187 190
f 186 190 189
f 191 192 193
f 191 193 194
f 195 196 194
f 195 194 193
f 196 195 190
f 196 190 187
f 187 185 174
f 187 174 196
f 172 194 196
f 172 196 174
f 171 191 194
f 171 194 172
f 168 167 197
f 168 197 171
f 198 191 171
f 198 171 197
f 170 169 199
f 170 199 200
f 201 202 167
f 201 167 170
f 60 59 203
f 60 203 204
f 205 206 207
f 205 207 203
f 208 209 207
f 208 207 206
f 147 146 210
f 147 210 211
f 181 212 213
f 181 213 182
f 147 214 215
f 147 215 148
f 216 217 215
f 216 215 214
f 181 216 214
f 181 214 212
f 214 147 211
f 214 211 212
f 212 211 218
f 212 218 213
f 218 211 210
f 218 210 219
f 165 220 161
f 165 161 166
f 161 220 221
f 161 221 160
f 165 222 223
f 165 223 220
f 223 224 221
f 223 221 220
f 225 151 150
f 225 150 224
f 225 146 149
f 225 149 151
f 210 146 225
f 210 225 226
f 225 224 223
f 225 223 226
f 227 226 223
f 227 223 222
f 228 229 230
f 228 230 164
f 222 165 164
f 222 164 230
f 229 231 232
f 229 232 230
f 232 227 222
f 232 222 230
f 227 232 233
f 227 233 219
f 227 219 210
f 227 210 226
f 233 234 218
f 233 218 219
f 235 236 237
f 235 237 199
f 237 236 238
f 237 238 208
f 239 173 175
f 239 175 176
f 173 239 169
f 173 169 168
f 239 235 199
f 239 199 169
f 176 240 235
f 176 235 239
f 182 213 241
f 182 241 178
f 240 176 178
f 240 178 241
f 241 213 218
f 241 218 234
f 241 234 242
f 241 242 240
f 242 236 235
f 242 235 240
f 243 238 236
f 243 236 242
f 243 242 234
f 243 234 233
f 233 232 231
f 233 231 243
f 244 245 246
f 244 246 247
f 244 247 248
f 244 248 249
f 192 248 250
f 192 250 193
f 251 229 228
f 251 228 252
f 250 253 195
f 250 195 193
f 195 253 163
f 195 163 190
f 163 253 228
f 163 228 164
f 253 250 252
f 253 252 228
f 247 252 250
f 247 250 248
f 247 246 251
f 247 251 252
f 246 209 254
f 246 254 251
f 254 231 229
f 254 229 251
f 254 238 243
f 254 243 231
f 209 208 238
f 209 238 254
f 209 246 245
f 209 245 207
f 255 204 245
f 255 245 244
f 203 207 245
f 203 245 204
f 61 60 204
f 61 204 255
f 61 256 62
f 61 62 57
f 33 31 37
f 33 37 63
f 64 257 58
f 64 58 55
f 258 259 260
f 258 260 261
f 69 260 259
f 69 259 67
f 67 262 263
f 67 263 68
f 68 263 257
f 68 257 64
f 200 199 237
f 200 237 264
f 265 264 206
f 265 206 205
f 264 237 208
f 264 208 206
f 201 170 200
f 201 200 266
f 266 267 268
f 266 268 201
f 266 200 264
f 266 264 265
f 59 58 257
f 59 257 269
f 59 269 205
f 59 205 203
f 269 270 265
f 269 265 205
f 265 270 267
f 265 267 266
f 270 269 257
f 270 257 263
f 263 262 267
f 263 267 270
f 268 267 262
f 268 262 271
f 271 262 67
f 271 67 259
f 256 272 273
f 256 273 62
f 33 63 62
f 33 62 273
f 274 275 276
f 274 276 277
f 278 197 167
f 278 167 202
f 278 279 198
f 278 198 197
f 280 281 268
f 280 268 271
f 281 202 201
f 281 201 268
f 281 280 277
f 281 277 276
f 281 276 278
f 281 278 202
f 279 278 276
f 279 276 275
f 45 43 44
f 45 44 78
f 7 42 45
f 7 45 77
f 7 77 2
f 7 2 1
f 282 283 284
f 282 284 118
f 135 127 285
f 135 285 136
f 127 119 117
f 127 117 285
f 283 286 287
f 283 287 284
f 138 137 288
f 138 288 139
f 141 140 289
f 141 289 290
f 291 111 141
f 291 141 290
f 113 112 292
f 113 292 121
f 293 294 295
f 293 295 154
f 142 154 295
f 142 295 143
f 295 294 121
f 295 121 292
f 295 292 291
f 295 291 143
f 111 291 292
f 111 292 112
f 144 143 291
f 144 291 290
f 296 144 290
f 296 290 289
f 297 289 140
f 297 140 139
f 298 299 300
f 298 300 301
f 300 286 283
f 300 283 301
f 302 303 286
f 302 286 300
f 302 304 297
f 302 297 303
f 302 300 299
f 302 299 305
f 152 145 306
f 152 306 153
f 145 144 296
f 145 296 306
f 153 306 307
f 153 307 308
f 309 158 157
f 309 157 310
f 309 310 305
f 309 305 299
f 150 153 308
f 150 308 311
f 221 224 150
f 221 150 311
f 160 221 311
f 160 311 157
f 308 310 157
f 308 157 311
f 307 305 310
f 307 310 308
f 307 304 302
f 307 302 305
f 307 306 296
f 307 296 304
f 304 296 289
f 304 289 297
f 288 303 297
f 288 297 139
f 303 288 287
f 303 287 286
f 137 136 287
f 137 287 288
f 136 285 284
f 136 284 287
f 284 285 117
f 284 117 118
f 312 301 283
f 312 283 282
f 312 282 123
f 312 123 313
f 313 123 122
f 313 122 314
f 314 122 121
f 314 121 294
f 293 315 314
f 293 314 294
f 313 314 315
f 313 315 316
f 317 318 319
f 317 319 316
f 320 318 317
f 320 317 321
f 322 323 320
f 322 320 324
f 162 159 322
f 162 322 188
f 322 159 158
f 322 158 323
f 184 188 322
f 184 322 324
f 325 318 320
f 325 320 323
f 325 323 158
f 325 158 309
f 325 309 299
f 325 299 298
f 318 325 298
f 318 298 319
f 320 321 326
f 320 326 324
f 216 326 321
f 216 321 217
f 216 181 180
f 216 180 326
f 184 324 326
f 184 326 180
f 317 316 315
f 317 315 327
f 315 293 328
f 315 328 327
f 327 328 215
f 327 215 217
f 328 293 154
f 328 154 156
f 215 328 156
f 215 156 148
f 317 327 217
f 317 217 321
f 319 312 313
f 319 313 316
f 298 301 312
f 298 312 319
f 123 282 118
f 123 118 116
f 128 127 135
f 128 135 129
f 27 21 25
f 27 25 70
f 70 65 72
f 70 72 27
f 260 69 70
f 260 70 25
f 261 260 25
f 261 25 24
f 23 36 261
f 23 261 24
f 35 258 261
f 35 261 36
f 280 271 259
f 280 259 258
f 35 277 280
f 35 280 258
f 35 34 274
f 35 274 277
f 274 34 33
f 274 33 273
f 274 273 272
f 274 272 275
f 329 279 275
f 329 275 272
f 330 249 331
f 330 331 329
f 256 330 329
f 256 329 272
f 61 255 330
f 61 330 256
f 330 255 244
f 330 244 249
f 249 248 192
f 249 192 331
f 198 331 192
f 198 192 191
f 331 198 279
f 331 279 329
