# Rib_11R rest
v -0.092485 -0.160685 -0.002453
v -0.095465 -0.156163 -0.007384
v -0.096529 -0.156088 -0.006689
v -0.093507 -0.160625 -0.001617
v -0.094458 -0.157298 -0.008445
v -0.096007 -0.152541 -0.013496
v -0.097076 -0.151582 -0.012583
v -0.096990 -0.146181 -0.019885
v -0.098256 -0.145358 -0.018989
v -0.095579 -0.154558 -0.014677
v -0.096525 -0.148183 -0.021215
v -0.096588 -0.141874 -0.026971
v -0.097078 -0.140021 -0.025443
v -0.096328 -0.135952 -0.032665
v -0.096790 -0.134459 -0.031171
v -0.096891 -0.150346 -0.022358
v -0.097143 -0.143859 -0.028406
v -0.097677 -0.151799 -0.022957
v -0.097983 -0.145014 -0.029140
v -0.097544 -0.138829 -0.035297
v -0.096720 -0.137623 -0.034210
v -0.098943 -0.152746 -0.023372
v -0.099189 -0.145775 -0.029738
v -0.096564 -0.158467 -0.016112
v -0.095818 -0.156737 -0.015609
v -0.014713 -0.071657 -0.024625
v -0.017464 -0.072443 -0.027697
v -0.018231 -0.072790 -0.026174
v -0.015133 -0.071590 -0.022683
v -0.022420 -0.074223 -0.030376
v -0.021412 -0.073868 -0.031415
v -0.027494 -0.075876 -0.036074
v -0.028377 -0.076229 -0.035180
v -0.019757 -0.074864 -0.034090
v -0.025772 -0.076583 -0.038162
v -0.016281 -0.073499 -0.030254
v -0.023342 -0.078927 -0.042129
v -0.031560 -0.080978 -0.043824
v -0.032117 -0.079866 -0.043074
v -0.023896 -0.077903 -0.041124
v -0.039801 -0.084049 -0.047443
v -0.040405 -0.083074 -0.046948
v -0.034313 -0.078134 -0.040491
v -0.042290 -0.081347 -0.044404
v -0.042461 -0.081700 -0.043401
v -0.034860 -0.078521 -0.039565
v -0.052411 -0.085497 -0.047663
v -0.051978 -0.085791 -0.046390
v -0.041379 -0.082028 -0.045916
v -0.051650 -0.086281 -0.049412
v -0.033177 -0.078789 -0.041880
v -0.050403 -0.087318 -0.050274
v -0.049420 -0.088206 -0.050540
v -0.039501 -0.084837 -0.047451
v -0.048707 -0.088981 -0.050526
v -0.058917 -0.095230 -0.053230
v -0.060037 -0.094581 -0.053291
v -0.039464 -0.085256 -0.046821
v -0.048173 -0.089484 -0.049993
v -0.057920 -0.095462 -0.052296
v -0.069757 -0.099072 -0.049020
v -0.068710 -0.099792 -0.049369
v -0.059287 -0.093314 -0.048500
v -0.060269 -0.092592 -0.048138
v -0.049797 -0.087801 -0.046549
v -0.050593 -0.087101 -0.046164
v -0.058399 -0.094133 -0.049361
v -0.067889 -0.100667 -0.050272
v -0.048938 -0.088571 -0.047348
v -0.040468 -0.084425 -0.044400
v -0.041181 -0.083720 -0.043630
v -0.048247 -0.089269 -0.048634
v -0.039814 -0.085036 -0.045600
v -0.057800 -0.094927 -0.050673
v -0.067433 -0.101538 -0.051573
v -0.088221 -0.118257 -0.052317
v -0.086481 -0.118221 -0.051455
v -0.092974 -0.126025 -0.047591
v -0.094920 -0.126201 -0.048541
v -0.097322 -0.133025 -0.042257
v -0.099140 -0.133185 -0.042976
v -0.091687 -0.125302 -0.046381
v -0.096044 -0.132278 -0.041212
v -0.085264 -0.117564 -0.050174
v -0.080032 -0.109946 -0.054252
v -0.078472 -0.110089 -0.053577
v -0.089540 -0.117374 -0.051929
v -0.081399 -0.109145 -0.053986
v -0.071686 -0.101273 -0.054365
v -0.082635 -0.107885 -0.053162
v -0.072904 -0.100100 -0.053452
v -0.090531 -0.115965 -0.050799
v -0.070297 -0.102133 -0.054794
v -0.068839 -0.102574 -0.054482
v -0.067603 -0.102257 -0.053063
v -0.077317 -0.109514 -0.052216
v -0.061292 -0.093760 -0.052963
v -0.062492 -0.092732 -0.052054
v -0.077199 -0.107766 -0.049793
v -0.077003 -0.108733 -0.050993
v -0.091120 -0.123042 -0.043776
v -0.091804 -0.121787 -0.042505
v -0.095789 -0.128523 -0.037145
v -0.095284 -0.129833 -0.038590
v -0.092733 -0.120996 -0.041723
v -0.096706 -0.127777 -0.036266
v -0.086423 -0.113565 -0.045946
v -0.085438 -0.114322 -0.046481
v -0.084795 -0.115447 -0.047555
v -0.077871 -0.106797 -0.048860
v -0.078876 -0.106089 -0.048488
v -0.095434 -0.131232 -0.040084
v -0.091168 -0.124339 -0.045210
v -0.084797 -0.116659 -0.048945
v -0.031917 -0.081979 -0.042937
v -0.032536 -0.081687 -0.041730
v -0.031502 -0.081749 -0.043822
v -0.023626 -0.079692 -0.041467
v -0.018778 -0.077419 -0.038251
v -0.019050 -0.078236 -0.037953
v -0.082408 -0.175625 0.004211
v -0.082171 -0.175486 0.003972
v -0.082188 -0.174673 0.004339
v -0.082469 -0.174948 0.004546
v -0.081791 -0.174653 0.003265
v -0.081857 -0.174612 0.003633
v -0.082032 -0.175666 0.003512
v -0.082062 -0.176130 0.003168
v -0.081912 -0.174570 0.003951
v -0.081829 -0.173407 0.004082
v -0.081902 -0.173606 0.004376
v -0.081967 -0.175275 0.003789
v -0.082242 -0.173826 0.004774
v -0.082329 -0.172935 0.005273
v -0.081963 -0.172736 0.004879
v -0.097801 -0.159703 -0.016376
v -0.100664 -0.152905 -0.023585
v -0.100951 -0.145901 -0.030175
v -0.098864 -0.139680 -0.036228
v -0.100588 -0.139818 -0.036779
v -0.094062 -0.159634 -0.009685
v -0.094307 -0.162038 -0.010536
v -0.091026 -0.164674 -0.004987
v -0.091410 -0.161981 -0.003574
v -0.091342 -0.167361 -0.005781
v -0.088235 -0.165203 -0.000313
v -0.087695 -0.168104 -0.001685
v -0.088025 -0.171033 -0.002377
v -0.097960 -0.133760 -0.030346
v -0.098453 -0.139285 -0.024591
v -0.099799 -0.139412 -0.024404
v -0.099344 -0.133761 -0.030228
v -0.101122 -0.134439 -0.031053
v -0.101389 -0.140081 -0.024918
v -0.102728 -0.141530 -0.026414
v -0.102552 -0.135909 -0.032933
v -0.102961 -0.143245 -0.028150
v -0.102813 -0.149967 -0.021688
v -0.102536 -0.147932 -0.020125
v -0.100971 -0.154647 -0.013156
v -0.101284 -0.157165 -0.014558
v -0.099756 -0.152612 -0.012204
v -0.101237 -0.146279 -0.018912
v -0.102726 -0.137531 -0.034850
v -0.102059 -0.139031 -0.036349
v -0.102436 -0.144954 -0.029678
v -0.102178 -0.151879 -0.023057
v -0.099638 -0.128007 -0.036984
v -0.101245 -0.129336 -0.039123
v -0.093764 -0.120641 -0.041538
v -0.095450 -0.120844 -0.042440
v -0.097880 -0.127584 -0.036088
v -0.097151 -0.122124 -0.044768
v -0.099573 -0.145427 -0.018593
v -0.098278 -0.151586 -0.012061
v -0.083428 -0.171367 0.002328
v -0.082189 -0.172405 0.003241
v -0.082175 -0.174405 0.002651
v -0.083409 -0.173717 0.001712
v -0.082511 -0.176256 0.002594
v -0.083785 -0.175769 0.001712
v -0.083207 -0.177544 0.003010
v -0.082561 -0.177114 0.003481
v -0.084578 -0.177223 0.002173
v -0.085865 -0.174893 0.000183
v -0.085434 -0.172797 0.000072
v -0.088543 -0.173058 -0.002162
v -0.085344 -0.170066 0.000702
v -0.091848 -0.171464 0.000780
v -0.091832 -0.168018 0.001752
v -0.095308 -0.164469 -0.002030
v -0.095429 -0.168010 -0.003194
v -0.089066 -0.174150 -0.001679
v -0.089893 -0.174477 -0.001129
v -0.093474 -0.170910 -0.005165
v -0.092602 -0.170664 -0.005581
v -0.095921 -0.165150 -0.010920
v -0.097011 -0.165447 -0.010680
v -0.094971 -0.163916 -0.010894
v -0.091940 -0.169420 -0.005864
v -0.099178 -0.159968 -0.016340
v -0.098184 -0.164725 -0.010036
v -0.100487 -0.159137 -0.015803
v -0.099088 -0.162738 -0.008749
v -0.098848 -0.159651 -0.007418
v -0.097770 -0.157230 -0.006644
v -0.018262 -0.073340 -0.025243
v -0.022629 -0.074837 -0.030153
v -0.022466 -0.075472 -0.030305
v -0.017950 -0.074186 -0.024899
v -0.042216 -0.082390 -0.043136
v -0.034859 -0.079236 -0.039339
v -0.062928 -0.091780 -0.050385
v -0.073195 -0.098838 -0.051776
v -0.082930 -0.106333 -0.051475
v -0.090603 -0.114362 -0.048949
v -0.097246 -0.123840 -0.046849
v -0.096352 -0.125350 -0.048170
v -0.100669 -0.132447 -0.042622
v -0.101452 -0.130984 -0.041200
v -0.089110 -0.113278 -0.046842
v -0.087576 -0.113171 -0.045956
v -0.080043 -0.105630 -0.048618
v -0.081447 -0.105513 -0.049422
v -0.070908 -0.098542 -0.049176
v -0.072136 -0.098324 -0.049993
v -0.061260 -0.091984 -0.048192
v -0.062234 -0.091590 -0.048835
v -0.051305 -0.086439 -0.046059
v -0.022043 -0.076094 -0.030786
v -0.017447 -0.075017 -0.025597
v -0.028270 -0.077462 -0.035036
v -0.027710 -0.078021 -0.035427
v -0.028551 -0.076880 -0.034949
v -0.034538 -0.079878 -0.039461
v -0.041779 -0.083055 -0.043249
v -0.033990 -0.080489 -0.039856
v -0.033283 -0.081126 -0.040608
v -0.026085 -0.079243 -0.037439
v -0.026949 -0.078638 -0.036233
v -0.021385 -0.076756 -0.031679
v -0.016853 -0.075901 -0.027247
v -0.013027 -0.077348 -0.030991
v -0.015765 -0.077320 -0.031837
v -0.015075 -0.076884 -0.032929
v -0.012979 -0.076881 -0.032090
v -0.019645 -0.078052 -0.034855
v -0.024903 -0.079896 -0.039322
v -0.020555 -0.077410 -0.032985
v -0.016324 -0.076814 -0.029580
v -0.013048 -0.076688 -0.027812
v -0.013149 -0.075846 -0.025250
v -0.013600 -0.074970 -0.023244
v -0.014851 -0.073794 -0.021606
v -0.012726 -0.074648 -0.023108
v -0.013579 -0.073638 -0.021637
v -0.012106 -0.076451 -0.027516
v -0.012106 -0.076868 -0.029945
v -0.012848 -0.075486 -0.026817
v -0.012027 -0.075615 -0.025159
v -0.013661 -0.074007 -0.023482
v -0.013539 -0.072078 -0.024344
v -0.013632 -0.072116 -0.022897
v -0.014063 -0.072708 -0.021622
v -0.015518 -0.072400 -0.021170
v -0.013667 -0.073307 -0.025460
v -0.013564 -0.072783 -0.026778
v -0.012379 -0.076366 -0.031251
v -0.013382 -0.074869 -0.029138
v -0.012881 -0.075533 -0.031640
v -0.012461 -0.075303 -0.030954
v -0.013357 -0.073803 -0.030072
v -0.012838 -0.073925 -0.029515
v -0.014214 -0.072494 -0.027255
v -0.015503 -0.074763 -0.031962
v -0.019080 -0.076415 -0.037061
v -0.015284 -0.075883 -0.032643
v -0.082709 -0.173149 0.005548
v -0.082503 -0.172156 0.005709
v -0.082861 -0.172425 0.005875
v -0.091249 -0.165419 0.002253
v -0.088811 -0.168288 0.004948
v -0.087961 -0.166848 0.004486
v -0.090386 -0.164103 0.001913
v -0.094522 -0.161831 -0.001422
v -0.089070 -0.170475 0.004626
v -0.086359 -0.170050 0.006568
v -0.086894 -0.172286 0.006209
v -0.085546 -0.168640 0.006070
v -0.083684 -0.171975 0.006561
v -0.083124 -0.171067 0.006272
v -0.083863 -0.170272 0.006390
v -0.084559 -0.171443 0.006794
v -0.082178 -0.171952 0.005304
v -0.082299 -0.171529 0.005363
v -0.082757 -0.171544 0.005959
v -0.082570 -0.170867 0.005526
v -0.083117 -0.169985 0.005425
v -0.083846 -0.169336 0.003491
v -0.082520 -0.170764 0.004260
v -0.081970 -0.171775 0.004631
v -0.081943 -0.172386 0.004746
v -0.081763 -0.173065 0.003790
v -0.084585 -0.168307 0.004890
v -0.086885 -0.166539 0.003345
v -0.085835 -0.167548 0.002013
v -0.089361 -0.163991 0.000934
v -0.085041 -0.173239 0.006491
v -0.085169 -0.175280 0.005689
v -0.083903 -0.175043 0.005599
v -0.083922 -0.173365 0.006278
v -0.084838 -0.176992 0.004712
v -0.083684 -0.176462 0.004833
v -0.083024 -0.175613 0.004678
v -0.082731 -0.176332 0.004134
v -0.083174 -0.177260 0.004085
v -0.084100 -0.177850 0.003766
v -0.082352 -0.176302 0.003715
v -0.082595 -0.174025 0.005081
v -0.083231 -0.172314 0.006236
v -0.083232 -0.173346 0.005874
v -0.083129 -0.174466 0.005290
v -0.094586 -0.170145 -0.004462
v -0.091032 -0.173918 -0.000313
v -0.089228 -0.173703 0.003630
v -0.087039 -0.174877 0.005241
v -0.088648 -0.176167 0.002368
v -0.086606 -0.176297 0.000678
v -0.087701 -0.176930 0.001416
v -0.085663 -0.177744 0.002973
v -0.086612 -0.176932 0.004054
f 1 2 3
f 1 3 4
f 2 5 6
f 2 6 7
f 6 8 9
f 6 9 7
f 8 6 10
f 8 10 11
f 8 11 12
f 8 12 13
f 12 14 15
f 12 15 13
f 16 17 12
f 16 12 11
f 17 16 18
f 17 18 19
f 19 20 21
f 19 21 17
f 18 22 23
f 18 23 19
f 24 18 16
f 24 16 25
f 26 27 28
f 26 28 29
f 30 31 32
f 30 32 33
f 34 35 32
f 34 32 31
f 27 31 30
f 27 30 28
f 34 31 27
f 34 27 36
f 37 38 39
f 37 39 40
f 41 42 39
f 41 39 38
f 43 44 45
f 43 45 46
f 44 47 48
f 44 48 45
f 44 49 50
f 44 50 47
f 51 39 42
f 51 42 49
f 40 39 51
f 40 51 35
f 35 51 43
f 35 43 32
f 51 49 44
f 51 44 43
f 50 49 42
f 50 42 52
f 41 53 52
f 41 52 42
f 54 55 53
f 54 53 41
f 55 56 57
f 55 57 53
f 54 58 59
f 54 59 55
f 59 60 56
f 59 56 55
f 61 62 63
f 61 63 64
f 65 66 64
f 65 64 63
f 67 63 62
f 67 62 68
f 69 65 63
f 69 63 67
f 69 70 71
f 69 71 65
f 72 73 70
f 72 70 69
f 72 69 67
f 72 67 74
f 75 74 67
f 75 67 68
f 76 77 78
f 76 78 79
f 79 78 80
f 79 80 81
f 78 82 83
f 78 83 80
f 84 82 78
f 84 78 77
f 85 86 77
f 85 77 76
f 76 87 88
f 76 88 85
f 89 88 90
f 89 90 91
f 88 87 92
f 88 92 90
f 93 85 88
f 93 88 89
f 86 94 95
f 86 95 96
f 94 56 60
f 94 60 95
f 93 57 56
f 93 56 94
f 52 53 57
f 52 57 97
f 50 52 97
f 50 97 98
f 98 97 89
f 98 89 91
f 97 57 93
f 97 93 89
f 93 94 86
f 93 86 85
f 96 84 77
f 96 77 86
f 99 100 75
f 99 75 68
f 101 102 103
f 101 103 104
f 105 106 103
f 105 103 102
f 107 105 102
f 107 102 108
f 108 102 101
f 108 101 109
f 108 110 111
f 108 111 107
f 61 111 110
f 61 110 62
f 99 68 62
f 99 62 110
f 110 108 109
f 110 109 99
f 112 83 82
f 112 82 113
f 112 113 101
f 112 101 104
f 113 82 84
f 113 84 114
f 109 101 113
f 109 113 114
f 114 100 99
f 114 99 109
f 114 84 96
f 114 96 100
f 96 95 75
f 96 75 100
f 75 95 60
f 75 60 74
f 59 72 74
f 59 74 60
f 59 58 73
f 59 73 72
f 58 115 116
f 58 116 73
f 115 58 54
f 115 54 117
f 54 41 38
f 54 38 117
f 117 38 37
f 117 37 118
f 119 120 118
f 119 118 37
f 121 122 123
f 121 123 124
f 125 126 127
f 125 127 128
f 129 126 130
f 129 130 131
f 129 132 127
f 129 127 126
f 129 123 122
f 129 122 132
f 131 133 123
f 131 123 129
f 134 133 131
f 134 131 135
f 24 136 22
f 24 22 18
f 137 138 23
f 137 23 22
f 139 23 138
f 139 138 140
f 23 139 20
f 23 20 19
f 21 112 104
f 21 104 14
f 104 103 15
f 104 15 14
f 21 14 12
f 21 12 17
f 21 20 83
f 21 83 112
f 11 10 25
f 11 25 16
f 141 142 25
f 141 25 10
f 143 141 5
f 143 5 144
f 145 142 141
f 145 141 143
f 143 144 146
f 143 146 147
f 147 148 145
f 147 145 143
f 141 10 6
f 141 6 5
f 5 2 1
f 5 1 144
f 15 149 150
f 15 150 13
f 151 150 149
f 151 149 152
f 151 152 153
f 151 153 154
f 155 154 153
f 155 153 156
f 155 157 158
f 155 158 159
f 160 159 158
f 160 158 161
f 162 163 159
f 162 159 160
f 154 155 159
f 154 159 163
f 164 165 166
f 164 166 157
f 167 158 157
f 167 157 166
f 156 164 157
f 156 157 155
f 168 169 156
f 168 156 153
f 170 171 168
f 170 168 172
f 168 171 173
f 168 173 169
f 168 153 152
f 168 152 172
f 151 154 163
f 151 163 174
f 174 9 150
f 174 150 151
f 7 9 174
f 7 174 175
f 8 13 150
f 8 150 9
f 163 162 175
f 163 175 174
f 15 103 106
f 15 106 149
f 149 106 172
f 149 172 152
f 3 2 7
f 3 7 175
f 176 177 178
f 176 178 179
f 179 178 180
f 179 180 181
f 178 125 128
f 178 128 180
f 182 180 128
f 182 128 183
f 182 184 181
f 182 181 180
f 179 181 185
f 179 185 186
f 186 185 187
f 186 187 148
f 188 186 148
f 188 148 147
f 186 188 176
f 186 176 179
f 189 190 191
f 189 191 192
f 193 194 195
f 193 195 196
f 197 196 195
f 197 195 198
f 197 136 24
f 197 24 199
f 196 197 199
f 196 199 200
f 145 200 199
f 145 199 142
f 187 200 145
f 187 145 148
f 187 193 196
f 187 196 200
f 24 25 142
f 24 142 199
f 198 201 136
f 198 136 197
f 198 202 203
f 198 203 201
f 204 161 203
f 204 203 202
f 158 167 203
f 158 203 161
f 203 167 137
f 203 137 201
f 201 137 22
f 201 22 136
f 204 192 191
f 204 191 205
f 205 206 162
f 205 162 160
f 160 161 204
f 160 204 205
f 206 3 175
f 206 175 162
f 207 28 30
f 207 30 208
f 208 209 210
f 208 210 207
f 43 46 33
f 43 33 32
f 211 212 46
f 211 46 45
f 213 47 50
f 213 50 98
f 214 213 98
f 214 98 91
f 214 91 90
f 214 90 215
f 92 216 215
f 92 215 90
f 217 173 216
f 217 216 92
f 92 87 218
f 92 218 217
f 76 79 218
f 76 218 87
f 81 219 218
f 81 218 79
f 217 218 219
f 217 219 220
f 164 220 219
f 164 219 165
f 156 169 220
f 156 220 164
f 169 173 217
f 169 217 220
f 81 140 165
f 81 165 219
f 221 216 173
f 221 173 171
f 221 171 170
f 221 170 222
f 170 105 107
f 170 107 222
f 107 111 223
f 107 223 222
f 222 223 224
f 222 224 221
f 224 215 216
f 224 216 221
f 225 226 224
f 225 224 223
f 227 225 61
f 227 61 64
f 226 225 227
f 226 227 228
f 66 229 227
f 66 227 64
f 48 228 227
f 48 227 229
f 225 223 111
f 225 111 61
f 214 215 224
f 214 224 226
f 213 214 226
f 213 226 228
f 48 47 213
f 48 213 228
f 211 45 48
f 211 48 229
f 172 106 105
f 172 105 170
f 167 166 138
f 167 138 137
f 140 138 166
f 140 166 165
f 139 140 81
f 139 81 80
f 83 20 139
f 83 139 80
f 210 209 230
f 210 230 231
f 209 232 233
f 209 233 230
f 234 232 209
f 234 209 208
f 234 33 46
f 234 46 212
f 208 30 33
f 208 33 234
f 234 212 235
f 234 235 232
f 236 66 65
f 236 65 71
f 229 66 236
f 229 236 211
f 236 235 212
f 236 212 211
f 71 237 235
f 71 235 236
f 116 238 70
f 116 70 73
f 238 237 71
f 238 71 70
f 116 239 240
f 116 240 238
f 240 233 237
f 240 237 238
f 237 233 232
f 237 232 235
f 230 233 240
f 230 240 241
f 230 241 242
f 230 242 231
f 243 244 245
f 243 245 246
f 247 120 245
f 247 245 244
f 247 248 118
f 247 118 120
f 118 248 115
f 118 115 117
f 116 115 248
f 116 248 239
f 249 241 240
f 249 240 239
f 249 250 242
f 249 242 241
f 249 239 248
f 249 248 247
f 244 250 249
f 244 249 247
f 243 251 250
f 243 250 244
f 250 251 252
f 250 252 242
f 253 231 242
f 253 242 252
f 254 210 231
f 254 231 253
f 255 256 254
f 255 254 253
f 257 258 259
f 257 259 260
f 259 261 255
f 259 255 260
f 262 26 29
f 262 29 263
f 256 264 265
f 256 265 254
f 265 207 210
f 265 210 254
f 29 28 207
f 29 207 265
f 264 263 29
f 264 29 265
f 261 266 263
f 261 263 264
f 266 267 262
f 266 262 263
f 259 258 268
f 259 268 269
f 243 246 268
f 243 268 258
f 246 270 271
f 246 271 268
f 271 270 272
f 271 272 273
f 267 274 26
f 267 26 262
f 274 36 27
f 274 27 26
f 36 274 272
f 36 272 275
f 40 35 34
f 40 34 276
f 119 37 40
f 119 40 276
f 276 34 36
f 276 36 275
f 246 245 277
f 246 277 270
f 120 119 277
f 120 277 245
f 277 119 276
f 277 276 275
f 272 270 277
f 272 277 275
f 272 274 267
f 272 267 273
f 267 266 269
f 267 269 273
f 269 268 271
f 269 271 273
f 269 266 261
f 269 261 259
f 261 264 256
f 261 256 255
f 255 253 252
f 255 252 260
f 257 260 252
f 257 252 251
f 251 243 258
f 251 258 257
f 278 134 279
f 278 279 280
f 281 282 283
f 281 283 284
f 191 285 206
f 191 206 205
f 285 4 3
f 285 3 206
f 281 285 191
f 281 191 190
f 284 4 285
f 284 285 281
f 286 282 281
f 286 281 190
f 287 282 286
f 287 286 288
f 289 283 282
f 289 282 287
f 290 291 292
f 290 292 293
f 294 295 296
f 294 296 279
f 296 295 297
f 296 297 291
f 291 297 298
f 291 298 292
f 299 300 177
f 299 177 176
f 301 300 298
f 301 298 297
f 131 130 302
f 131 302 135
f 294 135 302
f 294 302 295
f 302 301 297
f 302 297 295
f 178 177 303
f 178 303 125
f 130 126 125
f 130 125 303
f 301 302 130
f 301 130 303
f 301 303 177
f 301 177 300
f 304 305 283
f 304 283 289
f 306 188 147
f 306 147 146
f 306 299 176
f 306 176 188
f 305 307 284
f 305 284 283
f 284 307 1
f 284 1 4
f 307 146 144
f 307 144 1
f 307 305 306
f 307 306 146
f 304 299 306
f 304 306 305
f 304 298 300
f 304 300 299
f 298 304 289
f 298 289 292
f 289 287 293
f 289 293 292
f 293 287 288
f 293 288 308
f 308 309 310
f 308 310 311
f 309 312 313
f 309 313 310
f 121 124 314
f 121 314 315
f 182 183 316
f 182 316 317
f 318 122 121
f 318 121 315
f 122 318 127
f 122 127 132
f 318 183 128
f 318 128 127
f 315 316 183
f 315 183 318
f 314 313 316
f 314 316 315
f 134 278 319
f 134 319 133
f 133 319 124
f 133 124 123
f 278 280 320
f 278 320 321
f 321 311 310
f 321 310 322
f 320 290 311
f 320 311 321
f 321 322 319
f 321 319 278
f 314 124 319
f 314 319 322
f 314 322 310
f 314 310 313
f 313 312 317
f 313 317 316
f 323 202 198
f 323 198 195
f 202 323 192
f 202 192 204
f 194 324 323
f 194 323 195
f 189 192 323
f 189 323 324
f 189 325 286
f 189 286 190
f 325 326 288
f 325 288 286
f 325 189 324
f 325 324 327
f 328 185 181
f 328 181 184
f 328 193 187
f 328 187 185
f 329 194 193
f 329 193 328
f 317 330 184
f 317 184 182
f 327 329 330
f 327 330 331
f 330 329 328
f 330 328 184
f 327 324 194
f 327 194 329
f 331 326 325
f 331 325 327
f 331 330 317
f 331 317 312
f 309 326 331
f 309 331 312
f 308 288 326
f 308 326 309
f 308 311 290
f 308 290 293
f 320 296 291
f 320 291 290
f 320 280 279
f 320 279 296
f 279 134 135
f 279 135 294
