# Rib_5R rest
v -0.106714 -0.029055 0.122738
v -0.113216 -0.021532 0.109152
v -0.113532 -0.020350 0.109982
v -0.107090 -0.027779 0.123540
v -0.113251 -0.024045 0.108222
v -0.116501 -0.015217 0.090156
v -0.116931 -0.013000 0.091784
v -0.117548 -0.006074 0.069388
v -0.118595 -0.003917 0.071186
v -0.117500 -0.019237 0.087970
v -0.118186 -0.009729 0.066790
v -0.118080 -0.002839 0.048938
v -0.117610 0.000225 0.051963
v -0.116542 0.001710 0.034600
v -0.116464 0.004505 0.037521
v -0.120698 -0.012730 0.064274
v -0.120601 -0.005684 0.045776
v -0.122539 -0.014146 0.063069
v -0.122766 -0.006889 0.044121
v -0.120964 -0.001815 0.028763
v -0.118447 -0.000759 0.031055
v -0.124737 -0.014363 0.063384
v -0.124583 -0.006492 0.044205
v -0.121865 -0.024266 0.086825
v -0.120065 -0.022486 0.086938
v -0.012066 0.041626 -0.005676
v -0.015525 0.040076 -0.008726
v -0.016355 0.040184 -0.006841
v -0.013748 0.041909 -0.003999
v -0.021970 0.039405 -0.013076
v -0.021465 0.040289 -0.014124
v -0.028720 0.040757 -0.019222
v -0.029595 0.039607 -0.017648
v -0.020317 0.039167 -0.016209
v -0.027361 0.040287 -0.021626
v -0.014705 0.038659 -0.010385
v -0.026547 0.036769 -0.022524
v -0.035033 0.036680 -0.025462
v -0.035230 0.038401 -0.024848
v -0.026680 0.038790 -0.022676
v -0.045024 0.036153 -0.027178
v -0.045231 0.037368 -0.026382
v -0.036787 0.040305 -0.021382
v -0.046552 0.039508 -0.022165
v -0.046900 0.037990 -0.020973
v -0.037572 0.039281 -0.019926
v -0.059793 0.037202 -0.023109
v -0.059496 0.035777 -0.021800
v -0.045655 0.038807 -0.025004
v -0.059612 0.036981 -0.025716
v -0.035802 0.039704 -0.023510
v -0.058882 0.035064 -0.027115
v -0.058438 0.033588 -0.027711
v -0.044922 0.034893 -0.027566
v -0.058255 0.032280 -0.028195
v -0.072412 0.028643 -0.026881
v -0.072834 0.029897 -0.026514
v -0.045014 0.033789 -0.027031
v -0.058191 0.031135 -0.028080
v -0.071967 0.027418 -0.026705
v -0.083461 0.026241 -0.015882
v -0.083097 0.024638 -0.016983
v -0.071545 0.028667 -0.021321
v -0.071840 0.030042 -0.020219
v -0.058720 0.031844 -0.022847
v -0.058987 0.033132 -0.021850
v -0.071357 0.027359 -0.023181
v -0.083307 0.022960 -0.019144
v -0.058401 0.030841 -0.024716
v -0.045560 0.033335 -0.023667
v -0.046288 0.034325 -0.022179
v -0.058230 0.030606 -0.026815
v -0.045184 0.033243 -0.025618
v -0.071555 0.026919 -0.025331
v -0.083884 0.022055 -0.021280
v -0.108586 0.014133 -0.007978
v -0.107830 0.012459 -0.008872
v -0.115014 0.007989 0.002111
v -0.115716 0.009830 0.003326
v -0.119814 0.003513 0.014621
v -0.120590 0.005293 0.015862
v -0.113510 0.007101 0.002548
v -0.118035 0.002687 0.015091
v -0.106497 0.011515 -0.008413
v -0.098337 0.019138 -0.016643
v -0.097516 0.017579 -0.017135
v -0.108847 0.016518 -0.006009
v -0.098827 0.021159 -0.015282
v -0.086983 0.026356 -0.022467
v -0.099104 0.023618 -0.013375
v -0.087228 0.028576 -0.020535
v -0.108979 0.019256 -0.003695
v -0.086235 0.024653 -0.023148
v -0.085465 0.023248 -0.023242
v -0.084671 0.022236 -0.022738
v -0.096436 0.016622 -0.016684
v -0.073543 0.031168 -0.026002
v -0.074270 0.032993 -0.024831
v -0.094250 0.018326 -0.012551
v -0.095257 0.016741 -0.015110
v -0.110595 0.009772 0.007637
v -0.110365 0.012476 0.010478
v -0.114465 0.008476 0.023676
v -0.114788 0.005829 0.020584
v -0.110858 0.014320 0.012011
v -0.115043 0.010359 0.025576
v -0.103824 0.018230 0.000463
v -0.103259 0.016537 -0.000748
v -0.103698 0.014123 -0.003410
v -0.093909 0.020677 -0.010096
v -0.094617 0.022387 -0.009235
v -0.116135 0.003587 0.017316
v -0.111785 0.007723 0.004635
v -0.105056 0.011903 -0.006590
v -0.035523 0.034614 -0.024442
v -0.036040 0.034177 -0.023020
v -0.035175 0.035383 -0.025259
v -0.026873 0.035301 -0.021443
v -0.019466 0.036030 -0.016873
v -0.019390 0.034715 -0.015895
v -0.061499 -0.058132 0.154761
v -0.060428 -0.058681 0.153585
v -0.060251 -0.056612 0.154291
v -0.061910 -0.056237 0.155462
v -0.065432 -0.055980 0.148059
v -0.060721 -0.056940 0.149378
v -0.061544 -0.058841 0.150824
v -0.065980 -0.058092 0.149591
v -0.059310 -0.056772 0.151288
v -0.059970 -0.053286 0.148272
v -0.058640 -0.053198 0.150348
v -0.059898 -0.058614 0.151981
v -0.059954 -0.053038 0.154126
v -0.058734 -0.048044 0.153463
v -0.057693 -0.048321 0.149965
v -0.123493 -0.024775 0.087747
v -0.125877 -0.012933 0.064994
v -0.125452 -0.004785 0.045681
v -0.122730 -0.000922 0.028649
v -0.123470 0.000791 0.029969
v -0.057953 -0.044516 0.151915
v -0.057647 -0.045300 0.150298
v -0.060388 -0.043492 0.152801
v -0.059021 -0.044267 0.153385
v -0.059216 -0.043400 0.150915
v -0.063595 -0.043172 0.149999
v -0.064599 -0.043213 0.151804
v -0.071295 -0.045130 0.152621
v -0.066293 -0.045850 0.153478
v -0.069740 -0.042759 0.150934
v -0.077406 -0.043773 0.151203
v -0.079951 -0.048618 0.151560
v -0.073008 -0.049610 0.153270
v -0.080825 -0.052556 0.150921
v -0.073676 -0.053775 0.152768
v -0.080354 -0.055242 0.150199
v -0.073249 -0.056656 0.151907
v -0.090446 -0.047183 0.147065
v -0.091115 -0.050980 0.146535
v -0.104175 -0.047244 0.137419
v -0.104116 -0.049122 0.136668
v -0.090884 -0.053157 0.145784
v -0.089957 -0.054125 0.144671
v -0.078916 -0.056739 0.149032
v -0.072175 -0.057940 0.150324
v -0.102950 -0.049277 0.135527
v -0.101764 -0.048361 0.134716
v -0.088625 -0.053094 0.143528
v -0.077538 -0.055845 0.147535
v -0.103274 -0.043399 0.138121
v -0.088232 -0.041696 0.146513
v -0.101032 -0.037916 0.138132
v -0.113320 -0.036591 0.125585
v -0.114131 -0.040145 0.124634
v -0.113849 -0.041707 0.123763
v -0.120168 -0.031844 0.109721
v -0.119328 -0.028143 0.110925
v -0.120352 -0.033874 0.108780
v -0.068288 -0.054882 0.153727
v -0.067877 -0.057721 0.152832
v -0.063752 -0.055962 0.155236
v -0.063499 -0.051828 0.155343
v -0.067751 -0.050536 0.154097
v -0.061849 -0.052332 0.155668
v -0.062212 -0.046305 0.154654
v -0.060352 -0.046985 0.154992
v -0.063227 -0.058305 0.154416
v -0.066790 -0.058813 0.151289
v -0.062204 -0.059255 0.152694
v -0.075506 -0.041532 0.149362
v -0.074695 -0.041716 0.147815
v -0.068878 -0.042774 0.149200
v -0.068702 -0.044487 0.147626
v -0.074444 -0.043071 0.146637
v -0.069269 -0.047601 0.146392
v -0.075025 -0.046427 0.145748
v -0.085477 -0.043834 0.141859
v -0.084883 -0.040416 0.142307
v -0.097060 -0.035957 0.134073
v -0.097495 -0.038902 0.133667
v -0.106927 -0.031754 0.122139
v -0.097337 -0.034530 0.134967
v -0.085152 -0.039179 0.143169
v -0.076180 -0.050564 0.145532
v -0.086530 -0.048229 0.142071
v -0.098844 -0.043086 0.133741
v -0.064255 -0.048393 0.147086
v -0.064915 -0.052443 0.147050
v -0.070122 -0.051523 0.146221
v -0.059403 -0.048413 0.148241
v -0.070766 -0.054869 0.147207
v -0.063554 -0.045053 0.148314
v -0.059072 -0.044968 0.149358
v -0.086230 -0.039196 0.144588
v -0.098596 -0.034760 0.136446
v -0.108513 -0.028123 0.124701
v -0.111207 -0.031544 0.125825
v -0.115055 -0.020482 0.111069
v -0.117703 -0.023609 0.111712
v -0.012713 0.032848 -0.004065
v -0.012309 0.032966 -0.006148
v -0.011087 0.034117 -0.005884
v -0.011720 0.033781 -0.004276
v -0.011575 0.034691 -0.003008
v -0.012710 0.033707 -0.001729
v -0.011949 0.036589 -0.001387
v -0.013066 0.035920 -0.000566
v -0.011332 0.037795 -0.003589
v -0.012505 0.039990 -0.001716
v -0.012320 0.038426 -0.000214
v -0.010036 0.036786 -0.006396
v -0.010748 0.038726 -0.004963
v -0.010431 0.035748 -0.005207
v -0.010525 0.034962 -0.007191
v -0.010186 0.035863 -0.007729
v -0.010119 0.037573 -0.006983
v -0.010448 0.039467 -0.005771
v -0.010593 0.037447 -0.008345
v -0.010613 0.040018 -0.007638
v -0.010787 0.035238 -0.008824
v -0.014075 0.035096 -0.011341
v -0.014211 0.036838 -0.011273
v -0.019735 0.037651 -0.017010
v -0.014209 0.033702 -0.010222
v -0.011597 0.033759 -0.007787
v -0.011340 0.040893 -0.004529
v -0.012051 0.040962 -0.003467
v -0.014421 0.040489 -0.002033
v -0.016398 0.039216 -0.005658
v -0.016195 0.038083 -0.004719
v -0.013843 0.038409 -0.000587
v -0.015575 0.036672 -0.004676
v -0.015235 0.034985 -0.005251
v -0.015130 0.033292 -0.006362
v -0.014569 0.032892 -0.008241
v -0.020332 0.034116 -0.012314
v -0.019685 0.033670 -0.014010
v -0.028052 0.034523 -0.018459
v -0.027371 0.034552 -0.019988
v -0.020802 0.035485 -0.011870
v -0.028643 0.035360 -0.017477
v -0.021517 0.036966 -0.011424
v -0.029296 0.036714 -0.016615
v -0.037386 0.035712 -0.020197
v -0.029731 0.037803 -0.016320
v -0.037852 0.036944 -0.019351
v -0.036728 0.034484 -0.021446
v -0.046791 0.035453 -0.021378
v -0.037954 0.038012 -0.019234
v -0.047011 0.036556 -0.020854
v -0.059218 0.034353 -0.021530
v -0.029848 0.038561 -0.016690
v -0.021996 0.038692 -0.012344
v -0.021908 0.038010 -0.011671
v -0.125609 -0.002486 0.047822
v -0.123991 0.002939 0.032142
v -0.125882 -0.010527 0.066903
v -0.115994 0.011539 0.026381
v -0.111704 0.015751 0.012702
v -0.073927 0.033867 -0.022197
v -0.072961 0.032954 -0.020309
v -0.086747 0.030053 -0.018125
v -0.085297 0.029555 -0.016164
v -0.098570 0.025826 -0.010946
v -0.096578 0.025590 -0.008917
v -0.084100 0.027843 -0.015519
v -0.095429 0.023791 -0.008916
v -0.072152 0.031478 -0.019586
v -0.108547 0.021395 -0.001369
v -0.106702 0.021464 0.000477
v -0.104996 0.019883 0.000836
v -0.113507 0.017057 0.012334
v -0.115629 0.016604 0.010202
v -0.121115 0.007532 0.018001
v -0.120449 0.012042 0.023764
v -0.116452 0.014658 0.007664
v -0.121427 0.010015 0.020681
v -0.122895 0.007541 0.038506
v -0.124144 0.005456 0.035224
v -0.116305 0.012122 0.005320
v -0.117513 -0.012083 0.092873
v -0.119468 -0.011870 0.093943
v -0.122378 -0.014431 0.093885
v -0.123922 -0.018279 0.092284
v -0.124523 -0.023941 0.089200
v -0.124420 -0.021686 0.090626
v -0.125348 -0.007324 0.069357
v -0.119353 -0.034338 0.107690
v -0.116358 -0.032016 0.106439
v -0.118141 -0.033905 0.106823
v -0.112617 -0.041715 0.122797
v -0.111774 -0.041232 0.122172
v -0.110223 -0.039471 0.121604
v -0.100583 -0.046600 0.134087
v -0.087817 -0.051332 0.142734
v -0.077060 -0.053892 0.146429
v -0.071263 -0.057033 0.148600
v -0.117528 0.006572 0.039457
v -0.118729 0.007716 0.040442
v -0.121217 -0.002727 0.072882
v -0.119429 -0.003224 0.072200
v -0.118795 0.002386 0.053826
v -0.119858 0.003337 0.054765
v -0.121358 0.003797 0.054963
v -0.117715 0.012689 0.026240
v -0.120530 0.008310 0.040401
v -0.125192 0.000260 0.050617
v -0.123785 0.002833 0.053484
v -0.123879 -0.004323 0.071946
v -0.114195 -0.028294 0.106950
v -0.108175 -0.035891 0.121620
f 1 2 3
f 1 3 4
f 2 5 6
f 2 6 7
f 6 8 9
f 6 9 7
f 8 6 10
f 8 10 11
f 8 11 12
f 8 12 13
f 12 14 15
f 12 15 13
f 16 17 12
f 16 12 11
f 17 16 18
f 17 18 19
f 19 20 21
f 19 21 17
f 18 22 23
f 18 23 19
f 24 18 16
f 24 16 25
f 26 27 28
f 26 28 29
f 30 31 32
f 30 32 33
f 34 35 32
f 34 32 31
f 27 31 30
f 27 30 28
f 34 31 27
f 34 27 36
f 37 38 39
f 37 39 40
f 41 42 39
f 41 39 38
f 43 44 45
f 43 45 46
f 44 47 48
f 44 48 45
f 44 49 50
f 44 50 47
f 51 39 42
f 51 42 49
f 40 39 51
f 40 51 35
f 35 51 43
f 35 43 32
f 51 49 44
f 51 44 43
f 50 49 42
f 50 42 52
f 41 53 52
f 41 52 42
f 54 55 53
f 54 53 41
f 55 56 57
f 55 57 53
f 54 58 59
f 54 59 55
f 59 60 56
f 59 56 55
f 61 62 63
f 61 63 64
f 65 66 64
f 65 64 63
f 67 63 62
f 67 62 68
f 69 65 63
f 69 63 67
f 69 70 71
f 69 71 65
f 72 73 70
f 72 70 69
f 72 69 67
f 72 67 74
f 75 74 67
f 75 67 68
f 76 77 78
f 76 78 79
f 79 78 80
f 79 80 81
f 78 82 83
f 78 83 80
f 84 82 78
f 84 78 77
f 85 86 77
f 85 77 76
f 76 87 88
f 76 88 85
f 89 88 90
f 89 90 91
f 88 87 92
f 88 92 90
f 93 85 88
f 93 88 89
f 86 94 95
f 86 95 96
f 94 56 60
f 94 60 95
f 93 57 56
f 93 56 94
f 52 53 57
f 52 57 97
f 50 52 97
f 50 97 98
f 98 97 89
f 98 89 91
f 97 57 93
f 97 93 89
f 93 94 86
f 93 86 85
f 96 84 77
f 96 77 86
f 99 100 75
f 99 75 68
f 101 102 103
f 101 103 104
f 105 106 103
f 105 103 102
f 107 105 102
f 107 102 108
f 108 102 101
f 108 101 109
f 108 110 111
f 108 111 107
f 61 111 110
f 61 110 62
f 99 68 62
f 99 62 110
f 110 108 109
f 110 109 99
f 112 83 82
f 112 82 113
f 112 113 101
f 112 101 104
f 113 82 84
f 113 84 114
f 109 101 113
f 109 113 114
f 114 100 99
f 114 99 109
f 114 84 96
f 114 96 100
f 96 95 75
f 96 75 100
f 75 95 60
f 75 60 74
f 59 72 74
f 59 74 60
f 59 58 73
f 59 73 72
f 58 115 116
f 58 116 73
f 115 58 54
f 115 54 117
f 54 41 38
f 54 38 117
f 117 38 37
f 117 37 118
f 119 120 118
f 119 118 37
f 121 122 123
f 121 123 124
f 125 126 127
f 125 127 128
f 129 126 130
f 129 130 131
f 129 132 127
f 129 127 126
f 129 123 122
f 129 122 132
f 131 133 123
f 131 123 129
f 134 133 131
f 134 131 135
f 24 136 22
f 24 22 18
f 137 138 23
f 137 23 22
f 139 23 138
f 139 138 140
f 141 134 135
f 141 135 142
f 143 144 141
f 143 141 145
f 143 145 146
f 143 146 147
f 148 149 147
f 148 147 150
f 148 151 152
f 148 152 153
f 153 152 154
f 153 154 155
f 154 156 157
f 154 157 155
f 154 152 158
f 154 158 159
f 159 160 161
f 159 161 162
f 156 162 163
f 156 163 164
f 159 162 156
f 159 156 154
f 157 156 164
f 157 164 165
f 162 161 166
f 162 166 163
f 163 166 167
f 163 167 168
f 163 168 169
f 163 169 164
f 158 170 160
f 158 160 159
f 158 152 151
f 158 151 171
f 170 158 171
f 170 171 172
f 170 173 174
f 170 174 160
f 161 160 174
f 161 174 175
f 176 174 173
f 176 173 177
f 174 176 178
f 174 178 175
f 179 155 157
f 179 157 180
f 181 182 183
f 181 183 179
f 181 124 184
f 181 184 182
f 185 182 184
f 185 184 186
f 143 147 149
f 143 149 185
f 185 149 183
f 185 183 182
f 186 144 143
f 186 143 185
f 133 184 124
f 133 124 123
f 134 186 184
f 134 184 133
f 181 179 180
f 181 180 187
f 187 180 188
f 187 188 189
f 189 188 128
f 189 128 127
f 122 189 127
f 122 127 132
f 189 122 121
f 189 121 187
f 165 188 180
f 165 180 157
f 121 124 181
f 121 181 187
f 153 155 179
f 153 179 183
f 148 153 183
f 148 183 149
f 150 190 151
f 150 151 148
f 191 190 150
f 191 150 192
f 193 194 191
f 193 191 192
f 194 193 195
f 194 195 196
f 194 196 197
f 194 197 198
f 199 198 197
f 199 197 200
f 199 200 201
f 199 201 1
f 202 199 1
f 202 1 4
f 198 199 202
f 198 202 203
f 197 196 204
f 197 204 205
f 197 205 206
f 197 206 200
f 194 198 203
f 194 203 191
f 207 208 209
f 207 209 195
f 207 210 130
f 207 130 208
f 130 126 125
f 130 125 208
f 211 209 208
f 211 208 125
f 210 207 212
f 210 212 213
f 142 135 210
f 142 210 213
f 131 130 210
f 131 210 135
f 207 195 193
f 207 193 212
f 196 195 209
f 196 209 204
f 146 212 193
f 146 193 192
f 145 213 212
f 145 212 146
f 142 213 145
f 142 145 141
f 147 146 192
f 147 192 150
f 191 203 214
f 191 214 190
f 190 214 171
f 190 171 151
f 171 214 215
f 171 215 172
f 202 4 216
f 202 216 215
f 215 216 217
f 215 217 172
f 216 4 3
f 216 3 218
f 217 216 218
f 217 218 219
f 215 214 203
f 215 203 202
f 186 134 141
f 186 141 144
f 220 221 222
f 220 222 223
f 223 224 225
f 223 225 220
f 226 227 225
f 226 225 224
f 228 229 230
f 228 230 226
f 231 232 228
f 231 228 233
f 231 234 235
f 231 235 236
f 237 232 231
f 237 231 236
f 238 239 237
f 238 237 236
f 238 240 241
f 238 241 242
f 241 119 243
f 241 243 242
f 120 119 241
f 120 241 244
f 245 244 241
f 245 241 240
f 243 34 36
f 243 36 242
f 119 37 40
f 119 40 243
f 40 35 34
f 40 34 243
f 36 239 238
f 36 238 242
f 239 36 27
f 239 27 26
f 237 239 26
f 237 26 246
f 235 240 238
f 235 238 236
f 245 240 235
f 245 235 234
f 221 245 234
f 221 234 222
f 233 222 234
f 233 234 231
f 232 237 246
f 232 246 247
f 228 232 247
f 228 247 229
f 229 247 29
f 229 29 248
f 29 28 249
f 29 249 248
f 248 249 250
f 248 250 251
f 230 229 248
f 230 248 251
f 246 26 29
f 246 29 247
f 233 228 226
f 233 226 224
f 223 222 233
f 223 233 224
f 226 230 251
f 226 251 227
f 251 250 252
f 251 252 227
f 227 252 253
f 227 253 225
f 254 220 225
f 254 225 253
f 221 220 254
f 221 254 255
f 255 254 256
f 255 256 257
f 256 258 259
f 256 259 257
f 256 254 253
f 256 253 260
f 256 260 261
f 256 261 258
f 116 115 259
f 116 259 258
f 118 259 115
f 118 115 117
f 257 259 118
f 257 118 120
f 257 120 244
f 257 244 255
f 221 255 244
f 221 244 245
f 262 260 253
f 262 253 252
f 262 263 261
f 262 261 260
f 264 263 265
f 264 265 266
f 261 263 264
f 261 264 267
f 116 258 261
f 116 261 267
f 267 264 71
f 267 71 70
f 116 267 70
f 116 70 73
f 71 264 266
f 71 266 268
f 268 266 269
f 268 269 270
f 271 66 268
f 271 268 270
f 268 66 65
f 268 65 71
f 272 269 266
f 272 266 265
f 273 30 33
f 273 33 272
f 272 33 46
f 272 46 269
f 272 265 274
f 272 274 273
f 274 265 263
f 274 263 262
f 250 274 262
f 250 262 252
f 83 20 139
f 83 139 80
f 139 140 81
f 139 81 80
f 140 138 275
f 140 275 276
f 277 275 138
f 277 138 137
f 278 106 105
f 278 105 279
f 270 45 48
f 270 48 271
f 48 47 280
f 48 280 281
f 280 282 283
f 280 283 281
f 282 284 285
f 282 285 283
f 286 287 111
f 286 111 61
f 48 281 288
f 48 288 271
f 66 271 288
f 66 288 64
f 283 286 288
f 283 288 281
f 288 286 61
f 288 61 64
f 286 283 285
f 286 285 287
f 285 284 289
f 285 289 290
f 291 287 285
f 291 285 290
f 107 111 287
f 107 287 291
f 279 105 107
f 279 107 291
f 290 292 279
f 290 279 291
f 290 289 293
f 290 293 292
f 81 140 276
f 81 276 294
f 295 293 296
f 295 296 297
f 298 295 297
f 298 297 299
f 299 297 294
f 299 294 276
f 296 300 294
f 296 294 297
f 81 294 300
f 81 300 79
f 76 79 300
f 76 300 87
f 92 87 300
f 92 300 296
f 296 293 289
f 296 289 92
f 92 289 284
f 92 284 90
f 282 91 90
f 282 90 284
f 282 280 98
f 282 98 91
f 280 47 50
f 280 50 98
f 270 269 46
f 270 46 45
f 43 46 33
f 43 33 32
f 273 274 250
f 273 250 249
f 249 28 30
f 249 30 273
f 218 3 301
f 218 301 302
f 303 304 177
f 303 177 219
f 219 218 302
f 219 302 303
f 177 173 217
f 177 217 219
f 305 137 22
f 305 22 136
f 306 277 137
f 306 137 305
f 307 277 306
f 307 306 304
f 177 304 306
f 177 306 176
f 178 176 306
f 178 306 305
f 178 305 136
f 178 136 308
f 24 25 309
f 24 309 310
f 167 166 311
f 167 311 312
f 167 312 313
f 167 313 314
f 313 312 310
f 313 310 309
f 311 308 310
f 311 310 312
f 308 136 24
f 308 24 310
f 308 311 175
f 308 175 178
f 166 161 175
f 166 175 311
f 170 172 217
f 170 217 173
f 315 205 204
f 315 204 316
f 205 315 314
f 205 314 206
f 315 168 167
f 315 167 314
f 316 169 168
f 316 168 315
f 165 164 169
f 165 169 317
f 165 317 128
f 165 128 188
f 211 125 128
f 211 128 317
f 316 211 317
f 316 317 169
f 204 209 211
f 204 211 316
f 3 2 7
f 3 7 301
f 318 106 278
f 318 278 319
f 15 103 106
f 15 106 318
f 320 302 301
f 320 301 321
f 8 13 322
f 8 322 9
f 7 9 321
f 7 321 301
f 321 9 322
f 321 322 323
f 323 324 320
f 323 320 321
f 325 326 319
f 325 319 278
f 325 292 293
f 325 293 295
f 279 292 325
f 279 325 278
f 325 295 298
f 325 298 326
f 298 299 327
f 298 327 328
f 277 307 327
f 277 327 275
f 299 276 275
f 299 275 327
f 324 328 329
f 324 329 320
f 302 320 329
f 302 329 303
f 303 329 307
f 303 307 304
f 328 327 307
f 328 307 329
f 328 324 326
f 328 326 298
f 323 319 326
f 323 326 324
f 323 322 318
f 323 318 319
f 15 318 322
f 15 322 13
f 5 2 1
f 5 1 201
f 330 10 6
f 330 6 5
f 206 314 313
f 206 313 331
f 331 201 200
f 331 200 206
f 313 309 330
f 313 330 331
f 331 330 5
f 331 5 201
f 330 309 25
f 330 25 10
f 11 10 25
f 11 25 16
f 21 20 83
f 21 83 112
f 21 14 12
f 21 12 17
f 104 103 15
f 104 15 14
f 21 112 104
f 21 104 14
f 23 139 20
f 23 20 19
