# Rib_6L rest
v 0.117073 -0.070151 0.063871
v 0.118100 -0.069486 0.065166
v 0.123979 -0.062088 0.051680
v 0.123231 -0.062781 0.050747
v 0.124905 -0.054655 0.033189
v 0.124273 -0.056662 0.031685
v 0.122725 -0.065581 0.048838
v 0.124605 -0.045699 0.012735
v 0.123975 -0.047708 0.010986
v 0.124044 -0.051115 0.008615
v 0.124796 -0.060892 0.029499
v 0.122207 -0.039049 -0.007647
v 0.122151 -0.042228 -0.010551
v 0.118362 -0.034437 -0.020385
v 0.118528 -0.037290 -0.023355
v 0.124998 -0.053388 0.007533
v 0.122965 -0.044307 -0.012584
v 0.123703 -0.045096 -0.013188
v 0.125655 -0.054373 0.007585
v 0.119380 -0.039412 -0.025848
v 0.120101 -0.040162 -0.026986
v 0.125179 -0.045408 -0.013775
v 0.126695 -0.055014 0.007526
v 0.126790 -0.064377 0.029341
v 0.125966 -0.063238 0.029090
v 0.027876 0.011319 -0.046481
v 0.028648 0.010692 -0.045056
v 0.032364 0.009380 -0.048405
v 0.031760 0.011176 -0.050096
v 0.036744 0.008083 -0.051967
v 0.042435 0.007505 -0.055436
v 0.041828 0.008900 -0.056516
v 0.036198 0.009742 -0.053016
v 0.034957 0.009296 -0.054638
v 0.040560 0.008626 -0.058297
v 0.030540 0.009832 -0.051218
v 0.038702 0.005317 -0.060090
v 0.039160 0.006931 -0.059982
v 0.046249 0.006048 -0.062373
v 0.046028 0.004354 -0.062542
v 0.054806 0.002531 -0.063918
v 0.054998 0.004149 -0.063650
v 0.048503 0.008355 -0.059234
v 0.048967 0.006791 -0.058071
v 0.056908 0.004699 -0.059670
v 0.056795 0.006454 -0.060584
v 0.067639 0.001207 -0.059977
v 0.068084 0.002809 -0.061057
v 0.067508 0.002136 -0.063312
v 0.055702 0.005732 -0.062742
v 0.047251 0.007702 -0.061150
v 0.066564 0.000377 -0.064296
v 0.065945 -0.001255 -0.064568
v 0.054734 0.001048 -0.063661
v 0.065526 -0.002710 -0.064623
v 0.078301 -0.006898 -0.063890
v 0.077527 -0.008326 -0.064061
v 0.065177 -0.004000 -0.064288
v 0.054777 -0.000034 -0.062864
v 0.076769 -0.009578 -0.063626
v 0.088308 -0.011204 -0.056592
v 0.077981 -0.006081 -0.059087
v 0.077418 -0.007342 -0.059707
v 0.087796 -0.012578 -0.057410
v 0.066375 -0.002439 -0.060647
v 0.066844 -0.001301 -0.060208
v 0.076876 -0.008665 -0.060781
v 0.087479 -0.014101 -0.058734
v 0.065732 -0.003699 -0.061545
v 0.056187 0.001218 -0.059781
v 0.055620 0.000189 -0.060387
v 0.065135 -0.004577 -0.063034
v 0.055060 -0.000371 -0.061620
v 0.076517 -0.009688 -0.062261
v 0.087368 -0.015148 -0.060038
v 0.107538 -0.025043 -0.052212
v 0.114622 -0.029926 -0.045483
v 0.112532 -0.031509 -0.045445
v 0.105748 -0.026593 -0.052176
v 0.119659 -0.034350 -0.037593
v 0.117614 -0.036043 -0.037631
v 0.116073 -0.036128 -0.036752
v 0.111385 -0.031576 -0.044814
v 0.104554 -0.026783 -0.051471
v 0.099449 -0.019519 -0.057911
v 0.098009 -0.021054 -0.057953
v 0.100086 -0.017615 -0.056810
v 0.108053 -0.022927 -0.050950
v 0.090638 -0.011524 -0.061049
v 0.091453 -0.009266 -0.059695
v 0.100474 -0.015024 -0.055145
v 0.107917 -0.020114 -0.049015
v 0.089782 -0.013303 -0.061947
v 0.096754 -0.021406 -0.057005
v 0.087670 -0.015520 -0.061277
v 0.088746 -0.014789 -0.062166
v 0.079230 -0.005346 -0.063469
v 0.080247 -0.003593 -0.062549
v 0.095929 -0.019939 -0.054741
v 0.096293 -0.020977 -0.056025
v 0.110144 -0.029590 -0.042175
v 0.114680 -0.033486 -0.033261
v 0.114390 -0.030472 -0.030506
v 0.109494 -0.026902 -0.039779
v 0.109467 -0.024951 -0.038321
v 0.114672 -0.028646 -0.029104
v 0.103261 -0.020918 -0.045922
v 0.102977 -0.022702 -0.047071
v 0.103403 -0.025085 -0.049148
v 0.096472 -0.016231 -0.052145
v 0.095943 -0.017722 -0.053004
v 0.115487 -0.035642 -0.035756
v 0.110921 -0.031118 -0.044001
v 0.104084 -0.026344 -0.050679
v 0.047206 0.001873 -0.058897
v 0.046578 0.001976 -0.060377
v 0.046129 0.002917 -0.061921
v 0.038976 0.003850 -0.058907
v 0.032678 0.005859 -0.056497
v 0.032964 0.003947 -0.055052
v 0.084060 -0.094626 0.089323
v 0.084930 -0.092627 0.089632
v 0.083338 -0.093151 0.088307
v 0.083074 -0.095058 0.088447
v 0.086856 -0.093937 0.083953
v 0.086790 -0.096043 0.085546
v 0.083849 -0.095654 0.086954
v 0.083146 -0.094226 0.084781
v 0.082071 -0.093876 0.085782
v 0.084300 -0.088569 0.084059
v 0.084764 -0.088994 0.083110
v 0.083093 -0.095107 0.087615
v 0.084872 -0.088103 0.087104
v 0.085593 -0.082637 0.086045
v 0.086438 -0.083237 0.084123
v 0.127359 -0.065040 0.029705
v 0.128918 -0.054276 0.007314
v 0.126936 -0.044372 -0.013912
v 0.121633 -0.040146 -0.027852
v 0.123235 -0.038821 -0.027763
v 0.123143 -0.069833 0.046936
v 0.124353 -0.072813 0.046389
v 0.117445 -0.077738 0.061136
v 0.116658 -0.072965 0.062216
v 0.118926 -0.081695 0.061169
v 0.109470 -0.083185 0.070239
v 0.108855 -0.078384 0.071195
v 0.110652 -0.087140 0.070366
v 0.122718 -0.036957 -0.005527
v 0.118702 -0.032483 -0.018496
v 0.123102 -0.036062 -0.004237
v 0.119118 -0.031232 -0.017477
v 0.124292 -0.035680 -0.004109
v 0.120445 -0.030332 -0.017629
v 0.126422 -0.036622 -0.006130
v 0.122508 -0.031274 -0.019975
v 0.128227 -0.046107 0.013000
v 0.129341 -0.049077 0.010458
v 0.127488 -0.039142 -0.009468
v 0.129067 -0.056639 0.034485
v 0.130746 -0.060739 0.032788
v 0.127334 -0.053702 0.035187
v 0.126287 -0.044374 0.014460
v 0.123692 -0.033566 -0.023089
v 0.127800 -0.041989 -0.012471
v 0.123991 -0.036321 -0.026056
v 0.129940 -0.052019 0.008023
v 0.115892 -0.026056 -0.028292
v 0.118285 -0.026390 -0.030533
v 0.109797 -0.023516 -0.037593
v 0.114942 -0.027384 -0.028330
v 0.110822 -0.022063 -0.037556
v 0.113137 -0.022010 -0.039317
v 0.124924 -0.044899 0.013935
v 0.125380 -0.053872 0.034268
v 0.094121 -0.088457 0.080126
v 0.094955 -0.092339 0.081377
v 0.090689 -0.093269 0.083252
v 0.090340 -0.089544 0.081404
v 0.095562 -0.094246 0.082755
v 0.090906 -0.095085 0.084774
v 0.091261 -0.095444 0.086377
v 0.087594 -0.096292 0.087382
v 0.095910 -0.094587 0.084230
v 0.102334 -0.090418 0.076885
v 0.103273 -0.092564 0.077839
v 0.111704 -0.089299 0.071030
v 0.101211 -0.086590 0.076362
v 0.113665 -0.084686 0.075038
v 0.122702 -0.079329 0.065969
v 0.121409 -0.074568 0.066551
v 0.112954 -0.080043 0.075491
v 0.112663 -0.090104 0.071995
v 0.121151 -0.084654 0.062388
v 0.122249 -0.084164 0.063533
v 0.113383 -0.089573 0.072967
v 0.126612 -0.075467 0.047116
v 0.128521 -0.075258 0.048469
v 0.125338 -0.074328 0.046622
v 0.119974 -0.083592 0.061636
v 0.129959 -0.065267 0.030266
v 0.130941 -0.063627 0.031294
v 0.129339 -0.073741 0.049599
v 0.129028 -0.070465 0.050898
v 0.127580 -0.065955 0.052075
v 0.125701 -0.062232 0.052670
v 0.032379 0.008282 -0.047571
v 0.036624 0.006993 -0.051505
v 0.032229 0.006898 -0.046735
v 0.036344 0.006005 -0.051155
v 0.056795 0.003260 -0.059563
v 0.048925 0.005272 -0.057749
v 0.080345 -0.002374 -0.060363
v 0.091018 -0.007445 -0.057299
v 0.099849 -0.012264 -0.052671
v 0.106947 -0.017419 -0.046708
v 0.114325 -0.024490 -0.041700
v 0.114933 -0.027451 -0.043928
v 0.120282 -0.031640 -0.035933
v 0.119603 -0.028758 -0.033342
v 0.104572 -0.017968 -0.045089
v 0.103712 -0.019489 -0.045284
v 0.096981 -0.014941 -0.051572
v 0.097754 -0.013426 -0.051258
v 0.088829 -0.009843 -0.056019
v 0.089493 -0.008505 -0.055891
v 0.078552 -0.004796 -0.058704
v 0.079350 -0.003268 -0.058810
v 0.067222 -0.000196 -0.059955
v 0.031792 0.005397 -0.046493
v 0.035888 0.005083 -0.050966
v 0.041686 0.004354 -0.054674
v 0.042118 0.005188 -0.054763
v 0.042406 0.006183 -0.055038
v 0.048698 0.004191 -0.057588
v 0.056563 0.002231 -0.059603
v 0.048326 0.003257 -0.057606
v 0.047824 0.002406 -0.057959
v 0.041166 0.003609 -0.054807
v 0.040619 0.003126 -0.055310
v 0.035331 0.004195 -0.051008
v 0.031202 0.004016 -0.047013
v 0.026981 0.003115 -0.046885
v 0.025890 0.004487 -0.048100
v 0.028870 0.004095 -0.051520
v 0.029660 0.002862 -0.049650
v 0.033839 0.002845 -0.052749
v 0.039769 0.002830 -0.056787
v 0.034795 0.003664 -0.051314
v 0.030530 0.003092 -0.048003
v 0.027881 0.002724 -0.045481
v 0.028371 0.003439 -0.043815
v 0.028864 0.005289 -0.041882
v 0.029309 0.007974 -0.041650
v 0.027250 0.005748 -0.041817
v 0.027637 0.007814 -0.041094
v 0.026966 0.003011 -0.044812
v 0.026941 0.003580 -0.043616
v 0.026148 0.004977 -0.044432
v 0.026160 0.003788 -0.045687
v 0.026521 0.007154 -0.042951
v 0.026579 0.010476 -0.045111
v 0.026757 0.010097 -0.043939
v 0.029067 0.009779 -0.043184
v 0.027121 0.009143 -0.042211
v 0.025955 0.008550 -0.044590
v 0.025979 0.009622 -0.045888
v 0.025327 0.006668 -0.045825
v 0.025188 0.005265 -0.046719
v 0.024877 0.006634 -0.047412
v 0.025487 0.006558 -0.048804
v 0.025184 0.008114 -0.046882
v 0.026079 0.008819 -0.048319
v 0.026925 0.010392 -0.047425
v 0.029445 0.008334 -0.052054
v 0.033363 0.007732 -0.056231
v 0.028776 0.006264 -0.052477
v 0.086120 -0.082974 0.088467
v 0.086439 -0.081156 0.088121
v 0.086067 -0.080927 0.087397
v 0.111775 -0.075860 0.074621
v 0.110568 -0.074630 0.073299
v 0.102063 -0.078458 0.079896
v 0.103205 -0.079657 0.081211
v 0.119744 -0.070528 0.066370
v 0.104133 -0.083231 0.082101
v 0.096765 -0.080195 0.084822
v 0.097088 -0.083329 0.086468
v 0.096244 -0.079299 0.083187
v 0.089348 -0.080658 0.087809
v 0.092510 -0.080568 0.086596
v 0.092006 -0.079654 0.085082
v 0.088930 -0.079933 0.086472
v 0.085917 -0.081100 0.086009
v 0.087186 -0.080382 0.087443
v 0.086704 -0.080876 0.085634
v 0.088489 -0.080582 0.084625
v 0.091257 -0.080399 0.083343
v 0.093961 -0.083117 0.080098
v 0.090765 -0.083689 0.081504
v 0.088021 -0.083434 0.082427
v 0.086952 -0.083535 0.083263
v 0.087705 -0.089431 0.082138
v 0.095261 -0.080159 0.081740
v 0.100876 -0.079099 0.079085
v 0.100193 -0.082085 0.077156
v 0.109527 -0.075341 0.072293
v 0.092745 -0.083327 0.088154
v 0.089514 -0.083158 0.089146
v 0.089446 -0.087499 0.090121
v 0.092560 -0.087479 0.089220
v 0.089351 -0.092578 0.089713
v 0.092446 -0.092112 0.088921
v 0.085453 -0.095326 0.089127
v 0.086635 -0.092788 0.089931
v 0.091816 -0.094624 0.087651
v 0.088422 -0.095424 0.088490
v 0.084138 -0.095996 0.088095
v 0.085828 -0.087753 0.089366
v 0.087479 -0.083035 0.089225
v 0.087476 -0.080834 0.088221
v 0.087379 -0.087660 0.089847
v 0.122854 -0.082503 0.064752
v 0.113780 -0.087810 0.074014
v 0.104888 -0.087446 0.081848
v 0.097359 -0.087787 0.086753
v 0.104842 -0.090924 0.081306
v 0.103946 -0.093291 0.079059
v 0.104414 -0.092835 0.080260
v 0.096242 -0.093921 0.085524
v 0.096872 -0.091789 0.086648
f 1 2 3
f 1 3 4
f 4 5 6
f 4 6 7
f 6 5 8
f 6 8 9
f 9 10 11
f 9 11 6
f 9 12 13
f 9 13 10
f 13 12 14
f 13 14 15
f 16 10 13
f 16 13 17
f 17 18 19
f 17 19 16
f 18 17 20
f 18 20 21
f 19 18 22
f 19 22 23
f 24 25 16
f 24 16 19
f 26 27 28
f 26 28 29
f 30 31 32
f 30 32 33
f 34 33 32
f 34 32 35
f 29 28 30
f 29 30 33
f 34 36 29
f 34 29 33
f 37 38 39
f 37 39 40
f 41 40 39
f 41 39 42
f 43 44 45
f 43 45 46
f 46 45 47
f 46 47 48
f 46 48 49
f 46 49 50
f 51 50 42
f 51 42 39
f 38 35 51
f 38 51 39
f 35 32 43
f 35 43 51
f 51 43 46
f 51 46 50
f 49 52 42
f 49 42 50
f 41 42 52
f 41 52 53
f 54 41 53
f 54 53 55
f 55 53 56
f 55 56 57
f 54 55 58
f 54 58 59
f 58 55 57
f 58 57 60
f 61 62 63
f 61 63 64
f 65 63 62
f 65 62 66
f 67 68 64
f 67 64 63
f 69 67 63
f 69 63 65
f 69 65 70
f 69 70 71
f 72 69 71
f 72 71 73
f 72 74 67
f 72 67 69
f 75 68 67
f 75 67 74
f 76 77 78
f 76 78 79
f 77 80 81
f 77 81 78
f 78 81 82
f 78 82 83
f 84 79 78
f 84 78 83
f 85 76 79
f 85 79 86
f 76 85 87
f 76 87 88
f 89 90 91
f 89 91 87
f 87 91 92
f 87 92 88
f 93 89 87
f 93 87 85
f 86 94 95
f 86 95 96
f 96 95 60
f 96 60 57
f 93 96 57
f 93 57 56
f 52 97 56
f 52 56 53
f 49 98 97
f 49 97 52
f 98 90 89
f 98 89 97
f 97 89 93
f 97 93 56
f 93 85 86
f 93 86 96
f 94 86 79
f 94 79 84
f 99 68 75
f 99 75 100
f 101 102 103
f 101 103 104
f 105 104 103
f 105 103 106
f 107 108 104
f 107 104 105
f 108 109 101
f 108 101 104
f 108 107 110
f 108 110 111
f 61 64 111
f 61 111 110
f 99 111 64
f 99 64 68
f 111 99 109
f 111 109 108
f 112 113 83
f 112 83 82
f 112 102 101
f 112 101 113
f 113 114 84
f 113 84 83
f 109 114 113
f 109 113 101
f 114 109 99
f 114 99 100
f 114 100 94
f 114 94 84
f 94 100 75
f 94 75 95
f 75 74 60
f 75 60 95
f 58 60 74
f 58 74 72
f 58 72 73
f 58 73 59
f 59 73 115
f 59 115 116
f 116 117 54
f 116 54 59
f 54 117 40
f 54 40 41
f 117 118 37
f 117 37 40
f 119 37 118
f 119 118 120
f 121 122 123
f 121 123 124
f 125 126 127
f 125 127 128
f 129 130 131
f 129 131 128
f 129 128 127
f 129 127 132
f 129 132 124
f 129 124 123
f 130 129 123
f 130 123 133
f 134 135 130
f 134 130 133
f 24 19 23
f 24 23 136
f 137 23 22
f 137 22 138
f 139 140 138
f 139 138 22
f 22 18 21
f 22 21 139
f 20 15 102
f 20 102 112
f 102 15 14
f 102 14 103
f 20 17 13
f 20 13 15
f 20 112 82
f 20 82 21
f 10 16 25
f 10 25 11
f 141 11 25
f 141 25 142
f 143 144 7
f 143 7 141
f 145 143 141
f 145 141 142
f 143 146 147
f 143 147 144
f 146 143 145
f 146 145 148
f 141 7 6
f 141 6 11
f 7 144 1
f 7 1 4
f 14 12 149
f 14 149 150
f 151 152 150
f 151 150 149
f 151 153 154
f 151 154 152
f 155 156 154
f 155 154 153
f 155 157 158
f 155 158 159
f 160 161 158
f 160 158 157
f 162 160 157
f 162 157 163
f 153 163 157
f 153 157 155
f 164 159 165
f 164 165 166
f 167 165 159
f 167 159 158
f 156 155 159
f 156 159 164
f 168 154 156
f 168 156 169
f 170 171 168
f 170 168 172
f 168 169 173
f 168 173 172
f 168 171 152
f 168 152 154
f 151 174 163
f 151 163 153
f 174 151 149
f 174 149 8
f 5 175 174
f 5 174 8
f 9 8 149
f 9 149 12
f 163 174 175
f 163 175 162
f 14 150 106
f 14 106 103
f 150 152 171
f 150 171 106
f 3 175 5
f 3 5 4
f 176 177 178
f 176 178 179
f 177 180 181
f 177 181 178
f 178 181 126
f 178 126 125
f 182 183 126
f 182 126 181
f 182 181 180
f 182 180 184
f 177 185 186
f 177 186 180
f 185 148 187
f 185 187 186
f 188 146 148
f 188 148 185
f 185 177 176
f 185 176 188
f 189 190 191
f 189 191 192
f 193 194 195
f 193 195 196
f 197 198 195
f 197 195 194
f 197 199 24
f 197 24 136
f 194 200 199
f 194 199 197
f 145 142 199
f 145 199 200
f 187 148 145
f 187 145 200
f 187 200 194
f 187 194 193
f 24 199 142
f 24 142 25
f 198 197 136
f 198 136 201
f 198 201 202
f 198 202 203
f 204 203 202
f 204 202 161
f 158 161 202
f 158 202 167
f 202 201 137
f 202 137 167
f 201 136 23
f 201 23 137
f 204 205 191
f 204 191 190
f 205 160 162
f 205 162 206
f 160 205 204
f 160 204 161
f 206 162 175
f 206 175 3
f 207 208 30
f 207 30 28
f 208 207 209
f 208 209 210
f 43 32 31
f 43 31 44
f 211 45 44
f 211 44 212
f 213 98 49
f 213 49 48
f 214 90 98
f 214 98 213
f 214 215 91
f 214 91 90
f 92 91 215
f 92 215 216
f 217 92 216
f 217 216 173
f 92 217 218
f 92 218 88
f 76 88 218
f 76 218 77
f 80 77 218
f 80 218 219
f 217 220 219
f 217 219 218
f 164 166 219
f 164 219 220
f 156 164 220
f 156 220 169
f 169 220 217
f 169 217 173
f 80 219 166
f 80 166 140
f 221 172 173
f 221 173 216
f 221 222 170
f 221 170 172
f 170 222 107
f 170 107 105
f 107 222 223
f 107 223 110
f 222 221 224
f 222 224 223
f 224 221 216
f 224 216 215
f 225 223 224
f 225 224 226
f 227 62 61
f 227 61 225
f 226 228 227
f 226 227 225
f 66 62 227
f 66 227 229
f 47 229 227
f 47 227 228
f 225 61 110
f 225 110 223
f 214 226 224
f 214 224 215
f 213 228 226
f 213 226 214
f 47 228 213
f 47 213 48
f 211 229 47
f 211 47 45
f 171 170 105
f 171 105 106
f 167 137 138
f 167 138 165
f 140 166 165
f 140 165 138
f 139 81 80
f 139 80 140
f 82 81 139
f 82 139 21
f 209 230 231
f 209 231 210
f 210 231 232
f 210 232 233
f 234 208 210
f 234 210 233
f 234 212 44
f 234 44 31
f 208 234 31
f 208 31 30
f 234 233 235
f 234 235 212
f 236 70 65
f 236 65 66
f 229 211 236
f 229 236 66
f 236 211 212
f 236 212 235
f 70 236 235
f 70 235 237
f 115 73 71
f 115 71 238
f 238 71 70
f 238 70 237
f 115 238 239
f 115 239 240
f 239 238 237
f 239 237 232
f 237 235 233
f 237 233 232
f 231 241 239
f 231 239 232
f 231 230 242
f 231 242 241
f 243 244 245
f 243 245 246
f 247 246 245
f 247 245 120
f 247 120 118
f 247 118 248
f 118 117 116
f 118 116 248
f 115 240 248
f 115 248 116
f 249 240 239
f 249 239 241
f 249 241 242
f 249 242 250
f 249 247 248
f 249 248 240
f 246 247 249
f 246 249 250
f 243 246 250
f 243 250 251
f 250 242 252
f 250 252 251
f 253 252 242
f 253 242 230
f 254 253 230
f 254 230 209
f 255 253 254
f 255 254 256
f 257 258 259
f 257 259 260
f 259 258 255
f 259 255 261
f 262 263 27
f 262 27 26
f 256 254 264
f 256 264 265
f 264 254 209
f 264 209 207
f 27 264 207
f 27 207 28
f 265 264 27
f 265 27 263
f 261 265 263
f 261 263 266
f 266 263 262
f 266 262 267
f 259 268 269
f 259 269 260
f 243 260 269
f 243 269 244
f 244 269 270
f 244 270 271
f 270 272 273
f 270 273 271
f 267 262 26
f 267 26 274
f 274 26 29
f 274 29 36
f 36 275 273
f 36 273 274
f 38 276 34
f 38 34 35
f 119 276 38
f 119 38 37
f 276 275 36
f 276 36 34
f 244 271 277
f 244 277 245
f 120 245 277
f 120 277 119
f 277 275 276
f 277 276 119
f 273 275 277
f 273 277 271
f 273 272 267
f 273 267 274
f 267 272 268
f 267 268 266
f 268 272 270
f 268 270 269
f 268 259 261
f 268 261 266
f 261 255 256
f 261 256 265
f 255 258 252
f 255 252 253
f 257 251 252
f 257 252 258
f 251 257 260
f 251 260 243
f 278 279 280
f 278 280 134
f 281 282 283
f 281 283 284
f 191 205 206
f 191 206 285
f 285 206 3
f 285 3 2
f 281 192 191
f 281 191 285
f 282 281 285
f 282 285 2
f 286 192 281
f 286 281 284
f 287 288 286
f 287 286 284
f 289 287 284
f 289 284 283
f 290 291 292
f 290 292 293
f 294 280 295
f 294 295 296
f 295 293 297
f 295 297 296
f 293 292 298
f 293 298 297
f 299 176 179
f 299 179 300
f 301 297 298
f 301 298 300
f 130 135 302
f 130 302 131
f 294 296 302
f 294 302 135
f 302 296 297
f 302 297 301
f 178 125 303
f 178 303 179
f 131 303 125
f 131 125 128
f 301 303 131
f 301 131 302
f 301 300 179
f 301 179 303
f 304 289 283
f 304 283 305
f 306 147 146
f 306 146 188
f 306 188 176
f 306 176 299
f 305 283 282
f 305 282 307
f 282 2 1
f 282 1 307
f 307 1 144
f 307 144 147
f 307 147 306
f 307 306 305
f 304 305 306
f 304 306 299
f 304 299 300
f 304 300 298
f 298 292 289
f 298 289 304
f 289 292 291
f 289 291 287
f 291 308 288
f 291 288 287
f 308 309 310
f 308 310 311
f 311 310 312
f 311 312 313
f 121 314 315
f 121 315 122
f 182 316 317
f 182 317 183
f 318 314 121
f 318 121 124
f 124 132 127
f 124 127 318
f 318 127 126
f 318 126 183
f 314 318 183
f 314 183 317
f 315 314 317
f 315 317 312
f 134 133 319
f 134 319 278
f 133 123 122
f 133 122 319
f 278 320 321
f 278 321 279
f 320 322 310
f 320 310 309
f 321 320 309
f 321 309 290
f 320 278 319
f 320 319 322
f 315 322 319
f 315 319 122
f 315 312 310
f 315 310 322
f 312 317 316
f 312 316 313
f 323 195 198
f 323 198 203
f 203 204 190
f 203 190 323
f 196 195 323
f 196 323 324
f 189 324 323
f 189 323 190
f 189 192 286
f 189 286 325
f 325 286 288
f 325 288 326
f 325 327 324
f 325 324 189
f 328 184 180
f 328 180 186
f 328 186 187
f 328 187 193
f 329 328 193
f 329 193 196
f 316 182 184
f 316 184 330
f 327 331 330
f 327 330 329
f 330 184 328
f 330 328 329
f 327 329 196
f 327 196 324
f 331 327 325
f 331 325 326
f 331 313 316
f 331 316 330
f 311 313 331
f 311 331 326
f 308 311 326
f 308 326 288
f 308 291 290
f 308 290 309
f 321 290 293
f 321 293 295
f 321 295 280
f 321 280 279
f 280 294 135
f 280 135 134
