# Rib_1R posed
v -0.534906 0.056924 0.427070
v -0.536764 0.058927 0.429777
v -0.537724 0.057113 0.431016
v -0.535864 0.055014 0.428564
v -0.541538 0.057011 0.434858
v -0.539093 0.055774 0.432116
v -0.539996 0.058630 0.433841
v -0.544485 0.057339 0.438345
v -0.542808 0.059348 0.437486
v -0.539183 0.060513 0.432893
v -0.542195 0.061202 0.436954
v -0.546038 0.059509 0.440924
v -0.545355 0.061714 0.440532
v -0.549509 0.059008 0.444508
v -0.549148 0.061336 0.444544
v -0.564276 0.050082 0.454601
v -0.557392 0.053950 0.449758
v -0.556704 0.056177 0.450330
v -0.563971 0.051816 0.455544
v -0.550714 0.056809 0.444662
v -0.547692 0.057430 0.441536
v -0.548262 0.057313 0.441535
v -0.545375 0.057372 0.438413
v -0.551593 0.056321 0.444673
v -0.557969 0.053340 0.449565
v -0.564973 0.049287 0.454181
v -0.566293 0.049553 0.454618
v -0.558852 0.053802 0.449856
v -0.552550 0.057142 0.444859
v -0.548975 0.057932 0.441512
v -0.553503 0.058812 0.445118
v -0.549931 0.059497 0.441488
v -0.559855 0.055285 0.450439
v -0.567566 0.050481 0.455435
v -0.568615 0.051927 0.456506
v -0.560344 0.056946 0.450979
v -0.553955 0.060435 0.445246
v -0.556846 0.058203 0.451052
v -0.548798 0.063495 0.444506
v -0.556932 0.060161 0.451774
v -0.548488 0.065501 0.444422
v -0.556910 0.061992 0.452455
v -0.544830 0.063873 0.440093
v -0.544413 0.065869 0.439578
v -0.544169 0.067659 0.438905
v -0.548303 0.067395 0.444153
v -0.541124 0.066451 0.434936
v -0.541420 0.067851 0.434300
v -0.544368 0.069010 0.438414
v -0.548603 0.068716 0.443956
v -0.549310 0.064709 0.440194
v -0.546323 0.063780 0.436413
v -0.546940 0.062016 0.437260
v -0.549912 0.062790 0.440859
v -0.547165 0.060361 0.437841
v -0.550149 0.061014 0.441262
v -0.553947 0.062165 0.445202
v -0.553665 0.064034 0.445005
v -0.560728 0.058503 0.451580
v -0.560998 0.060370 0.452155
v -0.546909 0.059064 0.438207
v -0.543918 0.059726 0.434090
v -0.543757 0.058537 0.434654
v -0.541024 0.058021 0.431048
v -0.540972 0.056856 0.431847
v -0.538760 0.055830 0.428249
v -0.538875 0.054634 0.429342
v -0.537231 0.053768 0.425874
v -0.537170 0.052626 0.427051
v -0.536110 0.051341 0.424662
v -0.535819 0.050068 0.425784
v -0.535824 0.052370 0.423306
v -0.537014 0.054901 0.424473
v -0.535377 0.053391 0.422250
v -0.533898 0.050862 0.421004
v -0.534235 0.049932 0.421828
v -0.534569 0.055119 0.420639
v -0.536588 0.055952 0.423308
v -0.535812 0.057506 0.421753
v -0.533235 0.056596 0.418757
v -0.534732 0.059179 0.420031
v -0.531583 0.053614 0.418230
v -0.533101 0.052502 0.419847
v -0.532914 0.051035 0.420983
v -0.533231 0.050385 0.421692
v -0.531897 0.052906 0.420825
v -0.532447 0.051853 0.421755
v -0.532433 0.051983 0.420211
v -0.532922 0.050184 0.422604
v -0.533461 0.049656 0.422365
v -0.534417 0.049133 0.422877
v -0.533308 0.048535 0.423123
v -0.533986 0.047547 0.423901
v -0.538603 0.057075 0.427098
v -0.540877 0.059296 0.430056
v -0.535572 0.048469 0.426755
v -0.537155 0.051488 0.428059
v -0.533325 0.045258 0.424688
v -0.532750 0.046334 0.423923
v -0.532422 0.048358 0.423526
v -0.531740 0.050683 0.422603
v -0.530954 0.048573 0.422867
v -0.531817 0.046266 0.423823
v -0.532328 0.045303 0.424122
v -0.533008 0.044158 0.425142
v -0.535576 0.047443 0.427561
v -0.532173 0.044706 0.424819
v -0.534653 0.047901 0.427148
v -0.536940 0.050814 0.428660
v -0.538454 0.053701 0.429946
v -0.537695 0.053317 0.430041
v -0.540538 0.056138 0.432187
v -0.543092 0.057697 0.434866
v -0.539816 0.055634 0.432320
v -0.542176 0.057029 0.434943
v -0.536305 0.051184 0.428390
v -0.533173 0.049825 0.425817
v -0.534595 0.052841 0.426834
v -0.536891 0.053708 0.429662
v -0.546188 0.058044 0.438345
v -0.551727 0.067982 0.443903
v -0.561044 0.064016 0.453105
v -0.559232 0.065582 0.453483
v -0.549642 0.069432 0.443764
v -0.574613 0.042908 0.458299
v -0.576191 0.043863 0.459342
v -0.573553 0.043023 0.458386
v -0.566581 0.060018 0.461226
v -0.557736 0.065106 0.453482
v -0.568310 0.060210 0.461380
v -0.596512 0.031601 0.467754
v -0.597261 0.032976 0.470139
v -0.589065 0.040845 0.467849
v -0.588161 0.039381 0.465839
v -0.597409 0.034370 0.472377
v -0.589418 0.042391 0.469767
v -0.597033 0.035473 0.474047
v -0.589227 0.043736 0.471443
v -0.609857 0.017257 0.468988
v -0.610460 0.018658 0.472116
v -0.604834 0.023914 0.469692
v -0.603347 0.022861 0.466895
v -0.613265 0.010062 0.470528
v -0.611419 0.014873 0.473157
v -0.611864 0.009227 0.471512
v -0.610570 0.013569 0.473633
v -0.610067 0.016099 0.475953
v -0.612441 0.016702 0.476050
v -0.610812 0.020362 0.474878
v -0.605543 0.025170 0.472408
v -0.538937 0.064254 0.425936
v -0.536685 0.061743 0.422822
v -0.537619 0.060023 0.424357
v -0.539932 0.062500 0.427344
v -0.537565 0.065434 0.425228
v -0.535251 0.062921 0.422139
v -0.536032 0.064799 0.425733
v -0.533984 0.062427 0.422716
v -0.533282 0.060432 0.419240
v -0.532400 0.060038 0.420128
v -0.529923 0.057379 0.417315
v -0.531380 0.057616 0.417355
v -0.529491 0.056846 0.418456
v -0.531994 0.059187 0.421049
v -0.527789 0.053115 0.416722
v -0.528283 0.053441 0.416084
v -0.528773 0.053123 0.417909
v -0.529234 0.053448 0.417695
v -0.530235 0.053035 0.420194
v -0.528837 0.052615 0.418832
v -0.529463 0.051528 0.420419
v -0.531060 0.052058 0.421527
v -0.530205 0.050119 0.421795
v -0.528670 0.051228 0.420024
v -0.529541 0.049294 0.421731
v -0.530904 0.047097 0.423565
v -0.531562 0.052100 0.423937
v -0.530484 0.054257 0.421991
v -0.528174 0.052661 0.418295
v -0.530893 0.053679 0.419545
v -0.531328 0.053180 0.419024
v -0.529965 0.053606 0.417824
v -0.529728 0.054064 0.416676
v -0.533354 0.054828 0.425133
v -0.614108 0.006424 0.469622
v -0.612458 0.005975 0.470109
v -0.617176 -0.000784 0.462469
v -0.614059 -0.000959 0.462480
v -0.613589 0.001480 0.465089
v -0.615976 0.002234 0.465413
v -0.617202 0.001307 0.461674
v -0.615743 0.004830 0.464215
v -0.617010 -0.001851 0.459129
v -0.616788 -0.002826 0.460085
v -0.613389 -0.001860 0.458118
v -0.614200 -0.002826 0.459931
v -0.611405 -0.001761 0.459907
v -0.610854 0.000054 0.462038
v -0.609753 -0.000523 0.458847
v -0.609146 0.001995 0.461154
v -0.611167 0.001429 0.457961
v -0.609520 0.001435 0.458416
v -0.609395 0.003941 0.460182
v -0.610831 0.004333 0.459745
v -0.614524 0.000270 0.458444
v -0.608890 0.004674 0.463508
v -0.610378 0.002442 0.464557
v -0.606210 0.017911 0.476003
v -0.607360 0.017169 0.474715
v -0.604471 0.020301 0.472668
v -0.603468 0.021315 0.474660
v -0.608779 0.014255 0.472882
v -0.610024 0.016277 0.477605
v -0.605102 0.018790 0.470454
v -0.608027 0.011287 0.463069
v -0.609940 0.011016 0.463600
v -0.605665 0.017182 0.464220
v -0.604366 0.017293 0.464186
v -0.608092 0.016843 0.466043
v -0.613335 0.009475 0.466717
v -0.615145 0.004659 0.467927
v -0.613179 0.003369 0.467612
v -0.612464 0.006968 0.462358
v -0.614176 0.003162 0.460412
v -0.609868 0.007685 0.461640
v -0.609791 0.010301 0.470399
v -0.610087 0.006931 0.469407
v -0.605210 0.016869 0.466898
v -0.610079 0.004671 0.467150
v -0.608672 0.007872 0.466170
v -0.609005 0.006951 0.462406
v -0.607928 0.010490 0.464483
v -0.597683 0.022981 0.463855
v -0.598698 0.022701 0.463464
v -0.601167 0.022519 0.464718
v -0.595196 0.030333 0.465390
v -0.586786 0.038021 0.463837
v -0.593186 0.029602 0.463459
v -0.585059 0.036854 0.462177
v -0.582975 0.036216 0.461021
v -0.581664 0.036514 0.461166
v -0.589641 0.029654 0.462610
v -0.590578 0.029255 0.462143
v -0.589398 0.032987 0.467658
v -0.588876 0.031981 0.465714
v -0.581080 0.039066 0.463608
v -0.581715 0.040503 0.465414
v -0.572767 0.045723 0.460319
v -0.572953 0.044086 0.459187
v -0.581014 0.037654 0.462165
v -0.564371 0.053529 0.456647
v -0.564835 0.055371 0.457916
v -0.573946 0.049226 0.463461
v -0.573446 0.047449 0.461862
v -0.588968 0.030806 0.463953
v -0.597104 0.023824 0.465682
v -0.596507 0.024947 0.467843
v -0.596755 0.025783 0.470023
v -0.593341 0.036107 0.474200
v -0.591548 0.035651 0.473047
v -0.583791 0.043863 0.470577
v -0.585461 0.044463 0.471646
v -0.579714 0.052023 0.466954
v -0.587582 0.044502 0.472140
v -0.577641 0.053436 0.467638
v -0.570132 0.058978 0.460886
v -0.561194 0.062106 0.452648
v -0.570277 0.057148 0.459906
v -0.579437 0.048604 0.463975
v -0.579824 0.050351 0.465569
v -0.569905 0.055368 0.458801
v -0.575548 0.053336 0.467254
v -0.582270 0.041701 0.467160
v -0.589834 0.033960 0.469543
v -0.574171 0.051001 0.465120
v -0.582800 0.042974 0.469006
v -0.590513 0.034927 0.471500
v -0.574455 0.052379 0.466401
v -0.564987 0.057164 0.459137
v -0.565175 0.058812 0.460308
v -0.556994 0.063717 0.453049
v -0.597007 0.026603 0.472101
v -0.597221 0.027549 0.474172
v -0.602028 0.022511 0.476702
v -0.602934 0.023540 0.479010
v -0.598084 0.028346 0.475824
v -0.605155 0.019355 0.477531
v -0.609249 0.017335 0.479172
v -0.607551 0.020278 0.480246
v -0.604750 0.020791 0.479058
v -0.605373 0.023809 0.480277
v -0.595250 0.036093 0.474665
v -0.599819 0.028668 0.476824
v -0.601816 0.028642 0.477168
v -0.604133 0.027875 0.476599
v -0.605160 0.026661 0.474871
v -0.611042 0.021517 0.477171
v -0.610559 0.022493 0.479043
v -0.610138 0.020162 0.480542
v -0.608232 0.023455 0.480186
v -0.611824 0.018605 0.479536
v -0.612836 0.017304 0.478066
v -0.569413 0.053565 0.457691
v -0.577640 0.045501 0.460943
v -0.578694 0.047019 0.462461
v -0.543709 0.061242 0.433195
v -0.543242 0.062981 0.432040
v -0.540531 0.060732 0.428858
v -0.538234 0.058358 0.425830
v -0.542664 0.064862 0.430769
v -0.545627 0.065633 0.435407
v -0.547357 0.068573 0.438377
v -0.544351 0.067666 0.434123
v -0.548675 0.066548 0.439393
v -0.553150 0.065782 0.444623
v -0.538512 0.066957 0.429411
v -0.540050 0.067838 0.428856
v -0.541482 0.066748 0.429321
v -0.542640 0.068799 0.433901
v -0.545232 0.069787 0.438112
v -0.538115 0.065629 0.430187
v -0.535685 0.063614 0.426611
v -0.533751 0.061450 0.423557
v -0.532539 0.056689 0.423572
v -0.534252 0.058758 0.425803
v -0.529872 0.055872 0.420148
v -0.532103 0.058182 0.422109
v -0.533893 0.060307 0.424545
v -0.536052 0.060835 0.428571
v -0.535769 0.062416 0.427527
v -0.538538 0.062466 0.431949
v -0.538205 0.064174 0.431097
v -0.541278 0.064990 0.435689
v -0.541657 0.063193 0.436351
f 1 2 3
f 1 3 4
f 5 6 3
f 5 3 7
f 8 5 7
f 8 7 9
f 7 3 2
f 7 2 10
f 9 7 10
f 9 10 11
f 12 9 11
f 12 11 13
f 14 12 13
f 14 13 15
f 16 17 18
f 16 18 19
f 20 21 12
f 20 12 14
f 21 8 9
f 21 9 12
f 8 21 22
f 8 22 23
f 24 22 21
f 24 21 20
f 25 24 20
f 25 20 17
f 25 26 27
f 25 27 28
f 29 30 22
f 29 22 24
f 31 32 30
f 31 30 29
f 33 34 35
f 33 35 36
f 28 27 34
f 28 34 33
f 36 37 31
f 36 31 33
f 33 31 29
f 33 29 28
f 28 29 24
f 28 24 25
f 26 25 17
f 26 17 16
f 17 20 14
f 17 14 18
f 18 14 15
f 18 15 38
f 38 15 39
f 38 39 40
f 41 42 40
f 41 40 39
f 39 43 44
f 39 44 41
f 41 44 45
f 41 45 46
f 45 47 48
f 45 48 49
f 46 45 49
f 46 49 50
f 51 52 53
f 51 53 54
f 54 53 55
f 54 55 56
f 54 57 58
f 54 58 51
f 57 59 60
f 57 60 58
f 56 55 61
f 56 61 32
f 55 62 63
f 55 63 61
f 62 64 65
f 62 65 63
f 64 66 67
f 64 67 65
f 67 66 68
f 67 68 69
f 70 71 69
f 70 69 68
f 72 70 68
f 72 68 73
f 74 75 76
f 74 76 72
f 77 74 78
f 77 78 79
f 80 77 79
f 80 79 81
f 80 82 83
f 80 83 77
f 77 83 75
f 77 75 74
f 74 72 73
f 74 73 78
f 84 85 76
f 84 76 75
f 86 87 84
f 86 84 88
f 87 89 85
f 87 85 84
f 88 84 75
f 88 75 83
f 85 90 91
f 85 91 76
f 90 92 93
f 90 93 91
f 93 71 70
f 93 70 91
f 72 76 91
f 72 91 70
f 66 94 73
f 66 73 68
f 95 94 66
f 95 66 64
f 96 97 69
f 96 69 71
f 71 93 98
f 71 98 96
f 93 92 99
f 93 99 98
f 92 89 100
f 92 100 99
f 100 89 87
f 100 87 101
f 100 101 102
f 100 102 103
f 99 100 103
f 99 103 104
f 98 99 104
f 98 104 105
f 98 105 106
f 98 106 96
f 104 103 107
f 104 107 105
f 106 105 107
f 106 107 108
f 96 106 109
f 96 109 97
f 110 97 109
f 110 109 111
f 65 67 110
f 65 110 112
f 63 65 112
f 63 112 113
f 112 110 111
f 112 111 114
f 113 112 114
f 113 114 115
f 97 110 67
f 97 67 69
f 106 108 116
f 106 116 109
f 108 117 118
f 108 118 116
f 4 119 116
f 4 116 118
f 119 111 109
f 119 109 116
f 61 63 113
f 61 113 120
f 32 61 120
f 32 120 30
f 120 113 115
f 120 115 23
f 30 120 23
f 30 23 22
f 121 122 123
f 121 123 124
f 125 126 34
f 125 34 27
f 127 125 27
f 127 27 26
f 128 129 123
f 128 123 130
f 131 132 133
f 131 133 134
f 132 135 136
f 132 136 133
f 135 137 138
f 135 138 136
f 139 140 141
f 139 141 142
f 143 144 140
f 143 140 139
f 143 145 146
f 143 146 144
f 144 146 147
f 144 147 148
f 144 148 149
f 144 149 140
f 141 140 149
f 141 149 150
f 131 141 150
f 131 150 132
f 6 5 115
f 6 115 114
f 5 8 23
f 5 23 115
f 119 6 114
f 119 114 111
f 151 152 153
f 151 153 154
f 155 156 152
f 155 152 151
f 157 158 156
f 157 156 155
f 159 156 158
f 159 158 160
f 156 159 81
f 156 81 152
f 161 162 159
f 161 159 160
f 163 161 160
f 163 160 164
f 163 165 166
f 163 166 161
f 167 168 166
f 167 166 165
f 169 167 170
f 169 170 171
f 172 169 171
f 172 171 173
f 101 172 173
f 101 173 102
f 173 171 174
f 173 174 175
f 117 176 175
f 117 175 177
f 102 173 175
f 102 175 176
f 177 175 174
f 177 174 178
f 174 171 170
f 174 170 179
f 101 87 86
f 101 86 172
f 172 86 180
f 172 180 169
f 169 180 168
f 169 168 167
f 168 180 181
f 168 181 182
f 166 168 182
f 166 182 183
f 180 86 88
f 180 88 181
f 170 167 165
f 170 165 179
f 161 166 183
f 161 183 162
f 162 183 82
f 162 82 80
f 159 162 80
f 159 80 81
f 153 152 81
f 153 81 79
f 1 4 118
f 1 118 184
f 6 119 4
f 6 4 3
f 108 107 176
f 108 176 117
f 117 177 184
f 117 184 118
f 89 92 90
f 89 90 85
f 181 88 83
f 181 83 82
f 182 181 82
f 182 82 183
f 103 102 176
f 103 176 107
f 185 186 145
f 185 145 143
f 187 188 189
f 187 189 190
f 191 187 190
f 191 190 192
f 193 194 187
f 193 187 191
f 193 195 196
f 193 196 194
f 194 196 188
f 194 188 187
f 196 197 198
f 196 198 188
f 199 200 198
f 199 198 197
f 199 195 201
f 199 201 202
f 199 202 203
f 199 203 200
f 201 204 203
f 201 203 202
f 201 195 193
f 201 193 205
f 195 199 197
f 195 197 196
f 200 206 207
f 200 207 198
f 188 198 207
f 188 207 189
f 208 209 210
f 208 210 211
f 147 146 212
f 147 212 209
f 213 147 209
f 213 209 208
f 209 212 214
f 209 214 210
f 215 216 217
f 215 217 218
f 219 220 143
f 219 143 139
f 221 222 186
f 221 186 185
f 190 189 222
f 190 222 221
f 220 221 185
f 220 185 143
f 192 190 221
f 192 221 220
f 216 220 219
f 216 219 217
f 191 192 223
f 191 223 224
f 193 191 224
f 193 224 205
f 201 205 224
f 201 224 204
f 204 224 223
f 204 223 225
f 223 192 220
f 223 220 216
f 225 223 216
f 225 216 215
f 226 145 186
f 226 186 227
f 145 226 212
f 145 212 146
f 212 226 228
f 212 228 214
f 222 229 227
f 222 227 186
f 207 206 230
f 207 230 229
f 189 207 229
f 189 229 222
f 230 226 227
f 230 227 229
f 204 225 231
f 204 231 203
f 200 203 231
f 200 231 206
f 232 230 206
f 232 206 231
f 230 232 228
f 230 228 226
f 232 231 225
f 232 225 215
f 228 232 215
f 228 215 218
f 233 218 217
f 233 217 234
f 235 219 139
f 235 139 142
f 234 217 219
f 234 219 235
f 236 131 134
f 236 134 237
f 141 131 236
f 141 236 142
f 238 236 237
f 238 237 239
f 238 235 142
f 238 142 236
f 240 125 127
f 240 127 241
f 239 126 125
f 239 125 240
f 242 243 240
f 242 240 241
f 243 238 239
f 243 239 240
f 243 234 235
f 243 235 238
f 242 233 234
f 242 234 243
f 244 245 246
f 244 246 247
f 248 249 16
f 248 16 19
f 249 127 26
f 249 26 16
f 241 127 249
f 241 249 250
f 250 249 248
f 250 248 246
f 251 38 40
f 251 40 252
f 19 18 38
f 19 38 251
f 253 254 251
f 253 251 252
f 254 248 19
f 254 19 251
f 254 247 246
f 254 246 248
f 245 255 250
f 245 250 246
f 255 242 241
f 255 241 250
f 255 256 233
f 255 233 242
f 256 228 218
f 256 218 233
f 256 255 245
f 256 245 257
f 244 258 257
f 244 257 245
f 259 260 261
f 259 261 262
f 263 138 264
f 263 264 265
f 266 122 267
f 266 267 268
f 130 123 122
f 130 122 266
f 269 270 268
f 269 268 271
f 138 263 270
f 138 270 136
f 136 270 269
f 136 269 133
f 270 263 266
f 270 266 268
f 263 265 130
f 263 130 266
f 262 272 265
f 262 265 264
f 265 272 128
f 265 128 130
f 253 273 247
f 253 247 254
f 274 244 247
f 274 247 273
f 275 276 273
f 275 273 253
f 277 274 273
f 277 273 276
f 278 261 276
f 278 276 275
f 252 40 42
f 252 42 279
f 275 253 252
f 275 252 279
f 280 281 129
f 280 129 128
f 281 46 50
f 281 50 129
f 42 41 46
f 42 46 281
f 281 280 279
f 281 279 42
f 280 278 275
f 280 275 279
f 278 280 128
f 278 128 272
f 272 262 261
f 272 261 278
f 260 277 276
f 260 276 261
f 282 211 210
f 282 210 258
f 283 284 211
f 283 211 282
f 285 284 283
f 285 283 286
f 287 208 211
f 287 211 284
f 288 213 208
f 288 208 287
f 289 288 287
f 289 287 290
f 290 287 284
f 290 284 285
f 291 289 290
f 291 290 285
f 137 292 264
f 137 264 138
f 292 259 262
f 292 262 264
f 293 259 292
f 293 292 294
f 137 295 294
f 137 294 292
f 135 296 295
f 135 295 137
f 149 297 296
f 149 296 150
f 132 150 296
f 132 296 135
f 297 298 295
f 297 295 296
f 299 289 291
f 299 291 300
f 301 288 289
f 301 289 299
f 301 299 300
f 301 300 298
f 302 213 288
f 302 288 301
f 148 147 213
f 148 213 302
f 148 302 297
f 148 297 149
f 302 301 298
f 302 298 297
f 298 300 294
f 298 294 295
f 300 291 293
f 300 293 294
f 291 285 286
f 291 286 293
f 286 260 259
f 286 259 293
f 260 286 283
f 260 283 277
f 277 283 282
f 277 282 274
f 274 282 258
f 274 258 244
f 258 210 214
f 258 214 257
f 214 228 256
f 214 256 257
f 268 267 60
f 268 60 271
f 36 35 303
f 36 303 59
f 126 304 35
f 126 35 34
f 305 269 271
f 305 271 303
f 133 269 305
f 133 305 134
f 134 305 304
f 134 304 237
f 237 304 126
f 237 126 239
f 304 305 303
f 304 303 35
f 53 306 62
f 53 62 55
f 306 95 64
f 306 64 62
f 52 307 306
f 52 306 53
f 307 308 95
f 307 95 306
f 94 309 78
f 94 78 73
f 309 153 79
f 309 79 78
f 308 309 94
f 308 94 95
f 154 153 309
f 154 309 308
f 310 154 308
f 310 308 307
f 311 310 307
f 311 307 52
f 312 313 311
f 312 311 314
f 122 121 315
f 122 315 267
f 121 312 314
f 121 314 315
f 314 311 52
f 314 52 51
f 51 58 315
f 51 315 314
f 58 60 267
f 58 267 315
f 271 60 59
f 271 59 303
f 59 57 37
f 59 37 36
f 57 54 56
f 57 56 37
f 37 56 32
f 37 32 31
f 129 50 124
f 129 124 123
f 316 157 155
f 316 155 317
f 313 318 310
f 313 310 311
f 318 151 154
f 318 154 310
f 317 155 151
f 317 151 318
f 319 317 318
f 319 318 313
f 49 320 124
f 49 124 50
f 320 312 121
f 320 121 124
f 320 319 313
f 320 313 312
f 49 48 319
f 49 319 320
f 48 316 317
f 48 317 319
f 47 321 316
f 47 316 48
f 321 322 157
f 321 157 316
f 158 323 164
f 158 164 160
f 322 323 158
f 322 158 157
f 324 325 1
f 324 1 184
f 324 178 326
f 324 326 327
f 325 324 327
f 325 327 328
f 329 325 328
f 329 328 330
f 323 328 327
f 323 327 164
f 331 329 330
f 331 330 332
f 330 328 323
f 330 323 322
f 332 330 322
f 332 322 321
f 326 163 164
f 326 164 327
f 326 179 165
f 326 165 163
f 178 174 179
f 178 179 326
f 177 178 324
f 177 324 184
f 333 332 321
f 333 321 47
f 44 333 47
f 44 47 45
f 15 13 43
f 15 43 39
f 43 334 333
f 43 333 44
f 334 331 332
f 334 332 333
f 13 11 334
f 13 334 43
f 11 10 331
f 11 331 334
f 10 2 329
f 10 329 331
f 2 1 325
f 2 325 329
