# Rib_12R posed
v -0.346849 0.052494 0.483116
v -0.349720 0.051962 0.484757
v -0.349803 0.053159 0.484818
v -0.346856 0.053720 0.483133
v -0.348770 0.050886 0.485049
v -0.352020 0.049965 0.486541
v -0.352965 0.051056 0.486305
v -0.355669 0.048385 0.487474
v -0.356561 0.049601 0.487326
v -0.350425 0.049377 0.487115
v -0.354036 0.047706 0.488081
v -0.357702 0.045560 0.488849
v -0.359317 0.046177 0.488155
v -0.361262 0.043356 0.489004
v -0.362823 0.043964 0.488274
v -0.352418 0.047898 0.488897
v -0.356153 0.045767 0.489715
v -0.351130 0.048615 0.489630
v -0.354991 0.046506 0.490491
v -0.358657 0.044379 0.490839
v -0.359760 0.043604 0.489975
v -0.350414 0.049620 0.490190
v -0.354417 0.047560 0.491083
v -0.347191 0.050266 0.488541
v -0.348679 0.049521 0.487846
v -0.411461 -0.002780 0.453260
v -0.410371 -0.001228 0.455799
v -0.410807 0.000049 0.453947
v -0.411977 -0.001165 0.451152
v -0.408047 0.001742 0.458914
v -0.408583 0.000565 0.459239
v -0.406090 0.003644 0.463884
v -0.405583 0.004399 0.463695
v -0.407950 -0.000776 0.460223
v -0.405515 0.001638 0.464891
v -0.409455 -0.002511 0.457328
v -0.402862 -0.001239 0.467018
v -0.400223 0.002862 0.471980
v -0.401477 0.003373 0.471335
v -0.404276 -0.000732 0.466084
v -0.396076 0.010156 0.477012
v -0.396963 0.010978 0.477117
v -0.403386 0.007903 0.468471
v -0.399955 0.013160 0.473174
v -0.399678 0.013291 0.472618
v -0.403152 0.008448 0.468086
v -0.395369 0.018885 0.478071
v -0.395439 0.018695 0.477076
v -0.398795 0.012179 0.475167
v -0.394247 0.018318 0.479580
v -0.402666 0.005889 0.469942
v -0.392800 0.017413 0.480772
v -0.391861 0.016629 0.480770
v -0.395448 0.009741 0.476452
v -0.391333 0.016003 0.480176
v -0.386152 0.021751 0.483688
v -0.386635 0.022544 0.484207
v -0.395308 0.009978 0.475418
v -0.391190 0.015522 0.479191
v -0.386182 0.021176 0.482775
v -0.384612 0.028308 0.482823
v -0.383871 0.027302 0.482691
v -0.388865 0.021799 0.479824
v -0.389581 0.022692 0.480037
v -0.393388 0.016498 0.476514
v -0.394360 0.017313 0.476234
v -0.387886 0.021218 0.480368
v -0.382799 0.026681 0.483232
v -0.392286 0.015843 0.477323
v -0.396144 0.010921 0.473410
v -0.396953 0.011543 0.472742
v -0.391561 0.015567 0.478247
v -0.395543 0.010405 0.474316
v -0.387146 0.020898 0.480965
v -0.381752 0.026500 0.484207
v -0.369763 0.038654 0.491056
v -0.369656 0.037304 0.490296
v -0.365469 0.040433 0.491051
v -0.365543 0.041766 0.491713
v -0.361827 0.043031 0.491368
v -0.361905 0.044408 0.491963
v -0.365952 0.039380 0.490208
v -0.362371 0.041903 0.490579
v -0.370142 0.036267 0.489320
v -0.374997 0.034287 0.489731
v -0.374759 0.033088 0.489003
v -0.370421 0.040033 0.491411
v -0.375867 0.035450 0.489852
v -0.381694 0.029561 0.487632
v -0.377221 0.036383 0.489312
v -0.382953 0.030538 0.487114
v -0.371977 0.040818 0.490713
v -0.380936 0.028497 0.487295
v -0.380638 0.027522 0.486578
v -0.380934 0.026790 0.485462
v -0.375233 0.032169 0.487866
v -0.387417 0.023472 0.484482
v -0.388504 0.024442 0.484174
v -0.377354 0.031840 0.485805
v -0.376159 0.031746 0.486752
v -0.368258 0.038671 0.488373
v -0.369572 0.039230 0.487737
v -0.366403 0.041556 0.488106
v -0.364971 0.040982 0.488736
v -0.370388 0.040444 0.487706
v -0.367185 0.042920 0.488134
v -0.374641 0.037392 0.486642
v -0.373727 0.036310 0.486775
v -0.372383 0.035733 0.487431
v -0.378591 0.032465 0.485188
v -0.379421 0.033518 0.485130
v -0.363491 0.041166 0.489663
v -0.366945 0.038755 0.489277
v -0.371115 0.035718 0.488323
v -0.399029 0.004291 0.471103
v -0.399269 0.005595 0.469998
v -0.399098 0.003017 0.472041
v -0.401697 -0.000967 0.467405
v -0.405124 -0.003576 0.463057
v -0.404506 -0.003155 0.462580
v -0.334213 0.052921 0.481058
v -0.333946 0.052719 0.481170
v -0.334524 0.052771 0.480872
v -0.334577 0.053086 0.480846
v -0.334757 0.051758 0.481125
v -0.334508 0.052126 0.480997
v -0.334008 0.052360 0.481250
v -0.334019 0.052204 0.481471
v -0.334468 0.052433 0.480914
v -0.335199 0.051980 0.480653
v -0.335031 0.052352 0.480617
v -0.334121 0.052510 0.481097
v -0.334969 0.052768 0.480625
v -0.335412 0.052783 0.480371
v -0.335573 0.052398 0.480303
v -0.346357 0.051260 0.489038
v -0.350448 0.050760 0.490503
v -0.354524 0.048789 0.491445
v -0.358166 0.045492 0.491493
v -0.358342 0.046806 0.491893
v -0.347120 0.050311 0.485639
v -0.345203 0.050440 0.486352
v -0.344113 0.050816 0.484094
v -0.345906 0.051386 0.483453
v -0.341936 0.050990 0.484847
v -0.343380 0.051483 0.481989
v -0.341628 0.050983 0.482665
v -0.339483 0.051179 0.483419
v -0.363695 0.045289 0.488190
v -0.360169 0.047499 0.488090
v -0.360295 0.048965 0.488425
v -0.363858 0.046811 0.488572
v -0.363336 0.048174 0.489359
v -0.359705 0.050239 0.489129
v -0.358430 0.050965 0.490067
v -0.362154 0.049011 0.490415
v -0.356732 0.050973 0.491024
v -0.352880 0.052765 0.490040
v -0.354586 0.052870 0.489207
v -0.350571 0.054576 0.488000
v -0.348812 0.054464 0.488750
v -0.352383 0.053242 0.486908
v -0.356031 0.052008 0.488136
v -0.360547 0.049091 0.491461
v -0.359102 0.048215 0.491972
v -0.355282 0.050063 0.491468
v -0.351374 0.051794 0.490345
v -0.366701 0.046131 0.489672
v -0.365454 0.047030 0.490938
v -0.370543 0.041995 0.488249
v -0.370083 0.043491 0.489256
v -0.367269 0.044582 0.488690
v -0.368930 0.044372 0.490628
v -0.356682 0.050922 0.487551
v -0.353090 0.052271 0.486427
v -0.337829 0.051198 0.481087
v -0.336618 0.051289 0.480751
v -0.335300 0.051485 0.481357
v -0.336195 0.051401 0.481808
v -0.334155 0.052014 0.481810
v -0.334713 0.052041 0.482368
v -0.333489 0.052766 0.482045
v -0.333611 0.052726 0.481639
v -0.333861 0.052989 0.482668
v -0.335838 0.052102 0.483112
v -0.337587 0.051325 0.482463
v -0.337555 0.052064 0.484080
v -0.339510 0.051097 0.481668
v -0.339603 0.055636 0.483420
v -0.341694 0.055535 0.482611
v -0.344093 0.055574 0.484529
v -0.342023 0.055605 0.485280
v -0.336417 0.053243 0.484455
v -0.336408 0.054331 0.484454
v -0.338930 0.054105 0.485922
v -0.338796 0.053152 0.485920
v -0.342486 0.052335 0.487495
v -0.342645 0.053256 0.487574
v -0.343471 0.051263 0.487038
v -0.339926 0.051964 0.485535
v -0.346484 0.052237 0.489204
v -0.343398 0.054886 0.487623
v -0.347147 0.053932 0.489318
v -0.345211 0.055365 0.487036
v -0.347094 0.055446 0.486297
v -0.349020 0.054105 0.485244
v -0.410240 0.000940 0.452597
v -0.407317 0.002579 0.459033
v -0.406021 0.002537 0.459700
v -0.408557 0.000427 0.453723
v -0.398856 0.012881 0.472456
v -0.402332 0.008316 0.468144
v -0.389825 0.024955 0.482666
v -0.384365 0.030874 0.485569
v -0.378692 0.036570 0.487934
v -0.373520 0.040884 0.489464
v -0.367457 0.044137 0.491656
v -0.366150 0.043164 0.492042
v -0.362562 0.045864 0.492247
v -0.363872 0.046913 0.491947
v -0.374574 0.040083 0.488091
v -0.374918 0.038767 0.487117
v -0.379755 0.034744 0.485603
v -0.379599 0.035889 0.486498
v -0.385010 0.029419 0.483375
v -0.385083 0.030392 0.484153
v -0.389973 0.023689 0.480730
v -0.390299 0.024571 0.481335
v -0.395136 0.018055 0.476195
v -0.405182 0.001614 0.460214
v -0.407245 -0.000839 0.455539
v -0.403697 0.004309 0.464274
v -0.402860 0.003607 0.464732
v -0.404767 0.004490 0.463834
v -0.401424 0.007927 0.468205
v -0.397978 0.012279 0.472340
v -0.400435 0.007159 0.468765
v -0.399802 0.006507 0.469235
v -0.401751 0.001647 0.466018
v -0.402238 0.002783 0.465272
v -0.404390 0.000390 0.461050
v -0.406109 -0.001712 0.457536
v -0.405765 -0.004802 0.458342
v -0.405083 -0.003631 0.459980
v -0.405544 -0.004312 0.460230
v -0.406206 -0.005318 0.458619
v -0.403772 -0.002333 0.462580
v -0.401653 0.000284 0.466796
v -0.403703 -0.001150 0.461977
v -0.405291 -0.002757 0.459178
v -0.405807 -0.004141 0.457556
v -0.406343 -0.003657 0.456113
v -0.407660 -0.002678 0.453879
v -0.409162 -0.000597 0.451702
v -0.407997 -0.003189 0.453554
v -0.409313 -0.001664 0.451610
v -0.406105 -0.004658 0.457123
v -0.406330 -0.004915 0.457643
v -0.407091 -0.004063 0.456362
v -0.406617 -0.004216 0.455889
v -0.408593 -0.002635 0.453199
v -0.411342 -0.003542 0.452687
v -0.411610 -0.002867 0.451708
v -0.410920 -0.001617 0.450784
v -0.411044 -0.000107 0.450472
v -0.410115 -0.002950 0.453630
v -0.410414 -0.004224 0.454522
v -0.406970 -0.005237 0.457956
v -0.408195 -0.004278 0.456874
v -0.407319 -0.005717 0.458358
v -0.407756 -0.005784 0.457628
v -0.408987 -0.005220 0.457050
v -0.409057 -0.005297 0.456462
v -0.410459 -0.004124 0.455065
v -0.408087 -0.004223 0.459051
v -0.406695 -0.002906 0.461600
v -0.406588 -0.005028 0.460056
v -0.335564 0.053075 0.480299
v -0.336083 0.052712 0.480068
v -0.336008 0.052912 0.480094
v -0.343380 0.054869 0.481896
v -0.341017 0.054838 0.480560
v -0.341969 0.053659 0.480193
v -0.344299 0.053806 0.481530
v -0.345991 0.054691 0.483527
v -0.339329 0.055677 0.481374
v -0.338896 0.054582 0.479872
v -0.337387 0.055363 0.480650
v -0.339854 0.053432 0.479531
v -0.336754 0.053299 0.479866
v -0.337225 0.052662 0.479648
v -0.338296 0.052978 0.479407
v -0.337524 0.053901 0.479698
v -0.336021 0.052433 0.480065
v -0.336409 0.052249 0.479943
v -0.336531 0.052635 0.479887
v -0.337192 0.052052 0.479771
v -0.338380 0.052076 0.479582
v -0.339198 0.051495 0.480334
v -0.337745 0.051486 0.480105
v -0.336636 0.051666 0.480170
v -0.335854 0.052051 0.480275
v -0.335662 0.051620 0.480669
v -0.339957 0.052292 0.479737
v -0.341998 0.052427 0.480343
v -0.341109 0.051480 0.480892
v -0.344318 0.052552 0.481580
v -0.336375 0.054522 0.480346
v -0.335133 0.054658 0.481118
v -0.335057 0.053883 0.480772
v -0.335989 0.053735 0.480259
v -0.334138 0.054284 0.481697
v -0.334278 0.053697 0.481232
v -0.334456 0.053345 0.480984
v -0.334004 0.053084 0.481257
v -0.333802 0.053279 0.481508
v -0.333562 0.053582 0.481996
v -0.333677 0.052712 0.481395
v -0.335096 0.053097 0.480567
v -0.336240 0.053064 0.479965
v -0.335733 0.053335 0.480231
v -0.335116 0.053423 0.480639
v -0.339812 0.055617 0.485928
v -0.337624 0.055184 0.484076
v -0.337317 0.055883 0.482383
v -0.335722 0.055537 0.481637
v -0.335622 0.055380 0.483148
v -0.334819 0.053197 0.483476
v -0.334771 0.054356 0.483494
v -0.333811 0.054059 0.482665
v -0.334457 0.055013 0.482340
f 1 2 3
f 1 3 4
f 2 5 6
f 2 6 7
f 6 8 9
f 6 9 7
f 8 6 10
f 8 10 11
f 8 11 12
f 8 12 13
f 12 14 15
f 12 15 13
f 16 17 12
f 16 12 11
f 17 16 18
f 17 18 19
f 19 20 21
f 19 21 17
f 18 22 23
f 18 23 19
f 24 18 16
f 24 16 25
f 26 27 28
f 26 28 29
f 30 31 32
f 30 32 33
f 34 35 32
f 34 32 31
f 27 31 30
f 27 30 28
f 34 31 27
f 34 27 36
f 37 38 39
f 37 39 40
f 41 42 39
f 41 39 38
f 43 44 45
f 43 45 46
f 44 47 48
f 44 48 45
f 44 49 50
f 44 50 47
f 51 39 42
f 51 42 49
f 40 39 51
f 40 51 35
f 35 51 43
f 35 43 32
f 51 49 44
f 51 44 43
f 50 49 42
f 50 42 52
f 41 53 52
f 41 52 42
f 54 55 53
f 54 53 41
f 55 56 57
f 55 57 53
f 54 58 59
f 54 59 55
f 59 60 56
f 59 56 55
f 61 62 63
f 61 63 64
f 65 66 64
f 65 64 63
f 67 63 62
f 67 62 68
f 69 65 63
f 69 63 67
f 69 70 71
f 69 71 65
f 72 73 70
f 72 70 69
f 72 69 67
f 72 67 74
f 75 74 67
f 75 67 68
f 76 77 78
f 76 78 79
f 79 78 80
f 79 80 81
f 78 82 83
f 78 83 80
f 84 82 78
f 84 78 77
f 85 86 77
f 85 77 76
f 76 87 88
f 76 88 85
f 89 88 90
f 89 90 91
f 88 87 92
f 88 92 90
f 93 85 88
f 93 88 89
f 86 94 95
f 86 95 96
f 94 56 60
f 94 60 95
f 93 57 56
f 93 56 94
f 52 53 57
f 52 57 97
f 50 52 97
f 50 97 98
f 98 97 89
f 98 89 91
f 97 57 93
f 97 93 89
f 93 94 86
f 93 86 85
f 96 84 77
f 96 77 86
f 99 100 75
f 99 75 68
f 101 102 103
f 101 103 104
f 105 106 103
f 105 103 102
f 107 105 102
f 107 102 108
f 108 102 101
f 108 101 109
f 108 110 111
f 108 111 107
f 61 111 110
f 61 110 62
f 99 68 62
f 99 62 110
f 110 108 109
f 110 109 99
f 112 83 82
f 112 82 113
f 112 113 101
f 112 101 104
f 113 82 84
f 113 84 114
f 109 101 113
f 109 113 114
f 114 100 99
f 114 99 109
f 114 84 96
f 114 96 100
f 96 95 75
f 96 75 100
f 75 95 60
f 75 60 74
f 59 72 74
f 59 74 60
f 59 58 73
f 59 73 72
f 58 115 116
f 58 116 73
f 115 58 54
f 115 54 117
f 54 41 38
f 54 38 117
f 117 38 37
f 117 37 118
f 119 120 118
f 119 118 37
f 121 122 123
f 121 123 124
f 125 126 127
f 125 127 128
f 129 126 130
f 129 130 131
f 129 132 127
f 129 127 126
f 129 123 122
f 129 122 132
f 131 133 123
f 131 123 129
f 134 133 131
f 134 131 135
f 24 136 22
f 24 22 18
f 137 138 23
f 137 23 22
f 139 23 138
f 139 138 140
f 23 139 20
f 23 20 19
f 21 112 104
f 21 104 14
f 104 103 15
f 104 15 14
f 21 14 12
f 21 12 17
f 21 20 83
f 21 83 112
f 11 10 25
f 11 25 16
f 141 142 25
f 141 25 10
f 143 141 5
f 143 5 144
f 145 142 141
f 145 141 143
f 143 144 146
f 143 146 147
f 147 148 145
f 147 145 143
f 141 10 6
f 141 6 5
f 5 2 1
f 5 1 144
f 15 149 150
f 15 150 13
f 151 150 149
f 151 149 152
f 151 152 153
f 151 153 154
f 155 154 153
f 155 153 156
f 155 157 158
f 155 158 159
f 160 159 158
f 160 158 161
f 162 163 159
f 162 159 160
f 154 155 159
f 154 159 163
f 164 165 166
f 164 166 157
f 167 158 157
f 167 157 166
f 156 164 157
f 156 157 155
f 168 169 156
f 168 156 153
f 170 171 168
f 170 168 172
f 168 171 173
f 168 173 169
f 168 153 152
f 168 152 172
f 151 154 163
f 151 163 174
f 174 9 150
f 174 150 151
f 7 9 174
f 7 174 175
f 8 13 150
f 8 150 9
f 163 162 175
f 163 175 174
f 15 103 106
f 15 106 149
f 149 106 172
f 149 172 152
f 3 2 7
f 3 7 175
f 176 177 178
f 176 178 179
f 179 178 180
f 179 180 181
f 178 125 128
f 178 128 180
f 182 180 128
f 182 128 183
f 182 184 181
f 182 181 180
f 179 181 185
f 179 185 186
f 186 185 187
f 186 187 148
f 188 186 148
f 188 148 147
f 186 188 176
f 186 176 179
f 189 190 191
f 189 191 192
f 193 194 195
f 193 195 196
f 197 196 195
f 197 195 198
f 197 136 24
f 197 24 199
f 196 197 199
f 196 199 200
f 145 200 199
f 145 199 142
f 187 200 145
f 187 145 148
f 187 193 196
f 187 196 200
f 24 25 142
f 24 142 199
f 198 201 136
f 198 136 197
f 198 202 203
f 198 203 201
f 204 161 203
f 204 203 202
f 158 167 203
f 158 203 161
f 203 167 137
f 203 137 201
f 201 137 22
f 201 22 136
f 204 192 191
f 204 191 205
f 205 206 162
f 205 162 160
f 160 161 204
f 160 204 205
f 206 3 175
f 206 175 162
f 207 28 30
f 207 30 208
f 208 209 210
f 208 210 207
f 43 46 33
f 43 33 32
f 211 212 46
f 211 46 45
f 213 47 50
f 213 50 98
f 214 213 98
f 214 98 91
f 214 91 90
f 214 90 215
f 92 216 215
f 92 215 90
f 217 173 216
f 217 216 92
f 92 87 218
f 92 218 217
f 76 79 218
f 76 218 87
f 81 219 218
f 81 218 79
f 217 218 219
f 217 219 220
f 164 220 219
f 164 219 165
f 156 169 220
f 156 220 164
f 169 173 217
f 169 217 220
f 81 140 165
f 81 165 219
f 221 216 173
f 221 173 171
f 221 171 170
f 221 170 222
f 170 105 107
f 170 107 222
f 107 111 223
f 107 223 222
f 222 223 224
f 222 224 221
f 224 215 216
f 224 216 221
f 225 226 224
f 225 224 223
f 227 225 61
f 227 61 64
f 226 225 227
f 226 227 228
f 66 229 227
f 66 227 64
f 48 228 227
f 48 227 229
f 225 223 111
f 225 111 61
f 214 215 224
f 214 224 226
f 213 214 226
f 213 226 228
f 48 47 213
f 48 213 228
f 211 45 48
f 211 48 229
f 172 106 105
f 172 105 170
f 167 166 138
f 167 138 137
f 140 138 166
f 140 166 165
f 139 140 81
f 139 81 80
f 83 20 139
f 83 139 80
f 210 209 230
f 210 230 231
f 209 232 233
f 209 233 230
f 234 232 209
f 234 209 208
f 234 33 46
f 234 46 212
f 208 30 33
f 208 33 234
f 234 212 235
f 234 235 232
f 236 66 65
f 236 65 71
f 229 66 236
f 229 236 211
f 236 235 212
f 236 212 211
f 71 237 235
f 71 235 236
f 116 238 70
f 116 70 73
f 238 237 71
f 238 71 70
f 116 239 240
f 116 240 238
f 240 233 237
f 240 237 238
f 237 233 232
f 237 232 235
f 230 233 240
f 230 240 241
f 230 241 242
f 230 242 231
f 243 244 245
f 243 245 246
f 247 120 245
f 247 245 244
f 247 248 118
f 247 118 120
f 118 248 115
f 118 115 117
f 116 115 248
f 116 248 239
f 249 241 240
f 249 240 239
f 249 250 242
f 249 242 241
f 249 239 248
f 249 248 247
f 244 250 249
f 244 249 247
f 243 251 250
f 243 250 244
f 250 251 252
f 250 252 242
f 253 231 242
f 253 242 252
f 254 210 231
f 254 231 253
f 255 256 254
f 255 254 253
f 257 258 259
f 257 259 260
f 259 261 255
f 259 255 260
f 262 26 29
f 262 29 263
f 256 264 265
f 256 265 254
f 265 207 210
f 265 210 254
f 29 28 207
f 29 207 265
f 264 263 29
f 264 29 265
f 261 266 263
f 261 263 264
f 266 267 262
f 266 262 263
f 259 258 268
f 259 268 269
f 243 246 268
f 243 268 258
f 246 270 271
f 246 271 268
f 271 270 272
f 271 272 273
f 267 274 26
f 267 26 262
f 274 36 27
f 274 27 26
f 36 274 272
f 36 272 275
f 40 35 34
f 40 34 276
f 119 37 40
f 119 40 276
f 276 34 36
f 276 36 275
f 246 245 277
f 246 277 270
f 120 119 277
f 120 277 245
f 277 119 276
f 277 276 275
f 272 270 277
f 272 277 275
f 272 274 267
f 272 267 273
f 267 266 269
f 267 269 273
f 269 268 271
f 269 271 273
f 269 266 261
f 269 261 259
f 261 264 256
f 261 256 255
f 255 253 252
f 255 252 260
f 257 260 252
f 257 252 251
f 251 243 258
f 251 258 257
f 278 134 279
f 278 279 280
f 281 282 283
f 281 283 284
f 191 285 206
f 191 206 205
f 285 4 3
f 285 3 206
f 281 285 191
f 281 191 190
f 284 4 285
f 284 285 281
f 286 282 281
f 286 281 190
f 287 282 286
f 287 286 288
f 289 283 282
f 289 282 287
f 290 291 292
f 290 292 293
f 294 295 296
f 294 296 279
f 296 295 297
f 296 297 291
f 291 297 298
f 291 298 292
f 299 300 177
f 299 177 176
f 301 300 298
f 301 298 297
f 131 130 302
f 131 302 135
f 294 135 302
f 294 302 295
f 302 301 297
f 302 297 295
f 178 177 303
f 178 303 125
f 130 126 125
f 130 125 303
f 301 302 130
f 301 130 303
f 301 303 177
f 301 177 300
f 304 305 283
f 304 283 289
f 306 188 147
f 306 147 146
f 306 299 176
f 306 176 188
f 305 307 284
f 305 284 283
f 284 307 1
f 284 1 4
f 307 146 144
f 307 144 1
f 307 305 306
f 307 306 146
f 304 299 306
f 304 306 305
f 304 298 300
f 304 300 299
f 298 304 289
f 298 289 292
f 289 287 293
f 289 293 292
f 293 287 288
f 293 288 308
f 308 309 310
f 308 310 311
f 309 312 313
f 309 313 310
f 121 124 314
f 121 314 315
f 182 183 316
f 182 316 317
f 318 122 121
f 318 121 315
f 122 318 127
f 122 127 132
f 318 183 128
f 318 128 127
f 315 316 183
f 315 183 318
f 314 313 316
f 314 316 315
f 134 278 319
f 134 319 133
f 133 319 124
f 133 124 123
f 278 280 320
f 278 320 321
f 321 311 310
f 321 310 322
f 320 290 311
f 320 311 321
f 321 322 319
f 321 319 278
f 314 124 319
f 314 319 322
f 314 322 310
f 314 310 313
f 313 312 317
f 313 317 316
f 323 202 198
f 323 198 195
f 202 323 192
f 202 192 204
f 194 324 323
f 194 323 195
f 189 192 323
f 189 323 324
f 189 325 286
f 189 286 190
f 325 326 288
f 325 288 286
f 325 189 324
f 325 324 327
f 328 185 181
f 328 181 184
f 328 193 187
f 328 187 185
f 329 194 193
f 329 193 328
f 317 330 184
f 317 184 182
f 327 329 330
f 327 330 331
f 330 329 328
f 330 328 184
f 327 324 194
f 327 194 329
f 331 326 325
f 331 325 327
f 331 330 317
f 331 317 312
f 309 326 331
f 309 331 312
f 308 288 326
f 308 326 309
f 308 311 290
f 308 290 293
f 320 296 291
f 320 291 290
f 320 280 279
f 320 279 296
f 279 134 135
f 279 135 294
