# Rib_7L rest
v 0.123913 -0.097800 0.064627
v 0.124672 -0.097129 0.065780
v 0.128200 -0.091610 0.057292
v 0.127506 -0.092558 0.056007
v 0.129077 -0.085279 0.042576
v 0.128575 -0.087667 0.040856
v 0.126955 -0.094799 0.053914
v 0.129565 -0.073956 0.023734
v 0.128980 -0.076077 0.021816
v 0.128706 -0.078991 0.019660
v 0.128355 -0.090783 0.039030
v 0.126964 -0.065321 0.003126
v 0.126802 -0.067956 0.000171
v 0.122310 -0.057561 -0.011749
v 0.122148 -0.060022 -0.014633
v 0.128880 -0.081447 0.018426
v 0.127339 -0.069957 -0.002054
v 0.127946 -0.070833 -0.002605
v 0.129348 -0.082861 0.018126
v 0.122813 -0.061907 -0.017238
v 0.123464 -0.062608 -0.018455
v 0.129097 -0.071384 -0.003353
v 0.130315 -0.083578 0.017957
v 0.128836 -0.094788 0.037677
v 0.128454 -0.093276 0.037973
v 0.030268 -0.002855 -0.036571
v 0.031376 -0.003769 -0.034441
v 0.034609 -0.004854 -0.037780
v 0.033200 -0.002914 -0.040290
v 0.039042 -0.006698 -0.041553
v 0.044714 -0.008429 -0.045338
v 0.043626 -0.006568 -0.047124
v 0.037879 -0.004796 -0.043258
v 0.036275 -0.005424 -0.045088
v 0.041714 -0.006633 -0.048910
v 0.031159 -0.003771 -0.042263
v 0.037753 -0.009318 -0.051497
v 0.038522 -0.007532 -0.051000
v 0.047678 -0.010438 -0.052528
v 0.047174 -0.012249 -0.052725
v 0.056203 -0.015105 -0.055015
v 0.056585 -0.013588 -0.054850
v 0.050417 -0.008630 -0.049916
v 0.051077 -0.010327 -0.048362
v 0.058855 -0.013293 -0.050538
v 0.058725 -0.011444 -0.051812
v 0.069947 -0.017553 -0.051643
v 0.070257 -0.016083 -0.052791
v 0.069637 -0.016627 -0.054881
v 0.057595 -0.012096 -0.053864
v 0.049020 -0.009038 -0.051479
v 0.068645 -0.018174 -0.055999
v 0.067941 -0.019642 -0.056301
v 0.056116 -0.016531 -0.054744
v 0.067489 -0.021046 -0.056306
v 0.080782 -0.025584 -0.056025
v 0.079960 -0.026949 -0.056142
v 0.067151 -0.022407 -0.055875
v 0.056180 -0.017775 -0.053935
v 0.079049 -0.028314 -0.055573
v 0.089486 -0.030300 -0.048081
v 0.080365 -0.025124 -0.050989
v 0.079843 -0.026293 -0.051594
v 0.089008 -0.031624 -0.048820
v 0.068748 -0.021219 -0.052104
v 0.069228 -0.020170 -0.051704
v 0.079286 -0.027466 -0.052562
v 0.088706 -0.032995 -0.049939
v 0.068007 -0.022326 -0.052943
v 0.058151 -0.017046 -0.050483
v 0.057443 -0.017925 -0.051139
v 0.067251 -0.023056 -0.054445
v 0.056746 -0.018215 -0.052453
v 0.078875 -0.028319 -0.053938
v 0.088671 -0.033959 -0.051240
v 0.107973 -0.043349 -0.044542
v 0.115007 -0.048094 -0.038821
v 0.112960 -0.049591 -0.038472
v 0.106139 -0.044804 -0.044278
v 0.120569 -0.053920 -0.031217
v 0.118660 -0.055593 -0.030909
v 0.117541 -0.055634 -0.030018
v 0.111838 -0.049739 -0.037729
v 0.105110 -0.044910 -0.043524
v 0.100200 -0.038283 -0.049462
v 0.098718 -0.039756 -0.049325
v 0.101008 -0.036434 -0.048625
v 0.108657 -0.041278 -0.043567
v 0.092334 -0.030461 -0.052906
v 0.092948 -0.028322 -0.051432
v 0.101500 -0.033891 -0.047122
v 0.108822 -0.038600 -0.041935
v 0.091356 -0.032173 -0.053584
v 0.097576 -0.040002 -0.048345
v 0.088992 -0.034293 -0.052504
v 0.090108 -0.033628 -0.053526
v 0.081631 -0.024122 -0.055481
v 0.082384 -0.022489 -0.054199
v 0.096945 -0.038324 -0.046106
v 0.097216 -0.039499 -0.047422
v 0.110824 -0.047888 -0.035086
v 0.116364 -0.053350 -0.026561
v 0.116136 -0.050823 -0.024004
v 0.110528 -0.045526 -0.032920
v 0.110831 -0.043640 -0.031707
v 0.116510 -0.048925 -0.022572
v 0.104313 -0.039452 -0.038417
v 0.104049 -0.041123 -0.039475
v 0.104308 -0.043144 -0.041282
v 0.097172 -0.035146 -0.043691
v 0.096862 -0.036612 -0.044596
v 0.116972 -0.055189 -0.028929
v 0.111419 -0.049295 -0.036866
v 0.104715 -0.044452 -0.042727
v 0.048760 -0.015202 -0.049293
v 0.047871 -0.014924 -0.050791
v 0.047298 -0.013856 -0.052114
v 0.038836 -0.011555 -0.050249
v 0.034427 -0.008899 -0.046424
v 0.034800 -0.010637 -0.045699
v 0.109897 -0.117659 0.077573
v 0.109534 -0.116019 0.078744
v 0.108764 -0.115647 0.077979
v 0.109176 -0.117522 0.076970
v 0.107908 -0.115539 0.074826
v 0.109140 -0.117681 0.074715
v 0.108734 -0.117476 0.075790
v 0.107833 -0.115530 0.075972
v 0.108110 -0.115413 0.076852
v 0.107179 -0.111779 0.078304
v 0.106802 -0.111782 0.077308
v 0.108647 -0.117143 0.076445
v 0.107613 -0.111972 0.079669
v 0.107217 -0.109580 0.081425
v 0.106637 -0.108946 0.080520
v 0.129546 -0.095395 0.037870
v 0.132087 -0.082974 0.017883
v 0.130580 -0.070380 -0.003493
v 0.124439 -0.062674 -0.019291
v 0.125875 -0.061212 -0.019339
v 0.126665 -0.097846 0.051532
v 0.126690 -0.100385 0.049999
v 0.122831 -0.102892 0.059374
v 0.123228 -0.099888 0.062247
v 0.122877 -0.105681 0.057708
v 0.117288 -0.106701 0.066757
v 0.117888 -0.103456 0.069325
v 0.117371 -0.110294 0.065460
v 0.127575 -0.063376 0.005342
v 0.122912 -0.055626 -0.009924
v 0.128358 -0.062362 0.006539
v 0.123703 -0.054301 -0.009118
v 0.129615 -0.062039 0.006538
v 0.125059 -0.053385 -0.009564
v 0.131396 -0.063073 0.004327
v 0.126591 -0.054150 -0.012080
v 0.133301 -0.074535 0.023841
v 0.133923 -0.077586 0.021054
v 0.132075 -0.065509 0.000750
v 0.132254 -0.086955 0.043221
v 0.132501 -0.090739 0.041014
v 0.131289 -0.083954 0.044580
v 0.131789 -0.072633 0.025403
v 0.127256 -0.056329 -0.015291
v 0.131800 -0.068262 -0.002321
v 0.126982 -0.058975 -0.018110
v 0.133607 -0.080770 0.018686
v 0.118338 -0.046312 -0.022523
v 0.120124 -0.046598 -0.024826
v 0.111441 -0.042175 -0.031242
v 0.117151 -0.047477 -0.022020
v 0.112567 -0.040890 -0.031576
v 0.114449 -0.040920 -0.033466
v 0.130372 -0.072900 0.024952
v 0.129773 -0.084085 0.043818
v 0.109756 -0.110069 0.073283
v 0.109958 -0.113755 0.072159
v 0.108345 -0.114978 0.073653
v 0.107778 -0.111038 0.074812
v 0.111184 -0.116410 0.072190
v 0.109754 -0.117419 0.073677
v 0.111149 -0.118259 0.074472
v 0.110325 -0.118436 0.075383
v 0.112586 -0.117368 0.072924
v 0.112851 -0.112448 0.069725
v 0.113828 -0.115137 0.069648
v 0.117977 -0.113038 0.065686
v 0.112729 -0.108711 0.071069
v 0.121827 -0.108493 0.070877
v 0.126380 -0.104118 0.062021
v 0.126404 -0.100623 0.064684
v 0.121748 -0.104981 0.072807
v 0.118928 -0.114240 0.066542
v 0.123964 -0.108601 0.057585
v 0.124952 -0.108421 0.058409
v 0.120054 -0.113754 0.067587
v 0.127680 -0.103043 0.049309
v 0.128718 -0.102897 0.049980
v 0.127001 -0.102072 0.049367
v 0.123258 -0.107660 0.057249
v 0.130942 -0.095509 0.038051
v 0.132116 -0.093853 0.039134
v 0.129654 -0.101432 0.051351
v 0.130189 -0.098601 0.053575
v 0.130228 -0.094930 0.056259
v 0.129464 -0.091971 0.057894
v 0.034895 -0.006560 -0.036401
v 0.039305 -0.008196 -0.040674
v 0.034831 -0.008367 -0.035681
v 0.039183 -0.009441 -0.040269
v 0.058766 -0.015000 -0.050277
v 0.051167 -0.012089 -0.047644
v 0.082401 -0.021592 -0.052172
v 0.092437 -0.026836 -0.049243
v 0.100884 -0.031596 -0.044921
v 0.108038 -0.036255 -0.039785
v 0.115442 -0.042973 -0.035738
v 0.115625 -0.045727 -0.037672
v 0.121478 -0.051408 -0.030056
v 0.121181 -0.048631 -0.027643
v 0.105997 -0.036582 -0.038095
v 0.104910 -0.037986 -0.037936
v 0.097797 -0.033771 -0.043260
v 0.098900 -0.032339 -0.043393
v 0.090118 -0.028916 -0.047643
v 0.091049 -0.027566 -0.047811
v 0.080895 -0.023833 -0.050597
v 0.081593 -0.022390 -0.050739
v 0.069573 -0.019052 -0.051495
v 0.034483 -0.009592 -0.035719
v 0.038729 -0.010397 -0.040294
v 0.044134 -0.012015 -0.044195
v 0.044693 -0.011185 -0.044118
v 0.044951 -0.010099 -0.044449
v 0.050931 -0.013227 -0.047467
v 0.058585 -0.016095 -0.050293
v 0.050418 -0.014121 -0.047609
v 0.049655 -0.014872 -0.048187
v 0.043237 -0.012683 -0.044797
v 0.042061 -0.012997 -0.046025
v 0.037904 -0.011176 -0.040836
v 0.033774 -0.010616 -0.036456
v 0.029790 -0.010715 -0.037946
v 0.029044 -0.009820 -0.038981
v 0.031130 -0.010028 -0.041376
v 0.031862 -0.011328 -0.040026
v 0.035502 -0.011900 -0.044078
v 0.040565 -0.013035 -0.048036
v 0.036908 -0.011536 -0.041987
v 0.032791 -0.011301 -0.037925
v 0.030375 -0.011079 -0.036364
v 0.030894 -0.010709 -0.034798
v 0.031314 -0.009966 -0.033131
v 0.031887 -0.008441 -0.031981
v 0.029911 -0.009214 -0.033063
v 0.030242 -0.008012 -0.032037
v 0.029475 -0.010595 -0.036114
v 0.029572 -0.010274 -0.034692
v 0.028974 -0.009125 -0.035728
v 0.029010 -0.010038 -0.037070
v 0.029280 -0.007694 -0.034147
v 0.029146 -0.004171 -0.035526
v 0.029449 -0.004564 -0.034219
v 0.031927 -0.006011 -0.032526
v 0.029831 -0.006072 -0.032678
v 0.028627 -0.006150 -0.035724
v 0.028131 -0.004842 -0.037326
v 0.028251 -0.007792 -0.037078
v 0.028352 -0.009091 -0.037980
v 0.027791 -0.007911 -0.038600
v 0.028131 -0.008058 -0.039585
v 0.027542 -0.006244 -0.038455
v 0.027476 -0.005017 -0.040252
v 0.028231 -0.003220 -0.039068
v 0.030330 -0.005777 -0.042906
v 0.034757 -0.007162 -0.046366
v 0.030587 -0.008254 -0.042161
v 0.107901 -0.109737 0.082123
v 0.107836 -0.108798 0.082324
v 0.107618 -0.108198 0.081927
v 0.121157 -0.102505 0.073431
v 0.120074 -0.101285 0.072954
v 0.116624 -0.104652 0.076592
v 0.117284 -0.105297 0.077185
v 0.125752 -0.097825 0.066203
v 0.118036 -0.107536 0.076881
v 0.114216 -0.106868 0.079413
v 0.114976 -0.108808 0.079583
v 0.113023 -0.112549 0.080056
v 0.113016 -0.115751 0.077745
v 0.115017 -0.115050 0.076054
v 0.115462 -0.111824 0.078381
v 0.112288 -0.117776 0.075716
v 0.113891 -0.116963 0.074168
v 0.117635 -0.114021 0.073259
v 0.118237 -0.110763 0.075411
v 0.116377 -0.115881 0.071533
v 0.121228 -0.111812 0.068993
v 0.115091 -0.116245 0.070402
v 0.112343 -0.109630 0.081296
v 0.111594 -0.107827 0.081101
v 0.109479 -0.107996 0.082690
v 0.110288 -0.109914 0.082432
v 0.108273 -0.108449 0.082689
v 0.108928 -0.107415 0.081715
v 0.107929 -0.108006 0.082210
v 0.107097 -0.108150 0.081505
v 0.113160 -0.105969 0.078544
v 0.110737 -0.106934 0.080194
v 0.107312 -0.107707 0.081149
v 0.108041 -0.107195 0.080195
v 0.109647 -0.106804 0.078694
v 0.110548 -0.107158 0.075257
v 0.108451 -0.108020 0.076844
v 0.107137 -0.108456 0.078398
v 0.106681 -0.108732 0.079656
v 0.106915 -0.111608 0.076091
v 0.111899 -0.105900 0.077091
v 0.114849 -0.104309 0.075488
v 0.113485 -0.105698 0.073368
v 0.118946 -0.101649 0.071598
v 0.111097 -0.113001 0.081051
v 0.111540 -0.116297 0.078610
v 0.110442 -0.118106 0.077139
v 0.110359 -0.116312 0.078894
v 0.111233 -0.118212 0.076508
v 0.109616 -0.118300 0.076267
v 0.108333 -0.112501 0.080987
v 0.108856 -0.109909 0.082531
v 0.109447 -0.112874 0.081251
v 0.125820 -0.106895 0.059796
f 1 2 3
f 1 3 4
f 4 5 6
f 4 6 7
f 6 5 8
f 6 8 9
f 9 10 11
f 9 11 6
f 9 12 13
f 9 13 10
f 13 12 14
f 13 14 15
f 16 10 13
f 16 13 17
f 17 18 19
f 17 19 16
f 18 17 20
f 18 20 21
f 19 18 22
f 19 22 23
f 24 25 16
f 24 16 19
f 26 27 28
f 26 28 29
f 30 31 32
f 30 32 33
f 34 33 32
f 34 32 35
f 29 28 30
f 29 30 33
f 34 36 29
f 34 29 33
f 37 38 39
f 37 39 40
f 41 40 39
f 41 39 42
f 43 44 45
f 43 45 46
f 46 45 47
f 46 47 48
f 46 48 49
f 46 49 50
f 51 50 42
f 51 42 39
f 38 35 51
f 38 51 39
f 35 32 43
f 35 43 51
f 51 43 46
f 51 46 50
f 49 52 42
f 49 42 50
f 41 42 52
f 41 52 53
f 54 41 53
f 54 53 55
f 55 53 56
f 55 56 57
f 54 55 58
f 54 58 59
f 58 55 57
f 58 57 60
f 61 62 63
f 61 63 64
f 65 63 62
f 65 62 66
f 67 68 64
f 67 64 63
f 69 67 63
f 69 63 65
f 69 65 70
f 69 70 71
f 72 69 71
f 72 71 73
f 72 74 67
f 72 67 69
f 75 68 67
f 75 67 74
f 76 77 78
f 76 78 79
f 77 80 81
f 77 81 78
f 78 81 82
f 78 82 83
f 84 79 78
f 84 78 83
f 85 76 79
f 85 79 86
f 76 85 87
f 76 87 88
f 89 90 91
f 89 91 87
f 87 91 92
f 87 92 88
f 93 89 87
f 93 87 85
f 86 94 95
f 86 95 96
f 96 95 60
f 96 60 57
f 93 96 57
f 93 57 56
f 52 97 56
f 52 56 53
f 49 98 97
f 49 97 52
f 98 90 89
f 98 89 97
f 97 89 93
f 97 93 56
f 93 85 86
f 93 86 96
f 94 86 79
f 94 79 84
f 99 68 75
f 99 75 100
f 101 102 103
f 101 103 104
f 105 104 103
f 105 103 106
f 107 108 104
f 107 104 105
f 108 109 101
f 108 101 104
f 108 107 110
f 108 110 111
f 61 64 111
f 61 111 110
f 99 111 64
f 99 64 68
f 111 99 109
f 111 109 108
f 112 113 83
f 112 83 82
f 112 102 101
f 112 101 113
f 113 114 84
f 113 84 83
f 109 114 113
f 109 113 101
f 114 109 99
f 114 99 100
f 114 100 94
f 114 94 84
f 94 100 75
f 94 75 95
f 75 74 60
f 75 60 95
f 58 60 74
f 58 74 72
f 58 72 73
f 58 73 59
f 59 73 115
f 59 115 116
f 116 117 54
f 116 54 59
f 54 117 40
f 54 40 41
f 117 118 37
f 117 37 40
f 119 37 118
f 119 118 120
f 121 122 123
f 121 123 124
f 125 126 127
f 125 127 128
f 129 130 131
f 129 131 128
f 129 128 127
f 129 127 132
f 129 132 124
f 129 124 123
f 130 129 123
f 130 123 133
f 134 135 130
f 134 130 133
f 24 19 23
f 24 23 136
f 137 23 22
f 137 22 138
f 139 140 138
f 139 138 22
f 22 18 21
f 22 21 139
f 20 15 102
f 20 102 112
f 102 15 14
f 102 14 103
f 20 17 13
f 20 13 15
f 20 112 82
f 20 82 21
f 10 16 25
f 10 25 11
f 141 11 25
f 141 25 142
f 143 144 7
f 143 7 141
f 145 143 141
f 145 141 142
f 143 146 147
f 143 147 144
f 146 143 145
f 146 145 148
f 141 7 6
f 141 6 11
f 7 144 1
f 7 1 4
f 14 12 149
f 14 149 150
f 151 152 150
f 151 150 149
f 151 153 154
f 151 154 152
f 155 156 154
f 155 154 153
f 155 157 158
f 155 158 159
f 160 161 158
f 160 158 157
f 162 160 157
f 162 157 163
f 153 163 157
f 153 157 155
f 164 159 165
f 164 165 166
f 167 165 159
f 167 159 158
f 156 155 159
f 156 159 164
f 168 154 156
f 168 156 169
f 170 171 168
f 170 168 172
f 168 169 173
f 168 173 172
f 168 171 152
f 168 152 154
f 151 174 163
f 151 163 153
f 174 151 149
f 174 149 8
f 5 175 174
f 5 174 8
f 9 8 149
f 9 149 12
f 163 174 175
f 163 175 162
f 14 150 106
f 14 106 103
f 150 152 171
f 150 171 106
f 3 175 5
f 3 5 4
f 176 177 178
f 176 178 179
f 177 180 181
f 177 181 178
f 178 181 126
f 178 126 125
f 182 183 126
f 182 126 181
f 182 181 180
f 182 180 184
f 177 185 186
f 177 186 180
f 185 148 187
f 185 187 186
f 188 146 148
f 188 148 185
f 185 177 176
f 185 176 188
f 189 190 191
f 189 191 192
f 193 194 195
f 193 195 196
f 197 198 195
f 197 195 194
f 197 199 24
f 197 24 136
f 194 200 199
f 194 199 197
f 145 142 199
f 145 199 200
f 187 148 145
f 187 145 200
f 187 200 194
f 187 194 193
f 24 199 142
f 24 142 25
f 198 197 136
f 198 136 201
f 198 201 202
f 198 202 203
f 204 203 202
f 204 202 161
f 158 161 202
f 158 202 167
f 202 201 137
f 202 137 167
f 201 136 23
f 201 23 137
f 204 205 191
f 204 191 190
f 205 160 162
f 205 162 206
f 160 205 204
f 160 204 161
f 206 162 175
f 206 175 3
f 207 208 30
f 207 30 28
f 208 207 209
f 208 209 210
f 43 32 31
f 43 31 44
f 211 45 44
f 211 44 212
f 213 98 49
f 213 49 48
f 214 90 98
f 214 98 213
f 214 215 91
f 214 91 90
f 92 91 215
f 92 215 216
f 217 92 216
f 217 216 173
f 92 217 218
f 92 218 88
f 76 88 218
f 76 218 77
f 80 77 218
f 80 218 219
f 217 220 219
f 217 219 218
f 164 166 219
f 164 219 220
f 156 164 220
f 156 220 169
f 169 220 217
f 169 217 173
f 80 219 166
f 80 166 140
f 221 172 173
f 221 173 216
f 221 222 170
f 221 170 172
f 170 222 107
f 170 107 105
f 107 222 223
f 107 223 110
f 222 221 224
f 222 224 223
f 224 221 216
f 224 216 215
f 225 223 224
f 225 224 226
f 227 62 61
f 227 61 225
f 226 228 227
f 226 227 225
f 66 62 227
f 66 227 229
f 47 229 227
f 47 227 228
f 225 61 110
f 225 110 223
f 214 226 224
f 214 224 215
f 213 228 226
f 213 226 214
f 47 228 213
f 47 213 48
f 211 229 47
f 211 47 45
f 171 170 105
f 171 105 106
f 167 137 138
f 167 138 165
f 140 166 165
f 140 165 138
f 139 81 80
f 139 80 140
f 82 81 139
f 82 139 21
f 209 230 231
f 209 231 210
f 210 231 232
f 210 232 233
f 234 208 210
f 234 210 233
f 234 212 44
f 234 44 31
f 208 234 31
f 208 31 30
f 234 233 235
f 234 235 212
f 236 70 65
f 236 65 66
f 229 211 236
f 229 236 66
f 236 211 212
f 236 212 235
f 70 236 235
f 70 235 237
f 115 73 71
f 115 71 238
f 238 71 70
f 238 70 237
f 115 238 239
f 115 239 240
f 239 238 237
f 239 237 232
f 237 235 233
f 237 233 232
f 231 241 239
f 231 239 232
f 231 230 242
f 231 242 241
f 243 244 245
f 243 245 246
f 247 246 245
f 247 245 120
f 247 120 118
f 247 118 248
f 118 117 116
f 118 116 248
f 115 240 248
f 115 248 116
f 249 240 239
f 249 239 241
f 249 241 242
f 249 242 250
f 249 247 248
f 249 248 240
f 246 247 249
f 246 249 250
f 243 246 250
f 243 250 251
f 250 242 252
f 250 252 251
f 253 252 242
f 253 242 230
f 254 253 230
f 254 230 209
f 255 253 254
f 255 254 256
f 257 258 259
f 257 259 260
f 259 258 255
f 259 255 261
f 262 263 27
f 262 27 26
f 256 254 264
f 256 264 265
f 264 254 209
f 264 209 207
f 27 264 207
f 27 207 28
f 265 264 27
f 265 27 263
f 261 265 263
f 261 263 266
f 266 263 262
f 266 262 267
f 259 268 269
f 259 269 260
f 243 260 269
f 243 269 244
f 244 269 270
f 244 270 271
f 270 272 273
f 270 273 271
f 267 262 26
f 267 26 274
f 274 26 29
f 274 29 36
f 36 275 273
f 36 273 274
f 38 276 34
f 38 34 35
f 119 276 38
f 119 38 37
f 276 275 36
f 276 36 34
f 244 271 277
f 244 277 245
f 120 245 277
f 120 277 119
f 277 275 276
f 277 276 119
f 273 275 277
f 273 277 271
f 273 272 267
f 273 267 274
f 267 272 268
f 267 268 266
f 268 272 270
f 268 270 269
f 268 259 261
f 268 261 266
f 261 255 256
f 261 256 265
f 255 258 252
f 255 252 253
f 257 251 252
f 257 252 258
f 251 257 260
f 251 260 243
f 278 279 280
f 278 280 134
f 281 282 283
f 281 283 284
f 191 205 206
f 191 206 285
f 285 206 3
f 285 3 2
f 281 192 191
f 281 191 285
f 282 281 285
f 282 285 2
f 286 192 281
f 286 281 284
f 287 288 286
f 287 286 284
f 289 290 291
f 289 291 292
f 291 290 293
f 291 293 294
f 291 295 296
f 291 296 292
f 295 297 196
f 295 196 298
f 294 184 299
f 294 299 297
f 295 291 294
f 295 294 297
f 293 182 184
f 293 184 294
f 297 299 193
f 297 193 196
f 300 289 292
f 300 292 288
f 300 301 302
f 300 302 303
f 304 302 305
f 304 305 306
f 304 306 280
f 304 280 279
f 280 307 135
f 280 135 134
f 308 287 284
f 308 284 283
f 302 301 309
f 302 309 305
f 307 280 306
f 307 306 310
f 306 305 311
f 306 311 310
f 305 309 312
f 305 312 311
f 313 176 179
f 313 179 314
f 315 311 312
f 315 312 314
f 130 135 316
f 130 316 131
f 307 310 316
f 307 316 135
f 316 310 311
f 316 311 315
f 178 125 317
f 178 317 179
f 131 317 125
f 131 125 128
f 315 317 131
f 315 131 316
f 315 314 179
f 315 179 317
f 318 308 283
f 318 283 319
f 320 147 146
f 320 146 188
f 320 188 176
f 320 176 313
f 319 283 282
f 319 282 321
f 282 2 1
f 282 1 321
f 321 1 144
f 321 144 147
f 321 147 320
f 321 320 319
f 318 319 320
f 318 320 313
f 318 313 314
f 318 314 312
f 312 309 308
f 312 308 318
f 308 309 301
f 308 301 287
f 301 300 288
f 301 288 287
f 300 303 322
f 300 322 289
f 289 322 323
f 289 323 290
f 121 324 325
f 121 325 122
f 182 293 326
f 182 326 183
f 327 324 121
f 327 121 124
f 124 132 127
f 124 127 327
f 327 127 126
f 327 126 183
f 324 327 183
f 324 183 326
f 325 324 326
f 325 326 323
f 134 133 328
f 134 328 278
f 133 123 122
f 133 122 328
f 278 329 304
f 278 304 279
f 329 330 322
f 329 322 303
f 304 329 303
f 304 303 302
f 329 278 328
f 329 328 330
f 325 330 328
f 325 328 122
f 325 323 322
f 325 322 330
f 323 326 293
f 323 293 290
f 331 195 198
f 331 198 203
f 203 204 190
f 203 190 331
f 196 195 331
f 196 331 298
f 189 298 331
f 189 331 190
f 189 192 286
f 189 286 296
f 296 286 288
f 296 288 292
f 296 295 298
f 296 298 189
f 299 184 180
f 299 180 186
f 299 186 187
f 299 187 193
