# Rib_4L posed
v -0.480577 -0.119297 0.365113
v -0.478775 -0.120806 0.366049
v -0.472156 -0.114129 0.351828
v -0.474300 -0.112466 0.351592
v -0.485675 -0.122743 0.376403
v -0.484101 -0.124231 0.377712
v -0.490133 -0.124735 0.385654
v -0.488833 -0.125816 0.387354
v -0.476702 -0.122705 0.366867
v -0.482107 -0.126471 0.379156
v -0.481343 -0.128511 0.379625
v -0.475717 -0.124354 0.366907
v -0.487398 -0.127708 0.389221
v -0.486691 -0.130723 0.390301
v -0.481415 -0.130193 0.379124
v -0.475137 -0.126149 0.366243
v -0.468732 -0.117575 0.351445
v -0.470090 -0.115979 0.351852
v -0.548592 -0.035499 0.447832
v -0.546606 -0.035446 0.445859
v -0.547672 -0.041809 0.446620
v -0.549620 -0.041428 0.448584
v -0.547670 -0.050282 0.448362
v -0.548183 -0.059944 0.450200
v -0.550827 -0.059538 0.451846
v -0.550284 -0.049792 0.449735
v -0.550342 -0.048717 0.451968
v -0.551038 -0.057930 0.454092
v -0.550262 -0.040584 0.450998
v -0.547617 -0.056280 0.457076
v -0.549628 -0.056383 0.456734
v -0.549605 -0.064219 0.457270
v -0.547009 -0.063550 0.456977
v -0.544503 -0.076356 0.454713
v -0.546116 -0.076708 0.454498
v -0.550485 -0.068119 0.452799
v -0.548015 -0.068407 0.450799
v -0.545364 -0.077211 0.449396
v -0.547767 -0.077467 0.451215
v -0.540221 -0.089386 0.446189
v -0.541966 -0.090265 0.447337
v -0.542302 -0.090907 0.449551
v -0.547691 -0.077154 0.453586
v -0.550421 -0.066965 0.454731
v -0.541023 -0.090702 0.451283
v -0.539343 -0.090409 0.452345
v -0.542853 -0.076095 0.454414
v -0.537927 -0.089858 0.451938
v -0.532405 -0.102874 0.446396
v -0.531156 -0.102274 0.446474
v -0.536865 -0.089491 0.451248
v -0.541376 -0.075869 0.453552
v -0.530542 -0.101889 0.446070
v -0.525060 -0.109745 0.434941
v -0.532046 -0.100048 0.441199
v -0.531181 -0.100148 0.441936
v -0.524340 -0.109839 0.435612
v -0.536824 -0.088674 0.446474
v -0.537852 -0.088766 0.445781
v -0.530171 -0.100341 0.443286
v -0.522922 -0.109824 0.436896
v -0.536092 -0.088786 0.448099
v -0.540810 -0.075932 0.448754
v -0.540048 -0.075430 0.450115
v -0.536032 -0.089242 0.450369
v -0.540334 -0.075571 0.452015
v -0.530059 -0.101118 0.444922
v -0.522472 -0.110941 0.438462
v -0.508086 -0.128063 0.420794
v -0.500467 -0.132184 0.410496
v -0.499692 -0.131894 0.411255
v -0.507128 -0.128324 0.421766
v -0.494056 -0.133156 0.399613
v -0.493166 -0.133062 0.400581
v -0.492639 -0.130835 0.400637
v -0.499033 -0.129980 0.410934
v -0.506288 -0.126505 0.421710
v -0.516023 -0.122724 0.431022
v -0.515106 -0.122534 0.431684
v -0.516896 -0.122061 0.429738
v -0.508896 -0.127528 0.419642
v -0.525531 -0.113854 0.438676
v -0.526702 -0.112868 0.436689
v -0.518003 -0.120985 0.428161
v -0.509953 -0.126592 0.418119
v -0.524379 -0.113642 0.439656
v -0.514234 -0.120738 0.431338
v -0.523000 -0.112291 0.439386
v -0.523629 -0.113091 0.439720
v -0.533672 -0.102846 0.445164
v -0.534736 -0.102732 0.443728
v -0.515006 -0.117671 0.428738
v -0.514220 -0.118933 0.430177
v -0.500223 -0.126089 0.408302
v -0.494441 -0.126862 0.397460
v -0.495561 -0.125817 0.395763
v -0.501709 -0.125564 0.406696
v -0.502319 -0.124781 0.405576
v -0.496235 -0.125105 0.394638
v -0.509268 -0.122344 0.416382
v -0.508828 -0.122926 0.417359
v -0.507411 -0.123280 0.418923
v -0.517142 -0.117477 0.426629
v -0.516719 -0.117877 0.427371
v -0.493224 -0.128286 0.399326
v -0.499273 -0.127678 0.409922
v -0.506376 -0.124435 0.420536
v -0.541603 -0.066053 0.451847
v -0.542719 -0.065679 0.453391
v -0.544365 -0.064614 0.454996
v -0.545078 -0.056759 0.454738
v -0.547303 -0.047499 0.453443
v -0.544656 -0.047259 0.452566
v -0.453284 -0.033469 0.318897
v -0.454550 -0.033506 0.319767
v -0.454200 -0.032516 0.320404
v -0.452838 -0.032921 0.319227
v -0.453512 -0.042489 0.322116
v -0.452400 -0.042519 0.320066
v -0.452338 -0.035438 0.320298
v -0.453464 -0.035038 0.322342
v -0.453738 -0.032543 0.321869
v -0.455829 -0.032355 0.324107
v -0.455573 -0.034801 0.324624
v -0.452730 -0.033069 0.320308
v -0.456356 -0.032234 0.322364
v -0.458358 -0.031875 0.324320
v -0.457896 -0.032284 0.325545
v -0.467994 -0.118998 0.350464
v -0.475704 -0.126956 0.365042
v -0.482034 -0.130870 0.378200
v -0.487140 -0.132083 0.389973
v -0.487994 -0.132612 0.389041
v -0.466631 -0.092091 0.332603
v -0.467058 -0.092036 0.332481
v -0.471135 -0.102197 0.340571
v -0.470774 -0.102364 0.340821
v -0.475414 -0.111613 0.351232
v -0.469498 -0.103102 0.340732
v -0.481473 -0.118626 0.364328
v -0.467141 -0.104668 0.340158
v -0.464614 -0.106718 0.339197
v -0.462990 -0.094017 0.331110
v -0.465301 -0.092705 0.332211
v -0.460639 -0.095778 0.329494
v -0.459643 -0.082295 0.325420
v -0.461876 -0.081214 0.326808
v -0.457514 -0.083513 0.323715
v -0.486640 -0.122189 0.375355
v -0.491019 -0.124118 0.384433
v -0.486890 -0.122331 0.374751
v -0.491463 -0.124459 0.383804
v -0.487112 -0.123713 0.374176
v -0.491783 -0.126293 0.383556
v -0.486615 -0.126826 0.374209
v -0.491429 -0.129174 0.384276
v -0.481201 -0.122702 0.362188
v -0.479349 -0.125204 0.362882
v -0.485192 -0.129246 0.375314
v -0.474428 -0.115597 0.348420
v -0.472056 -0.117765 0.348481
v -0.476037 -0.112439 0.349611
v -0.482025 -0.119380 0.362812
v -0.490408 -0.131446 0.385851
v -0.483654 -0.130279 0.376700
v -0.489215 -0.132103 0.387542
v -0.477379 -0.126469 0.363912
v -0.497447 -0.126838 0.393852
v -0.497174 -0.129810 0.394849
v -0.502946 -0.124537 0.404895
v -0.496754 -0.125040 0.394049
v -0.503788 -0.126214 0.404785
v -0.503606 -0.128797 0.405888
v -0.481567 -0.118412 0.363766
v -0.475660 -0.111298 0.350797
v -0.456775 -0.058093 0.321434
v -0.454907 -0.058841 0.319741
v -0.454174 -0.050347 0.321164
v -0.455804 -0.049646 0.323286
v -0.453839 -0.059107 0.318452
v -0.453099 -0.050529 0.319272
v -0.452526 -0.051027 0.317223
v -0.452030 -0.042540 0.318159
v -0.453119 -0.059919 0.316642
v -0.455560 -0.070423 0.320345
v -0.454482 -0.070839 0.319199
v -0.456433 -0.084244 0.322530
v -0.457633 -0.069697 0.322056
v -0.459420 -0.084392 0.322213
v -0.462369 -0.097042 0.327404
v -0.465292 -0.094909 0.329438
v -0.462251 -0.082623 0.324672
v -0.455788 -0.085067 0.321369
v -0.459153 -0.097287 0.327731
v -0.458790 -0.098357 0.326514
v -0.455915 -0.085875 0.320175
v -0.462713 -0.109209 0.337262
v -0.462865 -0.109949 0.336292
v -0.463253 -0.108259 0.338204
v -0.459480 -0.096879 0.328296
v -0.468372 -0.119683 0.349324
v -0.469844 -0.119087 0.348789
v -0.464252 -0.109319 0.336260
v -0.466687 -0.107954 0.336712
v -0.469425 -0.105755 0.337803
v -0.471209 -0.103174 0.339509
v -0.545058 -0.041555 0.445495
v -0.545648 -0.050054 0.447956
v -0.542764 -0.040875 0.444860
v -0.544342 -0.049585 0.447731
v -0.543323 -0.076923 0.448444
v -0.545611 -0.068236 0.449597
v -0.535002 -0.101931 0.442092
v -0.527392 -0.111739 0.435155
v -0.519106 -0.119590 0.426463
v -0.511041 -0.125479 0.416525
v -0.502618 -0.129954 0.407408
v -0.501468 -0.131136 0.409063
v -0.495015 -0.132694 0.398239
v -0.496185 -0.131721 0.396511
v -0.510877 -0.123097 0.415481
v -0.509889 -0.121957 0.415669
v -0.517584 -0.117113 0.426079
v -0.518680 -0.117359 0.425498
v -0.525792 -0.109535 0.434363
v -0.526878 -0.110079 0.434189
v -0.533050 -0.100134 0.440831
v -0.534179 -0.100809 0.441107
v -0.538895 -0.088963 0.445717
v -0.540944 -0.039842 0.444935
v -0.543124 -0.048993 0.447699
v -0.543730 -0.058620 0.449419
v -0.544810 -0.059198 0.449302
v -0.545998 -0.059665 0.449493
v -0.544063 -0.067827 0.449208
v -0.541984 -0.076527 0.448284
v -0.542711 -0.067212 0.449431
v -0.541581 -0.066506 0.450379
v -0.542542 -0.057956 0.450019
v -0.542001 -0.057376 0.450981
v -0.541890 -0.048348 0.448018
v -0.539537 -0.039312 0.445556
v -0.539889 -0.034730 0.449285
v -0.542669 -0.035148 0.450907
v -0.543380 -0.039513 0.451061
v -0.540345 -0.039039 0.448990
v -0.541858 -0.047184 0.450609
v -0.542978 -0.057059 0.452436
v -0.540971 -0.047703 0.448671
v -0.538843 -0.039156 0.446749
v -0.537790 -0.034262 0.447151
v -0.537223 -0.033615 0.445421
v -0.538719 -0.033076 0.444688
v -0.541080 -0.033542 0.444373
v -0.540219 -0.032322 0.446097
v -0.541116 -0.032410 0.445025
v -0.539469 -0.033398 0.448129
v -0.539555 -0.032918 0.447195
v -0.542150 -0.032938 0.448893
v -0.541080 -0.033534 0.449517
v -0.542806 -0.032917 0.447563
v -0.547087 -0.033477 0.447916
v -0.545524 -0.033130 0.446789
v -0.543851 -0.034435 0.444673
v -0.543299 -0.032736 0.445710
v -0.545132 -0.033134 0.448631
v -0.547436 -0.033455 0.449567
v -0.544501 -0.033351 0.449933
v -0.543308 -0.034012 0.450436
v -0.545331 -0.034315 0.451022
v -0.545862 -0.035557 0.451688
v -0.546750 -0.033928 0.450746
v -0.548736 -0.035387 0.451855
v -0.549696 -0.035160 0.450321
v -0.548844 -0.040309 0.451894
v -0.549038 -0.047997 0.453107
v -0.546282 -0.040115 0.451874
v -0.458951 -0.032904 0.323634
v -0.459924 -0.033247 0.325102
v -0.459689 -0.032800 0.325860
v -0.463891 -0.081022 0.326846
v -0.463655 -0.080574 0.327450
v -0.461543 -0.068254 0.324416
v -0.462105 -0.068418 0.324237
v -0.467107 -0.092807 0.331560
v -0.460749 -0.069667 0.322064
v -0.461309 -0.056925 0.323697
v -0.460259 -0.058039 0.321280
v -0.460589 -0.056721 0.323801
v -0.460374 -0.040403 0.324979
v -0.460779 -0.047997 0.324387
v -0.460057 -0.047657 0.324915
v -0.460010 -0.040070 0.326161
v -0.459180 -0.032865 0.326231
v -0.460097 -0.034719 0.326382
v -0.459307 -0.034732 0.326492
v -0.459203 -0.040431 0.326293
v -0.459478 -0.047780 0.324766
v -0.458968 -0.057275 0.322965
v -0.457992 -0.048584 0.324505
v -0.457684 -0.041241 0.325841
v -0.457792 -0.034726 0.326018
v -0.455330 -0.042202 0.324838
v -0.460332 -0.056696 0.323679
v -0.461203 -0.068292 0.324262
v -0.459874 -0.068855 0.323555
v -0.463215 -0.080635 0.327415
v -0.459474 -0.049277 0.321713
v -0.459145 -0.041611 0.322645
v -0.456729 -0.042339 0.320724
v -0.457087 -0.050469 0.319701
v -0.454622 -0.042650 0.318959
v -0.455123 -0.051201 0.318055
v -0.452939 -0.035271 0.318322
v -0.454504 -0.035287 0.319406
v -0.453493 -0.051375 0.316728
v -0.452966 -0.042819 0.317542
v -0.452086 -0.035174 0.318708
v -0.456806 -0.033283 0.321653
v -0.459157 -0.035120 0.323406
v -0.460216 -0.034891 0.325265
v -0.456834 -0.035220 0.321354
v -0.459819 -0.098539 0.326082
v -0.457188 -0.085537 0.320583
v -0.458073 -0.070925 0.319673
v -0.457625 -0.059223 0.318982
v -0.455905 -0.071531 0.317995
v -0.453705 -0.071769 0.317531
v -0.454525 -0.071887 0.317129
v -0.454011 -0.060206 0.316249
v -0.455524 -0.059979 0.317355
f 1 2 3
f 1 3 4
f 1 5 6
f 1 6 2
f 6 5 7
f 6 7 8
f 9 2 6
f 9 6 10
f 10 11 12
f 10 12 9
f 11 10 13
f 11 13 14
f 12 11 15
f 12 15 16
f 17 18 9
f 17 9 12
f 19 20 21
f 19 21 22
f 23 24 25
f 23 25 26
f 27 26 25
f 27 25 28
f 22 21 23
f 22 23 26
f 27 29 22
f 27 22 26
f 30 31 32
f 30 32 33
f 34 33 32
f 34 32 35
f 36 37 38
f 36 38 39
f 39 38 40
f 39 40 41
f 39 41 42
f 39 42 43
f 44 43 35
f 44 35 32
f 31 28 44
f 31 44 32
f 28 25 36
f 28 36 44
f 44 36 39
f 44 39 43
f 42 45 35
f 42 35 43
f 34 35 45
f 34 45 46
f 47 34 46
f 47 46 48
f 48 46 49
f 48 49 50
f 47 48 51
f 47 51 52
f 51 48 50
f 51 50 53
f 54 55 56
f 54 56 57
f 58 56 55
f 58 55 59
f 60 61 57
f 60 57 56
f 62 60 56
f 62 56 58
f 62 58 63
f 62 63 64
f 65 62 64
f 65 64 66
f 65 67 60
f 65 60 62
f 68 61 60
f 68 60 67
f 69 70 71
f 69 71 72
f 70 73 74
f 70 74 71
f 71 74 75
f 71 75 76
f 77 72 71
f 77 71 76
f 78 69 72
f 78 72 79
f 69 78 80
f 69 80 81
f 82 83 84
f 82 84 80
f 80 84 85
f 80 85 81
f 86 82 80
f 86 80 78
f 79 87 88
f 79 88 89
f 89 88 53
f 89 53 50
f 86 89 50
f 86 50 49
f 45 90 49
f 45 49 46
f 42 91 90
f 42 90 45
f 91 83 82
f 91 82 90
f 90 82 86
f 90 86 49
f 86 78 79
f 86 79 89
f 87 79 72
f 87 72 77
f 92 61 68
f 92 68 93
f 94 95 96
f 94 96 97
f 98 97 96
f 98 96 99
f 100 101 97
f 100 97 98
f 101 102 94
f 101 94 97
f 101 100 103
f 101 103 104
f 54 57 104
f 54 104 103
f 92 104 57
f 92 57 61
f 104 92 102
f 104 102 101
f 105 106 76
f 105 76 75
f 105 95 94
f 105 94 106
f 106 107 77
f 106 77 76
f 102 107 106
f 102 106 94
f 107 102 92
f 107 92 93
f 107 93 87
f 107 87 77
f 87 93 68
f 87 68 88
f 68 67 53
f 68 53 88
f 51 53 67
f 51 67 65
f 51 65 66
f 51 66 52
f 52 66 108
f 52 108 109
f 109 110 47
f 109 47 52
f 47 110 33
f 47 33 34
f 110 111 30
f 110 30 33
f 112 30 111
f 112 111 113
f 114 115 116
f 114 116 117
f 118 119 120
f 118 120 121
f 122 123 124
f 122 124 121
f 122 121 120
f 122 120 125
f 122 125 117
f 122 117 116
f 123 122 116
f 123 116 126
f 127 128 123
f 127 123 126
f 17 12 16
f 17 16 129
f 130 16 15
f 130 15 131
f 132 133 131
f 132 131 15
f 134 135 136
f 134 136 137
f 137 138 4
f 137 4 139
f 4 138 140
f 4 140 1
f 15 11 14
f 15 14 132
f 13 8 95
f 13 95 105
f 95 8 7
f 95 7 96
f 13 10 6
f 13 6 8
f 13 105 75
f 13 75 14
f 2 9 18
f 2 18 3
f 141 3 18
f 141 18 142
f 143 144 139
f 143 139 141
f 145 143 141
f 145 141 142
f 143 146 147
f 143 147 144
f 146 143 145
f 146 145 148
f 141 139 4
f 141 4 3
f 139 144 134
f 139 134 137
f 7 5 149
f 7 149 150
f 151 152 150
f 151 150 149
f 151 153 154
f 151 154 152
f 155 156 154
f 155 154 153
f 155 157 158
f 155 158 159
f 160 161 158
f 160 158 157
f 162 160 157
f 162 157 163
f 153 163 157
f 153 157 155
f 164 159 165
f 164 165 166
f 167 165 159
f 167 159 158
f 156 155 159
f 156 159 164
f 168 154 156
f 168 156 169
f 170 171 168
f 170 168 172
f 168 169 173
f 168 173 172
f 168 171 152
f 168 152 154
f 151 174 163
f 151 163 153
f 174 151 149
f 174 149 140
f 138 175 174
f 138 174 140
f 1 140 149
f 1 149 5
f 163 174 175
f 163 175 162
f 7 150 99
f 7 99 96
f 150 152 171
f 150 171 99
f 136 175 138
f 136 138 137
f 176 177 178
f 176 178 179
f 177 180 181
f 177 181 178
f 178 181 119
f 178 119 118
f 182 183 119
f 182 119 181
f 182 181 180
f 182 180 184
f 177 185 186
f 177 186 180
f 185 148 187
f 185 187 186
f 188 146 148
f 188 148 185
f 185 177 176
f 185 176 188
f 189 190 191
f 189 191 192
f 193 194 195
f 193 195 196
f 197 198 195
f 197 195 194
f 197 199 17
f 197 17 129
f 194 200 199
f 194 199 197
f 145 142 199
f 145 199 200
f 187 148 145
f 187 145 200
f 187 200 194
f 187 194 193
f 17 199 142
f 17 142 18
f 198 197 129
f 198 129 201
f 198 201 202
f 198 202 203
f 204 203 202
f 204 202 161
f 158 161 202
f 158 202 167
f 202 201 130
f 202 130 167
f 201 129 16
f 201 16 130
f 204 205 191
f 204 191 190
f 205 160 162
f 205 162 206
f 160 205 204
f 160 204 161
f 206 162 175
f 206 175 136
f 207 208 23
f 207 23 21
f 208 207 209
f 208 209 210
f 36 25 24
f 36 24 37
f 211 38 37
f 211 37 212
f 213 91 42
f 213 42 41
f 214 83 91
f 214 91 213
f 214 215 84
f 214 84 83
f 85 84 215
f 85 215 216
f 217 85 216
f 217 216 173
f 85 217 218
f 85 218 81
f 69 81 218
f 69 218 70
f 73 70 218
f 73 218 219
f 217 220 219
f 217 219 218
f 164 166 219
f 164 219 220
f 156 164 220
f 156 220 169
f 169 220 217
f 169 217 173
f 73 219 166
f 73 166 133
f 221 172 173
f 221 173 216
f 221 222 170
f 221 170 172
f 170 222 100
f 170 100 98
f 100 222 223
f 100 223 103
f 222 221 224
f 222 224 223
f 224 221 216
f 224 216 215
f 225 223 224
f 225 224 226
f 227 55 54
f 227 54 225
f 226 228 227
f 226 227 225
f 59 55 227
f 59 227 229
f 40 229 227
f 40 227 228
f 225 54 103
f 225 103 223
f 214 226 224
f 214 224 215
f 213 228 226
f 213 226 214
f 40 228 213
f 40 213 41
f 211 229 40
f 211 40 38
f 171 170 98
f 171 98 99
f 167 130 131
f 167 131 165
f 133 166 165
f 133 165 131
f 132 74 73
f 132 73 133
f 75 74 132
f 75 132 14
f 209 230 231
f 209 231 210
f 210 231 232
f 210 232 233
f 234 208 210
f 234 210 233
f 234 212 37
f 234 37 24
f 208 234 24
f 208 24 23
f 234 233 235
f 234 235 212
f 236 63 58
f 236 58 59
f 229 211 236
f 229 236 59
f 236 211 212
f 236 212 235
f 63 236 235
f 63 235 237
f 108 66 64
f 108 64 238
f 238 64 63
f 238 63 237
f 108 238 239
f 108 239 240
f 239 238 237
f 239 237 232
f 237 235 233
f 237 233 232
f 231 241 239
f 231 239 232
f 231 230 242
f 231 242 241
f 243 244 245
f 243 245 246
f 247 246 245
f 247 245 113
f 247 113 111
f 247 111 248
f 111 110 109
f 111 109 248
f 108 240 248
f 108 248 109
f 249 240 239
f 249 239 241
f 249 241 242
f 249 242 250
f 249 247 248
f 249 248 240
f 246 247 249
f 246 249 250
f 243 246 250
f 243 250 251
f 250 242 252
f 250 252 251
f 253 252 242
f 253 242 230
f 254 253 230
f 254 230 209
f 255 253 254
f 255 254 256
f 257 258 259
f 257 259 260
f 259 258 255
f 259 255 261
f 262 263 20
f 262 20 19
f 256 254 264
f 256 264 265
f 264 254 209
f 264 209 207
f 20 264 207
f 20 207 21
f 265 264 20
f 265 20 263
f 261 265 263
f 261 263 266
f 266 263 262
f 266 262 267
f 259 268 269
f 259 269 260
f 243 260 269
f 243 269 244
f 244 269 270
f 244 270 271
f 270 272 273
f 270 273 271
f 267 262 19
f 267 19 274
f 274 19 22
f 274 22 29
f 29 275 273
f 29 273 274
f 31 276 27
f 31 27 28
f 112 276 31
f 112 31 30
f 276 275 29
f 276 29 27
f 244 271 277
f 244 277 245
f 113 245 277
f 113 277 112
f 277 275 276
f 277 276 112
f 273 275 277
f 273 277 271
f 273 272 267
f 273 267 274
f 267 272 268
f 267 268 266
f 268 272 270
f 268 270 269
f 268 259 261
f 268 261 266
f 261 255 256
f 261 256 265
f 255 258 252
f 255 252 253
f 257 251 252
f 257 252 258
f 251 257 260
f 251 260 243
f 278 279 280
f 278 280 127
f 281 282 283
f 281 283 284
f 191 205 206
f 191 206 285
f 285 206 136
f 285 136 135
f 281 192 191
f 281 191 285
f 282 281 285
f 282 285 135
f 286 192 281
f 286 281 284
f 287 288 286
f 287 286 284
f 289 287 284
f 289 284 283
f 290 291 292
f 290 292 293
f 294 280 295
f 294 295 296
f 295 293 297
f 295 297 296
f 293 292 298
f 293 298 297
f 299 176 179
f 299 179 300
f 301 297 298
f 301 298 300
f 123 128 302
f 123 302 124
f 294 296 302
f 294 302 128
f 302 296 297
f 302 297 301
f 178 118 303
f 178 303 179
f 124 303 118
f 124 118 121
f 301 303 124
f 301 124 302
f 301 300 179
f 301 179 303
f 304 289 283
f 304 283 305
f 306 147 146
f 306 146 188
f 306 188 176
f 306 176 299
f 305 283 282
f 305 282 307
f 282 135 134
f 282 134 307
f 307 134 144
f 307 144 147
f 307 147 306
f 307 306 305
f 304 305 306
f 304 306 299
f 304 299 300
f 304 300 298
f 298 292 289
f 298 289 304
f 289 292 291
f 289 291 287
f 291 308 288
f 291 288 287
f 308 309 310
f 308 310 311
f 311 310 312
f 311 312 313
f 114 314 315
f 114 315 115
f 182 316 317
f 182 317 183
f 318 314 114
f 318 114 117
f 117 125 120
f 117 120 318
f 318 120 119
f 318 119 183
f 314 318 183
f 314 183 317
f 315 314 317
f 315 317 312
f 127 126 319
f 127 319 278
f 126 116 115
f 126 115 319
f 278 320 321
f 278 321 279
f 320 322 310
f 320 310 309
f 321 320 309
f 321 309 290
f 320 278 319
f 320 319 322
f 315 322 319
f 315 319 115
f 315 312 310
f 315 310 322
f 312 317 316
f 312 316 313
f 323 195 198
f 323 198 203
f 203 204 190
f 203 190 323
f 196 195 323
f 196 323 324
f 189 324 323
f 189 323 190
f 189 192 286
f 189 286 325
f 325 286 288
f 325 288 326
f 325 327 324
f 325 324 189
f 328 184 180
f 328 180 186
f 328 186 187
f 328 187 193
f 329 328 193
f 329 193 196
f 316 182 184
f 316 184 330
f 327 331 330
f 327 330 329
f 330 184 328
f 330 328 329
f 327 329 196
f 327 196 324
f 331 327 325
f 331 325 326
f 331 313 316
f 331 316 330
f 311 313 331
f 311 331 326
f 308 311 326
f 308 326 288
f 308 291 290
f 308 290 309
f 321 290 293
f 321 293 295
f 321 295 280
f 321 280 279
f 280 294 128
f 280 128 127
