# Rib_12L posed
v -0.327951 -0.108114 0.452677
v -0.327989 -0.109163 0.452150
v -0.330513 -0.109666 0.454303
v -0.330412 -0.108617 0.454767
v -0.333242 -0.108771 0.457001
v -0.332250 -0.107861 0.457548
v -0.329404 -0.107739 0.455356
v -0.336499 -0.108241 0.459074
v -0.335571 -0.107198 0.459607
v -0.333851 -0.106739 0.460191
v -0.330576 -0.107462 0.458069
v -0.338922 -0.105867 0.461730
v -0.337205 -0.105503 0.462364
v -0.342240 -0.104265 0.463347
v -0.340569 -0.103935 0.464016
v -0.332130 -0.107105 0.460574
v -0.335542 -0.105915 0.462793
v -0.334286 -0.106771 0.462967
v -0.330761 -0.107911 0.460702
v -0.338933 -0.104432 0.464526
v -0.337720 -0.105363 0.464768
v -0.333645 -0.107867 0.462930
v -0.329986 -0.108940 0.460637
v -0.327189 -0.108527 0.458434
v -0.328746 -0.107735 0.458380
v -0.394625 -0.050588 0.461389
v -0.395562 -0.051347 0.458874
v -0.393927 -0.053502 0.460598
v -0.393126 -0.052966 0.462744
v -0.390360 -0.056994 0.463735
v -0.387149 -0.061197 0.466333
v -0.387585 -0.060517 0.466935
v -0.390793 -0.055938 0.464658
v -0.389985 -0.055115 0.466011
v -0.386823 -0.059088 0.468617
v -0.391934 -0.052411 0.464506
v -0.383749 -0.057463 0.471326
v -0.385337 -0.057465 0.470518
v -0.381762 -0.063148 0.472818
v -0.380388 -0.063009 0.473401
v -0.375653 -0.071475 0.473841
v -0.376520 -0.072191 0.473719
v -0.384246 -0.066089 0.468602
v -0.384100 -0.066471 0.467983
v -0.380065 -0.072559 0.469169
v -0.380151 -0.072604 0.469825
v -0.375269 -0.079064 0.469958
v -0.375019 -0.079577 0.470739
v -0.373631 -0.079647 0.472135
v -0.378698 -0.072488 0.471771
v -0.383250 -0.064845 0.470659
v -0.371977 -0.079315 0.473349
v -0.371043 -0.078655 0.473541
v -0.375137 -0.070953 0.473424
v -0.370624 -0.077916 0.473207
v -0.365494 -0.085131 0.473057
v -0.365102 -0.084259 0.472874
v -0.370688 -0.077178 0.472473
v -0.375219 -0.070843 0.472345
v -0.365287 -0.083435 0.472331
v -0.363959 -0.089636 0.468938
v -0.369144 -0.083753 0.469802
v -0.368465 -0.082914 0.469895
v -0.363238 -0.088716 0.469150
v -0.373323 -0.077031 0.470098
v -0.374342 -0.077611 0.469649
v -0.367396 -0.082613 0.470471
v -0.362078 -0.088366 0.469729
v -0.372082 -0.076773 0.470918
v -0.377347 -0.071237 0.469589
v -0.376418 -0.070956 0.470320
v -0.371196 -0.076868 0.471736
v -0.375649 -0.070831 0.471250
v -0.366557 -0.082551 0.471019
v -0.360873 -0.088551 0.470498
v -0.348289 -0.101202 0.469210
v -0.344159 -0.103911 0.467749
v -0.344176 -0.102506 0.467750
v -0.348292 -0.099747 0.469127
v -0.340656 -0.106053 0.466237
v -0.340656 -0.104635 0.466316
v -0.341304 -0.103392 0.466209
v -0.344777 -0.101303 0.467554
v -0.348921 -0.098505 0.468808
v -0.353494 -0.097153 0.470808
v -0.353367 -0.095839 0.470666
v -0.354346 -0.098228 0.470535
v -0.348898 -0.102552 0.469010
v -0.360253 -0.092447 0.472137
v -0.361599 -0.093117 0.471448
v -0.355788 -0.098867 0.469860
v -0.350561 -0.103024 0.468292
v -0.359552 -0.091391 0.472193
v -0.354018 -0.094637 0.470152
v -0.359850 -0.089246 0.471341
v -0.359371 -0.090281 0.471949
v -0.366228 -0.086032 0.473013
v -0.367368 -0.086758 0.472488
v -0.356457 -0.093650 0.468825
v -0.355116 -0.093886 0.469508
v -0.347344 -0.100107 0.466619
v -0.344151 -0.102038 0.465406
v -0.345676 -0.102364 0.464820
v -0.348754 -0.100405 0.466019
v -0.349585 -0.101470 0.465579
v -0.346466 -0.103583 0.464360
v -0.353824 -0.098634 0.466665
v -0.352884 -0.097724 0.467120
v -0.351439 -0.097425 0.467740
v -0.358636 -0.094892 0.467815
v -0.357791 -0.093990 0.468202
v -0.342544 -0.102470 0.465907
v -0.345900 -0.100460 0.467171
v -0.350039 -0.097698 0.468330
v -0.379936 -0.064900 0.470230
v -0.379463 -0.064117 0.471745
v -0.379307 -0.063262 0.473179
v -0.382633 -0.057954 0.471306
v -0.386572 -0.053834 0.469293
v -0.386199 -0.054129 0.468524
v -0.316072 -0.106290 0.448825
v -0.316483 -0.106343 0.448621
v -0.316433 -0.106073 0.448780
v -0.315936 -0.106129 0.448963
v -0.316554 -0.105388 0.449475
v -0.315790 -0.105838 0.449471
v -0.315819 -0.105876 0.449209
v -0.316347 -0.105618 0.449165
v -0.316332 -0.105839 0.448952
v -0.316935 -0.105702 0.448813
v -0.317080 -0.105420 0.449032
v -0.315962 -0.105958 0.449034
v -0.316968 -0.106003 0.448608
v -0.317580 -0.105907 0.448436
v -0.317575 -0.105634 0.448601
v -0.326312 -0.109507 0.458302
v -0.329992 -0.110044 0.460411
v -0.333714 -0.109071 0.462718
v -0.337149 -0.106541 0.464771
v -0.337280 -0.107836 0.464565
v -0.327674 -0.107346 0.455877
v -0.325680 -0.107577 0.456155
v -0.325062 -0.106838 0.453862
v -0.326941 -0.107225 0.453319
v -0.322810 -0.107091 0.454118
v -0.322923 -0.106124 0.452177
v -0.324768 -0.106438 0.451628
v -0.320701 -0.106393 0.452427
v -0.339797 -0.107026 0.461216
v -0.343139 -0.105416 0.462819
v -0.339895 -0.108417 0.460877
v -0.343266 -0.106875 0.462503
v -0.339223 -0.109745 0.460837
v -0.342645 -0.108317 0.462505
v -0.337826 -0.110654 0.461140
v -0.341320 -0.109379 0.462876
v -0.334311 -0.111639 0.458967
v -0.332494 -0.111759 0.459484
v -0.335997 -0.110928 0.461715
v -0.330691 -0.112265 0.456560
v -0.328838 -0.112332 0.457000
v -0.332622 -0.110830 0.456470
v -0.335894 -0.110578 0.458633
v -0.339564 -0.109763 0.463509
v -0.334481 -0.110225 0.462288
v -0.338041 -0.109124 0.464125
v -0.330949 -0.110936 0.459954
v -0.345791 -0.106901 0.464205
v -0.344364 -0.108101 0.464722
v -0.349674 -0.103013 0.465390
v -0.346487 -0.105224 0.464122
v -0.349077 -0.104662 0.465535
v -0.347721 -0.105895 0.466165
v -0.336608 -0.109465 0.458702
v -0.333374 -0.109864 0.456587
v -0.319532 -0.105229 0.450143
v -0.317812 -0.105539 0.450438
v -0.317030 -0.105316 0.449877
v -0.318420 -0.105030 0.449631
v -0.316283 -0.106167 0.450424
v -0.315846 -0.105839 0.449869
v -0.315229 -0.106506 0.449641
v -0.315420 -0.106307 0.449340
v -0.315425 -0.107013 0.450141
v -0.319040 -0.105907 0.451248
v -0.317239 -0.106663 0.451211
v -0.318726 -0.107231 0.452325
v -0.321054 -0.105573 0.450942
v -0.320944 -0.110202 0.450479
v -0.322940 -0.111214 0.452468
v -0.325091 -0.111068 0.452135
v -0.323126 -0.109979 0.450129
v -0.317583 -0.108279 0.451963
v -0.319617 -0.109077 0.453631
v -0.319773 -0.109905 0.453231
v -0.317605 -0.109206 0.451480
v -0.322877 -0.109415 0.455908
v -0.323042 -0.110249 0.455593
v -0.323891 -0.108402 0.456131
v -0.320754 -0.108013 0.453987
v -0.326431 -0.110421 0.458033
v -0.327100 -0.111971 0.457482
v -0.323809 -0.111729 0.455028
v -0.325693 -0.112058 0.454574
v -0.327664 -0.111987 0.454175
v -0.329698 -0.110578 0.454139
v -0.393675 -0.054027 0.458869
v -0.389684 -0.057895 0.463314
v -0.391828 -0.054207 0.459777
v -0.388318 -0.058248 0.463678
v -0.379285 -0.072199 0.469066
v -0.383332 -0.066465 0.467909
v -0.368948 -0.086648 0.471147
v -0.363270 -0.092851 0.470168
v -0.357481 -0.098547 0.468800
v -0.352296 -0.102662 0.467409
v -0.346091 -0.106021 0.466942
v -0.344723 -0.105271 0.467510
v -0.341279 -0.107452 0.465941
v -0.342635 -0.108309 0.465413
v -0.353558 -0.101488 0.466728
v -0.354041 -0.100002 0.466514
v -0.358904 -0.096129 0.467737
v -0.358614 -0.097444 0.467988
v -0.364272 -0.090797 0.468993
v -0.364221 -0.091921 0.469254
v -0.369422 -0.084857 0.470032
v -0.369648 -0.085833 0.470225
v -0.375123 -0.078215 0.469415
v -0.390179 -0.053809 0.461720
v -0.387381 -0.057691 0.464396
v -0.384344 -0.061133 0.467093
v -0.385263 -0.061524 0.466522
v -0.386367 -0.061416 0.466255
v -0.382428 -0.066224 0.467976
v -0.378438 -0.071689 0.469081
v -0.381341 -0.065809 0.468643
v -0.380619 -0.065433 0.469240
v -0.383613 -0.060630 0.467831
v -0.382968 -0.059885 0.468919
v -0.386418 -0.056945 0.465546
v -0.388678 -0.053771 0.463682
v -0.388116 -0.051234 0.465729
v -0.388586 -0.050753 0.466251
v -0.387681 -0.052246 0.467107
v -0.387188 -0.052879 0.466531
v -0.385477 -0.055004 0.468018
v -0.382690 -0.058908 0.470208
v -0.385532 -0.055916 0.466940
v -0.387547 -0.053417 0.465466
v -0.388307 -0.051615 0.464741
v -0.389110 -0.051567 0.463333
v -0.390834 -0.051609 0.461146
v -0.392760 -0.052608 0.458549
v -0.391207 -0.050988 0.461152
v -0.392891 -0.051584 0.458979
v -0.388660 -0.050970 0.464645
v -0.389400 -0.050945 0.463439
v -0.389822 -0.051124 0.463866
v -0.388790 -0.050837 0.465265
v -0.391868 -0.051277 0.460700
v -0.394596 -0.049744 0.461199
v -0.395057 -0.050026 0.460070
v -0.394825 -0.052315 0.457598
v -0.394605 -0.051055 0.458535
v -0.393327 -0.050795 0.461494
v -0.393335 -0.049834 0.462967
v -0.390800 -0.050871 0.464633
v -0.389451 -0.050509 0.465770
v -0.390070 -0.049795 0.465958
v -0.389511 -0.050144 0.466494
v -0.391622 -0.049667 0.464923
v -0.391451 -0.049923 0.465398
v -0.393281 -0.050078 0.463414
v -0.390235 -0.051588 0.466556
v -0.388453 -0.053783 0.467962
v -0.388503 -0.051394 0.467557
v -0.317702 -0.106162 0.448285
v -0.318129 -0.105960 0.448254
v -0.318099 -0.105799 0.448340
v -0.324881 -0.109276 0.450052
v -0.325813 -0.108308 0.450339
v -0.323797 -0.107373 0.448893
v -0.322835 -0.108435 0.448552
v -0.327101 -0.110073 0.451935
v -0.321064 -0.109324 0.448639
v -0.320896 -0.107697 0.447752
v -0.319304 -0.108538 0.447861
v -0.321859 -0.106673 0.448105
v -0.318800 -0.106347 0.447997
v -0.319590 -0.106893 0.447699
v -0.320355 -0.106065 0.447967
v -0.319268 -0.105762 0.448159
v -0.318011 -0.105619 0.448445
v -0.318548 -0.105768 0.448272
v -0.318406 -0.105452 0.448477
v -0.319187 -0.105316 0.448529
v -0.320378 -0.105383 0.448529
v -0.321014 -0.105303 0.449560
v -0.319645 -0.105039 0.449150
v -0.318561 -0.105095 0.448964
v -0.317841 -0.105365 0.448768
v -0.317516 -0.105171 0.449274
v -0.321887 -0.105803 0.448802
v -0.323762 -0.106394 0.449572
v -0.322767 -0.105733 0.450336
v -0.325787 -0.107265 0.450940
v -0.318354 -0.107580 0.447819
v -0.317974 -0.106830 0.448034
v -0.316974 -0.107081 0.448276
v -0.317005 -0.107899 0.448247
v -0.316127 -0.107024 0.448646
v -0.315917 -0.107724 0.448768
v -0.315839 -0.106494 0.448894
v -0.316335 -0.106635 0.448615
v -0.315280 -0.107193 0.449252
v -0.315597 -0.106746 0.448998
v -0.315612 -0.106190 0.449125
v -0.317046 -0.106321 0.448444
v -0.317834 -0.106434 0.448157
v -0.318363 -0.106116 0.448117
v -0.317011 -0.106625 0.448369
v -0.320670 -0.111283 0.452699
v -0.318883 -0.109896 0.450956
v -0.318923 -0.109727 0.449129
v -0.317503 -0.108938 0.448397
v -0.317117 -0.109451 0.449765
v -0.316211 -0.107646 0.450894
v -0.316195 -0.108638 0.450392
v -0.315409 -0.107920 0.449660
v -0.316126 -0.108662 0.449053
f 1 2 3
f 1 3 4
f 4 5 6
f 4 6 7
f 6 5 8
f 6 8 9
f 9 10 11
f 9 11 6
f 9 12 13
f 9 13 10
f 13 12 14
f 13 14 15
f 16 10 13
f 16 13 17
f 17 18 19
f 17 19 16
f 18 17 20
f 18 20 21
f 19 18 22
f 19 22 23
f 24 25 16
f 24 16 19
f 26 27 28
f 26 28 29
f 30 31 32
f 30 32 33
f 34 33 32
f 34 32 35
f 29 28 30
f 29 30 33
f 34 36 29
f 34 29 33
f 37 38 39
f 37 39 40
f 41 40 39
f 41 39 42
f 43 44 45
f 43 45 46
f 46 45 47
f 46 47 48
f 46 48 49
f 46 49 50
f 51 50 42
f 51 42 39
f 38 35 51
f 38 51 39
f 35 32 43
f 35 43 51
f 51 43 46
f 51 46 50
f 49 52 42
f 49 42 50
f 41 42 52
f 41 52 53
f 54 41 53
f 54 53 55
f 55 53 56
f 55 56 57
f 54 55 58
f 54 58 59
f 58 55 57
f 58 57 60
f 61 62 63
f 61 63 64
f 65 63 62
f 65 62 66
f 67 68 64
f 67 64 63
f 69 67 63
f 69 63 65
f 69 65 70
f 69 70 71
f 72 69 71
f 72 71 73
f 72 74 67
f 72 67 69
f 75 68 67
f 75 67 74
f 76 77 78
f 76 78 79
f 77 80 81
f 77 81 78
f 78 81 82
f 78 82 83
f 84 79 78
f 84 78 83
f 85 76 79
f 85 79 86
f 76 85 87
f 76 87 88
f 89 90 91
f 89 91 87
f 87 91 92
f 87 92 88
f 93 89 87
f 93 87 85
f 86 94 95
f 86 95 96
f 96 95 60
f 96 60 57
f 93 96 57
f 93 57 56
f 52 97 56
f 52 56 53
f 49 98 97
f 49 97 52
f 98 90 89
f 98 89 97
f 97 89 93
f 97 93 56
f 93 85 86
f 93 86 96
f 94 86 79
f 94 79 84
f 99 68 75
f 99 75 100
f 101 102 103
f 101 103 104
f 105 104 103
f 105 103 106
f 107 108 104
f 107 104 105
f 108 109 101
f 108 101 104
f 108 107 110
f 108 110 111
f 61 64 111
f 61 111 110
f 99 111 64
f 99 64 68
f 111 99 109
f 111 109 108
f 112 113 83
f 112 83 82
f 112 102 101
f 112 101 113
f 113 114 84
f 113 84 83
f 109 114 113
f 109 113 101
f 114 109 99
f 114 99 100
f 114 100 94
f 114 94 84
f 94 100 75
f 94 75 95
f 75 74 60
f 75 60 95
f 58 60 74
f 58 74 72
f 58 72 73
f 58 73 59
f 59 73 115
f 59 115 116
f 116 117 54
f 116 54 59
f 54 117 40
f 54 40 41
f 117 118 37
f 117 37 40
f 119 37 118
f 119 118 120
f 121 122 123
f 121 123 124
f 125 126 127
f 125 127 128
f 129 130 131
f 129 131 128
f 129 128 127
f 129 127 132
f 129 132 124
f 129 124 123
f 130 129 123
f 130 123 133
f 134 135 130
f 134 130 133
f 24 19 23
f 24 23 136
f 137 23 22
f 137 22 138
f 139 140 138
f 139 138 22
f 22 18 21
f 22 21 139
f 20 15 102
f 20 102 112
f 102 15 14
f 102 14 103
f 20 17 13
f 20 13 15
f 20 112 82
f 20 82 21
f 10 16 25
f 10 25 11
f 141 11 25
f 141 25 142
f 143 144 7
f 143 7 141
f 145 143 141
f 145 141 142
f 143 146 147
f 143 147 144
f 146 143 145
f 146 145 148
f 141 7 6
f 141 6 11
f 7 144 1
f 7 1 4
f 14 12 149
f 14 149 150
f 151 152 150
f 151 150 149
f 151 153 154
f 151 154 152
f 155 156 154
f 155 154 153
f 155 157 158
f 155 158 159
f 160 161 158
f 160 158 157
f 162 160 157
f 162 157 163
f 153 163 157
f 153 157 155
f 164 159 165
f 164 165 166
f 167 165 159
f 167 159 158
f 156 155 159
f 156 159 164
f 168 154 156
f 168 156 169
f 170 171 168
f 170 168 172
f 168 169 173
f 168 173 172
f 168 171 152
f 168 152 154
f 151 174 163
f 151 163 153
f 174 151 149
f 174 149 8
f 5 175 174
f 5 174 8
f 9 8 149
f 9 149 12
f 163 174 175
f 163 175 162
f 14 150 106
f 14 106 103
f 150 152 171
f 150 171 106
f 3 175 5
f 3 5 4
f 176 177 178
f 176 178 179
f 177 180 181
f 177 181 178
f 178 181 126
f 178 126 125
f 182 183 126
f 182 126 181
f 182 181 180
f 182 180 184
f 177 185 186
f 177 186 180
f 185 148 187
f 185 187 186
f 188 146 148
f 188 148 185
f 185 177 176
f 185 176 188
f 189 190 191
f 189 191 192
f 193 194 195
f 193 195 196
f 197 198 195
f 197 195 194
f 197 199 24
f 197 24 136
f 194 200 199
f 194 199 197
f 145 142 199
f 145 199 200
f 187 148 145
f 187 145 200
f 187 200 194
f 187 194 193
f 24 199 142
f 24 142 25
f 198 197 136
f 198 136 201
f 198 201 202
f 198 202 203
f 204 203 202
f 204 202 161
f 158 161 202
f 158 202 167
f 202 201 137
f 202 137 167
f 201 136 23
f 201 23 137
f 204 205 191
f 204 191 190
f 205 160 162
f 205 162 206
f 160 205 204
f 160 204 161
f 206 162 175
f 206 175 3
f 207 208 30
f 207 30 28
f 208 207 209
f 208 209 210
f 43 32 31
f 43 31 44
f 211 45 44
f 211 44 212
f 213 98 49
f 213 49 48
f 214 90 98
f 214 98 213
f 214 215 91
f 214 91 90
f 92 91 215
f 92 215 216
f 217 92 216
f 217 216 173
f 92 217 218
f 92 218 88
f 76 88 218
f 76 218 77
f 80 77 218
f 80 218 219
f 217 220 219
f 217 219 218
f 164 166 219
f 164 219 220
f 156 164 220
f 156 220 169
f 169 220 217
f 169 217 173
f 80 219 166
f 80 166 140
f 221 172 173
f 221 173 216
f 221 222 170
f 221 170 172
f 170 222 107
f 170 107 105
f 107 222 223
f 107 223 110
f 222 221 224
f 222 224 223
f 224 221 216
f 224 216 215
f 225 223 224
f 225 224 226
f 227 62 61
f 227 61 225
f 226 228 227
f 226 227 225
f 66 62 227
f 66 227 229
f 47 229 227
f 47 227 228
f 225 61 110
f 225 110 223
f 214 226 224
f 214 224 215
f 213 228 226
f 213 226 214
f 47 228 213
f 47 213 48
f 211 229 47
f 211 47 45
f 171 170 105
f 171 105 106
f 167 137 138
f 167 138 165
f 140 166 165
f 140 165 138
f 139 81 80
f 139 80 140
f 82 81 139
f 82 139 21
f 209 230 231
f 209 231 210
f 210 231 232
f 210 232 233
f 234 208 210
f 234 210 233
f 234 212 44
f 234 44 31
f 208 234 31
f 208 31 30
f 234 233 235
f 234 235 212
f 236 70 65
f 236 65 66
f 229 211 236
f 229 236 66
f 236 211 212
f 236 212 235
f 70 236 235
f 70 235 237
f 115 73 71
f 115 71 238
f 238 71 70
f 238 70 237
f 115 238 239
f 115 239 240
f 239 238 237
f 239 237 232
f 237 235 233
f 237 233 232
f 231 241 239
f 231 239 232
f 231 230 242
f 231 242 241
f 243 244 245
f 243 245 246
f 247 246 245
f 247 245 120
f 247 120 118
f 247 118 248
f 118 117 116
f 118 116 248
f 115 240 248
f 115 248 116
f 249 240 239
f 249 239 241
f 249 241 242
f 249 242 250
f 249 247 248
f 249 248 240
f 246 247 249
f 246 249 250
f 243 246 250
f 243 250 251
f 250 242 252
f 250 252 251
f 253 252 242
f 253 242 230
f 254 253 230
f 254 230 209
f 255 253 254
f 255 254 256
f 257 258 259
f 257 259 260
f 259 258 255
f 259 255 261
f 262 263 27
f 262 27 26
f 256 254 264
f 256 264 265
f 264 254 209
f 264 209 207
f 27 264 207
f 27 207 28
f 265 264 27
f 265 27 263
f 261 265 263
f 261 263 266
f 266 263 262
f 266 262 267
f 259 268 269
f 259 269 260
f 243 260 269
f 243 269 244
f 244 269 270
f 244 270 271
f 270 272 273
f 270 273 271
f 267 262 26
f 267 26 274
f 274 26 29
f 274 29 36
f 36 275 273
f 36 273 274
f 38 276 34
f 38 34 35
f 119 276 38
f 119 38 37
f 276 275 36
f 276 36 34
f 244 271 277
f 244 277 245
f 120 245 277
f 120 277 119
f 277 275 276
f 277 276 119
f 273 275 277
f 273 277 271
f 273 272 267
f 273 267 274
f 267 272 268
f 267 268 266
f 268 272 270
f 268 270 269
f 268 259 261
f 268 261 266
f 261 255 256
f 261 256 265
f 255 258 252
f 255 252 253
f 257 251 252
f 257 252 258
f 251 257 260
f 251 260 243
f 278 279 280
f 278 280 134
f 281 282 283
f 281 283 284
f 191 205 206
f 191 206 285
f 285 206 3
f 285 3 2
f 281 192 191
f 281 191 285
f 282 281 285
f 282 285 2
f 286 192 281
f 286 281 284
f 287 288 286
f 287 286 284
f 289 287 284
f 289 284 283
f 290 291 292
f 290 292 293
f 294 280 295
f 294 295 296
f 295 293 297
f 295 297 296
f 293 292 298
f 293 298 297
f 299 176 179
f 299 179 300
f 301 297 298
f 301 298 300
f 130 135 302
f 130 302 131
f 294 296 302
f 294 302 135
f 302 296 297
f 302 297 301
f 178 125 303
f 178 303 179
f 131 303 125
f 131 125 128
f 301 303 131
f 301 131 302
f 301 300 179
f 301 179 303
f 304 289 283
f 304 283 305
f 306 147 146
f 306 146 188
f 306 188 176
f 306 176 299
f 305 283 282
f 305 282 307
f 282 2 1
f 282 1 307
f 307 1 144
f 307 144 147
f 307 147 306
f 307 306 305
f 304 305 306
f 304 306 299
f 304 299 300
f 304 300 298
f 298 292 289
f 298 289 304
f 289 292 291
f 289 291 287
f 291 308 288
f 291 288 287
f 308 309 310
f 308 310 311
f 311 310 312
f 311 312 313
f 121 314 315
f 121 315 122
f 182 316 317
f 182 317 183
f 318 314 121
f 318 121 124
f 124 132 127
f 124 127 318
f 318 127 126
f 318 126 183
f 314 318 183
f 314 183 317
f 315 314 317
f 315 317 312
f 134 133 319
f 134 319 278
f 133 123 122
f 133 122 319
f 278 320 321
f 278 321 279
f 320 322 310
f 320 310 309
f 321 320 309
f 321 309 290
f 320 278 319
f 320 319 322
f 315 322 319
f 315 319 122
f 315 312 310
f 315 310 322
f 312 317 316
f 312 316 313
f 323 195 198
f 323 198 203
f 203 204 190
f 203 190 323
f 196 195 323
f 196 323 324
f 189 324 323
f 189 323 190
f 189 192 286
f 189 286 325
f 325 286 288
f 325 288 326
f 325 327 324
f 325 324 189
f 328 184 180
f 328 180 186
f 328 186 187
f 328 187 193
f 329 328 193
f 329 193 196
f 316 182 184
f 316 184 330
f 327 331 330
f 327 330 329
f 330 184 328
f 330 328 329
f 327 329 196
f 327 196 324
f 331 327 325
f 331 325 326
f 331 313 316
f 331 316 330
f 311 313 331
f 311 331 326
f 308 311 326
f 308 326 288
f 308 291 290
f 308 290 309
f 321 290 293
f 321 293 295
f 321 295 280
f 321 280 279
f 280 294 135
f 280 135 134
