# Rib_5L rest
v 0.113682 -0.050467 0.065955
v 0.112786 -0.048141 0.066424
v 0.119819 -0.043005 0.054661
v 0.120378 -0.045373 0.053668
v 0.124382 -0.038466 0.037959
v 0.126597 -0.040471 0.037003
v 0.122187 -0.047610 0.053145
v 0.125555 -0.030155 0.020555
v 0.127682 -0.031898 0.018425
v 0.125203 -0.018759 -0.008881
v 0.122504 -0.013012 -0.020242
v 0.124203 -0.013508 -0.022375
v 0.127494 -0.019384 -0.011108
v 0.127584 -0.024698 0.003135
v 0.125480 -0.023071 0.005823
v 0.123699 -0.017443 -0.005906
v 0.121520 -0.011795 -0.017512
v 0.124005 -0.015986 -0.003809
v 0.121585 -0.010381 -0.015196
v 0.131368 -0.025378 0.001302
v 0.129544 -0.025456 0.001550
v 0.129303 -0.018924 -0.011591
v 0.116817 -0.005916 -0.028017
v 0.117683 -0.007091 -0.030562
v 0.119246 -0.007413 -0.032625
v 0.099288 0.008591 -0.041497
v 0.099333 0.007035 -0.043355
v 0.109399 0.000516 -0.036665
v 0.109288 0.002011 -0.034617
v 0.087739 0.014917 -0.046136
v 0.087722 0.013831 -0.047806
v 0.088282 0.016074 -0.045512
v 0.100179 0.009784 -0.041148
v 0.110057 0.003074 -0.033923
v 0.116959 -0.004339 -0.025906
v 0.117686 -0.003266 -0.024940
v 0.061847 -0.054483 0.092195
v 0.061519 -0.054694 0.090889
v 0.061431 -0.056114 0.090570
v 0.062461 -0.056386 0.093372
v 0.064387 -0.054178 0.092876
v 0.063216 -0.053904 0.091375
v 0.062934 -0.054549 0.093367
v 0.068740 -0.054150 0.091983
v 0.067742 -0.053913 0.090543
v 0.075463 -0.055550 0.092473
v 0.074041 -0.054110 0.091165
v 0.070307 -0.055709 0.093271
v 0.076940 -0.057985 0.092866
v 0.084053 -0.057791 0.091315
v 0.081781 -0.055093 0.091186
v 0.077389 -0.060080 0.092309
v 0.084703 -0.059816 0.090650
v 0.076811 -0.061397 0.091504
v 0.084076 -0.061074 0.089974
v 0.095204 -0.059410 0.086786
v 0.094785 -0.057407 0.087348
v 0.094835 -0.060455 0.086104
v 0.108436 -0.058666 0.078238
v 0.108630 -0.057726 0.078901
v 0.082556 -0.061584 0.089000
v 0.093857 -0.060760 0.085189
v 0.075679 -0.061773 0.090190
v 0.107279 -0.058527 0.077350
v 0.092610 -0.059988 0.084339
v 0.106179 -0.057845 0.076766
v 0.081244 -0.060856 0.087860
v 0.108019 -0.055622 0.079595
v 0.092947 -0.054295 0.087062
v 0.106206 -0.052457 0.079758
v 0.119203 -0.053604 0.068045
v 0.118688 -0.051632 0.068893
v 0.118802 -0.054369 0.067331
v 0.125951 -0.048143 0.055507
v 0.125444 -0.046053 0.056504
v 0.125957 -0.049235 0.054742
v 0.071862 -0.060348 0.093180
v 0.071313 -0.061619 0.092346
v 0.067185 -0.060736 0.094468
v 0.071537 -0.058192 0.093637
v 0.067124 -0.058699 0.094706
v 0.065414 -0.058881 0.094989
v 0.065296 -0.060773 0.094680
v 0.066090 -0.055830 0.094305
v 0.064146 -0.056103 0.094604
v 0.063470 -0.058948 0.093751
v 0.063609 -0.060714 0.093748
v 0.066552 -0.061750 0.093714
v 0.065494 -0.061937 0.092297
v 0.070179 -0.061893 0.091072
v 0.064867 -0.061471 0.090824
v 0.069418 -0.061287 0.089755
v 0.063705 -0.061642 0.093084
v 0.063190 -0.061385 0.091803
v 0.064802 -0.061587 0.094039
v 0.080020 -0.053664 0.089754
v 0.079210 -0.053573 0.088513
v 0.073188 -0.053912 0.089777
v 0.072938 -0.054608 0.088488
v 0.078892 -0.054136 0.087550
v 0.079293 -0.055774 0.086763
v 0.073360 -0.056057 0.087428
v 0.089727 -0.053029 0.083742
v 0.090098 -0.054796 0.083320
v 0.102444 -0.050765 0.076605
v 0.102657 -0.052338 0.076250
v 0.112795 -0.046685 0.066889
v 0.102819 -0.050092 0.077320
v 0.113268 -0.046068 0.067501
v 0.090070 -0.052478 0.084442
v 0.090857 -0.057159 0.083371
v 0.080217 -0.057901 0.086458
v 0.103684 -0.054681 0.076209
v 0.068190 -0.056215 0.088104
v 0.074011 -0.058018 0.087170
v 0.068655 -0.058206 0.087954
v 0.063555 -0.058432 0.089033
v 0.063205 -0.056073 0.089150
v 0.068987 -0.060054 0.088626
v 0.064137 -0.060341 0.089766
v 0.074465 -0.059807 0.087833
v 0.063015 -0.054511 0.090108
v 0.067629 -0.054675 0.089165
v 0.062174 -0.058537 0.090728
v 0.091133 -0.052678 0.085567
v 0.104040 -0.050425 0.078478
v 0.114640 -0.046452 0.068378
v 0.117014 -0.048656 0.069194
v 0.121907 -0.041333 0.056736
v 0.120420 -0.041063 0.055951
v 0.124239 -0.043381 0.057169
v 0.010282 0.025632 -0.028234
v 0.009089 0.026692 -0.028672
v 0.008298 0.027559 -0.030034
v 0.009751 0.026409 -0.029910
v 0.010333 0.025770 -0.026693
v 0.008934 0.027240 -0.027973
v 0.009389 0.028688 -0.027344
v 0.010758 0.027673 -0.026532
v 0.008570 0.030710 -0.029414
v 0.009836 0.030227 -0.027044
v 0.009983 0.032410 -0.028685
v 0.006991 0.030558 -0.031268
v 0.007505 0.029079 -0.030006
v 0.007823 0.032166 -0.030765
v 0.007061 0.031575 -0.031985
v 0.007164 0.029978 -0.032043
v 0.007591 0.028857 -0.031333
v 0.007433 0.033230 -0.031622
v 0.007598 0.031836 -0.033046
v 0.007580 0.034399 -0.033273
v 0.011796 0.031909 -0.035353
v 0.011662 0.030089 -0.034867
v 0.007864 0.029626 -0.032743
v 0.018065 0.034050 -0.040652
v 0.017768 0.032310 -0.040048
v 0.017717 0.030681 -0.038823
v 0.011864 0.028307 -0.033515
v 0.008863 0.027745 -0.031457
v 0.012371 0.033585 -0.035199
v 0.018753 0.035435 -0.040442
v 0.025864 0.036179 -0.046322
v 0.025713 0.034018 -0.045631
v 0.026684 0.037484 -0.045858
v 0.009317 0.035500 -0.032244
v 0.013363 0.034596 -0.034314
v 0.008494 0.034358 -0.031107
v 0.009370 0.034064 -0.030321
v 0.012261 0.032982 -0.029139
v 0.011369 0.035207 -0.031066
v 0.014504 0.032694 -0.031646
v 0.014402 0.034106 -0.032873
v 0.011650 0.030282 -0.027367
v 0.014309 0.031195 -0.030552
v 0.013592 0.029712 -0.030054
v 0.013190 0.028133 -0.029961
v 0.013053 0.026717 -0.030298
v 0.012346 0.026882 -0.031658
v 0.018120 0.029083 -0.036933
v 0.018921 0.029058 -0.035689
v 0.026738 0.031054 -0.042865
v 0.027575 0.030608 -0.041588
v 0.019477 0.030341 -0.035764
v 0.028296 0.031193 -0.041029
v 0.036430 0.030699 -0.046257
v 0.035788 0.031506 -0.047580
v 0.026119 0.032209 -0.044304
v 0.035368 0.032506 -0.048473
v 0.020321 0.031737 -0.035881
v 0.029091 0.032340 -0.040725
v 0.038110 0.031506 -0.044320
v 0.038703 0.032532 -0.043955
v 0.029613 0.033375 -0.040813
v 0.037286 0.030596 -0.045022
v 0.047034 0.029093 -0.047749
v 0.047953 0.029682 -0.046763
v 0.046506 0.029460 -0.049425
v 0.048588 0.030584 -0.046395
v 0.048893 0.031556 -0.046229
v 0.038842 0.033601 -0.044139
v 0.062255 0.028079 -0.048003
v 0.061939 0.026984 -0.047984
v 0.061537 0.025979 -0.048548
v 0.029735 0.034258 -0.041344
v 0.020839 0.033797 -0.037175
v 0.029408 0.035626 -0.042423
v 0.020779 0.034762 -0.037985
v 0.038391 0.035125 -0.045024
v 0.020764 0.032889 -0.036415
v 0.126007 -0.013024 -0.023190
v 0.126978 -0.012007 -0.022463
v 0.130235 -0.018007 -0.010777
v 0.131027 -0.016898 -0.009263
v 0.132859 -0.023323 0.003785
v 0.132424 -0.024535 0.002242
v 0.133026 -0.031277 0.019737
v 0.132759 -0.032557 0.018337
v 0.123503 -0.008789 -0.013577
v 0.118682 -0.002388 -0.024692
v 0.122419 -0.009410 -0.013947
v 0.062587 0.029504 -0.048591
v 0.048797 0.033055 -0.046663
v 0.077138 0.024652 -0.048813
v 0.078064 0.025788 -0.050824
v 0.062865 0.031164 -0.050100
v 0.090349 0.018872 -0.046666
v 0.091740 0.019531 -0.048740
v 0.102403 0.012210 -0.041731
v 0.104311 0.012560 -0.043900
v 0.089059 0.017352 -0.045588
v 0.101120 0.010815 -0.041241
v 0.076265 0.023212 -0.047752
v 0.075824 0.022040 -0.047979
v 0.113180 0.005352 -0.034888
v 0.114909 0.005428 -0.036799
v 0.111378 0.004201 -0.034052
v 0.120552 -0.001508 -0.025479
v 0.122497 -0.001697 -0.027594
v 0.127784 -0.010778 -0.020983
v 0.127794 -0.008394 -0.016529
v 0.128431 -0.009446 -0.019048
v 0.123022 -0.002835 -0.029667
v 0.130637 -0.014612 -0.004299
v 0.131532 -0.015648 -0.006981
v 0.122555 -0.004360 -0.031350
v 0.121688 -0.005709 -0.032692
v 0.114056 0.000743 -0.041619
v 0.114594 0.002289 -0.040245
v 0.115051 0.004072 -0.038609
v 0.104559 0.011069 -0.045808
v 0.091993 0.018617 -0.050726
v 0.078201 0.025456 -0.053077
v 0.062480 0.031526 -0.052352
v 0.037438 0.036620 -0.046470
v 0.028339 0.037310 -0.044009
v 0.127040 -0.034841 0.042217
v 0.125096 -0.034737 0.041532
v 0.129658 -0.036568 0.042047
v 0.130810 -0.038829 0.040774
v 0.130863 -0.041942 0.038412
v 0.129765 -0.042198 0.037371
v 0.131473 -0.033156 0.017270
v 0.130978 -0.040737 0.039505
v 0.132852 -0.029515 0.021583
v 0.124934 -0.049308 0.053938
v 0.128203 -0.041660 0.036785
v 0.123778 -0.048872 0.053330
v 0.116801 -0.053767 0.066163
v 0.117590 -0.054169 0.066615
v 0.105146 -0.056736 0.076349
v 0.115416 -0.052605 0.065811
v 0.091929 -0.058928 0.083779
v 0.080894 -0.059722 0.087051
v 0.074831 -0.061059 0.088858
v 0.124431 -0.035134 0.040759
v 0.120006 -0.041648 0.055340
v 0.125328 -0.014971 -0.002622
v 0.126656 -0.014447 -0.002122
v 0.129320 -0.026755 0.024563
v 0.127509 -0.026865 0.024247
v 0.125332 -0.028163 0.022435
v 0.126604 -0.027113 0.023582
v 0.126845 -0.020412 0.009168
v 0.125413 -0.021469 0.008038
v 0.128008 -0.020005 0.009694
v 0.129524 -0.019841 0.009618
v 0.125288 -0.008087 -0.014105
v 0.128474 -0.014181 -0.002480
v 0.131754 -0.020450 0.008193
v 0.132796 -0.021860 0.005896
v 0.131751 -0.027830 0.023636
v 0.123790 -0.036252 0.039610
v 0.129329 -0.032786 0.017300
v 0.062683 -0.060387 0.091338
v 0.035214 0.033903 -0.048972
v 0.046144 0.031557 -0.051545
v 0.046302 0.032746 -0.051506
v 0.046253 0.030323 -0.050809
v 0.060602 0.026438 -0.053032
v 0.060707 0.025665 -0.051773
v 0.075398 0.020894 -0.053330
v 0.075032 0.020212 -0.051912
v 0.088134 0.013370 -0.049678
v 0.088866 0.013706 -0.051176
v 0.101210 0.006084 -0.047209
v 0.100108 0.006047 -0.045585
v 0.110430 -0.000858 -0.039410
v 0.111752 -0.001029 -0.041253
v 0.020150 0.036027 -0.039079
v 0.035483 0.035547 -0.048884
v 0.046600 0.033798 -0.051103
v 0.048368 0.034925 -0.048025
v 0.047181 0.034934 -0.050262
v 0.036207 0.036565 -0.048085
v 0.061532 0.030011 -0.053099
v 0.060966 0.028733 -0.053259
v 0.060698 0.027571 -0.053392
v 0.076432 0.023065 -0.053775
v 0.075909 0.022016 -0.053799
v 0.075370 0.021027 -0.048641
v 0.074985 0.020216 -0.050020
v 0.061033 0.025441 -0.049953
v 0.120788 -0.006837 -0.033398
v 0.113131 -0.000357 -0.042045
v 0.103302 0.007961 -0.047913
v 0.102342 0.006835 -0.047967
v 0.104007 0.009364 -0.047087
v 0.091494 0.017027 -0.052049
v 0.090586 0.015733 -0.052244
v 0.089709 0.014598 -0.051952
v 0.077271 0.024065 -0.053670
f 1 2 3
f 1 3 4
f 4 5 6
f 4 6 7
f 8 9 6
f 8 6 5
f 10 11 12
f 10 12 13
f 10 14 15
f 10 15 16
f 17 16 18
f 17 18 19
f 10 16 17
f 10 17 11
f 20 21 13
f 20 13 22
f 11 17 23
f 11 23 24
f 11 24 25
f 11 25 12
f 26 27 28
f 26 28 29
f 27 26 30
f 27 30 31
f 32 30 26
f 32 26 33
f 29 34 33
f 29 33 26
f 29 28 23
f 29 23 35
f 34 29 35
f 34 35 36
f 37 38 39
f 37 39 40
f 41 42 37
f 41 37 43
f 41 44 45
f 41 45 42
f 46 47 44
f 46 44 48
f 46 49 50
f 46 50 51
f 49 52 53
f 49 53 50
f 53 52 54
f 53 54 55
f 53 56 57
f 53 57 50
f 56 58 59
f 56 59 60
f 55 61 62
f 55 62 58
f 56 53 55
f 56 55 58
f 54 63 61
f 54 61 55
f 58 62 64
f 58 64 59
f 62 65 66
f 62 66 64
f 62 61 67
f 62 67 65
f 57 56 60
f 57 60 68
f 57 69 51
f 57 51 50
f 68 70 69
f 68 69 57
f 68 60 71
f 68 71 72
f 59 73 71
f 59 71 60
f 74 75 72
f 74 72 71
f 71 73 76
f 71 76 74
f 77 78 54
f 77 54 52
f 79 77 80
f 79 80 81
f 79 81 82
f 79 82 83
f 84 85 82
f 84 82 81
f 41 84 48
f 41 48 44
f 84 81 80
f 84 80 48
f 85 84 41
f 85 41 43
f 86 87 83
f 86 83 82
f 40 86 82
f 40 82 85
f 79 88 78
f 79 78 77
f 88 89 90
f 88 90 78
f 89 91 92
f 89 92 90
f 93 94 91
f 93 91 89
f 89 88 95
f 89 95 93
f 63 54 78
f 63 78 90
f 95 88 79
f 95 79 83
f 49 80 77
f 49 77 52
f 46 48 80
f 46 80 49
f 47 46 51
f 47 51 96
f 97 98 47
f 97 47 96
f 99 98 97
f 99 97 100
f 100 101 102
f 100 102 99
f 100 103 104
f 100 104 101
f 105 106 104
f 105 104 103
f 105 107 2
f 105 2 106
f 108 109 107
f 108 107 105
f 103 110 108
f 103 108 105
f 104 111 112
f 104 112 101
f 104 106 113
f 104 113 111
f 100 97 110
f 100 110 103
f 114 102 115
f 114 115 116
f 114 116 117
f 114 117 118
f 117 116 119
f 117 119 120
f 121 119 116
f 121 116 115
f 118 122 123
f 118 123 114
f 38 122 118
f 38 118 39
f 124 39 118
f 124 118 117
f 114 123 99
f 114 99 102
f 101 112 115
f 101 115 102
f 45 98 99
f 45 99 123
f 42 45 123
f 42 123 122
f 38 37 42
f 38 42 122
f 44 47 98
f 44 98 45
f 97 96 125
f 97 125 110
f 96 51 69
f 96 69 125
f 69 70 126
f 69 126 125
f 108 126 127
f 108 127 109
f 126 70 128
f 126 128 127
f 127 129 130
f 127 130 109
f 128 131 129
f 128 129 127
f 126 108 110
f 126 110 125
f 85 43 37
f 85 37 40
f 132 133 134
f 132 134 135
f 133 132 136
f 133 136 137
f 138 137 136
f 138 136 139
f 140 138 141
f 140 141 142
f 143 144 140
f 143 140 145
f 143 146 147
f 143 147 148
f 149 146 143
f 149 143 145
f 150 146 149
f 150 149 151
f 150 152 153
f 150 153 154
f 153 152 155
f 153 155 156
f 157 158 153
f 157 153 156
f 159 154 153
f 159 153 158
f 155 152 160
f 155 160 161
f 156 155 162
f 156 162 163
f 162 155 161
f 162 161 164
f 160 152 150
f 160 150 151
f 151 165 166
f 151 166 160
f 149 167 165
f 149 165 151
f 147 146 150
f 147 150 154
f 159 148 147
f 159 147 154
f 135 134 148
f 135 148 159
f 144 143 148
f 144 148 134
f 145 168 167
f 145 167 149
f 140 142 168
f 140 168 145
f 142 169 170
f 142 170 168
f 170 169 171
f 170 171 172
f 169 173 174
f 169 174 171
f 141 173 169
f 141 169 142
f 167 168 170
f 167 170 165
f 144 137 138
f 144 138 140
f 133 137 144
f 133 144 134
f 138 139 173
f 138 173 141
f 173 139 175
f 173 175 174
f 139 136 176
f 139 176 175
f 177 176 136
f 177 136 132
f 135 178 177
f 135 177 132
f 178 179 180
f 178 180 177
f 180 179 181
f 180 181 182
f 180 183 176
f 180 176 177
f 180 182 184
f 180 184 183
f 185 182 181
f 185 181 186
f 187 188 186
f 187 186 181
f 179 157 187
f 179 187 181
f 179 178 158
f 179 158 157
f 135 159 158
f 135 158 178
f 189 175 176
f 189 176 183
f 189 183 184
f 189 184 190
f 191 192 193
f 191 193 190
f 184 194 191
f 184 191 190
f 185 194 184
f 185 184 182
f 194 195 196
f 194 196 191
f 185 197 195
f 185 195 194
f 196 198 192
f 196 192 191
f 198 199 200
f 198 200 192
f 201 199 198
f 201 198 202
f 198 196 203
f 198 203 202
f 204 193 192
f 204 192 200
f 205 204 206
f 205 206 207
f 204 200 208
f 204 208 206
f 204 205 209
f 204 209 193
f 209 189 190
f 209 190 193
f 174 175 189
f 174 189 209
f 12 210 22
f 12 22 13
f 22 210 211
f 22 211 212
f 212 213 214
f 212 214 215
f 216 217 215
f 216 215 214
f 218 219 36
f 218 36 220
f 199 201 221
f 199 221 222
f 221 223 224
f 221 224 225
f 224 223 226
f 224 226 227
f 227 226 228
f 227 228 229
f 230 32 33
f 230 33 231
f 221 201 232
f 221 232 223
f 202 233 232
f 202 232 201
f 226 223 232
f 226 232 230
f 232 233 32
f 232 32 230
f 230 231 228
f 230 228 226
f 228 234 235
f 228 235 229
f 236 234 228
f 236 228 231
f 34 236 231
f 34 231 33
f 219 236 34
f 219 34 36
f 234 236 219
f 234 219 237
f 234 237 238
f 234 238 235
f 211 239 213
f 211 213 212
f 240 241 242
f 240 242 238
f 243 244 241
f 243 241 240
f 244 213 239
f 244 239 241
f 242 241 239
f 242 239 245
f 211 246 245
f 211 245 239
f 247 248 245
f 247 245 246
f 249 242 245
f 249 245 248
f 242 249 235
f 242 235 238
f 249 250 229
f 249 229 235
f 227 229 250
f 227 250 251
f 227 251 252
f 227 252 224
f 224 252 253
f 224 253 225
f 199 222 208
f 199 208 200
f 254 255 206
f 254 206 208
f 205 171 174
f 205 174 209
f 171 205 207
f 171 207 172
f 129 256 257
f 129 257 130
f 258 131 75
f 258 75 259
f 131 258 256
f 131 256 129
f 75 131 128
f 75 128 72
f 260 261 262
f 260 262 217
f 263 260 217
f 263 217 216
f 264 259 263
f 264 263 216
f 75 74 263
f 75 263 259
f 76 260 263
f 76 263 74
f 76 265 261
f 76 261 260
f 266 267 7
f 266 7 6
f 66 268 269
f 66 269 64
f 66 270 271
f 66 271 268
f 271 7 267
f 271 267 268
f 269 268 267
f 269 267 265
f 265 267 266
f 265 266 261
f 265 76 73
f 265 73 269
f 64 269 73
f 64 73 59
f 68 72 128
f 68 128 70
f 272 273 112
f 272 112 111
f 111 113 270
f 111 270 272
f 272 270 66
f 272 66 65
f 273 272 65
f 273 65 67
f 63 274 67
f 63 67 61
f 63 90 92
f 63 92 274
f 121 274 92
f 121 92 119
f 273 67 274
f 273 274 121
f 112 273 121
f 112 121 115
f 130 257 275
f 130 275 276
f 277 278 218
f 277 218 220
f 18 277 220
f 18 220 19
f 279 280 257
f 279 257 256
f 281 282 283
f 281 283 284
f 275 257 280
f 275 280 282
f 280 285 283
f 280 283 282
f 285 280 279
f 285 279 286
f 287 218 278
f 287 278 288
f 287 240 238
f 287 238 237
f 219 218 287
f 219 287 237
f 287 288 243
f 287 243 240
f 243 289 290
f 243 290 244
f 216 214 290
f 216 290 264
f 244 290 214
f 244 214 213
f 286 279 291
f 286 291 289
f 256 258 291
f 256 291 279
f 258 259 264
f 258 264 291
f 289 291 264
f 289 264 290
f 289 243 288
f 289 288 286
f 285 286 288
f 285 288 278
f 285 278 277
f 285 277 283
f 18 284 283
f 18 283 277
f 3 2 107
f 3 107 276
f 4 3 292
f 4 292 5
f 113 1 271
f 113 271 270
f 1 113 106
f 1 106 2
f 271 1 4
f 271 4 7
f 22 212 215
f 22 215 20
f 217 262 20
f 217 20 215
f 266 293 262
f 266 262 261
f 40 39 124
f 40 124 86
f 124 294 87
f 124 87 86
f 294 94 93
f 294 93 87
f 294 120 91
f 294 91 94
f 294 124 117
f 294 117 120
f 119 92 91
f 119 91 120
f 95 83 87
f 95 87 93
f 156 163 187
f 156 187 157
f 188 187 163
f 188 163 295
f 296 188 295
f 296 295 297
f 186 188 296
f 186 296 298
f 298 197 185
f 298 185 186
f 299 300 197
f 299 197 298
f 299 301 302
f 299 302 300
f 303 302 301
f 303 301 304
f 305 306 303
f 305 303 304
f 307 306 305
f 307 305 308
f 307 28 27
f 307 27 306
f 28 307 24
f 28 24 23
f 24 307 308
f 24 308 25
f 107 109 130
f 107 130 276
f 276 275 292
f 276 292 3
f 292 275 282
f 292 282 281
f 281 8 5
f 281 5 292
f 281 284 15
f 281 15 8
f 15 284 18
f 15 18 16
f 9 8 15
f 9 15 14
f 14 21 293
f 14 293 9
f 21 14 10
f 21 10 13
f 293 21 20
f 293 20 262
f 266 6 9
f 266 9 293
f 165 170 172
f 165 172 166
f 207 206 255
f 207 255 309
f 161 309 255
f 161 255 164
f 166 172 207
f 166 207 309
f 161 160 166
f 161 166 309
f 163 162 310
f 163 310 295
f 297 295 310
f 297 310 311
f 254 208 222
f 254 222 312
f 312 222 221
f 312 221 225
f 312 225 253
f 312 253 313
f 314 313 311
f 314 311 310
f 162 164 314
f 162 314 310
f 164 255 254
f 164 254 314
f 314 254 312
f 314 312 313
f 253 315 311
f 253 311 313
f 297 311 315
f 297 315 316
f 296 297 316
f 296 316 317
f 317 316 318
f 317 318 319
f 296 317 299
f 296 299 298
f 299 317 319
f 299 319 301
f 32 233 320
f 32 320 30
f 203 320 233
f 203 233 202
f 321 31 30
f 321 30 320
f 322 321 320
f 322 320 203
f 322 203 196
f 322 196 195
f 300 322 195
f 300 195 197
f 300 302 321
f 300 321 322
f 303 31 321
f 303 321 302
f 247 246 323
f 247 323 324
f 246 211 210
f 246 210 323
f 323 210 12
f 323 12 25
f 308 324 323
f 308 323 25
f 325 247 324
f 325 324 326
f 247 325 327
f 247 327 248
f 328 251 250
f 328 250 327
f 327 250 249
f 327 249 248
f 329 328 327
f 329 327 325
f 326 305 304
f 326 304 330
f 330 304 301
f 330 301 319
f 329 330 319
f 329 319 318
f 315 331 318
f 315 318 316
f 253 252 331
f 253 331 315
f 252 251 328
f 252 328 331
f 331 328 329
f 331 329 318
f 329 325 326
f 329 326 330
f 305 326 324
f 305 324 308
f 27 31 303
f 27 303 306
f 23 17 19
f 23 19 35
f 36 35 19
f 36 19 220
