# Rib_1L posed
v -0.538964 -0.082927 0.386640
v -0.539304 -0.081729 0.388162
v -0.536179 -0.078962 0.385512
v -0.535875 -0.079873 0.383817
v -0.533473 -0.075660 0.384129
v -0.533253 -0.076311 0.382503
v -0.538233 -0.084035 0.384856
v -0.535306 -0.080811 0.381795
v -0.532831 -0.076967 0.380632
v -0.531205 -0.072719 0.381480
v -0.529830 -0.069454 0.380675
v -0.529365 -0.069752 0.379106
v -0.530775 -0.073192 0.379658
v -0.528527 -0.070230 0.376943
v -0.530085 -0.073847 0.377472
v -0.532144 -0.077711 0.378324
v -0.534623 -0.081786 0.379607
v -0.537422 -0.085122 0.382897
v -0.538865 -0.089489 0.383510
v -0.540311 -0.088333 0.385548
v -0.536027 -0.086143 0.380640
v -0.552565 -0.094809 0.398144
v -0.552881 -0.092762 0.398977
v -0.544727 -0.090886 0.390233
v -0.543150 -0.092362 0.388323
v -0.541068 -0.087136 0.387341
v -0.545371 -0.089524 0.391636
v -0.552841 -0.090813 0.399693
v -0.562197 -0.093329 0.407856
v -0.562006 -0.090913 0.408117
v -0.552499 -0.086825 0.400953
v -0.552738 -0.088685 0.400431
v -0.561698 -0.088457 0.408397
v -0.561072 -0.086086 0.408524
v -0.569293 -0.080808 0.415927
v -0.560176 -0.083944 0.408636
v -0.570549 -0.083564 0.416083
v -0.571424 -0.086117 0.416272
v -0.571983 -0.088702 0.416431
v -0.582175 -0.084892 0.424328
v -0.581472 -0.082009 0.423721
v -0.580287 -0.079183 0.423074
v -0.578721 -0.076744 0.422596
v -0.545942 -0.086320 0.394121
v -0.545797 -0.087917 0.392978
v -0.542171 -0.084374 0.390534
v -0.541804 -0.085783 0.389079
v -0.545626 -0.084675 0.395085
v -0.542070 -0.083052 0.391710
v -0.549156 -0.095632 0.397974
v -0.550615 -0.096268 0.397572
v -0.540956 -0.093362 0.387432
v -0.539969 -0.092677 0.388119
v -0.530366 -0.082422 0.377490
v -0.531848 -0.083121 0.376371
v -0.529633 -0.078914 0.374954
v -0.528140 -0.078407 0.375881
v -0.533344 -0.082582 0.377321
v -0.531065 -0.078421 0.376158
v -0.534242 -0.086823 0.379879
v -0.535847 -0.089527 0.383482
v -0.536657 -0.090183 0.382678
v -0.533086 -0.086021 0.380893
v -0.532883 -0.085047 0.382326
v -0.530050 -0.081581 0.378994
v -0.527859 -0.077754 0.377371
v -0.526346 -0.074623 0.374942
v -0.525007 -0.071119 0.374353
v -0.524642 -0.070776 0.375673
v -0.526164 -0.074154 0.376261
v -0.524797 -0.070433 0.377165
v -0.526363 -0.073654 0.377776
v -0.522801 -0.067220 0.377131
v -0.522395 -0.067200 0.375154
v -0.521025 -0.062979 0.376147
v -0.521400 -0.063382 0.377704
v -0.523482 -0.066776 0.379619
v -0.521957 -0.063024 0.379996
v -0.524666 -0.065954 0.382500
v -0.526213 -0.069114 0.381664
v -0.525303 -0.069891 0.379271
v -0.527562 -0.072027 0.381910
v -0.526805 -0.072950 0.379760
v -0.528385 -0.076304 0.380715
v -0.528010 -0.077158 0.378876
v -0.530669 -0.079683 0.382419
v -0.530228 -0.080747 0.380660
v -0.533132 -0.084125 0.383872
v -0.536107 -0.087271 0.386444
v -0.535741 -0.088528 0.384759
v -0.541089 -0.086217 0.393283
v -0.540567 -0.088163 0.391893
v -0.536669 -0.085758 0.388115
v -0.537354 -0.084060 0.389825
v -0.533634 -0.082875 0.385538
v -0.534313 -0.081430 0.387269
v -0.531440 -0.078472 0.384394
v -0.529210 -0.075281 0.382867
v -0.528626 -0.071162 0.384293
v -0.530277 -0.074372 0.384981
v -0.534014 -0.076548 0.388096
v -0.532375 -0.077334 0.386326
v -0.531718 -0.073866 0.386651
v -0.536870 -0.078856 0.390742
v -0.535059 -0.080074 0.388854
v -0.538204 -0.082305 0.391518
v -0.541640 -0.084070 0.394724
v -0.556942 -0.082709 0.408394
v -0.556464 -0.084883 0.408066
v -0.548943 -0.085312 0.401143
v -0.549831 -0.082962 0.402064
v -0.543020 -0.082229 0.396191
v -0.540008 -0.080881 0.393256
v -0.537750 -0.079030 0.390701
v -0.540584 -0.080840 0.393282
v -0.543935 -0.081879 0.396448
v -0.550464 -0.082342 0.402257
v -0.551299 -0.083038 0.402144
v -0.559005 -0.082432 0.408634
v -0.557719 -0.081779 0.408519
v -0.544818 -0.082858 0.396007
v -0.541242 -0.081491 0.392806
v -0.552162 -0.084886 0.401607
v -0.548898 -0.087646 0.400430
v -0.548803 -0.089910 0.399770
v -0.540098 -0.089942 0.390564
v -0.548613 -0.092019 0.399166
v -0.539769 -0.091528 0.389144
v -0.539144 -0.080683 0.389317
v -0.536099 -0.078132 0.386756
v -0.533496 -0.074978 0.385551
v -0.531610 -0.071629 0.384883
v -0.531427 -0.072178 0.383211
v -0.530096 -0.068662 0.384243
v -0.530095 -0.069144 0.382527
v -0.529172 -0.066397 0.383038
v -0.528956 -0.065741 0.384806
v -0.528850 -0.066625 0.381303
v -0.528363 -0.066937 0.379849
v -0.527476 -0.063688 0.381662
v -0.527101 -0.064037 0.380452
v -0.527485 -0.067522 0.377546
v -0.526112 -0.067678 0.375217
v -0.527386 -0.070671 0.374600
v -0.526231 -0.064748 0.378584
v -0.524696 -0.064692 0.376717
v -0.526119 -0.064010 0.380428
v -0.526460 -0.063835 0.381381
v -0.524992 -0.065338 0.379279
v -0.525598 -0.064376 0.379261
v -0.525587 -0.064957 0.380641
v -0.526151 -0.064005 0.382313
v -0.527685 -0.063511 0.383001
v -0.526722 -0.063560 0.382363
v -0.527352 -0.062538 0.384880
v -0.526634 -0.062914 0.383701
v -0.528817 -0.064718 0.386672
v -0.530150 -0.068095 0.385829
v -0.526864 -0.060780 0.387066
v -0.526235 -0.061276 0.385814
v -0.525778 -0.062757 0.384287
v -0.524959 -0.064213 0.382162
v -0.525339 -0.060974 0.385928
v -0.524341 -0.062385 0.383791
v -0.525901 -0.060383 0.386700
v -0.526643 -0.059921 0.388233
v -0.528897 -0.064132 0.388050
v -0.525802 -0.060073 0.387763
v -0.527969 -0.064189 0.387535
v -0.529986 -0.067714 0.386815
v -0.531257 -0.071002 0.386038
v -0.530539 -0.070586 0.386449
v -0.533117 -0.074429 0.386338
v -0.535500 -0.077381 0.387526
v -0.532441 -0.073934 0.386844
v -0.534643 -0.076688 0.388098
v -0.529339 -0.067817 0.386427
v -0.527554 -0.068327 0.384230
v -0.526390 -0.065056 0.385354
v -0.529723 -0.070644 0.385963
v -0.538505 -0.079720 0.390142
v -0.567830 -0.079062 0.415785
v -0.566757 -0.079108 0.415843
v -0.558219 -0.096390 0.407311
v -0.559929 -0.096885 0.407209
v -0.590462 -0.076770 0.430134
v -0.590994 -0.079880 0.431078
v -0.582324 -0.087721 0.424836
v -0.590931 -0.082822 0.431926
v -0.581956 -0.090114 0.425315
v -0.590392 -0.085001 0.432547
v -0.605065 -0.065508 0.440227
v -0.598136 -0.068496 0.435086
v -0.599405 -0.071788 0.436491
v -0.605393 -0.069355 0.441664
v -0.609051 -0.060358 0.446133
v -0.606645 -0.066698 0.444989
v -0.605891 -0.065736 0.446283
v -0.607675 -0.060208 0.447517
v -0.607359 -0.070853 0.445921
v -0.605051 -0.069846 0.446392
v -0.605461 -0.073164 0.442633
v -0.599881 -0.075115 0.437737
v -0.529076 -0.074457 0.375228
v -0.527586 -0.074938 0.374060
v -0.525879 -0.071148 0.373307
v -0.522813 -0.067171 0.373841
v -0.524241 -0.067597 0.373603
v -0.521505 -0.063033 0.375366
v -0.521966 -0.063692 0.377029
v -0.522401 -0.063939 0.376603
v -0.523359 -0.064892 0.378850
v -0.522705 -0.063588 0.380052
v -0.522044 -0.063695 0.378110
v -0.524213 -0.064794 0.380483
v -0.523510 -0.063116 0.382008
v -0.522925 -0.062265 0.382553
v -0.524397 -0.061389 0.385342
v -0.523977 -0.065246 0.377840
v -0.523108 -0.064246 0.376541
v -0.524454 -0.064658 0.377661
v -0.522872 -0.064055 0.375336
v -0.610264 -0.056384 0.447856
v -0.608629 -0.056191 0.448604
v -0.614370 -0.044145 0.447241
v -0.612734 -0.049264 0.447439
v -0.610430 -0.048077 0.447809
v -0.611263 -0.043738 0.447490
v -0.614255 -0.045353 0.445241
v -0.612332 -0.050602 0.444799
v -0.614496 -0.040256 0.445523
v -0.614303 -0.040220 0.446883
v -0.611716 -0.039919 0.446858
v -0.610924 -0.039134 0.444913
v -0.607985 -0.044027 0.446602
v -0.608817 -0.040674 0.446218
v -0.607109 -0.040765 0.444660
v -0.606151 -0.044869 0.444708
v -0.606726 -0.042111 0.443031
v -0.608405 -0.041818 0.442643
v -0.606278 -0.045814 0.442660
v -0.607705 -0.045928 0.442009
v -0.611853 -0.041391 0.443675
v -0.607159 -0.048209 0.446900
v -0.605529 -0.049187 0.444679
v -0.601039 -0.071032 0.445429
v -0.598061 -0.072804 0.442246
v -0.599244 -0.070461 0.441322
v -0.602314 -0.069492 0.444869
v -0.604079 -0.065533 0.445342
v -0.604912 -0.071302 0.447550
v -0.600113 -0.067419 0.440589
v -0.604078 -0.054894 0.439869
v -0.599798 -0.061152 0.436755
v -0.601103 -0.061242 0.436788
v -0.605990 -0.055276 0.440369
v -0.603476 -0.062607 0.438318
v -0.609369 -0.056722 0.443634
v -0.611547 -0.053492 0.447719
v -0.609714 -0.051855 0.448440
v -0.611127 -0.045688 0.443172
v -0.608956 -0.050697 0.442096
v -0.606330 -0.050520 0.441177
v -0.605567 -0.060028 0.446056
v -0.606211 -0.056207 0.447550
v -0.600561 -0.062878 0.439128
v -0.606522 -0.052324 0.447362
v -0.604883 -0.054245 0.444538
v -0.605496 -0.050362 0.442301
v -0.603986 -0.055231 0.441509
v -0.592590 -0.065687 0.432889
v -0.593647 -0.065263 0.432716
v -0.596080 -0.066290 0.433712
v -0.589352 -0.073714 0.429166
v -0.587482 -0.071416 0.428211
v -0.576732 -0.075129 0.422190
v -0.575389 -0.075365 0.422179
v -0.583963 -0.070466 0.427674
v -0.584953 -0.069871 0.427518
v -0.583231 -0.077121 0.429509
v -0.574940 -0.082000 0.422976
v -0.574494 -0.079358 0.422494
v -0.582871 -0.074752 0.428645
v -0.565675 -0.082820 0.415694
v -0.566040 -0.080561 0.415834
v -0.574603 -0.077046 0.422264
v -0.556687 -0.087211 0.407844
v -0.556959 -0.089773 0.407676
v -0.566452 -0.088284 0.415910
v -0.566156 -0.085516 0.415790
v -0.583136 -0.072420 0.428013
v -0.591860 -0.067743 0.433797
v -0.591071 -0.070317 0.434779
v -0.591152 -0.072735 0.435928
v -0.586641 -0.085183 0.432459
v -0.578120 -0.090419 0.425216
v -0.576540 -0.088910 0.424839
v -0.584934 -0.083698 0.431940
v -0.571870 -0.093928 0.416616
v -0.569653 -0.095437 0.416370
v -0.580220 -0.091080 0.425470
v -0.561870 -0.095652 0.407489
v -0.572168 -0.091451 0.416571
v -0.567579 -0.094821 0.416241
v -0.575329 -0.084371 0.423574
v -0.583507 -0.079416 0.430350
v -0.566470 -0.091061 0.416097
v -0.575683 -0.086886 0.424204
v -0.584024 -0.081792 0.431238
v -0.566595 -0.093226 0.416231
v -0.556924 -0.092227 0.407519
v -0.556940 -0.094519 0.407414
v -0.548539 -0.093990 0.398551
v -0.591242 -0.075068 0.437005
v -0.591284 -0.077511 0.437995
v -0.596422 -0.075288 0.443116
v -0.597132 -0.078108 0.444182
v -0.592004 -0.079587 0.438719
v -0.599785 -0.073408 0.445705
v -0.603971 -0.073389 0.448096
v -0.601968 -0.076680 0.447063
v -0.599184 -0.075850 0.445954
v -0.599486 -0.079658 0.444856
v -0.588532 -0.085765 0.432732
v -0.593667 -0.080858 0.439197
v -0.595649 -0.081372 0.439371
v -0.598052 -0.080579 0.439301
v -0.599260 -0.078307 0.438694
v -0.605483 -0.076051 0.443625
v -0.604829 -0.078314 0.444459
v -0.604545 -0.077195 0.447218
v -0.602374 -0.079698 0.444851
v -0.606410 -0.075242 0.447376
v -0.607602 -0.073054 0.447050
f 1 2 3
f 1 3 4
f 4 3 5
f 4 5 6
f 7 1 4
f 7 4 8
f 8 4 6
f 8 6 9
f 10 11 12
f 10 12 13
f 13 12 14
f 13 14 15
f 9 6 10
f 9 10 13
f 16 9 13
f 16 13 15
f 17 8 9
f 17 9 16
f 18 7 8
f 18 8 17
f 19 20 18
f 19 18 21
f 22 23 24
f 22 24 25
f 25 24 20
f 25 20 19
f 20 26 7
f 20 7 18
f 26 20 24
f 26 24 27
f 27 24 23
f 27 23 28
f 29 30 28
f 29 28 23
f 31 32 33
f 31 33 34
f 35 36 34
f 35 34 37
f 38 33 30
f 38 30 39
f 40 41 38
f 40 38 39
f 41 42 37
f 41 37 38
f 42 43 35
f 42 35 37
f 37 34 33
f 37 33 38
f 30 33 32
f 30 32 28
f 32 31 44
f 32 44 45
f 45 44 46
f 45 46 47
f 44 48 49
f 44 49 46
f 50 51 52
f 50 52 53
f 54 55 56
f 54 56 57
f 21 18 17
f 21 17 58
f 58 17 16
f 58 16 59
f 55 58 59
f 55 59 56
f 60 21 58
f 60 58 55
f 61 53 52
f 61 52 62
f 62 52 25
f 62 25 19
f 62 19 21
f 62 21 60
f 61 62 60
f 61 60 63
f 63 60 55
f 63 55 54
f 64 63 54
f 64 54 65
f 65 54 57
f 65 57 66
f 67 68 69
f 67 69 70
f 66 57 67
f 66 67 70
f 70 69 71
f 70 71 72
f 73 71 69
f 73 69 74
f 73 74 75
f 73 75 76
f 77 73 76
f 77 76 78
f 79 80 81
f 79 81 77
f 81 80 82
f 81 82 83
f 81 71 73
f 81 73 77
f 83 72 71
f 83 71 81
f 84 85 72
f 84 72 83
f 86 87 85
f 86 85 84
f 85 66 70
f 85 70 72
f 87 65 66
f 87 66 85
f 88 64 65
f 88 65 87
f 89 90 64
f 89 64 88
f 91 92 93
f 91 93 94
f 93 89 88
f 93 88 95
f 95 88 87
f 95 87 86
f 94 93 95
f 94 95 96
f 96 95 86
f 96 86 97
f 97 86 84
f 97 84 98
f 98 84 83
f 98 83 82
f 82 99 100
f 82 100 98
f 101 102 100
f 101 100 103
f 104 105 102
f 104 102 101
f 102 97 98
f 102 98 100
f 105 96 97
f 105 97 102
f 106 94 96
f 106 96 105
f 107 91 94
f 107 94 106
f 108 109 110
f 108 110 111
f 112 107 106
f 112 106 113
f 113 106 105
f 113 105 104
f 104 114 115
f 104 115 113
f 116 112 113
f 116 113 115
f 117 111 112
f 117 112 116
f 117 118 119
f 117 119 120
f 121 116 115
f 121 115 122
f 48 121 122
f 48 122 49
f 123 31 34
f 123 34 36
f 118 123 36
f 118 36 119
f 31 123 48
f 31 48 44
f 123 118 121
f 123 121 48
f 118 117 116
f 118 116 121
f 120 108 111
f 120 111 117
f 111 110 107
f 111 107 112
f 110 124 91
f 110 91 107
f 124 125 92
f 124 92 91
f 126 92 125
f 126 125 127
f 92 126 89
f 92 89 93
f 126 128 90
f 126 90 89
f 90 61 63
f 90 63 64
f 128 53 61
f 128 61 90
f 26 47 1
f 26 1 7
f 47 46 2
f 47 2 1
f 47 26 27
f 47 27 45
f 45 27 28
f 45 28 32
f 46 49 129
f 46 129 2
f 2 129 130
f 2 130 3
f 3 130 131
f 3 131 5
f 5 131 132
f 5 132 133
f 132 134 135
f 132 135 133
f 136 135 134
f 136 134 137
f 138 11 135
f 138 135 136
f 139 138 140
f 139 140 141
f 142 14 12
f 142 12 139
f 143 144 14
f 143 14 142
f 143 142 145
f 143 145 146
f 142 139 141
f 142 141 145
f 139 12 11
f 139 11 138
f 147 141 140
f 147 140 148
f 149 150 147
f 149 147 151
f 151 147 148
f 151 148 152
f 150 145 141
f 150 141 147
f 148 140 153
f 148 153 154
f 154 153 155
f 154 155 156
f 155 153 136
f 155 136 137
f 138 136 153
f 138 153 140
f 133 135 11
f 133 11 10
f 6 5 133
f 6 133 10
f 157 137 134
f 157 134 158
f 137 157 159
f 137 159 155
f 155 159 160
f 155 160 156
f 156 160 161
f 156 161 152
f 161 162 151
f 161 151 152
f 161 163 164
f 161 164 162
f 160 165 163
f 160 163 161
f 159 166 165
f 159 165 160
f 159 157 167
f 159 167 166
f 165 166 168
f 165 168 163
f 167 169 168
f 167 168 166
f 157 158 170
f 157 170 167
f 171 172 170
f 171 170 158
f 131 173 171
f 131 171 132
f 130 174 173
f 130 173 131
f 173 175 172
f 173 172 171
f 174 176 175
f 174 175 173
f 158 134 132
f 158 132 171
f 167 170 177
f 167 177 169
f 169 177 178
f 169 178 179
f 99 178 177
f 99 177 180
f 180 177 170
f 180 170 172
f 129 181 174
f 129 174 130
f 49 122 181
f 49 181 129
f 181 114 176
f 181 176 174
f 122 115 114
f 122 114 181
f 25 52 51
f 25 51 22
f 182 119 36
f 182 36 35
f 183 120 119
f 183 119 182
f 184 185 51
f 184 51 50
f 186 41 40
f 186 40 187
f 187 40 188
f 187 188 189
f 189 188 190
f 189 190 191
f 192 193 194
f 192 194 195
f 196 192 195
f 196 195 197
f 196 197 198
f 196 198 199
f 197 200 201
f 197 201 198
f 197 195 202
f 197 202 200
f 194 203 202
f 194 202 195
f 186 187 203
f 186 203 194
f 103 175 176
f 103 176 101
f 101 176 114
f 101 114 104
f 180 172 175
f 180 175 103
f 59 16 15
f 59 15 204
f 56 59 204
f 56 204 205
f 57 56 205
f 57 205 67
f 206 68 67
f 206 67 205
f 205 204 144
f 205 144 206
f 207 68 206
f 207 206 208
f 74 69 68
f 74 68 207
f 74 207 209
f 74 209 75
f 210 75 209
f 210 209 211
f 212 213 214
f 212 214 210
f 215 216 213
f 215 213 212
f 162 164 216
f 162 216 215
f 216 217 78
f 216 78 213
f 179 79 217
f 179 217 218
f 164 218 217
f 164 217 216
f 79 77 78
f 79 78 217
f 78 76 214
f 78 214 213
f 162 215 149
f 162 149 151
f 215 212 219
f 215 219 149
f 212 210 211
f 212 211 219
f 211 220 221
f 211 221 219
f 209 222 220
f 209 220 211
f 219 221 150
f 219 150 149
f 214 76 75
f 214 75 210
f 207 208 222
f 207 222 209
f 208 143 146
f 208 146 222
f 206 144 143
f 206 143 208
f 15 14 144
f 15 144 204
f 82 80 178
f 82 178 99
f 103 100 99
f 103 99 180
f 169 179 218
f 169 218 168
f 179 178 80
f 179 80 79
f 152 148 154
f 152 154 156
f 221 146 145
f 221 145 150
f 220 222 146
f 220 146 221
f 163 168 218
f 163 218 164
f 223 196 199
f 223 199 224
f 225 226 227
f 225 227 228
f 229 230 226
f 229 226 225
f 231 229 225
f 231 225 232
f 231 232 233
f 231 233 234
f 232 225 228
f 232 228 233
f 233 228 235
f 233 235 236
f 237 236 235
f 237 235 238
f 237 239 240
f 237 240 234
f 237 238 241
f 237 241 239
f 240 239 241
f 240 241 242
f 240 243 231
f 240 231 234
f 234 233 236
f 234 236 237
f 238 235 244
f 238 244 245
f 228 227 244
f 228 244 235
f 246 247 248
f 246 248 249
f 201 249 250
f 201 250 198
f 251 246 249
f 251 249 201
f 249 248 252
f 249 252 250
f 253 254 255
f 253 255 256
f 257 192 196
f 257 196 258
f 259 223 224
f 259 224 260
f 226 259 260
f 226 260 227
f 258 196 223
f 258 223 259
f 230 258 259
f 230 259 226
f 256 255 257
f 256 257 258
f 229 261 262
f 229 262 230
f 231 243 261
f 231 261 229
f 240 242 261
f 240 261 243
f 242 263 262
f 242 262 261
f 262 256 258
f 262 258 230
f 263 253 256
f 263 256 262
f 264 265 224
f 264 224 199
f 199 198 250
f 199 250 264
f 250 252 266
f 250 266 264
f 260 224 265
f 260 265 267
f 244 267 268
f 244 268 245
f 227 260 267
f 227 267 244
f 268 267 265
f 268 265 264
f 242 241 269
f 242 269 263
f 238 245 269
f 238 269 241
f 270 269 245
f 270 245 268
f 268 264 266
f 268 266 270
f 270 253 263
f 270 263 269
f 266 254 253
f 266 253 270
f 271 272 255
f 271 255 254
f 273 193 192
f 273 192 257
f 272 273 257
f 272 257 255
f 274 42 41
f 274 41 186
f 194 193 274
f 194 274 186
f 275 43 42
f 275 42 274
f 275 274 193
f 275 193 273
f 276 277 183
f 276 183 182
f 43 276 182
f 43 182 35
f 278 277 276
f 278 276 279
f 279 276 43
f 279 43 275
f 279 275 273
f 279 273 272
f 278 279 272
f 278 272 271
f 280 281 282
f 280 282 283
f 284 109 108
f 284 108 285
f 285 108 120
f 285 120 183
f 277 286 285
f 277 285 183
f 286 282 284
f 286 284 285
f 287 288 125
f 287 125 124
f 109 287 124
f 109 124 110
f 289 288 287
f 289 287 290
f 290 287 109
f 290 109 284
f 290 284 282
f 290 282 281
f 283 282 286
f 283 286 291
f 291 286 277
f 291 277 278
f 291 278 271
f 291 271 292
f 292 271 254
f 292 254 266
f 292 293 283
f 292 283 291
f 280 283 293
f 280 293 294
f 295 296 297
f 295 297 298
f 299 300 301
f 299 301 190
f 302 29 23
f 302 23 22
f 185 302 22
f 185 22 51
f 39 30 29
f 39 29 303
f 190 188 303
f 190 303 299
f 188 40 39
f 188 39 303
f 303 29 302
f 303 302 299
f 299 302 185
f 299 185 300
f 296 301 300
f 296 300 304
f 300 185 184
f 300 184 304
f 289 290 281
f 289 281 305
f 306 305 281
f 306 281 280
f 307 289 305
f 307 305 308
f 309 308 305
f 309 305 306
f 310 307 308
f 310 308 297
f 288 311 127
f 288 127 125
f 307 311 288
f 307 288 289
f 312 184 50
f 312 50 313
f 313 50 53
f 313 53 128
f 127 313 128
f 127 128 126
f 313 127 311
f 313 311 312
f 312 311 307
f 312 307 310
f 310 304 184
f 310 184 312
f 304 310 297
f 304 297 296
f 298 297 308
f 298 308 309
f 314 294 248
f 314 248 247
f 315 314 247
f 315 247 316
f 317 318 315
f 317 315 316
f 319 316 247
f 319 247 246
f 320 319 246
f 320 246 251
f 321 322 319
f 321 319 320
f 322 317 316
f 322 316 319
f 323 317 322
f 323 322 321
f 191 190 301
f 191 301 324
f 324 301 296
f 324 296 295
f 325 326 324
f 325 324 295
f 191 324 326
f 191 326 327
f 189 191 327
f 189 327 328
f 202 203 328
f 202 328 329
f 187 189 328
f 187 328 203
f 329 328 327
f 329 327 330
f 331 332 323
f 331 323 321
f 333 331 321
f 333 321 320
f 333 330 332
f 333 332 331
f 334 333 320
f 334 320 251
f 200 334 251
f 200 251 201
f 200 202 329
f 200 329 334
f 334 329 330
f 334 330 333
f 330 327 326
f 330 326 332
f 332 326 325
f 332 325 323
f 323 325 318
f 323 318 317
f 318 325 295
f 318 295 298
f 298 309 315
f 298 315 318
f 309 306 314
f 309 314 315
f 306 280 294
f 306 294 314
f 294 293 252
f 294 252 248
f 252 293 292
f 252 292 266
