# Rib_3L rest
v 0.052522 0.071468 -0.004117
v 0.043320 0.072486 -0.002612
v 0.043061 0.072847 -0.004892
v 0.052691 0.071526 -0.006643
v 0.063790 0.069460 -0.007184
v 0.063223 0.068744 -0.005999
v 0.052904 0.072524 -0.008196
v 0.042992 0.074098 -0.006457
v 0.062128 0.069881 -0.000095
v 0.052457 0.072246 -0.001574
v 0.062626 0.069063 -0.003072
v 0.073358 0.065459 -0.001751
v 0.074219 0.065524 -0.003329
v 0.037395 0.072381 -0.000993
v 0.036695 0.072510 -0.003409
v 0.013872 0.072976 0.012095
v 0.013905 0.073866 0.014903
v 0.013559 0.075008 0.013628
v 0.013454 0.074189 0.010912
v 0.017345 0.069658 0.008254
v 0.023298 0.070785 0.004975
v 0.024053 0.071827 0.006523
v 0.017907 0.070066 0.010675
v 0.024561 0.073270 0.007435
v 0.018381 0.071402 0.012682
v 0.024879 0.074478 0.007573
v 0.019049 0.073196 0.013346
v 0.015130 0.072378 0.016428
v 0.015380 0.070377 0.014443
v 0.019242 0.075181 0.012891
v 0.014967 0.074902 0.016628
v 0.018910 0.076801 0.011277
v 0.014350 0.076721 0.015149
v 0.014066 0.072610 0.015406
v 0.014181 0.071672 0.013377
v 0.014307 0.070918 0.010814
v 0.015429 0.068912 0.011254
v 0.014926 0.069778 0.008929
v 0.013142 0.072720 0.007010
v 0.013720 0.071613 0.008015
v 0.013702 0.072346 0.009744
v 0.013020 0.073791 0.008509
v 0.012538 0.075810 0.009894
v 0.011949 0.075627 0.007352
v 0.013129 0.075865 0.012160
v 0.013653 0.077571 0.012252
v 0.012609 0.077640 0.009365
v 0.012111 0.076738 0.005944
v 0.013081 0.074303 0.004952
v 0.012437 0.074286 0.006260
v 0.013638 0.072015 0.005585
v 0.022606 0.075065 0.002083
v 0.023077 0.076387 0.002766
v 0.029402 0.077567 -0.004177
v 0.029350 0.075874 -0.004285
v 0.022316 0.073363 0.002031
v 0.029652 0.074319 -0.003285
v 0.016754 0.074352 0.004921
v 0.017022 0.075932 0.005789
v 0.017585 0.076893 0.007430
v 0.023699 0.077333 0.003907
v 0.016500 0.072355 0.004781
v 0.022464 0.071138 0.002921
v 0.016660 0.070266 0.006017
v 0.014395 0.070629 0.007052
v 0.014173 0.070934 0.009127
v 0.042347 0.016555 0.134693
v 0.043963 0.016018 0.135255
v 0.043488 0.018674 0.135335
v 0.041789 0.018626 0.134664
v 0.042344 0.016225 0.133614
v 0.043665 0.014705 0.133794
v 0.040583 0.024587 0.132769
v 0.040700 0.024008 0.131412
v 0.041078 0.021420 0.132391
v 0.041294 0.021808 0.134027
v 0.040801 0.021041 0.130635
v 0.040418 0.023592 0.129947
v 0.041664 0.018482 0.133099
v 0.041563 0.018257 0.131542
v 0.042231 0.016383 0.132468
v 0.042063 0.017754 0.129929
v 0.042947 0.015243 0.131600
v 0.041255 0.020710 0.128742
v 0.045289 0.020987 0.128172
v 0.046290 0.018233 0.129394
v 0.052676 0.018977 0.127864
v 0.051410 0.021777 0.126821
v 0.053841 0.016807 0.129111
v 0.047335 0.016086 0.130861
v 0.048272 0.015369 0.132609
v 0.054889 0.016237 0.130665
v 0.058750 0.028398 0.123431
v 0.068985 0.030639 0.119301
v 0.069731 0.028827 0.119315
v 0.059439 0.026509 0.123633
v 0.050182 0.024618 0.126049
v 0.049550 0.026757 0.125960
v 0.044272 0.023710 0.127220
v 0.040730 0.023492 0.128219
v 0.043774 0.025889 0.127268
v 0.040630 0.025470 0.128560
v 0.060650 0.023615 0.124131
v 0.061827 0.020530 0.124601
v 0.063019 0.018209 0.125649
v 0.073162 0.020681 0.120104
v 0.074212 0.020665 0.121567
v 0.064117 0.017972 0.127260
v 0.071866 0.022643 0.119170
v 0.080452 0.025777 0.111742
v 0.082090 0.023822 0.112462
v 0.083403 0.023852 0.113790
v 0.070789 0.025819 0.119211
v 0.079138 0.028830 0.111960
v 0.068961 0.031288 0.119476
v 0.077116 0.034093 0.112585
v 0.077144 0.033438 0.112284
v 0.083388 0.037739 0.103225
v 0.083355 0.037173 0.102812
v 0.083985 0.035507 0.102450
v 0.087984 0.041246 0.091961
v 0.089068 0.039624 0.091457
v 0.091607 0.036857 0.091046
v 0.085690 0.032507 0.102272
v 0.077838 0.031772 0.112140
v 0.058838 0.029235 0.123603
v 0.040817 0.026457 0.129443
v 0.041113 0.026746 0.131073
v 0.044825 0.027514 0.129885
v 0.043926 0.027147 0.128085
v 0.040330 0.025667 0.130319
v 0.040170 0.025121 0.129581
v 0.040342 0.025910 0.131360
v 0.041891 0.025200 0.133100
v 0.046311 0.025544 0.131808
v 0.053933 0.022741 0.130971
v 0.062854 0.024159 0.127309
v 0.061351 0.027841 0.126508
v 0.052363 0.026341 0.129891
v 0.059578 0.029994 0.124759
v 0.069629 0.032000 0.120475
v 0.073026 0.026068 0.122325
v 0.071495 0.029856 0.121935
v 0.082076 0.028699 0.114919
v 0.080296 0.032347 0.114818
v 0.078094 0.034716 0.113716
v 0.050607 0.028424 0.127898
v 0.048670 0.016686 0.133654
v 0.055225 0.017421 0.131366
v 0.048355 0.019048 0.133752
v 0.064309 0.019042 0.127824
v 0.063960 0.020964 0.127924
v 0.054940 0.019559 0.131617
v 0.042820 0.022008 0.134425
v 0.047514 0.022183 0.132954
v 0.049680 0.027879 0.126409
v 0.062104 0.072142 0.002454
v 0.070741 0.068979 0.006759
v 0.071388 0.070330 0.006829
v 0.062638 0.073197 0.001980
v 0.078455 0.065762 0.012718
v 0.078718 0.067205 0.013518
v 0.088583 0.060432 0.029908
v 0.084421 0.062947 0.021031
v 0.084766 0.062252 0.020174
v 0.088652 0.059702 0.029239
v 0.103895 0.045509 0.064548
v 0.104945 0.043487 0.063029
v 0.104357 0.047607 0.051179
v 0.103377 0.049472 0.052885
v 0.101526 0.051600 0.054934
v 0.101713 0.052625 0.042739
v 0.100064 0.054565 0.045043
v 0.099425 0.055352 0.032793
v 0.097805 0.057213 0.035172
v 0.100169 0.053793 0.031025
v 0.096104 0.057100 0.022152
v 0.095475 0.058473 0.023760
v 0.089811 0.061640 0.015016
v 0.090353 0.060449 0.013365
v 0.083281 0.063858 0.004992
v 0.082814 0.064975 0.006829
v 0.081754 0.066253 0.009292
v 0.088606 0.063078 0.017341
v 0.093999 0.060157 0.026043
v 0.086960 0.064060 0.019595
v 0.092043 0.061260 0.028207
v 0.080319 0.067280 0.011803
v 0.085216 0.064146 0.021201
v 0.089920 0.061446 0.029782
v 0.098903 0.053593 0.057051
v 0.097757 0.056268 0.047484
v 0.094872 0.056865 0.049106
v 0.095592 0.054286 0.058093
v 0.092867 0.059134 0.039300
v 0.095570 0.058708 0.037567
v 0.101791 0.047810 0.066259
v 0.098980 0.049996 0.068071
v 0.104436 0.042239 0.061654
v 0.104460 0.046201 0.049901
v 0.102924 0.038226 0.077784
v 0.101992 0.039899 0.078963
v 0.092839 0.043972 0.078423
v 0.095943 0.041515 0.077472
v 0.098717 0.039301 0.076576
v 0.097021 0.046307 0.063809
v 0.100086 0.044132 0.062307
v 0.099855 0.047355 0.051159
v 0.096509 0.049618 0.053408
v 0.082682 0.061767 0.003831
v 0.081183 0.061966 0.005733
v 0.090511 0.059261 0.012169
v 0.083380 0.062664 0.003736
v 0.063925 0.070570 -0.006690
v 0.074427 0.066504 -0.002869
v 0.074446 0.067394 -0.001970
v 0.063992 0.071511 -0.005905
v 0.089503 0.058492 0.012384
v 0.087687 0.058872 0.014249
v 0.078691 0.065332 0.012054
v 0.070919 0.068016 0.005663
v 0.079040 0.064801 0.010985
v 0.085292 0.061653 0.018929
v 0.071227 0.067369 0.004393
v 0.072180 0.066211 0.001403
v 0.079843 0.063212 0.008502
v 0.086202 0.060150 0.016706
v 0.091218 0.057428 0.038733
v 0.089456 0.058792 0.027802
v 0.091929 0.056270 0.037256
v 0.090811 0.057118 0.025544
v 0.093903 0.054742 0.034861
v 0.092747 0.055593 0.023062
v 0.095116 0.054979 0.021003
v 0.102968 0.049598 0.039874
v 0.102721 0.046013 0.049752
v 0.101485 0.048976 0.039792
v 0.098495 0.050339 0.041758
v 0.102653 0.050908 0.040982
v 0.100364 0.052586 0.029918
v 0.096314 0.055958 0.021039
v 0.098938 0.051836 0.030018
v 0.096363 0.052964 0.032162
v 0.093172 0.049981 0.066858
v 0.093500 0.053315 0.057115
v 0.094047 0.051740 0.055568
v 0.094285 0.048455 0.065521
v 0.093537 0.050638 0.067795
v 0.093901 0.053787 0.057744
v 0.093232 0.056152 0.049111
v 0.093352 0.054052 0.046914
v 0.092836 0.055531 0.048540
v 0.091308 0.058045 0.039285
v 0.095559 0.052286 0.044439
v 0.091396 0.045685 0.079397
v 0.087989 0.041834 0.092555
v 0.087656 0.029556 0.102123
v 0.083248 0.025886 0.114752
v 0.073949 0.023162 0.122374
v 0.074282 0.021601 0.122127
v 0.083569 0.024558 0.114355
v 0.089643 0.027693 0.102687
v 0.090917 0.027748 0.103745
v 0.102446 0.042853 0.061557
v 0.100889 0.037802 0.076154
v 0.102394 0.037386 0.076622
v 0.097730 0.033028 0.092238
v 0.097547 0.032333 0.091475
v 0.094207 0.034151 0.090592
v 0.096267 0.032479 0.090678
v 0.091183 0.028353 0.104369
v 0.084721 0.038285 0.104483
v 0.089732 0.042337 0.094000
v 0.087183 0.035615 0.105110
v 0.089292 0.032166 0.105067
v 0.095030 0.036899 0.093555
v 0.092631 0.039992 0.094222
v 0.099921 0.042189 0.080137
v 0.097189 0.044823 0.081402
v 0.090737 0.029545 0.104792
v 0.096955 0.034414 0.092901
v 0.095601 0.051029 0.068621
v 0.093865 0.046641 0.081573
v 0.091673 0.046464 0.080405
v 0.030150 0.078769 -0.002747
v 0.043404 0.079384 -0.003173
v 0.042913 0.078874 -0.005711
v 0.035315 0.079736 -0.006327
v 0.036488 0.079746 -0.003536
v 0.042613 0.077715 -0.006908
v 0.034563 0.078617 -0.008281
v 0.053214 0.076165 -0.006213
v 0.064236 0.072490 -0.004545
v 0.053086 0.075231 -0.007272
v 0.053058 0.074056 -0.008119
v 0.042837 0.075383 -0.007475
v 0.053341 0.077082 -0.001992
v 0.053000 0.075964 -0.000378
v 0.063428 0.073818 0.000442
v 0.064122 0.073555 -0.002199
v 0.053460 0.077062 -0.004541
v 0.073613 0.069777 0.002614
v 0.072558 0.070507 0.005126
v 0.042688 0.076697 -0.007559
v 0.034600 0.076603 -0.008889
v 0.035319 0.074734 -0.007511
v 0.031230 0.079062 -0.000598
v 0.024371 0.077773 0.005269
v 0.018261 0.077199 0.009277
v 0.024972 0.077231 0.006703
v 0.025075 0.075615 0.007370
v 0.032468 0.076339 0.003002
v 0.032213 0.078557 0.001910
v 0.032303 0.075369 0.003094
v 0.037995 0.075511 0.000909
v 0.032093 0.074298 0.002905
v 0.037827 0.074108 0.000574
v 0.043950 0.075084 -0.000013
v 0.043723 0.073727 -0.000687
v 0.043985 0.076340 0.000037
v 0.038010 0.076783 0.000816
v 0.052558 0.073402 -0.000177
v 0.052741 0.074604 0.000089
v 0.061909 0.070743 0.001649
v 0.043780 0.078293 -0.000828
v 0.037492 0.079031 -0.000611
v 0.031694 0.072655 0.001860
v 0.030940 0.071854 -0.000010
v 0.030177 0.072778 -0.001748
v 0.036108 0.073468 -0.005419
v 0.074357 0.068568 -0.000118
f 1 2 3
f 1 3 4
f 5 6 4
f 5 4 7
f 8 7 4
f 8 4 3
f 9 10 1
f 9 1 11
f 12 6 5
f 12 5 13
f 3 2 14
f 3 14 15
f 16 17 18
f 16 18 19
f 20 21 22
f 20 22 23
f 23 22 24
f 23 24 25
f 25 24 26
f 25 26 27
f 25 27 28
f 25 28 29
f 30 31 28
f 30 28 27
f 31 30 32
f 31 32 33
f 33 18 17
f 33 17 31
f 34 28 31
f 34 31 17
f 29 28 34
f 29 34 35
f 36 37 29
f 36 29 35
f 37 23 25
f 37 25 29
f 23 37 38
f 23 38 20
f 39 40 41
f 39 41 42
f 42 19 43
f 42 43 44
f 18 45 43
f 18 43 19
f 46 47 43
f 46 43 45
f 43 47 48
f 43 48 44
f 49 50 44
f 49 44 48
f 44 50 39
f 44 39 42
f 49 51 39
f 49 39 50
f 52 53 54
f 52 54 55
f 56 52 55
f 56 55 57
f 58 49 48
f 58 48 59
f 59 48 47
f 59 47 60
f 60 61 53
f 60 53 59
f 59 53 52
f 59 52 58
f 58 52 56
f 58 56 62
f 62 56 63
f 62 63 64
f 21 20 64
f 21 64 63
f 65 64 20
f 65 20 38
f 65 51 62
f 65 62 64
f 62 51 49
f 62 49 58
f 51 65 40
f 51 40 39
f 66 40 65
f 66 65 38
f 38 37 36
f 38 36 66
f 41 36 35
f 41 35 16
f 35 34 17
f 35 17 16
f 41 16 19
f 41 19 42
f 41 40 66
f 41 66 36
f 67 68 69
f 67 69 70
f 67 71 72
f 67 72 68
f 73 74 75
f 73 75 76
f 77 75 74
f 77 74 78
f 79 70 76
f 79 76 75
f 80 79 75
f 80 75 77
f 81 80 82
f 81 82 83
f 84 85 86
f 84 86 82
f 87 86 85
f 87 85 88
f 86 87 89
f 86 89 90
f 91 90 89
f 91 89 92
f 83 90 91
f 83 91 72
f 83 82 86
f 83 86 90
f 77 84 82
f 77 82 80
f 81 71 79
f 81 79 80
f 79 71 67
f 79 67 70
f 72 71 81
f 72 81 83
f 93 94 95
f 93 95 96
f 96 97 98
f 96 98 93
f 99 85 84
f 99 84 100
f 78 100 84
f 78 84 77
f 101 98 97
f 101 97 99
f 101 99 100
f 101 100 102
f 99 97 88
f 99 88 85
f 88 97 96
f 88 96 103
f 87 88 103
f 87 103 104
f 87 104 105
f 87 105 89
f 105 106 107
f 105 107 108
f 109 110 111
f 109 111 106
f 112 107 106
f 112 106 111
f 109 106 105
f 109 105 104
f 109 113 114
f 109 114 110
f 115 116 117
f 115 117 94
f 117 116 118
f 117 118 119
f 120 119 121
f 120 121 122
f 123 124 120
f 123 120 122
f 114 125 120
f 114 120 124
f 120 125 117
f 120 117 119
f 113 95 125
f 113 125 114
f 103 113 109
f 103 109 104
f 103 96 95
f 103 95 113
f 95 94 117
f 95 117 125
f 126 115 94
f 126 94 93
f 127 128 129
f 127 129 130
f 131 127 102
f 131 102 132
f 132 78 74
f 132 74 131
f 127 131 133
f 127 133 128
f 133 131 74
f 133 74 73
f 128 133 73
f 128 73 134
f 134 135 129
f 134 129 128
f 136 137 138
f 136 138 139
f 140 141 115
f 140 115 126
f 137 142 143
f 137 143 138
f 143 142 144
f 143 144 145
f 146 141 143
f 146 143 145
f 138 143 141
f 138 141 140
f 147 139 138
f 147 138 140
f 72 91 148
f 72 148 68
f 149 148 91
f 149 91 92
f 68 148 150
f 68 150 69
f 149 151 152
f 149 152 153
f 153 152 137
f 153 137 136
f 153 150 148
f 153 148 149
f 134 154 155
f 134 155 135
f 134 73 76
f 134 76 154
f 69 154 76
f 69 76 70
f 154 69 150
f 154 150 155
f 150 153 136
f 150 136 155
f 135 155 136
f 135 136 139
f 147 129 135
f 147 135 139
f 130 129 147
f 130 147 156
f 147 140 126
f 147 126 156
f 156 126 93
f 156 93 98
f 130 156 98
f 130 98 101
f 130 101 102
f 130 102 127
f 102 100 78
f 102 78 132
f 6 11 1
f 6 1 4
f 157 158 159
f 157 159 160
f 161 162 159
f 161 159 158
f 163 164 165
f 163 165 166
f 167 168 169
f 167 169 170
f 171 170 172
f 171 172 173
f 172 174 175
f 172 175 173
f 176 177 178
f 176 178 174
f 179 180 181
f 179 181 182
f 179 182 183
f 179 183 184
f 179 178 177
f 179 177 180
f 175 174 178
f 175 178 185
f 186 187 185
f 186 185 184
f 185 178 179
f 185 179 184
f 183 188 186
f 183 186 184
f 161 164 189
f 161 189 162
f 163 190 189
f 163 189 164
f 186 188 162
f 186 162 189
f 186 189 190
f 186 190 187
f 191 192 193
f 191 193 194
f 195 193 192
f 195 192 196
f 196 187 190
f 196 190 195
f 187 196 175
f 187 175 185
f 173 175 196
f 173 196 192
f 171 173 192
f 171 192 191
f 170 171 197
f 170 197 167
f 198 197 171
f 198 171 191
f 168 199 200
f 168 200 169
f 201 168 167
f 201 167 202
f 122 203 204
f 122 204 123
f 205 204 206
f 205 206 207
f 208 207 206
f 208 206 209
f 13 210 211
f 13 211 12
f 181 180 212
f 181 212 213
f 13 5 214
f 13 214 215
f 216 215 214
f 216 214 217
f 181 213 215
f 181 215 216
f 215 213 210
f 215 210 13
f 213 212 218
f 213 218 210
f 218 219 211
f 218 211 210
f 165 164 161
f 165 161 220
f 161 158 221
f 161 221 220
f 165 220 222
f 165 222 223
f 222 220 221
f 222 221 224
f 225 224 9
f 225 9 11
f 225 11 6
f 225 6 12
f 211 226 225
f 211 225 12
f 225 226 222
f 225 222 224
f 227 223 222
f 227 222 226
f 228 166 229
f 228 229 230
f 223 229 166
f 223 166 165
f 230 229 231
f 230 231 232
f 231 229 223
f 231 223 227
f 227 219 233
f 227 233 231
f 227 226 211
f 227 211 219
f 233 219 218
f 233 218 234
f 235 200 236
f 235 236 237
f 236 208 238
f 236 238 237
f 239 176 174
f 239 174 172
f 172 170 169
f 172 169 239
f 239 169 200
f 239 200 235
f 176 239 235
f 176 235 240
f 180 177 241
f 180 241 212
f 240 241 177
f 240 177 176
f 241 234 218
f 241 218 212
f 241 240 242
f 241 242 234
f 242 240 235
f 242 235 237
f 243 242 237
f 243 237 238
f 243 233 234
f 243 234 242
f 233 243 232
f 233 232 231
f 244 245 246
f 244 246 247
f 244 248 249
f 244 249 245
f 194 193 250
f 194 250 249
f 251 252 228
f 251 228 230
f 250 193 195
f 250 195 253
f 195 190 163
f 195 163 253
f 163 166 228
f 163 228 253
f 253 228 252
f 253 252 250
f 245 249 250
f 245 250 252
f 245 252 251
f 245 251 246
f 246 251 254
f 246 254 209
f 254 251 230
f 254 230 232
f 254 232 243
f 254 243 238
f 209 254 238
f 209 238 208
f 209 206 247
f 209 247 246
f 255 244 247
f 255 247 203
f 204 203 247
f 204 247 206
f 121 255 203
f 121 203 122
f 121 119 118
f 121 118 256
f 146 116 115
f 146 115 141
f 110 114 124
f 110 124 257
f 258 259 260
f 258 260 261
f 107 112 261
f 107 261 260
f 112 111 262
f 112 262 263
f 111 110 257
f 111 257 262
f 199 264 236
f 199 236 200
f 265 205 207
f 265 207 264
f 264 207 208
f 264 208 236
f 201 266 199
f 201 199 168
f 266 201 267
f 266 267 268
f 266 265 264
f 266 264 199
f 123 269 257
f 123 257 124
f 123 204 205
f 123 205 269
f 269 205 265
f 269 265 270
f 265 266 268
f 265 268 270
f 270 262 257
f 270 257 269
f 262 270 268
f 262 268 263
f 267 271 263
f 267 263 268
f 271 261 112
f 271 112 263
f 256 118 272
f 256 272 273
f 146 272 118
f 146 118 116
f 274 275 276
f 274 276 277
f 278 202 167
f 278 167 197
f 278 197 198
f 278 198 279
f 280 271 267
f 280 267 281
f 281 267 201
f 281 201 202
f 281 276 275
f 281 275 280
f 281 202 278
f 281 278 276
f 279 277 276
f 279 276 278
f 282 283 279
f 282 279 198
f 198 191 194
f 198 194 282
f 248 282 194
f 248 194 249
f 284 248 244
f 284 244 255
f 121 256 284
f 121 284 255
f 256 273 283
f 256 283 284
f 284 283 282
f 284 282 248
f 283 273 277
f 283 277 279
f 274 277 273
f 274 273 272
f 274 272 146
f 274 146 145
f 144 275 274
f 144 274 145
f 144 258 280
f 144 280 275
f 280 258 261
f 280 261 271
f 144 142 259
f 144 259 258
f 137 152 259
f 137 259 142
f 259 152 151
f 259 151 260
f 260 151 108
f 260 108 107
f 108 92 89
f 108 89 105
f 92 108 151
f 92 151 149
f 45 18 33
f 45 33 46
f 54 53 61
f 54 61 285
f 286 287 288
f 286 288 289
f 287 290 291
f 287 291 288
f 292 293 217
f 292 217 294
f 214 5 7
f 214 7 295
f 295 7 8
f 295 8 296
f 294 217 214
f 294 214 295
f 297 298 160
f 297 160 299
f 297 299 300
f 297 300 301
f 183 302 303
f 183 303 188
f 303 299 160
f 303 160 159
f 162 188 303
f 162 303 159
f 303 302 300
f 303 300 299
f 300 293 292
f 300 292 301
f 292 290 287
f 292 287 301
f 291 290 304
f 291 304 305
f 296 306 305
f 296 305 304
f 305 306 57
f 305 57 55
f 291 305 55
f 291 55 54
f 288 291 54
f 288 54 285
f 288 285 307
f 288 307 289
f 308 61 60
f 308 60 309
f 32 310 308
f 32 308 309
f 30 311 310
f 30 310 32
f 312 313 310
f 312 310 311
f 311 26 314
f 311 314 312
f 315 314 316
f 315 316 317
f 318 315 317
f 318 317 319
f 318 320 321
f 318 321 315
f 318 322 323
f 318 323 320
f 322 324 157
f 322 157 323
f 158 157 324
f 158 324 221
f 221 324 9
f 221 9 224
f 9 324 322
f 9 322 10
f 298 325 320
f 298 320 323
f 298 323 157
f 298 157 160
f 10 322 318
f 10 318 319
f 2 319 317
f 2 317 14
f 1 10 319
f 1 319 2
f 321 320 325
f 321 325 326
f 321 312 314
f 321 314 315
f 321 326 313
f 321 313 312
f 326 289 307
f 326 307 313
f 286 289 326
f 286 326 325
f 314 26 24
f 314 24 316
f 317 316 327
f 317 327 14
f 14 327 328
f 14 328 15
f 21 63 329
f 21 329 328
f 330 15 328
f 330 328 329
f 330 329 57
f 330 57 306
f 3 15 330
f 3 330 8
f 296 8 330
f 296 330 306
f 56 57 329
f 56 329 63
f 328 327 22
f 328 22 21
f 22 327 316
f 22 316 24
f 27 26 311
f 27 311 30
f 307 308 310
f 307 310 313
f 46 309 60
f 46 60 47
f 33 32 309
f 33 309 46
f 285 61 308
f 285 308 307
f 297 286 325
f 297 325 298
f 301 287 286
f 301 286 297
f 300 302 331
f 300 331 293
f 216 217 293
f 216 293 331
f 216 331 182
f 216 182 181
f 183 182 331
f 183 331 302
f 292 294 304
f 292 304 290
f 304 294 295
f 304 295 296
