# Scapula_L posed
v -0.610056 -0.142171 0.473043
v -0.600932 -0.147598 0.478367
v -0.597373 -0.150038 0.472243
v -0.601778 -0.147096 0.468973
v -0.614619 -0.140283 0.466425
v -0.604101 -0.145695 0.464470
v -0.613589 -0.141726 0.458797
v -0.603556 -0.145978 0.459507
v -0.611995 -0.142305 0.451598
v -0.599070 -0.148872 0.455116
v -0.596212 -0.152450 0.449725
v -0.609185 -0.143690 0.444143
v -0.606120 -0.147740 0.437522
v -0.594101 -0.158256 0.444413
v -0.588240 -0.157326 0.472594
v -0.589114 -0.154779 0.481013
v -0.579052 -0.161315 0.482346
v -0.579242 -0.164361 0.473431
v -0.560371 -0.174700 0.471757
v -0.561604 -0.170403 0.481145
v -0.550071 -0.180245 0.470033
v -0.549750 -0.175336 0.478481
v -0.538727 -0.186734 0.467785
v -0.536951 -0.180912 0.475403
v -0.527760 -0.192920 0.465370
v -0.525298 -0.187428 0.472486
v -0.516561 -0.198550 0.462548
v -0.514235 -0.193886 0.469060
v -0.506818 -0.203303 0.459131
v -0.504032 -0.199659 0.464609
v -0.496957 -0.203882 0.461354
v -0.499672 -0.206484 0.456487
v -0.490840 -0.208091 0.458292
v -0.494035 -0.208969 0.454645
v -0.491016 -0.212484 0.451313
v -0.485133 -0.213873 0.454510
v -0.490344 -0.217261 0.447710
v -0.484396 -0.221518 0.450216
v -0.492513 -0.221025 0.445361
v -0.490124 -0.225628 0.444902
v -0.498313 -0.221847 0.444116
v -0.497477 -0.226952 0.441494
v -0.506477 -0.218875 0.444245
v -0.505875 -0.222884 0.441442
v -0.514071 -0.215085 0.443854
v -0.512172 -0.219766 0.440558
v -0.523324 -0.211219 0.442531
v -0.518752 -0.217250 0.437850
v -0.534072 -0.208675 0.440090
v -0.529343 -0.213964 0.433221
v -0.542232 -0.206820 0.435909
v -0.537457 -0.211436 0.429010
v -0.548967 -0.203166 0.431831
v -0.542972 -0.207244 0.423936
v -0.555740 -0.197844 0.426225
v -0.548000 -0.200562 0.416574
v -0.562943 -0.191945 0.422068
v -0.551605 -0.191758 0.407568
v -0.559252 -0.180370 0.403656
v -0.564680 -0.187687 0.418044
v -0.568894 -0.170744 0.402940
v -0.571298 -0.183342 0.419835
v -0.580340 -0.162062 0.407672
v -0.580378 -0.175793 0.420731
v -0.589071 -0.165579 0.420432
v -0.585334 -0.173879 0.426264
v -0.593939 -0.161236 0.425605
v -0.587745 -0.170887 0.432027
v -0.601150 -0.154111 0.429937
v -0.590189 -0.166679 0.438907
v -0.576376 -0.175026 0.394534
v -0.579258 -0.179479 0.399241
v -0.571800 -0.181946 0.397258
v -0.569627 -0.179725 0.394479
v -0.575736 -0.188741 0.403634
v -0.568807 -0.188039 0.400214
v -0.570158 -0.196838 0.404944
v -0.565393 -0.194569 0.401212
v -0.564433 -0.201670 0.402457
v -0.562544 -0.198106 0.400022
v -0.557956 -0.203675 0.398915
v -0.558657 -0.197808 0.397221
v -0.548913 -0.196048 0.387608
v -0.551790 -0.193810 0.389519
v -0.548701 -0.187475 0.383640
v -0.552070 -0.188415 0.387737
v -0.553805 -0.180709 0.384035
v -0.555521 -0.182825 0.387626
v -0.561282 -0.176816 0.387342
v -0.560944 -0.179297 0.389169
v -0.565593 -0.178576 0.391490
v -0.570784 -0.173870 0.390064
v -0.558805 -0.184376 0.392570
v -0.563189 -0.186169 0.396949
v -0.555748 -0.190244 0.393188
v -0.560075 -0.192179 0.397490
v -0.554553 -0.195987 0.393189
v -0.552598 -0.201269 0.393477
v -0.547952 -0.186939 0.387537
v -0.547916 -0.196481 0.391362
v -0.551921 -0.203016 0.397511
v -0.558997 -0.205482 0.403974
v -0.565974 -0.202647 0.407311
v -0.572434 -0.195612 0.409489
v -0.580090 -0.186519 0.408486
v -0.581498 -0.177102 0.402332
v -0.578507 -0.171887 0.396161
v -0.572423 -0.171084 0.391589
v -0.561752 -0.174781 0.389638
v -0.553089 -0.179564 0.386818
v -0.566385 -0.172243 0.396596
v -0.557483 -0.179831 0.395969
v -0.551935 -0.188215 0.397079
v -0.551409 -0.200164 0.407582
v -0.549090 -0.206028 0.416206
v -0.551399 -0.197493 0.399624
v -0.544224 -0.212491 0.424357
v -0.538807 -0.217724 0.430405
v -0.531034 -0.220842 0.434938
v -0.520320 -0.222572 0.440682
v -0.574565 -0.162968 0.397965
v -0.575617 -0.157100 0.397300
v -0.582975 -0.154041 0.402748
v -0.582120 -0.152285 0.397048
v -0.576317 -0.155130 0.395061
v -0.586834 -0.159567 0.411652
v -0.586633 -0.153843 0.406573
v -0.585441 -0.152279 0.398617
v -0.574884 -0.159909 0.398105
v -0.581638 -0.156546 0.405176
v -0.586025 -0.156471 0.409601
v -0.593888 -0.157680 0.407490
v -0.595238 -0.155573 0.406813
v -0.593068 -0.156542 0.400169
v -0.574201 -0.168737 0.392761
v -0.581069 -0.168989 0.397329
v -0.584917 -0.173346 0.404630
v -0.585309 -0.178646 0.409810
v -0.579005 -0.163826 0.391694
v -0.586421 -0.164779 0.398391
v -0.590218 -0.167960 0.408539
v -0.587422 -0.173871 0.412394
v -0.592557 -0.158788 0.400887
v -0.586593 -0.159834 0.392221
v -0.587453 -0.156789 0.391468
v -0.551668 -0.203151 0.395436
v -0.558332 -0.205769 0.401806
v -0.565525 -0.203187 0.405487
v -0.572555 -0.159128 0.384096
v -0.581976 -0.161650 0.385268
v -0.584235 -0.158521 0.384797
v -0.580755 -0.151989 0.390170
v -0.571980 -0.196857 0.407979
v -0.576808 -0.152636 0.383309
v -0.571707 -0.152601 0.383289
v -0.579102 -0.187631 0.406742
v -0.576301 -0.151857 0.390022
v -0.572851 -0.155177 0.389949
v -0.581652 -0.177676 0.401078
v -0.569478 -0.156395 0.383584
v -0.578640 -0.172437 0.395272
v -0.572345 -0.171393 0.390438
v -0.547535 -0.196847 0.389006
v -0.547408 -0.187144 0.384841
v -0.576493 -0.163325 0.377446
v -0.578745 -0.159988 0.377887
v -0.572085 -0.155245 0.376634
v -0.568011 -0.155303 0.376181
v -0.552873 -0.179577 0.384671
v -0.566278 -0.158891 0.376626
v -0.568487 -0.162062 0.376858
v -0.561461 -0.174960 0.387944
v -0.572748 -0.158316 0.390420
v -0.583170 -0.162062 0.391530
v -0.575926 -0.160947 0.391524
v -0.576639 -0.157122 0.377571
v -0.544891 -0.196659 0.449939
v -0.581740 -0.155225 0.384160
v -0.545594 -0.193463 0.454449
v -0.585185 -0.153681 0.390730
v -0.591251 -0.153305 0.399372
v -0.594710 -0.153494 0.408482
v -0.593814 -0.156045 0.410277
v -0.572195 -0.163664 0.377085
v -0.549811 -0.194379 0.448563
v -0.577153 -0.160358 0.385341
v -0.590300 -0.161451 0.399967
v -0.591514 -0.161674 0.408233
v -0.589927 -0.163736 0.414909
v -0.587948 -0.171279 0.416996
v -0.590470 -0.159684 0.411770
v -0.588645 -0.163155 0.415747
v -0.590807 -0.166115 0.421217
v -0.596116 -0.160791 0.425926
v -0.602917 -0.154057 0.430159
v -0.608620 -0.147134 0.437054
v -0.611624 -0.143494 0.443787
v -0.614307 -0.142348 0.451282
v -0.615678 -0.142156 0.458815
v -0.616404 -0.141156 0.467140
v -0.611331 -0.143244 0.474096
v -0.602075 -0.148665 0.479818
v -0.590214 -0.155928 0.483300
v -0.580342 -0.162790 0.484785
v -0.562314 -0.171325 0.483105
v -0.550786 -0.176233 0.480578
v -0.537510 -0.181954 0.477616
v -0.525921 -0.188983 0.474334
v -0.514141 -0.195761 0.470566
v -0.504004 -0.201372 0.466845
v -0.497241 -0.205903 0.464168
v -0.490726 -0.210924 0.460940
v -0.485529 -0.216268 0.457006
v -0.485181 -0.222931 0.452765
v -0.490885 -0.227339 0.446929
v -0.497623 -0.228535 0.442794
v -0.507214 -0.225675 0.443781
v -0.513768 -0.224082 0.443140
v -0.589593 -0.170550 0.422760
v -0.593224 -0.165412 0.429286
v -0.597227 -0.160446 0.434277
v -0.601321 -0.154747 0.440358
v -0.601836 -0.151267 0.446951
v -0.601518 -0.149734 0.452927
v -0.603711 -0.148845 0.460265
v -0.606866 -0.147165 0.465699
v -0.602751 -0.149593 0.469432
v -0.594710 -0.155739 0.474745
v -0.588441 -0.161788 0.478204
v -0.584098 -0.168342 0.482186
v -0.581648 -0.165759 0.483910
v -0.585956 -0.166506 0.481183
v -0.585015 -0.163913 0.483133
v -0.578355 -0.168099 0.483125
v -0.581608 -0.169982 0.481518
v -0.588911 -0.171691 0.477130
v -0.589999 -0.169639 0.476048
v -0.587105 -0.172927 0.477167
v -0.596753 -0.171144 0.472478
v -0.594932 -0.174462 0.474129
v -0.590888 -0.177525 0.474323
v -0.603432 -0.172258 0.471187
v -0.600326 -0.176733 0.473111
v -0.609552 -0.179116 0.469912
v -0.611469 -0.174668 0.468349
v -0.605098 -0.183354 0.468751
v -0.594682 -0.180324 0.472947
v -0.607687 -0.173410 0.470143
v -0.604918 -0.178636 0.471970
v -0.599491 -0.182640 0.471367
v -0.610851 -0.183504 0.461768
v -0.614204 -0.180846 0.462787
v -0.615007 -0.177813 0.461560
v -0.616112 -0.183233 0.456026
v -0.616469 -0.180828 0.454910
v -0.613670 -0.185011 0.455402
v -0.618776 -0.184720 0.449680
v -0.618821 -0.182383 0.448577
v -0.616209 -0.186406 0.449034
v -0.617538 -0.187910 0.444744
v -0.620867 -0.185295 0.445391
v -0.621405 -0.182120 0.444225
v -0.621794 -0.186777 0.441203
v -0.617837 -0.190117 0.440654
v -0.621083 -0.189244 0.436004
v -0.616622 -0.192672 0.435605
v -0.617906 -0.193911 0.429964
v -0.614279 -0.196688 0.429992
v -0.617373 -0.196714 0.425982
v -0.613617 -0.199989 0.425723
v -0.614273 -0.202360 0.422816
v -0.618294 -0.198184 0.423656
v -0.620954 -0.197028 0.421281
v -0.618494 -0.201102 0.419989
v -0.623845 -0.193209 0.417889
v -0.623178 -0.196433 0.416521
v -0.627104 -0.186299 0.411685
v -0.624302 -0.189862 0.410061
v -0.625608 -0.181330 0.404449
v -0.622609 -0.185492 0.403253
v -0.619939 -0.174301 0.394547
v -0.617051 -0.177447 0.392426
v -0.616583 -0.167343 0.387449
v -0.613303 -0.170003 0.385018
v -0.613792 -0.164084 0.384700
v -0.610629 -0.166048 0.382386
v -0.611816 -0.159933 0.386129
v -0.606090 -0.159609 0.384023
v -0.623615 -0.181746 0.440239
v -0.625303 -0.181220 0.436648
v -0.625998 -0.179928 0.432371
v -0.626025 -0.178344 0.427020
v -0.623413 -0.185258 0.431929
v -0.619120 -0.190503 0.428843
v -0.618786 -0.192368 0.425586
v -0.619493 -0.193384 0.423708
v -0.622768 -0.191544 0.421142
v -0.624786 -0.188822 0.417796
v -0.627764 -0.180720 0.413184
v -0.625216 -0.174774 0.404883
v -0.619531 -0.169251 0.396691
v -0.625109 -0.183795 0.427283
v -0.626177 -0.176843 0.418408
v -0.628573 -0.181969 0.419675
v -0.626911 -0.183040 0.423918
v -0.626660 -0.177421 0.422766
v -0.624126 -0.174962 0.413389
v -0.621463 -0.170517 0.406259
v -0.615612 -0.166013 0.398726
v -0.611389 -0.161106 0.392650
v -0.615241 -0.164341 0.390483
v -0.610189 -0.158047 0.389378
v -0.605527 -0.157124 0.388473
v -0.606827 -0.161212 0.391841
v -0.612786 -0.167472 0.399121
v -0.619738 -0.172267 0.408007
v -0.621540 -0.176321 0.414265
v -0.622707 -0.177783 0.418134
v -0.623413 -0.178307 0.422189
v -0.621791 -0.179503 0.426183
v -0.619514 -0.181236 0.430830
v -0.618357 -0.181396 0.434253
v -0.616910 -0.181113 0.437369
v -0.615062 -0.180896 0.440691
v -0.612367 -0.180703 0.444602
v -0.609417 -0.179557 0.450137
v -0.605622 -0.177659 0.455646
v -0.602690 -0.174486 0.461207
v -0.600475 -0.172153 0.463883
v -0.598045 -0.170712 0.465991
v -0.593411 -0.169640 0.468298
v -0.588496 -0.167101 0.472449
v -0.588890 -0.163049 0.468627
v -0.588639 -0.167878 0.463082
v -0.589887 -0.170671 0.458792
v -0.594432 -0.155435 0.463873
v -0.589147 -0.160341 0.456824
v -0.590255 -0.174141 0.452656
v -0.589497 -0.176138 0.446843
v -0.589932 -0.177871 0.440124
v -0.590394 -0.162546 0.451274
v -0.591981 -0.165019 0.445092
v -0.590921 -0.168482 0.440029
v -0.596951 -0.177344 0.451109
v -0.598747 -0.178885 0.444770
v -0.596306 -0.175626 0.455052
v -0.589955 -0.171717 0.434286
v -0.588791 -0.175687 0.426710
v -0.591305 -0.179597 0.433466
v -0.600939 -0.180145 0.438925
v -0.586729 -0.177011 0.420840
v -0.586344 -0.178846 0.417088
v -0.586114 -0.182780 0.414917
v -0.584788 -0.186327 0.414932
v -0.603312 -0.161642 0.383706
v -0.603490 -0.158687 0.388021
v -0.606858 -0.167753 0.382104
v -0.609875 -0.171250 0.384477
v -0.613808 -0.178280 0.392278
v -0.618684 -0.186202 0.402731
v -0.619384 -0.190643 0.409205
v -0.617588 -0.194712 0.414869
v -0.612891 -0.198342 0.418095
v -0.609157 -0.199699 0.420491
v -0.607785 -0.198782 0.423576
v -0.607895 -0.196227 0.427582
v -0.608546 -0.193128 0.432240
v -0.609158 -0.190587 0.436958
v -0.609679 -0.188041 0.441124
v -0.609312 -0.186208 0.445857
v -0.608392 -0.183621 0.451596
v -0.604173 -0.182345 0.456081
v -0.600088 -0.180019 0.460577
v -0.597215 -0.177158 0.463144
v -0.592210 -0.175260 0.466124
v -0.587100 -0.174320 0.469069
v -0.582934 -0.172608 0.472802
v -0.603518 -0.164687 0.385064
v -0.604920 -0.168389 0.383710
v -0.605652 -0.162580 0.391238
v -0.607182 -0.171296 0.385864
v -0.611804 -0.168578 0.398606
v -0.610452 -0.174417 0.396357
v -0.604593 -0.161731 0.387785
v -0.606732 -0.164573 0.390668
v -0.604846 -0.168770 0.388907
v -0.612051 -0.170189 0.398121
v -0.611904 -0.177496 0.393383
v -0.616411 -0.184516 0.402641
v -0.616364 -0.179758 0.404626
v -0.619023 -0.175182 0.406322
v -0.618967 -0.173225 0.407313
v -0.617481 -0.188987 0.409564
v -0.618057 -0.184180 0.411598
v -0.620457 -0.179448 0.412876
v -0.620879 -0.177321 0.413849
v -0.616733 -0.192324 0.415180
v -0.618277 -0.187356 0.416535
v -0.619836 -0.182389 0.417208
v -0.621391 -0.179155 0.417808
v -0.612128 -0.194945 0.418287
v -0.613377 -0.190378 0.419395
v -0.607558 -0.195541 0.420696
v -0.609577 -0.190761 0.421872
v -0.616521 -0.185177 0.420214
v -0.612915 -0.186236 0.422787
v -0.620381 -0.180714 0.421272
v -0.617711 -0.181956 0.424556
v -0.612946 -0.183384 0.428253
v -0.609602 -0.182714 0.430035
v -0.609345 -0.185902 0.425833
v -0.606591 -0.189253 0.424994
v -0.604699 -0.193834 0.424380
v -0.605281 -0.185413 0.426530
v -0.603277 -0.188629 0.426200
v -0.603506 -0.193238 0.426747
v -0.607338 -0.181135 0.432208
v -0.605239 -0.180295 0.434772
v -0.596194 -0.183868 0.423956
v -0.593975 -0.181833 0.424950
v -0.592809 -0.180740 0.427918
v -0.595690 -0.185943 0.423210
v -0.592933 -0.188536 0.423675
v -0.579801 -0.189017 0.414660
v -0.568851 -0.194070 0.410503
v -0.565240 -0.199490 0.409427
v -0.559158 -0.204220 0.407103
v -0.574548 -0.189889 0.415085
v -0.586991 -0.188888 0.425381
v -0.601430 -0.190631 0.428578
v -0.598733 -0.189434 0.432454
v -0.552866 -0.203109 0.401374
v -0.551908 -0.202865 0.403392
v -0.551150 -0.204514 0.406611
v -0.553653 -0.204899 0.404773
v -0.556795 -0.205116 0.407557
v -0.560442 -0.202642 0.411379
v -0.557168 -0.205658 0.410438
v -0.563484 -0.198382 0.412164
v -0.566299 -0.194371 0.413845
v -0.557033 -0.204707 0.419364
v -0.555509 -0.208087 0.418386
v -0.557901 -0.200706 0.419553
v -0.560293 -0.196789 0.421058
v -0.552941 -0.203277 0.431582
v -0.550458 -0.213890 0.428243
v -0.551104 -0.210674 0.428962
v -0.550957 -0.207214 0.429079
v -0.553365 -0.206408 0.407901
v -0.551279 -0.210034 0.416379
v -0.547174 -0.215720 0.425409
v -0.549389 -0.208913 0.415602
v -0.545341 -0.214875 0.424529
v -0.541553 -0.221513 0.432909
v -0.543713 -0.219253 0.435697
v -0.544725 -0.207868 0.439880
v -0.543574 -0.212153 0.437260
v -0.543945 -0.215843 0.436828
v -0.539988 -0.220388 0.431474
v -0.532294 -0.222989 0.436668
v -0.533866 -0.223943 0.438599
v -0.535410 -0.221776 0.440720
v -0.535783 -0.218528 0.441807
v -0.535664 -0.214292 0.441921
v -0.536694 -0.209313 0.444358
v -0.521505 -0.223877 0.442846
v -0.522471 -0.223873 0.444432
v -0.523558 -0.222545 0.446333
v -0.524471 -0.220033 0.447652
v -0.524493 -0.215673 0.447475
v -0.525850 -0.210381 0.449269
v -0.517134 -0.222653 0.449149
v -0.518073 -0.220119 0.450601
v -0.518409 -0.215723 0.450760
v -0.519945 -0.210684 0.452666
v -0.514903 -0.224703 0.445334
v -0.515892 -0.224118 0.447294
v -0.508142 -0.225576 0.446011
v -0.498652 -0.227618 0.446227
v -0.509290 -0.224339 0.448792
v -0.510582 -0.222132 0.451319
v -0.511758 -0.219277 0.452785
v -0.512634 -0.215019 0.453077
v -0.514639 -0.210332 0.455430
v -0.500232 -0.224579 0.450607
v -0.502215 -0.221071 0.454242
v -0.503964 -0.217650 0.455891
v -0.505711 -0.213382 0.456051
v -0.508950 -0.209861 0.457586
v -0.492745 -0.226301 0.450110
v -0.488188 -0.222799 0.454391
v -0.488921 -0.218437 0.457617
v -0.492490 -0.213837 0.460625
v -0.498398 -0.207924 0.463680
v -0.504394 -0.203471 0.465836
v -0.507216 -0.207905 0.459819
v -0.502333 -0.211828 0.458018
v -0.499858 -0.215971 0.458080
v -0.497141 -0.219802 0.456565
v -0.494630 -0.223321 0.453425
v -0.497617 -0.213207 0.459977
v -0.500308 -0.209567 0.460781
v -0.505783 -0.205314 0.462951
v -0.514584 -0.197749 0.469465
v -0.526458 -0.191039 0.473247
v -0.538038 -0.184557 0.476250
v -0.551003 -0.179003 0.478350
v -0.562074 -0.174229 0.479915
v -0.575937 -0.169961 0.479517
v -0.578447 -0.170684 0.478274
v -0.515014 -0.201067 0.465170
v -0.514938 -0.205657 0.460030
v -0.525844 -0.197007 0.467116
v -0.523395 -0.204075 0.459686
v -0.531666 -0.202689 0.457644
v -0.536533 -0.193131 0.467711
v -0.548750 -0.188318 0.467537
v -0.542540 -0.199633 0.454269
v -0.551727 -0.196843 0.450979
v -0.558503 -0.184257 0.464731
v -0.560954 -0.193437 0.447359
v -0.566789 -0.181099 0.460300
v -0.571679 -0.190794 0.418423
v -0.584661 -0.188603 0.428402
v -0.598449 -0.187342 0.436410
v -0.596166 -0.184886 0.440261
v -0.580608 -0.187493 0.432998
v -0.568694 -0.191504 0.426387
v -0.567794 -0.192240 0.435123
v -0.570027 -0.188614 0.445284
v -0.573437 -0.180052 0.454607
v -0.580197 -0.185646 0.438697
v -0.595113 -0.181918 0.444799
v -0.580272 -0.183133 0.445445
v -0.592484 -0.180196 0.449361
v -0.590645 -0.178023 0.453624
v -0.581068 -0.179311 0.451609
v -0.590600 -0.175119 0.457296
v -0.589134 -0.172832 0.462060
v -0.585187 -0.172220 0.465121
v -0.580803 -0.171282 0.469746
v -0.582925 -0.175249 0.457255
v -0.577056 -0.173595 0.463940
v -0.571709 -0.170868 0.479624
v -0.572317 -0.166982 0.484605
v -0.571232 -0.165912 0.482297
v -0.570261 -0.169611 0.472856
v -0.570572 -0.158128 0.374752
v -0.568568 -0.158885 0.374407
v -0.567467 -0.160360 0.374601
v -0.568542 -0.162364 0.374447
v -0.571025 -0.163204 0.374870
v -0.573568 -0.162191 0.375049
v -0.574701 -0.160410 0.375476
v -0.572581 -0.159102 0.374932
v -0.570302 -0.160888 0.374166
v -0.575204 -0.185418 0.429120
v -0.578934 -0.182089 0.437895
v -0.581202 -0.176004 0.445559
v -0.581153 -0.169571 0.451335
v -0.585768 -0.162238 0.457672
v -0.564113 -0.193235 0.435413
v -0.555218 -0.197431 0.440067
v -0.547122 -0.200287 0.443387
v -0.538999 -0.202093 0.447480
v -0.567795 -0.187940 0.442838
v -0.569359 -0.180665 0.450382
v -0.581291 -0.165471 0.465732
v -0.592217 -0.154757 0.461904
v -0.589812 -0.157088 0.467450
v -0.571415 -0.173368 0.461205
v -0.560582 -0.179073 0.462728
v -0.550847 -0.185650 0.461953
v -0.540626 -0.193053 0.460126
v -0.528448 -0.205994 0.449890
v -0.517329 -0.209766 0.450332
v -0.508117 -0.213368 0.449065
v -0.499039 -0.215964 0.447666
v -0.499405 -0.210639 0.452095
v -0.508054 -0.208259 0.453935
v -0.517517 -0.204685 0.456462
v -0.529507 -0.199415 0.458668
v -0.560219 -0.184124 0.453802
v -0.558309 -0.190977 0.446128
v -0.550827 -0.190003 0.454227
f 94 76 73
f 94 73 74
f 82 80 78
f 82 78 96
f 96 78 76
f 96 76 94
f 94 74 91
f 94 91 93
f 97 82 96
f 97 96 95
f 93 91 90
f 93 90 88
f 93 88 86
f 93 86 95
f 95 96 94
f 95 94 93
f 95 86 84
f 95 84 97
f 83 84 86
f 83 86 85
f 98 97 84
f 98 84 83
f 81 82 97
f 81 97 98
f 79 80 82
f 79 82 81
f 77 78 80
f 77 80 79
f 75 76 78
f 75 78 77
f 72 73 76
f 72 76 75
f 74 73 72
f 74 72 71
f 92 91 74
f 92 74 71
f 89 90 91
f 89 91 92
f 87 88 90
f 87 90 89
f 87 85 86
f 87 86 88
f 87 89 172
f 87 172 169
f 99 164 169
f 99 169 110
f 113 112 59
f 113 59 58
f 99 110 112
f 99 112 113
f 83 85 164
f 83 164 163
f 109 172 162
f 109 162 108
f 108 162 161
f 108 161 107
f 107 161 159
f 107 159 106
f 111 61 59
f 111 59 112
f 112 110 109
f 112 109 111
f 135 111 109
f 135 109 108
f 63 61 111
f 63 111 121
f 136 135 108
f 136 108 107
f 137 136 107
f 137 107 106
f 149 173 175
f 149 175 186
f 186 174 144
f 186 144 150
f 158 173 149
f 158 149 160
f 125 124 123
f 125 123 122
f 158 157 124
f 158 124 125
f 130 63 121
f 130 121 129
f 129 122 123
f 129 123 130
f 173 158 125
f 173 125 122
f 151 150 144
f 151 144 145
f 165 184 186
f 165 186 150
f 149 186 184
f 149 184 171
f 160 149 171
f 160 171 170
f 166 165 150
f 166 150 151
f 178 180 152
f 178 152 154
f 151 145 180
f 151 180 178
f 155 154 152
f 155 152 157
f 167 176 178
f 167 178 154
f 128 124 157
f 128 157 152
f 181 128 152
f 181 152 180
f 181 180 145
f 181 145 134
f 127 123 124
f 127 124 128
f 182 127 128
f 182 128 181
f 182 181 134
f 182 134 133
f 131 130 123
f 131 123 127
f 151 178 176
f 151 176 166
f 168 167 154
f 168 154 155
f 155 157 158
f 155 158 160
f 155 160 170
f 155 170 168
f 100 101 146
f 100 146 163
f 81 98 146
f 81 146 147
f 79 81 147
f 79 147 148
f 77 79 148
f 77 148 153
f 75 77 153
f 75 153 156
f 72 75 156
f 72 156 159
f 71 72 159
f 71 159 161
f 121 111 135
f 121 135 139
f 175 129 121
f 175 121 139
f 173 122 129
f 173 129 175
f 186 175 139
f 186 139 174
f 92 71 161
f 92 161 162
f 140 139 135
f 140 135 136
f 143 134 145
f 143 145 144
f 187 174 139
f 187 139 140
f 143 144 174
f 143 174 187
f 132 133 134
f 132 134 143
f 141 140 136
f 141 136 137
f 188 187 140
f 188 140 141
f 132 143 187
f 132 187 188
f 191 126 131
f 191 131 183
f 183 131 127
f 183 127 182
f 183 182 133
f 183 133 132
f 183 132 188
f 183 188 191
f 126 63 130
f 126 130 131
f 191 188 141
f 191 141 189
f 192 126 191
f 192 191 189
f 192 65 63
f 192 63 126
f 193 65 192
f 193 192 189
f 67 65 193
f 67 193 194
f 69 67 194
f 69 194 195
f 13 69 195
f 13 195 196
f 12 13 196
f 12 196 197
f 9 12 197
f 9 197 198
f 7 9 198
f 7 198 199
f 5 7 199
f 5 199 200
f 1 5 200
f 1 200 201
f 2 1 201
f 2 201 202
f 16 2 202
f 16 202 203
f 232 230 231
f 232 231 233
f 294 267 265
f 294 265 293
f 269 267 294
f 269 294 295
f 272 269 295
f 272 295 296
f 295 294 293
f 295 293 302
f 296 295 302
f 296 302 305
f 273 272 296
f 273 296 297
f 298 275 273
f 298 273 297
f 277 275 298
f 277 298 299
f 297 296 305
f 297 305 304
f 299 298 297
f 299 297 304
f 279 277 299
f 279 299 300
f 281 279 300
f 281 300 301
f 283 281 301
f 283 301 311
f 287 285 283
f 287 283 311
f 312 287 311
f 312 311 310
f 310 311 301
f 310 301 309
f 309 301 300
f 309 300 308
f 308 300 299
f 308 299 307
f 307 299 304
f 307 304 303
f 303 304 305
f 303 305 306
f 306 305 302
f 306 302 292
f 291 292 302
f 291 302 293
f 290 291 293
f 290 293 265
f 290 265 263
f 290 263 289
f 289 263 261
f 289 261 262
f 248 249 243
f 248 243 242
f 242 243 240
f 242 240 239
f 239 240 236
f 239 236 237
f 232 233 203
f 232 203 229
f 229 203 202
f 229 202 228
f 330 242 239
f 330 239 331
f 262 261 257
f 262 257 258
f 254 255 258
f 254 258 257
f 252 253 255
f 252 255 254
f 249 248 245
f 249 245 244
f 244 245 253
f 244 253 252
f 201 200 226
f 201 226 227
f 228 202 201
f 228 201 227
f 226 200 199
f 226 199 225
f 333 228 227
f 333 227 336
f 225 199 198
f 225 198 224
f 336 227 226
f 336 226 225
f 334 331 332
f 334 332 333
f 333 332 229
f 333 229 228
f 336 225 224
f 336 224 337
f 337 334 333
f 337 333 336
f 224 198 197
f 224 197 223
f 223 197 196
f 223 196 222
f 222 196 195
f 222 195 221
f 341 337 224
f 341 224 223
f 329 248 242
f 329 242 330
f 330 331 334
f 330 334 335
f 335 334 337
f 335 337 341
f 326 255 253
f 326 253 327
f 328 245 248
f 328 248 329
f 328 327 253
f 328 253 245
f 329 330 335
f 329 335 338
f 344 327 328
f 344 328 346
f 346 328 329
f 346 329 338
f 221 195 194
f 221 194 220
f 344 346 338
f 344 338 339
f 339 338 342
f 339 342 343
f 342 341 223
f 342 223 222
f 338 335 341
f 338 341 342
f 342 222 221
f 342 221 343
f 347 343 221
f 347 221 220
f 340 339 343
f 340 343 347
f 345 344 339
f 345 339 340
f 345 326 327
f 345 327 344
f 325 258 255
f 325 255 326
f 190 189 141
f 190 141 142
f 219 193 189
f 219 189 190
f 220 194 193
f 220 193 219
f 348 347 220
f 348 220 219
f 142 141 137
f 142 137 138
f 106 159 156
f 106 156 105
f 138 137 106
f 138 106 105
f 288 287 312
f 288 312 313
f 286 285 287
f 286 287 288
f 284 283 285
f 284 285 286
f 282 281 283
f 282 283 284
f 280 279 281
f 280 281 282
f 278 277 279
f 278 279 280
f 276 275 277
f 276 277 278
f 274 273 275
f 274 275 276
f 271 272 273
f 271 273 274
f 270 269 272
f 270 272 271
f 268 267 269
f 268 269 270
f 266 265 267
f 266 267 268
f 264 263 265
f 264 265 266
f 260 261 263
f 260 263 264
f 259 257 261
f 259 261 260
f 256 254 257
f 256 257 259
f 251 252 254
f 251 254 256
f 246 244 252
f 246 252 251
f 249 244 246
f 249 246 250
f 247 243 249
f 247 249 250
f 241 240 243
f 241 243 247
f 286 288 355
f 286 355 357
f 284 286 357
f 284 357 358
f 314 310 309
f 314 309 315
f 314 313 312
f 314 312 310
f 355 288 313
f 355 313 356
f 356 313 314
f 356 314 380
f 379 357 355
f 379 355 378
f 384 356 380
f 384 380 385
f 378 355 356
f 378 356 384
f 378 384 385
f 378 385 386
f 381 358 357
f 381 357 379
f 381 379 378
f 381 378 386
f 282 284 358
f 282 358 359
f 359 358 381
f 359 381 388
f 280 282 359
f 280 359 360
f 388 381 386
f 388 386 383
f 383 386 385
f 383 385 387
f 387 385 380
f 387 380 382
f 382 380 314
f 382 314 315
f 315 309 308
f 315 308 316
f 360 359 388
f 360 388 389
f 278 280 360
f 278 360 361
f 390 389 388
f 390 388 383
f 391 390 383
f 391 383 387
f 392 391 387
f 392 387 382
f 392 382 315
f 392 315 316
f 317 316 308
f 317 308 307
f 361 360 389
f 361 389 393
f 276 278 361
f 276 361 362
f 394 393 389
f 394 389 390
f 395 394 390
f 395 390 391
f 396 395 391
f 396 391 392
f 396 392 316
f 396 316 317
f 318 317 307
f 318 307 303
f 362 361 393
f 362 393 397
f 397 393 394
f 397 394 398
f 274 276 362
f 274 362 363
f 363 362 397
f 363 397 401
f 271 274 363
f 271 363 364
f 399 398 394
f 399 394 395
f 401 397 398
f 401 398 402
f 400 399 395
f 400 395 396
f 400 396 317
f 400 317 318
f 319 318 303
f 319 303 306
f 402 398 399
f 402 399 405
f 400 318 319
f 400 319 407
f 405 399 400
f 405 400 407
f 320 319 306
f 320 306 292
f 321 320 292
f 321 292 291
f 407 319 320
f 407 320 408
f 322 321 291
f 322 291 290
f 406 405 407
f 406 407 408
f 408 320 321
f 408 321 409
f 404 402 405
f 404 405 406
f 364 363 401
f 364 401 403
f 403 401 402
f 403 402 404
f 270 271 364
f 270 364 365
f 411 406 408
f 411 408 409
f 404 406 411
f 404 411 412
f 403 404 412
f 403 412 413
f 365 364 403
f 365 403 413
f 268 270 365
f 268 365 366
f 323 322 290
f 323 290 289
f 410 409 321
f 410 321 322
f 324 323 289
f 324 289 262
f 324 262 258
f 324 258 325
f 325 326 345
f 325 345 350
f 410 322 323
f 410 323 417
f 418 417 323
f 418 323 324
f 418 324 325
f 418 325 350
f 350 345 340
f 350 340 349
f 340 347 348
f 340 348 349
f 411 409 410
f 411 410 414
f 421 349 348
f 421 348 351
f 421 418 350
f 421 350 349
f 420 417 418
f 420 418 421
f 419 420 352
f 419 352 353
f 422 414 410
f 422 410 419
f 419 410 417
f 419 417 420
f 351 190 142
f 351 142 352
f 348 219 190
f 348 190 351
f 351 352 420
f 351 420 421
f 352 142 138
f 352 138 353
f 412 411 414
f 412 414 415
f 105 156 153
f 105 153 104
f 104 153 148
f 104 148 103
f 103 148 147
f 103 147 102
f 354 105 104
f 354 104 424
f 353 138 105
f 353 105 354
f 422 419 353
f 422 353 354
f 423 415 414
f 423 414 422
f 422 354 424
f 422 424 423
f 413 412 415
f 413 415 416
f 366 365 413
f 366 413 416
f 266 268 366
f 266 366 367
f 367 366 416
f 367 416 430
f 416 415 423
f 416 423 430
f 264 266 367
f 264 367 368
f 102 147 146
f 102 146 101
f 98 83 163
f 98 163 146
f 100 99 113
f 100 113 116
f 116 113 58
f 116 58 114
f 432 101 100
f 432 100 116
f 427 102 101
f 427 101 432
f 426 103 102
f 426 102 427
f 425 104 103
f 425 103 426
f 439 426 427
f 439 427 437
f 443 439 437
f 443 437 441
f 432 116 433
f 432 433 435
f 436 427 432
f 436 432 435
f 438 437 427
f 438 427 436
f 438 436 435
f 438 435 449
f 434 433 116
f 434 116 114
f 449 435 433
f 449 433 434
f 442 441 437
f 442 437 438
f 442 438 449
f 442 449 450
f 115 114 58
f 115 58 56
f 452 434 114
f 452 114 115
f 450 449 434
f 450 434 452
f 117 115 56
f 117 56 54
f 451 450 452
f 451 452 453
f 446 442 450
f 446 450 451
f 447 441 442
f 447 442 446
f 448 443 441
f 448 441 447
f 453 452 115
f 453 115 117
f 118 117 54
f 118 54 52
f 453 117 118
f 453 118 459
f 454 451 453
f 454 453 459
f 446 451 454
f 446 454 455
f 447 446 455
f 447 455 458
f 457 448 447
f 457 447 458
f 218 46 44
f 218 44 217
f 217 44 42
f 217 42 216
f 478 476 218
f 478 218 217
f 477 476 478
f 477 478 480
f 472 477 480
f 472 480 481
f 473 472 481
f 473 481 482
f 474 473 482
f 474 482 483
f 479 478 217
f 479 217 216
f 216 42 40
f 216 40 215
f 215 40 38
f 215 38 214
f 214 38 36
f 214 36 213
f 213 36 33
f 213 33 212
f 212 33 31
f 212 31 211
f 211 31 30
f 211 30 210
f 488 483 482
f 488 482 487
f 487 482 481
f 487 481 486
f 486 481 480
f 486 480 485
f 485 480 478
f 485 478 479
f 490 215 214
f 490 214 491
f 490 479 216
f 490 216 215
f 500 490 491
f 500 491 492
f 492 491 214
f 492 214 213
f 500 485 479
f 500 479 490
f 499 500 492
f 499 492 493
f 499 486 485
f 499 485 500
f 498 487 486
f 498 486 499
f 493 492 213
f 493 213 212
f 501 498 499
f 501 499 493
f 494 493 212
f 494 212 211
f 497 488 487
f 497 487 498
f 501 493 494
f 501 494 502
f 497 498 501
f 497 501 502
f 495 494 211
f 495 211 210
f 210 30 28
f 210 28 209
f 209 28 26
f 209 26 208
f 208 26 24
f 208 24 207
f 207 24 22
f 207 22 206
f 504 495 210
f 504 210 209
f 502 494 495
f 502 495 503
f 496 497 502
f 496 502 503
f 496 489 488
f 496 488 497
f 484 483 488
f 484 488 489
f 505 504 209
f 505 209 208
f 503 495 504
f 503 504 511
f 496 503 511
f 496 511 512
f 484 489 496
f 484 496 512
f 475 474 483
f 475 483 484
f 475 484 512
f 475 512 514
f 514 512 511
f 514 511 513
f 511 504 505
f 511 505 513
f 506 505 208
f 506 208 207
f 507 506 207
f 507 207 206
f 516 513 505
f 516 505 506
f 515 514 513
f 515 513 516
f 471 475 514
f 471 514 515
f 48 46 218
f 48 218 120
f 119 118 52
f 119 52 50
f 120 119 50
f 120 50 48
f 463 458 455
f 463 455 462
f 472 473 469
f 472 469 468
f 455 454 461
f 455 461 462
f 462 461 467
f 462 467 468
f 468 469 463
f 468 463 462
f 468 467 477
f 468 477 472
f 461 454 459
f 461 459 460
f 476 477 467
f 476 467 466
f 460 459 118
f 460 118 119
f 460 119 120
f 460 120 466
f 466 467 461
f 466 461 460
f 466 120 218
f 466 218 476
f 474 475 471
f 474 471 470
f 457 458 463
f 457 463 464
f 464 463 469
f 464 469 470
f 470 469 473
f 470 473 474
f 465 464 470
f 465 470 471
f 456 457 464
f 456 464 465
f 465 471 515
f 465 515 518
f 518 515 516
f 518 516 517
f 516 506 507
f 516 507 517
f 519 456 465
f 519 465 518
f 520 519 518
f 520 518 517
f 425 426 439
f 425 439 440
f 428 424 104
f 428 104 425
f 429 423 424
f 429 424 428
f 368 367 430
f 368 430 431
f 431 430 423
f 431 423 429
f 260 264 368
f 260 368 369
f 259 260 369
f 259 369 370
f 369 368 431
f 369 431 525
f 525 431 429
f 525 429 524
f 524 429 428
f 524 428 523
f 428 425 440
f 428 440 523
f 440 439 443
f 440 443 444
f 445 444 443
f 445 443 448
f 445 448 457
f 445 457 456
f 528 523 440
f 528 440 444
f 521 445 456
f 521 456 519
f 528 444 445
f 528 445 529
f 527 524 523
f 527 523 528
f 526 525 524
f 526 524 527
f 526 370 369
f 526 369 525
f 256 259 370
f 256 370 371
f 527 528 529
f 527 529 532
f 371 370 526
f 371 526 533
f 526 527 532
f 526 532 533
f 251 256 371
f 251 371 372
f 246 251 372
f 246 372 373
f 372 371 533
f 372 533 535
f 535 533 532
f 535 532 534
f 536 373 372
f 536 372 535
f 250 246 373
f 250 373 374
f 247 250 374
f 247 374 375
f 241 247 375
f 241 375 376
f 510 235 238
f 510 238 377
f 530 529 445
f 530 445 521
f 534 532 529
f 534 529 530
f 374 373 536
f 374 536 538
f 539 375 374
f 539 374 538
f 537 536 535
f 537 535 534
f 376 375 539
f 376 539 540
f 542 538 536
f 542 536 537
f 540 539 538
f 540 538 542
f 537 534 530
f 537 530 531
f 377 376 540
f 377 540 541
f 520 517 507
f 520 507 508
f 509 510 377
f 509 377 541
f 522 521 519
f 522 519 520
f 531 530 521
f 531 521 522
f 542 537 531
f 542 531 543
f 541 540 542
f 541 542 543
f 204 203 233
f 204 233 231
f 17 16 203
f 17 203 204
f 206 22 20
f 206 20 205
f 205 20 546
f 205 546 545
f 508 507 206
f 508 206 205
f 545 544 508
f 545 508 205
f 545 204 231
f 545 231 234
f 234 231 230
f 234 230 235
f 234 235 510
f 234 510 509
f 234 509 544
f 234 544 545
f 522 520 508
f 522 508 544
f 544 509 541
f 544 541 543
f 543 531 522
f 543 522 544
f 546 17 204
f 546 204 545
f 89 92 162
f 89 162 172
f 99 100 163
f 99 163 164
f 85 87 169
f 85 169 164
f 109 110 169
f 109 169 172
f 238 241 376
f 238 376 377
f 238 236 240
f 238 240 241
f 235 230 236
f 235 236 238
f 332 331 239
f 332 239 237
f 548 167 168
f 548 168 549
f 549 168 170
f 549 170 550
f 555 176 167
f 555 167 548
f 551 550 170
f 551 170 171
f 551 171 184
f 551 184 552
f 555 554 166
f 555 166 176
f 556 551 552
f 556 552 553
f 553 552 184
f 553 184 165
f 553 165 166
f 553 166 554
f 553 554 555
f 553 555 556
f 556 555 548
f 556 548 549
f 556 549 550
f 556 550 551
f 62 60 59
f 62 59 61
f 62 61 63
f 62 63 64
f 66 64 63
f 66 63 65
f 57 58 59
f 57 59 60
f 57 60 62
f 57 62 557
f 68 66 65
f 68 65 67
f 70 68 67
f 70 67 69
f 70 69 13
f 70 13 14
f 14 13 12
f 14 12 11
f 557 62 64
f 557 64 66
f 55 56 58
f 55 58 57
f 53 54 56
f 53 56 55
f 51 52 54
f 51 54 53
f 49 50 52
f 49 52 51
f 55 57 557
f 55 557 562
f 558 557 66
f 558 66 68
f 559 558 68
f 559 68 70
f 11 12 9
f 11 9 10
f 15 16 17
f 15 17 18
f 10 9 7
f 10 7 8
f 569 561 11
f 569 11 10
f 4 1 2
f 4 2 3
f 3 2 16
f 3 16 15
f 15 570 4
f 15 4 3
f 4 6 5
f 4 5 1
f 570 569 6
f 570 6 4
f 8 7 5
f 8 5 6
f 569 10 8
f 569 8 6
f 547 18 17
f 547 17 546
f 547 546 20
f 547 20 19
f 21 19 20
f 21 20 22
f 23 21 22
f 23 22 24
f 45 43 44
f 45 44 46
f 47 45 46
f 47 46 48
f 47 48 50
f 47 50 49
f 41 42 44
f 41 44 43
f 29 30 31
f 29 31 32
f 576 577 43
f 576 43 45
f 27 28 30
f 27 30 29
f 25 23 24
f 25 24 26
f 25 26 28
f 25 28 27
f 25 27 581
f 25 581 582
f 575 576 45
f 575 45 47
f 582 581 576
f 582 576 575
f 581 27 29
f 581 29 580
f 581 580 577
f 581 577 576
f 34 32 31
f 34 31 33
f 580 29 32
f 580 32 579
f 579 32 34
f 579 34 35
f 35 34 33
f 35 33 36
f 35 36 38
f 35 38 37
f 35 37 578
f 35 578 579
f 37 38 40
f 37 40 39
f 37 39 41
f 37 41 578
f 39 40 42
f 39 42 41
f 41 43 577
f 41 577 578
f 578 577 580
f 578 580 579
f 574 23 25
f 574 25 582
f 560 559 70
f 560 70 14
f 560 14 11
f 560 11 561
f 560 561 568
f 560 568 571
f 568 561 569
f 568 569 570
f 570 15 18
f 570 18 568
f 568 18 547
f 568 547 571
f 567 559 560
f 567 560 571
f 571 547 19
f 571 19 572
f 566 562 557
f 566 557 558
f 566 558 559
f 566 559 567
f 53 55 562
f 53 562 563
f 573 572 19
f 573 19 21
f 567 571 572
f 567 572 583
f 584 566 567
f 584 567 583
f 584 563 562
f 584 562 566
f 51 53 563
f 51 563 564
f 574 573 21
f 574 21 23
f 583 572 573
f 583 573 585
f 585 573 574
f 585 574 179
f 584 583 585
f 584 585 185
f 564 563 584
f 564 584 185
f 565 49 51
f 565 51 564
f 185 585 179
f 185 179 177
f 575 47 49
f 575 49 565
f 565 564 185
f 565 185 177
f 574 582 575
f 574 575 565
f 177 179 574
f 177 574 565
f 237 232 229
f 237 229 332
f 236 230 232
f 236 232 237
