# Scaphoid_L posed
v -0.697250 -0.305580 0.379093
v -0.698332 -0.299347 0.375964
v -0.700965 -0.292415 0.374004
v -0.710549 -0.281106 0.370761
v -0.715224 -0.274712 0.368879
v -0.718255 -0.282052 0.370895
v -0.722155 -0.285493 0.376299
v -0.715408 -0.290082 0.378033
v -0.709674 -0.294493 0.380445
v -0.707872 -0.297854 0.382557
v -0.705578 -0.301524 0.384248
v -0.700296 -0.305218 0.381813
v -0.702816 -0.299706 0.377701
v -0.705080 -0.293911 0.375505
v -0.713077 -0.285917 0.373113
v -0.723005 -0.285617 0.379629
v -0.716081 -0.290436 0.380429
v -0.711075 -0.293208 0.382749
v -0.708764 -0.296834 0.385191
v -0.705281 -0.301834 0.386633
v -0.697395 -0.306480 0.383432
v -0.694885 -0.305258 0.380738
v -0.696874 -0.297960 0.376869
v -0.699052 -0.291649 0.374844
v -0.709655 -0.278545 0.372471
v -0.714698 -0.272893 0.370932
v -0.722369 -0.287534 0.383869
v -0.717839 -0.290670 0.383733
v -0.725456 -0.280184 0.377291
v -0.723809 -0.281874 0.375305
v -0.720359 -0.279697 0.370880
v -0.719027 -0.274386 0.369213
v -0.718635 -0.272685 0.371399
v -0.724731 -0.281792 0.381542
v -0.721030 -0.286136 0.384789
v -0.725083 -0.278444 0.378415
v -0.711022 -0.290622 0.384770
v -0.707127 -0.295917 0.387051
v -0.703469 -0.300435 0.387728
v -0.697427 -0.302617 0.384996
v -0.695263 -0.301488 0.381840
v -0.696834 -0.296603 0.379667
v -0.698993 -0.290942 0.378710
v -0.709591 -0.278244 0.376236
v -0.713864 -0.275686 0.376389
v -0.717897 -0.274184 0.375604
v -0.719787 -0.275579 0.377684
v -0.715504 -0.277810 0.379296
v -0.710243 -0.281151 0.381076
v -0.702497 -0.290878 0.382493
v -0.699494 -0.295910 0.383626
v -0.722979 -0.276935 0.378729
v -0.720731 -0.279061 0.381054
v -0.716733 -0.284827 0.384352
v -0.714368 -0.290794 0.384161
v -0.713131 -0.291624 0.381458
v -0.712198 -0.291856 0.378802
v -0.709466 -0.288743 0.374322
v -0.705701 -0.286750 0.372609
v -0.703912 -0.285043 0.373474
v -0.703905 -0.284658 0.377616
v -0.706440 -0.285630 0.382320
v -0.704825 -0.292526 0.385652
v -0.702585 -0.296395 0.386700
v -0.700505 -0.302107 0.386864
v -0.701267 -0.304793 0.385451
v -0.703507 -0.302999 0.382811
v -0.705971 -0.298870 0.379919
v -0.708341 -0.294717 0.377877
v -0.712014 -0.290801 0.376385
v -0.715295 -0.288502 0.375150
v -0.720356 -0.284356 0.373274
v -0.721879 -0.281108 0.372503
v -0.721904 -0.278365 0.373805
v -0.721432 -0.276546 0.375196
v -0.695630 -0.302376 0.378078
v -0.695621 -0.300378 0.379849
v -0.723758 -0.285220 0.382865
v -0.718929 -0.289496 0.384775
v -0.720360 -0.289191 0.381778
v -0.715313 -0.291100 0.382467
v -0.698375 -0.295469 0.375151
v -0.711780 -0.276776 0.370226
v -0.702152 -0.288998 0.373245
v -0.707122 -0.282666 0.372085
v -0.697540 -0.294358 0.377529
v -0.711301 -0.275797 0.374019
v -0.700888 -0.287935 0.376018
v -0.706860 -0.281543 0.374926
v -0.712227 -0.278007 0.378390
v -0.715911 -0.280628 0.381514
v -0.721025 -0.282721 0.383223
v -0.707286 -0.282337 0.379353
v -0.703026 -0.288022 0.380288
v -0.712531 -0.291893 0.383431
v -0.715686 -0.288243 0.384989
v -0.710906 -0.285510 0.384275
v -0.705460 -0.289756 0.384399
v -0.709733 -0.294194 0.385056
v -0.698717 -0.293563 0.381477
v -0.702177 -0.293931 0.384686
v -0.706608 -0.293716 0.386489
v -0.696436 -0.299238 0.382600
v -0.703245 -0.298756 0.387520
v -0.699417 -0.299354 0.385759
v -0.707105 -0.298782 0.387243
v -0.695161 -0.304413 0.382959
v -0.702706 -0.302834 0.387170
v -0.698691 -0.304427 0.385476
v -0.697156 -0.306569 0.381320
v -0.704126 -0.302966 0.384816
v -0.700840 -0.305172 0.383414
v -0.707225 -0.299573 0.384693
v -0.700473 -0.302646 0.377995
v -0.703670 -0.301911 0.380544
v -0.705905 -0.300376 0.382376
v -0.709302 -0.295550 0.382731
v -0.701905 -0.296354 0.375647
v -0.705852 -0.296915 0.377614
v -0.707981 -0.296427 0.380231
v -0.711485 -0.292766 0.380861
v -0.705350 -0.290450 0.374115
v -0.710548 -0.292954 0.378357
v -0.708975 -0.292150 0.375672
v -0.714188 -0.290868 0.379670
v -0.709678 -0.285632 0.372702
v -0.713716 -0.290342 0.377060
v -0.712521 -0.288522 0.374607
v -0.719538 -0.288652 0.378598
v -0.713910 -0.281272 0.370414
v -0.718422 -0.287680 0.375453
v -0.716714 -0.285383 0.372907
v -0.719273 -0.277544 0.369507
v -0.720388 -0.281889 0.371791
v -0.722604 -0.283135 0.374225
v -0.723788 -0.283283 0.377114
v -0.725803 -0.281117 0.379172
v -0.723885 -0.278674 0.380106
v -0.716792 -0.275491 0.377408
v -0.719895 -0.276955 0.379428
v -0.723439 -0.280366 0.374689
v -0.720699 -0.278505 0.371602
v -0.717174 -0.272751 0.369566
v -0.720980 -0.275297 0.372336
v -0.716537 -0.273205 0.373604
v -0.719868 -0.274600 0.374912
v -0.722945 -0.276409 0.377357
v -0.723827 -0.278238 0.376014
v -0.697279 -0.302751 0.377197
v -0.699624 -0.295897 0.374912
v -0.703351 -0.289576 0.373360
v -0.712960 -0.277832 0.369628
v -0.716952 -0.278426 0.369068
v -0.719388 -0.283209 0.372046
v -0.718969 -0.288381 0.377091
v -0.713753 -0.290832 0.378408
v -0.708628 -0.296192 0.381516
v -0.706760 -0.299765 0.383407
v -0.704567 -0.302270 0.383528
v -0.698992 -0.305704 0.380450
v -0.702257 -0.302813 0.379672
v -0.703932 -0.296815 0.376619
v -0.707289 -0.291333 0.374868
v -0.715563 -0.284117 0.371954
v -0.700801 -0.299559 0.376618
v -0.704650 -0.299339 0.378713
v -0.703060 -0.293178 0.374659
v -0.707059 -0.294504 0.376398
v -0.711841 -0.283578 0.371801
v -0.715349 -0.289495 0.376556
v -0.722580 -0.285573 0.377950
v -0.720119 -0.288656 0.379950
v -0.715725 -0.290262 0.379226
v -0.714646 -0.290900 0.380959
v -0.710448 -0.293842 0.381605
v -0.709643 -0.295021 0.383969
v -0.708435 -0.297340 0.383876
v -0.707444 -0.299395 0.386000
v -0.705571 -0.301752 0.385464
v -0.703355 -0.303430 0.386082
v -0.698974 -0.306155 0.382665
v -0.695651 -0.306209 0.382187
v -0.695673 -0.305657 0.379912
v -0.695288 -0.301714 0.378863
v -0.697382 -0.298671 0.376305
v -0.697734 -0.294834 0.375790
v -0.699741 -0.292061 0.374134
v -0.701169 -0.288273 0.374022
v -0.709603 -0.279728 0.371418
v -0.711411 -0.275488 0.371456
v -0.714592 -0.273492 0.369571
v -0.723020 -0.286715 0.381701
v -0.716925 -0.290769 0.382091
v -0.720264 -0.289483 0.384021
v -0.724561 -0.282977 0.378358
v -0.723227 -0.283643 0.375833
v -0.724535 -0.281095 0.376257
v -0.723055 -0.281395 0.373788
v -0.719387 -0.280922 0.370759
v -0.719866 -0.277034 0.369995
v -0.717124 -0.274419 0.368851
v -0.719415 -0.273137 0.370181
v -0.716803 -0.272354 0.371175
v -0.724880 -0.283720 0.380536
v -0.722113 -0.286751 0.384512
v -0.722960 -0.283896 0.383317
v -0.725181 -0.279956 0.380095
v -0.725483 -0.279201 0.377806
v -0.716033 -0.290844 0.383985
v -0.711567 -0.292245 0.384073
v -0.708923 -0.293313 0.385838
v -0.708506 -0.296252 0.386284
v -0.705368 -0.298183 0.387636
v -0.704559 -0.301373 0.387537
v -0.701911 -0.301338 0.387407
v -0.696978 -0.304840 0.384411
v -0.695657 -0.302251 0.383543
v -0.694548 -0.303459 0.381327
v -0.696201 -0.299026 0.380792
v -0.696644 -0.297326 0.378282
v -0.697742 -0.293709 0.379168
v -0.698882 -0.291316 0.376778
v -0.701248 -0.287711 0.378164
v -0.709280 -0.278343 0.374295
v -0.711664 -0.276746 0.376358
v -0.714145 -0.273937 0.373684
v -0.715840 -0.274677 0.376107
v -0.718507 -0.273257 0.373478
v -0.718887 -0.274875 0.376632
v -0.724152 -0.277618 0.378562
v -0.717684 -0.276439 0.378629
v -0.714702 -0.276591 0.377918
v -0.718199 -0.278347 0.380325
v -0.712796 -0.279534 0.380155
v -0.709749 -0.279491 0.378748
v -0.708134 -0.283298 0.381787
v -0.700414 -0.290781 0.380819
v -0.701044 -0.293418 0.383051
v -0.697222 -0.296351 0.381737
v -0.698017 -0.299319 0.384507
v -0.721575 -0.276166 0.378184
v -0.722068 -0.277790 0.380026
v -0.723058 -0.280216 0.381540
v -0.718749 -0.281881 0.382798
v -0.718980 -0.285437 0.384712
v -0.713886 -0.287766 0.384696
v -0.717581 -0.288951 0.385128
v -0.712703 -0.290704 0.384449
v -0.713762 -0.291457 0.382866
v -0.712030 -0.292354 0.382074
v -0.712738 -0.291742 0.380116
v -0.710827 -0.293124 0.379586
v -0.712177 -0.291413 0.377582
v -0.711367 -0.287242 0.373814
v -0.707536 -0.287761 0.373450
v -0.708162 -0.283929 0.371667
v -0.704364 -0.285800 0.372470
v -0.707172 -0.281940 0.373082
v -0.703600 -0.284688 0.375442
v -0.706953 -0.281520 0.376909
v -0.705369 -0.285176 0.379935
v -0.704519 -0.288251 0.382400
v -0.713746 -0.282581 0.383056
v -0.700843 -0.296125 0.385216
v -0.708755 -0.288125 0.384549
v -0.703487 -0.291685 0.384148
v -0.708127 -0.291429 0.385517
v -0.703651 -0.294437 0.386240
v -0.704840 -0.296099 0.387163
v -0.701262 -0.299316 0.387051
v -0.698866 -0.302400 0.385965
v -0.700612 -0.303865 0.386429
v -0.699356 -0.305828 0.384473
v -0.702554 -0.304094 0.384180
v -0.701949 -0.304110 0.382304
v -0.704923 -0.301009 0.381379
v -0.706981 -0.298400 0.381232
v -0.707043 -0.296783 0.378930
v -0.709071 -0.294626 0.379161
v -0.710118 -0.292726 0.377145
v -0.710881 -0.289839 0.375060
v -0.713656 -0.289563 0.375806
v -0.714212 -0.287288 0.373953
v -0.717832 -0.286612 0.374046
v -0.721474 -0.285000 0.374690
v -0.721270 -0.282704 0.372790
v -0.721090 -0.280428 0.371708
v -0.721907 -0.279718 0.373058
v -0.721033 -0.276291 0.371379
v -0.721182 -0.275558 0.376271
v -0.723795 -0.279300 0.375547
v -0.723714 -0.277232 0.376641
v -0.721713 -0.277474 0.374495
v -0.720065 -0.274686 0.373219
f 1 149 76
f 1 76 183
f 160 114 149
f 160 149 1
f 1 183 110
f 1 110 160
f 2 150 82
f 2 82 185
f 165 118 150
f 165 150 2
f 149 114 165
f 149 165 2
f 2 185 76
f 2 76 149
f 3 151 84
f 3 84 187
f 167 122 151
f 167 151 3
f 150 118 167
f 150 167 3
f 3 187 82
f 3 82 150
f 4 152 83
f 4 83 189
f 169 130 152
f 169 152 4
f 4 189 85
f 4 85 256
f 4 256 126
f 4 126 169
f 152 130 153
f 152 153 5
f 5 153 133
f 5 133 201
f 5 191 83
f 5 83 152
f 201 143 191
f 201 191 5
f 164 132 154
f 164 154 6
f 6 154 134
f 6 134 199
f 6 199 133
f 6 133 153
f 6 153 130
f 6 130 164
f 8 156 125
f 8 125 173
f 170 127 156
f 170 156 8
f 155 131 170
f 155 170 8
f 8 173 129
f 8 129 155
f 10 158 113
f 10 113 177
f 277 116 158
f 277 158 10
f 10 177 117
f 10 117 157
f 157 120 277
f 157 277 10
f 11 159 111
f 11 111 179
f 158 116 159
f 158 159 11
f 11 179 113
f 11 113 158
f 13 162 118
f 13 118 165
f 166 119 162
f 166 162 13
f 161 115 166
f 161 166 13
f 165 114 161
f 165 161 13
f 14 163 122
f 14 122 167
f 168 124 163
f 168 163 14
f 162 119 168
f 162 168 14
f 167 118 162
f 167 162 14
f 16 172 80
f 16 80 192
f 171 129 172
f 171 172 16
f 16 192 78
f 16 78 204
f 16 195 136
f 16 136 171
f 204 137 195
f 204 195 16
f 17 174 81
f 17 81 193
f 173 125 174
f 173 174 17
f 17 193 80
f 17 80 172
f 17 172 129
f 17 129 173
f 18 176 99
f 18 99 210
f 175 117 176
f 175 176 18
f 18 210 95
f 18 95 250
f 18 250 121
f 18 121 175
f 19 178 106
f 19 106 212
f 177 113 178
f 177 178 19
f 19 212 99
f 19 99 176
f 19 176 117
f 19 117 177
f 20 180 108
f 20 108 214
f 179 111 180
f 179 180 20
f 20 214 106
f 20 106 178
f 20 178 113
f 20 113 179
f 21 182 107
f 21 107 216
f 181 110 182
f 181 182 21
f 21 216 109
f 21 109 273
f 21 273 112
f 21 112 181
f 183 76 184
f 183 184 22
f 22 184 77
f 22 77 218
f 22 218 107
f 22 107 182
f 22 182 110
f 22 110 183
f 185 82 186
f 185 186 23
f 23 186 86
f 23 86 220
f 23 220 77
f 23 77 184
f 23 184 76
f 23 76 185
f 187 84 188
f 187 188 24
f 24 188 88
f 24 88 222
f 24 222 86
f 24 86 186
f 24 186 82
f 24 82 187
f 189 83 190
f 189 190 25
f 25 190 87
f 25 87 224
f 25 224 89
f 25 89 258
f 25 258 85
f 25 85 189
f 191 143 203
f 191 203 26
f 26 203 145
f 26 145 226
f 26 226 87
f 26 87 190
f 26 190 83
f 26 83 191
f 27 194 79
f 27 79 205
f 192 80 194
f 192 194 27
f 27 205 78
f 27 78 192
f 28 209 79
f 28 79 194
f 193 81 209
f 193 209 28
f 194 80 193
f 194 193 28
f 29 197 136
f 29 136 195
f 291 141 197
f 291 197 29
f 195 137 208
f 195 208 29
f 29 208 148
f 29 148 291
f 30 198 135
f 30 135 196
f 197 141 198
f 197 198 30
f 30 196 136
f 30 136 197
f 31 200 133
f 31 133 199
f 287 142 200
f 287 200 31
f 199 134 287
f 199 287 31
f 32 202 143
f 32 143 201
f 289 144 202
f 289 202 32
f 200 142 289
f 200 289 32
f 201 133 200
f 201 200 32
f 33 228 145
f 33 145 203
f 294 146 228
f 294 228 33
f 203 143 202
f 203 202 33
f 33 202 144
f 33 144 294
f 204 78 206
f 204 206 34
f 34 206 92
f 34 92 243
f 34 207 137
f 34 137 204
f 243 138 207
f 243 207 34
f 35 245 92
f 35 92 206
f 247 96 245
f 247 245 35
f 205 79 247
f 205 247 35
f 206 78 205
f 206 205 35
f 207 138 230
f 207 230 36
f 36 230 147
f 36 147 292
f 36 292 148
f 36 148 208
f 208 137 207
f 208 207 36
f 210 99 211
f 210 211 37
f 37 211 102
f 37 102 267
f 37 248 95
f 37 95 210
f 246 96 248
f 246 248 37
f 37 267 98
f 37 98 265
f 265 97 246
f 265 246 37
f 38 213 104
f 38 104 269
f 212 106 213
f 212 213 38
f 38 269 102
f 38 102 211
f 38 211 99
f 38 99 212
f 39 215 104
f 39 104 213
f 214 108 215
f 214 215 39
f 39 213 106
f 39 106 214
f 40 217 103
f 40 103 240
f 216 107 217
f 216 217 40
f 240 105 271
f 240 271 40
f 40 271 109
f 40 109 216
f 218 77 219
f 218 219 41
f 41 219 103
f 41 103 217
f 41 217 107
f 41 107 218
f 220 86 221
f 220 221 42
f 42 221 100
f 42 100 239
f 42 239 103
f 42 103 219
f 42 219 77
f 42 77 220
f 222 88 223
f 222 223 43
f 43 223 94
f 43 94 237
f 43 237 100
f 43 100 221
f 43 221 86
f 43 86 222
f 224 87 225
f 224 225 44
f 44 225 90
f 44 90 235
f 44 235 93
f 44 93 260
f 44 260 89
f 44 89 224
f 45 227 139
f 45 139 232
f 226 145 227
f 226 227 45
f 45 232 90
f 45 90 225
f 45 225 87
f 45 87 226
f 46 229 139
f 46 139 227
f 228 146 229
f 228 229 46
f 46 227 145
f 46 145 228
f 47 231 139
f 47 139 229
f 241 140 231
f 241 231 47
f 290 147 241
f 290 241 47
f 229 146 290
f 229 290 47
f 48 233 91
f 48 91 234
f 231 140 233
f 231 233 48
f 48 234 90
f 48 90 232
f 232 139 231
f 232 231 48
f 49 236 93
f 49 93 235
f 263 97 236
f 263 236 49
f 234 91 263
f 234 263 49
f 235 90 234
f 235 234 49
f 50 238 100
f 50 100 237
f 266 101 238
f 266 238 50
f 237 94 262
f 237 262 50
f 50 262 98
f 50 98 266
f 51 240 103
f 51 103 239
f 264 105 240
f 264 240 51
f 238 101 264
f 238 264 51
f 239 100 238
f 239 238 51
f 230 138 242
f 230 242 52
f 52 242 140
f 52 140 241
f 241 147 230
f 241 230 52
f 53 244 91
f 53 91 233
f 243 92 244
f 243 244 53
f 53 233 140
f 53 140 242
f 53 242 138
f 53 138 243
f 245 96 246
f 245 246 54
f 54 246 97
f 54 97 263
f 263 91 244
f 263 244 54
f 54 244 92
f 54 92 245
f 209 81 249
f 209 249 55
f 55 249 95
f 55 95 248
f 247 79 209
f 247 209 55
f 248 96 247
f 248 247 55
f 56 251 121
f 56 121 250
f 174 125 251
f 174 251 56
f 249 81 174
f 249 174 56
f 250 95 249
f 250 249 56
f 57 253 123
f 57 123 252
f 156 127 253
f 156 253 57
f 251 125 156
f 251 156 57
f 252 121 251
f 252 251 57
f 58 255 122
f 58 122 163
f 254 126 255
f 254 255 58
f 163 124 281
f 163 281 58
f 58 281 128
f 58 128 254
f 59 257 84
f 59 84 151
f 256 85 257
f 256 257 59
f 59 151 122
f 59 122 255
f 59 255 126
f 59 126 256
f 60 259 88
f 60 88 188
f 258 89 259
f 258 259 60
f 60 188 84
f 60 84 257
f 60 257 85
f 60 85 258
f 260 93 261
f 260 261 61
f 61 261 94
f 61 94 223
f 61 223 88
f 61 88 259
f 61 259 89
f 61 89 260
f 236 97 265
f 236 265 62
f 62 265 98
f 62 98 262
f 261 93 236
f 261 236 62
f 262 94 261
f 262 261 62
f 63 268 101
f 63 101 266
f 267 102 268
f 267 268 63
f 63 266 98
f 63 98 267
f 269 104 270
f 269 270 64
f 64 270 105
f 64 105 264
f 64 264 101
f 64 101 268
f 64 268 102
f 64 102 269
f 215 108 272
f 215 272 65
f 65 272 109
f 65 109 271
f 270 104 215
f 270 215 65
f 271 105 270
f 271 270 65
f 180 111 274
f 180 274 66
f 66 274 112
f 66 112 273
f 272 108 180
f 272 180 66
f 273 109 272
f 273 272 66
f 67 276 115
f 67 115 275
f 159 116 276
f 159 276 67
f 274 111 159
f 274 159 67
f 275 112 274
f 275 274 67
f 68 278 119
f 68 119 166
f 277 120 278
f 277 278 68
f 68 166 115
f 68 115 276
f 68 276 116
f 68 116 277
f 279 123 280
f 279 280 69
f 69 280 124
f 69 124 168
f 69 168 119
f 69 119 278
f 69 278 120
f 69 120 279
f 253 127 282
f 253 282 70
f 70 282 128
f 70 128 281
f 280 123 253
f 280 253 70
f 281 124 280
f 281 280 70
f 170 131 284
f 170 284 71
f 71 284 132
f 71 132 283
f 282 127 170
f 282 170 71
f 283 128 282
f 283 282 71
f 72 286 134
f 72 134 154
f 285 135 286
f 285 286 72
f 72 154 132
f 72 132 284
f 72 284 131
f 72 131 285
f 198 141 288
f 198 288 73
f 73 288 142
f 73 142 287
f 286 135 198
f 286 198 73
f 287 134 286
f 287 286 73
f 288 141 291
f 288 291 74
f 74 291 148
f 74 148 293
f 74 293 144
f 74 144 289
f 289 142 288
f 289 288 74
f 75 294 144
f 75 144 293
f 290 146 294
f 290 294 75
f 292 147 290
f 292 290 75
f 293 148 292
f 293 292 75
f 110 181 12
f 110 12 160
f 275 12 181
f 275 181 112
f 114 160 12
f 114 12 161
f 115 161 12
f 115 12 275
f 175 9 157
f 175 157 117
f 120 157 9
f 120 9 279
f 252 9 175
f 252 175 121
f 123 279 9
f 123 9 252
f 254 15 169
f 254 169 126
f 283 15 254
f 283 254 128
f 171 7 155
f 171 155 129
f 130 169 15
f 130 15 164
f 131 155 7
f 131 7 285
f 132 164 15
f 132 15 283
f 135 285 7
f 135 7 196
f 136 196 7
f 136 7 171
