# Scaphoid_R rest
v -0.708826 0.039427 -0.063439
v -0.708615 0.037284 -0.058015
v -0.709727 0.036503 -0.052359
v -0.715119 0.033242 -0.044702
v -0.718064 0.031120 -0.040352
v -0.719799 0.030876 -0.047631
v -0.724061 0.034421 -0.051759
v -0.720229 0.037137 -0.054088
v -0.717391 0.040216 -0.056589
v -0.716923 0.042231 -0.059189
v -0.715909 0.044046 -0.061928
v -0.711607 0.041884 -0.063904
v -0.712010 0.037781 -0.059549
v -0.712776 0.036386 -0.054837
v -0.717123 0.033791 -0.049682
v -0.725932 0.037508 -0.052097
v -0.721563 0.039362 -0.054591
v -0.719183 0.042645 -0.055791
v -0.718496 0.045187 -0.058500
v -0.716521 0.046918 -0.062128
v -0.710224 0.044396 -0.064277
v -0.708015 0.041771 -0.062552
v -0.708066 0.039055 -0.056359
v -0.708859 0.038231 -0.051145
v -0.715425 0.035899 -0.042162
v -0.718678 0.033805 -0.038569
v -0.727290 0.041474 -0.053718
v -0.724046 0.042193 -0.055309
v -0.726683 0.035871 -0.047776
v -0.724767 0.033950 -0.048875
v -0.721164 0.030907 -0.046045
v -0.720375 0.030583 -0.041026
v -0.721044 0.033406 -0.039350
v -0.728119 0.039700 -0.049127
v -0.726881 0.043184 -0.052089
v -0.727034 0.037519 -0.046103
v -0.720093 0.045468 -0.053446
v -0.718215 0.048004 -0.057250
v -0.715839 0.049039 -0.060386
v -0.710961 0.047070 -0.060775
v -0.708699 0.044008 -0.059194
v -0.709054 0.042549 -0.055119
v -0.710253 0.042591 -0.050509
v -0.716835 0.039895 -0.041877
v -0.719749 0.039315 -0.040726
v -0.721964 0.037715 -0.040422
v -0.723752 0.039013 -0.042142
v -0.721646 0.041374 -0.043041
v -0.718873 0.044029 -0.044682
v -0.713850 0.045603 -0.051412
v -0.712127 0.046459 -0.055208
v -0.725993 0.038815 -0.044191
v -0.725493 0.041238 -0.045553
v -0.723966 0.044511 -0.049727
v -0.721959 0.043734 -0.054483
v -0.720040 0.041045 -0.054885
v -0.718437 0.038425 -0.054845
v -0.715212 0.035341 -0.051280
v -0.712408 0.035202 -0.048474
v -0.711732 0.037123 -0.046451
v -0.713282 0.041591 -0.046116
v -0.716618 0.045498 -0.047712
v -0.716430 0.047934 -0.053557
v -0.715164 0.048943 -0.056485
v -0.713537 0.048589 -0.061117
v -0.713383 0.046146 -0.063753
v -0.714051 0.042629 -0.062729
v -0.714768 0.039564 -0.059619
v -0.715626 0.037757 -0.056444
v -0.717472 0.036197 -0.053839
v -0.719154 0.034553 -0.052632
v -0.721836 0.032143 -0.050260
v -0.722565 0.031832 -0.047693
v -0.723040 0.034088 -0.045118
v -0.723452 0.036055 -0.043356
v -0.707658 0.039347 -0.060099
v -0.708309 0.041874 -0.058273
v -0.727895 0.040511 -0.051991
v -0.725271 0.043168 -0.054552
v -0.724961 0.039679 -0.054642
v -0.721857 0.041578 -0.055000
v -0.708430 0.037588 -0.054461
v -0.716159 0.033217 -0.041204
v -0.710335 0.036339 -0.049562
v -0.713373 0.035287 -0.045172
v -0.708790 0.040715 -0.053233
v -0.717330 0.037563 -0.040170
v -0.710604 0.039972 -0.048265
v -0.714325 0.038640 -0.044084
v -0.719295 0.041372 -0.042364
v -0.722549 0.042874 -0.045686
v -0.726385 0.042417 -0.048969
v -0.716231 0.042920 -0.044939
v -0.713511 0.043818 -0.048940
v -0.720432 0.043266 -0.054984
v -0.723317 0.044753 -0.052538
v -0.720214 0.046148 -0.048805
v -0.716522 0.047026 -0.051201
v -0.719190 0.045340 -0.056352
v -0.710970 0.044944 -0.052847
v -0.714304 0.047346 -0.054123
v -0.717806 0.048019 -0.055113
v -0.709726 0.045263 -0.057437
v -0.715733 0.049186 -0.058805
v -0.712645 0.048146 -0.058332
v -0.718096 0.047650 -0.059844
v -0.708858 0.044697 -0.061832
v -0.714993 0.048171 -0.062355
v -0.711791 0.046964 -0.062745
v -0.709439 0.041830 -0.064311
v -0.715104 0.044864 -0.062853
v -0.712453 0.043681 -0.063996
v -0.717204 0.044485 -0.060586
v -0.710558 0.038039 -0.061613
v -0.713444 0.040188 -0.061788
v -0.715527 0.042008 -0.060973
v -0.717970 0.042566 -0.057462
v -0.710797 0.036760 -0.056227
v -0.713934 0.037581 -0.057799
v -0.716202 0.039960 -0.057914
v -0.718733 0.040596 -0.055488
v -0.712549 0.035847 -0.051741
v -0.717215 0.038126 -0.055413
v -0.715296 0.035940 -0.054266
v -0.720045 0.039026 -0.054472
v -0.714914 0.034429 -0.048516
v -0.718793 0.036542 -0.053872
v -0.717213 0.034806 -0.051899
v -0.723156 0.036807 -0.053914
v -0.717015 0.031856 -0.045754
v -0.721289 0.034127 -0.052740
v -0.719356 0.032614 -0.050194
v -0.720265 0.030202 -0.043876
v -0.721405 0.031265 -0.048034
v -0.723612 0.032805 -0.049735
v -0.725453 0.035372 -0.050162
v -0.727758 0.037250 -0.048768
v -0.727076 0.039404 -0.046033
v -0.721903 0.039566 -0.041305
v -0.724450 0.040375 -0.043424
v -0.724282 0.033933 -0.047369
v -0.721598 0.031988 -0.045000
v -0.719683 0.031685 -0.039123
v -0.722242 0.033492 -0.042161
v -0.720575 0.036160 -0.039242
v -0.722705 0.036505 -0.041259
v -0.725356 0.037689 -0.043670
v -0.725115 0.035763 -0.045513
v -0.708314 0.037961 -0.060861
v -0.709118 0.036820 -0.055190
v -0.711087 0.035916 -0.050410
v -0.716535 0.032029 -0.042459
v -0.718700 0.030133 -0.044076
v -0.720832 0.031464 -0.048966
v -0.722223 0.035486 -0.053518
v -0.719297 0.037827 -0.054325
v -0.717078 0.041254 -0.057869
v -0.716448 0.043088 -0.060639
v -0.714992 0.043331 -0.062342
v -0.710328 0.040540 -0.064005
v -0.712231 0.039392 -0.062238
v -0.712393 0.037075 -0.057196
v -0.713984 0.035811 -0.053067
v -0.718358 0.032297 -0.048739
v -0.710381 0.037211 -0.058875
v -0.713511 0.038481 -0.059700
v -0.711241 0.036308 -0.053623
v -0.714309 0.036600 -0.055911
v -0.716042 0.033384 -0.047245
v -0.719666 0.035751 -0.053544
v -0.724964 0.035968 -0.051936
v -0.724067 0.038019 -0.054077
v -0.720874 0.038252 -0.054335
v -0.720834 0.040244 -0.054627
v -0.718328 0.041425 -0.056200
v -0.718673 0.043968 -0.057074
v -0.717776 0.043680 -0.058870
v -0.717821 0.045979 -0.060485
v -0.716308 0.045448 -0.062131
v -0.715005 0.046544 -0.063067
v -0.710994 0.043093 -0.064402
v -0.708828 0.043255 -0.063595
v -0.708180 0.040606 -0.063112
v -0.707748 0.040450 -0.059411
v -0.708165 0.038100 -0.057143
v -0.708274 0.038658 -0.053709
v -0.709021 0.037139 -0.051705
v -0.710041 0.037677 -0.048640
v -0.714904 0.034537 -0.043211
v -0.716534 0.034870 -0.039958
v -0.718096 0.032245 -0.039104
v -0.726807 0.039276 -0.053128
v -0.722764 0.040755 -0.055134
v -0.725838 0.041937 -0.054902
v -0.726496 0.036419 -0.050105
v -0.724594 0.034134 -0.050351
v -0.725614 0.034918 -0.048347
v -0.723735 0.032758 -0.048247
v -0.720500 0.030702 -0.046913
v -0.720766 0.030744 -0.043539
v -0.719193 0.030637 -0.040589
v -0.721028 0.031811 -0.039980
v -0.720030 0.033619 -0.038626
v -0.727665 0.038206 -0.050908
v -0.727448 0.042382 -0.052945
v -0.727634 0.041553 -0.050570
v -0.727829 0.038640 -0.047551
v -0.726964 0.036626 -0.046888
v -0.722960 0.043006 -0.054976
v -0.720061 0.044166 -0.055055
v -0.719037 0.046657 -0.055348
v -0.718777 0.046631 -0.057911
v -0.717170 0.048766 -0.058846
v -0.716405 0.048303 -0.061522
v -0.714669 0.048968 -0.060792
v -0.710371 0.046009 -0.062679
v -0.709425 0.045839 -0.059983
v -0.708061 0.042994 -0.060821
v -0.709000 0.043234 -0.057183
v -0.708439 0.040835 -0.055726
v -0.709523 0.042646 -0.052703
v -0.709463 0.040433 -0.050807
v -0.711635 0.042201 -0.048173
v -0.715890 0.037963 -0.041877
v -0.718304 0.039708 -0.041094
v -0.719134 0.036742 -0.039278
v -0.720930 0.038661 -0.040344
v -0.721605 0.035564 -0.039769
v -0.722859 0.038365 -0.041280
v -0.726572 0.038156 -0.045108
v -0.722828 0.040346 -0.042383
v -0.720743 0.040459 -0.041745
v -0.723665 0.041476 -0.044233
v -0.720193 0.042678 -0.043885
v -0.717789 0.042161 -0.043045
v -0.717661 0.044943 -0.046059
v -0.711928 0.044470 -0.050759
v -0.713012 0.045991 -0.053343
v -0.710017 0.044880 -0.054999
v -0.711343 0.047066 -0.057928
v -0.724965 0.038880 -0.043127
v -0.725972 0.040108 -0.044751
v -0.727112 0.040667 -0.047232
v -0.724789 0.042958 -0.047586
v -0.725536 0.043981 -0.050891
v -0.722071 0.045141 -0.051621
v -0.724566 0.044109 -0.053694
v -0.721019 0.044583 -0.053961
v -0.721008 0.042394 -0.054911
v -0.719557 0.041848 -0.055261
v -0.719271 0.039700 -0.054884
v -0.717834 0.039320 -0.055641
v -0.717989 0.037252 -0.054437
v -0.716258 0.034671 -0.050421
v -0.713763 0.035264 -0.049874
v -0.713760 0.034216 -0.046589
v -0.711606 0.035718 -0.047260
v -0.713806 0.036512 -0.044525
v -0.712278 0.039389 -0.046050
v -0.715139 0.040681 -0.044098
v -0.715028 0.043446 -0.046986
v -0.715246 0.045549 -0.049566
v -0.721719 0.044649 -0.046901
v -0.713535 0.047829 -0.055770
v -0.718762 0.046529 -0.050595
v -0.715057 0.046900 -0.052424
v -0.718525 0.046992 -0.053427
v -0.715792 0.048522 -0.054986
v -0.716790 0.048819 -0.056815
v -0.714264 0.049141 -0.058788
v -0.712186 0.047907 -0.060953
v -0.713344 0.047704 -0.062738
v -0.711803 0.045294 -0.064192
v -0.713838 0.044333 -0.063466
v -0.712855 0.042234 -0.063331
v -0.714545 0.040995 -0.061294
v -0.715874 0.040861 -0.059454
v -0.715145 0.038708 -0.057992
v -0.716544 0.038958 -0.056552
v -0.716517 0.037017 -0.055094
v -0.716318 0.035394 -0.052660
v -0.718324 0.035446 -0.053151
v -0.718079 0.033957 -0.051235
v -0.720434 0.033124 -0.051615
v -0.723041 0.033096 -0.051139
v -0.722272 0.031831 -0.048998
v -0.721833 0.031409 -0.046876
v -0.722748 0.032891 -0.046383
v -0.721871 0.032213 -0.043095
v -0.723909 0.037328 -0.042440
v -0.724855 0.035020 -0.046474
v -0.725400 0.036634 -0.044586
v -0.723243 0.035080 -0.044254
v -0.722124 0.034747 -0.041382
f 183 76 149
f 183 149 1
f 1 149 114
f 1 114 160
f 160 110 183
f 160 183 1
f 185 82 150
f 185 150 2
f 2 150 118
f 2 118 165
f 2 165 114
f 2 114 149
f 149 76 185
f 149 185 2
f 187 84 151
f 187 151 3
f 3 151 122
f 3 122 167
f 3 167 118
f 3 118 150
f 150 82 187
f 150 187 3
f 189 83 152
f 189 152 4
f 4 152 130
f 4 130 169
f 256 85 189
f 256 189 4
f 169 126 256
f 169 256 4
f 5 153 130
f 5 130 152
f 201 133 153
f 201 153 5
f 152 83 191
f 152 191 5
f 5 191 143
f 5 143 201
f 6 154 132
f 6 132 164
f 199 134 154
f 199 154 6
f 153 133 199
f 153 199 6
f 164 130 153
f 164 153 6
f 173 125 156
f 173 156 8
f 8 156 127
f 8 127 170
f 8 170 131
f 8 131 155
f 155 129 173
f 155 173 8
f 177 113 158
f 177 158 10
f 10 158 116
f 10 116 277
f 157 117 177
f 157 177 10
f 10 277 120
f 10 120 157
f 179 111 159
f 179 159 11
f 11 159 116
f 11 116 158
f 158 113 179
f 158 179 11
f 165 118 162
f 165 162 13
f 13 162 119
f 13 119 166
f 13 166 115
f 13 115 161
f 13 161 114
f 13 114 165
f 167 122 163
f 167 163 14
f 14 163 124
f 14 124 168
f 14 168 119
f 14 119 162
f 14 162 118
f 14 118 167
f 192 80 172
f 192 172 16
f 16 172 129
f 16 129 171
f 204 78 192
f 204 192 16
f 171 136 195
f 171 195 16
f 16 195 137
f 16 137 204
f 193 81 174
f 193 174 17
f 17 174 125
f 17 125 173
f 172 80 193
f 172 193 17
f 173 129 172
f 173 172 17
f 210 99 176
f 210 176 18
f 18 176 117
f 18 117 175
f 250 95 210
f 250 210 18
f 175 121 250
f 175 250 18
f 212 106 178
f 212 178 19
f 19 178 113
f 19 113 177
f 176 99 212
f 176 212 19
f 177 117 176
f 177 176 19
f 214 108 180
f 214 180 20
f 20 180 111
f 20 111 179
f 178 106 214
f 178 214 20
f 179 113 178
f 179 178 20
f 216 107 182
f 216 182 21
f 21 182 110
f 21 110 181
f 273 109 216
f 273 216 21
f 181 112 273
f 181 273 21
f 22 184 76
f 22 76 183
f 218 77 184
f 218 184 22
f 182 107 218
f 182 218 22
f 183 110 182
f 183 182 22
f 23 186 82
f 23 82 185
f 220 86 186
f 220 186 23
f 184 77 220
f 184 220 23
f 185 76 184
f 185 184 23
f 24 188 84
f 24 84 187
f 222 88 188
f 222 188 24
f 186 86 222
f 186 222 24
f 187 82 186
f 187 186 24
f 25 190 83
f 25 83 189
f 224 87 190
f 224 190 25
f 258 89 224
f 258 224 25
f 189 85 258
f 189 258 25
f 26 203 143
f 26 143 191
f 226 145 203
f 226 203 26
f 190 87 226
f 190 226 26
f 191 83 190
f 191 190 26
f 205 79 194
f 205 194 27
f 27 194 80
f 27 80 192
f 192 78 205
f 192 205 27
f 194 79 209
f 194 209 28
f 28 209 81
f 28 81 193
f 28 193 80
f 28 80 194
f 195 136 197
f 195 197 29
f 29 197 141
f 29 141 291
f 29 208 137
f 29 137 195
f 291 148 208
f 291 208 29
f 196 135 198
f 196 198 30
f 30 198 141
f 30 141 197
f 197 136 196
f 197 196 30
f 199 133 200
f 199 200 31
f 31 200 142
f 31 142 287
f 31 287 134
f 31 134 199
f 201 143 202
f 201 202 32
f 32 202 144
f 32 144 289
f 32 289 142
f 32 142 200
f 32 200 133
f 32 133 201
f 203 145 228
f 203 228 33
f 33 228 146
f 33 146 294
f 33 202 143
f 33 143 203
f 294 144 202
f 294 202 33
f 34 206 78
f 34 78 204
f 243 92 206
f 243 206 34
f 204 137 207
f 204 207 34
f 34 207 138
f 34 138 243
f 206 92 245
f 206 245 35
f 35 245 96
f 35 96 247
f 35 247 79
f 35 79 205
f 35 205 78
f 35 78 206
f 36 230 138
f 36 138 207
f 292 147 230
f 292 230 36
f 208 148 292
f 208 292 36
f 36 207 137
f 36 137 208
f 37 211 99
f 37 99 210
f 267 102 211
f 267 211 37
f 210 95 248
f 210 248 37
f 37 248 96
f 37 96 246
f 265 98 267
f 265 267 37
f 37 246 97
f 37 97 265
f 269 104 213
f 269 213 38
f 38 213 106
f 38 106 212
f 211 102 269
f 211 269 38
f 212 99 211
f 212 211 38
f 213 104 215
f 213 215 39
f 39 215 108
f 39 108 214
f 214 106 213
f 214 213 39
f 240 103 217
f 240 217 40
f 40 217 107
f 40 107 216
f 40 271 105
f 40 105 240
f 216 109 271
f 216 271 40
f 41 219 77
f 41 77 218
f 217 103 219
f 217 219 41
f 218 107 217
f 218 217 41
f 42 221 86
f 42 86 220
f 239 100 221
f 239 221 42
f 219 103 239
f 219 239 42
f 220 77 219
f 220 219 42
f 43 223 88
f 43 88 222
f 237 94 223
f 237 223 43
f 221 100 237
f 221 237 43
f 222 86 221
f 222 221 43
f 44 225 87
f 44 87 224
f 235 90 225
f 235 225 44
f 260 93 235
f 260 235 44
f 224 89 260
f 224 260 44
f 232 139 227
f 232 227 45
f 45 227 145
f 45 145 226
f 225 90 232
f 225 232 45
f 226 87 225
f 226 225 45
f 227 139 229
f 227 229 46
f 46 229 146
f 46 146 228
f 228 145 227
f 228 227 46
f 229 139 231
f 229 231 47
f 47 231 140
f 47 140 241
f 47 241 147
f 47 147 290
f 47 290 146
f 47 146 229
f 234 91 233
f 234 233 48
f 48 233 140
f 48 140 231
f 232 90 234
f 232 234 48
f 48 231 139
f 48 139 232
f 235 93 236
f 235 236 49
f 49 236 97
f 49 97 263
f 49 263 91
f 49 91 234
f 49 234 90
f 49 90 235
f 237 100 238
f 237 238 50
f 50 238 101
f 50 101 266
f 50 262 94
f 50 94 237
f 266 98 262
f 266 262 50
f 239 103 240
f 239 240 51
f 51 240 105
f 51 105 264
f 51 264 101
f 51 101 238
f 51 238 100
f 51 100 239
f 52 242 138
f 52 138 230
f 241 140 242
f 241 242 52
f 52 230 147
f 52 147 241
f 233 91 244
f 233 244 53
f 53 244 92
f 53 92 243
f 242 140 233
f 242 233 53
f 243 138 242
f 243 242 53
f 54 246 96
f 54 96 245
f 263 97 246
f 263 246 54
f 54 244 91
f 54 91 263
f 245 92 244
f 245 244 54
f 55 249 81
f 55 81 209
f 248 95 249
f 248 249 55
f 55 209 79
f 55 79 247
f 55 247 96
f 55 96 248
f 250 121 251
f 250 251 56
f 56 251 125
f 56 125 174
f 56 174 81
f 56 81 249
f 56 249 95
f 56 95 250
f 252 123 253
f 252 253 57
f 57 253 127
f 57 127 156
f 57 156 125
f 57 125 251
f 57 251 121
f 57 121 252
f 163 122 255
f 163 255 58
f 58 255 126
f 58 126 254
f 58 281 124
f 58 124 163
f 254 128 281
f 254 281 58
f 151 84 257
f 151 257 59
f 59 257 85
f 59 85 256
f 255 122 151
f 255 151 59
f 256 126 255
f 256 255 59
f 188 88 259
f 188 259 60
f 60 259 89
f 60 89 258
f 257 84 188
f 257 188 60
f 258 85 257
f 258 257 60
f 61 261 93
f 61 93 260
f 223 94 261
f 223 261 61
f 259 88 223
f 259 223 61
f 260 89 259
f 260 259 61
f 62 265 97
f 62 97 236
f 262 98 265
f 262 265 62
f 62 236 93
f 62 93 261
f 62 261 94
f 62 94 262
f 266 101 268
f 266 268 63
f 63 268 102
f 63 102 267
f 267 98 266
f 267 266 63
f 64 270 104
f 64 104 269
f 264 105 270
f 264 270 64
f 268 101 264
f 268 264 64
f 269 102 268
f 269 268 64
f 65 272 108
f 65 108 215
f 271 109 272
f 271 272 65
f 65 215 104
f 65 104 270
f 65 270 105
f 65 105 271
f 66 274 111
f 66 111 180
f 273 112 274
f 273 274 66
f 66 180 108
f 66 108 272
f 66 272 109
f 66 109 273
f 275 115 276
f 275 276 67
f 67 276 116
f 67 116 159
f 67 159 111
f 67 111 274
f 67 274 112
f 67 112 275
f 166 119 278
f 166 278 68
f 68 278 120
f 68 120 277
f 276 115 166
f 276 166 68
f 277 116 276
f 277 276 68
f 69 280 123
f 69 123 279
f 168 124 280
f 168 280 69
f 278 119 168
f 278 168 69
f 279 120 278
f 279 278 69
f 70 282 127
f 70 127 253
f 281 128 282
f 281 282 70
f 70 253 123
f 70 123 280
f 70 280 124
f 70 124 281
f 71 284 131
f 71 131 170
f 283 132 284
f 283 284 71
f 71 170 127
f 71 127 282
f 71 282 128
f 71 128 283
f 154 134 286
f 154 286 72
f 72 286 135
f 72 135 285
f 284 132 154
f 284 154 72
f 285 131 284
f 285 284 72
f 73 288 141
f 73 141 198
f 287 142 288
f 287 288 73
f 73 198 135
f 73 135 286
f 73 286 134
f 73 134 287
f 74 291 141
f 74 141 288
f 293 148 291
f 293 291 74
f 289 144 293
f 289 293 74
f 74 288 142
f 74 142 289
f 293 144 294
f 293 294 75
f 75 294 146
f 75 146 290
f 75 290 147
f 75 147 292
f 75 292 148
f 75 148 293
f 160 12 181
f 160 181 110
f 112 181 12
f 112 12 275
f 161 12 160
f 161 160 114
f 275 12 161
f 275 161 115
f 117 157 9
f 117 9 175
f 279 9 157
f 279 157 120
f 121 175 9
f 121 9 252
f 252 9 279
f 252 279 123
f 126 169 15
f 126 15 254
f 128 254 15
f 128 15 283
f 129 155 7
f 129 7 171
f 164 15 169
f 164 169 130
f 285 7 155
f 285 155 131
f 283 15 164
f 283 164 132
f 196 7 285
f 196 285 135
f 171 7 196
f 171 196 136
