# Scapula_R rest
v -0.106995 0.100572 -0.088902
v -0.110667 0.094354 -0.095785
v -0.113640 0.092872 -0.090564
v -0.111689 0.095974 -0.086484
v -0.106450 0.104282 -0.081706
v -0.111209 0.098013 -0.081609
v -0.108833 0.104954 -0.074451
v -0.112200 0.098428 -0.076772
v -0.110427 0.105117 -0.067491
v -0.115311 0.096522 -0.073214
v -0.119269 0.096326 -0.068471
v -0.112784 0.104856 -0.060394
v -0.117478 0.105196 -0.054380
v -0.125316 0.097431 -0.063886
v -0.119696 0.087365 -0.092884
v -0.116198 0.086444 -0.100704
v -0.121434 0.079607 -0.104113
v -0.125475 0.081577 -0.095686
v -0.134423 0.068177 -0.097961
v -0.129217 0.067058 -0.106553
v -0.139389 0.060542 -0.098461
v -0.133792 0.058102 -0.106383
v -0.145283 0.051886 -0.098744
v -0.139025 0.048123 -0.106045
v -0.150980 0.043155 -0.098817
v -0.145068 0.038898 -0.105795
v -0.156294 0.033788 -0.098498
v -0.151182 0.029893 -0.104928
v -0.160986 0.025444 -0.097261
v -0.156919 0.021395 -0.102812
v -0.161132 0.015360 -0.101184
v -0.164208 0.019114 -0.096189
v -0.165314 0.010122 -0.099563
v -0.166693 0.013975 -0.095566
v -0.170326 0.011789 -0.093124
v -0.170988 0.005491 -0.097285
v -0.175098 0.012209 -0.090127
v -0.178345 0.006259 -0.093859
v -0.178770 0.015278 -0.087800
v -0.182840 0.013440 -0.088157
v -0.179703 0.021584 -0.085676
v -0.184615 0.021741 -0.083757
v -0.177125 0.029578 -0.084103
v -0.181130 0.029931 -0.081860
v -0.173962 0.036859 -0.082000
v -0.178641 0.036135 -0.079563
v -0.170964 0.045854 -0.078626
v -0.177060 0.043000 -0.075436
v -0.169420 0.056614 -0.073967
v -0.175318 0.054207 -0.068513
v -0.168836 0.065260 -0.068081
v -0.174202 0.062958 -0.062480
v -0.166677 0.072216 -0.062314
v -0.171782 0.069156 -0.055785
v -0.163438 0.079336 -0.054715
v -0.167712 0.075223 -0.046396
v -0.159430 0.086211 -0.048467
v -0.162079 0.079994 -0.035200
v -0.152959 0.085896 -0.028432
v -0.156600 0.088174 -0.043469
v -0.144609 0.091953 -0.025221
v -0.152522 0.092444 -0.043867
v -0.135841 0.097433 -0.027781
v -0.145771 0.097854 -0.042774
v -0.136710 0.101920 -0.040387
v -0.142943 0.099690 -0.047735
v -0.131736 0.102950 -0.044783
v -0.139012 0.099105 -0.053137
v -0.124560 0.105194 -0.047760
v -0.133842 0.098024 -0.059536
v -0.151374 0.102068 -0.016006
v -0.154671 0.104894 -0.020826
v -0.157101 0.100037 -0.019937
v -0.155502 0.098037 -0.017218
v -0.162092 0.103620 -0.026685
v -0.161924 0.098467 -0.023994
v -0.168841 0.100189 -0.029813
v -0.167479 0.096654 -0.026323
v -0.173488 0.096552 -0.028800
v -0.170808 0.095015 -0.026035
v -0.175705 0.091505 -0.026593
v -0.170952 0.091941 -0.023792
v -0.170758 0.083517 -0.015825
v -0.168539 0.085841 -0.016807
v -0.163672 0.082077 -0.010814
v -0.163942 0.085197 -0.014299
v -0.157633 0.085413 -0.009435
v -0.158983 0.087179 -0.012905
v -0.153750 0.090855 -0.011043
v -0.155695 0.091043 -0.013157
v -0.154816 0.094658 -0.014690
v -0.150965 0.097845 -0.012120
v -0.159572 0.089891 -0.017440
v -0.160561 0.093586 -0.021334
v -0.164701 0.088328 -0.019266
v -0.165816 0.092058 -0.023086
v -0.169928 0.088416 -0.020224
v -0.174452 0.087088 -0.021711
v -0.162186 0.080513 -0.014733
v -0.170149 0.081718 -0.019840
v -0.174926 0.085462 -0.026238
v -0.176039 0.091081 -0.031949
v -0.173120 0.096359 -0.033803
v -0.166592 0.100232 -0.034137
v -0.158912 0.104894 -0.031015
v -0.151705 0.104980 -0.023542
v -0.148044 0.102282 -0.017128
v -0.147981 0.097928 -0.013181
v -0.151252 0.090172 -0.013061
v -0.155810 0.083921 -0.012181
v -0.147441 0.091934 -0.019180
v -0.154229 0.086268 -0.020696
v -0.161431 0.082727 -0.023779
v -0.169749 0.081394 -0.036335
v -0.172770 0.077282 -0.046532
v -0.169337 0.083424 -0.027699
v -0.176396 0.071024 -0.056662
v -0.179488 0.064804 -0.064418
v -0.181056 0.056436 -0.070719
v -0.181187 0.044749 -0.078515
v -0.138667 0.095516 -0.018564
v -0.133208 0.094686 -0.017100
v -0.129445 0.098298 -0.021512
v -0.129042 0.098443 -0.015555
v -0.131878 0.095159 -0.014501
v -0.132912 0.100723 -0.030909
v -0.128596 0.100120 -0.025047
v -0.128884 0.100648 -0.016823
v -0.135689 0.094770 -0.018333
v -0.131207 0.097402 -0.024450
v -0.130380 0.099671 -0.028539
v -0.132495 0.106664 -0.025688
v -0.130719 0.107169 -0.024644
v -0.133112 0.107446 -0.018174
v -0.145522 0.098343 -0.013917
v -0.145097 0.103037 -0.017758
v -0.147698 0.105755 -0.025191
v -0.151433 0.106286 -0.031006
v -0.141326 0.100786 -0.011809
v -0.141087 0.105542 -0.017867
v -0.141855 0.106991 -0.028150
v -0.146371 0.105633 -0.033002
v -0.135068 0.107638 -0.019190
v -0.137817 0.105295 -0.011140
v -0.135108 0.105102 -0.009964
v -0.175551 0.085788 -0.024196
v -0.176819 0.091164 -0.029866
v -0.174075 0.096682 -0.032042
v -0.138136 0.095383 -0.004433
v -0.140958 0.103514 -0.004910
v -0.138187 0.104328 -0.003870
v -0.130318 0.098724 -0.008707
v -0.168116 0.100663 -0.032765
v -0.132334 0.097023 -0.002361
v -0.131933 0.092984 -0.002855
v -0.160375 0.105013 -0.029419
v -0.129909 0.095239 -0.008984
v -0.132906 0.093443 -0.009723
v -0.152591 0.105668 -0.022285
v -0.135380 0.092160 -0.003914
v -0.148808 0.102799 -0.016263
v -0.148560 0.098203 -0.012069
v -0.171015 0.081871 -0.017617
v -0.162957 0.080455 -0.012200
v -0.144060 0.100666 0.001926
v -0.140888 0.101393 0.002143
v -0.136138 0.094883 0.003328
v -0.136004 0.091657 0.003331
v -0.156310 0.084065 -0.010094
v -0.139235 0.091131 0.002198
v -0.142409 0.093826 0.001796
v -0.151813 0.090287 -0.011430
v -0.135837 0.094192 -0.010605
v -0.139925 0.103519 -0.011027
v -0.138355 0.097382 -0.011664
v -0.138051 0.098925 0.002618
v -0.157171 0.062757 -0.080768
v -0.134982 0.101482 -0.003069
v -0.153541 0.061863 -0.084882
v -0.132131 0.102530 -0.009064
v -0.130074 0.105211 -0.017167
v -0.128309 0.105683 -0.026179
v -0.130275 0.105359 -0.028390
v -0.144173 0.097331 0.001783
v -0.155523 0.067206 -0.078312
v -0.139359 0.099276 -0.005317
v -0.137722 0.107029 -0.018746
v -0.136000 0.105972 -0.027095
v -0.136288 0.103584 -0.034367
v -0.142820 0.103828 -0.037489
v -0.133204 0.103566 -0.030651
v -0.135474 0.102154 -0.035323
v -0.137120 0.103236 -0.041055
v -0.131353 0.104415 -0.044831
v -0.124546 0.106459 -0.047799
v -0.117114 0.106989 -0.053580
v -0.112754 0.106683 -0.059758
v -0.110584 0.106907 -0.066929
v -0.109256 0.106636 -0.074277
v -0.107124 0.105774 -0.082283
v -0.107767 0.101710 -0.089865
v -0.111360 0.095356 -0.097125
v -0.116820 0.087343 -0.102841
v -0.122307 0.080709 -0.106379
v -0.129685 0.067602 -0.108396
v -0.134216 0.058899 -0.108299
v -0.139547 0.048509 -0.108161
v -0.146086 0.039482 -0.107570
v -0.152529 0.029891 -0.106524
v -0.158000 0.021334 -0.105087
v -0.162375 0.015590 -0.103974
v -0.167284 0.010092 -0.102298
v -0.172604 0.005945 -0.099758
v -0.179098 0.006973 -0.096270
v -0.183942 0.014195 -0.090126
v -0.185745 0.021906 -0.085138
v -0.183124 0.031290 -0.084176
v -0.181926 0.037874 -0.082245
v -0.140853 0.103195 -0.043235
v -0.134788 0.102649 -0.049094
v -0.129351 0.102974 -0.053306
v -0.123134 0.102969 -0.058530
v -0.118846 0.100903 -0.064853
v -0.116482 0.099041 -0.070792
v -0.114583 0.099193 -0.077795
v -0.112340 0.100343 -0.082619
v -0.113778 0.097303 -0.087046
v -0.118087 0.091852 -0.093907
v -0.122613 0.087833 -0.098717
v -0.127507 0.085295 -0.103780
v -0.124989 0.082515 -0.105592
v -0.126126 0.086526 -0.102376
v -0.123579 0.084951 -0.104169
v -0.127078 0.080397 -0.105552
v -0.128992 0.083688 -0.103659
v -0.131306 0.090660 -0.098462
v -0.129742 0.091218 -0.097078
v -0.132336 0.089460 -0.098869
v -0.131787 0.097587 -0.092768
v -0.134333 0.096675 -0.094918
v -0.136874 0.094069 -0.095947
v -0.133128 0.103453 -0.090688
v -0.136597 0.101776 -0.093369
v -0.139482 0.110337 -0.089229
v -0.135945 0.110962 -0.087074
v -0.143295 0.108018 -0.089055
v -0.139627 0.098074 -0.094305
v -0.134420 0.107324 -0.089204
v -0.138564 0.106150 -0.091801
v -0.142041 0.102831 -0.092298
v -0.144962 0.113972 -0.081487
v -0.142515 0.115755 -0.081830
v -0.140116 0.115805 -0.080260
v -0.146050 0.119211 -0.075155
v -0.144164 0.119071 -0.073791
v -0.147678 0.117886 -0.074992
v -0.148795 0.123050 -0.068691
v -0.146960 0.122689 -0.067371
v -0.150352 0.121640 -0.068502
v -0.152680 0.124054 -0.064225
v -0.150317 0.125782 -0.064251
v -0.147766 0.125590 -0.062727
v -0.152605 0.127848 -0.060125
v -0.155577 0.125817 -0.060333
v -0.155971 0.129171 -0.055262
v -0.158984 0.126754 -0.055682
v -0.161470 0.129412 -0.050056
v -0.163831 0.127336 -0.050759
v -0.164905 0.130624 -0.046473
v -0.167773 0.128612 -0.046967
v -0.170583 0.130258 -0.044335
v -0.166791 0.132162 -0.044268
v -0.166405 0.134376 -0.041547
v -0.170253 0.133719 -0.041018
v -0.163911 0.136338 -0.037481
v -0.167077 0.136853 -0.036614
v -0.159336 0.138276 -0.030278
v -0.162833 0.137488 -0.029339
v -0.156558 0.137348 -0.022677
v -0.160516 0.136558 -0.022235
v -0.152366 0.133263 -0.012530
v -0.155663 0.132484 -0.011054
v -0.147512 0.129972 -0.005027
v -0.150418 0.128783 -0.003236
v -0.145021 0.127441 -0.002164
v -0.147257 0.126092 -0.000397
v -0.140731 0.124654 -0.003170
v -0.140658 0.120824 -0.001486
v -0.148397 0.128085 -0.058481
v -0.148797 0.130039 -0.054672
v -0.148650 0.131185 -0.050204
v -0.148480 0.132003 -0.044692
v -0.153444 0.130843 -0.050546
v -0.158738 0.129763 -0.048432
v -0.161178 0.130764 -0.045424
v -0.162555 0.131963 -0.043614
v -0.161624 0.134485 -0.040569
v -0.160059 0.136009 -0.036767
v -0.153992 0.137008 -0.031034
v -0.150506 0.135236 -0.022340
v -0.147206 0.131199 -0.014045
v -0.153284 0.132791 -0.045597
v -0.149172 0.133671 -0.035911
v -0.153573 0.136523 -0.037536
v -0.153464 0.134672 -0.042005
v -0.148671 0.133186 -0.040285
v -0.148603 0.132797 -0.030865
v -0.146157 0.131134 -0.023483
v -0.143578 0.127157 -0.015941
v -0.140256 0.123731 -0.009705
v -0.143965 0.127752 -0.007691
v -0.138104 0.122458 -0.006229
v -0.137206 0.119014 -0.005568
v -0.140336 0.120690 -0.009247
v -0.144736 0.125577 -0.016686
v -0.147288 0.130096 -0.025534
v -0.149548 0.131178 -0.032080
v -0.149979 0.131536 -0.036013
v -0.149504 0.131239 -0.040072
v -0.149584 0.129446 -0.044344
v -0.149975 0.127118 -0.049402
v -0.149281 0.125451 -0.052976
v -0.148258 0.123500 -0.056233
v -0.147246 0.121206 -0.059752
v -0.146114 0.118117 -0.063967
v -0.143807 0.114195 -0.069761
v -0.140879 0.109476 -0.075562
v -0.136907 0.105163 -0.081183
v -0.134298 0.102272 -0.083916
v -0.132593 0.099570 -0.086197
v -0.131148 0.095168 -0.089017
v -0.128140 0.089911 -0.093573
v -0.125281 0.089839 -0.089405
v -0.130420 0.091760 -0.084378
v -0.133660 0.094294 -0.080170
v -0.119553 0.093121 -0.083225
v -0.124886 0.091436 -0.077352
v -0.137879 0.096782 -0.074262
v -0.140773 0.098047 -0.068651
v -0.143735 0.100594 -0.061883
v -0.127823 0.094138 -0.071774
v -0.131209 0.097467 -0.065497
v -0.135283 0.098830 -0.060769
v -0.141238 0.103421 -0.072097
v -0.143979 0.106802 -0.065593
v -0.138913 0.101566 -0.075992
v -0.139381 0.100501 -0.055277
v -0.144670 0.102902 -0.047941
v -0.146817 0.104053 -0.055016
v -0.146458 0.110411 -0.059491
v -0.147194 0.103424 -0.042200
v -0.149812 0.104854 -0.038506
v -0.154020 0.106545 -0.036654
v -0.157242 0.106470 -0.037194
v -0.142513 0.119517 -0.001620
v -0.138692 0.118126 -0.005456
v -0.148766 0.124013 -0.000587
v -0.151585 0.126863 -0.003090
v -0.156382 0.130558 -0.011209
v -0.161204 0.134181 -0.022064
v -0.163638 0.134461 -0.028936
v -0.165845 0.132917 -0.035174
v -0.168174 0.129598 -0.039218
v -0.168702 0.126575 -0.042102
v -0.167091 0.124577 -0.045197
v -0.163833 0.123041 -0.048903
v -0.159951 0.121563 -0.053178
v -0.156580 0.120160 -0.057601
v -0.153361 0.118847 -0.061481
v -0.150654 0.116910 -0.066103
v -0.147085 0.114155 -0.071716
v -0.144897 0.109465 -0.076601
v -0.141831 0.104635 -0.081389
v -0.138745 0.101068 -0.084065
v -0.136411 0.095963 -0.087538
v -0.134954 0.091031 -0.091091
v -0.132744 0.086590 -0.095221
v -0.145077 0.120440 -0.003276
v -0.148927 0.122706 -0.002323
v -0.141722 0.120398 -0.008891
v -0.151231 0.124903 -0.004588
v -0.145856 0.125339 -0.016365
v -0.151777 0.126589 -0.014894
v -0.141692 0.119908 -0.005493
v -0.143792 0.121887 -0.008476
v -0.148087 0.122156 -0.007367
v -0.147481 0.126100 -0.016045
v -0.155363 0.128918 -0.012286
v -0.159664 0.132264 -0.021897
v -0.154868 0.130618 -0.023261
v -0.150348 0.130814 -0.024230
v -0.148310 0.129993 -0.025003
v -0.162036 0.132709 -0.029199
v -0.157236 0.131502 -0.030571
v -0.152703 0.131624 -0.031119
v -0.150541 0.131097 -0.031823
v -0.163631 0.131731 -0.035230
v -0.158894 0.131341 -0.035841
v -0.154296 0.131000 -0.035816
v -0.151264 0.131068 -0.035939
v -0.165100 0.128304 -0.039020
v -0.160776 0.127888 -0.039453
v -0.164926 0.124496 -0.041903
v -0.160408 0.124572 -0.042321
v -0.155984 0.128645 -0.039408
v -0.156201 0.125642 -0.042429
v -0.151806 0.129956 -0.039660
v -0.152053 0.127550 -0.043325
v -0.152305 0.123467 -0.047652
v -0.151152 0.120280 -0.049722
v -0.155041 0.122087 -0.045810
v -0.158187 0.121116 -0.045592
v -0.162397 0.120958 -0.045686
v -0.154288 0.118687 -0.046871
v -0.157210 0.118083 -0.047085
v -0.161234 0.119232 -0.048142
v -0.149125 0.117514 -0.052013
v -0.147692 0.114954 -0.054773
v -0.153174 0.111995 -0.045025
v -0.150974 0.109370 -0.046096
v -0.149209 0.107228 -0.049199
v -0.155236 0.112389 -0.044526
v -0.157373 0.110739 -0.045594
v -0.159553 0.103142 -0.037817
v -0.164681 0.096244 -0.035560
v -0.169658 0.094359 -0.035698
v -0.174094 0.090011 -0.034984
v -0.159961 0.098681 -0.039077
v -0.157024 0.105468 -0.048114
v -0.158367 0.116469 -0.049929
v -0.156257 0.112929 -0.054066
v -0.174102 0.085317 -0.030034
v -0.173285 0.083652 -0.032270
v -0.173893 0.082094 -0.035994
v -0.174894 0.085301 -0.033673
v -0.174603 0.087615 -0.036017
v -0.171647 0.089559 -0.039000
v -0.174368 0.087104 -0.039029
v -0.167806 0.091478 -0.038728
v -0.163899 0.092707 -0.039538
v -0.171279 0.083923 -0.048206
v -0.174443 0.083258 -0.047917
v -0.167694 0.084024 -0.047734
v -0.163929 0.085077 -0.048414
v -0.166984 0.076099 -0.061376
v -0.177029 0.076291 -0.059696
v -0.174055 0.076259 -0.059904
v -0.170956 0.075551 -0.059621
v -0.175422 0.084206 -0.037199
v -0.176422 0.079967 -0.046873
v -0.179144 0.074086 -0.057632
v -0.175504 0.078162 -0.046255
v -0.178516 0.072400 -0.056951
v -0.182369 0.067401 -0.066919
v -0.179861 0.068568 -0.069053
v -0.169020 0.066862 -0.071776
v -0.173303 0.067054 -0.069809
v -0.176641 0.068055 -0.069739
v -0.181638 0.066055 -0.065617
v -0.182607 0.057596 -0.072468
v -0.183080 0.058868 -0.074218
v -0.180795 0.059663 -0.075796
v -0.177749 0.059355 -0.076441
v -0.174024 0.058610 -0.076110
v -0.169198 0.058328 -0.077844
v -0.181923 0.045712 -0.080568
v -0.181627 0.046390 -0.081952
v -0.180121 0.046950 -0.083484
v -0.177696 0.047270 -0.084359
v -0.173933 0.046708 -0.083748
v -0.168999 0.046926 -0.084770
v -0.179581 0.040061 -0.087372
v -0.177118 0.040407 -0.088378
v -0.173275 0.040093 -0.088061
v -0.168558 0.040548 -0.089203
v -0.182060 0.038733 -0.084250
v -0.181189 0.039323 -0.085927
v -0.182625 0.031877 -0.086168
v -0.184312 0.022376 -0.088186
v -0.181038 0.032450 -0.088546
v -0.178662 0.033066 -0.090565
v -0.175923 0.033625 -0.091525
v -0.172185 0.033855 -0.091280
v -0.167712 0.034795 -0.092821
v -0.180873 0.022996 -0.091861
v -0.177179 0.024040 -0.094723
v -0.173929 0.025106 -0.095730
v -0.170218 0.026240 -0.095239
v -0.166908 0.028748 -0.095882
v -0.182457 0.015588 -0.092780
v -0.178674 0.009888 -0.097326
v -0.174338 0.009674 -0.099949
v -0.169830 0.012336 -0.101905
v -0.164189 0.017103 -0.103439
v -0.159971 0.022157 -0.104186
v -0.164827 0.026416 -0.098198
v -0.168530 0.022346 -0.097602
v -0.172092 0.020429 -0.098401
v -0.175669 0.018401 -0.097702
v -0.179276 0.016714 -0.095395
v -0.169382 0.017530 -0.100391
v -0.166102 0.019622 -0.100442
v -0.162052 0.024181 -0.101285
v -0.154418 0.030769 -0.105517
v -0.148026 0.040465 -0.106568
v -0.141997 0.049620 -0.106930
v -0.136946 0.059897 -0.106312
v -0.132685 0.068368 -0.105588
v -0.129240 0.079238 -0.102609
v -0.130098 0.081647 -0.101071
v -0.158005 0.032288 -0.101512
v -0.162856 0.033673 -0.096871
v -0.154192 0.041744 -0.101172
v -0.161580 0.041712 -0.094908
v -0.160823 0.049779 -0.091318
v -0.150797 0.051001 -0.099558
v -0.146773 0.061302 -0.096884
v -0.158925 0.060176 -0.085790
v -0.157275 0.068888 -0.080655
v -0.143858 0.069683 -0.092134
v -0.155209 0.077459 -0.075118
v -0.142032 0.077094 -0.086088
v -0.159763 0.095165 -0.043120
v -0.155926 0.102495 -0.051526
v -0.153432 0.111044 -0.057928
v -0.150264 0.107506 -0.061896
v -0.153656 0.097357 -0.056737
v -0.158296 0.089960 -0.052026
v -0.156929 0.086624 -0.061341
v -0.151614 0.085006 -0.071080
v -0.142294 0.083766 -0.079225
v -0.150696 0.094875 -0.062501
v -0.146571 0.104676 -0.066369
v -0.147019 0.092501 -0.069173
v -0.143992 0.100946 -0.071183
v -0.141153 0.097889 -0.075538
v -0.142410 0.090726 -0.074975
v -0.137877 0.096316 -0.078972
v -0.134951 0.093590 -0.083732
v -0.133783 0.089636 -0.087289
v -0.132084 0.085006 -0.092431
v -0.137801 0.090033 -0.080035
v -0.135027 0.083433 -0.087456
v -0.129952 0.075885 -0.103460
v -0.125828 0.074981 -0.107841
v -0.125283 0.074125 -0.105710
v -0.129973 0.075358 -0.096989
v -0.139259 0.094640 0.004581
v -0.139925 0.093242 0.004593
v -0.141221 0.092717 0.004081
v -0.143268 0.094177 0.004075
v -0.144159 0.096428 0.003832
v -0.143319 0.098186 0.004061
v -0.141582 0.098543 0.004002
v -0.140300 0.096517 0.004483
v -0.142038 0.095234 0.004734
v -0.152424 0.093387 -0.053256
v -0.147609 0.093139 -0.061501
v -0.140639 0.091471 -0.068479
v -0.133807 0.088437 -0.073781
v -0.126336 0.089039 -0.078856
v -0.157613 0.083443 -0.062334
v -0.160059 0.074866 -0.069044
v -0.161683 0.067003 -0.074115
v -0.162301 0.058688 -0.079849
v -0.151439 0.083531 -0.068857
v -0.143523 0.081369 -0.075629
v -0.127729 0.084720 -0.087873
v -0.119235 0.091529 -0.081501
v -0.120331 0.089310 -0.087570
v -0.135196 0.079156 -0.085578
v -0.139729 0.070810 -0.089352
v -0.145451 0.063676 -0.090789
v -0.152093 0.056085 -0.091373
v -0.165092 0.048670 -0.084512
v -0.168163 0.038230 -0.087299
v -0.171466 0.029723 -0.088023
v -0.173960 0.021037 -0.088482
v -0.168564 0.020041 -0.092288
v -0.166171 0.028172 -0.092364
v -0.162653 0.036619 -0.092853
v -0.157775 0.047002 -0.092434
v -0.145731 0.073368 -0.080894
v -0.153198 0.074873 -0.074065
v -0.150636 0.066047 -0.083445
f 74 73 76
f 74 76 94
f 96 78 80
f 96 80 82
f 94 76 78
f 94 78 96
f 93 91 74
f 93 74 94
f 95 96 82
f 95 82 97
f 88 90 91
f 88 91 93
f 95 86 88
f 95 88 93
f 93 94 96
f 93 96 95
f 97 84 86
f 97 86 95
f 85 86 84
f 85 84 83
f 83 84 97
f 83 97 98
f 98 97 82
f 98 82 81
f 81 82 80
f 81 80 79
f 79 80 78
f 79 78 77
f 77 78 76
f 77 76 75
f 75 76 73
f 75 73 72
f 71 72 73
f 71 73 74
f 71 74 91
f 71 91 92
f 92 91 90
f 92 90 89
f 89 90 88
f 89 88 87
f 88 86 85
f 88 85 87
f 169 172 89
f 169 89 87
f 110 169 164
f 110 164 99
f 58 59 112
f 58 112 113
f 113 112 110
f 113 110 99
f 163 164 85
f 163 85 83
f 108 162 172
f 108 172 109
f 107 161 162
f 107 162 108
f 106 159 161
f 106 161 107
f 112 59 61
f 112 61 111
f 111 109 110
f 111 110 112
f 108 109 111
f 108 111 135
f 121 111 61
f 121 61 63
f 107 108 135
f 107 135 136
f 106 107 136
f 106 136 137
f 186 175 173
f 186 173 149
f 150 144 174
f 150 174 186
f 160 149 173
f 160 173 158
f 122 123 124
f 122 124 125
f 125 124 157
f 125 157 158
f 129 121 63
f 129 63 130
f 130 123 122
f 130 122 129
f 122 125 158
f 122 158 173
f 145 144 150
f 145 150 151
f 150 186 184
f 150 184 165
f 171 184 186
f 171 186 149
f 170 171 149
f 170 149 160
f 151 150 165
f 151 165 166
f 154 152 180
f 154 180 178
f 178 180 145
f 178 145 151
f 157 152 154
f 157 154 155
f 154 178 176
f 154 176 167
f 152 157 124
f 152 124 128
f 180 152 128
f 180 128 181
f 134 145 180
f 134 180 181
f 128 124 123
f 128 123 127
f 181 128 127
f 181 127 182
f 133 134 181
f 133 181 182
f 127 123 130
f 127 130 131
f 166 176 178
f 166 178 151
f 155 154 167
f 155 167 168
f 160 158 157
f 160 157 155
f 168 170 160
f 168 160 155
f 163 146 101
f 163 101 100
f 147 146 98
f 147 98 81
f 148 147 81
f 148 81 79
f 153 148 79
f 153 79 77
f 156 153 77
f 156 77 75
f 159 156 75
f 159 75 72
f 161 159 72
f 161 72 71
f 139 135 111
f 139 111 121
f 139 121 129
f 139 129 175
f 175 129 122
f 175 122 173
f 174 139 175
f 174 175 186
f 162 161 71
f 162 71 92
f 136 135 139
f 136 139 140
f 144 145 134
f 144 134 143
f 140 139 174
f 140 174 187
f 187 174 144
f 187 144 143
f 143 134 133
f 143 133 132
f 137 136 140
f 137 140 141
f 141 140 187
f 141 187 188
f 188 187 143
f 188 143 132
f 183 131 126
f 183 126 191
f 182 127 131
f 182 131 183
f 132 133 182
f 132 182 183
f 191 188 132
f 191 132 183
f 131 130 63
f 131 63 126
f 189 141 188
f 189 188 191
f 189 191 126
f 189 126 192
f 126 63 65
f 126 65 192
f 189 192 65
f 189 65 193
f 194 193 65
f 194 65 67
f 195 194 67
f 195 67 69
f 196 195 69
f 196 69 13
f 197 196 13
f 197 13 12
f 198 197 12
f 198 12 9
f 199 198 9
f 199 9 7
f 200 199 7
f 200 7 5
f 201 200 5
f 201 5 1
f 202 201 1
f 202 1 2
f 203 202 2
f 203 2 16
f 233 231 230
f 233 230 232
f 293 265 267
f 293 267 294
f 295 294 267
f 295 267 269
f 296 295 269
f 296 269 272
f 302 293 294
f 302 294 295
f 305 302 295
f 305 295 296
f 297 296 272
f 297 272 273
f 297 273 275
f 297 275 298
f 299 298 275
f 299 275 277
f 304 305 296
f 304 296 297
f 304 297 298
f 304 298 299
f 300 299 277
f 300 277 279
f 301 300 279
f 301 279 281
f 311 301 281
f 311 281 283
f 311 283 285
f 311 285 287
f 310 311 287
f 310 287 312
f 309 301 311
f 309 311 310
f 308 300 301
f 308 301 309
f 307 299 300
f 307 300 308
f 303 304 299
f 303 299 307
f 306 305 304
f 306 304 303
f 292 302 305
f 292 305 306
f 293 302 292
f 293 292 291
f 265 293 291
f 265 291 290
f 289 263 265
f 289 265 290
f 262 261 263
f 262 263 289
f 242 243 249
f 242 249 248
f 239 240 243
f 239 243 242
f 237 236 240
f 237 240 239
f 229 203 233
f 229 233 232
f 228 202 203
f 228 203 229
f 331 239 242
f 331 242 330
f 258 257 261
f 258 261 262
f 257 258 255
f 257 255 254
f 254 255 253
f 254 253 252
f 244 245 248
f 244 248 249
f 252 253 245
f 252 245 244
f 227 226 200
f 227 200 201
f 227 201 202
f 227 202 228
f 225 199 200
f 225 200 226
f 336 227 228
f 336 228 333
f 224 198 199
f 224 199 225
f 225 226 227
f 225 227 336
f 333 332 331
f 333 331 334
f 228 229 332
f 228 332 333
f 337 224 225
f 337 225 336
f 336 333 334
f 336 334 337
f 223 197 198
f 223 198 224
f 222 196 197
f 222 197 223
f 221 195 196
f 221 196 222
f 223 224 337
f 223 337 341
f 330 242 248
f 330 248 329
f 335 334 331
f 335 331 330
f 341 337 334
f 341 334 335
f 327 253 255
f 327 255 326
f 329 248 245
f 329 245 328
f 245 253 327
f 245 327 328
f 338 335 330
f 338 330 329
f 346 328 327
f 346 327 344
f 338 329 328
f 338 328 346
f 220 194 195
f 220 195 221
f 339 338 346
f 339 346 344
f 343 342 338
f 343 338 339
f 222 223 341
f 222 341 342
f 342 341 335
f 342 335 338
f 343 221 222
f 343 222 342
f 220 221 343
f 220 343 347
f 347 343 339
f 347 339 340
f 340 339 344
f 340 344 345
f 344 327 326
f 344 326 345
f 326 255 258
f 326 258 325
f 142 141 189
f 142 189 190
f 190 189 193
f 190 193 219
f 219 193 194
f 219 194 220
f 219 220 347
f 219 347 348
f 138 137 141
f 138 141 142
f 105 156 159
f 105 159 106
f 105 106 137
f 105 137 138
f 313 312 287
f 313 287 288
f 288 287 285
f 288 285 286
f 286 285 283
f 286 283 284
f 284 283 281
f 284 281 282
f 282 281 279
f 282 279 280
f 280 279 277
f 280 277 278
f 278 277 275
f 278 275 276
f 276 275 273
f 276 273 274
f 274 273 272
f 274 272 271
f 271 272 269
f 271 269 270
f 270 269 267
f 270 267 268
f 268 267 265
f 268 265 266
f 266 265 263
f 266 263 264
f 264 263 261
f 264 261 260
f 260 261 257
f 260 257 259
f 259 257 254
f 259 254 256
f 256 254 252
f 256 252 251
f 251 252 244
f 251 244 246
f 250 246 244
f 250 244 249
f 250 249 243
f 250 243 247
f 247 243 240
f 247 240 241
f 357 355 288
f 357 288 286
f 358 357 286
f 358 286 284
f 315 309 310
f 315 310 314
f 310 312 313
f 310 313 314
f 356 313 288
f 356 288 355
f 380 314 313
f 380 313 356
f 378 355 357
f 378 357 379
f 385 380 356
f 385 356 384
f 384 356 355
f 384 355 378
f 386 385 384
f 386 384 378
f 379 357 358
f 379 358 381
f 386 378 379
f 386 379 381
f 359 358 284
f 359 284 282
f 388 381 358
f 388 358 359
f 360 359 282
f 360 282 280
f 383 386 381
f 383 381 388
f 387 385 386
f 387 386 383
f 382 380 385
f 382 385 387
f 315 314 380
f 315 380 382
f 316 308 309
f 316 309 315
f 389 388 359
f 389 359 360
f 361 360 280
f 361 280 278
f 383 388 389
f 383 389 390
f 387 383 390
f 387 390 391
f 382 387 391
f 382 391 392
f 316 315 382
f 316 382 392
f 307 308 316
f 307 316 317
f 393 389 360
f 393 360 361
f 362 361 278
f 362 278 276
f 390 389 393
f 390 393 394
f 391 390 394
f 391 394 395
f 392 391 395
f 392 395 396
f 317 316 392
f 317 392 396
f 303 307 317
f 303 317 318
f 397 393 361
f 397 361 362
f 398 394 393
f 398 393 397
f 363 362 276
f 363 276 274
f 401 397 362
f 401 362 363
f 364 363 274
f 364 274 271
f 395 394 398
f 395 398 399
f 402 398 397
f 402 397 401
f 396 395 399
f 396 399 400
f 318 317 396
f 318 396 400
f 306 303 318
f 306 318 319
f 405 399 398
f 405 398 402
f 407 319 318
f 407 318 400
f 407 400 399
f 407 399 405
f 292 306 319
f 292 319 320
f 291 292 320
f 291 320 321
f 408 320 319
f 408 319 407
f 290 291 321
f 290 321 322
f 408 407 405
f 408 405 406
f 409 321 320
f 409 320 408
f 406 405 402
f 406 402 404
f 403 401 363
f 403 363 364
f 404 402 401
f 404 401 403
f 365 364 271
f 365 271 270
f 409 408 406
f 409 406 411
f 412 411 406
f 412 406 404
f 413 412 404
f 413 404 403
f 413 403 364
f 413 364 365
f 366 365 270
f 366 270 268
f 289 290 322
f 289 322 323
f 322 321 409
f 322 409 410
f 262 289 323
f 262 323 324
f 325 258 262
f 325 262 324
f 350 345 326
f 350 326 325
f 417 323 322
f 417 322 410
f 324 323 417
f 324 417 418
f 350 325 324
f 350 324 418
f 349 340 345
f 349 345 350
f 349 348 347
f 349 347 340
f 414 410 409
f 414 409 411
f 351 348 349
f 351 349 421
f 349 350 418
f 349 418 421
f 421 418 417
f 421 417 420
f 353 352 420
f 353 420 419
f 419 410 414
f 419 414 422
f 420 417 410
f 420 410 419
f 352 142 190
f 352 190 351
f 351 190 219
f 351 219 348
f 421 420 352
f 421 352 351
f 353 138 142
f 353 142 352
f 415 414 411
f 415 411 412
f 104 153 156
f 104 156 105
f 103 148 153
f 103 153 104
f 102 147 148
f 102 148 103
f 424 104 105
f 424 105 354
f 354 105 138
f 354 138 353
f 354 353 419
f 354 419 422
f 422 414 415
f 422 415 423
f 423 424 354
f 423 354 422
f 416 415 412
f 416 412 413
f 416 413 365
f 416 365 366
f 367 366 268
f 367 268 266
f 430 416 366
f 430 366 367
f 430 423 415
f 430 415 416
f 368 367 266
f 368 266 264
f 101 146 147
f 101 147 102
f 146 163 83
f 146 83 98
f 116 113 99
f 116 99 100
f 114 58 113
f 114 113 116
f 116 100 101
f 116 101 432
f 432 101 102
f 432 102 427
f 427 102 103
f 427 103 426
f 426 103 104
f 426 104 425
f 437 427 426
f 437 426 439
f 441 437 439
f 441 439 443
f 435 433 116
f 435 116 432
f 435 432 427
f 435 427 436
f 436 427 437
f 436 437 438
f 449 435 436
f 449 436 438
f 114 116 433
f 114 433 434
f 434 433 435
f 434 435 449
f 438 437 441
f 438 441 442
f 450 449 438
f 450 438 442
f 56 58 114
f 56 114 115
f 115 114 434
f 115 434 452
f 452 434 449
f 452 449 450
f 54 56 115
f 54 115 117
f 453 452 450
f 453 450 451
f 451 450 442
f 451 442 446
f 446 442 441
f 446 441 447
f 447 441 443
f 447 443 448
f 117 115 452
f 117 452 453
f 52 54 117
f 52 117 118
f 459 118 117
f 459 117 453
f 459 453 451
f 459 451 454
f 455 454 451
f 455 451 446
f 458 455 446
f 458 446 447
f 458 447 448
f 458 448 457
f 217 44 46
f 217 46 218
f 216 42 44
f 216 44 217
f 217 218 476
f 217 476 478
f 480 478 476
f 480 476 477
f 481 480 477
f 481 477 472
f 482 481 472
f 482 472 473
f 483 482 473
f 483 473 474
f 216 217 478
f 216 478 479
f 215 40 42
f 215 42 216
f 214 38 40
f 214 40 215
f 213 36 38
f 213 38 214
f 212 33 36
f 212 36 213
f 211 31 33
f 211 33 212
f 210 30 31
f 210 31 211
f 487 482 483
f 487 483 488
f 486 481 482
f 486 482 487
f 485 480 481
f 485 481 486
f 479 478 480
f 479 480 485
f 491 214 215
f 491 215 490
f 215 216 479
f 215 479 490
f 492 491 490
f 492 490 500
f 213 214 491
f 213 491 492
f 490 479 485
f 490 485 500
f 493 492 500
f 493 500 499
f 500 485 486
f 500 486 499
f 499 486 487
f 499 487 498
f 212 213 492
f 212 492 493
f 493 499 498
f 493 498 501
f 211 212 493
f 211 493 494
f 498 487 488
f 498 488 497
f 502 494 493
f 502 493 501
f 502 501 498
f 502 498 497
f 210 211 494
f 210 494 495
f 209 28 30
f 209 30 210
f 208 26 28
f 208 28 209
f 207 24 26
f 207 26 208
f 206 22 24
f 206 24 207
f 209 210 495
f 209 495 504
f 503 495 494
f 503 494 502
f 503 502 497
f 503 497 496
f 497 488 489
f 497 489 496
f 489 488 483
f 489 483 484
f 208 209 504
f 208 504 505
f 511 504 495
f 511 495 503
f 512 511 503
f 512 503 496
f 512 496 489
f 512 489 484
f 484 483 474
f 484 474 475
f 514 512 484
f 514 484 475
f 513 511 512
f 513 512 514
f 513 505 504
f 513 504 511
f 207 208 505
f 207 505 506
f 206 207 506
f 206 506 507
f 506 505 513
f 506 513 516
f 516 513 514
f 516 514 515
f 515 514 475
f 515 475 471
f 120 218 46
f 120 46 48
f 50 52 118
f 50 118 119
f 48 50 119
f 48 119 120
f 462 455 458
f 462 458 463
f 468 469 473
f 468 473 472
f 462 461 454
f 462 454 455
f 468 467 461
f 468 461 462
f 462 463 469
f 462 469 468
f 472 477 467
f 472 467 468
f 460 459 454
f 460 454 461
f 466 467 477
f 466 477 476
f 119 118 459
f 119 459 460
f 466 120 119
f 466 119 460
f 460 461 467
f 460 467 466
f 476 218 120
f 476 120 466
f 470 471 475
f 470 475 474
f 464 463 458
f 464 458 457
f 470 469 463
f 470 463 464
f 474 473 469
f 474 469 470
f 471 470 464
f 471 464 465
f 465 464 457
f 465 457 456
f 518 515 471
f 518 471 465
f 517 516 515
f 517 515 518
f 517 507 506
f 517 506 516
f 518 465 456
f 518 456 519
f 517 518 519
f 517 519 520
f 440 439 426
f 440 426 425
f 425 104 424
f 425 424 428
f 428 424 423
f 428 423 429
f 431 430 367
f 431 367 368
f 429 423 430
f 429 430 431
f 369 368 264
f 369 264 260
f 370 369 260
f 370 260 259
f 525 431 368
f 525 368 369
f 524 429 431
f 524 431 525
f 523 428 429
f 523 429 524
f 523 440 425
f 523 425 428
f 444 443 439
f 444 439 440
f 448 443 444
f 448 444 445
f 456 457 448
f 456 448 445
f 444 440 523
f 444 523 528
f 519 456 445
f 519 445 521
f 529 445 444
f 529 444 528
f 528 523 524
f 528 524 527
f 527 524 525
f 527 525 526
f 525 369 370
f 525 370 526
f 371 370 259
f 371 259 256
f 532 529 528
f 532 528 527
f 533 526 370
f 533 370 371
f 533 532 527
f 533 527 526
f 372 371 256
f 372 256 251
f 373 372 251
f 373 251 246
f 535 533 371
f 535 371 372
f 534 532 533
f 534 533 535
f 535 372 373
f 535 373 536
f 374 373 246
f 374 246 250
f 375 374 250
f 375 250 247
f 376 375 247
f 376 247 241
f 377 238 235
f 377 235 510
f 521 445 529
f 521 529 530
f 530 529 532
f 530 532 534
f 538 536 373
f 538 373 374
f 538 374 375
f 538 375 539
f 534 535 536
f 534 536 537
f 540 539 375
f 540 375 376
f 537 536 538
f 537 538 542
f 542 538 539
f 542 539 540
f 531 530 534
f 531 534 537
f 541 540 376
f 541 376 377
f 508 507 517
f 508 517 520
f 541 377 510
f 541 510 509
f 520 519 521
f 520 521 522
f 522 521 530
f 522 530 531
f 543 531 537
f 543 537 542
f 543 542 540
f 543 540 541
f 231 233 203
f 231 203 204
f 204 203 16
f 204 16 17
f 205 20 22
f 205 22 206
f 545 546 20
f 545 20 205
f 205 206 507
f 205 507 508
f 205 508 544
f 205 544 545
f 234 231 204
f 234 204 545
f 235 230 231
f 235 231 234
f 509 510 235
f 509 235 234
f 545 544 509
f 545 509 234
f 544 508 520
f 544 520 522
f 543 541 509
f 543 509 544
f 544 522 531
f 544 531 543
f 545 204 17
f 545 17 546
f 172 162 92
f 172 92 89
f 164 163 100
f 164 100 99
f 164 169 87
f 164 87 85
f 172 169 110
f 172 110 109
f 377 376 241
f 377 241 238
f 241 240 236
f 241 236 238
f 238 236 230
f 238 230 235
f 237 239 331
f 237 331 332
f 549 168 167
f 549 167 548
f 550 170 168
f 550 168 549
f 548 167 176
f 548 176 555
f 171 170 550
f 171 550 551
f 552 184 171
f 552 171 551
f 176 166 554
f 176 554 555
f 553 552 551
f 553 551 556
f 165 184 552
f 165 552 553
f 554 166 165
f 554 165 553
f 556 555 554
f 556 554 553
f 549 548 555
f 549 555 556
f 551 550 549
f 551 549 556
f 61 59 60
f 61 60 62
f 64 63 61
f 64 61 62
f 65 63 64
f 65 64 66
f 60 59 58
f 60 58 57
f 557 62 60
f 557 60 57
f 67 65 66
f 67 66 68
f 69 67 68
f 69 68 70
f 14 13 69
f 14 69 70
f 11 12 13
f 11 13 14
f 66 64 62
f 66 62 557
f 57 58 56
f 57 56 55
f 55 56 54
f 55 54 53
f 53 54 52
f 53 52 51
f 51 52 50
f 51 50 49
f 562 557 57
f 562 57 55
f 68 66 557
f 68 557 558
f 70 68 558
f 70 558 559
f 10 9 12
f 10 12 11
f 18 17 16
f 18 16 15
f 8 7 9
f 8 9 10
f 10 11 561
f 10 561 569
f 3 2 1
f 3 1 4
f 15 16 2
f 15 2 3
f 3 4 570
f 3 570 15
f 1 5 6
f 1 6 4
f 4 6 569
f 4 569 570
f 6 5 7
f 6 7 8
f 6 8 10
f 6 10 569
f 546 17 18
f 546 18 547
f 19 20 546
f 19 546 547
f 22 20 19
f 22 19 21
f 24 22 21
f 24 21 23
f 46 44 43
f 46 43 45
f 48 46 45
f 48 45 47
f 49 50 48
f 49 48 47
f 43 44 42
f 43 42 41
f 32 31 30
f 32 30 29
f 45 43 577
f 45 577 576
f 29 30 28
f 29 28 27
f 26 24 23
f 26 23 25
f 27 28 26
f 27 26 25
f 582 581 27
f 582 27 25
f 47 45 576
f 47 576 575
f 575 576 581
f 575 581 582
f 580 29 27
f 580 27 581
f 576 577 580
f 576 580 581
f 33 31 32
f 33 32 34
f 579 32 29
f 579 29 580
f 35 34 32
f 35 32 579
f 36 33 34
f 36 34 35
f 37 38 36
f 37 36 35
f 579 578 37
f 579 37 35
f 39 40 38
f 39 38 37
f 578 41 39
f 578 39 37
f 41 42 40
f 41 40 39
f 578 577 43
f 578 43 41
f 579 580 577
f 579 577 578
f 582 25 23
f 582 23 574
f 14 70 559
f 14 559 560
f 561 11 14
f 561 14 560
f 571 568 561
f 571 561 560
f 570 569 561
f 570 561 568
f 568 18 15
f 568 15 570
f 571 547 18
f 571 18 568
f 571 560 559
f 571 559 567
f 572 19 547
f 572 547 571
f 558 557 562
f 558 562 566
f 567 559 558
f 567 558 566
f 563 562 55
f 563 55 53
f 21 19 572
f 21 572 573
f 583 572 571
f 583 571 567
f 583 567 566
f 583 566 584
f 566 562 563
f 566 563 584
f 564 563 53
f 564 53 51
f 23 21 573
f 23 573 574
f 585 573 572
f 585 572 583
f 179 574 573
f 179 573 585
f 185 585 583
f 185 583 584
f 185 584 563
f 185 563 564
f 564 51 49
f 564 49 565
f 177 179 585
f 177 585 185
f 565 49 47
f 565 47 575
f 177 185 564
f 177 564 565
f 565 575 582
f 565 582 574
f 565 574 179
f 565 179 177
f 332 229 232
f 332 232 237
f 237 232 230
f 237 230 236
