# Scapula_L rest
v 0.111036 0.101076 -0.086232
v 0.114299 0.094636 -0.093227
v 0.117487 0.093155 -0.088076
v 0.115770 0.096381 -0.083930
v 0.110886 0.104929 -0.079022
v 0.115546 0.098516 -0.079032
v 0.113620 0.105661 -0.071833
v 0.116768 0.098982 -0.074212
v 0.115531 0.105891 -0.064901
v 0.120011 0.097048 -0.070735
v 0.124195 0.096835 -0.066127
v 0.118202 0.105677 -0.057862
v 0.123189 0.106004 -0.052025
v 0.130502 0.097883 -0.061796
v 0.123359 0.087444 -0.090592
v 0.119488 0.086483 -0.098299
v 0.124455 0.079435 -0.101844
v 0.128927 0.081450 -0.093576
v 0.137540 0.067725 -0.096046
v 0.131909 0.066591 -0.104441
v 0.142360 0.059917 -0.096667
v 0.136325 0.057473 -0.104353
v 0.148097 0.051067 -0.097073
v 0.141381 0.047308 -0.104115
v 0.153639 0.042144 -0.097247
v 0.147279 0.037887 -0.103955
v 0.158792 0.032598 -0.097028
v 0.153283 0.028697 -0.103188
v 0.163379 0.024109 -0.095873
v 0.158956 0.020041 -0.101210
v 0.163142 0.013893 -0.099659
v 0.166530 0.017676 -0.094832
v 0.167311 0.008549 -0.098121
v 0.168951 0.012455 -0.094224
v 0.172667 0.010206 -0.091881
v 0.173023 0.003789 -0.095985
v 0.177605 0.010563 -0.089070
v 0.180589 0.004447 -0.092868
v 0.181466 0.013609 -0.086945
v 0.185507 0.011666 -0.087457
v 0.182633 0.019974 -0.084950
v 0.187659 0.020056 -0.083240
v 0.180277 0.028106 -0.083378
v 0.184411 0.028405 -0.081300
v 0.177339 0.035538 -0.081240
v 0.182135 0.034738 -0.078979
v 0.174649 0.044705 -0.077862
v 0.180859 0.041742 -0.074872
v 0.173524 0.055639 -0.073278
v 0.179649 0.053166 -0.068015
v 0.173408 0.064465 -0.067443
v 0.178994 0.062108 -0.062018
v 0.171658 0.071616 -0.061636
v 0.177003 0.068511 -0.055256
v 0.168888 0.078968 -0.053954
v 0.173454 0.074847 -0.045724
v 0.165265 0.086057 -0.047602
v 0.168362 0.079922 -0.034294
v 0.159596 0.086150 -0.027176
v 0.162667 0.088158 -0.042487
v 0.151473 0.092488 -0.023661
v 0.158638 0.092540 -0.042768
v 0.142667 0.098186 -0.025937
v 0.152002 0.098144 -0.041455
v 0.143082 0.102496 -0.038732
v 0.148984 0.099988 -0.046351
v 0.137911 0.103588 -0.042949
v 0.144785 0.099418 -0.051605
v 0.130603 0.105949 -0.045669
v 0.139280 0.098356 -0.057804
v 0.158936 0.102695 -0.014821
v 0.162094 0.105407 -0.019867
v 0.164477 0.100473 -0.019000
v 0.162944 0.098524 -0.016163
v 0.169281 0.103891 -0.026064
v 0.169108 0.098727 -0.023277
v 0.175866 0.100231 -0.029452
v 0.174558 0.096737 -0.025835
v 0.180499 0.096470 -0.028582
v 0.177886 0.095021 -0.025667
v 0.182706 0.091361 -0.026393
v 0.178056 0.091950 -0.023378
v 0.178031 0.083598 -0.015212
v 0.175802 0.085967 -0.016143
v 0.171085 0.082351 -0.009832
v 0.171269 0.085439 -0.013406
v 0.165132 0.085844 -0.008237
v 0.166378 0.087544 -0.011818
v 0.161279 0.091387 -0.009770
v 0.163148 0.091507 -0.011985
v 0.162284 0.095158 -0.013539
v 0.158598 0.098494 -0.010829
v 0.166830 0.090200 -0.016452
v 0.167737 0.093857 -0.020470
v 0.171879 0.088506 -0.018495
v 0.172916 0.092182 -0.022444
v 0.177105 0.088476 -0.019686
v 0.181567 0.087022 -0.021355
v 0.169378 0.080747 -0.013698
v 0.177198 0.081729 -0.019208
v 0.181806 0.085298 -0.025915
v 0.182798 0.090841 -0.031792
v 0.179907 0.096205 -0.033600
v 0.173409 0.100247 -0.033708
v 0.165915 0.105169 -0.030304
v 0.158985 0.105507 -0.022472
v 0.155536 0.102957 -0.015807
v 0.155556 0.098633 -0.011765
v 0.158665 0.090725 -0.011679
v 0.163144 0.084327 -0.010900
v 0.154598 0.092498 -0.017699
v 0.161222 0.086603 -0.019448
v 0.168260 0.082850 -0.022823
v 0.176060 0.081148 -0.035801
v 0.178579 0.076805 -0.046119
v 0.176064 0.083329 -0.027123
v 0.181652 0.070281 -0.056368
v 0.184278 0.063825 -0.064220
v 0.185370 0.055252 -0.070513
v 0.184912 0.043366 -0.078173
v 0.145884 0.096319 -0.016746
v 0.140429 0.095618 -0.015022
v 0.136524 0.099284 -0.019360
v 0.136388 0.099514 -0.013346
v 0.139217 0.096156 -0.012356
v 0.139651 0.101526 -0.029008
v 0.135551 0.101095 -0.022912
v 0.136221 0.101724 -0.014648
v 0.142876 0.095629 -0.016373
v 0.138146 0.098307 -0.022381
v 0.137182 0.100556 -0.026496
v 0.139581 0.107581 -0.023822
v 0.137849 0.108146 -0.022699
v 0.140546 0.108446 -0.016294
v 0.153064 0.099094 -0.012404
v 0.152559 0.103769 -0.016327
v 0.154889 0.106336 -0.023968
v 0.158407 0.106720 -0.029994
v 0.148979 0.101663 -0.010136
v 0.148559 0.106367 -0.016302
v 0.148904 0.107657 -0.026718
v 0.153200 0.106122 -0.031775
v 0.142474 0.108577 -0.017407
v 0.145556 0.106282 -0.009381
v 0.142874 0.106157 -0.008076
v 0.182534 0.085649 -0.023886
v 0.183675 0.090940 -0.029731
v 0.180951 0.096537 -0.031872
v 0.145971 0.096401 -0.002489
v 0.148958 0.104516 -0.003217
v 0.146229 0.105406 -0.002058
v 0.137985 0.099856 -0.006507
v 0.175015 0.100675 -0.032399
v 0.140258 0.098186 -0.000173
v 0.139743 0.094124 -0.000590
v 0.167463 0.105287 -0.028762
v 0.137484 0.096348 -0.006718
v 0.140428 0.094473 -0.007561
v 0.159948 0.106203 -0.021256
v 0.143148 0.093228 -0.001795
v 0.156355 0.103476 -0.014977
v 0.156191 0.098912 -0.010676
v 0.178173 0.081904 -0.017006
v 0.170267 0.080711 -0.011175
v 0.152318 0.101677 0.003580
v 0.149148 0.102479 0.003931
v 0.144286 0.096045 0.005411
v 0.144079 0.092804 0.005467
v 0.163741 0.084497 -0.008822
v 0.147270 0.092187 0.004187
v 0.150506 0.094822 0.003600
v 0.159302 0.090853 -0.010064
v 0.143358 0.095160 -0.008586
v 0.147653 0.104454 -0.009330
v 0.145920 0.098299 -0.009810
v 0.146267 0.100064 0.004564
v 0.161062 0.062007 -0.079650
v 0.142983 0.102616 -0.001070
v 0.157211 0.061125 -0.083612
v 0.139865 0.103642 -0.007001
v 0.137490 0.106287 -0.015112
v 0.135328 0.106692 -0.024118
v 0.137203 0.106290 -0.026427
v 0.152358 0.098315 0.003468
v 0.159624 0.066570 -0.077163
v 0.147250 0.100275 -0.003492
v 0.145156 0.107916 -0.017066
v 0.143034 0.106782 -0.025383
v 0.142962 0.104277 -0.032682
v 0.149394 0.104315 -0.036111
v 0.140018 0.104387 -0.028805
v 0.142069 0.102841 -0.033585
v 0.143497 0.103805 -0.039441
v 0.137559 0.105077 -0.043001
v 0.130614 0.107224 -0.045725
v 0.122896 0.107829 -0.051230
v 0.118236 0.107526 -0.057251
v 0.115748 0.107699 -0.064370
v 0.114085 0.107347 -0.071704
v 0.111568 0.106408 -0.079656
v 0.111793 0.102191 -0.087254
v 0.114958 0.095611 -0.094623
v 0.120040 0.087345 -0.100491
v 0.125255 0.080492 -0.104177
v 0.132311 0.067101 -0.106323
v 0.136685 0.058239 -0.106309
v 0.141823 0.047655 -0.106269
v 0.148238 0.038427 -0.105793
v 0.154566 0.028642 -0.104845
v 0.159944 0.019923 -0.103532
v 0.164272 0.014055 -0.102513
v 0.169168 0.008435 -0.100959
v 0.174544 0.004177 -0.098559
v 0.181253 0.005117 -0.095342
v 0.186546 0.012374 -0.089499
v 0.188738 0.020177 -0.084682
v 0.186345 0.029697 -0.083737
v 0.185365 0.036380 -0.081845
v 0.147155 0.103637 -0.041792
v 0.140790 0.103147 -0.047410
v 0.135138 0.103533 -0.051416
v 0.128660 0.103586 -0.056397
v 0.124028 0.101505 -0.062540
v 0.121349 0.099595 -0.068387
v 0.119134 0.099687 -0.075357
v 0.116687 0.100822 -0.080135
v 0.117873 0.097665 -0.084609
v 0.121790 0.091982 -0.091624
v 0.126050 0.087768 -0.096602
v 0.130692 0.085029 -0.101861
v 0.128022 0.082261 -0.103529
v 0.129394 0.086320 -0.100410
v 0.126723 0.084766 -0.102078
v 0.130077 0.080083 -0.103545
v 0.132155 0.083381 -0.101777
v 0.134862 0.090423 -0.096765
v 0.133361 0.091041 -0.095314
v 0.135854 0.089186 -0.097201
v 0.135739 0.097472 -0.091167
v 0.138191 0.096463 -0.093422
v 0.140648 0.093766 -0.094527
v 0.137300 0.103376 -0.089223
v 0.140646 0.101573 -0.092039
v 0.143912 0.110194 -0.088127
v 0.140451 0.110930 -0.085820
v 0.147710 0.107778 -0.088079
v 0.143576 0.097761 -0.093055
v 0.138745 0.107268 -0.087844
v 0.142788 0.105960 -0.090610
v 0.146195 0.102533 -0.091209
v 0.149835 0.113850 -0.080634
v 0.147392 0.115684 -0.080901
v 0.145044 0.115803 -0.079213
v 0.151320 0.119202 -0.074389
v 0.149479 0.119116 -0.072932
v 0.152940 0.117838 -0.074277
v 0.154454 0.123104 -0.068067
v 0.152654 0.122797 -0.066653
v 0.156000 0.121656 -0.067923
v 0.158582 0.124099 -0.063758
v 0.156237 0.125887 -0.063707
v 0.153729 0.125766 -0.062059
v 0.158761 0.127977 -0.059685
v 0.161709 0.125872 -0.059993
v 0.162402 0.129319 -0.054958
v 0.165365 0.126812 -0.055474
v 0.168173 0.129527 -0.049961
v 0.170471 0.127369 -0.050737
v 0.171822 0.130741 -0.046525
v 0.174643 0.128642 -0.047117
v 0.177630 0.130288 -0.044617
v 0.173857 0.132294 -0.044414
v 0.173636 0.134579 -0.041692
v 0.177525 0.133849 -0.041316
v 0.171339 0.136665 -0.037519
v 0.174582 0.137135 -0.036790
v 0.167077 0.138792 -0.030098
v 0.170633 0.137961 -0.029289
v 0.164602 0.138040 -0.022311
v 0.168595 0.137183 -0.022023
v 0.160740 0.134174 -0.011846
v 0.164112 0.133348 -0.010492
v 0.156108 0.131068 -0.004024
v 0.159094 0.129853 -0.002328
v 0.153667 0.128605 -0.000984
v 0.155974 0.127238 0.000720
v 0.149236 0.125857 -0.001767
v 0.149156 0.122028 -0.000006
v 0.154596 0.128322 -0.057851
v 0.155207 0.130338 -0.054065
v 0.155276 0.131560 -0.049577
v 0.155363 0.132473 -0.044032
v 0.160099 0.131129 -0.050126
v 0.165502 0.129962 -0.048212
v 0.168113 0.130966 -0.045307
v 0.169609 0.132179 -0.043566
v 0.168854 0.134783 -0.040502
v 0.167470 0.136393 -0.036632
v 0.161630 0.137610 -0.030605
v 0.158464 0.136023 -0.021675
v 0.155426 0.132161 -0.013108
v 0.160194 0.133164 -0.045168
v 0.156490 0.134272 -0.035256
v 0.160910 0.137028 -0.037131
v 0.160568 0.135100 -0.041592
v 0.155779 0.133727 -0.039626
v 0.156119 0.133479 -0.030134
v 0.153947 0.131966 -0.022572
v 0.151603 0.128140 -0.014803
v 0.148459 0.124847 -0.008316
v 0.152365 0.128845 -0.006517
v 0.146413 0.123654 -0.004695
v 0.145475 0.120220 -0.003934
v 0.148503 0.121798 -0.007810
v 0.152706 0.126519 -0.015576
v 0.154976 0.130872 -0.024666
v 0.156988 0.131817 -0.031373
v 0.157259 0.132113 -0.035360
v 0.156594 0.131761 -0.039417
v 0.156448 0.129893 -0.043690
v 0.156571 0.127463 -0.048764
v 0.155677 0.125736 -0.052309
v 0.154466 0.123748 -0.055514
v 0.153247 0.121409 -0.058975
v 0.151860 0.118263 -0.063119
v 0.149200 0.114277 -0.068788
v 0.145892 0.109486 -0.074425
v 0.141558 0.105150 -0.079842
v 0.138752 0.102260 -0.082437
v 0.136880 0.099546 -0.084618
v 0.135210 0.095106 -0.087326
v 0.131873 0.089813 -0.091699
v 0.129181 0.089864 -0.087373
v 0.134611 0.091759 -0.082567
v 0.138110 0.094298 -0.078509
v 0.123763 0.093384 -0.080948
v 0.129349 0.091657 -0.075241
v 0.142668 0.096795 -0.072782
v 0.145855 0.098086 -0.067282
v 0.149184 0.100680 -0.060639
v 0.132605 0.094396 -0.069795
v 0.136357 0.097767 -0.063680
v 0.140693 0.099116 -0.059121
v 0.146283 0.103435 -0.070857
v 0.149402 0.106882 -0.064486
v 0.143733 0.101563 -0.074646
v 0.145092 0.100783 -0.053798
v 0.150781 0.103180 -0.046687
v 0.152659 0.104193 -0.053916
v 0.152243 0.110556 -0.058511
v 0.153581 0.103738 -0.041031
v 0.156410 0.105184 -0.037451
v 0.160772 0.106841 -0.035793
v 0.163993 0.106689 -0.036474
v 0.150995 0.120679 -0.000204
v 0.146960 0.119301 -0.003873
v 0.157442 0.125114 0.000493
v 0.160235 0.127899 -0.002202
v 0.164790 0.131394 -0.010647
v 0.169245 0.134779 -0.021844
v 0.171400 0.134908 -0.028866
v 0.173322 0.133216 -0.035224
v 0.175412 0.129745 -0.039350
v 0.175742 0.126627 -0.042227
v 0.173938 0.124599 -0.045239
v 0.170458 0.123062 -0.048801
v 0.166341 0.121601 -0.052915
v 0.162729 0.120202 -0.057200
v 0.159289 0.118890 -0.060944
v 0.156318 0.116928 -0.065447
v 0.152417 0.114146 -0.070898
v 0.149896 0.109385 -0.075644
v 0.146494 0.104505 -0.080256
v 0.143197 0.100946 -0.082760
v 0.140588 0.095808 -0.086075
v 0.138863 0.090823 -0.089510
v 0.136364 0.086341 -0.093502
v 0.153525 0.121529 -0.002001
v 0.157495 0.123755 -0.001243
v 0.149908 0.121482 -0.007509
v 0.159764 0.125893 -0.003663
v 0.153846 0.126264 -0.015298
v 0.159906 0.127428 -0.014098
v 0.150012 0.121035 -0.004076
v 0.152036 0.122942 -0.007207
v 0.156409 0.123128 -0.006285
v 0.155515 0.127003 -0.015060
v 0.163682 0.129747 -0.011662
v 0.167661 0.132879 -0.021579
v 0.162734 0.131293 -0.022716
v 0.158136 0.131555 -0.023499
v 0.156029 0.130757 -0.024174
v 0.169736 0.133168 -0.029035
v 0.164809 0.132015 -0.030190
v 0.160215 0.132211 -0.030548
v 0.157997 0.131718 -0.031155
v 0.171059 0.132057 -0.035166
v 0.166245 0.131740 -0.035569
v 0.161604 0.131484 -0.035340
v 0.158547 0.131616 -0.035333
v 0.172292 0.128500 -0.038996
v 0.167907 0.128162 -0.039236
v 0.171895 0.124604 -0.041827
v 0.167330 0.124775 -0.042055
v 0.163103 0.129035 -0.038993
v 0.163124 0.125955 -0.041997
v 0.158911 0.130435 -0.039084
v 0.158953 0.127962 -0.042743
v 0.158921 0.123763 -0.047048
v 0.157606 0.120542 -0.049037
v 0.161731 0.122345 -0.045294
v 0.164878 0.121293 -0.045197
v 0.169106 0.121042 -0.045469
v 0.160853 0.118916 -0.046277
v 0.163770 0.118245 -0.046611
v 0.167793 0.119298 -0.047865
v 0.155406 0.117763 -0.051211
v 0.153787 0.115174 -0.053887
v 0.159666 0.112218 -0.044269
v 0.157348 0.109601 -0.045210
v 0.155390 0.107433 -0.048221
v 0.161770 0.112581 -0.043863
v 0.163841 0.110860 -0.045005
v 0.166219 0.103269 -0.037150
v 0.171324 0.096232 -0.035006
v 0.176290 0.094229 -0.035335
v 0.180685 0.089758 -0.034751
v 0.166471 0.098731 -0.038373
v 0.163262 0.105506 -0.047441
v 0.164777 0.116553 -0.049501
v 0.162397 0.112968 -0.053515
v 0.180802 0.085103 -0.029707
v 0.179842 0.083403 -0.031904
v 0.180258 0.081765 -0.035655
v 0.181436 0.085007 -0.033408
v 0.181095 0.087313 -0.035783
v 0.178037 0.089292 -0.038684
v 0.180718 0.086758 -0.038796
v 0.174223 0.091309 -0.038269
v 0.170282 0.092620 -0.038927
v 0.177158 0.083505 -0.047830
v 0.180340 0.082771 -0.047670
v 0.173569 0.083689 -0.047199
v 0.169773 0.084820 -0.047731
v 0.172101 0.075541 -0.060759
v 0.182282 0.075531 -0.059517
v 0.179281 0.075567 -0.059597
v 0.176159 0.074928 -0.059165
v 0.181789 0.083839 -0.036962
v 0.182294 0.079420 -0.046661
v 0.184439 0.073286 -0.057504
v 0.181357 0.077632 -0.045976
v 0.183799 0.071613 -0.056770
v 0.187129 0.066346 -0.066895
v 0.184547 0.067547 -0.068947
v 0.173472 0.066022 -0.071188
v 0.177871 0.066151 -0.069403
v 0.181264 0.067090 -0.069490
v 0.186418 0.065023 -0.065534
v 0.186887 0.056363 -0.072353
v 0.187320 0.057611 -0.074150
v 0.184971 0.058440 -0.075652
v 0.181868 0.058186 -0.076168
v 0.178110 0.057520 -0.075665
v 0.173174 0.057317 -0.077189
v 0.185584 0.044290 -0.080284
v 0.185240 0.044960 -0.081674
v 0.183671 0.045536 -0.083159
v 0.181201 0.045900 -0.083941
v 0.177432 0.045426 -0.083155
v 0.172432 0.045741 -0.083969
v 0.182824 0.038560 -0.086934
v 0.180310 0.038949 -0.087846
v 0.176452 0.038723 -0.087358
v 0.171673 0.039270 -0.088309
v 0.185431 0.037213 -0.083880
v 0.184493 0.037803 -0.085539
v 0.185768 0.030271 -0.085730
v 0.187175 0.020637 -0.087691
v 0.184080 0.030849 -0.088063
v 0.181615 0.031492 -0.089999
v 0.178833 0.032102 -0.090857
v 0.175093 0.032422 -0.090457
v 0.170547 0.033445 -0.091829
v 0.183571 0.021281 -0.091244
v 0.179751 0.022368 -0.093973
v 0.176460 0.023502 -0.094868
v 0.172773 0.024736 -0.094241
v 0.169470 0.027327 -0.094789
v 0.184965 0.013770 -0.092122
v 0.180843 0.008047 -0.096428
v 0.176358 0.007890 -0.098879
v 0.171793 0.010645 -0.100704
v 0.166151 0.015546 -0.102081
v 0.161985 0.020721 -0.102727
v 0.167223 0.024990 -0.096996
v 0.170887 0.020817 -0.096484
v 0.174393 0.018791 -0.097402
v 0.177980 0.016679 -0.096811
v 0.181674 0.014933 -0.094626
v 0.171518 0.015903 -0.099245
v 0.168261 0.018083 -0.099195
v 0.164247 0.022755 -0.099945
v 0.156529 0.029500 -0.103932
v 0.150259 0.039388 -0.104879
v 0.144369 0.048737 -0.105153
v 0.139542 0.059209 -0.104454
v 0.135464 0.067847 -0.103648
v 0.132354 0.078911 -0.100664
v 0.133337 0.081339 -0.099194
v 0.160348 0.031008 -0.100104
v 0.165460 0.032363 -0.095680
v 0.156732 0.040619 -0.099728
v 0.164442 0.040515 -0.093763
v 0.163997 0.048704 -0.090230
v 0.153594 0.050042 -0.098099
v 0.149874 0.060538 -0.095403
v 0.162550 0.059295 -0.084740
v 0.161315 0.068190 -0.079627
v 0.147325 0.069110 -0.090615
v 0.159665 0.076954 -0.074093
v 0.145909 0.076702 -0.084564
v 0.166022 0.095136 -0.042378
v 0.161942 0.102479 -0.050778
v 0.159344 0.111071 -0.057249
v 0.155904 0.107510 -0.061049
v 0.159325 0.097285 -0.055836
v 0.164058 0.089811 -0.051181
v 0.162203 0.086353 -0.060440
v 0.156382 0.084686 -0.069986
v 0.146619 0.083514 -0.077760
v 0.156043 0.094770 -0.061470
v 0.151930 0.104669 -0.065345
v 0.151999 0.092357 -0.067989
v 0.149043 0.100896 -0.070017
v 0.145930 0.097816 -0.074228
v 0.147069 0.090583 -0.073600
v 0.142450 0.096256 -0.077516
v 0.139237 0.093508 -0.082140
v 0.137822 0.089501 -0.085610
v 0.135788 0.084802 -0.090641
v 0.142194 0.089915 -0.078483
v 0.138937 0.083224 -0.085732
v 0.132961 0.075507 -0.101500
v 0.128605 0.074625 -0.105706
v 0.128133 0.073806 -0.103526
v 0.133256 0.075070 -0.094987
v 0.147475 0.095749 0.006537
v 0.148115 0.094326 0.006534
v 0.149385 0.093762 0.005966
v 0.151477 0.095189 0.005853
v 0.152412 0.097435 0.005545
v 0.151616 0.099228 0.005794
v 0.149873 0.099624 0.005808
v 0.148560 0.097617 0.006372
v 0.150291 0.096290 0.006561
v 0.158157 0.093365 -0.052216
v 0.152943 0.093101 -0.060302
v 0.145588 0.091470 -0.066996
v 0.138417 0.088491 -0.071987
v 0.130690 0.089190 -0.076782
v 0.162783 0.083120 -0.061418
v 0.164769 0.074333 -0.068147
v 0.165996 0.066292 -0.073213
v 0.166162 0.057804 -0.078901
v 0.156271 0.083236 -0.067717
v 0.147963 0.081126 -0.074155
v 0.131602 0.084678 -0.085856
v 0.123485 0.091814 -0.079173
v 0.124273 0.089467 -0.085298
v 0.139100 0.078941 -0.083779
v 0.143316 0.070380 -0.087653
v 0.148862 0.063045 -0.089240
v 0.155359 0.055249 -0.089985
v 0.168549 0.047587 -0.083562
v 0.171312 0.036972 -0.086341
v 0.174422 0.028323 -0.087089
v 0.176721 0.019508 -0.087515
v 0.171104 0.018571 -0.091105
v 0.168871 0.026814 -0.091207
v 0.165498 0.035391 -0.091668
v 0.160829 0.045959 -0.091185
v 0.149781 0.072942 -0.079430
v 0.157632 0.074404 -0.072901
v 0.154445 0.065426 -0.082101
f 94 76 73
f 94 73 74
f 82 80 78
f 82 78 96
f 96 78 76
f 96 76 94
f 94 74 91
f 94 91 93
f 97 82 96
f 97 96 95
f 93 91 90
f 93 90 88
f 93 88 86
f 93 86 95
f 95 96 94
f 95 94 93
f 95 86 84
f 95 84 97
f 83 84 86
f 83 86 85
f 98 97 84
f 98 84 83
f 81 82 97
f 81 97 98
f 79 80 82
f 79 82 81
f 77 78 80
f 77 80 79
f 75 76 78
f 75 78 77
f 72 73 76
f 72 76 75
f 74 73 72
f 74 72 71
f 92 91 74
f 92 74 71
f 89 90 91
f 89 91 92
f 87 88 90
f 87 90 89
f 87 85 86
f 87 86 88
f 87 89 172
f 87 172 169
f 99 164 169
f 99 169 110
f 113 112 59
f 113 59 58
f 99 110 112
f 99 112 113
f 83 85 164
f 83 164 163
f 109 172 162
f 109 162 108
f 108 162 161
f 108 161 107
f 107 161 159
f 107 159 106
f 111 61 59
f 111 59 112
f 112 110 109
f 112 109 111
f 135 111 109
f 135 109 108
f 63 61 111
f 63 111 121
f 136 135 108
f 136 108 107
f 137 136 107
f 137 107 106
f 149 173 175
f 149 175 186
f 186 174 144
f 186 144 150
f 158 173 149
f 158 149 160
f 125 124 123
f 125 123 122
f 158 157 124
f 158 124 125
f 130 63 121
f 130 121 129
f 129 122 123
f 129 123 130
f 173 158 125
f 173 125 122
f 151 150 144
f 151 144 145
f 165 184 186
f 165 186 150
f 149 186 184
f 149 184 171
f 160 149 171
f 160 171 170
f 166 165 150
f 166 150 151
f 178 180 152
f 178 152 154
f 151 145 180
f 151 180 178
f 155 154 152
f 155 152 157
f 167 176 178
f 167 178 154
f 128 124 157
f 128 157 152
f 181 128 152
f 181 152 180
f 181 180 145
f 181 145 134
f 127 123 124
f 127 124 128
f 182 127 128
f 182 128 181
f 182 181 134
f 182 134 133
f 131 130 123
f 131 123 127
f 151 178 176
f 151 176 166
f 168 167 154
f 168 154 155
f 155 157 158
f 155 158 160
f 155 160 170
f 155 170 168
f 100 101 146
f 100 146 163
f 81 98 146
f 81 146 147
f 79 81 147
f 79 147 148
f 77 79 148
f 77 148 153
f 75 77 153
f 75 153 156
f 72 75 156
f 72 156 159
f 71 72 159
f 71 159 161
f 121 111 135
f 121 135 139
f 175 129 121
f 175 121 139
f 173 122 129
f 173 129 175
f 186 175 139
f 186 139 174
f 92 71 161
f 92 161 162
f 140 139 135
f 140 135 136
f 143 134 145
f 143 145 144
f 187 174 139
f 187 139 140
f 143 144 174
f 143 174 187
f 132 133 134
f 132 134 143
f 141 140 136
f 141 136 137
f 188 187 140
f 188 140 141
f 132 143 187
f 132 187 188
f 191 126 131
f 191 131 183
f 183 131 127
f 183 127 182
f 183 182 133
f 183 133 132
f 183 132 188
f 183 188 191
f 126 63 130
f 126 130 131
f 191 188 141
f 191 141 189
f 192 126 191
f 192 191 189
f 192 65 63
f 192 63 126
f 193 65 192
f 193 192 189
f 67 65 193
f 67 193 194
f 69 67 194
f 69 194 195
f 13 69 195
f 13 195 196
f 12 13 196
f 12 196 197
f 9 12 197
f 9 197 198
f 7 9 198
f 7 198 199
f 5 7 199
f 5 199 200
f 1 5 200
f 1 200 201
f 2 1 201
f 2 201 202
f 16 2 202
f 16 202 203
f 232 230 231
f 232 231 233
f 294 267 265
f 294 265 293
f 269 267 294
f 269 294 295
f 272 269 295
f 272 295 296
f 295 294 293
f 295 293 302
f 296 295 302
f 296 302 305
f 273 272 296
f 273 296 297
f 298 275 273
f 298 273 297
f 277 275 298
f 277 298 299
f 297 296 305
f 297 305 304
f 299 298 297
f 299 297 304
f 279 277 299
f 279 299 300
f 281 279 300
f 281 300 301
f 283 281 301
f 283 301 311
f 287 285 283
f 287 283 311
f 312 287 311
f 312 311 310
f 310 311 301
f 310 301 309
f 309 301 300
f 309 300 308
f 308 300 299
f 308 299 307
f 307 299 304
f 307 304 303
f 303 304 305
f 303 305 306
f 306 305 302
f 306 302 292
f 291 292 302
f 291 302 293
f 290 291 293
f 290 293 265
f 290 265 263
f 290 263 289
f 289 263 261
f 289 261 262
f 248 249 243
f 248 243 242
f 242 243 240
f 242 240 239
f 239 240 236
f 239 236 237
f 232 233 203
f 232 203 229
f 229 203 202
f 229 202 228
f 330 242 239
f 330 239 331
f 262 261 257
f 262 257 258
f 254 255 258
f 254 258 257
f 252 253 255
f 252 255 254
f 249 248 245
f 249 245 244
f 244 245 253
f 244 253 252
f 201 200 226
f 201 226 227
f 228 202 201
f 228 201 227
f 226 200 199
f 226 199 225
f 333 228 227
f 333 227 336
f 225 199 198
f 225 198 224
f 336 227 226
f 336 226 225
f 334 331 332
f 334 332 333
f 333 332 229
f 333 229 228
f 336 225 224
f 336 224 337
f 337 334 333
f 337 333 336
f 224 198 197
f 224 197 223
f 223 197 196
f 223 196 222
f 222 196 195
f 222 195 221
f 341 337 224
f 341 224 223
f 329 248 242
f 329 242 330
f 330 331 334
f 330 334 335
f 335 334 337
f 335 337 341
f 326 255 253
f 326 253 327
f 328 245 248
f 328 248 329
f 328 327 253
f 328 253 245
f 329 330 335
f 329 335 338
f 344 327 328
f 344 328 346
f 346 328 329
f 346 329 338
f 221 195 194
f 221 194 220
f 344 346 338
f 344 338 339
f 339 338 342
f 339 342 343
f 342 341 223
f 342 223 222
f 338 335 341
f 338 341 342
f 342 222 221
f 342 221 343
f 347 343 221
f 347 221 220
f 340 339 343
f 340 343 347
f 345 344 339
f 345 339 340
f 345 326 327
f 345 327 344
f 325 258 255
f 325 255 326
f 190 189 141
f 190 141 142
f 219 193 189
f 219 189 190
f 220 194 193
f 220 193 219
f 348 347 220
f 348 220 219
f 142 141 137
f 142 137 138
f 106 159 156
f 106 156 105
f 138 137 106
f 138 106 105
f 288 287 312
f 288 312 313
f 286 285 287
f 286 287 288
f 284 283 285
f 284 285 286
f 282 281 283
f 282 283 284
f 280 279 281
f 280 281 282
f 278 277 279
f 278 279 280
f 276 275 277
f 276 277 278
f 274 273 275
f 274 275 276
f 271 272 273
f 271 273 274
f 270 269 272
f 270 272 271
f 268 267 269
f 268 269 270
f 266 265 267
f 266 267 268
f 264 263 265
f 264 265 266
f 260 261 263
f 260 263 264
f 259 257 261
f 259 261 260
f 256 254 257
f 256 257 259
f 251 252 254
f 251 254 256
f 246 244 252
f 246 252 251
f 249 244 246
f 249 246 250
f 247 243 249
f 247 249 250
f 241 240 243
f 241 243 247
f 286 288 355
f 286 355 357
f 284 286 357
f 284 357 358
f 314 310 309
f 314 309 315
f 314 313 312
f 314 312 310
f 355 288 313
f 355 313 356
f 356 313 314
f 356 314 380
f 379 357 355
f 379 355 378
f 384 356 380
f 384 380 385
f 378 355 356
f 378 356 384
f 378 384 385
f 378 385 386
f 381 358 357
f 381 357 379
f 381 379 378
f 381 378 386
f 282 284 358
f 282 358 359
f 359 358 381
f 359 381 388
f 280 282 359
f 280 359 360
f 388 381 386
f 388 386 383
f 383 386 385
f 383 385 387
f 387 385 380
f 387 380 382
f 382 380 314
f 382 314 315
f 315 309 308
f 315 308 316
f 360 359 388
f 360 388 389
f 278 280 360
f 278 360 361
f 390 389 388
f 390 388 383
f 391 390 383
f 391 383 387
f 392 391 387
f 392 387 382
f 392 382 315
f 392 315 316
f 317 316 308
f 317 308 307
f 361 360 389
f 361 389 393
f 276 278 361
f 276 361 362
f 394 393 389
f 394 389 390
f 395 394 390
f 395 390 391
f 396 395 391
f 396 391 392
f 396 392 316
f 396 316 317
f 318 317 307
f 318 307 303
f 362 361 393
f 362 393 397
f 397 393 394
f 397 394 398
f 274 276 362
f 274 362 363
f 363 362 397
f 363 397 401
f 271 274 363
f 271 363 364
f 399 398 394
f 399 394 395
f 401 397 398
f 401 398 402
f 400 399 395
f 400 395 396
f 400 396 317
f 400 317 318
f 319 318 303
f 319 303 306
f 402 398 399
f 402 399 405
f 400 318 319
f 400 319 407
f 405 399 400
f 405 400 407
f 320 319 306
f 320 306 292
f 321 320 292
f 321 292 291
f 407 319 320
f 407 320 408
f 322 321 291
f 322 291 290
f 406 405 407
f 406 407 408
f 408 320 321
f 408 321 409
f 404 402 405
f 404 405 406
f 364 363 401
f 364 401 403
f 403 401 402
f 403 402 404
f 270 271 364
f 270 364 365
f 411 406 408
f 411 408 409
f 404 406 411
f 404 411 412
f 403 404 412
f 403 412 413
f 365 364 403
f 365 403 413
f 268 270 365
f 268 365 366
f 323 322 290
f 323 290 289
f 410 409 321
f 410 321 322
f 324 323 289
f 324 289 262
f 324 262 258
f 324 258 325
f 325 326 345
f 325 345 350
f 410 322 323
f 410 323 417
f 418 417 323
f 418 323 324
f 418 324 325
f 418 325 350
f 350 345 340
f 350 340 349
f 340 347 348
f 340 348 349
f 411 409 410
f 411 410 414
f 421 349 348
f 421 348 351
f 421 418 350
f 421 350 349
f 420 417 418
f 420 418 421
f 419 420 352
f 419 352 353
f 422 414 410
f 422 410 419
f 419 410 417
f 419 417 420
f 351 190 142
f 351 142 352
f 348 219 190
f 348 190 351
f 351 352 420
f 351 420 421
f 352 142 138
f 352 138 353
f 412 411 414
f 412 414 415
f 105 156 153
f 105 153 104
f 104 153 148
f 104 148 103
f 103 148 147
f 103 147 102
f 354 105 104
f 354 104 424
f 353 138 105
f 353 105 354
f 422 419 353
f 422 353 354
f 423 415 414
f 423 414 422
f 422 354 424
f 422 424 423
f 413 412 415
f 413 415 416
f 366 365 413
f 366 413 416
f 266 268 366
f 266 366 367
f 367 366 416
f 367 416 430
f 416 415 423
f 416 423 430
f 264 266 367
f 264 367 368
f 102 147 146
f 102 146 101
f 98 83 163
f 98 163 146
f 100 99 113
f 100 113 116
f 116 113 58
f 116 58 114
f 432 101 100
f 432 100 116
f 427 102 101
f 427 101 432
f 426 103 102
f 426 102 427
f 425 104 103
f 425 103 426
f 439 426 427
f 439 427 437
f 443 439 437
f 443 437 441
f 432 116 433
f 432 433 435
f 436 427 432
f 436 432 435
f 438 437 427
f 438 427 436
f 438 436 435
f 438 435 449
f 434 433 116
f 434 116 114
f 449 435 433
f 449 433 434
f 442 441 437
f 442 437 438
f 442 438 449
f 442 449 450
f 115 114 58
f 115 58 56
f 452 434 114
f 452 114 115
f 450 449 434
f 450 434 452
f 117 115 56
f 117 56 54
f 451 450 452
f 451 452 453
f 446 442 450
f 446 450 451
f 447 441 442
f 447 442 446
f 448 443 441
f 448 441 447
f 453 452 115
f 453 115 117
f 118 117 54
f 118 54 52
f 453 117 118
f 453 118 459
f 454 451 453
f 454 453 459
f 446 451 454
f 446 454 455
f 447 446 455
f 447 455 458
f 457 448 447
f 457 447 458
f 218 46 44
f 218 44 217
f 217 44 42
f 217 42 216
f 478 476 218
f 478 218 217
f 477 476 478
f 477 478 480
f 472 477 480
f 472 480 481
f 473 472 481
f 473 481 482
f 474 473 482
f 474 482 483
f 479 478 217
f 479 217 216
f 216 42 40
f 216 40 215
f 215 40 38
f 215 38 214
f 214 38 36
f 214 36 213
f 213 36 33
f 213 33 212
f 212 33 31
f 212 31 211
f 211 31 30
f 211 30 210
f 488 483 482
f 488 482 487
f 487 482 481
f 487 481 486
f 486 481 480
f 486 480 485
f 485 480 478
f 485 478 479
f 490 215 214
f 490 214 491
f 490 479 216
f 490 216 215
f 500 490 491
f 500 491 492
f 492 491 214
f 492 214 213
f 500 485 479
f 500 479 490
f 499 500 492
f 499 492 493
f 499 486 485
f 499 485 500
f 498 487 486
f 498 486 499
f 493 492 213
f 493 213 212
f 501 498 499
f 501 499 493
f 494 493 212
f 494 212 211
f 497 488 487
f 497 487 498
f 501 493 494
f 501 494 502
f 497 498 501
f 497 501 502
f 495 494 211
f 495 211 210
f 210 30 28
f 210 28 209
f 209 28 26
f 209 26 208
f 208 26 24
f 208 24 207
f 207 24 22
f 207 22 206
f 504 495 210
f 504 210 209
f 502 494 495
f 502 495 503
f 496 497 502
f 496 502 503
f 496 489 488
f 496 488 497
f 484 483 488
f 484 488 489
f 505 504 209
f 505 209 208
f 503 495 504
f 503 504 511
f 496 503 511
f 496 511 512
f 484 489 496
f 484 496 512
f 475 474 483
f 475 483 484
f 475 484 512
f 475 512 514
f 514 512 511
f 514 511 513
f 511 504 505
f 511 505 513
f 506 505 208
f 506 208 207
f 507 506 207
f 507 207 206
f 516 513 505
f 516 505 506
f 515 514 513
f 515 513 516
f 471 475 514
f 471 514 515
f 48 46 218
f 48 218 120
f 119 118 52
f 119 52 50
f 120 119 50
f 120 50 48
f 463 458 455
f 463 455 462
f 472 473 469
f 472 469 468
f 455 454 461
f 455 461 462
f 462 461 467
f 462 467 468
f 468 469 463
f 468 463 462
f 468 467 477
f 468 477 472
f 461 454 459
f 461 459 460
f 476 477 467
f 476 467 466
f 460 459 118
f 460 118 119
f 460 119 120
f 460 120 466
f 466 467 461
f 466 461 460
f 466 120 218
f 466 218 476
f 474 475 471
f 474 471 470
f 457 458 463
f 457 463 464
f 464 463 469
f 464 469 470
f 470 469 473
f 470 473 474
f 465 464 470
f 465 470 471
f 456 457 464
f 456 464 465
f 465 471 515
f 465 515 518
f 518 515 516
f 518 516 517
f 516 506 507
f 516 507 517
f 519 456 465
f 519 465 518
f 520 519 518
f 520 518 517
f 425 426 439
f 425 439 440
f 428 424 104
f 428 104 425
f 429 423 424
f 429 424 428
f 368 367 430
f 368 430 431
f 431 430 423
f 431 423 429
f 260 264 368
f 260 368 369
f 259 260 369
f 259 369 370
f 369 368 431
f 369 431 525
f 525 431 429
f 525 429 524
f 524 429 428
f 524 428 523
f 428 425 440
f 428 440 523
f 440 439 443
f 440 443 444
f 445 444 443
f 445 443 448
f 445 448 457
f 445 457 456
f 528 523 440
f 528 440 444
f 521 445 456
f 521 456 519
f 528 444 445
f 528 445 529
f 527 524 523
f 527 523 528
f 526 525 524
f 526 524 527
f 526 370 369
f 526 369 525
f 256 259 370
f 256 370 371
f 527 528 529
f 527 529 532
f 371 370 526
f 371 526 533
f 526 527 532
f 526 532 533
f 251 256 371
f 251 371 372
f 246 251 372
f 246 372 373
f 372 371 533
f 372 533 535
f 535 533 532
f 535 532 534
f 536 373 372
f 536 372 535
f 250 246 373
f 250 373 374
f 247 250 374
f 247 374 375
f 241 247 375
f 241 375 376
f 510 235 238
f 510 238 377
f 530 529 445
f 530 445 521
f 534 532 529
f 534 529 530
f 374 373 536
f 374 536 538
f 539 375 374
f 539 374 538
f 537 536 535
f 537 535 534
f 376 375 539
f 376 539 540
f 542 538 536
f 542 536 537
f 540 539 538
f 540 538 542
f 537 534 530
f 537 530 531
f 377 376 540
f 377 540 541
f 520 517 507
f 520 507 508
f 509 510 377
f 509 377 541
f 522 521 519
f 522 519 520
f 531 530 521
f 531 521 522
f 542 537 531
f 542 531 543
f 541 540 542
f 541 542 543
f 204 203 233
f 204 233 231
f 17 16 203
f 17 203 204
f 206 22 20
f 206 20 205
f 205 20 546
f 205 546 545
f 508 507 206
f 508 206 205
f 545 544 508
f 545 508 205
f 545 204 231
f 545 231 234
f 234 231 230
f 234 230 235
f 234 235 510
f 234 510 509
f 234 509 544
f 234 544 545
f 522 520 508
f 522 508 544
f 544 509 541
f 544 541 543
f 543 531 522
f 543 522 544
f 546 17 204
f 546 204 545
f 89 92 162
f 89 162 172
f 99 100 163
f 99 163 164
f 85 87 169
f 85 169 164
f 109 110 169
f 109 169 172
f 238 241 376
f 238 376 377
f 238 236 240
f 238 240 241
f 235 230 236
f 235 236 238
f 332 331 239
f 332 239 237
f 548 167 168
f 548 168 549
f 549 168 170
f 549 170 550
f 555 176 167
f 555 167 548
f 551 550 170
f 551 170 171
f 551 171 184
f 551 184 552
f 555 554 166
f 555 166 176
f 556 551 552
f 556 552 553
f 553 552 184
f 553 184 165
f 553 165 166
f 553 166 554
f 553 554 555
f 553 555 556
f 556 555 548
f 556 548 549
f 556 549 550
f 556 550 551
f 62 60 59
f 62 59 61
f 62 61 63
f 62 63 64
f 66 64 63
f 66 63 65
f 57 58 59
f 57 59 60
f 57 60 62
f 57 62 557
f 68 66 65
f 68 65 67
f 70 68 67
f 70 67 69
f 70 69 13
f 70 13 14
f 14 13 12
f 14 12 11
f 557 62 64
f 557 64 66
f 55 56 58
f 55 58 57
f 53 54 56
f 53 56 55
f 51 52 54
f 51 54 53
f 49 50 52
f 49 52 51
f 55 57 557
f 55 557 562
f 558 557 66
f 558 66 68
f 559 558 68
f 559 68 70
f 11 12 9
f 11 9 10
f 15 16 17
f 15 17 18
f 10 9 7
f 10 7 8
f 569 561 11
f 569 11 10
f 4 1 2
f 4 2 3
f 3 2 16
f 3 16 15
f 15 570 4
f 15 4 3
f 4 6 5
f 4 5 1
f 570 569 6
f 570 6 4
f 8 7 5
f 8 5 6
f 569 10 8
f 569 8 6
f 547 18 17
f 547 17 546
f 547 546 20
f 547 20 19
f 21 19 20
f 21 20 22
f 23 21 22
f 23 22 24
f 45 43 44
f 45 44 46
f 47 45 46
f 47 46 48
f 47 48 50
f 47 50 49
f 41 42 44
f 41 44 43
f 29 30 31
f 29 31 32
f 576 577 43
f 576 43 45
f 27 28 30
f 27 30 29
f 25 23 24
f 25 24 26
f 25 26 28
f 25 28 27
f 25 27 581
f 25 581 582
f 575 576 45
f 575 45 47
f 582 581 576
f 582 576 575
f 581 27 29
f 581 29 580
f 581 580 577
f 581 577 576
f 34 32 31
f 34 31 33
f 580 29 32
f 580 32 579
f 579 32 34
f 579 34 35
f 35 34 33
f 35 33 36
f 35 36 38
f 35 38 37
f 35 37 578
f 35 578 579
f 37 38 40
f 37 40 39
f 37 39 41
f 37 41 578
f 39 40 42
f 39 42 41
f 41 43 577
f 41 577 578
f 578 577 580
f 578 580 579
f 574 23 25
f 574 25 582
f 560 559 70
f 560 70 14
f 560 14 11
f 560 11 561
f 560 561 568
f 560 568 571
f 568 561 569
f 568 569 570
f 570 15 18
f 570 18 568
f 568 18 547
f 568 547 571
f 567 559 560
f 567 560 571
f 571 547 19
f 571 19 572
f 566 562 557
f 566 557 558
f 566 558 559
f 566 559 567
f 53 55 562
f 53 562 563
f 573 572 19
f 573 19 21
f 567 571 572
f 567 572 583
f 584 566 567
f 584 567 583
f 584 563 562
f 584 562 566
f 51 53 563
f 51 563 564
f 574 573 21
f 574 21 23
f 583 572 573
f 583 573 585
f 585 573 574
f 585 574 179
f 584 583 585
f 584 585 185
f 564 563 584
f 564 584 185
f 565 49 51
f 565 51 564
f 185 585 179
f 185 179 177
f 575 47 49
f 575 49 565
f 565 564 185
f 565 185 177
f 574 582 575
f 574 575 565
f 177 179 574
f 177 574 565
f 237 232 229
f 237 229 332
f 236 230 232
f 236 232 237
