# T10 posed
v -0.394589 -0.029356 0.478807
v -0.394657 -0.028574 0.479045
v -0.393386 -0.028829 0.479961
v -0.393881 -0.030030 0.479311
v -0.395247 -0.029510 0.478549
v -0.395540 -0.028530 0.478826
v -0.395691 -0.030395 0.478874
v -0.397314 -0.030504 0.477729
v -0.396997 -0.029431 0.477408
v -0.394650 -0.029289 0.481291
v -0.395343 -0.030104 0.480680
v -0.397223 -0.030341 0.480475
v -0.397454 -0.028267 0.477829
v -0.415345 -0.013796 0.425556
v -0.415402 -0.012723 0.422897
v -0.415463 -0.011414 0.423298
v -0.415392 -0.012299 0.426085
v -0.415031 -0.013413 0.429613
v -0.414999 -0.014967 0.428741
v -0.414742 -0.012061 0.420271
v -0.414948 -0.010639 0.420913
v -0.414559 -0.014483 0.433014
v -0.414539 -0.016179 0.431996
v -0.414285 -0.015428 0.436004
v -0.414249 -0.017459 0.434977
v -0.414605 -0.027283 0.473405
v -0.415811 -0.026866 0.471770
v -0.411743 -0.028643 0.468572
v -0.410719 -0.028847 0.470303
v -0.410302 -0.028924 0.471910
v -0.413381 -0.027765 0.475030
v -0.417364 -0.026469 0.470383
v -0.413371 -0.028407 0.467043
v -0.403224 -0.025801 0.469565
v -0.402546 -0.027207 0.468358
v -0.403315 -0.026602 0.467943
v -0.403864 -0.025468 0.468464
v -0.403026 -0.026154 0.470693
v -0.402098 -0.027552 0.469814
v -0.402734 -0.026546 0.471948
v -0.401953 -0.027617 0.471358
v -0.401472 -0.026770 0.472765
v -0.400938 -0.027800 0.472455
v -0.398372 -0.027899 0.476591
v -0.397735 -0.029151 0.476236
v -0.399844 -0.028224 0.474002
v -0.400314 -0.027215 0.474269
v -0.403934 -0.026576 0.466613
v -0.404606 -0.025166 0.467448
v -0.405362 -0.026519 0.465174
v -0.406055 -0.024813 0.466209
v -0.408035 -0.026505 0.464116
v -0.408660 -0.024719 0.465677
v -0.411721 -0.026665 0.462938
v -0.413262 -0.024477 0.464502
v -0.415697 -0.026444 0.461514
v -0.416954 -0.024044 0.462807
v -0.417738 -0.024932 0.458326
v -0.417710 -0.022846 0.458980
v -0.420791 -0.024655 0.458146
v -0.420754 -0.022853 0.458727
v -0.423762 -0.019517 0.447984
v -0.428140 -0.019591 0.447820
v -0.428092 -0.021972 0.447353
v -0.423710 -0.022126 0.447160
v -0.419894 -0.022549 0.446593
v -0.420409 -0.019155 0.447151
v -0.416181 -0.020533 0.444803
v -0.416360 -0.018423 0.445220
v -0.432321 -0.019534 0.447263
v -0.432279 -0.021951 0.446912
v -0.434621 -0.019315 0.446367
v -0.434520 -0.022074 0.445714
v -0.414862 -0.019926 0.441515
v -0.414935 -0.017367 0.442031
v -0.412679 -0.011641 0.416185
v -0.412879 -0.009251 0.416744
v -0.414415 -0.016324 0.438806
v -0.414141 -0.020473 0.437729
v -0.413713 -0.011815 0.413726
v -0.413954 -0.008448 0.414343
v -0.419646 -0.012577 0.414631
v -0.419750 -0.008904 0.415224
v -0.433382 -0.018672 0.444461
v -0.433452 -0.022093 0.443759
v -0.424526 -0.024689 0.458987
v -0.424510 -0.023282 0.459732
v -0.426224 -0.025284 0.461894
v -0.425528 -0.024217 0.462576
v -0.425728 -0.012992 0.415404
v -0.425814 -0.009330 0.416017
v -0.430684 -0.012903 0.415870
v -0.430663 -0.009627 0.416529
v -0.432854 -0.012960 0.416638
v -0.432871 -0.010004 0.417298
v -0.433068 -0.012869 0.418219
v -0.433194 -0.010468 0.418727
v -0.432481 -0.013268 0.420547
v -0.432576 -0.011247 0.421226
v -0.431239 -0.015792 0.425347
v -0.431192 -0.012959 0.426728
v -0.430728 -0.018361 0.430121
v -0.430619 -0.014551 0.431774
v -0.431089 -0.021411 0.435218
v -0.430833 -0.016015 0.436351
v -0.431402 -0.021507 0.438818
v -0.431231 -0.017106 0.439738
v -0.432080 -0.021747 0.441288
v -0.431949 -0.017915 0.442215
v -0.425731 -0.026768 0.463767
v -0.425891 -0.025114 0.465360
v -0.397175 -0.029444 0.481548
v -0.398207 -0.029464 0.481519
v -0.398377 -0.030854 0.479897
v -0.400095 -0.029615 0.481821
v -0.400043 -0.030492 0.481043
v -0.403006 -0.029605 0.481525
v -0.402335 -0.030573 0.480442
v -0.406495 -0.029308 0.480279
v -0.405562 -0.030098 0.479142
v -0.408323 -0.028897 0.478823
v -0.406932 -0.029734 0.477396
v -0.409459 -0.028440 0.477287
v -0.407777 -0.029269 0.475678
v -0.411471 -0.028065 0.475926
v -0.409319 -0.028883 0.473817
v -0.406928 -0.028915 0.465157
v -0.403470 -0.028675 0.462910
v -0.402456 -0.028742 0.464903
v -0.405626 -0.028973 0.467077
v -0.408940 -0.029104 0.463452
v -0.410267 -0.029223 0.461949
v -0.406801 -0.029528 0.460158
v -0.405967 -0.029298 0.461224
v -0.418808 -0.026054 0.468951
v -0.415969 -0.028306 0.465113
v -0.421559 -0.025568 0.467177
v -0.421351 -0.028775 0.463206
v -0.430727 -0.031310 0.438787
v -0.429191 -0.031457 0.439300
v -0.429476 -0.031225 0.441436
v -0.431287 -0.030623 0.440780
v -0.430330 -0.031502 0.443216
v -0.432011 -0.030717 0.442639
v -0.413719 -0.035841 0.456160
v -0.414494 -0.037531 0.453634
v -0.410807 -0.037100 0.453058
v -0.408655 -0.036166 0.454763
v -0.413071 -0.033604 0.457707
v -0.408039 -0.033874 0.456394
v -0.409249 -0.027225 0.453731
v -0.406918 -0.027873 0.453722
v -0.405567 -0.029758 0.453187
v -0.407580 -0.029923 0.453085
v -0.411369 -0.027218 0.453490
v -0.409638 -0.030050 0.452792
v -0.413319 -0.027599 0.452982
v -0.411887 -0.030090 0.452363
v -0.414559 -0.030292 0.451883
v -0.414775 -0.028549 0.452411
v -0.411385 -0.032876 0.451340
v -0.413914 -0.032032 0.451367
v -0.405174 -0.031401 0.452381
v -0.406726 -0.032416 0.451929
v -0.408943 -0.033074 0.451516
v -0.402568 -0.027398 0.466597
v -0.402831 -0.027533 0.465236
v -0.404057 -0.027564 0.463609
v -0.406878 -0.027836 0.462477
v -0.408976 -0.028104 0.461529
v -0.410351 -0.027403 0.459846
v -0.416888 -0.025761 0.457914
v -0.427216 -0.050236 0.454052
v -0.428879 -0.049868 0.453694
v -0.429306 -0.048410 0.453434
v -0.427206 -0.047615 0.454200
v -0.423222 -0.046854 0.452652
v -0.422870 -0.048086 0.452808
v -0.423642 -0.049385 0.453597
v -0.424293 -0.047050 0.453859
v -0.424814 -0.045197 0.453217
v -0.423906 -0.045669 0.452546
v -0.429199 -0.046866 0.453257
v -0.427751 -0.045624 0.453715
v -0.425571 -0.047262 0.454362
v -0.425291 -0.050239 0.454074
v -0.426165 -0.045038 0.453736
v -0.424852 -0.044470 0.452452
v -0.423629 -0.045199 0.451686
v -0.422465 -0.046554 0.451446
v -0.421874 -0.048454 0.452026
v -0.422785 -0.050765 0.453132
v -0.425182 -0.052312 0.453818
v -0.427839 -0.052426 0.453968
v -0.429995 -0.051412 0.453623
v -0.431044 -0.049544 0.452929
v -0.430561 -0.046871 0.452616
v -0.428484 -0.044850 0.453094
v -0.426630 -0.044217 0.453069
v -0.427903 -0.024313 0.447245
v -0.423963 -0.024742 0.446985
v -0.425236 -0.026500 0.448318
v -0.428010 -0.026137 0.448198
v -0.428462 -0.027051 0.449364
v -0.426561 -0.027408 0.449895
v -0.421513 -0.025695 0.447557
v -0.423362 -0.027112 0.449126
v -0.423947 -0.027820 0.450794
v -0.424732 -0.027546 0.452305
v -0.427670 -0.027804 0.451032
v -0.419958 -0.027170 0.448556
v -0.417591 -0.025003 0.447079
v -0.416242 -0.032952 0.451525
v -0.417472 -0.030712 0.452067
v -0.413121 -0.034622 0.450737
v -0.409412 -0.035041 0.450668
v -0.410685 -0.036576 0.451713
v -0.405881 -0.035599 0.452498
v -0.405611 -0.034146 0.451094
v -0.404067 -0.032772 0.454173
v -0.403609 -0.031966 0.452081
v -0.406224 -0.029920 0.458487
v -0.406292 -0.031360 0.457218
v -0.404622 -0.030174 0.455461
v -0.403810 -0.029426 0.453399
v -0.406350 -0.026574 0.454559
v -0.407684 -0.027107 0.456396
v -0.412436 -0.026319 0.456870
v -0.410444 -0.025673 0.454818
v -0.413596 -0.026028 0.454280
v -0.416362 -0.026635 0.456549
v -0.421317 -0.028619 0.449727
v -0.430148 -0.035104 0.455576
v -0.430740 -0.036631 0.453705
v -0.429703 -0.037824 0.454644
v -0.428604 -0.036106 0.456293
v -0.432765 -0.036565 0.455039
v -0.433065 -0.037016 0.453352
v -0.432335 -0.034223 0.456463
v -0.433530 -0.035245 0.455963
v -0.422320 -0.039756 0.456848
v -0.422558 -0.042818 0.457464
v -0.421604 -0.042800 0.455596
v -0.421029 -0.040563 0.454871
v -0.424518 -0.039418 0.457726
v -0.424560 -0.042799 0.458162
v -0.429913 -0.032342 0.457137
v -0.428185 -0.032200 0.457630
v -0.432581 -0.032553 0.457098
v -0.429026 -0.029044 0.458467
v -0.429265 -0.027058 0.457871
v -0.431103 -0.027519 0.456770
v -0.431357 -0.029444 0.457740
v -0.433809 -0.027912 0.455395
v -0.434327 -0.028605 0.457263
v -0.415108 -0.015965 0.424692
v -0.415235 -0.014315 0.422877
v -0.414641 -0.017753 0.427694
v -0.414199 -0.018804 0.430811
v -0.414027 -0.019284 0.433169
v -0.415096 -0.023419 0.445196
v -0.413840 -0.024023 0.442001
v -0.411905 -0.027453 0.439127
v -0.412820 -0.024266 0.433146
v -0.412670 -0.024029 0.429162
v -0.413559 -0.021024 0.425235
v -0.414068 -0.017977 0.421834
v -0.414423 -0.014617 0.420378
v -0.412108 -0.015287 0.416276
v -0.411629 -0.020201 0.417980
v -0.411342 -0.024420 0.421118
v -0.410340 -0.028106 0.426073
v -0.410450 -0.029246 0.433008
v -0.414979 -0.028151 0.447387
v -0.418310 -0.029217 0.447497
v -0.418990 -0.030460 0.444824
v -0.414298 -0.030165 0.445711
v -0.437887 -0.031747 0.452177
v -0.436923 -0.030083 0.452872
v -0.435587 -0.030257 0.451655
v -0.436153 -0.032024 0.451413
v -0.438117 -0.033743 0.451879
v -0.436141 -0.033736 0.451544
v -0.437392 -0.035103 0.451964
v -0.435505 -0.034929 0.451778
v -0.434098 -0.034675 0.451408
v -0.434072 -0.033885 0.451105
v -0.434339 -0.032570 0.450705
v -0.431937 -0.024738 0.447375
v -0.431299 -0.026601 0.448772
v -0.430737 -0.027669 0.450281
v -0.421473 -0.025898 0.457555
v -0.429305 -0.028021 0.452572
v -0.427409 -0.027495 0.453760
v -0.430747 -0.028157 0.451573
v -0.425154 -0.025884 0.458499
v -0.426247 -0.026209 0.457357
v -0.423273 -0.026638 0.456624
v -0.427756 -0.026853 0.456527
v -0.425246 -0.027045 0.454986
v -0.436071 -0.013449 0.457010
v -0.434809 -0.012292 0.455938
v -0.433389 -0.014223 0.455061
v -0.433310 -0.015071 0.456777
v -0.432919 -0.028657 0.452449
v -0.432981 -0.028360 0.450557
v -0.433144 -0.027543 0.448780
v -0.432752 -0.015566 0.418445
v -0.432339 -0.015116 0.420091
v -0.432542 -0.016493 0.417000
v -0.430547 -0.016715 0.416174
v -0.425612 -0.017317 0.415846
v -0.432189 -0.021282 0.418589
v -0.432153 -0.020086 0.420156
v -0.431597 -0.018278 0.422888
v -0.431219 -0.021819 0.426888
v -0.431446 -0.024806 0.431709
v -0.434517 -0.025445 0.446427
v -0.430392 -0.021838 0.417827
v -0.425293 -0.022426 0.417940
v -0.431731 -0.024439 0.424073
v -0.431784 -0.026126 0.422358
v -0.430085 -0.027084 0.421783
v -0.424614 -0.028007 0.423568
v -0.433003 -0.030491 0.440087
v -0.432280 -0.031349 0.438345
v -0.433503 -0.030281 0.441850
v -0.432802 -0.031121 0.444385
v -0.433686 -0.030485 0.443277
v -0.431584 -0.031847 0.444959
v -0.429099 -0.032067 0.443545
v -0.430268 -0.032249 0.444754
v -0.427875 -0.031805 0.440042
v -0.428108 -0.031889 0.441907
v -0.428977 -0.032407 0.437400
v -0.427993 -0.032136 0.438521
v -0.430097 -0.032710 0.436855
v -0.431259 -0.032399 0.436973
v -0.431916 -0.026927 0.429407
v -0.432229 -0.027953 0.432141
v -0.432155 -0.027658 0.434107
v -0.431954 -0.026854 0.436403
v -0.432000 -0.025686 0.438758
v -0.432671 -0.025062 0.441070
v -0.434392 -0.026268 0.444935
v -0.434283 -0.030515 0.450135
v -0.433729 -0.028844 0.448291
v -0.433847 -0.027461 0.441272
v -0.434235 -0.028220 0.444389
v -0.434619 -0.029894 0.443753
v -0.434704 -0.029564 0.441606
v -0.434145 -0.029892 0.439499
v -0.433174 -0.027840 0.438996
v -0.432902 -0.029082 0.436916
v -0.433309 -0.030928 0.437622
v -0.432035 -0.029139 0.428628
v -0.432332 -0.029849 0.432274
v -0.432567 -0.030052 0.435113
v -0.430697 -0.030849 0.428542
v -0.431182 -0.031833 0.432601
v -0.431848 -0.032185 0.435759
v -0.429887 -0.032856 0.435411
v -0.428535 -0.032251 0.433088
v -0.427218 -0.031070 0.429843
v -0.419624 -0.016968 0.415075
v -0.413357 -0.016319 0.414114
v -0.419249 -0.021978 0.417068
v -0.413006 -0.021684 0.415992
v -0.412473 -0.026386 0.419207
v -0.418381 -0.026642 0.421001
v -0.413033 -0.026775 0.446231
v -0.434768 -0.030124 0.457279
v -0.433015 -0.031000 0.457386
v -0.411503 -0.028882 0.444929
v -0.410811 -0.030992 0.441484
v -0.400149 -0.030759 0.478312
v -0.398288 -0.030064 0.476146
v -0.410913 -0.031807 0.434206
v -0.399776 -0.029167 0.474349
v -0.402232 -0.030028 0.476841
v -0.400882 -0.028719 0.472668
v -0.403120 -0.029596 0.475137
v -0.414167 -0.031803 0.441523
v -0.411710 -0.030078 0.425084
v -0.417028 -0.029975 0.426767
v -0.418013 -0.031286 0.440705
v -0.418766 -0.031646 0.435519
v -0.415424 -0.031617 0.434472
v -0.401183 -0.028520 0.471112
v -0.404050 -0.029169 0.473258
v -0.401471 -0.028571 0.469461
v -0.401931 -0.028384 0.467096
v -0.433419 -0.030928 0.445690
v -0.421287 -0.030749 0.429495
v -0.424158 -0.031386 0.432999
v -0.421821 -0.031498 0.436824
v -0.421638 -0.031186 0.440635
v -0.422694 -0.031406 0.443977
v -0.427933 -0.032628 0.436284
v -0.426077 -0.031769 0.435048
v -0.426763 -0.032225 0.438270
v -0.424240 -0.031212 0.437849
v -0.424209 -0.031371 0.440721
v -0.426589 -0.032178 0.440283
v -0.424949 -0.031919 0.443228
v -0.426757 -0.032201 0.442277
v -0.428022 -0.032389 0.444363
v -0.432018 -0.032078 0.446342
v -0.429869 -0.032698 0.445874
v -0.432981 -0.030078 0.447421
v -0.432464 -0.032332 0.449476
v -0.432665 -0.034609 0.450702
v -0.432506 -0.033653 0.450171
v -0.429682 -0.027245 0.455494
v -0.431368 -0.027862 0.454134
v -0.434161 -0.028671 0.453782
v -0.438745 -0.029778 0.453888
v -0.436608 -0.028818 0.454397
v -0.440250 -0.031554 0.453143
v -0.440472 -0.033809 0.452534
v -0.439210 -0.035201 0.452271
v -0.436293 -0.036286 0.452341
v -0.437739 -0.036134 0.452334
v -0.433158 -0.035413 0.451358
v -0.434608 -0.036072 0.452150
v -0.431232 -0.032203 0.447501
v -0.430844 -0.033457 0.448876
v -0.431932 -0.036270 0.451511
v -0.431270 -0.035413 0.450224
v -0.430899 -0.034570 0.449537
v -0.429071 -0.033117 0.446823
v -0.426509 -0.032809 0.445279
v -0.423767 -0.032416 0.445464
v -0.421362 -0.031542 0.446321
v -0.420598 -0.030649 0.448602
v -0.419205 -0.027516 0.455764
v -0.416146 -0.026763 0.453356
v -0.421516 -0.028096 0.453345
v -0.417487 -0.028452 0.452509
v -0.421827 -0.029431 0.451208
v -0.428598 -0.034278 0.447834
v -0.426106 -0.034657 0.446924
v -0.424026 -0.034398 0.446870
v -0.422328 -0.033926 0.447559
v -0.421228 -0.032576 0.450140
v -0.420100 -0.031427 0.452000
v -0.418824 -0.034111 0.452139
v -0.420676 -0.035269 0.450581
v -0.422279 -0.035891 0.448936
v -0.416245 -0.036334 0.452061
v -0.420391 -0.037978 0.451499
v -0.421981 -0.037523 0.450236
v -0.422857 -0.040223 0.451639
v -0.423451 -0.038778 0.450105
v -0.423855 -0.036626 0.448301
v -0.423175 -0.041907 0.451891
v -0.425159 -0.041910 0.451227
v -0.425290 -0.040452 0.450472
v -0.425634 -0.038995 0.449494
v -0.425889 -0.036710 0.448072
v -0.429898 -0.036745 0.450254
v -0.428340 -0.036292 0.448953
v -0.429323 -0.038693 0.451586
v -0.427869 -0.038816 0.450344
v -0.428978 -0.040315 0.451946
v -0.427486 -0.040455 0.450901
v -0.428867 -0.042069 0.452247
v -0.427244 -0.041963 0.451447
v -0.429273 -0.043610 0.452693
v -0.427213 -0.042966 0.451937
v -0.428973 -0.044424 0.452831
v -0.426970 -0.043671 0.452520
v -0.424975 -0.042922 0.451688
v -0.424809 -0.043853 0.451982
v -0.423007 -0.043194 0.451926
v -0.423187 -0.044507 0.451351
v -0.430788 -0.037061 0.451926
v -0.429883 -0.038686 0.452922
v -0.429746 -0.040238 0.453030
v -0.430013 -0.042233 0.453319
v -0.417277 -0.037896 0.453088
v -0.419576 -0.039084 0.453199
v -0.421276 -0.040808 0.453207
v -0.421828 -0.042597 0.453578
v -0.430999 -0.044876 0.453433
v -0.431194 -0.046373 0.452802
v -0.431808 -0.049691 0.453495
v -0.431839 -0.046623 0.454602
v -0.430351 -0.051944 0.454483
v -0.430304 -0.048368 0.456121
v -0.427597 -0.053284 0.455108
v -0.427577 -0.049286 0.457203
v -0.424411 -0.053230 0.454998
v -0.424518 -0.049565 0.457663
v -0.421531 -0.052094 0.453910
v -0.422143 -0.048277 0.457308
v -0.420540 -0.049149 0.452572
v -0.421495 -0.045952 0.451742
v -0.421145 -0.046060 0.455370
v -0.421716 -0.044211 0.453250
v -0.428066 -0.026556 0.459232
v -0.427743 -0.028489 0.459523
v -0.426346 -0.031856 0.458515
v -0.426443 -0.035909 0.457726
v -0.416991 -0.037885 0.454497
v -0.419367 -0.038882 0.454954
v -0.427272 -0.042601 0.457553
v -0.427053 -0.039278 0.457417
v -0.429581 -0.042644 0.456047
v -0.430502 -0.042504 0.454665
v -0.430013 -0.039780 0.454601
v -0.429103 -0.039370 0.456192
v -0.427184 -0.025956 0.460600
v -0.437578 -0.028064 0.455465
v -0.440629 -0.029040 0.454984
v -0.442450 -0.030954 0.454133
v -0.442694 -0.033794 0.453543
v -0.440847 -0.035748 0.453196
v -0.438324 -0.037068 0.453121
v -0.435778 -0.037398 0.453283
v -0.435886 -0.035596 0.455669
v -0.434409 -0.032732 0.456737
v -0.436442 -0.032888 0.456394
v -0.435807 -0.037504 0.454756
v -0.438785 -0.037222 0.454717
v -0.438297 -0.035304 0.455596
v -0.438706 -0.033220 0.456147
v -0.423857 -0.035711 0.458136
v -0.437304 -0.030015 0.457012
v -0.440602 -0.033520 0.455908
v -0.440061 -0.034885 0.455565
v -0.439609 -0.031047 0.456606
v -0.440810 -0.032063 0.456245
v -0.441440 -0.035762 0.454813
v -0.443043 -0.033899 0.455051
v -0.442878 -0.031247 0.455845
v -0.441155 -0.029482 0.456546
v -0.437717 -0.028313 0.457010
v -0.426537 -0.027794 0.461297
v -0.423807 -0.031264 0.459730
v -0.418332 -0.030324 0.460594
v -0.414129 -0.029786 0.461002
v -0.420300 -0.032587 0.458563
v -0.409753 -0.030001 0.459830
v -0.420451 -0.035869 0.456877
v -0.415950 -0.031508 0.459330
v -0.413028 -0.031468 0.459214
v -0.416675 -0.033136 0.458047
v -0.409305 -0.031722 0.458300
v -0.416988 -0.035664 0.456526
v -0.405472 -0.028861 0.469136
v -0.405641 -0.028754 0.471428
v -0.394648 -0.027735 0.479328
v -0.393969 -0.027441 0.480140
v -0.395312 -0.027494 0.479193
v -0.395798 -0.026984 0.479963
v -0.397072 -0.026990 0.478186
v -0.397442 -0.026317 0.479063
v -0.395404 -0.028247 0.481274
v -0.397295 -0.028034 0.481212
v -0.415434 -0.010710 0.426539
v -0.415479 -0.010049 0.423749
v -0.415097 -0.011579 0.429820
v -0.414826 -0.009034 0.421232
v -0.414648 -0.012450 0.433184
v -0.414375 -0.013115 0.436361
v -0.410908 -0.024084 0.471847
v -0.411915 -0.023297 0.470282
v -0.410453 -0.024931 0.473217
v -0.413529 -0.022687 0.468861
v -0.403405 -0.024156 0.468732
v -0.402653 -0.023862 0.469432
v -0.402195 -0.024399 0.470825
v -0.402032 -0.025230 0.472122
v -0.401017 -0.025661 0.473136
v -0.399918 -0.026152 0.474660
v -0.397817 -0.026579 0.477054
v -0.404039 -0.023439 0.467618
v -0.405475 -0.022727 0.466382
v -0.408159 -0.022266 0.465466
v -0.411866 -0.021648 0.464536
v -0.415848 -0.021213 0.463181
v -0.417860 -0.020709 0.459672
v -0.420897 -0.020989 0.459314
v -0.423862 -0.016852 0.448841
v -0.428226 -0.017317 0.448836
v -0.420083 -0.015979 0.448689
v -0.416301 -0.016387 0.446123
v -0.432413 -0.017299 0.448394
v -0.434677 -0.016623 0.447451
v -0.415006 -0.014914 0.443112
v -0.412811 -0.006905 0.417689
v -0.414377 -0.012245 0.440351
v -0.413895 -0.005398 0.415769
v -0.419845 -0.005617 0.416848
v -0.433643 -0.015422 0.445884
v -0.424614 -0.021643 0.459957
v -0.426292 -0.022928 0.462645
v -0.425929 -0.006043 0.417618
v -0.430866 -0.006642 0.417866
v -0.433023 -0.007153 0.418491
v -0.433206 -0.008152 0.419726
v -0.432604 -0.009140 0.421866
v -0.431415 -0.009793 0.427259
v -0.430958 -0.010437 0.432646
v -0.431392 -0.010918 0.438561
v -0.431648 -0.012937 0.441548
v -0.432294 -0.014204 0.443691
v -0.425846 -0.022776 0.465039
v -0.398487 -0.027342 0.481018
v -0.400113 -0.028387 0.481716
v -0.402421 -0.028093 0.481236
v -0.405633 -0.027898 0.479849
v -0.407005 -0.027259 0.478198
v -0.407841 -0.026691 0.476519
v -0.409383 -0.026012 0.474757
v -0.407163 -0.020848 0.467728
v -0.405851 -0.021845 0.469358
v -0.402692 -0.020608 0.467496
v -0.403732 -0.019564 0.465813
v -0.409208 -0.019813 0.466411
v -0.406286 -0.018212 0.464756
v -0.407150 -0.017451 0.464005
v -0.410564 -0.018917 0.465232
v -0.416149 -0.021789 0.467185
v -0.421587 -0.020588 0.465814
v -0.431488 -0.004897 0.447201
v -0.431979 -0.006640 0.448421
v -0.430191 -0.006434 0.449334
v -0.429953 -0.004995 0.447730
v -0.432675 -0.007676 0.449979
v -0.431028 -0.007282 0.450931
v -0.414462 -0.010362 0.464278
v -0.409450 -0.009026 0.463408
v -0.411674 -0.007389 0.462524
v -0.415362 -0.007567 0.463180
v -0.413677 -0.013043 0.464257
v -0.408694 -0.011804 0.463425
v -0.409567 -0.015739 0.457390
v -0.408033 -0.013078 0.458453
v -0.406031 -0.013170 0.458472
v -0.407276 -0.015084 0.457792
v -0.411683 -0.015716 0.457159
v -0.410087 -0.012910 0.458257
v -0.413663 -0.015219 0.456938
v -0.412346 -0.012749 0.457897
v -0.415058 -0.012453 0.457578
v -0.415180 -0.014195 0.457002
v -0.411999 -0.009849 0.458680
v -0.414509 -0.010691 0.458174
v -0.407329 -0.010339 0.458961
v -0.405736 -0.011348 0.458771
v -0.409566 -0.009676 0.458966
v -0.403001 -0.021805 0.467062
v -0.402718 -0.022690 0.468103
v -0.404249 -0.020903 0.465731
v -0.407098 -0.020175 0.464918
v -0.409223 -0.019518 0.464264
v -0.410589 -0.019188 0.462463
v -0.417061 -0.019750 0.459829
v -0.428717 0.001884 0.470676
v -0.428570 -0.000330 0.469285
v -0.430720 0.000651 0.469095
v -0.430365 0.001707 0.470152
v -0.424584 0.000173 0.467613
v -0.425643 -0.000431 0.468695
v -0.425118 0.001649 0.469847
v -0.424294 0.001097 0.468461
v -0.426076 -0.001592 0.467096
v -0.425206 -0.000769 0.466832
v -0.430539 -0.000486 0.468058
v -0.429022 -0.001685 0.467726
v -0.426917 -0.000625 0.469222
v -0.426798 0.001975 0.470713
v -0.427407 -0.002095 0.467416
v -0.424917 -0.000651 0.465868
v -0.426090 -0.001745 0.466057
v -0.423831 0.000655 0.466475
v -0.423330 0.001892 0.468058
v -0.424340 0.003076 0.470281
v -0.426799 0.003814 0.471702
v -0.429452 0.003688 0.471857
v -0.431557 0.002956 0.470962
v -0.432520 0.001782 0.469302
v -0.431909 -0.000179 0.467511
v -0.429729 -0.001981 0.466760
v -0.427845 -0.002391 0.466393
v -0.424253 -0.014634 0.450211
v -0.428162 -0.015339 0.450105
v -0.425595 -0.014040 0.452292
v -0.428348 -0.014410 0.451934
v -0.426940 -0.014281 0.454078
v -0.428828 -0.014363 0.453405
v -0.421847 -0.014062 0.451277
v -0.423742 -0.013913 0.453344
v -0.424336 -0.014330 0.455101
v -0.425081 -0.015466 0.456155
v -0.428048 -0.014673 0.455215
v -0.417904 -0.014139 0.450546
v -0.420355 -0.013358 0.452968
v -0.416897 -0.010170 0.458788
v -0.418002 -0.012374 0.457922
v -0.413870 -0.008185 0.459162
v -0.410187 -0.007610 0.459407
v -0.406684 -0.008032 0.461278
v -0.411545 -0.007032 0.461128
v -0.406344 -0.008387 0.459303
v -0.404702 -0.011207 0.461044
v -0.404223 -0.010631 0.458879
v -0.406627 -0.016136 0.462878
v -0.405093 -0.014096 0.460583
v -0.406800 -0.014233 0.462674
v -0.404270 -0.013471 0.458482
v -0.406635 -0.016598 0.457734
v -0.407969 -0.017297 0.459518
v -0.412662 -0.018460 0.459374
v -0.410673 -0.017699 0.457356
v -0.413844 -0.017261 0.457075
v -0.416604 -0.018222 0.459228
v -0.421768 -0.012927 0.454742
v -0.430829 -0.011489 0.463093
v -0.429330 -0.011003 0.464271
v -0.430545 -0.008715 0.463899
v -0.431531 -0.009203 0.462437
v -0.433878 -0.008807 0.462345
v -0.433528 -0.010126 0.463458
v -0.432951 -0.012831 0.463278
v -0.434206 -0.011771 0.463439
v -0.423239 -0.008020 0.466945
v -0.422024 -0.006156 0.465827
v -0.422706 -0.004800 0.467700
v -0.423629 -0.005913 0.469212
v -0.425614 -0.006431 0.469722
v -0.425402 -0.008916 0.467416
v -0.430424 -0.014624 0.462782
v -0.428683 -0.014933 0.463130
v -0.433099 -0.014569 0.462828
v -0.429343 -0.018031 0.461976
v -0.431704 -0.017407 0.461575
v -0.431366 -0.018401 0.459675
v -0.429488 -0.019316 0.460337
v -0.434634 -0.017970 0.460652
v -0.434110 -0.017428 0.458736
v -0.415327 -0.008430 0.427093
v -0.415397 -0.008730 0.424656
v -0.414903 -0.008681 0.430584
v -0.414463 -0.009607 0.433741
v -0.414275 -0.010577 0.435942
v -0.415359 -0.014200 0.448141
v -0.414187 -0.011801 0.445906
v -0.412472 -0.007269 0.445572
v -0.413299 -0.006431 0.438829
v -0.413196 -0.004281 0.435452
v -0.414021 -0.004517 0.430491
v -0.414439 -0.005077 0.425945
v -0.414638 -0.006993 0.422807
v -0.412424 -0.003956 0.419886
v -0.412176 -0.000911 0.424131
v -0.412057 0.000726 0.429129
v -0.411140 0.000913 0.435315
v -0.411185 -0.002180 0.441637
v -0.415459 -0.011624 0.452661
v -0.414918 -0.008978 0.452461
v -0.419630 -0.008468 0.451823
v -0.418838 -0.010994 0.453307
v -0.438436 -0.012657 0.458258
v -0.436733 -0.011900 0.457824
v -0.437374 -0.014364 0.457885
v -0.438777 -0.010870 0.459154
v -0.436807 -0.010583 0.458920
v -0.438123 -0.009777 0.460026
v -0.436230 -0.009717 0.459817
v -0.434817 -0.009638 0.459393
v -0.434757 -0.010102 0.458687
v -0.434962 -0.010952 0.457592
v -0.432209 -0.015278 0.450389
v -0.431647 -0.014535 0.452615
v -0.431116 -0.014509 0.454473
v -0.421652 -0.019671 0.459539
v -0.429667 -0.015472 0.456569
v -0.427726 -0.016488 0.457266
v -0.431130 -0.014859 0.455809
v -0.425311 -0.020421 0.460239
v -0.426438 -0.019553 0.459478
v -0.423504 -0.018625 0.459177
v -0.427993 -0.018628 0.459147
v -0.425523 -0.017450 0.458043
v -0.405654 -0.023122 0.470987
v -0.402122 -0.022142 0.469092
v -0.433539 -0.013869 0.453135
v -0.433030 -0.006069 0.421475
v -0.432570 -0.007361 0.422566
v -0.432891 -0.004468 0.420834
v -0.430923 -0.003705 0.420320
v -0.426032 -0.002765 0.420483
v -0.432761 -0.001465 0.424904
v -0.432638 -0.003340 0.425492
v -0.431945 -0.006360 0.426685
v -0.431684 -0.005782 0.431995
v -0.431984 -0.006147 0.437653
v -0.434839 -0.014290 0.449980
v -0.431007 -0.000477 0.424633
v -0.425944 0.000204 0.425152
v -0.432380 -0.002043 0.431206
v -0.432547 0.000322 0.430784
v -0.430911 0.001524 0.430897
v -0.425466 0.001529 0.432978
v -0.433697 -0.006436 0.447751
v -0.433048 -0.004691 0.446838
v -0.434155 -0.007652 0.449059
v -0.433457 -0.008397 0.451624
v -0.434325 -0.008321 0.450338
v -0.432270 -0.008074 0.452531
v -0.429823 -0.006948 0.451548
v -0.430979 -0.007560 0.452619
v -0.428852 -0.006094 0.450125
v -0.428645 -0.005072 0.448558
v -0.429821 -0.003113 0.446732
v -0.428805 -0.003930 0.447506
v -0.430964 -0.002609 0.446445
v -0.432107 -0.002992 0.446342
v -0.432603 -0.003109 0.436995
v -0.432801 -0.005238 0.441250
v -0.432923 -0.003863 0.439817
v -0.432520 -0.007213 0.442661
v -0.432466 -0.009530 0.443905
v -0.433064 -0.011410 0.445419
v -0.434781 -0.012752 0.449241
v -0.405745 -0.024545 0.472800
v -0.404158 -0.025179 0.474552
v -0.401317 -0.024313 0.472456
v -0.401630 -0.023333 0.471138
v -0.434199 -0.012558 0.453478
v -0.434361 -0.009633 0.446951
v -0.434736 -0.010837 0.449926
v -0.435321 -0.008159 0.448425
v -0.435218 -0.009126 0.450369
v -0.434815 -0.006644 0.446906
v -0.433746 -0.007974 0.445325
v -0.433575 -0.005745 0.444351
v -0.434065 -0.004671 0.445988
v -0.432850 -0.000862 0.437637
v -0.433123 -0.002405 0.441018
v -0.433321 -0.003894 0.443447
v -0.431605 0.000650 0.438577
v -0.432073 -0.000922 0.442448
v -0.432703 -0.002495 0.445217
v -0.430787 -0.001644 0.445355
v -0.429444 -0.000723 0.443133
v -0.428121 0.000262 0.439825
v -0.420046 -0.002290 0.419752
v -0.413764 -0.001932 0.418697
v -0.419900 0.000661 0.424282
v -0.413660 0.001374 0.423339
v -0.413322 0.003368 0.428686
v -0.419212 0.002228 0.430199
v -0.413456 -0.011973 0.450966
v -0.433446 -0.016022 0.462158
v -0.435153 -0.016765 0.461535
v -0.412059 -0.009430 0.451144
v -0.411539 -0.005681 0.449551
v -0.400285 -0.026597 0.479641
v -0.398424 -0.025811 0.477499
v -0.411791 -0.000810 0.444085
v -0.399903 -0.025581 0.475488
v -0.402351 -0.026451 0.477987
v -0.401012 -0.025033 0.473842
v -0.403236 -0.025866 0.476339
v -0.414947 -0.005208 0.449972
v -0.412655 0.003009 0.435624
v -0.417939 0.001678 0.436850
v -0.416296 -0.001350 0.444108
v -0.419618 -0.002108 0.444923
v -0.418771 -0.005355 0.448943
v -0.434042 -0.009340 0.452565
v -0.422187 0.000509 0.439453
v -0.425029 -0.001146 0.442633
v -0.422638 -0.003145 0.445857
v -0.422378 -0.005592 0.448784
v -0.423387 -0.007400 0.451621
v -0.428809 -0.002231 0.445969
v -0.426931 -0.002119 0.444495
v -0.427586 -0.003648 0.447375
v -0.425021 -0.004098 0.446487
v -0.424950 -0.005626 0.448922
v -0.427377 -0.004840 0.448992
v -0.425677 -0.006669 0.451272
v -0.427512 -0.005983 0.450629
v -0.428751 -0.007102 0.452419
v -0.432693 -0.008708 0.453784
v -0.430586 -0.007822 0.453798
v -0.433533 -0.011010 0.453490
v -0.433101 -0.010336 0.456477
v -0.433397 -0.009206 0.458797
v -0.433198 -0.009665 0.457810
v -0.429953 -0.017813 0.458499
v -0.431692 -0.016612 0.457718
v -0.434528 -0.015895 0.457856
v -0.439158 -0.015296 0.458514
v -0.436965 -0.016260 0.458410
v -0.440768 -0.013497 0.458897
v -0.441121 -0.011317 0.459684
v -0.439940 -0.009966 0.460291
v -0.437081 -0.008977 0.461045
v -0.438520 -0.009168 0.460914
v -0.433918 -0.008961 0.459793
v -0.435389 -0.008958 0.460803
v -0.431895 -0.009236 0.454814
v -0.431550 -0.008990 0.456667
v -0.432737 -0.008289 0.460425
v -0.432054 -0.008203 0.458891
v -0.431652 -0.008469 0.457850
v -0.429795 -0.007987 0.454828
v -0.427246 -0.007211 0.453434
v -0.424485 -0.007494 0.453403
v -0.422025 -0.008575 0.453637
v -0.421178 -0.010584 0.455001
v -0.419502 -0.017201 0.459052
v -0.416446 -0.016265 0.456715
v -0.421881 -0.015453 0.457383
v -0.417889 -0.014473 0.456986
v -0.422297 -0.013148 0.456410
v -0.429366 -0.007601 0.456332
v -0.426914 -0.006636 0.455850
v -0.424824 -0.006708 0.455690
v -0.423093 -0.007400 0.456010
v -0.421881 -0.009935 0.457357
v -0.420665 -0.011889 0.458230
v -0.419530 -0.009716 0.459911
v -0.421464 -0.007967 0.459276
v -0.423124 -0.006593 0.458269
v -0.417074 -0.007728 0.461182
v -0.421305 -0.006278 0.461598
v -0.422889 -0.006001 0.460278
v -0.424424 -0.004979 0.460873
v -0.423883 -0.004659 0.462970
v -0.424746 -0.005711 0.458148
v -0.426343 -0.003927 0.462114
v -0.426278 -0.003167 0.463578
v -0.424285 -0.003453 0.464144
v -0.426627 -0.004564 0.460469
v -0.426785 -0.005617 0.457977
v -0.430754 -0.007064 0.459707
v -0.429196 -0.006596 0.458413
v -0.430260 -0.006219 0.461933
v -0.428835 -0.005321 0.461017
v -0.429997 -0.005091 0.463175
v -0.428529 -0.004291 0.462431
v -0.429976 -0.003824 0.464445
v -0.428361 -0.003362 0.463761
v -0.430459 -0.002818 0.465702
v -0.428376 -0.002810 0.464746
v -0.428167 -0.002538 0.465630
v -0.430203 -0.002198 0.466293
v -0.426142 -0.002593 0.464545
v -0.426022 -0.001982 0.465324
v -0.424186 -0.002418 0.464920
v -0.424444 -0.001014 0.465205
v -0.431631 -0.007825 0.461235
v -0.430798 -0.007030 0.463004
v -0.430745 -0.005820 0.463987
v -0.431115 -0.004366 0.465375
v -0.420522 -0.006316 0.463640
v -0.418166 -0.007098 0.462901
v -0.422310 -0.005008 0.464610
v -0.422951 -0.003806 0.465936
v -0.432237 -0.002294 0.466992
v -0.432515 -0.000714 0.467354
v -0.433280 0.001559 0.469825
v -0.433144 -0.001580 0.468924
v -0.431921 0.002897 0.471953
v -0.431675 -0.000955 0.471181
v -0.429234 0.003749 0.473275
v -0.428984 -0.000724 0.472635
v -0.426059 0.003914 0.473197
v -0.425936 -0.000632 0.473234
v -0.423146 0.003759 0.471699
v -0.423502 -0.001363 0.472251
v -0.422025 0.002188 0.468924
v -0.422824 0.000022 0.466385
v -0.422421 -0.001997 0.469410
v -0.422928 -0.002299 0.466606
v -0.428242 -0.020449 0.461177
v -0.428016 -0.019027 0.462538
v -0.426814 -0.015628 0.463685
v -0.427137 -0.011875 0.465367
v -0.417857 -0.007905 0.464047
v -0.420273 -0.007482 0.464955
v -0.428325 -0.006364 0.469044
v -0.427932 -0.008984 0.467026
v -0.430663 -0.005566 0.467798
v -0.431598 -0.004938 0.466595
v -0.430963 -0.007111 0.464981
v -0.430005 -0.008312 0.466043
v -0.427307 -0.021683 0.461961
v -0.437878 -0.017542 0.458825
v -0.440984 -0.016628 0.458946
v -0.442918 -0.014673 0.459321
v -0.443321 -0.012031 0.460474
v -0.441586 -0.010142 0.461346
v -0.439137 -0.008893 0.462090
v -0.436608 -0.008591 0.462462
v -0.436581 -0.011438 0.463362
v -0.436983 -0.014090 0.462380
v -0.434940 -0.014309 0.462604
v -0.439579 -0.009715 0.463480
v -0.436618 -0.009354 0.463722
v -0.438975 -0.011760 0.463099
v -0.439265 -0.013795 0.462331
v -0.424538 -0.012138 0.465638
v -0.437682 -0.016832 0.461217
v -0.441178 -0.013511 0.462275
v -0.440717 -0.012173 0.462796
v -0.440043 -0.015878 0.461442
v -0.441303 -0.014904 0.461708
v -0.442151 -0.011097 0.462669
v -0.443651 -0.012835 0.461760
v -0.443333 -0.015445 0.460877
v -0.441509 -0.017199 0.460461
v -0.438006 -0.018239 0.460222
v -0.426746 -0.020555 0.463603
v -0.424227 -0.016680 0.464376
v -0.418699 -0.017658 0.464629
v -0.414468 -0.018112 0.464721
v -0.420816 -0.014744 0.464247
v -0.410132 -0.017032 0.463962
v -0.421165 -0.011104 0.464765
v -0.416409 -0.015838 0.464322
v -0.413494 -0.015651 0.464253
v -0.417239 -0.013809 0.464204
v -0.409810 -0.014722 0.463716
v -0.417707 -0.010888 0.464418
f 1 2 3
f 1 3 4
f 5 6 2
f 5 2 1
f 1 4 7
f 1 7 5
f 5 7 8
f 5 8 9
f 3 10 11
f 3 11 4
f 11 12 7
f 11 7 4
f 5 9 13
f 5 13 6
f 14 15 16
f 14 16 17
f 18 19 14
f 18 14 17
f 15 20 21
f 15 21 16
f 22 23 19
f 22 19 18
f 24 25 23
f 24 23 22
f 26 27 28
f 26 28 29
f 26 29 30
f 26 30 31
f 27 32 33
f 27 33 28
f 34 35 36
f 34 36 37
f 38 39 35
f 38 35 34
f 40 41 39
f 40 39 38
f 42 43 41
f 42 41 40
f 44 45 46
f 44 46 47
f 47 46 43
f 47 43 42
f 13 9 45
f 13 45 44
f 37 36 48
f 37 48 49
f 49 48 50
f 49 50 51
f 51 50 52
f 51 52 53
f 53 52 54
f 53 54 55
f 55 54 56
f 55 56 57
f 57 56 58
f 57 58 59
f 59 58 60
f 59 60 61
f 62 63 64
f 62 64 65
f 62 65 66
f 62 66 67
f 66 68 69
f 66 69 67
f 63 70 71
f 63 71 64
f 70 72 73
f 70 73 71
f 69 68 74
f 69 74 75
f 20 76 77
f 20 77 21
f 78 79 25
f 78 25 24
f 75 74 79
f 75 79 78
f 76 80 81
f 76 81 77
f 80 82 83
f 80 83 81
f 84 85 73
f 84 73 72
f 61 60 86
f 61 86 87
f 87 86 88
f 87 88 89
f 82 90 91
f 82 91 83
f 90 92 93
f 90 93 91
f 92 94 95
f 92 95 93
f 95 94 96
f 95 96 97
f 97 96 98
f 97 98 99
f 99 98 100
f 99 100 101
f 101 100 102
f 101 102 103
f 103 102 104
f 103 104 105
f 105 104 106
f 105 106 107
f 107 106 108
f 107 108 109
f 109 108 85
f 109 85 84
f 89 88 110
f 89 110 111
f 112 12 11
f 112 11 10
f 113 114 12
f 113 12 112
f 115 116 114
f 115 114 113
f 117 118 116
f 117 116 115
f 119 120 118
f 119 118 117
f 121 122 120
f 121 120 119
f 123 124 122
f 123 122 121
f 125 126 124
f 125 124 123
f 127 128 129
f 127 129 130
f 125 31 30
f 125 30 126
f 131 132 133
f 131 133 134
f 32 135 136
f 32 136 33
f 135 137 138
f 135 138 136
f 111 110 138
f 111 138 137
f 139 140 141
f 139 141 142
f 142 141 143
f 142 143 144
f 145 146 147
f 145 147 148
f 149 145 148
f 149 148 150
f 151 152 153
f 151 153 154
f 155 151 154
f 155 154 156
f 157 155 156
f 157 156 158
f 159 160 157
f 159 157 158
f 161 162 159
f 161 159 158
f 154 153 163
f 154 163 164
f 165 161 158
f 165 158 156
f 156 154 164
f 156 164 165
f 48 36 166
f 48 166 167
f 168 50 48
f 168 48 167
f 169 52 50
f 169 50 168
f 54 52 169
f 54 169 170
f 56 54 170
f 56 170 171
f 172 58 56
f 172 56 171
f 173 174 175
f 173 175 176
f 177 178 179
f 177 179 180
f 181 182 177
f 181 177 180
f 183 184 176
f 183 176 175
f 185 186 173
f 185 173 176
f 180 179 186
f 180 186 185
f 185 187 181
f 185 181 180
f 176 184 187
f 176 187 185
f 182 181 188
f 182 188 189
f 177 182 189
f 177 189 190
f 178 177 190
f 178 190 191
f 179 178 191
f 179 191 192
f 186 179 192
f 186 192 193
f 173 186 193
f 173 193 194
f 174 173 194
f 174 194 195
f 175 174 195
f 175 195 196
f 183 175 196
f 183 196 197
f 184 183 197
f 184 197 198
f 199 188 181
f 199 181 187
f 187 184 198
f 187 198 199
f 65 64 200
f 65 200 201
f 202 201 200
f 202 200 203
f 203 204 205
f 203 205 202
f 206 66 65
f 206 65 201
f 207 206 201
f 207 201 202
f 208 207 202
f 208 202 205
f 209 208 205
f 209 205 210
f 66 206 211
f 66 211 212
f 213 214 159
f 213 159 162
f 215 213 162
f 215 162 161
f 216 215 161
f 216 161 165
f 148 147 217
f 148 217 218
f 219 216 165
f 219 165 164
f 219 218 217
f 219 217 216
f 150 148 218
f 150 218 220
f 221 219 164
f 221 164 163
f 221 220 218
f 221 218 219
f 222 223 220
f 222 220 224
f 225 221 163
f 225 163 153
f 225 224 220
f 225 220 221
f 226 225 153
f 226 153 152
f 171 222 224
f 171 224 227
f 224 225 226
f 224 226 227
f 172 171 227
f 172 227 228
f 229 226 152
f 229 152 151
f 229 228 227
f 229 227 226
f 230 229 151
f 230 151 155
f 228 229 230
f 228 230 231
f 232 211 206
f 232 206 207
f 233 234 235
f 233 235 236
f 233 237 238
f 233 238 234
f 239 240 237
f 239 237 233
f 241 242 243
f 241 243 244
f 241 245 246
f 241 246 242
f 247 233 236
f 247 236 248
f 249 239 233
f 249 233 247
f 250 251 252
f 250 252 253
f 252 254 255
f 252 255 253
f 256 257 15
f 256 15 14
f 258 256 14
f 258 14 19
f 259 258 19
f 259 19 23
f 25 260 259
f 25 259 23
f 261 68 66
f 261 66 212
f 74 68 261
f 74 261 262
f 79 74 262
f 79 262 263
f 260 25 79
f 260 79 264
f 259 260 264
f 259 264 265
f 258 259 265
f 258 265 266
f 256 258 266
f 256 266 267
f 257 256 267
f 257 267 268
f 15 257 268
f 15 268 20
f 269 76 20
f 269 20 268
f 270 269 268
f 270 268 267
f 271 270 267
f 271 267 266
f 272 271 266
f 272 266 265
f 273 272 265
f 273 265 264
f 273 264 79
f 273 79 263
f 274 275 276
f 274 276 277
f 278 279 280
f 278 280 281
f 282 278 281
f 282 281 283
f 284 282 283
f 284 283 285
f 286 285 283
f 286 283 287
f 287 283 281
f 287 281 288
f 200 64 71
f 200 71 289
f 203 200 289
f 203 289 290
f 291 210 205
f 291 205 204
f 204 203 290
f 204 290 291
f 172 228 231
f 172 231 292
f 292 60 58
f 292 58 172
f 293 294 209
f 293 209 210
f 295 293 210
f 295 210 291
f 296 86 60
f 296 60 292
f 297 296 292
f 297 292 298
f 299 297 298
f 299 298 300
f 301 302 303
f 301 303 304
f 305 295 291
f 305 291 306
f 291 290 307
f 291 307 306
f 308 309 98
f 308 98 96
f 310 308 96
f 310 96 94
f 311 310 94
f 311 94 92
f 312 311 92
f 312 92 90
f 313 314 308
f 313 308 310
f 309 308 314
f 309 314 315
f 98 309 315
f 98 315 100
f 100 315 316
f 100 316 102
f 104 102 316
f 104 316 317
f 318 307 290
f 318 290 289
f 289 71 73
f 289 73 318
f 319 313 310
f 319 310 311
f 311 312 320
f 311 320 319
f 321 316 315
f 321 315 314
f 322 321 314
f 322 314 313
f 323 322 313
f 323 313 319
f 324 323 319
f 324 319 320
f 325 326 139
f 325 139 142
f 327 325 142
f 327 142 144
f 328 329 327
f 328 327 144
f 330 328 144
f 330 144 143
f 331 332 330
f 331 330 143
f 141 140 333
f 141 333 334
f 334 331 143
f 334 143 141
f 335 336 333
f 335 333 140
f 337 335 140
f 337 140 139
f 338 337 139
f 338 139 326
f 317 316 321
f 317 321 339
f 317 339 340
f 317 340 341
f 104 317 341
f 104 341 342
f 106 104 342
f 106 342 343
f 108 106 343
f 108 343 344
f 345 318 73
f 345 73 85
f 85 108 344
f 85 344 345
f 346 288 281
f 346 281 280
f 306 346 280
f 306 280 305
f 307 318 345
f 307 345 347
f 347 346 306
f 347 306 307
f 348 349 345
f 348 345 344
f 327 329 350
f 327 350 351
f 350 349 348
f 350 348 351
f 325 327 351
f 325 351 352
f 353 348 344
f 353 344 343
f 353 352 351
f 353 351 348
f 354 353 343
f 354 343 342
f 326 325 352
f 326 352 355
f 352 353 354
f 352 354 355
f 356 339 321
f 356 321 322
f 340 339 356
f 340 356 357
f 358 354 342
f 358 342 341
f 341 340 357
f 341 357 358
f 359 356 322
f 359 322 323
f 357 356 359
f 357 359 360
f 338 326 355
f 338 355 361
f 355 354 358
f 355 358 361
f 358 357 360
f 358 360 361
f 337 338 361
f 337 361 362
f 363 362 361
f 363 361 360
f 364 359 323
f 364 323 324
f 364 363 360
f 364 360 359
f 365 312 90
f 365 90 82
f 366 80 76
f 366 76 269
f 366 365 82
f 366 82 80
f 320 312 365
f 320 365 367
f 368 366 269
f 368 269 270
f 368 367 365
f 368 365 366
f 369 368 270
f 369 270 271
f 324 320 367
f 324 367 370
f 367 368 369
f 367 369 370
f 274 371 261
f 274 261 212
f 253 255 372
f 253 372 373
f 253 247 248
f 253 248 250
f 262 261 371
f 262 371 374
f 373 249 247
f 373 247 253
f 7 12 114
f 7 114 8
f 263 262 374
f 263 374 375
f 114 116 118
f 114 118 376
f 45 9 8
f 45 8 377
f 273 263 375
f 273 375 378
f 8 114 376
f 8 376 377
f 46 45 377
f 46 377 379
f 380 379 377
f 380 377 376
f 120 380 376
f 120 376 118
f 277 374 371
f 277 371 274
f 43 46 379
f 43 379 381
f 382 381 379
f 382 379 380
f 383 375 374
f 383 374 277
f 384 369 271
f 384 271 272
f 272 273 378
f 272 378 384
f 370 369 384
f 370 384 385
f 383 386 387
f 383 387 388
f 388 385 384
f 388 384 378
f 122 382 380
f 122 380 120
f 275 274 212
f 275 212 211
f 41 43 381
f 41 381 389
f 382 122 124
f 382 124 390
f 390 389 381
f 390 381 382
f 39 41 389
f 39 389 391
f 129 167 166
f 129 166 392
f 392 166 36
f 392 36 35
f 393 350 329
f 393 329 328
f 35 39 391
f 35 391 392
f 324 370 385
f 324 385 394
f 128 168 167
f 128 167 129
f 387 394 385
f 387 385 388
f 277 276 386
f 277 386 383
f 169 168 128
f 169 128 134
f 133 222 171
f 133 171 170
f 170 169 134
f 170 134 133
f 364 324 394
f 364 394 395
f 388 378 375
f 388 375 383
f 396 395 394
f 396 394 387
f 397 396 387
f 397 387 386
f 398 397 386
f 398 386 276
f 335 337 362
f 335 362 399
f 363 364 395
f 363 395 400
f 400 399 362
f 400 362 363
f 336 335 399
f 336 399 401
f 402 400 395
f 402 395 396
f 402 401 399
f 402 399 400
f 403 402 396
f 403 396 397
f 333 336 401
f 333 401 404
f 401 402 403
f 401 403 404
f 405 403 397
f 405 397 398
f 334 333 404
f 334 404 406
f 404 403 405
f 404 405 406
f 331 334 406
f 331 406 407
f 408 393 328
f 408 328 330
f 332 331 407
f 332 407 409
f 409 408 330
f 409 330 332
f 347 345 349
f 347 349 410
f 349 350 393
f 349 393 410
f 346 347 410
f 346 410 411
f 412 287 288
f 412 288 413
f 288 346 411
f 288 411 413
f 414 299 300
f 414 300 294
f 415 293 295
f 415 295 305
f 415 414 294
f 415 294 293
f 305 280 279
f 305 279 416
f 417 418 416
f 417 416 279
f 419 417 279
f 419 279 278
f 420 419 278
f 420 278 282
f 421 420 282
f 421 282 284
f 422 423 421
f 422 421 284
f 424 286 287
f 424 287 412
f 425 422 284
f 425 284 285
f 285 286 424
f 285 424 425
f 426 410 393
f 426 393 408
f 411 410 426
f 411 426 427
f 428 424 412
f 428 412 429
f 429 412 413
f 429 413 430
f 413 411 427
f 413 427 430
f 431 426 408
f 431 408 409
f 432 407 406
f 432 406 405
f 432 431 409
f 432 409 407
f 433 432 405
f 433 405 398
f 434 433 398
f 434 398 276
f 435 275 211
f 435 211 232
f 435 434 276
f 435 276 275
f 436 298 292
f 436 292 231
f 437 230 155
f 437 155 157
f 437 436 231
f 437 231 230
f 209 294 300
f 209 300 438
f 300 298 436
f 300 436 438
f 160 159 214
f 160 214 439
f 439 437 157
f 439 157 160
f 439 438 436
f 439 436 437
f 440 232 207
f 440 207 208
f 208 209 438
f 208 438 440
f 427 426 431
f 427 431 441
f 442 441 431
f 442 431 432
f 443 442 432
f 443 432 433
f 444 443 433
f 444 433 434
f 435 232 440
f 435 440 445
f 445 444 434
f 445 434 435
f 446 438 439
f 446 439 214
f 446 445 440
f 446 440 438
f 447 446 214
f 447 214 213
f 445 446 447
f 445 447 448
f 444 445 448
f 444 448 449
f 450 217 147
f 450 147 146
f 215 216 217
f 215 217 450
f 450 447 213
f 450 213 215
f 451 452 449
f 451 449 448
f 448 447 450
f 448 450 451
f 452 451 453
f 452 453 454
f 443 444 449
f 443 449 455
f 449 452 454
f 449 454 455
f 453 456 457
f 453 457 458
f 454 453 458
f 454 458 459
f 442 443 455
f 442 455 460
f 455 454 459
f 455 459 460
f 461 429 430
f 461 430 462
f 430 427 441
f 430 441 462
f 441 442 460
f 441 460 462
f 463 461 462
f 463 462 464
f 464 462 460
f 464 460 459
f 465 463 464
f 465 464 466
f 466 464 459
f 466 459 458
f 467 465 466
f 467 466 468
f 468 466 458
f 468 458 457
f 469 467 468
f 469 468 470
f 199 198 471
f 199 471 472
f 471 469 470
f 471 470 472
f 473 470 468
f 473 468 457
f 188 199 472
f 188 472 474
f 472 470 473
f 472 473 474
f 475 473 457
f 475 457 456
f 189 188 474
f 189 474 476
f 474 473 475
f 474 475 476
f 477 428 429
f 477 429 461
f 478 477 461
f 478 461 463
f 479 478 463
f 479 463 465
f 480 479 465
f 480 465 467
f 451 450 481
f 451 481 482
f 453 451 482
f 453 482 483
f 456 453 483
f 456 483 484
f 485 480 467
f 485 467 469
f 486 471 198
f 486 198 197
f 486 485 469
f 486 469 471
f 487 486 197
f 487 197 196
f 485 486 487
f 485 487 488
f 489 487 196
f 489 196 195
f 488 487 489
f 488 489 490
f 491 489 195
f 491 195 194
f 490 489 491
f 490 491 492
f 493 491 194
f 493 194 193
f 493 494 492
f 493 492 491
f 495 493 193
f 495 193 192
f 494 493 495
f 494 495 496
f 497 495 192
f 497 192 191
f 190 189 476
f 190 476 498
f 498 497 191
f 498 191 190
f 496 495 497
f 496 497 499
f 475 456 484
f 475 484 500
f 500 498 476
f 500 476 475
f 500 499 497
f 500 497 498
f 251 501 297
f 251 297 299
f 502 501 251
f 502 251 250
f 503 502 250
f 503 250 248
f 504 503 248
f 504 248 236
f 505 481 450
f 505 450 146
f 243 499 500
f 243 500 484
f 244 243 484
f 244 484 483
f 482 481 505
f 482 505 506
f 506 244 483
f 506 483 482
f 496 499 243
f 496 243 242
f 246 507 492
f 246 492 494
f 494 496 242
f 494 242 246
f 246 245 508
f 246 508 507
f 490 492 507
f 490 507 509
f 480 485 488
f 480 488 510
f 488 490 509
f 488 509 510
f 511 235 478
f 511 478 479
f 479 480 510
f 479 510 511
f 508 504 236
f 508 236 512
f 512 509 507
f 512 507 508
f 236 235 511
f 236 511 512
f 512 511 510
f 512 510 509
f 296 297 501
f 296 501 513
f 513 88 86
f 513 86 296
f 252 251 299
f 252 299 414
f 415 305 416
f 415 416 254
f 254 252 414
f 254 414 415
f 514 254 416
f 514 416 418
f 515 514 418
f 515 418 417
f 516 515 417
f 516 417 419
f 419 420 517
f 419 517 516
f 518 517 420
f 518 420 421
f 519 518 421
f 519 421 423
f 520 519 423
f 520 423 422
f 477 478 235
f 477 235 234
f 425 424 428
f 425 428 238
f 238 520 422
f 238 422 425
f 428 477 234
f 428 234 238
f 521 240 522
f 521 522 523
f 519 520 524
f 519 524 525
f 526 521 523
f 526 523 527
f 526 525 524
f 526 524 521
f 504 508 245
f 504 245 528
f 522 240 239
f 522 239 249
f 522 249 373
f 522 373 372
f 523 522 372
f 523 372 529
f 530 531 526
f 530 526 527
f 527 523 529
f 527 529 532
f 532 533 530
f 532 530 527
f 518 519 525
f 518 525 534
f 525 526 531
f 525 531 534
f 517 518 534
f 517 534 535
f 535 534 531
f 535 531 530
f 516 517 535
f 516 535 536
f 536 535 530
f 536 530 533
f 515 516 536
f 515 536 537
f 537 536 533
f 537 533 532
f 514 515 537
f 514 537 538
f 538 537 532
f 538 532 529
f 254 514 538
f 254 538 255
f 255 538 529
f 255 529 372
f 237 524 520
f 237 520 238
f 237 240 521
f 237 521 524
f 539 540 138
f 539 138 110
f 88 513 539
f 88 539 110
f 541 542 136
f 541 136 138
f 138 540 543
f 138 543 541
f 136 542 544
f 136 544 132
f 132 131 33
f 132 33 136
f 540 539 502
f 540 502 503
f 528 545 543
f 528 543 540
f 503 504 528
f 503 528 540
f 539 513 501
f 539 501 502
f 546 547 542
f 546 542 541
f 541 543 548
f 541 548 546
f 542 547 549
f 542 549 544
f 545 550 548
f 545 548 543
f 546 548 149
f 546 149 547
f 548 550 145
f 548 145 149
f 149 150 549
f 149 549 547
f 544 549 223
f 544 223 222
f 222 133 132
f 222 132 544
f 150 220 223
f 150 223 549
f 550 545 506
f 550 506 505
f 550 505 146
f 550 146 145
f 528 245 241
f 528 241 545
f 545 241 244
f 545 244 506
f 131 127 28
f 131 28 33
f 28 127 130
f 28 130 29
f 551 552 126
f 551 126 30
f 29 130 551
f 29 551 30
f 127 131 134
f 127 134 128
f 126 552 390
f 126 390 124
f 552 551 392
f 552 392 391
f 552 391 389
f 552 389 390
f 130 129 392
f 130 392 551
f 553 554 3
f 553 3 2
f 555 553 2
f 555 2 6
f 553 555 556
f 553 556 554
f 555 557 558
f 555 558 556
f 3 554 559
f 3 559 10
f 559 554 556
f 559 556 560
f 555 6 13
f 555 13 557
f 561 17 16
f 561 16 562
f 18 17 561
f 18 561 563
f 562 16 21
f 562 21 564
f 22 18 563
f 22 563 565
f 24 22 565
f 24 565 566
f 26 567 568
f 26 568 27
f 26 31 569
f 26 569 567
f 27 568 570
f 27 570 32
f 34 37 571
f 34 571 572
f 38 34 572
f 38 572 573
f 40 38 573
f 40 573 574
f 42 40 574
f 42 574 575
f 44 47 576
f 44 576 577
f 47 42 575
f 47 575 576
f 13 44 577
f 13 577 557
f 37 49 578
f 37 578 571
f 49 51 579
f 49 579 578
f 51 53 580
f 51 580 579
f 53 55 581
f 53 581 580
f 55 57 582
f 55 582 581
f 57 59 583
f 57 583 582
f 59 61 584
f 59 584 583
f 62 585 586
f 62 586 63
f 62 67 587
f 62 587 585
f 587 67 69
f 587 69 588
f 63 586 589
f 63 589 70
f 70 589 590
f 70 590 72
f 69 75 591
f 69 591 588
f 564 21 77
f 564 77 592
f 78 24 566
f 78 566 593
f 75 78 593
f 75 593 591
f 592 77 81
f 592 81 594
f 594 81 83
f 594 83 595
f 84 72 590
f 84 590 596
f 61 87 597
f 61 597 584
f 87 89 598
f 87 598 597
f 595 83 91
f 595 91 599
f 599 91 93
f 599 93 600
f 600 93 95
f 600 95 601
f 95 97 602
f 95 602 601
f 97 99 603
f 97 603 602
f 99 101 604
f 99 604 603
f 101 103 605
f 101 605 604
f 103 105 606
f 103 606 605
f 105 107 607
f 105 607 606
f 107 109 608
f 107 608 607
f 109 84 596
f 109 596 608
f 89 111 609
f 89 609 598
f 112 10 559
f 112 559 560
f 113 112 560
f 113 560 610
f 115 113 610
f 115 610 611
f 117 115 611
f 117 611 612
f 119 117 612
f 119 612 613
f 121 119 613
f 121 613 614
f 123 121 614
f 123 614 615
f 125 123 615
f 125 615 616
f 617 618 619
f 617 619 620
f 125 616 569
f 125 569 31
f 621 622 623
f 621 623 624
f 32 570 625
f 32 625 135
f 135 625 626
f 135 626 137
f 111 137 626
f 111 626 609
f 627 628 629
f 627 629 630
f 628 631 632
f 628 632 629
f 633 634 635
f 633 635 636
f 637 638 634
f 637 634 633
f 639 640 641
f 639 641 642
f 643 644 640
f 643 640 639
f 645 646 644
f 645 644 643
f 647 646 645
f 647 645 648
f 649 646 647
f 649 647 650
f 640 651 652
f 640 652 641
f 653 644 646
f 653 646 649
f 644 653 651
f 644 651 640
f 578 654 655
f 578 655 571
f 656 654 578
f 656 578 579
f 657 656 579
f 657 579 580
f 581 658 657
f 581 657 580
f 582 659 658
f 582 658 581
f 660 659 582
f 660 582 583
f 661 662 663
f 661 663 664
f 665 666 667
f 665 667 668
f 669 666 665
f 669 665 670
f 671 663 662
f 671 662 672
f 673 662 661
f 673 661 674
f 666 673 674
f 666 674 667
f 673 666 669
f 673 669 675
f 662 673 675
f 662 675 672
f 670 676 677
f 670 677 669
f 665 678 676
f 665 676 670
f 668 679 678
f 668 678 665
f 667 680 679
f 667 679 668
f 674 681 680
f 674 680 667
f 661 682 681
f 661 681 674
f 664 683 682
f 664 682 661
f 663 684 683
f 663 683 664
f 671 685 684
f 671 684 663
f 672 686 685
f 672 685 671
f 687 675 669
f 687 669 677
f 675 687 686
f 675 686 672
f 585 688 689
f 585 689 586
f 690 691 689
f 690 689 688
f 691 690 692
f 691 692 693
f 694 688 585
f 694 585 587
f 695 690 688
f 695 688 694
f 696 692 690
f 696 690 695
f 697 698 692
f 697 692 696
f 587 699 700
f 587 700 694
f 701 650 647
f 701 647 702
f 703 649 650
f 703 650 701
f 704 653 649
f 704 649 703
f 634 705 706
f 634 706 635
f 707 651 653
f 707 653 704
f 707 704 706
f 707 706 705
f 638 708 705
f 638 705 634
f 709 652 651
f 709 651 707
f 709 707 705
f 709 705 708
f 710 711 708
f 710 708 712
f 713 641 652
f 713 652 709
f 713 709 708
f 713 708 711
f 714 642 641
f 714 641 713
f 659 715 711
f 659 711 710
f 711 715 714
f 711 714 713
f 660 716 715
f 660 715 659
f 717 639 642
f 717 642 714
f 717 714 715
f 717 715 716
f 718 643 639
f 718 639 717
f 716 719 718
f 716 718 717
f 720 695 694
f 720 694 700
f 721 722 723
f 721 723 724
f 721 724 725
f 721 725 726
f 727 721 726
f 727 726 728
f 729 730 731
f 729 731 732
f 729 732 733
f 729 733 734
f 735 736 722
f 735 722 721
f 737 735 721
f 737 721 727
f 738 739 740
f 738 740 741
f 740 739 742
f 740 742 743
f 744 561 562
f 744 562 745
f 746 563 561
f 746 561 744
f 747 565 563
f 747 563 746
f 566 565 747
f 566 747 748
f 749 699 587
f 749 587 588
f 591 750 749
f 591 749 588
f 593 751 750
f 593 750 591
f 748 752 593
f 748 593 566
f 747 753 752
f 747 752 748
f 746 754 753
f 746 753 747
f 744 755 754
f 744 754 746
f 745 756 755
f 745 755 744
f 562 564 756
f 562 756 745
f 757 756 564
f 757 564 592
f 758 755 756
f 758 756 757
f 759 754 755
f 759 755 758
f 760 753 754
f 760 754 759
f 761 752 753
f 761 753 760
f 761 751 593
f 761 593 752
f 762 763 764
f 762 764 765
f 766 767 301
f 766 301 768
f 769 770 767
f 769 767 766
f 771 772 770
f 771 770 769
f 773 774 770
f 773 770 772
f 774 775 767
f 774 767 770
f 689 776 589
f 689 589 586
f 691 777 776
f 691 776 689
f 778 693 692
f 778 692 698
f 693 778 777
f 693 777 691
f 660 779 719
f 660 719 716
f 779 660 583
f 779 583 584
f 780 698 697
f 780 697 781
f 782 778 698
f 782 698 780
f 783 779 584
f 783 584 597
f 784 785 779
f 784 779 783
f 786 787 785
f 786 785 784
f 618 788 789
f 618 789 619
f 304 303 778
f 304 778 782
f 778 303 790
f 778 790 777
f 791 602 603
f 791 603 792
f 793 601 602
f 793 602 791
f 794 600 601
f 794 601 793
f 795 599 600
f 795 600 794
f 796 793 791
f 796 791 797
f 792 798 797
f 792 797 791
f 603 604 798
f 603 798 792
f 604 605 799
f 604 799 798
f 606 800 799
f 606 799 605
f 801 776 777
f 801 777 790
f 776 801 590
f 776 590 589
f 802 794 793
f 802 793 796
f 794 802 803
f 794 803 795
f 804 797 798
f 804 798 799
f 805 796 797
f 805 797 804
f 806 802 796
f 806 796 805
f 807 803 802
f 807 802 806
f 808 628 627
f 808 627 809
f 810 631 628
f 810 628 808
f 811 631 810
f 811 810 812
f 813 632 631
f 813 631 811
f 814 632 813
f 814 813 815
f 629 816 817
f 629 817 630
f 816 629 632
f 816 632 814
f 818 630 817
f 818 817 819
f 820 627 630
f 820 630 818
f 821 809 627
f 821 627 820
f 800 822 804
f 800 804 799
f 800 823 824
f 800 824 822
f 606 825 823
f 606 823 800
f 607 826 825
f 607 825 606
f 608 827 826
f 608 826 607
f 828 596 590
f 828 590 801
f 596 828 827
f 596 827 608
f 302 301 767
f 302 767 775
f 829 830 831
f 829 831 832
f 790 833 828
f 790 828 801
f 833 790 303
f 833 303 302
f 834 827 828
f 834 828 835
f 810 836 837
f 810 837 812
f 837 836 834
f 837 834 835
f 808 838 836
f 808 836 810
f 839 826 827
f 839 827 834
f 839 834 836
f 839 836 838
f 840 825 826
f 840 826 839
f 809 841 838
f 809 838 808
f 838 841 840
f 838 840 839
f 842 805 804
f 842 804 822
f 824 843 842
f 824 842 822
f 844 823 825
f 844 825 840
f 823 844 843
f 823 843 824
f 845 806 805
f 845 805 842
f 843 846 845
f 843 845 842
f 821 847 841
f 821 841 809
f 841 847 844
f 841 844 840
f 844 847 846
f 844 846 843
f 820 848 847
f 820 847 821
f 849 846 847
f 849 847 848
f 850 807 806
f 850 806 845
f 850 845 846
f 850 846 849
f 851 595 599
f 851 599 795
f 852 757 592
f 852 592 594
f 852 594 595
f 852 595 851
f 803 853 851
f 803 851 795
f 854 758 757
f 854 757 852
f 854 852 851
f 854 851 853
f 855 759 758
f 855 758 854
f 807 856 853
f 807 853 803
f 853 856 855
f 853 855 854
f 762 699 749
f 762 749 857
f 739 858 859
f 739 859 742
f 739 738 736
f 739 736 735
f 750 860 857
f 750 857 749
f 858 739 735
f 858 735 737
f 556 558 610
f 556 610 560
f 751 861 860
f 751 860 750
f 610 862 612
f 610 612 611
f 577 863 558
f 577 558 557
f 761 864 861
f 761 861 751
f 558 863 862
f 558 862 610
f 576 865 863
f 576 863 577
f 866 862 863
f 866 863 865
f 613 612 862
f 613 862 866
f 763 762 857
f 763 857 860
f 575 867 865
f 575 865 576
f 868 866 865
f 868 865 867
f 869 763 860
f 869 860 861
f 870 760 759
f 870 759 855
f 760 870 864
f 760 864 761
f 856 871 870
f 856 870 855
f 869 872 873
f 869 873 874
f 872 864 870
f 872 870 871
f 614 613 866
f 614 866 868
f 765 700 699
f 765 699 762
f 574 831 867
f 574 867 575
f 868 830 615
f 868 615 614
f 830 868 867
f 830 867 831
f 573 832 831
f 573 831 574
f 619 789 655
f 619 655 654
f 789 572 571
f 789 571 655
f 875 811 812
f 875 812 837
f 572 789 832
f 572 832 573
f 807 876 871
f 807 871 856
f 620 619 654
f 620 654 656
f 873 872 871
f 873 871 876
f 763 869 874
f 763 874 764
f 657 622 620
f 657 620 656
f 623 658 659
f 623 659 710
f 658 623 622
f 658 622 657
f 850 877 876
f 850 876 807
f 872 869 861
f 872 861 864
f 878 873 876
f 878 876 877
f 879 874 873
f 879 873 878
f 880 764 874
f 880 874 879
f 818 881 848
f 818 848 820
f 849 882 877
f 849 877 850
f 882 849 848
f 882 848 881
f 819 883 881
f 819 881 818
f 884 878 877
f 884 877 882
f 884 882 881
f 884 881 883
f 885 879 878
f 885 878 884
f 817 886 883
f 817 883 819
f 883 886 885
f 883 885 884
f 887 880 879
f 887 879 885
f 816 888 886
f 816 886 817
f 886 888 887
f 886 887 885
f 814 889 888
f 814 888 816
f 890 813 811
f 890 811 875
f 815 891 889
f 815 889 814
f 891 815 813
f 891 813 890
f 833 892 835
f 833 835 828
f 835 892 875
f 835 875 837
f 302 893 892
f 302 892 833
f 894 895 775
f 894 775 774
f 775 895 893
f 775 893 302
f 896 781 787
f 896 787 786
f 897 304 782
f 897 782 780
f 897 780 781
f 897 781 896
f 304 898 768
f 304 768 301
f 899 768 898
f 899 898 900
f 901 766 768
f 901 768 899
f 902 769 766
f 902 766 901
f 903 771 769
f 903 769 902
f 904 771 903
f 904 903 905
f 906 894 774
f 906 774 773
f 907 772 771
f 907 771 904
f 772 907 906
f 772 906 773
f 908 890 875
f 908 875 892
f 893 909 908
f 893 908 892
f 910 911 894
f 910 894 906
f 911 912 895
f 911 895 894
f 895 912 909
f 895 909 893
f 913 891 890
f 913 890 908
f 914 887 888
f 914 888 889
f 914 889 891
f 914 891 913
f 915 880 887
f 915 887 914
f 916 764 880
f 916 880 915
f 917 720 700
f 917 700 765
f 917 765 764
f 917 764 916
f 918 719 779
f 918 779 785
f 919 645 643
f 919 643 718
f 919 718 719
f 919 719 918
f 697 920 787
f 697 787 781
f 787 920 918
f 787 918 785
f 648 921 702
f 648 702 647
f 921 648 645
f 921 645 919
f 921 919 918
f 921 918 920
f 922 696 695
f 922 695 720
f 696 922 920
f 696 920 697
f 909 923 913
f 909 913 908
f 924 914 913
f 924 913 923
f 925 915 914
f 925 914 924
f 926 916 915
f 926 915 925
f 917 927 922
f 917 922 720
f 927 917 916
f 927 916 926
f 928 702 921
f 928 921 920
f 928 920 922
f 928 922 927
f 929 701 702
f 929 702 928
f 927 930 929
f 927 929 928
f 926 931 930
f 926 930 927
f 932 636 635
f 932 635 706
f 703 932 706
f 703 706 704
f 932 703 701
f 932 701 929
f 933 930 931
f 933 931 934
f 930 933 932
f 930 932 929
f 934 935 936
f 934 936 933
f 925 937 931
f 925 931 926
f 931 937 935
f 931 935 934
f 936 938 939
f 936 939 940
f 935 941 938
f 935 938 936
f 924 942 937
f 924 937 925
f 937 942 941
f 937 941 935
f 943 944 912
f 943 912 911
f 912 944 923
f 912 923 909
f 923 944 942
f 923 942 924
f 945 946 944
f 945 944 943
f 946 941 942
f 946 942 944
f 947 948 946
f 947 946 945
f 948 938 941
f 948 941 946
f 949 950 948
f 949 948 947
f 950 939 938
f 950 938 948
f 951 952 950
f 951 950 949
f 687 953 954
f 687 954 686
f 954 953 952
f 954 952 951
f 955 939 950
f 955 950 952
f 677 956 953
f 677 953 687
f 953 956 955
f 953 955 952
f 957 940 939
f 957 939 955
f 676 958 956
f 676 956 677
f 956 958 957
f 956 957 955
f 959 943 911
f 959 911 910
f 960 945 943
f 960 943 959
f 961 947 945
f 961 945 960
f 962 949 947
f 962 947 961
f 933 963 964
f 933 964 932
f 936 965 963
f 936 963 933
f 940 966 965
f 940 965 936
f 967 951 949
f 967 949 962
f 968 685 686
f 968 686 954
f 968 954 951
f 968 951 967
f 969 684 685
f 969 685 968
f 967 970 969
f 967 969 968
f 971 683 684
f 971 684 969
f 970 972 971
f 970 971 969
f 973 682 683
f 973 683 971
f 972 974 973
f 972 973 971
f 975 681 682
f 975 682 973
f 975 973 974
f 975 974 976
f 977 680 681
f 977 681 975
f 976 978 977
f 976 977 975
f 979 679 680
f 979 680 977
f 678 980 958
f 678 958 676
f 980 678 679
f 980 679 979
f 978 981 979
f 978 979 977
f 957 982 966
f 957 966 940
f 982 957 958
f 982 958 980
f 982 980 979
f 982 979 981
f 741 786 784
f 741 784 983
f 984 738 741
f 984 741 983
f 985 736 738
f 985 738 984
f 986 722 736
f 986 736 985
f 987 636 932
f 987 932 964
f 731 966 982
f 731 982 981
f 730 965 966
f 730 966 731
f 963 988 987
f 963 987 964
f 988 963 965
f 988 965 730
f 978 732 731
f 978 731 981
f 733 976 974
f 733 974 989
f 976 733 732
f 976 732 978
f 733 989 990
f 733 990 734
f 972 991 989
f 972 989 974
f 962 992 970
f 962 970 967
f 970 992 991
f 970 991 972
f 993 961 960
f 993 960 723
f 961 993 992
f 961 992 962
f 990 994 722
f 990 722 986
f 994 990 989
f 994 989 991
f 722 994 993
f 722 993 723
f 994 991 992
f 994 992 993
f 783 995 983
f 783 983 784
f 995 783 597
f 995 597 598
f 740 896 786
f 740 786 741
f 897 743 898
f 897 898 304
f 743 897 896
f 743 896 740
f 996 900 898
f 996 898 743
f 997 899 900
f 997 900 996
f 998 901 899
f 998 899 997
f 901 998 999
f 901 999 902
f 1000 903 902
f 1000 902 999
f 1001 905 903
f 1001 903 1000
f 1002 904 905
f 1002 905 1001
f 959 724 723
f 959 723 960
f 907 725 910
f 907 910 906
f 725 907 904
f 725 904 1002
f 910 725 724
f 910 724 959
f 1003 1004 1005
f 1003 1005 728
f 1001 1006 1007
f 1001 1007 1002
f 1008 1009 1004
f 1008 1004 1003
f 1008 1003 1007
f 1008 1007 1006
f 986 1010 734
f 986 734 990
f 1005 737 727
f 1005 727 728
f 1005 859 858
f 1005 858 737
f 1004 1011 859
f 1004 859 1005
f 1012 1009 1008
f 1012 1008 1013
f 1009 1014 1011
f 1009 1011 1004
f 1014 1009 1012
f 1014 1012 1015
f 1000 1016 1006
f 1000 1006 1001
f 1006 1016 1013
f 1006 1013 1008
f 999 1017 1016
f 999 1016 1000
f 1017 1012 1013
f 1017 1013 1016
f 998 1018 1017
f 998 1017 999
f 1018 1015 1012
f 1018 1012 1017
f 997 1019 1018
f 997 1018 998
f 1019 1014 1015
f 1019 1015 1018
f 996 1020 1019
f 996 1019 997
f 1020 1011 1014
f 1020 1014 1019
f 743 742 1020
f 743 1020 996
f 742 859 1011
f 742 1011 1020
f 726 725 1002
f 726 1002 1007
f 726 1007 1003
f 726 1003 728
f 1021 609 626
f 1021 626 1022
f 598 609 1021
f 598 1021 995
f 1023 626 625
f 1023 625 1024
f 626 1023 1025
f 626 1025 1022
f 625 624 1026
f 625 1026 1024
f 624 625 570
f 624 570 621
f 1022 985 984
f 1022 984 1021
f 1010 1022 1025
f 1010 1025 1027
f 985 1022 1010
f 985 1010 986
f 1021 984 983
f 1021 983 995
f 1028 1023 1024
f 1028 1024 1029
f 1023 1028 1030
f 1023 1030 1025
f 1024 1026 1031
f 1024 1031 1029
f 1027 1025 1030
f 1027 1030 1032
f 1028 1029 637
f 1028 637 1030
f 1030 637 633
f 1030 633 1032
f 637 1029 1031
f 637 1031 638
f 1026 710 712
f 1026 712 1031
f 710 1026 624
f 710 624 623
f 638 1031 712
f 638 712 708
f 1032 987 988
f 1032 988 1027
f 1032 633 636
f 1032 636 987
f 1010 1027 729
f 1010 729 734
f 1027 988 730
f 1027 730 729
f 621 570 568
f 621 568 617
f 568 567 618
f 568 618 617
f 788 569 616
f 788 616 829
f 567 569 788
f 567 788 618
f 617 620 622
f 617 622 621
f 616 615 830
f 616 830 829
f 829 832 789
f 829 789 788
