# T11 posed
v -0.412250 -0.005265 0.452166
v -0.410728 -0.005310 0.451663
v -0.410316 -0.004455 0.450220
v -0.412832 -0.004054 0.450844
v -0.409782 -0.006100 0.452330
v -0.408161 -0.005673 0.451046
v -0.416545 -0.006427 0.454841
v -0.414642 -0.006655 0.454695
v -0.414141 -0.005361 0.453195
v -0.415484 -0.004418 0.452423
v -0.404627 -0.010229 0.439221
v -0.405906 -0.016872 0.437554
v -0.406612 -0.015957 0.434522
v -0.405362 -0.009124 0.435847
v -0.401904 -0.003098 0.436377
v -0.401125 -0.004549 0.439904
v -0.404179 -0.014566 0.442672
v -0.404479 -0.018145 0.441592
v -0.403114 -0.014777 0.445549
v -0.403992 -0.018973 0.444297
v -0.403264 -0.010305 0.442385
v -0.402953 -0.012183 0.443908
v -0.399923 -0.010377 0.448269
v -0.399984 -0.006969 0.444750
v -0.407118 -0.015200 0.432016
v -0.406044 -0.008827 0.433081
v -0.407442 -0.014570 0.429921
v -0.406737 -0.009084 0.430593
v -0.402856 -0.002830 0.433104
v -0.407540 -0.014013 0.428067
v -0.407210 -0.010038 0.428532
v -0.404428 -0.003898 0.429485
v -0.407348 -0.013301 0.425784
v -0.407278 -0.010933 0.426721
v -0.406672 -0.008062 0.424010
v -0.406106 -0.005588 0.426757
v -0.406666 -0.011960 0.421589
v -0.406401 -0.010852 0.417822
v -0.406326 -0.005384 0.420855
v -0.405536 -0.001845 0.424488
v -0.404425 -0.000075 0.428376
v -0.403212 0.000877 0.433224
v -0.402143 0.000429 0.437131
v -0.401351 -0.000921 0.440656
v -0.400483 -0.003293 0.444360
v -0.404583 -0.000577 0.441314
v -0.403636 -0.002474 0.444747
v -0.421099 -0.004809 0.449170
v -0.421922 -0.007061 0.447767
v -0.422102 -0.009754 0.450454
v -0.421500 -0.007914 0.452569
v -0.421959 -0.012366 0.452296
v -0.421229 -0.011053 0.455180
v -0.418908 -0.007246 0.453240
v -0.417688 -0.004278 0.449785
v -0.418846 -0.010187 0.455137
v -0.401021 -0.005137 0.447291
v -0.399785 -0.006717 0.448736
v -0.403614 -0.014937 0.447922
v -0.404769 -0.019619 0.446307
v -0.400222 -0.011859 0.451180
v -0.399213 -0.008708 0.451543
v -0.399660 -0.010135 0.453484
v -0.401907 -0.012483 0.453530
v -0.406965 -0.015866 0.450242
v -0.407780 -0.020352 0.448396
v -0.411975 -0.020779 0.449397
v -0.411804 -0.017902 0.450473
v -0.414777 -0.018550 0.451106
v -0.414767 -0.021055 0.450038
v -0.407332 -0.014383 0.452889
v -0.411233 -0.015632 0.452156
v -0.403231 -0.011978 0.455184
v -0.407500 -0.014663 0.455407
v -0.404512 -0.013322 0.456181
v -0.410497 -0.015238 0.455448
v -0.413549 -0.015650 0.456021
v -0.414462 -0.016328 0.452784
v -0.400777 -0.010709 0.454467
v -0.402700 -0.010468 0.454896
v -0.407410 -0.016701 0.457606
v -0.410752 -0.017298 0.458390
v -0.404410 -0.015618 0.457266
v -0.404594 -0.010758 0.456028
v -0.405009 -0.012252 0.457345
v -0.404397 -0.009535 0.454443
v -0.420801 -0.011874 0.459300
v -0.417275 -0.011340 0.458644
v -0.414336 -0.018058 0.459801
v -0.406882 -0.018446 0.459356
v -0.410131 -0.018866 0.460309
v -0.414419 -0.019750 0.462881
v -0.404103 -0.017793 0.458593
v -0.408722 -0.020398 0.461219
v -0.410847 -0.021174 0.463365
v -0.406725 -0.020108 0.460217
v -0.404117 -0.019651 0.459669
v -0.408494 -0.022956 0.463532
v -0.406705 -0.023700 0.459313
v -0.407793 -0.025055 0.463515
v -0.404068 -0.023478 0.458898
v -0.407895 -0.025871 0.466130
v -0.408172 -0.022616 0.465134
v -0.402017 -0.019335 0.459260
v -0.401729 -0.017130 0.459152
v -0.401771 -0.023329 0.458611
v -0.404101 -0.014476 0.458589
v -0.402061 -0.015617 0.460959
v -0.404405 -0.013522 0.459939
v -0.409778 -0.019968 0.464667
v -0.412563 -0.017899 0.466378
v -0.399254 -0.018112 0.459841
v -0.402541 -0.014520 0.459979
v -0.399763 -0.017326 0.459486
v -0.405063 -0.012023 0.460935
v -0.401527 -0.011801 0.462152
v -0.402650 -0.012898 0.460459
v -0.403713 -0.011669 0.462171
v -0.402579 -0.011502 0.463787
v -0.390600 -0.015321 0.462666
v -0.390330 -0.016577 0.460941
v -0.388880 -0.014462 0.459240
v -0.389606 -0.011424 0.460245
v -0.391811 -0.013993 0.464278
v -0.391804 -0.009856 0.461444
v -0.391921 -0.017327 0.465907
v -0.393962 -0.013306 0.465122
v -0.393409 -0.016915 0.466837
v -0.396737 -0.013112 0.465600
v -0.395871 -0.016565 0.467644
v -0.399579 -0.013147 0.465858
v -0.398827 -0.016533 0.468188
v -0.397674 -0.010393 0.462532
v -0.394684 -0.009773 0.462173
v -0.401521 -0.013013 0.466477
v -0.404611 -0.012674 0.468731
v -0.405358 -0.015919 0.469416
v -0.403809 -0.016635 0.469115
v -0.403038 -0.012855 0.467325
v -0.403853 -0.010919 0.465324
v -0.405168 -0.010452 0.467348
v -0.405840 -0.011625 0.470327
v -0.406052 -0.009766 0.468848
v -0.393033 -0.025228 0.473306
v -0.393628 -0.022429 0.470856
v -0.396115 -0.022642 0.471807
v -0.395321 -0.025663 0.474148
v -0.407377 -0.013877 0.471135
v -0.391150 -0.025044 0.472631
v -0.392059 -0.022836 0.469593
v -0.407475 -0.019741 0.467789
v -0.409126 -0.018050 0.468716
v -0.411169 -0.014593 0.471115
v -0.413375 -0.014066 0.469777
v -0.398252 -0.026380 0.475426
v -0.399562 -0.023960 0.472702
v -0.405100 -0.010141 0.464137
v -0.406365 -0.009208 0.466453
v -0.407416 -0.008675 0.467524
v -0.400750 -0.027614 0.476547
v -0.403223 -0.026030 0.473606
v -0.406914 -0.010168 0.462995
v -0.408678 -0.009079 0.465575
v -0.404927 -0.028176 0.473817
v -0.401614 -0.028964 0.476661
v -0.390749 -0.025518 0.472049
v -0.392616 -0.024012 0.468525
v -0.391120 -0.027084 0.471515
v -0.394009 -0.026115 0.468144
v -0.389461 -0.026057 0.473489
v -0.389715 -0.027473 0.472905
v -0.389856 -0.025803 0.474287
v -0.391166 -0.026200 0.475282
v -0.393186 -0.026779 0.476448
v -0.395493 -0.027521 0.477940
v -0.397268 -0.028545 0.479350
v -0.410118 -0.008561 0.466677
v -0.397853 -0.029814 0.479742
v -0.393862 -0.028039 0.479351
v -0.392119 -0.027319 0.477792
v -0.390381 -0.026668 0.476517
v -0.389507 -0.026250 0.475378
v -0.388892 -0.026582 0.474922
v -0.422675 -0.011016 0.463938
v -0.422444 -0.011284 0.465778
v -0.418607 -0.011905 0.466099
v -0.418108 -0.011234 0.463325
v -0.425739 -0.011923 0.466106
v -0.425954 -0.011798 0.464855
v -0.428009 -0.013393 0.466022
v -0.428151 -0.013263 0.464957
v -0.421351 -0.019681 0.464171
v -0.423910 -0.019920 0.464094
v -0.424180 -0.020103 0.463351
v -0.421228 -0.020028 0.463068
v -0.418960 -0.018769 0.464743
v -0.417490 -0.019500 0.463468
v -0.417655 -0.016418 0.465703
v -0.415275 -0.016872 0.465931
v -0.417378 -0.014123 0.466349
v -0.414948 -0.013390 0.468310
v -0.415179 -0.011356 0.468042
v -0.389126 -0.027939 0.474461
v -0.388827 -0.026784 0.476558
v -0.388830 -0.028372 0.475887
v -0.387459 -0.027605 0.477642
v -0.386669 -0.028718 0.477207
v -0.390759 -0.027528 0.478534
v -0.394459 -0.028909 0.480882
v -0.392310 -0.028096 0.479622
v -0.389508 -0.028083 0.479436
v -0.394535 -0.030303 0.481623
v -0.388861 -0.029639 0.479970
v -0.391224 -0.030096 0.481243
v -0.391709 -0.028699 0.480662
v -0.413895 -0.010179 0.466968
v -0.425910 -0.012446 0.463452
v -0.427695 -0.013488 0.464125
v -0.423384 -0.012006 0.461770
v -0.415363 -0.011162 0.461570
v -0.412018 -0.009756 0.464029
v -0.405658 -0.010949 0.458411
v -0.406225 -0.009504 0.459702
v -0.407801 -0.009311 0.461715
v -0.411327 -0.009849 0.462893
v -0.410760 -0.009363 0.461604
v -0.413930 -0.010445 0.460503
v -0.415528 -0.010421 0.457890
v -0.413042 -0.009097 0.459606
v -0.415239 -0.008325 0.457249
v -0.417070 -0.009146 0.455401
v -0.410189 -0.009024 0.459873
v -0.411765 -0.008742 0.458236
v -0.405553 -0.009253 0.456549
v -0.406293 -0.007906 0.457054
v -0.405715 -0.008175 0.453869
v -0.407018 -0.006845 0.453839
v -0.404725 -0.008982 0.452582
v -0.406497 -0.007340 0.451296
v -0.402890 -0.010064 0.454111
v -0.401403 -0.010107 0.453884
v -0.403264 -0.008509 0.451656
v -0.405218 -0.006916 0.449367
v -0.406536 -0.005239 0.448409
v -0.400497 -0.009602 0.453225
v -0.401882 -0.008031 0.451008
v -0.403340 -0.006313 0.448625
v -0.403561 -0.004440 0.447223
v -0.400017 -0.008773 0.452149
v -0.400703 -0.007647 0.450445
v -0.401722 -0.006655 0.448984
v -0.409419 -0.003698 0.446592
v -0.414223 -0.003659 0.447433
v -0.407985 -0.000375 0.472194
v -0.406840 0.000092 0.473268
v -0.406072 -0.001942 0.470829
v -0.407114 -0.001209 0.471004
v -0.406885 -0.003106 0.468926
v -0.408317 -0.002416 0.470653
v -0.412935 -0.000470 0.472179
v -0.414304 0.000080 0.472733
v -0.411969 0.001327 0.474031
v -0.411112 -0.000505 0.472973
v -0.413237 -0.001750 0.471125
v -0.415258 -0.001563 0.471296
v -0.413387 -0.002886 0.469979
v -0.414842 -0.003547 0.469958
v -0.411999 -0.003231 0.469442
v -0.413056 -0.004248 0.468655
v -0.408130 -0.003817 0.467721
v -0.408968 -0.003357 0.469565
v -0.409921 -0.003977 0.467686
v -0.409979 -0.003548 0.469726
v -0.410076 -0.007924 0.467181
v -0.407601 -0.008048 0.467788
v -0.410970 -0.002300 0.471920
v -0.409324 -0.002307 0.471659
v -0.408332 -0.010306 0.473540
v -0.412485 -0.010695 0.474112
v -0.407904 -0.005584 0.476005
v -0.412925 -0.004627 0.476761
v -0.406204 -0.000814 0.474536
v -0.412152 0.001049 0.475928
v -0.407566 -0.007333 0.468268
v -0.409587 -0.007004 0.467660
v -0.407565 -0.004920 0.467373
v -0.409569 -0.004911 0.466984
v -0.414946 -0.009563 0.470189
v -0.413680 -0.008802 0.468644
v -0.406658 -0.008622 0.469633
v -0.415629 -0.006897 0.471303
v -0.413941 -0.007019 0.469349
v -0.415561 -0.004511 0.470331
v -0.413689 -0.005033 0.468629
v -0.416108 -0.002095 0.472104
v -0.416461 -0.006121 0.473307
v -0.414985 -0.000283 0.473973
v -0.415379 -0.005029 0.475404
v -0.405283 -0.003009 0.471313
v -0.406021 -0.004154 0.468824
v -0.406483 -0.006555 0.473207
v -0.406741 -0.007169 0.470252
v -0.406868 -0.009471 0.471778
v -0.414612 -0.010369 0.473067
v -0.415410 -0.010110 0.471762
v -0.404776 -0.030612 0.466579
v -0.403148 -0.029689 0.472494
v -0.406028 -0.026866 0.469494
v -0.398617 -0.032187 0.466252
v -0.399426 -0.030678 0.470633
v -0.401368 -0.034516 0.463232
v -0.400888 -0.036280 0.459298
v -0.398964 -0.035721 0.458892
v -0.398347 -0.034215 0.462734
v -0.403313 -0.034908 0.463478
v -0.402382 -0.036967 0.459885
v -0.407150 -0.031779 0.464072
v -0.408031 -0.027946 0.463498
v -0.409510 -0.029938 0.461587
v -0.408393 -0.026771 0.462358
v -0.410657 -0.028261 0.461179
v -0.393559 -0.028030 0.463205
v -0.395566 -0.025071 0.464537
v -0.392510 -0.027935 0.467315
v -0.395891 -0.027360 0.460666
v -0.397406 -0.024436 0.462389
v -0.391531 -0.030162 0.460149
v -0.392238 -0.028568 0.458462
v -0.391882 -0.029482 0.467543
v -0.391865 -0.030325 0.464372
v -0.391523 -0.031920 0.461405
v -0.393424 -0.030623 0.468338
v -0.393209 -0.031295 0.464894
v -0.392975 -0.032862 0.461918
v -0.390156 -0.031659 0.457623
v -0.389977 -0.029626 0.456914
v -0.391272 -0.033735 0.458186
v -0.393083 -0.034809 0.451378
v -0.395476 -0.034826 0.451919
v -0.394666 -0.032630 0.452897
v -0.391862 -0.032536 0.452280
v -0.390582 -0.028882 0.452835
v -0.389216 -0.030817 0.452200
v -0.389739 -0.032977 0.451370
v -0.388543 -0.033910 0.450728
v -0.390526 -0.035823 0.450639
v -0.390927 -0.034548 0.450975
v -0.394136 -0.028261 0.453444
v -0.388103 -0.031074 0.451874
v -0.393437 -0.036300 0.450975
v -0.396023 -0.036144 0.451669
v -0.393795 -0.027216 0.453604
v -0.389844 -0.028210 0.452871
v -0.397412 -0.033952 0.452552
v -0.396984 -0.032200 0.453361
v -0.396791 -0.029273 0.453825
v -0.398511 -0.034885 0.452304
v -0.396712 -0.028173 0.454255
v -0.398513 -0.031840 0.453286
v -0.398246 -0.030492 0.453650
v -0.398360 -0.032995 0.452864
v -0.398932 -0.030120 0.454048
v -0.399527 -0.033327 0.452615
v -0.399742 -0.031907 0.453297
v -0.389740 -0.027908 0.454827
v -0.388442 -0.030318 0.454347
v -0.389005 -0.033436 0.453450
v -0.391099 -0.035528 0.453521
v -0.393962 -0.036165 0.454032
v -0.396975 -0.036015 0.454625
v -0.400901 -0.034839 0.455040
v -0.402104 -0.033038 0.454238
v -0.402085 -0.031415 0.454761
v -0.399458 -0.028657 0.455987
v -0.392066 -0.027297 0.454761
v -0.395978 -0.027899 0.455334
v -0.421546 -0.031511 0.460222
v -0.423517 -0.031281 0.460276
v -0.423016 -0.033985 0.459085
v -0.420962 -0.033580 0.459095
v -0.419077 -0.033612 0.459620
v -0.419852 -0.032115 0.460220
v -0.417199 -0.033835 0.460304
v -0.418626 -0.031425 0.460830
v -0.419729 -0.036393 0.458621
v -0.418620 -0.035284 0.459072
v -0.416795 -0.036076 0.459536
v -0.422092 -0.036928 0.458405
v -0.421068 -0.030479 0.460836
v -0.423635 -0.030369 0.460865
v -0.425199 -0.034082 0.459224
v -0.424373 -0.036832 0.458736
v -0.425458 -0.031782 0.460282
v -0.417904 -0.037825 0.458072
v -0.421707 -0.038349 0.457416
v -0.425943 -0.030995 0.460888
v -0.427228 -0.034649 0.459682
v -0.426386 -0.036264 0.459143
v -0.426984 -0.032858 0.460154
v -0.427367 -0.037021 0.458730
v -0.425026 -0.038168 0.458005
v -0.428217 -0.032773 0.460434
v -0.428798 -0.035155 0.459665
v -0.421529 -0.020530 0.447753
v -0.421446 -0.023589 0.447169
v -0.422045 -0.024106 0.449935
v -0.422256 -0.021387 0.450442
v -0.420330 -0.024153 0.450672
v -0.420461 -0.021543 0.451103
v -0.417626 -0.023929 0.450296
v -0.414638 -0.023666 0.449527
v -0.417743 -0.021342 0.450697
v -0.419951 -0.027015 0.450978
v -0.417248 -0.026609 0.450645
v -0.421864 -0.027622 0.449358
v -0.414187 -0.026432 0.449666
v -0.421407 -0.026072 0.446810
v -0.419689 -0.029185 0.452439
v -0.416613 -0.028952 0.452646
v -0.421302 -0.030163 0.450649
v -0.413191 -0.028781 0.451970
v -0.421074 -0.027362 0.445004
v -0.421484 -0.029796 0.446918
v -0.420645 -0.032476 0.448570
v -0.421936 -0.031605 0.452555
v -0.420203 -0.029868 0.454574
v -0.418071 -0.029268 0.457300
v -0.414039 -0.028982 0.456432
v -0.420193 -0.034116 0.452435
v -0.422756 -0.030508 0.455852
v -0.421397 -0.029576 0.458403
v -0.423414 -0.032890 0.454475
v -0.420975 -0.029561 0.460126
v -0.417208 -0.030031 0.460217
v -0.422744 -0.035536 0.454508
v -0.414162 -0.029339 0.459922
v -0.425374 -0.031400 0.457159
v -0.424352 -0.030110 0.458928
v -0.425668 -0.033934 0.456129
v -0.423922 -0.029810 0.460353
v -0.425266 -0.036247 0.456112
v -0.427370 -0.032090 0.458666
v -0.426279 -0.030757 0.459288
v -0.427765 -0.034531 0.457748
v -0.426338 -0.030543 0.460429
v -0.427090 -0.035852 0.457227
v -0.428376 -0.032331 0.459833
v -0.428939 -0.035043 0.458805
v -0.427521 -0.036528 0.457778
v -0.395925 -0.031105 0.469206
v -0.395463 -0.032041 0.465508
v -0.395404 -0.033732 0.462348
v -0.395870 -0.027175 0.457250
v -0.396016 -0.027238 0.456907
v -0.398981 -0.028189 0.456733
v -0.398174 -0.027147 0.457172
v -0.393636 -0.027662 0.457300
v -0.392757 -0.027541 0.456542
v -0.395039 -0.027376 0.458117
v -0.391718 -0.028321 0.457118
v -0.397197 -0.027177 0.459093
v -0.399588 -0.027249 0.458257
v -0.401413 -0.028743 0.455570
v -0.401809 -0.027002 0.456894
v -0.401642 -0.031034 0.456202
v -0.390654 -0.028399 0.456351
v -0.400265 -0.023876 0.460375
v -0.399031 -0.024128 0.461250
v -0.420348 -0.023952 0.442724
v -0.420172 -0.019267 0.443810
v -0.420597 -0.018306 0.440676
v -0.420822 -0.023514 0.439116
v -0.420712 -0.027749 0.437335
v -0.420627 -0.028188 0.440246
v -0.421042 -0.030903 0.436440
v -0.421255 -0.031595 0.440198
v -0.421525 -0.030908 0.443927
v -0.420898 -0.028423 0.442904
v -0.421704 -0.022483 0.436063
v -0.421347 -0.026553 0.434568
v -0.421836 -0.017290 0.437275
v -0.421480 -0.029650 0.433246
v -0.422897 -0.016263 0.433852
v -0.422172 -0.021102 0.432670
v -0.421877 -0.024774 0.431537
v -0.423655 -0.015195 0.430326
v -0.422428 -0.019697 0.429280
v -0.422005 -0.023048 0.428569
v -0.422239 -0.027768 0.430110
v -0.422607 -0.025531 0.427162
v -0.423294 -0.018533 0.426363
v -0.422546 -0.021366 0.426519
v -0.424145 -0.014243 0.427200
v -0.423299 -0.022603 0.424909
v -0.424123 -0.018673 0.423932
v -0.424718 -0.013560 0.424936
v -0.421076 -0.032229 0.431860
v -0.420452 -0.033456 0.435373
v -0.422025 -0.030214 0.428776
v -0.422707 -0.027487 0.425792
v -0.423537 -0.023807 0.423517
v -0.424281 -0.019018 0.422678
v -0.424743 -0.013105 0.423667
v -0.422881 -0.012809 0.422874
v -0.419090 -0.012406 0.421910
v -0.418823 -0.017928 0.420988
v -0.422559 -0.018740 0.421960
v -0.420306 -0.034203 0.440102
v -0.418304 -0.032282 0.431227
v -0.417383 -0.033253 0.434841
v -0.419574 -0.030730 0.427976
v -0.420803 -0.028065 0.424961
v -0.421861 -0.023936 0.422737
v -0.418175 -0.023163 0.421684
v -0.416988 -0.027430 0.423866
v -0.415612 -0.030107 0.426975
v -0.414509 -0.031804 0.430376
v -0.413901 -0.032664 0.434023
v -0.416863 -0.034818 0.440363
v -0.413403 -0.033820 0.438127
v -0.409979 -0.031436 0.429268
v -0.409343 -0.032127 0.433057
v -0.411080 -0.029640 0.425651
v -0.412402 -0.026523 0.422431
v -0.413473 -0.022297 0.420380
v -0.414127 -0.017260 0.419707
v -0.414429 -0.011873 0.420604
v -0.409332 -0.017137 0.418090
v -0.408693 -0.022187 0.418827
v -0.407557 -0.026177 0.420887
v -0.406112 -0.029523 0.424337
v -0.404782 -0.031502 0.427875
v -0.403717 -0.032412 0.431486
v -0.408619 -0.033068 0.437529
v -0.402807 -0.032739 0.435407
v -0.401295 -0.030763 0.427503
v -0.400520 -0.031594 0.431188
v -0.402398 -0.028983 0.424003
v -0.403729 -0.025528 0.420503
v -0.404973 -0.021931 0.418255
v -0.406001 -0.017006 0.417253
v -0.409714 -0.011233 0.418962
v -0.411033 -0.035635 0.449933
v -0.413027 -0.035308 0.447930
v -0.410256 -0.034617 0.447012
v -0.409073 -0.035250 0.449215
v -0.407306 -0.035315 0.448653
v -0.406915 -0.035864 0.450356
v -0.407855 -0.036228 0.451232
v -0.405519 -0.035561 0.451658
v -0.407051 -0.036940 0.453183
v -0.410012 -0.036980 0.453067
v -0.409450 -0.036250 0.451463
v -0.408049 -0.034485 0.446006
v -0.412307 -0.036183 0.451238
v -0.414496 -0.035594 0.448834
v -0.405549 -0.035378 0.448573
v -0.406268 -0.034465 0.445315
v -0.413857 -0.035492 0.445797
v -0.411039 -0.034535 0.444832
v -0.409013 -0.034364 0.443610
v -0.415744 -0.035858 0.445760
v -0.407393 -0.033904 0.442335
v -0.413316 -0.035682 0.443840
v -0.411438 -0.035083 0.442966
v -0.409928 -0.034683 0.442600
v -0.411979 -0.035359 0.441186
v -0.409497 -0.034548 0.440935
v -0.414623 -0.036089 0.442652
v -0.404273 -0.023276 0.435193
v -0.404999 -0.022328 0.431771
v -0.400487 -0.028166 0.432613
v -0.401234 -0.027419 0.428869
v -0.403987 -0.021631 0.440491
v -0.402888 -0.023038 0.443000
v -0.402624 -0.024238 0.440189
v -0.402868 -0.024933 0.437870
v -0.399431 -0.028051 0.442832
v -0.399395 -0.028852 0.438000
v -0.405705 -0.021050 0.429309
v -0.406449 -0.019472 0.427390
v -0.402214 -0.025844 0.426000
v -0.407004 -0.017548 0.426217
v -0.403887 -0.023002 0.423585
v -0.407144 -0.015795 0.425219
v -0.405695 -0.020157 0.422255
v -0.406431 -0.016592 0.421363
v -0.399712 -0.031680 0.435601
v -0.420801 -0.033594 0.444646
v -0.418169 -0.034394 0.444864
v -0.418222 -0.033045 0.448085
v -0.399103 -0.031309 0.441174
v -0.400285 -0.031850 0.439063
v -0.403357 -0.024274 0.445045
v -0.399748 -0.028486 0.446079
v -0.398577 -0.031238 0.444624
v -0.399066 -0.031186 0.447017
v -0.406713 -0.024991 0.447432
v -0.401417 -0.029379 0.448356
v -0.411647 -0.023691 0.448687
v -0.410937 -0.026487 0.448808
v -0.406955 -0.027724 0.448794
v -0.402689 -0.030791 0.449414
v -0.407103 -0.028932 0.451022
v -0.404030 -0.030319 0.450961
v -0.410131 -0.028642 0.451314
v -0.400192 -0.031323 0.448134
v -0.402094 -0.031860 0.448319
v -0.410444 -0.028627 0.454895
v -0.407088 -0.028504 0.453967
v -0.404041 -0.029045 0.453132
v -0.404473 -0.031891 0.451288
v -0.404002 -0.032349 0.449365
v -0.403763 -0.032459 0.447375
v -0.416654 -0.034005 0.451650
v -0.409873 -0.028393 0.457371
v -0.406621 -0.028035 0.456397
v -0.403825 -0.027997 0.455447
v -0.408528 -0.027577 0.459005
v -0.406534 -0.027147 0.458045
v -0.403915 -0.027078 0.457378
v -0.403659 -0.030724 0.453578
v -0.403896 -0.032296 0.454145
v -0.412184 -0.032741 0.461773
v -0.404462 -0.034129 0.454113
v -0.401911 -0.036059 0.456208
v -0.403076 -0.035061 0.454952
v -0.393373 -0.034889 0.458463
v -0.396127 -0.035461 0.458705
v -0.403922 -0.037993 0.460912
v -0.404821 -0.035743 0.463303
v -0.404390 -0.039065 0.458517
v -0.403130 -0.037468 0.457132
v -0.405079 -0.039825 0.461624
v -0.405220 -0.040524 0.459352
v -0.392930 -0.029668 0.471938
v -0.395236 -0.029902 0.472843
v -0.406714 -0.038493 0.463540
v -0.391036 -0.029340 0.471308
v -0.408712 -0.033771 0.463856
v -0.410563 -0.038056 0.463853
v -0.412771 -0.037833 0.462367
v -0.398176 -0.030180 0.474257
v -0.404355 -0.037496 0.455693
v -0.405540 -0.039631 0.457055
v -0.406554 -0.040730 0.457615
v -0.400698 -0.029915 0.475839
v -0.406188 -0.036916 0.454734
v -0.407860 -0.039350 0.456208
v -0.390662 -0.028598 0.471099
v -0.389379 -0.028899 0.472612
v -0.389751 -0.029581 0.473121
v -0.391072 -0.029887 0.474144
v -0.393106 -0.030176 0.475398
v -0.395419 -0.030519 0.477011
v -0.397216 -0.030554 0.478728
v -0.409262 -0.040459 0.456800
v -0.393791 -0.030804 0.478496
v -0.392041 -0.030433 0.476829
v -0.390291 -0.030157 0.475439
v -0.389411 -0.029811 0.474278
v -0.388819 -0.029246 0.474099
v -0.421948 -0.037542 0.455748
v -0.417406 -0.036791 0.455422
v -0.425256 -0.037574 0.456904
v -0.414853 -0.033470 0.460785
v -0.414329 -0.037644 0.460766
v -0.414438 -0.039178 0.459385
v -0.388742 -0.030001 0.475564
v -0.387399 -0.029864 0.476944
v -0.390679 -0.030608 0.477581
v -0.394404 -0.030975 0.480244
v -0.392239 -0.030831 0.478776
v -0.389442 -0.030594 0.478660
v -0.391652 -0.030887 0.479986
v -0.413105 -0.039479 0.457866
v -0.414691 -0.035715 0.453981
v -0.411255 -0.038089 0.455255
v -0.405046 -0.033608 0.451413
v -0.410584 -0.037338 0.454390
v -0.413244 -0.035627 0.452720
v -0.414877 -0.034247 0.450538
v -0.416393 -0.033963 0.447744
v -0.404885 -0.033940 0.448923
v -0.405030 -0.033319 0.446109
v -0.405802 -0.032591 0.443514
v -0.404088 -0.031881 0.445532
v -0.402284 -0.031759 0.447435
v -0.400803 -0.031520 0.447299
v -0.402613 -0.031675 0.444536
v -0.404522 -0.031785 0.441719
v -0.405786 -0.032683 0.439944
v -0.401211 -0.031631 0.443766
v -0.399877 -0.031520 0.446493
v -0.402626 -0.031761 0.440801
v -0.402788 -0.032517 0.438564
v -0.400021 -0.031562 0.443115
v -0.399366 -0.031569 0.445158
v -0.401017 -0.031598 0.441329
v -0.406628 -0.050225 0.456803
v -0.405818 -0.048825 0.456303
v -0.404817 -0.048077 0.456587
v -0.405443 -0.051160 0.457444
v -0.407085 -0.047695 0.456673
v -0.405721 -0.046081 0.455657
v -0.411589 -0.050380 0.456764
v -0.409756 -0.050710 0.457472
v -0.410507 -0.052858 0.457299
v -0.412919 -0.051205 0.456894
v -0.411964 -0.048752 0.456610
v -0.413967 -0.049101 0.456621
v -0.412181 -0.047184 0.456306
v -0.413668 -0.046699 0.456640
v -0.410815 -0.046530 0.456079
v -0.411936 -0.045297 0.455984
v -0.407794 -0.046340 0.456293
v -0.407017 -0.044876 0.455045
v -0.408809 -0.046327 0.456521
v -0.408808 -0.044816 0.455079
v -0.406705 -0.041405 0.457479
v -0.409181 -0.041273 0.456866
v -0.409710 -0.048638 0.457614
v -0.408065 -0.048402 0.457426
v -0.411625 -0.043031 0.464070
v -0.407473 -0.042832 0.463473
v -0.411720 -0.049523 0.462837
v -0.406773 -0.048076 0.462857
v -0.410672 -0.053708 0.459006
v -0.404837 -0.051108 0.458999
v -0.406629 -0.042257 0.457489
v -0.408640 -0.042284 0.456773
v -0.408521 -0.043625 0.455030
v -0.406520 -0.043734 0.455388
v -0.414072 -0.041856 0.460149
v -0.412782 -0.041539 0.458504
v -0.405759 -0.041934 0.459355
v -0.414592 -0.044730 0.459580
v -0.412942 -0.043446 0.458093
v -0.414423 -0.046150 0.457466
v -0.412609 -0.044663 0.456395
v -0.414822 -0.049159 0.457566
v -0.415357 -0.046543 0.460783
v -0.413583 -0.051631 0.458086
v -0.414197 -0.048560 0.461900
v -0.404079 -0.047435 0.457597
v -0.404912 -0.045111 0.456177
v -0.405440 -0.045642 0.461152
v -0.405776 -0.043469 0.459066
v -0.405995 -0.042461 0.461601
v -0.413747 -0.042813 0.462969
v -0.414548 -0.042323 0.461739
v -0.405009 -0.022000 0.469235
v -0.398934 -0.020211 0.469944
v -0.401852 -0.016719 0.468722
v -0.393738 -0.021673 0.465168
v -0.396073 -0.020912 0.462658
v -0.392511 -0.018452 0.461581
v -0.391862 -0.018062 0.463882
v -0.392135 -0.020342 0.467452
v -0.393513 -0.019907 0.468405
v -0.393780 -0.009339 0.459235
v -0.392445 -0.011665 0.458719
v -0.395226 -0.012077 0.459240
v -0.396157 -0.009760 0.459655
v -0.390362 -0.010695 0.458243
v -0.389719 -0.012925 0.457718
v -0.390979 -0.014926 0.457142
v -0.389213 -0.009487 0.458265
v -0.391626 -0.009217 0.458791
v -0.391292 -0.007950 0.459241
v -0.394465 -0.015958 0.457240
v -0.388616 -0.012461 0.457616
v -0.394213 -0.007900 0.459736
v -0.396775 -0.008568 0.460179
v -0.390193 -0.015468 0.456808
v -0.394069 -0.016893 0.456790
v -0.397518 -0.012820 0.459345
v -0.398041 -0.010944 0.459657
v -0.397155 -0.015473 0.458084
v -0.399183 -0.010092 0.459959
v -0.397018 -0.016614 0.457824
v -0.399022 -0.013159 0.459056
v -0.398678 -0.014453 0.458602
v -0.398933 -0.011959 0.459360
v -0.399339 -0.015018 0.458712
v -0.400116 -0.011610 0.459323
v -0.400250 -0.013174 0.459085
v -0.390047 -0.016807 0.458263
v -0.392330 -0.017399 0.457818
v -0.396256 -0.017401 0.458574
v -0.421886 -0.018504 0.464242
v -0.421427 -0.016134 0.464482
v -0.423502 -0.015896 0.464666
v -0.423845 -0.018823 0.464129
v -0.419535 -0.016308 0.464971
v -0.420223 -0.017921 0.464612
v -0.419175 -0.014600 0.465475
v -0.420350 -0.013487 0.465705
v -0.422739 -0.013037 0.465788
v -0.425688 -0.016003 0.464802
v -0.425008 -0.013408 0.465968
v -0.425813 -0.018502 0.464383
v -0.426248 -0.019522 0.464430
v -0.426985 -0.014206 0.465952
v -0.427740 -0.015888 0.465468
v -0.427402 -0.017612 0.464850
v -0.428622 -0.017907 0.465017
v -0.429333 -0.015535 0.465719
v -0.422189 -0.018791 0.451574
v -0.421608 -0.017618 0.449011
v -0.420468 -0.019084 0.452236
v -0.417762 -0.018920 0.451841
v -0.417513 -0.016891 0.453643
v -0.420227 -0.016881 0.454105
v -0.422193 -0.015559 0.453080
v -0.421698 -0.015368 0.450113
v -0.416964 -0.016065 0.456621
v -0.420051 -0.015910 0.456535
v -0.421738 -0.014171 0.455583
v -0.421457 -0.013264 0.449354
v -0.420566 -0.016584 0.458672
v -0.422413 -0.014096 0.457957
v -0.418366 -0.018516 0.460615
v -0.421679 -0.019058 0.461650
v -0.423125 -0.016912 0.460047
v -0.423923 -0.014200 0.460242
v -0.424647 -0.019069 0.462341
v -0.425766 -0.017047 0.461587
v -0.426198 -0.014388 0.462158
v -0.426601 -0.018830 0.462972
v -0.427772 -0.017426 0.463193
v -0.428299 -0.014912 0.463799
v -0.426629 -0.019656 0.463790
v -0.428767 -0.017940 0.464273
v -0.429481 -0.015145 0.464945
v -0.395787 -0.019753 0.469295
v -0.396078 -0.019083 0.459741
v -0.398387 -0.019185 0.459624
v -0.396234 -0.018842 0.459495
v -0.393870 -0.018603 0.460089
v -0.393002 -0.018238 0.459410
v -0.395250 -0.019379 0.460580
v -0.392001 -0.017867 0.460342
v -0.397389 -0.020236 0.461238
v -0.399794 -0.019809 0.460557
v -0.390954 -0.017323 0.459772
v -0.420599 -0.014742 0.445566
v -0.421106 -0.013086 0.442335
v -0.421129 -0.009864 0.445901
v -0.421235 -0.008585 0.443252
v -0.421731 -0.005496 0.444282
v -0.421368 -0.011189 0.448221
v -0.421852 -0.008045 0.440283
v -0.421983 -0.012260 0.439219
v -0.422159 -0.004752 0.440933
v -0.422430 -0.011510 0.435630
v -0.422336 -0.007833 0.436767
v -0.422670 -0.010776 0.432033
v -0.422424 -0.007593 0.433341
v -0.422872 -0.004580 0.437269
v -0.423171 -0.004783 0.433569
v -0.422913 -0.007849 0.430694
v -0.423525 -0.010133 0.428955
v -0.423749 -0.005959 0.430051
v -0.424394 -0.008690 0.427015
v -0.421279 -0.002758 0.444846
v -0.421906 -0.001824 0.441247
v -0.422803 -0.001801 0.437548
v -0.423392 -0.002402 0.433537
v -0.424070 -0.004193 0.429572
v -0.424588 -0.007706 0.426169
v -0.422867 -0.007445 0.425444
v -0.419111 -0.007377 0.424243
v -0.419151 -0.001282 0.440797
v -0.418216 -0.002470 0.444342
v -0.420393 -0.000799 0.437217
v -0.421533 -0.001360 0.433205
v -0.422418 -0.003562 0.429024
v -0.418714 -0.003419 0.427777
v -0.417708 -0.001069 0.432003
v -0.416419 -0.000544 0.436102
v -0.415349 -0.001003 0.439885
v -0.414728 -0.002319 0.443391
v -0.410823 -0.000452 0.438832
v -0.410165 -0.001984 0.442362
v -0.411889 0.000049 0.434816
v -0.413104 -0.000776 0.430382
v -0.413998 -0.003161 0.426292
v -0.414410 -0.006967 0.422886
v -0.409249 -0.002144 0.425035
v -0.409643 -0.005916 0.421561
v -0.408273 0.000054 0.428996
v -0.406940 0.000948 0.433745
v -0.405657 0.000652 0.437800
v -0.409799 -0.008552 0.457456
v -0.410984 -0.007884 0.455261
v -0.413772 -0.007973 0.456365
v -0.408600 -0.008830 0.459691
v -0.407657 -0.008585 0.458779
v -0.408045 -0.008092 0.457057
v -0.408788 -0.007311 0.454392
v -0.411795 -0.006754 0.453404
f 1 2 3
f 1 3 4
f 2 5 6
f 2 6 3
f 7 8 9
f 7 9 10
f 9 1 4
f 9 4 10
f 11 12 13
f 11 13 14
f 11 14 15
f 11 15 16
f 11 17 18
f 11 18 12
f 18 17 19
f 18 19 20
f 17 11 21
f 17 21 22
f 19 17 22
f 19 22 23
f 11 16 24
f 11 24 21
f 13 25 26
f 13 26 14
f 25 27 28
f 25 28 26
f 14 26 29
f 14 29 15
f 28 27 30
f 28 30 31
f 26 28 32
f 26 32 29
f 31 30 33
f 31 33 34
f 31 34 35
f 31 35 36
f 28 31 36
f 28 36 32
f 34 33 37
f 34 37 35
f 37 38 39
f 37 39 35
f 35 39 40
f 35 40 36
f 36 40 41
f 36 41 32
f 32 41 42
f 32 42 29
f 29 42 43
f 29 43 15
f 16 15 43
f 16 43 44
f 16 44 45
f 16 45 24
f 44 46 47
f 44 47 45
f 48 49 50
f 48 50 51
f 51 50 52
f 51 52 53
f 48 51 54
f 48 54 55
f 51 53 56
f 51 56 54
f 22 21 24
f 22 24 23
f 24 45 57
f 24 57 58
f 20 19 59
f 20 59 60
f 19 23 61
f 19 61 59
f 23 24 58
f 23 58 62
f 61 23 62
f 61 62 63
f 59 61 64
f 59 64 65
f 60 59 65
f 60 65 66
f 67 66 65
f 67 65 68
f 67 68 69
f 67 69 70
f 68 65 71
f 68 71 72
f 65 64 73
f 65 73 71
f 74 71 73
f 74 73 75
f 72 71 74
f 72 74 76
f 72 76 77
f 72 77 78
f 68 72 78
f 68 78 69
f 64 61 63
f 64 63 79
f 73 64 79
f 73 79 80
f 76 74 81
f 76 81 82
f 81 74 75
f 81 75 83
f 75 73 84
f 75 84 85
f 84 73 80
f 84 80 86
f 53 87 88
f 53 88 56
f 77 76 82
f 77 82 89
f 82 81 90
f 82 90 91
f 82 91 92
f 82 92 89
f 90 81 83
f 90 83 93
f 91 94 95
f 91 95 92
f 91 90 96
f 91 96 94
f 96 90 93
f 96 93 97
f 98 96 99
f 98 99 100
f 94 96 98
f 94 98 95
f 99 96 97
f 99 97 101
f 98 100 102
f 98 102 103
f 104 97 93
f 104 93 105
f 101 97 104
f 101 104 106
f 93 83 107
f 93 107 105
f 108 105 107
f 108 107 109
f 95 110 111
f 95 111 92
f 83 75 85
f 83 85 107
f 112 108 113
f 112 113 114
f 113 108 109
f 113 109 115
f 116 117 118
f 116 118 119
f 117 113 115
f 117 115 118
f 120 121 122
f 120 122 123
f 124 120 123
f 124 123 125
f 126 124 127
f 126 127 128
f 128 127 129
f 128 129 130
f 130 129 131
f 130 131 132
f 133 129 127
f 133 127 134
f 129 133 116
f 129 116 131
f 134 127 124
f 134 124 125
f 131 116 119
f 131 119 135
f 136 137 138
f 136 138 139
f 136 139 140
f 136 140 141
f 142 136 141
f 142 141 143
f 144 145 146
f 144 146 147
f 136 142 148
f 136 148 137
f 149 150 145
f 149 145 144
f 135 119 140
f 135 140 139
f 151 138 137
f 151 137 152
f 151 152 111
f 151 111 110
f 152 137 148
f 152 148 153
f 152 153 154
f 152 154 111
f 155 147 146
f 155 146 156
f 119 118 157
f 119 157 140
f 141 140 157
f 141 157 158
f 143 141 158
f 143 158 159
f 160 155 156
f 160 156 161
f 118 115 162
f 118 162 157
f 158 157 162
f 158 162 163
f 164 165 160
f 164 160 161
f 166 167 150
f 166 150 149
f 168 169 167
f 168 167 166
f 170 171 168
f 170 168 166
f 172 170 166
f 172 166 149
f 173 172 149
f 173 149 144
f 174 173 144
f 174 144 147
f 155 175 174
f 155 174 147
f 160 176 175
f 160 175 155
f 159 158 163
f 159 163 177
f 165 178 176
f 165 176 160
f 179 180 174
f 179 174 175
f 180 181 173
f 180 173 174
f 173 181 182
f 173 182 172
f 182 183 170
f 182 170 172
f 184 185 186
f 184 186 187
f 188 185 184
f 188 184 189
f 190 188 189
f 190 189 191
f 192 193 194
f 192 194 195
f 196 192 195
f 196 195 197
f 198 196 197
f 198 197 199
f 200 198 199
f 200 199 201
f 200 201 202
f 200 202 186
f 183 203 171
f 183 171 170
f 204 183 182
f 204 182 181
f 204 205 203
f 204 203 183
f 206 207 205
f 206 205 204
f 208 204 181
f 208 181 180
f 176 209 179
f 176 179 175
f 210 208 180
f 210 180 179
f 208 211 206
f 208 206 204
f 178 212 209
f 178 209 176
f 211 213 207
f 211 207 206
f 214 213 211
f 214 211 215
f 212 214 215
f 212 215 209
f 209 215 210
f 209 210 179
f 111 154 201
f 111 201 199
f 92 111 199
f 92 199 197
f 186 202 216
f 186 216 187
f 191 189 217
f 191 217 218
f 217 189 184
f 217 184 219
f 87 219 184
f 87 184 187
f 87 187 220
f 87 220 88
f 187 216 221
f 187 221 220
f 215 211 208
f 215 208 210
f 216 177 163
f 216 163 221
f 109 107 85
f 109 85 222
f 115 109 222
f 115 222 223
f 162 115 223
f 162 223 224
f 163 162 225
f 163 225 221
f 225 162 224
f 225 224 226
f 221 225 227
f 221 227 220
f 220 227 228
f 220 228 88
f 225 226 229
f 225 229 227
f 227 229 230
f 227 230 228
f 88 228 231
f 88 231 56
f 231 228 230
f 231 230 7
f 56 231 7
f 56 7 54
f 55 54 7
f 55 7 10
f 226 232 233
f 226 233 229
f 223 222 234
f 223 234 235
f 222 85 84
f 222 84 234
f 234 84 86
f 234 86 236
f 235 234 236
f 235 236 237
f 236 86 238
f 236 238 239
f 238 86 80
f 238 80 240
f 240 80 79
f 240 79 241
f 236 239 6
f 236 6 237
f 238 240 241
f 238 241 242
f 238 242 243
f 238 243 239
f 239 243 244
f 239 244 6
f 242 241 245
f 242 245 246
f 242 246 247
f 242 247 243
f 241 79 63
f 241 63 245
f 243 247 248
f 243 248 244
f 246 245 249
f 246 249 250
f 246 250 251
f 246 251 247
f 245 63 62
f 245 62 249
f 247 251 57
f 247 57 248
f 250 58 57
f 250 57 251
f 250 249 62
f 250 62 58
f 248 57 45
f 248 45 47
f 244 248 47
f 244 47 252
f 6 244 252
f 6 252 3
f 10 4 253
f 10 253 55
f 4 3 252
f 4 252 253
f 254 255 256
f 254 256 257
f 257 256 258
f 257 258 259
f 260 261 262
f 260 262 263
f 264 265 261
f 264 261 260
f 266 267 265
f 266 265 264
f 268 269 267
f 268 267 266
f 259 258 270
f 259 270 271
f 271 270 272
f 271 272 273
f 159 177 274
f 159 274 275
f 266 264 276
f 266 276 268
f 273 277 259
f 273 259 271
f 259 277 254
f 259 254 257
f 263 276 264
f 263 264 260
f 153 148 278
f 153 278 279
f 279 278 280
f 279 280 281
f 281 280 282
f 281 282 283
f 282 255 262
f 282 262 283
f 284 275 274
f 284 274 285
f 270 286 287
f 270 287 272
f 287 286 284
f 287 284 285
f 288 289 216
f 288 216 202
f 275 290 143
f 275 143 159
f 291 292 289
f 291 289 288
f 293 267 269
f 293 269 294
f 293 294 292
f 293 292 291
f 295 265 267
f 295 267 293
f 291 296 295
f 291 295 293
f 297 261 265
f 297 265 295
f 296 298 297
f 296 297 295
f 283 262 261
f 283 261 297
f 298 281 283
f 298 283 297
f 292 294 287
f 292 287 285
f 294 269 272
f 294 272 287
f 289 292 285
f 289 285 274
f 216 289 274
f 216 274 177
f 299 256 255
f 299 255 282
f 258 300 286
f 258 286 270
f 300 258 256
f 300 256 299
f 280 301 299
f 280 299 282
f 284 302 290
f 284 290 275
f 302 284 286
f 302 286 300
f 302 300 299
f 302 299 301
f 303 290 302
f 303 302 301
f 142 143 290
f 142 290 303
f 280 278 303
f 280 303 301
f 272 269 268
f 272 268 273
f 262 255 254
f 262 254 263
f 273 268 276
f 273 276 277
f 298 304 279
f 298 279 281
f 288 305 296
f 288 296 291
f 296 305 304
f 296 304 298
f 202 201 305
f 202 305 288
f 154 153 279
f 154 279 304
f 154 304 305
f 154 305 201
f 148 142 303
f 148 303 278
f 263 254 277
f 263 277 276
f 306 307 164
f 306 164 308
f 306 309 310
f 306 310 307
f 311 312 313
f 311 313 314
f 314 309 306
f 314 306 311
f 311 315 316
f 311 316 312
f 306 317 315
f 306 315 311
f 318 319 317
f 318 317 306
f 308 102 318
f 308 318 306
f 320 321 319
f 320 319 318
f 322 323 169
f 322 169 324
f 325 326 323
f 325 323 322
f 322 327 328
f 322 328 325
f 322 324 329
f 322 329 330
f 330 331 327
f 330 327 322
f 329 332 333
f 329 333 330
f 330 333 334
f 330 334 331
f 327 335 336
f 327 336 328
f 327 331 337
f 327 337 335
f 338 339 340
f 338 340 341
f 341 342 343
f 341 343 344
f 345 346 347
f 345 347 344
f 344 347 338
f 344 338 341
f 340 348 342
f 340 342 341
f 343 349 345
f 343 345 344
f 350 351 339
f 350 339 338
f 342 348 352
f 342 352 353
f 342 353 349
f 342 349 343
f 347 346 350
f 347 350 338
f 339 354 355
f 339 355 340
f 355 356 348
f 355 348 340
f 351 357 354
f 351 354 339
f 348 356 358
f 348 358 352
f 359 360 356
f 359 356 355
f 354 361 359
f 354 359 355
f 360 362 358
f 360 358 356
f 357 363 361
f 357 361 354
f 359 364 362
f 359 362 360
f 361 363 364
f 361 364 359
f 353 365 366
f 353 366 349
f 366 367 345
f 366 345 349
f 367 368 346
f 367 346 345
f 368 369 350
f 368 350 346
f 369 370 351
f 369 351 350
f 370 371 357
f 370 357 351
f 357 371 372
f 357 372 363
f 363 372 373
f 363 373 364
f 373 374 362
f 373 362 364
f 352 375 365
f 352 365 353
f 358 376 375
f 358 375 352
f 362 374 376
f 362 376 358
f 377 378 379
f 377 379 380
f 381 382 377
f 381 377 380
f 381 383 384
f 381 384 382
f 380 385 386
f 380 386 381
f 381 386 387
f 381 387 383
f 379 388 385
f 379 385 380
f 377 389 390
f 377 390 378
f 377 382 384
f 377 384 389
f 391 392 388
f 391 388 379
f 378 393 391
f 378 391 379
f 385 394 387
f 385 387 386
f 388 395 394
f 388 394 385
f 378 390 396
f 378 396 393
f 391 397 398
f 391 398 392
f 393 399 397
f 393 397 391
f 392 398 400
f 392 400 401
f 402 403 397
f 402 397 399
f 393 396 402
f 393 402 399
f 397 403 400
f 397 400 398
f 404 405 406
f 404 406 407
f 407 406 408
f 407 408 409
f 410 411 70
f 410 70 412
f 412 409 408
f 412 408 410
f 408 413 414
f 408 414 410
f 408 406 415
f 408 415 413
f 410 414 416
f 410 416 411
f 405 417 415
f 405 415 406
f 413 418 419
f 413 419 414
f 413 415 420
f 413 420 418
f 414 419 421
f 414 421 416
f 417 422 423
f 417 423 415
f 423 424 420
f 423 420 415
f 420 425 426
f 420 426 418
f 426 427 419
f 426 419 418
f 419 427 428
f 419 428 421
f 420 424 429
f 420 429 425
f 426 430 431
f 426 431 427
f 426 425 432
f 426 432 430
f 427 431 433
f 427 433 434
f 425 429 435
f 425 435 432
f 427 434 436
f 427 436 428
f 430 437 438
f 430 438 431
f 430 432 439
f 430 439 437
f 431 438 440
f 431 440 433
f 432 435 441
f 432 441 439
f 437 442 443
f 437 443 438
f 437 439 444
f 437 444 442
f 438 443 445
f 438 445 440
f 439 441 446
f 439 446 444
f 442 447 445
f 442 445 443
f 442 444 448
f 442 448 447
f 444 446 449
f 444 449 448
f 447 402 396
f 447 396 445
f 447 448 403
f 447 403 402
f 445 396 390
f 445 390 440
f 448 449 400
f 448 400 403
f 388 392 401
f 388 401 395
f 332 450 451
f 332 451 333
f 450 310 309
f 450 309 451
f 451 452 334
f 451 334 333
f 309 314 452
f 309 452 451
f 453 454 455
f 453 455 456
f 457 458 454
f 457 454 453
f 459 328 460
f 459 460 457
f 461 325 328
f 461 328 459
f 457 453 456
f 457 456 459
f 459 456 462
f 459 462 461
f 456 463 464
f 456 464 462
f 455 465 463
f 455 463 456
f 460 328 336
f 460 336 466
f 457 460 466
f 457 466 458
f 466 365 375
f 466 375 458
f 375 376 454
f 375 454 458
f 336 366 365
f 336 365 466
f 462 467 468
f 462 468 461
f 464 106 467
f 464 467 462
f 468 326 325
f 468 325 461
f 454 376 374
f 454 374 455
f 422 417 405
f 422 405 469
f 469 470 471
f 469 471 472
f 469 472 473
f 469 473 474
f 473 475 476
f 473 476 474
f 476 477 478
f 476 478 474
f 474 478 422
f 474 422 469
f 405 404 470
f 405 470 469
f 478 477 423
f 478 423 422
f 472 479 480
f 472 480 473
f 471 481 479
f 471 479 472
f 480 482 475
f 480 475 473
f 481 483 484
f 481 484 479
f 484 485 480
f 484 480 479
f 483 486 487
f 483 487 484
f 484 487 488
f 484 488 485
f 480 485 489
f 480 489 482
f 485 488 490
f 485 490 489
f 487 491 492
f 487 492 488
f 486 493 491
f 486 491 487
f 488 492 494
f 488 494 490
f 491 495 494
f 491 494 492
f 493 496 495
f 493 495 491
f 482 497 498
f 482 498 475
f 482 489 499
f 482 499 497
f 489 490 500
f 489 500 499
f 490 494 501
f 490 501 500
f 494 495 502
f 494 502 501
f 495 496 503
f 495 503 502
f 504 505 506
f 504 506 507
f 498 508 476
f 498 476 475
f 509 510 498
f 509 498 497
f 499 511 509
f 499 509 497
f 500 512 511
f 500 511 499
f 501 513 512
f 501 512 500
f 502 507 513
f 502 513 501
f 503 504 507
f 503 507 502
f 507 506 514
f 507 514 513
f 513 514 515
f 513 515 512
f 512 515 516
f 512 516 511
f 511 516 517
f 511 517 509
f 509 517 518
f 509 518 510
f 510 519 508
f 510 508 498
f 518 520 519
f 518 519 510
f 521 522 518
f 521 518 517
f 516 523 521
f 516 521 517
f 515 524 523
f 515 523 516
f 514 525 524
f 514 524 515
f 506 526 525
f 506 525 514
f 505 527 526
f 505 526 506
f 525 526 528
f 525 528 529
f 525 529 530
f 525 530 524
f 524 530 531
f 524 531 523
f 523 531 532
f 523 532 521
f 521 532 533
f 521 533 522
f 522 534 520
f 522 520 518
f 533 535 534
f 533 534 522
f 536 537 533
f 536 533 532
f 531 538 536
f 531 536 532
f 530 539 538
f 530 538 531
f 529 540 539
f 529 539 530
f 528 541 540
f 528 540 529
f 527 542 528
f 527 528 526
f 542 38 541
f 542 541 528
f 543 544 545
f 543 545 546
f 546 547 548
f 546 548 549
f 548 550 551
f 548 551 549
f 551 552 553
f 551 553 549
f 549 553 543
f 549 543 546
f 546 545 554
f 546 554 547
f 555 556 544
f 555 544 543
f 547 557 550
f 547 550 548
f 547 554 558
f 547 558 557
f 544 559 560
f 544 560 545
f 545 560 561
f 545 561 554
f 556 562 559
f 556 559 544
f 561 563 558
f 561 558 554
f 559 564 565
f 559 565 560
f 560 565 566
f 560 566 561
f 565 567 568
f 565 568 566
f 566 568 563
f 566 563 561
f 562 569 564
f 562 564 559
f 564 569 567
f 564 567 565
f 570 571 13
f 570 13 12
f 570 572 573
f 570 573 571
f 570 12 18
f 570 18 574
f 18 20 575
f 18 575 574
f 574 576 577
f 574 577 570
f 575 578 576
f 575 576 574
f 570 577 579
f 570 579 572
f 13 571 580
f 13 580 25
f 25 580 581
f 25 581 27
f 571 573 582
f 571 582 580
f 581 583 30
f 581 30 27
f 580 582 584
f 580 584 581
f 583 585 33
f 583 33 30
f 583 586 587
f 583 587 585
f 581 584 586
f 581 586 583
f 585 587 37
f 585 37 33
f 37 587 541
f 37 541 38
f 587 586 540
f 587 540 541
f 586 584 539
f 586 539 540
f 584 582 538
f 584 538 539
f 582 573 536
f 582 536 538
f 572 537 536
f 572 536 573
f 572 579 588
f 572 588 537
f 537 588 535
f 537 535 533
f 508 589 477
f 508 477 476
f 589 424 423
f 589 423 477
f 508 519 590
f 508 590 589
f 589 590 591
f 589 591 424
f 576 578 579
f 576 579 577
f 579 592 593
f 579 593 588
f 20 60 594
f 20 594 575
f 575 594 595
f 575 595 578
f 578 596 592
f 578 592 579
f 595 597 596
f 595 596 578
f 594 598 599
f 594 599 595
f 60 66 598
f 60 598 594
f 67 600 598
f 67 598 66
f 67 70 411
f 67 411 600
f 600 601 602
f 600 602 598
f 598 602 603
f 598 603 599
f 604 605 603
f 604 603 602
f 601 606 604
f 601 604 602
f 601 416 421
f 601 421 606
f 600 411 416
f 600 416 601
f 599 607 597
f 599 597 595
f 603 608 607
f 603 607 599
f 606 609 610
f 606 610 604
f 610 611 605
f 610 605 604
f 605 612 613
f 605 613 603
f 613 614 608
f 613 608 603
f 424 591 615
f 424 615 429
f 421 428 609
f 421 609 606
f 609 616 617
f 609 617 610
f 609 428 436
f 609 436 616
f 617 618 611
f 617 611 610
f 616 436 321
f 616 321 619
f 616 619 620
f 616 620 617
f 620 621 618
f 620 618 617
f 320 100 99
f 320 99 620
f 619 321 320
f 619 320 620
f 99 101 621
f 99 621 620
f 320 318 102
f 320 102 100
f 464 463 618
f 464 618 621
f 101 106 464
f 101 464 621
f 618 463 622
f 618 622 611
f 465 623 622
f 465 622 463
f 321 436 624
f 321 624 319
f 611 622 612
f 611 612 605
f 455 374 373
f 455 373 465
f 373 625 623
f 373 623 465
f 371 626 627
f 371 627 372
f 372 627 625
f 372 625 373
f 335 367 366
f 335 366 336
f 337 368 367
f 337 367 335
f 331 334 628
f 331 628 337
f 334 452 629
f 334 629 628
f 452 314 313
f 452 313 629
f 370 369 628
f 370 628 629
f 629 313 371
f 629 371 370
f 369 368 337
f 369 337 628
f 313 312 626
f 313 626 371
f 630 316 315
f 630 315 631
f 630 632 633
f 630 633 316
f 634 635 632
f 634 632 630
f 636 637 450
f 636 450 332
f 630 631 638
f 630 638 634
f 639 636 332
f 639 332 329
f 312 316 633
f 312 633 626
f 317 640 631
f 317 631 315
f 317 319 624
f 317 624 640
f 640 641 638
f 640 638 631
f 640 624 642
f 640 642 641
f 643 310 450
f 643 450 637
f 626 633 644
f 626 644 627
f 632 645 644
f 632 644 633
f 635 646 645
f 635 645 632
f 647 307 310
f 647 310 643
f 627 644 648
f 627 648 625
f 645 649 648
f 645 648 644
f 164 307 647
f 164 647 165
f 650 639 329
f 650 329 324
f 168 650 324
f 168 324 169
f 651 650 168
f 651 168 171
f 652 639 650
f 652 650 651
f 653 636 639
f 653 639 652
f 654 637 636
f 654 636 653
f 643 637 654
f 643 654 655
f 647 643 655
f 647 655 656
f 646 657 649
f 646 649 645
f 165 647 656
f 165 656 178
f 658 655 654
f 658 654 659
f 659 654 653
f 659 653 660
f 653 652 661
f 653 661 660
f 661 652 651
f 661 651 662
f 663 664 394
f 663 394 395
f 401 665 663
f 401 663 395
f 400 449 665
f 400 665 401
f 389 433 440
f 389 440 390
f 384 434 433
f 384 433 389
f 383 666 434
f 383 434 384
f 387 667 666
f 387 666 383
f 387 394 668
f 387 668 667
f 662 651 171
f 662 171 203
f 669 660 661
f 669 661 662
f 669 662 203
f 669 203 205
f 670 669 205
f 670 205 207
f 671 659 660
f 671 660 669
f 656 655 658
f 656 658 672
f 673 658 659
f 673 659 671
f 671 669 670
f 671 670 674
f 178 656 672
f 178 672 212
f 674 670 207
f 674 207 213
f 214 675 674
f 214 674 213
f 212 672 675
f 212 675 214
f 672 658 673
f 672 673 675
f 624 666 667
f 624 667 642
f 436 434 666
f 436 666 624
f 394 664 676
f 394 676 668
f 449 446 441
f 449 441 665
f 441 435 663
f 441 663 665
f 429 664 663
f 429 663 435
f 429 615 677
f 429 677 664
f 664 677 678
f 664 678 676
f 675 673 671
f 675 671 674
f 676 678 649
f 676 649 657
f 623 679 612
f 623 612 622
f 625 550 679
f 625 679 623
f 648 551 550
f 648 550 625
f 649 678 680
f 649 680 648
f 680 552 551
f 680 551 648
f 678 677 681
f 678 681 680
f 677 615 682
f 677 682 681
f 680 681 555
f 680 555 552
f 681 682 556
f 681 556 555
f 615 591 683
f 615 683 682
f 683 562 556
f 683 556 682
f 591 590 562
f 591 562 683
f 519 569 562
f 519 562 590
f 552 555 543
f 552 543 553
f 550 557 684
f 550 684 679
f 679 684 613
f 679 613 612
f 684 685 614
f 684 614 613
f 557 558 685
f 557 685 684
f 685 686 687
f 685 687 614
f 687 688 608
f 687 608 614
f 688 689 607
f 688 607 608
f 685 558 563
f 685 563 686
f 687 690 689
f 687 689 688
f 687 686 691
f 687 691 690
f 686 563 692
f 686 692 691
f 690 693 694
f 690 694 689
f 690 691 695
f 690 695 693
f 689 694 597
f 689 597 607
f 691 692 696
f 691 696 695
f 693 697 698
f 693 698 694
f 693 695 699
f 693 699 697
f 694 698 596
f 694 596 597
f 695 696 593
f 695 593 699
f 697 699 593
f 697 593 592
f 697 592 596
f 697 596 698
f 696 535 588
f 696 588 593
f 692 534 535
f 692 535 696
f 563 568 534
f 563 534 692
f 569 519 520
f 569 520 567
f 567 520 534
f 567 534 568
f 700 701 702
f 700 702 703
f 701 704 705
f 701 705 702
f 706 707 708
f 706 708 709
f 710 706 709
f 710 709 711
f 712 710 711
f 712 711 713
f 714 712 713
f 714 713 715
f 704 716 717
f 704 717 705
f 716 718 719
f 716 719 717
f 646 720 721
f 646 721 657
f 712 714 722
f 712 722 710
f 718 716 704
f 718 704 723
f 704 701 700
f 704 700 723
f 707 706 710
f 707 710 722
f 641 724 725
f 641 725 638
f 724 726 727
f 724 727 725
f 726 728 729
f 726 729 727
f 729 728 708
f 729 708 703
f 730 731 721
f 730 721 720
f 717 719 732
f 717 732 733
f 732 731 730
f 732 730 733
f 734 668 676
f 734 676 735
f 720 646 635
f 720 635 736
f 737 734 735
f 737 735 738
f 739 740 715
f 739 715 713
f 739 737 738
f 739 738 740
f 741 739 713
f 741 713 711
f 737 739 741
f 737 741 742
f 743 741 711
f 743 711 709
f 742 741 743
f 742 743 744
f 728 743 709
f 728 709 708
f 744 743 728
f 744 728 726
f 738 731 732
f 738 732 740
f 740 732 719
f 740 719 715
f 735 721 731
f 735 731 738
f 676 657 721
f 676 721 735
f 745 729 703
f 745 703 702
f 705 717 733
f 705 733 746
f 746 745 702
f 746 702 705
f 727 729 745
f 727 745 747
f 730 720 736
f 730 736 748
f 748 746 733
f 748 733 730
f 748 747 745
f 748 745 746
f 749 747 748
f 749 748 736
f 634 749 736
f 634 736 635
f 727 747 749
f 727 749 725
f 719 718 714
f 719 714 715
f 708 707 700
f 708 700 703
f 718 723 722
f 718 722 714
f 744 726 724
f 744 724 750
f 734 737 742
f 734 742 751
f 742 744 750
f 742 750 751
f 668 734 751
f 668 751 667
f 642 750 724
f 642 724 641
f 642 667 751
f 642 751 750
f 638 725 749
f 638 749 634
f 707 722 723
f 707 723 700
f 752 308 164
f 752 164 161
f 752 161 156
f 752 156 753
f 754 132 131
f 754 131 135
f 132 754 752
f 132 752 753
f 754 135 139
f 754 139 138
f 752 754 138
f 752 138 151
f 103 752 151
f 103 151 110
f 308 752 103
f 308 103 102
f 98 103 110
f 98 110 95
f 755 167 169
f 755 169 323
f 756 755 323
f 756 323 326
f 755 756 757
f 755 757 758
f 755 759 150
f 755 150 167
f 759 755 758
f 759 758 126
f 150 759 760
f 150 760 145
f 759 126 128
f 759 128 760
f 758 757 121
f 758 121 120
f 758 120 124
f 758 124 126
f 761 762 763
f 761 763 764
f 762 765 766
f 762 766 767
f 768 765 769
f 768 769 770
f 765 762 761
f 765 761 769
f 763 762 767
f 763 767 771
f 766 765 768
f 766 768 772
f 773 761 764
f 773 764 774
f 767 775 776
f 767 776 771
f 767 766 772
f 767 772 775
f 769 761 773
f 769 773 770
f 764 763 777
f 764 777 778
f 777 763 771
f 777 771 779
f 774 764 778
f 774 778 780
f 771 776 781
f 771 781 779
f 782 777 779
f 782 779 783
f 778 777 782
f 778 782 784
f 783 779 781
f 783 781 785
f 780 778 784
f 780 784 786
f 782 783 785
f 782 785 787
f 784 782 787
f 784 787 786
f 775 772 122
f 775 122 788
f 122 772 768
f 122 768 123
f 123 768 770
f 123 770 125
f 125 770 773
f 125 773 134
f 134 773 774
f 134 774 133
f 133 774 780
f 133 780 116
f 780 786 117
f 780 117 116
f 786 787 113
f 786 113 117
f 113 787 785
f 113 785 114
f 776 775 788
f 776 788 789
f 781 776 789
f 781 789 790
f 785 781 790
f 785 790 114
f 791 792 793
f 791 793 794
f 795 792 791
f 795 791 796
f 795 796 196
f 795 196 198
f 792 795 797
f 792 797 798
f 795 198 200
f 795 200 797
f 793 792 798
f 793 798 799
f 791 794 193
f 791 193 192
f 791 192 196
f 791 196 796
f 800 793 799
f 800 799 801
f 794 793 800
f 794 800 802
f 798 797 200
f 798 200 186
f 799 798 186
f 799 186 185
f 794 802 803
f 794 803 193
f 800 801 804
f 800 804 805
f 802 800 805
f 802 805 806
f 801 188 190
f 801 190 804
f 807 806 805
f 807 805 808
f 802 806 807
f 802 807 803
f 805 804 190
f 805 190 808
f 404 407 809
f 404 809 810
f 407 409 811
f 407 811 809
f 812 412 70
f 812 70 69
f 412 812 811
f 412 811 409
f 811 812 813
f 811 813 814
f 811 814 815
f 811 815 809
f 812 69 78
f 812 78 813
f 810 809 815
f 810 815 816
f 814 813 817
f 814 817 818
f 814 818 819
f 814 819 815
f 813 78 77
f 813 77 817
f 816 815 52
f 816 52 820
f 52 815 819
f 52 819 53
f 819 818 821
f 819 821 822
f 821 818 817
f 821 817 823
f 817 77 89
f 817 89 823
f 819 822 87
f 819 87 53
f 821 823 824
f 821 824 825
f 821 825 826
f 821 826 822
f 823 197 195
f 823 195 824
f 822 826 219
f 822 219 87
f 823 89 92
f 823 92 197
f 825 824 827
f 825 827 828
f 825 828 829
f 825 829 826
f 824 195 194
f 824 194 827
f 826 829 217
f 826 217 219
f 828 827 830
f 828 830 831
f 828 831 832
f 828 832 829
f 827 194 833
f 827 833 830
f 829 832 218
f 829 218 217
f 831 830 833
f 831 833 834
f 831 834 835
f 831 835 832
f 832 835 191
f 832 191 218
f 834 833 803
f 834 803 807
f 834 807 808
f 834 808 835
f 833 194 193
f 833 193 803
f 835 808 190
f 835 190 191
f 799 185 188
f 799 188 801
f 145 760 836
f 145 836 146
f 146 836 753
f 146 753 156
f 836 760 128
f 836 128 130
f 753 836 130
f 753 130 132
f 837 838 112
f 837 112 839
f 840 837 839
f 840 839 841
f 842 840 843
f 842 843 757
f 844 842 757
f 844 757 756
f 840 842 838
f 840 838 837
f 842 844 845
f 842 845 838
f 838 845 104
f 838 104 105
f 112 838 105
f 112 105 108
f 843 846 121
f 843 121 757
f 840 841 846
f 840 846 843
f 846 841 789
f 846 789 788
f 789 841 839
f 789 839 790
f 121 846 788
f 121 788 122
f 845 844 468
f 845 468 467
f 104 845 467
f 104 467 106
f 468 844 756
f 468 756 326
f 839 112 114
f 839 114 790
f 820 847 810
f 820 810 816
f 847 848 471
f 847 471 470
f 847 849 850
f 847 850 848
f 850 849 49
f 850 49 851
f 49 849 852
f 49 852 50
f 849 847 820
f 849 820 852
f 810 847 470
f 810 470 404
f 852 820 52
f 852 52 50
f 848 850 853
f 848 853 854
f 471 848 854
f 471 854 481
f 853 850 851
f 853 851 855
f 481 854 856
f 481 856 483
f 856 854 853
f 856 853 857
f 483 856 858
f 483 858 486
f 856 857 859
f 856 859 858
f 853 855 860
f 853 860 857
f 857 860 861
f 857 861 859
f 858 859 862
f 858 862 863
f 486 858 863
f 486 863 493
f 859 861 864
f 859 864 862
f 863 862 864
f 863 864 865
f 493 863 865
f 493 865 496
f 855 851 866
f 855 866 867
f 855 867 868
f 855 868 860
f 860 868 869
f 860 869 861
f 861 869 870
f 861 870 864
f 864 870 871
f 864 871 865
f 865 871 503
f 865 503 496
f 504 872 873
f 504 873 505
f 866 851 49
f 866 49 48
f 874 867 866
f 874 866 875
f 868 867 874
f 868 874 876
f 869 868 876
f 869 876 877
f 870 869 877
f 870 877 878
f 871 870 878
f 871 878 872
f 503 871 872
f 503 872 504
f 872 878 879
f 872 879 873
f 878 877 880
f 878 880 879
f 877 876 881
f 877 881 880
f 876 874 882
f 876 882 881
f 874 875 883
f 874 883 882
f 875 866 48
f 875 48 55
f 883 875 55
f 883 55 253
f 884 882 883
f 884 883 885
f 881 882 884
f 881 884 886
f 880 881 886
f 880 886 887
f 879 880 887
f 879 887 888
f 873 879 888
f 873 888 889
f 505 873 889
f 505 889 527
f 888 890 891
f 888 891 889
f 888 887 892
f 888 892 890
f 887 886 893
f 887 893 892
f 886 884 894
f 886 894 893
f 884 885 46
f 884 46 894
f 885 883 253
f 885 253 252
f 46 885 252
f 46 252 47
f 43 894 46
f 43 46 44
f 893 894 43
f 893 43 42
f 892 893 42
f 892 42 41
f 890 892 41
f 890 41 40
f 891 890 40
f 891 40 39
f 527 889 891
f 527 891 542
f 542 891 39
f 542 39 38
f 233 895 896
f 233 896 897
f 895 898 899
f 895 899 900
f 899 898 224
f 899 224 223
f 224 898 232
f 224 232 226
f 898 895 233
f 898 233 232
f 895 900 901
f 895 901 896
f 229 233 897
f 229 897 230
f 900 899 223
f 900 223 235
f 900 235 237
f 900 237 901
f 897 896 902
f 897 902 8
f 896 901 5
f 896 5 902
f 230 897 8
f 230 8 7
f 5 901 237
f 5 237 6
f 8 902 1
f 8 1 9
f 902 5 2
f 902 2 1
