# T12 rest
v 0.024960 -0.084432 -0.023553
v 0.024352 -0.082581 -0.019905
v 0.024886 -0.085012 -0.021609
v 0.024724 -0.085600 -0.024273
v 0.024614 -0.083582 -0.024016
v 0.023782 -0.081336 -0.020532
v 0.023421 -0.087249 -0.026600
v 0.023277 -0.087869 -0.026083
v 0.025186 -0.087578 -0.022951
v 0.023543 -0.089411 -0.026866
v 0.023561 -0.088794 -0.024185
v 0.022165 -0.090486 -0.027928
v 0.019031 -0.090773 -0.029635
v 0.019950 -0.091061 -0.029125
v 0.017844 -0.091199 -0.030235
v 0.018008 -0.090897 -0.030217
v 0.020287 -0.090520 -0.029016
v 0.020913 -0.089886 -0.028463
v 0.017401 -0.090629 -0.030452
v 0.016888 -0.091089 -0.030980
v 0.018720 -0.090181 -0.029452
v 0.020576 -0.088898 -0.028024
v 0.017154 -0.090262 -0.030530
v 0.016766 -0.090745 -0.031250
v 0.018504 -0.089524 -0.029272
v 0.020733 -0.088366 -0.028302
v 0.018509 -0.088978 -0.029342
v 0.017448 -0.089748 -0.030398
v 0.020206 -0.089113 -0.030030
v 0.022276 -0.088579 -0.029316
v 0.017343 -0.090108 -0.031128
v 0.018441 -0.089513 -0.030607
v 0.021890 -0.090182 -0.032466
v 0.019929 -0.090130 -0.032342
v 0.017763 -0.090167 -0.032269
v 0.019220 -0.091233 -0.034565
v 0.016926 -0.090983 -0.034038
v 0.021488 -0.091663 -0.035471
v 0.021601 -0.089634 -0.035445
v 0.021370 -0.087621 -0.032799
v 0.021368 -0.087800 -0.031982
v 0.021520 -0.089302 -0.034089
v 0.022667 -0.083781 -0.026242
v 0.021087 -0.082041 -0.024035
v 0.018273 -0.083043 -0.026694
v 0.019676 -0.083831 -0.027292
v 0.021410 -0.085497 -0.029577
v 0.019314 -0.085661 -0.030614
v 0.018111 -0.085146 -0.030968
v 0.020129 -0.087516 -0.033558
v 0.021336 -0.089807 -0.036510
v 0.019631 -0.087205 -0.034153
v 0.021678 -0.089748 -0.037187
v 0.021819 -0.091475 -0.036668
v 0.021382 -0.092743 -0.038599
v 0.022751 -0.092135 -0.039416
v 0.019967 -0.093824 -0.038388
v 0.017642 -0.093490 -0.037518
v 0.015137 -0.093234 -0.036792
v 0.022976 -0.089884 -0.038772
v 0.024446 -0.092135 -0.040414
v 0.027406 -0.092916 -0.041686
v 0.026044 -0.091468 -0.041654
v 0.020343 -0.087027 -0.035503
v 0.017861 -0.083943 -0.030653
v 0.020448 -0.085341 -0.035162
v 0.018373 -0.083764 -0.032503
v 0.018577 -0.083155 -0.033633
v 0.020149 -0.083956 -0.035297
v 0.018626 -0.082644 -0.035008
v 0.018007 -0.082522 -0.034220
v 0.020591 -0.088336 -0.038795
v 0.021640 -0.089974 -0.040110
v 0.010192 -0.089155 -0.038483
v 0.010496 -0.087921 -0.037863
v 0.014829 -0.090620 -0.040600
v 0.014330 -0.091330 -0.040909
v 0.018725 -0.090470 -0.040413
v 0.019220 -0.092243 -0.042400
v 0.024219 -0.093192 -0.044093
v 0.019483 -0.094559 -0.045088
v 0.023173 -0.095983 -0.047344
v 0.030123 -0.093568 -0.042523
v 0.028536 -0.091994 -0.042649
v 0.027177 -0.093876 -0.044986
v 0.026363 -0.095756 -0.046949
v 0.030667 -0.093247 -0.044062
v 0.032320 -0.094707 -0.044673
v 0.029610 -0.094306 -0.045423
v 0.028709 -0.095597 -0.046352
v 0.031548 -0.095309 -0.046025
v 0.030747 -0.096251 -0.046090
v 0.031946 -0.095938 -0.044872
v 0.030719 -0.095906 -0.043907
v 0.018376 -0.089378 -0.039623
v 0.015318 -0.089753 -0.040051
v 0.011820 -0.088289 -0.039052
v 0.010085 -0.085954 -0.036616
v 0.010463 -0.086805 -0.038184
v 0.009770 -0.084640 -0.036085
v 0.010394 -0.085412 -0.037462
v 0.018912 -0.083181 -0.036194
v 0.020451 -0.084801 -0.037020
v 0.020967 -0.086644 -0.037797
v 0.024913 -0.097513 -0.049570
v 0.027040 -0.096973 -0.048400
v 0.028449 -0.096495 -0.047002
v 0.024282 -0.098455 -0.050119
v 0.022438 -0.097650 -0.048841
v 0.028517 -0.095390 -0.043221
v 0.025590 -0.094550 -0.042495
v 0.023349 -0.094401 -0.041648
v 0.024707 -0.098824 -0.048900
v 0.025724 -0.099300 -0.050146
v 0.027227 -0.098839 -0.049465
v 0.027077 -0.097218 -0.046281
v 0.028021 -0.097849 -0.048313
v 0.029112 -0.096969 -0.046166
v 0.022035 -0.095118 -0.041245
v 0.021031 -0.096372 -0.041602
v 0.024574 -0.096740 -0.045301
v 0.022459 -0.096490 -0.044230
v 0.020904 -0.096870 -0.043585
v 0.020019 -0.097923 -0.043818
v 0.019865 -0.096401 -0.046521
v 0.015496 -0.093499 -0.042547
v 0.017081 -0.095265 -0.043793
v 0.012062 -0.093872 -0.042064
v 0.010709 -0.092486 -0.041784
v 0.014250 -0.095489 -0.042724
v 0.017297 -0.098153 -0.044614
v 0.018329 -0.097014 -0.044238
v 0.022446 -0.098018 -0.047513
v 0.020090 -0.097156 -0.045541
v 0.016980 -0.100085 -0.045812
v 0.019962 -0.099748 -0.044597
v 0.019124 -0.105391 -0.048520
v 0.018443 -0.106613 -0.048760
v 0.016578 -0.106590 -0.049149
v 0.016955 -0.105261 -0.048805
v 0.016962 -0.102896 -0.047390
v 0.019500 -0.103065 -0.047118
v 0.013112 -0.103118 -0.048725
v 0.012816 -0.100411 -0.047019
v 0.013104 -0.105206 -0.049780
v 0.012855 -0.106347 -0.049819
v 0.017826 -0.107174 -0.048408
v 0.016010 -0.106713 -0.048409
v 0.016601 -0.106016 -0.046489
v 0.015175 -0.105376 -0.046213
v 0.020706 -0.098371 -0.042627
v 0.019498 -0.097181 -0.040615
v 0.016052 -0.096138 -0.039393
v 0.014344 -0.097904 -0.040269
v 0.016413 -0.097842 -0.040103
v 0.012915 -0.091943 -0.035645
v 0.014912 -0.090695 -0.033462
v 0.008855 -0.091413 -0.040593
v 0.012244 -0.095096 -0.039255
v 0.010700 -0.093639 -0.037919
v 0.005026 -0.094510 -0.039533
v 0.005080 -0.096381 -0.041501
v 0.009024 -0.096231 -0.041148
v 0.008017 -0.094162 -0.038919
v 0.007142 -0.092648 -0.041472
v 0.007794 -0.093531 -0.043766
v 0.004524 -0.093672 -0.045533
v 0.004649 -0.093029 -0.041999
v 0.004857 -0.092304 -0.038276
v 0.007644 -0.092403 -0.038307
v 0.008854 -0.091630 -0.039016
v 0.009661 -0.092027 -0.037642
v 0.009937 -0.090196 -0.037208
v 0.011899 -0.090375 -0.035073
v 0.011779 -0.088836 -0.034710
v 0.011606 -0.087743 -0.035129
v 0.012588 -0.086215 -0.030958
v 0.012872 -0.087552 -0.031429
v 0.017448 -0.082043 -0.026122
v 0.015801 -0.090351 -0.032072
v 0.013368 -0.088987 -0.032213
v 0.014339 -0.090250 -0.031132
v 0.013925 -0.090331 -0.029975
v 0.008057 -0.085098 -0.027051
v 0.007481 -0.083858 -0.026588
v 0.010704 -0.084470 -0.027698
v 0.011338 -0.085854 -0.028218
v 0.012795 -0.087933 -0.029881
v 0.010221 -0.087253 -0.028177
v 0.004305 -0.084915 -0.026767
v 0.004200 -0.083737 -0.026282
v 0.004369 -0.086640 -0.027442
v 0.004283 -0.087250 -0.026590
v 0.010012 -0.088026 -0.027404
v 0.014928 -0.089823 -0.028198
v 0.018965 -0.089296 -0.025939
v 0.009506 -0.087290 -0.025475
v 0.004058 -0.086735 -0.024926
v 0.012386 -0.086544 -0.023549
v 0.014375 -0.085740 -0.021788
v 0.020042 -0.080695 -0.022655
v 0.022618 -0.079493 -0.018861
v 0.015093 -0.080437 -0.023256
v 0.017179 -0.079616 -0.020839
v 0.018975 -0.078467 -0.017639
v 0.023722 -0.086007 -0.018816
v 0.024990 -0.085198 -0.018227
v 0.019000 -0.085042 -0.018562
v 0.023456 -0.084150 -0.014699
v 0.018820 -0.083242 -0.014551
v 0.018077 -0.081854 -0.011141
v 0.022409 -0.082249 -0.010369
v 0.015976 -0.080160 -0.007273
v 0.019882 -0.080281 -0.005860
v 0.013328 -0.079074 -0.004268
v 0.016404 -0.079034 -0.002637
v 0.009608 -0.078412 -0.002249
v 0.011387 -0.078155 -0.000447
v 0.004728 -0.078234 -0.001311
v 0.004894 -0.077859 0.000560
v 0.007612 -0.078208 -0.004494
v 0.004218 -0.078087 -0.004088
v 0.011660 -0.079521 -0.008698
v 0.009686 -0.078696 -0.006475
v 0.003990 -0.078539 -0.006871
v 0.012701 -0.080459 -0.011190
v 0.003960 -0.079263 -0.009263
v 0.013314 -0.081618 -0.013994
v 0.003954 -0.080065 -0.011520
v 0.003963 -0.081241 -0.014330
v 0.013534 -0.083217 -0.017488
v 0.009079 -0.085468 -0.022263
v 0.004056 -0.085307 -0.022088
v 0.003987 -0.082750 -0.017392
v 0.023773 -0.084572 -0.025508
v 0.023841 -0.085205 -0.025334
v 0.022589 -0.084828 -0.027004
v 0.023916 -0.085832 -0.025519
v 0.023105 -0.086545 -0.026680
v 0.022405 -0.085868 -0.026989
v 0.022030 -0.087766 -0.029067
v 0.021590 -0.085958 -0.029261
v 0.021535 -0.086998 -0.029239
v 0.021730 -0.089263 -0.031924
v 0.021718 -0.090276 -0.033838
v 0.021389 -0.088543 -0.031884
v 0.021718 -0.090144 -0.034456
v 0.004780 -0.077000 0.001052
v 0.011578 -0.077276 0.000173
v 0.004624 -0.075611 0.001373
v 0.010933 -0.075839 0.000619
v 0.017055 -0.078113 -0.001934
v 0.020798 -0.079384 -0.005191
v 0.023317 -0.081254 -0.009572
v 0.024549 -0.083257 -0.014011
v 0.024273 -0.082789 -0.016776
v 0.023492 -0.080728 -0.015602
v 0.023636 -0.081097 -0.012791
v 0.022571 -0.079422 -0.008645
v 0.020251 -0.077850 -0.004589
v 0.016376 -0.076643 -0.001456
v 0.004352 -0.074196 0.002020
v 0.010593 -0.074365 0.001331
v 0.015910 -0.075067 -0.000681
v 0.019621 -0.076201 -0.003827
v 0.021991 -0.077658 -0.007732
v 0.023107 -0.079204 -0.011728
v 0.023140 -0.079071 -0.014856
v 0.022580 -0.077680 -0.014017
v 0.022617 -0.077525 -0.010860
v 0.021241 -0.076084 -0.007022
v 0.018932 -0.074777 -0.003263
v 0.015557 -0.073741 -0.000157
v 0.010673 -0.073125 0.001908
v 0.003567 -0.072181 0.002777
v 0.004009 -0.072985 0.002611
v 0.010808 -0.072422 0.001802
v 0.015225 -0.073008 -0.000092
v 0.018026 -0.073925 -0.002913
v 0.020258 -0.075087 -0.006479
v 0.021977 -0.076346 -0.010201
v 0.018994 -0.077075 -0.013815
v 0.009769 -0.072482 0.000395
v 0.003414 -0.072258 0.001287
v 0.013260 -0.072999 -0.001383
v 0.015247 -0.073724 -0.003805
v 0.017064 -0.074792 -0.006985
v 0.018447 -0.076012 -0.010494
v 0.003319 -0.072723 -0.000688
v 0.008569 -0.072896 -0.001391
v 0.011406 -0.073221 -0.002515
v 0.012718 -0.073866 -0.004673
v 0.003113 -0.073463 -0.003374
v 0.009083 -0.073652 -0.004040
v 0.014107 -0.074972 -0.007655
v 0.015251 -0.076180 -0.010907
v 0.009942 -0.074817 -0.007395
v 0.003083 -0.074643 -0.006827
v 0.010536 -0.076217 -0.011009
v 0.003120 -0.076154 -0.010652
v 0.015712 -0.077243 -0.013933
v 0.003144 -0.077684 -0.014520
v 0.010748 -0.077523 -0.014431
v 0.014779 -0.079083 -0.019250
v 0.012988 -0.079536 -0.020786
v 0.007459 -0.079589 -0.021498
v 0.003269 -0.079504 -0.021154
v 0.003136 -0.078859 -0.017792
v 0.009856 -0.078814 -0.018012
v 0.015296 -0.078292 -0.016818
v 0.010829 -0.079750 -0.021906
v 0.013157 -0.099120 -0.040452
v 0.014612 -0.098856 -0.039982
v 0.005513 -0.101002 -0.043199
v 0.005470 -0.102959 -0.045744
v 0.008737 -0.103270 -0.045707
v 0.008819 -0.100796 -0.042795
v 0.005257 -0.098442 -0.042301
v 0.009277 -0.098349 -0.041806
v 0.015077 -0.103484 -0.043373
v 0.014269 -0.103575 -0.043905
v 0.014220 -0.100403 -0.040557
v 0.013124 -0.100958 -0.041515
v 0.012300 -0.100968 -0.041921
v 0.013163 -0.103100 -0.043940
v 0.011930 -0.103930 -0.045495
v 0.012215 -0.098422 -0.041156
v 0.011241 -0.100740 -0.042151
v 0.012669 -0.099550 -0.041096
v 0.009857 -0.101184 -0.049246
v 0.010482 -0.103540 -0.050372
v 0.010678 -0.105510 -0.051348
v 0.008293 -0.103969 -0.052616
v 0.007742 -0.101837 -0.052410
v 0.009324 -0.106048 -0.053554
v 0.019184 -0.086549 -0.038029
v 0.018852 -0.085115 -0.037399
v 0.016482 -0.081913 -0.034868
v 0.016471 -0.082391 -0.035878
v 0.010640 -0.083008 -0.035347
v 0.011082 -0.083769 -0.036876
v 0.013350 -0.081977 -0.034950
v 0.013765 -0.082516 -0.035933
v 0.016273 -0.082056 -0.033873
v 0.013211 -0.082022 -0.033824
v 0.011258 -0.082679 -0.034266
v 0.016050 -0.082572 -0.032713
v 0.010681 -0.083898 -0.034698
v 0.012969 -0.082936 -0.033258
v 0.015719 -0.083067 -0.031518
v 0.011038 -0.085193 -0.035206
v 0.013029 -0.083839 -0.032946
v 0.011474 -0.086249 -0.034973
v 0.015192 -0.082942 -0.029663
v 0.013064 -0.084152 -0.031719
v 0.014177 -0.081925 -0.027078
v 0.012307 -0.084654 -0.030313
v 0.012689 -0.083201 -0.029144
v 0.011672 -0.080513 -0.024570
v 0.010301 -0.083216 -0.027395
v 0.010441 -0.081947 -0.026707
v 0.007032 -0.080196 -0.023964
v 0.007224 -0.082601 -0.026130
v 0.007051 -0.081335 -0.025405
v 0.003987 -0.082459 -0.025733
v 0.003712 -0.081204 -0.025020
v 0.003437 -0.080051 -0.023584
v 0.016284 -0.083464 -0.036603
v 0.018269 -0.083913 -0.036875
v 0.012875 -0.084241 -0.036836
v 0.014206 -0.083327 -0.036482
v 0.015952 -0.084544 -0.036882
v 0.012295 -0.085632 -0.037659
v 0.018951 -0.087813 -0.038635
v 0.017822 -0.088480 -0.038901
v 0.015810 -0.085775 -0.037357
v 0.012604 -0.086904 -0.038380
v 0.013232 -0.087936 -0.038973
v 0.015781 -0.087017 -0.037958
v 0.015680 -0.088323 -0.038870
v 0.018152 -0.098118 -0.039998
v 0.016518 -0.098911 -0.039855
v 0.015965 -0.100454 -0.040673
v 0.016793 -0.103597 -0.043468
v 0.019833 -0.098053 -0.040864
v 0.021298 -0.099096 -0.042857
v 0.021236 -0.100491 -0.044738
v 0.020979 -0.103324 -0.047053
v 0.020485 -0.105412 -0.048263
v 0.019794 -0.106603 -0.048488
v 0.019090 -0.107227 -0.048205
v 0.018475 -0.106520 -0.046746
v 0.021188 -0.099990 -0.042962
v 0.020071 -0.099333 -0.041674
v 0.018788 -0.098834 -0.040535
v 0.021267 -0.101100 -0.044262
v 0.017712 -0.099461 -0.040613
v 0.019346 -0.100222 -0.042329
v 0.017272 -0.100890 -0.041507
v 0.021162 -0.102825 -0.045867
v 0.019021 -0.101984 -0.043749
v 0.020247 -0.105625 -0.047257
v 0.020716 -0.104469 -0.046821
v 0.017966 -0.103456 -0.043803
v 0.019042 -0.105224 -0.045797
v 0.019723 -0.105515 -0.046597
v 0.019194 -0.104097 -0.045505
v 0.012305 -0.105995 -0.048403
v 0.010083 -0.106211 -0.051113
v 0.008568 -0.106494 -0.053318
v 0.008401 -0.104874 -0.048690
v 0.006624 -0.105310 -0.052206
v 0.005333 -0.104047 -0.048381
v 0.005002 -0.104816 -0.052006
v 0.004486 -0.095278 -0.048629
v 0.008614 -0.096869 -0.046524
v 0.012554 -0.097558 -0.044650
v 0.006730 -0.099348 -0.052345
v 0.004490 -0.097819 -0.052235
v 0.008275 -0.107806 -0.056743
v 0.007356 -0.106264 -0.056423
v 0.007682 -0.107834 -0.056079
v 0.006937 -0.104525 -0.056524
v 0.005928 -0.103536 -0.057607
v 0.004568 -0.103038 -0.057841
v 0.006263 -0.107025 -0.055126
v 0.004915 -0.106344 -0.054556
v 0.006755 -0.109358 -0.057834
v 0.004966 -0.108478 -0.057392
v 0.007283 -0.110135 -0.058783
v 0.007577 -0.110369 -0.059640
v 0.006802 -0.108715 -0.059566
v 0.006439 -0.106650 -0.059299
v 0.005739 -0.105852 -0.060604
v 0.004555 -0.105533 -0.061044
v 0.006249 -0.107084 -0.060686
v 0.006588 -0.109329 -0.060903
v 0.006965 -0.111062 -0.061007
v 0.007037 -0.111087 -0.060137
v 0.006569 -0.111074 -0.059830
v 0.004988 -0.110731 -0.059630
v 0.006698 -0.111821 -0.061371
v 0.004921 -0.111728 -0.061131
v 0.006176 -0.113061 -0.062619
v 0.004939 -0.113533 -0.062641
v 0.006541 -0.110178 -0.061889
v 0.005738 -0.106772 -0.062003
v 0.006244 -0.108076 -0.061413
v 0.006172 -0.111422 -0.063217
v 0.004548 -0.107068 -0.062909
v 0.004774 -0.112326 -0.064287
v 0.004653 -0.109660 -0.063802
v 0.005877 -0.108744 -0.062636
v -0.015307 -0.084927 -0.023527
v -0.014789 -0.086096 -0.024238
v -0.014711 -0.085517 -0.021570
v -0.014714 -0.083060 -0.019888
v -0.015307 -0.084064 -0.024001
v -0.014654 -0.081794 -0.020530
v -0.013314 -0.087722 -0.026563
v -0.012863 -0.088335 -0.026026
v -0.012779 -0.089885 -0.026789
v -0.014365 -0.088096 -0.022874
v -0.011181 -0.090942 -0.027868
v -0.012441 -0.089285 -0.024118
v -0.008163 -0.091157 -0.029607
v -0.007184 -0.091257 -0.030197
v -0.006919 -0.091563 -0.030222
v -0.008917 -0.091475 -0.029094
v -0.009428 -0.090930 -0.028976
v -0.010177 -0.090304 -0.028416
v -0.006694 -0.090965 -0.030428
v -0.006127 -0.091416 -0.030961
v -0.007996 -0.090548 -0.029421
v -0.010063 -0.089304 -0.027984
v -0.006574 -0.090585 -0.030503
v -0.006170 -0.091062 -0.031226
v -0.007951 -0.089880 -0.029241
v -0.010458 -0.088777 -0.028271
v -0.008152 -0.089333 -0.029316
v -0.007017 -0.090078 -0.030372
v -0.010005 -0.089510 -0.029999
v -0.012193 -0.089026 -0.029280
v -0.006944 -0.090436 -0.031103
v -0.008161 -0.089866 -0.030579
v -0.011890 -0.090618 -0.032424
v -0.009848 -0.090515 -0.032303
v -0.007585 -0.090496 -0.032234
v -0.009211 -0.091601 -0.034527
v -0.006823 -0.091290 -0.034004
v -0.011599 -0.092089 -0.035428
v -0.012245 -0.090053 -0.035416
v -0.012032 -0.089720 -0.034059
v -0.011947 -0.088212 -0.031957
v -0.012131 -0.088030 -0.032777
v -0.012162 -0.082433 -0.024033
v -0.013572 -0.084214 -0.026231
v -0.009361 -0.083368 -0.026690
v -0.010644 -0.084192 -0.027285
v -0.010236 -0.086016 -0.030602
v -0.012274 -0.085903 -0.029562
v -0.009209 -0.085469 -0.030958
v -0.011001 -0.087894 -0.033539
v -0.012092 -0.090218 -0.036483
v -0.010665 -0.087567 -0.034137
v -0.012559 -0.090166 -0.037161
v -0.011743 -0.093165 -0.038558
v -0.012193 -0.091906 -0.036629
v -0.013424 -0.092587 -0.039379
v -0.009986 -0.094214 -0.038343
v -0.007523 -0.093820 -0.037479
v -0.004887 -0.093499 -0.036760
v -0.014085 -0.090331 -0.038749
v -0.015314 -0.092626 -0.040378
v -0.017268 -0.091985 -0.041623
v -0.018374 -0.093473 -0.041642
v -0.011633 -0.087409 -0.035498
v -0.009251 -0.084258 -0.030651
v -0.010074 -0.084086 -0.032502
v -0.012118 -0.085714 -0.035160
v -0.010581 -0.083469 -0.033624
v -0.012175 -0.084307 -0.035289
v -0.010922 -0.082964 -0.035014
v -0.010236 -0.082825 -0.034221
v -0.012010 -0.088721 -0.038785
v -0.012880 -0.090389 -0.040093
v -0.001230 -0.089294 -0.038479
v -0.005238 -0.091569 -0.040892
v -0.005868 -0.090867 -0.040583
v -0.001759 -0.088073 -0.037872
v -0.010216 -0.092603 -0.042374
v -0.009833 -0.090809 -0.040390
v -0.015361 -0.093669 -0.044050
v -0.010372 -0.094932 -0.045056
v -0.014168 -0.096442 -0.047298
v -0.019850 -0.092566 -0.042614
v -0.021160 -0.094181 -0.042473
v -0.018380 -0.094413 -0.044924
v -0.017426 -0.096263 -0.046875
v -0.021973 -0.093873 -0.044018
v -0.023481 -0.095382 -0.044619
v -0.020856 -0.094904 -0.045362
v -0.019805 -0.096180 -0.046281
v -0.022740 -0.095965 -0.045964
v -0.021755 -0.096894 -0.046021
v -0.022897 -0.096609 -0.044806
v -0.021508 -0.096551 -0.043840
v -0.009620 -0.089710 -0.039606
v -0.006494 -0.090015 -0.040038
v -0.003179 -0.088470 -0.039054
v -0.002051 -0.086953 -0.038187
v -0.001667 -0.086094 -0.036621
v -0.002229 -0.085557 -0.037464
v -0.001616 -0.084770 -0.036088
v -0.011214 -0.083510 -0.036205
v -0.012481 -0.085166 -0.037021
v -0.012663 -0.087029 -0.037791
v -0.015957 -0.098015 -0.049519
v -0.018079 -0.097497 -0.048324
v -0.019451 -0.097072 -0.046930
v -0.015227 -0.098967 -0.050077
v -0.013316 -0.098116 -0.048805
v -0.019232 -0.095990 -0.043161
v -0.016271 -0.095079 -0.042445
v -0.013866 -0.094873 -0.041601
v -0.015436 -0.099354 -0.048854
v -0.016566 -0.099854 -0.050097
v -0.017811 -0.097793 -0.046224
v -0.018095 -0.099410 -0.049403
v -0.018930 -0.098420 -0.048240
v -0.019943 -0.097581 -0.046097
v -0.012293 -0.095562 -0.041195
v -0.011038 -0.096794 -0.041547
v -0.015182 -0.097249 -0.045248
v -0.012899 -0.096944 -0.044178
v -0.011125 -0.097287 -0.043532
v -0.010034 -0.098321 -0.043763
v -0.010597 -0.096791 -0.046484
v -0.006168 -0.093770 -0.042522
v -0.007586 -0.095579 -0.043759
v -0.002530 -0.094058 -0.042044
v -0.001440 -0.092640 -0.041768
v -0.004486 -0.095731 -0.042696
v -0.007329 -0.098479 -0.044569
v -0.008559 -0.097364 -0.044194
v -0.013067 -0.098476 -0.047464
v -0.010532 -0.097550 -0.045494
v -0.006817 -0.100407 -0.045763
v -0.009736 -0.100149 -0.044533
v -0.008516 -0.105787 -0.048448
v -0.006360 -0.105595 -0.048747
v -0.005810 -0.106925 -0.049099
v -0.007658 -0.107001 -0.048697
v -0.006538 -0.103223 -0.047334
v -0.009064 -0.103463 -0.047047
v -0.002807 -0.103335 -0.048686
v -0.002722 -0.100617 -0.046986
v -0.002618 -0.105429 -0.049739
v -0.002184 -0.106566 -0.049779
v -0.005084 -0.107027 -0.048351
v -0.006872 -0.107542 -0.048338
v -0.004060 -0.105658 -0.046152
v -0.005464 -0.106341 -0.046416
v -0.010446 -0.098797 -0.042571
v -0.009103 -0.097572 -0.040563
v -0.005577 -0.096431 -0.039350
v -0.003566 -0.098152 -0.040231
v -0.005679 -0.098153 -0.040060
v -0.002758 -0.092148 -0.035622
v -0.004731 -0.090948 -0.033431
v 0.000355 -0.091520 -0.040583
v -0.001928 -0.095285 -0.039230
v -0.000485 -0.093787 -0.037901
v 0.002152 -0.094240 -0.038910
v 0.001236 -0.096335 -0.041134
v 0.002225 -0.092728 -0.041450
v 0.001426 -0.093627 -0.043741
v 0.002188 -0.092474 -0.038299
v 0.000660 -0.091732 -0.039007
v 0.000187 -0.092148 -0.037630
v -0.000502 -0.090326 -0.037198
v -0.002062 -0.090552 -0.035056
v -0.002312 -0.089011 -0.034698
v -0.002509 -0.087914 -0.035120
v -0.003266 -0.086408 -0.030949
v -0.003225 -0.087753 -0.031415
v -0.008745 -0.082347 -0.026122
v -0.005470 -0.090632 -0.032042
v -0.003432 -0.089200 -0.032193
v -0.003794 -0.090498 -0.031115
v -0.003073 -0.090578 -0.029970
v 0.001559 -0.085185 -0.027054
v -0.001606 -0.086013 -0.028205
v -0.001338 -0.084614 -0.027689
v 0.001805 -0.083930 -0.026591
v -0.002718 -0.088128 -0.029860
v -0.000057 -0.087388 -0.028167
v 0.000508 -0.088158 -0.027396
v -0.003877 -0.090114 -0.028211
v -0.007769 -0.089687 -0.025921
v 0.001121 -0.087412 -0.025473
v -0.001364 -0.086739 -0.023552
v -0.003369 -0.085981 -0.021777
v -0.011331 -0.081059 -0.022661
v -0.013850 -0.079919 -0.018873
v -0.008505 -0.079911 -0.020845
v -0.006449 -0.080686 -0.023260
v -0.010283 -0.078803 -0.017649
v -0.012539 -0.086500 -0.018760
v -0.014114 -0.085719 -0.018175
v -0.007811 -0.085399 -0.018519
v -0.007563 -0.083591 -0.014512
v -0.012200 -0.084635 -0.014650
v -0.006755 -0.082181 -0.011110
v -0.011117 -0.082701 -0.010329
v -0.004659 -0.080428 -0.007254
v -0.008590 -0.080662 -0.005832
v -0.001974 -0.079269 -0.004254
v -0.005076 -0.079319 -0.002612
v 0.001287 -0.078534 -0.002270
v -0.000480 -0.078333 -0.000467
v 0.002798 -0.078278 -0.004484
v -0.000994 -0.079695 -0.008689
v 0.000992 -0.078812 -0.006465
v -0.002053 -0.080662 -0.011181
v -0.002688 -0.081845 -0.013990
v -0.002806 -0.083444 -0.017480
v 0.001541 -0.085575 -0.022256
v -0.014354 -0.085037 -0.025489
v -0.014185 -0.085675 -0.025308
v -0.013282 -0.085262 -0.026986
v -0.014084 -0.086306 -0.025487
v -0.013220 -0.087003 -0.026648
v -0.012760 -0.086304 -0.026963
v -0.012143 -0.088200 -0.029033
v -0.012269 -0.086370 -0.029242
v -0.011893 -0.087414 -0.029212
v -0.011892 -0.089690 -0.031888
v -0.011928 -0.090704 -0.033800
v -0.011739 -0.088958 -0.031854
v -0.012069 -0.090570 -0.034421
v -0.001097 -0.077464 0.000156
v -0.001216 -0.076035 0.000541
v -0.006175 -0.078419 -0.001918
v -0.009909 -0.079786 -0.005170
v -0.012418 -0.081727 -0.009541
v -0.013640 -0.083766 -0.013970
v -0.014030 -0.083278 -0.016748
v -0.013812 -0.081186 -0.015594
v -0.013355 -0.081569 -0.012771
v -0.012283 -0.079863 -0.008631
v -0.009972 -0.078235 -0.004588
v -0.006204 -0.076948 -0.001492
v -0.001545 -0.074550 0.001256
v -0.006390 -0.075359 -0.000731
v -0.009954 -0.076564 -0.003840
v -0.012295 -0.078075 -0.007734
v -0.013404 -0.079650 -0.011724
v -0.013963 -0.079513 -0.014862
v -0.013781 -0.078103 -0.014034
v -0.013438 -0.077951 -0.010870
v -0.012068 -0.076475 -0.007036
v -0.009758 -0.075113 -0.003279
v -0.006466 -0.074004 -0.000180
v -0.002076 -0.073299 0.001845
v -0.002383 -0.072592 0.001737
v -0.006311 -0.073253 -0.000099
v -0.009126 -0.074238 -0.002934
v -0.011385 -0.075450 -0.006500
v -0.013144 -0.076751 -0.010221
v -0.010274 -0.077412 -0.013830
v -0.001395 -0.072632 0.000329
v -0.004423 -0.073199 -0.001387
v -0.006461 -0.073973 -0.003825
v -0.008270 -0.075081 -0.007004
v -0.009659 -0.076334 -0.010511
v -0.000172 -0.073020 -0.001448
v -0.002543 -0.073379 -0.002516
v -0.003882 -0.074056 -0.004688
v -0.000488 -0.073775 -0.004068
v -0.005214 -0.075194 -0.007670
v -0.006332 -0.076429 -0.010921
v -0.001231 -0.074953 -0.007406
v -0.001755 -0.076364 -0.011015
v -0.006821 -0.077503 -0.013941
v -0.001955 -0.077676 -0.014437
v -0.006000 -0.079323 -0.019255
v -0.004233 -0.079734 -0.020790
v 0.001070 -0.079665 -0.021500
v -0.001019 -0.078944 -0.018018
v -0.006433 -0.078542 -0.016821
v -0.002095 -0.079896 -0.021906
v -0.002112 -0.099337 -0.040415
v -0.003571 -0.099120 -0.039945
v 0.002165 -0.100891 -0.042778
v 0.002174 -0.103364 -0.045689
v 0.001354 -0.098458 -0.041788
v -0.003006 -0.103828 -0.043853
v -0.003740 -0.103761 -0.043316
v -0.002923 -0.100654 -0.040514
v -0.001886 -0.101176 -0.041476
v -0.001132 -0.101162 -0.041884
v -0.001983 -0.103320 -0.043896
v -0.000878 -0.104117 -0.045458
v -0.001462 -0.098611 -0.041124
v -0.000155 -0.100903 -0.042120
v -0.001649 -0.099753 -0.041059
v 0.000049 -0.101294 -0.049215
v -0.000344 -0.103685 -0.050345
v -0.000371 -0.105677 -0.051323
v 0.001587 -0.104041 -0.052592
v 0.001813 -0.101858 -0.052372
v 0.000734 -0.106183 -0.053534
v -0.010900 -0.086892 -0.038023
v -0.010828 -0.085449 -0.037406
v -0.008920 -0.082189 -0.034880
v -0.008902 -0.082667 -0.035890
v -0.002814 -0.083156 -0.035350
v -0.003252 -0.083929 -0.036879
v -0.005756 -0.082185 -0.034960
v -0.006150 -0.082732 -0.035940
v -0.008563 -0.082325 -0.033882
v -0.005480 -0.082228 -0.033836
v -0.003393 -0.082840 -0.034270
v -0.008063 -0.082835 -0.032713
v -0.002546 -0.084046 -0.034697
v -0.004923 -0.083135 -0.033261
v -0.007440 -0.083329 -0.031519
v -0.002628 -0.085354 -0.035207
v -0.004695 -0.084043 -0.032947
v -0.002754 -0.086425 -0.034985
v -0.006687 -0.083193 -0.029663
v -0.004475 -0.084356 -0.031718
v -0.005596 -0.082153 -0.027080
v -0.003351 -0.084840 -0.030308
v -0.004000 -0.083395 -0.029142
v -0.003130 -0.080680 -0.024574
v -0.001292 -0.083352 -0.027391
v -0.001734 -0.082087 -0.026707
v 0.001384 -0.080267 -0.023963
v 0.001711 -0.082669 -0.026132
v 0.001561 -0.081403 -0.025406
v -0.008536 -0.083737 -0.036612
v -0.010463 -0.084231 -0.036885
v -0.004942 -0.084439 -0.036837
v -0.006460 -0.083554 -0.036487
v -0.007973 -0.084810 -0.036884
v -0.004116 -0.085819 -0.037659
v -0.010441 -0.088157 -0.038625
v -0.009172 -0.088800 -0.038889
v -0.007585 -0.086040 -0.037354
v -0.004210 -0.087103 -0.038381
v -0.004675 -0.088152 -0.038973
v -0.007330 -0.087288 -0.037953
v -0.007037 -0.088596 -0.038863
v -0.007410 -0.098486 -0.039949
v -0.005498 -0.099227 -0.039803
v -0.004732 -0.100755 -0.040618
v -0.005518 -0.103928 -0.043402
v -0.009311 -0.098461 -0.040810
v -0.010947 -0.099539 -0.042793
v -0.010926 -0.100930 -0.044667
v -0.010530 -0.103764 -0.046973
v -0.009871 -0.105845 -0.048181
v -0.009004 -0.107027 -0.048411
v -0.008131 -0.107630 -0.048122
v -0.007359 -0.106902 -0.046661
v -0.010677 -0.100435 -0.042891
v -0.009445 -0.099755 -0.041610
v -0.008035 -0.099228 -0.040482
v -0.010759 -0.101547 -0.044188
v -0.006768 -0.099812 -0.040550
v -0.008613 -0.100617 -0.042259
v -0.006164 -0.101228 -0.041441
v -0.010606 -0.103272 -0.045787
v -0.008177 -0.102373 -0.043677
v -0.009419 -0.106054 -0.047169
v -0.010023 -0.104906 -0.046734
v -0.006841 -0.103825 -0.043728
v -0.007997 -0.105623 -0.045714
v -0.008781 -0.105932 -0.046511
v -0.008292 -0.104498 -0.045428
v -0.001435 -0.106196 -0.048365
v 0.000371 -0.106364 -0.051089
v 0.001572 -0.106597 -0.053288
v 0.002256 -0.104967 -0.048676
v 0.003495 -0.105363 -0.052197
v 0.000896 -0.096981 -0.046494
v -0.002637 -0.097758 -0.044622
v 0.002420 -0.099413 -0.052302
v 0.001579 -0.107909 -0.056730
v 0.002330 -0.106316 -0.056403
v 0.002277 -0.107920 -0.056075
v 0.002479 -0.104547 -0.056521
v 0.003207 -0.103537 -0.057596
v 0.003691 -0.107074 -0.055133
v 0.003157 -0.109413 -0.057829
v 0.002600 -0.110211 -0.058777
v 0.002220 -0.110447 -0.059627
v 0.002797 -0.108751 -0.059543
v 0.002922 -0.106639 -0.059258
v 0.003359 -0.105834 -0.060580
v 0.003001 -0.107076 -0.060650
v 0.002919 -0.109350 -0.060870
v 0.002736 -0.111118 -0.060991
v 0.002781 -0.111150 -0.060127
v 0.003287 -0.111121 -0.059822
v 0.003046 -0.111866 -0.061355
v 0.003550 -0.113088 -0.062603
v 0.002949 -0.110208 -0.061862
v 0.003318 -0.106768 -0.061979
v 0.003046 -0.108088 -0.061383
v 0.003302 -0.111448 -0.063197
v 0.003351 -0.108760 -0.062615
f 1 2 3
f 1 3 4
f 5 6 2
f 5 2 1
f 7 4 3
f 7 3 8
f 8 3 9
f 8 9 10
f 10 9 11
f 10 11 12
f 13 14 15
f 13 15 16
f 13 17 12
f 13 12 14
f 18 10 12
f 18 12 17
f 19 16 15
f 19 15 20
f 21 18 17
f 21 17 13
f 21 13 16
f 21 16 19
f 22 8 10
f 22 10 18
f 23 19 20
f 23 20 24
f 25 22 18
f 25 18 21
f 25 21 19
f 25 19 23
f 26 7 8
f 26 8 22
f 27 26 22
f 27 22 25
f 27 25 23
f 27 23 28
f 29 30 7
f 29 7 26
f 28 23 24
f 28 24 31
f 27 28 31
f 27 31 32
f 29 26 27
f 29 27 32
f 33 30 29
f 33 29 34
f 34 29 32
f 34 32 35
f 36 34 35
f 36 35 37
f 38 33 34
f 38 34 36
f 39 40 41
f 39 41 42
f 6 5 43
f 6 43 44
f 45 44 43
f 45 43 46
f 46 43 47
f 46 47 48
f 49 45 46
f 49 46 48
f 50 48 47
f 50 47 40
f 51 50 40
f 51 40 39
f 52 49 48
f 52 48 50
f 53 52 50
f 53 50 51
f 51 39 54
f 51 54 55
f 56 53 51
f 56 51 55
f 55 54 38
f 55 38 57
f 57 38 36
f 57 36 58
f 58 36 37
f 58 37 59
f 60 53 56
f 60 56 61
f 60 61 62
f 60 62 63
f 64 52 53
f 64 53 60
f 65 49 52
f 65 52 64
f 65 64 66
f 65 66 67
f 68 67 66
f 68 66 69
f 70 71 68
f 70 68 69
f 72 64 60
f 72 60 73
f 74 75 76
f 74 76 77
f 77 76 78
f 77 78 79
f 73 60 63
f 73 63 80
f 79 78 73
f 79 73 80
f 81 79 80
f 81 80 82
f 63 62 83
f 63 83 84
f 85 80 63
f 85 63 84
f 82 80 85
f 82 85 86
f 87 84 83
f 87 83 88
f 85 84 87
f 85 87 89
f 86 85 89
f 86 89 90
f 89 87 88
f 89 88 91
f 92 91 88
f 92 88 93
f 90 89 91
f 90 91 92
f 93 88 83
f 93 83 94
f 95 72 73
f 95 73 78
f 95 78 76
f 95 76 96
f 96 76 75
f 96 75 97
f 97 75 98
f 97 98 99
f 99 98 100
f 99 100 101
f 102 70 69
f 102 69 103
f 103 69 66
f 103 66 104
f 66 64 72
f 66 72 104
f 105 82 86
f 105 86 106
f 106 86 90
f 106 90 107
f 108 109 82
f 108 82 105
f 94 83 62
f 94 62 110
f 110 62 61
f 110 61 111
f 111 61 56
f 111 56 112
f 113 109 108
f 113 108 114
f 113 114 115
f 113 115 116
f 115 114 108
f 115 108 105
f 105 106 117
f 105 117 115
f 115 117 118
f 115 118 116
f 118 92 93
f 118 93 94
f 107 90 92
f 107 92 118
f 117 106 107
f 117 107 118
f 118 94 110
f 118 110 116
f 112 56 55
f 112 55 119
f 120 119 55
f 120 55 57
f 121 116 110
f 121 110 111
f 121 111 112
f 121 112 122
f 122 112 119
f 122 119 123
f 124 123 119
f 124 119 120
f 125 81 82
f 125 82 109
f 126 77 79
f 126 79 81
f 126 81 125
f 126 125 127
f 128 129 77
f 128 77 126
f 128 126 127
f 128 127 130
f 131 132 123
f 131 123 124
f 133 125 109
f 133 109 113
f 134 127 125
f 134 125 133
f 133 113 116
f 133 116 121
f 133 121 122
f 133 122 134
f 134 122 123
f 134 123 132
f 134 132 130
f 134 130 127
f 135 131 124
f 135 124 136
f 137 138 139
f 137 139 140
f 141 135 136
f 141 136 142
f 142 137 140
f 142 140 141
f 143 144 135
f 143 135 141
f 145 143 141
f 145 141 140
f 146 145 140
f 146 140 139
f 139 138 147
f 139 147 148
f 148 147 149
f 148 149 150
f 151 120 57
f 151 57 152
f 136 124 120
f 136 120 151
f 152 57 58
f 152 58 153
f 154 155 152
f 154 152 153
f 156 59 37
f 156 37 157
f 158 74 77
f 158 77 129
f 153 58 59
f 153 59 159
f 160 159 59
f 160 59 156
f 161 162 163
f 161 163 164
f 163 159 160
f 163 160 164
f 165 166 167
f 165 167 168
f 169 161 164
f 169 164 170
f 171 158 165
f 171 165 170
f 165 168 169
f 165 169 170
f 170 164 160
f 170 160 172
f 173 171 170
f 173 170 172
f 173 74 158
f 173 158 171
f 172 160 156
f 172 156 174
f 175 176 74
f 175 74 173
f 175 173 172
f 175 172 174
f 177 176 175
f 177 175 178
f 179 45 49
f 179 49 65
f 35 32 31
f 35 31 180
f 157 37 35
f 157 35 180
f 174 156 157
f 174 157 181
f 178 175 174
f 178 174 181
f 180 31 24
f 180 24 182
f 182 24 20
f 182 20 183
f 184 185 186
f 184 186 187
f 187 186 177
f 187 177 178
f 187 178 181
f 187 181 188
f 181 157 180
f 181 180 188
f 189 188 180
f 189 180 182
f 184 187 188
f 184 188 189
f 190 191 185
f 190 185 184
f 190 184 189
f 190 189 192
f 193 192 189
f 193 189 194
f 194 189 182
f 194 182 183
f 183 20 15
f 183 15 195
f 195 15 14
f 195 14 196
f 197 194 183
f 197 183 195
f 198 193 194
f 198 194 197
f 196 14 12
f 196 12 11
f 199 195 196
f 199 196 200
f 201 44 45
f 201 45 179
f 202 6 44
f 202 44 201
f 201 179 203
f 201 203 204
f 202 201 204
f 202 204 205
f 206 11 9
f 206 9 207
f 208 196 11
f 208 11 206
f 208 206 209
f 208 209 210
f 211 210 209
f 211 209 212
f 213 211 212
f 213 212 214
f 215 213 214
f 215 214 216
f 217 215 216
f 217 216 218
f 219 217 218
f 219 218 220
f 221 217 219
f 221 219 222
f 223 213 215
f 223 215 224
f 224 215 217
f 224 217 221
f 224 221 222
f 224 222 225
f 226 211 213
f 226 213 223
f 223 224 225
f 223 225 227
f 228 210 211
f 228 211 226
f 229 226 223
f 229 223 227
f 230 228 226
f 230 226 229
f 231 200 196
f 231 196 208
f 197 195 199
f 197 199 232
f 232 199 200
f 232 200 231
f 233 198 197
f 233 197 232
f 231 234 233
f 231 233 232
f 231 208 210
f 231 210 228
f 231 228 230
f 231 230 234
f 235 5 1
f 235 1 236
f 43 5 235
f 43 235 237
f 238 4 7
f 238 7 239
f 236 1 4
f 236 4 238
f 240 236 238
f 240 238 239
f 237 235 236
f 237 236 240
f 239 7 30
f 239 30 241
f 47 43 237
f 47 237 242
f 243 240 239
f 243 239 241
f 242 237 240
f 242 240 243
f 244 241 30
f 244 30 33
f 244 33 38
f 244 38 245
f 40 47 242
f 40 242 41
f 246 243 241
f 246 241 244
f 247 42 41
f 247 41 246
f 54 39 42
f 54 42 247
f 245 38 54
f 245 54 247
f 246 244 245
f 246 245 247
f 41 242 243
f 41 243 246
f 248 220 218
f 248 218 249
f 250 248 249
f 250 249 251
f 249 218 216
f 249 216 252
f 252 216 214
f 252 214 253
f 253 214 212
f 253 212 254
f 254 212 209
f 254 209 255
f 209 206 207
f 209 207 255
f 207 9 3
f 207 3 256
f 256 3 2
f 256 2 257
f 258 255 207
f 258 207 256
f 259 254 255
f 259 255 258
f 260 253 254
f 260 254 259
f 261 252 253
f 261 253 260
f 261 251 249
f 261 249 252
f 262 250 251
f 262 251 263
f 263 251 261
f 263 261 264
f 264 261 260
f 264 260 265
f 265 260 259
f 265 259 266
f 266 259 258
f 266 258 267
f 258 256 257
f 258 257 267
f 257 2 6
f 257 6 268
f 268 6 202
f 268 202 269
f 270 267 257
f 270 257 268
f 271 266 267
f 271 267 270
f 272 265 266
f 272 266 271
f 273 264 265
f 273 265 272
f 274 263 264
f 274 264 273
f 275 276 274
f 275 274 277
f 277 274 273
f 277 273 278
f 278 273 272
f 278 272 279
f 279 272 271
f 279 271 280
f 280 271 270
f 280 270 281
f 270 268 269
f 270 269 281
f 269 202 205
f 269 205 282
f 276 262 263
f 276 263 274
f 283 284 275
f 283 275 277
f 285 283 277
f 285 277 278
f 286 285 278
f 286 278 279
f 287 286 279
f 287 279 280
f 288 287 280
f 288 280 281
f 288 281 269
f 288 269 282
f 289 284 283
f 289 283 290
f 290 283 285
f 290 285 291
f 292 291 285
f 292 285 286
f 293 289 290
f 293 290 294
f 294 290 291
f 294 291 292
f 295 292 286
f 295 286 287
f 296 295 287
f 296 287 288
f 297 294 292
f 297 292 295
f 298 293 294
f 298 294 297
f 297 295 296
f 297 296 299
f 300 298 297
f 300 297 299
f 296 288 282
f 296 282 301
f 302 300 299
f 302 299 303
f 303 299 296
f 303 296 301
f 304 204 203
f 304 203 305
f 306 307 308
f 306 308 309
f 310 304 305
f 310 305 309
f 205 204 304
f 205 304 310
f 301 282 205
f 301 205 310
f 309 303 301
f 309 301 310
f 309 308 302
f 309 302 303
f 305 311 306
f 305 306 309
f 312 313 155
f 312 155 154
f 314 315 316
f 314 316 317
f 163 162 318
f 163 318 319
f 319 318 314
f 319 314 317
f 150 149 320
f 150 320 321
f 322 313 312
f 322 312 323
f 321 320 322
f 321 322 323
f 324 325 321
f 324 321 323
f 325 326 150
f 325 150 321
f 154 153 159
f 154 159 327
f 327 159 163
f 327 163 319
f 328 327 319
f 328 319 317
f 324 329 327
f 324 327 328
f 317 316 326
f 317 326 328
f 328 326 325
f 328 325 324
f 324 323 312
f 324 312 329
f 329 312 154
f 329 154 327
f 330 144 143
f 330 143 331
f 331 143 145
f 331 145 332
f 333 334 330
f 333 330 331
f 335 333 331
f 335 331 332
f 336 337 103
f 336 103 104
f 338 70 102
f 338 102 339
f 340 341 101
f 340 101 100
f 342 338 339
f 342 339 343
f 342 343 341
f 342 341 340
f 344 71 70
f 344 70 338
f 345 344 338
f 345 338 342
f 345 342 340
f 345 340 346
f 347 68 71
f 347 71 344
f 348 346 340
f 348 340 100
f 349 347 344
f 349 344 345
f 349 345 346
f 349 346 348
f 350 67 68
f 350 68 347
f 351 348 100
f 351 100 98
f 352 350 347
f 352 347 349
f 352 349 348
f 352 348 351
f 353 75 74
f 353 74 176
f 354 65 67
f 354 67 350
f 353 351 98
f 353 98 75
f 355 354 350
f 355 350 352
f 355 352 351
f 355 351 353
f 356 179 65
f 356 65 354
f 357 353 176
f 357 176 177
f 355 353 357
f 355 357 358
f 356 354 355
f 356 355 358
f 203 179 356
f 203 356 359
f 311 305 203
f 311 203 359
f 360 357 177
f 360 177 186
f 361 359 356
f 361 356 358
f 361 358 357
f 361 357 360
f 306 311 359
f 306 359 362
f 363 360 186
f 363 186 185
f 364 362 359
f 364 359 361
f 364 361 360
f 364 360 363
f 365 366 364
f 365 364 363
f 363 185 191
f 363 191 365
f 367 362 364
f 367 364 366
f 307 306 362
f 307 362 367
f 368 339 102
f 368 102 369
f 370 341 343
f 370 343 371
f 343 339 368
f 343 368 371
f 337 369 102
f 337 102 103
f 370 371 368
f 370 368 372
f 372 368 369
f 372 369 337
f 373 101 341
f 373 341 370
f 336 104 72
f 336 72 374
f 374 72 95
f 374 95 375
f 373 370 372
f 373 372 376
f 372 337 336
f 372 336 376
f 377 378 97
f 377 97 99
f 377 99 101
f 377 101 373
f 376 336 374
f 376 374 379
f 380 375 95
f 380 95 96
f 379 374 375
f 379 375 380
f 380 96 97
f 380 97 378
f 380 378 377
f 380 377 379
f 377 373 376
f 377 376 379
f 381 155 313
f 381 313 382
f 382 313 322
f 382 322 383
f 383 322 320
f 383 320 384
f 152 155 381
f 152 381 385
f 386 151 152
f 386 152 385
f 387 136 151
f 387 151 386
f 142 136 387
f 142 387 388
f 137 142 388
f 137 388 389
f 138 137 389
f 138 389 390
f 147 138 390
f 147 390 391
f 149 147 391
f 149 391 392
f 384 320 149
f 384 149 392
f 393 386 385
f 393 385 394
f 394 385 381
f 394 381 395
f 387 386 393
f 387 393 396
f 395 381 382
f 395 382 397
f 396 393 394
f 396 394 398
f 394 395 397
f 394 397 398
f 399 397 382
f 399 382 383
f 388 387 396
f 388 396 400
f 398 397 399
f 398 399 401
f 400 396 398
f 400 398 401
f 402 390 389
f 402 389 403
f 404 384 392
f 404 392 405
f 404 399 383
f 404 383 384
f 389 388 400
f 389 400 403
f 405 392 391
f 405 391 406
f 401 399 404
f 401 404 407
f 406 402 403
f 406 403 407
f 391 390 402
f 391 402 406
f 407 404 405
f 407 405 406
f 403 400 401
f 403 401 407
f 408 146 139
f 408 139 148
f 408 148 150
f 408 150 326
f 409 332 145
f 409 145 146
f 410 335 332
f 410 332 409
f 409 146 408
f 409 408 411
f 411 412 410
f 411 410 409
f 411 408 326
f 411 326 316
f 316 315 413
f 316 413 411
f 411 413 414
f 411 414 412
f 165 158 129
f 165 129 166
f 415 167 166
f 415 166 416
f 166 129 128
f 166 128 416
f 416 128 130
f 416 130 417
f 417 130 132
f 417 132 131
f 144 330 416
f 144 416 417
f 417 131 135
f 417 135 144
f 416 330 334
f 416 334 418
f 416 418 419
f 416 419 415
f 420 421 333
f 420 333 335
f 422 420 335
f 422 335 410
f 423 334 333
f 423 333 421
f 424 418 334
f 424 334 423
f 419 418 424
f 419 424 425
f 426 422 410
f 426 410 412
f 427 426 412
f 427 412 414
f 428 426 427
f 428 427 429
f 430 422 426
f 430 426 428
f 431 420 422
f 431 422 430
f 432 421 420
f 432 420 431
f 423 421 432
f 423 432 433
f 424 423 433
f 424 433 434
f 425 424 434
f 425 434 435
f 436 433 432
f 436 432 437
f 437 432 431
f 437 431 438
f 431 430 439
f 431 439 438
f 439 430 428
f 439 428 440
f 440 428 429
f 440 429 441
f 442 438 439
f 442 439 440
f 442 440 441
f 442 441 443
f 444 442 443
f 444 443 445
f 446 437 438
f 446 438 442
f 434 433 436
f 434 436 447
f 448 436 437
f 448 437 446
f 446 442 444
f 446 444 449
f 435 434 447
f 435 447 450
f 449 444 445
f 449 445 451
f 452 453 449
f 452 449 451
f 450 447 453
f 450 453 452
f 447 436 448
f 447 448 453
f 453 448 446
f 453 446 449
f 454 455 456
f 454 456 457
f 458 454 457
f 458 457 459
f 460 461 456
f 460 456 455
f 461 462 463
f 461 463 456
f 462 464 465
f 462 465 463
f 466 467 468
f 466 468 469
f 466 469 464
f 466 464 470
f 471 470 464
f 471 464 462
f 472 473 468
f 472 468 467
f 474 466 470
f 474 470 471
f 474 472 467
f 474 467 466
f 475 471 462
f 475 462 461
f 476 477 473
f 476 473 472
f 478 474 471
f 478 471 475
f 478 476 472
f 478 472 474
f 479 475 461
f 479 461 460
f 480 478 475
f 480 475 479
f 480 481 476
f 480 476 478
f 482 479 460
f 482 460 483
f 481 484 477
f 481 477 476
f 480 485 484
f 480 484 481
f 482 485 480
f 482 480 479
f 486 487 482
f 486 482 483
f 487 488 485
f 487 485 482
f 489 490 488
f 489 488 487
f 491 489 487
f 491 487 486
f 492 493 494
f 492 494 495
f 459 496 497
f 459 497 458
f 498 499 497
f 498 497 496
f 499 500 501
f 499 501 497
f 502 500 499
f 502 499 498
f 503 495 501
f 503 501 500
f 504 492 495
f 504 495 503
f 505 503 500
f 505 500 502
f 506 504 503
f 506 503 505
f 504 507 508
f 504 508 492
f 509 507 504
f 509 504 506
f 507 510 491
f 507 491 508
f 510 511 489
f 510 489 491
f 511 512 490
f 511 490 489
f 513 514 509
f 513 509 506
f 513 515 516
f 513 516 514
f 517 513 506
f 517 506 505
f 518 517 505
f 518 505 502
f 518 519 520
f 518 520 517
f 521 522 520
f 521 520 519
f 523 522 521
f 523 521 524
f 525 526 513
f 525 513 517
f 527 528 529
f 527 529 530
f 528 531 532
f 528 532 529
f 526 533 515
f 526 515 513
f 531 533 526
f 531 526 532
f 534 535 533
f 534 533 531
f 515 536 537
f 515 537 516
f 538 536 515
f 538 515 533
f 535 539 538
f 535 538 533
f 540 541 537
f 540 537 536
f 538 542 540
f 538 540 536
f 539 543 542
f 539 542 538
f 542 544 541
f 542 541 540
f 545 546 541
f 545 541 544
f 543 545 544
f 543 544 542
f 546 547 537
f 546 537 541
f 548 532 526
f 548 526 525
f 548 549 529
f 548 529 532
f 549 550 530
f 549 530 529
f 550 551 552
f 550 552 530
f 551 553 554
f 551 554 552
f 555 556 522
f 555 522 523
f 556 557 520
f 556 520 522
f 520 557 525
f 520 525 517
f 558 559 539
f 558 539 535
f 559 560 543
f 559 543 539
f 561 558 535
f 561 535 562
f 547 563 516
f 547 516 537
f 563 564 514
f 563 514 516
f 564 565 509
f 564 509 514
f 566 567 561
f 566 561 562
f 566 568 569
f 566 569 567
f 569 558 561
f 569 561 567
f 558 569 570
f 558 570 559
f 569 568 571
f 569 571 570
f 571 547 546
f 571 546 545
f 560 571 545
f 560 545 543
f 570 571 560
f 570 560 559
f 571 568 563
f 571 563 547
f 565 572 507
f 565 507 509
f 573 510 507
f 573 507 572
f 574 564 563
f 574 563 568
f 574 575 565
f 574 565 564
f 575 576 572
f 575 572 565
f 577 573 572
f 577 572 576
f 578 562 535
f 578 535 534
f 579 534 531
f 579 531 528
f 579 580 578
f 579 578 534
f 581 579 528
f 581 528 582
f 581 583 580
f 581 580 579
f 584 577 576
f 584 576 585
f 586 566 562
f 586 562 578
f 587 586 578
f 587 578 580
f 586 574 568
f 586 568 566
f 586 587 575
f 586 575 574
f 587 585 576
f 587 576 575
f 587 580 583
f 587 583 585
f 588 589 577
f 588 577 584
f 590 591 592
f 590 592 593
f 594 595 589
f 594 589 588
f 595 594 591
f 595 591 590
f 596 594 588
f 596 588 597
f 598 591 594
f 598 594 596
f 599 592 591
f 599 591 598
f 592 600 601
f 592 601 593
f 600 602 603
f 600 603 601
f 604 605 510
f 604 510 573
f 589 604 573
f 589 573 577
f 605 606 511
f 605 511 510
f 607 606 605
f 607 605 608
f 609 610 490
f 609 490 512
f 611 582 528
f 611 528 527
f 606 612 512
f 606 512 511
f 613 609 512
f 613 512 612
f 161 614 615
f 161 615 162
f 615 614 613
f 615 613 612
f 616 168 167
f 616 167 617
f 169 618 614
f 169 614 161
f 619 618 616
f 619 616 611
f 616 618 169
f 616 169 168
f 618 620 613
f 618 613 614
f 621 620 618
f 621 618 619
f 621 619 611
f 621 611 527
f 620 622 609
f 620 609 613
f 623 621 527
f 623 527 624
f 623 622 620
f 623 620 621
f 625 626 623
f 625 623 624
f 627 518 502
f 627 502 498
f 488 628 484
f 488 484 485
f 610 628 488
f 610 488 490
f 622 629 610
f 622 610 609
f 626 629 622
f 626 622 623
f 628 630 477
f 628 477 484
f 630 631 473
f 630 473 477
f 632 633 634
f 632 634 635
f 633 626 625
f 633 625 634
f 633 636 629
f 633 629 626
f 629 636 628
f 629 628 610
f 637 630 628
f 637 628 636
f 632 637 636
f 632 636 633
f 190 632 635
f 190 635 191
f 190 192 637
f 190 637 632
f 193 638 637
f 193 637 192
f 638 631 630
f 638 630 637
f 631 639 468
f 631 468 473
f 639 640 469
f 639 469 468
f 641 639 631
f 641 631 638
f 198 641 638
f 198 638 193
f 640 465 464
f 640 464 469
f 642 643 640
f 642 640 639
f 644 627 498
f 644 498 496
f 645 644 496
f 645 496 459
f 644 646 647
f 644 647 627
f 645 648 646
f 645 646 644
f 649 650 463
f 649 463 465
f 651 649 465
f 651 465 640
f 651 652 653
f 651 653 649
f 654 655 653
f 654 653 652
f 656 657 655
f 656 655 654
f 658 659 657
f 658 657 656
f 660 661 659
f 660 659 658
f 219 220 661
f 219 661 660
f 662 222 219
f 662 219 660
f 663 664 658
f 663 658 656
f 664 662 660
f 664 660 658
f 664 225 222
f 664 222 662
f 665 663 656
f 665 656 654
f 663 227 225
f 663 225 664
f 666 665 654
f 666 654 652
f 229 227 663
f 229 663 665
f 230 229 665
f 230 665 666
f 667 651 640
f 667 640 643
f 641 668 642
f 641 642 639
f 668 667 643
f 668 643 642
f 233 668 641
f 233 641 198
f 667 668 233
f 667 233 234
f 667 666 652
f 667 652 651
f 667 234 230
f 667 230 666
f 669 670 454
f 669 454 458
f 497 671 669
f 497 669 458
f 672 673 460
f 672 460 455
f 670 672 455
f 670 455 454
f 674 673 672
f 674 672 670
f 671 674 670
f 671 670 669
f 673 675 483
f 673 483 460
f 501 676 671
f 501 671 497
f 677 675 673
f 677 673 674
f 676 677 674
f 676 674 671
f 678 486 483
f 678 483 675
f 678 679 491
f 678 491 486
f 495 494 676
f 495 676 501
f 680 678 675
f 680 675 677
f 681 680 494
f 681 494 493
f 508 681 493
f 508 493 492
f 679 681 508
f 679 508 491
f 680 681 679
f 680 679 678
f 494 680 677
f 494 677 676
f 248 682 661
f 248 661 220
f 250 683 682
f 250 682 248
f 682 684 659
f 682 659 661
f 684 685 657
f 684 657 659
f 685 686 655
f 685 655 657
f 686 687 653
f 686 653 655
f 653 687 650
f 653 650 649
f 650 688 456
f 650 456 463
f 688 689 457
f 688 457 456
f 690 688 650
f 690 650 687
f 691 690 687
f 691 687 686
f 692 691 686
f 692 686 685
f 693 692 685
f 693 685 684
f 693 684 682
f 693 682 683
f 262 694 683
f 262 683 250
f 694 695 693
f 694 693 683
f 695 696 692
f 695 692 693
f 696 697 691
f 696 691 692
f 697 698 690
f 697 690 691
f 690 698 689
f 690 689 688
f 689 699 459
f 689 459 457
f 699 700 645
f 699 645 459
f 701 699 689
f 701 689 698
f 702 701 698
f 702 698 697
f 703 702 697
f 703 697 696
f 704 703 696
f 704 696 695
f 705 704 695
f 705 695 694
f 275 706 705
f 275 705 276
f 706 707 704
f 706 704 705
f 707 708 703
f 707 703 704
f 708 709 702
f 708 702 703
f 709 710 701
f 709 701 702
f 701 710 700
f 701 700 699
f 700 711 648
f 700 648 645
f 276 705 694
f 276 694 262
f 712 706 275
f 712 275 284
f 713 707 706
f 713 706 712
f 714 708 707
f 714 707 713
f 715 709 708
f 715 708 714
f 716 710 709
f 716 709 715
f 716 711 700
f 716 700 710
f 289 717 712
f 289 712 284
f 717 718 713
f 717 713 712
f 719 714 713
f 719 713 718
f 293 720 717
f 293 717 289
f 720 719 718
f 720 718 717
f 721 715 714
f 721 714 719
f 722 716 715
f 722 715 721
f 723 721 719
f 723 719 720
f 298 723 720
f 298 720 293
f 723 724 722
f 723 722 721
f 300 724 723
f 300 723 298
f 722 725 711
f 722 711 716
f 302 726 724
f 302 724 300
f 726 725 722
f 726 722 724
f 727 728 647
f 727 647 646
f 729 730 308
f 729 308 307
f 731 730 728
f 731 728 727
f 648 731 727
f 648 727 646
f 725 731 648
f 725 648 711
f 730 731 725
f 730 725 726
f 730 726 302
f 730 302 308
f 728 730 729
f 728 729 732
f 733 607 608
f 733 608 734
f 314 735 736
f 314 736 315
f 615 737 318
f 615 318 162
f 737 735 314
f 737 314 318
f 602 738 739
f 602 739 603
f 740 741 733
f 740 733 734
f 738 741 740
f 738 740 739
f 742 741 738
f 742 738 743
f 743 738 602
f 743 602 744
f 607 745 612
f 607 612 606
f 745 737 615
f 745 615 612
f 746 735 737
f 746 737 745
f 742 746 745
f 742 745 747
f 735 746 744
f 735 744 736
f 746 742 743
f 746 743 744
f 742 747 733
f 742 733 741
f 747 745 607
f 747 607 733
f 748 749 596
f 748 596 597
f 749 750 598
f 749 598 596
f 751 749 748
f 751 748 752
f 753 750 749
f 753 749 751
f 754 557 556
f 754 556 755
f 756 757 555
f 756 555 523
f 758 554 553
f 758 553 759
f 760 761 757
f 760 757 756
f 760 758 759
f 760 759 761
f 762 756 523
f 762 523 524
f 763 760 756
f 763 756 762
f 763 764 758
f 763 758 760
f 765 762 524
f 765 524 521
f 766 554 758
f 766 758 764
f 767 763 762
f 767 762 765
f 767 766 764
f 767 764 763
f 768 765 521
f 768 521 519
f 769 552 554
f 769 554 766
f 770 767 765
f 770 765 768
f 770 769 766
f 770 766 767
f 771 624 527
f 771 527 530
f 772 768 519
f 772 519 518
f 771 530 552
f 771 552 769
f 773 770 768
f 773 768 772
f 773 771 769
f 773 769 770
f 774 772 518
f 774 518 627
f 775 625 624
f 775 624 771
f 773 776 775
f 773 775 771
f 774 776 773
f 774 773 772
f 647 777 774
f 647 774 627
f 732 777 647
f 732 647 728
f 778 634 625
f 778 625 775
f 779 776 774
f 779 774 777
f 779 778 775
f 779 775 776
f 729 780 777
f 729 777 732
f 781 635 634
f 781 634 778
f 782 779 777
f 782 777 780
f 782 781 778
f 782 778 779
f 365 781 782
f 365 782 366
f 781 365 191
f 781 191 635
f 367 366 782
f 367 782 780
f 307 367 780
f 307 780 729
f 783 784 555
f 783 555 757
f 785 786 761
f 785 761 759
f 761 786 783
f 761 783 757
f 755 556 555
f 755 555 784
f 785 787 783
f 785 783 786
f 787 755 784
f 787 784 783
f 788 785 759
f 788 759 553
f 754 789 525
f 754 525 557
f 789 790 548
f 789 548 525
f 788 791 787
f 788 787 785
f 787 791 754
f 787 754 755
f 792 551 550
f 792 550 793
f 792 788 553
f 792 553 551
f 791 794 789
f 791 789 754
f 795 549 548
f 795 548 790
f 794 795 790
f 794 790 789
f 795 793 550
f 795 550 549
f 795 794 792
f 795 792 793
f 792 794 791
f 792 791 788
f 796 797 734
f 796 734 608
f 797 798 740
f 797 740 734
f 798 799 739
f 798 739 740
f 605 800 796
f 605 796 608
f 801 800 605
f 801 605 604
f 802 801 604
f 802 604 589
f 595 803 802
f 595 802 589
f 590 804 803
f 590 803 595
f 593 805 804
f 593 804 590
f 601 806 805
f 601 805 593
f 603 807 806
f 603 806 601
f 799 807 603
f 799 603 739
f 808 809 800
f 808 800 801
f 809 810 796
f 809 796 800
f 802 811 808
f 802 808 801
f 810 812 797
f 810 797 796
f 811 813 809
f 811 809 808
f 809 813 812
f 809 812 810
f 814 798 797
f 814 797 812
f 803 815 811
f 803 811 802
f 813 816 814
f 813 814 812
f 815 816 813
f 815 813 811
f 817 818 804
f 817 804 805
f 819 820 807
f 819 807 799
f 819 799 798
f 819 798 814
f 804 818 815
f 804 815 803
f 820 821 806
f 820 806 807
f 816 822 819
f 816 819 814
f 821 822 818
f 821 818 817
f 806 821 817
f 806 817 805
f 822 821 820
f 822 820 819
f 818 822 816
f 818 816 815
f 823 600 592
f 823 592 599
f 823 744 602
f 823 602 600
f 824 599 598
f 824 598 750
f 825 824 750
f 825 750 753
f 824 826 823
f 824 823 599
f 826 824 825
f 826 825 827
f 826 736 744
f 826 744 823
f 736 826 413
f 736 413 315
f 826 827 414
f 826 414 413
f 616 617 582
f 616 582 611
f 415 828 617
f 415 617 167
f 617 828 581
f 617 581 582
f 828 829 583
f 828 583 581
f 829 584 585
f 829 585 583
f 597 829 828
f 597 828 748
f 829 597 588
f 829 588 584
f 828 830 752
f 828 752 748
f 828 415 419
f 828 419 830
f 831 753 751
f 831 751 832
f 833 825 753
f 833 753 831
f 834 832 751
f 834 751 752
f 835 834 752
f 835 752 830
f 419 425 835
f 419 835 830
f 836 827 825
f 836 825 833
f 427 414 827
f 427 827 836
f 837 429 427
f 837 427 836
f 838 837 836
f 838 836 833
f 839 838 833
f 839 833 831
f 840 839 831
f 840 831 832
f 834 841 840
f 834 840 832
f 835 842 841
f 835 841 834
f 425 435 842
f 425 842 835
f 843 844 840
f 843 840 841
f 844 845 839
f 844 839 840
f 839 845 846
f 839 846 838
f 846 847 837
f 846 837 838
f 847 441 429
f 847 429 837
f 848 847 846
f 848 846 845
f 848 443 441
f 848 441 847
f 849 445 443
f 849 443 848
f 850 848 845
f 850 845 844
f 842 851 843
f 842 843 841
f 852 850 844
f 852 844 843
f 850 853 849
f 850 849 848
f 435 450 851
f 435 851 842
f 853 451 445
f 853 445 849
f 452 451 853
f 452 853 854
f 450 452 854
f 450 854 851
f 851 854 852
f 851 852 843
f 854 853 850
f 854 850 852
