# T1 posed
v -0.585882 -0.009838 0.390257
v -0.585240 -0.008973 0.388595
v -0.585283 -0.008018 0.388863
v -0.585969 -0.008622 0.390702
v -0.586519 -0.009244 0.392651
v -0.586402 -0.010521 0.392017
v -0.584350 -0.008607 0.386860
v -0.584425 -0.007460 0.387222
v -0.586856 -0.009855 0.394577
v -0.586740 -0.011142 0.393873
v -0.587264 -0.010491 0.396533
v -0.587136 -0.011972 0.395840
v -0.602714 -0.021597 0.428618
v -0.603155 -0.021268 0.427503
v -0.599196 -0.022682 0.426023
v -0.599030 -0.022852 0.427802
v -0.599547 -0.022758 0.428945
v -0.602416 -0.021810 0.429596
v -0.603896 -0.020723 0.425643
v -0.600088 -0.022562 0.424010
v -0.593588 -0.021457 0.429875
v -0.593154 -0.022103 0.429235
v -0.593001 -0.021328 0.428605
v -0.593250 -0.021053 0.428655
v -0.593717 -0.021795 0.430889
v -0.593111 -0.022460 0.430671
v -0.592539 -0.022452 0.434025
v -0.592273 -0.022866 0.433811
v -0.591806 -0.023229 0.436587
v -0.591826 -0.023567 0.436482
v -0.592165 -0.024572 0.440767
v -0.592180 -0.025191 0.440603
v -0.591712 -0.024291 0.438859
v -0.591622 -0.023967 0.438962
v -0.592285 -0.025270 0.442393
v -0.592174 -0.025642 0.442315
v -0.593369 -0.021271 0.426893
v -0.593535 -0.020638 0.427282
v -0.594577 -0.021403 0.424795
v -0.594330 -0.019872 0.425626
v -0.595487 -0.021371 0.422694
v -0.595548 -0.019298 0.423578
v -0.596861 -0.020962 0.419912
v -0.597647 -0.018594 0.420965
v -0.598886 -0.020722 0.416336
v -0.600366 -0.017691 0.417643
v -0.601285 -0.019668 0.414655
v -0.601668 -0.017028 0.415320
v -0.602632 -0.017731 0.411646
v -0.602631 -0.016078 0.412153
v -0.597830 -0.012884 0.402239
v -0.601508 -0.012119 0.400654
v -0.601490 -0.014241 0.400231
v -0.597728 -0.014834 0.401550
v -0.594399 -0.015453 0.401991
v -0.594760 -0.012891 0.402664
v -0.591502 -0.014055 0.403204
v -0.591558 -0.012945 0.403411
v -0.604943 -0.011696 0.398680
v -0.604966 -0.013894 0.398337
v -0.606625 -0.011721 0.396969
v -0.606568 -0.014007 0.396435
v -0.589449 -0.013751 0.400887
v -0.589435 -0.012111 0.401194
v -0.582809 -0.009059 0.384416
v -0.582902 -0.006595 0.384943
v -0.588051 -0.011196 0.398592
v -0.587933 -0.014622 0.397710
v -0.583290 -0.009701 0.382095
v -0.583514 -0.005951 0.382815
v -0.587864 -0.009853 0.380778
v -0.588063 -0.005731 0.381589
v -0.605169 -0.011439 0.396207
v -0.605331 -0.014490 0.395442
v -0.605606 -0.017395 0.411032
v -0.605625 -0.016045 0.411503
v -0.608504 -0.018401 0.413366
v -0.608629 -0.017009 0.413989
v -0.592818 -0.009499 0.379352
v -0.592919 -0.005489 0.380136
v -0.596647 -0.009017 0.378076
v -0.596662 -0.005317 0.378902
v -0.598474 -0.008650 0.377963
v -0.598465 -0.005369 0.378664
v -0.598864 -0.008499 0.379406
v -0.598839 -0.005800 0.379946
v -0.599105 -0.009153 0.381697
v -0.599000 -0.006524 0.382459
v -0.599878 -0.011308 0.384554
v -0.599872 -0.007589 0.386073
v -0.600503 -0.013418 0.387026
v -0.600488 -0.008704 0.388820
v -0.601409 -0.015465 0.389560
v -0.601081 -0.009649 0.391310
v -0.602348 -0.014733 0.392294
v -0.601979 -0.010398 0.393528
v -0.603729 -0.014626 0.394307
v -0.603481 -0.011062 0.395348
v -0.607813 -0.019257 0.415393
v -0.608130 -0.017823 0.416643
v -0.594248 -0.026276 0.445749
v -0.593590 -0.027059 0.445125
v -0.592455 -0.026832 0.445912
v -0.592418 -0.026397 0.446482
v -0.596081 -0.026141 0.444990
v -0.595698 -0.027002 0.443685
v -0.598649 -0.025845 0.443590
v -0.598323 -0.026384 0.443052
v -0.599766 -0.025239 0.441480
v -0.598952 -0.025683 0.441221
v -0.600012 -0.024668 0.439639
v -0.598989 -0.025205 0.439355
v -0.600134 -0.024171 0.438052
v -0.598737 -0.024680 0.437548
v -0.600174 -0.023290 0.435270
v -0.598495 -0.023747 0.434540
v -0.601964 -0.022623 0.432877
v -0.600313 -0.022990 0.431840
v -0.601996 -0.022237 0.431654
v -0.600103 -0.022676 0.430710
v -0.602134 -0.021931 0.430417
v -0.599813 -0.022658 0.429828
v -0.604910 -0.020044 0.423493
v -0.601936 -0.022763 0.421342
v -0.606500 -0.019136 0.420343
v -0.604435 -0.021803 0.416622
v -0.602354 -0.024820 0.391975
v -0.601193 -0.025085 0.392934
v -0.601952 -0.024682 0.394795
v -0.603181 -0.024055 0.393675
v -0.603137 -0.024711 0.395937
v -0.604215 -0.023885 0.395028
v -0.595231 -0.031652 0.413687
v -0.594929 -0.032846 0.410718
v -0.593395 -0.032002 0.411350
v -0.592865 -0.030944 0.413639
v -0.595653 -0.029795 0.416419
v -0.592188 -0.029906 0.415990
v -0.590997 -0.022925 0.412616
v -0.589428 -0.023744 0.413693
v -0.588752 -0.025703 0.413865
v -0.589817 -0.026175 0.412863
v -0.592374 -0.022676 0.411691
v -0.590832 -0.026497 0.411667
v -0.593562 -0.023178 0.410831
v -0.592172 -0.026329 0.410619
v -0.593945 -0.026393 0.409936
v -0.594361 -0.024392 0.410277
v -0.592212 -0.028780 0.409882
v -0.593343 -0.028000 0.409458
v -0.588896 -0.027771 0.412938
v -0.590205 -0.028659 0.411832
v -0.591338 -0.028992 0.410698
v -0.593063 -0.022323 0.427311
v -0.593354 -0.022625 0.425816
v -0.593802 -0.022781 0.423842
v -0.594021 -0.022813 0.421520
v -0.594343 -0.023050 0.419711
v -0.594428 -0.022567 0.417552
v -0.598815 -0.021374 0.414063
v -0.606725 -0.055912 0.399065
v -0.607964 -0.055002 0.399164
v -0.608243 -0.053348 0.399005
v -0.606944 -0.053081 0.399138
v -0.601809 -0.053525 0.399044
v -0.601776 -0.054932 0.399309
v -0.603206 -0.055992 0.399303
v -0.603875 -0.053317 0.399105
v -0.603391 -0.050691 0.398882
v -0.602049 -0.051827 0.398828
v -0.608047 -0.050973 0.399112
v -0.606864 -0.049568 0.399201
v -0.605605 -0.052989 0.399195
v -0.605163 -0.056212 0.399127
v -0.605134 -0.049419 0.399155
v -0.602607 -0.049242 0.398825
v -0.601010 -0.050877 0.398838
v -0.600101 -0.052704 0.399228
v -0.600371 -0.054821 0.399805
v -0.602085 -0.057037 0.399834
v -0.604947 -0.057450 0.399533
v -0.607220 -0.056876 0.399590
v -0.608874 -0.055098 0.399863
v -0.609375 -0.052844 0.399586
v -0.608537 -0.049886 0.399384
v -0.606622 -0.047875 0.399307
v -0.604686 -0.047793 0.399003
v -0.601418 -0.016894 0.399965
v -0.597999 -0.017645 0.400840
v -0.600029 -0.019674 0.402066
v -0.602237 -0.019057 0.400966
v -0.603386 -0.020145 0.402148
v -0.602224 -0.021081 0.403259
v -0.596129 -0.018751 0.401696
v -0.598767 -0.020479 0.403093
v -0.600434 -0.022079 0.404675
v -0.601816 -0.022397 0.405571
v -0.603563 -0.021846 0.403689
v -0.595618 -0.020771 0.403342
v -0.593448 -0.018485 0.403299
v -0.594944 -0.029021 0.408693
v -0.596186 -0.026680 0.409470
v -0.593282 -0.030624 0.408720
v -0.591906 -0.030643 0.409611
v -0.592660 -0.031862 0.410217
v -0.590776 -0.031061 0.412273
v -0.590191 -0.030268 0.410924
v -0.588741 -0.028986 0.415074
v -0.587830 -0.028644 0.412748
v -0.591090 -0.025482 0.417814
v -0.590474 -0.027161 0.417476
v -0.588748 -0.025471 0.416197
v -0.587395 -0.025510 0.414504
v -0.589327 -0.022425 0.414483
v -0.590804 -0.023309 0.415577
v -0.594573 -0.022549 0.414059
v -0.592497 -0.022008 0.412928
v -0.594217 -0.022437 0.411389
v -0.597115 -0.022062 0.411630
v -0.597638 -0.022636 0.404664
v -0.603997 -0.036182 0.399431
v -0.603335 -0.033934 0.399986
v -0.602014 -0.033553 0.400361
v -0.601876 -0.035901 0.400631
v -0.604544 -0.035978 0.399208
v -0.604133 -0.034151 0.399145
v -0.603523 -0.033147 0.399002
v -0.602998 -0.032414 0.399108
v -0.602196 -0.031759 0.399368
v -0.601170 -0.031872 0.399761
v -0.600439 -0.033046 0.399859
v -0.600281 -0.035848 0.400093
v -0.603376 -0.038165 0.399470
v -0.604222 -0.037475 0.399347
v -0.600724 -0.037302 0.400169
v -0.601819 -0.038256 0.399788
v -0.585478 -0.013031 0.388921
v -0.585188 -0.011271 0.388213
v -0.585990 -0.014319 0.390474
v -0.606258 -0.022646 0.402994
v -0.606461 -0.021208 0.401243
v -0.605935 -0.023548 0.399159
v -0.606197 -0.023324 0.400015
v -0.586471 -0.014392 0.392594
v -0.586817 -0.014173 0.394325
v -0.591140 -0.016953 0.402976
v -0.589437 -0.017152 0.400564
v -0.588106 -0.018872 0.397908
v -0.586747 -0.018170 0.394223
v -0.586030 -0.018922 0.391586
v -0.585336 -0.017769 0.389355
v -0.584657 -0.015819 0.387488
v -0.584395 -0.012127 0.386683
v -0.582780 -0.013375 0.384390
v -0.583329 -0.017816 0.385718
v -0.584166 -0.020634 0.387976
v -0.585073 -0.022467 0.390749
v -0.586516 -0.021919 0.394462
v -0.595885 -0.024046 0.433787
v -0.592332 -0.023889 0.433381
v -0.592458 -0.024451 0.436293
v -0.595926 -0.024968 0.436845
v -0.606287 -0.024734 0.398187
v -0.607113 -0.023019 0.400730
v -0.605117 -0.025723 0.397760
v -0.605501 -0.028199 0.396302
v -0.604678 -0.028757 0.396642
v -0.605514 -0.031945 0.396403
v -0.604772 -0.031639 0.396707
v -0.604421 -0.031601 0.397031
v -0.604148 -0.029664 0.396879
v -0.604379 -0.026940 0.397355
v -0.604954 -0.017024 0.398619
v -0.605237 -0.019159 0.400386
v -0.605370 -0.020619 0.402189
v -0.602472 -0.019430 0.411263
v -0.605101 -0.022713 0.404595
v -0.604473 -0.023335 0.406274
v -0.605441 -0.021760 0.403180
v -0.605414 -0.019115 0.410531
v -0.605701 -0.020342 0.409985
v -0.602301 -0.021112 0.410315
v -0.606503 -0.022203 0.409109
v -0.603178 -0.022639 0.408690
v -0.591392 -0.025737 0.443687
v -0.591379 -0.025705 0.443621
v -0.590857 -0.026103 0.444603
v -0.590888 -0.025956 0.444605
v -0.606636 -0.020053 0.399708
v -0.599355 -0.012118 0.379426
v -0.599433 -0.011608 0.381076
v -0.598939 -0.012976 0.377915
v -0.596962 -0.013525 0.378022
v -0.593013 -0.014064 0.379471
v -0.599436 -0.017559 0.379301
v -0.599976 -0.016232 0.380778
v -0.599982 -0.014324 0.382664
v -0.600637 -0.017051 0.384848
v -0.601500 -0.019147 0.386970
v -0.606851 -0.017677 0.396804
v -0.597578 -0.018245 0.379154
v -0.593468 -0.018632 0.380682
v -0.600914 -0.019126 0.383101
v -0.600811 -0.020612 0.381752
v -0.599152 -0.021933 0.381321
v -0.594267 -0.022972 0.383539
v -0.604341 -0.023941 0.392459
v -0.603553 -0.024862 0.390988
v -0.605051 -0.023534 0.393905
v -0.605308 -0.024117 0.396026
v -0.605599 -0.023532 0.395005
v -0.604542 -0.025026 0.396676
v -0.602268 -0.025384 0.396534
v -0.603499 -0.025589 0.396899
v -0.600326 -0.025470 0.394006
v -0.601017 -0.025355 0.395593
v -0.600653 -0.026024 0.391136
v -0.600071 -0.025836 0.392524
v -0.601516 -0.026098 0.390268
v -0.602525 -0.025829 0.389974
v -0.601741 -0.020695 0.385322
v -0.602296 -0.021513 0.386511
v -0.602520 -0.021335 0.387836
v -0.602719 -0.020550 0.389538
v -0.603209 -0.019218 0.391641
v -0.604358 -0.018311 0.393603
v -0.606338 -0.018920 0.395823
v -0.590839 -0.026085 0.445770
v -0.591324 -0.026597 0.445163
v -0.606686 -0.021498 0.398907
v -0.605048 -0.020919 0.393344
v -0.606282 -0.021307 0.395856
v -0.606354 -0.022910 0.395133
v -0.605749 -0.022871 0.393325
v -0.605028 -0.023352 0.391532
v -0.604136 -0.021446 0.391425
v -0.603660 -0.022716 0.389487
v -0.604239 -0.024424 0.389945
v -0.601768 -0.022275 0.384229
v -0.602378 -0.022985 0.386064
v -0.603122 -0.023442 0.387964
v -0.600452 -0.024043 0.383983
v -0.601468 -0.024920 0.386227
v -0.602769 -0.025518 0.388640
v -0.601034 -0.026189 0.388971
v -0.599298 -0.025781 0.387461
v -0.597516 -0.025214 0.385832
v -0.587861 -0.014735 0.380853
v -0.583108 -0.014888 0.382092
v -0.588120 -0.019022 0.381925
v -0.583622 -0.019305 0.383443
v -0.584298 -0.022380 0.385876
v -0.588411 -0.022339 0.384095
v -0.591971 -0.023695 0.404479
v -0.590654 -0.022501 0.404006
v -0.600406 -0.038245 0.400282
v -0.601691 -0.039803 0.399993
v -0.600493 -0.039593 0.400956
v -0.602314 -0.040027 0.400696
v -0.589524 -0.023907 0.401671
v -0.599567 -0.035679 0.400393
v -0.599322 -0.035980 0.400613
v -0.588278 -0.024493 0.397951
v -0.600087 -0.032848 0.400229
v -0.599871 -0.032190 0.400231
v -0.586659 -0.025079 0.393550
v -0.601113 -0.031327 0.399982
v -0.600736 -0.029407 0.399728
v -0.602225 -0.030879 0.399211
v -0.603025 -0.031580 0.398763
v -0.589321 -0.025823 0.391858
v -0.590497 -0.025555 0.396905
v -0.602458 -0.028749 0.398598
v -0.603162 -0.029146 0.397774
v -0.585203 -0.024309 0.388914
v -0.588647 -0.024535 0.387168
v -0.591503 -0.025049 0.400906
v -0.595176 -0.025463 0.401371
v -0.597255 -0.025556 0.399298
v -0.594512 -0.025813 0.398166
v -0.603018 -0.039893 0.399793
v -0.594430 -0.024529 0.404375
v -0.603943 -0.039647 0.401215
v -0.604567 -0.038579 0.399714
v -0.604941 -0.036423 0.399460
v -0.603672 -0.032825 0.398822
v -0.604666 -0.034156 0.399171
v -0.605946 -0.023815 0.396723
v -0.605102 -0.038975 0.402307
v -0.592500 -0.025028 0.387531
v -0.603443 -0.031459 0.398375
v -0.591490 -0.025744 0.391955
v -0.605848 -0.036889 0.401590
v -0.605046 -0.034064 0.400161
v -0.595533 -0.025585 0.389122
v -0.593397 -0.025758 0.394751
v -0.599529 -0.026242 0.390398
v -0.597625 -0.025665 0.389899
v -0.599012 -0.025942 0.392674
v -0.596715 -0.025520 0.393326
v -0.597498 -0.025548 0.395999
v -0.599392 -0.025875 0.394592
v -0.598919 -0.025692 0.397766
v -0.600074 -0.025762 0.396308
v -0.601643 -0.025900 0.397480
v -0.604931 -0.025571 0.397263
v -0.603338 -0.026545 0.397660
v -0.605819 -0.022876 0.398127
v -0.604226 -0.026757 0.397512
v -0.604077 -0.031819 0.397747
v -0.603668 -0.029584 0.397257
v -0.607108 -0.023927 0.407466
v -0.606720 -0.023656 0.405460
v -0.607513 -0.023358 0.403406
v -0.591930 -0.026805 0.444067
v -0.592834 -0.026710 0.442604
v -0.604871 -0.033401 0.398066
v -0.605838 -0.034181 0.398136
v -0.606771 -0.034518 0.397959
v -0.604284 -0.026283 0.398003
v -0.605572 -0.034676 0.399607
v -0.602756 -0.027427 0.398287
v -0.600729 -0.026622 0.398670
v -0.598669 -0.026454 0.399921
v -0.597130 -0.026185 0.401544
v -0.596850 -0.025238 0.404048
v -0.599142 -0.022681 0.410470
v -0.595610 -0.023422 0.410332
v -0.599787 -0.023129 0.408394
v -0.595912 -0.024589 0.409845
v -0.599231 -0.024189 0.406506
v -0.599266 -0.029075 0.400595
v -0.598150 -0.028783 0.401892
v -0.598033 -0.027735 0.405387
v -0.598197 -0.027161 0.408480
v -0.596903 -0.030163 0.407580
v -0.597338 -0.031675 0.404676
v -0.598263 -0.031788 0.402254
v -0.595276 -0.032268 0.408138
v -0.596882 -0.035421 0.404115
v -0.597845 -0.034500 0.402538
v -0.598819 -0.039126 0.402508
v -0.598494 -0.035872 0.401561
v -0.599014 -0.032283 0.400954
v -0.599431 -0.043578 0.402266
v -0.600986 -0.043903 0.400942
v -0.596323 -0.026586 0.441444
v -0.593148 -0.026285 0.440809
v -0.592587 -0.025191 0.438814
v -0.596002 -0.025786 0.439317
v -0.604616 -0.043615 0.401059
v -0.602959 -0.043846 0.400599
v -0.605964 -0.045978 0.400208
v -0.603821 -0.045864 0.399932
v -0.606454 -0.047074 0.399521
v -0.604355 -0.046943 0.399223
v -0.601559 -0.046382 0.400220
v -0.602022 -0.048124 0.398887
v -0.599722 -0.046869 0.401249
v -0.600109 -0.049306 0.399445
v -0.605870 -0.043093 0.402099
v -0.596046 -0.034529 0.407572
v -0.596741 -0.036717 0.405757
v -0.598027 -0.040058 0.404344
v -0.598926 -0.044521 0.403823
v -0.607526 -0.046710 0.401574
v -0.608487 -0.048611 0.400056
v -0.609791 -0.051698 0.400798
v -0.608624 -0.047546 0.402983
v -0.609340 -0.054488 0.401306
v -0.608501 -0.049952 0.404149
v -0.607473 -0.056926 0.401136
v -0.607249 -0.052393 0.405230
v -0.604845 -0.057679 0.401106
v -0.604558 -0.053414 0.406154
v -0.601517 -0.056944 0.401542
v -0.601539 -0.053071 0.405875
v -0.599651 -0.053421 0.401696
v -0.598948 -0.051087 0.400599
v -0.599732 -0.049786 0.404407
v -0.599140 -0.048066 0.402571
v -0.608539 -0.022724 0.409610
v -0.608491 -0.021222 0.411126
v -0.607411 -0.023470 0.411065
v -0.607392 -0.025319 0.408459
v -0.607069 -0.026742 0.409819
v -0.608613 -0.028601 0.406877
v -0.606715 -0.031803 0.407461
v -0.608346 -0.034100 0.405097
v -0.596211 -0.033953 0.409588
v -0.599435 -0.044106 0.405465
v -0.598305 -0.039438 0.405875
v -0.597318 -0.035679 0.407724
v -0.600762 -0.043195 0.407462
v -0.603272 -0.042876 0.407004
v -0.605980 -0.042424 0.406079
v -0.602913 -0.036857 0.408130
v -0.606050 -0.036813 0.405895
v -0.607119 -0.042299 0.404407
v -0.606998 -0.042493 0.403300
v -0.607171 -0.038451 0.403483
v -0.607634 -0.036859 0.403133
v -0.607626 -0.037749 0.404566
v -0.608528 -0.019928 0.412225
v -0.608511 -0.024507 0.406969
v -0.608178 -0.024459 0.405055
v -0.607584 -0.036025 0.402112
v -0.607301 -0.035644 0.400529
v -0.607858 -0.035680 0.399816
v -0.609768 -0.034723 0.400683
v -0.610386 -0.034504 0.401840
v -0.610445 -0.031703 0.402549
v -0.609635 -0.032189 0.401265
v -0.609193 -0.035857 0.400589
v -0.608265 -0.035022 0.398380
v -0.609013 -0.034514 0.398947
v -0.608695 -0.032789 0.399337
v -0.603384 -0.030974 0.410626
v -0.610540 -0.033835 0.402748
v -0.610731 -0.031312 0.403490
v -0.610544 -0.028671 0.404135
v -0.610273 -0.027870 0.403793
v -0.609511 -0.027761 0.402420
v -0.607623 -0.031669 0.397871
v -0.608166 -0.033527 0.397757
v -0.608484 -0.028187 0.400272
v -0.607461 -0.028736 0.398647
v -0.607245 -0.032751 0.396742
v -0.606984 -0.028647 0.396683
v -0.607530 -0.025370 0.398372
v -0.608448 -0.024014 0.400875
v -0.609155 -0.024354 0.403329
v -0.609824 -0.025793 0.404757
v -0.609540 -0.035827 0.401962
v -0.609504 -0.034325 0.403428
v -0.600012 -0.038113 0.408199
v -0.610047 -0.029835 0.405017
v -0.609716 -0.027086 0.405562
v -0.607592 -0.021499 0.413186
v -0.604911 -0.025305 0.413276
v -0.601218 -0.025932 0.417598
v -0.598741 -0.026168 0.419365
v -0.601402 -0.028209 0.415171
v -0.594846 -0.026886 0.419365
v -0.596251 -0.025631 0.421037
v -0.596224 -0.024921 0.422747
v -0.599206 -0.033159 0.410945
v -0.598930 -0.028015 0.417539
v -0.596692 -0.028309 0.418076
v -0.598453 -0.029725 0.415952
v -0.593335 -0.028288 0.417901
v -0.596846 -0.032676 0.412713
v -0.592896 -0.025827 0.419778
v -0.595942 -0.024183 0.424501
v -0.595719 -0.023596 0.426465
v -0.595910 -0.023389 0.428397
v -0.596655 -0.023314 0.430502
v -0.593137 -0.023513 0.427887
v -0.592965 -0.023609 0.430400
v -0.593568 -0.024169 0.425489
v -0.593347 -0.025586 0.421222
v -0.593619 -0.024841 0.423618
v -0.586060 -0.006824 0.391217
v -0.585390 -0.006505 0.389385
v -0.586588 -0.007338 0.393028
v -0.584525 -0.005711 0.387787
v -0.586926 -0.007938 0.394891
v -0.587338 -0.008438 0.396959
v -0.599258 -0.019253 0.428933
v -0.599459 -0.018390 0.427379
v -0.599720 -0.020081 0.429762
v -0.600398 -0.017443 0.425631
v -0.593042 -0.020315 0.428935
v -0.593266 -0.020059 0.429885
v -0.593210 -0.020596 0.431266
v -0.592298 -0.021995 0.434092
v -0.591860 -0.022924 0.436692
v -0.591756 -0.023698 0.439056
v -0.592253 -0.024014 0.440983
v -0.592230 -0.024637 0.442634
v -0.593451 -0.019411 0.427493
v -0.594725 -0.018222 0.425807
v -0.595713 -0.017138 0.424038
v -0.597140 -0.016014 0.421482
v -0.599241 -0.014364 0.418352
v -0.601568 -0.014500 0.416290
v -0.602797 -0.014485 0.412665
v -0.597977 -0.010517 0.402921
v -0.601704 -0.010544 0.401405
v -0.594719 -0.009895 0.403755
v -0.591650 -0.011444 0.404039
v -0.605182 -0.010100 0.399543
v -0.606853 -0.009170 0.397968
v -0.589659 -0.010143 0.402036
v -0.583110 -0.003824 0.386080
v -0.588349 -0.007428 0.399995
v -0.583733 -0.002006 0.384537
v -0.588341 -0.001624 0.383391
v -0.605703 -0.008071 0.397482
v -0.605767 -0.014556 0.411940
v -0.608675 -0.015428 0.414301
v -0.593269 -0.001629 0.381853
v -0.597054 -0.001697 0.380405
v -0.598827 -0.002126 0.380038
v -0.599155 -0.003123 0.381117
v -0.599396 -0.003878 0.383374
v -0.600313 -0.003752 0.386952
v -0.601068 -0.003625 0.390139
v -0.602100 -0.003493 0.393364
v -0.602867 -0.005751 0.395148
v -0.604161 -0.007137 0.396685
v -0.608014 -0.015961 0.416435
v -0.592534 -0.025828 0.446254
v -0.593700 -0.025200 0.445699
v -0.595840 -0.024664 0.444441
v -0.598400 -0.025168 0.443431
v -0.599013 -0.024680 0.441537
v -0.599055 -0.024004 0.439735
v -0.598811 -0.023359 0.437968
v -0.598568 -0.022355 0.434982
v -0.600384 -0.021603 0.432288
v -0.600200 -0.021197 0.431145
v -0.599947 -0.020681 0.430407
v -0.602340 -0.015891 0.423534
v -0.604890 -0.014172 0.419041
v -0.603944 0.002649 0.400701
v -0.604628 0.000967 0.401625
v -0.603438 0.000961 0.402941
v -0.602787 0.002434 0.401676
v -0.605594 -0.000051 0.402596
v -0.604580 0.000212 0.403850
v -0.596861 -0.003571 0.422620
v -0.594426 -0.003854 0.422252
v -0.595145 -0.001740 0.420963
v -0.596785 -0.000871 0.420888
v -0.596993 -0.006674 0.423770
v -0.593577 -0.005971 0.423597
v -0.591764 -0.009560 0.416861
v -0.590913 -0.006964 0.418979
v -0.589782 -0.007807 0.419559
v -0.590256 -0.009363 0.418271
v -0.593147 -0.009373 0.415911
v -0.591978 -0.006101 0.418158
v -0.594415 -0.008600 0.415456
v -0.593331 -0.005772 0.417153
v -0.595139 -0.005520 0.416571
v -0.595353 -0.007383 0.415677
v -0.593626 -0.003378 0.417968
v -0.594689 -0.003876 0.417135
v -0.591548 -0.004409 0.419580
v -0.590133 -0.005622 0.420011
v -0.592750 -0.003595 0.418796
v -0.593646 -0.017649 0.427397
v -0.593282 -0.018714 0.428455
v -0.594164 -0.016433 0.425861
v -0.594461 -0.015091 0.423975
v -0.594862 -0.013889 0.422622
v -0.594962 -0.013051 0.420576
v -0.599316 -0.012468 0.416895
v -0.611346 0.023272 0.424233
v -0.611254 0.020880 0.422662
v -0.612582 0.021031 0.422651
v -0.612481 0.022321 0.423743
v -0.606150 0.021972 0.423057
v -0.608186 0.021549 0.422904
v -0.607803 0.023662 0.424629
v -0.606263 0.022961 0.424077
v -0.607434 0.019579 0.421228
v -0.606214 0.020688 0.421898
v -0.612119 0.019065 0.421367
v -0.610782 0.018034 0.420671
v -0.609892 0.020987 0.422714
v -0.609805 0.023691 0.424525
v -0.609038 0.018162 0.420627
v -0.605081 0.020005 0.421390
v -0.606504 0.018500 0.420368
v -0.604362 0.021366 0.422786
v -0.604842 0.022723 0.424458
v -0.606787 0.024314 0.425695
v -0.609705 0.024494 0.425573
v -0.611910 0.023728 0.425202
v -0.613357 0.021927 0.424344
v -0.613617 0.020193 0.422799
v -0.612465 0.018006 0.420952
v -0.610351 0.016647 0.419808
v -0.608425 0.016977 0.419589
v -0.598570 -0.007806 0.403966
v -0.601916 -0.008282 0.402701
v -0.600757 -0.007084 0.406064
v -0.602926 -0.007184 0.404740
v -0.603046 -0.006862 0.407776
v -0.604141 -0.007103 0.406293
v -0.596798 -0.007208 0.405370
v -0.599553 -0.006890 0.407410
v -0.601326 -0.006676 0.409569
v -0.602702 -0.007086 0.410429
v -0.604446 -0.006622 0.408526
v -0.594057 -0.008069 0.406622
v -0.596446 -0.006473 0.407904
v -0.596456 -0.002779 0.417037
v -0.597423 -0.005257 0.416276
v -0.594974 -0.001321 0.418045
v -0.593567 -0.001668 0.418810
v -0.592407 -0.002750 0.421283
v -0.594434 -0.001110 0.419983
v -0.591776 -0.002554 0.419743
v -0.590085 -0.005815 0.422437
v -0.589192 -0.004666 0.420379
v -0.591953 -0.010491 0.422572
v -0.589691 -0.009326 0.421335
v -0.591543 -0.008856 0.423292
v -0.588400 -0.008179 0.420017
v -0.589985 -0.010881 0.418160
v -0.591505 -0.010949 0.419511
v -0.595224 -0.011079 0.417705
v -0.593145 -0.010646 0.416539
v -0.594955 -0.009594 0.415476
v -0.597783 -0.010341 0.415358
v -0.598606 -0.005930 0.409980
v -0.606525 0.007387 0.413266
v -0.604343 0.006685 0.414162
v -0.604241 0.004943 0.412591
v -0.605611 0.005338 0.412472
v -0.606458 0.005913 0.411882
v -0.607053 0.007292 0.412956
v -0.605152 0.004678 0.410931
v -0.605749 0.005267 0.411240
v -0.604259 0.004082 0.410773
v -0.602639 0.004976 0.411941
v -0.603232 0.004051 0.411179
v -0.602764 0.007110 0.413737
v -0.606103 0.009035 0.414466
v -0.606892 0.008453 0.413940
v -0.604533 0.009092 0.414836
v -0.603325 0.008195 0.414627
v -0.586044 -0.003360 0.392003
v -0.585598 -0.004338 0.390428
v -0.586631 -0.003272 0.393985
v -0.607240 -0.005870 0.408319
v -0.607352 -0.003626 0.406272
v -0.607142 -0.002911 0.405702
v -0.607336 -0.006045 0.406058
v -0.587044 -0.004492 0.395740
v -0.587307 -0.005696 0.397019
v -0.591608 -0.008873 0.405541
v -0.590016 -0.007148 0.403745
v -0.588959 -0.004091 0.402604
v -0.587659 -0.002402 0.399230
v -0.587118 -0.000198 0.397533
v -0.586388 0.000232 0.395077
v -0.585572 -0.000192 0.392466
v -0.584948 -0.002683 0.389698
v -0.583548 -0.000182 0.388592
v -0.584516 0.002582 0.392206
v -0.585567 0.003472 0.395639
v -0.586568 0.003260 0.398927
v -0.587816 0.000523 0.401592
v -0.596030 -0.021364 0.434640
v -0.596069 -0.022380 0.437667
v -0.592597 -0.022114 0.437038
v -0.592507 -0.020880 0.434341
v -0.607643 -0.001482 0.405590
v -0.606612 -0.000322 0.405882
v -0.608206 -0.004395 0.406655
v -0.607236 0.002549 0.406091
v -0.606481 0.002877 0.406708
v -0.607668 0.005540 0.408314
v -0.606892 0.005186 0.408399
v -0.606528 0.004995 0.408644
v -0.606038 0.003519 0.407430
v -0.605983 0.001010 0.406240
v -0.605490 -0.007772 0.401558
v -0.605937 -0.007083 0.404224
v -0.606163 -0.006947 0.406533
v -0.602848 -0.012822 0.413365
v -0.606030 -0.006597 0.409714
v -0.605415 -0.006998 0.411456
v -0.606324 -0.006596 0.407996
v -0.605964 -0.013134 0.412431
v -0.606194 -0.011697 0.412733
v -0.602891 -0.010898 0.413566
v -0.607221 -0.009739 0.413068
v -0.603975 -0.008825 0.413076
v -0.591423 -0.025261 0.443837
v -0.590915 -0.025643 0.444707
v -0.607437 -0.006114 0.404135
v -0.600037 -0.000127 0.383238
v -0.600009 -0.001501 0.384290
v -0.599761 0.001489 0.382514
v -0.597857 0.002078 0.382981
v -0.593948 0.002101 0.384609
v -0.600705 0.004359 0.386264
v -0.601052 0.002376 0.386689
v -0.600794 -0.000256 0.387133
v -0.601660 0.000631 0.390464
v -0.602667 0.001020 0.393377
v -0.607501 -0.006388 0.400392
v -0.598934 0.005199 0.386602
v -0.594841 0.005072 0.388213
v -0.602212 0.003293 0.390223
v -0.602310 0.005283 0.389978
v -0.600814 0.006778 0.390441
v -0.595995 0.006860 0.393017
v -0.605808 0.001453 0.400528
v -0.605171 0.003125 0.399880
v -0.606424 0.000221 0.401451
v -0.606679 -0.000537 0.403496
v -0.606938 -0.000464 0.402325
v -0.605992 -0.000086 0.404562
v -0.603767 0.000504 0.404755
v -0.605000 0.000348 0.405107
v -0.602552 0.001146 0.404013
v -0.601929 0.002221 0.402804
v -0.602408 0.004286 0.400766
v -0.601762 0.003397 0.401813
v -0.603302 0.004754 0.400069
v -0.604286 0.004600 0.399641
v -0.603124 0.003199 0.392913
v -0.603881 0.002179 0.395307
v -0.603722 0.003113 0.394335
v -0.603940 0.000549 0.396242
v -0.604219 -0.001786 0.397180
v -0.605201 -0.003765 0.398224
v -0.607153 -0.004760 0.400322
v -0.591393 -0.025393 0.445561
v -0.607661 -0.004488 0.404304
v -0.606169 -0.001579 0.399487
v -0.607348 -0.002837 0.401720
v -0.607070 -0.000057 0.400571
v -0.607617 -0.001123 0.402047
v -0.606461 0.001435 0.399408
v -0.605380 0.000043 0.398252
v -0.605103 0.002233 0.397414
v -0.605842 0.003297 0.398753
v -0.603353 0.005106 0.392927
v -0.603972 0.004557 0.394814
v -0.604696 0.003753 0.396604
v -0.602239 0.006818 0.393787
v -0.603266 0.006130 0.396092
v -0.604541 0.005089 0.398365
v -0.602876 0.005626 0.399078
v -0.601158 0.006349 0.397668
v -0.599382 0.007012 0.396070
v -0.588856 0.002407 0.386303
v -0.584107 0.002325 0.387567
v -0.589526 0.005240 0.389632
v -0.585034 0.005067 0.391186
v -0.585945 0.006084 0.394917
v -0.590090 0.006646 0.393302
v -0.591670 -0.004926 0.409567
v -0.593090 -0.004381 0.410628
v -0.603116 0.008937 0.415272
v -0.604581 0.010231 0.415887
v -0.603338 0.009639 0.416594
v -0.605200 0.009946 0.416572
v -0.590772 -0.002330 0.408524
v -0.602035 0.006881 0.413914
v -0.601817 0.007036 0.414279
v -0.589718 0.000415 0.405870
v -0.602265 0.004648 0.412141
v -0.601983 0.004142 0.411772
v -0.588320 0.003601 0.402661
v -0.603130 0.003486 0.411046
v -0.602559 0.002090 0.409734
v -0.604211 0.003460 0.410150
v -0.605100 0.004203 0.410178
v -0.591102 0.004905 0.401618
v -0.592074 0.001650 0.405551
v -0.604241 0.002036 0.408379
v -0.605009 0.002759 0.407923
v -0.586946 0.005800 0.398480
v -0.590450 0.006629 0.397068
v -0.592884 -0.001176 0.408501
v -0.596047 0.000712 0.406596
v -0.598709 -0.000432 0.407282
v -0.596562 -0.001491 0.408991
v -0.605930 0.010272 0.415729
v -0.595626 -0.003909 0.410971
v -0.606772 0.009166 0.416721
v -0.607338 0.009096 0.414860
v -0.607493 0.007469 0.413408
v -0.605864 0.005098 0.410915
v -0.606986 0.005833 0.411886
v -0.607244 -0.001248 0.403863
v -0.607840 0.007876 0.417188
v -0.594322 0.006414 0.397520
v -0.605503 0.004246 0.409774
v -0.593247 0.004557 0.401577
v -0.608364 0.006529 0.415386
v -0.607308 0.005114 0.412642
v -0.597341 0.005630 0.399040
v -0.595050 0.002754 0.403811
v -0.601337 0.005007 0.400326
v -0.599402 0.005027 0.399650
v -0.600716 0.003509 0.402032
v -0.598368 0.003034 0.402398
v -0.599060 0.001437 0.404572
v -0.601024 0.002312 0.403547
v -0.600429 0.000389 0.406052
v -0.601633 0.001164 0.404863
v -0.603168 0.000444 0.405843
v -0.606419 -0.000012 0.405314
v -0.604915 0.000705 0.406269
v -0.606955 -0.002822 0.404476
v -0.605843 0.000839 0.406274
v -0.606180 0.004807 0.409402
v -0.605538 0.003325 0.407741
v -0.608049 -0.007458 0.412685
v -0.607711 -0.006494 0.410904
v -0.608549 -0.005671 0.409021
v -0.592999 -0.023952 0.443485
v -0.592061 -0.024632 0.444758
v -0.607158 0.005839 0.410536
v -0.608198 0.006334 0.411019
v -0.609151 0.006612 0.411038
v -0.605825 0.000199 0.406349
v -0.607942 0.005900 0.412534
v -0.604411 0.001111 0.407327
v -0.602296 0.000439 0.407265
v -0.600188 -0.000209 0.408259
v -0.598575 -0.001208 0.409478
v -0.598117 -0.003392 0.411012
v -0.599906 -0.009385 0.414694
v -0.596481 -0.008333 0.415123
v -0.600669 -0.007893 0.413234
v -0.596922 -0.007139 0.415383
v -0.600289 -0.005898 0.412319
v -0.601034 0.001463 0.410297
v -0.599850 0.000587 0.411222
v -0.599509 -0.002263 0.413496
v -0.599508 -0.004514 0.415683
v -0.598564 -0.001425 0.416723
v -0.599256 0.001409 0.415202
v -0.600271 0.002796 0.413253
v -0.597150 0.000129 0.418442
v -0.599214 0.004827 0.416913
v -0.600134 0.004878 0.415065
v -0.600958 0.006491 0.415032
v -0.601576 0.008558 0.417657
v -0.601114 0.003880 0.412451
v -0.604269 0.013086 0.419049
v -0.602652 0.012241 0.419998
v -0.596479 -0.023749 0.442345
v -0.593332 -0.023301 0.441761
v -0.592723 -0.022980 0.439520
v -0.596151 -0.023146 0.440155
v -0.607839 0.012377 0.418859
v -0.606233 0.013020 0.418669
v -0.609443 0.014646 0.419522
v -0.607317 0.014949 0.419292
v -0.607994 0.016188 0.419296
v -0.610082 0.015898 0.419533
v -0.605115 0.015449 0.419907
v -0.605801 0.017600 0.419788
v -0.603307 0.015475 0.421070
v -0.604002 0.018453 0.421004
v -0.608996 0.011225 0.419368
v -0.599154 0.004943 0.419007
v -0.598176 0.002192 0.419255
v -0.600825 0.008345 0.419720
v -0.602201 0.012177 0.421834
v -0.611022 0.014297 0.420979
v -0.612237 0.016601 0.420791
v -0.613838 0.018521 0.423128
v -0.612161 0.014065 0.422566
v -0.613685 0.020553 0.425163
v -0.612258 0.015385 0.424907
v -0.612104 0.022849 0.426489
v -0.611251 0.016899 0.427231
v -0.609570 0.023786 0.426992
v -0.608658 0.017501 0.428669
v -0.606156 0.023311 0.427050
v -0.605620 0.017748 0.428377
v -0.603918 0.020574 0.425215
v -0.603000 0.019381 0.423004
v -0.603516 0.016062 0.425331
v -0.602812 0.015766 0.422859
v -0.609268 -0.009799 0.413704
v -0.609017 -0.011905 0.414088
v -0.608162 -0.009922 0.415358
v -0.608440 -0.006899 0.414275
v -0.608241 -0.006519 0.416224
v -0.610066 -0.003484 0.414838
v -0.608505 -0.001037 0.417226
v -0.610427 0.002005 0.416553
v -0.598209 0.000550 0.420578
v -0.602586 0.010854 0.422920
v -0.600989 0.006923 0.420605
v -0.599554 0.002907 0.420010
v -0.603742 0.008836 0.423981
v -0.606241 0.008577 0.423345
v -0.608906 0.008463 0.422265
v -0.608393 0.003973 0.418860
v -0.605228 0.003053 0.420809
v -0.610079 0.009202 0.420776
v -0.610019 0.009971 0.419977
v -0.609757 0.006574 0.417785
v -0.610063 0.005440 0.416573
v -0.610086 0.005337 0.418252
v -0.608900 -0.013606 0.414236
v -0.609512 -0.006821 0.412566
v -0.609262 -0.005759 0.410986
v -0.609975 0.005348 0.415282
v -0.609725 0.005967 0.413803
v -0.610294 0.006365 0.413207
v -0.612066 0.004929 0.413275
v -0.611645 0.002566 0.412280
v -0.612354 0.001352 0.413036
v -0.612621 0.004031 0.414081
v -0.610665 0.006625 0.411615
v -0.611609 0.005941 0.413880
v -0.611341 0.005826 0.411752
v -0.610797 0.004287 0.411073
v -0.605002 -0.003204 0.419449
v -0.612575 0.000521 0.413588
v -0.612680 0.002979 0.414424
v -0.611743 -0.002465 0.411851
v -0.612093 -0.002011 0.412587
v -0.611016 -0.001713 0.410682
v -0.609592 0.004302 0.409251
v -0.610409 0.005789 0.410227
v -0.610057 -0.000032 0.409192
v -0.609062 0.001437 0.408197
v -0.609454 0.005825 0.408995
v -0.608720 0.002544 0.406592
v -0.608902 -0.001183 0.406052
v -0.609620 -0.003819 0.407291
v -0.610289 -0.004991 0.409473
v -0.611061 -0.004673 0.411455
v -0.611907 0.005089 0.414973
v -0.611664 0.003040 0.415290
v -0.602486 0.004316 0.421684
v -0.611689 -0.001560 0.413990
v -0.611060 -0.004054 0.412857
v -0.608099 -0.012777 0.415953
v -0.605832 -0.009477 0.418295
v -0.602081 -0.011072 0.422323
v -0.599585 -0.011635 0.423983
v -0.602587 -0.007851 0.421650
v -0.596992 -0.012768 0.425120
v -0.595788 -0.010641 0.424524
v -0.596834 -0.014319 0.426106
v -0.601071 -0.001192 0.421121
v -0.600028 -0.009105 0.423553
v -0.597817 -0.008939 0.424231
v -0.599787 -0.006758 0.423263
v -0.594489 -0.008500 0.424187
v -0.598609 -0.002345 0.422373
v -0.593711 -0.011534 0.424313
v -0.596412 -0.015894 0.427128
v -0.596076 -0.017486 0.428401
v -0.596182 -0.018785 0.429853
v -0.596839 -0.020124 0.431506
v -0.593208 -0.019444 0.431726
v -0.593463 -0.018099 0.429605
v -0.594035 -0.016238 0.428008
v -0.594208 -0.014621 0.426864
v -0.594089 -0.012608 0.425341
f 1 2 3
f 1 3 4
f 5 6 1
f 5 1 4
f 2 7 8
f 2 8 3
f 9 10 6
f 9 6 5
f 11 12 10
f 11 10 9
f 13 14 15
f 13 15 16
f 13 16 17
f 13 17 18
f 14 19 20
f 14 20 15
f 21 22 23
f 21 23 24
f 25 26 22
f 25 22 21
f 27 28 26
f 27 26 25
f 29 30 28
f 29 28 27
f 31 32 33
f 31 33 34
f 34 33 30
f 34 30 29
f 35 36 32
f 35 32 31
f 24 23 37
f 24 37 38
f 38 37 39
f 38 39 40
f 40 39 41
f 40 41 42
f 42 41 43
f 42 43 44
f 44 43 45
f 44 45 46
f 46 45 47
f 46 47 48
f 48 47 49
f 48 49 50
f 51 52 53
f 51 53 54
f 51 54 55
f 51 55 56
f 55 57 58
f 55 58 56
f 52 59 60
f 52 60 53
f 59 61 62
f 59 62 60
f 58 57 63
f 58 63 64
f 7 65 66
f 7 66 8
f 67 68 12
f 67 12 11
f 64 63 68
f 64 68 67
f 65 69 70
f 65 70 66
f 69 71 72
f 69 72 70
f 73 74 62
f 73 62 61
f 50 49 75
f 50 75 76
f 76 75 77
f 76 77 78
f 71 79 80
f 71 80 72
f 79 81 82
f 79 82 80
f 81 83 84
f 81 84 82
f 84 83 85
f 84 85 86
f 86 85 87
f 86 87 88
f 88 87 89
f 88 89 90
f 90 89 91
f 90 91 92
f 92 91 93
f 92 93 94
f 94 93 95
f 94 95 96
f 96 95 97
f 96 97 98
f 98 97 74
f 98 74 73
f 78 77 99
f 78 99 100
f 101 102 103
f 101 103 104
f 105 106 102
f 105 102 101
f 107 108 106
f 107 106 105
f 109 110 108
f 109 108 107
f 111 112 110
f 111 110 109
f 113 114 112
f 113 112 111
f 115 116 114
f 115 114 113
f 117 118 116
f 117 116 115
f 119 120 118
f 119 118 117
f 121 18 17
f 121 17 122
f 119 121 122
f 119 122 120
f 19 123 124
f 19 124 20
f 123 125 126
f 123 126 124
f 100 99 126
f 100 126 125
f 127 128 129
f 127 129 130
f 130 129 131
f 130 131 132
f 133 134 135
f 133 135 136
f 137 133 136
f 137 136 138
f 139 140 141
f 139 141 142
f 143 139 142
f 143 142 144
f 145 143 144
f 145 144 146
f 147 148 145
f 147 145 146
f 149 150 147
f 149 147 146
f 142 141 151
f 142 151 152
f 153 149 146
f 153 146 144
f 144 142 152
f 144 152 153
f 37 23 154
f 37 154 155
f 156 39 37
f 156 37 155
f 157 41 39
f 157 39 156
f 43 41 157
f 43 157 158
f 45 43 158
f 45 158 159
f 160 47 45
f 160 45 159
f 161 162 163
f 161 163 164
f 165 166 167
f 165 167 168
f 169 170 165
f 169 165 168
f 171 172 164
f 171 164 163
f 173 174 161
f 173 161 164
f 168 167 174
f 168 174 173
f 173 175 169
f 173 169 168
f 164 172 175
f 164 175 173
f 170 169 176
f 170 176 177
f 165 170 177
f 165 177 178
f 166 165 178
f 166 178 179
f 167 166 179
f 167 179 180
f 174 167 180
f 174 180 181
f 161 174 181
f 161 181 182
f 162 161 182
f 162 182 183
f 163 162 183
f 163 183 184
f 171 163 184
f 171 184 185
f 172 171 185
f 172 185 186
f 187 176 169
f 187 169 175
f 175 172 186
f 175 186 187
f 54 53 188
f 54 188 189
f 190 189 188
f 190 188 191
f 191 192 193
f 191 193 190
f 194 55 54
f 194 54 189
f 195 194 189
f 195 189 190
f 196 195 190
f 196 190 193
f 197 196 193
f 197 193 198
f 55 194 199
f 55 199 200
f 201 202 147
f 201 147 150
f 203 201 150
f 203 150 149
f 204 203 149
f 204 149 153
f 136 135 205
f 136 205 206
f 207 204 153
f 207 153 152
f 207 206 205
f 207 205 204
f 138 136 206
f 138 206 208
f 209 207 152
f 209 152 151
f 209 208 206
f 209 206 207
f 210 211 208
f 210 208 212
f 213 209 151
f 213 151 141
f 213 212 208
f 213 208 209
f 214 213 141
f 214 141 140
f 159 210 212
f 159 212 215
f 212 213 214
f 212 214 215
f 160 159 215
f 160 215 216
f 217 214 140
f 217 140 139
f 217 216 215
f 217 215 214
f 218 217 139
f 218 139 143
f 216 217 218
f 216 218 219
f 220 199 194
f 220 194 195
f 221 222 223
f 221 223 224
f 222 221 225
f 222 225 226
f 222 226 227
f 222 227 228
f 223 222 228
f 223 228 229
f 223 229 230
f 223 230 231
f 224 223 231
f 224 231 232
f 233 234 225
f 233 225 221
f 224 232 235
f 224 235 236
f 236 233 221
f 236 221 224
f 237 238 2
f 237 2 1
f 239 237 1
f 239 1 6
f 240 241 242
f 240 242 243
f 244 239 6
f 244 6 10
f 12 245 244
f 12 244 10
f 246 57 55
f 246 55 200
f 63 57 246
f 63 246 247
f 68 63 247
f 68 247 248
f 245 12 68
f 245 68 249
f 244 245 249
f 244 249 250
f 239 244 250
f 239 250 251
f 237 239 251
f 237 251 252
f 238 237 252
f 238 252 253
f 2 238 253
f 2 253 7
f 254 65 7
f 254 7 253
f 255 254 253
f 255 253 252
f 256 255 252
f 256 252 251
f 257 256 251
f 257 251 250
f 258 257 250
f 258 250 249
f 258 249 68
f 258 68 248
f 259 260 261
f 259 261 262
f 263 264 243
f 263 243 265
f 266 263 265
f 266 265 267
f 268 266 267
f 268 267 269
f 270 269 267
f 270 267 271
f 271 267 265
f 271 265 272
f 188 53 60
f 188 60 273
f 191 188 273
f 191 273 274
f 275 198 193
f 275 193 192
f 192 191 274
f 192 274 275
f 160 216 219
f 160 219 276
f 276 49 47
f 276 47 160
f 277 278 197
f 277 197 198
f 279 277 198
f 279 198 275
f 280 75 49
f 280 49 276
f 281 280 276
f 281 276 282
f 283 281 282
f 283 282 284
f 285 286 287
f 285 287 288
f 240 279 275
f 240 275 241
f 275 274 289
f 275 289 241
f 290 291 87
f 290 87 85
f 292 290 85
f 292 85 83
f 293 292 83
f 293 83 81
f 294 293 81
f 294 81 79
f 295 296 290
f 295 290 292
f 291 290 296
f 291 296 297
f 87 291 297
f 87 297 89
f 89 297 298
f 89 298 91
f 93 91 298
f 93 298 299
f 300 289 274
f 300 274 273
f 273 60 62
f 273 62 300
f 301 295 292
f 301 292 293
f 293 294 302
f 293 302 301
f 303 298 297
f 303 297 296
f 304 303 296
f 304 296 295
f 305 304 295
f 305 295 301
f 306 305 301
f 306 301 302
f 307 308 127
f 307 127 130
f 309 307 130
f 309 130 132
f 310 311 309
f 310 309 132
f 312 310 132
f 312 132 131
f 313 314 312
f 313 312 131
f 129 128 315
f 129 315 316
f 316 313 131
f 316 131 129
f 317 318 315
f 317 315 128
f 319 317 128
f 319 128 127
f 320 319 127
f 320 127 308
f 299 298 303
f 299 303 321
f 299 321 322
f 299 322 323
f 93 299 323
f 93 323 324
f 95 93 324
f 95 324 325
f 97 95 325
f 97 325 326
f 327 300 62
f 327 62 74
f 74 97 326
f 74 326 327
f 242 272 265
f 242 265 243
f 288 287 328
f 288 328 329
f 289 300 327
f 289 327 330
f 330 242 241
f 330 241 289
f 331 332 327
f 331 327 326
f 309 311 333
f 309 333 334
f 333 332 331
f 333 331 334
f 307 309 334
f 307 334 335
f 336 331 326
f 336 326 325
f 336 335 334
f 336 334 331
f 337 336 325
f 337 325 324
f 308 307 335
f 308 335 338
f 335 336 337
f 335 337 338
f 339 321 303
f 339 303 304
f 322 321 339
f 322 339 340
f 341 337 324
f 341 324 323
f 323 322 340
f 323 340 341
f 342 339 304
f 342 304 305
f 340 339 342
f 340 342 343
f 320 308 338
f 320 338 344
f 338 337 341
f 338 341 344
f 341 340 343
f 341 343 344
f 319 320 344
f 319 344 345
f 346 345 344
f 346 344 343
f 347 342 305
f 347 305 306
f 347 346 343
f 347 343 342
f 348 294 79
f 348 79 71
f 349 69 65
f 349 65 254
f 349 348 71
f 349 71 69
f 302 294 348
f 302 348 350
f 351 349 254
f 351 254 255
f 351 350 348
f 351 348 349
f 352 351 255
f 352 255 256
f 306 302 350
f 306 350 353
f 350 351 352
f 350 352 353
f 200 354 355
f 200 355 246
f 356 357 236
f 356 236 235
f 358 359 357
f 358 357 356
f 355 360 247
f 355 247 246
f 361 356 235
f 361 235 232
f 361 362 358
f 361 358 356
f 360 363 248
f 360 248 247
f 364 361 232
f 364 232 231
f 364 365 362
f 364 362 361
f 363 366 258
f 363 258 248
f 367 364 231
f 367 231 230
f 367 368 365
f 367 365 364
f 369 367 230
f 369 230 229
f 370 369 229
f 370 229 228
f 371 366 363
f 371 363 372
f 368 367 369
f 368 369 373
f 374 373 369
f 374 369 370
f 262 114 116
f 262 116 259
f 375 352 256
f 375 256 257
f 257 258 366
f 257 366 375
f 353 352 375
f 353 375 376
f 377 378 379
f 377 379 380
f 371 376 375
f 371 375 366
f 233 236 357
f 233 357 381
f 199 382 354
f 199 354 200
f 383 381 357
f 383 357 359
f 234 233 381
f 234 381 384
f 384 385 225
f 384 225 234
f 386 370 228
f 386 228 227
f 226 225 385
f 226 385 387
f 387 386 227
f 387 227 226
f 388 333 311
f 388 311 310
f 389 384 381
f 389 381 383
f 306 353 376
f 306 376 390
f 374 370 386
f 374 386 391
f 392 390 376
f 392 376 371
f 372 363 360
f 372 360 377
f 385 384 389
f 385 389 393
f 394 391 386
f 394 386 387
f 387 385 393
f 387 393 394
f 347 306 390
f 347 390 395
f 377 360 355
f 377 355 354
f 396 395 390
f 396 390 392
f 396 392 371
f 396 371 372
f 354 382 378
f 354 378 377
f 317 319 345
f 317 345 397
f 346 347 395
f 346 395 398
f 398 397 345
f 398 345 346
f 318 317 397
f 318 397 399
f 400 398 395
f 400 395 396
f 400 399 397
f 400 397 398
f 401 400 396
f 401 396 380
f 315 318 399
f 315 399 402
f 399 400 401
f 399 401 402
f 403 401 380
f 403 380 379
f 316 315 402
f 316 402 404
f 402 401 403
f 402 403 404
f 313 316 404
f 313 404 405
f 406 388 310
f 406 310 312
f 314 313 405
f 314 405 407
f 407 406 312
f 407 312 314
f 330 327 332
f 330 332 408
f 332 333 388
f 332 388 408
f 242 330 408
f 242 408 409
f 410 271 272
f 410 272 411
f 272 242 409
f 272 409 411
f 412 283 284
f 412 284 278
f 413 277 279
f 413 279 240
f 413 412 278
f 413 278 277
f 240 243 264
f 240 264 414
f 285 415 416
f 285 416 36
f 288 329 415
f 288 415 285
f 417 270 271
f 417 271 410
f 418 419 268
f 418 268 269
f 269 270 417
f 269 417 418
f 420 408 388
f 420 388 406
f 409 408 420
f 409 420 374
f 421 417 410
f 421 410 394
f 394 410 411
f 394 411 391
f 411 409 374
f 411 374 391
f 422 420 406
f 422 406 407
f 423 405 404
f 423 404 403
f 423 422 407
f 423 407 405
f 424 423 403
f 424 403 379
f 425 424 379
f 425 379 378
f 426 382 199
f 426 199 220
f 426 425 378
f 426 378 382
f 427 282 276
f 427 276 219
f 428 218 143
f 428 143 145
f 428 427 219
f 428 219 218
f 197 278 284
f 197 284 429
f 284 282 427
f 284 427 429
f 148 147 202
f 148 202 430
f 430 428 145
f 430 145 148
f 430 429 427
f 430 427 428
f 431 220 195
f 431 195 196
f 196 197 429
f 196 429 431
f 374 420 422
f 374 422 373
f 368 373 422
f 368 422 423
f 432 368 423
f 432 423 424
f 433 432 424
f 433 424 425
f 426 220 431
f 426 431 434
f 434 433 425
f 434 425 426
f 435 429 430
f 435 430 202
f 435 434 431
f 435 431 429
f 436 435 202
f 436 202 201
f 434 435 436
f 434 436 437
f 433 434 437
f 433 437 438
f 439 205 135
f 439 135 134
f 203 204 205
f 203 205 439
f 439 436 201
f 439 201 203
f 440 441 438
f 440 438 437
f 437 436 439
f 437 439 440
f 441 440 442
f 441 442 443
f 432 433 438
f 432 438 444
f 438 441 443
f 438 443 444
f 442 445 446
f 442 446 358
f 443 442 358
f 443 358 362
f 368 432 444
f 368 444 365
f 444 443 362
f 444 362 365
f 106 108 110
f 106 110 447
f 32 36 416
f 32 416 448
f 416 106 447
f 416 447 448
f 33 32 448
f 33 448 449
f 450 449 448
f 450 448 447
f 112 450 447
f 112 447 110
f 30 33 449
f 30 449 261
f 451 383 359
f 451 359 452
f 452 359 358
f 452 358 446
f 453 451 452
f 453 452 454
f 187 186 455
f 187 455 456
f 455 453 454
f 455 454 456
f 457 454 452
f 457 452 446
f 176 187 456
f 176 456 458
f 456 454 457
f 456 457 458
f 459 457 446
f 459 446 445
f 177 176 458
f 177 458 460
f 458 457 459
f 458 459 460
f 262 261 449
f 262 449 450
f 114 262 450
f 114 450 112
f 28 30 261
f 28 261 260
f 461 389 383
f 461 383 451
f 440 439 462
f 440 462 463
f 442 440 463
f 442 463 464
f 445 442 464
f 445 464 465
f 466 461 451
f 466 451 453
f 467 455 186
f 467 186 185
f 467 466 453
f 467 453 455
f 468 467 185
f 468 185 184
f 466 467 468
f 466 468 469
f 470 468 184
f 470 184 183
f 469 468 470
f 469 470 471
f 472 470 183
f 472 183 182
f 471 470 472
f 471 472 473
f 474 472 182
f 474 182 181
f 474 475 473
f 474 473 472
f 476 474 181
f 476 181 180
f 475 474 476
f 475 476 477
f 478 476 180
f 478 180 179
f 178 177 460
f 178 460 479
f 479 478 179
f 479 179 178
f 477 476 478
f 477 478 480
f 459 445 465
f 459 465 481
f 481 479 460
f 481 460 459
f 481 480 478
f 481 478 479
f 482 483 281
f 482 281 283
f 484 483 482
f 484 482 485
f 486 484 485
f 486 485 487
f 488 486 487
f 488 487 489
f 490 462 439
f 490 439 134
f 491 480 481
f 491 481 465
f 492 491 465
f 492 465 464
f 463 462 490
f 463 490 493
f 493 492 464
f 493 464 463
f 477 480 491
f 477 491 494
f 495 496 473
f 495 473 475
f 475 477 494
f 475 494 495
f 495 497 498
f 495 498 496
f 471 473 496
f 471 496 499
f 461 466 469
f 461 469 500
f 469 471 499
f 469 499 500
f 501 502 393
f 501 393 389
f 389 461 500
f 389 500 501
f 498 488 489
f 498 489 503
f 503 499 496
f 503 496 498
f 489 502 501
f 489 501 503
f 503 501 500
f 503 500 499
f 280 281 483
f 280 483 504
f 504 77 75
f 504 75 280
f 505 482 283
f 505 283 412
f 413 240 414
f 413 414 506
f 506 505 412
f 506 412 413
f 285 36 35
f 285 35 286
f 103 102 415
f 103 415 329
f 328 104 103
f 328 103 329
f 394 393 502
f 394 502 507
f 418 417 421
f 418 421 508
f 508 509 419
f 508 419 418
f 421 394 507
f 421 507 508
f 510 511 512
f 510 512 513
f 419 509 514
f 419 514 515
f 516 510 513
f 516 513 517
f 516 515 514
f 516 514 510
f 488 498 497
f 488 497 518
f 512 511 519
f 512 519 520
f 512 520 521
f 512 521 522
f 513 512 522
f 513 522 523
f 524 525 516
f 524 516 517
f 517 513 523
f 517 523 526
f 526 527 524
f 526 524 517
f 268 419 515
f 268 515 528
f 515 516 525
f 515 525 528
f 266 268 528
f 266 528 529
f 529 528 525
f 529 525 524
f 263 266 529
f 263 529 530
f 530 529 524
f 530 524 527
f 264 263 530
f 264 530 531
f 531 530 527
f 531 527 526
f 414 264 531
f 414 531 532
f 532 531 526
f 532 526 523
f 506 414 532
f 506 532 533
f 533 532 523
f 533 523 522
f 534 514 509
f 534 509 508
f 534 511 510
f 534 510 514
f 535 507 502
f 535 502 489
f 535 534 508
f 535 508 507
f 519 511 534
f 519 534 535
f 536 494 491
f 536 491 492
f 536 497 495
f 536 495 494
f 537 535 489
f 537 489 487
f 520 519 535
f 520 535 537
f 485 482 505
f 485 505 538
f 505 506 533
f 505 533 538
f 538 533 522
f 538 522 521
f 538 537 487
f 538 487 485
f 521 520 537
f 521 537 538
f 415 102 106
f 415 106 416
f 539 540 126
f 539 126 99
f 77 504 539
f 77 539 99
f 541 542 124
f 541 124 126
f 126 540 543
f 126 543 541
f 124 542 544
f 124 544 545
f 545 546 20
f 545 20 124
f 540 539 484
f 540 484 486
f 518 547 543
f 518 543 540
f 486 488 518
f 486 518 540
f 539 504 483
f 539 483 484
f 548 549 542
f 548 542 541
f 541 543 550
f 541 550 548
f 542 549 551
f 542 551 544
f 547 552 550
f 547 550 543
f 548 550 137
f 548 137 549
f 550 552 133
f 550 133 137
f 137 138 551
f 137 551 549
f 544 551 211
f 544 211 210
f 210 553 545
f 210 545 544
f 138 208 211
f 138 211 551
f 552 547 493
f 552 493 490
f 552 490 134
f 552 134 133
f 518 497 536
f 518 536 547
f 547 536 492
f 547 492 493
f 546 554 15
f 546 15 20
f 15 554 555
f 15 555 16
f 556 557 122
f 556 122 17
f 16 555 556
f 16 556 17
f 557 118 120
f 557 120 122
f 118 557 259
f 118 259 116
f 557 556 558
f 557 558 559
f 557 559 260
f 557 260 259
f 555 560 558
f 555 558 556
f 554 546 561
f 554 561 562
f 554 562 560
f 554 560 555
f 546 545 553
f 546 553 561
f 158 157 561
f 158 561 553
f 553 210 159
f 553 159 158
f 157 156 562
f 157 562 561
f 562 156 155
f 562 155 560
f 22 26 559
f 22 559 558
f 558 154 23
f 558 23 22
f 560 155 154
f 560 154 558
f 26 28 260
f 26 260 559
f 380 396 372
f 380 372 377
f 563 4 3
f 563 3 564
f 5 4 563
f 5 563 565
f 564 3 8
f 564 8 566
f 9 5 565
f 9 565 567
f 11 9 567
f 11 567 568
f 13 569 570
f 13 570 14
f 13 18 571
f 13 571 569
f 14 570 572
f 14 572 19
f 21 24 573
f 21 573 574
f 25 21 574
f 25 574 575
f 27 25 575
f 27 575 576
f 29 27 576
f 29 576 577
f 31 34 578
f 31 578 579
f 34 29 577
f 34 577 578
f 35 31 579
f 35 579 580
f 24 38 581
f 24 581 573
f 38 40 582
f 38 582 581
f 40 42 583
f 40 583 582
f 42 44 584
f 42 584 583
f 44 46 585
f 44 585 584
f 46 48 586
f 46 586 585
f 48 50 587
f 48 587 586
f 51 588 589
f 51 589 52
f 51 56 590
f 51 590 588
f 590 56 58
f 590 58 591
f 52 589 592
f 52 592 59
f 59 592 593
f 59 593 61
f 58 64 594
f 58 594 591
f 566 8 66
f 566 66 595
f 67 11 568
f 67 568 596
f 64 67 596
f 64 596 594
f 595 66 70
f 595 70 597
f 597 70 72
f 597 72 598
f 73 61 593
f 73 593 599
f 50 76 600
f 50 600 587
f 76 78 601
f 76 601 600
f 598 72 80
f 598 80 602
f 602 80 82
f 602 82 603
f 603 82 84
f 603 84 604
f 84 86 605
f 84 605 604
f 86 88 606
f 86 606 605
f 88 90 607
f 88 607 606
f 90 92 608
f 90 608 607
f 92 94 609
f 92 609 608
f 94 96 610
f 94 610 609
f 96 98 611
f 96 611 610
f 98 73 599
f 98 599 611
f 78 100 612
f 78 612 601
f 101 104 613
f 101 613 614
f 105 101 614
f 105 614 615
f 107 105 615
f 107 615 616
f 109 107 616
f 109 616 617
f 111 109 617
f 111 617 618
f 113 111 618
f 113 618 619
f 115 113 619
f 115 619 620
f 117 115 620
f 117 620 621
f 119 117 621
f 119 621 622
f 121 623 571
f 121 571 18
f 119 622 623
f 119 623 121
f 19 572 624
f 19 624 123
f 123 624 625
f 123 625 125
f 100 125 625
f 100 625 612
f 626 627 628
f 626 628 629
f 627 630 631
f 627 631 628
f 632 633 634
f 632 634 635
f 636 637 633
f 636 633 632
f 638 639 640
f 638 640 641
f 642 643 639
f 642 639 638
f 644 645 643
f 644 643 642
f 646 645 644
f 646 644 647
f 648 645 646
f 648 646 649
f 639 650 651
f 639 651 640
f 652 643 645
f 652 645 648
f 643 652 650
f 643 650 639
f 581 653 654
f 581 654 573
f 655 653 581
f 655 581 582
f 656 655 582
f 656 582 583
f 584 657 656
f 584 656 583
f 585 658 657
f 585 657 584
f 659 658 585
f 659 585 586
f 660 661 662
f 660 662 663
f 664 665 666
f 664 666 667
f 668 665 664
f 668 664 669
f 670 662 661
f 670 661 671
f 672 661 660
f 672 660 673
f 665 672 673
f 665 673 666
f 672 665 668
f 672 668 674
f 661 672 674
f 661 674 671
f 669 675 676
f 669 676 668
f 664 677 675
f 664 675 669
f 667 678 677
f 667 677 664
f 666 679 678
f 666 678 667
f 673 680 679
f 673 679 666
f 660 681 680
f 660 680 673
f 663 682 681
f 663 681 660
f 662 683 682
f 662 682 663
f 670 684 683
f 670 683 662
f 671 685 684
f 671 684 670
f 686 674 668
f 686 668 676
f 674 686 685
f 674 685 671
f 588 687 688
f 588 688 589
f 689 690 688
f 689 688 687
f 690 689 691
f 690 691 692
f 693 687 588
f 693 588 590
f 694 689 687
f 694 687 693
f 695 691 689
f 695 689 694
f 696 697 691
f 696 691 695
f 590 698 699
f 590 699 693
f 700 649 646
f 700 646 701
f 702 648 649
f 702 649 700
f 703 652 648
f 703 648 702
f 633 704 705
f 633 705 634
f 706 650 652
f 706 652 703
f 706 703 705
f 706 705 704
f 637 707 704
f 637 704 633
f 708 651 650
f 708 650 706
f 708 706 704
f 708 704 707
f 709 710 707
f 709 707 711
f 712 640 651
f 712 651 708
f 712 708 707
f 712 707 710
f 713 641 640
f 713 640 712
f 658 714 710
f 658 710 709
f 710 714 713
f 710 713 712
f 659 715 714
f 659 714 658
f 716 638 641
f 716 641 713
f 716 713 714
f 716 714 715
f 717 642 638
f 717 638 716
f 715 718 717
f 715 717 716
f 719 694 693
f 719 693 699
f 720 721 722
f 720 722 723
f 723 724 725
f 723 725 720
f 723 726 727
f 723 727 724
f 722 728 726
f 722 726 723
f 722 729 730
f 722 730 728
f 721 731 729
f 721 729 722
f 732 720 725
f 732 725 733
f 721 734 735
f 721 735 731
f 734 721 720
f 734 720 732
f 736 563 564
f 736 564 737
f 738 565 563
f 738 563 736
f 739 740 741
f 739 741 742
f 743 567 565
f 743 565 738
f 568 567 743
f 568 743 744
f 745 698 590
f 745 590 591
f 594 746 745
f 594 745 591
f 596 747 746
f 596 746 594
f 744 748 596
f 744 596 568
f 743 749 748
f 743 748 744
f 738 750 749
f 738 749 743
f 736 751 750
f 736 750 738
f 737 752 751
f 737 751 736
f 564 566 752
f 564 752 737
f 753 752 566
f 753 566 595
f 754 751 752
f 754 752 753
f 755 750 751
f 755 751 754
f 756 749 750
f 756 750 755
f 757 748 749
f 757 749 756
f 757 747 596
f 757 596 748
f 758 759 760
f 758 760 761
f 762 763 740
f 762 740 764
f 765 766 763
f 765 763 762
f 767 768 766
f 767 766 765
f 769 770 766
f 769 766 768
f 770 771 763
f 770 763 766
f 688 772 592
f 688 592 589
f 690 773 772
f 690 772 688
f 774 692 691
f 774 691 697
f 692 774 773
f 692 773 690
f 659 775 718
f 659 718 715
f 775 659 586
f 775 586 587
f 776 697 696
f 776 696 777
f 778 774 697
f 778 697 776
f 779 775 587
f 779 587 600
f 780 781 775
f 780 775 779
f 782 783 781
f 782 781 780
f 784 785 287
f 784 287 286
f 739 742 774
f 739 774 778
f 774 742 786
f 774 786 773
f 787 605 606
f 787 606 788
f 789 604 605
f 789 605 787
f 790 603 604
f 790 604 789
f 791 602 603
f 791 603 790
f 792 789 787
f 792 787 793
f 788 794 793
f 788 793 787
f 606 607 794
f 606 794 788
f 607 608 795
f 607 795 794
f 609 796 795
f 609 795 608
f 797 772 773
f 797 773 786
f 772 797 593
f 772 593 592
f 798 790 789
f 798 789 792
f 790 798 799
f 790 799 791
f 800 793 794
f 800 794 795
f 801 792 793
f 801 793 800
f 802 798 792
f 802 792 801
f 803 799 798
f 803 798 802
f 804 627 626
f 804 626 805
f 806 630 627
f 806 627 804
f 807 630 806
f 807 806 808
f 809 631 630
f 809 630 807
f 810 631 809
f 810 809 811
f 628 812 813
f 628 813 629
f 812 628 631
f 812 631 810
f 814 629 813
f 814 813 815
f 816 626 629
f 816 629 814
f 817 805 626
f 817 626 816
f 796 818 800
f 796 800 795
f 796 819 820
f 796 820 818
f 609 821 819
f 609 819 796
f 610 822 821
f 610 821 609
f 611 823 822
f 611 822 610
f 824 599 593
f 824 593 797
f 599 824 823
f 599 823 611
f 741 740 763
f 741 763 771
f 785 825 328
f 785 328 287
f 786 826 824
f 786 824 797
f 826 786 742
f 826 742 741
f 827 823 824
f 827 824 828
f 806 829 830
f 806 830 808
f 830 829 827
f 830 827 828
f 804 831 829
f 804 829 806
f 832 822 823
f 832 823 827
f 832 827 829
f 832 829 831
f 833 821 822
f 833 822 832
f 805 834 831
f 805 831 804
f 831 834 833
f 831 833 832
f 835 801 800
f 835 800 818
f 820 836 835
f 820 835 818
f 837 819 821
f 837 821 833
f 819 837 836
f 819 836 820
f 838 802 801
f 838 801 835
f 836 839 838
f 836 838 835
f 817 840 834
f 817 834 805
f 834 840 837
f 834 837 833
f 837 840 839
f 837 839 836
f 816 841 840
f 816 840 817
f 842 839 840
f 842 840 841
f 843 803 802
f 843 802 838
f 843 838 839
f 843 839 842
f 844 598 602
f 844 602 791
f 845 753 595
f 845 595 597
f 845 597 598
f 845 598 844
f 799 846 844
f 799 844 791
f 847 754 753
f 847 753 845
f 847 845 844
f 847 844 846
f 848 755 754
f 848 754 847
f 803 849 846
f 803 846 799
f 846 849 848
f 846 848 847
f 698 745 850
f 698 850 851
f 852 735 734
f 852 734 853
f 854 852 853
f 854 853 855
f 850 745 746
f 850 746 856
f 857 731 735
f 857 735 852
f 857 852 854
f 857 854 858
f 856 746 747
f 856 747 859
f 860 729 731
f 860 731 857
f 860 857 858
f 860 858 861
f 859 747 757
f 859 757 862
f 863 730 729
f 863 729 860
f 863 860 861
f 863 861 864
f 865 728 730
f 865 730 863
f 866 726 728
f 866 728 865
f 867 868 859
f 867 859 862
f 864 869 865
f 864 865 863
f 870 866 865
f 870 865 869
f 759 758 620
f 759 620 619
f 871 756 755
f 871 755 848
f 756 871 862
f 756 862 757
f 849 872 871
f 849 871 848
f 873 874 875
f 873 875 876
f 867 862 871
f 867 871 872
f 732 877 853
f 732 853 734
f 699 698 851
f 699 851 878
f 879 855 853
f 879 853 877
f 733 880 877
f 733 877 732
f 880 733 725
f 880 725 881
f 882 727 726
f 882 726 866
f 724 883 881
f 724 881 725
f 883 724 727
f 883 727 882
f 884 807 808
f 884 808 830
f 885 879 877
f 885 877 880
f 803 886 872
f 803 872 849
f 870 887 882
f 870 882 866
f 888 867 872
f 888 872 886
f 868 873 856
f 868 856 859
f 881 889 885
f 881 885 880
f 890 883 882
f 890 882 887
f 883 890 889
f 883 889 881
f 843 891 886
f 843 886 803
f 873 851 850
f 873 850 856
f 892 888 886
f 892 886 891
f 892 868 867
f 892 867 888
f 851 873 876
f 851 876 878
f 814 893 841
f 814 841 816
f 842 894 891
f 842 891 843
f 894 842 841
f 894 841 893
f 815 895 893
f 815 893 814
f 896 892 891
f 896 891 894
f 896 894 893
f 896 893 895
f 897 874 892
f 897 892 896
f 813 898 895
f 813 895 815
f 895 898 897
f 895 897 896
f 899 875 874
f 899 874 897
f 812 900 898
f 812 898 813
f 898 900 899
f 898 899 897
f 810 901 900
f 810 900 812
f 902 809 807
f 902 807 884
f 811 903 901
f 811 901 810
f 903 811 809
f 903 809 902
f 826 904 828
f 826 828 824
f 828 904 884
f 828 884 830
f 741 905 904
f 741 904 826
f 906 907 771
f 906 771 770
f 771 907 905
f 771 905 741
f 908 777 783
f 908 783 782
f 909 739 778
f 909 778 776
f 909 776 777
f 909 777 908
f 739 910 764
f 739 764 740
f 784 580 911
f 784 911 912
f 785 784 912
f 785 912 825
f 913 906 770
f 913 770 769
f 914 768 767
f 914 767 915
f 768 914 913
f 768 913 769
f 916 902 884
f 916 884 904
f 905 870 916
f 905 916 904
f 917 890 906
f 917 906 913
f 890 887 907
f 890 907 906
f 907 887 870
f 907 870 905
f 918 903 902
f 918 902 916
f 919 899 900
f 919 900 901
f 919 901 903
f 919 903 918
f 920 875 899
f 920 899 919
f 921 876 875
f 921 875 920
f 922 719 699
f 922 699 878
f 922 878 876
f 922 876 921
f 923 718 775
f 923 775 781
f 924 644 642
f 924 642 717
f 924 717 718
f 924 718 923
f 696 925 783
f 696 783 777
f 783 925 923
f 783 923 781
f 647 926 701
f 647 701 646
f 926 647 644
f 926 644 924
f 926 924 923
f 926 923 925
f 927 695 694
f 927 694 719
f 695 927 925
f 695 925 696
f 870 869 918
f 870 918 916
f 864 919 918
f 864 918 869
f 928 920 919
f 928 919 864
f 929 921 920
f 929 920 928
f 922 930 927
f 922 927 719
f 930 922 921
f 930 921 929
f 931 701 926
f 931 926 925
f 931 925 927
f 931 927 930
f 932 700 701
f 932 701 931
f 930 933 932
f 930 932 931
f 929 934 933
f 929 933 930
f 935 635 634
f 935 634 705
f 702 935 705
f 702 705 703
f 935 702 700
f 935 700 932
f 936 933 934
f 936 934 937
f 933 936 935
f 933 935 932
f 937 938 939
f 937 939 936
f 928 940 934
f 928 934 929
f 934 940 938
f 934 938 937
f 939 854 941
f 939 941 942
f 938 858 854
f 938 854 939
f 864 861 940
f 864 940 928
f 940 861 858
f 940 858 938
f 615 943 617
f 615 617 616
f 579 944 911
f 579 911 580
f 911 944 943
f 911 943 615
f 578 945 944
f 578 944 579
f 946 943 944
f 946 944 945
f 618 617 943
f 618 943 946
f 577 760 945
f 577 945 578
f 947 948 855
f 947 855 879
f 948 941 854
f 948 854 855
f 949 950 948
f 949 948 947
f 686 951 952
f 686 952 685
f 952 951 950
f 952 950 949
f 953 941 948
f 953 948 950
f 676 954 951
f 676 951 686
f 951 954 953
f 951 953 950
f 955 942 941
f 955 941 953
f 675 956 954
f 675 954 676
f 954 956 955
f 954 955 953
f 759 946 945
f 759 945 760
f 619 618 946
f 619 946 759
f 576 761 760
f 576 760 577
f 957 947 879
f 957 879 885
f 936 958 959
f 936 959 935
f 939 960 958
f 939 958 936
f 942 961 960
f 942 960 939
f 962 949 947
f 962 947 957
f 963 684 685
f 963 685 952
f 963 952 949
f 963 949 962
f 964 683 684
f 964 684 963
f 962 965 964
f 962 964 963
f 966 682 683
f 966 683 964
f 965 967 966
f 965 966 964
f 968 681 682
f 968 682 966
f 967 969 968
f 967 968 966
f 970 680 681
f 970 681 968
f 970 968 969
f 970 969 971
f 972 679 680
f 972 680 970
f 971 973 972
f 971 972 970
f 974 678 679
f 974 679 972
f 677 975 956
f 677 956 675
f 975 677 678
f 975 678 974
f 973 976 974
f 973 974 972
f 955 977 961
f 955 961 942
f 977 955 956
f 977 956 975
f 977 975 974
f 977 974 976
f 978 782 780
f 978 780 979
f 980 981 978
f 980 978 979
f 982 983 981
f 982 981 980
f 984 985 983
f 984 983 982
f 986 635 935
f 986 935 959
f 987 961 977
f 987 977 976
f 988 960 961
f 988 961 987
f 958 989 986
f 958 986 959
f 989 958 960
f 989 960 988
f 973 990 987
f 973 987 976
f 991 971 969
f 991 969 992
f 971 991 990
f 971 990 973
f 991 992 993
f 991 993 994
f 967 995 992
f 967 992 969
f 957 996 965
f 957 965 962
f 965 996 995
f 965 995 967
f 997 885 889
f 997 889 998
f 885 997 996
f 885 996 957
f 993 999 985
f 993 985 984
f 999 993 992
f 999 992 995
f 985 999 997
f 985 997 998
f 999 995 996
f 999 996 997
f 779 1000 979
f 779 979 780
f 1000 779 600
f 1000 600 601
f 1001 908 782
f 1001 782 978
f 909 1002 910
f 909 910 739
f 1002 909 908
f 1002 908 1001
f 784 286 35
f 784 35 580
f 613 825 912
f 613 912 614
f 328 825 613
f 328 613 104
f 890 1003 998
f 890 998 889
f 914 1004 917
f 914 917 913
f 1004 914 915
f 1004 915 1005
f 917 1004 1003
f 917 1003 890
f 1006 1007 1008
f 1006 1008 1009
f 915 1010 1011
f 915 1011 1005
f 1012 1013 1007
f 1012 1007 1006
f 1012 1006 1011
f 1012 1011 1010
f 984 1014 994
f 984 994 993
f 1008 1015 1016
f 1008 1016 1009
f 1008 1017 1018
f 1008 1018 1015
f 1007 1019 1017
f 1007 1017 1008
f 1020 1013 1012
f 1020 1012 1021
f 1013 1022 1019
f 1013 1019 1007
f 1022 1013 1020
f 1022 1020 1023
f 767 1024 1010
f 767 1010 915
f 1010 1024 1021
f 1010 1021 1012
f 765 1025 1024
f 765 1024 767
f 1025 1020 1021
f 1025 1021 1024
f 762 1026 1025
f 762 1025 765
f 1026 1023 1020
f 1026 1020 1025
f 764 1027 1026
f 764 1026 762
f 1027 1022 1023
f 1027 1023 1026
f 910 1028 1027
f 910 1027 764
f 1028 1019 1022
f 1028 1022 1027
f 1002 1029 1028
f 1002 1028 910
f 1029 1017 1019
f 1029 1019 1028
f 1030 1004 1005
f 1030 1005 1011
f 1030 1011 1006
f 1030 1006 1009
f 1031 985 998
f 1031 998 1003
f 1031 1003 1004
f 1031 1004 1030
f 1016 1031 1030
f 1016 1030 1009
f 1032 988 987
f 1032 987 990
f 1032 990 991
f 1032 991 994
f 1033 983 985
f 1033 985 1031
f 1015 1033 1031
f 1015 1031 1016
f 981 1034 1001
f 981 1001 978
f 1001 1034 1029
f 1001 1029 1002
f 1034 1018 1017
f 1034 1017 1029
f 1034 981 983
f 1034 983 1033
f 1018 1034 1033
f 1018 1033 1015
f 912 911 615
f 912 615 614
f 1035 612 625
f 1035 625 1036
f 601 612 1035
f 601 1035 1000
f 1037 625 624
f 1037 624 1038
f 625 1037 1039
f 625 1039 1036
f 624 1040 1041
f 624 1041 1038
f 1040 624 572
f 1040 572 1042
f 1036 982 980
f 1036 980 1035
f 1014 1036 1039
f 1014 1039 1043
f 982 1036 1014
f 982 1014 984
f 1035 980 979
f 1035 979 1000
f 1044 1037 1038
f 1044 1038 1045
f 1037 1044 1046
f 1037 1046 1039
f 1038 1041 1047
f 1038 1047 1045
f 1043 1039 1046
f 1043 1046 1048
f 1044 1045 636
f 1044 636 1046
f 1046 636 632
f 1046 632 1048
f 636 1045 1047
f 636 1047 637
f 1041 709 711
f 1041 711 1047
f 709 1041 1040
f 709 1040 1049
f 637 1047 711
f 637 711 707
f 1048 986 989
f 1048 989 1043
f 1048 632 635
f 1048 635 986
f 1014 1043 1032
f 1014 1032 994
f 1043 989 988
f 1043 988 1032
f 1042 572 570
f 1042 570 1050
f 570 569 1051
f 570 1051 1050
f 1052 571 623
f 1052 623 1053
f 569 571 1052
f 569 1052 1051
f 1053 623 622
f 1053 622 621
f 621 620 758
f 621 758 1053
f 1053 1054 1055
f 1053 1055 1052
f 1053 758 761
f 1053 761 1054
f 1051 1052 1055
f 1051 1055 1056
f 1050 1057 1058
f 1050 1058 1042
f 1050 1051 1056
f 1050 1056 1057
f 1042 1058 1049
f 1042 1049 1040
f 657 1049 1058
f 657 1058 656
f 1049 657 658
f 1049 658 709
f 656 1058 1057
f 656 1057 655
f 1057 1056 653
f 1057 653 655
f 574 1055 1054
f 574 1054 575
f 1055 574 573
f 1055 573 654
f 1056 1055 654
f 1056 654 653
f 575 1054 761
f 575 761 576
f 874 873 868
f 874 868 892
