# T3 posed
v -0.567233 -0.016789 0.436048
v -0.564958 -0.018746 0.440026
v -0.562223 -0.015264 0.440751
v -0.564649 -0.014401 0.439044
v -0.559329 -0.022929 0.449167
v -0.561699 -0.023740 0.449085
v -0.561637 -0.024658 0.450159
v -0.560717 -0.024513 0.450988
v -0.559527 -0.025248 0.453463
v -0.557444 -0.023837 0.452112
v -0.558444 -0.026065 0.456011
v -0.556038 -0.024807 0.454892
v -0.557969 -0.027056 0.458703
v -0.555390 -0.025681 0.457451
v -0.556678 -0.028291 0.463395
v -0.554220 -0.026676 0.461906
v -0.552441 -0.028406 0.466479
v -0.554967 -0.029258 0.466018
v -0.581461 -0.006442 0.424329
v -0.579959 -0.007232 0.425491
v -0.579902 -0.005907 0.426438
v -0.580856 -0.004719 0.426009
v -0.568823 -0.007054 0.434528
v -0.566225 -0.007392 0.437301
v -0.568563 -0.001862 0.436970
v -0.570417 -0.002228 0.435742
v -0.570654 -0.006253 0.432740
v -0.572010 -0.001919 0.434092
v -0.568233 -0.012266 0.433442
v -0.566014 -0.011380 0.437584
v -0.569965 -0.010732 0.431383
v -0.569893 -0.018414 0.432729
v -0.569859 -0.015970 0.431164
v -0.571095 -0.009703 0.429953
v -0.571999 -0.009113 0.428437
v -0.572634 -0.011669 0.427288
v -0.571084 -0.012759 0.428593
v -0.570403 -0.014248 0.429781
v -0.573225 -0.001174 0.432501
v -0.571955 -0.005208 0.430924
v -0.572967 -0.005897 0.429257
v -0.573800 0.002292 0.436456
v -0.572441 0.001941 0.438219
v -0.575072 0.002813 0.434683
v -0.574785 0.008886 0.443586
v -0.577000 0.008773 0.442043
v -0.570572 0.002446 0.438718
v -0.572064 0.008289 0.442971
v -0.569874 0.008479 0.439886
v -0.569142 0.003711 0.438084
v -0.578250 0.008331 0.439452
v -0.567263 -0.000165 0.437182
v -0.565263 -0.003753 0.437349
v -0.575510 0.003076 0.433342
v -0.578081 0.007537 0.435908
v -0.573851 -0.000089 0.431399
v -0.572708 -0.002434 0.430095
v -0.572988 -0.003299 0.428620
v -0.565185 -0.002360 0.435956
v -0.567095 0.001141 0.435956
v -0.568644 0.004555 0.436487
v -0.569362 0.008018 0.437233
v -0.567799 0.001332 0.433714
v -0.569564 0.002453 0.431856
v -0.570346 0.004852 0.432870
v -0.568952 0.004307 0.434377
v -0.571046 0.007493 0.433514
v -0.569651 0.007444 0.435019
v -0.565216 -0.001971 0.433243
v -0.567439 0.000134 0.431446
v -0.569058 0.000808 0.430299
v -0.568455 -0.000928 0.428539
v -0.566902 -0.001199 0.429352
v -0.566024 -0.001380 0.431364
v -0.564343 -0.003841 0.431230
v -0.565536 -0.002305 0.429874
v -0.563963 -0.006056 0.429524
v -0.564726 -0.003422 0.428366
v -0.566164 -0.002592 0.427579
v -0.567849 -0.002250 0.426762
v -0.574887 -0.004213 0.429079
v -0.574680 -0.002781 0.427740
v -0.577290 -0.003361 0.428631
v -0.576761 -0.002587 0.427204
v -0.578463 -0.002833 0.426205
v -0.579284 -0.003512 0.427525
v -0.579814 -0.003841 0.424618
v -0.580546 -0.005624 0.422985
v -0.579797 -0.007951 0.421964
v -0.580937 -0.008842 0.423474
v -0.578277 -0.009945 0.422120
v -0.579350 -0.010728 0.423446
v -0.576268 -0.011430 0.422962
v -0.576908 -0.012142 0.424135
v -0.573532 -0.011967 0.424035
v -0.574608 -0.012443 0.425658
v -0.571690 -0.012763 0.426037
v -0.570586 -0.003910 0.421892
v -0.571053 -0.003673 0.423763
v -0.569653 -0.002781 0.425524
v -0.569326 -0.003121 0.423722
v -0.567058 -0.002786 0.423982
v -0.564964 -0.003487 0.425495
v -0.562122 0.000265 0.416458
v -0.563162 -0.001036 0.419414
v -0.561209 -0.001653 0.420746
v -0.559716 0.000200 0.416321
v -0.564845 -0.002254 0.422141
v -0.563295 -0.003392 0.423912
v -0.563217 -0.004710 0.426825
v -0.558141 0.000360 0.419109
v -0.559297 -0.001647 0.422729
v -0.561024 -0.004603 0.425830
v -0.557252 0.001683 0.414307
v -0.556597 0.001160 0.417547
v -0.554626 0.002338 0.414084
v -0.554563 0.001321 0.417042
v -0.562812 0.002194 0.413747
v -0.560817 0.002461 0.412497
v -0.567420 0.002399 0.412495
v -0.565933 0.003408 0.409564
v -0.566460 0.001724 0.408077
v -0.567352 0.000896 0.410320
v -0.566004 0.003004 0.413361
v -0.564191 0.003456 0.411365
v -0.564790 0.002476 0.414862
v -0.564471 0.001184 0.416850
v -0.567636 -0.002388 0.421996
v -0.565923 -0.001291 0.420578
v -0.569407 -0.002795 0.422184
v -0.570728 -0.003257 0.420583
v -0.569752 -0.001077 0.413430
v -0.568475 -0.002717 0.412114
v -0.569501 -0.004130 0.413342
v -0.570662 -0.002424 0.414558
v -0.568824 0.000631 0.412896
v -0.567940 -0.000695 0.411253
v -0.557910 0.002775 0.410584
v -0.554152 0.003015 0.410167
v -0.562383 0.003650 0.409305
v -0.564851 0.003904 0.406908
v -0.565833 0.002228 0.406066
v -0.559167 0.003174 0.406046
v -0.553787 0.002528 0.406180
v -0.563562 0.003978 0.403544
v -0.567080 -0.004597 0.410905
v -0.568084 -0.006198 0.412114
v -0.565703 -0.008136 0.408886
v -0.566975 -0.009233 0.410671
v -0.565606 0.000018 0.406053
v -0.566195 -0.000015 0.407532
v -0.566474 -0.000968 0.408703
v -0.565187 -0.002457 0.406617
v -0.565024 0.002556 0.403102
v -0.564837 0.000253 0.403390
v -0.564165 -0.002624 0.403554
v -0.566677 -0.002547 0.409823
v -0.564787 -0.006539 0.406725
v -0.563612 -0.006676 0.403325
v -0.558026 0.001592 0.400971
v -0.553116 0.001018 0.402151
v -0.562433 0.002581 0.399559
v -0.564154 0.001673 0.399310
v -0.564154 -0.000567 0.399779
v -0.563611 -0.003472 0.400316
v -0.563695 -0.004753 0.396542
v -0.563871 -0.003341 0.395439
v -0.563526 -0.001351 0.394782
v -0.563267 -0.006673 0.400271
v -0.563610 -0.006483 0.395411
v -0.563688 -0.005399 0.393689
v -0.563045 -0.004273 0.392325
v -0.561594 -0.000760 0.395011
v -0.561097 -0.004009 0.392520
v -0.557197 -0.001305 0.397165
v -0.556651 -0.004429 0.394781
v -0.552434 -0.001564 0.398813
v -0.551912 -0.004728 0.396478
v -0.565032 0.000012 0.418715
v -0.570730 -0.014457 0.427185
v -0.570129 -0.015775 0.428363
v -0.569747 -0.017169 0.429368
v -0.569841 -0.018631 0.430183
v -0.570348 -0.012721 0.425444
v -0.569185 -0.014251 0.426585
v -0.567955 -0.015297 0.427301
v -0.566979 -0.016267 0.428066
v -0.566389 -0.017303 0.427483
v -0.577573 -0.003145 0.424939
v -0.576546 -0.002965 0.425382
v -0.578265 -0.003864 0.423731
v -0.578697 -0.005144 0.422440
v -0.578043 -0.007176 0.421719
v -0.576832 -0.008869 0.422002
v -0.575415 -0.010229 0.422586
v -0.573474 -0.010307 0.422860
v -0.572195 -0.009618 0.422288
v -0.571380 -0.011355 0.424038
v -0.575413 -0.008377 0.422009
v -0.571362 -0.023958 0.417731
v -0.570783 -0.023688 0.415959
v -0.571799 -0.025814 0.414926
v -0.573126 -0.025476 0.415980
v -0.572915 -0.006544 0.421052
v -0.571649 -0.008756 0.420706
v -0.574164 -0.007563 0.421671
v -0.576264 -0.006739 0.422048
v -0.575185 -0.002962 0.425551
v -0.576898 -0.003798 0.423939
v -0.551717 0.001370 0.414889
v -0.552428 -0.000235 0.417331
v -0.550763 0.002914 0.410898
v -0.549840 0.002655 0.407221
v -0.548784 0.001044 0.403345
v -0.548010 -0.001858 0.400022
v -0.547464 -0.005025 0.397713
v -0.547220 -0.006705 0.399694
v -0.547632 -0.004112 0.401508
v -0.548384 -0.001274 0.404501
v -0.549310 0.000369 0.407835
v -0.550173 0.000607 0.411000
v -0.550982 -0.000641 0.413587
v -0.551651 -0.001860 0.415182
v -0.552512 -0.003249 0.417347
v -0.552351 -0.004221 0.415403
v -0.553337 -0.006826 0.416142
v -0.553508 -0.005401 0.417978
v -0.554272 -0.007264 0.419332
v -0.554539 -0.009435 0.417771
v -0.552880 -0.009465 0.413972
v -0.554346 -0.011953 0.416448
v -0.551775 -0.005111 0.412441
v -0.550945 -0.003355 0.410142
v -0.550302 -0.003219 0.407708
v -0.549596 -0.003998 0.405255
v -0.549080 -0.006092 0.403031
v -0.548733 -0.008072 0.401576
v -0.554920 -0.006667 0.422806
v -0.555569 -0.008873 0.421412
v -0.553931 -0.005667 0.420994
v -0.553084 -0.004111 0.419877
v -0.552398 -0.002533 0.419325
v -0.552739 -0.000572 0.419434
v -0.554141 0.000911 0.419605
v -0.555626 0.001234 0.420128
v -0.556899 0.000937 0.421384
v -0.557942 -0.000780 0.424304
v -0.558229 -0.003474 0.426411
v -0.557009 -0.002847 0.425512
v -0.557375 -0.005340 0.426609
v -0.556530 -0.004018 0.425468
v -0.556710 -0.001346 0.424013
v -0.555970 -0.000111 0.422210
v -0.555161 0.000457 0.421138
v -0.554274 0.000051 0.420718
v -0.553419 -0.000968 0.420392
v -0.553127 -0.002045 0.420345
v -0.553756 -0.003066 0.421059
v -0.555199 -0.001241 0.421933
v -0.554405 -0.002213 0.421515
v -0.555998 -0.002512 0.423558
v -0.554606 -0.004289 0.422238
v -0.555080 -0.005071 0.423179
v -0.555730 -0.004890 0.424337
v -0.555242 -0.003462 0.422884
v -0.556132 -0.006577 0.424986
v -0.562534 -0.006801 0.427469
v -0.557526 -0.008558 0.423797
v -0.559837 -0.006996 0.426491
v -0.556193 -0.011099 0.419875
v -0.563534 -0.008174 0.430757
v -0.563029 -0.006070 0.433162
v -0.566912 -0.012629 0.426671
v -0.565214 -0.014105 0.428518
v -0.568304 -0.011745 0.425073
v -0.564247 -0.009918 0.427766
v -0.563102 -0.011777 0.429699
v -0.563910 -0.009094 0.427339
v -0.562828 -0.008850 0.425706
v -0.561115 -0.009279 0.423824
v -0.558637 -0.010386 0.421204
v -0.565951 -0.010969 0.425052
v -0.569471 -0.010481 0.423738
v -0.570278 -0.009688 0.422432
v -0.564980 -0.009920 0.424565
v -0.563871 -0.009518 0.423067
v -0.561691 -0.009747 0.421227
v -0.556311 -0.013275 0.418691
v -0.559760 -0.012105 0.419327
v -0.563223 -0.010182 0.419586
v -0.562639 -0.012695 0.418495
v -0.564931 -0.009468 0.421367
v -0.567798 -0.009846 0.423137
v -0.569801 -0.009347 0.421265
v -0.566587 -0.009581 0.422554
v -0.567742 -0.009464 0.421208
v -0.566867 -0.009565 0.419974
v -0.566129 -0.010595 0.418223
v -0.565867 -0.012755 0.416909
v -0.576944 -0.004941 0.422745
v -0.574892 -0.006034 0.422302
v -0.573606 -0.005165 0.422578
v -0.572480 -0.004010 0.423411
v -0.571940 -0.004767 0.422268
v -0.573712 -0.003088 0.424994
v -0.573125 -0.002452 0.426289
v -0.571549 -0.003046 0.424778
v -0.572157 -0.002605 0.425394
v -0.572971 -0.003448 0.424235
v -0.570259 -0.001559 0.427460
v -0.572655 -0.001983 0.427670
v -0.571632 -0.001557 0.427201
v -0.570763 0.000427 0.429403
v -0.572693 -0.000743 0.429490
v -0.571968 -0.000133 0.429087
v -0.573426 0.001257 0.430746
v -0.571260 0.002514 0.430867
v -0.572479 0.002004 0.430509
v -0.574842 0.003695 0.432235
v -0.571976 0.004902 0.431864
v -0.573376 0.004582 0.431609
v -0.576715 0.007297 0.433559
v -0.572846 0.007308 0.432573
v -0.574773 0.007330 0.432611
v -0.573443 0.009744 0.432969
v -0.575290 0.009480 0.433341
v -0.577314 0.009614 0.434389
v -0.578980 0.011131 0.437596
v -0.578985 0.012860 0.440570
v -0.577578 0.014147 0.443287
v -0.575095 0.014467 0.444810
v -0.572271 0.013417 0.444381
v -0.570111 0.012170 0.441527
v -0.569547 0.011346 0.438090
v -0.570272 0.010650 0.435411
v -0.571551 0.010474 0.433802
v -0.575528 0.010757 0.434535
v -0.577296 0.010720 0.435319
v -0.573866 0.011061 0.434376
v -0.572279 0.011594 0.435053
v -0.571217 0.012014 0.436383
v -0.570660 0.012731 0.438427
v -0.571016 0.013546 0.441189
v -0.572846 0.014508 0.443509
v -0.575348 0.015202 0.443683
v -0.577413 0.014816 0.442322
v -0.578549 0.013600 0.440121
v -0.578516 0.012109 0.437682
v -0.574306 0.011637 0.436357
v -0.575676 0.011454 0.436273
v -0.576822 0.011286 0.436760
v -0.577470 0.012155 0.438467
v -0.577642 0.013143 0.440082
v -0.575274 0.013754 0.442640
v -0.576719 0.013591 0.441581
v -0.576143 0.011822 0.439393
v -0.573002 0.011983 0.436922
v -0.572047 0.012358 0.437547
v -0.572203 0.013243 0.441211
v -0.572041 0.012733 0.439585
v -0.574887 0.011829 0.439890
v -0.573555 0.013545 0.442563
v -0.573587 0.012171 0.440039
v -0.579729 -0.008479 0.424739
v -0.578659 -0.009461 0.424687
v -0.578667 -0.007655 0.426014
v -0.578757 -0.005621 0.427218
v -0.577168 -0.005521 0.428255
v -0.576980 -0.010725 0.425119
v -0.577003 -0.008191 0.426754
v -0.574223 -0.009035 0.428365
v -0.574315 -0.007197 0.428962
v -0.574227 -0.010523 0.427531
v -0.575269 -0.011104 0.426294
v -0.575414 -0.006007 0.428950
v -0.575535 -0.008602 0.427581
v -0.563839 -0.014577 0.429393
v -0.561213 -0.013684 0.431510
v -0.564662 -0.017173 0.428202
v -0.559640 -0.016270 0.441811
v -0.559138 -0.014616 0.441137
v -0.556739 -0.014319 0.439610
v -0.557028 -0.015538 0.440574
v -0.563125 -0.020001 0.442289
v -0.558927 -0.017147 0.442558
v -0.556552 -0.016031 0.441227
v -0.561850 -0.015485 0.430701
v -0.559493 -0.014025 0.432970
v -0.562568 -0.016714 0.429466
v -0.559140 -0.015819 0.435787
v -0.557043 -0.014300 0.435027
v -0.555236 -0.012335 0.437194
v -0.561942 -0.017607 0.434276
v -0.557253 -0.017621 0.439357
v -0.558661 -0.019451 0.438724
v -0.556731 -0.017936 0.440521
v -0.557470 -0.019955 0.440232
v -0.554481 -0.021694 0.448283
v -0.553875 -0.023010 0.450662
v -0.553326 -0.024165 0.453299
v -0.552354 -0.025025 0.455963
v -0.551401 -0.025920 0.460237
v -0.550212 -0.027251 0.464559
v -0.551731 -0.025746 0.455465
v -0.550810 -0.026660 0.459439
v -0.552891 -0.024939 0.452785
v -0.553824 -0.024103 0.450420
v -0.554656 -0.022833 0.447901
v -0.550055 -0.028094 0.463848
v -0.550382 -0.029524 0.468056
v -0.549311 -0.028406 0.466816
v -0.555569 -0.018929 0.442057
v -0.556130 -0.020730 0.442025
v -0.554639 -0.020369 0.445860
v -0.555002 -0.022194 0.446073
v -0.555521 -0.017306 0.442675
v -0.555428 -0.022375 0.445041
v -0.554739 -0.020885 0.444655
v -0.555566 -0.021608 0.443714
v -0.554824 -0.019957 0.443648
v -0.554960 -0.018679 0.444375
v -0.558212 -0.021196 0.446927
v -0.557948 -0.018216 0.443606
v -0.557674 -0.019669 0.445227
v -0.561800 -0.022650 0.447578
v -0.562079 -0.020849 0.444295
v -0.561887 -0.021760 0.446169
v -0.562029 -0.007894 0.432989
v -0.561315 -0.006254 0.434804
v -0.561813 -0.009893 0.431289
v -0.561035 -0.011769 0.431029
v -0.559767 -0.012784 0.431811
v -0.557945 -0.012996 0.432689
v -0.556259 -0.012598 0.434473
v -0.554770 -0.010856 0.436298
v -0.554608 -0.009671 0.438642
v -0.554600 -0.008106 0.437586
v -0.560677 -0.010153 0.433128
v -0.560664 -0.008701 0.434164
v -0.560307 -0.007529 0.435392
v -0.559680 -0.005226 0.436010
v -0.559367 -0.007178 0.436423
v -0.560054 -0.011273 0.433168
v -0.559777 -0.009258 0.435007
v -0.559218 -0.011828 0.433571
v -0.556631 -0.007485 0.436969
v -0.556384 -0.005994 0.437597
v -0.555288 -0.008390 0.436940
v -0.558287 -0.007138 0.437023
v -0.559024 -0.009629 0.435698
v -0.556296 -0.010358 0.436136
v -0.557165 -0.011763 0.435050
v -0.558085 -0.010050 0.436230
v -0.558003 -0.011762 0.433982
v -0.556487 -0.012331 0.439895
v -0.562889 -0.004222 0.436324
v -0.562988 -0.005202 0.437567
v -0.561607 -0.004971 0.435413
v -0.556171 -0.005771 0.438162
v -0.563153 -0.012776 0.439971
v -0.561170 -0.012757 0.440548
v -0.563548 -0.010765 0.439378
v -0.563540 -0.008121 0.438941
v -0.560984 -0.005029 0.437291
v -0.558986 -0.005161 0.437551
v -0.558509 -0.004679 0.437278
v -0.558668 -0.012398 0.440431
v -0.560908 -0.010240 0.439944
v -0.557947 -0.009706 0.440178
v -0.558222 -0.006879 0.439143
v -0.560900 -0.007618 0.439274
v -0.575413 -0.003787 0.424257
v -0.575428 -0.004728 0.423227
v -0.574213 -0.003771 0.424260
v -0.570661 -0.007185 0.415134
v -0.568839 -0.010248 0.412228
v -0.571013 -0.008784 0.415738
v -0.571101 -0.008413 0.419026
v -0.571673 -0.006958 0.419042
v -0.570220 -0.011371 0.413284
v -0.569550 -0.009340 0.419395
v -0.569222 -0.010107 0.417037
v -0.568843 -0.012310 0.414958
v -0.571191 -0.005460 0.419518
v -0.570806 -0.005196 0.415949
v -0.571212 -0.003713 0.418734
v -0.571276 -0.003382 0.416331
v -0.566701 -0.001237 0.419526
v -0.567994 -0.002048 0.420510
v -0.569191 -0.002463 0.420820
v -0.569996 -0.002736 0.419877
v -0.568573 -0.002182 0.419226
v -0.570631 -0.002703 0.416849
v -0.570474 -0.002886 0.418390
v -0.569267 -0.000960 0.414924
v -0.570065 -0.002063 0.415843
v -0.569360 -0.002308 0.417433
v -0.568417 0.000576 0.414352
v -0.567444 0.001992 0.414111
v -0.566623 0.002214 0.414659
v -0.568312 -0.001410 0.416421
v -0.567456 0.000147 0.415467
v -0.565505 0.001051 0.416714
v -0.565934 0.001844 0.415516
v -0.567373 -0.001396 0.418150
v -0.565866 -0.000110 0.417936
v -0.566537 0.000022 0.416647
v -0.551619 -0.008140 0.410537
v -0.551813 -0.010368 0.410802
v -0.551242 -0.007229 0.409134
v -0.550729 -0.006443 0.407265
v -0.551260 -0.009972 0.408589
v -0.550133 -0.006606 0.405303
v -0.549704 -0.007318 0.403881
v -0.549546 -0.008711 0.403082
v -0.550783 -0.009475 0.406622
v -0.550195 -0.009045 0.404804
v -0.558203 -0.005127 0.436919
v -0.573890 -0.004293 0.423597
v -0.569410 -0.023668 0.428718
v -0.567327 -0.027814 0.428503
v -0.566727 -0.025532 0.433261
v -0.569652 -0.022590 0.431403
v -0.569707 -0.020943 0.429448
v -0.569486 -0.021650 0.427944
v -0.563811 -0.028927 0.434421
v -0.561432 -0.028958 0.436397
v -0.564532 -0.026005 0.437713
v -0.564894 -0.030683 0.431454
v -0.558282 -0.029384 0.436442
v -0.558931 -0.028479 0.437933
v -0.558290 -0.028123 0.439074
v -0.562768 -0.026093 0.440356
v -0.569816 -0.024326 0.426579
v -0.568954 -0.028055 0.425880
v -0.567322 -0.032727 0.426369
v -0.564692 -0.033773 0.428924
v -0.569121 -0.032542 0.424388
v -0.569751 -0.022244 0.426308
v -0.562120 -0.030622 0.434302
v -0.560131 -0.030766 0.434826
v -0.562318 -0.031953 0.432650
v -0.557612 -0.030740 0.434598
v -0.562046 -0.033845 0.430770
v -0.559636 -0.032431 0.432898
v -0.559378 -0.034168 0.430843
v -0.556648 -0.032697 0.432872
v -0.555444 -0.030247 0.434200
v -0.555916 -0.028489 0.435105
v -0.556300 -0.028088 0.436582
v -0.553345 -0.031480 0.431711
v -0.563354 -0.036653 0.426890
v -0.561230 -0.035363 0.427972
v -0.559238 -0.035136 0.427724
v -0.568375 -0.037513 0.424531
v -0.566459 -0.038317 0.425372
v -0.564980 -0.039686 0.424611
v -0.557394 -0.027756 0.440578
v -0.561750 -0.026462 0.442519
v -0.557222 -0.027482 0.442749
v -0.561594 -0.026778 0.444588
v -0.557861 -0.027280 0.445002
v -0.559075 -0.027280 0.447791
v -0.561521 -0.026828 0.448123
v -0.561559 -0.026854 0.446262
v -0.560557 -0.027188 0.450141
v -0.561517 -0.026691 0.449523
v -0.557206 -0.028038 0.450778
v -0.559379 -0.027896 0.452624
v -0.554260 -0.026961 0.443766
v -0.554155 -0.027262 0.446510
v -0.553608 -0.027498 0.449233
v -0.554452 -0.027510 0.441571
v -0.555857 -0.028014 0.437417
v -0.554919 -0.027705 0.439371
v -0.556785 -0.025720 0.436770
v -0.556258 -0.026079 0.437921
v -0.558589 -0.025327 0.432767
v -0.555155 -0.026038 0.439797
v -0.554474 -0.026043 0.441718
v -0.554802 -0.025640 0.444976
v -0.554459 -0.026135 0.446848
v -0.554454 -0.025861 0.443077
v -0.555279 -0.024940 0.444226
v -0.553679 -0.026473 0.449663
v -0.553102 -0.028022 0.452073
v -0.555822 -0.028705 0.453657
v -0.558307 -0.028583 0.455215
v -0.552769 -0.027061 0.452110
v -0.555162 -0.029397 0.456264
v -0.557834 -0.029276 0.457994
v -0.552128 -0.028756 0.454772
v -0.551615 -0.027812 0.454809
v -0.553925 -0.031024 0.460496
v -0.556499 -0.030820 0.462570
v -0.551121 -0.030386 0.458805
v -0.550655 -0.029268 0.458605
v -0.549949 -0.031672 0.463147
v -0.552208 -0.032069 0.465298
v -0.549904 -0.030560 0.463056
v -0.554821 -0.031369 0.465329
v -0.549106 -0.031940 0.465689
v -0.550246 -0.031855 0.467311
v -0.573300 -0.026454 0.422469
v -0.573113 -0.028141 0.422295
v -0.570911 -0.027886 0.422473
v -0.571847 -0.025218 0.422983
v -0.570024 -0.028184 0.424082
v -0.570378 -0.024922 0.424729
v -0.573946 -0.023860 0.422031
v -0.574440 -0.025382 0.421758
v -0.571064 -0.023511 0.422623
v -0.572880 -0.023199 0.420467
v -0.570249 -0.022698 0.424567
v -0.572994 -0.029985 0.421725
v -0.571508 -0.031068 0.421261
v -0.570377 -0.032481 0.422265
v -0.569880 -0.042546 0.424120
v -0.567959 -0.043046 0.424280
v -0.566421 -0.043562 0.423055
v -0.573962 -0.031061 0.420997
v -0.573244 -0.032534 0.420087
v -0.572931 -0.032900 0.418171
v -0.571279 -0.032809 0.419250
v -0.570868 -0.034330 0.419984
v -0.575677 -0.031237 0.420089
v -0.575558 -0.033218 0.419149
v -0.574997 -0.032966 0.417552
v -0.576252 -0.023468 0.420537
v -0.576141 -0.025192 0.420522
v -0.575581 -0.023302 0.419190
v -0.578556 -0.024471 0.419079
v -0.577694 -0.026141 0.419387
v -0.577452 -0.024232 0.417581
v -0.579932 -0.026184 0.417964
v -0.578649 -0.027078 0.418829
v -0.578758 -0.025919 0.416255
v -0.580172 -0.028679 0.417263
v -0.578723 -0.028549 0.418717
v -0.579223 -0.028475 0.415726
v -0.579335 -0.030981 0.417665
v -0.578497 -0.030165 0.418731
v -0.578253 -0.030784 0.416059
v -0.577592 -0.032668 0.418264
v -0.577302 -0.030725 0.419245
v -0.576750 -0.032374 0.416822
v -0.577466 -0.028373 0.419433
v -0.575843 -0.028190 0.420401
v -0.574399 -0.028179 0.421362
v -0.569983 -0.036983 0.422963
v -0.571400 -0.032170 0.416845
v -0.570841 -0.033294 0.417723
v -0.574883 -0.031590 0.416286
v -0.573523 -0.031547 0.416466
v -0.572091 -0.030971 0.416134
v -0.570697 -0.035350 0.418520
v -0.575941 -0.031299 0.415996
v -0.576743 -0.030093 0.415399
v -0.577351 -0.028356 0.415066
v -0.576943 -0.026220 0.415667
v -0.575905 -0.024884 0.416915
v -0.574619 -0.023973 0.418223
v -0.572689 -0.023863 0.418554
v -0.569743 -0.023061 0.422158
v -0.570671 -0.023470 0.420189
v -0.568711 -0.022357 0.424010
v -0.566226 -0.020108 0.426592
v -0.566684 -0.021343 0.426453
v -0.567576 -0.021792 0.425237
v -0.571171 -0.036797 0.421203
v -0.571719 -0.037104 0.419669
v -0.572974 -0.040968 0.419390
v -0.572529 -0.041487 0.420665
v -0.571255 -0.041958 0.422451
v -0.571175 -0.037773 0.418375
v -0.572277 -0.040762 0.418138
v -0.574987 -0.046330 0.418857
v -0.574939 -0.049027 0.421253
v -0.573727 -0.044656 0.417101
v -0.573561 -0.050749 0.423151
v -0.571295 -0.051498 0.424417
v -0.568662 -0.050375 0.424325
v -0.566560 -0.048538 0.421730
v -0.564711 -0.040020 0.422867
v -0.563175 -0.036973 0.424948
v -0.561070 -0.035430 0.426366
v -0.565879 -0.043266 0.421271
v -0.566200 -0.046585 0.419859
v -0.559912 -0.034166 0.426127
v -0.566360 -0.052494 0.420979
v -0.566006 -0.049788 0.418666
v -0.566897 -0.047763 0.416849
v -0.566630 -0.044873 0.418388
v -0.566285 -0.041878 0.419694
v -0.568279 -0.055365 0.422518
v -0.567141 -0.053507 0.419893
v -0.566969 -0.051218 0.418122
v -0.567669 -0.049519 0.416843
v -0.568778 -0.055808 0.421164
v -0.570965 -0.056756 0.422175
v -0.571184 -0.056732 0.420823
v -0.573519 -0.055882 0.421032
v -0.573321 -0.055854 0.419865
v -0.575147 -0.053422 0.419509
v -0.574651 -0.053721 0.418732
v -0.575440 -0.050312 0.418096
v -0.574867 -0.051106 0.417613
v -0.574058 -0.047075 0.416418
v -0.573881 -0.048499 0.416536
v -0.571829 -0.043941 0.416348
v -0.572091 -0.046169 0.415687
v -0.572146 -0.047898 0.415919
v -0.570753 -0.040975 0.417158
v -0.565468 -0.038957 0.420900
v -0.563261 -0.035732 0.422513
v -0.570166 -0.038149 0.417780
v -0.569925 -0.035540 0.417857
v -0.569794 -0.033263 0.417124
v -0.570483 -0.031429 0.416233
v -0.568252 -0.046835 0.415595
v -0.568074 -0.044194 0.417094
v -0.568813 -0.048525 0.415965
v -0.567673 -0.041601 0.418118
v -0.570237 -0.045977 0.415296
v -0.569918 -0.043694 0.416382
v -0.570467 -0.047876 0.415667
v -0.569324 -0.041235 0.417223
v -0.568892 -0.038643 0.417815
v -0.567177 -0.038984 0.418700
v -0.568658 -0.036051 0.417830
v -0.566892 -0.036698 0.418388
v -0.568424 -0.033268 0.417388
v -0.566529 -0.034212 0.417967
v -0.568015 -0.031101 0.416531
v -0.566125 -0.032055 0.417298
v -0.569950 -0.030655 0.416007
v -0.569558 -0.029510 0.415556
v -0.564989 -0.034296 0.418836
v -0.565315 -0.036640 0.419754
v -0.564461 -0.032070 0.418218
v -0.563729 -0.033557 0.419943
v -0.564069 -0.035215 0.420608
v -0.563091 -0.031699 0.419385
v -0.562656 -0.032968 0.421983
v -0.561517 -0.032131 0.424886
v -0.559782 -0.032748 0.426394
v -0.558020 -0.034108 0.426845
v -0.556505 -0.034556 0.427582
v -0.556746 -0.035157 0.427607
v -0.557267 -0.034976 0.428090
v -0.562568 -0.030149 0.421874
v -0.562320 -0.029096 0.424115
v -0.560725 -0.030450 0.425832
v -0.562907 -0.026422 0.421838
v -0.563312 -0.026034 0.422646
v -0.560778 -0.027829 0.425601
v -0.561776 -0.029608 0.418914
v -0.561294 -0.028210 0.420662
v -0.561860 -0.025563 0.420389
v -0.563431 -0.030020 0.417070
v -0.565487 -0.029937 0.415357
v -0.567785 -0.029753 0.415262
v -0.569181 -0.028191 0.414178
v -0.564150 -0.024270 0.420017
v -0.565206 -0.023799 0.420979
v -0.563054 -0.023614 0.418590
v -0.562305 -0.025517 0.425331
v -0.560210 -0.026075 0.426489
v -0.559110 -0.027606 0.427987
v -0.559615 -0.028556 0.427289
v -0.559412 -0.030325 0.427290
v -0.566281 -0.023484 0.423222
v -0.564687 -0.023171 0.425638
v -0.567623 -0.023428 0.421361
v -0.560568 -0.024819 0.427988
v -0.559031 -0.025571 0.427764
v -0.558323 -0.027300 0.428665
v -0.563342 -0.023148 0.426670
v -0.559619 -0.028893 0.418114
v -0.558670 -0.027208 0.420073
v -0.560266 -0.023950 0.419147
v -0.561812 -0.029009 0.415770
v -0.563291 -0.029075 0.413617
v -0.567882 -0.029141 0.413814
v -0.566084 -0.029175 0.413481
v -0.564313 -0.029069 0.411747
v -0.569298 -0.027983 0.412728
v -0.571022 -0.029183 0.415412
v -0.570603 -0.027854 0.414930
v -0.571420 -0.030164 0.415745
v -0.570024 -0.025631 0.413108
v -0.569891 -0.026599 0.411463
v -0.573877 -0.030160 0.415878
v -0.572684 -0.030048 0.415912
v -0.575367 -0.030124 0.415578
v -0.572443 -0.029209 0.415681
v -0.575576 -0.028514 0.415258
v -0.575115 -0.026582 0.415745
v -0.574442 -0.025142 0.416684
v -0.568690 -0.023807 0.419504
v -0.569453 -0.023783 0.417951
v -0.572289 -0.027885 0.415359
v -0.570675 -0.024193 0.413564
v -0.569732 -0.023753 0.410054
v -0.569999 -0.025493 0.409309
v -0.569823 -0.021655 0.410536
v -0.568541 -0.027924 0.411880
v -0.567678 -0.028603 0.412518
v -0.566454 -0.028636 0.412063
v -0.569082 -0.026997 0.410733
v -0.565116 -0.028590 0.410832
v -0.563353 -0.028961 0.409506
v -0.561581 -0.028318 0.410742
v -0.564220 -0.028502 0.408912
v -0.559662 -0.028378 0.412249
v -0.562736 -0.028781 0.407332
v -0.560510 -0.027563 0.407616
v -0.563782 -0.028702 0.407262
v -0.558130 -0.027178 0.407617
v -0.562984 -0.028716 0.404952
v -0.561084 -0.027638 0.404269
v -0.559114 -0.026928 0.403159
v -0.564164 -0.028700 0.405811
v -0.564185 -0.028408 0.403379
v -0.562402 -0.027436 0.401551
v -0.560654 -0.026219 0.399815
v -0.564838 -0.028579 0.404872
v -0.557695 -0.029325 0.413938
v -0.556455 -0.028749 0.409864
v -0.556255 -0.025786 0.401511
v -0.555591 -0.026970 0.405206
v -0.554887 -0.028340 0.408176
v -0.557614 -0.023620 0.397534
v -0.555086 -0.030398 0.411437
v -0.556205 -0.030795 0.414779
v -0.553829 -0.029782 0.410280
v -0.556704 -0.029855 0.418046
v -0.552920 -0.027122 0.404735
v -0.552867 -0.027978 0.407741
v -0.552507 -0.025368 0.401154
v -0.552406 -0.029064 0.410087
v -0.552329 -0.022626 0.398192
v -0.556045 -0.028366 0.419311
v -0.569271 -0.026275 0.409365
v -0.553418 -0.029685 0.411572
v -0.554248 -0.029926 0.412749
v -0.555052 -0.030040 0.414910
v -0.552592 -0.029019 0.411486
v -0.555456 -0.029718 0.416991
v -0.555105 -0.028693 0.417648
v -0.554993 -0.026297 0.418738
v -0.556625 -0.024153 0.418858
v -0.558006 -0.021290 0.417742
v -0.554437 -0.027250 0.417248
v -0.549126 -0.025341 0.401924
v -0.550106 -0.026484 0.406053
v -0.550902 -0.026655 0.408955
v -0.548359 -0.022912 0.399100
v -0.548779 -0.023454 0.403357
v -0.549630 -0.024010 0.406170
v -0.548052 -0.021347 0.400937
v -0.550371 -0.024012 0.408159
v -0.551175 -0.027615 0.410845
v -0.551303 -0.024223 0.410699
v -0.551046 -0.025925 0.411894
v -0.551308 -0.022297 0.409674
v -0.551858 -0.027912 0.411822
v -0.551682 -0.026980 0.412410
v -0.552493 -0.022943 0.412414
v -0.551871 -0.025036 0.413233
v -0.552389 -0.026630 0.413565
v -0.552533 -0.020710 0.411735
v -0.553400 -0.022291 0.414571
v -0.552836 -0.024506 0.415018
v -0.553324 -0.026408 0.415213
v -0.553947 -0.019656 0.414523
v -0.554789 -0.022320 0.417157
v -0.553865 -0.024841 0.417043
v -0.553844 -0.026367 0.416421
v -0.555696 -0.019691 0.417149
v -0.551957 -0.019003 0.395792
v -0.547609 -0.019254 0.396897
v -0.556816 -0.019297 0.394335
v -0.547416 -0.017993 0.399191
v -0.551661 -0.014912 0.394573
v -0.547254 -0.014905 0.395878
v -0.547066 -0.013893 0.398403
v -0.556423 -0.014671 0.392919
v -0.551552 -0.010948 0.394502
v -0.547121 -0.010950 0.395830
v -0.546989 -0.010702 0.398425
v -0.556287 -0.010717 0.392784
v -0.564199 -0.026546 0.400049
v -0.563159 -0.025301 0.397629
v -0.561981 -0.023284 0.394883
v -0.565685 -0.027570 0.402974
v -0.565696 -0.028170 0.404523
v -0.565849 -0.025095 0.402068
v -0.564949 -0.024381 0.399786
v -0.567253 -0.026514 0.404272
v -0.566568 -0.024402 0.403723
v -0.566805 -0.027264 0.405505
v -0.564339 -0.023565 0.397872
v -0.563599 -0.022038 0.395288
v -0.565225 -0.022560 0.401844
v -0.564886 -0.022629 0.400348
v -0.565554 -0.021944 0.403660
v -0.564346 -0.021743 0.399140
v -0.563646 -0.020320 0.396854
v -0.568337 -0.025534 0.405663
v -0.567283 -0.023313 0.405574
v -0.567793 -0.026438 0.406833
v -0.566133 -0.020946 0.405712
v -0.569347 -0.025186 0.407332
v -0.568412 -0.022982 0.407360
v -0.567260 -0.020448 0.407590
v -0.568673 -0.026156 0.408192
v -0.570259 -0.022944 0.414408
v -0.570320 -0.020743 0.411939
v -0.547558 -0.030897 0.466084
v -0.547517 -0.030074 0.466406
v -0.546972 -0.030258 0.466778
v -0.547524 -0.031552 0.466408
v -0.573668 -0.027157 0.415592
v -0.568430 -0.017307 0.409985
v -0.566523 -0.017040 0.408191
v -0.569887 -0.017140 0.411451
v -0.565203 -0.016768 0.406144
v -0.564198 -0.016725 0.403489
v -0.564171 -0.020017 0.401038
v -0.563274 -0.018012 0.398666
v -0.565857 -0.027456 0.406696
v -0.564918 -0.027938 0.407764
v -0.567088 -0.027849 0.411075
v -0.565847 -0.027741 0.409780
v -0.567943 -0.026797 0.409655
v -0.566841 -0.026833 0.408345
v -0.561139 -0.019742 0.392467
v -0.562954 -0.019044 0.392728
v -0.563173 -0.017499 0.394400
v -0.562920 -0.015399 0.396527
v -0.560808 -0.014332 0.390699
v -0.562798 -0.013924 0.390787
v -0.568636 -0.020229 0.413822
v -0.568560 -0.017207 0.413402
v -0.568801 -0.022242 0.415295
v -0.563157 -0.014534 0.400828
v -0.562916 -0.012743 0.398343
v -0.563399 -0.010128 0.394253
v -0.563264 -0.012200 0.394177
v -0.563327 -0.012726 0.392458
v -0.560737 -0.010221 0.390547
v -0.562708 -0.010093 0.390476
v -0.563421 -0.010025 0.392219
v -0.568985 -0.023338 0.416817
v -0.549080 -0.031056 0.465495
v -0.549260 -0.030015 0.465946
v -0.564473 -0.020443 0.427163
v -0.566985 -0.023802 0.418705
v -0.562304 -0.021319 0.427999
v -0.561416 -0.022956 0.428334
v -0.558841 -0.025195 0.429450
v -0.566955 -0.022995 0.416908
v -0.566138 -0.022111 0.415988
v -0.565777 -0.023554 0.418118
v -0.565573 -0.020191 0.415174
v -0.565583 -0.017656 0.415352
v -0.574029 -0.028806 0.415579
v -0.550924 -0.019805 0.407775
v -0.552428 -0.017270 0.411492
v -0.549992 -0.019822 0.404911
v -0.549419 -0.018464 0.402866
v -0.548882 -0.016342 0.401335
v -0.548662 -0.013315 0.400739
v -0.548573 -0.010834 0.400699
v -0.549398 -0.011267 0.402270
v -0.549383 -0.012873 0.402118
v -0.549687 -0.014313 0.402856
v -0.550197 -0.015638 0.404344
v -0.550726 -0.016130 0.406307
v -0.551150 -0.016236 0.407964
v -0.551568 -0.014610 0.409454
v -0.554063 -0.016833 0.414898
v -0.556080 -0.017259 0.417425
v -0.559365 -0.018933 0.417158
v -0.551050 -0.013595 0.407438
v -0.550589 -0.012816 0.405560
v -0.550020 -0.012072 0.403843
v -0.554483 -0.028757 0.415230
v -0.553851 -0.027518 0.415245
v -0.552933 -0.027653 0.413427
v -0.553611 -0.028768 0.413193
v -0.560974 -0.022140 0.417283
v -0.557209 -0.025709 0.428673
v -0.557093 -0.027459 0.429001
v -0.556370 -0.025905 0.431351
v -0.555431 -0.026883 0.429942
v -0.556224 -0.027986 0.429900
v -0.554296 -0.028547 0.432042
v -0.553704 -0.029189 0.430476
v -0.555174 -0.029662 0.430004
v -0.553201 -0.032141 0.429947
v -0.553941 -0.031613 0.429556
v -0.554507 -0.034532 0.429030
v -0.554756 -0.034049 0.428687
v -0.555193 -0.032505 0.429013
v -0.556658 -0.034417 0.430403
v -0.556804 -0.032987 0.428799
v -0.557896 -0.032722 0.428292
v -0.558895 -0.031943 0.427627
v -0.564160 -0.022788 0.417136
v -0.562596 -0.021005 0.416147
v -0.562316 -0.018278 0.416721
v -0.570776 -0.049516 0.416944
v -0.572155 -0.049465 0.416932
v -0.569436 -0.049981 0.417259
v -0.573298 -0.049734 0.417398
v -0.573788 -0.051485 0.418257
v -0.573798 -0.053234 0.418992
v -0.572784 -0.054363 0.419988
v -0.571304 -0.054950 0.420807
v -0.569632 -0.054556 0.420928
v -0.568372 -0.053395 0.420053
v -0.568325 -0.052026 0.419028
v -0.568437 -0.050546 0.417588
v -0.572472 -0.051608 0.419247
v -0.571213 -0.051763 0.419693
v -0.569893 -0.051988 0.419666
v -0.561612 -0.023300 0.432468
v -0.558395 -0.024015 0.437267
v -0.557214 -0.024342 0.438832
v -0.555903 -0.024615 0.440790
v -0.555379 -0.024812 0.442696
v -0.557828 -0.030281 0.429126
v -0.556926 -0.030148 0.429833
v -0.558561 -0.030265 0.428327
v -0.570359 -0.020770 0.432964
v -0.569408 -0.021901 0.436812
v -0.568489 -0.023167 0.440461
v -0.566800 -0.023844 0.442958
v -0.562068 -0.025936 0.450421
v -0.562984 -0.025714 0.449545
v -0.563868 -0.025359 0.448270
v -0.561477 -0.026267 0.451549
v -0.560427 -0.026976 0.453906
v -0.559472 -0.027703 0.456415
v -0.558845 -0.028488 0.459034
v -0.557514 -0.029851 0.463474
v -0.555195 -0.030442 0.466248
v -0.552198 -0.030733 0.467661
v -0.550549 -0.030852 0.468361
v -0.548770 -0.031591 0.467636
v -0.548622 -0.030695 0.468161
v -0.548875 -0.029773 0.468217
v -0.569897 -0.019984 0.430251
v -0.569983 -0.014274 0.412149
v -0.568314 -0.013639 0.410896
v -0.566343 -0.013129 0.409330
v -0.564915 -0.012334 0.407392
v -0.563953 -0.011523 0.405014
v -0.563178 -0.010702 0.402267
v -0.563036 -0.009758 0.399637
v -0.563507 -0.008169 0.394662
v -0.563517 -0.007540 0.392684
v -0.562746 -0.007074 0.391234
v -0.560759 -0.007104 0.391317
v -0.556322 -0.007527 0.393466
v -0.551657 -0.007761 0.395105
v -0.566234 -0.018809 0.427190
v -0.564642 -0.018694 0.427467
v -0.547253 -0.007870 0.396255
v -0.547058 -0.008687 0.398863
v -0.554114 -0.014278 0.415482
v -0.556203 -0.015282 0.417919
v -0.552661 -0.013276 0.412632
v -0.551763 -0.012641 0.410349
v -0.548682 -0.009408 0.401143
v -0.568562 -0.014591 0.413848
v -0.565621 -0.015166 0.415872
v -0.559756 -0.015535 0.418105
v -0.562471 -0.015466 0.417696
v -0.562857 -0.018898 0.428529
v -0.562628 -0.020338 0.433011
v -0.559043 -0.021670 0.437787
v -0.557706 -0.022106 0.439574
v -0.556492 -0.022729 0.441664
v -0.556035 -0.023245 0.443422
v -0.555860 -0.023657 0.444744
v -0.551667 -0.026735 0.455250
v -0.550861 -0.028002 0.459286
v -0.550273 -0.029384 0.463755
v -0.552916 -0.026091 0.452460
v -0.554205 -0.025474 0.450285
v -0.555451 -0.024592 0.447710
v -0.555685 -0.024122 0.446191
v -0.565384 -0.024220 0.444816
v -0.564643 -0.024880 0.446510
v -0.551223 -0.011938 0.408289
v -0.550751 -0.011286 0.406292
v -0.549462 -0.010025 0.402612
v -0.550134 -0.010523 0.404380
v -0.549203 -0.029006 0.466153
v -0.547675 -0.028968 0.467232
v -0.547652 -0.029317 0.466590
f 1 2 3
f 1 3 4
f 5 6 7
f 5 7 8
f 5 8 9
f 5 9 10
f 10 9 11
f 10 11 12
f 13 14 12
f 13 12 11
f 15 16 14
f 15 14 13
f 17 16 15
f 17 15 18
f 19 20 21
f 19 21 22
f 23 24 25
f 23 25 26
f 27 23 26
f 27 26 28
f 29 30 24
f 29 24 23
f 29 1 4
f 29 4 30
f 31 29 23
f 31 23 27
f 32 1 29
f 32 29 33
f 34 35 36
f 34 36 37
f 38 33 29
f 38 29 31
f 38 31 34
f 38 34 37
f 39 40 27
f 39 27 28
f 40 41 35
f 40 35 34
f 40 34 31
f 40 31 27
f 42 28 26
f 42 26 43
f 44 39 28
f 44 28 42
f 45 46 42
f 45 42 43
f 47 43 26
f 47 26 25
f 48 45 43
f 48 43 47
f 49 48 47
f 49 47 50
f 44 42 46
f 44 46 51
f 50 47 25
f 50 25 52
f 52 25 24
f 52 24 53
f 54 44 51
f 54 51 55
f 56 39 44
f 56 44 54
f 40 39 56
f 40 56 57
f 58 41 40
f 58 40 57
f 59 60 52
f 59 52 53
f 61 50 52
f 61 52 60
f 62 49 50
f 62 50 61
f 63 64 65
f 63 65 66
f 66 65 67
f 66 67 68
f 66 68 62
f 66 62 61
f 66 61 60
f 66 60 63
f 69 63 60
f 69 60 59
f 70 71 64
f 70 64 63
f 72 71 70
f 72 70 73
f 70 63 69
f 70 69 74
f 74 69 75
f 74 75 76
f 76 73 70
f 76 70 74
f 76 75 77
f 76 77 78
f 73 76 78
f 73 78 79
f 72 73 79
f 72 79 80
f 81 41 58
f 81 58 82
f 83 81 82
f 83 82 84
f 85 86 83
f 85 83 84
f 87 22 86
f 87 86 85
f 88 19 22
f 88 22 87
f 89 90 19
f 89 19 88
f 91 92 90
f 91 90 89
f 93 94 92
f 93 92 91
f 95 96 94
f 95 94 93
f 97 36 96
f 97 96 95
f 98 99 100
f 98 100 101
f 101 100 80
f 101 80 102
f 102 80 79
f 102 79 103
f 104 105 106
f 104 106 107
f 108 102 103
f 108 103 109
f 106 105 108
f 106 108 109
f 103 79 78
f 103 78 110
f 111 107 106
f 111 106 112
f 113 109 103
f 113 103 110
f 112 106 109
f 112 109 113
f 114 107 111
f 114 111 115
f 116 114 115
f 116 115 117
f 118 104 107
f 118 107 119
f 120 121 122
f 120 122 123
f 124 125 121
f 124 121 120
f 126 118 125
f 126 125 124
f 127 104 118
f 127 118 126
f 128 102 108
f 128 108 129
f 130 101 102
f 130 102 128
f 131 98 101
f 131 101 130
f 132 133 134
f 132 134 135
f 136 137 133
f 136 133 132
f 136 120 123
f 136 123 137
f 119 107 114
f 119 114 138
f 138 114 116
f 138 116 139
f 125 118 119
f 125 119 140
f 141 121 125
f 141 125 140
f 142 122 121
f 142 121 141
f 140 119 138
f 140 138 143
f 143 138 139
f 143 139 144
f 145 141 140
f 145 140 143
f 146 147 134
f 146 134 133
f 148 149 147
f 148 147 146
f 150 151 122
f 150 122 142
f 152 123 122
f 152 122 151
f 152 151 150
f 152 150 153
f 142 141 145
f 142 145 154
f 150 142 154
f 150 154 155
f 156 153 150
f 156 150 155
f 157 146 133
f 157 133 137
f 158 148 146
f 158 146 157
f 157 137 123
f 157 123 152
f 157 152 153
f 157 153 158
f 153 156 159
f 153 159 158
f 160 143 144
f 160 144 161
f 162 145 143
f 162 143 160
f 154 145 162
f 154 162 163
f 155 154 163
f 155 163 164
f 165 156 155
f 165 155 164
f 166 165 164
f 166 164 167
f 167 164 163
f 167 163 168
f 169 159 156
f 169 156 165
f 169 165 166
f 169 166 170
f 170 166 167
f 170 167 171
f 172 171 167
f 172 167 168
f 168 163 162
f 168 162 173
f 174 172 168
f 174 168 173
f 173 162 160
f 173 160 175
f 174 173 175
f 174 175 176
f 175 160 161
f 175 161 177
f 176 175 177
f 176 177 178
f 179 129 108
f 179 108 105
f 179 105 104
f 179 104 127
f 37 36 97
f 37 97 180
f 181 38 37
f 181 37 180
f 182 33 38
f 182 38 181
f 183 32 33
f 183 33 182
f 180 97 184
f 180 184 185
f 181 180 185
f 181 185 186
f 182 181 186
f 182 186 187
f 183 182 187
f 183 187 188
f 189 85 84
f 189 84 190
f 87 85 189
f 87 189 191
f 192 88 87
f 192 87 191
f 89 88 192
f 89 192 193
f 91 89 193
f 91 193 194
f 93 91 194
f 93 194 195
f 95 93 195
f 95 195 196
f 197 198 95
f 197 95 196
f 184 97 95
f 184 95 198
f 196 195 194
f 196 194 199
f 200 201 202
f 200 202 203
f 204 205 197
f 204 197 206
f 206 197 196
f 206 196 199
f 199 194 193
f 199 193 207
f 190 84 82
f 190 82 208
f 191 189 190
f 191 190 209
f 210 116 117
f 210 117 211
f 212 139 116
f 212 116 210
f 144 139 212
f 144 212 213
f 161 144 213
f 161 213 214
f 177 161 214
f 177 214 215
f 178 177 215
f 178 215 216
f 217 216 215
f 217 215 218
f 218 215 214
f 218 214 219
f 219 214 213
f 219 213 220
f 220 213 212
f 220 212 221
f 221 212 210
f 221 210 222
f 210 211 223
f 210 223 222
f 223 211 224
f 223 224 225
f 226 225 224
f 226 224 227
f 226 227 228
f 226 228 229
f 230 226 229
f 230 229 231
f 232 225 226
f 232 226 230
f 222 223 225
f 222 225 232
f 233 221 222
f 233 222 232
f 234 220 221
f 234 221 233
f 235 219 220
f 235 220 234
f 236 218 219
f 236 219 235
f 237 217 218
f 237 218 236
f 238 239 228
f 238 228 240
f 240 228 227
f 240 227 241
f 241 227 224
f 241 224 242
f 242 224 211
f 242 211 243
f 243 211 117
f 243 117 244
f 244 117 115
f 244 115 245
f 245 115 111
f 245 111 246
f 247 246 111
f 247 111 112
f 247 112 113
f 247 113 248
f 249 248 250
f 249 250 251
f 252 247 248
f 252 248 249
f 253 254 245
f 253 245 246
f 253 246 247
f 253 247 252
f 255 244 245
f 255 245 254
f 256 257 242
f 256 242 243
f 256 243 244
f 256 244 255
f 258 241 242
f 258 242 257
f 255 254 253
f 255 253 259
f 260 258 257
f 260 257 256
f 260 256 255
f 260 255 259
f 261 252 249
f 261 249 251
f 262 263 238
f 262 238 240
f 262 240 241
f 262 241 258
f 259 253 252
f 259 252 261
f 264 263 262
f 264 262 265
f 265 260 259
f 265 259 261
f 264 266 238
f 264 238 263
f 251 250 266
f 251 266 264
f 265 261 251
f 265 251 264
f 265 262 258
f 265 258 260
f 110 78 77
f 110 77 267
f 239 238 266
f 239 266 268
f 250 248 113
f 250 113 269
f 269 113 110
f 269 110 267
f 268 266 250
f 268 250 269
f 270 229 228
f 270 228 239
f 271 77 75
f 271 75 272
f 186 185 273
f 186 273 274
f 273 185 184
f 273 184 275
f 276 277 274
f 276 274 273
f 278 77 271
f 278 271 276
f 279 267 77
f 279 77 278
f 280 269 267
f 280 267 279
f 281 268 269
f 281 269 280
f 270 239 268
f 270 268 281
f 282 276 273
f 282 273 275
f 283 198 197
f 283 197 284
f 275 184 198
f 275 198 283
f 278 276 282
f 278 282 285
f 286 279 278
f 286 278 285
f 280 279 286
f 280 286 287
f 231 229 270
f 231 270 288
f 281 280 287
f 281 287 289
f 288 270 281
f 288 281 289
f 289 287 290
f 289 290 291
f 290 287 286
f 290 286 292
f 293 283 284
f 293 284 294
f 293 282 275
f 293 275 283
f 284 197 205
f 284 205 294
f 285 282 293
f 285 293 295
f 295 293 294
f 295 294 296
f 295 292 286
f 295 286 285
f 297 292 295
f 297 295 296
f 298 290 292
f 298 292 297
f 299 291 290
f 299 290 298
f 207 193 192
f 207 192 300
f 301 206 199
f 301 199 207
f 302 204 206
f 302 206 301
f 303 304 204
f 303 204 302
f 305 208 82
f 305 82 306
f 307 99 304
f 307 304 303
f 308 307 303
f 308 303 309
f 308 309 305
f 308 305 306
f 310 72 80
f 310 80 100
f 306 82 58
f 306 58 311
f 310 100 99
f 310 99 307
f 308 306 311
f 308 311 312
f 310 307 308
f 310 308 312
f 71 72 310
f 71 310 313
f 311 58 57
f 311 57 314
f 312 311 314
f 312 314 315
f 313 310 312
f 313 312 315
f 314 57 56
f 314 56 316
f 64 71 313
f 64 313 317
f 318 317 313
f 318 313 315
f 318 315 314
f 318 314 316
f 316 56 54
f 316 54 319
f 65 64 317
f 65 317 320
f 321 320 317
f 321 317 318
f 321 318 316
f 321 316 319
f 319 54 55
f 319 55 322
f 323 67 65
f 323 65 320
f 324 323 320
f 324 320 321
f 324 321 319
f 324 319 322
f 325 323 324
f 325 324 326
f 326 324 322
f 326 322 327
f 327 322 55
f 327 55 328
f 328 55 51
f 328 51 329
f 329 51 46
f 329 46 330
f 330 46 45
f 330 45 331
f 331 45 48
f 331 48 332
f 332 48 49
f 332 49 333
f 333 49 62
f 333 62 334
f 335 334 62
f 335 62 68
f 336 67 323
f 336 323 325
f 336 335 68
f 336 68 67
f 337 326 327
f 337 327 338
f 339 325 326
f 339 326 337
f 336 325 339
f 336 339 340
f 341 335 336
f 341 336 340
f 342 334 335
f 342 335 341
f 343 333 334
f 343 334 342
f 344 332 333
f 344 333 343
f 345 331 332
f 345 332 344
f 346 330 331
f 346 331 345
f 347 329 330
f 347 330 346
f 348 338 327
f 348 327 328
f 348 328 329
f 348 329 347
f 349 339 337
f 349 337 350
f 350 337 338
f 350 338 351
f 351 338 348
f 351 348 352
f 352 348 347
f 352 347 353
f 346 345 354
f 346 354 355
f 353 347 346
f 353 346 355
f 356 352 353
f 356 353 355
f 356 350 351
f 356 351 352
f 340 339 349
f 340 349 357
f 358 341 340
f 358 340 357
f 359 343 342
f 359 342 360
f 361 349 350
f 361 350 356
f 356 355 354
f 356 354 361
f 342 341 358
f 342 358 360
f 362 359 360
f 362 360 363
f 344 343 359
f 344 359 362
f 354 345 344
f 354 344 362
f 363 361 354
f 363 354 362
f 357 349 361
f 357 361 363
f 360 358 357
f 360 357 363
f 364 90 92
f 364 92 365
f 20 19 90
f 20 90 364
f 366 20 364
f 366 364 365
f 367 21 20
f 367 20 366
f 86 22 21
f 86 21 367
f 368 83 86
f 368 86 367
f 365 92 94
f 365 94 369
f 368 367 366
f 368 366 370
f 370 366 365
f 370 365 369
f 371 35 41
f 371 41 372
f 373 36 35
f 373 35 371
f 96 36 373
f 96 373 374
f 369 94 96
f 369 96 374
f 372 41 81
f 372 81 375
f 375 81 83
f 375 83 368
f 376 371 372
f 376 372 375
f 375 368 370
f 375 370 376
f 376 370 369
f 376 369 374
f 374 373 371
f 374 371 376
f 187 186 274
f 187 274 377
f 377 274 277
f 377 277 378
f 188 187 377
f 188 377 379
f 3 2 380
f 3 380 381
f 382 381 380
f 382 380 383
f 380 2 384
f 380 384 385
f 383 380 385
f 383 385 386
f 387 377 378
f 387 378 388
f 389 379 377
f 389 377 387
f 390 391 392
f 390 392 382
f 387 388 391
f 387 391 390
f 390 393 389
f 390 389 387
f 394 390 382
f 394 382 383
f 393 390 394
f 393 394 395
f 396 394 383
f 396 383 386
f 397 395 394
f 397 394 396
f 398 5 10
f 398 10 399
f 399 10 12
f 399 12 400
f 400 12 14
f 400 14 401
f 402 16 17
f 402 17 403
f 401 14 16
f 401 16 402
f 404 401 402
f 404 402 405
f 400 401 404
f 400 404 406
f 399 400 406
f 399 406 407
f 398 399 407
f 398 407 408
f 409 405 402
f 409 402 403
f 403 17 410
f 403 410 411
f 412 413 397
f 412 397 396
f 414 398 408
f 414 408 415
f 412 396 386
f 412 386 416
f 415 417 418
f 415 418 414
f 419 413 412
f 419 412 420
f 420 418 417
f 420 417 419
f 420 412 416
f 420 416 421
f 414 418 420
f 414 420 421
f 422 5 398
f 422 398 414
f 416 386 385
f 416 385 423
f 421 416 423
f 421 423 424
f 422 414 421
f 422 421 424
f 6 5 422
f 6 422 425
f 423 385 384
f 423 384 426
f 424 423 426
f 424 426 427
f 425 422 424
f 425 424 427
f 428 271 272
f 428 272 429
f 430 276 271
f 430 271 428
f 277 276 430
f 277 430 431
f 378 277 431
f 378 431 432
f 388 378 432
f 388 432 433
f 391 388 433
f 391 433 434
f 392 391 434
f 392 434 435
f 436 392 435
f 436 435 437
f 438 430 428
f 438 428 439
f 428 429 440
f 428 440 439
f 440 429 441
f 440 441 442
f 443 438 439
f 443 439 444
f 431 430 438
f 431 438 443
f 445 432 431
f 445 431 443
f 444 439 440
f 444 440 442
f 446 447 437
f 446 437 448
f 444 442 449
f 444 449 450
f 448 437 435
f 448 435 451
f 435 434 452
f 435 452 451
f 450 449 446
f 450 446 453
f 450 445 443
f 450 443 444
f 433 432 445
f 433 445 454
f 454 445 450
f 454 450 453
f 452 434 433
f 452 433 454
f 453 451 452
f 453 452 454
f 446 448 451
f 446 451 453
f 455 382 392
f 455 392 436
f 456 59 53
f 456 53 457
f 441 429 272
f 441 272 458
f 458 69 59
f 458 59 456
f 272 75 69
f 272 69 458
f 459 436 437
f 459 437 447
f 460 4 3
f 460 3 461
f 30 4 460
f 30 460 462
f 24 30 462
f 24 462 463
f 457 53 24
f 457 24 463
f 458 456 457
f 458 457 464
f 464 465 466
f 464 466 458
f 461 3 381
f 461 381 467
f 467 381 382
f 467 382 455
f 462 460 461
f 462 461 468
f 469 436 459
f 469 459 470
f 467 455 436
f 467 436 469
f 469 470 471
f 469 471 468
f 468 461 467
f 468 467 469
f 470 459 466
f 470 466 465
f 470 465 464
f 470 464 471
f 463 462 468
f 463 468 471
f 464 457 463
f 464 463 471
f 192 191 209
f 192 209 300
f 300 209 472
f 300 472 473
f 473 301 207
f 473 207 300
f 208 305 474
f 208 474 472
f 209 190 208
f 209 208 472
f 475 147 149
f 475 149 476
f 477 478 479
f 477 479 475
f 477 475 476
f 477 476 480
f 478 205 204
f 478 204 479
f 297 296 294
f 297 294 481
f 482 483 299
f 482 299 298
f 481 294 205
f 481 205 478
f 481 478 477
f 481 477 482
f 481 482 298
f 481 298 297
f 482 477 480
f 482 480 483
f 479 204 304
f 479 304 484
f 485 134 147
f 485 147 475
f 484 304 99
f 484 99 98
f 484 98 131
f 484 131 486
f 484 486 487
f 484 487 485
f 484 485 475
f 484 475 479
f 487 135 134
f 487 134 485
f 128 129 488
f 128 488 489
f 490 130 128
f 490 128 489
f 131 130 490
f 131 490 491
f 492 491 490
f 492 490 489
f 493 487 486
f 493 486 494
f 486 131 491
f 486 491 494
f 495 132 135
f 495 135 496
f 497 494 491
f 497 491 492
f 496 493 494
f 496 494 497
f 135 487 493
f 135 493 496
f 136 132 495
f 136 495 498
f 499 120 136
f 499 136 498
f 500 124 120
f 500 120 499
f 501 495 496
f 501 496 497
f 498 495 501
f 498 501 502
f 500 499 498
f 500 498 502
f 503 127 126
f 503 126 504
f 505 501 497
f 505 497 492
f 126 124 500
f 126 500 504
f 492 489 488
f 492 488 505
f 506 179 127
f 506 127 503
f 504 500 502
f 504 502 507
f 488 129 179
f 488 179 506
f 506 503 504
f 506 504 507
f 507 505 488
f 507 488 506
f 502 501 505
f 502 505 507
f 508 232 230
f 508 230 509
f 233 232 508
f 233 508 510
f 234 233 510
f 234 510 511
f 512 510 508
f 512 508 509
f 235 234 511
f 235 511 513
f 514 236 235
f 514 235 513
f 237 236 514
f 237 514 515
f 511 510 512
f 511 512 516
f 517 515 514
f 517 514 513
f 517 513 511
f 517 511 516
f 466 459 447
f 466 447 518
f 441 458 466
f 441 466 518
f 518 447 446
f 518 446 449
f 449 442 441
f 449 441 518
f 519 473 472
f 519 472 474
f 309 303 302
f 309 302 519
f 519 302 301
f 519 301 473
f 519 474 305
f 519 305 309
f 520 521 522
f 520 522 523
f 524 525 520
f 524 520 523
f 526 527 528
f 526 528 522
f 522 521 529
f 522 529 526
f 528 527 530
f 528 530 531
f 531 532 533
f 531 533 528
f 521 520 534
f 521 534 535
f 536 537 529
f 536 529 521
f 535 538 536
f 535 536 521
f 520 525 539
f 520 539 534
f 540 541 527
f 540 527 526
f 526 529 542
f 526 542 540
f 527 541 543
f 527 543 530
f 537 544 542
f 537 542 529
f 540 542 545
f 540 545 541
f 542 544 546
f 542 546 545
f 545 547 543
f 545 543 541
f 530 543 548
f 530 548 549
f 549 550 531
f 549 531 530
f 547 551 548
f 547 548 543
f 544 537 552
f 544 552 553
f 544 553 554
f 544 554 546
f 536 555 556
f 536 556 537
f 537 556 557
f 537 557 552
f 532 558 559
f 532 559 533
f 559 558 560
f 559 560 561
f 562 563 564
f 562 564 565
f 561 560 562
f 561 562 565
f 563 566 567
f 563 567 564
f 566 563 568
f 566 568 569
f 563 562 570
f 563 570 571
f 563 571 572
f 563 572 568
f 560 573 570
f 560 570 562
f 558 532 574
f 558 574 575
f 558 575 573
f 558 573 560
f 532 531 550
f 532 550 574
f 576 577 574
f 576 574 550
f 550 549 578
f 550 578 576
f 577 579 575
f 577 575 574
f 575 579 580
f 575 580 573
f 581 582 571
f 581 571 570
f 570 583 584
f 570 584 581
f 573 580 583
f 573 583 570
f 582 585 572
f 582 572 571
f 568 572 586
f 568 586 587
f 587 588 569
f 587 569 568
f 585 589 586
f 585 586 572
f 588 587 590
f 588 590 591
f 587 586 592
f 587 592 590
f 589 593 592
f 589 592 586
f 591 590 594
f 591 594 595
f 590 592 596
f 590 596 594
f 593 597 596
f 593 596 592
f 598 599 594
f 598 594 596
f 597 600 598
f 597 598 596
f 599 601 595
f 599 595 594
f 602 603 599
f 602 599 598
f 604 605 606
f 604 606 607
f 607 606 608
f 607 608 609
f 607 610 611
f 607 611 604
f 612 613 610
f 612 610 607
f 609 614 612
f 609 612 607
f 605 615 616
f 605 616 606
f 606 616 617
f 606 617 608
f 556 555 618
f 556 618 619
f 556 619 620
f 556 620 557
f 615 621 622
f 615 622 616
f 616 622 623
f 616 623 624
f 616 624 625
f 616 625 617
f 622 621 626
f 622 626 627
f 622 627 628
f 622 628 623
f 610 629 630
f 610 630 611
f 613 631 629
f 613 629 610
f 629 632 633
f 629 633 630
f 631 634 632
f 631 632 629
f 632 635 636
f 632 636 633
f 634 637 635
f 634 635 632
f 635 638 639
f 635 639 636
f 637 640 638
f 637 638 635
f 638 641 642
f 638 642 639
f 640 643 641
f 640 641 638
f 644 645 642
f 644 642 641
f 643 646 644
f 643 644 641
f 633 636 639
f 633 639 647
f 647 648 630
f 647 630 633
f 639 642 645
f 639 645 647
f 648 649 611
f 648 611 630
f 649 605 604
f 649 604 611
f 649 621 615
f 649 615 605
f 538 650 555
f 538 555 536
f 645 644 627
f 645 627 626
f 645 626 648
f 645 648 647
f 646 628 627
f 646 627 644
f 626 621 649
f 626 649 648
f 651 652 624
f 651 624 623
f 623 628 653
f 623 653 654
f 654 655 651
f 654 651 623
f 652 656 625
f 652 625 624
f 628 646 657
f 628 657 653
f 646 643 658
f 646 658 657
f 643 640 659
f 643 659 658
f 660 659 640
f 660 640 637
f 637 634 661
f 637 661 660
f 634 631 662
f 634 662 661
f 631 613 663
f 631 663 662
f 613 612 664
f 613 664 665
f 665 200 663
f 665 663 613
f 612 614 666
f 612 666 664
f 525 524 667
f 525 667 668
f 668 669 539
f 668 539 525
f 670 671 672
f 670 672 673
f 617 625 671
f 617 671 670
f 670 673 674
f 670 674 650
f 650 538 617
f 650 617 670
f 675 676 672
f 675 672 671
f 671 625 656
f 671 656 675
f 677 678 673
f 677 673 672
f 676 679 677
f 676 677 672
f 678 680 674
f 678 674 673
f 618 555 650
f 618 650 674
f 681 682 619
f 681 619 618
f 618 674 680
f 618 680 681
f 682 683 620
f 682 620 619
f 552 557 684
f 552 684 685
f 685 686 553
f 685 553 552
f 557 620 687
f 557 687 684
f 620 683 688
f 620 688 687
f 553 686 689
f 553 689 554
f 538 535 608
f 538 608 617
f 535 534 609
f 535 609 608
f 534 539 614
f 534 614 609
f 614 539 669
f 614 669 666
f 688 683 690
f 688 690 691
f 688 691 692
f 688 692 693
f 693 694 687
f 693 687 688
f 682 695 690
f 682 690 683
f 691 690 696
f 691 696 697
f 697 698 692
f 697 692 691
f 690 695 699
f 690 699 696
f 681 700 695
f 681 695 682
f 695 700 701
f 695 701 699
f 700 681 680
f 700 680 702
f 700 702 703
f 700 703 701
f 678 704 702
f 678 702 680
f 702 704 705
f 702 705 703
f 677 706 704
f 677 704 678
f 704 706 707
f 704 707 705
f 679 708 706
f 679 706 677
f 706 708 709
f 706 709 707
f 708 679 710
f 708 710 711
f 708 711 712
f 708 712 709
f 679 676 713
f 679 713 710
f 694 714 684
f 694 684 687
f 714 715 685
f 714 685 684
f 715 689 686
f 715 686 685
f 676 675 716
f 676 716 713
f 675 656 717
f 675 717 716
f 656 652 718
f 656 718 717
f 652 651 719
f 652 719 718
f 720 721 693
f 720 693 692
f 698 722 720
f 698 720 692
f 693 721 723
f 693 723 694
f 724 725 721
f 724 721 720
f 722 726 724
f 722 724 720
f 721 725 727
f 721 727 723
f 711 710 725
f 711 725 724
f 726 712 711
f 726 711 724
f 710 713 727
f 710 727 725
f 727 728 729
f 727 729 723
f 713 716 728
f 713 728 727
f 728 730 731
f 728 731 729
f 716 717 730
f 716 730 728
f 730 732 733
f 730 733 731
f 717 718 732
f 717 732 730
f 734 735 733
f 734 733 732
f 736 737 734
f 736 734 732
f 718 719 736
f 718 736 732
f 738 739 731
f 738 731 733
f 735 740 738
f 735 738 733
f 739 714 729
f 739 729 731
f 714 694 723
f 714 723 729
f 741 742 739
f 741 739 738
f 740 743 741
f 740 741 738
f 742 715 714
f 742 714 739
f 744 745 689
f 744 689 715
f 715 742 741
f 715 741 744
f 689 745 746
f 689 746 747
f 747 748 749
f 747 749 689
f 689 749 750
f 689 750 554
f 743 751 744
f 743 744 741
f 751 752 745
f 751 745 744
f 745 752 753
f 745 753 746
f 752 751 754
f 752 754 755
f 752 755 756
f 752 756 753
f 751 743 757
f 751 757 758
f 758 759 754
f 758 754 751
f 743 740 760
f 743 760 757
f 740 735 761
f 740 761 760
f 735 734 762
f 735 762 761
f 737 763 762
f 737 762 734
f 764 765 755
f 764 755 754
f 754 759 766
f 754 766 764
f 756 755 767
f 756 767 768
f 756 768 769
f 756 769 770
f 770 771 753
f 770 753 756
f 772 773 767
f 772 767 755
f 765 774 772
f 765 772 755
f 768 767 775
f 768 775 776
f 768 776 777
f 768 777 769
f 767 773 778
f 767 778 775
f 758 757 779
f 758 779 780
f 758 780 781
f 758 781 759
f 757 760 782
f 757 782 779
f 760 761 783
f 760 783 782
f 761 762 784
f 761 784 785
f 761 785 786
f 761 786 783
f 762 763 787
f 762 787 784
f 788 789 737
f 788 737 736
f 719 790 788
f 719 788 736
f 651 655 790
f 651 790 719
f 789 791 763
f 789 763 737
f 763 791 792
f 763 792 787
f 793 794 655
f 793 655 654
f 654 653 795
f 654 795 793
f 655 794 796
f 655 796 790
f 653 657 658
f 653 658 795
f 658 659 797
f 658 797 795
f 659 660 798
f 659 798 797
f 660 661 799
f 660 799 798
f 661 662 663
f 661 663 799
f 200 203 799
f 200 799 663
f 665 664 774
f 665 774 800
f 665 800 801
f 665 801 200
f 664 666 772
f 664 772 774
f 802 202 789
f 802 789 788
f 790 796 802
f 790 802 788
f 202 803 791
f 202 791 789
f 804 805 792
f 804 792 791
f 803 806 804
f 803 804 791
f 784 787 807
f 784 807 808
f 808 809 785
f 808 785 784
f 787 792 810
f 787 810 807
f 809 811 786
f 809 786 785
f 812 813 783
f 812 783 786
f 811 814 812
f 811 812 786
f 783 813 815
f 783 815 782
f 816 817 813
f 816 813 812
f 814 818 816
f 814 816 812
f 813 817 819
f 813 819 815
f 817 816 820
f 817 820 821
f 817 821 822
f 817 822 819
f 818 823 820
f 818 820 816
f 821 820 824
f 821 824 825
f 825 826 822
f 825 822 821
f 823 827 824
f 823 824 820
f 782 815 828
f 782 828 779
f 815 819 829
f 815 829 828
f 819 822 830
f 819 830 831
f 831 832 829
f 831 829 819
f 826 833 830
f 826 830 822
f 834 835 828
f 834 828 829
f 829 832 836
f 829 836 834
f 835 837 779
f 835 779 828
f 838 839 832
f 838 832 831
f 831 830 840
f 831 840 838
f 839 841 836
f 839 836 832
f 833 842 840
f 833 840 830
f 779 837 843
f 779 843 780
f 792 805 844
f 792 844 810
f 834 836 845
f 834 845 846
f 846 847 835
f 846 835 834
f 836 841 848
f 836 848 845
f 837 835 847
f 837 847 849
f 849 850 843
f 849 843 837
f 780 843 851
f 780 851 852
f 780 852 853
f 780 853 781
f 850 854 851
f 850 851 843
f 838 840 855
f 838 855 856
f 838 856 857
f 838 857 839
f 842 858 855
f 842 855 840
f 859 860 856
f 859 856 855
f 855 858 861
f 855 861 859
f 860 862 857
f 860 857 856
f 839 857 863
f 839 863 841
f 864 865 863
f 864 863 857
f 862 866 864
f 862 864 857
f 841 863 867
f 841 867 848
f 863 865 868
f 863 868 867
f 865 864 869
f 865 869 870
f 865 870 871
f 865 871 868
f 866 872 869
f 866 869 864
f 870 869 873
f 870 873 874
f 870 874 875
f 870 875 871
f 872 876 873
f 872 873 869
f 874 873 877
f 874 877 878
f 874 878 879
f 874 879 875
f 876 880 877
f 876 877 873
f 877 852 851
f 877 851 878
f 878 851 854
f 878 854 879
f 852 877 880
f 852 880 853
f 881 882 858
f 881 858 842
f 833 883 881
f 833 881 842
f 858 882 884
f 858 884 861
f 882 881 885
f 882 885 886
f 882 886 887
f 882 887 884
f 883 888 885
f 883 885 881
f 886 885 889
f 886 889 890
f 886 890 891
f 886 891 887
f 885 888 892
f 885 892 889
f 826 825 893
f 826 893 894
f 826 894 895
f 826 895 833
f 825 824 896
f 825 896 893
f 827 897 896
f 827 896 824
f 898 899 893
f 898 893 896
f 900 901 898
f 900 898 896
f 897 902 900
f 897 900 896
f 899 903 894
f 899 894 893
f 894 903 904
f 894 904 895
f 905 906 899
f 905 899 898
f 898 901 907
f 898 907 905
f 906 908 903
f 906 903 899
f 903 908 909
f 903 909 904
f 910 911 901
f 910 901 900
f 902 912 910
f 902 910 900
f 901 911 913
f 901 913 907
f 911 910 914
f 911 914 915
f 911 915 916
f 911 916 913
f 912 917 914
f 912 914 910
f 805 804 915
f 805 915 914
f 917 844 805
f 917 805 914
f 915 804 806
f 915 806 916
f 803 202 201
f 803 201 918
f 918 919 806
f 918 806 803
f 920 921 922
f 920 922 923
f 202 802 924
f 202 924 203
f 925 926 916
f 925 916 806
f 806 919 927
f 806 927 925
f 926 928 913
f 926 913 916
f 928 929 907
f 928 907 913
f 929 930 905
f 929 905 907
f 930 908 906
f 930 906 905
f 930 931 909
f 930 909 908
f 897 827 932
f 897 932 902
f 827 823 933
f 827 933 932
f 823 818 814
f 823 814 933
f 811 809 934
f 811 934 935
f 935 933 814
f 935 814 811
f 809 808 807
f 809 807 934
f 807 810 936
f 807 936 934
f 810 844 917
f 810 917 936
f 917 912 937
f 917 937 936
f 912 902 932
f 912 932 937
f 833 895 938
f 833 938 883
f 895 904 939
f 895 939 938
f 904 909 940
f 904 940 939
f 909 931 941
f 909 941 940
f 942 888 883
f 942 883 938
f 938 939 943
f 938 943 942
f 944 945 927
f 944 927 919
f 919 918 946
f 919 946 944
f 929 947 931
f 929 931 930
f 948 941 931
f 948 931 947
f 949 950 941
f 949 941 948
f 950 951 940
f 950 940 941
f 939 940 951
f 939 951 943
f 888 942 952
f 888 952 892
f 942 943 953
f 942 953 952
f 943 951 954
f 943 954 953
f 951 950 949
f 951 949 954
f 955 946 918
f 955 918 201
f 200 801 955
f 200 955 201
f 956 957 921
f 956 921 920
f 666 669 773
f 666 773 772
f 669 668 778
f 669 778 773
f 668 667 958
f 668 958 778
f 801 800 959
f 801 959 955
f 800 774 765
f 800 765 959
f 778 958 960
f 778 960 961
f 961 962 775
f 961 775 778
f 963 964 946
f 963 946 955
f 955 959 965
f 955 965 963
f 964 966 944
f 964 944 946
f 966 967 945
f 966 945 944
f 796 968 924
f 796 924 802
f 794 793 968
f 794 968 796
f 795 797 968
f 795 968 793
f 797 798 924
f 797 924 968
f 798 799 203
f 798 203 924
f 860 969 866
f 860 866 862
f 866 969 970
f 866 970 872
f 860 859 971
f 860 971 969
f 859 861 972
f 859 972 971
f 861 884 973
f 861 973 972
f 884 887 974
f 884 974 973
f 887 891 975
f 887 975 974
f 976 977 974
f 976 974 975
f 977 978 973
f 977 973 974
f 978 979 972
f 978 972 973
f 979 980 971
f 979 971 972
f 980 981 969
f 980 969 971
f 981 982 970
f 981 970 969
f 970 983 876
f 970 876 872
f 983 984 880
f 983 880 876
f 880 984 985
f 880 985 853
f 982 981 980
f 982 980 986
f 980 979 987
f 980 987 986
f 979 978 988
f 979 988 987
f 978 977 976
f 978 976 988
f 854 850 989
f 854 989 990
f 990 875 879
f 990 879 854
f 850 849 847
f 850 847 989
f 990 991 871
f 990 871 875
f 991 867 868
f 991 868 871
f 991 992 848
f 991 848 867
f 992 846 845
f 992 845 848
f 992 989 847
f 992 847 846
f 989 992 991
f 989 991 990
f 759 781 993
f 759 993 766
f 962 994 776
f 962 776 775
f 776 994 995
f 776 995 777
f 994 962 996
f 994 996 997
f 994 997 998
f 994 998 995
f 961 578 996
f 961 996 962
f 999 1000 997
f 999 997 996
f 578 549 999
f 578 999 996
f 997 1000 1001
f 997 1001 998
f 1000 999 551
f 1000 551 1002
f 1000 1002 1003
f 1000 1003 1001
f 549 548 551
f 549 551 999
f 1002 551 1004
f 1002 1004 1005
f 1002 1005 1006
f 1002 1006 1003
f 547 1007 1004
f 547 1004 551
f 1005 1004 749
f 1005 749 748
f 1005 748 1008
f 1005 1008 1006
f 1007 750 749
f 1007 749 1004
f 748 747 1009
f 748 1009 1008
f 747 746 1010
f 747 1010 1009
f 746 753 771
f 746 771 1010
f 985 993 781
f 985 781 853
f 765 764 965
f 765 965 959
f 764 766 1011
f 764 1011 965
f 766 993 1012
f 766 1012 1011
f 993 985 1013
f 993 1013 1012
f 964 963 965
f 964 965 1011
f 1011 1012 966
f 1011 966 964
f 1013 967 966
f 1013 966 1012
f 1014 1015 712
f 1014 712 726
f 726 722 1016
f 726 1016 1014
f 1015 1017 709
f 1015 709 712
f 1017 1018 707
f 1017 707 709
f 1018 1019 705
f 1018 705 707
f 1019 1020 703
f 1019 703 705
f 1020 1021 701
f 1020 701 703
f 1021 1022 699
f 1021 699 701
f 1022 1023 696
f 1022 696 699
f 1023 1024 697
f 1023 697 696
f 1024 1025 698
f 1024 698 697
f 1025 1016 722
f 1025 722 698
f 1026 1015 1014
f 1026 1014 1027
f 1027 1014 1016
f 1027 1016 1028
f 1028 1022 1021
f 1028 1021 1027
f 1027 1021 1020
f 1027 1020 1026
f 1017 1015 1026
f 1017 1026 1018
f 1016 1025 1024
f 1016 1024 1028
f 1024 1023 1022
f 1024 1022 1028
f 1020 1019 1018
f 1020 1018 1026
f 961 960 1029
f 961 1029 578
f 1029 1030 576
f 1029 576 578
f 1030 1031 577
f 1030 577 576
f 577 1031 1032
f 577 1032 579
f 579 1032 1033
f 579 1033 580
f 1033 584 583
f 1033 583 580
f 1034 1035 1006
f 1034 1006 1008
f 1008 1009 1036
f 1008 1036 1034
f 1035 1001 1003
f 1035 1003 1006
f 1009 1010 771
f 1009 771 1036
f 771 770 769
f 771 769 1036
f 769 777 1034
f 769 1034 1036
f 777 995 1035
f 777 1035 1034
f 995 998 1001
f 995 1001 1035
f 545 546 1007
f 545 1007 547
f 546 554 750
f 546 750 1007
f 937 935 934
f 937 934 936
f 932 933 935
f 932 935 937
f 1037 523 522
f 1037 522 1038
f 1039 2 1
f 1039 1 1038
f 1039 1038 522
f 1039 522 528
f 1040 384 2
f 1040 2 1039
f 1040 1039 528
f 1040 528 533
f 1041 1042 564
f 1041 564 567
f 1042 1043 565
f 1042 565 564
f 1041 7 6
f 1041 6 1042
f 1041 567 566
f 1041 566 1044
f 1044 8 7
f 1044 7 1041
f 1044 566 569
f 1044 569 1045
f 1045 9 8
f 1045 8 1044
f 1045 569 588
f 1045 588 1046
f 1046 11 9
f 1046 9 1045
f 1046 588 591
f 1046 591 1047
f 1047 13 11
f 1047 11 1046
f 1047 591 595
f 1047 595 1048
f 1048 15 13
f 1048 13 1047
f 1048 595 601
f 1048 601 1049
f 1049 601 599
f 1049 599 1050
f 1049 18 15
f 1049 15 1048
f 1050 17 18
f 1050 18 1049
f 1050 599 603
f 1050 603 1051
f 1051 410 17
f 1051 17 1050
f 1051 603 1052
f 1051 1052 1053
f 1053 1054 410
f 1053 410 1051
f 1038 1 32
f 1038 32 1037
f 1055 524 523
f 1055 523 1037
f 1056 480 476
f 1056 476 1057
f 1058 926 925
f 1058 925 1057
f 1057 476 149
f 1057 149 1058
f 1059 928 926
f 1059 926 1058
f 1058 149 148
f 1058 148 1059
f 1060 929 928
f 1060 928 1059
f 1059 148 158
f 1059 158 1060
f 1061 947 929
f 1061 929 1060
f 1060 158 159
f 1060 159 1061
f 1062 948 947
f 1062 947 1061
f 1061 159 169
f 1061 169 1062
f 1063 949 948
f 1063 948 1062
f 1062 169 170
f 1062 170 1063
f 1063 170 171
f 1063 171 1064
f 1064 954 949
f 1064 949 1063
f 1064 171 172
f 1064 172 1065
f 1065 953 954
f 1065 954 1064
f 1065 172 174
f 1065 174 1066
f 952 953 1065
f 952 1065 1066
f 1066 174 176
f 1066 176 1067
f 892 952 1066
f 892 1066 1067
f 1067 176 178
f 1067 178 1068
f 889 892 1067
f 889 1067 1068
f 1037 32 183
f 1037 183 1055
f 1069 667 524
f 1069 524 1055
f 1055 183 188
f 1055 188 1069
f 1070 958 667
f 1070 667 1069
f 1057 925 927
f 1057 927 1056
f 1068 178 216
f 1068 216 1071
f 890 889 1068
f 890 1068 1071
f 1071 216 217
f 1071 217 1072
f 891 890 1071
f 891 1071 1072
f 1073 231 288
f 1073 288 1074
f 1073 983 970
f 1073 970 1075
f 1075 230 231
f 1075 231 1073
f 1075 970 982
f 1075 982 1076
f 1072 217 237
f 1072 237 1077
f 975 891 1072
f 975 1072 1077
f 1074 984 983
f 1074 983 1073
f 1078 483 480
f 1078 480 1056
f 1078 1056 927
f 1078 927 945
f 1079 299 483
f 1079 483 1078
f 1079 1078 945
f 1079 945 967
f 1074 288 289
f 1074 289 1080
f 1080 289 291
f 1080 291 1081
f 985 984 1074
f 985 1074 1080
f 1081 1013 985
f 1081 985 1080
f 1081 291 299
f 1081 299 1079
f 1081 1079 967
f 1081 967 1013
f 1069 188 379
f 1069 379 1070
f 1082 960 958
f 1082 958 1070
f 1070 379 389
f 1070 389 1082
f 1083 1029 960
f 1083 960 1082
f 1082 389 393
f 1082 393 1083
f 1084 1030 1029
f 1084 1029 1083
f 1083 393 395
f 1083 395 1084
f 1085 1031 1030
f 1085 1030 1084
f 1084 395 397
f 1084 397 1085
f 1086 1032 1031
f 1086 1031 1085
f 1085 397 413
f 1085 413 1086
f 1087 1033 1032
f 1087 1032 1086
f 1086 413 419
f 1086 419 1087
f 1088 584 1033
f 1088 1033 1087
f 1089 404 405
f 1089 405 1090
f 1090 405 409
f 1090 409 1091
f 1091 600 597
f 1091 597 1090
f 1089 593 589
f 1089 589 1092
f 1090 597 593
f 1090 593 1089
f 1092 406 404
f 1092 404 1089
f 1092 589 585
f 1092 585 1093
f 1093 407 406
f 1093 406 1092
f 1093 585 582
f 1093 582 1094
f 1094 408 407
f 1094 407 1093
f 1094 582 581
f 1094 581 1095
f 1088 417 415
f 1088 415 1095
f 1087 419 417
f 1087 417 1088
f 1095 581 584
f 1095 584 1088
f 1095 415 408
f 1095 408 1094
f 1096 426 384
f 1096 384 1040
f 1096 1040 533
f 1096 533 559
f 1042 6 425
f 1042 425 1043
f 1043 425 427
f 1043 427 1097
f 1097 561 565
f 1097 565 1043
f 1097 427 426
f 1097 426 1096
f 1097 1096 559
f 1097 559 561
f 1076 509 230
f 1076 230 1075
f 1076 982 986
f 1076 986 1098
f 1098 512 509
f 1098 509 1076
f 1098 986 987
f 1098 987 1099
f 1077 237 515
f 1077 515 1100
f 976 975 1077
f 976 1077 1100
f 1099 516 512
f 1099 512 1098
f 1101 517 516
f 1101 516 1099
f 1099 987 988
f 1099 988 1101
f 1100 515 517
f 1100 517 1101
f 988 976 1100
f 988 1100 1101
f 956 600 1091
f 956 1091 957
f 957 1091 409
f 957 409 1102
f 1103 411 410
f 1103 410 1054
f 1103 1054 1053
f 1103 1053 922
f 1052 603 602
f 1052 602 923
f 922 1053 1052
f 922 1052 923
f 409 403 411
f 409 411 1102
f 1102 411 1103
f 1102 1103 1104
f 1104 921 957
f 1104 957 1102
f 1103 922 921
f 1103 921 1104
f 956 602 598
f 956 598 600
f 920 923 602
f 920 602 956
