# T3 rest
v -0.009620 0.072936 -0.054721
v -0.008394 0.070514 -0.057416
v -0.012319 0.066850 -0.055886
v -0.013029 0.069595 -0.055340
v -0.006038 0.064378 -0.063618
v -0.005313 0.067181 -0.064779
v -0.004623 0.067163 -0.065908
v -0.004968 0.066079 -0.066172
v -0.004835 0.064720 -0.067964
v -0.005793 0.062277 -0.065540
v -0.004647 0.063476 -0.069914
v -0.005478 0.060722 -0.067583
v -0.004366 0.062905 -0.072318
v -0.005268 0.059994 -0.069759
v -0.004385 0.061309 -0.076239
v -0.005478 0.058599 -0.073436
v -0.004893 0.056520 -0.077272
v -0.004029 0.059326 -0.078152
v -0.019883 0.089432 -0.048976
v -0.019091 0.087574 -0.049446
v -0.020932 0.087251 -0.049786
v -0.022339 0.088269 -0.049541
v -0.020611 0.073369 -0.051675
v -0.020714 0.070363 -0.052808
v -0.027208 0.072141 -0.052119
v -0.026674 0.074462 -0.052035
v -0.021245 0.075424 -0.050868
v -0.026779 0.076314 -0.051352
v -0.014176 0.073437 -0.051940
v -0.016197 0.070774 -0.053976
v -0.015543 0.075259 -0.050699
v -0.006941 0.076301 -0.053696
v -0.009307 0.075870 -0.051843
v -0.016456 0.076435 -0.049825
v -0.016811 0.077385 -0.048912
v -0.013497 0.078571 -0.048965
v -0.012430 0.076811 -0.049579
v -0.010960 0.076241 -0.050574
v -0.027366 0.077598 -0.050453
v -0.022112 0.076757 -0.049768
v -0.020958 0.078093 -0.049107
v -0.032377 0.077677 -0.052812
v -0.032259 0.076131 -0.053708
v -0.032685 0.079075 -0.051838
v -0.041469 0.077298 -0.057056
v -0.041211 0.080020 -0.056739
v -0.032754 0.073715 -0.053207
v -0.040414 0.074170 -0.055652
v -0.039708 0.071370 -0.052316
v -0.033873 0.071621 -0.051813
v -0.040280 0.081670 -0.055326
v -0.029051 0.070181 -0.051310
v -0.024782 0.068505 -0.051504
v -0.032717 0.079496 -0.050931
v -0.038619 0.081609 -0.052752
v -0.028417 0.078065 -0.049604
v -0.025223 0.077050 -0.048754
v -0.023850 0.077490 -0.047986
v -0.025990 0.068030 -0.050040
v -0.030206 0.069593 -0.049967
v -0.034386 0.070698 -0.050166
v -0.038536 0.070714 -0.050172
v -0.029939 0.070232 -0.048501
v -0.030972 0.071985 -0.047552
v -0.034061 0.072431 -0.048041
v -0.033635 0.070976 -0.048743
v -0.037295 0.072631 -0.048156
v -0.037420 0.071052 -0.048740
v -0.025711 0.067748 -0.047875
v -0.027936 0.069848 -0.046931
v -0.028620 0.071598 -0.046582
v -0.026063 0.071049 -0.045447
v -0.025768 0.069244 -0.045462
v -0.025988 0.068423 -0.046646
v -0.022891 0.066850 -0.046440
v -0.024449 0.067845 -0.045545
v -0.019775 0.066615 -0.045543
v -0.022621 0.066878 -0.044343
v -0.023558 0.068395 -0.044170
v -0.023953 0.070350 -0.044199
v -0.023110 0.080246 -0.049329
v -0.024423 0.079526 -0.047891
v -0.024260 0.083224 -0.049741
v -0.024749 0.082220 -0.048281
v -0.024387 0.084517 -0.048281
v -0.024007 0.085892 -0.049743
v -0.022918 0.086517 -0.047900
v -0.020413 0.087862 -0.047441
v -0.017213 0.087248 -0.046990
v -0.016682 0.089165 -0.048751
v -0.014650 0.085516 -0.047002
v -0.014210 0.087287 -0.048586
v -0.012868 0.083058 -0.047187
v -0.012436 0.084178 -0.048482
v -0.012237 0.079500 -0.046999
v -0.012288 0.081206 -0.048756
v -0.011696 0.077366 -0.047922
v -0.020963 0.073573 -0.042199
v -0.021841 0.074437 -0.043699
v -0.023215 0.072635 -0.044181
v -0.022264 0.072015 -0.042805
v -0.022436 0.069026 -0.041944
v -0.021756 0.066760 -0.042327
v -0.023174 0.060308 -0.033580
v -0.022646 0.062698 -0.036485
v -0.022011 0.060710 -0.036728
v -0.022667 0.057303 -0.032409
v -0.022233 0.065721 -0.039506
v -0.021180 0.064357 -0.040403
v -0.020469 0.065036 -0.042855
v -0.023454 0.056102 -0.033657
v -0.022328 0.058801 -0.037315
v -0.020007 0.062135 -0.041116
v -0.023434 0.053368 -0.029481
v -0.023692 0.053660 -0.031624
v -0.023711 0.050061 -0.027939
v -0.023399 0.051101 -0.030273
v -0.024823 0.059877 -0.031499
v -0.024433 0.056914 -0.029653
v -0.025483 0.065380 -0.032606
v -0.025621 0.062123 -0.029670
v -0.023150 0.062765 -0.029278
v -0.022956 0.065011 -0.031422
v -0.026240 0.063618 -0.032449
v -0.025905 0.060496 -0.030139
v -0.025824 0.062654 -0.033100
v -0.024776 0.063153 -0.034684
v -0.022422 0.069327 -0.040644
v -0.023088 0.066550 -0.038604
v -0.022231 0.071786 -0.041637
v -0.021396 0.073373 -0.041150
v -0.021828 0.069803 -0.035109
v -0.019173 0.068118 -0.034034
v -0.017956 0.070250 -0.035680
v -0.020635 0.071732 -0.036619
v -0.023642 0.067900 -0.033923
v -0.021349 0.066569 -0.032712
v -0.023717 0.052646 -0.026897
v -0.023207 0.048049 -0.024783
v -0.025204 0.057417 -0.027846
v -0.025245 0.059547 -0.027237
v -0.023043 0.060986 -0.027496
v -0.022986 0.052314 -0.024229
v -0.021225 0.046255 -0.021941
v -0.024037 0.056429 -0.024336
v -0.016195 0.066325 -0.033031
v -0.014744 0.068456 -0.034703
v -0.010787 0.064616 -0.031859
v -0.010245 0.067174 -0.033935
v -0.020177 0.061331 -0.027912
v -0.020727 0.062711 -0.029200
v -0.019948 0.063793 -0.030362
v -0.017131 0.061690 -0.028702
v -0.022350 0.058533 -0.025031
v -0.019436 0.059105 -0.025688
v -0.015646 0.059102 -0.026176
v -0.018353 0.064894 -0.031607
v -0.011879 0.062229 -0.029566
v -0.010205 0.059306 -0.026720
v -0.019021 0.049133 -0.020589
v -0.017798 0.044187 -0.019193
v -0.020661 0.053508 -0.021445
v -0.019722 0.055826 -0.022275
v -0.016939 0.056727 -0.023117
v -0.013213 0.057098 -0.023912
v -0.009979 0.055599 -0.021685
v -0.011448 0.054826 -0.020696
v -0.013811 0.053442 -0.019640
v -0.008917 0.057450 -0.024469
v -0.007134 0.055321 -0.021276
v -0.007846 0.054148 -0.019902
v -0.008661 0.052208 -0.018433
v -0.014333 0.050994 -0.018768
v -0.008769 0.049840 -0.017603
v -0.013656 0.047044 -0.018286
v -0.008445 0.045947 -0.017133
v -0.013126 0.042534 -0.017182
v -0.008011 0.041575 -0.016074
v -0.023986 0.064653 -0.036553
v -0.009928 0.076463 -0.048811
v -0.008672 0.075966 -0.049784
v -0.007305 0.075731 -0.050744
v -0.005853 0.076082 -0.051784
v -0.011406 0.075507 -0.046911
v -0.009808 0.074338 -0.047663
v -0.008657 0.072961 -0.047946
v -0.007650 0.071915 -0.048358
v -0.006164 0.071218 -0.047936
v -0.023586 0.083273 -0.047081
v -0.023801 0.081865 -0.046951
v -0.022484 0.084296 -0.046653
v -0.020638 0.085091 -0.046205
v -0.017888 0.084570 -0.045930
v -0.015762 0.083258 -0.046074
v -0.014116 0.081614 -0.046268
v -0.013875 0.078988 -0.045697
v -0.014379 0.077035 -0.044578
v -0.012725 0.076484 -0.045957
v -0.016196 0.081178 -0.045386
v 0.004851 0.076982 -0.044493
v 0.005286 0.075823 -0.042888
v 0.008213 0.077130 -0.043087
v 0.007225 0.079169 -0.044316
v -0.017830 0.077200 -0.043214
v -0.014867 0.075877 -0.042985
v -0.016932 0.079232 -0.044430
v -0.018302 0.082015 -0.045351
v -0.023690 0.080035 -0.046528
v -0.022461 0.082410 -0.046246
v -0.022314 0.047213 -0.027366
v -0.021292 0.049072 -0.029847
v -0.022719 0.044526 -0.023703
v -0.021017 0.042266 -0.020734
v -0.017482 0.039987 -0.017903
v -0.012471 0.038415 -0.015913
v -0.007455 0.037503 -0.014803
v -0.006127 0.038443 -0.016437
v -0.010173 0.039112 -0.017276
v -0.014968 0.040521 -0.019049
v -0.018343 0.042423 -0.021441
v -0.019864 0.044422 -0.024033
v -0.019359 0.046426 -0.026560
v -0.018532 0.047919 -0.028316
v -0.017720 0.049800 -0.030626
v -0.015880 0.049265 -0.029379
v -0.013148 0.051124 -0.031017
v -0.015508 0.051548 -0.032081
v -0.013848 0.053139 -0.033887
v -0.010750 0.053453 -0.033412
v -0.009123 0.050452 -0.029885
v -0.007222 0.053304 -0.032988
v -0.013691 0.047884 -0.027196
v -0.014881 0.045831 -0.024741
v -0.014067 0.044226 -0.022683
v -0.012080 0.042690 -0.020810
v -0.008532 0.041677 -0.019510
v -0.005415 0.041099 -0.018804
v -0.015794 0.054589 -0.036601
v -0.012810 0.055452 -0.036423
v -0.016249 0.052837 -0.034552
v -0.017607 0.051285 -0.032951
v -0.019197 0.050043 -0.031838
v -0.021604 0.050056 -0.031604
v -0.023628 0.051390 -0.032031
v -0.024402 0.053175 -0.033026
v -0.024622 0.055044 -0.034603
v -0.023617 0.057304 -0.037648
v -0.021125 0.058615 -0.040011
v -0.021420 0.056867 -0.038629
v -0.018886 0.057994 -0.040235
v -0.019969 0.056525 -0.038667
v -0.022687 0.055903 -0.037009
v -0.023491 0.054373 -0.035036
v -0.023715 0.053052 -0.033736
v -0.022973 0.052009 -0.033114
v -0.021539 0.051159 -0.032721
v -0.020208 0.051035 -0.032810
v -0.019322 0.052141 -0.033878
v -0.021961 0.053650 -0.034750
v -0.020568 0.052829 -0.034309
v -0.021078 0.055211 -0.036630
v -0.018375 0.053646 -0.035445
v -0.017819 0.054557 -0.036555
v -0.018486 0.055527 -0.037671
v -0.019644 0.054369 -0.036015
v -0.016763 0.056447 -0.038761
v -0.018112 0.064697 -0.043560
v -0.014235 0.058244 -0.039012
v -0.017235 0.061258 -0.041677
v -0.009714 0.056232 -0.036139
v -0.017613 0.066625 -0.046827
v -0.020698 0.065880 -0.047906
v -0.011507 0.071148 -0.046346
v -0.010155 0.069422 -0.047383
v -0.012217 0.072605 -0.045525
v -0.014745 0.067447 -0.045323
v -0.013025 0.066564 -0.046759
v -0.015544 0.066820 -0.044646
v -0.015189 0.065170 -0.042889
v -0.013860 0.062781 -0.040837
v -0.011348 0.059383 -0.038060
v -0.012853 0.069413 -0.044303
v -0.013453 0.073741 -0.044715
v -0.014101 0.074478 -0.043899
v -0.013830 0.067906 -0.043255
v -0.013689 0.066160 -0.041561
v -0.012528 0.063078 -0.039298
v -0.006702 0.056443 -0.035874
v -0.008785 0.060646 -0.037626
v -0.011658 0.064756 -0.038890
v -0.008155 0.064196 -0.038462
v -0.013338 0.067195 -0.040766
v -0.013821 0.071322 -0.043401
v -0.014087 0.073583 -0.042760
v -0.013800 0.069587 -0.042385
v -0.013661 0.070846 -0.041869
v -0.013023 0.069471 -0.040618
v -0.011084 0.068319 -0.039283
v -0.007944 0.068053 -0.038753
v -0.020762 0.082625 -0.045681
v -0.019064 0.079985 -0.044805
v -0.020035 0.078058 -0.044264
v -0.021521 0.076377 -0.044119
v -0.020216 0.075657 -0.043251
v -0.023214 0.078018 -0.045553
v -0.024247 0.077230 -0.046105
v -0.022936 0.075091 -0.044492
v -0.023705 0.075873 -0.045087
v -0.022484 0.077015 -0.044784
v -0.025261 0.073387 -0.045560
v -0.025110 0.076645 -0.046815
v -0.025365 0.075145 -0.045939
v -0.028156 0.073770 -0.046718
v -0.027042 0.076568 -0.047871
v -0.027566 0.075434 -0.047120
v -0.029771 0.077118 -0.048605
v -0.031002 0.074018 -0.047496
v -0.030469 0.075679 -0.047855
v -0.033099 0.078398 -0.049677
v -0.034073 0.074375 -0.047939
v -0.033807 0.076223 -0.048396
v -0.037706 0.079834 -0.050505
v -0.037081 0.074853 -0.048223
v -0.037331 0.077287 -0.049018
v -0.039994 0.074909 -0.048152
v -0.039980 0.077342 -0.049232
v -0.040561 0.079927 -0.050780
v -0.043074 0.081680 -0.053472
v -0.045584 0.081205 -0.055320
v -0.047416 0.079124 -0.056574
v -0.047852 0.076068 -0.056737
v -0.046357 0.073020 -0.055561
v -0.044167 0.070713 -0.052773
v -0.042452 0.070070 -0.050083
v -0.041177 0.070936 -0.048497
v -0.040779 0.072412 -0.047838
v -0.041692 0.077328 -0.049906
v -0.041992 0.079605 -0.051197
v -0.041821 0.075149 -0.049054
v -0.042383 0.073080 -0.048801
v -0.043013 0.071763 -0.049283
v -0.044179 0.071027 -0.050450
v -0.045697 0.071376 -0.052532
v -0.047416 0.073356 -0.054830
v -0.048442 0.076127 -0.055765
v -0.047935 0.078701 -0.055590
v -0.046269 0.080423 -0.054622
v -0.044134 0.080791 -0.053113
v -0.042925 0.075657 -0.050588
v -0.042846 0.077404 -0.051108
v -0.042873 0.078907 -0.051967
v -0.044247 0.079506 -0.053302
v -0.045679 0.079457 -0.054362
v -0.046649 0.076458 -0.055283
v -0.046388 0.078228 -0.055056
v -0.043945 0.078008 -0.053586
v -0.043289 0.073987 -0.050417
v -0.043734 0.072753 -0.050422
v -0.045494 0.072880 -0.053095
v -0.044576 0.072758 -0.051896
v -0.043934 0.076488 -0.053480
v -0.046242 0.074458 -0.054607
v -0.044213 0.074812 -0.052999
v -0.017354 0.087470 -0.049118
v -0.016038 0.086171 -0.048907
v -0.018591 0.085907 -0.049432
v -0.021362 0.085658 -0.049843
v -0.021591 0.083539 -0.049959
v -0.014455 0.084115 -0.048878
v -0.017978 0.083784 -0.049456
v -0.017130 0.080315 -0.049748
v -0.019489 0.080121 -0.049765
v -0.015114 0.080526 -0.049506
v -0.014164 0.081934 -0.049156
v -0.021015 0.081336 -0.049899
v -0.017563 0.081934 -0.049585
v -0.009726 0.067858 -0.047572
v -0.011153 0.064725 -0.047806
v -0.006369 0.069088 -0.047702
v -0.011244 0.063951 -0.055891
v -0.012858 0.063131 -0.054686
v -0.012474 0.060198 -0.052332
v -0.011424 0.060745 -0.053558
v -0.007504 0.068494 -0.058791
v -0.010414 0.063245 -0.056422
v -0.011021 0.060288 -0.054006
v -0.008865 0.065659 -0.047937
v -0.011029 0.062844 -0.048260
v -0.007101 0.066559 -0.047632
v -0.009820 0.062920 -0.050773
v -0.011094 0.060171 -0.048842
v -0.013814 0.058001 -0.049214
v -0.007572 0.066383 -0.051299
v -0.008704 0.061168 -0.053250
v -0.006563 0.062972 -0.053866
v -0.008663 0.060666 -0.054038
v -0.006360 0.061714 -0.054688
v -0.006697 0.058743 -0.060449
v -0.005937 0.058197 -0.062555
v -0.005450 0.057673 -0.064885
v -0.005264 0.056631 -0.067001
v -0.005549 0.055544 -0.070571
v -0.005362 0.054165 -0.074290
v -0.004267 0.055998 -0.066521
v -0.004450 0.054970 -0.069848
v -0.004401 0.057244 -0.064489
v -0.004650 0.058217 -0.062646
v -0.005328 0.059025 -0.060534
v -0.004223 0.054073 -0.073851
v -0.004028 0.054270 -0.078188
v -0.004753 0.053147 -0.076289
v -0.007916 0.059511 -0.055037
v -0.005933 0.060328 -0.055760
v -0.007419 0.058745 -0.058136
v -0.005487 0.059321 -0.058988
v -0.009932 0.059319 -0.055068
v -0.004993 0.059789 -0.058377
v -0.006470 0.058863 -0.057335
v -0.005437 0.059833 -0.057132
v -0.007195 0.058833 -0.056289
v -0.008869 0.058897 -0.056585
v -0.007166 0.062932 -0.060797
v -0.009439 0.062258 -0.057138
v -0.008290 0.062137 -0.058742
v -0.006064 0.067223 -0.063269
v -0.007080 0.067371 -0.060201
v -0.006626 0.067247 -0.061900
v -0.018420 0.064971 -0.047802
v -0.020754 0.063995 -0.048468
v -0.015565 0.064859 -0.046919
v -0.013210 0.064173 -0.046861
v -0.012129 0.062873 -0.047163
v -0.011952 0.060816 -0.047083
v -0.012782 0.058962 -0.047607
v -0.015168 0.057167 -0.047908
v -0.017206 0.057021 -0.049377
v -0.018660 0.056677 -0.048129
v -0.015691 0.063720 -0.047896
v -0.017676 0.063573 -0.048314
v -0.019343 0.063065 -0.048807
v -0.022081 0.061969 -0.048422
v -0.019935 0.061979 -0.049105
v -0.014337 0.063145 -0.047942
v -0.017184 0.062683 -0.048720
v -0.013724 0.062266 -0.048027
v -0.019423 0.058868 -0.048396
v -0.021268 0.058389 -0.048396
v -0.018228 0.057454 -0.048004
v -0.020028 0.060751 -0.049086
v -0.016878 0.061909 -0.049021
v -0.015862 0.058849 -0.048337
v -0.014023 0.059968 -0.048244
v -0.016449 0.060911 -0.049130
v -0.013788 0.060850 -0.047787
v -0.014785 0.059663 -0.051915
v -0.023694 0.065647 -0.049811
v -0.022932 0.066044 -0.051070
v -0.022433 0.064167 -0.048739
v -0.021659 0.058155 -0.048689
v -0.015009 0.067608 -0.055001
v -0.014998 0.065260 -0.054601
v -0.017167 0.067764 -0.054172
v -0.020054 0.067311 -0.053134
v -0.022821 0.063593 -0.049942
v -0.022510 0.061275 -0.049302
v -0.022923 0.060605 -0.048755
v -0.015106 0.062250 -0.053323
v -0.017649 0.064555 -0.053343
v -0.017999 0.061003 -0.052094
v -0.020927 0.060803 -0.050659
v -0.020430 0.064089 -0.052127
v -0.022384 0.080406 -0.045879
v -0.020971 0.080535 -0.045369
v -0.022258 0.078772 -0.045391
v -0.014894 0.073054 -0.038184
v -0.009799 0.070414 -0.036087
v -0.013152 0.074033 -0.039152
v -0.014687 0.074761 -0.041455
v -0.016553 0.075239 -0.041349
v -0.008960 0.072844 -0.037699
v -0.013465 0.072904 -0.041295
v -0.011700 0.072122 -0.039644
v -0.008197 0.071529 -0.038532
v -0.018466 0.074329 -0.041120
v -0.017646 0.072984 -0.038339
v -0.020370 0.073785 -0.040135
v -0.020073 0.073268 -0.038367
v -0.022963 0.067316 -0.038169
v -0.022455 0.069421 -0.039637
v -0.022211 0.071167 -0.040475
v -0.021722 0.072125 -0.040204
v -0.022004 0.069951 -0.038993
v -0.020970 0.072327 -0.038297
v -0.021176 0.072502 -0.039375
v -0.022343 0.069525 -0.035927
v -0.021376 0.071144 -0.037186
v -0.021440 0.070635 -0.038076
v -0.023936 0.067794 -0.034784
v -0.025450 0.066025 -0.033850
v -0.025745 0.065042 -0.033825
v -0.022085 0.068751 -0.036687
v -0.023581 0.066943 -0.035261
v -0.024738 0.064482 -0.035075
v -0.025427 0.064493 -0.034219
v -0.022469 0.067921 -0.037511
v -0.023740 0.065568 -0.036389
v -0.023630 0.066081 -0.035729
v -0.009283 0.047672 -0.026501
v -0.006687 0.048389 -0.027328
v -0.009816 0.046593 -0.025105
v -0.009999 0.045194 -0.023351
v -0.006239 0.046937 -0.025395
v -0.008948 0.043826 -0.021727
v -0.007437 0.042940 -0.020698
v -0.005353 0.042718 -0.020399
v -0.006009 0.045600 -0.023657
v -0.005731 0.044176 -0.021995
v -0.022275 0.060295 -0.048453
v -0.021409 0.078376 -0.044906
v 0.000634 0.075844 -0.051819
v 0.005786 0.073383 -0.051898
v 0.001484 0.072911 -0.054699
v -0.001584 0.076289 -0.053686
v -0.002865 0.076075 -0.051777
v -0.001491 0.075715 -0.050729
v 0.005260 0.069558 -0.055319
v 0.004805 0.066813 -0.055877
v 0.000702 0.070485 -0.057403
v 0.008261 0.070716 -0.053946
v 0.005551 0.063088 -0.054678
v 0.003943 0.063915 -0.055889
v 0.003200 0.063212 -0.056424
v 0.000069 0.068471 -0.058790
v 0.002133 0.076205 -0.050537
v 0.006892 0.075196 -0.050640
v 0.012348 0.073276 -0.051601
v 0.012802 0.070282 -0.052763
v 0.012750 0.075331 -0.050782
v -0.000241 0.075941 -0.049759
v 0.007394 0.067557 -0.054987
v 0.007541 0.065213 -0.054591
v 0.009506 0.067701 -0.054151
v 0.007813 0.062203 -0.053313
v 0.012403 0.067232 -0.053102
v 0.010190 0.064507 -0.053335
v 0.012968 0.064030 -0.052110
v 0.010757 0.060974 -0.052095
v 0.007587 0.059604 -0.051903
v 0.005221 0.060153 -0.052322
v 0.004206 0.060707 -0.053552
v 0.010091 0.056957 -0.049364
v 0.017032 0.068405 -0.051439
v 0.015292 0.065942 -0.051010
v 0.015292 0.063502 -0.049897
v 0.018575 0.074362 -0.051947
v 0.019317 0.072043 -0.052032
v 0.021322 0.070072 -0.051222
v 0.002349 0.062230 -0.057142
v -0.000145 0.067352 -0.060206
v 0.001320 0.062115 -0.058750
v -0.000458 0.067231 -0.061913
v 0.000286 0.062917 -0.060810
v -0.000734 0.064363 -0.063627
v -0.001548 0.067174 -0.064799
v -0.000919 0.067214 -0.063289
v -0.001720 0.066066 -0.066176
v -0.002151 0.067154 -0.065918
v -0.000710 0.062273 -0.065551
v -0.001637 0.064718 -0.067973
v 0.000656 0.058730 -0.058144
v 0.000087 0.058723 -0.060451
v -0.000501 0.058176 -0.062556
v 0.001996 0.058875 -0.056593
v 0.003870 0.060253 -0.054002
v 0.002926 0.059289 -0.055071
v 0.001406 0.061145 -0.053237
v 0.001467 0.060640 -0.054027
v 0.002184 0.062891 -0.050762
v 0.000880 0.059488 -0.055037
v 0.000297 0.058819 -0.056296
v -0.001269 0.059311 -0.058990
v -0.001303 0.059009 -0.060532
v -0.000360 0.058853 -0.057343
v -0.001846 0.059782 -0.058378
v -0.001778 0.058203 -0.062645
v -0.000806 0.057662 -0.064892
v -0.000793 0.060722 -0.067598
v -0.001623 0.063480 -0.069927
v -0.001845 0.057239 -0.064493
v -0.000820 0.059970 -0.069758
v -0.001713 0.062892 -0.072319
v -0.000795 0.056609 -0.067001
v -0.001794 0.055997 -0.066529
v -0.000308 0.058542 -0.073407
v -0.001382 0.061268 -0.076215
v -0.000239 0.055509 -0.070565
v -0.001349 0.054958 -0.069850
v -0.000150 0.054146 -0.074297
v -0.000578 0.056489 -0.077262
v -0.001311 0.054059 -0.073850
v -0.001534 0.059295 -0.078134
v -0.000605 0.053137 -0.076299
v -0.001295 0.054263 -0.078193
v 0.005857 0.080471 -0.049433
v 0.007969 0.080250 -0.049664
v 0.007803 0.077325 -0.048833
v 0.004318 0.078526 -0.048905
v 0.007626 0.076376 -0.049756
v 0.003461 0.076771 -0.049531
v 0.002823 0.081168 -0.048700
v 0.004719 0.081886 -0.049086
v 0.002476 0.077327 -0.047871
v 0.002713 0.079461 -0.046939
v 0.000872 0.076432 -0.048775
v 0.010416 0.080050 -0.049670
v 0.012031 0.078014 -0.049004
v 0.013411 0.076676 -0.049672
v 0.024459 0.076028 -0.053646
v 0.025105 0.073615 -0.053141
v 0.026320 0.071503 -0.051719
v 0.011906 0.081259 -0.049793
v 0.014104 0.080157 -0.049209
v 0.015365 0.079424 -0.047746
v 0.014953 0.077399 -0.047861
v 0.016496 0.076966 -0.048646
v 0.012329 0.083457 -0.049841
v 0.015107 0.083129 -0.049603
v 0.015519 0.082119 -0.048126
v 0.002668 0.084142 -0.048419
v 0.004787 0.084067 -0.048801
v 0.003038 0.083020 -0.047118
v 0.004212 0.087247 -0.048505
v 0.006227 0.086120 -0.048814
v 0.004603 0.085471 -0.046912
v 0.006614 0.089109 -0.048645
v 0.007499 0.087409 -0.049010
v 0.007076 0.087190 -0.046872
v 0.009940 0.089360 -0.048842
v 0.009336 0.087504 -0.049325
v 0.010405 0.087787 -0.047296
v 0.012674 0.088187 -0.049395
v 0.011323 0.087176 -0.049657
v 0.013198 0.086431 -0.047741
v 0.014632 0.085800 -0.049596
v 0.011905 0.085578 -0.049717
v 0.014953 0.084421 -0.048122
v 0.008957 0.085840 -0.049322
v 0.008507 0.083719 -0.049356
v 0.008255 0.081870 -0.049494
v 0.018468 0.076216 -0.051257
v 0.015184 0.077127 -0.045951
v 0.016212 0.076545 -0.046669
v 0.014399 0.081764 -0.046789
v 0.014398 0.079932 -0.046368
v 0.013974 0.077918 -0.045398
v 0.018337 0.076477 -0.047748
v 0.014069 0.083179 -0.046920
v 0.012772 0.084206 -0.046493
v 0.010716 0.085011 -0.046055
v 0.007871 0.084509 -0.045805
v 0.005830 0.083206 -0.045975
v 0.004332 0.081568 -0.046189
v 0.004273 0.078942 -0.045619
v 0.002242 0.075464 -0.046860
v 0.003380 0.076435 -0.045892
v 0.000824 0.074306 -0.047627
v -0.002515 0.071209 -0.047926
v -0.001049 0.071898 -0.048340
v -0.000175 0.072937 -0.047920
v 0.018881 0.077507 -0.050348
v 0.019843 0.077974 -0.049491
v 0.024407 0.079393 -0.050817
v 0.024498 0.078985 -0.051753
v 0.024381 0.077580 -0.052745
v 0.021230 0.077018 -0.048476
v 0.024763 0.078284 -0.049537
v 0.030729 0.081506 -0.052651
v 0.032773 0.081540 -0.055225
v 0.029660 0.079720 -0.050371
v 0.033992 0.079881 -0.056664
v 0.034430 0.077156 -0.057003
v 0.033366 0.074008 -0.055577
v 0.032543 0.071190 -0.052187
v 0.022451 0.069470 -0.049864
v 0.018194 0.067920 -0.049957
v 0.016015 0.065535 -0.049717
v 0.026778 0.070560 -0.050042
v 0.031166 0.070553 -0.050035
v 0.014746 0.064073 -0.048675
v 0.037333 0.070531 -0.052687
v 0.035339 0.069898 -0.049964
v 0.033805 0.070776 -0.048347
v 0.029829 0.070908 -0.048597
v 0.025830 0.070846 -0.048610
v 0.039746 0.072832 -0.055495
v 0.038898 0.071208 -0.052450
v 0.037136 0.070869 -0.050342
v 0.035753 0.071612 -0.049149
v 0.040804 0.073182 -0.054759
v 0.041290 0.075885 -0.056670
v 0.041846 0.075951 -0.055687
v 0.040681 0.078947 -0.056480
v 0.041179 0.078525 -0.055487
v 0.038510 0.081041 -0.055194
v 0.039223 0.080256 -0.054491
v 0.035604 0.081547 -0.053338
v 0.036760 0.080644 -0.052971
v 0.032744 0.079809 -0.050637
v 0.034337 0.079467 -0.051049
v 0.029302 0.077171 -0.048865
v 0.032164 0.077212 -0.049072
v 0.034043 0.077184 -0.049745
v 0.025560 0.076109 -0.048248
v 0.021989 0.070111 -0.048377
v 0.017740 0.067645 -0.047781
v 0.022013 0.075577 -0.047722
v 0.018912 0.075337 -0.046987
v 0.016523 0.075040 -0.045786
v 0.014637 0.075772 -0.044931
v 0.033228 0.072267 -0.047672
v 0.029524 0.072504 -0.048006
v 0.034953 0.072931 -0.048649
v 0.026096 0.072314 -0.047903
v 0.032247 0.074773 -0.047996
v 0.029136 0.074735 -0.048067
v 0.034243 0.075001 -0.048892
v 0.025943 0.074264 -0.047794
v 0.022680 0.073916 -0.047364
v 0.022830 0.071875 -0.047422
v 0.019636 0.073669 -0.046583
v 0.020305 0.071490 -0.046448
v 0.016539 0.073287 -0.045418
v 0.017581 0.070945 -0.045312
v 0.014345 0.072544 -0.044044
v 0.015336 0.070255 -0.044069
v 0.013848 0.074998 -0.044345
v 0.012691 0.074351 -0.043557
v 0.017444 0.069144 -0.045339
v 0.019783 0.069739 -0.046805
v 0.015116 0.068306 -0.044054
v 0.016216 0.067749 -0.045435
v 0.017858 0.068322 -0.046535
v 0.014312 0.066790 -0.044240
v 0.014778 0.066760 -0.046356
v 0.012737 0.065797 -0.047844
v 0.013013 0.063918 -0.048423
v 0.014557 0.061899 -0.048391
v 0.014908 0.060216 -0.048428
v 0.015567 0.060518 -0.048728
v 0.015128 0.061197 -0.049279
v 0.011516 0.066540 -0.045467
v 0.009415 0.066558 -0.046768
v 0.010481 0.064905 -0.047757
v 0.007086 0.066765 -0.044585
v 0.006272 0.067394 -0.045264
v 0.007503 0.064809 -0.046881
v 0.012151 0.064955 -0.042756
v 0.009830 0.064626 -0.043478
v 0.006738 0.065113 -0.042816
v 0.013253 0.066676 -0.042212
v 0.013685 0.068935 -0.041806
v 0.013283 0.071926 -0.042662
v 0.011712 0.073489 -0.042052
v 0.005100 0.067861 -0.043200
v 0.004052 0.069368 -0.044248
v 0.004987 0.066111 -0.041494
v 0.004743 0.066519 -0.046715
v 0.005171 0.064133 -0.046830
v 0.006503 0.063099 -0.047917
v 0.007822 0.063669 -0.047865
v 0.009893 0.063508 -0.048270
v 0.002715 0.071110 -0.046301
v 0.001618 0.069392 -0.047352
v 0.003205 0.072561 -0.045470
v 0.003116 0.064693 -0.047792
v 0.004226 0.062841 -0.047148
v 0.005971 0.062222 -0.048007
v 0.001354 0.067831 -0.047546
v 0.011837 0.062055 -0.041021
v 0.009136 0.061195 -0.041607
v 0.005467 0.062728 -0.040762
v 0.012746 0.064270 -0.040279
v 0.013609 0.065625 -0.039357
v 0.013155 0.071694 -0.041482
v 0.013518 0.069229 -0.040485
v 0.014325 0.066446 -0.038431
v 0.012072 0.073287 -0.040990
v 0.012212 0.076290 -0.043972
v 0.010837 0.075576 -0.043109
v 0.013224 0.076920 -0.044631
v 0.008939 0.074256 -0.040982
v 0.010859 0.073706 -0.039974
v 0.012927 0.080307 -0.045724
v 0.012891 0.078674 -0.045239
v 0.012867 0.082314 -0.046088
v 0.011991 0.078286 -0.044758
v 0.011008 0.082541 -0.045533
v 0.008474 0.081948 -0.045225
v 0.006393 0.081121 -0.045282
v 0.004261 0.073683 -0.044643
v 0.004755 0.074417 -0.043814
v 0.010523 0.077978 -0.044124
v 0.006899 0.075175 -0.041228
v 0.007952 0.072913 -0.038192
v 0.010426 0.073187 -0.038194
v 0.005106 0.072997 -0.038066
v 0.012447 0.072038 -0.040040
v 0.013085 0.071075 -0.040312
v 0.013447 0.069324 -0.039469
v 0.011757 0.072418 -0.039206
v 0.014073 0.067213 -0.037989
v 0.015296 0.064540 -0.036359
v 0.014126 0.062595 -0.036316
v 0.014924 0.065458 -0.036190
v 0.013715 0.060612 -0.036579
v 0.016141 0.063039 -0.034474
v 0.014733 0.060200 -0.033389
v 0.015978 0.064366 -0.034860
v 0.014490 0.057194 -0.032226
v 0.017171 0.062529 -0.032857
v 0.016351 0.059755 -0.031265
v 0.016197 0.056791 -0.029418
v 0.016627 0.064371 -0.033982
v 0.017448 0.063487 -0.032180
v 0.017318 0.060365 -0.029863
v 0.016837 0.057285 -0.027566
v 0.016866 0.064915 -0.033571
v 0.014297 0.058704 -0.037188
v 0.015520 0.055995 -0.033500
v 0.015850 0.052524 -0.026667
v 0.015590 0.053253 -0.029288
v 0.015935 0.053547 -0.031455
v 0.015018 0.052189 -0.023964
v 0.016906 0.054937 -0.034463
v 0.015813 0.057205 -0.037535
v 0.016799 0.053064 -0.032880
v 0.013274 0.058533 -0.039931
v 0.016229 0.049947 -0.027759
v 0.015876 0.050993 -0.030117
v 0.015834 0.047929 -0.024575
v 0.016156 0.051284 -0.031892
v 0.013914 0.046142 -0.021726
v 0.011063 0.057925 -0.040173
v 0.011454 0.072244 -0.038120
v 0.016145 0.052951 -0.033609
v 0.015841 0.054277 -0.034916
v 0.014967 0.055812 -0.036906
v 0.015466 0.051907 -0.032986
v 0.013668 0.056783 -0.038545
v 0.012220 0.056450 -0.038595
v 0.008959 0.056388 -0.038705
v 0.006205 0.058198 -0.038964
v 0.003078 0.059346 -0.038012
v 0.010746 0.055457 -0.037601
v 0.015717 0.044411 -0.023519
v 0.015095 0.047112 -0.027220
v 0.013923 0.048983 -0.029728
v 0.014165 0.042157 -0.020546
v 0.012793 0.044326 -0.023881
v 0.012110 0.046339 -0.026430
v 0.011413 0.042333 -0.021288
v 0.011156 0.047843 -0.028207
v 0.014208 0.049961 -0.031483
v 0.010211 0.049732 -0.030534
v 0.011755 0.049961 -0.031733
v 0.008337 0.049204 -0.029292
v 0.014071 0.051059 -0.032594
v 0.012726 0.050941 -0.032691
v 0.007825 0.051487 -0.032001
v 0.010045 0.051210 -0.032860
v 0.011750 0.052053 -0.033771
v 0.005420 0.051074 -0.030946
v 0.006055 0.053087 -0.033826
v 0.008572 0.052769 -0.034477
v 0.010702 0.053567 -0.035356
v 0.002850 0.053415 -0.033361
v 0.004895 0.055408 -0.036377
v 0.008035 0.054526 -0.036537
v 0.010100 0.054483 -0.036477
v 0.001654 0.056202 -0.036103
v 0.010595 0.044093 -0.018998
v 0.010778 0.039897 -0.017736
v 0.011240 0.049027 -0.020347
v 0.008157 0.040449 -0.018920
v 0.006021 0.042469 -0.017039
v 0.005865 0.038355 -0.015796
v 0.003459 0.039070 -0.017196
v 0.005999 0.046973 -0.018115
v 0.000968 0.041544 -0.016005
v 0.000915 0.037475 -0.014748
v -0.000537 0.038425 -0.016403
v 0.000872 0.045913 -0.017049
v 0.016800 0.061991 -0.029375
v 0.016585 0.059409 -0.026921
v 0.015585 0.056292 -0.024010
v 0.016462 0.065254 -0.032336
v 0.016446 0.065898 -0.033591
v 0.013789 0.064901 -0.031172
v 0.014125 0.062646 -0.029004
v 0.014347 0.067786 -0.033678
v 0.012028 0.066467 -0.032488
v 0.014736 0.067680 -0.034548
v 0.014134 0.060862 -0.027204
v 0.013607 0.058407 -0.024724
v 0.010752 0.063696 -0.030142
v 0.011617 0.062607 -0.028959
v 0.009059 0.064808 -0.031418
v 0.011148 0.061228 -0.027669
v 0.010554 0.059001 -0.025437
v 0.012336 0.069706 -0.034895
v 0.009698 0.068033 -0.033848
v 0.012976 0.069426 -0.035717
v 0.006774 0.066256 -0.032880
v 0.011011 0.071645 -0.036429
v 0.008332 0.070178 -0.035521
v 0.005168 0.068399 -0.034579
v 0.011902 0.071054 -0.036996
v 0.005053 0.074707 -0.041355
v 0.003318 0.073986 -0.039058
v -0.001726 0.051433 -0.075686
v -0.002702 0.051339 -0.075700
v -0.002580 0.050752 -0.075867
v -0.001126 0.051406 -0.076170
v 0.009393 0.079912 -0.044674
v 0.000033 0.070385 -0.036026
v 0.000687 0.067141 -0.033864
v -0.000958 0.072822 -0.037650
v 0.001389 0.064578 -0.031777
v 0.002638 0.062183 -0.029460
v 0.008013 0.061607 -0.028513
v 0.006687 0.059025 -0.025994
v 0.014505 0.066833 -0.035041
v 0.014695 0.065972 -0.035522
v 0.012860 0.069859 -0.038823
v 0.013434 0.067822 -0.037328
v 0.012112 0.070544 -0.037897
v 0.012867 0.068652 -0.036493
v 0.012386 0.053387 -0.021145
v 0.011145 0.055711 -0.021985
v 0.008190 0.056635 -0.022885
v 0.004367 0.057034 -0.023756
v 0.006199 0.050914 -0.018562
v 0.005363 0.053366 -0.019440
v 0.002114 0.072084 -0.039572
v -0.001473 0.071510 -0.038495
v 0.003993 0.072854 -0.041210
v 0.001154 0.059267 -0.026630
v -0.000008 0.057418 -0.024391
v -0.001628 0.055299 -0.021221
v 0.001224 0.055556 -0.021575
v 0.002795 0.054771 -0.020551
v 0.000719 0.049802 -0.017504
v 0.000306 0.052171 -0.018336
v -0.000774 0.054120 -0.019827
v 0.004711 0.073525 -0.042673
v -0.001488 0.053087 -0.075836
v -0.002757 0.053213 -0.075989
v -0.002131 0.069078 -0.047691
v 0.004747 0.071267 -0.043328
v -0.001164 0.066547 -0.047617
v 0.000727 0.065635 -0.047924
v 0.003193 0.062807 -0.048259
v 0.004478 0.070793 -0.041789
v 0.003856 0.069423 -0.040542
v 0.004807 0.069539 -0.042314
v 0.001890 0.068283 -0.039221
v -0.001299 0.068034 -0.038721
v 0.011384 0.080447 -0.045223
v 0.006177 0.047827 -0.027108
v 0.001368 0.050423 -0.029840
v 0.007550 0.045764 -0.024632
v 0.006858 0.044162 -0.022574
v 0.004981 0.042638 -0.020716
v 0.001507 0.041647 -0.019453
v -0.001565 0.041087 -0.018782
v -0.001804 0.042708 -0.020379
v 0.000266 0.042917 -0.020655
v 0.001698 0.043794 -0.021669
v 0.002633 0.045156 -0.023284
v 0.002334 0.046556 -0.025044
v 0.001715 0.047640 -0.026449
v -0.000939 0.048372 -0.027302
v -0.000714 0.053286 -0.032963
v -0.001418 0.056429 -0.035855
v 0.000312 0.060621 -0.037591
v -0.001295 0.046922 -0.025370
v -0.001419 0.045585 -0.023633
v -0.001549 0.044163 -0.021972
v 0.013367 0.055128 -0.036535
v 0.011953 0.054289 -0.035921
v 0.012971 0.052740 -0.034197
v 0.014332 0.053560 -0.034638
v 0.003953 0.063033 -0.039230
v 0.004232 0.060780 -0.047077
v 0.006147 0.060802 -0.047766
v 0.003567 0.060136 -0.048835
v 0.005295 0.058919 -0.047593
v 0.006505 0.059918 -0.048225
v 0.006539 0.057951 -0.049200
v 0.007905 0.057108 -0.047891
v 0.008489 0.058787 -0.048315
v 0.011519 0.056598 -0.048106
v 0.011000 0.057381 -0.047977
v 0.014484 0.058073 -0.048670
v 0.014045 0.058302 -0.048371
v 0.012118 0.058805 -0.048369
v 0.013646 0.060760 -0.050658
v 0.012614 0.060690 -0.049052
v 0.012410 0.061912 -0.049061
v 0.011682 0.062993 -0.048760
v 0.004443 0.067148 -0.040695
v 0.002845 0.064716 -0.038828
v -0.000666 0.064176 -0.038430
v 0.035512 0.075507 -0.050446
v 0.035371 0.077250 -0.050956
v 0.035979 0.073851 -0.050295
v 0.035395 0.078759 -0.051828
v 0.036966 0.079347 -0.053166
v 0.038609 0.079287 -0.054233
v 0.039490 0.078057 -0.054948
v 0.039866 0.076295 -0.055195
v 0.039468 0.074310 -0.054533
v 0.038632 0.072743 -0.053023
v 0.037558 0.072629 -0.051810
v 0.036531 0.072626 -0.050317
v 0.036741 0.077847 -0.053464
v 0.036793 0.076335 -0.053370
v 0.037138 0.074674 -0.052904
v -0.000345 0.066365 -0.051290
v -0.000856 0.062956 -0.053858
v -0.000902 0.061700 -0.054682
v -0.001128 0.060314 -0.055760
v -0.001493 0.059822 -0.057134
v 0.009289 0.061846 -0.048983
v 0.008952 0.060855 -0.049098
v 0.009506 0.062619 -0.048681
v -0.004305 0.077140 -0.054694
v -0.004156 0.076194 -0.057595
v -0.003798 0.075232 -0.060443
v -0.003684 0.073243 -0.061933
v -0.003322 0.067739 -0.066674
v -0.003365 0.068804 -0.066262
v -0.003428 0.069834 -0.065473
v -0.003264 0.067056 -0.067466
v -0.003142 0.065838 -0.069219
v -0.003060 0.064714 -0.071170
v -0.002977 0.063945 -0.073393
v -0.002788 0.062298 -0.077124
v -0.002844 0.059610 -0.078813
v -0.002750 0.056291 -0.078950
v -0.002718 0.054485 -0.078946
v -0.001568 0.052663 -0.077800
v -0.002676 0.052441 -0.077931
v -0.003695 0.052667 -0.077795
v -0.004286 0.076298 -0.052215
v -0.004855 0.072720 -0.037495
v -0.004950 0.069928 -0.035737
v -0.004712 0.066636 -0.033649
v -0.004747 0.063884 -0.031466
v -0.004677 0.061532 -0.029184
v -0.004470 0.059177 -0.026737
v -0.004545 0.057566 -0.024644
v -0.004493 0.055195 -0.021104
v -0.004418 0.053898 -0.019628
v -0.004238 0.051920 -0.018191
v -0.003923 0.049522 -0.017335
v -0.003689 0.045602 -0.016797
v -0.003446 0.041290 -0.015721
v -0.004262 0.071156 -0.048041
v -0.004322 0.069149 -0.047536
v -0.003195 0.037207 -0.014373
v -0.003266 0.038305 -0.016257
v -0.004028 0.053135 -0.032762
v -0.003996 0.056425 -0.035768
v -0.003963 0.050441 -0.029764
v -0.003727 0.048573 -0.027543
v -0.003555 0.041122 -0.018800
v -0.004908 0.071245 -0.038175
v -0.004568 0.067862 -0.038495
v -0.004202 0.060885 -0.037596
v -0.004475 0.064224 -0.038500
v -0.004252 0.067058 -0.047619
v -0.004063 0.067400 -0.051348
v -0.003766 0.063569 -0.053901
v -0.003731 0.062145 -0.054862
v -0.003598 0.060899 -0.056189
v -0.003551 0.060493 -0.057565
v -0.003503 0.060373 -0.058688
v -0.003115 0.055990 -0.066605
v -0.002953 0.055102 -0.070144
v -0.002825 0.054375 -0.074257
v -0.003035 0.057346 -0.064565
v -0.003127 0.058737 -0.063099
v -0.003385 0.060050 -0.061227
v -0.003437 0.060250 -0.059936
v -0.003733 0.071573 -0.062954
v -0.003469 0.070731 -0.064213
v -0.003700 0.047138 -0.025647
v -0.003634 0.045771 -0.023851
v -0.003507 0.042686 -0.020348
v -0.003713 0.044219 -0.022027
v -0.003896 0.053096 -0.075836
v -0.004153 0.051414 -0.076163
v -0.003579 0.051439 -0.075683
f 1 2 3
f 1 3 4
f 5 6 7
f 5 7 8
f 5 8 9
f 5 9 10
f 10 9 11
f 10 11 12
f 13 14 12
f 13 12 11
f 15 16 14
f 15 14 13
f 17 16 15
f 17 15 18
f 19 20 21
f 19 21 22
f 23 24 25
f 23 25 26
f 27 23 26
f 27 26 28
f 29 30 24
f 29 24 23
f 29 1 4
f 29 4 30
f 31 29 23
f 31 23 27
f 32 1 29
f 32 29 33
f 34 35 36
f 34 36 37
f 38 33 29
f 38 29 31
f 38 31 34
f 38 34 37
f 39 40 27
f 39 27 28
f 40 41 35
f 40 35 34
f 40 34 31
f 40 31 27
f 42 28 26
f 42 26 43
f 44 39 28
f 44 28 42
f 45 46 42
f 45 42 43
f 47 43 26
f 47 26 25
f 48 45 43
f 48 43 47
f 49 48 47
f 49 47 50
f 44 42 46
f 44 46 51
f 50 47 25
f 50 25 52
f 52 25 24
f 52 24 53
f 54 44 51
f 54 51 55
f 56 39 44
f 56 44 54
f 40 39 56
f 40 56 57
f 58 41 40
f 58 40 57
f 59 60 52
f 59 52 53
f 61 50 52
f 61 52 60
f 62 49 50
f 62 50 61
f 63 64 65
f 63 65 66
f 66 65 67
f 66 67 68
f 66 68 62
f 66 62 61
f 66 61 60
f 66 60 63
f 69 63 60
f 69 60 59
f 70 71 64
f 70 64 63
f 72 71 70
f 72 70 73
f 70 63 69
f 70 69 74
f 74 69 75
f 74 75 76
f 76 73 70
f 76 70 74
f 76 75 77
f 76 77 78
f 73 76 78
f 73 78 79
f 72 73 79
f 72 79 80
f 81 41 58
f 81 58 82
f 83 81 82
f 83 82 84
f 85 86 83
f 85 83 84
f 87 22 86
f 87 86 85
f 88 19 22
f 88 22 87
f 89 90 19
f 89 19 88
f 91 92 90
f 91 90 89
f 93 94 92
f 93 92 91
f 95 96 94
f 95 94 93
f 97 36 96
f 97 96 95
f 98 99 100
f 98 100 101
f 101 100 80
f 101 80 102
f 102 80 79
f 102 79 103
f 104 105 106
f 104 106 107
f 108 102 103
f 108 103 109
f 106 105 108
f 106 108 109
f 103 79 78
f 103 78 110
f 111 107 106
f 111 106 112
f 113 109 103
f 113 103 110
f 112 106 109
f 112 109 113
f 114 107 111
f 114 111 115
f 116 114 115
f 116 115 117
f 118 104 107
f 118 107 119
f 120 121 122
f 120 122 123
f 124 125 121
f 124 121 120
f 126 118 125
f 126 125 124
f 127 104 118
f 127 118 126
f 128 102 108
f 128 108 129
f 130 101 102
f 130 102 128
f 131 98 101
f 131 101 130
f 132 133 134
f 132 134 135
f 136 137 133
f 136 133 132
f 136 120 123
f 136 123 137
f 119 107 114
f 119 114 138
f 138 114 116
f 138 116 139
f 125 118 119
f 125 119 140
f 141 121 125
f 141 125 140
f 142 122 121
f 142 121 141
f 140 119 138
f 140 138 143
f 143 138 139
f 143 139 144
f 145 141 140
f 145 140 143
f 146 147 134
f 146 134 133
f 148 149 147
f 148 147 146
f 150 151 122
f 150 122 142
f 152 123 122
f 152 122 151
f 152 151 150
f 152 150 153
f 142 141 145
f 142 145 154
f 150 142 154
f 150 154 155
f 156 153 150
f 156 150 155
f 157 146 133
f 157 133 137
f 158 148 146
f 158 146 157
f 157 137 123
f 157 123 152
f 157 152 153
f 157 153 158
f 153 156 159
f 153 159 158
f 160 143 144
f 160 144 161
f 162 145 143
f 162 143 160
f 154 145 162
f 154 162 163
f 155 154 163
f 155 163 164
f 165 156 155
f 165 155 164
f 166 165 164
f 166 164 167
f 167 164 163
f 167 163 168
f 169 159 156
f 169 156 165
f 169 165 166
f 169 166 170
f 170 166 167
f 170 167 171
f 172 171 167
f 172 167 168
f 168 163 162
f 168 162 173
f 174 172 168
f 174 168 173
f 173 162 160
f 173 160 175
f 174 173 175
f 174 175 176
f 175 160 161
f 175 161 177
f 176 175 177
f 176 177 178
f 179 129 108
f 179 108 105
f 179 105 104
f 179 104 127
f 37 36 97
f 37 97 180
f 181 38 37
f 181 37 180
f 182 33 38
f 182 38 181
f 183 32 33
f 183 33 182
f 180 97 184
f 180 184 185
f 181 180 185
f 181 185 186
f 182 181 186
f 182 186 187
f 183 182 187
f 183 187 188
f 189 85 84
f 189 84 190
f 87 85 189
f 87 189 191
f 192 88 87
f 192 87 191
f 89 88 192
f 89 192 193
f 91 89 193
f 91 193 194
f 93 91 194
f 93 194 195
f 95 93 195
f 95 195 196
f 197 198 95
f 197 95 196
f 184 97 95
f 184 95 198
f 196 195 194
f 196 194 199
f 200 201 202
f 200 202 203
f 204 205 197
f 204 197 206
f 206 197 196
f 206 196 199
f 199 194 193
f 199 193 207
f 190 84 82
f 190 82 208
f 191 189 190
f 191 190 209
f 210 116 117
f 210 117 211
f 212 139 116
f 212 116 210
f 144 139 212
f 144 212 213
f 161 144 213
f 161 213 214
f 177 161 214
f 177 214 215
f 178 177 215
f 178 215 216
f 217 216 215
f 217 215 218
f 218 215 214
f 218 214 219
f 219 214 213
f 219 213 220
f 220 213 212
f 220 212 221
f 221 212 210
f 221 210 222
f 210 211 223
f 210 223 222
f 223 211 224
f 223 224 225
f 226 225 224
f 226 224 227
f 226 227 228
f 226 228 229
f 230 226 229
f 230 229 231
f 232 225 226
f 232 226 230
f 222 223 225
f 222 225 232
f 233 221 222
f 233 222 232
f 234 220 221
f 234 221 233
f 235 219 220
f 235 220 234
f 236 218 219
f 236 219 235
f 237 217 218
f 237 218 236
f 238 239 228
f 238 228 240
f 240 228 227
f 240 227 241
f 241 227 224
f 241 224 242
f 242 224 211
f 242 211 243
f 243 211 117
f 243 117 244
f 244 117 115
f 244 115 245
f 245 115 111
f 245 111 246
f 247 246 111
f 247 111 112
f 247 112 113
f 247 113 248
f 249 248 250
f 249 250 251
f 252 247 248
f 252 248 249
f 253 254 245
f 253 245 246
f 253 246 247
f 253 247 252
f 255 244 245
f 255 245 254
f 256 257 242
f 256 242 243
f 256 243 244
f 256 244 255
f 258 241 242
f 258 242 257
f 255 254 253
f 255 253 259
f 260 258 257
f 260 257 256
f 260 256 255
f 260 255 259
f 261 252 249
f 261 249 251
f 262 263 238
f 262 238 240
f 262 240 241
f 262 241 258
f 259 253 252
f 259 252 261
f 264 263 262
f 264 262 265
f 265 260 259
f 265 259 261
f 264 266 238
f 264 238 263
f 251 250 266
f 251 266 264
f 265 261 251
f 265 251 264
f 265 262 258
f 265 258 260
f 110 78 77
f 110 77 267
f 239 238 266
f 239 266 268
f 250 248 113
f 250 113 269
f 269 113 110
f 269 110 267
f 268 266 250
f 268 250 269
f 270 229 228
f 270 228 239
f 271 77 75
f 271 75 272
f 186 185 273
f 186 273 274
f 273 185 184
f 273 184 275
f 276 277 274
f 276 274 273
f 278 77 271
f 278 271 276
f 279 267 77
f 279 77 278
f 280 269 267
f 280 267 279
f 281 268 269
f 281 269 280
f 270 239 268
f 270 268 281
f 282 276 273
f 282 273 275
f 283 198 197
f 283 197 284
f 275 184 198
f 275 198 283
f 278 276 282
f 278 282 285
f 286 279 278
f 286 278 285
f 280 279 286
f 280 286 287
f 231 229 270
f 231 270 288
f 281 280 287
f 281 287 289
f 288 270 281
f 288 281 289
f 289 287 290
f 289 290 291
f 290 287 286
f 290 286 292
f 293 283 284
f 293 284 294
f 293 282 275
f 293 275 283
f 284 197 205
f 284 205 294
f 285 282 293
f 285 293 295
f 295 293 294
f 295 294 296
f 295 292 286
f 295 286 285
f 297 292 295
f 297 295 296
f 298 290 292
f 298 292 297
f 299 291 290
f 299 290 298
f 207 193 192
f 207 192 300
f 301 206 199
f 301 199 207
f 302 204 206
f 302 206 301
f 303 304 204
f 303 204 302
f 305 208 82
f 305 82 306
f 307 99 304
f 307 304 303
f 308 307 303
f 308 303 309
f 308 309 305
f 308 305 306
f 310 72 80
f 310 80 100
f 306 82 58
f 306 58 311
f 310 100 99
f 310 99 307
f 308 306 311
f 308 311 312
f 310 307 308
f 310 308 312
f 71 72 310
f 71 310 313
f 311 58 57
f 311 57 314
f 312 311 314
f 312 314 315
f 313 310 312
f 313 312 315
f 314 57 56
f 314 56 316
f 64 71 313
f 64 313 317
f 318 317 313
f 318 313 315
f 318 315 314
f 318 314 316
f 316 56 54
f 316 54 319
f 65 64 317
f 65 317 320
f 321 320 317
f 321 317 318
f 321 318 316
f 321 316 319
f 319 54 55
f 319 55 322
f 323 67 65
f 323 65 320
f 324 323 320
f 324 320 321
f 324 321 319
f 324 319 322
f 325 323 324
f 325 324 326
f 326 324 322
f 326 322 327
f 327 322 55
f 327 55 328
f 328 55 51
f 328 51 329
f 329 51 46
f 329 46 330
f 330 46 45
f 330 45 331
f 331 45 48
f 331 48 332
f 332 48 49
f 332 49 333
f 333 49 62
f 333 62 334
f 335 334 62
f 335 62 68
f 336 67 323
f 336 323 325
f 336 335 68
f 336 68 67
f 337 326 327
f 337 327 338
f 339 325 326
f 339 326 337
f 336 325 339
f 336 339 340
f 341 335 336
f 341 336 340
f 342 334 335
f 342 335 341
f 343 333 334
f 343 334 342
f 344 332 333
f 344 333 343
f 345 331 332
f 345 332 344
f 346 330 331
f 346 331 345
f 347 329 330
f 347 330 346
f 348 338 327
f 348 327 328
f 348 328 329
f 348 329 347
f 349 339 337
f 349 337 350
f 350 337 338
f 350 338 351
f 351 338 348
f 351 348 352
f 352 348 347
f 352 347 353
f 346 345 354
f 346 354 355
f 353 347 346
f 353 346 355
f 356 352 353
f 356 353 355
f 356 350 351
f 356 351 352
f 340 339 349
f 340 349 357
f 358 341 340
f 358 340 357
f 359 343 342
f 359 342 360
f 361 349 350
f 361 350 356
f 356 355 354
f 356 354 361
f 342 341 358
f 342 358 360
f 362 359 360
f 362 360 363
f 344 343 359
f 344 359 362
f 354 345 344
f 354 344 362
f 363 361 354
f 363 354 362
f 357 349 361
f 357 361 363
f 360 358 357
f 360 357 363
f 364 90 92
f 364 92 365
f 20 19 90
f 20 90 364
f 366 20 364
f 366 364 365
f 367 21 20
f 367 20 366
f 86 22 21
f 86 21 367
f 368 83 86
f 368 86 367
f 365 92 94
f 365 94 369
f 368 367 366
f 368 366 370
f 370 366 365
f 370 365 369
f 371 35 41
f 371 41 372
f 373 36 35
f 373 35 371
f 96 36 373
f 96 373 374
f 369 94 96
f 369 96 374
f 372 41 81
f 372 81 375
f 375 81 83
f 375 83 368
f 376 371 372
f 376 372 375
f 375 368 370
f 375 370 376
f 376 370 369
f 376 369 374
f 374 373 371
f 374 371 376
f 187 186 274
f 187 274 377
f 377 274 277
f 377 277 378
f 188 187 377
f 188 377 379
f 3 2 380
f 3 380 381
f 382 381 380
f 382 380 383
f 380 2 384
f 380 384 385
f 383 380 385
f 383 385 386
f 387 377 378
f 387 378 388
f 389 379 377
f 389 377 387
f 390 391 392
f 390 392 382
f 387 388 391
f 387 391 390
f 390 393 389
f 390 389 387
f 394 390 382
f 394 382 383
f 393 390 394
f 393 394 395
f 396 394 383
f 396 383 386
f 397 395 394
f 397 394 396
f 398 5 10
f 398 10 399
f 399 10 12
f 399 12 400
f 400 12 14
f 400 14 401
f 402 16 17
f 402 17 403
f 401 14 16
f 401 16 402
f 404 401 402
f 404 402 405
f 400 401 404
f 400 404 406
f 399 400 406
f 399 406 407
f 398 399 407
f 398 407 408
f 409 405 402
f 409 402 403
f 403 17 410
f 403 410 411
f 412 413 397
f 412 397 396
f 414 398 408
f 414 408 415
f 412 396 386
f 412 386 416
f 415 417 418
f 415 418 414
f 419 413 412
f 419 412 420
f 420 418 417
f 420 417 419
f 420 412 416
f 420 416 421
f 414 418 420
f 414 420 421
f 422 5 398
f 422 398 414
f 416 386 385
f 416 385 423
f 421 416 423
f 421 423 424
f 422 414 421
f 422 421 424
f 6 5 422
f 6 422 425
f 423 385 384
f 423 384 426
f 424 423 426
f 424 426 427
f 425 422 424
f 425 424 427
f 428 271 272
f 428 272 429
f 430 276 271
f 430 271 428
f 277 276 430
f 277 430 431
f 378 277 431
f 378 431 432
f 388 378 432
f 388 432 433
f 391 388 433
f 391 433 434
f 392 391 434
f 392 434 435
f 436 392 435
f 436 435 437
f 438 430 428
f 438 428 439
f 428 429 440
f 428 440 439
f 440 429 441
f 440 441 442
f 443 438 439
f 443 439 444
f 431 430 438
f 431 438 443
f 445 432 431
f 445 431 443
f 444 439 440
f 444 440 442
f 446 447 437
f 446 437 448
f 444 442 449
f 444 449 450
f 448 437 435
f 448 435 451
f 435 434 452
f 435 452 451
f 450 449 446
f 450 446 453
f 450 445 443
f 450 443 444
f 433 432 445
f 433 445 454
f 454 445 450
f 454 450 453
f 452 434 433
f 452 433 454
f 453 451 452
f 453 452 454
f 446 448 451
f 446 451 453
f 455 382 392
f 455 392 436
f 456 59 53
f 456 53 457
f 441 429 272
f 441 272 458
f 458 69 59
f 458 59 456
f 272 75 69
f 272 69 458
f 459 436 437
f 459 437 447
f 460 4 3
f 460 3 461
f 30 4 460
f 30 460 462
f 24 30 462
f 24 462 463
f 457 53 24
f 457 24 463
f 458 456 457
f 458 457 464
f 464 465 466
f 464 466 458
f 461 3 381
f 461 381 467
f 467 381 382
f 467 382 455
f 462 460 461
f 462 461 468
f 469 436 459
f 469 459 470
f 467 455 436
f 467 436 469
f 469 470 471
f 469 471 468
f 468 461 467
f 468 467 469
f 470 459 466
f 470 466 465
f 470 465 464
f 470 464 471
f 463 462 468
f 463 468 471
f 464 457 463
f 464 463 471
f 192 191 209
f 192 209 300
f 300 209 472
f 300 472 473
f 473 301 207
f 473 207 300
f 208 305 474
f 208 474 472
f 209 190 208
f 209 208 472
f 475 147 149
f 475 149 476
f 477 478 479
f 477 479 475
f 477 475 476
f 477 476 480
f 478 205 204
f 478 204 479
f 297 296 294
f 297 294 481
f 482 483 299
f 482 299 298
f 481 294 205
f 481 205 478
f 481 478 477
f 481 477 482
f 481 482 298
f 481 298 297
f 482 477 480
f 482 480 483
f 479 204 304
f 479 304 484
f 485 134 147
f 485 147 475
f 484 304 99
f 484 99 98
f 484 98 131
f 484 131 486
f 484 486 487
f 484 487 485
f 484 485 475
f 484 475 479
f 487 135 134
f 487 134 485
f 128 129 488
f 128 488 489
f 490 130 128
f 490 128 489
f 131 130 490
f 131 490 491
f 492 491 490
f 492 490 489
f 493 487 486
f 493 486 494
f 486 131 491
f 486 491 494
f 495 132 135
f 495 135 496
f 497 494 491
f 497 491 492
f 496 493 494
f 496 494 497
f 135 487 493
f 135 493 496
f 136 132 495
f 136 495 498
f 499 120 136
f 499 136 498
f 500 124 120
f 500 120 499
f 501 495 496
f 501 496 497
f 498 495 501
f 498 501 502
f 500 499 498
f 500 498 502
f 503 127 126
f 503 126 504
f 505 501 497
f 505 497 492
f 126 124 500
f 126 500 504
f 492 489 488
f 492 488 505
f 506 179 127
f 506 127 503
f 504 500 502
f 504 502 507
f 488 129 179
f 488 179 506
f 506 503 504
f 506 504 507
f 507 505 488
f 507 488 506
f 502 501 505
f 502 505 507
f 508 232 230
f 508 230 509
f 233 232 508
f 233 508 510
f 234 233 510
f 234 510 511
f 512 510 508
f 512 508 509
f 235 234 511
f 235 511 513
f 514 236 235
f 514 235 513
f 237 236 514
f 237 514 515
f 511 510 512
f 511 512 516
f 517 515 514
f 517 514 513
f 517 513 511
f 517 511 516
f 466 459 447
f 466 447 518
f 441 458 466
f 441 466 518
f 518 447 446
f 518 446 449
f 449 442 441
f 449 441 518
f 519 473 472
f 519 472 474
f 309 303 302
f 309 302 519
f 519 302 301
f 519 301 473
f 519 474 305
f 519 305 309
f 520 521 522
f 520 522 523
f 524 525 520
f 524 520 523
f 526 527 528
f 526 528 522
f 522 521 529
f 522 529 526
f 528 527 530
f 528 530 531
f 531 532 533
f 531 533 528
f 521 520 534
f 521 534 535
f 536 537 529
f 536 529 521
f 535 538 536
f 535 536 521
f 520 525 539
f 520 539 534
f 540 541 527
f 540 527 526
f 526 529 542
f 526 542 540
f 527 541 543
f 527 543 530
f 537 544 542
f 537 542 529
f 540 542 545
f 540 545 541
f 542 544 546
f 542 546 545
f 545 547 543
f 545 543 541
f 530 543 548
f 530 548 549
f 549 550 531
f 549 531 530
f 547 551 548
f 547 548 543
f 544 537 552
f 544 552 553
f 544 553 554
f 544 554 546
f 536 555 556
f 536 556 537
f 537 556 557
f 537 557 552
f 532 558 559
f 532 559 533
f 559 558 560
f 559 560 561
f 562 563 564
f 562 564 565
f 561 560 562
f 561 562 565
f 563 566 567
f 563 567 564
f 566 563 568
f 566 568 569
f 563 562 570
f 563 570 571
f 563 571 572
f 563 572 568
f 560 573 570
f 560 570 562
f 558 532 574
f 558 574 575
f 558 575 573
f 558 573 560
f 532 531 550
f 532 550 574
f 576 577 574
f 576 574 550
f 550 549 578
f 550 578 576
f 577 579 575
f 577 575 574
f 575 579 580
f 575 580 573
f 581 582 571
f 581 571 570
f 570 583 584
f 570 584 581
f 573 580 583
f 573 583 570
f 582 585 572
f 582 572 571
f 568 572 586
f 568 586 587
f 587 588 569
f 587 569 568
f 585 589 586
f 585 586 572
f 588 587 590
f 588 590 591
f 587 586 592
f 587 592 590
f 589 593 592
f 589 592 586
f 591 590 594
f 591 594 595
f 590 592 596
f 590 596 594
f 593 597 596
f 593 596 592
f 598 599 594
f 598 594 596
f 597 600 598
f 597 598 596
f 599 601 595
f 599 595 594
f 602 603 599
f 602 599 598
f 604 605 606
f 604 606 607
f 607 606 608
f 607 608 609
f 607 610 611
f 607 611 604
f 612 613 610
f 612 610 607
f 609 614 612
f 609 612 607
f 605 615 616
f 605 616 606
f 606 616 617
f 606 617 608
f 556 555 618
f 556 618 619
f 556 619 620
f 556 620 557
f 615 621 622
f 615 622 616
f 616 622 623
f 616 623 624
f 616 624 625
f 616 625 617
f 622 621 626
f 622 626 627
f 622 627 628
f 622 628 623
f 610 629 630
f 610 630 611
f 613 631 629
f 613 629 610
f 629 632 633
f 629 633 630
f 631 634 632
f 631 632 629
f 632 635 636
f 632 636 633
f 634 637 635
f 634 635 632
f 635 638 639
f 635 639 636
f 637 640 638
f 637 638 635
f 638 641 642
f 638 642 639
f 640 643 641
f 640 641 638
f 644 645 642
f 644 642 641
f 643 646 644
f 643 644 641
f 633 636 639
f 633 639 647
f 647 648 630
f 647 630 633
f 639 642 645
f 639 645 647
f 648 649 611
f 648 611 630
f 649 605 604
f 649 604 611
f 649 621 615
f 649 615 605
f 538 650 555
f 538 555 536
f 645 644 627
f 645 627 626
f 645 626 648
f 645 648 647
f 646 628 627
f 646 627 644
f 626 621 649
f 626 649 648
f 651 652 624
f 651 624 623
f 623 628 653
f 623 653 654
f 654 655 651
f 654 651 623
f 652 656 625
f 652 625 624
f 628 646 657
f 628 657 653
f 646 643 658
f 646 658 657
f 643 640 659
f 643 659 658
f 660 659 640
f 660 640 637
f 637 634 661
f 637 661 660
f 634 631 662
f 634 662 661
f 631 613 663
f 631 663 662
f 613 612 664
f 613 664 665
f 665 200 663
f 665 663 613
f 612 614 666
f 612 666 664
f 525 524 667
f 525 667 668
f 668 669 539
f 668 539 525
f 670 671 672
f 670 672 673
f 617 625 671
f 617 671 670
f 670 673 674
f 670 674 650
f 650 538 617
f 650 617 670
f 675 676 672
f 675 672 671
f 671 625 656
f 671 656 675
f 677 678 673
f 677 673 672
f 676 679 677
f 676 677 672
f 678 680 674
f 678 674 673
f 618 555 650
f 618 650 674
f 681 682 619
f 681 619 618
f 618 674 680
f 618 680 681
f 682 683 620
f 682 620 619
f 552 557 684
f 552 684 685
f 685 686 553
f 685 553 552
f 557 620 687
f 557 687 684
f 620 683 688
f 620 688 687
f 553 686 689
f 553 689 554
f 538 535 608
f 538 608 617
f 535 534 609
f 535 609 608
f 534 539 614
f 534 614 609
f 614 539 669
f 614 669 666
f 688 683 690
f 688 690 691
f 688 691 692
f 688 692 693
f 693 694 687
f 693 687 688
f 682 695 690
f 682 690 683
f 691 690 696
f 691 696 697
f 697 698 692
f 697 692 691
f 690 695 699
f 690 699 696
f 681 700 695
f 681 695 682
f 695 700 701
f 695 701 699
f 700 681 680
f 700 680 702
f 700 702 703
f 700 703 701
f 678 704 702
f 678 702 680
f 702 704 705
f 702 705 703
f 677 706 704
f 677 704 678
f 704 706 707
f 704 707 705
f 679 708 706
f 679 706 677
f 706 708 709
f 706 709 707
f 708 679 710
f 708 710 711
f 708 711 712
f 708 712 709
f 679 676 713
f 679 713 710
f 694 714 684
f 694 684 687
f 714 715 685
f 714 685 684
f 715 689 686
f 715 686 685
f 676 675 716
f 676 716 713
f 675 656 717
f 675 717 716
f 656 652 718
f 656 718 717
f 652 651 719
f 652 719 718
f 720 721 693
f 720 693 692
f 698 722 720
f 698 720 692
f 693 721 723
f 693 723 694
f 724 725 721
f 724 721 720
f 722 726 724
f 722 724 720
f 721 725 727
f 721 727 723
f 711 710 725
f 711 725 724
f 726 712 711
f 726 711 724
f 710 713 727
f 710 727 725
f 727 728 729
f 727 729 723
f 713 716 728
f 713 728 727
f 728 730 731
f 728 731 729
f 716 717 730
f 716 730 728
f 730 732 733
f 730 733 731
f 717 718 732
f 717 732 730
f 734 735 733
f 734 733 732
f 736 737 734
f 736 734 732
f 718 719 736
f 718 736 732
f 738 739 731
f 738 731 733
f 735 740 738
f 735 738 733
f 739 714 729
f 739 729 731
f 714 694 723
f 714 723 729
f 741 742 739
f 741 739 738
f 740 743 741
f 740 741 738
f 742 715 714
f 742 714 739
f 744 745 689
f 744 689 715
f 715 742 741
f 715 741 744
f 689 745 746
f 689 746 747
f 747 748 749
f 747 749 689
f 689 749 750
f 689 750 554
f 743 751 744
f 743 744 741
f 751 752 745
f 751 745 744
f 745 752 753
f 745 753 746
f 752 751 754
f 752 754 755
f 752 755 756
f 752 756 753
f 751 743 757
f 751 757 758
f 758 759 754
f 758 754 751
f 743 740 760
f 743 760 757
f 740 735 761
f 740 761 760
f 735 734 762
f 735 762 761
f 737 763 762
f 737 762 734
f 764 765 755
f 764 755 754
f 754 759 766
f 754 766 764
f 756 755 767
f 756 767 768
f 756 768 769
f 756 769 770
f 770 771 753
f 770 753 756
f 772 773 767
f 772 767 755
f 765 774 772
f 765 772 755
f 768 767 775
f 768 775 776
f 768 776 777
f 768 777 769
f 767 773 778
f 767 778 775
f 758 757 779
f 758 779 780
f 758 780 781
f 758 781 759
f 757 760 782
f 757 782 779
f 760 761 783
f 760 783 782
f 761 762 784
f 761 784 785
f 761 785 786
f 761 786 783
f 762 763 787
f 762 787 784
f 788 789 737
f 788 737 736
f 719 790 788
f 719 788 736
f 651 655 790
f 651 790 719
f 789 791 763
f 789 763 737
f 763 791 792
f 763 792 787
f 793 794 655
f 793 655 654
f 654 653 795
f 654 795 793
f 655 794 796
f 655 796 790
f 653 657 658
f 653 658 795
f 658 659 797
f 658 797 795
f 659 660 798
f 659 798 797
f 660 661 799
f 660 799 798
f 661 662 663
f 661 663 799
f 200 203 799
f 200 799 663
f 665 664 774
f 665 774 800
f 665 800 801
f 665 801 200
f 664 666 772
f 664 772 774
f 802 202 789
f 802 789 788
f 790 796 802
f 790 802 788
f 202 803 791
f 202 791 789
f 804 805 792
f 804 792 791
f 803 806 804
f 803 804 791
f 784 787 807
f 784 807 808
f 808 809 785
f 808 785 784
f 787 792 810
f 787 810 807
f 809 811 786
f 809 786 785
f 812 813 783
f 812 783 786
f 811 814 812
f 811 812 786
f 783 813 815
f 783 815 782
f 816 817 813
f 816 813 812
f 814 818 816
f 814 816 812
f 813 817 819
f 813 819 815
f 817 816 820
f 817 820 821
f 817 821 822
f 817 822 819
f 818 823 820
f 818 820 816
f 821 820 824
f 821 824 825
f 825 826 822
f 825 822 821
f 823 827 824
f 823 824 820
f 782 815 828
f 782 828 779
f 815 819 829
f 815 829 828
f 819 822 830
f 819 830 831
f 831 832 829
f 831 829 819
f 826 833 830
f 826 830 822
f 834 835 828
f 834 828 829
f 829 832 836
f 829 836 834
f 835 837 779
f 835 779 828
f 838 839 832
f 838 832 831
f 831 830 840
f 831 840 838
f 839 841 836
f 839 836 832
f 833 842 840
f 833 840 830
f 779 837 843
f 779 843 780
f 792 805 844
f 792 844 810
f 834 836 845
f 834 845 846
f 846 847 835
f 846 835 834
f 836 841 848
f 836 848 845
f 837 835 847
f 837 847 849
f 849 850 843
f 849 843 837
f 780 843 851
f 780 851 852
f 780 852 853
f 780 853 781
f 850 854 851
f 850 851 843
f 838 840 855
f 838 855 856
f 838 856 857
f 838 857 839
f 842 858 855
f 842 855 840
f 859 860 856
f 859 856 855
f 855 858 861
f 855 861 859
f 860 862 857
f 860 857 856
f 839 857 863
f 839 863 841
f 864 865 863
f 864 863 857
f 862 866 864
f 862 864 857
f 841 863 867
f 841 867 848
f 863 865 868
f 863 868 867
f 865 864 869
f 865 869 870
f 865 870 871
f 865 871 868
f 866 872 869
f 866 869 864
f 870 869 873
f 870 873 874
f 870 874 875
f 870 875 871
f 872 876 873
f 872 873 869
f 874 873 877
f 874 877 878
f 874 878 879
f 874 879 875
f 876 880 877
f 876 877 873
f 877 852 851
f 877 851 878
f 878 851 854
f 878 854 879
f 852 877 880
f 852 880 853
f 881 882 858
f 881 858 842
f 833 883 881
f 833 881 842
f 858 882 884
f 858 884 861
f 882 881 885
f 882 885 886
f 882 886 887
f 882 887 884
f 883 888 885
f 883 885 881
f 886 885 889
f 886 889 890
f 886 890 891
f 886 891 887
f 885 888 892
f 885 892 889
f 826 825 893
f 826 893 894
f 826 894 895
f 826 895 833
f 825 824 896
f 825 896 893
f 827 897 896
f 827 896 824
f 898 899 893
f 898 893 896
f 900 901 898
f 900 898 896
f 897 902 900
f 897 900 896
f 899 903 894
f 899 894 893
f 894 903 904
f 894 904 895
f 905 906 899
f 905 899 898
f 898 901 907
f 898 907 905
f 906 908 903
f 906 903 899
f 903 908 909
f 903 909 904
f 910 911 901
f 910 901 900
f 902 912 910
f 902 910 900
f 901 911 913
f 901 913 907
f 911 910 914
f 911 914 915
f 911 915 916
f 911 916 913
f 912 917 914
f 912 914 910
f 805 804 915
f 805 915 914
f 917 844 805
f 917 805 914
f 915 804 806
f 915 806 916
f 803 202 201
f 803 201 918
f 918 919 806
f 918 806 803
f 920 921 922
f 920 922 923
f 202 802 924
f 202 924 203
f 925 926 916
f 925 916 806
f 806 919 927
f 806 927 925
f 926 928 913
f 926 913 916
f 928 929 907
f 928 907 913
f 929 930 905
f 929 905 907
f 930 908 906
f 930 906 905
f 930 931 909
f 930 909 908
f 897 827 932
f 897 932 902
f 827 823 933
f 827 933 932
f 823 818 814
f 823 814 933
f 811 809 934
f 811 934 935
f 935 933 814
f 935 814 811
f 809 808 807
f 809 807 934
f 807 810 936
f 807 936 934
f 810 844 917
f 810 917 936
f 917 912 937
f 917 937 936
f 912 902 932
f 912 932 937
f 833 895 938
f 833 938 883
f 895 904 939
f 895 939 938
f 904 909 940
f 904 940 939
f 909 931 941
f 909 941 940
f 942 888 883
f 942 883 938
f 938 939 943
f 938 943 942
f 944 945 927
f 944 927 919
f 919 918 946
f 919 946 944
f 929 947 931
f 929 931 930
f 948 941 931
f 948 931 947
f 949 950 941
f 949 941 948
f 950 951 940
f 950 940 941
f 939 940 951
f 939 951 943
f 888 942 952
f 888 952 892
f 942 943 953
f 942 953 952
f 943 951 954
f 943 954 953
f 951 950 949
f 951 949 954
f 955 946 918
f 955 918 201
f 200 801 955
f 200 955 201
f 956 957 921
f 956 921 920
f 666 669 773
f 666 773 772
f 669 668 778
f 669 778 773
f 668 667 958
f 668 958 778
f 801 800 959
f 801 959 955
f 800 774 765
f 800 765 959
f 778 958 960
f 778 960 961
f 961 962 775
f 961 775 778
f 963 964 946
f 963 946 955
f 955 959 965
f 955 965 963
f 964 966 944
f 964 944 946
f 966 967 945
f 966 945 944
f 796 968 924
f 796 924 802
f 794 793 968
f 794 968 796
f 795 797 968
f 795 968 793
f 797 798 924
f 797 924 968
f 798 799 203
f 798 203 924
f 860 969 866
f 860 866 862
f 866 969 970
f 866 970 872
f 860 859 971
f 860 971 969
f 859 861 972
f 859 972 971
f 861 884 973
f 861 973 972
f 884 887 974
f 884 974 973
f 887 891 975
f 887 975 974
f 976 977 974
f 976 974 975
f 977 978 973
f 977 973 974
f 978 979 972
f 978 972 973
f 979 980 971
f 979 971 972
f 980 981 969
f 980 969 971
f 981 982 970
f 981 970 969
f 970 983 876
f 970 876 872
f 983 984 880
f 983 880 876
f 880 984 985
f 880 985 853
f 982 981 980
f 982 980 986
f 980 979 987
f 980 987 986
f 979 978 988
f 979 988 987
f 978 977 976
f 978 976 988
f 854 850 989
f 854 989 990
f 990 875 879
f 990 879 854
f 850 849 847
f 850 847 989
f 990 991 871
f 990 871 875
f 991 867 868
f 991 868 871
f 991 992 848
f 991 848 867
f 992 846 845
f 992 845 848
f 992 989 847
f 992 847 846
f 989 992 991
f 989 991 990
f 759 781 993
f 759 993 766
f 962 994 776
f 962 776 775
f 776 994 995
f 776 995 777
f 994 962 996
f 994 996 997
f 994 997 998
f 994 998 995
f 961 578 996
f 961 996 962
f 999 1000 997
f 999 997 996
f 578 549 999
f 578 999 996
f 997 1000 1001
f 997 1001 998
f 1000 999 551
f 1000 551 1002
f 1000 1002 1003
f 1000 1003 1001
f 549 548 551
f 549 551 999
f 1002 551 1004
f 1002 1004 1005
f 1002 1005 1006
f 1002 1006 1003
f 547 1007 1004
f 547 1004 551
f 1005 1004 749
f 1005 749 748
f 1005 748 1008
f 1005 1008 1006
f 1007 750 749
f 1007 749 1004
f 748 747 1009
f 748 1009 1008
f 747 746 1010
f 747 1010 1009
f 746 753 771
f 746 771 1010
f 985 993 781
f 985 781 853
f 765 764 965
f 765 965 959
f 764 766 1011
f 764 1011 965
f 766 993 1012
f 766 1012 1011
f 993 985 1013
f 993 1013 1012
f 964 963 965
f 964 965 1011
f 1011 1012 966
f 1011 966 964
f 1013 967 966
f 1013 966 1012
f 1014 1015 712
f 1014 712 726
f 726 722 1016
f 726 1016 1014
f 1015 1017 709
f 1015 709 712
f 1017 1018 707
f 1017 707 709
f 1018 1019 705
f 1018 705 707
f 1019 1020 703
f 1019 703 705
f 1020 1021 701
f 1020 701 703
f 1021 1022 699
f 1021 699 701
f 1022 1023 696
f 1022 696 699
f 1023 1024 697
f 1023 697 696
f 1024 1025 698
f 1024 698 697
f 1025 1016 722
f 1025 722 698
f 1026 1015 1014
f 1026 1014 1027
f 1027 1014 1016
f 1027 1016 1028
f 1028 1022 1021
f 1028 1021 1027
f 1027 1021 1020
f 1027 1020 1026
f 1017 1015 1026
f 1017 1026 1018
f 1016 1025 1024
f 1016 1024 1028
f 1024 1023 1022
f 1024 1022 1028
f 1020 1019 1018
f 1020 1018 1026
f 961 960 1029
f 961 1029 578
f 1029 1030 576
f 1029 576 578
f 1030 1031 577
f 1030 577 576
f 577 1031 1032
f 577 1032 579
f 579 1032 1033
f 579 1033 580
f 1033 584 583
f 1033 583 580
f 1034 1035 1006
f 1034 1006 1008
f 1008 1009 1036
f 1008 1036 1034
f 1035 1001 1003
f 1035 1003 1006
f 1009 1010 771
f 1009 771 1036
f 771 770 769
f 771 769 1036
f 769 777 1034
f 769 1034 1036
f 777 995 1035
f 777 1035 1034
f 995 998 1001
f 995 1001 1035
f 545 546 1007
f 545 1007 547
f 546 554 750
f 546 750 1007
f 937 935 934
f 937 934 936
f 932 933 935
f 932 935 937
f 1037 523 522
f 1037 522 1038
f 1039 2 1
f 1039 1 1038
f 1039 1038 522
f 1039 522 528
f 1040 384 2
f 1040 2 1039
f 1040 1039 528
f 1040 528 533
f 1041 1042 564
f 1041 564 567
f 1042 1043 565
f 1042 565 564
f 1041 7 6
f 1041 6 1042
f 1041 567 566
f 1041 566 1044
f 1044 8 7
f 1044 7 1041
f 1044 566 569
f 1044 569 1045
f 1045 9 8
f 1045 8 1044
f 1045 569 588
f 1045 588 1046
f 1046 11 9
f 1046 9 1045
f 1046 588 591
f 1046 591 1047
f 1047 13 11
f 1047 11 1046
f 1047 591 595
f 1047 595 1048
f 1048 15 13
f 1048 13 1047
f 1048 595 601
f 1048 601 1049
f 1049 601 599
f 1049 599 1050
f 1049 18 15
f 1049 15 1048
f 1050 17 18
f 1050 18 1049
f 1050 599 603
f 1050 603 1051
f 1051 410 17
f 1051 17 1050
f 1051 603 1052
f 1051 1052 1053
f 1053 1054 410
f 1053 410 1051
f 1038 1 32
f 1038 32 1037
f 1055 524 523
f 1055 523 1037
f 1056 480 476
f 1056 476 1057
f 1058 926 925
f 1058 925 1057
f 1057 476 149
f 1057 149 1058
f 1059 928 926
f 1059 926 1058
f 1058 149 148
f 1058 148 1059
f 1060 929 928
f 1060 928 1059
f 1059 148 158
f 1059 158 1060
f 1061 947 929
f 1061 929 1060
f 1060 158 159
f 1060 159 1061
f 1062 948 947
f 1062 947 1061
f 1061 159 169
f 1061 169 1062
f 1063 949 948
f 1063 948 1062
f 1062 169 170
f 1062 170 1063
f 1063 170 171
f 1063 171 1064
f 1064 954 949
f 1064 949 1063
f 1064 171 172
f 1064 172 1065
f 1065 953 954
f 1065 954 1064
f 1065 172 174
f 1065 174 1066
f 952 953 1065
f 952 1065 1066
f 1066 174 176
f 1066 176 1067
f 892 952 1066
f 892 1066 1067
f 1067 176 178
f 1067 178 1068
f 889 892 1067
f 889 1067 1068
f 1037 32 183
f 1037 183 1055
f 1069 667 524
f 1069 524 1055
f 1055 183 188
f 1055 188 1069
f 1070 958 667
f 1070 667 1069
f 1057 925 927
f 1057 927 1056
f 1068 178 216
f 1068 216 1071
f 890 889 1068
f 890 1068 1071
f 1071 216 217
f 1071 217 1072
f 891 890 1071
f 891 1071 1072
f 1073 231 288
f 1073 288 1074
f 1073 983 970
f 1073 970 1075
f 1075 230 231
f 1075 231 1073
f 1075 970 982
f 1075 982 1076
f 1072 217 237
f 1072 237 1077
f 975 891 1072
f 975 1072 1077
f 1074 984 983
f 1074 983 1073
f 1078 483 480
f 1078 480 1056
f 1078 1056 927
f 1078 927 945
f 1079 299 483
f 1079 483 1078
f 1079 1078 945
f 1079 945 967
f 1074 288 289
f 1074 289 1080
f 1080 289 291
f 1080 291 1081
f 985 984 1074
f 985 1074 1080
f 1081 1013 985
f 1081 985 1080
f 1081 291 299
f 1081 299 1079
f 1081 1079 967
f 1081 967 1013
f 1069 188 379
f 1069 379 1070
f 1082 960 958
f 1082 958 1070
f 1070 379 389
f 1070 389 1082
f 1083 1029 960
f 1083 960 1082
f 1082 389 393
f 1082 393 1083
f 1084 1030 1029
f 1084 1029 1083
f 1083 393 395
f 1083 395 1084
f 1085 1031 1030
f 1085 1030 1084
f 1084 395 397
f 1084 397 1085
f 1086 1032 1031
f 1086 1031 1085
f 1085 397 413
f 1085 413 1086
f 1087 1033 1032
f 1087 1032 1086
f 1086 413 419
f 1086 419 1087
f 1088 584 1033
f 1088 1033 1087
f 1089 404 405
f 1089 405 1090
f 1090 405 409
f 1090 409 1091
f 1091 600 597
f 1091 597 1090
f 1089 593 589
f 1089 589 1092
f 1090 597 593
f 1090 593 1089
f 1092 406 404
f 1092 404 1089
f 1092 589 585
f 1092 585 1093
f 1093 407 406
f 1093 406 1092
f 1093 585 582
f 1093 582 1094
f 1094 408 407
f 1094 407 1093
f 1094 582 581
f 1094 581 1095
f 1088 417 415
f 1088 415 1095
f 1087 419 417
f 1087 417 1088
f 1095 581 584
f 1095 584 1088
f 1095 415 408
f 1095 408 1094
f 1096 426 384
f 1096 384 1040
f 1096 1040 533
f 1096 533 559
f 1042 6 425
f 1042 425 1043
f 1043 425 427
f 1043 427 1097
f 1097 561 565
f 1097 565 1043
f 1097 427 426
f 1097 426 1096
f 1097 1096 559
f 1097 559 561
f 1076 509 230
f 1076 230 1075
f 1076 982 986
f 1076 986 1098
f 1098 512 509
f 1098 509 1076
f 1098 986 987
f 1098 987 1099
f 1077 237 515
f 1077 515 1100
f 976 975 1077
f 976 1077 1100
f 1099 516 512
f 1099 512 1098
f 1101 517 516
f 1101 516 1099
f 1099 987 988
f 1099 988 1101
f 1100 515 517
f 1100 517 1101
f 988 976 1100
f 988 1100 1101
f 956 600 1091
f 956 1091 957
f 957 1091 409
f 957 409 1102
f 1103 411 410
f 1103 410 1054
f 1103 1054 1053
f 1103 1053 922
f 1052 603 602
f 1052 602 923
f 922 1053 1052
f 922 1052 923
f 409 403 411
f 409 411 1102
f 1102 411 1103
f 1102 1103 1104
f 1104 921 957
f 1104 957 1102
f 1103 922 921
f 1103 921 1104
f 956 602 598
f 956 598 600
f 920 923 602
f 920 602 956
