# T7 rest
v -0.004054 -0.009334 -0.038989
v -0.003497 -0.014645 -0.041683
v -0.006461 -0.015870 -0.039728
v -0.007156 -0.012629 -0.038976
v -0.001675 -0.027949 -0.047127
v -0.001019 -0.025320 -0.048328
v -0.000477 -0.025729 -0.049696
v -0.000812 -0.027235 -0.049993
v -0.000802 -0.029111 -0.051802
v -0.001607 -0.030779 -0.049039
v -0.000744 -0.031511 -0.053404
v -0.001461 -0.033563 -0.051269
v -0.000597 -0.034418 -0.055424
v -0.001375 -0.036811 -0.053192
v -0.000779 -0.037666 -0.058334
v -0.001718 -0.039848 -0.056045
v -0.001364 -0.043344 -0.058055
v -0.000564 -0.040321 -0.059470
v -0.011257 0.008276 -0.028947
v -0.010796 0.006532 -0.029711
v -0.012164 0.006355 -0.029712
v -0.013264 0.007555 -0.029223
v -0.012556 -0.007017 -0.037185
v -0.013848 -0.010500 -0.036467
v -0.017059 -0.008470 -0.036421
v -0.015956 -0.005899 -0.037809
v -0.012571 -0.004721 -0.035465
v -0.015844 -0.003765 -0.036895
v -0.007654 -0.006865 -0.036982
v -0.009889 -0.010634 -0.038398
v -0.008407 -0.005111 -0.034303
v -0.001553 -0.005755 -0.037463
v -0.003398 -0.005295 -0.035310
v -0.009008 -0.003994 -0.032888
v -0.009207 -0.002713 -0.032150
v -0.006090 -0.001288 -0.031734
v -0.005514 -0.003335 -0.032628
v -0.004651 -0.004397 -0.033654
v -0.016497 -0.002274 -0.034212
v -0.013333 -0.003363 -0.032889
v -0.012534 -0.002151 -0.031798
v -0.019106 -0.002715 -0.037569
v -0.019325 -0.005109 -0.038344
v -0.019286 -0.000887 -0.035693
v -0.024906 -0.004464 -0.038948
v -0.024890 -0.001764 -0.038551
v -0.019754 -0.007325 -0.037168
v -0.024123 -0.006805 -0.038309
v -0.022970 -0.008184 -0.035787
v -0.020171 -0.008454 -0.035252
v -0.024486 0.000507 -0.037435
v -0.018430 -0.009911 -0.034697
v -0.016998 -0.011918 -0.034515
v -0.019373 -0.000325 -0.033871
v -0.023085 0.001573 -0.035528
v -0.017238 -0.001569 -0.032522
v -0.015479 -0.002412 -0.031517
v -0.014779 -0.001749 -0.030479
v -0.017601 -0.011992 -0.032909
v -0.018997 -0.009892 -0.032972
v -0.020498 -0.008590 -0.033129
v -0.022137 -0.008226 -0.033074
v -0.018812 -0.008699 -0.030814
v -0.019310 -0.006476 -0.028988
v -0.020373 -0.005992 -0.029983
v -0.020257 -0.007751 -0.031207
v -0.021383 -0.005644 -0.030482
v -0.021663 -0.007413 -0.031297
v -0.016985 -0.011592 -0.031036
v -0.017986 -0.008673 -0.028680
v -0.018329 -0.006704 -0.027390
v -0.016666 -0.006939 -0.025724
v -0.016582 -0.008808 -0.026810
v -0.016861 -0.010252 -0.029403
v -0.014646 -0.011804 -0.029928
v -0.015698 -0.010374 -0.028187
v -0.012042 -0.011582 -0.028756
v -0.014237 -0.010834 -0.026942
v -0.014870 -0.009169 -0.025387
v -0.015038 -0.007131 -0.024269
v -0.014059 0.000046 -0.031351
v -0.015176 0.000206 -0.029814
v -0.014606 0.002545 -0.030622
v -0.015109 0.002492 -0.029286
v -0.014831 0.004876 -0.028646
v -0.014414 0.005422 -0.029852
v -0.013706 0.006867 -0.027983
v -0.011563 0.008129 -0.027684
v -0.008581 0.007777 -0.027567
v -0.008605 0.007715 -0.028946
v -0.006782 0.006058 -0.027916
v -0.006970 0.006264 -0.029202
v -0.005778 0.003666 -0.028491
v -0.005927 0.003998 -0.029795
v -0.005255 0.000532 -0.028804
v -0.005553 0.001358 -0.030637
v -0.004440 -0.001783 -0.030303
v -0.012171 -0.002547 -0.022610
v -0.012981 -0.002602 -0.024270
v -0.014260 -0.004750 -0.024148
v -0.013428 -0.004564 -0.022779
v -0.013717 -0.007190 -0.022165
v -0.013372 -0.009885 -0.024013
v -0.014301 -0.010462 -0.015379
v -0.013757 -0.010211 -0.018651
v -0.013421 -0.013001 -0.021218
v -0.013945 -0.013440 -0.016128
v -0.013513 -0.009092 -0.020879
v -0.012851 -0.011312 -0.023179
v -0.012482 -0.011998 -0.025830
v -0.014862 -0.016527 -0.019649
v -0.013920 -0.016007 -0.023419
v -0.012111 -0.014270 -0.025285
v -0.014971 -0.015893 -0.012530
v -0.015356 -0.017888 -0.016673
v -0.015370 -0.019493 -0.010834
v -0.015456 -0.020383 -0.014731
v -0.015765 -0.008962 -0.012101
v -0.015201 -0.010895 -0.010611
v -0.015888 -0.004264 -0.011935
v -0.015985 -0.005355 -0.008866
v -0.013757 -0.004654 -0.007791
v -0.013648 -0.003889 -0.010581
v -0.016751 -0.005769 -0.012076
v -0.016561 -0.007224 -0.009876
v -0.016346 -0.007190 -0.013133
v -0.015370 -0.007910 -0.015125
v -0.013515 -0.005935 -0.020552
v -0.014023 -0.007402 -0.018917
v -0.013283 -0.004007 -0.021606
v -0.012400 -0.002011 -0.021423
v -0.012323 -0.001635 -0.014381
v -0.010309 -0.002539 -0.013457
v -0.009223 -0.001459 -0.015337
v -0.011289 -0.000571 -0.016114
v -0.014022 -0.002812 -0.013103
v -0.012217 -0.003240 -0.011953
v -0.014955 -0.013876 -0.006489
v -0.014724 -0.019137 -0.004232
v -0.015765 -0.008993 -0.006731
v -0.015190 -0.006506 -0.004837
v -0.013227 -0.005406 -0.004247
v -0.013685 -0.012160 -0.000189
v -0.013319 -0.018913 0.002244
v -0.012930 -0.007706 0.002045
v -0.008166 -0.003596 -0.012786
v -0.006874 -0.002683 -0.014662
v -0.004009 -0.004654 -0.011833
v -0.003461 -0.003607 -0.014070
v -0.011021 -0.005389 -0.004362
v -0.011762 -0.004733 -0.007120
v -0.011251 -0.004335 -0.008935
v -0.008888 -0.005360 -0.005985
v -0.011520 -0.006085 0.001913
v -0.009577 -0.006048 0.000879
v -0.007213 -0.006259 -0.000790
v -0.009988 -0.004022 -0.010935
v -0.004923 -0.005319 -0.008565
v -0.003568 -0.006224 -0.003076
v -0.010351 -0.012783 0.006409
v -0.010372 -0.018263 0.006908
v -0.009826 -0.008778 0.007477
v -0.008901 -0.007071 0.007312
v -0.007220 -0.006877 0.005971
v -0.005180 -0.006861 0.003923
v -0.003157 -0.007096 0.008044
v -0.004177 -0.007223 0.009731
v -0.005545 -0.007627 0.011222
v -0.002539 -0.006613 0.002009
v -0.001307 -0.006936 0.008073
v -0.001643 -0.007225 0.010660
v -0.002240 -0.007938 0.012313
v -0.006179 -0.009492 0.011297
v -0.002559 -0.009999 0.012590
v -0.006695 -0.013277 0.009947
v -0.002836 -0.013721 0.011857
v -0.006892 -0.018370 0.009807
v -0.002907 -0.018696 0.011814
v -0.014672 -0.007810 -0.017060
v -0.003664 -0.003337 -0.031465
v -0.002740 -0.004278 -0.032773
v -0.001773 -0.005000 -0.033703
v -0.000580 -0.005139 -0.034750
v -0.004605 -0.003273 -0.029208
v -0.003592 -0.004906 -0.030387
v -0.002795 -0.006073 -0.031545
v -0.002015 -0.007042 -0.031741
v -0.000573 -0.007465 -0.031631
v -0.014232 0.004265 -0.027867
v -0.014494 0.002981 -0.028001
v -0.013464 0.005491 -0.027345
v -0.011958 0.006385 -0.026903
v -0.009380 0.006089 -0.026601
v -0.007492 0.004729 -0.026847
v -0.006429 0.003097 -0.027400
v -0.006413 0.000765 -0.027039
v -0.006845 -0.000571 -0.025887
v -0.005618 -0.001869 -0.027818
v -0.008110 0.002942 -0.025986
v 0.008394 -0.000566 -0.025956
v 0.008722 -0.000787 -0.024080
v 0.010965 0.000471 -0.023793
v 0.010228 0.001684 -0.024998
v -0.009397 0.000465 -0.023701
v -0.007156 -0.000792 -0.024009
v -0.008672 0.001679 -0.024913
v -0.010020 0.003946 -0.025805
v -0.014655 0.001546 -0.027956
v -0.013553 0.004034 -0.027258
v -0.014208 -0.023542 -0.010664
v -0.013600 -0.023011 -0.014273
v -0.014381 -0.023896 -0.004012
v -0.013490 -0.024038 0.003453
v -0.010447 -0.023846 0.008414
v -0.006602 -0.023990 0.011347
v -0.002588 -0.024216 0.013244
v -0.001524 -0.025264 0.011159
v -0.004813 -0.025005 0.009585
v -0.008468 -0.024573 0.006518
v -0.011047 -0.024254 0.001792
v -0.011861 -0.024177 -0.004602
v -0.011673 -0.023903 -0.009251
v -0.011300 -0.023223 -0.012068
v -0.010463 -0.022399 -0.015438
v -0.009113 -0.021878 -0.013509
v -0.006599 -0.020498 -0.015257
v -0.008497 -0.021220 -0.017557
v -0.007174 -0.020659 -0.019573
v -0.004630 -0.019453 -0.017526
v -0.003452 -0.020318 -0.013298
v -0.001831 -0.019275 -0.016585
v -0.007210 -0.021456 -0.010393
v -0.007828 -0.022093 -0.006409
v -0.007329 -0.022244 -0.001645
v -0.006051 -0.022964 0.002926
v -0.003400 -0.023687 0.005932
v -0.000877 -0.024028 0.007354
v -0.008843 -0.021146 -0.023498
v -0.006346 -0.019544 -0.021791
v -0.009196 -0.021987 -0.021635
v -0.010299 -0.022670 -0.019625
v -0.011654 -0.023222 -0.017663
v -0.013821 -0.023023 -0.017057
v -0.015721 -0.021499 -0.017569
v -0.015963 -0.019981 -0.019259
v -0.015921 -0.018855 -0.021603
v -0.015158 -0.018207 -0.024638
v -0.013204 -0.018075 -0.026189
v -0.013465 -0.019561 -0.025695
v -0.011411 -0.018996 -0.026317
v -0.012293 -0.020068 -0.025730
v -0.014445 -0.019787 -0.024591
v -0.015129 -0.020333 -0.022612
v -0.015474 -0.020936 -0.020669
v -0.015036 -0.021811 -0.019696
v -0.013698 -0.022664 -0.019192
v -0.012502 -0.022946 -0.019488
v -0.011717 -0.022547 -0.021356
v -0.013934 -0.021253 -0.022502
v -0.012741 -0.022044 -0.022016
v -0.013138 -0.020583 -0.024452
v -0.010944 -0.021820 -0.023317
v -0.010506 -0.021350 -0.024147
v -0.011067 -0.020790 -0.025015
v -0.011972 -0.021318 -0.023997
v -0.009659 -0.020097 -0.025213
v -0.010610 -0.012618 -0.026798
v -0.007472 -0.017665 -0.023974
v -0.009930 -0.015516 -0.025852
v -0.003791 -0.018104 -0.020226
v -0.010387 -0.011990 -0.030137
v -0.013249 -0.013112 -0.030871
v -0.004303 -0.007228 -0.029492
v -0.003063 -0.008684 -0.031188
v -0.005470 -0.005564 -0.028049
v -0.006268 -0.010740 -0.029430
v -0.004276 -0.012463 -0.030790
v -0.008444 -0.010809 -0.027946
v -0.008098 -0.011772 -0.026035
v -0.007002 -0.013247 -0.024240
v -0.005009 -0.015560 -0.021951
v -0.006058 -0.008207 -0.027330
v -0.006338 -0.003960 -0.026732
v -0.006740 -0.002752 -0.025504
v -0.006861 -0.009171 -0.026148
v -0.006717 -0.010025 -0.024302
v -0.005798 -0.012016 -0.022364
v -0.001369 -0.017594 -0.019489
v -0.002865 -0.013772 -0.020769
v -0.004971 -0.009863 -0.021298
v -0.002213 -0.010225 -0.020822
v -0.006305 -0.008416 -0.023026
v -0.006663 -0.005684 -0.025547
v -0.006676 -0.002977 -0.024191
v -0.006664 -0.006891 -0.024572
v -0.006426 -0.005241 -0.023600
v -0.005893 -0.005879 -0.022314
v -0.004325 -0.006222 -0.020916
v -0.001855 -0.006194 -0.020341
v -0.012184 0.004447 -0.026407
v -0.010525 0.002271 -0.025196
v -0.011271 0.000770 -0.024746
v -0.012622 -0.000851 -0.024970
v -0.011523 -0.001087 -0.023978
v -0.014207 0.000117 -0.026955
v -0.015033 -0.000936 -0.027761
v -0.013868 -0.002376 -0.025187
v -0.014461 -0.001884 -0.026051
v -0.013461 -0.000547 -0.025868
v -0.015857 -0.004655 -0.025730
v -0.015608 -0.001871 -0.028510
v -0.015802 -0.003019 -0.026689
v -0.017764 -0.004600 -0.027503
v -0.016736 -0.002351 -0.029811
v -0.017182 -0.003088 -0.028411
v -0.018086 -0.001973 -0.030828
v -0.019059 -0.004382 -0.028884
v -0.018522 -0.002850 -0.029692
v -0.019525 -0.001023 -0.032048
v -0.020187 -0.003993 -0.029857
v -0.019840 -0.002307 -0.030676
v -0.021734 0.000586 -0.033315
v -0.021066 -0.003484 -0.030528
v -0.021051 -0.001300 -0.031642
v -0.021671 -0.003292 -0.031137
v -0.021878 -0.001248 -0.031962
v -0.023369 0.000934 -0.033243
v -0.026376 0.001704 -0.035179
v -0.028521 0.000590 -0.036665
v -0.029666 -0.001800 -0.037556
v -0.029670 -0.004717 -0.037675
v -0.028301 -0.007359 -0.036662
v -0.026280 -0.008677 -0.034473
v -0.024602 -0.008392 -0.032351
v -0.023356 -0.007046 -0.030945
v -0.022349 -0.005437 -0.030851
v -0.022234 -0.001484 -0.032272
v -0.024000 0.000487 -0.033112
v -0.021959 -0.003300 -0.031731
v -0.022722 -0.005105 -0.031382
v -0.023893 -0.006374 -0.031312
v -0.025331 -0.007404 -0.032056
v -0.026838 -0.007714 -0.033644
v -0.028154 -0.006519 -0.035438
v -0.028951 -0.004105 -0.036214
v -0.029018 -0.001664 -0.036195
v -0.028154 0.000219 -0.035642
v -0.026425 0.001048 -0.034473
v -0.022245 -0.003401 -0.032594
v -0.022604 -0.001868 -0.033017
v -0.023806 -0.000544 -0.033441
v -0.025062 -0.000347 -0.034309
v -0.026276 -0.000678 -0.035123
v -0.026134 -0.003833 -0.035547
v -0.026211 -0.002091 -0.035491
v -0.023788 -0.002098 -0.034383
v -0.022824 -0.004793 -0.032284
v -0.023718 -0.005789 -0.032159
v -0.025584 -0.006517 -0.033889
v -0.024626 -0.006294 -0.033021
v -0.023406 -0.003579 -0.034239
v -0.025926 -0.005515 -0.034996
v -0.023701 -0.004921 -0.033839
v -0.009270 0.006557 -0.029641
v -0.008401 0.005597 -0.029788
v -0.010505 0.005250 -0.029888
v -0.012491 0.004959 -0.030034
v -0.012652 0.002653 -0.030630
v -0.007529 0.003812 -0.030277
v -0.010222 0.003173 -0.030075
v -0.009415 -0.000723 -0.031816
v -0.011340 -0.000896 -0.031956
v -0.007663 -0.000084 -0.031576
v -0.007180 0.001676 -0.031018
v -0.012200 0.000558 -0.031566
v -0.009790 0.001063 -0.030877
v -0.002160 -0.010504 -0.032122
v -0.003153 -0.014837 -0.032389
v -0.000721 -0.010301 -0.031801
v -0.005765 -0.019597 -0.040521
v -0.006859 -0.019310 -0.039135
v -0.006826 -0.022304 -0.037654
v -0.006304 -0.022364 -0.038693
v -0.002668 -0.017996 -0.043548
v -0.005112 -0.021155 -0.041542
v -0.005777 -0.023656 -0.039261
v -0.002467 -0.014280 -0.032591
v -0.003860 -0.017634 -0.033531
v -0.000787 -0.012942 -0.032232
v -0.003959 -0.019412 -0.036933
v -0.004806 -0.021537 -0.034272
v -0.007298 -0.025408 -0.034812
v -0.001785 -0.014786 -0.037215
v -0.004162 -0.020898 -0.038857
v -0.001479 -0.018494 -0.039165
v -0.003650 -0.023132 -0.039636
v -0.001689 -0.022367 -0.040557
v -0.002326 -0.031808 -0.044541
v -0.001767 -0.033908 -0.046195
v -0.001437 -0.036380 -0.048493
v -0.001378 -0.039641 -0.051222
v -0.001771 -0.042203 -0.053640
v -0.001762 -0.045255 -0.055184
v -0.000509 -0.040657 -0.050657
v -0.000815 -0.043042 -0.052696
v -0.000535 -0.037325 -0.047728
v -0.000629 -0.034594 -0.045737
v -0.001089 -0.032266 -0.044011
v -0.000722 -0.045853 -0.054127
v -0.000672 -0.046814 -0.058075
v -0.001287 -0.047773 -0.055974
v -0.003094 -0.026591 -0.040238
v -0.001445 -0.025772 -0.041057
v -0.002887 -0.030095 -0.042722
v -0.001197 -0.030752 -0.042912
v -0.004544 -0.026743 -0.040262
v -0.000682 -0.029814 -0.042470
v -0.001975 -0.029687 -0.041834
v -0.001075 -0.028336 -0.041677
v -0.002563 -0.028654 -0.041064
v -0.003971 -0.028417 -0.041527
v -0.002591 -0.027073 -0.045081
v -0.004099 -0.023465 -0.042570
v -0.003356 -0.025655 -0.043689
v -0.001595 -0.024298 -0.047269
v -0.002297 -0.020350 -0.044964
v -0.001989 -0.022578 -0.046235
v -0.009739 -0.014327 -0.030655
v -0.011848 -0.014721 -0.030926
v -0.007255 -0.014553 -0.030575
v -0.005183 -0.015291 -0.030380
v -0.004293 -0.016935 -0.030880
v -0.003965 -0.019161 -0.031595
v -0.004422 -0.022610 -0.032123
v -0.007032 -0.026518 -0.032728
v -0.011500 -0.025330 -0.034756
v -0.011596 -0.026417 -0.032797
v -0.007609 -0.016283 -0.030773
v -0.009210 -0.016336 -0.030860
v -0.010651 -0.016406 -0.031023
v -0.013173 -0.017177 -0.031378
v -0.011267 -0.017920 -0.031682
v -0.006586 -0.016966 -0.030905
v -0.008837 -0.017629 -0.031368
v -0.005839 -0.018076 -0.031113
v -0.011645 -0.021886 -0.032990
v -0.013767 -0.022645 -0.032470
v -0.010512 -0.025237 -0.033011
v -0.011700 -0.019575 -0.032468
v -0.008501 -0.019090 -0.032147
v -0.007434 -0.024608 -0.032835
v -0.005673 -0.022216 -0.032053
v -0.008018 -0.021232 -0.032857
v -0.005499 -0.019627 -0.031522
v -0.008543 -0.021742 -0.037572
v -0.016788 -0.014224 -0.033253
v -0.016271 -0.014156 -0.034747
v -0.015446 -0.015372 -0.032168
v -0.014364 -0.021729 -0.033724
v -0.008901 -0.014337 -0.038909
v -0.008791 -0.016476 -0.038859
v -0.010950 -0.013759 -0.038160
v -0.013850 -0.013676 -0.036672
v -0.015903 -0.016229 -0.034572
v -0.015429 -0.018332 -0.034425
v -0.014914 -0.018749 -0.033133
v -0.008780 -0.019213 -0.038350
v -0.011370 -0.016377 -0.037748
v -0.011528 -0.019454 -0.036987
v -0.014174 -0.019059 -0.035479
v -0.014054 -0.016223 -0.036362
v -0.013605 0.002377 -0.027014
v -0.012328 0.002695 -0.026073
v -0.013406 0.000974 -0.026470
v -0.006886 -0.000500 -0.018345
v -0.002988 -0.001872 -0.016224
v -0.005561 -0.000240 -0.019486
v -0.006945 -0.000972 -0.022252
v -0.008376 -0.000388 -0.021905
v -0.002304 -0.000576 -0.017866
v -0.006084 -0.002753 -0.022456
v -0.004601 -0.002502 -0.020566
v -0.001849 -0.002448 -0.019287
v -0.009948 -0.001108 -0.021599
v -0.009052 -0.000573 -0.018375
v -0.011391 -0.000911 -0.020294
v -0.010947 -0.000194 -0.018175
v -0.013781 -0.006222 -0.018099
v -0.013390 -0.005086 -0.019445
v -0.013158 -0.003838 -0.020388
v -0.012636 -0.002635 -0.020257
v -0.012878 -0.004048 -0.018784
v -0.011733 -0.001082 -0.018054
v -0.012040 -0.001661 -0.019353
v -0.012818 -0.002490 -0.015273
v -0.012003 -0.001570 -0.016732
v -0.012231 -0.002694 -0.017796
v -0.014301 -0.003529 -0.014048
v -0.015848 -0.004545 -0.013227
v -0.016238 -0.005435 -0.013369
v -0.012788 -0.003757 -0.016196
v -0.014170 -0.004672 -0.014668
v -0.015175 -0.006832 -0.015086
v -0.015785 -0.006225 -0.013961
v -0.013233 -0.005118 -0.017237
v -0.014340 -0.006704 -0.016422
v -0.014195 -0.005772 -0.015414
v -0.003697 -0.020946 -0.008766
v -0.001604 -0.020785 -0.009897
v -0.004011 -0.021093 -0.006391
v -0.004126 -0.021481 -0.003053
v -0.001251 -0.020938 -0.006700
v -0.003478 -0.022244 0.000561
v -0.002420 -0.022984 0.003274
v -0.000721 -0.023200 0.003953
v -0.001053 -0.021383 -0.003169
v -0.000920 -0.022282 0.000405
v -0.013605 -0.019448 -0.032078
v -0.012555 0.000798 -0.025686
v 0.004866 -0.005292 -0.035347
v 0.009108 -0.006862 -0.037058
v 0.005485 -0.009330 -0.039032
v 0.003001 -0.005753 -0.037483
v 0.002053 -0.005138 -0.034762
v 0.003254 -0.004999 -0.033726
v 0.008596 -0.012623 -0.039046
v 0.007898 -0.015864 -0.039790
v 0.004917 -0.014643 -0.041721
v 0.011331 -0.010628 -0.038494
v 0.008303 -0.019307 -0.039197
v 0.007195 -0.019593 -0.040577
v 0.006532 -0.021151 -0.041595
v 0.004069 -0.017995 -0.043580
v 0.006133 -0.004394 -0.033703
v 0.009883 -0.005106 -0.034386
v 0.014007 -0.007012 -0.037305
v 0.015305 -0.010491 -0.036608
v 0.014036 -0.004717 -0.035590
v 0.004230 -0.004276 -0.032804
v 0.010344 -0.014330 -0.038995
v 0.010236 -0.016469 -0.038943
v 0.012397 -0.013751 -0.038265
v 0.010231 -0.019210 -0.038433
v 0.015307 -0.013666 -0.036806
v 0.012823 -0.016369 -0.037857
v 0.015516 -0.016212 -0.036495
v 0.012987 -0.019449 -0.037100
v 0.010001 -0.021750 -0.037646
v 0.008284 -0.022311 -0.037706
v 0.007754 -0.022361 -0.038742
v 0.012987 -0.025341 -0.034863
v 0.018466 -0.011907 -0.034683
v 0.017741 -0.014144 -0.034905
v 0.017379 -0.016217 -0.034724
v 0.017403 -0.005899 -0.037959
v 0.018512 -0.008461 -0.036596
v 0.019891 -0.009899 -0.034879
v 0.005511 -0.023459 -0.042616
v 0.003701 -0.020348 -0.044992
v 0.004760 -0.025642 -0.043732
v 0.003376 -0.022573 -0.046261
v 0.003984 -0.027064 -0.045115
v 0.003050 -0.027946 -0.047151
v 0.002383 -0.025308 -0.048359
v 0.002966 -0.024292 -0.047293
v 0.002161 -0.027226 -0.050017
v 0.001828 -0.025716 -0.049725
v 0.002966 -0.030781 -0.049057
v 0.002141 -0.029110 -0.051817
v 0.004304 -0.030089 -0.042755
v 0.003726 -0.031808 -0.044566
v 0.003152 -0.033908 -0.046214
v 0.005397 -0.028409 -0.041572
v 0.007223 -0.023651 -0.039312
v 0.005981 -0.026737 -0.040309
v 0.005608 -0.020894 -0.038888
v 0.005091 -0.023129 -0.039671
v 0.005421 -0.019410 -0.036969
v 0.004531 -0.026588 -0.040271
v 0.003994 -0.028651 -0.041093
v 0.002612 -0.030751 -0.042928
v 0.002493 -0.032266 -0.044025
v 0.003400 -0.029684 -0.041857
v 0.002097 -0.029814 -0.042480
v 0.002027 -0.034594 -0.045748
v 0.002804 -0.036367 -0.048515
v 0.002802 -0.033555 -0.051292
v 0.002068 -0.031509 -0.053419
v 0.001918 -0.037317 -0.047741
v 0.002701 -0.036785 -0.053222
v 0.001903 -0.034409 -0.055443
v 0.002724 -0.039611 -0.051246
v 0.001852 -0.040638 -0.050672
v 0.003022 -0.039834 -0.056075
v 0.002049 -0.037664 -0.058357
v 0.003097 -0.042179 -0.053666
v 0.002150 -0.043025 -0.052711
v 0.003076 -0.045243 -0.055203
v 0.002651 -0.043348 -0.058072
v 0.002044 -0.045839 -0.054137
v 0.001826 -0.040328 -0.059486
v 0.002596 -0.047764 -0.055987
v 0.001957 -0.046815 -0.058082
v 0.009162 -0.000074 -0.031652
v 0.010912 -0.000712 -0.031907
v 0.010703 -0.002696 -0.032239
v 0.007587 -0.001284 -0.031796
v 0.010497 -0.003988 -0.032975
v 0.007004 -0.003331 -0.032684
v 0.007059 0.001362 -0.030694
v 0.008682 0.001680 -0.031089
v 0.005951 -0.001779 -0.030350
v 0.006777 0.000535 -0.028858
v 0.005165 -0.003335 -0.031505
v 0.012836 -0.000892 -0.032065
v 0.014032 -0.002149 -0.031918
v 0.014820 -0.003360 -0.033017
v 0.020768 -0.005110 -0.038525
v 0.021201 -0.007317 -0.037361
v 0.021620 -0.008441 -0.035445
v 0.013698 0.000557 -0.031688
v 0.015560 0.000040 -0.031487
v 0.016689 0.000208 -0.029954
v 0.016288 -0.001750 -0.030618
v 0.016978 -0.002411 -0.031663
v 0.014157 0.002652 -0.030753
v 0.016110 0.002533 -0.030762
v 0.016625 0.002491 -0.029425
v 0.007438 0.004002 -0.029854
v 0.009036 0.003815 -0.030349
v 0.007301 0.003670 -0.028551
v 0.008486 0.006266 -0.029271
v 0.009912 0.005600 -0.029867
v 0.008309 0.006062 -0.027985
v 0.010126 0.007712 -0.029029
v 0.010783 0.006559 -0.029728
v 0.010113 0.007777 -0.027653
v 0.012776 0.008274 -0.029047
v 0.012311 0.006538 -0.029808
v 0.013090 0.008132 -0.027798
v 0.014778 0.007563 -0.029349
v 0.013676 0.006366 -0.029826
v 0.015232 0.006873 -0.028114
v 0.015922 0.005422 -0.029990
v 0.014000 0.004965 -0.030152
v 0.016355 0.004885 -0.028792
v 0.012016 0.005256 -0.029985
v 0.011731 0.003176 -0.030175
v 0.011293 0.001065 -0.030974
v 0.017293 -0.003770 -0.037051
v 0.016565 -0.000927 -0.027903
v 0.017133 -0.001863 -0.028657
v 0.016022 0.002988 -0.028132
v 0.016182 0.001553 -0.028084
v 0.015745 0.000126 -0.027085
v 0.018244 -0.002341 -0.029968
v 0.015764 0.004276 -0.028008
v 0.014998 0.005500 -0.027476
v 0.013493 0.006390 -0.027023
v 0.010919 0.006094 -0.026694
v 0.009030 0.004733 -0.026923
v 0.007962 0.003102 -0.027466
v 0.007951 0.000768 -0.027103
v 0.006126 -0.003270 -0.029256
v 0.007151 -0.001865 -0.027875
v 0.005103 -0.004903 -0.030426
v 0.002078 -0.007464 -0.031643
v 0.003515 -0.007040 -0.031766
v 0.004297 -0.006071 -0.031577
v 0.017969 -0.002283 -0.034369
v 0.018722 -0.001565 -0.032683
v 0.020840 -0.000317 -0.034054
v 0.020744 -0.000893 -0.035883
v 0.020551 -0.002722 -0.037756
v 0.019574 -0.001959 -0.030997
v 0.020990 -0.001003 -0.032230
v 0.024535 0.001590 -0.035747
v 0.025937 0.000516 -0.037668
v 0.023179 0.000611 -0.033520
v 0.026340 -0.001759 -0.038785
v 0.026353 -0.004458 -0.039177
v 0.025566 -0.006795 -0.038531
v 0.024413 -0.008167 -0.036000
v 0.020464 -0.009871 -0.033163
v 0.019083 -0.011977 -0.033085
v 0.018272 -0.014210 -0.033415
v 0.021950 -0.008564 -0.033330
v 0.023584 -0.008195 -0.033286
v 0.016945 -0.015362 -0.032315
v 0.027742 -0.008656 -0.034716
v 0.026057 -0.008358 -0.032582
v 0.024812 -0.007004 -0.031162
v 0.023115 -0.007373 -0.031500
v 0.021720 -0.007717 -0.031400
v 0.029771 -0.007346 -0.036923
v 0.028314 -0.007692 -0.033891
v 0.026799 -0.007375 -0.032291
v 0.025355 -0.006340 -0.031532
v 0.029633 -0.006502 -0.035698
v 0.031141 -0.004706 -0.037952
v 0.030430 -0.004086 -0.036484
v 0.031133 -0.001786 -0.037837
v 0.030495 -0.001644 -0.036471
v 0.029981 0.000608 -0.036937
v 0.029623 0.000242 -0.035912
v 0.027827 0.001727 -0.035431
v 0.027880 0.001075 -0.034725
v 0.024809 0.000956 -0.033462
v 0.025440 0.000511 -0.033337
v 0.022493 -0.001269 -0.031837
v 0.023309 -0.001224 -0.032164
v 0.023666 -0.001463 -0.032478
v 0.021302 -0.002280 -0.030860
v 0.020295 -0.008673 -0.030994
v 0.018487 -0.011577 -0.031202
v 0.020014 -0.002833 -0.029864
v 0.018701 -0.003077 -0.028571
v 0.017343 -0.003009 -0.026838
v 0.016009 -0.001874 -0.026187
v 0.023794 -0.005396 -0.031056
v 0.022835 -0.005601 -0.030679
v 0.024171 -0.005071 -0.031590
v 0.021840 -0.005955 -0.030172
v 0.023109 -0.003260 -0.031337
v 0.022515 -0.003446 -0.030722
v 0.023397 -0.003273 -0.031934
v 0.021654 -0.003960 -0.030043
v 0.020555 -0.004360 -0.029060
v 0.020804 -0.006449 -0.029167
v 0.019292 -0.004586 -0.027667
v 0.019857 -0.006687 -0.027559
v 0.017408 -0.004644 -0.025880
v 0.018219 -0.006927 -0.025882
v 0.015827 -0.004741 -0.024285
v 0.016605 -0.007122 -0.024414
v 0.015424 -0.002367 -0.025319
v 0.014546 -0.002594 -0.024394
v 0.018126 -0.008796 -0.026969
v 0.019503 -0.008655 -0.028845
v 0.016429 -0.009159 -0.025531
v 0.017231 -0.010362 -0.028340
v 0.018379 -0.010237 -0.029563
v 0.015783 -0.010825 -0.027081
v 0.016165 -0.011794 -0.030077
v 0.014761 -0.013104 -0.031000
v 0.013360 -0.014716 -0.031047
v 0.014683 -0.017174 -0.031502
v 0.015111 -0.019442 -0.032200
v 0.016407 -0.018739 -0.033274
v 0.016910 -0.018321 -0.034571
v 0.013572 -0.011573 -0.028882
v 0.011905 -0.011981 -0.030240
v 0.011254 -0.014313 -0.030771
v 0.009981 -0.010800 -0.028036
v 0.007792 -0.010735 -0.029494
v 0.008771 -0.014546 -0.030662
v 0.014039 -0.011990 -0.025954
v 0.012158 -0.012610 -0.026913
v 0.009652 -0.011764 -0.026124
v 0.014943 -0.009877 -0.024144
v 0.015304 -0.007182 -0.022299
v 0.015007 -0.004556 -0.022909
v 0.013751 -0.002539 -0.022726
v 0.008413 -0.009165 -0.026221
v 0.007599 -0.008203 -0.027392
v 0.008286 -0.010019 -0.024374
v 0.005789 -0.012460 -0.030837
v 0.006701 -0.015289 -0.030436
v 0.008100 -0.016963 -0.030988
v 0.009125 -0.016280 -0.030862
v 0.010724 -0.016330 -0.030958
v 0.005824 -0.007225 -0.029537
v 0.004570 -0.008681 -0.031222
v 0.007003 -0.005561 -0.028105
v 0.004652 -0.014837 -0.032438
v 0.005806 -0.016933 -0.030952
v 0.007349 -0.018073 -0.031185
v 0.003659 -0.010502 -0.032148
v 0.013674 -0.014264 -0.025410
v 0.011489 -0.015512 -0.025971
v 0.008573 -0.013242 -0.024321
v 0.014431 -0.011304 -0.023305
v 0.015112 -0.009083 -0.021010
v 0.014872 -0.003999 -0.021734
v 0.015116 -0.005927 -0.020683
v 0.015638 -0.007393 -0.019051
v 0.013990 -0.002003 -0.021542
v 0.014179 -0.000843 -0.025091
v 0.013089 -0.001080 -0.024088
v 0.015009 -0.000539 -0.025993
v 0.011536 -0.001102 -0.021695
v 0.012991 -0.000904 -0.020403
v 0.015139 0.002383 -0.027134
v 0.014947 0.000981 -0.026591
v 0.015087 0.004040 -0.027382
v 0.014104 0.000805 -0.025803
v 0.013725 0.004452 -0.026522
v 0.011567 0.003952 -0.025904
v 0.009657 0.002946 -0.026066
v 0.007882 -0.003955 -0.026796
v 0.008294 -0.002748 -0.025571
v 0.012830 0.000776 -0.024855
v 0.009961 -0.000382 -0.021988
v 0.010669 -0.000567 -0.018464
v 0.012565 -0.000186 -0.018281
v 0.008503 -0.000496 -0.018414
v 0.014237 -0.002627 -0.020378
v 0.014758 -0.003829 -0.020514
v 0.014999 -0.005077 -0.019573
v 0.013648 -0.001653 -0.019469
v 0.015403 -0.006213 -0.018230
v 0.016304 -0.007800 -0.017199
v 0.015377 -0.010202 -0.018780
v 0.015977 -0.006695 -0.016558
v 0.015020 -0.012992 -0.021339
v 0.017020 -0.007899 -0.015270
v 0.015950 -0.010452 -0.015514
v 0.016824 -0.006821 -0.015229
v 0.015589 -0.013428 -0.016250
v 0.018013 -0.007175 -0.013287
v 0.017442 -0.008950 -0.012251
v 0.016893 -0.010885 -0.010755
v 0.017444 -0.006212 -0.014110
v 0.018427 -0.005751 -0.012233
v 0.018258 -0.007205 -0.010032
v 0.017491 -0.008977 -0.006879
v 0.017903 -0.005422 -0.013522
v 0.015500 -0.016007 -0.023561
v 0.016477 -0.016518 -0.019777
v 0.016687 -0.013871 -0.006631
v 0.016649 -0.015890 -0.012667
v 0.016998 -0.017884 -0.016802
v 0.015472 -0.012149 -0.000319
v 0.017519 -0.018856 -0.021758
v 0.016729 -0.018210 -0.024798
v 0.017583 -0.019985 -0.019404
v 0.014760 -0.018077 -0.026336
v 0.017066 -0.019512 -0.010986
v 0.017117 -0.020401 -0.014877
v 0.016483 -0.019148 -0.004373
v 0.017357 -0.021505 -0.017710
v 0.015135 -0.018912 0.002118
v 0.012968 -0.018996 -0.026454
v 0.013353 -0.001074 -0.018167
v 0.017082 -0.020940 -0.020816
v 0.016719 -0.020336 -0.022766
v 0.016017 -0.019790 -0.024747
v 0.016654 -0.021811 -0.019838
v 0.015027 -0.019563 -0.025846
v 0.013855 -0.020068 -0.025874
v 0.011226 -0.020099 -0.025340
v 0.009048 -0.017667 -0.024080
v 0.006603 -0.015558 -0.022016
v 0.012636 -0.020791 -0.025153
v 0.016143 -0.023913 -0.004150
v 0.015907 -0.023562 -0.010801
v 0.015267 -0.023024 -0.014400
v 0.015318 -0.024037 0.003325
v 0.013615 -0.024206 -0.004716
v 0.013385 -0.023925 -0.009367
v 0.012859 -0.024269 0.001687
v 0.012987 -0.023236 -0.012178
v 0.015463 -0.023026 -0.017178
v 0.012119 -0.022403 -0.015537
v 0.013290 -0.023223 -0.017771
v 0.010786 -0.021882 -0.013594
v 0.015321 -0.022659 -0.019317
v 0.014122 -0.022942 -0.019606
v 0.010134 -0.021232 -0.017669
v 0.011917 -0.022682 -0.019752
v 0.013320 -0.022548 -0.021492
v 0.008256 -0.020496 -0.015325
v 0.008791 -0.020675 -0.019684
v 0.010796 -0.022003 -0.021768
v 0.012529 -0.021824 -0.023462
v 0.006266 -0.019452 -0.017580
v 0.007944 -0.019553 -0.021894
v 0.010426 -0.021155 -0.023630
v 0.012083 -0.021354 -0.024291
v 0.005401 -0.018105 -0.020280
v 0.012226 -0.018257 0.006807
v 0.012318 -0.023841 0.008313
v 0.012197 -0.012777 0.006308
v 0.010323 -0.024576 0.006435
v 0.008772 -0.018367 0.009738
v 0.008499 -0.023988 0.011282
v 0.006696 -0.025004 0.009534
v 0.008573 -0.013273 0.009879
v 0.004809 -0.018695 0.011780
v 0.004504 -0.024216 0.013214
v 0.003422 -0.025263 0.011137
v 0.004742 -0.013719 0.011823
v 0.017689 -0.005340 -0.009016
v 0.016932 -0.006495 -0.004980
v 0.014735 -0.007697 0.001921
v 0.017565 -0.004252 -0.012085
v 0.017513 -0.004534 -0.013376
v 0.015336 -0.003884 -0.010711
v 0.015471 -0.004649 -0.007922
v 0.015687 -0.002803 -0.013237
v 0.013893 -0.003235 -0.012071
v 0.015958 -0.003518 -0.014183
v 0.014973 -0.005405 -0.004373
v 0.013322 -0.006077 0.001802
v 0.012955 -0.004333 -0.009044
v 0.013482 -0.004733 -0.007233
v 0.011673 -0.004017 -0.011032
v 0.012766 -0.005392 -0.004468
v 0.011370 -0.006041 0.000786
v 0.013976 -0.001628 -0.014499
v 0.011971 -0.002535 -0.013558
v 0.014463 -0.002479 -0.015395
v 0.009835 -0.003591 -0.012867
v 0.012926 -0.000564 -0.016223
v 0.010868 -0.001454 -0.015427
v 0.008525 -0.002678 -0.014731
v 0.013635 -0.001561 -0.016847
v 0.008527 -0.000968 -0.022322
v 0.007169 -0.000237 -0.019543
v 0.001570 -0.049784 -0.055723
v 0.000692 -0.050016 -0.055629
v 0.000614 -0.050669 -0.056791
v 0.002089 -0.049817 -0.056709
v 0.012079 0.002276 -0.025300
v 0.004625 -0.001870 -0.016259
v 0.005118 -0.003605 -0.014109
v 0.003917 -0.000574 -0.017893
v 0.005687 -0.004651 -0.011876
v 0.006631 -0.005315 -0.008617
v 0.010619 -0.005361 -0.006072
v 0.008991 -0.006253 -0.000862
v 0.015822 -0.004661 -0.014803
v 0.015842 -0.005761 -0.015549
v 0.014493 -0.004039 -0.018907
v 0.014862 -0.005109 -0.017363
v 0.013854 -0.002685 -0.017913
v 0.014426 -0.003747 -0.016318
v 0.011680 -0.008772 0.007380
v 0.010752 -0.007064 0.007223
v 0.009059 -0.006868 0.005896
v 0.007001 -0.006856 0.003868
v 0.008067 -0.009488 0.011233
v 0.007432 -0.007621 0.011164
v 0.006199 -0.002498 -0.020614
v 0.003459 -0.002446 -0.019311
v 0.007665 -0.002749 -0.022518
v 0.005326 -0.006222 -0.003116
v 0.004344 -0.006610 0.001978
v 0.003151 -0.006926 0.008052
v 0.005017 -0.007085 0.008006
v 0.006050 -0.007212 0.009685
v 0.004469 -0.009995 0.012559
v 0.004136 -0.007932 0.012285
v 0.003510 -0.007215 0.010637
v 0.008242 -0.002972 -0.024258
v 0.001787 -0.048060 -0.054984
v 0.000682 -0.048209 -0.054814
v 0.002224 -0.010301 -0.031814
v 0.008218 -0.005679 -0.025614
v 0.002281 -0.012941 -0.032245
v 0.003966 -0.014279 -0.032621
v 0.005350 -0.017632 -0.033584
v 0.007998 -0.005237 -0.023665
v 0.007478 -0.005874 -0.022374
v 0.008229 -0.006886 -0.024640
v 0.005922 -0.006219 -0.020962
v 0.003458 -0.006193 -0.020365
v 0.013872 0.002700 -0.026190
v 0.008911 -0.021459 -0.010463
v 0.005124 -0.020315 -0.013334
v 0.009565 -0.022114 -0.006487
v 0.009111 -0.022268 -0.001716
v 0.007873 -0.022975 0.002865
v 0.005249 -0.023690 0.005893
v 0.002738 -0.024027 0.007338
v 0.002551 -0.023199 0.003938
v 0.004243 -0.022986 0.003244
v 0.005276 -0.022249 0.000522
v 0.005892 -0.021488 -0.003097
v 0.005747 -0.021093 -0.006435
v 0.005411 -0.020944 -0.008807
v 0.003316 -0.020783 -0.009919
v 0.003475 -0.019273 -0.016608
v 0.002989 -0.017593 -0.019512
v 0.004468 -0.013770 -0.020804
v 0.002986 -0.020937 -0.006719
v 0.002821 -0.021384 -0.003186
v 0.002737 -0.022283 0.000389
v 0.014712 -0.020582 -0.024601
v 0.013550 -0.021317 -0.024138
v 0.014338 -0.022039 -0.022153
v 0.015526 -0.021250 -0.022650
v 0.007386 -0.012011 -0.022427
v 0.005471 -0.019160 -0.031649
v 0.007007 -0.019624 -0.031576
v 0.006292 -0.021538 -0.034322
v 0.005928 -0.022606 -0.032168
v 0.007178 -0.022215 -0.032104
v 0.008780 -0.025425 -0.034873
v 0.008535 -0.026515 -0.032791
v 0.008933 -0.024613 -0.032893
v 0.013099 -0.026414 -0.032909
v 0.012016 -0.025226 -0.033105
v 0.015855 -0.021724 -0.033864
v 0.015272 -0.022639 -0.032594
v 0.013137 -0.021865 -0.033067
v 0.015645 -0.019049 -0.035615
v 0.013201 -0.019566 -0.032537
v 0.012776 -0.017917 -0.031777
v 0.012164 -0.016404 -0.031131
v 0.007885 -0.008410 -0.023091
v 0.006567 -0.009859 -0.021350
v 0.003814 -0.010223 -0.020849
v 0.023679 -0.003371 -0.032799
v 0.024032 -0.001841 -0.033227
v 0.024271 -0.004761 -0.032495
v 0.025238 -0.000515 -0.033665
v 0.026508 -0.000314 -0.034548
v 0.027740 -0.000645 -0.035375
v 0.027672 -0.002056 -0.035740
v 0.027593 -0.003797 -0.035791
v 0.027391 -0.005482 -0.035237
v 0.027056 -0.006488 -0.034126
v 0.026091 -0.006264 -0.033250
v 0.025178 -0.005758 -0.032378
v 0.025224 -0.002062 -0.034607
v 0.024842 -0.003541 -0.034458
v 0.025149 -0.004884 -0.034060
v 0.003242 -0.014784 -0.037236
v 0.002921 -0.018492 -0.039181
v 0.003113 -0.022365 -0.040576
v 0.002875 -0.025771 -0.041075
v 0.002496 -0.028335 -0.041692
v 0.010006 -0.019085 -0.032196
v 0.009514 -0.021224 -0.032900
v 0.010348 -0.017626 -0.031450
v 0.000754 -0.005488 -0.038469
v 0.000713 -0.009292 -0.040938
v 0.000686 -0.013044 -0.043244
v 0.000660 -0.015769 -0.045204
v 0.000634 -0.025313 -0.050707
v 0.000640 -0.023952 -0.050200
v 0.000641 -0.022576 -0.049532
v 0.000638 -0.026632 -0.051618
v 0.000650 -0.028363 -0.053214
v 0.000632 -0.030724 -0.054556
v 0.000614 -0.033596 -0.056356
v 0.000626 -0.036818 -0.059145
v 0.000643 -0.040134 -0.060115
v 0.000663 -0.044074 -0.059420
v 0.000658 -0.046541 -0.059115
v 0.001700 -0.048828 -0.058186
v 0.000677 -0.049204 -0.058644
v -0.000411 -0.048828 -0.058182
v 0.000700 -0.005105 -0.035285
v 0.000809 -0.000607 -0.017670
v 0.000853 -0.002181 -0.015929
v 0.000793 -0.004037 -0.013893
v 0.000878 -0.005234 -0.011519
v 0.000893 -0.005902 -0.008149
v 0.000841 -0.006418 -0.003468
v 0.000933 -0.006572 0.001291
v 0.000933 -0.006770 0.007930
v 0.000952 -0.007100 0.010687
v 0.000983 -0.007983 0.012332
v 0.000924 -0.010160 0.012816
v 0.000925 -0.013882 0.012438
v 0.000920 -0.018777 0.012540
v 0.000727 -0.007344 -0.031578
v 0.000786 -0.010194 -0.031767
v 0.000925 -0.024163 0.014035
v 0.000914 -0.025303 0.011519
v 0.000860 -0.019313 -0.016237
v 0.000784 -0.017528 -0.019264
v 0.000863 -0.020261 -0.013062
v 0.000848 -0.020756 -0.010249
v 0.000967 -0.024016 0.007327
v 0.000839 -0.002529 -0.018915
v 0.000766 -0.006251 -0.020085
v 0.000766 -0.013450 -0.020481
v 0.000837 -0.010239 -0.020884
v 0.000758 -0.013217 -0.031966
v 0.000761 -0.014215 -0.037509
v 0.000753 -0.017227 -0.039104
v 0.000714 -0.022113 -0.040749
v 0.000744 -0.025407 -0.041363
v 0.000727 -0.028044 -0.041936
v 0.000727 -0.029555 -0.042545
v 0.000677 -0.040949 -0.050582
v 0.000700 -0.043373 -0.052579
v 0.000691 -0.046067 -0.054037
v 0.000688 -0.037515 -0.047588
v 0.000694 -0.034591 -0.045854
v 0.000736 -0.032070 -0.044213
v 0.000739 -0.030841 -0.043355
v 0.000697 -0.018210 -0.046766
v 0.000679 -0.020511 -0.048175
v 0.000844 -0.020922 -0.007158
v 0.000871 -0.021323 -0.003538
v 0.000888 -0.023260 0.004019
v 0.000951 -0.022321 0.000351
v -0.000473 -0.048071 -0.054977
v -0.000786 -0.049821 -0.056701
v -0.000258 -0.049790 -0.055718
f 1 2 3
f 1 3 4
f 5 6 7
f 5 7 8
f 5 8 9
f 5 9 10
f 10 9 11
f 10 11 12
f 13 14 12
f 13 12 11
f 15 16 14
f 15 14 13
f 17 16 15
f 17 15 18
f 19 20 21
f 19 21 22
f 23 24 25
f 23 25 26
f 27 23 26
f 27 26 28
f 29 30 24
f 29 24 23
f 29 1 4
f 29 4 30
f 31 29 23
f 31 23 27
f 32 1 29
f 32 29 33
f 34 35 36
f 34 36 37
f 38 33 29
f 38 29 31
f 38 31 34
f 38 34 37
f 39 40 27
f 39 27 28
f 40 41 35
f 40 35 34
f 40 34 31
f 40 31 27
f 42 28 26
f 42 26 43
f 44 39 28
f 44 28 42
f 45 46 42
f 45 42 43
f 47 43 26
f 47 26 25
f 48 45 43
f 48 43 47
f 49 48 47
f 49 47 50
f 44 42 46
f 44 46 51
f 50 47 25
f 50 25 52
f 52 25 24
f 52 24 53
f 54 44 51
f 54 51 55
f 56 39 44
f 56 44 54
f 40 39 56
f 40 56 57
f 58 41 40
f 58 40 57
f 59 60 52
f 59 52 53
f 61 50 52
f 61 52 60
f 62 49 50
f 62 50 61
f 63 64 65
f 63 65 66
f 66 65 67
f 66 67 68
f 66 68 62
f 66 62 61
f 66 61 60
f 66 60 63
f 69 63 60
f 69 60 59
f 70 71 64
f 70 64 63
f 72 71 70
f 72 70 73
f 70 63 69
f 70 69 74
f 74 69 75
f 74 75 76
f 76 73 70
f 76 70 74
f 76 75 77
f 76 77 78
f 73 76 78
f 73 78 79
f 72 73 79
f 72 79 80
f 81 41 58
f 81 58 82
f 83 81 82
f 83 82 84
f 85 86 83
f 85 83 84
f 87 22 86
f 87 86 85
f 88 19 22
f 88 22 87
f 89 90 19
f 89 19 88
f 91 92 90
f 91 90 89
f 93 94 92
f 93 92 91
f 95 96 94
f 95 94 93
f 97 36 96
f 97 96 95
f 98 99 100
f 98 100 101
f 101 100 80
f 101 80 102
f 102 80 79
f 102 79 103
f 104 105 106
f 104 106 107
f 108 102 103
f 108 103 109
f 106 105 108
f 106 108 109
f 103 79 78
f 103 78 110
f 111 107 106
f 111 106 112
f 113 109 103
f 113 103 110
f 112 106 109
f 112 109 113
f 114 107 111
f 114 111 115
f 116 114 115
f 116 115 117
f 118 104 107
f 118 107 119
f 120 121 122
f 120 122 123
f 124 125 121
f 124 121 120
f 126 118 125
f 126 125 124
f 127 104 118
f 127 118 126
f 128 102 108
f 128 108 129
f 130 101 102
f 130 102 128
f 131 98 101
f 131 101 130
f 132 133 134
f 132 134 135
f 136 137 133
f 136 133 132
f 136 120 123
f 136 123 137
f 119 107 114
f 119 114 138
f 138 114 116
f 138 116 139
f 125 118 119
f 125 119 140
f 141 121 125
f 141 125 140
f 142 122 121
f 142 121 141
f 140 119 138
f 140 138 143
f 143 138 139
f 143 139 144
f 145 141 140
f 145 140 143
f 146 147 134
f 146 134 133
f 148 149 147
f 148 147 146
f 150 151 122
f 150 122 142
f 152 123 122
f 152 122 151
f 152 151 150
f 152 150 153
f 142 141 145
f 142 145 154
f 150 142 154
f 150 154 155
f 156 153 150
f 156 150 155
f 157 146 133
f 157 133 137
f 158 148 146
f 158 146 157
f 157 137 123
f 157 123 152
f 157 152 153
f 157 153 158
f 153 156 159
f 153 159 158
f 160 143 144
f 160 144 161
f 162 145 143
f 162 143 160
f 154 145 162
f 154 162 163
f 155 154 163
f 155 163 164
f 165 156 155
f 165 155 164
f 166 165 164
f 166 164 167
f 167 164 163
f 167 163 168
f 169 159 156
f 169 156 165
f 169 165 166
f 169 166 170
f 170 166 167
f 170 167 171
f 172 171 167
f 172 167 168
f 168 163 162
f 168 162 173
f 174 172 168
f 174 168 173
f 173 162 160
f 173 160 175
f 174 173 175
f 174 175 176
f 175 160 161
f 175 161 177
f 176 175 177
f 176 177 178
f 179 129 108
f 179 108 105
f 179 105 104
f 179 104 127
f 37 36 97
f 37 97 180
f 181 38 37
f 181 37 180
f 182 33 38
f 182 38 181
f 183 32 33
f 183 33 182
f 180 97 184
f 180 184 185
f 181 180 185
f 181 185 186
f 182 181 186
f 182 186 187
f 183 182 187
f 183 187 188
f 189 85 84
f 189 84 190
f 87 85 189
f 87 189 191
f 192 88 87
f 192 87 191
f 89 88 192
f 89 192 193
f 91 89 193
f 91 193 194
f 93 91 194
f 93 194 195
f 95 93 195
f 95 195 196
f 197 198 95
f 197 95 196
f 184 97 95
f 184 95 198
f 196 195 194
f 196 194 199
f 200 201 202
f 200 202 203
f 204 205 197
f 204 197 206
f 206 197 196
f 206 196 199
f 199 194 193
f 199 193 207
f 190 84 82
f 190 82 208
f 191 189 190
f 191 190 209
f 210 116 117
f 210 117 211
f 212 139 116
f 212 116 210
f 144 139 212
f 144 212 213
f 161 144 213
f 161 213 214
f 177 161 214
f 177 214 215
f 178 177 215
f 178 215 216
f 217 216 215
f 217 215 218
f 218 215 214
f 218 214 219
f 219 214 213
f 219 213 220
f 220 213 212
f 220 212 221
f 221 212 210
f 221 210 222
f 210 211 223
f 210 223 222
f 223 211 224
f 223 224 225
f 226 225 224
f 226 224 227
f 226 227 228
f 226 228 229
f 230 226 229
f 230 229 231
f 232 225 226
f 232 226 230
f 222 223 225
f 222 225 232
f 233 221 222
f 233 222 232
f 234 220 221
f 234 221 233
f 235 219 220
f 235 220 234
f 236 218 219
f 236 219 235
f 237 217 218
f 237 218 236
f 238 239 228
f 238 228 240
f 240 228 227
f 240 227 241
f 241 227 224
f 241 224 242
f 242 224 211
f 242 211 243
f 243 211 117
f 243 117 244
f 244 117 115
f 244 115 245
f 245 115 111
f 245 111 246
f 247 246 111
f 247 111 112
f 247 112 113
f 247 113 248
f 249 248 250
f 249 250 251
f 252 247 248
f 252 248 249
f 253 254 245
f 253 245 246
f 253 246 247
f 253 247 252
f 255 244 245
f 255 245 254
f 256 257 242
f 256 242 243
f 256 243 244
f 256 244 255
f 258 241 242
f 258 242 257
f 255 254 253
f 255 253 259
f 260 258 257
f 260 257 256
f 260 256 255
f 260 255 259
f 261 252 249
f 261 249 251
f 262 263 238
f 262 238 240
f 262 240 241
f 262 241 258
f 259 253 252
f 259 252 261
f 264 263 262
f 264 262 265
f 265 260 259
f 265 259 261
f 264 266 238
f 264 238 263
f 251 250 266
f 251 266 264
f 265 261 251
f 265 251 264
f 265 262 258
f 265 258 260
f 110 78 77
f 110 77 267
f 239 238 266
f 239 266 268
f 250 248 113
f 250 113 269
f 269 113 110
f 269 110 267
f 268 266 250
f 268 250 269
f 270 229 228
f 270 228 239
f 271 77 75
f 271 75 272
f 186 185 273
f 186 273 274
f 273 185 184
f 273 184 275
f 276 277 274
f 276 274 273
f 278 77 271
f 278 271 276
f 279 267 77
f 279 77 278
f 280 269 267
f 280 267 279
f 281 268 269
f 281 269 280
f 270 239 268
f 270 268 281
f 282 276 273
f 282 273 275
f 283 198 197
f 283 197 284
f 275 184 198
f 275 198 283
f 278 276 282
f 278 282 285
f 286 279 278
f 286 278 285
f 280 279 286
f 280 286 287
f 231 229 270
f 231 270 288
f 281 280 287
f 281 287 289
f 288 270 281
f 288 281 289
f 289 287 290
f 289 290 291
f 290 287 286
f 290 286 292
f 293 283 284
f 293 284 294
f 293 282 275
f 293 275 283
f 284 197 205
f 284 205 294
f 285 282 293
f 285 293 295
f 295 293 294
f 295 294 296
f 295 292 286
f 295 286 285
f 297 292 295
f 297 295 296
f 298 290 292
f 298 292 297
f 299 291 290
f 299 290 298
f 207 193 192
f 207 192 300
f 301 206 199
f 301 199 207
f 302 204 206
f 302 206 301
f 303 304 204
f 303 204 302
f 305 208 82
f 305 82 306
f 307 99 304
f 307 304 303
f 308 307 303
f 308 303 309
f 308 309 305
f 308 305 306
f 310 72 80
f 310 80 100
f 306 82 58
f 306 58 311
f 310 100 99
f 310 99 307
f 308 306 311
f 308 311 312
f 310 307 308
f 310 308 312
f 71 72 310
f 71 310 313
f 311 58 57
f 311 57 314
f 312 311 314
f 312 314 315
f 313 310 312
f 313 312 315
f 314 57 56
f 314 56 316
f 64 71 313
f 64 313 317
f 318 317 313
f 318 313 315
f 318 315 314
f 318 314 316
f 316 56 54
f 316 54 319
f 65 64 317
f 65 317 320
f 321 320 317
f 321 317 318
f 321 318 316
f 321 316 319
f 319 54 55
f 319 55 322
f 323 67 65
f 323 65 320
f 324 323 320
f 324 320 321
f 324 321 319
f 324 319 322
f 325 323 324
f 325 324 326
f 326 324 322
f 326 322 327
f 327 322 55
f 327 55 328
f 328 55 51
f 328 51 329
f 329 51 46
f 329 46 330
f 330 46 45
f 330 45 331
f 331 45 48
f 331 48 332
f 332 48 49
f 332 49 333
f 333 49 62
f 333 62 334
f 335 334 62
f 335 62 68
f 336 67 323
f 336 323 325
f 336 335 68
f 336 68 67
f 337 326 327
f 337 327 338
f 339 325 326
f 339 326 337
f 336 325 339
f 336 339 340
f 341 335 336
f 341 336 340
f 342 334 335
f 342 335 341
f 343 333 334
f 343 334 342
f 344 332 333
f 344 333 343
f 345 331 332
f 345 332 344
f 346 330 331
f 346 331 345
f 347 329 330
f 347 330 346
f 348 338 327
f 348 327 328
f 348 328 329
f 348 329 347
f 349 339 337
f 349 337 350
f 350 337 338
f 350 338 351
f 351 338 348
f 351 348 352
f 352 348 347
f 352 347 353
f 346 345 354
f 346 354 355
f 353 347 346
f 353 346 355
f 356 352 353
f 356 353 355
f 356 350 351
f 356 351 352
f 340 339 349
f 340 349 357
f 358 341 340
f 358 340 357
f 359 343 342
f 359 342 360
f 361 349 350
f 361 350 356
f 356 355 354
f 356 354 361
f 342 341 358
f 342 358 360
f 362 359 360
f 362 360 363
f 344 343 359
f 344 359 362
f 354 345 344
f 354 344 362
f 363 361 354
f 363 354 362
f 357 349 361
f 357 361 363
f 360 358 357
f 360 357 363
f 364 90 92
f 364 92 365
f 20 19 90
f 20 90 364
f 366 20 364
f 366 364 365
f 367 21 20
f 367 20 366
f 86 22 21
f 86 21 367
f 368 83 86
f 368 86 367
f 365 92 94
f 365 94 369
f 368 367 366
f 368 366 370
f 370 366 365
f 370 365 369
f 371 35 41
f 371 41 372
f 373 36 35
f 373 35 371
f 96 36 373
f 96 373 374
f 369 94 96
f 369 96 374
f 372 41 81
f 372 81 375
f 375 81 83
f 375 83 368
f 376 371 372
f 376 372 375
f 375 368 370
f 375 370 376
f 376 370 369
f 376 369 374
f 374 373 371
f 374 371 376
f 187 186 274
f 187 274 377
f 377 274 277
f 377 277 378
f 188 187 377
f 188 377 379
f 3 2 380
f 3 380 381
f 382 381 380
f 382 380 383
f 380 2 384
f 380 384 385
f 383 380 385
f 383 385 386
f 387 377 378
f 387 378 388
f 389 379 377
f 389 377 387
f 390 391 392
f 390 392 382
f 387 388 391
f 387 391 390
f 390 393 389
f 390 389 387
f 394 390 382
f 394 382 383
f 393 390 394
f 393 394 395
f 396 394 383
f 396 383 386
f 397 395 394
f 397 394 396
f 398 5 10
f 398 10 399
f 399 10 12
f 399 12 400
f 400 12 14
f 400 14 401
f 402 16 17
f 402 17 403
f 401 14 16
f 401 16 402
f 404 401 402
f 404 402 405
f 400 401 404
f 400 404 406
f 399 400 406
f 399 406 407
f 398 399 407
f 398 407 408
f 409 405 402
f 409 402 403
f 403 17 410
f 403 410 411
f 412 413 397
f 412 397 396
f 414 398 408
f 414 408 415
f 412 396 386
f 412 386 416
f 415 417 418
f 415 418 414
f 419 413 412
f 419 412 420
f 420 418 417
f 420 417 419
f 420 412 416
f 420 416 421
f 414 418 420
f 414 420 421
f 422 5 398
f 422 398 414
f 416 386 385
f 416 385 423
f 421 416 423
f 421 423 424
f 422 414 421
f 422 421 424
f 6 5 422
f 6 422 425
f 423 385 384
f 423 384 426
f 424 423 426
f 424 426 427
f 425 422 424
f 425 424 427
f 428 271 272
f 428 272 429
f 430 276 271
f 430 271 428
f 277 276 430
f 277 430 431
f 378 277 431
f 378 431 432
f 388 378 432
f 388 432 433
f 391 388 433
f 391 433 434
f 392 391 434
f 392 434 435
f 436 392 435
f 436 435 437
f 438 430 428
f 438 428 439
f 428 429 440
f 428 440 439
f 440 429 441
f 440 441 442
f 443 438 439
f 443 439 444
f 431 430 438
f 431 438 443
f 445 432 431
f 445 431 443
f 444 439 440
f 444 440 442
f 446 447 437
f 446 437 448
f 444 442 449
f 444 449 450
f 448 437 435
f 448 435 451
f 435 434 452
f 435 452 451
f 450 449 446
f 450 446 453
f 450 445 443
f 450 443 444
f 433 432 445
f 433 445 454
f 454 445 450
f 454 450 453
f 452 434 433
f 452 433 454
f 453 451 452
f 453 452 454
f 446 448 451
f 446 451 453
f 455 382 392
f 455 392 436
f 456 59 53
f 456 53 457
f 441 429 272
f 441 272 458
f 458 69 59
f 458 59 456
f 272 75 69
f 272 69 458
f 459 436 437
f 459 437 447
f 460 4 3
f 460 3 461
f 30 4 460
f 30 460 462
f 24 30 462
f 24 462 463
f 457 53 24
f 457 24 463
f 458 456 457
f 458 457 464
f 464 465 466
f 464 466 458
f 461 3 381
f 461 381 467
f 467 381 382
f 467 382 455
f 462 460 461
f 462 461 468
f 469 436 459
f 469 459 470
f 467 455 436
f 467 436 469
f 469 470 471
f 469 471 468
f 468 461 467
f 468 467 469
f 470 459 466
f 470 466 465
f 470 465 464
f 470 464 471
f 463 462 468
f 463 468 471
f 464 457 463
f 464 463 471
f 192 191 209
f 192 209 300
f 300 209 472
f 300 472 473
f 473 301 207
f 473 207 300
f 208 305 474
f 208 474 472
f 209 190 208
f 209 208 472
f 475 147 149
f 475 149 476
f 477 478 479
f 477 479 475
f 477 475 476
f 477 476 480
f 478 205 204
f 478 204 479
f 297 296 294
f 297 294 481
f 482 483 299
f 482 299 298
f 481 294 205
f 481 205 478
f 481 478 477
f 481 477 482
f 481 482 298
f 481 298 297
f 482 477 480
f 482 480 483
f 479 204 304
f 479 304 484
f 485 134 147
f 485 147 475
f 484 304 99
f 484 99 98
f 484 98 131
f 484 131 486
f 484 486 487
f 484 487 485
f 484 485 475
f 484 475 479
f 487 135 134
f 487 134 485
f 128 129 488
f 128 488 489
f 490 130 128
f 490 128 489
f 131 130 490
f 131 490 491
f 492 491 490
f 492 490 489
f 493 487 486
f 493 486 494
f 486 131 491
f 486 491 494
f 495 132 135
f 495 135 496
f 497 494 491
f 497 491 492
f 496 493 494
f 496 494 497
f 135 487 493
f 135 493 496
f 136 132 495
f 136 495 498
f 499 120 136
f 499 136 498
f 500 124 120
f 500 120 499
f 501 495 496
f 501 496 497
f 498 495 501
f 498 501 502
f 500 499 498
f 500 498 502
f 503 127 126
f 503 126 504
f 505 501 497
f 505 497 492
f 126 124 500
f 126 500 504
f 492 489 488
f 492 488 505
f 506 179 127
f 506 127 503
f 504 500 502
f 504 502 507
f 488 129 179
f 488 179 506
f 506 503 504
f 506 504 507
f 507 505 488
f 507 488 506
f 502 501 505
f 502 505 507
f 508 232 230
f 508 230 509
f 233 232 508
f 233 508 510
f 234 233 510
f 234 510 511
f 512 510 508
f 512 508 509
f 235 234 511
f 235 511 513
f 514 236 235
f 514 235 513
f 237 236 514
f 237 514 515
f 511 510 512
f 511 512 516
f 517 515 514
f 517 514 513
f 517 513 511
f 517 511 516
f 466 459 447
f 466 447 518
f 441 458 466
f 441 466 518
f 518 447 446
f 518 446 449
f 449 442 441
f 449 441 518
f 519 473 472
f 519 472 474
f 309 303 302
f 309 302 519
f 519 302 301
f 519 301 473
f 519 474 305
f 519 305 309
f 520 521 522
f 520 522 523
f 524 525 520
f 524 520 523
f 526 527 528
f 526 528 522
f 522 521 529
f 522 529 526
f 528 527 530
f 528 530 531
f 531 532 533
f 531 533 528
f 521 520 534
f 521 534 535
f 536 537 529
f 536 529 521
f 535 538 536
f 535 536 521
f 520 525 539
f 520 539 534
f 540 541 527
f 540 527 526
f 526 529 542
f 526 542 540
f 527 541 543
f 527 543 530
f 537 544 542
f 537 542 529
f 540 542 545
f 540 545 541
f 542 544 546
f 542 546 545
f 545 547 543
f 545 543 541
f 530 543 548
f 530 548 549
f 549 550 531
f 549 531 530
f 547 551 548
f 547 548 543
f 544 537 552
f 544 552 553
f 544 553 554
f 544 554 546
f 536 555 556
f 536 556 537
f 537 556 557
f 537 557 552
f 532 558 559
f 532 559 533
f 559 558 560
f 559 560 561
f 562 563 564
f 562 564 565
f 561 560 562
f 561 562 565
f 563 566 567
f 563 567 564
f 566 563 568
f 566 568 569
f 563 562 570
f 563 570 571
f 563 571 572
f 563 572 568
f 560 573 570
f 560 570 562
f 558 532 574
f 558 574 575
f 558 575 573
f 558 573 560
f 532 531 550
f 532 550 574
f 576 577 574
f 576 574 550
f 550 549 578
f 550 578 576
f 577 579 575
f 577 575 574
f 575 579 580
f 575 580 573
f 581 582 571
f 581 571 570
f 570 583 584
f 570 584 581
f 573 580 583
f 573 583 570
f 582 585 572
f 582 572 571
f 568 572 586
f 568 586 587
f 587 588 569
f 587 569 568
f 585 589 586
f 585 586 572
f 588 587 590
f 588 590 591
f 587 586 592
f 587 592 590
f 589 593 592
f 589 592 586
f 591 590 594
f 591 594 595
f 590 592 596
f 590 596 594
f 593 597 596
f 593 596 592
f 598 599 594
f 598 594 596
f 597 600 598
f 597 598 596
f 599 601 595
f 599 595 594
f 602 603 599
f 602 599 598
f 604 605 606
f 604 606 607
f 607 606 608
f 607 608 609
f 607 610 611
f 607 611 604
f 612 613 610
f 612 610 607
f 609 614 612
f 609 612 607
f 605 615 616
f 605 616 606
f 606 616 617
f 606 617 608
f 556 555 618
f 556 618 619
f 556 619 620
f 556 620 557
f 615 621 622
f 615 622 616
f 616 622 623
f 616 623 624
f 616 624 625
f 616 625 617
f 622 621 626
f 622 626 627
f 622 627 628
f 622 628 623
f 610 629 630
f 610 630 611
f 613 631 629
f 613 629 610
f 629 632 633
f 629 633 630
f 631 634 632
f 631 632 629
f 632 635 636
f 632 636 633
f 634 637 635
f 634 635 632
f 635 638 639
f 635 639 636
f 637 640 638
f 637 638 635
f 638 641 642
f 638 642 639
f 640 643 641
f 640 641 638
f 644 645 642
f 644 642 641
f 643 646 644
f 643 644 641
f 633 636 639
f 633 639 647
f 647 648 630
f 647 630 633
f 639 642 645
f 639 645 647
f 648 649 611
f 648 611 630
f 649 605 604
f 649 604 611
f 649 621 615
f 649 615 605
f 538 650 555
f 538 555 536
f 645 644 627
f 645 627 626
f 645 626 648
f 645 648 647
f 646 628 627
f 646 627 644
f 626 621 649
f 626 649 648
f 651 652 624
f 651 624 623
f 623 628 653
f 623 653 654
f 654 655 651
f 654 651 623
f 652 656 625
f 652 625 624
f 628 646 657
f 628 657 653
f 646 643 658
f 646 658 657
f 643 640 659
f 643 659 658
f 660 659 640
f 660 640 637
f 637 634 661
f 637 661 660
f 634 631 662
f 634 662 661
f 631 613 663
f 631 663 662
f 613 612 664
f 613 664 665
f 665 200 663
f 665 663 613
f 612 614 666
f 612 666 664
f 525 524 667
f 525 667 668
f 668 669 539
f 668 539 525
f 670 671 672
f 670 672 673
f 617 625 671
f 617 671 670
f 670 673 674
f 670 674 650
f 650 538 617
f 650 617 670
f 675 676 672
f 675 672 671
f 671 625 656
f 671 656 675
f 677 678 673
f 677 673 672
f 676 679 677
f 676 677 672
f 678 680 674
f 678 674 673
f 618 555 650
f 618 650 674
f 681 682 619
f 681 619 618
f 618 674 680
f 618 680 681
f 682 683 620
f 682 620 619
f 552 557 684
f 552 684 685
f 685 686 553
f 685 553 552
f 557 620 687
f 557 687 684
f 620 683 688
f 620 688 687
f 553 686 689
f 553 689 554
f 538 535 608
f 538 608 617
f 535 534 609
f 535 609 608
f 534 539 614
f 534 614 609
f 614 539 669
f 614 669 666
f 688 683 690
f 688 690 691
f 688 691 692
f 688 692 693
f 693 694 687
f 693 687 688
f 682 695 690
f 682 690 683
f 691 690 696
f 691 696 697
f 697 698 692
f 697 692 691
f 690 695 699
f 690 699 696
f 681 700 695
f 681 695 682
f 695 700 701
f 695 701 699
f 700 681 680
f 700 680 702
f 700 702 703
f 700 703 701
f 678 704 702
f 678 702 680
f 702 704 705
f 702 705 703
f 677 706 704
f 677 704 678
f 704 706 707
f 704 707 705
f 679 708 706
f 679 706 677
f 706 708 709
f 706 709 707
f 708 679 710
f 708 710 711
f 708 711 712
f 708 712 709
f 679 676 713
f 679 713 710
f 694 714 684
f 694 684 687
f 714 715 685
f 714 685 684
f 715 689 686
f 715 686 685
f 676 675 716
f 676 716 713
f 675 656 717
f 675 717 716
f 656 652 718
f 656 718 717
f 652 651 719
f 652 719 718
f 720 721 693
f 720 693 692
f 698 722 720
f 698 720 692
f 693 721 723
f 693 723 694
f 724 725 721
f 724 721 720
f 722 726 724
f 722 724 720
f 721 725 727
f 721 727 723
f 711 710 725
f 711 725 724
f 726 712 711
f 726 711 724
f 710 713 727
f 710 727 725
f 727 728 729
f 727 729 723
f 713 716 728
f 713 728 727
f 728 730 731
f 728 731 729
f 716 717 730
f 716 730 728
f 730 732 733
f 730 733 731
f 717 718 732
f 717 732 730
f 734 735 733
f 734 733 732
f 736 737 734
f 736 734 732
f 718 719 736
f 718 736 732
f 738 739 731
f 738 731 733
f 735 740 738
f 735 738 733
f 739 714 729
f 739 729 731
f 714 694 723
f 714 723 729
f 741 742 739
f 741 739 738
f 740 743 741
f 740 741 738
f 742 715 714
f 742 714 739
f 744 745 689
f 744 689 715
f 715 742 741
f 715 741 744
f 689 745 746
f 689 746 747
f 747 748 749
f 747 749 689
f 689 749 750
f 689 750 554
f 743 751 744
f 743 744 741
f 751 752 745
f 751 745 744
f 745 752 753
f 745 753 746
f 752 751 754
f 752 754 755
f 752 755 756
f 752 756 753
f 751 743 757
f 751 757 758
f 758 759 754
f 758 754 751
f 743 740 760
f 743 760 757
f 740 735 761
f 740 761 760
f 735 734 762
f 735 762 761
f 737 763 762
f 737 762 734
f 764 765 755
f 764 755 754
f 754 759 766
f 754 766 764
f 756 755 767
f 756 767 768
f 756 768 769
f 756 769 770
f 770 771 753
f 770 753 756
f 772 773 767
f 772 767 755
f 765 774 772
f 765 772 755
f 768 767 775
f 768 775 776
f 768 776 777
f 768 777 769
f 767 773 778
f 767 778 775
f 758 757 779
f 758 779 780
f 758 780 781
f 758 781 759
f 757 760 782
f 757 782 779
f 760 761 783
f 760 783 782
f 761 762 784
f 761 784 785
f 761 785 786
f 761 786 783
f 762 763 787
f 762 787 784
f 788 789 737
f 788 737 736
f 719 790 788
f 719 788 736
f 651 655 790
f 651 790 719
f 789 791 763
f 789 763 737
f 763 791 792
f 763 792 787
f 793 794 655
f 793 655 654
f 654 653 795
f 654 795 793
f 655 794 796
f 655 796 790
f 653 657 658
f 653 658 795
f 658 659 797
f 658 797 795
f 659 660 798
f 659 798 797
f 660 661 799
f 660 799 798
f 661 662 663
f 661 663 799
f 200 203 799
f 200 799 663
f 665 664 774
f 665 774 800
f 665 800 801
f 665 801 200
f 664 666 772
f 664 772 774
f 802 202 789
f 802 789 788
f 790 796 802
f 790 802 788
f 202 803 791
f 202 791 789
f 804 805 792
f 804 792 791
f 803 806 804
f 803 804 791
f 784 787 807
f 784 807 808
f 808 809 785
f 808 785 784
f 787 792 810
f 787 810 807
f 809 811 786
f 809 786 785
f 812 813 783
f 812 783 786
f 811 814 812
f 811 812 786
f 783 813 815
f 783 815 782
f 816 817 813
f 816 813 812
f 814 818 816
f 814 816 812
f 813 817 819
f 813 819 815
f 817 816 820
f 817 820 821
f 817 821 822
f 817 822 819
f 818 823 820
f 818 820 816
f 821 820 824
f 821 824 825
f 825 826 822
f 825 822 821
f 823 827 824
f 823 824 820
f 782 815 828
f 782 828 779
f 815 819 829
f 815 829 828
f 819 822 830
f 819 830 831
f 831 832 829
f 831 829 819
f 826 833 830
f 826 830 822
f 834 835 828
f 834 828 829
f 829 832 836
f 829 836 834
f 835 837 779
f 835 779 828
f 838 839 832
f 838 832 831
f 831 830 840
f 831 840 838
f 839 841 836
f 839 836 832
f 833 842 840
f 833 840 830
f 779 837 843
f 779 843 780
f 792 805 844
f 792 844 810
f 834 836 845
f 834 845 846
f 846 847 835
f 846 835 834
f 836 841 848
f 836 848 845
f 837 835 847
f 837 847 849
f 849 850 843
f 849 843 837
f 780 843 851
f 780 851 852
f 780 852 853
f 780 853 781
f 850 854 851
f 850 851 843
f 838 840 855
f 838 855 856
f 838 856 857
f 838 857 839
f 842 858 855
f 842 855 840
f 859 860 856
f 859 856 855
f 855 858 861
f 855 861 859
f 860 862 857
f 860 857 856
f 839 857 863
f 839 863 841
f 864 865 863
f 864 863 857
f 862 866 864
f 862 864 857
f 841 863 867
f 841 867 848
f 863 865 868
f 863 868 867
f 865 864 869
f 865 869 870
f 865 870 871
f 865 871 868
f 866 872 869
f 866 869 864
f 870 869 873
f 870 873 874
f 870 874 875
f 870 875 871
f 872 876 873
f 872 873 869
f 874 873 877
f 874 877 878
f 874 878 879
f 874 879 875
f 876 880 877
f 876 877 873
f 877 852 851
f 877 851 878
f 878 851 854
f 878 854 879
f 852 877 880
f 852 880 853
f 881 882 858
f 881 858 842
f 833 883 881
f 833 881 842
f 858 882 884
f 858 884 861
f 882 881 885
f 882 885 886
f 882 886 887
f 882 887 884
f 883 888 885
f 883 885 881
f 886 885 889
f 886 889 890
f 886 890 891
f 886 891 887
f 885 888 892
f 885 892 889
f 826 825 893
f 826 893 894
f 826 894 895
f 826 895 833
f 825 824 896
f 825 896 893
f 827 897 896
f 827 896 824
f 898 899 893
f 898 893 896
f 900 901 898
f 900 898 896
f 897 902 900
f 897 900 896
f 899 903 894
f 899 894 893
f 894 903 904
f 894 904 895
f 905 906 899
f 905 899 898
f 898 901 907
f 898 907 905
f 906 908 903
f 906 903 899
f 903 908 909
f 903 909 904
f 910 911 901
f 910 901 900
f 902 912 910
f 902 910 900
f 901 911 913
f 901 913 907
f 911 910 914
f 911 914 915
f 911 915 916
f 911 916 913
f 912 917 914
f 912 914 910
f 805 804 915
f 805 915 914
f 917 844 805
f 917 805 914
f 915 804 806
f 915 806 916
f 803 202 201
f 803 201 918
f 918 919 806
f 918 806 803
f 920 921 922
f 920 922 923
f 202 802 924
f 202 924 203
f 925 926 916
f 925 916 806
f 806 919 927
f 806 927 925
f 926 928 913
f 926 913 916
f 928 929 907
f 928 907 913
f 929 930 905
f 929 905 907
f 930 908 906
f 930 906 905
f 930 931 909
f 930 909 908
f 897 827 932
f 897 932 902
f 827 823 933
f 827 933 932
f 823 818 814
f 823 814 933
f 811 809 934
f 811 934 935
f 935 933 814
f 935 814 811
f 809 808 807
f 809 807 934
f 807 810 936
f 807 936 934
f 810 844 917
f 810 917 936
f 917 912 937
f 917 937 936
f 912 902 932
f 912 932 937
f 833 895 938
f 833 938 883
f 895 904 939
f 895 939 938
f 904 909 940
f 904 940 939
f 909 931 941
f 909 941 940
f 942 888 883
f 942 883 938
f 938 939 943
f 938 943 942
f 944 945 927
f 944 927 919
f 919 918 946
f 919 946 944
f 929 947 931
f 929 931 930
f 948 941 931
f 948 931 947
f 949 950 941
f 949 941 948
f 950 951 940
f 950 940 941
f 939 940 951
f 939 951 943
f 888 942 952
f 888 952 892
f 942 943 953
f 942 953 952
f 943 951 954
f 943 954 953
f 951 950 949
f 951 949 954
f 955 946 918
f 955 918 201
f 200 801 955
f 200 955 201
f 956 957 921
f 956 921 920
f 666 669 773
f 666 773 772
f 669 668 778
f 669 778 773
f 668 667 958
f 668 958 778
f 801 800 959
f 801 959 955
f 800 774 765
f 800 765 959
f 778 958 960
f 778 960 961
f 961 962 775
f 961 775 778
f 963 964 946
f 963 946 955
f 955 959 965
f 955 965 963
f 964 966 944
f 964 944 946
f 966 967 945
f 966 945 944
f 796 968 924
f 796 924 802
f 794 793 968
f 794 968 796
f 795 797 968
f 795 968 793
f 797 798 924
f 797 924 968
f 798 799 203
f 798 203 924
f 860 969 866
f 860 866 862
f 866 969 970
f 866 970 872
f 860 859 971
f 860 971 969
f 859 861 972
f 859 972 971
f 861 884 973
f 861 973 972
f 884 887 974
f 884 974 973
f 887 891 975
f 887 975 974
f 976 977 974
f 976 974 975
f 977 978 973
f 977 973 974
f 978 979 972
f 978 972 973
f 979 980 971
f 979 971 972
f 980 981 969
f 980 969 971
f 981 982 970
f 981 970 969
f 970 983 876
f 970 876 872
f 983 984 880
f 983 880 876
f 880 984 985
f 880 985 853
f 982 981 980
f 982 980 986
f 980 979 987
f 980 987 986
f 979 978 988
f 979 988 987
f 978 977 976
f 978 976 988
f 854 850 989
f 854 989 990
f 990 875 879
f 990 879 854
f 850 849 847
f 850 847 989
f 990 991 871
f 990 871 875
f 991 867 868
f 991 868 871
f 991 992 848
f 991 848 867
f 992 846 845
f 992 845 848
f 992 989 847
f 992 847 846
f 989 992 991
f 989 991 990
f 759 781 993
f 759 993 766
f 962 994 776
f 962 776 775
f 776 994 995
f 776 995 777
f 994 962 996
f 994 996 997
f 994 997 998
f 994 998 995
f 961 578 996
f 961 996 962
f 999 1000 997
f 999 997 996
f 578 549 999
f 578 999 996
f 997 1000 1001
f 997 1001 998
f 1000 999 551
f 1000 551 1002
f 1000 1002 1003
f 1000 1003 1001
f 549 548 551
f 549 551 999
f 1002 551 1004
f 1002 1004 1005
f 1002 1005 1006
f 1002 1006 1003
f 547 1007 1004
f 547 1004 551
f 1005 1004 749
f 1005 749 748
f 1005 748 1008
f 1005 1008 1006
f 1007 750 749
f 1007 749 1004
f 748 747 1009
f 748 1009 1008
f 747 746 1010
f 747 1010 1009
f 746 753 771
f 746 771 1010
f 985 993 781
f 985 781 853
f 765 764 965
f 765 965 959
f 764 766 1011
f 764 1011 965
f 766 993 1012
f 766 1012 1011
f 993 985 1013
f 993 1013 1012
f 964 963 965
f 964 965 1011
f 1011 1012 966
f 1011 966 964
f 1013 967 966
f 1013 966 1012
f 1014 1015 712
f 1014 712 726
f 726 722 1016
f 726 1016 1014
f 1015 1017 709
f 1015 709 712
f 1017 1018 707
f 1017 707 709
f 1018 1019 705
f 1018 705 707
f 1019 1020 703
f 1019 703 705
f 1020 1021 701
f 1020 701 703
f 1021 1022 699
f 1021 699 701
f 1022 1023 696
f 1022 696 699
f 1023 1024 697
f 1023 697 696
f 1024 1025 698
f 1024 698 697
f 1025 1016 722
f 1025 722 698
f 1026 1015 1014
f 1026 1014 1027
f 1027 1014 1016
f 1027 1016 1028
f 1028 1022 1021
f 1028 1021 1027
f 1027 1021 1020
f 1027 1020 1026
f 1017 1015 1026
f 1017 1026 1018
f 1016 1025 1024
f 1016 1024 1028
f 1024 1023 1022
f 1024 1022 1028
f 1020 1019 1018
f 1020 1018 1026
f 961 960 1029
f 961 1029 578
f 1029 1030 576
f 1029 576 578
f 1030 1031 577
f 1030 577 576
f 577 1031 1032
f 577 1032 579
f 579 1032 1033
f 579 1033 580
f 1033 584 583
f 1033 583 580
f 1034 1035 1006
f 1034 1006 1008
f 1008 1009 1036
f 1008 1036 1034
f 1035 1001 1003
f 1035 1003 1006
f 1009 1010 771
f 1009 771 1036
f 771 770 769
f 771 769 1036
f 769 777 1034
f 769 1034 1036
f 777 995 1035
f 777 1035 1034
f 995 998 1001
f 995 1001 1035
f 545 546 1007
f 545 1007 547
f 546 554 750
f 546 750 1007
f 937 935 934
f 937 934 936
f 932 933 935
f 932 935 937
f 1037 523 522
f 1037 522 1038
f 1039 2 1
f 1039 1 1038
f 1039 1038 522
f 1039 522 528
f 1040 384 2
f 1040 2 1039
f 1040 1039 528
f 1040 528 533
f 1041 1042 564
f 1041 564 567
f 1042 1043 565
f 1042 565 564
f 1041 7 6
f 1041 6 1042
f 1041 567 566
f 1041 566 1044
f 1044 8 7
f 1044 7 1041
f 1044 566 569
f 1044 569 1045
f 1045 9 8
f 1045 8 1044
f 1045 569 588
f 1045 588 1046
f 1046 11 9
f 1046 9 1045
f 1046 588 591
f 1046 591 1047
f 1047 13 11
f 1047 11 1046
f 1047 591 595
f 1047 595 1048
f 1048 15 13
f 1048 13 1047
f 1048 595 601
f 1048 601 1049
f 1049 601 599
f 1049 599 1050
f 1049 18 15
f 1049 15 1048
f 1050 17 18
f 1050 18 1049
f 1050 599 603
f 1050 603 1051
f 1051 410 17
f 1051 17 1050
f 1051 603 1052
f 1051 1052 1053
f 1053 1054 410
f 1053 410 1051
f 1038 1 32
f 1038 32 1037
f 1055 524 523
f 1055 523 1037
f 1056 480 476
f 1056 476 1057
f 1058 926 925
f 1058 925 1057
f 1057 476 149
f 1057 149 1058
f 1059 928 926
f 1059 926 1058
f 1058 149 148
f 1058 148 1059
f 1060 929 928
f 1060 928 1059
f 1059 148 158
f 1059 158 1060
f 1061 947 929
f 1061 929 1060
f 1060 158 159
f 1060 159 1061
f 1062 948 947
f 1062 947 1061
f 1061 159 169
f 1061 169 1062
f 1063 949 948
f 1063 948 1062
f 1062 169 170
f 1062 170 1063
f 1063 170 171
f 1063 171 1064
f 1064 954 949
f 1064 949 1063
f 1064 171 172
f 1064 172 1065
f 1065 953 954
f 1065 954 1064
f 1065 172 174
f 1065 174 1066
f 952 953 1065
f 952 1065 1066
f 1066 174 176
f 1066 176 1067
f 892 952 1066
f 892 1066 1067
f 1067 176 178
f 1067 178 1068
f 889 892 1067
f 889 1067 1068
f 1037 32 183
f 1037 183 1055
f 1069 667 524
f 1069 524 1055
f 1055 183 188
f 1055 188 1069
f 1070 958 667
f 1070 667 1069
f 1057 925 927
f 1057 927 1056
f 1068 178 216
f 1068 216 1071
f 890 889 1068
f 890 1068 1071
f 1071 216 217
f 1071 217 1072
f 891 890 1071
f 891 1071 1072
f 1073 231 288
f 1073 288 1074
f 1073 983 970
f 1073 970 1075
f 1075 230 231
f 1075 231 1073
f 1075 970 982
f 1075 982 1076
f 1072 217 237
f 1072 237 1077
f 975 891 1072
f 975 1072 1077
f 1074 984 983
f 1074 983 1073
f 1078 483 480
f 1078 480 1056
f 1078 1056 927
f 1078 927 945
f 1079 299 483
f 1079 483 1078
f 1079 1078 945
f 1079 945 967
f 1074 288 289
f 1074 289 1080
f 1080 289 291
f 1080 291 1081
f 985 984 1074
f 985 1074 1080
f 1081 1013 985
f 1081 985 1080
f 1081 291 299
f 1081 299 1079
f 1081 1079 967
f 1081 967 1013
f 1069 188 379
f 1069 379 1070
f 1082 960 958
f 1082 958 1070
f 1070 379 389
f 1070 389 1082
f 1083 1029 960
f 1083 960 1082
f 1082 389 393
f 1082 393 1083
f 1084 1030 1029
f 1084 1029 1083
f 1083 393 395
f 1083 395 1084
f 1085 1031 1030
f 1085 1030 1084
f 1084 395 397
f 1084 397 1085
f 1086 1032 1031
f 1086 1031 1085
f 1085 397 413
f 1085 413 1086
f 1087 1033 1032
f 1087 1032 1086
f 1086 413 419
f 1086 419 1087
f 1088 584 1033
f 1088 1033 1087
f 1089 404 405
f 1089 405 1090
f 1090 405 409
f 1090 409 1091
f 1091 600 597
f 1091 597 1090
f 1089 593 589
f 1089 589 1092
f 1090 597 593
f 1090 593 1089
f 1092 406 404
f 1092 404 1089
f 1092 589 585
f 1092 585 1093
f 1093 407 406
f 1093 406 1092
f 1093 585 582
f 1093 582 1094
f 1094 408 407
f 1094 407 1093
f 1094 582 581
f 1094 581 1095
f 1088 417 415
f 1088 415 1095
f 1087 419 417
f 1087 417 1088
f 1095 581 584
f 1095 584 1088
f 1095 415 408
f 1095 408 1094
f 1096 426 384
f 1096 384 1040
f 1096 1040 533
f 1096 533 559
f 1042 6 425
f 1042 425 1043
f 1043 425 427
f 1043 427 1097
f 1097 561 565
f 1097 565 1043
f 1097 427 426
f 1097 426 1096
f 1097 1096 559
f 1097 559 561
f 1076 509 230
f 1076 230 1075
f 1076 982 986
f 1076 986 1098
f 1098 512 509
f 1098 509 1076
f 1098 986 987
f 1098 987 1099
f 1077 237 515
f 1077 515 1100
f 976 975 1077
f 976 1077 1100
f 1099 516 512
f 1099 512 1098
f 1101 517 516
f 1101 516 1099
f 1099 987 988
f 1099 988 1101
f 1100 515 517
f 1100 517 1101
f 988 976 1100
f 988 1100 1101
f 956 600 1091
f 956 1091 957
f 957 1091 409
f 957 409 1102
f 1103 411 410
f 1103 410 1054
f 1103 1054 1053
f 1103 1053 922
f 1052 603 602
f 1052 602 923
f 922 1053 1052
f 922 1052 923
f 409 403 411
f 409 411 1102
f 1102 411 1103
f 1102 1103 1104
f 1104 921 957
f 1104 957 1102
f 1103 922 921
f 1103 921 1104
f 956 602 598
f 956 598 600
f 920 923 602
f 920 602 956
