# T8 rest
v -0.004153 -0.037588 -0.037899
v -0.003172 -0.043270 -0.039510
v -0.006683 -0.044116 -0.037347
v -0.006830 -0.040414 -0.036866
v -0.001732 -0.056339 -0.046353
v -0.001034 -0.054221 -0.047617
v -0.000461 -0.054913 -0.049016
v -0.000815 -0.056420 -0.049243
v -0.000806 -0.058648 -0.051123
v -0.001660 -0.059356 -0.048448
v -0.000743 -0.060890 -0.052817
v -0.001501 -0.062121 -0.050295
v -0.000580 -0.063291 -0.053999
v -0.001407 -0.064472 -0.051549
v -0.000765 -0.066527 -0.055132
v -0.001763 -0.067480 -0.052766
v -0.001385 -0.070597 -0.053959
v -0.000536 -0.068759 -0.055493
v -0.010730 -0.016520 -0.031139
v -0.009760 -0.018924 -0.031789
v -0.011589 -0.019318 -0.032251
v -0.013119 -0.018041 -0.031852
v -0.013429 -0.035180 -0.035013
v -0.014148 -0.038621 -0.034817
v -0.018431 -0.036324 -0.034529
v -0.017487 -0.034150 -0.035231
v -0.013534 -0.032644 -0.034418
v -0.017039 -0.031781 -0.034960
v -0.007978 -0.035154 -0.035438
v -0.009967 -0.038605 -0.035605
v -0.008970 -0.032641 -0.033998
v -0.001609 -0.033321 -0.037626
v -0.003575 -0.032534 -0.035516
v -0.009567 -0.030830 -0.033170
v -0.009854 -0.029140 -0.032679
v -0.006365 -0.027821 -0.032464
v -0.005836 -0.030082 -0.033100
v -0.004914 -0.031349 -0.033983
v -0.017207 -0.029938 -0.033714
v -0.013981 -0.030625 -0.032905
v -0.013201 -0.029021 -0.031938
v -0.020287 -0.031029 -0.035462
v -0.020809 -0.033401 -0.035660
v -0.020315 -0.029085 -0.034277
v -0.027471 -0.032744 -0.036452
v -0.027145 -0.029961 -0.036402
v -0.021451 -0.035276 -0.034677
v -0.026713 -0.035022 -0.035532
v -0.025669 -0.036086 -0.032836
v -0.022301 -0.036259 -0.032664
v -0.026368 -0.027615 -0.035540
v -0.019726 -0.037490 -0.033014
v -0.016811 -0.039326 -0.033852
v -0.020389 -0.028334 -0.032808
v -0.024577 -0.026552 -0.033826
v -0.017994 -0.029101 -0.032054
v -0.016110 -0.029573 -0.031410
v -0.015291 -0.028558 -0.030581
v -0.017299 -0.039348 -0.032554
v -0.020374 -0.037386 -0.031568
v -0.022741 -0.036189 -0.030784
v -0.024724 -0.035737 -0.030244
v -0.020223 -0.036315 -0.030142
v -0.020691 -0.033751 -0.028517
v -0.022113 -0.033248 -0.028668
v -0.022259 -0.035182 -0.029481
v -0.023314 -0.032917 -0.028663
v -0.023937 -0.034697 -0.028946
v -0.016898 -0.039410 -0.031342
v -0.019033 -0.036476 -0.029036
v -0.019329 -0.033954 -0.027747
v -0.017567 -0.034231 -0.026683
v -0.017473 -0.036863 -0.027874
v -0.017414 -0.038326 -0.030157
v -0.014793 -0.040328 -0.031071
v -0.016307 -0.038785 -0.029394
v -0.012821 -0.040051 -0.029732
v -0.015047 -0.039328 -0.028149
v -0.015823 -0.037428 -0.026779
v -0.015997 -0.034331 -0.025528
v -0.014229 -0.026267 -0.032186
v -0.015460 -0.026101 -0.030487
v -0.014686 -0.023231 -0.032528
v -0.015371 -0.023333 -0.030717
v -0.015096 -0.020883 -0.030344
v -0.014453 -0.020435 -0.032162
v -0.014087 -0.018488 -0.029779
v -0.011659 -0.016768 -0.029381
v -0.008272 -0.017202 -0.028851
v -0.007655 -0.016868 -0.030679
v -0.006038 -0.018966 -0.029185
v -0.005804 -0.018515 -0.030880
v -0.005245 -0.021880 -0.029756
v -0.004966 -0.021695 -0.031259
v -0.005325 -0.025480 -0.029652
v -0.005363 -0.024982 -0.031715
v -0.004649 -0.028126 -0.030984
v -0.013284 -0.027917 -0.023555
v -0.014069 -0.028299 -0.025163
v -0.015280 -0.030973 -0.025144
v -0.014503 -0.030296 -0.023718
v -0.014668 -0.033762 -0.023376
v -0.014252 -0.037981 -0.025370
v -0.015604 -0.035650 -0.015927
v -0.014744 -0.036505 -0.019766
v -0.014309 -0.040763 -0.021920
v -0.015394 -0.039260 -0.016083
v -0.014422 -0.035967 -0.022267
v -0.013687 -0.039335 -0.024274
v -0.013308 -0.040175 -0.026421
v -0.015864 -0.043725 -0.018473
v -0.014848 -0.044247 -0.022834
v -0.012896 -0.042412 -0.025208
v -0.016204 -0.041072 -0.011214
v -0.016397 -0.044202 -0.014631
v -0.016422 -0.044350 -0.008455
v -0.016495 -0.046104 -0.011862
v -0.017062 -0.033241 -0.012311
v -0.016624 -0.035122 -0.010405
v -0.017531 -0.027828 -0.012968
v -0.017629 -0.028991 -0.010030
v -0.015515 -0.027873 -0.009228
v -0.015238 -0.027222 -0.011779
v -0.018309 -0.029644 -0.012753
v -0.018022 -0.031184 -0.010407
v -0.017776 -0.031310 -0.013520
v -0.016704 -0.032429 -0.015634
v -0.014661 -0.031347 -0.021439
v -0.015186 -0.032811 -0.019863
v -0.014472 -0.029308 -0.022492
v -0.013626 -0.027249 -0.022481
v -0.013913 -0.025414 -0.015773
v -0.011690 -0.026182 -0.014562
v -0.010515 -0.025642 -0.016608
v -0.012781 -0.025030 -0.017675
v -0.015668 -0.026242 -0.014327
v -0.013732 -0.026585 -0.013064
v -0.016251 -0.037789 -0.005434
v -0.015600 -0.042764 -0.001928
v -0.017355 -0.032310 -0.006885
v -0.017261 -0.029425 -0.005954
v -0.015466 -0.028175 -0.005710
v -0.015004 -0.035043 0.000651
v -0.013749 -0.041783 0.004299
v -0.015221 -0.030400 0.001637
v -0.009229 -0.027185 -0.013538
v -0.007828 -0.026580 -0.015532
v -0.004451 -0.028258 -0.012295
v -0.003912 -0.027465 -0.014682
v -0.013038 -0.028094 -0.005678
v -0.013473 -0.027729 -0.008456
v -0.012707 -0.027481 -0.010038
v -0.010221 -0.028164 -0.006892
v -0.014237 -0.028960 0.000921
v -0.012107 -0.028923 -0.000140
v -0.008754 -0.028826 -0.001482
v -0.011229 -0.027332 -0.011765
v -0.005318 -0.028546 -0.008967
v -0.003796 -0.028822 -0.003438
v -0.011598 -0.035078 0.007702
v -0.010945 -0.041057 0.009102
v -0.012439 -0.030269 0.006792
v -0.011964 -0.028689 0.005953
v -0.010175 -0.028952 0.004689
v -0.007017 -0.029181 0.003179
v -0.005153 -0.029077 0.007393
v -0.006552 -0.028804 0.008931
v -0.007898 -0.028588 0.010331
v -0.002910 -0.028752 0.001713
v -0.002274 -0.028808 0.008048
v -0.002797 -0.028593 0.010681
v -0.003442 -0.028640 0.012373
v -0.008166 -0.030288 0.010966
v -0.003499 -0.030586 0.013133
v -0.007522 -0.034714 0.011803
v -0.003149 -0.034861 0.013671
v -0.007210 -0.040226 0.012450
v -0.003057 -0.040192 0.014159
v -0.015937 -0.032791 -0.017836
v -0.003861 -0.029920 -0.031932
v -0.002875 -0.031098 -0.033114
v -0.001765 -0.031969 -0.034273
v -0.000556 -0.032250 -0.035504
v -0.004866 -0.029533 -0.029696
v -0.003785 -0.031417 -0.030636
v -0.002635 -0.032661 -0.030838
v -0.001633 -0.033705 -0.030674
v -0.000363 -0.034291 -0.030778
v -0.014669 -0.021435 -0.029090
v -0.014879 -0.022849 -0.029139
v -0.013893 -0.020010 -0.028596
v -0.012356 -0.018801 -0.028232
v -0.009561 -0.019106 -0.027919
v -0.007518 -0.020557 -0.028147
v -0.006482 -0.022628 -0.028580
v -0.006689 -0.025011 -0.028026
v -0.007275 -0.026207 -0.026777
v -0.005920 -0.027863 -0.028506
v -0.008416 -0.022170 -0.027180
v 0.008833 -0.026202 -0.026850
v 0.009292 -0.026119 -0.024986
v 0.011759 -0.024774 -0.024986
v 0.010752 -0.023450 -0.026190
v -0.010171 -0.024789 -0.024884
v -0.007708 -0.026132 -0.024909
v -0.009184 -0.023460 -0.026098
v -0.010473 -0.021269 -0.027130
v -0.015011 -0.024524 -0.028799
v -0.013895 -0.021785 -0.028383
v -0.015126 -0.048167 -0.007435
v -0.014497 -0.048528 -0.010996
v -0.014804 -0.047672 -0.000789
v -0.013046 -0.047126 0.005886
v -0.010361 -0.046146 0.010231
v -0.006891 -0.045421 0.013304
v -0.002969 -0.045257 0.014840
v -0.001846 -0.046375 0.012760
v -0.005108 -0.046526 0.011644
v -0.008233 -0.046991 0.008782
v -0.010476 -0.047534 0.004623
v -0.012210 -0.048265 -0.001285
v -0.012427 -0.048353 -0.006018
v -0.012031 -0.048299 -0.008895
v -0.011114 -0.048234 -0.012676
v -0.009673 -0.047342 -0.010833
v -0.006986 -0.046136 -0.013190
v -0.009012 -0.047308 -0.015347
v -0.007597 -0.046923 -0.017605
v -0.004888 -0.045255 -0.015776
v -0.003628 -0.045223 -0.010858
v -0.001901 -0.044468 -0.014398
v -0.007643 -0.046460 -0.007672
v -0.008222 -0.046695 -0.003361
v -0.007130 -0.046222 0.001540
v -0.005632 -0.045418 0.005857
v -0.003247 -0.045014 0.008253
v -0.000832 -0.044854 0.009245
v -0.009380 -0.047876 -0.021062
v -0.006716 -0.046100 -0.020168
v -0.009758 -0.048419 -0.018930
v -0.010940 -0.048918 -0.016720
v -0.012394 -0.049325 -0.014622
v -0.014724 -0.049098 -0.013836
v -0.016776 -0.047791 -0.014456
v -0.017036 -0.046708 -0.016435
v -0.016992 -0.046195 -0.019304
v -0.016164 -0.046181 -0.022920
v -0.014054 -0.046159 -0.024760
v -0.014336 -0.047255 -0.023534
v -0.012135 -0.046750 -0.024600
v -0.013075 -0.047537 -0.023427
v -0.015391 -0.047369 -0.022161
v -0.016131 -0.047557 -0.019728
v -0.016506 -0.047756 -0.017541
v -0.016034 -0.048362 -0.016431
v -0.014589 -0.049004 -0.015899
v -0.013301 -0.049233 -0.016247
v -0.012457 -0.048999 -0.018110
v -0.014843 -0.048201 -0.019318
v -0.013557 -0.048696 -0.018705
v -0.013983 -0.047858 -0.021723
v -0.011626 -0.048525 -0.020327
v -0.011153 -0.048199 -0.021411
v -0.011752 -0.047900 -0.022477
v -0.012729 -0.048270 -0.021049
v -0.010256 -0.047306 -0.023128
v -0.011288 -0.040703 -0.027431
v -0.007920 -0.044911 -0.023048
v -0.010549 -0.043484 -0.025774
v -0.003988 -0.044153 -0.018805
v -0.011043 -0.040533 -0.030490
v -0.013556 -0.041824 -0.031364
v -0.004576 -0.033883 -0.029581
v -0.003282 -0.035584 -0.030299
v -0.005793 -0.031912 -0.028368
v -0.006672 -0.038464 -0.029404
v -0.004571 -0.039878 -0.030231
v -0.008988 -0.038905 -0.028582
v -0.008610 -0.039556 -0.026890
v -0.007423 -0.040611 -0.024667
v -0.005295 -0.042126 -0.021439
v -0.006444 -0.035065 -0.027757
v -0.006716 -0.029974 -0.027263
v -0.007171 -0.028471 -0.026168
v -0.007290 -0.036273 -0.026783
v -0.007121 -0.036935 -0.024916
v -0.006131 -0.038600 -0.022633
v -0.001406 -0.043188 -0.017782
v -0.003010 -0.039643 -0.020153
v -0.005262 -0.035782 -0.021575
v -0.002313 -0.035792 -0.020637
v -0.006682 -0.034654 -0.023634
v -0.007067 -0.031844 -0.026133
v -0.007138 -0.028501 -0.024866
v -0.007067 -0.033176 -0.025258
v -0.006847 -0.030975 -0.024221
v -0.006300 -0.031437 -0.022869
v -0.004632 -0.031496 -0.021266
v -0.001957 -0.031304 -0.020486
v -0.012623 -0.021081 -0.027789
v -0.011203 -0.022970 -0.026524
v -0.012196 -0.024756 -0.026052
v -0.013718 -0.026546 -0.025998
v -0.012555 -0.026598 -0.025005
v -0.014984 -0.025941 -0.027716
v -0.015828 -0.027280 -0.028301
v -0.014971 -0.028281 -0.026083
v -0.015569 -0.027928 -0.026892
v -0.014516 -0.026407 -0.026784
v -0.016839 -0.031293 -0.026717
v -0.016441 -0.028542 -0.028973
v -0.016800 -0.029489 -0.027495
v -0.018658 -0.031519 -0.027884
v -0.017566 -0.029410 -0.029885
v -0.018060 -0.029982 -0.028707
v -0.019056 -0.029346 -0.030410
v -0.020272 -0.031507 -0.028505
v -0.019610 -0.030060 -0.029335
v -0.020669 -0.028797 -0.031096
v -0.021683 -0.031272 -0.028780
v -0.021153 -0.029808 -0.029708
v -0.023140 -0.027505 -0.031868
v -0.022704 -0.030920 -0.029089
v -0.022524 -0.029082 -0.030336
v -0.023444 -0.030877 -0.029566
v -0.023521 -0.029113 -0.030539
v -0.025062 -0.027058 -0.031630
v -0.028499 -0.026084 -0.033295
v -0.031123 -0.027039 -0.034555
v -0.032907 -0.029536 -0.035116
v -0.033195 -0.032749 -0.034803
v -0.031554 -0.035447 -0.033478
v -0.029444 -0.036382 -0.031198
v -0.027589 -0.035700 -0.029225
v -0.025885 -0.034194 -0.028349
v -0.024472 -0.032765 -0.028801
v -0.024012 -0.029421 -0.030863
v -0.025896 -0.027473 -0.031510
v -0.023855 -0.031038 -0.030180
v -0.024933 -0.032599 -0.029375
v -0.026475 -0.033683 -0.028827
v -0.028286 -0.034755 -0.029171
v -0.029912 -0.035375 -0.030573
v -0.031337 -0.034562 -0.032451
v -0.032357 -0.032136 -0.033531
v -0.032165 -0.029434 -0.033877
v -0.030778 -0.027446 -0.033595
v -0.028656 -0.026737 -0.032639
v -0.024322 -0.031350 -0.031147
v -0.024605 -0.029959 -0.031714
v -0.025853 -0.028637 -0.031994
v -0.027358 -0.028412 -0.032709
v -0.028897 -0.028675 -0.033282
v -0.029382 -0.032081 -0.033358
v -0.029226 -0.030226 -0.033526
v -0.026262 -0.030336 -0.032977
v -0.025109 -0.032565 -0.030462
v -0.026241 -0.033416 -0.029922
v -0.028511 -0.034438 -0.031262
v -0.027376 -0.034069 -0.030576
v -0.025998 -0.031808 -0.032743
v -0.029034 -0.033705 -0.032551
v -0.026352 -0.033018 -0.031982
v -0.008302 -0.018846 -0.031289
v -0.007676 -0.020021 -0.031266
v -0.009943 -0.020757 -0.031781
v -0.012192 -0.020913 -0.032344
v -0.012254 -0.023150 -0.032554
v -0.006906 -0.022123 -0.031602
v -0.009873 -0.022787 -0.031962
v -0.009904 -0.026641 -0.032558
v -0.011696 -0.026859 -0.032621
v -0.008051 -0.026211 -0.032368
v -0.006966 -0.024528 -0.031998
v -0.012068 -0.025425 -0.032639
v -0.009759 -0.024799 -0.032283
v -0.002204 -0.036732 -0.030884
v -0.004007 -0.042085 -0.031116
v -0.000730 -0.037197 -0.031139
v -0.006060 -0.047997 -0.037718
v -0.007641 -0.048124 -0.036747
v -0.006945 -0.051387 -0.034863
v -0.006528 -0.051135 -0.035818
v -0.002673 -0.047056 -0.041649
v -0.004964 -0.049834 -0.038580
v -0.005717 -0.052225 -0.036546
v -0.003085 -0.041648 -0.031806
v -0.004191 -0.045074 -0.032495
v -0.001088 -0.040789 -0.031775
v -0.004076 -0.047387 -0.034869
v -0.004920 -0.050384 -0.032176
v -0.006731 -0.055373 -0.031601
v -0.001489 -0.042778 -0.035607
v -0.004357 -0.049279 -0.036269
v -0.001623 -0.047070 -0.037005
v -0.003914 -0.051525 -0.037071
v -0.001693 -0.050538 -0.038137
v -0.002416 -0.058990 -0.043906
v -0.001822 -0.061146 -0.045736
v -0.001472 -0.063644 -0.047499
v -0.001406 -0.066096 -0.048952
v -0.001819 -0.068720 -0.050313
v -0.001805 -0.071674 -0.051291
v -0.000494 -0.066526 -0.048351
v -0.000802 -0.068935 -0.049525
v -0.000516 -0.063950 -0.047027
v -0.000645 -0.061249 -0.045750
v -0.001132 -0.058810 -0.043874
v -0.000705 -0.071576 -0.050609
v -0.000647 -0.073653 -0.053667
v -0.001304 -0.074311 -0.051750
v -0.003250 -0.054659 -0.038212
v -0.001449 -0.053777 -0.039336
v -0.003021 -0.057422 -0.041728
v -0.001234 -0.057410 -0.042515
v -0.004653 -0.054924 -0.037974
v -0.000685 -0.056535 -0.042007
v -0.002066 -0.056747 -0.040969
v -0.001095 -0.055527 -0.040757
v -0.002681 -0.056188 -0.039724
v -0.004091 -0.056427 -0.039813
v -0.002707 -0.055299 -0.043889
v -0.004093 -0.052266 -0.040167
v -0.003532 -0.054173 -0.042012
v -0.001645 -0.053146 -0.046367
v -0.002445 -0.049465 -0.043413
v -0.002098 -0.051586 -0.045017
v -0.010581 -0.044402 -0.030316
v -0.012837 -0.045273 -0.030370
v -0.008348 -0.044608 -0.029963
v -0.006986 -0.045745 -0.029725
v -0.005889 -0.047483 -0.029321
v -0.005271 -0.049444 -0.029262
v -0.004873 -0.052043 -0.029122
v -0.006986 -0.056785 -0.029289
v -0.012066 -0.056566 -0.031002
v -0.011760 -0.056784 -0.029537
v -0.008243 -0.045762 -0.029957
v -0.010034 -0.046189 -0.030146
v -0.011670 -0.046762 -0.030142
v -0.014164 -0.047498 -0.030245
v -0.012383 -0.048433 -0.030199
v -0.007193 -0.046550 -0.029498
v -0.009748 -0.047738 -0.029786
v -0.006596 -0.047857 -0.029157
v -0.012319 -0.052886 -0.029910
v -0.014512 -0.053043 -0.029690
v -0.010716 -0.056009 -0.029819
v -0.012670 -0.050343 -0.030027
v -0.009344 -0.049315 -0.030042
v -0.007473 -0.054741 -0.029331
v -0.006576 -0.051717 -0.028674
v -0.008848 -0.051304 -0.029827
v -0.006616 -0.049494 -0.028985
v -0.008153 -0.053349 -0.033688
v -0.015937 -0.042214 -0.032682
v -0.015520 -0.042145 -0.033744
v -0.015133 -0.043533 -0.031644
v -0.015385 -0.051685 -0.031021
v -0.008892 -0.042368 -0.036411
v -0.009063 -0.045092 -0.036180
v -0.011086 -0.041773 -0.035551
v -0.013771 -0.041784 -0.034877
v -0.015288 -0.044482 -0.033122
v -0.015290 -0.046995 -0.032425
v -0.015557 -0.048364 -0.031247
v -0.008789 -0.050701 -0.035280
v -0.011619 -0.045293 -0.035210
v -0.012153 -0.051740 -0.033789
v -0.014282 -0.048549 -0.033019
v -0.013829 -0.044700 -0.034395
v -0.014024 -0.023633 -0.028057
v -0.012929 -0.023025 -0.027420
v -0.014140 -0.024998 -0.027512
v -0.007752 -0.024960 -0.019499
v -0.003385 -0.025996 -0.017085
v -0.006184 -0.024769 -0.020555
v -0.007570 -0.026023 -0.023170
v -0.009193 -0.025433 -0.022977
v -0.002573 -0.024934 -0.018887
v -0.006583 -0.027934 -0.023137
v -0.005041 -0.027330 -0.021252
v -0.002020 -0.027142 -0.019978
v -0.010962 -0.026257 -0.022676
v -0.010197 -0.025320 -0.019699
v -0.012636 -0.026068 -0.021564
v -0.012298 -0.025130 -0.019705
v -0.015103 -0.031017 -0.018809
v -0.014687 -0.030043 -0.020227
v -0.014434 -0.028931 -0.021285
v -0.013940 -0.027771 -0.021307
v -0.014252 -0.028945 -0.019676
v -0.013158 -0.026055 -0.019483
v -0.013394 -0.026779 -0.020610
v -0.014430 -0.026544 -0.016516
v -0.013527 -0.026212 -0.018130
v -0.013684 -0.027538 -0.018946
v -0.015952 -0.027191 -0.015113
v -0.017486 -0.028196 -0.014106
v -0.017825 -0.029238 -0.014029
v -0.014318 -0.028079 -0.017147
v -0.015744 -0.028559 -0.015443
v -0.016602 -0.031074 -0.015565
v -0.017293 -0.030195 -0.014447
v -0.014662 -0.029667 -0.017955
v -0.015719 -0.031196 -0.017006
v -0.015678 -0.029900 -0.015983
v -0.003899 -0.045484 -0.006009
v -0.001660 -0.045144 -0.007231
v -0.004230 -0.045473 -0.003484
v -0.004200 -0.045289 -0.000023
v -0.001290 -0.044881 -0.003914
v -0.003303 -0.044679 0.003568
v -0.002203 -0.044255 0.005996
v -0.000573 -0.044028 0.006441
v -0.001068 -0.044471 -0.000326
v -0.000839 -0.044044 0.003266
v -0.014616 -0.050060 -0.030097
v -0.013480 -0.025023 -0.026912
v 0.005057 -0.032532 -0.035555
v 0.009463 -0.035148 -0.035514
v 0.005612 -0.037585 -0.037943
v 0.003073 -0.033319 -0.037647
v 0.002039 -0.032249 -0.035515
v 0.003258 -0.031967 -0.034295
v 0.008306 -0.040409 -0.036934
v 0.008157 -0.044111 -0.037413
v 0.004628 -0.043267 -0.039545
v 0.011452 -0.038594 -0.035697
v 0.009122 -0.048121 -0.036821
v 0.007532 -0.047993 -0.037778
v 0.006428 -0.049831 -0.038631
v 0.004107 -0.047054 -0.041679
v 0.006409 -0.031346 -0.034034
v 0.010465 -0.032634 -0.034085
v 0.014905 -0.035164 -0.035137
v 0.015631 -0.038601 -0.034944
v 0.015023 -0.032629 -0.034545
v 0.004378 -0.031096 -0.033147
v 0.010373 -0.042362 -0.036497
v 0.010547 -0.045090 -0.036270
v 0.012573 -0.041762 -0.035659
v 0.010283 -0.050707 -0.035361
v 0.015261 -0.041767 -0.034997
v 0.013114 -0.045288 -0.035317
v 0.015333 -0.044693 -0.034513
v 0.013707 -0.051760 -0.033886
v 0.009655 -0.053301 -0.033774
v 0.008445 -0.051377 -0.034935
v 0.008017 -0.051129 -0.035881
v 0.013619 -0.056561 -0.031111
v 0.018288 -0.039300 -0.034010
v 0.017011 -0.042124 -0.033882
v 0.016798 -0.044470 -0.033258
v 0.018927 -0.034120 -0.035415
v 0.019864 -0.036293 -0.034728
v 0.021167 -0.037456 -0.033224
v 0.005544 -0.052264 -0.040211
v 0.003877 -0.049463 -0.043441
v 0.004968 -0.054171 -0.042050
v 0.003512 -0.051584 -0.045042
v 0.004127 -0.055297 -0.043920
v 0.003131 -0.056338 -0.046378
v 0.002421 -0.054219 -0.047636
v 0.003042 -0.053144 -0.046389
v 0.002189 -0.056417 -0.049262
v 0.001835 -0.054911 -0.049032
v 0.003042 -0.059354 -0.048471
v 0.002169 -0.058646 -0.051140
v 0.004462 -0.057419 -0.041761
v 0.003839 -0.058988 -0.043934
v 0.003228 -0.061145 -0.045759
v 0.005549 -0.056424 -0.039857
v 0.007202 -0.052220 -0.036604
v 0.006127 -0.054921 -0.038023
v 0.005844 -0.049275 -0.036312
v 0.005395 -0.051522 -0.037113
v 0.005576 -0.047382 -0.034902
v 0.004722 -0.054656 -0.038247
v 0.004140 -0.056185 -0.039755
v 0.002668 -0.057410 -0.042532
v 0.002554 -0.058809 -0.043891
v 0.003515 -0.056746 -0.040994
v 0.002120 -0.056534 -0.042019
v 0.002060 -0.061248 -0.045763
v 0.002864 -0.063643 -0.047518
v 0.002868 -0.062120 -0.050313
v 0.002089 -0.060889 -0.052829
v 0.001921 -0.063950 -0.047038
v 0.002764 -0.064474 -0.051562
v 0.001917 -0.063293 -0.054005
v 0.002789 -0.066096 -0.048969
v 0.001872 -0.066527 -0.048361
v 0.003113 -0.067484 -0.052784
v 0.002081 -0.066530 -0.055141
v 0.003191 -0.068722 -0.050334
v 0.002180 -0.068936 -0.049537
v 0.003170 -0.071674 -0.051310
v 0.002725 -0.070600 -0.053976
v 0.002074 -0.071576 -0.050617
v 0.001852 -0.068762 -0.055503
v 0.002666 -0.074309 -0.051764
v 0.001987 -0.073652 -0.053676
v 0.009556 -0.026206 -0.032447
v 0.011409 -0.026633 -0.032654
v 0.011361 -0.029133 -0.032775
v 0.007871 -0.027817 -0.032528
v 0.011069 -0.030823 -0.033263
v 0.007338 -0.030078 -0.033159
v 0.006875 -0.024979 -0.031770
v 0.008474 -0.024523 -0.032067
v 0.006169 -0.028122 -0.031033
v 0.006856 -0.025476 -0.029706
v 0.005374 -0.029917 -0.031974
v 0.013210 -0.026845 -0.032736
v 0.014725 -0.029005 -0.032067
v 0.015495 -0.030609 -0.033040
v 0.022240 -0.033369 -0.035880
v 0.022865 -0.035245 -0.034913
v 0.023726 -0.036233 -0.032906
v 0.013586 -0.025407 -0.032759
v 0.015752 -0.026245 -0.032324
v 0.016976 -0.026077 -0.030633
v 0.016818 -0.028540 -0.030728
v 0.017635 -0.029553 -0.031565
v 0.013767 -0.023131 -0.032673
v 0.016207 -0.023204 -0.032668
v 0.016892 -0.023307 -0.030862
v 0.006480 -0.021691 -0.031310
v 0.008415 -0.022118 -0.031672
v 0.006774 -0.021876 -0.029810
v 0.007322 -0.018511 -0.030944
v 0.009174 -0.020017 -0.031351
v 0.007577 -0.018960 -0.029247
v 0.009161 -0.016864 -0.030765
v 0.009794 -0.018841 -0.031384
v 0.009805 -0.017197 -0.028935
v 0.012231 -0.016513 -0.031244
v 0.011261 -0.018914 -0.031890
v 0.013184 -0.016761 -0.029493
v 0.014625 -0.018028 -0.031974
v 0.013099 -0.019304 -0.032362
v 0.015617 -0.018475 -0.029918
v 0.015965 -0.020414 -0.032297
v 0.013701 -0.020896 -0.032460
v 0.016625 -0.020863 -0.030488
v 0.011448 -0.020747 -0.031881
v 0.011382 -0.022776 -0.032058
v 0.011267 -0.024789 -0.032378
v 0.018508 -0.031754 -0.035131
v 0.017368 -0.027264 -0.028450
v 0.017976 -0.028527 -0.029126
v 0.016407 -0.022828 -0.029280
v 0.016525 -0.024502 -0.028940
v 0.016522 -0.025926 -0.027857
v 0.019095 -0.029394 -0.030051
v 0.016209 -0.021419 -0.029233
v 0.015438 -0.019999 -0.028736
v 0.013904 -0.018792 -0.028352
v 0.011109 -0.019100 -0.028012
v 0.009064 -0.020550 -0.028221
v 0.008021 -0.022623 -0.028645
v 0.008233 -0.025006 -0.028093
v 0.006399 -0.029529 -0.029747
v 0.007462 -0.027859 -0.028566
v 0.005310 -0.031414 -0.030677
v 0.001892 -0.034290 -0.030788
v 0.003160 -0.033704 -0.030695
v 0.004160 -0.032659 -0.030869
v 0.018710 -0.029913 -0.033879
v 0.019512 -0.029078 -0.032226
v 0.021897 -0.028312 -0.032999
v 0.021809 -0.029058 -0.034467
v 0.021748 -0.031000 -0.035661
v 0.020578 -0.029329 -0.030591
v 0.022179 -0.028779 -0.031294
v 0.026069 -0.026533 -0.034049
v 0.027844 -0.027595 -0.035773
v 0.024638 -0.027487 -0.032088
v 0.028603 -0.029940 -0.036644
v 0.028911 -0.032722 -0.036710
v 0.028140 -0.035000 -0.035798
v 0.027105 -0.036064 -0.033097
v 0.021848 -0.037354 -0.031771
v 0.018798 -0.039321 -0.032716
v 0.017439 -0.042192 -0.032831
v 0.024209 -0.036165 -0.031014
v 0.026205 -0.035715 -0.030484
v 0.016651 -0.043514 -0.031782
v 0.030915 -0.036360 -0.031474
v 0.029094 -0.035676 -0.029480
v 0.027407 -0.034167 -0.028585
v 0.025447 -0.034674 -0.029170
v 0.023767 -0.035159 -0.029691
v 0.033005 -0.035425 -0.033769
v 0.031417 -0.035351 -0.030848
v 0.029811 -0.034729 -0.029427
v 0.028003 -0.033652 -0.029066
v 0.032822 -0.034538 -0.032738
v 0.034651 -0.032728 -0.035100
v 0.033842 -0.032112 -0.033824
v 0.034377 -0.029516 -0.035408
v 0.033661 -0.029410 -0.034166
v 0.032609 -0.027018 -0.034832
v 0.032287 -0.027422 -0.033871
v 0.029995 -0.026063 -0.033552
v 0.030170 -0.026712 -0.032898
v 0.026565 -0.027036 -0.031864
v 0.027409 -0.027447 -0.031746
v 0.024024 -0.029065 -0.030553
v 0.025023 -0.029090 -0.030762
v 0.025519 -0.029392 -0.031084
v 0.022662 -0.029793 -0.029910
v 0.021744 -0.036291 -0.030327
v 0.018424 -0.039389 -0.031492
v 0.021134 -0.030046 -0.029520
v 0.019597 -0.029968 -0.028875
v 0.018348 -0.029476 -0.027649
v 0.017127 -0.027916 -0.027039
v 0.025988 -0.032736 -0.029026
v 0.024830 -0.032894 -0.028880
v 0.026450 -0.032566 -0.029600
v 0.023633 -0.033226 -0.028873
v 0.024954 -0.030849 -0.029785
v 0.024214 -0.030899 -0.029304
v 0.025365 -0.031005 -0.030398
v 0.023200 -0.031255 -0.028984
v 0.021804 -0.031490 -0.028693
v 0.022226 -0.033729 -0.028707
v 0.020204 -0.031504 -0.028058
v 0.020882 -0.033937 -0.027926
v 0.018398 -0.031283 -0.026876
v 0.019131 -0.034219 -0.026849
v 0.016857 -0.030961 -0.025288
v 0.017571 -0.034319 -0.025678
v 0.016539 -0.028269 -0.026225
v 0.015648 -0.028286 -0.025297
v 0.019034 -0.036852 -0.028032
v 0.020584 -0.036461 -0.029203
v 0.017388 -0.037415 -0.026925
v 0.017863 -0.038774 -0.029529
v 0.018962 -0.038310 -0.030296
v 0.016605 -0.039314 -0.028277
v 0.016315 -0.040310 -0.031203
v 0.015079 -0.041806 -0.031487
v 0.014370 -0.045264 -0.030488
v 0.015682 -0.047456 -0.030366
v 0.016141 -0.050035 -0.030237
v 0.017088 -0.048353 -0.031393
v 0.016818 -0.046991 -0.032560
v 0.014360 -0.040030 -0.029845
v 0.012574 -0.040517 -0.030619
v 0.012118 -0.044392 -0.030429
v 0.010536 -0.038890 -0.028668
v 0.008212 -0.038457 -0.029471
v 0.009887 -0.044597 -0.030043
v 0.014876 -0.040159 -0.026546
v 0.012848 -0.040690 -0.027565
v 0.010173 -0.039540 -0.026970
v 0.015828 -0.037965 -0.025504
v 0.016260 -0.033746 -0.023512
v 0.016094 -0.030282 -0.023855
v 0.014881 -0.027904 -0.023684
v 0.008853 -0.036263 -0.026851
v 0.007997 -0.035059 -0.027821
v 0.008701 -0.036924 -0.024981
v 0.006105 -0.039873 -0.030273
v 0.008529 -0.045734 -0.029782
v 0.008740 -0.046536 -0.029564
v 0.009784 -0.045751 -0.030034
v 0.011573 -0.046186 -0.030243
v 0.006112 -0.033880 -0.029629
v 0.004813 -0.035582 -0.030335
v 0.007339 -0.031908 -0.028427
v 0.005534 -0.042081 -0.031151
v 0.007436 -0.047474 -0.029367
v 0.008149 -0.047840 -0.029221
v 0.003730 -0.036729 -0.030906
v 0.014476 -0.042397 -0.025336
v 0.012125 -0.043479 -0.025923
v 0.009007 -0.040601 -0.024741
v 0.015274 -0.039310 -0.024399
v 0.016025 -0.035948 -0.022401
v 0.016072 -0.029298 -0.022629
v 0.016268 -0.031336 -0.021576
v 0.016807 -0.032802 -0.020007
v 0.015229 -0.027242 -0.022614
v 0.015289 -0.026533 -0.026129
v 0.014139 -0.026584 -0.025126
v 0.016074 -0.026394 -0.026922
v 0.012573 -0.026243 -0.022785
v 0.014249 -0.026062 -0.021689
v 0.015553 -0.023618 -0.028192
v 0.015681 -0.024984 -0.027648
v 0.015431 -0.021772 -0.028517
v 0.015037 -0.025011 -0.027044
v 0.014170 -0.021072 -0.027911
v 0.012026 -0.021262 -0.027232
v 0.009968 -0.022164 -0.027263
v 0.008271 -0.029970 -0.027330
v 0.008737 -0.028465 -0.026240
v 0.013768 -0.024743 -0.026171
v 0.010804 -0.025415 -0.023069
v 0.011833 -0.025308 -0.019802
v 0.013924 -0.025123 -0.019826
v 0.009393 -0.024943 -0.019579
v 0.015549 -0.027766 -0.021441
v 0.016043 -0.028924 -0.021422
v 0.016303 -0.030035 -0.020366
v 0.015008 -0.026774 -0.020740
v 0.016732 -0.031009 -0.018953
v 0.017574 -0.032784 -0.017988
v 0.016369 -0.036490 -0.019904
v 0.017364 -0.031188 -0.017155
v 0.015918 -0.040741 -0.022055
v 0.018357 -0.032425 -0.015791
v 0.017260 -0.035645 -0.016074
v 0.018258 -0.031070 -0.015723
v 0.017055 -0.039253 -0.016228
v 0.019448 -0.031312 -0.013690
v 0.018745 -0.033238 -0.012472
v 0.018331 -0.035117 -0.010561
v 0.018959 -0.030197 -0.014614
v 0.019988 -0.029642 -0.012927
v 0.019723 -0.031176 -0.010575
v 0.019091 -0.032298 -0.007047
v 0.019495 -0.029237 -0.014200
v 0.016450 -0.044228 -0.022978
v 0.017506 -0.043707 -0.018622
v 0.018005 -0.037786 -0.005587
v 0.017909 -0.041079 -0.011364
v 0.018074 -0.044191 -0.014779
v 0.016809 -0.035034 0.000510
v 0.018627 -0.046178 -0.019465
v 0.017767 -0.046168 -0.023079
v 0.018698 -0.046691 -0.016591
v 0.015641 -0.046155 -0.024909
v 0.018153 -0.044351 -0.008607
v 0.018198 -0.046095 -0.012013
v 0.017390 -0.042762 -0.002075
v 0.018456 -0.047776 -0.014609
v 0.015596 -0.041780 0.004165
v 0.013723 -0.046764 -0.024743
v 0.014782 -0.026050 -0.019611
v 0.018159 -0.047740 -0.017696
v 0.017764 -0.047544 -0.019885
v 0.017002 -0.047362 -0.022316
v 0.017697 -0.048347 -0.016582
v 0.015935 -0.047253 -0.023684
v 0.014674 -0.047542 -0.023575
v 0.011858 -0.047322 -0.023257
v 0.009522 -0.044921 -0.023157
v 0.006909 -0.042128 -0.021503
v 0.013361 -0.047914 -0.022625
v 0.016607 -0.047665 -0.000929
v 0.016869 -0.048158 -0.007577
v 0.016208 -0.048518 -0.011130
v 0.014907 -0.047124 0.005763
v 0.014009 -0.048260 -0.001402
v 0.014184 -0.048344 -0.006137
v 0.012323 -0.047536 0.004529
v 0.013762 -0.048289 -0.009009
v 0.016410 -0.049086 -0.013971
v 0.012810 -0.048227 -0.012782
v 0.014074 -0.049316 -0.014738
v 0.011386 -0.047334 -0.010927
v 0.016257 -0.048991 -0.016035
v 0.014966 -0.049221 -0.016374
v 0.010684 -0.047307 -0.015444
v 0.012601 -0.048914 -0.016834
v 0.014105 -0.048993 -0.018240
v 0.008677 -0.046134 -0.013266
v 0.009248 -0.046930 -0.017701
v 0.011399 -0.048425 -0.019047
v 0.013254 -0.048533 -0.020470
v 0.006555 -0.045259 -0.015839
v 0.008344 -0.046111 -0.020259
v 0.011001 -0.047891 -0.021185
v 0.012771 -0.048215 -0.021557
v 0.005627 -0.044157 -0.018860
v 0.012835 -0.041053 0.008992
v 0.012260 -0.046144 0.010133
v 0.013469 -0.035071 0.007589
v 0.010117 -0.046993 0.008707
v 0.009129 -0.040223 0.012375
v 0.008819 -0.045416 0.013235
v 0.007023 -0.046525 0.011590
v 0.009433 -0.034709 0.011725
v 0.004996 -0.040189 0.014121
v 0.004913 -0.045253 0.014804
v 0.003775 -0.046375 0.012731
v 0.005087 -0.034857 0.013633
v 0.019333 -0.028984 -0.010196
v 0.019002 -0.029415 -0.006116
v 0.017026 -0.030383 0.001495
v 0.019210 -0.027820 -0.013133
v 0.019156 -0.028188 -0.014271
v 0.016929 -0.027215 -0.011924
v 0.017228 -0.027871 -0.009377
v 0.017335 -0.026226 -0.014472
v 0.015412 -0.026571 -0.013192
v 0.017613 -0.027179 -0.015263
v 0.017212 -0.028173 -0.005859
v 0.016042 -0.028952 0.000785
v 0.014416 -0.027483 -0.010165
v 0.015196 -0.027732 -0.008588
v 0.012922 -0.027325 -0.011875
v 0.014786 -0.028097 -0.005806
v 0.013903 -0.028922 -0.000258
v 0.015569 -0.025398 -0.015902
v 0.013358 -0.026167 -0.014672
v 0.016078 -0.026532 -0.016652
v 0.010908 -0.027174 -0.013627
v 0.014421 -0.025019 -0.017797
v 0.012171 -0.025629 -0.016710
v 0.009495 -0.026567 -0.015610
v 0.015160 -0.026204 -0.018259
v 0.009178 -0.026005 -0.023247
v 0.007817 -0.024751 -0.020619
v 0.001574 -0.076558 -0.051466
v 0.000636 -0.076711 -0.051416
v 0.000725 -0.077875 -0.052322
v 0.002131 -0.076930 -0.052247
v 0.012767 -0.022959 -0.026634
v 0.005036 -0.025989 -0.017123
v 0.005582 -0.027459 -0.014725
v 0.004197 -0.024926 -0.018918
v 0.006140 -0.028254 -0.012343
v 0.007035 -0.028543 -0.009023
v 0.011961 -0.028164 -0.006995
v 0.010539 -0.028827 -0.001571
v 0.017403 -0.028552 -0.015593
v 0.017332 -0.029894 -0.016133
v 0.015874 -0.028937 -0.019812
v 0.016299 -0.029659 -0.018094
v 0.015311 -0.027531 -0.019077
v 0.015961 -0.028071 -0.017283
v 0.014298 -0.030258 0.006671
v 0.013816 -0.028680 0.005835
v 0.012018 -0.028949 0.004587
v 0.008845 -0.029278 0.003020
v 0.010064 -0.030281 0.010882
v 0.009791 -0.028580 0.010249
v 0.006662 -0.027316 -0.021305
v 0.003644 -0.027137 -0.020004
v 0.008187 -0.027919 -0.023204
v 0.005564 -0.028819 -0.003480
v 0.004726 -0.028769 0.001663
v 0.004125 -0.028799 0.008027
v 0.007027 -0.029065 0.007343
v 0.008437 -0.028795 0.008861
v 0.005432 -0.030581 0.013090
v 0.005354 -0.028634 0.012331
v 0.004670 -0.028581 0.010649
v 0.008720 -0.028491 -0.024937
v 0.001805 -0.074155 -0.051043
v 0.000624 -0.074093 -0.050990
v 0.002255 -0.037196 -0.031152
v 0.008633 -0.031838 -0.026202
v 0.002604 -0.040786 -0.031785
v 0.004610 -0.041643 -0.031829
v 0.005707 -0.045071 -0.032524
v 0.008434 -0.030967 -0.024289
v 0.007902 -0.031428 -0.022933
v 0.008642 -0.033169 -0.025327
v 0.006247 -0.031488 -0.021315
v 0.003575 -0.031301 -0.020511
v 0.014475 -0.023014 -0.027545
v 0.009384 -0.046454 -0.007748
v 0.005337 -0.045221 -0.010899
v 0.010002 -0.046694 -0.003442
v 0.008953 -0.046232 0.001471
v 0.007492 -0.045422 0.005803
v 0.005131 -0.045016 0.008213
v 0.002726 -0.044857 0.009225
v 0.002439 -0.044030 0.006426
v 0.004064 -0.044256 0.005969
v 0.005141 -0.044684 0.003531
v 0.006008 -0.045296 -0.000068
v 0.006007 -0.045473 -0.003529
v 0.005652 -0.045481 -0.006052
v 0.003412 -0.045142 -0.007253
v 0.003580 -0.044468 -0.014424
v 0.003056 -0.043188 -0.017805
v 0.004634 -0.039642 -0.020189
v 0.003065 -0.044880 -0.003933
v 0.002876 -0.044472 -0.000344
v 0.002695 -0.044044 0.003251
v 0.015598 -0.047858 -0.021875
v 0.014350 -0.048276 -0.021199
v 0.015200 -0.048689 -0.018845
v 0.016480 -0.048192 -0.019467
v 0.007733 -0.038591 -0.022692
v 0.006818 -0.049437 -0.029309
v 0.008169 -0.049478 -0.029050
v 0.006443 -0.050382 -0.032229
v 0.006427 -0.052037 -0.029175
v 0.008130 -0.051712 -0.028731
v 0.008265 -0.055356 -0.031663
v 0.008538 -0.056790 -0.029361
v 0.008990 -0.054808 -0.029370
v 0.013333 -0.056797 -0.029644
v 0.012292 -0.056065 -0.029916
v 0.016951 -0.051713 -0.031164
v 0.016078 -0.053055 -0.029818
v 0.013864 -0.052841 -0.030021
v 0.015819 -0.048561 -0.033151
v 0.014173 -0.050272 -0.030153
v 0.013890 -0.048389 -0.030311
v 0.013204 -0.046759 -0.030253
v 0.008272 -0.034647 -0.023697
v 0.006872 -0.035777 -0.021626
v 0.003931 -0.035790 -0.020665
v 0.025827 -0.031316 -0.031366
v 0.026110 -0.029927 -0.031936
v 0.026624 -0.032531 -0.030686
v 0.027367 -0.028607 -0.032226
v 0.028880 -0.028383 -0.032953
v 0.030418 -0.028647 -0.033541
v 0.030738 -0.030198 -0.033791
v 0.030886 -0.032054 -0.033625
v 0.030542 -0.033678 -0.032814
v 0.030030 -0.034410 -0.031520
v 0.028902 -0.034040 -0.030821
v 0.027767 -0.033384 -0.030156
v 0.027771 -0.030305 -0.033212
v 0.027501 -0.031778 -0.032977
v 0.027864 -0.032988 -0.032217
v 0.002979 -0.042775 -0.035620
v 0.003102 -0.047068 -0.037025
v 0.003150 -0.050536 -0.038159
v 0.002908 -0.053776 -0.039356
v 0.002540 -0.055526 -0.040773
v 0.010874 -0.049308 -0.030153
v 0.010378 -0.051301 -0.029929
v 0.011288 -0.047737 -0.029894
v 0.000678 -0.033181 -0.038672
v 0.000637 -0.037538 -0.040665
v 0.000782 -0.041809 -0.042509
v 0.000757 -0.044876 -0.044215
v 0.000729 -0.054747 -0.050074
v 0.000734 -0.053276 -0.049694
v 0.000735 -0.051738 -0.049130
v 0.000733 -0.056246 -0.050909
v 0.000746 -0.058277 -0.052658
v 0.000726 -0.060376 -0.054145
v 0.000712 -0.062890 -0.054978
v 0.000732 -0.066103 -0.056047
v 0.000586 -0.068810 -0.056060
v 0.000607 -0.071518 -0.055108
v 0.000603 -0.073694 -0.054555
v 0.001716 -0.075992 -0.053549
v 0.000624 -0.076551 -0.053920
v -0.000369 -0.075994 -0.053542
v 0.000788 -0.032291 -0.036015
v 0.000893 -0.025027 -0.018688
v 0.000774 -0.026394 -0.016732
v 0.000881 -0.028036 -0.014418
v 0.000801 -0.028947 -0.011861
v 0.000816 -0.029159 -0.008419
v 0.000929 -0.029049 -0.003767
v 0.000855 -0.028613 0.001018
v 0.001005 -0.028664 0.008372
v 0.001032 -0.028448 0.010960
v 0.000907 -0.028639 0.012594
v 0.001020 -0.030698 0.013542
v 0.001021 -0.034913 0.014169
v 0.001019 -0.040129 0.014719
v 0.000822 -0.034387 -0.030824
v 0.000715 -0.037319 -0.031048
v 0.001020 -0.045100 0.015236
v 0.001010 -0.046287 0.012962
v 0.000795 -0.044355 -0.014014
v 0.000882 -0.043021 -0.017518
v 0.000798 -0.044926 -0.010599
v 0.000952 -0.045044 -0.007603
v 0.000899 -0.044716 0.009189
v 0.000761 -0.027228 -0.019595
v 0.000856 -0.031306 -0.020155
v 0.000860 -0.039058 -0.019636
v 0.000764 -0.035689 -0.020460
v 0.000684 -0.040841 -0.031726
v 0.000695 -0.042099 -0.035953
v 0.000689 -0.046211 -0.037165
v 0.000817 -0.050019 -0.038513
v 0.000677 -0.053371 -0.039889
v 0.000655 -0.055141 -0.041167
v 0.000653 -0.056207 -0.042175
v 0.000615 -0.066589 -0.048322
v 0.000638 -0.068939 -0.049539
v 0.000631 -0.071462 -0.050709
v 0.000782 -0.063915 -0.047062
v 0.000786 -0.061094 -0.046104
v 0.000660 -0.058441 -0.044332
v 0.000665 -0.057316 -0.043218
v 0.000627 -0.047325 -0.045902
v 0.000776 -0.049582 -0.047524
v 0.000948 -0.044761 -0.004413
v 0.000974 -0.044296 -0.000748
v 0.000988 -0.043946 0.006444
v 0.000886 -0.043888 0.003167
v -0.000439 -0.074156 -0.051037
v -0.000772 -0.076931 -0.052236
v -0.000208 -0.076559 -0.051460
f 1 2 3
f 1 3 4
f 5 6 7
f 5 7 8
f 5 8 9
f 5 9 10
f 10 9 11
f 10 11 12
f 13 14 12
f 13 12 11
f 15 16 14
f 15 14 13
f 17 16 15
f 17 15 18
f 19 20 21
f 19 21 22
f 23 24 25
f 23 25 26
f 27 23 26
f 27 26 28
f 29 30 24
f 29 24 23
f 29 1 4
f 29 4 30
f 31 29 23
f 31 23 27
f 32 1 29
f 32 29 33
f 34 35 36
f 34 36 37
f 38 33 29
f 38 29 31
f 38 31 34
f 38 34 37
f 39 40 27
f 39 27 28
f 40 41 35
f 40 35 34
f 40 34 31
f 40 31 27
f 42 28 26
f 42 26 43
f 44 39 28
f 44 28 42
f 45 46 42
f 45 42 43
f 47 43 26
f 47 26 25
f 48 45 43
f 48 43 47
f 49 48 47
f 49 47 50
f 44 42 46
f 44 46 51
f 50 47 25
f 50 25 52
f 52 25 24
f 52 24 53
f 54 44 51
f 54 51 55
f 56 39 44
f 56 44 54
f 40 39 56
f 40 56 57
f 58 41 40
f 58 40 57
f 59 60 52
f 59 52 53
f 61 50 52
f 61 52 60
f 62 49 50
f 62 50 61
f 63 64 65
f 63 65 66
f 66 65 67
f 66 67 68
f 66 68 62
f 66 62 61
f 66 61 60
f 66 60 63
f 69 63 60
f 69 60 59
f 70 71 64
f 70 64 63
f 72 71 70
f 72 70 73
f 70 63 69
f 70 69 74
f 74 69 75
f 74 75 76
f 76 73 70
f 76 70 74
f 76 75 77
f 76 77 78
f 73 76 78
f 73 78 79
f 72 73 79
f 72 79 80
f 81 41 58
f 81 58 82
f 83 81 82
f 83 82 84
f 85 86 83
f 85 83 84
f 87 22 86
f 87 86 85
f 88 19 22
f 88 22 87
f 89 90 19
f 89 19 88
f 91 92 90
f 91 90 89
f 93 94 92
f 93 92 91
f 95 96 94
f 95 94 93
f 97 36 96
f 97 96 95
f 98 99 100
f 98 100 101
f 101 100 80
f 101 80 102
f 102 80 79
f 102 79 103
f 104 105 106
f 104 106 107
f 108 102 103
f 108 103 109
f 106 105 108
f 106 108 109
f 103 79 78
f 103 78 110
f 111 107 106
f 111 106 112
f 113 109 103
f 113 103 110
f 112 106 109
f 112 109 113
f 114 107 111
f 114 111 115
f 116 114 115
f 116 115 117
f 118 104 107
f 118 107 119
f 120 121 122
f 120 122 123
f 124 125 121
f 124 121 120
f 126 118 125
f 126 125 124
f 127 104 118
f 127 118 126
f 128 102 108
f 128 108 129
f 130 101 102
f 130 102 128
f 131 98 101
f 131 101 130
f 132 133 134
f 132 134 135
f 136 137 133
f 136 133 132
f 136 120 123
f 136 123 137
f 119 107 114
f 119 114 138
f 138 114 116
f 138 116 139
f 125 118 119
f 125 119 140
f 141 121 125
f 141 125 140
f 142 122 121
f 142 121 141
f 140 119 138
f 140 138 143
f 143 138 139
f 143 139 144
f 145 141 140
f 145 140 143
f 146 147 134
f 146 134 133
f 148 149 147
f 148 147 146
f 150 151 122
f 150 122 142
f 152 123 122
f 152 122 151
f 152 151 150
f 152 150 153
f 142 141 145
f 142 145 154
f 150 142 154
f 150 154 155
f 156 153 150
f 156 150 155
f 157 146 133
f 157 133 137
f 158 148 146
f 158 146 157
f 157 137 123
f 157 123 152
f 157 152 153
f 157 153 158
f 153 156 159
f 153 159 158
f 160 143 144
f 160 144 161
f 162 145 143
f 162 143 160
f 154 145 162
f 154 162 163
f 155 154 163
f 155 163 164
f 165 156 155
f 165 155 164
f 166 165 164
f 166 164 167
f 167 164 163
f 167 163 168
f 169 159 156
f 169 156 165
f 169 165 166
f 169 166 170
f 170 166 167
f 170 167 171
f 172 171 167
f 172 167 168
f 168 163 162
f 168 162 173
f 174 172 168
f 174 168 173
f 173 162 160
f 173 160 175
f 174 173 175
f 174 175 176
f 175 160 161
f 175 161 177
f 176 175 177
f 176 177 178
f 179 129 108
f 179 108 105
f 179 105 104
f 179 104 127
f 37 36 97
f 37 97 180
f 181 38 37
f 181 37 180
f 182 33 38
f 182 38 181
f 183 32 33
f 183 33 182
f 180 97 184
f 180 184 185
f 181 180 185
f 181 185 186
f 182 181 186
f 182 186 187
f 183 182 187
f 183 187 188
f 189 85 84
f 189 84 190
f 87 85 189
f 87 189 191
f 192 88 87
f 192 87 191
f 89 88 192
f 89 192 193
f 91 89 193
f 91 193 194
f 93 91 194
f 93 194 195
f 95 93 195
f 95 195 196
f 197 198 95
f 197 95 196
f 184 97 95
f 184 95 198
f 196 195 194
f 196 194 199
f 200 201 202
f 200 202 203
f 204 205 197
f 204 197 206
f 206 197 196
f 206 196 199
f 199 194 193
f 199 193 207
f 190 84 82
f 190 82 208
f 191 189 190
f 191 190 209
f 210 116 117
f 210 117 211
f 212 139 116
f 212 116 210
f 144 139 212
f 144 212 213
f 161 144 213
f 161 213 214
f 177 161 214
f 177 214 215
f 178 177 215
f 178 215 216
f 217 216 215
f 217 215 218
f 218 215 214
f 218 214 219
f 219 214 213
f 219 213 220
f 220 213 212
f 220 212 221
f 221 212 210
f 221 210 222
f 210 211 223
f 210 223 222
f 223 211 224
f 223 224 225
f 226 225 224
f 226 224 227
f 226 227 228
f 226 228 229
f 230 226 229
f 230 229 231
f 232 225 226
f 232 226 230
f 222 223 225
f 222 225 232
f 233 221 222
f 233 222 232
f 234 220 221
f 234 221 233
f 235 219 220
f 235 220 234
f 236 218 219
f 236 219 235
f 237 217 218
f 237 218 236
f 238 239 228
f 238 228 240
f 240 228 227
f 240 227 241
f 241 227 224
f 241 224 242
f 242 224 211
f 242 211 243
f 243 211 117
f 243 117 244
f 244 117 115
f 244 115 245
f 245 115 111
f 245 111 246
f 247 246 111
f 247 111 112
f 247 112 113
f 247 113 248
f 249 248 250
f 249 250 251
f 252 247 248
f 252 248 249
f 253 254 245
f 253 245 246
f 253 246 247
f 253 247 252
f 255 244 245
f 255 245 254
f 256 257 242
f 256 242 243
f 256 243 244
f 256 244 255
f 258 241 242
f 258 242 257
f 255 254 253
f 255 253 259
f 260 258 257
f 260 257 256
f 260 256 255
f 260 255 259
f 261 252 249
f 261 249 251
f 262 263 238
f 262 238 240
f 262 240 241
f 262 241 258
f 259 253 252
f 259 252 261
f 264 263 262
f 264 262 265
f 265 260 259
f 265 259 261
f 264 266 238
f 264 238 263
f 251 250 266
f 251 266 264
f 265 261 251
f 265 251 264
f 265 262 258
f 265 258 260
f 110 78 77
f 110 77 267
f 239 238 266
f 239 266 268
f 250 248 113
f 250 113 269
f 269 113 110
f 269 110 267
f 268 266 250
f 268 250 269
f 270 229 228
f 270 228 239
f 271 77 75
f 271 75 272
f 186 185 273
f 186 273 274
f 273 185 184
f 273 184 275
f 276 277 274
f 276 274 273
f 278 77 271
f 278 271 276
f 279 267 77
f 279 77 278
f 280 269 267
f 280 267 279
f 281 268 269
f 281 269 280
f 270 239 268
f 270 268 281
f 282 276 273
f 282 273 275
f 283 198 197
f 283 197 284
f 275 184 198
f 275 198 283
f 278 276 282
f 278 282 285
f 286 279 278
f 286 278 285
f 280 279 286
f 280 286 287
f 231 229 270
f 231 270 288
f 281 280 287
f 281 287 289
f 288 270 281
f 288 281 289
f 289 287 290
f 289 290 291
f 290 287 286
f 290 286 292
f 293 283 284
f 293 284 294
f 293 282 275
f 293 275 283
f 284 197 205
f 284 205 294
f 285 282 293
f 285 293 295
f 295 293 294
f 295 294 296
f 295 292 286
f 295 286 285
f 297 292 295
f 297 295 296
f 298 290 292
f 298 292 297
f 299 291 290
f 299 290 298
f 207 193 192
f 207 192 300
f 301 206 199
f 301 199 207
f 302 204 206
f 302 206 301
f 303 304 204
f 303 204 302
f 305 208 82
f 305 82 306
f 307 99 304
f 307 304 303
f 308 307 303
f 308 303 309
f 308 309 305
f 308 305 306
f 310 72 80
f 310 80 100
f 306 82 58
f 306 58 311
f 310 100 99
f 310 99 307
f 308 306 311
f 308 311 312
f 310 307 308
f 310 308 312
f 71 72 310
f 71 310 313
f 311 58 57
f 311 57 314
f 312 311 314
f 312 314 315
f 313 310 312
f 313 312 315
f 314 57 56
f 314 56 316
f 64 71 313
f 64 313 317
f 318 317 313
f 318 313 315
f 318 315 314
f 318 314 316
f 316 56 54
f 316 54 319
f 65 64 317
f 65 317 320
f 321 320 317
f 321 317 318
f 321 318 316
f 321 316 319
f 319 54 55
f 319 55 322
f 323 67 65
f 323 65 320
f 324 323 320
f 324 320 321
f 324 321 319
f 324 319 322
f 325 323 324
f 325 324 326
f 326 324 322
f 326 322 327
f 327 322 55
f 327 55 328
f 328 55 51
f 328 51 329
f 329 51 46
f 329 46 330
f 330 46 45
f 330 45 331
f 331 45 48
f 331 48 332
f 332 48 49
f 332 49 333
f 333 49 62
f 333 62 334
f 335 334 62
f 335 62 68
f 336 67 323
f 336 323 325
f 336 335 68
f 336 68 67
f 337 326 327
f 337 327 338
f 339 325 326
f 339 326 337
f 336 325 339
f 336 339 340
f 341 335 336
f 341 336 340
f 342 334 335
f 342 335 341
f 343 333 334
f 343 334 342
f 344 332 333
f 344 333 343
f 345 331 332
f 345 332 344
f 346 330 331
f 346 331 345
f 347 329 330
f 347 330 346
f 348 338 327
f 348 327 328
f 348 328 329
f 348 329 347
f 349 339 337
f 349 337 350
f 350 337 338
f 350 338 351
f 351 338 348
f 351 348 352
f 352 348 347
f 352 347 353
f 346 345 354
f 346 354 355
f 353 347 346
f 353 346 355
f 356 352 353
f 356 353 355
f 356 350 351
f 356 351 352
f 340 339 349
f 340 349 357
f 358 341 340
f 358 340 357
f 359 343 342
f 359 342 360
f 361 349 350
f 361 350 356
f 356 355 354
f 356 354 361
f 342 341 358
f 342 358 360
f 362 359 360
f 362 360 363
f 344 343 359
f 344 359 362
f 354 345 344
f 354 344 362
f 363 361 354
f 363 354 362
f 357 349 361
f 357 361 363
f 360 358 357
f 360 357 363
f 364 90 92
f 364 92 365
f 20 19 90
f 20 90 364
f 366 20 364
f 366 364 365
f 367 21 20
f 367 20 366
f 86 22 21
f 86 21 367
f 368 83 86
f 368 86 367
f 365 92 94
f 365 94 369
f 368 367 366
f 368 366 370
f 370 366 365
f 370 365 369
f 371 35 41
f 371 41 372
f 373 36 35
f 373 35 371
f 96 36 373
f 96 373 374
f 369 94 96
f 369 96 374
f 372 41 81
f 372 81 375
f 375 81 83
f 375 83 368
f 376 371 372
f 376 372 375
f 375 368 370
f 375 370 376
f 376 370 369
f 376 369 374
f 374 373 371
f 374 371 376
f 187 186 274
f 187 274 377
f 377 274 277
f 377 277 378
f 188 187 377
f 188 377 379
f 3 2 380
f 3 380 381
f 382 381 380
f 382 380 383
f 380 2 384
f 380 384 385
f 383 380 385
f 383 385 386
f 387 377 378
f 387 378 388
f 389 379 377
f 389 377 387
f 390 391 392
f 390 392 382
f 387 388 391
f 387 391 390
f 390 393 389
f 390 389 387
f 394 390 382
f 394 382 383
f 393 390 394
f 393 394 395
f 396 394 383
f 396 383 386
f 397 395 394
f 397 394 396
f 398 5 10
f 398 10 399
f 399 10 12
f 399 12 400
f 400 12 14
f 400 14 401
f 402 16 17
f 402 17 403
f 401 14 16
f 401 16 402
f 404 401 402
f 404 402 405
f 400 401 404
f 400 404 406
f 399 400 406
f 399 406 407
f 398 399 407
f 398 407 408
f 409 405 402
f 409 402 403
f 403 17 410
f 403 410 411
f 412 413 397
f 412 397 396
f 414 398 408
f 414 408 415
f 412 396 386
f 412 386 416
f 415 417 418
f 415 418 414
f 419 413 412
f 419 412 420
f 420 418 417
f 420 417 419
f 420 412 416
f 420 416 421
f 414 418 420
f 414 420 421
f 422 5 398
f 422 398 414
f 416 386 385
f 416 385 423
f 421 416 423
f 421 423 424
f 422 414 421
f 422 421 424
f 6 5 422
f 6 422 425
f 423 385 384
f 423 384 426
f 424 423 426
f 424 426 427
f 425 422 424
f 425 424 427
f 428 271 272
f 428 272 429
f 430 276 271
f 430 271 428
f 277 276 430
f 277 430 431
f 378 277 431
f 378 431 432
f 388 378 432
f 388 432 433
f 391 388 433
f 391 433 434
f 392 391 434
f 392 434 435
f 436 392 435
f 436 435 437
f 438 430 428
f 438 428 439
f 428 429 440
f 428 440 439
f 440 429 441
f 440 441 442
f 443 438 439
f 443 439 444
f 431 430 438
f 431 438 443
f 445 432 431
f 445 431 443
f 444 439 440
f 444 440 442
f 446 447 437
f 446 437 448
f 444 442 449
f 444 449 450
f 448 437 435
f 448 435 451
f 435 434 452
f 435 452 451
f 450 449 446
f 450 446 453
f 450 445 443
f 450 443 444
f 433 432 445
f 433 445 454
f 454 445 450
f 454 450 453
f 452 434 433
f 452 433 454
f 453 451 452
f 453 452 454
f 446 448 451
f 446 451 453
f 455 382 392
f 455 392 436
f 456 59 53
f 456 53 457
f 441 429 272
f 441 272 458
f 458 69 59
f 458 59 456
f 272 75 69
f 272 69 458
f 459 436 437
f 459 437 447
f 460 4 3
f 460 3 461
f 30 4 460
f 30 460 462
f 24 30 462
f 24 462 463
f 457 53 24
f 457 24 463
f 458 456 457
f 458 457 464
f 464 465 466
f 464 466 458
f 461 3 381
f 461 381 467
f 467 381 382
f 467 382 455
f 462 460 461
f 462 461 468
f 469 436 459
f 469 459 470
f 467 455 436
f 467 436 469
f 469 470 471
f 469 471 468
f 468 461 467
f 468 467 469
f 470 459 466
f 470 466 465
f 470 465 464
f 470 464 471
f 463 462 468
f 463 468 471
f 464 457 463
f 464 463 471
f 192 191 209
f 192 209 300
f 300 209 472
f 300 472 473
f 473 301 207
f 473 207 300
f 208 305 474
f 208 474 472
f 209 190 208
f 209 208 472
f 475 147 149
f 475 149 476
f 477 478 479
f 477 479 475
f 477 475 476
f 477 476 480
f 478 205 204
f 478 204 479
f 297 296 294
f 297 294 481
f 482 483 299
f 482 299 298
f 481 294 205
f 481 205 478
f 481 478 477
f 481 477 482
f 481 482 298
f 481 298 297
f 482 477 480
f 482 480 483
f 479 204 304
f 479 304 484
f 485 134 147
f 485 147 475
f 484 304 99
f 484 99 98
f 484 98 131
f 484 131 486
f 484 486 487
f 484 487 485
f 484 485 475
f 484 475 479
f 487 135 134
f 487 134 485
f 128 129 488
f 128 488 489
f 490 130 128
f 490 128 489
f 131 130 490
f 131 490 491
f 492 491 490
f 492 490 489
f 493 487 486
f 493 486 494
f 486 131 491
f 486 491 494
f 495 132 135
f 495 135 496
f 497 494 491
f 497 491 492
f 496 493 494
f 496 494 497
f 135 487 493
f 135 493 496
f 136 132 495
f 136 495 498
f 499 120 136
f 499 136 498
f 500 124 120
f 500 120 499
f 501 495 496
f 501 496 497
f 498 495 501
f 498 501 502
f 500 499 498
f 500 498 502
f 503 127 126
f 503 126 504
f 505 501 497
f 505 497 492
f 126 124 500
f 126 500 504
f 492 489 488
f 492 488 505
f 506 179 127
f 506 127 503
f 504 500 502
f 504 502 507
f 488 129 179
f 488 179 506
f 506 503 504
f 506 504 507
f 507 505 488
f 507 488 506
f 502 501 505
f 502 505 507
f 508 232 230
f 508 230 509
f 233 232 508
f 233 508 510
f 234 233 510
f 234 510 511
f 512 510 508
f 512 508 509
f 235 234 511
f 235 511 513
f 514 236 235
f 514 235 513
f 237 236 514
f 237 514 515
f 511 510 512
f 511 512 516
f 517 515 514
f 517 514 513
f 517 513 511
f 517 511 516
f 466 459 447
f 466 447 518
f 441 458 466
f 441 466 518
f 518 447 446
f 518 446 449
f 449 442 441
f 449 441 518
f 519 473 472
f 519 472 474
f 309 303 302
f 309 302 519
f 519 302 301
f 519 301 473
f 519 474 305
f 519 305 309
f 520 521 522
f 520 522 523
f 524 525 520
f 524 520 523
f 526 527 528
f 526 528 522
f 522 521 529
f 522 529 526
f 528 527 530
f 528 530 531
f 531 532 533
f 531 533 528
f 521 520 534
f 521 534 535
f 536 537 529
f 536 529 521
f 535 538 536
f 535 536 521
f 520 525 539
f 520 539 534
f 540 541 527
f 540 527 526
f 526 529 542
f 526 542 540
f 527 541 543
f 527 543 530
f 537 544 542
f 537 542 529
f 540 542 545
f 540 545 541
f 542 544 546
f 542 546 545
f 545 547 543
f 545 543 541
f 530 543 548
f 530 548 549
f 549 550 531
f 549 531 530
f 547 551 548
f 547 548 543
f 544 537 552
f 544 552 553
f 544 553 554
f 544 554 546
f 536 555 556
f 536 556 537
f 537 556 557
f 537 557 552
f 532 558 559
f 532 559 533
f 559 558 560
f 559 560 561
f 562 563 564
f 562 564 565
f 561 560 562
f 561 562 565
f 563 566 567
f 563 567 564
f 566 563 568
f 566 568 569
f 563 562 570
f 563 570 571
f 563 571 572
f 563 572 568
f 560 573 570
f 560 570 562
f 558 532 574
f 558 574 575
f 558 575 573
f 558 573 560
f 532 531 550
f 532 550 574
f 576 577 574
f 576 574 550
f 550 549 578
f 550 578 576
f 577 579 575
f 577 575 574
f 575 579 580
f 575 580 573
f 581 582 571
f 581 571 570
f 570 583 584
f 570 584 581
f 573 580 583
f 573 583 570
f 582 585 572
f 582 572 571
f 568 572 586
f 568 586 587
f 587 588 569
f 587 569 568
f 585 589 586
f 585 586 572
f 588 587 590
f 588 590 591
f 587 586 592
f 587 592 590
f 589 593 592
f 589 592 586
f 591 590 594
f 591 594 595
f 590 592 596
f 590 596 594
f 593 597 596
f 593 596 592
f 598 599 594
f 598 594 596
f 597 600 598
f 597 598 596
f 599 601 595
f 599 595 594
f 602 603 599
f 602 599 598
f 604 605 606
f 604 606 607
f 607 606 608
f 607 608 609
f 607 610 611
f 607 611 604
f 612 613 610
f 612 610 607
f 609 614 612
f 609 612 607
f 605 615 616
f 605 616 606
f 606 616 617
f 606 617 608
f 556 555 618
f 556 618 619
f 556 619 620
f 556 620 557
f 615 621 622
f 615 622 616
f 616 622 623
f 616 623 624
f 616 624 625
f 616 625 617
f 622 621 626
f 622 626 627
f 622 627 628
f 622 628 623
f 610 629 630
f 610 630 611
f 613 631 629
f 613 629 610
f 629 632 633
f 629 633 630
f 631 634 632
f 631 632 629
f 632 635 636
f 632 636 633
f 634 637 635
f 634 635 632
f 635 638 639
f 635 639 636
f 637 640 638
f 637 638 635
f 638 641 642
f 638 642 639
f 640 643 641
f 640 641 638
f 644 645 642
f 644 642 641
f 643 646 644
f 643 644 641
f 633 636 639
f 633 639 647
f 647 648 630
f 647 630 633
f 639 642 645
f 639 645 647
f 648 649 611
f 648 611 630
f 649 605 604
f 649 604 611
f 649 621 615
f 649 615 605
f 538 650 555
f 538 555 536
f 645 644 627
f 645 627 626
f 645 626 648
f 645 648 647
f 646 628 627
f 646 627 644
f 626 621 649
f 626 649 648
f 651 652 624
f 651 624 623
f 623 628 653
f 623 653 654
f 654 655 651
f 654 651 623
f 652 656 625
f 652 625 624
f 628 646 657
f 628 657 653
f 646 643 658
f 646 658 657
f 643 640 659
f 643 659 658
f 660 659 640
f 660 640 637
f 637 634 661
f 637 661 660
f 634 631 662
f 634 662 661
f 631 613 663
f 631 663 662
f 613 612 664
f 613 664 665
f 665 200 663
f 665 663 613
f 612 614 666
f 612 666 664
f 525 524 667
f 525 667 668
f 668 669 539
f 668 539 525
f 670 671 672
f 670 672 673
f 617 625 671
f 617 671 670
f 670 673 674
f 670 674 650
f 650 538 617
f 650 617 670
f 675 676 672
f 675 672 671
f 671 625 656
f 671 656 675
f 677 678 673
f 677 673 672
f 676 679 677
f 676 677 672
f 678 680 674
f 678 674 673
f 618 555 650
f 618 650 674
f 681 682 619
f 681 619 618
f 618 674 680
f 618 680 681
f 682 683 620
f 682 620 619
f 552 557 684
f 552 684 685
f 685 686 553
f 685 553 552
f 557 620 687
f 557 687 684
f 620 683 688
f 620 688 687
f 553 686 689
f 553 689 554
f 538 535 608
f 538 608 617
f 535 534 609
f 535 609 608
f 534 539 614
f 534 614 609
f 614 539 669
f 614 669 666
f 688 683 690
f 688 690 691
f 688 691 692
f 688 692 693
f 693 694 687
f 693 687 688
f 682 695 690
f 682 690 683
f 691 690 696
f 691 696 697
f 697 698 692
f 697 692 691
f 690 695 699
f 690 699 696
f 681 700 695
f 681 695 682
f 695 700 701
f 695 701 699
f 700 681 680
f 700 680 702
f 700 702 703
f 700 703 701
f 678 704 702
f 678 702 680
f 702 704 705
f 702 705 703
f 677 706 704
f 677 704 678
f 704 706 707
f 704 707 705
f 679 708 706
f 679 706 677
f 706 708 709
f 706 709 707
f 708 679 710
f 708 710 711
f 708 711 712
f 708 712 709
f 679 676 713
f 679 713 710
f 694 714 684
f 694 684 687
f 714 715 685
f 714 685 684
f 715 689 686
f 715 686 685
f 676 675 716
f 676 716 713
f 675 656 717
f 675 717 716
f 656 652 718
f 656 718 717
f 652 651 719
f 652 719 718
f 720 721 693
f 720 693 692
f 698 722 720
f 698 720 692
f 693 721 723
f 693 723 694
f 724 725 721
f 724 721 720
f 722 726 724
f 722 724 720
f 721 725 727
f 721 727 723
f 711 710 725
f 711 725 724
f 726 712 711
f 726 711 724
f 710 713 727
f 710 727 725
f 727 728 729
f 727 729 723
f 713 716 728
f 713 728 727
f 728 730 731
f 728 731 729
f 716 717 730
f 716 730 728
f 730 732 733
f 730 733 731
f 717 718 732
f 717 732 730
f 734 735 733
f 734 733 732
f 736 737 734
f 736 734 732
f 718 719 736
f 718 736 732
f 738 739 731
f 738 731 733
f 735 740 738
f 735 738 733
f 739 714 729
f 739 729 731
f 714 694 723
f 714 723 729
f 741 742 739
f 741 739 738
f 740 743 741
f 740 741 738
f 742 715 714
f 742 714 739
f 744 745 689
f 744 689 715
f 715 742 741
f 715 741 744
f 689 745 746
f 689 746 747
f 747 748 749
f 747 749 689
f 689 749 750
f 689 750 554
f 743 751 744
f 743 744 741
f 751 752 745
f 751 745 744
f 745 752 753
f 745 753 746
f 752 751 754
f 752 754 755
f 752 755 756
f 752 756 753
f 751 743 757
f 751 757 758
f 758 759 754
f 758 754 751
f 743 740 760
f 743 760 757
f 740 735 761
f 740 761 760
f 735 734 762
f 735 762 761
f 737 763 762
f 737 762 734
f 764 765 755
f 764 755 754
f 754 759 766
f 754 766 764
f 756 755 767
f 756 767 768
f 756 768 769
f 756 769 770
f 770 771 753
f 770 753 756
f 772 773 767
f 772 767 755
f 765 774 772
f 765 772 755
f 768 767 775
f 768 775 776
f 768 776 777
f 768 777 769
f 767 773 778
f 767 778 775
f 758 757 779
f 758 779 780
f 758 780 781
f 758 781 759
f 757 760 782
f 757 782 779
f 760 761 783
f 760 783 782
f 761 762 784
f 761 784 785
f 761 785 786
f 761 786 783
f 762 763 787
f 762 787 784
f 788 789 737
f 788 737 736
f 719 790 788
f 719 788 736
f 651 655 790
f 651 790 719
f 789 791 763
f 789 763 737
f 763 791 792
f 763 792 787
f 793 794 655
f 793 655 654
f 654 653 795
f 654 795 793
f 655 794 796
f 655 796 790
f 653 657 658
f 653 658 795
f 658 659 797
f 658 797 795
f 659 660 798
f 659 798 797
f 660 661 799
f 660 799 798
f 661 662 663
f 661 663 799
f 200 203 799
f 200 799 663
f 665 664 774
f 665 774 800
f 665 800 801
f 665 801 200
f 664 666 772
f 664 772 774
f 802 202 789
f 802 789 788
f 790 796 802
f 790 802 788
f 202 803 791
f 202 791 789
f 804 805 792
f 804 792 791
f 803 806 804
f 803 804 791
f 784 787 807
f 784 807 808
f 808 809 785
f 808 785 784
f 787 792 810
f 787 810 807
f 809 811 786
f 809 786 785
f 812 813 783
f 812 783 786
f 811 814 812
f 811 812 786
f 783 813 815
f 783 815 782
f 816 817 813
f 816 813 812
f 814 818 816
f 814 816 812
f 813 817 819
f 813 819 815
f 817 816 820
f 817 820 821
f 817 821 822
f 817 822 819
f 818 823 820
f 818 820 816
f 821 820 824
f 821 824 825
f 825 826 822
f 825 822 821
f 823 827 824
f 823 824 820
f 782 815 828
f 782 828 779
f 815 819 829
f 815 829 828
f 819 822 830
f 819 830 831
f 831 832 829
f 831 829 819
f 826 833 830
f 826 830 822
f 834 835 828
f 834 828 829
f 829 832 836
f 829 836 834
f 835 837 779
f 835 779 828
f 838 839 832
f 838 832 831
f 831 830 840
f 831 840 838
f 839 841 836
f 839 836 832
f 833 842 840
f 833 840 830
f 779 837 843
f 779 843 780
f 792 805 844
f 792 844 810
f 834 836 845
f 834 845 846
f 846 847 835
f 846 835 834
f 836 841 848
f 836 848 845
f 837 835 847
f 837 847 849
f 849 850 843
f 849 843 837
f 780 843 851
f 780 851 852
f 780 852 853
f 780 853 781
f 850 854 851
f 850 851 843
f 838 840 855
f 838 855 856
f 838 856 857
f 838 857 839
f 842 858 855
f 842 855 840
f 859 860 856
f 859 856 855
f 855 858 861
f 855 861 859
f 860 862 857
f 860 857 856
f 839 857 863
f 839 863 841
f 864 865 863
f 864 863 857
f 862 866 864
f 862 864 857
f 841 863 867
f 841 867 848
f 863 865 868
f 863 868 867
f 865 864 869
f 865 869 870
f 865 870 871
f 865 871 868
f 866 872 869
f 866 869 864
f 870 869 873
f 870 873 874
f 870 874 875
f 870 875 871
f 872 876 873
f 872 873 869
f 874 873 877
f 874 877 878
f 874 878 879
f 874 879 875
f 876 880 877
f 876 877 873
f 877 852 851
f 877 851 878
f 878 851 854
f 878 854 879
f 852 877 880
f 852 880 853
f 881 882 858
f 881 858 842
f 833 883 881
f 833 881 842
f 858 882 884
f 858 884 861
f 882 881 885
f 882 885 886
f 882 886 887
f 882 887 884
f 883 888 885
f 883 885 881
f 886 885 889
f 886 889 890
f 886 890 891
f 886 891 887
f 885 888 892
f 885 892 889
f 826 825 893
f 826 893 894
f 826 894 895
f 826 895 833
f 825 824 896
f 825 896 893
f 827 897 896
f 827 896 824
f 898 899 893
f 898 893 896
f 900 901 898
f 900 898 896
f 897 902 900
f 897 900 896
f 899 903 894
f 899 894 893
f 894 903 904
f 894 904 895
f 905 906 899
f 905 899 898
f 898 901 907
f 898 907 905
f 906 908 903
f 906 903 899
f 903 908 909
f 903 909 904
f 910 911 901
f 910 901 900
f 902 912 910
f 902 910 900
f 901 911 913
f 901 913 907
f 911 910 914
f 911 914 915
f 911 915 916
f 911 916 913
f 912 917 914
f 912 914 910
f 805 804 915
f 805 915 914
f 917 844 805
f 917 805 914
f 915 804 806
f 915 806 916
f 803 202 201
f 803 201 918
f 918 919 806
f 918 806 803
f 920 921 922
f 920 922 923
f 202 802 924
f 202 924 203
f 925 926 916
f 925 916 806
f 806 919 927
f 806 927 925
f 926 928 913
f 926 913 916
f 928 929 907
f 928 907 913
f 929 930 905
f 929 905 907
f 930 908 906
f 930 906 905
f 930 931 909
f 930 909 908
f 897 827 932
f 897 932 902
f 827 823 933
f 827 933 932
f 823 818 814
f 823 814 933
f 811 809 934
f 811 934 935
f 935 933 814
f 935 814 811
f 809 808 807
f 809 807 934
f 807 810 936
f 807 936 934
f 810 844 917
f 810 917 936
f 917 912 937
f 917 937 936
f 912 902 932
f 912 932 937
f 833 895 938
f 833 938 883
f 895 904 939
f 895 939 938
f 904 909 940
f 904 940 939
f 909 931 941
f 909 941 940
f 942 888 883
f 942 883 938
f 938 939 943
f 938 943 942
f 944 945 927
f 944 927 919
f 919 918 946
f 919 946 944
f 929 947 931
f 929 931 930
f 948 941 931
f 948 931 947
f 949 950 941
f 949 941 948
f 950 951 940
f 950 940 941
f 939 940 951
f 939 951 943
f 888 942 952
f 888 952 892
f 942 943 953
f 942 953 952
f 943 951 954
f 943 954 953
f 951 950 949
f 951 949 954
f 955 946 918
f 955 918 201
f 200 801 955
f 200 955 201
f 956 957 921
f 956 921 920
f 666 669 773
f 666 773 772
f 669 668 778
f 669 778 773
f 668 667 958
f 668 958 778
f 801 800 959
f 801 959 955
f 800 774 765
f 800 765 959
f 778 958 960
f 778 960 961
f 961 962 775
f 961 775 778
f 963 964 946
f 963 946 955
f 955 959 965
f 955 965 963
f 964 966 944
f 964 944 946
f 966 967 945
f 966 945 944
f 796 968 924
f 796 924 802
f 794 793 968
f 794 968 796
f 795 797 968
f 795 968 793
f 797 798 924
f 797 924 968
f 798 799 203
f 798 203 924
f 860 969 866
f 860 866 862
f 866 969 970
f 866 970 872
f 860 859 971
f 860 971 969
f 859 861 972
f 859 972 971
f 861 884 973
f 861 973 972
f 884 887 974
f 884 974 973
f 887 891 975
f 887 975 974
f 976 977 974
f 976 974 975
f 977 978 973
f 977 973 974
f 978 979 972
f 978 972 973
f 979 980 971
f 979 971 972
f 980 981 969
f 980 969 971
f 981 982 970
f 981 970 969
f 970 983 876
f 970 876 872
f 983 984 880
f 983 880 876
f 880 984 985
f 880 985 853
f 982 981 980
f 982 980 986
f 980 979 987
f 980 987 986
f 979 978 988
f 979 988 987
f 978 977 976
f 978 976 988
f 854 850 989
f 854 989 990
f 990 875 879
f 990 879 854
f 850 849 847
f 850 847 989
f 990 991 871
f 990 871 875
f 991 867 868
f 991 868 871
f 991 992 848
f 991 848 867
f 992 846 845
f 992 845 848
f 992 989 847
f 992 847 846
f 989 992 991
f 989 991 990
f 759 781 993
f 759 993 766
f 962 994 776
f 962 776 775
f 776 994 995
f 776 995 777
f 994 962 996
f 994 996 997
f 994 997 998
f 994 998 995
f 961 578 996
f 961 996 962
f 999 1000 997
f 999 997 996
f 578 549 999
f 578 999 996
f 997 1000 1001
f 997 1001 998
f 1000 999 551
f 1000 551 1002
f 1000 1002 1003
f 1000 1003 1001
f 549 548 551
f 549 551 999
f 1002 551 1004
f 1002 1004 1005
f 1002 1005 1006
f 1002 1006 1003
f 547 1007 1004
f 547 1004 551
f 1005 1004 749
f 1005 749 748
f 1005 748 1008
f 1005 1008 1006
f 1007 750 749
f 1007 749 1004
f 748 747 1009
f 748 1009 1008
f 747 746 1010
f 747 1010 1009
f 746 753 771
f 746 771 1010
f 985 993 781
f 985 781 853
f 765 764 965
f 765 965 959
f 764 766 1011
f 764 1011 965
f 766 993 1012
f 766 1012 1011
f 993 985 1013
f 993 1013 1012
f 964 963 965
f 964 965 1011
f 1011 1012 966
f 1011 966 964
f 1013 967 966
f 1013 966 1012
f 1014 1015 712
f 1014 712 726
f 726 722 1016
f 726 1016 1014
f 1015 1017 709
f 1015 709 712
f 1017 1018 707
f 1017 707 709
f 1018 1019 705
f 1018 705 707
f 1019 1020 703
f 1019 703 705
f 1020 1021 701
f 1020 701 703
f 1021 1022 699
f 1021 699 701
f 1022 1023 696
f 1022 696 699
f 1023 1024 697
f 1023 697 696
f 1024 1025 698
f 1024 698 697
f 1025 1016 722
f 1025 722 698
f 1026 1015 1014
f 1026 1014 1027
f 1027 1014 1016
f 1027 1016 1028
f 1028 1022 1021
f 1028 1021 1027
f 1027 1021 1020
f 1027 1020 1026
f 1017 1015 1026
f 1017 1026 1018
f 1016 1025 1024
f 1016 1024 1028
f 1024 1023 1022
f 1024 1022 1028
f 1020 1019 1018
f 1020 1018 1026
f 961 960 1029
f 961 1029 578
f 1029 1030 576
f 1029 576 578
f 1030 1031 577
f 1030 577 576
f 577 1031 1032
f 577 1032 579
f 579 1032 1033
f 579 1033 580
f 1033 584 583
f 1033 583 580
f 1034 1035 1006
f 1034 1006 1008
f 1008 1009 1036
f 1008 1036 1034
f 1035 1001 1003
f 1035 1003 1006
f 1009 1010 771
f 1009 771 1036
f 771 770 769
f 771 769 1036
f 769 777 1034
f 769 1034 1036
f 777 995 1035
f 777 1035 1034
f 995 998 1001
f 995 1001 1035
f 545 546 1007
f 545 1007 547
f 546 554 750
f 546 750 1007
f 937 935 934
f 937 934 936
f 932 933 935
f 932 935 937
f 1037 523 522
f 1037 522 1038
f 1039 2 1
f 1039 1 1038
f 1039 1038 522
f 1039 522 528
f 1040 384 2
f 1040 2 1039
f 1040 1039 528
f 1040 528 533
f 1041 1042 564
f 1041 564 567
f 1042 1043 565
f 1042 565 564
f 1041 7 6
f 1041 6 1042
f 1041 567 566
f 1041 566 1044
f 1044 8 7
f 1044 7 1041
f 1044 566 569
f 1044 569 1045
f 1045 9 8
f 1045 8 1044
f 1045 569 588
f 1045 588 1046
f 1046 11 9
f 1046 9 1045
f 1046 588 591
f 1046 591 1047
f 1047 13 11
f 1047 11 1046
f 1047 591 595
f 1047 595 1048
f 1048 15 13
f 1048 13 1047
f 1048 595 601
f 1048 601 1049
f 1049 601 599
f 1049 599 1050
f 1049 18 15
f 1049 15 1048
f 1050 17 18
f 1050 18 1049
f 1050 599 603
f 1050 603 1051
f 1051 410 17
f 1051 17 1050
f 1051 603 1052
f 1051 1052 1053
f 1053 1054 410
f 1053 410 1051
f 1038 1 32
f 1038 32 1037
f 1055 524 523
f 1055 523 1037
f 1056 480 476
f 1056 476 1057
f 1058 926 925
f 1058 925 1057
f 1057 476 149
f 1057 149 1058
f 1059 928 926
f 1059 926 1058
f 1058 149 148
f 1058 148 1059
f 1060 929 928
f 1060 928 1059
f 1059 148 158
f 1059 158 1060
f 1061 947 929
f 1061 929 1060
f 1060 158 159
f 1060 159 1061
f 1062 948 947
f 1062 947 1061
f 1061 159 169
f 1061 169 1062
f 1063 949 948
f 1063 948 1062
f 1062 169 170
f 1062 170 1063
f 1063 170 171
f 1063 171 1064
f 1064 954 949
f 1064 949 1063
f 1064 171 172
f 1064 172 1065
f 1065 953 954
f 1065 954 1064
f 1065 172 174
f 1065 174 1066
f 952 953 1065
f 952 1065 1066
f 1066 174 176
f 1066 176 1067
f 892 952 1066
f 892 1066 1067
f 1067 176 178
f 1067 178 1068
f 889 892 1067
f 889 1067 1068
f 1037 32 183
f 1037 183 1055
f 1069 667 524
f 1069 524 1055
f 1055 183 188
f 1055 188 1069
f 1070 958 667
f 1070 667 1069
f 1057 925 927
f 1057 927 1056
f 1068 178 216
f 1068 216 1071
f 890 889 1068
f 890 1068 1071
f 1071 216 217
f 1071 217 1072
f 891 890 1071
f 891 1071 1072
f 1073 231 288
f 1073 288 1074
f 1073 983 970
f 1073 970 1075
f 1075 230 231
f 1075 231 1073
f 1075 970 982
f 1075 982 1076
f 1072 217 237
f 1072 237 1077
f 975 891 1072
f 975 1072 1077
f 1074 984 983
f 1074 983 1073
f 1078 483 480
f 1078 480 1056
f 1078 1056 927
f 1078 927 945
f 1079 299 483
f 1079 483 1078
f 1079 1078 945
f 1079 945 967
f 1074 288 289
f 1074 289 1080
f 1080 289 291
f 1080 291 1081
f 985 984 1074
f 985 1074 1080
f 1081 1013 985
f 1081 985 1080
f 1081 291 299
f 1081 299 1079
f 1081 1079 967
f 1081 967 1013
f 1069 188 379
f 1069 379 1070
f 1082 960 958
f 1082 958 1070
f 1070 379 389
f 1070 389 1082
f 1083 1029 960
f 1083 960 1082
f 1082 389 393
f 1082 393 1083
f 1084 1030 1029
f 1084 1029 1083
f 1083 393 395
f 1083 395 1084
f 1085 1031 1030
f 1085 1030 1084
f 1084 395 397
f 1084 397 1085
f 1086 1032 1031
f 1086 1031 1085
f 1085 397 413
f 1085 413 1086
f 1087 1033 1032
f 1087 1032 1086
f 1086 413 419
f 1086 419 1087
f 1088 584 1033
f 1088 1033 1087
f 1089 404 405
f 1089 405 1090
f 1090 405 409
f 1090 409 1091
f 1091 600 597
f 1091 597 1090
f 1089 593 589
f 1089 589 1092
f 1090 597 593
f 1090 593 1089
f 1092 406 404
f 1092 404 1089
f 1092 589 585
f 1092 585 1093
f 1093 407 406
f 1093 406 1092
f 1093 585 582
f 1093 582 1094
f 1094 408 407
f 1094 407 1093
f 1094 582 581
f 1094 581 1095
f 1088 417 415
f 1088 415 1095
f 1087 419 417
f 1087 417 1088
f 1095 581 584
f 1095 584 1088
f 1095 415 408
f 1095 408 1094
f 1096 426 384
f 1096 384 1040
f 1096 1040 533
f 1096 533 559
f 1042 6 425
f 1042 425 1043
f 1043 425 427
f 1043 427 1097
f 1097 561 565
f 1097 565 1043
f 1097 427 426
f 1097 426 1096
f 1097 1096 559
f 1097 559 561
f 1076 509 230
f 1076 230 1075
f 1076 982 986
f 1076 986 1098
f 1098 512 509
f 1098 509 1076
f 1098 986 987
f 1098 987 1099
f 1077 237 515
f 1077 515 1100
f 976 975 1077
f 976 1077 1100
f 1099 516 512
f 1099 512 1098
f 1101 517 516
f 1101 516 1099
f 1099 987 988
f 1099 988 1101
f 1100 515 517
f 1100 517 1101
f 988 976 1100
f 988 1100 1101
f 956 600 1091
f 956 1091 957
f 957 1091 409
f 957 409 1102
f 1103 411 410
f 1103 410 1054
f 1103 1054 1053
f 1103 1053 922
f 1052 603 602
f 1052 602 923
f 922 1053 1052
f 922 1052 923
f 409 403 411
f 409 411 1102
f 1102 411 1103
f 1102 1103 1104
f 1104 921 957
f 1104 957 1102
f 1103 922 921
f 1103 921 1104
f 956 602 598
f 956 598 600
f 920 923 602
f 920 602 956
