# T9 posed
v -0.438421 -0.019644 0.465090
v -0.433853 -0.021082 0.466852
v -0.431861 -0.017082 0.464662
v -0.435393 -0.016490 0.464308
v -0.421228 -0.024604 0.474493
v -0.423613 -0.025647 0.475285
v -0.422987 -0.026467 0.476076
v -0.421476 -0.026146 0.476343
v -0.419575 -0.026582 0.477824
v -0.418292 -0.025132 0.476170
v -0.418099 -0.027051 0.479195
v -0.416058 -0.025726 0.477711
v -0.416683 -0.027548 0.480350
v -0.414624 -0.026162 0.478897
v -0.413947 -0.027742 0.481787
v -0.412383 -0.026216 0.480377
v -0.410115 -0.026920 0.481582
v -0.411906 -0.028091 0.482370
v -0.459821 -0.010927 0.460287
v -0.457392 -0.011581 0.460490
v -0.456891 -0.010172 0.461222
v -0.458251 -0.008959 0.461315
v -0.440671 -0.010121 0.464830
v -0.437381 -0.009313 0.464906
v -0.439835 -0.004806 0.466510
v -0.441849 -0.005820 0.466762
v -0.443236 -0.009756 0.464199
v -0.444212 -0.006078 0.466347
v -0.440294 -0.015276 0.463327
v -0.436965 -0.013289 0.463894
v -0.442748 -0.014049 0.462300
v -0.442175 -0.022051 0.464235
v -0.442792 -0.019504 0.462406
v -0.444598 -0.013270 0.461551
v -0.446322 -0.012909 0.460920
v -0.447499 -0.015917 0.459115
v -0.445199 -0.016645 0.460058
v -0.443922 -0.017760 0.461016
v -0.446157 -0.005515 0.465342
v -0.445390 -0.008869 0.462935
v -0.446826 -0.009533 0.461570
v -0.444911 -0.003221 0.468486
v -0.442528 -0.002844 0.468944
v -0.446931 -0.002862 0.467417
v -0.443400 0.002444 0.472807
v -0.446063 0.001934 0.472338
v -0.440687 -0.002079 0.468317
v -0.441008 0.002010 0.471617
v -0.439711 0.001679 0.468662
v -0.439814 -0.000875 0.466804
v -0.448281 0.001255 0.470914
v -0.438782 -0.002846 0.465605
v -0.436778 -0.005128 0.465097
v -0.447762 -0.002349 0.466248
v -0.449379 0.000350 0.468764
v -0.447108 -0.004265 0.464259
v -0.446666 -0.006268 0.462464
v -0.447610 -0.007089 0.460857
v -0.437009 -0.003971 0.464020
v -0.439146 -0.001796 0.464461
v -0.440054 -0.000007 0.465268
v -0.440067 0.001580 0.466019
v -0.440665 -0.001701 0.462925
v -0.442994 -0.000866 0.461697
v -0.443158 0.000222 0.463076
v -0.441295 -0.000002 0.463824
v -0.443177 0.001087 0.463983
v -0.441295 0.001364 0.464518
v -0.437546 -0.004397 0.462775
v -0.440770 -0.002689 0.461147
v -0.442878 -0.002018 0.459912
v -0.442401 -0.003652 0.458095
v -0.440397 -0.004153 0.459548
v -0.438981 -0.004294 0.461718
v -0.436950 -0.006866 0.461614
v -0.438622 -0.005459 0.460702
v -0.436778 -0.009017 0.459427
v -0.437810 -0.006571 0.459109
v -0.439601 -0.005573 0.457956
v -0.441847 -0.004960 0.456443
v -0.449779 -0.008460 0.461707
v -0.450092 -0.006897 0.460339
v -0.453023 -0.007838 0.461862
v -0.452921 -0.006794 0.460261
v -0.455305 -0.006909 0.460166
v -0.455779 -0.007779 0.461718
v -0.457628 -0.007927 0.459751
v -0.459427 -0.009972 0.458835
v -0.459033 -0.012955 0.457480
v -0.459504 -0.013849 0.459181
v -0.456869 -0.015126 0.456481
v -0.457430 -0.015872 0.458127
v -0.453645 -0.015925 0.456262
v -0.453861 -0.016644 0.457592
v -0.449889 -0.015908 0.456399
v -0.450424 -0.016445 0.458133
v -0.447117 -0.017033 0.457435
v -0.446820 -0.007199 0.453258
v -0.446943 -0.006872 0.454995
v -0.444543 -0.005578 0.455540
v -0.444552 -0.006010 0.454030
v -0.441463 -0.005595 0.453994
v -0.438461 -0.006546 0.456047
v -0.438649 -0.002339 0.446291
v -0.438123 -0.004182 0.450156
v -0.435258 -0.005137 0.452255
v -0.435671 -0.002706 0.446507
v -0.439213 -0.005332 0.452742
v -0.436835 -0.006609 0.454679
v -0.436556 -0.007591 0.456514
v -0.432205 -0.003022 0.449791
v -0.432177 -0.004928 0.453862
v -0.433708 -0.007620 0.455639
v -0.433632 -0.000081 0.442418
v -0.431113 -0.001131 0.446244
v -0.430726 0.001227 0.440101
v -0.428877 0.000173 0.443761
v -0.441341 0.000037 0.443278
v -0.439699 0.000121 0.441441
v -0.446733 -0.000239 0.443847
v -0.446198 0.000692 0.440429
v -0.447259 -0.001076 0.438766
v -0.447389 -0.002027 0.441776
v -0.445001 0.000677 0.443936
v -0.443817 0.001145 0.441324
v -0.443004 0.000175 0.444690
v -0.441378 -0.001313 0.446431
v -0.442642 -0.005235 0.452104
v -0.440936 -0.004134 0.450588
v -0.444995 -0.005802 0.452845
v -0.447238 -0.006668 0.452333
v -0.448193 -0.004641 0.445854
v -0.447516 -0.006167 0.443981
v -0.448119 -0.007899 0.445619
v -0.448728 -0.006271 0.447331
v -0.447694 -0.002468 0.444869
v -0.447475 -0.003796 0.442931
v -0.437152 0.001743 0.436819
v -0.432006 0.002613 0.433799
v -0.442668 0.001604 0.437662
v -0.445841 0.001505 0.435931
v -0.446987 -0.000162 0.434894
v -0.439988 0.002152 0.430300
v -0.433341 0.002762 0.427758
v -0.445006 0.001898 0.428260
v -0.446825 -0.007862 0.442188
v -0.447506 -0.009777 0.443713
v -0.446321 -0.011404 0.439474
v -0.447123 -0.012729 0.441637
v -0.446836 -0.002249 0.434326
v -0.447252 -0.002634 0.437443
v -0.447193 -0.003696 0.439181
v -0.446606 -0.004806 0.435272
v -0.446499 0.000387 0.428210
v -0.446321 -0.001839 0.428594
v -0.445976 -0.004671 0.429495
v -0.446898 -0.005483 0.440873
v -0.446068 -0.009432 0.436486
v -0.445679 -0.008943 0.430653
v -0.439800 0.001029 0.422855
v -0.433813 0.001589 0.422560
v -0.444506 0.000427 0.422503
v -0.446307 -0.000669 0.422849
v -0.446258 -0.002679 0.423421
v -0.445858 -0.005239 0.424552
v -0.446139 -0.006118 0.420359
v -0.446376 -0.004770 0.419308
v -0.446170 -0.002903 0.418676
v -0.445755 -0.008372 0.425584
v -0.446214 -0.007814 0.419335
v -0.446420 -0.006735 0.417676
v -0.446099 -0.005580 0.416246
v -0.444226 -0.002178 0.418182
v -0.444192 -0.005140 0.415784
v -0.439533 -0.001528 0.418560
v -0.439381 -0.004666 0.415865
v -0.433831 -0.000853 0.418404
v -0.433692 -0.004111 0.415401
v -0.440761 -0.002749 0.448531
v -0.445288 -0.018060 0.458436
v -0.444090 -0.019329 0.459589
v -0.443229 -0.020735 0.460593
v -0.442990 -0.022283 0.461635
v -0.445669 -0.016444 0.456597
v -0.443731 -0.017690 0.457400
v -0.442335 -0.018807 0.457481
v -0.441202 -0.019925 0.457952
v -0.440681 -0.021006 0.457794
v -0.454700 -0.007183 0.458853
v -0.453313 -0.007007 0.458712
v -0.456057 -0.007925 0.458573
v -0.457250 -0.009283 0.458030
v -0.456920 -0.011706 0.456956
v -0.455165 -0.013541 0.456004
v -0.452879 -0.014520 0.455699
v -0.450385 -0.014243 0.455426
v -0.449086 -0.013415 0.454490
v -0.447403 -0.015117 0.455740
v -0.453414 -0.012690 0.455542
v -0.448602 -0.028105 0.449717
v -0.448476 -0.027827 0.447817
v -0.449792 -0.030053 0.447291
v -0.451414 -0.029741 0.448867
v -0.450442 -0.010489 0.453647
v -0.448982 -0.012517 0.452792
v -0.452008 -0.011763 0.454707
v -0.454608 -0.010992 0.456463
v -0.451570 -0.006919 0.458476
v -0.454352 -0.007881 0.458110
v -0.427191 0.000331 0.438960
v -0.426852 -0.001283 0.442486
v -0.426873 0.002277 0.432668
v -0.427114 0.003025 0.427019
v -0.427555 0.001991 0.422459
v -0.427777 -0.000457 0.418364
v -0.428141 -0.003777 0.414842
v -0.426810 -0.005369 0.416098
v -0.426656 -0.002735 0.419018
v -0.427101 -0.000647 0.423087
v -0.427141 -0.000007 0.427146
v -0.426855 -0.000334 0.432365
v -0.427029 -0.001696 0.436857
v -0.426986 -0.002974 0.439578
v -0.426664 -0.004810 0.443185
v -0.427544 -0.005720 0.440746
v -0.428391 -0.008880 0.442019
v -0.427545 -0.007549 0.444970
v -0.428068 -0.009599 0.446554
v -0.429420 -0.011573 0.443695
v -0.428972 -0.011268 0.438986
v -0.429775 -0.013957 0.441807
v -0.428551 -0.006622 0.437149
v -0.428039 -0.004770 0.433338
v -0.428719 -0.004278 0.428526
v -0.429093 -0.004372 0.423996
v -0.428862 -0.005791 0.420808
v -0.428832 -0.007548 0.418944
v -0.427441 -0.008996 0.450787
v -0.429025 -0.011269 0.448529
v -0.426820 -0.007850 0.448990
v -0.426213 -0.005958 0.447372
v -0.425655 -0.003982 0.445834
v -0.426158 -0.001700 0.445792
v -0.427454 -0.000317 0.446880
v -0.429013 -0.001161 0.448733
v -0.429890 -0.002133 0.451459
v -0.430071 -0.003671 0.454739
v -0.429810 -0.006219 0.455916
v -0.428582 -0.005467 0.455103
v -0.428790 -0.007883 0.455317
v -0.428064 -0.006547 0.454673
v -0.428666 -0.003997 0.454112
v -0.428449 -0.002637 0.452029
v -0.428041 -0.001703 0.449994
v -0.427201 -0.001534 0.448873
v -0.426344 -0.002379 0.448008
v -0.426033 -0.003563 0.447932
v -0.426437 -0.004958 0.449504
v -0.427648 -0.003424 0.451434
v -0.426937 -0.004209 0.450516
v -0.427977 -0.005050 0.453399
v -0.426971 -0.006574 0.451233
v -0.427265 -0.007458 0.452011
v -0.427590 -0.007349 0.453279
v -0.427381 -0.005873 0.452372
v -0.428065 -0.009008 0.453138
v -0.435654 -0.009589 0.456526
v -0.430570 -0.011145 0.451550
v -0.432255 -0.009749 0.455115
v -0.430645 -0.013352 0.446231
v -0.435775 -0.010837 0.459540
v -0.434925 -0.008234 0.461144
v -0.441318 -0.016561 0.456602
v -0.439299 -0.018141 0.457826
v -0.443331 -0.015098 0.455716
v -0.437134 -0.014463 0.457404
v -0.435277 -0.016614 0.458171
v -0.437054 -0.012076 0.457118
v -0.436342 -0.011827 0.455173
v -0.435063 -0.012154 0.452591
v -0.433073 -0.013016 0.448935
v -0.440394 -0.014206 0.455274
v -0.445281 -0.013955 0.454862
v -0.446745 -0.013256 0.453907
v -0.439328 -0.013141 0.454735
v -0.438594 -0.012690 0.452945
v -0.436760 -0.012748 0.450305
v -0.431279 -0.015459 0.444714
v -0.435234 -0.014763 0.447060
v -0.439344 -0.013271 0.448969
v -0.439063 -0.015654 0.447261
v -0.440624 -0.012717 0.451478
v -0.443469 -0.013215 0.453873
v -0.446604 -0.012896 0.452618
v -0.442159 -0.012913 0.453096
v -0.444161 -0.012852 0.451924
v -0.443603 -0.012916 0.450447
v -0.443447 -0.013912 0.448391
v -0.443527 -0.016080 0.446955
v -0.454999 -0.009057 0.457578
v -0.452798 -0.010205 0.455903
v -0.450818 -0.009067 0.455405
v -0.448914 -0.007546 0.455670
v -0.448578 -0.008317 0.454365
v -0.449930 -0.006750 0.457608
v -0.448726 -0.006041 0.458570
v -0.447287 -0.006268 0.456151
v -0.447854 -0.005940 0.457136
v -0.449259 -0.006999 0.456643
v -0.444903 -0.004378 0.457414
v -0.447663 -0.005518 0.459651
v -0.446666 -0.004720 0.458261
v -0.445009 -0.002677 0.459834
v -0.446943 -0.004372 0.461548
v -0.446409 -0.003556 0.460540
v -0.446974 -0.002790 0.463206
v -0.445004 -0.001177 0.461748
v -0.446330 -0.001998 0.462414
v -0.447393 -0.001557 0.464936
v -0.445047 -0.000077 0.463169
v -0.446455 -0.000743 0.463898
v -0.448519 0.000006 0.466701
v -0.445211 0.000586 0.464188
v -0.446998 0.000077 0.465239
v -0.445298 0.001435 0.464524
v -0.447058 0.001136 0.465399
v -0.448954 0.001679 0.466766
v -0.449788 0.003265 0.469089
v -0.448745 0.004814 0.471113
v -0.446403 0.006169 0.472533
v -0.443447 0.006777 0.472772
v -0.440735 0.005968 0.471165
v -0.439434 0.004867 0.468357
v -0.439975 0.003988 0.465984
v -0.441587 0.003133 0.464540
v -0.443288 0.002245 0.464277
v -0.446690 0.001633 0.465916
v -0.448588 0.002771 0.466943
v -0.445068 0.001715 0.465357
v -0.443396 0.002688 0.465105
v -0.442119 0.003909 0.465230
v -0.440871 0.005197 0.466164
v -0.440311 0.006293 0.467892
v -0.441423 0.007109 0.470009
v -0.443928 0.007548 0.471242
v -0.446495 0.007037 0.471193
v -0.448426 0.005822 0.470260
v -0.449213 0.004423 0.468705
v -0.444693 0.001705 0.466328
v -0.446080 0.001745 0.466799
v -0.447366 0.002577 0.467336
v -0.447527 0.003482 0.468416
v -0.447233 0.004534 0.469493
v -0.443936 0.005161 0.470107
v -0.445728 0.004855 0.470026
v -0.445636 0.002643 0.468449
v -0.443412 0.002474 0.466074
v -0.442450 0.003453 0.466053
v -0.441398 0.004988 0.467983
v -0.441744 0.004185 0.467000
v -0.444184 0.002542 0.468269
v -0.442271 0.005131 0.469292
v -0.442941 0.003036 0.467785
v -0.457489 -0.013139 0.459720
v -0.456087 -0.014197 0.459024
v -0.455431 -0.011923 0.460299
v -0.455197 -0.009954 0.461287
v -0.452910 -0.009953 0.461640
v -0.453624 -0.015099 0.458627
v -0.453069 -0.012345 0.460362
v -0.449028 -0.012827 0.460749
v -0.448967 -0.011060 0.461597
v -0.449308 -0.014373 0.459664
v -0.451030 -0.015123 0.458989
v -0.450404 -0.010195 0.461809
v -0.450935 -0.012571 0.460580
v -0.438361 -0.019232 0.458268
v -0.432650 -0.017424 0.458686
v -0.437926 -0.020827 0.458263
v -0.428337 -0.018044 0.465256
v -0.427657 -0.016064 0.464388
v -0.424143 -0.015280 0.463625
v -0.424254 -0.016504 0.464365
v -0.430904 -0.022304 0.469400
v -0.426989 -0.019104 0.466688
v -0.423239 -0.017313 0.464960
v -0.432976 -0.018979 0.460895
v -0.429663 -0.017424 0.459181
v -0.435028 -0.020700 0.459492
v -0.428029 -0.018305 0.462295
v -0.425144 -0.016131 0.460488
v -0.422813 -0.013410 0.461897
v -0.433130 -0.020652 0.461957
v -0.426739 -0.018682 0.464215
v -0.430034 -0.021081 0.463881
v -0.424817 -0.019248 0.464993
v -0.426839 -0.021916 0.465488
v -0.417753 -0.023173 0.472573
v -0.415625 -0.024162 0.473994
v -0.413109 -0.024912 0.475462
v -0.411148 -0.025321 0.476709
v -0.409747 -0.025379 0.478290
v -0.408269 -0.025746 0.479492
v -0.410144 -0.025873 0.475666
v -0.408851 -0.025959 0.476997
v -0.412449 -0.025563 0.474567
v -0.415464 -0.025191 0.473543
v -0.418013 -0.024322 0.472166
v -0.408014 -0.026430 0.478226
v -0.408335 -0.027558 0.481469
v -0.407243 -0.026387 0.480024
v -0.421283 -0.020382 0.466208
v -0.422905 -0.022483 0.467158
v -0.419059 -0.021879 0.470328
v -0.419313 -0.023805 0.470755
v -0.420566 -0.018870 0.466235
v -0.420233 -0.024135 0.469991
v -0.419753 -0.022485 0.469210
v -0.421202 -0.023322 0.468686
v -0.420108 -0.021463 0.467929
v -0.419678 -0.020123 0.468365
v -0.421969 -0.022989 0.472484
v -0.424852 -0.020404 0.468584
v -0.423048 -0.021589 0.470640
v -0.424660 -0.024794 0.474463
v -0.428768 -0.023150 0.471500
v -0.426504 -0.024004 0.473263
v -0.433526 -0.011257 0.459094
v -0.432101 -0.008997 0.460230
v -0.433834 -0.013606 0.458422
v -0.432780 -0.015355 0.457540
v -0.430733 -0.016268 0.457144
v -0.427901 -0.016584 0.457663
v -0.424235 -0.015632 0.458555
v -0.422035 -0.012804 0.459813
v -0.422727 -0.010663 0.462610
v -0.422187 -0.010124 0.460717
v -0.431709 -0.013235 0.458200
v -0.431285 -0.011381 0.458763
v -0.430285 -0.009911 0.459689
v -0.429888 -0.007714 0.460627
v -0.428353 -0.009509 0.460292
v -0.430652 -0.014405 0.458111
v -0.429158 -0.011894 0.459258
v -0.429087 -0.014873 0.458063
v -0.425233 -0.010002 0.460949
v -0.424176 -0.007981 0.461170
v -0.423792 -0.010907 0.460678
v -0.426790 -0.009484 0.460710
v -0.427399 -0.012224 0.459765
v -0.423946 -0.012558 0.459849
v -0.424909 -0.014233 0.458739
v -0.425801 -0.012448 0.459901
v -0.427160 -0.014822 0.458234
v -0.424678 -0.013523 0.463827
v -0.434413 -0.005731 0.463739
v -0.434212 -0.006652 0.464934
v -0.433395 -0.006585 0.461813
v -0.424598 -0.007337 0.462594
v -0.433223 -0.014531 0.464488
v -0.430687 -0.014448 0.464795
v -0.433757 -0.012303 0.464531
v -0.434107 -0.009647 0.465114
v -0.432071 -0.006618 0.464008
v -0.429029 -0.006618 0.463397
v -0.428971 -0.006640 0.462275
v -0.427514 -0.013786 0.464644
v -0.430727 -0.011729 0.465119
v -0.426482 -0.010844 0.464655
v -0.427056 -0.008083 0.464150
v -0.431314 -0.009484 0.465157
v -0.452422 -0.007768 0.457661
v -0.452981 -0.008758 0.457059
v -0.450871 -0.007538 0.457137
v -0.449408 -0.011087 0.447536
v -0.448680 -0.014000 0.443805
v -0.449840 -0.012698 0.448075
v -0.448813 -0.012176 0.451084
v -0.449332 -0.010755 0.451376
v -0.449916 -0.015262 0.445300
v -0.446953 -0.012936 0.450781
v -0.447430 -0.013779 0.448477
v -0.447725 -0.016011 0.446308
v -0.448374 -0.009126 0.451657
v -0.448867 -0.009067 0.448507
v -0.448331 -0.007387 0.451093
v -0.448992 -0.007248 0.449140
v -0.442154 -0.004079 0.449501
v -0.443381 -0.004995 0.450878
v -0.444930 -0.005558 0.451677
v -0.446277 -0.006069 0.451378
v -0.444426 -0.005318 0.450075
v -0.447823 -0.006405 0.449270
v -0.447247 -0.006444 0.450465
v -0.446826 -0.004386 0.446820
v -0.447351 -0.005711 0.448099
v -0.445922 -0.005719 0.449022
v -0.446449 -0.002437 0.445843
v -0.445942 -0.000590 0.445191
v -0.444909 -0.000163 0.445250
v -0.445047 -0.004582 0.447493
v -0.444819 -0.002644 0.446190
v -0.442497 -0.001558 0.446432
v -0.443701 -0.000677 0.445558
v -0.443354 -0.004373 0.448481
v -0.442025 -0.002866 0.447676
v -0.443328 -0.002735 0.446689
v -0.428768 -0.009520 0.434521
v -0.428831 -0.011920 0.434993
v -0.428917 -0.008444 0.432243
v -0.429154 -0.007412 0.428981
v -0.429010 -0.011212 0.431700
v -0.429372 -0.007122 0.425319
v -0.429386 -0.007386 0.422702
v -0.429450 -0.008677 0.421744
v -0.429299 -0.010292 0.428203
v -0.429471 -0.009394 0.424764
v -0.427170 -0.007462 0.460957
v -0.450733 -0.008066 0.456468
v -0.442529 -0.027464 0.459822
v -0.439766 -0.031269 0.458131
v -0.438120 -0.028661 0.462160
v -0.442029 -0.026445 0.462810
v -0.442907 -0.024779 0.460824
v -0.443074 -0.025431 0.459068
v -0.434922 -0.030573 0.459734
v -0.431417 -0.030090 0.460433
v -0.433602 -0.028269 0.464513
v -0.436312 -0.033007 0.457489
v -0.427160 -0.030499 0.459692
v -0.427938 -0.029451 0.461543
v -0.426642 -0.029357 0.463357
v -0.430691 -0.028601 0.467359
v -0.443580 -0.028122 0.457650
v -0.442162 -0.031802 0.456532
v -0.439806 -0.036324 0.456315
v -0.436470 -0.036825 0.455967
v -0.442356 -0.036403 0.455538
v -0.443869 -0.026028 0.457413
v -0.432635 -0.032130 0.458771
v -0.430087 -0.032225 0.459020
v -0.433039 -0.033985 0.457485
v -0.426881 -0.032480 0.458567
v -0.433213 -0.036484 0.456379
v -0.429969 -0.034611 0.457681
v -0.430420 -0.036481 0.456380
v -0.425688 -0.034800 0.456868
v -0.424056 -0.032043 0.457804
v -0.423627 -0.030474 0.458684
v -0.423796 -0.029927 0.459998
v -0.421970 -0.033524 0.455181
v -0.435620 -0.040262 0.453691
v -0.433138 -0.038783 0.454469
v -0.431027 -0.038160 0.453750
v -0.440700 -0.040965 0.455351
v -0.438641 -0.041506 0.454602
v -0.437497 -0.042503 0.452747
v -0.424561 -0.029296 0.465704
v -0.428578 -0.029036 0.469598
v -0.422795 -0.029441 0.468102
v -0.426337 -0.029244 0.471574
v -0.421761 -0.029329 0.470435
v -0.421074 -0.029160 0.473020
v -0.423510 -0.028927 0.474228
v -0.424519 -0.029195 0.473046
v -0.421383 -0.029016 0.475415
v -0.422918 -0.028691 0.475359
v -0.418152 -0.029544 0.474748
v -0.419487 -0.029424 0.476904
v -0.418833 -0.028785 0.468093
v -0.417559 -0.028981 0.470694
v -0.415480 -0.028893 0.472479
v -0.419387 -0.029087 0.465461
v -0.422829 -0.029565 0.460979
v -0.420237 -0.028900 0.462982
v -0.426399 -0.028227 0.461100
v -0.424515 -0.028118 0.462112
v -0.427698 -0.027481 0.459303
v -0.421044 -0.027707 0.463837
v -0.419907 -0.027777 0.465890
v -0.419193 -0.027496 0.469563
v -0.417896 -0.027828 0.471033
v -0.419589 -0.027684 0.467534
v -0.420151 -0.026834 0.469126
v -0.415389 -0.027794 0.472715
v -0.413007 -0.029004 0.474165
v -0.415939 -0.029840 0.476395
v -0.418013 -0.029762 0.478321
v -0.412394 -0.027920 0.473827
v -0.414507 -0.030100 0.477643
v -0.416603 -0.029955 0.479579
v -0.411057 -0.029292 0.475453
v -0.410097 -0.028162 0.474947
v -0.412240 -0.030791 0.478907
v -0.413859 -0.030468 0.480912
v -0.409615 -0.030085 0.476783
v -0.408777 -0.028803 0.476090
v -0.408127 -0.030403 0.477991
v -0.409996 -0.030793 0.480335
v -0.407936 -0.029089 0.477370
v -0.411836 -0.030408 0.481627
v -0.407129 -0.030136 0.478815
v -0.408260 -0.030100 0.480652
v -0.448779 -0.030383 0.454460
v -0.448386 -0.032248 0.454431
v -0.445687 -0.032121 0.454671
v -0.447077 -0.028706 0.454959
v -0.443977 -0.032100 0.455431
v -0.444807 -0.028536 0.456194
v -0.450047 -0.027880 0.454418
v -0.450556 -0.029485 0.454321
v -0.446795 -0.026797 0.454263
v -0.449514 -0.027262 0.452709
v -0.445012 -0.026447 0.455711
v -0.448202 -0.034174 0.454085
v -0.445976 -0.035260 0.453208
v -0.444476 -0.036508 0.453952
v -0.441162 -0.044687 0.455353
v -0.439300 -0.044810 0.454442
v -0.438390 -0.044844 0.452532
v -0.449581 -0.035088 0.453729
v -0.448858 -0.036383 0.452632
v -0.449105 -0.036847 0.450588
v -0.446628 -0.036852 0.451181
v -0.445606 -0.038401 0.452021
v -0.452072 -0.035330 0.453398
v -0.452055 -0.037172 0.452328
v -0.451923 -0.037062 0.450414
v -0.453499 -0.027606 0.454030
v -0.453151 -0.029446 0.453964
v -0.453266 -0.027392 0.452538
v -0.457005 -0.028757 0.453945
v -0.455547 -0.030558 0.453719
v -0.456432 -0.028358 0.452185
v -0.458933 -0.031136 0.453578
v -0.456870 -0.031907 0.453639
v -0.458443 -0.030826 0.451676
v -0.459055 -0.034161 0.452743
v -0.456666 -0.033608 0.453336
v -0.458632 -0.034055 0.451014
v -0.457351 -0.036257 0.452440
v -0.456067 -0.035143 0.453102
v -0.456698 -0.036139 0.450590
v -0.454804 -0.037299 0.452122
v -0.454361 -0.035258 0.453065
v -0.454310 -0.037063 0.450368
v -0.454732 -0.033101 0.453418
v -0.452398 -0.032655 0.453761
v -0.450278 -0.032471 0.454110
v -0.443075 -0.040671 0.455108
v -0.447723 -0.036429 0.448693
v -0.446611 -0.037420 0.449283
v -0.452357 -0.036003 0.449282
v -0.450617 -0.035826 0.449068
v -0.448985 -0.035365 0.448307
v -0.445788 -0.039414 0.450163
v -0.453749 -0.036034 0.449480
v -0.455152 -0.035355 0.449664
v -0.456434 -0.034008 0.449998
v -0.456270 -0.031400 0.450558
v -0.454646 -0.029256 0.450903
v -0.452430 -0.028150 0.451274
v -0.449929 -0.028064 0.450936
v -0.445331 -0.026694 0.453267
v -0.446999 -0.027365 0.451761
v -0.443456 -0.026045 0.454686
v -0.440600 -0.023419 0.457010
v -0.441054 -0.024413 0.456494
v -0.442127 -0.025106 0.455435
v -0.444999 -0.040663 0.453920
v -0.445895 -0.041095 0.452292
v -0.446396 -0.043847 0.452764
v -0.445574 -0.044065 0.454023
v -0.443563 -0.044273 0.455144
v -0.445694 -0.041662 0.450580
v -0.446008 -0.043693 0.451253
v -0.447798 -0.047603 0.453180
v -0.446602 -0.049527 0.454398
v -0.447006 -0.046059 0.451741
v -0.444322 -0.050775 0.455193
v -0.441632 -0.051294 0.455335
v -0.439301 -0.050085 0.454685
v -0.438089 -0.048001 0.452523
v -0.437814 -0.042726 0.451185
v -0.435799 -0.040592 0.452129
v -0.433310 -0.038843 0.452962
v -0.438602 -0.044686 0.450767
v -0.438500 -0.046411 0.450433
v -0.432388 -0.036976 0.451937
v -0.437620 -0.050395 0.450399
v -0.438260 -0.048337 0.448984
v -0.439948 -0.046901 0.448283
v -0.439763 -0.045440 0.449313
v -0.439857 -0.043933 0.449555
v -0.438795 -0.053013 0.451991
v -0.438415 -0.051352 0.449157
v -0.439075 -0.049485 0.448393
v -0.440418 -0.047971 0.448369
v -0.439432 -0.053325 0.450365
v -0.441416 -0.054788 0.452756
v -0.441877 -0.054561 0.451054
v -0.444402 -0.054340 0.452857
v -0.444466 -0.054273 0.451260
v -0.446848 -0.052549 0.452459
v -0.446485 -0.052850 0.451181
v -0.448026 -0.050171 0.451722
v -0.447388 -0.050847 0.450738
v -0.447339 -0.047475 0.450800
v -0.446904 -0.048438 0.450305
v -0.445516 -0.045165 0.450549
v -0.445510 -0.046118 0.450054
v -0.445102 -0.046803 0.450179
v -0.445045 -0.043683 0.449954
v -0.439340 -0.042004 0.449834
v -0.436380 -0.039561 0.451353
v -0.445020 -0.041801 0.449486
v -0.445225 -0.039454 0.448877
v -0.445596 -0.037193 0.447708
v -0.446872 -0.035618 0.447491
v -0.441706 -0.046131 0.448559
v -0.441669 -0.045016 0.449005
v -0.441771 -0.046987 0.448963
v -0.441715 -0.043787 0.448778
v -0.443756 -0.045743 0.449199
v -0.443725 -0.044852 0.449430
v -0.443492 -0.046448 0.449707
v -0.443617 -0.043712 0.448995
v -0.443661 -0.041995 0.448487
v -0.441638 -0.042097 0.448300
v -0.443789 -0.039667 0.447815
v -0.441620 -0.040118 0.447532
v -0.443833 -0.036867 0.446856
v -0.441276 -0.037705 0.447030
v -0.443579 -0.034776 0.446049
v -0.440835 -0.035645 0.446469
v -0.446344 -0.034741 0.446897
v -0.446054 -0.033555 0.446324
v -0.439273 -0.038031 0.448532
v -0.439529 -0.040174 0.448964
v -0.438595 -0.035903 0.448093
v -0.437551 -0.037547 0.450261
v -0.437823 -0.039108 0.450400
v -0.436839 -0.035665 0.449640
v -0.435955 -0.036853 0.451874
v -0.434021 -0.035347 0.452323
v -0.431276 -0.034020 0.452086
v -0.428963 -0.035155 0.451719
v -0.426245 -0.035403 0.451882
v -0.427966 -0.036950 0.452432
v -0.428006 -0.037632 0.453318
v -0.435957 -0.033821 0.451368
v -0.435064 -0.032356 0.452541
v -0.432856 -0.031620 0.452473
v -0.436462 -0.030017 0.451298
v -0.436678 -0.028265 0.452931
v -0.433319 -0.029356 0.453314
v -0.435700 -0.033249 0.448179
v -0.434925 -0.031590 0.449387
v -0.435774 -0.029029 0.449585
v -0.437554 -0.033932 0.447150
v -0.440538 -0.033671 0.444869
v -0.443639 -0.033541 0.445080
v -0.445979 -0.032264 0.445114
v -0.438843 -0.027888 0.449941
v -0.439960 -0.027408 0.450981
v -0.438118 -0.027157 0.448241
v -0.434940 -0.026864 0.454849
v -0.432388 -0.027359 0.453640
v -0.430193 -0.028332 0.453584
v -0.431176 -0.029391 0.452950
v -0.430634 -0.031187 0.452321
v -0.440995 -0.026343 0.453424
v -0.439051 -0.025665 0.455378
v -0.442935 -0.027123 0.451808
v -0.432359 -0.026348 0.455779
v -0.430407 -0.026267 0.453896
v -0.428658 -0.027832 0.453849
v -0.438167 -0.024988 0.456396
v -0.432881 -0.032542 0.447545
v -0.431562 -0.030434 0.448415
v -0.434565 -0.027173 0.447715
v -0.435962 -0.032982 0.446117
v -0.438300 -0.033016 0.443752
v -0.444097 -0.033038 0.443989
v -0.441734 -0.032920 0.443099
v -0.439995 -0.032819 0.441264
v -0.446390 -0.032174 0.444044
v -0.448053 -0.033524 0.447227
v -0.447784 -0.032116 0.446630
v -0.448347 -0.034559 0.447688
v -0.447677 -0.029862 0.444923
v -0.447547 -0.030932 0.443444
v -0.451534 -0.034719 0.448902
v -0.449980 -0.034509 0.448375
v -0.453457 -0.035011 0.449294
v -0.449885 -0.033684 0.448147
v -0.454183 -0.033790 0.449545
v -0.453930 -0.031551 0.449789
v -0.452857 -0.029568 0.450063
v -0.444829 -0.027661 0.450409
v -0.446267 -0.027751 0.449197
v -0.450049 -0.032256 0.447871
v -0.448740 -0.028439 0.445633
v -0.448229 -0.028090 0.442330
v -0.448237 -0.029937 0.441769
v -0.448913 -0.025921 0.442719
v -0.445421 -0.032039 0.442936
v -0.444046 -0.032546 0.442901
v -0.442487 -0.032438 0.441952
v -0.446427 -0.031258 0.442399
v -0.441235 -0.032297 0.440326
v -0.439774 -0.032719 0.438792
v -0.437196 -0.032360 0.441001
v -0.441062 -0.032198 0.438143
v -0.434354 -0.032648 0.443309
v -0.440340 -0.032681 0.436237
v -0.437692 -0.031608 0.436776
v -0.441472 -0.032552 0.436360
v -0.434749 -0.031259 0.437212
v -0.441904 -0.032957 0.433924
v -0.440288 -0.031919 0.432896
v -0.438685 -0.030811 0.431388
v -0.442635 -0.032820 0.435112
v -0.443885 -0.033038 0.432980
v -0.442730 -0.031813 0.430615
v -0.441632 -0.029969 0.427404
v -0.443814 -0.033126 0.434537
v -0.431236 -0.033576 0.444541
v -0.431234 -0.032722 0.440113
v -0.436123 -0.029252 0.426747
v -0.432588 -0.030854 0.432405
v -0.430072 -0.032105 0.436151
v -0.439064 -0.025924 0.421178
v -0.428836 -0.034282 0.440996
v -0.429041 -0.034983 0.444558
v -0.427944 -0.033423 0.438229
v -0.428904 -0.033602 0.447021
v -0.429637 -0.030374 0.429823
v -0.427791 -0.031566 0.433430
v -0.430976 -0.027873 0.423890
v -0.426370 -0.032925 0.436266
v -0.432436 -0.024530 0.418894
v -0.427973 -0.031856 0.447560
v -0.447022 -0.030623 0.441400
v -0.426987 -0.033664 0.439596
v -0.427415 -0.034128 0.441788
v -0.427669 -0.034271 0.444273
v -0.426155 -0.033091 0.438608
v -0.427648 -0.033662 0.445946
v -0.427188 -0.032515 0.446263
v -0.427353 -0.029628 0.446484
v -0.430030 -0.027115 0.446391
v -0.432698 -0.024214 0.445309
v -0.426782 -0.031022 0.445628
v -0.425883 -0.026630 0.423266
v -0.426189 -0.028773 0.429496
v -0.425892 -0.029522 0.433302
v -0.426211 -0.023944 0.418264
v -0.426010 -0.024341 0.424551
v -0.426190 -0.025892 0.428988
v -0.426412 -0.021564 0.420139
v -0.426184 -0.026457 0.431943
v -0.425176 -0.031087 0.436231
v -0.425916 -0.027075 0.435946
v -0.424804 -0.029238 0.437620
v -0.426892 -0.024961 0.434493
v -0.425367 -0.031849 0.438420
v -0.425131 -0.030830 0.439063
v -0.426930 -0.025968 0.438992
v -0.425463 -0.028582 0.440023
v -0.425589 -0.030654 0.441153
v -0.427912 -0.023210 0.437367
v -0.427540 -0.025279 0.441482
v -0.426142 -0.028046 0.442451
v -0.426172 -0.030403 0.443516
v -0.429069 -0.022083 0.440288
v -0.428554 -0.025148 0.444048
v -0.426784 -0.028216 0.444583
v -0.426489 -0.030167 0.444676
v -0.430348 -0.022209 0.443363
v -0.433080 -0.020559 0.415366
v -0.426809 -0.020457 0.415173
v -0.439086 -0.020635 0.415817
v -0.426503 -0.018663 0.417235
v -0.433325 -0.016148 0.413435
v -0.427260 -0.016083 0.413288
v -0.426274 -0.014559 0.415174
v -0.439054 -0.016034 0.413847
v -0.433442 -0.011760 0.412915
v -0.427899 -0.011355 0.412377
v -0.426643 -0.010728 0.414354
v -0.439142 -0.011928 0.413504
v -0.445152 -0.031066 0.430110
v -0.444842 -0.029058 0.426003
v -0.444132 -0.024821 0.419580
v -0.445671 -0.032351 0.433412
v -0.444870 -0.032809 0.434719
v -0.446476 -0.029733 0.432773
v -0.446348 -0.028726 0.429781
v -0.446741 -0.031209 0.435530
v -0.446643 -0.028987 0.434746
v -0.445479 -0.031731 0.436323
v -0.446098 -0.027171 0.426119
v -0.445709 -0.023661 0.420397
v -0.446432 -0.026850 0.431657
v -0.446458 -0.026690 0.429627
v -0.446209 -0.026382 0.434081
v -0.446078 -0.025144 0.426887
v -0.445652 -0.022079 0.422018
v -0.447347 -0.030063 0.437594
v -0.446798 -0.027692 0.436988
v -0.445954 -0.030755 0.438251
v -0.446247 -0.025229 0.436547
v -0.447949 -0.029647 0.439737
v -0.447468 -0.027292 0.439321
v -0.447010 -0.024619 0.438893
v -0.446531 -0.030468 0.440054
v -0.448316 -0.027089 0.446240
v -0.449432 -0.024964 0.444092
v -0.405912 -0.029011 0.478842
v -0.405965 -0.028125 0.479012
v -0.404947 -0.028396 0.479944
v -0.405632 -0.029796 0.479542
v -0.452085 -0.031749 0.448906
v -0.448438 -0.021335 0.441422
v -0.446850 -0.020995 0.438951
v -0.449719 -0.021259 0.443352
v -0.446013 -0.020746 0.436439
v -0.445700 -0.020569 0.432868
v -0.445983 -0.023622 0.429158
v -0.445459 -0.020301 0.424416
v -0.443860 -0.031671 0.436757
v -0.442371 -0.031802 0.437242
v -0.443559 -0.031769 0.441474
v -0.442466 -0.031533 0.439652
v -0.445090 -0.030917 0.440832
v -0.444181 -0.030886 0.438945
v -0.443825 -0.020222 0.415794
v -0.445682 -0.019649 0.416682
v -0.445742 -0.018360 0.418329
v -0.445488 -0.016919 0.420705
v -0.443784 -0.015565 0.413832
v -0.445757 -0.015387 0.414620
v -0.447085 -0.024182 0.445097
v -0.447557 -0.021124 0.444646
v -0.446513 -0.026187 0.446476
v -0.445396 -0.017515 0.427867
v -0.445542 -0.014998 0.423410
v -0.446076 -0.011801 0.418032
v -0.445882 -0.013775 0.417857
v -0.446057 -0.014263 0.416221
v -0.443973 -0.011769 0.413631
v -0.445893 -0.011794 0.414225
v -0.446252 -0.011712 0.416054
v -0.446130 -0.027277 0.447946
v -0.407111 -0.029069 0.478188
v -0.407269 -0.027945 0.478368
v -0.437827 -0.023671 0.457336
v -0.442995 -0.027570 0.449209
v -0.434892 -0.024315 0.458312
v -0.432716 -0.026411 0.458470
v -0.429361 -0.026467 0.456246
v -0.443702 -0.026760 0.447405
v -0.443177 -0.025807 0.446258
v -0.441685 -0.027278 0.448427
v -0.443121 -0.023786 0.445183
v -0.443358 -0.021198 0.445292
v -0.452161 -0.033606 0.448990
v -0.428018 -0.022180 0.432093
v -0.428698 -0.019532 0.436301
v -0.427449 -0.021405 0.427926
v -0.428217 -0.019019 0.423732
v -0.428694 -0.016306 0.420118
v -0.428621 -0.013274 0.418374
v -0.428731 -0.010759 0.417900
v -0.429356 -0.011529 0.420817
v -0.429196 -0.013129 0.420836
v -0.429113 -0.014878 0.422799
v -0.428841 -0.016782 0.425937
v -0.428601 -0.017851 0.429186
v -0.428474 -0.018310 0.431665
v -0.428675 -0.016662 0.433452
v -0.429606 -0.019069 0.440147
v -0.431140 -0.019655 0.443351
v -0.435000 -0.021828 0.444766
v -0.428875 -0.015305 0.430371
v -0.429176 -0.014012 0.426994
v -0.429360 -0.012742 0.423676
v -0.427051 -0.032966 0.444339
v -0.426520 -0.031663 0.444012
v -0.426025 -0.031883 0.441521
v -0.426671 -0.033098 0.441788
v -0.436341 -0.025451 0.446177
v -0.427587 -0.026150 0.454559
v -0.426724 -0.027861 0.453996
v -0.424740 -0.028008 0.456630
v -0.423847 -0.027223 0.454791
v -0.424426 -0.028506 0.454105
v -0.422231 -0.030894 0.456217
v -0.421457 -0.030120 0.454189
v -0.423344 -0.030458 0.454037
v -0.421432 -0.032823 0.453340
v -0.423082 -0.032265 0.453732
v -0.423638 -0.036308 0.453181
v -0.423286 -0.034928 0.452409
v -0.424473 -0.033228 0.453387
v -0.426106 -0.036766 0.454828
v -0.426005 -0.033597 0.452863
v -0.427581 -0.033415 0.452507
v -0.429546 -0.032849 0.452213
v -0.440174 -0.026395 0.447032
v -0.438978 -0.024399 0.445353
v -0.438872 -0.021455 0.445376
v -0.443097 -0.046988 0.450503
v -0.444466 -0.047375 0.450833
v -0.441779 -0.047387 0.449869
v -0.445685 -0.048437 0.450754
v -0.445766 -0.049815 0.451085
v -0.445384 -0.051288 0.451338
v -0.443854 -0.051773 0.451611
v -0.442051 -0.051965 0.451536
v -0.440412 -0.051363 0.450926
v -0.439576 -0.050424 0.449970
v -0.439991 -0.049219 0.449641
v -0.440760 -0.048111 0.449294
v -0.443929 -0.049046 0.451641
v -0.442495 -0.048778 0.451586
v -0.441239 -0.048823 0.450927
v -0.432939 -0.025694 0.460311
v -0.429839 -0.026294 0.462183
v -0.426683 -0.026368 0.464045
v -0.422770 -0.026667 0.465809
v -0.421096 -0.026782 0.467575
v -0.426783 -0.030867 0.453700
v -0.425194 -0.030678 0.453976
v -0.428537 -0.030936 0.453062
v -0.442350 -0.024665 0.464676
v -0.438938 -0.025187 0.466727
v -0.435794 -0.025687 0.468634
v -0.433427 -0.026272 0.470734
v -0.423138 -0.027798 0.476488
v -0.424486 -0.027818 0.476400
v -0.426040 -0.027766 0.476086
v -0.421702 -0.027940 0.477049
v -0.420125 -0.028367 0.478460
v -0.418795 -0.028729 0.479753
v -0.417173 -0.028970 0.480691
v -0.414361 -0.029321 0.481991
v -0.411897 -0.029414 0.482457
v -0.409806 -0.029191 0.481935
v -0.408450 -0.029112 0.481855
v -0.406650 -0.029856 0.480908
v -0.406258 -0.028968 0.481578
v -0.406711 -0.027814 0.481566
v -0.442942 -0.023689 0.461823
v -0.449867 -0.018187 0.444095
v -0.448376 -0.017563 0.442209
v -0.446626 -0.016722 0.440015
v -0.445630 -0.015950 0.437511
v -0.445313 -0.014843 0.434135
v -0.445288 -0.013294 0.429602
v -0.445599 -0.011914 0.425102
v -0.446208 -0.009756 0.418523
v -0.446344 -0.009126 0.416557
v -0.445831 -0.008627 0.414954
v -0.443918 -0.008343 0.414431
v -0.439202 -0.008162 0.414334
v -0.433519 -0.007740 0.413642
v -0.440552 -0.022232 0.457550
v -0.437774 -0.022315 0.457902
v -0.428141 -0.007340 0.413010
v -0.426897 -0.007929 0.414958
v -0.429680 -0.016459 0.440699
v -0.431295 -0.017484 0.443882
v -0.428985 -0.015366 0.437442
v -0.428753 -0.014398 0.434569
v -0.428979 -0.009206 0.418449
v -0.447614 -0.018471 0.445080
v -0.443416 -0.018515 0.445858
v -0.435539 -0.018159 0.445565
v -0.438976 -0.018568 0.446244
v -0.435238 -0.022561 0.459012
v -0.433843 -0.023413 0.461683
v -0.431021 -0.023819 0.463221
v -0.427299 -0.024294 0.465158
v -0.423551 -0.024826 0.467087
v -0.421735 -0.025236 0.468584
v -0.420636 -0.025577 0.469738
v -0.409945 -0.026969 0.475151
v -0.408721 -0.027348 0.476352
v -0.408159 -0.027755 0.477671
v -0.412397 -0.026713 0.474125
v -0.415666 -0.026578 0.473376
v -0.418540 -0.026262 0.472007
v -0.419573 -0.025941 0.470913
v -0.431159 -0.026911 0.472788
v -0.428640 -0.027414 0.474631
v -0.428907 -0.013384 0.431489
v -0.429238 -0.012257 0.427956
v -0.429442 -0.010069 0.421260
v -0.429443 -0.011124 0.424255
v -0.407178 -0.026877 0.478895
v -0.405720 -0.027000 0.480447
v -0.405969 -0.027240 0.479415
f 1 2 3
f 1 3 4
f 5 6 7
f 5 7 8
f 5 8 9
f 5 9 10
f 10 9 11
f 10 11 12
f 13 14 12
f 13 12 11
f 15 16 14
f 15 14 13
f 17 16 15
f 17 15 18
f 19 20 21
f 19 21 22
f 23 24 25
f 23 25 26
f 27 23 26
f 27 26 28
f 29 30 24
f 29 24 23
f 29 1 4
f 29 4 30
f 31 29 23
f 31 23 27
f 32 1 29
f 32 29 33
f 34 35 36
f 34 36 37
f 38 33 29
f 38 29 31
f 38 31 34
f 38 34 37
f 39 40 27
f 39 27 28
f 40 41 35
f 40 35 34
f 40 34 31
f 40 31 27
f 42 28 26
f 42 26 43
f 44 39 28
f 44 28 42
f 45 46 42
f 45 42 43
f 47 43 26
f 47 26 25
f 48 45 43
f 48 43 47
f 49 48 47
f 49 47 50
f 44 42 46
f 44 46 51
f 50 47 25
f 50 25 52
f 52 25 24
f 52 24 53
f 54 44 51
f 54 51 55
f 56 39 44
f 56 44 54
f 40 39 56
f 40 56 57
f 58 41 40
f 58 40 57
f 59 60 52
f 59 52 53
f 61 50 52
f 61 52 60
f 62 49 50
f 62 50 61
f 63 64 65
f 63 65 66
f 66 65 67
f 66 67 68
f 66 68 62
f 66 62 61
f 66 61 60
f 66 60 63
f 69 63 60
f 69 60 59
f 70 71 64
f 70 64 63
f 72 71 70
f 72 70 73
f 70 63 69
f 70 69 74
f 74 69 75
f 74 75 76
f 76 73 70
f 76 70 74
f 76 75 77
f 76 77 78
f 73 76 78
f 73 78 79
f 72 73 79
f 72 79 80
f 81 41 58
f 81 58 82
f 83 81 82
f 83 82 84
f 85 86 83
f 85 83 84
f 87 22 86
f 87 86 85
f 88 19 22
f 88 22 87
f 89 90 19
f 89 19 88
f 91 92 90
f 91 90 89
f 93 94 92
f 93 92 91
f 95 96 94
f 95 94 93
f 97 36 96
f 97 96 95
f 98 99 100
f 98 100 101
f 101 100 80
f 101 80 102
f 102 80 79
f 102 79 103
f 104 105 106
f 104 106 107
f 108 102 103
f 108 103 109
f 106 105 108
f 106 108 109
f 103 79 78
f 103 78 110
f 111 107 106
f 111 106 112
f 113 109 103
f 113 103 110
f 112 106 109
f 112 109 113
f 114 107 111
f 114 111 115
f 116 114 115
f 116 115 117
f 118 104 107
f 118 107 119
f 120 121 122
f 120 122 123
f 124 125 121
f 124 121 120
f 126 118 125
f 126 125 124
f 127 104 118
f 127 118 126
f 128 102 108
f 128 108 129
f 130 101 102
f 130 102 128
f 131 98 101
f 131 101 130
f 132 133 134
f 132 134 135
f 136 137 133
f 136 133 132
f 136 120 123
f 136 123 137
f 119 107 114
f 119 114 138
f 138 114 116
f 138 116 139
f 125 118 119
f 125 119 140
f 141 121 125
f 141 125 140
f 142 122 121
f 142 121 141
f 140 119 138
f 140 138 143
f 143 138 139
f 143 139 144
f 145 141 140
f 145 140 143
f 146 147 134
f 146 134 133
f 148 149 147
f 148 147 146
f 150 151 122
f 150 122 142
f 152 123 122
f 152 122 151
f 152 151 150
f 152 150 153
f 142 141 145
f 142 145 154
f 150 142 154
f 150 154 155
f 156 153 150
f 156 150 155
f 157 146 133
f 157 133 137
f 158 148 146
f 158 146 157
f 157 137 123
f 157 123 152
f 157 152 153
f 157 153 158
f 153 156 159
f 153 159 158
f 160 143 144
f 160 144 161
f 162 145 143
f 162 143 160
f 154 145 162
f 154 162 163
f 155 154 163
f 155 163 164
f 165 156 155
f 165 155 164
f 166 165 164
f 166 164 167
f 167 164 163
f 167 163 168
f 169 159 156
f 169 156 165
f 169 165 166
f 169 166 170
f 170 166 167
f 170 167 171
f 172 171 167
f 172 167 168
f 168 163 162
f 168 162 173
f 174 172 168
f 174 168 173
f 173 162 160
f 173 160 175
f 174 173 175
f 174 175 176
f 175 160 161
f 175 161 177
f 176 175 177
f 176 177 178
f 179 129 108
f 179 108 105
f 179 105 104
f 179 104 127
f 37 36 97
f 37 97 180
f 181 38 37
f 181 37 180
f 182 33 38
f 182 38 181
f 183 32 33
f 183 33 182
f 180 97 184
f 180 184 185
f 181 180 185
f 181 185 186
f 182 181 186
f 182 186 187
f 183 182 187
f 183 187 188
f 189 85 84
f 189 84 190
f 87 85 189
f 87 189 191
f 192 88 87
f 192 87 191
f 89 88 192
f 89 192 193
f 91 89 193
f 91 193 194
f 93 91 194
f 93 194 195
f 95 93 195
f 95 195 196
f 197 198 95
f 197 95 196
f 184 97 95
f 184 95 198
f 196 195 194
f 196 194 199
f 200 201 202
f 200 202 203
f 204 205 197
f 204 197 206
f 206 197 196
f 206 196 199
f 199 194 193
f 199 193 207
f 190 84 82
f 190 82 208
f 191 189 190
f 191 190 209
f 210 116 117
f 210 117 211
f 212 139 116
f 212 116 210
f 144 139 212
f 144 212 213
f 161 144 213
f 161 213 214
f 177 161 214
f 177 214 215
f 178 177 215
f 178 215 216
f 217 216 215
f 217 215 218
f 218 215 214
f 218 214 219
f 219 214 213
f 219 213 220
f 220 213 212
f 220 212 221
f 221 212 210
f 221 210 222
f 210 211 223
f 210 223 222
f 223 211 224
f 223 224 225
f 226 225 224
f 226 224 227
f 226 227 228
f 226 228 229
f 230 226 229
f 230 229 231
f 232 225 226
f 232 226 230
f 222 223 225
f 222 225 232
f 233 221 222
f 233 222 232
f 234 220 221
f 234 221 233
f 235 219 220
f 235 220 234
f 236 218 219
f 236 219 235
f 237 217 218
f 237 218 236
f 238 239 228
f 238 228 240
f 240 228 227
f 240 227 241
f 241 227 224
f 241 224 242
f 242 224 211
f 242 211 243
f 243 211 117
f 243 117 244
f 244 117 115
f 244 115 245
f 245 115 111
f 245 111 246
f 247 246 111
f 247 111 112
f 247 112 113
f 247 113 248
f 249 248 250
f 249 250 251
f 252 247 248
f 252 248 249
f 253 254 245
f 253 245 246
f 253 246 247
f 253 247 252
f 255 244 245
f 255 245 254
f 256 257 242
f 256 242 243
f 256 243 244
f 256 244 255
f 258 241 242
f 258 242 257
f 255 254 253
f 255 253 259
f 260 258 257
f 260 257 256
f 260 256 255
f 260 255 259
f 261 252 249
f 261 249 251
f 262 263 238
f 262 238 240
f 262 240 241
f 262 241 258
f 259 253 252
f 259 252 261
f 264 263 262
f 264 262 265
f 265 260 259
f 265 259 261
f 264 266 238
f 264 238 263
f 251 250 266
f 251 266 264
f 265 261 251
f 265 251 264
f 265 262 258
f 265 258 260
f 110 78 77
f 110 77 267
f 239 238 266
f 239 266 268
f 250 248 113
f 250 113 269
f 269 113 110
f 269 110 267
f 268 266 250
f 268 250 269
f 270 229 228
f 270 228 239
f 271 77 75
f 271 75 272
f 186 185 273
f 186 273 274
f 273 185 184
f 273 184 275
f 276 277 274
f 276 274 273
f 278 77 271
f 278 271 276
f 279 267 77
f 279 77 278
f 280 269 267
f 280 267 279
f 281 268 269
f 281 269 280
f 270 239 268
f 270 268 281
f 282 276 273
f 282 273 275
f 283 198 197
f 283 197 284
f 275 184 198
f 275 198 283
f 278 276 282
f 278 282 285
f 286 279 278
f 286 278 285
f 280 279 286
f 280 286 287
f 231 229 270
f 231 270 288
f 281 280 287
f 281 287 289
f 288 270 281
f 288 281 289
f 289 287 290
f 289 290 291
f 290 287 286
f 290 286 292
f 293 283 284
f 293 284 294
f 293 282 275
f 293 275 283
f 284 197 205
f 284 205 294
f 285 282 293
f 285 293 295
f 295 293 294
f 295 294 296
f 295 292 286
f 295 286 285
f 297 292 295
f 297 295 296
f 298 290 292
f 298 292 297
f 299 291 290
f 299 290 298
f 207 193 192
f 207 192 300
f 301 206 199
f 301 199 207
f 302 204 206
f 302 206 301
f 303 304 204
f 303 204 302
f 305 208 82
f 305 82 306
f 307 99 304
f 307 304 303
f 308 307 303
f 308 303 309
f 308 309 305
f 308 305 306
f 310 72 80
f 310 80 100
f 306 82 58
f 306 58 311
f 310 100 99
f 310 99 307
f 308 306 311
f 308 311 312
f 310 307 308
f 310 308 312
f 71 72 310
f 71 310 313
f 311 58 57
f 311 57 314
f 312 311 314
f 312 314 315
f 313 310 312
f 313 312 315
f 314 57 56
f 314 56 316
f 64 71 313
f 64 313 317
f 318 317 313
f 318 313 315
f 318 315 314
f 318 314 316
f 316 56 54
f 316 54 319
f 65 64 317
f 65 317 320
f 321 320 317
f 321 317 318
f 321 318 316
f 321 316 319
f 319 54 55
f 319 55 322
f 323 67 65
f 323 65 320
f 324 323 320
f 324 320 321
f 324 321 319
f 324 319 322
f 325 323 324
f 325 324 326
f 326 324 322
f 326 322 327
f 327 322 55
f 327 55 328
f 328 55 51
f 328 51 329
f 329 51 46
f 329 46 330
f 330 46 45
f 330 45 331
f 331 45 48
f 331 48 332
f 332 48 49
f 332 49 333
f 333 49 62
f 333 62 334
f 335 334 62
f 335 62 68
f 336 67 323
f 336 323 325
f 336 335 68
f 336 68 67
f 337 326 327
f 337 327 338
f 339 325 326
f 339 326 337
f 336 325 339
f 336 339 340
f 341 335 336
f 341 336 340
f 342 334 335
f 342 335 341
f 343 333 334
f 343 334 342
f 344 332 333
f 344 333 343
f 345 331 332
f 345 332 344
f 346 330 331
f 346 331 345
f 347 329 330
f 347 330 346
f 348 338 327
f 348 327 328
f 348 328 329
f 348 329 347
f 349 339 337
f 349 337 350
f 350 337 338
f 350 338 351
f 351 338 348
f 351 348 352
f 352 348 347
f 352 347 353
f 346 345 354
f 346 354 355
f 353 347 346
f 353 346 355
f 356 352 353
f 356 353 355
f 356 350 351
f 356 351 352
f 340 339 349
f 340 349 357
f 358 341 340
f 358 340 357
f 359 343 342
f 359 342 360
f 361 349 350
f 361 350 356
f 356 355 354
f 356 354 361
f 342 341 358
f 342 358 360
f 362 359 360
f 362 360 363
f 344 343 359
f 344 359 362
f 354 345 344
f 354 344 362
f 363 361 354
f 363 354 362
f 357 349 361
f 357 361 363
f 360 358 357
f 360 357 363
f 364 90 92
f 364 92 365
f 20 19 90
f 20 90 364
f 366 20 364
f 366 364 365
f 367 21 20
f 367 20 366
f 86 22 21
f 86 21 367
f 368 83 86
f 368 86 367
f 365 92 94
f 365 94 369
f 368 367 366
f 368 366 370
f 370 366 365
f 370 365 369
f 371 35 41
f 371 41 372
f 373 36 35
f 373 35 371
f 96 36 373
f 96 373 374
f 369 94 96
f 369 96 374
f 372 41 81
f 372 81 375
f 375 81 83
f 375 83 368
f 376 371 372
f 376 372 375
f 375 368 370
f 375 370 376
f 376 370 369
f 376 369 374
f 374 373 371
f 374 371 376
f 187 186 274
f 187 274 377
f 377 274 277
f 377 277 378
f 188 187 377
f 188 377 379
f 3 2 380
f 3 380 381
f 382 381 380
f 382 380 383
f 380 2 384
f 380 384 385
f 383 380 385
f 383 385 386
f 387 377 378
f 387 378 388
f 389 379 377
f 389 377 387
f 390 391 392
f 390 392 382
f 387 388 391
f 387 391 390
f 390 393 389
f 390 389 387
f 394 390 382
f 394 382 383
f 393 390 394
f 393 394 395
f 396 394 383
f 396 383 386
f 397 395 394
f 397 394 396
f 398 5 10
f 398 10 399
f 399 10 12
f 399 12 400
f 400 12 14
f 400 14 401
f 402 16 17
f 402 17 403
f 401 14 16
f 401 16 402
f 404 401 402
f 404 402 405
f 400 401 404
f 400 404 406
f 399 400 406
f 399 406 407
f 398 399 407
f 398 407 408
f 409 405 402
f 409 402 403
f 403 17 410
f 403 410 411
f 412 413 397
f 412 397 396
f 414 398 408
f 414 408 415
f 412 396 386
f 412 386 416
f 415 417 418
f 415 418 414
f 419 413 412
f 419 412 420
f 420 418 417
f 420 417 419
f 420 412 416
f 420 416 421
f 414 418 420
f 414 420 421
f 422 5 398
f 422 398 414
f 416 386 385
f 416 385 423
f 421 416 423
f 421 423 424
f 422 414 421
f 422 421 424
f 6 5 422
f 6 422 425
f 423 385 384
f 423 384 426
f 424 423 426
f 424 426 427
f 425 422 424
f 425 424 427
f 428 271 272
f 428 272 429
f 430 276 271
f 430 271 428
f 277 276 430
f 277 430 431
f 378 277 431
f 378 431 432
f 388 378 432
f 388 432 433
f 391 388 433
f 391 433 434
f 392 391 434
f 392 434 435
f 436 392 435
f 436 435 437
f 438 430 428
f 438 428 439
f 428 429 440
f 428 440 439
f 440 429 441
f 440 441 442
f 443 438 439
f 443 439 444
f 431 430 438
f 431 438 443
f 445 432 431
f 445 431 443
f 444 439 440
f 444 440 442
f 446 447 437
f 446 437 448
f 444 442 449
f 444 449 450
f 448 437 435
f 448 435 451
f 435 434 452
f 435 452 451
f 450 449 446
f 450 446 453
f 450 445 443
f 450 443 444
f 433 432 445
f 433 445 454
f 454 445 450
f 454 450 453
f 452 434 433
f 452 433 454
f 453 451 452
f 453 452 454
f 446 448 451
f 446 451 453
f 455 382 392
f 455 392 436
f 456 59 53
f 456 53 457
f 441 429 272
f 441 272 458
f 458 69 59
f 458 59 456
f 272 75 69
f 272 69 458
f 459 436 437
f 459 437 447
f 460 4 3
f 460 3 461
f 30 4 460
f 30 460 462
f 24 30 462
f 24 462 463
f 457 53 24
f 457 24 463
f 458 456 457
f 458 457 464
f 464 465 466
f 464 466 458
f 461 3 381
f 461 381 467
f 467 381 382
f 467 382 455
f 462 460 461
f 462 461 468
f 469 436 459
f 469 459 470
f 467 455 436
f 467 436 469
f 469 470 471
f 469 471 468
f 468 461 467
f 468 467 469
f 470 459 466
f 470 466 465
f 470 465 464
f 470 464 471
f 463 462 468
f 463 468 471
f 464 457 463
f 464 463 471
f 192 191 209
f 192 209 300
f 300 209 472
f 300 472 473
f 473 301 207
f 473 207 300
f 208 305 474
f 208 474 472
f 209 190 208
f 209 208 472
f 475 147 149
f 475 149 476
f 477 478 479
f 477 479 475
f 477 475 476
f 477 476 480
f 478 205 204
f 478 204 479
f 297 296 294
f 297 294 481
f 482 483 299
f 482 299 298
f 481 294 205
f 481 205 478
f 481 478 477
f 481 477 482
f 481 482 298
f 481 298 297
f 482 477 480
f 482 480 483
f 479 204 304
f 479 304 484
f 485 134 147
f 485 147 475
f 484 304 99
f 484 99 98
f 484 98 131
f 484 131 486
f 484 486 487
f 484 487 485
f 484 485 475
f 484 475 479
f 487 135 134
f 487 134 485
f 128 129 488
f 128 488 489
f 490 130 128
f 490 128 489
f 131 130 490
f 131 490 491
f 492 491 490
f 492 490 489
f 493 487 486
f 493 486 494
f 486 131 491
f 486 491 494
f 495 132 135
f 495 135 496
f 497 494 491
f 497 491 492
f 496 493 494
f 496 494 497
f 135 487 493
f 135 493 496
f 136 132 495
f 136 495 498
f 499 120 136
f 499 136 498
f 500 124 120
f 500 120 499
f 501 495 496
f 501 496 497
f 498 495 501
f 498 501 502
f 500 499 498
f 500 498 502
f 503 127 126
f 503 126 504
f 505 501 497
f 505 497 492
f 126 124 500
f 126 500 504
f 492 489 488
f 492 488 505
f 506 179 127
f 506 127 503
f 504 500 502
f 504 502 507
f 488 129 179
f 488 179 506
f 506 503 504
f 506 504 507
f 507 505 488
f 507 488 506
f 502 501 505
f 502 505 507
f 508 232 230
f 508 230 509
f 233 232 508
f 233 508 510
f 234 233 510
f 234 510 511
f 512 510 508
f 512 508 509
f 235 234 511
f 235 511 513
f 514 236 235
f 514 235 513
f 237 236 514
f 237 514 515
f 511 510 512
f 511 512 516
f 517 515 514
f 517 514 513
f 517 513 511
f 517 511 516
f 466 459 447
f 466 447 518
f 441 458 466
f 441 466 518
f 518 447 446
f 518 446 449
f 449 442 441
f 449 441 518
f 519 473 472
f 519 472 474
f 309 303 302
f 309 302 519
f 519 302 301
f 519 301 473
f 519 474 305
f 519 305 309
f 520 521 522
f 520 522 523
f 524 525 520
f 524 520 523
f 526 527 528
f 526 528 522
f 522 521 529
f 522 529 526
f 528 527 530
f 528 530 531
f 531 532 533
f 531 533 528
f 521 520 534
f 521 534 535
f 536 537 529
f 536 529 521
f 535 538 536
f 535 536 521
f 520 525 539
f 520 539 534
f 540 541 527
f 540 527 526
f 526 529 542
f 526 542 540
f 527 541 543
f 527 543 530
f 537 544 542
f 537 542 529
f 540 542 545
f 540 545 541
f 542 544 546
f 542 546 545
f 545 547 543
f 545 543 541
f 530 543 548
f 530 548 549
f 549 550 531
f 549 531 530
f 547 551 548
f 547 548 543
f 544 537 552
f 544 552 553
f 544 553 554
f 544 554 546
f 536 555 556
f 536 556 537
f 537 556 557
f 537 557 552
f 532 558 559
f 532 559 533
f 559 558 560
f 559 560 561
f 562 563 564
f 562 564 565
f 561 560 562
f 561 562 565
f 563 566 567
f 563 567 564
f 566 563 568
f 566 568 569
f 563 562 570
f 563 570 571
f 563 571 572
f 563 572 568
f 560 573 570
f 560 570 562
f 558 532 574
f 558 574 575
f 558 575 573
f 558 573 560
f 532 531 550
f 532 550 574
f 576 577 574
f 576 574 550
f 550 549 578
f 550 578 576
f 577 579 575
f 577 575 574
f 575 579 580
f 575 580 573
f 581 582 571
f 581 571 570
f 570 583 584
f 570 584 581
f 573 580 583
f 573 583 570
f 582 585 572
f 582 572 571
f 568 572 586
f 568 586 587
f 587 588 569
f 587 569 568
f 585 589 586
f 585 586 572
f 588 587 590
f 588 590 591
f 587 586 592
f 587 592 590
f 589 593 592
f 589 592 586
f 591 590 594
f 591 594 595
f 590 592 596
f 590 596 594
f 593 597 596
f 593 596 592
f 598 599 594
f 598 594 596
f 597 600 598
f 597 598 596
f 599 601 595
f 599 595 594
f 602 603 599
f 602 599 598
f 604 605 606
f 604 606 607
f 607 606 608
f 607 608 609
f 607 610 611
f 607 611 604
f 612 613 610
f 612 610 607
f 609 614 612
f 609 612 607
f 605 615 616
f 605 616 606
f 606 616 617
f 606 617 608
f 556 555 618
f 556 618 619
f 556 619 620
f 556 620 557
f 615 621 622
f 615 622 616
f 616 622 623
f 616 623 624
f 616 624 625
f 616 625 617
f 622 621 626
f 622 626 627
f 622 627 628
f 622 628 623
f 610 629 630
f 610 630 611
f 613 631 629
f 613 629 610
f 629 632 633
f 629 633 630
f 631 634 632
f 631 632 629
f 632 635 636
f 632 636 633
f 634 637 635
f 634 635 632
f 635 638 639
f 635 639 636
f 637 640 638
f 637 638 635
f 638 641 642
f 638 642 639
f 640 643 641
f 640 641 638
f 644 645 642
f 644 642 641
f 643 646 644
f 643 644 641
f 633 636 639
f 633 639 647
f 647 648 630
f 647 630 633
f 639 642 645
f 639 645 647
f 648 649 611
f 648 611 630
f 649 605 604
f 649 604 611
f 649 621 615
f 649 615 605
f 538 650 555
f 538 555 536
f 645 644 627
f 645 627 626
f 645 626 648
f 645 648 647
f 646 628 627
f 646 627 644
f 626 621 649
f 626 649 648
f 651 652 624
f 651 624 623
f 623 628 653
f 623 653 654
f 654 655 651
f 654 651 623
f 652 656 625
f 652 625 624
f 628 646 657
f 628 657 653
f 646 643 658
f 646 658 657
f 643 640 659
f 643 659 658
f 660 659 640
f 660 640 637
f 637 634 661
f 637 661 660
f 634 631 662
f 634 662 661
f 631 613 663
f 631 663 662
f 613 612 664
f 613 664 665
f 665 200 663
f 665 663 613
f 612 614 666
f 612 666 664
f 525 524 667
f 525 667 668
f 668 669 539
f 668 539 525
f 670 671 672
f 670 672 673
f 617 625 671
f 617 671 670
f 670 673 674
f 670 674 650
f 650 538 617
f 650 617 670
f 675 676 672
f 675 672 671
f 671 625 656
f 671 656 675
f 677 678 673
f 677 673 672
f 676 679 677
f 676 677 672
f 678 680 674
f 678 674 673
f 618 555 650
f 618 650 674
f 681 682 619
f 681 619 618
f 618 674 680
f 618 680 681
f 682 683 620
f 682 620 619
f 552 557 684
f 552 684 685
f 685 686 553
f 685 553 552
f 557 620 687
f 557 687 684
f 620 683 688
f 620 688 687
f 553 686 689
f 553 689 554
f 538 535 608
f 538 608 617
f 535 534 609
f 535 609 608
f 534 539 614
f 534 614 609
f 614 539 669
f 614 669 666
f 688 683 690
f 688 690 691
f 688 691 692
f 688 692 693
f 693 694 687
f 693 687 688
f 682 695 690
f 682 690 683
f 691 690 696
f 691 696 697
f 697 698 692
f 697 692 691
f 690 695 699
f 690 699 696
f 681 700 695
f 681 695 682
f 695 700 701
f 695 701 699
f 700 681 680
f 700 680 702
f 700 702 703
f 700 703 701
f 678 704 702
f 678 702 680
f 702 704 705
f 702 705 703
f 677 706 704
f 677 704 678
f 704 706 707
f 704 707 705
f 679 708 706
f 679 706 677
f 706 708 709
f 706 709 707
f 708 679 710
f 708 710 711
f 708 711 712
f 708 712 709
f 679 676 713
f 679 713 710
f 694 714 684
f 694 684 687
f 714 715 685
f 714 685 684
f 715 689 686
f 715 686 685
f 676 675 716
f 676 716 713
f 675 656 717
f 675 717 716
f 656 652 718
f 656 718 717
f 652 651 719
f 652 719 718
f 720 721 693
f 720 693 692
f 698 722 720
f 698 720 692
f 693 721 723
f 693 723 694
f 724 725 721
f 724 721 720
f 722 726 724
f 722 724 720
f 721 725 727
f 721 727 723
f 711 710 725
f 711 725 724
f 726 712 711
f 726 711 724
f 710 713 727
f 710 727 725
f 727 728 729
f 727 729 723
f 713 716 728
f 713 728 727
f 728 730 731
f 728 731 729
f 716 717 730
f 716 730 728
f 730 732 733
f 730 733 731
f 717 718 732
f 717 732 730
f 734 735 733
f 734 733 732
f 736 737 734
f 736 734 732
f 718 719 736
f 718 736 732
f 738 739 731
f 738 731 733
f 735 740 738
f 735 738 733
f 739 714 729
f 739 729 731
f 714 694 723
f 714 723 729
f 741 742 739
f 741 739 738
f 740 743 741
f 740 741 738
f 742 715 714
f 742 714 739
f 744 745 689
f 744 689 715
f 715 742 741
f 715 741 744
f 689 745 746
f 689 746 747
f 747 748 749
f 747 749 689
f 689 749 750
f 689 750 554
f 743 751 744
f 743 744 741
f 751 752 745
f 751 745 744
f 745 752 753
f 745 753 746
f 752 751 754
f 752 754 755
f 752 755 756
f 752 756 753
f 751 743 757
f 751 757 758
f 758 759 754
f 758 754 751
f 743 740 760
f 743 760 757
f 740 735 761
f 740 761 760
f 735 734 762
f 735 762 761
f 737 763 762
f 737 762 734
f 764 765 755
f 764 755 754
f 754 759 766
f 754 766 764
f 756 755 767
f 756 767 768
f 756 768 769
f 756 769 770
f 770 771 753
f 770 753 756
f 772 773 767
f 772 767 755
f 765 774 772
f 765 772 755
f 768 767 775
f 768 775 776
f 768 776 777
f 768 777 769
f 767 773 778
f 767 778 775
f 758 757 779
f 758 779 780
f 758 780 781
f 758 781 759
f 757 760 782
f 757 782 779
f 760 761 783
f 760 783 782
f 761 762 784
f 761 784 785
f 761 785 786
f 761 786 783
f 762 763 787
f 762 787 784
f 788 789 737
f 788 737 736
f 719 790 788
f 719 788 736
f 651 655 790
f 651 790 719
f 789 791 763
f 789 763 737
f 763 791 792
f 763 792 787
f 793 794 655
f 793 655 654
f 654 653 795
f 654 795 793
f 655 794 796
f 655 796 790
f 653 657 658
f 653 658 795
f 658 659 797
f 658 797 795
f 659 660 798
f 659 798 797
f 660 661 799
f 660 799 798
f 661 662 663
f 661 663 799
f 200 203 799
f 200 799 663
f 665 664 774
f 665 774 800
f 665 800 801
f 665 801 200
f 664 666 772
f 664 772 774
f 802 202 789
f 802 789 788
f 790 796 802
f 790 802 788
f 202 803 791
f 202 791 789
f 804 805 792
f 804 792 791
f 803 806 804
f 803 804 791
f 784 787 807
f 784 807 808
f 808 809 785
f 808 785 784
f 787 792 810
f 787 810 807
f 809 811 786
f 809 786 785
f 812 813 783
f 812 783 786
f 811 814 812
f 811 812 786
f 783 813 815
f 783 815 782
f 816 817 813
f 816 813 812
f 814 818 816
f 814 816 812
f 813 817 819
f 813 819 815
f 817 816 820
f 817 820 821
f 817 821 822
f 817 822 819
f 818 823 820
f 818 820 816
f 821 820 824
f 821 824 825
f 825 826 822
f 825 822 821
f 823 827 824
f 823 824 820
f 782 815 828
f 782 828 779
f 815 819 829
f 815 829 828
f 819 822 830
f 819 830 831
f 831 832 829
f 831 829 819
f 826 833 830
f 826 830 822
f 834 835 828
f 834 828 829
f 829 832 836
f 829 836 834
f 835 837 779
f 835 779 828
f 838 839 832
f 838 832 831
f 831 830 840
f 831 840 838
f 839 841 836
f 839 836 832
f 833 842 840
f 833 840 830
f 779 837 843
f 779 843 780
f 792 805 844
f 792 844 810
f 834 836 845
f 834 845 846
f 846 847 835
f 846 835 834
f 836 841 848
f 836 848 845
f 837 835 847
f 837 847 849
f 849 850 843
f 849 843 837
f 780 843 851
f 780 851 852
f 780 852 853
f 780 853 781
f 850 854 851
f 850 851 843
f 838 840 855
f 838 855 856
f 838 856 857
f 838 857 839
f 842 858 855
f 842 855 840
f 859 860 856
f 859 856 855
f 855 858 861
f 855 861 859
f 860 862 857
f 860 857 856
f 839 857 863
f 839 863 841
f 864 865 863
f 864 863 857
f 862 866 864
f 862 864 857
f 841 863 867
f 841 867 848
f 863 865 868
f 863 868 867
f 865 864 869
f 865 869 870
f 865 870 871
f 865 871 868
f 866 872 869
f 866 869 864
f 870 869 873
f 870 873 874
f 870 874 875
f 870 875 871
f 872 876 873
f 872 873 869
f 874 873 877
f 874 877 878
f 874 878 879
f 874 879 875
f 876 880 877
f 876 877 873
f 877 852 851
f 877 851 878
f 878 851 854
f 878 854 879
f 852 877 880
f 852 880 853
f 881 882 858
f 881 858 842
f 833 883 881
f 833 881 842
f 858 882 884
f 858 884 861
f 882 881 885
f 882 885 886
f 882 886 887
f 882 887 884
f 883 888 885
f 883 885 881
f 886 885 889
f 886 889 890
f 886 890 891
f 886 891 887
f 885 888 892
f 885 892 889
f 826 825 893
f 826 893 894
f 826 894 895
f 826 895 833
f 825 824 896
f 825 896 893
f 827 897 896
f 827 896 824
f 898 899 893
f 898 893 896
f 900 901 898
f 900 898 896
f 897 902 900
f 897 900 896
f 899 903 894
f 899 894 893
f 894 903 904
f 894 904 895
f 905 906 899
f 905 899 898
f 898 901 907
f 898 907 905
f 906 908 903
f 906 903 899
f 903 908 909
f 903 909 904
f 910 911 901
f 910 901 900
f 902 912 910
f 902 910 900
f 901 911 913
f 901 913 907
f 911 910 914
f 911 914 915
f 911 915 916
f 911 916 913
f 912 917 914
f 912 914 910
f 805 804 915
f 805 915 914
f 917 844 805
f 917 805 914
f 915 804 806
f 915 806 916
f 803 202 201
f 803 201 918
f 918 919 806
f 918 806 803
f 920 921 922
f 920 922 923
f 202 802 924
f 202 924 203
f 925 926 916
f 925 916 806
f 806 919 927
f 806 927 925
f 926 928 913
f 926 913 916
f 928 929 907
f 928 907 913
f 929 930 905
f 929 905 907
f 930 908 906
f 930 906 905
f 930 931 909
f 930 909 908
f 897 827 932
f 897 932 902
f 827 823 933
f 827 933 932
f 823 818 814
f 823 814 933
f 811 809 934
f 811 934 935
f 935 933 814
f 935 814 811
f 809 808 807
f 809 807 934
f 807 810 936
f 807 936 934
f 810 844 917
f 810 917 936
f 917 912 937
f 917 937 936
f 912 902 932
f 912 932 937
f 833 895 938
f 833 938 883
f 895 904 939
f 895 939 938
f 904 909 940
f 904 940 939
f 909 931 941
f 909 941 940
f 942 888 883
f 942 883 938
f 938 939 943
f 938 943 942
f 944 945 927
f 944 927 919
f 919 918 946
f 919 946 944
f 929 947 931
f 929 931 930
f 948 941 931
f 948 931 947
f 949 950 941
f 949 941 948
f 950 951 940
f 950 940 941
f 939 940 951
f 939 951 943
f 888 942 952
f 888 952 892
f 942 943 953
f 942 953 952
f 943 951 954
f 943 954 953
f 951 950 949
f 951 949 954
f 955 946 918
f 955 918 201
f 200 801 955
f 200 955 201
f 956 957 921
f 956 921 920
f 666 669 773
f 666 773 772
f 669 668 778
f 669 778 773
f 668 667 958
f 668 958 778
f 801 800 959
f 801 959 955
f 800 774 765
f 800 765 959
f 778 958 960
f 778 960 961
f 961 962 775
f 961 775 778
f 963 964 946
f 963 946 955
f 955 959 965
f 955 965 963
f 964 966 944
f 964 944 946
f 966 967 945
f 966 945 944
f 796 968 924
f 796 924 802
f 794 793 968
f 794 968 796
f 795 797 968
f 795 968 793
f 797 798 924
f 797 924 968
f 798 799 203
f 798 203 924
f 860 969 866
f 860 866 862
f 866 969 970
f 866 970 872
f 860 859 971
f 860 971 969
f 859 861 972
f 859 972 971
f 861 884 973
f 861 973 972
f 884 887 974
f 884 974 973
f 887 891 975
f 887 975 974
f 976 977 974
f 976 974 975
f 977 978 973
f 977 973 974
f 978 979 972
f 978 972 973
f 979 980 971
f 979 971 972
f 980 981 969
f 980 969 971
f 981 982 970
f 981 970 969
f 970 983 876
f 970 876 872
f 983 984 880
f 983 880 876
f 880 984 985
f 880 985 853
f 982 981 980
f 982 980 986
f 980 979 987
f 980 987 986
f 979 978 988
f 979 988 987
f 978 977 976
f 978 976 988
f 854 850 989
f 854 989 990
f 990 875 879
f 990 879 854
f 850 849 847
f 850 847 989
f 990 991 871
f 990 871 875
f 991 867 868
f 991 868 871
f 991 992 848
f 991 848 867
f 992 846 845
f 992 845 848
f 992 989 847
f 992 847 846
f 989 992 991
f 989 991 990
f 759 781 993
f 759 993 766
f 962 994 776
f 962 776 775
f 776 994 995
f 776 995 777
f 994 962 996
f 994 996 997
f 994 997 998
f 994 998 995
f 961 578 996
f 961 996 962
f 999 1000 997
f 999 997 996
f 578 549 999
f 578 999 996
f 997 1000 1001
f 997 1001 998
f 1000 999 551
f 1000 551 1002
f 1000 1002 1003
f 1000 1003 1001
f 549 548 551
f 549 551 999
f 1002 551 1004
f 1002 1004 1005
f 1002 1005 1006
f 1002 1006 1003
f 547 1007 1004
f 547 1004 551
f 1005 1004 749
f 1005 749 748
f 1005 748 1008
f 1005 1008 1006
f 1007 750 749
f 1007 749 1004
f 748 747 1009
f 748 1009 1008
f 747 746 1010
f 747 1010 1009
f 746 753 771
f 746 771 1010
f 985 993 781
f 985 781 853
f 765 764 965
f 765 965 959
f 764 766 1011
f 764 1011 965
f 766 993 1012
f 766 1012 1011
f 993 985 1013
f 993 1013 1012
f 964 963 965
f 964 965 1011
f 1011 1012 966
f 1011 966 964
f 1013 967 966
f 1013 966 1012
f 1014 1015 712
f 1014 712 726
f 726 722 1016
f 726 1016 1014
f 1015 1017 709
f 1015 709 712
f 1017 1018 707
f 1017 707 709
f 1018 1019 705
f 1018 705 707
f 1019 1020 703
f 1019 703 705
f 1020 1021 701
f 1020 701 703
f 1021 1022 699
f 1021 699 701
f 1022 1023 696
f 1022 696 699
f 1023 1024 697
f 1023 697 696
f 1024 1025 698
f 1024 698 697
f 1025 1016 722
f 1025 722 698
f 1026 1015 1014
f 1026 1014 1027
f 1027 1014 1016
f 1027 1016 1028
f 1028 1022 1021
f 1028 1021 1027
f 1027 1021 1020
f 1027 1020 1026
f 1017 1015 1026
f 1017 1026 1018
f 1016 1025 1024
f 1016 1024 1028
f 1024 1023 1022
f 1024 1022 1028
f 1020 1019 1018
f 1020 1018 1026
f 961 960 1029
f 961 1029 578
f 1029 1030 576
f 1029 576 578
f 1030 1031 577
f 1030 577 576
f 577 1031 1032
f 577 1032 579
f 579 1032 1033
f 579 1033 580
f 1033 584 583
f 1033 583 580
f 1034 1035 1006
f 1034 1006 1008
f 1008 1009 1036
f 1008 1036 1034
f 1035 1001 1003
f 1035 1003 1006
f 1009 1010 771
f 1009 771 1036
f 771 770 769
f 771 769 1036
f 769 777 1034
f 769 1034 1036
f 777 995 1035
f 777 1035 1034
f 995 998 1001
f 995 1001 1035
f 545 546 1007
f 545 1007 547
f 546 554 750
f 546 750 1007
f 937 935 934
f 937 934 936
f 932 933 935
f 932 935 937
f 1037 523 522
f 1037 522 1038
f 1039 2 1
f 1039 1 1038
f 1039 1038 522
f 1039 522 528
f 1040 384 2
f 1040 2 1039
f 1040 1039 528
f 1040 528 533
f 1041 1042 564
f 1041 564 567
f 1042 1043 565
f 1042 565 564
f 1041 7 6
f 1041 6 1042
f 1041 567 566
f 1041 566 1044
f 1044 8 7
f 1044 7 1041
f 1044 566 569
f 1044 569 1045
f 1045 9 8
f 1045 8 1044
f 1045 569 588
f 1045 588 1046
f 1046 11 9
f 1046 9 1045
f 1046 588 591
f 1046 591 1047
f 1047 13 11
f 1047 11 1046
f 1047 591 595
f 1047 595 1048
f 1048 15 13
f 1048 13 1047
f 1048 595 601
f 1048 601 1049
f 1049 601 599
f 1049 599 1050
f 1049 18 15
f 1049 15 1048
f 1050 17 18
f 1050 18 1049
f 1050 599 603
f 1050 603 1051
f 1051 410 17
f 1051 17 1050
f 1051 603 1052
f 1051 1052 1053
f 1053 1054 410
f 1053 410 1051
f 1038 1 32
f 1038 32 1037
f 1055 524 523
f 1055 523 1037
f 1056 480 476
f 1056 476 1057
f 1058 926 925
f 1058 925 1057
f 1057 476 149
f 1057 149 1058
f 1059 928 926
f 1059 926 1058
f 1058 149 148
f 1058 148 1059
f 1060 929 928
f 1060 928 1059
f 1059 148 158
f 1059 158 1060
f 1061 947 929
f 1061 929 1060
f 1060 158 159
f 1060 159 1061
f 1062 948 947
f 1062 947 1061
f 1061 159 169
f 1061 169 1062
f 1063 949 948
f 1063 948 1062
f 1062 169 170
f 1062 170 1063
f 1063 170 171
f 1063 171 1064
f 1064 954 949
f 1064 949 1063
f 1064 171 172
f 1064 172 1065
f 1065 953 954
f 1065 954 1064
f 1065 172 174
f 1065 174 1066
f 952 953 1065
f 952 1065 1066
f 1066 174 176
f 1066 176 1067
f 892 952 1066
f 892 1066 1067
f 1067 176 178
f 1067 178 1068
f 889 892 1067
f 889 1067 1068
f 1037 32 183
f 1037 183 1055
f 1069 667 524
f 1069 524 1055
f 1055 183 188
f 1055 188 1069
f 1070 958 667
f 1070 667 1069
f 1057 925 927
f 1057 927 1056
f 1068 178 216
f 1068 216 1071
f 890 889 1068
f 890 1068 1071
f 1071 216 217
f 1071 217 1072
f 891 890 1071
f 891 1071 1072
f 1073 231 288
f 1073 288 1074
f 1073 983 970
f 1073 970 1075
f 1075 230 231
f 1075 231 1073
f 1075 970 982
f 1075 982 1076
f 1072 217 237
f 1072 237 1077
f 975 891 1072
f 975 1072 1077
f 1074 984 983
f 1074 983 1073
f 1078 483 480
f 1078 480 1056
f 1078 1056 927
f 1078 927 945
f 1079 299 483
f 1079 483 1078
f 1079 1078 945
f 1079 945 967
f 1074 288 289
f 1074 289 1080
f 1080 289 291
f 1080 291 1081
f 985 984 1074
f 985 1074 1080
f 1081 1013 985
f 1081 985 1080
f 1081 291 299
f 1081 299 1079
f 1081 1079 967
f 1081 967 1013
f 1069 188 379
f 1069 379 1070
f 1082 960 958
f 1082 958 1070
f 1070 379 389
f 1070 389 1082
f 1083 1029 960
f 1083 960 1082
f 1082 389 393
f 1082 393 1083
f 1084 1030 1029
f 1084 1029 1083
f 1083 393 395
f 1083 395 1084
f 1085 1031 1030
f 1085 1030 1084
f 1084 395 397
f 1084 397 1085
f 1086 1032 1031
f 1086 1031 1085
f 1085 397 413
f 1085 413 1086
f 1087 1033 1032
f 1087 1032 1086
f 1086 413 419
f 1086 419 1087
f 1088 584 1033
f 1088 1033 1087
f 1089 404 405
f 1089 405 1090
f 1090 405 409
f 1090 409 1091
f 1091 600 597
f 1091 597 1090
f 1089 593 589
f 1089 589 1092
f 1090 597 593
f 1090 593 1089
f 1092 406 404
f 1092 404 1089
f 1092 589 585
f 1092 585 1093
f 1093 407 406
f 1093 406 1092
f 1093 585 582
f 1093 582 1094
f 1094 408 407
f 1094 407 1093
f 1094 582 581
f 1094 581 1095
f 1088 417 415
f 1088 415 1095
f 1087 419 417
f 1087 417 1088
f 1095 581 584
f 1095 584 1088
f 1095 415 408
f 1095 408 1094
f 1096 426 384
f 1096 384 1040
f 1096 1040 533
f 1096 533 559
f 1042 6 425
f 1042 425 1043
f 1043 425 427
f 1043 427 1097
f 1097 561 565
f 1097 565 1043
f 1097 427 426
f 1097 426 1096
f 1097 1096 559
f 1097 559 561
f 1076 509 230
f 1076 230 1075
f 1076 982 986
f 1076 986 1098
f 1098 512 509
f 1098 509 1076
f 1098 986 987
f 1098 987 1099
f 1077 237 515
f 1077 515 1100
f 976 975 1077
f 976 1077 1100
f 1099 516 512
f 1099 512 1098
f 1101 517 516
f 1101 516 1099
f 1099 987 988
f 1099 988 1101
f 1100 515 517
f 1100 517 1101
f 988 976 1100
f 988 1100 1101
f 956 600 1091
f 956 1091 957
f 957 1091 409
f 957 409 1102
f 1103 411 410
f 1103 410 1054
f 1103 1054 1053
f 1103 1053 922
f 1052 603 602
f 1052 602 923
f 922 1053 1052
f 922 1052 923
f 409 403 411
f 409 411 1102
f 1102 411 1103
f 1102 1103 1104
f 1104 921 957
f 1104 957 1102
f 1103 922 921
f 1103 921 1104
f 956 602 598
f 956 598 600
f 920 923 602
f 920 602 956
