# Talus_R posed
v 0.729602 0.229019 0.378710
v 0.738420 0.220699 0.363416
v 0.745995 0.217037 0.361190
v 0.765136 0.216969 0.360275
v 0.772091 0.214274 0.359153
v 0.775724 0.219894 0.372259
v 0.777751 0.228549 0.377743
v 0.777623 0.213654 0.357859
v 0.782592 0.213253 0.362516
v 0.787619 0.222419 0.372774
v 0.797600 0.228099 0.356078
v 0.796602 0.229178 0.346373
v 0.797348 0.240205 0.359671
v 0.795918 0.240882 0.348088
v 0.784760 0.241370 0.336655
v 0.783885 0.229934 0.331973
v 0.784084 0.217568 0.334739
v 0.727990 0.237003 0.381855
v 0.720865 0.257574 0.371558
v 0.720068 0.254000 0.364158
v 0.732512 0.249682 0.339692
v 0.749207 0.249499 0.330898
v 0.755181 0.250335 0.331886
v 0.763456 0.258539 0.336340
v 0.765381 0.264323 0.339501
v 0.759408 0.278635 0.344407
v 0.747316 0.274217 0.350166
v 0.728510 0.261831 0.366667
v 0.722445 0.261032 0.373512
v 0.723782 0.259561 0.381285
v 0.732740 0.245245 0.386979
v 0.722594 0.254083 0.377461
v 0.735193 0.233913 0.380977
v 0.742185 0.224432 0.367289
v 0.746371 0.219653 0.366999
v 0.766135 0.221033 0.365678
v 0.777096 0.242761 0.339939
v 0.775842 0.233218 0.336273
v 0.778083 0.220747 0.338421
v 0.752943 0.279267 0.345413
v 0.795313 0.234886 0.369656
v 0.786709 0.231674 0.376673
v 0.734049 0.257549 0.340787
v 0.745956 0.257117 0.336369
v 0.753230 0.256499 0.335270
v 0.755813 0.261985 0.337923
v 0.755950 0.268832 0.340978
v 0.725716 0.253453 0.347797
v 0.728278 0.257949 0.346566
v 0.735038 0.262402 0.360965
v 0.749482 0.267726 0.344514
v 0.734496 0.260756 0.356190
v 0.748542 0.261998 0.340379
v 0.733317 0.260640 0.348843
v 0.726518 0.258757 0.361757
v 0.719453 0.254326 0.370835
v 0.719895 0.249639 0.375165
v 0.724035 0.235221 0.379686
v 0.723351 0.229359 0.374898
v 0.737189 0.222752 0.357864
v 0.746459 0.216769 0.353498
v 0.761604 0.212370 0.351941
v 0.769105 0.211506 0.350642
v 0.726591 0.258935 0.353116
v 0.722390 0.254125 0.354342
v 0.733726 0.225938 0.369948
v 0.737225 0.228465 0.372455
v 0.731510 0.227931 0.365734
v 0.778424 0.214099 0.348618
v 0.786110 0.212825 0.346839
v 0.791372 0.230657 0.337207
v 0.790825 0.240661 0.339681
v 0.770370 0.246881 0.339552
v 0.768376 0.237837 0.338060
v 0.769366 0.222864 0.340981
v 0.756975 0.237931 0.335519
v 0.736289 0.237716 0.342606
v 0.759559 0.223586 0.342592
v 0.740306 0.223022 0.348234
v 0.727902 0.240876 0.350891
v 0.732179 0.226405 0.355723
v 0.718936 0.244810 0.368091
v 0.722928 0.242696 0.357914
v 0.725398 0.229661 0.363423
v 0.719970 0.235909 0.371754
v 0.721752 0.241795 0.378406
v 0.725423 0.245616 0.381468
v 0.727948 0.252504 0.384761
v 0.744442 0.232475 0.382595
v 0.748198 0.227572 0.377828
v 0.752410 0.226619 0.374995
v 0.767172 0.227694 0.373202
v 0.756683 0.217347 0.363265
v 0.740449 0.249947 0.333341
v 0.741328 0.265963 0.356433
v 0.756517 0.221676 0.367970
v 0.739927 0.257855 0.338317
v 0.741485 0.262894 0.351804
v 0.740255 0.261264 0.344553
v 0.755094 0.215210 0.353185
v 0.746698 0.236939 0.336343
v 0.749945 0.222919 0.343325
v 0.759731 0.226890 0.374199
v 0.739977 0.237385 0.384830
v 0.763641 0.271292 0.341782
v 0.731045 0.242575 0.384109
v 0.723608 0.256899 0.379107
v 0.721596 0.259340 0.372550
v 0.727844 0.259600 0.364622
v 0.748659 0.271602 0.347723
v 0.735023 0.261012 0.358865
v 0.726660 0.249228 0.383015
v 0.741655 0.264025 0.354435
v 0.754745 0.274641 0.342880
v 0.781357 0.243654 0.347736
v 0.774931 0.245949 0.347629
v 0.770047 0.254896 0.343437
v 0.786799 0.243884 0.347508
v 0.789738 0.244508 0.353189
v 0.790370 0.244363 0.360575
v 0.787467 0.241252 0.368043
v 0.783029 0.238056 0.373845
v 0.776601 0.235395 0.376138
v 0.766834 0.232369 0.377337
v 0.759803 0.233155 0.374631
v 0.754908 0.232886 0.375805
v 0.749712 0.234905 0.376942
v 0.746580 0.238165 0.379841
v 0.735867 0.249337 0.384643
v 0.732536 0.254276 0.382240
v 0.729374 0.258614 0.378092
v 0.728324 0.260752 0.373531
v 0.732458 0.261495 0.369018
v 0.737747 0.262063 0.365373
v 0.743175 0.263533 0.362219
v 0.750018 0.270333 0.355649
v 0.754864 0.277027 0.350765
v 0.763144 0.275638 0.349432
v 0.767203 0.266188 0.345632
v 0.775483 0.243235 0.355278
v 0.769626 0.254244 0.355524
v 0.761822 0.266292 0.359115
v 0.756378 0.264696 0.360238
v 0.765716 0.249061 0.361511
v 0.770787 0.244869 0.361730
v 0.751780 0.260925 0.363178
v 0.746403 0.258253 0.366911
v 0.741230 0.256845 0.370412
v 0.735001 0.257360 0.373983
v 0.740836 0.250847 0.376719
v 0.746431 0.250193 0.373332
v 0.752407 0.251887 0.370047
v 0.758747 0.256395 0.366364
v 0.759210 0.243135 0.366805
v 0.750092 0.243471 0.372746
v 0.742101 0.245012 0.381830
v 0.765389 0.239509 0.366321
v 0.776226 0.238879 0.368912
v 0.794182 0.226105 0.366087
v 0.788795 0.215844 0.360877
v 0.791614 0.217021 0.350439
v 0.791365 0.222236 0.339617
v 0.769036 0.236408 0.371589
f 45 46 24
f 45 24 23
f 74 38 39
f 74 39 75
f 69 8 5
f 69 5 63
f 63 75 39
f 63 39 69
f 76 74 75
f 76 75 78
f 49 43 21
f 49 21 48
f 61 3 2
f 61 2 60
f 65 64 49
f 65 49 48
f 60 2 66
f 60 66 68
f 84 81 60
f 84 60 68
f 59 68 66
f 59 66 1
f 86 85 59
f 86 59 58
f 32 19 56
f 32 56 57
f 32 57 86
f 32 86 87
f 84 68 59
f 84 59 85
f 82 57 56
f 82 56 20
f 85 86 57
f 85 57 82
f 83 84 85
f 83 85 82
f 82 20 65
f 82 65 83
f 83 65 48
f 83 48 80
f 83 80 81
f 83 81 84
f 67 66 2
f 67 2 34
f 35 34 2
f 35 2 3
f 22 23 74
f 22 74 76
f 96 93 4
f 96 4 36
f 53 46 45
f 53 45 44
f 96 35 3
f 96 3 93
f 44 45 23
f 44 23 22
f 44 22 94
f 44 94 97
f 94 21 43
f 94 43 97
f 54 43 49
f 54 49 64
f 99 53 44
f 99 44 97
f 99 97 43
f 99 43 54
f 54 52 98
f 54 98 99
f 63 5 4
f 63 4 62
f 62 4 93
f 62 93 100
f 78 75 63
f 78 63 62
f 80 48 21
f 80 21 77
f 93 3 61
f 93 61 100
f 77 21 94
f 77 94 101
f 102 100 61
f 102 61 79
f 94 22 76
f 94 76 101
f 102 78 62
f 102 62 100
f 79 61 60
f 79 60 81
f 81 80 77
f 81 77 79
f 79 77 101
f 79 101 102
f 101 76 78
f 101 78 102
f 18 58 59
f 18 59 1
f 64 65 20
f 64 20 55
f 108 19 32
f 108 32 107
f 53 99 98
f 53 98 51
f 55 52 54
f 55 54 64
f 55 20 56
f 55 56 19
f 55 19 108
f 55 108 109
f 111 52 55
f 111 55 109
f 107 32 87
f 107 87 112
f 113 98 52
f 113 52 111
f 51 98 113
f 51 113 110
f 47 46 53
f 47 53 51
f 114 47 51
f 114 51 110
f 18 87 86
f 18 86 58
f 106 112 87
f 106 87 18
f 1 33 106
f 1 106 18
f 1 66 67
f 1 67 33
f 37 15 16
f 37 16 38
f 73 37 38
f 73 38 74
f 74 23 24
f 74 24 73
f 25 24 46
f 25 46 47
f 103 96 36
f 103 36 92
f 91 35 96
f 91 96 103
f 90 34 35
f 90 35 91
f 89 67 34
f 89 34 90
f 112 106 31
f 112 31 88
f 107 112 88
f 107 88 30
f 108 107 30
f 108 30 29
f 28 109 108
f 28 108 29
f 111 109 28
f 111 28 50
f 113 111 50
f 113 50 95
f 110 113 95
f 110 95 27
f 114 110 27
f 114 27 40
f 114 40 26
f 114 26 105
f 105 25 47
f 105 47 114
f 117 73 24
f 117 24 25
f 14 72 118
f 14 118 119
f 118 72 15
f 118 15 115
f 116 37 73
f 116 73 117
f 115 15 37
f 115 37 116
f 138 26 40
f 138 40 137
f 140 119 118
f 140 118 115
f 13 14 119
f 13 119 120
f 137 40 27
f 137 27 136
f 136 27 95
f 136 95 135
f 135 95 50
f 135 50 134
f 134 50 28
f 134 28 133
f 28 29 132
f 28 132 133
f 132 29 30
f 132 30 131
f 131 30 88
f 131 88 130
f 149 133 132
f 149 132 131
f 148 134 133
f 148 133 149
f 147 135 134
f 147 134 148
f 146 136 135
f 146 135 147
f 146 143 137
f 146 137 136
f 153 146 147
f 153 147 152
f 152 147 148
f 152 148 151
f 151 148 149
f 151 149 150
f 149 131 130
f 149 130 150
f 104 31 106
f 104 106 33
f 156 129 31
f 156 31 104
f 104 33 67
f 104 67 89
f 104 89 128
f 104 128 156
f 130 88 31
f 130 31 129
f 156 150 130
f 156 130 129
f 128 89 90
f 128 90 127
f 155 156 128
f 155 128 127
f 155 151 150
f 155 150 156
f 127 90 91
f 127 91 126
f 154 155 127
f 154 127 126
f 154 152 151
f 154 151 155
f 120 119 140
f 120 140 145
f 121 122 42
f 121 42 41
f 41 13 120
f 41 120 121
f 7 42 122
f 7 122 123
f 36 4 5
f 36 5 6
f 6 7 92
f 6 92 36
f 10 42 7
f 10 7 6
f 10 159 41
f 10 41 42
f 6 5 8
f 6 8 9
f 9 8 69
f 9 69 70
f 11 13 41
f 11 41 159
f 11 159 10
f 11 10 160
f 10 6 9
f 10 9 160
f 14 13 11
f 14 11 12
f 161 160 9
f 161 9 70
f 39 38 16
f 39 16 17
f 17 70 69
f 17 69 39
f 72 14 12
f 72 12 71
f 71 16 15
f 71 15 72
f 12 11 160
f 12 160 161
f 161 70 17
f 161 17 162
f 162 71 12
f 162 12 161
f 162 17 16
f 162 16 71
f 105 26 138
f 105 138 139
f 139 138 142
f 139 142 141
f 117 25 105
f 117 105 139
f 141 116 117
f 141 117 139
f 141 140 115
f 141 115 116
f 144 145 140
f 144 140 141
f 142 153 144
f 142 144 141
f 142 138 137
f 142 137 143
f 142 143 146
f 142 146 153
f 144 153 152
f 144 152 154
f 145 144 154
f 145 154 157
f 157 154 126
f 157 126 125
f 158 121 120
f 158 120 145
f 123 122 121
f 123 121 158
f 92 7 123
f 92 123 124
f 158 145 157
f 158 157 163
f 103 92 124
f 103 124 125
f 125 124 163
f 125 163 157
f 126 91 103
f 126 103 125
f 124 123 158
f 124 158 163
