# Talus_R rest
v -0.079593 -1.238485 -0.076707
v -0.082611 -1.237683 -0.058873
v -0.083340 -1.242879 -0.048688
v -0.087525 -1.260667 -0.028567
v -0.088854 -1.266927 -0.018582
v -0.086611 -1.275936 -0.024158
v -0.088334 -1.281591 -0.029181
v -0.090622 -1.272081 -0.011261
v -0.089873 -1.278515 -0.007815
v -0.090576 -1.288833 -0.012164
v -0.102851 -1.296234 0.006390
v -0.107383 -1.292918 0.010396
v -0.106255 -1.299727 -0.001977
v -0.111326 -1.295375 0.002811
v -0.113242 -1.279832 -0.005001
v -0.110413 -1.274861 0.002244
v -0.104184 -1.272906 0.006967
v -0.081542 -1.240347 -0.083224
v -0.093776 -1.236542 -0.093477
v -0.094638 -1.231863 -0.089736
v -0.103665 -1.231769 -0.066305
v -0.110487 -1.243924 -0.045607
v -0.111494 -1.249897 -0.040686
v -0.115046 -1.261323 -0.038190
v -0.116891 -1.265770 -0.040290
v -0.120925 -1.266117 -0.054381
v -0.113484 -1.255249 -0.067987
v -0.097781 -1.241150 -0.088028
v -0.094898 -1.239615 -0.094350
v -0.091707 -1.243489 -0.095579
v -0.083772 -1.248288 -0.085177
v -0.090144 -1.239130 -0.093162
v -0.080989 -1.244567 -0.076040
v -0.082681 -1.242551 -0.059958
v -0.081976 -1.245563 -0.052772
v -0.086969 -1.264073 -0.032595
v -0.109849 -1.272592 -0.017129
v -0.107297 -1.268147 -0.011604
v -0.102046 -1.268432 -0.003693
v -0.119566 -1.260788 -0.061425
v -0.099082 -1.298863 -0.007678
v -0.092458 -1.291157 -0.019955
v -0.107107 -1.235659 -0.068824
v -0.110639 -1.244319 -0.055620
v -0.112228 -1.250501 -0.047577
v -0.114187 -1.255277 -0.048714
v -0.116379 -1.258497 -0.052761
v -0.101186 -1.230021 -0.077694
v -0.104119 -1.232973 -0.076812
v -0.100434 -1.243770 -0.081227
v -0.112747 -1.253027 -0.061012
v -0.101427 -1.241083 -0.078882
v -0.111492 -1.249084 -0.057590
v -0.104684 -1.238124 -0.075499
v -0.097920 -1.236758 -0.086347
v -0.092420 -1.234254 -0.092907
v -0.088764 -1.234973 -0.092340
v -0.081374 -1.236187 -0.084344
v -0.080677 -1.232440 -0.079955
v -0.085241 -1.234959 -0.058675
v -0.086472 -1.240775 -0.044173
v -0.088723 -1.253906 -0.025201
v -0.090767 -1.260809 -0.015826
v -0.101595 -1.233998 -0.082042
v -0.098584 -1.229958 -0.083710
v -0.081529 -1.237179 -0.068772
v -0.081741 -1.241229 -0.068628
v -0.083476 -1.234089 -0.070039
v -0.094976 -1.270252 -0.005589
v -0.097395 -1.277431 0.004963
v -0.110554 -1.284829 0.008263
v -0.113454 -1.287286 0.001267
v -0.109779 -1.266130 -0.027139
v -0.106076 -1.261586 -0.024069
v -0.099224 -1.260419 -0.016502
v -0.104493 -1.249322 -0.035379
v -0.097204 -1.232218 -0.059830
v -0.096197 -1.250945 -0.028971
v -0.089833 -1.234653 -0.050996
v -0.094026 -1.228791 -0.072736
v -0.086884 -1.230853 -0.063894
v -0.088974 -1.230010 -0.088229
v -0.091804 -1.228161 -0.080431
v -0.084756 -1.229190 -0.074291
v -0.084088 -1.230096 -0.084615
v -0.084343 -1.235547 -0.088748
v -0.085126 -1.240444 -0.089044
v -0.087397 -1.245769 -0.091136
v -0.080957 -1.252469 -0.068050
v -0.081152 -1.252636 -0.060314
v -0.082414 -1.255022 -0.054718
v -0.086758 -1.268906 -0.038813
v -0.084517 -1.253410 -0.039368
v -0.107985 -1.236890 -0.055558
v -0.104924 -1.248595 -0.074863
v -0.084038 -1.255441 -0.044551
v -0.109133 -1.239863 -0.062549
v -0.105198 -1.246033 -0.071526
v -0.107725 -1.242649 -0.067575
v -0.087674 -1.248399 -0.034491
v -0.101583 -1.239600 -0.045900
v -0.093587 -1.241800 -0.039040
v -0.084282 -1.261715 -0.046981
v -0.081679 -1.250893 -0.075130
v -0.119047 -1.266879 -0.046079
v -0.083295 -1.244925 -0.084446
v -0.091030 -1.241474 -0.094069
v -0.094340 -1.238047 -0.093986
v -0.097297 -1.239037 -0.086994
v -0.113300 -1.254668 -0.064716
v -0.100469 -1.242437 -0.079928
v -0.086329 -1.243046 -0.090212
v -0.104676 -1.247396 -0.073130
v -0.118463 -1.259978 -0.056888
v -0.107903 -1.279580 -0.016849
v -0.106847 -1.272905 -0.026031
v -0.111478 -1.268790 -0.033582
v -0.109895 -1.285661 -0.009940
v -0.108537 -1.290613 -0.009831
v -0.105419 -1.293264 -0.013220
v -0.100034 -1.291507 -0.019369
v -0.095062 -1.287827 -0.026100
v -0.091252 -1.281253 -0.033412
v -0.086968 -1.271012 -0.043548
v -0.086298 -1.262915 -0.050882
v -0.084717 -1.258607 -0.056372
v -0.084084 -1.254638 -0.063146
v -0.084022 -1.253937 -0.068663
v -0.086409 -1.250567 -0.084014
v -0.089164 -1.248381 -0.087846
v -0.092363 -1.245569 -0.090436
v -0.094864 -1.243522 -0.090371
v -0.096892 -1.244735 -0.086139
v -0.098746 -1.247299 -0.081044
v -0.101296 -1.250969 -0.075664
v -0.109161 -1.257627 -0.067566
v -0.116170 -1.263217 -0.061917
v -0.117732 -1.270018 -0.052420
v -0.115346 -1.269772 -0.042647
v -0.102339 -1.274962 -0.028436
v -0.105322 -1.271328 -0.040980
v -0.107895 -1.268270 -0.056174
v -0.105170 -1.262640 -0.062232
v -0.099010 -1.267366 -0.046867
v -0.098728 -1.272023 -0.038648
v -0.100757 -1.257690 -0.067565
v -0.096891 -1.253201 -0.073678
v -0.094396 -1.249995 -0.078863
v -0.093187 -1.247211 -0.084795
v -0.089538 -1.250734 -0.078861
v -0.090714 -1.253304 -0.073116
v -0.093542 -1.257630 -0.067046
v -0.098734 -1.263994 -0.060151
v -0.092320 -1.260683 -0.054518
v -0.088433 -1.254411 -0.066577
v -0.085742 -1.252791 -0.076475
v -0.092992 -1.266476 -0.044807
v -0.095193 -1.279073 -0.032341
v -0.096645 -1.294644 -0.002662
v -0.093228 -1.285043 -0.001088
v -0.099006 -1.285351 0.007475
v -0.105947 -1.283384 0.010859
v -0.091043 -1.271794 -0.040929
f 45 46 24
f 45 24 23
f 74 38 39
f 74 39 75
f 69 8 5
f 69 5 63
f 63 75 39
f 63 39 69
f 76 74 75
f 76 75 78
f 49 43 21
f 49 21 48
f 61 3 2
f 61 2 60
f 65 64 49
f 65 49 48
f 60 2 66
f 60 66 68
f 84 81 60
f 84 60 68
f 59 68 66
f 59 66 1
f 86 85 59
f 86 59 58
f 32 19 56
f 32 56 57
f 32 57 86
f 32 86 87
f 84 68 59
f 84 59 85
f 82 57 56
f 82 56 20
f 85 86 57
f 85 57 82
f 83 84 85
f 83 85 82
f 82 20 65
f 82 65 83
f 83 65 48
f 83 48 80
f 83 80 81
f 83 81 84
f 67 66 2
f 67 2 34
f 35 34 2
f 35 2 3
f 22 23 74
f 22 74 76
f 96 93 4
f 96 4 36
f 53 46 45
f 53 45 44
f 96 35 3
f 96 3 93
f 44 45 23
f 44 23 22
f 44 22 94
f 44 94 97
f 94 21 43
f 94 43 97
f 54 43 49
f 54 49 64
f 99 53 44
f 99 44 97
f 99 97 43
f 99 43 54
f 54 52 98
f 54 98 99
f 63 5 4
f 63 4 62
f 62 4 93
f 62 93 100
f 78 75 63
f 78 63 62
f 80 48 21
f 80 21 77
f 93 3 61
f 93 61 100
f 77 21 94
f 77 94 101
f 102 100 61
f 102 61 79
f 94 22 76
f 94 76 101
f 102 78 62
f 102 62 100
f 79 61 60
f 79 60 81
f 81 80 77
f 81 77 79
f 79 77 101
f 79 101 102
f 101 76 78
f 101 78 102
f 18 58 59
f 18 59 1
f 64 65 20
f 64 20 55
f 108 19 32
f 108 32 107
f 53 99 98
f 53 98 51
f 55 52 54
f 55 54 64
f 55 20 56
f 55 56 19
f 55 19 108
f 55 108 109
f 111 52 55
f 111 55 109
f 107 32 87
f 107 87 112
f 113 98 52
f 113 52 111
f 51 98 113
f 51 113 110
f 47 46 53
f 47 53 51
f 114 47 51
f 114 51 110
f 18 87 86
f 18 86 58
f 106 112 87
f 106 87 18
f 1 33 106
f 1 106 18
f 1 66 67
f 1 67 33
f 37 15 16
f 37 16 38
f 73 37 38
f 73 38 74
f 74 23 24
f 74 24 73
f 25 24 46
f 25 46 47
f 103 96 36
f 103 36 92
f 91 35 96
f 91 96 103
f 90 34 35
f 90 35 91
f 89 67 34
f 89 34 90
f 112 106 31
f 112 31 88
f 107 112 88
f 107 88 30
f 108 107 30
f 108 30 29
f 28 109 108
f 28 108 29
f 111 109 28
f 111 28 50
f 113 111 50
f 113 50 95
f 110 113 95
f 110 95 27
f 114 110 27
f 114 27 40
f 114 40 26
f 114 26 105
f 105 25 47
f 105 47 114
f 117 73 24
f 117 24 25
f 14 72 118
f 14 118 119
f 118 72 15
f 118 15 115
f 116 37 73
f 116 73 117
f 115 15 37
f 115 37 116
f 138 26 40
f 138 40 137
f 140 119 118
f 140 118 115
f 13 14 119
f 13 119 120
f 137 40 27
f 137 27 136
f 136 27 95
f 136 95 135
f 135 95 50
f 135 50 134
f 134 50 28
f 134 28 133
f 28 29 132
f 28 132 133
f 132 29 30
f 132 30 131
f 131 30 88
f 131 88 130
f 149 133 132
f 149 132 131
f 148 134 133
f 148 133 149
f 147 135 134
f 147 134 148
f 146 136 135
f 146 135 147
f 146 143 137
f 146 137 136
f 153 146 147
f 153 147 152
f 152 147 148
f 152 148 151
f 151 148 149
f 151 149 150
f 149 131 130
f 149 130 150
f 104 31 106
f 104 106 33
f 156 129 31
f 156 31 104
f 104 33 67
f 104 67 89
f 104 89 128
f 104 128 156
f 130 88 31
f 130 31 129
f 156 150 130
f 156 130 129
f 128 89 90
f 128 90 127
f 155 156 128
f 155 128 127
f 155 151 150
f 155 150 156
f 127 90 91
f 127 91 126
f 154 155 127
f 154 127 126
f 154 152 151
f 154 151 155
f 120 119 140
f 120 140 145
f 121 122 42
f 121 42 41
f 41 13 120
f 41 120 121
f 7 42 122
f 7 122 123
f 36 4 5
f 36 5 6
f 6 7 92
f 6 92 36
f 10 42 7
f 10 7 6
f 10 159 41
f 10 41 42
f 6 5 8
f 6 8 9
f 9 8 69
f 9 69 70
f 11 13 41
f 11 41 159
f 11 159 10
f 11 10 160
f 10 6 9
f 10 9 160
f 14 13 11
f 14 11 12
f 161 160 9
f 161 9 70
f 39 38 16
f 39 16 17
f 17 70 69
f 17 69 39
f 72 14 12
f 72 12 71
f 71 16 15
f 71 15 72
f 12 11 160
f 12 160 161
f 161 70 17
f 161 17 162
f 162 71 12
f 162 12 161
f 162 17 16
f 162 16 71
f 105 26 138
f 105 138 139
f 139 138 142
f 139 142 141
f 117 25 105
f 117 105 139
f 141 116 117
f 141 117 139
f 141 140 115
f 141 115 116
f 144 145 140
f 144 140 141
f 142 153 144
f 142 144 141
f 142 138 137
f 142 137 143
f 142 143 146
f 142 146 153
f 144 153 152
f 144 152 154
f 145 144 154
f 145 154 157
f 157 154 126
f 157 126 125
f 158 121 120
f 158 120 145
f 123 122 121
f 123 121 158
f 92 7 123
f 92 123 124
f 158 145 157
f 158 157 163
f 103 92 124
f 103 124 125
f 125 124 163
f 125 163 157
f 126 91 103
f 126 103 125
f 124 123 158
f 124 158 163
