# Talus_L posed
v 0.759855 -0.110906 0.364033
v 0.766541 -0.102842 0.351005
v 0.774442 -0.096545 0.346537
v 0.796860 -0.085226 0.340279
v 0.805808 -0.079346 0.336141
v 0.809990 -0.079493 0.344914
v 0.813202 -0.083049 0.350310
v 0.813080 -0.075607 0.333098
v 0.819055 -0.071939 0.334126
v 0.825756 -0.073553 0.341658
v 0.842531 -0.071354 0.328459
v 0.843055 -0.073132 0.322579
v 0.843509 -0.078557 0.334429
v 0.843702 -0.080458 0.327344
v 0.829633 -0.088958 0.324449
v 0.827380 -0.083081 0.318293
v 0.825295 -0.075508 0.316476
v 0.759702 -0.116106 0.368485
v 0.757707 -0.132595 0.368921
v 0.755691 -0.131777 0.363976
v 0.767199 -0.125037 0.345447
v 0.786492 -0.116288 0.335175
v 0.793193 -0.113278 0.334442
v 0.804242 -0.112888 0.336937
v 0.807671 -0.114900 0.339733
v 0.804677 -0.126283 0.347548
v 0.788524 -0.130214 0.354113
v 0.764569 -0.131887 0.366248
v 0.760212 -0.133534 0.370540
v 0.761623 -0.131120 0.374306
v 0.765970 -0.117869 0.372768
v 0.758462 -0.129121 0.371267
v 0.765214 -0.110763 0.366096
v 0.769854 -0.102864 0.354102
v 0.774536 -0.097500 0.351018
v 0.797819 -0.086697 0.344789
v 0.818380 -0.094600 0.330329
v 0.816003 -0.089906 0.325462
v 0.817160 -0.080879 0.322226
v 0.797558 -0.130201 0.350124
v 0.838215 -0.076264 0.340389
v 0.825448 -0.079398 0.347251
v 0.770629 -0.128670 0.347686
v 0.783275 -0.122324 0.341917
v 0.791482 -0.117874 0.339008
v 0.795529 -0.119368 0.341298
v 0.797481 -0.122979 0.344638
v 0.760920 -0.130106 0.352929
v 0.764620 -0.131458 0.352696
v 0.769876 -0.129597 0.362211
v 0.788907 -0.125870 0.348823
v 0.768990 -0.129402 0.359046
v 0.786559 -0.123461 0.345188
v 0.769199 -0.130381 0.354166
v 0.761804 -0.131668 0.363017
v 0.755634 -0.131521 0.367943
v 0.755034 -0.128153 0.369227
v 0.756073 -0.117248 0.367239
v 0.754483 -0.114615 0.362818
v 0.765444 -0.105276 0.348660
v 0.775582 -0.096687 0.341430
v 0.793351 -0.085149 0.334347
v 0.802803 -0.080142 0.330690
v 0.762598 -0.132425 0.357533
v 0.757791 -0.131625 0.357745
v 0.762250 -0.107972 0.357635
v 0.765449 -0.107479 0.359459
v 0.760103 -0.110784 0.356313
v 0.815292 -0.076018 0.326899
v 0.825547 -0.070557 0.322425
v 0.837245 -0.078144 0.318992
v 0.837705 -0.084283 0.323750
v 0.809781 -0.101482 0.333926
v 0.805975 -0.097382 0.331084
v 0.805288 -0.087500 0.327960
v 0.791910 -0.104685 0.333286
v 0.767310 -0.116015 0.343852
v 0.792368 -0.093957 0.332816
v 0.769639 -0.104425 0.341814
v 0.758935 -0.121683 0.351787
v 0.761044 -0.110337 0.349515
v 0.752692 -0.126631 0.364132
v 0.754968 -0.124564 0.357247
v 0.755366 -0.115058 0.356214
v 0.752259 -0.120520 0.363535
v 0.755108 -0.122376 0.368749
v 0.759049 -0.122454 0.371037
v 0.763296 -0.124705 0.374110
v 0.774104 -0.104776 0.364694
v 0.777005 -0.100297 0.359667
v 0.781259 -0.097629 0.356711
v 0.799255 -0.089526 0.351284
v 0.786294 -0.090350 0.345033
v 0.776608 -0.121279 0.339257
v 0.777545 -0.128635 0.358719
v 0.785795 -0.092791 0.349632
v 0.776834 -0.125916 0.344868
v 0.776811 -0.127273 0.355245
v 0.776616 -0.127401 0.350058
v 0.785354 -0.090720 0.338264
v 0.779601 -0.110083 0.336624
v 0.780778 -0.099234 0.336024
v 0.789866 -0.093502 0.354144
v 0.770679 -0.109820 0.368285
v 0.807380 -0.119822 0.343222
v 0.763425 -0.117572 0.370878
v 0.760302 -0.130004 0.372642
v 0.758910 -0.133115 0.369762
v 0.763094 -0.131219 0.364764
v 0.789120 -0.128235 0.351794
v 0.769295 -0.129066 0.360735
v 0.761101 -0.123720 0.372606
v 0.777102 -0.127606 0.357134
v 0.798045 -0.126800 0.347222
v 0.823120 -0.091848 0.334187
v 0.814258 -0.097498 0.337513
v 0.810197 -0.106256 0.338822
v 0.831068 -0.088390 0.331741
v 0.834443 -0.086483 0.334508
v 0.834151 -0.085583 0.339141
v 0.828619 -0.085175 0.344335
v 0.821554 -0.085731 0.348837
v 0.812437 -0.088032 0.351938
v 0.799288 -0.092204 0.355328
v 0.790081 -0.097325 0.356617
v 0.784222 -0.099979 0.358742
v 0.778515 -0.104121 0.361530
v 0.776035 -0.107457 0.364802
v 0.769045 -0.118981 0.372222
v 0.767042 -0.123799 0.372667
v 0.765161 -0.128317 0.371841
v 0.764523 -0.130587 0.369927
v 0.767620 -0.129535 0.367105
v 0.772006 -0.127627 0.364418
v 0.777660 -0.125911 0.361762
v 0.788753 -0.126252 0.356655
v 0.797885 -0.127495 0.352917
v 0.807085 -0.122060 0.349355
v 0.809317 -0.114488 0.343775
v 0.813278 -0.095035 0.341745
v 0.807131 -0.105426 0.347227
v 0.800466 -0.116899 0.354760
v 0.792887 -0.119223 0.357105
v 0.799535 -0.104540 0.351593
v 0.805994 -0.098690 0.348445
v 0.785434 -0.119684 0.359929
v 0.778335 -0.120939 0.363220
v 0.773150 -0.122497 0.365934
v 0.768582 -0.125429 0.368790
v 0.771959 -0.118481 0.367996
v 0.776301 -0.115663 0.365145
v 0.782797 -0.113674 0.362248
v 0.792150 -0.112719 0.358816
v 0.789108 -0.104782 0.355932
v 0.778585 -0.109785 0.362242
v 0.773063 -0.113662 0.368711
v 0.797358 -0.098612 0.351977
v 0.812487 -0.090960 0.348831
v 0.835830 -0.071945 0.335948
v 0.827729 -0.069663 0.331568
v 0.833128 -0.069197 0.323954
v 0.835372 -0.073085 0.318255
v 0.802236 -0.093863 0.352569
f 23 24 46
f 23 46 45
f 75 39 38
f 75 38 74
f 63 5 8
f 63 8 69
f 69 39 75
f 69 75 63
f 78 75 74
f 78 74 76
f 48 21 43
f 48 43 49
f 60 2 3
f 60 3 61
f 48 49 64
f 48 64 65
f 68 66 2
f 68 2 60
f 68 60 81
f 68 81 84
f 1 66 68
f 1 68 59
f 58 59 85
f 58 85 86
f 57 56 19
f 57 19 32
f 87 86 57
f 87 57 32
f 85 59 68
f 85 68 84
f 20 56 57
f 20 57 82
f 82 57 86
f 82 86 85
f 82 85 84
f 82 84 83
f 83 65 20
f 83 20 82
f 80 48 65
f 80 65 83
f 84 81 80
f 84 80 83
f 34 2 66
f 34 66 67
f 3 2 34
f 3 34 35
f 76 74 23
f 76 23 22
f 36 4 93
f 36 93 96
f 44 45 46
f 44 46 53
f 93 3 35
f 93 35 96
f 22 23 45
f 22 45 44
f 97 94 22
f 97 22 44
f 97 43 21
f 97 21 94
f 64 49 43
f 64 43 54
f 97 44 53
f 97 53 99
f 54 43 97
f 54 97 99
f 99 98 52
f 99 52 54
f 62 4 5
f 62 5 63
f 100 93 4
f 100 4 62
f 62 63 75
f 62 75 78
f 77 21 48
f 77 48 80
f 100 61 3
f 100 3 93
f 101 94 21
f 101 21 77
f 79 61 100
f 79 100 102
f 101 76 22
f 101 22 94
f 100 62 78
f 100 78 102
f 81 60 61
f 81 61 79
f 79 77 80
f 79 80 81
f 102 101 77
f 102 77 79
f 102 78 76
f 102 76 101
f 1 59 58
f 1 58 18
f 55 20 65
f 55 65 64
f 107 32 19
f 107 19 108
f 51 98 99
f 51 99 53
f 64 54 52
f 64 52 55
f 19 56 20
f 19 20 55
f 109 108 19
f 109 19 55
f 109 55 52
f 109 52 111
f 112 87 32
f 112 32 107
f 111 52 98
f 111 98 113
f 110 113 98
f 110 98 51
f 51 53 46
f 51 46 47
f 110 51 47
f 110 47 114
f 58 86 87
f 58 87 18
f 18 87 112
f 18 112 106
f 18 106 33
f 18 33 1
f 33 67 66
f 33 66 1
f 38 16 15
f 38 15 37
f 74 38 37
f 74 37 73
f 73 24 23
f 73 23 74
f 47 46 24
f 47 24 25
f 92 36 96
f 92 96 103
f 103 96 35
f 103 35 91
f 91 35 34
f 91 34 90
f 90 34 67
f 90 67 89
f 88 31 106
f 88 106 112
f 30 88 112
f 30 112 107
f 29 30 107
f 29 107 108
f 29 108 109
f 29 109 28
f 50 28 109
f 50 109 111
f 95 50 111
f 95 111 113
f 27 95 113
f 27 113 110
f 40 27 110
f 40 110 114
f 105 26 40
f 105 40 114
f 114 47 25
f 114 25 105
f 25 24 73
f 25 73 117
f 119 118 72
f 119 72 14
f 115 15 72
f 115 72 118
f 117 73 37
f 117 37 116
f 116 37 15
f 116 15 115
f 137 40 26
f 137 26 138
f 115 118 119
f 115 119 140
f 120 119 14
f 120 14 13
f 136 27 40
f 136 40 137
f 135 95 27
f 135 27 136
f 134 50 95
f 134 95 135
f 133 28 50
f 133 50 134
f 133 132 29
f 133 29 28
f 131 30 29
f 131 29 132
f 130 88 30
f 130 30 131
f 131 132 133
f 131 133 149
f 149 133 134
f 149 134 148
f 148 134 135
f 148 135 147
f 147 135 136
f 147 136 146
f 136 137 143
f 136 143 146
f 152 147 146
f 152 146 153
f 151 148 147
f 151 147 152
f 150 149 148
f 150 148 151
f 150 130 131
f 150 131 149
f 33 106 31
f 33 31 104
f 104 31 129
f 104 129 156
f 89 67 33
f 89 33 104
f 156 128 89
f 156 89 104
f 129 31 88
f 129 88 130
f 129 130 150
f 129 150 156
f 127 90 89
f 127 89 128
f 127 128 156
f 127 156 155
f 156 150 151
f 156 151 155
f 126 91 90
f 126 90 127
f 126 127 155
f 126 155 154
f 155 151 152
f 155 152 154
f 145 140 119
f 145 119 120
f 41 42 122
f 41 122 121
f 121 120 13
f 121 13 41
f 123 122 42
f 123 42 7
f 6 5 4
f 6 4 36
f 36 92 7
f 36 7 6
f 6 7 42
f 6 42 10
f 42 41 159
f 42 159 10
f 9 8 5
f 9 5 6
f 70 69 8
f 70 8 9
f 159 41 13
f 159 13 11
f 160 10 159
f 160 159 11
f 160 9 6
f 160 6 10
f 12 11 13
f 12 13 14
f 70 9 160
f 70 160 161
f 17 16 38
f 17 38 39
f 39 69 70
f 39 70 17
f 71 12 14
f 71 14 72
f 72 15 16
f 72 16 71
f 161 160 11
f 161 11 12
f 162 17 70
f 162 70 161
f 161 12 71
f 161 71 162
f 71 16 17
f 71 17 162
f 139 138 26
f 139 26 105
f 141 142 138
f 141 138 139
f 139 105 25
f 139 25 117
f 139 117 116
f 139 116 141
f 116 115 140
f 116 140 141
f 141 140 145
f 141 145 144
f 141 144 153
f 141 153 142
f 143 137 138
f 143 138 142
f 153 146 143
f 153 143 142
f 154 152 153
f 154 153 144
f 157 154 144
f 157 144 145
f 125 126 154
f 125 154 157
f 145 120 121
f 145 121 158
f 158 121 122
f 158 122 123
f 124 123 7
f 124 7 92
f 163 157 145
f 163 145 158
f 125 124 92
f 125 92 103
f 157 163 124
f 157 124 125
f 125 103 91
f 125 91 126
f 163 158 123
f 163 123 124
