# Tibia_R posed
v 0.346650 0.164296 0.301301
v 0.349879 0.162547 0.306321
v 0.349207 0.159110 0.298805
v 0.350995 0.158851 0.304622
v 0.351643 0.152327 0.299969
v 0.352304 0.153383 0.304429
v 0.344809 0.167981 0.307296
v 0.349528 0.165913 0.310753
v 0.343171 0.171283 0.313646
v 0.349169 0.168474 0.315065
v 0.342543 0.174218 0.319734
v 0.348160 0.171270 0.321073
v 0.341692 0.175522 0.327726
v 0.347684 0.171958 0.327315
v 0.342966 0.175465 0.332776
v 0.347298 0.172153 0.333084
v 0.345136 0.174933 0.339442
v 0.349178 0.170422 0.337033
v 0.348340 0.170020 0.343902
v 0.350434 0.167483 0.339940
v 0.352657 0.160327 0.343423
v 0.352475 0.161636 0.339736
v 0.353899 0.156272 0.335663
v 0.354113 0.153402 0.338626
v 0.353894 0.151836 0.329506
v 0.353914 0.148800 0.332361
v 0.353122 0.148521 0.322157
v 0.352908 0.144740 0.323990
v 0.353013 0.146963 0.315882
v 0.353078 0.142947 0.316294
v 0.353081 0.149765 0.307979
v 0.352392 0.146285 0.305498
v 0.340223 0.183929 0.320139
v 0.342905 0.183001 0.315205
v 0.339056 0.186164 0.326273
v 0.339599 0.191491 0.332189
v 0.343161 0.189487 0.319462
v 0.341250 0.190783 0.324814
v 0.341194 0.193908 0.327775
v 0.344127 0.188068 0.314549
v 0.345388 0.182432 0.308204
v 0.344725 0.187088 0.309749
v 0.345803 0.183484 0.302937
v 0.345057 0.187184 0.305011
v 0.345281 0.186964 0.297618
v 0.344199 0.189894 0.300985
v 0.343924 0.193258 0.295987
v 0.343029 0.193790 0.300225
v 0.342335 0.200231 0.297348
v 0.341869 0.199622 0.301344
v 0.340976 0.207137 0.301285
v 0.341084 0.204262 0.304205
v 0.339823 0.211672 0.306126
v 0.340178 0.207732 0.308167
v 0.339413 0.213879 0.311455
v 0.339719 0.209627 0.313252
v 0.339577 0.213505 0.318409
v 0.339852 0.209570 0.318188
v 0.340151 0.210155 0.324164
v 0.340453 0.207653 0.322163
v 0.341321 0.204683 0.328822
v 0.341529 0.203605 0.325892
v 0.342037 0.198748 0.328402
v 0.342111 0.198665 0.331879
v 0.342690 0.179050 0.319079
v 0.345288 0.177465 0.313516
v 0.341957 0.180766 0.325968
v 0.344046 0.184450 0.332862
v 0.350926 0.182415 0.341376
v 0.356382 0.175132 0.347122
v 0.361089 0.165441 0.346053
v 0.364117 0.156794 0.339979
v 0.365091 0.152057 0.332958
v 0.364599 0.150362 0.325159
v 0.364280 0.149817 0.316694
v 0.363744 0.151786 0.307447
v 0.360460 0.153474 0.298087
v 0.353209 0.162642 0.292645
v 0.349663 0.169715 0.297826
v 0.348838 0.175557 0.306861
v 0.349197 0.198833 0.336238
v 0.349888 0.206874 0.330550
v 0.347677 0.212121 0.324375
v 0.345747 0.217693 0.318785
v 0.347473 0.217225 0.310475
v 0.348640 0.214697 0.303514
v 0.348828 0.209870 0.297889
v 0.349785 0.202340 0.294544
v 0.349814 0.195844 0.294043
v 0.350671 0.187679 0.293802
v 0.350121 0.181498 0.297678
v 0.352775 0.176915 0.297258
v 0.354949 0.171193 0.296516
v 0.355021 0.184283 0.293327
v 0.342360 0.176631 0.319039
v 0.344054 0.174236 0.313040
v 0.341262 0.178446 0.326591
v 0.341356 0.181272 0.319363
v 0.344151 0.180285 0.314359
v 0.340568 0.183484 0.326029
v 0.343843 0.179463 0.331921
v 0.341127 0.187490 0.333507
v 0.346655 0.179827 0.340639
v 0.351588 0.172080 0.346471
v 0.356160 0.162115 0.345174
v 0.358628 0.152647 0.339400
v 0.358922 0.147173 0.332133
v 0.358269 0.144381 0.324353
v 0.357613 0.142936 0.314572
v 0.356709 0.145271 0.305419
v 0.355021 0.151701 0.297614
v 0.350388 0.160348 0.294624
v 0.347836 0.167025 0.298594
v 0.346422 0.171969 0.306181
v 0.343654 0.198672 0.334695
v 0.342772 0.206213 0.331312
v 0.341595 0.212218 0.325767
v 0.341285 0.215953 0.318905
v 0.342122 0.216291 0.310957
v 0.342648 0.213383 0.304777
v 0.343535 0.208229 0.299698
v 0.344823 0.201195 0.295832
v 0.346480 0.193734 0.294217
v 0.347844 0.185927 0.295893
v 0.347897 0.181126 0.301410
v 0.347681 0.179816 0.308045
v 0.356308 0.191444 0.293926
v 0.357207 0.197667 0.294890
v 0.356497 0.203927 0.293689
v 0.354773 0.210601 0.297787
v 0.353455 0.214638 0.304245
v 0.350503 0.216809 0.311816
v 0.354543 0.209569 0.322539
v 0.356672 0.209437 0.314189
v 0.358590 0.208443 0.307639
v 0.360785 0.207012 0.303637
v 0.364003 0.203688 0.294106
v 0.365870 0.204105 0.300029
v 0.371667 0.199240 0.293514
v 0.374590 0.200584 0.298145
v 0.384412 0.197160 0.296976
v 0.384521 0.199478 0.301357
v 0.362696 0.200754 0.292585
v 0.371360 0.196461 0.292041
v 0.384028 0.194744 0.294332
v 0.363049 0.195482 0.293160
v 0.362978 0.190807 0.292509
v 0.361358 0.184669 0.291507
v 0.361587 0.178909 0.291272
v 0.355985 0.206608 0.327878
v 0.353985 0.197208 0.334980
v 0.350138 0.188209 0.338084
v 0.366159 0.198796 0.330451
v 0.356093 0.185231 0.342592
v 0.360503 0.187740 0.341219
v 0.362853 0.178000 0.346751
v 0.367061 0.169618 0.346265
v 0.370147 0.160619 0.339255
v 0.370633 0.156974 0.332119
v 0.370991 0.157254 0.325025
v 0.370503 0.157777 0.317625
v 0.369826 0.159555 0.308267
v 0.366451 0.160465 0.298829
v 0.358518 0.166744 0.294953
v 0.368140 0.180538 0.344014
v 0.374165 0.172654 0.343428
v 0.376572 0.164573 0.336960
v 0.377066 0.162782 0.330229
v 0.377055 0.163962 0.323740
v 0.376310 0.165605 0.316719
v 0.375385 0.166048 0.307905
v 0.371622 0.166950 0.298239
v 0.364018 0.168187 0.292650
v 0.362397 0.173017 0.291685
v 0.366320 0.190967 0.336552
v 0.383875 0.174869 0.338206
v 0.383543 0.168382 0.335121
v 0.383770 0.166207 0.328709
v 0.383474 0.167376 0.322025
v 0.382888 0.168530 0.315324
v 0.381491 0.169679 0.306440
v 0.381361 0.172394 0.298560
v 0.371953 0.174073 0.291110
v 0.381263 0.176605 0.292596
v 0.370553 0.179224 0.289059
v 0.370534 0.185160 0.289956
v 0.371232 0.189843 0.291598
v 0.371585 0.192833 0.291879
v 0.383640 0.191136 0.292473
v 0.383336 0.188780 0.290636
v 0.366245 0.205847 0.316464
v 0.366684 0.204850 0.308177
v 0.375629 0.204245 0.308331
v 0.375089 0.205224 0.317195
v 0.383203 0.203934 0.317956
v 0.383713 0.202920 0.308834
v 0.365340 0.205367 0.323231
v 0.374713 0.204008 0.324547
v 0.382980 0.202895 0.325466
v 0.365354 0.202959 0.327576
v 0.374958 0.201374 0.328258
v 0.382880 0.199964 0.328805
v 0.375116 0.197801 0.330758
v 0.383124 0.196599 0.330941
v 0.373819 0.183831 0.340862
v 0.383142 0.186126 0.336798
v 0.381765 0.180760 0.289861
v 0.383027 0.185167 0.289159
v 0.375461 0.187908 0.337240
v 0.374546 0.192480 0.333720
v 0.383379 0.191684 0.333279
v 0.398208 0.200524 0.327608
v 0.410588 0.196565 0.331882
v 0.407409 0.192900 0.333100
v 0.396681 0.197551 0.330643
v 0.395322 0.194721 0.331976
v 0.402288 0.190092 0.333389
v 0.402539 0.185028 0.333744
v 0.402886 0.180578 0.333333
v 0.403341 0.175941 0.330826
v 0.402916 0.172636 0.325623
v 0.402533 0.171947 0.319911
v 0.402147 0.172748 0.315167
v 0.387191 0.171435 0.305049
v 0.392426 0.171950 0.308997
v 0.384839 0.173070 0.298597
v 0.403258 0.174287 0.310409
v 0.403812 0.175864 0.304731
v 0.395155 0.173254 0.304403
v 0.390404 0.172268 0.301592
v 0.388861 0.173211 0.297860
v 0.389993 0.176136 0.294270
v 0.386192 0.177223 0.293732
v 0.388447 0.181255 0.291385
v 0.392404 0.185382 0.291170
v 0.393955 0.178689 0.292295
v 0.399961 0.184892 0.291407
v 0.394622 0.191664 0.293099
v 0.409982 0.194875 0.297006
v 0.394280 0.189149 0.291646
v 0.406985 0.189556 0.293443
v 0.394914 0.194711 0.295880
v 0.396252 0.197778 0.300182
v 0.396931 0.200883 0.306987
v 0.398429 0.202465 0.315685
v 0.398952 0.200960 0.323793
v 0.395018 0.174357 0.297035
v 0.403157 0.178396 0.296028
v 0.411442 0.197972 0.301209
v 0.411440 0.199984 0.305278
v 0.411563 0.202332 0.313818
v 0.411693 0.201408 0.322290
v 0.410687 0.199097 0.328283
v 0.411353 0.183959 0.295332
v 0.413466 0.180410 0.301062
v 0.414551 0.178027 0.307236
v 0.415909 0.176570 0.312337
v 0.416709 0.175190 0.318330
v 0.417531 0.175902 0.325263
v 0.417544 0.179412 0.330141
v 0.415925 0.185558 0.332673
v 0.413664 0.189466 0.333345
v 0.425061 0.193163 0.298085
v 0.424334 0.197230 0.301177
v 0.425184 0.186926 0.298103
v 0.425526 0.183325 0.302474
v 0.424161 0.199929 0.304909
v 0.424180 0.202087 0.310032
v 0.424086 0.203315 0.317328
v 0.424029 0.201886 0.324616
v 0.421863 0.198367 0.330435
v 0.422234 0.194742 0.332708
v 0.425627 0.180615 0.307747
v 0.425949 0.178701 0.312894
v 0.426470 0.176726 0.318628
v 0.426425 0.177010 0.325418
v 0.425473 0.180384 0.330111
v 0.423685 0.188572 0.332871
v 0.454439 0.205451 0.332517
v 0.455016 0.201002 0.334769
v 0.456110 0.194468 0.334285
v 0.457083 0.186379 0.331702
v 0.457736 0.182767 0.327078
v 0.458285 0.182224 0.320758
v 0.458330 0.184523 0.315403
v 0.458606 0.187156 0.310016
v 0.459274 0.189922 0.305404
v 0.458528 0.194436 0.301200
v 0.458037 0.199555 0.301086
v 0.457147 0.204585 0.304316
v 0.456602 0.207604 0.307790
v 0.456416 0.210095 0.312994
v 0.455987 0.210790 0.320111
v 0.455451 0.209324 0.326783
v 0.530857 0.197978 0.328746
v 0.530985 0.199442 0.324453
v 0.531449 0.201357 0.320709
v 0.531022 0.203852 0.316433
v 0.530822 0.207605 0.313208
v 0.529542 0.213124 0.311769
v 0.527937 0.218410 0.313716
v 0.526485 0.222299 0.316487
v 0.524922 0.225313 0.320726
v 0.523259 0.226626 0.326147
v 0.522285 0.225358 0.331423
v 0.522917 0.220535 0.335910
v 0.524274 0.214206 0.337884
v 0.524842 0.207603 0.339462
v 0.526444 0.200321 0.337658
v 0.528921 0.197344 0.333658
v 0.494924 0.189201 0.324465
v 0.494834 0.190938 0.319396
v 0.495437 0.193497 0.314891
v 0.495266 0.196686 0.310714
v 0.494600 0.201145 0.307663
v 0.493710 0.206140 0.307387
v 0.492564 0.210936 0.309751
v 0.491649 0.214206 0.312800
v 0.490791 0.216992 0.317168
v 0.489766 0.218223 0.323166
v 0.489071 0.216837 0.328826
v 0.488763 0.212448 0.333634
v 0.489644 0.207556 0.335990
v 0.490501 0.201058 0.336569
v 0.491764 0.193417 0.334580
v 0.493396 0.189863 0.330487
v 0.610298 0.239311 0.346484
v 0.611089 0.232817 0.349564
v 0.611525 0.226487 0.352031
v 0.611644 0.221304 0.352192
v 0.611827 0.217512 0.349956
v 0.612692 0.216351 0.345707
v 0.613109 0.217109 0.341562
v 0.613557 0.218756 0.337570
v 0.613906 0.220841 0.333315
v 0.613520 0.223567 0.329820
v 0.612503 0.228401 0.328181
v 0.611699 0.233223 0.328610
v 0.610683 0.237683 0.330148
v 0.609517 0.241718 0.332769
v 0.608648 0.243981 0.337140
v 0.608838 0.243574 0.342999
v 0.682307 0.256177 0.357045
v 0.683905 0.251456 0.361045
v 0.685240 0.244300 0.364486
v 0.685243 0.236494 0.366494
v 0.685187 0.229099 0.365407
v 0.686650 0.225549 0.360225
v 0.686533 0.224745 0.354478
v 0.686842 0.226055 0.349718
v 0.686937 0.228484 0.345691
v 0.686090 0.232678 0.342116
v 0.685997 0.237945 0.340230
v 0.685716 0.243929 0.339210
v 0.684826 0.249959 0.339108
v 0.683818 0.256148 0.340891
v 0.681103 0.258839 0.345167
v 0.681907 0.258975 0.352315
v 0.568904 0.225017 0.343078
v 0.567682 0.230719 0.340821
v 0.569360 0.219017 0.345135
v 0.569485 0.212331 0.344559
v 0.571030 0.208565 0.341707
v 0.572321 0.208347 0.337337
v 0.572665 0.209448 0.333110
v 0.573313 0.211186 0.329604
v 0.573434 0.213656 0.325544
v 0.572762 0.216943 0.321753
v 0.571770 0.221387 0.319636
v 0.570687 0.226838 0.320840
v 0.569365 0.230711 0.323285
v 0.567932 0.234127 0.326724
v 0.566645 0.236459 0.331526
v 0.566561 0.235724 0.337377
v 0.649027 0.241967 0.355672
v 0.648177 0.247606 0.352270
v 0.650227 0.235255 0.358975
v 0.649994 0.228577 0.360512
v 0.649414 0.223604 0.358398
v 0.650057 0.222249 0.353159
v 0.650315 0.222728 0.348555
v 0.650535 0.223754 0.344279
v 0.650997 0.225493 0.340210
v 0.650482 0.229088 0.336841
v 0.649660 0.233842 0.335488
v 0.649142 0.238755 0.335557
v 0.648477 0.243664 0.336436
v 0.647319 0.248353 0.338151
v 0.646370 0.251580 0.341958
v 0.646819 0.251212 0.348269
v 0.713116 0.270461 0.362025
v 0.717800 0.269266 0.351648
v 0.716668 0.264740 0.337698
v 0.718392 0.267783 0.344091
v 0.722201 0.249449 0.337440
v 0.719951 0.257842 0.336011
v 0.713927 0.266069 0.368331
v 0.717168 0.258462 0.372302
v 0.719153 0.248422 0.372631
v 0.721961 0.236968 0.368962
v 0.727366 0.222464 0.366886
v 0.729026 0.218674 0.357585
v 0.729275 0.219409 0.349177
v 0.727025 0.224488 0.343746
v 0.724516 0.232461 0.340831
v 0.723160 0.241777 0.339745
v 0.745324 0.218156 0.359445
v 0.740277 0.220995 0.368668
v 0.739265 0.218272 0.349771
v 0.736723 0.224807 0.343784
v 0.733863 0.232045 0.341814
v 0.729587 0.242422 0.339718
v 0.728876 0.251814 0.337936
v 0.729564 0.261153 0.336703
v 0.730480 0.266235 0.337628
v 0.728453 0.269543 0.343872
v 0.726936 0.270424 0.354019
v 0.725250 0.270805 0.364739
v 0.725370 0.267772 0.371009
v 0.722493 0.260350 0.374331
v 0.723586 0.249300 0.374586
v 0.728701 0.237666 0.371414
v 0.747783 0.225895 0.367146
v 0.750286 0.223789 0.360564
v 0.731561 0.238508 0.368158
v 0.727205 0.249857 0.370348
v 0.727161 0.260559 0.369673
v 0.730546 0.265764 0.368353
v 0.730187 0.267405 0.363738
v 0.730404 0.267302 0.354885
v 0.732617 0.266646 0.346784
v 0.734418 0.265006 0.342529
v 0.731479 0.260324 0.342171
v 0.730460 0.252521 0.343562
v 0.732786 0.241074 0.344869
v 0.738320 0.231681 0.346227
v 0.752848 0.224600 0.354919
v 0.748252 0.222314 0.351072
v 0.746644 0.223528 0.348793
v 0.744707 0.228538 0.347441
v 0.738272 0.234139 0.363790
v 0.747758 0.232824 0.363080
v 0.750206 0.231170 0.359598
v 0.752624 0.231155 0.355102
v 0.749799 0.229832 0.350336
v 0.737163 0.231574 0.351598
v 0.739524 0.231907 0.360708
v 0.737866 0.231612 0.356335
v 0.728281 0.249471 0.364881
v 0.728361 0.261074 0.364149
v 0.730420 0.261324 0.348134
v 0.729706 0.252016 0.350242
v 0.731111 0.241443 0.350962
v 0.728676 0.261033 0.356614
v 0.728537 0.250333 0.358372
v 0.732901 0.238161 0.358090
v 0.353077 0.159596 0.310900
v 0.353537 0.162290 0.317161
v 0.352791 0.165111 0.324163
v 0.351638 0.167494 0.330322
v 0.353787 0.161906 0.333621
v 0.354506 0.157473 0.327470
v 0.354213 0.154272 0.320017
v 0.353692 0.153277 0.312670
v 0.343222 0.198513 0.305328
v 0.343235 0.202033 0.311063
v 0.342108 0.205110 0.316922
v 0.343095 0.195679 0.322553
v 0.344304 0.192893 0.317138
v 0.344792 0.190026 0.310395
v 0.344466 0.193841 0.307331
v 0.344513 0.197283 0.313791
v 0.343090 0.200805 0.320416
v 0.733573 0.216730 0.358295
v 0.731860 0.221432 0.368421
v 0.731861 0.218308 0.349219
v 0.730977 0.223106 0.343303
v 0.727043 0.232044 0.340403
v 0.725525 0.241677 0.338743
v 0.724162 0.250005 0.335959
v 0.722588 0.258700 0.334492
v 0.719038 0.266063 0.336596
v 0.719497 0.268922 0.344043
v 0.718955 0.270631 0.351897
v 0.714758 0.271193 0.362876
v 0.715723 0.267369 0.369346
v 0.718508 0.259150 0.373476
v 0.720418 0.248711 0.374139
v 0.724873 0.236497 0.371064
f 113 112 3
f 113 3 1
f 1 7 114
f 1 114 113
f 112 111 5
f 112 5 3
f 111 110 32
f 111 32 5
f 7 9 96
f 7 96 114
f 9 11 95
f 9 95 96
f 11 13 97
f 11 97 95
f 13 15 101
f 13 101 97
f 15 17 103
f 15 103 101
f 17 19 104
f 17 104 103
f 19 21 105
f 19 105 104
f 21 24 106
f 21 106 105
f 24 26 107
f 24 107 106
f 26 28 108
f 26 108 107
f 28 30 109
f 28 109 108
f 30 32 110
f 30 110 109
f 33 34 99
f 33 99 98
f 98 100 35
f 98 35 33
f 34 41 126
f 34 126 99
f 100 102 36
f 100 36 35
f 102 115 64
f 102 64 36
f 41 43 125
f 41 125 126
f 43 45 124
f 43 124 125
f 45 47 123
f 45 123 124
f 47 49 122
f 47 122 123
f 49 51 121
f 49 121 122
f 51 53 120
f 51 120 121
f 53 55 119
f 53 119 120
f 55 57 118
f 55 118 119
f 57 59 117
f 57 117 118
f 59 61 116
f 59 116 117
f 61 64 115
f 61 115 116
f 65 67 100
f 65 100 98
f 95 97 67
f 95 67 65
f 98 99 66
f 98 66 65
f 65 66 96
f 65 96 95
f 66 99 126
f 66 126 80
f 66 80 114
f 66 114 96
f 97 101 68
f 97 68 67
f 113 114 80
f 113 80 79
f 126 125 91
f 126 91 80
f 90 91 125
f 90 125 124
f 89 90 124
f 89 124 123
f 88 89 123
f 88 123 122
f 87 88 122
f 87 122 121
f 86 87 121
f 86 121 120
f 85 86 120
f 85 120 119
f 119 118 84
f 119 84 85
f 83 84 118
f 83 118 117
f 132 85 84
f 132 84 83
f 131 86 85
f 131 85 132
f 130 87 86
f 130 86 131
f 129 88 87
f 129 87 130
f 128 89 88
f 128 88 129
f 129 130 137
f 129 137 143
f 127 90 89
f 127 89 128
f 94 91 90
f 94 90 127
f 92 80 91
f 92 91 94
f 82 83 117
f 82 117 116
f 102 100 67
f 102 67 68
f 69 68 101
f 69 101 103
f 70 69 103
f 70 103 104
f 71 70 104
f 71 104 105
f 72 71 105
f 72 105 106
f 73 72 106
f 73 106 107
f 74 73 107
f 74 107 108
f 75 74 108
f 75 108 109
f 76 75 109
f 76 109 110
f 77 76 110
f 77 110 111
f 78 77 111
f 78 111 112
f 112 113 79
f 112 79 78
f 156 154 69
f 156 69 70
f 157 156 70
f 157 70 71
f 158 157 71
f 158 71 72
f 159 158 72
f 159 72 73
f 160 159 73
f 160 73 74
f 161 160 74
f 161 74 75
f 161 75 76
f 161 76 162
f 163 162 76
f 163 76 77
f 164 163 77
f 164 77 78
f 93 79 80
f 93 80 92
f 164 78 79
f 164 79 93
f 167 166 157
f 167 157 158
f 168 167 158
f 168 158 159
f 169 168 159
f 169 159 160
f 170 169 160
f 170 160 161
f 171 170 161
f 171 161 162
f 172 171 162
f 172 162 163
f 173 172 163
f 173 163 164
f 173 164 93
f 173 93 174
f 183 172 173
f 183 173 174
f 174 93 92
f 174 92 149
f 149 92 94
f 149 94 148
f 148 94 127
f 148 127 147
f 146 128 129
f 146 129 143
f 147 127 128
f 147 128 146
f 144 143 137
f 144 137 139
f 188 146 143
f 188 143 144
f 187 147 146
f 187 146 188
f 136 130 131
f 136 131 135
f 131 132 134
f 131 134 135
f 138 137 130
f 138 130 136
f 139 137 138
f 139 138 140
f 138 136 135
f 138 135 192
f 193 140 138
f 193 138 192
f 192 135 134
f 192 134 191
f 134 132 83
f 134 83 133
f 194 193 192
f 194 192 191
f 133 83 82
f 133 82 150
f 197 191 134
f 197 134 133
f 194 191 197
f 194 197 198
f 197 133 150
f 197 150 200
f 198 197 200
f 198 200 201
f 185 183 174
f 185 174 149
f 186 185 149
f 186 149 148
f 186 148 147
f 186 147 187
f 115 102 68
f 115 68 81
f 81 68 152
f 81 152 151
f 82 116 115
f 82 115 81
f 151 150 82
f 151 82 81
f 153 200 150
f 153 150 151
f 151 152 154
f 151 154 155
f 152 68 69
f 152 69 154
f 165 155 154
f 165 154 156
f 165 156 157
f 165 157 166
f 175 153 151
f 175 151 155
f 175 155 165
f 175 165 205
f 203 201 200
f 203 200 153
f 210 175 205
f 210 205 209
f 210 203 153
f 210 153 175
f 199 198 201
f 199 201 202
f 202 201 203
f 202 203 204
f 215 202 204
f 215 204 216
f 211 204 203
f 211 203 210
f 217 216 204
f 217 204 211
f 211 210 209
f 211 209 206
f 206 209 205
f 206 205 176
f 205 165 166
f 205 166 176
f 177 176 166
f 177 166 167
f 178 177 167
f 178 167 168
f 179 178 168
f 179 168 169
f 180 179 169
f 180 169 170
f 180 170 171
f 180 171 181
f 182 181 171
f 182 171 172
f 225 180 181
f 225 181 224
f 224 181 182
f 224 182 226
f 182 172 183
f 182 183 184
f 233 226 182
f 233 182 184
f 207 184 183
f 207 183 185
f 208 207 185
f 208 185 186
f 234 233 184
f 234 184 207
f 208 186 187
f 208 187 190
f 190 187 188
f 190 188 189
f 235 234 207
f 235 207 208
f 240 235 208
f 240 208 190
f 240 190 189
f 240 189 238
f 189 188 144
f 189 144 145
f 145 144 139
f 145 139 141
f 141 139 140
f 141 140 142
f 142 140 193
f 142 193 196
f 195 194 198
f 195 198 199
f 196 193 194
f 196 194 195
f 212 199 202
f 212 202 215
f 231 230 224
f 231 224 226
f 231 226 233
f 231 233 232
f 229 225 224
f 229 224 230
f 232 233 234
f 232 234 236
f 229 230 231
f 229 231 247
f 247 231 232
f 247 232 236
f 237 236 234
f 237 234 235
f 242 238 189
f 242 189 145
f 243 242 145
f 243 145 141
f 244 243 141
f 244 141 142
f 245 244 142
f 245 142 196
f 246 245 196
f 246 196 195
f 246 195 199
f 246 199 212
f 248 247 236
f 248 236 237
f 228 229 247
f 228 247 248
f 227 225 229
f 227 229 228
f 223 180 225
f 223 225 227
f 222 179 180
f 222 180 223
f 221 178 179
f 221 179 222
f 220 177 178
f 220 178 221
f 219 176 177
f 219 177 220
f 218 206 176
f 218 176 219
f 218 217 211
f 218 211 206
f 214 215 216
f 214 216 217
f 241 237 235
f 241 235 240
f 241 240 238
f 241 238 239
f 248 237 241
f 248 241 254
f 228 248 254
f 228 254 255
f 249 239 238
f 249 238 242
f 249 242 243
f 249 243 250
f 250 243 244
f 250 244 251
f 251 244 245
f 251 245 252
f 252 245 246
f 252 246 253
f 227 228 255
f 227 255 256
f 223 227 256
f 223 256 257
f 222 223 257
f 222 257 258
f 221 222 258
f 221 258 259
f 220 221 259
f 220 259 260
f 219 220 260
f 219 260 261
f 213 212 215
f 213 215 214
f 253 246 212
f 253 212 213
f 218 219 261
f 218 261 262
f 214 217 218
f 214 218 262
f 272 271 253
f 272 253 213
f 272 213 214
f 272 214 262
f 272 262 261
f 272 261 278
f 278 261 260
f 278 260 277
f 277 260 259
f 277 259 276
f 276 259 258
f 276 258 275
f 275 258 257
f 275 257 274
f 274 257 256
f 274 256 273
f 273 256 255
f 273 255 266
f 266 255 254
f 266 254 265
f 265 254 241
f 265 241 263
f 264 263 241
f 264 241 239
f 264 239 249
f 264 249 267
f 268 267 249
f 268 249 250
f 269 268 250
f 269 250 251
f 270 269 251
f 270 251 252
f 270 252 253
f 270 253 271
f 294 270 271
f 294 271 279
f 279 271 272
f 279 272 280
f 279 280 323
f 279 323 322
f 322 321 294
f 322 294 279
f 280 272 278
f 280 278 281
f 280 281 324
f 280 324 323
f 281 278 277
f 281 277 282
f 281 282 325
f 281 325 324
f 282 277 276
f 282 276 283
f 282 283 326
f 282 326 325
f 283 276 275
f 283 275 284
f 283 284 311
f 283 311 326
f 284 275 274
f 284 274 285
f 284 285 312
f 284 312 311
f 285 274 273
f 285 273 286
f 285 286 313
f 285 313 312
f 286 273 266
f 286 266 287
f 286 287 314
f 286 314 313
f 287 266 265
f 287 265 288
f 287 288 315
f 287 315 314
f 288 265 263
f 288 263 289
f 288 289 316
f 288 316 315
f 289 263 264
f 289 264 290
f 289 290 317
f 289 317 316
f 290 264 267
f 290 267 291
f 290 291 318
f 290 318 317
f 291 267 268
f 291 268 292
f 291 292 319
f 291 319 318
f 292 268 269
f 292 269 293
f 292 293 320
f 292 320 319
f 293 269 270
f 293 270 294
f 293 294 321
f 293 321 320
f 307 306 322
f 307 322 323
f 308 307 323
f 308 323 324
f 309 308 324
f 309 324 325
f 310 309 325
f 310 325 326
f 295 310 326
f 295 326 311
f 296 295 311
f 296 311 312
f 297 296 312
f 297 312 313
f 298 297 313
f 298 313 314
f 299 298 314
f 299 314 315
f 300 299 315
f 300 315 316
f 301 300 316
f 301 316 317
f 302 301 317
f 302 317 318
f 303 302 318
f 303 318 319
f 304 303 319
f 304 319 320
f 305 304 320
f 305 320 321
f 321 322 306
f 321 306 305
f 360 306 307
f 360 307 359
f 359 307 308
f 359 308 361
f 361 308 309
f 361 309 362
f 362 309 310
f 362 310 363
f 363 310 295
f 363 295 364
f 364 295 296
f 364 296 365
f 365 296 297
f 365 297 366
f 366 297 298
f 366 298 367
f 367 298 299
f 367 299 368
f 368 299 300
f 368 300 369
f 369 300 301
f 369 301 370
f 370 301 302
f 370 302 371
f 371 302 303
f 371 303 372
f 372 303 304
f 372 304 373
f 374 305 306
f 374 306 360
f 373 304 305
f 373 305 374
f 327 328 375
f 327 375 376
f 360 359 328
f 360 328 327
f 376 390 342
f 376 342 327
f 327 342 374
f 327 374 360
f 328 329 377
f 328 377 375
f 359 361 329
f 359 329 328
f 329 330 378
f 329 378 377
f 361 362 330
f 361 330 329
f 330 331 379
f 330 379 378
f 362 363 331
f 362 331 330
f 331 332 380
f 331 380 379
f 363 364 332
f 363 332 331
f 332 333 381
f 332 381 380
f 364 365 333
f 364 333 332
f 333 334 382
f 333 382 381
f 365 366 334
f 365 334 333
f 334 335 383
f 334 383 382
f 366 367 335
f 366 335 334
f 335 336 384
f 335 384 383
f 367 368 336
f 367 336 335
f 336 337 385
f 336 385 384
f 368 369 337
f 368 337 336
f 337 338 386
f 337 386 385
f 369 370 338
f 369 338 337
f 338 339 387
f 338 387 386
f 370 371 339
f 370 339 338
f 339 340 388
f 339 388 387
f 371 372 340
f 371 340 339
f 340 341 389
f 340 389 388
f 372 373 341
f 372 341 340
f 341 342 390
f 341 390 389
f 373 374 342
f 373 342 341
f 390 376 343
f 390 343 358
f 357 356 388
f 357 388 389
f 389 390 358
f 389 358 357
f 387 388 356
f 387 356 355
f 355 354 386
f 355 386 387
f 344 343 376
f 344 376 375
f 345 344 375
f 345 375 377
f 346 345 377
f 346 377 378
f 347 346 378
f 347 378 379
f 348 347 379
f 348 379 380
f 349 348 380
f 349 380 381
f 350 349 381
f 350 381 382
f 351 350 382
f 351 382 383
f 352 351 383
f 352 383 384
f 353 352 384
f 353 384 385
f 385 386 354
f 385 354 353
f 401 348 349
f 401 349 402
f 403 402 349
f 403 349 350
f 404 403 350
f 404 350 351
f 405 404 351
f 405 351 352
f 406 405 352
f 406 352 353
f 406 353 354
f 406 354 395
f 396 395 354
f 396 354 355
f 396 355 356
f 396 356 393
f 394 393 356
f 394 356 357
f 394 357 358
f 394 358 392
f 392 358 343
f 392 343 391
f 397 391 343
f 397 343 344
f 398 397 344
f 398 344 345
f 399 398 345
f 399 345 346
f 400 399 346
f 400 346 347
f 400 347 348
f 400 348 401
f 445 438 439
f 445 439 440
f 443 442 423
f 443 423 424
f 444 443 424
f 444 424 437
f 444 437 438
f 444 438 445
f 441 442 443
f 441 443 447
f 446 445 440
f 446 440 436
f 429 428 427
f 429 427 450
f 450 427 426
f 450 426 449
f 451 433 432
f 451 432 431
f 451 431 430
f 451 430 454
f 454 430 429
f 454 429 450
f 434 433 451
f 434 451 452
f 435 434 452
f 435 452 453
f 446 436 435
f 446 435 453
f 455 454 450
f 455 450 449
f 452 451 454
f 452 454 455
f 441 425 423
f 441 423 442
f 449 426 425
f 449 425 441
f 456 453 452
f 456 452 455
f 447 443 444
f 447 444 448
f 448 444 445
f 448 445 446
f 448 446 453
f 448 453 456
f 456 441 447
f 456 447 448
f 456 455 449
f 456 449 441
f 7 1 2
f 7 2 8
f 9 7 8
f 9 8 10
f 11 9 10
f 11 10 12
f 16 15 13
f 16 13 14
f 13 11 12
f 13 12 14
f 17 15 16
f 17 16 18
f 19 17 18
f 19 18 20
f 22 21 19
f 22 19 20
f 24 21 22
f 24 22 23
f 18 16 14
f 18 14 460
f 461 23 22
f 461 22 20
f 461 20 18
f 461 18 460
f 460 14 12
f 460 12 459
f 26 24 23
f 26 23 25
f 462 25 23
f 462 23 461
f 462 461 460
f 462 460 459
f 459 12 10
f 459 10 458
f 28 26 25
f 28 25 27
f 463 27 25
f 463 25 462
f 463 462 459
f 463 459 458
f 31 32 30
f 31 30 29
f 30 28 27
f 30 27 29
f 6 5 32
f 6 32 31
f 464 29 27
f 464 27 463
f 6 31 29
f 6 29 464
f 4 2 1
f 4 1 3
f 457 8 2
f 457 2 4
f 4 3 5
f 4 5 6
f 4 6 464
f 4 464 457
f 458 10 8
f 458 8 457
f 464 463 458
f 464 458 457
f 50 49 47
f 50 47 48
f 51 49 50
f 51 50 52
f 53 51 52
f 53 52 54
f 58 57 55
f 58 55 56
f 55 53 54
f 55 54 56
f 59 57 58
f 59 58 60
f 63 39 36
f 63 36 64
f 38 35 36
f 38 36 39
f 37 33 35
f 37 35 38
f 40 34 33
f 40 33 37
f 42 41 34
f 42 34 40
f 43 41 42
f 43 42 44
f 45 43 44
f 45 44 46
f 48 47 45
f 48 45 46
f 465 52 50
f 465 50 48
f 44 42 40
f 44 40 470
f 471 465 48
f 471 48 46
f 471 46 44
f 471 44 470
f 470 40 37
f 470 37 469
f 466 54 52
f 466 52 465
f 472 466 465
f 472 465 471
f 472 471 470
f 472 470 469
f 468 38 39
f 468 39 63
f 467 56 54
f 467 54 466
f 60 58 56
f 60 56 467
f 469 37 38
f 469 38 468
f 63 64 61
f 63 61 62
f 473 467 466
f 473 466 472
f 61 59 60
f 61 60 62
f 62 60 467
f 62 467 473
f 473 468 63
f 473 63 62
f 473 472 469
f 473 469 468
f 438 437 424
f 438 424 407
f 408 407 424
f 408 424 423
f 475 474 407
f 475 407 408
f 475 401 402
f 475 402 474
f 439 438 407
f 439 407 409
f 409 407 474
f 409 474 476
f 474 402 403
f 474 403 476
f 440 439 409
f 440 409 410
f 410 409 476
f 410 476 477
f 476 403 404
f 476 404 477
f 436 440 410
f 436 410 411
f 411 410 477
f 411 477 478
f 477 404 405
f 477 405 478
f 435 436 411
f 435 411 412
f 412 411 478
f 412 478 479
f 478 405 406
f 478 406 479
f 434 435 412
f 434 412 413
f 413 412 479
f 413 479 480
f 480 395 396
f 480 396 481
f 479 406 395
f 479 395 480
f 433 434 413
f 433 413 414
f 414 413 480
f 414 480 481
f 481 396 393
f 481 393 482
f 432 433 414
f 432 414 415
f 415 414 481
f 415 481 482
f 482 393 394
f 482 394 483
f 431 432 415
f 431 415 416
f 416 415 482
f 416 482 483
f 483 394 392
f 483 392 484
f 430 431 416
f 430 416 417
f 417 416 483
f 417 483 484
f 484 392 391
f 484 391 485
f 429 430 417
f 429 417 418
f 418 417 484
f 418 484 485
f 485 391 397
f 485 397 486
f 428 429 418
f 428 418 419
f 419 418 485
f 419 485 486
f 486 397 398
f 486 398 487
f 427 428 419
f 427 419 420
f 420 419 486
f 420 486 487
f 487 398 399
f 487 399 488
f 426 427 420
f 426 420 421
f 421 420 487
f 421 487 488
f 489 475 408
f 489 408 422
f 489 400 401
f 489 401 475
f 425 426 421
f 425 421 422
f 422 421 488
f 422 488 489
f 422 408 423
f 422 423 425
f 488 399 400
f 488 400 489
