# Tibia_R rest
v -0.081619 -0.860199 0.010700
v -0.078088 -0.863000 0.007255
v -0.080452 -0.862501 0.015723
v -0.077160 -0.863961 0.010732
v -0.076411 -0.864487 0.018293
v -0.074519 -0.864993 0.013781
v -0.080096 -0.858393 0.003370
v -0.077430 -0.862682 0.001531
v -0.078307 -0.856817 -0.004073
v -0.076484 -0.862365 -0.003674
v -0.076728 -0.856296 -0.011069
v -0.074847 -0.861472 -0.010557
v -0.073544 -0.855606 -0.018962
v -0.072132 -0.861054 -0.016552
v -0.071246 -0.856876 -0.023445
v -0.069488 -0.860749 -0.021868
v -0.068016 -0.858994 -0.029115
v -0.066799 -0.862463 -0.024476
v -0.063400 -0.861764 -0.030493
v -0.063912 -0.863512 -0.025538
v -0.058565 -0.865254 -0.024911
v -0.060963 -0.865113 -0.022264
v -0.060136 -0.866169 -0.015770
v -0.057253 -0.866253 -0.016957
v -0.060831 -0.865984 -0.007927
v -0.057899 -0.865875 -0.008939
v -0.062776 -0.865198 0.000374
v -0.059953 -0.864846 0.000656
v -0.065204 -0.865140 0.006821
v -0.062991 -0.865059 0.008516
v -0.070791 -0.865486 0.012491
v -0.070343 -0.864792 0.016477
v -0.081913 -0.854709 -0.016561
v -0.084073 -0.857232 -0.011564
v -0.080257 -0.853840 -0.023287
v -0.080847 -0.854918 -0.031401
v -0.085877 -0.857976 -0.018782
v -0.083937 -0.856295 -0.024338
v -0.084502 -0.856566 -0.028654
v -0.087594 -0.858822 -0.013597
v -0.087715 -0.859736 -0.004921
v -0.089619 -0.859420 -0.008768
v -0.091354 -0.860409 -0.000759
v -0.092353 -0.859906 -0.004579
v -0.096532 -0.860433 0.002125
v -0.096297 -0.859491 -0.002458
v -0.101350 -0.859776 0.000194
v -0.099140 -0.858774 -0.003891
v -0.104980 -0.858891 -0.004783
v -0.102226 -0.858214 -0.008030
v -0.107252 -0.858189 -0.012020
v -0.103651 -0.857867 -0.013080
v -0.107572 -0.857466 -0.018801
v -0.103754 -0.857287 -0.018498
v -0.106150 -0.857207 -0.024747
v -0.102268 -0.856961 -0.024064
v -0.102198 -0.857204 -0.030748
v -0.099625 -0.857006 -0.028436
v -0.096973 -0.857312 -0.034085
v -0.096297 -0.857316 -0.030948
v -0.091027 -0.857800 -0.035307
v -0.091752 -0.857865 -0.032097
v -0.087356 -0.857842 -0.031754
v -0.085650 -0.857938 -0.034835
v -0.079772 -0.856718 -0.012983
v -0.081946 -0.859169 -0.007084
v -0.077365 -0.856164 -0.020097
v -0.076446 -0.858501 -0.028173
v -0.071672 -0.864935 -0.034587
v -0.065105 -0.869619 -0.035823
v -0.060442 -0.873415 -0.029675
v -0.058823 -0.875766 -0.019592
v -0.059796 -0.876476 -0.010742
v -0.062772 -0.876016 -0.002820
v -0.066807 -0.875838 0.005110
v -0.072688 -0.875651 0.012425
v -0.078516 -0.872931 0.019831
v -0.086076 -0.866711 0.019603
v -0.086712 -0.863460 0.011137
v -0.084767 -0.862632 -0.000004
v -0.083973 -0.864620 -0.038629
v -0.091924 -0.866031 -0.037742
v -0.098410 -0.864536 -0.035056
v -0.105012 -0.863414 -0.033086
v -0.109184 -0.865123 -0.025330
v -0.111353 -0.866126 -0.017706
v -0.111314 -0.865980 -0.010100
v -0.108331 -0.866253 -0.003067
v -0.104449 -0.865685 0.000824
v -0.099555 -0.865807 0.005387
v -0.093529 -0.864624 0.005151
v -0.091287 -0.866868 0.008039
v -0.088624 -0.868630 0.011785
v -0.098052 -0.869712 0.007800
v -0.078398 -0.856256 -0.011701
v -0.080298 -0.857816 -0.005025
v -0.075694 -0.855362 -0.019472
v -0.080811 -0.855593 -0.014439
v -0.083024 -0.858246 -0.009346
v -0.078847 -0.855049 -0.021615
v -0.073952 -0.857936 -0.024725
v -0.077841 -0.856022 -0.030437
v -0.070321 -0.860750 -0.032697
v -0.063498 -0.864948 -0.033786
v -0.058845 -0.868623 -0.027307
v -0.056682 -0.870430 -0.017110
v -0.057399 -0.870485 -0.007706
v -0.059822 -0.869837 0.000736
v -0.064080 -0.869339 0.010278
v -0.070073 -0.868811 0.017280
v -0.077572 -0.867734 0.020897
v -0.083555 -0.863847 0.018879
v -0.084694 -0.861558 0.011761
v -0.082975 -0.860151 0.002370
v -0.084385 -0.859412 -0.037324
v -0.090876 -0.859328 -0.038308
v -0.097600 -0.858881 -0.036571
v -0.103655 -0.859066 -0.032434
v -0.108140 -0.860015 -0.025481
v -0.109569 -0.860333 -0.018392
v -0.108982 -0.860763 -0.011077
v -0.106608 -0.861398 -0.003835
v -0.102835 -0.862326 0.001631
v -0.097079 -0.862874 0.004317
v -0.090988 -0.862305 0.001922
v -0.086453 -0.861755 -0.003326
v -0.102134 -0.871482 0.003555
v -0.105515 -0.872839 -0.000554
v -0.110182 -0.872805 -0.002830
v -0.112100 -0.871669 -0.010127
v -0.111080 -0.870625 -0.018120
v -0.108269 -0.867884 -0.026185
v -0.097923 -0.870722 -0.031805
v -0.102321 -0.872851 -0.024145
v -0.105323 -0.874731 -0.017650
v -0.106726 -0.876798 -0.013199
v -0.110176 -0.879907 -0.002719
v -0.107164 -0.881492 -0.008183
v -0.108141 -0.886858 0.000546
v -0.106515 -0.889589 -0.004209
v -0.105647 -0.898775 -0.000851
v -0.104622 -0.898908 -0.006057
v -0.109118 -0.878456 0.000141
v -0.107242 -0.886387 0.003331
v -0.105644 -0.898315 0.002811
v -0.105491 -0.878298 0.002430
v -0.102979 -0.877868 0.005480
v -0.099751 -0.875884 0.009531
v -0.096504 -0.875701 0.012777
v -0.093338 -0.871736 -0.034992
v -0.083763 -0.868951 -0.036490
v -0.076585 -0.864590 -0.034671
v -0.087618 -0.880607 -0.032844
v -0.073002 -0.870001 -0.037009
v -0.075347 -0.874328 -0.036952
v -0.067194 -0.875865 -0.036795
v -0.062912 -0.879265 -0.031858
v -0.061511 -0.881640 -0.020713
v -0.063085 -0.881951 -0.012323
v -0.066809 -0.882392 -0.006014
v -0.070859 -0.882092 0.000410
v -0.076722 -0.881779 0.007937
v -0.082174 -0.878931 0.015836
v -0.087287 -0.871856 0.015670
v -0.070198 -0.881001 -0.035484
v -0.066314 -0.886149 -0.030643
v -0.065123 -0.887954 -0.020461
v -0.067519 -0.888390 -0.013383
v -0.071452 -0.888550 -0.008093
v -0.075943 -0.888080 -0.002595
v -0.080823 -0.887465 0.005138
v -0.086391 -0.884254 0.013248
v -0.089755 -0.877287 0.017264
v -0.092926 -0.876072 0.015528
v -0.079828 -0.880067 -0.034242
v -0.070647 -0.895534 -0.026720
v -0.068530 -0.894828 -0.020522
v -0.070568 -0.895003 -0.013525
v -0.074625 -0.894922 -0.008049
v -0.078736 -0.894595 -0.002568
v -0.084053 -0.893593 0.004859
v -0.089920 -0.893930 0.010598
v -0.094474 -0.885316 0.015985
v -0.095684 -0.894365 0.013802
v -0.098547 -0.884416 0.015062
v -0.101528 -0.884784 0.011131
v -0.103436 -0.885740 0.007218
v -0.105116 -0.886308 0.005405
v -0.104489 -0.897730 0.006386
v -0.104102 -0.897334 0.009283
v -0.099288 -0.881537 -0.023919
v -0.103149 -0.882068 -0.015889
v -0.103205 -0.890560 -0.015324
v -0.099007 -0.889899 -0.023903
v -0.098258 -0.897523 -0.023582
v -0.102577 -0.898176 -0.014720
v -0.095383 -0.880512 -0.029814
v -0.094362 -0.889285 -0.029945
v -0.093651 -0.897056 -0.029882
v -0.091631 -0.880247 -0.032469
v -0.090822 -0.889226 -0.031913
v -0.090115 -0.896646 -0.031379
v -0.087356 -0.889032 -0.032292
v -0.086983 -0.896559 -0.031540
v -0.073923 -0.886608 -0.034171
v -0.077786 -0.895663 -0.031367
v -0.099693 -0.895259 0.014128
v -0.102774 -0.896828 0.012514
v -0.078181 -0.888493 -0.032965
v -0.082602 -0.888013 -0.032200
v -0.082853 -0.896366 -0.031073
v -0.091906 -0.911367 -0.029985
v -0.087927 -0.922793 -0.031313
v -0.084962 -0.919426 -0.030632
v -0.088452 -0.909593 -0.031259
v -0.085994 -0.908035 -0.031040
v -0.082894 -0.914298 -0.029623
v -0.079763 -0.914143 -0.027271
v -0.077423 -0.914155 -0.024536
v -0.076087 -0.914314 -0.019771
v -0.076886 -0.913807 -0.013263
v -0.079468 -0.913551 -0.007664
v -0.082414 -0.913378 -0.003740
v -0.086181 -0.899234 0.005483
v -0.084668 -0.904170 0.001863
v -0.090514 -0.897319 0.010388
v -0.085909 -0.914710 -0.000119
v -0.089930 -0.915560 0.004302
v -0.088081 -0.907046 0.005523
v -0.088760 -0.902509 0.008366
v -0.091266 -0.901230 0.011197
v -0.095027 -0.902668 0.012997
v -0.095715 -0.899103 0.012709
v -0.099534 -0.901663 0.012848
v -0.102330 -0.905791 0.011089
v -0.097865 -0.906752 0.013678
v -0.102362 -0.913038 0.011562
v -0.105117 -0.908328 0.006131
v -0.105726 -0.923248 0.001712
v -0.104413 -0.907865 0.008769
v -0.104382 -0.920088 0.007635
v -0.105401 -0.908735 0.001993
v -0.104929 -0.910102 -0.003494
v -0.103096 -0.910765 -0.011334
v -0.099420 -0.912058 -0.020070
v -0.094212 -0.912209 -0.026687
v -0.092773 -0.907276 0.011682
v -0.096160 -0.915454 0.010934
v -0.105324 -0.924733 -0.003722
v -0.104286 -0.924735 -0.008542
v -0.101043 -0.924738 -0.017657
v -0.095936 -0.924514 -0.024978
v -0.091326 -0.923187 -0.029329
v -0.100269 -0.923810 0.009114
v -0.095135 -0.925352 0.005823
v -0.090433 -0.925984 0.001435
v -0.086907 -0.926999 -0.002442
v -0.082950 -0.927462 -0.007220
v -0.079729 -0.928079 -0.013977
v -0.079175 -0.928196 -0.020345
v -0.081314 -0.927028 -0.026005
v -0.083128 -0.925142 -0.028786
v -0.104899 -0.937657 0.002514
v -0.105564 -0.937138 -0.002559
v -0.101214 -0.937299 0.005813
v -0.096706 -0.937173 0.003679
v -0.105104 -0.937031 -0.007466
v -0.103583 -0.937020 -0.013366
v -0.100346 -0.936758 -0.020794
v -0.095569 -0.936335 -0.026805
v -0.090286 -0.933787 -0.030439
v -0.086963 -0.933787 -0.030612
v -0.092247 -0.936854 0.000217
v -0.088365 -0.936822 -0.003538
v -0.084179 -0.936967 -0.007800
v -0.080729 -0.936706 -0.014269
v -0.080138 -0.935882 -0.020463
v -0.083331 -0.934693 -0.027437
v -0.094638 -0.965593 -0.034570
v -0.090828 -0.965702 -0.034299
v -0.087305 -0.966261 -0.030318
v -0.084046 -0.966687 -0.023531
v -0.084476 -0.967243 -0.017206
v -0.087590 -0.968012 -0.010909
v -0.091818 -0.968470 -0.007066
v -0.096298 -0.969186 -0.003354
v -0.100477 -0.970266 -0.000418
v -0.105425 -0.970092 0.001102
v -0.108489 -0.970015 -0.001553
v -0.109640 -0.969387 -0.007347
v -0.109490 -0.968934 -0.012272
v -0.108094 -0.968713 -0.018521
v -0.104586 -0.968036 -0.025631
v -0.100062 -0.967114 -0.031172
v -0.093905 -1.039186 -0.022159
v -0.097144 -1.039714 -0.018694
v -0.100352 -1.040570 -0.015986
v -0.104201 -1.040638 -0.013135
v -0.108201 -1.040950 -0.011984
v -0.112221 -1.040217 -0.013644
v -0.114190 -1.038917 -0.018544
v -0.114889 -1.037613 -0.023481
v -0.114251 -1.036043 -0.029389
v -0.111952 -1.034176 -0.035538
v -0.108230 -1.032791 -0.040100
v -0.102882 -1.032735 -0.041877
v -0.098095 -1.033426 -0.040338
v -0.093410 -1.033364 -0.038311
v -0.090252 -1.034478 -0.032522
v -0.090794 -1.036923 -0.026807
v -0.090694 -1.003854 -0.015829
v -0.094475 -1.004181 -0.011871
v -0.098456 -1.005217 -0.008846
v -0.102624 -1.005532 -0.006531
v -0.106911 -1.005400 -0.006025
v -0.109972 -1.004931 -0.008503
v -0.111445 -1.004052 -0.013437
v -0.111652 -1.003248 -0.018190
v -0.110848 -1.002394 -0.023942
v -0.108224 -1.001174 -0.030433
v -0.104260 -1.000092 -0.035174
v -0.099022 -0.999192 -0.037468
v -0.094882 -0.999534 -0.037069
v -0.090805 -0.999823 -0.034111
v -0.087513 -1.000561 -0.028040
v -0.087743 -1.002091 -0.022094
v -0.106090 -1.118070 -0.056512
v -0.100515 -1.118030 -0.056179
v -0.095480 -1.117734 -0.055298
v -0.092496 -1.117463 -0.052623
v -0.091698 -1.117612 -0.048174
v -0.093517 -1.118828 -0.042980
v -0.096368 -1.119740 -0.038970
v -0.099642 -1.120734 -0.035596
v -0.103348 -1.121698 -0.032178
v -0.107003 -1.121903 -0.029985
v -0.110762 -1.121425 -0.030991
v -0.113280 -1.120929 -0.034164
v -0.114947 -1.120084 -0.038325
v -0.115742 -1.118953 -0.043400
v -0.114457 -1.117805 -0.049317
v -0.110702 -1.117341 -0.055252
v -0.103994 -1.187152 -0.072730
v -0.098514 -1.187675 -0.074709
v -0.092196 -1.187924 -0.074620
v -0.086798 -1.187184 -0.072423
v -0.083675 -1.186940 -0.066858
v -0.084943 -1.189000 -0.058757
v -0.088194 -1.189829 -0.051612
v -0.091919 -1.191032 -0.046766
v -0.095823 -1.191979 -0.043406
v -0.100485 -1.192031 -0.041662
v -0.104587 -1.192571 -0.042462
v -0.108596 -1.192827 -0.044680
v -0.112154 -1.192347 -0.048021
v -0.114617 -1.191442 -0.053648
v -0.113538 -1.188227 -0.060387
v -0.108775 -1.187768 -0.068776
v -0.101106 -1.077144 -0.048288
v -0.105722 -1.076583 -0.049155
v -0.096490 -1.076960 -0.047105
v -0.093024 -1.076629 -0.042897
v -0.092501 -1.078091 -0.037845
v -0.094852 -1.079706 -0.033177
v -0.097891 -1.080487 -0.029433
v -0.100889 -1.081554 -0.026740
v -0.104646 -1.082210 -0.023918
v -0.108742 -1.082127 -0.021887
v -0.112547 -1.081667 -0.022226
v -0.115013 -1.080907 -0.026507
v -0.115853 -1.079693 -0.031209
v -0.115865 -1.078261 -0.036670
v -0.114464 -1.076786 -0.042900
v -0.110651 -1.076167 -0.048435
v -0.099798 -1.154591 -0.065174
v -0.105167 -1.154624 -0.064566
v -0.093962 -1.154855 -0.065020
v -0.089422 -1.153999 -0.062990
v -0.088062 -1.153402 -0.057924
v -0.090453 -1.154634 -0.051363
v -0.093505 -1.155543 -0.046520
v -0.096692 -1.156419 -0.042322
v -0.100161 -1.157561 -0.038706
v -0.104286 -1.157768 -0.036995
v -0.107820 -1.157459 -0.038217
v -0.110560 -1.157263 -0.041076
v -0.112829 -1.156816 -0.044833
v -0.114510 -1.155769 -0.049418
v -0.114039 -1.154551 -0.055477
v -0.109838 -1.154109 -0.062209
v -0.106073 -1.216534 -0.084723
v -0.111717 -1.222847 -0.071476
v -0.119641 -1.224886 -0.050997
v -0.116375 -1.225115 -0.060934
v -0.110114 -1.229328 -0.041784
v -0.116456 -1.228070 -0.044682
v -0.099076 -1.215746 -0.089934
v -0.091371 -1.217354 -0.090711
v -0.084957 -1.218339 -0.085802
v -0.080923 -1.221094 -0.074688
v -0.076079 -1.226948 -0.061489
v -0.080673 -1.230616 -0.047149
v -0.086952 -1.232912 -0.036766
v -0.093061 -1.232000 -0.033514
v -0.098745 -1.230227 -0.035477
v -0.104002 -1.229265 -0.040322
v -0.079949 -1.247079 -0.045523
v -0.074605 -1.239724 -0.060229
v -0.086481 -1.243164 -0.034491
v -0.093370 -1.242021 -0.031723
v -0.097636 -1.239439 -0.034898
v -0.104014 -1.235691 -0.039801
v -0.110654 -1.235930 -0.042953
v -0.117591 -1.237766 -0.045924
v -0.120199 -1.238885 -0.049566
v -0.117166 -1.235243 -0.060304
v -0.109943 -1.231163 -0.074391
v -0.103264 -1.227513 -0.087537
v -0.097400 -1.226272 -0.093276
v -0.090821 -1.222237 -0.093686
v -0.083831 -1.222253 -0.088316
v -0.079160 -1.227092 -0.077558
v -0.077656 -1.247580 -0.060434
v -0.081529 -1.251803 -0.049931
v -0.080924 -1.230194 -0.074512
v -0.085719 -1.226046 -0.084262
v -0.092753 -1.227092 -0.088855
v -0.096844 -1.231176 -0.089408
v -0.100777 -1.231783 -0.084904
v -0.106578 -1.233761 -0.074121
v -0.112349 -1.238057 -0.062697
v -0.114831 -1.241039 -0.055580
v -0.111913 -1.237653 -0.053434
v -0.105702 -1.235464 -0.051709
v -0.098527 -1.237012 -0.046214
v -0.093760 -1.242557 -0.040155
v -0.086224 -1.256022 -0.042293
v -0.087715 -1.252216 -0.036805
v -0.089702 -1.251092 -0.035086
v -0.092195 -1.249128 -0.037715
v -0.081475 -1.237625 -0.065538
v -0.082141 -1.247761 -0.061353
v -0.084330 -1.251356 -0.054818
v -0.088047 -1.255246 -0.047948
v -0.090902 -1.253658 -0.041246
v -0.089230 -1.239651 -0.047988
v -0.082747 -1.239680 -0.059775
v -0.085649 -1.239049 -0.054279
v -0.088214 -1.227686 -0.078217
v -0.095998 -1.229014 -0.083051
v -0.107398 -1.234733 -0.062706
v -0.099571 -1.232439 -0.061287
v -0.093539 -1.233340 -0.055513
v -0.100783 -1.230741 -0.074047
v -0.092647 -1.229123 -0.071118
v -0.086713 -1.233257 -0.062461
v -0.074262 -0.865776 0.004804
v -0.072407 -0.866195 -0.002199
v -0.070301 -0.865540 -0.009993
v -0.068499 -0.864561 -0.016822
v -0.064054 -0.866316 -0.016839
v -0.064756 -0.866797 -0.008972
v -0.066829 -0.866463 -0.000613
v -0.070105 -0.866068 0.006493
v -0.099282 -0.859222 -0.010930
v -0.098440 -0.859441 -0.017919
v -0.097333 -0.858617 -0.024840
v -0.088271 -0.858500 -0.024836
v -0.089295 -0.859400 -0.018460
v -0.091095 -0.859723 -0.010891
v -0.095191 -0.859862 -0.010186
v -0.093902 -0.860087 -0.017783
v -0.092698 -0.859034 -0.025641
v -0.079568 -1.235155 -0.045744
v -0.074713 -1.231187 -0.061858
v -0.086569 -1.235592 -0.035491
v -0.092927 -1.236227 -0.031110
v -0.098869 -1.232924 -0.034153
v -0.104709 -1.231953 -0.038472
v -0.111652 -1.231812 -0.039659
v -0.118212 -1.231264 -0.042564
v -0.121311 -1.227679 -0.049822
v -0.117124 -1.226331 -0.061283
v -0.112401 -1.224067 -0.072304
v -0.105860 -1.218022 -0.085968
v -0.099154 -1.217429 -0.091593
v -0.091002 -1.218519 -0.092279
v -0.084161 -1.219347 -0.087544
v -0.079239 -1.223534 -0.076563
f 113 112 3
f 113 3 1
f 1 7 114
f 1 114 113
f 112 111 5
f 112 5 3
f 111 110 32
f 111 32 5
f 7 9 96
f 7 96 114
f 9 11 95
f 9 95 96
f 11 13 97
f 11 97 95
f 13 15 101
f 13 101 97
f 15 17 103
f 15 103 101
f 17 19 104
f 17 104 103
f 19 21 105
f 19 105 104
f 21 24 106
f 21 106 105
f 24 26 107
f 24 107 106
f 26 28 108
f 26 108 107
f 28 30 109
f 28 109 108
f 30 32 110
f 30 110 109
f 33 34 99
f 33 99 98
f 98 100 35
f 98 35 33
f 34 41 126
f 34 126 99
f 100 102 36
f 100 36 35
f 102 115 64
f 102 64 36
f 41 43 125
f 41 125 126
f 43 45 124
f 43 124 125
f 45 47 123
f 45 123 124
f 47 49 122
f 47 122 123
f 49 51 121
f 49 121 122
f 51 53 120
f 51 120 121
f 53 55 119
f 53 119 120
f 55 57 118
f 55 118 119
f 57 59 117
f 57 117 118
f 59 61 116
f 59 116 117
f 61 64 115
f 61 115 116
f 65 67 100
f 65 100 98
f 95 97 67
f 95 67 65
f 98 99 66
f 98 66 65
f 65 66 96
f 65 96 95
f 66 99 126
f 66 126 80
f 66 80 114
f 66 114 96
f 97 101 68
f 97 68 67
f 113 114 80
f 113 80 79
f 126 125 91
f 126 91 80
f 90 91 125
f 90 125 124
f 89 90 124
f 89 124 123
f 88 89 123
f 88 123 122
f 87 88 122
f 87 122 121
f 86 87 121
f 86 121 120
f 85 86 120
f 85 120 119
f 119 118 84
f 119 84 85
f 83 84 118
f 83 118 117
f 132 85 84
f 132 84 83
f 131 86 85
f 131 85 132
f 130 87 86
f 130 86 131
f 129 88 87
f 129 87 130
f 128 89 88
f 128 88 129
f 129 130 137
f 129 137 143
f 127 90 89
f 127 89 128
f 94 91 90
f 94 90 127
f 92 80 91
f 92 91 94
f 82 83 117
f 82 117 116
f 102 100 67
f 102 67 68
f 69 68 101
f 69 101 103
f 70 69 103
f 70 103 104
f 71 70 104
f 71 104 105
f 72 71 105
f 72 105 106
f 73 72 106
f 73 106 107
f 74 73 107
f 74 107 108
f 75 74 108
f 75 108 109
f 76 75 109
f 76 109 110
f 77 76 110
f 77 110 111
f 78 77 111
f 78 111 112
f 112 113 79
f 112 79 78
f 156 154 69
f 156 69 70
f 157 156 70
f 157 70 71
f 158 157 71
f 158 71 72
f 159 158 72
f 159 72 73
f 160 159 73
f 160 73 74
f 161 160 74
f 161 74 75
f 161 75 76
f 161 76 162
f 163 162 76
f 163 76 77
f 164 163 77
f 164 77 78
f 93 79 80
f 93 80 92
f 164 78 79
f 164 79 93
f 167 166 157
f 167 157 158
f 168 167 158
f 168 158 159
f 169 168 159
f 169 159 160
f 170 169 160
f 170 160 161
f 171 170 161
f 171 161 162
f 172 171 162
f 172 162 163
f 173 172 163
f 173 163 164
f 173 164 93
f 173 93 174
f 183 172 173
f 183 173 174
f 174 93 92
f 174 92 149
f 149 92 94
f 149 94 148
f 148 94 127
f 148 127 147
f 146 128 129
f 146 129 143
f 147 127 128
f 147 128 146
f 144 143 137
f 144 137 139
f 188 146 143
f 188 143 144
f 187 147 146
f 187 146 188
f 136 130 131
f 136 131 135
f 131 132 134
f 131 134 135
f 138 137 130
f 138 130 136
f 139 137 138
f 139 138 140
f 138 136 135
f 138 135 192
f 193 140 138
f 193 138 192
f 192 135 134
f 192 134 191
f 134 132 83
f 134 83 133
f 194 193 192
f 194 192 191
f 133 83 82
f 133 82 150
f 197 191 134
f 197 134 133
f 194 191 197
f 194 197 198
f 197 133 150
f 197 150 200
f 198 197 200
f 198 200 201
f 185 183 174
f 185 174 149
f 186 185 149
f 186 149 148
f 186 148 147
f 186 147 187
f 115 102 68
f 115 68 81
f 81 68 152
f 81 152 151
f 82 116 115
f 82 115 81
f 151 150 82
f 151 82 81
f 153 200 150
f 153 150 151
f 151 152 154
f 151 154 155
f 152 68 69
f 152 69 154
f 165 155 154
f 165 154 156
f 165 156 157
f 165 157 166
f 175 153 151
f 175 151 155
f 175 155 165
f 175 165 205
f 203 201 200
f 203 200 153
f 210 175 205
f 210 205 209
f 210 203 153
f 210 153 175
f 199 198 201
f 199 201 202
f 202 201 203
f 202 203 204
f 215 202 204
f 215 204 216
f 211 204 203
f 211 203 210
f 217 216 204
f 217 204 211
f 211 210 209
f 211 209 206
f 206 209 205
f 206 205 176
f 205 165 166
f 205 166 176
f 177 176 166
f 177 166 167
f 178 177 167
f 178 167 168
f 179 178 168
f 179 168 169
f 180 179 169
f 180 169 170
f 180 170 171
f 180 171 181
f 182 181 171
f 182 171 172
f 225 180 181
f 225 181 224
f 224 181 182
f 224 182 226
f 182 172 183
f 182 183 184
f 233 226 182
f 233 182 184
f 207 184 183
f 207 183 185
f 208 207 185
f 208 185 186
f 234 233 184
f 234 184 207
f 208 186 187
f 208 187 190
f 190 187 188
f 190 188 189
f 235 234 207
f 235 207 208
f 240 235 208
f 240 208 190
f 240 190 189
f 240 189 238
f 189 188 144
f 189 144 145
f 145 144 139
f 145 139 141
f 141 139 140
f 141 140 142
f 142 140 193
f 142 193 196
f 195 194 198
f 195 198 199
f 196 193 194
f 196 194 195
f 212 199 202
f 212 202 215
f 231 230 224
f 231 224 226
f 231 226 233
f 231 233 232
f 229 225 224
f 229 224 230
f 232 233 234
f 232 234 236
f 229 230 231
f 229 231 247
f 247 231 232
f 247 232 236
f 237 236 234
f 237 234 235
f 242 238 189
f 242 189 145
f 243 242 145
f 243 145 141
f 244 243 141
f 244 141 142
f 245 244 142
f 245 142 196
f 246 245 196
f 246 196 195
f 246 195 199
f 246 199 212
f 248 247 236
f 248 236 237
f 228 229 247
f 228 247 248
f 227 225 229
f 227 229 228
f 223 180 225
f 223 225 227
f 222 179 180
f 222 180 223
f 221 178 179
f 221 179 222
f 220 177 178
f 220 178 221
f 219 176 177
f 219 177 220
f 218 206 176
f 218 176 219
f 218 217 211
f 218 211 206
f 214 215 216
f 214 216 217
f 241 237 235
f 241 235 240
f 241 240 238
f 241 238 239
f 248 237 241
f 248 241 254
f 228 248 254
f 228 254 255
f 249 239 238
f 249 238 242
f 249 242 243
f 249 243 250
f 250 243 244
f 250 244 251
f 251 244 245
f 251 245 252
f 252 245 246
f 252 246 253
f 227 228 255
f 227 255 256
f 223 227 256
f 223 256 257
f 222 223 257
f 222 257 258
f 221 222 258
f 221 258 259
f 220 221 259
f 220 259 260
f 219 220 260
f 219 260 261
f 213 212 215
f 213 215 214
f 253 246 212
f 253 212 213
f 218 219 261
f 218 261 262
f 214 217 218
f 214 218 262
f 272 271 253
f 272 253 213
f 272 213 214
f 272 214 262
f 272 262 261
f 272 261 278
f 278 261 260
f 278 260 277
f 277 260 259
f 277 259 276
f 276 259 258
f 276 258 275
f 275 258 257
f 275 257 274
f 274 257 256
f 274 256 273
f 273 256 255
f 273 255 266
f 266 255 254
f 266 254 265
f 265 254 241
f 265 241 263
f 264 263 241
f 264 241 239
f 264 239 249
f 264 249 267
f 268 267 249
f 268 249 250
f 269 268 250
f 269 250 251
f 270 269 251
f 270 251 252
f 270 252 253
f 270 253 271
f 294 270 271
f 294 271 279
f 279 271 272
f 279 272 280
f 279 280 323
f 279 323 322
f 322 321 294
f 322 294 279
f 280 272 278
f 280 278 281
f 280 281 324
f 280 324 323
f 281 278 277
f 281 277 282
f 281 282 325
f 281 325 324
f 282 277 276
f 282 276 283
f 282 283 326
f 282 326 325
f 283 276 275
f 283 275 284
f 283 284 311
f 283 311 326
f 284 275 274
f 284 274 285
f 284 285 312
f 284 312 311
f 285 274 273
f 285 273 286
f 285 286 313
f 285 313 312
f 286 273 266
f 286 266 287
f 286 287 314
f 286 314 313
f 287 266 265
f 287 265 288
f 287 288 315
f 287 315 314
f 288 265 263
f 288 263 289
f 288 289 316
f 288 316 315
f 289 263 264
f 289 264 290
f 289 290 317
f 289 317 316
f 290 264 267
f 290 267 291
f 290 291 318
f 290 318 317
f 291 267 268
f 291 268 292
f 291 292 319
f 291 319 318
f 292 268 269
f 292 269 293
f 292 293 320
f 292 320 319
f 293 269 270
f 293 270 294
f 293 294 321
f 293 321 320
f 307 306 322
f 307 322 323
f 308 307 323
f 308 323 324
f 309 308 324
f 309 324 325
f 310 309 325
f 310 325 326
f 295 310 326
f 295 326 311
f 296 295 311
f 296 311 312
f 297 296 312
f 297 312 313
f 298 297 313
f 298 313 314
f 299 298 314
f 299 314 315
f 300 299 315
f 300 315 316
f 301 300 316
f 301 316 317
f 302 301 317
f 302 317 318
f 303 302 318
f 303 318 319
f 304 303 319
f 304 319 320
f 305 304 320
f 305 320 321
f 321 322 306
f 321 306 305
f 360 306 307
f 360 307 359
f 359 307 308
f 359 308 361
f 361 308 309
f 361 309 362
f 362 309 310
f 362 310 363
f 363 310 295
f 363 295 364
f 364 295 296
f 364 296 365
f 365 296 297
f 365 297 366
f 366 297 298
f 366 298 367
f 367 298 299
f 367 299 368
f 368 299 300
f 368 300 369
f 369 300 301
f 369 301 370
f 370 301 302
f 370 302 371
f 371 302 303
f 371 303 372
f 372 303 304
f 372 304 373
f 374 305 306
f 374 306 360
f 373 304 305
f 373 305 374
f 327 328 375
f 327 375 376
f 360 359 328
f 360 328 327
f 376 390 342
f 376 342 327
f 327 342 374
f 327 374 360
f 328 329 377
f 328 377 375
f 359 361 329
f 359 329 328
f 329 330 378
f 329 378 377
f 361 362 330
f 361 330 329
f 330 331 379
f 330 379 378
f 362 363 331
f 362 331 330
f 331 332 380
f 331 380 379
f 363 364 332
f 363 332 331
f 332 333 381
f 332 381 380
f 364 365 333
f 364 333 332
f 333 334 382
f 333 382 381
f 365 366 334
f 365 334 333
f 334 335 383
f 334 383 382
f 366 367 335
f 366 335 334
f 335 336 384
f 335 384 383
f 367 368 336
f 367 336 335
f 336 337 385
f 336 385 384
f 368 369 337
f 368 337 336
f 337 338 386
f 337 386 385
f 369 370 338
f 369 338 337
f 338 339 387
f 338 387 386
f 370 371 339
f 370 339 338
f 339 340 388
f 339 388 387
f 371 372 340
f 371 340 339
f 340 341 389
f 340 389 388
f 372 373 341
f 372 341 340
f 341 342 390
f 341 390 389
f 373 374 342
f 373 342 341
f 390 376 343
f 390 343 358
f 357 356 388
f 357 388 389
f 389 390 358
f 389 358 357
f 387 388 356
f 387 356 355
f 355 354 386
f 355 386 387
f 344 343 376
f 344 376 375
f 345 344 375
f 345 375 377
f 346 345 377
f 346 377 378
f 347 346 378
f 347 378 379
f 348 347 379
f 348 379 380
f 349 348 380
f 349 380 381
f 350 349 381
f 350 381 382
f 351 350 382
f 351 382 383
f 352 351 383
f 352 383 384
f 353 352 384
f 353 384 385
f 385 386 354
f 385 354 353
f 401 348 349
f 401 349 402
f 403 402 349
f 403 349 350
f 404 403 350
f 404 350 351
f 405 404 351
f 405 351 352
f 406 405 352
f 406 352 353
f 406 353 354
f 406 354 395
f 396 395 354
f 396 354 355
f 396 355 356
f 396 356 393
f 394 393 356
f 394 356 357
f 394 357 358
f 394 358 392
f 392 358 343
f 392 343 391
f 397 391 343
f 397 343 344
f 398 397 344
f 398 344 345
f 399 398 345
f 399 345 346
f 400 399 346
f 400 346 347
f 400 347 348
f 400 348 401
f 445 438 439
f 445 439 440
f 443 442 423
f 443 423 424
f 444 443 424
f 444 424 437
f 444 437 438
f 444 438 445
f 441 442 443
f 441 443 447
f 446 445 440
f 446 440 436
f 429 428 427
f 429 427 450
f 450 427 426
f 450 426 449
f 451 433 432
f 451 432 431
f 451 431 430
f 451 430 454
f 454 430 429
f 454 429 450
f 434 433 451
f 434 451 452
f 435 434 452
f 435 452 453
f 446 436 435
f 446 435 453
f 455 454 450
f 455 450 449
f 452 451 454
f 452 454 455
f 441 425 423
f 441 423 442
f 449 426 425
f 449 425 441
f 456 453 452
f 456 452 455
f 447 443 444
f 447 444 448
f 448 444 445
f 448 445 446
f 448 446 453
f 448 453 456
f 456 441 447
f 456 447 448
f 456 455 449
f 456 449 441
f 7 1 2
f 7 2 8
f 9 7 8
f 9 8 10
f 11 9 10
f 11 10 12
f 16 15 13
f 16 13 14
f 13 11 12
f 13 12 14
f 17 15 16
f 17 16 18
f 19 17 18
f 19 18 20
f 22 21 19
f 22 19 20
f 24 21 22
f 24 22 23
f 18 16 14
f 18 14 460
f 461 23 22
f 461 22 20
f 461 20 18
f 461 18 460
f 460 14 12
f 460 12 459
f 26 24 23
f 26 23 25
f 462 25 23
f 462 23 461
f 462 461 460
f 462 460 459
f 459 12 10
f 459 10 458
f 28 26 25
f 28 25 27
f 463 27 25
f 463 25 462
f 463 462 459
f 463 459 458
f 31 32 30
f 31 30 29
f 30 28 27
f 30 27 29
f 6 5 32
f 6 32 31
f 464 29 27
f 464 27 463
f 6 31 29
f 6 29 464
f 4 2 1
f 4 1 3
f 457 8 2
f 457 2 4
f 4 3 5
f 4 5 6
f 4 6 464
f 4 464 457
f 458 10 8
f 458 8 457
f 464 463 458
f 464 458 457
f 50 49 47
f 50 47 48
f 51 49 50
f 51 50 52
f 53 51 52
f 53 52 54
f 58 57 55
f 58 55 56
f 55 53 54
f 55 54 56
f 59 57 58
f 59 58 60
f 63 39 36
f 63 36 64
f 38 35 36
f 38 36 39
f 37 33 35
f 37 35 38
f 40 34 33
f 40 33 37
f 42 41 34
f 42 34 40
f 43 41 42
f 43 42 44
f 45 43 44
f 45 44 46
f 48 47 45
f 48 45 46
f 465 52 50
f 465 50 48
f 44 42 40
f 44 40 470
f 471 465 48
f 471 48 46
f 471 46 44
f 471 44 470
f 470 40 37
f 470 37 469
f 466 54 52
f 466 52 465
f 472 466 465
f 472 465 471
f 472 471 470
f 472 470 469
f 468 38 39
f 468 39 63
f 467 56 54
f 467 54 466
f 60 58 56
f 60 56 467
f 469 37 38
f 469 38 468
f 63 64 61
f 63 61 62
f 473 467 466
f 473 466 472
f 61 59 60
f 61 60 62
f 62 60 467
f 62 467 473
f 473 468 63
f 473 63 62
f 473 472 469
f 473 469 468
f 438 437 424
f 438 424 407
f 408 407 424
f 408 424 423
f 475 474 407
f 475 407 408
f 475 401 402
f 475 402 474
f 439 438 407
f 439 407 409
f 409 407 474
f 409 474 476
f 474 402 403
f 474 403 476
f 440 439 409
f 440 409 410
f 410 409 476
f 410 476 477
f 476 403 404
f 476 404 477
f 436 440 410
f 436 410 411
f 411 410 477
f 411 477 478
f 477 404 405
f 477 405 478
f 435 436 411
f 435 411 412
f 412 411 478
f 412 478 479
f 478 405 406
f 478 406 479
f 434 435 412
f 434 412 413
f 413 412 479
f 413 479 480
f 480 395 396
f 480 396 481
f 479 406 395
f 479 395 480
f 433 434 413
f 433 413 414
f 414 413 480
f 414 480 481
f 481 396 393
f 481 393 482
f 432 433 414
f 432 414 415
f 415 414 481
f 415 481 482
f 482 393 394
f 482 394 483
f 431 432 415
f 431 415 416
f 416 415 482
f 416 482 483
f 483 394 392
f 483 392 484
f 430 431 416
f 430 416 417
f 417 416 483
f 417 483 484
f 484 392 391
f 484 391 485
f 429 430 417
f 429 417 418
f 418 417 484
f 418 484 485
f 485 391 397
f 485 397 486
f 428 429 418
f 428 418 419
f 419 418 485
f 419 485 486
f 486 397 398
f 486 398 487
f 427 428 419
f 427 419 420
f 420 419 486
f 420 486 487
f 487 398 399
f 487 399 488
f 426 427 420
f 426 420 421
f 421 420 487
f 421 487 488
f 489 475 408
f 489 408 422
f 489 400 401
f 489 401 475
f 425 426 421
f 425 421 422
f 422 421 488
f 422 488 489
f 422 408 423
f 422 423 425
f 488 399 400
f 488 400 489
