# Trapezium_L posed
v -0.727699 -0.281876 0.364286
v -0.729657 -0.282408 0.366906
v -0.731870 -0.282774 0.364503
v -0.729083 -0.281973 0.362566
v -0.734447 -0.280357 0.366569
v -0.732196 -0.280137 0.369318
v -0.735215 -0.277240 0.369777
v -0.736405 -0.277652 0.367075
v -0.738215 -0.274699 0.367766
v -0.737534 -0.274766 0.370456
v -0.737634 -0.271407 0.368216
v -0.734274 -0.270633 0.371819
v -0.730104 -0.272996 0.371362
v -0.729527 -0.271257 0.369313
v -0.727357 -0.276130 0.370103
v -0.726978 -0.273430 0.368520
v -0.726015 -0.277535 0.367076
v -0.725787 -0.275110 0.366331
v -0.725670 -0.277934 0.363982
v -0.725849 -0.275889 0.362557
v -0.725995 -0.279834 0.363093
v -0.727540 -0.279086 0.360673
v -0.734985 -0.279584 0.363353
v -0.736661 -0.277631 0.364054
v -0.737572 -0.274670 0.364369
v -0.736285 -0.271775 0.364934
v -0.733527 -0.269977 0.366155
v -0.729634 -0.270386 0.366696
v -0.727063 -0.272316 0.365452
v -0.732110 -0.280315 0.361852
v -0.737598 -0.274467 0.361046
v -0.736250 -0.271832 0.361668
v -0.733758 -0.269726 0.362652
v -0.730005 -0.269559 0.363380
v -0.727952 -0.271733 0.362410
v -0.727721 -0.274592 0.360712
v -0.729277 -0.277377 0.359512
v -0.732635 -0.278662 0.359242
v -0.735825 -0.279066 0.359925
v -0.737572 -0.277432 0.360714
v -0.729985 -0.271429 0.359440
v -0.729713 -0.273541 0.359083
v -0.730881 -0.275438 0.358116
v -0.732896 -0.276860 0.357269
v -0.735445 -0.277675 0.357449
v -0.737200 -0.276347 0.357479
v -0.737534 -0.274297 0.358336
v -0.736403 -0.271988 0.358279
v -0.733918 -0.269992 0.359240
v -0.734702 -0.274113 0.355806
v -0.732306 -0.272359 0.357160
v -0.731081 -0.269824 0.360187
v -0.733825 -0.269823 0.369311
v -0.727146 -0.280059 0.367249
v -0.729531 -0.278459 0.370565
v -0.733305 -0.274990 0.371770
v -0.737741 -0.271823 0.371652
v -0.726397 -0.279466 0.361684
v -0.726676 -0.281026 0.363771
v -0.728295 -0.282103 0.363356
v -0.728513 -0.280954 0.361471
v -0.727213 -0.280860 0.362242
v -0.726329 -0.280098 0.365092
v -0.728304 -0.281347 0.367256
v -0.728353 -0.282366 0.365597
v -0.727204 -0.281330 0.365492
v -0.730950 -0.282952 0.365867
v -0.730398 -0.282680 0.363160
v -0.729588 -0.282904 0.364586
v -0.733486 -0.280425 0.368066
v -0.733236 -0.281808 0.365703
v -0.730893 -0.281522 0.368278
v -0.732239 -0.281936 0.367134
v -0.728192 -0.279521 0.369133
v -0.730857 -0.279431 0.370160
v -0.729483 -0.280649 0.368910
v -0.732100 -0.281668 0.363176
v -0.729982 -0.279923 0.361049
v -0.730273 -0.281429 0.362022
v -0.734797 -0.279995 0.364997
v -0.733746 -0.280155 0.362664
v -0.733600 -0.281056 0.364213
v -0.733695 -0.278679 0.369629
v -0.735919 -0.277615 0.368471
v -0.735453 -0.278999 0.366910
v -0.734722 -0.278989 0.368341
v -0.736536 -0.277655 0.365606
v -0.735922 -0.278748 0.363791
v -0.735721 -0.278885 0.365394
v -0.734425 -0.276227 0.370979
v -0.731223 -0.276850 0.371362
v -0.732542 -0.277888 0.370713
v -0.737949 -0.274819 0.369525
v -0.737450 -0.276237 0.367417
v -0.736571 -0.275914 0.370333
v -0.737048 -0.276287 0.368966
v -0.737908 -0.273480 0.371212
v -0.735805 -0.273174 0.372028
v -0.736387 -0.274653 0.371367
v -0.737948 -0.274679 0.366052
v -0.737306 -0.276219 0.364221
v -0.737410 -0.276232 0.365836
v -0.738132 -0.271360 0.370155
v -0.738325 -0.272985 0.367955
v -0.738465 -0.273024 0.369847
v -0.736902 -0.271587 0.366521
v -0.737173 -0.273152 0.364577
v -0.737754 -0.273063 0.366222
v -0.736138 -0.270804 0.372071
v -0.734142 -0.270011 0.371032
v -0.735992 -0.270276 0.368786
v -0.736487 -0.270285 0.370672
v -0.733612 -0.269885 0.367732
v -0.735084 -0.270653 0.365531
v -0.735463 -0.270457 0.367123
v -0.732419 -0.271406 0.371944
v -0.729560 -0.272050 0.370463
v -0.731560 -0.270279 0.369439
v -0.731710 -0.270750 0.370868
v -0.731609 -0.273945 0.371848
v -0.734133 -0.272153 0.372276
v -0.727016 -0.274692 0.369485
v -0.728055 -0.272368 0.369077
v -0.728481 -0.274679 0.370860
v -0.728061 -0.273456 0.370103
v -0.728280 -0.277373 0.370504
v -0.729702 -0.275795 0.371346
v -0.728154 -0.271167 0.366320
v -0.729556 -0.270769 0.368073
v -0.726965 -0.272715 0.367081
v -0.728073 -0.271657 0.367789
v -0.731567 -0.269939 0.366592
v -0.731523 -0.270083 0.368051
v -0.725740 -0.276025 0.366741
v -0.726134 -0.274256 0.367430
v -0.726545 -0.277027 0.368752
v -0.726232 -0.275480 0.368308
v -0.726433 -0.278835 0.367217
v -0.727206 -0.278344 0.369054
v -0.726303 -0.273871 0.364072
v -0.725626 -0.275196 0.364845
v -0.726119 -0.273909 0.365827
v -0.725738 -0.277823 0.365341
v -0.725649 -0.277197 0.363291
v -0.725571 -0.276533 0.364950
v -0.725717 -0.278759 0.363398
v -0.725916 -0.278970 0.365215
v -0.726423 -0.277501 0.361233
v -0.725900 -0.278210 0.362118
v -0.728406 -0.278103 0.360091
v -0.728257 -0.276096 0.360014
v -0.726733 -0.275247 0.361530
v -0.727244 -0.276815 0.360606
v -0.727617 -0.273126 0.361567
v -0.727369 -0.272000 0.363915
v -0.726806 -0.273572 0.362737
v -0.732366 -0.279397 0.360497
v -0.730840 -0.278170 0.359249
v -0.730292 -0.278935 0.360115
v -0.735456 -0.279372 0.361641
v -0.734349 -0.279042 0.359510
v -0.734091 -0.279575 0.361057
v -0.737125 -0.277593 0.362410
v -0.736909 -0.278491 0.360359
v -0.736453 -0.278689 0.362096
v -0.737513 -0.274582 0.362711
v -0.737783 -0.276002 0.360896
v -0.737515 -0.276144 0.362573
v -0.736129 -0.271847 0.363321
v -0.737071 -0.273094 0.361303
v -0.737003 -0.273147 0.362949
v -0.733591 -0.269876 0.364437
v -0.735184 -0.270633 0.362137
v -0.735036 -0.270687 0.363856
v -0.729747 -0.269909 0.365136
v -0.731857 -0.269342 0.363154
v -0.731663 -0.269619 0.364948
v -0.728726 -0.270450 0.363072
v -0.728334 -0.270741 0.364752
v -0.736461 -0.271764 0.359963
v -0.737184 -0.273284 0.358070
v -0.737656 -0.274379 0.359346
v -0.737203 -0.273038 0.359604
v -0.737575 -0.275246 0.357772
v -0.737646 -0.277041 0.359007
v -0.737853 -0.275784 0.359196
v -0.733981 -0.269672 0.360874
v -0.735299 -0.270823 0.358732
v -0.735395 -0.270563 0.360416
v -0.730520 -0.269553 0.361416
v -0.732301 -0.269697 0.359614
v -0.732195 -0.269328 0.361246
v -0.728874 -0.271482 0.360878
v -0.730470 -0.270419 0.359683
v -0.729442 -0.270361 0.361270
v -0.728920 -0.273901 0.359708
v -0.729867 -0.272503 0.359125
v -0.728730 -0.272646 0.360307
v -0.730109 -0.276534 0.358838
v -0.730275 -0.274314 0.358535
v -0.729355 -0.275293 0.359234
v -0.732682 -0.277860 0.358220
v -0.731756 -0.276253 0.357655
v -0.731262 -0.277334 0.358475
v -0.735704 -0.278378 0.358272
v -0.734293 -0.277361 0.357073
v -0.734233 -0.278280 0.358143
v -0.736302 -0.277172 0.357213
v -0.736886 -0.277935 0.358629
v -0.731569 -0.273948 0.357397
v -0.731137 -0.271755 0.358217
v -0.730749 -0.273069 0.358188
v -0.733225 -0.270963 0.357889
v -0.731801 -0.270569 0.358648
v -0.733469 -0.273143 0.356222
v -0.733665 -0.275530 0.356232
v -0.732519 -0.274748 0.356652
v -0.736081 -0.275276 0.356318
v -0.735078 -0.276354 0.356417
v -0.735715 -0.272852 0.356691
v -0.736797 -0.274141 0.356922
v -0.734527 -0.271759 0.357125
f 22 58 62
f 22 62 61
f 58 21 59
f 58 59 62
f 62 59 1
f 62 1 60
f 61 62 60
f 61 60 4
f 21 63 66
f 21 66 59
f 63 54 64
f 63 64 66
f 66 64 2
f 66 2 65
f 59 66 65
f 59 65 1
f 4 60 69
f 4 69 68
f 60 1 65
f 60 65 69
f 69 65 2
f 69 2 67
f 68 69 67
f 68 67 3
f 6 70 73
f 6 73 72
f 70 5 71
f 70 71 73
f 73 71 3
f 73 3 67
f 72 73 67
f 72 67 2
f 54 74 76
f 54 76 64
f 74 55 75
f 74 75 76
f 76 75 6
f 76 6 72
f 64 76 72
f 64 72 2
f 22 61 79
f 22 79 78
f 61 4 68
f 61 68 79
f 79 68 3
f 79 3 77
f 78 79 77
f 78 77 30
f 5 80 82
f 5 82 71
f 80 23 81
f 80 81 82
f 82 81 30
f 82 30 77
f 71 82 77
f 71 77 3
f 6 83 86
f 6 86 70
f 83 7 84
f 83 84 86
f 86 84 8
f 86 8 85
f 70 86 85
f 70 85 5
f 5 85 89
f 5 89 80
f 85 8 87
f 85 87 89
f 89 87 24
f 89 24 88
f 80 89 88
f 80 88 23
f 56 90 92
f 56 92 91
f 90 7 83
f 90 83 92
f 92 83 6
f 92 6 75
f 91 92 75
f 91 75 55
f 10 93 96
f 10 96 95
f 93 9 94
f 93 94 96
f 96 94 8
f 96 8 84
f 95 96 84
f 95 84 7
f 57 97 99
f 57 99 98
f 97 10 95
f 97 95 99
f 99 95 7
f 99 7 90
f 98 99 90
f 98 90 56
f 9 100 102
f 9 102 94
f 100 25 101
f 100 101 102
f 102 101 24
f 102 24 87
f 94 102 87
f 94 87 8
f 57 103 105
f 57 105 97
f 103 11 104
f 103 104 105
f 105 104 9
f 105 9 93
f 97 105 93
f 97 93 10
f 11 106 108
f 11 108 104
f 106 26 107
f 106 107 108
f 108 107 25
f 108 25 100
f 104 108 100
f 104 100 9
f 11 103 112
f 11 112 111
f 103 57 109
f 103 109 112
f 112 109 12
f 112 12 110
f 111 112 110
f 111 110 53
f 53 113 115
f 53 115 111
f 113 27 114
f 113 114 115
f 115 114 26
f 115 26 106
f 111 115 106
f 111 106 11
f 12 116 119
f 12 119 110
f 116 13 117
f 116 117 119
f 119 117 14
f 119 14 118
f 110 119 118
f 110 118 53
f 57 98 121
f 57 121 109
f 98 56 120
f 98 120 121
f 121 120 13
f 121 13 116
f 109 121 116
f 109 116 12
f 15 122 125
f 15 125 124
f 122 16 123
f 122 123 125
f 125 123 14
f 125 14 117
f 124 125 117
f 124 117 13
f 56 91 127
f 56 127 120
f 91 55 126
f 91 126 127
f 127 126 15
f 127 15 124
f 120 127 124
f 120 124 13
f 29 128 131
f 29 131 130
f 128 28 129
f 128 129 131
f 131 129 14
f 131 14 123
f 130 131 123
f 130 123 16
f 14 129 133
f 14 133 118
f 129 28 132
f 129 132 133
f 133 132 27
f 133 27 113
f 118 133 113
f 118 113 53
f 17 134 137
f 17 137 136
f 134 18 135
f 134 135 137
f 137 135 16
f 137 16 122
f 136 137 122
f 136 122 15
f 55 74 139
f 55 139 126
f 74 54 138
f 74 138 139
f 139 138 17
f 139 17 136
f 126 139 136
f 126 136 15
f 20 140 142
f 20 142 141
f 140 29 130
f 140 130 142
f 142 130 16
f 142 16 135
f 141 142 135
f 141 135 18
f 20 141 145
f 20 145 144
f 141 18 134
f 141 134 145
f 145 134 17
f 145 17 143
f 144 145 143
f 144 143 19
f 21 146 147
f 21 147 63
f 146 19 143
f 146 143 147
f 147 143 17
f 147 17 138
f 63 147 138
f 63 138 54
f 22 148 149
f 22 149 58
f 148 20 144
f 148 144 149
f 149 144 19
f 149 19 146
f 58 149 146
f 58 146 21
f 20 148 153
f 20 153 152
f 148 22 150
f 148 150 153
f 153 150 37
f 153 37 151
f 152 153 151
f 152 151 36
f 29 140 156
f 29 156 155
f 140 20 152
f 140 152 156
f 156 152 36
f 156 36 154
f 155 156 154
f 155 154 35
f 22 78 159
f 22 159 150
f 78 30 157
f 78 157 159
f 159 157 38
f 159 38 158
f 150 159 158
f 150 158 37
f 23 160 162
f 23 162 81
f 160 39 161
f 160 161 162
f 162 161 38
f 162 38 157
f 81 162 157
f 81 157 30
f 39 160 165
f 39 165 164
f 160 23 88
f 160 88 165
f 165 88 24
f 165 24 163
f 164 165 163
f 164 163 40
f 24 101 168
f 24 168 163
f 101 25 166
f 101 166 168
f 168 166 31
f 168 31 167
f 163 168 167
f 163 167 40
f 26 169 171
f 26 171 107
f 169 32 170
f 169 170 171
f 171 170 31
f 171 31 166
f 107 171 166
f 107 166 25
f 27 172 174
f 27 174 114
f 172 33 173
f 172 173 174
f 174 173 32
f 174 32 169
f 114 174 169
f 114 169 26
f 33 172 177
f 33 177 176
f 172 27 132
f 172 132 177
f 177 132 28
f 177 28 175
f 176 177 175
f 176 175 34
f 28 128 179
f 28 179 175
f 128 29 155
f 128 155 179
f 179 155 35
f 179 35 178
f 175 179 178
f 175 178 34
f 32 180 183
f 32 183 170
f 180 48 181
f 180 181 183
f 183 181 47
f 183 47 182
f 170 183 182
f 170 182 31
f 40 167 186
f 40 186 185
f 167 31 182
f 167 182 186
f 186 182 47
f 186 47 184
f 185 186 184
f 185 184 46
f 48 180 189
f 48 189 188
f 180 32 173
f 180 173 189
f 189 173 33
f 189 33 187
f 188 189 187
f 188 187 49
f 34 190 192
f 34 192 176
f 190 52 191
f 190 191 192
f 192 191 49
f 192 49 187
f 176 192 187
f 176 187 33
f 34 178 195
f 34 195 190
f 178 35 193
f 178 193 195
f 195 193 41
f 195 41 194
f 190 195 194
f 190 194 52
f 35 154 198
f 35 198 193
f 154 36 196
f 154 196 198
f 198 196 42
f 198 42 197
f 193 198 197
f 193 197 41
f 36 151 201
f 36 201 196
f 151 37 199
f 151 199 201
f 201 199 43
f 201 43 200
f 196 201 200
f 196 200 42
f 37 158 204
f 37 204 199
f 158 38 202
f 158 202 204
f 204 202 44
f 204 44 203
f 199 204 203
f 199 203 43
f 39 205 207
f 39 207 161
f 205 45 206
f 205 206 207
f 207 206 44
f 207 44 202
f 161 207 202
f 161 202 38
f 40 185 209
f 40 209 164
f 185 46 208
f 185 208 209
f 209 208 45
f 209 45 205
f 164 209 205
f 164 205 39
f 43 210 212
f 43 212 200
f 210 51 211
f 210 211 212
f 212 211 41
f 212 41 197
f 200 212 197
f 200 197 42
f 49 191 214
f 49 214 213
f 191 52 194
f 191 194 214
f 214 194 41
f 214 41 211
f 213 214 211
f 213 211 51
f 50 215 217
f 50 217 216
f 215 51 210
f 215 210 217
f 217 210 43
f 217 43 203
f 216 217 203
f 216 203 44
f 46 218 219
f 46 219 208
f 218 50 216
f 218 216 219
f 219 216 44
f 219 44 206
f 208 219 206
f 208 206 45
f 46 184 221
f 46 221 218
f 184 47 181
f 184 181 221
f 221 181 48
f 221 48 220
f 218 221 220
f 218 220 50
f 50 220 222
f 50 222 215
f 220 48 188
f 220 188 222
f 222 188 49
f 222 49 213
f 215 222 213
f 215 213 51
