# Trapezium_R rest
v -0.737272 0.020460 -0.042674
v -0.740040 0.021835 -0.043943
v -0.740785 0.018638 -0.044384
v -0.737672 0.018272 -0.042789
v -0.744540 0.019333 -0.042801
v -0.743885 0.022851 -0.042545
v -0.747406 0.021930 -0.040347
v -0.747114 0.018950 -0.040594
v -0.749700 0.018812 -0.038144
v -0.750315 0.021521 -0.038461
v -0.750177 0.019607 -0.034873
v -0.749077 0.024433 -0.033982
v -0.744690 0.025919 -0.035433
v -0.743668 0.024437 -0.033325
v -0.740983 0.025993 -0.037802
v -0.740575 0.024866 -0.034855
v -0.738105 0.023893 -0.038491
v -0.738144 0.023429 -0.035962
v -0.736303 0.021296 -0.038375
v -0.736298 0.020022 -0.036199
v -0.735730 0.020284 -0.040175
v -0.736152 0.017427 -0.039392
v -0.743726 0.016250 -0.041687
v -0.745967 0.016147 -0.040192
v -0.747603 0.016102 -0.037510
v -0.747426 0.017321 -0.034509
v -0.746010 0.019781 -0.032390
v -0.742773 0.022093 -0.032122
v -0.739519 0.022141 -0.033342
v -0.740370 0.016258 -0.041641
v -0.746162 0.013146 -0.036843
v -0.745896 0.014435 -0.034092
v -0.744677 0.016569 -0.031690
v -0.741783 0.019003 -0.030911
v -0.739048 0.019040 -0.032507
v -0.737398 0.017542 -0.035023
v -0.737540 0.015635 -0.037882
v -0.740034 0.013751 -0.039747
v -0.743021 0.012827 -0.040852
v -0.745286 0.012757 -0.039695
v -0.739535 0.015453 -0.032176
v -0.738637 0.015189 -0.034141
v -0.738760 0.013706 -0.036088
v -0.739792 0.011943 -0.037748
v -0.741896 0.010861 -0.039061
v -0.743748 0.010102 -0.038100
v -0.744913 0.010778 -0.036279
v -0.744450 0.011348 -0.033792
v -0.743200 0.013454 -0.031495
v -0.741345 0.009885 -0.035195
v -0.740293 0.012291 -0.033209
v -0.741204 0.015649 -0.030923
v -0.747740 0.022447 -0.032746
v -0.738567 0.023417 -0.041208
v -0.742532 0.025285 -0.040567
v -0.747185 0.024688 -0.038058
v -0.751732 0.022595 -0.035790
v -0.735527 0.018854 -0.039689
v -0.736349 0.020519 -0.041571
v -0.737314 0.019343 -0.042878
v -0.736920 0.017607 -0.041524
v -0.736161 0.018913 -0.041293
v -0.736867 0.021889 -0.040782
v -0.739273 0.022826 -0.042694
v -0.738321 0.021295 -0.043466
v -0.737519 0.021785 -0.042216
v -0.740564 0.020279 -0.044577
v -0.738918 0.018149 -0.043819
v -0.738808 0.019791 -0.044086
v -0.744369 0.021115 -0.042896
v -0.742748 0.019087 -0.043868
v -0.741949 0.022496 -0.043507
v -0.742501 0.020826 -0.044007
v -0.740464 0.024612 -0.041149
v -0.743271 0.024260 -0.041717
v -0.741217 0.023759 -0.042470
v -0.740644 0.017390 -0.043154
v -0.738248 0.016570 -0.040734
v -0.738588 0.017243 -0.042405
v -0.744214 0.017784 -0.042288
v -0.742199 0.016207 -0.041912
v -0.742564 0.017619 -0.042989
v -0.745677 0.022467 -0.041446
v -0.747336 0.020421 -0.040663
v -0.745892 0.019206 -0.041709
v -0.745910 0.020824 -0.041764
v -0.746559 0.017583 -0.040412
v -0.744939 0.016224 -0.041109
v -0.745462 0.017738 -0.041433
v -0.747506 0.023408 -0.039373
v -0.744751 0.025247 -0.039427
v -0.745355 0.024006 -0.040605
v -0.750240 0.020496 -0.038460
v -0.748513 0.018809 -0.039455
v -0.749151 0.021828 -0.039385
v -0.748856 0.020374 -0.039647
v -0.751286 0.022064 -0.037381
v -0.749903 0.023799 -0.036795
v -0.749759 0.022880 -0.038261
v -0.748693 0.017417 -0.037830
v -0.746939 0.016040 -0.038954
v -0.747760 0.017424 -0.039217
v -0.751501 0.021095 -0.035198
v -0.750287 0.018989 -0.036514
v -0.751258 0.020602 -0.036847
v -0.748729 0.018443 -0.034668
v -0.747710 0.016532 -0.035976
v -0.748984 0.017719 -0.036234
v -0.750770 0.023766 -0.034543
v -0.748752 0.023818 -0.033235
v -0.749276 0.020935 -0.033531
v -0.750560 0.022375 -0.033903
v -0.746823 0.021144 -0.032542
v -0.746920 0.018463 -0.033263
v -0.748019 0.019703 -0.033371
v -0.747341 0.025396 -0.034400
v -0.744033 0.025414 -0.034272
v -0.745723 0.023619 -0.032775
v -0.746391 0.024800 -0.033469
v -0.745994 0.025601 -0.036720
v -0.748804 0.024850 -0.035508
v -0.740746 0.025658 -0.036238
v -0.742017 0.024887 -0.034099
v -0.742650 0.026184 -0.036701
v -0.742230 0.025755 -0.035314
v -0.741675 0.025865 -0.039254
v -0.743670 0.025994 -0.038098
v -0.741132 0.022436 -0.032549
v -0.743243 0.023339 -0.032677
v -0.740077 0.023621 -0.033947
v -0.741614 0.023761 -0.033223
v -0.744514 0.021100 -0.032039
v -0.745105 0.022412 -0.032380
v -0.738072 0.023781 -0.036909
v -0.739149 0.024270 -0.035348
v -0.739450 0.025147 -0.038333
v -0.739343 0.024958 -0.036692
v -0.738224 0.023772 -0.039865
v -0.739849 0.025053 -0.039794
v -0.737862 0.021222 -0.034524
v -0.737308 0.022183 -0.035804
v -0.738489 0.022867 -0.034777
v -0.737007 0.022474 -0.038474
v -0.736145 0.020720 -0.037550
v -0.736990 0.022254 -0.037120
v -0.735882 0.020726 -0.039111
v -0.736831 0.022236 -0.039615
v -0.735810 0.018515 -0.037703
v -0.735589 0.019523 -0.038424
v -0.736874 0.016536 -0.038510
v -0.737185 0.016613 -0.036502
v -0.736754 0.018714 -0.035592
v -0.736402 0.017594 -0.037097
v -0.738046 0.018402 -0.033687
v -0.739163 0.020642 -0.032872
v -0.737765 0.019809 -0.034136
v -0.740195 0.014966 -0.040596
v -0.738593 0.014628 -0.038922
v -0.738328 0.015629 -0.039691
v -0.743408 0.014514 -0.041325
v -0.741555 0.013161 -0.040486
v -0.741906 0.014637 -0.041180
v -0.745631 0.014469 -0.040009
v -0.744297 0.012718 -0.040557
v -0.744643 0.014469 -0.040912
v -0.746818 0.014661 -0.037176
v -0.745892 0.012870 -0.038361
v -0.746388 0.014480 -0.038687
v -0.746540 0.015960 -0.034319
v -0.746146 0.013675 -0.035434
v -0.746823 0.015167 -0.035707
v -0.745308 0.018228 -0.032059
v -0.745467 0.015401 -0.032779
v -0.746107 0.016996 -0.033049
v -0.742274 0.020672 -0.031456
v -0.743341 0.017930 -0.031022
v -0.743924 0.019605 -0.031511
v -0.740323 0.019307 -0.031494
v -0.740677 0.020974 -0.031944
v -0.745320 0.012823 -0.033823
v -0.744727 0.010744 -0.035182
v -0.745459 0.011612 -0.036526
v -0.745501 0.012105 -0.035162
v -0.744467 0.010224 -0.037136
v -0.744667 0.011221 -0.039084
v -0.745230 0.011336 -0.037919
v -0.744074 0.014885 -0.031427
v -0.743973 0.012316 -0.032503
v -0.744884 0.013775 -0.032506
v -0.741339 0.017016 -0.030724
v -0.742034 0.014565 -0.030951
v -0.742770 0.016076 -0.030802
v -0.739211 0.017254 -0.032220
v -0.740304 0.015472 -0.031315
v -0.740146 0.017371 -0.031287
v -0.738149 0.016107 -0.034431
v -0.739036 0.015191 -0.033160
v -0.738553 0.016774 -0.033251
v -0.738157 0.014672 -0.037119
v -0.738692 0.014408 -0.034930
v -0.737977 0.015429 -0.035813
v -0.739800 0.012851 -0.038824
v -0.739120 0.012850 -0.036990
v -0.738806 0.013772 -0.038073
v -0.742329 0.011442 -0.039917
v -0.740798 0.011086 -0.038479
v -0.741015 0.012031 -0.039522
v -0.742653 0.010262 -0.038699
v -0.743623 0.011214 -0.039761
v -0.739384 0.012795 -0.034658
v -0.739902 0.013808 -0.032542
v -0.739240 0.013920 -0.033751
v -0.741752 0.012550 -0.032122
v -0.740955 0.013916 -0.031570
v -0.740691 0.010876 -0.034067
v -0.740303 0.010704 -0.036445
v -0.739681 0.011651 -0.035519
v -0.742502 0.009641 -0.036672
v -0.741421 0.010166 -0.037549
v -0.742925 0.010235 -0.034280
v -0.743665 0.009879 -0.035784
v -0.742348 0.011224 -0.033043
f 61 62 58
f 61 58 22
f 62 59 21
f 62 21 58
f 60 1 59
f 60 59 62
f 4 60 62
f 4 62 61
f 59 66 63
f 59 63 21
f 66 64 54
f 66 54 63
f 65 2 64
f 65 64 66
f 1 65 66
f 1 66 59
f 68 69 60
f 68 60 4
f 69 65 1
f 69 1 60
f 67 2 65
f 67 65 69
f 3 67 69
f 3 69 68
f 72 73 70
f 72 70 6
f 73 71 5
f 73 5 70
f 67 3 71
f 67 71 73
f 2 67 73
f 2 73 72
f 64 76 74
f 64 74 54
f 76 75 55
f 76 55 74
f 72 6 75
f 72 75 76
f 2 72 76
f 2 76 64
f 78 79 61
f 78 61 22
f 79 68 4
f 79 4 61
f 77 3 68
f 77 68 79
f 30 77 79
f 30 79 78
f 71 82 80
f 71 80 5
f 82 81 23
f 82 23 80
f 77 30 81
f 77 81 82
f 3 77 82
f 3 82 71
f 70 86 83
f 70 83 6
f 86 84 7
f 86 7 83
f 85 8 84
f 85 84 86
f 5 85 86
f 5 86 70
f 80 89 85
f 80 85 5
f 89 87 8
f 89 8 85
f 88 24 87
f 88 87 89
f 23 88 89
f 23 89 80
f 91 92 90
f 91 90 56
f 92 83 7
f 92 7 90
f 75 6 83
f 75 83 92
f 55 75 92
f 55 92 91
f 95 96 93
f 95 93 10
f 96 94 9
f 96 9 93
f 84 8 94
f 84 94 96
f 7 84 96
f 7 96 95
f 98 99 97
f 98 97 57
f 99 95 10
f 99 10 97
f 90 7 95
f 90 95 99
f 56 90 99
f 56 99 98
f 94 102 100
f 94 100 9
f 102 101 25
f 102 25 100
f 87 24 101
f 87 101 102
f 8 87 102
f 8 102 94
f 97 105 103
f 97 103 57
f 105 104 11
f 105 11 103
f 93 9 104
f 93 104 105
f 10 93 105
f 10 105 97
f 104 108 106
f 104 106 11
f 108 107 26
f 108 26 106
f 100 25 107
f 100 107 108
f 9 100 108
f 9 108 104
f 111 112 103
f 111 103 11
f 112 109 57
f 112 57 103
f 110 12 109
f 110 109 112
f 53 110 112
f 53 112 111
f 111 115 113
f 111 113 53
f 115 114 27
f 115 27 113
f 106 26 114
f 106 114 115
f 11 106 115
f 11 115 111
f 110 119 116
f 110 116 12
f 119 117 13
f 119 13 116
f 118 14 117
f 118 117 119
f 53 118 119
f 53 119 110
f 109 121 98
f 109 98 57
f 121 120 56
f 121 56 98
f 116 13 120
f 116 120 121
f 12 116 121
f 12 121 109
f 124 125 122
f 124 122 15
f 125 123 16
f 125 16 122
f 117 14 123
f 117 123 125
f 13 117 125
f 13 125 124
f 120 127 91
f 120 91 56
f 127 126 55
f 127 55 91
f 124 15 126
f 124 126 127
f 13 124 127
f 13 127 120
f 130 131 128
f 130 128 29
f 131 129 28
f 131 28 128
f 123 14 129
f 123 129 131
f 16 123 131
f 16 131 130
f 118 133 129
f 118 129 14
f 133 132 28
f 133 28 129
f 113 27 132
f 113 132 133
f 53 113 133
f 53 133 118
f 136 137 134
f 136 134 17
f 137 135 18
f 137 18 134
f 122 16 135
f 122 135 137
f 15 122 137
f 15 137 136
f 126 139 74
f 126 74 55
f 139 138 54
f 139 54 74
f 136 17 138
f 136 138 139
f 15 136 139
f 15 139 126
f 141 142 140
f 141 140 20
f 142 130 29
f 142 29 140
f 135 16 130
f 135 130 142
f 18 135 142
f 18 142 141
f 144 145 141
f 144 141 20
f 145 134 18
f 145 18 141
f 143 17 134
f 143 134 145
f 19 143 145
f 19 145 144
f 63 147 146
f 63 146 21
f 147 143 19
f 147 19 146
f 138 17 143
f 138 143 147
f 54 138 147
f 54 147 63
f 58 149 148
f 58 148 22
f 149 144 20
f 149 20 148
f 146 19 144
f 146 144 149
f 21 146 149
f 21 149 58
f 152 153 148
f 152 148 20
f 153 150 22
f 153 22 148
f 151 37 150
f 151 150 153
f 36 151 153
f 36 153 152
f 155 156 140
f 155 140 29
f 156 152 20
f 156 20 140
f 154 36 152
f 154 152 156
f 35 154 156
f 35 156 155
f 150 159 78
f 150 78 22
f 159 157 30
f 159 30 78
f 158 38 157
f 158 157 159
f 37 158 159
f 37 159 150
f 81 162 160
f 81 160 23
f 162 161 39
f 162 39 160
f 157 38 161
f 157 161 162
f 30 157 162
f 30 162 81
f 164 165 160
f 164 160 39
f 165 88 23
f 165 23 160
f 163 24 88
f 163 88 165
f 40 163 165
f 40 165 164
f 163 168 101
f 163 101 24
f 168 166 25
f 168 25 101
f 167 31 166
f 167 166 168
f 40 167 168
f 40 168 163
f 107 171 169
f 107 169 26
f 171 170 32
f 171 32 169
f 166 31 170
f 166 170 171
f 25 166 171
f 25 171 107
f 114 174 172
f 114 172 27
f 174 173 33
f 174 33 172
f 169 32 173
f 169 173 174
f 26 169 174
f 26 174 114
f 176 177 172
f 176 172 33
f 177 132 27
f 177 27 172
f 175 28 132
f 175 132 177
f 34 175 177
f 34 177 176
f 175 179 128
f 175 128 28
f 179 155 29
f 179 29 128
f 178 35 155
f 178 155 179
f 34 178 179
f 34 179 175
f 170 183 180
f 170 180 32
f 183 181 48
f 183 48 180
f 182 47 181
f 182 181 183
f 31 182 183
f 31 183 170
f 185 186 167
f 185 167 40
f 186 182 31
f 186 31 167
f 184 47 182
f 184 182 186
f 46 184 186
f 46 186 185
f 188 189 180
f 188 180 48
f 189 173 32
f 189 32 180
f 187 33 173
f 187 173 189
f 49 187 189
f 49 189 188
f 176 192 190
f 176 190 34
f 192 191 52
f 192 52 190
f 187 49 191
f 187 191 192
f 33 187 192
f 33 192 176
f 190 195 178
f 190 178 34
f 195 193 35
f 195 35 178
f 194 41 193
f 194 193 195
f 52 194 195
f 52 195 190
f 193 198 154
f 193 154 35
f 198 196 36
f 198 36 154
f 197 42 196
f 197 196 198
f 41 197 198
f 41 198 193
f 196 201 151
f 196 151 36
f 201 199 37
f 201 37 151
f 200 43 199
f 200 199 201
f 42 200 201
f 42 201 196
f 199 204 158
f 199 158 37
f 204 202 38
f 204 38 158
f 203 44 202
f 203 202 204
f 43 203 204
f 43 204 199
f 161 207 205
f 161 205 39
f 207 206 45
f 207 45 205
f 202 44 206
f 202 206 207
f 38 202 207
f 38 207 161
f 164 209 185
f 164 185 40
f 209 208 46
f 209 46 185
f 205 45 208
f 205 208 209
f 39 205 209
f 39 209 164
f 200 212 210
f 200 210 43
f 212 211 51
f 212 51 210
f 197 41 211
f 197 211 212
f 42 197 212
f 42 212 200
f 213 214 191
f 213 191 49
f 214 194 52
f 214 52 191
f 211 41 194
f 211 194 214
f 51 211 214
f 51 214 213
f 216 217 215
f 216 215 50
f 217 210 51
f 217 51 215
f 203 43 210
f 203 210 217
f 44 203 217
f 44 217 216
f 208 219 218
f 208 218 46
f 219 216 50
f 219 50 218
f 206 44 216
f 206 216 219
f 45 206 219
f 45 219 208
f 218 221 184
f 218 184 46
f 221 181 47
f 221 47 184
f 220 48 181
f 220 181 221
f 50 220 221
f 50 221 218
f 215 222 220
f 215 220 50
f 222 188 48
f 222 48 220
f 213 49 188
f 213 188 222
f 51 213 222
f 51 222 215
