# Trapezium_L rest
v 0.735077 0.028583 -0.040698
v 0.738237 0.030056 -0.041761
v 0.739833 0.027525 -0.042191
v 0.736056 0.026777 -0.040800
v 0.744799 0.027468 -0.040032
v 0.743125 0.030383 -0.039785
v 0.747587 0.029349 -0.036917
v 0.748032 0.026800 -0.037252
v 0.750272 0.027147 -0.034051
v 0.750172 0.029707 -0.034317
v 0.750071 0.027637 -0.030220
v 0.747587 0.031375 -0.029354
v 0.743042 0.031660 -0.031646
v 0.742259 0.029775 -0.029439
v 0.738754 0.031869 -0.034772
v 0.738597 0.030140 -0.031559
v 0.735793 0.030095 -0.035942
v 0.736019 0.029037 -0.033131
v 0.734052 0.027930 -0.036063
v 0.734354 0.026316 -0.033650
v 0.733286 0.027741 -0.038118
v 0.734487 0.025124 -0.037223
v 0.744441 0.024649 -0.038879
v 0.747135 0.024417 -0.036909
v 0.748759 0.024227 -0.033626
v 0.748259 0.024558 -0.030269
v 0.746064 0.025938 -0.028090
v 0.741863 0.027355 -0.028237
v 0.738037 0.027365 -0.030043
v 0.740259 0.024544 -0.039242
v 0.746810 0.022274 -0.032895
v 0.746374 0.022553 -0.029863
v 0.744591 0.023530 -0.027365
v 0.740872 0.024873 -0.026936
v 0.737902 0.024787 -0.029148
v 0.736262 0.024004 -0.032204
v 0.736700 0.023226 -0.035372
v 0.739919 0.022416 -0.037093
v 0.743325 0.022447 -0.037869
v 0.745883 0.022473 -0.036236
v 0.738547 0.022405 -0.028601
v 0.737862 0.022279 -0.030985
v 0.738169 0.021650 -0.033126
v 0.739325 0.021040 -0.034772
v 0.741686 0.020944 -0.035888
v 0.743558 0.020703 -0.034460
v 0.744812 0.020965 -0.032246
v 0.744007 0.020951 -0.029488
v 0.742448 0.021712 -0.027162
v 0.740465 0.019893 -0.031485
v 0.739355 0.020769 -0.029521
v 0.740211 0.022672 -0.026911
v 0.746892 0.028941 -0.028189
v 0.736312 0.030497 -0.038901
v 0.740849 0.031959 -0.037692
v 0.746384 0.031374 -0.034314
v 0.750641 0.030983 -0.031006
v 0.733324 0.026440 -0.037614
v 0.733938 0.028339 -0.039585
v 0.735337 0.027725 -0.040928
v 0.735316 0.025866 -0.039495
v 0.734048 0.026927 -0.039317
v 0.734458 0.029157 -0.038647
v 0.737200 0.030469 -0.040465
v 0.736160 0.029516 -0.041436
v 0.735172 0.029522 -0.040150
v 0.739163 0.028967 -0.042413
v 0.737562 0.026995 -0.041785
v 0.737045 0.028450 -0.042079
v 0.744160 0.028993 -0.040145
v 0.742406 0.027637 -0.041408
v 0.740639 0.030398 -0.041064
v 0.741682 0.029141 -0.041574
v 0.738426 0.031493 -0.038592
v 0.742017 0.031375 -0.038908
v 0.739502 0.031149 -0.039984
v 0.740171 0.025996 -0.040874
v 0.737472 0.024609 -0.038485
v 0.737570 0.025718 -0.040284
v 0.744798 0.026000 -0.039509
v 0.742560 0.024605 -0.039319
v 0.742652 0.026079 -0.040473
v 0.745516 0.029804 -0.038367
v 0.747921 0.028095 -0.037296
v 0.746575 0.027108 -0.038662
v 0.746216 0.028483 -0.038714
v 0.747697 0.025557 -0.037115
v 0.745915 0.024578 -0.038076
v 0.746386 0.025793 -0.038404
v 0.747217 0.030500 -0.035782
v 0.743586 0.031752 -0.036162
v 0.744697 0.030943 -0.037437
v 0.750371 0.028804 -0.034329
v 0.749360 0.026881 -0.035745
v 0.749176 0.029654 -0.035558
v 0.749324 0.028333 -0.035912
v 0.750673 0.030472 -0.032913
v 0.749003 0.031314 -0.032465
v 0.749322 0.030625 -0.034173
v 0.749649 0.025592 -0.033847
v 0.748171 0.024269 -0.035368
v 0.748898 0.025501 -0.035580
v 0.750755 0.029554 -0.030363
v 0.750529 0.027340 -0.032082
v 0.750958 0.029159 -0.032305
v 0.749190 0.025975 -0.030241
v 0.748747 0.024287 -0.031878
v 0.749719 0.025699 -0.031980
v 0.749311 0.031500 -0.029726
v 0.747365 0.030647 -0.028558
v 0.748807 0.028245 -0.028841
v 0.749452 0.030129 -0.029034
v 0.746484 0.027390 -0.028127
v 0.747403 0.025169 -0.028941
v 0.748111 0.026610 -0.028884
v 0.745745 0.031717 -0.030091
v 0.742392 0.030904 -0.030435
v 0.744621 0.029384 -0.028530
v 0.744920 0.030778 -0.029188
v 0.744713 0.031763 -0.032940
v 0.747498 0.031751 -0.031149
v 0.738574 0.031181 -0.033065
v 0.740282 0.030115 -0.030525
v 0.740706 0.031882 -0.033333
v 0.740298 0.031173 -0.031840
v 0.739638 0.032126 -0.036314
v 0.742042 0.032058 -0.034785
v 0.739855 0.027584 -0.028932
v 0.742100 0.028592 -0.028788
v 0.738354 0.028794 -0.030631
v 0.740117 0.028892 -0.029614
v 0.744113 0.026702 -0.027912
v 0.744387 0.028039 -0.028199
v 0.735818 0.029585 -0.034188
v 0.737018 0.029670 -0.032301
v 0.737124 0.031182 -0.035574
v 0.737070 0.030598 -0.033764
v 0.735889 0.030395 -0.037452
v 0.737596 0.031499 -0.037151
v 0.736211 0.026805 -0.031588
v 0.735245 0.027951 -0.033073
v 0.736604 0.028269 -0.031774
v 0.734730 0.028897 -0.036077
v 0.733994 0.027236 -0.035169
v 0.734812 0.028339 -0.034579
v 0.733519 0.027738 -0.036925
v 0.734452 0.029066 -0.037360
v 0.733924 0.025539 -0.035385
v 0.733392 0.026582 -0.036205
v 0.735691 0.024093 -0.036163
v 0.736143 0.023622 -0.033884
v 0.735238 0.025066 -0.032926
v 0.734932 0.024580 -0.034647
v 0.736882 0.024423 -0.030618
v 0.737863 0.026056 -0.029561
v 0.736345 0.025584 -0.031169
v 0.740173 0.023353 -0.038072
v 0.738117 0.022755 -0.036383
v 0.737737 0.023617 -0.037303
v 0.743987 0.023494 -0.038442
v 0.741687 0.022364 -0.037686
v 0.742243 0.023380 -0.038490
v 0.746579 0.023416 -0.036657
v 0.744761 0.022498 -0.037348
v 0.745424 0.023509 -0.037807
v 0.747830 0.023161 -0.033288
v 0.746555 0.022351 -0.034645
v 0.747421 0.023253 -0.035058
v 0.747350 0.023443 -0.030132
v 0.746737 0.022340 -0.031320
v 0.747772 0.023209 -0.031641
v 0.745442 0.024631 -0.027780
v 0.745708 0.022961 -0.028460
v 0.746629 0.023949 -0.028772
v 0.741418 0.026129 -0.027531
v 0.742857 0.024242 -0.026828
v 0.743588 0.025430 -0.027368
v 0.739223 0.024997 -0.027814
v 0.739519 0.026299 -0.028303
v 0.745310 0.021748 -0.029508
v 0.744430 0.020822 -0.031005
v 0.745644 0.021447 -0.032514
v 0.745609 0.021536 -0.030975
v 0.744288 0.020750 -0.033254
v 0.744869 0.021537 -0.035523
v 0.745456 0.021482 -0.034122
v 0.743626 0.022567 -0.027043
v 0.743387 0.021277 -0.028138
v 0.744684 0.022106 -0.028110
v 0.740348 0.023527 -0.026717
v 0.741096 0.022154 -0.026767
v 0.742050 0.023079 -0.026567
v 0.738178 0.023523 -0.028759
v 0.739231 0.022489 -0.027489
v 0.739072 0.023652 -0.027551
v 0.737287 0.022890 -0.031411
v 0.738162 0.022239 -0.029801
v 0.737590 0.023230 -0.030024
v 0.737522 0.022399 -0.034412
v 0.738011 0.021893 -0.031848
v 0.737225 0.022640 -0.032985
v 0.739518 0.021712 -0.036039
v 0.738586 0.021344 -0.034056
v 0.738343 0.022048 -0.035368
v 0.742305 0.021457 -0.036830
v 0.740417 0.020830 -0.035402
v 0.740876 0.021518 -0.036611
v 0.742408 0.020702 -0.035321
v 0.743728 0.021494 -0.036447
v 0.738630 0.021033 -0.031355
v 0.738949 0.021500 -0.028895
v 0.738439 0.021551 -0.030394
v 0.740845 0.021037 -0.028057
v 0.739955 0.021658 -0.027616
v 0.739725 0.020183 -0.030357
v 0.739594 0.020285 -0.033134
v 0.738918 0.020576 -0.032228
v 0.741936 0.020094 -0.032985
v 0.740905 0.020303 -0.034192
v 0.742181 0.020209 -0.030209
v 0.743166 0.020297 -0.031799
v 0.741496 0.020507 -0.028941
f 22 58 62
f 22 62 61
f 58 21 59
f 58 59 62
f 62 59 1
f 62 1 60
f 61 62 60
f 61 60 4
f 21 63 66
f 21 66 59
f 63 54 64
f 63 64 66
f 66 64 2
f 66 2 65
f 59 66 65
f 59 65 1
f 4 60 69
f 4 69 68
f 60 1 65
f 60 65 69
f 69 65 2
f 69 2 67
f 68 69 67
f 68 67 3
f 6 70 73
f 6 73 72
f 70 5 71
f 70 71 73
f 73 71 3
f 73 3 67
f 72 73 67
f 72 67 2
f 54 74 76
f 54 76 64
f 74 55 75
f 74 75 76
f 76 75 6
f 76 6 72
f 64 76 72
f 64 72 2
f 22 61 79
f 22 79 78
f 61 4 68
f 61 68 79
f 79 68 3
f 79 3 77
f 78 79 77
f 78 77 30
f 5 80 82
f 5 82 71
f 80 23 81
f 80 81 82
f 82 81 30
f 82 30 77
f 71 82 77
f 71 77 3
f 6 83 86
f 6 86 70
f 83 7 84
f 83 84 86
f 86 84 8
f 86 8 85
f 70 86 85
f 70 85 5
f 5 85 89
f 5 89 80
f 85 8 87
f 85 87 89
f 89 87 24
f 89 24 88
f 80 89 88
f 80 88 23
f 56 90 92
f 56 92 91
f 90 7 83
f 90 83 92
f 92 83 6
f 92 6 75
f 91 92 75
f 91 75 55
f 10 93 96
f 10 96 95
f 93 9 94
f 93 94 96
f 96 94 8
f 96 8 84
f 95 96 84
f 95 84 7
f 57 97 99
f 57 99 98
f 97 10 95
f 97 95 99
f 99 95 7
f 99 7 90
f 98 99 90
f 98 90 56
f 9 100 102
f 9 102 94
f 100 25 101
f 100 101 102
f 102 101 24
f 102 24 87
f 94 102 87
f 94 87 8
f 57 103 105
f 57 105 97
f 103 11 104
f 103 104 105
f 105 104 9
f 105 9 93
f 97 105 93
f 97 93 10
f 11 106 108
f 11 108 104
f 106 26 107
f 106 107 108
f 108 107 25
f 108 25 100
f 104 108 100
f 104 100 9
f 11 103 112
f 11 112 111
f 103 57 109
f 103 109 112
f 112 109 12
f 112 12 110
f 111 112 110
f 111 110 53
f 53 113 115
f 53 115 111
f 113 27 114
f 113 114 115
f 115 114 26
f 115 26 106
f 111 115 106
f 111 106 11
f 12 116 119
f 12 119 110
f 116 13 117
f 116 117 119
f 119 117 14
f 119 14 118
f 110 119 118
f 110 118 53
f 57 98 121
f 57 121 109
f 98 56 120
f 98 120 121
f 121 120 13
f 121 13 116
f 109 121 116
f 109 116 12
f 15 122 125
f 15 125 124
f 122 16 123
f 122 123 125
f 125 123 14
f 125 14 117
f 124 125 117
f 124 117 13
f 56 91 127
f 56 127 120
f 91 55 126
f 91 126 127
f 127 126 15
f 127 15 124
f 120 127 124
f 120 124 13
f 29 128 131
f 29 131 130
f 128 28 129
f 128 129 131
f 131 129 14
f 131 14 123
f 130 131 123
f 130 123 16
f 14 129 133
f 14 133 118
f 129 28 132
f 129 132 133
f 133 132 27
f 133 27 113
f 118 133 113
f 118 113 53
f 17 134 137
f 17 137 136
f 134 18 135
f 134 135 137
f 137 135 16
f 137 16 122
f 136 137 122
f 136 122 15
f 55 74 139
f 55 139 126
f 74 54 138
f 74 138 139
f 139 138 17
f 139 17 136
f 126 139 136
f 126 136 15
f 20 140 142
f 20 142 141
f 140 29 130
f 140 130 142
f 142 130 16
f 142 16 135
f 141 142 135
f 141 135 18
f 20 141 145
f 20 145 144
f 141 18 134
f 141 134 145
f 145 134 17
f 145 17 143
f 144 145 143
f 144 143 19
f 21 146 147
f 21 147 63
f 146 19 143
f 146 143 147
f 147 143 17
f 147 17 138
f 63 147 138
f 63 138 54
f 22 148 149
f 22 149 58
f 148 20 144
f 148 144 149
f 149 144 19
f 149 19 146
f 58 149 146
f 58 146 21
f 20 148 153
f 20 153 152
f 148 22 150
f 148 150 153
f 153 150 37
f 153 37 151
f 152 153 151
f 152 151 36
f 29 140 156
f 29 156 155
f 140 20 152
f 140 152 156
f 156 152 36
f 156 36 154
f 155 156 154
f 155 154 35
f 22 78 159
f 22 159 150
f 78 30 157
f 78 157 159
f 159 157 38
f 159 38 158
f 150 159 158
f 150 158 37
f 23 160 162
f 23 162 81
f 160 39 161
f 160 161 162
f 162 161 38
f 162 38 157
f 81 162 157
f 81 157 30
f 39 160 165
f 39 165 164
f 160 23 88
f 160 88 165
f 165 88 24
f 165 24 163
f 164 165 163
f 164 163 40
f 24 101 168
f 24 168 163
f 101 25 166
f 101 166 168
f 168 166 31
f 168 31 167
f 163 168 167
f 163 167 40
f 26 169 171
f 26 171 107
f 169 32 170
f 169 170 171
f 171 170 31
f 171 31 166
f 107 171 166
f 107 166 25
f 27 172 174
f 27 174 114
f 172 33 173
f 172 173 174
f 174 173 32
f 174 32 169
f 114 174 169
f 114 169 26
f 33 172 177
f 33 177 176
f 172 27 132
f 172 132 177
f 177 132 28
f 177 28 175
f 176 177 175
f 176 175 34
f 28 128 179
f 28 179 175
f 128 29 155
f 128 155 179
f 179 155 35
f 179 35 178
f 175 179 178
f 175 178 34
f 32 180 183
f 32 183 170
f 180 48 181
f 180 181 183
f 183 181 47
f 183 47 182
f 170 183 182
f 170 182 31
f 40 167 186
f 40 186 185
f 167 31 182
f 167 182 186
f 186 182 47
f 186 47 184
f 185 186 184
f 185 184 46
f 48 180 189
f 48 189 188
f 180 32 173
f 180 173 189
f 189 173 33
f 189 33 187
f 188 189 187
f 188 187 49
f 34 190 192
f 34 192 176
f 190 52 191
f 190 191 192
f 192 191 49
f 192 49 187
f 176 192 187
f 176 187 33
f 34 178 195
f 34 195 190
f 178 35 193
f 178 193 195
f 195 193 41
f 195 41 194
f 190 195 194
f 190 194 52
f 35 154 198
f 35 198 193
f 154 36 196
f 154 196 198
f 198 196 42
f 198 42 197
f 193 198 197
f 193 197 41
f 36 151 201
f 36 201 196
f 151 37 199
f 151 199 201
f 201 199 43
f 201 43 200
f 196 201 200
f 196 200 42
f 37 158 204
f 37 204 199
f 158 38 202
f 158 202 204
f 204 202 44
f 204 44 203
f 199 204 203
f 199 203 43
f 39 205 207
f 39 207 161
f 205 45 206
f 205 206 207
f 207 206 44
f 207 44 202
f 161 207 202
f 161 202 38
f 40 185 209
f 40 209 164
f 185 46 208
f 185 208 209
f 209 208 45
f 209 45 205
f 164 209 205
f 164 205 39
f 43 210 212
f 43 212 200
f 210 51 211
f 210 211 212
f 212 211 41
f 212 41 197
f 200 212 197
f 200 197 42
f 49 191 214
f 49 214 213
f 191 52 194
f 191 194 214
f 214 194 41
f 214 41 211
f 213 214 211
f 213 211 51
f 50 215 217
f 50 217 216
f 215 51 210
f 215 210 217
f 217 210 43
f 217 43 203
f 216 217 203
f 216 203 44
f 46 218 219
f 46 219 208
f 218 50 216
f 218 216 219
f 219 216 44
f 219 44 206
f 208 219 206
f 208 206 45
f 46 184 221
f 46 221 218
f 184 47 181
f 184 181 221
f 221 181 48
f 221 48 220
f 218 221 220
f 218 220 50
f 50 220 222
f 50 222 215
f 220 48 188
f 220 188 222
f 222 188 49
f 222 49 213
f 215 222 213
f 215 213 51
