# Trapezium_R posed
v -0.768401 0.191806 0.381834
v -0.770922 0.193876 0.382247
v -0.772577 0.191083 0.382021
v -0.769355 0.189838 0.381780
v -0.774762 0.192159 0.385275
v -0.773184 0.195307 0.385413
v -0.775310 0.194691 0.388951
v -0.775961 0.191869 0.388385
v -0.776992 0.191765 0.391724
v -0.776941 0.194502 0.391957
v -0.775654 0.191983 0.394766
v -0.773070 0.196159 0.395309
v -0.769734 0.197000 0.392007
v -0.768294 0.195003 0.393162
v -0.767756 0.196813 0.388174
v -0.766338 0.195108 0.390364
v -0.766246 0.194410 0.386008
v -0.765221 0.193497 0.388119
v -0.765381 0.191592 0.385022
v -0.764696 0.189970 0.386756
v -0.766010 0.190869 0.383152
v -0.766737 0.188104 0.383816
v -0.774375 0.188880 0.385585
v -0.775557 0.188926 0.387951
v -0.775671 0.188684 0.391017
v -0.773809 0.189227 0.393536
v -0.771010 0.190873 0.394783
v -0.767608 0.192389 0.393562
v -0.765474 0.192045 0.390917
v -0.771577 0.188236 0.383950
v -0.774942 0.185488 0.390648
v -0.773105 0.186128 0.392917
v -0.770422 0.187450 0.394478
v -0.767033 0.189050 0.393867
v -0.765507 0.188866 0.391164
v -0.765705 0.187614 0.388116
v -0.767650 0.186388 0.385649
v -0.771070 0.185444 0.385192
v -0.774296 0.185353 0.385691
v -0.775648 0.185499 0.387788
v -0.766692 0.185506 0.391427
v -0.766933 0.185460 0.389308
v -0.768327 0.184456 0.387627
v -0.770411 0.183307 0.386621
v -0.773044 0.182939 0.386492
v -0.774327 0.182391 0.388170
v -0.774266 0.182904 0.390330
v -0.772577 0.182877 0.392228
v -0.769924 0.184188 0.393682
v -0.771044 0.181171 0.389395
v -0.768624 0.182861 0.390710
v -0.767436 0.185773 0.393328
v -0.771908 0.193791 0.395538
v -0.768019 0.194568 0.383923
v -0.770510 0.196968 0.386573
v -0.773341 0.196816 0.390959
v -0.776587 0.195277 0.394984
v -0.765987 0.189389 0.383356
v -0.767109 0.191476 0.382305
v -0.768822 0.190798 0.381603
v -0.768317 0.188826 0.382420
v -0.767243 0.189870 0.382329
v -0.766813 0.192719 0.383323
v -0.769448 0.194428 0.382985
v -0.769419 0.192946 0.381751
v -0.768047 0.193018 0.382437
v -0.772055 0.192628 0.381865
v -0.770897 0.190156 0.381528
v -0.770502 0.191737 0.381366
v -0.774201 0.193827 0.385236
v -0.773842 0.191787 0.383466
v -0.772125 0.194785 0.383615
v -0.773250 0.193409 0.383351
v -0.769246 0.196048 0.385004
v -0.771923 0.196362 0.385903
v -0.770708 0.195639 0.384210
v -0.772213 0.189645 0.382895
v -0.769319 0.187952 0.383674
v -0.770203 0.188969 0.382487
v -0.774658 0.190536 0.385433
v -0.773229 0.188589 0.384631
v -0.773664 0.190198 0.384009
v -0.774253 0.195077 0.387203
v -0.775792 0.193314 0.388543
v -0.775404 0.192090 0.386858
v -0.775023 0.193632 0.386936
v -0.775774 0.190437 0.388164
v -0.775114 0.188977 0.386674
v -0.775303 0.190568 0.386770
v -0.774552 0.195920 0.389924
v -0.771821 0.197139 0.388635
v -0.773193 0.196308 0.387859
v -0.777146 0.193519 0.391847
v -0.776623 0.191786 0.390030
v -0.776330 0.194745 0.390622
v -0.776588 0.193365 0.390151
v -0.777099 0.194994 0.393387
v -0.775230 0.196255 0.393313
v -0.776034 0.195640 0.391945
v -0.776377 0.190195 0.391385
v -0.775811 0.188774 0.389468
v -0.776251 0.190288 0.389756
v -0.776511 0.193703 0.395259
v -0.776671 0.191733 0.393398
v -0.777208 0.193506 0.393718
v -0.774666 0.190567 0.394132
v -0.774933 0.188817 0.392389
v -0.775796 0.190231 0.392893
v -0.774905 0.195961 0.395634
v -0.772614 0.195374 0.395729
v -0.773938 0.192807 0.395537
v -0.774796 0.194485 0.395968
v -0.771396 0.192346 0.395159
v -0.772513 0.189970 0.394410
v -0.773147 0.191373 0.394957
v -0.771579 0.196817 0.394159
v -0.768781 0.196175 0.392618
v -0.769950 0.194518 0.394591
v -0.770516 0.195894 0.394425
v -0.771494 0.197195 0.391554
v -0.773447 0.196792 0.393920
v -0.766918 0.196153 0.389345
v -0.767172 0.195260 0.391720
v -0.768570 0.197102 0.389944
v -0.767688 0.196352 0.390869
v -0.769037 0.197102 0.387289
v -0.770114 0.197384 0.389265
v -0.766361 0.192480 0.392410
v -0.767928 0.193761 0.393418
v -0.765830 0.193664 0.390792
v -0.766727 0.193952 0.392177
v -0.769266 0.191766 0.394427
v -0.769570 0.193184 0.394529
v -0.765511 0.193997 0.387313
v -0.765546 0.194366 0.389196
v -0.766956 0.195822 0.386902
v -0.766153 0.195310 0.388212
v -0.767016 0.194582 0.384905
v -0.767992 0.196089 0.385867
v -0.764895 0.191084 0.389031
v -0.764782 0.192130 0.387745
v -0.765101 0.192806 0.389248
v -0.765700 0.192858 0.385374
v -0.765016 0.190859 0.385595
v -0.765113 0.192388 0.386487
v -0.765524 0.191113 0.384153
v -0.766149 0.192817 0.384311
v -0.765386 0.188742 0.385142
v -0.765276 0.189789 0.384498
v -0.767156 0.187232 0.384854
v -0.766460 0.186979 0.386701
v -0.765132 0.188706 0.387400
v -0.765834 0.187869 0.385881
v -0.765395 0.188295 0.389624
v -0.765354 0.190471 0.391029
v -0.765004 0.189657 0.389208
v -0.771283 0.186784 0.384648
v -0.769266 0.185838 0.385229
v -0.769144 0.186880 0.384523
v -0.774396 0.187111 0.385606
v -0.772826 0.185319 0.385289
v -0.773056 0.186912 0.384988
v -0.775632 0.187242 0.387818
v -0.775242 0.185438 0.386568
v -0.775236 0.187225 0.386567
v -0.775244 0.187108 0.390803
v -0.775498 0.185466 0.389219
v -0.775639 0.187145 0.389307
v -0.773344 0.187735 0.393157
v -0.774134 0.185715 0.391861
v -0.774431 0.187306 0.392075
v -0.770681 0.189209 0.394601
v -0.771886 0.186707 0.393874
v -0.772124 0.188388 0.394081
v -0.767256 0.190824 0.393773
v -0.768652 0.188354 0.394472
v -0.768923 0.190141 0.394471
v -0.766019 0.189169 0.392671
v -0.766085 0.190897 0.392588
v -0.772925 0.184443 0.392741
v -0.773610 0.182626 0.391156
v -0.774615 0.183844 0.390454
v -0.773885 0.184056 0.391656
v -0.774442 0.182459 0.389348
v -0.775253 0.183813 0.387883
v -0.775146 0.183806 0.389150
v -0.770241 0.185694 0.394278
v -0.771329 0.183454 0.393141
v -0.771703 0.185007 0.393697
v -0.767099 0.187051 0.393661
v -0.768418 0.184911 0.393640
v -0.768562 0.186452 0.394240
v -0.765975 0.187154 0.391358
v -0.766922 0.185507 0.392537
v -0.766283 0.187267 0.392618
v -0.766425 0.186288 0.388886
v -0.766805 0.185350 0.390331
v -0.766036 0.186771 0.390128
v -0.768056 0.185451 0.386529
v -0.767549 0.184883 0.388617
v -0.767103 0.185880 0.387591
v -0.770682 0.184372 0.385787
v -0.769266 0.183890 0.386988
v -0.769271 0.184908 0.385988
v -0.773649 0.183734 0.386031
v -0.771807 0.182831 0.386449
v -0.772225 0.183964 0.385749
v -0.773658 0.182449 0.387132
v -0.774706 0.183736 0.386792
v -0.768416 0.183440 0.389075
v -0.767595 0.184091 0.391184
v -0.767581 0.184302 0.389846
v -0.769256 0.183177 0.392369
v -0.767984 0.184209 0.392534
v -0.769721 0.181765 0.390087
v -0.770551 0.181986 0.387883
v -0.769359 0.182583 0.388419
v -0.772752 0.181445 0.388715
v -0.772128 0.181903 0.387475
v -0.771835 0.181628 0.390978
v -0.773239 0.181721 0.390059
v -0.770523 0.182215 0.391799
f 61 62 58
f 61 58 22
f 62 59 21
f 62 21 58
f 60 1 59
f 60 59 62
f 4 60 62
f 4 62 61
f 59 66 63
f 59 63 21
f 66 64 54
f 66 54 63
f 65 2 64
f 65 64 66
f 1 65 66
f 1 66 59
f 68 69 60
f 68 60 4
f 69 65 1
f 69 1 60
f 67 2 65
f 67 65 69
f 3 67 69
f 3 69 68
f 72 73 70
f 72 70 6
f 73 71 5
f 73 5 70
f 67 3 71
f 67 71 73
f 2 67 73
f 2 73 72
f 64 76 74
f 64 74 54
f 76 75 55
f 76 55 74
f 72 6 75
f 72 75 76
f 2 72 76
f 2 76 64
f 78 79 61
f 78 61 22
f 79 68 4
f 79 4 61
f 77 3 68
f 77 68 79
f 30 77 79
f 30 79 78
f 71 82 80
f 71 80 5
f 82 81 23
f 82 23 80
f 77 30 81
f 77 81 82
f 3 77 82
f 3 82 71
f 70 86 83
f 70 83 6
f 86 84 7
f 86 7 83
f 85 8 84
f 85 84 86
f 5 85 86
f 5 86 70
f 80 89 85
f 80 85 5
f 89 87 8
f 89 8 85
f 88 24 87
f 88 87 89
f 23 88 89
f 23 89 80
f 91 92 90
f 91 90 56
f 92 83 7
f 92 7 90
f 75 6 83
f 75 83 92
f 55 75 92
f 55 92 91
f 95 96 93
f 95 93 10
f 96 94 9
f 96 9 93
f 84 8 94
f 84 94 96
f 7 84 96
f 7 96 95
f 98 99 97
f 98 97 57
f 99 95 10
f 99 10 97
f 90 7 95
f 90 95 99
f 56 90 99
f 56 99 98
f 94 102 100
f 94 100 9
f 102 101 25
f 102 25 100
f 87 24 101
f 87 101 102
f 8 87 102
f 8 102 94
f 97 105 103
f 97 103 57
f 105 104 11
f 105 11 103
f 93 9 104
f 93 104 105
f 10 93 105
f 10 105 97
f 104 108 106
f 104 106 11
f 108 107 26
f 108 26 106
f 100 25 107
f 100 107 108
f 9 100 108
f 9 108 104
f 111 112 103
f 111 103 11
f 112 109 57
f 112 57 103
f 110 12 109
f 110 109 112
f 53 110 112
f 53 112 111
f 111 115 113
f 111 113 53
f 115 114 27
f 115 27 113
f 106 26 114
f 106 114 115
f 11 106 115
f 11 115 111
f 110 119 116
f 110 116 12
f 119 117 13
f 119 13 116
f 118 14 117
f 118 117 119
f 53 118 119
f 53 119 110
f 109 121 98
f 109 98 57
f 121 120 56
f 121 56 98
f 116 13 120
f 116 120 121
f 12 116 121
f 12 121 109
f 124 125 122
f 124 122 15
f 125 123 16
f 125 16 122
f 117 14 123
f 117 123 125
f 13 117 125
f 13 125 124
f 120 127 91
f 120 91 56
f 127 126 55
f 127 55 91
f 124 15 126
f 124 126 127
f 13 124 127
f 13 127 120
f 130 131 128
f 130 128 29
f 131 129 28
f 131 28 128
f 123 14 129
f 123 129 131
f 16 123 131
f 16 131 130
f 118 133 129
f 118 129 14
f 133 132 28
f 133 28 129
f 113 27 132
f 113 132 133
f 53 113 133
f 53 133 118
f 136 137 134
f 136 134 17
f 137 135 18
f 137 18 134
f 122 16 135
f 122 135 137
f 15 122 137
f 15 137 136
f 126 139 74
f 126 74 55
f 139 138 54
f 139 54 74
f 136 17 138
f 136 138 139
f 15 136 139
f 15 139 126
f 141 142 140
f 141 140 20
f 142 130 29
f 142 29 140
f 135 16 130
f 135 130 142
f 18 135 142
f 18 142 141
f 144 145 141
f 144 141 20
f 145 134 18
f 145 18 141
f 143 17 134
f 143 134 145
f 19 143 145
f 19 145 144
f 63 147 146
f 63 146 21
f 147 143 19
f 147 19 146
f 138 17 143
f 138 143 147
f 54 138 147
f 54 147 63
f 58 149 148
f 58 148 22
f 149 144 20
f 149 20 148
f 146 19 144
f 146 144 149
f 21 146 149
f 21 149 58
f 152 153 148
f 152 148 20
f 153 150 22
f 153 22 148
f 151 37 150
f 151 150 153
f 36 151 153
f 36 153 152
f 155 156 140
f 155 140 29
f 156 152 20
f 156 20 140
f 154 36 152
f 154 152 156
f 35 154 156
f 35 156 155
f 150 159 78
f 150 78 22
f 159 157 30
f 159 30 78
f 158 38 157
f 158 157 159
f 37 158 159
f 37 159 150
f 81 162 160
f 81 160 23
f 162 161 39
f 162 39 160
f 157 38 161
f 157 161 162
f 30 157 162
f 30 162 81
f 164 165 160
f 164 160 39
f 165 88 23
f 165 23 160
f 163 24 88
f 163 88 165
f 40 163 165
f 40 165 164
f 163 168 101
f 163 101 24
f 168 166 25
f 168 25 101
f 167 31 166
f 167 166 168
f 40 167 168
f 40 168 163
f 107 171 169
f 107 169 26
f 171 170 32
f 171 32 169
f 166 31 170
f 166 170 171
f 25 166 171
f 25 171 107
f 114 174 172
f 114 172 27
f 174 173 33
f 174 33 172
f 169 32 173
f 169 173 174
f 26 169 174
f 26 174 114
f 176 177 172
f 176 172 33
f 177 132 27
f 177 27 172
f 175 28 132
f 175 132 177
f 34 175 177
f 34 177 176
f 175 179 128
f 175 128 28
f 179 155 29
f 179 29 128
f 178 35 155
f 178 155 179
f 34 178 179
f 34 179 175
f 170 183 180
f 170 180 32
f 183 181 48
f 183 48 180
f 182 47 181
f 182 181 183
f 31 182 183
f 31 183 170
f 185 186 167
f 185 167 40
f 186 182 31
f 186 31 167
f 184 47 182
f 184 182 186
f 46 184 186
f 46 186 185
f 188 189 180
f 188 180 48
f 189 173 32
f 189 32 180
f 187 33 173
f 187 173 189
f 49 187 189
f 49 189 188
f 176 192 190
f 176 190 34
f 192 191 52
f 192 52 190
f 187 49 191
f 187 191 192
f 33 187 192
f 33 192 176
f 190 195 178
f 190 178 34
f 195 193 35
f 195 35 178
f 194 41 193
f 194 193 195
f 52 194 195
f 52 195 190
f 193 198 154
f 193 154 35
f 198 196 36
f 198 36 154
f 197 42 196
f 197 196 198
f 41 197 198
f 41 198 193
f 196 201 151
f 196 151 36
f 201 199 37
f 201 37 151
f 200 43 199
f 200 199 201
f 42 200 201
f 42 201 196
f 199 204 158
f 199 158 37
f 204 202 38
f 204 38 158
f 203 44 202
f 203 202 204
f 43 203 204
f 43 204 199
f 161 207 205
f 161 205 39
f 207 206 45
f 207 45 205
f 202 44 206
f 202 206 207
f 38 202 207
f 38 207 161
f 164 209 185
f 164 185 40
f 209 208 46
f 209 46 185
f 205 45 208
f 205 208 209
f 39 205 209
f 39 209 164
f 200 212 210
f 200 210 43
f 212 211 51
f 212 51 210
f 197 41 211
f 197 211 212
f 42 197 212
f 42 212 200
f 213 214 191
f 213 191 49
f 214 194 52
f 214 52 191
f 211 41 194
f 211 194 214
f 51 211 214
f 51 214 213
f 216 217 215
f 216 215 50
f 217 210 51
f 217 51 215
f 203 43 210
f 203 210 217
f 44 203 217
f 44 217 216
f 208 219 218
f 208 218 46
f 219 216 50
f 219 50 218
f 206 44 216
f 206 216 219
f 45 206 219
f 45 219 208
f 218 221 184
f 218 184 46
f 221 181 47
f 221 47 184
f 220 48 181
f 220 181 221
f 50 220 221
f 50 221 218
f 215 222 220
f 215 220 50
f 222 188 48
f 222 48 220
f 213 49 188
f 213 188 222
f 51 213 222
f 51 222 215
