# Trapezoid_L posed
v -0.743462 -0.308295 0.370877
v -0.745162 -0.314115 0.368652
v -0.748534 -0.316413 0.365561
v -0.750323 -0.316095 0.364604
v -0.751976 -0.315992 0.364886
v -0.753773 -0.313552 0.365972
v -0.752822 -0.312477 0.366459
v -0.751617 -0.312417 0.367637
v -0.748288 -0.307577 0.371332
v -0.746801 -0.307141 0.373977
v -0.749511 -0.309646 0.376903
v -0.751105 -0.309572 0.376572
v -0.753591 -0.313386 0.372302
v -0.754884 -0.313949 0.370556
v -0.755518 -0.315915 0.368708
v -0.745702 -0.310862 0.376593
v -0.741628 -0.310806 0.374384
v -0.740214 -0.319263 0.374023
v -0.746020 -0.321506 0.367650
v -0.749117 -0.320737 0.366833
v -0.752208 -0.319426 0.367157
v -0.749466 -0.312529 0.379110
v -0.752299 -0.313751 0.379022
v -0.753042 -0.316326 0.375505
v -0.754521 -0.317931 0.373195
v -0.754929 -0.319423 0.371277
v -0.751806 -0.322449 0.371234
v -0.748702 -0.323727 0.371737
v -0.746046 -0.324498 0.373157
v -0.740053 -0.323657 0.377923
v -0.741398 -0.322936 0.381921
v -0.741944 -0.318621 0.379932
v -0.745487 -0.318977 0.383176
v -0.743715 -0.322281 0.384465
v -0.747381 -0.325072 0.382610
v -0.746661 -0.325086 0.378859
v -0.749344 -0.323636 0.376922
v -0.752197 -0.321542 0.375198
v -0.751168 -0.319766 0.378095
v -0.749349 -0.322577 0.380667
v -0.750733 -0.317417 0.381536
v -0.747797 -0.315624 0.381280
v -0.748621 -0.320631 0.383934
v -0.745371 -0.324471 0.385187
v -0.743097 -0.326030 0.381678
v -0.742091 -0.325141 0.376164
v -0.742376 -0.321282 0.370838
v -0.746676 -0.315927 0.367546
v -0.743789 -0.314615 0.378483
v -0.740212 -0.314381 0.374218
v -0.743899 -0.310832 0.369323
v -0.750600 -0.311918 0.369247
v -0.749445 -0.310120 0.370204
v -0.752860 -0.312179 0.373797
v -0.752341 -0.310401 0.374992
v -0.753076 -0.312292 0.377167
v -0.753257 -0.313551 0.375815
v -0.752164 -0.314020 0.364762
v -0.754626 -0.313015 0.367969
v -0.753557 -0.316146 0.366112
v -0.750788 -0.318138 0.365432
v -0.750274 -0.322150 0.369003
v -0.753896 -0.319978 0.369306
v -0.755500 -0.316633 0.371270
v -0.753790 -0.320908 0.372958
v -0.750457 -0.323363 0.373917
v -0.750482 -0.321933 0.377724
v -0.750279 -0.320266 0.381151
v -0.745808 -0.321540 0.384834
v -0.748389 -0.323741 0.383790
v -0.748183 -0.324183 0.379968
v -0.742894 -0.324368 0.384057
v -0.745470 -0.326048 0.382758
v -0.747725 -0.324355 0.375149
v -0.744580 -0.325461 0.377483
v -0.741102 -0.325107 0.379876
v -0.747334 -0.323258 0.369427
v -0.743541 -0.324139 0.371802
v -0.748367 -0.318792 0.365620
v -0.748308 -0.318063 0.382812
v -0.748155 -0.309873 0.376704
v -0.742933 -0.320602 0.382754
v -0.744654 -0.316675 0.381100
v -0.746890 -0.313296 0.379121
v -0.740113 -0.323211 0.374836
v -0.740374 -0.321321 0.378721
v -0.742616 -0.312614 0.376103
v -0.740873 -0.316767 0.376975
v -0.744039 -0.308701 0.374187
v -0.741029 -0.311011 0.371590
v -0.745770 -0.307928 0.370521
v -0.745667 -0.318929 0.367353
v -0.750794 -0.313893 0.365261
v -0.743298 -0.317876 0.370079
v -0.741874 -0.314950 0.370837
v -0.748227 -0.312804 0.368274
v -0.749513 -0.313867 0.366723
v -0.753430 -0.312403 0.369335
v -0.746941 -0.310319 0.369094
v -0.749122 -0.307648 0.374953
v -0.750644 -0.308714 0.373335
v -0.752341 -0.312056 0.370860
v -0.751510 -0.310886 0.372234
v -0.752826 -0.319076 0.375360
v -0.754302 -0.315499 0.372935
v -0.753301 -0.314041 0.374633
v -0.750816 -0.311433 0.378377
v -0.752548 -0.311412 0.377438
v -0.752034 -0.317162 0.378612
v -0.753045 -0.314122 0.376972
v -0.750379 -0.314830 0.380660
v -0.753356 -0.311879 0.375907
v -0.743546 -0.309412 0.369973
v -0.745776 -0.315210 0.368413
v -0.749421 -0.316300 0.364945
v -0.751211 -0.315964 0.364600
v -0.752851 -0.314757 0.365070
v -0.753407 -0.312853 0.366078
v -0.752215 -0.312403 0.367044
v -0.747542 -0.306760 0.372461
v -0.748482 -0.308392 0.375807
v -0.750108 -0.309604 0.376927
v -0.754229 -0.313685 0.371404
v -0.755433 -0.314475 0.369821
v -0.754643 -0.314256 0.367003
v -0.754080 -0.312556 0.368607
v -0.752847 -0.312298 0.370095
v -0.749984 -0.307832 0.374157
v -0.751474 -0.313848 0.364841
v -0.750156 -0.313933 0.365973
v -0.744956 -0.307232 0.371885
v -0.746299 -0.308970 0.375449
v -0.743561 -0.310780 0.375324
v -0.741674 -0.309330 0.373095
v -0.740776 -0.312221 0.374336
v -0.742555 -0.316677 0.370745
v -0.741196 -0.320514 0.372380
v -0.747113 -0.318905 0.366206
v -0.747689 -0.321180 0.367018
v -0.749567 -0.318499 0.365369
v -0.750573 -0.320268 0.366945
v -0.752121 -0.317437 0.365677
v -0.753977 -0.317963 0.367532
v -0.749607 -0.310926 0.377888
v -0.747698 -0.311630 0.377918
v -0.751780 -0.311511 0.378162
v -0.752678 -0.315602 0.377507
v -0.753639 -0.314951 0.373884
v -0.753778 -0.317341 0.374176
v -0.755002 -0.315904 0.372016
v -0.754931 -0.318822 0.372261
v -0.755457 -0.318000 0.370330
v -0.753665 -0.321151 0.371196
v -0.751998 -0.321330 0.369086
v -0.750163 -0.323208 0.371424
v -0.748773 -0.322728 0.369093
v -0.747451 -0.324121 0.372282
v -0.745714 -0.323848 0.370296
v -0.744119 -0.324926 0.374587
v -0.739762 -0.322128 0.376473
v -0.740497 -0.323486 0.379834
v -0.740456 -0.319034 0.377597
v -0.741525 -0.320762 0.380947
v -0.742745 -0.316525 0.379117
v -0.748786 -0.314031 0.380212
v -0.743654 -0.318540 0.381875
v -0.744428 -0.320803 0.383996
v -0.742594 -0.322543 0.383554
v -0.744267 -0.323212 0.385072
v -0.741800 -0.324820 0.382284
v -0.746975 -0.325246 0.381189
v -0.746376 -0.324777 0.376067
v -0.748012 -0.324333 0.377780
v -0.749005 -0.323927 0.374484
v -0.750711 -0.322760 0.376109
v -0.752050 -0.322514 0.373537
v -0.753522 -0.319870 0.374284
v -0.752146 -0.318253 0.376785
v -0.751666 -0.320616 0.376533
v -0.750214 -0.321180 0.379409
v -0.749370 -0.323081 0.378854
v -0.748386 -0.324006 0.381863
v -0.750874 -0.313179 0.379460
v -0.747106 -0.319741 0.383864
v -0.751761 -0.315849 0.380261
v -0.751166 -0.318755 0.379905
v -0.749420 -0.316368 0.381747
v -0.746644 -0.317251 0.382253
v -0.749727 -0.319049 0.382675
v -0.749486 -0.321882 0.382387
v -0.747188 -0.322527 0.385142
v -0.746781 -0.325326 0.383910
v -0.743975 -0.325696 0.383855
v -0.745005 -0.326018 0.380299
v -0.742604 -0.325730 0.378938
v -0.740622 -0.324620 0.377298
v -0.741377 -0.323951 0.373447
v -0.744133 -0.321648 0.369146
v -0.744321 -0.318586 0.368844
v -0.747592 -0.316283 0.366493
v -0.745777 -0.314949 0.380114
v -0.744774 -0.312793 0.377649
v -0.741661 -0.314582 0.376622
v -0.740210 -0.316643 0.373962
v -0.741308 -0.312823 0.371033
v -0.744514 -0.312528 0.368824
v -0.751891 -0.309816 0.375773
v -0.746318 -0.308978 0.369736
v -0.748848 -0.313536 0.367574
v -0.751070 -0.312274 0.368460
v -0.747582 -0.311677 0.368667
v -0.749999 -0.311213 0.369765
v -0.748919 -0.308853 0.370669
v -0.751943 -0.311620 0.371667
v -0.753124 -0.312906 0.373058
v -0.751105 -0.309909 0.372700
v -0.752727 -0.311299 0.374465
v -0.752999 -0.311373 0.376599
v -0.753320 -0.312849 0.375224
v -0.753281 -0.312833 0.376583
v -0.753150 -0.314570 0.375659
v -0.752909 -0.312897 0.377784
f 134 90 113
f 134 113 1
f 1 113 91
f 1 91 131
f 1 131 89
f 1 89 134
f 138 79 115
f 138 115 3
f 3 115 93
f 3 93 130
f 200 92 138
f 200 138 3
f 130 97 200
f 130 200 3
f 4 116 58
f 4 58 129
f 140 61 116
f 140 116 4
f 4 129 93
f 4 93 115
f 115 79 140
f 115 140 4
f 5 117 58
f 5 58 116
f 142 60 117
f 142 117 5
f 116 61 142
f 116 142 5
f 6 118 58
f 6 58 117
f 125 59 118
f 125 118 6
f 6 117 60
f 6 60 125
f 7 119 93
f 7 93 129
f 126 98 119
f 126 119 7
f 118 59 126
f 118 126 7
f 129 58 118
f 129 118 7
f 8 130 93
f 8 93 119
f 210 97 130
f 210 130 8
f 127 102 210
f 127 210 8
f 8 119 98
f 8 98 127
f 9 120 91
f 9 91 208
f 128 100 120
f 128 120 9
f 213 101 128
f 213 128 9
f 9 208 99
f 9 99 213
f 10 121 81
f 10 81 132
f 120 100 121
f 120 121 10
f 10 132 89
f 10 89 131
f 131 91 120
f 131 120 10
f 121 100 122
f 121 122 11
f 11 122 107
f 11 107 144
f 11 144 81
f 11 81 121
f 122 100 128
f 122 128 12
f 12 128 101
f 12 101 207
f 12 146 107
f 12 107 122
f 207 108 146
f 207 146 12
f 126 59 124
f 126 124 14
f 14 124 64
f 14 64 150
f 14 150 105
f 14 105 123
f 14 123 98
f 14 98 126
f 124 59 125
f 124 125 15
f 15 125 60
f 15 60 143
f 143 63 152
f 143 152 15
f 15 152 64
f 15 64 124
f 202 87 133
f 202 133 16
f 16 133 89
f 16 89 132
f 132 81 145
f 132 145 16
f 16 145 84
f 16 84 202
f 17 134 89
f 17 89 133
f 135 90 134
f 135 134 17
f 133 87 135
f 133 135 17
f 160 85 137
f 160 137 18
f 18 137 94
f 18 94 136
f 162 86 160
f 162 160 18
f 204 88 162
f 204 162 18
f 136 95 204
f 136 204 18
f 158 77 139
f 158 139 19
f 19 139 79
f 19 79 138
f 198 78 158
f 198 158 19
f 138 92 198
f 138 198 19
f 20 141 61
f 20 61 140
f 156 62 141
f 156 141 20
f 139 77 156
f 139 156 20
f 140 79 139
f 140 139 20
f 21 143 60
f 21 60 142
f 154 63 143
f 154 143 21
f 141 62 154
f 141 154 21
f 142 61 141
f 142 141 21
f 22 165 84
f 22 84 145
f 183 111 165
f 183 165 22
f 144 107 183
f 144 183 22
f 145 81 144
f 145 144 22
f 23 147 109
f 23 109 185
f 222 110 147
f 222 147 23
f 23 185 111
f 23 111 183
f 183 107 146
f 183 146 23
f 23 146 108
f 23 108 222
f 24 149 104
f 24 104 178
f 148 105 149
f 148 149 24
f 24 178 109
f 24 109 147
f 24 147 110
f 24 110 221
f 221 106 148
f 221 148 24
f 150 64 151
f 150 151 25
f 25 151 65
f 25 65 177
f 177 104 149
f 177 149 25
f 25 149 105
f 25 105 150
f 152 63 153
f 152 153 26
f 26 153 65
f 26 65 151
f 26 151 64
f 26 64 152
f 154 62 155
f 154 155 27
f 27 155 66
f 27 66 176
f 27 176 65
f 27 65 153
f 27 153 63
f 27 63 154
f 28 157 74
f 28 74 174
f 156 77 157
f 156 157 28
f 28 174 66
f 28 66 155
f 28 155 62
f 28 62 156
f 29 159 75
f 29 75 172
f 158 78 159
f 158 159 29
f 172 74 157
f 172 157 29
f 29 157 77
f 29 77 158
f 30 161 76
f 30 76 196
f 160 86 161
f 160 161 30
f 30 196 85
f 30 85 160
f 31 163 82
f 31 82 168
f 161 86 163
f 161 163 31
f 31 168 72
f 31 72 170
f 31 170 76
f 31 76 161
f 32 164 83
f 32 83 166
f 162 88 164
f 162 164 32
f 32 166 82
f 32 82 163
f 163 86 162
f 163 162 32
f 184 69 167
f 184 167 33
f 33 167 82
f 33 82 166
f 188 80 184
f 188 184 33
f 166 83 188
f 166 188 33
f 167 69 169
f 167 169 34
f 34 169 72
f 34 72 168
f 168 82 167
f 168 167 34
f 182 71 171
f 182 171 35
f 35 171 73
f 35 73 192
f 35 192 70
f 35 70 182
f 173 74 172
f 173 172 36
f 36 172 75
f 36 75 194
f 171 71 173
f 171 173 36
f 36 194 73
f 36 73 171
f 37 175 66
f 37 66 174
f 181 67 175
f 181 175 37
f 173 71 181
f 173 181 37
f 174 74 173
f 174 173 37
f 38 177 65
f 38 65 176
f 179 104 177
f 179 177 38
f 175 67 179
f 175 179 38
f 176 66 175
f 176 175 38
f 179 67 180
f 179 180 39
f 39 180 68
f 39 68 186
f 39 186 109
f 39 109 178
f 39 178 104
f 39 104 179
f 40 182 70
f 40 70 190
f 181 71 182
f 181 182 40
f 40 190 68
f 40 68 180
f 40 180 67
f 40 67 181
f 189 80 187
f 189 187 41
f 41 187 111
f 41 111 185
f 186 68 189
f 186 189 41
f 41 185 109
f 41 109 186
f 188 83 201
f 188 201 42
f 42 201 84
f 42 84 165
f 42 165 111
f 42 111 187
f 42 187 80
f 42 80 188
f 43 191 69
f 43 69 184
f 190 70 191
f 190 191 43
f 43 184 80
f 43 80 189
f 43 189 68
f 43 68 190
f 44 193 72
f 44 72 169
f 192 73 193
f 192 193 44
f 44 169 69
f 44 69 191
f 44 191 70
f 44 70 192
f 194 75 195
f 194 195 45
f 45 195 76
f 45 76 170
f 45 170 72
f 45 72 193
f 45 193 73
f 45 73 194
f 159 78 197
f 159 197 46
f 46 197 85
f 46 85 196
f 195 75 159
f 195 159 46
f 196 76 195
f 196 195 46
f 198 92 199
f 198 199 47
f 47 199 94
f 47 94 137
f 47 137 85
f 47 85 197
f 47 197 78
f 47 78 198
f 48 209 96
f 48 96 114
f 200 97 209
f 200 209 48
f 48 114 94
f 48 94 199
f 48 199 92
f 48 92 200
f 49 203 87
f 49 87 202
f 164 88 203
f 164 203 49
f 201 83 164
f 201 164 49
f 202 84 201
f 202 201 49
f 50 205 90
f 50 90 135
f 204 95 205
f 204 205 50
f 50 135 87
f 50 87 203
f 50 203 88
f 50 88 204
f 51 208 91
f 51 91 113
f 206 99 208
f 206 208 51
f 51 113 90
f 51 90 205
f 51 205 95
f 51 95 206
f 52 212 96
f 52 96 209
f 214 103 212
f 214 212 52
f 210 102 214
f 210 214 52
f 52 209 97
f 52 97 210
f 53 213 99
f 53 99 211
f 216 101 213
f 216 213 53
f 212 103 216
f 212 216 53
f 53 211 96
f 53 96 212
f 54 217 103
f 54 103 214
f 219 112 217
f 219 217 54
f 215 106 219
f 215 219 54
f 54 214 102
f 54 102 215
f 55 218 108
f 55 108 207
f 217 112 218
f 217 218 55
f 55 207 101
f 55 101 216
f 55 216 103
f 55 103 217
f 56 220 110
f 56 110 222
f 218 112 220
f 218 220 56
f 56 222 108
f 56 108 218
f 219 106 221
f 219 221 57
f 57 221 110
f 57 110 220
f 220 112 219
f 220 219 57
f 94 114 2
f 94 2 136
f 95 136 2
f 95 2 206
f 96 211 2
f 96 2 114
f 98 123 13
f 98 13 127
f 99 206 2
f 99 2 211
f 102 127 13
f 102 13 215
f 105 148 13
f 105 13 123
f 106 215 13
f 106 13 148
