# Trapezoid_R rest
v -0.745685 0.033499 -0.035192
v -0.744453 0.029365 -0.039609
v -0.745922 0.025052 -0.041182
v -0.747439 0.023822 -0.041009
v -0.748997 0.023644 -0.041484
v -0.751768 0.024729 -0.040396
v -0.751454 0.025673 -0.039454
v -0.750653 0.027014 -0.039566
v -0.750345 0.032589 -0.036127
v -0.749722 0.035483 -0.036427
v -0.751725 0.036474 -0.040464
v -0.753105 0.035727 -0.040709
v -0.752953 0.030211 -0.042823
v -0.753526 0.028196 -0.042924
v -0.752940 0.025921 -0.043962
v -0.747796 0.037031 -0.040292
v -0.743752 0.036421 -0.038201
v -0.739042 0.034223 -0.044686
v -0.742063 0.026309 -0.045550
v -0.744967 0.024877 -0.045435
v -0.748302 0.024597 -0.045331
v -0.750992 0.037586 -0.043756
v -0.753015 0.036308 -0.045520
v -0.751951 0.032324 -0.046429
v -0.752170 0.029469 -0.047218
v -0.751558 0.027316 -0.047775
v -0.747570 0.027383 -0.049408
v -0.744391 0.028410 -0.049816
v -0.741994 0.030242 -0.050300
v -0.737921 0.036463 -0.049883
v -0.740223 0.039670 -0.051303
v -0.742029 0.038953 -0.047059
v -0.745712 0.040544 -0.049675
v -0.743078 0.041306 -0.052452
v -0.744876 0.037799 -0.055032
v -0.743461 0.034792 -0.053302
v -0.746046 0.032684 -0.052052
v -0.749076 0.030898 -0.050398
v -0.749444 0.034180 -0.049830
v -0.747229 0.036192 -0.052712
v -0.750681 0.037935 -0.049166
v -0.748718 0.039113 -0.046754
v -0.748013 0.039769 -0.052233
v -0.743841 0.040808 -0.055029
v -0.740464 0.038086 -0.054246
v -0.738799 0.033903 -0.050962
v -0.739532 0.030245 -0.045659
v -0.744860 0.027443 -0.041083
v -0.744980 0.038219 -0.043654
v -0.741033 0.035729 -0.040710
v -0.744766 0.031272 -0.036796
v -0.750271 0.028831 -0.039535
v -0.750147 0.030515 -0.038110
v -0.753080 0.032052 -0.042231
v -0.753559 0.033746 -0.041096
v -0.753906 0.034881 -0.043762
v -0.753299 0.033299 -0.044308
v -0.749919 0.024006 -0.039851
v -0.753140 0.026328 -0.041009
v -0.750584 0.024208 -0.042547
v -0.747204 0.023874 -0.043164
v -0.745873 0.026016 -0.047818
v -0.750021 0.025790 -0.047138
v -0.753162 0.027900 -0.045614
v -0.750297 0.028679 -0.049388
v -0.746543 0.029839 -0.050899
v -0.747899 0.033483 -0.051286
v -0.749072 0.036955 -0.051251
v -0.745321 0.041170 -0.052573
v -0.746547 0.038863 -0.054692
v -0.745407 0.035515 -0.053433
v -0.741430 0.040646 -0.053787
v -0.742806 0.038260 -0.055369
v -0.743954 0.031468 -0.051469
v -0.741168 0.034162 -0.052466
v -0.738676 0.037419 -0.052181
v -0.742893 0.026976 -0.048096
v -0.739624 0.029961 -0.048744
v -0.744832 0.024557 -0.043122
v -0.748520 0.039605 -0.049552
v -0.750391 0.036650 -0.040196
v -0.742696 0.040536 -0.050137
v -0.745460 0.039645 -0.046679
v -0.748395 0.038171 -0.043683
v -0.737533 0.033906 -0.048262
v -0.739303 0.037674 -0.048364
v -0.744254 0.037085 -0.040687
v -0.741218 0.037245 -0.044008
v -0.746693 0.036081 -0.037043
v -0.742583 0.034128 -0.037062
v -0.747812 0.032560 -0.035388
v -0.742720 0.026816 -0.043203
v -0.748866 0.024810 -0.039589
v -0.741569 0.030189 -0.042788
v -0.741619 0.032097 -0.040270
v -0.747626 0.028441 -0.039221
v -0.748037 0.026423 -0.039823
v -0.752601 0.027978 -0.040742
v -0.747630 0.030252 -0.037129
v -0.751777 0.035472 -0.037894
v -0.752385 0.033293 -0.038545
v -0.752080 0.029692 -0.040785
v -0.752079 0.031454 -0.040145
v -0.750644 0.031513 -0.048593
v -0.752880 0.029970 -0.045032
v -0.752907 0.032125 -0.044243
v -0.752478 0.036851 -0.042918
v -0.753837 0.035522 -0.042994
v -0.751350 0.035081 -0.048118
v -0.753119 0.034204 -0.045198
v -0.751210 0.038006 -0.046557
v -0.754064 0.033822 -0.042980
v -0.745141 0.032361 -0.035778
v -0.744516 0.028666 -0.040592
v -0.746629 0.024305 -0.041075
v -0.748274 0.023616 -0.041136
v -0.750295 0.023892 -0.040772
v -0.751743 0.025101 -0.039763
v -0.751066 0.026349 -0.039472
v -0.750228 0.034043 -0.035697
v -0.751086 0.036195 -0.038686
v -0.752278 0.036326 -0.040605
v -0.753221 0.029175 -0.042876
v -0.753657 0.027277 -0.043205
v -0.752470 0.025173 -0.041641
v -0.752968 0.027140 -0.040744
v -0.752279 0.028821 -0.040811
v -0.752311 0.034464 -0.037961
v -0.749397 0.024293 -0.039558
v -0.748429 0.025580 -0.039745
v -0.747632 0.034211 -0.035134
v -0.748847 0.036391 -0.038414
v -0.745669 0.036625 -0.039106
v -0.744122 0.035708 -0.036457
v -0.742421 0.036253 -0.039121
v -0.741518 0.031325 -0.041858
v -0.739092 0.032154 -0.045325
v -0.743789 0.025399 -0.043111
v -0.743556 0.025346 -0.045483
v -0.745965 0.024073 -0.043104
v -0.746472 0.024667 -0.045492
v -0.748714 0.023892 -0.043047
v -0.750528 0.024804 -0.044755
v -0.751504 0.036935 -0.041961
v -0.749533 0.037346 -0.042030
v -0.753262 0.036351 -0.043161
v -0.752317 0.034363 -0.046546
v -0.752698 0.031128 -0.044785
v -0.751938 0.030686 -0.046928
v -0.753157 0.028874 -0.045181
v -0.751995 0.028314 -0.047684
v -0.752396 0.026745 -0.046347
v -0.749734 0.027150 -0.048828
v -0.747752 0.025794 -0.047647
v -0.745840 0.027835 -0.049661
v -0.744322 0.026391 -0.047918
v -0.743226 0.029156 -0.050019
v -0.741384 0.028065 -0.048490
v -0.740385 0.031961 -0.050704
v -0.737980 0.035716 -0.047939
v -0.738773 0.038012 -0.050650
v -0.740065 0.037297 -0.046029
v -0.741006 0.039379 -0.049135
v -0.743415 0.038570 -0.045209
v -0.750014 0.038328 -0.045268
v -0.743982 0.040115 -0.048267
v -0.744207 0.041083 -0.051232
v -0.741783 0.040805 -0.051982
v -0.743327 0.041400 -0.053628
v -0.739907 0.039345 -0.053128
v -0.744152 0.036655 -0.054479
v -0.742763 0.032564 -0.051820
v -0.744751 0.033646 -0.052612
v -0.745135 0.030616 -0.051197
v -0.747451 0.031801 -0.051371
v -0.748227 0.029259 -0.050479
v -0.750734 0.030170 -0.049001
v -0.750650 0.033167 -0.048307
v -0.749237 0.032454 -0.050032
v -0.748299 0.035221 -0.051277
v -0.746680 0.034487 -0.052393
v -0.746045 0.037132 -0.054121
v -0.752060 0.037279 -0.044830
v -0.746996 0.040423 -0.051042
v -0.751960 0.036956 -0.047625
v -0.750209 0.036022 -0.049730
v -0.749967 0.038811 -0.048016
v -0.747241 0.039862 -0.048185
v -0.749370 0.038776 -0.050709
v -0.747976 0.037823 -0.052879
v -0.746229 0.040734 -0.053904
v -0.744504 0.039035 -0.055609
v -0.741830 0.039769 -0.055109
v -0.741899 0.036300 -0.054204
v -0.739584 0.035967 -0.052734
v -0.737918 0.035486 -0.050584
v -0.738090 0.032110 -0.048659
v -0.740619 0.028139 -0.045758
v -0.741953 0.028609 -0.043157
v -0.745323 0.026161 -0.041199
v -0.746948 0.038917 -0.045153
v -0.746414 0.037695 -0.042073
v -0.742723 0.037291 -0.042269
v -0.740075 0.034884 -0.042485
v -0.742001 0.033041 -0.038422
v -0.744542 0.030160 -0.038178
v -0.753546 0.034726 -0.040803
v -0.747731 0.031395 -0.036098
v -0.747748 0.027444 -0.039715
v -0.750391 0.027915 -0.039637
v -0.747578 0.029295 -0.038265
v -0.750120 0.029656 -0.038995
v -0.750272 0.031445 -0.037097
v -0.752060 0.030627 -0.040644
v -0.752880 0.031131 -0.042606
v -0.752198 0.032258 -0.039410
v -0.753443 0.032920 -0.041735
v -0.754085 0.034672 -0.042743
v -0.753512 0.032966 -0.043498
v -0.753758 0.034160 -0.044030
v -0.752771 0.032911 -0.045062
v -0.753644 0.035294 -0.044472
f 1 113 90
f 1 90 134
f 131 91 113
f 131 113 1
f 134 89 131
f 134 131 1
f 3 115 79
f 3 79 138
f 130 93 115
f 130 115 3
f 3 138 92
f 3 92 200
f 3 200 97
f 3 97 130
f 129 58 116
f 129 116 4
f 4 116 61
f 4 61 140
f 115 93 129
f 115 129 4
f 4 140 79
f 4 79 115
f 116 58 117
f 116 117 5
f 5 117 60
f 5 60 142
f 5 142 61
f 5 61 116
f 117 58 118
f 117 118 6
f 6 118 59
f 6 59 125
f 125 60 117
f 125 117 6
f 129 93 119
f 129 119 7
f 7 119 98
f 7 98 126
f 7 126 59
f 7 59 118
f 7 118 58
f 7 58 129
f 119 93 130
f 119 130 8
f 8 130 97
f 8 97 210
f 8 210 102
f 8 102 127
f 127 98 119
f 127 119 8
f 208 91 120
f 208 120 9
f 9 120 100
f 9 100 128
f 9 128 101
f 9 101 213
f 213 99 208
f 213 208 9
f 132 81 121
f 132 121 10
f 10 121 100
f 10 100 120
f 131 89 132
f 131 132 10
f 10 120 91
f 10 91 131
f 11 122 100
f 11 100 121
f 144 107 122
f 144 122 11
f 121 81 144
f 121 144 11
f 12 128 100
f 12 100 122
f 207 101 128
f 207 128 12
f 122 107 146
f 122 146 12
f 12 146 108
f 12 108 207
f 14 124 59
f 14 59 126
f 150 64 124
f 150 124 14
f 123 105 150
f 123 150 14
f 126 98 123
f 126 123 14
f 15 125 59
f 15 59 124
f 143 60 125
f 143 125 15
f 15 152 63
f 15 63 143
f 124 64 152
f 124 152 15
f 16 133 87
f 16 87 202
f 132 89 133
f 132 133 16
f 16 145 81
f 16 81 132
f 202 84 145
f 202 145 16
f 133 89 134
f 133 134 17
f 17 134 90
f 17 90 135
f 17 135 87
f 17 87 133
f 18 137 85
f 18 85 160
f 136 94 137
f 136 137 18
f 18 160 86
f 18 86 162
f 18 162 88
f 18 88 204
f 18 204 95
f 18 95 136
f 19 139 77
f 19 77 158
f 138 79 139
f 138 139 19
f 19 158 78
f 19 78 198
f 19 198 92
f 19 92 138
f 140 61 141
f 140 141 20
f 20 141 62
f 20 62 156
f 20 156 77
f 20 77 139
f 20 139 79
f 20 79 140
f 142 60 143
f 142 143 21
f 21 143 63
f 21 63 154
f 21 154 62
f 21 62 141
f 21 141 61
f 21 61 142
f 145 84 165
f 145 165 22
f 22 165 111
f 22 111 183
f 22 183 107
f 22 107 144
f 22 144 81
f 22 81 145
f 185 109 147
f 185 147 23
f 23 147 110
f 23 110 222
f 183 111 185
f 183 185 23
f 23 146 107
f 23 107 183
f 222 108 146
f 222 146 23
f 178 104 149
f 178 149 24
f 24 149 105
f 24 105 148
f 147 109 178
f 147 178 24
f 221 110 147
f 221 147 24
f 24 148 106
f 24 106 221
f 25 151 64
f 25 64 150
f 177 65 151
f 177 151 25
f 25 149 104
f 25 104 177
f 150 105 149
f 150 149 25
f 26 153 63
f 26 63 152
f 151 65 153
f 151 153 26
f 152 64 151
f 152 151 26
f 27 155 62
f 27 62 154
f 176 66 155
f 176 155 27
f 153 65 176
f 153 176 27
f 154 63 153
f 154 153 27
f 174 74 157
f 174 157 28
f 28 157 77
f 28 77 156
f 155 66 174
f 155 174 28
f 156 62 155
f 156 155 28
f 172 75 159
f 172 159 29
f 29 159 78
f 29 78 158
f 29 157 74
f 29 74 172
f 158 77 157
f 158 157 29
f 196 76 161
f 196 161 30
f 30 161 86
f 30 86 160
f 160 85 196
f 160 196 30
f 168 82 163
f 168 163 31
f 31 163 86
f 31 86 161
f 170 72 168
f 170 168 31
f 161 76 170
f 161 170 31
f 166 83 164
f 166 164 32
f 32 164 88
f 32 88 162
f 163 82 166
f 163 166 32
f 32 162 86
f 32 86 163
f 33 167 69
f 33 69 184
f 166 82 167
f 166 167 33
f 33 184 80
f 33 80 188
f 33 188 83
f 33 83 166
f 34 169 69
f 34 69 167
f 168 72 169
f 168 169 34
f 34 167 82
f 34 82 168
f 35 171 71
f 35 71 182
f 192 73 171
f 192 171 35
f 182 70 192
f 182 192 35
f 36 172 74
f 36 74 173
f 194 75 172
f 194 172 36
f 36 173 71
f 36 71 171
f 171 73 194
f 171 194 36
f 174 66 175
f 174 175 37
f 37 175 67
f 37 67 181
f 37 181 71
f 37 71 173
f 37 173 74
f 37 74 174
f 176 65 177
f 176 177 38
f 38 177 104
f 38 104 179
f 38 179 67
f 38 67 175
f 38 175 66
f 38 66 176
f 39 180 67
f 39 67 179
f 186 68 180
f 186 180 39
f 178 109 186
f 178 186 39
f 179 104 178
f 179 178 39
f 190 70 182
f 190 182 40
f 40 182 71
f 40 71 181
f 180 68 190
f 180 190 40
f 181 67 180
f 181 180 40
f 41 187 80
f 41 80 189
f 185 111 187
f 185 187 41
f 41 189 68
f 41 68 186
f 186 109 185
f 186 185 41
f 42 201 83
f 42 83 188
f 165 84 201
f 165 201 42
f 187 111 165
f 187 165 42
f 188 80 187
f 188 187 42
f 184 69 191
f 184 191 43
f 43 191 70
f 43 70 190
f 189 80 184
f 189 184 43
f 190 68 189
f 190 189 43
f 169 72 193
f 169 193 44
f 44 193 73
f 44 73 192
f 191 69 169
f 191 169 44
f 192 70 191
f 192 191 44
f 45 195 75
f 45 75 194
f 170 76 195
f 170 195 45
f 193 72 170
f 193 170 45
f 194 73 193
f 194 193 45
f 46 197 78
f 46 78 159
f 196 85 197
f 196 197 46
f 46 159 75
f 46 75 195
f 46 195 76
f 46 76 196
f 47 199 92
f 47 92 198
f 137 94 199
f 137 199 47
f 197 85 137
f 197 137 47
f 198 78 197
f 198 197 47
f 114 96 209
f 114 209 48
f 48 209 97
f 48 97 200
f 199 94 114
f 199 114 48
f 200 92 199
f 200 199 48
f 202 87 203
f 202 203 49
f 49 203 88
f 49 88 164
f 49 164 83
f 49 83 201
f 49 201 84
f 49 84 202
f 135 90 205
f 135 205 50
f 50 205 95
f 50 95 204
f 203 87 135
f 203 135 50
f 204 88 203
f 204 203 50
f 113 91 208
f 113 208 51
f 51 208 99
f 51 99 206
f 205 90 113
f 205 113 51
f 206 95 205
f 206 205 51
f 209 96 212
f 209 212 52
f 52 212 103
f 52 103 214
f 52 214 102
f 52 102 210
f 210 97 209
f 210 209 52
f 211 99 213
f 211 213 53
f 53 213 101
f 53 101 216
f 53 216 103
f 53 103 212
f 212 96 211
f 212 211 53
f 214 103 217
f 214 217 54
f 54 217 112
f 54 112 219
f 54 219 106
f 54 106 215
f 215 102 214
f 215 214 54
f 207 108 218
f 207 218 55
f 55 218 112
f 55 112 217
f 216 101 207
f 216 207 55
f 217 103 216
f 217 216 55
f 222 110 220
f 222 220 56
f 56 220 112
f 56 112 218
f 218 108 222
f 218 222 56
f 57 221 106
f 57 106 219
f 220 110 221
f 220 221 57
f 57 219 112
f 57 112 220
f 136 2 114
f 136 114 94
f 206 2 136
f 206 136 95
f 114 2 211
f 114 211 96
f 127 13 123
f 127 123 98
f 211 2 206
f 211 206 99
f 215 13 127
f 215 127 102
f 123 13 148
f 123 148 105
f 148 13 215
f 148 215 106
