# Triquetrum_R posed
v -0.779999 0.195183 0.343958
v -0.785412 0.193293 0.344333
v -0.789774 0.190467 0.345907
v -0.790953 0.188340 0.350660
v -0.787294 0.189244 0.352818
v -0.781999 0.191172 0.353586
v -0.778199 0.193077 0.351077
v -0.777277 0.194867 0.347244
v -0.778514 0.195420 0.354312
v -0.778375 0.197578 0.349632
v -0.782421 0.196863 0.346496
v -0.787436 0.194785 0.346002
v -0.791940 0.192354 0.347588
v -0.791868 0.191002 0.352070
v -0.788113 0.192120 0.354639
v -0.782926 0.193154 0.356638
v -0.781039 0.198112 0.357911
v -0.780699 0.199591 0.352666
v -0.785822 0.199631 0.350419
v -0.788890 0.197055 0.347884
v -0.791927 0.195800 0.350038
v -0.791568 0.194024 0.352325
v -0.788671 0.195551 0.355338
v -0.784424 0.195585 0.358326
v -0.788233 0.198484 0.354263
v -0.783555 0.194921 0.344786
v -0.788774 0.192487 0.345778
v -0.792527 0.189557 0.348812
v -0.789653 0.189662 0.352639
v -0.785410 0.190871 0.354450
v -0.779773 0.192897 0.354289
v -0.777307 0.195310 0.350324
v -0.778710 0.196265 0.346134
v -0.790340 0.193369 0.353473
v -0.786522 0.194298 0.356597
v -0.780734 0.195396 0.357488
v -0.778783 0.198049 0.353731
v -0.790438 0.195023 0.347026
v -0.792949 0.193218 0.350444
v -0.781688 0.199132 0.349739
v -0.786472 0.197354 0.347296
v -0.783875 0.199952 0.354249
v -0.789081 0.198395 0.350167
v -0.786421 0.197604 0.357527
v -0.790551 0.195870 0.353167
v -0.782643 0.194461 0.343862
v -0.788003 0.192013 0.345177
v -0.791211 0.188984 0.347946
v -0.789438 0.188769 0.352006
v -0.785120 0.190006 0.353399
v -0.779606 0.192158 0.352535
v -0.777209 0.194277 0.349245
v -0.778024 0.195163 0.345430
v -0.778058 0.194098 0.352434
v -0.777856 0.196787 0.351950
v -0.777595 0.196044 0.348073
v -0.780040 0.197662 0.347615
v -0.780839 0.195903 0.344956
v -0.784959 0.195919 0.346001
v -0.786312 0.193854 0.345181
v -0.789711 0.193525 0.346388
v -0.790921 0.191089 0.346554
v -0.793236 0.191335 0.349764
v -0.791662 0.189266 0.351355
v -0.790074 0.191441 0.353285
v -0.787622 0.190216 0.353659
v -0.786119 0.192656 0.355860
v -0.782503 0.192010 0.355246
v -0.780000 0.194141 0.355863
v -0.779338 0.196621 0.356044
v -0.779505 0.198899 0.351349
v -0.784067 0.198508 0.348288
v -0.783048 0.199984 0.352161
v -0.788000 0.198247 0.348951
v -0.788395 0.196128 0.346835
v -0.790291 0.196772 0.348290
v -0.792221 0.193964 0.348334
v -0.792005 0.194802 0.351363
v -0.791774 0.192760 0.352275
v -0.790390 0.194839 0.353528
v -0.788411 0.193887 0.355126
v -0.786624 0.195681 0.357118
v -0.783476 0.194411 0.357746
v -0.782511 0.196820 0.358964
v -0.780398 0.199402 0.354648
v -0.785308 0.199196 0.356807
v -0.788692 0.197079 0.355235
v -0.790470 0.197243 0.351974
v -0.787048 0.199535 0.352228
v -0.779211 0.192211 0.349423
v -0.778238 0.192753 0.348059
v -0.778063 0.193116 0.346345
v -0.778448 0.193307 0.344943
v -0.779539 0.193602 0.343347
v -0.781929 0.193125 0.343506
v -0.784609 0.192152 0.344697
v -0.786692 0.191229 0.345159
v -0.788487 0.190273 0.345919
v -0.789603 0.189297 0.347188
v -0.789512 0.188522 0.348756
v -0.788527 0.188394 0.350056
v -0.786757 0.188906 0.350611
v -0.785162 0.189498 0.350976
v -0.783067 0.190423 0.351025
v -0.781306 0.191224 0.350815
v -0.781006 0.192374 0.345319
v -0.780226 0.192083 0.347386
v -0.783440 0.191688 0.346324
v -0.782333 0.191195 0.348482
v -0.785600 0.190814 0.346950
v -0.784397 0.190323 0.349026
v -0.787255 0.189815 0.347646
v -0.786219 0.189525 0.349266
f 11 59 41
f 11 41 72
f 62 28 63
f 62 63 13
f 13 63 39
f 13 39 77
f 13 61 27
f 13 27 62
f 64 29 65
f 64 65 14
f 14 65 34
f 14 34 79
f 14 79 39
f 14 39 63
f 14 63 28
f 14 28 64
f 66 30 67
f 66 67 15
f 15 67 35
f 15 35 81
f 15 81 34
f 15 34 65
f 15 65 29
f 15 29 66
f 16 83 35
f 16 35 67
f 17 86 44
f 17 44 84
f 18 73 42
f 18 42 85
f 72 41 74
f 72 74 19
f 19 74 43
f 19 43 89
f 73 40 72
f 73 72 19
f 89 42 73
f 89 73 19
f 75 38 76
f 75 76 20
f 20 76 43
f 20 43 74
f 20 74 41
f 20 41 75
f 77 39 78
f 77 78 21
f 21 78 45
f 21 45 88
f 21 88 43
f 21 43 76
f 21 76 38
f 21 38 77
f 79 34 80
f 79 80 22
f 22 80 45
f 22 45 78
f 22 78 39
f 22 39 79
f 81 35 82
f 81 82 23
f 23 82 44
f 23 44 87
f 23 87 45
f 23 45 80
f 23 80 34
f 23 34 81
f 24 84 44
f 24 44 82
f 24 82 35
f 24 35 83
f 86 42 89
f 86 89 25
f 25 89 43
f 25 43 88
f 87 44 86
f 87 86 25
f 88 45 87
f 88 87 25
f 46 26 58
f 46 58 1
f 2 60 26
f 2 26 46
f 27 60 2
f 27 2 47
f 4 64 28
f 4 28 48
f 29 64 4
f 29 4 49
f 3 48 28
f 3 28 62
f 3 62 27
f 3 27 47
f 5 50 30
f 5 30 66
f 5 66 29
f 5 29 49
f 6 51 31
f 6 31 68
f 6 68 30
f 6 30 50
f 7 52 32
f 7 32 54
f 7 54 31
f 7 31 51
f 8 53 33
f 8 33 56
f 56 32 52
f 56 52 8
f 54 32 55
f 54 55 9
f 9 55 37
f 9 37 70
f 9 70 36
f 9 36 69
f 69 31 54
f 69 54 9
f 55 32 56
f 55 56 10
f 10 56 33
f 10 33 57
f 10 57 40
f 10 40 71
f 10 71 37
f 10 37 55
f 60 27 61
f 60 61 12
f 12 61 38
f 12 38 75
f 12 75 41
f 12 41 59
f 12 59 26
f 12 26 60
f 85 42 86
f 85 86 17
f 84 36 70
f 84 70 17
f 17 70 37
f 17 37 85
f 69 16 68
f 69 68 31
f 53 1 58
f 53 58 33
f 33 58 11
f 33 11 57
f 83 16 69
f 83 69 36
f 84 24 83
f 84 83 36
f 37 71 18
f 37 18 85
f 53 93 94
f 53 94 1
f 57 11 72
f 57 72 40
f 59 11 58
f 59 58 26
f 61 13 77
f 61 77 38
f 68 16 67
f 68 67 30
f 40 73 18
f 40 18 71
f 92 93 53
f 92 53 8
f 46 1 94
f 46 94 95
f 91 52 7
f 91 7 90
f 91 92 8
f 91 8 52
f 2 46 95
f 2 95 96
f 95 94 93
f 95 93 106
f 107 106 93
f 107 93 92
f 107 92 91
f 107 91 90
f 105 90 7
f 105 7 51
f 47 2 96
f 47 96 97
f 108 96 95
f 108 95 106
f 109 108 106
f 109 106 107
f 109 107 90
f 109 90 105
f 104 105 51
f 104 51 6
f 3 47 97
f 3 97 98
f 98 99 48
f 98 48 3
f 110 97 96
f 110 96 108
f 111 109 105
f 111 105 104
f 103 104 6
f 103 6 50
f 50 5 102
f 50 102 103
f 100 99 98
f 100 98 112
f 4 48 99
f 4 99 100
f 112 98 97
f 112 97 110
f 49 4 100
f 49 100 101
f 101 100 112
f 101 112 113
f 113 103 102
f 113 102 101
f 101 102 5
f 101 5 49
f 113 111 104
f 113 104 103
f 111 110 108
f 111 108 109
f 113 112 110
f 113 110 111
