# Triquetrum_R rest
v -0.714873 0.040539 -0.085997
v -0.718992 0.039718 -0.088575
v -0.722779 0.037310 -0.090012
v -0.725111 0.034339 -0.087359
v -0.722932 0.034186 -0.083778
v -0.719201 0.034978 -0.080293
v -0.715730 0.036486 -0.080107
v -0.713923 0.038855 -0.082275
v -0.716938 0.038632 -0.077009
v -0.715500 0.041682 -0.080115
v -0.717460 0.042530 -0.084577
v -0.721019 0.041568 -0.087726
v -0.724910 0.039634 -0.089101
v -0.726156 0.037311 -0.085877
v -0.724017 0.037320 -0.081857
v -0.720726 0.036988 -0.077691
v -0.719755 0.041878 -0.074456
v -0.718085 0.044090 -0.078142
v -0.721152 0.045861 -0.082168
v -0.722676 0.044151 -0.086240
v -0.725587 0.043101 -0.086183
v -0.725963 0.040620 -0.084685
v -0.724608 0.041218 -0.080568
v -0.722274 0.039875 -0.076295
v -0.724004 0.044588 -0.080431
v -0.717754 0.040980 -0.086961
v -0.721964 0.039360 -0.089117
v -0.725757 0.036390 -0.089170
v -0.724657 0.035209 -0.084835
v -0.721961 0.035328 -0.081182
v -0.717794 0.036219 -0.078275
v -0.714905 0.038791 -0.079710
v -0.714635 0.040969 -0.083410
v -0.725357 0.039413 -0.083411
v -0.723354 0.039132 -0.078969
v -0.719390 0.038819 -0.075420
v -0.717010 0.041676 -0.076873
v -0.723589 0.042389 -0.088158
v -0.726493 0.040343 -0.087022
v -0.717932 0.044305 -0.081050
v -0.720697 0.043981 -0.085574
v -0.720820 0.045143 -0.078145
v -0.723488 0.045328 -0.084127
v -0.723538 0.042728 -0.077247
v -0.725423 0.042343 -0.083048
v -0.716787 0.040422 -0.087422
v -0.721202 0.038757 -0.089388
v -0.724505 0.035601 -0.089441
v -0.724331 0.034261 -0.085502
v -0.721458 0.034452 -0.082141
v -0.717162 0.035622 -0.079811
v -0.714485 0.037835 -0.080810
v -0.713896 0.039722 -0.083967
v -0.716048 0.037343 -0.078680
v -0.715813 0.040287 -0.078245
v -0.714435 0.040065 -0.081436
v -0.716080 0.042586 -0.082431
v -0.715812 0.041349 -0.085376
v -0.719174 0.042218 -0.086336
v -0.719926 0.040402 -0.088141
v -0.722852 0.040640 -0.088757
v -0.723840 0.038158 -0.089829
v -0.726544 0.038395 -0.088221
v -0.725832 0.035422 -0.086853
v -0.725126 0.037205 -0.083994
v -0.723400 0.035217 -0.082971
v -0.722863 0.037291 -0.079852
v -0.720036 0.035795 -0.078949
v -0.718410 0.037431 -0.076762
v -0.718026 0.039955 -0.075640
v -0.716841 0.043180 -0.078871
v -0.719225 0.044484 -0.083418
v -0.719632 0.045253 -0.079463
v -0.722328 0.045091 -0.084673
v -0.721992 0.043166 -0.087115
v -0.723848 0.044107 -0.086605
v -0.725328 0.041387 -0.088183
v -0.726022 0.041763 -0.085430
v -0.726116 0.039245 -0.085171
v -0.725402 0.041079 -0.082975
v -0.724360 0.039307 -0.081094
v -0.723569 0.040650 -0.078203
v -0.721426 0.038392 -0.076682
v -0.721065 0.040719 -0.074599
v -0.718432 0.043521 -0.076464
v -0.722548 0.044338 -0.076905
v -0.724600 0.042969 -0.080235
v -0.725033 0.044069 -0.083593
v -0.722571 0.045784 -0.081271
v -0.715954 0.036075 -0.082105
v -0.714836 0.036659 -0.082617
v -0.714180 0.037326 -0.083805
v -0.714021 0.037901 -0.085037
v -0.714319 0.038812 -0.086704
v -0.716135 0.038840 -0.087752
v -0.718499 0.038184 -0.088243
v -0.720209 0.037572 -0.089042
v -0.721804 0.036789 -0.089490
v -0.723045 0.035722 -0.089246
v -0.723451 0.034551 -0.088182
v -0.723084 0.033960 -0.086755
v -0.721898 0.034039 -0.085391
v -0.720799 0.034272 -0.084232
v -0.719250 0.034793 -0.083012
v -0.717892 0.035284 -0.082185
v -0.716012 0.037434 -0.086108
v -0.716074 0.036540 -0.084203
v -0.718123 0.037082 -0.086563
v -0.717954 0.035887 -0.084498
v -0.719928 0.036519 -0.087254
v -0.719650 0.035325 -0.085213
v -0.721390 0.035674 -0.087705
v -0.721091 0.034827 -0.086046
f 11 59 41
f 11 41 72
f 62 28 63
f 62 63 13
f 13 63 39
f 13 39 77
f 13 61 27
f 13 27 62
f 64 29 65
f 64 65 14
f 14 65 34
f 14 34 79
f 14 79 39
f 14 39 63
f 14 63 28
f 14 28 64
f 66 30 67
f 66 67 15
f 15 67 35
f 15 35 81
f 15 81 34
f 15 34 65
f 15 65 29
f 15 29 66
f 16 83 35
f 16 35 67
f 17 86 44
f 17 44 84
f 18 73 42
f 18 42 85
f 72 41 74
f 72 74 19
f 19 74 43
f 19 43 89
f 73 40 72
f 73 72 19
f 89 42 73
f 89 73 19
f 75 38 76
f 75 76 20
f 20 76 43
f 20 43 74
f 20 74 41
f 20 41 75
f 77 39 78
f 77 78 21
f 21 78 45
f 21 45 88
f 21 88 43
f 21 43 76
f 21 76 38
f 21 38 77
f 79 34 80
f 79 80 22
f 22 80 45
f 22 45 78
f 22 78 39
f 22 39 79
f 81 35 82
f 81 82 23
f 23 82 44
f 23 44 87
f 23 87 45
f 23 45 80
f 23 80 34
f 23 34 81
f 24 84 44
f 24 44 82
f 24 82 35
f 24 35 83
f 86 42 89
f 86 89 25
f 25 89 43
f 25 43 88
f 87 44 86
f 87 86 25
f 88 45 87
f 88 87 25
f 46 26 58
f 46 58 1
f 2 60 26
f 2 26 46
f 27 60 2
f 27 2 47
f 4 64 28
f 4 28 48
f 29 64 4
f 29 4 49
f 3 48 28
f 3 28 62
f 3 62 27
f 3 27 47
f 5 50 30
f 5 30 66
f 5 66 29
f 5 29 49
f 6 51 31
f 6 31 68
f 6 68 30
f 6 30 50
f 7 52 32
f 7 32 54
f 7 54 31
f 7 31 51
f 8 53 33
f 8 33 56
f 56 32 52
f 56 52 8
f 54 32 55
f 54 55 9
f 9 55 37
f 9 37 70
f 9 70 36
f 9 36 69
f 69 31 54
f 69 54 9
f 55 32 56
f 55 56 10
f 10 56 33
f 10 33 57
f 10 57 40
f 10 40 71
f 10 71 37
f 10 37 55
f 60 27 61
f 60 61 12
f 12 61 38
f 12 38 75
f 12 75 41
f 12 41 59
f 12 59 26
f 12 26 60
f 85 42 86
f 85 86 17
f 84 36 70
f 84 70 17
f 17 70 37
f 17 37 85
f 69 16 68
f 69 68 31
f 53 1 58
f 53 58 33
f 33 58 11
f 33 11 57
f 83 16 69
f 83 69 36
f 84 24 83
f 84 83 36
f 37 71 18
f 37 18 85
f 53 93 94
f 53 94 1
f 57 11 72
f 57 72 40
f 59 11 58
f 59 58 26
f 61 13 77
f 61 77 38
f 68 16 67
f 68 67 30
f 40 73 18
f 40 18 71
f 92 93 53
f 92 53 8
f 46 1 94
f 46 94 95
f 91 52 7
f 91 7 90
f 91 92 8
f 91 8 52
f 2 46 95
f 2 95 96
f 95 94 93
f 95 93 106
f 107 106 93
f 107 93 92
f 107 92 91
f 107 91 90
f 105 90 7
f 105 7 51
f 47 2 96
f 47 96 97
f 108 96 95
f 108 95 106
f 109 108 106
f 109 106 107
f 109 107 90
f 109 90 105
f 104 105 51
f 104 51 6
f 3 47 97
f 3 97 98
f 98 99 48
f 98 48 3
f 110 97 96
f 110 96 108
f 111 109 105
f 111 105 104
f 103 104 6
f 103 6 50
f 50 5 102
f 50 102 103
f 100 99 98
f 100 98 112
f 4 48 99
f 4 99 100
f 112 98 97
f 112 97 110
f 49 4 100
f 49 100 101
f 101 100 112
f 101 112 113
f 113 103 102
f 113 102 101
f 101 102 5
f 101 5 49
f 113 111 104
f 113 104 103
f 111 110 108
f 111 108 109
f 113 112 110
f 113 110 111
