# Ulna_L rest
v 0.414180 0.022050 -0.056549
v 0.412248 0.015837 -0.058674
v 0.414440 0.013011 -0.060083
v 0.419148 0.012167 -0.061991
v 0.425115 0.012767 -0.064230
v 0.431149 0.014225 -0.064481
v 0.434504 0.014019 -0.062304
v 0.432518 0.019166 -0.059304
v 0.432109 0.021663 -0.058611
v 0.423684 0.020655 -0.060529
v 0.418848 0.021093 -0.058950
v 0.412171 0.019444 -0.056577
v 0.428105 0.021019 -0.059951
v 0.418396 0.015465 -0.062992
v 0.418376 0.018441 -0.061502
v 0.423717 0.018874 -0.063579
v 0.424025 0.016274 -0.065372
v 0.428337 0.019146 -0.062572
v 0.429269 0.016832 -0.064608
v 0.432805 0.017098 -0.061048
v 0.414140 0.023363 -0.056799
v 0.418553 0.021964 -0.058750
v 0.423655 0.021316 -0.060582
v 0.428166 0.021727 -0.060151
v 0.431725 0.022396 -0.058591
v 0.417950 0.024463 -0.060963
v 0.412718 0.025790 -0.057882
v 0.423222 0.023945 -0.062570
v 0.427763 0.024247 -0.061424
v 0.430995 0.024856 -0.058472
v 0.431006 0.027905 -0.058143
v 0.427857 0.027700 -0.062240
v 0.423473 0.027562 -0.063758
v 0.417889 0.027939 -0.063317
v 0.412456 0.028424 -0.060055
v 0.429640 0.030777 -0.057373
v 0.428064 0.030720 -0.061450
v 0.423253 0.031380 -0.063247
v 0.418014 0.031354 -0.062135
v 0.414653 0.030487 -0.060951
v 0.434842 0.021338 -0.056352
v 0.434196 0.023361 -0.055933
v 0.433327 0.025600 -0.055753
v 0.433177 0.028109 -0.055401
v 0.430998 0.030065 -0.054607
v 0.435354 0.018757 -0.056671
v 0.435847 0.016091 -0.057479
v 0.436454 0.013261 -0.060137
v 0.437504 0.010164 -0.059689
v 0.438638 0.011134 -0.058291
v 0.437905 0.013455 -0.058744
v 0.436481 0.012454 -0.062743
v 0.431770 0.013428 -0.065682
v 0.425193 0.012122 -0.065942
v 0.418134 0.011083 -0.063344
v 0.413053 0.012356 -0.061435
v 0.410522 0.016023 -0.060057
v 0.410128 0.019181 -0.057388
v 0.410485 0.021298 -0.057020
v 0.410549 0.023508 -0.057412
v 0.410353 0.025290 -0.059060
v 0.410264 0.027520 -0.061400
v 0.412752 0.030560 -0.063773
v 0.418131 0.032845 -0.065733
v 0.423834 0.032509 -0.065454
v 0.428531 0.032181 -0.061696
v 0.430060 0.032926 -0.056574
v 0.430745 0.031455 -0.053825
v 0.431904 0.032033 -0.052229
v 0.431987 0.033517 -0.055631
v 0.439563 0.008545 -0.056239
v 0.439995 0.007153 -0.057349
v 0.440956 0.006740 -0.051603
v 0.439271 0.008116 -0.052491
v 0.437920 0.009605 -0.050063
v 0.440165 0.008000 -0.048750
v 0.434303 0.012721 -0.047843
v 0.436243 0.012033 -0.045908
v 0.432431 0.015062 -0.045874
v 0.434518 0.014261 -0.043609
v 0.433786 0.016777 -0.041952
v 0.433026 0.017908 -0.044748
v 0.434039 0.020955 -0.045088
v 0.435296 0.020834 -0.042343
v 0.433901 0.024505 -0.046431
v 0.435056 0.025194 -0.044510
v 0.435850 0.029898 -0.049207
v 0.435207 0.029098 -0.049900
v 0.437430 0.016068 -0.056798
v 0.437940 0.019186 -0.055594
v 0.437208 0.021431 -0.054842
v 0.436149 0.023339 -0.054256
v 0.434898 0.025613 -0.053644
v 0.434037 0.028050 -0.053732
v 0.433294 0.029197 -0.053747
v 0.437410 0.029744 -0.049850
v 0.435868 0.033418 -0.055408
v 0.436068 0.032343 -0.053093
v 0.442415 0.032741 -0.065870
v 0.437061 0.031944 -0.067669
v 0.442324 0.033246 -0.061331
v 0.439922 0.027973 -0.046464
v 0.441866 0.024823 -0.043391
v 0.444062 0.027225 -0.046391
v 0.440557 0.020730 -0.042996
v 0.440870 0.017339 -0.043795
v 0.442812 0.014936 -0.045140
v 0.444974 0.012483 -0.046872
v 0.445893 0.009476 -0.049071
v 0.445893 0.007838 -0.052346
v 0.445171 0.008716 -0.058340
v 0.443531 0.012125 -0.061557
v 0.438831 0.014064 -0.064249
v 0.432345 0.014824 -0.067411
v 0.425386 0.014058 -0.067611
v 0.418116 0.012871 -0.066181
v 0.412660 0.013239 -0.064798
v 0.410118 0.016991 -0.062787
v 0.409663 0.020693 -0.061165
v 0.409756 0.023061 -0.060476
v 0.409258 0.026082 -0.063565
v 0.412258 0.029114 -0.067073
v 0.416688 0.031981 -0.070062
v 0.425243 0.032449 -0.071666
v 0.431334 0.032357 -0.069191
v 0.409301 0.022559 -0.065131
v 0.410809 0.019587 -0.066895
v 0.413552 0.016949 -0.068418
v 0.418865 0.016012 -0.069578
v 0.426090 0.016112 -0.070059
v 0.433847 0.017269 -0.069954
v 0.440689 0.018291 -0.069907
v 0.447901 0.016576 -0.065075
v 0.446878 0.019250 -0.070343
v 0.448870 0.014236 -0.061148
v 0.450195 0.011768 -0.058057
v 0.451438 0.010842 -0.054102
v 0.451564 0.011732 -0.050656
v 0.450796 0.013669 -0.048907
v 0.449489 0.016861 -0.047803
v 0.448716 0.019171 -0.046533
v 0.448308 0.021981 -0.045423
v 0.448720 0.024529 -0.045154
v 0.448579 0.027059 -0.047721
v 0.454436 0.027355 -0.050638
v 0.455340 0.025266 -0.049069
v 0.447104 0.027643 -0.050591
v 0.453646 0.028521 -0.052819
v 0.444404 0.030291 -0.054290
v 0.442700 0.033126 -0.057925
v 0.452161 0.032877 -0.054999
v 0.451297 0.035103 -0.058900
v 0.450952 0.035021 -0.062592
v 0.450796 0.034551 -0.066610
v 0.444339 0.032558 -0.071121
v 0.438379 0.031584 -0.072084
v 0.433008 0.031111 -0.072808
v 0.426369 0.030142 -0.073168
v 0.414477 0.028578 -0.072186
v 0.411114 0.025986 -0.069344
v 0.411851 0.022301 -0.070454
v 0.414061 0.019580 -0.070953
v 0.417553 0.019626 -0.073297
v 0.425843 0.020575 -0.074798
v 0.433043 0.021617 -0.074873
v 0.440031 0.022730 -0.074729
v 0.445497 0.023234 -0.074845
v 0.450594 0.033757 -0.070797
v 0.414822 0.023799 -0.074223
v 0.426623 0.025640 -0.075226
v 0.433348 0.026801 -0.075525
v 0.439512 0.027701 -0.075188
v 0.444882 0.028414 -0.075278
v 0.451106 0.029586 -0.075523
v 0.452574 0.024506 -0.075204
v 0.453528 0.020316 -0.070363
v 0.454121 0.017822 -0.065219
v 0.455448 0.023342 -0.048927
v 0.455724 0.020585 -0.049933
v 0.455888 0.019079 -0.050969
v 0.456381 0.017033 -0.052169
v 0.456146 0.014606 -0.053477
v 0.455965 0.013906 -0.056045
v 0.455201 0.014433 -0.058449
v 0.454723 0.016050 -0.061423
v 0.472844 0.021184 -0.055538
v 0.472501 0.023138 -0.054739
v 0.472194 0.024958 -0.054682
v 0.471524 0.027158 -0.055552
v 0.471244 0.028958 -0.056375
v 0.470537 0.031245 -0.057242
v 0.470179 0.033257 -0.058089
v 0.469619 0.035382 -0.060129
v 0.469094 0.036155 -0.063354
v 0.468703 0.036043 -0.066768
v 0.468613 0.035904 -0.070453
v 0.468455 0.034578 -0.074214
v 0.468969 0.030695 -0.076098
v 0.469933 0.026664 -0.074876
v 0.470739 0.023868 -0.071443
v 0.471312 0.021934 -0.067916
v 0.471882 0.020595 -0.064875
v 0.472313 0.019592 -0.062187
v 0.472663 0.019067 -0.059813
v 0.472845 0.019551 -0.057116
v 0.493349 0.025280 -0.058494
v 0.493043 0.027101 -0.058233
v 0.492713 0.028965 -0.058809
v 0.492267 0.031318 -0.059523
v 0.492096 0.033769 -0.059559
v 0.491665 0.035942 -0.059592
v 0.491497 0.038229 -0.060714
v 0.491095 0.039729 -0.063621
v 0.490922 0.039520 -0.067052
v 0.490706 0.038763 -0.069914
v 0.490718 0.037786 -0.072964
v 0.490695 0.035591 -0.075356
v 0.491073 0.032325 -0.075691
v 0.491596 0.029601 -0.074198
v 0.492074 0.027535 -0.071955
v 0.492463 0.025950 -0.069549
v 0.492812 0.024783 -0.067177
v 0.493129 0.023870 -0.064705
v 0.493338 0.023356 -0.062309
v 0.493427 0.023781 -0.059910
v 0.516328 0.028667 -0.060340
v 0.516134 0.030711 -0.060201
v 0.515982 0.032710 -0.059863
v 0.515750 0.034629 -0.059170
v 0.515461 0.037040 -0.058978
v 0.515297 0.039341 -0.060431
v 0.515090 0.040369 -0.062886
v 0.515007 0.040272 -0.065596
v 0.514873 0.039703 -0.068200
v 0.515021 0.039227 -0.070550
v 0.514981 0.038430 -0.073071
v 0.515025 0.036552 -0.074867
v 0.515288 0.034100 -0.074847
v 0.515593 0.032098 -0.073578
v 0.515810 0.030469 -0.071922
v 0.515966 0.029130 -0.070051
v 0.516246 0.028122 -0.068129
v 0.516325 0.027269 -0.066062
v 0.516571 0.026775 -0.063690
v 0.516568 0.027209 -0.061449
v 0.542258 0.031567 -0.061206
v 0.542193 0.033338 -0.060651
v 0.542061 0.035097 -0.059270
v 0.541818 0.036993 -0.058035
v 0.541678 0.039222 -0.058075
v 0.541540 0.041207 -0.060684
v 0.541458 0.041249 -0.063444
v 0.541391 0.040732 -0.065831
v 0.541423 0.040201 -0.067907
v 0.541438 0.039698 -0.069945
v 0.541637 0.039064 -0.072070
v 0.541622 0.037831 -0.074013
v 0.541765 0.035752 -0.074308
v 0.541872 0.033884 -0.073357
v 0.542083 0.032337 -0.071882
v 0.542191 0.031114 -0.070213
v 0.542324 0.030072 -0.068383
v 0.542338 0.029201 -0.066416
v 0.542545 0.028776 -0.064081
v 0.542415 0.029735 -0.061918
v 0.567089 0.033496 -0.061112
v 0.567011 0.034995 -0.059971
v 0.566950 0.036647 -0.058446
v 0.566840 0.038576 -0.057210
v 0.566741 0.040858 -0.057972
v 0.566576 0.042211 -0.060753
v 0.566460 0.042000 -0.063312
v 0.566482 0.041584 -0.065492
v 0.566464 0.041155 -0.067416
v 0.566536 0.040655 -0.069307
v 0.566521 0.040030 -0.071256
v 0.566615 0.039085 -0.073209
v 0.566714 0.037225 -0.074263
v 0.566764 0.035079 -0.073350
v 0.566951 0.033601 -0.071938
v 0.567081 0.032416 -0.070121
v 0.567164 0.031599 -0.068167
v 0.567244 0.031195 -0.066084
v 0.567255 0.031416 -0.064094
v 0.567240 0.032262 -0.062378
v 0.586391 0.034559 -0.060530
v 0.586428 0.035892 -0.059059
v 0.586269 0.037468 -0.057612
v 0.586199 0.039610 -0.056913
v 0.586059 0.041675 -0.058164
v 0.585840 0.042890 -0.060479
v 0.585845 0.042864 -0.062904
v 0.585813 0.042489 -0.065061
v 0.585747 0.042047 -0.066964
v 0.585733 0.041549 -0.068756
v 0.585758 0.040875 -0.070733
v 0.585749 0.039961 -0.072621
v 0.585792 0.038261 -0.073836
v 0.586046 0.036192 -0.073142
v 0.586085 0.034621 -0.071627
v 0.586211 0.033451 -0.069892
v 0.586335 0.032565 -0.067785
v 0.586400 0.032200 -0.065695
v 0.586424 0.032532 -0.063636
v 0.586456 0.033435 -0.061988
v 0.603064 0.035536 -0.071221
v 0.603242 0.034326 -0.069385
v 0.603379 0.033575 -0.067329
v 0.603571 0.033353 -0.065265
v 0.603621 0.033746 -0.063254
v 0.603627 0.034593 -0.061707
v 0.603688 0.035693 -0.060409
v 0.603646 0.036935 -0.059130
v 0.603615 0.038280 -0.057761
v 0.603542 0.040474 -0.056772
v 0.603432 0.042346 -0.057726
v 0.603184 0.043469 -0.060089
v 0.603081 0.043426 -0.062437
v 0.602991 0.043087 -0.064466
v 0.602881 0.042708 -0.066247
v 0.602796 0.042213 -0.068207
v 0.602864 0.041627 -0.069997
v 0.602684 0.040759 -0.071817
v 0.602803 0.039113 -0.072957
v 0.602893 0.037285 -0.072641
v 0.622563 0.036971 -0.070413
v 0.622685 0.035816 -0.068853
v 0.622856 0.035038 -0.066986
v 0.623000 0.034759 -0.064971
v 0.623114 0.035060 -0.062989
v 0.623161 0.035931 -0.061421
v 0.623174 0.036987 -0.060265
v 0.623171 0.038049 -0.059091
v 0.623116 0.039356 -0.058050
v 0.623083 0.041224 -0.057795
v 0.622899 0.042892 -0.058649
v 0.622695 0.043894 -0.060492
v 0.622520 0.044152 -0.062372
v 0.622345 0.044051 -0.064160
v 0.622388 0.043787 -0.065894
v 0.622344 0.043369 -0.067563
v 0.622125 0.042706 -0.069351
v 0.622164 0.041815 -0.070819
v 0.622194 0.040416 -0.071631
v 0.622295 0.038590 -0.071480
v 0.641417 0.039212 -0.069646
v 0.641666 0.038075 -0.068345
v 0.641837 0.037269 -0.066679
v 0.641977 0.036806 -0.064885
v 0.642084 0.036911 -0.062885
v 0.642178 0.037901 -0.061166
v 0.642175 0.039112 -0.060304
v 0.641988 0.040234 -0.059630
v 0.642005 0.041536 -0.059114
v 0.641855 0.042884 -0.059290
v 0.641652 0.044116 -0.059935
v 0.641516 0.044934 -0.061144
v 0.641393 0.045515 -0.062702
v 0.641268 0.045853 -0.064283
v 0.641138 0.045845 -0.065888
v 0.641260 0.045437 -0.067442
v 0.641068 0.044657 -0.068844
v 0.641080 0.043589 -0.070039
v 0.641175 0.042161 -0.070629
v 0.641315 0.040627 -0.070474
v 0.657333 0.041332 -0.069735
v 0.657494 0.040067 -0.068391
v 0.657698 0.039305 -0.066609
v 0.657857 0.039326 -0.064557
v 0.657885 0.040058 -0.063069
v 0.657779 0.040992 -0.061826
v 0.657819 0.041955 -0.060578
v 0.657776 0.042789 -0.059481
v 0.657762 0.044063 -0.058886
v 0.657551 0.045364 -0.059002
v 0.657389 0.046650 -0.059695
v 0.657164 0.047526 -0.060823
v 0.657037 0.048332 -0.062561
v 0.656928 0.048602 -0.064070
v 0.656859 0.048381 -0.065755
v 0.656888 0.047791 -0.067279
v 0.656826 0.046941 -0.068679
v 0.656874 0.045833 -0.069813
v 0.656986 0.044405 -0.070470
v 0.657143 0.042822 -0.070485
v 0.670432 0.042456 -0.070048
v 0.670648 0.041349 -0.068416
v 0.670750 0.041306 -0.066376
v 0.670775 0.041951 -0.064304
v 0.670794 0.042473 -0.062706
v 0.670809 0.042992 -0.061222
v 0.670800 0.043731 -0.059785
v 0.670746 0.044809 -0.058514
v 0.670638 0.046240 -0.057602
v 0.670463 0.047893 -0.057552
v 0.670265 0.049204 -0.058196
v 0.670063 0.050366 -0.059674
v 0.669901 0.050999 -0.061768
v 0.669815 0.051021 -0.063865
v 0.669779 0.050571 -0.065624
v 0.669766 0.049736 -0.067444
v 0.669842 0.048774 -0.068777
v 0.669885 0.047472 -0.069876
v 0.670074 0.045799 -0.070644
v 0.670202 0.044182 -0.070773
v 0.681609 0.042259 -0.070491
v 0.682061 0.041233 -0.068848
v 0.682290 0.041383 -0.066380
v 0.682233 0.041844 -0.064009
v 0.682167 0.042093 -0.061146
v 0.682028 0.042891 -0.059148
v 0.681778 0.044200 -0.057513
v 0.681473 0.045788 -0.056181
v 0.681135 0.047642 -0.055022
v 0.680766 0.049723 -0.054889
v 0.680541 0.051186 -0.055647
v 0.680182 0.052902 -0.058126
v 0.680055 0.053442 -0.060732
v 0.680097 0.053006 -0.063344
v 0.680223 0.052154 -0.065485
v 0.680418 0.050967 -0.067084
v 0.680636 0.049699 -0.068299
v 0.680854 0.048425 -0.069868
v 0.681170 0.046646 -0.071150
v 0.681575 0.044459 -0.071570
v 0.684326 0.041134 -0.062166
v 0.683397 0.041530 -0.060759
v 0.685035 0.041252 -0.065461
v 0.686137 0.040970 -0.064135
v 0.685990 0.040872 -0.067410
v 0.686461 0.040578 -0.068979
v 0.686084 0.041504 -0.070777
v 0.685969 0.044211 -0.071830
v 0.685174 0.046683 -0.071242
v 0.684249 0.048527 -0.069492
v 0.683647 0.049574 -0.067887
v 0.683203 0.050683 -0.066869
v 0.682957 0.052321 -0.065297
v 0.682373 0.053416 -0.062854
v 0.682186 0.053922 -0.060325
v 0.682357 0.053379 -0.057345
v 0.682967 0.051978 -0.055043
v 0.683892 0.050002 -0.053458
v 0.684028 0.047604 -0.053534
v 0.683800 0.045458 -0.054636
v 0.683865 0.043414 -0.056178
v 0.683812 0.041796 -0.058523
v 0.690650 0.042836 -0.066590
v 0.690796 0.042786 -0.065334
v 0.692425 0.044640 -0.065581
v 0.692309 0.044743 -0.064445
v 0.692710 0.046968 -0.064902
v 0.692461 0.047199 -0.063794
v 0.691439 0.049121 -0.063737
v 0.691623 0.048420 -0.064990
v 0.689424 0.049902 -0.065366
v 0.689737 0.049317 -0.065706
v 0.686478 0.050845 -0.066082
v 0.686363 0.049764 -0.066819
v 0.685690 0.053113 -0.064215
v 0.685992 0.054258 -0.062179
v 0.686359 0.054910 -0.059341
v 0.686411 0.054326 -0.056387
v 0.685578 0.052736 -0.054284
v 0.686468 0.050415 -0.052677
v 0.686835 0.047729 -0.052823
v 0.686613 0.045254 -0.053854
v 0.686362 0.042818 -0.055930
v 0.685795 0.041263 -0.058578
v 0.687617 0.052272 -0.064925
v 0.689879 0.051605 -0.064359
v 0.691705 0.052024 -0.062134
v 0.692158 0.052305 -0.059314
v 0.692759 0.049135 -0.059899
v 0.692724 0.046854 -0.060718
v 0.691439 0.052132 -0.056407
v 0.692229 0.049093 -0.057043
v 0.690247 0.048790 -0.054254
v 0.689321 0.051516 -0.053889
v 0.686466 0.049160 -0.067676
v 0.689943 0.048835 -0.066889
v 0.692173 0.048417 -0.066517
v 0.694357 0.046778 -0.067388
v 0.694431 0.044648 -0.068025
v 0.692613 0.042672 -0.068504
v 0.687207 0.048671 -0.068528
v 0.690494 0.048409 -0.068167
v 0.693523 0.047889 -0.067795
v 0.694777 0.046368 -0.068740
v 0.694740 0.044617 -0.069314
v 0.692645 0.042702 -0.069619
v 0.688415 0.041510 -0.065334
v 0.687748 0.041569 -0.066403
v 0.689328 0.041188 -0.068158
v 0.689922 0.041260 -0.069280
v 0.689369 0.041971 -0.070823
v 0.689063 0.044408 -0.071770
v 0.688620 0.046738 -0.070838
v 0.691891 0.046693 -0.070007
v 0.692208 0.044580 -0.071059
v 0.692257 0.043334 -0.070775
v 0.692405 0.044638 -0.061857
v 0.691529 0.043028 -0.062923
v 0.688098 0.041084 -0.059931
v 0.690338 0.045752 -0.055342
v 0.689814 0.043162 -0.056888
v 0.692143 0.046472 -0.057980
v 0.691601 0.044253 -0.059408
v 0.690105 0.041716 -0.061201
v 0.688025 0.052648 -0.054068
v 0.689439 0.053761 -0.056081
v 0.689837 0.054248 -0.059332
v 0.689001 0.053717 -0.062330
v 0.439909 0.012242 -0.051882
v 0.436653 0.014340 -0.049722
v 0.435547 0.016759 -0.048085
v 0.435822 0.019353 -0.047233
v 0.435372 0.022318 -0.047612
v 0.435141 0.025238 -0.048392
v 0.435361 0.027868 -0.050133
v 0.438900 0.014347 -0.054826
v 0.438845 0.017067 -0.052698
v 0.438743 0.019814 -0.051342
v 0.437256 0.021850 -0.050937
v 0.435815 0.024696 -0.051204
v 0.435392 0.027502 -0.051689
v 0.433737 0.028897 -0.052426
f 17 16 15
f 17 15 14
f 19 18 16
f 19 16 17
f 10 11 15
f 10 15 16
f 13 10 16
f 13 16 18
f 23 22 11
f 23 11 10
f 24 23 10
f 24 10 13
f 28 23 24
f 28 24 29
f 26 22 23
f 26 23 28
f 28 29 32
f 28 32 33
f 26 28 33
f 26 33 34
f 25 24 13
f 25 13 9
f 30 29 24
f 30 24 25
f 32 29 30
f 32 30 31
f 8 9 13
f 8 13 18
f 8 18 19
f 8 19 20
f 6 7 20
f 6 20 19
f 5 6 19
f 5 19 17
f 4 5 17
f 4 17 14
f 2 3 4
f 2 4 14
f 1 12 15
f 1 15 11
f 12 2 14
f 12 14 15
f 1 11 22
f 1 22 21
f 21 22 26
f 21 26 27
f 27 26 34
f 27 34 35
f 40 35 34
f 40 34 39
f 39 34 33
f 39 33 38
f 38 33 32
f 38 32 37
f 37 32 31
f 37 31 36
f 47 20 7
f 47 7 48
f 46 8 20
f 46 20 47
f 41 9 8
f 41 8 46
f 42 25 9
f 42 9 41
f 30 25 42
f 30 42 43
f 31 30 43
f 31 43 44
f 36 31 44
f 36 44 45
f 67 68 69
f 67 69 70
f 49 48 7
f 49 7 52
f 53 52 7
f 53 7 6
f 54 53 6
f 54 6 5
f 55 54 5
f 55 5 4
f 56 55 4
f 56 4 3
f 57 56 3
f 57 3 2
f 58 57 2
f 58 2 12
f 59 58 12
f 59 12 1
f 1 21 60
f 1 60 59
f 60 21 27
f 60 27 61
f 120 59 60
f 120 60 61
f 62 61 27
f 62 27 35
f 63 62 35
f 63 35 40
f 64 63 40
f 64 40 39
f 65 64 39
f 65 39 38
f 66 65 38
f 66 38 37
f 66 37 36
f 66 36 67
f 121 120 61
f 121 61 62
f 119 58 59
f 119 59 120
f 118 57 58
f 118 58 119
f 117 56 57
f 117 57 118
f 116 55 56
f 116 56 117
f 115 54 55
f 115 55 116
f 114 53 54
f 114 54 115
f 113 52 53
f 113 53 114
f 112 49 52
f 112 52 113
f 111 72 49
f 111 49 112
f 110 73 72
f 110 72 111
f 109 76 73
f 109 73 110
f 108 78 76
f 108 76 109
f 107 80 78
f 107 78 108
f 106 81 80
f 106 80 107
f 105 84 81
f 105 81 106
f 103 86 84
f 103 84 105
f 102 86 103
f 102 103 104
f 104 103 143
f 104 143 144
f 147 102 104
f 147 104 144
f 98 97 70
f 98 70 69
f 101 97 98
f 101 98 150
f 99 70 97
f 99 97 101
f 100 67 70
f 100 70 99
f 125 66 67
f 125 67 100
f 124 65 66
f 124 66 125
f 123 64 65
f 123 65 124
f 122 63 64
f 122 64 123
f 122 121 62
f 122 62 63
f 119 120 121
f 119 121 126
f 126 121 122
f 126 122 160
f 118 119 126
f 118 126 127
f 117 118 127
f 117 127 128
f 116 117 128
f 116 128 129
f 115 116 129
f 115 129 130
f 114 115 130
f 114 130 131
f 113 114 131
f 113 131 132
f 160 122 123
f 160 123 159
f 127 126 160
f 127 160 161
f 162 128 127
f 162 127 161
f 129 128 162
f 129 162 163
f 159 123 124
f 159 124 158
f 161 160 159
f 161 159 169
f 163 162 161
f 163 161 169
f 130 129 163
f 130 163 164
f 164 163 169
f 164 169 170
f 165 131 130
f 165 130 164
f 169 159 158
f 169 158 170
f 171 165 164
f 171 164 170
f 132 131 165
f 132 165 166
f 157 125 100
f 157 100 156
f 158 124 125
f 158 125 157
f 171 170 158
f 171 158 157
f 156 100 99
f 156 99 155
f 172 171 157
f 172 157 156
f 166 165 171
f 166 171 172
f 172 156 155
f 172 155 173
f 167 166 172
f 167 172 173
f 134 132 166
f 134 166 167
f 133 113 132
f 133 132 134
f 143 103 105
f 143 105 142
f 142 105 106
f 142 106 141
f 141 106 107
f 141 107 140
f 140 107 108
f 140 108 139
f 139 108 109
f 139 109 138
f 138 109 110
f 138 110 137
f 137 110 111
f 137 111 136
f 136 111 112
f 136 112 135
f 112 113 133
f 112 133 135
f 96 98 69
f 96 69 87
f 96 87 86
f 96 86 102
f 96 102 147
f 96 147 149
f 150 98 96
f 150 96 149
f 207 206 226
f 207 226 227
f 208 207 227
f 208 227 228
f 209 208 228
f 209 228 229
f 210 209 229
f 210 229 230
f 211 210 230
f 211 230 231
f 212 211 231
f 212 231 232
f 213 212 232
f 213 232 233
f 214 213 233
f 214 233 234
f 215 214 234
f 215 234 235
f 216 215 235
f 216 235 236
f 217 216 236
f 217 236 237
f 218 217 237
f 218 237 238
f 219 218 238
f 219 238 239
f 220 219 239
f 220 239 240
f 221 220 240
f 221 240 241
f 222 221 241
f 222 241 242
f 223 222 242
f 223 242 243
f 224 223 243
f 224 243 244
f 225 224 244
f 225 244 245
f 245 226 206
f 245 206 225
f 227 226 246
f 227 246 247
f 228 227 247
f 228 247 248
f 229 228 248
f 229 248 249
f 230 229 249
f 230 249 250
f 231 230 250
f 231 250 251
f 232 231 251
f 232 251 252
f 233 232 252
f 233 252 253
f 234 233 253
f 234 253 254
f 235 234 254
f 235 254 255
f 236 235 255
f 236 255 256
f 237 236 256
f 237 256 257
f 238 237 257
f 238 257 258
f 239 238 258
f 239 258 259
f 240 239 259
f 240 259 260
f 241 240 260
f 241 260 261
f 242 241 261
f 242 261 262
f 243 242 262
f 243 262 263
f 244 243 263
f 244 263 264
f 245 244 264
f 245 264 265
f 265 246 226
f 265 226 245
f 247 246 266
f 247 266 267
f 248 247 267
f 248 267 268
f 249 248 268
f 249 268 269
f 250 249 269
f 250 269 270
f 251 250 270
f 251 270 271
f 252 251 271
f 252 271 272
f 253 252 272
f 253 272 273
f 254 253 273
f 254 273 274
f 255 254 274
f 255 274 275
f 256 255 275
f 256 275 276
f 257 256 276
f 257 276 277
f 258 257 277
f 258 277 278
f 259 258 278
f 259 278 279
f 260 259 279
f 260 279 280
f 261 260 280
f 261 280 281
f 262 261 281
f 262 281 282
f 263 262 282
f 263 282 283
f 264 263 283
f 264 283 284
f 265 264 284
f 265 284 285
f 285 266 246
f 285 246 265
f 180 140 139
f 180 139 181
f 180 181 186
f 180 186 187
f 187 186 206
f 187 206 207
f 179 141 140
f 179 140 180
f 188 187 207
f 188 207 208
f 179 180 187
f 179 187 188
f 182 181 139
f 182 139 138
f 205 186 181
f 205 181 182
f 225 206 186
f 225 186 205
f 183 182 138
f 183 138 137
f 204 205 182
f 204 182 183
f 224 225 205
f 224 205 204
f 184 183 137
f 184 137 136
f 203 204 183
f 203 183 184
f 223 224 204
f 223 204 203
f 185 184 136
f 185 136 135
f 202 203 184
f 202 184 185
f 222 223 203
f 222 203 202
f 185 135 133
f 185 133 177
f 201 202 185
f 201 185 177
f 221 222 202
f 221 202 201
f 177 133 134
f 177 134 176
f 200 201 177
f 200 177 176
f 220 221 201
f 220 201 200
f 178 142 141
f 178 141 179
f 178 179 188
f 178 188 189
f 189 188 208
f 189 208 209
f 146 143 142
f 146 142 178
f 146 178 189
f 146 189 190
f 190 189 209
f 190 209 210
f 145 144 143
f 145 143 146
f 145 146 190
f 145 190 191
f 191 190 210
f 191 210 211
f 148 147 144
f 148 144 145
f 148 145 191
f 148 191 192
f 192 191 211
f 192 211 212
f 149 147 148
f 149 148 151
f 151 148 192
f 151 192 193
f 193 192 212
f 193 212 213
f 150 149 151
f 150 151 152
f 152 151 193
f 152 193 194
f 194 193 213
f 194 213 214
f 101 150 152
f 101 152 153
f 153 152 194
f 153 194 195
f 195 194 214
f 195 214 215
f 99 101 153
f 99 153 154
f 154 153 195
f 154 195 196
f 196 195 215
f 196 215 216
f 168 155 99
f 168 99 154
f 168 154 196
f 168 196 197
f 197 196 216
f 197 216 217
f 173 155 168
f 173 168 174
f 174 168 197
f 174 197 198
f 198 197 217
f 198 217 218
f 167 173 174
f 167 174 175
f 175 174 198
f 175 198 199
f 176 134 167
f 176 167 175
f 199 200 176
f 199 176 175
f 199 198 218
f 199 218 219
f 219 220 200
f 219 200 199
f 327 326 346
f 327 346 347
f 328 327 347
f 328 347 348
f 329 328 348
f 329 348 349
f 330 329 349
f 330 349 350
f 331 330 350
f 331 350 351
f 332 331 351
f 332 351 352
f 333 332 352
f 333 352 353
f 334 333 353
f 334 353 354
f 335 334 354
f 335 354 355
f 336 335 355
f 336 355 356
f 337 336 356
f 337 356 357
f 338 337 357
f 338 357 358
f 339 338 358
f 339 358 359
f 340 339 359
f 340 359 360
f 341 340 360
f 341 360 361
f 342 341 361
f 342 361 362
f 343 342 362
f 343 362 363
f 344 343 363
f 344 363 364
f 345 344 364
f 345 364 365
f 365 346 326
f 365 326 345
f 347 346 366
f 347 366 367
f 348 347 367
f 348 367 368
f 349 348 368
f 349 368 369
f 350 349 369
f 350 369 370
f 351 350 370
f 351 370 371
f 352 351 371
f 352 371 372
f 353 352 372
f 353 372 373
f 354 353 373
f 354 373 374
f 355 354 374
f 355 374 375
f 356 355 375
f 356 375 376
f 357 356 376
f 357 376 377
f 358 357 377
f 358 377 378
f 359 358 378
f 359 378 379
f 360 359 379
f 360 379 380
f 361 360 380
f 361 380 381
f 362 361 381
f 362 381 382
f 363 362 382
f 363 382 383
f 364 363 383
f 364 383 384
f 365 364 384
f 365 384 385
f 385 366 346
f 385 346 365
f 282 281 301
f 282 301 302
f 302 301 307
f 302 307 308
f 308 307 327
f 308 327 328
f 283 282 302
f 283 302 303
f 303 302 308
f 303 308 309
f 309 308 328
f 309 328 329
f 284 283 303
f 284 303 304
f 304 303 309
f 304 309 310
f 310 309 329
f 310 329 330
f 285 284 304
f 285 304 305
f 305 304 310
f 305 310 311
f 311 310 330
f 311 330 331
f 266 285 305
f 266 305 286
f 286 305 311
f 286 311 312
f 312 311 331
f 312 331 332
f 267 266 286
f 267 286 287
f 287 286 312
f 287 312 313
f 313 312 332
f 313 332 333
f 288 287 313
f 288 313 314
f 314 313 333
f 314 333 334
f 268 267 287
f 268 287 288
f 269 268 288
f 269 288 289
f 289 288 314
f 289 314 315
f 315 314 334
f 315 334 335
f 270 269 289
f 270 289 290
f 290 289 315
f 290 315 316
f 316 315 335
f 316 335 336
f 271 270 290
f 271 290 291
f 291 290 316
f 291 316 317
f 291 292 272
f 291 272 271
f 317 318 292
f 317 292 291
f 317 316 336
f 317 336 337
f 337 338 318
f 337 318 317
f 273 272 292
f 273 292 293
f 293 292 318
f 293 318 319
f 319 318 338
f 319 338 339
f 274 273 293
f 274 293 294
f 294 293 319
f 294 319 320
f 320 319 339
f 320 339 340
f 275 274 294
f 275 294 295
f 295 294 320
f 295 320 321
f 321 320 340
f 321 340 341
f 276 275 295
f 276 295 296
f 296 295 321
f 296 321 322
f 322 321 341
f 322 341 342
f 277 276 296
f 277 296 297
f 297 296 322
f 297 322 323
f 323 322 342
f 323 342 343
f 278 277 297
f 278 297 298
f 298 297 323
f 298 323 324
f 324 323 343
f 324 343 344
f 279 278 298
f 279 298 299
f 299 298 324
f 299 324 325
f 325 324 344
f 325 344 345
f 280 279 299
f 280 299 300
f 300 299 325
f 300 325 306
f 300 301 281
f 300 281 280
f 306 307 301
f 306 301 300
f 326 327 307
f 326 307 306
f 306 325 345
f 306 345 326
f 370 369 389
f 370 389 390
f 371 370 390
f 371 390 391
f 372 371 391
f 372 391 392
f 373 372 392
f 373 392 393
f 374 373 393
f 374 393 394
f 375 374 394
f 375 394 395
f 376 375 395
f 376 395 396
f 377 376 396
f 377 396 397
f 378 377 397
f 378 397 398
f 379 378 398
f 379 398 399
f 380 379 399
f 380 399 400
f 381 380 400
f 381 400 401
f 382 381 401
f 382 401 402
f 383 382 402
f 383 402 403
f 384 383 403
f 384 403 404
f 385 384 404
f 385 404 405
f 366 385 405
f 366 405 386
f 367 366 386
f 367 386 387
f 368 367 387
f 368 387 388
f 388 389 369
f 388 369 368
f 409 410 390
f 409 390 389
f 408 409 389
f 408 389 388
f 407 408 388
f 407 388 387
f 406 407 387
f 406 387 386
f 425 406 386
f 425 386 405
f 424 425 405
f 424 405 404
f 423 424 404
f 423 404 403
f 422 423 403
f 422 403 402
f 421 422 402
f 421 402 401
f 420 421 401
f 420 401 400
f 419 420 400
f 419 400 399
f 418 419 399
f 418 399 398
f 416 417 397
f 416 397 396
f 415 416 396
f 415 396 395
f 414 415 395
f 414 395 394
f 413 414 394
f 413 394 393
f 412 413 393
f 412 393 392
f 411 412 392
f 411 392 391
f 391 390 410
f 391 410 411
f 417 418 398
f 417 398 397
f 438 437 421
f 438 421 420
f 439 438 420
f 439 420 419
f 440 439 419
f 440 419 418
f 441 440 418
f 441 418 417
f 441 417 416
f 441 416 442
f 443 442 416
f 443 416 415
f 444 443 415
f 444 415 414
f 445 444 414
f 445 414 413
f 446 445 413
f 446 413 412
f 447 446 412
f 447 412 411
f 427 410 409
f 427 409 426
f 447 411 410
f 447 410 427
f 466 465 443
f 466 443 444
f 436 422 421
f 436 421 437
f 437 438 458
f 437 458 459
f 459 458 456
f 459 456 457
f 457 456 454
f 457 454 455
f 455 454 453
f 455 453 452
f 435 423 422
f 435 422 436
f 480 436 437
f 480 437 459
f 481 480 459
f 481 459 457
f 482 481 457
f 482 457 455
f 483 482 455
f 483 455 452
f 484 483 452
f 484 452 450
f 428 409 408
f 428 408 430
f 485 484 450
f 485 450 448
f 494 485 448
f 494 448 493
f 494 493 428
f 494 428 430
f 431 430 408
f 431 408 407
f 495 494 430
f 495 430 431
f 432 431 407
f 432 407 406
f 433 432 406
f 433 406 425
f 434 433 425
f 434 425 424
f 434 424 423
f 434 423 435
f 486 435 436
f 486 436 480
f 487 486 480
f 487 480 481
f 487 481 482
f 487 482 488
f 498 434 435
f 498 435 486
f 497 433 434
f 497 434 498
f 496 432 433
f 496 433 497
f 496 495 431
f 496 431 432
f 491 485 494
f 491 494 495
f 491 495 496
f 491 496 501
f 499 487 488
f 499 488 489
f 489 488 482
f 489 482 483
f 498 486 487
f 498 487 499
f 490 489 483
f 490 483 484
f 500 499 489
f 500 489 490
f 490 484 485
f 490 485 491
f 490 491 501
f 490 501 500
f 497 498 499
f 497 499 500
f 501 496 497
f 501 497 500
f 451 450 452
f 451 452 453
f 449 448 450
f 449 450 451
f 429 426 409
f 429 409 428
f 469 447 427
f 469 427 426
f 467 466 444
f 467 444 445
f 468 467 445
f 468 445 446
f 468 446 447
f 468 447 469
f 453 454 474
f 453 474 475
f 451 453 475
f 451 475 502
f 478 466 467
f 478 467 505
f 507 477 478
f 507 478 505
f 475 474 477
f 475 477 507
f 506 505 467
f 506 467 468
f 508 507 505
f 508 505 506
f 502 475 507
f 502 507 508
f 492 429 428
f 492 428 493
f 509 504 429
f 509 429 492
f 493 448 449
f 493 449 492
f 492 449 503
f 492 503 509
f 449 451 502
f 449 502 503
f 503 502 508
f 503 508 509
f 469 426 429
f 469 429 504
f 506 468 469
f 506 469 504
f 509 508 506
f 509 506 504
f 465 466 478
f 465 478 479
f 479 478 477
f 479 477 476
f 476 477 474
f 476 474 473
f 460 438 439
f 460 439 461
f 464 442 443
f 464 443 465
f 471 456 458
f 471 458 470
f 470 458 438
f 470 438 460
f 454 456 471
f 454 471 472
f 473 474 454
f 473 454 472
f 462 461 439
f 462 439 440
f 513 470 460
f 513 460 461
f 472 471 470
f 472 470 513
f 463 462 440
f 463 440 441
f 511 512 462
f 511 462 463
f 463 441 442
f 463 442 464
f 463 464 510
f 463 510 511
f 510 464 465
f 510 465 479
f 510 479 476
f 510 476 511
f 511 476 473
f 511 473 512
f 512 473 472
f 512 472 513
f 512 513 461
f 512 461 462
f 77 75 76
f 77 76 78
f 79 77 78
f 79 78 80
f 82 79 80
f 82 80 81
f 83 82 81
f 83 81 84
f 85 83 84
f 85 84 86
f 88 85 86
f 88 86 87
f 46 47 89
f 46 89 90
f 41 46 90
f 41 90 91
f 516 515 77
f 516 77 79
f 523 91 90
f 523 90 522
f 523 522 515
f 523 515 516
f 42 41 91
f 42 91 92
f 517 516 79
f 517 79 82
f 524 92 91
f 524 91 523
f 524 523 516
f 524 516 517
f 43 42 92
f 43 92 93
f 518 517 82
f 518 82 83
f 525 93 92
f 525 92 524
f 525 524 517
f 525 517 518
f 44 43 93
f 44 93 94
f 519 518 83
f 519 83 85
f 526 94 93
f 526 93 525
f 526 525 518
f 526 518 519
f 45 44 94
f 45 94 95
f 520 519 85
f 520 85 88
f 89 47 48
f 89 48 51
f 522 90 89
f 522 89 521
f 51 48 49
f 51 49 50
f 50 49 72
f 50 72 71
f 521 89 51
f 521 51 50
f 50 71 514
f 50 514 521
f 71 72 73
f 71 73 74
f 71 74 75
f 71 75 514
f 74 73 76
f 74 76 75
f 514 75 77
f 514 77 515
f 514 515 522
f 514 522 521
f 68 67 36
f 68 36 45
f 68 45 95
f 68 95 527
f 88 87 69
f 88 69 68
f 527 520 88
f 527 88 68
f 527 95 94
f 527 94 526
f 526 519 520
f 526 520 527
